<?xml version="1.0" encoding="utf-8" standalone="no"?>
<!DOCTYPE svg PUBLIC "-//W3C//DTD SVG 1.1//EN"
  "http://www.w3.org/Graphics/SVG/1.1/DTD/svg11.dtd">
<!-- Created with matplotlib (http://matplotlib.org/) -->
<svg height="576pt" version="1.1" viewBox="0 0 576 576" width="576pt" xmlns="http://www.w3.org/2000/svg" xmlns:xlink="http://www.w3.org/1999/xlink">
 <defs>
  <style type="text/css">
*{stroke-linecap:butt;stroke-linejoin:round;}
  </style>
 </defs>
 <g id="figure_1">
  <g id="patch_1">
   <path d="M 0 576 
L 576 576 
L 576 0 
L 0 0 
z
" style="fill:#ffffff;"/>
  </g>
  <g id="axes_1">
   <g id="patch_2">
    <path d="M 72 512.64 
L 518.4 512.64 
L 518.4 69.12 
L 72 69.12 
z
" style="fill:#ffffff;"/>
   </g>
   <g id="matplotlib.axis_1">
    <g id="xtick_1">
     <g id="line2d_1">
      <defs>
       <path d="M 0 0 
L 0 3.5 
" id="md089f15219" style="stroke:#000000;stroke-width:0.8;"/>
      </defs>
      <g>
       <use style="stroke:#000000;stroke-width:0.8;" x="72" xlink:href="#md089f15219" y="512.64"/>
      </g>
     </g>
     <g id="text_1">
      <!-- −1 -->
      <defs>
       <path d="M 10.59375 35.5 
L 73.1875 35.5 
L 73.1875 27.203125 
L 10.59375 27.203125 
z
" id="DejaVuSans-2212"/>
       <path d="M 12.40625 8.296875 
L 28.515625 8.296875 
L 28.515625 63.921875 
L 10.984375 60.40625 
L 10.984375 69.390625 
L 28.421875 72.90625 
L 38.28125 72.90625 
L 38.28125 8.296875 
L 54.390625 8.296875 
L 54.390625 0 
L 12.40625 0 
z
" id="DejaVuSans-31"/>
      </defs>
      <g transform="translate(64.628906 527.238438)scale(0.1 -0.1)">
       <use xlink:href="#DejaVuSans-2212"/>
       <use x="83.789062" xlink:href="#DejaVuSans-31"/>
      </g>
     </g>
    </g>
    <g id="xtick_2">
     <g id="line2d_2">
      <g>
       <use style="stroke:#000000;stroke-width:0.8;" x="125.783133" xlink:href="#md089f15219" y="512.64"/>
      </g>
     </g>
     <g id="text_2">
      <!-- 0 -->
      <defs>
       <path d="M 31.78125 66.40625 
Q 24.171875 66.40625 20.328125 58.90625 
Q 16.5 51.421875 16.5 36.375 
Q 16.5 21.390625 20.328125 13.890625 
Q 24.171875 6.390625 31.78125 6.390625 
Q 39.453125 6.390625 43.28125 13.890625 
Q 47.125 21.390625 47.125 36.375 
Q 47.125 51.421875 43.28125 58.90625 
Q 39.453125 66.40625 31.78125 66.40625 
z
M 31.78125 74.21875 
Q 44.046875 74.21875 50.515625 64.515625 
Q 56.984375 54.828125 56.984375 36.375 
Q 56.984375 17.96875 50.515625 8.265625 
Q 44.046875 -1.421875 31.78125 -1.421875 
Q 19.53125 -1.421875 13.0625 8.265625 
Q 6.59375 17.96875 6.59375 36.375 
Q 6.59375 54.828125 13.0625 64.515625 
Q 19.53125 74.21875 31.78125 74.21875 
z
" id="DejaVuSans-30"/>
      </defs>
      <g transform="translate(122.601883 527.238438)scale(0.1 -0.1)">
       <use xlink:href="#DejaVuSans-30"/>
      </g>
     </g>
    </g>
    <g id="xtick_3">
     <g id="line2d_3">
      <g>
       <use style="stroke:#000000;stroke-width:0.8;" x="179.566265" xlink:href="#md089f15219" y="512.64"/>
      </g>
     </g>
     <g id="text_3">
      <!-- 1 -->
      <g transform="translate(176.385015 527.238438)scale(0.1 -0.1)">
       <use xlink:href="#DejaVuSans-31"/>
      </g>
     </g>
    </g>
    <g id="xtick_4">
     <g id="line2d_4">
      <g>
       <use style="stroke:#000000;stroke-width:0.8;" x="233.349398" xlink:href="#md089f15219" y="512.64"/>
      </g>
     </g>
     <g id="text_4">
      <!-- 2 -->
      <defs>
       <path d="M 19.1875 8.296875 
L 53.609375 8.296875 
L 53.609375 0 
L 7.328125 0 
L 7.328125 8.296875 
Q 12.9375 14.109375 22.625 23.890625 
Q 32.328125 33.6875 34.8125 36.53125 
Q 39.546875 41.84375 41.421875 45.53125 
Q 43.3125 49.21875 43.3125 52.78125 
Q 43.3125 58.59375 39.234375 62.25 
Q 35.15625 65.921875 28.609375 65.921875 
Q 23.96875 65.921875 18.8125 64.3125 
Q 13.671875 62.703125 7.8125 59.421875 
L 7.8125 69.390625 
Q 13.765625 71.78125 18.9375 73 
Q 24.125 74.21875 28.421875 74.21875 
Q 39.75 74.21875 46.484375 68.546875 
Q 53.21875 62.890625 53.21875 53.421875 
Q 53.21875 48.921875 51.53125 44.890625 
Q 49.859375 40.875 45.40625 35.40625 
Q 44.1875 33.984375 37.640625 27.21875 
Q 31.109375 20.453125 19.1875 8.296875 
z
" id="DejaVuSans-32"/>
      </defs>
      <g transform="translate(230.168148 527.238438)scale(0.1 -0.1)">
       <use xlink:href="#DejaVuSans-32"/>
      </g>
     </g>
    </g>
    <g id="xtick_5">
     <g id="line2d_5">
      <g>
       <use style="stroke:#000000;stroke-width:0.8;" x="287.13253" xlink:href="#md089f15219" y="512.64"/>
      </g>
     </g>
     <g id="text_5">
      <!-- 3 -->
      <defs>
       <path d="M 40.578125 39.3125 
Q 47.65625 37.796875 51.625 33 
Q 55.609375 28.21875 55.609375 21.1875 
Q 55.609375 10.40625 48.1875 4.484375 
Q 40.765625 -1.421875 27.09375 -1.421875 
Q 22.515625 -1.421875 17.65625 -0.515625 
Q 12.796875 0.390625 7.625 2.203125 
L 7.625 11.71875 
Q 11.71875 9.328125 16.59375 8.109375 
Q 21.484375 6.890625 26.8125 6.890625 
Q 36.078125 6.890625 40.9375 10.546875 
Q 45.796875 14.203125 45.796875 21.1875 
Q 45.796875 27.640625 41.28125 31.265625 
Q 36.765625 34.90625 28.71875 34.90625 
L 20.21875 34.90625 
L 20.21875 43.015625 
L 29.109375 43.015625 
Q 36.375 43.015625 40.234375 45.921875 
Q 44.09375 48.828125 44.09375 54.296875 
Q 44.09375 59.90625 40.109375 62.90625 
Q 36.140625 65.921875 28.71875 65.921875 
Q 24.65625 65.921875 20.015625 65.03125 
Q 15.375 64.15625 9.8125 62.3125 
L 9.8125 71.09375 
Q 15.4375 72.65625 20.34375 73.4375 
Q 25.25 74.21875 29.59375 74.21875 
Q 40.828125 74.21875 47.359375 69.109375 
Q 53.90625 64.015625 53.90625 55.328125 
Q 53.90625 49.265625 50.4375 45.09375 
Q 46.96875 40.921875 40.578125 39.3125 
z
" id="DejaVuSans-33"/>
      </defs>
      <g transform="translate(283.95128 527.238438)scale(0.1 -0.1)">
       <use xlink:href="#DejaVuSans-33"/>
      </g>
     </g>
    </g>
    <g id="xtick_6">
     <g id="line2d_6">
      <g>
       <use style="stroke:#000000;stroke-width:0.8;" x="340.915663" xlink:href="#md089f15219" y="512.64"/>
      </g>
     </g>
     <g id="text_6">
      <!-- 4 -->
      <defs>
       <path d="M 37.796875 64.3125 
L 12.890625 25.390625 
L 37.796875 25.390625 
z
M 35.203125 72.90625 
L 47.609375 72.90625 
L 47.609375 25.390625 
L 58.015625 25.390625 
L 58.015625 17.1875 
L 47.609375 17.1875 
L 47.609375 0 
L 37.796875 0 
L 37.796875 17.1875 
L 4.890625 17.1875 
L 4.890625 26.703125 
z
" id="DejaVuSans-34"/>
      </defs>
      <g transform="translate(337.734413 527.238438)scale(0.1 -0.1)">
       <use xlink:href="#DejaVuSans-34"/>
      </g>
     </g>
    </g>
    <g id="xtick_7">
     <g id="line2d_7">
      <g>
       <use style="stroke:#000000;stroke-width:0.8;" x="394.698795" xlink:href="#md089f15219" y="512.64"/>
      </g>
     </g>
     <g id="text_7">
      <!-- 5 -->
      <defs>
       <path d="M 10.796875 72.90625 
L 49.515625 72.90625 
L 49.515625 64.59375 
L 19.828125 64.59375 
L 19.828125 46.734375 
Q 21.96875 47.46875 24.109375 47.828125 
Q 26.265625 48.1875 28.421875 48.1875 
Q 40.625 48.1875 47.75 41.5 
Q 54.890625 34.8125 54.890625 23.390625 
Q 54.890625 11.625 47.5625 5.09375 
Q 40.234375 -1.421875 26.90625 -1.421875 
Q 22.3125 -1.421875 17.546875 -0.640625 
Q 12.796875 0.140625 7.71875 1.703125 
L 7.71875 11.625 
Q 12.109375 9.234375 16.796875 8.0625 
Q 21.484375 6.890625 26.703125 6.890625 
Q 35.15625 6.890625 40.078125 11.328125 
Q 45.015625 15.765625 45.015625 23.390625 
Q 45.015625 31 40.078125 35.4375 
Q 35.15625 39.890625 26.703125 39.890625 
Q 22.75 39.890625 18.8125 39.015625 
Q 14.890625 38.140625 10.796875 36.28125 
z
" id="DejaVuSans-35"/>
      </defs>
      <g transform="translate(391.517545 527.238438)scale(0.1 -0.1)">
       <use xlink:href="#DejaVuSans-35"/>
      </g>
     </g>
    </g>
    <g id="xtick_8">
     <g id="line2d_8">
      <g>
       <use style="stroke:#000000;stroke-width:0.8;" x="448.481928" xlink:href="#md089f15219" y="512.64"/>
      </g>
     </g>
     <g id="text_8">
      <!-- 6 -->
      <defs>
       <path d="M 33.015625 40.375 
Q 26.375 40.375 22.484375 35.828125 
Q 18.609375 31.296875 18.609375 23.390625 
Q 18.609375 15.53125 22.484375 10.953125 
Q 26.375 6.390625 33.015625 6.390625 
Q 39.65625 6.390625 43.53125 10.953125 
Q 47.40625 15.53125 47.40625 23.390625 
Q 47.40625 31.296875 43.53125 35.828125 
Q 39.65625 40.375 33.015625 40.375 
z
M 52.59375 71.296875 
L 52.59375 62.3125 
Q 48.875 64.0625 45.09375 64.984375 
Q 41.3125 65.921875 37.59375 65.921875 
Q 27.828125 65.921875 22.671875 59.328125 
Q 17.53125 52.734375 16.796875 39.40625 
Q 19.671875 43.65625 24.015625 45.921875 
Q 28.375 48.1875 33.59375 48.1875 
Q 44.578125 48.1875 50.953125 41.515625 
Q 57.328125 34.859375 57.328125 23.390625 
Q 57.328125 12.15625 50.6875 5.359375 
Q 44.046875 -1.421875 33.015625 -1.421875 
Q 20.359375 -1.421875 13.671875 8.265625 
Q 6.984375 17.96875 6.984375 36.375 
Q 6.984375 53.65625 15.1875 63.9375 
Q 23.390625 74.21875 37.203125 74.21875 
Q 40.921875 74.21875 44.703125 73.484375 
Q 48.484375 72.75 52.59375 71.296875 
z
" id="DejaVuSans-36"/>
      </defs>
      <g transform="translate(445.300678 527.238438)scale(0.1 -0.1)">
       <use xlink:href="#DejaVuSans-36"/>
      </g>
     </g>
    </g>
    <g id="xtick_9">
     <g id="line2d_9">
      <g>
       <use style="stroke:#000000;stroke-width:0.8;" x="502.26506" xlink:href="#md089f15219" y="512.64"/>
      </g>
     </g>
     <g id="text_9">
      <!-- 7 -->
      <defs>
       <path d="M 8.203125 72.90625 
L 55.078125 72.90625 
L 55.078125 68.703125 
L 28.609375 0 
L 18.3125 0 
L 43.21875 64.59375 
L 8.203125 64.59375 
z
" id="DejaVuSans-37"/>
      </defs>
      <g transform="translate(499.08381 527.238438)scale(0.1 -0.1)">
       <use xlink:href="#DejaVuSans-37"/>
      </g>
     </g>
    </g>
   </g>
   <g id="matplotlib.axis_2">
    <g id="ytick_1">
     <g id="line2d_10">
      <defs>
       <path d="M 0 0 
L -3.5 0 
" id="m42e54e0802" style="stroke:#000000;stroke-width:0.8;"/>
      </defs>
      <g>
       <use style="stroke:#000000;stroke-width:0.8;" x="72" xlink:href="#m42e54e0802" y="460.296867"/>
      </g>
     </g>
     <g id="text_10">
      <!-- 0 -->
      <g transform="translate(58.6375 464.096086)scale(0.1 -0.1)">
       <use xlink:href="#DejaVuSans-30"/>
      </g>
     </g>
    </g>
    <g id="ytick_2">
     <g id="line2d_11">
      <g>
       <use style="stroke:#000000;stroke-width:0.8;" x="72" xlink:href="#m42e54e0802" y="406.513735"/>
      </g>
     </g>
     <g id="text_11">
      <!-- 1 -->
      <g transform="translate(58.6375 410.312954)scale(0.1 -0.1)">
       <use xlink:href="#DejaVuSans-31"/>
      </g>
     </g>
    </g>
    <g id="ytick_3">
     <g id="line2d_12">
      <g>
       <use style="stroke:#000000;stroke-width:0.8;" x="72" xlink:href="#m42e54e0802" y="352.730602"/>
      </g>
     </g>
     <g id="text_12">
      <!-- 2 -->
      <g transform="translate(58.6375 356.529821)scale(0.1 -0.1)">
       <use xlink:href="#DejaVuSans-32"/>
      </g>
     </g>
    </g>
    <g id="ytick_4">
     <g id="line2d_13">
      <g>
       <use style="stroke:#000000;stroke-width:0.8;" x="72" xlink:href="#m42e54e0802" y="298.94747"/>
      </g>
     </g>
     <g id="text_13">
      <!-- 3 -->
      <g transform="translate(58.6375 302.746689)scale(0.1 -0.1)">
       <use xlink:href="#DejaVuSans-33"/>
      </g>
     </g>
    </g>
    <g id="ytick_5">
     <g id="line2d_14">
      <g>
       <use style="stroke:#000000;stroke-width:0.8;" x="72" xlink:href="#m42e54e0802" y="245.164337"/>
      </g>
     </g>
     <g id="text_14">
      <!-- 4 -->
      <g transform="translate(58.6375 248.963556)scale(0.1 -0.1)">
       <use xlink:href="#DejaVuSans-34"/>
      </g>
     </g>
    </g>
    <g id="ytick_6">
     <g id="line2d_15">
      <g>
       <use style="stroke:#000000;stroke-width:0.8;" x="72" xlink:href="#m42e54e0802" y="191.381205"/>
      </g>
     </g>
     <g id="text_15">
      <!-- 5 -->
      <g transform="translate(58.6375 195.180424)scale(0.1 -0.1)">
       <use xlink:href="#DejaVuSans-35"/>
      </g>
     </g>
    </g>
    <g id="ytick_7">
     <g id="line2d_16">
      <g>
       <use style="stroke:#000000;stroke-width:0.8;" x="72" xlink:href="#m42e54e0802" y="137.598072"/>
      </g>
     </g>
     <g id="text_16">
      <!-- 6 -->
      <g transform="translate(58.6375 141.397291)scale(0.1 -0.1)">
       <use xlink:href="#DejaVuSans-36"/>
      </g>
     </g>
    </g>
    <g id="ytick_8">
     <g id="line2d_17">
      <g>
       <use style="stroke:#000000;stroke-width:0.8;" x="72" xlink:href="#m42e54e0802" y="83.81494"/>
      </g>
     </g>
     <g id="text_17">
      <!-- 7 -->
      <g transform="translate(58.6375 87.614159)scale(0.1 -0.1)">
       <use xlink:href="#DejaVuSans-37"/>
      </g>
     </g>
    </g>
   </g>
   <g id="line2d_18">
    <path clip-path="url(#p3751a676be)" d="M 303.447274 386.925164 
" style="fill:none;stroke:#1f77b4;stroke-linecap:square;stroke-width:1.5;"/>
    <defs>
     <path d="M -5 5 
L 5 5 
L 5 -5 
L -5 -5 
z
" id="ma4d1f626dc" style="stroke:#8000ff;stroke-linejoin:miter;"/>
    </defs>
    <g clip-path="url(#p3751a676be)">
     <use style="fill:#8000ff;stroke:#8000ff;stroke-linejoin:miter;" x="303.447274" xlink:href="#ma4d1f626dc" y="386.925164"/>
    </g>
   </g>
   <g id="line2d_19">
    <path clip-path="url(#p3751a676be)" d="M 135.421631 254.760842 
" style="fill:none;stroke:#ff7f0e;stroke-linecap:square;stroke-width:1.5;"/>
    <defs>
     <path d="M 0 -5 
L -4.755283 -1.545085 
L -2.938926 4.045085 
L 2.938926 4.045085 
L 4.755283 -1.545085 
z
" id="m246a8f8cda" style="stroke:#8000ff;stroke-linejoin:miter;"/>
    </defs>
    <g clip-path="url(#p3751a676be)">
     <use style="fill:#8000ff;stroke:#8000ff;stroke-linejoin:miter;" x="135.421631" xlink:href="#m246a8f8cda" y="254.760842"/>
    </g>
   </g>
   <g id="line2d_20">
    <path clip-path="url(#p3751a676be)" d="M 227.198694 311.033842 
" style="fill:none;stroke:#2ca02c;stroke-linecap:square;stroke-width:1.5;"/>
    <defs>
     <path d="M -5 5 
L 5 5 
L 5 -5 
L -5 -5 
z
" id="m5bab4f17d3" style="stroke:#376ff9;stroke-linejoin:miter;"/>
    </defs>
    <g clip-path="url(#p3751a676be)">
     <use style="fill:#376ff9;stroke:#376ff9;stroke-linejoin:miter;" x="227.198694" xlink:href="#m5bab4f17d3" y="311.033842"/>
    </g>
   </g>
   <g id="line2d_21">
    <path clip-path="url(#p3751a676be)" d="M 414.565652 198.19997 
" style="fill:none;stroke:#d62728;stroke-linecap:square;stroke-width:1.5;"/>
    <defs>
     <path d="M 0 -5 
L -4.755283 -1.545085 
L -2.938926 4.045085 
L 2.938926 4.045085 
L 4.755283 -1.545085 
z
" id="mf0e1a5ecab" style="stroke:#376ff9;stroke-linejoin:miter;"/>
    </defs>
    <g clip-path="url(#p3751a676be)">
     <use style="fill:#376ff9;stroke:#376ff9;stroke-linejoin:miter;" x="414.565652" xlink:href="#mf0e1a5ecab" y="198.19997"/>
    </g>
   </g>
   <g id="line2d_22">
    <path clip-path="url(#p3751a676be)" d="M 168.30271 368.021721 
" style="fill:none;stroke:#9467bd;stroke-linecap:square;stroke-width:1.5;"/>
    <defs>
     <path d="M -5 5 
L 5 5 
L 5 -5 
L -5 -5 
z
" id="m34f4ed0d5f" style="stroke:#12c7e6;stroke-linejoin:miter;"/>
    </defs>
    <g clip-path="url(#p3751a676be)">
     <use style="fill:#12c7e6;stroke:#12c7e6;stroke-linejoin:miter;" x="168.30271" xlink:href="#m34f4ed0d5f" y="368.021721"/>
    </g>
   </g>
   <g id="line2d_23">
    <path clip-path="url(#p3751a676be)" d="M 447.872752 458.383954 
" style="fill:none;stroke:#8c564b;stroke-linecap:square;stroke-width:1.5;"/>
    <defs>
     <path d="M 0 -5 
L -4.755283 -1.545085 
L -2.938926 4.045085 
L 2.938926 4.045085 
L 4.755283 -1.545085 
z
" id="mb84b0b33f2" style="stroke:#12c7e6;stroke-linejoin:miter;"/>
    </defs>
    <g clip-path="url(#p3751a676be)">
     <use style="fill:#12c7e6;stroke:#12c7e6;stroke-linejoin:miter;" x="447.872752" xlink:href="#mb84b0b33f2" y="458.383954"/>
    </g>
   </g>
   <g id="line2d_24">
    <path clip-path="url(#p3751a676be)" d="M 252.7699 156.459691 
" style="fill:none;stroke:#e377c2;stroke-linecap:square;stroke-width:1.5;"/>
    <defs>
     <path d="M -5 5 
L 5 5 
L 5 -5 
L -5 -5 
z
" id="m1545734e4c" style="stroke:#5bf9c7;stroke-linejoin:miter;"/>
    </defs>
    <g clip-path="url(#p3751a676be)">
     <use style="fill:#5bf9c7;stroke:#5bf9c7;stroke-linejoin:miter;" x="252.7699" xlink:href="#m1545734e4c" y="156.459691"/>
    </g>
   </g>
   <g id="line2d_25">
    <path clip-path="url(#p3751a676be)" d="M 177.387447 426.576387 
" style="fill:none;stroke:#7f7f7f;stroke-linecap:square;stroke-width:1.5;"/>
    <defs>
     <path d="M 0 -5 
L -4.755283 -1.545085 
L -2.938926 4.045085 
L 2.938926 4.045085 
L 4.755283 -1.545085 
z
" id="m954f996259" style="stroke:#5bf9c7;stroke-linejoin:miter;"/>
    </defs>
    <g clip-path="url(#p3751a676be)">
     <use style="fill:#5bf9c7;stroke:#5bf9c7;stroke-linejoin:miter;" x="177.387447" xlink:href="#m954f996259" y="426.576387"/>
    </g>
   </g>
   <g id="line2d_26">
    <path clip-path="url(#p3751a676be)" d="M 379.81957 139.880421 
" style="fill:none;stroke:#bcbd22;stroke-linecap:square;stroke-width:1.5;"/>
    <defs>
     <path d="M -5 5 
L 5 5 
L 5 -5 
L -5 -5 
z
" id="m14736a79b9" style="stroke:#a4f99f;stroke-linejoin:miter;"/>
    </defs>
    <g clip-path="url(#p3751a676be)">
     <use style="fill:#a4f99f;stroke:#a4f99f;stroke-linejoin:miter;" x="379.81957" xlink:href="#m14736a79b9" y="139.880421"/>
    </g>
   </g>
   <g id="line2d_27">
    <path clip-path="url(#p3751a676be)" d="M 295.372253 439.720304 
" style="fill:none;stroke:#17becf;stroke-linecap:square;stroke-width:1.5;"/>
    <defs>
     <path d="M 0 -5 
L -4.755283 -1.545085 
L -2.938926 4.045085 
L 2.938926 4.045085 
L 4.755283 -1.545085 
z
" id="m786c06596b" style="stroke:#a4f99f;stroke-linejoin:miter;"/>
    </defs>
    <g clip-path="url(#p3751a676be)">
     <use style="fill:#a4f99f;stroke:#a4f99f;stroke-linejoin:miter;" x="295.372253" xlink:href="#m786c06596b" y="439.720304"/>
    </g>
   </g>
   <g id="line2d_28">
    <path clip-path="url(#p3751a676be)" d="M 216.722866 231.765491 
" style="fill:none;stroke:#1f77b4;stroke-linecap:square;stroke-width:1.5;"/>
    <defs>
     <path d="M -5 5 
L 5 5 
L 5 -5 
L -5 -5 
z
" id="mdbccb0f4d6" style="stroke:#edc76f;stroke-linejoin:miter;"/>
    </defs>
    <g clip-path="url(#p3751a676be)">
     <use style="fill:#edc76f;stroke:#edc76f;stroke-linejoin:miter;" x="216.722866" xlink:href="#mdbccb0f4d6" y="231.765491"/>
    </g>
   </g>
   <g id="line2d_29">
    <path clip-path="url(#p3751a676be)" d="M 362.111967 410.004869 
" style="fill:none;stroke:#ff7f0e;stroke-linecap:square;stroke-width:1.5;"/>
    <defs>
     <path d="M 0 -5 
L -4.755283 -1.545085 
L -2.938926 4.045085 
L 2.938926 4.045085 
L 4.755283 -1.545085 
z
" id="m8e06854233" style="stroke:#edc76f;stroke-linejoin:miter;"/>
    </defs>
    <g clip-path="url(#p3751a676be)">
     <use style="fill:#edc76f;stroke:#edc76f;stroke-linejoin:miter;" x="362.111967" xlink:href="#m8e06854233" y="410.004869"/>
    </g>
   </g>
   <g id="line2d_30">
    <path clip-path="url(#p3751a676be)" d="M 355.627916 451.849081 
" style="fill:none;stroke:#2ca02c;stroke-linecap:square;stroke-width:1.5;"/>
    <defs>
     <path d="M -5 5 
L 5 5 
L 5 -5 
L -5 -5 
z
" id="mba24443e4a" style="stroke:#ff6f39;stroke-linejoin:miter;"/>
    </defs>
    <g clip-path="url(#p3751a676be)">
     <use style="fill:#ff6f39;stroke:#ff6f39;stroke-linejoin:miter;" x="355.627916" xlink:href="#mba24443e4a" y="451.849081"/>
    </g>
   </g>
   <g id="line2d_31">
    <path clip-path="url(#p3751a676be)" d="M 171.962857 192.914842 
" style="fill:none;stroke:#d62728;stroke-linecap:square;stroke-width:1.5;"/>
    <defs>
     <path d="M 0 -5 
L -4.755283 -1.545085 
L -2.938926 4.045085 
L 2.938926 4.045085 
L 4.755283 -1.545085 
z
" id="mf213f854d5" style="stroke:#ff6f39;stroke-linejoin:miter;"/>
    </defs>
    <g clip-path="url(#p3751a676be)">
     <use style="fill:#ff6f39;stroke:#ff6f39;stroke-linejoin:miter;" x="171.962857" xlink:href="#mf213f854d5" y="192.914842"/>
    </g>
   </g>
   <g id="line2d_32">
    <path clip-path="url(#p3751a676be)" d="M 248.605239 426.051501 
" style="fill:none;stroke:#9467bd;stroke-linecap:square;stroke-width:1.5;"/>
    <defs>
     <path d="M -5 5 
L 5 5 
L 5 -5 
L -5 -5 
z
" id="m32a6d05419" style="stroke:#ff0000;stroke-linejoin:miter;"/>
    </defs>
    <g clip-path="url(#p3751a676be)">
     <use style="fill:#ff0000;stroke:#ff0000;stroke-linejoin:miter;" x="248.605239" xlink:href="#m32a6d05419" y="426.051501"/>
    </g>
   </g>
   <g id="line2d_33">
    <path clip-path="url(#p3751a676be)" d="M 291.59701 146.868943 
" style="fill:none;stroke:#8c564b;stroke-linecap:square;stroke-width:1.5;"/>
    <defs>
     <path d="M 0 -5 
L -4.755283 -1.545085 
L -2.938926 4.045085 
L 2.938926 4.045085 
L 4.755283 -1.545085 
z
" id="mc14ca17320" style="stroke:#ff0000;stroke-linejoin:miter;"/>
    </defs>
    <g clip-path="url(#p3751a676be)">
     <use style="fill:#ff0000;stroke:#ff0000;stroke-linejoin:miter;" x="291.59701" xlink:href="#mc14ca17320" y="146.868943"/>
    </g>
   </g>
   <g id="line2d_34">
    <defs>
     <path d="M 0 2.5 
C 0.663008 2.5 1.29895 2.236584 1.767767 1.767767 
C 2.236584 1.29895 2.5 0.663008 2.5 0 
C 2.5 -0.663008 2.236584 -1.29895 1.767767 -1.767767 
C 1.29895 -2.236584 0.663008 -2.5 0 -2.5 
C -0.663008 -2.5 -1.29895 -2.236584 -1.767767 -1.767767 
C -2.236584 -1.29895 -2.5 -0.663008 -2.5 0 
C -2.5 0.663008 -2.236584 1.29895 -1.767767 1.767767 
C -1.29895 2.236584 -0.663008 2.5 0 2.5 
z
" id="ma98bee5c3d" style="stroke:#000000;"/>
    </defs>
    <g clip-path="url(#p3751a676be)">
     <use style="stroke:#000000;" x="464.404498" xlink:href="#ma98bee5c3d" y="164.699071"/>
     <use style="stroke:#000000;" x="403.825762" xlink:href="#ma98bee5c3d" y="435.640645"/>
     <use style="stroke:#000000;" x="442.075249" xlink:href="#ma98bee5c3d" y="339.593521"/>
     <use style="stroke:#000000;" x="317.00939" xlink:href="#ma98bee5c3d" y="179.610109"/>
     <use style="stroke:#000000;" x="212.567268" xlink:href="#ma98bee5c3d" y="351.32402"/>
     <use style="stroke:#000000;" x="200.956687" xlink:href="#ma98bee5c3d" y="149.034988"/>
     <use style="stroke:#000000;" x="453.611188" xlink:href="#ma98bee5c3d" y="322.706588"/>
     <use style="stroke:#000000;" x="169.718908" xlink:href="#ma98bee5c3d" y="143.991146"/>
     <use style="stroke:#000000;" x="347.427452" xlink:href="#ma98bee5c3d" y="318.469073"/>
     <use style="stroke:#000000;" x="268.592979" xlink:href="#ma98bee5c3d" y="211.868822"/>
     <use style="stroke:#000000;" x="333.860308" xlink:href="#ma98bee5c3d" y="233.658037"/>
     <use style="stroke:#000000;" x="421.95519" xlink:href="#ma98bee5c3d" y="384.859792"/>
     <use style="stroke:#000000;" x="378.579216" xlink:href="#ma98bee5c3d" y="182.048852"/>
     <use style="stroke:#000000;" x="385.679819" xlink:href="#ma98bee5c3d" y="315.929114"/>
     <use style="stroke:#000000;" x="424.643481" xlink:href="#ma98bee5c3d" y="155.39283"/>
     <use style="stroke:#000000;" x="447.843219" xlink:href="#ma98bee5c3d" y="331.150054"/>
    </g>
   </g>
   <g id="line2d_35">
    <path clip-path="url(#p3751a676be)" d="M 485.37992 164.699071 
L 484.243414 157.888363 
L 480.957053 151.815701 
L 475.876967 147.139151 
L 469.55366 144.365492 
L 462.672362 143.795291 
L 455.978768 145.49034 
L 450.198232 149.266952 
L 445.957166 154.715874 
L 443.715154 161.24663 
L 443.715154 168.151512 
L 445.957166 174.682269 
L 450.198232 180.131191 
L 455.978768 183.907803 
L 462.672362 185.602851 
L 469.55366 185.032651 
L 475.876967 182.258991 
L 480.957053 177.582442 
L 484.243414 171.50978 
L 485.37992 164.699071 
" style="fill:none;stroke:#000000;stroke-dasharray:5.55,2.4;stroke-dashoffset:0;stroke-width:1.5;"/>
   </g>
   <g id="line2d_36">
    <path clip-path="url(#p3751a676be)" d="M 470.320643 164.699071 
L 470.00009 162.778102 
L 469.073168 161.0653 
L 467.640323 159.746273 
L 465.856826 158.963959 
L 463.915947 158.803133 
L 462.02801 159.281224 
L 460.397603 160.346422 
L 459.201405 161.883298 
L 458.569042 163.725306 
L 458.569042 165.672837 
L 459.201405 167.514845 
L 460.397603 169.05172 
L 462.02801 170.116919 
L 463.915947 170.595009 
L 465.856826 170.434184 
L 467.640323 169.651869 
L 469.073168 168.332843 
L 470.00009 166.62004 
L 470.320643 164.699071 
" style="fill:none;stroke:#ff0000;stroke-linecap:square;stroke-width:1.5;"/>
   </g>
   <g id="line2d_37">
    <path clip-path="url(#p3751a676be)" d="M 424.801184 435.640645 
L 423.664678 428.829936 
L 420.378317 422.757274 
L 415.29823 418.080725 
L 408.974924 415.307065 
L 402.093625 414.736865 
L 395.400031 416.431913 
L 389.619495 420.208525 
L 385.378429 425.657447 
L 383.136418 432.188204 
L 383.136418 439.093085 
L 385.378429 445.623842 
L 389.619495 451.072764 
L 395.400031 454.849376 
L 402.093625 456.544425 
L 408.974924 455.974224 
L 415.29823 453.200564 
L 420.378317 448.524015 
L 423.664678 442.451353 
L 424.801184 435.640645 
" style="fill:none;stroke:#000000;stroke-dasharray:5.55,2.4;stroke-dashoffset:0;stroke-width:1.5;"/>
   </g>
   <g id="line2d_38">
    <path clip-path="url(#p3751a676be)" d="M 409.741907 435.640645 
L 409.421354 433.719676 
L 408.494431 432.006873 
L 407.061586 430.687847 
L 405.27809 429.905532 
L 403.337211 429.744707 
L 401.449274 430.222797 
L 399.818866 431.287996 
L 398.622668 432.824871 
L 397.990306 434.666879 
L 397.990306 436.61441 
L 398.622668 438.456418 
L 399.818866 439.993294 
L 401.449274 441.058492 
L 403.337211 441.536582 
L 405.27809 441.375757 
L 407.061586 440.593442 
L 408.494431 439.274416 
L 409.421354 437.561614 
L 409.741907 435.640645 
" style="fill:none;stroke:#ff0000;stroke-linecap:square;stroke-width:1.5;"/>
   </g>
   <g id="line2d_39">
    <path clip-path="url(#p3751a676be)" d="M 463.050671 339.593521 
L 461.914164 332.782812 
L 458.627804 326.71015 
L 453.547717 322.033601 
L 447.224411 319.259941 
L 440.343112 318.689741 
L 433.649518 320.384789 
L 427.868982 324.161401 
L 423.627916 329.610323 
L 421.385905 336.14108 
L 421.385905 343.045961 
L 423.627916 349.576718 
L 427.868982 355.02564 
L 433.649518 358.802252 
L 440.343112 360.497301 
L 447.224411 359.9271 
L 453.547717 357.15344 
L 458.627804 352.476891 
L 461.914164 346.404229 
L 463.050671 339.593521 
" style="fill:none;stroke:#000000;stroke-dasharray:5.55,2.4;stroke-dashoffset:0;stroke-width:1.5;"/>
   </g>
   <g id="line2d_40">
    <path clip-path="url(#p3751a676be)" d="M 447.991394 339.593521 
L 447.67084 337.672552 
L 446.743918 335.959749 
L 445.311073 334.640723 
L 443.527577 333.858408 
L 441.586698 333.697583 
L 439.698761 334.175673 
L 438.068353 335.240872 
L 436.872155 336.777747 
L 436.239793 338.619755 
L 436.239793 340.567286 
L 436.872155 342.409294 
L 438.068353 343.94617 
L 439.698761 345.011368 
L 441.586698 345.489458 
L 443.527577 345.328633 
L 445.311073 344.546318 
L 446.743918 343.227292 
L 447.67084 341.51449 
L 447.991394 339.593521 
" style="fill:none;stroke:#ff0000;stroke-linecap:square;stroke-width:1.5;"/>
   </g>
   <g id="line2d_41">
    <path clip-path="url(#p3751a676be)" d="M 337.984812 179.610109 
L 336.848306 172.799401 
L 333.561945 166.726739 
L 328.481859 162.050189 
L 322.158552 159.27653 
L 315.277254 158.706329 
L 308.583659 160.401377 
L 302.803124 164.17799 
L 298.562058 169.626912 
L 296.320046 176.157668 
L 296.320046 183.06255 
L 298.562058 189.593306 
L 302.803124 195.042228 
L 308.583659 198.818841 
L 315.277254 200.513889 
L 322.158552 199.943689 
L 328.481859 197.170029 
L 333.561945 192.49348 
L 336.848306 186.420817 
L 337.984812 179.610109 
" style="fill:none;stroke:#000000;stroke-dasharray:5.55,2.4;stroke-dashoffset:0;stroke-width:1.5;"/>
   </g>
   <g id="line2d_42">
    <path clip-path="url(#p3751a676be)" d="M 322.925535 179.610109 
L 322.604982 177.68914 
L 321.67806 175.976338 
L 320.245215 174.657311 
L 318.461718 173.874997 
L 316.520839 173.714171 
L 314.632902 174.192262 
L 313.002495 175.25746 
L 311.806296 176.794336 
L 311.173934 178.636344 
L 311.173934 180.583875 
L 311.806296 182.425883 
L 313.002495 183.962758 
L 314.632902 185.027957 
L 316.520839 185.506047 
L 318.461718 185.345221 
L 320.245215 184.562907 
L 321.67806 183.24388 
L 322.604982 181.531078 
L 322.925535 179.610109 
" style="fill:none;stroke:#ff0000;stroke-linecap:square;stroke-width:1.5;"/>
   </g>
   <g id="line2d_43">
    <path clip-path="url(#p3751a676be)" d="M 233.54269 351.32402 
L 232.406184 344.513312 
L 229.119823 338.440649 
L 224.039737 333.7641 
L 217.71643 330.990441 
L 210.835132 330.42024 
L 204.141537 332.115288 
L 198.361002 335.891901 
L 194.119936 341.340823 
L 191.877924 347.871579 
L 191.877924 354.776461 
L 194.119936 361.307217 
L 198.361002 366.756139 
L 204.141537 370.532752 
L 210.835132 372.2278 
L 217.71643 371.657599 
L 224.039737 368.88394 
L 229.119823 364.207391 
L 232.406184 358.134728 
L 233.54269 351.32402 
" style="fill:none;stroke:#000000;stroke-dasharray:5.55,2.4;stroke-dashoffset:0;stroke-width:1.5;"/>
   </g>
   <g id="line2d_44">
    <path clip-path="url(#p3751a676be)" d="M 218.483413 351.32402 
L 218.16286 349.403051 
L 217.235938 347.690249 
L 215.803093 346.371222 
L 214.019596 345.588908 
L 212.078717 345.428082 
L 210.19078 345.906172 
L 208.560373 346.971371 
L 207.364174 348.508246 
L 206.731812 350.350254 
L 206.731812 352.297785 
L 207.364174 354.139793 
L 208.560373 355.676669 
L 210.19078 356.741867 
L 212.078717 357.219958 
L 214.019596 357.059132 
L 215.803093 356.276818 
L 217.235938 354.957791 
L 218.16286 353.244989 
L 218.483413 351.32402 
" style="fill:none;stroke:#ff0000;stroke-linecap:square;stroke-width:1.5;"/>
   </g>
   <g id="line2d_45">
    <path clip-path="url(#p3751a676be)" d="M 221.932109 149.034988 
L 220.795603 142.224279 
L 217.509242 136.151617 
L 212.429155 131.475068 
L 206.105849 128.701408 
L 199.224551 128.131208 
L 192.530956 129.826256 
L 186.750421 133.602868 
L 182.509354 139.05179 
L 180.267343 145.582547 
L 180.267343 152.487429 
L 182.509354 159.018185 
L 186.750421 164.467107 
L 192.530956 168.243719 
L 199.224551 169.938768 
L 206.105849 169.368567 
L 212.429155 166.594908 
L 217.509242 161.918358 
L 220.795603 155.845696 
L 221.932109 149.034988 
" style="fill:none;stroke:#000000;stroke-dasharray:5.55,2.4;stroke-dashoffset:0;stroke-width:1.5;"/>
   </g>
   <g id="line2d_46">
    <path clip-path="url(#p3751a676be)" d="M 206.872832 149.034988 
L 206.552279 147.114019 
L 205.625357 145.401217 
L 204.192512 144.08219 
L 202.409015 143.299876 
L 200.468136 143.13905 
L 198.580199 143.61714 
L 196.949791 144.682339 
L 195.753593 146.219214 
L 195.121231 148.061222 
L 195.121231 150.008753 
L 195.753593 151.850761 
L 196.949791 153.387637 
L 198.580199 154.452835 
L 200.468136 154.930926 
L 202.409015 154.7701 
L 204.192512 153.987786 
L 205.625357 152.668759 
L 206.552279 150.955957 
L 206.872832 149.034988 
" style="fill:none;stroke:#ff0000;stroke-linecap:square;stroke-width:1.5;"/>
   </g>
   <g id="line2d_47">
    <path clip-path="url(#p3751a676be)" d="M 474.58661 322.706588 
L 473.450104 315.89588 
L 470.163743 309.823217 
L 465.083656 305.146668 
L 458.76035 302.373009 
L 451.879052 301.802808 
L 445.185457 303.497856 
L 439.404922 307.274469 
L 435.163855 312.723391 
L 432.921844 319.254147 
L 432.921844 326.159029 
L 435.163855 332.689785 
L 439.404922 338.138707 
L 445.185457 341.91532 
L 451.879052 343.610368 
L 458.76035 343.040167 
L 465.083656 340.266508 
L 470.163743 335.589959 
L 473.450104 329.517296 
L 474.58661 322.706588 
" style="fill:none;stroke:#000000;stroke-dasharray:5.55,2.4;stroke-dashoffset:0;stroke-width:1.5;"/>
   </g>
   <g id="line2d_48">
    <path clip-path="url(#p3751a676be)" d="M 459.527333 322.706588 
L 459.20678 320.785619 
L 458.279858 319.072817 
L 456.847013 317.75379 
L 455.063516 316.971476 
L 453.122637 316.81065 
L 451.2347 317.288741 
L 449.604293 318.353939 
L 448.408094 319.890815 
L 447.775732 321.732823 
L 447.775732 323.680354 
L 448.408094 325.522362 
L 449.604293 327.059237 
L 451.2347 328.124436 
L 453.122637 328.602526 
L 455.063516 328.4417 
L 456.847013 327.659386 
L 458.279858 326.340359 
L 459.20678 324.627557 
L 459.527333 322.706588 
" style="fill:none;stroke:#ff0000;stroke-linecap:square;stroke-width:1.5;"/>
   </g>
   <g id="line2d_49">
    <path clip-path="url(#p3751a676be)" d="M 190.69433 143.991146 
L 189.557823 137.180438 
L 186.271463 131.107775 
L 181.191376 126.431226 
L 174.868069 123.657567 
L 167.986771 123.087366 
L 161.293177 124.782414 
L 155.512641 128.559027 
L 151.271575 134.007949 
L 149.029564 140.538705 
L 149.029564 147.443587 
L 151.271575 153.974343 
L 155.512641 159.423265 
L 161.293177 163.199878 
L 167.986771 164.894926 
L 174.868069 164.324725 
L 181.191376 161.551066 
L 186.271463 156.874517 
L 189.557823 150.801854 
L 190.69433 143.991146 
" style="fill:none;stroke:#000000;stroke-dasharray:5.55,2.4;stroke-dashoffset:0;stroke-width:1.5;"/>
   </g>
   <g id="line2d_50">
    <path clip-path="url(#p3751a676be)" d="M 175.635052 143.991146 
L 175.314499 142.070177 
L 174.387577 140.357375 
L 172.954732 139.038348 
L 171.171236 138.256034 
L 169.230357 138.095208 
L 167.34242 138.573299 
L 165.712012 139.638497 
L 164.515814 141.175373 
L 163.883452 143.017381 
L 163.883452 144.964912 
L 164.515814 146.80692 
L 165.712012 148.343795 
L 167.34242 149.408994 
L 169.230357 149.887084 
L 171.171236 149.726258 
L 172.954732 148.943944 
L 174.387577 147.624917 
L 175.314499 145.912115 
L 175.635052 143.991146 
" style="fill:none;stroke:#ff0000;stroke-linecap:square;stroke-width:1.5;"/>
   </g>
   <g id="line2d_51">
    <path clip-path="url(#p3751a676be)" d="M 368.402874 318.469073 
L 367.266367 311.658365 
L 363.980007 305.585702 
L 358.89992 300.909153 
L 352.576614 298.135494 
L 345.695315 297.565293 
L 339.001721 299.260341 
L 333.221185 303.036954 
L 328.980119 308.485876 
L 326.738108 315.016632 
L 326.738108 321.921514 
L 328.980119 328.45227 
L 333.221185 333.901192 
L 339.001721 337.677805 
L 345.695315 339.372853 
L 352.576614 338.802652 
L 358.89992 336.028993 
L 363.980007 331.352444 
L 367.266367 325.279781 
L 368.402874 318.469073 
" style="fill:none;stroke:#000000;stroke-dasharray:5.55,2.4;stroke-dashoffset:0;stroke-width:1.5;"/>
   </g>
   <g id="line2d_52">
    <path clip-path="url(#p3751a676be)" d="M 353.343597 318.469073 
L 353.023044 316.548104 
L 352.096121 314.835302 
L 350.663276 313.516275 
L 348.87978 312.733961 
L 346.938901 312.573135 
L 345.050964 313.051226 
L 343.420556 314.116424 
L 342.224358 315.653299 
L 341.591996 317.495308 
L 341.591996 319.442838 
L 342.224358 321.284847 
L 343.420556 322.821722 
L 345.050964 323.88692 
L 346.938901 324.365011 
L 348.87978 324.204185 
L 350.663276 323.421871 
L 352.096121 322.102844 
L 353.023044 320.390042 
L 353.343597 318.469073 
" style="fill:none;stroke:#ff0000;stroke-linecap:square;stroke-width:1.5;"/>
   </g>
   <g id="line2d_53">
    <path clip-path="url(#p3751a676be)" d="M 289.5684 211.868822 
L 288.431894 205.058114 
L 285.145534 198.985452 
L 280.065447 194.308903 
L 273.74214 191.535243 
L 266.860842 190.965042 
L 260.167248 192.660091 
L 254.386712 196.436703 
L 250.145646 201.885625 
L 247.903634 208.416382 
L 247.903634 215.321263 
L 250.145646 221.85202 
L 254.386712 227.300942 
L 260.167248 231.077554 
L 266.860842 232.772602 
L 273.74214 232.202402 
L 280.065447 229.428742 
L 285.145534 224.752193 
L 288.431894 218.679531 
L 289.5684 211.868822 
" style="fill:none;stroke:#000000;stroke-dasharray:5.55,2.4;stroke-dashoffset:0;stroke-width:1.5;"/>
   </g>
   <g id="line2d_54">
    <path clip-path="url(#p3751a676be)" d="M 274.509123 211.868822 
L 274.18857 209.947853 
L 273.261648 208.235051 
L 271.828803 206.916025 
L 270.045306 206.13371 
L 268.104427 205.972885 
L 266.21649 206.450975 
L 264.586083 207.516173 
L 263.389885 209.053049 
L 262.757523 210.895057 
L 262.757523 212.842588 
L 263.389885 214.684596 
L 264.586083 216.221471 
L 266.21649 217.28667 
L 268.104427 217.76476 
L 270.045306 217.603935 
L 271.828803 216.82162 
L 273.261648 215.502594 
L 274.18857 213.789791 
L 274.509123 211.868822 
" style="fill:none;stroke:#ff0000;stroke-linecap:square;stroke-width:1.5;"/>
   </g>
   <g id="line2d_55">
    <path clip-path="url(#p3751a676be)" d="M 354.83573 233.658037 
L 353.699223 226.847328 
L 350.412863 220.774666 
L 345.332776 216.098117 
L 339.00947 213.324457 
L 332.128171 212.754257 
L 325.434577 214.449305 
L 319.654041 218.225917 
L 315.412975 223.674839 
L 313.170964 230.205596 
L 313.170964 237.110478 
L 315.412975 243.641234 
L 319.654041 249.090156 
L 325.434577 252.866768 
L 332.128171 254.561817 
L 339.00947 253.991616 
L 345.332776 251.217957 
L 350.412863 246.541407 
L 353.699223 240.468745 
L 354.83573 233.658037 
" style="fill:none;stroke:#000000;stroke-dasharray:5.55,2.4;stroke-dashoffset:0;stroke-width:1.5;"/>
   </g>
   <g id="line2d_56">
    <path clip-path="url(#p3751a676be)" d="M 339.776453 233.658037 
L 339.455899 231.737068 
L 338.528977 230.024265 
L 337.096132 228.705239 
L 335.312636 227.922925 
L 333.371757 227.762099 
L 331.48382 228.240189 
L 329.853412 229.305388 
L 328.657214 230.842263 
L 328.024852 232.684271 
L 328.024852 234.631802 
L 328.657214 236.47381 
L 329.853412 238.010686 
L 331.48382 239.075884 
L 333.371757 239.553975 
L 335.312636 239.393149 
L 337.096132 238.610835 
L 338.528977 237.291808 
L 339.455899 235.579006 
L 339.776453 233.658037 
" style="fill:none;stroke:#ff0000;stroke-linecap:square;stroke-width:1.5;"/>
   </g>
   <g id="line2d_57">
    <path clip-path="url(#p3751a676be)" d="M 442.930612 384.859792 
L 441.794105 378.049084 
L 438.507745 371.976421 
L 433.427658 367.299872 
L 427.104352 364.526212 
L 420.223053 363.956012 
L 413.529459 365.65106 
L 407.748923 369.427673 
L 403.507857 374.876595 
L 401.265846 381.407351 
L 401.265846 388.312233 
L 403.507857 394.842989 
L 407.748923 400.291911 
L 413.529459 404.068524 
L 420.223053 405.763572 
L 427.104352 405.193371 
L 433.427658 402.419712 
L 438.507745 397.743162 
L 441.794105 391.6705 
L 442.930612 384.859792 
" style="fill:none;stroke:#000000;stroke-dasharray:5.55,2.4;stroke-dashoffset:0;stroke-width:1.5;"/>
   </g>
   <g id="line2d_58">
    <path clip-path="url(#p3751a676be)" d="M 427.871334 384.859792 
L 427.550781 382.938823 
L 426.623859 381.226021 
L 425.191014 379.906994 
L 423.407518 379.12468 
L 421.466639 378.963854 
L 419.578702 379.441944 
L 417.948294 380.507143 
L 416.752096 382.044018 
L 416.119734 383.886026 
L 416.119734 385.833557 
L 416.752096 387.675565 
L 417.948294 389.212441 
L 419.578702 390.277639 
L 421.466639 390.75573 
L 423.407518 390.594904 
L 425.191014 389.81259 
L 426.623859 388.493563 
L 427.550781 386.780761 
L 427.871334 384.859792 
" style="fill:none;stroke:#ff0000;stroke-linecap:square;stroke-width:1.5;"/>
   </g>
   <g id="line2d_59">
    <path clip-path="url(#p3751a676be)" d="M 399.554638 182.048852 
L 398.418132 175.238144 
L 395.131771 169.165482 
L 390.051684 164.488932 
L 383.728378 161.715273 
L 376.847079 161.145072 
L 370.153485 162.840121 
L 364.372949 166.616733 
L 360.131883 172.065655 
L 357.889872 178.596411 
L 357.889872 185.501293 
L 360.131883 192.03205 
L 364.372949 197.480972 
L 370.153485 201.257584 
L 376.847079 202.952632 
L 383.728378 202.382432 
L 390.051684 199.608772 
L 395.131771 194.932223 
L 398.418132 188.859561 
L 399.554638 182.048852 
" style="fill:none;stroke:#000000;stroke-dasharray:5.55,2.4;stroke-dashoffset:0;stroke-width:1.5;"/>
   </g>
   <g id="line2d_60">
    <path clip-path="url(#p3751a676be)" d="M 384.495361 182.048852 
L 384.174808 180.127883 
L 383.247885 178.415081 
L 381.81504 177.096054 
L 380.031544 176.31374 
L 378.090665 176.152914 
L 376.202728 176.631005 
L 374.57232 177.696203 
L 373.376122 179.233079 
L 372.74376 181.075087 
L 372.74376 183.022618 
L 373.376122 184.864626 
L 374.57232 186.401501 
L 376.202728 187.4667 
L 378.090665 187.94479 
L 380.031544 187.783964 
L 381.81504 187.00165 
L 383.247885 185.682623 
L 384.174808 183.969821 
L 384.495361 182.048852 
" style="fill:none;stroke:#ff0000;stroke-linecap:square;stroke-width:1.5;"/>
   </g>
   <g id="line2d_61">
    <path clip-path="url(#p3751a676be)" d="M 406.655241 315.929114 
L 405.518735 309.118405 
L 402.232374 303.045743 
L 397.152287 298.369194 
L 390.828981 295.595534 
L 383.947683 295.025334 
L 377.254088 296.720382 
L 371.473553 300.496995 
L 367.232486 305.945917 
L 364.990475 312.476673 
L 364.990475 319.381555 
L 367.232486 325.912311 
L 371.473553 331.361233 
L 377.254088 335.137845 
L 383.947683 336.832894 
L 390.828981 336.262693 
L 397.152287 333.489034 
L 402.232374 328.812484 
L 405.518735 322.739822 
L 406.655241 315.929114 
" style="fill:none;stroke:#000000;stroke-dasharray:5.55,2.4;stroke-dashoffset:0;stroke-width:1.5;"/>
   </g>
   <g id="line2d_62">
    <path clip-path="url(#p3751a676be)" d="M 391.595964 315.929114 
L 391.275411 314.008145 
L 390.348489 312.295343 
L 388.915644 310.976316 
L 387.132147 310.194002 
L 385.191268 310.033176 
L 383.303331 310.511266 
L 381.672923 311.576465 
L 380.476725 313.11334 
L 379.844363 314.955348 
L 379.844363 316.902879 
L 380.476725 318.744887 
L 381.672923 320.281763 
L 383.303331 321.346961 
L 385.191268 321.825052 
L 387.132147 321.664226 
L 388.915644 320.881912 
L 390.348489 319.562885 
L 391.275411 317.850083 
L 391.595964 315.929114 
" style="fill:none;stroke:#ff0000;stroke-linecap:square;stroke-width:1.5;"/>
   </g>
   <g id="line2d_63">
    <path clip-path="url(#p3751a676be)" d="M 445.618902 155.39283 
L 444.482396 148.582122 
L 441.196036 142.50946 
L 436.115949 137.83291 
L 429.792642 135.059251 
L 422.911344 134.48905 
L 416.21775 136.184099 
L 410.437214 139.960711 
L 406.196148 145.409633 
L 403.954136 151.940389 
L 403.954136 158.845271 
L 406.196148 165.376028 
L 410.437214 170.82495 
L 416.21775 174.601562 
L 422.911344 176.29661 
L 429.792642 175.72641 
L 436.115949 172.95275 
L 441.196036 168.276201 
L 444.482396 162.203539 
L 445.618902 155.39283 
" style="fill:none;stroke:#000000;stroke-dasharray:5.55,2.4;stroke-dashoffset:0;stroke-width:1.5;"/>
   </g>
   <g id="line2d_64">
    <path clip-path="url(#p3751a676be)" d="M 430.559625 155.39283 
L 430.239072 153.471861 
L 429.31215 151.759059 
L 427.879305 150.440032 
L 426.095808 149.657718 
L 424.154929 149.496892 
L 422.266993 149.974983 
L 420.636585 151.040181 
L 419.440387 152.577057 
L 418.808025 154.419065 
L 418.808025 156.366596 
L 419.440387 158.208604 
L 420.636585 159.745479 
L 422.266993 160.810678 
L 424.154929 161.288768 
L 426.095808 161.127943 
L 427.879305 160.345628 
L 429.31215 159.026602 
L 430.239072 157.313799 
L 430.559625 155.39283 
" style="fill:none;stroke:#ff0000;stroke-linecap:square;stroke-width:1.5;"/>
   </g>
   <g id="line2d_65">
    <path clip-path="url(#p3751a676be)" d="M 468.81864 331.150054 
L 467.682134 324.339346 
L 464.395774 318.266684 
L 459.315687 313.590134 
L 452.99238 310.816475 
L 446.111082 310.246274 
L 439.417488 311.941323 
L 433.636952 315.717935 
L 429.395886 321.166857 
L 427.153874 327.697613 
L 427.153874 334.602495 
L 429.395886 341.133252 
L 433.636952 346.582174 
L 439.417488 350.358786 
L 446.111082 352.053834 
L 452.99238 351.483634 
L 459.315687 348.709974 
L 464.395774 344.033425 
L 467.682134 337.960763 
L 468.81864 331.150054 
" style="fill:none;stroke:#000000;stroke-dasharray:5.55,2.4;stroke-dashoffset:0;stroke-width:1.5;"/>
   </g>
   <g id="line2d_66">
    <path clip-path="url(#p3751a676be)" d="M 453.759363 331.150054 
L 453.43881 329.229085 
L 452.511888 327.516283 
L 451.079043 326.197256 
L 449.295546 325.414942 
L 447.354667 325.254116 
L 445.46673 325.732207 
L 443.836323 326.797405 
L 442.640125 328.334281 
L 442.007762 330.176289 
L 442.007762 332.12382 
L 442.640125 333.965828 
L 443.836323 335.502703 
L 445.46673 336.567902 
L 447.354667 337.045992 
L 449.295546 336.885166 
L 451.079043 336.102852 
L 452.511888 334.783826 
L 453.43881 333.071023 
L 453.759363 331.150054 
" style="fill:none;stroke:#ff0000;stroke-linecap:square;stroke-width:1.5;"/>
   </g>
   <g id="line2d_67">
    <path clip-path="url(#p3751a676be)" d="M 98.891566 487.188434 
L 98.891566 94.571566 
" style="fill:none;stroke:#000000;stroke-linecap:square;stroke-width:4;"/>
   </g>
   <g id="line2d_68">
    <path clip-path="url(#p3751a676be)" d="M 98.891566 94.571566 
L 491.508434 94.571566 
" style="fill:none;stroke:#000000;stroke-linecap:square;stroke-width:4;"/>
   </g>
   <g id="line2d_69">
    <path clip-path="url(#p3751a676be)" d="M 491.508434 94.571566 
L 491.508434 487.188434 
" style="fill:none;stroke:#000000;stroke-linecap:square;stroke-width:4;"/>
   </g>
   <g id="line2d_70">
    <path clip-path="url(#p3751a676be)" d="M 491.508434 487.188434 
L 98.891566 487.188434 
" style="fill:none;stroke:#000000;stroke-linecap:square;stroke-width:4;"/>
   </g>
   <g id="line2d_71">
    <path clip-path="url(#p3751a676be)" d="M 303.428819 386.936675 
L 303.159904 387.044241 
L 303.052337 387.151807 
L 303.052337 387.151807 
L 303.10612 386.775325 
L 303.052337 386.076145 
L 302.675855 384.624 
L 301.707759 382.849157 
L 300.148048 381.02053 
L 298.265639 379.568386 
L 294.608386 377.040578 
L 294.33947 376.71788 
L 293.962988 375.104386 
L 292.887325 372.200096 
L 292.510843 370.586602 
L 292.45706 369.618506 
L 292.241928 368.435277 
L 291.973012 367.843663 
L 292.026795 367.897446 
L 292.403277 368.058795 
L 292.188145 368.058795 
L 290.520867 368.327711 
L 286.540916 369.618506 
L 284.335807 369.887422 
L 280.517205 369.672289 
L 275.999422 369.833639 
L 273.041349 369.295807 
L 270.352193 368.435277 
L 267.878169 367.843663 
L 265.350361 367.467181 
L 262.93012 366.768 
L 260.993928 365.961253 
L 250.936482 360.690506 
L 246.526265 359.077012 
L 244.482506 357.947566 
L 242.815229 356.441639 
L 241.255518 354.344096 
L 240.287422 351.923855 
L 239.373108 347.674988 
L 238.512578 345.46988 
L 237.383133 343.42612 
L 236.468819 341.489928 
L 234.42506 336.757012 
L 233.026699 334.767036 
L 231.359422 332.77706 
L 229.692145 330.464386 
L 227.487036 325.839036 
L 225.981108 323.902843 
L 222.538988 320.568289 
L 218.666602 317.179952 
L 215.70853 314.006747 
L 212.26641 310.45706 
L 210.384 308.789783 
L 204.790554 304.379566 
L 197.798747 299.323952 
L 166.873446 277.219084 
L 139.766747 257.857157 
L 137.722988 256.405012 
L 137.722988 256.405012 
" style="fill:none;stroke:#8000ff;stroke-linecap:square;stroke-width:1.5;"/>
   </g>
   <g id="line2d_72">
    <path clip-path="url(#p3751a676be)" d="M 227.21812 311.048675 
L 227.917301 311.048675 
L 229.745928 310.833542 
L 232.004819 310.080578 
L 233.994795 308.951133 
L 237.867181 306.315759 
L 250.075952 298.893687 
L 255.131566 295.935614 
L 257.175325 294.913735 
L 259.380434 293.676723 
L 261.20906 292.063229 
L 262.714988 290.073253 
L 264.167133 288.405976 
L 266.157108 286.792482 
L 270.244627 283.83441 
L 276.32212 280.06959 
L 280.194506 276.842602 
L 282.076916 275.76694 
L 286.379566 273.830747 
L 296.544578 268.237301 
L 298.104289 266.946506 
L 299.771566 265.064096 
L 301.54641 263.343036 
L 303.375036 262.106024 
L 305.203663 261.084145 
L 307.462554 260.062265 
L 309.667663 259.524434 
L 311.872771 259.416867 
L 316.713253 259.954699 
L 321.661301 259.632 
L 334.35412 259.094169 
L 334.300337 259.094169 
L 333.977639 259.147952 
L 337.09706 259.739566 
L 339.033253 259.793349 
L 341.668627 259.470651 
L 342.636723 259.847133 
L 344.572916 260.277398 
L 346.724241 260.384964 
L 349.198265 260.331181 
L 351.779855 260.546313 
L 354.25388 261.406843 
L 355.867373 262.37494 
L 356.566554 263.23547 
L 356.458988 263.719518 
L 356.405205 263.934651 
L 356.405205 263.719518 
L 356.781687 264.526265 
L 357.534651 265.709494 
L 358.072482 266.354892 
L 358.072482 266.247325 
L 357.911133 265.763277 
L 357.749783 265.601928 
L 357.696 265.601928 
L 358.664096 265.548145 
L 360.062458 265.171663 
L 361.729735 264.364916 
L 363.343229 263.07412 
L 364.956723 261.191711 
L 366.032386 259.632 
L 367.592096 257.588241 
L 370.711518 254.14612 
L 374.261205 249.628337 
L 378.671422 243.981108 
L 413.415325 199.71759 
L 413.415325 199.71759 
" style="fill:none;stroke:#376ff9;stroke-linecap:square;stroke-width:1.5;"/>
   </g>
   <g id="line2d_73">
    <path clip-path="url(#p3751a676be)" d="M 168.32559 368.005012 
L 169.078554 368.005012 
L 171.014747 368.220145 
L 173.542554 368.919325 
L 177.199807 370.37147 
L 178.920867 371.285783 
L 184.675663 375.696 
L 187.687518 377.255711 
L 191.721253 379.622169 
L 195.916337 381.558361 
L 200.218988 383.386988 
L 202.47788 384.247518 
L 204.629205 385.538313 
L 206.188916 387.098024 
L 207.64106 389.249349 
L 208.447807 391.346892 
L 208.985639 393.874699 
L 209.52347 395.864675 
L 210.437783 397.693301 
L 211.728578 399.790843 
L 213.019373 402.157301 
L 213.772337 404.577542 
L 214.632867 406.782651 
L 215.816096 408.66506 
L 217.268241 410.708819 
L 219.634699 414.742554 
L 221.03306 416.73253 
L 226.787855 423.670554 
L 228.347566 425.068916 
L 231.897253 427.38159 
L 233.779663 429.048867 
L 236.361253 432.00694 
L 237.974747 433.243952 
L 241.524434 435.556627 
L 243.568193 437.223904 
L 245.611952 438.676048 
L 247.763277 439.697928 
L 249.807036 440.128193 
L 261.585542 440.988723 
L 271.589205 441.903036 
L 280.893687 442.817349 
L 297.996723 444.37706 
L 304.773398 445.022458 
L 314.454361 445.936771 
L 325.856386 447.012434 
L 333.009542 447.657831 
L 347.262072 449.00241 
L 361.944867 450.346988 
L 368.721542 451.099952 
L 370.872867 451.745349 
L 373.131759 452.982361 
L 375.336867 454.649639 
L 377.595759 456.209349 
L 379.15547 456.90853 
L 383.942169 458.79094 
L 386.254843 459.759036 
L 390.66506 461.211181 
L 393.031518 461.910361 
L 397.549301 462.878458 
L 400.023325 463.308723 
L 404.594892 463.685205 
L 407.122699 463.738988 
L 411.694265 463.416289 
L 416.696096 462.770892 
L 423.79547 462.340627 
L 428.582169 461.157398 
L 433.530217 460.834699 
L 440.091759 459.49012 
L 442.243084 459.328771 
L 444.286843 459.006072 
L 446.653301 458.468241 
L 446.653301 458.468241 
" style="fill:none;stroke:#12c7e6;stroke-linecap:square;stroke-width:1.5;"/>
   </g>
   <g id="line2d_74">
    <path clip-path="url(#p3751a676be)" d="M 252.765108 156.475952 
L 253.087807 156.583518 
L 253.410506 156.852434 
L 253.948337 157.551614 
L 254.539952 158.949976 
L 254.970217 160.939952 
L 254.916434 163.14506 
L 254.432386 165.672867 
L 252.765108 170.190651 
L 250.828916 176.752193 
L 249.591904 179.064867 
L 246.472482 182.72212 
L 245.23547 184.819663 
L 242.922795 189.176096 
L 241.793349 191.058506 
L 240.663904 193.263614 
L 237.221783 201.868916 
L 234.693976 210.097735 
L 231.951036 219.724916 
L 229.208096 229.40588 
L 228.186217 231.395855 
L 226.787855 233.116916 
L 224.744096 234.784193 
L 222.485205 235.967422 
L 220.280096 237.312 
L 218.505253 239.03306 
L 215.762313 242.744096 
L 214.095036 244.35759 
L 212.535325 246.024867 
L 211.40588 247.799711 
L 210.437783 249.574554 
L 208.931855 251.833446 
L 207.103229 253.662072 
L 205.005687 255.490699 
L 203.499759 257.05041 
L 202.208964 258.77147 
L 197.422265 264.580048 
L 196.239036 266.83894 
L 195.539855 269.205398 
L 195.27094 273.508048 
L 194.733108 276.089639 
L 192.151518 282.382265 
L 191.936386 284.103325 
L 191.344771 291.525398 
L 189.516145 308.628434 
L 188.92453 311.048675 
L 188.171566 313.092434 
L 187.364819 316.857253 
L 187.04212 318.954795 
L 186.504289 321.697735 
L 184.837012 326.161735 
L 183.868916 330.518169 
L 183.008386 332.615711 
L 182.147855 334.336771 
L 181.502458 335.950265 
L 181.072193 338.155373 
L 180.749494 340.629398 
L 179.566265 345.093398 
L 179.351133 347.244723 
L 179.136 351.870072 
L 178.813301 356.495422 
L 178.329253 370.479036 
L 178.006554 386.936675 
L 177.898988 396.617639 
L 177.468723 421.35788 
L 177.41494 425.337831 
L 177.41494 425.337831 
" style="fill:none;stroke:#5bf9c7;stroke-linecap:square;stroke-width:1.5;"/>
   </g>
   <g id="line2d_75">
    <path clip-path="url(#p3751a676be)" d="M 379.800867 139.856964 
L 380.338699 140.018313 
L 381.575711 140.556145 
L 383.242988 141.739373 
L 384.802699 143.352867 
L 385.985928 145.235277 
L 386.900241 147.709301 
L 387.276723 150.237108 
L 387.22294 152.872482 
L 386.685108 155.292723 
L 385.663229 157.497831 
L 384.049735 159.54159 
L 382.274892 160.939952 
L 380.392482 161.854265 
L 379.263036 162.015614 
L 378.778988 161.908048 
L 377.380627 160.939952 
L 376.57388 160.079422 
L 375.444434 159.057542 
L 373.562024 157.82053 
L 371.625831 157.121349 
L 369.259373 156.744867 
L 366.892916 156.96 
L 364.634024 157.712964 
L 362.590265 158.949976 
L 361.084337 160.348337 
L 359.793542 162.176964 
L 358.395181 164.489639 
L 355.598458 168.577157 
L 354.630361 170.298217 
L 353.931181 172.610892 
L 353.662265 176.644627 
L 353.178217 179.441349 
L 351.295807 184.658313 
L 350.973108 187.078554 
L 351.080675 189.498795 
L 350.973108 192.080386 
L 350.596627 194.339277 
L 350.435277 196.598169 
L 350.757976 198.964627 
L 352.694169 203.536193 
L 353.339566 205.687518 
L 354.361446 210.097735 
L 355.060627 211.980145 
L 356.028723 213.754988 
L 357.642217 215.529831 
L 361.407036 218.43412 
L 363.074313 220.424096 
L 364.311325 222.629205 
L 365.655904 224.511614 
L 367.054265 225.909976 
L 368.613976 227.200771 
L 369.797205 228.491566 
L 371.249349 230.642892 
L 372.862843 234.407711 
L 374.261205 236.505253 
L 375.659566 238.280096 
L 376.842795 240.108723 
L 377.649542 242.206265 
L 378.079807 244.787855 
L 377.864675 249.897253 
L 378.241157 252.263711 
L 378.832771 253.769639 
L 379.316819 254.30747 
L 380.984096 255.436916 
L 385.609446 257.319325 
L 387.868337 258.663904 
L 389.696964 260.49253 
L 391.095325 262.697639 
L 391.955855 265.171663 
L 392.224771 267.753253 
L 391.848289 270.334843 
L 388.675084 280.06959 
L 387.545639 282.220916 
L 385.932145 284.264675 
L 384.211084 285.663036 
L 382.436241 287.384096 
L 380.338699 290.395952 
L 378.456289 292.224578 
L 376.304964 293.62294 
L 374.422554 294.644819 
L 373.024193 295.612916 
L 371.356916 297.280193 
L 370.22747 299.055036 
L 368.613976 303.572819 
L 367.376964 305.831711 
L 366.086169 307.929253 
L 365.171855 309.75788 
L 364.096193 312.554602 
L 363.773494 314.867277 
L 363.988627 317.233735 
L 364.74159 319.492627 
L 365.978602 321.536386 
L 368.721542 324.494458 
L 369.904771 326.161735 
L 370.926651 328.581976 
L 371.356916 330.787084 
L 371.249349 333.422458 
L 370.550169 335.950265 
L 369.528289 337.940241 
L 367.968578 339.930217 
L 364.956723 343.372337 
L 363.343229 345.416096 
L 361.568386 347.244723 
L 359.41706 349.180916 
L 357.803566 350.79441 
L 356.512771 352.461687 
L 353.877398 356.656771 
L 352.21012 358.86188 
L 350.327711 360.58294 
L 348.122602 362.088867 
L 346.240193 363.594795 
L 342.851855 367.198265 
L 339.302169 370.747952 
L 334.784386 375.857349 
L 330.535518 381.128096 
L 326.232867 387.259373 
L 313.486265 408.019663 
L 296.759711 437.277687 
L 296.759711 437.277687 
" style="fill:none;stroke:#a4f99f;stroke-linecap:square;stroke-width:1.5;"/>
   </g>
   <g id="line2d_76">
    <path clip-path="url(#p3751a676be)" d="M 216.73041 231.772337 
L 217.160675 231.772337 
L 218.45147 232.041253 
L 220.33388 232.794217 
L 221.786024 233.70853 
L 223.668434 235.483373 
L 225.120578 237.473349 
L 226.51894 239.570892 
L 228.024867 241.507084 
L 229.369446 243.174361 
L 230.929157 245.110554 
L 232.273735 246.831614 
L 233.618313 248.498892 
L 235.070458 250.488867 
L 235.984771 252.42506 
L 236.522602 254.361253 
L 236.952867 256.351229 
L 237.329349 258.502554 
L 237.652048 260.976578 
L 238.082313 263.396819 
L 238.942843 265.601928 
L 240.126072 267.53812 
L 241.255518 269.312964 
L 242.277398 271.733205 
L 242.761446 274.261012 
L 242.976578 276.735036 
L 243.35306 279.101494 
L 244.321157 281.306602 
L 245.719518 283.189012 
L 247.81706 285.071422 
L 249.753253 286.469783 
L 251.635663 288.029494 
L 253.464289 289.427855 
L 255.400482 290.557301 
L 257.336675 291.74053 
L 259.756916 292.923759 
L 262.123373 293.569157 
L 264.597398 293.676723 
L 266.748723 293.838072 
L 269.061398 294.268337 
L 271.481639 294.537253 
L 273.90188 294.429687 
L 275.999422 294.268337 
L 278.20453 294.429687 
L 280.732337 294.644819 
L 282.776096 294.429687 
L 284.819855 293.891855 
L 287.240096 293.246458 
L 289.929253 292.977542 
L 292.510843 293.300241 
L 294.33947 293.945639 
L 296.22188 295.236434 
L 297.996723 297.118843 
L 299.395084 299.377735 
L 300.470747 301.52906 
L 301.653976 303.680386 
L 302.944771 305.885494 
L 304.128 307.983036 
L 304.880964 310.080578 
L 305.203663 312.285687 
L 305.365012 314.705928 
L 305.418795 317.179952 
L 305.096096 319.492627 
L 304.612048 321.805301 
L 304.343133 323.902843 
L 304.181783 326.376867 
L 303.859084 328.904675 
L 303.26747 331.056 
L 302.460723 333.099759 
L 301.600193 335.304867 
L 301.116145 337.671325 
L 301.223711 340.037783 
L 301.869108 342.350458 
L 302.837205 344.179084 
L 304.074217 345.738795 
L 305.526361 347.298506 
L 307.032289 349.449831 
L 308.000386 351.439807 
L 308.914699 353.053301 
L 310.151711 354.774361 
L 311.872771 356.602988 
L 313.647614 358.377831 
L 315.422458 360.206458 
L 317.143518 362.035084 
L 318.810795 363.863711 
L 320.047807 365.154506 
L 321.768867 366.983133 
L 323.221012 368.596627 
L 324.72694 370.156337 
L 326.179084 371.716048 
L 327.900145 373.544675 
L 329.621205 375.373301 
L 331.342265 377.201928 
L 333.063325 379.030554 
L 334.51547 380.590265 
L 336.23653 382.418892 
L 337.95759 384.247518 
L 339.678651 386.076145 
L 341.399711 387.904771 
L 342.851855 389.518265 
L 344.357783 391.077976 
L 345.809928 392.637687 
L 347.530988 394.466313 
L 349.520964 396.563855 
L 351.188241 398.392482 
L 352.909301 400.221108 
L 354.630361 402.049735 
L 356.351422 403.878361 
L 358.072482 405.706988 
L 359.57841 407.266699 
L 361.030554 408.82641 
" style="fill:none;stroke:#edc76f;stroke-linecap:square;stroke-width:1.5;"/>
   </g>
   <g id="line2d_77">
    <path clip-path="url(#p3751a676be)" d="M 355.652241 451.852916 
L 355.383325 451.960482 
L 355.275759 452.014265 
L 355.329542 451.960482 
L 355.437108 451.691566 
L 355.598458 450.669687 
L 355.490892 449.056193 
L 354.845494 446.851084 
L 353.716048 444.753542 
L 350.596627 440.988723 
L 338.065157 423.455422 
L 337.043277 421.035181 
L 336.559229 418.45359 
L 336.666795 415.872 
L 337.688675 411.300434 
L 338.065157 404.254843 
L 338.334072 402.157301 
L 338.387855 397.639518 
L 338.764337 395.111711 
L 340.377831 390.486361 
L 340.646747 388.119904 
L 340.108916 383.225639 
L 340.377831 380.644048 
L 341.991325 375.803566 
L 343.013205 370.855518 
L 345.648578 358.216482 
L 346.02506 355.581108 
L 345.971277 353.160867 
L 345.487229 351.170892 
L 342.959422 344.932048 
L 342.206458 342.673157 
L 340.216482 338.800771 
L 338.871904 336.918361 
L 337.527325 335.573783 
L 336.128964 334.390554 
L 335.376 333.530024 
L 334.676819 332.400578 
L 332.79441 328.47441 
L 331.449831 326.484434 
L 329.997687 325.032289 
L 328.599325 324.117976 
L 327.953928 323.902843 
L 326.125301 323.472578 
L 323.758843 322.719614 
L 321.499952 321.375036 
L 319.617542 319.54641 
L 318.219181 317.341301 
L 317.412434 315.297542 
L 316.65947 313.038651 
L 315.691373 311.263807 
L 314.131663 309.435181 
L 304.880964 302.174458 
L 294.608386 293.730506 
L 286.003084 286.684916 
L 274.654843 277.326651 
L 266.910072 270.980241 
L 258.035855 263.665735 
L 249.161639 256.405012 
L 238.673928 247.745928 
L 231.198072 241.614651 
L 210.706699 224.726747 
L 199.035759 215.207133 
L 184.352964 203.105928 
L 179.082217 198.803277 
L 175.209831 195.576289 
L 173.273639 194.016578 
L 173.273639 194.016578 
" style="fill:none;stroke:#ff6f39;stroke-linecap:square;stroke-width:1.5;"/>
   </g>
   <g id="line2d_78">
    <path clip-path="url(#p3751a676be)" d="M 248.623807 426.037012 
L 248.570024 426.037012 
L 248.785157 425.983229 
L 249.107855 425.82188 
L 250.022169 425.068916 
L 251.097831 423.562988 
L 252.012145 421.465446 
L 252.496193 419.152771 
L 252.980241 414.15094 
L 253.679422 409.202892 
L 254.109687 406.675084 
L 254.701301 404.308627 
L 255.400482 402.318651 
L 255.88453 400.005976 
L 255.830747 397.962217 
L 254.862651 393.283084 
L 254.808867 391.024193 
L 255.077783 388.980434 
L 255.239133 386.613976 
L 254.970217 384.247518 
L 254.486169 381.719711 
L 253.948337 375.158169 
L 253.464289 372.95306 
L 253.30294 370.048771 
L 253.679422 367.574747 
L 253.894554 365.369639 
L 253.679422 363.056964 
L 253.30294 360.905639 
L 253.30294 358.324048 
L 253.786988 355.903807 
L 254.378602 353.698699 
L 254.539952 351.278458 
L 254.217253 348.696867 
L 254.00212 345.900145 
L 254.432386 343.318554 
L 255.292916 340.898313 
L 255.830747 338.96212 
L 256.099663 337.079711 
L 256.314795 334.605687 
L 256.960193 332.024096 
L 258.788819 327.775229 
L 259.541783 325.408771 
L 259.864482 323.096096 
L 259.649349 320.675855 
L 258.896386 318.416964 
L 256.691277 314.06053 
L 256.04588 311.532723 
L 255.669398 309.112482 
L 255.024 306.799807 
L 253.087807 302.766072 
L 252.549976 300.453398 
L 252.28106 297.871807 
L 252.496193 295.666699 
L 253.195373 293.138892 
L 253.894554 291.202699 
L 255.185349 286.362217 
L 260.079614 267.645687 
L 264.220916 251.672096 
L 264.97388 249.144289 
L 266.210892 246.831614 
L 267.931952 244.895422 
L 272.073253 241.776 
L 277.505349 236.559036 
L 281.001253 233.493398 
L 284.335807 230.320193 
L 287.401446 226.878072 
L 288.692241 225.157012 
L 290.036819 223.05947 
L 291.220048 220.908145 
L 292.080578 218.971952 
L 292.941108 216.659277 
L 293.640289 214.292819 
L 294.231904 211.496096 
L 294.447036 209.129639 
L 294.285687 207.408578 
L 293.909205 205.741301 
L 292.672193 201.438651 
L 291.704096 196.813301 
L 290.574651 191.81147 
L 289.230072 184.76588 
L 288.907373 182.291855 
L 288.584675 177.612723 
L 288.638458 170.459566 
L 289.552771 160.939952 
L 290.897349 151.258988 
L 291.273831 148.784964 
L 291.273831 148.784964 
" style="fill:none;stroke:#ff0000;stroke-linecap:square;stroke-width:1.5;"/>
   </g>
   <g id="patch_3">
    <path d="M 72 512.64 
L 72 69.12 
" style="fill:none;stroke:#000000;stroke-linecap:square;stroke-linejoin:miter;stroke-width:0.8;"/>
   </g>
   <g id="patch_4">
    <path d="M 518.4 512.64 
L 518.4 69.12 
" style="fill:none;stroke:#000000;stroke-linecap:square;stroke-linejoin:miter;stroke-width:0.8;"/>
   </g>
   <g id="patch_5">
    <path d="M 72 512.64 
L 518.4 512.64 
" style="fill:none;stroke:#000000;stroke-linecap:square;stroke-linejoin:miter;stroke-width:0.8;"/>
   </g>
   <g id="patch_6">
    <path d="M 72 69.12 
L 518.4 69.12 
" style="fill:none;stroke:#000000;stroke-linecap:square;stroke-linejoin:miter;stroke-width:0.8;"/>
   </g>
   <g id="text_18">
    <!-- 1 -->
    <defs>
     <path d="M 14.203125 0 
L 14.203125 5.171875 
L 26.90625 5.171875 
L 26.90625 65.828125 
L 12.203125 56.296875 
L 12.203125 62.703125 
L 29.984375 74.21875 
L 36.71875 74.21875 
L 36.71875 5.171875 
L 49.421875 5.171875 
L 49.421875 0 
z
" id="DejaVuSerif-31"/>
    </defs>
    <g transform="translate(300.266024 386.925164)scale(0.1 -0.1)">
     <use xlink:href="#DejaVuSerif-31"/>
    </g>
   </g>
   <g id="text_19">
    <!-- 1 -->
    <g transform="translate(132.240381 254.760842)scale(0.1 -0.1)">
     <use xlink:href="#DejaVuSerif-31"/>
    </g>
   </g>
   <g id="text_20">
    <!-- 2 -->
    <defs>
     <path d="M 12.796875 55.515625 
L 7.328125 55.515625 
L 7.328125 68.5 
Q 12.546875 71.296875 17.84375 72.75 
Q 23.140625 74.21875 28.21875 74.21875 
Q 39.59375 74.21875 46.1875 68.703125 
Q 52.78125 63.1875 52.78125 53.71875 
Q 52.78125 43.015625 37.84375 28.125 
Q 36.671875 27 36.078125 26.421875 
L 17.671875 8.015625 
L 48.09375 8.015625 
L 48.09375 17 
L 53.8125 17 
L 53.8125 0 
L 6.78125 0 
L 6.78125 5.328125 
L 28.90625 27.390625 
Q 36.234375 34.71875 39.359375 40.84375 
Q 42.484375 46.96875 42.484375 53.71875 
Q 42.484375 61.078125 38.640625 65.234375 
Q 34.8125 69.390625 28.078125 69.390625 
Q 21.09375 69.390625 17.28125 65.921875 
Q 13.484375 62.453125 12.796875 55.515625 
z
" id="DejaVuSerif-32"/>
    </defs>
    <g transform="translate(224.017444 311.033842)scale(0.1 -0.1)">
     <use xlink:href="#DejaVuSerif-32"/>
    </g>
   </g>
   <g id="text_21">
    <!-- 2 -->
    <g transform="translate(411.384402 198.19997)scale(0.1 -0.1)">
     <use xlink:href="#DejaVuSerif-32"/>
    </g>
   </g>
   <g id="text_22">
    <!-- 3 -->
    <defs>
     <path d="M 9.71875 69.828125 
Q 15.4375 71.96875 20.671875 73.09375 
Q 25.921875 74.21875 30.515625 74.21875 
Q 41.21875 74.21875 47.21875 69.59375 
Q 53.21875 64.984375 53.21875 56.78125 
Q 53.21875 50.203125 49.0625 45.78125 
Q 44.921875 41.359375 37.3125 39.796875 
Q 46.296875 38.53125 51.25 33.28125 
Q 56.203125 28.03125 56.203125 19.671875 
Q 56.203125 9.46875 49.34375 4.015625 
Q 42.484375 -1.421875 29.59375 -1.421875 
Q 23.875 -1.421875 18.421875 -0.1875 
Q 12.984375 1.03125 7.625 3.515625 
L 7.625 17.671875 
L 13.09375 17.671875 
Q 13.578125 10.640625 17.828125 7.03125 
Q 22.078125 3.421875 29.78125 3.421875 
Q 37.25 3.421875 41.578125 7.734375 
Q 45.90625 12.0625 45.90625 19.578125 
Q 45.90625 28.171875 41.453125 32.59375 
Q 37.015625 37.015625 28.421875 37.015625 
L 23.78125 37.015625 
L 23.78125 42 
L 26.21875 42 
Q 34.765625 42 39.03125 45.53125 
Q 43.3125 49.078125 43.3125 56.203125 
Q 43.3125 62.59375 39.796875 65.984375 
Q 36.28125 69.390625 29.6875 69.390625 
Q 23.09375 69.390625 19.453125 66.265625 
Q 15.828125 63.140625 15.1875 56.984375 
L 9.71875 56.984375 
z
" id="DejaVuSerif-33"/>
    </defs>
    <g transform="translate(165.12146 368.021721)scale(0.1 -0.1)">
     <use xlink:href="#DejaVuSerif-33"/>
    </g>
   </g>
   <g id="text_23">
    <!-- 3 -->
    <g transform="translate(444.691502 458.383954)scale(0.1 -0.1)">
     <use xlink:href="#DejaVuSerif-33"/>
    </g>
   </g>
   <g id="text_24">
    <!-- 4 -->
    <defs>
     <path d="M 34.90625 24.703125 
L 34.90625 63.484375 
L 10.015625 24.703125 
z
M 56.390625 0 
L 23.1875 0 
L 23.1875 5.171875 
L 34.90625 5.171875 
L 34.90625 19.484375 
L 3.078125 19.484375 
L 3.078125 24.8125 
L 35.015625 74.21875 
L 44.671875 74.21875 
L 44.671875 24.703125 
L 58.59375 24.703125 
L 58.59375 19.484375 
L 44.671875 19.484375 
L 44.671875 5.171875 
L 56.390625 5.171875 
z
" id="DejaVuSerif-34"/>
    </defs>
    <g transform="translate(249.58865 156.459691)scale(0.1 -0.1)">
     <use xlink:href="#DejaVuSerif-34"/>
    </g>
   </g>
   <g id="text_25">
    <!-- 4 -->
    <g transform="translate(174.206197 426.576387)scale(0.1 -0.1)">
     <use xlink:href="#DejaVuSerif-34"/>
    </g>
   </g>
   <g id="text_26">
    <!-- 5 -->
    <defs>
     <path d="M 50.296875 72.90625 
L 50.296875 64.890625 
L 16.890625 64.890625 
L 16.890625 44 
Q 19.4375 45.75 22.828125 46.625 
Q 26.21875 47.515625 30.421875 47.515625 
Q 42.234375 47.515625 49.0625 40.96875 
Q 55.90625 34.421875 55.90625 23.09375 
Q 55.90625 11.53125 49 5.046875 
Q 42.09375 -1.421875 29.59375 -1.421875 
Q 24.5625 -1.421875 19.28125 -0.1875 
Q 14.015625 1.03125 8.5 3.515625 
L 8.5 17.671875 
L 14.015625 17.671875 
Q 14.453125 10.75 18.421875 7.078125 
Q 22.40625 3.421875 29.59375 3.421875 
Q 37.3125 3.421875 41.453125 8.5 
Q 45.609375 13.578125 45.609375 23.09375 
Q 45.609375 32.5625 41.484375 37.609375 
Q 37.359375 42.671875 29.59375 42.671875 
Q 25.203125 42.671875 21.84375 41.109375 
Q 18.5 39.546875 15.921875 36.28125 
L 11.71875 36.28125 
L 11.71875 72.90625 
z
" id="DejaVuSerif-35"/>
    </defs>
    <g transform="translate(376.63832 139.880421)scale(0.1 -0.1)">
     <use xlink:href="#DejaVuSerif-35"/>
    </g>
   </g>
   <g id="text_27">
    <!-- 5 -->
    <g transform="translate(292.191003 439.720304)scale(0.1 -0.1)">
     <use xlink:href="#DejaVuSerif-35"/>
    </g>
   </g>
   <g id="text_28">
    <!-- 6 -->
    <defs>
     <path d="M 32.71875 3.421875 
Q 39.59375 3.421875 43.296875 8.46875 
Q 47.015625 13.53125 47.015625 23 
Q 47.015625 32.46875 43.296875 37.515625 
Q 39.59375 42.578125 32.71875 42.578125 
Q 25.734375 42.578125 22.0625 37.6875 
Q 18.40625 32.8125 18.40625 23.578125 
Q 18.40625 13.875 22.109375 8.640625 
Q 25.828125 3.421875 32.71875 3.421875 
z
M 16.796875 40.140625 
Q 20.125 43.796875 24.3125 45.59375 
Q 28.515625 47.40625 33.796875 47.40625 
Q 44.671875 47.40625 51 40.859375 
Q 57.328125 34.328125 57.328125 23 
Q 57.328125 11.921875 50.515625 5.25 
Q 43.703125 -1.421875 32.328125 -1.421875 
Q 19.96875 -1.421875 13.328125 7.78125 
Q 6.6875 17 6.6875 34.078125 
Q 6.6875 53.21875 14.546875 63.71875 
Q 22.40625 74.21875 36.71875 74.21875 
Q 40.578125 74.21875 44.828125 73.484375 
Q 49.078125 72.75 53.515625 71.296875 
L 53.515625 59.28125 
L 48 59.28125 
Q 47.40625 64.203125 44.234375 66.796875 
Q 41.0625 69.390625 35.6875 69.390625 
Q 26.21875 69.390625 21.578125 62.203125 
Q 16.9375 55.03125 16.796875 40.140625 
z
" id="DejaVuSerif-36"/>
    </defs>
    <g transform="translate(213.541616 231.765491)scale(0.1 -0.1)">
     <use xlink:href="#DejaVuSerif-36"/>
    </g>
   </g>
   <g id="text_29">
    <!-- 6 -->
    <g transform="translate(358.930717 410.004869)scale(0.1 -0.1)">
     <use xlink:href="#DejaVuSerif-36"/>
    </g>
   </g>
   <g id="text_30">
    <!-- 7 -->
    <defs>
     <path d="M 56.390625 67.921875 
L 27.875 0 
L 20.609375 0 
L 47.796875 64.890625 
L 14.109375 64.890625 
L 14.109375 55.90625 
L 8.40625 55.90625 
L 8.40625 72.90625 
L 56.390625 72.90625 
z
" id="DejaVuSerif-37"/>
    </defs>
    <g transform="translate(352.446666 451.849081)scale(0.1 -0.1)">
     <use xlink:href="#DejaVuSerif-37"/>
    </g>
   </g>
   <g id="text_31">
    <!-- 7 -->
    <g transform="translate(168.781607 192.914842)scale(0.1 -0.1)">
     <use xlink:href="#DejaVuSerif-37"/>
    </g>
   </g>
   <g id="text_32">
    <!-- 8 -->
    <defs>
     <path d="M 46.578125 19.921875 
Q 46.578125 27.734375 42.6875 32.046875 
Q 38.8125 36.375 31.78125 36.375 
Q 24.75 36.375 20.875 32.046875 
Q 17 27.734375 17 19.921875 
Q 17 12.0625 20.875 7.734375 
Q 24.75 3.421875 31.78125 3.421875 
Q 38.8125 3.421875 42.6875 7.734375 
Q 46.578125 12.0625 46.578125 19.921875 
z
M 44.578125 55.328125 
Q 44.578125 61.96875 41.203125 65.671875 
Q 37.84375 69.390625 31.78125 69.390625 
Q 25.78125 69.390625 22.390625 65.671875 
Q 19 61.96875 19 55.328125 
Q 19 48.640625 22.390625 44.921875 
Q 25.78125 41.21875 31.78125 41.21875 
Q 37.84375 41.21875 41.203125 44.921875 
Q 44.578125 48.640625 44.578125 55.328125 
z
M 39.3125 38.8125 
Q 47.609375 37.703125 52.25 32.6875 
Q 56.890625 27.6875 56.890625 19.921875 
Q 56.890625 9.671875 50.390625 4.125 
Q 43.890625 -1.421875 31.78125 -1.421875 
Q 19.734375 -1.421875 13.203125 4.125 
Q 6.6875 9.671875 6.6875 19.921875 
Q 6.6875 27.6875 11.328125 32.6875 
Q 15.96875 37.703125 24.3125 38.8125 
Q 16.9375 40.140625 13 44.40625 
Q 9.078125 48.6875 9.078125 55.328125 
Q 9.078125 64.109375 15.125 69.15625 
Q 21.1875 74.21875 31.78125 74.21875 
Q 42.390625 74.21875 48.4375 69.15625 
Q 54.5 64.109375 54.5 55.328125 
Q 54.5 48.6875 50.5625 44.40625 
Q 46.625 40.140625 39.3125 38.8125 
z
" id="DejaVuSerif-38"/>
    </defs>
    <g transform="translate(245.423989 426.051501)scale(0.1 -0.1)">
     <use xlink:href="#DejaVuSerif-38"/>
    </g>
   </g>
   <g id="text_33">
    <!-- 8 -->
    <g transform="translate(288.41576 146.868943)scale(0.1 -0.1)">
     <use xlink:href="#DejaVuSerif-38"/>
    </g>
   </g>
  </g>
 </g>
 <defs>
  <clipPath id="p3751a676be">
   <rect height="443.52" width="446.4" x="72" y="69.12"/>
  </clipPath>
 </defs>
</svg>
