<?xml version="1.0" encoding="utf-8" standalone="no"?>
<!DOCTYPE svg PUBLIC "-//W3C//DTD SVG 1.1//EN"
  "http://www.w3.org/Graphics/SVG/1.1/DTD/svg11.dtd">
<!-- Created with matplotlib (http://matplotlib.org/) -->
<svg height="576pt" version="1.1" viewBox="0 0 576 576" width="576pt" xmlns="http://www.w3.org/2000/svg" xmlns:xlink="http://www.w3.org/1999/xlink">
 <defs>
  <style type="text/css">
*{stroke-linecap:butt;stroke-linejoin:round;}
  </style>
 </defs>
 <g id="figure_1">
  <g id="patch_1">
   <path d="M 0 576 
L 576 576 
L 576 0 
L 0 0 
z
" style="fill:#ffffff;"/>
  </g>
  <g id="axes_1">
   <g id="patch_2">
    <path d="M 72 512.64 
L 518.4 512.64 
L 518.4 69.12 
L 72 69.12 
z
" style="fill:#ffffff;"/>
   </g>
   <g id="matplotlib.axis_1">
    <g id="xtick_1">
     <g id="line2d_1">
      <defs>
       <path d="M 0 0 
L 0 3.5 
" id="m2a4f363e78" style="stroke:#000000;stroke-width:0.8;"/>
      </defs>
      <g>
       <use style="stroke:#000000;stroke-width:0.8;" x="112.216216" xlink:href="#m2a4f363e78" y="512.64"/>
      </g>
     </g>
     <g id="text_1">
      <!-- 0 -->
      <defs>
       <path d="M 31.78125 66.40625 
Q 24.171875 66.40625 20.328125 58.90625 
Q 16.5 51.421875 16.5 36.375 
Q 16.5 21.390625 20.328125 13.890625 
Q 24.171875 6.390625 31.78125 6.390625 
Q 39.453125 6.390625 43.28125 13.890625 
Q 47.125 21.390625 47.125 36.375 
Q 47.125 51.421875 43.28125 58.90625 
Q 39.453125 66.40625 31.78125 66.40625 
z
M 31.78125 74.21875 
Q 44.046875 74.21875 50.515625 64.515625 
Q 56.984375 54.828125 56.984375 36.375 
Q 56.984375 17.96875 50.515625 8.265625 
Q 44.046875 -1.421875 31.78125 -1.421875 
Q 19.53125 -1.421875 13.0625 8.265625 
Q 6.59375 17.96875 6.59375 36.375 
Q 6.59375 54.828125 13.0625 64.515625 
Q 19.53125 74.21875 31.78125 74.21875 
z
" id="DejaVuSans-30"/>
      </defs>
      <g transform="translate(109.034966 527.238438)scale(0.1 -0.1)">
       <use xlink:href="#DejaVuSans-30"/>
      </g>
     </g>
    </g>
    <g id="xtick_2">
     <g id="line2d_2">
      <g>
       <use style="stroke:#000000;stroke-width:0.8;" x="192.648649" xlink:href="#m2a4f363e78" y="512.64"/>
      </g>
     </g>
     <g id="text_2">
      <!-- 2 -->
      <defs>
       <path d="M 19.1875 8.296875 
L 53.609375 8.296875 
L 53.609375 0 
L 7.328125 0 
L 7.328125 8.296875 
Q 12.9375 14.109375 22.625 23.890625 
Q 32.328125 33.6875 34.8125 36.53125 
Q 39.546875 41.84375 41.421875 45.53125 
Q 43.3125 49.21875 43.3125 52.78125 
Q 43.3125 58.59375 39.234375 62.25 
Q 35.15625 65.921875 28.609375 65.921875 
Q 23.96875 65.921875 18.8125 64.3125 
Q 13.671875 62.703125 7.8125 59.421875 
L 7.8125 69.390625 
Q 13.765625 71.78125 18.9375 73 
Q 24.125 74.21875 28.421875 74.21875 
Q 39.75 74.21875 46.484375 68.546875 
Q 53.21875 62.890625 53.21875 53.421875 
Q 53.21875 48.921875 51.53125 44.890625 
Q 49.859375 40.875 45.40625 35.40625 
Q 44.1875 33.984375 37.640625 27.21875 
Q 31.109375 20.453125 19.1875 8.296875 
z
" id="DejaVuSans-32"/>
      </defs>
      <g transform="translate(189.467399 527.238438)scale(0.1 -0.1)">
       <use xlink:href="#DejaVuSans-32"/>
      </g>
     </g>
    </g>
    <g id="xtick_3">
     <g id="line2d_3">
      <g>
       <use style="stroke:#000000;stroke-width:0.8;" x="273.081081" xlink:href="#m2a4f363e78" y="512.64"/>
      </g>
     </g>
     <g id="text_3">
      <!-- 4 -->
      <defs>
       <path d="M 37.796875 64.3125 
L 12.890625 25.390625 
L 37.796875 25.390625 
z
M 35.203125 72.90625 
L 47.609375 72.90625 
L 47.609375 25.390625 
L 58.015625 25.390625 
L 58.015625 17.1875 
L 47.609375 17.1875 
L 47.609375 0 
L 37.796875 0 
L 37.796875 17.1875 
L 4.890625 17.1875 
L 4.890625 26.703125 
z
" id="DejaVuSans-34"/>
      </defs>
      <g transform="translate(269.899831 527.238438)scale(0.1 -0.1)">
       <use xlink:href="#DejaVuSans-34"/>
      </g>
     </g>
    </g>
    <g id="xtick_4">
     <g id="line2d_4">
      <g>
       <use style="stroke:#000000;stroke-width:0.8;" x="353.513514" xlink:href="#m2a4f363e78" y="512.64"/>
      </g>
     </g>
     <g id="text_4">
      <!-- 6 -->
      <defs>
       <path d="M 33.015625 40.375 
Q 26.375 40.375 22.484375 35.828125 
Q 18.609375 31.296875 18.609375 23.390625 
Q 18.609375 15.53125 22.484375 10.953125 
Q 26.375 6.390625 33.015625 6.390625 
Q 39.65625 6.390625 43.53125 10.953125 
Q 47.40625 15.53125 47.40625 23.390625 
Q 47.40625 31.296875 43.53125 35.828125 
Q 39.65625 40.375 33.015625 40.375 
z
M 52.59375 71.296875 
L 52.59375 62.3125 
Q 48.875 64.0625 45.09375 64.984375 
Q 41.3125 65.921875 37.59375 65.921875 
Q 27.828125 65.921875 22.671875 59.328125 
Q 17.53125 52.734375 16.796875 39.40625 
Q 19.671875 43.65625 24.015625 45.921875 
Q 28.375 48.1875 33.59375 48.1875 
Q 44.578125 48.1875 50.953125 41.515625 
Q 57.328125 34.859375 57.328125 23.390625 
Q 57.328125 12.15625 50.6875 5.359375 
Q 44.046875 -1.421875 33.015625 -1.421875 
Q 20.359375 -1.421875 13.671875 8.265625 
Q 6.984375 17.96875 6.984375 36.375 
Q 6.984375 53.65625 15.1875 63.9375 
Q 23.390625 74.21875 37.203125 74.21875 
Q 40.921875 74.21875 44.703125 73.484375 
Q 48.484375 72.75 52.59375 71.296875 
z
" id="DejaVuSans-36"/>
      </defs>
      <g transform="translate(350.332264 527.238438)scale(0.1 -0.1)">
       <use xlink:href="#DejaVuSans-36"/>
      </g>
     </g>
    </g>
    <g id="xtick_5">
     <g id="line2d_5">
      <g>
       <use style="stroke:#000000;stroke-width:0.8;" x="433.945946" xlink:href="#m2a4f363e78" y="512.64"/>
      </g>
     </g>
     <g id="text_5">
      <!-- 8 -->
      <defs>
       <path d="M 31.78125 34.625 
Q 24.75 34.625 20.71875 30.859375 
Q 16.703125 27.09375 16.703125 20.515625 
Q 16.703125 13.921875 20.71875 10.15625 
Q 24.75 6.390625 31.78125 6.390625 
Q 38.8125 6.390625 42.859375 10.171875 
Q 46.921875 13.96875 46.921875 20.515625 
Q 46.921875 27.09375 42.890625 30.859375 
Q 38.875 34.625 31.78125 34.625 
z
M 21.921875 38.8125 
Q 15.578125 40.375 12.03125 44.71875 
Q 8.5 49.078125 8.5 55.328125 
Q 8.5 64.0625 14.71875 69.140625 
Q 20.953125 74.21875 31.78125 74.21875 
Q 42.671875 74.21875 48.875 69.140625 
Q 55.078125 64.0625 55.078125 55.328125 
Q 55.078125 49.078125 51.53125 44.71875 
Q 48 40.375 41.703125 38.8125 
Q 48.828125 37.15625 52.796875 32.3125 
Q 56.78125 27.484375 56.78125 20.515625 
Q 56.78125 9.90625 50.3125 4.234375 
Q 43.84375 -1.421875 31.78125 -1.421875 
Q 19.734375 -1.421875 13.25 4.234375 
Q 6.78125 9.90625 6.78125 20.515625 
Q 6.78125 27.484375 10.78125 32.3125 
Q 14.796875 37.15625 21.921875 38.8125 
z
M 18.3125 54.390625 
Q 18.3125 48.734375 21.84375 45.5625 
Q 25.390625 42.390625 31.78125 42.390625 
Q 38.140625 42.390625 41.71875 45.5625 
Q 45.3125 48.734375 45.3125 54.390625 
Q 45.3125 60.0625 41.71875 63.234375 
Q 38.140625 66.40625 31.78125 66.40625 
Q 25.390625 66.40625 21.84375 63.234375 
Q 18.3125 60.0625 18.3125 54.390625 
z
" id="DejaVuSans-38"/>
      </defs>
      <g transform="translate(430.764696 527.238438)scale(0.1 -0.1)">
       <use xlink:href="#DejaVuSans-38"/>
      </g>
     </g>
    </g>
    <g id="xtick_6">
     <g id="line2d_6">
      <g>
       <use style="stroke:#000000;stroke-width:0.8;" x="514.378378" xlink:href="#m2a4f363e78" y="512.64"/>
      </g>
     </g>
     <g id="text_6">
      <!-- 10 -->
      <defs>
       <path d="M 12.40625 8.296875 
L 28.515625 8.296875 
L 28.515625 63.921875 
L 10.984375 60.40625 
L 10.984375 69.390625 
L 28.421875 72.90625 
L 38.28125 72.90625 
L 38.28125 8.296875 
L 54.390625 8.296875 
L 54.390625 0 
L 12.40625 0 
z
" id="DejaVuSans-31"/>
      </defs>
      <g transform="translate(508.015878 527.238438)scale(0.1 -0.1)">
       <use xlink:href="#DejaVuSans-31"/>
       <use x="63.623047" xlink:href="#DejaVuSans-30"/>
      </g>
     </g>
    </g>
   </g>
   <g id="matplotlib.axis_2">
    <g id="ytick_1">
     <g id="line2d_7">
      <defs>
       <path d="M 0 0 
L -3.5 0 
" id="m4e1d231893" style="stroke:#000000;stroke-width:0.8;"/>
      </defs>
      <g>
       <use style="stroke:#000000;stroke-width:0.8;" x="72" xlink:href="#m4e1d231893" y="473.863784"/>
      </g>
     </g>
     <g id="text_7">
      <!-- 0 -->
      <g transform="translate(58.6375 477.663003)scale(0.1 -0.1)">
       <use xlink:href="#DejaVuSans-30"/>
      </g>
     </g>
    </g>
    <g id="ytick_2">
     <g id="line2d_8">
      <g>
       <use style="stroke:#000000;stroke-width:0.8;" x="72" xlink:href="#m4e1d231893" y="393.431351"/>
      </g>
     </g>
     <g id="text_8">
      <!-- 2 -->
      <g transform="translate(58.6375 397.23057)scale(0.1 -0.1)">
       <use xlink:href="#DejaVuSans-32"/>
      </g>
     </g>
    </g>
    <g id="ytick_3">
     <g id="line2d_9">
      <g>
       <use style="stroke:#000000;stroke-width:0.8;" x="72" xlink:href="#m4e1d231893" y="312.998919"/>
      </g>
     </g>
     <g id="text_9">
      <!-- 4 -->
      <g transform="translate(58.6375 316.798138)scale(0.1 -0.1)">
       <use xlink:href="#DejaVuSans-34"/>
      </g>
     </g>
    </g>
    <g id="ytick_4">
     <g id="line2d_10">
      <g>
       <use style="stroke:#000000;stroke-width:0.8;" x="72" xlink:href="#m4e1d231893" y="232.566486"/>
      </g>
     </g>
     <g id="text_10">
      <!-- 6 -->
      <g transform="translate(58.6375 236.365705)scale(0.1 -0.1)">
       <use xlink:href="#DejaVuSans-36"/>
      </g>
     </g>
    </g>
    <g id="ytick_5">
     <g id="line2d_11">
      <g>
       <use style="stroke:#000000;stroke-width:0.8;" x="72" xlink:href="#m4e1d231893" y="152.134054"/>
      </g>
     </g>
     <g id="text_11">
      <!-- 8 -->
      <g transform="translate(58.6375 155.933273)scale(0.1 -0.1)">
       <use xlink:href="#DejaVuSans-38"/>
      </g>
     </g>
    </g>
    <g id="ytick_6">
     <g id="line2d_12">
      <g>
       <use style="stroke:#000000;stroke-width:0.8;" x="72" xlink:href="#m4e1d231893" y="71.701622"/>
      </g>
     </g>
     <g id="text_12">
      <!-- 10 -->
      <g transform="translate(52.275 75.50084)scale(0.1 -0.1)">
       <use xlink:href="#DejaVuSans-31"/>
       <use x="63.623047" xlink:href="#DejaVuSans-30"/>
      </g>
     </g>
    </g>
   </g>
   <g id="line2d_13">
    <path clip-path="url(#p9ac0c57c76)" d="M 140.367568 389.40973 
" style="fill:none;stroke:#1f77b4;stroke-linecap:square;stroke-width:1.5;"/>
    <defs>
     <path d="M -5 5 
L 5 5 
L 5 -5 
L -5 -5 
z
" id="mc93477c90b" style="stroke:#8000ff;stroke-linejoin:miter;"/>
    </defs>
    <g clip-path="url(#p9ac0c57c76)">
     <use style="fill:#8000ff;stroke:#8000ff;stroke-linejoin:miter;" x="140.367568" xlink:href="#mc93477c90b" y="389.40973"/>
    </g>
   </g>
   <g id="line2d_14">
    <path clip-path="url(#p9ac0c57c76)" d="M 393.72973 192.35027 
" style="fill:none;stroke:#ff7f0e;stroke-linecap:square;stroke-width:1.5;"/>
    <defs>
     <path d="M 0 -5 
L -4.755283 -1.545085 
L -2.938926 4.045085 
L 2.938926 4.045085 
L 4.755283 -1.545085 
z
" id="me7cfd21bfd" style="stroke:#8000ff;stroke-linejoin:miter;"/>
    </defs>
    <g clip-path="url(#p9ac0c57c76)">
     <use style="fill:#8000ff;stroke:#8000ff;stroke-linejoin:miter;" x="393.72973" xlink:href="#me7cfd21bfd" y="192.35027"/>
    </g>
   </g>
   <g id="line2d_15">
    <path clip-path="url(#p9ac0c57c76)" d="M 450.032432 192.35027 
" style="fill:none;stroke:#2ca02c;stroke-linecap:square;stroke-width:1.5;"/>
    <defs>
     <path d="M -5 5 
L 5 5 
L 5 -5 
L -5 -5 
z
" id="m863bf3acef" style="stroke:#5148fc;stroke-linejoin:miter;"/>
    </defs>
    <g clip-path="url(#p9ac0c57c76)">
     <use style="fill:#5148fc;stroke:#5148fc;stroke-linejoin:miter;" x="450.032432" xlink:href="#m863bf3acef" y="192.35027"/>
    </g>
   </g>
   <g id="line2d_16">
    <path clip-path="url(#p9ac0c57c76)" d="M 224.821622 361.258378 
" style="fill:none;stroke:#d62728;stroke-linecap:square;stroke-width:1.5;"/>
    <defs>
     <path d="M 0 -5 
L -4.755283 -1.545085 
L -2.938926 4.045085 
L 2.938926 4.045085 
L 4.755283 -1.545085 
z
" id="m7c4494852e" style="stroke:#5148fc;stroke-linejoin:miter;"/>
    </defs>
    <g clip-path="url(#p9ac0c57c76)">
     <use style="fill:#5148fc;stroke:#5148fc;stroke-linejoin:miter;" x="224.821622" xlink:href="#m7c4494852e" y="361.258378"/>
    </g>
   </g>
   <g id="line2d_17">
    <path clip-path="url(#p9ac0c57c76)" d="M 402.175135 440.082162 
" style="fill:none;stroke:#9467bd;stroke-linecap:square;stroke-width:1.5;"/>
    <defs>
     <path d="M -5 5 
L 5 5 
L 5 -5 
L -5 -5 
z
" id="m7a5e438ac5" style="stroke:#238af5;stroke-linejoin:miter;"/>
    </defs>
    <g clip-path="url(#p9ac0c57c76)">
     <use style="fill:#238af5;stroke:#238af5;stroke-linejoin:miter;" x="402.175135" xlink:href="#m7a5e438ac5" y="440.082162"/>
    </g>
   </g>
   <g id="line2d_18">
    <path clip-path="url(#p9ac0c57c76)" d="M 224.821622 192.35027 
" style="fill:none;stroke:#8c564b;stroke-linecap:square;stroke-width:1.5;"/>
    <defs>
     <path d="M 0 -5 
L -4.755283 -1.545085 
L -2.938926 4.045085 
L 2.938926 4.045085 
L 4.755283 -1.545085 
z
" id="m79f191dc14" style="stroke:#238af5;stroke-linejoin:miter;"/>
    </defs>
    <g clip-path="url(#p9ac0c57c76)">
     <use style="fill:#238af5;stroke:#238af5;stroke-linejoin:miter;" x="224.821622" xlink:href="#m79f191dc14" y="192.35027"/>
    </g>
   </g>
   <g id="line2d_19">
    <path clip-path="url(#p9ac0c57c76)" d="M 224.821622 136.047568 
" style="fill:none;stroke:#e377c2;stroke-linecap:square;stroke-width:1.5;"/>
    <defs>
     <path d="M -5 5 
L 5 5 
L 5 -5 
L -5 -5 
z
" id="m24466335b4" style="stroke:#0cc1e8;stroke-linejoin:miter;"/>
    </defs>
    <g clip-path="url(#p9ac0c57c76)">
     <use style="fill:#0cc1e8;stroke:#0cc1e8;stroke-linejoin:miter;" x="224.821622" xlink:href="#m24466335b4" y="136.047568"/>
    </g>
   </g>
   <g id="line2d_20">
    <path clip-path="url(#p9ac0c57c76)" d="M 393.72973 361.258378 
" style="fill:none;stroke:#7f7f7f;stroke-linecap:square;stroke-width:1.5;"/>
    <defs>
     <path d="M 0 -5 
L -4.755283 -1.545085 
L -2.938926 4.045085 
L 2.938926 4.045085 
L 4.755283 -1.545085 
z
" id="ma22aa2744a" style="stroke:#0cc1e8;stroke-linejoin:miter;"/>
    </defs>
    <g clip-path="url(#p9ac0c57c76)">
     <use style="fill:#0cc1e8;stroke:#0cc1e8;stroke-linejoin:miter;" x="393.72973" xlink:href="#ma22aa2744a" y="361.258378"/>
    </g>
   </g>
   <g id="line2d_21">
    <path clip-path="url(#p9ac0c57c76)" d="M 450.032432 304.955676 
" style="fill:none;stroke:#bcbd22;stroke-linecap:square;stroke-width:1.5;"/>
    <defs>
     <path d="M -5 5 
L 5 5 
L 5 -5 
L -5 -5 
z
" id="m5cc1bdfab3" style="stroke:#3ae8d7;stroke-linejoin:miter;"/>
    </defs>
    <g clip-path="url(#p9ac0c57c76)">
     <use style="fill:#3ae8d7;stroke:#3ae8d7;stroke-linejoin:miter;" x="450.032432" xlink:href="#m5cc1bdfab3" y="304.955676"/>
    </g>
   </g>
   <g id="line2d_22">
    <path clip-path="url(#p9ac0c57c76)" d="M 196.67027 248.652973 
" style="fill:none;stroke:#17becf;stroke-linecap:square;stroke-width:1.5;"/>
    <defs>
     <path d="M 0 -5 
L -4.755283 -1.545085 
L -2.938926 4.045085 
L 2.938926 4.045085 
L 4.755283 -1.545085 
z
" id="me2509a9f47" style="stroke:#3ae8d7;stroke-linejoin:miter;"/>
    </defs>
    <g clip-path="url(#p9ac0c57c76)">
     <use style="fill:#3ae8d7;stroke:#3ae8d7;stroke-linejoin:miter;" x="196.67027" xlink:href="#me2509a9f47" y="248.652973"/>
    </g>
   </g>
   <g id="line2d_23">
    <path clip-path="url(#p9ac0c57c76)" d="M 140.367568 248.652973 
" style="fill:none;stroke:#1f77b4;stroke-linecap:square;stroke-width:1.5;"/>
    <defs>
     <path d="M -5 5 
L 5 5 
L 5 -5 
L -5 -5 
z
" id="m70bd818165" style="stroke:#68fcc1;stroke-linejoin:miter;"/>
    </defs>
    <g clip-path="url(#p9ac0c57c76)">
     <use style="fill:#68fcc1;stroke:#68fcc1;stroke-linejoin:miter;" x="140.367568" xlink:href="#m70bd818165" y="248.652973"/>
    </g>
   </g>
   <g id="line2d_24">
    <path clip-path="url(#p9ac0c57c76)" d="M 393.72973 276.804324 
" style="fill:none;stroke:#ff7f0e;stroke-linecap:square;stroke-width:1.5;"/>
    <defs>
     <path d="M 0 -5 
L -4.755283 -1.545085 
L -2.938926 4.045085 
L 2.938926 4.045085 
L 4.755283 -1.545085 
z
" id="mdbcca473f8" style="stroke:#68fcc1;stroke-linejoin:miter;"/>
    </defs>
    <g clip-path="url(#p9ac0c57c76)">
     <use style="fill:#68fcc1;stroke:#68fcc1;stroke-linejoin:miter;" x="393.72973" xlink:href="#mdbcca473f8" y="276.804324"/>
    </g>
   </g>
   <g id="line2d_25">
    <path clip-path="url(#p9ac0c57c76)" d="M 281.124324 192.35027 
" style="fill:none;stroke:#2ca02c;stroke-linecap:square;stroke-width:1.5;"/>
    <defs>
     <path d="M -5 5 
L 5 5 
L 5 -5 
L -5 -5 
z
" id="m9389360934" style="stroke:#97fca7;stroke-linejoin:miter;"/>
    </defs>
    <g clip-path="url(#p9ac0c57c76)">
     <use style="fill:#97fca7;stroke:#97fca7;stroke-linejoin:miter;" x="281.124324" xlink:href="#m9389360934" y="192.35027"/>
    </g>
   </g>
   <g id="line2d_26">
    <path clip-path="url(#p9ac0c57c76)" d="M 281.124324 333.107027 
" style="fill:none;stroke:#d62728;stroke-linecap:square;stroke-width:1.5;"/>
    <defs>
     <path d="M 0 -5 
L -4.755283 -1.545085 
L -2.938926 4.045085 
L 2.938926 4.045085 
L 4.755283 -1.545085 
z
" id="mbc25e07c37" style="stroke:#97fca7;stroke-linejoin:miter;"/>
    </defs>
    <g clip-path="url(#p9ac0c57c76)">
     <use style="fill:#97fca7;stroke:#97fca7;stroke-linejoin:miter;" x="281.124324" xlink:href="#mbc25e07c37" y="333.107027"/>
    </g>
   </g>
   <g id="line2d_27">
    <path clip-path="url(#p9ac0c57c76)" d="M 140.367568 304.955676 
" style="fill:none;stroke:#9467bd;stroke-linecap:square;stroke-width:1.5;"/>
    <defs>
     <path d="M -5 5 
L 5 5 
L 5 -5 
L -5 -5 
z
" id="md94f1f8be0" style="stroke:#c5e88a;stroke-linejoin:miter;"/>
    </defs>
    <g clip-path="url(#p9ac0c57c76)">
     <use style="fill:#c5e88a;stroke:#c5e88a;stroke-linejoin:miter;" x="140.367568" xlink:href="#md94f1f8be0" y="304.955676"/>
    </g>
   </g>
   <g id="line2d_28">
    <path clip-path="url(#p9ac0c57c76)" d="M 309.275676 276.804324 
" style="fill:none;stroke:#8c564b;stroke-linecap:square;stroke-width:1.5;"/>
    <defs>
     <path d="M 0 -5 
L -4.755283 -1.545085 
L -2.938926 4.045085 
L 2.938926 4.045085 
L 4.755283 -1.545085 
z
" id="m22907fec63" style="stroke:#c5e88a;stroke-linejoin:miter;"/>
    </defs>
    <g clip-path="url(#p9ac0c57c76)">
     <use style="fill:#c5e88a;stroke:#c5e88a;stroke-linejoin:miter;" x="309.275676" xlink:href="#m22907fec63" y="276.804324"/>
    </g>
   </g>
   <g id="line2d_29">
    <path clip-path="url(#p9ac0c57c76)" d="M 393.72973 220.501622 
" style="fill:none;stroke:#e377c2;stroke-linecap:square;stroke-width:1.5;"/>
    <defs>
     <path d="M -5 5 
L 5 5 
L 5 -5 
L -5 -5 
z
" id="m13544553a9" style="stroke:#f3c16a;stroke-linejoin:miter;"/>
    </defs>
    <g clip-path="url(#p9ac0c57c76)">
     <use style="fill:#f3c16a;stroke:#f3c16a;stroke-linejoin:miter;" x="393.72973" xlink:href="#m13544553a9" y="220.501622"/>
    </g>
   </g>
   <g id="line2d_30">
    <path clip-path="url(#p9ac0c57c76)" d="M 140.367568 276.804324 
" style="fill:none;stroke:#7f7f7f;stroke-linecap:square;stroke-width:1.5;"/>
    <defs>
     <path d="M 0 -5 
L -4.755283 -1.545085 
L -2.938926 4.045085 
L 2.938926 4.045085 
L 4.755283 -1.545085 
z
" id="mfaada814a8" style="stroke:#f3c16a;stroke-linejoin:miter;"/>
    </defs>
    <g clip-path="url(#p9ac0c57c76)">
     <use style="fill:#f3c16a;stroke:#f3c16a;stroke-linejoin:miter;" x="140.367568" xlink:href="#mfaada814a8" y="276.804324"/>
    </g>
   </g>
   <g id="line2d_31">
    <path clip-path="url(#p9ac0c57c76)" d="M 140.367568 136.047568 
" style="fill:none;stroke:#bcbd22;stroke-linecap:square;stroke-width:1.5;"/>
    <defs>
     <path d="M -5 5 
L 5 5 
L 5 -5 
L -5 -5 
z
" id="mcba3cbf94d" style="stroke:#ff8a48;stroke-linejoin:miter;"/>
    </defs>
    <g clip-path="url(#p9ac0c57c76)">
     <use style="fill:#ff8a48;stroke:#ff8a48;stroke-linejoin:miter;" x="140.367568" xlink:href="#mcba3cbf94d" y="136.047568"/>
    </g>
   </g>
   <g id="line2d_32">
    <path clip-path="url(#p9ac0c57c76)" d="M 252.972973 248.652973 
" style="fill:none;stroke:#17becf;stroke-linecap:square;stroke-width:1.5;"/>
    <defs>
     <path d="M 0 -5 
L -4.755283 -1.545085 
L -2.938926 4.045085 
L 2.938926 4.045085 
L 4.755283 -1.545085 
z
" id="mbcbbe6a96e" style="stroke:#ff8a48;stroke-linejoin:miter;"/>
    </defs>
    <g clip-path="url(#p9ac0c57c76)">
     <use style="fill:#ff8a48;stroke:#ff8a48;stroke-linejoin:miter;" x="252.972973" xlink:href="#mbcbbe6a96e" y="248.652973"/>
    </g>
   </g>
   <g id="line2d_33">
    <path clip-path="url(#p9ac0c57c76)" d="M 337.427027 164.198919 
" style="fill:none;stroke:#1f77b4;stroke-linecap:square;stroke-width:1.5;"/>
    <defs>
     <path d="M -5 5 
L 5 5 
L 5 -5 
L -5 -5 
z
" id="m7afb2236a5" style="stroke:#ff4824;stroke-linejoin:miter;"/>
    </defs>
    <g clip-path="url(#p9ac0c57c76)">
     <use style="fill:#ff4824;stroke:#ff4824;stroke-linejoin:miter;" x="337.427027" xlink:href="#m7afb2236a5" y="164.198919"/>
    </g>
   </g>
   <g id="line2d_34">
    <path clip-path="url(#p9ac0c57c76)" d="M 168.518919 389.40973 
" style="fill:none;stroke:#ff7f0e;stroke-linecap:square;stroke-width:1.5;"/>
    <defs>
     <path d="M 0 -5 
L -4.755283 -1.545085 
L -2.938926 4.045085 
L 2.938926 4.045085 
L 4.755283 -1.545085 
z
" id="m8107709e8d" style="stroke:#ff4824;stroke-linejoin:miter;"/>
    </defs>
    <g clip-path="url(#p9ac0c57c76)">
     <use style="fill:#ff4824;stroke:#ff4824;stroke-linejoin:miter;" x="168.518919" xlink:href="#m8107709e8d" y="389.40973"/>
    </g>
   </g>
   <g id="line2d_35">
    <path clip-path="url(#p9ac0c57c76)" d="M 196.67027 445.712432 
" style="fill:none;stroke:#2ca02c;stroke-linecap:square;stroke-width:1.5;"/>
    <defs>
     <path d="M -5 5 
L 5 5 
L 5 -5 
L -5 -5 
z
" id="me11aae9166" style="stroke:#ff0000;stroke-linejoin:miter;"/>
    </defs>
    <g clip-path="url(#p9ac0c57c76)">
     <use style="fill:#ff0000;stroke:#ff0000;stroke-linejoin:miter;" x="196.67027" xlink:href="#me11aae9166" y="445.712432"/>
    </g>
   </g>
   <g id="line2d_36">
    <path clip-path="url(#p9ac0c57c76)" d="M 393.72973 136.047568 
" style="fill:none;stroke:#d62728;stroke-linecap:square;stroke-width:1.5;"/>
    <defs>
     <path d="M 0 -5 
L -4.755283 -1.545085 
L -2.938926 4.045085 
L 2.938926 4.045085 
L 4.755283 -1.545085 
z
" id="m23471e9394" style="stroke:#ff0000;stroke-linejoin:miter;"/>
    </defs>
    <g clip-path="url(#p9ac0c57c76)">
     <use style="fill:#ff0000;stroke:#ff0000;stroke-linejoin:miter;" x="393.72973" xlink:href="#m23471e9394" y="136.047568"/>
    </g>
   </g>
   <g id="line2d_37"/>
   <g id="line2d_38">
    <path clip-path="url(#p9ac0c57c76)" d="M 92.108108 493.971892 
L 92.108108 87.788108 
" style="fill:none;stroke:#000000;stroke-linecap:square;stroke-width:4;"/>
   </g>
   <g id="line2d_39">
    <path clip-path="url(#p9ac0c57c76)" d="M 92.108108 87.788108 
L 498.291892 87.788108 
" style="fill:none;stroke:#000000;stroke-linecap:square;stroke-width:4;"/>
   </g>
   <g id="line2d_40">
    <path clip-path="url(#p9ac0c57c76)" d="M 498.291892 87.788108 
L 498.291892 493.971892 
" style="fill:none;stroke:#000000;stroke-linecap:square;stroke-width:4;"/>
   </g>
   <g id="line2d_41">
    <path clip-path="url(#p9ac0c57c76)" d="M 498.291892 493.971892 
L 92.108108 493.971892 
" style="fill:none;stroke:#000000;stroke-linecap:square;stroke-width:4;"/>
   </g>
   <g id="line2d_42">
    <path clip-path="url(#p9ac0c57c76)" d="M 140.367568 389.40973 
L 141.091459 389.40973 
L 143.062054 389.088 
L 145.153297 388.082595 
L 153.196541 381.487135 
L 156.373622 379.033946 
L 161.843027 374.690595 
L 167.111351 370.548324 
L 185.651027 355.990054 
L 187.420541 354.743351 
L 189.793297 353.898811 
L 191.723676 353.737946 
L 195.624649 354.140108 
L 199.606054 353.778162 
L 209.901405 351.968432 
L 211.992649 351.606486 
L 214.445838 351.324973 
L 218.507676 351.727135 
L 220.639135 351.968432 
L 224.620541 352.692324 
L 227.113946 353.215135 
L 229.124757 354.019459 
L 231.457297 354.743351 
L 233.468108 354.783568 
L 235.519135 354.341189 
L 237.48973 353.617297 
L 239.942919 353.215135 
L 244.567784 353.536865 
L 251.002378 353.094486 
L 260.65427 352.772757 
L 262.021622 353.215135 
L 262.464 353.577081 
L 263.429189 354.743351 
L 264.354162 356.432432 
L 264.917189 358.885622 
L 264.756324 361.13773 
L 264.193297 363.148541 
L 263.871568 364.716973 
L 263.388973 366.365838 
L 261.900973 369.100541 
L 262.021622 369.140757 
L 262.705297 370.025514 
L 264.112865 371.030919 
L 265.76173 371.754811 
L 267.772541 372.036324 
L 270.105081 371.835243 
L 272.236541 371.392865 
L 273.081081 371.55373 
L 276.258162 372.800432 
L 277.02227 372.277622 
L 277.987459 371.111351 
L 279.636324 369.542919 
L 281.606919 368.497297 
L 283.497081 368.014703 
L 287.880649 367.652757 
L 290.052324 367.049514 
L 292.304432 366.607135 
L 294.87827 366.727784 
L 296.969514 367.451676 
L 298.859676 368.698378 
L 300.468324 370.628757 
L 301.272649 372.39827 
L 301.755243 374.52973 
L 302.599784 376.661189 
L 303.846486 378.269838 
L 305.495351 379.516541 
L 307.385514 380.240432 
L 309.878919 380.723027 
L 312.010378 381.527351 
L 315.911351 384.020757 
L 318.042811 385.388108 
L 319.691676 386.152216 
L 321.461189 386.554378 
L 323.472 386.43373 
L 325.482811 385.870703 
L 329.424 384.060973 
L 335.335784 381.527351 
L 343.338811 377.706811 
L 348.768 374.851459 
L 354.156973 371.835243 
L 360.913297 367.532108 
L 363.849081 364.797405 
L 371.369514 358.805189 
L 379.332324 351.968432 
L 381.101838 350.72173 
L 382.750703 349.756541 
L 384.721297 348.871784 
L 388.984216 347.866378 
L 390.995027 346.780541 
L 392.442811 345.332757 
L 393.408 343.764324 
L 394.252541 341.79373 
L 395.257946 339.782919 
L 396.665514 338.053622 
L 399.480649 335.19827 
L 402.01427 332.101622 
L 403.663135 330.452757 
L 404.789189 329.045189 
L 407.202162 325.063784 
L 408.529297 323.29427 
L 409.695568 321.484541 
L 411.103135 317.462919 
L 411.505297 315.251027 
L 411.384649 313.2 
L 410.017297 304.754595 
L 409.212973 298.32 
L 409.494486 289.472432 
L 410.258595 283.319351 
L 410.620541 281.429189 
L 411.947676 276.804324 
L 412.671568 274.873946 
L 413.757405 273.225081 
L 416.331243 270.611027 
L 417.457297 268.921946 
L 418.060541 266.991568 
L 418.181189 264.940541 
L 417.738811 262.92973 
L 416.934486 261.240649 
L 416.089946 259.189622 
L 415.647568 257.058162 
L 415.084541 252.996324 
L 414.601946 250.905081 
L 412.872649 245.315027 
L 410.017297 237.231568 
L 394.373189 194.119784 
L 394.373189 194.119784 
" style="fill:none;stroke:#8000ff;stroke-linecap:square;stroke-width:1.5;"/>
   </g>
   <g id="line2d_43">
    <path clip-path="url(#p9ac0c57c76)" d="M 450.032432 192.35027 
L 450.27373 192.430703 
L 450.474811 192.792649 
L 450.675892 193.637189 
L 450.635676 194.843676 
L 450.032432 196.894703 
L 448.825946 198.744649 
L 447.458595 200.071784 
L 419.146378 220.421189 
L 410.057514 227.056865 
L 404.829405 230.837189 
L 403.019676 232.284973 
L 401.692541 234.134919 
L 401.008865 236.065297 
L 400.727351 238.196757 
L 400.043676 240.931459 
L 399.03827 242.94227 
L 397.55027 244.591135 
L 395.539459 245.998703 
L 391.678703 248.411676 
L 390.311351 249.417081 
L 388.944 250.985514 
L 388.059243 252.835459 
L 387.053838 257.219027 
L 385.565838 261.321081 
L 384.841946 263.291676 
L 383.756108 265.463351 
L 382.790919 267.112216 
L 381.021405 268.921946 
L 379.131243 270.088216 
L 377.442162 270.932757 
L 375.431351 272.219676 
L 374.224865 273.506595 
L 373.139027 275.316324 
L 372.294486 277.286919 
L 371.248865 279.217297 
L 368.675027 283.279135 
L 367.79027 285.370378 
L 367.428324 287.180108 
L 367.508757 289.190919 
L 368.112 291.161514 
L 369.036973 293.091892 
L 369.680432 294.941838 
L 369.92173 297.15373 
L 369.6 299.084108 
L 368.715243 301.135135 
L 366.30227 304.513297 
L 365.538162 306.121946 
L 364.975135 308.172973 
L 364.009946 310.585946 
L 362.803459 312.395676 
L 361.999135 313.964108 
L 360.832865 318.066162 
L 359.867676 320.076973 
L 358.500324 321.926919 
L 357.253622 323.897514 
L 356.489514 325.948541 
L 355.323243 328.160432 
L 353.754811 329.769081 
L 351.623351 331.056 
L 349.491892 331.940757 
L 347.682162 333.066811 
L 346.314811 334.554811 
L 345.389838 336.123243 
L 344.706162 338.294919 
L 344.545297 340.144865 
L 344.263784 341.914378 
L 343.539892 343.764324 
L 342.413838 345.372973 
L 340.523676 346.981622 
L 338.67373 348.067459 
L 336.984649 349.273946 
L 332.641297 352.853189 
L 331.113081 354.662919 
L 329.424 356.110703 
L 325.482811 358.201946 
L 324.075243 359.368216 
L 322.426378 360.454054 
L 320.656865 361.097514 
L 318.404757 361.298595 
L 315.951568 360.816 
L 313.980973 359.810595 
L 310.763676 357.196541 
L 309.114811 355.748757 
L 307.385514 354.502054 
L 305.29427 353.496649 
L 303.323676 353.134703 
L 301.272649 353.295568 
L 299.583568 353.898811 
L 297.894486 355.024865 
L 296.36627 356.633514 
L 294.757622 358.16173 
L 292.626162 359.448649 
L 289.328432 361.057297 
L 287.719784 361.942054 
L 285.467676 362.907243 
L 279.515676 364.515892 
L 277.344 364.877838 
L 275.172324 365.078919 
L 271.150703 365.199568 
L 264.193297 365.802811 
L 260.131459 365.722378 
L 252.128432 364.95827 
L 235.639784 362.746378 
L 225.022703 361.298595 
L 225.022703 361.298595 
" style="fill:none;stroke:#5148fc;stroke-linecap:square;stroke-width:1.5;"/>
   </g>
   <g id="line2d_44">
    <path clip-path="url(#p9ac0c57c76)" d="M 402.175135 440.082162 
L 401.933838 440.162595 
L 402.215351 439.840865 
L 402.577297 438.996324 
L 402.738162 437.628973 
L 402.456649 436.020324 
L 401.732757 434.371459 
L 400.727351 432.883459 
L 398.274162 429.666162 
L 389.868973 418.204541 
L 343.98227 355.427027 
L 342.735568 353.818378 
L 341.126919 352.531459 
L 339.276973 351.646703 
L 337.507459 351.123892 
L 335.174919 350.239135 
L 331.515243 348.308757 
L 329.785946 347.544649 
L 328.177297 346.700108 
L 326.850162 345.533838 
L 325.482811 343.482811 
L 324.839351 341.351351 
L 324.718703 339.380757 
L 325.161081 337.209081 
L 326.005622 335.439568 
L 327.252324 333.911351 
L 329.182703 332.302703 
L 330.871784 330.653838 
L 331.957622 328.924541 
L 333.606486 325.144216 
L 335.939027 320.96173 
L 336.461838 319.232432 
L 336.864 317.181405 
L 337.628108 314.808649 
L 339.51827 311.470703 
L 340.523676 309.90227 
L 342.132324 308.374054 
L 344.143135 307.127351 
L 345.269189 306.282811 
L 346.153946 305.196973 
L 346.797405 304.030703 
L 346.877838 302.944865 
L 346.556108 300.934054 
L 345.671351 299.084108 
L 344.384432 297.515676 
L 342.695351 296.349405 
L 340.523676 295.585297 
L 338.512865 295.464649 
L 336.502054 295.907027 
L 332.761946 297.676541 
L 330.550054 298.279784 
L 328.137081 299.124324 
L 326.568649 299.928649 
L 324.919784 301.215568 
L 322.949189 302.582919 
L 320.81773 303.387243 
L 319.008 303.548108 
L 318.927568 303.507892 
L 318.444973 303.025297 
L 317.238486 301.255784 
L 316.595027 299.405838 
L 316.393946 296.630919 
L 316.916757 294.459243 
L 318.163459 291.925622 
L 318.002595 291.925622 
L 318.123243 291.925622 
L 319.128649 291.764757 
L 321.179676 291.000649 
L 322.828541 289.794162 
L 324.316541 288.185514 
L 325.321946 287.461622 
L 326.890378 285.772541 
L 327.694703 284.163892 
L 328.056649 282.957405 
L 328.056649 283.198703 
L 328.25773 283.399784 
L 328.579459 283.399784 
L 328.217514 283.319351 
L 328.096865 283.11827 
L 328.096865 282.917189 
L 328.539243 282.193297 
L 329.263135 280.986811 
L 330.188108 279.096649 
L 331.23373 277.488 
L 332.963027 275.839135 
L 334.290162 274.19027 
L 335.134703 272.340324 
L 335.456432 270.329514 
L 335.295568 268.519784 
L 334.611892 266.629622 
L 333.485838 264.940541 
L 331.756541 263.211243 
L 330.348973 261.12 
L 328.539243 256.615784 
L 327.252324 255.007135 
L 325.603459 253.68 
L 322.587243 251.628973 
L 320.616649 250.261622 
L 317.077622 248.371459 
L 314.946162 247.245405 
L 309.919135 243.666162 
L 302.438919 238.960865 
L 292.988108 233.290378 
L 289.56973 231.158919 
L 287.719784 229.510054 
L 286.191568 227.981838 
L 284.784 226.775351 
L 279.837405 223.115676 
L 274.448432 219.616865 
L 270.748541 217.445189 
L 238.052757 199.589189 
L 234.312649 197.538162 
L 226.309622 193.154595 
L 226.309622 193.154595 
" style="fill:none;stroke:#238af5;stroke-linecap:square;stroke-width:1.5;"/>
   </g>
   <g id="line2d_45">
    <path clip-path="url(#p9ac0c57c76)" d="M 224.821622 136.047568 
L 225.344432 136.047568 
L 226.671568 136.288865 
L 228.601946 137.052973 
L 230.411676 138.380108 
L 231.618162 139.787676 
L 237.851676 148.514595 
L 248.026378 162.348973 
L 251.806703 167.536865 
L 269.220324 191.304649 
L 270.185514 193.114378 
L 270.668108 195.527351 
L 270.627892 197.699027 
L 270.265946 199.951135 
L 268.898595 203.771676 
L 266.083459 211.573622 
L 264.675892 215.876757 
L 263.63027 220.019027 
L 262.866162 223.92 
L 262.906378 225.367784 
L 263.469405 226.172108 
L 264.354162 226.735135 
L 266.284541 227.177514 
L 268.335568 227.056865 
L 270.024649 226.534054 
L 272.236541 225.287351 
L 274.207135 224.362378 
L 276.419027 223.92 
L 280.360216 223.960216 
L 281.446054 223.437405 
L 282.934054 222.070054 
L 283.939459 220.62227 
L 284.824216 218.490811 
L 285.668757 216.761514 
L 286.714378 215.152865 
L 288.121946 213.664865 
L 289.449081 212.096432 
L 290.293622 210.246486 
L 290.776216 208.195459 
L 291.419676 206.38573 
L 292.666378 204.294486 
L 293.712 202.203243 
L 294.677189 199.066378 
L 295.240216 198.221838 
L 296.245622 197.377297 
L 297.894486 196.452324 
L 300.066162 195.849081 
L 306.902919 195.406703 
L 308.91373 195.205622 
L 311.447351 195.446919 
L 313.538595 196.291459 
L 315.107027 197.417514 
L 316.755892 199.347892 
L 319.008 202.444541 
L 319.571027 203.771676 
L 319.852541 205.782486 
L 319.490595 208.275892 
L 318.646054 210.326919 
L 316.434162 213.705081 
L 315.991784 214.67027 
L 315.830919 215.514811 
L 315.911351 216.761514 
L 316.434162 218.571243 
L 317.52 220.340757 
L 318.967784 221.748324 
L 320.777514 222.713514 
L 322.506811 223.155892 
L 325.040432 223.316757 
L 327.533838 223.92 
L 329.343568 224.844973 
L 333.445622 227.257946 
L 337.065081 229.510054 
L 342.49427 233.008865 
L 347.923459 236.99027 
L 351.261405 239.724973 
L 352.668973 240.931459 
L 356.167784 243.465081 
L 361.355676 247.687784 
L 365.980541 251.830054 
L 370.163027 256.012541 
L 372.89773 258.988541 
L 374.425946 260.516757 
L 375.833514 262.165622 
L 377.080216 263.975351 
L 377.924757 265.986162 
L 378.568216 267.996973 
L 380.860541 274.069622 
L 382.026811 278.211892 
L 382.992 282.394378 
L 383.715892 286.657297 
L 386.450595 307.971892 
L 386.088649 310.183784 
L 385.324541 312.073946 
L 384.399568 313.923892 
L 381.865946 317.503135 
L 380.860541 319.312865 
L 380.217081 321.323676 
L 380.136649 323.093189 
L 380.176865 325.224649 
L 380.579027 329.728865 
L 380.940973 331.820108 
L 381.504 333.830919 
L 382.187676 335.84173 
L 383.836541 339.782919 
L 393.367784 360.454054 
L 393.367784 360.454054 
" style="fill:none;stroke:#0cc1e8;stroke-linecap:square;stroke-width:1.5;"/>
   </g>
   <g id="line2d_46">
    <path clip-path="url(#p9ac0c57c76)" d="M 450.032432 304.955676 
L 449.791135 305.036108 
L 449.670486 305.277405 
L 449.670486 304.955676 
L 449.509622 304.272 
L 449.067243 303.427459 
L 448.061838 302.341622 
L 446.372757 301.255784 
L 444.402162 300.572108 
L 428.436324 297.354811 
L 415.567135 294.620108 
L 396.665514 290.678919 
L 375.109622 286.214919 
L 373.299892 286.295351 
L 371.369514 286.858378 
L 369.519568 287.904 
L 367.830486 289.030054 
L 364.090378 291.161514 
L 354.39827 296.429838 
L 350.979892 298.118919 
L 350.135351 298.32 
L 348.928865 298.32 
L 346.95827 297.797189 
L 344.987676 296.711351 
L 343.258378 294.901622 
L 342.212757 292.931027 
L 341.689946 290.759351 
L 341.689946 288.467027 
L 341.810595 286.054054 
L 342.49427 283.560649 
L 343.660541 281.63027 
L 345.068108 280.262919 
L 346.716973 279.177081 
L 347.883243 278.252108 
L 348.848432 277.005405 
L 349.652757 274.914162 
L 349.853838 273.144649 
L 349.491892 270.450162 
L 349.371243 270.289297 
L 348.808216 269.283892 
L 348.164757 267.594811 
L 347.682162 263.77427 
L 346.918054 261.562378 
L 345.671351 259.430919 
L 345.148541 258.144 
L 345.068108 257.782054 
L 344.022486 256.294054 
L 342.49427 254.966919 
L 340.403027 254.00173 
L 338.070486 253.519135 
L 335.939027 252.835459 
L 334.129297 251.910486 
L 332.038054 250.985514 
L 321.863351 248.693189 
L 319.691676 248.04973 
L 317.318919 246.923676 
L 315.227676 246.159568 
L 313.136432 245.91827 
L 311.045189 245.797622 
L 308.672432 245.194378 
L 306.742054 244.510703 
L 304.731243 243.947676 
L 303.001946 243.625946 
L 298.819459 242.580324 
L 296.768432 242.298811 
L 292.505514 242.499892 
L 290.575135 242.218378 
L 288.483892 241.45427 
L 284.663351 239.805405 
L 282.893838 239.202162 
L 280.681946 238.236973 
L 278.872216 236.99027 
L 276.982054 235.542486 
L 273.282162 233.411027 
L 269.58227 231.36 
L 267.410595 230.274162 
L 263.228108 228.585081 
L 261.217297 227.941622 
L 259.126054 227.418811 
L 257.075027 227.056865 
L 253.093622 226.694919 
L 249.112216 226.855784 
L 247.020973 227.137297 
L 244.92973 227.579676 
L 242.918919 228.142703 
L 238.857081 229.55027 
L 232.543135 231.078486 
L 228.360649 232.727351 
L 222.046703 235.663135 
L 209.378595 242.09773 
L 197.233297 248.371459 
L 197.233297 248.371459 
" style="fill:none;stroke:#3ae8d7;stroke-linecap:square;stroke-width:1.5;"/>
   </g>
   <g id="line2d_47">
    <path clip-path="url(#p9ac0c57c76)" d="M 140.367568 248.652973 
L 141.61427 248.652973 
L 145.917405 249.014919 
L 169.604757 251.669189 
L 175.999135 252.393081 
L 201.053838 255.208216 
L 207.126486 255.731027 
L 211.670919 256.253838 
L 213.963243 256.656 
L 216.255568 257.701622 
L 217.542486 258.747243 
L 218.950054 260.396108 
L 221.483676 263.894919 
L 222.368432 265.584 
L 223.132541 267.715459 
L 223.896649 270.771892 
L 224.499892 272.179459 
L 225.384649 273.305514 
L 226.872649 274.471784 
L 228.441081 275.155459 
L 233.468108 276 
L 236.725622 277.367351 
L 237.409297 277.729297 
L 240.988541 279.378162 
L 242.758054 280.262919 
L 246.659027 282.233514 
L 248.428541 282.917189 
L 250.640432 283.319351 
L 250.600216 283.319351 
L 251.525189 282.917189 
L 251.967568 283.238919 
L 253.133838 284.767135 
L 254.018595 286.576865 
L 255.948973 289.753946 
L 256.592432 291.603892 
L 257.075027 293.53427 
L 257.758703 295.66573 
L 258.844541 297.475459 
L 259.769514 299.446054 
L 260.131459 301.376432 
L 260.051027 303.588324 
L 259.367351 306.08173 
L 259.407568 306.041514 
L 259.80973 306.443676 
L 261.539027 307.770811 
L 265.480216 310.063135 
L 270.185514 313.52173 
L 271.593081 313.803243 
L 273.925622 313.722811 
L 275.856 313.079351 
L 277.746162 311.752216 
L 279.033081 310.183784 
L 279.837405 308.293622 
L 280.239568 306.323027 
L 280.963459 303.789405 
L 282.210162 301.657946 
L 283.175351 300.250378 
L 283.296 299.526486 
L 283.255784 297.837405 
L 282.732973 295.866811 
L 281.526486 293.896216 
L 280.239568 292.649514 
L 278.429838 291.523459 
L 276.298378 290.477838 
L 274.04627 290.035459 
L 272.236541 290.156108 
L 270.105081 290.960432 
L 268.818162 291.804973 
L 268.858378 291.724541 
L 268.858378 291.523459 
L 269.019243 291.885405 
L 269.783351 293.091892 
L 271.231135 294.499459 
L 273.040865 295.504865 
L 275.252757 296.027676 
L 277.303784 296.027676 
L 279.435243 296.268973 
L 283.577514 297.314595 
L 293.309838 299.124324 
L 295.280432 300.12973 
L 297.130378 301.336216 
L 298.980324 302.220973 
L 304.771459 303.708973 
L 311.407135 305.116541 
L 313.417946 305.679568 
L 315.468973 305.880649 
L 317.761297 305.880649 
L 320.254703 306.121946 
L 324.155676 306.966486 
L 325.925189 307.167568 
L 332.319568 306.966486 
L 334.370595 306.604541 
L 338.271568 305.599135 
L 342.293189 304.272 
L 344.062703 303.628541 
L 348.204973 301.818811 
L 352.508108 299.647135 
L 371.248865 289.271351 
L 383.394162 282.434595 
L 387.013622 280.14227 
L 390.271135 277.80973 
L 391.718919 276.643459 
L 391.718919 276.643459 
" style="fill:none;stroke:#68fcc1;stroke-linecap:square;stroke-width:1.5;"/>
   </g>
   <g id="line2d_48">
    <path clip-path="url(#p9ac0c57c76)" d="M 281.124324 192.35027 
L 281.446054 192.390486 
L 282.12973 192.631784 
L 282.813405 193.074162 
L 283.738378 194.119784 
L 284.301405 195.567568 
L 284.46227 197.618595 
L 284.381838 199.79027 
L 284.220973 201.881514 
L 284.140541 203.731459 
L 284.100324 205.862919 
L 284.019892 208.034595 
L 283.979676 209.884541 
L 283.939459 212.056216 
L 283.899243 214.187676 
L 283.859027 216.600649 
L 283.778595 218.732108 
L 283.738378 220.62227 
L 283.698162 223.035243 
L 283.61773 225.448216 
L 283.577514 227.579676 
L 283.537297 229.469838 
L 283.497081 231.601297 
L 283.456865 233.772973 
L 283.376432 235.904432 
L 283.336216 238.035892 
L 283.296 240.207568 
L 283.255784 242.339027 
L 283.175351 244.470486 
L 283.135135 246.883459 
L 283.094919 248.773622 
L 283.054703 250.623568 
L 283.014486 252.795243 
L 282.934054 254.926703 
L 282.893838 257.058162 
L 282.853622 259.229838 
L 282.813405 261.361297 
L 282.773189 262.969946 
L 282.692757 265.101405 
L 282.652541 266.991568 
L 282.612324 269.123027 
L 282.572108 271.294703 
L 282.531892 273.426162 
L 282.451459 275.557622 
L 282.411243 277.447784 
L 282.371027 279.579243 
L 282.330811 281.750919 
L 282.250378 283.882378 
L 282.210162 285.772541 
L 282.169946 288.185514 
L 282.12973 290.035459 
L 282.089514 291.925622 
L 282.009081 294.338595 
L 281.968865 296.470054 
L 281.928649 298.360216 
L 281.888432 300.250378 
L 281.848216 302.100324 
L 281.808 304.231784 
L 281.808 306.644757 
L 281.848216 308.776216 
L 281.888432 310.666378 
L 281.968865 312.556541 
L 282.089514 314.929297 
L 282.12973 317.664 
L 282.009081 319.513946 
L 281.928649 321.926919 
L 281.888432 324.098595 
L 281.687351 326.511568 
L 281.526486 328.643027 
L 281.365622 330.492973 
L 281.164541 332.664649 
" style="fill:none;stroke:#97fca7;stroke-linecap:square;stroke-width:1.5;"/>
   </g>
   <g id="line2d_49">
    <path clip-path="url(#p9ac0c57c76)" d="M 140.367568 304.955676 
L 141.574054 304.955676 
L 143.544649 304.794811 
L 145.676108 304.473081 
L 147.767351 304.111135 
L 149.617297 303.789405 
L 151.748757 303.427459 
L 153.84 303.065514 
L 155.971459 302.703568 
L 157.821405 302.381838 
L 159.912649 302.019892 
L 161.762595 301.698162 
L 163.894054 301.376432 
L 166.025514 301.014486 
L 168.116757 300.652541 
L 170.489514 300.250378 
L 172.620973 299.888432 
L 174.752432 299.526486 
L 176.843676 299.164541 
L 179.216432 298.762378 
L 181.347892 298.400432 
L 183.720649 297.99827 
L 185.852108 297.636324 
L 187.702054 297.354811 
L 189.552 297.033081 
L 191.643243 296.671135 
L 193.774703 296.309189 
L 196.147459 295.907027 
L 197.997405 295.585297 
L 199.445189 295.344 
L 200.772324 295.02227 
L 202.059243 294.620108 
L 203.225514 294.217946 
L 204.552649 293.735351 
L 206.040649 293.132108 
L 207.327568 292.649514 
L 209.177514 292.126703 
L 210.947027 291.804973 
L 212.636108 291.483243 
L 214.767568 291.322378 
L 216.979459 291.402811 
L 219.030486 291.563676 
L 221.202162 291.644108 
L 223.333622 291.764757 
L 225.505297 292.126703 
L 227.315027 292.649514 
L 229.325838 293.494054 
L 231.296432 294.459243 
L 233.226811 295.384216 
L 235.237622 296.148324 
L 237.529946 296.389622 
L 239.299459 296.148324 
L 241.712432 295.907027 
L 243.884108 296.067892 
L 245.975351 296.027676 
L 248.106811 295.866811 
L 250.278486 295.585297 
L 252.36973 295.504865 
L 254.259892 295.826595 
L 256.713081 296.51027 
L 258.723892 296.952649 
L 261.056432 296.992865 
L 262.866162 296.751568 
L 265.037838 296.51027 
L 267.450811 296.470054 
L 269.542054 296.389622 
L 271.673514 296.188541 
L 273.523459 295.987459 
L 275.333189 295.625514 
L 277.66573 295.02227 
L 279.475459 294.499459 
L 281.727568 293.775568 
L 283.497081 293.091892 
L 285.145946 292.287568 
L 287.237189 291.081081 
L 289.046919 289.995243 
L 290.937081 288.909405 
L 292.787027 287.823568 
L 294.636973 286.73773 
L 296.446703 285.611676 
L 298.537946 284.364973 
L 300.106378 283.44 
L 301.875892 282.233514 
L 303.363892 281.147676 
L 305.093189 279.900973 
L 307.063784 278.493405 
L 308.551784 277.367351 
" style="fill:none;stroke:#c5e88a;stroke-linecap:square;stroke-width:1.5;"/>
   </g>
   <g id="line2d_50">
    <path clip-path="url(#p9ac0c57c76)" d="M 393.72973 220.501622 
L 393.971027 220.582054 
L 394.091676 220.783135 
L 394.091676 221.426595 
L 393.850378 222.230919 
L 393.046054 223.558054 
L 391.59827 224.885189 
L 389.868973 225.810162 
L 387.214703 226.493838 
L 382.630054 227.177514 
L 373.983568 229.027459 
L 356.931892 232.52627 
L 344.062703 235.140324 
L 339.598703 236.105514 
L 337.748757 236.99027 
L 336.381405 238.116324 
L 335.215135 239.523892 
L 332.802162 242.982486 
L 327.131676 249.53773 
L 325.804541 250.543135 
L 323.512216 251.508324 
L 321.260108 251.749622 
L 319.32973 251.468108 
L 317.278703 250.623568 
L 315.589622 249.497514 
L 313.216865 248.210595 
L 311.286486 247.647568 
L 309.155027 246.803027 
L 307.184432 245.315027 
L 305.575784 243.58573 
L 305.656216 243.58573 
L 305.052973 243.58573 
L 303.766054 243.867243 
L 301.674811 244.792216 
L 299.462919 246.601946 
L 299.503135 246.360649 
L 299.302054 245.998703 
L 299.98573 246.400865 
L 301.795459 247.044324 
L 303.846486 247.205189 
L 306.098595 246.722595 
L 307.908324 245.717189 
L 309.275676 244.550919 
L 312.171243 242.499892 
L 312.171243 242.499892 
L 312.131027 242.580324 
L 312.211459 242.258595 
L 312.211459 240.971676 
L 311.487568 239.001081 
L 310.240865 237.352216 
L 308.752865 235.984865 
L 307.546378 234.577297 
L 305.656216 231.03827 
L 304.128 229.308973 
L 302.398703 228.223135 
L 300.468324 227.619892 
L 298.658595 227.539459 
L 296.929297 227.861189 
L 295.280432 228.544865 
L 293.470703 229.55027 
L 291.459892 230.475243 
L 287.639351 231.923027 
L 285.427459 232.405622 
L 282.652541 232.164324 
L 276.137514 229.791568 
L 271.673514 228.665514 
L 269.823568 227.820973 
L 267.651892 227.21773 
L 263.791135 227.097081 
L 259.528216 226.292757 
L 255.627243 226.57427 
L 253.093622 226.332973 
L 251.163243 225.649297 
L 249.152432 225.126486 
L 247.382919 225.126486 
L 245.130811 225.72973 
L 241.511351 227.579676 
L 237.851676 228.504649 
L 235.559351 229.55027 
L 233.709405 230.998054 
L 231.658378 232.325189 
L 225.424865 234.456649 
L 217.944649 238.076108 
L 141.895784 276.040216 
L 141.895784 276.040216 
" style="fill:none;stroke:#f3c16a;stroke-linecap:square;stroke-width:1.5;"/>
   </g>
   <g id="line2d_51">
    <path clip-path="url(#p9ac0c57c76)" d="M 140.367568 136.047568 
L 141.051243 136.047568 
L 142.820757 136.329081 
L 144.871784 137.133405 
L 146.681514 138.460541 
L 148.129297 139.988757 
L 149.376 141.436541 
L 150.662919 142.803892 
L 152.150919 144.291892 
L 153.638919 145.820108 
L 155.126919 147.388541 
L 156.614919 148.916757 
L 158.102919 150.485189 
L 159.792 152.214486 
L 161.078919 153.541622 
L 162.566919 155.110054 
L 164.054919 156.63827 
L 165.542919 158.166486 
L 167.030919 159.734919 
L 168.72 161.464216 
L 170.208 162.992432 
L 171.535135 164.359784 
L 172.822054 165.686919 
L 174.511135 167.416216 
L 175.999135 168.984649 
L 177.487135 170.512865 
L 178.975135 172.081297 
L 180.463135 173.609514 
L 181.951135 175.13773 
L 183.238054 176.505081 
L 184.76627 178.033297 
L 186.053189 179.400649 
L 187.340108 180.727784 
L 188.667243 182.095135 
L 189.954162 183.42227 
L 191.442162 184.990703 
L 192.769297 186.317838 
L 194.257297 187.88627 
L 195.544216 189.213405 
L 197.233297 190.942703 
L 198.721297 192.511135 
L 200.209297 194.039351 
L 201.697297 195.567568 
L 203.386378 197.337081 
L 204.874378 198.865297 
L 206.362378 200.393514 
L 208.051459 202.122811 
L 209.700324 203.892324 
L 211.188324 205.420541 
L 212.676324 206.948757 
L 214.003459 208.316108 
L 215.491459 209.844324 
L 216.979459 211.412757 
L 218.467459 212.940973 
L 220.156541 214.67027 
L 221.644541 216.198486 
L 223.132541 217.766919 
L 224.419459 219.094054 
L 225.907459 220.662486 
L 227.234595 221.989622 
L 228.722595 223.558054 
L 230.009514 224.885189 
L 231.698595 226.614486 
L 233.186595 228.182919 
L 234.674595 229.711135 
L 236.162595 231.239351 
L 237.650595 232.807784 
L 239.339676 234.537081 
L 240.827676 236.065297 
L 242.315676 237.63373 
L 243.602595 238.960865 
L 245.291676 240.690162 
L 246.578595 242.057514 
L 248.267676 243.786811 
L 249.755676 245.315027 
L 251.243676 246.883459 
L 252.731676 248.411676 
" style="fill:none;stroke:#ff8a48;stroke-linecap:square;stroke-width:1.5;"/>
   </g>
   <g id="line2d_52">
    <path clip-path="url(#p9ac0c57c76)" d="M 337.427027 164.198919 
L 337.668324 164.279351 
L 338.070486 164.802162 
L 338.432432 165.727135 
L 338.593297 167.05427 
L 338.271568 168.944432 
L 337.266162 170.955243 
L 336.099892 172.483459 
L 333.365189 175.781189 
L 326.649081 184.508108 
L 321.420973 191.304649 
L 313.538595 201.479351 
L 303.725838 214.227892 
L 297.00973 222.914595 
L 293.470703 227.700324 
L 292.706595 229.308973 
L 292.344649 231.078486 
L 292.384865 232.848 
L 292.787027 234.65773 
L 293.028324 236.748973 
L 292.746811 238.960865 
L 291.862054 241.011892 
L 290.494703 242.781405 
L 289.046919 244.028108 
L 287.558919 245.154162 
L 285.548108 246.119351 
L 283.61773 246.521514 
L 278.067892 246.521514 
L 278.067892 246.481297 
L 277.746162 246.963892 
L 276.901622 248.693189 
L 276.539676 250.704 
L 276.740757 252.996324 
L 277.263568 254.524541 
L 278.067892 256.33427 
L 279.676541 259.390703 
L 279.756973 260.034162 
L 279.234162 260.717838 
L 278.228757 261.843892 
L 278.108108 262.768865 
L 277.585297 264.659027 
L 276.499459 266.589405 
L 274.810378 268.358919 
L 273.402811 270.088216 
L 272.437622 272.058811 
L 271.110486 274.230486 
L 269.743135 275.67827 
L 265.238919 279.056432 
L 263.388973 280.14227 
L 261.217297 280.825946 
L 259.206486 281.308541 
L 255.225081 282.836757 
L 251.042595 283.560649 
L 249.152432 284.405189 
L 247.624216 285.732324 
L 246.256865 287.421405 
L 244.326486 289.432216 
L 242.114595 290.88 
L 240.505946 292.247351 
L 239.259243 293.896216 
L 238.012541 295.866811 
L 235.559351 299.084108 
L 234.232216 300.732973 
L 230.572541 305.920865 
L 227.274811 309.299027 
L 224.620541 312.998919 
L 216.858811 323.575784 
L 184.002162 368.336432 
L 176.401297 378.712216 
L 172.580757 383.900108 
L 168.760216 389.088 
L 168.760216 389.088 
" style="fill:none;stroke:#ff4824;stroke-linecap:square;stroke-width:1.5;"/>
   </g>
   <g id="line2d_53">
    <path clip-path="url(#p9ac0c57c76)" d="M 196.67027 445.712432 
L 196.992 445.712432 
L 198.238703 445.471135 
L 199.847351 444.747243 
L 201.496216 443.500541 
L 202.62227 442.133189 
L 214.124108 423.553297 
L 226.510703 403.766919 
L 230.170378 397.855135 
L 233.588757 392.38573 
L 243.280865 376.942703 
L 249.514378 368.095135 
L 251.203459 366.647351 
L 252.932757 365.722378 
L 259.005405 363.952865 
L 262.946595 363.068108 
L 264.756324 362.665946 
L 268.617081 361.620324 
L 278.912432 358.684541 
L 281.48627 357.920432 
L 283.336216 357.51827 
L 285.548108 357.558486 
L 289.449081 358.563892 
L 291.741405 358.563892 
L 293.752216 358.121514 
L 295.642378 357.960649 
L 297.85427 358.282378 
L 301.393297 359.689946 
L 303.685622 360.011676 
L 305.93773 359.64973 
L 306.983351 359.247568 
L 308.551784 357.558486 
L 309.195243 356.553081 
L 309.919135 355.145514 
L 310.40173 353.496649 
L 310.602811 351.244541 
L 310.964757 348.992432 
L 311.728865 346.740324 
L 313.176649 344.689297 
L 314.905946 343.28173 
L 316.956973 342.396973 
L 318.847135 341.994811 
L 320.697081 341.351351 
L 322.104649 340.30573 
L 322.30573 339.863351 
L 322.587243 337.651459 
L 322.345946 335.881946 
L 321.581838 333.991784 
L 320.17427 332.182054 
L 319.008 331.257081 
L 317.278703 330.291892 
L 316.35373 329.366919 
L 315.267892 327.718054 
L 314.544 325.626811 
L 314.383135 323.414919 
L 314.946162 320.96173 
L 315.670054 319.674811 
L 315.871135 319.634595 
L 317.158054 320.076973 
L 319.128649 320.31827 
L 320.898162 320.117189 
L 325.161081 318.709622 
L 327.292541 318.186811 
L 329.464216 317.34227 
L 331.193514 316.095568 
L 332.72173 314.808649 
L 336.381405 312.275027 
L 337.668324 310.907676 
L 338.915027 308.856649 
L 339.84 306.966486 
L 341.328 304.955676 
L 342.896432 303.628541 
L 344.143135 302.341622 
L 348.406054 295.142919 
L 349.250595 293.132108 
L 350.296216 291.161514 
L 351.542919 289.392 
L 352.387459 287.542054 
L 352.749405 285.531243 
L 352.588541 283.359568 
L 352.588541 281.187892 
L 353.272216 277.005405 
L 353.312432 274.954378 
L 353.593946 272.501189 
L 354.880865 268.399135 
L 355.202595 264.377514 
L 355.644973 262.205838 
L 356.489514 260.436324 
L 359.184 256.736432 
L 363.607784 247.888865 
L 367.589189 238.840216 
L 369.318486 234.617514 
L 370.002162 232.646919 
L 371.047784 228.544865 
L 372.937946 220.742919 
L 375.069405 212.136649 
L 393.528649 136.892108 
L 393.528649 136.892108 
" style="fill:none;stroke:#ff0000;stroke-linecap:square;stroke-width:1.5;"/>
   </g>
   <g id="patch_3">
    <path d="M 72 512.64 
L 72 69.12 
" style="fill:none;stroke:#000000;stroke-linecap:square;stroke-linejoin:miter;stroke-width:0.8;"/>
   </g>
   <g id="patch_4">
    <path d="M 518.4 512.64 
L 518.4 69.12 
" style="fill:none;stroke:#000000;stroke-linecap:square;stroke-linejoin:miter;stroke-width:0.8;"/>
   </g>
   <g id="patch_5">
    <path d="M 72 512.64 
L 518.4 512.64 
" style="fill:none;stroke:#000000;stroke-linecap:square;stroke-linejoin:miter;stroke-width:0.8;"/>
   </g>
   <g id="patch_6">
    <path d="M 72 69.12 
L 518.4 69.12 
" style="fill:none;stroke:#000000;stroke-linecap:square;stroke-linejoin:miter;stroke-width:0.8;"/>
   </g>
   <g id="text_13">
    <!-- 1 -->
    <defs>
     <path d="M 14.203125 0 
L 14.203125 5.171875 
L 26.90625 5.171875 
L 26.90625 65.828125 
L 12.203125 56.296875 
L 12.203125 62.703125 
L 29.984375 74.21875 
L 36.71875 74.21875 
L 36.71875 5.171875 
L 49.421875 5.171875 
L 49.421875 0 
z
" id="DejaVuSerif-31"/>
    </defs>
    <g transform="translate(137.186318 389.40973)scale(0.1 -0.1)">
     <use xlink:href="#DejaVuSerif-31"/>
    </g>
   </g>
   <g id="text_14">
    <!-- 1 -->
    <g transform="translate(390.54848 192.35027)scale(0.1 -0.1)">
     <use xlink:href="#DejaVuSerif-31"/>
    </g>
   </g>
   <g id="text_15">
    <!-- 2 -->
    <defs>
     <path d="M 12.796875 55.515625 
L 7.328125 55.515625 
L 7.328125 68.5 
Q 12.546875 71.296875 17.84375 72.75 
Q 23.140625 74.21875 28.21875 74.21875 
Q 39.59375 74.21875 46.1875 68.703125 
Q 52.78125 63.1875 52.78125 53.71875 
Q 52.78125 43.015625 37.84375 28.125 
Q 36.671875 27 36.078125 26.421875 
L 17.671875 8.015625 
L 48.09375 8.015625 
L 48.09375 17 
L 53.8125 17 
L 53.8125 0 
L 6.78125 0 
L 6.78125 5.328125 
L 28.90625 27.390625 
Q 36.234375 34.71875 39.359375 40.84375 
Q 42.484375 46.96875 42.484375 53.71875 
Q 42.484375 61.078125 38.640625 65.234375 
Q 34.8125 69.390625 28.078125 69.390625 
Q 21.09375 69.390625 17.28125 65.921875 
Q 13.484375 62.453125 12.796875 55.515625 
z
" id="DejaVuSerif-32"/>
    </defs>
    <g transform="translate(446.851182 192.35027)scale(0.1 -0.1)">
     <use xlink:href="#DejaVuSerif-32"/>
    </g>
   </g>
   <g id="text_16">
    <!-- 2 -->
    <g transform="translate(221.640372 361.258378)scale(0.1 -0.1)">
     <use xlink:href="#DejaVuSerif-32"/>
    </g>
   </g>
   <g id="text_17">
    <!-- 3 -->
    <defs>
     <path d="M 9.71875 69.828125 
Q 15.4375 71.96875 20.671875 73.09375 
Q 25.921875 74.21875 30.515625 74.21875 
Q 41.21875 74.21875 47.21875 69.59375 
Q 53.21875 64.984375 53.21875 56.78125 
Q 53.21875 50.203125 49.0625 45.78125 
Q 44.921875 41.359375 37.3125 39.796875 
Q 46.296875 38.53125 51.25 33.28125 
Q 56.203125 28.03125 56.203125 19.671875 
Q 56.203125 9.46875 49.34375 4.015625 
Q 42.484375 -1.421875 29.59375 -1.421875 
Q 23.875 -1.421875 18.421875 -0.1875 
Q 12.984375 1.03125 7.625 3.515625 
L 7.625 17.671875 
L 13.09375 17.671875 
Q 13.578125 10.640625 17.828125 7.03125 
Q 22.078125 3.421875 29.78125 3.421875 
Q 37.25 3.421875 41.578125 7.734375 
Q 45.90625 12.0625 45.90625 19.578125 
Q 45.90625 28.171875 41.453125 32.59375 
Q 37.015625 37.015625 28.421875 37.015625 
L 23.78125 37.015625 
L 23.78125 42 
L 26.21875 42 
Q 34.765625 42 39.03125 45.53125 
Q 43.3125 49.078125 43.3125 56.203125 
Q 43.3125 62.59375 39.796875 65.984375 
Q 36.28125 69.390625 29.6875 69.390625 
Q 23.09375 69.390625 19.453125 66.265625 
Q 15.828125 63.140625 15.1875 56.984375 
L 9.71875 56.984375 
z
" id="DejaVuSerif-33"/>
    </defs>
    <g transform="translate(398.993885 440.082162)scale(0.1 -0.1)">
     <use xlink:href="#DejaVuSerif-33"/>
    </g>
   </g>
   <g id="text_18">
    <!-- 3 -->
    <g transform="translate(221.640372 192.35027)scale(0.1 -0.1)">
     <use xlink:href="#DejaVuSerif-33"/>
    </g>
   </g>
   <g id="text_19">
    <!-- 4 -->
    <defs>
     <path d="M 34.90625 24.703125 
L 34.90625 63.484375 
L 10.015625 24.703125 
z
M 56.390625 0 
L 23.1875 0 
L 23.1875 5.171875 
L 34.90625 5.171875 
L 34.90625 19.484375 
L 3.078125 19.484375 
L 3.078125 24.8125 
L 35.015625 74.21875 
L 44.671875 74.21875 
L 44.671875 24.703125 
L 58.59375 24.703125 
L 58.59375 19.484375 
L 44.671875 19.484375 
L 44.671875 5.171875 
L 56.390625 5.171875 
z
" id="DejaVuSerif-34"/>
    </defs>
    <g transform="translate(221.640372 136.047568)scale(0.1 -0.1)">
     <use xlink:href="#DejaVuSerif-34"/>
    </g>
   </g>
   <g id="text_20">
    <!-- 4 -->
    <g transform="translate(390.54848 361.258378)scale(0.1 -0.1)">
     <use xlink:href="#DejaVuSerif-34"/>
    </g>
   </g>
   <g id="text_21">
    <!-- 5 -->
    <defs>
     <path d="M 50.296875 72.90625 
L 50.296875 64.890625 
L 16.890625 64.890625 
L 16.890625 44 
Q 19.4375 45.75 22.828125 46.625 
Q 26.21875 47.515625 30.421875 47.515625 
Q 42.234375 47.515625 49.0625 40.96875 
Q 55.90625 34.421875 55.90625 23.09375 
Q 55.90625 11.53125 49 5.046875 
Q 42.09375 -1.421875 29.59375 -1.421875 
Q 24.5625 -1.421875 19.28125 -0.1875 
Q 14.015625 1.03125 8.5 3.515625 
L 8.5 17.671875 
L 14.015625 17.671875 
Q 14.453125 10.75 18.421875 7.078125 
Q 22.40625 3.421875 29.59375 3.421875 
Q 37.3125 3.421875 41.453125 8.5 
Q 45.609375 13.578125 45.609375 23.09375 
Q 45.609375 32.5625 41.484375 37.609375 
Q 37.359375 42.671875 29.59375 42.671875 
Q 25.203125 42.671875 21.84375 41.109375 
Q 18.5 39.546875 15.921875 36.28125 
L 11.71875 36.28125 
L 11.71875 72.90625 
z
" id="DejaVuSerif-35"/>
    </defs>
    <g transform="translate(446.851182 304.955676)scale(0.1 -0.1)">
     <use xlink:href="#DejaVuSerif-35"/>
    </g>
   </g>
   <g id="text_22">
    <!-- 5 -->
    <g transform="translate(193.48902 248.652973)scale(0.1 -0.1)">
     <use xlink:href="#DejaVuSerif-35"/>
    </g>
   </g>
   <g id="text_23">
    <!-- 6 -->
    <defs>
     <path d="M 32.71875 3.421875 
Q 39.59375 3.421875 43.296875 8.46875 
Q 47.015625 13.53125 47.015625 23 
Q 47.015625 32.46875 43.296875 37.515625 
Q 39.59375 42.578125 32.71875 42.578125 
Q 25.734375 42.578125 22.0625 37.6875 
Q 18.40625 32.8125 18.40625 23.578125 
Q 18.40625 13.875 22.109375 8.640625 
Q 25.828125 3.421875 32.71875 3.421875 
z
M 16.796875 40.140625 
Q 20.125 43.796875 24.3125 45.59375 
Q 28.515625 47.40625 33.796875 47.40625 
Q 44.671875 47.40625 51 40.859375 
Q 57.328125 34.328125 57.328125 23 
Q 57.328125 11.921875 50.515625 5.25 
Q 43.703125 -1.421875 32.328125 -1.421875 
Q 19.96875 -1.421875 13.328125 7.78125 
Q 6.6875 17 6.6875 34.078125 
Q 6.6875 53.21875 14.546875 63.71875 
Q 22.40625 74.21875 36.71875 74.21875 
Q 40.578125 74.21875 44.828125 73.484375 
Q 49.078125 72.75 53.515625 71.296875 
L 53.515625 59.28125 
L 48 59.28125 
Q 47.40625 64.203125 44.234375 66.796875 
Q 41.0625 69.390625 35.6875 69.390625 
Q 26.21875 69.390625 21.578125 62.203125 
Q 16.9375 55.03125 16.796875 40.140625 
z
" id="DejaVuSerif-36"/>
    </defs>
    <g transform="translate(137.186318 248.652973)scale(0.1 -0.1)">
     <use xlink:href="#DejaVuSerif-36"/>
    </g>
   </g>
   <g id="text_24">
    <!-- 6 -->
    <g transform="translate(390.54848 276.804324)scale(0.1 -0.1)">
     <use xlink:href="#DejaVuSerif-36"/>
    </g>
   </g>
   <g id="text_25">
    <!-- 7 -->
    <defs>
     <path d="M 56.390625 67.921875 
L 27.875 0 
L 20.609375 0 
L 47.796875 64.890625 
L 14.109375 64.890625 
L 14.109375 55.90625 
L 8.40625 55.90625 
L 8.40625 72.90625 
L 56.390625 72.90625 
z
" id="DejaVuSerif-37"/>
    </defs>
    <g transform="translate(277.943074 192.35027)scale(0.1 -0.1)">
     <use xlink:href="#DejaVuSerif-37"/>
    </g>
   </g>
   <g id="text_26">
    <!-- 7 -->
    <g transform="translate(277.943074 333.107027)scale(0.1 -0.1)">
     <use xlink:href="#DejaVuSerif-37"/>
    </g>
   </g>
   <g id="text_27">
    <!-- 8 -->
    <defs>
     <path d="M 46.578125 19.921875 
Q 46.578125 27.734375 42.6875 32.046875 
Q 38.8125 36.375 31.78125 36.375 
Q 24.75 36.375 20.875 32.046875 
Q 17 27.734375 17 19.921875 
Q 17 12.0625 20.875 7.734375 
Q 24.75 3.421875 31.78125 3.421875 
Q 38.8125 3.421875 42.6875 7.734375 
Q 46.578125 12.0625 46.578125 19.921875 
z
M 44.578125 55.328125 
Q 44.578125 61.96875 41.203125 65.671875 
Q 37.84375 69.390625 31.78125 69.390625 
Q 25.78125 69.390625 22.390625 65.671875 
Q 19 61.96875 19 55.328125 
Q 19 48.640625 22.390625 44.921875 
Q 25.78125 41.21875 31.78125 41.21875 
Q 37.84375 41.21875 41.203125 44.921875 
Q 44.578125 48.640625 44.578125 55.328125 
z
M 39.3125 38.8125 
Q 47.609375 37.703125 52.25 32.6875 
Q 56.890625 27.6875 56.890625 19.921875 
Q 56.890625 9.671875 50.390625 4.125 
Q 43.890625 -1.421875 31.78125 -1.421875 
Q 19.734375 -1.421875 13.203125 4.125 
Q 6.6875 9.671875 6.6875 19.921875 
Q 6.6875 27.6875 11.328125 32.6875 
Q 15.96875 37.703125 24.3125 38.8125 
Q 16.9375 40.140625 13 44.40625 
Q 9.078125 48.6875 9.078125 55.328125 
Q 9.078125 64.109375 15.125 69.15625 
Q 21.1875 74.21875 31.78125 74.21875 
Q 42.390625 74.21875 48.4375 69.15625 
Q 54.5 64.109375 54.5 55.328125 
Q 54.5 48.6875 50.5625 44.40625 
Q 46.625 40.140625 39.3125 38.8125 
z
" id="DejaVuSerif-38"/>
    </defs>
    <g transform="translate(137.186318 304.955676)scale(0.1 -0.1)">
     <use xlink:href="#DejaVuSerif-38"/>
    </g>
   </g>
   <g id="text_28">
    <!-- 8 -->
    <g transform="translate(306.094426 276.804324)scale(0.1 -0.1)">
     <use xlink:href="#DejaVuSerif-38"/>
    </g>
   </g>
   <g id="text_29">
    <!-- 9 -->
    <defs>
     <path d="M 46.78125 32.671875 
Q 43.5 29 39.25 27.1875 
Q 35.015625 25.390625 29.6875 25.390625 
Q 18.84375 25.390625 12.5625 31.9375 
Q 6.296875 38.484375 6.296875 49.8125 
Q 6.296875 60.890625 13.109375 67.546875 
Q 19.921875 74.21875 31.296875 74.21875 
Q 43.65625 74.21875 50.265625 65.015625 
Q 56.890625 55.8125 56.890625 38.71875 
Q 56.890625 19.578125 49.015625 9.078125 
Q 41.15625 -1.421875 26.90625 -1.421875 
Q 23.046875 -1.421875 18.796875 -0.6875 
Q 14.546875 0.046875 10.109375 1.515625 
L 10.109375 13.625 
L 15.578125 13.625 
Q 16.21875 8.6875 19.390625 6.046875 
Q 22.5625 3.421875 27.875 3.421875 
Q 37.359375 3.421875 41.984375 10.5625 
Q 46.625 17.71875 46.78125 32.671875 
z
M 30.90625 69.390625 
Q 23.96875 69.390625 20.28125 64.328125 
Q 16.609375 59.28125 16.609375 49.8125 
Q 16.609375 40.328125 20.28125 35.25 
Q 23.96875 30.171875 30.90625 30.171875 
Q 37.84375 30.171875 41.53125 35.078125 
Q 45.21875 39.984375 45.21875 49.21875 
Q 45.21875 58.9375 41.5 64.15625 
Q 37.796875 69.390625 30.90625 69.390625 
z
" id="DejaVuSerif-39"/>
    </defs>
    <g transform="translate(390.54848 220.501622)scale(0.1 -0.1)">
     <use xlink:href="#DejaVuSerif-39"/>
    </g>
   </g>
   <g id="text_30">
    <!-- 9 -->
    <g transform="translate(137.186318 276.804324)scale(0.1 -0.1)">
     <use xlink:href="#DejaVuSerif-39"/>
    </g>
   </g>
   <g id="text_31">
    <!-- 10 -->
    <defs>
     <path d="M 31.78125 3.421875 
Q 39.265625 3.421875 42.96875 11.625 
Q 46.6875 19.828125 46.6875 36.375 
Q 46.6875 52.984375 42.96875 61.1875 
Q 39.265625 69.390625 31.78125 69.390625 
Q 24.3125 69.390625 20.59375 61.1875 
Q 16.890625 52.984375 16.890625 36.375 
Q 16.890625 19.828125 20.59375 11.625 
Q 24.3125 3.421875 31.78125 3.421875 
z
M 31.78125 -1.421875 
Q 19.921875 -1.421875 13.25 8.53125 
Q 6.59375 18.5 6.59375 36.375 
Q 6.59375 54.296875 13.25 64.25 
Q 19.921875 74.21875 31.78125 74.21875 
Q 43.703125 74.21875 50.34375 64.25 
Q 56.984375 54.296875 56.984375 36.375 
Q 56.984375 18.5 50.34375 8.53125 
Q 43.703125 -1.421875 31.78125 -1.421875 
z
" id="DejaVuSerif-30"/>
    </defs>
    <g transform="translate(134.005068 136.047568)scale(0.1 -0.1)">
     <use xlink:href="#DejaVuSerif-31"/>
     <use x="63.623047" xlink:href="#DejaVuSerif-30"/>
    </g>
   </g>
   <g id="text_32">
    <!-- 10 -->
    <g transform="translate(246.610473 248.652973)scale(0.1 -0.1)">
     <use xlink:href="#DejaVuSerif-31"/>
     <use x="63.623047" xlink:href="#DejaVuSerif-30"/>
    </g>
   </g>
   <g id="text_33">
    <!-- 11 -->
    <g transform="translate(331.064527 164.198919)scale(0.1 -0.1)">
     <use xlink:href="#DejaVuSerif-31"/>
     <use x="63.623047" xlink:href="#DejaVuSerif-31"/>
    </g>
   </g>
   <g id="text_34">
    <!-- 11 -->
    <g transform="translate(162.156419 389.40973)scale(0.1 -0.1)">
     <use xlink:href="#DejaVuSerif-31"/>
     <use x="63.623047" xlink:href="#DejaVuSerif-31"/>
    </g>
   </g>
   <g id="text_35">
    <!-- 12 -->
    <g transform="translate(190.30777 445.712432)scale(0.1 -0.1)">
     <use xlink:href="#DejaVuSerif-31"/>
     <use x="63.623047" xlink:href="#DejaVuSerif-32"/>
    </g>
   </g>
   <g id="text_36">
    <!-- 12 -->
    <g transform="translate(387.36723 136.047568)scale(0.1 -0.1)">
     <use xlink:href="#DejaVuSerif-31"/>
     <use x="63.623047" xlink:href="#DejaVuSerif-32"/>
    </g>
   </g>
   <g id="text_37">
    <!-- MRPP -->
    <defs>
     <path d="M 9.8125 72.90625 
L 24.515625 72.90625 
L 43.109375 23.296875 
L 61.8125 72.90625 
L 76.515625 72.90625 
L 76.515625 0 
L 66.890625 0 
L 66.890625 64.015625 
L 48.09375 14.015625 
L 38.1875 14.015625 
L 19.390625 64.015625 
L 19.390625 0 
L 9.8125 0 
z
" id="DejaVuSans-4d"/>
     <path d="M 44.390625 34.1875 
Q 47.5625 33.109375 50.5625 29.59375 
Q 53.5625 26.078125 56.59375 19.921875 
L 66.609375 0 
L 56 0 
L 46.6875 18.703125 
Q 43.0625 26.03125 39.671875 28.421875 
Q 36.28125 30.8125 30.421875 30.8125 
L 19.671875 30.8125 
L 19.671875 0 
L 9.8125 0 
L 9.8125 72.90625 
L 32.078125 72.90625 
Q 44.578125 72.90625 50.734375 67.671875 
Q 56.890625 62.453125 56.890625 51.90625 
Q 56.890625 45.015625 53.6875 40.46875 
Q 50.484375 35.9375 44.390625 34.1875 
z
M 19.671875 64.796875 
L 19.671875 38.921875 
L 32.078125 38.921875 
Q 39.203125 38.921875 42.84375 42.21875 
Q 46.484375 45.515625 46.484375 51.90625 
Q 46.484375 58.296875 42.84375 61.546875 
Q 39.203125 64.796875 32.078125 64.796875 
z
" id="DejaVuSans-52"/>
     <path d="M 19.671875 64.796875 
L 19.671875 37.40625 
L 32.078125 37.40625 
Q 38.96875 37.40625 42.71875 40.96875 
Q 46.484375 44.53125 46.484375 51.125 
Q 46.484375 57.671875 42.71875 61.234375 
Q 38.96875 64.796875 32.078125 64.796875 
z
M 9.8125 72.90625 
L 32.078125 72.90625 
Q 44.34375 72.90625 50.609375 67.359375 
Q 56.890625 61.8125 56.890625 51.125 
Q 56.890625 40.328125 50.609375 34.8125 
Q 44.34375 29.296875 32.078125 29.296875 
L 19.671875 29.296875 
L 19.671875 0 
L 9.8125 0 
z
" id="DejaVuSans-50"/>
    </defs>
    <g transform="translate(278.618437 63.12)scale(0.12 -0.12)">
     <use xlink:href="#DejaVuSans-4d"/>
     <use x="86.279297" xlink:href="#DejaVuSans-52"/>
     <use x="155.761719" xlink:href="#DejaVuSans-50"/>
     <use x="216.064453" xlink:href="#DejaVuSans-50"/>
    </g>
   </g>
  </g>
 </g>
 <defs>
  <clipPath id="p9ac0c57c76">
   <rect height="443.52" width="446.4" x="72" y="69.12"/>
  </clipPath>
 </defs>
</svg>
