<?xml version="1.0" encoding="utf-8" standalone="no"?>
<!DOCTYPE svg PUBLIC "-//W3C//DTD SVG 1.1//EN"
  "http://www.w3.org/Graphics/SVG/1.1/DTD/svg11.dtd">
<!-- Created with matplotlib (http://matplotlib.org/) -->
<svg height="576pt" version="1.1" viewBox="0 0 576 576" width="576pt" xmlns="http://www.w3.org/2000/svg" xmlns:xlink="http://www.w3.org/1999/xlink">
 <defs>
  <style type="text/css">
*{stroke-linecap:butt;stroke-linejoin:round;}
  </style>
 </defs>
 <g id="figure_1">
  <g id="patch_1">
   <path d="M 0 576 
L 576 576 
L 576 0 
L 0 0 
z
" style="fill:#ffffff;"/>
  </g>
  <g id="axes_1">
   <g id="patch_2">
    <path d="M 72 512.64 
L 518.4 512.64 
L 518.4 69.12 
L 72 69.12 
z
" style="fill:#ffffff;"/>
   </g>
   <g id="matplotlib.axis_1">
    <g id="xtick_1">
     <g id="line2d_1">
      <defs>
       <path d="M 0 0 
L 0 3.5 
" id="md06b720447" style="stroke:#000000;stroke-width:0.8;"/>
      </defs>
      <g>
       <use style="stroke:#000000;stroke-width:0.8;" x="112.216216" xlink:href="#md06b720447" y="512.64"/>
      </g>
     </g>
     <g id="text_1">
      <!-- 0 -->
      <defs>
       <path d="M 31.78125 66.40625 
Q 24.171875 66.40625 20.328125 58.90625 
Q 16.5 51.421875 16.5 36.375 
Q 16.5 21.390625 20.328125 13.890625 
Q 24.171875 6.390625 31.78125 6.390625 
Q 39.453125 6.390625 43.28125 13.890625 
Q 47.125 21.390625 47.125 36.375 
Q 47.125 51.421875 43.28125 58.90625 
Q 39.453125 66.40625 31.78125 66.40625 
z
M 31.78125 74.21875 
Q 44.046875 74.21875 50.515625 64.515625 
Q 56.984375 54.828125 56.984375 36.375 
Q 56.984375 17.96875 50.515625 8.265625 
Q 44.046875 -1.421875 31.78125 -1.421875 
Q 19.53125 -1.421875 13.0625 8.265625 
Q 6.59375 17.96875 6.59375 36.375 
Q 6.59375 54.828125 13.0625 64.515625 
Q 19.53125 74.21875 31.78125 74.21875 
z
" id="DejaVuSans-30"/>
      </defs>
      <g transform="translate(109.034966 527.238438)scale(0.1 -0.1)">
       <use xlink:href="#DejaVuSans-30"/>
      </g>
     </g>
    </g>
    <g id="xtick_2">
     <g id="line2d_2">
      <g>
       <use style="stroke:#000000;stroke-width:0.8;" x="192.648649" xlink:href="#md06b720447" y="512.64"/>
      </g>
     </g>
     <g id="text_2">
      <!-- 2 -->
      <defs>
       <path d="M 19.1875 8.296875 
L 53.609375 8.296875 
L 53.609375 0 
L 7.328125 0 
L 7.328125 8.296875 
Q 12.9375 14.109375 22.625 23.890625 
Q 32.328125 33.6875 34.8125 36.53125 
Q 39.546875 41.84375 41.421875 45.53125 
Q 43.3125 49.21875 43.3125 52.78125 
Q 43.3125 58.59375 39.234375 62.25 
Q 35.15625 65.921875 28.609375 65.921875 
Q 23.96875 65.921875 18.8125 64.3125 
Q 13.671875 62.703125 7.8125 59.421875 
L 7.8125 69.390625 
Q 13.765625 71.78125 18.9375 73 
Q 24.125 74.21875 28.421875 74.21875 
Q 39.75 74.21875 46.484375 68.546875 
Q 53.21875 62.890625 53.21875 53.421875 
Q 53.21875 48.921875 51.53125 44.890625 
Q 49.859375 40.875 45.40625 35.40625 
Q 44.1875 33.984375 37.640625 27.21875 
Q 31.109375 20.453125 19.1875 8.296875 
z
" id="DejaVuSans-32"/>
      </defs>
      <g transform="translate(189.467399 527.238438)scale(0.1 -0.1)">
       <use xlink:href="#DejaVuSans-32"/>
      </g>
     </g>
    </g>
    <g id="xtick_3">
     <g id="line2d_3">
      <g>
       <use style="stroke:#000000;stroke-width:0.8;" x="273.081081" xlink:href="#md06b720447" y="512.64"/>
      </g>
     </g>
     <g id="text_3">
      <!-- 4 -->
      <defs>
       <path d="M 37.796875 64.3125 
L 12.890625 25.390625 
L 37.796875 25.390625 
z
M 35.203125 72.90625 
L 47.609375 72.90625 
L 47.609375 25.390625 
L 58.015625 25.390625 
L 58.015625 17.1875 
L 47.609375 17.1875 
L 47.609375 0 
L 37.796875 0 
L 37.796875 17.1875 
L 4.890625 17.1875 
L 4.890625 26.703125 
z
" id="DejaVuSans-34"/>
      </defs>
      <g transform="translate(269.899831 527.238438)scale(0.1 -0.1)">
       <use xlink:href="#DejaVuSans-34"/>
      </g>
     </g>
    </g>
    <g id="xtick_4">
     <g id="line2d_4">
      <g>
       <use style="stroke:#000000;stroke-width:0.8;" x="353.513514" xlink:href="#md06b720447" y="512.64"/>
      </g>
     </g>
     <g id="text_4">
      <!-- 6 -->
      <defs>
       <path d="M 33.015625 40.375 
Q 26.375 40.375 22.484375 35.828125 
Q 18.609375 31.296875 18.609375 23.390625 
Q 18.609375 15.53125 22.484375 10.953125 
Q 26.375 6.390625 33.015625 6.390625 
Q 39.65625 6.390625 43.53125 10.953125 
Q 47.40625 15.53125 47.40625 23.390625 
Q 47.40625 31.296875 43.53125 35.828125 
Q 39.65625 40.375 33.015625 40.375 
z
M 52.59375 71.296875 
L 52.59375 62.3125 
Q 48.875 64.0625 45.09375 64.984375 
Q 41.3125 65.921875 37.59375 65.921875 
Q 27.828125 65.921875 22.671875 59.328125 
Q 17.53125 52.734375 16.796875 39.40625 
Q 19.671875 43.65625 24.015625 45.921875 
Q 28.375 48.1875 33.59375 48.1875 
Q 44.578125 48.1875 50.953125 41.515625 
Q 57.328125 34.859375 57.328125 23.390625 
Q 57.328125 12.15625 50.6875 5.359375 
Q 44.046875 -1.421875 33.015625 -1.421875 
Q 20.359375 -1.421875 13.671875 8.265625 
Q 6.984375 17.96875 6.984375 36.375 
Q 6.984375 53.65625 15.1875 63.9375 
Q 23.390625 74.21875 37.203125 74.21875 
Q 40.921875 74.21875 44.703125 73.484375 
Q 48.484375 72.75 52.59375 71.296875 
z
" id="DejaVuSans-36"/>
      </defs>
      <g transform="translate(350.332264 527.238438)scale(0.1 -0.1)">
       <use xlink:href="#DejaVuSans-36"/>
      </g>
     </g>
    </g>
    <g id="xtick_5">
     <g id="line2d_5">
      <g>
       <use style="stroke:#000000;stroke-width:0.8;" x="433.945946" xlink:href="#md06b720447" y="512.64"/>
      </g>
     </g>
     <g id="text_5">
      <!-- 8 -->
      <defs>
       <path d="M 31.78125 34.625 
Q 24.75 34.625 20.71875 30.859375 
Q 16.703125 27.09375 16.703125 20.515625 
Q 16.703125 13.921875 20.71875 10.15625 
Q 24.75 6.390625 31.78125 6.390625 
Q 38.8125 6.390625 42.859375 10.171875 
Q 46.921875 13.96875 46.921875 20.515625 
Q 46.921875 27.09375 42.890625 30.859375 
Q 38.875 34.625 31.78125 34.625 
z
M 21.921875 38.8125 
Q 15.578125 40.375 12.03125 44.71875 
Q 8.5 49.078125 8.5 55.328125 
Q 8.5 64.0625 14.71875 69.140625 
Q 20.953125 74.21875 31.78125 74.21875 
Q 42.671875 74.21875 48.875 69.140625 
Q 55.078125 64.0625 55.078125 55.328125 
Q 55.078125 49.078125 51.53125 44.71875 
Q 48 40.375 41.703125 38.8125 
Q 48.828125 37.15625 52.796875 32.3125 
Q 56.78125 27.484375 56.78125 20.515625 
Q 56.78125 9.90625 50.3125 4.234375 
Q 43.84375 -1.421875 31.78125 -1.421875 
Q 19.734375 -1.421875 13.25 4.234375 
Q 6.78125 9.90625 6.78125 20.515625 
Q 6.78125 27.484375 10.78125 32.3125 
Q 14.796875 37.15625 21.921875 38.8125 
z
M 18.3125 54.390625 
Q 18.3125 48.734375 21.84375 45.5625 
Q 25.390625 42.390625 31.78125 42.390625 
Q 38.140625 42.390625 41.71875 45.5625 
Q 45.3125 48.734375 45.3125 54.390625 
Q 45.3125 60.0625 41.71875 63.234375 
Q 38.140625 66.40625 31.78125 66.40625 
Q 25.390625 66.40625 21.84375 63.234375 
Q 18.3125 60.0625 18.3125 54.390625 
z
" id="DejaVuSans-38"/>
      </defs>
      <g transform="translate(430.764696 527.238438)scale(0.1 -0.1)">
       <use xlink:href="#DejaVuSans-38"/>
      </g>
     </g>
    </g>
    <g id="xtick_6">
     <g id="line2d_6">
      <g>
       <use style="stroke:#000000;stroke-width:0.8;" x="514.378378" xlink:href="#md06b720447" y="512.64"/>
      </g>
     </g>
     <g id="text_6">
      <!-- 10 -->
      <defs>
       <path d="M 12.40625 8.296875 
L 28.515625 8.296875 
L 28.515625 63.921875 
L 10.984375 60.40625 
L 10.984375 69.390625 
L 28.421875 72.90625 
L 38.28125 72.90625 
L 38.28125 8.296875 
L 54.390625 8.296875 
L 54.390625 0 
L 12.40625 0 
z
" id="DejaVuSans-31"/>
      </defs>
      <g transform="translate(508.015878 527.238438)scale(0.1 -0.1)">
       <use xlink:href="#DejaVuSans-31"/>
       <use x="63.623047" xlink:href="#DejaVuSans-30"/>
      </g>
     </g>
    </g>
   </g>
   <g id="matplotlib.axis_2">
    <g id="ytick_1">
     <g id="line2d_7">
      <defs>
       <path d="M 0 0 
L -3.5 0 
" id="m5fee09af02" style="stroke:#000000;stroke-width:0.8;"/>
      </defs>
      <g>
       <use style="stroke:#000000;stroke-width:0.8;" x="72" xlink:href="#m5fee09af02" y="473.863784"/>
      </g>
     </g>
     <g id="text_7">
      <!-- 0 -->
      <g transform="translate(58.6375 477.663003)scale(0.1 -0.1)">
       <use xlink:href="#DejaVuSans-30"/>
      </g>
     </g>
    </g>
    <g id="ytick_2">
     <g id="line2d_8">
      <g>
       <use style="stroke:#000000;stroke-width:0.8;" x="72" xlink:href="#m5fee09af02" y="393.431351"/>
      </g>
     </g>
     <g id="text_8">
      <!-- 2 -->
      <g transform="translate(58.6375 397.23057)scale(0.1 -0.1)">
       <use xlink:href="#DejaVuSans-32"/>
      </g>
     </g>
    </g>
    <g id="ytick_3">
     <g id="line2d_9">
      <g>
       <use style="stroke:#000000;stroke-width:0.8;" x="72" xlink:href="#m5fee09af02" y="312.998919"/>
      </g>
     </g>
     <g id="text_9">
      <!-- 4 -->
      <g transform="translate(58.6375 316.798138)scale(0.1 -0.1)">
       <use xlink:href="#DejaVuSans-34"/>
      </g>
     </g>
    </g>
    <g id="ytick_4">
     <g id="line2d_10">
      <g>
       <use style="stroke:#000000;stroke-width:0.8;" x="72" xlink:href="#m5fee09af02" y="232.566486"/>
      </g>
     </g>
     <g id="text_10">
      <!-- 6 -->
      <g transform="translate(58.6375 236.365705)scale(0.1 -0.1)">
       <use xlink:href="#DejaVuSans-36"/>
      </g>
     </g>
    </g>
    <g id="ytick_5">
     <g id="line2d_11">
      <g>
       <use style="stroke:#000000;stroke-width:0.8;" x="72" xlink:href="#m5fee09af02" y="152.134054"/>
      </g>
     </g>
     <g id="text_11">
      <!-- 8 -->
      <g transform="translate(58.6375 155.933273)scale(0.1 -0.1)">
       <use xlink:href="#DejaVuSans-38"/>
      </g>
     </g>
    </g>
    <g id="ytick_6">
     <g id="line2d_12">
      <g>
       <use style="stroke:#000000;stroke-width:0.8;" x="72" xlink:href="#m5fee09af02" y="71.701622"/>
      </g>
     </g>
     <g id="text_12">
      <!-- 10 -->
      <g transform="translate(52.275 75.50084)scale(0.1 -0.1)">
       <use xlink:href="#DejaVuSans-31"/>
       <use x="63.623047" xlink:href="#DejaVuSans-30"/>
      </g>
     </g>
    </g>
   </g>
   <g id="line2d_13">
    <path clip-path="url(#p3460bde054)" d="M 140.367568 389.40973 
" style="fill:none;stroke:#1f77b4;stroke-linecap:square;stroke-width:1.5;"/>
    <defs>
     <path d="M -5 5 
L 5 5 
L 5 -5 
L -5 -5 
z
" id="m2703ace4a4" style="stroke:#8000ff;stroke-linejoin:miter;"/>
    </defs>
    <g clip-path="url(#p3460bde054)">
     <use style="fill:#8000ff;stroke:#8000ff;stroke-linejoin:miter;" x="140.367568" xlink:href="#m2703ace4a4" y="389.40973"/>
    </g>
   </g>
   <g id="line2d_14">
    <path clip-path="url(#p3460bde054)" d="M 393.72973 192.35027 
" style="fill:none;stroke:#ff7f0e;stroke-linecap:square;stroke-width:1.5;"/>
    <defs>
     <path d="M 0 -5 
L -4.755283 -1.545085 
L -2.938926 4.045085 
L 2.938926 4.045085 
L 4.755283 -1.545085 
z
" id="m515c4185e6" style="stroke:#8000ff;stroke-linejoin:miter;"/>
    </defs>
    <g clip-path="url(#p3460bde054)">
     <use style="fill:#8000ff;stroke:#8000ff;stroke-linejoin:miter;" x="393.72973" xlink:href="#m515c4185e6" y="192.35027"/>
    </g>
   </g>
   <g id="line2d_15">
    <path clip-path="url(#p3460bde054)" d="M 450.032432 192.35027 
" style="fill:none;stroke:#2ca02c;stroke-linecap:square;stroke-width:1.5;"/>
    <defs>
     <path d="M -5 5 
L 5 5 
L 5 -5 
L -5 -5 
z
" id="md46cd3d5e2" style="stroke:#4062fa;stroke-linejoin:miter;"/>
    </defs>
    <g clip-path="url(#p3460bde054)">
     <use style="fill:#4062fa;stroke:#4062fa;stroke-linejoin:miter;" x="450.032432" xlink:href="#md46cd3d5e2" y="192.35027"/>
    </g>
   </g>
   <g id="line2d_16">
    <path clip-path="url(#p3460bde054)" d="M 224.821622 361.258378 
" style="fill:none;stroke:#d62728;stroke-linecap:square;stroke-width:1.5;"/>
    <defs>
     <path d="M 0 -5 
L -4.755283 -1.545085 
L -2.938926 4.045085 
L 2.938926 4.045085 
L 4.755283 -1.545085 
z
" id="md62375fbcd" style="stroke:#4062fa;stroke-linejoin:miter;"/>
    </defs>
    <g clip-path="url(#p3460bde054)">
     <use style="fill:#4062fa;stroke:#4062fa;stroke-linejoin:miter;" x="224.821622" xlink:href="#md62375fbcd" y="361.258378"/>
    </g>
   </g>
   <g id="line2d_17">
    <path clip-path="url(#p3460bde054)" d="M 402.175135 440.082162 
" style="fill:none;stroke:#9467bd;stroke-linecap:square;stroke-width:1.5;"/>
    <defs>
     <path d="M -5 5 
L 5 5 
L 5 -5 
L -5 -5 
z
" id="m5f283fdbd2" style="stroke:#00b4ec;stroke-linejoin:miter;"/>
    </defs>
    <g clip-path="url(#p3460bde054)">
     <use style="fill:#00b4ec;stroke:#00b4ec;stroke-linejoin:miter;" x="402.175135" xlink:href="#m5f283fdbd2" y="440.082162"/>
    </g>
   </g>
   <g id="line2d_18">
    <path clip-path="url(#p3460bde054)" d="M 224.821622 192.35027 
" style="fill:none;stroke:#8c564b;stroke-linecap:square;stroke-width:1.5;"/>
    <defs>
     <path d="M 0 -5 
L -4.755283 -1.545085 
L -2.938926 4.045085 
L 2.938926 4.045085 
L 4.755283 -1.545085 
z
" id="mf23f3c5250" style="stroke:#00b4ec;stroke-linejoin:miter;"/>
    </defs>
    <g clip-path="url(#p3460bde054)">
     <use style="fill:#00b4ec;stroke:#00b4ec;stroke-linejoin:miter;" x="224.821622" xlink:href="#mf23f3c5250" y="192.35027"/>
    </g>
   </g>
   <g id="line2d_19">
    <path clip-path="url(#p3460bde054)" d="M 224.821622 136.047568 
" style="fill:none;stroke:#e377c2;stroke-linecap:square;stroke-width:1.5;"/>
    <defs>
     <path d="M -5 5 
L 5 5 
L 5 -5 
L -5 -5 
z
" id="m6e762dd356" style="stroke:#40ecd4;stroke-linejoin:miter;"/>
    </defs>
    <g clip-path="url(#p3460bde054)">
     <use style="fill:#40ecd4;stroke:#40ecd4;stroke-linejoin:miter;" x="224.821622" xlink:href="#m6e762dd356" y="136.047568"/>
    </g>
   </g>
   <g id="line2d_20">
    <path clip-path="url(#p3460bde054)" d="M 393.72973 361.258378 
" style="fill:none;stroke:#7f7f7f;stroke-linecap:square;stroke-width:1.5;"/>
    <defs>
     <path d="M 0 -5 
L -4.755283 -1.545085 
L -2.938926 4.045085 
L 2.938926 4.045085 
L 4.755283 -1.545085 
z
" id="ma9a4bad374" style="stroke:#40ecd4;stroke-linejoin:miter;"/>
    </defs>
    <g clip-path="url(#p3460bde054)">
     <use style="fill:#40ecd4;stroke:#40ecd4;stroke-linejoin:miter;" x="393.72973" xlink:href="#ma9a4bad374" y="361.258378"/>
    </g>
   </g>
   <g id="line2d_21">
    <path clip-path="url(#p3460bde054)" d="M 450.032432 304.955676 
" style="fill:none;stroke:#bcbd22;stroke-linecap:square;stroke-width:1.5;"/>
    <defs>
     <path d="M -5 5 
L 5 5 
L 5 -5 
L -5 -5 
z
" id="m2dd057eb4e" style="stroke:#80ffb4;stroke-linejoin:miter;"/>
    </defs>
    <g clip-path="url(#p3460bde054)">
     <use style="fill:#80ffb4;stroke:#80ffb4;stroke-linejoin:miter;" x="450.032432" xlink:href="#m2dd057eb4e" y="304.955676"/>
    </g>
   </g>
   <g id="line2d_22">
    <path clip-path="url(#p3460bde054)" d="M 196.67027 248.652973 
" style="fill:none;stroke:#17becf;stroke-linecap:square;stroke-width:1.5;"/>
    <defs>
     <path d="M 0 -5 
L -4.755283 -1.545085 
L -2.938926 4.045085 
L 2.938926 4.045085 
L 4.755283 -1.545085 
z
" id="m5fa4509f71" style="stroke:#80ffb4;stroke-linejoin:miter;"/>
    </defs>
    <g clip-path="url(#p3460bde054)">
     <use style="fill:#80ffb4;stroke:#80ffb4;stroke-linejoin:miter;" x="196.67027" xlink:href="#m5fa4509f71" y="248.652973"/>
    </g>
   </g>
   <g id="line2d_23">
    <path clip-path="url(#p3460bde054)" d="M 140.367568 248.652973 
" style="fill:none;stroke:#1f77b4;stroke-linecap:square;stroke-width:1.5;"/>
    <defs>
     <path d="M -5 5 
L 5 5 
L 5 -5 
L -5 -5 
z
" id="m2b046ea20e" style="stroke:#bfec8e;stroke-linejoin:miter;"/>
    </defs>
    <g clip-path="url(#p3460bde054)">
     <use style="fill:#bfec8e;stroke:#bfec8e;stroke-linejoin:miter;" x="140.367568" xlink:href="#m2b046ea20e" y="248.652973"/>
    </g>
   </g>
   <g id="line2d_24">
    <path clip-path="url(#p3460bde054)" d="M 393.72973 276.804324 
" style="fill:none;stroke:#ff7f0e;stroke-linecap:square;stroke-width:1.5;"/>
    <defs>
     <path d="M 0 -5 
L -4.755283 -1.545085 
L -2.938926 4.045085 
L 2.938926 4.045085 
L 4.755283 -1.545085 
z
" id="m916c5996a1" style="stroke:#bfec8e;stroke-linejoin:miter;"/>
    </defs>
    <g clip-path="url(#p3460bde054)">
     <use style="fill:#bfec8e;stroke:#bfec8e;stroke-linejoin:miter;" x="393.72973" xlink:href="#m916c5996a1" y="276.804324"/>
    </g>
   </g>
   <g id="line2d_25">
    <path clip-path="url(#p3460bde054)" d="M 281.124324 192.35027 
" style="fill:none;stroke:#2ca02c;stroke-linecap:square;stroke-width:1.5;"/>
    <defs>
     <path d="M -5 5 
L 5 5 
L 5 -5 
L -5 -5 
z
" id="m229049ff85" style="stroke:#ffb462;stroke-linejoin:miter;"/>
    </defs>
    <g clip-path="url(#p3460bde054)">
     <use style="fill:#ffb462;stroke:#ffb462;stroke-linejoin:miter;" x="281.124324" xlink:href="#m229049ff85" y="192.35027"/>
    </g>
   </g>
   <g id="line2d_26">
    <path clip-path="url(#p3460bde054)" d="M 281.124324 333.107027 
" style="fill:none;stroke:#d62728;stroke-linecap:square;stroke-width:1.5;"/>
    <defs>
     <path d="M 0 -5 
L -4.755283 -1.545085 
L -2.938926 4.045085 
L 2.938926 4.045085 
L 4.755283 -1.545085 
z
" id="m38e476c53e" style="stroke:#ffb462;stroke-linejoin:miter;"/>
    </defs>
    <g clip-path="url(#p3460bde054)">
     <use style="fill:#ffb462;stroke:#ffb462;stroke-linejoin:miter;" x="281.124324" xlink:href="#m38e476c53e" y="333.107027"/>
    </g>
   </g>
   <g id="line2d_27">
    <path clip-path="url(#p3460bde054)" d="M 140.367568 304.955676 
" style="fill:none;stroke:#9467bd;stroke-linecap:square;stroke-width:1.5;"/>
    <defs>
     <path d="M -5 5 
L 5 5 
L 5 -5 
L -5 -5 
z
" id="m66564ba761" style="stroke:#ff6232;stroke-linejoin:miter;"/>
    </defs>
    <g clip-path="url(#p3460bde054)">
     <use style="fill:#ff6232;stroke:#ff6232;stroke-linejoin:miter;" x="140.367568" xlink:href="#m66564ba761" y="304.955676"/>
    </g>
   </g>
   <g id="line2d_28">
    <path clip-path="url(#p3460bde054)" d="M 309.275676 276.804324 
" style="fill:none;stroke:#8c564b;stroke-linecap:square;stroke-width:1.5;"/>
    <defs>
     <path d="M 0 -5 
L -4.755283 -1.545085 
L -2.938926 4.045085 
L 2.938926 4.045085 
L 4.755283 -1.545085 
z
" id="m99a8b5ce9d" style="stroke:#ff6232;stroke-linejoin:miter;"/>
    </defs>
    <g clip-path="url(#p3460bde054)">
     <use style="fill:#ff6232;stroke:#ff6232;stroke-linejoin:miter;" x="309.275676" xlink:href="#m99a8b5ce9d" y="276.804324"/>
    </g>
   </g>
   <g id="line2d_29">
    <path clip-path="url(#p3460bde054)" d="M 393.72973 220.501622 
" style="fill:none;stroke:#e377c2;stroke-linecap:square;stroke-width:1.5;"/>
    <defs>
     <path d="M -5 5 
L 5 5 
L 5 -5 
L -5 -5 
z
" id="mac42ced794" style="stroke:#ff0000;stroke-linejoin:miter;"/>
    </defs>
    <g clip-path="url(#p3460bde054)">
     <use style="fill:#ff0000;stroke:#ff0000;stroke-linejoin:miter;" x="393.72973" xlink:href="#mac42ced794" y="220.501622"/>
    </g>
   </g>
   <g id="line2d_30">
    <path clip-path="url(#p3460bde054)" d="M 140.367568 276.804324 
" style="fill:none;stroke:#7f7f7f;stroke-linecap:square;stroke-width:1.5;"/>
    <defs>
     <path d="M 0 -5 
L -4.755283 -1.545085 
L -2.938926 4.045085 
L 2.938926 4.045085 
L 4.755283 -1.545085 
z
" id="m60c2db29d5" style="stroke:#ff0000;stroke-linejoin:miter;"/>
    </defs>
    <g clip-path="url(#p3460bde054)">
     <use style="fill:#ff0000;stroke:#ff0000;stroke-linejoin:miter;" x="140.367568" xlink:href="#m60c2db29d5" y="276.804324"/>
    </g>
   </g>
   <g id="line2d_31"/>
   <g id="line2d_32">
    <path clip-path="url(#p3460bde054)" d="M 92.108108 493.971892 
L 92.108108 87.788108 
" style="fill:none;stroke:#000000;stroke-linecap:square;stroke-width:4;"/>
   </g>
   <g id="line2d_33">
    <path clip-path="url(#p3460bde054)" d="M 92.108108 87.788108 
L 498.291892 87.788108 
" style="fill:none;stroke:#000000;stroke-linecap:square;stroke-width:4;"/>
   </g>
   <g id="line2d_34">
    <path clip-path="url(#p3460bde054)" d="M 498.291892 87.788108 
L 498.291892 493.971892 
" style="fill:none;stroke:#000000;stroke-linecap:square;stroke-width:4;"/>
   </g>
   <g id="line2d_35">
    <path clip-path="url(#p3460bde054)" d="M 498.291892 493.971892 
L 92.108108 493.971892 
" style="fill:none;stroke:#000000;stroke-linecap:square;stroke-width:4;"/>
   </g>
   <g id="line2d_36">
    <path clip-path="url(#p3460bde054)" d="M 140.367568 389.40973 
L 141.815351 389.329297 
L 143.303351 389.007568 
L 144.670703 388.364108 
L 145.555459 387.801081 
L 146.681514 386.795676 
L 149.617297 383.095784 
L 150.703135 382.211027 
L 153.357405 380.883892 
L 154.523676 380.280649 
L 155.609514 379.516541 
L 156.534486 378.631784 
L 158.545297 376.259027 
L 159.671351 375.293838 
L 161.078919 374.409081 
L 164.537514 372.559135 
L 165.663568 371.55373 
L 166.427676 370.628757 
L 167.312432 369.341838 
L 168.277622 368.296216 
L 169.644973 367.331027 
L 170.891676 366.687568 
L 172.138378 366.204973 
L 173.063351 365.722378 
L 174.068757 364.998486 
L 174.99373 364.073514 
L 177.205622 361.499676 
L 178.492541 360.454054 
L 179.658811 359.810595 
L 182.031568 358.724757 
L 183.077189 358.000865 
L 184.002162 357.116108 
L 185.570595 355.225946 
L 186.777081 354.059676 
L 187.943351 353.295568 
L 192.045405 351.365189 
L 193.050811 350.520649 
L 195.624649 347.504432 
L 196.951784 346.458811 
L 199.64627 345.131676 
L 200.812541 344.608865 
L 201.898378 343.884973 
L 202.823351 343.000216 
L 205.799351 339.782919 
L 206.965622 339.018811 
L 210.786162 336.927568 
L 211.952432 335.922162 
L 214.848 332.704865 
L 215.732757 332.021189 
L 219.392432 329.769081 
L 221.564108 327.878919 
L 223.534703 325.988757 
L 225.706378 324.380108 
L 229.205189 321.886703 
L 232.100757 319.513946 
L 236.283243 316.537946 
L 238.736432 314.929297 
L 242.597189 312.435892 
L 245.452541 310.947892 
L 252.892541 307.811027 
L 258.361946 305.558919 
L 265.600865 302.703568 
L 267.571459 301.979676 
L 268.496432 301.336216 
L 269.542054 300.411243 
L 270.788757 299.043892 
L 271.311568 298.400432 
L 272.156108 296.872216 
L 272.839784 294.821189 
L 273.885405 290.719135 
L 274.368 289.311568 
L 274.729946 287.260541 
L 274.810378 286.013838 
L 275.212541 284.003027 
L 275.976649 282.836757 
L 276.821189 282.112865 
L 277.746162 281.549838 
L 278.630919 281.147676 
L 279.797189 280.825946 
L 282.652541 280.504216 
L 284.904649 280.262919 
L 286.312216 279.820541 
L 291.90227 277.568432 
L 293.712 276.804324 
L 294.516324 276.120649 
L 295.240216 274.873946 
L 296.084757 272.822919 
L 296.446703 272.219676 
L 297.411892 271.294703 
L 298.618378 270.651243 
L 299.824865 270.36973 
L 301.071568 270.289297 
L 302.921514 270.36973 
L 307.747459 270.771892 
L 310.643027 271.334919 
L 312.975568 271.817514 
L 315.71027 272.099027 
L 317.238486 271.978378 
L 319.088432 271.576216 
L 322.30573 270.450162 
L 324.799135 269.283892 
L 325.724108 268.761081 
L 326.76973 268.037189 
L 328.458811 266.549189 
L 331.354378 263.331892 
L 336.904216 257.339676 
L 338.271568 256.052757 
L 339.84 254.886486 
L 341.408432 254.041946 
L 343.017081 253.519135 
L 344.947459 253.197405 
L 348.285405 252.956108 
L 351.341838 252.433297 
L 355.283027 251.267027 
L 359.344865 249.819243 
L 363.286054 248.411676 
L 369.801081 245.717189 
L 373.661838 243.706378 
L 376.115027 242.137946 
L 377.924757 240.730378 
L 379.452973 239.322811 
L 380.377946 238.317405 
L 381.624649 236.708757 
L 382.911568 234.697946 
L 384.278919 231.963243 
L 385.847351 227.780757 
L 386.410378 225.930811 
L 386.933189 223.92 
L 388.944 215.595243 
L 389.547243 212.699676 
L 390.230919 209.683459 
L 391.397189 204.053189 
L 392.080865 200.916324 
L 393.448216 194.200216 
L 393.448216 194.200216 
" style="fill:none;stroke:#8000ff;stroke-linecap:square;stroke-width:1.5;"/>
   </g>
   <g id="line2d_37">
    <path clip-path="url(#p3460bde054)" d="M 450.032432 192.35027 
L 450.27373 192.430703 
L 450.354162 192.591568 
L 450.474811 192.99373 
L 450.515027 193.717622 
L 450.394378 194.843676 
L 450.032432 196.211027 
L 449.469405 197.497946 
L 448.504216 198.865297 
L 447.498811 199.870703 
L 446.131459 200.835892 
L 442.431568 202.444541 
L 441.385946 203.168432 
L 439.85773 204.696649 
L 438.972973 205.621622 
L 437.846919 206.506378 
L 436.358919 207.310703 
L 433.986162 208.356324 
L 432.739459 209.04 
L 431.693838 209.844324 
L 429.079784 212.579027 
L 427.712432 213.544216 
L 426.46573 214.227892 
L 423.932108 215.434378 
L 422.725622 216.359351 
L 421.840865 217.244108 
L 419.830054 219.456 
L 418.744216 220.340757 
L 416.089946 221.708108 
L 414.079135 222.793946 
L 412.148757 224.483027 
L 410.137946 226.373189 
L 408.086919 227.700324 
L 405.995676 228.947027 
L 403.864216 230.555676 
L 401.370811 232.606703 
L 398.917622 234.295784 
L 396.06227 236.226162 
L 390.230919 240.569514 
L 384.399568 244.792216 
L 372.696649 253.35827 
L 362.119784 260.677622 
L 360.068757 262.004757 
L 351.261405 267.474162 
L 348.969081 269.123027 
L 345.430054 272.179459 
L 334.410811 283.319351 
L 331.113081 286.858378 
L 327.895784 290.075676 
L 325.120865 292.488649 
L 323.713297 293.494054 
L 323.351351 293.574486 
L 323.270919 293.574486 
L 322.466595 293.011459 
L 321.984 292.408216 
L 321.380757 291.443027 
L 320.697081 289.432216 
L 320.093838 287.461622 
L 319.892757 286.979027 
L 319.812324 287.059459 
L 319.088432 286.979027 
L 318.485189 287.059459 
L 317.479784 287.501838 
L 316.434162 288.386595 
L 314.825514 289.874595 
L 314.423351 291.000649 
L 314.302703 291.684324 
L 314.22227 295.102703 
L 313.820108 296.872216 
L 313.498378 297.676541 
L 312.814703 298.762378 
L 311.206054 300.491676 
L 307.988757 303.427459 
L 304.731243 306.684973 
L 302.197622 309.138162 
L 299.221622 311.671784 
L 294.838054 314.889081 
L 293.068541 316.095568 
L 289.449081 318.106378 
L 286.714378 319.152 
L 276.258162 321.846486 
L 267.330162 324.78227 
L 262.061838 326.91373 
L 257.316324 329.407135 
L 255.868541 330.332108 
L 251.686054 333.549405 
L 245.532973 339.260108 
L 239.339676 345.574054 
L 235.68 349.434811 
L 233.548541 351.686919 
L 225.907459 359.931243 
L 225.907459 359.931243 
" style="fill:none;stroke:#4062fa;stroke-linecap:square;stroke-width:1.5;"/>
   </g>
   <g id="line2d_38">
    <path clip-path="url(#p3460bde054)" d="M 402.175135 440.082162 
L 401.933838 440.162595 
L 401.893622 440.202811 
L 401.974054 440.122378 
L 402.215351 439.599568 
L 402.376216 438.835459 
L 402.376216 437.548541 
L 402.134919 436.301838 
L 401.692541 435.095351 
L 401.049081 434.009514 
L 400.043676 432.843243 
L 396.906811 430.068324 
L 395.981838 428.700973 
L 395.177514 426.810811 
L 394.694919 425.564108 
L 394.091676 424.438054 
L 393.287351 423.432649 
L 390.351568 420.818595 
L 389.507027 419.692541 
L 388.823351 418.52627 
L 387.616865 415.831784 
L 386.973405 414.665514 
L 386.128865 413.700324 
L 384.118054 411.850378 
L 383.233297 410.844973 
L 382.469189 409.678703 
L 381.383351 407.305946 
L 380.619243 405.978811 
L 379.613838 404.812541 
L 376.517189 402.319135 
L 375.632432 401.233297 
L 374.787892 399.745297 
L 373.621622 397.131243 
L 372.937946 396.045405 
L 372.133622 395.120432 
L 370.122811 393.270486 
L 369.238054 392.224865 
L 368.473946 391.058595 
L 366.543568 387.238054 
L 365.578378 386.031568 
L 362.964324 383.497946 
L 362.16 382.371892 
L 360.832865 379.918703 
L 360.189405 378.752432 
L 358.580757 376.701405 
L 356.449297 374.328649 
L 355.484108 373.001514 
L 353.593946 369.784216 
L 351.985297 367.692973 
L 350.095135 365.400649 
L 340.604108 352.089081 
L 327.091459 333.428757 
L 322.667676 327.356108 
L 316.675459 319.111784 
L 310.602811 310.224 
L 310.08 308.937081 
L 310.160432 308.776216 
L 310.200649 308.695784 
L 310.924541 308.374054 
L 311.24627 308.454486 
L 311.407135 308.736 
L 311.326703 308.937081 
L 311.085405 309.178378 
L 310.120216 309.580541 
L 309.476757 309.660973 
L 308.712649 309.620757 
L 307.42573 309.218595 
L 306.380108 308.615351 
L 304.811676 307.248 
L 303.524757 306.162162 
L 302.760649 305.719784 
L 301.594378 305.237189 
L 300.307459 304.955676 
L 297.492324 304.59373 
L 296.004324 304.272 
L 295.159784 303.910054 
L 293.953297 303.226378 
L 293.068541 302.422054 
L 292.304432 301.537297 
L 290.534919 299.124324 
L 289.650162 298.159135 
L 288.644757 297.354811 
L 283.778595 294.016865 
L 281.888432 292.569081 
L 280.722162 292.126703 
L 278.268973 291.563676 
L 277.545081 291.241946 
L 276.258162 290.276757 
L 275.051676 289.110486 
L 272.598486 286.777946 
L 268.938811 283.801946 
L 266.807351 281.911784 
L 263.509622 278.493405 
L 259.005405 273.546811 
L 257.758703 272.179459 
L 256.431568 270.691459 
L 254.541405 268.278486 
L 251.967568 264.297081 
L 249.956757 260.315676 
L 248.147027 255.972324 
L 246.457946 251.508324 
L 244.889514 247.567135 
L 243.562378 245.033514 
L 241.913514 242.741189 
L 240.304865 241.052108 
L 234.875676 235.904432 
L 232.502919 233.008865 
L 230.934486 230.796973 
L 228.280216 225.890595 
L 227.475892 224.040649 
L 226.148757 219.817946 
L 225.103135 213.463784 
L 224.580324 206.265081 
L 224.499892 203.972757 
L 224.339027 199.146811 
L 224.258595 193.677405 
L 224.258595 193.677405 
" style="fill:none;stroke:#00b4ec;stroke-linecap:square;stroke-width:1.5;"/>
   </g>
   <g id="line2d_39">
    <path clip-path="url(#p3460bde054)" d="M 224.821622 136.047568 
L 225.907459 136.087784 
L 227.154162 136.248649 
L 228.722595 136.771459 
L 230.210595 137.616 
L 231.055135 138.299676 
L 232.020324 139.345297 
L 232.784432 140.511568 
L 234.674595 144.814703 
L 235.398486 145.860324 
L 236.323459 146.785297 
L 238.495135 148.796108 
L 239.540757 150.163459 
L 240.948324 153.219892 
L 241.632 154.748108 
L 242.556973 155.994811 
L 243.481946 156.919784 
L 244.688432 157.925189 
L 245.894919 159.131676 
L 246.659027 160.056649 
L 248.106811 162.670703 
L 248.870919 164.158703 
L 249.635027 165.284757 
L 253.133838 169.266162 
L 253.897946 170.392216 
L 254.541405 171.598703 
L 256.150054 174.011676 
L 259.367351 177.952865 
L 262.705297 182.778811 
L 265.198703 185.955892 
L 267.531243 189.253622 
L 270.064865 192.672 
L 272.477838 195.929514 
L 278.188541 203.691243 
L 293.470703 224.563459 
L 294.194595 225.327568 
L 294.556541 225.649297 
L 295.320649 226.091676 
L 296.084757 226.373189 
L 298.618378 227.056865 
L 299.784649 227.459027 
L 301.192216 228.303568 
L 302.278054 229.228541 
L 304.007351 231.239351 
L 305.656216 233.290378 
L 310.40173 238.397838 
L 317.761297 247.647568 
L 322.707892 254.162595 
L 324.236108 255.972324 
L 330.429405 262.28627 
L 335.979243 268.278486 
L 339.035676 271.576216 
L 343.298595 275.718486 
L 346.435459 278.815135 
L 348.687568 281.348757 
L 351.261405 284.726919 
L 354.156973 289.271351 
L 360.470919 300.652541 
L 392.925405 359.730162 
L 392.925405 359.730162 
" style="fill:none;stroke:#40ecd4;stroke-linecap:square;stroke-width:1.5;"/>
   </g>
   <g id="line2d_40">
    <path clip-path="url(#p3460bde054)" d="M 450.032432 304.955676 
L 449.831351 305.036108 
L 449.670486 305.277405 
L 449.670486 305.357838 
L 449.670486 305.237189 
L 449.147676 304.272 
L 448.584649 303.708973 
L 447.740108 303.226378 
L 446.533622 302.824216 
L 445.286919 302.623135 
L 442.029405 302.623135 
L 440.300108 302.502486 
L 438.691459 302.060108 
L 437.404541 301.497081 
L 435.876324 300.692757 
L 434.589405 300.169946 
L 433.101405 299.848216 
L 431.77427 299.767784 
L 428.878703 299.808 
L 427.189622 299.526486 
L 425.621189 299.003676 
L 422.645189 297.596108 
L 421.438703 297.193946 
L 420.151784 296.992865 
L 415.768216 296.751568 
L 414.682378 296.51027 
L 409.574919 294.982054 
L 404.025081 294.057081 
L 398.032865 292.569081 
L 392.483027 291.483243 
L 353.754811 283.078054 
L 347.923459 282.112865 
L 345.550703 281.791135 
L 342.373622 281.509622 
L 339.719351 281.348757 
L 335.69773 281.348757 
L 328.418595 281.268324 
L 324.155676 280.946595 
L 318.002595 280.262919 
L 306.621405 278.453189 
L 304.168216 277.648865 
L 302.921514 276.924973 
L 301.996541 276.201081 
L 301.312865 275.517405 
L 300.508541 274.351135 
L 300.347676 273.828324 
L 300.347676 273.385946 
L 300.468324 272.70227 
L 300.790054 271.85773 
L 301.996541 270.249081 
L 304.168216 268.157838 
L 305.616 266.267676 
L 305.616 266.307892 
L 305.857297 265.302486 
L 306.138811 263.050378 
L 306.581189 261.803676 
L 307.104 260.79827 
L 309.838703 256.97773 
L 311.24627 254.725622 
L 312.73427 253.036541 
L 314.302703 251.347459 
L 314.986378 250.422486 
L 315.308108 249.336649 
L 315.308108 249.336649 
L 315.026595 248.813838 
L 314.544 248.371459 
L 313.659243 248.009514 
L 312.935351 247.929081 
L 312.010378 248.009514 
L 310.884324 248.250811 
L 306.581189 249.899676 
L 305.535568 250.100757 
L 304.007351 250.181189 
L 301.835676 249.939892 
L 300.428108 249.577946 
L 299.503135 249.095351 
L 299.100973 248.773622 
L 298.457514 247.888865 
L 298.135784 247.084541 
L 297.934703 245.837838 
L 297.934703 242.580324 
L 297.572757 241.655351 
L 296.808649 240.851027 
L 295.441297 240.086919 
L 293.993514 239.724973 
L 291.138162 239.282595 
L 288.323027 238.880432 
L 286.312216 238.639135 
L 282.250378 238.438054 
L 278.188541 238.518486 
L 274.569081 238.759784 
L 267.812757 239.363027 
L 264.434595 239.684757 
L 262.544432 240.006486 
L 258.522811 241.212973 
L 253.254486 243.264 
L 249.474162 244.832432 
L 247.584 245.556324 
L 242.918919 246.883459 
L 238.897297 247.607351 
L 235.237622 247.969297 
L 233.588757 248.089946 
L 227.516108 248.331243 
L 222.288 248.411676 
L 218.789189 248.492108 
L 208.735135 248.572541 
L 205.92 248.612757 
L 198.278919 248.693189 
L 198.278919 248.693189 
" style="fill:none;stroke:#80ffb4;stroke-linecap:square;stroke-width:1.5;"/>
   </g>
   <g id="line2d_41">
    <path clip-path="url(#p3460bde054)" d="M 140.367568 248.652973 
L 142.016432 248.693189 
L 143.625081 248.854054 
L 149.134703 249.819243 
L 153.679135 249.899676 
L 156.333405 250.38227 
L 159.188757 250.905081 
L 164.537514 251.186595 
L 169.846054 251.990919 
L 177.084973 252.634378 
L 181.026162 253.197405 
L 187.702054 253.881081 
L 196.790919 254.886486 
L 200.772324 255.328865 
L 207.971027 256.133189 
L 213.561081 256.736432 
L 219.151135 257.339676 
L 227.154162 258.144 
L 231.175784 258.546162 
L 243.160216 259.672216 
L 257.597838 260.918919 
L 264.917189 261.12 
L 268.255135 260.918919 
L 269.702919 261.12 
L 269.823568 261.280865 
L 270.064865 261.723243 
L 270.306162 262.648216 
L 270.346378 263.814486 
L 269.863784 267.072 
L 269.702919 268.761081 
L 269.662703 268.640432 
L 270.105081 269.123027 
L 270.869189 269.72627 
L 271.914811 270.329514 
L 273.402811 270.812108 
L 274.408216 270.972973 
L 275.695135 270.972973 
L 280.32 270.570811 
L 281.003676 270.611027 
L 280.963459 270.570811 
L 281.244973 270.249081 
L 281.727568 269.002378 
L 282.773189 264.779676 
L 283.859027 261.924324 
L 284.663351 260.114595 
L 285.628541 257.219027 
L 286.352432 254.564757 
L 286.955676 253.036541 
L 288.001297 251.226811 
L 289.529514 248.854054 
L 290.132757 247.687784 
L 291.701189 243.706378 
L 292.988108 242.017297 
L 293.792432 241.172757 
L 295.843459 239.041297 
L 299.302054 234.456649 
L 301.875892 232.003459 
L 309.074595 225.488432 
L 310.602811 224.402595 
L 312.131027 223.718919 
L 313.056 223.558054 
L 314.021189 223.59827 
L 314.825514 223.759135 
L 316.514595 224.442811 
L 319.369946 226.051459 
L 327.212108 230.435027 
L 330.389189 231.923027 
L 331.595676 232.284973 
L 332.72173 232.445838 
L 334.20973 232.365405 
L 338.754162 231.601297 
L 341.64973 231.68173 
L 343.218162 231.923027 
L 345.510486 232.486054 
L 346.636541 232.968649 
L 347.722378 233.571892 
L 348.727784 234.336 
L 349.491892 235.180541 
L 350.416865 236.588108 
L 351.382054 238.759784 
L 352.226595 240.851027 
L 353.433081 243.384649 
L 354.599351 245.274811 
L 355.926486 247.084541 
L 358.982919 250.342054 
L 360.430703 251.669189 
L 363.044757 253.881081 
L 376.275892 263.935135 
L 379.050811 265.986162 
L 391.437405 275.155459 
L 392.121081 275.638054 
L 392.121081 275.638054 
" style="fill:none;stroke:#bfec8e;stroke-linecap:square;stroke-width:1.5;"/>
   </g>
   <g id="line2d_42">
    <path clip-path="url(#p3460bde054)" d="M 281.124324 192.35027 
L 281.526486 192.390486 
L 282.210162 192.672 
L 283.135135 193.436108 
L 283.778595 194.240432 
L 284.220973 195.125189 
L 284.703568 196.733838 
L 284.864432 198.382703 
L 284.663351 200.554378 
L 284.341622 203.208649 
L 284.220973 206.38573 
L 284.261189 210.970378 
L 282.692757 276.241297 
L 282.893838 278.573838 
L 283.657946 283.560649 
L 283.939459 285.289946 
L 284.824216 293.212541 
L 285.10573 294.258162 
L 285.708973 295.303784 
L 286.392649 295.907027 
L 287.43827 296.550486 
L 289.650162 297.314595 
L 291.540324 297.797189 
L 292.183784 298.118919 
L 293.028324 298.842811 
L 293.752216 299.968865 
L 293.752216 300.169946 
L 293.350054 300.853622 
L 292.746811 301.416649 
L 291.862054 302.060108 
L 290.736 302.663351 
L 288.242595 303.749189 
L 286.794811 304.633946 
L 286.352432 304.995892 
L 285.869838 305.679568 
L 285.145946 307.288216 
L 284.502486 309.218595 
L 283.014486 312.194595 
L 280.802595 315.773838 
L 279.756973 317.141189 
L 276.780973 320.64 
L 274.729946 323.495351 
L 273.965838 325.224649 
L 273.483243 327.074595 
L 273.282162 329.286486 
L 273.362595 331.096216 
L 273.603892 332.785297 
L 274.006054 336.203676 
L 273.925622 337.812324 
L 273.724541 339.179676 
L 272.357189 343.482811 
L 271.512649 345.976216 
L 270.668108 350.07827 
L 270.748541 352.611892 
L 271.190919 353.778162 
L 271.71373 354.54227 
L 272.397405 355.225946 
L 273.804973 356.070486 
L 275.132108 356.392216 
L 276.258162 356.392216 
L 277.223351 356.191135 
L 277.987459 355.909622 
L 278.952649 355.346595 
L 279.958054 354.54227 
L 281.204757 352.973838 
L 282.169946 351.043459 
L 282.853622 349.072865 
L 283.215568 347.424 
L 283.497081 345.453405 
L 283.698162 342.276324 
L 283.61773 338.857946 
L 283.175351 334.434162 
L 283.175351 334.434162 
" style="fill:none;stroke:#ffb462;stroke-linecap:square;stroke-width:1.5;"/>
   </g>
   <g id="line2d_43">
    <path clip-path="url(#p3460bde054)" d="M 140.367568 304.955676 
L 141.775135 304.955676 
L 144.308757 304.633946 
L 151.668324 303.145946 
L 156.132324 302.582919 
L 170.127568 300.169946 
L 179.095784 298.681946 
L 187.581405 297.234162 
L 194.418162 296.108108 
L 199.445189 295.263568 
L 226.510703 290.960432 
L 234.272432 289.955027 
L 243.401514 288.265946 
L 245.613405 287.421405 
L 247.222054 286.617081 
L 249.474162 285.169297 
L 251.806703 283.198703 
L 253.85773 281.147676 
L 253.817514 281.308541 
L 253.817514 281.469405 
L 253.737081 281.308541 
L 253.174054 280.745514 
L 251.887135 279.740108 
L 251.605622 278.453189 
L 251.645838 276.924973 
L 252.048 275.517405 
L 253.294703 274.391351 
L 254.219676 274.029405 
L 255.265297 273.828324 
L 257.075027 273.788108 
L 260.252108 273.868541 
L 265.600865 274.109838 
L 267.732324 274.19027 
L 271.673514 274.351135 
L 272.196324 273.868541 
L 272.477838 273.426162 
L 272.799568 272.70227 
L 273.000649 271.616432 
L 272.920216 269.766486 
L 272.88 268.439351 
L 273.081081 266.589405 
L 273.603892 264.940541 
L 274.126703 263.814486 
L 274.68973 262.809081 
L 276.298378 260.717838 
L 277.625514 259.511351 
L 278.550486 258.827676 
L 279.756973 258.103784 
L 280.480865 257.862486 
L 280.802595 258.144 
L 281.124324 258.505946 
L 281.647135 259.752649 
L 282.451459 263.452541 
L 283.215568 265.423135 
L 284.944865 268.439351 
L 287.076324 270.771892 
L 288.604541 271.938162 
L 290.333838 272.983784 
L 292.304432 273.868541 
L 295.079351 274.873946 
L 297.572757 275.597838 
L 299.744432 276.160865 
L 306.983351 277.608649 
L 307.626811 277.729297 
L 307.626811 277.729297 
" style="fill:none;stroke:#ff6232;stroke-linecap:square;stroke-width:1.5;"/>
   </g>
   <g id="line2d_44">
    <path clip-path="url(#p3460bde054)" d="M 393.72973 220.501622 
L 393.971027 220.582054 
L 394.091676 220.823351 
L 394.051459 221.064649 
L 393.930811 221.507027 
L 393.568865 222.150486 
L 392.965622 222.834162 
L 392.000432 223.477622 
L 390.75373 224.000432 
L 389.386378 224.362378 
L 386.933189 224.483027 
L 385.203892 224.523243 
L 383.876757 224.684108 
L 382.589838 225.046054 
L 380.096432 226.051459 
L 378.447568 226.57427 
L 376.798703 226.815568 
L 374.104216 226.896 
L 372.817297 227.056865 
L 370.122811 227.941622 
L 368.594595 228.544865 
L 366.985946 228.947027 
L 363.808865 229.188324 
L 362.240432 229.308973 
L 360.953514 229.55027 
L 359.50573 229.992649 
L 358.01773 230.595892 
L 356.449297 231.078486 
L 353.795027 231.520865 
L 351.382054 231.762162 
L 348.526703 232.405622 
L 344.706162 233.491459 
L 341.770378 234.01427 
L 337.547676 234.818595 
L 333.646703 235.743568 
L 307.184432 241.414054 
L 304.650811 242.178162 
L 303.484541 242.741189 
L 302.398703 243.424865 
L 301.433514 244.269405 
L 300.790054 245.033514 
L 300.106378 246.119351 
L 299.503135 247.325838 
L 298.739027 248.451892 
L 297.612973 249.698595 
L 296.728216 250.38227 
L 295.52173 251.106162 
L 294.275027 251.669189 
L 291.459892 252.553946 
L 288.363243 253.318054 
L 286.473081 253.599568 
L 286.151351 253.277838 
L 285.708973 252.071351 
L 285.548108 251.106162 
L 285.507892 247.245405 
L 285.186162 246.682378 
L 284.904649 246.360649 
L 284.422054 245.998703 
L 283.738378 245.636757 
L 282.652541 245.274811 
L 281.767784 245.154162 
L 280.561297 245.113946 
L 274.649514 245.636757 
L 271.955027 245.395459 
L 270.627892 245.234595 
L 269.300757 245.194378 
L 266.405189 245.435676 
L 262.222703 246.199784 
L 254.300108 247.526919 
L 250.761081 247.969297 
L 238.213622 249.055135 
L 235.559351 249.457297 
L 232.181189 250.181189 
L 226.591135 251.669189 
L 221.96627 253.036541 
L 215.933838 254.765838 
L 213.601297 255.48973 
L 211.429622 256.092973 
L 207.609081 257.219027 
L 201.938595 258.867892 
L 191.321514 261.964541 
L 186.696649 263.291676 
L 181.146811 264.940541 
L 178.572973 265.664432 
L 171.897081 267.635027 
L 168.800432 268.519784 
L 164.175568 269.887135 
L 161.360432 270.691459 
L 156.051892 272.259892 
L 153.236757 273.064216 
L 148.732541 274.391351 
L 145.394595 275.356541 
L 141.936 276.361946 
L 141.936 276.361946 
" style="fill:none;stroke:#ff0000;stroke-linecap:square;stroke-width:1.5;"/>
   </g>
   <g id="patch_3">
    <path d="M 72 512.64 
L 72 69.12 
" style="fill:none;stroke:#000000;stroke-linecap:square;stroke-linejoin:miter;stroke-width:0.8;"/>
   </g>
   <g id="patch_4">
    <path d="M 518.4 512.64 
L 518.4 69.12 
" style="fill:none;stroke:#000000;stroke-linecap:square;stroke-linejoin:miter;stroke-width:0.8;"/>
   </g>
   <g id="patch_5">
    <path d="M 72 512.64 
L 518.4 512.64 
" style="fill:none;stroke:#000000;stroke-linecap:square;stroke-linejoin:miter;stroke-width:0.8;"/>
   </g>
   <g id="patch_6">
    <path d="M 72 69.12 
L 518.4 69.12 
" style="fill:none;stroke:#000000;stroke-linecap:square;stroke-linejoin:miter;stroke-width:0.8;"/>
   </g>
   <g id="text_13">
    <!-- 1 -->
    <defs>
     <path d="M 14.203125 0 
L 14.203125 5.171875 
L 26.90625 5.171875 
L 26.90625 65.828125 
L 12.203125 56.296875 
L 12.203125 62.703125 
L 29.984375 74.21875 
L 36.71875 74.21875 
L 36.71875 5.171875 
L 49.421875 5.171875 
L 49.421875 0 
z
" id="DejaVuSerif-31"/>
    </defs>
    <g transform="translate(137.186318 389.40973)scale(0.1 -0.1)">
     <use xlink:href="#DejaVuSerif-31"/>
    </g>
   </g>
   <g id="text_14">
    <!-- 1 -->
    <g transform="translate(390.54848 192.35027)scale(0.1 -0.1)">
     <use xlink:href="#DejaVuSerif-31"/>
    </g>
   </g>
   <g id="text_15">
    <!-- 2 -->
    <defs>
     <path d="M 12.796875 55.515625 
L 7.328125 55.515625 
L 7.328125 68.5 
Q 12.546875 71.296875 17.84375 72.75 
Q 23.140625 74.21875 28.21875 74.21875 
Q 39.59375 74.21875 46.1875 68.703125 
Q 52.78125 63.1875 52.78125 53.71875 
Q 52.78125 43.015625 37.84375 28.125 
Q 36.671875 27 36.078125 26.421875 
L 17.671875 8.015625 
L 48.09375 8.015625 
L 48.09375 17 
L 53.8125 17 
L 53.8125 0 
L 6.78125 0 
L 6.78125 5.328125 
L 28.90625 27.390625 
Q 36.234375 34.71875 39.359375 40.84375 
Q 42.484375 46.96875 42.484375 53.71875 
Q 42.484375 61.078125 38.640625 65.234375 
Q 34.8125 69.390625 28.078125 69.390625 
Q 21.09375 69.390625 17.28125 65.921875 
Q 13.484375 62.453125 12.796875 55.515625 
z
" id="DejaVuSerif-32"/>
    </defs>
    <g transform="translate(446.851182 192.35027)scale(0.1 -0.1)">
     <use xlink:href="#DejaVuSerif-32"/>
    </g>
   </g>
   <g id="text_16">
    <!-- 2 -->
    <g transform="translate(221.640372 361.258378)scale(0.1 -0.1)">
     <use xlink:href="#DejaVuSerif-32"/>
    </g>
   </g>
   <g id="text_17">
    <!-- 3 -->
    <defs>
     <path d="M 9.71875 69.828125 
Q 15.4375 71.96875 20.671875 73.09375 
Q 25.921875 74.21875 30.515625 74.21875 
Q 41.21875 74.21875 47.21875 69.59375 
Q 53.21875 64.984375 53.21875 56.78125 
Q 53.21875 50.203125 49.0625 45.78125 
Q 44.921875 41.359375 37.3125 39.796875 
Q 46.296875 38.53125 51.25 33.28125 
Q 56.203125 28.03125 56.203125 19.671875 
Q 56.203125 9.46875 49.34375 4.015625 
Q 42.484375 -1.421875 29.59375 -1.421875 
Q 23.875 -1.421875 18.421875 -0.1875 
Q 12.984375 1.03125 7.625 3.515625 
L 7.625 17.671875 
L 13.09375 17.671875 
Q 13.578125 10.640625 17.828125 7.03125 
Q 22.078125 3.421875 29.78125 3.421875 
Q 37.25 3.421875 41.578125 7.734375 
Q 45.90625 12.0625 45.90625 19.578125 
Q 45.90625 28.171875 41.453125 32.59375 
Q 37.015625 37.015625 28.421875 37.015625 
L 23.78125 37.015625 
L 23.78125 42 
L 26.21875 42 
Q 34.765625 42 39.03125 45.53125 
Q 43.3125 49.078125 43.3125 56.203125 
Q 43.3125 62.59375 39.796875 65.984375 
Q 36.28125 69.390625 29.6875 69.390625 
Q 23.09375 69.390625 19.453125 66.265625 
Q 15.828125 63.140625 15.1875 56.984375 
L 9.71875 56.984375 
z
" id="DejaVuSerif-33"/>
    </defs>
    <g transform="translate(398.993885 440.082162)scale(0.1 -0.1)">
     <use xlink:href="#DejaVuSerif-33"/>
    </g>
   </g>
   <g id="text_18">
    <!-- 3 -->
    <g transform="translate(221.640372 192.35027)scale(0.1 -0.1)">
     <use xlink:href="#DejaVuSerif-33"/>
    </g>
   </g>
   <g id="text_19">
    <!-- 4 -->
    <defs>
     <path d="M 34.90625 24.703125 
L 34.90625 63.484375 
L 10.015625 24.703125 
z
M 56.390625 0 
L 23.1875 0 
L 23.1875 5.171875 
L 34.90625 5.171875 
L 34.90625 19.484375 
L 3.078125 19.484375 
L 3.078125 24.8125 
L 35.015625 74.21875 
L 44.671875 74.21875 
L 44.671875 24.703125 
L 58.59375 24.703125 
L 58.59375 19.484375 
L 44.671875 19.484375 
L 44.671875 5.171875 
L 56.390625 5.171875 
z
" id="DejaVuSerif-34"/>
    </defs>
    <g transform="translate(221.640372 136.047568)scale(0.1 -0.1)">
     <use xlink:href="#DejaVuSerif-34"/>
    </g>
   </g>
   <g id="text_20">
    <!-- 4 -->
    <g transform="translate(390.54848 361.258378)scale(0.1 -0.1)">
     <use xlink:href="#DejaVuSerif-34"/>
    </g>
   </g>
   <g id="text_21">
    <!-- 5 -->
    <defs>
     <path d="M 50.296875 72.90625 
L 50.296875 64.890625 
L 16.890625 64.890625 
L 16.890625 44 
Q 19.4375 45.75 22.828125 46.625 
Q 26.21875 47.515625 30.421875 47.515625 
Q 42.234375 47.515625 49.0625 40.96875 
Q 55.90625 34.421875 55.90625 23.09375 
Q 55.90625 11.53125 49 5.046875 
Q 42.09375 -1.421875 29.59375 -1.421875 
Q 24.5625 -1.421875 19.28125 -0.1875 
Q 14.015625 1.03125 8.5 3.515625 
L 8.5 17.671875 
L 14.015625 17.671875 
Q 14.453125 10.75 18.421875 7.078125 
Q 22.40625 3.421875 29.59375 3.421875 
Q 37.3125 3.421875 41.453125 8.5 
Q 45.609375 13.578125 45.609375 23.09375 
Q 45.609375 32.5625 41.484375 37.609375 
Q 37.359375 42.671875 29.59375 42.671875 
Q 25.203125 42.671875 21.84375 41.109375 
Q 18.5 39.546875 15.921875 36.28125 
L 11.71875 36.28125 
L 11.71875 72.90625 
z
" id="DejaVuSerif-35"/>
    </defs>
    <g transform="translate(446.851182 304.955676)scale(0.1 -0.1)">
     <use xlink:href="#DejaVuSerif-35"/>
    </g>
   </g>
   <g id="text_22">
    <!-- 5 -->
    <g transform="translate(193.48902 248.652973)scale(0.1 -0.1)">
     <use xlink:href="#DejaVuSerif-35"/>
    </g>
   </g>
   <g id="text_23">
    <!-- 6 -->
    <defs>
     <path d="M 32.71875 3.421875 
Q 39.59375 3.421875 43.296875 8.46875 
Q 47.015625 13.53125 47.015625 23 
Q 47.015625 32.46875 43.296875 37.515625 
Q 39.59375 42.578125 32.71875 42.578125 
Q 25.734375 42.578125 22.0625 37.6875 
Q 18.40625 32.8125 18.40625 23.578125 
Q 18.40625 13.875 22.109375 8.640625 
Q 25.828125 3.421875 32.71875 3.421875 
z
M 16.796875 40.140625 
Q 20.125 43.796875 24.3125 45.59375 
Q 28.515625 47.40625 33.796875 47.40625 
Q 44.671875 47.40625 51 40.859375 
Q 57.328125 34.328125 57.328125 23 
Q 57.328125 11.921875 50.515625 5.25 
Q 43.703125 -1.421875 32.328125 -1.421875 
Q 19.96875 -1.421875 13.328125 7.78125 
Q 6.6875 17 6.6875 34.078125 
Q 6.6875 53.21875 14.546875 63.71875 
Q 22.40625 74.21875 36.71875 74.21875 
Q 40.578125 74.21875 44.828125 73.484375 
Q 49.078125 72.75 53.515625 71.296875 
L 53.515625 59.28125 
L 48 59.28125 
Q 47.40625 64.203125 44.234375 66.796875 
Q 41.0625 69.390625 35.6875 69.390625 
Q 26.21875 69.390625 21.578125 62.203125 
Q 16.9375 55.03125 16.796875 40.140625 
z
" id="DejaVuSerif-36"/>
    </defs>
    <g transform="translate(137.186318 248.652973)scale(0.1 -0.1)">
     <use xlink:href="#DejaVuSerif-36"/>
    </g>
   </g>
   <g id="text_24">
    <!-- 6 -->
    <g transform="translate(390.54848 276.804324)scale(0.1 -0.1)">
     <use xlink:href="#DejaVuSerif-36"/>
    </g>
   </g>
   <g id="text_25">
    <!-- 7 -->
    <defs>
     <path d="M 56.390625 67.921875 
L 27.875 0 
L 20.609375 0 
L 47.796875 64.890625 
L 14.109375 64.890625 
L 14.109375 55.90625 
L 8.40625 55.90625 
L 8.40625 72.90625 
L 56.390625 72.90625 
z
" id="DejaVuSerif-37"/>
    </defs>
    <g transform="translate(277.943074 192.35027)scale(0.1 -0.1)">
     <use xlink:href="#DejaVuSerif-37"/>
    </g>
   </g>
   <g id="text_26">
    <!-- 7 -->
    <g transform="translate(277.943074 333.107027)scale(0.1 -0.1)">
     <use xlink:href="#DejaVuSerif-37"/>
    </g>
   </g>
   <g id="text_27">
    <!-- 8 -->
    <defs>
     <path d="M 46.578125 19.921875 
Q 46.578125 27.734375 42.6875 32.046875 
Q 38.8125 36.375 31.78125 36.375 
Q 24.75 36.375 20.875 32.046875 
Q 17 27.734375 17 19.921875 
Q 17 12.0625 20.875 7.734375 
Q 24.75 3.421875 31.78125 3.421875 
Q 38.8125 3.421875 42.6875 7.734375 
Q 46.578125 12.0625 46.578125 19.921875 
z
M 44.578125 55.328125 
Q 44.578125 61.96875 41.203125 65.671875 
Q 37.84375 69.390625 31.78125 69.390625 
Q 25.78125 69.390625 22.390625 65.671875 
Q 19 61.96875 19 55.328125 
Q 19 48.640625 22.390625 44.921875 
Q 25.78125 41.21875 31.78125 41.21875 
Q 37.84375 41.21875 41.203125 44.921875 
Q 44.578125 48.640625 44.578125 55.328125 
z
M 39.3125 38.8125 
Q 47.609375 37.703125 52.25 32.6875 
Q 56.890625 27.6875 56.890625 19.921875 
Q 56.890625 9.671875 50.390625 4.125 
Q 43.890625 -1.421875 31.78125 -1.421875 
Q 19.734375 -1.421875 13.203125 4.125 
Q 6.6875 9.671875 6.6875 19.921875 
Q 6.6875 27.6875 11.328125 32.6875 
Q 15.96875 37.703125 24.3125 38.8125 
Q 16.9375 40.140625 13 44.40625 
Q 9.078125 48.6875 9.078125 55.328125 
Q 9.078125 64.109375 15.125 69.15625 
Q 21.1875 74.21875 31.78125 74.21875 
Q 42.390625 74.21875 48.4375 69.15625 
Q 54.5 64.109375 54.5 55.328125 
Q 54.5 48.6875 50.5625 44.40625 
Q 46.625 40.140625 39.3125 38.8125 
z
" id="DejaVuSerif-38"/>
    </defs>
    <g transform="translate(137.186318 304.955676)scale(0.1 -0.1)">
     <use xlink:href="#DejaVuSerif-38"/>
    </g>
   </g>
   <g id="text_28">
    <!-- 8 -->
    <g transform="translate(306.094426 276.804324)scale(0.1 -0.1)">
     <use xlink:href="#DejaVuSerif-38"/>
    </g>
   </g>
   <g id="text_29">
    <!-- 9 -->
    <defs>
     <path d="M 46.78125 32.671875 
Q 43.5 29 39.25 27.1875 
Q 35.015625 25.390625 29.6875 25.390625 
Q 18.84375 25.390625 12.5625 31.9375 
Q 6.296875 38.484375 6.296875 49.8125 
Q 6.296875 60.890625 13.109375 67.546875 
Q 19.921875 74.21875 31.296875 74.21875 
Q 43.65625 74.21875 50.265625 65.015625 
Q 56.890625 55.8125 56.890625 38.71875 
Q 56.890625 19.578125 49.015625 9.078125 
Q 41.15625 -1.421875 26.90625 -1.421875 
Q 23.046875 -1.421875 18.796875 -0.6875 
Q 14.546875 0.046875 10.109375 1.515625 
L 10.109375 13.625 
L 15.578125 13.625 
Q 16.21875 8.6875 19.390625 6.046875 
Q 22.5625 3.421875 27.875 3.421875 
Q 37.359375 3.421875 41.984375 10.5625 
Q 46.625 17.71875 46.78125 32.671875 
z
M 30.90625 69.390625 
Q 23.96875 69.390625 20.28125 64.328125 
Q 16.609375 59.28125 16.609375 49.8125 
Q 16.609375 40.328125 20.28125 35.25 
Q 23.96875 30.171875 30.90625 30.171875 
Q 37.84375 30.171875 41.53125 35.078125 
Q 45.21875 39.984375 45.21875 49.21875 
Q 45.21875 58.9375 41.5 64.15625 
Q 37.796875 69.390625 30.90625 69.390625 
z
" id="DejaVuSerif-39"/>
    </defs>
    <g transform="translate(390.54848 220.501622)scale(0.1 -0.1)">
     <use xlink:href="#DejaVuSerif-39"/>
    </g>
   </g>
   <g id="text_30">
    <!-- 9 -->
    <g transform="translate(137.186318 276.804324)scale(0.1 -0.1)">
     <use xlink:href="#DejaVuSerif-39"/>
    </g>
   </g>
   <g id="text_31">
    <!-- MRPP -->
    <defs>
     <path d="M 9.8125 72.90625 
L 24.515625 72.90625 
L 43.109375 23.296875 
L 61.8125 72.90625 
L 76.515625 72.90625 
L 76.515625 0 
L 66.890625 0 
L 66.890625 64.015625 
L 48.09375 14.015625 
L 38.1875 14.015625 
L 19.390625 64.015625 
L 19.390625 0 
L 9.8125 0 
z
" id="DejaVuSans-4d"/>
     <path d="M 44.390625 34.1875 
Q 47.5625 33.109375 50.5625 29.59375 
Q 53.5625 26.078125 56.59375 19.921875 
L 66.609375 0 
L 56 0 
L 46.6875 18.703125 
Q 43.0625 26.03125 39.671875 28.421875 
Q 36.28125 30.8125 30.421875 30.8125 
L 19.671875 30.8125 
L 19.671875 0 
L 9.8125 0 
L 9.8125 72.90625 
L 32.078125 72.90625 
Q 44.578125 72.90625 50.734375 67.671875 
Q 56.890625 62.453125 56.890625 51.90625 
Q 56.890625 45.015625 53.6875 40.46875 
Q 50.484375 35.9375 44.390625 34.1875 
z
M 19.671875 64.796875 
L 19.671875 38.921875 
L 32.078125 38.921875 
Q 39.203125 38.921875 42.84375 42.21875 
Q 46.484375 45.515625 46.484375 51.90625 
Q 46.484375 58.296875 42.84375 61.546875 
Q 39.203125 64.796875 32.078125 64.796875 
z
" id="DejaVuSans-52"/>
     <path d="M 19.671875 64.796875 
L 19.671875 37.40625 
L 32.078125 37.40625 
Q 38.96875 37.40625 42.71875 40.96875 
Q 46.484375 44.53125 46.484375 51.125 
Q 46.484375 57.671875 42.71875 61.234375 
Q 38.96875 64.796875 32.078125 64.796875 
z
M 9.8125 72.90625 
L 32.078125 72.90625 
Q 44.34375 72.90625 50.609375 67.359375 
Q 56.890625 61.8125 56.890625 51.125 
Q 56.890625 40.328125 50.609375 34.8125 
Q 44.34375 29.296875 32.078125 29.296875 
L 19.671875 29.296875 
L 19.671875 0 
L 9.8125 0 
z
" id="DejaVuSans-50"/>
    </defs>
    <g transform="translate(278.618437 63.12)scale(0.12 -0.12)">
     <use xlink:href="#DejaVuSans-4d"/>
     <use x="86.279297" xlink:href="#DejaVuSans-52"/>
     <use x="155.761719" xlink:href="#DejaVuSans-50"/>
     <use x="216.064453" xlink:href="#DejaVuSans-50"/>
    </g>
   </g>
  </g>
 </g>
 <defs>
  <clipPath id="p3460bde054">
   <rect height="443.52" width="446.4" x="72" y="69.12"/>
  </clipPath>
 </defs>
</svg>
