<?xml version="1.0" encoding="utf-8" standalone="no"?>
<!DOCTYPE svg PUBLIC "-//W3C//DTD SVG 1.1//EN"
  "http://www.w3.org/Graphics/SVG/1.1/DTD/svg11.dtd">
<!-- Created with matplotlib (http://matplotlib.org/) -->
<svg height="576pt" version="1.1" viewBox="0 0 576 576" width="576pt" xmlns="http://www.w3.org/2000/svg" xmlns:xlink="http://www.w3.org/1999/xlink">
 <defs>
  <style type="text/css">
*{stroke-linecap:butt;stroke-linejoin:round;}
  </style>
 </defs>
 <g id="figure_1">
  <g id="patch_1">
   <path d="M 0 576 
L 576 576 
L 576 0 
L 0 0 
z
" style="fill:#ffffff;"/>
  </g>
  <g id="axes_1">
   <g id="patch_2">
    <path d="M 72 512.64 
L 518.4 512.64 
L 518.4 69.12 
L 72 69.12 
z
" style="fill:#ffffff;"/>
   </g>
   <g id="matplotlib.axis_1">
    <g id="xtick_1">
     <g id="line2d_1">
      <defs>
       <path d="M 0 0 
L 0 3.5 
" id="me964870609" style="stroke:#000000;stroke-width:0.8;"/>
      </defs>
      <g>
       <use style="stroke:#000000;stroke-width:0.8;" x="112.216216" xlink:href="#me964870609" y="512.64"/>
      </g>
     </g>
     <g id="text_1">
      <!-- 0 -->
      <defs>
       <path d="M 31.78125 66.40625 
Q 24.171875 66.40625 20.328125 58.90625 
Q 16.5 51.421875 16.5 36.375 
Q 16.5 21.390625 20.328125 13.890625 
Q 24.171875 6.390625 31.78125 6.390625 
Q 39.453125 6.390625 43.28125 13.890625 
Q 47.125 21.390625 47.125 36.375 
Q 47.125 51.421875 43.28125 58.90625 
Q 39.453125 66.40625 31.78125 66.40625 
z
M 31.78125 74.21875 
Q 44.046875 74.21875 50.515625 64.515625 
Q 56.984375 54.828125 56.984375 36.375 
Q 56.984375 17.96875 50.515625 8.265625 
Q 44.046875 -1.421875 31.78125 -1.421875 
Q 19.53125 -1.421875 13.0625 8.265625 
Q 6.59375 17.96875 6.59375 36.375 
Q 6.59375 54.828125 13.0625 64.515625 
Q 19.53125 74.21875 31.78125 74.21875 
z
" id="DejaVuSans-30"/>
      </defs>
      <g transform="translate(109.034966 527.238438)scale(0.1 -0.1)">
       <use xlink:href="#DejaVuSans-30"/>
      </g>
     </g>
    </g>
    <g id="xtick_2">
     <g id="line2d_2">
      <g>
       <use style="stroke:#000000;stroke-width:0.8;" x="192.648649" xlink:href="#me964870609" y="512.64"/>
      </g>
     </g>
     <g id="text_2">
      <!-- 2 -->
      <defs>
       <path d="M 19.1875 8.296875 
L 53.609375 8.296875 
L 53.609375 0 
L 7.328125 0 
L 7.328125 8.296875 
Q 12.9375 14.109375 22.625 23.890625 
Q 32.328125 33.6875 34.8125 36.53125 
Q 39.546875 41.84375 41.421875 45.53125 
Q 43.3125 49.21875 43.3125 52.78125 
Q 43.3125 58.59375 39.234375 62.25 
Q 35.15625 65.921875 28.609375 65.921875 
Q 23.96875 65.921875 18.8125 64.3125 
Q 13.671875 62.703125 7.8125 59.421875 
L 7.8125 69.390625 
Q 13.765625 71.78125 18.9375 73 
Q 24.125 74.21875 28.421875 74.21875 
Q 39.75 74.21875 46.484375 68.546875 
Q 53.21875 62.890625 53.21875 53.421875 
Q 53.21875 48.921875 51.53125 44.890625 
Q 49.859375 40.875 45.40625 35.40625 
Q 44.1875 33.984375 37.640625 27.21875 
Q 31.109375 20.453125 19.1875 8.296875 
z
" id="DejaVuSans-32"/>
      </defs>
      <g transform="translate(189.467399 527.238438)scale(0.1 -0.1)">
       <use xlink:href="#DejaVuSans-32"/>
      </g>
     </g>
    </g>
    <g id="xtick_3">
     <g id="line2d_3">
      <g>
       <use style="stroke:#000000;stroke-width:0.8;" x="273.081081" xlink:href="#me964870609" y="512.64"/>
      </g>
     </g>
     <g id="text_3">
      <!-- 4 -->
      <defs>
       <path d="M 37.796875 64.3125 
L 12.890625 25.390625 
L 37.796875 25.390625 
z
M 35.203125 72.90625 
L 47.609375 72.90625 
L 47.609375 25.390625 
L 58.015625 25.390625 
L 58.015625 17.1875 
L 47.609375 17.1875 
L 47.609375 0 
L 37.796875 0 
L 37.796875 17.1875 
L 4.890625 17.1875 
L 4.890625 26.703125 
z
" id="DejaVuSans-34"/>
      </defs>
      <g transform="translate(269.899831 527.238438)scale(0.1 -0.1)">
       <use xlink:href="#DejaVuSans-34"/>
      </g>
     </g>
    </g>
    <g id="xtick_4">
     <g id="line2d_4">
      <g>
       <use style="stroke:#000000;stroke-width:0.8;" x="353.513514" xlink:href="#me964870609" y="512.64"/>
      </g>
     </g>
     <g id="text_4">
      <!-- 6 -->
      <defs>
       <path d="M 33.015625 40.375 
Q 26.375 40.375 22.484375 35.828125 
Q 18.609375 31.296875 18.609375 23.390625 
Q 18.609375 15.53125 22.484375 10.953125 
Q 26.375 6.390625 33.015625 6.390625 
Q 39.65625 6.390625 43.53125 10.953125 
Q 47.40625 15.53125 47.40625 23.390625 
Q 47.40625 31.296875 43.53125 35.828125 
Q 39.65625 40.375 33.015625 40.375 
z
M 52.59375 71.296875 
L 52.59375 62.3125 
Q 48.875 64.0625 45.09375 64.984375 
Q 41.3125 65.921875 37.59375 65.921875 
Q 27.828125 65.921875 22.671875 59.328125 
Q 17.53125 52.734375 16.796875 39.40625 
Q 19.671875 43.65625 24.015625 45.921875 
Q 28.375 48.1875 33.59375 48.1875 
Q 44.578125 48.1875 50.953125 41.515625 
Q 57.328125 34.859375 57.328125 23.390625 
Q 57.328125 12.15625 50.6875 5.359375 
Q 44.046875 -1.421875 33.015625 -1.421875 
Q 20.359375 -1.421875 13.671875 8.265625 
Q 6.984375 17.96875 6.984375 36.375 
Q 6.984375 53.65625 15.1875 63.9375 
Q 23.390625 74.21875 37.203125 74.21875 
Q 40.921875 74.21875 44.703125 73.484375 
Q 48.484375 72.75 52.59375 71.296875 
z
" id="DejaVuSans-36"/>
      </defs>
      <g transform="translate(350.332264 527.238438)scale(0.1 -0.1)">
       <use xlink:href="#DejaVuSans-36"/>
      </g>
     </g>
    </g>
    <g id="xtick_5">
     <g id="line2d_5">
      <g>
       <use style="stroke:#000000;stroke-width:0.8;" x="433.945946" xlink:href="#me964870609" y="512.64"/>
      </g>
     </g>
     <g id="text_5">
      <!-- 8 -->
      <defs>
       <path d="M 31.78125 34.625 
Q 24.75 34.625 20.71875 30.859375 
Q 16.703125 27.09375 16.703125 20.515625 
Q 16.703125 13.921875 20.71875 10.15625 
Q 24.75 6.390625 31.78125 6.390625 
Q 38.8125 6.390625 42.859375 10.171875 
Q 46.921875 13.96875 46.921875 20.515625 
Q 46.921875 27.09375 42.890625 30.859375 
Q 38.875 34.625 31.78125 34.625 
z
M 21.921875 38.8125 
Q 15.578125 40.375 12.03125 44.71875 
Q 8.5 49.078125 8.5 55.328125 
Q 8.5 64.0625 14.71875 69.140625 
Q 20.953125 74.21875 31.78125 74.21875 
Q 42.671875 74.21875 48.875 69.140625 
Q 55.078125 64.0625 55.078125 55.328125 
Q 55.078125 49.078125 51.53125 44.71875 
Q 48 40.375 41.703125 38.8125 
Q 48.828125 37.15625 52.796875 32.3125 
Q 56.78125 27.484375 56.78125 20.515625 
Q 56.78125 9.90625 50.3125 4.234375 
Q 43.84375 -1.421875 31.78125 -1.421875 
Q 19.734375 -1.421875 13.25 4.234375 
Q 6.78125 9.90625 6.78125 20.515625 
Q 6.78125 27.484375 10.78125 32.3125 
Q 14.796875 37.15625 21.921875 38.8125 
z
M 18.3125 54.390625 
Q 18.3125 48.734375 21.84375 45.5625 
Q 25.390625 42.390625 31.78125 42.390625 
Q 38.140625 42.390625 41.71875 45.5625 
Q 45.3125 48.734375 45.3125 54.390625 
Q 45.3125 60.0625 41.71875 63.234375 
Q 38.140625 66.40625 31.78125 66.40625 
Q 25.390625 66.40625 21.84375 63.234375 
Q 18.3125 60.0625 18.3125 54.390625 
z
" id="DejaVuSans-38"/>
      </defs>
      <g transform="translate(430.764696 527.238438)scale(0.1 -0.1)">
       <use xlink:href="#DejaVuSans-38"/>
      </g>
     </g>
    </g>
    <g id="xtick_6">
     <g id="line2d_6">
      <g>
       <use style="stroke:#000000;stroke-width:0.8;" x="514.378378" xlink:href="#me964870609" y="512.64"/>
      </g>
     </g>
     <g id="text_6">
      <!-- 10 -->
      <defs>
       <path d="M 12.40625 8.296875 
L 28.515625 8.296875 
L 28.515625 63.921875 
L 10.984375 60.40625 
L 10.984375 69.390625 
L 28.421875 72.90625 
L 38.28125 72.90625 
L 38.28125 8.296875 
L 54.390625 8.296875 
L 54.390625 0 
L 12.40625 0 
z
" id="DejaVuSans-31"/>
      </defs>
      <g transform="translate(508.015878 527.238438)scale(0.1 -0.1)">
       <use xlink:href="#DejaVuSans-31"/>
       <use x="63.623047" xlink:href="#DejaVuSans-30"/>
      </g>
     </g>
    </g>
   </g>
   <g id="matplotlib.axis_2">
    <g id="ytick_1">
     <g id="line2d_7">
      <defs>
       <path d="M 0 0 
L -3.5 0 
" id="m39692b2fe4" style="stroke:#000000;stroke-width:0.8;"/>
      </defs>
      <g>
       <use style="stroke:#000000;stroke-width:0.8;" x="72" xlink:href="#m39692b2fe4" y="473.863784"/>
      </g>
     </g>
     <g id="text_7">
      <!-- 0 -->
      <g transform="translate(58.6375 477.663003)scale(0.1 -0.1)">
       <use xlink:href="#DejaVuSans-30"/>
      </g>
     </g>
    </g>
    <g id="ytick_2">
     <g id="line2d_8">
      <g>
       <use style="stroke:#000000;stroke-width:0.8;" x="72" xlink:href="#m39692b2fe4" y="393.431351"/>
      </g>
     </g>
     <g id="text_8">
      <!-- 2 -->
      <g transform="translate(58.6375 397.23057)scale(0.1 -0.1)">
       <use xlink:href="#DejaVuSans-32"/>
      </g>
     </g>
    </g>
    <g id="ytick_3">
     <g id="line2d_9">
      <g>
       <use style="stroke:#000000;stroke-width:0.8;" x="72" xlink:href="#m39692b2fe4" y="312.998919"/>
      </g>
     </g>
     <g id="text_9">
      <!-- 4 -->
      <g transform="translate(58.6375 316.798138)scale(0.1 -0.1)">
       <use xlink:href="#DejaVuSans-34"/>
      </g>
     </g>
    </g>
    <g id="ytick_4">
     <g id="line2d_10">
      <g>
       <use style="stroke:#000000;stroke-width:0.8;" x="72" xlink:href="#m39692b2fe4" y="232.566486"/>
      </g>
     </g>
     <g id="text_10">
      <!-- 6 -->
      <g transform="translate(58.6375 236.365705)scale(0.1 -0.1)">
       <use xlink:href="#DejaVuSans-36"/>
      </g>
     </g>
    </g>
    <g id="ytick_5">
     <g id="line2d_11">
      <g>
       <use style="stroke:#000000;stroke-width:0.8;" x="72" xlink:href="#m39692b2fe4" y="152.134054"/>
      </g>
     </g>
     <g id="text_11">
      <!-- 8 -->
      <g transform="translate(58.6375 155.933273)scale(0.1 -0.1)">
       <use xlink:href="#DejaVuSans-38"/>
      </g>
     </g>
    </g>
    <g id="ytick_6">
     <g id="line2d_12">
      <g>
       <use style="stroke:#000000;stroke-width:0.8;" x="72" xlink:href="#m39692b2fe4" y="71.701622"/>
      </g>
     </g>
     <g id="text_12">
      <!-- 10 -->
      <g transform="translate(52.275 75.50084)scale(0.1 -0.1)">
       <use xlink:href="#DejaVuSans-31"/>
       <use x="63.623047" xlink:href="#DejaVuSans-30"/>
      </g>
     </g>
    </g>
   </g>
   <g id="line2d_13">
    <path clip-path="url(#p65acbdb621)" d="M 140.367568 389.40973 
" style="fill:none;stroke:#1f77b4;stroke-linecap:square;stroke-width:1.5;"/>
    <defs>
     <path d="M -5 5 
L 5 5 
L 5 -5 
L -5 -5 
z
" id="m2ed906cfa5" style="stroke:#8000ff;stroke-linejoin:miter;"/>
    </defs>
    <g clip-path="url(#p65acbdb621)">
     <use style="fill:#8000ff;stroke:#8000ff;stroke-linejoin:miter;" x="140.367568" xlink:href="#m2ed906cfa5" y="389.40973"/>
    </g>
   </g>
   <g id="line2d_14">
    <path clip-path="url(#p65acbdb621)" d="M 393.72973 192.35027 
" style="fill:none;stroke:#ff7f0e;stroke-linecap:square;stroke-width:1.5;"/>
    <defs>
     <path d="M 0 -5 
L -4.755283 -1.545085 
L -2.938926 4.045085 
L 2.938926 4.045085 
L 4.755283 -1.545085 
z
" id="m59b6e12e73" style="stroke:#8000ff;stroke-linejoin:miter;"/>
    </defs>
    <g clip-path="url(#p65acbdb621)">
     <use style="fill:#8000ff;stroke:#8000ff;stroke-linejoin:miter;" x="393.72973" xlink:href="#m59b6e12e73" y="192.35027"/>
    </g>
   </g>
   <g id="line2d_15">
    <path clip-path="url(#p65acbdb621)" d="M 450.032432 192.35027 
" style="fill:none;stroke:#2ca02c;stroke-linecap:square;stroke-width:1.5;"/>
    <defs>
     <path d="M -5 5 
L 5 5 
L 5 -5 
L -5 -5 
z
" id="mefb5b9ccd2" style="stroke:#4062fa;stroke-linejoin:miter;"/>
    </defs>
    <g clip-path="url(#p65acbdb621)">
     <use style="fill:#4062fa;stroke:#4062fa;stroke-linejoin:miter;" x="450.032432" xlink:href="#mefb5b9ccd2" y="192.35027"/>
    </g>
   </g>
   <g id="line2d_16">
    <path clip-path="url(#p65acbdb621)" d="M 224.821622 361.258378 
" style="fill:none;stroke:#d62728;stroke-linecap:square;stroke-width:1.5;"/>
    <defs>
     <path d="M 0 -5 
L -4.755283 -1.545085 
L -2.938926 4.045085 
L 2.938926 4.045085 
L 4.755283 -1.545085 
z
" id="m03dd9f49de" style="stroke:#4062fa;stroke-linejoin:miter;"/>
    </defs>
    <g clip-path="url(#p65acbdb621)">
     <use style="fill:#4062fa;stroke:#4062fa;stroke-linejoin:miter;" x="224.821622" xlink:href="#m03dd9f49de" y="361.258378"/>
    </g>
   </g>
   <g id="line2d_17">
    <path clip-path="url(#p65acbdb621)" d="M 402.175135 440.082162 
" style="fill:none;stroke:#9467bd;stroke-linecap:square;stroke-width:1.5;"/>
    <defs>
     <path d="M -5 5 
L 5 5 
L 5 -5 
L -5 -5 
z
" id="ma304533e96" style="stroke:#00b4ec;stroke-linejoin:miter;"/>
    </defs>
    <g clip-path="url(#p65acbdb621)">
     <use style="fill:#00b4ec;stroke:#00b4ec;stroke-linejoin:miter;" x="402.175135" xlink:href="#ma304533e96" y="440.082162"/>
    </g>
   </g>
   <g id="line2d_18">
    <path clip-path="url(#p65acbdb621)" d="M 224.821622 192.35027 
" style="fill:none;stroke:#8c564b;stroke-linecap:square;stroke-width:1.5;"/>
    <defs>
     <path d="M 0 -5 
L -4.755283 -1.545085 
L -2.938926 4.045085 
L 2.938926 4.045085 
L 4.755283 -1.545085 
z
" id="md1f737de92" style="stroke:#00b4ec;stroke-linejoin:miter;"/>
    </defs>
    <g clip-path="url(#p65acbdb621)">
     <use style="fill:#00b4ec;stroke:#00b4ec;stroke-linejoin:miter;" x="224.821622" xlink:href="#md1f737de92" y="192.35027"/>
    </g>
   </g>
   <g id="line2d_19">
    <path clip-path="url(#p65acbdb621)" d="M 224.821622 136.047568 
" style="fill:none;stroke:#e377c2;stroke-linecap:square;stroke-width:1.5;"/>
    <defs>
     <path d="M -5 5 
L 5 5 
L 5 -5 
L -5 -5 
z
" id="m430bfa8116" style="stroke:#40ecd4;stroke-linejoin:miter;"/>
    </defs>
    <g clip-path="url(#p65acbdb621)">
     <use style="fill:#40ecd4;stroke:#40ecd4;stroke-linejoin:miter;" x="224.821622" xlink:href="#m430bfa8116" y="136.047568"/>
    </g>
   </g>
   <g id="line2d_20">
    <path clip-path="url(#p65acbdb621)" d="M 393.72973 361.258378 
" style="fill:none;stroke:#7f7f7f;stroke-linecap:square;stroke-width:1.5;"/>
    <defs>
     <path d="M 0 -5 
L -4.755283 -1.545085 
L -2.938926 4.045085 
L 2.938926 4.045085 
L 4.755283 -1.545085 
z
" id="mec2240dc2f" style="stroke:#40ecd4;stroke-linejoin:miter;"/>
    </defs>
    <g clip-path="url(#p65acbdb621)">
     <use style="fill:#40ecd4;stroke:#40ecd4;stroke-linejoin:miter;" x="393.72973" xlink:href="#mec2240dc2f" y="361.258378"/>
    </g>
   </g>
   <g id="line2d_21">
    <path clip-path="url(#p65acbdb621)" d="M 450.032432 304.955676 
" style="fill:none;stroke:#bcbd22;stroke-linecap:square;stroke-width:1.5;"/>
    <defs>
     <path d="M -5 5 
L 5 5 
L 5 -5 
L -5 -5 
z
" id="m907dbbd663" style="stroke:#80ffb4;stroke-linejoin:miter;"/>
    </defs>
    <g clip-path="url(#p65acbdb621)">
     <use style="fill:#80ffb4;stroke:#80ffb4;stroke-linejoin:miter;" x="450.032432" xlink:href="#m907dbbd663" y="304.955676"/>
    </g>
   </g>
   <g id="line2d_22">
    <path clip-path="url(#p65acbdb621)" d="M 196.67027 248.652973 
" style="fill:none;stroke:#17becf;stroke-linecap:square;stroke-width:1.5;"/>
    <defs>
     <path d="M 0 -5 
L -4.755283 -1.545085 
L -2.938926 4.045085 
L 2.938926 4.045085 
L 4.755283 -1.545085 
z
" id="m2343ed3fc7" style="stroke:#80ffb4;stroke-linejoin:miter;"/>
    </defs>
    <g clip-path="url(#p65acbdb621)">
     <use style="fill:#80ffb4;stroke:#80ffb4;stroke-linejoin:miter;" x="196.67027" xlink:href="#m2343ed3fc7" y="248.652973"/>
    </g>
   </g>
   <g id="line2d_23">
    <path clip-path="url(#p65acbdb621)" d="M 140.367568 248.652973 
" style="fill:none;stroke:#1f77b4;stroke-linecap:square;stroke-width:1.5;"/>
    <defs>
     <path d="M -5 5 
L 5 5 
L 5 -5 
L -5 -5 
z
" id="m513e5e3a70" style="stroke:#bfec8e;stroke-linejoin:miter;"/>
    </defs>
    <g clip-path="url(#p65acbdb621)">
     <use style="fill:#bfec8e;stroke:#bfec8e;stroke-linejoin:miter;" x="140.367568" xlink:href="#m513e5e3a70" y="248.652973"/>
    </g>
   </g>
   <g id="line2d_24">
    <path clip-path="url(#p65acbdb621)" d="M 393.72973 276.804324 
" style="fill:none;stroke:#ff7f0e;stroke-linecap:square;stroke-width:1.5;"/>
    <defs>
     <path d="M 0 -5 
L -4.755283 -1.545085 
L -2.938926 4.045085 
L 2.938926 4.045085 
L 4.755283 -1.545085 
z
" id="m536c92de87" style="stroke:#bfec8e;stroke-linejoin:miter;"/>
    </defs>
    <g clip-path="url(#p65acbdb621)">
     <use style="fill:#bfec8e;stroke:#bfec8e;stroke-linejoin:miter;" x="393.72973" xlink:href="#m536c92de87" y="276.804324"/>
    </g>
   </g>
   <g id="line2d_25">
    <path clip-path="url(#p65acbdb621)" d="M 281.124324 192.35027 
" style="fill:none;stroke:#2ca02c;stroke-linecap:square;stroke-width:1.5;"/>
    <defs>
     <path d="M -5 5 
L 5 5 
L 5 -5 
L -5 -5 
z
" id="m8acd59c736" style="stroke:#ffb462;stroke-linejoin:miter;"/>
    </defs>
    <g clip-path="url(#p65acbdb621)">
     <use style="fill:#ffb462;stroke:#ffb462;stroke-linejoin:miter;" x="281.124324" xlink:href="#m8acd59c736" y="192.35027"/>
    </g>
   </g>
   <g id="line2d_26">
    <path clip-path="url(#p65acbdb621)" d="M 281.124324 333.107027 
" style="fill:none;stroke:#d62728;stroke-linecap:square;stroke-width:1.5;"/>
    <defs>
     <path d="M 0 -5 
L -4.755283 -1.545085 
L -2.938926 4.045085 
L 2.938926 4.045085 
L 4.755283 -1.545085 
z
" id="m2cdef07ad7" style="stroke:#ffb462;stroke-linejoin:miter;"/>
    </defs>
    <g clip-path="url(#p65acbdb621)">
     <use style="fill:#ffb462;stroke:#ffb462;stroke-linejoin:miter;" x="281.124324" xlink:href="#m2cdef07ad7" y="333.107027"/>
    </g>
   </g>
   <g id="line2d_27">
    <path clip-path="url(#p65acbdb621)" d="M 140.367568 304.955676 
" style="fill:none;stroke:#9467bd;stroke-linecap:square;stroke-width:1.5;"/>
    <defs>
     <path d="M -5 5 
L 5 5 
L 5 -5 
L -5 -5 
z
" id="mb202a71d69" style="stroke:#ff6232;stroke-linejoin:miter;"/>
    </defs>
    <g clip-path="url(#p65acbdb621)">
     <use style="fill:#ff6232;stroke:#ff6232;stroke-linejoin:miter;" x="140.367568" xlink:href="#mb202a71d69" y="304.955676"/>
    </g>
   </g>
   <g id="line2d_28">
    <path clip-path="url(#p65acbdb621)" d="M 309.275676 276.804324 
" style="fill:none;stroke:#8c564b;stroke-linecap:square;stroke-width:1.5;"/>
    <defs>
     <path d="M 0 -5 
L -4.755283 -1.545085 
L -2.938926 4.045085 
L 2.938926 4.045085 
L 4.755283 -1.545085 
z
" id="mf334f7e961" style="stroke:#ff6232;stroke-linejoin:miter;"/>
    </defs>
    <g clip-path="url(#p65acbdb621)">
     <use style="fill:#ff6232;stroke:#ff6232;stroke-linejoin:miter;" x="309.275676" xlink:href="#mf334f7e961" y="276.804324"/>
    </g>
   </g>
   <g id="line2d_29">
    <path clip-path="url(#p65acbdb621)" d="M 393.72973 220.501622 
" style="fill:none;stroke:#e377c2;stroke-linecap:square;stroke-width:1.5;"/>
    <defs>
     <path d="M -5 5 
L 5 5 
L 5 -5 
L -5 -5 
z
" id="m7a17c58748" style="stroke:#ff0000;stroke-linejoin:miter;"/>
    </defs>
    <g clip-path="url(#p65acbdb621)">
     <use style="fill:#ff0000;stroke:#ff0000;stroke-linejoin:miter;" x="393.72973" xlink:href="#m7a17c58748" y="220.501622"/>
    </g>
   </g>
   <g id="line2d_30">
    <path clip-path="url(#p65acbdb621)" d="M 140.367568 276.804324 
" style="fill:none;stroke:#7f7f7f;stroke-linecap:square;stroke-width:1.5;"/>
    <defs>
     <path d="M 0 -5 
L -4.755283 -1.545085 
L -2.938926 4.045085 
L 2.938926 4.045085 
L 4.755283 -1.545085 
z
" id="mfc979bce60" style="stroke:#ff0000;stroke-linejoin:miter;"/>
    </defs>
    <g clip-path="url(#p65acbdb621)">
     <use style="fill:#ff0000;stroke:#ff0000;stroke-linejoin:miter;" x="140.367568" xlink:href="#mfc979bce60" y="276.804324"/>
    </g>
   </g>
   <g id="line2d_31">
    <defs>
     <path d="M 0 2.5 
C 0.663008 2.5 1.29895 2.236584 1.767767 1.767767 
C 2.236584 1.29895 2.5 0.663008 2.5 0 
C 2.5 -0.663008 2.236584 -1.29895 1.767767 -1.767767 
C 1.29895 -2.236584 0.663008 -2.5 0 -2.5 
C -0.663008 -2.5 -1.29895 -2.236584 -1.767767 -1.767767 
C -2.236584 -1.29895 -2.5 -0.663008 -2.5 0 
C -2.5 0.663008 -2.236584 1.29895 -1.767767 1.767767 
C -1.29895 2.236584 -0.663008 2.5 0 2.5 
z
" id="m3274abb017" style="stroke:#000000;"/>
    </defs>
    <g clip-path="url(#p65acbdb621)">
     <use style="stroke:#000000;" x="196.67027" xlink:href="#m3274abb017" y="389.40973"/>
     <use style="stroke:#000000;" x="196.67027" xlink:href="#m3274abb017" y="333.107027"/>
     <use style="stroke:#000000;" x="252.972973" xlink:href="#m3274abb017" y="389.40973"/>
     <use style="stroke:#000000;" x="252.972973" xlink:href="#m3274abb017" y="333.107027"/>
     <use style="stroke:#000000;" x="309.275676" xlink:href="#m3274abb017" y="389.40973"/>
     <use style="stroke:#000000;" x="309.275676" xlink:href="#m3274abb017" y="333.107027"/>
     <use style="stroke:#000000;" x="365.578378" xlink:href="#m3274abb017" y="389.40973"/>
     <use style="stroke:#000000;" x="365.578378" xlink:href="#m3274abb017" y="333.107027"/>
     <use style="stroke:#000000;" x="421.881081" xlink:href="#m3274abb017" y="389.40973"/>
     <use style="stroke:#000000;" x="421.881081" xlink:href="#m3274abb017" y="333.107027"/>
     <use style="stroke:#000000;" x="196.67027" xlink:href="#m3274abb017" y="220.501622"/>
     <use style="stroke:#000000;" x="196.67027" xlink:href="#m3274abb017" y="164.198919"/>
     <use style="stroke:#000000;" x="252.972973" xlink:href="#m3274abb017" y="220.501622"/>
     <use style="stroke:#000000;" x="252.972973" xlink:href="#m3274abb017" y="164.198919"/>
     <use style="stroke:#000000;" x="309.275676" xlink:href="#m3274abb017" y="220.501622"/>
     <use style="stroke:#000000;" x="309.275676" xlink:href="#m3274abb017" y="164.198919"/>
     <use style="stroke:#000000;" x="365.578378" xlink:href="#m3274abb017" y="220.501622"/>
     <use style="stroke:#000000;" x="365.578378" xlink:href="#m3274abb017" y="164.198919"/>
     <use style="stroke:#000000;" x="421.881081" xlink:href="#m3274abb017" y="220.501622"/>
     <use style="stroke:#000000;" x="421.881081" xlink:href="#m3274abb017" y="164.198919"/>
    </g>
   </g>
   <g id="line2d_32">
    <path clip-path="url(#p65acbdb621)" d="M 212.354595 389.40973 
L 211.504775 384.317038 
L 209.047406 379.776218 
L 205.248783 376.279339 
L 200.520544 374.205342 
L 195.375069 373.778975 
L 190.369949 375.046444 
L 186.047566 377.870397 
L 182.876319 381.944816 
L 181.19986 386.828175 
L 181.19986 391.991285 
L 182.876319 396.874643 
L 186.047566 400.949062 
L 190.369949 403.773016 
L 195.375069 405.040484 
L 200.520544 404.614118 
L 205.248783 402.54012 
L 209.047406 399.043241 
L 211.504775 394.502422 
L 212.354595 389.40973 
" style="fill:none;stroke:#000000;stroke-dasharray:5.55,2.4;stroke-dashoffset:0;stroke-width:1.5;"/>
   </g>
   <g id="line2d_33">
    <path clip-path="url(#p65acbdb621)" d="M 201.094054 389.40973 
L 200.854361 387.973329 
L 200.161257 386.692585 
L 199.089851 385.706286 
L 197.756245 385.121313 
L 196.304957 385.001055 
L 194.893257 385.358547 
L 193.674123 386.155046 
L 192.779669 387.304241 
L 192.306821 388.681599 
L 192.306821 390.137861 
L 192.779669 391.515218 
L 193.674123 392.664413 
L 194.893257 393.460913 
L 196.304957 393.818404 
L 197.756245 393.698147 
L 199.089851 393.113173 
L 200.161257 392.126874 
L 200.854361 390.84613 
L 201.094054 389.40973 
" style="fill:none;stroke:#ff0000;stroke-linecap:square;stroke-width:1.5;"/>
   </g>
   <g id="line2d_34">
    <path clip-path="url(#p65acbdb621)" d="M 212.354595 333.107027 
L 211.504775 328.014335 
L 209.047406 323.473516 
L 205.248783 319.976636 
L 200.520544 317.902639 
L 195.375069 317.476273 
L 190.369949 318.743741 
L 186.047566 321.567695 
L 182.876319 325.642114 
L 181.19986 330.525472 
L 181.19986 335.688582 
L 182.876319 340.57194 
L 186.047566 344.646359 
L 190.369949 347.470313 
L 195.375069 348.737781 
L 200.520544 348.311415 
L 205.248783 346.237418 
L 209.047406 342.740538 
L 211.504775 338.199719 
L 212.354595 333.107027 
" style="fill:none;stroke:#000000;stroke-dasharray:5.55,2.4;stroke-dashoffset:0;stroke-width:1.5;"/>
   </g>
   <g id="line2d_35">
    <path clip-path="url(#p65acbdb621)" d="M 201.094054 333.107027 
L 200.854361 331.670627 
L 200.161257 330.389883 
L 199.089851 329.403584 
L 197.756245 328.81861 
L 196.304957 328.698353 
L 194.893257 329.055844 
L 193.674123 329.852344 
L 192.779669 331.001539 
L 192.306821 332.378896 
L 192.306821 333.835158 
L 192.779669 335.212515 
L 193.674123 336.361711 
L 194.893257 337.15821 
L 196.304957 337.515701 
L 197.756245 337.395444 
L 199.089851 336.810471 
L 200.161257 335.824171 
L 200.854361 334.543427 
L 201.094054 333.107027 
" style="fill:none;stroke:#ff0000;stroke-linecap:square;stroke-width:1.5;"/>
   </g>
   <g id="line2d_36">
    <path clip-path="url(#p65acbdb621)" d="M 268.657297 389.40973 
L 267.807477 384.317038 
L 265.350109 379.776218 
L 261.551485 376.279339 
L 256.823247 374.205342 
L 251.677772 373.778975 
L 246.672652 375.046444 
L 242.350269 377.870397 
L 239.179021 381.944816 
L 237.502562 386.828175 
L 237.502562 391.991285 
L 239.179021 396.874643 
L 242.350269 400.949062 
L 246.672652 403.773016 
L 251.677772 405.040484 
L 256.823247 404.614118 
L 261.551485 402.54012 
L 265.350109 399.043241 
L 267.807477 394.502422 
L 268.657297 389.40973 
" style="fill:none;stroke:#000000;stroke-dasharray:5.55,2.4;stroke-dashoffset:0;stroke-width:1.5;"/>
   </g>
   <g id="line2d_37">
    <path clip-path="url(#p65acbdb621)" d="M 257.396757 389.40973 
L 257.157064 387.973329 
L 256.46396 386.692585 
L 255.392553 385.706286 
L 254.058948 385.121313 
L 252.60766 385.001055 
L 251.195959 385.358547 
L 249.976826 386.155046 
L 249.082371 387.304241 
L 248.609524 388.681599 
L 248.609524 390.137861 
L 249.082371 391.515218 
L 249.976826 392.664413 
L 251.195959 393.460913 
L 252.60766 393.818404 
L 254.058948 393.698147 
L 255.392553 393.113173 
L 256.46396 392.126874 
L 257.157064 390.84613 
L 257.396757 389.40973 
" style="fill:none;stroke:#ff0000;stroke-linecap:square;stroke-width:1.5;"/>
   </g>
   <g id="line2d_38">
    <path clip-path="url(#p65acbdb621)" d="M 268.657297 333.107027 
L 267.807477 328.014335 
L 265.350109 323.473516 
L 261.551485 319.976636 
L 256.823247 317.902639 
L 251.677772 317.476273 
L 246.672652 318.743741 
L 242.350269 321.567695 
L 239.179021 325.642114 
L 237.502562 330.525472 
L 237.502562 335.688582 
L 239.179021 340.57194 
L 242.350269 344.646359 
L 246.672652 347.470313 
L 251.677772 348.737781 
L 256.823247 348.311415 
L 261.551485 346.237418 
L 265.350109 342.740538 
L 267.807477 338.199719 
L 268.657297 333.107027 
" style="fill:none;stroke:#000000;stroke-dasharray:5.55,2.4;stroke-dashoffset:0;stroke-width:1.5;"/>
   </g>
   <g id="line2d_39">
    <path clip-path="url(#p65acbdb621)" d="M 257.396757 333.107027 
L 257.157064 331.670627 
L 256.46396 330.389883 
L 255.392553 329.403584 
L 254.058948 328.81861 
L 252.60766 328.698353 
L 251.195959 329.055844 
L 249.976826 329.852344 
L 249.082371 331.001539 
L 248.609524 332.378896 
L 248.609524 333.835158 
L 249.082371 335.212515 
L 249.976826 336.361711 
L 251.195959 337.15821 
L 252.60766 337.515701 
L 254.058948 337.395444 
L 255.392553 336.810471 
L 256.46396 335.824171 
L 257.157064 334.543427 
L 257.396757 333.107027 
" style="fill:none;stroke:#ff0000;stroke-linecap:square;stroke-width:1.5;"/>
   </g>
   <g id="line2d_40">
    <path clip-path="url(#p65acbdb621)" d="M 324.96 389.40973 
L 324.11018 384.317038 
L 321.652811 379.776218 
L 317.854188 376.279339 
L 313.12595 374.205342 
L 307.980474 373.778975 
L 302.975354 375.046444 
L 298.652972 377.870397 
L 295.481724 381.944816 
L 293.805265 386.828175 
L 293.805265 391.991285 
L 295.481724 396.874643 
L 298.652972 400.949062 
L 302.975354 403.773016 
L 307.980474 405.040484 
L 313.12595 404.614118 
L 317.854188 402.54012 
L 321.652811 399.043241 
L 324.11018 394.502422 
L 324.96 389.40973 
" style="fill:none;stroke:#000000;stroke-dasharray:5.55,2.4;stroke-dashoffset:0;stroke-width:1.5;"/>
   </g>
   <g id="line2d_41">
    <path clip-path="url(#p65acbdb621)" d="M 313.699459 389.40973 
L 313.459767 387.973329 
L 312.766663 386.692585 
L 311.695256 385.706286 
L 310.36165 385.121313 
L 308.910363 385.001055 
L 307.498662 385.358547 
L 306.279528 386.155046 
L 305.385074 387.304241 
L 304.912227 388.681599 
L 304.912227 390.137861 
L 305.385074 391.515218 
L 306.279528 392.664413 
L 307.498662 393.460913 
L 308.910363 393.818404 
L 310.36165 393.698147 
L 311.695256 393.113173 
L 312.766663 392.126874 
L 313.459767 390.84613 
L 313.699459 389.40973 
" style="fill:none;stroke:#ff0000;stroke-linecap:square;stroke-width:1.5;"/>
   </g>
   <g id="line2d_42">
    <path clip-path="url(#p65acbdb621)" d="M 324.96 333.107027 
L 324.11018 328.014335 
L 321.652811 323.473516 
L 317.854188 319.976636 
L 313.12595 317.902639 
L 307.980474 317.476273 
L 302.975354 318.743741 
L 298.652972 321.567695 
L 295.481724 325.642114 
L 293.805265 330.525472 
L 293.805265 335.688582 
L 295.481724 340.57194 
L 298.652972 344.646359 
L 302.975354 347.470313 
L 307.980474 348.737781 
L 313.12595 348.311415 
L 317.854188 346.237418 
L 321.652811 342.740538 
L 324.11018 338.199719 
L 324.96 333.107027 
" style="fill:none;stroke:#000000;stroke-dasharray:5.55,2.4;stroke-dashoffset:0;stroke-width:1.5;"/>
   </g>
   <g id="line2d_43">
    <path clip-path="url(#p65acbdb621)" d="M 313.699459 333.107027 
L 313.459767 331.670627 
L 312.766663 330.389883 
L 311.695256 329.403584 
L 310.36165 328.81861 
L 308.910363 328.698353 
L 307.498662 329.055844 
L 306.279528 329.852344 
L 305.385074 331.001539 
L 304.912227 332.378896 
L 304.912227 333.835158 
L 305.385074 335.212515 
L 306.279528 336.361711 
L 307.498662 337.15821 
L 308.910363 337.515701 
L 310.36165 337.395444 
L 311.695256 336.810471 
L 312.766663 335.824171 
L 313.459767 334.543427 
L 313.699459 333.107027 
" style="fill:none;stroke:#ff0000;stroke-linecap:square;stroke-width:1.5;"/>
   </g>
   <g id="line2d_44">
    <path clip-path="url(#p65acbdb621)" d="M 381.262703 389.40973 
L 380.412883 384.317038 
L 377.955514 379.776218 
L 374.156891 376.279339 
L 369.428652 374.205342 
L 364.283177 373.778975 
L 359.278057 375.046444 
L 354.955675 377.870397 
L 351.784427 381.944816 
L 350.107968 386.828175 
L 350.107968 391.991285 
L 351.784427 396.874643 
L 354.955675 400.949062 
L 359.278057 403.773016 
L 364.283177 405.040484 
L 369.428652 404.614118 
L 374.156891 402.54012 
L 377.955514 399.043241 
L 380.412883 394.502422 
L 381.262703 389.40973 
" style="fill:none;stroke:#000000;stroke-dasharray:5.55,2.4;stroke-dashoffset:0;stroke-width:1.5;"/>
   </g>
   <g id="line2d_45">
    <path clip-path="url(#p65acbdb621)" d="M 370.002162 389.40973 
L 369.762469 387.973329 
L 369.069365 386.692585 
L 367.997959 385.706286 
L 366.664353 385.121313 
L 365.213065 385.001055 
L 363.801365 385.358547 
L 362.582231 386.155046 
L 361.687777 387.304241 
L 361.214929 388.681599 
L 361.214929 390.137861 
L 361.687777 391.515218 
L 362.582231 392.664413 
L 363.801365 393.460913 
L 365.213065 393.818404 
L 366.664353 393.698147 
L 367.997959 393.113173 
L 369.069365 392.126874 
L 369.762469 390.84613 
L 370.002162 389.40973 
" style="fill:none;stroke:#ff0000;stroke-linecap:square;stroke-width:1.5;"/>
   </g>
   <g id="line2d_46">
    <path clip-path="url(#p65acbdb621)" d="M 381.262703 333.107027 
L 380.412883 328.014335 
L 377.955514 323.473516 
L 374.156891 319.976636 
L 369.428652 317.902639 
L 364.283177 317.476273 
L 359.278057 318.743741 
L 354.955675 321.567695 
L 351.784427 325.642114 
L 350.107968 330.525472 
L 350.107968 335.688582 
L 351.784427 340.57194 
L 354.955675 344.646359 
L 359.278057 347.470313 
L 364.283177 348.737781 
L 369.428652 348.311415 
L 374.156891 346.237418 
L 377.955514 342.740538 
L 380.412883 338.199719 
L 381.262703 333.107027 
" style="fill:none;stroke:#000000;stroke-dasharray:5.55,2.4;stroke-dashoffset:0;stroke-width:1.5;"/>
   </g>
   <g id="line2d_47">
    <path clip-path="url(#p65acbdb621)" d="M 370.002162 333.107027 
L 369.762469 331.670627 
L 369.069365 330.389883 
L 367.997959 329.403584 
L 366.664353 328.81861 
L 365.213065 328.698353 
L 363.801365 329.055844 
L 362.582231 329.852344 
L 361.687777 331.001539 
L 361.214929 332.378896 
L 361.214929 333.835158 
L 361.687777 335.212515 
L 362.582231 336.361711 
L 363.801365 337.15821 
L 365.213065 337.515701 
L 366.664353 337.395444 
L 367.997959 336.810471 
L 369.069365 335.824171 
L 369.762469 334.543427 
L 370.002162 333.107027 
" style="fill:none;stroke:#ff0000;stroke-linecap:square;stroke-width:1.5;"/>
   </g>
   <g id="line2d_48">
    <path clip-path="url(#p65acbdb621)" d="M 437.565405 389.40973 
L 436.715585 384.317038 
L 434.258217 379.776218 
L 430.459593 376.279339 
L 425.731355 374.205342 
L 420.58588 373.778975 
L 415.58076 375.046444 
L 411.258377 377.870397 
L 408.08713 381.944816 
L 406.41067 386.828175 
L 406.41067 391.991285 
L 408.08713 396.874643 
L 411.258377 400.949062 
L 415.58076 403.773016 
L 420.58588 405.040484 
L 425.731355 404.614118 
L 430.459593 402.54012 
L 434.258217 399.043241 
L 436.715585 394.502422 
L 437.565405 389.40973 
" style="fill:none;stroke:#000000;stroke-dasharray:5.55,2.4;stroke-dashoffset:0;stroke-width:1.5;"/>
   </g>
   <g id="line2d_49">
    <path clip-path="url(#p65acbdb621)" d="M 426.304865 389.40973 
L 426.065172 387.973329 
L 425.372068 386.692585 
L 424.300661 385.706286 
L 422.967056 385.121313 
L 421.515768 385.001055 
L 420.104067 385.358547 
L 418.884934 386.155046 
L 417.990479 387.304241 
L 417.517632 388.681599 
L 417.517632 390.137861 
L 417.990479 391.515218 
L 418.884934 392.664413 
L 420.104067 393.460913 
L 421.515768 393.818404 
L 422.967056 393.698147 
L 424.300661 393.113173 
L 425.372068 392.126874 
L 426.065172 390.84613 
L 426.304865 389.40973 
" style="fill:none;stroke:#ff0000;stroke-linecap:square;stroke-width:1.5;"/>
   </g>
   <g id="line2d_50">
    <path clip-path="url(#p65acbdb621)" d="M 437.565405 333.107027 
L 436.715585 328.014335 
L 434.258217 323.473516 
L 430.459593 319.976636 
L 425.731355 317.902639 
L 420.58588 317.476273 
L 415.58076 318.743741 
L 411.258377 321.567695 
L 408.08713 325.642114 
L 406.41067 330.525472 
L 406.41067 335.688582 
L 408.08713 340.57194 
L 411.258377 344.646359 
L 415.58076 347.470313 
L 420.58588 348.737781 
L 425.731355 348.311415 
L 430.459593 346.237418 
L 434.258217 342.740538 
L 436.715585 338.199719 
L 437.565405 333.107027 
" style="fill:none;stroke:#000000;stroke-dasharray:5.55,2.4;stroke-dashoffset:0;stroke-width:1.5;"/>
   </g>
   <g id="line2d_51">
    <path clip-path="url(#p65acbdb621)" d="M 426.304865 333.107027 
L 426.065172 331.670627 
L 425.372068 330.389883 
L 424.300661 329.403584 
L 422.967056 328.81861 
L 421.515768 328.698353 
L 420.104067 329.055844 
L 418.884934 329.852344 
L 417.990479 331.001539 
L 417.517632 332.378896 
L 417.517632 333.835158 
L 417.990479 335.212515 
L 418.884934 336.361711 
L 420.104067 337.15821 
L 421.515768 337.515701 
L 422.967056 337.395444 
L 424.300661 336.810471 
L 425.372068 335.824171 
L 426.065172 334.543427 
L 426.304865 333.107027 
" style="fill:none;stroke:#ff0000;stroke-linecap:square;stroke-width:1.5;"/>
   </g>
   <g id="line2d_52">
    <path clip-path="url(#p65acbdb621)" d="M 212.354595 220.501622 
L 211.504775 215.40893 
L 209.047406 210.86811 
L 205.248783 207.371231 
L 200.520544 205.297233 
L 195.375069 204.870867 
L 190.369949 206.138336 
L 186.047566 208.962289 
L 182.876319 213.036708 
L 181.19986 217.920067 
L 181.19986 223.083177 
L 182.876319 227.966535 
L 186.047566 232.040954 
L 190.369949 234.864907 
L 195.375069 236.132376 
L 200.520544 235.70601 
L 205.248783 233.632012 
L 209.047406 230.135133 
L 211.504775 225.594313 
L 212.354595 220.501622 
" style="fill:none;stroke:#000000;stroke-dasharray:5.55,2.4;stroke-dashoffset:0;stroke-width:1.5;"/>
   </g>
   <g id="line2d_53">
    <path clip-path="url(#p65acbdb621)" d="M 201.094054 220.501622 
L 200.854361 219.065221 
L 200.161257 217.784477 
L 199.089851 216.798178 
L 197.756245 216.213204 
L 196.304957 216.092947 
L 194.893257 216.450438 
L 193.674123 217.246938 
L 192.779669 218.396133 
L 192.306821 219.773491 
L 192.306821 221.229753 
L 192.779669 222.60711 
L 193.674123 223.756305 
L 194.893257 224.552805 
L 196.304957 224.910296 
L 197.756245 224.790039 
L 199.089851 224.205065 
L 200.161257 223.218766 
L 200.854361 221.938022 
L 201.094054 220.501622 
" style="fill:none;stroke:#ff0000;stroke-linecap:square;stroke-width:1.5;"/>
   </g>
   <g id="line2d_54">
    <path clip-path="url(#p65acbdb621)" d="M 212.354595 164.198919 
L 211.504775 159.106227 
L 209.047406 154.565408 
L 205.248783 151.068528 
L 200.520544 148.994531 
L 195.375069 148.568165 
L 190.369949 149.835633 
L 186.047566 152.659586 
L 182.876319 156.734006 
L 181.19986 161.617364 
L 181.19986 166.780474 
L 182.876319 171.663832 
L 186.047566 175.738251 
L 190.369949 178.562205 
L 195.375069 179.829673 
L 200.520544 179.403307 
L 205.248783 177.329309 
L 209.047406 173.83243 
L 211.504775 169.291611 
L 212.354595 164.198919 
" style="fill:none;stroke:#000000;stroke-dasharray:5.55,2.4;stroke-dashoffset:0;stroke-width:1.5;"/>
   </g>
   <g id="line2d_55">
    <path clip-path="url(#p65acbdb621)" d="M 201.094054 164.198919 
L 200.854361 162.762519 
L 200.161257 161.481775 
L 199.089851 160.495475 
L 197.756245 159.910502 
L 196.304957 159.790245 
L 194.893257 160.147736 
L 193.674123 160.944235 
L 192.779669 162.093431 
L 192.306821 163.470788 
L 192.306821 164.92705 
L 192.779669 166.304407 
L 193.674123 167.453602 
L 194.893257 168.250102 
L 196.304957 168.607593 
L 197.756245 168.487336 
L 199.089851 167.902362 
L 200.161257 166.916063 
L 200.854361 165.635319 
L 201.094054 164.198919 
" style="fill:none;stroke:#ff0000;stroke-linecap:square;stroke-width:1.5;"/>
   </g>
   <g id="line2d_56">
    <path clip-path="url(#p65acbdb621)" d="M 268.657297 220.501622 
L 267.807477 215.40893 
L 265.350109 210.86811 
L 261.551485 207.371231 
L 256.823247 205.297233 
L 251.677772 204.870867 
L 246.672652 206.138336 
L 242.350269 208.962289 
L 239.179021 213.036708 
L 237.502562 217.920067 
L 237.502562 223.083177 
L 239.179021 227.966535 
L 242.350269 232.040954 
L 246.672652 234.864907 
L 251.677772 236.132376 
L 256.823247 235.70601 
L 261.551485 233.632012 
L 265.350109 230.135133 
L 267.807477 225.594313 
L 268.657297 220.501622 
" style="fill:none;stroke:#000000;stroke-dasharray:5.55,2.4;stroke-dashoffset:0;stroke-width:1.5;"/>
   </g>
   <g id="line2d_57">
    <path clip-path="url(#p65acbdb621)" d="M 257.396757 220.501622 
L 257.157064 219.065221 
L 256.46396 217.784477 
L 255.392553 216.798178 
L 254.058948 216.213204 
L 252.60766 216.092947 
L 251.195959 216.450438 
L 249.976826 217.246938 
L 249.082371 218.396133 
L 248.609524 219.773491 
L 248.609524 221.229753 
L 249.082371 222.60711 
L 249.976826 223.756305 
L 251.195959 224.552805 
L 252.60766 224.910296 
L 254.058948 224.790039 
L 255.392553 224.205065 
L 256.46396 223.218766 
L 257.157064 221.938022 
L 257.396757 220.501622 
" style="fill:none;stroke:#ff0000;stroke-linecap:square;stroke-width:1.5;"/>
   </g>
   <g id="line2d_58">
    <path clip-path="url(#p65acbdb621)" d="M 268.657297 164.198919 
L 267.807477 159.106227 
L 265.350109 154.565408 
L 261.551485 151.068528 
L 256.823247 148.994531 
L 251.677772 148.568165 
L 246.672652 149.835633 
L 242.350269 152.659586 
L 239.179021 156.734006 
L 237.502562 161.617364 
L 237.502562 166.780474 
L 239.179021 171.663832 
L 242.350269 175.738251 
L 246.672652 178.562205 
L 251.677772 179.829673 
L 256.823247 179.403307 
L 261.551485 177.329309 
L 265.350109 173.83243 
L 267.807477 169.291611 
L 268.657297 164.198919 
" style="fill:none;stroke:#000000;stroke-dasharray:5.55,2.4;stroke-dashoffset:0;stroke-width:1.5;"/>
   </g>
   <g id="line2d_59">
    <path clip-path="url(#p65acbdb621)" d="M 257.396757 164.198919 
L 257.157064 162.762519 
L 256.46396 161.481775 
L 255.392553 160.495475 
L 254.058948 159.910502 
L 252.60766 159.790245 
L 251.195959 160.147736 
L 249.976826 160.944235 
L 249.082371 162.093431 
L 248.609524 163.470788 
L 248.609524 164.92705 
L 249.082371 166.304407 
L 249.976826 167.453602 
L 251.195959 168.250102 
L 252.60766 168.607593 
L 254.058948 168.487336 
L 255.392553 167.902362 
L 256.46396 166.916063 
L 257.157064 165.635319 
L 257.396757 164.198919 
" style="fill:none;stroke:#ff0000;stroke-linecap:square;stroke-width:1.5;"/>
   </g>
   <g id="line2d_60">
    <path clip-path="url(#p65acbdb621)" d="M 324.96 220.501622 
L 324.11018 215.40893 
L 321.652811 210.86811 
L 317.854188 207.371231 
L 313.12595 205.297233 
L 307.980474 204.870867 
L 302.975354 206.138336 
L 298.652972 208.962289 
L 295.481724 213.036708 
L 293.805265 217.920067 
L 293.805265 223.083177 
L 295.481724 227.966535 
L 298.652972 232.040954 
L 302.975354 234.864907 
L 307.980474 236.132376 
L 313.12595 235.70601 
L 317.854188 233.632012 
L 321.652811 230.135133 
L 324.11018 225.594313 
L 324.96 220.501622 
" style="fill:none;stroke:#000000;stroke-dasharray:5.55,2.4;stroke-dashoffset:0;stroke-width:1.5;"/>
   </g>
   <g id="line2d_61">
    <path clip-path="url(#p65acbdb621)" d="M 313.699459 220.501622 
L 313.459767 219.065221 
L 312.766663 217.784477 
L 311.695256 216.798178 
L 310.36165 216.213204 
L 308.910363 216.092947 
L 307.498662 216.450438 
L 306.279528 217.246938 
L 305.385074 218.396133 
L 304.912227 219.773491 
L 304.912227 221.229753 
L 305.385074 222.60711 
L 306.279528 223.756305 
L 307.498662 224.552805 
L 308.910363 224.910296 
L 310.36165 224.790039 
L 311.695256 224.205065 
L 312.766663 223.218766 
L 313.459767 221.938022 
L 313.699459 220.501622 
" style="fill:none;stroke:#ff0000;stroke-linecap:square;stroke-width:1.5;"/>
   </g>
   <g id="line2d_62">
    <path clip-path="url(#p65acbdb621)" d="M 324.96 164.198919 
L 324.11018 159.106227 
L 321.652811 154.565408 
L 317.854188 151.068528 
L 313.12595 148.994531 
L 307.980474 148.568165 
L 302.975354 149.835633 
L 298.652972 152.659586 
L 295.481724 156.734006 
L 293.805265 161.617364 
L 293.805265 166.780474 
L 295.481724 171.663832 
L 298.652972 175.738251 
L 302.975354 178.562205 
L 307.980474 179.829673 
L 313.12595 179.403307 
L 317.854188 177.329309 
L 321.652811 173.83243 
L 324.11018 169.291611 
L 324.96 164.198919 
" style="fill:none;stroke:#000000;stroke-dasharray:5.55,2.4;stroke-dashoffset:0;stroke-width:1.5;"/>
   </g>
   <g id="line2d_63">
    <path clip-path="url(#p65acbdb621)" d="M 313.699459 164.198919 
L 313.459767 162.762519 
L 312.766663 161.481775 
L 311.695256 160.495475 
L 310.36165 159.910502 
L 308.910363 159.790245 
L 307.498662 160.147736 
L 306.279528 160.944235 
L 305.385074 162.093431 
L 304.912227 163.470788 
L 304.912227 164.92705 
L 305.385074 166.304407 
L 306.279528 167.453602 
L 307.498662 168.250102 
L 308.910363 168.607593 
L 310.36165 168.487336 
L 311.695256 167.902362 
L 312.766663 166.916063 
L 313.459767 165.635319 
L 313.699459 164.198919 
" style="fill:none;stroke:#ff0000;stroke-linecap:square;stroke-width:1.5;"/>
   </g>
   <g id="line2d_64">
    <path clip-path="url(#p65acbdb621)" d="M 381.262703 220.501622 
L 380.412883 215.40893 
L 377.955514 210.86811 
L 374.156891 207.371231 
L 369.428652 205.297233 
L 364.283177 204.870867 
L 359.278057 206.138336 
L 354.955675 208.962289 
L 351.784427 213.036708 
L 350.107968 217.920067 
L 350.107968 223.083177 
L 351.784427 227.966535 
L 354.955675 232.040954 
L 359.278057 234.864907 
L 364.283177 236.132376 
L 369.428652 235.70601 
L 374.156891 233.632012 
L 377.955514 230.135133 
L 380.412883 225.594313 
L 381.262703 220.501622 
" style="fill:none;stroke:#000000;stroke-dasharray:5.55,2.4;stroke-dashoffset:0;stroke-width:1.5;"/>
   </g>
   <g id="line2d_65">
    <path clip-path="url(#p65acbdb621)" d="M 370.002162 220.501622 
L 369.762469 219.065221 
L 369.069365 217.784477 
L 367.997959 216.798178 
L 366.664353 216.213204 
L 365.213065 216.092947 
L 363.801365 216.450438 
L 362.582231 217.246938 
L 361.687777 218.396133 
L 361.214929 219.773491 
L 361.214929 221.229753 
L 361.687777 222.60711 
L 362.582231 223.756305 
L 363.801365 224.552805 
L 365.213065 224.910296 
L 366.664353 224.790039 
L 367.997959 224.205065 
L 369.069365 223.218766 
L 369.762469 221.938022 
L 370.002162 220.501622 
" style="fill:none;stroke:#ff0000;stroke-linecap:square;stroke-width:1.5;"/>
   </g>
   <g id="line2d_66">
    <path clip-path="url(#p65acbdb621)" d="M 381.262703 164.198919 
L 380.412883 159.106227 
L 377.955514 154.565408 
L 374.156891 151.068528 
L 369.428652 148.994531 
L 364.283177 148.568165 
L 359.278057 149.835633 
L 354.955675 152.659586 
L 351.784427 156.734006 
L 350.107968 161.617364 
L 350.107968 166.780474 
L 351.784427 171.663832 
L 354.955675 175.738251 
L 359.278057 178.562205 
L 364.283177 179.829673 
L 369.428652 179.403307 
L 374.156891 177.329309 
L 377.955514 173.83243 
L 380.412883 169.291611 
L 381.262703 164.198919 
" style="fill:none;stroke:#000000;stroke-dasharray:5.55,2.4;stroke-dashoffset:0;stroke-width:1.5;"/>
   </g>
   <g id="line2d_67">
    <path clip-path="url(#p65acbdb621)" d="M 370.002162 164.198919 
L 369.762469 162.762519 
L 369.069365 161.481775 
L 367.997959 160.495475 
L 366.664353 159.910502 
L 365.213065 159.790245 
L 363.801365 160.147736 
L 362.582231 160.944235 
L 361.687777 162.093431 
L 361.214929 163.470788 
L 361.214929 164.92705 
L 361.687777 166.304407 
L 362.582231 167.453602 
L 363.801365 168.250102 
L 365.213065 168.607593 
L 366.664353 168.487336 
L 367.997959 167.902362 
L 369.069365 166.916063 
L 369.762469 165.635319 
L 370.002162 164.198919 
" style="fill:none;stroke:#ff0000;stroke-linecap:square;stroke-width:1.5;"/>
   </g>
   <g id="line2d_68">
    <path clip-path="url(#p65acbdb621)" d="M 437.565405 220.501622 
L 436.715585 215.40893 
L 434.258217 210.86811 
L 430.459593 207.371231 
L 425.731355 205.297233 
L 420.58588 204.870867 
L 415.58076 206.138336 
L 411.258377 208.962289 
L 408.08713 213.036708 
L 406.41067 217.920067 
L 406.41067 223.083177 
L 408.08713 227.966535 
L 411.258377 232.040954 
L 415.58076 234.864907 
L 420.58588 236.132376 
L 425.731355 235.70601 
L 430.459593 233.632012 
L 434.258217 230.135133 
L 436.715585 225.594313 
L 437.565405 220.501622 
" style="fill:none;stroke:#000000;stroke-dasharray:5.55,2.4;stroke-dashoffset:0;stroke-width:1.5;"/>
   </g>
   <g id="line2d_69">
    <path clip-path="url(#p65acbdb621)" d="M 426.304865 220.501622 
L 426.065172 219.065221 
L 425.372068 217.784477 
L 424.300661 216.798178 
L 422.967056 216.213204 
L 421.515768 216.092947 
L 420.104067 216.450438 
L 418.884934 217.246938 
L 417.990479 218.396133 
L 417.517632 219.773491 
L 417.517632 221.229753 
L 417.990479 222.60711 
L 418.884934 223.756305 
L 420.104067 224.552805 
L 421.515768 224.910296 
L 422.967056 224.790039 
L 424.300661 224.205065 
L 425.372068 223.218766 
L 426.065172 221.938022 
L 426.304865 220.501622 
" style="fill:none;stroke:#ff0000;stroke-linecap:square;stroke-width:1.5;"/>
   </g>
   <g id="line2d_70">
    <path clip-path="url(#p65acbdb621)" d="M 437.565405 164.198919 
L 436.715585 159.106227 
L 434.258217 154.565408 
L 430.459593 151.068528 
L 425.731355 148.994531 
L 420.58588 148.568165 
L 415.58076 149.835633 
L 411.258377 152.659586 
L 408.08713 156.734006 
L 406.41067 161.617364 
L 406.41067 166.780474 
L 408.08713 171.663832 
L 411.258377 175.738251 
L 415.58076 178.562205 
L 420.58588 179.829673 
L 425.731355 179.403307 
L 430.459593 177.329309 
L 434.258217 173.83243 
L 436.715585 169.291611 
L 437.565405 164.198919 
" style="fill:none;stroke:#000000;stroke-dasharray:5.55,2.4;stroke-dashoffset:0;stroke-width:1.5;"/>
   </g>
   <g id="line2d_71">
    <path clip-path="url(#p65acbdb621)" d="M 426.304865 164.198919 
L 426.065172 162.762519 
L 425.372068 161.481775 
L 424.300661 160.495475 
L 422.967056 159.910502 
L 421.515768 159.790245 
L 420.104067 160.147736 
L 418.884934 160.944235 
L 417.990479 162.093431 
L 417.517632 163.470788 
L 417.517632 164.92705 
L 417.990479 166.304407 
L 418.884934 167.453602 
L 420.104067 168.250102 
L 421.515768 168.607593 
L 422.967056 168.487336 
L 424.300661 167.902362 
L 425.372068 166.916063 
L 426.065172 165.635319 
L 426.304865 164.198919 
" style="fill:none;stroke:#ff0000;stroke-linecap:square;stroke-width:1.5;"/>
   </g>
   <g id="line2d_72">
    <path clip-path="url(#p65acbdb621)" d="M 92.108108 493.971892 
L 92.108108 87.788108 
" style="fill:none;stroke:#000000;stroke-linecap:square;stroke-width:4;"/>
   </g>
   <g id="line2d_73">
    <path clip-path="url(#p65acbdb621)" d="M 92.108108 87.788108 
L 498.291892 87.788108 
" style="fill:none;stroke:#000000;stroke-linecap:square;stroke-width:4;"/>
   </g>
   <g id="line2d_74">
    <path clip-path="url(#p65acbdb621)" d="M 498.291892 87.788108 
L 498.291892 493.971892 
" style="fill:none;stroke:#000000;stroke-linecap:square;stroke-width:4;"/>
   </g>
   <g id="line2d_75">
    <path clip-path="url(#p65acbdb621)" d="M 498.291892 493.971892 
L 92.108108 493.971892 
" style="fill:none;stroke:#000000;stroke-linecap:square;stroke-width:4;"/>
   </g>
   <g id="line2d_76">
    <path clip-path="url(#p65acbdb621)" d="M 140.367568 389.40973 
L 140.930595 389.40973 
L 142.056649 389.289081 
L 143.544649 388.927135 
L 144.912 388.243459 
L 147.324973 386.393514 
L 150.019459 384.181622 
L 158.223568 377.706811 
L 167.071135 370.749405 
L 175.275243 364.274595 
L 179.095784 361.298595 
L 182.755459 358.443243 
L 184.404324 357.478054 
L 185.932541 356.834595 
L 189.190054 356.03027 
L 190.879135 355.949838 
L 195.504 356.593297 
L 200.008216 356.352 
L 204.75373 355.547676 
L 230.652973 350.842378 
L 232.663784 350.802162 
L 234.312649 351.083676 
L 237.610378 352.048865 
L 242.878703 352.853189 
L 247.664432 353.496649 
L 251.123027 353.818378 
L 254.822919 353.939027 
L 258.040216 353.898811 
L 262.825946 353.496649 
L 264.474811 353.335784 
L 266.405189 353.295568 
L 273.362595 353.69773 
L 275.132108 353.536865 
L 278.309189 352.652108 
L 279.917838 352.571676 
L 280.279784 352.732541 
L 280.842811 353.215135 
L 281.48627 353.979243 
L 282.250378 355.306378 
L 283.175351 357.196541 
L 284.261189 358.604108 
L 285.427459 359.569297 
L 286.794811 360.333405 
L 288.483892 360.816 
L 290.293622 360.896432 
L 295.561946 360.132324 
L 297.251027 360.092108 
L 299.462919 360.212757 
L 302.599784 361.097514 
L 303.404108 361.459459 
L 304.650811 362.304 
L 304.610595 362.304 
L 305.213838 362.304 
L 306.380108 362.183351 
L 308.109405 361.660541 
L 311.568 360.293189 
L 313.216865 359.971459 
L 315.187459 360.011676 
L 317.077622 360.49427 
L 318.605838 361.177946 
L 320.053622 361.660541 
L 321.823135 361.942054 
L 324.758919 362.022486 
L 327.936 361.781189 
L 333.445622 360.816 
L 336.582486 360.172541 
L 341.689946 358.684541 
L 346.475676 356.955243 
L 349.853838 355.668324 
L 351.744 355.266162 
L 353.392865 355.145514 
L 356.610162 355.225946 
L 358.419892 355.024865 
L 361.476324 354.059676 
L 365.095784 353.014054 
L 370.524973 351.485838 
L 372.012973 351.003243 
L 375.190054 349.635892 
L 378.367135 347.785946 
L 379.654054 346.860973 
L 381.021405 345.654486 
L 381.946378 344.407784 
L 382.67027 343.000216 
L 385.203892 336.565622 
L 385.968 333.509189 
L 386.531027 329.809297 
L 386.732108 326.109405 
L 386.651676 322.650811 
L 386.28973 317.865081 
L 386.571243 314.607568 
L 387.254919 312.757622 
L 388.139676 311.350054 
L 389.26573 310.103351 
L 390.874378 308.977297 
L 393.689514 307.891459 
L 396.866595 307.087135 
L 400.566486 306.363243 
L 403.864216 305.317622 
L 407.041297 303.990486 
L 410.09773 302.422054 
L 413.033514 300.572108 
L 418.502919 296.349405 
L 419.669189 295.263568 
L 422.202811 292.488649 
L 424.253838 289.753946 
L 424.937514 288.708324 
L 425.540757 287.300757 
L 425.782054 286.054054 
L 425.82227 284.525838 
L 425.580973 283.037838 
L 425.058162 281.147676 
L 422.966919 269.806703 
L 422.202811 266.991568 
L 420.393081 261.964541 
L 418.020324 255.972324 
L 416.974703 252.915892 
L 415.728 249.376865 
L 415.084541 247.768216 
L 414.24 246.481297 
L 410.700973 242.298811 
L 405.875027 235.180541 
L 404.105514 232.164324 
L 402.617514 229.268757 
L 401.129514 225.810162 
L 400.043676 222.432 
L 399.279568 219.295135 
L 398.595892 216.198486 
L 397.590486 212.538811 
L 396.826378 209.120432 
L 394.131892 194.642595 
L 394.131892 194.642595 
" style="fill:none;stroke:#8000ff;stroke-linecap:square;stroke-width:1.5;"/>
   </g>
   <g id="line2d_77">
    <path clip-path="url(#p65acbdb621)" d="M 450.032432 192.35027 
L 450.233514 192.430703 
L 450.354162 192.551351 
L 450.434595 192.752432 
L 450.595459 193.596973 
L 450.555243 194.562162 
L 450.193297 196.170811 
L 449.348757 197.859892 
L 448.102054 199.388108 
L 446.855351 200.393514 
L 444.120649 202.082595 
L 442.270703 202.76627 
L 433.543784 203.892324 
L 430.044973 204.012973 
L 426.787459 203.651027 
L 423.087568 203.088 
L 419.669189 203.007568 
L 417.819243 203.168432 
L 414.199784 203.892324 
L 410.982486 205.058595 
L 409.534703 205.74227 
L 406.598919 207.511784 
L 403.824 209.603027 
L 402.818595 210.447568 
L 400.365405 212.860541 
L 395.901405 217.807135 
L 393.08627 220.461405 
L 392.201514 221.748324 
L 390.311351 224.804757 
L 387.335351 228.947027 
L 384.520216 232.52627 
L 382.428973 234.979459 
L 379.211676 238.277189 
L 376.597622 240.60973 
L 374.104216 242.620541 
L 373.058595 243.746595 
L 372.294486 245.07373 
L 371.811892 246.280216 
L 371.007568 249.135568 
L 368.996757 254.122378 
L 365.819676 261.44173 
L 364.572973 264.699243 
L 362.361081 269.645838 
L 360.792649 272.782703 
L 359.545946 274.310919 
L 358.01773 275.477189 
L 355.323243 276.764108 
L 351.904865 278.292324 
L 348.768 279.820541 
L 347.159351 280.705297 
L 345.430054 281.831351 
L 344.545297 282.716108 
L 344.545297 282.595459 
L 344.545297 282.515027 
L 344.62573 282.756324 
L 345.228973 283.962811 
L 346.314811 285.370378 
L 347.682162 286.496432 
L 349.290811 287.300757 
L 351.020108 287.702919 
L 352.829838 287.662703 
L 356.409081 286.979027 
L 357.977514 287.099676 
L 359.344865 287.461622 
L 360.591568 288.145297 
L 361.878486 289.231135 
L 361.878486 289.432216 
L 361.798054 289.71373 
L 361.033946 290.638703 
L 360.269838 291.161514 
L 359.103568 291.603892 
L 357.253622 291.764757 
L 355.363459 291.563676 
L 353.55373 291.483243 
L 350.698378 291.804973 
L 348.768 291.684324 
L 345.309405 290.88 
L 343.781189 290.799568 
L 339.759568 291.121297 
L 339.598703 291.081081 
L 339.84 291.081081 
L 339.478054 291.241946 
L 338.191135 292.247351 
L 337.18573 293.413622 
L 336.461838 294.740757 
L 335.939027 296.429838 
L 335.737946 298.239568 
L 335.69773 299.647135 
L 336.059676 303.789405 
L 335.898811 305.277405 
L 335.617297 306.564324 
L 335.05427 308.41427 
L 334.330378 310.143568 
L 333.56627 311.631568 
L 332.319568 313.159784 
L 331.032649 314.205405 
L 329.544649 314.969514 
L 327.654486 315.492324 
L 325.764324 315.572757 
L 322.547027 315.452108 
L 320.616649 315.492324 
L 319.088432 315.814054 
L 316.273297 317.060757 
L 315.107027 317.784649 
L 313.619027 318.428108 
L 312.211459 318.749838 
L 311.407135 318.790054 
L 309.637622 318.588973 
L 308.069189 318.025946 
L 306.380108 317.020541 
L 304.087784 315.130378 
L 302.720432 314.446703 
L 301.47373 314.084757 
L 298.336865 313.682595 
L 295.119568 312.797838 
L 291.701189 312.395676 
L 290.092541 312.03373 
L 287.719784 311.148973 
L 286.231784 310.867459 
L 281.124324 310.505514 
L 279.435243 310.224 
L 277.625514 310.143568 
L 272.799568 310.867459 
L 269.421405 310.666378 
L 267.410595 310.907676 
L 265.681297 311.510919 
L 262.78573 312.838054 
L 259.930378 313.964108 
L 257.034811 315.572757 
L 253.536 316.859676 
L 252.048 317.221622 
L 250.600216 317.34227 
L 249.031784 317.141189 
L 246.337297 316.457514 
L 245.050378 316.336865 
L 243.522162 316.457514 
L 241.833081 316.980324 
L 240.505946 317.744432 
L 239.138595 318.950919 
L 236.283243 322.972541 
L 234.272432 326.069189 
L 232.985514 328.924541 
L 231.980108 331.659243 
L 230.612757 336.284108 
L 229.084541 341.110054 
L 228.24 344.448 
L 226.953081 350.922811 
L 225.264 359.046486 
L 225.264 359.046486 
" style="fill:none;stroke:#4062fa;stroke-linecap:square;stroke-width:1.5;"/>
   </g>
   <g id="line2d_78">
    <path clip-path="url(#p65acbdb621)" d="M 402.175135 440.082162 
L 401.933838 440.162595 
L 402.094703 440.00173 
L 402.537081 439.076757 
L 402.778378 437.87027 
L 402.738162 436.784432 
L 402.456649 435.296432 
L 401.853405 433.848649 
L 400.043676 431.274811 
L 393.971027 423.070703 
L 390.834162 418.727351 
L 384.80173 410.523243 
L 383.836541 408.834162 
L 383.394162 407.507027 
L 382.790919 404.008216 
L 382.388757 400.549622 
L 382.268108 397.010595 
L 382.67027 393.552 
L 383.072432 390.374919 
L 383.072432 386.916324 
L 382.911568 385.106595 
L 382.589838 383.256649 
L 381.705081 380.240432 
L 380.33773 377.063351 
L 379.573622 375.696 
L 377.643243 372.800432 
L 375.793297 370.548324 
L 373.420541 368.054919 
L 371.047784 365.923459 
L 368.272865 363.671351 
L 365.658811 361.298595 
L 362.521946 359.247568 
L 360.108973 357.598703 
L 355.363459 354.019459 
L 352.668973 351.807568 
L 349.049514 348.509838 
L 347.521297 347.544649 
L 340.684541 345.011027 
L 338.874811 344.608865 
L 337.024865 344.045838 
L 335.335784 343.040432 
L 334.129297 341.874162 
L 333.284757 340.748108 
L 332.440216 338.978595 
L 332.07827 337.369946 
L 331.997838 335.761297 
L 332.198919 332.584216 
L 332.118486 330.935351 
L 331.756541 329.366919 
L 331.072865 327.718054 
L 330.550054 326.109405 
L 330.268541 324.380108 
L 330.147892 321.524757 
L 330.228324 319.152 
L 330.429405 318.950919 
L 330.871784 318.910703 
L 332.359784 318.991135 
L 334.008649 319.594378 
L 335.617297 320.680216 
L 336.783568 321.886703 
L 337.788973 323.575784 
L 338.392216 325.42573 
L 338.593297 327.074595 
L 338.633514 328.964757 
L 338.392216 331.980973 
L 338.070486 333.107027 
L 337.386811 334.152649 
L 336.54227 334.997189 
L 335.335784 335.84173 
L 333.807568 336.525405 
L 331.877189 336.927568 
L 330.188108 336.927568 
L 328.659892 336.605838 
L 327.171892 336.002595 
L 325.925189 335.117838 
L 324.718703 333.911351 
L 323.833946 332.503784 
L 323.190486 330.935351 
L 322.949189 329.568 
L 322.949189 327.597405 
L 323.713297 324.259459 
L 323.833946 322.731243 
L 323.592649 320.96173 
L 323.069838 319.513946 
L 322.104649 317.98573 
L 321.018811 316.940108 
L 319.731892 316.055351 
L 318.042811 315.251027 
L 316.434162 314.848865 
L 314.544 314.205405 
L 312.814703 313.320649 
L 310.40173 311.229405 
L 306.500757 307.650162 
L 305.334486 306.725189 
L 303.80627 305.800216 
L 302.31827 305.357838 
L 299.020541 305.036108 
L 297.130378 304.473081 
L 295.401081 303.588324 
L 292.666378 301.738378 
L 290.896865 300.773189 
L 289.288216 299.647135 
L 285.507892 295.746162 
L 284.301405 294.258162 
L 282.652541 291.644108 
L 281.244973 288.668108 
L 280.561297 287.58227 
L 279.636324 285.893189 
L 277.987459 281.228108 
L 274.850595 274.994595 
L 271.030054 268.841514 
L 258.482595 248.130162 
L 257.396757 246.722595 
L 256.270703 245.717189 
L 245.532973 238.035892 
L 242.918919 236.185946 
L 240.385297 234.175135 
L 238.97773 232.888216 
L 237.007135 230.636108 
L 236.00173 229.349189 
L 234.433297 226.815568 
L 233.789838 225.609081 
L 232.422486 222.351568 
L 231.417081 218.973405 
L 230.532324 215.715892 
L 229.084541 211.412757 
L 227.91827 206.425946 
L 225.424865 195.165405 
L 225.022703 193.315459 
L 225.022703 193.315459 
" style="fill:none;stroke:#00b4ec;stroke-linecap:square;stroke-width:1.5;"/>
   </g>
   <g id="line2d_79">
    <path clip-path="url(#p65acbdb621)" d="M 224.821622 136.047568 
L 225.223784 136.047568 
L 226.229189 136.168216 
L 227.596541 136.570378 
L 229.084541 137.334486 
L 230.612757 138.540973 
L 231.779027 139.988757 
L 235.197405 144.975568 
L 235.961514 146.785297 
L 236.283243 148.393946 
L 236.765838 153.260108 
L 236.765838 155.15027 
L 236.604973 157.080649 
L 235.599568 163.153297 
L 235.519135 166.330378 
L 235.639784 167.898811 
L 235.921297 169.748757 
L 236.765838 173.046486 
L 238.213622 176.464865 
L 238.97773 177.872432 
L 240.747243 180.526703 
L 242.918919 183.180973 
L 244.92973 185.312432 
L 247.302486 187.443892 
L 252.128432 191.626378 
L 259.488 196.572973 
L 264.354162 200.353297 
L 265.801946 201.479351 
L 267.209514 202.203243 
L 270.064865 203.248865 
L 272.839784 204.576 
L 281.968865 208.396541 
L 283.577514 209.200865 
L 285.145946 210.326919 
L 287.43827 212.418162 
L 288.765405 213.262703 
L 290.374054 214.147459 
L 291.459892 214.992 
L 292.425081 216.037622 
L 293.430486 217.726703 
L 293.993514 219.295135 
L 294.636973 221.909189 
L 294.516324 221.627676 
L 294.114162 221.627676 
L 293.913081 221.466811 
L 293.430486 220.823351 
L 292.947892 219.375568 
L 292.425081 213.785514 
L 292.505514 212.136649 
L 293.068541 210.005189 
L 293.832649 208.517189 
L 294.757622 207.149838 
L 295.883676 205.903135 
L 298.859676 203.40973 
L 301.47373 201.077189 
L 303.042162 200.031568 
L 305.133405 199.347892 
L 307.104 199.187027 
L 310.602811 199.347892 
L 312.211459 199.388108 
L 315.670054 199.79027 
L 318.847135 200.43373 
L 321.984 201.238054 
L 325.040432 202.243459 
L 329.906595 204.093405 
L 336.622703 205.943351 
L 341.207351 207.109622 
L 342.695351 207.833514 
L 344.263784 208.999784 
L 346.757189 211.613838 
L 347.963676 213.061622 
L 348.888649 214.428973 
L 349.652757 215.957189 
L 350.095135 217.565838 
L 350.256 219.898378 
L 350.57773 227.539459 
L 350.899459 229.107892 
L 351.623351 230.716541 
L 352.628757 232.124108 
L 355.122162 235.140324 
L 356.288432 236.588108 
L 358.540541 238.920649 
L 360.712216 241.574919 
L 366.664216 247.969297 
L 367.629405 249.658378 
L 368.835892 252.915892 
L 370.122811 255.891892 
L 370.605405 257.782054 
L 370.645622 259.471135 
L 370.283676 261.361297 
L 369.077189 264.578595 
L 368.554378 267.916541 
L 367.830486 273.184865 
L 367.79027 278.252108 
L 367.991351 281.831351 
L 367.870703 283.922595 
L 367.629405 285.531243 
L 367.669622 287.059459 
L 368.031568 288.828973 
L 369.881514 293.212541 
L 371.811892 300.732973 
L 373.380324 305.639351 
L 374.104216 307.046919 
L 376.074811 309.580541 
L 378.166054 312.395676 
L 381.664865 317.824865 
L 384.15827 322.288865 
L 385.002811 323.977946 
L 386.812541 328.482162 
L 387.77773 331.860324 
L 390.512432 343.362162 
L 393.367784 359.207351 
L 393.367784 359.207351 
" style="fill:none;stroke:#40ecd4;stroke-linecap:square;stroke-width:1.5;"/>
   </g>
   <g id="line2d_80">
    <path clip-path="url(#p65acbdb621)" d="M 450.032432 304.955676 
L 449.791135 305.036108 
L 449.670486 305.317622 
L 449.670486 305.076324 
L 449.469405 304.352432 
L 448.946595 303.507892 
L 447.981405 302.542703 
L 446.694486 301.818811 
L 445.005405 301.175351 
L 429.803676 298.038486 
L 414.56173 294.821189 
L 399.882811 291.724541 
L 393.568865 290.357189 
L 378.889946 287.260541 
L 369.720649 285.330162 
L 358.460108 282.957405 
L 356.931892 282.876973 
L 355.644973 283.078054 
L 354.197189 283.560649 
L 350.57773 285.651892 
L 348.003892 286.536649 
L 346.676757 287.340973 
L 344.384432 289.432216 
L 341.448649 292.247351 
L 339.960649 293.453838 
L 338.070486 294.539676 
L 336.502054 295.062486 
L 334.531459 295.223351 
L 332.601081 295.02227 
L 329.10227 294.338595 
L 327.533838 294.17773 
L 325.563243 294.097297 
L 324.035027 294.258162 
L 322.345946 294.861405 
L 321.219892 295.504865 
L 319.651459 296.590703 
L 316.595027 298.32 
L 314.664649 299.244973 
L 312.854919 299.928649 
L 310.924541 300.210162 
L 307.546378 300.169946 
L 306.259459 300.411243 
L 303.484541 301.537297 
L 302.237838 302.422054 
L 299.543351 304.995892 
L 298.135784 305.840432 
L 296.004324 306.564324 
L 294.114162 306.765405 
L 292.183784 307.127351 
L 290.454486 307.851243 
L 288.483892 308.494703 
L 286.513297 308.615351 
L 284.582919 308.333838 
L 282.773189 307.56973 
L 280.32 305.961081 
L 277.384216 304.674162 
L 276.17773 303.910054 
L 270.426811 299.48627 
L 251.243676 286.214919 
L 244.165622 281.388973 
L 238.374486 277.488 
L 225.304216 268.720865 
L 220.679351 264.980757 
L 211.349189 256.816865 
L 200.732108 250.663784 
L 198.118054 249.336649 
L 198.118054 249.336649 
" style="fill:none;stroke:#80ffb4;stroke-linecap:square;stroke-width:1.5;"/>
   </g>
   <g id="line2d_81">
    <path clip-path="url(#p65acbdb621)" d="M 140.367568 248.652973 
L 142.700108 248.693189 
L 148.048865 249.256216 
L 158.706162 250.422486 
L 166.668973 251.347459 
L 174.953514 252.272432 
L 199.968 255.047351 
L 206.322162 255.610378 
L 234.875676 258.546162 
L 243.401514 259.149405 
L 244.889514 259.189622 
L 246.659027 258.908108 
L 247.90573 258.505946 
L 249.192649 257.942919 
L 250.680649 257.420108 
L 252.329514 257.098378 
L 254.259892 257.138595 
L 255.627243 257.420108 
L 258.965189 258.304865 
L 262.624865 258.867892 
L 264.434595 259.511351 
L 267.24973 261.200432 
L 268.697514 262.246054 
L 270.547459 263.77427 
L 272.156108 264.779676 
L 273.603892 265.26227 
L 275.373405 265.503568 
L 276.660324 265.382919 
L 278.188541 265.020973 
L 282.692757 263.331892 
L 285.708973 261.642811 
L 287.317622 261.12 
L 290.816432 260.637405 
L 292.304432 260.195027 
L 296.36627 258.103784 
L 297.974919 257.741838 
L 299.623784 257.661405 
L 301.554162 257.902703 
L 305.254054 258.546162 
L 315.348324 259.712432 
L 331.917405 260.79827 
L 335.416216 261.361297 
L 342.212757 262.92973 
L 346.757189 264.055784 
L 348.285405 264.176432 
L 353.111351 263.734054 
L 355.04173 263.975351 
L 362.119784 265.624216 
L 365.497946 266.629622 
L 375.109622 270.007784 
L 392.24173 276.241297 
L 392.24173 276.241297 
" style="fill:none;stroke:#bfec8e;stroke-linecap:square;stroke-width:1.5;"/>
   </g>
   <g id="line2d_82">
    <path clip-path="url(#p65acbdb621)" d="M 281.124324 192.35027 
L 281.204757 192.35027 
L 281.727568 192.470919 
L 282.290595 192.672 
L 282.934054 193.114378 
L 283.456865 193.637189 
L 283.979676 194.361081 
L 284.582919 195.96973 
L 284.864432 197.900108 
L 284.864432 199.508757 
L 284.784 201.117405 
L 284.703568 202.726054 
L 284.582919 204.576 
L 284.220973 206.184649 
L 283.778595 207.954162 
L 283.416649 209.804108 
L 283.175351 211.372541 
L 282.934054 213.222486 
L 282.732973 214.992 
L 282.773189 216.600649 
L 282.773189 218.209297 
L 282.773189 219.817946 
L 282.732973 221.426595 
L 282.692757 223.316757 
L 282.652541 225.166703 
L 282.572108 227.056865 
L 282.531892 228.665514 
L 282.491676 230.274162 
L 282.491676 232.164324 
L 282.451459 233.772973 
L 282.411243 235.622919 
L 282.371027 237.231568 
L 282.371027 238.558703 
L 282.330811 240.448865 
L 282.330811 242.339027 
L 282.290595 243.947676 
L 282.290595 245.556324 
L 282.250378 246.883459 
L 282.250378 248.492108 
L 282.210162 249.819243 
L 282.210162 251.427892 
L 282.169946 253.036541 
L 282.169946 254.645189 
L 282.12973 256.012541 
L 282.12973 257.621189 
L 282.089514 259.229838 
L 282.089514 260.838486 
L 282.049297 262.447135 
L 282.009081 264.297081 
L 282.009081 265.90573 
L 281.968865 267.795892 
L 281.968865 269.686054 
L 281.928649 271.294703 
L 281.928649 272.903351 
L 281.888432 274.512 
L 281.888432 276.361946 
L 281.848216 277.970595 
L 281.808 279.860757 
L 281.808 281.187892 
L 281.767784 283.078054 
L 281.767784 284.968216 
L 281.727568 286.576865 
L 281.727568 288.426811 
L 281.687351 290.316973 
L 281.647135 291.925622 
L 281.647135 293.252757 
L 281.606919 294.861405 
L 281.606919 296.470054 
L 281.566703 298.078703 
L 281.566703 299.687351 
L 281.566703 301.296 
L 281.526486 302.663351 
L 281.526486 304.513297 
L 281.526486 306.121946 
L 281.526486 308.012108 
L 281.526486 309.620757 
L 281.48627 311.510919 
L 281.48627 313.119568 
L 281.446054 314.969514 
L 281.405838 316.336865 
L 281.365622 318.186811 
L 281.365622 319.795459 
L 281.325405 321.404108 
L 281.285189 323.29427 
L 281.285189 325.184432 
L 281.244973 326.793081 
L 281.244973 328.120216 
L 281.244973 329.728865 
L 281.244973 331.619027 
" style="fill:none;stroke:#ffb462;stroke-linecap:square;stroke-width:1.5;"/>
   </g>
   <g id="line2d_83">
    <path clip-path="url(#p65acbdb621)" d="M 140.367568 304.955676 
L 141.091459 304.955676 
L 142.539243 304.915459 
L 144.067459 304.714378 
L 145.676108 304.473081 
L 147.244541 304.191568 
L 149.094486 303.869838 
L 150.944432 303.548108 
L 152.271568 303.347027 
L 153.880216 303.065514 
L 155.448649 302.784 
L 157.057297 302.542703 
L 158.62573 302.261189 
L 160.194162 301.979676 
L 161.521297 301.778595 
L 163.129946 301.497081 
L 164.698378 301.255784 
L 166.548324 300.934054 
L 168.156973 300.652541 
L 169.725405 300.371027 
L 171.575351 300.089514 
L 172.902486 299.848216 
L 174.752432 299.526486 
L 176.602378 299.244973 
L 178.170811 298.963459 
L 179.497946 298.722162 
L 181.347892 298.440649 
L 183.197838 298.118919 
L 184.806486 297.837405 
L 186.656432 297.515676 
L 188.506378 297.234162 
L 190.074811 296.952649 
L 191.683459 296.671135 
L 193.533405 296.349405 
L 195.383351 296.067892 
L 197.233297 295.746162 
L 198.439784 295.545081 
L 199.445189 295.303784 
L 200.410378 295.062486 
L 201.576649 294.700541 
L 202.582054 294.338595 
L 203.748324 293.936432 
L 205.035243 293.413622 
L 206.563459 293.011459 
L 208.413405 292.649514 
L 210.022054 292.408216 
L 211.872 292.126703 
L 213.721946 291.885405 
L 215.330595 291.644108 
L 217.180541 291.362595 
L 219.030486 291.081081 
L 220.639135 290.839784 
L 222.247784 290.638703 
L 224.09773 290.357189 
L 225.947676 290.115892 
L 227.556324 289.874595 
L 229.124757 289.673514 
L 231.014919 289.432216 
L 232.583351 289.231135 
L 234.473514 289.030054 
L 236.323459 288.788757 
L 237.932108 288.627892 
L 239.782054 288.426811 
L 241.390703 288.265946 
L 242.717838 288.105081 
L 244.326486 287.944216 
L 245.935135 287.783351 
L 247.543784 287.622486 
L 249.39373 287.381189 
L 250.761081 287.220324 
L 251.484973 287.099676 
L 251.444757 287.139892 
L 251.444757 287.099676 
L 251.927351 286.818162 
L 253.174054 286.255135 
L 254.863135 285.732324 
L 256.270703 285.370378 
L 256.793514 285.209514 
L 256.994595 285.048649 
L 257.356541 284.686703 
L 257.517405 284.445405 
L 257.557622 284.405189 
L 258.160865 283.721514 
L 259.246703 282.917189 
L 260.694486 282.233514 
L 262.303135 281.871568 
L 264.27373 281.750919 
L 266.083459 281.831351 
L 267.692108 281.911784 
L 269.58227 281.952 
L 271.190919 281.911784 
L 273.040865 281.871568 
L 274.931027 281.750919 
L 276.780973 281.63027 
L 278.389622 281.549838 
L 280.239568 281.388973 
L 282.12973 281.187892 
L 283.698162 281.027027 
L 285.588324 280.78573 
L 287.156757 280.584649 
L 288.725189 280.343351 
L 290.575135 279.981405 
L 292.103351 279.579243 
L 293.631568 279.136865 
L 295.2 278.734703 
L 297.090162 278.372757 
L 298.417297 278.171676 
L 300.025946 277.970595 
L 301.875892 277.769514 
L 303.484541 277.648865 
L 305.093189 277.528216 
L 306.983351 277.367351 
" style="fill:none;stroke:#ff6232;stroke-linecap:square;stroke-width:1.5;"/>
   </g>
   <g id="line2d_84">
    <path clip-path="url(#p65acbdb621)" d="M 393.72973 220.501622 
L 393.971027 220.582054 
L 394.091676 220.823351 
L 394.091676 221.185297 
L 393.890595 222.150486 
L 393.08627 223.879784 
L 392.121081 225.247135 
L 390.874378 226.413405 
L 383.474595 231.199135 
L 376.034595 236.507676 
L 373.259676 238.156541 
L 371.811892 238.920649 
L 368.835892 240.167351 
L 365.699027 241.132541 
L 361.999135 241.856432 
L 358.259027 242.258595 
L 351.020108 242.660757 
L 338.070486 244.872649 
L 326.166486 246.803027 
L 324.477405 247.084541 
L 319.369946 248.532324 
L 317.680865 248.693189 
L 316.032 248.492108 
L 314.182054 247.888865 
L 312.492973 246.883459 
L 309.718054 244.349838 
L 308.310486 243.465081 
L 306.661622 242.741189 
L 303.363892 241.977081 
L 300.267243 240.770595 
L 298.457514 240.368432 
L 296.929297 240.328216 
L 293.631568 240.971676 
L 291.821838 241.132541 
L 289.811027 240.931459 
L 288.242595 240.448865 
L 283.456865 238.518486 
L 281.687351 238.277189 
L 277.66573 238.438054 
L 275.614703 238.076108 
L 273.563676 237.593514 
L 271.834378 236.909838 
L 270.386595 235.984865 
L 269.019243 234.617514 
L 268.214919 233.411027 
L 267.169297 232.043676 
L 266.043243 230.998054 
L 264.836757 230.233946 
L 263.107459 229.308973 
L 261.257514 227.901405 
L 259.970595 226.694919 
L 260.171676 226.775351 
L 260.252108 226.735135 
L 261.29773 226.453622 
L 261.740108 226.011243 
L 261.539027 226.534054 
L 261.177081 230.877405 
L 261.136865 232.244757 
L 261.941189 237.553297 
L 261.740108 239.202162 
L 261.217297 240.810811 
L 260.372757 242.258595 
L 259.246703 243.505297 
L 257.919568 244.510703 
L 256.150054 245.355243 
L 253.013189 246.320432 
L 233.387676 251.749622 
L 219.875027 255.248432 
L 211.952432 256.816865 
L 205.316757 257.741838 
L 196.831135 258.908108 
L 193.131243 259.591784 
L 189.511784 260.436324 
L 182.835892 262.326486 
L 176.723027 264.337297 
L 142.458811 276.080432 
L 142.458811 276.080432 
" style="fill:none;stroke:#ff0000;stroke-linecap:square;stroke-width:1.5;"/>
   </g>
   <g id="patch_3">
    <path d="M 72 512.64 
L 72 69.12 
" style="fill:none;stroke:#000000;stroke-linecap:square;stroke-linejoin:miter;stroke-width:0.8;"/>
   </g>
   <g id="patch_4">
    <path d="M 518.4 512.64 
L 518.4 69.12 
" style="fill:none;stroke:#000000;stroke-linecap:square;stroke-linejoin:miter;stroke-width:0.8;"/>
   </g>
   <g id="patch_5">
    <path d="M 72 512.64 
L 518.4 512.64 
" style="fill:none;stroke:#000000;stroke-linecap:square;stroke-linejoin:miter;stroke-width:0.8;"/>
   </g>
   <g id="patch_6">
    <path d="M 72 69.12 
L 518.4 69.12 
" style="fill:none;stroke:#000000;stroke-linecap:square;stroke-linejoin:miter;stroke-width:0.8;"/>
   </g>
   <g id="text_13">
    <!-- 1 -->
    <defs>
     <path d="M 14.203125 0 
L 14.203125 5.171875 
L 26.90625 5.171875 
L 26.90625 65.828125 
L 12.203125 56.296875 
L 12.203125 62.703125 
L 29.984375 74.21875 
L 36.71875 74.21875 
L 36.71875 5.171875 
L 49.421875 5.171875 
L 49.421875 0 
z
" id="DejaVuSerif-31"/>
    </defs>
    <g transform="translate(137.186318 389.40973)scale(0.1 -0.1)">
     <use xlink:href="#DejaVuSerif-31"/>
    </g>
   </g>
   <g id="text_14">
    <!-- 1 -->
    <g transform="translate(390.54848 192.35027)scale(0.1 -0.1)">
     <use xlink:href="#DejaVuSerif-31"/>
    </g>
   </g>
   <g id="text_15">
    <!-- 2 -->
    <defs>
     <path d="M 12.796875 55.515625 
L 7.328125 55.515625 
L 7.328125 68.5 
Q 12.546875 71.296875 17.84375 72.75 
Q 23.140625 74.21875 28.21875 74.21875 
Q 39.59375 74.21875 46.1875 68.703125 
Q 52.78125 63.1875 52.78125 53.71875 
Q 52.78125 43.015625 37.84375 28.125 
Q 36.671875 27 36.078125 26.421875 
L 17.671875 8.015625 
L 48.09375 8.015625 
L 48.09375 17 
L 53.8125 17 
L 53.8125 0 
L 6.78125 0 
L 6.78125 5.328125 
L 28.90625 27.390625 
Q 36.234375 34.71875 39.359375 40.84375 
Q 42.484375 46.96875 42.484375 53.71875 
Q 42.484375 61.078125 38.640625 65.234375 
Q 34.8125 69.390625 28.078125 69.390625 
Q 21.09375 69.390625 17.28125 65.921875 
Q 13.484375 62.453125 12.796875 55.515625 
z
" id="DejaVuSerif-32"/>
    </defs>
    <g transform="translate(446.851182 192.35027)scale(0.1 -0.1)">
     <use xlink:href="#DejaVuSerif-32"/>
    </g>
   </g>
   <g id="text_16">
    <!-- 2 -->
    <g transform="translate(221.640372 361.258378)scale(0.1 -0.1)">
     <use xlink:href="#DejaVuSerif-32"/>
    </g>
   </g>
   <g id="text_17">
    <!-- 3 -->
    <defs>
     <path d="M 9.71875 69.828125 
Q 15.4375 71.96875 20.671875 73.09375 
Q 25.921875 74.21875 30.515625 74.21875 
Q 41.21875 74.21875 47.21875 69.59375 
Q 53.21875 64.984375 53.21875 56.78125 
Q 53.21875 50.203125 49.0625 45.78125 
Q 44.921875 41.359375 37.3125 39.796875 
Q 46.296875 38.53125 51.25 33.28125 
Q 56.203125 28.03125 56.203125 19.671875 
Q 56.203125 9.46875 49.34375 4.015625 
Q 42.484375 -1.421875 29.59375 -1.421875 
Q 23.875 -1.421875 18.421875 -0.1875 
Q 12.984375 1.03125 7.625 3.515625 
L 7.625 17.671875 
L 13.09375 17.671875 
Q 13.578125 10.640625 17.828125 7.03125 
Q 22.078125 3.421875 29.78125 3.421875 
Q 37.25 3.421875 41.578125 7.734375 
Q 45.90625 12.0625 45.90625 19.578125 
Q 45.90625 28.171875 41.453125 32.59375 
Q 37.015625 37.015625 28.421875 37.015625 
L 23.78125 37.015625 
L 23.78125 42 
L 26.21875 42 
Q 34.765625 42 39.03125 45.53125 
Q 43.3125 49.078125 43.3125 56.203125 
Q 43.3125 62.59375 39.796875 65.984375 
Q 36.28125 69.390625 29.6875 69.390625 
Q 23.09375 69.390625 19.453125 66.265625 
Q 15.828125 63.140625 15.1875 56.984375 
L 9.71875 56.984375 
z
" id="DejaVuSerif-33"/>
    </defs>
    <g transform="translate(398.993885 440.082162)scale(0.1 -0.1)">
     <use xlink:href="#DejaVuSerif-33"/>
    </g>
   </g>
   <g id="text_18">
    <!-- 3 -->
    <g transform="translate(221.640372 192.35027)scale(0.1 -0.1)">
     <use xlink:href="#DejaVuSerif-33"/>
    </g>
   </g>
   <g id="text_19">
    <!-- 4 -->
    <defs>
     <path d="M 34.90625 24.703125 
L 34.90625 63.484375 
L 10.015625 24.703125 
z
M 56.390625 0 
L 23.1875 0 
L 23.1875 5.171875 
L 34.90625 5.171875 
L 34.90625 19.484375 
L 3.078125 19.484375 
L 3.078125 24.8125 
L 35.015625 74.21875 
L 44.671875 74.21875 
L 44.671875 24.703125 
L 58.59375 24.703125 
L 58.59375 19.484375 
L 44.671875 19.484375 
L 44.671875 5.171875 
L 56.390625 5.171875 
z
" id="DejaVuSerif-34"/>
    </defs>
    <g transform="translate(221.640372 136.047568)scale(0.1 -0.1)">
     <use xlink:href="#DejaVuSerif-34"/>
    </g>
   </g>
   <g id="text_20">
    <!-- 4 -->
    <g transform="translate(390.54848 361.258378)scale(0.1 -0.1)">
     <use xlink:href="#DejaVuSerif-34"/>
    </g>
   </g>
   <g id="text_21">
    <!-- 5 -->
    <defs>
     <path d="M 50.296875 72.90625 
L 50.296875 64.890625 
L 16.890625 64.890625 
L 16.890625 44 
Q 19.4375 45.75 22.828125 46.625 
Q 26.21875 47.515625 30.421875 47.515625 
Q 42.234375 47.515625 49.0625 40.96875 
Q 55.90625 34.421875 55.90625 23.09375 
Q 55.90625 11.53125 49 5.046875 
Q 42.09375 -1.421875 29.59375 -1.421875 
Q 24.5625 -1.421875 19.28125 -0.1875 
Q 14.015625 1.03125 8.5 3.515625 
L 8.5 17.671875 
L 14.015625 17.671875 
Q 14.453125 10.75 18.421875 7.078125 
Q 22.40625 3.421875 29.59375 3.421875 
Q 37.3125 3.421875 41.453125 8.5 
Q 45.609375 13.578125 45.609375 23.09375 
Q 45.609375 32.5625 41.484375 37.609375 
Q 37.359375 42.671875 29.59375 42.671875 
Q 25.203125 42.671875 21.84375 41.109375 
Q 18.5 39.546875 15.921875 36.28125 
L 11.71875 36.28125 
L 11.71875 72.90625 
z
" id="DejaVuSerif-35"/>
    </defs>
    <g transform="translate(446.851182 304.955676)scale(0.1 -0.1)">
     <use xlink:href="#DejaVuSerif-35"/>
    </g>
   </g>
   <g id="text_22">
    <!-- 5 -->
    <g transform="translate(193.48902 248.652973)scale(0.1 -0.1)">
     <use xlink:href="#DejaVuSerif-35"/>
    </g>
   </g>
   <g id="text_23">
    <!-- 6 -->
    <defs>
     <path d="M 32.71875 3.421875 
Q 39.59375 3.421875 43.296875 8.46875 
Q 47.015625 13.53125 47.015625 23 
Q 47.015625 32.46875 43.296875 37.515625 
Q 39.59375 42.578125 32.71875 42.578125 
Q 25.734375 42.578125 22.0625 37.6875 
Q 18.40625 32.8125 18.40625 23.578125 
Q 18.40625 13.875 22.109375 8.640625 
Q 25.828125 3.421875 32.71875 3.421875 
z
M 16.796875 40.140625 
Q 20.125 43.796875 24.3125 45.59375 
Q 28.515625 47.40625 33.796875 47.40625 
Q 44.671875 47.40625 51 40.859375 
Q 57.328125 34.328125 57.328125 23 
Q 57.328125 11.921875 50.515625 5.25 
Q 43.703125 -1.421875 32.328125 -1.421875 
Q 19.96875 -1.421875 13.328125 7.78125 
Q 6.6875 17 6.6875 34.078125 
Q 6.6875 53.21875 14.546875 63.71875 
Q 22.40625 74.21875 36.71875 74.21875 
Q 40.578125 74.21875 44.828125 73.484375 
Q 49.078125 72.75 53.515625 71.296875 
L 53.515625 59.28125 
L 48 59.28125 
Q 47.40625 64.203125 44.234375 66.796875 
Q 41.0625 69.390625 35.6875 69.390625 
Q 26.21875 69.390625 21.578125 62.203125 
Q 16.9375 55.03125 16.796875 40.140625 
z
" id="DejaVuSerif-36"/>
    </defs>
    <g transform="translate(137.186318 248.652973)scale(0.1 -0.1)">
     <use xlink:href="#DejaVuSerif-36"/>
    </g>
   </g>
   <g id="text_24">
    <!-- 6 -->
    <g transform="translate(390.54848 276.804324)scale(0.1 -0.1)">
     <use xlink:href="#DejaVuSerif-36"/>
    </g>
   </g>
   <g id="text_25">
    <!-- 7 -->
    <defs>
     <path d="M 56.390625 67.921875 
L 27.875 0 
L 20.609375 0 
L 47.796875 64.890625 
L 14.109375 64.890625 
L 14.109375 55.90625 
L 8.40625 55.90625 
L 8.40625 72.90625 
L 56.390625 72.90625 
z
" id="DejaVuSerif-37"/>
    </defs>
    <g transform="translate(277.943074 192.35027)scale(0.1 -0.1)">
     <use xlink:href="#DejaVuSerif-37"/>
    </g>
   </g>
   <g id="text_26">
    <!-- 7 -->
    <g transform="translate(277.943074 333.107027)scale(0.1 -0.1)">
     <use xlink:href="#DejaVuSerif-37"/>
    </g>
   </g>
   <g id="text_27">
    <!-- 8 -->
    <defs>
     <path d="M 46.578125 19.921875 
Q 46.578125 27.734375 42.6875 32.046875 
Q 38.8125 36.375 31.78125 36.375 
Q 24.75 36.375 20.875 32.046875 
Q 17 27.734375 17 19.921875 
Q 17 12.0625 20.875 7.734375 
Q 24.75 3.421875 31.78125 3.421875 
Q 38.8125 3.421875 42.6875 7.734375 
Q 46.578125 12.0625 46.578125 19.921875 
z
M 44.578125 55.328125 
Q 44.578125 61.96875 41.203125 65.671875 
Q 37.84375 69.390625 31.78125 69.390625 
Q 25.78125 69.390625 22.390625 65.671875 
Q 19 61.96875 19 55.328125 
Q 19 48.640625 22.390625 44.921875 
Q 25.78125 41.21875 31.78125 41.21875 
Q 37.84375 41.21875 41.203125 44.921875 
Q 44.578125 48.640625 44.578125 55.328125 
z
M 39.3125 38.8125 
Q 47.609375 37.703125 52.25 32.6875 
Q 56.890625 27.6875 56.890625 19.921875 
Q 56.890625 9.671875 50.390625 4.125 
Q 43.890625 -1.421875 31.78125 -1.421875 
Q 19.734375 -1.421875 13.203125 4.125 
Q 6.6875 9.671875 6.6875 19.921875 
Q 6.6875 27.6875 11.328125 32.6875 
Q 15.96875 37.703125 24.3125 38.8125 
Q 16.9375 40.140625 13 44.40625 
Q 9.078125 48.6875 9.078125 55.328125 
Q 9.078125 64.109375 15.125 69.15625 
Q 21.1875 74.21875 31.78125 74.21875 
Q 42.390625 74.21875 48.4375 69.15625 
Q 54.5 64.109375 54.5 55.328125 
Q 54.5 48.6875 50.5625 44.40625 
Q 46.625 40.140625 39.3125 38.8125 
z
" id="DejaVuSerif-38"/>
    </defs>
    <g transform="translate(137.186318 304.955676)scale(0.1 -0.1)">
     <use xlink:href="#DejaVuSerif-38"/>
    </g>
   </g>
   <g id="text_28">
    <!-- 8 -->
    <g transform="translate(306.094426 276.804324)scale(0.1 -0.1)">
     <use xlink:href="#DejaVuSerif-38"/>
    </g>
   </g>
   <g id="text_29">
    <!-- 9 -->
    <defs>
     <path d="M 46.78125 32.671875 
Q 43.5 29 39.25 27.1875 
Q 35.015625 25.390625 29.6875 25.390625 
Q 18.84375 25.390625 12.5625 31.9375 
Q 6.296875 38.484375 6.296875 49.8125 
Q 6.296875 60.890625 13.109375 67.546875 
Q 19.921875 74.21875 31.296875 74.21875 
Q 43.65625 74.21875 50.265625 65.015625 
Q 56.890625 55.8125 56.890625 38.71875 
Q 56.890625 19.578125 49.015625 9.078125 
Q 41.15625 -1.421875 26.90625 -1.421875 
Q 23.046875 -1.421875 18.796875 -0.6875 
Q 14.546875 0.046875 10.109375 1.515625 
L 10.109375 13.625 
L 15.578125 13.625 
Q 16.21875 8.6875 19.390625 6.046875 
Q 22.5625 3.421875 27.875 3.421875 
Q 37.359375 3.421875 41.984375 10.5625 
Q 46.625 17.71875 46.78125 32.671875 
z
M 30.90625 69.390625 
Q 23.96875 69.390625 20.28125 64.328125 
Q 16.609375 59.28125 16.609375 49.8125 
Q 16.609375 40.328125 20.28125 35.25 
Q 23.96875 30.171875 30.90625 30.171875 
Q 37.84375 30.171875 41.53125 35.078125 
Q 45.21875 39.984375 45.21875 49.21875 
Q 45.21875 58.9375 41.5 64.15625 
Q 37.796875 69.390625 30.90625 69.390625 
z
" id="DejaVuSerif-39"/>
    </defs>
    <g transform="translate(390.54848 220.501622)scale(0.1 -0.1)">
     <use xlink:href="#DejaVuSerif-39"/>
    </g>
   </g>
   <g id="text_30">
    <!-- 9 -->
    <g transform="translate(137.186318 276.804324)scale(0.1 -0.1)">
     <use xlink:href="#DejaVuSerif-39"/>
    </g>
   </g>
   <g id="text_31">
    <!-- MRPP -->
    <defs>
     <path d="M 9.8125 72.90625 
L 24.515625 72.90625 
L 43.109375 23.296875 
L 61.8125 72.90625 
L 76.515625 72.90625 
L 76.515625 0 
L 66.890625 0 
L 66.890625 64.015625 
L 48.09375 14.015625 
L 38.1875 14.015625 
L 19.390625 64.015625 
L 19.390625 0 
L 9.8125 0 
z
" id="DejaVuSans-4d"/>
     <path d="M 44.390625 34.1875 
Q 47.5625 33.109375 50.5625 29.59375 
Q 53.5625 26.078125 56.59375 19.921875 
L 66.609375 0 
L 56 0 
L 46.6875 18.703125 
Q 43.0625 26.03125 39.671875 28.421875 
Q 36.28125 30.8125 30.421875 30.8125 
L 19.671875 30.8125 
L 19.671875 0 
L 9.8125 0 
L 9.8125 72.90625 
L 32.078125 72.90625 
Q 44.578125 72.90625 50.734375 67.671875 
Q 56.890625 62.453125 56.890625 51.90625 
Q 56.890625 45.015625 53.6875 40.46875 
Q 50.484375 35.9375 44.390625 34.1875 
z
M 19.671875 64.796875 
L 19.671875 38.921875 
L 32.078125 38.921875 
Q 39.203125 38.921875 42.84375 42.21875 
Q 46.484375 45.515625 46.484375 51.90625 
Q 46.484375 58.296875 42.84375 61.546875 
Q 39.203125 64.796875 32.078125 64.796875 
z
" id="DejaVuSans-52"/>
     <path d="M 19.671875 64.796875 
L 19.671875 37.40625 
L 32.078125 37.40625 
Q 38.96875 37.40625 42.71875 40.96875 
Q 46.484375 44.53125 46.484375 51.125 
Q 46.484375 57.671875 42.71875 61.234375 
Q 38.96875 64.796875 32.078125 64.796875 
z
M 9.8125 72.90625 
L 32.078125 72.90625 
Q 44.34375 72.90625 50.609375 67.359375 
Q 56.890625 61.8125 56.890625 51.125 
Q 56.890625 40.328125 50.609375 34.8125 
Q 44.34375 29.296875 32.078125 29.296875 
L 19.671875 29.296875 
L 19.671875 0 
L 9.8125 0 
z
" id="DejaVuSans-50"/>
    </defs>
    <g transform="translate(278.618437 63.12)scale(0.12 -0.12)">
     <use xlink:href="#DejaVuSans-4d"/>
     <use x="86.279297" xlink:href="#DejaVuSans-52"/>
     <use x="155.761719" xlink:href="#DejaVuSans-50"/>
     <use x="216.064453" xlink:href="#DejaVuSans-50"/>
    </g>
   </g>
  </g>
 </g>
 <defs>
  <clipPath id="p65acbdb621">
   <rect height="443.52" width="446.4" x="72" y="69.12"/>
  </clipPath>
 </defs>
</svg>
