<?xml version="1.0" encoding="utf-8" standalone="no"?>
<!DOCTYPE svg PUBLIC "-//W3C//DTD SVG 1.1//EN"
  "http://www.w3.org/Graphics/SVG/1.1/DTD/svg11.dtd">
<!-- Created with matplotlib (http://matplotlib.org/) -->
<svg height="576pt" version="1.1" viewBox="0 0 576 576" width="576pt" xmlns="http://www.w3.org/2000/svg" xmlns:xlink="http://www.w3.org/1999/xlink">
 <defs>
  <style type="text/css">
*{stroke-linecap:butt;stroke-linejoin:round;}
  </style>
 </defs>
 <g id="figure_1">
  <g id="patch_1">
   <path d="M 0 576 
L 576 576 
L 576 0 
L 0 0 
z
" style="fill:#ffffff;"/>
  </g>
  <g id="axes_1">
   <g id="patch_2">
    <path d="M 72 512.64 
L 518.4 512.64 
L 518.4 69.12 
L 72 69.12 
z
" style="fill:#ffffff;"/>
   </g>
   <g id="matplotlib.axis_1">
    <g id="xtick_1">
     <g id="line2d_1">
      <defs>
       <path d="M 0 0 
L 0 3.5 
" id="m140a73007b" style="stroke:#000000;stroke-width:0.8;"/>
      </defs>
      <g>
       <use style="stroke:#000000;stroke-width:0.8;" x="112.216216" xlink:href="#m140a73007b" y="512.64"/>
      </g>
     </g>
     <g id="text_1">
      <!-- 0 -->
      <defs>
       <path d="M 31.78125 66.40625 
Q 24.171875 66.40625 20.328125 58.90625 
Q 16.5 51.421875 16.5 36.375 
Q 16.5 21.390625 20.328125 13.890625 
Q 24.171875 6.390625 31.78125 6.390625 
Q 39.453125 6.390625 43.28125 13.890625 
Q 47.125 21.390625 47.125 36.375 
Q 47.125 51.421875 43.28125 58.90625 
Q 39.453125 66.40625 31.78125 66.40625 
z
M 31.78125 74.21875 
Q 44.046875 74.21875 50.515625 64.515625 
Q 56.984375 54.828125 56.984375 36.375 
Q 56.984375 17.96875 50.515625 8.265625 
Q 44.046875 -1.421875 31.78125 -1.421875 
Q 19.53125 -1.421875 13.0625 8.265625 
Q 6.59375 17.96875 6.59375 36.375 
Q 6.59375 54.828125 13.0625 64.515625 
Q 19.53125 74.21875 31.78125 74.21875 
z
" id="DejaVuSans-30"/>
      </defs>
      <g transform="translate(109.034966 527.238438)scale(0.1 -0.1)">
       <use xlink:href="#DejaVuSans-30"/>
      </g>
     </g>
    </g>
    <g id="xtick_2">
     <g id="line2d_2">
      <g>
       <use style="stroke:#000000;stroke-width:0.8;" x="192.648649" xlink:href="#m140a73007b" y="512.64"/>
      </g>
     </g>
     <g id="text_2">
      <!-- 2 -->
      <defs>
       <path d="M 19.1875 8.296875 
L 53.609375 8.296875 
L 53.609375 0 
L 7.328125 0 
L 7.328125 8.296875 
Q 12.9375 14.109375 22.625 23.890625 
Q 32.328125 33.6875 34.8125 36.53125 
Q 39.546875 41.84375 41.421875 45.53125 
Q 43.3125 49.21875 43.3125 52.78125 
Q 43.3125 58.59375 39.234375 62.25 
Q 35.15625 65.921875 28.609375 65.921875 
Q 23.96875 65.921875 18.8125 64.3125 
Q 13.671875 62.703125 7.8125 59.421875 
L 7.8125 69.390625 
Q 13.765625 71.78125 18.9375 73 
Q 24.125 74.21875 28.421875 74.21875 
Q 39.75 74.21875 46.484375 68.546875 
Q 53.21875 62.890625 53.21875 53.421875 
Q 53.21875 48.921875 51.53125 44.890625 
Q 49.859375 40.875 45.40625 35.40625 
Q 44.1875 33.984375 37.640625 27.21875 
Q 31.109375 20.453125 19.1875 8.296875 
z
" id="DejaVuSans-32"/>
      </defs>
      <g transform="translate(189.467399 527.238438)scale(0.1 -0.1)">
       <use xlink:href="#DejaVuSans-32"/>
      </g>
     </g>
    </g>
    <g id="xtick_3">
     <g id="line2d_3">
      <g>
       <use style="stroke:#000000;stroke-width:0.8;" x="273.081081" xlink:href="#m140a73007b" y="512.64"/>
      </g>
     </g>
     <g id="text_3">
      <!-- 4 -->
      <defs>
       <path d="M 37.796875 64.3125 
L 12.890625 25.390625 
L 37.796875 25.390625 
z
M 35.203125 72.90625 
L 47.609375 72.90625 
L 47.609375 25.390625 
L 58.015625 25.390625 
L 58.015625 17.1875 
L 47.609375 17.1875 
L 47.609375 0 
L 37.796875 0 
L 37.796875 17.1875 
L 4.890625 17.1875 
L 4.890625 26.703125 
z
" id="DejaVuSans-34"/>
      </defs>
      <g transform="translate(269.899831 527.238438)scale(0.1 -0.1)">
       <use xlink:href="#DejaVuSans-34"/>
      </g>
     </g>
    </g>
    <g id="xtick_4">
     <g id="line2d_4">
      <g>
       <use style="stroke:#000000;stroke-width:0.8;" x="353.513514" xlink:href="#m140a73007b" y="512.64"/>
      </g>
     </g>
     <g id="text_4">
      <!-- 6 -->
      <defs>
       <path d="M 33.015625 40.375 
Q 26.375 40.375 22.484375 35.828125 
Q 18.609375 31.296875 18.609375 23.390625 
Q 18.609375 15.53125 22.484375 10.953125 
Q 26.375 6.390625 33.015625 6.390625 
Q 39.65625 6.390625 43.53125 10.953125 
Q 47.40625 15.53125 47.40625 23.390625 
Q 47.40625 31.296875 43.53125 35.828125 
Q 39.65625 40.375 33.015625 40.375 
z
M 52.59375 71.296875 
L 52.59375 62.3125 
Q 48.875 64.0625 45.09375 64.984375 
Q 41.3125 65.921875 37.59375 65.921875 
Q 27.828125 65.921875 22.671875 59.328125 
Q 17.53125 52.734375 16.796875 39.40625 
Q 19.671875 43.65625 24.015625 45.921875 
Q 28.375 48.1875 33.59375 48.1875 
Q 44.578125 48.1875 50.953125 41.515625 
Q 57.328125 34.859375 57.328125 23.390625 
Q 57.328125 12.15625 50.6875 5.359375 
Q 44.046875 -1.421875 33.015625 -1.421875 
Q 20.359375 -1.421875 13.671875 8.265625 
Q 6.984375 17.96875 6.984375 36.375 
Q 6.984375 53.65625 15.1875 63.9375 
Q 23.390625 74.21875 37.203125 74.21875 
Q 40.921875 74.21875 44.703125 73.484375 
Q 48.484375 72.75 52.59375 71.296875 
z
" id="DejaVuSans-36"/>
      </defs>
      <g transform="translate(350.332264 527.238438)scale(0.1 -0.1)">
       <use xlink:href="#DejaVuSans-36"/>
      </g>
     </g>
    </g>
    <g id="xtick_5">
     <g id="line2d_5">
      <g>
       <use style="stroke:#000000;stroke-width:0.8;" x="433.945946" xlink:href="#m140a73007b" y="512.64"/>
      </g>
     </g>
     <g id="text_5">
      <!-- 8 -->
      <defs>
       <path d="M 31.78125 34.625 
Q 24.75 34.625 20.71875 30.859375 
Q 16.703125 27.09375 16.703125 20.515625 
Q 16.703125 13.921875 20.71875 10.15625 
Q 24.75 6.390625 31.78125 6.390625 
Q 38.8125 6.390625 42.859375 10.171875 
Q 46.921875 13.96875 46.921875 20.515625 
Q 46.921875 27.09375 42.890625 30.859375 
Q 38.875 34.625 31.78125 34.625 
z
M 21.921875 38.8125 
Q 15.578125 40.375 12.03125 44.71875 
Q 8.5 49.078125 8.5 55.328125 
Q 8.5 64.0625 14.71875 69.140625 
Q 20.953125 74.21875 31.78125 74.21875 
Q 42.671875 74.21875 48.875 69.140625 
Q 55.078125 64.0625 55.078125 55.328125 
Q 55.078125 49.078125 51.53125 44.71875 
Q 48 40.375 41.703125 38.8125 
Q 48.828125 37.15625 52.796875 32.3125 
Q 56.78125 27.484375 56.78125 20.515625 
Q 56.78125 9.90625 50.3125 4.234375 
Q 43.84375 -1.421875 31.78125 -1.421875 
Q 19.734375 -1.421875 13.25 4.234375 
Q 6.78125 9.90625 6.78125 20.515625 
Q 6.78125 27.484375 10.78125 32.3125 
Q 14.796875 37.15625 21.921875 38.8125 
z
M 18.3125 54.390625 
Q 18.3125 48.734375 21.84375 45.5625 
Q 25.390625 42.390625 31.78125 42.390625 
Q 38.140625 42.390625 41.71875 45.5625 
Q 45.3125 48.734375 45.3125 54.390625 
Q 45.3125 60.0625 41.71875 63.234375 
Q 38.140625 66.40625 31.78125 66.40625 
Q 25.390625 66.40625 21.84375 63.234375 
Q 18.3125 60.0625 18.3125 54.390625 
z
" id="DejaVuSans-38"/>
      </defs>
      <g transform="translate(430.764696 527.238438)scale(0.1 -0.1)">
       <use xlink:href="#DejaVuSans-38"/>
      </g>
     </g>
    </g>
    <g id="xtick_6">
     <g id="line2d_6">
      <g>
       <use style="stroke:#000000;stroke-width:0.8;" x="514.378378" xlink:href="#m140a73007b" y="512.64"/>
      </g>
     </g>
     <g id="text_6">
      <!-- 10 -->
      <defs>
       <path d="M 12.40625 8.296875 
L 28.515625 8.296875 
L 28.515625 63.921875 
L 10.984375 60.40625 
L 10.984375 69.390625 
L 28.421875 72.90625 
L 38.28125 72.90625 
L 38.28125 8.296875 
L 54.390625 8.296875 
L 54.390625 0 
L 12.40625 0 
z
" id="DejaVuSans-31"/>
      </defs>
      <g transform="translate(508.015878 527.238438)scale(0.1 -0.1)">
       <use xlink:href="#DejaVuSans-31"/>
       <use x="63.623047" xlink:href="#DejaVuSans-30"/>
      </g>
     </g>
    </g>
   </g>
   <g id="matplotlib.axis_2">
    <g id="ytick_1">
     <g id="line2d_7">
      <defs>
       <path d="M 0 0 
L -3.5 0 
" id="m47753f2016" style="stroke:#000000;stroke-width:0.8;"/>
      </defs>
      <g>
       <use style="stroke:#000000;stroke-width:0.8;" x="72" xlink:href="#m47753f2016" y="473.863784"/>
      </g>
     </g>
     <g id="text_7">
      <!-- 0 -->
      <g transform="translate(58.6375 477.663003)scale(0.1 -0.1)">
       <use xlink:href="#DejaVuSans-30"/>
      </g>
     </g>
    </g>
    <g id="ytick_2">
     <g id="line2d_8">
      <g>
       <use style="stroke:#000000;stroke-width:0.8;" x="72" xlink:href="#m47753f2016" y="393.431351"/>
      </g>
     </g>
     <g id="text_8">
      <!-- 2 -->
      <g transform="translate(58.6375 397.23057)scale(0.1 -0.1)">
       <use xlink:href="#DejaVuSans-32"/>
      </g>
     </g>
    </g>
    <g id="ytick_3">
     <g id="line2d_9">
      <g>
       <use style="stroke:#000000;stroke-width:0.8;" x="72" xlink:href="#m47753f2016" y="312.998919"/>
      </g>
     </g>
     <g id="text_9">
      <!-- 4 -->
      <g transform="translate(58.6375 316.798138)scale(0.1 -0.1)">
       <use xlink:href="#DejaVuSans-34"/>
      </g>
     </g>
    </g>
    <g id="ytick_4">
     <g id="line2d_10">
      <g>
       <use style="stroke:#000000;stroke-width:0.8;" x="72" xlink:href="#m47753f2016" y="232.566486"/>
      </g>
     </g>
     <g id="text_10">
      <!-- 6 -->
      <g transform="translate(58.6375 236.365705)scale(0.1 -0.1)">
       <use xlink:href="#DejaVuSans-36"/>
      </g>
     </g>
    </g>
    <g id="ytick_5">
     <g id="line2d_11">
      <g>
       <use style="stroke:#000000;stroke-width:0.8;" x="72" xlink:href="#m47753f2016" y="152.134054"/>
      </g>
     </g>
     <g id="text_11">
      <!-- 8 -->
      <g transform="translate(58.6375 155.933273)scale(0.1 -0.1)">
       <use xlink:href="#DejaVuSans-38"/>
      </g>
     </g>
    </g>
    <g id="ytick_6">
     <g id="line2d_12">
      <g>
       <use style="stroke:#000000;stroke-width:0.8;" x="72" xlink:href="#m47753f2016" y="71.701622"/>
      </g>
     </g>
     <g id="text_12">
      <!-- 10 -->
      <g transform="translate(52.275 75.50084)scale(0.1 -0.1)">
       <use xlink:href="#DejaVuSans-31"/>
       <use x="63.623047" xlink:href="#DejaVuSans-30"/>
      </g>
     </g>
    </g>
   </g>
   <g id="line2d_13">
    <path clip-path="url(#pc42909de72)" d="M 140.367568 389.40973 
" style="fill:none;stroke:#1f77b4;stroke-linecap:square;stroke-width:1.5;"/>
    <defs>
     <path d="M -5 5 
L 5 5 
L 5 -5 
L -5 -5 
z
" id="mace9482fa1" style="stroke:#8000ff;stroke-linejoin:miter;"/>
    </defs>
    <g clip-path="url(#pc42909de72)">
     <use style="fill:#8000ff;stroke:#8000ff;stroke-linejoin:miter;" x="140.367568" xlink:href="#mace9482fa1" y="389.40973"/>
    </g>
   </g>
   <g id="line2d_14">
    <path clip-path="url(#pc42909de72)" d="M 393.72973 192.35027 
" style="fill:none;stroke:#ff7f0e;stroke-linecap:square;stroke-width:1.5;"/>
    <defs>
     <path d="M 0 -5 
L -4.755283 -1.545085 
L -2.938926 4.045085 
L 2.938926 4.045085 
L 4.755283 -1.545085 
z
" id="m50fd320296" style="stroke:#8000ff;stroke-linejoin:miter;"/>
    </defs>
    <g clip-path="url(#pc42909de72)">
     <use style="fill:#8000ff;stroke:#8000ff;stroke-linejoin:miter;" x="393.72973" xlink:href="#m50fd320296" y="192.35027"/>
    </g>
   </g>
   <g id="line2d_15">
    <path clip-path="url(#pc42909de72)" d="M 450.032432 192.35027 
" style="fill:none;stroke:#2ca02c;stroke-linecap:square;stroke-width:1.5;"/>
    <defs>
     <path d="M -5 5 
L 5 5 
L 5 -5 
L -5 -5 
z
" id="m654c9f7c2d" style="stroke:#4757fb;stroke-linejoin:miter;"/>
    </defs>
    <g clip-path="url(#pc42909de72)">
     <use style="fill:#4757fb;stroke:#4757fb;stroke-linejoin:miter;" x="450.032432" xlink:href="#m654c9f7c2d" y="192.35027"/>
    </g>
   </g>
   <g id="line2d_16">
    <path clip-path="url(#pc42909de72)" d="M 224.821622 361.258378 
" style="fill:none;stroke:#d62728;stroke-linecap:square;stroke-width:1.5;"/>
    <defs>
     <path d="M 0 -5 
L -4.755283 -1.545085 
L -2.938926 4.045085 
L 2.938926 4.045085 
L 4.755283 -1.545085 
z
" id="m0fdcba707f" style="stroke:#4757fb;stroke-linejoin:miter;"/>
    </defs>
    <g clip-path="url(#pc42909de72)">
     <use style="fill:#4757fb;stroke:#4757fb;stroke-linejoin:miter;" x="224.821622" xlink:href="#m0fdcba707f" y="361.258378"/>
    </g>
   </g>
   <g id="line2d_17">
    <path clip-path="url(#pc42909de72)" d="M 402.175135 440.082162 
" style="fill:none;stroke:#9467bd;stroke-linecap:square;stroke-width:1.5;"/>
    <defs>
     <path d="M -5 5 
L 5 5 
L 5 -5 
L -5 -5 
z
" id="m753fc7d87e" style="stroke:#0ea4f0;stroke-linejoin:miter;"/>
    </defs>
    <g clip-path="url(#pc42909de72)">
     <use style="fill:#0ea4f0;stroke:#0ea4f0;stroke-linejoin:miter;" x="402.175135" xlink:href="#m753fc7d87e" y="440.082162"/>
    </g>
   </g>
   <g id="line2d_18">
    <path clip-path="url(#pc42909de72)" d="M 224.821622 192.35027 
" style="fill:none;stroke:#8c564b;stroke-linecap:square;stroke-width:1.5;"/>
    <defs>
     <path d="M 0 -5 
L -4.755283 -1.545085 
L -2.938926 4.045085 
L 2.938926 4.045085 
L 4.755283 -1.545085 
z
" id="m385f71144e" style="stroke:#0ea4f0;stroke-linejoin:miter;"/>
    </defs>
    <g clip-path="url(#pc42909de72)">
     <use style="fill:#0ea4f0;stroke:#0ea4f0;stroke-linejoin:miter;" x="224.821622" xlink:href="#m385f71144e" y="192.35027"/>
    </g>
   </g>
   <g id="line2d_19">
    <path clip-path="url(#pc42909de72)" d="M 224.821622 136.047568 
" style="fill:none;stroke:#e377c2;stroke-linecap:square;stroke-width:1.5;"/>
    <defs>
     <path d="M -5 5 
L 5 5 
L 5 -5 
L -5 -5 
z
" id="m800eccaacb" style="stroke:#2adddd;stroke-linejoin:miter;"/>
    </defs>
    <g clip-path="url(#pc42909de72)">
     <use style="fill:#2adddd;stroke:#2adddd;stroke-linejoin:miter;" x="224.821622" xlink:href="#m800eccaacb" y="136.047568"/>
    </g>
   </g>
   <g id="line2d_20">
    <path clip-path="url(#pc42909de72)" d="M 393.72973 361.258378 
" style="fill:none;stroke:#7f7f7f;stroke-linecap:square;stroke-width:1.5;"/>
    <defs>
     <path d="M 0 -5 
L -4.755283 -1.545085 
L -2.938926 4.045085 
L 2.938926 4.045085 
L 4.755283 -1.545085 
z
" id="me40d4ccf14" style="stroke:#2adddd;stroke-linejoin:miter;"/>
    </defs>
    <g clip-path="url(#pc42909de72)">
     <use style="fill:#2adddd;stroke:#2adddd;stroke-linejoin:miter;" x="393.72973" xlink:href="#me40d4ccf14" y="361.258378"/>
    </g>
   </g>
   <g id="line2d_21">
    <path clip-path="url(#pc42909de72)" d="M 450.032432 304.955676 
" style="fill:none;stroke:#bcbd22;stroke-linecap:square;stroke-width:1.5;"/>
    <defs>
     <path d="M -5 5 
L 5 5 
L 5 -5 
L -5 -5 
z
" id="m0cbbeaa5f1" style="stroke:#63fbc3;stroke-linejoin:miter;"/>
    </defs>
    <g clip-path="url(#pc42909de72)">
     <use style="fill:#63fbc3;stroke:#63fbc3;stroke-linejoin:miter;" x="450.032432" xlink:href="#m0cbbeaa5f1" y="304.955676"/>
    </g>
   </g>
   <g id="line2d_22">
    <path clip-path="url(#pc42909de72)" d="M 196.67027 248.652973 
" style="fill:none;stroke:#17becf;stroke-linecap:square;stroke-width:1.5;"/>
    <defs>
     <path d="M 0 -5 
L -4.755283 -1.545085 
L -2.938926 4.045085 
L 2.938926 4.045085 
L 4.755283 -1.545085 
z
" id="mf00f6e7666" style="stroke:#63fbc3;stroke-linejoin:miter;"/>
    </defs>
    <g clip-path="url(#pc42909de72)">
     <use style="fill:#63fbc3;stroke:#63fbc3;stroke-linejoin:miter;" x="196.67027" xlink:href="#mf00f6e7666" y="248.652973"/>
    </g>
   </g>
   <g id="line2d_23">
    <path clip-path="url(#pc42909de72)" d="M 140.367568 248.652973 
" style="fill:none;stroke:#1f77b4;stroke-linecap:square;stroke-width:1.5;"/>
    <defs>
     <path d="M -5 5 
L 5 5 
L 5 -5 
L -5 -5 
z
" id="mf025ce36ea" style="stroke:#9cfba4;stroke-linejoin:miter;"/>
    </defs>
    <g clip-path="url(#pc42909de72)">
     <use style="fill:#9cfba4;stroke:#9cfba4;stroke-linejoin:miter;" x="140.367568" xlink:href="#mf025ce36ea" y="248.652973"/>
    </g>
   </g>
   <g id="line2d_24">
    <path clip-path="url(#pc42909de72)" d="M 393.72973 276.804324 
" style="fill:none;stroke:#ff7f0e;stroke-linecap:square;stroke-width:1.5;"/>
    <defs>
     <path d="M 0 -5 
L -4.755283 -1.545085 
L -2.938926 4.045085 
L 2.938926 4.045085 
L 4.755283 -1.545085 
z
" id="m8f85b3c7ac" style="stroke:#9cfba4;stroke-linejoin:miter;"/>
    </defs>
    <g clip-path="url(#pc42909de72)">
     <use style="fill:#9cfba4;stroke:#9cfba4;stroke-linejoin:miter;" x="393.72973" xlink:href="#m8f85b3c7ac" y="276.804324"/>
    </g>
   </g>
   <g id="line2d_25">
    <path clip-path="url(#pc42909de72)" d="M 281.124324 192.35027 
" style="fill:none;stroke:#2ca02c;stroke-linecap:square;stroke-width:1.5;"/>
    <defs>
     <path d="M -5 5 
L 5 5 
L 5 -5 
L -5 -5 
z
" id="md508b600c0" style="stroke:#d4dd80;stroke-linejoin:miter;"/>
    </defs>
    <g clip-path="url(#pc42909de72)">
     <use style="fill:#d4dd80;stroke:#d4dd80;stroke-linejoin:miter;" x="281.124324" xlink:href="#md508b600c0" y="192.35027"/>
    </g>
   </g>
   <g id="line2d_26">
    <path clip-path="url(#pc42909de72)" d="M 281.124324 333.107027 
" style="fill:none;stroke:#d62728;stroke-linecap:square;stroke-width:1.5;"/>
    <defs>
     <path d="M 0 -5 
L -4.755283 -1.545085 
L -2.938926 4.045085 
L 2.938926 4.045085 
L 4.755283 -1.545085 
z
" id="me5f4d89c1e" style="stroke:#d4dd80;stroke-linejoin:miter;"/>
    </defs>
    <g clip-path="url(#pc42909de72)">
     <use style="fill:#d4dd80;stroke:#d4dd80;stroke-linejoin:miter;" x="281.124324" xlink:href="#me5f4d89c1e" y="333.107027"/>
    </g>
   </g>
   <g id="line2d_27">
    <path clip-path="url(#pc42909de72)" d="M 140.367568 304.955676 
" style="fill:none;stroke:#9467bd;stroke-linecap:square;stroke-width:1.5;"/>
    <defs>
     <path d="M -5 5 
L 5 5 
L 5 -5 
L -5 -5 
z
" id="mda5ae99a0b" style="stroke:#ffa457;stroke-linejoin:miter;"/>
    </defs>
    <g clip-path="url(#pc42909de72)">
     <use style="fill:#ffa457;stroke:#ffa457;stroke-linejoin:miter;" x="140.367568" xlink:href="#mda5ae99a0b" y="304.955676"/>
    </g>
   </g>
   <g id="line2d_28">
    <path clip-path="url(#pc42909de72)" d="M 309.275676 276.804324 
" style="fill:none;stroke:#8c564b;stroke-linecap:square;stroke-width:1.5;"/>
    <defs>
     <path d="M 0 -5 
L -4.755283 -1.545085 
L -2.938926 4.045085 
L 2.938926 4.045085 
L 4.755283 -1.545085 
z
" id="m6e7431d779" style="stroke:#ffa457;stroke-linejoin:miter;"/>
    </defs>
    <g clip-path="url(#pc42909de72)">
     <use style="fill:#ffa457;stroke:#ffa457;stroke-linejoin:miter;" x="309.275676" xlink:href="#m6e7431d779" y="276.804324"/>
    </g>
   </g>
   <g id="line2d_29">
    <path clip-path="url(#pc42909de72)" d="M 393.72973 220.501622 
" style="fill:none;stroke:#e377c2;stroke-linecap:square;stroke-width:1.5;"/>
    <defs>
     <path d="M -5 5 
L 5 5 
L 5 -5 
L -5 -5 
z
" id="m5eace71d63" style="stroke:#ff572c;stroke-linejoin:miter;"/>
    </defs>
    <g clip-path="url(#pc42909de72)">
     <use style="fill:#ff572c;stroke:#ff572c;stroke-linejoin:miter;" x="393.72973" xlink:href="#m5eace71d63" y="220.501622"/>
    </g>
   </g>
   <g id="line2d_30">
    <path clip-path="url(#pc42909de72)" d="M 140.367568 276.804324 
" style="fill:none;stroke:#7f7f7f;stroke-linecap:square;stroke-width:1.5;"/>
    <defs>
     <path d="M 0 -5 
L -4.755283 -1.545085 
L -2.938926 4.045085 
L 2.938926 4.045085 
L 4.755283 -1.545085 
z
" id="m80fd1d06db" style="stroke:#ff572c;stroke-linejoin:miter;"/>
    </defs>
    <g clip-path="url(#pc42909de72)">
     <use style="fill:#ff572c;stroke:#ff572c;stroke-linejoin:miter;" x="140.367568" xlink:href="#m80fd1d06db" y="276.804324"/>
    </g>
   </g>
   <g id="line2d_31">
    <path clip-path="url(#pc42909de72)" d="M 140.367568 136.047568 
" style="fill:none;stroke:#bcbd22;stroke-linecap:square;stroke-width:1.5;"/>
    <defs>
     <path d="M -5 5 
L 5 5 
L 5 -5 
L -5 -5 
z
" id="mc07709b905" style="stroke:#ff0000;stroke-linejoin:miter;"/>
    </defs>
    <g clip-path="url(#pc42909de72)">
     <use style="fill:#ff0000;stroke:#ff0000;stroke-linejoin:miter;" x="140.367568" xlink:href="#mc07709b905" y="136.047568"/>
    </g>
   </g>
   <g id="line2d_32">
    <path clip-path="url(#pc42909de72)" d="M 252.972973 248.652973 
" style="fill:none;stroke:#17becf;stroke-linecap:square;stroke-width:1.5;"/>
    <defs>
     <path d="M 0 -5 
L -4.755283 -1.545085 
L -2.938926 4.045085 
L 2.938926 4.045085 
L 4.755283 -1.545085 
z
" id="mbdba690582" style="stroke:#ff0000;stroke-linejoin:miter;"/>
    </defs>
    <g clip-path="url(#pc42909de72)">
     <use style="fill:#ff0000;stroke:#ff0000;stroke-linejoin:miter;" x="252.972973" xlink:href="#mbdba690582" y="248.652973"/>
    </g>
   </g>
   <g id="line2d_33"/>
   <g id="line2d_34">
    <path clip-path="url(#pc42909de72)" d="M 92.108108 493.971892 
L 92.108108 87.788108 
" style="fill:none;stroke:#000000;stroke-linecap:square;stroke-width:4;"/>
   </g>
   <g id="line2d_35">
    <path clip-path="url(#pc42909de72)" d="M 92.108108 87.788108 
L 498.291892 87.788108 
" style="fill:none;stroke:#000000;stroke-linecap:square;stroke-width:4;"/>
   </g>
   <g id="line2d_36">
    <path clip-path="url(#pc42909de72)" d="M 498.291892 87.788108 
L 498.291892 493.971892 
" style="fill:none;stroke:#000000;stroke-linecap:square;stroke-width:4;"/>
   </g>
   <g id="line2d_37">
    <path clip-path="url(#pc42909de72)" d="M 498.291892 493.971892 
L 92.108108 493.971892 
" style="fill:none;stroke:#000000;stroke-linecap:square;stroke-width:4;"/>
   </g>
   <g id="line2d_38">
    <path clip-path="url(#pc42909de72)" d="M 140.367568 389.40973 
L 141.091459 389.40973 
L 143.062054 389.088 
L 145.113081 388.122811 
L 151.949838 382.492541 
L 185.449946 356.150919 
L 186.978162 355.065081 
L 189.069405 354.180324 
L 190.999784 353.898811 
L 195.061622 354.180324 
L 202.220108 353.858595 
L 214.083892 351.686919 
L 226.752 349.394595 
L 232.784432 348.228324 
L 235.237622 347.946811 
L 243.683027 348.59027 
L 245.814486 348.228324 
L 247.945946 347.464216 
L 250.56 346.820757 
L 253.093622 346.860973 
L 255.627243 347.303351 
L 257.436973 347.424 
L 259.648865 347.303351 
L 261.740108 347.343568 
L 266.284541 348.228324 
L 268.697514 348.188108 
L 270.306162 348.308757 
L 272.518054 348.912 
L 274.488649 349.23373 
L 276.057081 349.193514 
L 276.298378 349.475027 
L 276.941838 351.003243 
L 277.585297 355.306378 
L 278.429838 357.236757 
L 279.676541 358.805189 
L 281.124324 359.891027 
L 282.97427 360.695351 
L 285.025297 360.976865 
L 288.845838 360.655135 
L 293.430486 361.097514 
L 295.320649 360.936649 
L 297.894486 360.936649 
L 299.784649 361.459459 
L 302.881297 362.867027 
L 304.771459 363.349622 
L 306.902919 363.711568 
L 308.873514 364.234378 
L 311.165838 364.596324 
L 313.015784 364.475676 
L 315.147243 364.556108 
L 322.144865 366.365838 
L 324.437189 367.210378 
L 326.729514 367.532108 
L 330.952216 367.049514 
L 333.043459 366.888649 
L 335.014054 366.44627 
L 337.065081 365.360432 
L 338.713946 363.751784 
L 339.598703 362.344216 
L 340.000865 360.976865 
L 340.000865 359.086703 
L 339.437838 357.116108 
L 338.432432 355.225946 
L 337.306378 353.496649 
L 336.140108 351.324973 
L 334.451027 347.343568 
L 332.842378 343.040432 
L 332.279351 340.627459 
L 332.359784 338.415568 
L 332.963027 336.284108 
L 335.858595 329.970162 
L 341.64973 316.095568 
L 349.250595 298.64173 
L 351.060324 294.740757 
L 354.036324 287.58227 
L 354.72 285.651892 
L 355.081946 283.681297 
L 355.403676 281.268324 
L 356.368865 277.327135 
L 357.696 272.662054 
L 359.224216 268.077405 
L 360.551351 264.538378 
L 363.004541 258.867892 
L 369.439135 244.711784 
L 372.937946 237.191351 
L 381.865946 217.968 
L 386.249514 208.476973 
L 389.989622 200.43373 
L 392.804757 194.361081 
L 392.804757 194.361081 
" style="fill:none;stroke:#8000ff;stroke-linecap:square;stroke-width:1.5;"/>
   </g>
   <g id="line2d_39">
    <path clip-path="url(#pc42909de72)" d="M 450.032432 192.35027 
L 450.193297 192.390486 
L 450.354162 192.551351 
L 450.474811 192.953514 
L 450.595459 194.039351 
L 450.313946 195.607784 
L 449.348757 197.739243 
L 447.860757 199.428324 
L 445.890162 200.835892 
L 444.080432 201.881514 
L 438.651243 205.782486 
L 433.423135 209.562811 
L 379.613838 248.89427 
L 378.447568 250.543135 
L 377.643243 252.674595 
L 377.160649 254.484324 
L 376.476973 256.253838 
L 370.323892 267.876324 
L 367.910919 271.737081 
L 366.784865 273.506595 
L 364.733838 277.286919 
L 361.355676 282.957405 
L 360.672 285.24973 
L 360.108973 287.622486 
L 360.229622 289.914811 
L 360.752432 291.684324 
L 361.315459 294.016865 
L 361.315459 296.228757 
L 360.792649 298.400432 
L 358.701405 302.422054 
L 358.218811 304.633946 
L 358.098162 308.695784 
L 357.334054 314.889081 
L 355.88627 320.921514 
L 355.162378 323.093189 
L 352.870054 327.114811 
L 352.06573 329.004973 
L 350.658162 331.056 
L 347.762595 333.629838 
L 344.545297 336.967784 
L 339.478054 341.230703 
L 337.547676 342.316541 
L 333.485838 343.563243 
L 331.515243 343.884973 
L 327.453405 343.603459 
L 325.402378 343.764324 
L 323.552432 344.327351 
L 321.66227 344.689297 
L 319.209081 344.689297 
L 317.077622 344.528432 
L 314.825514 344.930595 
L 312.895135 345.815351 
L 309.275676 347.906595 
L 303.725838 350.72173 
L 301.795459 352.129297 
L 299.945514 353.295568 
L 295.843459 355.266162 
L 291.580541 356.995459 
L 286.915459 358.362811 
L 282.934054 359.086703 
L 278.630919 359.488865 
L 276.539676 359.569297 
L 270.185514 360.373622 
L 266.163892 360.695351 
L 258.361946 360.936649 
L 243.361297 361.097514 
L 233.186595 361.177946 
L 226.188973 361.258378 
L 226.188973 361.258378 
" style="fill:none;stroke:#4757fb;stroke-linecap:square;stroke-width:1.5;"/>
   </g>
   <g id="line2d_40">
    <path clip-path="url(#pc42909de72)" d="M 402.175135 440.082162 
L 401.974054 440.162595 
L 402.456649 439.478919 
L 402.778378 438.473514 
L 402.818595 436.704 
L 402.175135 434.572541 
L 401.129514 432.762811 
L 394.694919 424.156541 
L 388.179892 415.308973 
L 379.332324 403.203892 
L 341.891027 352.249946 
L 340.242162 351.003243 
L 338.593297 350.239135 
L 336.341189 349.635892 
L 334.249946 348.871784 
L 330.429405 347.021838 
L 328.780541 345.855568 
L 327.61427 344.448 
L 326.689297 342.396973 
L 326.287135 339.943784 
L 326.608865 337.731892 
L 327.332757 335.640649 
L 328.217514 333.428757 
L 330.429405 326.833297 
L 331.957622 323.93773 
L 332.038054 323.173622 
L 331.877189 320.076973 
L 331.997838 319.956324 
L 331.917405 320.117189 
L 331.917405 320.237838 
L 331.836973 319.956324 
L 330.992432 318.307459 
L 329.383784 316.658595 
L 327.815351 315.773838 
L 325.844757 315.090162 
L 323.79373 314.688 
L 321.581838 314.688 
L 319.128649 314.486919 
L 314.463568 313.2 
L 313.297297 313.2 
L 311.728865 312.958703 
L 309.637622 312.194595 
L 305.696432 309.620757 
L 303.203027 308.534919 
L 301.111784 307.368649 
L 299.503135 305.840432 
L 298.336865 303.910054 
L 296.808649 299.48627 
L 295.441297 297.636324 
L 293.752216 296.188541 
L 292.425081 294.861405 
L 291.299027 292.890811 
L 289.931676 288.708324 
L 288.684973 286.697514 
L 287.076324 285.088865 
L 285.668757 283.399784 
L 283.738378 279.820541 
L 281.405838 276.241297 
L 280.440649 274.351135 
L 279.837405 272.219676 
L 279.193946 267.795892 
L 278.228757 262.92973 
L 278.188541 260.396108 
L 278.349405 258.546162 
L 278.309189 256.736432 
L 277.303784 248.572541 
L 276.338595 244.43027 
L 275.735351 242.419459 
L 274.287568 238.679351 
L 273.241946 236.547892 
L 272.035459 234.496865 
L 270.828973 232.727351 
L 269.542054 231.03827 
L 266.646486 227.941622 
L 265.158486 226.453622 
L 260.65427 221.185297 
L 259.528216 220.059243 
L 254.501189 215.675676 
L 244.849297 207.994378 
L 225.625946 192.99373 
L 225.625946 192.99373 
" style="fill:none;stroke:#0ea4f0;stroke-linecap:square;stroke-width:1.5;"/>
   </g>
   <g id="line2d_41">
    <path clip-path="url(#pc42909de72)" d="M 224.821622 136.047568 
L 225.465081 136.087784 
L 226.912865 136.369297 
L 228.883459 137.213838 
L 230.411676 138.420324 
L 231.939892 140.230054 
L 234.192 143.568 
L 258.563027 176.826811 
L 265.078054 185.714595 
L 273.764757 197.618595 
L 280.601514 206.747676 
L 282.009081 207.87373 
L 284.100324 209.120432 
L 285.829622 210.367135 
L 288.92627 213.021405 
L 290.776216 213.906162 
L 293.068541 214.428973 
L 295.401081 214.67027 
L 301.272649 215.997405 
L 303.564973 216.922378 
L 305.133405 218.008216 
L 307.305081 219.295135 
L 309.034378 219.817946 
L 311.286486 220.059243 
L 313.860324 220.582054 
L 315.589622 221.466811 
L 317.52 223.035243 
L 319.128649 224.643892 
L 322.024216 227.016649 
L 323.592649 228.987243 
L 324.477405 230.917622 
L 325.523027 232.848 
L 326.970811 234.537081 
L 328.820757 236.306595 
L 330.871784 237.432649 
L 332.882595 237.955459 
L 336.622703 238.438054 
L 340.443243 239.483676 
L 347.038703 242.540108 
L 350.617946 244.390054 
L 354.478703 246.843243 
L 358.540541 249.497514 
L 362.48173 252.272432 
L 364.412108 253.760432 
L 367.951135 257.058162 
L 371.007568 260.154811 
L 372.576 261.964541 
L 373.983568 263.854703 
L 374.908541 266.187243 
L 376.074811 273.024 
L 378.487784 281.509622 
L 380.458378 288.507243 
L 381.544216 292.931027 
L 383.193081 301.376432 
L 385.968 317.221622 
L 387.456 325.667027 
L 393.166703 358.121514 
L 393.609081 360.534486 
L 393.609081 360.534486 
" style="fill:none;stroke:#2adddd;stroke-linecap:square;stroke-width:1.5;"/>
   </g>
   <g id="line2d_42">
    <path clip-path="url(#pc42909de72)" d="M 450.032432 304.955676 
L 449.831351 305.036108 
L 449.670486 305.317622 
L 449.590054 304.835027 
L 449.187892 303.95027 
L 448.383568 303.025297 
L 446.855351 302.180757 
L 444.844541 301.61773 
L 440.621838 300.853622 
L 427.511351 298.078703 
L 395.257946 291.161514 
L 386.611459 289.311568 
L 361.798054 284.163892 
L 360.028541 284.364973 
L 358.339459 284.928 
L 356.650378 285.973622 
L 354.679784 287.340973 
L 352.548324 288.547459 
L 350.617946 289.472432 
L 344.062703 294.016865 
L 341.730162 296.309189 
L 341.126919 296.470054 
L 340.000865 296.51027 
L 337.949838 296.148324 
L 335.496649 295.102703 
L 333.445622 294.419027 
L 331.394595 294.338595 
L 329.182703 294.861405 
L 327.61427 295.705946 
L 326.045838 297.073297 
L 324.678486 298.561297 
L 322.667676 300.330811 
L 320.656865 301.255784 
L 316.313514 302.220973 
L 313.900541 303.186162 
L 311.366919 303.990486 
L 309.155027 304.111135 
L 307.546378 303.869838 
L 305.616 303.708973 
L 303.484541 303.910054 
L 301.272649 303.869838 
L 299.141189 303.306811 
L 297.130378 302.220973 
L 294.958703 301.497081 
L 288.242595 300.934054 
L 286.312216 301.135135 
L 283.738378 301.215568 
L 282.049297 300.934054 
L 280.279784 300.210162 
L 278.188541 298.842811 
L 274.729946 296.349405 
L 260.131459 287.501838 
L 258.683676 286.979027 
L 254.219676 285.732324 
L 245.814486 282.193297 
L 241.712432 280.182486 
L 237.690811 277.930378 
L 234.51373 275.959784 
L 227.194378 270.972973 
L 221.684757 267.112216 
L 211.751351 259.833081 
L 197.31373 249.135568 
L 197.31373 249.135568 
" style="fill:none;stroke:#63fbc3;stroke-linecap:square;stroke-width:1.5;"/>
   </g>
   <g id="line2d_43">
    <path clip-path="url(#pc42909de72)" d="M 140.367568 248.652973 
L 141.61427 248.652973 
L 143.785946 248.773622 
L 145.917405 249.014919 
L 148.048865 249.256216 
L 150.421622 249.53773 
L 152.834595 249.819243 
L 154.684541 250.020324 
L 156.816 250.261622 
L 158.947459 250.502919 
L 161.360432 250.744216 
L 163.210378 250.985514 
L 165.623351 251.226811 
L 167.754811 251.468108 
L 169.88627 251.709405 
L 172.01773 251.950703 
L 174.149189 252.192 
L 176.280649 252.433297 
L 178.412108 252.674595 
L 180.543568 252.915892 
L 182.956541 253.197405 
L 184.806486 253.398486 
L 186.937946 253.639784 
L 189.069405 253.881081 
L 191.200865 254.122378 
L 193.050811 254.323459 
L 195.18227 254.564757 
L 197.595243 254.806054 
L 200.008216 255.087568 
L 202.380973 255.328865 
L 204.472216 255.48973 
L 206.885189 255.731027 
L 209.298162 255.972324 
L 211.148108 256.213622 
L 213.561081 256.454919 
L 215.692541 256.696216 
L 218.065297 256.97773 
L 220.47827 257.219027 
L 222.891243 257.460324 
L 225.264 257.701622 
L 227.154162 257.902703 
L 229.285622 258.103784 
L 231.417081 258.304865 
L 233.548541 258.46573 
L 235.68 258.666811 
L 238.092973 258.827676 
L 240.46573 259.109189 
L 242.034162 259.632 
L 244.205838 260.918919 
L 245.975351 262.406919 
L 247.503568 263.331892 
L 249.433946 263.935135 
L 251.72627 263.975351 
L 253.85773 263.532973 
L 256.069622 263.372108 
L 258.482595 263.734054 
L 260.935784 264.015568 
L 263.228108 263.734054 
L 265.158486 263.171027 
L 268.013838 262.567784 
L 270.22573 262.527568 
L 272.236541 262.205838 
L 274.207135 261.481946 
L 276.499459 260.838486 
L 278.751568 260.717838 
L 281.285189 260.79827 
L 283.456865 260.476541 
L 285.10573 259.833081 
L 286.473081 258.908108 
L 288.403459 257.460324 
L 290.41427 256.133189 
L 292.264216 254.966919 
L 293.913081 253.961514 
L 296.044541 252.915892 
L 298.256432 252.51373 
L 300.186811 252.594162 
L 302.519351 253.157189 
L 304.851892 253.800649 
L 306.661622 254.202811 
L 308.752865 254.685405 
L 311.125622 255.127784 
L 312.694054 255.409297 
L 314.825514 255.771243 
L 316.675459 256.092973 
L 318.525405 256.33427 
L 320.898162 256.615784 
L 323.029622 256.776649 
L 324.63827 256.897297 
L 326.76973 257.058162 
L 328.901189 257.219027 
L 331.072865 257.500541 
L 333.204324 257.862486 
L 335.577081 258.345081 
L 337.386811 258.827676 
L 339.759568 259.430919 
L 342.051892 260.114595 
L 344.384432 260.838486 
L 346.395243 261.481946 
L 348.204973 262.085189 
L 350.497297 262.809081 
L 352.789622 263.573189 
L 354.840649 264.216649 
L 357.132973 264.860108 
L 359.224216 265.382919 
L 361.275243 265.865514 
L 363.366486 266.267676 
L 365.45773 266.629622 
L 367.830486 267.072 
L 369.961946 267.433946 
L 372.053189 267.916541 
L 374.144432 268.479568 
L 376.476973 269.203459 
L 378.246486 269.887135 
L 380.257297 270.771892 
L 382.428973 271.737081 
L 384.439784 272.541405 
L 386.410378 273.426162 
L 388.340757 274.351135 
L 390.552649 275.356541 
L 392.24173 276.120649 
" style="fill:none;stroke:#9cfba4;stroke-linecap:square;stroke-width:1.5;"/>
   </g>
   <g id="line2d_44">
    <path clip-path="url(#pc42909de72)" d="M 281.124324 192.35027 
L 281.446054 192.390486 
L 282.049297 192.591568 
L 282.853622 193.074162 
L 283.738378 193.999135 
L 284.502486 195.688216 
L 284.784 197.819676 
L 284.663351 199.991351 
L 284.542703 201.801081 
L 284.422054 204.214054 
L 284.341622 206.627027 
L 284.301405 208.758486 
L 284.261189 210.889946 
L 284.220973 213.302919 
L 284.140541 215.474595 
L 284.100324 217.606054 
L 284.019892 219.737514 
L 283.979676 221.909189 
L 283.939459 224.322162 
L 283.859027 226.694919 
L 283.778595 229.107892 
L 283.738378 231.279568 
L 283.698162 233.692541 
L 283.61773 235.824 
L 283.577514 238.236973 
L 283.497081 240.368432 
L 283.456865 242.540108 
L 283.376432 244.671568 
L 283.336216 246.56173 
L 283.296 248.693189 
L 283.255784 250.824649 
L 283.175351 252.996324 
L 283.135135 255.127784 
L 283.054703 257.540757 
L 283.014486 259.672216 
L 282.934054 262.085189 
L 282.893838 264.256865 
L 282.813405 266.669838 
L 282.773189 268.519784 
L 282.732973 270.691459 
L 282.652541 272.822919 
L 282.612324 274.954378 
L 282.572108 277.126054 
L 282.491676 279.539027 
L 282.451459 281.670486 
L 282.371027 283.801946 
L 282.330811 286.214919 
L 282.290595 288.346378 
L 282.210162 290.518054 
L 282.169946 292.368 
L 282.12973 294.539676 
L 282.049297 296.671135 
L 282.009081 299.084108 
L 281.928649 301.497081 
L 281.888432 303.910054 
L 281.808 306.041514 
L 281.767784 307.931676 
L 281.727568 310.063135 
L 281.647135 312.194595 
L 281.606919 314.36627 
L 281.566703 316.216216 
L 281.526486 318.106378 
L 281.446054 320.237838 
L 281.405838 322.128 
L 281.365622 324.259459 
L 281.365622 326.149622 
L 281.405838 328.240865 
L 281.526486 330.613622 
L 281.687351 331.900541 
" style="fill:none;stroke:#d4dd80;stroke-linecap:square;stroke-width:1.5;"/>
   </g>
   <g id="line2d_45">
    <path clip-path="url(#pc42909de72)" d="M 140.367568 304.955676 
L 141.332757 304.955676 
L 143.584865 304.794811 
L 146.198919 304.312216 
L 148.571676 303.829622 
L 150.421622 303.507892 
L 152.794378 303.145946 
L 154.925838 302.784 
L 157.057297 302.422054 
L 159.148541 302.060108 
L 161.28 301.698162 
L 163.371243 301.336216 
L 165.502703 300.97427 
L 167.875459 300.612324 
L 170.006919 300.250378 
L 172.098162 299.888432 
L 174.511135 299.48627 
L 176.602378 299.124324 
L 178.452324 298.802595 
L 180.30227 298.521081 
L 182.43373 298.159135 
L 184.806486 297.756973 
L 186.89773 297.395027 
L 188.787892 297.073297 
L 190.879135 296.711351 
L 193.251892 296.309189 
L 195.624649 295.907027 
L 198.037622 295.504865 
L 199.525622 295.263568 
L 200.852757 294.901622 
L 201.978811 294.579892 
L 203.305946 294.137514 
L 204.472216 293.695135 
L 205.638486 293.252757 
L 207.08627 292.68973 
L 209.459027 292.04627 
L 211.590486 291.764757 
L 213.721946 291.523459 
L 216.094703 291.161514 
L 218.467459 290.839784 
L 220.598919 290.518054 
L 222.489081 290.276757 
L 224.620541 289.995243 
L 226.711784 289.71373 
L 228.601946 289.472432 
L 230.974703 289.190919 
L 233.387676 288.909405 
L 235.519135 288.668108 
L 237.087568 288.467027 
L 237.168 288.467027 
L 237.409297 288.346378 
L 237.811459 287.904 
L 238.012541 287.58227 
L 238.535351 286.858378 
L 239.902703 285.732324 
L 241.511351 284.968216 
L 243.683027 284.525838 
L 245.814486 284.60627 
L 247.945946 284.807351 
L 250.077405 285.008432 
L 252.450162 285.088865 
L 254.863135 285.048649 
L 257.235892 284.968216 
L 259.407568 284.847568 
L 261.257514 284.726919 
L 263.107459 284.60627 
L 264.997622 284.405189 
L 266.847568 284.244324 
L 269.260541 284.003027 
L 271.673514 283.76173 
L 273.804973 283.520432 
L 275.896216 283.238919 
L 278.027676 282.917189 
L 280.400432 282.555243 
L 282.250378 282.233514 
L 284.623135 281.831351 
L 286.754595 281.469405 
L 288.604541 281.107459 
L 290.977297 280.665081 
L 293.068541 280.262919 
L 295.401081 279.780324 
L 297.492324 279.29773 
L 299.302054 278.855351 
L 301.634595 278.211892 
L 303.203027 277.769514 
L 305.334486 277.367351 
L 307.465946 277.085838 
" style="fill:none;stroke:#ffa457;stroke-linecap:square;stroke-width:1.5;"/>
   </g>
   <g id="line2d_46">
    <path clip-path="url(#pc42909de72)" d="M 393.72973 220.501622 
L 393.971027 220.582054 
L 394.091676 220.823351 
L 394.091676 221.26573 
L 393.850378 222.190703 
L 393.08627 223.437405 
L 391.397189 224.844973 
L 389.104865 225.810162 
L 375.712865 228.343784 
L 318.203676 240.207568 
L 316.072216 240.529297 
L 312.090811 240.529297 
L 309.557189 241.011892 
L 307.345297 241.816216 
L 305.736649 242.178162 
L 303.243243 242.09773 
L 299.302054 240.931459 
L 297.291243 240.770595 
L 294.636973 241.172757 
L 292.344649 241.253189 
L 289.931676 240.60973 
L 288.202378 239.644541 
L 286.352432 238.076108 
L 284.261189 236.628324 
L 282.12973 235.824 
L 280.038486 235.301189 
L 272.759351 232.687135 
L 270.668108 232.043676 
L 268.576865 231.561081 
L 266.284541 230.555676 
L 264.27373 229.107892 
L 262.504216 228.142703 
L 260.493405 227.660108 
L 258.201081 227.780757 
L 256.270703 228.464432 
L 253.616432 229.992649 
L 253.536 229.992649 
L 252.611027 229.630703 
L 250.761081 228.544865 
L 249.112216 227.016649 
L 247.503568 225.850378 
L 245.854703 225.206919 
L 243.562378 224.965622 
L 241.31027 225.408 
L 239.379892 226.252541 
L 232.181189 230.113297 
L 230.291027 231.36 
L 228.320432 232.365405 
L 224.821622 233.772973 
L 219.030486 236.547892 
L 213.802378 239.202162 
L 203.26573 244.550919 
L 193.975784 249.336649 
L 141.493622 276.241297 
L 141.493622 276.241297 
" style="fill:none;stroke:#ff572c;stroke-linecap:square;stroke-width:1.5;"/>
   </g>
   <g id="line2d_47">
    <path clip-path="url(#pc42909de72)" d="M 140.367568 136.047568 
L 141.171892 136.087784 
L 142.579459 136.248649 
L 144.912 137.133405 
L 146.72173 138.460541 
L 148.330378 140.230054 
L 149.898811 142.039784 
L 151.547676 143.728865 
L 153.236757 145.417946 
L 154.925838 147.147243 
L 156.614919 148.876541 
L 158.263784 150.646054 
L 159.952865 152.375351 
L 161.641946 154.104649 
L 163.290811 155.833946 
L 164.778811 157.362162 
L 166.467892 159.091459 
L 168.156973 160.860973 
L 169.805838 162.59027 
L 171.293838 164.118486 
L 172.781838 165.646703 
L 174.470919 167.416216 
L 176.16 169.145514 
L 177.648 170.67373 
L 179.136 172.201946 
L 180.422919 173.569297 
L 181.910919 175.097514 
L 183.439135 176.665946 
L 185.088 178.395243 
L 186.777081 180.124541 
L 188.265081 181.652757 
L 189.753081 183.221189 
L 191.241081 184.749405 
L 192.528 186.116757 
L 194.056216 187.644973 
L 195.343135 189.012324 
L 197.032216 190.741622 
L 198.319135 192.068757 
L 200.008216 193.798054 
L 201.657081 195.567568 
L 203.145081 197.095784 
L 204.834162 198.825081 
L 206.523243 200.554378 
L 207.649297 201.720649 
L 209.137297 203.248865 
L 210.786162 205.018378 
L 212.274162 206.546595 
L 213.762162 208.074811 
L 215.089297 209.442162 
L 216.376216 210.769297 
L 217.864216 212.33773 
L 219.553297 214.067027 
L 220.880432 215.394162 
L 222.328216 216.962595 
L 224.017297 218.691892 
L 225.706378 220.421189 
L 227.194378 221.949405 
L 228.481297 223.316757 
L 230.170378 225.046054 
L 231.658378 226.614486 
L 232.985514 227.941622 
L 234.473514 229.469838 
L 235.760432 230.837189 
L 237.248432 232.365405 
L 238.736432 233.933838 
L 240.224432 235.462054 
L 241.913514 237.231568 
L 243.522162 238.960865 
L 245.090595 240.770595 
L 246.498162 242.781405 
L 247.584 244.631351 
L 248.508973 246.199784 
L 250.077405 247.969297 
L 251.525189 248.974703 
" style="fill:none;stroke:#ff0000;stroke-linecap:square;stroke-width:1.5;"/>
   </g>
   <g id="patch_3">
    <path d="M 72 512.64 
L 72 69.12 
" style="fill:none;stroke:#000000;stroke-linecap:square;stroke-linejoin:miter;stroke-width:0.8;"/>
   </g>
   <g id="patch_4">
    <path d="M 518.4 512.64 
L 518.4 69.12 
" style="fill:none;stroke:#000000;stroke-linecap:square;stroke-linejoin:miter;stroke-width:0.8;"/>
   </g>
   <g id="patch_5">
    <path d="M 72 512.64 
L 518.4 512.64 
" style="fill:none;stroke:#000000;stroke-linecap:square;stroke-linejoin:miter;stroke-width:0.8;"/>
   </g>
   <g id="patch_6">
    <path d="M 72 69.12 
L 518.4 69.12 
" style="fill:none;stroke:#000000;stroke-linecap:square;stroke-linejoin:miter;stroke-width:0.8;"/>
   </g>
   <g id="text_13">
    <!-- 1 -->
    <defs>
     <path d="M 14.203125 0 
L 14.203125 5.171875 
L 26.90625 5.171875 
L 26.90625 65.828125 
L 12.203125 56.296875 
L 12.203125 62.703125 
L 29.984375 74.21875 
L 36.71875 74.21875 
L 36.71875 5.171875 
L 49.421875 5.171875 
L 49.421875 0 
z
" id="DejaVuSerif-31"/>
    </defs>
    <g transform="translate(137.186318 389.40973)scale(0.1 -0.1)">
     <use xlink:href="#DejaVuSerif-31"/>
    </g>
   </g>
   <g id="text_14">
    <!-- 1 -->
    <g transform="translate(390.54848 192.35027)scale(0.1 -0.1)">
     <use xlink:href="#DejaVuSerif-31"/>
    </g>
   </g>
   <g id="text_15">
    <!-- 2 -->
    <defs>
     <path d="M 12.796875 55.515625 
L 7.328125 55.515625 
L 7.328125 68.5 
Q 12.546875 71.296875 17.84375 72.75 
Q 23.140625 74.21875 28.21875 74.21875 
Q 39.59375 74.21875 46.1875 68.703125 
Q 52.78125 63.1875 52.78125 53.71875 
Q 52.78125 43.015625 37.84375 28.125 
Q 36.671875 27 36.078125 26.421875 
L 17.671875 8.015625 
L 48.09375 8.015625 
L 48.09375 17 
L 53.8125 17 
L 53.8125 0 
L 6.78125 0 
L 6.78125 5.328125 
L 28.90625 27.390625 
Q 36.234375 34.71875 39.359375 40.84375 
Q 42.484375 46.96875 42.484375 53.71875 
Q 42.484375 61.078125 38.640625 65.234375 
Q 34.8125 69.390625 28.078125 69.390625 
Q 21.09375 69.390625 17.28125 65.921875 
Q 13.484375 62.453125 12.796875 55.515625 
z
" id="DejaVuSerif-32"/>
    </defs>
    <g transform="translate(446.851182 192.35027)scale(0.1 -0.1)">
     <use xlink:href="#DejaVuSerif-32"/>
    </g>
   </g>
   <g id="text_16">
    <!-- 2 -->
    <g transform="translate(221.640372 361.258378)scale(0.1 -0.1)">
     <use xlink:href="#DejaVuSerif-32"/>
    </g>
   </g>
   <g id="text_17">
    <!-- 3 -->
    <defs>
     <path d="M 9.71875 69.828125 
Q 15.4375 71.96875 20.671875 73.09375 
Q 25.921875 74.21875 30.515625 74.21875 
Q 41.21875 74.21875 47.21875 69.59375 
Q 53.21875 64.984375 53.21875 56.78125 
Q 53.21875 50.203125 49.0625 45.78125 
Q 44.921875 41.359375 37.3125 39.796875 
Q 46.296875 38.53125 51.25 33.28125 
Q 56.203125 28.03125 56.203125 19.671875 
Q 56.203125 9.46875 49.34375 4.015625 
Q 42.484375 -1.421875 29.59375 -1.421875 
Q 23.875 -1.421875 18.421875 -0.1875 
Q 12.984375 1.03125 7.625 3.515625 
L 7.625 17.671875 
L 13.09375 17.671875 
Q 13.578125 10.640625 17.828125 7.03125 
Q 22.078125 3.421875 29.78125 3.421875 
Q 37.25 3.421875 41.578125 7.734375 
Q 45.90625 12.0625 45.90625 19.578125 
Q 45.90625 28.171875 41.453125 32.59375 
Q 37.015625 37.015625 28.421875 37.015625 
L 23.78125 37.015625 
L 23.78125 42 
L 26.21875 42 
Q 34.765625 42 39.03125 45.53125 
Q 43.3125 49.078125 43.3125 56.203125 
Q 43.3125 62.59375 39.796875 65.984375 
Q 36.28125 69.390625 29.6875 69.390625 
Q 23.09375 69.390625 19.453125 66.265625 
Q 15.828125 63.140625 15.1875 56.984375 
L 9.71875 56.984375 
z
" id="DejaVuSerif-33"/>
    </defs>
    <g transform="translate(398.993885 440.082162)scale(0.1 -0.1)">
     <use xlink:href="#DejaVuSerif-33"/>
    </g>
   </g>
   <g id="text_18">
    <!-- 3 -->
    <g transform="translate(221.640372 192.35027)scale(0.1 -0.1)">
     <use xlink:href="#DejaVuSerif-33"/>
    </g>
   </g>
   <g id="text_19">
    <!-- 4 -->
    <defs>
     <path d="M 34.90625 24.703125 
L 34.90625 63.484375 
L 10.015625 24.703125 
z
M 56.390625 0 
L 23.1875 0 
L 23.1875 5.171875 
L 34.90625 5.171875 
L 34.90625 19.484375 
L 3.078125 19.484375 
L 3.078125 24.8125 
L 35.015625 74.21875 
L 44.671875 74.21875 
L 44.671875 24.703125 
L 58.59375 24.703125 
L 58.59375 19.484375 
L 44.671875 19.484375 
L 44.671875 5.171875 
L 56.390625 5.171875 
z
" id="DejaVuSerif-34"/>
    </defs>
    <g transform="translate(221.640372 136.047568)scale(0.1 -0.1)">
     <use xlink:href="#DejaVuSerif-34"/>
    </g>
   </g>
   <g id="text_20">
    <!-- 4 -->
    <g transform="translate(390.54848 361.258378)scale(0.1 -0.1)">
     <use xlink:href="#DejaVuSerif-34"/>
    </g>
   </g>
   <g id="text_21">
    <!-- 5 -->
    <defs>
     <path d="M 50.296875 72.90625 
L 50.296875 64.890625 
L 16.890625 64.890625 
L 16.890625 44 
Q 19.4375 45.75 22.828125 46.625 
Q 26.21875 47.515625 30.421875 47.515625 
Q 42.234375 47.515625 49.0625 40.96875 
Q 55.90625 34.421875 55.90625 23.09375 
Q 55.90625 11.53125 49 5.046875 
Q 42.09375 -1.421875 29.59375 -1.421875 
Q 24.5625 -1.421875 19.28125 -0.1875 
Q 14.015625 1.03125 8.5 3.515625 
L 8.5 17.671875 
L 14.015625 17.671875 
Q 14.453125 10.75 18.421875 7.078125 
Q 22.40625 3.421875 29.59375 3.421875 
Q 37.3125 3.421875 41.453125 8.5 
Q 45.609375 13.578125 45.609375 23.09375 
Q 45.609375 32.5625 41.484375 37.609375 
Q 37.359375 42.671875 29.59375 42.671875 
Q 25.203125 42.671875 21.84375 41.109375 
Q 18.5 39.546875 15.921875 36.28125 
L 11.71875 36.28125 
L 11.71875 72.90625 
z
" id="DejaVuSerif-35"/>
    </defs>
    <g transform="translate(446.851182 304.955676)scale(0.1 -0.1)">
     <use xlink:href="#DejaVuSerif-35"/>
    </g>
   </g>
   <g id="text_22">
    <!-- 5 -->
    <g transform="translate(193.48902 248.652973)scale(0.1 -0.1)">
     <use xlink:href="#DejaVuSerif-35"/>
    </g>
   </g>
   <g id="text_23">
    <!-- 6 -->
    <defs>
     <path d="M 32.71875 3.421875 
Q 39.59375 3.421875 43.296875 8.46875 
Q 47.015625 13.53125 47.015625 23 
Q 47.015625 32.46875 43.296875 37.515625 
Q 39.59375 42.578125 32.71875 42.578125 
Q 25.734375 42.578125 22.0625 37.6875 
Q 18.40625 32.8125 18.40625 23.578125 
Q 18.40625 13.875 22.109375 8.640625 
Q 25.828125 3.421875 32.71875 3.421875 
z
M 16.796875 40.140625 
Q 20.125 43.796875 24.3125 45.59375 
Q 28.515625 47.40625 33.796875 47.40625 
Q 44.671875 47.40625 51 40.859375 
Q 57.328125 34.328125 57.328125 23 
Q 57.328125 11.921875 50.515625 5.25 
Q 43.703125 -1.421875 32.328125 -1.421875 
Q 19.96875 -1.421875 13.328125 7.78125 
Q 6.6875 17 6.6875 34.078125 
Q 6.6875 53.21875 14.546875 63.71875 
Q 22.40625 74.21875 36.71875 74.21875 
Q 40.578125 74.21875 44.828125 73.484375 
Q 49.078125 72.75 53.515625 71.296875 
L 53.515625 59.28125 
L 48 59.28125 
Q 47.40625 64.203125 44.234375 66.796875 
Q 41.0625 69.390625 35.6875 69.390625 
Q 26.21875 69.390625 21.578125 62.203125 
Q 16.9375 55.03125 16.796875 40.140625 
z
" id="DejaVuSerif-36"/>
    </defs>
    <g transform="translate(137.186318 248.652973)scale(0.1 -0.1)">
     <use xlink:href="#DejaVuSerif-36"/>
    </g>
   </g>
   <g id="text_24">
    <!-- 6 -->
    <g transform="translate(390.54848 276.804324)scale(0.1 -0.1)">
     <use xlink:href="#DejaVuSerif-36"/>
    </g>
   </g>
   <g id="text_25">
    <!-- 7 -->
    <defs>
     <path d="M 56.390625 67.921875 
L 27.875 0 
L 20.609375 0 
L 47.796875 64.890625 
L 14.109375 64.890625 
L 14.109375 55.90625 
L 8.40625 55.90625 
L 8.40625 72.90625 
L 56.390625 72.90625 
z
" id="DejaVuSerif-37"/>
    </defs>
    <g transform="translate(277.943074 192.35027)scale(0.1 -0.1)">
     <use xlink:href="#DejaVuSerif-37"/>
    </g>
   </g>
   <g id="text_26">
    <!-- 7 -->
    <g transform="translate(277.943074 333.107027)scale(0.1 -0.1)">
     <use xlink:href="#DejaVuSerif-37"/>
    </g>
   </g>
   <g id="text_27">
    <!-- 8 -->
    <defs>
     <path d="M 46.578125 19.921875 
Q 46.578125 27.734375 42.6875 32.046875 
Q 38.8125 36.375 31.78125 36.375 
Q 24.75 36.375 20.875 32.046875 
Q 17 27.734375 17 19.921875 
Q 17 12.0625 20.875 7.734375 
Q 24.75 3.421875 31.78125 3.421875 
Q 38.8125 3.421875 42.6875 7.734375 
Q 46.578125 12.0625 46.578125 19.921875 
z
M 44.578125 55.328125 
Q 44.578125 61.96875 41.203125 65.671875 
Q 37.84375 69.390625 31.78125 69.390625 
Q 25.78125 69.390625 22.390625 65.671875 
Q 19 61.96875 19 55.328125 
Q 19 48.640625 22.390625 44.921875 
Q 25.78125 41.21875 31.78125 41.21875 
Q 37.84375 41.21875 41.203125 44.921875 
Q 44.578125 48.640625 44.578125 55.328125 
z
M 39.3125 38.8125 
Q 47.609375 37.703125 52.25 32.6875 
Q 56.890625 27.6875 56.890625 19.921875 
Q 56.890625 9.671875 50.390625 4.125 
Q 43.890625 -1.421875 31.78125 -1.421875 
Q 19.734375 -1.421875 13.203125 4.125 
Q 6.6875 9.671875 6.6875 19.921875 
Q 6.6875 27.6875 11.328125 32.6875 
Q 15.96875 37.703125 24.3125 38.8125 
Q 16.9375 40.140625 13 44.40625 
Q 9.078125 48.6875 9.078125 55.328125 
Q 9.078125 64.109375 15.125 69.15625 
Q 21.1875 74.21875 31.78125 74.21875 
Q 42.390625 74.21875 48.4375 69.15625 
Q 54.5 64.109375 54.5 55.328125 
Q 54.5 48.6875 50.5625 44.40625 
Q 46.625 40.140625 39.3125 38.8125 
z
" id="DejaVuSerif-38"/>
    </defs>
    <g transform="translate(137.186318 304.955676)scale(0.1 -0.1)">
     <use xlink:href="#DejaVuSerif-38"/>
    </g>
   </g>
   <g id="text_28">
    <!-- 8 -->
    <g transform="translate(306.094426 276.804324)scale(0.1 -0.1)">
     <use xlink:href="#DejaVuSerif-38"/>
    </g>
   </g>
   <g id="text_29">
    <!-- 9 -->
    <defs>
     <path d="M 46.78125 32.671875 
Q 43.5 29 39.25 27.1875 
Q 35.015625 25.390625 29.6875 25.390625 
Q 18.84375 25.390625 12.5625 31.9375 
Q 6.296875 38.484375 6.296875 49.8125 
Q 6.296875 60.890625 13.109375 67.546875 
Q 19.921875 74.21875 31.296875 74.21875 
Q 43.65625 74.21875 50.265625 65.015625 
Q 56.890625 55.8125 56.890625 38.71875 
Q 56.890625 19.578125 49.015625 9.078125 
Q 41.15625 -1.421875 26.90625 -1.421875 
Q 23.046875 -1.421875 18.796875 -0.6875 
Q 14.546875 0.046875 10.109375 1.515625 
L 10.109375 13.625 
L 15.578125 13.625 
Q 16.21875 8.6875 19.390625 6.046875 
Q 22.5625 3.421875 27.875 3.421875 
Q 37.359375 3.421875 41.984375 10.5625 
Q 46.625 17.71875 46.78125 32.671875 
z
M 30.90625 69.390625 
Q 23.96875 69.390625 20.28125 64.328125 
Q 16.609375 59.28125 16.609375 49.8125 
Q 16.609375 40.328125 20.28125 35.25 
Q 23.96875 30.171875 30.90625 30.171875 
Q 37.84375 30.171875 41.53125 35.078125 
Q 45.21875 39.984375 45.21875 49.21875 
Q 45.21875 58.9375 41.5 64.15625 
Q 37.796875 69.390625 30.90625 69.390625 
z
" id="DejaVuSerif-39"/>
    </defs>
    <g transform="translate(390.54848 220.501622)scale(0.1 -0.1)">
     <use xlink:href="#DejaVuSerif-39"/>
    </g>
   </g>
   <g id="text_30">
    <!-- 9 -->
    <g transform="translate(137.186318 276.804324)scale(0.1 -0.1)">
     <use xlink:href="#DejaVuSerif-39"/>
    </g>
   </g>
   <g id="text_31">
    <!-- 10 -->
    <defs>
     <path d="M 31.78125 3.421875 
Q 39.265625 3.421875 42.96875 11.625 
Q 46.6875 19.828125 46.6875 36.375 
Q 46.6875 52.984375 42.96875 61.1875 
Q 39.265625 69.390625 31.78125 69.390625 
Q 24.3125 69.390625 20.59375 61.1875 
Q 16.890625 52.984375 16.890625 36.375 
Q 16.890625 19.828125 20.59375 11.625 
Q 24.3125 3.421875 31.78125 3.421875 
z
M 31.78125 -1.421875 
Q 19.921875 -1.421875 13.25 8.53125 
Q 6.59375 18.5 6.59375 36.375 
Q 6.59375 54.296875 13.25 64.25 
Q 19.921875 74.21875 31.78125 74.21875 
Q 43.703125 74.21875 50.34375 64.25 
Q 56.984375 54.296875 56.984375 36.375 
Q 56.984375 18.5 50.34375 8.53125 
Q 43.703125 -1.421875 31.78125 -1.421875 
z
" id="DejaVuSerif-30"/>
    </defs>
    <g transform="translate(134.005068 136.047568)scale(0.1 -0.1)">
     <use xlink:href="#DejaVuSerif-31"/>
     <use x="63.623047" xlink:href="#DejaVuSerif-30"/>
    </g>
   </g>
   <g id="text_32">
    <!-- 10 -->
    <g transform="translate(246.610473 248.652973)scale(0.1 -0.1)">
     <use xlink:href="#DejaVuSerif-31"/>
     <use x="63.623047" xlink:href="#DejaVuSerif-30"/>
    </g>
   </g>
   <g id="text_33">
    <!-- MRPP -->
    <defs>
     <path d="M 9.8125 72.90625 
L 24.515625 72.90625 
L 43.109375 23.296875 
L 61.8125 72.90625 
L 76.515625 72.90625 
L 76.515625 0 
L 66.890625 0 
L 66.890625 64.015625 
L 48.09375 14.015625 
L 38.1875 14.015625 
L 19.390625 64.015625 
L 19.390625 0 
L 9.8125 0 
z
" id="DejaVuSans-4d"/>
     <path d="M 44.390625 34.1875 
Q 47.5625 33.109375 50.5625 29.59375 
Q 53.5625 26.078125 56.59375 19.921875 
L 66.609375 0 
L 56 0 
L 46.6875 18.703125 
Q 43.0625 26.03125 39.671875 28.421875 
Q 36.28125 30.8125 30.421875 30.8125 
L 19.671875 30.8125 
L 19.671875 0 
L 9.8125 0 
L 9.8125 72.90625 
L 32.078125 72.90625 
Q 44.578125 72.90625 50.734375 67.671875 
Q 56.890625 62.453125 56.890625 51.90625 
Q 56.890625 45.015625 53.6875 40.46875 
Q 50.484375 35.9375 44.390625 34.1875 
z
M 19.671875 64.796875 
L 19.671875 38.921875 
L 32.078125 38.921875 
Q 39.203125 38.921875 42.84375 42.21875 
Q 46.484375 45.515625 46.484375 51.90625 
Q 46.484375 58.296875 42.84375 61.546875 
Q 39.203125 64.796875 32.078125 64.796875 
z
" id="DejaVuSans-52"/>
     <path d="M 19.671875 64.796875 
L 19.671875 37.40625 
L 32.078125 37.40625 
Q 38.96875 37.40625 42.71875 40.96875 
Q 46.484375 44.53125 46.484375 51.125 
Q 46.484375 57.671875 42.71875 61.234375 
Q 38.96875 64.796875 32.078125 64.796875 
z
M 9.8125 72.90625 
L 32.078125 72.90625 
Q 44.34375 72.90625 50.609375 67.359375 
Q 56.890625 61.8125 56.890625 51.125 
Q 56.890625 40.328125 50.609375 34.8125 
Q 44.34375 29.296875 32.078125 29.296875 
L 19.671875 29.296875 
L 19.671875 0 
L 9.8125 0 
z
" id="DejaVuSans-50"/>
    </defs>
    <g transform="translate(278.618437 63.12)scale(0.12 -0.12)">
     <use xlink:href="#DejaVuSans-4d"/>
     <use x="86.279297" xlink:href="#DejaVuSans-52"/>
     <use x="155.761719" xlink:href="#DejaVuSans-50"/>
     <use x="216.064453" xlink:href="#DejaVuSans-50"/>
    </g>
   </g>
  </g>
 </g>
 <defs>
  <clipPath id="pc42909de72">
   <rect height="443.52" width="446.4" x="72" y="69.12"/>
  </clipPath>
 </defs>
</svg>
