<?xml version="1.0" encoding="utf-8" standalone="no"?>
<!DOCTYPE svg PUBLIC "-//W3C//DTD SVG 1.1//EN"
  "http://www.w3.org/Graphics/SVG/1.1/DTD/svg11.dtd">
<!-- Created with matplotlib (http://matplotlib.org/) -->
<svg height="576pt" version="1.1" viewBox="0 0 576 576" width="576pt" xmlns="http://www.w3.org/2000/svg" xmlns:xlink="http://www.w3.org/1999/xlink">
 <defs>
  <style type="text/css">
*{stroke-linecap:butt;stroke-linejoin:round;}
  </style>
 </defs>
 <g id="figure_1">
  <g id="patch_1">
   <path d="M 0 576 
L 576 576 
L 576 0 
L 0 0 
z
" style="fill:#ffffff;"/>
  </g>
  <g id="axes_1">
   <g id="patch_2">
    <path d="M 72 512.64 
L 518.4 512.64 
L 518.4 69.12 
L 72 69.12 
z
" style="fill:#ffffff;"/>
   </g>
   <g id="matplotlib.axis_1">
    <g id="xtick_1">
     <g id="line2d_1">
      <defs>
       <path d="M 0 0 
L 0 3.5 
" id="mdd5a28aace" style="stroke:#000000;stroke-width:0.8;"/>
      </defs>
      <g>
       <use style="stroke:#000000;stroke-width:0.8;" x="112.216216" xlink:href="#mdd5a28aace" y="512.64"/>
      </g>
     </g>
     <g id="text_1">
      <!-- 0 -->
      <defs>
       <path d="M 31.78125 66.40625 
Q 24.171875 66.40625 20.328125 58.90625 
Q 16.5 51.421875 16.5 36.375 
Q 16.5 21.390625 20.328125 13.890625 
Q 24.171875 6.390625 31.78125 6.390625 
Q 39.453125 6.390625 43.28125 13.890625 
Q 47.125 21.390625 47.125 36.375 
Q 47.125 51.421875 43.28125 58.90625 
Q 39.453125 66.40625 31.78125 66.40625 
z
M 31.78125 74.21875 
Q 44.046875 74.21875 50.515625 64.515625 
Q 56.984375 54.828125 56.984375 36.375 
Q 56.984375 17.96875 50.515625 8.265625 
Q 44.046875 -1.421875 31.78125 -1.421875 
Q 19.53125 -1.421875 13.0625 8.265625 
Q 6.59375 17.96875 6.59375 36.375 
Q 6.59375 54.828125 13.0625 64.515625 
Q 19.53125 74.21875 31.78125 74.21875 
z
" id="DejaVuSans-30"/>
      </defs>
      <g transform="translate(109.034966 527.238438)scale(0.1 -0.1)">
       <use xlink:href="#DejaVuSans-30"/>
      </g>
     </g>
    </g>
    <g id="xtick_2">
     <g id="line2d_2">
      <g>
       <use style="stroke:#000000;stroke-width:0.8;" x="192.648649" xlink:href="#mdd5a28aace" y="512.64"/>
      </g>
     </g>
     <g id="text_2">
      <!-- 2 -->
      <defs>
       <path d="M 19.1875 8.296875 
L 53.609375 8.296875 
L 53.609375 0 
L 7.328125 0 
L 7.328125 8.296875 
Q 12.9375 14.109375 22.625 23.890625 
Q 32.328125 33.6875 34.8125 36.53125 
Q 39.546875 41.84375 41.421875 45.53125 
Q 43.3125 49.21875 43.3125 52.78125 
Q 43.3125 58.59375 39.234375 62.25 
Q 35.15625 65.921875 28.609375 65.921875 
Q 23.96875 65.921875 18.8125 64.3125 
Q 13.671875 62.703125 7.8125 59.421875 
L 7.8125 69.390625 
Q 13.765625 71.78125 18.9375 73 
Q 24.125 74.21875 28.421875 74.21875 
Q 39.75 74.21875 46.484375 68.546875 
Q 53.21875 62.890625 53.21875 53.421875 
Q 53.21875 48.921875 51.53125 44.890625 
Q 49.859375 40.875 45.40625 35.40625 
Q 44.1875 33.984375 37.640625 27.21875 
Q 31.109375 20.453125 19.1875 8.296875 
z
" id="DejaVuSans-32"/>
      </defs>
      <g transform="translate(189.467399 527.238438)scale(0.1 -0.1)">
       <use xlink:href="#DejaVuSans-32"/>
      </g>
     </g>
    </g>
    <g id="xtick_3">
     <g id="line2d_3">
      <g>
       <use style="stroke:#000000;stroke-width:0.8;" x="273.081081" xlink:href="#mdd5a28aace" y="512.64"/>
      </g>
     </g>
     <g id="text_3">
      <!-- 4 -->
      <defs>
       <path d="M 37.796875 64.3125 
L 12.890625 25.390625 
L 37.796875 25.390625 
z
M 35.203125 72.90625 
L 47.609375 72.90625 
L 47.609375 25.390625 
L 58.015625 25.390625 
L 58.015625 17.1875 
L 47.609375 17.1875 
L 47.609375 0 
L 37.796875 0 
L 37.796875 17.1875 
L 4.890625 17.1875 
L 4.890625 26.703125 
z
" id="DejaVuSans-34"/>
      </defs>
      <g transform="translate(269.899831 527.238438)scale(0.1 -0.1)">
       <use xlink:href="#DejaVuSans-34"/>
      </g>
     </g>
    </g>
    <g id="xtick_4">
     <g id="line2d_4">
      <g>
       <use style="stroke:#000000;stroke-width:0.8;" x="353.513514" xlink:href="#mdd5a28aace" y="512.64"/>
      </g>
     </g>
     <g id="text_4">
      <!-- 6 -->
      <defs>
       <path d="M 33.015625 40.375 
Q 26.375 40.375 22.484375 35.828125 
Q 18.609375 31.296875 18.609375 23.390625 
Q 18.609375 15.53125 22.484375 10.953125 
Q 26.375 6.390625 33.015625 6.390625 
Q 39.65625 6.390625 43.53125 10.953125 
Q 47.40625 15.53125 47.40625 23.390625 
Q 47.40625 31.296875 43.53125 35.828125 
Q 39.65625 40.375 33.015625 40.375 
z
M 52.59375 71.296875 
L 52.59375 62.3125 
Q 48.875 64.0625 45.09375 64.984375 
Q 41.3125 65.921875 37.59375 65.921875 
Q 27.828125 65.921875 22.671875 59.328125 
Q 17.53125 52.734375 16.796875 39.40625 
Q 19.671875 43.65625 24.015625 45.921875 
Q 28.375 48.1875 33.59375 48.1875 
Q 44.578125 48.1875 50.953125 41.515625 
Q 57.328125 34.859375 57.328125 23.390625 
Q 57.328125 12.15625 50.6875 5.359375 
Q 44.046875 -1.421875 33.015625 -1.421875 
Q 20.359375 -1.421875 13.671875 8.265625 
Q 6.984375 17.96875 6.984375 36.375 
Q 6.984375 53.65625 15.1875 63.9375 
Q 23.390625 74.21875 37.203125 74.21875 
Q 40.921875 74.21875 44.703125 73.484375 
Q 48.484375 72.75 52.59375 71.296875 
z
" id="DejaVuSans-36"/>
      </defs>
      <g transform="translate(350.332264 527.238438)scale(0.1 -0.1)">
       <use xlink:href="#DejaVuSans-36"/>
      </g>
     </g>
    </g>
    <g id="xtick_5">
     <g id="line2d_5">
      <g>
       <use style="stroke:#000000;stroke-width:0.8;" x="433.945946" xlink:href="#mdd5a28aace" y="512.64"/>
      </g>
     </g>
     <g id="text_5">
      <!-- 8 -->
      <defs>
       <path d="M 31.78125 34.625 
Q 24.75 34.625 20.71875 30.859375 
Q 16.703125 27.09375 16.703125 20.515625 
Q 16.703125 13.921875 20.71875 10.15625 
Q 24.75 6.390625 31.78125 6.390625 
Q 38.8125 6.390625 42.859375 10.171875 
Q 46.921875 13.96875 46.921875 20.515625 
Q 46.921875 27.09375 42.890625 30.859375 
Q 38.875 34.625 31.78125 34.625 
z
M 21.921875 38.8125 
Q 15.578125 40.375 12.03125 44.71875 
Q 8.5 49.078125 8.5 55.328125 
Q 8.5 64.0625 14.71875 69.140625 
Q 20.953125 74.21875 31.78125 74.21875 
Q 42.671875 74.21875 48.875 69.140625 
Q 55.078125 64.0625 55.078125 55.328125 
Q 55.078125 49.078125 51.53125 44.71875 
Q 48 40.375 41.703125 38.8125 
Q 48.828125 37.15625 52.796875 32.3125 
Q 56.78125 27.484375 56.78125 20.515625 
Q 56.78125 9.90625 50.3125 4.234375 
Q 43.84375 -1.421875 31.78125 -1.421875 
Q 19.734375 -1.421875 13.25 4.234375 
Q 6.78125 9.90625 6.78125 20.515625 
Q 6.78125 27.484375 10.78125 32.3125 
Q 14.796875 37.15625 21.921875 38.8125 
z
M 18.3125 54.390625 
Q 18.3125 48.734375 21.84375 45.5625 
Q 25.390625 42.390625 31.78125 42.390625 
Q 38.140625 42.390625 41.71875 45.5625 
Q 45.3125 48.734375 45.3125 54.390625 
Q 45.3125 60.0625 41.71875 63.234375 
Q 38.140625 66.40625 31.78125 66.40625 
Q 25.390625 66.40625 21.84375 63.234375 
Q 18.3125 60.0625 18.3125 54.390625 
z
" id="DejaVuSans-38"/>
      </defs>
      <g transform="translate(430.764696 527.238438)scale(0.1 -0.1)">
       <use xlink:href="#DejaVuSans-38"/>
      </g>
     </g>
    </g>
    <g id="xtick_6">
     <g id="line2d_6">
      <g>
       <use style="stroke:#000000;stroke-width:0.8;" x="514.378378" xlink:href="#mdd5a28aace" y="512.64"/>
      </g>
     </g>
     <g id="text_6">
      <!-- 10 -->
      <defs>
       <path d="M 12.40625 8.296875 
L 28.515625 8.296875 
L 28.515625 63.921875 
L 10.984375 60.40625 
L 10.984375 69.390625 
L 28.421875 72.90625 
L 38.28125 72.90625 
L 38.28125 8.296875 
L 54.390625 8.296875 
L 54.390625 0 
L 12.40625 0 
z
" id="DejaVuSans-31"/>
      </defs>
      <g transform="translate(508.015878 527.238438)scale(0.1 -0.1)">
       <use xlink:href="#DejaVuSans-31"/>
       <use x="63.623047" xlink:href="#DejaVuSans-30"/>
      </g>
     </g>
    </g>
   </g>
   <g id="matplotlib.axis_2">
    <g id="ytick_1">
     <g id="line2d_7">
      <defs>
       <path d="M 0 0 
L -3.5 0 
" id="m6a1b91589b" style="stroke:#000000;stroke-width:0.8;"/>
      </defs>
      <g>
       <use style="stroke:#000000;stroke-width:0.8;" x="72" xlink:href="#m6a1b91589b" y="473.863784"/>
      </g>
     </g>
     <g id="text_7">
      <!-- 0 -->
      <g transform="translate(58.6375 477.663003)scale(0.1 -0.1)">
       <use xlink:href="#DejaVuSans-30"/>
      </g>
     </g>
    </g>
    <g id="ytick_2">
     <g id="line2d_8">
      <g>
       <use style="stroke:#000000;stroke-width:0.8;" x="72" xlink:href="#m6a1b91589b" y="393.431351"/>
      </g>
     </g>
     <g id="text_8">
      <!-- 2 -->
      <g transform="translate(58.6375 397.23057)scale(0.1 -0.1)">
       <use xlink:href="#DejaVuSans-32"/>
      </g>
     </g>
    </g>
    <g id="ytick_3">
     <g id="line2d_9">
      <g>
       <use style="stroke:#000000;stroke-width:0.8;" x="72" xlink:href="#m6a1b91589b" y="312.998919"/>
      </g>
     </g>
     <g id="text_9">
      <!-- 4 -->
      <g transform="translate(58.6375 316.798138)scale(0.1 -0.1)">
       <use xlink:href="#DejaVuSans-34"/>
      </g>
     </g>
    </g>
    <g id="ytick_4">
     <g id="line2d_10">
      <g>
       <use style="stroke:#000000;stroke-width:0.8;" x="72" xlink:href="#m6a1b91589b" y="232.566486"/>
      </g>
     </g>
     <g id="text_10">
      <!-- 6 -->
      <g transform="translate(58.6375 236.365705)scale(0.1 -0.1)">
       <use xlink:href="#DejaVuSans-36"/>
      </g>
     </g>
    </g>
    <g id="ytick_5">
     <g id="line2d_11">
      <g>
       <use style="stroke:#000000;stroke-width:0.8;" x="72" xlink:href="#m6a1b91589b" y="152.134054"/>
      </g>
     </g>
     <g id="text_11">
      <!-- 8 -->
      <g transform="translate(58.6375 155.933273)scale(0.1 -0.1)">
       <use xlink:href="#DejaVuSans-38"/>
      </g>
     </g>
    </g>
    <g id="ytick_6">
     <g id="line2d_12">
      <g>
       <use style="stroke:#000000;stroke-width:0.8;" x="72" xlink:href="#m6a1b91589b" y="71.701622"/>
      </g>
     </g>
     <g id="text_12">
      <!-- 10 -->
      <g transform="translate(52.275 75.50084)scale(0.1 -0.1)">
       <use xlink:href="#DejaVuSans-31"/>
       <use x="63.623047" xlink:href="#DejaVuSans-30"/>
      </g>
     </g>
    </g>
   </g>
   <g id="line2d_13">
    <path clip-path="url(#pcd72b6409f)" d="M 140.367568 389.40973 
" style="fill:none;stroke:#1f77b4;stroke-linecap:square;stroke-width:1.5;"/>
    <defs>
     <path d="M -5 5 
L 5 5 
L 5 -5 
L -5 -5 
z
" id="m6331f599f7" style="stroke:#8000ff;stroke-linejoin:miter;"/>
    </defs>
    <g clip-path="url(#pcd72b6409f)">
     <use style="fill:#8000ff;stroke:#8000ff;stroke-linejoin:miter;" x="140.367568" xlink:href="#m6331f599f7" y="389.40973"/>
    </g>
   </g>
   <g id="line2d_14">
    <path clip-path="url(#pcd72b6409f)" d="M 393.72973 192.35027 
" style="fill:none;stroke:#ff7f0e;stroke-linecap:square;stroke-width:1.5;"/>
    <defs>
     <path d="M 0 -5 
L -4.755283 -1.545085 
L -2.938926 4.045085 
L 2.938926 4.045085 
L 4.755283 -1.545085 
z
" id="m1d4375173e" style="stroke:#8000ff;stroke-linejoin:miter;"/>
    </defs>
    <g clip-path="url(#pcd72b6409f)">
     <use style="fill:#8000ff;stroke:#8000ff;stroke-linejoin:miter;" x="393.72973" xlink:href="#m1d4375173e" y="192.35027"/>
    </g>
   </g>
   <g id="line2d_15">
    <path clip-path="url(#pcd72b6409f)" d="M 450.032432 192.35027 
" style="fill:none;stroke:#2ca02c;stroke-linecap:square;stroke-width:1.5;"/>
    <defs>
     <path d="M -5 5 
L 5 5 
L 5 -5 
L -5 -5 
z
" id="mf98ca955f8" style="stroke:#5148fc;stroke-linejoin:miter;"/>
    </defs>
    <g clip-path="url(#pcd72b6409f)">
     <use style="fill:#5148fc;stroke:#5148fc;stroke-linejoin:miter;" x="450.032432" xlink:href="#mf98ca955f8" y="192.35027"/>
    </g>
   </g>
   <g id="line2d_16">
    <path clip-path="url(#pcd72b6409f)" d="M 224.821622 361.258378 
" style="fill:none;stroke:#d62728;stroke-linecap:square;stroke-width:1.5;"/>
    <defs>
     <path d="M 0 -5 
L -4.755283 -1.545085 
L -2.938926 4.045085 
L 2.938926 4.045085 
L 4.755283 -1.545085 
z
" id="m82e0fa4c07" style="stroke:#5148fc;stroke-linejoin:miter;"/>
    </defs>
    <g clip-path="url(#pcd72b6409f)">
     <use style="fill:#5148fc;stroke:#5148fc;stroke-linejoin:miter;" x="224.821622" xlink:href="#m82e0fa4c07" y="361.258378"/>
    </g>
   </g>
   <g id="line2d_17">
    <path clip-path="url(#pcd72b6409f)" d="M 402.175135 440.082162 
" style="fill:none;stroke:#9467bd;stroke-linecap:square;stroke-width:1.5;"/>
    <defs>
     <path d="M -5 5 
L 5 5 
L 5 -5 
L -5 -5 
z
" id="m544268234a" style="stroke:#238af5;stroke-linejoin:miter;"/>
    </defs>
    <g clip-path="url(#pcd72b6409f)">
     <use style="fill:#238af5;stroke:#238af5;stroke-linejoin:miter;" x="402.175135" xlink:href="#m544268234a" y="440.082162"/>
    </g>
   </g>
   <g id="line2d_18">
    <path clip-path="url(#pcd72b6409f)" d="M 224.821622 192.35027 
" style="fill:none;stroke:#8c564b;stroke-linecap:square;stroke-width:1.5;"/>
    <defs>
     <path d="M 0 -5 
L -4.755283 -1.545085 
L -2.938926 4.045085 
L 2.938926 4.045085 
L 4.755283 -1.545085 
z
" id="m5a8a66c433" style="stroke:#238af5;stroke-linejoin:miter;"/>
    </defs>
    <g clip-path="url(#pcd72b6409f)">
     <use style="fill:#238af5;stroke:#238af5;stroke-linejoin:miter;" x="224.821622" xlink:href="#m5a8a66c433" y="192.35027"/>
    </g>
   </g>
   <g id="line2d_19">
    <path clip-path="url(#pcd72b6409f)" d="M 224.821622 136.047568 
" style="fill:none;stroke:#e377c2;stroke-linecap:square;stroke-width:1.5;"/>
    <defs>
     <path d="M -5 5 
L 5 5 
L 5 -5 
L -5 -5 
z
" id="mf5d3721d6b" style="stroke:#0cc1e8;stroke-linejoin:miter;"/>
    </defs>
    <g clip-path="url(#pcd72b6409f)">
     <use style="fill:#0cc1e8;stroke:#0cc1e8;stroke-linejoin:miter;" x="224.821622" xlink:href="#mf5d3721d6b" y="136.047568"/>
    </g>
   </g>
   <g id="line2d_20">
    <path clip-path="url(#pcd72b6409f)" d="M 393.72973 361.258378 
" style="fill:none;stroke:#7f7f7f;stroke-linecap:square;stroke-width:1.5;"/>
    <defs>
     <path d="M 0 -5 
L -4.755283 -1.545085 
L -2.938926 4.045085 
L 2.938926 4.045085 
L 4.755283 -1.545085 
z
" id="m5e82b391e6" style="stroke:#0cc1e8;stroke-linejoin:miter;"/>
    </defs>
    <g clip-path="url(#pcd72b6409f)">
     <use style="fill:#0cc1e8;stroke:#0cc1e8;stroke-linejoin:miter;" x="393.72973" xlink:href="#m5e82b391e6" y="361.258378"/>
    </g>
   </g>
   <g id="line2d_21">
    <path clip-path="url(#pcd72b6409f)" d="M 450.032432 304.955676 
" style="fill:none;stroke:#bcbd22;stroke-linecap:square;stroke-width:1.5;"/>
    <defs>
     <path d="M -5 5 
L 5 5 
L 5 -5 
L -5 -5 
z
" id="m917c13706c" style="stroke:#3ae8d7;stroke-linejoin:miter;"/>
    </defs>
    <g clip-path="url(#pcd72b6409f)">
     <use style="fill:#3ae8d7;stroke:#3ae8d7;stroke-linejoin:miter;" x="450.032432" xlink:href="#m917c13706c" y="304.955676"/>
    </g>
   </g>
   <g id="line2d_22">
    <path clip-path="url(#pcd72b6409f)" d="M 196.67027 248.652973 
" style="fill:none;stroke:#17becf;stroke-linecap:square;stroke-width:1.5;"/>
    <defs>
     <path d="M 0 -5 
L -4.755283 -1.545085 
L -2.938926 4.045085 
L 2.938926 4.045085 
L 4.755283 -1.545085 
z
" id="mebcac2d360" style="stroke:#3ae8d7;stroke-linejoin:miter;"/>
    </defs>
    <g clip-path="url(#pcd72b6409f)">
     <use style="fill:#3ae8d7;stroke:#3ae8d7;stroke-linejoin:miter;" x="196.67027" xlink:href="#mebcac2d360" y="248.652973"/>
    </g>
   </g>
   <g id="line2d_23">
    <path clip-path="url(#pcd72b6409f)" d="M 140.367568 248.652973 
" style="fill:none;stroke:#1f77b4;stroke-linecap:square;stroke-width:1.5;"/>
    <defs>
     <path d="M -5 5 
L 5 5 
L 5 -5 
L -5 -5 
z
" id="md9b0ae4404" style="stroke:#68fcc1;stroke-linejoin:miter;"/>
    </defs>
    <g clip-path="url(#pcd72b6409f)">
     <use style="fill:#68fcc1;stroke:#68fcc1;stroke-linejoin:miter;" x="140.367568" xlink:href="#md9b0ae4404" y="248.652973"/>
    </g>
   </g>
   <g id="line2d_24">
    <path clip-path="url(#pcd72b6409f)" d="M 393.72973 276.804324 
" style="fill:none;stroke:#ff7f0e;stroke-linecap:square;stroke-width:1.5;"/>
    <defs>
     <path d="M 0 -5 
L -4.755283 -1.545085 
L -2.938926 4.045085 
L 2.938926 4.045085 
L 4.755283 -1.545085 
z
" id="m2ad20aace1" style="stroke:#68fcc1;stroke-linejoin:miter;"/>
    </defs>
    <g clip-path="url(#pcd72b6409f)">
     <use style="fill:#68fcc1;stroke:#68fcc1;stroke-linejoin:miter;" x="393.72973" xlink:href="#m2ad20aace1" y="276.804324"/>
    </g>
   </g>
   <g id="line2d_25">
    <path clip-path="url(#pcd72b6409f)" d="M 281.124324 192.35027 
" style="fill:none;stroke:#2ca02c;stroke-linecap:square;stroke-width:1.5;"/>
    <defs>
     <path d="M -5 5 
L 5 5 
L 5 -5 
L -5 -5 
z
" id="m787c5cc913" style="stroke:#97fca7;stroke-linejoin:miter;"/>
    </defs>
    <g clip-path="url(#pcd72b6409f)">
     <use style="fill:#97fca7;stroke:#97fca7;stroke-linejoin:miter;" x="281.124324" xlink:href="#m787c5cc913" y="192.35027"/>
    </g>
   </g>
   <g id="line2d_26">
    <path clip-path="url(#pcd72b6409f)" d="M 281.124324 333.107027 
" style="fill:none;stroke:#d62728;stroke-linecap:square;stroke-width:1.5;"/>
    <defs>
     <path d="M 0 -5 
L -4.755283 -1.545085 
L -2.938926 4.045085 
L 2.938926 4.045085 
L 4.755283 -1.545085 
z
" id="m355f0d1f17" style="stroke:#97fca7;stroke-linejoin:miter;"/>
    </defs>
    <g clip-path="url(#pcd72b6409f)">
     <use style="fill:#97fca7;stroke:#97fca7;stroke-linejoin:miter;" x="281.124324" xlink:href="#m355f0d1f17" y="333.107027"/>
    </g>
   </g>
   <g id="line2d_27">
    <path clip-path="url(#pcd72b6409f)" d="M 140.367568 304.955676 
" style="fill:none;stroke:#9467bd;stroke-linecap:square;stroke-width:1.5;"/>
    <defs>
     <path d="M -5 5 
L 5 5 
L 5 -5 
L -5 -5 
z
" id="m020e9426b6" style="stroke:#c5e88a;stroke-linejoin:miter;"/>
    </defs>
    <g clip-path="url(#pcd72b6409f)">
     <use style="fill:#c5e88a;stroke:#c5e88a;stroke-linejoin:miter;" x="140.367568" xlink:href="#m020e9426b6" y="304.955676"/>
    </g>
   </g>
   <g id="line2d_28">
    <path clip-path="url(#pcd72b6409f)" d="M 309.275676 276.804324 
" style="fill:none;stroke:#8c564b;stroke-linecap:square;stroke-width:1.5;"/>
    <defs>
     <path d="M 0 -5 
L -4.755283 -1.545085 
L -2.938926 4.045085 
L 2.938926 4.045085 
L 4.755283 -1.545085 
z
" id="ma039e07576" style="stroke:#c5e88a;stroke-linejoin:miter;"/>
    </defs>
    <g clip-path="url(#pcd72b6409f)">
     <use style="fill:#c5e88a;stroke:#c5e88a;stroke-linejoin:miter;" x="309.275676" xlink:href="#ma039e07576" y="276.804324"/>
    </g>
   </g>
   <g id="line2d_29">
    <path clip-path="url(#pcd72b6409f)" d="M 393.72973 220.501622 
" style="fill:none;stroke:#e377c2;stroke-linecap:square;stroke-width:1.5;"/>
    <defs>
     <path d="M -5 5 
L 5 5 
L 5 -5 
L -5 -5 
z
" id="m60659df587" style="stroke:#f3c16a;stroke-linejoin:miter;"/>
    </defs>
    <g clip-path="url(#pcd72b6409f)">
     <use style="fill:#f3c16a;stroke:#f3c16a;stroke-linejoin:miter;" x="393.72973" xlink:href="#m60659df587" y="220.501622"/>
    </g>
   </g>
   <g id="line2d_30">
    <path clip-path="url(#pcd72b6409f)" d="M 140.367568 276.804324 
" style="fill:none;stroke:#7f7f7f;stroke-linecap:square;stroke-width:1.5;"/>
    <defs>
     <path d="M 0 -5 
L -4.755283 -1.545085 
L -2.938926 4.045085 
L 2.938926 4.045085 
L 4.755283 -1.545085 
z
" id="m48e6510ee8" style="stroke:#f3c16a;stroke-linejoin:miter;"/>
    </defs>
    <g clip-path="url(#pcd72b6409f)">
     <use style="fill:#f3c16a;stroke:#f3c16a;stroke-linejoin:miter;" x="140.367568" xlink:href="#m48e6510ee8" y="276.804324"/>
    </g>
   </g>
   <g id="line2d_31">
    <path clip-path="url(#pcd72b6409f)" d="M 140.367568 136.047568 
" style="fill:none;stroke:#bcbd22;stroke-linecap:square;stroke-width:1.5;"/>
    <defs>
     <path d="M -5 5 
L 5 5 
L 5 -5 
L -5 -5 
z
" id="m3da9407dc5" style="stroke:#ff8a48;stroke-linejoin:miter;"/>
    </defs>
    <g clip-path="url(#pcd72b6409f)">
     <use style="fill:#ff8a48;stroke:#ff8a48;stroke-linejoin:miter;" x="140.367568" xlink:href="#m3da9407dc5" y="136.047568"/>
    </g>
   </g>
   <g id="line2d_32">
    <path clip-path="url(#pcd72b6409f)" d="M 252.972973 248.652973 
" style="fill:none;stroke:#17becf;stroke-linecap:square;stroke-width:1.5;"/>
    <defs>
     <path d="M 0 -5 
L -4.755283 -1.545085 
L -2.938926 4.045085 
L 2.938926 4.045085 
L 4.755283 -1.545085 
z
" id="m6a4045b7a8" style="stroke:#ff8a48;stroke-linejoin:miter;"/>
    </defs>
    <g clip-path="url(#pcd72b6409f)">
     <use style="fill:#ff8a48;stroke:#ff8a48;stroke-linejoin:miter;" x="252.972973" xlink:href="#m6a4045b7a8" y="248.652973"/>
    </g>
   </g>
   <g id="line2d_33">
    <path clip-path="url(#pcd72b6409f)" d="M 337.427027 164.198919 
" style="fill:none;stroke:#1f77b4;stroke-linecap:square;stroke-width:1.5;"/>
    <defs>
     <path d="M -5 5 
L 5 5 
L 5 -5 
L -5 -5 
z
" id="m1f2f91d2d9" style="stroke:#ff4824;stroke-linejoin:miter;"/>
    </defs>
    <g clip-path="url(#pcd72b6409f)">
     <use style="fill:#ff4824;stroke:#ff4824;stroke-linejoin:miter;" x="337.427027" xlink:href="#m1f2f91d2d9" y="164.198919"/>
    </g>
   </g>
   <g id="line2d_34">
    <path clip-path="url(#pcd72b6409f)" d="M 168.518919 389.40973 
" style="fill:none;stroke:#ff7f0e;stroke-linecap:square;stroke-width:1.5;"/>
    <defs>
     <path d="M 0 -5 
L -4.755283 -1.545085 
L -2.938926 4.045085 
L 2.938926 4.045085 
L 4.755283 -1.545085 
z
" id="m5b58ff744c" style="stroke:#ff4824;stroke-linejoin:miter;"/>
    </defs>
    <g clip-path="url(#pcd72b6409f)">
     <use style="fill:#ff4824;stroke:#ff4824;stroke-linejoin:miter;" x="168.518919" xlink:href="#m5b58ff744c" y="389.40973"/>
    </g>
   </g>
   <g id="line2d_35">
    <path clip-path="url(#pcd72b6409f)" d="M 196.67027 445.712432 
" style="fill:none;stroke:#2ca02c;stroke-linecap:square;stroke-width:1.5;"/>
    <defs>
     <path d="M -5 5 
L 5 5 
L 5 -5 
L -5 -5 
z
" id="mae8896182b" style="stroke:#ff0000;stroke-linejoin:miter;"/>
    </defs>
    <g clip-path="url(#pcd72b6409f)">
     <use style="fill:#ff0000;stroke:#ff0000;stroke-linejoin:miter;" x="196.67027" xlink:href="#mae8896182b" y="445.712432"/>
    </g>
   </g>
   <g id="line2d_36">
    <path clip-path="url(#pcd72b6409f)" d="M 393.72973 136.047568 
" style="fill:none;stroke:#d62728;stroke-linecap:square;stroke-width:1.5;"/>
    <defs>
     <path d="M 0 -5 
L -4.755283 -1.545085 
L -2.938926 4.045085 
L 2.938926 4.045085 
L 4.755283 -1.545085 
z
" id="ma115b0a28d" style="stroke:#ff0000;stroke-linejoin:miter;"/>
    </defs>
    <g clip-path="url(#pcd72b6409f)">
     <use style="fill:#ff0000;stroke:#ff0000;stroke-linejoin:miter;" x="393.72973" xlink:href="#ma115b0a28d" y="136.047568"/>
    </g>
   </g>
   <g id="line2d_37"/>
   <g id="line2d_38">
    <path clip-path="url(#pcd72b6409f)" d="M 92.108108 493.971892 
L 92.108108 87.788108 
" style="fill:none;stroke:#000000;stroke-linecap:square;stroke-width:4;"/>
   </g>
   <g id="line2d_39">
    <path clip-path="url(#pcd72b6409f)" d="M 92.108108 87.788108 
L 498.291892 87.788108 
" style="fill:none;stroke:#000000;stroke-linecap:square;stroke-width:4;"/>
   </g>
   <g id="line2d_40">
    <path clip-path="url(#pcd72b6409f)" d="M 498.291892 87.788108 
L 498.291892 493.971892 
" style="fill:none;stroke:#000000;stroke-linecap:square;stroke-width:4;"/>
   </g>
   <g id="line2d_41">
    <path clip-path="url(#pcd72b6409f)" d="M 498.291892 493.971892 
L 92.108108 493.971892 
" style="fill:none;stroke:#000000;stroke-linecap:square;stroke-width:4;"/>
   </g>
   <g id="line2d_42">
    <path clip-path="url(#pcd72b6409f)" d="M 140.367568 389.40973 
L 141.091459 389.40973 
L 143.062054 389.088 
L 144.912 388.243459 
L 146.480432 386.956541 
L 147.767351 385.227243 
L 149.094486 383.216432 
L 150.823784 381.527351 
L 153.035676 380.320865 
L 157.057297 379.154595 
L 159.027892 378.028541 
L 160.274595 376.741622 
L 162.607135 373.04173 
L 164.014703 371.272216 
L 165.824432 369.945081 
L 167.593946 369.140757 
L 169.564541 368.376649 
L 171.615568 367.210378 
L 172.86227 365.963676 
L 175.556757 361.98227 
L 177.165405 360.413838 
L 179.337081 359.167135 
L 183.801081 357.478054 
L 185.651027 356.070486 
L 186.978162 354.421622 
L 188.224865 352.451027 
L 189.712865 350.72173 
L 192.005189 349.193514 
L 194.33773 348.348973 
L 196.268108 347.785946 
L 198.278919 346.700108 
L 199.927784 345.051243 
L 201.858162 341.954595 
L 203.346162 340.30573 
L 205.718919 338.857946 
L 209.700324 337.209081 
L 211.389405 336.042811 
L 212.676324 334.755892 
L 213.802378 333.348324 
L 215.290378 331.739676 
L 217.421838 330.010378 
L 223.373838 326.873514 
L 224.982486 325.586595 
L 228.038919 322.248649 
L 230.04973 320.438919 
L 231.819243 319.192216 
L 235.760432 316.899892 
L 237.731027 315.612973 
L 242.878703 311.752216 
L 244.809081 310.666378 
L 246.819892 309.821838 
L 248.348108 309.339243 
L 251.042595 308.776216 
L 253.455568 308.534919 
L 258 308.374054 
L 260.573838 307.931676 
L 263.027027 307.087135 
L 266.807351 305.357838 
L 269.340973 303.588324 
L 271.71373 302.341622 
L 273.081081 302.140541 
L 274.528865 302.301405 
L 276.057081 302.743784 
L 277.384216 303.10573 
L 278.108108 302.784 
L 278.791784 302.261189 
L 280.480865 300.451459 
L 281.928649 298.762378 
L 283.818811 296.992865 
L 284.060108 296.590703 
L 284.220973 296.027676 
L 284.180757 294.982054 
L 283.537297 293.132108 
L 282.411243 291.402811 
L 280.681946 289.71373 
L 279.354811 288.909405 
L 279.234162 288.265946 
L 279.234162 287.340973 
L 279.354811 286.456216 
L 279.837405 283.801946 
L 279.797189 282.635676 
L 279.314595 280.383568 
L 279.274378 279.337946 
L 279.515676 278.091243 
L 280.239568 276.643459 
L 281.48627 275.115243 
L 282.491676 274.109838 
L 283.135135 273.305514 
L 283.698162 272.099027 
L 283.899243 269.927351 
L 283.537297 267.715459 
L 282.97427 265.423135 
L 282.732973 263.894919 
L 282.813405 262.527568 
L 283.215568 261.280865 
L 285.990486 255.851676 
L 286.674162 253.881081 
L 287.277405 251.789838 
L 288.202378 249.256216 
L 289.449081 246.963892 
L 290.856649 245.154162 
L 294.114162 242.09773 
L 303.564973 234.778378 
L 308.028973 231.842595 
L 314.544 228.142703 
L 320.013405 225.287351 
L 329.866378 220.300541 
L 333.727135 217.847351 
L 338.432432 214.268108 
L 345.269189 208.999784 
L 350.778811 205.058595 
L 355.926486 201.640216 
L 361.033946 198.583784 
L 365.940324 196.090378 
L 369.881514 194.521946 
L 372.817297 193.556757 
L 377.643243 192.430703 
L 380.659459 191.988324 
L 383.514811 191.706811 
L 387.978811 191.626378 
L 391.839568 191.827459 
L 391.839568 191.827459 
" style="fill:none;stroke:#8000ff;stroke-linecap:square;stroke-width:1.5;"/>
   </g>
   <g id="line2d_43">
    <path clip-path="url(#pcd72b6409f)" d="M 450.032432 192.35027 
L 450.27373 192.430703 
L 450.394378 192.591568 
L 450.474811 193.395892 
L 450.27373 194.642595 
L 449.63027 196.291459 
L 448.303135 198.101189 
L 446.332541 199.669622 
L 444.32173 200.554378 
L 442.512 201.077189 
L 440.420757 202.002162 
L 438.852324 203.329297 
L 436.23827 206.868324 
L 434.669838 208.436757 
L 432.779676 209.562811 
L 427.95373 211.091027 
L 426.144 212.056216 
L 424.495135 213.624649 
L 422.122378 216.922378 
L 420.031135 218.732108 
L 417.779027 219.77773 
L 415.728 220.340757 
L 414.280216 220.863568 
L 412.711784 221.708108 
L 410.861838 223.477622 
L 408.086919 227.056865 
L 406.196757 228.665514 
L 404.266378 229.670919 
L 402.255568 230.515459 
L 400.365405 231.440432 
L 398.676324 232.646919 
L 397.308973 233.893622 
L 395.820973 235.421838 
L 393.971027 237.030486 
L 392.402595 238.116324 
L 388.541838 240.489081 
L 386.571243 241.856432 
L 377.844324 248.572541 
L 366.985946 256.454919 
L 363.688216 258.747243 
L 355.88627 263.693838 
L 350.215784 266.991568 
L 349.08973 267.715459 
L 346.194162 269.967568 
L 343.539892 272.501189 
L 339.880216 276.522811 
L 337.065081 280.061838 
L 332.922811 285.611676 
L 331.716324 287.059459 
L 328.740324 290.035459 
L 327.453405 291.161514 
L 327.453405 291.161514 
L 327.131676 291.081081 
L 327.091459 291.040865 
L 326.689297 290.316973 
L 326.890378 290.477838 
L 327.051243 290.477838 
L 326.246919 290.759351 
L 325.603459 291.322378 
L 325.040432 292.04627 
L 324.678486 292.850595 
L 324.396973 293.775568 
L 324.437189 295.384216 
L 324.678486 296.108108 
L 325.201297 297.073297 
L 325.764324 297.716757 
L 326.367568 298.118919 
L 327.011027 298.32 
L 328.056649 298.400432 
L 329.625081 297.99827 
L 329.544649 298.038486 
L 330.710919 296.751568 
L 332.440216 294.298378 
L 332.4 294.298378 
L 332.4 294.338595 
L 332.239135 295.384216 
L 332.279351 295.303784 
L 332.560865 294.941838 
L 333.324973 294.338595 
L 334.330378 293.976649 
L 334.491243 294.057081 
L 334.812973 294.579892 
L 335.134703 295.504865 
L 335.174919 296.470054 
L 334.853189 298.118919 
L 334.008649 299.767784 
L 333.043459 301.054703 
L 331.555459 302.663351 
L 326.850162 307.207784 
L 324.035027 309.982703 
L 320.898162 312.275027 
L 317.801514 313.923892 
L 309.356108 318.066162 
L 302.720432 321.484541 
L 295.561946 325.264865 
L 281.968865 332.182054 
L 270.064865 338.254703 
L 254.058811 346.378378 
L 244.28627 351.365189 
L 229.567135 358.845405 
L 225.625946 360.856216 
L 225.625946 360.856216 
" style="fill:none;stroke:#5148fc;stroke-linecap:square;stroke-width:1.5;"/>
   </g>
   <g id="line2d_44">
    <path clip-path="url(#pcd72b6409f)" d="M 402.175135 440.082162 
L 401.933838 440.162595 
L 401.893622 440.243027 
L 401.933838 440.082162 
L 402.054486 438.835459 
L 401.612108 436.422486 
L 400.807784 434.813838 
L 399.440432 433.285622 
L 394.654703 429.625946 
L 393.126486 427.293405 
L 392.483027 425.483676 
L 391.92 423.231568 
L 390.995027 421.019676 
L 389.507027 419.250162 
L 387.616865 417.842595 
L 385.565838 416.555676 
L 383.595243 414.585081 
L 382.549622 412.614486 
L 381.383351 408.351568 
L 380.418162 406.541838 
L 378.84973 404.852757 
L 375.431351 402.48 
L 373.983568 400.831135 
L 373.058595 399.101838 
L 371.40973 394.879135 
L 369.881514 392.828108 
L 368.473946 391.661838 
L 366.422919 390.173838 
L 364.81427 388.685838 
L 363.487135 386.554378 
L 362.119784 382.81427 
L 360.873081 380.562162 
L 359.465514 379.033946 
L 356.127568 376.259027 
L 354.760216 374.52973 
L 353.795027 372.840649 
L 351.945081 368.738595 
L 350.778811 367.009297 
L 349.210378 365.28 
L 346.355027 362.384432 
L 345.188757 360.856216 
L 343.861622 358.764973 
L 341.569297 354.823784 
L 339.397622 351.847784 
L 336.54227 348.268541 
L 333.928216 344.528432 
L 331.515243 340.949189 
L 314.624432 317.462919 
L 313.297297 315.411892 
L 311.970162 312.958703 
L 311.366919 311.108757 
L 311.24627 308.896865 
L 311.568 306.966486 
L 312.452757 304.915459 
L 313.940757 302.301405 
L 313.940757 302.46227 
L 314.021189 302.623135 
L 313.578811 302.301405 
L 312.251676 301.657946 
L 307.224649 300.411243 
L 306.983351 300.290595 
L 306.701838 299.446054 
L 306.339892 298.199351 
L 305.977946 297.555892 
L 305.656216 297.234162 
L 305.173622 296.912432 
L 304.650811 296.711351 
L 303.001946 296.228757 
L 302.921514 296.148324 
L 302.800865 295.826595 
L 302.680216 294.258162 
L 302.96173 291.764757 
L 302.921514 290.397405 
L 302.519351 289.351784 
L 302.076973 288.909405 
L 299.945514 287.542054 
L 299.784649 287.180108 
L 299.664 286.576865 
L 299.744432 285.410595 
L 300.227027 284.083459 
L 301.031351 282.997622 
L 302.358486 281.750919 
L 302.760649 280.624865 
L 302.96173 279.458595 
L 302.881297 278.855351 
L 302.438919 277.769514 
L 301.594378 276.683676 
L 300.588973 275.879351 
L 298.457514 274.753297 
L 294.918486 273.305514 
L 292.103351 271.536 
L 291.017514 270.611027 
L 289.891459 269.283892 
L 288.92627 267.715459 
L 286.915459 263.412324 
L 285.306811 260.878703 
L 283.094919 258.224432 
L 272.437622 246.038919 
L 270.185514 243.062919 
L 268.858378 240.931459 
L 266.847568 236.909838 
L 265.238919 233.049081 
L 262.866162 227.700324 
L 260.855351 223.92 
L 259.689081 221.989622 
L 258.080432 219.496216 
L 257.075027 218.088649 
L 253.696865 214.268108 
L 251.806703 212.458378 
L 249.192649 210.246486 
L 242.959135 205.460757 
L 225.907459 193.114378 
L 225.907459 193.114378 
" style="fill:none;stroke:#238af5;stroke-linecap:square;stroke-width:1.5;"/>
   </g>
   <g id="line2d_45">
    <path clip-path="url(#pcd72b6409f)" d="M 224.821622 136.047568 
L 225.746595 136.087784 
L 227.676973 136.409514 
L 229.728 137.29427 
L 231.658378 138.902919 
L 232.784432 140.511568 
L 233.830054 143.125622 
L 234.473514 145.096216 
L 235.559351 147.107027 
L 236.966919 148.595027 
L 240.345081 151.168865 
L 241.672216 152.656865 
L 242.838486 154.828541 
L 243.642811 157.161081 
L 244.527568 159.252324 
L 245.894919 161.142486 
L 247.463351 162.509838 
L 249.192649 163.796757 
L 251.002378 165.526054 
L 252.208865 167.416216 
L 253.817514 171.116108 
L 254.983784 173.167135 
L 256.512 174.896432 
L 257.959784 176.143135 
L 259.930378 177.993081 
L 261.257514 179.722378 
L 262.343351 181.652757 
L 263.187892 183.382054 
L 264.354162 185.433081 
L 265.801946 187.283027 
L 270.145297 192.068757 
L 272.357189 195.487135 
L 274.528865 198.825081 
L 277.263568 202.404324 
L 280.883027 207.109622 
L 282.290595 209.04 
L 283.818811 210.889946 
L 285.266595 212.458378 
L 287.237189 214.147459 
L 289.207784 215.474595 
L 293.39027 218.008216 
L 294.87827 219.214703 
L 296.245622 220.582054 
L 298.698811 223.437405 
L 300.025946 224.684108 
L 301.433514 225.649297 
L 307.626811 228.826378 
L 309.275676 230.274162 
L 310.763676 232.244757 
L 314.22227 238.357622 
L 315.308108 239.845622 
L 319.490595 245.07373 
L 320.898162 247.044324 
L 325.683892 254.403892 
L 327.292541 256.374486 
L 329.303351 258.505946 
L 334.089081 263.050378 
L 336.54227 265.704649 
L 338.995459 268.519784 
L 341.368216 270.812108 
L 342.655135 271.817514 
L 350.095135 276.884757 
L 352.628757 279.257514 
L 354.679784 281.670486 
L 356.610162 284.324757 
L 359.184 288.386595 
L 361.83827 293.252757 
L 368.996757 308.293622 
L 370.886919 312.315243 
L 373.139027 317.181405 
L 376.999784 325.42573 
L 383.072432 338.415568 
L 389.104865 351.284757 
L 390.633081 354.582486 
L 393.046054 359.810595 
L 393.046054 359.810595 
" style="fill:none;stroke:#0cc1e8;stroke-linecap:square;stroke-width:1.5;"/>
   </g>
   <g id="line2d_46">
    <path clip-path="url(#pcd72b6409f)" d="M 450.032432 304.955676 
L 449.831351 304.995892 
L 449.710703 305.43827 
L 449.388973 304.875243 
L 448.303135 303.668757 
L 446.614054 302.502486 
L 444.924973 301.859027 
L 442.914162 301.61773 
L 438.651243 301.818811 
L 436.157838 301.456865 
L 433.865514 300.531892 
L 431.734054 299.405838 
L 429.803676 298.561297 
L 428.034162 298.159135 
L 425.701622 297.958054 
L 423.007135 297.917838 
L 421.036541 297.716757 
L 418.905081 297.274378 
L 412.550919 295.263568 
L 410.499892 294.901622 
L 405.673946 294.258162 
L 403.260973 293.815784 
L 395.257946 291.684324 
L 386.571243 289.995243 
L 377.924757 288.024649 
L 347.239784 281.63027 
L 342.735568 281.027027 
L 337.949838 280.705297 
L 333.405405 280.584649 
L 328.579459 280.504216 
L 326.166486 280.383568 
L 319.490595 279.619459 
L 313.096216 278.815135 
L 306.701838 278.091243 
L 303.243243 277.367351 
L 301.835676 276.804324 
L 300.347676 275.879351 
L 298.779243 274.230486 
L 295.079351 268.56 
L 292.947892 266.428541 
L 291.821838 265.342703 
L 290.776216 264.136216 
L 290.012108 262.849297 
L 289.248 260.637405 
L 288.403459 255.168 
L 288.08173 254.403892 
L 287.558919 253.478919 
L 286.835027 252.553946 
L 285.910054 251.669189 
L 283.497081 249.899676 
L 278.188541 246.521514 
L 275.614703 244.912865 
L 273.563676 243.907459 
L 271.392 243.103135 
L 266.928 241.735784 
L 266.726919 241.414054 
L 266.525838 239.885838 
L 266.244324 238.880432 
L 265.721514 237.955459 
L 264.716108 237.110919 
L 263.348757 236.467459 
L 261.056432 235.904432 
L 256.069622 235.220757 
L 253.938162 234.577297 
L 250.077405 232.848 
L 247.543784 231.802378 
L 245.050378 231.118703 
L 242.396108 230.756757 
L 239.902703 230.716541 
L 237.288649 230.917622 
L 234.835459 231.239351 
L 230.773622 232.124108 
L 226.711784 233.290378 
L 224.419459 234.094703 
L 221.282595 235.381622 
L 217.421838 237.151135 
L 210.625297 240.649946 
L 203.828757 244.43027 
L 197.916973 247.848649 
L 197.916973 247.848649 
" style="fill:none;stroke:#3ae8d7;stroke-linecap:square;stroke-width:1.5;"/>
   </g>
   <g id="line2d_47">
    <path clip-path="url(#pcd72b6409f)" d="M 140.367568 248.652973 
L 143.222919 248.733405 
L 145.394595 249.014919 
L 149.536865 249.859459 
L 153.478054 250.221405 
L 158.223568 250.462703 
L 160.636541 250.744216 
L 164.617946 251.427892 
L 168.559135 251.87027 
L 172.822054 252.151784 
L 202.340757 255.529946 
L 209.016649 256.253838 
L 224.459676 257.902703 
L 257.718486 261.039568 
L 259.930378 261.642811 
L 260.131459 261.884108 
L 260.533622 262.969946 
L 260.573838 264.940541 
L 259.849946 267.313297 
L 259.005405 269.002378 
L 258.281514 270.852324 
L 258.241297 270.651243 
L 258.160865 270.570811 
L 258.361946 270.691459 
L 259.80973 271.013189 
L 264.193297 271.174054 
L 265.962811 271.696865 
L 266.887784 272.300108 
L 267.732324 273.305514 
L 268.416 274.954378 
L 268.657297 277.447784 
L 268.416 279.579243 
L 268.375784 281.067243 
L 268.295351 280.906378 
L 268.174703 280.866162 
L 268.335568 280.866162 
L 269.260541 280.78573 
L 270.828973 280.102054 
L 272.196324 279.016216 
L 273.282162 277.729297 
L 274.04627 276.361946 
L 274.327784 275.115243 
L 274.649514 274.19027 
L 274.770162 273.426162 
L 274.810378 271.495784 
L 275.091892 271.21427 
L 275.815784 270.651243 
L 277.826595 269.605622 
L 279.274378 268.479568 
L 280.400432 267.072 
L 282.652541 262.849297 
L 283.215568 262.28627 
L 283.979676 261.803676 
L 284.944865 261.481946 
L 286.794811 261.200432 
L 288.604541 261.039568 
L 289.288216 260.838486 
L 290.293622 260.396108 
L 291.459892 259.471135 
L 292.585946 258.224432 
L 294.717405 255.48973 
L 295.682595 254.524541 
L 296.848865 253.720216 
L 299.181405 252.553946 
L 306.299676 249.939892 
L 310.40173 248.652973 
L 313.176649 248.04973 
L 315.911351 247.687784 
L 318.364541 247.486703 
L 321.018811 247.325838 
L 332.319568 246.682378 
L 334.611892 246.843243 
L 342.333405 248.170378 
L 345.510486 249.135568 
L 347.561514 249.939892 
L 357.173189 254.645189 
L 363.004541 257.942919 
L 378.568216 267.39373 
L 383.032216 270.168649 
L 391.92 275.67827 
L 392.925405 276.32173 
L 392.925405 276.32173 
" style="fill:none;stroke:#68fcc1;stroke-linecap:square;stroke-width:1.5;"/>
   </g>
   <g id="line2d_48">
    <path clip-path="url(#pcd72b6409f)" d="M 281.124324 192.35027 
L 281.365622 192.390486 
L 282.12973 192.631784 
L 282.732973 193.074162 
L 283.416649 194.039351 
L 283.939459 195.245838 
L 284.261189 197.256649 
L 284.180757 199.709838 
L 283.255784 206.104216 
L 283.054703 210.608432 
L 283.135135 219.657081 
L 282.049297 277.890162 
L 282.250378 280.624865 
L 282.893838 286.134486 
L 283.336216 290.156108 
L 284.060108 295.545081 
L 284.502486 296.389622 
L 285.065514 296.832 
L 286.392649 297.354811 
L 288.162162 297.515676 
L 289.891459 297.274378 
L 291.459892 296.711351 
L 292.425081 296.148324 
L 292.947892 295.585297 
L 293.551135 294.539676 
L 293.872865 293.373405 
L 294.154378 291.20173 
L 294.275027 289.392 
L 294.435892 288.668108 
L 294.998919 287.340973 
L 295.320649 286.054054 
L 295.360865 284.123676 
L 294.717405 280.78573 
L 294.838054 280.262919 
L 295.360865 279.136865 
L 297.170595 276.884757 
L 300.025946 273.34573 
L 301.916108 270.691459 
L 306.500757 265.744865 
L 307.868108 264.819892 
L 308.592 264.457946 
L 309.396324 264.216649 
L 311.165838 264.055784 
L 313.257081 264.337297 
L 315.670054 264.699243 
L 320.17427 265.181838 
L 321.420973 265.584 
L 322.667676 266.348108 
L 324.035027 267.594811 
L 325.080649 268.801297 
L 326.407784 270.651243 
L 326.970811 271.817514 
L 327.091459 272.621838 
L 327.61427 273.104432 
L 328.659892 273.707676 
L 330.348973 274.150054 
L 334.330378 274.471784 
L 334.611892 274.592432 
L 334.933622 275.155459 
L 335.255351 276 
L 335.376 277.126054 
L 335.376 278.252108 
L 335.05427 280.866162 
L 334.732541 282.354162 
L 333.928216 284.566054 
L 332.480432 286.777946 
L 330.59027 288.949622 
L 328.137081 291.282162 
L 324.236108 294.901622 
L 322.185081 297.15373 
L 321.059027 298.722162 
L 320.053622 300.371027 
L 316.554811 306.363243 
L 314.86573 308.454486 
L 312.452757 310.867459 
L 310.562595 312.516324 
L 307.184432 315.170595 
L 298.095568 321.645405 
L 282.330811 332.302703 
L 282.330811 332.302703 
" style="fill:none;stroke:#97fca7;stroke-linecap:square;stroke-width:1.5;"/>
   </g>
   <g id="line2d_49">
    <path clip-path="url(#pcd72b6409f)" d="M 140.367568 304.955676 
L 141.131676 304.955676 
L 143.705514 304.835027 
L 145.796757 304.473081 
L 154.966054 302.422054 
L 167.352649 300.652541 
L 173.706811 299.526486 
L 211.429622 293.212541 
L 222.086919 291.563676 
L 226.470486 290.920216 
L 238.575568 289.392 
L 243.522162 288.668108 
L 248.066595 287.58227 
L 250.198054 286.979027 
L 250.399135 287.059459 
L 250.801297 287.340973 
L 251.364324 288.145297 
L 251.846919 289.432216 
L 251.927351 290.678919 
L 251.887135 290.759351 
L 251.605622 291.040865 
L 250.962162 291.443027 
L 249.996973 291.764757 
L 249.031784 291.804973 
L 247.463351 291.563676 
L 244.366703 290.759351 
L 242.959135 290.518054 
L 242.959135 290.518054 
L 243.160216 290.357189 
L 243.200432 290.156108 
L 243.280865 290.437622 
L 243.562378 290.920216 
L 244.044973 291.362595 
L 244.809081 291.845189 
L 246.659027 292.327784 
L 248.830703 292.448432 
L 252.932757 292.207135 
L 256.150054 291.724541 
L 255.989189 291.804973 
L 257.959784 290.075676 
L 259.286919 288.909405 
L 259.286919 288.909405 
L 260.171676 288.627892 
L 262.78573 288.024649 
L 266.364973 287.542054 
L 273.885405 286.697514 
L 274.166919 286.657297 
L 275.494054 287.019243 
L 280.118919 289.231135 
L 281.48627 289.512649 
L 282.853622 289.633297 
L 284.261189 289.552865 
L 285.95027 289.311568 
L 288.886054 288.386595 
L 291.097946 287.461622 
L 295.602162 285.088865 
L 297.693405 283.76173 
L 298.940108 282.756324 
L 300.066162 281.63027 
L 301.152 280.303135 
L 303.122595 277.729297 
L 304.168216 276.643459 
L 305.495351 275.597838 
L 306.862703 274.914162 
L 307.506162 274.672865 
L 308.27027 274.512 
L 308.27027 274.512 
" style="fill:none;stroke:#c5e88a;stroke-linecap:square;stroke-width:1.5;"/>
   </g>
   <g id="line2d_50">
    <path clip-path="url(#pcd72b6409f)" d="M 393.72973 220.501622 
L 393.930811 220.582054 
L 394.051459 220.742919 
L 394.091676 220.944 
L 393.890595 221.426595 
L 392.965622 222.633081 
L 391.316757 224.040649 
L 389.26573 224.965622 
L 387.094054 225.327568 
L 380.900757 225.08627 
L 378.648649 225.72973 
L 374.667243 227.820973 
L 372.777081 228.504649 
L 370.323892 228.866595 
L 366.342486 228.826378 
L 364.291459 229.067676 
L 362.521946 229.590486 
L 358.178595 231.158919 
L 356.047135 231.68173 
L 349.411459 232.486054 
L 345.269189 233.531676 
L 340.845405 234.738162 
L 336.341189 235.50227 
L 331.354378 236.427243 
L 322.748108 238.47827 
L 314.141838 240.368432 
L 309.476757 241.655351 
L 305.414919 242.94227 
L 303.524757 243.666162 
L 301.674811 244.591135 
L 299.744432 245.91827 
L 298.256432 247.40627 
L 295.280432 251.186595 
L 294.073946 252.473514 
L 291.580541 254.685405 
L 291.258811 255.168 
L 291.097946 255.771243 
L 290.977297 256.816865 
L 290.655568 258.425514 
L 290.172973 259.31027 
L 289.56973 259.95373 
L 288.162162 260.838486 
L 286.473081 261.321081 
L 284.623135 261.481946 
L 281.566703 261.361297 
L 280.722162 261.200432 
L 280.360216 260.878703 
L 279.716757 259.913514 
L 279.234162 258.264649 
L 278.992865 256.294054 
L 278.550486 254.926703 
L 278.228757 254.484324 
L 277.545081 253.921297 
L 276.097297 253.237622 
L 274.448432 252.956108 
L 272.357189 252.956108 
L 267.772541 253.35827 
L 265.641081 253.398486 
L 263.710703 253.318054 
L 257.075027 252.714811 
L 254.782703 252.755027 
L 252.771892 253.036541 
L 251.324108 253.438703 
L 249.715459 254.283243 
L 248.227459 255.610378 
L 245.331892 259.31027 
L 243.964541 260.758054 
L 242.838486 261.602595 
L 241.350486 262.366703 
L 239.500541 263.010162 
L 237.529946 263.492757 
L 226.470486 265.382919 
L 215.209946 266.991568 
L 209.177514 267.755676 
L 201.817946 268.761081 
L 194.900757 269.645838 
L 189.471568 270.36973 
L 179.497946 271.656649 
L 173.907892 272.420757 
L 167.272216 273.265297 
L 159.832216 274.270703 
L 141.091459 276.723892 
L 141.091459 276.723892 
" style="fill:none;stroke:#f3c16a;stroke-linecap:square;stroke-width:1.5;"/>
   </g>
   <g id="line2d_51">
    <path clip-path="url(#pcd72b6409f)" d="M 140.367568 136.047568 
L 141.171892 136.087784 
L 143.222919 136.489946 
L 145.354378 137.575784 
L 146.963027 139.063784 
L 148.571676 141.356108 
L 150.622703 144.73427 
L 152.110703 146.584216 
L 153.799784 148.192865 
L 158.867027 152.415568 
L 161.722378 155.230703 
L 171.012324 164.882595 
L 178.291459 172.282378 
L 210.303568 205.018378 
L 216.416432 211.251892 
L 223.695568 218.732108 
L 230.572541 225.72973 
L 234.956108 230.233946 
L 237.409297 232.727351 
L 238.97773 234.255568 
L 238.857081 234.215351 
L 244.366703 235.663135 
L 245.814486 236.266378 
L 246.980757 237.030486 
L 247.503568 237.513081 
L 247.543784 237.714162 
L 247.423135 238.317405 
L 246.900324 239.242378 
L 245.653622 240.569514 
L 243.763459 241.816216 
L 240.264649 243.545514 
L 239.098378 244.43027 
L 239.098378 244.43027 
L 237.972324 246.079135 
L 237.328865 247.768216 
L 236.926703 249.53773 
L 236.564757 252.956108 
L 236.604973 254.886486 
L 236.926703 256.575568 
L 237.369081 257.741838 
L 238.33427 259.149405 
L 239.138595 259.873297 
L 240.144 260.516757 
L 241.189622 260.878703 
L 242.516757 261.12 
L 243.763459 261.12 
L 244.92973 260.918919 
L 246.297081 260.476541 
L 247.463351 259.913514 
L 248.549189 259.189622 
L 249.39373 258.46573 
L 250.519784 257.259243 
L 251.484973 255.851676 
L 252.329514 254.202811 
L 252.812108 252.996324 
L 253.294703 251.106162 
L 253.415351 250.583351 
L 253.415351 250.583351 
" style="fill:none;stroke:#ff8a48;stroke-linecap:square;stroke-width:1.5;"/>
   </g>
   <g id="line2d_52">
    <path clip-path="url(#pcd72b6409f)" d="M 337.427027 164.198919 
L 337.668324 164.279351 
L 337.869405 164.72173 
L 338.03027 166.249946 
L 337.748757 168.421622 
L 336.904216 170.512865 
L 335.737946 172.041081 
L 334.008649 173.529081 
L 332.520649 174.655135 
L 331.032649 175.942054 
L 329.625081 177.792 
L 327.936 181.733189 
L 326.809946 183.663568 
L 325.321946 185.272216 
L 321.782919 188.208 
L 320.415568 189.816649 
L 319.571027 191.344865 
L 318.766703 193.114378 
L 317.560216 195.245838 
L 316.192865 196.975135 
L 311.769081 201.238054 
L 310.441946 203.168432 
L 308.27027 207.149838 
L 307.023568 208.959568 
L 304.087784 212.136649 
L 302.278054 214.107243 
L 301.031351 215.796324 
L 298.578162 219.616865 
L 295.843459 223.276541 
L 293.350054 226.413405 
L 292.224 228.182919 
L 290.937081 230.515459 
L 289.087135 234.376216 
L 288.08173 236.306595 
L 286.754595 238.357622 
L 285.467676 240.086919 
L 284.019892 241.735784 
L 282.250378 243.424865 
L 278.711351 246.320432 
L 275.132108 249.135568 
L 272.316973 251.548541 
L 271.392 251.267027 
L 269.059459 250.181189 
L 267.370378 249.577946 
L 265.600865 249.457297 
L 264.836757 249.658378 
L 261.780324 251.146378 
L 260.412973 251.468108 
L 258.603243 251.347459 
L 256.471784 250.744216 
L 254.219676 249.819243 
L 252.128432 249.417081 
L 250.962162 249.417081 
L 249.755676 249.738811 
L 248.589405 250.342054 
L 247.141622 251.669189 
L 245.894919 253.559351 
L 243.562378 259.591784 
L 242.476541 261.481946 
L 241.229838 263.251459 
L 238.414703 266.508973 
L 236.806054 268.157838 
L 235.35827 269.444757 
L 233.789838 270.530595 
L 231.819243 271.455568 
L 229.728 272.099027 
L 227.636757 272.581622 
L 225.58573 273.184865 
L 223.896649 273.948973 
L 222.207568 275.115243 
L 220.719568 276.643459 
L 219.593514 278.091243 
L 218.266378 280.061838 
L 214.888216 285.812757 
L 212.837189 289.874595 
L 211.027459 293.815784 
L 201.496216 315.331459 
L 196.509405 326.471351 
L 182.473946 358.081297 
L 180.583784 362.223568 
L 176.521946 371.433081 
L 169.04173 388.203243 
L 169.04173 388.203243 
" style="fill:none;stroke:#ff4824;stroke-linecap:square;stroke-width:1.5;"/>
   </g>
   <g id="line2d_53">
    <path clip-path="url(#pcd72b6409f)" d="M 196.67027 445.712432 
L 197.394162 445.712432 
L 199.324541 445.390703 
L 200.973405 444.666811 
L 202.783135 443.259243 
L 204.11027 441.369081 
L 204.834162 439.157189 
L 205.115676 436.663784 
L 205.59827 434.411676 
L 206.764541 432.159568 
L 208.292757 430.550919 
L 210.504649 429.062919 
L 212.113297 427.816216 
L 213.480649 425.96627 
L 214.204541 424.076108 
L 214.807784 419.652324 
L 215.652324 417.601297 
L 217.260973 415.670919 
L 222.207568 411.810162 
L 223.293405 410.080865 
L 224.017297 408.11027 
L 224.459676 406.059243 
L 225.58573 403.324541 
L 226.953081 401.555027 
L 230.773622 398.377946 
L 232.060541 396.809514 
L 232.985514 394.71827 
L 233.749622 390.535784 
L 234.634378 388.484757 
L 236.041946 386.755459 
L 239.339676 384.020757 
L 240.707027 382.170811 
L 241.471135 380.280649 
L 241.95373 377.948108 
L 242.677622 375.535135 
L 243.723243 373.88627 
L 245.251459 372.277622 
L 246.860108 370.870054 
L 248.147027 369.583135 
L 249.192649 367.853838 
L 249.876324 365.843027 
L 250.439351 363.510486 
L 251.243676 361.419243 
L 252.36973 359.810595 
L 256.954378 355.266162 
L 257.879351 353.456432 
L 259.16627 349.072865 
L 260.091243 347.062054 
L 261.458595 345.292541 
L 264.957405 341.874162 
L 266.123676 340.185081 
L 267.129081 338.013405 
L 267.812757 336.083027 
L 268.777946 333.790703 
L 269.984432 331.940757 
L 276.057081 325.506162 
L 277.786378 323.334486 
L 279.314595 321.846486 
L 281.446054 320.559568 
L 284.180757 319.916108 
L 288.162162 320.157405 
L 289.730595 319.916108 
L 290.695784 319.513946 
L 291.178378 319.152 
L 291.862054 318.186811 
L 292.143568 317.664 
L 292.706595 316.899892 
L 293.551135 316.135784 
L 294.797838 315.492324 
L 296.527135 315.090162 
L 299.141189 315.00973 
L 299.623784 315.090162 
L 300.106378 315.411892 
L 300.709622 316.135784 
L 301.312865 317.422703 
L 301.674811 319.353081 
L 301.875892 321.122595 
L 302.237838 323.012757 
L 302.117189 322.892108 
L 301.956324 322.811676 
L 302.278054 322.771459 
L 303.001946 322.489946 
L 304.409514 321.484541 
L 305.736649 319.956324 
L 306.540973 318.387892 
L 307.506162 316.095568 
L 308.27027 314.728216 
L 308.953946 314.004324 
L 309.838703 313.481514 
L 311.366919 313.240216 
L 313.015784 313.441297 
L 315.026595 314.084757 
L 315.066811 314.124973 
L 314.986378 314.124973 
L 314.785297 314.165189 
L 315.026595 313.964108 
L 315.348324 313.481514 
L 315.670054 312.677189 
L 315.71027 311.832649 
L 315.468973 310.787027 
L 314.785297 309.379459 
L 311.769081 305.357838 
L 311.366919 304.191568 
L 311.366919 303.186162 
L 311.688649 302.140541 
L 313.136432 299.365622 
L 313.136432 298.561297 
L 312.774486 297.113514 
L 311.929946 295.344 
L 310.683243 293.574486 
L 309.75827 292.04627 
L 309.155027 290.719135 
L 309.155027 290.156108 
L 309.516973 289.030054 
L 310.281081 287.783351 
L 312.533189 285.129081 
L 312.492973 285.330162 
L 312.412541 284.968216 
L 311.688649 283.520432 
L 310.602811 282.233514 
L 309.195243 280.906378 
L 308.109405 279.458595 
L 307.787676 278.332541 
L 307.787676 276.844541 
L 308.431135 274.632649 
L 309.557189 272.662054 
L 310.964757 270.691459 
L 312.090811 268.921946 
L 312.975568 266.790486 
L 313.458162 264.699243 
L 313.779892 262.608 
L 314.302703 260.154811 
L 315.107027 258.103784 
L 316.032 256.454919 
L 322.386162 247.004108 
L 324.396973 243.58573 
L 326.850162 240.046703 
L 336.300973 227.660108 
L 340.000865 221.868973 
L 343.901838 214.428973 
L 347.360432 206.425946 
L 349.93427 200.232649 
L 352.266811 195.125189 
L 354.39827 190.86227 
L 359.063351 183.020108 
L 368.956541 168.059676 
L 370.645622 165.445622 
L 372.736865 162.348973 
L 375.833514 157.965405 
L 382.026811 150.002595 
L 387.456 143.366919 
L 393.166703 136.610595 
L 393.166703 136.610595 
" style="fill:none;stroke:#ff0000;stroke-linecap:square;stroke-width:1.5;"/>
   </g>
   <g id="patch_3">
    <path d="M 72 512.64 
L 72 69.12 
" style="fill:none;stroke:#000000;stroke-linecap:square;stroke-linejoin:miter;stroke-width:0.8;"/>
   </g>
   <g id="patch_4">
    <path d="M 518.4 512.64 
L 518.4 69.12 
" style="fill:none;stroke:#000000;stroke-linecap:square;stroke-linejoin:miter;stroke-width:0.8;"/>
   </g>
   <g id="patch_5">
    <path d="M 72 512.64 
L 518.4 512.64 
" style="fill:none;stroke:#000000;stroke-linecap:square;stroke-linejoin:miter;stroke-width:0.8;"/>
   </g>
   <g id="patch_6">
    <path d="M 72 69.12 
L 518.4 69.12 
" style="fill:none;stroke:#000000;stroke-linecap:square;stroke-linejoin:miter;stroke-width:0.8;"/>
   </g>
   <g id="text_13">
    <!-- 1 -->
    <defs>
     <path d="M 14.203125 0 
L 14.203125 5.171875 
L 26.90625 5.171875 
L 26.90625 65.828125 
L 12.203125 56.296875 
L 12.203125 62.703125 
L 29.984375 74.21875 
L 36.71875 74.21875 
L 36.71875 5.171875 
L 49.421875 5.171875 
L 49.421875 0 
z
" id="DejaVuSerif-31"/>
    </defs>
    <g transform="translate(137.186318 389.40973)scale(0.1 -0.1)">
     <use xlink:href="#DejaVuSerif-31"/>
    </g>
   </g>
   <g id="text_14">
    <!-- 1 -->
    <g transform="translate(390.54848 192.35027)scale(0.1 -0.1)">
     <use xlink:href="#DejaVuSerif-31"/>
    </g>
   </g>
   <g id="text_15">
    <!-- 2 -->
    <defs>
     <path d="M 12.796875 55.515625 
L 7.328125 55.515625 
L 7.328125 68.5 
Q 12.546875 71.296875 17.84375 72.75 
Q 23.140625 74.21875 28.21875 74.21875 
Q 39.59375 74.21875 46.1875 68.703125 
Q 52.78125 63.1875 52.78125 53.71875 
Q 52.78125 43.015625 37.84375 28.125 
Q 36.671875 27 36.078125 26.421875 
L 17.671875 8.015625 
L 48.09375 8.015625 
L 48.09375 17 
L 53.8125 17 
L 53.8125 0 
L 6.78125 0 
L 6.78125 5.328125 
L 28.90625 27.390625 
Q 36.234375 34.71875 39.359375 40.84375 
Q 42.484375 46.96875 42.484375 53.71875 
Q 42.484375 61.078125 38.640625 65.234375 
Q 34.8125 69.390625 28.078125 69.390625 
Q 21.09375 69.390625 17.28125 65.921875 
Q 13.484375 62.453125 12.796875 55.515625 
z
" id="DejaVuSerif-32"/>
    </defs>
    <g transform="translate(446.851182 192.35027)scale(0.1 -0.1)">
     <use xlink:href="#DejaVuSerif-32"/>
    </g>
   </g>
   <g id="text_16">
    <!-- 2 -->
    <g transform="translate(221.640372 361.258378)scale(0.1 -0.1)">
     <use xlink:href="#DejaVuSerif-32"/>
    </g>
   </g>
   <g id="text_17">
    <!-- 3 -->
    <defs>
     <path d="M 9.71875 69.828125 
Q 15.4375 71.96875 20.671875 73.09375 
Q 25.921875 74.21875 30.515625 74.21875 
Q 41.21875 74.21875 47.21875 69.59375 
Q 53.21875 64.984375 53.21875 56.78125 
Q 53.21875 50.203125 49.0625 45.78125 
Q 44.921875 41.359375 37.3125 39.796875 
Q 46.296875 38.53125 51.25 33.28125 
Q 56.203125 28.03125 56.203125 19.671875 
Q 56.203125 9.46875 49.34375 4.015625 
Q 42.484375 -1.421875 29.59375 -1.421875 
Q 23.875 -1.421875 18.421875 -0.1875 
Q 12.984375 1.03125 7.625 3.515625 
L 7.625 17.671875 
L 13.09375 17.671875 
Q 13.578125 10.640625 17.828125 7.03125 
Q 22.078125 3.421875 29.78125 3.421875 
Q 37.25 3.421875 41.578125 7.734375 
Q 45.90625 12.0625 45.90625 19.578125 
Q 45.90625 28.171875 41.453125 32.59375 
Q 37.015625 37.015625 28.421875 37.015625 
L 23.78125 37.015625 
L 23.78125 42 
L 26.21875 42 
Q 34.765625 42 39.03125 45.53125 
Q 43.3125 49.078125 43.3125 56.203125 
Q 43.3125 62.59375 39.796875 65.984375 
Q 36.28125 69.390625 29.6875 69.390625 
Q 23.09375 69.390625 19.453125 66.265625 
Q 15.828125 63.140625 15.1875 56.984375 
L 9.71875 56.984375 
z
" id="DejaVuSerif-33"/>
    </defs>
    <g transform="translate(398.993885 440.082162)scale(0.1 -0.1)">
     <use xlink:href="#DejaVuSerif-33"/>
    </g>
   </g>
   <g id="text_18">
    <!-- 3 -->
    <g transform="translate(221.640372 192.35027)scale(0.1 -0.1)">
     <use xlink:href="#DejaVuSerif-33"/>
    </g>
   </g>
   <g id="text_19">
    <!-- 4 -->
    <defs>
     <path d="M 34.90625 24.703125 
L 34.90625 63.484375 
L 10.015625 24.703125 
z
M 56.390625 0 
L 23.1875 0 
L 23.1875 5.171875 
L 34.90625 5.171875 
L 34.90625 19.484375 
L 3.078125 19.484375 
L 3.078125 24.8125 
L 35.015625 74.21875 
L 44.671875 74.21875 
L 44.671875 24.703125 
L 58.59375 24.703125 
L 58.59375 19.484375 
L 44.671875 19.484375 
L 44.671875 5.171875 
L 56.390625 5.171875 
z
" id="DejaVuSerif-34"/>
    </defs>
    <g transform="translate(221.640372 136.047568)scale(0.1 -0.1)">
     <use xlink:href="#DejaVuSerif-34"/>
    </g>
   </g>
   <g id="text_20">
    <!-- 4 -->
    <g transform="translate(390.54848 361.258378)scale(0.1 -0.1)">
     <use xlink:href="#DejaVuSerif-34"/>
    </g>
   </g>
   <g id="text_21">
    <!-- 5 -->
    <defs>
     <path d="M 50.296875 72.90625 
L 50.296875 64.890625 
L 16.890625 64.890625 
L 16.890625 44 
Q 19.4375 45.75 22.828125 46.625 
Q 26.21875 47.515625 30.421875 47.515625 
Q 42.234375 47.515625 49.0625 40.96875 
Q 55.90625 34.421875 55.90625 23.09375 
Q 55.90625 11.53125 49 5.046875 
Q 42.09375 -1.421875 29.59375 -1.421875 
Q 24.5625 -1.421875 19.28125 -0.1875 
Q 14.015625 1.03125 8.5 3.515625 
L 8.5 17.671875 
L 14.015625 17.671875 
Q 14.453125 10.75 18.421875 7.078125 
Q 22.40625 3.421875 29.59375 3.421875 
Q 37.3125 3.421875 41.453125 8.5 
Q 45.609375 13.578125 45.609375 23.09375 
Q 45.609375 32.5625 41.484375 37.609375 
Q 37.359375 42.671875 29.59375 42.671875 
Q 25.203125 42.671875 21.84375 41.109375 
Q 18.5 39.546875 15.921875 36.28125 
L 11.71875 36.28125 
L 11.71875 72.90625 
z
" id="DejaVuSerif-35"/>
    </defs>
    <g transform="translate(446.851182 304.955676)scale(0.1 -0.1)">
     <use xlink:href="#DejaVuSerif-35"/>
    </g>
   </g>
   <g id="text_22">
    <!-- 5 -->
    <g transform="translate(193.48902 248.652973)scale(0.1 -0.1)">
     <use xlink:href="#DejaVuSerif-35"/>
    </g>
   </g>
   <g id="text_23">
    <!-- 6 -->
    <defs>
     <path d="M 32.71875 3.421875 
Q 39.59375 3.421875 43.296875 8.46875 
Q 47.015625 13.53125 47.015625 23 
Q 47.015625 32.46875 43.296875 37.515625 
Q 39.59375 42.578125 32.71875 42.578125 
Q 25.734375 42.578125 22.0625 37.6875 
Q 18.40625 32.8125 18.40625 23.578125 
Q 18.40625 13.875 22.109375 8.640625 
Q 25.828125 3.421875 32.71875 3.421875 
z
M 16.796875 40.140625 
Q 20.125 43.796875 24.3125 45.59375 
Q 28.515625 47.40625 33.796875 47.40625 
Q 44.671875 47.40625 51 40.859375 
Q 57.328125 34.328125 57.328125 23 
Q 57.328125 11.921875 50.515625 5.25 
Q 43.703125 -1.421875 32.328125 -1.421875 
Q 19.96875 -1.421875 13.328125 7.78125 
Q 6.6875 17 6.6875 34.078125 
Q 6.6875 53.21875 14.546875 63.71875 
Q 22.40625 74.21875 36.71875 74.21875 
Q 40.578125 74.21875 44.828125 73.484375 
Q 49.078125 72.75 53.515625 71.296875 
L 53.515625 59.28125 
L 48 59.28125 
Q 47.40625 64.203125 44.234375 66.796875 
Q 41.0625 69.390625 35.6875 69.390625 
Q 26.21875 69.390625 21.578125 62.203125 
Q 16.9375 55.03125 16.796875 40.140625 
z
" id="DejaVuSerif-36"/>
    </defs>
    <g transform="translate(137.186318 248.652973)scale(0.1 -0.1)">
     <use xlink:href="#DejaVuSerif-36"/>
    </g>
   </g>
   <g id="text_24">
    <!-- 6 -->
    <g transform="translate(390.54848 276.804324)scale(0.1 -0.1)">
     <use xlink:href="#DejaVuSerif-36"/>
    </g>
   </g>
   <g id="text_25">
    <!-- 7 -->
    <defs>
     <path d="M 56.390625 67.921875 
L 27.875 0 
L 20.609375 0 
L 47.796875 64.890625 
L 14.109375 64.890625 
L 14.109375 55.90625 
L 8.40625 55.90625 
L 8.40625 72.90625 
L 56.390625 72.90625 
z
" id="DejaVuSerif-37"/>
    </defs>
    <g transform="translate(277.943074 192.35027)scale(0.1 -0.1)">
     <use xlink:href="#DejaVuSerif-37"/>
    </g>
   </g>
   <g id="text_26">
    <!-- 7 -->
    <g transform="translate(277.943074 333.107027)scale(0.1 -0.1)">
     <use xlink:href="#DejaVuSerif-37"/>
    </g>
   </g>
   <g id="text_27">
    <!-- 8 -->
    <defs>
     <path d="M 46.578125 19.921875 
Q 46.578125 27.734375 42.6875 32.046875 
Q 38.8125 36.375 31.78125 36.375 
Q 24.75 36.375 20.875 32.046875 
Q 17 27.734375 17 19.921875 
Q 17 12.0625 20.875 7.734375 
Q 24.75 3.421875 31.78125 3.421875 
Q 38.8125 3.421875 42.6875 7.734375 
Q 46.578125 12.0625 46.578125 19.921875 
z
M 44.578125 55.328125 
Q 44.578125 61.96875 41.203125 65.671875 
Q 37.84375 69.390625 31.78125 69.390625 
Q 25.78125 69.390625 22.390625 65.671875 
Q 19 61.96875 19 55.328125 
Q 19 48.640625 22.390625 44.921875 
Q 25.78125 41.21875 31.78125 41.21875 
Q 37.84375 41.21875 41.203125 44.921875 
Q 44.578125 48.640625 44.578125 55.328125 
z
M 39.3125 38.8125 
Q 47.609375 37.703125 52.25 32.6875 
Q 56.890625 27.6875 56.890625 19.921875 
Q 56.890625 9.671875 50.390625 4.125 
Q 43.890625 -1.421875 31.78125 -1.421875 
Q 19.734375 -1.421875 13.203125 4.125 
Q 6.6875 9.671875 6.6875 19.921875 
Q 6.6875 27.6875 11.328125 32.6875 
Q 15.96875 37.703125 24.3125 38.8125 
Q 16.9375 40.140625 13 44.40625 
Q 9.078125 48.6875 9.078125 55.328125 
Q 9.078125 64.109375 15.125 69.15625 
Q 21.1875 74.21875 31.78125 74.21875 
Q 42.390625 74.21875 48.4375 69.15625 
Q 54.5 64.109375 54.5 55.328125 
Q 54.5 48.6875 50.5625 44.40625 
Q 46.625 40.140625 39.3125 38.8125 
z
" id="DejaVuSerif-38"/>
    </defs>
    <g transform="translate(137.186318 304.955676)scale(0.1 -0.1)">
     <use xlink:href="#DejaVuSerif-38"/>
    </g>
   </g>
   <g id="text_28">
    <!-- 8 -->
    <g transform="translate(306.094426 276.804324)scale(0.1 -0.1)">
     <use xlink:href="#DejaVuSerif-38"/>
    </g>
   </g>
   <g id="text_29">
    <!-- 9 -->
    <defs>
     <path d="M 46.78125 32.671875 
Q 43.5 29 39.25 27.1875 
Q 35.015625 25.390625 29.6875 25.390625 
Q 18.84375 25.390625 12.5625 31.9375 
Q 6.296875 38.484375 6.296875 49.8125 
Q 6.296875 60.890625 13.109375 67.546875 
Q 19.921875 74.21875 31.296875 74.21875 
Q 43.65625 74.21875 50.265625 65.015625 
Q 56.890625 55.8125 56.890625 38.71875 
Q 56.890625 19.578125 49.015625 9.078125 
Q 41.15625 -1.421875 26.90625 -1.421875 
Q 23.046875 -1.421875 18.796875 -0.6875 
Q 14.546875 0.046875 10.109375 1.515625 
L 10.109375 13.625 
L 15.578125 13.625 
Q 16.21875 8.6875 19.390625 6.046875 
Q 22.5625 3.421875 27.875 3.421875 
Q 37.359375 3.421875 41.984375 10.5625 
Q 46.625 17.71875 46.78125 32.671875 
z
M 30.90625 69.390625 
Q 23.96875 69.390625 20.28125 64.328125 
Q 16.609375 59.28125 16.609375 49.8125 
Q 16.609375 40.328125 20.28125 35.25 
Q 23.96875 30.171875 30.90625 30.171875 
Q 37.84375 30.171875 41.53125 35.078125 
Q 45.21875 39.984375 45.21875 49.21875 
Q 45.21875 58.9375 41.5 64.15625 
Q 37.796875 69.390625 30.90625 69.390625 
z
" id="DejaVuSerif-39"/>
    </defs>
    <g transform="translate(390.54848 220.501622)scale(0.1 -0.1)">
     <use xlink:href="#DejaVuSerif-39"/>
    </g>
   </g>
   <g id="text_30">
    <!-- 9 -->
    <g transform="translate(137.186318 276.804324)scale(0.1 -0.1)">
     <use xlink:href="#DejaVuSerif-39"/>
    </g>
   </g>
   <g id="text_31">
    <!-- 10 -->
    <defs>
     <path d="M 31.78125 3.421875 
Q 39.265625 3.421875 42.96875 11.625 
Q 46.6875 19.828125 46.6875 36.375 
Q 46.6875 52.984375 42.96875 61.1875 
Q 39.265625 69.390625 31.78125 69.390625 
Q 24.3125 69.390625 20.59375 61.1875 
Q 16.890625 52.984375 16.890625 36.375 
Q 16.890625 19.828125 20.59375 11.625 
Q 24.3125 3.421875 31.78125 3.421875 
z
M 31.78125 -1.421875 
Q 19.921875 -1.421875 13.25 8.53125 
Q 6.59375 18.5 6.59375 36.375 
Q 6.59375 54.296875 13.25 64.25 
Q 19.921875 74.21875 31.78125 74.21875 
Q 43.703125 74.21875 50.34375 64.25 
Q 56.984375 54.296875 56.984375 36.375 
Q 56.984375 18.5 50.34375 8.53125 
Q 43.703125 -1.421875 31.78125 -1.421875 
z
" id="DejaVuSerif-30"/>
    </defs>
    <g transform="translate(134.005068 136.047568)scale(0.1 -0.1)">
     <use xlink:href="#DejaVuSerif-31"/>
     <use x="63.623047" xlink:href="#DejaVuSerif-30"/>
    </g>
   </g>
   <g id="text_32">
    <!-- 10 -->
    <g transform="translate(246.610473 248.652973)scale(0.1 -0.1)">
     <use xlink:href="#DejaVuSerif-31"/>
     <use x="63.623047" xlink:href="#DejaVuSerif-30"/>
    </g>
   </g>
   <g id="text_33">
    <!-- 11 -->
    <g transform="translate(331.064527 164.198919)scale(0.1 -0.1)">
     <use xlink:href="#DejaVuSerif-31"/>
     <use x="63.623047" xlink:href="#DejaVuSerif-31"/>
    </g>
   </g>
   <g id="text_34">
    <!-- 11 -->
    <g transform="translate(162.156419 389.40973)scale(0.1 -0.1)">
     <use xlink:href="#DejaVuSerif-31"/>
     <use x="63.623047" xlink:href="#DejaVuSerif-31"/>
    </g>
   </g>
   <g id="text_35">
    <!-- 12 -->
    <g transform="translate(190.30777 445.712432)scale(0.1 -0.1)">
     <use xlink:href="#DejaVuSerif-31"/>
     <use x="63.623047" xlink:href="#DejaVuSerif-32"/>
    </g>
   </g>
   <g id="text_36">
    <!-- 12 -->
    <g transform="translate(387.36723 136.047568)scale(0.1 -0.1)">
     <use xlink:href="#DejaVuSerif-31"/>
     <use x="63.623047" xlink:href="#DejaVuSerif-32"/>
    </g>
   </g>
   <g id="text_37">
    <!-- MRPP -->
    <defs>
     <path d="M 9.8125 72.90625 
L 24.515625 72.90625 
L 43.109375 23.296875 
L 61.8125 72.90625 
L 76.515625 72.90625 
L 76.515625 0 
L 66.890625 0 
L 66.890625 64.015625 
L 48.09375 14.015625 
L 38.1875 14.015625 
L 19.390625 64.015625 
L 19.390625 0 
L 9.8125 0 
z
" id="DejaVuSans-4d"/>
     <path d="M 44.390625 34.1875 
Q 47.5625 33.109375 50.5625 29.59375 
Q 53.5625 26.078125 56.59375 19.921875 
L 66.609375 0 
L 56 0 
L 46.6875 18.703125 
Q 43.0625 26.03125 39.671875 28.421875 
Q 36.28125 30.8125 30.421875 30.8125 
L 19.671875 30.8125 
L 19.671875 0 
L 9.8125 0 
L 9.8125 72.90625 
L 32.078125 72.90625 
Q 44.578125 72.90625 50.734375 67.671875 
Q 56.890625 62.453125 56.890625 51.90625 
Q 56.890625 45.015625 53.6875 40.46875 
Q 50.484375 35.9375 44.390625 34.1875 
z
M 19.671875 64.796875 
L 19.671875 38.921875 
L 32.078125 38.921875 
Q 39.203125 38.921875 42.84375 42.21875 
Q 46.484375 45.515625 46.484375 51.90625 
Q 46.484375 58.296875 42.84375 61.546875 
Q 39.203125 64.796875 32.078125 64.796875 
z
" id="DejaVuSans-52"/>
     <path d="M 19.671875 64.796875 
L 19.671875 37.40625 
L 32.078125 37.40625 
Q 38.96875 37.40625 42.71875 40.96875 
Q 46.484375 44.53125 46.484375 51.125 
Q 46.484375 57.671875 42.71875 61.234375 
Q 38.96875 64.796875 32.078125 64.796875 
z
M 9.8125 72.90625 
L 32.078125 72.90625 
Q 44.34375 72.90625 50.609375 67.359375 
Q 56.890625 61.8125 56.890625 51.125 
Q 56.890625 40.328125 50.609375 34.8125 
Q 44.34375 29.296875 32.078125 29.296875 
L 19.671875 29.296875 
L 19.671875 0 
L 9.8125 0 
z
" id="DejaVuSans-50"/>
    </defs>
    <g transform="translate(278.618437 63.12)scale(0.12 -0.12)">
     <use xlink:href="#DejaVuSans-4d"/>
     <use x="86.279297" xlink:href="#DejaVuSans-52"/>
     <use x="155.761719" xlink:href="#DejaVuSans-50"/>
     <use x="216.064453" xlink:href="#DejaVuSans-50"/>
    </g>
   </g>
  </g>
 </g>
 <defs>
  <clipPath id="pcd72b6409f">
   <rect height="443.52" width="446.4" x="72" y="69.12"/>
  </clipPath>
 </defs>
</svg>
