<?xml version="1.0" encoding="utf-8" standalone="no"?>
<!DOCTYPE svg PUBLIC "-//W3C//DTD SVG 1.1//EN"
  "http://www.w3.org/Graphics/SVG/1.1/DTD/svg11.dtd">
<!-- Created with matplotlib (http://matplotlib.org/) -->
<svg height="576pt" version="1.1" viewBox="0 0 576 576" width="576pt" xmlns="http://www.w3.org/2000/svg" xmlns:xlink="http://www.w3.org/1999/xlink">
 <defs>
  <style type="text/css">
*{stroke-linecap:butt;stroke-linejoin:round;}
  </style>
 </defs>
 <g id="figure_1">
  <g id="patch_1">
   <path d="M 0 576 
L 576 576 
L 576 0 
L 0 0 
z
" style="fill:#ffffff;"/>
  </g>
  <g id="axes_1">
   <g id="patch_2">
    <path d="M 72 512.64 
L 518.4 512.64 
L 518.4 69.12 
L 72 69.12 
z
" style="fill:#ffffff;"/>
   </g>
   <g id="matplotlib.axis_1">
    <g id="xtick_1">
     <g id="line2d_1">
      <defs>
       <path d="M 0 0 
L 0 3.5 
" id="m0453f9c688" style="stroke:#000000;stroke-width:0.8;"/>
      </defs>
      <g>
       <use style="stroke:#000000;stroke-width:0.8;" x="112.216216" xlink:href="#m0453f9c688" y="512.64"/>
      </g>
     </g>
     <g id="text_1">
      <!-- 0 -->
      <defs>
       <path d="M 31.78125 66.40625 
Q 24.171875 66.40625 20.328125 58.90625 
Q 16.5 51.421875 16.5 36.375 
Q 16.5 21.390625 20.328125 13.890625 
Q 24.171875 6.390625 31.78125 6.390625 
Q 39.453125 6.390625 43.28125 13.890625 
Q 47.125 21.390625 47.125 36.375 
Q 47.125 51.421875 43.28125 58.90625 
Q 39.453125 66.40625 31.78125 66.40625 
z
M 31.78125 74.21875 
Q 44.046875 74.21875 50.515625 64.515625 
Q 56.984375 54.828125 56.984375 36.375 
Q 56.984375 17.96875 50.515625 8.265625 
Q 44.046875 -1.421875 31.78125 -1.421875 
Q 19.53125 -1.421875 13.0625 8.265625 
Q 6.59375 17.96875 6.59375 36.375 
Q 6.59375 54.828125 13.0625 64.515625 
Q 19.53125 74.21875 31.78125 74.21875 
z
" id="DejaVuSans-30"/>
      </defs>
      <g transform="translate(109.034966 527.238438)scale(0.1 -0.1)">
       <use xlink:href="#DejaVuSans-30"/>
      </g>
     </g>
    </g>
    <g id="xtick_2">
     <g id="line2d_2">
      <g>
       <use style="stroke:#000000;stroke-width:0.8;" x="192.648649" xlink:href="#m0453f9c688" y="512.64"/>
      </g>
     </g>
     <g id="text_2">
      <!-- 2 -->
      <defs>
       <path d="M 19.1875 8.296875 
L 53.609375 8.296875 
L 53.609375 0 
L 7.328125 0 
L 7.328125 8.296875 
Q 12.9375 14.109375 22.625 23.890625 
Q 32.328125 33.6875 34.8125 36.53125 
Q 39.546875 41.84375 41.421875 45.53125 
Q 43.3125 49.21875 43.3125 52.78125 
Q 43.3125 58.59375 39.234375 62.25 
Q 35.15625 65.921875 28.609375 65.921875 
Q 23.96875 65.921875 18.8125 64.3125 
Q 13.671875 62.703125 7.8125 59.421875 
L 7.8125 69.390625 
Q 13.765625 71.78125 18.9375 73 
Q 24.125 74.21875 28.421875 74.21875 
Q 39.75 74.21875 46.484375 68.546875 
Q 53.21875 62.890625 53.21875 53.421875 
Q 53.21875 48.921875 51.53125 44.890625 
Q 49.859375 40.875 45.40625 35.40625 
Q 44.1875 33.984375 37.640625 27.21875 
Q 31.109375 20.453125 19.1875 8.296875 
z
" id="DejaVuSans-32"/>
      </defs>
      <g transform="translate(189.467399 527.238438)scale(0.1 -0.1)">
       <use xlink:href="#DejaVuSans-32"/>
      </g>
     </g>
    </g>
    <g id="xtick_3">
     <g id="line2d_3">
      <g>
       <use style="stroke:#000000;stroke-width:0.8;" x="273.081081" xlink:href="#m0453f9c688" y="512.64"/>
      </g>
     </g>
     <g id="text_3">
      <!-- 4 -->
      <defs>
       <path d="M 37.796875 64.3125 
L 12.890625 25.390625 
L 37.796875 25.390625 
z
M 35.203125 72.90625 
L 47.609375 72.90625 
L 47.609375 25.390625 
L 58.015625 25.390625 
L 58.015625 17.1875 
L 47.609375 17.1875 
L 47.609375 0 
L 37.796875 0 
L 37.796875 17.1875 
L 4.890625 17.1875 
L 4.890625 26.703125 
z
" id="DejaVuSans-34"/>
      </defs>
      <g transform="translate(269.899831 527.238438)scale(0.1 -0.1)">
       <use xlink:href="#DejaVuSans-34"/>
      </g>
     </g>
    </g>
    <g id="xtick_4">
     <g id="line2d_4">
      <g>
       <use style="stroke:#000000;stroke-width:0.8;" x="353.513514" xlink:href="#m0453f9c688" y="512.64"/>
      </g>
     </g>
     <g id="text_4">
      <!-- 6 -->
      <defs>
       <path d="M 33.015625 40.375 
Q 26.375 40.375 22.484375 35.828125 
Q 18.609375 31.296875 18.609375 23.390625 
Q 18.609375 15.53125 22.484375 10.953125 
Q 26.375 6.390625 33.015625 6.390625 
Q 39.65625 6.390625 43.53125 10.953125 
Q 47.40625 15.53125 47.40625 23.390625 
Q 47.40625 31.296875 43.53125 35.828125 
Q 39.65625 40.375 33.015625 40.375 
z
M 52.59375 71.296875 
L 52.59375 62.3125 
Q 48.875 64.0625 45.09375 64.984375 
Q 41.3125 65.921875 37.59375 65.921875 
Q 27.828125 65.921875 22.671875 59.328125 
Q 17.53125 52.734375 16.796875 39.40625 
Q 19.671875 43.65625 24.015625 45.921875 
Q 28.375 48.1875 33.59375 48.1875 
Q 44.578125 48.1875 50.953125 41.515625 
Q 57.328125 34.859375 57.328125 23.390625 
Q 57.328125 12.15625 50.6875 5.359375 
Q 44.046875 -1.421875 33.015625 -1.421875 
Q 20.359375 -1.421875 13.671875 8.265625 
Q 6.984375 17.96875 6.984375 36.375 
Q 6.984375 53.65625 15.1875 63.9375 
Q 23.390625 74.21875 37.203125 74.21875 
Q 40.921875 74.21875 44.703125 73.484375 
Q 48.484375 72.75 52.59375 71.296875 
z
" id="DejaVuSans-36"/>
      </defs>
      <g transform="translate(350.332264 527.238438)scale(0.1 -0.1)">
       <use xlink:href="#DejaVuSans-36"/>
      </g>
     </g>
    </g>
    <g id="xtick_5">
     <g id="line2d_5">
      <g>
       <use style="stroke:#000000;stroke-width:0.8;" x="433.945946" xlink:href="#m0453f9c688" y="512.64"/>
      </g>
     </g>
     <g id="text_5">
      <!-- 8 -->
      <defs>
       <path d="M 31.78125 34.625 
Q 24.75 34.625 20.71875 30.859375 
Q 16.703125 27.09375 16.703125 20.515625 
Q 16.703125 13.921875 20.71875 10.15625 
Q 24.75 6.390625 31.78125 6.390625 
Q 38.8125 6.390625 42.859375 10.171875 
Q 46.921875 13.96875 46.921875 20.515625 
Q 46.921875 27.09375 42.890625 30.859375 
Q 38.875 34.625 31.78125 34.625 
z
M 21.921875 38.8125 
Q 15.578125 40.375 12.03125 44.71875 
Q 8.5 49.078125 8.5 55.328125 
Q 8.5 64.0625 14.71875 69.140625 
Q 20.953125 74.21875 31.78125 74.21875 
Q 42.671875 74.21875 48.875 69.140625 
Q 55.078125 64.0625 55.078125 55.328125 
Q 55.078125 49.078125 51.53125 44.71875 
Q 48 40.375 41.703125 38.8125 
Q 48.828125 37.15625 52.796875 32.3125 
Q 56.78125 27.484375 56.78125 20.515625 
Q 56.78125 9.90625 50.3125 4.234375 
Q 43.84375 -1.421875 31.78125 -1.421875 
Q 19.734375 -1.421875 13.25 4.234375 
Q 6.78125 9.90625 6.78125 20.515625 
Q 6.78125 27.484375 10.78125 32.3125 
Q 14.796875 37.15625 21.921875 38.8125 
z
M 18.3125 54.390625 
Q 18.3125 48.734375 21.84375 45.5625 
Q 25.390625 42.390625 31.78125 42.390625 
Q 38.140625 42.390625 41.71875 45.5625 
Q 45.3125 48.734375 45.3125 54.390625 
Q 45.3125 60.0625 41.71875 63.234375 
Q 38.140625 66.40625 31.78125 66.40625 
Q 25.390625 66.40625 21.84375 63.234375 
Q 18.3125 60.0625 18.3125 54.390625 
z
" id="DejaVuSans-38"/>
      </defs>
      <g transform="translate(430.764696 527.238438)scale(0.1 -0.1)">
       <use xlink:href="#DejaVuSans-38"/>
      </g>
     </g>
    </g>
    <g id="xtick_6">
     <g id="line2d_6">
      <g>
       <use style="stroke:#000000;stroke-width:0.8;" x="514.378378" xlink:href="#m0453f9c688" y="512.64"/>
      </g>
     </g>
     <g id="text_6">
      <!-- 10 -->
      <defs>
       <path d="M 12.40625 8.296875 
L 28.515625 8.296875 
L 28.515625 63.921875 
L 10.984375 60.40625 
L 10.984375 69.390625 
L 28.421875 72.90625 
L 38.28125 72.90625 
L 38.28125 8.296875 
L 54.390625 8.296875 
L 54.390625 0 
L 12.40625 0 
z
" id="DejaVuSans-31"/>
      </defs>
      <g transform="translate(508.015878 527.238438)scale(0.1 -0.1)">
       <use xlink:href="#DejaVuSans-31"/>
       <use x="63.623047" xlink:href="#DejaVuSans-30"/>
      </g>
     </g>
    </g>
   </g>
   <g id="matplotlib.axis_2">
    <g id="ytick_1">
     <g id="line2d_7">
      <defs>
       <path d="M 0 0 
L -3.5 0 
" id="mcda20e84d1" style="stroke:#000000;stroke-width:0.8;"/>
      </defs>
      <g>
       <use style="stroke:#000000;stroke-width:0.8;" x="72" xlink:href="#mcda20e84d1" y="473.863784"/>
      </g>
     </g>
     <g id="text_7">
      <!-- 0 -->
      <g transform="translate(58.6375 477.663003)scale(0.1 -0.1)">
       <use xlink:href="#DejaVuSans-30"/>
      </g>
     </g>
    </g>
    <g id="ytick_2">
     <g id="line2d_8">
      <g>
       <use style="stroke:#000000;stroke-width:0.8;" x="72" xlink:href="#mcda20e84d1" y="393.431351"/>
      </g>
     </g>
     <g id="text_8">
      <!-- 2 -->
      <g transform="translate(58.6375 397.23057)scale(0.1 -0.1)">
       <use xlink:href="#DejaVuSans-32"/>
      </g>
     </g>
    </g>
    <g id="ytick_3">
     <g id="line2d_9">
      <g>
       <use style="stroke:#000000;stroke-width:0.8;" x="72" xlink:href="#mcda20e84d1" y="312.998919"/>
      </g>
     </g>
     <g id="text_9">
      <!-- 4 -->
      <g transform="translate(58.6375 316.798138)scale(0.1 -0.1)">
       <use xlink:href="#DejaVuSans-34"/>
      </g>
     </g>
    </g>
    <g id="ytick_4">
     <g id="line2d_10">
      <g>
       <use style="stroke:#000000;stroke-width:0.8;" x="72" xlink:href="#mcda20e84d1" y="232.566486"/>
      </g>
     </g>
     <g id="text_10">
      <!-- 6 -->
      <g transform="translate(58.6375 236.365705)scale(0.1 -0.1)">
       <use xlink:href="#DejaVuSans-36"/>
      </g>
     </g>
    </g>
    <g id="ytick_5">
     <g id="line2d_11">
      <g>
       <use style="stroke:#000000;stroke-width:0.8;" x="72" xlink:href="#mcda20e84d1" y="152.134054"/>
      </g>
     </g>
     <g id="text_11">
      <!-- 8 -->
      <g transform="translate(58.6375 155.933273)scale(0.1 -0.1)">
       <use xlink:href="#DejaVuSans-38"/>
      </g>
     </g>
    </g>
    <g id="ytick_6">
     <g id="line2d_12">
      <g>
       <use style="stroke:#000000;stroke-width:0.8;" x="72" xlink:href="#mcda20e84d1" y="71.701622"/>
      </g>
     </g>
     <g id="text_12">
      <!-- 10 -->
      <g transform="translate(52.275 75.50084)scale(0.1 -0.1)">
       <use xlink:href="#DejaVuSans-31"/>
       <use x="63.623047" xlink:href="#DejaVuSans-30"/>
      </g>
     </g>
    </g>
   </g>
   <g id="line2d_13">
    <path clip-path="url(#pf94492ffce)" d="M 140.367568 389.40973 
" style="fill:none;stroke:#1f77b4;stroke-linecap:square;stroke-width:1.5;"/>
    <defs>
     <path d="M -5 5 
L 5 5 
L 5 -5 
L -5 -5 
z
" id="mcab2f649e7" style="stroke:#8000ff;stroke-linejoin:miter;"/>
    </defs>
    <g clip-path="url(#pf94492ffce)">
     <use style="fill:#8000ff;stroke:#8000ff;stroke-linejoin:miter;" x="140.367568" xlink:href="#mcab2f649e7" y="389.40973"/>
    </g>
   </g>
   <g id="line2d_14">
    <path clip-path="url(#pf94492ffce)" d="M 393.72973 192.35027 
" style="fill:none;stroke:#ff7f0e;stroke-linecap:square;stroke-width:1.5;"/>
    <defs>
     <path d="M 0 -5 
L -4.755283 -1.545085 
L -2.938926 4.045085 
L 2.938926 4.045085 
L 4.755283 -1.545085 
z
" id="m332c9b6112" style="stroke:#8000ff;stroke-linejoin:miter;"/>
    </defs>
    <g clip-path="url(#pf94492ffce)">
     <use style="fill:#8000ff;stroke:#8000ff;stroke-linejoin:miter;" x="393.72973" xlink:href="#m332c9b6112" y="192.35027"/>
    </g>
   </g>
   <g id="line2d_15">
    <path clip-path="url(#pf94492ffce)" d="M 450.032432 192.35027 
" style="fill:none;stroke:#2ca02c;stroke-linecap:square;stroke-width:1.5;"/>
    <defs>
     <path d="M -5 5 
L 5 5 
L 5 -5 
L -5 -5 
z
" id="m7d97c8db52" style="stroke:#583dfd;stroke-linejoin:miter;"/>
    </defs>
    <g clip-path="url(#pf94492ffce)">
     <use style="fill:#583dfd;stroke:#583dfd;stroke-linejoin:miter;" x="450.032432" xlink:href="#m7d97c8db52" y="192.35027"/>
    </g>
   </g>
   <g id="line2d_16">
    <path clip-path="url(#pf94492ffce)" d="M 224.821622 361.258378 
" style="fill:none;stroke:#d62728;stroke-linecap:square;stroke-width:1.5;"/>
    <defs>
     <path d="M 0 -5 
L -4.755283 -1.545085 
L -2.938926 4.045085 
L 2.938926 4.045085 
L 4.755283 -1.545085 
z
" id="mf2f1bfb5e5" style="stroke:#583dfd;stroke-linejoin:miter;"/>
    </defs>
    <g clip-path="url(#pf94492ffce)">
     <use style="fill:#583dfd;stroke:#583dfd;stroke-linejoin:miter;" x="224.821622" xlink:href="#mf2f1bfb5e5" y="361.258378"/>
    </g>
   </g>
   <g id="line2d_17">
    <path clip-path="url(#pf94492ffce)" d="M 402.175135 440.082162 
" style="fill:none;stroke:#9467bd;stroke-linecap:square;stroke-width:1.5;"/>
    <defs>
     <path d="M -5 5 
L 5 5 
L 5 -5 
L -5 -5 
z
" id="m50c92aa47d" style="stroke:#3177f8;stroke-linejoin:miter;"/>
    </defs>
    <g clip-path="url(#pf94492ffce)">
     <use style="fill:#3177f8;stroke:#3177f8;stroke-linejoin:miter;" x="402.175135" xlink:href="#m50c92aa47d" y="440.082162"/>
    </g>
   </g>
   <g id="line2d_18">
    <path clip-path="url(#pf94492ffce)" d="M 224.821622 192.35027 
" style="fill:none;stroke:#8c564b;stroke-linecap:square;stroke-width:1.5;"/>
    <defs>
     <path d="M 0 -5 
L -4.755283 -1.545085 
L -2.938926 4.045085 
L 2.938926 4.045085 
L 4.755283 -1.545085 
z
" id="m9f1459980e" style="stroke:#3177f8;stroke-linejoin:miter;"/>
    </defs>
    <g clip-path="url(#pf94492ffce)">
     <use style="fill:#3177f8;stroke:#3177f8;stroke-linejoin:miter;" x="224.821622" xlink:href="#m9f1459980e" y="192.35027"/>
    </g>
   </g>
   <g id="line2d_19">
    <path clip-path="url(#pf94492ffce)" d="M 224.821622 136.047568 
" style="fill:none;stroke:#e377c2;stroke-linecap:square;stroke-width:1.5;"/>
    <defs>
     <path d="M -5 5 
L 5 5 
L 5 -5 
L -5 -5 
z
" id="m60ff71f6e8" style="stroke:#0aa9ee;stroke-linejoin:miter;"/>
    </defs>
    <g clip-path="url(#pf94492ffce)">
     <use style="fill:#0aa9ee;stroke:#0aa9ee;stroke-linejoin:miter;" x="224.821622" xlink:href="#m60ff71f6e8" y="136.047568"/>
    </g>
   </g>
   <g id="line2d_20">
    <path clip-path="url(#pf94492ffce)" d="M 393.72973 361.258378 
" style="fill:none;stroke:#7f7f7f;stroke-linecap:square;stroke-width:1.5;"/>
    <defs>
     <path d="M 0 -5 
L -4.755283 -1.545085 
L -2.938926 4.045085 
L 2.938926 4.045085 
L 4.755283 -1.545085 
z
" id="maf1f973a30" style="stroke:#0aa9ee;stroke-linejoin:miter;"/>
    </defs>
    <g clip-path="url(#pf94492ffce)">
     <use style="fill:#0aa9ee;stroke:#0aa9ee;stroke-linejoin:miter;" x="393.72973" xlink:href="#maf1f973a30" y="361.258378"/>
    </g>
   </g>
   <g id="line2d_21">
    <path clip-path="url(#pf94492ffce)" d="M 450.032432 304.955676 
" style="fill:none;stroke:#bcbd22;stroke-linecap:square;stroke-width:1.5;"/>
    <defs>
     <path d="M -5 5 
L 5 5 
L 5 -5 
L -5 -5 
z
" id="meba4201176" style="stroke:#1dd2e2;stroke-linejoin:miter;"/>
    </defs>
    <g clip-path="url(#pf94492ffce)">
     <use style="fill:#1dd2e2;stroke:#1dd2e2;stroke-linejoin:miter;" x="450.032432" xlink:href="#meba4201176" y="304.955676"/>
    </g>
   </g>
   <g id="line2d_22">
    <path clip-path="url(#pf94492ffce)" d="M 196.67027 248.652973 
" style="fill:none;stroke:#17becf;stroke-linecap:square;stroke-width:1.5;"/>
    <defs>
     <path d="M 0 -5 
L -4.755283 -1.545085 
L -2.938926 4.045085 
L 2.938926 4.045085 
L 4.755283 -1.545085 
z
" id="m59f668304f" style="stroke:#1dd2e2;stroke-linejoin:miter;"/>
    </defs>
    <g clip-path="url(#pf94492ffce)">
     <use style="fill:#1dd2e2;stroke:#1dd2e2;stroke-linejoin:miter;" x="196.67027" xlink:href="#m59f668304f" y="248.652973"/>
    </g>
   </g>
   <g id="line2d_23">
    <path clip-path="url(#pf94492ffce)" d="M 140.367568 248.652973 
" style="fill:none;stroke:#1f77b4;stroke-linecap:square;stroke-width:1.5;"/>
    <defs>
     <path d="M -5 5 
L 5 5 
L 5 -5 
L -5 -5 
z
" id="m3022314118" style="stroke:#45eed2;stroke-linejoin:miter;"/>
    </defs>
    <g clip-path="url(#pf94492ffce)">
     <use style="fill:#45eed2;stroke:#45eed2;stroke-linejoin:miter;" x="140.367568" xlink:href="#m3022314118" y="248.652973"/>
    </g>
   </g>
   <g id="line2d_24">
    <path clip-path="url(#pf94492ffce)" d="M 393.72973 276.804324 
" style="fill:none;stroke:#ff7f0e;stroke-linecap:square;stroke-width:1.5;"/>
    <defs>
     <path d="M 0 -5 
L -4.755283 -1.545085 
L -2.938926 4.045085 
L 2.938926 4.045085 
L 4.755283 -1.545085 
z
" id="m76ee94e158" style="stroke:#45eed2;stroke-linejoin:miter;"/>
    </defs>
    <g clip-path="url(#pf94492ffce)">
     <use style="fill:#45eed2;stroke:#45eed2;stroke-linejoin:miter;" x="393.72973" xlink:href="#m76ee94e158" y="276.804324"/>
    </g>
   </g>
   <g id="line2d_25">
    <path clip-path="url(#pf94492ffce)" d="M 281.124324 192.35027 
" style="fill:none;stroke:#2ca02c;stroke-linecap:square;stroke-width:1.5;"/>
    <defs>
     <path d="M -5 5 
L 5 5 
L 5 -5 
L -5 -5 
z
" id="m12448bb4db" style="stroke:#6cfdbf;stroke-linejoin:miter;"/>
    </defs>
    <g clip-path="url(#pf94492ffce)">
     <use style="fill:#6cfdbf;stroke:#6cfdbf;stroke-linejoin:miter;" x="281.124324" xlink:href="#m12448bb4db" y="192.35027"/>
    </g>
   </g>
   <g id="line2d_26">
    <path clip-path="url(#pf94492ffce)" d="M 281.124324 333.107027 
" style="fill:none;stroke:#d62728;stroke-linecap:square;stroke-width:1.5;"/>
    <defs>
     <path d="M 0 -5 
L -4.755283 -1.545085 
L -2.938926 4.045085 
L 2.938926 4.045085 
L 4.755283 -1.545085 
z
" id="mbc0e5f5c53" style="stroke:#6cfdbf;stroke-linejoin:miter;"/>
    </defs>
    <g clip-path="url(#pf94492ffce)">
     <use style="fill:#6cfdbf;stroke:#6cfdbf;stroke-linejoin:miter;" x="281.124324" xlink:href="#mbc0e5f5c53" y="333.107027"/>
    </g>
   </g>
   <g id="line2d_27">
    <path clip-path="url(#pf94492ffce)" d="M 140.367568 304.955676 
" style="fill:none;stroke:#9467bd;stroke-linecap:square;stroke-width:1.5;"/>
    <defs>
     <path d="M -5 5 
L 5 5 
L 5 -5 
L -5 -5 
z
" id="m88435c5a7f" style="stroke:#93fda9;stroke-linejoin:miter;"/>
    </defs>
    <g clip-path="url(#pf94492ffce)">
     <use style="fill:#93fda9;stroke:#93fda9;stroke-linejoin:miter;" x="140.367568" xlink:href="#m88435c5a7f" y="304.955676"/>
    </g>
   </g>
   <g id="line2d_28">
    <path clip-path="url(#pf94492ffce)" d="M 309.275676 276.804324 
" style="fill:none;stroke:#8c564b;stroke-linecap:square;stroke-width:1.5;"/>
    <defs>
     <path d="M 0 -5 
L -4.755283 -1.545085 
L -2.938926 4.045085 
L 2.938926 4.045085 
L 4.755283 -1.545085 
z
" id="m5d61cba350" style="stroke:#93fda9;stroke-linejoin:miter;"/>
    </defs>
    <g clip-path="url(#pf94492ffce)">
     <use style="fill:#93fda9;stroke:#93fda9;stroke-linejoin:miter;" x="309.275676" xlink:href="#m5d61cba350" y="276.804324"/>
    </g>
   </g>
   <g id="line2d_29">
    <path clip-path="url(#pf94492ffce)" d="M 393.72973 220.501622 
" style="fill:none;stroke:#e377c2;stroke-linecap:square;stroke-width:1.5;"/>
    <defs>
     <path d="M -5 5 
L 5 5 
L 5 -5 
L -5 -5 
z
" id="m45dada2e84" style="stroke:#baee91;stroke-linejoin:miter;"/>
    </defs>
    <g clip-path="url(#pf94492ffce)">
     <use style="fill:#baee91;stroke:#baee91;stroke-linejoin:miter;" x="393.72973" xlink:href="#m45dada2e84" y="220.501622"/>
    </g>
   </g>
   <g id="line2d_30">
    <path clip-path="url(#pf94492ffce)" d="M 140.367568 276.804324 
" style="fill:none;stroke:#7f7f7f;stroke-linecap:square;stroke-width:1.5;"/>
    <defs>
     <path d="M 0 -5 
L -4.755283 -1.545085 
L -2.938926 4.045085 
L 2.938926 4.045085 
L 4.755283 -1.545085 
z
" id="m55dfb0f133" style="stroke:#baee91;stroke-linejoin:miter;"/>
    </defs>
    <g clip-path="url(#pf94492ffce)">
     <use style="fill:#baee91;stroke:#baee91;stroke-linejoin:miter;" x="140.367568" xlink:href="#m55dfb0f133" y="276.804324"/>
    </g>
   </g>
   <g id="line2d_31">
    <path clip-path="url(#pf94492ffce)" d="M 140.367568 136.047568 
" style="fill:none;stroke:#bcbd22;stroke-linecap:square;stroke-width:1.5;"/>
    <defs>
     <path d="M -5 5 
L 5 5 
L 5 -5 
L -5 -5 
z
" id="m114b2bfe8b" style="stroke:#e2d277;stroke-linejoin:miter;"/>
    </defs>
    <g clip-path="url(#pf94492ffce)">
     <use style="fill:#e2d277;stroke:#e2d277;stroke-linejoin:miter;" x="140.367568" xlink:href="#m114b2bfe8b" y="136.047568"/>
    </g>
   </g>
   <g id="line2d_32">
    <path clip-path="url(#pf94492ffce)" d="M 252.972973 248.652973 
" style="fill:none;stroke:#17becf;stroke-linecap:square;stroke-width:1.5;"/>
    <defs>
     <path d="M 0 -5 
L -4.755283 -1.545085 
L -2.938926 4.045085 
L 2.938926 4.045085 
L 4.755283 -1.545085 
z
" id="m680eb33096" style="stroke:#e2d277;stroke-linejoin:miter;"/>
    </defs>
    <g clip-path="url(#pf94492ffce)">
     <use style="fill:#e2d277;stroke:#e2d277;stroke-linejoin:miter;" x="252.972973" xlink:href="#m680eb33096" y="248.652973"/>
    </g>
   </g>
   <g id="line2d_33">
    <path clip-path="url(#pf94492ffce)" d="M 337.427027 164.198919 
" style="fill:none;stroke:#1f77b4;stroke-linecap:square;stroke-width:1.5;"/>
    <defs>
     <path d="M -5 5 
L 5 5 
L 5 -5 
L -5 -5 
z
" id="me9ba4cd3cd" style="stroke:#ffa95a;stroke-linejoin:miter;"/>
    </defs>
    <g clip-path="url(#pf94492ffce)">
     <use style="fill:#ffa95a;stroke:#ffa95a;stroke-linejoin:miter;" x="337.427027" xlink:href="#me9ba4cd3cd" y="164.198919"/>
    </g>
   </g>
   <g id="line2d_34">
    <path clip-path="url(#pf94492ffce)" d="M 168.518919 389.40973 
" style="fill:none;stroke:#ff7f0e;stroke-linecap:square;stroke-width:1.5;"/>
    <defs>
     <path d="M 0 -5 
L -4.755283 -1.545085 
L -2.938926 4.045085 
L 2.938926 4.045085 
L 4.755283 -1.545085 
z
" id="m08d1c95be3" style="stroke:#ffa95a;stroke-linejoin:miter;"/>
    </defs>
    <g clip-path="url(#pf94492ffce)">
     <use style="fill:#ffa95a;stroke:#ffa95a;stroke-linejoin:miter;" x="168.518919" xlink:href="#m08d1c95be3" y="389.40973"/>
    </g>
   </g>
   <g id="line2d_35">
    <path clip-path="url(#pf94492ffce)" d="M 196.67027 445.712432 
" style="fill:none;stroke:#2ca02c;stroke-linecap:square;stroke-width:1.5;"/>
    <defs>
     <path d="M -5 5 
L 5 5 
L 5 -5 
L -5 -5 
z
" id="mdf8357c034" style="stroke:#ff773d;stroke-linejoin:miter;"/>
    </defs>
    <g clip-path="url(#pf94492ffce)">
     <use style="fill:#ff773d;stroke:#ff773d;stroke-linejoin:miter;" x="196.67027" xlink:href="#mdf8357c034" y="445.712432"/>
    </g>
   </g>
   <g id="line2d_36">
    <path clip-path="url(#pf94492ffce)" d="M 393.72973 136.047568 
" style="fill:none;stroke:#d62728;stroke-linecap:square;stroke-width:1.5;"/>
    <defs>
     <path d="M 0 -5 
L -4.755283 -1.545085 
L -2.938926 4.045085 
L 2.938926 4.045085 
L 4.755283 -1.545085 
z
" id="mcb8c1f14ab" style="stroke:#ff773d;stroke-linejoin:miter;"/>
    </defs>
    <g clip-path="url(#pf94492ffce)">
     <use style="fill:#ff773d;stroke:#ff773d;stroke-linejoin:miter;" x="393.72973" xlink:href="#mcb8c1f14ab" y="136.047568"/>
    </g>
   </g>
   <g id="line2d_37">
    <path clip-path="url(#pf94492ffce)" d="M 224.821622 333.107027 
" style="fill:none;stroke:#9467bd;stroke-linecap:square;stroke-width:1.5;"/>
    <defs>
     <path d="M -5 5 
L 5 5 
L 5 -5 
L -5 -5 
z
" id="mf2645843b7" style="stroke:#ff3d1f;stroke-linejoin:miter;"/>
    </defs>
    <g clip-path="url(#pf94492ffce)">
     <use style="fill:#ff3d1f;stroke:#ff3d1f;stroke-linejoin:miter;" x="224.821622" xlink:href="#mf2645843b7" y="333.107027"/>
    </g>
   </g>
   <g id="line2d_38">
    <path clip-path="url(#pf94492ffce)" d="M 281.124324 164.198919 
" style="fill:none;stroke:#8c564b;stroke-linecap:square;stroke-width:1.5;"/>
    <defs>
     <path d="M 0 -5 
L -4.755283 -1.545085 
L -2.938926 4.045085 
L 2.938926 4.045085 
L 4.755283 -1.545085 
z
" id="mad00ee3151" style="stroke:#ff3d1f;stroke-linejoin:miter;"/>
    </defs>
    <g clip-path="url(#pf94492ffce)">
     <use style="fill:#ff3d1f;stroke:#ff3d1f;stroke-linejoin:miter;" x="281.124324" xlink:href="#mad00ee3151" y="164.198919"/>
    </g>
   </g>
   <g id="line2d_39">
    <path clip-path="url(#pf94492ffce)" d="M 281.124324 361.258378 
" style="fill:none;stroke:#e377c2;stroke-linecap:square;stroke-width:1.5;"/>
    <defs>
     <path d="M -5 5 
L 5 5 
L 5 -5 
L -5 -5 
z
" id="m3f2e4098b6" style="stroke:#ff0000;stroke-linejoin:miter;"/>
    </defs>
    <g clip-path="url(#pf94492ffce)">
     <use style="fill:#ff0000;stroke:#ff0000;stroke-linejoin:miter;" x="281.124324" xlink:href="#m3f2e4098b6" y="361.258378"/>
    </g>
   </g>
   <g id="line2d_40">
    <path clip-path="url(#pf94492ffce)" d="M 337.427027 276.804324 
" style="fill:none;stroke:#7f7f7f;stroke-linecap:square;stroke-width:1.5;"/>
    <defs>
     <path d="M 0 -5 
L -4.755283 -1.545085 
L -2.938926 4.045085 
L 2.938926 4.045085 
L 4.755283 -1.545085 
z
" id="m3aeded97fc" style="stroke:#ff0000;stroke-linejoin:miter;"/>
    </defs>
    <g clip-path="url(#pf94492ffce)">
     <use style="fill:#ff0000;stroke:#ff0000;stroke-linejoin:miter;" x="337.427027" xlink:href="#m3aeded97fc" y="276.804324"/>
    </g>
   </g>
   <g id="line2d_41"/>
   <g id="line2d_42">
    <path clip-path="url(#pf94492ffce)" d="M 92.108108 493.971892 
L 92.108108 87.788108 
" style="fill:none;stroke:#000000;stroke-linecap:square;stroke-width:4;"/>
   </g>
   <g id="line2d_43">
    <path clip-path="url(#pf94492ffce)" d="M 92.108108 87.788108 
L 498.291892 87.788108 
" style="fill:none;stroke:#000000;stroke-linecap:square;stroke-width:4;"/>
   </g>
   <g id="line2d_44">
    <path clip-path="url(#pf94492ffce)" d="M 498.291892 87.788108 
L 498.291892 493.971892 
" style="fill:none;stroke:#000000;stroke-linecap:square;stroke-width:4;"/>
   </g>
   <g id="line2d_45">
    <path clip-path="url(#pf94492ffce)" d="M 498.291892 493.971892 
L 92.108108 493.971892 
" style="fill:none;stroke:#000000;stroke-linecap:square;stroke-width:4;"/>
   </g>
   <g id="line2d_46">
    <path clip-path="url(#pf94492ffce)" d="M 140.367568 389.40973 
L 141.493622 389.40973 
L 143.74573 389.128216 
L 145.756541 388.605405 
L 147.485838 387.92173 
L 149.416216 387.036973 
L 151.225946 386.031568 
L 155.287784 383.417514 
L 160.234378 379.798054 
L 170.167784 372.036324 
L 190.436757 355.748757 
L 192.166054 354.502054 
L 194.217081 353.617297 
L 196.388757 353.094486 
L 200.410378 352.692324 
L 211.268757 352.330378 
L 213.520865 351.807568 
L 215.209946 351.164108 
L 217.260973 350.239135 
L 221.765189 348.509838 
L 227.395459 346.016432 
L 234.915892 342.477405 
L 238.656 340.989405 
L 241.028757 340.185081 
L 243.200432 339.823135 
L 245.372108 339.782919 
L 251.806703 340.185081 
L 262.061838 341.190486 
L 263.429189 341.632865 
L 264.836757 342.396973 
L 265.399784 343.161081 
L 266.284541 345.131676 
L 266.60627 347.343568 
L 266.244324 350.118486 
L 265.279135 352.129297 
L 263.871568 353.858595 
L 260.010811 356.754162 
L 260.252108 356.553081 
L 260.292324 356.472649 
L 260.292324 356.794378 
L 260.774919 358.121514 
L 260.734703 358.041081 
L 262.061838 358.885622 
L 263.791135 359.730162 
L 265.922595 360.614919 
L 267.732324 361.177946 
L 269.984432 361.580108 
L 274.287568 361.901838 
L 276.378811 361.821405 
L 278.751568 361.499676 
L 291.620757 358.201946 
L 293.832649 357.397622 
L 295.602162 356.352 
L 297.210811 354.984649 
L 298.899892 353.255351 
L 300.227027 351.646703 
L 301.353081 349.796757 
L 302.358486 347.544649 
L 303.685622 345.493622 
L 305.29427 344.005622 
L 307.305081 342.96 
L 309.75827 342.477405 
L 313.779892 342.598054 
L 315.830919 342.276324 
L 323.79373 339.863351 
L 326.005622 339.581838 
L 328.137081 339.541622 
L 330.228324 339.340541 
L 334.451027 338.576432 
L 338.834595 337.410162 
L 340.563892 336.847135 
L 342.775784 335.922162 
L 346.998486 333.629838 
L 351.060324 331.096216 
L 356.368865 327.436541 
L 359.867676 324.661622 
L 361.275243 323.093189 
L 362.48173 321.363892 
L 363.487135 319.513946 
L 364.492541 317.34227 
L 365.940324 313.360865 
L 367.187027 309.258811 
L 368.152216 305.43827 
L 368.473946 301.939459 
L 368.715243 299.808 
L 370.203243 291.362595 
L 370.364108 289.271351 
L 370.203243 287.180108 
L 369.398919 283.279135 
L 368.916324 281.187892 
L 368.554378 279.056432 
L 368.43373 276.844541 
L 368.514162 274.83373 
L 368.43373 270.329514 
L 368.473946 267.916541 
L 368.795676 263.894919 
L 369.27827 259.873297 
L 369.92173 255.891892 
L 370.726054 251.427892 
L 371.128216 247.164973 
L 371.811892 238.317405 
L 372.214054 236.185946 
L 372.777081 234.094703 
L 374.224865 230.032865 
L 376.034595 225.810162 
L 377.844324 221.949405 
L 381.906162 214.067027 
L 388.139676 202.484757 
L 392.402595 194.723027 
L 392.402595 194.723027 
" style="fill:none;stroke:#8000ff;stroke-linecap:square;stroke-width:1.5;"/>
   </g>
   <g id="line2d_47">
    <path clip-path="url(#pf94492ffce)" d="M 450.032432 192.35027 
L 450.27373 192.430703 
L 450.354162 192.511135 
L 450.595459 193.476324 
L 450.515027 194.723027 
L 449.992216 196.653405 
L 449.107459 198.543568 
L 447.900973 200.353297 
L 445.246703 203.329297 
L 442.029405 206.224865 
L 439.093622 208.597622 
L 433.744865 212.659459 
L 420.071351 222.512432 
L 401.933838 235.421838 
L 392.804757 241.977081 
L 391.477622 243.505297 
L 390.432 245.315027 
L 389.708108 246.963892 
L 388.179892 251.226811 
L 385.64627 258.626595 
L 383.876757 263.130811 
L 382.187676 267.072 
L 381.302919 269.042595 
L 380.217081 271.174054 
L 379.091027 273.024 
L 377.844324 274.793514 
L 375.149838 278.131459 
L 374.184649 279.900973 
L 372.495568 284.083459 
L 371.289081 287.300757 
L 370.806486 288.265946 
L 370.042378 289.351784 
L 369.036973 290.357189 
L 367.991351 291.081081 
L 366.825081 291.563676 
L 365.940324 291.764757 
L 364.090378 292.890811 
L 362.723027 294.419027 
L 362.079568 295.625514 
L 361.958919 296.832 
L 362.039351 298.963459 
L 361.958919 301.456865 
L 361.395892 303.668757 
L 360.752432 305.719784 
L 359.867676 307.811027 
L 358.620973 309.500108 
L 356.891676 310.867459 
L 354.921081 311.872865 
L 345.912649 315.371676 
L 341.931243 316.698811 
L 337.748757 317.784649 
L 335.295568 318.066162 
L 333.686919 317.945514 
L 332.4 317.543351 
L 330.992432 316.658595 
L 330.027243 315.693405 
L 329.343568 314.567351 
L 328.941405 313.52173 
L 328.659892 311.872865 
L 328.860973 309.379459 
L 330.429405 304.674162 
L 330.871784 302.944865 
L 330.952216 301.215568 
L 331.032649 301.416649 
L 331.113081 301.456865 
L 330.710919 301.336216 
L 329.665297 301.215568 
L 329.665297 301.215568 
L 328.458811 301.376432 
L 329.142486 301.657946 
L 328.579459 301.61773 
L 327.936 301.698162 
L 327.051243 302.220973 
L 326.206703 303.226378 
L 325.201297 305.036108 
L 323.472 308.655568 
L 322.426378 310.585946 
L 319.852541 314.36627 
L 318.485189 316.095568 
L 313.337514 321.162811 
L 312.492973 322.087784 
L 311.728865 323.133405 
L 310.884324 324.701838 
L 310.160432 326.953946 
L 309.798486 329.286486 
L 309.798486 333.871135 
L 309.436541 336.203676 
L 308.069189 342.919784 
L 306.902919 345.775135 
L 305.093189 349.072865 
L 302.800865 352.370595 
L 300.066162 355.708541 
L 297.251027 358.604108 
L 295.682595 360.092108 
L 292.143568 362.987676 
L 288.363243 365.60173 
L 284.422054 367.93427 
L 280.802595 369.744 
L 276.861405 371.473297 
L 274.649514 372.237405 
L 272.759351 372.679784 
L 270.627892 372.880865 
L 268.456216 372.921081 
L 266.284541 372.800432 
L 264.153081 372.559135 
L 260.171676 371.835243 
L 246.779676 368.819027 
L 238.213622 366.245189 
L 234.996324 365.038703 
L 229.004108 362.706162 
L 229.004108 362.706162 
" style="fill:none;stroke:#583dfd;stroke-linecap:square;stroke-width:1.5;"/>
   </g>
   <g id="line2d_48">
    <path clip-path="url(#pf94492ffce)" d="M 402.175135 440.082162 
L 401.974054 440.162595 
L 402.134919 439.961514 
L 402.456649 439.35827 
L 402.65773 438.473514 
L 402.537081 436.704 
L 402.134919 434.974703 
L 401.330595 432.803027 
L 400.445838 430.912865 
L 398.314378 427.212973 
L 396.022054 423.593514 
L 384.922378 408.150486 
L 351.341838 362.907243 
L 346.877838 358.201946 
L 342.574703 353.134703 
L 339.276973 349.957622 
L 338.03027 348.188108 
L 337.065081 346.539243 
L 335.255351 342.63827 
L 333.767351 338.898162 
L 332.560865 334.755892 
L 331.716324 330.814703 
L 330.670703 324.058378 
L 330.751135 321.80627 
L 331.113081 319.433514 
L 331.23373 316.899892 
L 330.871784 315.170595 
L 329.665297 312.918486 
L 328.217514 311.39027 
L 326.608865 310.224 
L 324.437189 308.253405 
L 322.144865 304.915459 
L 320.536216 303.186162 
L 316.876541 300.371027 
L 315.308108 298.802595 
L 312.332108 294.821189 
L 311.24627 292.569081 
L 310.321297 288.346378 
L 309.356108 283.882378 
L 309.074595 281.710703 
L 308.994162 277.488 
L 308.752865 275.276108 
L 308.109405 273.305514 
L 304.530162 265.825297 
L 303.886703 263.693838 
L 302.921514 261.562378 
L 301.634595 259.873297 
L 300.870486 258.546162 
L 300.669405 257.500541 
L 300.146595 253.438703 
L 299.623784 251.106162 
L 298.457514 247.285622 
L 297.090162 243.827027 
L 295.441297 240.167351 
L 294.476108 238.357622 
L 293.148973 236.427243 
L 291.741405 234.858811 
L 290.253405 233.370811 
L 287.196973 230.837189 
L 285.628541 229.630703 
L 283.979676 228.022054 
L 282.732973 226.292757 
L 276.620108 215.555027 
L 275.453838 214.147459 
L 273.965838 212.699676 
L 272.316973 211.372541 
L 269.180108 209.401946 
L 265.158486 207.310703 
L 260.774919 205.380324 
L 254.822919 203.007568 
L 246.498162 199.951135 
L 230.089946 194.16 
L 228.038919 193.436108 
L 228.038919 193.436108 
" style="fill:none;stroke:#3177f8;stroke-linecap:square;stroke-width:1.5;"/>
   </g>
   <g id="line2d_49">
    <path clip-path="url(#pf94492ffce)" d="M 224.821622 136.047568 
L 226.832432 136.248649 
L 228.56173 136.771459 
L 230.250811 137.575784 
L 232.100757 138.742054 
L 233.789838 140.069189 
L 235.398486 141.516973 
L 238.33427 144.694054 
L 241.068973 147.991784 
L 243.683027 151.410162 
L 251.484973 162.027243 
L 266.767135 183.382054 
L 268.134486 185.352649 
L 269.783351 187.443892 
L 271.150703 188.690595 
L 272.920216 189.776432 
L 275.132108 190.661189 
L 276.861405 191.063351 
L 283.497081 191.948108 
L 287.518703 192.792649 
L 289.609946 192.792649 
L 300.588973 192.068757 
L 302.800865 192.390486 
L 305.173622 193.114378 
L 306.902919 193.918703 
L 310.884324 196.170811 
L 312.694054 197.337081 
L 314.624432 198.865297 
L 317.560216 201.640216 
L 320.777514 204.89773 
L 326.407784 211.412757 
L 329.263135 214.911568 
L 333.324973 219.456 
L 334.491243 221.587459 
L 336.220541 225.327568 
L 337.225946 226.896 
L 338.955243 228.384 
L 340.845405 229.429622 
L 343.097514 230.917622 
L 348.245189 235.663135 
L 353.634162 240.167351 
L 355.202595 242.017297 
L 356.891676 243.666162 
L 358.620973 244.832432 
L 363.004541 246.803027 
L 366.744649 248.934486 
L 370.726054 251.709405 
L 374.104216 254.363676 
L 380.297514 259.511351 
L 382.187676 261.039568 
L 383.756108 262.608 
L 385.043027 264.337297 
L 386.088649 266.267676 
L 386.973405 268.56 
L 387.616865 270.611027 
L 388.541838 275.115243 
L 389.305946 281.549838 
L 389.868973 288.22573 
L 392.080865 329.206054 
L 393.528649 357.558486 
L 393.528649 357.558486 
" style="fill:none;stroke:#0aa9ee;stroke-linecap:square;stroke-width:1.5;"/>
   </g>
   <g id="line2d_50">
    <path clip-path="url(#pf94492ffce)" d="M 450.032432 304.955676 
L 449.831351 305.036108 
L 449.710703 305.196973 
L 449.670486 305.277405 
L 449.670486 305.036108 
L 449.348757 304.151351 
L 448.745514 303.347027 
L 447.378162 302.261189 
L 445.568432 301.255784 
L 443.396757 300.330811 
L 441.184865 299.566703 
L 434.991568 297.837405 
L 428.999351 296.429838 
L 415.366054 293.53427 
L 398.555676 290.075676 
L 387.978811 287.904 
L 385.927784 287.099676 
L 384.118054 285.852973 
L 382.227892 284.204108 
L 381.142054 283.399784 
L 381.222486 283.44 
L 380.699676 283.520432 
L 379.412757 284.123676 
L 377.924757 285.571459 
L 376.798703 287.622486 
L 376.316108 289.311568 
L 376.195459 291.402811 
L 376.919351 297.958054 
L 376.959568 305.196973 
L 376.919351 307.127351 
L 376.758486 308.092541 
L 376.115027 309.500108 
L 375.391135 310.465297 
L 375.029189 310.626162 
L 373.943351 310.787027 
L 371.329297 310.465297 
L 370.404324 310.54573 
L 370.524973 310.505514 
L 370.122811 310.827243 
L 369.358703 311.872865 
L 369.117405 312.435892 
L 367.428324 317.221622 
L 366.342486 318.950919 
L 364.733838 320.720432 
L 363.044757 322.087784 
L 361.194811 323.213838 
L 359.224216 324.138811 
L 354.840649 325.667027 
L 353.071135 326.752865 
L 349.733189 329.366919 
L 346.475676 331.980973 
L 344.786595 333.629838 
L 343.419243 335.238486 
L 342.172541 336.967784 
L 341.328 339.059027 
L 341.046486 341.069838 
L 341.287784 342.839351 
L 342.092108 344.970811 
L 343.218162 346.700108 
L 344.143135 348.751135 
L 344.464865 350.681514 
L 344.263784 353.174919 
L 343.379027 355.507459 
L 342.212757 357.317189 
L 340.845405 358.925838 
L 338.874811 360.413838 
L 336.54227 361.338811 
L 334.410811 361.781189 
L 330.308757 362.505081 
L 328.458811 363.389838 
L 326.890378 364.676757 
L 325.523027 366.245189 
L 322.748108 369.904865 
L 321.099243 371.392865 
L 319.008 372.679784 
L 316.997189 373.524324 
L 314.905946 374.208 
L 312.814703 374.730811 
L 308.028973 375.454703 
L 305.977946 375.696 
L 304.208432 376.098162 
L 299.543351 377.385081 
L 297.090162 377.787243 
L 295.2 377.747027 
L 292.746811 377.385081 
L 290.374054 376.781838 
L 286.553514 375.494919 
L 282.853622 374.087351 
L 280.802595 373.604757 
L 270.265946 371.875459 
L 268.174703 371.272216 
L 264.153081 369.744 
L 247.704649 363.148541 
L 243.562378 361.218162 
L 239.500541 359.126919 
L 235.760432 356.995459 
L 231.939892 354.502054 
L 228.682378 352.20973 
L 225.183568 350.279351 
L 221.805405 348.348973 
L 218.427243 345.936 
L 214.848 343.080649 
L 211.308973 340.225297 
L 207.72973 337.32973 
L 206.161297 335.84173 
L 204.713514 334.273297 
L 203.305946 332.584216 
L 201.013622 329.24627 
L 200.008216 327.315892 
L 199.002811 325.104 
L 195.021405 314.245622 
L 194.297514 310.264216 
L 193.895351 305.679568 
L 193.855135 298.722162 
L 194.056216 292.528865 
L 195.061622 274.069622 
L 195.705081 263.894919 
L 196.549622 250.784432 
L 196.549622 250.784432 
" style="fill:none;stroke:#1dd2e2;stroke-linecap:square;stroke-width:1.5;"/>
   </g>
   <g id="line2d_51">
    <path clip-path="url(#pf94492ffce)" d="M 140.367568 248.652973 
L 144.067459 248.693189 
L 148.652108 248.974703 
L 159.309405 249.980108 
L 205.155892 255.087568 
L 207.005838 255.047351 
L 208.936216 254.685405 
L 210.826378 253.881081 
L 214.083892 251.307243 
L 216.01427 250.261622 
L 218.14573 249.53773 
L 226.711784 247.205189 
L 228.481297 246.199784 
L 230.04973 244.792216 
L 234.393081 239.724973 
L 236.162595 238.035892 
L 237.932108 236.708757 
L 239.862486 235.703351 
L 242.275459 235.059892 
L 244.487351 234.818595 
L 246.900324 234.899027 
L 249.313297 234.65773 
L 251.364324 234.255568 
L 253.174054 233.772973 
L 255.305514 233.049081 
L 257.195676 232.003459 
L 260.453189 229.308973 
L 262.464 228.343784 
L 264.796541 227.740541 
L 264.635676 227.820973 
L 264.836757 227.579676 
L 265.681297 225.810162 
L 266.083459 224.040649 
L 266.726919 221.748324 
L 267.692108 219.858162 
L 269.461622 215.756108 
L 270.627892 214.187676 
L 272.156108 212.940973 
L 274.166919 212.016 
L 276.338595 211.573622 
L 280.883027 211.452973 
L 282.612324 211.010595 
L 284.422054 210.085622 
L 286.231784 208.517189 
L 288.282811 207.069405 
L 290.374054 206.305297 
L 292.585946 206.144432 
L 294.797838 206.506378 
L 296.808649 207.23027 
L 301.513946 209.160649 
L 305.776865 210.84973 
L 309.919135 212.780108 
L 313.739676 214.790919 
L 317.19827 216.882162 
L 320.737297 219.295135 
L 326.12627 223.276541 
L 336.703135 231.520865 
L 348.486486 240.770595 
L 350.336432 241.695568 
L 352.06573 242.258595 
L 358.902486 243.867243 
L 361.154595 244.792216 
L 363.286054 245.958486 
L 364.894703 247.004108 
L 366.422919 248.130162 
L 369.720649 250.905081 
L 373.058595 254.041946 
L 376.235676 257.299459 
L 382.469189 263.975351 
L 391.517838 274.230486 
L 391.517838 274.230486 
" style="fill:none;stroke:#45eed2;stroke-linecap:square;stroke-width:1.5;"/>
   </g>
   <g id="line2d_52">
    <path clip-path="url(#pf94492ffce)" d="M 281.124324 192.35027 
L 281.325405 192.390486 
L 281.888432 192.551351 
L 282.531892 192.913297 
L 283.376432 193.878486 
L 284.180757 195.527351 
L 284.824216 197.859892 
L 285.226378 200.232649 
L 285.467676 202.645622 
L 285.588324 204.535784 
L 285.668757 206.707459 
L 285.708973 208.838919 
L 285.708973 210.970378 
L 285.668757 213.423568 
L 285.628541 215.555027 
L 285.588324 217.686486 
L 285.548108 219.858162 
L 285.467676 221.989622 
L 285.387243 224.402595 
L 285.306811 226.815568 
L 285.226378 229.228541 
L 285.145946 231.078486 
L 285.065514 233.250162 
L 284.985081 235.381622 
L 284.904649 237.513081 
L 284.824216 239.684757 
L 284.743784 241.293405 
L 284.663351 243.706378 
L 284.582919 246.119351 
L 284.46227 248.250811 
L 284.381838 250.38227 
L 284.301405 252.51373 
L 284.220973 254.685405 
L 284.180757 256.454919 
L 284.502486 258.505946 
L 285.266595 260.717838 
L 285.990486 262.366703 
L 286.955676 264.256865 
L 288.001297 266.428541 
L 288.765405 268.157838 
L 289.56973 270.128432 
L 290.172973 272.219676 
L 290.534919 274.351135 
L 290.695784 276.522811 
L 290.695784 278.694486 
L 290.575135 281.388973 
L 290.41427 283.520432 
L 290.172973 285.651892 
L 289.851243 287.783351 
L 289.489297 290.196324 
L 289.167568 292.287568 
L 288.805622 294.419027 
L 288.363243 296.791784 
L 287.961081 298.923243 
L 287.679568 300.853622 
L 287.679568 302.904649 
L 287.961081 304.995892 
L 288.363243 307.087135 
L 288.845838 309.419676 
L 289.288216 311.832649 
L 289.690378 313.923892 
L 289.971892 316.095568 
L 290.132757 317.583568 
L 290.253405 318.709622 
L 290.374054 319.674811 
L 290.454486 320.479135 
L 290.534919 321.042162 
L 290.534919 321.444324 
L 290.494703 322.248649 
L 290.454486 323.012757 
L 290.333838 323.535568 
L 290.012108 324.018162 
L 289.408865 324.661622 
L 288.524108 325.546378 
L 287.639351 326.390919 
L 286.754595 327.235459 
L 285.749189 328.200649 
L 284.864432 329.045189 
L 283.979676 329.929946 
" style="fill:none;stroke:#6cfdbf;stroke-linecap:square;stroke-width:1.5;"/>
   </g>
   <g id="line2d_53">
    <path clip-path="url(#pf94492ffce)" d="M 140.367568 304.955676 
L 143.504432 304.915459 
L 147.767351 304.553514 
L 154.121514 303.749189 
L 164.738595 302.060108 
L 204.793946 295.223351 
L 206.362378 295.464649 
L 208.131892 296.188541 
L 210.022054 297.475459 
L 211.711135 298.762378 
L 213.319784 299.526486 
L 215.209946 300.049297 
L 217.542486 300.371027 
L 219.392432 300.411243 
L 221.523892 300.290595 
L 225.746595 299.767784 
L 230.130162 298.923243 
L 232.502919 298.681946 
L 234.755027 298.722162 
L 236.926703 299.043892 
L 243.160216 300.330811 
L 245.211243 300.491676 
L 247.342703 300.411243 
L 250.921946 299.848216 
L 253.254486 299.124324 
L 255.747892 297.797189 
L 258.723892 295.826595 
L 261.780324 293.212541 
L 263.268324 291.644108 
L 263.911784 290.357189 
L 263.871568 289.552865 
L 263.670486 288.949622 
L 263.187892 288.145297 
L 262.343351 287.340973 
L 262.423784 287.381189 
L 261.981405 287.340973 
L 260.573838 287.461622 
L 258.683676 288.105081 
L 256.793514 289.472432 
L 255.546811 291.040865 
L 254.380541 293.373405 
L 254.099027 293.574486 
L 253.21427 293.815784 
L 251.686054 293.735351 
L 249.594811 293.051676 
L 247.945946 292.006054 
L 246.377514 290.397405 
L 245.412324 288.668108 
L 244.809081 286.697514 
L 244.28627 284.566054 
L 243.884108 282.434595 
L 243.683027 279.740108 
L 243.763459 277.769514 
L 244.085189 277.367351 
L 245.010162 276.764108 
L 246.699243 276.281514 
L 248.790486 276.361946 
L 255.305514 277.849946 
L 257.396757 278.211892 
L 261.941189 278.774919 
L 264.313946 279.257514 
L 272.55827 281.590054 
L 274.890811 282.233514 
L 276.982054 282.675892 
L 278.791784 282.917189 
L 281.204757 282.997622 
L 283.577514 282.917189 
L 287.800216 282.474811 
L 292.022919 281.710703 
L 298.015135 280.303135 
L 299.865081 279.780324 
L 301.152 279.29773 
L 302.117189 278.774919 
L 303.484541 277.689081 
L 305.696432 275.356541 
L 305.696432 275.356541 
" style="fill:none;stroke:#93fda9;stroke-linecap:square;stroke-width:1.5;"/>
   </g>
   <g id="line2d_54">
    <path clip-path="url(#pf94492ffce)" d="M 393.72973 220.501622 
L 393.971027 220.582054 
L 394.091676 220.823351 
L 394.051459 221.386378 
L 393.72973 222.230919 
L 393.005838 223.236324 
L 391.397189 224.523243 
L 389.305946 225.689514 
L 385.043027 227.338378 
L 380.900757 228.504649 
L 374.627027 230.032865 
L 365.980541 231.882811 
L 355.725405 233.933838 
L 349.612541 235.220757 
L 347.762595 235.984865 
L 346.153946 237.070703 
L 344.304 238.156541 
L 342.092108 239.161946 
L 339.799784 239.96627 
L 337.467243 240.649946 
L 328.016432 242.741189 
L 326.086054 243.706378 
L 324.517622 245.033514 
L 323.110054 246.963892 
L 321.581838 248.773622 
L 319.973189 249.899676 
L 317.962378 250.824649 
L 315.830919 251.508324 
L 313.337514 251.669189 
L 309.75827 251.065946 
L 309.597405 250.985514 
L 308.873514 250.261622 
L 307.506162 249.296432 
L 306.098595 248.733405 
L 304.087784 248.492108 
L 302.64 248.693189 
L 294.435892 251.628973 
L 293.591351 251.267027 
L 292.384865 250.221405 
L 291.017514 248.773622 
L 289.891459 248.04973 
L 287.880649 247.567135 
L 285.829622 247.647568 
L 284.140541 248.130162 
L 282.371027 249.175784 
L 280.923243 250.583351 
L 279.797189 252.553946 
L 279.033081 255.007135 
L 278.51027 255.369081 
L 277.585297 255.731027 
L 277.585297 255.690811 
L 276.982054 255.811459 
L 275.132108 255.972324 
L 271.231135 255.650595 
L 269.180108 255.771243 
L 264.997622 256.495135 
L 260.976 256.736432 
L 258.804324 256.857081 
L 254.621838 257.500541 
L 252.691459 257.82227 
L 243.884108 258.586378 
L 236.84627 260.034162 
L 232.623568 260.677622 
L 230.250811 261.12 
L 227.958486 261.723243 
L 225.987892 262.447135 
L 220.076108 265.061189 
L 215.933838 266.267676 
L 211.751351 267.192649 
L 203.26573 268.640432 
L 147.164108 275.959784 
L 142.619676 276.522811 
L 142.619676 276.522811 
" style="fill:none;stroke:#baee91;stroke-linecap:square;stroke-width:1.5;"/>
   </g>
   <g id="line2d_55">
    <path clip-path="url(#pf94492ffce)" d="M 140.367568 136.047568 
L 141.171892 136.047568 
L 143.222919 136.288865 
L 144.992432 136.811676 
L 147.043459 137.696432 
L 148.933622 138.78227 
L 150.743351 139.988757 
L 152.67373 141.476757 
L 154.523676 143.045189 
L 156.092108 144.492973 
L 157.459459 145.779892 
L 158.987676 147.308108 
L 160.515892 148.836324 
L 162.204973 150.565622 
L 163.491892 151.892757 
L 164.979892 153.461189 
L 166.628757 155.230703 
L 168.277622 157.000216 
L 169.725405 158.568649 
L 171.37427 160.297946 
L 172.822054 161.866378 
L 174.108973 163.273946 
L 175.556757 164.842378 
L 177.044757 166.410811 
L 178.291459 167.778162 
L 179.578378 169.18573 
L 181.026162 170.754162 
L 182.473946 172.322595 
L 184.122811 174.092108 
L 185.570595 175.660541 
L 186.857514 177.027892 
L 188.305297 178.636541 
L 189.592216 180.003892 
L 191.241081 181.773405 
L 192.688865 183.341838 
L 194.136649 184.91027 
L 195.785514 186.679784 
L 197.233297 188.288432 
L 198.681081 189.856865 
L 200.128865 191.425297 
L 201.415784 192.792649 
L 202.662486 194.200216 
L 204.150486 195.768649 
L 205.59827 197.337081 
L 207.206919 199.106595 
L 208.694919 200.675027 
L 210.142703 202.243459 
L 211.590486 203.811892 
L 213.03827 205.420541 
L 214.164324 206.627027 
L 215.008865 207.511784 
L 215.772973 208.275892 
L 216.617514 209.160649 
L 217.542486 210.166054 
L 218.507676 211.211676 
L 219.432649 212.297514 
L 220.236973 213.262703 
L 220.960865 214.147459 
L 221.845622 215.353946 
L 222.569514 216.359351 
L 223.45427 217.726703 
L 223.896649 218.450595 
L 223.856432 218.410378 
L 224.218378 218.772324 
L 224.94227 219.254919 
L 225.505297 219.576649 
L 225.987892 219.77773 
L 226.550919 219.938595 
L 226.993297 220.059243 
L 227.878054 220.179892 
L 229.004108 220.099459 
L 230.451892 219.77773 
L 232.422486 219.094054 
L 233.548541 218.611459 
L 233.669189 218.571243 
L 234.071351 218.410378 
L 235.478919 217.968 
L 237.650595 217.043027 
L 238.857081 216.48 
L 239.299459 216.238703 
L 239.82227 215.997405 
L 239.902703 215.957189 
L 239.983135 215.916973 
L 239.942919 215.957189 
L 239.902703 215.997405 
L 240.023351 215.756108 
L 240.264649 215.193081 
L 240.46573 214.469189 
L 240.546162 213.865946 
L 240.546162 213.383351 
L 240.586378 213.18227 
L 240.586378 213.222486 
L 240.586378 213.262703 
L 240.586378 213.302919 
L 240.626595 213.343135 
L 240.626595 213.383351 
L 240.666811 213.423568 
L 240.747243 213.463784 
L 240.787459 213.504 
L 240.707027 213.504 
L 240.224432 213.504 
L 239.580973 213.624649 
L 238.696216 214.067027 
L 237.610378 214.871351 
L 236.444108 216.198486 
L 235.237622 218.128865 
L 234.553946 219.77773 
L 234.352865 220.783135 
L 234.272432 221.426595 
L 234.232216 221.667892 
L 234.272432 221.949405 
L 234.51373 222.552649 
L 235.318054 223.477622 
L 236.484324 224.161297 
L 238.414703 225.005838 
L 240.505946 225.810162 
L 242.637405 227.016649 
L 244.567784 228.544865 
L 246.055784 230.153514 
L 247.382919 231.842595 
L 248.710054 233.933838 
L 249.795892 236.306595 
L 250.278486 238.47827 
L 250.318703 240.489081 
L 250.198054 242.902054 
L 250.037189 245.315027 
L 249.996973 247.40627 
" style="fill:none;stroke:#e2d277;stroke-linecap:square;stroke-width:1.5;"/>
   </g>
   <g id="line2d_56">
    <path clip-path="url(#pf94492ffce)" d="M 337.427027 164.198919 
L 337.628108 164.239135 
L 337.708541 164.319568 
L 337.990054 164.842378 
L 338.231351 165.968432 
L 338.191135 167.215135 
L 337.628108 169.266162 
L 336.904216 170.995459 
L 334.853189 174.775784 
L 332.359784 178.596324 
L 327.775135 184.91027 
L 319.289514 195.96973 
L 307.506162 211.050811 
L 305.736649 212.699676 
L 304.087784 213.664865 
L 301.875892 214.589838 
L 300.548757 215.273514 
L 299.181405 216.399568 
L 298.135784 217.927784 
L 297.371676 220.300541 
L 297.291243 222.11027 
L 297.572757 224.201514 
L 298.095568 226.373189 
L 298.377081 228.947027 
L 297.974919 231.118703 
L 297.210811 232.928432 
L 296.446703 234.094703 
L 295.763027 234.818595 
L 293.430486 236.427243 
L 291.90227 238.116324 
L 289.368649 242.178162 
L 287.800216 243.746595 
L 286.231784 244.993297 
L 285.025297 246.320432 
L 282.893838 249.779027 
L 281.48627 251.387676 
L 280.078703 253.398486 
L 279.354811 255.087568 
L 278.630919 257.379892 
L 278.027676 259.95373 
L 277.947243 262.085189 
L 278.429838 264.096 
L 279.395027 266.026378 
L 280.159135 268.358919 
L 280.239568 270.329514 
L 279.716757 272.782703 
L 278.671135 274.753297 
L 277.545081 276.040216 
L 276.660324 276.603243 
L 276.821189 276.442378 
L 276.821189 276.160865 
L 276.780973 276.080432 
L 276.097297 275.436973 
L 276.137514 275.517405 
L 276.419027 276.442378 
L 276.660324 277.045622 
L 276.579892 277.286919 
L 276.338595 277.729297 
L 276.338595 277.568432 
L 276.217946 277.367351 
L 275.373405 276.643459 
L 275.413622 276.764108 
L 275.53427 277.126054 
L 275.373405 276.924973 
L 275.292973 276.884757 
L 275.654919 277.005405 
L 277.303784 277.16627 
L 279.113514 277.085838 
L 279.314595 277.608649 
L 279.113514 277.80973 
L 278.912432 277.849946 
L 278.429838 277.970595 
L 277.223351 278.453189 
L 276.459243 279.177081 
L 275.53427 280.906378 
L 275.091892 282.876973 
L 275.091892 285.370378 
L 275.574486 290.799568 
L 275.373405 293.212541 
L 274.488649 295.585297 
L 273.241946 297.354811 
L 271.432216 299.043892 
L 269.58227 300.250378 
L 265.641081 302.502486 
L 263.911784 303.628541 
L 262.343351 304.995892 
L 260.412973 306.524108 
L 253.696865 310.907676 
L 250.198054 313.360865 
L 245.251459 317.020541 
L 242.476541 319.594378 
L 233.548541 328.240865 
L 232.905081 329.004973 
L 231.53773 331.096216 
L 229.888865 334.35373 
L 228.521514 337.772108 
L 224.902054 347.544649 
L 223.856432 349.475027 
L 222.569514 351.244541 
L 221.161946 352.893405 
L 219.432649 354.622703 
L 217.542486 356.150919 
L 215.370811 357.397622 
L 211.912216 358.885622 
L 208.172108 360.293189 
L 206.24173 361.177946 
L 202.742919 363.108324 
L 199.163676 365.440865 
L 195.906162 367.733189 
L 190.758486 371.593946 
L 177.084973 382.412108 
L 170.449297 387.841297 
L 170.449297 387.841297 
" style="fill:none;stroke:#ffa95a;stroke-linecap:square;stroke-width:1.5;"/>
   </g>
   <g id="line2d_57">
    <path clip-path="url(#pf94492ffce)" d="M 196.67027 445.712432 
L 197.072432 445.712432 
L 198.077838 445.551568 
L 199.284324 445.189622 
L 200.772324 444.505946 
L 202.541838 443.460324 
L 203.989622 442.33427 
L 205.517838 440.886486 
L 208.332973 437.709405 
L 210.866595 434.291027 
L 214.767568 428.499892 
L 230.693189 402.721297 
L 237.409297 391.74227 
L 245.77427 378.028541 
L 246.940541 376.299243 
L 248.348108 374.690595 
L 249.876324 373.202595 
L 251.525189 371.835243 
L 255.024 369.341838 
L 258.643459 367.009297 
L 260.533622 365.883243 
L 262.705297 364.837622 
L 266.968216 363.188757 
L 271.190919 362.304 
L 277.02227 361.298595 
L 279.716757 360.936649 
L 281.928649 361.13773 
L 284.261189 361.861622 
L 286.030703 362.143135 
L 288.08173 362.022486 
L 293.752216 360.454054 
L 294.154378 360.614919 
L 295.964108 361.821405 
L 297.452108 363.510486 
L 298.377081 365.561514 
L 298.779243 368.014703 
L 298.618378 370.588541 
L 298.739027 370.950486 
L 299.261838 371.875459 
L 300.428108 373.162378 
L 301.634595 373.966703 
L 303.082378 374.208 
L 305.374703 374.006919 
L 307.305081 373.283027 
L 308.873514 372.438486 
L 310.361514 371.071135 
L 311.447351 369.623351 
L 312.573405 367.532108 
L 314.745081 362.062703 
L 317.278703 354.703135 
L 317.881946 352.772757 
L 318.203676 350.4 
L 318.203676 347.424 
L 318.444973 345.533838 
L 318.927568 343.321946 
L 319.168865 340.989405 
L 318.927568 337.008 
L 318.605838 332.946162 
L 318.605838 331.176649 
L 318.444973 329.085405 
L 317.600432 323.374703 
L 317.680865 323.535568 
L 317.439568 323.29427 
L 315.428757 319.031351 
L 312.090811 310.666378 
L 311.568 308.374054 
L 311.004973 306.644757 
L 310.281081 305.478486 
L 309.034378 304.513297 
L 307.586595 303.548108 
L 305.575784 301.698162 
L 304.570378 299.968865 
L 303.926919 297.555892 
L 303.926919 295.344 
L 304.409514 293.413622 
L 304.731243 291.121297 
L 304.530162 288.869189 
L 304.489946 286.375784 
L 305.736649 277.648865 
L 306.460541 273.104432 
L 307.345297 269.203459 
L 308.310486 265.342703 
L 309.034378 260.918919 
L 309.114811 258.827676 
L 308.873514 246.481297 
L 309.476757 241.936865 
L 311.527784 231.118703 
L 312.090811 228.786162 
L 312.73427 226.976432 
L 313.659243 225.005838 
L 314.905946 222.874378 
L 317.359135 219.335351 
L 320.053622 215.957189 
L 324.437189 210.889946 
L 331.475027 203.128216 
L 360.269838 172.081297 
L 390.713514 139.264865 
L 390.713514 139.264865 
" style="fill:none;stroke:#ff773d;stroke-linecap:square;stroke-width:1.5;"/>
   </g>
   <g id="line2d_58">
    <path clip-path="url(#pf94492ffce)" d="M 224.821622 333.107027 
L 225.022703 333.107027 
L 225.907459 332.86573 
L 226.993297 332.302703 
L 228.24 331.417946 
L 229.929081 329.769081 
L 231.296432 327.959351 
L 232.261622 326.390919 
L 233.146378 324.742054 
L 234.031135 322.811676 
L 234.956108 320.599784 
L 235.840865 318.347676 
L 236.444108 316.578162 
L 237.127784 314.567351 
L 237.811459 312.516324 
L 238.374486 310.746811 
L 239.017946 308.695784 
L 239.701622 306.403459 
L 240.304865 304.352432 
L 240.948324 302.261189 
L 241.632 299.968865 
L 242.154811 298.159135 
L 242.677622 296.389622 
L 243.280865 294.298378 
L 243.924324 292.287568 
L 244.768865 290.276757 
L 245.653622 288.346378 
L 246.699243 286.174703 
L 247.624216 284.244324 
L 248.388324 282.515027 
L 249.273081 280.584649 
L 250.117622 278.614054 
L 250.921946 276.643459 
L 251.565405 274.713081 
L 251.846919 272.662054 
L 251.72627 270.36973 
L 251.042595 268.439351 
L 250.077405 266.911135 
L 248.508973 265.26227 
L 246.860108 263.894919 
L 245.653622 262.969946 
L 245.251459 262.728649 
L 244.085189 262.165622 
L 242.597189 261.361297 
L 241.350486 260.637405 
L 240.546162 259.873297 
L 240.505946 259.833081 
L 240.546162 259.913514 
L 240.385297 259.511351 
L 240.184216 258.586378 
L 240.345081 257.259243 
L 240.666811 256.374486 
L 240.707027 256.294054 
L 240.747243 256.213622 
L 240.787459 256.173405 
L 241.068973 255.891892 
L 241.471135 255.409297 
L 241.95373 254.806054 
L 242.396108 254.202811 
L 242.959135 253.237622 
L 243.321081 252.111568 
L 243.44173 250.784432 
L 243.361297 249.819243 
L 243.280865 249.175784 
L 243.200432 248.612757 
L 242.999351 247.768216 
L 242.758054 246.883459 
L 242.597189 246.199784 
L 242.556973 246.159568 
L 242.556973 246.119351 
L 242.556973 245.837838 
L 242.637405 245.315027 
L 242.79827 244.631351 
L 243.200432 243.505297 
L 243.803676 242.339027 
L 244.648216 241.132541 
L 245.693838 239.885838 
L 246.618811 238.558703 
L 247.664432 236.829405 
L 248.629622 235.019676 
L 249.192649 233.974054 
L 249.39373 233.692541 
L 249.474162 233.652324 
L 249.474162 233.612108 
L 249.514378 233.612108 
L 249.514378 233.612108 
L 250.23827 233.290378 
L 251.927351 232.606703 
L 253.817514 231.68173 
L 255.828324 230.394811 
L 257.396757 229.148108 
L 259.005405 227.740541 
L 260.614054 226.332973 
L 262.343351 224.643892 
L 263.831351 223.155892 
L 265.279135 221.587459 
L 266.887784 219.77773 
L 268.295351 218.169081 
L 269.783351 216.359351 
L 271.311568 214.509405 
L 272.678919 212.860541 
L 273.845189 211.412757 
L 275.292973 209.482378 
L 276.700541 207.511784 
L 277.66573 205.943351 
L 278.470054 204.25427 
L 279.193946 202.323892 
L 279.756973 200.313081 
L 280.199351 197.980541 
L 280.521081 195.849081 
L 280.802595 193.476324 
L 281.003676 191.344865 
L 281.124324 188.931892 
L 281.244973 186.518919 
L 281.325405 184.146162 
L 281.365622 182.256 
L 281.365622 180.124541 
L 281.365622 177.952865 
L 281.365622 175.821405 
L 281.365622 173.408432 
L 281.325405 171.276973 
L 281.325405 169.386811 
L 281.285189 167.255351 
" style="fill:none;stroke:#ff3d1f;stroke-linecap:square;stroke-width:1.5;"/>
   </g>
   <g id="line2d_59">
    <path clip-path="url(#pf94492ffce)" d="M 281.124324 361.258378 
L 281.767784 361.218162 
L 283.054703 360.976865 
L 284.824216 360.333405 
L 286.794811 359.167135 
L 288.403459 357.920432 
L 289.931676 356.472649 
L 291.339243 354.904216 
L 292.867459 353.05427 
L 294.275027 351.123892 
L 295.360865 349.555459 
L 296.36627 348.027243 
L 297.532541 346.217514 
L 298.537946 344.608865 
L 299.623784 342.799135 
L 300.870486 340.707892 
L 301.956324 338.857946 
L 303.042162 337.008 
L 304.248649 334.916757 
L 305.334486 333.066811 
L 306.420324 331.216865 
L 307.465946 329.366919 
L 308.551784 327.516973 
L 309.597405 325.626811 
L 310.683243 323.776865 
L 311.849514 321.685622 
L 312.935351 319.835676 
L 313.860324 318.186811 
L 314.905946 316.336865 
L 316.112432 314.245622 
L 317.318919 312.114162 
L 318.243892 310.505514 
L 319.168865 308.856649 
L 320.375351 306.765405 
L 321.300324 305.156757 
L 322.104649 303.749189 
L 323.15027 301.899243 
L 324.195892 300.009081 
L 325.402378 297.917838 
L 326.608865 295.826595 
L 327.533838 294.217946 
L 328.579459 292.327784 
L 329.504432 290.719135 
L 330.429405 289.07027 
L 331.354378 287.421405 
L 332.560865 285.330162 
L 333.485838 283.721514 
L 334.451027 282.072649 
L 335.898811 280.383568 
" style="fill:none;stroke:#ff0000;stroke-linecap:square;stroke-width:1.5;"/>
   </g>
   <g id="patch_3">
    <path d="M 72 512.64 
L 72 69.12 
" style="fill:none;stroke:#000000;stroke-linecap:square;stroke-linejoin:miter;stroke-width:0.8;"/>
   </g>
   <g id="patch_4">
    <path d="M 518.4 512.64 
L 518.4 69.12 
" style="fill:none;stroke:#000000;stroke-linecap:square;stroke-linejoin:miter;stroke-width:0.8;"/>
   </g>
   <g id="patch_5">
    <path d="M 72 512.64 
L 518.4 512.64 
" style="fill:none;stroke:#000000;stroke-linecap:square;stroke-linejoin:miter;stroke-width:0.8;"/>
   </g>
   <g id="patch_6">
    <path d="M 72 69.12 
L 518.4 69.12 
" style="fill:none;stroke:#000000;stroke-linecap:square;stroke-linejoin:miter;stroke-width:0.8;"/>
   </g>
   <g id="text_13">
    <!-- 1 -->
    <defs>
     <path d="M 14.203125 0 
L 14.203125 5.171875 
L 26.90625 5.171875 
L 26.90625 65.828125 
L 12.203125 56.296875 
L 12.203125 62.703125 
L 29.984375 74.21875 
L 36.71875 74.21875 
L 36.71875 5.171875 
L 49.421875 5.171875 
L 49.421875 0 
z
" id="DejaVuSerif-31"/>
    </defs>
    <g transform="translate(137.186318 389.40973)scale(0.1 -0.1)">
     <use xlink:href="#DejaVuSerif-31"/>
    </g>
   </g>
   <g id="text_14">
    <!-- 1 -->
    <g transform="translate(390.54848 192.35027)scale(0.1 -0.1)">
     <use xlink:href="#DejaVuSerif-31"/>
    </g>
   </g>
   <g id="text_15">
    <!-- 2 -->
    <defs>
     <path d="M 12.796875 55.515625 
L 7.328125 55.515625 
L 7.328125 68.5 
Q 12.546875 71.296875 17.84375 72.75 
Q 23.140625 74.21875 28.21875 74.21875 
Q 39.59375 74.21875 46.1875 68.703125 
Q 52.78125 63.1875 52.78125 53.71875 
Q 52.78125 43.015625 37.84375 28.125 
Q 36.671875 27 36.078125 26.421875 
L 17.671875 8.015625 
L 48.09375 8.015625 
L 48.09375 17 
L 53.8125 17 
L 53.8125 0 
L 6.78125 0 
L 6.78125 5.328125 
L 28.90625 27.390625 
Q 36.234375 34.71875 39.359375 40.84375 
Q 42.484375 46.96875 42.484375 53.71875 
Q 42.484375 61.078125 38.640625 65.234375 
Q 34.8125 69.390625 28.078125 69.390625 
Q 21.09375 69.390625 17.28125 65.921875 
Q 13.484375 62.453125 12.796875 55.515625 
z
" id="DejaVuSerif-32"/>
    </defs>
    <g transform="translate(446.851182 192.35027)scale(0.1 -0.1)">
     <use xlink:href="#DejaVuSerif-32"/>
    </g>
   </g>
   <g id="text_16">
    <!-- 2 -->
    <g transform="translate(221.640372 361.258378)scale(0.1 -0.1)">
     <use xlink:href="#DejaVuSerif-32"/>
    </g>
   </g>
   <g id="text_17">
    <!-- 3 -->
    <defs>
     <path d="M 9.71875 69.828125 
Q 15.4375 71.96875 20.671875 73.09375 
Q 25.921875 74.21875 30.515625 74.21875 
Q 41.21875 74.21875 47.21875 69.59375 
Q 53.21875 64.984375 53.21875 56.78125 
Q 53.21875 50.203125 49.0625 45.78125 
Q 44.921875 41.359375 37.3125 39.796875 
Q 46.296875 38.53125 51.25 33.28125 
Q 56.203125 28.03125 56.203125 19.671875 
Q 56.203125 9.46875 49.34375 4.015625 
Q 42.484375 -1.421875 29.59375 -1.421875 
Q 23.875 -1.421875 18.421875 -0.1875 
Q 12.984375 1.03125 7.625 3.515625 
L 7.625 17.671875 
L 13.09375 17.671875 
Q 13.578125 10.640625 17.828125 7.03125 
Q 22.078125 3.421875 29.78125 3.421875 
Q 37.25 3.421875 41.578125 7.734375 
Q 45.90625 12.0625 45.90625 19.578125 
Q 45.90625 28.171875 41.453125 32.59375 
Q 37.015625 37.015625 28.421875 37.015625 
L 23.78125 37.015625 
L 23.78125 42 
L 26.21875 42 
Q 34.765625 42 39.03125 45.53125 
Q 43.3125 49.078125 43.3125 56.203125 
Q 43.3125 62.59375 39.796875 65.984375 
Q 36.28125 69.390625 29.6875 69.390625 
Q 23.09375 69.390625 19.453125 66.265625 
Q 15.828125 63.140625 15.1875 56.984375 
L 9.71875 56.984375 
z
" id="DejaVuSerif-33"/>
    </defs>
    <g transform="translate(398.993885 440.082162)scale(0.1 -0.1)">
     <use xlink:href="#DejaVuSerif-33"/>
    </g>
   </g>
   <g id="text_18">
    <!-- 3 -->
    <g transform="translate(221.640372 192.35027)scale(0.1 -0.1)">
     <use xlink:href="#DejaVuSerif-33"/>
    </g>
   </g>
   <g id="text_19">
    <!-- 4 -->
    <defs>
     <path d="M 34.90625 24.703125 
L 34.90625 63.484375 
L 10.015625 24.703125 
z
M 56.390625 0 
L 23.1875 0 
L 23.1875 5.171875 
L 34.90625 5.171875 
L 34.90625 19.484375 
L 3.078125 19.484375 
L 3.078125 24.8125 
L 35.015625 74.21875 
L 44.671875 74.21875 
L 44.671875 24.703125 
L 58.59375 24.703125 
L 58.59375 19.484375 
L 44.671875 19.484375 
L 44.671875 5.171875 
L 56.390625 5.171875 
z
" id="DejaVuSerif-34"/>
    </defs>
    <g transform="translate(221.640372 136.047568)scale(0.1 -0.1)">
     <use xlink:href="#DejaVuSerif-34"/>
    </g>
   </g>
   <g id="text_20">
    <!-- 4 -->
    <g transform="translate(390.54848 361.258378)scale(0.1 -0.1)">
     <use xlink:href="#DejaVuSerif-34"/>
    </g>
   </g>
   <g id="text_21">
    <!-- 5 -->
    <defs>
     <path d="M 50.296875 72.90625 
L 50.296875 64.890625 
L 16.890625 64.890625 
L 16.890625 44 
Q 19.4375 45.75 22.828125 46.625 
Q 26.21875 47.515625 30.421875 47.515625 
Q 42.234375 47.515625 49.0625 40.96875 
Q 55.90625 34.421875 55.90625 23.09375 
Q 55.90625 11.53125 49 5.046875 
Q 42.09375 -1.421875 29.59375 -1.421875 
Q 24.5625 -1.421875 19.28125 -0.1875 
Q 14.015625 1.03125 8.5 3.515625 
L 8.5 17.671875 
L 14.015625 17.671875 
Q 14.453125 10.75 18.421875 7.078125 
Q 22.40625 3.421875 29.59375 3.421875 
Q 37.3125 3.421875 41.453125 8.5 
Q 45.609375 13.578125 45.609375 23.09375 
Q 45.609375 32.5625 41.484375 37.609375 
Q 37.359375 42.671875 29.59375 42.671875 
Q 25.203125 42.671875 21.84375 41.109375 
Q 18.5 39.546875 15.921875 36.28125 
L 11.71875 36.28125 
L 11.71875 72.90625 
z
" id="DejaVuSerif-35"/>
    </defs>
    <g transform="translate(446.851182 304.955676)scale(0.1 -0.1)">
     <use xlink:href="#DejaVuSerif-35"/>
    </g>
   </g>
   <g id="text_22">
    <!-- 5 -->
    <g transform="translate(193.48902 248.652973)scale(0.1 -0.1)">
     <use xlink:href="#DejaVuSerif-35"/>
    </g>
   </g>
   <g id="text_23">
    <!-- 6 -->
    <defs>
     <path d="M 32.71875 3.421875 
Q 39.59375 3.421875 43.296875 8.46875 
Q 47.015625 13.53125 47.015625 23 
Q 47.015625 32.46875 43.296875 37.515625 
Q 39.59375 42.578125 32.71875 42.578125 
Q 25.734375 42.578125 22.0625 37.6875 
Q 18.40625 32.8125 18.40625 23.578125 
Q 18.40625 13.875 22.109375 8.640625 
Q 25.828125 3.421875 32.71875 3.421875 
z
M 16.796875 40.140625 
Q 20.125 43.796875 24.3125 45.59375 
Q 28.515625 47.40625 33.796875 47.40625 
Q 44.671875 47.40625 51 40.859375 
Q 57.328125 34.328125 57.328125 23 
Q 57.328125 11.921875 50.515625 5.25 
Q 43.703125 -1.421875 32.328125 -1.421875 
Q 19.96875 -1.421875 13.328125 7.78125 
Q 6.6875 17 6.6875 34.078125 
Q 6.6875 53.21875 14.546875 63.71875 
Q 22.40625 74.21875 36.71875 74.21875 
Q 40.578125 74.21875 44.828125 73.484375 
Q 49.078125 72.75 53.515625 71.296875 
L 53.515625 59.28125 
L 48 59.28125 
Q 47.40625 64.203125 44.234375 66.796875 
Q 41.0625 69.390625 35.6875 69.390625 
Q 26.21875 69.390625 21.578125 62.203125 
Q 16.9375 55.03125 16.796875 40.140625 
z
" id="DejaVuSerif-36"/>
    </defs>
    <g transform="translate(137.186318 248.652973)scale(0.1 -0.1)">
     <use xlink:href="#DejaVuSerif-36"/>
    </g>
   </g>
   <g id="text_24">
    <!-- 6 -->
    <g transform="translate(390.54848 276.804324)scale(0.1 -0.1)">
     <use xlink:href="#DejaVuSerif-36"/>
    </g>
   </g>
   <g id="text_25">
    <!-- 7 -->
    <defs>
     <path d="M 56.390625 67.921875 
L 27.875 0 
L 20.609375 0 
L 47.796875 64.890625 
L 14.109375 64.890625 
L 14.109375 55.90625 
L 8.40625 55.90625 
L 8.40625 72.90625 
L 56.390625 72.90625 
z
" id="DejaVuSerif-37"/>
    </defs>
    <g transform="translate(277.943074 192.35027)scale(0.1 -0.1)">
     <use xlink:href="#DejaVuSerif-37"/>
    </g>
   </g>
   <g id="text_26">
    <!-- 7 -->
    <g transform="translate(277.943074 333.107027)scale(0.1 -0.1)">
     <use xlink:href="#DejaVuSerif-37"/>
    </g>
   </g>
   <g id="text_27">
    <!-- 8 -->
    <defs>
     <path d="M 46.578125 19.921875 
Q 46.578125 27.734375 42.6875 32.046875 
Q 38.8125 36.375 31.78125 36.375 
Q 24.75 36.375 20.875 32.046875 
Q 17 27.734375 17 19.921875 
Q 17 12.0625 20.875 7.734375 
Q 24.75 3.421875 31.78125 3.421875 
Q 38.8125 3.421875 42.6875 7.734375 
Q 46.578125 12.0625 46.578125 19.921875 
z
M 44.578125 55.328125 
Q 44.578125 61.96875 41.203125 65.671875 
Q 37.84375 69.390625 31.78125 69.390625 
Q 25.78125 69.390625 22.390625 65.671875 
Q 19 61.96875 19 55.328125 
Q 19 48.640625 22.390625 44.921875 
Q 25.78125 41.21875 31.78125 41.21875 
Q 37.84375 41.21875 41.203125 44.921875 
Q 44.578125 48.640625 44.578125 55.328125 
z
M 39.3125 38.8125 
Q 47.609375 37.703125 52.25 32.6875 
Q 56.890625 27.6875 56.890625 19.921875 
Q 56.890625 9.671875 50.390625 4.125 
Q 43.890625 -1.421875 31.78125 -1.421875 
Q 19.734375 -1.421875 13.203125 4.125 
Q 6.6875 9.671875 6.6875 19.921875 
Q 6.6875 27.6875 11.328125 32.6875 
Q 15.96875 37.703125 24.3125 38.8125 
Q 16.9375 40.140625 13 44.40625 
Q 9.078125 48.6875 9.078125 55.328125 
Q 9.078125 64.109375 15.125 69.15625 
Q 21.1875 74.21875 31.78125 74.21875 
Q 42.390625 74.21875 48.4375 69.15625 
Q 54.5 64.109375 54.5 55.328125 
Q 54.5 48.6875 50.5625 44.40625 
Q 46.625 40.140625 39.3125 38.8125 
z
" id="DejaVuSerif-38"/>
    </defs>
    <g transform="translate(137.186318 304.955676)scale(0.1 -0.1)">
     <use xlink:href="#DejaVuSerif-38"/>
    </g>
   </g>
   <g id="text_28">
    <!-- 8 -->
    <g transform="translate(306.094426 276.804324)scale(0.1 -0.1)">
     <use xlink:href="#DejaVuSerif-38"/>
    </g>
   </g>
   <g id="text_29">
    <!-- 9 -->
    <defs>
     <path d="M 46.78125 32.671875 
Q 43.5 29 39.25 27.1875 
Q 35.015625 25.390625 29.6875 25.390625 
Q 18.84375 25.390625 12.5625 31.9375 
Q 6.296875 38.484375 6.296875 49.8125 
Q 6.296875 60.890625 13.109375 67.546875 
Q 19.921875 74.21875 31.296875 74.21875 
Q 43.65625 74.21875 50.265625 65.015625 
Q 56.890625 55.8125 56.890625 38.71875 
Q 56.890625 19.578125 49.015625 9.078125 
Q 41.15625 -1.421875 26.90625 -1.421875 
Q 23.046875 -1.421875 18.796875 -0.6875 
Q 14.546875 0.046875 10.109375 1.515625 
L 10.109375 13.625 
L 15.578125 13.625 
Q 16.21875 8.6875 19.390625 6.046875 
Q 22.5625 3.421875 27.875 3.421875 
Q 37.359375 3.421875 41.984375 10.5625 
Q 46.625 17.71875 46.78125 32.671875 
z
M 30.90625 69.390625 
Q 23.96875 69.390625 20.28125 64.328125 
Q 16.609375 59.28125 16.609375 49.8125 
Q 16.609375 40.328125 20.28125 35.25 
Q 23.96875 30.171875 30.90625 30.171875 
Q 37.84375 30.171875 41.53125 35.078125 
Q 45.21875 39.984375 45.21875 49.21875 
Q 45.21875 58.9375 41.5 64.15625 
Q 37.796875 69.390625 30.90625 69.390625 
z
" id="DejaVuSerif-39"/>
    </defs>
    <g transform="translate(390.54848 220.501622)scale(0.1 -0.1)">
     <use xlink:href="#DejaVuSerif-39"/>
    </g>
   </g>
   <g id="text_30">
    <!-- 9 -->
    <g transform="translate(137.186318 276.804324)scale(0.1 -0.1)">
     <use xlink:href="#DejaVuSerif-39"/>
    </g>
   </g>
   <g id="text_31">
    <!-- 10 -->
    <defs>
     <path d="M 31.78125 3.421875 
Q 39.265625 3.421875 42.96875 11.625 
Q 46.6875 19.828125 46.6875 36.375 
Q 46.6875 52.984375 42.96875 61.1875 
Q 39.265625 69.390625 31.78125 69.390625 
Q 24.3125 69.390625 20.59375 61.1875 
Q 16.890625 52.984375 16.890625 36.375 
Q 16.890625 19.828125 20.59375 11.625 
Q 24.3125 3.421875 31.78125 3.421875 
z
M 31.78125 -1.421875 
Q 19.921875 -1.421875 13.25 8.53125 
Q 6.59375 18.5 6.59375 36.375 
Q 6.59375 54.296875 13.25 64.25 
Q 19.921875 74.21875 31.78125 74.21875 
Q 43.703125 74.21875 50.34375 64.25 
Q 56.984375 54.296875 56.984375 36.375 
Q 56.984375 18.5 50.34375 8.53125 
Q 43.703125 -1.421875 31.78125 -1.421875 
z
" id="DejaVuSerif-30"/>
    </defs>
    <g transform="translate(134.005068 136.047568)scale(0.1 -0.1)">
     <use xlink:href="#DejaVuSerif-31"/>
     <use x="63.623047" xlink:href="#DejaVuSerif-30"/>
    </g>
   </g>
   <g id="text_32">
    <!-- 10 -->
    <g transform="translate(246.610473 248.652973)scale(0.1 -0.1)">
     <use xlink:href="#DejaVuSerif-31"/>
     <use x="63.623047" xlink:href="#DejaVuSerif-30"/>
    </g>
   </g>
   <g id="text_33">
    <!-- 11 -->
    <g transform="translate(331.064527 164.198919)scale(0.1 -0.1)">
     <use xlink:href="#DejaVuSerif-31"/>
     <use x="63.623047" xlink:href="#DejaVuSerif-31"/>
    </g>
   </g>
   <g id="text_34">
    <!-- 11 -->
    <g transform="translate(162.156419 389.40973)scale(0.1 -0.1)">
     <use xlink:href="#DejaVuSerif-31"/>
     <use x="63.623047" xlink:href="#DejaVuSerif-31"/>
    </g>
   </g>
   <g id="text_35">
    <!-- 12 -->
    <g transform="translate(190.30777 445.712432)scale(0.1 -0.1)">
     <use xlink:href="#DejaVuSerif-31"/>
     <use x="63.623047" xlink:href="#DejaVuSerif-32"/>
    </g>
   </g>
   <g id="text_36">
    <!-- 12 -->
    <g transform="translate(387.36723 136.047568)scale(0.1 -0.1)">
     <use xlink:href="#DejaVuSerif-31"/>
     <use x="63.623047" xlink:href="#DejaVuSerif-32"/>
    </g>
   </g>
   <g id="text_37">
    <!-- 13 -->
    <g transform="translate(218.459122 333.107027)scale(0.1 -0.1)">
     <use xlink:href="#DejaVuSerif-31"/>
     <use x="63.623047" xlink:href="#DejaVuSerif-33"/>
    </g>
   </g>
   <g id="text_38">
    <!-- 13 -->
    <g transform="translate(274.761824 164.198919)scale(0.1 -0.1)">
     <use xlink:href="#DejaVuSerif-31"/>
     <use x="63.623047" xlink:href="#DejaVuSerif-33"/>
    </g>
   </g>
   <g id="text_39">
    <!-- 14 -->
    <g transform="translate(274.761824 361.258378)scale(0.1 -0.1)">
     <use xlink:href="#DejaVuSerif-31"/>
     <use x="63.623047" xlink:href="#DejaVuSerif-34"/>
    </g>
   </g>
   <g id="text_40">
    <!-- 14 -->
    <g transform="translate(331.064527 276.804324)scale(0.1 -0.1)">
     <use xlink:href="#DejaVuSerif-31"/>
     <use x="63.623047" xlink:href="#DejaVuSerif-34"/>
    </g>
   </g>
   <g id="text_41">
    <!-- MRPP -->
    <defs>
     <path d="M 9.8125 72.90625 
L 24.515625 72.90625 
L 43.109375 23.296875 
L 61.8125 72.90625 
L 76.515625 72.90625 
L 76.515625 0 
L 66.890625 0 
L 66.890625 64.015625 
L 48.09375 14.015625 
L 38.1875 14.015625 
L 19.390625 64.015625 
L 19.390625 0 
L 9.8125 0 
z
" id="DejaVuSans-4d"/>
     <path d="M 44.390625 34.1875 
Q 47.5625 33.109375 50.5625 29.59375 
Q 53.5625 26.078125 56.59375 19.921875 
L 66.609375 0 
L 56 0 
L 46.6875 18.703125 
Q 43.0625 26.03125 39.671875 28.421875 
Q 36.28125 30.8125 30.421875 30.8125 
L 19.671875 30.8125 
L 19.671875 0 
L 9.8125 0 
L 9.8125 72.90625 
L 32.078125 72.90625 
Q 44.578125 72.90625 50.734375 67.671875 
Q 56.890625 62.453125 56.890625 51.90625 
Q 56.890625 45.015625 53.6875 40.46875 
Q 50.484375 35.9375 44.390625 34.1875 
z
M 19.671875 64.796875 
L 19.671875 38.921875 
L 32.078125 38.921875 
Q 39.203125 38.921875 42.84375 42.21875 
Q 46.484375 45.515625 46.484375 51.90625 
Q 46.484375 58.296875 42.84375 61.546875 
Q 39.203125 64.796875 32.078125 64.796875 
z
" id="DejaVuSans-52"/>
     <path d="M 19.671875 64.796875 
L 19.671875 37.40625 
L 32.078125 37.40625 
Q 38.96875 37.40625 42.71875 40.96875 
Q 46.484375 44.53125 46.484375 51.125 
Q 46.484375 57.671875 42.71875 61.234375 
Q 38.96875 64.796875 32.078125 64.796875 
z
M 9.8125 72.90625 
L 32.078125 72.90625 
Q 44.34375 72.90625 50.609375 67.359375 
Q 56.890625 61.8125 56.890625 51.125 
Q 56.890625 40.328125 50.609375 34.8125 
Q 44.34375 29.296875 32.078125 29.296875 
L 19.671875 29.296875 
L 19.671875 0 
L 9.8125 0 
z
" id="DejaVuSans-50"/>
    </defs>
    <g transform="translate(278.618437 63.12)scale(0.12 -0.12)">
     <use xlink:href="#DejaVuSans-4d"/>
     <use x="86.279297" xlink:href="#DejaVuSans-52"/>
     <use x="155.761719" xlink:href="#DejaVuSans-50"/>
     <use x="216.064453" xlink:href="#DejaVuSans-50"/>
    </g>
   </g>
  </g>
 </g>
 <defs>
  <clipPath id="pf94492ffce">
   <rect height="443.52" width="446.4" x="72" y="69.12"/>
  </clipPath>
 </defs>
</svg>
