<?xml version="1.0" encoding="utf-8" standalone="no"?>
<!DOCTYPE svg PUBLIC "-//W3C//DTD SVG 1.1//EN"
  "http://www.w3.org/Graphics/SVG/1.1/DTD/svg11.dtd">
<!-- Created with matplotlib (http://matplotlib.org/) -->
<svg height="576pt" version="1.1" viewBox="0 0 576 576" width="576pt" xmlns="http://www.w3.org/2000/svg" xmlns:xlink="http://www.w3.org/1999/xlink">
 <defs>
  <style type="text/css">
*{stroke-linecap:butt;stroke-linejoin:round;}
  </style>
 </defs>
 <g id="figure_1">
  <g id="patch_1">
   <path d="M 0 576 
L 576 576 
L 576 0 
L 0 0 
z
" style="fill:#ffffff;"/>
  </g>
  <g id="axes_1">
   <g id="patch_2">
    <path d="M 72 512.64 
L 518.4 512.64 
L 518.4 69.12 
L 72 69.12 
z
" style="fill:#ffffff;"/>
   </g>
   <g id="matplotlib.axis_1">
    <g id="xtick_1">
     <g id="line2d_1">
      <defs>
       <path d="M 0 0 
L 0 3.5 
" id="m546c46aed3" style="stroke:#000000;stroke-width:0.8;"/>
      </defs>
      <g>
       <use style="stroke:#000000;stroke-width:0.8;" x="112.216216" xlink:href="#m546c46aed3" y="512.64"/>
      </g>
     </g>
     <g id="text_1">
      <!-- 0 -->
      <defs>
       <path d="M 31.78125 66.40625 
Q 24.171875 66.40625 20.328125 58.90625 
Q 16.5 51.421875 16.5 36.375 
Q 16.5 21.390625 20.328125 13.890625 
Q 24.171875 6.390625 31.78125 6.390625 
Q 39.453125 6.390625 43.28125 13.890625 
Q 47.125 21.390625 47.125 36.375 
Q 47.125 51.421875 43.28125 58.90625 
Q 39.453125 66.40625 31.78125 66.40625 
z
M 31.78125 74.21875 
Q 44.046875 74.21875 50.515625 64.515625 
Q 56.984375 54.828125 56.984375 36.375 
Q 56.984375 17.96875 50.515625 8.265625 
Q 44.046875 -1.421875 31.78125 -1.421875 
Q 19.53125 -1.421875 13.0625 8.265625 
Q 6.59375 17.96875 6.59375 36.375 
Q 6.59375 54.828125 13.0625 64.515625 
Q 19.53125 74.21875 31.78125 74.21875 
z
" id="DejaVuSans-30"/>
      </defs>
      <g transform="translate(109.034966 527.238438)scale(0.1 -0.1)">
       <use xlink:href="#DejaVuSans-30"/>
      </g>
     </g>
    </g>
    <g id="xtick_2">
     <g id="line2d_2">
      <g>
       <use style="stroke:#000000;stroke-width:0.8;" x="192.648649" xlink:href="#m546c46aed3" y="512.64"/>
      </g>
     </g>
     <g id="text_2">
      <!-- 2 -->
      <defs>
       <path d="M 19.1875 8.296875 
L 53.609375 8.296875 
L 53.609375 0 
L 7.328125 0 
L 7.328125 8.296875 
Q 12.9375 14.109375 22.625 23.890625 
Q 32.328125 33.6875 34.8125 36.53125 
Q 39.546875 41.84375 41.421875 45.53125 
Q 43.3125 49.21875 43.3125 52.78125 
Q 43.3125 58.59375 39.234375 62.25 
Q 35.15625 65.921875 28.609375 65.921875 
Q 23.96875 65.921875 18.8125 64.3125 
Q 13.671875 62.703125 7.8125 59.421875 
L 7.8125 69.390625 
Q 13.765625 71.78125 18.9375 73 
Q 24.125 74.21875 28.421875 74.21875 
Q 39.75 74.21875 46.484375 68.546875 
Q 53.21875 62.890625 53.21875 53.421875 
Q 53.21875 48.921875 51.53125 44.890625 
Q 49.859375 40.875 45.40625 35.40625 
Q 44.1875 33.984375 37.640625 27.21875 
Q 31.109375 20.453125 19.1875 8.296875 
z
" id="DejaVuSans-32"/>
      </defs>
      <g transform="translate(189.467399 527.238438)scale(0.1 -0.1)">
       <use xlink:href="#DejaVuSans-32"/>
      </g>
     </g>
    </g>
    <g id="xtick_3">
     <g id="line2d_3">
      <g>
       <use style="stroke:#000000;stroke-width:0.8;" x="273.081081" xlink:href="#m546c46aed3" y="512.64"/>
      </g>
     </g>
     <g id="text_3">
      <!-- 4 -->
      <defs>
       <path d="M 37.796875 64.3125 
L 12.890625 25.390625 
L 37.796875 25.390625 
z
M 35.203125 72.90625 
L 47.609375 72.90625 
L 47.609375 25.390625 
L 58.015625 25.390625 
L 58.015625 17.1875 
L 47.609375 17.1875 
L 47.609375 0 
L 37.796875 0 
L 37.796875 17.1875 
L 4.890625 17.1875 
L 4.890625 26.703125 
z
" id="DejaVuSans-34"/>
      </defs>
      <g transform="translate(269.899831 527.238438)scale(0.1 -0.1)">
       <use xlink:href="#DejaVuSans-34"/>
      </g>
     </g>
    </g>
    <g id="xtick_4">
     <g id="line2d_4">
      <g>
       <use style="stroke:#000000;stroke-width:0.8;" x="353.513514" xlink:href="#m546c46aed3" y="512.64"/>
      </g>
     </g>
     <g id="text_4">
      <!-- 6 -->
      <defs>
       <path d="M 33.015625 40.375 
Q 26.375 40.375 22.484375 35.828125 
Q 18.609375 31.296875 18.609375 23.390625 
Q 18.609375 15.53125 22.484375 10.953125 
Q 26.375 6.390625 33.015625 6.390625 
Q 39.65625 6.390625 43.53125 10.953125 
Q 47.40625 15.53125 47.40625 23.390625 
Q 47.40625 31.296875 43.53125 35.828125 
Q 39.65625 40.375 33.015625 40.375 
z
M 52.59375 71.296875 
L 52.59375 62.3125 
Q 48.875 64.0625 45.09375 64.984375 
Q 41.3125 65.921875 37.59375 65.921875 
Q 27.828125 65.921875 22.671875 59.328125 
Q 17.53125 52.734375 16.796875 39.40625 
Q 19.671875 43.65625 24.015625 45.921875 
Q 28.375 48.1875 33.59375 48.1875 
Q 44.578125 48.1875 50.953125 41.515625 
Q 57.328125 34.859375 57.328125 23.390625 
Q 57.328125 12.15625 50.6875 5.359375 
Q 44.046875 -1.421875 33.015625 -1.421875 
Q 20.359375 -1.421875 13.671875 8.265625 
Q 6.984375 17.96875 6.984375 36.375 
Q 6.984375 53.65625 15.1875 63.9375 
Q 23.390625 74.21875 37.203125 74.21875 
Q 40.921875 74.21875 44.703125 73.484375 
Q 48.484375 72.75 52.59375 71.296875 
z
" id="DejaVuSans-36"/>
      </defs>
      <g transform="translate(350.332264 527.238438)scale(0.1 -0.1)">
       <use xlink:href="#DejaVuSans-36"/>
      </g>
     </g>
    </g>
    <g id="xtick_5">
     <g id="line2d_5">
      <g>
       <use style="stroke:#000000;stroke-width:0.8;" x="433.945946" xlink:href="#m546c46aed3" y="512.64"/>
      </g>
     </g>
     <g id="text_5">
      <!-- 8 -->
      <defs>
       <path d="M 31.78125 34.625 
Q 24.75 34.625 20.71875 30.859375 
Q 16.703125 27.09375 16.703125 20.515625 
Q 16.703125 13.921875 20.71875 10.15625 
Q 24.75 6.390625 31.78125 6.390625 
Q 38.8125 6.390625 42.859375 10.171875 
Q 46.921875 13.96875 46.921875 20.515625 
Q 46.921875 27.09375 42.890625 30.859375 
Q 38.875 34.625 31.78125 34.625 
z
M 21.921875 38.8125 
Q 15.578125 40.375 12.03125 44.71875 
Q 8.5 49.078125 8.5 55.328125 
Q 8.5 64.0625 14.71875 69.140625 
Q 20.953125 74.21875 31.78125 74.21875 
Q 42.671875 74.21875 48.875 69.140625 
Q 55.078125 64.0625 55.078125 55.328125 
Q 55.078125 49.078125 51.53125 44.71875 
Q 48 40.375 41.703125 38.8125 
Q 48.828125 37.15625 52.796875 32.3125 
Q 56.78125 27.484375 56.78125 20.515625 
Q 56.78125 9.90625 50.3125 4.234375 
Q 43.84375 -1.421875 31.78125 -1.421875 
Q 19.734375 -1.421875 13.25 4.234375 
Q 6.78125 9.90625 6.78125 20.515625 
Q 6.78125 27.484375 10.78125 32.3125 
Q 14.796875 37.15625 21.921875 38.8125 
z
M 18.3125 54.390625 
Q 18.3125 48.734375 21.84375 45.5625 
Q 25.390625 42.390625 31.78125 42.390625 
Q 38.140625 42.390625 41.71875 45.5625 
Q 45.3125 48.734375 45.3125 54.390625 
Q 45.3125 60.0625 41.71875 63.234375 
Q 38.140625 66.40625 31.78125 66.40625 
Q 25.390625 66.40625 21.84375 63.234375 
Q 18.3125 60.0625 18.3125 54.390625 
z
" id="DejaVuSans-38"/>
      </defs>
      <g transform="translate(430.764696 527.238438)scale(0.1 -0.1)">
       <use xlink:href="#DejaVuSans-38"/>
      </g>
     </g>
    </g>
    <g id="xtick_6">
     <g id="line2d_6">
      <g>
       <use style="stroke:#000000;stroke-width:0.8;" x="514.378378" xlink:href="#m546c46aed3" y="512.64"/>
      </g>
     </g>
     <g id="text_6">
      <!-- 10 -->
      <defs>
       <path d="M 12.40625 8.296875 
L 28.515625 8.296875 
L 28.515625 63.921875 
L 10.984375 60.40625 
L 10.984375 69.390625 
L 28.421875 72.90625 
L 38.28125 72.90625 
L 38.28125 8.296875 
L 54.390625 8.296875 
L 54.390625 0 
L 12.40625 0 
z
" id="DejaVuSans-31"/>
      </defs>
      <g transform="translate(508.015878 527.238438)scale(0.1 -0.1)">
       <use xlink:href="#DejaVuSans-31"/>
       <use x="63.623047" xlink:href="#DejaVuSans-30"/>
      </g>
     </g>
    </g>
   </g>
   <g id="matplotlib.axis_2">
    <g id="ytick_1">
     <g id="line2d_7">
      <defs>
       <path d="M 0 0 
L -3.5 0 
" id="m90fddbdf26" style="stroke:#000000;stroke-width:0.8;"/>
      </defs>
      <g>
       <use style="stroke:#000000;stroke-width:0.8;" x="72" xlink:href="#m90fddbdf26" y="473.863784"/>
      </g>
     </g>
     <g id="text_7">
      <!-- 0 -->
      <g transform="translate(58.6375 477.663003)scale(0.1 -0.1)">
       <use xlink:href="#DejaVuSans-30"/>
      </g>
     </g>
    </g>
    <g id="ytick_2">
     <g id="line2d_8">
      <g>
       <use style="stroke:#000000;stroke-width:0.8;" x="72" xlink:href="#m90fddbdf26" y="393.431351"/>
      </g>
     </g>
     <g id="text_8">
      <!-- 2 -->
      <g transform="translate(58.6375 397.23057)scale(0.1 -0.1)">
       <use xlink:href="#DejaVuSans-32"/>
      </g>
     </g>
    </g>
    <g id="ytick_3">
     <g id="line2d_9">
      <g>
       <use style="stroke:#000000;stroke-width:0.8;" x="72" xlink:href="#m90fddbdf26" y="312.998919"/>
      </g>
     </g>
     <g id="text_9">
      <!-- 4 -->
      <g transform="translate(58.6375 316.798138)scale(0.1 -0.1)">
       <use xlink:href="#DejaVuSans-34"/>
      </g>
     </g>
    </g>
    <g id="ytick_4">
     <g id="line2d_10">
      <g>
       <use style="stroke:#000000;stroke-width:0.8;" x="72" xlink:href="#m90fddbdf26" y="232.566486"/>
      </g>
     </g>
     <g id="text_10">
      <!-- 6 -->
      <g transform="translate(58.6375 236.365705)scale(0.1 -0.1)">
       <use xlink:href="#DejaVuSans-36"/>
      </g>
     </g>
    </g>
    <g id="ytick_5">
     <g id="line2d_11">
      <g>
       <use style="stroke:#000000;stroke-width:0.8;" x="72" xlink:href="#m90fddbdf26" y="152.134054"/>
      </g>
     </g>
     <g id="text_11">
      <!-- 8 -->
      <g transform="translate(58.6375 155.933273)scale(0.1 -0.1)">
       <use xlink:href="#DejaVuSans-38"/>
      </g>
     </g>
    </g>
    <g id="ytick_6">
     <g id="line2d_12">
      <g>
       <use style="stroke:#000000;stroke-width:0.8;" x="72" xlink:href="#m90fddbdf26" y="71.701622"/>
      </g>
     </g>
     <g id="text_12">
      <!-- 10 -->
      <g transform="translate(52.275 75.50084)scale(0.1 -0.1)">
       <use xlink:href="#DejaVuSans-31"/>
       <use x="63.623047" xlink:href="#DejaVuSans-30"/>
      </g>
     </g>
    </g>
   </g>
   <g id="line2d_13">
    <path clip-path="url(#p95d9200fe3)" d="M 140.367568 389.40973 
" style="fill:none;stroke:#1f77b4;stroke-linecap:square;stroke-width:1.5;"/>
    <defs>
     <path d="M -5 5 
L 5 5 
L 5 -5 
L -5 -5 
z
" id="m932b58bfd5" style="stroke:#8000ff;stroke-linejoin:miter;"/>
    </defs>
    <g clip-path="url(#p95d9200fe3)">
     <use style="fill:#8000ff;stroke:#8000ff;stroke-linejoin:miter;" x="140.367568" xlink:href="#m932b58bfd5" y="389.40973"/>
    </g>
   </g>
   <g id="line2d_14">
    <path clip-path="url(#p95d9200fe3)" d="M 393.72973 192.35027 
" style="fill:none;stroke:#ff7f0e;stroke-linecap:square;stroke-width:1.5;"/>
    <defs>
     <path d="M 0 -5 
L -4.755283 -1.545085 
L -2.938926 4.045085 
L 2.938926 4.045085 
L 4.755283 -1.545085 
z
" id="m8721e8e0af" style="stroke:#8000ff;stroke-linejoin:miter;"/>
    </defs>
    <g clip-path="url(#p95d9200fe3)">
     <use style="fill:#8000ff;stroke:#8000ff;stroke-linejoin:miter;" x="393.72973" xlink:href="#m8721e8e0af" y="192.35027"/>
    </g>
   </g>
   <g id="line2d_15">
    <path clip-path="url(#p95d9200fe3)" d="M 450.032432 192.35027 
" style="fill:none;stroke:#2ca02c;stroke-linecap:square;stroke-width:1.5;"/>
    <defs>
     <path d="M -5 5 
L 5 5 
L 5 -5 
L -5 -5 
z
" id="m83d638ef41" style="stroke:#583dfd;stroke-linejoin:miter;"/>
    </defs>
    <g clip-path="url(#p95d9200fe3)">
     <use style="fill:#583dfd;stroke:#583dfd;stroke-linejoin:miter;" x="450.032432" xlink:href="#m83d638ef41" y="192.35027"/>
    </g>
   </g>
   <g id="line2d_16">
    <path clip-path="url(#p95d9200fe3)" d="M 224.821622 361.258378 
" style="fill:none;stroke:#d62728;stroke-linecap:square;stroke-width:1.5;"/>
    <defs>
     <path d="M 0 -5 
L -4.755283 -1.545085 
L -2.938926 4.045085 
L 2.938926 4.045085 
L 4.755283 -1.545085 
z
" id="mb33921fe09" style="stroke:#583dfd;stroke-linejoin:miter;"/>
    </defs>
    <g clip-path="url(#p95d9200fe3)">
     <use style="fill:#583dfd;stroke:#583dfd;stroke-linejoin:miter;" x="224.821622" xlink:href="#mb33921fe09" y="361.258378"/>
    </g>
   </g>
   <g id="line2d_17">
    <path clip-path="url(#p95d9200fe3)" d="M 402.175135 440.082162 
" style="fill:none;stroke:#9467bd;stroke-linecap:square;stroke-width:1.5;"/>
    <defs>
     <path d="M -5 5 
L 5 5 
L 5 -5 
L -5 -5 
z
" id="m23769fbe68" style="stroke:#3177f8;stroke-linejoin:miter;"/>
    </defs>
    <g clip-path="url(#p95d9200fe3)">
     <use style="fill:#3177f8;stroke:#3177f8;stroke-linejoin:miter;" x="402.175135" xlink:href="#m23769fbe68" y="440.082162"/>
    </g>
   </g>
   <g id="line2d_18">
    <path clip-path="url(#p95d9200fe3)" d="M 224.821622 192.35027 
" style="fill:none;stroke:#8c564b;stroke-linecap:square;stroke-width:1.5;"/>
    <defs>
     <path d="M 0 -5 
L -4.755283 -1.545085 
L -2.938926 4.045085 
L 2.938926 4.045085 
L 4.755283 -1.545085 
z
" id="mc383eaa0d5" style="stroke:#3177f8;stroke-linejoin:miter;"/>
    </defs>
    <g clip-path="url(#p95d9200fe3)">
     <use style="fill:#3177f8;stroke:#3177f8;stroke-linejoin:miter;" x="224.821622" xlink:href="#mc383eaa0d5" y="192.35027"/>
    </g>
   </g>
   <g id="line2d_19">
    <path clip-path="url(#p95d9200fe3)" d="M 224.821622 136.047568 
" style="fill:none;stroke:#e377c2;stroke-linecap:square;stroke-width:1.5;"/>
    <defs>
     <path d="M -5 5 
L 5 5 
L 5 -5 
L -5 -5 
z
" id="m750cf5e864" style="stroke:#0aa9ee;stroke-linejoin:miter;"/>
    </defs>
    <g clip-path="url(#p95d9200fe3)">
     <use style="fill:#0aa9ee;stroke:#0aa9ee;stroke-linejoin:miter;" x="224.821622" xlink:href="#m750cf5e864" y="136.047568"/>
    </g>
   </g>
   <g id="line2d_20">
    <path clip-path="url(#p95d9200fe3)" d="M 393.72973 361.258378 
" style="fill:none;stroke:#7f7f7f;stroke-linecap:square;stroke-width:1.5;"/>
    <defs>
     <path d="M 0 -5 
L -4.755283 -1.545085 
L -2.938926 4.045085 
L 2.938926 4.045085 
L 4.755283 -1.545085 
z
" id="mcf4bffd8fa" style="stroke:#0aa9ee;stroke-linejoin:miter;"/>
    </defs>
    <g clip-path="url(#p95d9200fe3)">
     <use style="fill:#0aa9ee;stroke:#0aa9ee;stroke-linejoin:miter;" x="393.72973" xlink:href="#mcf4bffd8fa" y="361.258378"/>
    </g>
   </g>
   <g id="line2d_21">
    <path clip-path="url(#p95d9200fe3)" d="M 450.032432 304.955676 
" style="fill:none;stroke:#bcbd22;stroke-linecap:square;stroke-width:1.5;"/>
    <defs>
     <path d="M -5 5 
L 5 5 
L 5 -5 
L -5 -5 
z
" id="mdbf191ad0d" style="stroke:#1dd2e2;stroke-linejoin:miter;"/>
    </defs>
    <g clip-path="url(#p95d9200fe3)">
     <use style="fill:#1dd2e2;stroke:#1dd2e2;stroke-linejoin:miter;" x="450.032432" xlink:href="#mdbf191ad0d" y="304.955676"/>
    </g>
   </g>
   <g id="line2d_22">
    <path clip-path="url(#p95d9200fe3)" d="M 196.67027 248.652973 
" style="fill:none;stroke:#17becf;stroke-linecap:square;stroke-width:1.5;"/>
    <defs>
     <path d="M 0 -5 
L -4.755283 -1.545085 
L -2.938926 4.045085 
L 2.938926 4.045085 
L 4.755283 -1.545085 
z
" id="m746f61f1da" style="stroke:#1dd2e2;stroke-linejoin:miter;"/>
    </defs>
    <g clip-path="url(#p95d9200fe3)">
     <use style="fill:#1dd2e2;stroke:#1dd2e2;stroke-linejoin:miter;" x="196.67027" xlink:href="#m746f61f1da" y="248.652973"/>
    </g>
   </g>
   <g id="line2d_23">
    <path clip-path="url(#p95d9200fe3)" d="M 140.367568 248.652973 
" style="fill:none;stroke:#1f77b4;stroke-linecap:square;stroke-width:1.5;"/>
    <defs>
     <path d="M -5 5 
L 5 5 
L 5 -5 
L -5 -5 
z
" id="m981b92769d" style="stroke:#45eed2;stroke-linejoin:miter;"/>
    </defs>
    <g clip-path="url(#p95d9200fe3)">
     <use style="fill:#45eed2;stroke:#45eed2;stroke-linejoin:miter;" x="140.367568" xlink:href="#m981b92769d" y="248.652973"/>
    </g>
   </g>
   <g id="line2d_24">
    <path clip-path="url(#p95d9200fe3)" d="M 393.72973 276.804324 
" style="fill:none;stroke:#ff7f0e;stroke-linecap:square;stroke-width:1.5;"/>
    <defs>
     <path d="M 0 -5 
L -4.755283 -1.545085 
L -2.938926 4.045085 
L 2.938926 4.045085 
L 4.755283 -1.545085 
z
" id="m1eb92bb33a" style="stroke:#45eed2;stroke-linejoin:miter;"/>
    </defs>
    <g clip-path="url(#p95d9200fe3)">
     <use style="fill:#45eed2;stroke:#45eed2;stroke-linejoin:miter;" x="393.72973" xlink:href="#m1eb92bb33a" y="276.804324"/>
    </g>
   </g>
   <g id="line2d_25">
    <path clip-path="url(#p95d9200fe3)" d="M 281.124324 192.35027 
" style="fill:none;stroke:#2ca02c;stroke-linecap:square;stroke-width:1.5;"/>
    <defs>
     <path d="M -5 5 
L 5 5 
L 5 -5 
L -5 -5 
z
" id="m6678d5ab2d" style="stroke:#6cfdbf;stroke-linejoin:miter;"/>
    </defs>
    <g clip-path="url(#p95d9200fe3)">
     <use style="fill:#6cfdbf;stroke:#6cfdbf;stroke-linejoin:miter;" x="281.124324" xlink:href="#m6678d5ab2d" y="192.35027"/>
    </g>
   </g>
   <g id="line2d_26">
    <path clip-path="url(#p95d9200fe3)" d="M 281.124324 333.107027 
" style="fill:none;stroke:#d62728;stroke-linecap:square;stroke-width:1.5;"/>
    <defs>
     <path d="M 0 -5 
L -4.755283 -1.545085 
L -2.938926 4.045085 
L 2.938926 4.045085 
L 4.755283 -1.545085 
z
" id="m76aa2dd832" style="stroke:#6cfdbf;stroke-linejoin:miter;"/>
    </defs>
    <g clip-path="url(#p95d9200fe3)">
     <use style="fill:#6cfdbf;stroke:#6cfdbf;stroke-linejoin:miter;" x="281.124324" xlink:href="#m76aa2dd832" y="333.107027"/>
    </g>
   </g>
   <g id="line2d_27">
    <path clip-path="url(#p95d9200fe3)" d="M 140.367568 304.955676 
" style="fill:none;stroke:#9467bd;stroke-linecap:square;stroke-width:1.5;"/>
    <defs>
     <path d="M -5 5 
L 5 5 
L 5 -5 
L -5 -5 
z
" id="m5cd505aa42" style="stroke:#93fda9;stroke-linejoin:miter;"/>
    </defs>
    <g clip-path="url(#p95d9200fe3)">
     <use style="fill:#93fda9;stroke:#93fda9;stroke-linejoin:miter;" x="140.367568" xlink:href="#m5cd505aa42" y="304.955676"/>
    </g>
   </g>
   <g id="line2d_28">
    <path clip-path="url(#p95d9200fe3)" d="M 309.275676 276.804324 
" style="fill:none;stroke:#8c564b;stroke-linecap:square;stroke-width:1.5;"/>
    <defs>
     <path d="M 0 -5 
L -4.755283 -1.545085 
L -2.938926 4.045085 
L 2.938926 4.045085 
L 4.755283 -1.545085 
z
" id="mb8bc2c37a9" style="stroke:#93fda9;stroke-linejoin:miter;"/>
    </defs>
    <g clip-path="url(#p95d9200fe3)">
     <use style="fill:#93fda9;stroke:#93fda9;stroke-linejoin:miter;" x="309.275676" xlink:href="#mb8bc2c37a9" y="276.804324"/>
    </g>
   </g>
   <g id="line2d_29">
    <path clip-path="url(#p95d9200fe3)" d="M 393.72973 220.501622 
" style="fill:none;stroke:#e377c2;stroke-linecap:square;stroke-width:1.5;"/>
    <defs>
     <path d="M -5 5 
L 5 5 
L 5 -5 
L -5 -5 
z
" id="m983c4aece0" style="stroke:#baee91;stroke-linejoin:miter;"/>
    </defs>
    <g clip-path="url(#p95d9200fe3)">
     <use style="fill:#baee91;stroke:#baee91;stroke-linejoin:miter;" x="393.72973" xlink:href="#m983c4aece0" y="220.501622"/>
    </g>
   </g>
   <g id="line2d_30">
    <path clip-path="url(#p95d9200fe3)" d="M 140.367568 276.804324 
" style="fill:none;stroke:#7f7f7f;stroke-linecap:square;stroke-width:1.5;"/>
    <defs>
     <path d="M 0 -5 
L -4.755283 -1.545085 
L -2.938926 4.045085 
L 2.938926 4.045085 
L 4.755283 -1.545085 
z
" id="mb1c0cae20a" style="stroke:#baee91;stroke-linejoin:miter;"/>
    </defs>
    <g clip-path="url(#p95d9200fe3)">
     <use style="fill:#baee91;stroke:#baee91;stroke-linejoin:miter;" x="140.367568" xlink:href="#mb1c0cae20a" y="276.804324"/>
    </g>
   </g>
   <g id="line2d_31">
    <path clip-path="url(#p95d9200fe3)" d="M 140.367568 136.047568 
" style="fill:none;stroke:#bcbd22;stroke-linecap:square;stroke-width:1.5;"/>
    <defs>
     <path d="M -5 5 
L 5 5 
L 5 -5 
L -5 -5 
z
" id="m149a111feb" style="stroke:#e2d277;stroke-linejoin:miter;"/>
    </defs>
    <g clip-path="url(#p95d9200fe3)">
     <use style="fill:#e2d277;stroke:#e2d277;stroke-linejoin:miter;" x="140.367568" xlink:href="#m149a111feb" y="136.047568"/>
    </g>
   </g>
   <g id="line2d_32">
    <path clip-path="url(#p95d9200fe3)" d="M 252.972973 248.652973 
" style="fill:none;stroke:#17becf;stroke-linecap:square;stroke-width:1.5;"/>
    <defs>
     <path d="M 0 -5 
L -4.755283 -1.545085 
L -2.938926 4.045085 
L 2.938926 4.045085 
L 4.755283 -1.545085 
z
" id="md062ed3a83" style="stroke:#e2d277;stroke-linejoin:miter;"/>
    </defs>
    <g clip-path="url(#p95d9200fe3)">
     <use style="fill:#e2d277;stroke:#e2d277;stroke-linejoin:miter;" x="252.972973" xlink:href="#md062ed3a83" y="248.652973"/>
    </g>
   </g>
   <g id="line2d_33">
    <path clip-path="url(#p95d9200fe3)" d="M 337.427027 164.198919 
" style="fill:none;stroke:#1f77b4;stroke-linecap:square;stroke-width:1.5;"/>
    <defs>
     <path d="M -5 5 
L 5 5 
L 5 -5 
L -5 -5 
z
" id="m00deb9e995" style="stroke:#ffa95a;stroke-linejoin:miter;"/>
    </defs>
    <g clip-path="url(#p95d9200fe3)">
     <use style="fill:#ffa95a;stroke:#ffa95a;stroke-linejoin:miter;" x="337.427027" xlink:href="#m00deb9e995" y="164.198919"/>
    </g>
   </g>
   <g id="line2d_34">
    <path clip-path="url(#p95d9200fe3)" d="M 168.518919 389.40973 
" style="fill:none;stroke:#ff7f0e;stroke-linecap:square;stroke-width:1.5;"/>
    <defs>
     <path d="M 0 -5 
L -4.755283 -1.545085 
L -2.938926 4.045085 
L 2.938926 4.045085 
L 4.755283 -1.545085 
z
" id="m4934e93194" style="stroke:#ffa95a;stroke-linejoin:miter;"/>
    </defs>
    <g clip-path="url(#p95d9200fe3)">
     <use style="fill:#ffa95a;stroke:#ffa95a;stroke-linejoin:miter;" x="168.518919" xlink:href="#m4934e93194" y="389.40973"/>
    </g>
   </g>
   <g id="line2d_35">
    <path clip-path="url(#p95d9200fe3)" d="M 196.67027 445.712432 
" style="fill:none;stroke:#2ca02c;stroke-linecap:square;stroke-width:1.5;"/>
    <defs>
     <path d="M -5 5 
L 5 5 
L 5 -5 
L -5 -5 
z
" id="m5d723abf4b" style="stroke:#ff773d;stroke-linejoin:miter;"/>
    </defs>
    <g clip-path="url(#p95d9200fe3)">
     <use style="fill:#ff773d;stroke:#ff773d;stroke-linejoin:miter;" x="196.67027" xlink:href="#m5d723abf4b" y="445.712432"/>
    </g>
   </g>
   <g id="line2d_36">
    <path clip-path="url(#p95d9200fe3)" d="M 393.72973 136.047568 
" style="fill:none;stroke:#d62728;stroke-linecap:square;stroke-width:1.5;"/>
    <defs>
     <path d="M 0 -5 
L -4.755283 -1.545085 
L -2.938926 4.045085 
L 2.938926 4.045085 
L 4.755283 -1.545085 
z
" id="m8328b1012f" style="stroke:#ff773d;stroke-linejoin:miter;"/>
    </defs>
    <g clip-path="url(#p95d9200fe3)">
     <use style="fill:#ff773d;stroke:#ff773d;stroke-linejoin:miter;" x="393.72973" xlink:href="#m8328b1012f" y="136.047568"/>
    </g>
   </g>
   <g id="line2d_37">
    <path clip-path="url(#p95d9200fe3)" d="M 224.821622 333.107027 
" style="fill:none;stroke:#9467bd;stroke-linecap:square;stroke-width:1.5;"/>
    <defs>
     <path d="M -5 5 
L 5 5 
L 5 -5 
L -5 -5 
z
" id="m1dc5dfc6fa" style="stroke:#ff3d1f;stroke-linejoin:miter;"/>
    </defs>
    <g clip-path="url(#p95d9200fe3)">
     <use style="fill:#ff3d1f;stroke:#ff3d1f;stroke-linejoin:miter;" x="224.821622" xlink:href="#m1dc5dfc6fa" y="333.107027"/>
    </g>
   </g>
   <g id="line2d_38">
    <path clip-path="url(#p95d9200fe3)" d="M 281.124324 164.198919 
" style="fill:none;stroke:#8c564b;stroke-linecap:square;stroke-width:1.5;"/>
    <defs>
     <path d="M 0 -5 
L -4.755283 -1.545085 
L -2.938926 4.045085 
L 2.938926 4.045085 
L 4.755283 -1.545085 
z
" id="m00c9ccfa1f" style="stroke:#ff3d1f;stroke-linejoin:miter;"/>
    </defs>
    <g clip-path="url(#p95d9200fe3)">
     <use style="fill:#ff3d1f;stroke:#ff3d1f;stroke-linejoin:miter;" x="281.124324" xlink:href="#m00c9ccfa1f" y="164.198919"/>
    </g>
   </g>
   <g id="line2d_39">
    <path clip-path="url(#p95d9200fe3)" d="M 281.124324 361.258378 
" style="fill:none;stroke:#e377c2;stroke-linecap:square;stroke-width:1.5;"/>
    <defs>
     <path d="M -5 5 
L 5 5 
L 5 -5 
L -5 -5 
z
" id="m0594fbcc0b" style="stroke:#ff0000;stroke-linejoin:miter;"/>
    </defs>
    <g clip-path="url(#p95d9200fe3)">
     <use style="fill:#ff0000;stroke:#ff0000;stroke-linejoin:miter;" x="281.124324" xlink:href="#m0594fbcc0b" y="361.258378"/>
    </g>
   </g>
   <g id="line2d_40">
    <path clip-path="url(#p95d9200fe3)" d="M 337.427027 276.804324 
" style="fill:none;stroke:#7f7f7f;stroke-linecap:square;stroke-width:1.5;"/>
    <defs>
     <path d="M 0 -5 
L -4.755283 -1.545085 
L -2.938926 4.045085 
L 2.938926 4.045085 
L 4.755283 -1.545085 
z
" id="mb7aa97eb71" style="stroke:#ff0000;stroke-linejoin:miter;"/>
    </defs>
    <g clip-path="url(#p95d9200fe3)">
     <use style="fill:#ff0000;stroke:#ff0000;stroke-linejoin:miter;" x="337.427027" xlink:href="#mb7aa97eb71" y="276.804324"/>
    </g>
   </g>
   <g id="line2d_41"/>
   <g id="line2d_42">
    <path clip-path="url(#p95d9200fe3)" d="M 92.108108 493.971892 
L 92.108108 87.788108 
" style="fill:none;stroke:#000000;stroke-linecap:square;stroke-width:4;"/>
   </g>
   <g id="line2d_43">
    <path clip-path="url(#p95d9200fe3)" d="M 92.108108 87.788108 
L 498.291892 87.788108 
" style="fill:none;stroke:#000000;stroke-linecap:square;stroke-width:4;"/>
   </g>
   <g id="line2d_44">
    <path clip-path="url(#p95d9200fe3)" d="M 498.291892 87.788108 
L 498.291892 493.971892 
" style="fill:none;stroke:#000000;stroke-linecap:square;stroke-width:4;"/>
   </g>
   <g id="line2d_45">
    <path clip-path="url(#p95d9200fe3)" d="M 498.291892 493.971892 
L 92.108108 493.971892 
" style="fill:none;stroke:#000000;stroke-linecap:square;stroke-width:4;"/>
   </g>
   <g id="line2d_46">
    <path clip-path="url(#p95d9200fe3)" d="M 140.367568 389.40973 
L 141.493622 389.40973 
L 143.74573 389.128216 
L 145.997838 388.444541 
L 148.129297 387.439135 
L 150.099892 386.152216 
L 153.920432 383.256649 
L 163.049514 375.816649 
L 174.591568 366.647351 
L 185.932541 357.598703 
L 204.834162 342.598054 
L 216.577297 333.227676 
L 235.68 318.066162 
L 261.498811 297.15373 
L 268.576865 291.443027 
L 269.58227 290.799568 
L 269.783351 290.839784 
L 270.547459 291.483243 
L 272.035459 293.373405 
L 272.920216 295.424432 
L 273.764757 299.003676 
L 273.684324 298.923243 
L 273.523459 298.802595 
L 273.402811 298.802595 
L 273.925622 298.681946 
L 275.413622 297.958054 
L 276.740757 296.872216 
L 277.303784 296.067892 
L 277.303784 296.188541 
L 277.344 296.309189 
L 276.982054 295.866811 
L 275.896216 295.02227 
L 273.925622 294.258162 
L 271.633297 294.057081 
L 269.743135 294.419027 
L 266.968216 295.303784 
L 265.721514 295.384216 
L 265.198703 295.223351 
L 264.434595 294.740757 
L 263.590054 293.856 
L 262.866162 292.68973 
L 262.222703 290.960432 
L 261.860757 288.989838 
L 261.780324 287.059459 
L 261.860757 284.968216 
L 262.825946 275.115243 
L 263.228108 273.627243 
L 263.791135 272.179459 
L 264.474811 270.892541 
L 265.319351 269.605622 
L 266.364973 268.399135 
L 268.054054 266.870919 
L 270.145297 265.584 
L 272.075676 264.659027 
L 278.470054 262.085189 
L 281.687351 260.315676 
L 283.094919 259.430919 
L 286.111135 257.178811 
L 289.56973 254.243027 
L 293.189189 250.784432 
L 300.227027 243.786811 
L 304.128 240.489081 
L 307.626811 237.955459 
L 311.970162 235.260973 
L 318.324324 231.721946 
L 336.099892 222.391784 
L 363.688216 207.994378 
L 375.833514 201.680432 
L 392.483027 192.99373 
L 394.855784 191.787243 
L 394.855784 191.787243 
" style="fill:none;stroke:#8000ff;stroke-linecap:square;stroke-width:1.5;"/>
   </g>
   <g id="line2d_47">
    <path clip-path="url(#p95d9200fe3)" d="M 450.032432 192.35027 
L 450.27373 192.430703 
L 450.394378 192.631784 
L 450.434595 193.154595 
L 450.233514 194.280649 
L 449.509622 195.889297 
L 447.941189 197.900108 
L 446.131459 199.468541 
L 443.919568 201.036973 
L 435.675243 206.38573 
L 429.361297 210.889946 
L 417.296432 219.817946 
L 409.293405 225.689514 
L 399.802378 232.687135 
L 392.442811 238.076108 
L 379.251892 247.768216 
L 365.779459 257.500541 
L 361.717622 260.154811 
L 358.620973 261.803676 
L 357.696 262.125405 
L 356.208 262.326486 
L 355.081946 262.165622 
L 355.081946 262.165622 
L 355.001514 262.004757 
L 354.921081 260.79827 
L 355.081946 259.873297 
L 355.564541 259.390703 
L 356.328649 259.350486 
L 356.368865 259.350486 
L 357.253622 260.195027 
L 358.01773 261.321081 
L 358.339459 262.085189 
L 358.701405 263.814486 
L 358.701405 265.664432 
L 358.419892 269.404541 
L 358.500324 270.530595 
L 358.741622 272.058811 
L 359.184 273.627243 
L 360.832865 278.091243 
L 361.596973 281.067243 
L 361.637189 282.555243 
L 361.436108 284.163892 
L 360.953514 285.812757 
L 359.948108 288.105081 
L 358.299243 290.598486 
L 356.771027 292.488649 
L 355.081946 294.258162 
L 351.502703 297.515676 
L 347.963676 300.411243 
L 344.263784 303.10573 
L 340.201946 305.719784 
L 335.737946 308.253405 
L 327.332757 312.435892 
L 302.398703 324.339892 
L 298.658595 326.109405 
L 298.859676 325.868108 
L 298.739027 326.994162 
L 298.819459 328.120216 
L 299.382486 329.688649 
L 301.111784 332.463568 
L 302.036757 334.032 
L 302.599784 335.640649 
L 302.720432 336.525405 
L 302.720432 337.369946 
L 302.599784 338.294919 
L 302.358486 339.260108 
L 301.875892 340.506811 
L 300.267243 343.362162 
L 297.934703 346.700108 
L 292.183784 354.341189 
L 290.736 355.949838 
L 288.886054 357.558486 
L 286.674162 359.126919 
L 284.261189 360.373622 
L 282.210162 361.177946 
L 280.159135 361.781189 
L 277.786378 362.304 
L 275.091892 362.746378 
L 270.265946 363.228973 
L 265.721514 363.389838 
L 259.005405 363.309405 
L 251.766486 362.987676 
L 245.050378 362.585514 
L 235.438703 361.942054 
L 224.982486 361.258378 
L 224.982486 361.258378 
" style="fill:none;stroke:#583dfd;stroke-linecap:square;stroke-width:1.5;"/>
   </g>
   <g id="line2d_48">
    <path clip-path="url(#p95d9200fe3)" d="M 402.175135 440.082162 
L 401.933838 440.162595 
L 401.893622 440.243027 
L 401.933838 440.041946 
L 402.01427 439.076757 
L 401.692541 437.387676 
L 400.807784 435.296432 
L 399.601297 433.325838 
L 396.70573 429.58573 
L 391.115676 422.346811 
L 351.703784 367.813622 
L 347.60173 362.183351 
L 316.434162 318.910703 
L 315.187459 316.859676 
L 314.101622 314.728216 
L 313.216865 312.435892 
L 311.326703 306.242595 
L 310.482162 304.553514 
L 309.074595 302.824216 
L 307.224649 301.456865 
L 305.29427 300.572108 
L 300.629189 298.64173 
L 297.814054 297.15373 
L 297.291243 296.832 
L 297.411892 296.832 
L 297.532541 296.791784 
L 296.929297 297.274378 
L 295.843459 298.681946 
L 294.918486 300.773189 
L 294.677189 303.065514 
L 294.998919 305.317622 
L 295.2 305.679568 
L 295.642378 306.242595 
L 295.803243 306.966486 
L 295.602162 309.017514 
L 295.039135 311.309838 
L 293.591351 313.682595 
L 291.741405 315.411892 
L 290.092541 316.377081 
L 289.328432 316.015135 
L 288.121946 314.808649 
L 286.915459 312.636973 
L 285.789405 308.655568 
L 286.070919 308.816432 
L 285.910054 308.856649 
L 285.10573 309.379459 
L 283.215568 312.154378 
L 282.572108 312.114162 
L 281.647135 311.712 
L 279.837405 310.384865 
L 278.389622 308.816432 
L 276.499459 306.564324 
L 275.735351 306.121946 
L 274.207135 305.76 
L 272.397405 305.679568 
L 270.708324 305.76 
L 266.726919 306.323027 
L 265.078054 306.92627 
L 263.871568 307.650162 
L 263.750919 307.650162 
L 263.187892 307.529514 
L 262.303135 307.087135 
L 261.056432 305.961081 
L 260.091243 304.754595 
L 257.477189 300.491676 
L 256.069622 298.963459 
L 254.179459 297.596108 
L 252.007784 296.630919 
L 247.463351 295.02227 
L 245.331892 293.856 
L 243.763459 292.569081 
L 242.195027 290.598486 
L 241.109189 288.668108 
L 240.264649 286.657297 
L 237.932108 280.102054 
L 236.806054 277.689081 
L 235.720216 275.919568 
L 234.352865 274.310919 
L 229.245405 269.404541 
L 227.556324 267.273081 
L 226.43027 265.423135 
L 225.344432 263.211243 
L 224.379243 260.677622 
L 223.655351 258.345081 
L 222.730378 253.840865 
L 222.207568 249.296432 
L 221.885838 244.188973 
L 221.805405 237.191351 
L 221.96627 232.124108 
L 222.529297 221.909189 
L 224.982486 190.379676 
L 224.982486 190.379676 
" style="fill:none;stroke:#3177f8;stroke-linecap:square;stroke-width:1.5;"/>
   </g>
   <g id="line2d_49">
    <path clip-path="url(#p95d9200fe3)" d="M 224.821622 136.047568 
L 225.827027 136.087784 
L 227.837838 136.530162 
L 229.728 137.455135 
L 231.698595 139.104 
L 233.226811 140.833297 
L 235.961514 144.533189 
L 240.546162 151.088432 
L 247.624216 160.860973 
L 266.60627 186.840649 
L 270.869189 192.712216 
L 282.893838 209.241081 
L 285.266595 212.096432 
L 286.633946 213.463784 
L 290.132757 216.520216 
L 293.832649 219.576649 
L 297.331459 222.995027 
L 299.34227 225.247135 
L 299.302054 225.247135 
L 301.272649 225.971027 
L 303.082378 226.534054 
L 305.575784 227.459027 
L 307.988757 228.70573 
L 310.200649 230.314378 
L 312.211459 232.124108 
L 316.916757 237.271784 
L 322.989405 244.068324 
L 326.12627 248.130162 
L 328.820757 252.151784 
L 330.831568 255.570162 
L 330.831568 255.570162 
L 331.635892 257.138595 
L 331.475027 256.97773 
L 331.314162 256.937514 
L 331.193514 256.97773 
L 331.635892 256.696216 
L 332.319568 255.932108 
L 333.083676 254.645189 
L 333.646703 252.956108 
L 333.807568 252.151784 
L 333.807568 252.192 
L 333.767351 249.376865 
L 334.008649 249.256216 
L 334.451027 249.216 
L 335.295568 249.256216 
L 336.300973 249.53773 
L 337.467243 250.060541 
L 338.553081 250.744216 
L 342.695351 254.082162 
L 343.98227 254.806054 
L 345.751784 255.409297 
L 348.204973 255.811459 
L 355.001514 256.133189 
L 357.012324 256.696216 
L 359.184 257.741838 
L 361.114378 259.149405 
L 362.843676 260.918919 
L 364.170811 262.648216 
L 365.497946 264.699243 
L 366.825081 267.031784 
L 368.916324 271.415351 
L 370.565189 275.396757 
L 372.214054 279.941189 
L 374.265081 286.617081 
L 376.235676 293.856 
L 394.011243 362.384432 
L 394.011243 362.384432 
" style="fill:none;stroke:#0aa9ee;stroke-linecap:square;stroke-width:1.5;"/>
   </g>
   <g id="line2d_50">
    <path clip-path="url(#p95d9200fe3)" d="M 450.032432 304.955676 
L 449.791135 305.036108 
L 449.670486 305.398054 
L 449.590054 305.196973 
L 448.986811 304.392649 
L 447.699892 303.347027 
L 445.930378 302.46227 
L 443.718486 301.698162 
L 441.184865 301.094919 
L 423.891892 297.797189 
L 393.206919 291.121297 
L 384.037622 289.150703 
L 372.777081 286.697514 
L 358.661189 283.882378 
L 356.449297 283.681297 
L 355.846054 283.76173 
L 355.242811 284.003027 
L 354.317838 284.767135 
L 353.392865 286.134486 
L 352.668973 288.064865 
L 351.623351 295.02227 
L 351.261405 296.268973 
L 350.899459 297.033081 
L 350.376649 297.676541 
L 349.733189 298.199351 
L 348.365838 298.923243 
L 346.556108 299.446054 
L 344.344216 299.647135 
L 341.891027 299.606919 
L 337.065081 299.043892 
L 329.544649 297.917838 
L 328.981622 297.756973 
L 327.051243 296.832 
L 324.115459 295.344 
L 322.386162 294.620108 
L 319.450378 293.735351 
L 317.761297 293.453838 
L 317.84173 293.453838 
L 316.836324 293.815784 
L 314.946162 294.780973 
L 311.728865 296.791784 
L 311.728865 296.791784 
L 307.465946 300.049297 
L 307.747459 299.767784 
L 307.626811 299.566703 
L 307.305081 299.526486 
L 307.184432 299.647135 
L 307.264865 299.526486 
L 307.626811 298.762378 
L 307.787676 298.159135 
L 307.787676 296.952649 
L 307.626811 296.389622 
L 307.224649 295.786378 
L 306.460541 295.102703 
L 305.093189 294.539676 
L 303.001946 294.217946 
L 300.669405 294.298378 
L 295.642378 294.901622 
L 294.838054 294.660324 
L 293.591351 294.097297 
L 292.103351 293.132108 
L 288.765405 290.236541 
L 285.025297 286.898595 
L 281.003676 283.842162 
L 277.746162 281.871568 
L 277.102703 281.549838 
L 277.303784 281.549838 
L 276.338595 282.032432 
L 274.931027 283.11827 
L 272.397405 285.692108 
L 271.753946 286.09427 
L 271.311568 286.054054 
L 270.265946 285.692108 
L 269.019243 284.726919 
L 267.651892 282.876973 
L 266.726919 280.544432 
L 265.721514 276.32173 
L 264.957405 274.512 
L 263.992216 273.104432 
L 262.745514 271.85773 
L 261.016216 270.691459 
L 259.488 269.927351 
L 257.919568 269.404541 
L 255.868541 269.082811 
L 254.943568 269.042595 
L 253.737081 269.404541 
L 251.203459 270.771892 
L 248.026378 272.782703 
L 246.659027 273.546811 
L 245.010162 274.230486 
L 243.321081 274.632649 
L 241.350486 274.83373 
L 238.816865 274.753297 
L 236.162595 274.270703 
L 233.830054 273.546811 
L 231.859459 272.782703 
L 229.40627 271.616432 
L 225.384649 269.364324 
L 219.513081 265.624216 
L 213.36 261.280865 
L 195.82573 248.009514 
L 195.82573 248.009514 
" style="fill:none;stroke:#1dd2e2;stroke-linecap:square;stroke-width:1.5;"/>
   </g>
   <g id="line2d_51">
    <path clip-path="url(#p95d9200fe3)" d="M 140.367568 248.652973 
L 143.826162 248.693189 
L 149.174919 249.055135 
L 159.309405 250.221405 
L 176.079568 252.151784 
L 185.168432 253.157189 
L 211.510054 256.173405 
L 230.934486 258.224432 
L 234.111568 258.666811 
L 238.173405 259.672216 
L 244.768865 261.642811 
L 247.061189 262.165622 
L 249.433946 262.567784 
L 253.938162 262.768865 
L 260.332541 262.246054 
L 261.458595 262.246054 
L 261.619459 262.366703 
L 261.659676 262.487351 
L 261.699892 264.900324 
L 261.900973 265.584 
L 262.745514 266.991568 
L 262.866162 267.152432 
L 262.78573 267.072 
L 267.008432 268.841514 
L 268.214919 269.525189 
L 269.340973 270.490378 
L 273.362595 276 
L 273.161514 276.241297 
L 272.839784 276.241297 
L 272.397405 275.879351 
L 271.914811 275.235892 
L 271.472432 274.109838 
L 271.432216 273.024 
L 271.552865 272.179459 
L 272.276757 270.611027 
L 272.719135 269.565405 
L 273.040865 267.916541 
L 272.920216 265.664432 
L 272.518054 263.331892 
L 272.357189 260.114595 
L 272.397405 259.873297 
L 272.920216 259.350486 
L 274.368 258.46573 
L 277.02227 257.661405 
L 279.435243 257.621189 
L 286.633946 258.666811 
L 291.178378 258.867892 
L 293.430486 258.787459 
L 295.602162 258.505946 
L 297.170595 258.144 
L 298.296649 257.580973 
L 299.623784 256.374486 
L 300.870486 254.685405 
L 302.197622 252.352865 
L 303.564973 250.301838 
L 305.133405 248.612757 
L 306.983351 247.366054 
L 308.953946 246.56173 
L 311.366919 245.998703 
L 313.538595 245.797622 
L 315.991784 245.837838 
L 318.444973 246.079135 
L 322.949189 246.843243 
L 327.413189 247.888865 
L 338.874811 250.744216 
L 341.207351 251.065946 
L 343.580108 251.226811 
L 348.687568 251.186595 
L 350.819027 251.106162 
L 353.272216 251.226811 
L 355.685189 251.508324 
L 358.098162 251.990919 
L 360.430703 252.755027 
L 362.682811 253.68 
L 364.854486 254.765838 
L 369.439135 257.580973 
L 373.380324 260.436324 
L 379.131243 264.860108 
L 390.954811 274.512 
L 394.493838 277.407568 
L 394.493838 277.407568 
" style="fill:none;stroke:#45eed2;stroke-linecap:square;stroke-width:1.5;"/>
   </g>
   <g id="line2d_52">
    <path clip-path="url(#p95d9200fe3)" d="M 281.124324 192.35027 
L 281.526486 192.390486 
L 282.12973 192.631784 
L 282.732973 193.074162 
L 283.416649 193.918703 
L 284.422054 195.849081 
L 284.904649 197.819676 
L 285.145946 200.232649 
L 285.145946 202.645622 
L 285.025297 205.340108 
L 284.864432 207.712865 
L 284.703568 210.125838 
L 284.582919 212.257297 
L 284.46227 214.388757 
L 284.381838 216.80173 
L 284.301405 219.214703 
L 284.220973 221.346162 
L 284.180757 223.759135 
L 284.100324 226.172108 
L 284.060108 228.343784 
L 283.979676 230.756757 
L 283.899243 233.411027 
L 283.818811 235.824 
L 283.778595 238.236973 
L 283.698162 240.649946 
L 283.61773 243.344432 
L 283.577514 245.475892 
L 283.497081 247.888865 
L 283.416649 250.301838 
L 283.376432 252.433297 
L 283.296 255.127784 
L 283.215568 257.540757 
L 283.135135 260.235243 
L 283.094919 262.648216 
L 283.014486 265.302486 
L 282.97427 267.996973 
L 282.934054 270.409946 
L 282.934054 272.822919 
L 282.893838 274.954378 
L 282.853622 277.648865 
L 282.853622 279.780324 
L 282.773189 282.193297 
L 282.732973 284.60627 
L 282.652541 286.777946 
L 282.572108 289.190919 
L 282.491676 291.563676 
L 282.411243 293.976649 
L 282.371027 296.148324 
L 282.290595 298.561297 
L 282.210162 300.97427 
L 282.169946 303.628541 
L 282.169946 306.041514 
L 282.169946 308.454486 
L 282.210162 310.585946 
L 282.250378 313.280432 
L 282.250378 315.693405 
L 282.290595 318.629189 
L 282.290595 321.283459 
L 282.371027 323.414919 
L 282.451459 324.661622 
L 282.451459 324.701838 
L 282.371027 324.621405 
L 282.732973 324.943135 
L 283.979676 325.506162 
L 285.95027 325.546378 
L 288.323027 325.063784 
L 290.454486 324.621405 
L 291.90227 324.420324 
L 292.706595 324.339892 
L 292.827243 324.299676 
L 292.907676 324.299676 
L 293.028324 324.339892 
L 293.148973 324.420324 
L 293.189189 324.500757 
L 293.229405 324.581189 
L 293.309838 325.144216 
L 293.108757 326.551784 
L 292.505514 328.039784 
L 291.379459 329.88973 
L 289.931676 331.739676 
L 288.08173 333.71027 
L 286.473081 335.158054 
L 284.985081 336.284108 
L 283.456865 337.209081 
L 282.451459 337.571027 
L 282.169946 337.651459 
L 282.089514 337.651459 
L 282.049297 337.651459 
L 281.566703 337.410162 
L 280.923243 337.008 
L 280.400432 336.525405 
L 280.32 336.364541 
L 280.279784 336.324324 
L 280.199351 336.002595 
L 280.118919 335.117838 
L 280.239568 334.273297 
" style="fill:none;stroke:#6cfdbf;stroke-linecap:square;stroke-width:1.5;"/>
   </g>
   <g id="line2d_53">
    <path clip-path="url(#p95d9200fe3)" d="M 140.367568 304.955676 
L 141.372973 304.955676 
L 144.308757 304.875243 
L 146.963027 304.633946 
L 149.335784 304.312216 
L 151.708541 303.910054 
L 154.081297 303.507892 
L 155.931243 303.186162 
L 158.585514 302.703568 
L 160.676757 302.341622 
L 163.331027 301.859027 
L 165.985297 301.416649 
L 168.076541 301.054703 
L 170.449297 300.652541 
L 172.580757 300.290595 
L 174.953514 299.848216 
L 177.084973 299.48627 
L 179.980541 299.003676 
L 182.353297 298.601514 
L 184.484757 298.239568 
L 186.576 297.877622 
L 188.988973 297.475459 
L 191.36173 297.073297 
L 193.734486 296.630919 
L 196.348541 296.188541 
L 198.761514 295.786378 
L 200.852757 295.424432 
L 203.225514 295.02227 
L 205.879784 294.539676 
L 208.252541 294.137514 
L 210.906811 293.695135 
L 212.756757 293.373405 
L 215.652324 292.890811 
L 217.783784 292.528865 
L 220.156541 292.126703 
L 222.810811 291.684324 
L 225.183568 291.322378 
L 227.315027 290.960432 
L 229.687784 290.598486 
L 231.819243 290.276757 
L 234.192 289.914811 
L 236.604973 289.552865 
L 238.97773 289.231135 
L 241.390703 288.909405 
L 243.481946 288.668108 
L 245.653622 288.426811 
L 248.066595 288.185514 
L 250.479568 288.024649 
L 252.892541 287.944216 
L 255.024 287.904 
L 257.718486 287.904 
L 259.890162 287.944216 
L 262.262919 287.984432 
L 264.153081 287.984432 
L 266.566054 287.904 
L 269.220324 287.743135 
L 271.633297 287.58227 
L 274.04627 287.381189 
L 276.419027 287.220324 
L 278.590703 287.059459 
L 281.003676 286.938811 
L 283.416649 286.979027 
L 285.869838 287.260541 
L 288.524108 287.984432 
L 290.736 288.909405 
L 292.988108 289.753946 
L 295.280432 290.397405 
L 297.612973 290.678919 
L 299.704216 290.638703 
L 302.278054 290.196324 
L 304.409514 289.311568 
L 306.138811 288.145297 
L 307.787676 286.496432 
L 309.114811 284.284541 
L 309.878919 282.072649 
L 310.200649 279.740108 
L 310.120216 277.367351 
L 309.677838 274.793514 
" style="fill:none;stroke:#93fda9;stroke-linecap:square;stroke-width:1.5;"/>
   </g>
   <g id="line2d_54">
    <path clip-path="url(#p95d9200fe3)" d="M 393.72973 220.501622 
L 393.971027 220.582054 
L 394.091676 220.903784 
L 393.971027 221.26573 
L 393.327568 222.190703 
L 391.759135 223.437405 
L 389.788541 224.362378 
L 387.456 224.965622 
L 382.750703 225.689514 
L 377.964973 226.373189 
L 370.605405 227.820973 
L 358.580757 230.435027 
L 347.038703 232.888216 
L 311.648432 240.448865 
L 309.315892 241.011892 
L 307.104 241.695568 
L 305.052973 242.660757 
L 303.283459 244.068324 
L 301.835676 246.159568 
L 300.025946 250.261622 
L 298.940108 251.990919 
L 298.176 252.915892 
L 296.848865 253.961514 
L 296.768432 253.961514 
L 296.285838 253.760432 
L 295.52173 253.116973 
L 294.677189 251.709405 
L 293.792432 249.336649 
L 292.947892 247.888865 
L 292.304432 247.205189 
L 291.138162 246.601946 
L 289.408865 246.24 
L 287.237189 246.360649 
L 284.904649 246.762811 
L 280.480865 247.768216 
L 276.740757 248.371459 
L 274.649514 248.411676 
L 273.965838 248.291027 
L 273.081081 247.929081 
L 272.115892 247.245405 
L 271.874595 246.722595 
L 271.71373 246.038919 
L 271.673514 245.234595 
L 271.794162 244.188973 
L 272.799568 241.293405 
L 272.920216 241.052108 
L 272.88 241.212973 
L 272.598486 239.081514 
L 272.075676 237.673946 
L 271.71373 236.909838 
L 270.22573 234.577297 
L 268.496432 232.365405 
L 267.611676 231.440432 
L 266.445405 230.394811 
L 263.911784 228.625297 
L 262.383568 227.780757 
L 260.65427 227.016649 
L 258.482595 226.212324 
L 255.989189 225.448216 
L 251.565405 224.563459 
L 249.192649 224.281946 
L 246.819892 224.161297 
L 244.165622 224.201514 
L 241.511351 224.483027 
L 238.656 225.005838 
L 233.830054 226.453622 
L 229.366054 228.223135 
L 224.982486 230.233946 
L 220.679351 232.405622 
L 212.19373 236.99027 
L 169.04173 260.918919 
L 140.448 276.764108 
L 140.448 276.764108 
" style="fill:none;stroke:#baee91;stroke-linecap:square;stroke-width:1.5;"/>
   </g>
   <g id="line2d_55">
    <path clip-path="url(#p95d9200fe3)" d="M 140.367568 136.047568 
L 141.453405 136.047568 
L 143.826162 136.44973 
L 146.319568 137.414919 
L 148.611892 138.943135 
L 150.622703 140.752865 
L 152.271568 142.522378 
L 153.920432 144.332108 
L 155.328 145.940757 
L 156.936649 147.71027 
L 158.746378 149.680865 
L 160.234378 151.249297 
L 162.044108 153.179676 
L 163.733189 154.949189 
L 165.221189 156.517622 
L 166.870054 158.246919 
L 168.358054 159.815351 
L 170.006919 161.544649 
L 171.856865 163.475027 
L 173.706811 165.405405 
L 175.395892 167.174919 
L 177.245838 169.105297 
L 178.894703 170.874811 
L 180.543568 172.604108 
L 182.232649 174.373622 
L 183.881514 176.102919 
L 185.570595 177.872432 
L 187.219459 179.60173 
L 189.069405 181.532108 
L 190.71827 183.301622 
L 192.407351 185.030919 
L 194.056216 186.800432 
L 195.705081 188.52973 
L 197.394162 190.259027 
L 199.244108 192.229622 
L 200.732108 193.757838 
L 202.179892 195.32627 
L 203.667892 196.894703 
L 205.316757 198.624 
L 207.005838 200.353297 
L 208.654703 202.122811 
L 210.343784 203.852108 
L 211.992649 205.621622 
L 213.641514 207.350919 
L 215.330595 209.120432 
L 216.979459 210.84973 
L 218.467459 212.418162 
L 220.116324 214.147459 
L 221.604324 215.715892 
L 223.45427 217.64627 
L 225.304216 219.576649 
L 227.154162 221.547243 
L 229.004108 223.477622 
L 230.652973 225.247135 
L 232.663784 227.378595 
L 234.151784 228.947027 
L 235.961514 230.917622 
L 237.409297 232.486054 
L 239.259243 234.456649 
L 241.068973 236.427243 
L 242.758054 238.156541 
L 244.406919 239.885838 
L 245.894919 241.45427 
L 247.785081 243.344432 
L 249.675243 245.234595 
L 251.364324 246.803027 
L 252.530595 247.929081 
" style="fill:none;stroke:#e2d277;stroke-linecap:square;stroke-width:1.5;"/>
   </g>
   <g id="line2d_56">
    <path clip-path="url(#p95d9200fe3)" d="M 337.427027 164.198919 
L 337.668324 164.279351 
L 337.909622 164.761946 
L 338.03027 165.807568 
L 337.829189 167.295568 
L 336.783568 169.949838 
L 335.818378 171.558486 
L 334.410811 173.488865 
L 330.831568 177.711568 
L 327.734919 181.411459 
L 324.718703 185.191784 
L 319.048216 192.672 
L 314.624432 198.422919 
L 295.159784 224.000432 
L 292.425081 227.941622 
L 291.017514 230.233946 
L 289.891459 232.325189 
L 284.784 243.143351 
L 283.859027 245.315027 
L 280.762378 254.162595 
L 279.475459 256.535351 
L 277.303784 260.154811 
L 277.303784 260.034162 
L 277.384216 260.516757 
L 277.786378 261.401514 
L 279.435243 263.211243 
L 281.687351 264.779676 
L 283.939459 266.710054 
L 284.140541 267.39373 
L 284.100324 268.841514 
L 283.296 271.21427 
L 281.727568 273.546811 
L 278.751568 276.844541 
L 278.791784 276.683676 
L 278.751568 276.482595 
L 279.596108 277.126054 
L 281.647135 278.010811 
L 283.979676 278.372757 
L 286.070919 278.412973 
L 287.237189 279.217297 
L 287.679568 279.659676 
L 287.679568 279.659676 
L 287.76 279.941189 
L 288.483892 281.429189 
L 289.650162 282.756324 
L 289.529514 282.756324 
L 290.655568 282.595459 
L 292.304432 281.992216 
L 293.832649 280.906378 
L 294.315243 280.262919 
L 294.315243 280.343351 
L 294.395676 280.665081 
L 293.551135 280.061838 
L 290.937081 279.056432 
L 288.684973 278.976 
L 286.995892 279.337946 
L 286.59373 279.780324 
L 285.829622 281.067243 
L 285.226378 283.078054 
L 284.100324 287.622486 
L 283.456865 289.472432 
L 283.456865 289.432216 
L 283.778595 290.960432 
L 283.738378 291.523459 
L 283.497081 291.684324 
L 282.773189 291.724541 
L 280.159135 291.362595 
L 277.907027 290.276757 
L 276.217946 288.788757 
L 275.53427 287.622486 
L 275.654919 287.944216 
L 275.132108 287.662703 
L 273.443027 287.139892 
L 268.456216 286.013838 
L 266.928 285.812757 
L 265.681297 285.933405 
L 263.911784 286.496432 
L 260.332541 288.22573 
L 257.436973 289.150703 
L 254.943568 289.311568 
L 250.680649 288.909405 
L 248.307892 288.949622 
L 246.256865 289.311568 
L 244.004757 290.075676 
L 241.913514 291.161514 
L 239.983135 292.528865 
L 238.173405 294.057081 
L 234.795243 297.475459 
L 227.194378 305.76 
L 225.424865 307.770811 
L 220.840216 313.682595 
L 215.411027 321.323676 
L 203.989622 337.892757 
L 167.955892 390.214054 
L 167.955892 390.214054 
" style="fill:none;stroke:#ffa95a;stroke-linecap:square;stroke-width:1.5;"/>
   </g>
   <g id="line2d_57">
    <path clip-path="url(#p95d9200fe3)" d="M 196.67027 445.712432 
L 197.514811 445.672216 
L 199.123459 445.229838 
L 200.490811 444.46573 
L 202.220108 443.017946 
L 203.788541 441.208216 
L 205.356973 439.036541 
L 207.850378 434.974703 
L 213.842595 425.12173 
L 218.789189 417.158919 
L 232.945297 394.396541 
L 238.33427 385.709838 
L 242.154811 379.596973 
L 251.645838 364.314811 
L 256.753297 356.150919 
L 267.370378 339.059027 
L 270.467027 334.393946 
L 271.07027 333.750486 
L 271.030054 333.871135 
L 271.07027 334.072216 
L 270.949622 333.951568 
L 270.306162 333.468973 
L 266.284541 332.262486 
L 266.043243 331.779892 
L 265.76173 330.573405 
L 265.76173 329.085405 
L 266.204108 326.712649 
L 267.169297 324.179027 
L 270.547459 317.221622 
L 270.788757 317.060757 
L 272.960432 316.336865 
L 274.327784 315.452108 
L 277.02227 313.039135 
L 277.344 312.435892 
L 277.303784 311.591351 
L 277.062486 310.706595 
L 276.137514 309.138162 
L 273.684324 305.920865 
L 272.638703 304.432865 
L 271.633297 303.387243 
L 270.265946 302.381838 
L 268.617081 301.698162 
L 266.324757 301.135135 
L 263.710703 300.692757 
L 263.027027 300.491676 
L 262.303135 300.12973 
L 261.539027 299.566703 
L 260.815135 298.842811 
L 260.211892 297.958054 
L 259.689081 296.832 
L 259.286919 295.424432 
L 259.045622 293.815784 
L 258.764108 290.316973 
L 258 288.22573 
L 256.592432 286.416 
L 253.013189 283.399784 
L 251.806703 282.072649 
L 251.324108 281.187892 
L 251.042595 280.102054 
L 250.962162 278.694486 
L 251.243676 276.965189 
L 251.967568 274.954378 
L 252.972973 272.903351 
L 257.758703 265.382919 
L 258.563027 264.860108 
L 260.131459 264.377514 
L 262.624865 264.297081 
L 265.037838 264.900324 
L 267.169297 265.704649 
L 268.73773 266.147027 
L 269.622486 266.187243 
L 269.501838 266.227459 
L 270.145297 265.785081 
L 271.633297 264.055784 
L 272.477838 262.205838 
L 273.443027 257.902703 
L 274.649514 255.449514 
L 276.378811 253.639784 
L 278.228757 252.433297 
L 282.451459 250.100757 
L 284.46227 248.813838 
L 286.553514 247.205189 
L 288.363243 245.636757 
L 291.942486 242.017297 
L 305.213838 227.981838 
L 336.260757 195.728432 
L 350.014703 181.451676 
L 383.836541 146.302703 
L 393.890595 135.886703 
L 393.890595 135.886703 
" style="fill:none;stroke:#ff773d;stroke-linecap:square;stroke-width:1.5;"/>
   </g>
   <g id="line2d_58">
    <path clip-path="url(#p95d9200fe3)" d="M 224.821622 333.107027 
L 225.223784 333.066811 
L 226.108541 332.785297 
L 227.113946 332.141838 
L 228.24 330.935351 
L 229.366054 329.206054 
L 230.411676 327.155027 
L 231.256216 324.943135 
L 232.100757 322.409514 
L 232.704 320.358486 
L 233.387676 318.066162 
L 233.990919 316.015135 
L 234.714811 313.682595 
L 235.398486 311.39027 
L 236.122378 309.05773 
L 236.84627 306.765405 
L 237.449514 304.714378 
L 238.173405 302.422054 
L 238.97773 299.848216 
L 239.782054 297.314595 
L 240.425514 295.263568 
L 241.028757 293.212541 
L 241.752649 290.88 
L 242.476541 288.587676 
L 243.200432 286.295351 
L 244.004757 283.721514 
L 244.608 281.670486 
L 245.412324 279.136865 
L 246.136216 276.804324 
L 246.860108 274.512 
L 247.664432 271.938162 
L 248.348108 269.645838 
L 249.072 267.353514 
L 249.876324 264.779676 
L 250.600216 262.487351 
L 251.364324 260.195027 
L 252.168649 257.902703 
L 252.972973 255.891892 
L 254.139243 253.438703 
L 255.34573 251.347459 
L 256.793514 249.095351 
L 258.080432 247.084541 
L 259.327135 245.033514 
L 260.332541 243.143351 
L 261.378162 240.730378 
L 261.981405 238.719568 
L 262.383568 236.387027 
L 262.423784 234.01427 
L 262.303135 231.882811 
L 262.14227 229.228541 
L 262.14227 226.775351 
L 262.343351 224.603676 
L 262.745514 222.190703 
L 263.308541 219.817946 
L 264.032432 217.244108 
L 264.876973 214.67027 
L 265.641081 212.377946 
L 266.324757 210.367135 
L 267.209514 207.833514 
L 267.973622 205.541189 
L 268.697514 203.248865 
L 269.381189 201.197838 
L 270.185514 198.664216 
L 270.989838 196.090378 
L 271.834378 193.556757 
L 272.55827 191.264432 
L 273.282162 188.931892 
L 274.006054 186.639568 
L 274.729946 184.347243 
L 275.53427 181.773405 
L 276.17773 179.762595 
L 277.02227 177.188757 
L 277.746162 174.896432 
L 278.470054 172.604108 
L 279.354811 169.788973 
L 279.99827 167.737946 
L 280.722162 165.445622 
L 281.446054 163.153297 
" style="fill:none;stroke:#ff3d1f;stroke-linecap:square;stroke-width:1.5;"/>
   </g>
   <g id="line2d_59">
    <path clip-path="url(#p95d9200fe3)" d="M 281.124324 361.258378 
L 281.727568 361.218162 
L 283.336216 360.896432 
L 284.904649 360.172541 
L 286.674162 358.805189 
L 288.282811 357.116108 
L 289.730595 355.225946 
L 291.339243 352.772757 
L 292.425081 350.963027 
L 293.631568 348.871784 
L 294.838054 346.780541 
L 296.084757 344.689297 
L 297.170595 342.879568 
L 298.537946 340.547027 
L 299.945514 338.254703 
L 301.192216 336.203676 
L 302.599784 333.911351 
L 303.846486 331.860324 
L 304.972541 330.050595 
L 306.219243 327.959351 
L 307.345297 326.149622 
L 308.592 324.098595 
L 309.999568 321.80627 
L 311.24627 319.715027 
L 312.372324 317.905297 
L 313.619027 315.85427 
L 314.86573 313.763027 
L 316.273297 311.510919 
L 317.52 309.419676 
L 318.927568 307.127351 
L 320.053622 305.317622 
L 321.179676 303.467676 
L 322.547027 301.175351 
L 323.954595 298.923243 
L 325.201297 296.832 
L 326.448 294.780973 
L 327.574054 292.931027 
L 328.820757 290.88 
L 330.107676 288.828973 
L 331.354378 286.777946 
L 332.761946 284.485622 
L 334.008649 282.434595 
L 335.255351 280.343351 
L 336.502054 278.292324 
L 337.788973 276.241297 
" style="fill:none;stroke:#ff0000;stroke-linecap:square;stroke-width:1.5;"/>
   </g>
   <g id="patch_3">
    <path d="M 72 512.64 
L 72 69.12 
" style="fill:none;stroke:#000000;stroke-linecap:square;stroke-linejoin:miter;stroke-width:0.8;"/>
   </g>
   <g id="patch_4">
    <path d="M 518.4 512.64 
L 518.4 69.12 
" style="fill:none;stroke:#000000;stroke-linecap:square;stroke-linejoin:miter;stroke-width:0.8;"/>
   </g>
   <g id="patch_5">
    <path d="M 72 512.64 
L 518.4 512.64 
" style="fill:none;stroke:#000000;stroke-linecap:square;stroke-linejoin:miter;stroke-width:0.8;"/>
   </g>
   <g id="patch_6">
    <path d="M 72 69.12 
L 518.4 69.12 
" style="fill:none;stroke:#000000;stroke-linecap:square;stroke-linejoin:miter;stroke-width:0.8;"/>
   </g>
   <g id="text_13">
    <!-- 1 -->
    <defs>
     <path d="M 14.203125 0 
L 14.203125 5.171875 
L 26.90625 5.171875 
L 26.90625 65.828125 
L 12.203125 56.296875 
L 12.203125 62.703125 
L 29.984375 74.21875 
L 36.71875 74.21875 
L 36.71875 5.171875 
L 49.421875 5.171875 
L 49.421875 0 
z
" id="DejaVuSerif-31"/>
    </defs>
    <g transform="translate(137.186318 389.40973)scale(0.1 -0.1)">
     <use xlink:href="#DejaVuSerif-31"/>
    </g>
   </g>
   <g id="text_14">
    <!-- 1 -->
    <g transform="translate(390.54848 192.35027)scale(0.1 -0.1)">
     <use xlink:href="#DejaVuSerif-31"/>
    </g>
   </g>
   <g id="text_15">
    <!-- 2 -->
    <defs>
     <path d="M 12.796875 55.515625 
L 7.328125 55.515625 
L 7.328125 68.5 
Q 12.546875 71.296875 17.84375 72.75 
Q 23.140625 74.21875 28.21875 74.21875 
Q 39.59375 74.21875 46.1875 68.703125 
Q 52.78125 63.1875 52.78125 53.71875 
Q 52.78125 43.015625 37.84375 28.125 
Q 36.671875 27 36.078125 26.421875 
L 17.671875 8.015625 
L 48.09375 8.015625 
L 48.09375 17 
L 53.8125 17 
L 53.8125 0 
L 6.78125 0 
L 6.78125 5.328125 
L 28.90625 27.390625 
Q 36.234375 34.71875 39.359375 40.84375 
Q 42.484375 46.96875 42.484375 53.71875 
Q 42.484375 61.078125 38.640625 65.234375 
Q 34.8125 69.390625 28.078125 69.390625 
Q 21.09375 69.390625 17.28125 65.921875 
Q 13.484375 62.453125 12.796875 55.515625 
z
" id="DejaVuSerif-32"/>
    </defs>
    <g transform="translate(446.851182 192.35027)scale(0.1 -0.1)">
     <use xlink:href="#DejaVuSerif-32"/>
    </g>
   </g>
   <g id="text_16">
    <!-- 2 -->
    <g transform="translate(221.640372 361.258378)scale(0.1 -0.1)">
     <use xlink:href="#DejaVuSerif-32"/>
    </g>
   </g>
   <g id="text_17">
    <!-- 3 -->
    <defs>
     <path d="M 9.71875 69.828125 
Q 15.4375 71.96875 20.671875 73.09375 
Q 25.921875 74.21875 30.515625 74.21875 
Q 41.21875 74.21875 47.21875 69.59375 
Q 53.21875 64.984375 53.21875 56.78125 
Q 53.21875 50.203125 49.0625 45.78125 
Q 44.921875 41.359375 37.3125 39.796875 
Q 46.296875 38.53125 51.25 33.28125 
Q 56.203125 28.03125 56.203125 19.671875 
Q 56.203125 9.46875 49.34375 4.015625 
Q 42.484375 -1.421875 29.59375 -1.421875 
Q 23.875 -1.421875 18.421875 -0.1875 
Q 12.984375 1.03125 7.625 3.515625 
L 7.625 17.671875 
L 13.09375 17.671875 
Q 13.578125 10.640625 17.828125 7.03125 
Q 22.078125 3.421875 29.78125 3.421875 
Q 37.25 3.421875 41.578125 7.734375 
Q 45.90625 12.0625 45.90625 19.578125 
Q 45.90625 28.171875 41.453125 32.59375 
Q 37.015625 37.015625 28.421875 37.015625 
L 23.78125 37.015625 
L 23.78125 42 
L 26.21875 42 
Q 34.765625 42 39.03125 45.53125 
Q 43.3125 49.078125 43.3125 56.203125 
Q 43.3125 62.59375 39.796875 65.984375 
Q 36.28125 69.390625 29.6875 69.390625 
Q 23.09375 69.390625 19.453125 66.265625 
Q 15.828125 63.140625 15.1875 56.984375 
L 9.71875 56.984375 
z
" id="DejaVuSerif-33"/>
    </defs>
    <g transform="translate(398.993885 440.082162)scale(0.1 -0.1)">
     <use xlink:href="#DejaVuSerif-33"/>
    </g>
   </g>
   <g id="text_18">
    <!-- 3 -->
    <g transform="translate(221.640372 192.35027)scale(0.1 -0.1)">
     <use xlink:href="#DejaVuSerif-33"/>
    </g>
   </g>
   <g id="text_19">
    <!-- 4 -->
    <defs>
     <path d="M 34.90625 24.703125 
L 34.90625 63.484375 
L 10.015625 24.703125 
z
M 56.390625 0 
L 23.1875 0 
L 23.1875 5.171875 
L 34.90625 5.171875 
L 34.90625 19.484375 
L 3.078125 19.484375 
L 3.078125 24.8125 
L 35.015625 74.21875 
L 44.671875 74.21875 
L 44.671875 24.703125 
L 58.59375 24.703125 
L 58.59375 19.484375 
L 44.671875 19.484375 
L 44.671875 5.171875 
L 56.390625 5.171875 
z
" id="DejaVuSerif-34"/>
    </defs>
    <g transform="translate(221.640372 136.047568)scale(0.1 -0.1)">
     <use xlink:href="#DejaVuSerif-34"/>
    </g>
   </g>
   <g id="text_20">
    <!-- 4 -->
    <g transform="translate(390.54848 361.258378)scale(0.1 -0.1)">
     <use xlink:href="#DejaVuSerif-34"/>
    </g>
   </g>
   <g id="text_21">
    <!-- 5 -->
    <defs>
     <path d="M 50.296875 72.90625 
L 50.296875 64.890625 
L 16.890625 64.890625 
L 16.890625 44 
Q 19.4375 45.75 22.828125 46.625 
Q 26.21875 47.515625 30.421875 47.515625 
Q 42.234375 47.515625 49.0625 40.96875 
Q 55.90625 34.421875 55.90625 23.09375 
Q 55.90625 11.53125 49 5.046875 
Q 42.09375 -1.421875 29.59375 -1.421875 
Q 24.5625 -1.421875 19.28125 -0.1875 
Q 14.015625 1.03125 8.5 3.515625 
L 8.5 17.671875 
L 14.015625 17.671875 
Q 14.453125 10.75 18.421875 7.078125 
Q 22.40625 3.421875 29.59375 3.421875 
Q 37.3125 3.421875 41.453125 8.5 
Q 45.609375 13.578125 45.609375 23.09375 
Q 45.609375 32.5625 41.484375 37.609375 
Q 37.359375 42.671875 29.59375 42.671875 
Q 25.203125 42.671875 21.84375 41.109375 
Q 18.5 39.546875 15.921875 36.28125 
L 11.71875 36.28125 
L 11.71875 72.90625 
z
" id="DejaVuSerif-35"/>
    </defs>
    <g transform="translate(446.851182 304.955676)scale(0.1 -0.1)">
     <use xlink:href="#DejaVuSerif-35"/>
    </g>
   </g>
   <g id="text_22">
    <!-- 5 -->
    <g transform="translate(193.48902 248.652973)scale(0.1 -0.1)">
     <use xlink:href="#DejaVuSerif-35"/>
    </g>
   </g>
   <g id="text_23">
    <!-- 6 -->
    <defs>
     <path d="M 32.71875 3.421875 
Q 39.59375 3.421875 43.296875 8.46875 
Q 47.015625 13.53125 47.015625 23 
Q 47.015625 32.46875 43.296875 37.515625 
Q 39.59375 42.578125 32.71875 42.578125 
Q 25.734375 42.578125 22.0625 37.6875 
Q 18.40625 32.8125 18.40625 23.578125 
Q 18.40625 13.875 22.109375 8.640625 
Q 25.828125 3.421875 32.71875 3.421875 
z
M 16.796875 40.140625 
Q 20.125 43.796875 24.3125 45.59375 
Q 28.515625 47.40625 33.796875 47.40625 
Q 44.671875 47.40625 51 40.859375 
Q 57.328125 34.328125 57.328125 23 
Q 57.328125 11.921875 50.515625 5.25 
Q 43.703125 -1.421875 32.328125 -1.421875 
Q 19.96875 -1.421875 13.328125 7.78125 
Q 6.6875 17 6.6875 34.078125 
Q 6.6875 53.21875 14.546875 63.71875 
Q 22.40625 74.21875 36.71875 74.21875 
Q 40.578125 74.21875 44.828125 73.484375 
Q 49.078125 72.75 53.515625 71.296875 
L 53.515625 59.28125 
L 48 59.28125 
Q 47.40625 64.203125 44.234375 66.796875 
Q 41.0625 69.390625 35.6875 69.390625 
Q 26.21875 69.390625 21.578125 62.203125 
Q 16.9375 55.03125 16.796875 40.140625 
z
" id="DejaVuSerif-36"/>
    </defs>
    <g transform="translate(137.186318 248.652973)scale(0.1 -0.1)">
     <use xlink:href="#DejaVuSerif-36"/>
    </g>
   </g>
   <g id="text_24">
    <!-- 6 -->
    <g transform="translate(390.54848 276.804324)scale(0.1 -0.1)">
     <use xlink:href="#DejaVuSerif-36"/>
    </g>
   </g>
   <g id="text_25">
    <!-- 7 -->
    <defs>
     <path d="M 56.390625 67.921875 
L 27.875 0 
L 20.609375 0 
L 47.796875 64.890625 
L 14.109375 64.890625 
L 14.109375 55.90625 
L 8.40625 55.90625 
L 8.40625 72.90625 
L 56.390625 72.90625 
z
" id="DejaVuSerif-37"/>
    </defs>
    <g transform="translate(277.943074 192.35027)scale(0.1 -0.1)">
     <use xlink:href="#DejaVuSerif-37"/>
    </g>
   </g>
   <g id="text_26">
    <!-- 7 -->
    <g transform="translate(277.943074 333.107027)scale(0.1 -0.1)">
     <use xlink:href="#DejaVuSerif-37"/>
    </g>
   </g>
   <g id="text_27">
    <!-- 8 -->
    <defs>
     <path d="M 46.578125 19.921875 
Q 46.578125 27.734375 42.6875 32.046875 
Q 38.8125 36.375 31.78125 36.375 
Q 24.75 36.375 20.875 32.046875 
Q 17 27.734375 17 19.921875 
Q 17 12.0625 20.875 7.734375 
Q 24.75 3.421875 31.78125 3.421875 
Q 38.8125 3.421875 42.6875 7.734375 
Q 46.578125 12.0625 46.578125 19.921875 
z
M 44.578125 55.328125 
Q 44.578125 61.96875 41.203125 65.671875 
Q 37.84375 69.390625 31.78125 69.390625 
Q 25.78125 69.390625 22.390625 65.671875 
Q 19 61.96875 19 55.328125 
Q 19 48.640625 22.390625 44.921875 
Q 25.78125 41.21875 31.78125 41.21875 
Q 37.84375 41.21875 41.203125 44.921875 
Q 44.578125 48.640625 44.578125 55.328125 
z
M 39.3125 38.8125 
Q 47.609375 37.703125 52.25 32.6875 
Q 56.890625 27.6875 56.890625 19.921875 
Q 56.890625 9.671875 50.390625 4.125 
Q 43.890625 -1.421875 31.78125 -1.421875 
Q 19.734375 -1.421875 13.203125 4.125 
Q 6.6875 9.671875 6.6875 19.921875 
Q 6.6875 27.6875 11.328125 32.6875 
Q 15.96875 37.703125 24.3125 38.8125 
Q 16.9375 40.140625 13 44.40625 
Q 9.078125 48.6875 9.078125 55.328125 
Q 9.078125 64.109375 15.125 69.15625 
Q 21.1875 74.21875 31.78125 74.21875 
Q 42.390625 74.21875 48.4375 69.15625 
Q 54.5 64.109375 54.5 55.328125 
Q 54.5 48.6875 50.5625 44.40625 
Q 46.625 40.140625 39.3125 38.8125 
z
" id="DejaVuSerif-38"/>
    </defs>
    <g transform="translate(137.186318 304.955676)scale(0.1 -0.1)">
     <use xlink:href="#DejaVuSerif-38"/>
    </g>
   </g>
   <g id="text_28">
    <!-- 8 -->
    <g transform="translate(306.094426 276.804324)scale(0.1 -0.1)">
     <use xlink:href="#DejaVuSerif-38"/>
    </g>
   </g>
   <g id="text_29">
    <!-- 9 -->
    <defs>
     <path d="M 46.78125 32.671875 
Q 43.5 29 39.25 27.1875 
Q 35.015625 25.390625 29.6875 25.390625 
Q 18.84375 25.390625 12.5625 31.9375 
Q 6.296875 38.484375 6.296875 49.8125 
Q 6.296875 60.890625 13.109375 67.546875 
Q 19.921875 74.21875 31.296875 74.21875 
Q 43.65625 74.21875 50.265625 65.015625 
Q 56.890625 55.8125 56.890625 38.71875 
Q 56.890625 19.578125 49.015625 9.078125 
Q 41.15625 -1.421875 26.90625 -1.421875 
Q 23.046875 -1.421875 18.796875 -0.6875 
Q 14.546875 0.046875 10.109375 1.515625 
L 10.109375 13.625 
L 15.578125 13.625 
Q 16.21875 8.6875 19.390625 6.046875 
Q 22.5625 3.421875 27.875 3.421875 
Q 37.359375 3.421875 41.984375 10.5625 
Q 46.625 17.71875 46.78125 32.671875 
z
M 30.90625 69.390625 
Q 23.96875 69.390625 20.28125 64.328125 
Q 16.609375 59.28125 16.609375 49.8125 
Q 16.609375 40.328125 20.28125 35.25 
Q 23.96875 30.171875 30.90625 30.171875 
Q 37.84375 30.171875 41.53125 35.078125 
Q 45.21875 39.984375 45.21875 49.21875 
Q 45.21875 58.9375 41.5 64.15625 
Q 37.796875 69.390625 30.90625 69.390625 
z
" id="DejaVuSerif-39"/>
    </defs>
    <g transform="translate(390.54848 220.501622)scale(0.1 -0.1)">
     <use xlink:href="#DejaVuSerif-39"/>
    </g>
   </g>
   <g id="text_30">
    <!-- 9 -->
    <g transform="translate(137.186318 276.804324)scale(0.1 -0.1)">
     <use xlink:href="#DejaVuSerif-39"/>
    </g>
   </g>
   <g id="text_31">
    <!-- 10 -->
    <defs>
     <path d="M 31.78125 3.421875 
Q 39.265625 3.421875 42.96875 11.625 
Q 46.6875 19.828125 46.6875 36.375 
Q 46.6875 52.984375 42.96875 61.1875 
Q 39.265625 69.390625 31.78125 69.390625 
Q 24.3125 69.390625 20.59375 61.1875 
Q 16.890625 52.984375 16.890625 36.375 
Q 16.890625 19.828125 20.59375 11.625 
Q 24.3125 3.421875 31.78125 3.421875 
z
M 31.78125 -1.421875 
Q 19.921875 -1.421875 13.25 8.53125 
Q 6.59375 18.5 6.59375 36.375 
Q 6.59375 54.296875 13.25 64.25 
Q 19.921875 74.21875 31.78125 74.21875 
Q 43.703125 74.21875 50.34375 64.25 
Q 56.984375 54.296875 56.984375 36.375 
Q 56.984375 18.5 50.34375 8.53125 
Q 43.703125 -1.421875 31.78125 -1.421875 
z
" id="DejaVuSerif-30"/>
    </defs>
    <g transform="translate(134.005068 136.047568)scale(0.1 -0.1)">
     <use xlink:href="#DejaVuSerif-31"/>
     <use x="63.623047" xlink:href="#DejaVuSerif-30"/>
    </g>
   </g>
   <g id="text_32">
    <!-- 10 -->
    <g transform="translate(246.610473 248.652973)scale(0.1 -0.1)">
     <use xlink:href="#DejaVuSerif-31"/>
     <use x="63.623047" xlink:href="#DejaVuSerif-30"/>
    </g>
   </g>
   <g id="text_33">
    <!-- 11 -->
    <g transform="translate(331.064527 164.198919)scale(0.1 -0.1)">
     <use xlink:href="#DejaVuSerif-31"/>
     <use x="63.623047" xlink:href="#DejaVuSerif-31"/>
    </g>
   </g>
   <g id="text_34">
    <!-- 11 -->
    <g transform="translate(162.156419 389.40973)scale(0.1 -0.1)">
     <use xlink:href="#DejaVuSerif-31"/>
     <use x="63.623047" xlink:href="#DejaVuSerif-31"/>
    </g>
   </g>
   <g id="text_35">
    <!-- 12 -->
    <g transform="translate(190.30777 445.712432)scale(0.1 -0.1)">
     <use xlink:href="#DejaVuSerif-31"/>
     <use x="63.623047" xlink:href="#DejaVuSerif-32"/>
    </g>
   </g>
   <g id="text_36">
    <!-- 12 -->
    <g transform="translate(387.36723 136.047568)scale(0.1 -0.1)">
     <use xlink:href="#DejaVuSerif-31"/>
     <use x="63.623047" xlink:href="#DejaVuSerif-32"/>
    </g>
   </g>
   <g id="text_37">
    <!-- 13 -->
    <g transform="translate(218.459122 333.107027)scale(0.1 -0.1)">
     <use xlink:href="#DejaVuSerif-31"/>
     <use x="63.623047" xlink:href="#DejaVuSerif-33"/>
    </g>
   </g>
   <g id="text_38">
    <!-- 13 -->
    <g transform="translate(274.761824 164.198919)scale(0.1 -0.1)">
     <use xlink:href="#DejaVuSerif-31"/>
     <use x="63.623047" xlink:href="#DejaVuSerif-33"/>
    </g>
   </g>
   <g id="text_39">
    <!-- 14 -->
    <g transform="translate(274.761824 361.258378)scale(0.1 -0.1)">
     <use xlink:href="#DejaVuSerif-31"/>
     <use x="63.623047" xlink:href="#DejaVuSerif-34"/>
    </g>
   </g>
   <g id="text_40">
    <!-- 14 -->
    <g transform="translate(331.064527 276.804324)scale(0.1 -0.1)">
     <use xlink:href="#DejaVuSerif-31"/>
     <use x="63.623047" xlink:href="#DejaVuSerif-34"/>
    </g>
   </g>
   <g id="text_41">
    <!-- MRPP -->
    <defs>
     <path d="M 9.8125 72.90625 
L 24.515625 72.90625 
L 43.109375 23.296875 
L 61.8125 72.90625 
L 76.515625 72.90625 
L 76.515625 0 
L 66.890625 0 
L 66.890625 64.015625 
L 48.09375 14.015625 
L 38.1875 14.015625 
L 19.390625 64.015625 
L 19.390625 0 
L 9.8125 0 
z
" id="DejaVuSans-4d"/>
     <path d="M 44.390625 34.1875 
Q 47.5625 33.109375 50.5625 29.59375 
Q 53.5625 26.078125 56.59375 19.921875 
L 66.609375 0 
L 56 0 
L 46.6875 18.703125 
Q 43.0625 26.03125 39.671875 28.421875 
Q 36.28125 30.8125 30.421875 30.8125 
L 19.671875 30.8125 
L 19.671875 0 
L 9.8125 0 
L 9.8125 72.90625 
L 32.078125 72.90625 
Q 44.578125 72.90625 50.734375 67.671875 
Q 56.890625 62.453125 56.890625 51.90625 
Q 56.890625 45.015625 53.6875 40.46875 
Q 50.484375 35.9375 44.390625 34.1875 
z
M 19.671875 64.796875 
L 19.671875 38.921875 
L 32.078125 38.921875 
Q 39.203125 38.921875 42.84375 42.21875 
Q 46.484375 45.515625 46.484375 51.90625 
Q 46.484375 58.296875 42.84375 61.546875 
Q 39.203125 64.796875 32.078125 64.796875 
z
" id="DejaVuSans-52"/>
     <path d="M 19.671875 64.796875 
L 19.671875 37.40625 
L 32.078125 37.40625 
Q 38.96875 37.40625 42.71875 40.96875 
Q 46.484375 44.53125 46.484375 51.125 
Q 46.484375 57.671875 42.71875 61.234375 
Q 38.96875 64.796875 32.078125 64.796875 
z
M 9.8125 72.90625 
L 32.078125 72.90625 
Q 44.34375 72.90625 50.609375 67.359375 
Q 56.890625 61.8125 56.890625 51.125 
Q 56.890625 40.328125 50.609375 34.8125 
Q 44.34375 29.296875 32.078125 29.296875 
L 19.671875 29.296875 
L 19.671875 0 
L 9.8125 0 
z
" id="DejaVuSans-50"/>
    </defs>
    <g transform="translate(278.618437 63.12)scale(0.12 -0.12)">
     <use xlink:href="#DejaVuSans-4d"/>
     <use x="86.279297" xlink:href="#DejaVuSans-52"/>
     <use x="155.761719" xlink:href="#DejaVuSans-50"/>
     <use x="216.064453" xlink:href="#DejaVuSans-50"/>
    </g>
   </g>
  </g>
 </g>
 <defs>
  <clipPath id="p95d9200fe3">
   <rect height="443.52" width="446.4" x="72" y="69.12"/>
  </clipPath>
 </defs>
</svg>
