<?xml version="1.0" encoding="utf-8" standalone="no"?>
<!DOCTYPE svg PUBLIC "-//W3C//DTD SVG 1.1//EN"
  "http://www.w3.org/Graphics/SVG/1.1/DTD/svg11.dtd">
<!-- Created with matplotlib (http://matplotlib.org/) -->
<svg height="576pt" version="1.1" viewBox="0 0 576 576" width="576pt" xmlns="http://www.w3.org/2000/svg" xmlns:xlink="http://www.w3.org/1999/xlink">
 <defs>
  <style type="text/css">
*{stroke-linecap:butt;stroke-linejoin:round;}
  </style>
 </defs>
 <g id="figure_1">
  <g id="patch_1">
   <path d="M 0 576 
L 576 576 
L 576 0 
L 0 0 
z
" style="fill:#ffffff;"/>
  </g>
  <g id="axes_1">
   <g id="patch_2">
    <path d="M 72 512.64 
L 518.4 512.64 
L 518.4 69.12 
L 72 69.12 
z
" style="fill:#ffffff;"/>
   </g>
   <g id="matplotlib.axis_1">
    <g id="xtick_1">
     <g id="line2d_1">
      <defs>
       <path d="M 0 0 
L 0 3.5 
" id="me78d5ef0e0" style="stroke:#000000;stroke-width:0.8;"/>
      </defs>
      <g>
       <use style="stroke:#000000;stroke-width:0.8;" x="72" xlink:href="#me78d5ef0e0" y="512.64"/>
      </g>
     </g>
     <g id="text_1">
      <!-- −1 -->
      <defs>
       <path d="M 10.59375 35.5 
L 73.1875 35.5 
L 73.1875 27.203125 
L 10.59375 27.203125 
z
" id="DejaVuSans-2212"/>
       <path d="M 12.40625 8.296875 
L 28.515625 8.296875 
L 28.515625 63.921875 
L 10.984375 60.40625 
L 10.984375 69.390625 
L 28.421875 72.90625 
L 38.28125 72.90625 
L 38.28125 8.296875 
L 54.390625 8.296875 
L 54.390625 0 
L 12.40625 0 
z
" id="DejaVuSans-31"/>
      </defs>
      <g transform="translate(64.628906 527.238438)scale(0.1 -0.1)">
       <use xlink:href="#DejaVuSans-2212"/>
       <use x="83.789062" xlink:href="#DejaVuSans-31"/>
      </g>
     </g>
    </g>
    <g id="xtick_2">
     <g id="line2d_2">
      <g>
       <use style="stroke:#000000;stroke-width:0.8;" x="125.783133" xlink:href="#me78d5ef0e0" y="512.64"/>
      </g>
     </g>
     <g id="text_2">
      <!-- 0 -->
      <defs>
       <path d="M 31.78125 66.40625 
Q 24.171875 66.40625 20.328125 58.90625 
Q 16.5 51.421875 16.5 36.375 
Q 16.5 21.390625 20.328125 13.890625 
Q 24.171875 6.390625 31.78125 6.390625 
Q 39.453125 6.390625 43.28125 13.890625 
Q 47.125 21.390625 47.125 36.375 
Q 47.125 51.421875 43.28125 58.90625 
Q 39.453125 66.40625 31.78125 66.40625 
z
M 31.78125 74.21875 
Q 44.046875 74.21875 50.515625 64.515625 
Q 56.984375 54.828125 56.984375 36.375 
Q 56.984375 17.96875 50.515625 8.265625 
Q 44.046875 -1.421875 31.78125 -1.421875 
Q 19.53125 -1.421875 13.0625 8.265625 
Q 6.59375 17.96875 6.59375 36.375 
Q 6.59375 54.828125 13.0625 64.515625 
Q 19.53125 74.21875 31.78125 74.21875 
z
" id="DejaVuSans-30"/>
      </defs>
      <g transform="translate(122.601883 527.238438)scale(0.1 -0.1)">
       <use xlink:href="#DejaVuSans-30"/>
      </g>
     </g>
    </g>
    <g id="xtick_3">
     <g id="line2d_3">
      <g>
       <use style="stroke:#000000;stroke-width:0.8;" x="179.566265" xlink:href="#me78d5ef0e0" y="512.64"/>
      </g>
     </g>
     <g id="text_3">
      <!-- 1 -->
      <g transform="translate(176.385015 527.238438)scale(0.1 -0.1)">
       <use xlink:href="#DejaVuSans-31"/>
      </g>
     </g>
    </g>
    <g id="xtick_4">
     <g id="line2d_4">
      <g>
       <use style="stroke:#000000;stroke-width:0.8;" x="233.349398" xlink:href="#me78d5ef0e0" y="512.64"/>
      </g>
     </g>
     <g id="text_4">
      <!-- 2 -->
      <defs>
       <path d="M 19.1875 8.296875 
L 53.609375 8.296875 
L 53.609375 0 
L 7.328125 0 
L 7.328125 8.296875 
Q 12.9375 14.109375 22.625 23.890625 
Q 32.328125 33.6875 34.8125 36.53125 
Q 39.546875 41.84375 41.421875 45.53125 
Q 43.3125 49.21875 43.3125 52.78125 
Q 43.3125 58.59375 39.234375 62.25 
Q 35.15625 65.921875 28.609375 65.921875 
Q 23.96875 65.921875 18.8125 64.3125 
Q 13.671875 62.703125 7.8125 59.421875 
L 7.8125 69.390625 
Q 13.765625 71.78125 18.9375 73 
Q 24.125 74.21875 28.421875 74.21875 
Q 39.75 74.21875 46.484375 68.546875 
Q 53.21875 62.890625 53.21875 53.421875 
Q 53.21875 48.921875 51.53125 44.890625 
Q 49.859375 40.875 45.40625 35.40625 
Q 44.1875 33.984375 37.640625 27.21875 
Q 31.109375 20.453125 19.1875 8.296875 
z
" id="DejaVuSans-32"/>
      </defs>
      <g transform="translate(230.168148 527.238438)scale(0.1 -0.1)">
       <use xlink:href="#DejaVuSans-32"/>
      </g>
     </g>
    </g>
    <g id="xtick_5">
     <g id="line2d_5">
      <g>
       <use style="stroke:#000000;stroke-width:0.8;" x="287.13253" xlink:href="#me78d5ef0e0" y="512.64"/>
      </g>
     </g>
     <g id="text_5">
      <!-- 3 -->
      <defs>
       <path d="M 40.578125 39.3125 
Q 47.65625 37.796875 51.625 33 
Q 55.609375 28.21875 55.609375 21.1875 
Q 55.609375 10.40625 48.1875 4.484375 
Q 40.765625 -1.421875 27.09375 -1.421875 
Q 22.515625 -1.421875 17.65625 -0.515625 
Q 12.796875 0.390625 7.625 2.203125 
L 7.625 11.71875 
Q 11.71875 9.328125 16.59375 8.109375 
Q 21.484375 6.890625 26.8125 6.890625 
Q 36.078125 6.890625 40.9375 10.546875 
Q 45.796875 14.203125 45.796875 21.1875 
Q 45.796875 27.640625 41.28125 31.265625 
Q 36.765625 34.90625 28.71875 34.90625 
L 20.21875 34.90625 
L 20.21875 43.015625 
L 29.109375 43.015625 
Q 36.375 43.015625 40.234375 45.921875 
Q 44.09375 48.828125 44.09375 54.296875 
Q 44.09375 59.90625 40.109375 62.90625 
Q 36.140625 65.921875 28.71875 65.921875 
Q 24.65625 65.921875 20.015625 65.03125 
Q 15.375 64.15625 9.8125 62.3125 
L 9.8125 71.09375 
Q 15.4375 72.65625 20.34375 73.4375 
Q 25.25 74.21875 29.59375 74.21875 
Q 40.828125 74.21875 47.359375 69.109375 
Q 53.90625 64.015625 53.90625 55.328125 
Q 53.90625 49.265625 50.4375 45.09375 
Q 46.96875 40.921875 40.578125 39.3125 
z
" id="DejaVuSans-33"/>
      </defs>
      <g transform="translate(283.95128 527.238438)scale(0.1 -0.1)">
       <use xlink:href="#DejaVuSans-33"/>
      </g>
     </g>
    </g>
    <g id="xtick_6">
     <g id="line2d_6">
      <g>
       <use style="stroke:#000000;stroke-width:0.8;" x="340.915663" xlink:href="#me78d5ef0e0" y="512.64"/>
      </g>
     </g>
     <g id="text_6">
      <!-- 4 -->
      <defs>
       <path d="M 37.796875 64.3125 
L 12.890625 25.390625 
L 37.796875 25.390625 
z
M 35.203125 72.90625 
L 47.609375 72.90625 
L 47.609375 25.390625 
L 58.015625 25.390625 
L 58.015625 17.1875 
L 47.609375 17.1875 
L 47.609375 0 
L 37.796875 0 
L 37.796875 17.1875 
L 4.890625 17.1875 
L 4.890625 26.703125 
z
" id="DejaVuSans-34"/>
      </defs>
      <g transform="translate(337.734413 527.238438)scale(0.1 -0.1)">
       <use xlink:href="#DejaVuSans-34"/>
      </g>
     </g>
    </g>
    <g id="xtick_7">
     <g id="line2d_7">
      <g>
       <use style="stroke:#000000;stroke-width:0.8;" x="394.698795" xlink:href="#me78d5ef0e0" y="512.64"/>
      </g>
     </g>
     <g id="text_7">
      <!-- 5 -->
      <defs>
       <path d="M 10.796875 72.90625 
L 49.515625 72.90625 
L 49.515625 64.59375 
L 19.828125 64.59375 
L 19.828125 46.734375 
Q 21.96875 47.46875 24.109375 47.828125 
Q 26.265625 48.1875 28.421875 48.1875 
Q 40.625 48.1875 47.75 41.5 
Q 54.890625 34.8125 54.890625 23.390625 
Q 54.890625 11.625 47.5625 5.09375 
Q 40.234375 -1.421875 26.90625 -1.421875 
Q 22.3125 -1.421875 17.546875 -0.640625 
Q 12.796875 0.140625 7.71875 1.703125 
L 7.71875 11.625 
Q 12.109375 9.234375 16.796875 8.0625 
Q 21.484375 6.890625 26.703125 6.890625 
Q 35.15625 6.890625 40.078125 11.328125 
Q 45.015625 15.765625 45.015625 23.390625 
Q 45.015625 31 40.078125 35.4375 
Q 35.15625 39.890625 26.703125 39.890625 
Q 22.75 39.890625 18.8125 39.015625 
Q 14.890625 38.140625 10.796875 36.28125 
z
" id="DejaVuSans-35"/>
      </defs>
      <g transform="translate(391.517545 527.238438)scale(0.1 -0.1)">
       <use xlink:href="#DejaVuSans-35"/>
      </g>
     </g>
    </g>
    <g id="xtick_8">
     <g id="line2d_8">
      <g>
       <use style="stroke:#000000;stroke-width:0.8;" x="448.481928" xlink:href="#me78d5ef0e0" y="512.64"/>
      </g>
     </g>
     <g id="text_8">
      <!-- 6 -->
      <defs>
       <path d="M 33.015625 40.375 
Q 26.375 40.375 22.484375 35.828125 
Q 18.609375 31.296875 18.609375 23.390625 
Q 18.609375 15.53125 22.484375 10.953125 
Q 26.375 6.390625 33.015625 6.390625 
Q 39.65625 6.390625 43.53125 10.953125 
Q 47.40625 15.53125 47.40625 23.390625 
Q 47.40625 31.296875 43.53125 35.828125 
Q 39.65625 40.375 33.015625 40.375 
z
M 52.59375 71.296875 
L 52.59375 62.3125 
Q 48.875 64.0625 45.09375 64.984375 
Q 41.3125 65.921875 37.59375 65.921875 
Q 27.828125 65.921875 22.671875 59.328125 
Q 17.53125 52.734375 16.796875 39.40625 
Q 19.671875 43.65625 24.015625 45.921875 
Q 28.375 48.1875 33.59375 48.1875 
Q 44.578125 48.1875 50.953125 41.515625 
Q 57.328125 34.859375 57.328125 23.390625 
Q 57.328125 12.15625 50.6875 5.359375 
Q 44.046875 -1.421875 33.015625 -1.421875 
Q 20.359375 -1.421875 13.671875 8.265625 
Q 6.984375 17.96875 6.984375 36.375 
Q 6.984375 53.65625 15.1875 63.9375 
Q 23.390625 74.21875 37.203125 74.21875 
Q 40.921875 74.21875 44.703125 73.484375 
Q 48.484375 72.75 52.59375 71.296875 
z
" id="DejaVuSans-36"/>
      </defs>
      <g transform="translate(445.300678 527.238438)scale(0.1 -0.1)">
       <use xlink:href="#DejaVuSans-36"/>
      </g>
     </g>
    </g>
    <g id="xtick_9">
     <g id="line2d_9">
      <g>
       <use style="stroke:#000000;stroke-width:0.8;" x="502.26506" xlink:href="#me78d5ef0e0" y="512.64"/>
      </g>
     </g>
     <g id="text_9">
      <!-- 7 -->
      <defs>
       <path d="M 8.203125 72.90625 
L 55.078125 72.90625 
L 55.078125 68.703125 
L 28.609375 0 
L 18.3125 0 
L 43.21875 64.59375 
L 8.203125 64.59375 
z
" id="DejaVuSans-37"/>
      </defs>
      <g transform="translate(499.08381 527.238438)scale(0.1 -0.1)">
       <use xlink:href="#DejaVuSans-37"/>
      </g>
     </g>
    </g>
   </g>
   <g id="matplotlib.axis_2">
    <g id="ytick_1">
     <g id="line2d_10">
      <defs>
       <path d="M 0 0 
L -3.5 0 
" id="mc9e9246d43" style="stroke:#000000;stroke-width:0.8;"/>
      </defs>
      <g>
       <use style="stroke:#000000;stroke-width:0.8;" x="72" xlink:href="#mc9e9246d43" y="460.296867"/>
      </g>
     </g>
     <g id="text_10">
      <!-- 0 -->
      <g transform="translate(58.6375 464.096086)scale(0.1 -0.1)">
       <use xlink:href="#DejaVuSans-30"/>
      </g>
     </g>
    </g>
    <g id="ytick_2">
     <g id="line2d_11">
      <g>
       <use style="stroke:#000000;stroke-width:0.8;" x="72" xlink:href="#mc9e9246d43" y="406.513735"/>
      </g>
     </g>
     <g id="text_11">
      <!-- 1 -->
      <g transform="translate(58.6375 410.312954)scale(0.1 -0.1)">
       <use xlink:href="#DejaVuSans-31"/>
      </g>
     </g>
    </g>
    <g id="ytick_3">
     <g id="line2d_12">
      <g>
       <use style="stroke:#000000;stroke-width:0.8;" x="72" xlink:href="#mc9e9246d43" y="352.730602"/>
      </g>
     </g>
     <g id="text_12">
      <!-- 2 -->
      <g transform="translate(58.6375 356.529821)scale(0.1 -0.1)">
       <use xlink:href="#DejaVuSans-32"/>
      </g>
     </g>
    </g>
    <g id="ytick_4">
     <g id="line2d_13">
      <g>
       <use style="stroke:#000000;stroke-width:0.8;" x="72" xlink:href="#mc9e9246d43" y="298.94747"/>
      </g>
     </g>
     <g id="text_13">
      <!-- 3 -->
      <g transform="translate(58.6375 302.746689)scale(0.1 -0.1)">
       <use xlink:href="#DejaVuSans-33"/>
      </g>
     </g>
    </g>
    <g id="ytick_5">
     <g id="line2d_14">
      <g>
       <use style="stroke:#000000;stroke-width:0.8;" x="72" xlink:href="#mc9e9246d43" y="245.164337"/>
      </g>
     </g>
     <g id="text_14">
      <!-- 4 -->
      <g transform="translate(58.6375 248.963556)scale(0.1 -0.1)">
       <use xlink:href="#DejaVuSans-34"/>
      </g>
     </g>
    </g>
    <g id="ytick_6">
     <g id="line2d_15">
      <g>
       <use style="stroke:#000000;stroke-width:0.8;" x="72" xlink:href="#mc9e9246d43" y="191.381205"/>
      </g>
     </g>
     <g id="text_15">
      <!-- 5 -->
      <g transform="translate(58.6375 195.180424)scale(0.1 -0.1)">
       <use xlink:href="#DejaVuSans-35"/>
      </g>
     </g>
    </g>
    <g id="ytick_7">
     <g id="line2d_16">
      <g>
       <use style="stroke:#000000;stroke-width:0.8;" x="72" xlink:href="#mc9e9246d43" y="137.598072"/>
      </g>
     </g>
     <g id="text_16">
      <!-- 6 -->
      <g transform="translate(58.6375 141.397291)scale(0.1 -0.1)">
       <use xlink:href="#DejaVuSans-36"/>
      </g>
     </g>
    </g>
    <g id="ytick_8">
     <g id="line2d_17">
      <g>
       <use style="stroke:#000000;stroke-width:0.8;" x="72" xlink:href="#mc9e9246d43" y="83.81494"/>
      </g>
     </g>
     <g id="text_17">
      <!-- 7 -->
      <g transform="translate(58.6375 87.614159)scale(0.1 -0.1)">
       <use xlink:href="#DejaVuSans-37"/>
      </g>
     </g>
    </g>
   </g>
   <g id="line2d_18">
    <path clip-path="url(#p25b75e4791)" d="M 170.594042 383.988829 
" style="fill:none;stroke:#1f77b4;stroke-linecap:square;stroke-width:1.5;"/>
    <defs>
     <path d="M -5 5 
L 5 5 
L 5 -5 
L -5 -5 
z
" id="m08d926a37c" style="stroke:#8000ff;stroke-linejoin:miter;"/>
    </defs>
    <g clip-path="url(#p25b75e4791)">
     <use style="fill:#8000ff;stroke:#8000ff;stroke-linejoin:miter;" x="170.594042" xlink:href="#m08d926a37c" y="383.988829"/>
    </g>
   </g>
   <g id="line2d_19">
    <path clip-path="url(#p25b75e4791)" d="M 141.442672 138.366723 
" style="fill:none;stroke:#ff7f0e;stroke-linecap:square;stroke-width:1.5;"/>
    <defs>
     <path d="M 0 -5 
L -4.755283 -1.545085 
L -2.938926 4.045085 
L 2.938926 4.045085 
L 4.755283 -1.545085 
z
" id="m689b618bbd" style="stroke:#8000ff;stroke-linejoin:miter;"/>
    </defs>
    <g clip-path="url(#p25b75e4791)">
     <use style="fill:#8000ff;stroke:#8000ff;stroke-linejoin:miter;" x="141.442672" xlink:href="#m689b618bbd" y="138.366723"/>
    </g>
   </g>
   <g id="line2d_20">
    <path clip-path="url(#p25b75e4791)" d="M 309.565694 156.023604 
" style="fill:none;stroke:#2ca02c;stroke-linecap:square;stroke-width:1.5;"/>
    <defs>
     <path d="M -5 5 
L 5 5 
L 5 -5 
L -5 -5 
z
" id="m9c1a8037f3" style="stroke:#376ff9;stroke-linejoin:miter;"/>
    </defs>
    <g clip-path="url(#p25b75e4791)">
     <use style="fill:#376ff9;stroke:#376ff9;stroke-linejoin:miter;" x="309.565694" xlink:href="#m9c1a8037f3" y="156.023604"/>
    </g>
   </g>
   <g id="line2d_21">
    <path clip-path="url(#p25b75e4791)" d="M 227.266774 407.821902 
" style="fill:none;stroke:#d62728;stroke-linecap:square;stroke-width:1.5;"/>
    <defs>
     <path d="M 0 -5 
L -4.755283 -1.545085 
L -2.938926 4.045085 
L 2.938926 4.045085 
L 4.755283 -1.545085 
z
" id="m3a0c3d4b5a" style="stroke:#376ff9;stroke-linejoin:miter;"/>
    </defs>
    <g clip-path="url(#p25b75e4791)">
     <use style="fill:#376ff9;stroke:#376ff9;stroke-linejoin:miter;" x="227.266774" xlink:href="#m3a0c3d4b5a" y="407.821902"/>
    </g>
   </g>
   <g id="line2d_22">
    <path clip-path="url(#p25b75e4791)" d="M 140.426916 261.233736 
" style="fill:none;stroke:#9467bd;stroke-linecap:square;stroke-width:1.5;"/>
    <defs>
     <path d="M -5 5 
L 5 5 
L 5 -5 
L -5 -5 
z
" id="mc2a14f2023" style="stroke:#12c7e6;stroke-linejoin:miter;"/>
    </defs>
    <g clip-path="url(#p25b75e4791)">
     <use style="fill:#12c7e6;stroke:#12c7e6;stroke-linejoin:miter;" x="140.426916" xlink:href="#mc2a14f2023" y="261.233736"/>
    </g>
   </g>
   <g id="line2d_23">
    <path clip-path="url(#p25b75e4791)" d="M 393.856228 290.562192 
" style="fill:none;stroke:#8c564b;stroke-linecap:square;stroke-width:1.5;"/>
    <defs>
     <path d="M 0 -5 
L -4.755283 -1.545085 
L -2.938926 4.045085 
L 2.938926 4.045085 
L 4.755283 -1.545085 
z
" id="mb697f8ce17" style="stroke:#12c7e6;stroke-linejoin:miter;"/>
    </defs>
    <g clip-path="url(#p25b75e4791)">
     <use style="fill:#12c7e6;stroke:#12c7e6;stroke-linejoin:miter;" x="393.856228" xlink:href="#mb697f8ce17" y="290.562192"/>
    </g>
   </g>
   <g id="line2d_24">
    <path clip-path="url(#p25b75e4791)" d="M 344.362781 317.894461 
" style="fill:none;stroke:#e377c2;stroke-linecap:square;stroke-width:1.5;"/>
    <defs>
     <path d="M -5 5 
L 5 5 
L 5 -5 
L -5 -5 
z
" id="ma36911432f" style="stroke:#5bf9c7;stroke-linejoin:miter;"/>
    </defs>
    <g clip-path="url(#p25b75e4791)">
     <use style="fill:#5bf9c7;stroke:#5bf9c7;stroke-linejoin:miter;" x="344.362781" xlink:href="#ma36911432f" y="317.894461"/>
    </g>
   </g>
   <g id="line2d_25">
    <path clip-path="url(#p25b75e4791)" d="M 378.404297 122.723631 
" style="fill:none;stroke:#7f7f7f;stroke-linecap:square;stroke-width:1.5;"/>
    <defs>
     <path d="M 0 -5 
L -4.755283 -1.545085 
L -2.938926 4.045085 
L 2.938926 4.045085 
L 4.755283 -1.545085 
z
" id="ma46975bf2f" style="stroke:#5bf9c7;stroke-linejoin:miter;"/>
    </defs>
    <g clip-path="url(#p25b75e4791)">
     <use style="fill:#5bf9c7;stroke:#5bf9c7;stroke-linejoin:miter;" x="378.404297" xlink:href="#ma46975bf2f" y="122.723631"/>
    </g>
   </g>
   <g id="line2d_26">
    <path clip-path="url(#p25b75e4791)" d="M 234.977268 454.769403 
" style="fill:none;stroke:#bcbd22;stroke-linecap:square;stroke-width:1.5;"/>
    <defs>
     <path d="M -5 5 
L 5 5 
L 5 -5 
L -5 -5 
z
" id="m2a7617ebb8" style="stroke:#a4f99f;stroke-linejoin:miter;"/>
    </defs>
    <g clip-path="url(#p25b75e4791)">
     <use style="fill:#a4f99f;stroke:#a4f99f;stroke-linejoin:miter;" x="234.977268" xlink:href="#m2a7617ebb8" y="454.769403"/>
    </g>
   </g>
   <g id="line2d_27">
    <path clip-path="url(#p25b75e4791)" d="M 169.173699 230.129692 
" style="fill:none;stroke:#17becf;stroke-linecap:square;stroke-width:1.5;"/>
    <defs>
     <path d="M 0 -5 
L -4.755283 -1.545085 
L -2.938926 4.045085 
L 2.938926 4.045085 
L 4.755283 -1.545085 
z
" id="m6665665a66" style="stroke:#a4f99f;stroke-linejoin:miter;"/>
    </defs>
    <g clip-path="url(#p25b75e4791)">
     <use style="fill:#a4f99f;stroke:#a4f99f;stroke-linejoin:miter;" x="169.173699" xlink:href="#m6665665a66" y="230.129692"/>
    </g>
   </g>
   <g id="line2d_28">
    <path clip-path="url(#p25b75e4791)" d="M 242.974711 285.641054 
" style="fill:none;stroke:#1f77b4;stroke-linecap:square;stroke-width:1.5;"/>
    <defs>
     <path d="M -5 5 
L 5 5 
L 5 -5 
L -5 -5 
z
" id="m930f193035" style="stroke:#edc76f;stroke-linejoin:miter;"/>
    </defs>
    <g clip-path="url(#p25b75e4791)">
     <use style="fill:#edc76f;stroke:#edc76f;stroke-linejoin:miter;" x="242.974711" xlink:href="#m930f193035" y="285.641054"/>
    </g>
   </g>
   <g id="line2d_29">
    <path clip-path="url(#p25b75e4791)" d="M 430.322654 360.003689 
" style="fill:none;stroke:#ff7f0e;stroke-linecap:square;stroke-width:1.5;"/>
    <defs>
     <path d="M 0 -5 
L -4.755283 -1.545085 
L -2.938926 4.045085 
L 2.938926 4.045085 
L 4.755283 -1.545085 
z
" id="ma615148fd8" style="stroke:#edc76f;stroke-linejoin:miter;"/>
    </defs>
    <g clip-path="url(#p25b75e4791)">
     <use style="fill:#edc76f;stroke:#edc76f;stroke-linejoin:miter;" x="430.322654" xlink:href="#ma615148fd8" y="360.003689"/>
    </g>
   </g>
   <g id="line2d_30">
    <path clip-path="url(#p25b75e4791)" d="M 323.795805 389.460377 
" style="fill:none;stroke:#2ca02c;stroke-linecap:square;stroke-width:1.5;"/>
    <defs>
     <path d="M -5 5 
L 5 5 
L 5 -5 
L -5 -5 
z
" id="m8ae60a21b3" style="stroke:#ff6f39;stroke-linejoin:miter;"/>
    </defs>
    <g clip-path="url(#p25b75e4791)">
     <use style="fill:#ff6f39;stroke:#ff6f39;stroke-linejoin:miter;" x="323.795805" xlink:href="#m8ae60a21b3" y="389.460377"/>
    </g>
   </g>
   <g id="line2d_31">
    <path clip-path="url(#p25b75e4791)" d="M 129.449475 361.616745 
" style="fill:none;stroke:#d62728;stroke-linecap:square;stroke-width:1.5;"/>
    <defs>
     <path d="M 0 -5 
L -4.755283 -1.545085 
L -2.938926 4.045085 
L 2.938926 4.045085 
L 4.755283 -1.545085 
z
" id="mb4df44f50d" style="stroke:#ff6f39;stroke-linejoin:miter;"/>
    </defs>
    <g clip-path="url(#p25b75e4791)">
     <use style="fill:#ff6f39;stroke:#ff6f39;stroke-linejoin:miter;" x="129.449475" xlink:href="#mb4df44f50d" y="361.616745"/>
    </g>
   </g>
   <g id="line2d_32">
    <path clip-path="url(#p25b75e4791)" d="M 145.167411 307.823728 
" style="fill:none;stroke:#9467bd;stroke-linecap:square;stroke-width:1.5;"/>
    <defs>
     <path d="M -5 5 
L 5 5 
L 5 -5 
L -5 -5 
z
" id="m7cc2a4217d" style="stroke:#ff0000;stroke-linejoin:miter;"/>
    </defs>
    <g clip-path="url(#p25b75e4791)">
     <use style="fill:#ff0000;stroke:#ff0000;stroke-linejoin:miter;" x="145.167411" xlink:href="#m7cc2a4217d" y="307.823728"/>
    </g>
   </g>
   <g id="line2d_33">
    <path clip-path="url(#p25b75e4791)" d="M 312.995898 205.71632 
" style="fill:none;stroke:#8c564b;stroke-linecap:square;stroke-width:1.5;"/>
    <defs>
     <path d="M 0 -5 
L -4.755283 -1.545085 
L -2.938926 4.045085 
L 2.938926 4.045085 
L 4.755283 -1.545085 
z
" id="m98324190ff" style="stroke:#ff0000;stroke-linejoin:miter;"/>
    </defs>
    <g clip-path="url(#p25b75e4791)">
     <use style="fill:#ff0000;stroke:#ff0000;stroke-linejoin:miter;" x="312.995898" xlink:href="#m98324190ff" y="205.71632"/>
    </g>
   </g>
   <g id="line2d_34">
    <defs>
     <path d="M 0 2.5 
C 0.663008 2.5 1.29895 2.236584 1.767767 1.767767 
C 2.236584 1.29895 2.5 0.663008 2.5 0 
C 2.5 -0.663008 2.236584 -1.29895 1.767767 -1.767767 
C 1.29895 -2.236584 0.663008 -2.5 0 -2.5 
C -0.663008 -2.5 -1.29895 -2.236584 -1.767767 -1.767767 
C -2.236584 -1.29895 -2.5 -0.663008 -2.5 0 
C -2.5 0.663008 -2.236584 1.29895 -1.767767 1.767767 
C -1.29895 2.236584 -0.663008 2.5 0 2.5 
z
" id="m02c8176c86" style="stroke:#000000;"/>
    </defs>
    <g clip-path="url(#p25b75e4791)">
     <use style="stroke:#000000;" x="224.258362" xlink:href="#m02c8176c86" y="233.486448"/>
     <use style="stroke:#000000;" x="213.28082" xlink:href="#m02c8176c86" y="188.784666"/>
     <use style="stroke:#000000;" x="354.781039" xlink:href="#m02c8176c86" y="242.572165"/>
     <use style="stroke:#000000;" x="286.83734" xlink:href="#m02c8176c86" y="257.892302"/>
     <use style="stroke:#000000;" x="184.667125" xlink:href="#m02c8176c86" y="423.498589"/>
     <use style="stroke:#000000;" x="238.530399" xlink:href="#m02c8176c86" y="172.148633"/>
     <use style="stroke:#000000;" x="390.160381" xlink:href="#m02c8176c86" y="197.27019"/>
     <use style="stroke:#000000;" x="368.996721" xlink:href="#m02c8176c86" y="416.443701"/>
     <use style="stroke:#000000;" x="404.06036" xlink:href="#m02c8176c86" y="222.608072"/>
     <use style="stroke:#000000;" x="411.735933" xlink:href="#m02c8176c86" y="435.764265"/>
     <use style="stroke:#000000;" x="280.733575" xlink:href="#m02c8176c86" y="413.764951"/>
     <use style="stroke:#000000;" x="457.910642" xlink:href="#m02c8176c86" y="434.034779"/>
     <use style="stroke:#000000;" x="460.146383" xlink:href="#m02c8176c86" y="335.59221"/>
     <use style="stroke:#000000;" x="192.852367" xlink:href="#m02c8176c86" y="351.467401"/>
     <use style="stroke:#000000;" x="231.154961" xlink:href="#m02c8176c86" y="341.647342"/>
     <use style="stroke:#000000;" x="397.110371" xlink:href="#m02c8176c86" y="209.939131"/>
    </g>
   </g>
   <g id="line2d_35">
    <path clip-path="url(#p25b75e4791)" d="M 245.233784 233.486448 
L 244.097278 226.67574 
L 240.810917 220.603077 
L 235.730831 215.926528 
L 229.407524 213.152869 
L 222.526226 212.582668 
L 215.832632 214.277716 
L 210.052096 218.054329 
L 205.81103 223.503251 
L 203.569018 230.034007 
L 203.569018 236.938889 
L 205.81103 243.469645 
L 210.052096 248.918567 
L 215.832632 252.69518 
L 222.526226 254.390228 
L 229.407524 253.820027 
L 235.730831 251.046368 
L 240.810917 246.369819 
L 244.097278 240.297156 
L 245.233784 233.486448 
" style="fill:none;stroke:#000000;stroke-dasharray:5.55,2.4;stroke-dashoffset:0;stroke-width:1.5;"/>
   </g>
   <g id="line2d_36">
    <path clip-path="url(#p25b75e4791)" d="M 230.174507 233.486448 
L 229.853954 231.565479 
L 228.927032 229.852677 
L 227.494187 228.53365 
L 225.71069 227.751336 
L 223.769811 227.59051 
L 221.881874 228.0686 
L 220.251467 229.133799 
L 219.055269 230.670674 
L 218.422906 232.512682 
L 218.422906 234.460213 
L 219.055269 236.302221 
L 220.251467 237.839097 
L 221.881874 238.904295 
L 223.769811 239.382386 
L 225.71069 239.22156 
L 227.494187 238.439246 
L 228.927032 237.120219 
L 229.853954 235.407417 
L 230.174507 233.486448 
" style="fill:none;stroke:#ff0000;stroke-linecap:square;stroke-width:1.5;"/>
   </g>
   <g id="line2d_37">
    <path clip-path="url(#p25b75e4791)" d="M 234.256242 188.784666 
L 233.119736 181.973957 
L 229.833375 175.901295 
L 224.753289 171.224746 
L 218.429982 168.451086 
L 211.548684 167.880886 
L 204.85509 169.575934 
L 199.074554 173.352546 
L 194.833488 178.801468 
L 192.591476 185.332225 
L 192.591476 192.237107 
L 194.833488 198.767863 
L 199.074554 204.216785 
L 204.85509 207.993397 
L 211.548684 209.688446 
L 218.429982 209.118245 
L 224.753289 206.344586 
L 229.833375 201.668036 
L 233.119736 195.595374 
L 234.256242 188.784666 
" style="fill:none;stroke:#000000;stroke-dasharray:5.55,2.4;stroke-dashoffset:0;stroke-width:1.5;"/>
   </g>
   <g id="line2d_38">
    <path clip-path="url(#p25b75e4791)" d="M 219.196965 188.784666 
L 218.876412 186.863697 
L 217.94949 185.150895 
L 216.516645 183.831868 
L 214.733148 183.049554 
L 212.792269 182.888728 
L 210.904332 183.366818 
L 209.273925 184.432017 
L 208.077727 185.968892 
L 207.445364 187.8109 
L 207.445364 189.758431 
L 208.077727 191.600439 
L 209.273925 193.137315 
L 210.904332 194.202513 
L 212.792269 194.680604 
L 214.733148 194.519778 
L 216.516645 193.737464 
L 217.94949 192.418437 
L 218.876412 190.705635 
L 219.196965 188.784666 
" style="fill:none;stroke:#ff0000;stroke-linecap:square;stroke-width:1.5;"/>
   </g>
   <g id="line2d_39">
    <path clip-path="url(#p25b75e4791)" d="M 375.756461 242.572165 
L 374.619955 235.761456 
L 371.333594 229.688794 
L 366.253508 225.012245 
L 359.930201 222.238585 
L 353.048903 221.668385 
L 346.355309 223.363433 
L 340.574773 227.140045 
L 336.333707 232.588967 
L 334.091695 239.119724 
L 334.091695 246.024606 
L 336.333707 252.555362 
L 340.574773 258.004284 
L 346.355309 261.780896 
L 353.048903 263.475945 
L 359.930201 262.905744 
L 366.253508 260.132085 
L 371.333594 255.455535 
L 374.619955 249.382873 
L 375.756461 242.572165 
" style="fill:none;stroke:#000000;stroke-dasharray:5.55,2.4;stroke-dashoffset:0;stroke-width:1.5;"/>
   </g>
   <g id="line2d_40">
    <path clip-path="url(#p25b75e4791)" d="M 360.697184 242.572165 
L 360.376631 240.651196 
L 359.449709 238.938394 
L 358.016864 237.619367 
L 356.233367 236.837053 
L 354.292488 236.676227 
L 352.404551 237.154317 
L 350.774144 238.219516 
L 349.577946 239.756391 
L 348.945583 241.598399 
L 348.945583 243.54593 
L 349.577946 245.387938 
L 350.774144 246.924814 
L 352.404551 247.990012 
L 354.292488 248.468103 
L 356.233367 248.307277 
L 358.016864 247.524963 
L 359.449709 246.205936 
L 360.376631 244.493134 
L 360.697184 242.572165 
" style="fill:none;stroke:#ff0000;stroke-linecap:square;stroke-width:1.5;"/>
   </g>
   <g id="line2d_41">
    <path clip-path="url(#p25b75e4791)" d="M 307.812761 257.892302 
L 306.676255 251.081594 
L 303.389895 245.008931 
L 298.309808 240.332382 
L 291.986501 237.558723 
L 285.105203 236.988522 
L 278.411609 238.68357 
L 272.631073 242.460183 
L 268.390007 247.909105 
L 266.147995 254.439861 
L 266.147995 261.344743 
L 268.390007 267.875499 
L 272.631073 273.324421 
L 278.411609 277.101034 
L 285.105203 278.796082 
L 291.986501 278.225881 
L 298.309808 275.452222 
L 303.389895 270.775673 
L 306.676255 264.70301 
L 307.812761 257.892302 
" style="fill:none;stroke:#000000;stroke-dasharray:5.55,2.4;stroke-dashoffset:0;stroke-width:1.5;"/>
   </g>
   <g id="line2d_42">
    <path clip-path="url(#p25b75e4791)" d="M 292.753484 257.892302 
L 292.432931 255.971333 
L 291.506009 254.258531 
L 290.073164 252.939504 
L 288.289667 252.15719 
L 286.348788 251.996364 
L 284.460851 252.474455 
L 282.830444 253.539653 
L 281.634246 255.076529 
L 281.001884 256.918537 
L 281.001884 258.866068 
L 281.634246 260.708076 
L 282.830444 262.244951 
L 284.460851 263.31015 
L 286.348788 263.78824 
L 288.289667 263.627414 
L 290.073164 262.8451 
L 291.506009 261.526073 
L 292.432931 259.813271 
L 292.753484 257.892302 
" style="fill:none;stroke:#ff0000;stroke-linecap:square;stroke-width:1.5;"/>
   </g>
   <g id="line2d_43">
    <path clip-path="url(#p25b75e4791)" d="M 205.642546 423.498589 
L 204.50604 416.687881 
L 201.219679 410.615219 
L 196.139593 405.938669 
L 189.816286 403.16501 
L 182.934988 402.594809 
L 176.241394 404.289857 
L 170.460858 408.06647 
L 166.219792 413.515392 
L 163.97778 420.046148 
L 163.97778 426.95103 
L 166.219792 433.481786 
L 170.460858 438.930708 
L 176.241394 442.707321 
L 182.934988 444.402369 
L 189.816286 443.832169 
L 196.139593 441.058509 
L 201.219679 436.38196 
L 204.50604 430.309297 
L 205.642546 423.498589 
" style="fill:none;stroke:#000000;stroke-dasharray:5.55,2.4;stroke-dashoffset:0;stroke-width:1.5;"/>
   </g>
   <g id="line2d_44">
    <path clip-path="url(#p25b75e4791)" d="M 190.583269 423.498589 
L 190.262716 421.57762 
L 189.335794 419.864818 
L 187.902949 418.545791 
L 186.119452 417.763477 
L 184.178573 417.602651 
L 182.290636 418.080742 
L 180.660229 419.14594 
L 179.464031 420.682816 
L 178.831668 422.524824 
L 178.831668 424.472355 
L 179.464031 426.314363 
L 180.660229 427.851238 
L 182.290636 428.916437 
L 184.178573 429.394527 
L 186.119452 429.233701 
L 187.902949 428.451387 
L 189.335794 427.13236 
L 190.262716 425.419558 
L 190.583269 423.498589 
" style="fill:none;stroke:#ff0000;stroke-linecap:square;stroke-width:1.5;"/>
   </g>
   <g id="line2d_45">
    <path clip-path="url(#p25b75e4791)" d="M 259.50582 172.148633 
L 258.369314 165.337925 
L 255.082954 159.265262 
L 250.002867 154.588713 
L 243.67956 151.815054 
L 236.798262 151.244853 
L 230.104668 152.939901 
L 224.324132 156.716514 
L 220.083066 162.165436 
L 217.841054 168.696192 
L 217.841054 175.601074 
L 220.083066 182.13183 
L 224.324132 187.580752 
L 230.104668 191.357365 
L 236.798262 193.052413 
L 243.67956 192.482212 
L 250.002867 189.708553 
L 255.082954 185.032004 
L 258.369314 178.959341 
L 259.50582 172.148633 
" style="fill:none;stroke:#000000;stroke-dasharray:5.55,2.4;stroke-dashoffset:0;stroke-width:1.5;"/>
   </g>
   <g id="line2d_46">
    <path clip-path="url(#p25b75e4791)" d="M 244.446543 172.148633 
L 244.12599 170.227664 
L 243.199068 168.514862 
L 241.766223 167.195835 
L 239.982726 166.413521 
L 238.041847 166.252695 
L 236.15391 166.730786 
L 234.523503 167.795984 
L 233.327305 169.332859 
L 232.694942 171.174868 
L 232.694942 173.122398 
L 233.327305 174.964407 
L 234.523503 176.501282 
L 236.15391 177.56648 
L 238.041847 178.044571 
L 239.982726 177.883745 
L 241.766223 177.101431 
L 243.199068 175.782404 
L 244.12599 174.069602 
L 244.446543 172.148633 
" style="fill:none;stroke:#ff0000;stroke-linecap:square;stroke-width:1.5;"/>
   </g>
   <g id="line2d_47">
    <path clip-path="url(#p25b75e4791)" d="M 411.135803 197.27019 
L 409.999297 190.459482 
L 406.712936 184.38682 
L 401.63285 179.71027 
L 395.309543 176.936611 
L 388.428245 176.36641 
L 381.73465 178.061459 
L 375.954115 181.838071 
L 371.713048 187.286993 
L 369.471037 193.817749 
L 369.471037 200.722631 
L 371.713048 207.253388 
L 375.954115 212.70231 
L 381.73465 216.478922 
L 388.428245 218.17397 
L 395.309543 217.60377 
L 401.63285 214.83011 
L 406.712936 210.153561 
L 409.999297 204.080899 
L 411.135803 197.27019 
" style="fill:none;stroke:#000000;stroke-dasharray:5.55,2.4;stroke-dashoffset:0;stroke-width:1.5;"/>
   </g>
   <g id="line2d_48">
    <path clip-path="url(#p25b75e4791)" d="M 396.076526 197.27019 
L 395.755973 195.349221 
L 394.829051 193.636419 
L 393.396206 192.317392 
L 391.612709 191.535078 
L 389.67183 191.374252 
L 387.783893 191.852343 
L 386.153486 192.917541 
L 384.957287 194.454417 
L 384.324925 196.296425 
L 384.324925 198.243956 
L 384.957287 200.085964 
L 386.153486 201.622839 
L 387.783893 202.688038 
L 389.67183 203.166128 
L 391.612709 203.005302 
L 393.396206 202.222988 
L 394.829051 200.903962 
L 395.755973 199.191159 
L 396.076526 197.27019 
" style="fill:none;stroke:#ff0000;stroke-linecap:square;stroke-width:1.5;"/>
   </g>
   <g id="line2d_49">
    <path clip-path="url(#p25b75e4791)" d="M 389.972142 416.443701 
L 388.835636 409.632993 
L 385.549276 403.56033 
L 380.469189 398.883781 
L 374.145882 396.110121 
L 367.264584 395.539921 
L 360.57099 397.234969 
L 354.790454 401.011582 
L 350.549388 406.460504 
L 348.307376 412.99126 
L 348.307376 419.896142 
L 350.549388 426.426898 
L 354.790454 431.87582 
L 360.57099 435.652433 
L 367.264584 437.347481 
L 374.145882 436.77728 
L 380.469189 434.003621 
L 385.549276 429.327072 
L 388.835636 423.254409 
L 389.972142 416.443701 
" style="fill:none;stroke:#000000;stroke-dasharray:5.55,2.4;stroke-dashoffset:0;stroke-width:1.5;"/>
   </g>
   <g id="line2d_50">
    <path clip-path="url(#p25b75e4791)" d="M 374.912865 416.443701 
L 374.592312 414.522732 
L 373.66539 412.80993 
L 372.232545 411.490903 
L 370.449048 410.708589 
L 368.508169 410.547763 
L 366.620232 411.025853 
L 364.989825 412.091052 
L 363.793627 413.627927 
L 363.161265 415.469935 
L 363.161265 417.417466 
L 363.793627 419.259474 
L 364.989825 420.79635 
L 366.620232 421.861548 
L 368.508169 422.339639 
L 370.449048 422.178813 
L 372.232545 421.396499 
L 373.66539 420.077472 
L 374.592312 418.36467 
L 374.912865 416.443701 
" style="fill:none;stroke:#ff0000;stroke-linecap:square;stroke-width:1.5;"/>
   </g>
   <g id="line2d_51">
    <path clip-path="url(#p25b75e4791)" d="M 425.035782 222.608072 
L 423.899275 215.797363 
L 420.612915 209.724701 
L 415.532828 205.048152 
L 409.209522 202.274492 
L 402.328223 201.704292 
L 395.634629 203.39934 
L 389.854093 207.175952 
L 385.613027 212.624874 
L 383.371016 219.155631 
L 383.371016 226.060513 
L 385.613027 232.591269 
L 389.854093 238.040191 
L 395.634629 241.816803 
L 402.328223 243.511852 
L 409.209522 242.941651 
L 415.532828 240.167992 
L 420.612915 235.491442 
L 423.899275 229.41878 
L 425.035782 222.608072 
" style="fill:none;stroke:#000000;stroke-dasharray:5.55,2.4;stroke-dashoffset:0;stroke-width:1.5;"/>
   </g>
   <g id="line2d_52">
    <path clip-path="url(#p25b75e4791)" d="M 409.976505 222.608072 
L 409.655952 220.687103 
L 408.729029 218.9743 
L 407.296184 217.655274 
L 405.512688 216.87296 
L 403.571809 216.712134 
L 401.683872 217.190224 
L 400.053464 218.255423 
L 398.857266 219.792298 
L 398.224904 221.634306 
L 398.224904 223.581837 
L 398.857266 225.423845 
L 400.053464 226.960721 
L 401.683872 228.025919 
L 403.571809 228.50401 
L 405.512688 228.343184 
L 407.296184 227.56087 
L 408.729029 226.241843 
L 409.655952 224.529041 
L 409.976505 222.608072 
" style="fill:none;stroke:#ff0000;stroke-linecap:square;stroke-width:1.5;"/>
   </g>
   <g id="line2d_53">
    <path clip-path="url(#p25b75e4791)" d="M 432.711355 435.764265 
L 431.574849 428.953557 
L 428.288488 422.880894 
L 423.208401 418.204345 
L 416.885095 415.430686 
L 410.003797 414.860485 
L 403.310202 416.555533 
L 397.529667 420.332146 
L 393.2886 425.781068 
L 391.046589 432.311824 
L 391.046589 439.216706 
L 393.2886 445.747462 
L 397.529667 451.196384 
L 403.310202 454.972997 
L 410.003797 456.668045 
L 416.885095 456.097844 
L 423.208401 453.324185 
L 428.288488 448.647636 
L 431.574849 442.574973 
L 432.711355 435.764265 
" style="fill:none;stroke:#000000;stroke-dasharray:5.55,2.4;stroke-dashoffset:0;stroke-width:1.5;"/>
   </g>
   <g id="line2d_54">
    <path clip-path="url(#p25b75e4791)" d="M 417.652078 435.764265 
L 417.331525 433.843296 
L 416.404603 432.130494 
L 414.971758 430.811467 
L 413.188261 430.029153 
L 411.247382 429.868327 
L 409.359445 430.346418 
L 407.729038 431.411616 
L 406.532839 432.948491 
L 405.900477 434.7905 
L 405.900477 436.73803 
L 406.532839 438.580039 
L 407.729038 440.116914 
L 409.359445 441.182112 
L 411.247382 441.660203 
L 413.188261 441.499377 
L 414.971758 440.717063 
L 416.404603 439.398036 
L 417.331525 437.685234 
L 417.652078 435.764265 
" style="fill:none;stroke:#ff0000;stroke-linecap:square;stroke-width:1.5;"/>
   </g>
   <g id="line2d_55">
    <path clip-path="url(#p25b75e4791)" d="M 301.708997 413.764951 
L 300.572491 406.954243 
L 297.28613 400.88158 
L 292.206043 396.205031 
L 285.882737 393.431371 
L 279.001438 392.861171 
L 272.307844 394.556219 
L 266.527309 398.332832 
L 262.286242 403.781754 
L 260.044231 410.31251 
L 260.044231 417.217392 
L 262.286242 423.748148 
L 266.527309 429.19707 
L 272.307844 432.973683 
L 279.001438 434.668731 
L 285.882737 434.09853 
L 292.206043 431.324871 
L 297.28613 426.648322 
L 300.572491 420.575659 
L 301.708997 413.764951 
" style="fill:none;stroke:#000000;stroke-dasharray:5.55,2.4;stroke-dashoffset:0;stroke-width:1.5;"/>
   </g>
   <g id="line2d_56">
    <path clip-path="url(#p25b75e4791)" d="M 286.64972 413.764951 
L 286.329167 411.843982 
L 285.402244 410.13118 
L 283.969399 408.812153 
L 282.185903 408.029839 
L 280.245024 407.869013 
L 278.357087 408.347103 
L 276.726679 409.412302 
L 275.530481 410.949177 
L 274.898119 412.791185 
L 274.898119 414.738716 
L 275.530481 416.580724 
L 276.726679 418.1176 
L 278.357087 419.182798 
L 280.245024 419.660889 
L 282.185903 419.500063 
L 283.969399 418.717749 
L 285.402244 417.398722 
L 286.329167 415.68592 
L 286.64972 413.764951 
" style="fill:none;stroke:#ff0000;stroke-linecap:square;stroke-width:1.5;"/>
   </g>
   <g id="line2d_57">
    <path clip-path="url(#p25b75e4791)" d="M 478.886064 434.034779 
L 477.749558 427.22407 
L 474.463197 421.151408 
L 469.383111 416.474859 
L 463.059804 413.701199 
L 456.178506 413.130999 
L 449.484911 414.826047 
L 443.704376 418.602659 
L 439.463309 424.051582 
L 437.221298 430.582338 
L 437.221298 437.48722 
L 439.463309 444.017976 
L 443.704376 449.466898 
L 449.484911 453.24351 
L 456.178506 454.938559 
L 463.059804 454.368358 
L 469.383111 451.594699 
L 474.463197 446.918149 
L 477.749558 440.845487 
L 478.886064 434.034779 
" style="fill:none;stroke:#000000;stroke-dasharray:5.55,2.4;stroke-dashoffset:0;stroke-width:1.5;"/>
   </g>
   <g id="line2d_58">
    <path clip-path="url(#p25b75e4791)" d="M 463.826787 434.034779 
L 463.506234 432.11381 
L 462.579312 430.401008 
L 461.146467 429.081981 
L 459.36297 428.299667 
L 457.422091 428.138841 
L 455.534154 428.616931 
L 453.903747 429.68213 
L 452.707548 431.219005 
L 452.075186 433.061013 
L 452.075186 435.008544 
L 452.707548 436.850552 
L 453.903747 438.387428 
L 455.534154 439.452626 
L 457.422091 439.930717 
L 459.36297 439.769891 
L 461.146467 438.987577 
L 462.579312 437.66855 
L 463.506234 435.955748 
L 463.826787 434.034779 
" style="fill:none;stroke:#ff0000;stroke-linecap:square;stroke-width:1.5;"/>
   </g>
   <g id="line2d_59">
    <path clip-path="url(#p25b75e4791)" d="M 481.121804 335.59221 
L 479.985298 328.781501 
L 476.698938 322.708839 
L 471.618851 318.03229 
L 465.295544 315.25863 
L 458.414246 314.68843 
L 451.720652 316.383478 
L 445.940116 320.16009 
L 441.69905 325.609012 
L 439.457039 332.139769 
L 439.457039 339.044651 
L 441.69905 345.575407 
L 445.940116 351.024329 
L 451.720652 354.800941 
L 458.414246 356.49599 
L 465.295544 355.925789 
L 471.618851 353.15213 
L 476.698938 348.47558 
L 479.985298 342.402918 
L 481.121804 335.59221 
" style="fill:none;stroke:#000000;stroke-dasharray:5.55,2.4;stroke-dashoffset:0;stroke-width:1.5;"/>
   </g>
   <g id="line2d_60">
    <path clip-path="url(#p25b75e4791)" d="M 466.062527 335.59221 
L 465.741974 333.671241 
L 464.815052 331.958438 
L 463.382207 330.639412 
L 461.59871 329.857098 
L 459.657831 329.696272 
L 457.769895 330.174362 
L 456.139487 331.239561 
L 454.943289 332.776436 
L 454.310927 334.618444 
L 454.310927 336.565975 
L 454.943289 338.407983 
L 456.139487 339.944859 
L 457.769895 341.010057 
L 459.657831 341.488148 
L 461.59871 341.327322 
L 463.382207 340.545008 
L 464.815052 339.225981 
L 465.741974 337.513179 
L 466.062527 335.59221 
" style="fill:none;stroke:#ff0000;stroke-linecap:square;stroke-width:1.5;"/>
   </g>
   <g id="line2d_61">
    <path clip-path="url(#p25b75e4791)" d="M 213.827789 351.467401 
L 212.691283 344.656693 
L 209.404922 338.58403 
L 204.324836 333.907481 
L 198.001529 331.133822 
L 191.120231 330.563621 
L 184.426637 332.258669 
L 178.646101 336.035282 
L 174.405035 341.484204 
L 172.163023 348.01496 
L 172.163023 354.919842 
L 174.405035 361.450598 
L 178.646101 366.89952 
L 184.426637 370.676133 
L 191.120231 372.371181 
L 198.001529 371.80098 
L 204.324836 369.027321 
L 209.404922 364.350772 
L 212.691283 358.278109 
L 213.827789 351.467401 
" style="fill:none;stroke:#000000;stroke-dasharray:5.55,2.4;stroke-dashoffset:0;stroke-width:1.5;"/>
   </g>
   <g id="line2d_62">
    <path clip-path="url(#p25b75e4791)" d="M 198.768512 351.467401 
L 198.447959 349.546432 
L 197.521037 347.83363 
L 196.088192 346.514603 
L 194.304695 345.732289 
L 192.363816 345.571463 
L 190.475879 346.049554 
L 188.845472 347.114752 
L 187.649274 348.651627 
L 187.016911 350.493636 
L 187.016911 352.441166 
L 187.649274 354.283175 
L 188.845472 355.82005 
L 190.475879 356.885248 
L 192.363816 357.363339 
L 194.304695 357.202513 
L 196.088192 356.420199 
L 197.521037 355.101172 
L 198.447959 353.38837 
L 198.768512 351.467401 
" style="fill:none;stroke:#ff0000;stroke-linecap:square;stroke-width:1.5;"/>
   </g>
   <g id="line2d_63">
    <path clip-path="url(#p25b75e4791)" d="M 252.130383 341.647342 
L 250.993877 334.836633 
L 247.707516 328.763971 
L 242.62743 324.087422 
L 236.304123 321.313762 
L 229.422825 320.743562 
L 222.72923 322.43861 
L 216.948695 326.215222 
L 212.707629 331.664144 
L 210.465617 338.194901 
L 210.465617 345.099783 
L 212.707629 351.630539 
L 216.948695 357.079461 
L 222.72923 360.856073 
L 229.422825 362.551122 
L 236.304123 361.980921 
L 242.62743 359.207262 
L 247.707516 354.530712 
L 250.993877 348.45805 
L 252.130383 341.647342 
" style="fill:none;stroke:#000000;stroke-dasharray:5.55,2.4;stroke-dashoffset:0;stroke-width:1.5;"/>
   </g>
   <g id="line2d_64">
    <path clip-path="url(#p25b75e4791)" d="M 237.071106 341.647342 
L 236.750553 339.726373 
L 235.823631 338.01357 
L 234.390786 336.694544 
L 232.607289 335.91223 
L 230.66641 335.751404 
L 228.778473 336.229494 
L 227.148066 337.294693 
L 225.951868 338.831568 
L 225.319505 340.673576 
L 225.319505 342.621107 
L 225.951868 344.463115 
L 227.148066 345.999991 
L 228.778473 347.065189 
L 230.66641 347.54328 
L 232.607289 347.382454 
L 234.390786 346.60014 
L 235.823631 345.281113 
L 236.750553 343.568311 
L 237.071106 341.647342 
" style="fill:none;stroke:#ff0000;stroke-linecap:square;stroke-width:1.5;"/>
   </g>
   <g id="line2d_65">
    <path clip-path="url(#p25b75e4791)" d="M 418.085792 209.939131 
L 416.949286 203.128423 
L 413.662926 197.05576 
L 408.582839 192.379211 
L 402.259532 189.605552 
L 395.378234 189.035351 
L 388.68464 190.730399 
L 382.904104 194.507012 
L 378.663038 199.955934 
L 376.421026 206.48669 
L 376.421026 213.391572 
L 378.663038 219.922328 
L 382.904104 225.37125 
L 388.68464 229.147863 
L 395.378234 230.842911 
L 402.259532 230.27271 
L 408.582839 227.499051 
L 413.662926 222.822502 
L 416.949286 216.749839 
L 418.085792 209.939131 
" style="fill:none;stroke:#000000;stroke-dasharray:5.55,2.4;stroke-dashoffset:0;stroke-width:1.5;"/>
   </g>
   <g id="line2d_66">
    <path clip-path="url(#p25b75e4791)" d="M 403.026515 209.939131 
L 402.705962 208.018162 
L 401.77904 206.30536 
L 400.346195 204.986333 
L 398.562698 204.204019 
L 396.621819 204.043193 
L 394.733882 204.521284 
L 393.103475 205.586482 
L 391.907277 207.123357 
L 391.274915 208.965366 
L 391.274915 210.912896 
L 391.907277 212.754905 
L 393.103475 214.29178 
L 394.733882 215.356978 
L 396.621819 215.835069 
L 398.562698 215.674243 
L 400.346195 214.891929 
L 401.77904 213.572902 
L 402.705962 211.8601 
L 403.026515 209.939131 
" style="fill:none;stroke:#ff0000;stroke-linecap:square;stroke-width:1.5;"/>
   </g>
   <g id="line2d_67">
    <path clip-path="url(#p25b75e4791)" d="M 98.891566 487.188434 
L 98.891566 94.571566 
" style="fill:none;stroke:#000000;stroke-linecap:square;stroke-width:4;"/>
   </g>
   <g id="line2d_68">
    <path clip-path="url(#p25b75e4791)" d="M 98.891566 94.571566 
L 491.508434 94.571566 
" style="fill:none;stroke:#000000;stroke-linecap:square;stroke-width:4;"/>
   </g>
   <g id="line2d_69">
    <path clip-path="url(#p25b75e4791)" d="M 491.508434 94.571566 
L 491.508434 487.188434 
" style="fill:none;stroke:#000000;stroke-linecap:square;stroke-width:4;"/>
   </g>
   <g id="line2d_70">
    <path clip-path="url(#p25b75e4791)" d="M 491.508434 487.188434 
L 98.891566 487.188434 
" style="fill:none;stroke:#000000;stroke-linecap:square;stroke-width:4;"/>
   </g>
   <g id="line2d_71">
    <path clip-path="url(#p25b75e4791)" d="M 170.584482 383.978602 
L 170.799614 383.978602 
L 171.713928 383.76347 
L 172.843373 383.225639 
L 174.080386 382.257542 
L 174.672 381.612145 
L 175.048482 381.02053 
L 175.424964 379.998651 
L 175.640096 378.761639 
L 175.53253 376.771663 
L 175.048482 374.781687 
L 174.134169 372.95306 
L 172.78959 370.963084 
L 171.713928 369.618506 
L 170.315566 367.359614 
L 169.401253 365.315855 
L 168.648289 363.32588 
L 167.680193 361.335904 
L 166.819663 359.292145 
L 166.335614 357.087036 
L 166.281831 354.881928 
L 166.819663 352.300337 
L 167.949108 349.93388 
L 169.239904 348.105253 
L 170.853398 346.16906 
L 171.660145 344.663133 
L 172.413108 342.72694 
L 173.703904 336.864578 
L 173.703904 335.412434 
L 173.488771 333.691373 
L 173.004723 332.024096 
L 172.197976 329.872771 
L 171.552578 327.775229 
L 171.22988 325.946602 
L 171.176096 324.440675 
L 171.445012 322.665831 
L 171.982843 320.890988 
L 173.865253 316.695904 
L 174.403084 315.028627 
L 174.779566 312.715952 
L 174.833349 311.586506 
L 174.564434 310.134361 
L 173.972819 308.467084 
L 173.058506 307.068723 
L 171.337446 305.401446 
L 169.293687 304.003084 
L 167.249928 302.873639 
L 165.528867 301.69041 
L 163.538892 299.485301 
L 161.602699 295.935614 
L 159.774072 291.579181 
L 157.568964 285.232771 
L 156.708434 283.67306 
L 155.578988 281.898217 
L 154.664675 280.015807 
L 154.07306 278.133398 
L 153.427663 275.60559 
L 151.975518 271.733205 
L 151.383904 269.474313 
L 151.222554 265.010313 
L 151.061205 261.837108 
L 149.125012 237.150651 
L 148.640964 231.073157 
L 148.318265 226.824289 
L 147.242602 213.217157 
L 146.812337 207.139663 
L 146.113157 198.534361 
L 145.575325 191.757687 
L 142.671036 153.894361 
L 142.186988 148.139566 
L 141.595373 140.287229 
L 141.595373 140.287229 
" style="fill:none;stroke:#8000ff;stroke-linecap:square;stroke-width:1.5;"/>
   </g>
   <g id="line2d_72">
    <path clip-path="url(#p25b75e4791)" d="M 309.560096 156.045687 
L 309.775229 156.09947 
L 309.990361 156.207036 
L 310.420627 156.637301 
L 310.904675 157.551614 
L 311.388723 159.165108 
L 311.550072 160.778602 
L 311.281157 163.360193 
L 310.689542 165.457735 
L 308.269301 171.857928 
L 291.75788 219.940048 
L 290.682217 221.876241 
L 289.552771 223.328386 
L 287.885494 224.78053 
L 284.38959 227.254554 
L 280.463422 230.750458 
L 278.688578 232.095036 
L 277.290217 233.332048 
L 275.838072 235.214458 
L 273.848096 239.409542 
L 272.664867 241.291952 
L 270.836241 243.120578 
L 268.953831 244.35759 
L 266.856289 245.164337 
L 262.983904 245.917301 
L 260.50988 247.046747 
L 258.896386 248.283759 
L 257.498024 249.789687 
L 256.314795 251.887229 
L 255.723181 253.877205 
L 255.400482 255.920964 
L 255.400482 257.642024 
L 256.099663 262.21359 
L 256.153446 264.096 
L 255.615614 268.344867 
L 255.776964 272.486169 
L 255.508048 274.691277 
L 254.808867 276.735036 
L 252.818892 280.768771 
L 252.227277 282.758747 
L 251.689446 286.900048 
L 250.828916 293.354024 
L 250.237301 296.849928 
L 249.53812 301.045012 
L 249.484337 303.088771 
L 249.968386 305.347663 
L 250.667566 307.660337 
L 252.119711 311.801639 
L 253.14159 315.620241 
L 254.647518 322.289349 
L 255.239133 325.462554 
L 256.04588 330.087904 
L 256.637494 334.713253 
L 256.960193 339.392386 
L 256.852627 343.748819 
L 256.422361 347.728771 
L 255.669398 351.278458 
L 254.970217 353.698699 
L 253.518072 357.463518 
L 251.958361 360.690506 
L 250.882699 362.572916 
L 248.785157 365.853687 
L 247.709494 368.058795 
L 245.665735 373.275759 
L 242.869012 378.654072 
L 234.909108 393.552 
L 231.68212 399.521928 
L 228.293783 405.868337 
L 228.293783 405.868337 
" style="fill:none;stroke:#376ff9;stroke-linecap:square;stroke-width:1.5;"/>
   </g>
   <g id="line2d_73">
    <path clip-path="url(#p25b75e4791)" d="M 140.412145 261.245494 
L 141.165108 261.245494 
L 143.800482 261.35306 
L 145.521542 261.51441 
L 147.995566 261.729542 
L 150.577157 261.837108 
L 153.104964 262.106024 
L 155.202506 262.321157 
L 157.031133 262.536289 
L 159.505157 262.805205 
L 161.656482 263.020337 
L 163.754024 263.289253 
L 165.905349 263.504386 
L 168.379373 263.773301 
L 170.907181 264.096 
L 173.058506 264.311133 
L 174.833349 264.526265 
L 176.984675 264.741398 
L 179.512482 264.902747 
L 182.040289 265.11788 
L 184.137831 265.386795 
L 186.611855 265.709494 
L 188.386699 265.924627 
L 190.860723 266.301108 
L 193.38853 266.731373 
L 195.862554 267.161639 
L 197.960096 267.53812 
L 200.111422 267.914602 
L 202.208964 268.398651 
L 204.252723 269.151614 
L 206.350265 270.012145 
L 208.447807 270.711325 
L 210.545349 271.195373 
L 212.320193 271.625639 
L 214.471518 272.16347 
L 215.86988 272.378602 
L 218.343904 272.755084 
L 220.118747 272.970217 
L 222.270072 273.239133 
L 224.744096 273.508048 
L 226.895422 273.723181 
L 228.670265 273.88453 
L 231.144289 274.153446 
L 233.295614 274.368578 
L 235.823422 274.583711 
L 237.598265 274.798843 
L 239.74959 275.013976 
L 241.847133 275.229108 
L 244.590072 275.551807 
L 247.225446 276.250988 
L 249.215422 277.057735 
L 250.882699 277.649349 
L 253.087807 278.294747 
L 255.454265 279.316627 
L 256.691277 280.123373 
L 258.412337 281.360386 
L 260.50988 282.651181 
L 262.499855 283.619277 
L 264.758747 284.69494 
L 267.017639 285.824386 
L 269.007614 286.631133 
L 270.674892 287.222747 
L 273.041349 288.083277 
L 275.031325 288.782458 
L 277.075084 289.374072 
L 279.495325 289.965687 
L 281.592867 290.449735 
L 283.69041 290.826217 
L 286.164434 291.202699 
L 288.638458 291.471614 
L 290.736 291.686747 
L 292.510843 291.794313 
L 294.33947 291.848096 
L 296.437012 291.90188 
L 298.964819 291.955663 
L 301.116145 291.955663 
L 303.643952 291.955663 
L 305.795277 291.90188 
L 307.946602 291.90188 
L 310.097928 291.90188 
L 312.249253 291.848096 
L 314.400578 291.794313 
L 316.551904 291.794313 
L 318.703229 291.74053 
L 321.177253 291.686747 
L 323.00588 291.686747 
L 325.157205 291.632964 
L 326.932048 291.632964 
L 329.083373 291.579181 
L 330.858217 291.579181 
L 333.009542 291.525398 
L 334.461687 291.471614 
L 336.989494 291.471614 
L 339.140819 291.417831 
L 341.614843 291.364048 
L 343.766169 291.364048 
L 345.917494 291.310265 
L 347.74612 291.310265 
L 349.520964 291.256482 
L 351.295807 291.256482 
L 353.447133 291.202699 
L 355.275759 291.148916 
L 357.427084 291.148916 
L 359.57841 291.095133 
L 362.052434 291.041349 
L 363.88106 291.041349 
L 365.655904 290.987566 
L 368.183711 290.987566 
L 369.958554 290.933783 
L 371.733398 290.933783 
L 374.261205 290.88 
L 376.41253 290.826217 
L 378.940337 290.772434 
L 381.414361 290.772434 
L 383.565687 290.718651 
L 385.717012 290.664867 
L 388.244819 290.664867 
L 390.396145 290.611084 
L 392.870169 290.557301 
" style="fill:none;stroke:#12c7e6;stroke-linecap:square;stroke-width:1.5;"/>
   </g>
   <g id="line2d_74">
    <path clip-path="url(#p25b75e4791)" d="M 344.357783 317.879133 
L 344.357783 317.879133 
L 344.519133 317.825349 
L 344.788048 317.717783 
L 345.541012 317.179952 
L 346.455325 316.104289 
L 347.530988 314.168096 
L 348.015036 312.554602 
L 348.391518 310.403277 
L 348.606651 307.929253 
L 348.875566 306.15441 
L 349.252048 303.680386 
L 349.682313 301.206361 
L 349.951229 299.431518 
L 350.327711 297.333976 
L 350.65041 295.182651 
L 350.973108 293.085108 
L 351.295807 291.310265 
L 351.564723 289.535422 
L 351.887422 287.384096 
L 352.263904 285.286554 
L 352.640386 282.81253 
L 353.124434 280.338506 
L 353.984964 278.294747 
L 355.006843 276.735036 
L 356.727904 274.798843 
L 358.502747 273.292916 
L 360.27759 271.625639 
L 361.944867 269.689446 
L 363.343229 268.022169 
L 364.90294 266.516241 
L 365.978602 265.548145 
L 367.48453 264.096 
L 368.775325 262.805205 
L 370.550169 261.030361 
L 371.733398 259.739566 
L 373.131759 258.126072 
L 374.422554 256.405012 
L 375.605783 254.683952 
L 376.681446 252.855325 
L 377.649542 250.919133 
L 378.348723 248.875373 
L 378.617639 246.831614 
L 378.510072 244.626506 
L 378.29494 242.367614 
L 377.864675 240.323855 
L 377.219277 238.387663 
L 376.627663 235.859855 
L 376.57388 233.332048 
L 376.41253 231.449639 
L 375.767133 229.136964 
L 375.175518 227.899952 
L 373.83094 226.017542 
L 372.486361 223.866217 
L 371.679614 221.33841 
L 371.410699 219.187084 
L 371.034217 217.035759 
L 370.335036 215.099566 
L 369.098024 213.002024 
L 367.968578 211.065831 
L 367.000482 208.591807 
L 366.624 206.386699 
L 366.247518 204.18159 
L 365.76347 202.137831 
L 365.279422 200.040289 
L 364.849157 197.888964 
L 364.580241 195.683855 
L 364.472675 193.53253 
L 364.526458 191.327422 
L 364.687807 189.176096 
L 364.956723 187.024771 
L 365.440771 184.496964 
L 365.924819 182.399422 
L 366.677783 179.979181 
L 367.376964 177.720289 
L 367.807229 175.353831 
L 367.914795 173.632771 
L 368.022361 171.481446 
L 368.452627 168.953639 
L 368.829108 167.232578 
L 369.259373 165.135036 
L 369.743422 163.037494 
L 370.119904 161.262651 
L 370.550169 159.165108 
L 371.088 156.691084 
L 371.464482 154.970024 
L 371.894747 152.818699 
L 372.378795 150.721157 
L 372.80906 148.623614 
L 373.293108 146.526072 
L 373.723373 144.42853 
L 374.153639 142.330988 
L 374.53012 140.609928 
L 375.067952 138.135904 
L 375.605783 135.66188 
L 376.143614 133.241639 
L 376.520096 131.466795 
L 377.057928 128.992771 
L 377.595759 126.57253 
L 378.026024 124.474988 
" style="fill:none;stroke:#5bf9c7;stroke-linecap:square;stroke-width:1.5;"/>
   </g>
   <g id="line2d_75">
    <path clip-path="url(#p25b75e4791)" d="M 234.962892 454.757205 
L 234.747759 454.810988 
L 234.801542 454.757205 
L 235.070458 454.488289 
L 235.44694 453.896675 
L 235.930988 452.767229 
L 236.199904 451.207518 
L 236.199904 449.163759 
L 235.823422 447.173783 
L 231.144289 432.437205 
L 227.433253 420.443566 
L 226.196241 416.356048 
L 225.120578 411.461783 
L 223.345735 405.653205 
L 222.108723 401.404337 
L 221.732241 399.683277 
L 221.678458 397.316819 
L 222.05494 395.165494 
L 223.076819 392.799036 
L 224.367614 390.862843 
L 226.250024 388.926651 
L 227.971084 387.689639 
L 229.692145 386.829108 
L 231.68212 385.968578 
L 233.72588 384.677783 
L 235.393157 382.956723 
L 236.361253 381.343229 
L 236.361253 381.450795 
L 235.930988 380.482699 
L 234.909108 379.514602 
L 233.188048 378.600289 
L 231.520771 378.116241 
L 229.10053 377.255711 
L 227.164337 376.126265 
L 225.765976 374.889253 
L 224.260048 373.383325 
L 222.861687 371.178217 
L 220.280096 365.208289 
L 219.096867 363.541012 
L 217.322024 361.927518 
L 214.148819 360.045108 
L 212.696675 358.86188 
L 211.24453 357.140819 
L 210.276434 355.419759 
L 209.577253 353.698699 
L 209.469687 352.838169 
L 209.52347 351.547373 
L 209.846169 349.77253 
L 210.814265 347.352289 
L 212.051277 345.46988 
L 214.901783 342.56559 
L 214.848 342.673157 
L 214.901783 342.350458 
L 214.901783 340.575614 
L 214.417735 338.26294 
L 213.610988 336.38053 
L 212.427759 334.713253 
L 210.975614 333.261108 
L 209.200771 331.808964 
L 207.372145 329.872771 
L 206.404048 328.259277 
L 205.704867 326.538217 
L 203.876241 320.299373 
L 197.744964 304.218217 
L 172.682024 239.301976 
L 170.530699 233.600964 
L 169.723952 231.610988 
L 169.723952 231.610988 
" style="fill:none;stroke:#a4f99f;stroke-linecap:square;stroke-width:1.5;"/>
   </g>
   <g id="line2d_76">
    <path clip-path="url(#p25b75e4791)" d="M 242.976578 285.663036 
L 243.568193 285.663036 
L 245.343036 285.770602 
L 247.81706 286.469783 
L 249.645687 287.27653 
L 251.743229 288.29841 
L 253.356723 288.943807 
L 255.669398 289.85812 
L 258.358554 290.88 
L 260.025831 291.579181 
L 262.015807 292.385928 
L 264.005783 293.192675 
L 265.941976 293.999422 
L 267.286554 294.698602 
L 268.953831 295.559133 
L 270.890024 296.473446 
L 272.234602 296.957494 
L 274.60106 297.818024 
L 277.075084 298.409639 
L 279.280193 298.732337 
L 281.431518 299.162602 
L 283.475277 299.754217 
L 285.626602 300.345831 
L 287.99306 301.260145 
L 290.305735 302.228241 
L 292.295711 303.088771 
L 294.608386 304.056867 
L 296.598361 304.863614 
L 298.588337 305.670361 
L 300.578313 306.477108 
L 302.24559 307.176289 
L 304.235566 307.983036 
L 306.225542 308.843566 
L 308.215518 309.650313 
L 310.205494 310.45706 
L 312.19547 311.263807 
L 314.185446 312.124337 
L 316.49812 313.038651 
L 318.165398 313.737831 
L 319.778892 314.437012 
L 322.145349 315.405108 
L 324.458024 316.319422 
L 326.448 317.179952 
L 328.115277 317.825349 
L 330.427952 318.793446 
L 332.417928 319.600193 
L 334.407904 320.460723 
L 336.39788 321.26747 
L 338.011373 321.966651 
L 340.70053 323.042313 
L 342.690506 323.84906 
L 345.003181 324.817157 
L 347.315855 325.785253 
L 349.305831 326.592 
L 351.618506 327.560096 
L 353.931181 328.528193 
L 356.243855 329.442506 
L 357.588434 330.03412 
L 359.255711 330.679518 
L 361.245687 331.540048 
L 362.912964 332.185446 
L 364.526458 332.884627 
L 366.193735 333.583807 
L 368.50641 334.49812 
L 370.173687 335.197301 
L 372.163663 336.004048 
L 374.153639 336.864578 
L 375.820916 337.509976 
L 377.810892 338.370506 
L 379.478169 339.015904 
L 381.145446 339.715084 
L 383.135422 340.521831 
L 384.748916 341.221012 
L 387.115373 342.189108 
L 389.105349 342.995855 
L 391.418024 343.963952 
L 393.085301 344.663133 
L 394.698795 345.30853 
L 397.01147 346.276627 
L 399.377928 347.244723 
L 400.991422 347.943904 
L 403.35788 348.858217 
L 405.670554 349.826313 
L 407.66053 350.63306 
L 409.650506 351.49359 
L 411.264 352.138988 
L 412.931277 352.838169 
L 415.243952 353.806265 
L 417.61041 354.774361 
L 419.600386 355.581108 
L 421.21388 356.280289 
L 423.203855 357.087036 
L 424.871133 357.786217 
L 426.861108 358.592964 
L 428.528386 359.292145 
" style="fill:none;stroke:#edc76f;stroke-linecap:square;stroke-width:1.5;"/>
   </g>
   <g id="line2d_77">
    <path clip-path="url(#p25b75e4791)" d="M 323.812627 389.464482 
L 323.489928 389.572048 
L 323.328578 389.840964 
L 323.328578 389.94853 
L 323.221012 389.733398 
L 322.898313 389.141783 
L 322.145349 388.335036 
L 320.800771 387.313157 
L 319.025928 386.50641 
L 317.035952 385.968578 
L 315.745157 385.807229 
L 311.657639 385.48453 
L 307.677687 384.892916 
L 305.526361 384.247518 
L 301.54641 381.988627 
L 299.287518 381.18188 
L 294.33947 380.321349 
L 290.628434 378.976771 
L 288.584675 378.546506 
L 286.379566 378.385157 
L 283.797976 378.062458 
L 279.22641 377.309494 
L 272.826217 376.55653 
L 270.621108 376.395181 
L 268.577349 376.502747 
L 264.382265 377.685976 
L 262.714988 378.492723 
L 260.778795 380.213783 
L 259.595566 381.988627 
L 259.649349 381.773494 
L 259.649349 381.665928 
L 259.703133 381.827277 
L 259.864482 382.203759 
L 259.810699 382.526458 
L 259.165301 383.333205 
L 257.444241 384.355084 
L 257.067759 384.408867 
L 253.195373 383.333205 
L 252.012145 383.118072 
L 248.247325 382.795373 
L 244.321157 382.149976 
L 239.857157 381.397012 
L 237.329349 381.397012 
L 235.016675 381.612145 
L 232.273735 381.665928 
L 230.391325 381.289446 
L 227.594602 380.321349 
L 227.594602 380.321349 
L 223.453301 380.213783 
L 217.106892 378.922988 
L 215.063133 379.084337 
L 213.180723 379.568386 
L 210.868048 380.321349 
L 208.985639 380.590265 
L 204.414072 380.859181 
L 200.810602 381.235663 
L 194.24906 381.128096 
L 190.269108 380.805398 
L 185.643759 380.052434 
L 183.169735 379.514602 
L 178.651952 378.170024 
L 174.618217 376.664096 
L 172.628241 375.857349 
L 168.594506 374.67412 
L 167.196145 374.351422 
L 159.290024 371.823614 
L 130.784964 362.088867 
L 130.784964 362.088867 
" style="fill:none;stroke:#ff6f39;stroke-linecap:square;stroke-width:1.5;"/>
   </g>
   <g id="line2d_78">
    <path clip-path="url(#p25b75e4791)" d="M 145.14506 307.821687 
L 145.14506 307.821687 
L 145.037494 307.821687 
L 144.929928 307.87547 
L 144.876145 307.929253 
L 144.876145 307.929253 
L 144.822361 307.929253 
L 144.822361 307.929253 
L 144.822361 307.983036 
L 144.822361 307.983036 
L 144.822361 307.983036 
L 144.822361 307.983036 
L 144.822361 307.983036 
L 144.822361 307.983036 
L 144.822361 307.983036 
L 144.822361 307.983036 
L 144.822361 307.983036 
L 144.822361 307.983036 
L 144.822361 307.983036 
L 144.876145 307.929253 
L 146.059373 307.176289 
L 147.565301 306.208193 
L 149.716627 304.917398 
L 151.545253 303.787952 
L 153.051181 302.819855 
L 154.449542 301.959325 
L 154.610892 301.851759 
L 155.09494 301.52906 
L 156.493301 300.66853 
L 158.321928 299.485301 
L 159.505157 298.624771 
L 159.55894 298.570988 
L 160.25812 298.033157 
L 161.441349 297.011277 
L 162.570795 295.828048 
L 163.807807 294.214554 
L 164.72212 292.76241 
L 166.174265 290.664867 
L 167.680193 288.621108 
L 169.078554 286.953831 
L 170.476916 285.286554 
L 171.92906 283.726843 
L 173.381205 282.113349 
L 175.102265 280.284723 
L 176.930892 278.50988 
L 178.436819 277.057735 
L 179.835181 275.121542 
L 180.588145 273.615614 
L 181.287325 271.195373 
L 181.986506 269.097831 
L 183.062169 267.054072 
L 184.191614 265.601928 
L 185.858892 264.096 
L 187.095904 263.289253 
L 189.139663 262.267373 
L 191.398554 261.245494 
L 193.38853 260.384964 
L 195.754988 259.363084 
L 197.906313 258.932819 
L 200.541687 258.879036 
L 202.531663 259.309301 
L 204.19894 259.685783 
L 205.274602 259.954699 
L 206.619181 260.223614 
L 208.071325 260.277398 
L 208.609157 260.169831 
L 210.115084 259.685783 
L 212.10506 259.255518 
L 214.740434 259.201735 
L 216.192578 259.470651 
L 217.859855 259.847133 
L 220.226313 260.008482 
L 222.323855 259.793349 
L 224.313831 259.363084 
L 226.734072 258.932819 
L 228.616482 258.717687 
L 230.660241 258.394988 
L 233.026699 257.74959 
L 234.909108 256.835277 
L 236.899084 256.02853 
L 238.835277 255.383133 
L 240.932819 254.468819 
L 242.761446 253.231807 
L 244.159807 252.209928 
L 246.311133 250.865349 
L 248.516241 249.413205 
L 250.344867 247.745928 
L 251.42053 246.401349 
L 252.603759 244.465157 
L 253.894554 242.63653 
L 255.508048 241.076819 
L 257.229108 239.624675 
L 258.788819 238.226313 
L 260.079614 236.989301 
L 261.693108 235.537157 
L 263.09147 234.407711 
L 264.81253 233.116916 
L 266.802506 231.610988 
L 268.900048 230.158843 
L 270.728675 229.029398 
L 272.288386 228.061301 
L 273.794313 227.146988 
L 275.676723 226.071325 
L 277.236434 225.157012 
L 279.06506 224.081349 
L 281.270169 222.790554 
L 283.152578 221.768675 
L 285.034988 220.693012 
L 286.594699 219.832482 
L 288.477108 218.810602 
L 289.71412 218.111422 
L 291.973012 216.928193 
L 293.855422 215.906313 
L 295.092434 215.260916 
L 297.028627 214.239036 
L 298.911036 213.217157 
L 300.470747 212.41041 
L 302.729639 211.227181 
L 304.612048 210.205301 
L 306.494458 209.183422 
L 308.107952 208.322892 
L 309.990361 207.301012 
L 311.872771 206.332916 
" style="fill:none;stroke:#ff0000;stroke-linecap:square;stroke-width:1.5;"/>
   </g>
   <g id="patch_3">
    <path d="M 72 512.64 
L 72 69.12 
" style="fill:none;stroke:#000000;stroke-linecap:square;stroke-linejoin:miter;stroke-width:0.8;"/>
   </g>
   <g id="patch_4">
    <path d="M 518.4 512.64 
L 518.4 69.12 
" style="fill:none;stroke:#000000;stroke-linecap:square;stroke-linejoin:miter;stroke-width:0.8;"/>
   </g>
   <g id="patch_5">
    <path d="M 72 512.64 
L 518.4 512.64 
" style="fill:none;stroke:#000000;stroke-linecap:square;stroke-linejoin:miter;stroke-width:0.8;"/>
   </g>
   <g id="patch_6">
    <path d="M 72 69.12 
L 518.4 69.12 
" style="fill:none;stroke:#000000;stroke-linecap:square;stroke-linejoin:miter;stroke-width:0.8;"/>
   </g>
   <g id="text_18">
    <!-- 1 -->
    <defs>
     <path d="M 14.203125 0 
L 14.203125 5.171875 
L 26.90625 5.171875 
L 26.90625 65.828125 
L 12.203125 56.296875 
L 12.203125 62.703125 
L 29.984375 74.21875 
L 36.71875 74.21875 
L 36.71875 5.171875 
L 49.421875 5.171875 
L 49.421875 0 
z
" id="DejaVuSerif-31"/>
    </defs>
    <g transform="translate(167.412792 383.988829)scale(0.1 -0.1)">
     <use xlink:href="#DejaVuSerif-31"/>
    </g>
   </g>
   <g id="text_19">
    <!-- 1 -->
    <g transform="translate(138.261422 138.366723)scale(0.1 -0.1)">
     <use xlink:href="#DejaVuSerif-31"/>
    </g>
   </g>
   <g id="text_20">
    <!-- 2 -->
    <defs>
     <path d="M 12.796875 55.515625 
L 7.328125 55.515625 
L 7.328125 68.5 
Q 12.546875 71.296875 17.84375 72.75 
Q 23.140625 74.21875 28.21875 74.21875 
Q 39.59375 74.21875 46.1875 68.703125 
Q 52.78125 63.1875 52.78125 53.71875 
Q 52.78125 43.015625 37.84375 28.125 
Q 36.671875 27 36.078125 26.421875 
L 17.671875 8.015625 
L 48.09375 8.015625 
L 48.09375 17 
L 53.8125 17 
L 53.8125 0 
L 6.78125 0 
L 6.78125 5.328125 
L 28.90625 27.390625 
Q 36.234375 34.71875 39.359375 40.84375 
Q 42.484375 46.96875 42.484375 53.71875 
Q 42.484375 61.078125 38.640625 65.234375 
Q 34.8125 69.390625 28.078125 69.390625 
Q 21.09375 69.390625 17.28125 65.921875 
Q 13.484375 62.453125 12.796875 55.515625 
z
" id="DejaVuSerif-32"/>
    </defs>
    <g transform="translate(306.384444 156.023604)scale(0.1 -0.1)">
     <use xlink:href="#DejaVuSerif-32"/>
    </g>
   </g>
   <g id="text_21">
    <!-- 2 -->
    <g transform="translate(224.085524 407.821902)scale(0.1 -0.1)">
     <use xlink:href="#DejaVuSerif-32"/>
    </g>
   </g>
   <g id="text_22">
    <!-- 3 -->
    <defs>
     <path d="M 9.71875 69.828125 
Q 15.4375 71.96875 20.671875 73.09375 
Q 25.921875 74.21875 30.515625 74.21875 
Q 41.21875 74.21875 47.21875 69.59375 
Q 53.21875 64.984375 53.21875 56.78125 
Q 53.21875 50.203125 49.0625 45.78125 
Q 44.921875 41.359375 37.3125 39.796875 
Q 46.296875 38.53125 51.25 33.28125 
Q 56.203125 28.03125 56.203125 19.671875 
Q 56.203125 9.46875 49.34375 4.015625 
Q 42.484375 -1.421875 29.59375 -1.421875 
Q 23.875 -1.421875 18.421875 -0.1875 
Q 12.984375 1.03125 7.625 3.515625 
L 7.625 17.671875 
L 13.09375 17.671875 
Q 13.578125 10.640625 17.828125 7.03125 
Q 22.078125 3.421875 29.78125 3.421875 
Q 37.25 3.421875 41.578125 7.734375 
Q 45.90625 12.0625 45.90625 19.578125 
Q 45.90625 28.171875 41.453125 32.59375 
Q 37.015625 37.015625 28.421875 37.015625 
L 23.78125 37.015625 
L 23.78125 42 
L 26.21875 42 
Q 34.765625 42 39.03125 45.53125 
Q 43.3125 49.078125 43.3125 56.203125 
Q 43.3125 62.59375 39.796875 65.984375 
Q 36.28125 69.390625 29.6875 69.390625 
Q 23.09375 69.390625 19.453125 66.265625 
Q 15.828125 63.140625 15.1875 56.984375 
L 9.71875 56.984375 
z
" id="DejaVuSerif-33"/>
    </defs>
    <g transform="translate(137.245666 261.233736)scale(0.1 -0.1)">
     <use xlink:href="#DejaVuSerif-33"/>
    </g>
   </g>
   <g id="text_23">
    <!-- 3 -->
    <g transform="translate(390.674978 290.562192)scale(0.1 -0.1)">
     <use xlink:href="#DejaVuSerif-33"/>
    </g>
   </g>
   <g id="text_24">
    <!-- 4 -->
    <defs>
     <path d="M 34.90625 24.703125 
L 34.90625 63.484375 
L 10.015625 24.703125 
z
M 56.390625 0 
L 23.1875 0 
L 23.1875 5.171875 
L 34.90625 5.171875 
L 34.90625 19.484375 
L 3.078125 19.484375 
L 3.078125 24.8125 
L 35.015625 74.21875 
L 44.671875 74.21875 
L 44.671875 24.703125 
L 58.59375 24.703125 
L 58.59375 19.484375 
L 44.671875 19.484375 
L 44.671875 5.171875 
L 56.390625 5.171875 
z
" id="DejaVuSerif-34"/>
    </defs>
    <g transform="translate(341.181531 317.894461)scale(0.1 -0.1)">
     <use xlink:href="#DejaVuSerif-34"/>
    </g>
   </g>
   <g id="text_25">
    <!-- 4 -->
    <g transform="translate(375.223047 122.723631)scale(0.1 -0.1)">
     <use xlink:href="#DejaVuSerif-34"/>
    </g>
   </g>
   <g id="text_26">
    <!-- 5 -->
    <defs>
     <path d="M 50.296875 72.90625 
L 50.296875 64.890625 
L 16.890625 64.890625 
L 16.890625 44 
Q 19.4375 45.75 22.828125 46.625 
Q 26.21875 47.515625 30.421875 47.515625 
Q 42.234375 47.515625 49.0625 40.96875 
Q 55.90625 34.421875 55.90625 23.09375 
Q 55.90625 11.53125 49 5.046875 
Q 42.09375 -1.421875 29.59375 -1.421875 
Q 24.5625 -1.421875 19.28125 -0.1875 
Q 14.015625 1.03125 8.5 3.515625 
L 8.5 17.671875 
L 14.015625 17.671875 
Q 14.453125 10.75 18.421875 7.078125 
Q 22.40625 3.421875 29.59375 3.421875 
Q 37.3125 3.421875 41.453125 8.5 
Q 45.609375 13.578125 45.609375 23.09375 
Q 45.609375 32.5625 41.484375 37.609375 
Q 37.359375 42.671875 29.59375 42.671875 
Q 25.203125 42.671875 21.84375 41.109375 
Q 18.5 39.546875 15.921875 36.28125 
L 11.71875 36.28125 
L 11.71875 72.90625 
z
" id="DejaVuSerif-35"/>
    </defs>
    <g transform="translate(231.796018 454.769403)scale(0.1 -0.1)">
     <use xlink:href="#DejaVuSerif-35"/>
    </g>
   </g>
   <g id="text_27">
    <!-- 5 -->
    <g transform="translate(165.992449 230.129692)scale(0.1 -0.1)">
     <use xlink:href="#DejaVuSerif-35"/>
    </g>
   </g>
   <g id="text_28">
    <!-- 6 -->
    <defs>
     <path d="M 32.71875 3.421875 
Q 39.59375 3.421875 43.296875 8.46875 
Q 47.015625 13.53125 47.015625 23 
Q 47.015625 32.46875 43.296875 37.515625 
Q 39.59375 42.578125 32.71875 42.578125 
Q 25.734375 42.578125 22.0625 37.6875 
Q 18.40625 32.8125 18.40625 23.578125 
Q 18.40625 13.875 22.109375 8.640625 
Q 25.828125 3.421875 32.71875 3.421875 
z
M 16.796875 40.140625 
Q 20.125 43.796875 24.3125 45.59375 
Q 28.515625 47.40625 33.796875 47.40625 
Q 44.671875 47.40625 51 40.859375 
Q 57.328125 34.328125 57.328125 23 
Q 57.328125 11.921875 50.515625 5.25 
Q 43.703125 -1.421875 32.328125 -1.421875 
Q 19.96875 -1.421875 13.328125 7.78125 
Q 6.6875 17 6.6875 34.078125 
Q 6.6875 53.21875 14.546875 63.71875 
Q 22.40625 74.21875 36.71875 74.21875 
Q 40.578125 74.21875 44.828125 73.484375 
Q 49.078125 72.75 53.515625 71.296875 
L 53.515625 59.28125 
L 48 59.28125 
Q 47.40625 64.203125 44.234375 66.796875 
Q 41.0625 69.390625 35.6875 69.390625 
Q 26.21875 69.390625 21.578125 62.203125 
Q 16.9375 55.03125 16.796875 40.140625 
z
" id="DejaVuSerif-36"/>
    </defs>
    <g transform="translate(239.793461 285.641054)scale(0.1 -0.1)">
     <use xlink:href="#DejaVuSerif-36"/>
    </g>
   </g>
   <g id="text_29">
    <!-- 6 -->
    <g transform="translate(427.141404 360.003689)scale(0.1 -0.1)">
     <use xlink:href="#DejaVuSerif-36"/>
    </g>
   </g>
   <g id="text_30">
    <!-- 7 -->
    <defs>
     <path d="M 56.390625 67.921875 
L 27.875 0 
L 20.609375 0 
L 47.796875 64.890625 
L 14.109375 64.890625 
L 14.109375 55.90625 
L 8.40625 55.90625 
L 8.40625 72.90625 
L 56.390625 72.90625 
z
" id="DejaVuSerif-37"/>
    </defs>
    <g transform="translate(320.614555 389.460377)scale(0.1 -0.1)">
     <use xlink:href="#DejaVuSerif-37"/>
    </g>
   </g>
   <g id="text_31">
    <!-- 7 -->
    <g transform="translate(126.268225 361.616745)scale(0.1 -0.1)">
     <use xlink:href="#DejaVuSerif-37"/>
    </g>
   </g>
   <g id="text_32">
    <!-- 8 -->
    <defs>
     <path d="M 46.578125 19.921875 
Q 46.578125 27.734375 42.6875 32.046875 
Q 38.8125 36.375 31.78125 36.375 
Q 24.75 36.375 20.875 32.046875 
Q 17 27.734375 17 19.921875 
Q 17 12.0625 20.875 7.734375 
Q 24.75 3.421875 31.78125 3.421875 
Q 38.8125 3.421875 42.6875 7.734375 
Q 46.578125 12.0625 46.578125 19.921875 
z
M 44.578125 55.328125 
Q 44.578125 61.96875 41.203125 65.671875 
Q 37.84375 69.390625 31.78125 69.390625 
Q 25.78125 69.390625 22.390625 65.671875 
Q 19 61.96875 19 55.328125 
Q 19 48.640625 22.390625 44.921875 
Q 25.78125 41.21875 31.78125 41.21875 
Q 37.84375 41.21875 41.203125 44.921875 
Q 44.578125 48.640625 44.578125 55.328125 
z
M 39.3125 38.8125 
Q 47.609375 37.703125 52.25 32.6875 
Q 56.890625 27.6875 56.890625 19.921875 
Q 56.890625 9.671875 50.390625 4.125 
Q 43.890625 -1.421875 31.78125 -1.421875 
Q 19.734375 -1.421875 13.203125 4.125 
Q 6.6875 9.671875 6.6875 19.921875 
Q 6.6875 27.6875 11.328125 32.6875 
Q 15.96875 37.703125 24.3125 38.8125 
Q 16.9375 40.140625 13 44.40625 
Q 9.078125 48.6875 9.078125 55.328125 
Q 9.078125 64.109375 15.125 69.15625 
Q 21.1875 74.21875 31.78125 74.21875 
Q 42.390625 74.21875 48.4375 69.15625 
Q 54.5 64.109375 54.5 55.328125 
Q 54.5 48.6875 50.5625 44.40625 
Q 46.625 40.140625 39.3125 38.8125 
z
" id="DejaVuSerif-38"/>
    </defs>
    <g transform="translate(141.986161 307.823728)scale(0.1 -0.1)">
     <use xlink:href="#DejaVuSerif-38"/>
    </g>
   </g>
   <g id="text_33">
    <!-- 8 -->
    <g transform="translate(309.814648 205.71632)scale(0.1 -0.1)">
     <use xlink:href="#DejaVuSerif-38"/>
    </g>
   </g>
  </g>
 </g>
 <defs>
  <clipPath id="p25b75e4791">
   <rect height="443.52" width="446.4" x="72" y="69.12"/>
  </clipPath>
 </defs>
</svg>
