<?xml version="1.0" encoding="utf-8" standalone="no"?>
<!DOCTYPE svg PUBLIC "-//W3C//DTD SVG 1.1//EN"
  "http://www.w3.org/Graphics/SVG/1.1/DTD/svg11.dtd">
<!-- Created with matplotlib (http://matplotlib.org/) -->
<svg height="576pt" version="1.1" viewBox="0 0 576 576" width="576pt" xmlns="http://www.w3.org/2000/svg" xmlns:xlink="http://www.w3.org/1999/xlink">
 <defs>
  <style type="text/css">
*{stroke-linecap:butt;stroke-linejoin:round;}
  </style>
 </defs>
 <g id="figure_1">
  <g id="patch_1">
   <path d="M 0 576 
L 576 576 
L 576 0 
L 0 0 
z
" style="fill:#ffffff;"/>
  </g>
  <g id="axes_1">
   <g id="patch_2">
    <path d="M 72 512.64 
L 518.4 512.64 
L 518.4 69.12 
L 72 69.12 
z
" style="fill:#ffffff;"/>
   </g>
   <g id="matplotlib.axis_1">
    <g id="xtick_1">
     <g id="line2d_1">
      <defs>
       <path d="M 0 0 
L 0 3.5 
" id="m21a172a851" style="stroke:#000000;stroke-width:0.8;"/>
      </defs>
      <g>
       <use style="stroke:#000000;stroke-width:0.8;" x="72" xlink:href="#m21a172a851" y="512.64"/>
      </g>
     </g>
     <g id="text_1">
      <!-- −1 -->
      <defs>
       <path d="M 10.59375 35.5 
L 73.1875 35.5 
L 73.1875 27.203125 
L 10.59375 27.203125 
z
" id="DejaVuSans-2212"/>
       <path d="M 12.40625 8.296875 
L 28.515625 8.296875 
L 28.515625 63.921875 
L 10.984375 60.40625 
L 10.984375 69.390625 
L 28.421875 72.90625 
L 38.28125 72.90625 
L 38.28125 8.296875 
L 54.390625 8.296875 
L 54.390625 0 
L 12.40625 0 
z
" id="DejaVuSans-31"/>
      </defs>
      <g transform="translate(64.628906 527.238438)scale(0.1 -0.1)">
       <use xlink:href="#DejaVuSans-2212"/>
       <use x="83.789062" xlink:href="#DejaVuSans-31"/>
      </g>
     </g>
    </g>
    <g id="xtick_2">
     <g id="line2d_2">
      <g>
       <use style="stroke:#000000;stroke-width:0.8;" x="125.783133" xlink:href="#m21a172a851" y="512.64"/>
      </g>
     </g>
     <g id="text_2">
      <!-- 0 -->
      <defs>
       <path d="M 31.78125 66.40625 
Q 24.171875 66.40625 20.328125 58.90625 
Q 16.5 51.421875 16.5 36.375 
Q 16.5 21.390625 20.328125 13.890625 
Q 24.171875 6.390625 31.78125 6.390625 
Q 39.453125 6.390625 43.28125 13.890625 
Q 47.125 21.390625 47.125 36.375 
Q 47.125 51.421875 43.28125 58.90625 
Q 39.453125 66.40625 31.78125 66.40625 
z
M 31.78125 74.21875 
Q 44.046875 74.21875 50.515625 64.515625 
Q 56.984375 54.828125 56.984375 36.375 
Q 56.984375 17.96875 50.515625 8.265625 
Q 44.046875 -1.421875 31.78125 -1.421875 
Q 19.53125 -1.421875 13.0625 8.265625 
Q 6.59375 17.96875 6.59375 36.375 
Q 6.59375 54.828125 13.0625 64.515625 
Q 19.53125 74.21875 31.78125 74.21875 
z
" id="DejaVuSans-30"/>
      </defs>
      <g transform="translate(122.601883 527.238438)scale(0.1 -0.1)">
       <use xlink:href="#DejaVuSans-30"/>
      </g>
     </g>
    </g>
    <g id="xtick_3">
     <g id="line2d_3">
      <g>
       <use style="stroke:#000000;stroke-width:0.8;" x="179.566265" xlink:href="#m21a172a851" y="512.64"/>
      </g>
     </g>
     <g id="text_3">
      <!-- 1 -->
      <g transform="translate(176.385015 527.238438)scale(0.1 -0.1)">
       <use xlink:href="#DejaVuSans-31"/>
      </g>
     </g>
    </g>
    <g id="xtick_4">
     <g id="line2d_4">
      <g>
       <use style="stroke:#000000;stroke-width:0.8;" x="233.349398" xlink:href="#m21a172a851" y="512.64"/>
      </g>
     </g>
     <g id="text_4">
      <!-- 2 -->
      <defs>
       <path d="M 19.1875 8.296875 
L 53.609375 8.296875 
L 53.609375 0 
L 7.328125 0 
L 7.328125 8.296875 
Q 12.9375 14.109375 22.625 23.890625 
Q 32.328125 33.6875 34.8125 36.53125 
Q 39.546875 41.84375 41.421875 45.53125 
Q 43.3125 49.21875 43.3125 52.78125 
Q 43.3125 58.59375 39.234375 62.25 
Q 35.15625 65.921875 28.609375 65.921875 
Q 23.96875 65.921875 18.8125 64.3125 
Q 13.671875 62.703125 7.8125 59.421875 
L 7.8125 69.390625 
Q 13.765625 71.78125 18.9375 73 
Q 24.125 74.21875 28.421875 74.21875 
Q 39.75 74.21875 46.484375 68.546875 
Q 53.21875 62.890625 53.21875 53.421875 
Q 53.21875 48.921875 51.53125 44.890625 
Q 49.859375 40.875 45.40625 35.40625 
Q 44.1875 33.984375 37.640625 27.21875 
Q 31.109375 20.453125 19.1875 8.296875 
z
" id="DejaVuSans-32"/>
      </defs>
      <g transform="translate(230.168148 527.238438)scale(0.1 -0.1)">
       <use xlink:href="#DejaVuSans-32"/>
      </g>
     </g>
    </g>
    <g id="xtick_5">
     <g id="line2d_5">
      <g>
       <use style="stroke:#000000;stroke-width:0.8;" x="287.13253" xlink:href="#m21a172a851" y="512.64"/>
      </g>
     </g>
     <g id="text_5">
      <!-- 3 -->
      <defs>
       <path d="M 40.578125 39.3125 
Q 47.65625 37.796875 51.625 33 
Q 55.609375 28.21875 55.609375 21.1875 
Q 55.609375 10.40625 48.1875 4.484375 
Q 40.765625 -1.421875 27.09375 -1.421875 
Q 22.515625 -1.421875 17.65625 -0.515625 
Q 12.796875 0.390625 7.625 2.203125 
L 7.625 11.71875 
Q 11.71875 9.328125 16.59375 8.109375 
Q 21.484375 6.890625 26.8125 6.890625 
Q 36.078125 6.890625 40.9375 10.546875 
Q 45.796875 14.203125 45.796875 21.1875 
Q 45.796875 27.640625 41.28125 31.265625 
Q 36.765625 34.90625 28.71875 34.90625 
L 20.21875 34.90625 
L 20.21875 43.015625 
L 29.109375 43.015625 
Q 36.375 43.015625 40.234375 45.921875 
Q 44.09375 48.828125 44.09375 54.296875 
Q 44.09375 59.90625 40.109375 62.90625 
Q 36.140625 65.921875 28.71875 65.921875 
Q 24.65625 65.921875 20.015625 65.03125 
Q 15.375 64.15625 9.8125 62.3125 
L 9.8125 71.09375 
Q 15.4375 72.65625 20.34375 73.4375 
Q 25.25 74.21875 29.59375 74.21875 
Q 40.828125 74.21875 47.359375 69.109375 
Q 53.90625 64.015625 53.90625 55.328125 
Q 53.90625 49.265625 50.4375 45.09375 
Q 46.96875 40.921875 40.578125 39.3125 
z
" id="DejaVuSans-33"/>
      </defs>
      <g transform="translate(283.95128 527.238438)scale(0.1 -0.1)">
       <use xlink:href="#DejaVuSans-33"/>
      </g>
     </g>
    </g>
    <g id="xtick_6">
     <g id="line2d_6">
      <g>
       <use style="stroke:#000000;stroke-width:0.8;" x="340.915663" xlink:href="#m21a172a851" y="512.64"/>
      </g>
     </g>
     <g id="text_6">
      <!-- 4 -->
      <defs>
       <path d="M 37.796875 64.3125 
L 12.890625 25.390625 
L 37.796875 25.390625 
z
M 35.203125 72.90625 
L 47.609375 72.90625 
L 47.609375 25.390625 
L 58.015625 25.390625 
L 58.015625 17.1875 
L 47.609375 17.1875 
L 47.609375 0 
L 37.796875 0 
L 37.796875 17.1875 
L 4.890625 17.1875 
L 4.890625 26.703125 
z
" id="DejaVuSans-34"/>
      </defs>
      <g transform="translate(337.734413 527.238438)scale(0.1 -0.1)">
       <use xlink:href="#DejaVuSans-34"/>
      </g>
     </g>
    </g>
    <g id="xtick_7">
     <g id="line2d_7">
      <g>
       <use style="stroke:#000000;stroke-width:0.8;" x="394.698795" xlink:href="#m21a172a851" y="512.64"/>
      </g>
     </g>
     <g id="text_7">
      <!-- 5 -->
      <defs>
       <path d="M 10.796875 72.90625 
L 49.515625 72.90625 
L 49.515625 64.59375 
L 19.828125 64.59375 
L 19.828125 46.734375 
Q 21.96875 47.46875 24.109375 47.828125 
Q 26.265625 48.1875 28.421875 48.1875 
Q 40.625 48.1875 47.75 41.5 
Q 54.890625 34.8125 54.890625 23.390625 
Q 54.890625 11.625 47.5625 5.09375 
Q 40.234375 -1.421875 26.90625 -1.421875 
Q 22.3125 -1.421875 17.546875 -0.640625 
Q 12.796875 0.140625 7.71875 1.703125 
L 7.71875 11.625 
Q 12.109375 9.234375 16.796875 8.0625 
Q 21.484375 6.890625 26.703125 6.890625 
Q 35.15625 6.890625 40.078125 11.328125 
Q 45.015625 15.765625 45.015625 23.390625 
Q 45.015625 31 40.078125 35.4375 
Q 35.15625 39.890625 26.703125 39.890625 
Q 22.75 39.890625 18.8125 39.015625 
Q 14.890625 38.140625 10.796875 36.28125 
z
" id="DejaVuSans-35"/>
      </defs>
      <g transform="translate(391.517545 527.238438)scale(0.1 -0.1)">
       <use xlink:href="#DejaVuSans-35"/>
      </g>
     </g>
    </g>
    <g id="xtick_8">
     <g id="line2d_8">
      <g>
       <use style="stroke:#000000;stroke-width:0.8;" x="448.481928" xlink:href="#m21a172a851" y="512.64"/>
      </g>
     </g>
     <g id="text_8">
      <!-- 6 -->
      <defs>
       <path d="M 33.015625 40.375 
Q 26.375 40.375 22.484375 35.828125 
Q 18.609375 31.296875 18.609375 23.390625 
Q 18.609375 15.53125 22.484375 10.953125 
Q 26.375 6.390625 33.015625 6.390625 
Q 39.65625 6.390625 43.53125 10.953125 
Q 47.40625 15.53125 47.40625 23.390625 
Q 47.40625 31.296875 43.53125 35.828125 
Q 39.65625 40.375 33.015625 40.375 
z
M 52.59375 71.296875 
L 52.59375 62.3125 
Q 48.875 64.0625 45.09375 64.984375 
Q 41.3125 65.921875 37.59375 65.921875 
Q 27.828125 65.921875 22.671875 59.328125 
Q 17.53125 52.734375 16.796875 39.40625 
Q 19.671875 43.65625 24.015625 45.921875 
Q 28.375 48.1875 33.59375 48.1875 
Q 44.578125 48.1875 50.953125 41.515625 
Q 57.328125 34.859375 57.328125 23.390625 
Q 57.328125 12.15625 50.6875 5.359375 
Q 44.046875 -1.421875 33.015625 -1.421875 
Q 20.359375 -1.421875 13.671875 8.265625 
Q 6.984375 17.96875 6.984375 36.375 
Q 6.984375 53.65625 15.1875 63.9375 
Q 23.390625 74.21875 37.203125 74.21875 
Q 40.921875 74.21875 44.703125 73.484375 
Q 48.484375 72.75 52.59375 71.296875 
z
" id="DejaVuSans-36"/>
      </defs>
      <g transform="translate(445.300678 527.238438)scale(0.1 -0.1)">
       <use xlink:href="#DejaVuSans-36"/>
      </g>
     </g>
    </g>
    <g id="xtick_9">
     <g id="line2d_9">
      <g>
       <use style="stroke:#000000;stroke-width:0.8;" x="502.26506" xlink:href="#m21a172a851" y="512.64"/>
      </g>
     </g>
     <g id="text_9">
      <!-- 7 -->
      <defs>
       <path d="M 8.203125 72.90625 
L 55.078125 72.90625 
L 55.078125 68.703125 
L 28.609375 0 
L 18.3125 0 
L 43.21875 64.59375 
L 8.203125 64.59375 
z
" id="DejaVuSans-37"/>
      </defs>
      <g transform="translate(499.08381 527.238438)scale(0.1 -0.1)">
       <use xlink:href="#DejaVuSans-37"/>
      </g>
     </g>
    </g>
   </g>
   <g id="matplotlib.axis_2">
    <g id="ytick_1">
     <g id="line2d_10">
      <defs>
       <path d="M 0 0 
L -3.5 0 
" id="m2321179b88" style="stroke:#000000;stroke-width:0.8;"/>
      </defs>
      <g>
       <use style="stroke:#000000;stroke-width:0.8;" x="72" xlink:href="#m2321179b88" y="460.296867"/>
      </g>
     </g>
     <g id="text_10">
      <!-- 0 -->
      <g transform="translate(58.6375 464.096086)scale(0.1 -0.1)">
       <use xlink:href="#DejaVuSans-30"/>
      </g>
     </g>
    </g>
    <g id="ytick_2">
     <g id="line2d_11">
      <g>
       <use style="stroke:#000000;stroke-width:0.8;" x="72" xlink:href="#m2321179b88" y="406.513735"/>
      </g>
     </g>
     <g id="text_11">
      <!-- 1 -->
      <g transform="translate(58.6375 410.312954)scale(0.1 -0.1)">
       <use xlink:href="#DejaVuSans-31"/>
      </g>
     </g>
    </g>
    <g id="ytick_3">
     <g id="line2d_12">
      <g>
       <use style="stroke:#000000;stroke-width:0.8;" x="72" xlink:href="#m2321179b88" y="352.730602"/>
      </g>
     </g>
     <g id="text_12">
      <!-- 2 -->
      <g transform="translate(58.6375 356.529821)scale(0.1 -0.1)">
       <use xlink:href="#DejaVuSans-32"/>
      </g>
     </g>
    </g>
    <g id="ytick_4">
     <g id="line2d_13">
      <g>
       <use style="stroke:#000000;stroke-width:0.8;" x="72" xlink:href="#m2321179b88" y="298.94747"/>
      </g>
     </g>
     <g id="text_13">
      <!-- 3 -->
      <g transform="translate(58.6375 302.746689)scale(0.1 -0.1)">
       <use xlink:href="#DejaVuSans-33"/>
      </g>
     </g>
    </g>
    <g id="ytick_5">
     <g id="line2d_14">
      <g>
       <use style="stroke:#000000;stroke-width:0.8;" x="72" xlink:href="#m2321179b88" y="245.164337"/>
      </g>
     </g>
     <g id="text_14">
      <!-- 4 -->
      <g transform="translate(58.6375 248.963556)scale(0.1 -0.1)">
       <use xlink:href="#DejaVuSans-34"/>
      </g>
     </g>
    </g>
    <g id="ytick_6">
     <g id="line2d_15">
      <g>
       <use style="stroke:#000000;stroke-width:0.8;" x="72" xlink:href="#m2321179b88" y="191.381205"/>
      </g>
     </g>
     <g id="text_15">
      <!-- 5 -->
      <g transform="translate(58.6375 195.180424)scale(0.1 -0.1)">
       <use xlink:href="#DejaVuSans-35"/>
      </g>
     </g>
    </g>
    <g id="ytick_7">
     <g id="line2d_16">
      <g>
       <use style="stroke:#000000;stroke-width:0.8;" x="72" xlink:href="#m2321179b88" y="137.598072"/>
      </g>
     </g>
     <g id="text_16">
      <!-- 6 -->
      <g transform="translate(58.6375 141.397291)scale(0.1 -0.1)">
       <use xlink:href="#DejaVuSans-36"/>
      </g>
     </g>
    </g>
    <g id="ytick_8">
     <g id="line2d_17">
      <g>
       <use style="stroke:#000000;stroke-width:0.8;" x="72" xlink:href="#m2321179b88" y="83.81494"/>
      </g>
     </g>
     <g id="text_17">
      <!-- 7 -->
      <g transform="translate(58.6375 87.614159)scale(0.1 -0.1)">
       <use xlink:href="#DejaVuSans-37"/>
      </g>
     </g>
    </g>
   </g>
   <g id="line2d_18">
    <path clip-path="url(#p9812efb3ce)" d="M 230.611062 234.798802 
" style="fill:none;stroke:#1f77b4;stroke-linecap:square;stroke-width:1.5;"/>
    <defs>
     <path d="M -5 5 
L 5 5 
L 5 -5 
L -5 -5 
z
" id="m2abdd9a1a7" style="stroke:#8000ff;stroke-linejoin:miter;"/>
    </defs>
    <g clip-path="url(#p9812efb3ce)">
     <use style="fill:#8000ff;stroke:#8000ff;stroke-linejoin:miter;" x="230.611062" xlink:href="#m2abdd9a1a7" y="234.798802"/>
    </g>
   </g>
   <g id="line2d_19">
    <path clip-path="url(#p9812efb3ce)" d="M 440.708524 216.333428 
" style="fill:none;stroke:#ff7f0e;stroke-linecap:square;stroke-width:1.5;"/>
    <defs>
     <path d="M 0 -5 
L -4.755283 -1.545085 
L -2.938926 4.045085 
L 2.938926 4.045085 
L 4.755283 -1.545085 
z
" id="m4f78b0b95b" style="stroke:#8000ff;stroke-linejoin:miter;"/>
    </defs>
    <g clip-path="url(#p9812efb3ce)">
     <use style="fill:#8000ff;stroke:#8000ff;stroke-linejoin:miter;" x="440.708524" xlink:href="#m4f78b0b95b" y="216.333428"/>
    </g>
   </g>
   <g id="line2d_20">
    <path clip-path="url(#p9812efb3ce)" d="M 176.641424 130.054609 
" style="fill:none;stroke:#2ca02c;stroke-linecap:square;stroke-width:1.5;"/>
    <defs>
     <path d="M -5 5 
L 5 5 
L 5 -5 
L -5 -5 
z
" id="m7e12ec6450" style="stroke:#376ff9;stroke-linejoin:miter;"/>
    </defs>
    <g clip-path="url(#p9812efb3ce)">
     <use style="fill:#376ff9;stroke:#376ff9;stroke-linejoin:miter;" x="176.641424" xlink:href="#m7e12ec6450" y="130.054609"/>
    </g>
   </g>
   <g id="line2d_21">
    <path clip-path="url(#p9812efb3ce)" d="M 131.986702 388.425977 
" style="fill:none;stroke:#d62728;stroke-linecap:square;stroke-width:1.5;"/>
    <defs>
     <path d="M 0 -5 
L -4.755283 -1.545085 
L -2.938926 4.045085 
L 2.938926 4.045085 
L 4.755283 -1.545085 
z
" id="mb97dd2f633" style="stroke:#376ff9;stroke-linejoin:miter;"/>
    </defs>
    <g clip-path="url(#p9812efb3ce)">
     <use style="fill:#376ff9;stroke:#376ff9;stroke-linejoin:miter;" x="131.986702" xlink:href="#mb97dd2f633" y="388.425977"/>
    </g>
   </g>
   <g id="line2d_22">
    <path clip-path="url(#p9812efb3ce)" d="M 224.921958 154.149276 
" style="fill:none;stroke:#9467bd;stroke-linecap:square;stroke-width:1.5;"/>
    <defs>
     <path d="M -5 5 
L 5 5 
L 5 -5 
L -5 -5 
z
" id="mf57dea19de" style="stroke:#12c7e6;stroke-linejoin:miter;"/>
    </defs>
    <g clip-path="url(#p9812efb3ce)">
     <use style="fill:#12c7e6;stroke:#12c7e6;stroke-linejoin:miter;" x="224.921958" xlink:href="#mf57dea19de" y="154.149276"/>
    </g>
   </g>
   <g id="line2d_23">
    <path clip-path="url(#p9812efb3ce)" d="M 246.57357 368.329149 
" style="fill:none;stroke:#8c564b;stroke-linecap:square;stroke-width:1.5;"/>
    <defs>
     <path d="M 0 -5 
L -4.755283 -1.545085 
L -2.938926 4.045085 
L 2.938926 4.045085 
L 4.755283 -1.545085 
z
" id="m629e86ba86" style="stroke:#12c7e6;stroke-linejoin:miter;"/>
    </defs>
    <g clip-path="url(#p9812efb3ce)">
     <use style="fill:#12c7e6;stroke:#12c7e6;stroke-linejoin:miter;" x="246.57357" xlink:href="#m629e86ba86" y="368.329149"/>
    </g>
   </g>
   <g id="line2d_24">
    <path clip-path="url(#p9812efb3ce)" d="M 283.870519 245.283846 
" style="fill:none;stroke:#e377c2;stroke-linecap:square;stroke-width:1.5;"/>
    <defs>
     <path d="M -5 5 
L 5 5 
L 5 -5 
L -5 -5 
z
" id="m9df6f84d43" style="stroke:#5bf9c7;stroke-linejoin:miter;"/>
    </defs>
    <g clip-path="url(#p9812efb3ce)">
     <use style="fill:#5bf9c7;stroke:#5bf9c7;stroke-linejoin:miter;" x="283.870519" xlink:href="#m9df6f84d43" y="245.283846"/>
    </g>
   </g>
   <g id="line2d_25">
    <path clip-path="url(#p9812efb3ce)" d="M 450.757125 125.570343 
" style="fill:none;stroke:#7f7f7f;stroke-linecap:square;stroke-width:1.5;"/>
    <defs>
     <path d="M 0 -5 
L -4.755283 -1.545085 
L -2.938926 4.045085 
L 2.938926 4.045085 
L 4.755283 -1.545085 
z
" id="mf1dfc7e843" style="stroke:#5bf9c7;stroke-linejoin:miter;"/>
    </defs>
    <g clip-path="url(#p9812efb3ce)">
     <use style="fill:#5bf9c7;stroke:#5bf9c7;stroke-linejoin:miter;" x="450.757125" xlink:href="#mf1dfc7e843" y="125.570343"/>
    </g>
   </g>
   <g id="line2d_26">
    <path clip-path="url(#p9812efb3ce)" d="M 424.513007 177.609865 
" style="fill:none;stroke:#bcbd22;stroke-linecap:square;stroke-width:1.5;"/>
    <defs>
     <path d="M -5 5 
L 5 5 
L 5 -5 
L -5 -5 
z
" id="m4d33269b8a" style="stroke:#a4f99f;stroke-linejoin:miter;"/>
    </defs>
    <g clip-path="url(#p9812efb3ce)">
     <use style="fill:#a4f99f;stroke:#a4f99f;stroke-linejoin:miter;" x="424.513007" xlink:href="#m4d33269b8a" y="177.609865"/>
    </g>
   </g>
   <g id="line2d_27">
    <path clip-path="url(#p9812efb3ce)" d="M 348.986812 418.906005 
" style="fill:none;stroke:#17becf;stroke-linecap:square;stroke-width:1.5;"/>
    <defs>
     <path d="M 0 -5 
L -4.755283 -1.545085 
L -2.938926 4.045085 
L 2.938926 4.045085 
L 4.755283 -1.545085 
z
" id="m723c080a72" style="stroke:#a4f99f;stroke-linejoin:miter;"/>
    </defs>
    <g clip-path="url(#p9812efb3ce)">
     <use style="fill:#a4f99f;stroke:#a4f99f;stroke-linejoin:miter;" x="348.986812" xlink:href="#m723c080a72" y="418.906005"/>
    </g>
   </g>
   <g id="line2d_28">
    <path clip-path="url(#p9812efb3ce)" d="M 334.300933 251.651259 
" style="fill:none;stroke:#1f77b4;stroke-linecap:square;stroke-width:1.5;"/>
    <defs>
     <path d="M -5 5 
L 5 5 
L 5 -5 
L -5 -5 
z
" id="mae51fd2d61" style="stroke:#edc76f;stroke-linejoin:miter;"/>
    </defs>
    <g clip-path="url(#p9812efb3ce)">
     <use style="fill:#edc76f;stroke:#edc76f;stroke-linejoin:miter;" x="334.300933" xlink:href="#mae51fd2d61" y="251.651259"/>
    </g>
   </g>
   <g id="line2d_29">
    <path clip-path="url(#p9812efb3ce)" d="M 174.180525 418.591446 
" style="fill:none;stroke:#ff7f0e;stroke-linecap:square;stroke-width:1.5;"/>
    <defs>
     <path d="M 0 -5 
L -4.755283 -1.545085 
L -2.938926 4.045085 
L 2.938926 4.045085 
L 4.755283 -1.545085 
z
" id="mf7627536be" style="stroke:#edc76f;stroke-linejoin:miter;"/>
    </defs>
    <g clip-path="url(#p9812efb3ce)">
     <use style="fill:#edc76f;stroke:#edc76f;stroke-linejoin:miter;" x="174.180525" xlink:href="#mf7627536be" y="418.591446"/>
    </g>
   </g>
   <g id="line2d_30">
    <path clip-path="url(#p9812efb3ce)" d="M 294.821025 395.783509 
" style="fill:none;stroke:#2ca02c;stroke-linecap:square;stroke-width:1.5;"/>
    <defs>
     <path d="M -5 5 
L 5 5 
L 5 -5 
L -5 -5 
z
" id="m851701f016" style="stroke:#ff6f39;stroke-linejoin:miter;"/>
    </defs>
    <g clip-path="url(#p9812efb3ce)">
     <use style="fill:#ff6f39;stroke:#ff6f39;stroke-linejoin:miter;" x="294.821025" xlink:href="#m851701f016" y="395.783509"/>
    </g>
   </g>
   <g id="line2d_31">
    <path clip-path="url(#p9812efb3ce)" d="M 258.096532 202.568547 
" style="fill:none;stroke:#d62728;stroke-linecap:square;stroke-width:1.5;"/>
    <defs>
     <path d="M 0 -5 
L -4.755283 -1.545085 
L -2.938926 4.045085 
L 2.938926 4.045085 
L 4.755283 -1.545085 
z
" id="m84f28b5bc0" style="stroke:#ff6f39;stroke-linejoin:miter;"/>
    </defs>
    <g clip-path="url(#p9812efb3ce)">
     <use style="fill:#ff6f39;stroke:#ff6f39;stroke-linejoin:miter;" x="258.096532" xlink:href="#m84f28b5bc0" y="202.568547"/>
    </g>
   </g>
   <g id="line2d_32">
    <path clip-path="url(#p9812efb3ce)" d="M 153.59952 451.936996 
" style="fill:none;stroke:#9467bd;stroke-linecap:square;stroke-width:1.5;"/>
    <defs>
     <path d="M -5 5 
L 5 5 
L 5 -5 
L -5 -5 
z
" id="mcd34482a20" style="stroke:#ff0000;stroke-linejoin:miter;"/>
    </defs>
    <g clip-path="url(#p9812efb3ce)">
     <use style="fill:#ff0000;stroke:#ff0000;stroke-linejoin:miter;" x="153.59952" xlink:href="#mcd34482a20" y="451.936996"/>
    </g>
   </g>
   <g id="line2d_33">
    <path clip-path="url(#p9812efb3ce)" d="M 131.523277 131.411062 
" style="fill:none;stroke:#8c564b;stroke-linecap:square;stroke-width:1.5;"/>
    <defs>
     <path d="M 0 -5 
L -4.755283 -1.545085 
L -2.938926 4.045085 
L 2.938926 4.045085 
L 4.755283 -1.545085 
z
" id="md3fc158c26" style="stroke:#ff0000;stroke-linejoin:miter;"/>
    </defs>
    <g clip-path="url(#p9812efb3ce)">
     <use style="fill:#ff0000;stroke:#ff0000;stroke-linejoin:miter;" x="131.523277" xlink:href="#md3fc158c26" y="131.411062"/>
    </g>
   </g>
   <g id="line2d_34">
    <defs>
     <path d="M 0 2.5 
C 0.663008 2.5 1.29895 2.236584 1.767767 1.767767 
C 2.236584 1.29895 2.5 0.663008 2.5 0 
C 2.5 -0.663008 2.236584 -1.29895 1.767767 -1.767767 
C 1.29895 -2.236584 0.663008 -2.5 0 -2.5 
C -0.663008 -2.5 -1.29895 -2.236584 -1.767767 -1.767767 
C -2.236584 -1.29895 -2.5 -0.663008 -2.5 0 
C -2.5 0.663008 -2.236584 1.29895 -1.767767 1.767767 
C -1.29895 2.236584 -0.663008 2.5 0 2.5 
z
" id="mbee8c7e393" style="stroke:#000000;"/>
    </defs>
    <g clip-path="url(#p9812efb3ce)">
     <use style="stroke:#000000;" x="396.989792" xlink:href="#mbee8c7e393" y="232.012135"/>
     <use style="stroke:#000000;" x="431.222808" xlink:href="#mbee8c7e393" y="424.006422"/>
     <use style="stroke:#000000;" x="396.693102" xlink:href="#mbee8c7e393" y="328.636474"/>
     <use style="stroke:#000000;" x="195.695744" xlink:href="#mbee8c7e393" y="202.208946"/>
     <use style="stroke:#000000;" x="410.042195" xlink:href="#mbee8c7e393" y="426.469755"/>
     <use style="stroke:#000000;" x="463.272836" xlink:href="#mbee8c7e393" y="353.823401"/>
     <use style="stroke:#000000;" x="203.75777" xlink:href="#mbee8c7e393" y="361.354069"/>
     <use style="stroke:#000000;" x="171.388984" xlink:href="#mbee8c7e393" y="346.846434"/>
     <use style="stroke:#000000;" x="400.231097" xlink:href="#mbee8c7e393" y="265.40296"/>
     <use style="stroke:#000000;" x="360.139069" xlink:href="#mbee8c7e393" y="359.263155"/>
     <use style="stroke:#000000;" x="131.241" xlink:href="#mbee8c7e393" y="232.390268"/>
     <use style="stroke:#000000;" x="319.322114" xlink:href="#mbee8c7e393" y="348.390617"/>
     <use style="stroke:#000000;" x="248.967739" xlink:href="#mbee8c7e393" y="310.72585"/>
     <use style="stroke:#000000;" x="327.28689" xlink:href="#mbee8c7e393" y="158.319279"/>
     <use style="stroke:#000000;" x="136.627835" xlink:href="#mbee8c7e393" y="258.077212"/>
     <use style="stroke:#000000;" x="372.17262" xlink:href="#mbee8c7e393" y="315.221373"/>
     <use style="stroke:#000000;" x="344.985486" xlink:href="#mbee8c7e393" y="341.71397"/>
     <use style="stroke:#000000;" x="205.876876" xlink:href="#mbee8c7e393" y="327.486842"/>
     <use style="stroke:#000000;" x="399.164289" xlink:href="#mbee8c7e393" y="380.08143"/>
     <use style="stroke:#000000;" x="310.909072" xlink:href="#mbee8c7e393" y="146.584657"/>
     <use style="stroke:#000000;" x="251.663187" xlink:href="#mbee8c7e393" y="442.414169"/>
     <use style="stroke:#000000;" x="131.361276" xlink:href="#mbee8c7e393" y="329.113546"/>
     <use style="stroke:#000000;" x="398.610445" xlink:href="#mbee8c7e393" y="248.707547"/>
     <use style="stroke:#000000;" x="384.432861" xlink:href="#mbee8c7e393" y="321.928924"/>
     <use style="stroke:#000000;" x="187.573377" xlink:href="#mbee8c7e393" y="354.100252"/>
     <use style="stroke:#000000;" x="204.817323" xlink:href="#mbee8c7e393" y="344.420455"/>
     <use style="stroke:#000000;" x="188.63293" xlink:href="#mbee8c7e393" y="337.166638"/>
     <use style="stroke:#000000;" x="339.730592" xlink:href="#mbee8c7e393" y="353.826886"/>
     <use style="stroke:#000000;" x="352.562278" xlink:href="#mbee8c7e393" y="350.488563"/>
     <use style="stroke:#000000;" x="133.934418" xlink:href="#mbee8c7e393" y="245.23374"/>
     <use style="stroke:#000000;" x="332.1538" xlink:href="#mbee8c7e393" y="345.052294"/>
     <use style="stroke:#000000;" x="358.579053" xlink:href="#mbee8c7e393" y="328.467672"/>
    </g>
   </g>
   <g id="line2d_35">
    <path clip-path="url(#p9812efb3ce)" d="M 418.503045 232.012135 
L 417.337398 225.026793 
L 413.966772 218.798421 
L 408.756427 214.00196 
L 402.270984 211.157181 
L 395.213242 210.57236 
L 388.348017 212.310871 
L 382.419263 216.18432 
L 378.069451 221.772958 
L 375.769952 228.471169 
L 375.769952 235.5531 
L 378.069451 242.251311 
L 382.419263 247.839949 
L 388.348017 251.713398 
L 395.213242 253.451909 
L 402.270984 252.867088 
L 408.756427 250.022309 
L 413.966772 245.225848 
L 417.337398 238.997476 
L 418.503045 232.012135 
" style="fill:none;stroke:#000000;stroke-dasharray:5.55,2.4;stroke-dashoffset:0;stroke-width:1.5;"/>
   </g>
   <g id="line2d_36">
    <path clip-path="url(#p9812efb3ce)" d="M 402.905937 232.012135 
L 402.585384 230.091166 
L 401.658462 228.378363 
L 400.225617 227.059337 
L 398.44212 226.277022 
L 396.501241 226.116197 
L 394.613304 226.594287 
L 392.982897 227.659485 
L 391.786699 229.196361 
L 391.154336 231.038369 
L 391.154336 232.9859 
L 391.786699 234.827908 
L 392.982897 236.364784 
L 394.613304 237.429982 
L 396.501241 237.908072 
L 398.44212 237.747247 
L 400.225617 236.964932 
L 401.658462 235.645906 
L 402.585384 233.933104 
L 402.905937 232.012135 
" style="fill:none;stroke:#ff0000;stroke-linecap:square;stroke-width:1.5;"/>
   </g>
   <g id="line2d_37">
    <path clip-path="url(#p9812efb3ce)" d="M 452.736061 424.006422 
L 451.570414 417.021081 
L 448.199787 410.792709 
L 442.989442 405.996248 
L 436.503999 403.151469 
L 429.446258 402.566648 
L 422.581033 404.305159 
L 416.652278 408.178608 
L 412.302467 413.767246 
L 410.002968 420.465457 
L 410.002968 427.547387 
L 412.302467 434.245599 
L 416.652278 439.834237 
L 422.581033 443.707686 
L 429.446258 445.446197 
L 436.503999 444.861376 
L 442.989442 442.016597 
L 448.199787 437.220136 
L 451.570414 430.991764 
L 452.736061 424.006422 
" style="fill:none;stroke:#000000;stroke-dasharray:5.55,2.4;stroke-dashoffset:0;stroke-width:1.5;"/>
   </g>
   <g id="line2d_38">
    <path clip-path="url(#p9812efb3ce)" d="M 437.138953 424.006422 
L 436.8184 422.085453 
L 435.891477 420.372651 
L 434.458632 419.053624 
L 432.675136 418.27131 
L 430.734257 418.110484 
L 428.84632 418.588575 
L 427.215912 419.653773 
L 426.019714 421.190649 
L 425.387352 423.032657 
L 425.387352 424.980188 
L 426.019714 426.822196 
L 427.215912 428.359071 
L 428.84632 429.42427 
L 430.734257 429.90236 
L 432.675136 429.741534 
L 434.458632 428.95922 
L 435.891477 427.640194 
L 436.8184 425.927391 
L 437.138953 424.006422 
" style="fill:none;stroke:#ff0000;stroke-linecap:square;stroke-width:1.5;"/>
   </g>
   <g id="line2d_39">
    <path clip-path="url(#p9812efb3ce)" d="M 418.206355 328.636474 
L 417.040707 321.651132 
L 413.670081 315.42276 
L 408.459736 310.6263 
L 401.974293 307.781521 
L 394.916551 307.196699 
L 388.051326 308.935211 
L 382.122572 312.808659 
L 377.77276 318.397297 
L 375.473261 325.095509 
L 375.473261 332.177439 
L 377.77276 338.87565 
L 382.122572 344.464288 
L 388.051326 348.337737 
L 394.916551 350.076248 
L 401.974293 349.491427 
L 408.459736 346.646648 
L 413.670081 341.850187 
L 417.040707 335.621816 
L 418.206355 328.636474 
" style="fill:none;stroke:#000000;stroke-dasharray:5.55,2.4;stroke-dashoffset:0;stroke-width:1.5;"/>
   </g>
   <g id="line2d_40">
    <path clip-path="url(#p9812efb3ce)" d="M 402.609246 328.636474 
L 402.288693 326.715505 
L 401.361771 325.002703 
L 399.928926 323.683676 
L 398.145429 322.901362 
L 396.20455 322.740536 
L 394.316613 323.218626 
L 392.686206 324.283825 
L 391.490008 325.8207 
L 390.857646 327.662708 
L 390.857646 329.610239 
L 391.490008 331.452247 
L 392.686206 332.989123 
L 394.316613 334.054321 
L 396.20455 334.532412 
L 398.145429 334.371586 
L 399.928926 333.589272 
L 401.361771 332.270245 
L 402.288693 330.557443 
L 402.609246 328.636474 
" style="fill:none;stroke:#ff0000;stroke-linecap:square;stroke-width:1.5;"/>
   </g>
   <g id="line2d_41">
    <path clip-path="url(#p9812efb3ce)" d="M 217.208997 202.208946 
L 216.04335 195.223604 
L 212.672723 188.995233 
L 207.462378 184.198772 
L 200.976935 181.353993 
L 193.919194 180.769172 
L 187.053969 182.507683 
L 181.125214 186.381131 
L 176.775403 191.969769 
L 174.475904 198.667981 
L 174.475904 205.749911 
L 176.775403 212.448123 
L 181.125214 218.036761 
L 187.053969 221.910209 
L 193.919194 223.64872 
L 200.976935 223.063899 
L 207.462378 220.21912 
L 212.672723 215.42266 
L 216.04335 209.194288 
L 217.208997 202.208946 
" style="fill:none;stroke:#000000;stroke-dasharray:5.55,2.4;stroke-dashoffset:0;stroke-width:1.5;"/>
   </g>
   <g id="line2d_42">
    <path clip-path="url(#p9812efb3ce)" d="M 201.611889 202.208946 
L 201.291335 200.287977 
L 200.364413 198.575175 
L 198.931568 197.256148 
L 197.148072 196.473834 
L 195.207193 196.313008 
L 193.319256 196.791099 
L 191.688848 197.856297 
L 190.49265 199.393172 
L 189.860288 201.235181 
L 189.860288 203.182711 
L 190.49265 205.02472 
L 191.688848 206.561595 
L 193.319256 207.626793 
L 195.207193 208.104884 
L 197.148072 207.944058 
L 198.931568 207.161744 
L 200.364413 205.842717 
L 201.291335 204.129915 
L 201.611889 202.208946 
" style="fill:none;stroke:#ff0000;stroke-linecap:square;stroke-width:1.5;"/>
   </g>
   <g id="line2d_43">
    <path clip-path="url(#p9812efb3ce)" d="M 431.555448 426.469755 
L 430.389801 419.484414 
L 427.019175 413.256042 
L 421.808829 408.459581 
L 415.323387 405.614802 
L 408.265645 405.029981 
L 401.40042 406.768492 
L 395.471665 410.641941 
L 391.121854 416.230579 
L 388.822355 422.92879 
L 388.822355 430.010721 
L 391.121854 436.708932 
L 395.471665 442.29757 
L 401.40042 446.171019 
L 408.265645 447.90953 
L 415.323387 447.324709 
L 421.808829 444.47993 
L 427.019175 439.683469 
L 430.389801 433.455097 
L 431.555448 426.469755 
" style="fill:none;stroke:#000000;stroke-dasharray:5.55,2.4;stroke-dashoffset:0;stroke-width:1.5;"/>
   </g>
   <g id="line2d_44">
    <path clip-path="url(#p9812efb3ce)" d="M 415.95834 426.469755 
L 415.637787 424.548786 
L 414.710865 422.835984 
L 413.27802 421.516958 
L 411.494523 420.734643 
L 409.553644 420.573818 
L 407.665707 421.051908 
L 406.0353 422.117106 
L 404.839101 423.653982 
L 404.206739 425.49599 
L 404.206739 427.443521 
L 404.839101 429.285529 
L 406.0353 430.822404 
L 407.665707 431.887603 
L 409.553644 432.365693 
L 411.494523 432.204868 
L 413.27802 431.422553 
L 414.710865 430.103527 
L 415.637787 428.390724 
L 415.95834 426.469755 
" style="fill:none;stroke:#ff0000;stroke-linecap:square;stroke-width:1.5;"/>
   </g>
   <g id="line2d_45">
    <path clip-path="url(#p9812efb3ce)" d="M 484.786089 353.823401 
L 483.620442 346.838059 
L 480.249816 340.609688 
L 475.03947 335.813227 
L 468.554028 332.968448 
L 461.496286 332.383627 
L 454.631061 334.122138 
L 448.702306 337.995587 
L 444.352495 343.584224 
L 442.052996 350.282436 
L 442.052996 357.364366 
L 444.352495 364.062578 
L 448.702306 369.651216 
L 454.631061 373.524664 
L 461.496286 375.263176 
L 468.554028 374.678354 
L 475.03947 371.833575 
L 480.249816 367.037115 
L 483.620442 360.808743 
L 484.786089 353.823401 
" style="fill:none;stroke:#000000;stroke-dasharray:5.55,2.4;stroke-dashoffset:0;stroke-width:1.5;"/>
   </g>
   <g id="line2d_46">
    <path clip-path="url(#p9812efb3ce)" d="M 469.188981 353.823401 
L 468.868428 351.902432 
L 467.941506 350.18963 
L 466.508661 348.870603 
L 464.725164 348.088289 
L 462.784285 347.927463 
L 460.896348 348.405554 
L 459.26594 349.470752 
L 458.069742 351.007628 
L 457.43738 352.849636 
L 457.43738 354.797167 
L 458.069742 356.639175 
L 459.26594 358.17605 
L 460.896348 359.241249 
L 462.784285 359.719339 
L 464.725164 359.558513 
L 466.508661 358.776199 
L 467.941506 357.457172 
L 468.868428 355.74437 
L 469.188981 353.823401 
" style="fill:none;stroke:#ff0000;stroke-linecap:square;stroke-width:1.5;"/>
   </g>
   <g id="line2d_47">
    <path clip-path="url(#p9812efb3ce)" d="M 225.271023 361.354069 
L 224.105376 354.368727 
L 220.73475 348.140355 
L 215.524405 343.343894 
L 209.038962 340.499115 
L 201.98122 339.914294 
L 195.115995 341.652805 
L 189.187241 345.526254 
L 184.837429 351.114892 
L 182.53793 357.813104 
L 182.53793 364.895034 
L 184.837429 371.593245 
L 189.187241 377.181883 
L 195.115995 381.055332 
L 201.98122 382.793843 
L 209.038962 382.209022 
L 215.524405 379.364243 
L 220.73475 374.567782 
L 224.105376 368.33941 
L 225.271023 361.354069 
" style="fill:none;stroke:#000000;stroke-dasharray:5.55,2.4;stroke-dashoffset:0;stroke-width:1.5;"/>
   </g>
   <g id="line2d_48">
    <path clip-path="url(#p9812efb3ce)" d="M 209.673915 361.354069 
L 209.353362 359.4331 
L 208.42644 357.720297 
L 206.993595 356.401271 
L 205.210098 355.618957 
L 203.269219 355.458131 
L 201.381282 355.936221 
L 199.750875 357.00142 
L 198.554677 358.538295 
L 197.922314 360.380303 
L 197.922314 362.327834 
L 198.554677 364.169842 
L 199.750875 365.706718 
L 201.381282 366.771916 
L 203.269219 367.250007 
L 205.210098 367.089181 
L 206.993595 366.306867 
L 208.42644 364.98784 
L 209.353362 363.275038 
L 209.673915 361.354069 
" style="fill:none;stroke:#ff0000;stroke-linecap:square;stroke-width:1.5;"/>
   </g>
   <g id="line2d_49">
    <path clip-path="url(#p9812efb3ce)" d="M 192.902237 346.846434 
L 191.73659 339.861093 
L 188.365964 333.632721 
L 183.155618 328.83626 
L 176.670175 325.991481 
L 169.612434 325.40666 
L 162.747209 327.145171 
L 156.818454 331.01862 
L 152.468643 336.607258 
L 150.169144 343.305469 
L 150.169144 350.3874 
L 152.468643 357.085611 
L 156.818454 362.674249 
L 162.747209 366.547698 
L 169.612434 368.286209 
L 176.670175 367.701388 
L 183.155618 364.856609 
L 188.365964 360.060148 
L 191.73659 353.831776 
L 192.902237 346.846434 
" style="fill:none;stroke:#000000;stroke-dasharray:5.55,2.4;stroke-dashoffset:0;stroke-width:1.5;"/>
   </g>
   <g id="line2d_50">
    <path clip-path="url(#p9812efb3ce)" d="M 177.305129 346.846434 
L 176.984576 344.925465 
L 176.057653 343.212663 
L 174.624808 341.893637 
L 172.841312 341.111322 
L 170.900433 340.950497 
L 169.012496 341.428587 
L 167.382088 342.493785 
L 166.18589 344.030661 
L 165.553528 345.872669 
L 165.553528 347.8202 
L 166.18589 349.662208 
L 167.382088 351.199083 
L 169.012496 352.264282 
L 170.900433 352.742372 
L 172.841312 352.581547 
L 174.624808 351.799232 
L 176.057653 350.480206 
L 176.984576 348.767403 
L 177.305129 346.846434 
" style="fill:none;stroke:#ff0000;stroke-linecap:square;stroke-width:1.5;"/>
   </g>
   <g id="line2d_51">
    <path clip-path="url(#p9812efb3ce)" d="M 421.74435 265.40296 
L 420.578702 258.417618 
L 417.208076 252.189247 
L 411.997731 247.392786 
L 405.512288 244.548007 
L 398.454546 243.963186 
L 391.589322 245.701697 
L 385.660567 249.575146 
L 381.310755 255.163784 
L 379.011257 261.861995 
L 379.011257 268.943925 
L 381.310755 275.642137 
L 385.660567 281.230775 
L 391.589322 285.104223 
L 398.454546 286.842735 
L 405.512288 286.257913 
L 411.997731 283.413134 
L 417.208076 278.616674 
L 420.578702 272.388302 
L 421.74435 265.40296 
" style="fill:none;stroke:#000000;stroke-dasharray:5.55,2.4;stroke-dashoffset:0;stroke-width:1.5;"/>
   </g>
   <g id="line2d_52">
    <path clip-path="url(#p9812efb3ce)" d="M 406.147241 265.40296 
L 405.826688 263.481991 
L 404.899766 261.769189 
L 403.466921 260.450162 
L 401.683424 259.667848 
L 399.742545 259.507022 
L 397.854609 259.985113 
L 396.224201 261.050311 
L 395.028003 262.587187 
L 394.395641 264.429195 
L 394.395641 266.376726 
L 395.028003 268.218734 
L 396.224201 269.755609 
L 397.854609 270.820808 
L 399.742545 271.298898 
L 401.683424 271.138072 
L 403.466921 270.355758 
L 404.899766 269.036731 
L 405.826688 267.323929 
L 406.147241 265.40296 
" style="fill:none;stroke:#ff0000;stroke-linecap:square;stroke-width:1.5;"/>
   </g>
   <g id="line2d_53">
    <path clip-path="url(#p9812efb3ce)" d="M 381.652322 359.263155 
L 380.486675 352.277814 
L 377.116049 346.049442 
L 371.905704 341.252981 
L 365.420261 338.408202 
L 358.362519 337.823381 
L 351.497294 339.561892 
L 345.56854 343.435341 
L 341.218728 349.023979 
L 338.919229 355.72219 
L 338.919229 362.804121 
L 341.218728 369.502332 
L 345.56854 375.09097 
L 351.497294 378.964419 
L 358.362519 380.70293 
L 365.420261 380.118109 
L 371.905704 377.27333 
L 377.116049 372.476869 
L 380.486675 366.248497 
L 381.652322 359.263155 
" style="fill:none;stroke:#000000;stroke-dasharray:5.55,2.4;stroke-dashoffset:0;stroke-width:1.5;"/>
   </g>
   <g id="line2d_54">
    <path clip-path="url(#p9812efb3ce)" d="M 366.055214 359.263155 
L 365.734661 357.342186 
L 364.807739 355.629384 
L 363.374894 354.310358 
L 361.591397 353.528043 
L 359.650518 353.367218 
L 357.762581 353.845308 
L 356.132174 354.910506 
L 354.935976 356.447382 
L 354.303613 358.28939 
L 354.303613 360.236921 
L 354.935976 362.078929 
L 356.132174 363.615805 
L 357.762581 364.681003 
L 359.650518 365.159093 
L 361.591397 364.998268 
L 363.374894 364.215953 
L 364.807739 362.896927 
L 365.734661 361.184125 
L 366.055214 359.263155 
" style="fill:none;stroke:#ff0000;stroke-linecap:square;stroke-width:1.5;"/>
   </g>
   <g id="line2d_55">
    <path clip-path="url(#p9812efb3ce)" d="M 152.754253 232.390268 
L 151.588606 225.404926 
L 148.21798 219.176554 
L 143.007634 214.380094 
L 136.522192 211.535315 
L 129.46445 210.950493 
L 122.599225 212.689004 
L 116.670471 216.562453 
L 112.320659 222.151091 
L 110.02116 228.849303 
L 110.02116 235.931233 
L 112.320659 242.629444 
L 116.670471 248.218082 
L 122.599225 252.091531 
L 129.46445 253.830042 
L 136.522192 253.245221 
L 143.007634 250.400442 
L 148.21798 245.603981 
L 151.588606 239.37561 
L 152.754253 232.390268 
" style="fill:none;stroke:#000000;stroke-dasharray:5.55,2.4;stroke-dashoffset:0;stroke-width:1.5;"/>
   </g>
   <g id="line2d_56">
    <path clip-path="url(#p9812efb3ce)" d="M 137.157145 232.390268 
L 136.836592 230.469299 
L 135.90967 228.756497 
L 134.476825 227.43747 
L 132.693328 226.655156 
L 130.752449 226.49433 
L 128.864512 226.97242 
L 127.234105 228.037619 
L 126.037906 229.574494 
L 125.405544 231.416502 
L 125.405544 233.364033 
L 126.037906 235.206041 
L 127.234105 236.742917 
L 128.864512 237.808115 
L 130.752449 238.286206 
L 132.693328 238.12538 
L 134.476825 237.343066 
L 135.90967 236.024039 
L 136.836592 234.311237 
L 137.157145 232.390268 
" style="fill:none;stroke:#ff0000;stroke-linecap:square;stroke-width:1.5;"/>
   </g>
   <g id="line2d_57">
    <path clip-path="url(#p9812efb3ce)" d="M 340.835367 348.390617 
L 339.66972 341.405275 
L 336.299094 335.176903 
L 331.088748 330.380443 
L 324.603306 327.535664 
L 317.545564 326.950842 
L 310.680339 328.689354 
L 304.751584 332.562802 
L 300.401773 338.15144 
L 298.102274 344.849652 
L 298.102274 351.931582 
L 300.401773 358.629793 
L 304.751584 364.218431 
L 310.680339 368.09188 
L 317.545564 369.830391 
L 324.603306 369.24557 
L 331.088748 366.400791 
L 336.299094 361.60433 
L 339.66972 355.375959 
L 340.835367 348.390617 
" style="fill:none;stroke:#000000;stroke-dasharray:5.55,2.4;stroke-dashoffset:0;stroke-width:1.5;"/>
   </g>
   <g id="line2d_58">
    <path clip-path="url(#p9812efb3ce)" d="M 325.238259 348.390617 
L 324.917706 346.469648 
L 323.990784 344.756846 
L 322.557939 343.437819 
L 320.774442 342.655505 
L 318.833563 342.494679 
L 316.945626 342.972769 
L 315.315219 344.037968 
L 314.11902 345.574843 
L 313.486658 347.416851 
L 313.486658 349.364382 
L 314.11902 351.20639 
L 315.315219 352.743266 
L 316.945626 353.808464 
L 318.833563 354.286555 
L 320.774442 354.125729 
L 322.557939 353.343415 
L 323.990784 352.024388 
L 324.917706 350.311586 
L 325.238259 348.390617 
" style="fill:none;stroke:#ff0000;stroke-linecap:square;stroke-width:1.5;"/>
   </g>
   <g id="line2d_59">
    <path clip-path="url(#p9812efb3ce)" d="M 270.480992 310.72585 
L 269.315345 303.740508 
L 265.944718 297.512137 
L 260.734373 292.715676 
L 254.24893 289.870897 
L 247.191189 289.286076 
L 240.325964 291.024587 
L 234.397209 294.898035 
L 230.047398 300.486673 
L 227.747899 307.184885 
L 227.747899 314.266815 
L 230.047398 320.965027 
L 234.397209 326.553665 
L 240.325964 330.427113 
L 247.191189 332.165624 
L 254.24893 331.580803 
L 260.734373 328.736024 
L 265.944718 323.939564 
L 269.315345 317.711192 
L 270.480992 310.72585 
" style="fill:none;stroke:#000000;stroke-dasharray:5.55,2.4;stroke-dashoffset:0;stroke-width:1.5;"/>
   </g>
   <g id="line2d_60">
    <path clip-path="url(#p9812efb3ce)" d="M 254.883884 310.72585 
L 254.56333 308.804881 
L 253.636408 307.092079 
L 252.203563 305.773052 
L 250.420067 304.990738 
L 248.479188 304.829912 
L 246.591251 305.308003 
L 244.960843 306.373201 
L 243.764645 307.910076 
L 243.132283 309.752085 
L 243.132283 311.699615 
L 243.764645 313.541624 
L 244.960843 315.078499 
L 246.591251 316.143697 
L 248.479188 316.621788 
L 250.420067 316.460962 
L 252.203563 315.678648 
L 253.636408 314.359621 
L 254.56333 312.646819 
L 254.883884 310.72585 
" style="fill:none;stroke:#ff0000;stroke-linecap:square;stroke-width:1.5;"/>
   </g>
   <g id="line2d_61">
    <path clip-path="url(#p9812efb3ce)" d="M 348.800143 158.319279 
L 347.634495 151.333937 
L 344.263869 145.105566 
L 339.053524 140.309105 
L 332.568081 137.464326 
L 325.510339 136.879505 
L 318.645114 138.618016 
L 312.71636 142.491465 
L 308.366548 148.080103 
L 306.067049 154.778314 
L 306.067049 161.860244 
L 308.366548 168.558456 
L 312.71636 174.147094 
L 318.645114 178.020543 
L 325.510339 179.759054 
L 332.568081 179.174232 
L 339.053524 176.329454 
L 344.263869 171.532993 
L 347.634495 165.304621 
L 348.800143 158.319279 
" style="fill:none;stroke:#000000;stroke-dasharray:5.55,2.4;stroke-dashoffset:0;stroke-width:1.5;"/>
   </g>
   <g id="line2d_62">
    <path clip-path="url(#p9812efb3ce)" d="M 333.203034 158.319279 
L 332.882481 156.39831 
L 331.955559 154.685508 
L 330.522714 153.366481 
L 328.739217 152.584167 
L 326.798338 152.423341 
L 324.910402 152.901432 
L 323.279994 153.96663 
L 322.083796 155.503506 
L 321.451434 157.345514 
L 321.451434 159.293045 
L 322.083796 161.135053 
L 323.279994 162.671928 
L 324.910402 163.737127 
L 326.798338 164.215217 
L 328.739217 164.054391 
L 330.522714 163.272077 
L 331.955559 161.95305 
L 332.882481 160.240248 
L 333.203034 158.319279 
" style="fill:none;stroke:#ff0000;stroke-linecap:square;stroke-width:1.5;"/>
   </g>
   <g id="line2d_63">
    <path clip-path="url(#p9812efb3ce)" d="M 158.141088 258.077212 
L 156.975441 251.09187 
L 153.604815 244.863499 
L 148.394469 240.067038 
L 141.909027 237.222259 
L 134.851285 236.637438 
L 127.98606 238.375949 
L 122.057305 242.249397 
L 117.707494 247.838035 
L 115.407995 254.536247 
L 115.407995 261.618177 
L 117.707494 268.316389 
L 122.057305 273.905027 
L 127.98606 277.778475 
L 134.851285 279.516986 
L 141.909027 278.932165 
L 148.394469 276.087386 
L 153.604815 271.290925 
L 156.975441 265.062554 
L 158.141088 258.077212 
" style="fill:none;stroke:#000000;stroke-dasharray:5.55,2.4;stroke-dashoffset:0;stroke-width:1.5;"/>
   </g>
   <g id="line2d_64">
    <path clip-path="url(#p9812efb3ce)" d="M 142.54398 258.077212 
L 142.223427 256.156243 
L 141.296505 254.443441 
L 139.86366 253.124414 
L 138.080163 252.3421 
L 136.139284 252.181274 
L 134.251347 252.659365 
L 132.62094 253.724563 
L 131.424741 255.261438 
L 130.792379 257.103447 
L 130.792379 259.050977 
L 131.424741 260.892986 
L 132.62094 262.429861 
L 134.251347 263.495059 
L 136.139284 263.97315 
L 138.080163 263.812324 
L 139.86366 263.03001 
L 141.296505 261.710983 
L 142.223427 259.998181 
L 142.54398 258.077212 
" style="fill:none;stroke:#ff0000;stroke-linecap:square;stroke-width:1.5;"/>
   </g>
   <g id="line2d_65">
    <path clip-path="url(#p9812efb3ce)" d="M 393.685873 315.221373 
L 392.520226 308.236031 
L 389.1496 302.00766 
L 383.939254 297.211199 
L 377.453812 294.36642 
L 370.39607 293.781599 
L 363.530845 295.52011 
L 357.60209 299.393559 
L 353.252279 304.982197 
L 350.95278 311.680408 
L 350.95278 318.762338 
L 353.252279 325.46055 
L 357.60209 331.049188 
L 363.530845 334.922637 
L 370.39607 336.661148 
L 377.453812 336.076326 
L 383.939254 333.231547 
L 389.1496 328.435087 
L 392.520226 322.206715 
L 393.685873 315.221373 
" style="fill:none;stroke:#000000;stroke-dasharray:5.55,2.4;stroke-dashoffset:0;stroke-width:1.5;"/>
   </g>
   <g id="line2d_66">
    <path clip-path="url(#p9812efb3ce)" d="M 378.088765 315.221373 
L 377.768212 313.300404 
L 376.84129 311.587602 
L 375.408445 310.268575 
L 373.624948 309.486261 
L 371.684069 309.325435 
L 369.796132 309.803526 
L 368.165725 310.868724 
L 366.969526 312.4056 
L 366.337164 314.247608 
L 366.337164 316.195139 
L 366.969526 318.037147 
L 368.165725 319.574022 
L 369.796132 320.639221 
L 371.684069 321.117311 
L 373.624948 320.956485 
L 375.408445 320.174171 
L 376.84129 318.855144 
L 377.768212 317.142342 
L 378.088765 315.221373 
" style="fill:none;stroke:#ff0000;stroke-linecap:square;stroke-width:1.5;"/>
   </g>
   <g id="line2d_67">
    <path clip-path="url(#p9812efb3ce)" d="M 366.498739 341.71397 
L 365.333092 334.728629 
L 361.962466 328.500257 
L 356.75212 323.703796 
L 350.266678 320.859017 
L 343.208936 320.274196 
L 336.343711 322.012707 
L 330.414957 325.886156 
L 326.065145 331.474794 
L 323.765646 338.173005 
L 323.765646 345.254935 
L 326.065145 351.953147 
L 330.414957 357.541785 
L 336.343711 361.415234 
L 343.208936 363.153745 
L 350.266678 362.568924 
L 356.75212 359.724145 
L 361.962466 354.927684 
L 365.333092 348.699312 
L 366.498739 341.71397 
" style="fill:none;stroke:#000000;stroke-dasharray:5.55,2.4;stroke-dashoffset:0;stroke-width:1.5;"/>
   </g>
   <g id="line2d_68">
    <path clip-path="url(#p9812efb3ce)" d="M 350.901631 341.71397 
L 350.581078 339.793001 
L 349.654156 338.080199 
L 348.221311 336.761172 
L 346.437814 335.978858 
L 344.496935 335.818032 
L 342.608998 336.296123 
L 340.978591 337.361321 
L 339.782392 338.898197 
L 339.15003 340.740205 
L 339.15003 342.687736 
L 339.782392 344.529744 
L 340.978591 346.066619 
L 342.608998 347.131818 
L 344.496935 347.609908 
L 346.437814 347.449083 
L 348.221311 346.666768 
L 349.654156 345.347742 
L 350.581078 343.634939 
L 350.901631 341.71397 
" style="fill:none;stroke:#ff0000;stroke-linecap:square;stroke-width:1.5;"/>
   </g>
   <g id="line2d_69">
    <path clip-path="url(#p9812efb3ce)" d="M 227.390129 327.486842 
L 226.224482 320.5015 
L 222.853855 314.273128 
L 217.64351 309.476668 
L 211.158067 306.631889 
L 204.100326 306.047067 
L 197.235101 307.785579 
L 191.306346 311.659027 
L 186.956535 317.247665 
L 184.657036 323.945877 
L 184.657036 331.027807 
L 186.956535 337.726019 
L 191.306346 343.314656 
L 197.235101 347.188105 
L 204.100326 348.926616 
L 211.158067 348.341795 
L 217.64351 345.497016 
L 222.853855 340.700555 
L 226.224482 334.472184 
L 227.390129 327.486842 
" style="fill:none;stroke:#000000;stroke-dasharray:5.55,2.4;stroke-dashoffset:0;stroke-width:1.5;"/>
   </g>
   <g id="line2d_70">
    <path clip-path="url(#p9812efb3ce)" d="M 211.793021 327.486842 
L 211.472468 325.565873 
L 210.545545 323.853071 
L 209.1127 322.534044 
L 207.329204 321.75173 
L 205.388325 321.590904 
L 203.500388 322.068994 
L 201.86998 323.134193 
L 200.673782 324.671068 
L 200.04142 326.513076 
L 200.04142 328.460607 
L 200.673782 330.302615 
L 201.86998 331.839491 
L 203.500388 332.904689 
L 205.388325 333.38278 
L 207.329204 333.221954 
L 209.1127 332.43964 
L 210.545545 331.120613 
L 211.472468 329.407811 
L 211.793021 327.486842 
" style="fill:none;stroke:#ff0000;stroke-linecap:square;stroke-width:1.5;"/>
   </g>
   <g id="line2d_71">
    <path clip-path="url(#p9812efb3ce)" d="M 420.677542 380.08143 
L 419.511894 373.096088 
L 416.141268 366.867716 
L 410.930923 362.071255 
L 404.44548 359.226476 
L 397.387738 358.641655 
L 390.522513 360.380166 
L 384.593759 364.253615 
L 380.243947 369.842253 
L 377.944448 376.540465 
L 377.944448 383.622395 
L 380.243947 390.320606 
L 384.593759 395.909244 
L 390.522513 399.782693 
L 397.387738 401.521204 
L 404.44548 400.936383 
L 410.930923 398.091604 
L 416.141268 393.295143 
L 419.511894 387.066771 
L 420.677542 380.08143 
" style="fill:none;stroke:#000000;stroke-dasharray:5.55,2.4;stroke-dashoffset:0;stroke-width:1.5;"/>
   </g>
   <g id="line2d_72">
    <path clip-path="url(#p9812efb3ce)" d="M 405.080433 380.08143 
L 404.75988 378.160461 
L 403.832958 376.447658 
L 402.400113 375.128632 
L 400.616616 374.346317 
L 398.675737 374.185492 
L 396.787801 374.663582 
L 395.157393 375.728781 
L 393.961195 377.265656 
L 393.328833 379.107664 
L 393.328833 381.055195 
L 393.961195 382.897203 
L 395.157393 384.434079 
L 396.787801 385.499277 
L 398.675737 385.977368 
L 400.616616 385.816542 
L 402.400113 385.034227 
L 403.832958 383.715201 
L 404.75988 382.002399 
L 405.080433 380.08143 
" style="fill:none;stroke:#ff0000;stroke-linecap:square;stroke-width:1.5;"/>
   </g>
   <g id="line2d_73">
    <path clip-path="url(#p9812efb3ce)" d="M 332.422325 146.584657 
L 331.256678 139.599315 
L 327.886052 133.370944 
L 322.675706 128.574483 
L 316.190264 125.729704 
L 309.132522 125.144883 
L 302.267297 126.883394 
L 296.338542 130.756842 
L 291.988731 136.34548 
L 289.689232 143.043692 
L 289.689232 150.125622 
L 291.988731 156.823834 
L 296.338542 162.412472 
L 302.267297 166.28592 
L 309.132522 168.024431 
L 316.190264 167.43961 
L 322.675706 164.594831 
L 327.886052 159.798371 
L 331.256678 153.569999 
L 332.422325 146.584657 
" style="fill:none;stroke:#000000;stroke-dasharray:5.55,2.4;stroke-dashoffset:0;stroke-width:1.5;"/>
   </g>
   <g id="line2d_74">
    <path clip-path="url(#p9812efb3ce)" d="M 316.825217 146.584657 
L 316.504664 144.663688 
L 315.577742 142.950886 
L 314.144897 141.631859 
L 312.3614 140.849545 
L 310.420521 140.688719 
L 308.532584 141.16681 
L 306.902176 142.232008 
L 305.705978 143.768883 
L 305.073616 145.610892 
L 305.073616 147.558422 
L 305.705978 149.400431 
L 306.902176 150.937306 
L 308.532584 152.002504 
L 310.420521 152.480595 
L 312.3614 152.319769 
L 314.144897 151.537455 
L 315.577742 150.218428 
L 316.504664 148.505626 
L 316.825217 146.584657 
" style="fill:none;stroke:#ff0000;stroke-linecap:square;stroke-width:1.5;"/>
   </g>
   <g id="line2d_75">
    <path clip-path="url(#p9812efb3ce)" d="M 273.17644 442.414169 
L 272.010793 435.428827 
L 268.640167 429.200456 
L 263.429821 424.403995 
L 256.944379 421.559216 
L 249.886637 420.974395 
L 243.021412 422.712906 
L 237.092658 426.586355 
L 232.742846 432.174993 
L 230.443347 438.873204 
L 230.443347 445.955134 
L 232.742846 452.653346 
L 237.092658 458.241984 
L 243.021412 462.115433 
L 249.886637 463.853944 
L 256.944379 463.269122 
L 263.429821 460.424344 
L 268.640167 455.627883 
L 272.010793 449.399511 
L 273.17644 442.414169 
" style="fill:none;stroke:#000000;stroke-dasharray:5.55,2.4;stroke-dashoffset:0;stroke-width:1.5;"/>
   </g>
   <g id="line2d_76">
    <path clip-path="url(#p9812efb3ce)" d="M 257.579332 442.414169 
L 257.258779 440.4932 
L 256.331857 438.780398 
L 254.899012 437.461371 
L 253.115515 436.679057 
L 251.174636 436.518231 
L 249.286699 436.996322 
L 247.656292 438.06152 
L 246.460093 439.598396 
L 245.827731 441.440404 
L 245.827731 443.387935 
L 246.460093 445.229943 
L 247.656292 446.766818 
L 249.286699 447.832017 
L 251.174636 448.310107 
L 253.115515 448.149281 
L 254.899012 447.366967 
L 256.331857 446.04794 
L 257.258779 444.335138 
L 257.579332 442.414169 
" style="fill:none;stroke:#ff0000;stroke-linecap:square;stroke-width:1.5;"/>
   </g>
   <g id="line2d_77">
    <path clip-path="url(#p9812efb3ce)" d="M 152.874529 329.113546 
L 151.708881 322.128204 
L 148.338255 315.899832 
L 143.12791 311.103371 
L 136.642467 308.258592 
L 129.584725 307.673771 
L 122.7195 309.412282 
L 116.790746 313.285731 
L 112.440934 318.874369 
L 110.141435 325.57258 
L 110.141435 332.654511 
L 112.440934 339.352722 
L 116.790746 344.94136 
L 122.7195 348.814809 
L 129.584725 350.55332 
L 136.642467 349.968499 
L 143.12791 347.12372 
L 148.338255 342.327259 
L 151.708881 336.098887 
L 152.874529 329.113546 
" style="fill:none;stroke:#000000;stroke-dasharray:5.55,2.4;stroke-dashoffset:0;stroke-width:1.5;"/>
   </g>
   <g id="line2d_78">
    <path clip-path="url(#p9812efb3ce)" d="M 137.27742 329.113546 
L 136.956867 327.192577 
L 136.029945 325.479774 
L 134.5971 324.160748 
L 132.813603 323.378433 
L 130.872724 323.217608 
L 128.984787 323.695698 
L 127.35438 324.760897 
L 126.158182 326.297772 
L 125.525819 328.13978 
L 125.525819 330.087311 
L 126.158182 331.929319 
L 127.35438 333.466195 
L 128.984787 334.531393 
L 130.872724 335.009483 
L 132.813603 334.848658 
L 134.5971 334.066343 
L 136.029945 332.747317 
L 136.956867 331.034515 
L 137.27742 329.113546 
" style="fill:none;stroke:#ff0000;stroke-linecap:square;stroke-width:1.5;"/>
   </g>
   <g id="line2d_79">
    <path clip-path="url(#p9812efb3ce)" d="M 420.123698 248.707547 
L 418.95805 241.722206 
L 415.587424 235.493834 
L 410.377079 230.697373 
L 403.891636 227.852594 
L 396.833894 227.267773 
L 389.968669 229.006284 
L 384.039915 232.879733 
L 379.690103 238.468371 
L 377.390604 245.166582 
L 377.390604 252.248512 
L 379.690103 258.946724 
L 384.039915 264.535362 
L 389.968669 268.408811 
L 396.833894 270.147322 
L 403.891636 269.562501 
L 410.377079 266.717722 
L 415.587424 261.921261 
L 418.95805 255.692889 
L 420.123698 248.707547 
" style="fill:none;stroke:#000000;stroke-dasharray:5.55,2.4;stroke-dashoffset:0;stroke-width:1.5;"/>
   </g>
   <g id="line2d_80">
    <path clip-path="url(#p9812efb3ce)" d="M 404.526589 248.707547 
L 404.206036 246.786578 
L 403.279114 245.073776 
L 401.846269 243.754749 
L 400.062772 242.972435 
L 398.121893 242.811609 
L 396.233956 243.2897 
L 394.603549 244.354898 
L 393.407351 245.891774 
L 392.774989 247.733782 
L 392.774989 249.681313 
L 393.407351 251.523321 
L 394.603549 253.060196 
L 396.233956 254.125395 
L 398.121893 254.603485 
L 400.062772 254.442659 
L 401.846269 253.660345 
L 403.279114 252.341319 
L 404.206036 250.628516 
L 404.526589 248.707547 
" style="fill:none;stroke:#ff0000;stroke-linecap:square;stroke-width:1.5;"/>
   </g>
   <g id="line2d_81">
    <path clip-path="url(#p9812efb3ce)" d="M 405.946114 321.928924 
L 404.780467 314.943582 
L 401.40984 308.71521 
L 396.199495 303.918749 
L 389.714052 301.07397 
L 382.656311 300.489149 
L 375.791086 302.22766 
L 369.862331 306.101109 
L 365.51252 311.689747 
L 363.213021 318.387958 
L 363.213021 325.469889 
L 365.51252 332.1681 
L 369.862331 337.756738 
L 375.791086 341.630187 
L 382.656311 343.368698 
L 389.714052 342.783877 
L 396.199495 339.939098 
L 401.40984 335.142637 
L 404.780467 328.914265 
L 405.946114 321.928924 
" style="fill:none;stroke:#000000;stroke-dasharray:5.55,2.4;stroke-dashoffset:0;stroke-width:1.5;"/>
   </g>
   <g id="line2d_82">
    <path clip-path="url(#p9812efb3ce)" d="M 390.349006 321.928924 
L 390.028453 320.007955 
L 389.10153 318.295152 
L 387.668685 316.976126 
L 385.885189 316.193811 
L 383.94431 316.032986 
L 382.056373 316.511076 
L 380.425965 317.576274 
L 379.229767 319.11315 
L 378.597405 320.955158 
L 378.597405 322.902689 
L 379.229767 324.744697 
L 380.425965 326.281573 
L 382.056373 327.346771 
L 383.94431 327.824861 
L 385.885189 327.664036 
L 387.668685 326.881721 
L 389.10153 325.562695 
L 390.028453 323.849893 
L 390.349006 321.928924 
" style="fill:none;stroke:#ff0000;stroke-linecap:square;stroke-width:1.5;"/>
   </g>
   <g id="line2d_83">
    <path clip-path="url(#p9812efb3ce)" d="M 209.08663 354.100252 
L 207.920983 347.11491 
L 204.550357 340.886538 
L 199.340011 336.090077 
L 192.854569 333.245298 
L 185.796827 332.660477 
L 178.931602 334.398988 
L 173.002847 338.272437 
L 168.653036 343.861075 
L 166.353537 350.559286 
L 166.353537 357.641217 
L 168.653036 364.339428 
L 173.002847 369.928066 
L 178.931602 373.801515 
L 185.796827 375.540026 
L 192.854569 374.955205 
L 199.340011 372.110426 
L 204.550357 367.313965 
L 207.920983 361.085593 
L 209.08663 354.100252 
" style="fill:none;stroke:#000000;stroke-dasharray:5.55,2.4;stroke-dashoffset:0;stroke-width:1.5;"/>
   </g>
   <g id="line2d_84">
    <path clip-path="url(#p9812efb3ce)" d="M 193.489522 354.100252 
L 193.168969 352.179283 
L 192.242047 350.46648 
L 190.809202 349.147454 
L 189.025705 348.365139 
L 187.084826 348.204314 
L 185.196889 348.682404 
L 183.566482 349.747603 
L 182.370283 351.284478 
L 181.737921 353.126486 
L 181.737921 355.074017 
L 182.370283 356.916025 
L 183.566482 358.452901 
L 185.196889 359.518099 
L 187.084826 359.99619 
L 189.025705 359.835364 
L 190.809202 359.053049 
L 192.242047 357.734023 
L 193.168969 356.021221 
L 193.489522 354.100252 
" style="fill:none;stroke:#ff0000;stroke-linecap:square;stroke-width:1.5;"/>
   </g>
   <g id="line2d_85">
    <path clip-path="url(#p9812efb3ce)" d="M 226.330576 344.420455 
L 225.164929 337.435113 
L 221.794303 331.206742 
L 216.583957 326.410281 
L 210.098515 323.565502 
L 203.040773 322.980681 
L 196.175548 324.719192 
L 190.246793 328.592641 
L 185.896982 334.181279 
L 183.597483 340.87949 
L 183.597483 347.96142 
L 185.896982 354.659632 
L 190.246793 360.24827 
L 196.175548 364.121719 
L 203.040773 365.86023 
L 210.098515 365.275408 
L 216.583957 362.43063 
L 221.794303 357.634169 
L 225.164929 351.405797 
L 226.330576 344.420455 
" style="fill:none;stroke:#000000;stroke-dasharray:5.55,2.4;stroke-dashoffset:0;stroke-width:1.5;"/>
   </g>
   <g id="line2d_86">
    <path clip-path="url(#p9812efb3ce)" d="M 210.733468 344.420455 
L 210.412915 342.499486 
L 209.485993 340.786684 
L 208.053148 339.467657 
L 206.269651 338.685343 
L 204.328772 338.524517 
L 202.440835 339.002608 
L 200.810428 340.067806 
L 199.614229 341.604682 
L 198.981867 343.44669 
L 198.981867 345.394221 
L 199.614229 347.236229 
L 200.810428 348.773104 
L 202.440835 349.838303 
L 204.328772 350.316393 
L 206.269651 350.155567 
L 208.053148 349.373253 
L 209.485993 348.054226 
L 210.412915 346.341424 
L 210.733468 344.420455 
" style="fill:none;stroke:#ff0000;stroke-linecap:square;stroke-width:1.5;"/>
   </g>
   <g id="line2d_87">
    <path clip-path="url(#p9812efb3ce)" d="M 210.146183 337.166638 
L 208.980536 330.181296 
L 205.609909 323.952925 
L 200.399564 319.156464 
L 193.914121 316.311685 
L 186.85638 315.726864 
L 179.991155 317.465375 
L 174.0624 321.338824 
L 169.712589 326.927461 
L 167.41309 333.625673 
L 167.41309 340.707603 
L 169.712589 347.405815 
L 174.0624 352.994453 
L 179.991155 356.867901 
L 186.85638 358.606412 
L 193.914121 358.021591 
L 200.399564 355.176812 
L 205.609909 350.380352 
L 208.980536 344.15198 
L 210.146183 337.166638 
" style="fill:none;stroke:#000000;stroke-dasharray:5.55,2.4;stroke-dashoffset:0;stroke-width:1.5;"/>
   </g>
   <g id="line2d_88">
    <path clip-path="url(#p9812efb3ce)" d="M 194.549075 337.166638 
L 194.228522 335.245669 
L 193.301599 333.532867 
L 191.868754 332.21384 
L 190.085258 331.431526 
L 188.144379 331.2707 
L 186.256442 331.748791 
L 184.626034 332.813989 
L 183.429836 334.350865 
L 182.797474 336.192873 
L 182.797474 338.140404 
L 183.429836 339.982412 
L 184.626034 341.519287 
L 186.256442 342.584486 
L 188.144379 343.062576 
L 190.085258 342.90175 
L 191.868754 342.119436 
L 193.301599 340.800409 
L 194.228522 339.087607 
L 194.549075 337.166638 
" style="fill:none;stroke:#ff0000;stroke-linecap:square;stroke-width:1.5;"/>
   </g>
   <g id="line2d_89">
    <path clip-path="url(#p9812efb3ce)" d="M 361.243845 353.826886 
L 360.078198 346.841544 
L 356.707571 340.613173 
L 351.497226 335.816712 
L 345.011783 332.971933 
L 337.954042 332.387112 
L 331.088817 334.125623 
L 325.160062 337.999072 
L 320.810251 343.587709 
L 318.510752 350.285921 
L 318.510752 357.367851 
L 320.810251 364.066063 
L 325.160062 369.654701 
L 331.088817 373.528149 
L 337.954042 375.26666 
L 345.011783 374.681839 
L 351.497226 371.83706 
L 356.707571 367.0406 
L 360.078198 360.812228 
L 361.243845 353.826886 
" style="fill:none;stroke:#000000;stroke-dasharray:5.55,2.4;stroke-dashoffset:0;stroke-width:1.5;"/>
   </g>
   <g id="line2d_90">
    <path clip-path="url(#p9812efb3ce)" d="M 345.646736 353.826886 
L 345.326183 351.905917 
L 344.399261 350.193115 
L 342.966416 348.874088 
L 341.18292 348.091774 
L 339.242041 347.930948 
L 337.354104 348.409039 
L 335.723696 349.474237 
L 334.527498 351.011113 
L 333.895136 352.853121 
L 333.895136 354.800652 
L 334.527498 356.64266 
L 335.723696 358.179535 
L 337.354104 359.244734 
L 339.242041 359.722824 
L 341.18292 359.561998 
L 342.966416 358.779684 
L 344.399261 357.460657 
L 345.326183 355.747855 
L 345.646736 353.826886 
" style="fill:none;stroke:#ff0000;stroke-linecap:square;stroke-width:1.5;"/>
   </g>
   <g id="line2d_91">
    <path clip-path="url(#p9812efb3ce)" d="M 374.075531 350.488563 
L 372.909884 343.503221 
L 369.539257 337.274849 
L 364.328912 332.478389 
L 357.843469 329.63361 
L 350.785728 329.048789 
L 343.920503 330.7873 
L 337.991748 334.660748 
L 333.641937 340.249386 
L 331.342438 346.947598 
L 331.342438 354.029528 
L 333.641937 360.72774 
L 337.991748 366.316378 
L 343.920503 370.189826 
L 350.785728 371.928337 
L 357.843469 371.343516 
L 364.328912 368.498737 
L 369.539257 363.702276 
L 372.909884 357.473905 
L 374.075531 350.488563 
" style="fill:none;stroke:#000000;stroke-dasharray:5.55,2.4;stroke-dashoffset:0;stroke-width:1.5;"/>
   </g>
   <g id="line2d_92">
    <path clip-path="url(#p9812efb3ce)" d="M 358.478422 350.488563 
L 358.157869 348.567594 
L 357.230947 346.854792 
L 355.798102 345.535765 
L 354.014606 344.753451 
L 352.073727 344.592625 
L 350.18579 345.070716 
L 348.555382 346.135914 
L 347.359184 347.672789 
L 346.726822 349.514798 
L 346.726822 351.462328 
L 347.359184 353.304337 
L 348.555382 354.841212 
L 350.18579 355.90641 
L 352.073727 356.384501 
L 354.014606 356.223675 
L 355.798102 355.441361 
L 357.230947 354.122334 
L 358.157869 352.409532 
L 358.478422 350.488563 
" style="fill:none;stroke:#ff0000;stroke-linecap:square;stroke-width:1.5;"/>
   </g>
   <g id="line2d_93">
    <path clip-path="url(#p9812efb3ce)" d="M 155.447671 245.23374 
L 154.282023 238.248398 
L 150.911397 232.020026 
L 145.701052 227.223566 
L 139.215609 224.378787 
L 132.157867 223.793966 
L 125.292642 225.532477 
L 119.363888 229.405925 
L 115.014076 234.994563 
L 112.714578 241.692775 
L 112.714578 248.774705 
L 115.014076 255.472917 
L 119.363888 261.061555 
L 125.292642 264.935003 
L 132.157867 266.673514 
L 139.215609 266.088693 
L 145.701052 263.243914 
L 150.911397 258.447453 
L 154.282023 252.219082 
L 155.447671 245.23374 
" style="fill:none;stroke:#000000;stroke-dasharray:5.55,2.4;stroke-dashoffset:0;stroke-width:1.5;"/>
   </g>
   <g id="line2d_94">
    <path clip-path="url(#p9812efb3ce)" d="M 139.850562 245.23374 
L 139.530009 243.312771 
L 138.603087 241.599969 
L 137.170242 240.280942 
L 135.386745 239.498628 
L 133.445866 239.337802 
L 131.55793 239.815892 
L 129.927522 240.881091 
L 128.731324 242.417966 
L 128.098962 244.259974 
L 128.098962 246.207505 
L 128.731324 248.049513 
L 129.927522 249.586389 
L 131.55793 250.651587 
L 133.445866 251.129678 
L 135.386745 250.968852 
L 137.170242 250.186538 
L 138.603087 248.867511 
L 139.530009 247.154709 
L 139.850562 245.23374 
" style="fill:none;stroke:#ff0000;stroke-linecap:square;stroke-width:1.5;"/>
   </g>
   <g id="line2d_95">
    <path clip-path="url(#p9812efb3ce)" d="M 353.667053 345.052294 
L 352.501406 338.066952 
L 349.13078 331.83858 
L 343.920434 327.042119 
L 337.434992 324.19734 
L 330.37725 323.612519 
L 323.512025 325.35103 
L 317.583271 329.224479 
L 313.233459 334.813117 
L 310.93396 341.511329 
L 310.93396 348.593259 
L 313.233459 355.29147 
L 317.583271 360.880108 
L 323.512025 364.753557 
L 330.37725 366.492068 
L 337.434992 365.907247 
L 343.920434 363.062468 
L 349.13078 358.266007 
L 352.501406 352.037635 
L 353.667053 345.052294 
" style="fill:none;stroke:#000000;stroke-dasharray:5.55,2.4;stroke-dashoffset:0;stroke-width:1.5;"/>
   </g>
   <g id="line2d_96">
    <path clip-path="url(#p9812efb3ce)" d="M 338.069945 345.052294 
L 337.749392 343.131325 
L 336.82247 341.418522 
L 335.389625 340.099496 
L 333.606128 339.317181 
L 331.665249 339.156356 
L 329.777312 339.634446 
L 328.146905 340.699645 
L 326.950706 342.23652 
L 326.318344 344.078528 
L 326.318344 346.026059 
L 326.950706 347.868067 
L 328.146905 349.404943 
L 329.777312 350.470141 
L 331.665249 350.948232 
L 333.606128 350.787406 
L 335.389625 350.005092 
L 336.82247 348.686065 
L 337.749392 346.973263 
L 338.069945 345.052294 
" style="fill:none;stroke:#ff0000;stroke-linecap:square;stroke-width:1.5;"/>
   </g>
   <g id="line2d_97">
    <path clip-path="url(#p9812efb3ce)" d="M 380.092306 328.467672 
L 378.926659 321.48233 
L 375.556033 315.253958 
L 370.345687 310.457498 
L 363.860245 307.612719 
L 356.802503 307.027897 
L 349.937278 308.766409 
L 344.008524 312.639857 
L 339.658712 318.228495 
L 337.359213 324.926707 
L 337.359213 332.008637 
L 339.658712 338.706848 
L 344.008524 344.295486 
L 349.937278 348.168935 
L 356.802503 349.907446 
L 363.860245 349.322625 
L 370.345687 346.477846 
L 375.556033 341.681385 
L 378.926659 335.453014 
L 380.092306 328.467672 
" style="fill:none;stroke:#000000;stroke-dasharray:5.55,2.4;stroke-dashoffset:0;stroke-width:1.5;"/>
   </g>
   <g id="line2d_98">
    <path clip-path="url(#p9812efb3ce)" d="M 364.495198 328.467672 
L 364.174645 326.546703 
L 363.247723 324.833901 
L 361.814878 323.514874 
L 360.031381 322.73256 
L 358.090502 322.571734 
L 356.202565 323.049824 
L 354.572158 324.115023 
L 353.375959 325.651898 
L 352.743597 327.493906 
L 352.743597 329.441437 
L 353.375959 331.283445 
L 354.572158 332.820321 
L 356.202565 333.885519 
L 358.090502 334.36361 
L 360.031381 334.202784 
L 361.814878 333.42047 
L 363.247723 332.101443 
L 364.174645 330.388641 
L 364.495198 328.467672 
" style="fill:none;stroke:#ff0000;stroke-linecap:square;stroke-width:1.5;"/>
   </g>
   <g id="line2d_99">
    <path clip-path="url(#p9812efb3ce)" d="M 98.891566 487.188434 
L 98.891566 94.571566 
" style="fill:none;stroke:#000000;stroke-linecap:square;stroke-width:4;"/>
   </g>
   <g id="line2d_100">
    <path clip-path="url(#p9812efb3ce)" d="M 98.891566 94.571566 
L 491.508434 94.571566 
" style="fill:none;stroke:#000000;stroke-linecap:square;stroke-width:4;"/>
   </g>
   <g id="line2d_101">
    <path clip-path="url(#p9812efb3ce)" d="M 491.508434 94.571566 
L 491.508434 487.188434 
" style="fill:none;stroke:#000000;stroke-linecap:square;stroke-width:4;"/>
   </g>
   <g id="line2d_102">
    <path clip-path="url(#p9812efb3ce)" d="M 491.508434 487.188434 
L 98.891566 487.188434 
" style="fill:none;stroke:#000000;stroke-linecap:square;stroke-width:4;"/>
   </g>
   <g id="line2d_103">
    <path clip-path="url(#p9812efb3ce)" d="M 230.606458 234.784193 
L 231.897253 234.784193 
L 234.263711 234.676627 
L 236.092337 234.461494 
L 237.974747 233.923663 
L 240.126072 232.848 
L 241.793349 231.718554 
L 243.675759 230.642892 
L 245.880867 229.621012 
L 247.924627 228.706699 
L 250.022169 227.36212 
L 251.797012 225.694843 
L 253.679422 224.027566 
L 255.938313 222.682988 
L 258.304771 221.822458 
L 260.402313 220.908145 
L 262.392289 219.617349 
L 263.952 218.487904 
L 265.67306 216.820627 
L 266.748723 215.099566 
L 267.770602 212.679325 
L 268.684916 210.796916 
L 270.244627 208.753157 
L 271.965687 207.301012 
L 274.278361 206.064 
L 276.429687 205.472386 
L 278.419663 205.04212 
L 280.678554 204.235373 
L 282.883663 203.213494 
L 284.55094 202.514313 
L 286.863614 201.707566 
L 289.176289 200.847036 
L 291.166265 199.556241 
L 293.102458 197.727614 
L 294.715952 196.27547 
L 296.544578 195.092241 
L 298.426988 194.016578 
L 300.470747 192.725783 
L 302.24559 191.273639 
L 304.128 189.92906 
L 306.117976 188.907181 
L 308.645783 188.261783 
L 311.227373 188.046651 
L 313.540048 187.939084 
L 315.852723 187.34747 
L 317.842699 186.433157 
L 319.832675 185.680193 
L 322.306699 185.249928 
L 324.56559 185.088578 
L 327.093398 184.712096 
L 329.083373 184.066699 
L 331.288482 182.88347 
L 333.332241 181.915373 
L 335.483566 181.377542 
L 337.850024 180.678361 
L 340.324048 179.656482 
L 342.260241 178.25812 
L 344.519133 176.69841 
L 346.401542 175.568964 
L 348.606651 174.331952 
L 350.596627 172.93359 
L 352.21012 171.589012 
L 354.200096 169.975518 
L 355.921157 168.63094 
L 357.857349 167.125012 
L 359.739759 165.511518 
L 361.675952 163.844241 
L 363.343229 162.499663 
L 365.010506 161.155084 
L 366.731566 159.864289 
L 368.721542 158.358361 
L 370.335036 157.121349 
L 371.894747 155.991904 
L 373.454458 154.916241 
L 375.121735 153.786795 
L 376.789012 152.657349 
L 378.079807 151.850602 
L 379.316819 151.097639 
L 380.661398 150.290892 
L 381.89841 149.537928 
L 382.866506 149.000096 
L 383.942169 148.408482 
L 384.964048 147.924434 
L 385.878361 147.440386 
L 387.007807 146.902554 
L 387.975904 146.579855 
L 388.567518 146.472289 
L 389.212916 146.472289 
L 390.288578 146.741205 
L 392.063422 147.547952 
L 394.214747 149.05388 
L 395.935807 150.990072 
L 397.01147 152.872482 
L 397.872 154.862458 
L 398.840096 156.637301 
L 400.077108 158.250795 
L 401.421687 159.918072 
L 402.873831 161.961831 
L 404.272193 164.059373 
L 405.670554 166.103133 
L 406.907566 167.877976 
L 408.359711 169.921735 
L 409.811855 171.965494 
L 411.048867 173.740337 
L 412.447229 175.784096 
L 413.899373 177.881639 
L 415.351518 179.925398 
L 416.74988 181.969157 
L 418.202024 184.012916 
L 419.439036 185.787759 
L 420.891181 187.885301 
L 422.07441 189.606361 
L 423.526554 191.703904 
L 424.763566 193.478747 
L 426.215711 195.522506 
L 427.39894 197.297349 
L 428.635952 199.01841 
L 429.872964 200.793253 
L 431.325108 202.890795 
L 432.777253 204.934554 
L 433.960482 206.709398 
L 435.412627 208.753157 
L 436.649639 210.528 
L 438.101783 212.571759 
L 439.500145 214.615518 
" style="fill:none;stroke:#8000ff;stroke-linecap:square;stroke-width:1.5;"/>
   </g>
   <g id="line2d_104">
    <path clip-path="url(#p9812efb3ce)" d="M 176.661976 130.068434 
L 176.984675 130.176 
L 177.737639 131.03653 
L 178.383036 132.542458 
L 178.651952 133.994602 
L 178.651952 136.038361 
L 178.11412 138.835084 
L 177.576289 140.502361 
L 176.984675 142.922602 
L 176.124145 147.978217 
L 175.478747 150.129542 
L 174.134169 152.388434 
L 171.122313 155.830554 
L 170.315566 157.121349 
L 169.777735 158.465928 
L 169.239904 161.047518 
L 169.132337 163.198843 
L 168.863422 165.457735 
L 167.303711 174.547084 
L 166.60453 176.69841 
L 165.636434 178.634602 
L 164.506988 180.517012 
L 162.947277 182.614554 
L 162.086747 184.012916 
L 161.333783 186.110458 
L 161.011084 187.885301 
L 160.795952 190.197976 
L 159.989205 193.102265 
L 158.752193 196.598169 
L 158.483277 199.125976 
L 158.483277 201.277301 
L 157.784096 206.763181 
L 157.945446 208.80694 
L 158.483277 210.850699 
L 159.236241 213.055807 
L 159.720289 215.153349 
L 160.527036 217.73494 
L 161.441349 219.456 
L 162.839711 221.607325 
L 163.700241 223.704867 
L 164.238072 226.232675 
L 164.345639 231.12694 
L 164.668337 233.009349 
L 165.475084 235.268241 
L 166.335614 237.312 
L 166.981012 239.248193 
L 167.357494 241.829783 
L 167.357494 244.034892 
L 167.518843 246.078651 
L 168.379373 250.435084 
L 168.271807 253.44694 
L 167.841542 255.867181 
L 167.680193 258.072289 
L 167.733976 260.869012 
L 167.411277 263.504386 
L 165.959133 267.860819 
L 164.775904 270.119711 
L 161.817831 273.830747 
L 160.042988 275.713157 
L 157.83788 277.111518 
L 155.686554 277.918265 
L 153.427663 278.34853 
L 152.889831 278.240964 
L 151.437687 277.541783 
L 150.146892 276.573687 
L 148.90988 275.229108 
L 149.125012 275.336675 
L 149.501494 275.229108 
L 149.716627 275.013976 
L 149.716627 274.852627 
L 149.60906 277.111518 
L 149.447711 277.972048 
L 149.178795 278.240964 
L 148.74853 278.563663 
L 147.296386 280.392289 
L 147.02747 280.499855 
L 146.16694 280.983904 
L 145.091277 281.790651 
L 144.069398 282.866313 
L 143.155084 284.103325 
L 141.272675 286.147084 
L 139.497831 287.491663 
L 137.776771 288.943807 
L 136.485976 290.557301 
L 135.51788 292.385928 
L 134.818699 294.160771 
L 134.442217 296.150747 
L 134.549783 298.570988 
L 135.141398 300.883663 
L 136.109494 302.712289 
L 137.776771 304.756048 
L 140.84241 307.71412 
L 146.435855 312.285687 
L 147.941783 313.899181 
L 149.232578 315.620241 
L 150.146892 317.664 
L 150.738506 319.815325 
L 151.061205 322.020434 
L 150.953639 324.655807 
L 150.200675 328.689542 
L 150.200675 330.733301 
L 150.63094 332.77706 
L 152.083084 336.111614 
L 152.620916 338.693205 
L 152.620916 340.952096 
L 152.029301 343.479904 
L 150.899855 345.846361 
L 149.501494 347.567422 
L 145.790458 351.009542 
L 144.392096 352.891952 
L 143.531566 354.774361 
L 142.455904 359.184578 
L 141.595373 361.551036 
L 140.68106 363.594795 
L 139.82053 365.90747 
L 139.390265 367.62853 
L 138.744867 369.672289 
L 136.647325 373.97494 
L 135.948145 376.395181 
L 135.195181 380.751614 
L 134.065735 383.655904 
L 132.667373 385.753446 
L 132.667373 385.753446 
" style="fill:none;stroke:#376ff9;stroke-linecap:square;stroke-width:1.5;"/>
   </g>
   <g id="line2d_105">
    <path clip-path="url(#p9812efb3ce)" d="M 224.905446 154.163277 
L 225.013012 154.163277 
L 225.174361 154.21706 
L 225.604627 154.432193 
L 226.35759 155.07759 
L 227.21812 156.314602 
L 227.917301 157.928096 
L 228.347566 159.918072 
L 228.401349 162.44588 
L 228.347566 164.758554 
L 228.508916 166.802313 
L 228.777831 168.846072 
L 229.10053 171.320096 
L 229.315663 174.224386 
L 229.315663 176.429494 
L 228.885398 179.011084 
L 228.186217 180.839711 
L 227.056771 183.744 
L 226.734072 185.411277 
L 226.465157 187.885301 
L 225.873542 190.359325 
L 225.120578 192.134169 
L 223.991133 194.661976 
L 223.453301 196.598169 
L 223.345735 198.695711 
L 223.614651 200.954602 
L 223.829783 202.783229 
L 223.614651 205.795084 
L 223.184386 207.516145 
L 222.592771 209.775036 
L 222.485205 211.496096 
L 222.700337 213.378506 
L 223.023036 215.691181 
L 222.807904 218.326554 
L 222.270072 220.47788 
L 221.463325 222.790554 
L 221.19441 224.78053 
L 221.355759 226.770506 
L 221.89359 228.868048 
L 222.377639 230.589108 
L 222.861687 233.116916 
L 223.291952 235.967422 
L 223.614651 238.064964 
L 224.098699 240.538988 
L 224.475181 242.690313 
L 224.959229 245.487036 
L 225.335711 247.638361 
L 225.712193 249.735904 
L 226.088675 251.887229 
L 226.51894 254.30747 
L 226.841639 256.082313 
L 227.271904 258.556337 
L 227.702169 261.030361 
L 228.132434 263.504386 
L 228.562699 265.97841 
L 228.885398 267.753253 
L 229.369446 270.603759 
L 229.799711 273.077783 
L 230.229976 275.498024 
L 230.606458 277.810699 
L 230.552675 280.06959 
L 229.907277 282.597398 
L 229.154313 284.318458 
L 227.863518 287.061398 
L 227.164337 289.374072 
L 226.895422 291.579181 
L 226.303807 294.106988 
L 225.335711 296.473446 
L 224.260048 298.94747 
L 223.776 300.937446 
L 223.668434 302.981205 
L 224.098699 305.347663 
L 224.959229 307.71412 
L 225.604627 309.75788 
L 225.927325 312.393253 
L 226.142458 314.652145 
L 226.787855 316.964819 
L 228.132434 319.331277 
L 229.584578 320.944771 
L 231.251855 322.827181 
L 232.542651 324.817157 
L 233.510747 327.237398 
L 233.887229 330.19547 
L 233.672096 332.615711 
L 233.510747 335.197301 
L 233.887229 337.563759 
L 234.693976 339.446169 
L 235.984771 341.543711 
L 237.168 343.318554 
L 238.18988 345.738795 
L 238.620145 347.352289 
L 239.157976 349.826313 
L 239.964723 351.708723 
L 241.094169 353.483566 
L 242.707663 356.495422 
L 243.406843 358.592964 
L 243.944675 361.497253 
L 244.751422 363.756145 
L 245.827084 365.692337 
" style="fill:none;stroke:#12c7e6;stroke-linecap:square;stroke-width:1.5;"/>
   </g>
   <g id="line2d_106">
    <path clip-path="url(#p9812efb3ce)" d="M 283.851759 245.271904 
L 283.797976 245.271904 
L 283.69041 245.325687 
L 283.636627 245.37947 
L 283.582843 245.37947 
L 283.582843 245.37947 
L 283.582843 245.37947 
L 284.335807 244.895422 
L 286.218217 243.712193 
L 287.99306 242.475181 
L 290.036819 241.076819 
L 291.75788 239.89359 
L 293.425157 238.764145 
L 295.2 237.096867 
L 296.92106 235.268241 
L 299.126169 233.70853 
L 300.847229 232.632867 
L 302.353157 231.342072 
L 303.859084 229.513446 
L 305.096096 228.007518 
L 307.086072 226.286458 
L 309.076048 225.264578 
L 311.17359 224.565398 
L 313.701398 223.92 
L 315.79894 223.220819 
L 317.842699 221.983807 
L 319.671325 220.262747 
L 321.231036 218.864386 
L 323.167229 217.466024 
L 324.72694 216.390361 
L 327.147181 214.239036 
L 329.137157 212.464193 
L 331.288482 211.065831 
L 333.439807 209.828819 
L 335.483566 208.484241 
L 337.581108 206.978313 
L 339.302169 205.741301 
L 341.130795 204.504289 
L 343.174554 203.105928 
L 344.680482 202.137831 
L 346.724241 200.685687 
L 348.821783 199.287325 
L 350.919325 197.888964 
L 352.694169 196.705735 
L 354.522795 195.522506 
L 356.620337 194.124145 
L 358.395181 192.940916 
L 360.223807 191.757687 
L 362.321349 190.413108 
L 364.418892 189.014747 
L 366.516434 187.670169 
L 368.667759 186.32559 
L 370.765301 184.981012 
L 372.593928 183.851566 
L 374.69147 182.506988 
L 376.520096 181.377542 
L 378.348723 180.248096 
L 380.500048 178.903518 
L 382.59759 177.55894 
L 384.748916 176.214361 
L 386.846458 174.869783 
L 388.997783 173.525205 
L 391.095325 172.180627 
L 392.870169 170.997398 
L 395.021494 169.599036 
L 396.473639 168.63094 
L 398.571181 167.232578 
L 400.668723 165.834217 
L 402.443566 164.650988 
L 404.21841 163.413976 
L 405.670554 162.392096 
L 407.768096 160.939952 
L 409.489157 159.756723 
L 411.532916 158.304578 
L 413.576675 156.798651 
L 415.620434 155.346506 
L 417.341494 154.055711 
L 419.008771 152.711133 
L 420.729831 151.420337 
L 422.397108 150.075759 
L 424.118169 148.731181 
L 426.054361 147.17147 
L 427.667855 145.826892 
L 429.335133 144.42853 
L 431.540241 142.54612 
L 433.422651 140.932627 
L 435.036145 139.480482 
L 436.918554 137.813205 
L 438.800964 136.199711 
L 440.62959 134.532434 
L 442.243084 133.080289 
L 443.856578 131.681928 
L 445.738988 130.014651 
L 447.621398 128.347373 
L 449.503807 126.680096 
" style="fill:none;stroke:#5bf9c7;stroke-linecap:square;stroke-width:1.5;"/>
   </g>
   <g id="line2d_107">
    <path clip-path="url(#p9812efb3ce)" d="M 424.494651 177.612723 
L 424.763566 177.666506 
L 425.247614 178.204337 
L 425.624096 178.903518 
L 425.893012 180.14053 
L 425.893012 181.646458 
L 425.462747 183.044819 
L 424.494651 184.873446 
L 423.580337 187.024771 
L 421.644145 193.855229 
L 419.600386 199.986506 
L 419.008771 202.245398 
L 418.847422 204.665639 
L 419.223904 207.032096 
L 420.891181 211.334747 
L 421.321446 213.916337 
L 421.321446 218.43412 
L 421.805494 220.800578 
L 422.719807 223.005687 
L 423.79547 224.834313 
L 424.871133 226.985639 
L 425.355181 228.814265 
L 425.624096 231.664771 
L 425.67788 234.246361 
L 426.000578 236.29012 
L 426.699759 238.280096 
L 427.452723 240.91547 
L 427.721639 243.604627 
L 427.506506 246.132434 
L 427.452723 248.552675 
L 428.25947 252.747759 
L 428.420819 255.114217 
L 427.560289 262.21359 
L 427.291373 264.95653 
L 425.893012 269.743229 
L 425.570313 272.16347 
L 425.355181 276.46612 
L 424.602217 278.993928 
L 421.429012 285.232771 
L 420.245783 287.545446 
L 417.44906 290.88 
L 415.566651 293.138892 
L 414.329639 295.075084 
L 412.608578 297.387759 
L 411.156434 299.592867 
L 409.38159 303.41147 
L 408.413494 305.939277 
L 407.983229 308.036819 
L 407.552964 310.725976 
L 407.606747 312.447036 
L 408.198361 315.028627 
L 408.574843 315.512675 
L 409.758072 316.64212 
L 411.748048 317.932916 
L 413.684241 318.68588 
L 417.664193 319.38506 
L 420.460916 320.460723 
L 422.235759 321.751518 
L 423.741687 323.365012 
L 425.140048 325.57012 
L 425.946795 328.097928 
L 426.161928 330.303036 
L 425.839229 332.884627 
L 424.924916 335.358651 
L 424.010602 336.864578 
L 422.343325 339.231036 
L 421.536578 340.790747 
L 420.783614 343.157205 
L 419.600386 346.33041 
L 418.632289 347.943904 
L 416.58853 350.095229 
L 414.652337 351.278458 
L 410.026988 353.214651 
L 406.047036 355.796241 
L 404.003277 356.656771 
L 402.174651 357.087036 
L 396.903904 357.463518 
L 394.913928 357.947566 
L 393.085301 358.86188 
L 389.481831 361.604819 
L 387.384289 363.541012 
L 384.264867 367.520964 
L 382.274892 369.188241 
L 380.553831 370.21012 
L 378.187373 371.769831 
L 376.57388 373.490892 
L 375.552 375.265735 
L 374.69147 377.632193 
L 374.099855 379.675952 
L 373.346892 381.397012 
L 371.840964 383.655904 
L 370.119904 385.861012 
L 368.721542 388.012337 
L 366.731566 391.884723 
L 362.966747 397.531952 
L 350.381494 416.786313 
L 350.381494 416.786313 
" style="fill:none;stroke:#a4f99f;stroke-linecap:square;stroke-width:1.5;"/>
   </g>
   <g id="line2d_108">
    <path clip-path="url(#p9812efb3ce)" d="M 334.300337 251.672096 
L 334.35412 251.672096 
L 334.51547 251.672096 
L 334.838169 251.887229 
L 335.537349 252.532627 
L 336.666795 254.092337 
L 337.688675 256.458795 
L 338.172723 258.61012 
L 338.172723 260.869012 
L 337.634892 263.450602 
L 336.935711 265.171663 
L 335.752482 267.000289 
L 334.407904 268.990265 
L 333.386024 271.087807 
L 332.202795 273.292916 
L 330.535518 275.336675 
L 328.922024 277.057735 
L 327.685012 278.617446 
L 326.125301 280.714988 
L 324.189108 282.543614 
L 322.252916 284.049542 
L 320.854554 285.447904 
L 319.725108 287.115181 
L 318.488096 289.212723 
L 316.713253 291.148916 
L 314.830843 292.60106 
L 312.679518 294.214554 
L 311.012241 296.043181 
L 309.721446 297.710458 
L 308.215518 299.216386 
L 306.171759 300.82988 
L 304.396916 302.335807 
L 302.460723 304.272 
L 301.008578 306.046843 
L 299.771566 307.87547 
L 298.695904 310.188145 
L 298.158072 312.124337 
L 298.050506 314.168096 
L 298.319422 316.373205 
L 298.534554 317.771566 
L 298.64212 318.148048 
L 298.80347 318.416964 
L 298.911036 318.68588 
L 299.287518 319.38506 
L 299.717783 320.675855 
L 300.040482 323.042313 
L 299.879133 325.247422 
L 299.018602 328.151711 
L 297.620241 330.356819 
L 295.791614 332.239229 
L 294.17812 333.368675 
L 292.403277 334.820819 
L 291.112482 336.434313 
L 290.198169 338.26294 
L 289.71412 339.768867 
L 288.85359 342.296675 
L 287.777928 344.286651 
L 286.325783 345.953928 
L 284.228241 347.513639 
L 282.023133 348.804434 
L 280.194506 349.880096 
L 278.742361 350.848193 
L 276.698602 352.192771 
L 274.869976 353.376 
L 272.772434 354.720578 
L 270.943807 355.903807 
L 268.523566 357.463518 
L 266.748723 358.646747 
L 264.651181 359.991325 
L 262.822554 361.174554 
L 260.402313 362.734265 
L 258.304771 364.078843 
L 256.529928 365.262072 
L 254.701301 366.445301 
L 252.28106 368.005012 
L 250.506217 369.188241 
L 248.67759 370.317687 
L 246.580048 371.716048 
L 244.751422 372.845494 
L 242.384964 374.458988 
L 239.803373 376.233831 
L 238.243663 377.739759 
L 237.006651 379.568386 
L 235.070458 382.096193 
L 233.403181 383.548337 
L 231.520771 384.946699 
L 229.638361 386.50641 
L 227.755952 388.22747 
L 225.65841 389.733398 
L 223.937349 390.647711 
L 221.624675 391.884723 
L 219.365783 393.659566 
L 217.644723 394.896578 
L 215.493398 396.079807 
L 213.503422 397.047904 
L 210.975614 398.392482 
L 208.824289 399.683277 
L 206.619181 400.920289 
L 205.05947 401.780819 
L 202.854361 402.964048 
L 200.326554 404.36241 
L 198.444145 405.384289 
L 196.239036 406.567518 
L 194.356627 407.589398 
L 192.151518 408.82641 
L 189.94641 410.009639 
L 187.741301 411.192867 
L 185.858892 412.214747 
L 183.331084 413.613108 
L 181.125976 414.796337 
L 179.243566 415.818217 
L 176.715759 417.216578 
" style="fill:none;stroke:#edc76f;stroke-linecap:square;stroke-width:1.5;"/>
   </g>
   <g id="line2d_109">
    <path clip-path="url(#p9812efb3ce)" d="M 294.823518 395.757108 
L 294.769735 395.810892 
L 294.662169 395.810892 
L 294.608386 395.864675 
L 294.769735 395.703325 
L 295.092434 395.219277 
L 295.522699 394.41253 
L 295.845398 392.852819 
L 295.845398 391.131759 
L 295.522699 389.141783 
L 294.877301 386.775325 
L 294.285687 384.355084 
L 293.855422 381.88106 
L 293.425157 379.783518 
L 292.887325 377.41706 
L 291.811663 375.265735 
L 290.574651 373.598458 
L 289.122506 371.662265 
L 287.99306 369.672289 
L 287.240096 367.574747 
L 286.540916 365.04694 
L 285.734169 362.680482 
L 284.981205 360.260241 
L 284.443373 357.786217 
L 284.013108 355.688675 
L 283.475277 353.268434 
L 283.045012 351.170892 
L 282.614747 348.696867 
L 282.238265 346.545542 
L 281.808 344.125301 
L 281.431518 342.081542 
L 280.517205 339.876434 
L 279.387759 338.047807 
L 278.150747 335.950265 
L 277.344 333.476241 
L 277.075084 331.378699 
L 276.698602 329.17359 
L 275.999422 327.291181 
L 275.838072 326.968482 
L 275.515373 326.699566 
L 273.90188 325.462554 
L 271.535422 324.171759 
L 269.384096 322.773398 
L 267.55547 320.837205 
L 266.426024 318.901012 
L 265.780627 317.179952 
L 265.726843 316.319422 
L 265.726843 316.050506 
L 266.049542 315.405108 
L 266.748723 314.598361 
L 268.039518 313.952964 
L 269.975711 313.468916 
L 272.073253 312.877301 
L 273.955663 311.909205 
L 275.46159 310.564627 
L 276.698602 308.951133 
L 277.720482 306.799807 
L 278.150747 304.809831 
L 278.20453 302.766072 
L 277.828048 300.238265 
L 277.559133 297.92559 
L 277.505349 295.236434 
L 277.182651 292.493494 
L 276.644819 290.073253 
L 276.106988 287.545446 
L 275.676723 285.071422 
L 275.246458 282.97388 
L 274.816193 280.876337 
L 274.385928 278.778795 
L 273.848096 276.358554 
L 273.417831 274.207229 
L 272.933783 272.109687 
L 272.449735 269.689446 
L 271.911904 267.215422 
L 271.481639 265.11788 
L 270.99759 263.020337 
L 270.567325 260.922795 
L 270.083277 258.77147 
L 269.653012 256.673928 
L 269.222747 254.576386 
L 268.684916 252.156145 
L 268.147084 249.68212 
L 267.663036 247.208096 
L 267.125205 244.787855 
L 266.641157 242.690313 
L 266.157108 240.216289 
L 265.619277 237.742265 
L 265.081446 235.322024 
L 264.543614 232.848 
L 264.059566 230.373976 
L 263.521735 227.953735 
L 263.09147 225.856193 
L 262.607422 223.758651 
L 262.06959 221.284627 
L 261.639325 219.187084 
L 261.101494 216.71306 
L 260.617446 214.292819 
L 260.133398 212.141494 
L 259.595566 209.721253 
L 259.111518 207.247229 
L 258.62747 205.149687 
" style="fill:none;stroke:#ff6f39;stroke-linecap:square;stroke-width:1.5;"/>
   </g>
   <g id="line2d_110">
    <path clip-path="url(#p9812efb3ce)" d="M 153.589012 451.960482 
L 153.427663 451.960482 
L 153.481446 451.960482 
L 154.180627 451.153735 
L 154.718458 450.131855 
L 155.202506 448.410795 
L 155.256289 446.528386 
L 155.041157 444.53841 
L 154.664675 442.171952 
L 149.877976 378.43894 
L 149.286361 376.448964 
L 148.533398 374.943036 
L 147.350169 372.845494 
L 146.113157 370.37147 
L 144.822361 365.961253 
L 143.800482 363.971277 
L 142.993735 362.142651 
L 142.455904 359.991325 
L 142.40212 357.355952 
L 142.832386 355.150843 
L 144.338313 351.170892 
L 145.252627 346.760675 
L 146.16694 344.716916 
L 148.425831 341.382361 
L 149.232578 339.499952 
L 149.77041 337.294843 
L 150.146892 335.143518 
L 150.738506 332.723277 
L 151.652819 330.733301 
L 153.965494 326.914699 
L 154.664675 324.602024 
L 154.826024 322.235566 
L 154.180627 317.448867 
L 154.07306 307.71412 
L 154.557108 305.13253 
L 155.363855 303.196337 
L 157.138699 300.937446 
L 157.353831 300.82988 
L 158.752193 301.045012 
L 159.290024 301.098795 
L 159.881639 301.313928 
L 161.172434 302.174458 
L 161.979181 302.658506 
L 162.893494 302.55094 
L 164.130506 302.282024 
L 165.259952 301.52906 
L 166.76588 300.023133 
L 167.303711 299.055036 
L 167.787759 297.495325 
L 168.002892 295.935614 
L 168.218024 291.632964 
L 168.218024 286.684916 
L 167.841542 281.952 
L 168.110458 279.37041 
L 168.702072 277.219084 
L 169.562602 274.529928 
L 169.939084 272.378602 
L 169.831518 263.127904 
L 170.476916 259.255518 
L 170.476916 256.835277 
L 170.046651 252.532627 
L 170.423133 248.283759 
L 170.154217 244.196241 
L 170.799614 239.517108 
L 170.799614 237.473349 
L 169.508819 230.589108 
L 168.809639 228.330217 
L 166.389398 223.758651 
L 164.72212 218.703036 
L 162.570795 214.776867 
L 161.656482 212.464193 
L 160.957301 210.043952 
L 159.236241 205.418602 
L 158.268145 203.105928 
L 153.266313 189.660145 
L 144.983711 167.501494 
L 140.84241 156.422169 
L 132.559807 134.209735 
L 132.559807 134.209735 
" style="fill:none;stroke:#ff0000;stroke-linecap:square;stroke-width:1.5;"/>
   </g>
   <g id="patch_3">
    <path d="M 72 512.64 
L 72 69.12 
" style="fill:none;stroke:#000000;stroke-linecap:square;stroke-linejoin:miter;stroke-width:0.8;"/>
   </g>
   <g id="patch_4">
    <path d="M 518.4 512.64 
L 518.4 69.12 
" style="fill:none;stroke:#000000;stroke-linecap:square;stroke-linejoin:miter;stroke-width:0.8;"/>
   </g>
   <g id="patch_5">
    <path d="M 72 512.64 
L 518.4 512.64 
" style="fill:none;stroke:#000000;stroke-linecap:square;stroke-linejoin:miter;stroke-width:0.8;"/>
   </g>
   <g id="patch_6">
    <path d="M 72 69.12 
L 518.4 69.12 
" style="fill:none;stroke:#000000;stroke-linecap:square;stroke-linejoin:miter;stroke-width:0.8;"/>
   </g>
   <g id="text_18">
    <!-- 1 -->
    <defs>
     <path d="M 14.203125 0 
L 14.203125 5.171875 
L 26.90625 5.171875 
L 26.90625 65.828125 
L 12.203125 56.296875 
L 12.203125 62.703125 
L 29.984375 74.21875 
L 36.71875 74.21875 
L 36.71875 5.171875 
L 49.421875 5.171875 
L 49.421875 0 
z
" id="DejaVuSerif-31"/>
    </defs>
    <g transform="translate(227.429812 234.798802)scale(0.1 -0.1)">
     <use xlink:href="#DejaVuSerif-31"/>
    </g>
   </g>
   <g id="text_19">
    <!-- 1 -->
    <g transform="translate(437.527274 216.333428)scale(0.1 -0.1)">
     <use xlink:href="#DejaVuSerif-31"/>
    </g>
   </g>
   <g id="text_20">
    <!-- 2 -->
    <defs>
     <path d="M 12.796875 55.515625 
L 7.328125 55.515625 
L 7.328125 68.5 
Q 12.546875 71.296875 17.84375 72.75 
Q 23.140625 74.21875 28.21875 74.21875 
Q 39.59375 74.21875 46.1875 68.703125 
Q 52.78125 63.1875 52.78125 53.71875 
Q 52.78125 43.015625 37.84375 28.125 
Q 36.671875 27 36.078125 26.421875 
L 17.671875 8.015625 
L 48.09375 8.015625 
L 48.09375 17 
L 53.8125 17 
L 53.8125 0 
L 6.78125 0 
L 6.78125 5.328125 
L 28.90625 27.390625 
Q 36.234375 34.71875 39.359375 40.84375 
Q 42.484375 46.96875 42.484375 53.71875 
Q 42.484375 61.078125 38.640625 65.234375 
Q 34.8125 69.390625 28.078125 69.390625 
Q 21.09375 69.390625 17.28125 65.921875 
Q 13.484375 62.453125 12.796875 55.515625 
z
" id="DejaVuSerif-32"/>
    </defs>
    <g transform="translate(173.460174 130.054609)scale(0.1 -0.1)">
     <use xlink:href="#DejaVuSerif-32"/>
    </g>
   </g>
   <g id="text_21">
    <!-- 2 -->
    <g transform="translate(128.805452 388.425977)scale(0.1 -0.1)">
     <use xlink:href="#DejaVuSerif-32"/>
    </g>
   </g>
   <g id="text_22">
    <!-- 3 -->
    <defs>
     <path d="M 9.71875 69.828125 
Q 15.4375 71.96875 20.671875 73.09375 
Q 25.921875 74.21875 30.515625 74.21875 
Q 41.21875 74.21875 47.21875 69.59375 
Q 53.21875 64.984375 53.21875 56.78125 
Q 53.21875 50.203125 49.0625 45.78125 
Q 44.921875 41.359375 37.3125 39.796875 
Q 46.296875 38.53125 51.25 33.28125 
Q 56.203125 28.03125 56.203125 19.671875 
Q 56.203125 9.46875 49.34375 4.015625 
Q 42.484375 -1.421875 29.59375 -1.421875 
Q 23.875 -1.421875 18.421875 -0.1875 
Q 12.984375 1.03125 7.625 3.515625 
L 7.625 17.671875 
L 13.09375 17.671875 
Q 13.578125 10.640625 17.828125 7.03125 
Q 22.078125 3.421875 29.78125 3.421875 
Q 37.25 3.421875 41.578125 7.734375 
Q 45.90625 12.0625 45.90625 19.578125 
Q 45.90625 28.171875 41.453125 32.59375 
Q 37.015625 37.015625 28.421875 37.015625 
L 23.78125 37.015625 
L 23.78125 42 
L 26.21875 42 
Q 34.765625 42 39.03125 45.53125 
Q 43.3125 49.078125 43.3125 56.203125 
Q 43.3125 62.59375 39.796875 65.984375 
Q 36.28125 69.390625 29.6875 69.390625 
Q 23.09375 69.390625 19.453125 66.265625 
Q 15.828125 63.140625 15.1875 56.984375 
L 9.71875 56.984375 
z
" id="DejaVuSerif-33"/>
    </defs>
    <g transform="translate(221.740708 154.149276)scale(0.1 -0.1)">
     <use xlink:href="#DejaVuSerif-33"/>
    </g>
   </g>
   <g id="text_23">
    <!-- 3 -->
    <g transform="translate(243.39232 368.329149)scale(0.1 -0.1)">
     <use xlink:href="#DejaVuSerif-33"/>
    </g>
   </g>
   <g id="text_24">
    <!-- 4 -->
    <defs>
     <path d="M 34.90625 24.703125 
L 34.90625 63.484375 
L 10.015625 24.703125 
z
M 56.390625 0 
L 23.1875 0 
L 23.1875 5.171875 
L 34.90625 5.171875 
L 34.90625 19.484375 
L 3.078125 19.484375 
L 3.078125 24.8125 
L 35.015625 74.21875 
L 44.671875 74.21875 
L 44.671875 24.703125 
L 58.59375 24.703125 
L 58.59375 19.484375 
L 44.671875 19.484375 
L 44.671875 5.171875 
L 56.390625 5.171875 
z
" id="DejaVuSerif-34"/>
    </defs>
    <g transform="translate(280.689269 245.283846)scale(0.1 -0.1)">
     <use xlink:href="#DejaVuSerif-34"/>
    </g>
   </g>
   <g id="text_25">
    <!-- 4 -->
    <g transform="translate(447.575875 125.570343)scale(0.1 -0.1)">
     <use xlink:href="#DejaVuSerif-34"/>
    </g>
   </g>
   <g id="text_26">
    <!-- 5 -->
    <defs>
     <path d="M 50.296875 72.90625 
L 50.296875 64.890625 
L 16.890625 64.890625 
L 16.890625 44 
Q 19.4375 45.75 22.828125 46.625 
Q 26.21875 47.515625 30.421875 47.515625 
Q 42.234375 47.515625 49.0625 40.96875 
Q 55.90625 34.421875 55.90625 23.09375 
Q 55.90625 11.53125 49 5.046875 
Q 42.09375 -1.421875 29.59375 -1.421875 
Q 24.5625 -1.421875 19.28125 -0.1875 
Q 14.015625 1.03125 8.5 3.515625 
L 8.5 17.671875 
L 14.015625 17.671875 
Q 14.453125 10.75 18.421875 7.078125 
Q 22.40625 3.421875 29.59375 3.421875 
Q 37.3125 3.421875 41.453125 8.5 
Q 45.609375 13.578125 45.609375 23.09375 
Q 45.609375 32.5625 41.484375 37.609375 
Q 37.359375 42.671875 29.59375 42.671875 
Q 25.203125 42.671875 21.84375 41.109375 
Q 18.5 39.546875 15.921875 36.28125 
L 11.71875 36.28125 
L 11.71875 72.90625 
z
" id="DejaVuSerif-35"/>
    </defs>
    <g transform="translate(421.331757 177.609865)scale(0.1 -0.1)">
     <use xlink:href="#DejaVuSerif-35"/>
    </g>
   </g>
   <g id="text_27">
    <!-- 5 -->
    <g transform="translate(345.805562 418.906005)scale(0.1 -0.1)">
     <use xlink:href="#DejaVuSerif-35"/>
    </g>
   </g>
   <g id="text_28">
    <!-- 6 -->
    <defs>
     <path d="M 32.71875 3.421875 
Q 39.59375 3.421875 43.296875 8.46875 
Q 47.015625 13.53125 47.015625 23 
Q 47.015625 32.46875 43.296875 37.515625 
Q 39.59375 42.578125 32.71875 42.578125 
Q 25.734375 42.578125 22.0625 37.6875 
Q 18.40625 32.8125 18.40625 23.578125 
Q 18.40625 13.875 22.109375 8.640625 
Q 25.828125 3.421875 32.71875 3.421875 
z
M 16.796875 40.140625 
Q 20.125 43.796875 24.3125 45.59375 
Q 28.515625 47.40625 33.796875 47.40625 
Q 44.671875 47.40625 51 40.859375 
Q 57.328125 34.328125 57.328125 23 
Q 57.328125 11.921875 50.515625 5.25 
Q 43.703125 -1.421875 32.328125 -1.421875 
Q 19.96875 -1.421875 13.328125 7.78125 
Q 6.6875 17 6.6875 34.078125 
Q 6.6875 53.21875 14.546875 63.71875 
Q 22.40625 74.21875 36.71875 74.21875 
Q 40.578125 74.21875 44.828125 73.484375 
Q 49.078125 72.75 53.515625 71.296875 
L 53.515625 59.28125 
L 48 59.28125 
Q 47.40625 64.203125 44.234375 66.796875 
Q 41.0625 69.390625 35.6875 69.390625 
Q 26.21875 69.390625 21.578125 62.203125 
Q 16.9375 55.03125 16.796875 40.140625 
z
" id="DejaVuSerif-36"/>
    </defs>
    <g transform="translate(331.119683 251.651259)scale(0.1 -0.1)">
     <use xlink:href="#DejaVuSerif-36"/>
    </g>
   </g>
   <g id="text_29">
    <!-- 6 -->
    <g transform="translate(170.999275 418.591446)scale(0.1 -0.1)">
     <use xlink:href="#DejaVuSerif-36"/>
    </g>
   </g>
   <g id="text_30">
    <!-- 7 -->
    <defs>
     <path d="M 56.390625 67.921875 
L 27.875 0 
L 20.609375 0 
L 47.796875 64.890625 
L 14.109375 64.890625 
L 14.109375 55.90625 
L 8.40625 55.90625 
L 8.40625 72.90625 
L 56.390625 72.90625 
z
" id="DejaVuSerif-37"/>
    </defs>
    <g transform="translate(291.639775 395.783509)scale(0.1 -0.1)">
     <use xlink:href="#DejaVuSerif-37"/>
    </g>
   </g>
   <g id="text_31">
    <!-- 7 -->
    <g transform="translate(254.915282 202.568547)scale(0.1 -0.1)">
     <use xlink:href="#DejaVuSerif-37"/>
    </g>
   </g>
   <g id="text_32">
    <!-- 8 -->
    <defs>
     <path d="M 46.578125 19.921875 
Q 46.578125 27.734375 42.6875 32.046875 
Q 38.8125 36.375 31.78125 36.375 
Q 24.75 36.375 20.875 32.046875 
Q 17 27.734375 17 19.921875 
Q 17 12.0625 20.875 7.734375 
Q 24.75 3.421875 31.78125 3.421875 
Q 38.8125 3.421875 42.6875 7.734375 
Q 46.578125 12.0625 46.578125 19.921875 
z
M 44.578125 55.328125 
Q 44.578125 61.96875 41.203125 65.671875 
Q 37.84375 69.390625 31.78125 69.390625 
Q 25.78125 69.390625 22.390625 65.671875 
Q 19 61.96875 19 55.328125 
Q 19 48.640625 22.390625 44.921875 
Q 25.78125 41.21875 31.78125 41.21875 
Q 37.84375 41.21875 41.203125 44.921875 
Q 44.578125 48.640625 44.578125 55.328125 
z
M 39.3125 38.8125 
Q 47.609375 37.703125 52.25 32.6875 
Q 56.890625 27.6875 56.890625 19.921875 
Q 56.890625 9.671875 50.390625 4.125 
Q 43.890625 -1.421875 31.78125 -1.421875 
Q 19.734375 -1.421875 13.203125 4.125 
Q 6.6875 9.671875 6.6875 19.921875 
Q 6.6875 27.6875 11.328125 32.6875 
Q 15.96875 37.703125 24.3125 38.8125 
Q 16.9375 40.140625 13 44.40625 
Q 9.078125 48.6875 9.078125 55.328125 
Q 9.078125 64.109375 15.125 69.15625 
Q 21.1875 74.21875 31.78125 74.21875 
Q 42.390625 74.21875 48.4375 69.15625 
Q 54.5 64.109375 54.5 55.328125 
Q 54.5 48.6875 50.5625 44.40625 
Q 46.625 40.140625 39.3125 38.8125 
z
" id="DejaVuSerif-38"/>
    </defs>
    <g transform="translate(150.41827 451.936996)scale(0.1 -0.1)">
     <use xlink:href="#DejaVuSerif-38"/>
    </g>
   </g>
   <g id="text_33">
    <!-- 8 -->
    <g transform="translate(128.342027 131.411062)scale(0.1 -0.1)">
     <use xlink:href="#DejaVuSerif-38"/>
    </g>
   </g>
  </g>
 </g>
 <defs>
  <clipPath id="p9812efb3ce">
   <rect height="443.52" width="446.4" x="72" y="69.12"/>
  </clipPath>
 </defs>
</svg>
