<?xml version="1.0" encoding="utf-8" standalone="no"?>
<!DOCTYPE svg PUBLIC "-//W3C//DTD SVG 1.1//EN"
  "http://www.w3.org/Graphics/SVG/1.1/DTD/svg11.dtd">
<!-- Created with matplotlib (http://matplotlib.org/) -->
<svg height="576pt" version="1.1" viewBox="0 0 576 576" width="576pt" xmlns="http://www.w3.org/2000/svg" xmlns:xlink="http://www.w3.org/1999/xlink">
 <defs>
  <style type="text/css">
*{stroke-linecap:butt;stroke-linejoin:round;}
  </style>
 </defs>
 <g id="figure_1">
  <g id="patch_1">
   <path d="M 0 576 
L 576 576 
L 576 0 
L 0 0 
z
" style="fill:#ffffff;"/>
  </g>
  <g id="axes_1">
   <g id="patch_2">
    <path d="M 72 512.64 
L 518.4 512.64 
L 518.4 69.12 
L 72 69.12 
z
" style="fill:#ffffff;"/>
   </g>
   <g id="matplotlib.axis_1">
    <g id="xtick_1">
     <g id="line2d_1">
      <defs>
       <path d="M 0 0 
L 0 3.5 
" id="m0f81575aea" style="stroke:#000000;stroke-width:0.8;"/>
      </defs>
      <g>
       <use style="stroke:#000000;stroke-width:0.8;" x="112.216216" xlink:href="#m0f81575aea" y="512.64"/>
      </g>
     </g>
     <g id="text_1">
      <!-- 0 -->
      <defs>
       <path d="M 31.78125 66.40625 
Q 24.171875 66.40625 20.328125 58.90625 
Q 16.5 51.421875 16.5 36.375 
Q 16.5 21.390625 20.328125 13.890625 
Q 24.171875 6.390625 31.78125 6.390625 
Q 39.453125 6.390625 43.28125 13.890625 
Q 47.125 21.390625 47.125 36.375 
Q 47.125 51.421875 43.28125 58.90625 
Q 39.453125 66.40625 31.78125 66.40625 
z
M 31.78125 74.21875 
Q 44.046875 74.21875 50.515625 64.515625 
Q 56.984375 54.828125 56.984375 36.375 
Q 56.984375 17.96875 50.515625 8.265625 
Q 44.046875 -1.421875 31.78125 -1.421875 
Q 19.53125 -1.421875 13.0625 8.265625 
Q 6.59375 17.96875 6.59375 36.375 
Q 6.59375 54.828125 13.0625 64.515625 
Q 19.53125 74.21875 31.78125 74.21875 
z
" id="DejaVuSans-30"/>
      </defs>
      <g transform="translate(109.034966 527.238438)scale(0.1 -0.1)">
       <use xlink:href="#DejaVuSans-30"/>
      </g>
     </g>
    </g>
    <g id="xtick_2">
     <g id="line2d_2">
      <g>
       <use style="stroke:#000000;stroke-width:0.8;" x="192.648649" xlink:href="#m0f81575aea" y="512.64"/>
      </g>
     </g>
     <g id="text_2">
      <!-- 2 -->
      <defs>
       <path d="M 19.1875 8.296875 
L 53.609375 8.296875 
L 53.609375 0 
L 7.328125 0 
L 7.328125 8.296875 
Q 12.9375 14.109375 22.625 23.890625 
Q 32.328125 33.6875 34.8125 36.53125 
Q 39.546875 41.84375 41.421875 45.53125 
Q 43.3125 49.21875 43.3125 52.78125 
Q 43.3125 58.59375 39.234375 62.25 
Q 35.15625 65.921875 28.609375 65.921875 
Q 23.96875 65.921875 18.8125 64.3125 
Q 13.671875 62.703125 7.8125 59.421875 
L 7.8125 69.390625 
Q 13.765625 71.78125 18.9375 73 
Q 24.125 74.21875 28.421875 74.21875 
Q 39.75 74.21875 46.484375 68.546875 
Q 53.21875 62.890625 53.21875 53.421875 
Q 53.21875 48.921875 51.53125 44.890625 
Q 49.859375 40.875 45.40625 35.40625 
Q 44.1875 33.984375 37.640625 27.21875 
Q 31.109375 20.453125 19.1875 8.296875 
z
" id="DejaVuSans-32"/>
      </defs>
      <g transform="translate(189.467399 527.238438)scale(0.1 -0.1)">
       <use xlink:href="#DejaVuSans-32"/>
      </g>
     </g>
    </g>
    <g id="xtick_3">
     <g id="line2d_3">
      <g>
       <use style="stroke:#000000;stroke-width:0.8;" x="273.081081" xlink:href="#m0f81575aea" y="512.64"/>
      </g>
     </g>
     <g id="text_3">
      <!-- 4 -->
      <defs>
       <path d="M 37.796875 64.3125 
L 12.890625 25.390625 
L 37.796875 25.390625 
z
M 35.203125 72.90625 
L 47.609375 72.90625 
L 47.609375 25.390625 
L 58.015625 25.390625 
L 58.015625 17.1875 
L 47.609375 17.1875 
L 47.609375 0 
L 37.796875 0 
L 37.796875 17.1875 
L 4.890625 17.1875 
L 4.890625 26.703125 
z
" id="DejaVuSans-34"/>
      </defs>
      <g transform="translate(269.899831 527.238438)scale(0.1 -0.1)">
       <use xlink:href="#DejaVuSans-34"/>
      </g>
     </g>
    </g>
    <g id="xtick_4">
     <g id="line2d_4">
      <g>
       <use style="stroke:#000000;stroke-width:0.8;" x="353.513514" xlink:href="#m0f81575aea" y="512.64"/>
      </g>
     </g>
     <g id="text_4">
      <!-- 6 -->
      <defs>
       <path d="M 33.015625 40.375 
Q 26.375 40.375 22.484375 35.828125 
Q 18.609375 31.296875 18.609375 23.390625 
Q 18.609375 15.53125 22.484375 10.953125 
Q 26.375 6.390625 33.015625 6.390625 
Q 39.65625 6.390625 43.53125 10.953125 
Q 47.40625 15.53125 47.40625 23.390625 
Q 47.40625 31.296875 43.53125 35.828125 
Q 39.65625 40.375 33.015625 40.375 
z
M 52.59375 71.296875 
L 52.59375 62.3125 
Q 48.875 64.0625 45.09375 64.984375 
Q 41.3125 65.921875 37.59375 65.921875 
Q 27.828125 65.921875 22.671875 59.328125 
Q 17.53125 52.734375 16.796875 39.40625 
Q 19.671875 43.65625 24.015625 45.921875 
Q 28.375 48.1875 33.59375 48.1875 
Q 44.578125 48.1875 50.953125 41.515625 
Q 57.328125 34.859375 57.328125 23.390625 
Q 57.328125 12.15625 50.6875 5.359375 
Q 44.046875 -1.421875 33.015625 -1.421875 
Q 20.359375 -1.421875 13.671875 8.265625 
Q 6.984375 17.96875 6.984375 36.375 
Q 6.984375 53.65625 15.1875 63.9375 
Q 23.390625 74.21875 37.203125 74.21875 
Q 40.921875 74.21875 44.703125 73.484375 
Q 48.484375 72.75 52.59375 71.296875 
z
" id="DejaVuSans-36"/>
      </defs>
      <g transform="translate(350.332264 527.238438)scale(0.1 -0.1)">
       <use xlink:href="#DejaVuSans-36"/>
      </g>
     </g>
    </g>
    <g id="xtick_5">
     <g id="line2d_5">
      <g>
       <use style="stroke:#000000;stroke-width:0.8;" x="433.945946" xlink:href="#m0f81575aea" y="512.64"/>
      </g>
     </g>
     <g id="text_5">
      <!-- 8 -->
      <defs>
       <path d="M 31.78125 34.625 
Q 24.75 34.625 20.71875 30.859375 
Q 16.703125 27.09375 16.703125 20.515625 
Q 16.703125 13.921875 20.71875 10.15625 
Q 24.75 6.390625 31.78125 6.390625 
Q 38.8125 6.390625 42.859375 10.171875 
Q 46.921875 13.96875 46.921875 20.515625 
Q 46.921875 27.09375 42.890625 30.859375 
Q 38.875 34.625 31.78125 34.625 
z
M 21.921875 38.8125 
Q 15.578125 40.375 12.03125 44.71875 
Q 8.5 49.078125 8.5 55.328125 
Q 8.5 64.0625 14.71875 69.140625 
Q 20.953125 74.21875 31.78125 74.21875 
Q 42.671875 74.21875 48.875 69.140625 
Q 55.078125 64.0625 55.078125 55.328125 
Q 55.078125 49.078125 51.53125 44.71875 
Q 48 40.375 41.703125 38.8125 
Q 48.828125 37.15625 52.796875 32.3125 
Q 56.78125 27.484375 56.78125 20.515625 
Q 56.78125 9.90625 50.3125 4.234375 
Q 43.84375 -1.421875 31.78125 -1.421875 
Q 19.734375 -1.421875 13.25 4.234375 
Q 6.78125 9.90625 6.78125 20.515625 
Q 6.78125 27.484375 10.78125 32.3125 
Q 14.796875 37.15625 21.921875 38.8125 
z
M 18.3125 54.390625 
Q 18.3125 48.734375 21.84375 45.5625 
Q 25.390625 42.390625 31.78125 42.390625 
Q 38.140625 42.390625 41.71875 45.5625 
Q 45.3125 48.734375 45.3125 54.390625 
Q 45.3125 60.0625 41.71875 63.234375 
Q 38.140625 66.40625 31.78125 66.40625 
Q 25.390625 66.40625 21.84375 63.234375 
Q 18.3125 60.0625 18.3125 54.390625 
z
" id="DejaVuSans-38"/>
      </defs>
      <g transform="translate(430.764696 527.238438)scale(0.1 -0.1)">
       <use xlink:href="#DejaVuSans-38"/>
      </g>
     </g>
    </g>
    <g id="xtick_6">
     <g id="line2d_6">
      <g>
       <use style="stroke:#000000;stroke-width:0.8;" x="514.378378" xlink:href="#m0f81575aea" y="512.64"/>
      </g>
     </g>
     <g id="text_6">
      <!-- 10 -->
      <defs>
       <path d="M 12.40625 8.296875 
L 28.515625 8.296875 
L 28.515625 63.921875 
L 10.984375 60.40625 
L 10.984375 69.390625 
L 28.421875 72.90625 
L 38.28125 72.90625 
L 38.28125 8.296875 
L 54.390625 8.296875 
L 54.390625 0 
L 12.40625 0 
z
" id="DejaVuSans-31"/>
      </defs>
      <g transform="translate(508.015878 527.238438)scale(0.1 -0.1)">
       <use xlink:href="#DejaVuSans-31"/>
       <use x="63.623047" xlink:href="#DejaVuSans-30"/>
      </g>
     </g>
    </g>
   </g>
   <g id="matplotlib.axis_2">
    <g id="ytick_1">
     <g id="line2d_7">
      <defs>
       <path d="M 0 0 
L -3.5 0 
" id="m46c3e1a277" style="stroke:#000000;stroke-width:0.8;"/>
      </defs>
      <g>
       <use style="stroke:#000000;stroke-width:0.8;" x="72" xlink:href="#m46c3e1a277" y="473.863784"/>
      </g>
     </g>
     <g id="text_7">
      <!-- 0 -->
      <g transform="translate(58.6375 477.663003)scale(0.1 -0.1)">
       <use xlink:href="#DejaVuSans-30"/>
      </g>
     </g>
    </g>
    <g id="ytick_2">
     <g id="line2d_8">
      <g>
       <use style="stroke:#000000;stroke-width:0.8;" x="72" xlink:href="#m46c3e1a277" y="393.431351"/>
      </g>
     </g>
     <g id="text_8">
      <!-- 2 -->
      <g transform="translate(58.6375 397.23057)scale(0.1 -0.1)">
       <use xlink:href="#DejaVuSans-32"/>
      </g>
     </g>
    </g>
    <g id="ytick_3">
     <g id="line2d_9">
      <g>
       <use style="stroke:#000000;stroke-width:0.8;" x="72" xlink:href="#m46c3e1a277" y="312.998919"/>
      </g>
     </g>
     <g id="text_9">
      <!-- 4 -->
      <g transform="translate(58.6375 316.798138)scale(0.1 -0.1)">
       <use xlink:href="#DejaVuSans-34"/>
      </g>
     </g>
    </g>
    <g id="ytick_4">
     <g id="line2d_10">
      <g>
       <use style="stroke:#000000;stroke-width:0.8;" x="72" xlink:href="#m46c3e1a277" y="232.566486"/>
      </g>
     </g>
     <g id="text_10">
      <!-- 6 -->
      <g transform="translate(58.6375 236.365705)scale(0.1 -0.1)">
       <use xlink:href="#DejaVuSans-36"/>
      </g>
     </g>
    </g>
    <g id="ytick_5">
     <g id="line2d_11">
      <g>
       <use style="stroke:#000000;stroke-width:0.8;" x="72" xlink:href="#m46c3e1a277" y="152.134054"/>
      </g>
     </g>
     <g id="text_11">
      <!-- 8 -->
      <g transform="translate(58.6375 155.933273)scale(0.1 -0.1)">
       <use xlink:href="#DejaVuSans-38"/>
      </g>
     </g>
    </g>
    <g id="ytick_6">
     <g id="line2d_12">
      <g>
       <use style="stroke:#000000;stroke-width:0.8;" x="72" xlink:href="#m46c3e1a277" y="71.701622"/>
      </g>
     </g>
     <g id="text_12">
      <!-- 10 -->
      <g transform="translate(52.275 75.50084)scale(0.1 -0.1)">
       <use xlink:href="#DejaVuSans-31"/>
       <use x="63.623047" xlink:href="#DejaVuSans-30"/>
      </g>
     </g>
    </g>
   </g>
   <g id="line2d_13">
    <path clip-path="url(#p4819e4a949)" d="M 140.367568 389.40973 
" style="fill:none;stroke:#1f77b4;stroke-linecap:square;stroke-width:1.5;"/>
    <defs>
     <path d="M -5 5 
L 5 5 
L 5 -5 
L -5 -5 
z
" id="mbeeb7e4388" style="stroke:#8000ff;stroke-linejoin:miter;"/>
    </defs>
    <g clip-path="url(#p4819e4a949)">
     <use style="fill:#8000ff;stroke:#8000ff;stroke-linejoin:miter;" x="140.367568" xlink:href="#mbeeb7e4388" y="389.40973"/>
    </g>
   </g>
   <g id="line2d_14">
    <path clip-path="url(#p4819e4a949)" d="M 393.72973 192.35027 
" style="fill:none;stroke:#ff7f0e;stroke-linecap:square;stroke-width:1.5;"/>
    <defs>
     <path d="M 0 -5 
L -4.755283 -1.545085 
L -2.938926 4.045085 
L 2.938926 4.045085 
L 4.755283 -1.545085 
z
" id="m1067d93490" style="stroke:#8000ff;stroke-linejoin:miter;"/>
    </defs>
    <g clip-path="url(#p4819e4a949)">
     <use style="fill:#8000ff;stroke:#8000ff;stroke-linejoin:miter;" x="393.72973" xlink:href="#m1067d93490" y="192.35027"/>
    </g>
   </g>
   <g id="line2d_15">
    <path clip-path="url(#p4819e4a949)" d="M 450.032432 192.35027 
" style="fill:none;stroke:#2ca02c;stroke-linecap:square;stroke-width:1.5;"/>
    <defs>
     <path d="M -5 5 
L 5 5 
L 5 -5 
L -5 -5 
z
" id="m5036e9faca" style="stroke:#583dfd;stroke-linejoin:miter;"/>
    </defs>
    <g clip-path="url(#p4819e4a949)">
     <use style="fill:#583dfd;stroke:#583dfd;stroke-linejoin:miter;" x="450.032432" xlink:href="#m5036e9faca" y="192.35027"/>
    </g>
   </g>
   <g id="line2d_16">
    <path clip-path="url(#p4819e4a949)" d="M 224.821622 361.258378 
" style="fill:none;stroke:#d62728;stroke-linecap:square;stroke-width:1.5;"/>
    <defs>
     <path d="M 0 -5 
L -4.755283 -1.545085 
L -2.938926 4.045085 
L 2.938926 4.045085 
L 4.755283 -1.545085 
z
" id="mdd18e9763c" style="stroke:#583dfd;stroke-linejoin:miter;"/>
    </defs>
    <g clip-path="url(#p4819e4a949)">
     <use style="fill:#583dfd;stroke:#583dfd;stroke-linejoin:miter;" x="224.821622" xlink:href="#mdd18e9763c" y="361.258378"/>
    </g>
   </g>
   <g id="line2d_17">
    <path clip-path="url(#p4819e4a949)" d="M 402.175135 440.082162 
" style="fill:none;stroke:#9467bd;stroke-linecap:square;stroke-width:1.5;"/>
    <defs>
     <path d="M -5 5 
L 5 5 
L 5 -5 
L -5 -5 
z
" id="m6c9d570260" style="stroke:#3177f8;stroke-linejoin:miter;"/>
    </defs>
    <g clip-path="url(#p4819e4a949)">
     <use style="fill:#3177f8;stroke:#3177f8;stroke-linejoin:miter;" x="402.175135" xlink:href="#m6c9d570260" y="440.082162"/>
    </g>
   </g>
   <g id="line2d_18">
    <path clip-path="url(#p4819e4a949)" d="M 224.821622 192.35027 
" style="fill:none;stroke:#8c564b;stroke-linecap:square;stroke-width:1.5;"/>
    <defs>
     <path d="M 0 -5 
L -4.755283 -1.545085 
L -2.938926 4.045085 
L 2.938926 4.045085 
L 4.755283 -1.545085 
z
" id="maea78b34d5" style="stroke:#3177f8;stroke-linejoin:miter;"/>
    </defs>
    <g clip-path="url(#p4819e4a949)">
     <use style="fill:#3177f8;stroke:#3177f8;stroke-linejoin:miter;" x="224.821622" xlink:href="#maea78b34d5" y="192.35027"/>
    </g>
   </g>
   <g id="line2d_19">
    <path clip-path="url(#p4819e4a949)" d="M 224.821622 136.047568 
" style="fill:none;stroke:#e377c2;stroke-linecap:square;stroke-width:1.5;"/>
    <defs>
     <path d="M -5 5 
L 5 5 
L 5 -5 
L -5 -5 
z
" id="m05580345b3" style="stroke:#0aa9ee;stroke-linejoin:miter;"/>
    </defs>
    <g clip-path="url(#p4819e4a949)">
     <use style="fill:#0aa9ee;stroke:#0aa9ee;stroke-linejoin:miter;" x="224.821622" xlink:href="#m05580345b3" y="136.047568"/>
    </g>
   </g>
   <g id="line2d_20">
    <path clip-path="url(#p4819e4a949)" d="M 393.72973 361.258378 
" style="fill:none;stroke:#7f7f7f;stroke-linecap:square;stroke-width:1.5;"/>
    <defs>
     <path d="M 0 -5 
L -4.755283 -1.545085 
L -2.938926 4.045085 
L 2.938926 4.045085 
L 4.755283 -1.545085 
z
" id="md28eef1770" style="stroke:#0aa9ee;stroke-linejoin:miter;"/>
    </defs>
    <g clip-path="url(#p4819e4a949)">
     <use style="fill:#0aa9ee;stroke:#0aa9ee;stroke-linejoin:miter;" x="393.72973" xlink:href="#md28eef1770" y="361.258378"/>
    </g>
   </g>
   <g id="line2d_21">
    <path clip-path="url(#p4819e4a949)" d="M 450.032432 304.955676 
" style="fill:none;stroke:#bcbd22;stroke-linecap:square;stroke-width:1.5;"/>
    <defs>
     <path d="M -5 5 
L 5 5 
L 5 -5 
L -5 -5 
z
" id="mf045dd2c1f" style="stroke:#1dd2e2;stroke-linejoin:miter;"/>
    </defs>
    <g clip-path="url(#p4819e4a949)">
     <use style="fill:#1dd2e2;stroke:#1dd2e2;stroke-linejoin:miter;" x="450.032432" xlink:href="#mf045dd2c1f" y="304.955676"/>
    </g>
   </g>
   <g id="line2d_22">
    <path clip-path="url(#p4819e4a949)" d="M 196.67027 248.652973 
" style="fill:none;stroke:#17becf;stroke-linecap:square;stroke-width:1.5;"/>
    <defs>
     <path d="M 0 -5 
L -4.755283 -1.545085 
L -2.938926 4.045085 
L 2.938926 4.045085 
L 4.755283 -1.545085 
z
" id="m91bf3497c3" style="stroke:#1dd2e2;stroke-linejoin:miter;"/>
    </defs>
    <g clip-path="url(#p4819e4a949)">
     <use style="fill:#1dd2e2;stroke:#1dd2e2;stroke-linejoin:miter;" x="196.67027" xlink:href="#m91bf3497c3" y="248.652973"/>
    </g>
   </g>
   <g id="line2d_23">
    <path clip-path="url(#p4819e4a949)" d="M 140.367568 248.652973 
" style="fill:none;stroke:#1f77b4;stroke-linecap:square;stroke-width:1.5;"/>
    <defs>
     <path d="M -5 5 
L 5 5 
L 5 -5 
L -5 -5 
z
" id="m9d380903bf" style="stroke:#45eed2;stroke-linejoin:miter;"/>
    </defs>
    <g clip-path="url(#p4819e4a949)">
     <use style="fill:#45eed2;stroke:#45eed2;stroke-linejoin:miter;" x="140.367568" xlink:href="#m9d380903bf" y="248.652973"/>
    </g>
   </g>
   <g id="line2d_24">
    <path clip-path="url(#p4819e4a949)" d="M 393.72973 276.804324 
" style="fill:none;stroke:#ff7f0e;stroke-linecap:square;stroke-width:1.5;"/>
    <defs>
     <path d="M 0 -5 
L -4.755283 -1.545085 
L -2.938926 4.045085 
L 2.938926 4.045085 
L 4.755283 -1.545085 
z
" id="mcf7b080004" style="stroke:#45eed2;stroke-linejoin:miter;"/>
    </defs>
    <g clip-path="url(#p4819e4a949)">
     <use style="fill:#45eed2;stroke:#45eed2;stroke-linejoin:miter;" x="393.72973" xlink:href="#mcf7b080004" y="276.804324"/>
    </g>
   </g>
   <g id="line2d_25">
    <path clip-path="url(#p4819e4a949)" d="M 281.124324 192.35027 
" style="fill:none;stroke:#2ca02c;stroke-linecap:square;stroke-width:1.5;"/>
    <defs>
     <path d="M -5 5 
L 5 5 
L 5 -5 
L -5 -5 
z
" id="mf0593d82b6" style="stroke:#6cfdbf;stroke-linejoin:miter;"/>
    </defs>
    <g clip-path="url(#p4819e4a949)">
     <use style="fill:#6cfdbf;stroke:#6cfdbf;stroke-linejoin:miter;" x="281.124324" xlink:href="#mf0593d82b6" y="192.35027"/>
    </g>
   </g>
   <g id="line2d_26">
    <path clip-path="url(#p4819e4a949)" d="M 281.124324 333.107027 
" style="fill:none;stroke:#d62728;stroke-linecap:square;stroke-width:1.5;"/>
    <defs>
     <path d="M 0 -5 
L -4.755283 -1.545085 
L -2.938926 4.045085 
L 2.938926 4.045085 
L 4.755283 -1.545085 
z
" id="m88e426b84a" style="stroke:#6cfdbf;stroke-linejoin:miter;"/>
    </defs>
    <g clip-path="url(#p4819e4a949)">
     <use style="fill:#6cfdbf;stroke:#6cfdbf;stroke-linejoin:miter;" x="281.124324" xlink:href="#m88e426b84a" y="333.107027"/>
    </g>
   </g>
   <g id="line2d_27">
    <path clip-path="url(#p4819e4a949)" d="M 140.367568 304.955676 
" style="fill:none;stroke:#9467bd;stroke-linecap:square;stroke-width:1.5;"/>
    <defs>
     <path d="M -5 5 
L 5 5 
L 5 -5 
L -5 -5 
z
" id="mfd9fb9ea63" style="stroke:#93fda9;stroke-linejoin:miter;"/>
    </defs>
    <g clip-path="url(#p4819e4a949)">
     <use style="fill:#93fda9;stroke:#93fda9;stroke-linejoin:miter;" x="140.367568" xlink:href="#mfd9fb9ea63" y="304.955676"/>
    </g>
   </g>
   <g id="line2d_28">
    <path clip-path="url(#p4819e4a949)" d="M 309.275676 276.804324 
" style="fill:none;stroke:#8c564b;stroke-linecap:square;stroke-width:1.5;"/>
    <defs>
     <path d="M 0 -5 
L -4.755283 -1.545085 
L -2.938926 4.045085 
L 2.938926 4.045085 
L 4.755283 -1.545085 
z
" id="m5b07fec50a" style="stroke:#93fda9;stroke-linejoin:miter;"/>
    </defs>
    <g clip-path="url(#p4819e4a949)">
     <use style="fill:#93fda9;stroke:#93fda9;stroke-linejoin:miter;" x="309.275676" xlink:href="#m5b07fec50a" y="276.804324"/>
    </g>
   </g>
   <g id="line2d_29">
    <path clip-path="url(#p4819e4a949)" d="M 393.72973 220.501622 
" style="fill:none;stroke:#e377c2;stroke-linecap:square;stroke-width:1.5;"/>
    <defs>
     <path d="M -5 5 
L 5 5 
L 5 -5 
L -5 -5 
z
" id="m632d68c36c" style="stroke:#baee91;stroke-linejoin:miter;"/>
    </defs>
    <g clip-path="url(#p4819e4a949)">
     <use style="fill:#baee91;stroke:#baee91;stroke-linejoin:miter;" x="393.72973" xlink:href="#m632d68c36c" y="220.501622"/>
    </g>
   </g>
   <g id="line2d_30">
    <path clip-path="url(#p4819e4a949)" d="M 140.367568 276.804324 
" style="fill:none;stroke:#7f7f7f;stroke-linecap:square;stroke-width:1.5;"/>
    <defs>
     <path d="M 0 -5 
L -4.755283 -1.545085 
L -2.938926 4.045085 
L 2.938926 4.045085 
L 4.755283 -1.545085 
z
" id="md9d90842cb" style="stroke:#baee91;stroke-linejoin:miter;"/>
    </defs>
    <g clip-path="url(#p4819e4a949)">
     <use style="fill:#baee91;stroke:#baee91;stroke-linejoin:miter;" x="140.367568" xlink:href="#md9d90842cb" y="276.804324"/>
    </g>
   </g>
   <g id="line2d_31">
    <path clip-path="url(#p4819e4a949)" d="M 140.367568 136.047568 
" style="fill:none;stroke:#bcbd22;stroke-linecap:square;stroke-width:1.5;"/>
    <defs>
     <path d="M -5 5 
L 5 5 
L 5 -5 
L -5 -5 
z
" id="m0c96c0bc6f" style="stroke:#e2d277;stroke-linejoin:miter;"/>
    </defs>
    <g clip-path="url(#p4819e4a949)">
     <use style="fill:#e2d277;stroke:#e2d277;stroke-linejoin:miter;" x="140.367568" xlink:href="#m0c96c0bc6f" y="136.047568"/>
    </g>
   </g>
   <g id="line2d_32">
    <path clip-path="url(#p4819e4a949)" d="M 252.972973 248.652973 
" style="fill:none;stroke:#17becf;stroke-linecap:square;stroke-width:1.5;"/>
    <defs>
     <path d="M 0 -5 
L -4.755283 -1.545085 
L -2.938926 4.045085 
L 2.938926 4.045085 
L 4.755283 -1.545085 
z
" id="mc9c5816b42" style="stroke:#e2d277;stroke-linejoin:miter;"/>
    </defs>
    <g clip-path="url(#p4819e4a949)">
     <use style="fill:#e2d277;stroke:#e2d277;stroke-linejoin:miter;" x="252.972973" xlink:href="#mc9c5816b42" y="248.652973"/>
    </g>
   </g>
   <g id="line2d_33">
    <path clip-path="url(#p4819e4a949)" d="M 337.427027 164.198919 
" style="fill:none;stroke:#1f77b4;stroke-linecap:square;stroke-width:1.5;"/>
    <defs>
     <path d="M -5 5 
L 5 5 
L 5 -5 
L -5 -5 
z
" id="mf68c32af89" style="stroke:#ffa95a;stroke-linejoin:miter;"/>
    </defs>
    <g clip-path="url(#p4819e4a949)">
     <use style="fill:#ffa95a;stroke:#ffa95a;stroke-linejoin:miter;" x="337.427027" xlink:href="#mf68c32af89" y="164.198919"/>
    </g>
   </g>
   <g id="line2d_34">
    <path clip-path="url(#p4819e4a949)" d="M 168.518919 389.40973 
" style="fill:none;stroke:#ff7f0e;stroke-linecap:square;stroke-width:1.5;"/>
    <defs>
     <path d="M 0 -5 
L -4.755283 -1.545085 
L -2.938926 4.045085 
L 2.938926 4.045085 
L 4.755283 -1.545085 
z
" id="m1f9caa2d96" style="stroke:#ffa95a;stroke-linejoin:miter;"/>
    </defs>
    <g clip-path="url(#p4819e4a949)">
     <use style="fill:#ffa95a;stroke:#ffa95a;stroke-linejoin:miter;" x="168.518919" xlink:href="#m1f9caa2d96" y="389.40973"/>
    </g>
   </g>
   <g id="line2d_35">
    <path clip-path="url(#p4819e4a949)" d="M 196.67027 445.712432 
" style="fill:none;stroke:#2ca02c;stroke-linecap:square;stroke-width:1.5;"/>
    <defs>
     <path d="M -5 5 
L 5 5 
L 5 -5 
L -5 -5 
z
" id="mfcff83591f" style="stroke:#ff773d;stroke-linejoin:miter;"/>
    </defs>
    <g clip-path="url(#p4819e4a949)">
     <use style="fill:#ff773d;stroke:#ff773d;stroke-linejoin:miter;" x="196.67027" xlink:href="#mfcff83591f" y="445.712432"/>
    </g>
   </g>
   <g id="line2d_36">
    <path clip-path="url(#p4819e4a949)" d="M 393.72973 136.047568 
" style="fill:none;stroke:#d62728;stroke-linecap:square;stroke-width:1.5;"/>
    <defs>
     <path d="M 0 -5 
L -4.755283 -1.545085 
L -2.938926 4.045085 
L 2.938926 4.045085 
L 4.755283 -1.545085 
z
" id="m7e377ac63a" style="stroke:#ff773d;stroke-linejoin:miter;"/>
    </defs>
    <g clip-path="url(#p4819e4a949)">
     <use style="fill:#ff773d;stroke:#ff773d;stroke-linejoin:miter;" x="393.72973" xlink:href="#m7e377ac63a" y="136.047568"/>
    </g>
   </g>
   <g id="line2d_37">
    <path clip-path="url(#p4819e4a949)" d="M 224.821622 333.107027 
" style="fill:none;stroke:#9467bd;stroke-linecap:square;stroke-width:1.5;"/>
    <defs>
     <path d="M -5 5 
L 5 5 
L 5 -5 
L -5 -5 
z
" id="m6b8e021d03" style="stroke:#ff3d1f;stroke-linejoin:miter;"/>
    </defs>
    <g clip-path="url(#p4819e4a949)">
     <use style="fill:#ff3d1f;stroke:#ff3d1f;stroke-linejoin:miter;" x="224.821622" xlink:href="#m6b8e021d03" y="333.107027"/>
    </g>
   </g>
   <g id="line2d_38">
    <path clip-path="url(#p4819e4a949)" d="M 281.124324 164.198919 
" style="fill:none;stroke:#8c564b;stroke-linecap:square;stroke-width:1.5;"/>
    <defs>
     <path d="M 0 -5 
L -4.755283 -1.545085 
L -2.938926 4.045085 
L 2.938926 4.045085 
L 4.755283 -1.545085 
z
" id="m4ac10698e1" style="stroke:#ff3d1f;stroke-linejoin:miter;"/>
    </defs>
    <g clip-path="url(#p4819e4a949)">
     <use style="fill:#ff3d1f;stroke:#ff3d1f;stroke-linejoin:miter;" x="281.124324" xlink:href="#m4ac10698e1" y="164.198919"/>
    </g>
   </g>
   <g id="line2d_39">
    <path clip-path="url(#p4819e4a949)" d="M 281.124324 361.258378 
" style="fill:none;stroke:#e377c2;stroke-linecap:square;stroke-width:1.5;"/>
    <defs>
     <path d="M -5 5 
L 5 5 
L 5 -5 
L -5 -5 
z
" id="m8d8a46adae" style="stroke:#ff0000;stroke-linejoin:miter;"/>
    </defs>
    <g clip-path="url(#p4819e4a949)">
     <use style="fill:#ff0000;stroke:#ff0000;stroke-linejoin:miter;" x="281.124324" xlink:href="#m8d8a46adae" y="361.258378"/>
    </g>
   </g>
   <g id="line2d_40">
    <path clip-path="url(#p4819e4a949)" d="M 337.427027 276.804324 
" style="fill:none;stroke:#7f7f7f;stroke-linecap:square;stroke-width:1.5;"/>
    <defs>
     <path d="M 0 -5 
L -4.755283 -1.545085 
L -2.938926 4.045085 
L 2.938926 4.045085 
L 4.755283 -1.545085 
z
" id="m0effd3463f" style="stroke:#ff0000;stroke-linejoin:miter;"/>
    </defs>
    <g clip-path="url(#p4819e4a949)">
     <use style="fill:#ff0000;stroke:#ff0000;stroke-linejoin:miter;" x="337.427027" xlink:href="#m0effd3463f" y="276.804324"/>
    </g>
   </g>
   <g id="line2d_41"/>
   <g id="line2d_42">
    <path clip-path="url(#p4819e4a949)" d="M 92.108108 493.971892 
L 92.108108 87.788108 
" style="fill:none;stroke:#000000;stroke-linecap:square;stroke-width:4;"/>
   </g>
   <g id="line2d_43">
    <path clip-path="url(#p4819e4a949)" d="M 92.108108 87.788108 
L 498.291892 87.788108 
" style="fill:none;stroke:#000000;stroke-linecap:square;stroke-width:4;"/>
   </g>
   <g id="line2d_44">
    <path clip-path="url(#p4819e4a949)" d="M 498.291892 87.788108 
L 498.291892 493.971892 
" style="fill:none;stroke:#000000;stroke-linecap:square;stroke-width:4;"/>
   </g>
   <g id="line2d_45">
    <path clip-path="url(#p4819e4a949)" d="M 498.291892 493.971892 
L 92.108108 493.971892 
" style="fill:none;stroke:#000000;stroke-linecap:square;stroke-width:4;"/>
   </g>
   <g id="line2d_46">
    <path clip-path="url(#p4819e4a949)" d="M 140.367568 389.40973 
L 141.976216 389.369514 
L 144.509838 388.967351 
L 146.761946 388.243459 
L 149.617297 386.876108 
L 154.121514 384.060973 
L 158.464865 380.924108 
L 164.617946 376.178595 
L 177.004541 366.325622 
L 190.999784 355.105297 
L 192.930162 353.737946 
L 194.900757 352.772757 
L 197.756108 351.888 
L 200.410378 351.324973 
L 205.437405 350.560865 
L 219.553297 348.630486 
L 221.926054 348.107676 
L 226.912865 346.700108 
L 229.808432 345.654486 
L 232.181189 344.608865 
L 234.51373 343.362162 
L 239.621189 340.426378 
L 242.476541 339.501405 
L 245.693838 339.018811 
L 253.174054 338.214486 
L 260.573838 337.128649 
L 265.198703 336.083027 
L 265.279135 336.163459 
L 265.681297 336.927568 
L 266.163892 339.863351 
L 265.882378 341.994811 
L 265.319351 344.12627 
L 264.796541 346.941405 
L 264.957405 349.716324 
L 264.756324 352.008649 
L 264.716108 354.984649 
L 265.279135 356.834595 
L 266.284541 358.362811 
L 274.207135 367.532108 
L 275.936432 369.060324 
L 278.188541 370.467892 
L 280.521081 371.714595 
L 282.893838 372.72 
L 284.784 373.122162 
L 286.473081 373.122162 
L 288.282811 372.438486 
L 290.454486 370.749405 
L 292.344649 368.859243 
L 293.551135 367.371243 
L 294.275027 366.285405 
L 294.234811 366.365838 
L 294.073946 364.95827 
L 293.068541 362.746378 
L 291.097946 360.735568 
L 288.805622 359.609514 
L 283.61773 358.724757 
L 278.992865 357.075892 
L 273.563676 355.507459 
L 271.030054 354.54227 
L 268.617081 353.335784 
L 265.842162 351.646703 
L 263.670486 349.997838 
L 261.458595 347.987027 
L 259.80973 346.177297 
L 258.32173 344.287135 
L 256.954378 342.276324 
L 254.662054 338.294919 
L 252.651243 333.871135 
L 251.887135 331.820108 
L 251.082811 329.286486 
L 250.439351 326.632216 
L 250.157838 323.656216 
L 250.117622 321.283459 
L 250.198054 318.307459 
L 250.640432 312.958703 
L 251.404541 307.609946 
L 252.852324 299.566703 
L 252.651243 297.274378 
L 251.846919 294.821189 
L 249.273081 289.794162 
L 248.388324 286.938811 
L 248.026378 284.968216 
L 246.860108 281.590054 
L 246.739459 279.056432 
L 247.543784 276.402162 
L 249.112216 274.109838 
L 251.404541 272.501189 
L 253.777297 271.696865 
L 259.005405 271.294703 
L 261.539027 270.691459 
L 264.233514 269.686054 
L 266.60627 268.399135 
L 268.858378 267.474162 
L 276.217946 265.664432 
L 278.872216 264.538378 
L 280.923243 263.251459 
L 283.014486 260.918919 
L 284.623135 258.385297 
L 286.231784 256.173405 
L 288.121946 254.162595 
L 294.395676 248.411676 
L 298.176 244.188973 
L 301.393297 240.931459 
L 306.902919 235.783784 
L 309.235459 233.893622 
L 311.004973 232.646919 
L 315.629838 229.912216 
L 319.892757 227.660108 
L 326.649081 224.281946 
L 336.059676 219.737514 
L 358.098162 209.281297 
L 376.959568 200.313081 
L 390.793946 193.757838 
L 390.793946 193.757838 
" style="fill:none;stroke:#8000ff;stroke-linecap:square;stroke-width:1.5;"/>
   </g>
   <g id="line2d_47">
    <path clip-path="url(#p4819e4a949)" d="M 450.032432 192.35027 
L 450.233514 192.390486 
L 450.354162 192.551351 
L 450.515027 193.194811 
L 450.515027 194.48173 
L 449.791135 196.774054 
L 448.624865 198.865297 
L 447.136865 200.795676 
L 445.488 202.565189 
L 441.868541 205.782486 
L 437.444757 209.281297 
L 429.683027 214.992 
L 392.402595 241.776 
L 390.834162 243.505297 
L 389.104865 246.159568 
L 388.139676 248.04973 
L 387.174486 250.221405 
L 386.531027 252.352865 
L 386.28973 254.725622 
L 386.571243 256.937514 
L 386.611459 259.028757 
L 386.329946 260.918919 
L 385.887568 262.246054 
L 385.404973 263.050378 
L 384.761514 263.814486 
L 381.705081 266.629622 
L 374.868324 273.506595 
L 372.736865 275.115243 
L 371.731459 275.758703 
L 370.243459 276.844541 
L 368.634811 278.774919 
L 367.750054 281.187892 
L 367.750054 283.962811 
L 368.594595 286.375784 
L 369.92173 288.306162 
L 371.731459 290.518054 
L 373.299892 292.931027 
L 374.506378 295.947243 
L 375.833514 298.480865 
L 377.04 301.215568 
L 379.372541 308.333838 
L 380.458378 310.988108 
L 382.750703 315.291243 
L 383.957189 318.025946 
L 384.80173 320.559568 
L 385.445189 322.932324 
L 385.968 325.586595 
L 386.329946 328.522378 
L 386.490811 331.779892 
L 386.410378 334.997189 
L 386.088649 337.530811 
L 385.364757 339.903568 
L 384.118054 342.598054 
L 380.619243 348.952216 
L 378.608432 354.180324 
L 377.723676 356.191135 
L 376.074811 358.724757 
L 374.224865 360.695351 
L 372.616216 362.143135 
L 370.283676 363.993081 
L 366.463135 366.566919 
L 361.83827 369.301622 
L 356.851459 371.875459 
L 353.875459 373.081946 
L 351.744 373.604757 
L 349.049514 373.88627 
L 346.314811 374.006919 
L 341.207351 373.846054 
L 336.140108 373.403676 
L 321.219892 371.513514 
L 293.229405 368.497297 
L 290.856649 368.376649 
L 288.242595 368.698378 
L 286.191568 369.180973 
L 280.842811 370.870054 
L 275.695135 372.478703 
L 273.241946 372.800432 
L 270.265946 372.840649 
L 268.09427 372.72 
L 263.027027 371.955892 
L 258.32173 370.91027 
L 249.755676 368.658162 
L 241.993946 366.44627 
L 227.636757 362.143135 
L 227.636757 362.143135 
" style="fill:none;stroke:#583dfd;stroke-linecap:square;stroke-width:1.5;"/>
   </g>
   <g id="line2d_48">
    <path clip-path="url(#p4819e4a949)" d="M 402.175135 440.082162 
L 402.01427 440.122378 
L 401.893622 440.202811 
L 402.054486 439.881081 
L 402.295784 438.594162 
L 402.01427 437.186595 
L 401.049081 434.934486 
L 399.923027 432.883459 
L 397.349189 428.821622 
L 392.925405 422.427243 
L 376.396541 399.664865 
L 352.025514 366.325622 
L 350.135351 364.153946 
L 348.365838 362.746378 
L 346.11373 360.775784 
L 344.223568 358.845405 
L 341.086703 355.145514 
L 339.51827 352.853189 
L 338.231351 350.239135 
L 332.882595 340.667676 
L 330.429405 335.560216 
L 329.544649 332.946162 
L 329.504432 330.452757 
L 330.107676 328.039784 
L 331.23373 325.827892 
L 332.882595 323.052973 
L 333.526054 320.841081 
L 333.606486 319.795459 
L 333.686919 319.996541 
L 332.359784 319.152 
L 326.568649 316.980324 
L 325.563243 316.135784 
L 325.161081 315.532541 
L 323.472 313.803243 
L 319.289514 311.148973 
L 317.399351 309.580541 
L 313.980973 306.282811 
L 312.332108 304.272 
L 311.085405 301.215568 
L 309.356108 290.799568 
L 309.195243 288.064865 
L 308.069189 282.27373 
L 308.27027 279.860757 
L 308.752865 277.729297 
L 309.999568 274.713081 
L 311.447351 272.662054 
L 312.573405 270.611027 
L 319.731892 252.714811 
L 320.656865 250.945297 
L 321.501405 249.859459 
L 322.547027 248.773622 
L 326.086054 245.395459 
L 327.855568 243.062919 
L 329.021838 241.132541 
L 331.153297 234.295784 
L 331.515243 232.848 
L 331.555459 232.204541 
L 331.153297 230.957838 
L 330.147892 229.389405 
L 328.539243 227.740541 
L 326.649081 226.292757 
L 325.080649 225.367784 
L 322.627459 224.764541 
L 320.335135 224.684108 
L 317.680865 224.925405 
L 304.168216 227.016649 
L 301.232432 227.298162 
L 298.457514 227.378595 
L 296.004324 227.177514 
L 293.631568 226.654703 
L 291.258811 226.011243 
L 288.966486 225.206919 
L 286.473081 224.201514 
L 284.502486 223.196108 
L 282.732973 221.909189 
L 280.963459 220.179892 
L 279.354811 218.370162 
L 276.17773 214.388757 
L 274.890811 212.498595 
L 273.322378 209.281297 
L 271.271351 205.058595 
L 270.748541 204.576 
L 268.979027 203.731459 
L 266.485622 203.369514 
L 264.233514 203.530378 
L 258.804324 204.616216 
L 256.150054 205.139027 
L 253.495784 205.500973 
L 250.761081 205.460757 
L 248.589405 205.098811 
L 245.452541 204.25427 
L 243.200432 203.449946 
L 240.707027 202.364108 
L 235.921297 199.870703 
L 231.53773 197.256649 
L 226.832432 194.119784 
L 226.832432 194.119784 
" style="fill:none;stroke:#3177f8;stroke-linecap:square;stroke-width:1.5;"/>
   </g>
   <g id="line2d_49">
    <path clip-path="url(#p4819e4a949)" d="M 224.821622 136.047568 
L 225.625946 136.087784 
L 227.395459 136.409514 
L 229.728 137.334486 
L 232.060541 138.742054 
L 234.192 140.431135 
L 236.122378 142.321297 
L 237.771243 144.090811 
L 239.138595 145.739676 
L 240.345081 147.187459 
L 241.993946 149.318919 
L 243.642811 151.450378 
L 245.090595 153.380757 
L 246.659027 155.552432 
L 248.227459 157.724108 
L 249.795892 159.895784 
L 251.364324 162.067459 
L 252.771892 164.038054 
L 254.340324 166.20973 
L 255.908757 168.381405 
L 257.477189 170.553081 
L 258.723892 172.322595 
L 260.292324 174.49427 
L 261.699892 176.464865 
L 263.228108 178.636541 
L 264.957405 181.049514 
L 266.364973 182.979892 
L 267.772541 184.950486 
L 269.220324 186.760216 
L 270.788757 188.127568 
L 272.316973 189.132973 
L 274.408216 190.178595 
L 277.183135 190.942703 
L 279.797189 191.304649 
L 282.411243 191.586162 
L 285.10573 192.028541 
L 287.43827 192.591568 
L 290.092541 193.114378 
L 292.746811 193.315459 
L 295.360865 193.275243 
L 298.417297 192.99373 
L 301.152 192.953514 
L 303.645405 193.235027 
L 306.299676 193.999135 
L 308.793081 195.125189 
L 311.407135 196.613189 
L 313.820108 198.262054 
L 316.233081 199.991351 
L 318.646054 201.720649 
L 320.737297 203.570595 
L 322.466595 205.983568 
L 323.914378 208.597622 
L 325.523027 211.251892 
L 327.574054 213.705081 
L 329.142486 215.595243 
L 330.550054 217.565838 
L 332.07827 220.099459 
L 333.365189 222.472216 
L 334.370595 224.724324 
L 335.134703 226.936216 
L 336.54227 229.067676 
L 338.271568 230.676324 
L 340.362811 232.325189 
L 342.655135 234.175135 
L 344.826811 236.226162 
L 346.395243 238.076108 
L 348.084324 240.127135 
L 349.894054 242.057514 
L 351.985297 243.58573 
L 354.478703 245.07373 
L 357.092757 246.441081 
L 359.867676 248.04973 
L 362.401297 249.53773 
L 364.572973 250.623568 
L 367.187027 251.950703 
L 369.841297 253.318054 
L 372.053189 254.604973 
L 373.782486 255.932108 
L 375.87373 257.661405 
L 377.884541 259.430919 
L 380.056216 261.44173 
L 381.664865 263.211243 
L 382.911568 265.020973 
L 383.997405 267.192649 
L 384.962595 269.766486 
L 385.606054 272.099027 
L 386.048432 274.230486 
L 386.531027 276.884757 
L 386.892973 279.257514 
L 387.254919 282.193297 
L 387.536432 284.60627 
L 387.77773 287.260541 
L 388.099459 290.477838 
L 388.340757 293.132108 
L 388.541838 295.826595 
L 388.783135 298.480865 
L 388.984216 300.893838 
L 389.185297 303.306811 
L 389.346162 305.719784 
L 389.547243 308.132757 
L 389.788541 311.309838 
L 390.029838 314.004324 
L 390.190703 316.135784 
L 390.391784 318.548757 
L 390.633081 321.766054 
L 390.793946 323.897514 
L 390.995027 326.27027 
L 391.236324 329.487568 
L 391.397189 331.37773 
L 391.59827 334.313514 
L 391.839568 336.967784 
L 392.000432 339.099243 
L 392.201514 341.79373 
L 392.362378 343.925189 
L 392.563459 346.338162 
L 392.764541 348.751135 
L 392.965622 351.405405 
L 393.206919 354.622703 
L 393.408 357.035676 
" style="fill:none;stroke:#0aa9ee;stroke-linecap:square;stroke-width:1.5;"/>
   </g>
   <g id="line2d_50">
    <path clip-path="url(#p4819e4a949)" d="M 450.032432 304.955676 
L 449.831351 305.036108 
L 449.710703 305.156757 
L 449.670486 305.277405 
L 449.63027 304.875243 
L 449.268324 304.070919 
L 448.504216 303.226378 
L 446.774919 302.180757 
L 444.402162 301.094919 
L 442.19027 300.290595 
L 437.082811 298.802595 
L 430.044973 297.15373 
L 413.797622 293.654919 
L 401.692541 291.161514 
L 386.450595 287.944216 
L 383.957189 286.938811 
L 381.946378 285.611676 
L 380.096432 284.083459 
L 380.217081 284.123676 
L 379.573622 284.163892 
L 377.884541 284.887784 
L 375.431351 286.536649 
L 372.89773 287.944216 
L 370.203243 289.673514 
L 368.031568 291.523459 
L 362.803459 298.279784 
L 360.672 300.692757 
L 358.661189 302.502486 
L 356.167784 303.789405 
L 353.55373 304.995892 
L 351.784216 306.162162 
L 349.853838 307.931676 
L 348.486486 310.666378 
L 348.164757 312.677189 
L 348.365838 314.527135 
L 348.325622 314.486919 
L 349.049514 315.090162 
L 351.180973 316.457514 
L 355.122162 319.634595 
L 355.484108 320.076973 
L 355.685189 320.921514 
L 355.564541 323.776865 
L 355.001514 325.948541 
L 353.795027 327.959351 
L 351.904865 329.809297 
L 349.532108 331.659243 
L 345.148541 334.514595 
L 343.861622 335.721081 
L 342.614919 337.410162 
L 342.49427 337.450378 
L 341.931243 337.490595 
L 341.167135 337.32973 
L 338.67373 336.967784 
L 337.065081 337.048216 
L 334.973838 338.013405 
L 332.842378 339.581838 
L 330.791351 341.230703 
L 328.539243 342.799135 
L 326.407784 344.005622 
L 324.195892 345.011027 
L 322.185081 345.775135 
L 319.530811 346.539243 
L 317.19827 346.780541 
L 316.072216 346.659892 
L 315.428757 346.378378 
L 313.619027 345.212108 
L 311.849514 343.482811 
L 310.522378 341.753514 
L 309.476757 340.144865 
L 308.149622 337.450378 
L 307.385514 335.117838 
L 306.179027 330.452757 
L 305.696432 328.240865 
L 305.616 325.063784 
L 305.857297 320.519351 
L 305.857297 317.865081 
L 305.656216 315.210811 
L 305.254054 312.315243 
L 304.530162 309.660973 
L 303.082378 307.56973 
L 301.031351 306.001297 
L 299.221622 305.277405 
L 299.34227 305.277405 
L 297.653189 305.880649 
L 292.384865 306.644757 
L 290.172973 306.282811 
L 288.001297 305.116541 
L 287.961081 304.995892 
L 287.961081 304.070919 
L 288.845838 302.381838 
L 290.534919 300.652541 
L 291.741405 298.681946 
L 292.344649 295.66573 
L 292.183784 293.212541 
L 292.505514 290.719135 
L 293.551135 288.426811 
L 295.360865 286.255135 
L 296.768432 284.364973 
L 297.331459 283.11827 
L 297.331459 283.238919 
L 297.612973 283.480216 
L 296.124973 283.480216 
L 293.712 284.204108 
L 291.982703 285.330162 
L 289.931676 287.340973 
L 287.880649 288.748541 
L 285.065514 289.914811 
L 282.572108 290.437622 
L 279.797189 290.196324 
L 277.705946 289.472432 
L 275.292973 288.22573 
L 271.351784 285.611676 
L 269.501838 284.525838 
L 267.129081 283.319351 
L 264.876973 282.675892 
L 262.544432 282.434595 
L 260.131459 282.394378 
L 248.388324 282.957405 
L 242.999351 282.957405 
L 238.696216 282.756324 
L 233.347459 282.153081 
L 230.411676 281.710703 
L 228.320432 281.268324 
L 225.666162 280.544432 
L 223.212973 279.378162 
L 220.960865 277.890162 
L 219.231568 276.563027 
L 217.622919 275.115243 
L 215.692541 273.225081 
L 213.68173 271.053405 
L 208.735135 265.061189 
L 202.702703 257.138595 
L 198.319135 251.065946 
L 198.319135 251.065946 
" style="fill:none;stroke:#1dd2e2;stroke-linecap:square;stroke-width:1.5;"/>
   </g>
   <g id="line2d_51">
    <path clip-path="url(#p4819e4a949)" d="M 140.367568 248.652973 
L 144.067459 248.693189 
L 151.306378 249.216 
L 158.263784 249.899676 
L 170.52973 251.226811 
L 188.627027 253.318054 
L 196.911568 254.243027 
L 207.08627 255.369081 
L 209.378595 255.087568 
L 211.711135 254.041946 
L 213.802378 252.553946 
L 215.692541 251.387676 
L 217.301189 250.784432 
L 218.668541 250.623568 
L 220.236973 250.663784 
L 222.690162 251.065946 
L 225.183568 251.910486 
L 227.998703 253.277838 
L 227.797622 253.277838 
L 227.556324 253.559351 
L 227.556324 253.68 
L 227.113946 252.393081 
L 226.028108 250.663784 
L 224.09773 248.974703 
L 222.368432 248.130162 
L 219.794595 246.038919 
L 217.059892 242.057514 
L 215.330595 239.684757 
L 213.239351 237.754378 
L 211.791568 235.703351 
L 210.866595 233.16973 
L 210.263351 230.555676 
L 209.660108 227.378595 
L 209.298162 224.684108 
L 209.137297 222.592865 
L 209.378595 221.26573 
L 210.384 219.174486 
L 212.19373 216.841946 
L 216.416432 213.101838 
L 218.185946 211.091027 
L 219.754378 208.597622 
L 222.288 204.173838 
L 226.631351 197.377297 
L 228.280216 195.406703 
L 229.768216 194.280649 
L 231.819243 193.637189 
L 234.795243 193.637189 
L 237.208216 194.361081 
L 239.580973 195.648 
L 242.878703 197.055568 
L 243.12 197.538162 
L 244.28627 199.227243 
L 245.653622 200.43373 
L 247.945946 201.841297 
L 248.710054 202.846703 
L 250.720865 204.455351 
L 253.495784 205.782486 
L 255.989189 207.391135 
L 258.201081 208.074811 
L 261.257514 207.913946 
L 263.469405 207.109622 
L 266.686703 206.064 
L 269.622486 205.621622 
L 272.196324 205.018378 
L 277.826595 203.289081 
L 280.078703 202.484757 
L 282.411243 201.27827 
L 286.754595 198.583784 
L 288.684973 197.578378 
L 291.258811 196.572973 
L 295.964108 195.366486 
L 298.377081 195.084973 
L 303.484541 194.964324 
L 305.656216 195.044757 
L 308.230054 194.964324 
L 311.045189 194.361081 
L 313.980973 193.436108 
L 315.629838 193.074162 
L 317.238486 192.873081 
L 319.812324 192.832865 
L 322.386162 193.033946 
L 325.040432 193.395892 
L 327.694703 193.958919 
L 330.308757 194.642595 
L 332.359784 195.32627 
L 334.772757 196.653405 
L 336.944432 198.262054 
L 338.955243 200.071784 
L 340.805189 202.042378 
L 344.223568 206.184649 
L 347.320216 210.286703 
L 352.628757 217.686486 
L 354.156973 219.858162 
L 355.443892 221.989622 
L 356.368865 224.24173 
L 357.092757 226.654703 
L 357.736216 229.268757 
L 359.264432 237.151135 
L 360.068757 239.644541 
L 361.235027 242.057514 
L 362.642595 244.309622 
L 366.020757 248.773622 
L 369.398919 252.553946 
L 373.259676 256.656 
L 387.898378 271.174054 
L 391.759135 274.914162 
L 391.759135 274.914162 
" style="fill:none;stroke:#45eed2;stroke-linecap:square;stroke-width:1.5;"/>
   </g>
   <g id="line2d_52">
    <path clip-path="url(#p4819e4a949)" d="M 281.124324 192.35027 
L 281.405838 192.390486 
L 282.12973 192.672 
L 282.853622 193.194811 
L 283.979676 194.642595 
L 284.944865 197.015351 
L 285.588324 199.870703 
L 285.869838 202.002162 
L 286.111135 204.696649 
L 286.191568 206.586811 
L 286.231784 209.281297 
L 286.231784 211.69427 
L 286.191568 213.82573 
L 286.151351 216.238703 
L 286.070919 218.933189 
L 285.990486 221.064649 
L 285.910054 223.759135 
L 285.789405 226.172108 
L 285.708973 228.866595 
L 285.588324 231.520865 
L 285.467676 234.215351 
L 285.347027 237.151135 
L 285.226378 239.845622 
L 285.10573 242.499892 
L 285.025297 244.912865 
L 284.904649 247.084541 
L 284.824216 249.457297 
L 284.663351 252.433297 
L 284.582919 254.84627 
L 284.542703 257.299459 
L 285.025297 259.873297 
L 285.668757 261.843892 
L 286.633946 264.337297 
L 287.558919 266.549189 
L 288.845838 269.484973 
L 289.730595 271.737081 
L 290.615351 274.270703 
L 291.138162 276.924973 
L 291.299027 279.378162 
L 291.299027 282.072649 
L 291.05773 285.008432 
L 290.776216 287.421405 
L 290.41427 289.834378 
L 289.931676 292.729946 
L 289.489297 295.102703 
L 288.966486 297.756973 
L 288.524108 299.767784 
L 288.242595 301.255784 
L 288.202378 303.467676 
L 288.403459 306.363243 
L 288.805622 309.017514 
L 289.127351 311.108757 
L 289.449081 313.240216 
L 289.811027 316.176 
L 289.971892 318.267243 
L 290.052324 319.755243 
L 290.092541 320.599784 
L 290.052324 320.841081 
L 289.690378 321.645405 
L 289.087135 322.288865 
L 288.92627 322.409514 
L 288.363243 322.570378 
L 287.800216 322.691027 
L 287.156757 322.851892 
L 286.553514 323.012757 
L 285.829622 323.29427 
L 285.065514 323.736649 
L 284.180757 324.420324 
L 283.416649 325.184432 
L 282.692757 326.149622 
L 282.089514 327.074595 
L 281.48627 328.361514 
L 281.084108 329.447351 
" style="fill:none;stroke:#6cfdbf;stroke-linecap:square;stroke-width:1.5;"/>
   </g>
   <g id="line2d_53">
    <path clip-path="url(#p4819e4a949)" d="M 140.367568 304.955676 
L 142.177297 304.955676 
L 145.113081 304.794811 
L 147.485838 304.59373 
L 149.898811 304.312216 
L 152.794378 303.910054 
L 155.448649 303.548108 
L 157.580108 303.186162 
L 160.234378 302.784 
L 162.607135 302.381838 
L 164.698378 302.019892 
L 167.071135 301.61773 
L 169.725405 301.175351 
L 172.098162 300.773189 
L 174.470919 300.330811 
L 177.406703 299.848216 
L 180.020757 299.365622 
L 182.675027 298.923243 
L 185.329297 298.440649 
L 187.702054 298.038486 
L 190.074811 297.636324 
L 192.729081 297.15373 
L 195.624649 296.671135 
L 197.715892 296.268973 
L 200.370162 295.826595 
L 202.742919 295.424432 
L 204.834162 295.02227 
L 206.040649 294.901622 
L 207.971027 295.02227 
L 210.102486 295.66573 
L 212.475243 296.872216 
L 214.566486 297.837405 
L 216.577297 298.400432 
L 218.387027 298.681946 
L 221.001081 298.802595 
L 223.655351 298.681946 
L 226.550919 298.360216 
L 228.923676 297.958054 
L 231.819243 297.395027 
L 234.956108 296.671135 
L 237.087568 296.268973 
L 239.540757 296.148324 
L 242.275459 296.389622 
L 244.92973 296.751568 
L 247.302486 297.15373 
L 249.916541 297.636324 
L 251.525189 297.917838 
L 252.771892 297.877622 
L 254.541405 297.274378 
L 256.19027 296.268973 
L 257.959784 295.062486 
L 259.930378 293.936432 
L 261.699892 292.810378 
L 263.791135 291.241946 
L 265.641081 289.71373 
L 267.611676 287.944216 
L 269.381189 286.295351 
L 270.828973 284.928 
L 271.71373 284.163892 
L 272.397405 283.560649 
L 273.040865 283.078054 
L 273.563676 282.756324 
L 274.247351 282.354162 
L 274.971243 281.992216 
L 275.292973 281.871568 
L 275.252757 281.871568 
L 275.252757 281.911784 
L 275.212541 281.911784 
L 275.453838 281.750919 
L 276.338595 281.228108 
L 276.861405 281.027027 
L 277.02227 280.986811 
L 277.02227 280.986811 
L 277.02227 280.986811 
L 277.02227 280.986811 
L 277.02227 280.986811 
L 277.02227 280.986811 
L 277.02227 280.986811 
L 277.02227 280.986811 
L 277.02227 280.986811 
L 277.02227 280.986811 
L 277.02227 280.986811 
L 277.02227 280.986811 
L 277.02227 280.986811 
L 277.02227 280.986811 
L 277.02227 280.986811 
L 277.02227 280.986811 
L 277.02227 280.986811 
L 276.982054 280.986811 
L 277.625514 280.986811 
L 278.832 281.348757 
L 280.078703 281.992216 
L 281.446054 282.957405 
L 282.732973 284.043243 
L 283.939459 285.169297 
L 284.824216 286.054054 
L 285.628541 286.697514 
L 286.714378 287.340973 
L 288.202378 287.743135 
L 290.575135 287.823568 
L 293.148973 287.381189 
L 295.602162 286.617081 
L 298.256432 285.491027 
L 300.106378 284.445405 
L 302.076973 282.917189 
L 303.766054 280.665081 
L 304.731243 278.774919 
L 305.656216 276.884757 
" style="fill:none;stroke:#93fda9;stroke-linecap:square;stroke-width:1.5;"/>
   </g>
   <g id="line2d_54">
    <path clip-path="url(#p4819e4a949)" d="M 393.72973 220.501622 
L 393.930811 220.582054 
L 394.091676 220.783135 
L 394.091676 221.346162 
L 393.810162 222.230919 
L 393.08627 223.356973 
L 391.759135 224.523243 
L 389.708108 225.769946 
L 387.496216 226.775351 
L 384.962595 227.700324 
L 379.774703 229.148108 
L 372.978162 230.716541 
L 354.076541 234.577297 
L 349.009297 235.622919 
L 346.797405 236.427243 
L 344.464865 237.63373 
L 341.971459 238.719568 
L 337.306378 240.086919 
L 334.410811 240.649946 
L 329.10227 240.891243 
L 322.788324 241.212973 
L 320.254703 241.816216 
L 315.026595 244.028108 
L 311.970162 244.470486 
L 308.712649 244.068324 
L 305.736649 244.028108 
L 302.760649 243.424865 
L 300.025946 242.178162 
L 298.015135 240.730378 
L 296.124973 237.955459 
L 295.360865 234.738162 
L 295.360865 231.762162 
L 294.838054 229.107892 
L 293.430486 226.735135 
L 291.500108 224.844973 
L 289.56973 222.472216 
L 288.363243 219.737514 
L 287.357838 217.123459 
L 285.749189 214.509405 
L 283.657946 210.528 
L 281.687351 208.115027 
L 277.705946 204.777081 
L 276.016865 203.088 
L 272.397405 199.951135 
L 268.054054 196.331676 
L 260.65427 191.666595 
L 258.361946 189.897081 
L 257.034811 188.127568 
L 255.948973 185.634162 
L 254.380541 183.301622 
L 252.691459 182.135351 
L 252.691459 182.135351 
L 250.439351 180.928865 
L 248.428541 179.078919 
L 246.739459 176.947459 
L 245.130811 175.258378 
L 242.878703 173.488865 
L 239.379892 171.236757 
L 236.283243 169.708541 
L 233.830054 168.622703 
L 227.596541 165.606486 
L 225.907459 164.842378 
L 224.781405 164.4 
L 224.700973 164.239135 
L 224.700973 164.239135 
L 224.540108 163.635892 
L 224.660757 163.796757 
L 223.735784 163.314162 
L 222.891243 163.032649 
L 221.322811 162.710919 
L 219.593514 162.509838 
L 217.984865 162.550054 
L 215.974054 162.791351 
L 213.641514 163.23373 
L 211.349189 163.836973 
L 209.056865 164.560865 
L 207.08627 165.324973 
L 204.954811 166.330378 
L 202.823351 167.858595 
L 200.732108 169.909622 
L 199.043027 171.920432 
L 195.745297 176.464865 
L 192.84973 180.969081 
L 190.316108 185.352649 
L 161.481081 238.317405 
L 145.716324 267.031784 
L 142.137081 273.587027 
L 142.137081 273.587027 
" style="fill:none;stroke:#baee91;stroke-linecap:square;stroke-width:1.5;"/>
   </g>
   <g id="line2d_55">
    <path clip-path="url(#p4819e4a949)" d="M 140.367568 136.047568 
L 141.372973 136.047568 
L 143.74573 136.409514 
L 145.756541 137.133405 
L 147.807568 138.138811 
L 149.858595 139.465946 
L 152.231351 141.235459 
L 154.483459 143.165838 
L 156.092108 144.653838 
L 157.821405 146.342919 
L 159.711568 148.233081 
L 161.762595 150.364541 
L 163.451676 152.093838 
L 165.462486 154.225297 
L 167.312432 156.195892 
L 168.961297 157.965405 
L 170.771027 159.895784 
L 172.620973 161.866378 
L 174.430703 163.836973 
L 176.079568 165.606486 
L 177.728432 167.376 
L 179.337081 169.145514 
L 181.187027 171.116108 
L 182.996757 173.086703 
L 185.007568 175.258378 
L 186.817297 177.188757 
L 188.828108 179.360432 
L 190.838919 181.532108 
L 192.84973 183.703784 
L 194.096432 185.071135 
L 195.946378 187.04173 
L 197.756108 189.012324 
L 199.766919 191.184 
L 201.576649 193.154595 
L 203.386378 195.125189 
L 205.236324 197.095784 
L 206.684108 198.664216 
L 208.493838 200.634811 
L 210.142703 202.404324 
L 211.952432 204.334703 
L 213.802378 206.345514 
L 215.612108 208.275892 
L 217.260973 210.045405 
L 219.070703 212.016 
L 221.081514 214.187676 
L 222.288 215.595243 
L 223.092324 216.681081 
L 224.741189 218.28973 
L 226.953081 219.536432 
L 229.607351 220.220108 
L 231.899676 220.541838 
L 234.795243 220.62227 
L 237.48973 220.863568 
L 239.580973 221.185297 
L 242.79827 221.507027 
L 245.211243 221.667892 
L 247.624216 221.949405 
L 250.519784 222.472216 
L 252.007784 222.874378 
L 253.334919 223.759135 
L 255.104432 225.810162 
L 256.471784 227.861189 
L 257.758703 229.912216 
L 259.246703 232.124108 
L 260.614054 234.094703 
L 261.619459 235.542486 
L 262.262919 236.588108 
L 262.866162 238.196757 
L 263.027027 239.483676 
L 263.147676 240.690162 
L 263.147676 241.132541 
L 263.147676 241.172757 
L 263.147676 241.172757 
L 263.107459 241.977081 
L 263.067243 243.706378 
L 263.147676 245.033514 
L 263.147676 245.194378 
L 262.866162 245.837838 
L 262.021622 246.722595 
L 260.493405 247.567135 
L 258.120649 248.04973 
L 255.184865 248.250811 
" style="fill:none;stroke:#e2d277;stroke-linecap:square;stroke-width:1.5;"/>
   </g>
   <g id="line2d_56">
    <path clip-path="url(#p4819e4a949)" d="M 337.427027 164.198919 
L 337.587892 164.239135 
L 337.708541 164.319568 
L 338.070486 164.882595 
L 338.311784 166.089081 
L 338.03027 167.737946 
L 337.065081 169.788973 
L 335.577081 172.322595 
L 332.520649 176.706162 
L 328.217514 182.537514 
L 318.927568 194.682811 
L 306.219243 210.930162 
L 304.489946 212.33773 
L 302.157405 213.664865 
L 300.307459 214.549622 
L 298.980324 215.635459 
L 297.934703 217.163676 
L 297.291243 219.254919 
L 297.251027 221.587459 
L 297.814054 224.322162 
L 298.658595 227.338378 
L 298.537946 230.233946 
L 297.411892 233.008865 
L 295.642378 235.140324 
L 293.752216 236.387027 
L 288.604541 238.357622 
L 286.231784 239.523892 
L 281.606919 242.218378 
L 279.193946 243.827027 
L 277.303784 245.757405 
L 276.419027 246.883459 
L 276.459243 246.762811 
L 276.378811 246.521514 
L 277.142919 247.164973 
L 279.193946 248.130162 
L 281.968865 248.652973 
L 284.261189 249.698595 
L 286.633946 252.071351 
L 287.76 253.961514 
L 288.202378 254.403892 
L 288.966486 255.690811 
L 289.770811 257.862486 
L 289.851243 259.270054 
L 289.207784 261.683027 
L 287.277405 264.41773 
L 284.46227 266.187243 
L 283.014486 266.549189 
L 284.140541 266.589405 
L 284.140541 266.549189 
L 284.301405 266.267676 
L 284.100324 265.945946 
L 283.859027 265.90573 
L 285.387243 265.181838 
L 287.558919 263.613405 
L 289.770811 262.28627 
L 291.942486 260.275459 
L 293.269622 257.540757 
L 293.712 254.926703 
L 294.958703 252.151784 
L 296.446703 250.422486 
L 298.49773 248.291027 
L 300.267243 246.280216 
L 301.715027 244.390054 
L 303.122595 242.137946 
L 303.766054 240.851027 
L 304.007351 239.724973 
L 303.766054 239.081514 
L 302.921514 238.236973 
L 301.353081 237.472865 
L 299.141189 237.191351 
L 297.130378 237.513081 
L 294.435892 238.920649 
L 292.666378 240.649946 
L 290.896865 242.540108 
L 289.248 243.947676 
L 287.357838 245.717189 
L 284.422054 249.819243 
L 283.175351 251.830054 
L 281.848216 254.444108 
L 279.917838 259.028757 
L 279.234162 261.642811 
L 278.389622 263.935135 
L 275.976649 268.720865 
L 274.971243 271.053405 
L 274.528865 273.868541 
L 274.609297 279.257514 
L 274.770162 281.911784 
L 275.172324 284.847568 
L 275.212541 286.818162 
L 274.890811 288.507243 
L 273.483243 291.20173 
L 271.472432 293.172324 
L 268.938811 294.338595 
L 263.228108 295.142919 
L 260.493405 295.987459 
L 253.334919 299.767784 
L 249.996973 301.135135 
L 244.648216 302.019892 
L 241.913514 302.944865 
L 239.138595 304.070919 
L 233.789838 305.840432 
L 226.912865 308.012108 
L 224.620541 309.299027 
L 222.328216 311.068541 
L 219.191351 314.285838 
L 217.462054 316.296649 
L 213.158919 322.087784 
L 211.630703 324.299676 
L 209.820973 326.592 
L 207.72973 328.361514 
L 205.477622 329.849514 
L 194.136649 336.444973 
L 190.396541 338.978595 
L 188.828108 340.426378 
L 187.460757 342.035027 
L 185.972757 344.206703 
L 184.886919 346.016432 
L 183.640216 348.389189 
L 181.548973 352.973838 
L 178.774054 359.971459 
L 171.454703 380.682811 
L 169.725405 385.750054 
L 169.725405 385.750054 
" style="fill:none;stroke:#ffa95a;stroke-linecap:square;stroke-width:1.5;"/>
   </g>
   <g id="line2d_57">
    <path clip-path="url(#p4819e4a949)" d="M 196.67027 445.712432 
L 197.394162 445.672216 
L 199.324541 445.149405 
L 201.094054 444.264649 
L 203.587459 442.414703 
L 205.115676 440.926703 
L 206.885189 438.956108 
L 208.212324 437.307243 
L 210.987243 433.40627 
L 215.411027 426.690162 
L 247.945946 373.805838 
L 248.710054 372.840649 
L 249.594811 371.955892 
L 251.123027 370.628757 
L 255.989189 367.250595 
L 258.040216 365.963676 
L 260.614054 364.636541 
L 263.750919 363.711568 
L 266.686703 363.269189 
L 272.276757 362.746378 
L 278.108108 361.861622 
L 283.859027 360.695351 
L 286.473081 360.092108 
L 288.886054 359.368216 
L 292.022919 358.041081 
L 292.585946 358.201946 
L 294.998919 359.730162 
L 296.808649 361.620324 
L 299.302054 363.590919 
L 301.192216 364.314811 
L 303.725838 364.515892 
L 306.822486 363.832216 
L 309.356108 362.545297 
L 312.452757 359.448649 
L 313.458162 359.488865 
L 315.991784 359.247568 
L 318.565622 358.282378 
L 320.616649 357.317189 
L 321.984 356.070486 
L 323.15027 354.180324 
L 323.994811 351.485838 
L 324.075243 348.871784 
L 323.79373 346.25773 
L 323.110054 343.442595 
L 322.104649 340.667676 
L 320.938378 338.013405 
L 319.812324 335.077622 
L 319.772108 332.021189 
L 323.110054 319.916108 
L 323.874162 317.623784 
L 324.758919 315.371676 
L 326.287135 312.596757 
L 328.579459 310.54573 
L 331.072865 309.379459 
L 339.276973 306.725189 
L 341.408432 306.323027 
L 343.781189 306.001297 
L 346.073514 305.43827 
L 348.526703 304.513297 
L 350.939676 303.387243 
L 355.564541 300.732973 
L 366.503351 294.016865 
L 368.755459 292.207135 
L 372.415135 288.668108 
L 374.184649 286.697514 
L 377.36173 282.716108 
L 378.769297 280.78573 
L 380.217081 278.533622 
L 381.222486 276.361946 
L 382.911568 270.932757 
L 383.957189 268.439351 
L 388.300541 259.833081 
L 389.104865 257.299459 
L 389.627676 254.966919 
L 390.070054 252.352865 
L 390.552649 247.567135 
L 390.914595 242.218378 
L 391.236324 234.215351 
L 391.517838 229.067676 
L 392.281946 226.212324 
L 393.247135 223.678703 
L 397.952432 212.619243 
L 398.515459 210.326919 
L 398.917622 207.431351 
L 399.078486 202.886919 
L 398.998054 197.819676 
L 398.555676 190.339459 
L 395.941622 160.137081 
L 394.011243 139.345297 
L 394.011243 139.345297 
" style="fill:none;stroke:#ff773d;stroke-linecap:square;stroke-width:1.5;"/>
   </g>
   <g id="line2d_58">
    <path clip-path="url(#p4819e4a949)" d="M 224.821622 333.107027 
L 225.264 333.066811 
L 226.269405 332.704865 
L 227.837838 331.739676 
L 229.486703 330.171243 
L 231.135568 327.999568 
L 232.342054 325.908324 
L 233.588757 323.29427 
L 234.51373 321.042162 
L 237.047351 313.763027 
L 242.275459 296.550486 
L 243.683027 291.925622 
L 245.653622 287.220324 
L 248.468757 280.825946 
L 250.600216 275.638054 
L 251.283892 273.466378 
L 251.605622 270.329514 
L 251.324108 268.037189 
L 250.680649 266.267676 
L 249.675243 264.739459 
L 248.026378 262.889514 
L 242.878703 257.621189 
L 242.476541 256.575568 
L 242.195027 254.323459 
L 242.074378 252.312649 
L 242.396108 251.427892 
L 243.44173 249.577946 
L 243.602595 248.331243 
L 243.160216 246.199784 
L 242.195027 244.43027 
L 239.983135 242.298811 
L 238.092973 241.293405 
L 234.875676 240.288 
L 233.628973 239.363027 
L 232.704 238.438054 
L 231.175784 236.306595 
L 230.170378 233.571892 
L 229.647568 230.595892 
L 229.486703 229.027459 
L 229.044324 226.694919 
L 228.280216 224.322162 
L 226.752 220.260324 
L 226.068324 218.249514 
L 225.022703 215.876757 
L 221.443459 208.838919 
L 220.317405 204.495568 
L 218.547892 200.272865 
L 216.175135 195.165405 
L 215.451243 193.275243 
L 215.129514 192.028541 
L 214.848 189.414486 
L 214.848 187.162378 
L 214.646919 184.226595 
L 214.164324 181.652757 
L 213.279568 179.239784 
L 212.435027 177.952865 
L 212.555676 177.993081 
L 211.831784 178.073514 
L 210.223135 178.596324 
L 208.855784 179.440865 
L 207.769946 180.687568 
L 207.287351 181.93427 
L 207.206919 183.42227 
L 207.327568 184.186378 
L 207.568865 184.990703 
L 208.051459 186.076541 
L 208.735135 187.122162 
L 209.619892 188.167784 
L 210.70573 189.253622 
L 211.992649 190.339459 
L 213.561081 191.385081 
L 215.250162 192.269838 
L 217.301189 193.154595 
L 219.312 193.878486 
L 222.368432 194.803459 
L 224.94227 195.366486 
L 227.556324 195.808865 
L 230.492108 196.130595 
L 233.146378 196.251243 
L 235.800649 196.211027 
L 238.133189 195.96973 
L 240.425514 195.406703 
L 242.597189 194.521946 
L 245.211243 193.194811 
L 246.900324 192.068757 
L 248.911135 189.937297 
L 250.318703 187.725405 
L 252.812108 183.020108 
L 255.184865 178.234378 
L 257.839135 173.529081 
L 259.045622 171.719351 
L 260.65427 169.547676 
L 262.021622 167.898811 
L 263.509622 166.290162 
L 265.11827 164.842378 
L 267.008432 163.314162 
L 268.818162 162.147892 
L 271.633297 161.021838 
L 274.609297 160.499027 
L 277.062486 160.539243 
L 279.515676 161.021838 
L 279.515676 161.021838 
" style="fill:none;stroke:#ff3d1f;stroke-linecap:square;stroke-width:1.5;"/>
   </g>
   <g id="line2d_59">
    <path clip-path="url(#p4819e4a949)" d="M 281.124324 361.258378 
L 281.767784 361.218162 
L 283.215568 360.936649 
L 285.065514 360.172541 
L 286.835027 359.126919 
L 288.644757 357.638919 
L 290.695784 355.587892 
L 292.224 353.737946 
L 293.510919 352.048865 
L 295.039135 349.877189 
L 296.205405 348.067459 
L 297.371676 346.25773 
L 298.658595 344.206703 
L 299.905297 342.155676 
L 301.111784 340.104649 
L 302.358486 338.013405 
L 303.967135 335.238486 
L 305.052973 333.388541 
L 306.380108 331.056 
L 307.707243 328.723459 
L 309.195243 326.189838 
L 310.40173 324.098595 
L 311.728865 321.766054 
L 312.935351 319.674811 
L 314.383135 317.100973 
L 315.71027 314.768432 
L 316.916757 312.677189 
L 318.243892 310.344649 
L 319.450378 308.253405 
L 320.777514 305.920865 
L 321.984 303.829622 
L 323.190486 301.738378 
L 324.517622 299.405838 
L 325.965405 296.872216 
L 327.292541 294.539676 
L 328.499027 292.448432 
L 329.826162 290.115892 
L 331.153297 287.783351 
L 332.198919 285.933405 
L 333.405405 283.842162 
L 334.611892 281.710703 
L 335.939027 279.378162 
" style="fill:none;stroke:#ff0000;stroke-linecap:square;stroke-width:1.5;"/>
   </g>
   <g id="patch_3">
    <path d="M 72 512.64 
L 72 69.12 
" style="fill:none;stroke:#000000;stroke-linecap:square;stroke-linejoin:miter;stroke-width:0.8;"/>
   </g>
   <g id="patch_4">
    <path d="M 518.4 512.64 
L 518.4 69.12 
" style="fill:none;stroke:#000000;stroke-linecap:square;stroke-linejoin:miter;stroke-width:0.8;"/>
   </g>
   <g id="patch_5">
    <path d="M 72 512.64 
L 518.4 512.64 
" style="fill:none;stroke:#000000;stroke-linecap:square;stroke-linejoin:miter;stroke-width:0.8;"/>
   </g>
   <g id="patch_6">
    <path d="M 72 69.12 
L 518.4 69.12 
" style="fill:none;stroke:#000000;stroke-linecap:square;stroke-linejoin:miter;stroke-width:0.8;"/>
   </g>
   <g id="text_13">
    <!-- 1 -->
    <defs>
     <path d="M 14.203125 0 
L 14.203125 5.171875 
L 26.90625 5.171875 
L 26.90625 65.828125 
L 12.203125 56.296875 
L 12.203125 62.703125 
L 29.984375 74.21875 
L 36.71875 74.21875 
L 36.71875 5.171875 
L 49.421875 5.171875 
L 49.421875 0 
z
" id="DejaVuSerif-31"/>
    </defs>
    <g transform="translate(137.186318 389.40973)scale(0.1 -0.1)">
     <use xlink:href="#DejaVuSerif-31"/>
    </g>
   </g>
   <g id="text_14">
    <!-- 1 -->
    <g transform="translate(390.54848 192.35027)scale(0.1 -0.1)">
     <use xlink:href="#DejaVuSerif-31"/>
    </g>
   </g>
   <g id="text_15">
    <!-- 2 -->
    <defs>
     <path d="M 12.796875 55.515625 
L 7.328125 55.515625 
L 7.328125 68.5 
Q 12.546875 71.296875 17.84375 72.75 
Q 23.140625 74.21875 28.21875 74.21875 
Q 39.59375 74.21875 46.1875 68.703125 
Q 52.78125 63.1875 52.78125 53.71875 
Q 52.78125 43.015625 37.84375 28.125 
Q 36.671875 27 36.078125 26.421875 
L 17.671875 8.015625 
L 48.09375 8.015625 
L 48.09375 17 
L 53.8125 17 
L 53.8125 0 
L 6.78125 0 
L 6.78125 5.328125 
L 28.90625 27.390625 
Q 36.234375 34.71875 39.359375 40.84375 
Q 42.484375 46.96875 42.484375 53.71875 
Q 42.484375 61.078125 38.640625 65.234375 
Q 34.8125 69.390625 28.078125 69.390625 
Q 21.09375 69.390625 17.28125 65.921875 
Q 13.484375 62.453125 12.796875 55.515625 
z
" id="DejaVuSerif-32"/>
    </defs>
    <g transform="translate(446.851182 192.35027)scale(0.1 -0.1)">
     <use xlink:href="#DejaVuSerif-32"/>
    </g>
   </g>
   <g id="text_16">
    <!-- 2 -->
    <g transform="translate(221.640372 361.258378)scale(0.1 -0.1)">
     <use xlink:href="#DejaVuSerif-32"/>
    </g>
   </g>
   <g id="text_17">
    <!-- 3 -->
    <defs>
     <path d="M 9.71875 69.828125 
Q 15.4375 71.96875 20.671875 73.09375 
Q 25.921875 74.21875 30.515625 74.21875 
Q 41.21875 74.21875 47.21875 69.59375 
Q 53.21875 64.984375 53.21875 56.78125 
Q 53.21875 50.203125 49.0625 45.78125 
Q 44.921875 41.359375 37.3125 39.796875 
Q 46.296875 38.53125 51.25 33.28125 
Q 56.203125 28.03125 56.203125 19.671875 
Q 56.203125 9.46875 49.34375 4.015625 
Q 42.484375 -1.421875 29.59375 -1.421875 
Q 23.875 -1.421875 18.421875 -0.1875 
Q 12.984375 1.03125 7.625 3.515625 
L 7.625 17.671875 
L 13.09375 17.671875 
Q 13.578125 10.640625 17.828125 7.03125 
Q 22.078125 3.421875 29.78125 3.421875 
Q 37.25 3.421875 41.578125 7.734375 
Q 45.90625 12.0625 45.90625 19.578125 
Q 45.90625 28.171875 41.453125 32.59375 
Q 37.015625 37.015625 28.421875 37.015625 
L 23.78125 37.015625 
L 23.78125 42 
L 26.21875 42 
Q 34.765625 42 39.03125 45.53125 
Q 43.3125 49.078125 43.3125 56.203125 
Q 43.3125 62.59375 39.796875 65.984375 
Q 36.28125 69.390625 29.6875 69.390625 
Q 23.09375 69.390625 19.453125 66.265625 
Q 15.828125 63.140625 15.1875 56.984375 
L 9.71875 56.984375 
z
" id="DejaVuSerif-33"/>
    </defs>
    <g transform="translate(398.993885 440.082162)scale(0.1 -0.1)">
     <use xlink:href="#DejaVuSerif-33"/>
    </g>
   </g>
   <g id="text_18">
    <!-- 3 -->
    <g transform="translate(221.640372 192.35027)scale(0.1 -0.1)">
     <use xlink:href="#DejaVuSerif-33"/>
    </g>
   </g>
   <g id="text_19">
    <!-- 4 -->
    <defs>
     <path d="M 34.90625 24.703125 
L 34.90625 63.484375 
L 10.015625 24.703125 
z
M 56.390625 0 
L 23.1875 0 
L 23.1875 5.171875 
L 34.90625 5.171875 
L 34.90625 19.484375 
L 3.078125 19.484375 
L 3.078125 24.8125 
L 35.015625 74.21875 
L 44.671875 74.21875 
L 44.671875 24.703125 
L 58.59375 24.703125 
L 58.59375 19.484375 
L 44.671875 19.484375 
L 44.671875 5.171875 
L 56.390625 5.171875 
z
" id="DejaVuSerif-34"/>
    </defs>
    <g transform="translate(221.640372 136.047568)scale(0.1 -0.1)">
     <use xlink:href="#DejaVuSerif-34"/>
    </g>
   </g>
   <g id="text_20">
    <!-- 4 -->
    <g transform="translate(390.54848 361.258378)scale(0.1 -0.1)">
     <use xlink:href="#DejaVuSerif-34"/>
    </g>
   </g>
   <g id="text_21">
    <!-- 5 -->
    <defs>
     <path d="M 50.296875 72.90625 
L 50.296875 64.890625 
L 16.890625 64.890625 
L 16.890625 44 
Q 19.4375 45.75 22.828125 46.625 
Q 26.21875 47.515625 30.421875 47.515625 
Q 42.234375 47.515625 49.0625 40.96875 
Q 55.90625 34.421875 55.90625 23.09375 
Q 55.90625 11.53125 49 5.046875 
Q 42.09375 -1.421875 29.59375 -1.421875 
Q 24.5625 -1.421875 19.28125 -0.1875 
Q 14.015625 1.03125 8.5 3.515625 
L 8.5 17.671875 
L 14.015625 17.671875 
Q 14.453125 10.75 18.421875 7.078125 
Q 22.40625 3.421875 29.59375 3.421875 
Q 37.3125 3.421875 41.453125 8.5 
Q 45.609375 13.578125 45.609375 23.09375 
Q 45.609375 32.5625 41.484375 37.609375 
Q 37.359375 42.671875 29.59375 42.671875 
Q 25.203125 42.671875 21.84375 41.109375 
Q 18.5 39.546875 15.921875 36.28125 
L 11.71875 36.28125 
L 11.71875 72.90625 
z
" id="DejaVuSerif-35"/>
    </defs>
    <g transform="translate(446.851182 304.955676)scale(0.1 -0.1)">
     <use xlink:href="#DejaVuSerif-35"/>
    </g>
   </g>
   <g id="text_22">
    <!-- 5 -->
    <g transform="translate(193.48902 248.652973)scale(0.1 -0.1)">
     <use xlink:href="#DejaVuSerif-35"/>
    </g>
   </g>
   <g id="text_23">
    <!-- 6 -->
    <defs>
     <path d="M 32.71875 3.421875 
Q 39.59375 3.421875 43.296875 8.46875 
Q 47.015625 13.53125 47.015625 23 
Q 47.015625 32.46875 43.296875 37.515625 
Q 39.59375 42.578125 32.71875 42.578125 
Q 25.734375 42.578125 22.0625 37.6875 
Q 18.40625 32.8125 18.40625 23.578125 
Q 18.40625 13.875 22.109375 8.640625 
Q 25.828125 3.421875 32.71875 3.421875 
z
M 16.796875 40.140625 
Q 20.125 43.796875 24.3125 45.59375 
Q 28.515625 47.40625 33.796875 47.40625 
Q 44.671875 47.40625 51 40.859375 
Q 57.328125 34.328125 57.328125 23 
Q 57.328125 11.921875 50.515625 5.25 
Q 43.703125 -1.421875 32.328125 -1.421875 
Q 19.96875 -1.421875 13.328125 7.78125 
Q 6.6875 17 6.6875 34.078125 
Q 6.6875 53.21875 14.546875 63.71875 
Q 22.40625 74.21875 36.71875 74.21875 
Q 40.578125 74.21875 44.828125 73.484375 
Q 49.078125 72.75 53.515625 71.296875 
L 53.515625 59.28125 
L 48 59.28125 
Q 47.40625 64.203125 44.234375 66.796875 
Q 41.0625 69.390625 35.6875 69.390625 
Q 26.21875 69.390625 21.578125 62.203125 
Q 16.9375 55.03125 16.796875 40.140625 
z
" id="DejaVuSerif-36"/>
    </defs>
    <g transform="translate(137.186318 248.652973)scale(0.1 -0.1)">
     <use xlink:href="#DejaVuSerif-36"/>
    </g>
   </g>
   <g id="text_24">
    <!-- 6 -->
    <g transform="translate(390.54848 276.804324)scale(0.1 -0.1)">
     <use xlink:href="#DejaVuSerif-36"/>
    </g>
   </g>
   <g id="text_25">
    <!-- 7 -->
    <defs>
     <path d="M 56.390625 67.921875 
L 27.875 0 
L 20.609375 0 
L 47.796875 64.890625 
L 14.109375 64.890625 
L 14.109375 55.90625 
L 8.40625 55.90625 
L 8.40625 72.90625 
L 56.390625 72.90625 
z
" id="DejaVuSerif-37"/>
    </defs>
    <g transform="translate(277.943074 192.35027)scale(0.1 -0.1)">
     <use xlink:href="#DejaVuSerif-37"/>
    </g>
   </g>
   <g id="text_26">
    <!-- 7 -->
    <g transform="translate(277.943074 333.107027)scale(0.1 -0.1)">
     <use xlink:href="#DejaVuSerif-37"/>
    </g>
   </g>
   <g id="text_27">
    <!-- 8 -->
    <defs>
     <path d="M 46.578125 19.921875 
Q 46.578125 27.734375 42.6875 32.046875 
Q 38.8125 36.375 31.78125 36.375 
Q 24.75 36.375 20.875 32.046875 
Q 17 27.734375 17 19.921875 
Q 17 12.0625 20.875 7.734375 
Q 24.75 3.421875 31.78125 3.421875 
Q 38.8125 3.421875 42.6875 7.734375 
Q 46.578125 12.0625 46.578125 19.921875 
z
M 44.578125 55.328125 
Q 44.578125 61.96875 41.203125 65.671875 
Q 37.84375 69.390625 31.78125 69.390625 
Q 25.78125 69.390625 22.390625 65.671875 
Q 19 61.96875 19 55.328125 
Q 19 48.640625 22.390625 44.921875 
Q 25.78125 41.21875 31.78125 41.21875 
Q 37.84375 41.21875 41.203125 44.921875 
Q 44.578125 48.640625 44.578125 55.328125 
z
M 39.3125 38.8125 
Q 47.609375 37.703125 52.25 32.6875 
Q 56.890625 27.6875 56.890625 19.921875 
Q 56.890625 9.671875 50.390625 4.125 
Q 43.890625 -1.421875 31.78125 -1.421875 
Q 19.734375 -1.421875 13.203125 4.125 
Q 6.6875 9.671875 6.6875 19.921875 
Q 6.6875 27.6875 11.328125 32.6875 
Q 15.96875 37.703125 24.3125 38.8125 
Q 16.9375 40.140625 13 44.40625 
Q 9.078125 48.6875 9.078125 55.328125 
Q 9.078125 64.109375 15.125 69.15625 
Q 21.1875 74.21875 31.78125 74.21875 
Q 42.390625 74.21875 48.4375 69.15625 
Q 54.5 64.109375 54.5 55.328125 
Q 54.5 48.6875 50.5625 44.40625 
Q 46.625 40.140625 39.3125 38.8125 
z
" id="DejaVuSerif-38"/>
    </defs>
    <g transform="translate(137.186318 304.955676)scale(0.1 -0.1)">
     <use xlink:href="#DejaVuSerif-38"/>
    </g>
   </g>
   <g id="text_28">
    <!-- 8 -->
    <g transform="translate(306.094426 276.804324)scale(0.1 -0.1)">
     <use xlink:href="#DejaVuSerif-38"/>
    </g>
   </g>
   <g id="text_29">
    <!-- 9 -->
    <defs>
     <path d="M 46.78125 32.671875 
Q 43.5 29 39.25 27.1875 
Q 35.015625 25.390625 29.6875 25.390625 
Q 18.84375 25.390625 12.5625 31.9375 
Q 6.296875 38.484375 6.296875 49.8125 
Q 6.296875 60.890625 13.109375 67.546875 
Q 19.921875 74.21875 31.296875 74.21875 
Q 43.65625 74.21875 50.265625 65.015625 
Q 56.890625 55.8125 56.890625 38.71875 
Q 56.890625 19.578125 49.015625 9.078125 
Q 41.15625 -1.421875 26.90625 -1.421875 
Q 23.046875 -1.421875 18.796875 -0.6875 
Q 14.546875 0.046875 10.109375 1.515625 
L 10.109375 13.625 
L 15.578125 13.625 
Q 16.21875 8.6875 19.390625 6.046875 
Q 22.5625 3.421875 27.875 3.421875 
Q 37.359375 3.421875 41.984375 10.5625 
Q 46.625 17.71875 46.78125 32.671875 
z
M 30.90625 69.390625 
Q 23.96875 69.390625 20.28125 64.328125 
Q 16.609375 59.28125 16.609375 49.8125 
Q 16.609375 40.328125 20.28125 35.25 
Q 23.96875 30.171875 30.90625 30.171875 
Q 37.84375 30.171875 41.53125 35.078125 
Q 45.21875 39.984375 45.21875 49.21875 
Q 45.21875 58.9375 41.5 64.15625 
Q 37.796875 69.390625 30.90625 69.390625 
z
" id="DejaVuSerif-39"/>
    </defs>
    <g transform="translate(390.54848 220.501622)scale(0.1 -0.1)">
     <use xlink:href="#DejaVuSerif-39"/>
    </g>
   </g>
   <g id="text_30">
    <!-- 9 -->
    <g transform="translate(137.186318 276.804324)scale(0.1 -0.1)">
     <use xlink:href="#DejaVuSerif-39"/>
    </g>
   </g>
   <g id="text_31">
    <!-- 10 -->
    <defs>
     <path d="M 31.78125 3.421875 
Q 39.265625 3.421875 42.96875 11.625 
Q 46.6875 19.828125 46.6875 36.375 
Q 46.6875 52.984375 42.96875 61.1875 
Q 39.265625 69.390625 31.78125 69.390625 
Q 24.3125 69.390625 20.59375 61.1875 
Q 16.890625 52.984375 16.890625 36.375 
Q 16.890625 19.828125 20.59375 11.625 
Q 24.3125 3.421875 31.78125 3.421875 
z
M 31.78125 -1.421875 
Q 19.921875 -1.421875 13.25 8.53125 
Q 6.59375 18.5 6.59375 36.375 
Q 6.59375 54.296875 13.25 64.25 
Q 19.921875 74.21875 31.78125 74.21875 
Q 43.703125 74.21875 50.34375 64.25 
Q 56.984375 54.296875 56.984375 36.375 
Q 56.984375 18.5 50.34375 8.53125 
Q 43.703125 -1.421875 31.78125 -1.421875 
z
" id="DejaVuSerif-30"/>
    </defs>
    <g transform="translate(134.005068 136.047568)scale(0.1 -0.1)">
     <use xlink:href="#DejaVuSerif-31"/>
     <use x="63.623047" xlink:href="#DejaVuSerif-30"/>
    </g>
   </g>
   <g id="text_32">
    <!-- 10 -->
    <g transform="translate(246.610473 248.652973)scale(0.1 -0.1)">
     <use xlink:href="#DejaVuSerif-31"/>
     <use x="63.623047" xlink:href="#DejaVuSerif-30"/>
    </g>
   </g>
   <g id="text_33">
    <!-- 11 -->
    <g transform="translate(331.064527 164.198919)scale(0.1 -0.1)">
     <use xlink:href="#DejaVuSerif-31"/>
     <use x="63.623047" xlink:href="#DejaVuSerif-31"/>
    </g>
   </g>
   <g id="text_34">
    <!-- 11 -->
    <g transform="translate(162.156419 389.40973)scale(0.1 -0.1)">
     <use xlink:href="#DejaVuSerif-31"/>
     <use x="63.623047" xlink:href="#DejaVuSerif-31"/>
    </g>
   </g>
   <g id="text_35">
    <!-- 12 -->
    <g transform="translate(190.30777 445.712432)scale(0.1 -0.1)">
     <use xlink:href="#DejaVuSerif-31"/>
     <use x="63.623047" xlink:href="#DejaVuSerif-32"/>
    </g>
   </g>
   <g id="text_36">
    <!-- 12 -->
    <g transform="translate(387.36723 136.047568)scale(0.1 -0.1)">
     <use xlink:href="#DejaVuSerif-31"/>
     <use x="63.623047" xlink:href="#DejaVuSerif-32"/>
    </g>
   </g>
   <g id="text_37">
    <!-- 13 -->
    <g transform="translate(218.459122 333.107027)scale(0.1 -0.1)">
     <use xlink:href="#DejaVuSerif-31"/>
     <use x="63.623047" xlink:href="#DejaVuSerif-33"/>
    </g>
   </g>
   <g id="text_38">
    <!-- 13 -->
    <g transform="translate(274.761824 164.198919)scale(0.1 -0.1)">
     <use xlink:href="#DejaVuSerif-31"/>
     <use x="63.623047" xlink:href="#DejaVuSerif-33"/>
    </g>
   </g>
   <g id="text_39">
    <!-- 14 -->
    <g transform="translate(274.761824 361.258378)scale(0.1 -0.1)">
     <use xlink:href="#DejaVuSerif-31"/>
     <use x="63.623047" xlink:href="#DejaVuSerif-34"/>
    </g>
   </g>
   <g id="text_40">
    <!-- 14 -->
    <g transform="translate(331.064527 276.804324)scale(0.1 -0.1)">
     <use xlink:href="#DejaVuSerif-31"/>
     <use x="63.623047" xlink:href="#DejaVuSerif-34"/>
    </g>
   </g>
   <g id="text_41">
    <!-- MRPP -->
    <defs>
     <path d="M 9.8125 72.90625 
L 24.515625 72.90625 
L 43.109375 23.296875 
L 61.8125 72.90625 
L 76.515625 72.90625 
L 76.515625 0 
L 66.890625 0 
L 66.890625 64.015625 
L 48.09375 14.015625 
L 38.1875 14.015625 
L 19.390625 64.015625 
L 19.390625 0 
L 9.8125 0 
z
" id="DejaVuSans-4d"/>
     <path d="M 44.390625 34.1875 
Q 47.5625 33.109375 50.5625 29.59375 
Q 53.5625 26.078125 56.59375 19.921875 
L 66.609375 0 
L 56 0 
L 46.6875 18.703125 
Q 43.0625 26.03125 39.671875 28.421875 
Q 36.28125 30.8125 30.421875 30.8125 
L 19.671875 30.8125 
L 19.671875 0 
L 9.8125 0 
L 9.8125 72.90625 
L 32.078125 72.90625 
Q 44.578125 72.90625 50.734375 67.671875 
Q 56.890625 62.453125 56.890625 51.90625 
Q 56.890625 45.015625 53.6875 40.46875 
Q 50.484375 35.9375 44.390625 34.1875 
z
M 19.671875 64.796875 
L 19.671875 38.921875 
L 32.078125 38.921875 
Q 39.203125 38.921875 42.84375 42.21875 
Q 46.484375 45.515625 46.484375 51.90625 
Q 46.484375 58.296875 42.84375 61.546875 
Q 39.203125 64.796875 32.078125 64.796875 
z
" id="DejaVuSans-52"/>
     <path d="M 19.671875 64.796875 
L 19.671875 37.40625 
L 32.078125 37.40625 
Q 38.96875 37.40625 42.71875 40.96875 
Q 46.484375 44.53125 46.484375 51.125 
Q 46.484375 57.671875 42.71875 61.234375 
Q 38.96875 64.796875 32.078125 64.796875 
z
M 9.8125 72.90625 
L 32.078125 72.90625 
Q 44.34375 72.90625 50.609375 67.359375 
Q 56.890625 61.8125 56.890625 51.125 
Q 56.890625 40.328125 50.609375 34.8125 
Q 44.34375 29.296875 32.078125 29.296875 
L 19.671875 29.296875 
L 19.671875 0 
L 9.8125 0 
z
" id="DejaVuSans-50"/>
    </defs>
    <g transform="translate(278.618437 63.12)scale(0.12 -0.12)">
     <use xlink:href="#DejaVuSans-4d"/>
     <use x="86.279297" xlink:href="#DejaVuSans-52"/>
     <use x="155.761719" xlink:href="#DejaVuSans-50"/>
     <use x="216.064453" xlink:href="#DejaVuSans-50"/>
    </g>
   </g>
  </g>
 </g>
 <defs>
  <clipPath id="p4819e4a949">
   <rect height="443.52" width="446.4" x="72" y="69.12"/>
  </clipPath>
 </defs>
</svg>
