<?xml version="1.0" encoding="utf-8" standalone="no"?>
<!DOCTYPE svg PUBLIC "-//W3C//DTD SVG 1.1//EN"
  "http://www.w3.org/Graphics/SVG/1.1/DTD/svg11.dtd">
<!-- Created with matplotlib (http://matplotlib.org/) -->
<svg height="576pt" version="1.1" viewBox="0 0 576 576" width="576pt" xmlns="http://www.w3.org/2000/svg" xmlns:xlink="http://www.w3.org/1999/xlink">
 <defs>
  <style type="text/css">
*{stroke-linecap:butt;stroke-linejoin:round;}
  </style>
 </defs>
 <g id="figure_1">
  <g id="patch_1">
   <path d="M 0 576 
L 576 576 
L 576 0 
L 0 0 
z
" style="fill:#ffffff;"/>
  </g>
  <g id="axes_1">
   <g id="patch_2">
    <path d="M 72 512.64 
L 518.4 512.64 
L 518.4 69.12 
L 72 69.12 
z
" style="fill:#ffffff;"/>
   </g>
   <g id="matplotlib.axis_1">
    <g id="xtick_1">
     <g id="line2d_1">
      <defs>
       <path d="M 0 0 
L 0 3.5 
" id="maca90217f3" style="stroke:#000000;stroke-width:0.8;"/>
      </defs>
      <g>
       <use style="stroke:#000000;stroke-width:0.8;" x="112.216216" xlink:href="#maca90217f3" y="512.64"/>
      </g>
     </g>
     <g id="text_1">
      <!-- 0 -->
      <defs>
       <path d="M 31.78125 66.40625 
Q 24.171875 66.40625 20.328125 58.90625 
Q 16.5 51.421875 16.5 36.375 
Q 16.5 21.390625 20.328125 13.890625 
Q 24.171875 6.390625 31.78125 6.390625 
Q 39.453125 6.390625 43.28125 13.890625 
Q 47.125 21.390625 47.125 36.375 
Q 47.125 51.421875 43.28125 58.90625 
Q 39.453125 66.40625 31.78125 66.40625 
z
M 31.78125 74.21875 
Q 44.046875 74.21875 50.515625 64.515625 
Q 56.984375 54.828125 56.984375 36.375 
Q 56.984375 17.96875 50.515625 8.265625 
Q 44.046875 -1.421875 31.78125 -1.421875 
Q 19.53125 -1.421875 13.0625 8.265625 
Q 6.59375 17.96875 6.59375 36.375 
Q 6.59375 54.828125 13.0625 64.515625 
Q 19.53125 74.21875 31.78125 74.21875 
z
" id="DejaVuSans-30"/>
      </defs>
      <g transform="translate(109.034966 527.238438)scale(0.1 -0.1)">
       <use xlink:href="#DejaVuSans-30"/>
      </g>
     </g>
    </g>
    <g id="xtick_2">
     <g id="line2d_2">
      <g>
       <use style="stroke:#000000;stroke-width:0.8;" x="192.648649" xlink:href="#maca90217f3" y="512.64"/>
      </g>
     </g>
     <g id="text_2">
      <!-- 2 -->
      <defs>
       <path d="M 19.1875 8.296875 
L 53.609375 8.296875 
L 53.609375 0 
L 7.328125 0 
L 7.328125 8.296875 
Q 12.9375 14.109375 22.625 23.890625 
Q 32.328125 33.6875 34.8125 36.53125 
Q 39.546875 41.84375 41.421875 45.53125 
Q 43.3125 49.21875 43.3125 52.78125 
Q 43.3125 58.59375 39.234375 62.25 
Q 35.15625 65.921875 28.609375 65.921875 
Q 23.96875 65.921875 18.8125 64.3125 
Q 13.671875 62.703125 7.8125 59.421875 
L 7.8125 69.390625 
Q 13.765625 71.78125 18.9375 73 
Q 24.125 74.21875 28.421875 74.21875 
Q 39.75 74.21875 46.484375 68.546875 
Q 53.21875 62.890625 53.21875 53.421875 
Q 53.21875 48.921875 51.53125 44.890625 
Q 49.859375 40.875 45.40625 35.40625 
Q 44.1875 33.984375 37.640625 27.21875 
Q 31.109375 20.453125 19.1875 8.296875 
z
" id="DejaVuSans-32"/>
      </defs>
      <g transform="translate(189.467399 527.238438)scale(0.1 -0.1)">
       <use xlink:href="#DejaVuSans-32"/>
      </g>
     </g>
    </g>
    <g id="xtick_3">
     <g id="line2d_3">
      <g>
       <use style="stroke:#000000;stroke-width:0.8;" x="273.081081" xlink:href="#maca90217f3" y="512.64"/>
      </g>
     </g>
     <g id="text_3">
      <!-- 4 -->
      <defs>
       <path d="M 37.796875 64.3125 
L 12.890625 25.390625 
L 37.796875 25.390625 
z
M 35.203125 72.90625 
L 47.609375 72.90625 
L 47.609375 25.390625 
L 58.015625 25.390625 
L 58.015625 17.1875 
L 47.609375 17.1875 
L 47.609375 0 
L 37.796875 0 
L 37.796875 17.1875 
L 4.890625 17.1875 
L 4.890625 26.703125 
z
" id="DejaVuSans-34"/>
      </defs>
      <g transform="translate(269.899831 527.238438)scale(0.1 -0.1)">
       <use xlink:href="#DejaVuSans-34"/>
      </g>
     </g>
    </g>
    <g id="xtick_4">
     <g id="line2d_4">
      <g>
       <use style="stroke:#000000;stroke-width:0.8;" x="353.513514" xlink:href="#maca90217f3" y="512.64"/>
      </g>
     </g>
     <g id="text_4">
      <!-- 6 -->
      <defs>
       <path d="M 33.015625 40.375 
Q 26.375 40.375 22.484375 35.828125 
Q 18.609375 31.296875 18.609375 23.390625 
Q 18.609375 15.53125 22.484375 10.953125 
Q 26.375 6.390625 33.015625 6.390625 
Q 39.65625 6.390625 43.53125 10.953125 
Q 47.40625 15.53125 47.40625 23.390625 
Q 47.40625 31.296875 43.53125 35.828125 
Q 39.65625 40.375 33.015625 40.375 
z
M 52.59375 71.296875 
L 52.59375 62.3125 
Q 48.875 64.0625 45.09375 64.984375 
Q 41.3125 65.921875 37.59375 65.921875 
Q 27.828125 65.921875 22.671875 59.328125 
Q 17.53125 52.734375 16.796875 39.40625 
Q 19.671875 43.65625 24.015625 45.921875 
Q 28.375 48.1875 33.59375 48.1875 
Q 44.578125 48.1875 50.953125 41.515625 
Q 57.328125 34.859375 57.328125 23.390625 
Q 57.328125 12.15625 50.6875 5.359375 
Q 44.046875 -1.421875 33.015625 -1.421875 
Q 20.359375 -1.421875 13.671875 8.265625 
Q 6.984375 17.96875 6.984375 36.375 
Q 6.984375 53.65625 15.1875 63.9375 
Q 23.390625 74.21875 37.203125 74.21875 
Q 40.921875 74.21875 44.703125 73.484375 
Q 48.484375 72.75 52.59375 71.296875 
z
" id="DejaVuSans-36"/>
      </defs>
      <g transform="translate(350.332264 527.238438)scale(0.1 -0.1)">
       <use xlink:href="#DejaVuSans-36"/>
      </g>
     </g>
    </g>
    <g id="xtick_5">
     <g id="line2d_5">
      <g>
       <use style="stroke:#000000;stroke-width:0.8;" x="433.945946" xlink:href="#maca90217f3" y="512.64"/>
      </g>
     </g>
     <g id="text_5">
      <!-- 8 -->
      <defs>
       <path d="M 31.78125 34.625 
Q 24.75 34.625 20.71875 30.859375 
Q 16.703125 27.09375 16.703125 20.515625 
Q 16.703125 13.921875 20.71875 10.15625 
Q 24.75 6.390625 31.78125 6.390625 
Q 38.8125 6.390625 42.859375 10.171875 
Q 46.921875 13.96875 46.921875 20.515625 
Q 46.921875 27.09375 42.890625 30.859375 
Q 38.875 34.625 31.78125 34.625 
z
M 21.921875 38.8125 
Q 15.578125 40.375 12.03125 44.71875 
Q 8.5 49.078125 8.5 55.328125 
Q 8.5 64.0625 14.71875 69.140625 
Q 20.953125 74.21875 31.78125 74.21875 
Q 42.671875 74.21875 48.875 69.140625 
Q 55.078125 64.0625 55.078125 55.328125 
Q 55.078125 49.078125 51.53125 44.71875 
Q 48 40.375 41.703125 38.8125 
Q 48.828125 37.15625 52.796875 32.3125 
Q 56.78125 27.484375 56.78125 20.515625 
Q 56.78125 9.90625 50.3125 4.234375 
Q 43.84375 -1.421875 31.78125 -1.421875 
Q 19.734375 -1.421875 13.25 4.234375 
Q 6.78125 9.90625 6.78125 20.515625 
Q 6.78125 27.484375 10.78125 32.3125 
Q 14.796875 37.15625 21.921875 38.8125 
z
M 18.3125 54.390625 
Q 18.3125 48.734375 21.84375 45.5625 
Q 25.390625 42.390625 31.78125 42.390625 
Q 38.140625 42.390625 41.71875 45.5625 
Q 45.3125 48.734375 45.3125 54.390625 
Q 45.3125 60.0625 41.71875 63.234375 
Q 38.140625 66.40625 31.78125 66.40625 
Q 25.390625 66.40625 21.84375 63.234375 
Q 18.3125 60.0625 18.3125 54.390625 
z
" id="DejaVuSans-38"/>
      </defs>
      <g transform="translate(430.764696 527.238438)scale(0.1 -0.1)">
       <use xlink:href="#DejaVuSans-38"/>
      </g>
     </g>
    </g>
    <g id="xtick_6">
     <g id="line2d_6">
      <g>
       <use style="stroke:#000000;stroke-width:0.8;" x="514.378378" xlink:href="#maca90217f3" y="512.64"/>
      </g>
     </g>
     <g id="text_6">
      <!-- 10 -->
      <defs>
       <path d="M 12.40625 8.296875 
L 28.515625 8.296875 
L 28.515625 63.921875 
L 10.984375 60.40625 
L 10.984375 69.390625 
L 28.421875 72.90625 
L 38.28125 72.90625 
L 38.28125 8.296875 
L 54.390625 8.296875 
L 54.390625 0 
L 12.40625 0 
z
" id="DejaVuSans-31"/>
      </defs>
      <g transform="translate(508.015878 527.238438)scale(0.1 -0.1)">
       <use xlink:href="#DejaVuSans-31"/>
       <use x="63.623047" xlink:href="#DejaVuSans-30"/>
      </g>
     </g>
    </g>
   </g>
   <g id="matplotlib.axis_2">
    <g id="ytick_1">
     <g id="line2d_7">
      <defs>
       <path d="M 0 0 
L -3.5 0 
" id="m32d1368621" style="stroke:#000000;stroke-width:0.8;"/>
      </defs>
      <g>
       <use style="stroke:#000000;stroke-width:0.8;" x="72" xlink:href="#m32d1368621" y="473.863784"/>
      </g>
     </g>
     <g id="text_7">
      <!-- 0 -->
      <g transform="translate(58.6375 477.663003)scale(0.1 -0.1)">
       <use xlink:href="#DejaVuSans-30"/>
      </g>
     </g>
    </g>
    <g id="ytick_2">
     <g id="line2d_8">
      <g>
       <use style="stroke:#000000;stroke-width:0.8;" x="72" xlink:href="#m32d1368621" y="393.431351"/>
      </g>
     </g>
     <g id="text_8">
      <!-- 2 -->
      <g transform="translate(58.6375 397.23057)scale(0.1 -0.1)">
       <use xlink:href="#DejaVuSans-32"/>
      </g>
     </g>
    </g>
    <g id="ytick_3">
     <g id="line2d_9">
      <g>
       <use style="stroke:#000000;stroke-width:0.8;" x="72" xlink:href="#m32d1368621" y="312.998919"/>
      </g>
     </g>
     <g id="text_9">
      <!-- 4 -->
      <g transform="translate(58.6375 316.798138)scale(0.1 -0.1)">
       <use xlink:href="#DejaVuSans-34"/>
      </g>
     </g>
    </g>
    <g id="ytick_4">
     <g id="line2d_10">
      <g>
       <use style="stroke:#000000;stroke-width:0.8;" x="72" xlink:href="#m32d1368621" y="232.566486"/>
      </g>
     </g>
     <g id="text_10">
      <!-- 6 -->
      <g transform="translate(58.6375 236.365705)scale(0.1 -0.1)">
       <use xlink:href="#DejaVuSans-36"/>
      </g>
     </g>
    </g>
    <g id="ytick_5">
     <g id="line2d_11">
      <g>
       <use style="stroke:#000000;stroke-width:0.8;" x="72" xlink:href="#m32d1368621" y="152.134054"/>
      </g>
     </g>
     <g id="text_11">
      <!-- 8 -->
      <g transform="translate(58.6375 155.933273)scale(0.1 -0.1)">
       <use xlink:href="#DejaVuSans-38"/>
      </g>
     </g>
    </g>
    <g id="ytick_6">
     <g id="line2d_12">
      <g>
       <use style="stroke:#000000;stroke-width:0.8;" x="72" xlink:href="#m32d1368621" y="71.701622"/>
      </g>
     </g>
     <g id="text_12">
      <!-- 10 -->
      <g transform="translate(52.275 75.50084)scale(0.1 -0.1)">
       <use xlink:href="#DejaVuSans-31"/>
       <use x="63.623047" xlink:href="#DejaVuSans-30"/>
      </g>
     </g>
    </g>
   </g>
   <g id="line2d_13">
    <path clip-path="url(#pa518caf6c3)" d="M 140.367568 389.40973 
" style="fill:none;stroke:#1f77b4;stroke-linecap:square;stroke-width:1.5;"/>
    <defs>
     <path d="M -5 5 
L 5 5 
L 5 -5 
L -5 -5 
z
" id="m2708155384" style="stroke:#8000ff;stroke-linejoin:miter;"/>
    </defs>
    <g clip-path="url(#pa518caf6c3)">
     <use style="fill:#8000ff;stroke:#8000ff;stroke-linejoin:miter;" x="140.367568" xlink:href="#m2708155384" y="389.40973"/>
    </g>
   </g>
   <g id="line2d_14">
    <path clip-path="url(#pa518caf6c3)" d="M 393.72973 192.35027 
" style="fill:none;stroke:#ff7f0e;stroke-linecap:square;stroke-width:1.5;"/>
    <defs>
     <path d="M 0 -5 
L -4.755283 -1.545085 
L -2.938926 4.045085 
L 2.938926 4.045085 
L 4.755283 -1.545085 
z
" id="mac1c7e72f6" style="stroke:#8000ff;stroke-linejoin:miter;"/>
    </defs>
    <g clip-path="url(#pa518caf6c3)">
     <use style="fill:#8000ff;stroke:#8000ff;stroke-linejoin:miter;" x="393.72973" xlink:href="#mac1c7e72f6" y="192.35027"/>
    </g>
   </g>
   <g id="line2d_15">
    <path clip-path="url(#pa518caf6c3)" d="M 450.032432 192.35027 
" style="fill:none;stroke:#2ca02c;stroke-linecap:square;stroke-width:1.5;"/>
    <defs>
     <path d="M -5 5 
L 5 5 
L 5 -5 
L -5 -5 
z
" id="m4d8b9b1840" style="stroke:#1996f3;stroke-linejoin:miter;"/>
    </defs>
    <g clip-path="url(#pa518caf6c3)">
     <use style="fill:#1996f3;stroke:#1996f3;stroke-linejoin:miter;" x="450.032432" xlink:href="#m4d8b9b1840" y="192.35027"/>
    </g>
   </g>
   <g id="line2d_16">
    <path clip-path="url(#pa518caf6c3)" d="M 224.821622 361.258378 
" style="fill:none;stroke:#d62728;stroke-linecap:square;stroke-width:1.5;"/>
    <defs>
     <path d="M 0 -5 
L -4.755283 -1.545085 
L -2.938926 4.045085 
L 2.938926 4.045085 
L 4.755283 -1.545085 
z
" id="ma579d25109" style="stroke:#1996f3;stroke-linejoin:miter;"/>
    </defs>
    <g clip-path="url(#pa518caf6c3)">
     <use style="fill:#1996f3;stroke:#1996f3;stroke-linejoin:miter;" x="224.821622" xlink:href="#ma579d25109" y="361.258378"/>
    </g>
   </g>
   <g id="line2d_17">
    <path clip-path="url(#pa518caf6c3)" d="M 402.175135 440.082162 
" style="fill:none;stroke:#9467bd;stroke-linecap:square;stroke-width:1.5;"/>
    <defs>
     <path d="M -5 5 
L 5 5 
L 5 -5 
L -5 -5 
z
" id="m78b5ea8384" style="stroke:#4df3ce;stroke-linejoin:miter;"/>
    </defs>
    <g clip-path="url(#pa518caf6c3)">
     <use style="fill:#4df3ce;stroke:#4df3ce;stroke-linejoin:miter;" x="402.175135" xlink:href="#m78b5ea8384" y="440.082162"/>
    </g>
   </g>
   <g id="line2d_18">
    <path clip-path="url(#pa518caf6c3)" d="M 224.821622 192.35027 
" style="fill:none;stroke:#8c564b;stroke-linecap:square;stroke-width:1.5;"/>
    <defs>
     <path d="M 0 -5 
L -4.755283 -1.545085 
L -2.938926 4.045085 
L 2.938926 4.045085 
L 4.755283 -1.545085 
z
" id="m1be33ca06e" style="stroke:#4df3ce;stroke-linejoin:miter;"/>
    </defs>
    <g clip-path="url(#pa518caf6c3)">
     <use style="fill:#4df3ce;stroke:#4df3ce;stroke-linejoin:miter;" x="224.821622" xlink:href="#m1be33ca06e" y="192.35027"/>
    </g>
   </g>
   <g id="line2d_19">
    <path clip-path="url(#pa518caf6c3)" d="M 224.821622 136.047568 
" style="fill:none;stroke:#e377c2;stroke-linecap:square;stroke-width:1.5;"/>
    <defs>
     <path d="M -5 5 
L 5 5 
L 5 -5 
L -5 -5 
z
" id="mcac19dfc0b" style="stroke:#b3f396;stroke-linejoin:miter;"/>
    </defs>
    <g clip-path="url(#pa518caf6c3)">
     <use style="fill:#b3f396;stroke:#b3f396;stroke-linejoin:miter;" x="224.821622" xlink:href="#mcac19dfc0b" y="136.047568"/>
    </g>
   </g>
   <g id="line2d_20">
    <path clip-path="url(#pa518caf6c3)" d="M 393.72973 361.258378 
" style="fill:none;stroke:#7f7f7f;stroke-linecap:square;stroke-width:1.5;"/>
    <defs>
     <path d="M 0 -5 
L -4.755283 -1.545085 
L -2.938926 4.045085 
L 2.938926 4.045085 
L 4.755283 -1.545085 
z
" id="m8e3af35fa4" style="stroke:#b3f396;stroke-linejoin:miter;"/>
    </defs>
    <g clip-path="url(#pa518caf6c3)">
     <use style="fill:#b3f396;stroke:#b3f396;stroke-linejoin:miter;" x="393.72973" xlink:href="#m8e3af35fa4" y="361.258378"/>
    </g>
   </g>
   <g id="line2d_21">
    <path clip-path="url(#pa518caf6c3)" d="M 450.032432 304.955676 
" style="fill:none;stroke:#bcbd22;stroke-linecap:square;stroke-width:1.5;"/>
    <defs>
     <path d="M -5 5 
L 5 5 
L 5 -5 
L -5 -5 
z
" id="m95137abf27" style="stroke:#ff964f;stroke-linejoin:miter;"/>
    </defs>
    <g clip-path="url(#pa518caf6c3)">
     <use style="fill:#ff964f;stroke:#ff964f;stroke-linejoin:miter;" x="450.032432" xlink:href="#m95137abf27" y="304.955676"/>
    </g>
   </g>
   <g id="line2d_22">
    <path clip-path="url(#pa518caf6c3)" d="M 196.67027 248.652973 
" style="fill:none;stroke:#17becf;stroke-linecap:square;stroke-width:1.5;"/>
    <defs>
     <path d="M 0 -5 
L -4.755283 -1.545085 
L -2.938926 4.045085 
L 2.938926 4.045085 
L 4.755283 -1.545085 
z
" id="m58ccbfabe7" style="stroke:#ff964f;stroke-linejoin:miter;"/>
    </defs>
    <g clip-path="url(#pa518caf6c3)">
     <use style="fill:#ff964f;stroke:#ff964f;stroke-linejoin:miter;" x="196.67027" xlink:href="#m58ccbfabe7" y="248.652973"/>
    </g>
   </g>
   <g id="line2d_23">
    <path clip-path="url(#pa518caf6c3)" d="M 140.367568 248.652973 
" style="fill:none;stroke:#1f77b4;stroke-linecap:square;stroke-width:1.5;"/>
    <defs>
     <path d="M -5 5 
L 5 5 
L 5 -5 
L -5 -5 
z
" id="m92a4b5a9ab" style="stroke:#ff0000;stroke-linejoin:miter;"/>
    </defs>
    <g clip-path="url(#pa518caf6c3)">
     <use style="fill:#ff0000;stroke:#ff0000;stroke-linejoin:miter;" x="140.367568" xlink:href="#m92a4b5a9ab" y="248.652973"/>
    </g>
   </g>
   <g id="line2d_24">
    <path clip-path="url(#pa518caf6c3)" d="M 393.72973 276.804324 
" style="fill:none;stroke:#ff7f0e;stroke-linecap:square;stroke-width:1.5;"/>
    <defs>
     <path d="M 0 -5 
L -4.755283 -1.545085 
L -2.938926 4.045085 
L 2.938926 4.045085 
L 4.755283 -1.545085 
z
" id="m3f988d37f1" style="stroke:#ff0000;stroke-linejoin:miter;"/>
    </defs>
    <g clip-path="url(#pa518caf6c3)">
     <use style="fill:#ff0000;stroke:#ff0000;stroke-linejoin:miter;" x="393.72973" xlink:href="#m3f988d37f1" y="276.804324"/>
    </g>
   </g>
   <g id="line2d_25">
    <defs>
     <path d="M 0 2.5 
C 0.663008 2.5 1.29895 2.236584 1.767767 1.767767 
C 2.236584 1.29895 2.5 0.663008 2.5 0 
C 2.5 -0.663008 2.236584 -1.29895 1.767767 -1.767767 
C 1.29895 -2.236584 0.663008 -2.5 0 -2.5 
C -0.663008 -2.5 -1.29895 -2.236584 -1.767767 -1.767767 
C -2.236584 -1.29895 -2.5 -0.663008 -2.5 0 
C -2.5 0.663008 -2.236584 1.29895 -1.767767 1.767767 
C -1.29895 2.236584 -0.663008 2.5 0 2.5 
z
" id="m896ebcc224" style="stroke:#000000;"/>
    </defs>
    <g clip-path="url(#pa518caf6c3)">
     <use style="stroke:#000000;" x="196.67027" xlink:href="#m896ebcc224" y="389.40973"/>
     <use style="stroke:#000000;" x="196.67027" xlink:href="#m896ebcc224" y="333.107027"/>
     <use style="stroke:#000000;" x="252.972973" xlink:href="#m896ebcc224" y="389.40973"/>
     <use style="stroke:#000000;" x="252.972973" xlink:href="#m896ebcc224" y="333.107027"/>
     <use style="stroke:#000000;" x="309.275676" xlink:href="#m896ebcc224" y="389.40973"/>
     <use style="stroke:#000000;" x="309.275676" xlink:href="#m896ebcc224" y="333.107027"/>
     <use style="stroke:#000000;" x="365.578378" xlink:href="#m896ebcc224" y="389.40973"/>
     <use style="stroke:#000000;" x="365.578378" xlink:href="#m896ebcc224" y="333.107027"/>
     <use style="stroke:#000000;" x="421.881081" xlink:href="#m896ebcc224" y="389.40973"/>
     <use style="stroke:#000000;" x="421.881081" xlink:href="#m896ebcc224" y="333.107027"/>
     <use style="stroke:#000000;" x="196.67027" xlink:href="#m896ebcc224" y="220.501622"/>
     <use style="stroke:#000000;" x="196.67027" xlink:href="#m896ebcc224" y="164.198919"/>
     <use style="stroke:#000000;" x="252.972973" xlink:href="#m896ebcc224" y="220.501622"/>
     <use style="stroke:#000000;" x="252.972973" xlink:href="#m896ebcc224" y="164.198919"/>
     <use style="stroke:#000000;" x="309.275676" xlink:href="#m896ebcc224" y="220.501622"/>
     <use style="stroke:#000000;" x="309.275676" xlink:href="#m896ebcc224" y="164.198919"/>
     <use style="stroke:#000000;" x="365.578378" xlink:href="#m896ebcc224" y="220.501622"/>
     <use style="stroke:#000000;" x="365.578378" xlink:href="#m896ebcc224" y="164.198919"/>
     <use style="stroke:#000000;" x="421.881081" xlink:href="#m896ebcc224" y="220.501622"/>
     <use style="stroke:#000000;" x="421.881081" xlink:href="#m896ebcc224" y="164.198919"/>
    </g>
   </g>
   <g id="line2d_26">
    <path clip-path="url(#pa518caf6c3)" d="M 212.354595 389.40973 
L 211.504775 384.317038 
L 209.047406 379.776218 
L 205.248783 376.279339 
L 200.520544 374.205342 
L 195.375069 373.778975 
L 190.369949 375.046444 
L 186.047566 377.870397 
L 182.876319 381.944816 
L 181.19986 386.828175 
L 181.19986 391.991285 
L 182.876319 396.874643 
L 186.047566 400.949062 
L 190.369949 403.773016 
L 195.375069 405.040484 
L 200.520544 404.614118 
L 205.248783 402.54012 
L 209.047406 399.043241 
L 211.504775 394.502422 
L 212.354595 389.40973 
" style="fill:none;stroke:#000000;stroke-dasharray:5.55,2.4;stroke-dashoffset:0;stroke-width:1.5;"/>
   </g>
   <g id="line2d_27">
    <path clip-path="url(#pa518caf6c3)" d="M 201.094054 389.40973 
L 200.854361 387.973329 
L 200.161257 386.692585 
L 199.089851 385.706286 
L 197.756245 385.121313 
L 196.304957 385.001055 
L 194.893257 385.358547 
L 193.674123 386.155046 
L 192.779669 387.304241 
L 192.306821 388.681599 
L 192.306821 390.137861 
L 192.779669 391.515218 
L 193.674123 392.664413 
L 194.893257 393.460913 
L 196.304957 393.818404 
L 197.756245 393.698147 
L 199.089851 393.113173 
L 200.161257 392.126874 
L 200.854361 390.84613 
L 201.094054 389.40973 
" style="fill:none;stroke:#ff0000;stroke-linecap:square;stroke-width:1.5;"/>
   </g>
   <g id="line2d_28">
    <path clip-path="url(#pa518caf6c3)" d="M 212.354595 333.107027 
L 211.504775 328.014335 
L 209.047406 323.473516 
L 205.248783 319.976636 
L 200.520544 317.902639 
L 195.375069 317.476273 
L 190.369949 318.743741 
L 186.047566 321.567695 
L 182.876319 325.642114 
L 181.19986 330.525472 
L 181.19986 335.688582 
L 182.876319 340.57194 
L 186.047566 344.646359 
L 190.369949 347.470313 
L 195.375069 348.737781 
L 200.520544 348.311415 
L 205.248783 346.237418 
L 209.047406 342.740538 
L 211.504775 338.199719 
L 212.354595 333.107027 
" style="fill:none;stroke:#000000;stroke-dasharray:5.55,2.4;stroke-dashoffset:0;stroke-width:1.5;"/>
   </g>
   <g id="line2d_29">
    <path clip-path="url(#pa518caf6c3)" d="M 201.094054 333.107027 
L 200.854361 331.670627 
L 200.161257 330.389883 
L 199.089851 329.403584 
L 197.756245 328.81861 
L 196.304957 328.698353 
L 194.893257 329.055844 
L 193.674123 329.852344 
L 192.779669 331.001539 
L 192.306821 332.378896 
L 192.306821 333.835158 
L 192.779669 335.212515 
L 193.674123 336.361711 
L 194.893257 337.15821 
L 196.304957 337.515701 
L 197.756245 337.395444 
L 199.089851 336.810471 
L 200.161257 335.824171 
L 200.854361 334.543427 
L 201.094054 333.107027 
" style="fill:none;stroke:#ff0000;stroke-linecap:square;stroke-width:1.5;"/>
   </g>
   <g id="line2d_30">
    <path clip-path="url(#pa518caf6c3)" d="M 268.657297 389.40973 
L 267.807477 384.317038 
L 265.350109 379.776218 
L 261.551485 376.279339 
L 256.823247 374.205342 
L 251.677772 373.778975 
L 246.672652 375.046444 
L 242.350269 377.870397 
L 239.179021 381.944816 
L 237.502562 386.828175 
L 237.502562 391.991285 
L 239.179021 396.874643 
L 242.350269 400.949062 
L 246.672652 403.773016 
L 251.677772 405.040484 
L 256.823247 404.614118 
L 261.551485 402.54012 
L 265.350109 399.043241 
L 267.807477 394.502422 
L 268.657297 389.40973 
" style="fill:none;stroke:#000000;stroke-dasharray:5.55,2.4;stroke-dashoffset:0;stroke-width:1.5;"/>
   </g>
   <g id="line2d_31">
    <path clip-path="url(#pa518caf6c3)" d="M 257.396757 389.40973 
L 257.157064 387.973329 
L 256.46396 386.692585 
L 255.392553 385.706286 
L 254.058948 385.121313 
L 252.60766 385.001055 
L 251.195959 385.358547 
L 249.976826 386.155046 
L 249.082371 387.304241 
L 248.609524 388.681599 
L 248.609524 390.137861 
L 249.082371 391.515218 
L 249.976826 392.664413 
L 251.195959 393.460913 
L 252.60766 393.818404 
L 254.058948 393.698147 
L 255.392553 393.113173 
L 256.46396 392.126874 
L 257.157064 390.84613 
L 257.396757 389.40973 
" style="fill:none;stroke:#ff0000;stroke-linecap:square;stroke-width:1.5;"/>
   </g>
   <g id="line2d_32">
    <path clip-path="url(#pa518caf6c3)" d="M 268.657297 333.107027 
L 267.807477 328.014335 
L 265.350109 323.473516 
L 261.551485 319.976636 
L 256.823247 317.902639 
L 251.677772 317.476273 
L 246.672652 318.743741 
L 242.350269 321.567695 
L 239.179021 325.642114 
L 237.502562 330.525472 
L 237.502562 335.688582 
L 239.179021 340.57194 
L 242.350269 344.646359 
L 246.672652 347.470313 
L 251.677772 348.737781 
L 256.823247 348.311415 
L 261.551485 346.237418 
L 265.350109 342.740538 
L 267.807477 338.199719 
L 268.657297 333.107027 
" style="fill:none;stroke:#000000;stroke-dasharray:5.55,2.4;stroke-dashoffset:0;stroke-width:1.5;"/>
   </g>
   <g id="line2d_33">
    <path clip-path="url(#pa518caf6c3)" d="M 257.396757 333.107027 
L 257.157064 331.670627 
L 256.46396 330.389883 
L 255.392553 329.403584 
L 254.058948 328.81861 
L 252.60766 328.698353 
L 251.195959 329.055844 
L 249.976826 329.852344 
L 249.082371 331.001539 
L 248.609524 332.378896 
L 248.609524 333.835158 
L 249.082371 335.212515 
L 249.976826 336.361711 
L 251.195959 337.15821 
L 252.60766 337.515701 
L 254.058948 337.395444 
L 255.392553 336.810471 
L 256.46396 335.824171 
L 257.157064 334.543427 
L 257.396757 333.107027 
" style="fill:none;stroke:#ff0000;stroke-linecap:square;stroke-width:1.5;"/>
   </g>
   <g id="line2d_34">
    <path clip-path="url(#pa518caf6c3)" d="M 324.96 389.40973 
L 324.11018 384.317038 
L 321.652811 379.776218 
L 317.854188 376.279339 
L 313.12595 374.205342 
L 307.980474 373.778975 
L 302.975354 375.046444 
L 298.652972 377.870397 
L 295.481724 381.944816 
L 293.805265 386.828175 
L 293.805265 391.991285 
L 295.481724 396.874643 
L 298.652972 400.949062 
L 302.975354 403.773016 
L 307.980474 405.040484 
L 313.12595 404.614118 
L 317.854188 402.54012 
L 321.652811 399.043241 
L 324.11018 394.502422 
L 324.96 389.40973 
" style="fill:none;stroke:#000000;stroke-dasharray:5.55,2.4;stroke-dashoffset:0;stroke-width:1.5;"/>
   </g>
   <g id="line2d_35">
    <path clip-path="url(#pa518caf6c3)" d="M 313.699459 389.40973 
L 313.459767 387.973329 
L 312.766663 386.692585 
L 311.695256 385.706286 
L 310.36165 385.121313 
L 308.910363 385.001055 
L 307.498662 385.358547 
L 306.279528 386.155046 
L 305.385074 387.304241 
L 304.912227 388.681599 
L 304.912227 390.137861 
L 305.385074 391.515218 
L 306.279528 392.664413 
L 307.498662 393.460913 
L 308.910363 393.818404 
L 310.36165 393.698147 
L 311.695256 393.113173 
L 312.766663 392.126874 
L 313.459767 390.84613 
L 313.699459 389.40973 
" style="fill:none;stroke:#ff0000;stroke-linecap:square;stroke-width:1.5;"/>
   </g>
   <g id="line2d_36">
    <path clip-path="url(#pa518caf6c3)" d="M 324.96 333.107027 
L 324.11018 328.014335 
L 321.652811 323.473516 
L 317.854188 319.976636 
L 313.12595 317.902639 
L 307.980474 317.476273 
L 302.975354 318.743741 
L 298.652972 321.567695 
L 295.481724 325.642114 
L 293.805265 330.525472 
L 293.805265 335.688582 
L 295.481724 340.57194 
L 298.652972 344.646359 
L 302.975354 347.470313 
L 307.980474 348.737781 
L 313.12595 348.311415 
L 317.854188 346.237418 
L 321.652811 342.740538 
L 324.11018 338.199719 
L 324.96 333.107027 
" style="fill:none;stroke:#000000;stroke-dasharray:5.55,2.4;stroke-dashoffset:0;stroke-width:1.5;"/>
   </g>
   <g id="line2d_37">
    <path clip-path="url(#pa518caf6c3)" d="M 313.699459 333.107027 
L 313.459767 331.670627 
L 312.766663 330.389883 
L 311.695256 329.403584 
L 310.36165 328.81861 
L 308.910363 328.698353 
L 307.498662 329.055844 
L 306.279528 329.852344 
L 305.385074 331.001539 
L 304.912227 332.378896 
L 304.912227 333.835158 
L 305.385074 335.212515 
L 306.279528 336.361711 
L 307.498662 337.15821 
L 308.910363 337.515701 
L 310.36165 337.395444 
L 311.695256 336.810471 
L 312.766663 335.824171 
L 313.459767 334.543427 
L 313.699459 333.107027 
" style="fill:none;stroke:#ff0000;stroke-linecap:square;stroke-width:1.5;"/>
   </g>
   <g id="line2d_38">
    <path clip-path="url(#pa518caf6c3)" d="M 381.262703 389.40973 
L 380.412883 384.317038 
L 377.955514 379.776218 
L 374.156891 376.279339 
L 369.428652 374.205342 
L 364.283177 373.778975 
L 359.278057 375.046444 
L 354.955675 377.870397 
L 351.784427 381.944816 
L 350.107968 386.828175 
L 350.107968 391.991285 
L 351.784427 396.874643 
L 354.955675 400.949062 
L 359.278057 403.773016 
L 364.283177 405.040484 
L 369.428652 404.614118 
L 374.156891 402.54012 
L 377.955514 399.043241 
L 380.412883 394.502422 
L 381.262703 389.40973 
" style="fill:none;stroke:#000000;stroke-dasharray:5.55,2.4;stroke-dashoffset:0;stroke-width:1.5;"/>
   </g>
   <g id="line2d_39">
    <path clip-path="url(#pa518caf6c3)" d="M 370.002162 389.40973 
L 369.762469 387.973329 
L 369.069365 386.692585 
L 367.997959 385.706286 
L 366.664353 385.121313 
L 365.213065 385.001055 
L 363.801365 385.358547 
L 362.582231 386.155046 
L 361.687777 387.304241 
L 361.214929 388.681599 
L 361.214929 390.137861 
L 361.687777 391.515218 
L 362.582231 392.664413 
L 363.801365 393.460913 
L 365.213065 393.818404 
L 366.664353 393.698147 
L 367.997959 393.113173 
L 369.069365 392.126874 
L 369.762469 390.84613 
L 370.002162 389.40973 
" style="fill:none;stroke:#ff0000;stroke-linecap:square;stroke-width:1.5;"/>
   </g>
   <g id="line2d_40">
    <path clip-path="url(#pa518caf6c3)" d="M 381.262703 333.107027 
L 380.412883 328.014335 
L 377.955514 323.473516 
L 374.156891 319.976636 
L 369.428652 317.902639 
L 364.283177 317.476273 
L 359.278057 318.743741 
L 354.955675 321.567695 
L 351.784427 325.642114 
L 350.107968 330.525472 
L 350.107968 335.688582 
L 351.784427 340.57194 
L 354.955675 344.646359 
L 359.278057 347.470313 
L 364.283177 348.737781 
L 369.428652 348.311415 
L 374.156891 346.237418 
L 377.955514 342.740538 
L 380.412883 338.199719 
L 381.262703 333.107027 
" style="fill:none;stroke:#000000;stroke-dasharray:5.55,2.4;stroke-dashoffset:0;stroke-width:1.5;"/>
   </g>
   <g id="line2d_41">
    <path clip-path="url(#pa518caf6c3)" d="M 370.002162 333.107027 
L 369.762469 331.670627 
L 369.069365 330.389883 
L 367.997959 329.403584 
L 366.664353 328.81861 
L 365.213065 328.698353 
L 363.801365 329.055844 
L 362.582231 329.852344 
L 361.687777 331.001539 
L 361.214929 332.378896 
L 361.214929 333.835158 
L 361.687777 335.212515 
L 362.582231 336.361711 
L 363.801365 337.15821 
L 365.213065 337.515701 
L 366.664353 337.395444 
L 367.997959 336.810471 
L 369.069365 335.824171 
L 369.762469 334.543427 
L 370.002162 333.107027 
" style="fill:none;stroke:#ff0000;stroke-linecap:square;stroke-width:1.5;"/>
   </g>
   <g id="line2d_42">
    <path clip-path="url(#pa518caf6c3)" d="M 437.565405 389.40973 
L 436.715585 384.317038 
L 434.258217 379.776218 
L 430.459593 376.279339 
L 425.731355 374.205342 
L 420.58588 373.778975 
L 415.58076 375.046444 
L 411.258377 377.870397 
L 408.08713 381.944816 
L 406.41067 386.828175 
L 406.41067 391.991285 
L 408.08713 396.874643 
L 411.258377 400.949062 
L 415.58076 403.773016 
L 420.58588 405.040484 
L 425.731355 404.614118 
L 430.459593 402.54012 
L 434.258217 399.043241 
L 436.715585 394.502422 
L 437.565405 389.40973 
" style="fill:none;stroke:#000000;stroke-dasharray:5.55,2.4;stroke-dashoffset:0;stroke-width:1.5;"/>
   </g>
   <g id="line2d_43">
    <path clip-path="url(#pa518caf6c3)" d="M 426.304865 389.40973 
L 426.065172 387.973329 
L 425.372068 386.692585 
L 424.300661 385.706286 
L 422.967056 385.121313 
L 421.515768 385.001055 
L 420.104067 385.358547 
L 418.884934 386.155046 
L 417.990479 387.304241 
L 417.517632 388.681599 
L 417.517632 390.137861 
L 417.990479 391.515218 
L 418.884934 392.664413 
L 420.104067 393.460913 
L 421.515768 393.818404 
L 422.967056 393.698147 
L 424.300661 393.113173 
L 425.372068 392.126874 
L 426.065172 390.84613 
L 426.304865 389.40973 
" style="fill:none;stroke:#ff0000;stroke-linecap:square;stroke-width:1.5;"/>
   </g>
   <g id="line2d_44">
    <path clip-path="url(#pa518caf6c3)" d="M 437.565405 333.107027 
L 436.715585 328.014335 
L 434.258217 323.473516 
L 430.459593 319.976636 
L 425.731355 317.902639 
L 420.58588 317.476273 
L 415.58076 318.743741 
L 411.258377 321.567695 
L 408.08713 325.642114 
L 406.41067 330.525472 
L 406.41067 335.688582 
L 408.08713 340.57194 
L 411.258377 344.646359 
L 415.58076 347.470313 
L 420.58588 348.737781 
L 425.731355 348.311415 
L 430.459593 346.237418 
L 434.258217 342.740538 
L 436.715585 338.199719 
L 437.565405 333.107027 
" style="fill:none;stroke:#000000;stroke-dasharray:5.55,2.4;stroke-dashoffset:0;stroke-width:1.5;"/>
   </g>
   <g id="line2d_45">
    <path clip-path="url(#pa518caf6c3)" d="M 426.304865 333.107027 
L 426.065172 331.670627 
L 425.372068 330.389883 
L 424.300661 329.403584 
L 422.967056 328.81861 
L 421.515768 328.698353 
L 420.104067 329.055844 
L 418.884934 329.852344 
L 417.990479 331.001539 
L 417.517632 332.378896 
L 417.517632 333.835158 
L 417.990479 335.212515 
L 418.884934 336.361711 
L 420.104067 337.15821 
L 421.515768 337.515701 
L 422.967056 337.395444 
L 424.300661 336.810471 
L 425.372068 335.824171 
L 426.065172 334.543427 
L 426.304865 333.107027 
" style="fill:none;stroke:#ff0000;stroke-linecap:square;stroke-width:1.5;"/>
   </g>
   <g id="line2d_46">
    <path clip-path="url(#pa518caf6c3)" d="M 212.354595 220.501622 
L 211.504775 215.40893 
L 209.047406 210.86811 
L 205.248783 207.371231 
L 200.520544 205.297233 
L 195.375069 204.870867 
L 190.369949 206.138336 
L 186.047566 208.962289 
L 182.876319 213.036708 
L 181.19986 217.920067 
L 181.19986 223.083177 
L 182.876319 227.966535 
L 186.047566 232.040954 
L 190.369949 234.864907 
L 195.375069 236.132376 
L 200.520544 235.70601 
L 205.248783 233.632012 
L 209.047406 230.135133 
L 211.504775 225.594313 
L 212.354595 220.501622 
" style="fill:none;stroke:#000000;stroke-dasharray:5.55,2.4;stroke-dashoffset:0;stroke-width:1.5;"/>
   </g>
   <g id="line2d_47">
    <path clip-path="url(#pa518caf6c3)" d="M 201.094054 220.501622 
L 200.854361 219.065221 
L 200.161257 217.784477 
L 199.089851 216.798178 
L 197.756245 216.213204 
L 196.304957 216.092947 
L 194.893257 216.450438 
L 193.674123 217.246938 
L 192.779669 218.396133 
L 192.306821 219.773491 
L 192.306821 221.229753 
L 192.779669 222.60711 
L 193.674123 223.756305 
L 194.893257 224.552805 
L 196.304957 224.910296 
L 197.756245 224.790039 
L 199.089851 224.205065 
L 200.161257 223.218766 
L 200.854361 221.938022 
L 201.094054 220.501622 
" style="fill:none;stroke:#ff0000;stroke-linecap:square;stroke-width:1.5;"/>
   </g>
   <g id="line2d_48">
    <path clip-path="url(#pa518caf6c3)" d="M 212.354595 164.198919 
L 211.504775 159.106227 
L 209.047406 154.565408 
L 205.248783 151.068528 
L 200.520544 148.994531 
L 195.375069 148.568165 
L 190.369949 149.835633 
L 186.047566 152.659586 
L 182.876319 156.734006 
L 181.19986 161.617364 
L 181.19986 166.780474 
L 182.876319 171.663832 
L 186.047566 175.738251 
L 190.369949 178.562205 
L 195.375069 179.829673 
L 200.520544 179.403307 
L 205.248783 177.329309 
L 209.047406 173.83243 
L 211.504775 169.291611 
L 212.354595 164.198919 
" style="fill:none;stroke:#000000;stroke-dasharray:5.55,2.4;stroke-dashoffset:0;stroke-width:1.5;"/>
   </g>
   <g id="line2d_49">
    <path clip-path="url(#pa518caf6c3)" d="M 201.094054 164.198919 
L 200.854361 162.762519 
L 200.161257 161.481775 
L 199.089851 160.495475 
L 197.756245 159.910502 
L 196.304957 159.790245 
L 194.893257 160.147736 
L 193.674123 160.944235 
L 192.779669 162.093431 
L 192.306821 163.470788 
L 192.306821 164.92705 
L 192.779669 166.304407 
L 193.674123 167.453602 
L 194.893257 168.250102 
L 196.304957 168.607593 
L 197.756245 168.487336 
L 199.089851 167.902362 
L 200.161257 166.916063 
L 200.854361 165.635319 
L 201.094054 164.198919 
" style="fill:none;stroke:#ff0000;stroke-linecap:square;stroke-width:1.5;"/>
   </g>
   <g id="line2d_50">
    <path clip-path="url(#pa518caf6c3)" d="M 268.657297 220.501622 
L 267.807477 215.40893 
L 265.350109 210.86811 
L 261.551485 207.371231 
L 256.823247 205.297233 
L 251.677772 204.870867 
L 246.672652 206.138336 
L 242.350269 208.962289 
L 239.179021 213.036708 
L 237.502562 217.920067 
L 237.502562 223.083177 
L 239.179021 227.966535 
L 242.350269 232.040954 
L 246.672652 234.864907 
L 251.677772 236.132376 
L 256.823247 235.70601 
L 261.551485 233.632012 
L 265.350109 230.135133 
L 267.807477 225.594313 
L 268.657297 220.501622 
" style="fill:none;stroke:#000000;stroke-dasharray:5.55,2.4;stroke-dashoffset:0;stroke-width:1.5;"/>
   </g>
   <g id="line2d_51">
    <path clip-path="url(#pa518caf6c3)" d="M 257.396757 220.501622 
L 257.157064 219.065221 
L 256.46396 217.784477 
L 255.392553 216.798178 
L 254.058948 216.213204 
L 252.60766 216.092947 
L 251.195959 216.450438 
L 249.976826 217.246938 
L 249.082371 218.396133 
L 248.609524 219.773491 
L 248.609524 221.229753 
L 249.082371 222.60711 
L 249.976826 223.756305 
L 251.195959 224.552805 
L 252.60766 224.910296 
L 254.058948 224.790039 
L 255.392553 224.205065 
L 256.46396 223.218766 
L 257.157064 221.938022 
L 257.396757 220.501622 
" style="fill:none;stroke:#ff0000;stroke-linecap:square;stroke-width:1.5;"/>
   </g>
   <g id="line2d_52">
    <path clip-path="url(#pa518caf6c3)" d="M 268.657297 164.198919 
L 267.807477 159.106227 
L 265.350109 154.565408 
L 261.551485 151.068528 
L 256.823247 148.994531 
L 251.677772 148.568165 
L 246.672652 149.835633 
L 242.350269 152.659586 
L 239.179021 156.734006 
L 237.502562 161.617364 
L 237.502562 166.780474 
L 239.179021 171.663832 
L 242.350269 175.738251 
L 246.672652 178.562205 
L 251.677772 179.829673 
L 256.823247 179.403307 
L 261.551485 177.329309 
L 265.350109 173.83243 
L 267.807477 169.291611 
L 268.657297 164.198919 
" style="fill:none;stroke:#000000;stroke-dasharray:5.55,2.4;stroke-dashoffset:0;stroke-width:1.5;"/>
   </g>
   <g id="line2d_53">
    <path clip-path="url(#pa518caf6c3)" d="M 257.396757 164.198919 
L 257.157064 162.762519 
L 256.46396 161.481775 
L 255.392553 160.495475 
L 254.058948 159.910502 
L 252.60766 159.790245 
L 251.195959 160.147736 
L 249.976826 160.944235 
L 249.082371 162.093431 
L 248.609524 163.470788 
L 248.609524 164.92705 
L 249.082371 166.304407 
L 249.976826 167.453602 
L 251.195959 168.250102 
L 252.60766 168.607593 
L 254.058948 168.487336 
L 255.392553 167.902362 
L 256.46396 166.916063 
L 257.157064 165.635319 
L 257.396757 164.198919 
" style="fill:none;stroke:#ff0000;stroke-linecap:square;stroke-width:1.5;"/>
   </g>
   <g id="line2d_54">
    <path clip-path="url(#pa518caf6c3)" d="M 324.96 220.501622 
L 324.11018 215.40893 
L 321.652811 210.86811 
L 317.854188 207.371231 
L 313.12595 205.297233 
L 307.980474 204.870867 
L 302.975354 206.138336 
L 298.652972 208.962289 
L 295.481724 213.036708 
L 293.805265 217.920067 
L 293.805265 223.083177 
L 295.481724 227.966535 
L 298.652972 232.040954 
L 302.975354 234.864907 
L 307.980474 236.132376 
L 313.12595 235.70601 
L 317.854188 233.632012 
L 321.652811 230.135133 
L 324.11018 225.594313 
L 324.96 220.501622 
" style="fill:none;stroke:#000000;stroke-dasharray:5.55,2.4;stroke-dashoffset:0;stroke-width:1.5;"/>
   </g>
   <g id="line2d_55">
    <path clip-path="url(#pa518caf6c3)" d="M 313.699459 220.501622 
L 313.459767 219.065221 
L 312.766663 217.784477 
L 311.695256 216.798178 
L 310.36165 216.213204 
L 308.910363 216.092947 
L 307.498662 216.450438 
L 306.279528 217.246938 
L 305.385074 218.396133 
L 304.912227 219.773491 
L 304.912227 221.229753 
L 305.385074 222.60711 
L 306.279528 223.756305 
L 307.498662 224.552805 
L 308.910363 224.910296 
L 310.36165 224.790039 
L 311.695256 224.205065 
L 312.766663 223.218766 
L 313.459767 221.938022 
L 313.699459 220.501622 
" style="fill:none;stroke:#ff0000;stroke-linecap:square;stroke-width:1.5;"/>
   </g>
   <g id="line2d_56">
    <path clip-path="url(#pa518caf6c3)" d="M 324.96 164.198919 
L 324.11018 159.106227 
L 321.652811 154.565408 
L 317.854188 151.068528 
L 313.12595 148.994531 
L 307.980474 148.568165 
L 302.975354 149.835633 
L 298.652972 152.659586 
L 295.481724 156.734006 
L 293.805265 161.617364 
L 293.805265 166.780474 
L 295.481724 171.663832 
L 298.652972 175.738251 
L 302.975354 178.562205 
L 307.980474 179.829673 
L 313.12595 179.403307 
L 317.854188 177.329309 
L 321.652811 173.83243 
L 324.11018 169.291611 
L 324.96 164.198919 
" style="fill:none;stroke:#000000;stroke-dasharray:5.55,2.4;stroke-dashoffset:0;stroke-width:1.5;"/>
   </g>
   <g id="line2d_57">
    <path clip-path="url(#pa518caf6c3)" d="M 313.699459 164.198919 
L 313.459767 162.762519 
L 312.766663 161.481775 
L 311.695256 160.495475 
L 310.36165 159.910502 
L 308.910363 159.790245 
L 307.498662 160.147736 
L 306.279528 160.944235 
L 305.385074 162.093431 
L 304.912227 163.470788 
L 304.912227 164.92705 
L 305.385074 166.304407 
L 306.279528 167.453602 
L 307.498662 168.250102 
L 308.910363 168.607593 
L 310.36165 168.487336 
L 311.695256 167.902362 
L 312.766663 166.916063 
L 313.459767 165.635319 
L 313.699459 164.198919 
" style="fill:none;stroke:#ff0000;stroke-linecap:square;stroke-width:1.5;"/>
   </g>
   <g id="line2d_58">
    <path clip-path="url(#pa518caf6c3)" d="M 381.262703 220.501622 
L 380.412883 215.40893 
L 377.955514 210.86811 
L 374.156891 207.371231 
L 369.428652 205.297233 
L 364.283177 204.870867 
L 359.278057 206.138336 
L 354.955675 208.962289 
L 351.784427 213.036708 
L 350.107968 217.920067 
L 350.107968 223.083177 
L 351.784427 227.966535 
L 354.955675 232.040954 
L 359.278057 234.864907 
L 364.283177 236.132376 
L 369.428652 235.70601 
L 374.156891 233.632012 
L 377.955514 230.135133 
L 380.412883 225.594313 
L 381.262703 220.501622 
" style="fill:none;stroke:#000000;stroke-dasharray:5.55,2.4;stroke-dashoffset:0;stroke-width:1.5;"/>
   </g>
   <g id="line2d_59">
    <path clip-path="url(#pa518caf6c3)" d="M 370.002162 220.501622 
L 369.762469 219.065221 
L 369.069365 217.784477 
L 367.997959 216.798178 
L 366.664353 216.213204 
L 365.213065 216.092947 
L 363.801365 216.450438 
L 362.582231 217.246938 
L 361.687777 218.396133 
L 361.214929 219.773491 
L 361.214929 221.229753 
L 361.687777 222.60711 
L 362.582231 223.756305 
L 363.801365 224.552805 
L 365.213065 224.910296 
L 366.664353 224.790039 
L 367.997959 224.205065 
L 369.069365 223.218766 
L 369.762469 221.938022 
L 370.002162 220.501622 
" style="fill:none;stroke:#ff0000;stroke-linecap:square;stroke-width:1.5;"/>
   </g>
   <g id="line2d_60">
    <path clip-path="url(#pa518caf6c3)" d="M 381.262703 164.198919 
L 380.412883 159.106227 
L 377.955514 154.565408 
L 374.156891 151.068528 
L 369.428652 148.994531 
L 364.283177 148.568165 
L 359.278057 149.835633 
L 354.955675 152.659586 
L 351.784427 156.734006 
L 350.107968 161.617364 
L 350.107968 166.780474 
L 351.784427 171.663832 
L 354.955675 175.738251 
L 359.278057 178.562205 
L 364.283177 179.829673 
L 369.428652 179.403307 
L 374.156891 177.329309 
L 377.955514 173.83243 
L 380.412883 169.291611 
L 381.262703 164.198919 
" style="fill:none;stroke:#000000;stroke-dasharray:5.55,2.4;stroke-dashoffset:0;stroke-width:1.5;"/>
   </g>
   <g id="line2d_61">
    <path clip-path="url(#pa518caf6c3)" d="M 370.002162 164.198919 
L 369.762469 162.762519 
L 369.069365 161.481775 
L 367.997959 160.495475 
L 366.664353 159.910502 
L 365.213065 159.790245 
L 363.801365 160.147736 
L 362.582231 160.944235 
L 361.687777 162.093431 
L 361.214929 163.470788 
L 361.214929 164.92705 
L 361.687777 166.304407 
L 362.582231 167.453602 
L 363.801365 168.250102 
L 365.213065 168.607593 
L 366.664353 168.487336 
L 367.997959 167.902362 
L 369.069365 166.916063 
L 369.762469 165.635319 
L 370.002162 164.198919 
" style="fill:none;stroke:#ff0000;stroke-linecap:square;stroke-width:1.5;"/>
   </g>
   <g id="line2d_62">
    <path clip-path="url(#pa518caf6c3)" d="M 437.565405 220.501622 
L 436.715585 215.40893 
L 434.258217 210.86811 
L 430.459593 207.371231 
L 425.731355 205.297233 
L 420.58588 204.870867 
L 415.58076 206.138336 
L 411.258377 208.962289 
L 408.08713 213.036708 
L 406.41067 217.920067 
L 406.41067 223.083177 
L 408.08713 227.966535 
L 411.258377 232.040954 
L 415.58076 234.864907 
L 420.58588 236.132376 
L 425.731355 235.70601 
L 430.459593 233.632012 
L 434.258217 230.135133 
L 436.715585 225.594313 
L 437.565405 220.501622 
" style="fill:none;stroke:#000000;stroke-dasharray:5.55,2.4;stroke-dashoffset:0;stroke-width:1.5;"/>
   </g>
   <g id="line2d_63">
    <path clip-path="url(#pa518caf6c3)" d="M 426.304865 220.501622 
L 426.065172 219.065221 
L 425.372068 217.784477 
L 424.300661 216.798178 
L 422.967056 216.213204 
L 421.515768 216.092947 
L 420.104067 216.450438 
L 418.884934 217.246938 
L 417.990479 218.396133 
L 417.517632 219.773491 
L 417.517632 221.229753 
L 417.990479 222.60711 
L 418.884934 223.756305 
L 420.104067 224.552805 
L 421.515768 224.910296 
L 422.967056 224.790039 
L 424.300661 224.205065 
L 425.372068 223.218766 
L 426.065172 221.938022 
L 426.304865 220.501622 
" style="fill:none;stroke:#ff0000;stroke-linecap:square;stroke-width:1.5;"/>
   </g>
   <g id="line2d_64">
    <path clip-path="url(#pa518caf6c3)" d="M 437.565405 164.198919 
L 436.715585 159.106227 
L 434.258217 154.565408 
L 430.459593 151.068528 
L 425.731355 148.994531 
L 420.58588 148.568165 
L 415.58076 149.835633 
L 411.258377 152.659586 
L 408.08713 156.734006 
L 406.41067 161.617364 
L 406.41067 166.780474 
L 408.08713 171.663832 
L 411.258377 175.738251 
L 415.58076 178.562205 
L 420.58588 179.829673 
L 425.731355 179.403307 
L 430.459593 177.329309 
L 434.258217 173.83243 
L 436.715585 169.291611 
L 437.565405 164.198919 
" style="fill:none;stroke:#000000;stroke-dasharray:5.55,2.4;stroke-dashoffset:0;stroke-width:1.5;"/>
   </g>
   <g id="line2d_65">
    <path clip-path="url(#pa518caf6c3)" d="M 426.304865 164.198919 
L 426.065172 162.762519 
L 425.372068 161.481775 
L 424.300661 160.495475 
L 422.967056 159.910502 
L 421.515768 159.790245 
L 420.104067 160.147736 
L 418.884934 160.944235 
L 417.990479 162.093431 
L 417.517632 163.470788 
L 417.517632 164.92705 
L 417.990479 166.304407 
L 418.884934 167.453602 
L 420.104067 168.250102 
L 421.515768 168.607593 
L 422.967056 168.487336 
L 424.300661 167.902362 
L 425.372068 166.916063 
L 426.065172 165.635319 
L 426.304865 164.198919 
" style="fill:none;stroke:#ff0000;stroke-linecap:square;stroke-width:1.5;"/>
   </g>
   <g id="line2d_66">
    <path clip-path="url(#pa518caf6c3)" d="M 92.108108 493.971892 
L 92.108108 87.788108 
" style="fill:none;stroke:#000000;stroke-linecap:square;stroke-width:4;"/>
   </g>
   <g id="line2d_67">
    <path clip-path="url(#pa518caf6c3)" d="M 92.108108 87.788108 
L 498.291892 87.788108 
" style="fill:none;stroke:#000000;stroke-linecap:square;stroke-width:4;"/>
   </g>
   <g id="line2d_68">
    <path clip-path="url(#pa518caf6c3)" d="M 498.291892 87.788108 
L 498.291892 493.971892 
" style="fill:none;stroke:#000000;stroke-linecap:square;stroke-width:4;"/>
   </g>
   <g id="line2d_69">
    <path clip-path="url(#pa518caf6c3)" d="M 498.291892 493.971892 
L 92.108108 493.971892 
" style="fill:none;stroke:#000000;stroke-linecap:square;stroke-width:4;"/>
   </g>
   <g id="line2d_70">
    <path clip-path="url(#pa518caf6c3)" d="M 140.367568 389.40973 
L 141.815351 389.329297 
L 143.544649 388.927135 
L 145.555459 387.801081 
L 146.440216 387.036973 
L 149.215135 384.101189 
L 150.260757 383.256649 
L 155.609514 379.516541 
L 159.510486 376.259027 
L 165.663568 371.55373 
L 169.202595 368.698378 
L 172.419892 366.245189 
L 179.980541 360.252973 
L 186.736865 354.984649 
L 188.868324 353.335784 
L 192.326919 350.761946 
L 194.820324 349.193514 
L 196.067027 348.59027 
L 197.675676 348.067459 
L 199.043027 347.866378 
L 200.450595 347.866378 
L 201.817946 348.147892 
L 206.161297 349.635892 
L 207.408 349.756541 
L 208.936216 349.635892 
L 209.941622 349.394595 
L 211.107892 348.912 
L 212.233946 348.228324 
L 214.244757 346.499027 
L 216.255568 344.729514 
L 222.288 340.265514 
L 231.939892 331.779892 
L 234.232216 329.568 
L 236.041946 327.637622 
L 237.449514 325.747459 
L 238.374486 323.857297 
L 239.098378 321.886703 
L 239.983135 319.353081 
L 240.626595 317.824865 
L 241.752649 315.934703 
L 242.396108 315.049946 
L 244.366703 312.838054 
L 247.664432 309.660973 
L 251.927351 305.920865 
L 276.17773 286.456216 
L 281.566703 282.555243 
L 282.612324 281.992216 
L 284.824216 281.228108 
L 286.553514 280.705297 
L 287.639351 280.102054 
L 288.041514 279.619459 
L 288.282811 279.096649 
L 288.443676 278.372757 
L 288.443676 276.804324 
L 287.880649 274.552216 
L 287.076324 272.018595 
L 286.875243 270.731676 
L 286.875243 269.123027 
L 287.277405 267.273081 
L 287.679568 266.026378 
L 288.805622 263.734054 
L 290.012108 261.642811 
L 291.459892 259.430919 
L 292.54573 257.942919 
L 294.234811 255.891892 
L 298.457514 251.749622 
L 302.438919 248.411676 
L 306.259459 245.355243 
L 311.407135 241.776 
L 313.739676 240.529297 
L 315.670054 239.684757 
L 317.52 239.081514 
L 321.461189 238.076108 
L 324.115459 237.392432 
L 326.448 236.628324 
L 328.056649 236.025081 
L 331.314162 234.456649 
L 334.20973 232.807784 
L 339.558486 229.429622 
L 343.379027 226.855784 
L 346.837622 224.281946 
L 347.682162 223.437405 
L 348.003892 222.954811 
L 348.044108 222.351568 
L 348.003892 221.748324 
L 347.762595 220.823351 
L 346.676757 218.892973 
L 345.590919 217.163676 
L 344.947459 215.474595 
L 344.786595 214.428973 
L 344.746378 213.584432 
L 344.987676 211.935568 
L 345.792 209.964973 
L 346.395243 208.919351 
L 348.727784 206.104216 
L 351.703784 203.248865 
L 352.628757 202.444541 
L 356.288432 199.428324 
L 360.269838 196.774054 
L 363.245838 195.286054 
L 365.417514 194.441514 
L 369.801081 193.235027 
L 374.707459 192.511135 
L 376.919351 192.310054 
L 380.33773 192.149189 
L 384.118054 192.068757 
L 391.759135 192.108973 
L 391.759135 192.108973 
" style="fill:none;stroke:#8000ff;stroke-linecap:square;stroke-width:1.5;"/>
   </g>
   <g id="line2d_71">
    <path clip-path="url(#pa518caf6c3)" d="M 450.032432 192.35027 
L 450.233514 192.430703 
L 450.354162 192.591568 
L 450.434595 192.752432 
L 450.515027 194.200216 
L 450.313946 195.768649 
L 449.871568 197.095784 
L 449.228108 198.342486 
L 448.383568 199.468541 
L 447.579243 200.232649 
L 446.252108 201.197838 
L 440.943568 204.214054 
L 435.996973 208.356324 
L 431.734054 210.970378 
L 430.205838 211.774703 
L 429.884108 211.493189 
L 429.602595 211.010595 
L 429.12 209.763892 
L 428.838486 208.115027 
L 428.838486 206.425946 
L 429.321081 204.25427 
L 429.602595 203.088 
L 429.642811 203.289081 
L 429.763459 203.40973 
L 429.683027 203.369514 
L 429.481946 203.289081 
L 428.878703 203.208649 
L 427.792865 203.40973 
L 426.385297 203.972757 
L 425.219027 204.656432 
L 422.966919 206.184649 
L 421.840865 206.667243 
L 420.674595 206.948757 
L 419.307243 206.948757 
L 417.658378 206.667243 
L 416.371459 206.184649 
L 415.164973 205.500973 
L 413.194378 204.133622 
L 412.028108 203.449946 
L 410.580324 202.967351 
L 409.293405 202.76627 
L 408.006486 202.806486 
L 406.518486 203.128216 
L 405.312 203.610811 
L 404.025081 204.455351 
L 402.336 206.184649 
L 400.445838 208.235676 
L 399.440432 209.160649 
L 395.137297 212.377946 
L 391.718919 215.394162 
L 384.037622 222.432 
L 381.986595 224.844973 
L 381.262703 225.930811 
L 380.619243 227.097081 
L 380.096432 228.544865 
L 379.774703 230.073081 
L 379.452973 234.054486 
L 379.010595 235.663135 
L 378.568216 236.668541 
L 377.603027 238.076108 
L 376.476973 239.242378 
L 371.610811 243.465081 
L 367.870703 246.923676 
L 362.441514 251.347459 
L 347.802811 263.050378 
L 342.574703 267.273081 
L 339.598703 269.887135 
L 338.150919 271.455568 
L 336.703135 273.587027 
L 335.778162 275.758703 
L 333.807568 281.067243 
L 330.429405 288.064865 
L 328.619676 291.161514 
L 327.413189 292.810378 
L 326.045838 294.17773 
L 325.000216 294.821189 
L 324.195892 294.740757 
L 323.552432 294.539676 
L 322.788324 294.097297 
L 320.013405 292.126703 
L 319.209081 291.925622 
L 317.439568 292.006054 
L 316.152649 292.247351 
L 313.779892 292.931027 
L 311.728865 293.373405 
L 310.240865 294.016865 
L 308.994162 294.861405 
L 308.069189 295.66573 
L 306.862703 296.912432 
L 302.076973 302.663351 
L 300.066162 304.835027 
L 297.693405 307.087135 
L 295.240216 309.178378 
L 291.660973 311.953297 
L 274.247351 324.661622 
L 271.030054 327.275676 
L 270.306162 327.999568 
L 270.346378 327.959351 
L 270.145297 329.769081 
L 270.265946 330.372324 
L 270.547459 331.096216 
L 271.351784 332.342919 
L 273.161514 334.474378 
L 273.925622 335.680865 
L 274.327784 336.847135 
L 274.488649 338.093838 
L 274.448432 338.978595 
L 273.925622 340.908973 
L 273.684324 341.512216 
L 272.477838 343.523027 
L 271.271351 345.131676 
L 267.450811 349.193514 
L 262.343351 354.180324 
L 261.016216 355.266162 
L 258.281514 357.075892 
L 255.868541 358.322595 
L 253.696865 359.167135 
L 251.283892 359.931243 
L 247.825297 360.695351 
L 244.648216 361.13773 
L 238.495135 361.499676 
L 226.671568 361.499676 
L 226.671568 361.499676 
" style="fill:none;stroke:#1996f3;stroke-linecap:square;stroke-width:1.5;"/>
   </g>
   <g id="line2d_72">
    <path clip-path="url(#pa518caf6c3)" d="M 402.175135 440.082162 
L 401.974054 440.122378 
L 401.893622 440.243027 
L 401.933838 440.122378 
L 402.01427 439.760432 
L 401.974054 439.116973 
L 401.692541 438.232216 
L 401.008865 436.905081 
L 400.204541 435.859459 
L 397.389405 433.084541 
L 396.745946 432.199784 
L 393.810162 427.373838 
L 389.26573 421.421838 
L 386.209297 417.03827 
L 381.785514 410.965622 
L 378.528 406.380973 
L 373.661838 399.504 
L 373.299892 398.739892 
L 373.541189 398.498595 
L 373.782486 398.418162 
L 375.431351 398.418162 
L 376.597622 398.538811 
L 377.924757 398.820324 
L 379.573622 399.504 
L 382.549622 401.112649 
L 382.428973 401.072432 
L 382.147459 401.233297 
L 382.227892 401.072432 
L 382.630054 399.785514 
L 382.710486 398.257297 
L 382.549622 396.729081 
L 382.067027 395.281297 
L 381.343135 393.954162 
L 379.613838 391.581405 
L 378.729081 389.731459 
L 378.568216 389.128216 
L 378.568216 387.680432 
L 378.769297 386.594595 
L 379.131243 385.548973 
L 379.895351 384.060973 
L 380.377946 383.377297 
L 383.273514 380.16 
L 383.836541 379.074162 
L 384.118054 378.108973 
L 384.278919 376.902486 
L 384.238703 375.897081 
L 383.957189 374.368865 
L 383.353946 372.961297 
L 382.509405 371.674378 
L 381.865946 370.950486 
L 379.091027 368.497297 
L 378.166054 367.532108 
L 377.120432 366.245189 
L 375.552 364.033297 
L 373.380324 361.379027 
L 368.353297 355.829189 
L 363.96973 351.123892 
L 362.401297 349.756541 
L 361.315459 348.952216 
L 360.189405 348.308757 
L 358.982919 347.826162 
L 357.736216 347.544649 
L 356.449297 347.464216 
L 352.025514 347.544649 
L 350.658162 347.303351 
L 349.572324 346.941405 
L 348.124541 346.177297 
L 346.797405 345.091459 
L 345.188757 343.241514 
L 343.740973 341.311135 
L 340.724757 337.932973 
L 337.748757 334.434162 
L 332.440216 327.718054 
L 329.705514 324.018162 
L 323.230703 314.647784 
L 322.587243 314.004324 
L 321.943784 313.52173 
L 320.536216 312.87827 
L 319.32973 312.677189 
L 318.042811 312.677189 
L 316.514595 312.918486 
L 312.412541 314.406486 
L 309.798486 314.889081 
L 307.506162 314.848865 
L 306.862703 314.768432 
L 305.455135 314.285838 
L 303.605189 313.119568 
L 301.875892 311.269622 
L 300.347676 309.500108 
L 299.181405 308.454486 
L 297.894486 307.609946 
L 296.728216 307.046919 
L 293.993514 306.08173 
L 291.419676 305.156757 
L 288.323027 303.427459 
L 286.191568 301.778595 
L 283.979676 299.808 
L 280.963459 296.791784 
L 278.389622 293.815784 
L 276.941838 291.845189 
L 275.373405 289.432216 
L 274.086486 287.019243 
L 272.276757 282.756324 
L 266.807351 267.836108 
L 265.158486 263.975351 
L 263.348757 259.95373 
L 262.061838 257.219027 
L 259.16627 251.749622 
L 256.632649 247.164973 
L 255.707676 245.556324 
L 254.541405 243.545514 
L 252.088216 239.885838 
L 250.921946 238.759784 
L 249.715459 238.076108 
L 248.951351 237.915243 
L 248.106811 237.875027 
L 246.860108 238.035892 
L 243.160216 238.960865 
L 241.873297 239.041297 
L 239.540757 238.639135 
L 238.374486 238.196757 
L 236.685405 237.151135 
L 234.674595 235.341405 
L 233.347459 233.732757 
L 232.543135 232.606703 
L 231.216 230.515459 
L 229.245405 226.694919 
L 227.676973 222.673297 
L 226.591135 219.174486 
L 225.304216 212.418162 
L 224.620541 202.283676 
L 224.580324 194.401297 
L 224.580324 194.401297 
" style="fill:none;stroke:#4df3ce;stroke-linecap:square;stroke-width:1.5;"/>
   </g>
   <g id="line2d_73">
    <path clip-path="url(#pa518caf6c3)" d="M 224.821622 136.047568 
L 225.907459 136.087784 
L 227.154162 136.248649 
L 228.481297 136.650811 
L 230.210595 137.616 
L 231.055135 138.299676 
L 232.020324 139.345297 
L 233.387676 141.637622 
L 234.835459 144.211459 
L 236.243027 146.101622 
L 238.776649 149.117838 
L 241.471135 153.139459 
L 243.039568 155.632865 
L 243.562378 156.799135 
L 243.481946 157.000216 
L 242.355892 157.643676 
L 240.787459 158.206703 
L 239.942919 158.367568 
L 238.575568 158.448 
L 236.363676 158.448 
L 235.881081 158.488216 
L 235.961514 158.448 
L 235.720216 158.76973 
L 235.398486 159.453405 
L 235.116973 160.338162 
L 234.915892 161.584865 
L 234.915892 162.831568 
L 235.237622 164.359784 
L 235.800649 165.767351 
L 238.173405 169.990054 
L 238.575568 171.598703 
L 238.656 173.00627 
L 238.213622 177.47027 
L 238.33427 178.757189 
L 238.696216 179.963676 
L 239.259243 181.129946 
L 240.626595 182.939676 
L 243.522162 186.156973 
L 247.061189 190.86227 
L 255.024 199.910919 
L 257.075027 202.002162 
L 259.447784 204.093405 
L 260.734703 205.018378 
L 263.067243 206.224865 
L 265.801946 207.190054 
L 268.134486 208.034595 
L 269.622486 208.798703 
L 270.547459 209.401946 
L 272.397405 210.970378 
L 274.528865 213.101838 
L 278.832 217.847351 
L 284.140541 224.281946 
L 288.363243 229.831784 
L 290.856649 233.330595 
L 295.159784 239.483676 
L 296.848865 241.534703 
L 298.49773 243.223784 
L 299.382486 243.947676 
L 300.387892 244.591135 
L 301.755243 245.234595 
L 303.203027 245.717189 
L 306.339892 246.119351 
L 309.074595 246.521514 
L 311.447351 247.205189 
L 314.182054 248.411676 
L 316.554811 249.698595 
L 319.490595 251.588757 
L 322.547027 253.760432 
L 325.925189 256.294054 
L 331.877189 259.390703 
L 333.485838 260.476541 
L 335.617297 262.205838 
L 337.748757 264.337297 
L 340.483459 267.554595 
L 342.49427 270.249081 
L 349.08973 279.337946 
L 352.91027 285.330162 
L 362.562162 303.065514 
L 364.331676 306.363243 
L 368.473946 313.441297 
L 369.358703 314.486919 
L 370.565189 315.411892 
L 371.329297 315.773838 
L 373.058595 316.095568 
L 374.104216 316.135784 
L 377.603027 315.974919 
L 379.573622 316.256432 
L 381.302919 316.819459 
L 382.589838 317.462919 
L 384.359351 318.83027 
L 385.565838 320.036757 
L 386.571243 321.243243 
L 388.260324 323.897514 
L 389.748324 326.833297 
L 390.75373 329.366919 
L 391.92 333.107027 
L 393.247135 340.064432 
L 393.930811 351.606486 
L 393.930811 359.891027 
L 393.930811 359.891027 
" style="fill:none;stroke:#b3f396;stroke-linecap:square;stroke-width:1.5;"/>
   </g>
   <g id="line2d_74">
    <path clip-path="url(#pa518caf6c3)" d="M 450.032432 304.955676 
L 449.791135 305.036108 
L 449.670486 305.277405 
L 449.670486 305.357838 
L 449.590054 305.076324 
L 449.348757 304.754595 
L 448.745514 304.191568 
L 447.740108 303.708973 
L 446.252108 303.387243 
L 444.683676 303.306811 
L 443.075027 303.347027 
L 441.385946 303.266595 
L 439.777297 302.985081 
L 433.101405 300.934054 
L 424.97773 299.325405 
L 409.534703 295.866811 
L 399.319784 293.614703 
L 384.399568 290.276757 
L 380.498595 289.432216 
L 372.374919 287.622486 
L 361.114378 285.129081 
L 335.737946 279.498811 
L 322.908973 276.643459 
L 312.492973 274.512 
L 312.613622 274.512 
L 312.090811 275.034811 
L 311.688649 275.919568 
L 311.407135 277.327135 
L 311.206054 279.941189 
L 310.924541 280.665081 
L 310.40173 281.469405 
L 309.637622 282.153081 
L 308.431135 282.836757 
L 308.431135 282.836757 
L 308.471351 282.796541 
L 306.219243 285.048649 
L 305.656216 285.410595 
L 303.846486 286.134486 
L 302.237838 286.416 
L 299.141189 286.617081 
L 295.682595 286.657297 
L 293.510919 286.617081 
L 290.052324 286.214919 
L 287.518703 285.651892 
L 285.869838 285.209514 
L 281.244973 283.641081 
L 278.148324 282.434595 
L 264.153081 276.402162 
L 260.734703 274.713081 
L 250.399135 269.243676 
L 240.385297 264.779676 
L 238.052757 263.894919 
L 234.031135 262.447135 
L 230.210595 261.160216 
L 226.269405 259.833081 
L 220.558703 257.82227 
L 216.65773 256.414703 
L 212.515459 254.84627 
L 210.263351 254.00173 
L 206.643892 252.594162 
L 198.761514 249.53773 
L 198.037622 249.216 
L 198.037622 249.216 
" style="fill:none;stroke:#ff964f;stroke-linecap:square;stroke-width:1.5;"/>
   </g>
   <g id="line2d_75">
    <path clip-path="url(#pa518caf6c3)" d="M 140.367568 248.652973 
L 143.222919 248.733405 
L 147.767351 249.417081 
L 150.381405 249.738811 
L 159.952865 250.704 
L 172.982919 252.192 
L 178.331676 252.755027 
L 188.184649 253.881081 
L 294.194595 265.584 
L 294.03373 265.664432 
L 294.114162 265.061189 
L 294.194595 262.608 
L 294.476108 261.280865 
L 294.998919 260.034162 
L 295.602162 259.068973 
L 296.889081 257.540757 
L 297.934703 256.535351 
L 299.543351 255.449514 
L 301.312865 254.524541 
L 303.926919 253.438703 
L 307.586595 252.433297 
L 309.557189 252.151784 
L 311.809297 251.990919 
L 314.745081 252.071351 
L 318.404757 252.352865 
L 322.707892 252.915892 
L 332.118486 255.007135 
L 338.593297 257.058162 
L 359.224216 264.699243 
L 361.275243 265.423135 
L 364.170811 266.468757 
L 368.554378 268.037189 
L 374.144432 270.007784 
L 377.442162 271.133838 
L 379.332324 271.817514 
L 382.509405 272.903351 
L 384.882162 273.747892 
L 387.817946 274.753297 
L 389.828757 275.477189 
L 392.121081 276.241297 
L 392.121081 276.241297 
" style="fill:none;stroke:#ff0000;stroke-linecap:square;stroke-width:1.5;"/>
   </g>
   <g id="patch_3">
    <path d="M 72 512.64 
L 72 69.12 
" style="fill:none;stroke:#000000;stroke-linecap:square;stroke-linejoin:miter;stroke-width:0.8;"/>
   </g>
   <g id="patch_4">
    <path d="M 518.4 512.64 
L 518.4 69.12 
" style="fill:none;stroke:#000000;stroke-linecap:square;stroke-linejoin:miter;stroke-width:0.8;"/>
   </g>
   <g id="patch_5">
    <path d="M 72 512.64 
L 518.4 512.64 
" style="fill:none;stroke:#000000;stroke-linecap:square;stroke-linejoin:miter;stroke-width:0.8;"/>
   </g>
   <g id="patch_6">
    <path d="M 72 69.12 
L 518.4 69.12 
" style="fill:none;stroke:#000000;stroke-linecap:square;stroke-linejoin:miter;stroke-width:0.8;"/>
   </g>
   <g id="text_13">
    <!-- 1 -->
    <defs>
     <path d="M 14.203125 0 
L 14.203125 5.171875 
L 26.90625 5.171875 
L 26.90625 65.828125 
L 12.203125 56.296875 
L 12.203125 62.703125 
L 29.984375 74.21875 
L 36.71875 74.21875 
L 36.71875 5.171875 
L 49.421875 5.171875 
L 49.421875 0 
z
" id="DejaVuSerif-31"/>
    </defs>
    <g transform="translate(137.186318 389.40973)scale(0.1 -0.1)">
     <use xlink:href="#DejaVuSerif-31"/>
    </g>
   </g>
   <g id="text_14">
    <!-- 1 -->
    <g transform="translate(390.54848 192.35027)scale(0.1 -0.1)">
     <use xlink:href="#DejaVuSerif-31"/>
    </g>
   </g>
   <g id="text_15">
    <!-- 2 -->
    <defs>
     <path d="M 12.796875 55.515625 
L 7.328125 55.515625 
L 7.328125 68.5 
Q 12.546875 71.296875 17.84375 72.75 
Q 23.140625 74.21875 28.21875 74.21875 
Q 39.59375 74.21875 46.1875 68.703125 
Q 52.78125 63.1875 52.78125 53.71875 
Q 52.78125 43.015625 37.84375 28.125 
Q 36.671875 27 36.078125 26.421875 
L 17.671875 8.015625 
L 48.09375 8.015625 
L 48.09375 17 
L 53.8125 17 
L 53.8125 0 
L 6.78125 0 
L 6.78125 5.328125 
L 28.90625 27.390625 
Q 36.234375 34.71875 39.359375 40.84375 
Q 42.484375 46.96875 42.484375 53.71875 
Q 42.484375 61.078125 38.640625 65.234375 
Q 34.8125 69.390625 28.078125 69.390625 
Q 21.09375 69.390625 17.28125 65.921875 
Q 13.484375 62.453125 12.796875 55.515625 
z
" id="DejaVuSerif-32"/>
    </defs>
    <g transform="translate(446.851182 192.35027)scale(0.1 -0.1)">
     <use xlink:href="#DejaVuSerif-32"/>
    </g>
   </g>
   <g id="text_16">
    <!-- 2 -->
    <g transform="translate(221.640372 361.258378)scale(0.1 -0.1)">
     <use xlink:href="#DejaVuSerif-32"/>
    </g>
   </g>
   <g id="text_17">
    <!-- 3 -->
    <defs>
     <path d="M 9.71875 69.828125 
Q 15.4375 71.96875 20.671875 73.09375 
Q 25.921875 74.21875 30.515625 74.21875 
Q 41.21875 74.21875 47.21875 69.59375 
Q 53.21875 64.984375 53.21875 56.78125 
Q 53.21875 50.203125 49.0625 45.78125 
Q 44.921875 41.359375 37.3125 39.796875 
Q 46.296875 38.53125 51.25 33.28125 
Q 56.203125 28.03125 56.203125 19.671875 
Q 56.203125 9.46875 49.34375 4.015625 
Q 42.484375 -1.421875 29.59375 -1.421875 
Q 23.875 -1.421875 18.421875 -0.1875 
Q 12.984375 1.03125 7.625 3.515625 
L 7.625 17.671875 
L 13.09375 17.671875 
Q 13.578125 10.640625 17.828125 7.03125 
Q 22.078125 3.421875 29.78125 3.421875 
Q 37.25 3.421875 41.578125 7.734375 
Q 45.90625 12.0625 45.90625 19.578125 
Q 45.90625 28.171875 41.453125 32.59375 
Q 37.015625 37.015625 28.421875 37.015625 
L 23.78125 37.015625 
L 23.78125 42 
L 26.21875 42 
Q 34.765625 42 39.03125 45.53125 
Q 43.3125 49.078125 43.3125 56.203125 
Q 43.3125 62.59375 39.796875 65.984375 
Q 36.28125 69.390625 29.6875 69.390625 
Q 23.09375 69.390625 19.453125 66.265625 
Q 15.828125 63.140625 15.1875 56.984375 
L 9.71875 56.984375 
z
" id="DejaVuSerif-33"/>
    </defs>
    <g transform="translate(398.993885 440.082162)scale(0.1 -0.1)">
     <use xlink:href="#DejaVuSerif-33"/>
    </g>
   </g>
   <g id="text_18">
    <!-- 3 -->
    <g transform="translate(221.640372 192.35027)scale(0.1 -0.1)">
     <use xlink:href="#DejaVuSerif-33"/>
    </g>
   </g>
   <g id="text_19">
    <!-- 4 -->
    <defs>
     <path d="M 34.90625 24.703125 
L 34.90625 63.484375 
L 10.015625 24.703125 
z
M 56.390625 0 
L 23.1875 0 
L 23.1875 5.171875 
L 34.90625 5.171875 
L 34.90625 19.484375 
L 3.078125 19.484375 
L 3.078125 24.8125 
L 35.015625 74.21875 
L 44.671875 74.21875 
L 44.671875 24.703125 
L 58.59375 24.703125 
L 58.59375 19.484375 
L 44.671875 19.484375 
L 44.671875 5.171875 
L 56.390625 5.171875 
z
" id="DejaVuSerif-34"/>
    </defs>
    <g transform="translate(221.640372 136.047568)scale(0.1 -0.1)">
     <use xlink:href="#DejaVuSerif-34"/>
    </g>
   </g>
   <g id="text_20">
    <!-- 4 -->
    <g transform="translate(390.54848 361.258378)scale(0.1 -0.1)">
     <use xlink:href="#DejaVuSerif-34"/>
    </g>
   </g>
   <g id="text_21">
    <!-- 5 -->
    <defs>
     <path d="M 50.296875 72.90625 
L 50.296875 64.890625 
L 16.890625 64.890625 
L 16.890625 44 
Q 19.4375 45.75 22.828125 46.625 
Q 26.21875 47.515625 30.421875 47.515625 
Q 42.234375 47.515625 49.0625 40.96875 
Q 55.90625 34.421875 55.90625 23.09375 
Q 55.90625 11.53125 49 5.046875 
Q 42.09375 -1.421875 29.59375 -1.421875 
Q 24.5625 -1.421875 19.28125 -0.1875 
Q 14.015625 1.03125 8.5 3.515625 
L 8.5 17.671875 
L 14.015625 17.671875 
Q 14.453125 10.75 18.421875 7.078125 
Q 22.40625 3.421875 29.59375 3.421875 
Q 37.3125 3.421875 41.453125 8.5 
Q 45.609375 13.578125 45.609375 23.09375 
Q 45.609375 32.5625 41.484375 37.609375 
Q 37.359375 42.671875 29.59375 42.671875 
Q 25.203125 42.671875 21.84375 41.109375 
Q 18.5 39.546875 15.921875 36.28125 
L 11.71875 36.28125 
L 11.71875 72.90625 
z
" id="DejaVuSerif-35"/>
    </defs>
    <g transform="translate(446.851182 304.955676)scale(0.1 -0.1)">
     <use xlink:href="#DejaVuSerif-35"/>
    </g>
   </g>
   <g id="text_22">
    <!-- 5 -->
    <g transform="translate(193.48902 248.652973)scale(0.1 -0.1)">
     <use xlink:href="#DejaVuSerif-35"/>
    </g>
   </g>
   <g id="text_23">
    <!-- 6 -->
    <defs>
     <path d="M 32.71875 3.421875 
Q 39.59375 3.421875 43.296875 8.46875 
Q 47.015625 13.53125 47.015625 23 
Q 47.015625 32.46875 43.296875 37.515625 
Q 39.59375 42.578125 32.71875 42.578125 
Q 25.734375 42.578125 22.0625 37.6875 
Q 18.40625 32.8125 18.40625 23.578125 
Q 18.40625 13.875 22.109375 8.640625 
Q 25.828125 3.421875 32.71875 3.421875 
z
M 16.796875 40.140625 
Q 20.125 43.796875 24.3125 45.59375 
Q 28.515625 47.40625 33.796875 47.40625 
Q 44.671875 47.40625 51 40.859375 
Q 57.328125 34.328125 57.328125 23 
Q 57.328125 11.921875 50.515625 5.25 
Q 43.703125 -1.421875 32.328125 -1.421875 
Q 19.96875 -1.421875 13.328125 7.78125 
Q 6.6875 17 6.6875 34.078125 
Q 6.6875 53.21875 14.546875 63.71875 
Q 22.40625 74.21875 36.71875 74.21875 
Q 40.578125 74.21875 44.828125 73.484375 
Q 49.078125 72.75 53.515625 71.296875 
L 53.515625 59.28125 
L 48 59.28125 
Q 47.40625 64.203125 44.234375 66.796875 
Q 41.0625 69.390625 35.6875 69.390625 
Q 26.21875 69.390625 21.578125 62.203125 
Q 16.9375 55.03125 16.796875 40.140625 
z
" id="DejaVuSerif-36"/>
    </defs>
    <g transform="translate(137.186318 248.652973)scale(0.1 -0.1)">
     <use xlink:href="#DejaVuSerif-36"/>
    </g>
   </g>
   <g id="text_24">
    <!-- 6 -->
    <g transform="translate(390.54848 276.804324)scale(0.1 -0.1)">
     <use xlink:href="#DejaVuSerif-36"/>
    </g>
   </g>
   <g id="text_25">
    <!-- MRPP -->
    <defs>
     <path d="M 9.8125 72.90625 
L 24.515625 72.90625 
L 43.109375 23.296875 
L 61.8125 72.90625 
L 76.515625 72.90625 
L 76.515625 0 
L 66.890625 0 
L 66.890625 64.015625 
L 48.09375 14.015625 
L 38.1875 14.015625 
L 19.390625 64.015625 
L 19.390625 0 
L 9.8125 0 
z
" id="DejaVuSans-4d"/>
     <path d="M 44.390625 34.1875 
Q 47.5625 33.109375 50.5625 29.59375 
Q 53.5625 26.078125 56.59375 19.921875 
L 66.609375 0 
L 56 0 
L 46.6875 18.703125 
Q 43.0625 26.03125 39.671875 28.421875 
Q 36.28125 30.8125 30.421875 30.8125 
L 19.671875 30.8125 
L 19.671875 0 
L 9.8125 0 
L 9.8125 72.90625 
L 32.078125 72.90625 
Q 44.578125 72.90625 50.734375 67.671875 
Q 56.890625 62.453125 56.890625 51.90625 
Q 56.890625 45.015625 53.6875 40.46875 
Q 50.484375 35.9375 44.390625 34.1875 
z
M 19.671875 64.796875 
L 19.671875 38.921875 
L 32.078125 38.921875 
Q 39.203125 38.921875 42.84375 42.21875 
Q 46.484375 45.515625 46.484375 51.90625 
Q 46.484375 58.296875 42.84375 61.546875 
Q 39.203125 64.796875 32.078125 64.796875 
z
" id="DejaVuSans-52"/>
     <path d="M 19.671875 64.796875 
L 19.671875 37.40625 
L 32.078125 37.40625 
Q 38.96875 37.40625 42.71875 40.96875 
Q 46.484375 44.53125 46.484375 51.125 
Q 46.484375 57.671875 42.71875 61.234375 
Q 38.96875 64.796875 32.078125 64.796875 
z
M 9.8125 72.90625 
L 32.078125 72.90625 
Q 44.34375 72.90625 50.609375 67.359375 
Q 56.890625 61.8125 56.890625 51.125 
Q 56.890625 40.328125 50.609375 34.8125 
Q 44.34375 29.296875 32.078125 29.296875 
L 19.671875 29.296875 
L 19.671875 0 
L 9.8125 0 
z
" id="DejaVuSans-50"/>
    </defs>
    <g transform="translate(278.618437 63.12)scale(0.12 -0.12)">
     <use xlink:href="#DejaVuSans-4d"/>
     <use x="86.279297" xlink:href="#DejaVuSans-52"/>
     <use x="155.761719" xlink:href="#DejaVuSans-50"/>
     <use x="216.064453" xlink:href="#DejaVuSans-50"/>
    </g>
   </g>
  </g>
 </g>
 <defs>
  <clipPath id="pa518caf6c3">
   <rect height="443.52" width="446.4" x="72" y="69.12"/>
  </clipPath>
 </defs>
</svg>
