<?xml version="1.0" encoding="utf-8" standalone="no"?>
<!DOCTYPE svg PUBLIC "-//W3C//DTD SVG 1.1//EN"
  "http://www.w3.org/Graphics/SVG/1.1/DTD/svg11.dtd">
<!-- Created with matplotlib (http://matplotlib.org/) -->
<svg height="576pt" version="1.1" viewBox="0 0 576 576" width="576pt" xmlns="http://www.w3.org/2000/svg" xmlns:xlink="http://www.w3.org/1999/xlink">
 <defs>
  <style type="text/css">
*{stroke-linecap:butt;stroke-linejoin:round;}
  </style>
 </defs>
 <g id="figure_1">
  <g id="patch_1">
   <path d="M 0 576 
L 576 576 
L 576 0 
L 0 0 
z
" style="fill:#ffffff;"/>
  </g>
  <g id="axes_1">
   <g id="patch_2">
    <path d="M 72 512.64 
L 518.4 512.64 
L 518.4 69.12 
L 72 69.12 
z
" style="fill:#ffffff;"/>
   </g>
   <g id="matplotlib.axis_1">
    <g id="xtick_1">
     <g id="line2d_1">
      <defs>
       <path d="M 0 0 
L 0 3.5 
" id="mb052562690" style="stroke:#000000;stroke-width:0.8;"/>
      </defs>
      <g>
       <use style="stroke:#000000;stroke-width:0.8;" x="112.216216" xlink:href="#mb052562690" y="512.64"/>
      </g>
     </g>
     <g id="text_1">
      <!-- 0 -->
      <defs>
       <path d="M 31.78125 66.40625 
Q 24.171875 66.40625 20.328125 58.90625 
Q 16.5 51.421875 16.5 36.375 
Q 16.5 21.390625 20.328125 13.890625 
Q 24.171875 6.390625 31.78125 6.390625 
Q 39.453125 6.390625 43.28125 13.890625 
Q 47.125 21.390625 47.125 36.375 
Q 47.125 51.421875 43.28125 58.90625 
Q 39.453125 66.40625 31.78125 66.40625 
z
M 31.78125 74.21875 
Q 44.046875 74.21875 50.515625 64.515625 
Q 56.984375 54.828125 56.984375 36.375 
Q 56.984375 17.96875 50.515625 8.265625 
Q 44.046875 -1.421875 31.78125 -1.421875 
Q 19.53125 -1.421875 13.0625 8.265625 
Q 6.59375 17.96875 6.59375 36.375 
Q 6.59375 54.828125 13.0625 64.515625 
Q 19.53125 74.21875 31.78125 74.21875 
z
" id="DejaVuSans-30"/>
      </defs>
      <g transform="translate(109.034966 527.238438)scale(0.1 -0.1)">
       <use xlink:href="#DejaVuSans-30"/>
      </g>
     </g>
    </g>
    <g id="xtick_2">
     <g id="line2d_2">
      <g>
       <use style="stroke:#000000;stroke-width:0.8;" x="192.648649" xlink:href="#mb052562690" y="512.64"/>
      </g>
     </g>
     <g id="text_2">
      <!-- 2 -->
      <defs>
       <path d="M 19.1875 8.296875 
L 53.609375 8.296875 
L 53.609375 0 
L 7.328125 0 
L 7.328125 8.296875 
Q 12.9375 14.109375 22.625 23.890625 
Q 32.328125 33.6875 34.8125 36.53125 
Q 39.546875 41.84375 41.421875 45.53125 
Q 43.3125 49.21875 43.3125 52.78125 
Q 43.3125 58.59375 39.234375 62.25 
Q 35.15625 65.921875 28.609375 65.921875 
Q 23.96875 65.921875 18.8125 64.3125 
Q 13.671875 62.703125 7.8125 59.421875 
L 7.8125 69.390625 
Q 13.765625 71.78125 18.9375 73 
Q 24.125 74.21875 28.421875 74.21875 
Q 39.75 74.21875 46.484375 68.546875 
Q 53.21875 62.890625 53.21875 53.421875 
Q 53.21875 48.921875 51.53125 44.890625 
Q 49.859375 40.875 45.40625 35.40625 
Q 44.1875 33.984375 37.640625 27.21875 
Q 31.109375 20.453125 19.1875 8.296875 
z
" id="DejaVuSans-32"/>
      </defs>
      <g transform="translate(189.467399 527.238438)scale(0.1 -0.1)">
       <use xlink:href="#DejaVuSans-32"/>
      </g>
     </g>
    </g>
    <g id="xtick_3">
     <g id="line2d_3">
      <g>
       <use style="stroke:#000000;stroke-width:0.8;" x="273.081081" xlink:href="#mb052562690" y="512.64"/>
      </g>
     </g>
     <g id="text_3">
      <!-- 4 -->
      <defs>
       <path d="M 37.796875 64.3125 
L 12.890625 25.390625 
L 37.796875 25.390625 
z
M 35.203125 72.90625 
L 47.609375 72.90625 
L 47.609375 25.390625 
L 58.015625 25.390625 
L 58.015625 17.1875 
L 47.609375 17.1875 
L 47.609375 0 
L 37.796875 0 
L 37.796875 17.1875 
L 4.890625 17.1875 
L 4.890625 26.703125 
z
" id="DejaVuSans-34"/>
      </defs>
      <g transform="translate(269.899831 527.238438)scale(0.1 -0.1)">
       <use xlink:href="#DejaVuSans-34"/>
      </g>
     </g>
    </g>
    <g id="xtick_4">
     <g id="line2d_4">
      <g>
       <use style="stroke:#000000;stroke-width:0.8;" x="353.513514" xlink:href="#mb052562690" y="512.64"/>
      </g>
     </g>
     <g id="text_4">
      <!-- 6 -->
      <defs>
       <path d="M 33.015625 40.375 
Q 26.375 40.375 22.484375 35.828125 
Q 18.609375 31.296875 18.609375 23.390625 
Q 18.609375 15.53125 22.484375 10.953125 
Q 26.375 6.390625 33.015625 6.390625 
Q 39.65625 6.390625 43.53125 10.953125 
Q 47.40625 15.53125 47.40625 23.390625 
Q 47.40625 31.296875 43.53125 35.828125 
Q 39.65625 40.375 33.015625 40.375 
z
M 52.59375 71.296875 
L 52.59375 62.3125 
Q 48.875 64.0625 45.09375 64.984375 
Q 41.3125 65.921875 37.59375 65.921875 
Q 27.828125 65.921875 22.671875 59.328125 
Q 17.53125 52.734375 16.796875 39.40625 
Q 19.671875 43.65625 24.015625 45.921875 
Q 28.375 48.1875 33.59375 48.1875 
Q 44.578125 48.1875 50.953125 41.515625 
Q 57.328125 34.859375 57.328125 23.390625 
Q 57.328125 12.15625 50.6875 5.359375 
Q 44.046875 -1.421875 33.015625 -1.421875 
Q 20.359375 -1.421875 13.671875 8.265625 
Q 6.984375 17.96875 6.984375 36.375 
Q 6.984375 53.65625 15.1875 63.9375 
Q 23.390625 74.21875 37.203125 74.21875 
Q 40.921875 74.21875 44.703125 73.484375 
Q 48.484375 72.75 52.59375 71.296875 
z
" id="DejaVuSans-36"/>
      </defs>
      <g transform="translate(350.332264 527.238438)scale(0.1 -0.1)">
       <use xlink:href="#DejaVuSans-36"/>
      </g>
     </g>
    </g>
    <g id="xtick_5">
     <g id="line2d_5">
      <g>
       <use style="stroke:#000000;stroke-width:0.8;" x="433.945946" xlink:href="#mb052562690" y="512.64"/>
      </g>
     </g>
     <g id="text_5">
      <!-- 8 -->
      <defs>
       <path d="M 31.78125 34.625 
Q 24.75 34.625 20.71875 30.859375 
Q 16.703125 27.09375 16.703125 20.515625 
Q 16.703125 13.921875 20.71875 10.15625 
Q 24.75 6.390625 31.78125 6.390625 
Q 38.8125 6.390625 42.859375 10.171875 
Q 46.921875 13.96875 46.921875 20.515625 
Q 46.921875 27.09375 42.890625 30.859375 
Q 38.875 34.625 31.78125 34.625 
z
M 21.921875 38.8125 
Q 15.578125 40.375 12.03125 44.71875 
Q 8.5 49.078125 8.5 55.328125 
Q 8.5 64.0625 14.71875 69.140625 
Q 20.953125 74.21875 31.78125 74.21875 
Q 42.671875 74.21875 48.875 69.140625 
Q 55.078125 64.0625 55.078125 55.328125 
Q 55.078125 49.078125 51.53125 44.71875 
Q 48 40.375 41.703125 38.8125 
Q 48.828125 37.15625 52.796875 32.3125 
Q 56.78125 27.484375 56.78125 20.515625 
Q 56.78125 9.90625 50.3125 4.234375 
Q 43.84375 -1.421875 31.78125 -1.421875 
Q 19.734375 -1.421875 13.25 4.234375 
Q 6.78125 9.90625 6.78125 20.515625 
Q 6.78125 27.484375 10.78125 32.3125 
Q 14.796875 37.15625 21.921875 38.8125 
z
M 18.3125 54.390625 
Q 18.3125 48.734375 21.84375 45.5625 
Q 25.390625 42.390625 31.78125 42.390625 
Q 38.140625 42.390625 41.71875 45.5625 
Q 45.3125 48.734375 45.3125 54.390625 
Q 45.3125 60.0625 41.71875 63.234375 
Q 38.140625 66.40625 31.78125 66.40625 
Q 25.390625 66.40625 21.84375 63.234375 
Q 18.3125 60.0625 18.3125 54.390625 
z
" id="DejaVuSans-38"/>
      </defs>
      <g transform="translate(430.764696 527.238438)scale(0.1 -0.1)">
       <use xlink:href="#DejaVuSans-38"/>
      </g>
     </g>
    </g>
    <g id="xtick_6">
     <g id="line2d_6">
      <g>
       <use style="stroke:#000000;stroke-width:0.8;" x="514.378378" xlink:href="#mb052562690" y="512.64"/>
      </g>
     </g>
     <g id="text_6">
      <!-- 10 -->
      <defs>
       <path d="M 12.40625 8.296875 
L 28.515625 8.296875 
L 28.515625 63.921875 
L 10.984375 60.40625 
L 10.984375 69.390625 
L 28.421875 72.90625 
L 38.28125 72.90625 
L 38.28125 8.296875 
L 54.390625 8.296875 
L 54.390625 0 
L 12.40625 0 
z
" id="DejaVuSans-31"/>
      </defs>
      <g transform="translate(508.015878 527.238438)scale(0.1 -0.1)">
       <use xlink:href="#DejaVuSans-31"/>
       <use x="63.623047" xlink:href="#DejaVuSans-30"/>
      </g>
     </g>
    </g>
   </g>
   <g id="matplotlib.axis_2">
    <g id="ytick_1">
     <g id="line2d_7">
      <defs>
       <path d="M 0 0 
L -3.5 0 
" id="m06d563846f" style="stroke:#000000;stroke-width:0.8;"/>
      </defs>
      <g>
       <use style="stroke:#000000;stroke-width:0.8;" x="72" xlink:href="#m06d563846f" y="473.863784"/>
      </g>
     </g>
     <g id="text_7">
      <!-- 0 -->
      <g transform="translate(58.6375 477.663003)scale(0.1 -0.1)">
       <use xlink:href="#DejaVuSans-30"/>
      </g>
     </g>
    </g>
    <g id="ytick_2">
     <g id="line2d_8">
      <g>
       <use style="stroke:#000000;stroke-width:0.8;" x="72" xlink:href="#m06d563846f" y="393.431351"/>
      </g>
     </g>
     <g id="text_8">
      <!-- 2 -->
      <g transform="translate(58.6375 397.23057)scale(0.1 -0.1)">
       <use xlink:href="#DejaVuSans-32"/>
      </g>
     </g>
    </g>
    <g id="ytick_3">
     <g id="line2d_9">
      <g>
       <use style="stroke:#000000;stroke-width:0.8;" x="72" xlink:href="#m06d563846f" y="312.998919"/>
      </g>
     </g>
     <g id="text_9">
      <!-- 4 -->
      <g transform="translate(58.6375 316.798138)scale(0.1 -0.1)">
       <use xlink:href="#DejaVuSans-34"/>
      </g>
     </g>
    </g>
    <g id="ytick_4">
     <g id="line2d_10">
      <g>
       <use style="stroke:#000000;stroke-width:0.8;" x="72" xlink:href="#m06d563846f" y="232.566486"/>
      </g>
     </g>
     <g id="text_10">
      <!-- 6 -->
      <g transform="translate(58.6375 236.365705)scale(0.1 -0.1)">
       <use xlink:href="#DejaVuSans-36"/>
      </g>
     </g>
    </g>
    <g id="ytick_5">
     <g id="line2d_11">
      <g>
       <use style="stroke:#000000;stroke-width:0.8;" x="72" xlink:href="#m06d563846f" y="152.134054"/>
      </g>
     </g>
     <g id="text_11">
      <!-- 8 -->
      <g transform="translate(58.6375 155.933273)scale(0.1 -0.1)">
       <use xlink:href="#DejaVuSans-38"/>
      </g>
     </g>
    </g>
    <g id="ytick_6">
     <g id="line2d_12">
      <g>
       <use style="stroke:#000000;stroke-width:0.8;" x="72" xlink:href="#m06d563846f" y="71.701622"/>
      </g>
     </g>
     <g id="text_12">
      <!-- 10 -->
      <g transform="translate(52.275 75.50084)scale(0.1 -0.1)">
       <use xlink:href="#DejaVuSans-31"/>
       <use x="63.623047" xlink:href="#DejaVuSans-30"/>
      </g>
     </g>
    </g>
   </g>
   <g id="line2d_13">
    <path clip-path="url(#p440ffbfc44)" d="M 140.367568 389.40973 
" style="fill:none;stroke:#1f77b4;stroke-linecap:square;stroke-width:1.5;"/>
    <defs>
     <path d="M -5 5 
L 5 5 
L 5 -5 
L -5 -5 
z
" id="m788b447319" style="stroke:#8000ff;stroke-linejoin:miter;"/>
    </defs>
    <g clip-path="url(#p440ffbfc44)">
     <use style="fill:#8000ff;stroke:#8000ff;stroke-linejoin:miter;" x="140.367568" xlink:href="#m788b447319" y="389.40973"/>
    </g>
   </g>
   <g id="line2d_14">
    <path clip-path="url(#p440ffbfc44)" d="M 393.72973 192.35027 
" style="fill:none;stroke:#ff7f0e;stroke-linecap:square;stroke-width:1.5;"/>
    <defs>
     <path d="M 0 -5 
L -4.755283 -1.545085 
L -2.938926 4.045085 
L 2.938926 4.045085 
L 4.755283 -1.545085 
z
" id="m158608d5c1" style="stroke:#8000ff;stroke-linejoin:miter;"/>
    </defs>
    <g clip-path="url(#p440ffbfc44)">
     <use style="fill:#8000ff;stroke:#8000ff;stroke-linejoin:miter;" x="393.72973" xlink:href="#m158608d5c1" y="192.35027"/>
    </g>
   </g>
   <g id="line2d_15">
    <path clip-path="url(#p440ffbfc44)" d="M 450.032432 192.35027 
" style="fill:none;stroke:#2ca02c;stroke-linecap:square;stroke-width:1.5;"/>
    <defs>
     <path d="M -5 5 
L 5 5 
L 5 -5 
L -5 -5 
z
" id="m267930c9dc" style="stroke:#4062fa;stroke-linejoin:miter;"/>
    </defs>
    <g clip-path="url(#p440ffbfc44)">
     <use style="fill:#4062fa;stroke:#4062fa;stroke-linejoin:miter;" x="450.032432" xlink:href="#m267930c9dc" y="192.35027"/>
    </g>
   </g>
   <g id="line2d_16">
    <path clip-path="url(#p440ffbfc44)" d="M 224.821622 361.258378 
" style="fill:none;stroke:#d62728;stroke-linecap:square;stroke-width:1.5;"/>
    <defs>
     <path d="M 0 -5 
L -4.755283 -1.545085 
L -2.938926 4.045085 
L 2.938926 4.045085 
L 4.755283 -1.545085 
z
" id="m57930afac2" style="stroke:#4062fa;stroke-linejoin:miter;"/>
    </defs>
    <g clip-path="url(#p440ffbfc44)">
     <use style="fill:#4062fa;stroke:#4062fa;stroke-linejoin:miter;" x="224.821622" xlink:href="#m57930afac2" y="361.258378"/>
    </g>
   </g>
   <g id="line2d_17">
    <path clip-path="url(#p440ffbfc44)" d="M 402.175135 440.082162 
" style="fill:none;stroke:#9467bd;stroke-linecap:square;stroke-width:1.5;"/>
    <defs>
     <path d="M -5 5 
L 5 5 
L 5 -5 
L -5 -5 
z
" id="m53a8773d5f" style="stroke:#00b4ec;stroke-linejoin:miter;"/>
    </defs>
    <g clip-path="url(#p440ffbfc44)">
     <use style="fill:#00b4ec;stroke:#00b4ec;stroke-linejoin:miter;" x="402.175135" xlink:href="#m53a8773d5f" y="440.082162"/>
    </g>
   </g>
   <g id="line2d_18">
    <path clip-path="url(#p440ffbfc44)" d="M 224.821622 192.35027 
" style="fill:none;stroke:#8c564b;stroke-linecap:square;stroke-width:1.5;"/>
    <defs>
     <path d="M 0 -5 
L -4.755283 -1.545085 
L -2.938926 4.045085 
L 2.938926 4.045085 
L 4.755283 -1.545085 
z
" id="ma03fc4f9cc" style="stroke:#00b4ec;stroke-linejoin:miter;"/>
    </defs>
    <g clip-path="url(#p440ffbfc44)">
     <use style="fill:#00b4ec;stroke:#00b4ec;stroke-linejoin:miter;" x="224.821622" xlink:href="#ma03fc4f9cc" y="192.35027"/>
    </g>
   </g>
   <g id="line2d_19">
    <path clip-path="url(#p440ffbfc44)" d="M 224.821622 136.047568 
" style="fill:none;stroke:#e377c2;stroke-linecap:square;stroke-width:1.5;"/>
    <defs>
     <path d="M -5 5 
L 5 5 
L 5 -5 
L -5 -5 
z
" id="ma1204edb96" style="stroke:#40ecd4;stroke-linejoin:miter;"/>
    </defs>
    <g clip-path="url(#p440ffbfc44)">
     <use style="fill:#40ecd4;stroke:#40ecd4;stroke-linejoin:miter;" x="224.821622" xlink:href="#ma1204edb96" y="136.047568"/>
    </g>
   </g>
   <g id="line2d_20">
    <path clip-path="url(#p440ffbfc44)" d="M 393.72973 361.258378 
" style="fill:none;stroke:#7f7f7f;stroke-linecap:square;stroke-width:1.5;"/>
    <defs>
     <path d="M 0 -5 
L -4.755283 -1.545085 
L -2.938926 4.045085 
L 2.938926 4.045085 
L 4.755283 -1.545085 
z
" id="mbd1ec14771" style="stroke:#40ecd4;stroke-linejoin:miter;"/>
    </defs>
    <g clip-path="url(#p440ffbfc44)">
     <use style="fill:#40ecd4;stroke:#40ecd4;stroke-linejoin:miter;" x="393.72973" xlink:href="#mbd1ec14771" y="361.258378"/>
    </g>
   </g>
   <g id="line2d_21">
    <path clip-path="url(#p440ffbfc44)" d="M 450.032432 304.955676 
" style="fill:none;stroke:#bcbd22;stroke-linecap:square;stroke-width:1.5;"/>
    <defs>
     <path d="M -5 5 
L 5 5 
L 5 -5 
L -5 -5 
z
" id="m5f6999429a" style="stroke:#80ffb4;stroke-linejoin:miter;"/>
    </defs>
    <g clip-path="url(#p440ffbfc44)">
     <use style="fill:#80ffb4;stroke:#80ffb4;stroke-linejoin:miter;" x="450.032432" xlink:href="#m5f6999429a" y="304.955676"/>
    </g>
   </g>
   <g id="line2d_22">
    <path clip-path="url(#p440ffbfc44)" d="M 196.67027 248.652973 
" style="fill:none;stroke:#17becf;stroke-linecap:square;stroke-width:1.5;"/>
    <defs>
     <path d="M 0 -5 
L -4.755283 -1.545085 
L -2.938926 4.045085 
L 2.938926 4.045085 
L 4.755283 -1.545085 
z
" id="mc4e2f5562c" style="stroke:#80ffb4;stroke-linejoin:miter;"/>
    </defs>
    <g clip-path="url(#p440ffbfc44)">
     <use style="fill:#80ffb4;stroke:#80ffb4;stroke-linejoin:miter;" x="196.67027" xlink:href="#mc4e2f5562c" y="248.652973"/>
    </g>
   </g>
   <g id="line2d_23">
    <path clip-path="url(#p440ffbfc44)" d="M 140.367568 248.652973 
" style="fill:none;stroke:#1f77b4;stroke-linecap:square;stroke-width:1.5;"/>
    <defs>
     <path d="M -5 5 
L 5 5 
L 5 -5 
L -5 -5 
z
" id="mb19f5bc43f" style="stroke:#bfec8e;stroke-linejoin:miter;"/>
    </defs>
    <g clip-path="url(#p440ffbfc44)">
     <use style="fill:#bfec8e;stroke:#bfec8e;stroke-linejoin:miter;" x="140.367568" xlink:href="#mb19f5bc43f" y="248.652973"/>
    </g>
   </g>
   <g id="line2d_24">
    <path clip-path="url(#p440ffbfc44)" d="M 393.72973 276.804324 
" style="fill:none;stroke:#ff7f0e;stroke-linecap:square;stroke-width:1.5;"/>
    <defs>
     <path d="M 0 -5 
L -4.755283 -1.545085 
L -2.938926 4.045085 
L 2.938926 4.045085 
L 4.755283 -1.545085 
z
" id="m4455f37cea" style="stroke:#bfec8e;stroke-linejoin:miter;"/>
    </defs>
    <g clip-path="url(#p440ffbfc44)">
     <use style="fill:#bfec8e;stroke:#bfec8e;stroke-linejoin:miter;" x="393.72973" xlink:href="#m4455f37cea" y="276.804324"/>
    </g>
   </g>
   <g id="line2d_25">
    <path clip-path="url(#p440ffbfc44)" d="M 281.124324 192.35027 
" style="fill:none;stroke:#2ca02c;stroke-linecap:square;stroke-width:1.5;"/>
    <defs>
     <path d="M -5 5 
L 5 5 
L 5 -5 
L -5 -5 
z
" id="mde569733ef" style="stroke:#ffb462;stroke-linejoin:miter;"/>
    </defs>
    <g clip-path="url(#p440ffbfc44)">
     <use style="fill:#ffb462;stroke:#ffb462;stroke-linejoin:miter;" x="281.124324" xlink:href="#mde569733ef" y="192.35027"/>
    </g>
   </g>
   <g id="line2d_26">
    <path clip-path="url(#p440ffbfc44)" d="M 281.124324 333.107027 
" style="fill:none;stroke:#d62728;stroke-linecap:square;stroke-width:1.5;"/>
    <defs>
     <path d="M 0 -5 
L -4.755283 -1.545085 
L -2.938926 4.045085 
L 2.938926 4.045085 
L 4.755283 -1.545085 
z
" id="m0d4d153954" style="stroke:#ffb462;stroke-linejoin:miter;"/>
    </defs>
    <g clip-path="url(#p440ffbfc44)">
     <use style="fill:#ffb462;stroke:#ffb462;stroke-linejoin:miter;" x="281.124324" xlink:href="#m0d4d153954" y="333.107027"/>
    </g>
   </g>
   <g id="line2d_27">
    <path clip-path="url(#p440ffbfc44)" d="M 140.367568 304.955676 
" style="fill:none;stroke:#9467bd;stroke-linecap:square;stroke-width:1.5;"/>
    <defs>
     <path d="M -5 5 
L 5 5 
L 5 -5 
L -5 -5 
z
" id="m1176fa798f" style="stroke:#ff6232;stroke-linejoin:miter;"/>
    </defs>
    <g clip-path="url(#p440ffbfc44)">
     <use style="fill:#ff6232;stroke:#ff6232;stroke-linejoin:miter;" x="140.367568" xlink:href="#m1176fa798f" y="304.955676"/>
    </g>
   </g>
   <g id="line2d_28">
    <path clip-path="url(#p440ffbfc44)" d="M 309.275676 276.804324 
" style="fill:none;stroke:#8c564b;stroke-linecap:square;stroke-width:1.5;"/>
    <defs>
     <path d="M 0 -5 
L -4.755283 -1.545085 
L -2.938926 4.045085 
L 2.938926 4.045085 
L 4.755283 -1.545085 
z
" id="m26b47dd66e" style="stroke:#ff6232;stroke-linejoin:miter;"/>
    </defs>
    <g clip-path="url(#p440ffbfc44)">
     <use style="fill:#ff6232;stroke:#ff6232;stroke-linejoin:miter;" x="309.275676" xlink:href="#m26b47dd66e" y="276.804324"/>
    </g>
   </g>
   <g id="line2d_29">
    <path clip-path="url(#p440ffbfc44)" d="M 393.72973 220.501622 
" style="fill:none;stroke:#e377c2;stroke-linecap:square;stroke-width:1.5;"/>
    <defs>
     <path d="M -5 5 
L 5 5 
L 5 -5 
L -5 -5 
z
" id="maea20ae9ae" style="stroke:#ff0000;stroke-linejoin:miter;"/>
    </defs>
    <g clip-path="url(#p440ffbfc44)">
     <use style="fill:#ff0000;stroke:#ff0000;stroke-linejoin:miter;" x="393.72973" xlink:href="#maea20ae9ae" y="220.501622"/>
    </g>
   </g>
   <g id="line2d_30">
    <path clip-path="url(#p440ffbfc44)" d="M 140.367568 276.804324 
" style="fill:none;stroke:#7f7f7f;stroke-linecap:square;stroke-width:1.5;"/>
    <defs>
     <path d="M 0 -5 
L -4.755283 -1.545085 
L -2.938926 4.045085 
L 2.938926 4.045085 
L 4.755283 -1.545085 
z
" id="m043d7485bf" style="stroke:#ff0000;stroke-linejoin:miter;"/>
    </defs>
    <g clip-path="url(#p440ffbfc44)">
     <use style="fill:#ff0000;stroke:#ff0000;stroke-linejoin:miter;" x="140.367568" xlink:href="#m043d7485bf" y="276.804324"/>
    </g>
   </g>
   <g id="line2d_31">
    <defs>
     <path d="M 0 2.5 
C 0.663008 2.5 1.29895 2.236584 1.767767 1.767767 
C 2.236584 1.29895 2.5 0.663008 2.5 0 
C 2.5 -0.663008 2.236584 -1.29895 1.767767 -1.767767 
C 1.29895 -2.236584 0.663008 -2.5 0 -2.5 
C -0.663008 -2.5 -1.29895 -2.236584 -1.767767 -1.767767 
C -2.236584 -1.29895 -2.5 -0.663008 -2.5 0 
C -2.5 0.663008 -2.236584 1.29895 -1.767767 1.767767 
C -1.29895 2.236584 -0.663008 2.5 0 2.5 
z
" id="m345ad287a7" style="stroke:#000000;"/>
    </defs>
    <g clip-path="url(#p440ffbfc44)">
     <use style="stroke:#000000;" x="196.67027" xlink:href="#m345ad287a7" y="389.40973"/>
     <use style="stroke:#000000;" x="196.67027" xlink:href="#m345ad287a7" y="333.107027"/>
     <use style="stroke:#000000;" x="252.972973" xlink:href="#m345ad287a7" y="389.40973"/>
     <use style="stroke:#000000;" x="252.972973" xlink:href="#m345ad287a7" y="333.107027"/>
     <use style="stroke:#000000;" x="309.275676" xlink:href="#m345ad287a7" y="389.40973"/>
     <use style="stroke:#000000;" x="309.275676" xlink:href="#m345ad287a7" y="333.107027"/>
     <use style="stroke:#000000;" x="365.578378" xlink:href="#m345ad287a7" y="389.40973"/>
     <use style="stroke:#000000;" x="365.578378" xlink:href="#m345ad287a7" y="333.107027"/>
     <use style="stroke:#000000;" x="421.881081" xlink:href="#m345ad287a7" y="389.40973"/>
     <use style="stroke:#000000;" x="421.881081" xlink:href="#m345ad287a7" y="333.107027"/>
     <use style="stroke:#000000;" x="196.67027" xlink:href="#m345ad287a7" y="220.501622"/>
     <use style="stroke:#000000;" x="196.67027" xlink:href="#m345ad287a7" y="164.198919"/>
     <use style="stroke:#000000;" x="252.972973" xlink:href="#m345ad287a7" y="220.501622"/>
     <use style="stroke:#000000;" x="252.972973" xlink:href="#m345ad287a7" y="164.198919"/>
     <use style="stroke:#000000;" x="309.275676" xlink:href="#m345ad287a7" y="220.501622"/>
     <use style="stroke:#000000;" x="309.275676" xlink:href="#m345ad287a7" y="164.198919"/>
     <use style="stroke:#000000;" x="365.578378" xlink:href="#m345ad287a7" y="220.501622"/>
     <use style="stroke:#000000;" x="365.578378" xlink:href="#m345ad287a7" y="164.198919"/>
     <use style="stroke:#000000;" x="421.881081" xlink:href="#m345ad287a7" y="220.501622"/>
     <use style="stroke:#000000;" x="421.881081" xlink:href="#m345ad287a7" y="164.198919"/>
    </g>
   </g>
   <g id="line2d_32">
    <path clip-path="url(#p440ffbfc44)" d="M 212.354595 389.40973 
L 211.504775 384.317038 
L 209.047406 379.776218 
L 205.248783 376.279339 
L 200.520544 374.205342 
L 195.375069 373.778975 
L 190.369949 375.046444 
L 186.047566 377.870397 
L 182.876319 381.944816 
L 181.19986 386.828175 
L 181.19986 391.991285 
L 182.876319 396.874643 
L 186.047566 400.949062 
L 190.369949 403.773016 
L 195.375069 405.040484 
L 200.520544 404.614118 
L 205.248783 402.54012 
L 209.047406 399.043241 
L 211.504775 394.502422 
L 212.354595 389.40973 
" style="fill:none;stroke:#000000;stroke-dasharray:5.55,2.4;stroke-dashoffset:0;stroke-width:1.5;"/>
   </g>
   <g id="line2d_33">
    <path clip-path="url(#p440ffbfc44)" d="M 201.094054 389.40973 
L 200.854361 387.973329 
L 200.161257 386.692585 
L 199.089851 385.706286 
L 197.756245 385.121313 
L 196.304957 385.001055 
L 194.893257 385.358547 
L 193.674123 386.155046 
L 192.779669 387.304241 
L 192.306821 388.681599 
L 192.306821 390.137861 
L 192.779669 391.515218 
L 193.674123 392.664413 
L 194.893257 393.460913 
L 196.304957 393.818404 
L 197.756245 393.698147 
L 199.089851 393.113173 
L 200.161257 392.126874 
L 200.854361 390.84613 
L 201.094054 389.40973 
" style="fill:none;stroke:#ff0000;stroke-linecap:square;stroke-width:1.5;"/>
   </g>
   <g id="line2d_34">
    <path clip-path="url(#p440ffbfc44)" d="M 212.354595 333.107027 
L 211.504775 328.014335 
L 209.047406 323.473516 
L 205.248783 319.976636 
L 200.520544 317.902639 
L 195.375069 317.476273 
L 190.369949 318.743741 
L 186.047566 321.567695 
L 182.876319 325.642114 
L 181.19986 330.525472 
L 181.19986 335.688582 
L 182.876319 340.57194 
L 186.047566 344.646359 
L 190.369949 347.470313 
L 195.375069 348.737781 
L 200.520544 348.311415 
L 205.248783 346.237418 
L 209.047406 342.740538 
L 211.504775 338.199719 
L 212.354595 333.107027 
" style="fill:none;stroke:#000000;stroke-dasharray:5.55,2.4;stroke-dashoffset:0;stroke-width:1.5;"/>
   </g>
   <g id="line2d_35">
    <path clip-path="url(#p440ffbfc44)" d="M 201.094054 333.107027 
L 200.854361 331.670627 
L 200.161257 330.389883 
L 199.089851 329.403584 
L 197.756245 328.81861 
L 196.304957 328.698353 
L 194.893257 329.055844 
L 193.674123 329.852344 
L 192.779669 331.001539 
L 192.306821 332.378896 
L 192.306821 333.835158 
L 192.779669 335.212515 
L 193.674123 336.361711 
L 194.893257 337.15821 
L 196.304957 337.515701 
L 197.756245 337.395444 
L 199.089851 336.810471 
L 200.161257 335.824171 
L 200.854361 334.543427 
L 201.094054 333.107027 
" style="fill:none;stroke:#ff0000;stroke-linecap:square;stroke-width:1.5;"/>
   </g>
   <g id="line2d_36">
    <path clip-path="url(#p440ffbfc44)" d="M 268.657297 389.40973 
L 267.807477 384.317038 
L 265.350109 379.776218 
L 261.551485 376.279339 
L 256.823247 374.205342 
L 251.677772 373.778975 
L 246.672652 375.046444 
L 242.350269 377.870397 
L 239.179021 381.944816 
L 237.502562 386.828175 
L 237.502562 391.991285 
L 239.179021 396.874643 
L 242.350269 400.949062 
L 246.672652 403.773016 
L 251.677772 405.040484 
L 256.823247 404.614118 
L 261.551485 402.54012 
L 265.350109 399.043241 
L 267.807477 394.502422 
L 268.657297 389.40973 
" style="fill:none;stroke:#000000;stroke-dasharray:5.55,2.4;stroke-dashoffset:0;stroke-width:1.5;"/>
   </g>
   <g id="line2d_37">
    <path clip-path="url(#p440ffbfc44)" d="M 257.396757 389.40973 
L 257.157064 387.973329 
L 256.46396 386.692585 
L 255.392553 385.706286 
L 254.058948 385.121313 
L 252.60766 385.001055 
L 251.195959 385.358547 
L 249.976826 386.155046 
L 249.082371 387.304241 
L 248.609524 388.681599 
L 248.609524 390.137861 
L 249.082371 391.515218 
L 249.976826 392.664413 
L 251.195959 393.460913 
L 252.60766 393.818404 
L 254.058948 393.698147 
L 255.392553 393.113173 
L 256.46396 392.126874 
L 257.157064 390.84613 
L 257.396757 389.40973 
" style="fill:none;stroke:#ff0000;stroke-linecap:square;stroke-width:1.5;"/>
   </g>
   <g id="line2d_38">
    <path clip-path="url(#p440ffbfc44)" d="M 268.657297 333.107027 
L 267.807477 328.014335 
L 265.350109 323.473516 
L 261.551485 319.976636 
L 256.823247 317.902639 
L 251.677772 317.476273 
L 246.672652 318.743741 
L 242.350269 321.567695 
L 239.179021 325.642114 
L 237.502562 330.525472 
L 237.502562 335.688582 
L 239.179021 340.57194 
L 242.350269 344.646359 
L 246.672652 347.470313 
L 251.677772 348.737781 
L 256.823247 348.311415 
L 261.551485 346.237418 
L 265.350109 342.740538 
L 267.807477 338.199719 
L 268.657297 333.107027 
" style="fill:none;stroke:#000000;stroke-dasharray:5.55,2.4;stroke-dashoffset:0;stroke-width:1.5;"/>
   </g>
   <g id="line2d_39">
    <path clip-path="url(#p440ffbfc44)" d="M 257.396757 333.107027 
L 257.157064 331.670627 
L 256.46396 330.389883 
L 255.392553 329.403584 
L 254.058948 328.81861 
L 252.60766 328.698353 
L 251.195959 329.055844 
L 249.976826 329.852344 
L 249.082371 331.001539 
L 248.609524 332.378896 
L 248.609524 333.835158 
L 249.082371 335.212515 
L 249.976826 336.361711 
L 251.195959 337.15821 
L 252.60766 337.515701 
L 254.058948 337.395444 
L 255.392553 336.810471 
L 256.46396 335.824171 
L 257.157064 334.543427 
L 257.396757 333.107027 
" style="fill:none;stroke:#ff0000;stroke-linecap:square;stroke-width:1.5;"/>
   </g>
   <g id="line2d_40">
    <path clip-path="url(#p440ffbfc44)" d="M 324.96 389.40973 
L 324.11018 384.317038 
L 321.652811 379.776218 
L 317.854188 376.279339 
L 313.12595 374.205342 
L 307.980474 373.778975 
L 302.975354 375.046444 
L 298.652972 377.870397 
L 295.481724 381.944816 
L 293.805265 386.828175 
L 293.805265 391.991285 
L 295.481724 396.874643 
L 298.652972 400.949062 
L 302.975354 403.773016 
L 307.980474 405.040484 
L 313.12595 404.614118 
L 317.854188 402.54012 
L 321.652811 399.043241 
L 324.11018 394.502422 
L 324.96 389.40973 
" style="fill:none;stroke:#000000;stroke-dasharray:5.55,2.4;stroke-dashoffset:0;stroke-width:1.5;"/>
   </g>
   <g id="line2d_41">
    <path clip-path="url(#p440ffbfc44)" d="M 313.699459 389.40973 
L 313.459767 387.973329 
L 312.766663 386.692585 
L 311.695256 385.706286 
L 310.36165 385.121313 
L 308.910363 385.001055 
L 307.498662 385.358547 
L 306.279528 386.155046 
L 305.385074 387.304241 
L 304.912227 388.681599 
L 304.912227 390.137861 
L 305.385074 391.515218 
L 306.279528 392.664413 
L 307.498662 393.460913 
L 308.910363 393.818404 
L 310.36165 393.698147 
L 311.695256 393.113173 
L 312.766663 392.126874 
L 313.459767 390.84613 
L 313.699459 389.40973 
" style="fill:none;stroke:#ff0000;stroke-linecap:square;stroke-width:1.5;"/>
   </g>
   <g id="line2d_42">
    <path clip-path="url(#p440ffbfc44)" d="M 324.96 333.107027 
L 324.11018 328.014335 
L 321.652811 323.473516 
L 317.854188 319.976636 
L 313.12595 317.902639 
L 307.980474 317.476273 
L 302.975354 318.743741 
L 298.652972 321.567695 
L 295.481724 325.642114 
L 293.805265 330.525472 
L 293.805265 335.688582 
L 295.481724 340.57194 
L 298.652972 344.646359 
L 302.975354 347.470313 
L 307.980474 348.737781 
L 313.12595 348.311415 
L 317.854188 346.237418 
L 321.652811 342.740538 
L 324.11018 338.199719 
L 324.96 333.107027 
" style="fill:none;stroke:#000000;stroke-dasharray:5.55,2.4;stroke-dashoffset:0;stroke-width:1.5;"/>
   </g>
   <g id="line2d_43">
    <path clip-path="url(#p440ffbfc44)" d="M 313.699459 333.107027 
L 313.459767 331.670627 
L 312.766663 330.389883 
L 311.695256 329.403584 
L 310.36165 328.81861 
L 308.910363 328.698353 
L 307.498662 329.055844 
L 306.279528 329.852344 
L 305.385074 331.001539 
L 304.912227 332.378896 
L 304.912227 333.835158 
L 305.385074 335.212515 
L 306.279528 336.361711 
L 307.498662 337.15821 
L 308.910363 337.515701 
L 310.36165 337.395444 
L 311.695256 336.810471 
L 312.766663 335.824171 
L 313.459767 334.543427 
L 313.699459 333.107027 
" style="fill:none;stroke:#ff0000;stroke-linecap:square;stroke-width:1.5;"/>
   </g>
   <g id="line2d_44">
    <path clip-path="url(#p440ffbfc44)" d="M 381.262703 389.40973 
L 380.412883 384.317038 
L 377.955514 379.776218 
L 374.156891 376.279339 
L 369.428652 374.205342 
L 364.283177 373.778975 
L 359.278057 375.046444 
L 354.955675 377.870397 
L 351.784427 381.944816 
L 350.107968 386.828175 
L 350.107968 391.991285 
L 351.784427 396.874643 
L 354.955675 400.949062 
L 359.278057 403.773016 
L 364.283177 405.040484 
L 369.428652 404.614118 
L 374.156891 402.54012 
L 377.955514 399.043241 
L 380.412883 394.502422 
L 381.262703 389.40973 
" style="fill:none;stroke:#000000;stroke-dasharray:5.55,2.4;stroke-dashoffset:0;stroke-width:1.5;"/>
   </g>
   <g id="line2d_45">
    <path clip-path="url(#p440ffbfc44)" d="M 370.002162 389.40973 
L 369.762469 387.973329 
L 369.069365 386.692585 
L 367.997959 385.706286 
L 366.664353 385.121313 
L 365.213065 385.001055 
L 363.801365 385.358547 
L 362.582231 386.155046 
L 361.687777 387.304241 
L 361.214929 388.681599 
L 361.214929 390.137861 
L 361.687777 391.515218 
L 362.582231 392.664413 
L 363.801365 393.460913 
L 365.213065 393.818404 
L 366.664353 393.698147 
L 367.997959 393.113173 
L 369.069365 392.126874 
L 369.762469 390.84613 
L 370.002162 389.40973 
" style="fill:none;stroke:#ff0000;stroke-linecap:square;stroke-width:1.5;"/>
   </g>
   <g id="line2d_46">
    <path clip-path="url(#p440ffbfc44)" d="M 381.262703 333.107027 
L 380.412883 328.014335 
L 377.955514 323.473516 
L 374.156891 319.976636 
L 369.428652 317.902639 
L 364.283177 317.476273 
L 359.278057 318.743741 
L 354.955675 321.567695 
L 351.784427 325.642114 
L 350.107968 330.525472 
L 350.107968 335.688582 
L 351.784427 340.57194 
L 354.955675 344.646359 
L 359.278057 347.470313 
L 364.283177 348.737781 
L 369.428652 348.311415 
L 374.156891 346.237418 
L 377.955514 342.740538 
L 380.412883 338.199719 
L 381.262703 333.107027 
" style="fill:none;stroke:#000000;stroke-dasharray:5.55,2.4;stroke-dashoffset:0;stroke-width:1.5;"/>
   </g>
   <g id="line2d_47">
    <path clip-path="url(#p440ffbfc44)" d="M 370.002162 333.107027 
L 369.762469 331.670627 
L 369.069365 330.389883 
L 367.997959 329.403584 
L 366.664353 328.81861 
L 365.213065 328.698353 
L 363.801365 329.055844 
L 362.582231 329.852344 
L 361.687777 331.001539 
L 361.214929 332.378896 
L 361.214929 333.835158 
L 361.687777 335.212515 
L 362.582231 336.361711 
L 363.801365 337.15821 
L 365.213065 337.515701 
L 366.664353 337.395444 
L 367.997959 336.810471 
L 369.069365 335.824171 
L 369.762469 334.543427 
L 370.002162 333.107027 
" style="fill:none;stroke:#ff0000;stroke-linecap:square;stroke-width:1.5;"/>
   </g>
   <g id="line2d_48">
    <path clip-path="url(#p440ffbfc44)" d="M 437.565405 389.40973 
L 436.715585 384.317038 
L 434.258217 379.776218 
L 430.459593 376.279339 
L 425.731355 374.205342 
L 420.58588 373.778975 
L 415.58076 375.046444 
L 411.258377 377.870397 
L 408.08713 381.944816 
L 406.41067 386.828175 
L 406.41067 391.991285 
L 408.08713 396.874643 
L 411.258377 400.949062 
L 415.58076 403.773016 
L 420.58588 405.040484 
L 425.731355 404.614118 
L 430.459593 402.54012 
L 434.258217 399.043241 
L 436.715585 394.502422 
L 437.565405 389.40973 
" style="fill:none;stroke:#000000;stroke-dasharray:5.55,2.4;stroke-dashoffset:0;stroke-width:1.5;"/>
   </g>
   <g id="line2d_49">
    <path clip-path="url(#p440ffbfc44)" d="M 426.304865 389.40973 
L 426.065172 387.973329 
L 425.372068 386.692585 
L 424.300661 385.706286 
L 422.967056 385.121313 
L 421.515768 385.001055 
L 420.104067 385.358547 
L 418.884934 386.155046 
L 417.990479 387.304241 
L 417.517632 388.681599 
L 417.517632 390.137861 
L 417.990479 391.515218 
L 418.884934 392.664413 
L 420.104067 393.460913 
L 421.515768 393.818404 
L 422.967056 393.698147 
L 424.300661 393.113173 
L 425.372068 392.126874 
L 426.065172 390.84613 
L 426.304865 389.40973 
" style="fill:none;stroke:#ff0000;stroke-linecap:square;stroke-width:1.5;"/>
   </g>
   <g id="line2d_50">
    <path clip-path="url(#p440ffbfc44)" d="M 437.565405 333.107027 
L 436.715585 328.014335 
L 434.258217 323.473516 
L 430.459593 319.976636 
L 425.731355 317.902639 
L 420.58588 317.476273 
L 415.58076 318.743741 
L 411.258377 321.567695 
L 408.08713 325.642114 
L 406.41067 330.525472 
L 406.41067 335.688582 
L 408.08713 340.57194 
L 411.258377 344.646359 
L 415.58076 347.470313 
L 420.58588 348.737781 
L 425.731355 348.311415 
L 430.459593 346.237418 
L 434.258217 342.740538 
L 436.715585 338.199719 
L 437.565405 333.107027 
" style="fill:none;stroke:#000000;stroke-dasharray:5.55,2.4;stroke-dashoffset:0;stroke-width:1.5;"/>
   </g>
   <g id="line2d_51">
    <path clip-path="url(#p440ffbfc44)" d="M 426.304865 333.107027 
L 426.065172 331.670627 
L 425.372068 330.389883 
L 424.300661 329.403584 
L 422.967056 328.81861 
L 421.515768 328.698353 
L 420.104067 329.055844 
L 418.884934 329.852344 
L 417.990479 331.001539 
L 417.517632 332.378896 
L 417.517632 333.835158 
L 417.990479 335.212515 
L 418.884934 336.361711 
L 420.104067 337.15821 
L 421.515768 337.515701 
L 422.967056 337.395444 
L 424.300661 336.810471 
L 425.372068 335.824171 
L 426.065172 334.543427 
L 426.304865 333.107027 
" style="fill:none;stroke:#ff0000;stroke-linecap:square;stroke-width:1.5;"/>
   </g>
   <g id="line2d_52">
    <path clip-path="url(#p440ffbfc44)" d="M 212.354595 220.501622 
L 211.504775 215.40893 
L 209.047406 210.86811 
L 205.248783 207.371231 
L 200.520544 205.297233 
L 195.375069 204.870867 
L 190.369949 206.138336 
L 186.047566 208.962289 
L 182.876319 213.036708 
L 181.19986 217.920067 
L 181.19986 223.083177 
L 182.876319 227.966535 
L 186.047566 232.040954 
L 190.369949 234.864907 
L 195.375069 236.132376 
L 200.520544 235.70601 
L 205.248783 233.632012 
L 209.047406 230.135133 
L 211.504775 225.594313 
L 212.354595 220.501622 
" style="fill:none;stroke:#000000;stroke-dasharray:5.55,2.4;stroke-dashoffset:0;stroke-width:1.5;"/>
   </g>
   <g id="line2d_53">
    <path clip-path="url(#p440ffbfc44)" d="M 201.094054 220.501622 
L 200.854361 219.065221 
L 200.161257 217.784477 
L 199.089851 216.798178 
L 197.756245 216.213204 
L 196.304957 216.092947 
L 194.893257 216.450438 
L 193.674123 217.246938 
L 192.779669 218.396133 
L 192.306821 219.773491 
L 192.306821 221.229753 
L 192.779669 222.60711 
L 193.674123 223.756305 
L 194.893257 224.552805 
L 196.304957 224.910296 
L 197.756245 224.790039 
L 199.089851 224.205065 
L 200.161257 223.218766 
L 200.854361 221.938022 
L 201.094054 220.501622 
" style="fill:none;stroke:#ff0000;stroke-linecap:square;stroke-width:1.5;"/>
   </g>
   <g id="line2d_54">
    <path clip-path="url(#p440ffbfc44)" d="M 212.354595 164.198919 
L 211.504775 159.106227 
L 209.047406 154.565408 
L 205.248783 151.068528 
L 200.520544 148.994531 
L 195.375069 148.568165 
L 190.369949 149.835633 
L 186.047566 152.659586 
L 182.876319 156.734006 
L 181.19986 161.617364 
L 181.19986 166.780474 
L 182.876319 171.663832 
L 186.047566 175.738251 
L 190.369949 178.562205 
L 195.375069 179.829673 
L 200.520544 179.403307 
L 205.248783 177.329309 
L 209.047406 173.83243 
L 211.504775 169.291611 
L 212.354595 164.198919 
" style="fill:none;stroke:#000000;stroke-dasharray:5.55,2.4;stroke-dashoffset:0;stroke-width:1.5;"/>
   </g>
   <g id="line2d_55">
    <path clip-path="url(#p440ffbfc44)" d="M 201.094054 164.198919 
L 200.854361 162.762519 
L 200.161257 161.481775 
L 199.089851 160.495475 
L 197.756245 159.910502 
L 196.304957 159.790245 
L 194.893257 160.147736 
L 193.674123 160.944235 
L 192.779669 162.093431 
L 192.306821 163.470788 
L 192.306821 164.92705 
L 192.779669 166.304407 
L 193.674123 167.453602 
L 194.893257 168.250102 
L 196.304957 168.607593 
L 197.756245 168.487336 
L 199.089851 167.902362 
L 200.161257 166.916063 
L 200.854361 165.635319 
L 201.094054 164.198919 
" style="fill:none;stroke:#ff0000;stroke-linecap:square;stroke-width:1.5;"/>
   </g>
   <g id="line2d_56">
    <path clip-path="url(#p440ffbfc44)" d="M 268.657297 220.501622 
L 267.807477 215.40893 
L 265.350109 210.86811 
L 261.551485 207.371231 
L 256.823247 205.297233 
L 251.677772 204.870867 
L 246.672652 206.138336 
L 242.350269 208.962289 
L 239.179021 213.036708 
L 237.502562 217.920067 
L 237.502562 223.083177 
L 239.179021 227.966535 
L 242.350269 232.040954 
L 246.672652 234.864907 
L 251.677772 236.132376 
L 256.823247 235.70601 
L 261.551485 233.632012 
L 265.350109 230.135133 
L 267.807477 225.594313 
L 268.657297 220.501622 
" style="fill:none;stroke:#000000;stroke-dasharray:5.55,2.4;stroke-dashoffset:0;stroke-width:1.5;"/>
   </g>
   <g id="line2d_57">
    <path clip-path="url(#p440ffbfc44)" d="M 257.396757 220.501622 
L 257.157064 219.065221 
L 256.46396 217.784477 
L 255.392553 216.798178 
L 254.058948 216.213204 
L 252.60766 216.092947 
L 251.195959 216.450438 
L 249.976826 217.246938 
L 249.082371 218.396133 
L 248.609524 219.773491 
L 248.609524 221.229753 
L 249.082371 222.60711 
L 249.976826 223.756305 
L 251.195959 224.552805 
L 252.60766 224.910296 
L 254.058948 224.790039 
L 255.392553 224.205065 
L 256.46396 223.218766 
L 257.157064 221.938022 
L 257.396757 220.501622 
" style="fill:none;stroke:#ff0000;stroke-linecap:square;stroke-width:1.5;"/>
   </g>
   <g id="line2d_58">
    <path clip-path="url(#p440ffbfc44)" d="M 268.657297 164.198919 
L 267.807477 159.106227 
L 265.350109 154.565408 
L 261.551485 151.068528 
L 256.823247 148.994531 
L 251.677772 148.568165 
L 246.672652 149.835633 
L 242.350269 152.659586 
L 239.179021 156.734006 
L 237.502562 161.617364 
L 237.502562 166.780474 
L 239.179021 171.663832 
L 242.350269 175.738251 
L 246.672652 178.562205 
L 251.677772 179.829673 
L 256.823247 179.403307 
L 261.551485 177.329309 
L 265.350109 173.83243 
L 267.807477 169.291611 
L 268.657297 164.198919 
" style="fill:none;stroke:#000000;stroke-dasharray:5.55,2.4;stroke-dashoffset:0;stroke-width:1.5;"/>
   </g>
   <g id="line2d_59">
    <path clip-path="url(#p440ffbfc44)" d="M 257.396757 164.198919 
L 257.157064 162.762519 
L 256.46396 161.481775 
L 255.392553 160.495475 
L 254.058948 159.910502 
L 252.60766 159.790245 
L 251.195959 160.147736 
L 249.976826 160.944235 
L 249.082371 162.093431 
L 248.609524 163.470788 
L 248.609524 164.92705 
L 249.082371 166.304407 
L 249.976826 167.453602 
L 251.195959 168.250102 
L 252.60766 168.607593 
L 254.058948 168.487336 
L 255.392553 167.902362 
L 256.46396 166.916063 
L 257.157064 165.635319 
L 257.396757 164.198919 
" style="fill:none;stroke:#ff0000;stroke-linecap:square;stroke-width:1.5;"/>
   </g>
   <g id="line2d_60">
    <path clip-path="url(#p440ffbfc44)" d="M 324.96 220.501622 
L 324.11018 215.40893 
L 321.652811 210.86811 
L 317.854188 207.371231 
L 313.12595 205.297233 
L 307.980474 204.870867 
L 302.975354 206.138336 
L 298.652972 208.962289 
L 295.481724 213.036708 
L 293.805265 217.920067 
L 293.805265 223.083177 
L 295.481724 227.966535 
L 298.652972 232.040954 
L 302.975354 234.864907 
L 307.980474 236.132376 
L 313.12595 235.70601 
L 317.854188 233.632012 
L 321.652811 230.135133 
L 324.11018 225.594313 
L 324.96 220.501622 
" style="fill:none;stroke:#000000;stroke-dasharray:5.55,2.4;stroke-dashoffset:0;stroke-width:1.5;"/>
   </g>
   <g id="line2d_61">
    <path clip-path="url(#p440ffbfc44)" d="M 313.699459 220.501622 
L 313.459767 219.065221 
L 312.766663 217.784477 
L 311.695256 216.798178 
L 310.36165 216.213204 
L 308.910363 216.092947 
L 307.498662 216.450438 
L 306.279528 217.246938 
L 305.385074 218.396133 
L 304.912227 219.773491 
L 304.912227 221.229753 
L 305.385074 222.60711 
L 306.279528 223.756305 
L 307.498662 224.552805 
L 308.910363 224.910296 
L 310.36165 224.790039 
L 311.695256 224.205065 
L 312.766663 223.218766 
L 313.459767 221.938022 
L 313.699459 220.501622 
" style="fill:none;stroke:#ff0000;stroke-linecap:square;stroke-width:1.5;"/>
   </g>
   <g id="line2d_62">
    <path clip-path="url(#p440ffbfc44)" d="M 324.96 164.198919 
L 324.11018 159.106227 
L 321.652811 154.565408 
L 317.854188 151.068528 
L 313.12595 148.994531 
L 307.980474 148.568165 
L 302.975354 149.835633 
L 298.652972 152.659586 
L 295.481724 156.734006 
L 293.805265 161.617364 
L 293.805265 166.780474 
L 295.481724 171.663832 
L 298.652972 175.738251 
L 302.975354 178.562205 
L 307.980474 179.829673 
L 313.12595 179.403307 
L 317.854188 177.329309 
L 321.652811 173.83243 
L 324.11018 169.291611 
L 324.96 164.198919 
" style="fill:none;stroke:#000000;stroke-dasharray:5.55,2.4;stroke-dashoffset:0;stroke-width:1.5;"/>
   </g>
   <g id="line2d_63">
    <path clip-path="url(#p440ffbfc44)" d="M 313.699459 164.198919 
L 313.459767 162.762519 
L 312.766663 161.481775 
L 311.695256 160.495475 
L 310.36165 159.910502 
L 308.910363 159.790245 
L 307.498662 160.147736 
L 306.279528 160.944235 
L 305.385074 162.093431 
L 304.912227 163.470788 
L 304.912227 164.92705 
L 305.385074 166.304407 
L 306.279528 167.453602 
L 307.498662 168.250102 
L 308.910363 168.607593 
L 310.36165 168.487336 
L 311.695256 167.902362 
L 312.766663 166.916063 
L 313.459767 165.635319 
L 313.699459 164.198919 
" style="fill:none;stroke:#ff0000;stroke-linecap:square;stroke-width:1.5;"/>
   </g>
   <g id="line2d_64">
    <path clip-path="url(#p440ffbfc44)" d="M 381.262703 220.501622 
L 380.412883 215.40893 
L 377.955514 210.86811 
L 374.156891 207.371231 
L 369.428652 205.297233 
L 364.283177 204.870867 
L 359.278057 206.138336 
L 354.955675 208.962289 
L 351.784427 213.036708 
L 350.107968 217.920067 
L 350.107968 223.083177 
L 351.784427 227.966535 
L 354.955675 232.040954 
L 359.278057 234.864907 
L 364.283177 236.132376 
L 369.428652 235.70601 
L 374.156891 233.632012 
L 377.955514 230.135133 
L 380.412883 225.594313 
L 381.262703 220.501622 
" style="fill:none;stroke:#000000;stroke-dasharray:5.55,2.4;stroke-dashoffset:0;stroke-width:1.5;"/>
   </g>
   <g id="line2d_65">
    <path clip-path="url(#p440ffbfc44)" d="M 370.002162 220.501622 
L 369.762469 219.065221 
L 369.069365 217.784477 
L 367.997959 216.798178 
L 366.664353 216.213204 
L 365.213065 216.092947 
L 363.801365 216.450438 
L 362.582231 217.246938 
L 361.687777 218.396133 
L 361.214929 219.773491 
L 361.214929 221.229753 
L 361.687777 222.60711 
L 362.582231 223.756305 
L 363.801365 224.552805 
L 365.213065 224.910296 
L 366.664353 224.790039 
L 367.997959 224.205065 
L 369.069365 223.218766 
L 369.762469 221.938022 
L 370.002162 220.501622 
" style="fill:none;stroke:#ff0000;stroke-linecap:square;stroke-width:1.5;"/>
   </g>
   <g id="line2d_66">
    <path clip-path="url(#p440ffbfc44)" d="M 381.262703 164.198919 
L 380.412883 159.106227 
L 377.955514 154.565408 
L 374.156891 151.068528 
L 369.428652 148.994531 
L 364.283177 148.568165 
L 359.278057 149.835633 
L 354.955675 152.659586 
L 351.784427 156.734006 
L 350.107968 161.617364 
L 350.107968 166.780474 
L 351.784427 171.663832 
L 354.955675 175.738251 
L 359.278057 178.562205 
L 364.283177 179.829673 
L 369.428652 179.403307 
L 374.156891 177.329309 
L 377.955514 173.83243 
L 380.412883 169.291611 
L 381.262703 164.198919 
" style="fill:none;stroke:#000000;stroke-dasharray:5.55,2.4;stroke-dashoffset:0;stroke-width:1.5;"/>
   </g>
   <g id="line2d_67">
    <path clip-path="url(#p440ffbfc44)" d="M 370.002162 164.198919 
L 369.762469 162.762519 
L 369.069365 161.481775 
L 367.997959 160.495475 
L 366.664353 159.910502 
L 365.213065 159.790245 
L 363.801365 160.147736 
L 362.582231 160.944235 
L 361.687777 162.093431 
L 361.214929 163.470788 
L 361.214929 164.92705 
L 361.687777 166.304407 
L 362.582231 167.453602 
L 363.801365 168.250102 
L 365.213065 168.607593 
L 366.664353 168.487336 
L 367.997959 167.902362 
L 369.069365 166.916063 
L 369.762469 165.635319 
L 370.002162 164.198919 
" style="fill:none;stroke:#ff0000;stroke-linecap:square;stroke-width:1.5;"/>
   </g>
   <g id="line2d_68">
    <path clip-path="url(#p440ffbfc44)" d="M 437.565405 220.501622 
L 436.715585 215.40893 
L 434.258217 210.86811 
L 430.459593 207.371231 
L 425.731355 205.297233 
L 420.58588 204.870867 
L 415.58076 206.138336 
L 411.258377 208.962289 
L 408.08713 213.036708 
L 406.41067 217.920067 
L 406.41067 223.083177 
L 408.08713 227.966535 
L 411.258377 232.040954 
L 415.58076 234.864907 
L 420.58588 236.132376 
L 425.731355 235.70601 
L 430.459593 233.632012 
L 434.258217 230.135133 
L 436.715585 225.594313 
L 437.565405 220.501622 
" style="fill:none;stroke:#000000;stroke-dasharray:5.55,2.4;stroke-dashoffset:0;stroke-width:1.5;"/>
   </g>
   <g id="line2d_69">
    <path clip-path="url(#p440ffbfc44)" d="M 426.304865 220.501622 
L 426.065172 219.065221 
L 425.372068 217.784477 
L 424.300661 216.798178 
L 422.967056 216.213204 
L 421.515768 216.092947 
L 420.104067 216.450438 
L 418.884934 217.246938 
L 417.990479 218.396133 
L 417.517632 219.773491 
L 417.517632 221.229753 
L 417.990479 222.60711 
L 418.884934 223.756305 
L 420.104067 224.552805 
L 421.515768 224.910296 
L 422.967056 224.790039 
L 424.300661 224.205065 
L 425.372068 223.218766 
L 426.065172 221.938022 
L 426.304865 220.501622 
" style="fill:none;stroke:#ff0000;stroke-linecap:square;stroke-width:1.5;"/>
   </g>
   <g id="line2d_70">
    <path clip-path="url(#p440ffbfc44)" d="M 437.565405 164.198919 
L 436.715585 159.106227 
L 434.258217 154.565408 
L 430.459593 151.068528 
L 425.731355 148.994531 
L 420.58588 148.568165 
L 415.58076 149.835633 
L 411.258377 152.659586 
L 408.08713 156.734006 
L 406.41067 161.617364 
L 406.41067 166.780474 
L 408.08713 171.663832 
L 411.258377 175.738251 
L 415.58076 178.562205 
L 420.58588 179.829673 
L 425.731355 179.403307 
L 430.459593 177.329309 
L 434.258217 173.83243 
L 436.715585 169.291611 
L 437.565405 164.198919 
" style="fill:none;stroke:#000000;stroke-dasharray:5.55,2.4;stroke-dashoffset:0;stroke-width:1.5;"/>
   </g>
   <g id="line2d_71">
    <path clip-path="url(#p440ffbfc44)" d="M 426.304865 164.198919 
L 426.065172 162.762519 
L 425.372068 161.481775 
L 424.300661 160.495475 
L 422.967056 159.910502 
L 421.515768 159.790245 
L 420.104067 160.147736 
L 418.884934 160.944235 
L 417.990479 162.093431 
L 417.517632 163.470788 
L 417.517632 164.92705 
L 417.990479 166.304407 
L 418.884934 167.453602 
L 420.104067 168.250102 
L 421.515768 168.607593 
L 422.967056 168.487336 
L 424.300661 167.902362 
L 425.372068 166.916063 
L 426.065172 165.635319 
L 426.304865 164.198919 
" style="fill:none;stroke:#ff0000;stroke-linecap:square;stroke-width:1.5;"/>
   </g>
   <g id="line2d_72">
    <path clip-path="url(#p440ffbfc44)" d="M 92.108108 493.971892 
L 92.108108 87.788108 
" style="fill:none;stroke:#000000;stroke-linecap:square;stroke-width:4;"/>
   </g>
   <g id="line2d_73">
    <path clip-path="url(#p440ffbfc44)" d="M 92.108108 87.788108 
L 498.291892 87.788108 
" style="fill:none;stroke:#000000;stroke-linecap:square;stroke-width:4;"/>
   </g>
   <g id="line2d_74">
    <path clip-path="url(#p440ffbfc44)" d="M 498.291892 87.788108 
L 498.291892 493.971892 
" style="fill:none;stroke:#000000;stroke-linecap:square;stroke-width:4;"/>
   </g>
   <g id="line2d_75">
    <path clip-path="url(#p440ffbfc44)" d="M 498.291892 493.971892 
L 92.108108 493.971892 
" style="fill:none;stroke:#000000;stroke-linecap:square;stroke-width:4;"/>
   </g>
   <g id="line2d_76">
    <path clip-path="url(#p440ffbfc44)" d="M 140.367568 389.40973 
L 141.292541 389.40973 
L 142.981622 389.289081 
L 144.509838 388.967351 
L 145.997838 388.524973 
L 147.968432 387.760865 
L 151.266162 386.071784 
L 154.201946 384.221838 
L 158.786595 381.004541 
L 167.272216 374.449297 
L 175.878486 367.451676 
L 181.388108 362.746378 
L 185.771676 359.207351 
L 187.340108 358.16173 
L 188.988973 357.236757 
L 192.20627 355.829189 
L 194.096432 355.346595 
L 195.463784 355.145514 
L 199.766919 354.904216 
L 207.769946 354.421622 
L 213.601297 353.737946 
L 219.151135 352.933622 
L 230.813838 350.882595 
L 232.704 350.72173 
L 238.656 350.761946 
L 242.677622 351.043459 
L 246.41773 351.485838 
L 252.249081 352.20973 
L 256.230486 352.571676 
L 259.970595 352.692324 
L 263.952 352.571676 
L 268.657297 352.129297 
L 271.673514 351.405405 
L 272.477838 351.123892 
L 273.764757 350.802162 
L 275.976649 350.72173 
L 277.907027 351.083676 
L 279.395027 351.686919 
L 280.159135 352.20973 
L 281.365622 353.215135 
L 282.853622 354.220541 
L 288.08173 356.713946 
L 291.580541 357.960649 
L 295.682595 359.126919 
L 299.34227 359.931243 
L 301.433514 360.132324 
L 305.133405 360.132324 
L 311.809297 359.891027 
L 313.37773 359.810595 
L 318.485189 358.966054 
L 320.536216 358.443243 
L 322.225297 357.679135 
L 326.76973 354.904216 
L 334.853189 349.836973 
L 335.335784 349.756541 
L 340.282378 349.676108 
L 342.011676 349.394595 
L 343.901838 349.23373 
L 345.832216 349.314162 
L 347.400649 349.515243 
L 352.950486 349.555459 
L 357.213405 349.394595 
L 360.953514 349.153297 
L 364.733838 349.314162 
L 368.473946 349.475027 
L 370.323892 349.354378 
L 372.133622 349.113081 
L 374.506378 348.469622 
L 375.712865 347.987027 
L 377.844324 346.740324 
L 380.217081 344.850162 
L 381.504 343.603459 
L 382.750703 342.236108 
L 383.715892 340.989405 
L 384.922378 339.219892 
L 386.691892 335.962378 
L 387.335351 334.514595 
L 388.501622 331.257081 
L 389.426595 327.637622 
L 390.11027 323.977946 
L 390.512432 320.760649 
L 390.512432 319.433514 
L 390.351568 318.146595 
L 389.989622 316.698811 
L 389.426595 315.130378 
L 388.582054 313.280432 
L 387.697297 311.671784 
L 386.691892 310.143568 
L 385.485405 308.736 
L 382.992 306.363243 
L 377.522595 301.61773 
L 375.310703 299.405838 
L 373.179243 296.912432 
L 370.042378 292.649514 
L 368.192432 289.633297 
L 366.664216 286.818162 
L 364.975135 283.11827 
L 363.808865 280.102054 
L 362.682811 276.522811 
L 361.757838 272.863135 
L 360.712216 267.031784 
L 360.310054 263.532973 
L 360.068757 259.752649 
L 360.229622 257.862486 
L 360.551351 255.972324 
L 360.99373 254.122378 
L 362.280649 250.301838 
L 363.165405 248.331243 
L 364.170811 246.722595 
L 366.422919 243.987892 
L 368.916324 241.494486 
L 372.173838 238.719568 
L 376.678054 235.301189 
L 380.659459 232.164324 
L 383.353946 229.630703 
L 385.927784 226.57427 
L 387.013622 225.08627 
L 388.099459 223.276541 
L 389.748324 219.938595 
L 390.914595 216.681081 
L 391.799351 213.061622 
L 392.724324 207.270486 
L 393.166703 203.570595 
L 393.689514 197.417514 
L 393.850378 193.958919 
L 393.850378 193.958919 
" style="fill:none;stroke:#8000ff;stroke-linecap:square;stroke-width:1.5;"/>
   </g>
   <g id="line2d_77">
    <path clip-path="url(#p440ffbfc44)" d="M 450.032432 192.35027 
L 450.233514 192.390486 
L 450.434595 192.792649 
L 450.555243 193.516541 
L 450.515027 194.763243 
L 450.233514 196.050162 
L 449.549838 197.779459 
L 448.78573 199.187027 
L 447.860757 200.514162 
L 446.533622 202.203243 
L 444.080432 204.616216 
L 442.512 205.74227 
L 440.822919 206.627027 
L 438.812108 207.431351 
L 437.002378 207.994378 
L 435.152432 208.356324 
L 433.463351 208.517189 
L 431.532973 208.396541 
L 429.964541 207.954162 
L 429.039568 207.431351 
L 428.315676 206.787892 
L 426.666811 204.857514 
L 425.178811 203.088 
L 424.575568 202.484757 
L 423.731027 201.881514 
L 422.806054 201.439135 
L 421.68 201.036973 
L 420.312649 200.755459 
L 418.704 200.594595 
L 416.89427 200.634811 
L 414.803027 200.916324 
L 413.274811 201.27827 
L 411.264 201.881514 
L 409.253189 202.605405 
L 406.357622 203.932541 
L 403.100108 205.74227 
L 400.164324 207.592216 
L 396.906811 209.924757 
L 393.528649 212.538811 
L 391.879784 213.946378 
L 390.633081 215.273514 
L 389.466811 216.761514 
L 387.415784 219.858162 
L 385.606054 223.115676 
L 382.992 228.384 
L 381.142054 232.244757 
L 379.332324 235.542486 
L 378.20627 237.513081 
L 376.71827 240.931459 
L 375.190054 244.953081 
L 373.661838 248.693189 
L 371.932541 252.352865 
L 367.227243 261.361297 
L 364.371892 266.549189 
L 361.596973 271.375135 
L 360.873081 273.426162 
L 360.672 275.235892 
L 360.631784 280.866162 
L 360.470919 284.887784 
L 361.154595 294.17773 
L 361.757838 297.596108 
L 362.441514 301.296 
L 362.763243 307.207784 
L 362.763243 311.430486 
L 362.441514 313.2 
L 361.757838 315.00973 
L 360.832865 316.417297 
L 359.465514 317.784649 
L 357.897081 318.910703 
L 354.559135 320.720432 
L 347.199568 324.219243 
L 344.505081 326.833297 
L 343.017081 328.08 
L 341.408432 329.045189 
L 340.16173 329.487568 
L 336.622703 330.050595 
L 334.933622 330.613622 
L 333.324973 331.458162 
L 331.676108 332.745081 
L 328.901189 335.52 
L 327.815351 336.726486 
L 323.552432 341.069838 
L 322.627459 342.316541 
L 320.857946 345.493622 
L 320.294919 346.659892 
L 319.249297 348.550054 
L 318.083027 350.359784 
L 317.037405 351.646703 
L 315.509189 353.215135 
L 314.22227 354.220541 
L 312.372324 355.427027 
L 308.833297 357.51827 
L 304.168216 360.775784 
L 300.950919 362.706162 
L 295.763027 365.521297 
L 288.604541 369.221189 
L 281.727568 372.317838 
L 278.228757 373.725405 
L 276.17773 374.368865 
L 274.247351 374.730811 
L 271.995243 374.811243 
L 269.823568 374.449297 
L 267.973622 373.846054 
L 264.756324 372.39827 
L 261.29773 370.548324 
L 259.849946 369.985297 
L 252.852324 368.095135 
L 243.481946 364.95827 
L 238.052757 363.47027 
L 232.301838 362.223568 
L 226.752 361.298595 
L 226.752 361.298595 
" style="fill:none;stroke:#4062fa;stroke-linecap:square;stroke-width:1.5;"/>
   </g>
   <g id="line2d_78">
    <path clip-path="url(#p440ffbfc44)" d="M 402.175135 440.082162 
L 401.974054 440.122378 
L 401.893622 440.202811 
L 402.094703 439.921297 
L 402.295784 439.398486 
L 402.416432 438.594162 
L 402.255568 437.347459 
L 401.652324 435.417081 
L 400.043676 431.878054 
L 398.032865 428.419459 
L 396.022054 425.282595 
L 388.62227 414.745946 
L 384.319135 408.834162 
L 383.193081 407.064649 
L 382.268108 405.094054 
L 381.584432 403.324541 
L 381.061622 401.474595 
L 380.739892 399.865946 
L 380.498595 397.734486 
L 380.498595 396.125838 
L 380.780108 394.235676 
L 381.745297 391.340108 
L 383.112649 388.203243 
L 383.715892 386.634811 
L 384.118054 385.267459 
L 384.439784 383.578378 
L 384.560432 382.050162 
L 384.520216 380.200216 
L 384.278919 378.390486 
L 383.796324 376.339459 
L 383.233297 374.569946 
L 381.584432 370.990703 
L 379.69427 367.773405 
L 377.562811 364.676757 
L 373.943351 360.051892 
L 372.656432 358.764973 
L 369.720649 356.512865 
L 366.060973 354.300973 
L 362.280649 352.370595 
L 358.620973 350.72173 
L 355.685189 349.394595 
L 351.824432 347.504432 
L 348.566919 345.61427 
L 346.918054 344.528432 
L 343.98227 341.673081 
L 337.869405 334.796108 
L 336.904216 333.107027 
L 336.220541 331.015784 
L 334.933622 325.546378 
L 334.410811 323.776865 
L 333.847784 322.288865 
L 332.761946 320.559568 
L 331.23373 319.192216 
L 328.137081 317.503135 
L 326.568649 316.256432 
L 325.241514 314.486919 
L 324.477405 312.717405 
L 324.155676 310.787027 
L 324.195892 307.449081 
L 323.994811 306.524108 
L 323.431784 304.915459 
L 322.587243 303.628541 
L 321.541622 302.502486 
L 320.053622 301.497081 
L 318.404757 300.853622 
L 316.796108 300.652541 
L 316.876541 300.612324 
L 316.595027 300.853622 
L 315.629838 301.376432 
L 314.302703 301.778595 
L 312.533189 301.979676 
L 310.321297 301.698162 
L 308.471351 301.014486 
L 306.862703 299.928649 
L 305.535568 298.480865 
L 304.691027 297.033081 
L 304.087784 294.861405 
L 303.766054 291.161514 
L 303.363892 289.432216 
L 302.599784 287.783351 
L 300.790054 284.525838 
L 299.865081 282.555243 
L 299.060757 280.464 
L 298.296649 276.965189 
L 297.974919 275.075027 
L 297.210811 273.104432 
L 296.084757 271.375135 
L 291.218595 265.302486 
L 287.920865 260.396108 
L 285.95027 257.178811 
L 283.336216 252.51373 
L 281.084108 249.256216 
L 278.550486 246.159568 
L 276.057081 243.344432 
L 275.011459 242.218378 
L 273.684324 240.489081 
L 272.719135 238.840216 
L 270.828973 233.772973 
L 269.662703 230.19373 
L 269.139892 228.343784 
L 268.73773 226.212324 
L 268.617081 224.563459 
L 268.697514 222.391784 
L 269.139892 220.059243 
L 270.064865 216.359351 
L 270.265946 213.82573 
L 270.185514 212.619243 
L 269.863784 211.091027 
L 269.381189 209.643243 
L 268.657297 208.155243 
L 267.732324 206.586811 
L 266.767135 205.299892 
L 264.434595 202.806486 
L 261.539027 200.514162 
L 258.804324 198.865297 
L 257.195676 197.980541 
L 254.018595 196.613189 
L 249.956757 195.245838 
L 247.945946 194.723027 
L 244.28627 194.039351 
L 237.932108 193.154595 
L 233.910486 192.752432 
L 227.797622 192.310054 
L 227.797622 192.310054 
" style="fill:none;stroke:#00b4ec;stroke-linecap:square;stroke-width:1.5;"/>
   </g>
   <g id="line2d_79">
    <path clip-path="url(#p440ffbfc44)" d="M 224.821622 136.047568 
L 226.832432 136.248649 
L 228.320432 136.691027 
L 230.250811 137.575784 
L 232.100757 138.742054 
L 233.387676 139.707243 
L 235.036541 141.155027 
L 237.047351 143.366919 
L 237.932108 144.73427 
L 238.776649 146.463568 
L 239.540757 148.474378 
L 240.063568 150.324324 
L 240.385297 152.093838 
L 240.505946 153.984 
L 240.184216 156.155676 
L 239.540757 157.683892 
L 238.736432 158.76973 
L 234.594162 162.912 
L 233.628973 165.003243 
L 233.307243 166.330378 
L 233.106162 167.898811 
L 233.106162 169.708541 
L 233.307243 171.799784 
L 234.151784 175.13773 
L 235.35827 178.314811 
L 237.047351 181.652757 
L 239.701622 185.955892 
L 241.873297 189.012324 
L 244.326486 192.189405 
L 245.492757 193.556757 
L 246.618811 194.642595 
L 248.066595 195.849081 
L 249.554595 196.934919 
L 252.731676 198.865297 
L 256.150054 200.313081 
L 261.941189 202.444541 
L 267.370378 204.777081 
L 281.244973 211.292108 
L 284.824216 213.021405 
L 286.553514 213.705081 
L 288.323027 214.187676 
L 292.022919 214.831135 
L 293.872865 215.31373 
L 295.441297 215.997405 
L 298.296649 217.968 
L 298.377081 218.128865 
L 298.296649 218.531027 
L 297.934703 219.254919 
L 295.320649 221.989622 
L 293.872865 223.276541 
L 292.465297 224.724324 
L 291.982703 225.005838 
L 286.995892 226.57427 
L 285.990486 227.137297 
L 284.985081 227.901405 
L 283.698162 229.188324 
L 282.531892 230.595892 
L 280.199351 233.853405 
L 279.15373 235.462054 
L 276.620108 238.598919 
L 275.453838 239.805405 
L 273.925622 241.011892 
L 268.335568 244.43027 
L 264.917189 246.963892 
L 262.14227 249.417081 
L 260.65427 250.945297 
L 259.327135 252.51373 
L 258.201081 254.283243 
L 257.195676 256.454919 
L 256.351135 260.154811 
L 255.667459 262.246054 
L 252.812108 269.082811 
L 250.841514 275.195676 
L 250.600216 275.276108 
L 246.176432 276.201081 
L 244.165622 276.804324 
L 242.717838 277.367351 
L 240.827676 278.292324 
L 239.259243 279.257514 
L 237.811459 280.383568 
L 236.444108 281.63027 
L 235.237622 283.037838 
L 234.352865 284.324757 
L 233.307243 286.134486 
L 232.060541 289.311568 
L 231.577946 291.362595 
L 231.336649 293.212541 
L 231.256216 295.303784 
L 231.336649 296.872216 
L 231.577946 298.722162 
L 232.140973 300.692757 
L 233.065946 302.502486 
L 234.111568 303.990486 
L 236.564757 306.725189 
L 239.259243 309.218595 
L 240.787459 310.143568 
L 242.717838 310.867459 
L 244.487351 311.309838 
L 246.256865 311.591351 
L 248.026378 311.430486 
L 249.514378 310.988108 
L 251.082811 310.143568 
L 252.570811 309.097946 
L 256.471784 305.880649 
L 259.769514 303.507892 
L 262.745514 301.698162 
L 266.364973 299.848216 
L 269.863784 298.400432 
L 271.874595 297.636324 
L 273.764757 297.073297 
L 275.976649 296.791784 
L 278.188541 296.872216 
L 279.797189 297.193946 
L 281.606919 297.756973 
L 285.065514 299.244973 
L 288.363243 301.135135 
L 294.958703 305.237189 
L 298.457514 307.248 
L 300.106378 308.052324 
L 303.886703 309.419676 
L 314.342919 312.757622 
L 316.434162 313.52173 
L 318.163459 314.326054 
L 319.812324 315.251027 
L 324.799135 318.387892 
L 335.898811 324.339892 
L 339.357405 326.390919 
L 340.684541 327.356108 
L 342.092108 328.602811 
L 343.419243 330.010378 
L 345.792 332.946162 
L 347.802811 336.163459 
L 349.451676 339.581838 
L 351.784216 344.970811 
L 353.272216 347.785946 
L 354.438486 349.515243 
L 356.489514 351.928216 
L 357.856865 353.215135 
L 360.390486 355.105297 
L 361.958919 356.03027 
L 365.819676 357.84 
L 369.6 359.046486 
L 373.500973 359.810595 
L 378.809514 360.534486 
L 382.549622 360.896432 
L 389.748324 361.338811 
L 391.638486 361.379027 
L 391.638486 361.379027 
" style="fill:none;stroke:#40ecd4;stroke-linecap:square;stroke-width:1.5;"/>
   </g>
   <g id="line2d_80">
    <path clip-path="url(#p440ffbfc44)" d="M 450.032432 304.955676 
L 449.831351 305.036108 
L 449.670486 305.277405 
L 449.63027 304.633946 
L 449.268324 303.789405 
L 448.504216 302.743784 
L 447.29773 301.61773 
L 445.80973 300.612324 
L 444.241297 299.727568 
L 442.592432 298.963459 
L 438.812108 297.596108 
L 435.474162 296.590703 
L 429.763459 295.183135 
L 379.855135 285.048649 
L 355.122162 280.222703 
L 353.55373 280.182486 
L 351.502703 280.423784 
L 348.486486 281.027027 
L 346.837622 281.187892 
L 344.665946 281.228108 
L 341.046486 281.067243 
L 339.478054 281.147676 
L 334.571676 281.871568 
L 330.831568 282.072649 
L 319.571027 282.394378 
L 317.399351 282.555243 
L 315.589622 282.957405 
L 312.010378 284.163892 
L 309.919135 284.726919 
L 305.857297 285.571459 
L 303.766054 286.536649 
L 302.398703 287.58227 
L 299.583568 290.115892 
L 296.486919 292.166919 
L 294.797838 293.051676 
L 288.886054 295.625514 
L 286.995892 296.027676 
L 285.347027 296.108108 
L 271.633297 295.746162 
L 269.662703 295.545081 
L 267.531243 295.102703 
L 261.177081 293.011459 
L 260.051027 292.408216 
L 259.568432 290.357189 
L 259.085838 288.748541 
L 258.201081 287.300757 
L 256.310919 284.928 
L 252.932757 281.268324 
L 251.967568 279.941189 
L 251.002378 278.332541 
L 248.348108 273.184865 
L 247.101405 271.536 
L 245.573189 270.088216 
L 238.092973 264.498162 
L 234.915892 262.648216 
L 229.848649 260.235243 
L 224.620541 258.144 
L 212.998054 254.00173 
L 201.817946 250.301838 
L 198.520216 249.336649 
L 198.520216 249.336649 
" style="fill:none;stroke:#80ffb4;stroke-linecap:square;stroke-width:1.5;"/>
   </g>
   <g id="line2d_81">
    <path clip-path="url(#p440ffbfc44)" d="M 140.367568 248.652973 
L 145.153297 248.733405 
L 155.850811 249.618162 
L 163.853838 250.462703 
L 177.165405 251.950703 
L 186.495568 253.036541 
L 201.415784 254.725622 
L 206.442811 255.248432 
L 207.488432 255.208216 
L 208.775351 255.047351 
L 211.429622 254.323459 
L 214.968649 253.036541 
L 217.059892 252.51373 
L 218.668541 252.232216 
L 220.558703 252.071351 
L 224.09773 252.031135 
L 227.837838 252.232216 
L 233.709405 252.795243 
L 238.776649 253.398486 
L 239.983135 253.35827 
L 241.471135 253.197405 
L 243.079784 252.674595 
L 244.487351 252.071351 
L 247.503568 250.38227 
L 249.433946 249.53773 
L 251.324108 249.175784 
L 253.254486 249.216 
L 255.385946 249.658378 
L 258.965189 250.864865 
L 262.182486 252.352865 
L 264.072649 253.438703 
L 270.306162 258.023351 
L 271.955027 258.787459 
L 273.684324 259.270054 
L 275.494054 259.350486 
L 277.545081 259.068973 
L 281.164541 258.103784 
L 284.301405 257.259243 
L 287.558919 257.017946 
L 289.207784 256.97773 
L 291.339243 257.138595 
L 293.350054 256.937514 
L 295.401081 256.253838 
L 296.848865 255.650595 
L 298.417297 255.168 
L 300.267243 254.806054 
L 303.80627 254.524541 
L 312.854919 254.444108 
L 314.745081 254.283243 
L 316.635243 254.243027 
L 318.284108 254.403892 
L 321.984 255.127784 
L 325.643676 255.972324 
L 327.091459 256.414703 
L 329.10227 256.776649 
L 334.20973 256.937514 
L 336.300973 256.816865 
L 343.901838 255.771243 
L 345.832216 255.891892 
L 347.722378 256.173405 
L 349.813622 256.615784 
L 351.904865 257.178811 
L 355.484108 258.425514 
L 358.982919 259.833081 
L 364.371892 262.205838 
L 373.098811 266.388324 
L 392.000432 275.919568 
L 392.000432 275.919568 
" style="fill:none;stroke:#bfec8e;stroke-linecap:square;stroke-width:1.5;"/>
   </g>
   <g id="line2d_82">
    <path clip-path="url(#p440ffbfc44)" d="M 281.124324 192.35027 
L 281.808 192.511135 
L 282.491676 192.873081 
L 283.135135 193.516541 
L 283.859027 194.521946 
L 284.542703 196.130595 
L 285.10573 197.940324 
L 285.789405 201.680432 
L 285.95027 203.570595 
L 285.910054 205.500973 
L 285.427459 209.522595 
L 284.220973 216.640865 
L 283.939459 218.772324 
L 283.577514 224.885189 
L 283.135135 235.341405 
L 282.773189 250.623568 
L 282.652541 256.495135 
L 281.808 301.014486 
L 282.169946 304.432865 
L 283.135135 310.264216 
L 283.497081 314.004324 
L 283.577514 317.824865 
L 283.094919 321.323676 
L 282.572108 323.133405 
L 281.164541 326.551784 
L 280.32 327.999568 
L 279.314595 329.447351 
L 277.947243 330.895135 
L 277.102703 331.498378 
L 277.02227 331.980973 
L 277.183135 333.348324 
L 277.866811 335.077622 
L 278.389622 336.083027 
L 278.952649 336.605838 
L 279.877622 337.168865 
L 280.762378 337.369946 
L 281.566703 337.369946 
L 282.330811 337.008 
L 283.054703 336.364541 
L 283.698162 335.439568 
L 284.261189 334.032 
L 284.422054 332.745081 
L 284.301405 331.820108 
L 284.019892 331.096216 
L 283.537297 330.412541 
L 283.014486 329.88973 
L 282.009081 329.407135 
L 281.285189 329.286486 
L 280.400432 329.366919 
L 279.636324 329.608216 
L 279.073297 329.970162 
L 278.630919 330.452757 
L 278.188541 331.337514 
L 278.027676 332.584216 
L 278.027676 332.584216 
" style="fill:none;stroke:#ffb462;stroke-linecap:square;stroke-width:1.5;"/>
   </g>
   <g id="line2d_83">
    <path clip-path="url(#p440ffbfc44)" d="M 140.367568 304.955676 
L 144.308757 304.875243 
L 148.290162 304.513297 
L 153.357405 303.869838 
L 166.025514 301.859027 
L 206.804757 294.780973 
L 207.930811 294.740757 
L 209.257946 294.821189 
L 214.284973 295.585297 
L 217.462054 295.66573 
L 222.529297 295.303784 
L 231.216 293.896216 
L 238.575568 292.528865 
L 240.505946 292.569081 
L 242.516757 292.810378 
L 243.401514 292.770162 
L 244.969946 292.408216 
L 246.377514 291.845189 
L 247.744865 291.081081 
L 250.399135 289.150703 
L 253.978378 285.812757 
L 255.908757 284.807351 
L 265.319351 280.705297 
L 268.938811 279.579243 
L 270.828973 279.096649 
L 272.196324 278.573838 
L 273.845189 277.769514 
L 275.53427 276.723892 
L 276.861405 275.557622 
L 277.786378 274.351135 
L 279.797189 270.651243 
L 280.963459 269.123027 
L 282.451459 267.876324 
L 284.220973 266.991568 
L 289.368649 265.704649 
L 293.068541 264.940541 
L 296.848865 264.457946 
L 301.715027 264.136216 
L 306.701838 263.090595 
L 308.149622 263.090595 
L 310.884324 263.573189 
L 313.136432 264.457946 
L 315.147243 265.664432 
L 317.117838 267.313297 
L 319.490595 269.484973 
L 321.943784 272.058811 
L 322.547027 273.144649 
L 322.989405 274.592432 
L 323.069838 275.798919 
L 322.908973 276.965189 
L 322.426378 278.332541 
L 322.064432 279.016216 
L 321.340541 280.061838 
L 320.093838 281.429189 
L 318.324324 282.796541 
L 317.158054 283.238919 
L 315.871135 283.44 
L 314.383135 283.359568 
L 312.975568 283.078054 
L 311.326703 282.474811 
L 310.039784 281.750919 
L 308.793081 280.745514 
L 307.787676 279.659676 
L 307.104 278.65427 
L 307.104 278.65427 
" style="fill:none;stroke:#ff6232;stroke-linecap:square;stroke-width:1.5;"/>
   </g>
   <g id="line2d_84">
    <path clip-path="url(#p440ffbfc44)" d="M 393.72973 220.501622 
L 393.930811 220.582054 
L 394.051459 220.662486 
L 394.131892 220.863568 
L 394.292757 221.788541 
L 394.252541 222.793946 
L 393.930811 224.362378 
L 393.166703 226.131892 
L 392.281946 227.499243 
L 390.834162 229.148108 
L 389.26573 230.636108 
L 386.249514 232.848 
L 383.072432 234.858811 
L 379.573622 236.869622 
L 373.822703 239.805405 
L 370.122811 241.414054 
L 366.060973 242.94227 
L 362.240432 244.188973 
L 358.620973 245.194378 
L 354.679784 246.079135 
L 349.129946 247.164973 
L 321.541622 251.267027 
L 319.410162 251.468108 
L 317.52 251.307243 
L 315.670054 250.945297 
L 312.090811 249.779027 
L 307.305081 247.969297 
L 303.846486 246.481297 
L 300.428108 244.832432 
L 298.698811 243.947676 
L 297.251027 243.344432 
L 291.701189 241.534703 
L 286.272 239.242378 
L 284.623135 238.236973 
L 283.215568 236.950054 
L 280.601514 234.255568 
L 279.033081 232.888216 
L 273.362595 228.745946 
L 270.105081 226.654703 
L 268.255135 225.08627 
L 267.289946 223.718919 
L 265.037838 219.174486 
L 264.836757 218.169081 
L 264.917189 216.48 
L 265.480216 214.630054 
L 266.60627 212.699676 
L 267.812757 211.131243 
L 269.059459 209.120432 
L 270.024649 206.224865 
L 270.105081 204.89773 
L 269.984432 203.570595 
L 269.702919 202.203243 
L 269.180108 200.715243 
L 268.255135 199.307676 
L 266.968216 198.060973 
L 265.399784 197.176216 
L 263.710703 196.653405 
L 261.619459 196.532757 
L 259.528216 196.693622 
L 255.587027 197.417514 
L 246.216649 199.669622 
L 238.816865 201.92173 
L 231.738811 204.415135 
L 224.09773 207.632432 
L 222.207568 208.517189 
L 218.950054 210.769297 
L 217.703351 211.774703 
L 216.175135 213.18227 
L 215.129514 214.388757 
L 214.164324 215.916973 
L 213.400216 217.565838 
L 212.837189 219.576649 
L 212.676324 221.667892 
L 212.716541 223.075459 
L 213.118703 228.424216 
L 213.078486 230.475243 
L 212.756757 232.52627 
L 212.153514 234.617514 
L 211.389405 236.387027 
L 210.263351 238.277189 
L 209.177514 239.805405 
L 207.930811 241.253189 
L 205.558054 243.545514 
L 202.823351 245.717189 
L 198.560432 248.572541 
L 193.171459 251.628973 
L 188.184649 254.202811 
L 179.497946 258.425514 
L 157.177946 268.962162 
L 144.308757 274.954378 
L 142.378378 275.879351 
L 142.378378 275.879351 
" style="fill:none;stroke:#ff0000;stroke-linecap:square;stroke-width:1.5;"/>
   </g>
   <g id="patch_3">
    <path d="M 72 512.64 
L 72 69.12 
" style="fill:none;stroke:#000000;stroke-linecap:square;stroke-linejoin:miter;stroke-width:0.8;"/>
   </g>
   <g id="patch_4">
    <path d="M 518.4 512.64 
L 518.4 69.12 
" style="fill:none;stroke:#000000;stroke-linecap:square;stroke-linejoin:miter;stroke-width:0.8;"/>
   </g>
   <g id="patch_5">
    <path d="M 72 512.64 
L 518.4 512.64 
" style="fill:none;stroke:#000000;stroke-linecap:square;stroke-linejoin:miter;stroke-width:0.8;"/>
   </g>
   <g id="patch_6">
    <path d="M 72 69.12 
L 518.4 69.12 
" style="fill:none;stroke:#000000;stroke-linecap:square;stroke-linejoin:miter;stroke-width:0.8;"/>
   </g>
   <g id="text_13">
    <!-- 1 -->
    <defs>
     <path d="M 14.203125 0 
L 14.203125 5.171875 
L 26.90625 5.171875 
L 26.90625 65.828125 
L 12.203125 56.296875 
L 12.203125 62.703125 
L 29.984375 74.21875 
L 36.71875 74.21875 
L 36.71875 5.171875 
L 49.421875 5.171875 
L 49.421875 0 
z
" id="DejaVuSerif-31"/>
    </defs>
    <g transform="translate(137.186318 389.40973)scale(0.1 -0.1)">
     <use xlink:href="#DejaVuSerif-31"/>
    </g>
   </g>
   <g id="text_14">
    <!-- 1 -->
    <g transform="translate(390.54848 192.35027)scale(0.1 -0.1)">
     <use xlink:href="#DejaVuSerif-31"/>
    </g>
   </g>
   <g id="text_15">
    <!-- 2 -->
    <defs>
     <path d="M 12.796875 55.515625 
L 7.328125 55.515625 
L 7.328125 68.5 
Q 12.546875 71.296875 17.84375 72.75 
Q 23.140625 74.21875 28.21875 74.21875 
Q 39.59375 74.21875 46.1875 68.703125 
Q 52.78125 63.1875 52.78125 53.71875 
Q 52.78125 43.015625 37.84375 28.125 
Q 36.671875 27 36.078125 26.421875 
L 17.671875 8.015625 
L 48.09375 8.015625 
L 48.09375 17 
L 53.8125 17 
L 53.8125 0 
L 6.78125 0 
L 6.78125 5.328125 
L 28.90625 27.390625 
Q 36.234375 34.71875 39.359375 40.84375 
Q 42.484375 46.96875 42.484375 53.71875 
Q 42.484375 61.078125 38.640625 65.234375 
Q 34.8125 69.390625 28.078125 69.390625 
Q 21.09375 69.390625 17.28125 65.921875 
Q 13.484375 62.453125 12.796875 55.515625 
z
" id="DejaVuSerif-32"/>
    </defs>
    <g transform="translate(446.851182 192.35027)scale(0.1 -0.1)">
     <use xlink:href="#DejaVuSerif-32"/>
    </g>
   </g>
   <g id="text_16">
    <!-- 2 -->
    <g transform="translate(221.640372 361.258378)scale(0.1 -0.1)">
     <use xlink:href="#DejaVuSerif-32"/>
    </g>
   </g>
   <g id="text_17">
    <!-- 3 -->
    <defs>
     <path d="M 9.71875 69.828125 
Q 15.4375 71.96875 20.671875 73.09375 
Q 25.921875 74.21875 30.515625 74.21875 
Q 41.21875 74.21875 47.21875 69.59375 
Q 53.21875 64.984375 53.21875 56.78125 
Q 53.21875 50.203125 49.0625 45.78125 
Q 44.921875 41.359375 37.3125 39.796875 
Q 46.296875 38.53125 51.25 33.28125 
Q 56.203125 28.03125 56.203125 19.671875 
Q 56.203125 9.46875 49.34375 4.015625 
Q 42.484375 -1.421875 29.59375 -1.421875 
Q 23.875 -1.421875 18.421875 -0.1875 
Q 12.984375 1.03125 7.625 3.515625 
L 7.625 17.671875 
L 13.09375 17.671875 
Q 13.578125 10.640625 17.828125 7.03125 
Q 22.078125 3.421875 29.78125 3.421875 
Q 37.25 3.421875 41.578125 7.734375 
Q 45.90625 12.0625 45.90625 19.578125 
Q 45.90625 28.171875 41.453125 32.59375 
Q 37.015625 37.015625 28.421875 37.015625 
L 23.78125 37.015625 
L 23.78125 42 
L 26.21875 42 
Q 34.765625 42 39.03125 45.53125 
Q 43.3125 49.078125 43.3125 56.203125 
Q 43.3125 62.59375 39.796875 65.984375 
Q 36.28125 69.390625 29.6875 69.390625 
Q 23.09375 69.390625 19.453125 66.265625 
Q 15.828125 63.140625 15.1875 56.984375 
L 9.71875 56.984375 
z
" id="DejaVuSerif-33"/>
    </defs>
    <g transform="translate(398.993885 440.082162)scale(0.1 -0.1)">
     <use xlink:href="#DejaVuSerif-33"/>
    </g>
   </g>
   <g id="text_18">
    <!-- 3 -->
    <g transform="translate(221.640372 192.35027)scale(0.1 -0.1)">
     <use xlink:href="#DejaVuSerif-33"/>
    </g>
   </g>
   <g id="text_19">
    <!-- 4 -->
    <defs>
     <path d="M 34.90625 24.703125 
L 34.90625 63.484375 
L 10.015625 24.703125 
z
M 56.390625 0 
L 23.1875 0 
L 23.1875 5.171875 
L 34.90625 5.171875 
L 34.90625 19.484375 
L 3.078125 19.484375 
L 3.078125 24.8125 
L 35.015625 74.21875 
L 44.671875 74.21875 
L 44.671875 24.703125 
L 58.59375 24.703125 
L 58.59375 19.484375 
L 44.671875 19.484375 
L 44.671875 5.171875 
L 56.390625 5.171875 
z
" id="DejaVuSerif-34"/>
    </defs>
    <g transform="translate(221.640372 136.047568)scale(0.1 -0.1)">
     <use xlink:href="#DejaVuSerif-34"/>
    </g>
   </g>
   <g id="text_20">
    <!-- 4 -->
    <g transform="translate(390.54848 361.258378)scale(0.1 -0.1)">
     <use xlink:href="#DejaVuSerif-34"/>
    </g>
   </g>
   <g id="text_21">
    <!-- 5 -->
    <defs>
     <path d="M 50.296875 72.90625 
L 50.296875 64.890625 
L 16.890625 64.890625 
L 16.890625 44 
Q 19.4375 45.75 22.828125 46.625 
Q 26.21875 47.515625 30.421875 47.515625 
Q 42.234375 47.515625 49.0625 40.96875 
Q 55.90625 34.421875 55.90625 23.09375 
Q 55.90625 11.53125 49 5.046875 
Q 42.09375 -1.421875 29.59375 -1.421875 
Q 24.5625 -1.421875 19.28125 -0.1875 
Q 14.015625 1.03125 8.5 3.515625 
L 8.5 17.671875 
L 14.015625 17.671875 
Q 14.453125 10.75 18.421875 7.078125 
Q 22.40625 3.421875 29.59375 3.421875 
Q 37.3125 3.421875 41.453125 8.5 
Q 45.609375 13.578125 45.609375 23.09375 
Q 45.609375 32.5625 41.484375 37.609375 
Q 37.359375 42.671875 29.59375 42.671875 
Q 25.203125 42.671875 21.84375 41.109375 
Q 18.5 39.546875 15.921875 36.28125 
L 11.71875 36.28125 
L 11.71875 72.90625 
z
" id="DejaVuSerif-35"/>
    </defs>
    <g transform="translate(446.851182 304.955676)scale(0.1 -0.1)">
     <use xlink:href="#DejaVuSerif-35"/>
    </g>
   </g>
   <g id="text_22">
    <!-- 5 -->
    <g transform="translate(193.48902 248.652973)scale(0.1 -0.1)">
     <use xlink:href="#DejaVuSerif-35"/>
    </g>
   </g>
   <g id="text_23">
    <!-- 6 -->
    <defs>
     <path d="M 32.71875 3.421875 
Q 39.59375 3.421875 43.296875 8.46875 
Q 47.015625 13.53125 47.015625 23 
Q 47.015625 32.46875 43.296875 37.515625 
Q 39.59375 42.578125 32.71875 42.578125 
Q 25.734375 42.578125 22.0625 37.6875 
Q 18.40625 32.8125 18.40625 23.578125 
Q 18.40625 13.875 22.109375 8.640625 
Q 25.828125 3.421875 32.71875 3.421875 
z
M 16.796875 40.140625 
Q 20.125 43.796875 24.3125 45.59375 
Q 28.515625 47.40625 33.796875 47.40625 
Q 44.671875 47.40625 51 40.859375 
Q 57.328125 34.328125 57.328125 23 
Q 57.328125 11.921875 50.515625 5.25 
Q 43.703125 -1.421875 32.328125 -1.421875 
Q 19.96875 -1.421875 13.328125 7.78125 
Q 6.6875 17 6.6875 34.078125 
Q 6.6875 53.21875 14.546875 63.71875 
Q 22.40625 74.21875 36.71875 74.21875 
Q 40.578125 74.21875 44.828125 73.484375 
Q 49.078125 72.75 53.515625 71.296875 
L 53.515625 59.28125 
L 48 59.28125 
Q 47.40625 64.203125 44.234375 66.796875 
Q 41.0625 69.390625 35.6875 69.390625 
Q 26.21875 69.390625 21.578125 62.203125 
Q 16.9375 55.03125 16.796875 40.140625 
z
" id="DejaVuSerif-36"/>
    </defs>
    <g transform="translate(137.186318 248.652973)scale(0.1 -0.1)">
     <use xlink:href="#DejaVuSerif-36"/>
    </g>
   </g>
   <g id="text_24">
    <!-- 6 -->
    <g transform="translate(390.54848 276.804324)scale(0.1 -0.1)">
     <use xlink:href="#DejaVuSerif-36"/>
    </g>
   </g>
   <g id="text_25">
    <!-- 7 -->
    <defs>
     <path d="M 56.390625 67.921875 
L 27.875 0 
L 20.609375 0 
L 47.796875 64.890625 
L 14.109375 64.890625 
L 14.109375 55.90625 
L 8.40625 55.90625 
L 8.40625 72.90625 
L 56.390625 72.90625 
z
" id="DejaVuSerif-37"/>
    </defs>
    <g transform="translate(277.943074 192.35027)scale(0.1 -0.1)">
     <use xlink:href="#DejaVuSerif-37"/>
    </g>
   </g>
   <g id="text_26">
    <!-- 7 -->
    <g transform="translate(277.943074 333.107027)scale(0.1 -0.1)">
     <use xlink:href="#DejaVuSerif-37"/>
    </g>
   </g>
   <g id="text_27">
    <!-- 8 -->
    <defs>
     <path d="M 46.578125 19.921875 
Q 46.578125 27.734375 42.6875 32.046875 
Q 38.8125 36.375 31.78125 36.375 
Q 24.75 36.375 20.875 32.046875 
Q 17 27.734375 17 19.921875 
Q 17 12.0625 20.875 7.734375 
Q 24.75 3.421875 31.78125 3.421875 
Q 38.8125 3.421875 42.6875 7.734375 
Q 46.578125 12.0625 46.578125 19.921875 
z
M 44.578125 55.328125 
Q 44.578125 61.96875 41.203125 65.671875 
Q 37.84375 69.390625 31.78125 69.390625 
Q 25.78125 69.390625 22.390625 65.671875 
Q 19 61.96875 19 55.328125 
Q 19 48.640625 22.390625 44.921875 
Q 25.78125 41.21875 31.78125 41.21875 
Q 37.84375 41.21875 41.203125 44.921875 
Q 44.578125 48.640625 44.578125 55.328125 
z
M 39.3125 38.8125 
Q 47.609375 37.703125 52.25 32.6875 
Q 56.890625 27.6875 56.890625 19.921875 
Q 56.890625 9.671875 50.390625 4.125 
Q 43.890625 -1.421875 31.78125 -1.421875 
Q 19.734375 -1.421875 13.203125 4.125 
Q 6.6875 9.671875 6.6875 19.921875 
Q 6.6875 27.6875 11.328125 32.6875 
Q 15.96875 37.703125 24.3125 38.8125 
Q 16.9375 40.140625 13 44.40625 
Q 9.078125 48.6875 9.078125 55.328125 
Q 9.078125 64.109375 15.125 69.15625 
Q 21.1875 74.21875 31.78125 74.21875 
Q 42.390625 74.21875 48.4375 69.15625 
Q 54.5 64.109375 54.5 55.328125 
Q 54.5 48.6875 50.5625 44.40625 
Q 46.625 40.140625 39.3125 38.8125 
z
" id="DejaVuSerif-38"/>
    </defs>
    <g transform="translate(137.186318 304.955676)scale(0.1 -0.1)">
     <use xlink:href="#DejaVuSerif-38"/>
    </g>
   </g>
   <g id="text_28">
    <!-- 8 -->
    <g transform="translate(306.094426 276.804324)scale(0.1 -0.1)">
     <use xlink:href="#DejaVuSerif-38"/>
    </g>
   </g>
   <g id="text_29">
    <!-- 9 -->
    <defs>
     <path d="M 46.78125 32.671875 
Q 43.5 29 39.25 27.1875 
Q 35.015625 25.390625 29.6875 25.390625 
Q 18.84375 25.390625 12.5625 31.9375 
Q 6.296875 38.484375 6.296875 49.8125 
Q 6.296875 60.890625 13.109375 67.546875 
Q 19.921875 74.21875 31.296875 74.21875 
Q 43.65625 74.21875 50.265625 65.015625 
Q 56.890625 55.8125 56.890625 38.71875 
Q 56.890625 19.578125 49.015625 9.078125 
Q 41.15625 -1.421875 26.90625 -1.421875 
Q 23.046875 -1.421875 18.796875 -0.6875 
Q 14.546875 0.046875 10.109375 1.515625 
L 10.109375 13.625 
L 15.578125 13.625 
Q 16.21875 8.6875 19.390625 6.046875 
Q 22.5625 3.421875 27.875 3.421875 
Q 37.359375 3.421875 41.984375 10.5625 
Q 46.625 17.71875 46.78125 32.671875 
z
M 30.90625 69.390625 
Q 23.96875 69.390625 20.28125 64.328125 
Q 16.609375 59.28125 16.609375 49.8125 
Q 16.609375 40.328125 20.28125 35.25 
Q 23.96875 30.171875 30.90625 30.171875 
Q 37.84375 30.171875 41.53125 35.078125 
Q 45.21875 39.984375 45.21875 49.21875 
Q 45.21875 58.9375 41.5 64.15625 
Q 37.796875 69.390625 30.90625 69.390625 
z
" id="DejaVuSerif-39"/>
    </defs>
    <g transform="translate(390.54848 220.501622)scale(0.1 -0.1)">
     <use xlink:href="#DejaVuSerif-39"/>
    </g>
   </g>
   <g id="text_30">
    <!-- 9 -->
    <g transform="translate(137.186318 276.804324)scale(0.1 -0.1)">
     <use xlink:href="#DejaVuSerif-39"/>
    </g>
   </g>
   <g id="text_31">
    <!-- MRPP -->
    <defs>
     <path d="M 9.8125 72.90625 
L 24.515625 72.90625 
L 43.109375 23.296875 
L 61.8125 72.90625 
L 76.515625 72.90625 
L 76.515625 0 
L 66.890625 0 
L 66.890625 64.015625 
L 48.09375 14.015625 
L 38.1875 14.015625 
L 19.390625 64.015625 
L 19.390625 0 
L 9.8125 0 
z
" id="DejaVuSans-4d"/>
     <path d="M 44.390625 34.1875 
Q 47.5625 33.109375 50.5625 29.59375 
Q 53.5625 26.078125 56.59375 19.921875 
L 66.609375 0 
L 56 0 
L 46.6875 18.703125 
Q 43.0625 26.03125 39.671875 28.421875 
Q 36.28125 30.8125 30.421875 30.8125 
L 19.671875 30.8125 
L 19.671875 0 
L 9.8125 0 
L 9.8125 72.90625 
L 32.078125 72.90625 
Q 44.578125 72.90625 50.734375 67.671875 
Q 56.890625 62.453125 56.890625 51.90625 
Q 56.890625 45.015625 53.6875 40.46875 
Q 50.484375 35.9375 44.390625 34.1875 
z
M 19.671875 64.796875 
L 19.671875 38.921875 
L 32.078125 38.921875 
Q 39.203125 38.921875 42.84375 42.21875 
Q 46.484375 45.515625 46.484375 51.90625 
Q 46.484375 58.296875 42.84375 61.546875 
Q 39.203125 64.796875 32.078125 64.796875 
z
" id="DejaVuSans-52"/>
     <path d="M 19.671875 64.796875 
L 19.671875 37.40625 
L 32.078125 37.40625 
Q 38.96875 37.40625 42.71875 40.96875 
Q 46.484375 44.53125 46.484375 51.125 
Q 46.484375 57.671875 42.71875 61.234375 
Q 38.96875 64.796875 32.078125 64.796875 
z
M 9.8125 72.90625 
L 32.078125 72.90625 
Q 44.34375 72.90625 50.609375 67.359375 
Q 56.890625 61.8125 56.890625 51.125 
Q 56.890625 40.328125 50.609375 34.8125 
Q 44.34375 29.296875 32.078125 29.296875 
L 19.671875 29.296875 
L 19.671875 0 
L 9.8125 0 
z
" id="DejaVuSans-50"/>
    </defs>
    <g transform="translate(278.618437 63.12)scale(0.12 -0.12)">
     <use xlink:href="#DejaVuSans-4d"/>
     <use x="86.279297" xlink:href="#DejaVuSans-52"/>
     <use x="155.761719" xlink:href="#DejaVuSans-50"/>
     <use x="216.064453" xlink:href="#DejaVuSans-50"/>
    </g>
   </g>
  </g>
 </g>
 <defs>
  <clipPath id="p440ffbfc44">
   <rect height="443.52" width="446.4" x="72" y="69.12"/>
  </clipPath>
 </defs>
</svg>
