<?xml version="1.0" encoding="utf-8" standalone="no"?>
<!DOCTYPE svg PUBLIC "-//W3C//DTD SVG 1.1//EN"
  "http://www.w3.org/Graphics/SVG/1.1/DTD/svg11.dtd">
<!-- Created with matplotlib (http://matplotlib.org/) -->
<svg height="576pt" version="1.1" viewBox="0 0 576 576" width="576pt" xmlns="http://www.w3.org/2000/svg" xmlns:xlink="http://www.w3.org/1999/xlink">
 <defs>
  <style type="text/css">
*{stroke-linecap:butt;stroke-linejoin:round;}
  </style>
 </defs>
 <g id="figure_1">
  <g id="patch_1">
   <path d="M 0 576 
L 576 576 
L 576 0 
L 0 0 
z
" style="fill:#ffffff;"/>
  </g>
  <g id="axes_1">
   <g id="patch_2">
    <path d="M 72 512.64 
L 518.4 512.64 
L 518.4 69.12 
L 72 69.12 
z
" style="fill:#ffffff;"/>
   </g>
   <g id="matplotlib.axis_1">
    <g id="xtick_1">
     <g id="line2d_1">
      <defs>
       <path d="M 0 0 
L 0 3.5 
" id="m3171a3962a" style="stroke:#000000;stroke-width:0.8;"/>
      </defs>
      <g>
       <use style="stroke:#000000;stroke-width:0.8;" x="72" xlink:href="#m3171a3962a" y="512.64"/>
      </g>
     </g>
     <g id="text_1">
      <!-- −1 -->
      <defs>
       <path d="M 10.59375 35.5 
L 73.1875 35.5 
L 73.1875 27.203125 
L 10.59375 27.203125 
z
" id="DejaVuSans-2212"/>
       <path d="M 12.40625 8.296875 
L 28.515625 8.296875 
L 28.515625 63.921875 
L 10.984375 60.40625 
L 10.984375 69.390625 
L 28.421875 72.90625 
L 38.28125 72.90625 
L 38.28125 8.296875 
L 54.390625 8.296875 
L 54.390625 0 
L 12.40625 0 
z
" id="DejaVuSans-31"/>
      </defs>
      <g transform="translate(64.628906 527.238438)scale(0.1 -0.1)">
       <use xlink:href="#DejaVuSans-2212"/>
       <use x="83.789062" xlink:href="#DejaVuSans-31"/>
      </g>
     </g>
    </g>
    <g id="xtick_2">
     <g id="line2d_2">
      <g>
       <use style="stroke:#000000;stroke-width:0.8;" x="125.783133" xlink:href="#m3171a3962a" y="512.64"/>
      </g>
     </g>
     <g id="text_2">
      <!-- 0 -->
      <defs>
       <path d="M 31.78125 66.40625 
Q 24.171875 66.40625 20.328125 58.90625 
Q 16.5 51.421875 16.5 36.375 
Q 16.5 21.390625 20.328125 13.890625 
Q 24.171875 6.390625 31.78125 6.390625 
Q 39.453125 6.390625 43.28125 13.890625 
Q 47.125 21.390625 47.125 36.375 
Q 47.125 51.421875 43.28125 58.90625 
Q 39.453125 66.40625 31.78125 66.40625 
z
M 31.78125 74.21875 
Q 44.046875 74.21875 50.515625 64.515625 
Q 56.984375 54.828125 56.984375 36.375 
Q 56.984375 17.96875 50.515625 8.265625 
Q 44.046875 -1.421875 31.78125 -1.421875 
Q 19.53125 -1.421875 13.0625 8.265625 
Q 6.59375 17.96875 6.59375 36.375 
Q 6.59375 54.828125 13.0625 64.515625 
Q 19.53125 74.21875 31.78125 74.21875 
z
" id="DejaVuSans-30"/>
      </defs>
      <g transform="translate(122.601883 527.238438)scale(0.1 -0.1)">
       <use xlink:href="#DejaVuSans-30"/>
      </g>
     </g>
    </g>
    <g id="xtick_3">
     <g id="line2d_3">
      <g>
       <use style="stroke:#000000;stroke-width:0.8;" x="179.566265" xlink:href="#m3171a3962a" y="512.64"/>
      </g>
     </g>
     <g id="text_3">
      <!-- 1 -->
      <g transform="translate(176.385015 527.238438)scale(0.1 -0.1)">
       <use xlink:href="#DejaVuSans-31"/>
      </g>
     </g>
    </g>
    <g id="xtick_4">
     <g id="line2d_4">
      <g>
       <use style="stroke:#000000;stroke-width:0.8;" x="233.349398" xlink:href="#m3171a3962a" y="512.64"/>
      </g>
     </g>
     <g id="text_4">
      <!-- 2 -->
      <defs>
       <path d="M 19.1875 8.296875 
L 53.609375 8.296875 
L 53.609375 0 
L 7.328125 0 
L 7.328125 8.296875 
Q 12.9375 14.109375 22.625 23.890625 
Q 32.328125 33.6875 34.8125 36.53125 
Q 39.546875 41.84375 41.421875 45.53125 
Q 43.3125 49.21875 43.3125 52.78125 
Q 43.3125 58.59375 39.234375 62.25 
Q 35.15625 65.921875 28.609375 65.921875 
Q 23.96875 65.921875 18.8125 64.3125 
Q 13.671875 62.703125 7.8125 59.421875 
L 7.8125 69.390625 
Q 13.765625 71.78125 18.9375 73 
Q 24.125 74.21875 28.421875 74.21875 
Q 39.75 74.21875 46.484375 68.546875 
Q 53.21875 62.890625 53.21875 53.421875 
Q 53.21875 48.921875 51.53125 44.890625 
Q 49.859375 40.875 45.40625 35.40625 
Q 44.1875 33.984375 37.640625 27.21875 
Q 31.109375 20.453125 19.1875 8.296875 
z
" id="DejaVuSans-32"/>
      </defs>
      <g transform="translate(230.168148 527.238438)scale(0.1 -0.1)">
       <use xlink:href="#DejaVuSans-32"/>
      </g>
     </g>
    </g>
    <g id="xtick_5">
     <g id="line2d_5">
      <g>
       <use style="stroke:#000000;stroke-width:0.8;" x="287.13253" xlink:href="#m3171a3962a" y="512.64"/>
      </g>
     </g>
     <g id="text_5">
      <!-- 3 -->
      <defs>
       <path d="M 40.578125 39.3125 
Q 47.65625 37.796875 51.625 33 
Q 55.609375 28.21875 55.609375 21.1875 
Q 55.609375 10.40625 48.1875 4.484375 
Q 40.765625 -1.421875 27.09375 -1.421875 
Q 22.515625 -1.421875 17.65625 -0.515625 
Q 12.796875 0.390625 7.625 2.203125 
L 7.625 11.71875 
Q 11.71875 9.328125 16.59375 8.109375 
Q 21.484375 6.890625 26.8125 6.890625 
Q 36.078125 6.890625 40.9375 10.546875 
Q 45.796875 14.203125 45.796875 21.1875 
Q 45.796875 27.640625 41.28125 31.265625 
Q 36.765625 34.90625 28.71875 34.90625 
L 20.21875 34.90625 
L 20.21875 43.015625 
L 29.109375 43.015625 
Q 36.375 43.015625 40.234375 45.921875 
Q 44.09375 48.828125 44.09375 54.296875 
Q 44.09375 59.90625 40.109375 62.90625 
Q 36.140625 65.921875 28.71875 65.921875 
Q 24.65625 65.921875 20.015625 65.03125 
Q 15.375 64.15625 9.8125 62.3125 
L 9.8125 71.09375 
Q 15.4375 72.65625 20.34375 73.4375 
Q 25.25 74.21875 29.59375 74.21875 
Q 40.828125 74.21875 47.359375 69.109375 
Q 53.90625 64.015625 53.90625 55.328125 
Q 53.90625 49.265625 50.4375 45.09375 
Q 46.96875 40.921875 40.578125 39.3125 
z
" id="DejaVuSans-33"/>
      </defs>
      <g transform="translate(283.95128 527.238438)scale(0.1 -0.1)">
       <use xlink:href="#DejaVuSans-33"/>
      </g>
     </g>
    </g>
    <g id="xtick_6">
     <g id="line2d_6">
      <g>
       <use style="stroke:#000000;stroke-width:0.8;" x="340.915663" xlink:href="#m3171a3962a" y="512.64"/>
      </g>
     </g>
     <g id="text_6">
      <!-- 4 -->
      <defs>
       <path d="M 37.796875 64.3125 
L 12.890625 25.390625 
L 37.796875 25.390625 
z
M 35.203125 72.90625 
L 47.609375 72.90625 
L 47.609375 25.390625 
L 58.015625 25.390625 
L 58.015625 17.1875 
L 47.609375 17.1875 
L 47.609375 0 
L 37.796875 0 
L 37.796875 17.1875 
L 4.890625 17.1875 
L 4.890625 26.703125 
z
" id="DejaVuSans-34"/>
      </defs>
      <g transform="translate(337.734413 527.238438)scale(0.1 -0.1)">
       <use xlink:href="#DejaVuSans-34"/>
      </g>
     </g>
    </g>
    <g id="xtick_7">
     <g id="line2d_7">
      <g>
       <use style="stroke:#000000;stroke-width:0.8;" x="394.698795" xlink:href="#m3171a3962a" y="512.64"/>
      </g>
     </g>
     <g id="text_7">
      <!-- 5 -->
      <defs>
       <path d="M 10.796875 72.90625 
L 49.515625 72.90625 
L 49.515625 64.59375 
L 19.828125 64.59375 
L 19.828125 46.734375 
Q 21.96875 47.46875 24.109375 47.828125 
Q 26.265625 48.1875 28.421875 48.1875 
Q 40.625 48.1875 47.75 41.5 
Q 54.890625 34.8125 54.890625 23.390625 
Q 54.890625 11.625 47.5625 5.09375 
Q 40.234375 -1.421875 26.90625 -1.421875 
Q 22.3125 -1.421875 17.546875 -0.640625 
Q 12.796875 0.140625 7.71875 1.703125 
L 7.71875 11.625 
Q 12.109375 9.234375 16.796875 8.0625 
Q 21.484375 6.890625 26.703125 6.890625 
Q 35.15625 6.890625 40.078125 11.328125 
Q 45.015625 15.765625 45.015625 23.390625 
Q 45.015625 31 40.078125 35.4375 
Q 35.15625 39.890625 26.703125 39.890625 
Q 22.75 39.890625 18.8125 39.015625 
Q 14.890625 38.140625 10.796875 36.28125 
z
" id="DejaVuSans-35"/>
      </defs>
      <g transform="translate(391.517545 527.238438)scale(0.1 -0.1)">
       <use xlink:href="#DejaVuSans-35"/>
      </g>
     </g>
    </g>
    <g id="xtick_8">
     <g id="line2d_8">
      <g>
       <use style="stroke:#000000;stroke-width:0.8;" x="448.481928" xlink:href="#m3171a3962a" y="512.64"/>
      </g>
     </g>
     <g id="text_8">
      <!-- 6 -->
      <defs>
       <path d="M 33.015625 40.375 
Q 26.375 40.375 22.484375 35.828125 
Q 18.609375 31.296875 18.609375 23.390625 
Q 18.609375 15.53125 22.484375 10.953125 
Q 26.375 6.390625 33.015625 6.390625 
Q 39.65625 6.390625 43.53125 10.953125 
Q 47.40625 15.53125 47.40625 23.390625 
Q 47.40625 31.296875 43.53125 35.828125 
Q 39.65625 40.375 33.015625 40.375 
z
M 52.59375 71.296875 
L 52.59375 62.3125 
Q 48.875 64.0625 45.09375 64.984375 
Q 41.3125 65.921875 37.59375 65.921875 
Q 27.828125 65.921875 22.671875 59.328125 
Q 17.53125 52.734375 16.796875 39.40625 
Q 19.671875 43.65625 24.015625 45.921875 
Q 28.375 48.1875 33.59375 48.1875 
Q 44.578125 48.1875 50.953125 41.515625 
Q 57.328125 34.859375 57.328125 23.390625 
Q 57.328125 12.15625 50.6875 5.359375 
Q 44.046875 -1.421875 33.015625 -1.421875 
Q 20.359375 -1.421875 13.671875 8.265625 
Q 6.984375 17.96875 6.984375 36.375 
Q 6.984375 53.65625 15.1875 63.9375 
Q 23.390625 74.21875 37.203125 74.21875 
Q 40.921875 74.21875 44.703125 73.484375 
Q 48.484375 72.75 52.59375 71.296875 
z
" id="DejaVuSans-36"/>
      </defs>
      <g transform="translate(445.300678 527.238438)scale(0.1 -0.1)">
       <use xlink:href="#DejaVuSans-36"/>
      </g>
     </g>
    </g>
    <g id="xtick_9">
     <g id="line2d_9">
      <g>
       <use style="stroke:#000000;stroke-width:0.8;" x="502.26506" xlink:href="#m3171a3962a" y="512.64"/>
      </g>
     </g>
     <g id="text_9">
      <!-- 7 -->
      <defs>
       <path d="M 8.203125 72.90625 
L 55.078125 72.90625 
L 55.078125 68.703125 
L 28.609375 0 
L 18.3125 0 
L 43.21875 64.59375 
L 8.203125 64.59375 
z
" id="DejaVuSans-37"/>
      </defs>
      <g transform="translate(499.08381 527.238438)scale(0.1 -0.1)">
       <use xlink:href="#DejaVuSans-37"/>
      </g>
     </g>
    </g>
   </g>
   <g id="matplotlib.axis_2">
    <g id="ytick_1">
     <g id="line2d_10">
      <defs>
       <path d="M 0 0 
L -3.5 0 
" id="mfbe8665770" style="stroke:#000000;stroke-width:0.8;"/>
      </defs>
      <g>
       <use style="stroke:#000000;stroke-width:0.8;" x="72" xlink:href="#mfbe8665770" y="460.296867"/>
      </g>
     </g>
     <g id="text_10">
      <!-- 0 -->
      <g transform="translate(58.6375 464.096086)scale(0.1 -0.1)">
       <use xlink:href="#DejaVuSans-30"/>
      </g>
     </g>
    </g>
    <g id="ytick_2">
     <g id="line2d_11">
      <g>
       <use style="stroke:#000000;stroke-width:0.8;" x="72" xlink:href="#mfbe8665770" y="406.513735"/>
      </g>
     </g>
     <g id="text_11">
      <!-- 1 -->
      <g transform="translate(58.6375 410.312954)scale(0.1 -0.1)">
       <use xlink:href="#DejaVuSans-31"/>
      </g>
     </g>
    </g>
    <g id="ytick_3">
     <g id="line2d_12">
      <g>
       <use style="stroke:#000000;stroke-width:0.8;" x="72" xlink:href="#mfbe8665770" y="352.730602"/>
      </g>
     </g>
     <g id="text_12">
      <!-- 2 -->
      <g transform="translate(58.6375 356.529821)scale(0.1 -0.1)">
       <use xlink:href="#DejaVuSans-32"/>
      </g>
     </g>
    </g>
    <g id="ytick_4">
     <g id="line2d_13">
      <g>
       <use style="stroke:#000000;stroke-width:0.8;" x="72" xlink:href="#mfbe8665770" y="298.94747"/>
      </g>
     </g>
     <g id="text_13">
      <!-- 3 -->
      <g transform="translate(58.6375 302.746689)scale(0.1 -0.1)">
       <use xlink:href="#DejaVuSans-33"/>
      </g>
     </g>
    </g>
    <g id="ytick_5">
     <g id="line2d_14">
      <g>
       <use style="stroke:#000000;stroke-width:0.8;" x="72" xlink:href="#mfbe8665770" y="245.164337"/>
      </g>
     </g>
     <g id="text_14">
      <!-- 4 -->
      <g transform="translate(58.6375 248.963556)scale(0.1 -0.1)">
       <use xlink:href="#DejaVuSans-34"/>
      </g>
     </g>
    </g>
    <g id="ytick_6">
     <g id="line2d_15">
      <g>
       <use style="stroke:#000000;stroke-width:0.8;" x="72" xlink:href="#mfbe8665770" y="191.381205"/>
      </g>
     </g>
     <g id="text_15">
      <!-- 5 -->
      <g transform="translate(58.6375 195.180424)scale(0.1 -0.1)">
       <use xlink:href="#DejaVuSans-35"/>
      </g>
     </g>
    </g>
    <g id="ytick_7">
     <g id="line2d_16">
      <g>
       <use style="stroke:#000000;stroke-width:0.8;" x="72" xlink:href="#mfbe8665770" y="137.598072"/>
      </g>
     </g>
     <g id="text_16">
      <!-- 6 -->
      <g transform="translate(58.6375 141.397291)scale(0.1 -0.1)">
       <use xlink:href="#DejaVuSans-36"/>
      </g>
     </g>
    </g>
    <g id="ytick_8">
     <g id="line2d_17">
      <g>
       <use style="stroke:#000000;stroke-width:0.8;" x="72" xlink:href="#mfbe8665770" y="83.81494"/>
      </g>
     </g>
     <g id="text_17">
      <!-- 7 -->
      <g transform="translate(58.6375 87.614159)scale(0.1 -0.1)">
       <use xlink:href="#DejaVuSans-37"/>
      </g>
     </g>
    </g>
   </g>
   <g id="line2d_18">
    <path clip-path="url(#p96fe2ae2b3)" d="M 143.010227 136.862767 
" style="fill:none;stroke:#1f77b4;stroke-linecap:square;stroke-width:1.5;"/>
    <defs>
     <path d="M -5 5 
L 5 5 
L 5 -5 
L -5 -5 
z
" id="m80e820c72a" style="stroke:#8000ff;stroke-linejoin:miter;"/>
    </defs>
    <g clip-path="url(#p96fe2ae2b3)">
     <use style="fill:#8000ff;stroke:#8000ff;stroke-linejoin:miter;" x="143.010227" xlink:href="#m80e820c72a" y="136.862767"/>
    </g>
   </g>
   <g id="line2d_19">
    <path clip-path="url(#p96fe2ae2b3)" d="M 295.594013 255.626619 
" style="fill:none;stroke:#ff7f0e;stroke-linecap:square;stroke-width:1.5;"/>
    <defs>
     <path d="M 0 -5 
L -4.755283 -1.545085 
L -2.938926 4.045085 
L 2.938926 4.045085 
L 4.755283 -1.545085 
z
" id="m3087bd7444" style="stroke:#8000ff;stroke-linejoin:miter;"/>
    </defs>
    <g clip-path="url(#p96fe2ae2b3)">
     <use style="fill:#8000ff;stroke:#8000ff;stroke-linejoin:miter;" x="295.594013" xlink:href="#m3087bd7444" y="255.626619"/>
    </g>
   </g>
   <g id="line2d_20">
    <path clip-path="url(#p96fe2ae2b3)" d="M 222.577614 453.655745 
" style="fill:none;stroke:#2ca02c;stroke-linecap:square;stroke-width:1.5;"/>
    <defs>
     <path d="M -5 5 
L 5 5 
L 5 -5 
L -5 -5 
z
" id="mab026ce738" style="stroke:#376ff9;stroke-linejoin:miter;"/>
    </defs>
    <g clip-path="url(#p96fe2ae2b3)">
     <use style="fill:#376ff9;stroke:#376ff9;stroke-linejoin:miter;" x="222.577614" xlink:href="#mab026ce738" y="453.655745"/>
    </g>
   </g>
   <g id="line2d_21">
    <path clip-path="url(#p96fe2ae2b3)" d="M 248.219026 235.991038 
" style="fill:none;stroke:#d62728;stroke-linecap:square;stroke-width:1.5;"/>
    <defs>
     <path d="M 0 -5 
L -4.755283 -1.545085 
L -2.938926 4.045085 
L 2.938926 4.045085 
L 4.755283 -1.545085 
z
" id="m796b0a028b" style="stroke:#376ff9;stroke-linejoin:miter;"/>
    </defs>
    <g clip-path="url(#p96fe2ae2b3)">
     <use style="fill:#376ff9;stroke:#376ff9;stroke-linejoin:miter;" x="248.219026" xlink:href="#m796b0a028b" y="235.991038"/>
    </g>
   </g>
   <g id="line2d_22">
    <path clip-path="url(#p96fe2ae2b3)" d="M 192.741195 279.056246 
" style="fill:none;stroke:#9467bd;stroke-linecap:square;stroke-width:1.5;"/>
    <defs>
     <path d="M -5 5 
L 5 5 
L 5 -5 
L -5 -5 
z
" id="m340a04036d" style="stroke:#12c7e6;stroke-linejoin:miter;"/>
    </defs>
    <g clip-path="url(#p96fe2ae2b3)">
     <use style="fill:#12c7e6;stroke:#12c7e6;stroke-linejoin:miter;" x="192.741195" xlink:href="#m340a04036d" y="279.056246"/>
    </g>
   </g>
   <g id="line2d_23">
    <path clip-path="url(#p96fe2ae2b3)" d="M 458.81106 215.219931 
" style="fill:none;stroke:#8c564b;stroke-linecap:square;stroke-width:1.5;"/>
    <defs>
     <path d="M 0 -5 
L -4.755283 -1.545085 
L -2.938926 4.045085 
L 2.938926 4.045085 
L 4.755283 -1.545085 
z
" id="m529640eb4d" style="stroke:#12c7e6;stroke-linejoin:miter;"/>
    </defs>
    <g clip-path="url(#p96fe2ae2b3)">
     <use style="fill:#12c7e6;stroke:#12c7e6;stroke-linejoin:miter;" x="458.81106" xlink:href="#m529640eb4d" y="215.219931"/>
    </g>
   </g>
   <g id="line2d_24">
    <path clip-path="url(#p96fe2ae2b3)" d="M 154.066068 412.253691 
" style="fill:none;stroke:#e377c2;stroke-linecap:square;stroke-width:1.5;"/>
    <defs>
     <path d="M -5 5 
L 5 5 
L 5 -5 
L -5 -5 
z
" id="m7b94d3d121" style="stroke:#5bf9c7;stroke-linejoin:miter;"/>
    </defs>
    <g clip-path="url(#p96fe2ae2b3)">
     <use style="fill:#5bf9c7;stroke:#5bf9c7;stroke-linejoin:miter;" x="154.066068" xlink:href="#m7b94d3d121" y="412.253691"/>
    </g>
   </g>
   <g id="line2d_25">
    <path clip-path="url(#p96fe2ae2b3)" d="M 331.142435 338.988029 
" style="fill:none;stroke:#7f7f7f;stroke-linecap:square;stroke-width:1.5;"/>
    <defs>
     <path d="M 0 -5 
L -4.755283 -1.545085 
L -2.938926 4.045085 
L 2.938926 4.045085 
L 4.755283 -1.545085 
z
" id="m75c6a45788" style="stroke:#5bf9c7;stroke-linejoin:miter;"/>
    </defs>
    <g clip-path="url(#p96fe2ae2b3)">
     <use style="fill:#5bf9c7;stroke:#5bf9c7;stroke-linejoin:miter;" x="331.142435" xlink:href="#m75c6a45788" y="338.988029"/>
    </g>
   </g>
   <g id="line2d_26">
    <path clip-path="url(#p96fe2ae2b3)" d="M 407.641962 157.071642 
" style="fill:none;stroke:#bcbd22;stroke-linecap:square;stroke-width:1.5;"/>
    <defs>
     <path d="M -5 5 
L 5 5 
L 5 -5 
L -5 -5 
z
" id="m87e9318e1b" style="stroke:#a4f99f;stroke-linejoin:miter;"/>
    </defs>
    <g clip-path="url(#p96fe2ae2b3)">
     <use style="fill:#a4f99f;stroke:#a4f99f;stroke-linejoin:miter;" x="407.641962" xlink:href="#m87e9318e1b" y="157.071642"/>
    </g>
   </g>
   <g id="line2d_27">
    <path clip-path="url(#p96fe2ae2b3)" d="M 259.911813 274.609947 
" style="fill:none;stroke:#17becf;stroke-linecap:square;stroke-width:1.5;"/>
    <defs>
     <path d="M 0 -5 
L -4.755283 -1.545085 
L -2.938926 4.045085 
L 2.938926 4.045085 
L 4.755283 -1.545085 
z
" id="md8d0790b32" style="stroke:#a4f99f;stroke-linejoin:miter;"/>
    </defs>
    <g clip-path="url(#p96fe2ae2b3)">
     <use style="fill:#a4f99f;stroke:#a4f99f;stroke-linejoin:miter;" x="259.911813" xlink:href="#md8d0790b32" y="274.609947"/>
    </g>
   </g>
   <g id="line2d_28">
    <path clip-path="url(#p96fe2ae2b3)" d="M 188.668554 128.706322 
" style="fill:none;stroke:#1f77b4;stroke-linecap:square;stroke-width:1.5;"/>
    <defs>
     <path d="M -5 5 
L 5 5 
L 5 -5 
L -5 -5 
z
" id="mc1007ccdb6" style="stroke:#edc76f;stroke-linejoin:miter;"/>
    </defs>
    <g clip-path="url(#p96fe2ae2b3)">
     <use style="fill:#edc76f;stroke:#edc76f;stroke-linejoin:miter;" x="188.668554" xlink:href="#mc1007ccdb6" y="128.706322"/>
    </g>
   </g>
   <g id="line2d_29">
    <path clip-path="url(#p96fe2ae2b3)" d="M 415.709366 296.550869 
" style="fill:none;stroke:#ff7f0e;stroke-linecap:square;stroke-width:1.5;"/>
    <defs>
     <path d="M 0 -5 
L -4.755283 -1.545085 
L -2.938926 4.045085 
L 2.938926 4.045085 
L 4.755283 -1.545085 
z
" id="mf83d6f753f" style="stroke:#edc76f;stroke-linejoin:miter;"/>
    </defs>
    <g clip-path="url(#p96fe2ae2b3)">
     <use style="fill:#edc76f;stroke:#edc76f;stroke-linejoin:miter;" x="415.709366" xlink:href="#mf83d6f753f" y="296.550869"/>
    </g>
   </g>
   <g id="line2d_30">
    <path clip-path="url(#p96fe2ae2b3)" d="M 270.814952 426.341599 
" style="fill:none;stroke:#2ca02c;stroke-linecap:square;stroke-width:1.5;"/>
    <defs>
     <path d="M -5 5 
L 5 5 
L 5 -5 
L -5 -5 
z
" id="m463e2e583e" style="stroke:#ff6f39;stroke-linejoin:miter;"/>
    </defs>
    <g clip-path="url(#p96fe2ae2b3)">
     <use style="fill:#ff6f39;stroke:#ff6f39;stroke-linejoin:miter;" x="270.814952" xlink:href="#m463e2e583e" y="426.341599"/>
    </g>
   </g>
   <g id="line2d_31">
    <path clip-path="url(#p96fe2ae2b3)" d="M 354.47168 182.50644 
" style="fill:none;stroke:#d62728;stroke-linecap:square;stroke-width:1.5;"/>
    <defs>
     <path d="M 0 -5 
L -4.755283 -1.545085 
L -2.938926 4.045085 
L 2.938926 4.045085 
L 4.755283 -1.545085 
z
" id="m46b4d0fdec" style="stroke:#ff6f39;stroke-linejoin:miter;"/>
    </defs>
    <g clip-path="url(#p96fe2ae2b3)">
     <use style="fill:#ff6f39;stroke:#ff6f39;stroke-linejoin:miter;" x="354.47168" xlink:href="#m46b4d0fdec" y="182.50644"/>
    </g>
   </g>
   <g id="line2d_32">
    <path clip-path="url(#p96fe2ae2b3)" d="M 271.864722 315.604145 
" style="fill:none;stroke:#9467bd;stroke-linecap:square;stroke-width:1.5;"/>
    <defs>
     <path d="M -5 5 
L 5 5 
L 5 -5 
L -5 -5 
z
" id="mbdd792410f" style="stroke:#ff0000;stroke-linejoin:miter;"/>
    </defs>
    <g clip-path="url(#p96fe2ae2b3)">
     <use style="fill:#ff0000;stroke:#ff0000;stroke-linejoin:miter;" x="271.864722" xlink:href="#mbdd792410f" y="315.604145"/>
    </g>
   </g>
   <g id="line2d_33">
    <path clip-path="url(#p96fe2ae2b3)" d="M 460.56441 432.354658 
" style="fill:none;stroke:#8c564b;stroke-linecap:square;stroke-width:1.5;"/>
    <defs>
     <path d="M 0 -5 
L -4.755283 -1.545085 
L -2.938926 4.045085 
L 2.938926 4.045085 
L 4.755283 -1.545085 
z
" id="m5869809657" style="stroke:#ff0000;stroke-linejoin:miter;"/>
    </defs>
    <g clip-path="url(#p96fe2ae2b3)">
     <use style="fill:#ff0000;stroke:#ff0000;stroke-linejoin:miter;" x="460.56441" xlink:href="#m5869809657" y="432.354658"/>
    </g>
   </g>
   <g id="line2d_34">
    <defs>
     <path d="M 0 2.5 
C 0.663008 2.5 1.29895 2.236584 1.767767 1.767767 
C 2.236584 1.29895 2.5 0.663008 2.5 0 
C 2.5 -0.663008 2.236584 -1.29895 1.767767 -1.767767 
C 1.29895 -2.236584 0.663008 -2.5 0 -2.5 
C -0.663008 -2.5 -1.29895 -2.236584 -1.767767 -1.767767 
C -2.236584 -1.29895 -2.5 -0.663008 -2.5 0 
C -2.5 0.663008 -2.236584 1.29895 -1.767767 1.767767 
C -1.29895 2.236584 -0.663008 2.5 0 2.5 
z
" id="m7629f40ccf" style="stroke:#000000;"/>
    </defs>
    <g clip-path="url(#p96fe2ae2b3)">
     <use style="stroke:#000000;" x="309.020428" xlink:href="#m7629f40ccf" y="125.715804"/>
     <use style="stroke:#000000;" x="360.665595" xlink:href="#m7629f40ccf" y="416.437844"/>
     <use style="stroke:#000000;" x="362.350626" xlink:href="#m7629f40ccf" y="260.947047"/>
     <use style="stroke:#000000;" x="147.620486" xlink:href="#m7629f40ccf" y="292.087556"/>
     <use style="stroke:#000000;" x="264.733314" xlink:href="#m7629f40ccf" y="373.621245"/>
     <use style="stroke:#000000;" x="242.42547" xlink:href="#m7629f40ccf" y="361.544698"/>
     <use style="stroke:#000000;" x="358.242771" xlink:href="#m7629f40ccf" y="282.221495"/>
     <use style="stroke:#000000;" x="183.905185" xlink:href="#m7629f40ccf" y="370.719845"/>
     <use style="stroke:#000000;" x="194.780508" xlink:href="#m7629f40ccf" y="345.193957"/>
     <use style="stroke:#000000;" x="173.846854" xlink:href="#m7629f40ccf" y="189.512062"/>
     <use style="stroke:#000000;" x="203.521066" xlink:href="#m7629f40ccf" y="206.016629"/>
     <use style="stroke:#000000;" x="382.471202" xlink:href="#m7629f40ccf" y="445.072177"/>
     <use style="stroke:#000000;" x="189.248448" xlink:href="#m7629f40ccf" y="169.343772"/>
     <use style="stroke:#000000;" x="447.867616" xlink:href="#m7629f40ccf" y="321.231679"/>
     <use style="stroke:#000000;" x="289.969966" xlink:href="#m7629f40ccf" y="217.304826"/>
     <use style="stroke:#000000;" x="360.296698" xlink:href="#m7629f40ccf" y="271.584271"/>
     <use style="stroke:#000000;" x="253.579392" xlink:href="#m7629f40ccf" y="367.582972"/>
     <use style="stroke:#000000;" x="189.342847" xlink:href="#m7629f40ccf" y="357.956901"/>
     <use style="stroke:#000000;" x="188.68396" xlink:href="#m7629f40ccf" y="197.764346"/>
     <use style="stroke:#000000;" x="181.547651" xlink:href="#m7629f40ccf" y="179.427917"/>
    </g>
   </g>
   <g id="line2d_35">
    <path clip-path="url(#p96fe2ae2b3)" d="M 330.533681 125.715804 
L 329.368033 118.730463 
L 325.997407 112.502091 
L 320.787062 107.70563 
L 314.301619 104.860851 
L 307.243877 104.27603 
L 300.378652 106.014541 
L 294.449898 109.88799 
L 290.100086 115.476628 
L 287.800587 122.174839 
L 287.800587 129.256769 
L 290.100086 135.954981 
L 294.449898 141.543619 
L 300.378652 145.417068 
L 307.243877 147.155579 
L 314.301619 146.570758 
L 320.787062 143.725979 
L 325.997407 138.929518 
L 329.368033 132.701146 
L 330.533681 125.715804 
" style="fill:none;stroke:#000000;stroke-dasharray:5.55,2.4;stroke-dashoffset:0;stroke-width:1.5;"/>
   </g>
   <g id="line2d_36">
    <path clip-path="url(#p96fe2ae2b3)" d="M 314.936572 125.715804 
L 314.616019 123.794835 
L 313.689097 122.082033 
L 312.256252 120.763006 
L 310.472755 119.980692 
L 308.531876 119.819866 
L 306.64394 120.297957 
L 305.013532 121.363155 
L 303.817334 122.900031 
L 303.184972 124.742039 
L 303.184972 126.68957 
L 303.817334 128.531578 
L 305.013532 130.068453 
L 306.64394 131.133652 
L 308.531876 131.611742 
L 310.472755 131.450916 
L 312.256252 130.668602 
L 313.689097 129.349576 
L 314.616019 127.636773 
L 314.936572 125.715804 
" style="fill:none;stroke:#ff0000;stroke-linecap:square;stroke-width:1.5;"/>
   </g>
   <g id="line2d_37">
    <path clip-path="url(#p96fe2ae2b3)" d="M 382.178848 416.437844 
L 381.013201 409.452502 
L 377.642575 403.224131 
L 372.432229 398.42767 
L 365.946787 395.582891 
L 358.889045 394.99807 
L 352.02382 396.736581 
L 346.095065 400.61003 
L 341.745254 406.198668 
L 339.445755 412.896879 
L 339.445755 419.978809 
L 341.745254 426.677021 
L 346.095065 432.265659 
L 352.02382 436.139108 
L 358.889045 437.877619 
L 365.946787 437.292797 
L 372.432229 434.448019 
L 377.642575 429.651558 
L 381.013201 423.423186 
L 382.178848 416.437844 
" style="fill:none;stroke:#000000;stroke-dasharray:5.55,2.4;stroke-dashoffset:0;stroke-width:1.5;"/>
   </g>
   <g id="line2d_38">
    <path clip-path="url(#p96fe2ae2b3)" d="M 366.58174 416.437844 
L 366.261187 414.516875 
L 365.334265 412.804073 
L 363.90142 411.485046 
L 362.117923 410.702732 
L 360.177044 410.541906 
L 358.289107 411.019997 
L 356.658699 412.085195 
L 355.462501 413.622071 
L 354.830139 415.464079 
L 354.830139 417.41161 
L 355.462501 419.253618 
L 356.658699 420.790493 
L 358.289107 421.855692 
L 360.177044 422.333782 
L 362.117923 422.172956 
L 363.90142 421.390642 
L 365.334265 420.071615 
L 366.261187 418.358813 
L 366.58174 416.437844 
" style="fill:none;stroke:#ff0000;stroke-linecap:square;stroke-width:1.5;"/>
   </g>
   <g id="line2d_39">
    <path clip-path="url(#p96fe2ae2b3)" d="M 383.863879 260.947047 
L 382.698232 253.961705 
L 379.327606 247.733333 
L 374.11726 242.936873 
L 367.631818 240.092094 
L 360.574076 239.507272 
L 353.708851 241.245784 
L 347.780096 245.119232 
L 343.430285 250.70787 
L 341.130786 257.406082 
L 341.130786 264.488012 
L 343.430285 271.186223 
L 347.780096 276.774861 
L 353.708851 280.64831 
L 360.574076 282.386821 
L 367.631818 281.802 
L 374.11726 278.957221 
L 379.327606 274.16076 
L 382.698232 267.932389 
L 383.863879 260.947047 
" style="fill:none;stroke:#000000;stroke-dasharray:5.55,2.4;stroke-dashoffset:0;stroke-width:1.5;"/>
   </g>
   <g id="line2d_40">
    <path clip-path="url(#p96fe2ae2b3)" d="M 368.266771 260.947047 
L 367.946218 259.026078 
L 367.019295 257.313276 
L 365.58645 255.994249 
L 363.802954 255.211935 
L 361.862075 255.051109 
L 359.974138 255.529199 
L 358.34373 256.594398 
L 357.147532 258.131273 
L 356.51517 259.973281 
L 356.51517 261.920812 
L 357.147532 263.76282 
L 358.34373 265.299696 
L 359.974138 266.364894 
L 361.862075 266.842985 
L 363.802954 266.682159 
L 365.58645 265.899845 
L 367.019295 264.580818 
L 367.946218 262.868016 
L 368.266771 260.947047 
" style="fill:none;stroke:#ff0000;stroke-linecap:square;stroke-width:1.5;"/>
   </g>
   <g id="line2d_41">
    <path clip-path="url(#p96fe2ae2b3)" d="M 169.133739 292.087556 
L 167.968092 285.102214 
L 164.597466 278.873843 
L 159.387121 274.077382 
L 152.901678 271.232603 
L 145.843936 270.647782 
L 138.978711 272.386293 
L 133.049957 276.259742 
L 128.700145 281.84838 
L 126.400646 288.546591 
L 126.400646 295.628521 
L 128.700145 302.326733 
L 133.049957 307.915371 
L 138.978711 311.788819 
L 145.843936 313.527331 
L 152.901678 312.942509 
L 159.387121 310.09773 
L 164.597466 305.30127 
L 167.968092 299.072898 
L 169.133739 292.087556 
" style="fill:none;stroke:#000000;stroke-dasharray:5.55,2.4;stroke-dashoffset:0;stroke-width:1.5;"/>
   </g>
   <g id="line2d_42">
    <path clip-path="url(#p96fe2ae2b3)" d="M 153.536631 292.087556 
L 153.216078 290.166587 
L 152.289156 288.453785 
L 150.856311 287.134758 
L 149.072814 286.352444 
L 147.131935 286.191618 
L 145.243998 286.669709 
L 143.613591 287.734907 
L 142.417393 289.271783 
L 141.78503 291.113791 
L 141.78503 293.061322 
L 142.417393 294.90333 
L 143.613591 296.440205 
L 145.243998 297.505404 
L 147.131935 297.983494 
L 149.072814 297.822668 
L 150.856311 297.040354 
L 152.289156 295.721327 
L 153.216078 294.008525 
L 153.536631 292.087556 
" style="fill:none;stroke:#ff0000;stroke-linecap:square;stroke-width:1.5;"/>
   </g>
   <g id="line2d_43">
    <path clip-path="url(#p96fe2ae2b3)" d="M 286.246567 373.621245 
L 285.08092 366.635903 
L 281.710293 360.407532 
L 276.499948 355.611071 
L 270.014505 352.766292 
L 262.956764 352.181471 
L 256.091539 353.919982 
L 250.162784 357.793431 
L 245.812973 363.382069 
L 243.513474 370.08028 
L 243.513474 377.16221 
L 245.812973 383.860422 
L 250.162784 389.44906 
L 256.091539 393.322509 
L 262.956764 395.06102 
L 270.014505 394.476198 
L 276.499948 391.63142 
L 281.710293 386.834959 
L 285.08092 380.606587 
L 286.246567 373.621245 
" style="fill:none;stroke:#000000;stroke-dasharray:5.55,2.4;stroke-dashoffset:0;stroke-width:1.5;"/>
   </g>
   <g id="line2d_44">
    <path clip-path="url(#p96fe2ae2b3)" d="M 270.649459 373.621245 
L 270.328906 371.700276 
L 269.401983 369.987474 
L 267.969138 368.668447 
L 266.185642 367.886133 
L 264.244763 367.725307 
L 262.356826 368.203398 
L 260.726418 369.268596 
L 259.53022 370.805472 
L 258.897858 372.64748 
L 258.897858 374.595011 
L 259.53022 376.437019 
L 260.726418 377.973894 
L 262.356826 379.039093 
L 264.244763 379.517183 
L 266.185642 379.356357 
L 267.969138 378.574043 
L 269.401983 377.255016 
L 270.328906 375.542214 
L 270.649459 373.621245 
" style="fill:none;stroke:#ff0000;stroke-linecap:square;stroke-width:1.5;"/>
   </g>
   <g id="line2d_45">
    <path clip-path="url(#p96fe2ae2b3)" d="M 263.938723 361.544698 
L 262.773075 354.559356 
L 259.402449 348.330985 
L 254.192104 343.534524 
L 247.706661 340.689745 
L 240.648919 340.104924 
L 233.783694 341.843435 
L 227.85494 345.716883 
L 223.505128 351.305521 
L 221.205629 358.003733 
L 221.205629 365.085663 
L 223.505128 371.783875 
L 227.85494 377.372513 
L 233.783694 381.245961 
L 240.648919 382.984472 
L 247.706661 382.399651 
L 254.192104 379.554872 
L 259.402449 374.758412 
L 262.773075 368.53004 
L 263.938723 361.544698 
" style="fill:none;stroke:#000000;stroke-dasharray:5.55,2.4;stroke-dashoffset:0;stroke-width:1.5;"/>
   </g>
   <g id="line2d_46">
    <path clip-path="url(#p96fe2ae2b3)" d="M 248.341614 361.544698 
L 248.021061 359.623729 
L 247.094139 357.910927 
L 245.661294 356.5919 
L 243.877797 355.809586 
L 241.936918 355.64876 
L 240.048981 356.126851 
L 238.418574 357.192049 
L 237.222376 358.728924 
L 236.590014 360.570933 
L 236.590014 362.518463 
L 237.222376 364.360472 
L 238.418574 365.897347 
L 240.048981 366.962545 
L 241.936918 367.440636 
L 243.877797 367.27981 
L 245.661294 366.497496 
L 247.094139 365.178469 
L 248.021061 363.465667 
L 248.341614 361.544698 
" style="fill:none;stroke:#ff0000;stroke-linecap:square;stroke-width:1.5;"/>
   </g>
   <g id="line2d_47">
    <path clip-path="url(#p96fe2ae2b3)" d="M 379.756024 282.221495 
L 378.590376 275.236153 
L 375.21975 269.007781 
L 370.009405 264.21132 
L 363.523962 261.366541 
L 356.46622 260.78172 
L 349.600995 262.520231 
L 343.672241 266.39368 
L 339.322429 271.982318 
L 337.02293 278.68053 
L 337.02293 285.76246 
L 339.322429 292.460671 
L 343.672241 298.049309 
L 349.600995 301.922758 
L 356.46622 303.661269 
L 363.523962 303.076448 
L 370.009405 300.231669 
L 375.21975 295.435208 
L 378.590376 289.206836 
L 379.756024 282.221495 
" style="fill:none;stroke:#000000;stroke-dasharray:5.55,2.4;stroke-dashoffset:0;stroke-width:1.5;"/>
   </g>
   <g id="line2d_48">
    <path clip-path="url(#p96fe2ae2b3)" d="M 364.158915 282.221495 
L 363.838362 280.300526 
L 362.91144 278.587723 
L 361.478595 277.268697 
L 359.695098 276.486382 
L 357.754219 276.325557 
L 355.866282 276.803647 
L 354.235875 277.868846 
L 353.039677 279.405721 
L 352.407315 281.247729 
L 352.407315 283.19526 
L 353.039677 285.037268 
L 354.235875 286.574144 
L 355.866282 287.639342 
L 357.754219 288.117433 
L 359.695098 287.956607 
L 361.478595 287.174293 
L 362.91144 285.855266 
L 363.838362 284.142464 
L 364.158915 282.221495 
" style="fill:none;stroke:#ff0000;stroke-linecap:square;stroke-width:1.5;"/>
   </g>
   <g id="line2d_49">
    <path clip-path="url(#p96fe2ae2b3)" d="M 205.418438 370.719845 
L 204.252791 363.734503 
L 200.882165 357.506132 
L 195.671819 352.709671 
L 189.186377 349.864892 
L 182.128635 349.280071 
L 175.26341 351.018582 
L 169.334656 354.892031 
L 164.984844 360.480669 
L 162.685345 367.17888 
L 162.685345 374.26081 
L 164.984844 380.959022 
L 169.334656 386.54766 
L 175.26341 390.421109 
L 182.128635 392.15962 
L 189.186377 391.574798 
L 195.671819 388.73002 
L 200.882165 383.933559 
L 204.252791 377.705187 
L 205.418438 370.719845 
" style="fill:none;stroke:#000000;stroke-dasharray:5.55,2.4;stroke-dashoffset:0;stroke-width:1.5;"/>
   </g>
   <g id="line2d_50">
    <path clip-path="url(#p96fe2ae2b3)" d="M 189.82133 370.719845 
L 189.500777 368.798876 
L 188.573855 367.086074 
L 187.14101 365.767047 
L 185.357513 364.984733 
L 183.416634 364.823907 
L 181.528697 365.301998 
L 179.89829 366.367196 
L 178.702091 367.904072 
L 178.069729 369.74608 
L 178.069729 371.693611 
L 178.702091 373.535619 
L 179.89829 375.072494 
L 181.528697 376.137693 
L 183.416634 376.615783 
L 185.357513 376.454957 
L 187.14101 375.672643 
L 188.573855 374.353617 
L 189.500777 372.640814 
L 189.82133 370.719845 
" style="fill:none;stroke:#ff0000;stroke-linecap:square;stroke-width:1.5;"/>
   </g>
   <g id="line2d_51">
    <path clip-path="url(#p96fe2ae2b3)" d="M 216.293761 345.193957 
L 215.128114 338.208615 
L 211.757487 331.980243 
L 206.547142 327.183782 
L 200.061699 324.339003 
L 193.003958 323.754182 
L 186.138733 325.492693 
L 180.209978 329.366142 
L 175.860167 334.95478 
L 173.560668 341.652991 
L 173.560668 348.734922 
L 175.860167 355.433133 
L 180.209978 361.021771 
L 186.138733 364.89522 
L 193.003958 366.633731 
L 200.061699 366.04891 
L 206.547142 363.204131 
L 211.757487 358.40767 
L 215.128114 352.179298 
L 216.293761 345.193957 
" style="fill:none;stroke:#000000;stroke-dasharray:5.55,2.4;stroke-dashoffset:0;stroke-width:1.5;"/>
   </g>
   <g id="line2d_52">
    <path clip-path="url(#p96fe2ae2b3)" d="M 200.696653 345.193957 
L 200.3761 343.272988 
L 199.449177 341.560185 
L 198.016332 340.241159 
L 196.232836 339.458844 
L 194.291957 339.298019 
L 192.40402 339.776109 
L 190.773612 340.841307 
L 189.577414 342.378183 
L 188.945052 344.220191 
L 188.945052 346.167722 
L 189.577414 348.00973 
L 190.773612 349.546606 
L 192.40402 350.611804 
L 194.291957 351.089894 
L 196.232836 350.929069 
L 198.016332 350.146754 
L 199.449177 348.827728 
L 200.3761 347.114926 
L 200.696653 345.193957 
" style="fill:none;stroke:#ff0000;stroke-linecap:square;stroke-width:1.5;"/>
   </g>
   <g id="line2d_53">
    <path clip-path="url(#p96fe2ae2b3)" d="M 195.360107 189.512062 
L 194.19446 182.526721 
L 190.823834 176.298349 
L 185.613489 171.501888 
L 179.128046 168.657109 
L 172.070304 168.072288 
L 165.205079 169.810799 
L 159.276325 173.684248 
L 154.926513 179.272886 
L 152.627014 185.971097 
L 152.627014 193.053028 
L 154.926513 199.751239 
L 159.276325 205.339877 
L 165.205079 209.213326 
L 172.070304 210.951837 
L 179.128046 210.367016 
L 185.613489 207.522237 
L 190.823834 202.725776 
L 194.19446 196.497404 
L 195.360107 189.512062 
" style="fill:none;stroke:#000000;stroke-dasharray:5.55,2.4;stroke-dashoffset:0;stroke-width:1.5;"/>
   </g>
   <g id="line2d_54">
    <path clip-path="url(#p96fe2ae2b3)" d="M 179.762999 189.512062 
L 179.442446 187.591093 
L 178.515524 185.878291 
L 177.082679 184.559265 
L 175.299182 183.77695 
L 173.358303 183.616124 
L 171.470366 184.094215 
L 169.839959 185.159413 
L 168.643761 186.696289 
L 168.011398 188.538297 
L 168.011398 190.485828 
L 168.643761 192.327836 
L 169.839959 193.864711 
L 171.470366 194.92991 
L 173.358303 195.408 
L 175.299182 195.247175 
L 177.082679 194.46486 
L 178.515524 193.145834 
L 179.442446 191.433031 
L 179.762999 189.512062 
" style="fill:none;stroke:#ff0000;stroke-linecap:square;stroke-width:1.5;"/>
   </g>
   <g id="line2d_55">
    <path clip-path="url(#p96fe2ae2b3)" d="M 225.034319 206.016629 
L 223.868672 199.031287 
L 220.498046 192.802915 
L 215.2877 188.006454 
L 208.802258 185.161676 
L 201.744516 184.576854 
L 194.879291 186.315365 
L 188.950537 190.188814 
L 184.600725 195.777452 
L 182.301226 202.475664 
L 182.301226 209.557594 
L 184.600725 216.255805 
L 188.950537 221.844443 
L 194.879291 225.717892 
L 201.744516 227.456403 
L 208.802258 226.871582 
L 215.2877 224.026803 
L 220.498046 219.230342 
L 223.868672 213.001971 
L 225.034319 206.016629 
" style="fill:none;stroke:#000000;stroke-dasharray:5.55,2.4;stroke-dashoffset:0;stroke-width:1.5;"/>
   </g>
   <g id="line2d_56">
    <path clip-path="url(#p96fe2ae2b3)" d="M 209.437211 206.016629 
L 209.116658 204.09566 
L 208.189736 202.382858 
L 206.756891 201.063831 
L 204.973394 200.281517 
L 203.032515 200.120691 
L 201.144578 200.598781 
L 199.514171 201.66398 
L 198.317972 203.200855 
L 197.68561 205.042863 
L 197.68561 206.990394 
L 198.317972 208.832402 
L 199.514171 210.369278 
L 201.144578 211.434476 
L 203.032515 211.912567 
L 204.973394 211.751741 
L 206.756891 210.969427 
L 208.189736 209.6504 
L 209.116658 207.937598 
L 209.437211 206.016629 
" style="fill:none;stroke:#ff0000;stroke-linecap:square;stroke-width:1.5;"/>
   </g>
   <g id="line2d_57">
    <path clip-path="url(#p96fe2ae2b3)" d="M 403.984455 445.072177 
L 402.818807 438.086835 
L 399.448181 431.858464 
L 394.237836 427.062003 
L 387.752393 424.217224 
L 380.694651 423.632403 
L 373.829427 425.370914 
L 367.900672 429.244363 
L 363.550861 434.833001 
L 361.251362 441.531212 
L 361.251362 448.613142 
L 363.550861 455.311354 
L 367.900672 460.899992 
L 373.829427 464.773441 
L 380.694651 466.511952 
L 387.752393 465.92713 
L 394.237836 463.082351 
L 399.448181 458.285891 
L 402.818807 452.057519 
L 403.984455 445.072177 
" style="fill:none;stroke:#000000;stroke-dasharray:5.55,2.4;stroke-dashoffset:0;stroke-width:1.5;"/>
   </g>
   <g id="line2d_58">
    <path clip-path="url(#p96fe2ae2b3)" d="M 388.387346 445.072177 
L 388.066793 443.151208 
L 387.139871 441.438406 
L 385.707026 440.119379 
L 383.923529 439.337065 
L 381.98265 439.176239 
L 380.094714 439.65433 
L 378.464306 440.719528 
L 377.268108 442.256404 
L 376.635746 444.098412 
L 376.635746 446.045943 
L 377.268108 447.887951 
L 378.464306 449.424826 
L 380.094714 450.490025 
L 381.98265 450.968115 
L 383.923529 450.807289 
L 385.707026 450.024975 
L 387.139871 448.705948 
L 388.066793 446.993146 
L 388.387346 445.072177 
" style="fill:none;stroke:#ff0000;stroke-linecap:square;stroke-width:1.5;"/>
   </g>
   <g id="line2d_59">
    <path clip-path="url(#p96fe2ae2b3)" d="M 210.761701 169.343772 
L 209.596053 162.35843 
L 206.225427 156.130058 
L 201.015082 151.333598 
L 194.529639 148.488819 
L 187.471897 147.903998 
L 180.606672 149.642509 
L 174.677918 153.515957 
L 170.328106 159.104595 
L 168.028607 165.802807 
L 168.028607 172.884737 
L 170.328106 179.582949 
L 174.677918 185.171587 
L 180.606672 189.045035 
L 187.471897 190.783546 
L 194.529639 190.198725 
L 201.015082 187.353946 
L 206.225427 182.557485 
L 209.596053 176.329114 
L 210.761701 169.343772 
" style="fill:none;stroke:#000000;stroke-dasharray:5.55,2.4;stroke-dashoffset:0;stroke-width:1.5;"/>
   </g>
   <g id="line2d_60">
    <path clip-path="url(#p96fe2ae2b3)" d="M 195.164592 169.343772 
L 194.844039 167.422803 
L 193.917117 165.710001 
L 192.484272 164.390974 
L 190.700775 163.60866 
L 188.759896 163.447834 
L 186.87196 163.925925 
L 185.241552 164.991123 
L 184.045354 166.527998 
L 183.412992 168.370007 
L 183.412992 170.317537 
L 184.045354 172.159546 
L 185.241552 173.696421 
L 186.87196 174.761619 
L 188.759896 175.23971 
L 190.700775 175.078884 
L 192.484272 174.29657 
L 193.917117 172.977543 
L 194.844039 171.264741 
L 195.164592 169.343772 
" style="fill:none;stroke:#ff0000;stroke-linecap:square;stroke-width:1.5;"/>
   </g>
   <g id="line2d_61">
    <path clip-path="url(#p96fe2ae2b3)" d="M 469.380869 321.231679 
L 468.215222 314.246337 
L 464.844596 308.017965 
L 459.63425 303.221504 
L 453.148808 300.376725 
L 446.091066 299.791904 
L 439.225841 301.530415 
L 433.297086 305.403864 
L 428.947275 310.992502 
L 426.647776 317.690714 
L 426.647776 324.772644 
L 428.947275 331.470855 
L 433.297086 337.059493 
L 439.225841 340.932942 
L 446.091066 342.671453 
L 453.148808 342.086632 
L 459.63425 339.241853 
L 464.844596 334.445392 
L 468.215222 328.21702 
L 469.380869 321.231679 
" style="fill:none;stroke:#000000;stroke-dasharray:5.55,2.4;stroke-dashoffset:0;stroke-width:1.5;"/>
   </g>
   <g id="line2d_62">
    <path clip-path="url(#p96fe2ae2b3)" d="M 453.783761 321.231679 
L 453.463208 319.31071 
L 452.536285 317.597907 
L 451.10344 316.278881 
L 449.319944 315.496566 
L 447.379065 315.335741 
L 445.491128 315.813831 
L 443.86072 316.87903 
L 442.664522 318.415905 
L 442.03216 320.257913 
L 442.03216 322.205444 
L 442.664522 324.047452 
L 443.86072 325.584328 
L 445.491128 326.649526 
L 447.379065 327.127617 
L 449.319944 326.966791 
L 451.10344 326.184477 
L 452.536285 324.86545 
L 453.463208 323.152648 
L 453.783761 321.231679 
" style="fill:none;stroke:#ff0000;stroke-linecap:square;stroke-width:1.5;"/>
   </g>
   <g id="line2d_63">
    <path clip-path="url(#p96fe2ae2b3)" d="M 311.483219 217.304826 
L 310.317572 210.319485 
L 306.946945 204.091113 
L 301.7366 199.294652 
L 295.251157 196.449873 
L 288.193416 195.865052 
L 281.328191 197.603563 
L 275.399436 201.477012 
L 271.049625 207.06565 
L 268.750126 213.763861 
L 268.750126 220.845791 
L 271.049625 227.544003 
L 275.399436 233.132641 
L 281.328191 237.00609 
L 288.193416 238.744601 
L 295.251157 238.15978 
L 301.7366 235.315001 
L 306.946945 230.51854 
L 310.317572 224.290168 
L 311.483219 217.304826 
" style="fill:none;stroke:#000000;stroke-dasharray:5.55,2.4;stroke-dashoffset:0;stroke-width:1.5;"/>
   </g>
   <g id="line2d_64">
    <path clip-path="url(#p96fe2ae2b3)" d="M 295.886111 217.304826 
L 295.565558 215.383857 
L 294.638635 213.671055 
L 293.20579 212.352028 
L 291.422294 211.569714 
L 289.481415 211.408888 
L 287.593478 211.886979 
L 285.96307 212.952177 
L 284.766872 214.489053 
L 284.13451 216.331061 
L 284.13451 218.278592 
L 284.766872 220.1206 
L 285.96307 221.657475 
L 287.593478 222.722674 
L 289.481415 223.200764 
L 291.422294 223.039939 
L 293.20579 222.257624 
L 294.638635 220.938598 
L 295.565558 219.225795 
L 295.886111 217.304826 
" style="fill:none;stroke:#ff0000;stroke-linecap:square;stroke-width:1.5;"/>
   </g>
   <g id="line2d_65">
    <path clip-path="url(#p96fe2ae2b3)" d="M 381.809951 271.584271 
L 380.644304 264.598929 
L 377.273678 258.370557 
L 372.063333 253.574096 
L 365.57789 250.729318 
L 358.520148 250.144496 
L 351.654923 251.883007 
L 345.726169 255.756456 
L 341.376357 261.345094 
L 339.076858 268.043306 
L 339.076858 275.125236 
L 341.376357 281.823447 
L 345.726169 287.412085 
L 351.654923 291.285534 
L 358.520148 293.024045 
L 365.57789 292.439224 
L 372.063333 289.594445 
L 377.273678 284.797984 
L 380.644304 278.569613 
L 381.809951 271.584271 
" style="fill:none;stroke:#000000;stroke-dasharray:5.55,2.4;stroke-dashoffset:0;stroke-width:1.5;"/>
   </g>
   <g id="line2d_66">
    <path clip-path="url(#p96fe2ae2b3)" d="M 366.212843 271.584271 
L 365.89229 269.663302 
L 364.965368 267.9505 
L 363.532523 266.631473 
L 361.749026 265.849159 
L 359.808147 265.688333 
L 357.92021 266.166423 
L 356.289803 267.231622 
L 355.093605 268.768497 
L 354.461242 270.610505 
L 354.461242 272.558036 
L 355.093605 274.400044 
L 356.289803 275.93692 
L 357.92021 277.002118 
L 359.808147 277.480209 
L 361.749026 277.319383 
L 363.532523 276.537069 
L 364.965368 275.218042 
L 365.89229 273.50524 
L 366.212843 271.584271 
" style="fill:none;stroke:#ff0000;stroke-linecap:square;stroke-width:1.5;"/>
   </g>
   <g id="line2d_67">
    <path clip-path="url(#p96fe2ae2b3)" d="M 275.092645 367.582972 
L 273.926997 360.59763 
L 270.556371 354.369258 
L 265.346026 349.572797 
L 258.860583 346.728018 
L 251.802841 346.143197 
L 244.937617 347.881708 
L 239.008862 351.755157 
L 234.659051 357.343795 
L 232.359552 364.042007 
L 232.359552 371.123937 
L 234.659051 377.822148 
L 239.008862 383.410786 
L 244.937617 387.284235 
L 251.802841 389.022746 
L 258.860583 388.437925 
L 265.346026 385.593146 
L 270.556371 380.796685 
L 273.926997 374.568313 
L 275.092645 367.582972 
" style="fill:none;stroke:#000000;stroke-dasharray:5.55,2.4;stroke-dashoffset:0;stroke-width:1.5;"/>
   </g>
   <g id="line2d_68">
    <path clip-path="url(#p96fe2ae2b3)" d="M 259.495536 367.582972 
L 259.174983 365.662003 
L 258.248061 363.9492 
L 256.815216 362.630174 
L 255.031719 361.84786 
L 253.09084 361.687034 
L 251.202904 362.165124 
L 249.572496 363.230323 
L 248.376298 364.767198 
L 247.743936 366.609206 
L 247.743936 368.556737 
L 248.376298 370.398745 
L 249.572496 371.935621 
L 251.202904 373.000819 
L 253.09084 373.47891 
L 255.031719 373.318084 
L 256.815216 372.53577 
L 258.248061 371.216743 
L 259.174983 369.503941 
L 259.495536 367.582972 
" style="fill:none;stroke:#ff0000;stroke-linecap:square;stroke-width:1.5;"/>
   </g>
   <g id="line2d_69">
    <path clip-path="url(#p96fe2ae2b3)" d="M 210.8561 357.956901 
L 209.690452 350.971559 
L 206.319826 344.743187 
L 201.109481 339.946727 
L 194.624038 337.101948 
L 187.566296 336.517127 
L 180.701071 338.255638 
L 174.772317 342.129086 
L 170.422505 347.717724 
L 168.123006 354.415936 
L 168.123006 361.497866 
L 170.422505 368.196078 
L 174.772317 373.784716 
L 180.701071 377.658164 
L 187.566296 379.396675 
L 194.624038 378.811854 
L 201.109481 375.967075 
L 206.319826 371.170614 
L 209.690452 364.942243 
L 210.8561 357.956901 
" style="fill:none;stroke:#000000;stroke-dasharray:5.55,2.4;stroke-dashoffset:0;stroke-width:1.5;"/>
   </g>
   <g id="line2d_70">
    <path clip-path="url(#p96fe2ae2b3)" d="M 195.258991 357.956901 
L 194.938438 356.035932 
L 194.011516 354.32313 
L 192.578671 353.004103 
L 190.795174 352.221789 
L 188.854295 352.060963 
L 186.966358 352.539054 
L 185.335951 353.604252 
L 184.139753 355.141127 
L 183.507391 356.983136 
L 183.507391 358.930666 
L 184.139753 360.772675 
L 185.335951 362.30955 
L 186.966358 363.374748 
L 188.854295 363.852839 
L 190.795174 363.692013 
L 192.578671 362.909699 
L 194.011516 361.590672 
L 194.938438 359.87787 
L 195.258991 357.956901 
" style="fill:none;stroke:#ff0000;stroke-linecap:square;stroke-width:1.5;"/>
   </g>
   <g id="line2d_71">
    <path clip-path="url(#p96fe2ae2b3)" d="M 210.197213 197.764346 
L 209.031566 190.779004 
L 205.66094 184.550632 
L 200.450594 179.754171 
L 193.965152 176.909392 
L 186.90741 176.324571 
L 180.042185 178.063082 
L 174.113431 181.936531 
L 169.763619 187.525169 
L 167.46412 194.223381 
L 167.46412 201.305311 
L 169.763619 208.003522 
L 174.113431 213.59216 
L 180.042185 217.465609 
L 186.90741 219.20412 
L 193.965152 218.619299 
L 200.450594 215.77452 
L 205.66094 210.978059 
L 209.031566 204.749687 
L 210.197213 197.764346 
" style="fill:none;stroke:#000000;stroke-dasharray:5.55,2.4;stroke-dashoffset:0;stroke-width:1.5;"/>
   </g>
   <g id="line2d_72">
    <path clip-path="url(#p96fe2ae2b3)" d="M 194.600105 197.764346 
L 194.279552 195.843377 
L 193.35263 194.130574 
L 191.919785 192.811548 
L 190.136288 192.029233 
L 188.195409 191.868408 
L 186.307472 192.346498 
L 184.677065 193.411697 
L 183.480867 194.948572 
L 182.848504 196.79058 
L 182.848504 198.738111 
L 183.480867 200.580119 
L 184.677065 202.116995 
L 186.307472 203.182193 
L 188.195409 203.660284 
L 190.136288 203.499458 
L 191.919785 202.717144 
L 193.35263 201.398117 
L 194.279552 199.685315 
L 194.600105 197.764346 
" style="fill:none;stroke:#ff0000;stroke-linecap:square;stroke-width:1.5;"/>
   </g>
   <g id="line2d_73">
    <path clip-path="url(#p96fe2ae2b3)" d="M 203.060904 179.427917 
L 201.895257 172.442575 
L 198.524631 166.214204 
L 193.314285 161.417743 
L 186.828842 158.572964 
L 179.771101 157.988143 
L 172.905876 159.726654 
L 166.977121 163.600103 
L 162.62731 169.18874 
L 160.327811 175.886952 
L 160.327811 182.968882 
L 162.62731 189.667094 
L 166.977121 195.255732 
L 172.905876 199.12918 
L 179.771101 200.867692 
L 186.828842 200.28287 
L 193.314285 197.438091 
L 198.524631 192.641631 
L 201.895257 186.413259 
L 203.060904 179.427917 
" style="fill:none;stroke:#000000;stroke-dasharray:5.55,2.4;stroke-dashoffset:0;stroke-width:1.5;"/>
   </g>
   <g id="line2d_74">
    <path clip-path="url(#p96fe2ae2b3)" d="M 187.463796 179.427917 
L 187.143243 177.506948 
L 186.21632 175.794146 
L 184.783475 174.475119 
L 182.999979 173.692805 
L 181.0591 173.531979 
L 179.171163 174.01007 
L 177.540755 175.075268 
L 176.344557 176.612144 
L 175.712195 178.454152 
L 175.712195 180.401683 
L 176.344557 182.243691 
L 177.540755 183.780566 
L 179.171163 184.845765 
L 181.0591 185.323855 
L 182.999979 185.163029 
L 184.783475 184.380715 
L 186.21632 183.061688 
L 187.143243 181.348886 
L 187.463796 179.427917 
" style="fill:none;stroke:#ff0000;stroke-linecap:square;stroke-width:1.5;"/>
   </g>
   <g id="line2d_75">
    <path clip-path="url(#p96fe2ae2b3)" d="M 98.891566 487.188434 
L 98.891566 94.571566 
" style="fill:none;stroke:#000000;stroke-linecap:square;stroke-width:4;"/>
   </g>
   <g id="line2d_76">
    <path clip-path="url(#p96fe2ae2b3)" d="M 98.891566 94.571566 
L 491.508434 94.571566 
" style="fill:none;stroke:#000000;stroke-linecap:square;stroke-width:4;"/>
   </g>
   <g id="line2d_77">
    <path clip-path="url(#p96fe2ae2b3)" d="M 491.508434 94.571566 
L 491.508434 487.188434 
" style="fill:none;stroke:#000000;stroke-linecap:square;stroke-width:4;"/>
   </g>
   <g id="line2d_78">
    <path clip-path="url(#p96fe2ae2b3)" d="M 491.508434 487.188434 
L 98.891566 487.188434 
" style="fill:none;stroke:#000000;stroke-linecap:square;stroke-width:4;"/>
   </g>
   <g id="line2d_79">
    <path clip-path="url(#p96fe2ae2b3)" d="M 142.993735 136.845108 
L 145.037494 137.114024 
L 146.919904 137.813205 
L 148.587181 138.888867 
L 150.415807 140.609928 
L 153.266313 143.890699 
L 154.718458 145.28906 
L 157.891663 147.709301 
L 163.269976 151.689253 
L 169.885301 157.067566 
L 169.562602 157.013783 
L 169.401253 157.121349 
L 169.616386 156.852434 
L 169.992867 156.422169 
L 170.476916 155.292723 
L 170.745831 154.324627 
L 171.122313 152.603566 
L 171.337446 151.958169 
L 171.982843 150.936289 
L 172.520675 150.452241 
L 173.81147 149.806843 
L 175.209831 149.645494 
L 177.468723 149.75306 
L 178.006554 149.806843 
L 179.082217 149.699277 
L 179.566265 149.537928 
L 180.641928 148.838747 
L 181.663807 147.494169 
L 182.685687 146.042024 
L 183.277301 145.45041 
L 184.030265 144.966361 
L 184.944578 144.643663 
L 185.966458 144.536096 
L 187.04212 144.643663 
L 189.193446 145.235277 
L 191.290988 145.880675 
L 192.474217 146.095807 
L 193.765012 146.203373 
L 195.10959 146.14959 
L 198.390361 145.719325 
L 200.003855 145.665542 
L 201.617349 145.880675 
L 203.230843 146.364723 
L 204.575422 147.063904 
L 207.479711 149.161446 
L 210.222651 151.151422 
L 216.73041 155.884337 
L 218.128771 157.121349 
L 220.656578 159.756723 
L 227.002988 167.286361 
L 231.897253 173.525205 
L 241.147952 185.46506 
L 244.912771 190.305542 
L 261.854458 212.41041 
L 263.683084 215.099566 
L 264.489831 216.551711 
L 265.67306 219.348434 
L 266.049542 220.800578 
L 266.210892 222.360289 
L 266.372241 228.599133 
L 266.69494 230.212627 
L 267.178988 231.557205 
L 267.931952 233.009349 
L 268.900048 234.515277 
L 273.364048 240.162506 
L 275.62294 242.690313 
L 276.859952 243.927325 
L 278.36588 245.21812 
L 280.033157 246.455133 
L 283.313928 248.498892 
L 292.080578 253.554506 
L 295.684048 255.652048 
L 295.684048 255.652048 
" style="fill:none;stroke:#8000ff;stroke-linecap:square;stroke-width:1.5;"/>
   </g>
   <g id="line2d_80">
    <path clip-path="url(#p96fe2ae2b3)" d="M 222.592771 453.681542 
L 222.700337 453.627759 
L 223.184386 453.520193 
L 224.260048 452.874795 
L 224.905446 452.121831 
L 225.819759 450.615904 
L 226.465157 448.84106 
L 226.787855 446.474602 
L 226.680289 444.430843 
L 226.196241 440.235759 
L 226.303807 437.600386 
L 226.734072 435.126361 
L 227.809735 430.501012 
L 228.24 428.080771 
L 228.508916 423.509205 
L 228.777831 418.830072 
L 229.423229 414.258506 
L 230.660241 408.127229 
L 231.305639 405.92212 
L 232.058602 403.770795 
L 233.080482 401.673253 
L 234.263711 399.575711 
L 237.652048 394.304964 
L 239.373108 390.97041 
L 241.632 385.699663 
L 241.954699 385.538313 
L 242.277398 385.64588 
L 243.084145 386.50641 
L 243.460627 387.259373 
L 243.783325 388.388819 
L 243.837108 389.518265 
L 243.406843 391.293108 
L 243.084145 392.153639 
L 243.084145 392.046072 
L 243.35306 393.175518 
L 243.137928 392.906602 
L 242.707663 392.906602 
L 243.299277 392.422554 
L 243.783325 391.562024 
L 243.890892 390.486361 
L 243.675759 389.464482 
L 243.137928 388.711518 
L 242.761446 388.388819 
L 241.685783 388.012337 
L 240.341205 388.173687 
L 237.813398 389.088 
L 237.275566 389.141783 
L 236.468819 389.034217 
L 235.715855 388.819084 
L 235.124241 388.442602 
L 234.478843 387.850988 
L 233.510747 386.34506 
L 232.112386 383.225639 
L 231.359422 382.418892 
L 230.767807 381.988627 
L 230.014843 381.612145 
L 226.088675 380.482699 
L 225.443277 380.106217 
L 224.044916 378.922988 
L 223.453301 378.116241 
L 222.861687 377.040578 
L 220.979277 372.415229 
L 219.742265 370.21012 
L 218.236337 367.843663 
L 217.537157 366.552867 
L 217.053108 365.208289 
L 216.73041 363.863711 
L 216.676627 362.626699 
L 216.837976 361.174554 
L 217.106892 360.098892 
L 218.182554 357.302169 
L 219.365783 354.505446 
L 219.742265 353.160867 
L 220.011181 351.170892 
L 220.064964 349.127133 
L 220.011181 346.760675 
L 220.118747 344.340434 
L 220.710361 341.86641 
L 221.89359 339.553735 
L 223.238169 337.832675 
L 224.851663 336.004048 
L 225.927325 334.444337 
L 226.626506 332.669494 
L 226.949205 330.625735 
L 227.21812 324.548241 
L 227.594602 322.504482 
L 229.799711 315.351325 
L 230.875373 310.241928 
L 232.058602 302.927422 
L 232.219952 300.614747 
L 232.166169 299.270169 
L 232.004819 298.08694 
L 231.68212 297.011277 
L 230.767807 295.075084 
L 229.26188 292.816193 
L 227.702169 290.557301 
L 227.002988 289.374072 
L 226.088675 287.222747 
L 225.335711 284.641157 
L 224.744096 282.059566 
L 224.260048 278.778795 
L 223.991133 275.390458 
L 224.098699 272.109687 
L 224.421398 268.936482 
L 225.550843 263.880867 
L 226.841639 260.116048 
L 228.293783 256.942843 
L 229.208096 255.114217 
L 231.036723 252.102361 
L 233.510747 248.660241 
L 235.984771 245.702169 
L 237.221783 244.35759 
L 241.363084 240.485205 
L 242.976578 239.140627 
L 246.364916 236.666602 
L 248.139759 235.59094 
L 248.139759 235.59094 
" style="fill:none;stroke:#376ff9;stroke-linecap:square;stroke-width:1.5;"/>
   </g>
   <g id="line2d_81">
    <path clip-path="url(#p96fe2ae2b3)" d="M 192.743133 279.047711 
L 195.10959 278.940145 
L 197.476048 278.402313 
L 203.930024 275.551807 
L 206.457831 274.90641 
L 209.039422 274.637494 
L 211.513446 274.529928 
L 213.610988 274.314795 
L 216.031229 273.723181 
L 219.688482 272.324819 
L 222.05494 271.464289 
L 224.582747 270.818892 
L 231.359422 269.958361 
L 233.403181 269.474313 
L 240.287422 267.322988 
L 242.384964 266.785157 
L 251.151614 265.010313 
L 260.133398 262.643855 
L 266.802506 261.137928 
L 289.176289 255.759614 
L 298.857253 253.500723 
L 315.960289 249.628337 
L 317.788916 249.251855 
L 319.671325 248.98294 
L 321.392386 248.875373 
L 323.113446 248.98294 
L 324.888289 249.574554 
L 326.932048 250.757783 
L 330.320386 253.608289 
L 332.417928 255.060434 
L 334.138988 256.02853 
L 335.644916 256.727711 
L 336.505446 256.996627 
L 337.796241 257.104193 
L 338.871904 256.620145 
L 339.409735 256.18988 
L 339.893783 255.490699 
L 340.270265 254.522602 
L 340.485398 253.339373 
L 340.808096 249.359422 
L 341.399711 247.584578 
L 342.475373 245.917301 
L 343.981301 244.411373 
L 348.337735 240.431422 
L 350.919325 237.150651 
L 352.102554 235.698506 
L 353.393349 234.461494 
L 355.275759 233.332048 
L 357.158169 232.686651 
L 359.363277 232.310169 
L 363.343229 232.202602 
L 365.76347 231.879904 
L 367.430747 231.503422 
L 374.261205 229.298313 
L 376.627663 228.760482 
L 388.513735 227.093205 
L 392.708819 226.394024 
L 400.507373 225.157012 
L 412.393446 223.220819 
L 418.255807 222.19894 
L 421.482795 221.661108 
L 427.23759 220.639229 
L 432.72347 219.724916 
L 438.424482 218.703036 
L 449.665157 216.820627 
L 454.828337 215.906313 
L 458.539373 215.260916 
L 458.539373 215.260916 
" style="fill:none;stroke:#12c7e6;stroke-linecap:square;stroke-width:1.5;"/>
   </g>
   <g id="line2d_82">
    <path clip-path="url(#p96fe2ae2b3)" d="M 154.07306 412.26853 
L 154.772241 412.26853 
L 156.116819 412.107181 
L 158.268145 411.515566 
L 159.989205 410.655036 
L 165.959133 406.997783 
L 168.110458 406.08347 
L 172.144193 404.792675 
L 176.016578 403.50188 
L 183.384867 400.543807 
L 188.440482 399.03788 
L 198.01388 396.671422 
L 200.541687 395.595759 
L 202.639229 394.251181 
L 204.306506 392.745253 
L 205.05947 391.992289 
L 206.888096 390.540145 
L 207.80241 389.894747 
L 210.384 388.496386 
L 212.373976 387.151807 
L 213.449639 386.076145 
L 213.718554 385.48453 
L 213.879904 384.785349 
L 213.772337 383.171855 
L 213.180723 380.859181 
L 213.073157 379.514602 
L 213.12694 378.654072 
L 213.342072 377.954892 
L 213.718554 377.255711 
L 214.256386 376.610313 
L 215.116916 375.857349 
L 216.891759 374.83547 
L 217.752289 374.405205 
L 218.612819 373.81359 
L 219.365783 373.060627 
L 220.011181 372.146313 
L 220.495229 371.232 
L 220.925494 369.779855 
L 221.140627 367.736096 
L 220.764145 366.122602 
L 220.17253 364.939373 
L 219.043084 363.218313 
L 218.612819 362.250217 
L 218.559036 361.981301 
L 218.774169 360.798072 
L 219.150651 360.098892 
L 219.688482 359.453494 
L 220.33388 358.915663 
L 222.162506 357.732434 
L 222.108723 357.786217 
L 222.108723 356.549205 
L 221.839807 355.688675 
L 220.764145 353.967614 
L 220.226313 353.214651 
L 219.796048 352.031422 
L 219.796048 351.601157 
L 220.226313 350.202795 
L 220.817928 349.288482 
L 221.732241 348.427952 
L 223.130602 347.567422 
L 228.024867 345.846361 
L 229.10053 345.254747 
L 229.96106 344.501783 
L 230.714024 343.42612 
L 231.413205 341.70506 
L 231.84347 339.499952 
L 232.004819 335.358651 
L 232.327518 334.121639 
L 232.704 333.368675 
L 233.295614 332.615711 
L 234.263711 331.91653 
L 235.554506 331.324916 
L 236.952867 331.056 
L 238.835277 331.002217 
L 245.827084 331.647614 
L 249.860819 331.324916 
L 253.733205 331.002217 
L 257.659373 330.948434 
L 268.577349 331.862747 
L 287.455229 333.960289 
L 302.460723 335.681349 
L 319.24106 337.617542 
L 328.545542 338.693205 
L 330.266602 338.908337 
L 330.266602 338.908337 
" style="fill:none;stroke:#5bf9c7;stroke-linecap:square;stroke-width:1.5;"/>
   </g>
   <g id="line2d_83">
    <path clip-path="url(#p96fe2ae2b3)" d="M 407.66053 157.067566 
L 407.714313 157.067566 
L 407.82188 157.121349 
L 407.875663 157.121349 
L 407.983229 157.228916 
L 408.037012 157.282699 
L 408.090795 157.390265 
L 408.198361 157.82053 
L 408.252145 158.519711 
L 408.090795 159.595373 
L 407.768096 160.509687 
L 406.907566 162.015614 
L 405.455422 163.575325 
L 403.573012 164.86612 
L 401.636819 165.888 
L 399.539277 166.856096 
L 397.603084 167.985542 
L 396.043373 169.114988 
L 394.645012 170.352 
L 393.192867 171.642795 
L 391.794506 172.93359 
L 390.342361 174.116819 
L 388.836434 175.192482 
L 387.438072 176.321928 
L 385.770795 177.505157 
L 384.103518 178.742169 
L 382.490024 179.979181 
L 380.87653 181.269976 
L 379.531952 182.345639 
L 378.13359 183.421301 
L 376.520096 184.658313 
L 374.906602 185.895325 
L 373.293108 187.132337 
L 371.464482 188.530699 
L 369.850988 189.821494 
L 368.667759 190.682024 
L 367.054265 191.919036 
L 365.440771 193.209831 
L 363.827277 194.446843 
L 362.697831 195.307373 
L 361.29947 196.383036 
L 359.901108 197.458699 
L 358.287614 198.695711 
L 356.943036 199.771373 
L 355.275759 201.008386 
L 353.662265 202.245398 
L 352.048771 203.48241 
L 350.435277 204.773205 
L 349.090699 205.795084 
L 347.692337 206.870747 
L 346.078843 208.107759 
L 344.680482 209.183422 
L 343.066988 210.420434 
L 341.453494 211.711229 
L 339.84 212.948241 
L 338.495422 213.97012 
L 336.881928 215.207133 
L 335.322217 216.390361 
L 333.870072 217.519807 
L 332.525494 218.43412 
L 331.288482 219.240867 
L 330.05147 219.940048 
L 329.083373 220.31653 
L 327.953928 220.531663 
L 326.716916 220.47788 
L 325.479904 220.262747 
L 323.86641 219.832482 
L 322.575614 219.671133 
L 321.661301 219.778699 
L 320.693205 220.101398 
L 319.617542 220.693012 
L 318.757012 221.499759 
L 317.950265 222.682988 
L 317.304867 224.135133 
L 316.605687 226.232675 
L 315.960289 228.007518 
L 315.153542 229.836145 
L 314.024096 231.503422 
L 312.787084 232.794217 
L 311.33494 233.977446 
L 310.044145 234.837976 
L 308.107952 236.236337 
L 306.602024 237.473349 
L 304.98853 239.086843 
L 303.751518 240.646554 
L 302.568289 242.313831 
L 301.223711 244.196241 
L 299.717783 245.917301 
L 298.265639 247.208096 
L 296.544578 248.337542 
L 294.393253 249.413205 
L 292.241928 250.381301 
L 290.198169 251.403181 
L 288.369542 252.478843 
L 286.648482 253.769639 
L 285.25012 254.952867 
L 283.636627 256.351229 
L 282.292048 257.534458 
L 280.893687 258.663904 
L 279.495325 259.685783 
L 278.043181 260.761446 
L 276.429687 261.944675 
L 274.76241 263.181687 
L 273.148916 264.418699 
L 271.804337 265.494361 
L 270.190843 266.731373 
L 268.792482 267.807036 
L 267.39412 268.882699 
L 265.780627 270.119711 
L 264.382265 271.195373 
L 262.983904 272.271036 
L 261.639325 273.292916 
L 259.972048 274.529928 
" style="fill:none;stroke:#a4f99f;stroke-linecap:square;stroke-width:1.5;"/>
   </g>
   <g id="line2d_84">
    <path clip-path="url(#p96fe2ae2b3)" d="M 188.655614 128.723855 
L 189.462361 128.723855 
L 191.398554 128.938988 
L 193.54988 129.530602 
L 195.862554 130.767614 
L 197.798747 132.542458 
L 200.541687 136.307277 
L 202.208964 138.028337 
L 204.19894 139.319133 
L 210.652916 141.793157 
L 212.481542 143.083952 
L 214.095036 144.697446 
L 215.600964 146.472289 
L 217.375807 148.247133 
L 219.365783 149.699277 
L 225.765976 152.980048 
L 227.487036 154.324627 
L 229.10053 155.776771 
L 230.82159 157.551614 
L 232.704 159.165108 
L 234.693976 160.617253 
L 238.351229 162.876145 
L 240.448771 164.328289 
L 249.430554 171.481446 
L 256.637494 176.752193 
L 264.059566 182.453205 
L 272.073253 188.423133 
L 275.569157 191.058506 
L 279.656675 193.962795 
L 282.238265 195.468723 
L 284.335807 196.221687 
L 285.088771 196.27547 
L 285.680386 196.167904 
L 287.078747 195.522506 
L 287.939277 194.823325 
L 290.843566 191.757687 
L 291.488964 191.273639 
L 292.349494 190.897157 
L 293.47894 190.682024 
L 294.33947 190.682024 
L 295.576482 190.897157 
L 298.158072 191.972819 
L 300.470747 193.156048 
L 301.54641 193.586313 
L 303.859084 193.855229 
L 306.763373 193.801446 
L 308.269301 194.016578 
L 309.829012 194.446843 
L 310.904675 194.984675 
L 313.755181 196.867084 
L 322.736964 203.858892 
L 326.609349 207.462361 
L 332.686843 213.647422 
L 335.268434 216.497928 
L 336.828145 217.950072 
L 337.850024 218.703036 
L 338.710554 219.133301 
L 340.001349 219.509783 
L 341.668627 219.617349 
L 343.766169 219.240867 
L 347.423422 218.272771 
L 349.144482 218.057639 
L 350.704193 218.218988 
L 353.608482 219.133301 
L 357.588434 220.746795 
L 359.847325 221.607325 
L 361.998651 222.575422 
L 363.719711 223.489735 
L 365.225639 224.565398 
L 367.914795 227.146988 
L 377.27306 237.634699 
L 379.693301 240.05494 
L 382.328675 242.367614 
L 386.523759 245.809735 
L 389.105349 248.229976 
L 390.503711 249.789687 
L 393.031518 253.178024 
L 397.01147 259.578217 
L 399.75441 264.472482 
L 401.636819 268.183518 
L 415.351518 295.828048 
L 415.351518 295.828048 
" style="fill:none;stroke:#edc76f;stroke-linecap:square;stroke-width:1.5;"/>
   </g>
   <g id="line2d_85">
    <path clip-path="url(#p96fe2ae2b3)" d="M 270.836241 426.359711 
L 271.911904 426.144578 
L 272.664867 425.768096 
L 273.579181 425.122699 
L 274.923759 423.77812 
L 276.214554 421.734361 
L 276.967518 419.851952 
L 277.397783 417.485494 
L 277.881831 412.537446 
L 278.473446 410.439904 
L 279.333976 408.396145 
L 281.270169 404.577542 
L 282.130699 402.318651 
L 282.66853 400.328675 
L 283.098795 398.177349 
L 283.636627 396.079807 
L 284.497157 393.659566 
L 285.465253 391.723373 
L 287.831711 387.635855 
L 291.59653 381.558361 
L 292.833542 379.407036 
L 294.769735 375.588434 
L 296.437012 371.662265 
L 297.78159 367.305831 
L 298.373205 364.993157 
L 300.578313 353.537349 
L 302.568289 346.760675 
L 304.450699 340.629398 
L 321.446169 286.469783 
L 323.113446 278.456096 
L 323.597494 276.143422 
L 324.72694 272.055904 
L 325.856386 269.474313 
L 328.653108 263.934651 
L 329.513639 260.869012 
L 330.750651 252.317494 
L 331.557398 248.82159 
L 332.525494 245.648386 
L 332.740627 244.088675 
L 332.686843 242.421398 
L 332.149012 239.570892 
L 331.718747 237.580916 
L 331.557398 236.236337 
L 331.557398 234.73041 
L 331.77253 233.170699 
L 332.149012 231.610988 
L 334.51547 224.404048 
L 335.913831 220.639229 
L 337.365976 217.466024 
L 339.893783 212.195277 
L 345.702361 200.416771 
L 348.875566 193.909012 
L 351.34959 188.907181 
L 354.038747 183.421301 
L 354.038747 183.421301 
" style="fill:none;stroke:#ff6f39;stroke-linecap:square;stroke-width:1.5;"/>
   </g>
   <g id="line2d_86">
    <path clip-path="url(#p96fe2ae2b3)" d="M 271.85812 315.620241 
L 272.449735 315.620241 
L 274.224578 315.727807 
L 276.752386 316.426988 
L 278.742361 317.502651 
L 280.678554 319.008578 
L 282.184482 320.514506 
L 284.066892 322.343133 
L 286.056867 323.741494 
L 288.208193 324.924723 
L 290.467084 325.946602 
L 292.833542 327.022265 
L 294.715952 328.044145 
L 296.867277 329.442506 
L 298.911036 330.894651 
L 300.632096 332.185446 
L 302.675855 333.583807 
L 304.773398 334.874602 
L 306.655807 335.950265 
L 308.807133 337.24106 
L 310.850892 338.478072 
L 312.894651 339.715084 
L 314.830843 341.00588 
L 316.49812 342.081542 
L 318.111614 343.103422 
L 319.671325 344.071518 
L 321.015904 344.878265 
L 322.84453 346.007711 
L 324.458024 346.868241 
L 326.340434 347.89012 
L 328.222843 348.858217 
L 330.266602 349.826313 
L 332.364145 350.740627 
L 334.569253 351.708723 
L 336.39788 352.51547 
L 338.549205 353.537349 
L 340.539181 354.613012 
L 342.475373 355.742458 
L 344.304 356.925687 
L 345.863711 357.893783 
L 347.638554 359.077012 
L 349.359614 360.206458 
L 350.65041 361.013205 
L 352.37147 362.088867 
L 353.823614 363.056964 
L 355.275759 364.02506 
L 356.727904 364.939373 
L 358.448964 366.068819 
L 360.170024 367.198265 
L 361.891084 368.273928 
L 363.343229 369.242024 
L 365.064289 370.37147 
L 366.516434 371.285783 
L 367.968578 372.25388 
L 369.689639 373.383325 
L 371.410699 374.458988 
L 373.131759 375.588434 
L 374.852819 376.71788 
L 376.520096 377.793542 
L 378.241157 378.922988 
L 379.962217 379.998651 
L 381.414361 380.966747 
L 383.135422 382.096193 
L 384.856482 383.171855 
L 386.308627 384.139952 
L 387.760771 385.108048 
L 389.266699 386.022361 
L 390.449928 386.829108 
L 391.955855 387.797205 
L 393.408 388.765301 
L 395.12906 389.840964 
L 396.581205 390.80906 
L 398.033349 391.777157 
L 399.75441 392.852819 
L 401.206554 393.820916 
L 402.927614 394.950361 
L 404.379759 395.864675 
L 405.885687 396.832771 
L 407.337831 397.800867 
L 408.789976 398.715181 
L 410.24212 399.683277 
L 411.748048 400.651373 
L 413.200193 401.565687 
L 414.652337 402.533783 
L 416.104482 403.50188 
L 417.341494 404.308627 
L 419.062554 405.384289 
L 420.783614 406.513735 
L 422.504675 407.643181 
L 423.956819 408.557494 
L 425.67788 409.68694 
L 427.130024 410.655036 
L 428.851084 411.730699 
L 430.034313 412.537446 
L 431.755373 413.666892 
L 432.992386 414.419855 
L 434.44453 415.387952 
L 435.896675 416.356048 
L 437.133687 417.162795 
L 438.854747 418.238458 
L 440.575807 419.367904 
L 441.759036 420.174651 
L 443.480096 421.250313 
L 445.201157 422.379759 
L 446.922217 423.509205 
L 448.643277 424.584867 
L 450.310554 425.714313 
L 452.031614 426.843759 
L 453.752675 427.919422 
L 455.473735 429.048867 
L 457.194795 430.12453 
L 458.862072 431.253976 
L 460.368 432.222072 
" style="fill:none;stroke:#ff0000;stroke-linecap:square;stroke-width:1.5;"/>
   </g>
   <g id="patch_3">
    <path d="M 72 512.64 
L 72 69.12 
" style="fill:none;stroke:#000000;stroke-linecap:square;stroke-linejoin:miter;stroke-width:0.8;"/>
   </g>
   <g id="patch_4">
    <path d="M 518.4 512.64 
L 518.4 69.12 
" style="fill:none;stroke:#000000;stroke-linecap:square;stroke-linejoin:miter;stroke-width:0.8;"/>
   </g>
   <g id="patch_5">
    <path d="M 72 512.64 
L 518.4 512.64 
" style="fill:none;stroke:#000000;stroke-linecap:square;stroke-linejoin:miter;stroke-width:0.8;"/>
   </g>
   <g id="patch_6">
    <path d="M 72 69.12 
L 518.4 69.12 
" style="fill:none;stroke:#000000;stroke-linecap:square;stroke-linejoin:miter;stroke-width:0.8;"/>
   </g>
   <g id="text_18">
    <!-- 1 -->
    <defs>
     <path d="M 14.203125 0 
L 14.203125 5.171875 
L 26.90625 5.171875 
L 26.90625 65.828125 
L 12.203125 56.296875 
L 12.203125 62.703125 
L 29.984375 74.21875 
L 36.71875 74.21875 
L 36.71875 5.171875 
L 49.421875 5.171875 
L 49.421875 0 
z
" id="DejaVuSerif-31"/>
    </defs>
    <g transform="translate(139.828977 136.862767)scale(0.1 -0.1)">
     <use xlink:href="#DejaVuSerif-31"/>
    </g>
   </g>
   <g id="text_19">
    <!-- 1 -->
    <g transform="translate(292.412763 255.626619)scale(0.1 -0.1)">
     <use xlink:href="#DejaVuSerif-31"/>
    </g>
   </g>
   <g id="text_20">
    <!-- 2 -->
    <defs>
     <path d="M 12.796875 55.515625 
L 7.328125 55.515625 
L 7.328125 68.5 
Q 12.546875 71.296875 17.84375 72.75 
Q 23.140625 74.21875 28.21875 74.21875 
Q 39.59375 74.21875 46.1875 68.703125 
Q 52.78125 63.1875 52.78125 53.71875 
Q 52.78125 43.015625 37.84375 28.125 
Q 36.671875 27 36.078125 26.421875 
L 17.671875 8.015625 
L 48.09375 8.015625 
L 48.09375 17 
L 53.8125 17 
L 53.8125 0 
L 6.78125 0 
L 6.78125 5.328125 
L 28.90625 27.390625 
Q 36.234375 34.71875 39.359375 40.84375 
Q 42.484375 46.96875 42.484375 53.71875 
Q 42.484375 61.078125 38.640625 65.234375 
Q 34.8125 69.390625 28.078125 69.390625 
Q 21.09375 69.390625 17.28125 65.921875 
Q 13.484375 62.453125 12.796875 55.515625 
z
" id="DejaVuSerif-32"/>
    </defs>
    <g transform="translate(219.396364 453.655745)scale(0.1 -0.1)">
     <use xlink:href="#DejaVuSerif-32"/>
    </g>
   </g>
   <g id="text_21">
    <!-- 2 -->
    <g transform="translate(245.037776 235.991038)scale(0.1 -0.1)">
     <use xlink:href="#DejaVuSerif-32"/>
    </g>
   </g>
   <g id="text_22">
    <!-- 3 -->
    <defs>
     <path d="M 9.71875 69.828125 
Q 15.4375 71.96875 20.671875 73.09375 
Q 25.921875 74.21875 30.515625 74.21875 
Q 41.21875 74.21875 47.21875 69.59375 
Q 53.21875 64.984375 53.21875 56.78125 
Q 53.21875 50.203125 49.0625 45.78125 
Q 44.921875 41.359375 37.3125 39.796875 
Q 46.296875 38.53125 51.25 33.28125 
Q 56.203125 28.03125 56.203125 19.671875 
Q 56.203125 9.46875 49.34375 4.015625 
Q 42.484375 -1.421875 29.59375 -1.421875 
Q 23.875 -1.421875 18.421875 -0.1875 
Q 12.984375 1.03125 7.625 3.515625 
L 7.625 17.671875 
L 13.09375 17.671875 
Q 13.578125 10.640625 17.828125 7.03125 
Q 22.078125 3.421875 29.78125 3.421875 
Q 37.25 3.421875 41.578125 7.734375 
Q 45.90625 12.0625 45.90625 19.578125 
Q 45.90625 28.171875 41.453125 32.59375 
Q 37.015625 37.015625 28.421875 37.015625 
L 23.78125 37.015625 
L 23.78125 42 
L 26.21875 42 
Q 34.765625 42 39.03125 45.53125 
Q 43.3125 49.078125 43.3125 56.203125 
Q 43.3125 62.59375 39.796875 65.984375 
Q 36.28125 69.390625 29.6875 69.390625 
Q 23.09375 69.390625 19.453125 66.265625 
Q 15.828125 63.140625 15.1875 56.984375 
L 9.71875 56.984375 
z
" id="DejaVuSerif-33"/>
    </defs>
    <g transform="translate(189.559945 279.056246)scale(0.1 -0.1)">
     <use xlink:href="#DejaVuSerif-33"/>
    </g>
   </g>
   <g id="text_23">
    <!-- 3 -->
    <g transform="translate(455.62981 215.219931)scale(0.1 -0.1)">
     <use xlink:href="#DejaVuSerif-33"/>
    </g>
   </g>
   <g id="text_24">
    <!-- 4 -->
    <defs>
     <path d="M 34.90625 24.703125 
L 34.90625 63.484375 
L 10.015625 24.703125 
z
M 56.390625 0 
L 23.1875 0 
L 23.1875 5.171875 
L 34.90625 5.171875 
L 34.90625 19.484375 
L 3.078125 19.484375 
L 3.078125 24.8125 
L 35.015625 74.21875 
L 44.671875 74.21875 
L 44.671875 24.703125 
L 58.59375 24.703125 
L 58.59375 19.484375 
L 44.671875 19.484375 
L 44.671875 5.171875 
L 56.390625 5.171875 
z
" id="DejaVuSerif-34"/>
    </defs>
    <g transform="translate(150.884818 412.253691)scale(0.1 -0.1)">
     <use xlink:href="#DejaVuSerif-34"/>
    </g>
   </g>
   <g id="text_25">
    <!-- 4 -->
    <g transform="translate(327.961185 338.988029)scale(0.1 -0.1)">
     <use xlink:href="#DejaVuSerif-34"/>
    </g>
   </g>
   <g id="text_26">
    <!-- 5 -->
    <defs>
     <path d="M 50.296875 72.90625 
L 50.296875 64.890625 
L 16.890625 64.890625 
L 16.890625 44 
Q 19.4375 45.75 22.828125 46.625 
Q 26.21875 47.515625 30.421875 47.515625 
Q 42.234375 47.515625 49.0625 40.96875 
Q 55.90625 34.421875 55.90625 23.09375 
Q 55.90625 11.53125 49 5.046875 
Q 42.09375 -1.421875 29.59375 -1.421875 
Q 24.5625 -1.421875 19.28125 -0.1875 
Q 14.015625 1.03125 8.5 3.515625 
L 8.5 17.671875 
L 14.015625 17.671875 
Q 14.453125 10.75 18.421875 7.078125 
Q 22.40625 3.421875 29.59375 3.421875 
Q 37.3125 3.421875 41.453125 8.5 
Q 45.609375 13.578125 45.609375 23.09375 
Q 45.609375 32.5625 41.484375 37.609375 
Q 37.359375 42.671875 29.59375 42.671875 
Q 25.203125 42.671875 21.84375 41.109375 
Q 18.5 39.546875 15.921875 36.28125 
L 11.71875 36.28125 
L 11.71875 72.90625 
z
" id="DejaVuSerif-35"/>
    </defs>
    <g transform="translate(404.460712 157.071642)scale(0.1 -0.1)">
     <use xlink:href="#DejaVuSerif-35"/>
    </g>
   </g>
   <g id="text_27">
    <!-- 5 -->
    <g transform="translate(256.730563 274.609947)scale(0.1 -0.1)">
     <use xlink:href="#DejaVuSerif-35"/>
    </g>
   </g>
   <g id="text_28">
    <!-- 6 -->
    <defs>
     <path d="M 32.71875 3.421875 
Q 39.59375 3.421875 43.296875 8.46875 
Q 47.015625 13.53125 47.015625 23 
Q 47.015625 32.46875 43.296875 37.515625 
Q 39.59375 42.578125 32.71875 42.578125 
Q 25.734375 42.578125 22.0625 37.6875 
Q 18.40625 32.8125 18.40625 23.578125 
Q 18.40625 13.875 22.109375 8.640625 
Q 25.828125 3.421875 32.71875 3.421875 
z
M 16.796875 40.140625 
Q 20.125 43.796875 24.3125 45.59375 
Q 28.515625 47.40625 33.796875 47.40625 
Q 44.671875 47.40625 51 40.859375 
Q 57.328125 34.328125 57.328125 23 
Q 57.328125 11.921875 50.515625 5.25 
Q 43.703125 -1.421875 32.328125 -1.421875 
Q 19.96875 -1.421875 13.328125 7.78125 
Q 6.6875 17 6.6875 34.078125 
Q 6.6875 53.21875 14.546875 63.71875 
Q 22.40625 74.21875 36.71875 74.21875 
Q 40.578125 74.21875 44.828125 73.484375 
Q 49.078125 72.75 53.515625 71.296875 
L 53.515625 59.28125 
L 48 59.28125 
Q 47.40625 64.203125 44.234375 66.796875 
Q 41.0625 69.390625 35.6875 69.390625 
Q 26.21875 69.390625 21.578125 62.203125 
Q 16.9375 55.03125 16.796875 40.140625 
z
" id="DejaVuSerif-36"/>
    </defs>
    <g transform="translate(185.487304 128.706322)scale(0.1 -0.1)">
     <use xlink:href="#DejaVuSerif-36"/>
    </g>
   </g>
   <g id="text_29">
    <!-- 6 -->
    <g transform="translate(412.528116 296.550869)scale(0.1 -0.1)">
     <use xlink:href="#DejaVuSerif-36"/>
    </g>
   </g>
   <g id="text_30">
    <!-- 7 -->
    <defs>
     <path d="M 56.390625 67.921875 
L 27.875 0 
L 20.609375 0 
L 47.796875 64.890625 
L 14.109375 64.890625 
L 14.109375 55.90625 
L 8.40625 55.90625 
L 8.40625 72.90625 
L 56.390625 72.90625 
z
" id="DejaVuSerif-37"/>
    </defs>
    <g transform="translate(267.633702 426.341599)scale(0.1 -0.1)">
     <use xlink:href="#DejaVuSerif-37"/>
    </g>
   </g>
   <g id="text_31">
    <!-- 7 -->
    <g transform="translate(351.29043 182.50644)scale(0.1 -0.1)">
     <use xlink:href="#DejaVuSerif-37"/>
    </g>
   </g>
   <g id="text_32">
    <!-- 8 -->
    <defs>
     <path d="M 46.578125 19.921875 
Q 46.578125 27.734375 42.6875 32.046875 
Q 38.8125 36.375 31.78125 36.375 
Q 24.75 36.375 20.875 32.046875 
Q 17 27.734375 17 19.921875 
Q 17 12.0625 20.875 7.734375 
Q 24.75 3.421875 31.78125 3.421875 
Q 38.8125 3.421875 42.6875 7.734375 
Q 46.578125 12.0625 46.578125 19.921875 
z
M 44.578125 55.328125 
Q 44.578125 61.96875 41.203125 65.671875 
Q 37.84375 69.390625 31.78125 69.390625 
Q 25.78125 69.390625 22.390625 65.671875 
Q 19 61.96875 19 55.328125 
Q 19 48.640625 22.390625 44.921875 
Q 25.78125 41.21875 31.78125 41.21875 
Q 37.84375 41.21875 41.203125 44.921875 
Q 44.578125 48.640625 44.578125 55.328125 
z
M 39.3125 38.8125 
Q 47.609375 37.703125 52.25 32.6875 
Q 56.890625 27.6875 56.890625 19.921875 
Q 56.890625 9.671875 50.390625 4.125 
Q 43.890625 -1.421875 31.78125 -1.421875 
Q 19.734375 -1.421875 13.203125 4.125 
Q 6.6875 9.671875 6.6875 19.921875 
Q 6.6875 27.6875 11.328125 32.6875 
Q 15.96875 37.703125 24.3125 38.8125 
Q 16.9375 40.140625 13 44.40625 
Q 9.078125 48.6875 9.078125 55.328125 
Q 9.078125 64.109375 15.125 69.15625 
Q 21.1875 74.21875 31.78125 74.21875 
Q 42.390625 74.21875 48.4375 69.15625 
Q 54.5 64.109375 54.5 55.328125 
Q 54.5 48.6875 50.5625 44.40625 
Q 46.625 40.140625 39.3125 38.8125 
z
" id="DejaVuSerif-38"/>
    </defs>
    <g transform="translate(268.683472 315.604145)scale(0.1 -0.1)">
     <use xlink:href="#DejaVuSerif-38"/>
    </g>
   </g>
   <g id="text_33">
    <!-- 8 -->
    <g transform="translate(457.38316 432.354658)scale(0.1 -0.1)">
     <use xlink:href="#DejaVuSerif-38"/>
    </g>
   </g>
  </g>
 </g>
 <defs>
  <clipPath id="p96fe2ae2b3">
   <rect height="443.52" width="446.4" x="72" y="69.12"/>
  </clipPath>
 </defs>
</svg>
