<?xml version="1.0" encoding="utf-8" standalone="no"?>
<!DOCTYPE svg PUBLIC "-//W3C//DTD SVG 1.1//EN"
  "http://www.w3.org/Graphics/SVG/1.1/DTD/svg11.dtd">
<!-- Created with matplotlib (http://matplotlib.org/) -->
<svg height="576pt" version="1.1" viewBox="0 0 576 576" width="576pt" xmlns="http://www.w3.org/2000/svg" xmlns:xlink="http://www.w3.org/1999/xlink">
 <defs>
  <style type="text/css">
*{stroke-linecap:butt;stroke-linejoin:round;}
  </style>
 </defs>
 <g id="figure_1">
  <g id="patch_1">
   <path d="M 0 576 
L 576 576 
L 576 0 
L 0 0 
z
" style="fill:#ffffff;"/>
  </g>
  <g id="axes_1">
   <g id="patch_2">
    <path d="M 72 512.64 
L 518.4 512.64 
L 518.4 69.12 
L 72 69.12 
z
" style="fill:#ffffff;"/>
   </g>
   <g id="matplotlib.axis_1">
    <g id="xtick_1">
     <g id="line2d_1">
      <defs>
       <path d="M 0 0 
L 0 3.5 
" id="m38b81ad6d1" style="stroke:#000000;stroke-width:0.8;"/>
      </defs>
      <g>
       <use style="stroke:#000000;stroke-width:0.8;" x="112.216216" xlink:href="#m38b81ad6d1" y="512.64"/>
      </g>
     </g>
     <g id="text_1">
      <!-- 0 -->
      <defs>
       <path d="M 31.78125 66.40625 
Q 24.171875 66.40625 20.328125 58.90625 
Q 16.5 51.421875 16.5 36.375 
Q 16.5 21.390625 20.328125 13.890625 
Q 24.171875 6.390625 31.78125 6.390625 
Q 39.453125 6.390625 43.28125 13.890625 
Q 47.125 21.390625 47.125 36.375 
Q 47.125 51.421875 43.28125 58.90625 
Q 39.453125 66.40625 31.78125 66.40625 
z
M 31.78125 74.21875 
Q 44.046875 74.21875 50.515625 64.515625 
Q 56.984375 54.828125 56.984375 36.375 
Q 56.984375 17.96875 50.515625 8.265625 
Q 44.046875 -1.421875 31.78125 -1.421875 
Q 19.53125 -1.421875 13.0625 8.265625 
Q 6.59375 17.96875 6.59375 36.375 
Q 6.59375 54.828125 13.0625 64.515625 
Q 19.53125 74.21875 31.78125 74.21875 
z
" id="DejaVuSans-30"/>
      </defs>
      <g transform="translate(109.034966 527.238438)scale(0.1 -0.1)">
       <use xlink:href="#DejaVuSans-30"/>
      </g>
     </g>
    </g>
    <g id="xtick_2">
     <g id="line2d_2">
      <g>
       <use style="stroke:#000000;stroke-width:0.8;" x="192.648649" xlink:href="#m38b81ad6d1" y="512.64"/>
      </g>
     </g>
     <g id="text_2">
      <!-- 2 -->
      <defs>
       <path d="M 19.1875 8.296875 
L 53.609375 8.296875 
L 53.609375 0 
L 7.328125 0 
L 7.328125 8.296875 
Q 12.9375 14.109375 22.625 23.890625 
Q 32.328125 33.6875 34.8125 36.53125 
Q 39.546875 41.84375 41.421875 45.53125 
Q 43.3125 49.21875 43.3125 52.78125 
Q 43.3125 58.59375 39.234375 62.25 
Q 35.15625 65.921875 28.609375 65.921875 
Q 23.96875 65.921875 18.8125 64.3125 
Q 13.671875 62.703125 7.8125 59.421875 
L 7.8125 69.390625 
Q 13.765625 71.78125 18.9375 73 
Q 24.125 74.21875 28.421875 74.21875 
Q 39.75 74.21875 46.484375 68.546875 
Q 53.21875 62.890625 53.21875 53.421875 
Q 53.21875 48.921875 51.53125 44.890625 
Q 49.859375 40.875 45.40625 35.40625 
Q 44.1875 33.984375 37.640625 27.21875 
Q 31.109375 20.453125 19.1875 8.296875 
z
" id="DejaVuSans-32"/>
      </defs>
      <g transform="translate(189.467399 527.238438)scale(0.1 -0.1)">
       <use xlink:href="#DejaVuSans-32"/>
      </g>
     </g>
    </g>
    <g id="xtick_3">
     <g id="line2d_3">
      <g>
       <use style="stroke:#000000;stroke-width:0.8;" x="273.081081" xlink:href="#m38b81ad6d1" y="512.64"/>
      </g>
     </g>
     <g id="text_3">
      <!-- 4 -->
      <defs>
       <path d="M 37.796875 64.3125 
L 12.890625 25.390625 
L 37.796875 25.390625 
z
M 35.203125 72.90625 
L 47.609375 72.90625 
L 47.609375 25.390625 
L 58.015625 25.390625 
L 58.015625 17.1875 
L 47.609375 17.1875 
L 47.609375 0 
L 37.796875 0 
L 37.796875 17.1875 
L 4.890625 17.1875 
L 4.890625 26.703125 
z
" id="DejaVuSans-34"/>
      </defs>
      <g transform="translate(269.899831 527.238438)scale(0.1 -0.1)">
       <use xlink:href="#DejaVuSans-34"/>
      </g>
     </g>
    </g>
    <g id="xtick_4">
     <g id="line2d_4">
      <g>
       <use style="stroke:#000000;stroke-width:0.8;" x="353.513514" xlink:href="#m38b81ad6d1" y="512.64"/>
      </g>
     </g>
     <g id="text_4">
      <!-- 6 -->
      <defs>
       <path d="M 33.015625 40.375 
Q 26.375 40.375 22.484375 35.828125 
Q 18.609375 31.296875 18.609375 23.390625 
Q 18.609375 15.53125 22.484375 10.953125 
Q 26.375 6.390625 33.015625 6.390625 
Q 39.65625 6.390625 43.53125 10.953125 
Q 47.40625 15.53125 47.40625 23.390625 
Q 47.40625 31.296875 43.53125 35.828125 
Q 39.65625 40.375 33.015625 40.375 
z
M 52.59375 71.296875 
L 52.59375 62.3125 
Q 48.875 64.0625 45.09375 64.984375 
Q 41.3125 65.921875 37.59375 65.921875 
Q 27.828125 65.921875 22.671875 59.328125 
Q 17.53125 52.734375 16.796875 39.40625 
Q 19.671875 43.65625 24.015625 45.921875 
Q 28.375 48.1875 33.59375 48.1875 
Q 44.578125 48.1875 50.953125 41.515625 
Q 57.328125 34.859375 57.328125 23.390625 
Q 57.328125 12.15625 50.6875 5.359375 
Q 44.046875 -1.421875 33.015625 -1.421875 
Q 20.359375 -1.421875 13.671875 8.265625 
Q 6.984375 17.96875 6.984375 36.375 
Q 6.984375 53.65625 15.1875 63.9375 
Q 23.390625 74.21875 37.203125 74.21875 
Q 40.921875 74.21875 44.703125 73.484375 
Q 48.484375 72.75 52.59375 71.296875 
z
" id="DejaVuSans-36"/>
      </defs>
      <g transform="translate(350.332264 527.238438)scale(0.1 -0.1)">
       <use xlink:href="#DejaVuSans-36"/>
      </g>
     </g>
    </g>
    <g id="xtick_5">
     <g id="line2d_5">
      <g>
       <use style="stroke:#000000;stroke-width:0.8;" x="433.945946" xlink:href="#m38b81ad6d1" y="512.64"/>
      </g>
     </g>
     <g id="text_5">
      <!-- 8 -->
      <defs>
       <path d="M 31.78125 34.625 
Q 24.75 34.625 20.71875 30.859375 
Q 16.703125 27.09375 16.703125 20.515625 
Q 16.703125 13.921875 20.71875 10.15625 
Q 24.75 6.390625 31.78125 6.390625 
Q 38.8125 6.390625 42.859375 10.171875 
Q 46.921875 13.96875 46.921875 20.515625 
Q 46.921875 27.09375 42.890625 30.859375 
Q 38.875 34.625 31.78125 34.625 
z
M 21.921875 38.8125 
Q 15.578125 40.375 12.03125 44.71875 
Q 8.5 49.078125 8.5 55.328125 
Q 8.5 64.0625 14.71875 69.140625 
Q 20.953125 74.21875 31.78125 74.21875 
Q 42.671875 74.21875 48.875 69.140625 
Q 55.078125 64.0625 55.078125 55.328125 
Q 55.078125 49.078125 51.53125 44.71875 
Q 48 40.375 41.703125 38.8125 
Q 48.828125 37.15625 52.796875 32.3125 
Q 56.78125 27.484375 56.78125 20.515625 
Q 56.78125 9.90625 50.3125 4.234375 
Q 43.84375 -1.421875 31.78125 -1.421875 
Q 19.734375 -1.421875 13.25 4.234375 
Q 6.78125 9.90625 6.78125 20.515625 
Q 6.78125 27.484375 10.78125 32.3125 
Q 14.796875 37.15625 21.921875 38.8125 
z
M 18.3125 54.390625 
Q 18.3125 48.734375 21.84375 45.5625 
Q 25.390625 42.390625 31.78125 42.390625 
Q 38.140625 42.390625 41.71875 45.5625 
Q 45.3125 48.734375 45.3125 54.390625 
Q 45.3125 60.0625 41.71875 63.234375 
Q 38.140625 66.40625 31.78125 66.40625 
Q 25.390625 66.40625 21.84375 63.234375 
Q 18.3125 60.0625 18.3125 54.390625 
z
" id="DejaVuSans-38"/>
      </defs>
      <g transform="translate(430.764696 527.238438)scale(0.1 -0.1)">
       <use xlink:href="#DejaVuSans-38"/>
      </g>
     </g>
    </g>
    <g id="xtick_6">
     <g id="line2d_6">
      <g>
       <use style="stroke:#000000;stroke-width:0.8;" x="514.378378" xlink:href="#m38b81ad6d1" y="512.64"/>
      </g>
     </g>
     <g id="text_6">
      <!-- 10 -->
      <defs>
       <path d="M 12.40625 8.296875 
L 28.515625 8.296875 
L 28.515625 63.921875 
L 10.984375 60.40625 
L 10.984375 69.390625 
L 28.421875 72.90625 
L 38.28125 72.90625 
L 38.28125 8.296875 
L 54.390625 8.296875 
L 54.390625 0 
L 12.40625 0 
z
" id="DejaVuSans-31"/>
      </defs>
      <g transform="translate(508.015878 527.238438)scale(0.1 -0.1)">
       <use xlink:href="#DejaVuSans-31"/>
       <use x="63.623047" xlink:href="#DejaVuSans-30"/>
      </g>
     </g>
    </g>
   </g>
   <g id="matplotlib.axis_2">
    <g id="ytick_1">
     <g id="line2d_7">
      <defs>
       <path d="M 0 0 
L -3.5 0 
" id="m495dea44e7" style="stroke:#000000;stroke-width:0.8;"/>
      </defs>
      <g>
       <use style="stroke:#000000;stroke-width:0.8;" x="72" xlink:href="#m495dea44e7" y="473.863784"/>
      </g>
     </g>
     <g id="text_7">
      <!-- 0 -->
      <g transform="translate(58.6375 477.663003)scale(0.1 -0.1)">
       <use xlink:href="#DejaVuSans-30"/>
      </g>
     </g>
    </g>
    <g id="ytick_2">
     <g id="line2d_8">
      <g>
       <use style="stroke:#000000;stroke-width:0.8;" x="72" xlink:href="#m495dea44e7" y="393.431351"/>
      </g>
     </g>
     <g id="text_8">
      <!-- 2 -->
      <g transform="translate(58.6375 397.23057)scale(0.1 -0.1)">
       <use xlink:href="#DejaVuSans-32"/>
      </g>
     </g>
    </g>
    <g id="ytick_3">
     <g id="line2d_9">
      <g>
       <use style="stroke:#000000;stroke-width:0.8;" x="72" xlink:href="#m495dea44e7" y="312.998919"/>
      </g>
     </g>
     <g id="text_9">
      <!-- 4 -->
      <g transform="translate(58.6375 316.798138)scale(0.1 -0.1)">
       <use xlink:href="#DejaVuSans-34"/>
      </g>
     </g>
    </g>
    <g id="ytick_4">
     <g id="line2d_10">
      <g>
       <use style="stroke:#000000;stroke-width:0.8;" x="72" xlink:href="#m495dea44e7" y="232.566486"/>
      </g>
     </g>
     <g id="text_10">
      <!-- 6 -->
      <g transform="translate(58.6375 236.365705)scale(0.1 -0.1)">
       <use xlink:href="#DejaVuSans-36"/>
      </g>
     </g>
    </g>
    <g id="ytick_5">
     <g id="line2d_11">
      <g>
       <use style="stroke:#000000;stroke-width:0.8;" x="72" xlink:href="#m495dea44e7" y="152.134054"/>
      </g>
     </g>
     <g id="text_11">
      <!-- 8 -->
      <g transform="translate(58.6375 155.933273)scale(0.1 -0.1)">
       <use xlink:href="#DejaVuSans-38"/>
      </g>
     </g>
    </g>
    <g id="ytick_6">
     <g id="line2d_12">
      <g>
       <use style="stroke:#000000;stroke-width:0.8;" x="72" xlink:href="#m495dea44e7" y="71.701622"/>
      </g>
     </g>
     <g id="text_12">
      <!-- 10 -->
      <g transform="translate(52.275 75.50084)scale(0.1 -0.1)">
       <use xlink:href="#DejaVuSans-31"/>
       <use x="63.623047" xlink:href="#DejaVuSans-30"/>
      </g>
     </g>
    </g>
   </g>
   <g id="line2d_13">
    <path clip-path="url(#pdc6a8c253d)" d="M 140.367568 389.40973 
" style="fill:none;stroke:#1f77b4;stroke-linecap:square;stroke-width:1.5;"/>
    <defs>
     <path d="M -5 5 
L 5 5 
L 5 -5 
L -5 -5 
z
" id="mf272c6fa56" style="stroke:#8000ff;stroke-linejoin:miter;"/>
    </defs>
    <g clip-path="url(#pdc6a8c253d)">
     <use style="fill:#8000ff;stroke:#8000ff;stroke-linejoin:miter;" x="140.367568" xlink:href="#mf272c6fa56" y="389.40973"/>
    </g>
   </g>
   <g id="line2d_14">
    <path clip-path="url(#pdc6a8c253d)" d="M 393.72973 192.35027 
" style="fill:none;stroke:#ff7f0e;stroke-linecap:square;stroke-width:1.5;"/>
    <defs>
     <path d="M 0 -5 
L -4.755283 -1.545085 
L -2.938926 4.045085 
L 2.938926 4.045085 
L 4.755283 -1.545085 
z
" id="mabf9ae0964" style="stroke:#8000ff;stroke-linejoin:miter;"/>
    </defs>
    <g clip-path="url(#pdc6a8c253d)">
     <use style="fill:#8000ff;stroke:#8000ff;stroke-linejoin:miter;" x="393.72973" xlink:href="#mabf9ae0964" y="192.35027"/>
    </g>
   </g>
   <g id="line2d_15">
    <path clip-path="url(#pdc6a8c253d)" d="M 450.032432 192.35027 
" style="fill:none;stroke:#2ca02c;stroke-linecap:square;stroke-width:1.5;"/>
    <defs>
     <path d="M -5 5 
L 5 5 
L 5 -5 
L -5 -5 
z
" id="mb2150b5b0a" style="stroke:#2b7ff6;stroke-linejoin:miter;"/>
    </defs>
    <g clip-path="url(#pdc6a8c253d)">
     <use style="fill:#2b7ff6;stroke:#2b7ff6;stroke-linejoin:miter;" x="450.032432" xlink:href="#mb2150b5b0a" y="192.35027"/>
    </g>
   </g>
   <g id="line2d_16">
    <path clip-path="url(#pdc6a8c253d)" d="M 224.821622 361.258378 
" style="fill:none;stroke:#d62728;stroke-linecap:square;stroke-width:1.5;"/>
    <defs>
     <path d="M 0 -5 
L -4.755283 -1.545085 
L -2.938926 4.045085 
L 2.938926 4.045085 
L 4.755283 -1.545085 
z
" id="mda153763b2" style="stroke:#2b7ff6;stroke-linejoin:miter;"/>
    </defs>
    <g clip-path="url(#pdc6a8c253d)">
     <use style="fill:#2b7ff6;stroke:#2b7ff6;stroke-linejoin:miter;" x="224.821622" xlink:href="#mda153763b2" y="361.258378"/>
    </g>
   </g>
   <g id="line2d_17">
    <path clip-path="url(#pdc6a8c253d)" d="M 402.175135 440.082162 
" style="fill:none;stroke:#9467bd;stroke-linecap:square;stroke-width:1.5;"/>
    <defs>
     <path d="M -5 5 
L 5 5 
L 5 -5 
L -5 -5 
z
" id="m92f3284e83" style="stroke:#2adddd;stroke-linejoin:miter;"/>
    </defs>
    <g clip-path="url(#pdc6a8c253d)">
     <use style="fill:#2adddd;stroke:#2adddd;stroke-linejoin:miter;" x="402.175135" xlink:href="#m92f3284e83" y="440.082162"/>
    </g>
   </g>
   <g id="line2d_18">
    <path clip-path="url(#pdc6a8c253d)" d="M 224.821622 192.35027 
" style="fill:none;stroke:#8c564b;stroke-linecap:square;stroke-width:1.5;"/>
    <defs>
     <path d="M 0 -5 
L -4.755283 -1.545085 
L -2.938926 4.045085 
L 2.938926 4.045085 
L 4.755283 -1.545085 
z
" id="m9ef05ca1d1" style="stroke:#2adddd;stroke-linejoin:miter;"/>
    </defs>
    <g clip-path="url(#pdc6a8c253d)">
     <use style="fill:#2adddd;stroke:#2adddd;stroke-linejoin:miter;" x="224.821622" xlink:href="#m9ef05ca1d1" y="192.35027"/>
    </g>
   </g>
   <g id="line2d_19">
    <path clip-path="url(#pdc6a8c253d)" d="M 224.821622 136.047568 
" style="fill:none;stroke:#e377c2;stroke-linecap:square;stroke-width:1.5;"/>
    <defs>
     <path d="M -5 5 
L 5 5 
L 5 -5 
L -5 -5 
z
" id="m3f10f405b9" style="stroke:#80ffb4;stroke-linejoin:miter;"/>
    </defs>
    <g clip-path="url(#pdc6a8c253d)">
     <use style="fill:#80ffb4;stroke:#80ffb4;stroke-linejoin:miter;" x="224.821622" xlink:href="#m3f10f405b9" y="136.047568"/>
    </g>
   </g>
   <g id="line2d_20">
    <path clip-path="url(#pdc6a8c253d)" d="M 393.72973 361.258378 
" style="fill:none;stroke:#7f7f7f;stroke-linecap:square;stroke-width:1.5;"/>
    <defs>
     <path d="M 0 -5 
L -4.755283 -1.545085 
L -2.938926 4.045085 
L 2.938926 4.045085 
L 4.755283 -1.545085 
z
" id="mc7c94521b3" style="stroke:#80ffb4;stroke-linejoin:miter;"/>
    </defs>
    <g clip-path="url(#pdc6a8c253d)">
     <use style="fill:#80ffb4;stroke:#80ffb4;stroke-linejoin:miter;" x="393.72973" xlink:href="#mc7c94521b3" y="361.258378"/>
    </g>
   </g>
   <g id="line2d_21">
    <path clip-path="url(#pdc6a8c253d)" d="M 450.032432 304.955676 
" style="fill:none;stroke:#bcbd22;stroke-linecap:square;stroke-width:1.5;"/>
    <defs>
     <path d="M -5 5 
L 5 5 
L 5 -5 
L -5 -5 
z
" id="m95a8fde093" style="stroke:#d4dd80;stroke-linejoin:miter;"/>
    </defs>
    <g clip-path="url(#pdc6a8c253d)">
     <use style="fill:#d4dd80;stroke:#d4dd80;stroke-linejoin:miter;" x="450.032432" xlink:href="#m95a8fde093" y="304.955676"/>
    </g>
   </g>
   <g id="line2d_22">
    <path clip-path="url(#pdc6a8c253d)" d="M 196.67027 248.652973 
" style="fill:none;stroke:#17becf;stroke-linecap:square;stroke-width:1.5;"/>
    <defs>
     <path d="M 0 -5 
L -4.755283 -1.545085 
L -2.938926 4.045085 
L 2.938926 4.045085 
L 4.755283 -1.545085 
z
" id="m579727fde1" style="stroke:#d4dd80;stroke-linejoin:miter;"/>
    </defs>
    <g clip-path="url(#pdc6a8c253d)">
     <use style="fill:#d4dd80;stroke:#d4dd80;stroke-linejoin:miter;" x="196.67027" xlink:href="#m579727fde1" y="248.652973"/>
    </g>
   </g>
   <g id="line2d_23">
    <path clip-path="url(#pdc6a8c253d)" d="M 140.367568 248.652973 
" style="fill:none;stroke:#1f77b4;stroke-linecap:square;stroke-width:1.5;"/>
    <defs>
     <path d="M -5 5 
L 5 5 
L 5 -5 
L -5 -5 
z
" id="mdfc968b37d" style="stroke:#ff8042;stroke-linejoin:miter;"/>
    </defs>
    <g clip-path="url(#pdc6a8c253d)">
     <use style="fill:#ff8042;stroke:#ff8042;stroke-linejoin:miter;" x="140.367568" xlink:href="#mdfc968b37d" y="248.652973"/>
    </g>
   </g>
   <g id="line2d_24">
    <path clip-path="url(#pdc6a8c253d)" d="M 393.72973 276.804324 
" style="fill:none;stroke:#ff7f0e;stroke-linecap:square;stroke-width:1.5;"/>
    <defs>
     <path d="M 0 -5 
L -4.755283 -1.545085 
L -2.938926 4.045085 
L 2.938926 4.045085 
L 4.755283 -1.545085 
z
" id="m51b91f42f8" style="stroke:#ff8042;stroke-linejoin:miter;"/>
    </defs>
    <g clip-path="url(#pdc6a8c253d)">
     <use style="fill:#ff8042;stroke:#ff8042;stroke-linejoin:miter;" x="393.72973" xlink:href="#m51b91f42f8" y="276.804324"/>
    </g>
   </g>
   <g id="line2d_25">
    <path clip-path="url(#pdc6a8c253d)" d="M 281.124324 192.35027 
" style="fill:none;stroke:#2ca02c;stroke-linecap:square;stroke-width:1.5;"/>
    <defs>
     <path d="M -5 5 
L 5 5 
L 5 -5 
L -5 -5 
z
" id="m76cac860e6" style="stroke:#ff0000;stroke-linejoin:miter;"/>
    </defs>
    <g clip-path="url(#pdc6a8c253d)">
     <use style="fill:#ff0000;stroke:#ff0000;stroke-linejoin:miter;" x="281.124324" xlink:href="#m76cac860e6" y="192.35027"/>
    </g>
   </g>
   <g id="line2d_26">
    <path clip-path="url(#pdc6a8c253d)" d="M 281.124324 333.107027 
" style="fill:none;stroke:#d62728;stroke-linecap:square;stroke-width:1.5;"/>
    <defs>
     <path d="M 0 -5 
L -4.755283 -1.545085 
L -2.938926 4.045085 
L 2.938926 4.045085 
L 4.755283 -1.545085 
z
" id="m5f983808e2" style="stroke:#ff0000;stroke-linejoin:miter;"/>
    </defs>
    <g clip-path="url(#pdc6a8c253d)">
     <use style="fill:#ff0000;stroke:#ff0000;stroke-linejoin:miter;" x="281.124324" xlink:href="#m5f983808e2" y="333.107027"/>
    </g>
   </g>
   <g id="line2d_27"/>
   <g id="line2d_28">
    <path clip-path="url(#pdc6a8c253d)" d="M 92.108108 493.971892 
L 92.108108 87.788108 
" style="fill:none;stroke:#000000;stroke-linecap:square;stroke-width:4;"/>
   </g>
   <g id="line2d_29">
    <path clip-path="url(#pdc6a8c253d)" d="M 92.108108 87.788108 
L 498.291892 87.788108 
" style="fill:none;stroke:#000000;stroke-linecap:square;stroke-width:4;"/>
   </g>
   <g id="line2d_30">
    <path clip-path="url(#pdc6a8c253d)" d="M 498.291892 87.788108 
L 498.291892 493.971892 
" style="fill:none;stroke:#000000;stroke-linecap:square;stroke-width:4;"/>
   </g>
   <g id="line2d_31">
    <path clip-path="url(#pdc6a8c253d)" d="M 498.291892 493.971892 
L 92.108108 493.971892 
" style="fill:none;stroke:#000000;stroke-linecap:square;stroke-width:4;"/>
   </g>
   <g id="line2d_32">
    <path clip-path="url(#pdc6a8c253d)" d="M 140.367568 389.40973 
L 141.815351 389.329297 
L 143.303351 389.007568 
L 144.912 388.243459 
L 145.917405 387.519568 
L 150.140108 383.980541 
L 156.655135 378.832865 
L 160.676757 375.696 
L 167.392865 370.387459 
L 195.865946 348.027243 
L 204.914595 340.868757 
L 230.854054 320.479135 
L 236.122378 316.336865 
L 237.328865 315.411892 
L 239.058162 314.527135 
L 240.666811 314.124973 
L 242.637405 314.004324 
L 245.975351 314.406486 
L 251.082811 314.326054 
L 254.541405 314.486919 
L 261.056432 314.406486 
L 264.313946 314.124973 
L 265.480216 313.803243 
L 266.807351 313.2 
L 268.054054 312.315243 
L 269.260541 310.988108 
L 270.024649 309.660973 
L 270.587676 307.971892 
L 270.748541 306.443676 
L 270.627892 305.116541 
L 270.426811 304.553514 
L 270.105081 304.111135 
L 267.973622 302.019892 
L 267.812757 301.376432 
L 267.852973 299.606919 
L 268.295351 297.716757 
L 269.019243 296.188541 
L 269.944216 294.861405 
L 271.07027 293.53427 
L 272.276757 292.327784 
L 273.644108 291.402811 
L 275.172324 290.678919 
L 276.780973 290.316973 
L 278.188541 290.276757 
L 280.118919 290.55827 
L 283.255784 291.724541 
L 285.025297 292.528865 
L 286.432865 293.413622 
L 288.001297 294.217946 
L 289.489297 294.620108 
L 291.017514 294.700541 
L 292.54573 294.499459 
L 294.234811 293.896216 
L 295.722811 292.890811 
L 297.974919 290.638703 
L 299.141189 289.271351 
L 299.98573 287.702919 
L 300.669405 285.973622 
L 301.554162 284.244324 
L 306.299676 277.407568 
L 309.516973 273.144649 
L 312.291892 269.645838 
L 313.216865 268.157838 
L 313.699459 266.669838 
L 314.262486 263.211243 
L 314.905946 261.361297 
L 316.796108 256.897297 
L 317.801514 255.248432 
L 318.887351 254.082162 
L 321.420973 251.990919 
L 324.115459 249.819243 
L 334.451027 241.293405 
L 350.57773 227.981838 
L 355.524324 223.879784 
L 365.45773 215.675676 
L 371.651027 210.568216 
L 380.981189 202.886919 
L 392.764541 193.154595 
L 392.764541 193.154595 
" style="fill:none;stroke:#8000ff;stroke-linecap:square;stroke-width:1.5;"/>
   </g>
   <g id="line2d_33">
    <path clip-path="url(#pdc6a8c253d)" d="M 450.032432 192.35027 
L 450.27373 192.430703 
L 450.354162 192.551351 
L 450.474811 192.832865 
L 450.595459 193.596973 
L 450.555243 194.763243 
L 450.27373 195.889297 
L 449.63027 197.417514 
L 448.665081 198.784865 
L 447.699892 199.750054 
L 445.045622 201.680432 
L 440.903351 204.616216 
L 432.216649 210.889946 
L 427.873297 214.067027 
L 410.09773 226.976432 
L 365.900108 258.747243 
L 361.83827 261.361297 
L 360.591568 262.366703 
L 359.626378 263.532973 
L 358.741622 265.382919 
L 356.931892 271.455568 
L 353.714595 280.262919 
L 353.030919 281.952 
L 352.749405 283.480216 
L 352.789622 286.938811 
L 352.508108 288.909405 
L 352.025514 290.236541 
L 351.140757 291.965838 
L 349.129946 294.740757 
L 348.486486 296.108108 
L 348.084324 297.877622 
L 347.923459 300.97427 
L 347.561514 302.582919 
L 346.676757 304.352432 
L 343.821405 308.293622 
L 342.816 311.108757 
L 342.092108 312.717405 
L 339.880216 315.532541 
L 338.794378 316.940108 
L 337.748757 318.508541 
L 336.743351 319.795459 
L 333.324973 323.616 
L 329.866378 326.994162 
L 325.804541 330.533189 
L 324.356757 331.739676 
L 320.777514 335.52 
L 317.117838 338.254703 
L 314.302703 340.30573 
L 311.004973 342.195892 
L 308.632216 343.724108 
L 305.575784 346.981622 
L 301.47373 350.279351 
L 298.658595 352.451027 
L 294.315243 355.105297 
L 291.419676 356.553081 
L 288.403459 357.759568 
L 284.502486 358.885622 
L 283.175351 359.207351 
L 279.958054 359.689946 
L 274.408216 360.252973 
L 270.949622 360.816 
L 267.450811 361.218162 
L 260.493405 361.499676 
L 241.95373 361.419243 
L 235.800649 361.338811 
L 226.148757 361.258378 
L 226.148757 361.258378 
" style="fill:none;stroke:#2b7ff6;stroke-linecap:square;stroke-width:1.5;"/>
   </g>
   <g id="line2d_34">
    <path clip-path="url(#pdc6a8c253d)" d="M 402.175135 440.082162 
L 401.974054 440.162595 
L 402.094703 440.00173 
L 402.577297 439.036541 
L 402.778378 437.87027 
L 402.697946 436.261622 
L 402.295784 434.773622 
L 401.612108 433.366054 
L 399.561081 430.631351 
L 397.429622 427.856432 
L 395.539459 425.242378 
L 389.667892 417.239351 
L 381.906162 406.662486 
L 365.739243 384.583784 
L 358.741622 375.092757 
L 349.733189 362.746378 
L 345.590919 357.116108 
L 341.328 351.365189 
L 340.201946 350.319568 
L 338.915027 349.515243 
L 337.547676 348.992432 
L 335.737946 348.509838 
L 333.686919 347.826162 
L 331.716324 346.860973 
L 330.670703 345.936 
L 329.785946 344.76973 
L 329.10227 343.241514 
L 328.659892 341.592649 
L 328.619676 339.943784 
L 328.860973 338.013405 
L 329.263135 335.761297 
L 329.303351 334.192865 
L 328.659892 329.407135 
L 328.378378 328.482162 
L 327.654486 327.155027 
L 327.011027 326.350703 
L 325.884973 325.345297 
L 324.316541 324.420324 
L 322.587243 323.93773 
L 321.059027 323.817081 
L 319.571027 324.018162 
L 316.35373 324.983351 
L 314.061405 325.305081 
L 312.131027 325.063784 
L 310.562595 324.500757 
L 309.235459 323.817081 
L 307.787676 322.932324 
L 306.138811 322.208432 
L 303.001946 321.444324 
L 301.433514 320.760649 
L 300.146595 319.916108 
L 298.899892 318.910703 
L 296.969514 317.784649 
L 295.52173 317.34227 
L 292.103351 316.859676 
L 289.770811 316.256432 
L 288.966486 315.814054 
L 287.237189 315.210811 
L 287.43827 315.170595 
L 287.558919 315.090162 
L 287.036108 315.371676 
L 286.633946 315.130378 
L 285.628541 314.245622 
L 284.743784 312.998919 
L 283.456865 310.103351 
L 282.531892 308.615351 
L 280.440649 306.644757 
L 279.274378 305.518703 
L 275.815784 301.497081 
L 273.684324 299.124324 
L 272.799568 297.716757 
L 272.115892 295.907027 
L 271.673514 294.419027 
L 271.110486 292.971243 
L 262.745514 274.954378 
L 260.091243 269.082811 
L 255.385946 258.867892 
L 245.734054 237.915243 
L 240.385297 226.212324 
L 235.559351 215.756108 
L 225.143351 193.074162 
L 225.143351 193.074162 
" style="fill:none;stroke:#2adddd;stroke-linecap:square;stroke-width:1.5;"/>
   </g>
   <g id="line2d_35">
    <path clip-path="url(#pdc6a8c253d)" d="M 224.821622 136.047568 
L 225.827027 136.128 
L 226.832432 136.329081 
L 228.280216 136.892108 
L 229.728 137.736649 
L 230.934486 138.862703 
L 231.939892 140.109405 
L 233.749622 142.803892 
L 245.130811 158.327351 
L 267.933405 189.454703 
L 287.599135 216.319135 
L 289.449081 218.852757 
L 290.333838 220.380973 
L 290.896865 221.989622 
L 291.097946 223.638486 
L 290.937081 225.528649 
L 290.012108 229.308973 
L 289.650162 231.923027 
L 289.207784 236.105514 
L 289.328432 236.789189 
L 289.811027 237.955459 
L 290.494703 239.001081 
L 291.540324 240.127135 
L 292.988108 241.172757 
L 294.87827 241.936865 
L 296.205405 242.218378 
L 298.377081 242.821622 
L 301.393297 244.028108 
L 304.811676 245.033514 
L 307.667027 245.958486 
L 307.546378 245.958486 
L 308.028973 245.757405 
L 308.833297 245.194378 
L 309.798486 244.068324 
L 310.482162 242.700973 
L 311.326703 241.333622 
L 312.694054 239.926054 
L 314.101622 238.920649 
L 315.670054 237.955459 
L 317.479784 237.231568 
L 319.410162 236.950054 
L 322.345946 237.070703 
L 323.833946 236.99027 
L 325.844757 236.507676 
L 327.413189 235.663135 
L 328.579459 234.65773 
L 329.74573 233.250162 
L 331.072865 231.923027 
L 332.440216 230.957838 
L 334.290162 230.274162 
L 335.657514 230.032865 
L 337.346595 230.073081 
L 338.955243 230.394811 
L 340.523676 231.078486 
L 343.700757 233.250162 
L 346.918054 235.059892 
L 348.245189 236.065297 
L 356.690595 243.746595 
L 359.344865 245.958486 
L 362.682811 249.457297 
L 370.364108 257.017946 
L 373.983568 260.918919 
L 376.557405 263.291676 
L 378.769297 265.986162 
L 386.209297 275.839135 
L 388.863568 280.222703 
L 390.230919 282.836757 
L 391.558054 285.812757 
L 393.08627 290.156108 
L 394.011243 293.815784 
L 394.493838 297.033081 
L 394.896 302.381838 
L 394.936216 308.052324 
L 394.855784 312.87827 
L 393.769946 360.051892 
L 393.769946 360.051892 
" style="fill:none;stroke:#80ffb4;stroke-linecap:square;stroke-width:1.5;"/>
   </g>
   <g id="line2d_36">
    <path clip-path="url(#pdc6a8c253d)" d="M 450.032432 304.955676 
L 449.831351 304.995892 
L 449.670486 305.277405 
L 449.670486 305.116541 
L 449.549838 304.513297 
L 449.147676 303.708973 
L 448.303135 302.703568 
L 447.337946 301.979676 
L 445.729297 301.175351 
L 442.632649 300.451459 
L 415.084541 294.700541 
L 396.70573 290.799568 
L 392.523243 289.914811 
L 359.465514 282.997622 
L 352.628757 281.710703 
L 347.239784 280.986811 
L 345.228973 281.027027 
L 343.499676 281.509622 
L 342.333405 282.032432 
L 340.000865 283.801946 
L 338.754162 284.767135 
L 338.110703 285.088865 
L 336.944432 285.410595 
L 334.692324 285.611676 
L 332.761946 285.289946 
L 331.23373 284.686703 
L 329.826162 283.76173 
L 326.206703 280.182486 
L 324.96 279.29773 
L 323.592649 278.65427 
L 322.104649 278.332541 
L 320.053622 278.332541 
L 319.048216 278.533622 
L 315.670054 279.780324 
L 313.739676 280.021622 
L 312.050595 279.860757 
L 310.200649 279.29773 
L 308.592 278.372757 
L 305.455135 276.32173 
L 300.83027 273.908757 
L 299.503135 272.943568 
L 298.336865 271.737081 
L 296.486919 268.801297 
L 295.52173 267.715459 
L 294.194595 266.790486 
L 292.505514 266.147027 
L 289.328432 265.624216 
L 287.719784 265.181838 
L 284.864432 263.814486 
L 282.089514 262.849297 
L 277.464649 261.562378 
L 270.909405 260.355892 
L 265.882378 259.551568 
L 249.433946 256.97773 
L 245.211243 256.294054 
L 226.390054 253.318054 
L 197.555027 248.773622 
L 197.555027 248.773622 
" style="fill:none;stroke:#d4dd80;stroke-linecap:square;stroke-width:1.5;"/>
   </g>
   <g id="line2d_37">
    <path clip-path="url(#pdc6a8c253d)" d="M 140.367568 248.652973 
L 142.177297 248.652973 
L 148.812973 249.336649 
L 240.224432 259.591784 
L 249.795892 260.677622 
L 259.689081 261.763459 
L 263.388973 262.205838 
L 266.566054 262.326486 
L 268.777946 262.366703 
L 271.71373 262.648216 
L 273.684324 262.608 
L 275.172324 262.205838 
L 278.268973 260.79827 
L 279.596108 260.355892 
L 281.285189 260.195027 
L 283.497081 260.396108 
L 286.352432 261.079784 
L 288.242595 261.321081 
L 288.041514 261.401514 
L 288.966486 260.114595 
L 289.690378 258.46573 
L 290.494703 255.127784 
L 291.218595 253.639784 
L 293.712 249.658378 
L 298.779243 244.752 
L 300.146595 243.867243 
L 301.755243 243.143351 
L 303.203027 242.821622 
L 304.851892 242.821622 
L 307.586595 243.304216 
L 310.683243 244.309622 
L 313.940757 245.717189 
L 322.707892 249.859459 
L 328.941405 252.915892 
L 334.370595 255.891892 
L 337.587892 257.82227 
L 341.850811 260.677622 
L 346.716973 264.41773 
L 355.88627 272.099027 
L 357.776432 273.466378 
L 361.355676 275.67827 
L 363.808865 276.804324 
L 365.538162 277.246703 
L 367.388108 277.407568 
L 369.519568 277.206486 
L 372.012973 276.683676 
L 376.758486 275.316324 
L 378.367135 275.115243 
L 381.101838 275.316324 
L 382.589838 275.477189 
L 386.329946 275.597838 
L 391.397189 276.32173 
L 391.397189 276.32173 
" style="fill:none;stroke:#ff8042;stroke-linecap:square;stroke-width:1.5;"/>
   </g>
   <g id="line2d_38">
    <path clip-path="url(#pdc6a8c253d)" d="M 281.124324 192.35027 
L 281.204757 192.35027 
L 281.647135 192.430703 
L 282.089514 192.591568 
L 282.612324 192.873081 
L 283.456865 193.556757 
L 284.220973 194.602378 
L 284.864432 196.211027 
L 285.145946 197.859892 
L 285.186162 199.79027 
L 285.10573 201.439135 
L 285.025297 203.007568 
L 284.944865 204.616216 
L 284.904649 206.224865 
L 284.864432 207.833514 
L 284.824216 209.723676 
L 284.743784 211.332324 
L 284.703568 213.18227 
L 284.663351 214.790919 
L 284.582919 216.681081 
L 284.542703 218.28973 
L 284.502486 219.898378 
L 284.46227 221.507027 
L 284.381838 223.397189 
L 284.341622 224.724324 
L 284.301405 226.051459 
L 284.261189 227.941622 
L 284.220973 229.55027 
L 284.140541 231.400216 
L 284.100324 233.008865 
L 284.060108 234.617514 
L 284.019892 236.507676 
L 283.939459 238.116324 
L 283.899243 240.006486 
L 283.859027 241.856432 
L 283.778595 243.465081 
L 283.738378 245.355243 
L 283.698162 247.245405 
L 283.61773 249.095351 
L 283.577514 250.704 
L 283.537297 252.594162 
L 283.456865 254.202811 
L 283.416649 256.092973 
L 283.376432 257.701622 
L 283.336216 259.551568 
L 283.255784 261.44173 
L 283.215568 262.768865 
L 283.175351 264.136216 
L 283.135135 265.704649 
L 283.094919 267.313297 
L 283.054703 268.680649 
L 282.97427 270.530595 
L 282.934054 272.420757 
L 282.893838 274.029405 
L 282.813405 275.919568 
L 282.773189 277.528216 
L 282.732973 279.136865 
L 282.692757 280.986811 
L 282.612324 282.595459 
L 282.572108 284.485622 
L 282.531892 286.375784 
L 282.451459 287.984432 
L 282.411243 289.834378 
L 282.371027 291.20173 
L 282.330811 292.528865 
L 282.290595 294.137514 
L 282.250378 295.746162 
L 282.169946 297.354811 
L 282.169946 298.681946 
L 282.089514 300.572108 
L 282.049297 302.422054 
L 281.968865 304.312216 
L 281.928649 305.639351 
L 281.888432 307.529514 
L 281.848216 309.419676 
L 281.767784 311.028324 
L 281.727568 312.636973 
L 281.687351 314.245622 
L 281.647135 315.85427 
L 281.566703 317.704216 
L 281.526486 319.594378 
L 281.48627 321.444324 
L 281.446054 323.334486 
L 281.405838 324.943135 
L 281.405838 326.833297 
L 281.405838 328.683243 
L 281.365622 330.291892 
L 281.325405 332.182054 
" style="fill:none;stroke:#ff0000;stroke-linecap:square;stroke-width:1.5;"/>
   </g>
   <g id="patch_3">
    <path d="M 72 512.64 
L 72 69.12 
" style="fill:none;stroke:#000000;stroke-linecap:square;stroke-linejoin:miter;stroke-width:0.8;"/>
   </g>
   <g id="patch_4">
    <path d="M 518.4 512.64 
L 518.4 69.12 
" style="fill:none;stroke:#000000;stroke-linecap:square;stroke-linejoin:miter;stroke-width:0.8;"/>
   </g>
   <g id="patch_5">
    <path d="M 72 512.64 
L 518.4 512.64 
" style="fill:none;stroke:#000000;stroke-linecap:square;stroke-linejoin:miter;stroke-width:0.8;"/>
   </g>
   <g id="patch_6">
    <path d="M 72 69.12 
L 518.4 69.12 
" style="fill:none;stroke:#000000;stroke-linecap:square;stroke-linejoin:miter;stroke-width:0.8;"/>
   </g>
   <g id="text_13">
    <!-- 1 -->
    <defs>
     <path d="M 14.203125 0 
L 14.203125 5.171875 
L 26.90625 5.171875 
L 26.90625 65.828125 
L 12.203125 56.296875 
L 12.203125 62.703125 
L 29.984375 74.21875 
L 36.71875 74.21875 
L 36.71875 5.171875 
L 49.421875 5.171875 
L 49.421875 0 
z
" id="DejaVuSerif-31"/>
    </defs>
    <g transform="translate(137.186318 389.40973)scale(0.1 -0.1)">
     <use xlink:href="#DejaVuSerif-31"/>
    </g>
   </g>
   <g id="text_14">
    <!-- 1 -->
    <g transform="translate(390.54848 192.35027)scale(0.1 -0.1)">
     <use xlink:href="#DejaVuSerif-31"/>
    </g>
   </g>
   <g id="text_15">
    <!-- 2 -->
    <defs>
     <path d="M 12.796875 55.515625 
L 7.328125 55.515625 
L 7.328125 68.5 
Q 12.546875 71.296875 17.84375 72.75 
Q 23.140625 74.21875 28.21875 74.21875 
Q 39.59375 74.21875 46.1875 68.703125 
Q 52.78125 63.1875 52.78125 53.71875 
Q 52.78125 43.015625 37.84375 28.125 
Q 36.671875 27 36.078125 26.421875 
L 17.671875 8.015625 
L 48.09375 8.015625 
L 48.09375 17 
L 53.8125 17 
L 53.8125 0 
L 6.78125 0 
L 6.78125 5.328125 
L 28.90625 27.390625 
Q 36.234375 34.71875 39.359375 40.84375 
Q 42.484375 46.96875 42.484375 53.71875 
Q 42.484375 61.078125 38.640625 65.234375 
Q 34.8125 69.390625 28.078125 69.390625 
Q 21.09375 69.390625 17.28125 65.921875 
Q 13.484375 62.453125 12.796875 55.515625 
z
" id="DejaVuSerif-32"/>
    </defs>
    <g transform="translate(446.851182 192.35027)scale(0.1 -0.1)">
     <use xlink:href="#DejaVuSerif-32"/>
    </g>
   </g>
   <g id="text_16">
    <!-- 2 -->
    <g transform="translate(221.640372 361.258378)scale(0.1 -0.1)">
     <use xlink:href="#DejaVuSerif-32"/>
    </g>
   </g>
   <g id="text_17">
    <!-- 3 -->
    <defs>
     <path d="M 9.71875 69.828125 
Q 15.4375 71.96875 20.671875 73.09375 
Q 25.921875 74.21875 30.515625 74.21875 
Q 41.21875 74.21875 47.21875 69.59375 
Q 53.21875 64.984375 53.21875 56.78125 
Q 53.21875 50.203125 49.0625 45.78125 
Q 44.921875 41.359375 37.3125 39.796875 
Q 46.296875 38.53125 51.25 33.28125 
Q 56.203125 28.03125 56.203125 19.671875 
Q 56.203125 9.46875 49.34375 4.015625 
Q 42.484375 -1.421875 29.59375 -1.421875 
Q 23.875 -1.421875 18.421875 -0.1875 
Q 12.984375 1.03125 7.625 3.515625 
L 7.625 17.671875 
L 13.09375 17.671875 
Q 13.578125 10.640625 17.828125 7.03125 
Q 22.078125 3.421875 29.78125 3.421875 
Q 37.25 3.421875 41.578125 7.734375 
Q 45.90625 12.0625 45.90625 19.578125 
Q 45.90625 28.171875 41.453125 32.59375 
Q 37.015625 37.015625 28.421875 37.015625 
L 23.78125 37.015625 
L 23.78125 42 
L 26.21875 42 
Q 34.765625 42 39.03125 45.53125 
Q 43.3125 49.078125 43.3125 56.203125 
Q 43.3125 62.59375 39.796875 65.984375 
Q 36.28125 69.390625 29.6875 69.390625 
Q 23.09375 69.390625 19.453125 66.265625 
Q 15.828125 63.140625 15.1875 56.984375 
L 9.71875 56.984375 
z
" id="DejaVuSerif-33"/>
    </defs>
    <g transform="translate(398.993885 440.082162)scale(0.1 -0.1)">
     <use xlink:href="#DejaVuSerif-33"/>
    </g>
   </g>
   <g id="text_18">
    <!-- 3 -->
    <g transform="translate(221.640372 192.35027)scale(0.1 -0.1)">
     <use xlink:href="#DejaVuSerif-33"/>
    </g>
   </g>
   <g id="text_19">
    <!-- 4 -->
    <defs>
     <path d="M 34.90625 24.703125 
L 34.90625 63.484375 
L 10.015625 24.703125 
z
M 56.390625 0 
L 23.1875 0 
L 23.1875 5.171875 
L 34.90625 5.171875 
L 34.90625 19.484375 
L 3.078125 19.484375 
L 3.078125 24.8125 
L 35.015625 74.21875 
L 44.671875 74.21875 
L 44.671875 24.703125 
L 58.59375 24.703125 
L 58.59375 19.484375 
L 44.671875 19.484375 
L 44.671875 5.171875 
L 56.390625 5.171875 
z
" id="DejaVuSerif-34"/>
    </defs>
    <g transform="translate(221.640372 136.047568)scale(0.1 -0.1)">
     <use xlink:href="#DejaVuSerif-34"/>
    </g>
   </g>
   <g id="text_20">
    <!-- 4 -->
    <g transform="translate(390.54848 361.258378)scale(0.1 -0.1)">
     <use xlink:href="#DejaVuSerif-34"/>
    </g>
   </g>
   <g id="text_21">
    <!-- 5 -->
    <defs>
     <path d="M 50.296875 72.90625 
L 50.296875 64.890625 
L 16.890625 64.890625 
L 16.890625 44 
Q 19.4375 45.75 22.828125 46.625 
Q 26.21875 47.515625 30.421875 47.515625 
Q 42.234375 47.515625 49.0625 40.96875 
Q 55.90625 34.421875 55.90625 23.09375 
Q 55.90625 11.53125 49 5.046875 
Q 42.09375 -1.421875 29.59375 -1.421875 
Q 24.5625 -1.421875 19.28125 -0.1875 
Q 14.015625 1.03125 8.5 3.515625 
L 8.5 17.671875 
L 14.015625 17.671875 
Q 14.453125 10.75 18.421875 7.078125 
Q 22.40625 3.421875 29.59375 3.421875 
Q 37.3125 3.421875 41.453125 8.5 
Q 45.609375 13.578125 45.609375 23.09375 
Q 45.609375 32.5625 41.484375 37.609375 
Q 37.359375 42.671875 29.59375 42.671875 
Q 25.203125 42.671875 21.84375 41.109375 
Q 18.5 39.546875 15.921875 36.28125 
L 11.71875 36.28125 
L 11.71875 72.90625 
z
" id="DejaVuSerif-35"/>
    </defs>
    <g transform="translate(446.851182 304.955676)scale(0.1 -0.1)">
     <use xlink:href="#DejaVuSerif-35"/>
    </g>
   </g>
   <g id="text_22">
    <!-- 5 -->
    <g transform="translate(193.48902 248.652973)scale(0.1 -0.1)">
     <use xlink:href="#DejaVuSerif-35"/>
    </g>
   </g>
   <g id="text_23">
    <!-- 6 -->
    <defs>
     <path d="M 32.71875 3.421875 
Q 39.59375 3.421875 43.296875 8.46875 
Q 47.015625 13.53125 47.015625 23 
Q 47.015625 32.46875 43.296875 37.515625 
Q 39.59375 42.578125 32.71875 42.578125 
Q 25.734375 42.578125 22.0625 37.6875 
Q 18.40625 32.8125 18.40625 23.578125 
Q 18.40625 13.875 22.109375 8.640625 
Q 25.828125 3.421875 32.71875 3.421875 
z
M 16.796875 40.140625 
Q 20.125 43.796875 24.3125 45.59375 
Q 28.515625 47.40625 33.796875 47.40625 
Q 44.671875 47.40625 51 40.859375 
Q 57.328125 34.328125 57.328125 23 
Q 57.328125 11.921875 50.515625 5.25 
Q 43.703125 -1.421875 32.328125 -1.421875 
Q 19.96875 -1.421875 13.328125 7.78125 
Q 6.6875 17 6.6875 34.078125 
Q 6.6875 53.21875 14.546875 63.71875 
Q 22.40625 74.21875 36.71875 74.21875 
Q 40.578125 74.21875 44.828125 73.484375 
Q 49.078125 72.75 53.515625 71.296875 
L 53.515625 59.28125 
L 48 59.28125 
Q 47.40625 64.203125 44.234375 66.796875 
Q 41.0625 69.390625 35.6875 69.390625 
Q 26.21875 69.390625 21.578125 62.203125 
Q 16.9375 55.03125 16.796875 40.140625 
z
" id="DejaVuSerif-36"/>
    </defs>
    <g transform="translate(137.186318 248.652973)scale(0.1 -0.1)">
     <use xlink:href="#DejaVuSerif-36"/>
    </g>
   </g>
   <g id="text_24">
    <!-- 6 -->
    <g transform="translate(390.54848 276.804324)scale(0.1 -0.1)">
     <use xlink:href="#DejaVuSerif-36"/>
    </g>
   </g>
   <g id="text_25">
    <!-- 7 -->
    <defs>
     <path d="M 56.390625 67.921875 
L 27.875 0 
L 20.609375 0 
L 47.796875 64.890625 
L 14.109375 64.890625 
L 14.109375 55.90625 
L 8.40625 55.90625 
L 8.40625 72.90625 
L 56.390625 72.90625 
z
" id="DejaVuSerif-37"/>
    </defs>
    <g transform="translate(277.943074 192.35027)scale(0.1 -0.1)">
     <use xlink:href="#DejaVuSerif-37"/>
    </g>
   </g>
   <g id="text_26">
    <!-- 7 -->
    <g transform="translate(277.943074 333.107027)scale(0.1 -0.1)">
     <use xlink:href="#DejaVuSerif-37"/>
    </g>
   </g>
   <g id="text_27">
    <!-- MRPP -->
    <defs>
     <path d="M 9.8125 72.90625 
L 24.515625 72.90625 
L 43.109375 23.296875 
L 61.8125 72.90625 
L 76.515625 72.90625 
L 76.515625 0 
L 66.890625 0 
L 66.890625 64.015625 
L 48.09375 14.015625 
L 38.1875 14.015625 
L 19.390625 64.015625 
L 19.390625 0 
L 9.8125 0 
z
" id="DejaVuSans-4d"/>
     <path d="M 44.390625 34.1875 
Q 47.5625 33.109375 50.5625 29.59375 
Q 53.5625 26.078125 56.59375 19.921875 
L 66.609375 0 
L 56 0 
L 46.6875 18.703125 
Q 43.0625 26.03125 39.671875 28.421875 
Q 36.28125 30.8125 30.421875 30.8125 
L 19.671875 30.8125 
L 19.671875 0 
L 9.8125 0 
L 9.8125 72.90625 
L 32.078125 72.90625 
Q 44.578125 72.90625 50.734375 67.671875 
Q 56.890625 62.453125 56.890625 51.90625 
Q 56.890625 45.015625 53.6875 40.46875 
Q 50.484375 35.9375 44.390625 34.1875 
z
M 19.671875 64.796875 
L 19.671875 38.921875 
L 32.078125 38.921875 
Q 39.203125 38.921875 42.84375 42.21875 
Q 46.484375 45.515625 46.484375 51.90625 
Q 46.484375 58.296875 42.84375 61.546875 
Q 39.203125 64.796875 32.078125 64.796875 
z
" id="DejaVuSans-52"/>
     <path d="M 19.671875 64.796875 
L 19.671875 37.40625 
L 32.078125 37.40625 
Q 38.96875 37.40625 42.71875 40.96875 
Q 46.484375 44.53125 46.484375 51.125 
Q 46.484375 57.671875 42.71875 61.234375 
Q 38.96875 64.796875 32.078125 64.796875 
z
M 9.8125 72.90625 
L 32.078125 72.90625 
Q 44.34375 72.90625 50.609375 67.359375 
Q 56.890625 61.8125 56.890625 51.125 
Q 56.890625 40.328125 50.609375 34.8125 
Q 44.34375 29.296875 32.078125 29.296875 
L 19.671875 29.296875 
L 19.671875 0 
L 9.8125 0 
z
" id="DejaVuSans-50"/>
    </defs>
    <g transform="translate(278.618437 63.12)scale(0.12 -0.12)">
     <use xlink:href="#DejaVuSans-4d"/>
     <use x="86.279297" xlink:href="#DejaVuSans-52"/>
     <use x="155.761719" xlink:href="#DejaVuSans-50"/>
     <use x="216.064453" xlink:href="#DejaVuSans-50"/>
    </g>
   </g>
  </g>
 </g>
 <defs>
  <clipPath id="pdc6a8c253d">
   <rect height="443.52" width="446.4" x="72" y="69.12"/>
  </clipPath>
 </defs>
</svg>
