<?xml version="1.0" encoding="utf-8" standalone="no"?>
<!DOCTYPE svg PUBLIC "-//W3C//DTD SVG 1.1//EN"
  "http://www.w3.org/Graphics/SVG/1.1/DTD/svg11.dtd">
<!-- Created with matplotlib (http://matplotlib.org/) -->
<svg height="576pt" version="1.1" viewBox="0 0 576 576" width="576pt" xmlns="http://www.w3.org/2000/svg" xmlns:xlink="http://www.w3.org/1999/xlink">
 <defs>
  <style type="text/css">
*{stroke-linecap:butt;stroke-linejoin:round;}
  </style>
 </defs>
 <g id="figure_1">
  <g id="patch_1">
   <path d="M 0 576 
L 576 576 
L 576 0 
L 0 0 
z
" style="fill:#ffffff;"/>
  </g>
  <g id="axes_1">
   <g id="patch_2">
    <path d="M 72 512.64 
L 518.4 512.64 
L 518.4 69.12 
L 72 69.12 
z
" style="fill:#ffffff;"/>
   </g>
   <g id="matplotlib.axis_1">
    <g id="xtick_1">
     <g id="line2d_1">
      <defs>
       <path d="M 0 0 
L 0 3.5 
" id="mef3f8aecf1" style="stroke:#000000;stroke-width:0.8;"/>
      </defs>
      <g>
       <use style="stroke:#000000;stroke-width:0.8;" x="112.216216" xlink:href="#mef3f8aecf1" y="512.64"/>
      </g>
     </g>
     <g id="text_1">
      <!-- 0 -->
      <defs>
       <path d="M 31.78125 66.40625 
Q 24.171875 66.40625 20.328125 58.90625 
Q 16.5 51.421875 16.5 36.375 
Q 16.5 21.390625 20.328125 13.890625 
Q 24.171875 6.390625 31.78125 6.390625 
Q 39.453125 6.390625 43.28125 13.890625 
Q 47.125 21.390625 47.125 36.375 
Q 47.125 51.421875 43.28125 58.90625 
Q 39.453125 66.40625 31.78125 66.40625 
z
M 31.78125 74.21875 
Q 44.046875 74.21875 50.515625 64.515625 
Q 56.984375 54.828125 56.984375 36.375 
Q 56.984375 17.96875 50.515625 8.265625 
Q 44.046875 -1.421875 31.78125 -1.421875 
Q 19.53125 -1.421875 13.0625 8.265625 
Q 6.59375 17.96875 6.59375 36.375 
Q 6.59375 54.828125 13.0625 64.515625 
Q 19.53125 74.21875 31.78125 74.21875 
z
" id="DejaVuSans-30"/>
      </defs>
      <g transform="translate(109.034966 527.238438)scale(0.1 -0.1)">
       <use xlink:href="#DejaVuSans-30"/>
      </g>
     </g>
    </g>
    <g id="xtick_2">
     <g id="line2d_2">
      <g>
       <use style="stroke:#000000;stroke-width:0.8;" x="192.648649" xlink:href="#mef3f8aecf1" y="512.64"/>
      </g>
     </g>
     <g id="text_2">
      <!-- 2 -->
      <defs>
       <path d="M 19.1875 8.296875 
L 53.609375 8.296875 
L 53.609375 0 
L 7.328125 0 
L 7.328125 8.296875 
Q 12.9375 14.109375 22.625 23.890625 
Q 32.328125 33.6875 34.8125 36.53125 
Q 39.546875 41.84375 41.421875 45.53125 
Q 43.3125 49.21875 43.3125 52.78125 
Q 43.3125 58.59375 39.234375 62.25 
Q 35.15625 65.921875 28.609375 65.921875 
Q 23.96875 65.921875 18.8125 64.3125 
Q 13.671875 62.703125 7.8125 59.421875 
L 7.8125 69.390625 
Q 13.765625 71.78125 18.9375 73 
Q 24.125 74.21875 28.421875 74.21875 
Q 39.75 74.21875 46.484375 68.546875 
Q 53.21875 62.890625 53.21875 53.421875 
Q 53.21875 48.921875 51.53125 44.890625 
Q 49.859375 40.875 45.40625 35.40625 
Q 44.1875 33.984375 37.640625 27.21875 
Q 31.109375 20.453125 19.1875 8.296875 
z
" id="DejaVuSans-32"/>
      </defs>
      <g transform="translate(189.467399 527.238438)scale(0.1 -0.1)">
       <use xlink:href="#DejaVuSans-32"/>
      </g>
     </g>
    </g>
    <g id="xtick_3">
     <g id="line2d_3">
      <g>
       <use style="stroke:#000000;stroke-width:0.8;" x="273.081081" xlink:href="#mef3f8aecf1" y="512.64"/>
      </g>
     </g>
     <g id="text_3">
      <!-- 4 -->
      <defs>
       <path d="M 37.796875 64.3125 
L 12.890625 25.390625 
L 37.796875 25.390625 
z
M 35.203125 72.90625 
L 47.609375 72.90625 
L 47.609375 25.390625 
L 58.015625 25.390625 
L 58.015625 17.1875 
L 47.609375 17.1875 
L 47.609375 0 
L 37.796875 0 
L 37.796875 17.1875 
L 4.890625 17.1875 
L 4.890625 26.703125 
z
" id="DejaVuSans-34"/>
      </defs>
      <g transform="translate(269.899831 527.238438)scale(0.1 -0.1)">
       <use xlink:href="#DejaVuSans-34"/>
      </g>
     </g>
    </g>
    <g id="xtick_4">
     <g id="line2d_4">
      <g>
       <use style="stroke:#000000;stroke-width:0.8;" x="353.513514" xlink:href="#mef3f8aecf1" y="512.64"/>
      </g>
     </g>
     <g id="text_4">
      <!-- 6 -->
      <defs>
       <path d="M 33.015625 40.375 
Q 26.375 40.375 22.484375 35.828125 
Q 18.609375 31.296875 18.609375 23.390625 
Q 18.609375 15.53125 22.484375 10.953125 
Q 26.375 6.390625 33.015625 6.390625 
Q 39.65625 6.390625 43.53125 10.953125 
Q 47.40625 15.53125 47.40625 23.390625 
Q 47.40625 31.296875 43.53125 35.828125 
Q 39.65625 40.375 33.015625 40.375 
z
M 52.59375 71.296875 
L 52.59375 62.3125 
Q 48.875 64.0625 45.09375 64.984375 
Q 41.3125 65.921875 37.59375 65.921875 
Q 27.828125 65.921875 22.671875 59.328125 
Q 17.53125 52.734375 16.796875 39.40625 
Q 19.671875 43.65625 24.015625 45.921875 
Q 28.375 48.1875 33.59375 48.1875 
Q 44.578125 48.1875 50.953125 41.515625 
Q 57.328125 34.859375 57.328125 23.390625 
Q 57.328125 12.15625 50.6875 5.359375 
Q 44.046875 -1.421875 33.015625 -1.421875 
Q 20.359375 -1.421875 13.671875 8.265625 
Q 6.984375 17.96875 6.984375 36.375 
Q 6.984375 53.65625 15.1875 63.9375 
Q 23.390625 74.21875 37.203125 74.21875 
Q 40.921875 74.21875 44.703125 73.484375 
Q 48.484375 72.75 52.59375 71.296875 
z
" id="DejaVuSans-36"/>
      </defs>
      <g transform="translate(350.332264 527.238438)scale(0.1 -0.1)">
       <use xlink:href="#DejaVuSans-36"/>
      </g>
     </g>
    </g>
    <g id="xtick_5">
     <g id="line2d_5">
      <g>
       <use style="stroke:#000000;stroke-width:0.8;" x="433.945946" xlink:href="#mef3f8aecf1" y="512.64"/>
      </g>
     </g>
     <g id="text_5">
      <!-- 8 -->
      <defs>
       <path d="M 31.78125 34.625 
Q 24.75 34.625 20.71875 30.859375 
Q 16.703125 27.09375 16.703125 20.515625 
Q 16.703125 13.921875 20.71875 10.15625 
Q 24.75 6.390625 31.78125 6.390625 
Q 38.8125 6.390625 42.859375 10.171875 
Q 46.921875 13.96875 46.921875 20.515625 
Q 46.921875 27.09375 42.890625 30.859375 
Q 38.875 34.625 31.78125 34.625 
z
M 21.921875 38.8125 
Q 15.578125 40.375 12.03125 44.71875 
Q 8.5 49.078125 8.5 55.328125 
Q 8.5 64.0625 14.71875 69.140625 
Q 20.953125 74.21875 31.78125 74.21875 
Q 42.671875 74.21875 48.875 69.140625 
Q 55.078125 64.0625 55.078125 55.328125 
Q 55.078125 49.078125 51.53125 44.71875 
Q 48 40.375 41.703125 38.8125 
Q 48.828125 37.15625 52.796875 32.3125 
Q 56.78125 27.484375 56.78125 20.515625 
Q 56.78125 9.90625 50.3125 4.234375 
Q 43.84375 -1.421875 31.78125 -1.421875 
Q 19.734375 -1.421875 13.25 4.234375 
Q 6.78125 9.90625 6.78125 20.515625 
Q 6.78125 27.484375 10.78125 32.3125 
Q 14.796875 37.15625 21.921875 38.8125 
z
M 18.3125 54.390625 
Q 18.3125 48.734375 21.84375 45.5625 
Q 25.390625 42.390625 31.78125 42.390625 
Q 38.140625 42.390625 41.71875 45.5625 
Q 45.3125 48.734375 45.3125 54.390625 
Q 45.3125 60.0625 41.71875 63.234375 
Q 38.140625 66.40625 31.78125 66.40625 
Q 25.390625 66.40625 21.84375 63.234375 
Q 18.3125 60.0625 18.3125 54.390625 
z
" id="DejaVuSans-38"/>
      </defs>
      <g transform="translate(430.764696 527.238438)scale(0.1 -0.1)">
       <use xlink:href="#DejaVuSans-38"/>
      </g>
     </g>
    </g>
    <g id="xtick_6">
     <g id="line2d_6">
      <g>
       <use style="stroke:#000000;stroke-width:0.8;" x="514.378378" xlink:href="#mef3f8aecf1" y="512.64"/>
      </g>
     </g>
     <g id="text_6">
      <!-- 10 -->
      <defs>
       <path d="M 12.40625 8.296875 
L 28.515625 8.296875 
L 28.515625 63.921875 
L 10.984375 60.40625 
L 10.984375 69.390625 
L 28.421875 72.90625 
L 38.28125 72.90625 
L 38.28125 8.296875 
L 54.390625 8.296875 
L 54.390625 0 
L 12.40625 0 
z
" id="DejaVuSans-31"/>
      </defs>
      <g transform="translate(508.015878 527.238438)scale(0.1 -0.1)">
       <use xlink:href="#DejaVuSans-31"/>
       <use x="63.623047" xlink:href="#DejaVuSans-30"/>
      </g>
     </g>
    </g>
   </g>
   <g id="matplotlib.axis_2">
    <g id="ytick_1">
     <g id="line2d_7">
      <defs>
       <path d="M 0 0 
L -3.5 0 
" id="m2103602830" style="stroke:#000000;stroke-width:0.8;"/>
      </defs>
      <g>
       <use style="stroke:#000000;stroke-width:0.8;" x="72" xlink:href="#m2103602830" y="473.863784"/>
      </g>
     </g>
     <g id="text_7">
      <!-- 0 -->
      <g transform="translate(58.6375 477.663003)scale(0.1 -0.1)">
       <use xlink:href="#DejaVuSans-30"/>
      </g>
     </g>
    </g>
    <g id="ytick_2">
     <g id="line2d_8">
      <g>
       <use style="stroke:#000000;stroke-width:0.8;" x="72" xlink:href="#m2103602830" y="393.431351"/>
      </g>
     </g>
     <g id="text_8">
      <!-- 2 -->
      <g transform="translate(58.6375 397.23057)scale(0.1 -0.1)">
       <use xlink:href="#DejaVuSans-32"/>
      </g>
     </g>
    </g>
    <g id="ytick_3">
     <g id="line2d_9">
      <g>
       <use style="stroke:#000000;stroke-width:0.8;" x="72" xlink:href="#m2103602830" y="312.998919"/>
      </g>
     </g>
     <g id="text_9">
      <!-- 4 -->
      <g transform="translate(58.6375 316.798138)scale(0.1 -0.1)">
       <use xlink:href="#DejaVuSans-34"/>
      </g>
     </g>
    </g>
    <g id="ytick_4">
     <g id="line2d_10">
      <g>
       <use style="stroke:#000000;stroke-width:0.8;" x="72" xlink:href="#m2103602830" y="232.566486"/>
      </g>
     </g>
     <g id="text_10">
      <!-- 6 -->
      <g transform="translate(58.6375 236.365705)scale(0.1 -0.1)">
       <use xlink:href="#DejaVuSans-36"/>
      </g>
     </g>
    </g>
    <g id="ytick_5">
     <g id="line2d_11">
      <g>
       <use style="stroke:#000000;stroke-width:0.8;" x="72" xlink:href="#m2103602830" y="152.134054"/>
      </g>
     </g>
     <g id="text_11">
      <!-- 8 -->
      <g transform="translate(58.6375 155.933273)scale(0.1 -0.1)">
       <use xlink:href="#DejaVuSans-38"/>
      </g>
     </g>
    </g>
    <g id="ytick_6">
     <g id="line2d_12">
      <g>
       <use style="stroke:#000000;stroke-width:0.8;" x="72" xlink:href="#m2103602830" y="71.701622"/>
      </g>
     </g>
     <g id="text_12">
      <!-- 10 -->
      <g transform="translate(52.275 75.50084)scale(0.1 -0.1)">
       <use xlink:href="#DejaVuSans-31"/>
       <use x="63.623047" xlink:href="#DejaVuSans-30"/>
      </g>
     </g>
    </g>
   </g>
   <g id="line2d_13">
    <path clip-path="url(#p046f46d39f)" d="M 140.367568 389.40973 
" style="fill:none;stroke:#1f77b4;stroke-linecap:square;stroke-width:1.5;"/>
    <defs>
     <path d="M -5 5 
L 5 5 
L 5 -5 
L -5 -5 
z
" id="m1679585a06" style="stroke:#8000ff;stroke-linejoin:miter;"/>
    </defs>
    <g clip-path="url(#p046f46d39f)">
     <use style="fill:#8000ff;stroke:#8000ff;stroke-linejoin:miter;" x="140.367568" xlink:href="#m1679585a06" y="389.40973"/>
    </g>
   </g>
   <g id="line2d_14">
    <path clip-path="url(#p046f46d39f)" d="M 393.72973 192.35027 
" style="fill:none;stroke:#ff7f0e;stroke-linecap:square;stroke-width:1.5;"/>
    <defs>
     <path d="M 0 -5 
L -4.755283 -1.545085 
L -2.938926 4.045085 
L 2.938926 4.045085 
L 4.755283 -1.545085 
z
" id="m62ffb93f6a" style="stroke:#8000ff;stroke-linejoin:miter;"/>
    </defs>
    <g clip-path="url(#p046f46d39f)">
     <use style="fill:#8000ff;stroke:#8000ff;stroke-linejoin:miter;" x="393.72973" xlink:href="#m62ffb93f6a" y="192.35027"/>
    </g>
   </g>
   <g id="line2d_15">
    <path clip-path="url(#p046f46d39f)" d="M 450.032432 192.35027 
" style="fill:none;stroke:#2ca02c;stroke-linecap:square;stroke-width:1.5;"/>
    <defs>
     <path d="M -5 5 
L 5 5 
L 5 -5 
L -5 -5 
z
" id="m5d00e99d28" style="stroke:#4757fb;stroke-linejoin:miter;"/>
    </defs>
    <g clip-path="url(#p046f46d39f)">
     <use style="fill:#4757fb;stroke:#4757fb;stroke-linejoin:miter;" x="450.032432" xlink:href="#m5d00e99d28" y="192.35027"/>
    </g>
   </g>
   <g id="line2d_16">
    <path clip-path="url(#p046f46d39f)" d="M 224.821622 361.258378 
" style="fill:none;stroke:#d62728;stroke-linecap:square;stroke-width:1.5;"/>
    <defs>
     <path d="M 0 -5 
L -4.755283 -1.545085 
L -2.938926 4.045085 
L 2.938926 4.045085 
L 4.755283 -1.545085 
z
" id="mc5769b836e" style="stroke:#4757fb;stroke-linejoin:miter;"/>
    </defs>
    <g clip-path="url(#p046f46d39f)">
     <use style="fill:#4757fb;stroke:#4757fb;stroke-linejoin:miter;" x="224.821622" xlink:href="#mc5769b836e" y="361.258378"/>
    </g>
   </g>
   <g id="line2d_17">
    <path clip-path="url(#p046f46d39f)" d="M 402.175135 440.082162 
" style="fill:none;stroke:#9467bd;stroke-linecap:square;stroke-width:1.5;"/>
    <defs>
     <path d="M -5 5 
L 5 5 
L 5 -5 
L -5 -5 
z
" id="m85cba4a91d" style="stroke:#0ea4f0;stroke-linejoin:miter;"/>
    </defs>
    <g clip-path="url(#p046f46d39f)">
     <use style="fill:#0ea4f0;stroke:#0ea4f0;stroke-linejoin:miter;" x="402.175135" xlink:href="#m85cba4a91d" y="440.082162"/>
    </g>
   </g>
   <g id="line2d_18">
    <path clip-path="url(#p046f46d39f)" d="M 224.821622 192.35027 
" style="fill:none;stroke:#8c564b;stroke-linecap:square;stroke-width:1.5;"/>
    <defs>
     <path d="M 0 -5 
L -4.755283 -1.545085 
L -2.938926 4.045085 
L 2.938926 4.045085 
L 4.755283 -1.545085 
z
" id="m584979699c" style="stroke:#0ea4f0;stroke-linejoin:miter;"/>
    </defs>
    <g clip-path="url(#p046f46d39f)">
     <use style="fill:#0ea4f0;stroke:#0ea4f0;stroke-linejoin:miter;" x="224.821622" xlink:href="#m584979699c" y="192.35027"/>
    </g>
   </g>
   <g id="line2d_19">
    <path clip-path="url(#p046f46d39f)" d="M 224.821622 136.047568 
" style="fill:none;stroke:#e377c2;stroke-linecap:square;stroke-width:1.5;"/>
    <defs>
     <path d="M -5 5 
L 5 5 
L 5 -5 
L -5 -5 
z
" id="m0dffd7a9fe" style="stroke:#2adddd;stroke-linejoin:miter;"/>
    </defs>
    <g clip-path="url(#p046f46d39f)">
     <use style="fill:#2adddd;stroke:#2adddd;stroke-linejoin:miter;" x="224.821622" xlink:href="#m0dffd7a9fe" y="136.047568"/>
    </g>
   </g>
   <g id="line2d_20">
    <path clip-path="url(#p046f46d39f)" d="M 393.72973 361.258378 
" style="fill:none;stroke:#7f7f7f;stroke-linecap:square;stroke-width:1.5;"/>
    <defs>
     <path d="M 0 -5 
L -4.755283 -1.545085 
L -2.938926 4.045085 
L 2.938926 4.045085 
L 4.755283 -1.545085 
z
" id="m33b1f18c49" style="stroke:#2adddd;stroke-linejoin:miter;"/>
    </defs>
    <g clip-path="url(#p046f46d39f)">
     <use style="fill:#2adddd;stroke:#2adddd;stroke-linejoin:miter;" x="393.72973" xlink:href="#m33b1f18c49" y="361.258378"/>
    </g>
   </g>
   <g id="line2d_21">
    <path clip-path="url(#p046f46d39f)" d="M 450.032432 304.955676 
" style="fill:none;stroke:#bcbd22;stroke-linecap:square;stroke-width:1.5;"/>
    <defs>
     <path d="M -5 5 
L 5 5 
L 5 -5 
L -5 -5 
z
" id="m7f71d43650" style="stroke:#63fbc3;stroke-linejoin:miter;"/>
    </defs>
    <g clip-path="url(#p046f46d39f)">
     <use style="fill:#63fbc3;stroke:#63fbc3;stroke-linejoin:miter;" x="450.032432" xlink:href="#m7f71d43650" y="304.955676"/>
    </g>
   </g>
   <g id="line2d_22">
    <path clip-path="url(#p046f46d39f)" d="M 196.67027 248.652973 
" style="fill:none;stroke:#17becf;stroke-linecap:square;stroke-width:1.5;"/>
    <defs>
     <path d="M 0 -5 
L -4.755283 -1.545085 
L -2.938926 4.045085 
L 2.938926 4.045085 
L 4.755283 -1.545085 
z
" id="mb103f55e3d" style="stroke:#63fbc3;stroke-linejoin:miter;"/>
    </defs>
    <g clip-path="url(#p046f46d39f)">
     <use style="fill:#63fbc3;stroke:#63fbc3;stroke-linejoin:miter;" x="196.67027" xlink:href="#mb103f55e3d" y="248.652973"/>
    </g>
   </g>
   <g id="line2d_23">
    <path clip-path="url(#p046f46d39f)" d="M 140.367568 248.652973 
" style="fill:none;stroke:#1f77b4;stroke-linecap:square;stroke-width:1.5;"/>
    <defs>
     <path d="M -5 5 
L 5 5 
L 5 -5 
L -5 -5 
z
" id="m30c01ec67c" style="stroke:#9cfba4;stroke-linejoin:miter;"/>
    </defs>
    <g clip-path="url(#p046f46d39f)">
     <use style="fill:#9cfba4;stroke:#9cfba4;stroke-linejoin:miter;" x="140.367568" xlink:href="#m30c01ec67c" y="248.652973"/>
    </g>
   </g>
   <g id="line2d_24">
    <path clip-path="url(#p046f46d39f)" d="M 393.72973 276.804324 
" style="fill:none;stroke:#ff7f0e;stroke-linecap:square;stroke-width:1.5;"/>
    <defs>
     <path d="M 0 -5 
L -4.755283 -1.545085 
L -2.938926 4.045085 
L 2.938926 4.045085 
L 4.755283 -1.545085 
z
" id="m38542b903f" style="stroke:#9cfba4;stroke-linejoin:miter;"/>
    </defs>
    <g clip-path="url(#p046f46d39f)">
     <use style="fill:#9cfba4;stroke:#9cfba4;stroke-linejoin:miter;" x="393.72973" xlink:href="#m38542b903f" y="276.804324"/>
    </g>
   </g>
   <g id="line2d_25">
    <path clip-path="url(#p046f46d39f)" d="M 281.124324 192.35027 
" style="fill:none;stroke:#2ca02c;stroke-linecap:square;stroke-width:1.5;"/>
    <defs>
     <path d="M -5 5 
L 5 5 
L 5 -5 
L -5 -5 
z
" id="mf49299ff40" style="stroke:#d4dd80;stroke-linejoin:miter;"/>
    </defs>
    <g clip-path="url(#p046f46d39f)">
     <use style="fill:#d4dd80;stroke:#d4dd80;stroke-linejoin:miter;" x="281.124324" xlink:href="#mf49299ff40" y="192.35027"/>
    </g>
   </g>
   <g id="line2d_26">
    <path clip-path="url(#p046f46d39f)" d="M 281.124324 333.107027 
" style="fill:none;stroke:#d62728;stroke-linecap:square;stroke-width:1.5;"/>
    <defs>
     <path d="M 0 -5 
L -4.755283 -1.545085 
L -2.938926 4.045085 
L 2.938926 4.045085 
L 4.755283 -1.545085 
z
" id="m677d433040" style="stroke:#d4dd80;stroke-linejoin:miter;"/>
    </defs>
    <g clip-path="url(#p046f46d39f)">
     <use style="fill:#d4dd80;stroke:#d4dd80;stroke-linejoin:miter;" x="281.124324" xlink:href="#m677d433040" y="333.107027"/>
    </g>
   </g>
   <g id="line2d_27">
    <path clip-path="url(#p046f46d39f)" d="M 140.367568 304.955676 
" style="fill:none;stroke:#9467bd;stroke-linecap:square;stroke-width:1.5;"/>
    <defs>
     <path d="M -5 5 
L 5 5 
L 5 -5 
L -5 -5 
z
" id="m1fd5885956" style="stroke:#ffa457;stroke-linejoin:miter;"/>
    </defs>
    <g clip-path="url(#p046f46d39f)">
     <use style="fill:#ffa457;stroke:#ffa457;stroke-linejoin:miter;" x="140.367568" xlink:href="#m1fd5885956" y="304.955676"/>
    </g>
   </g>
   <g id="line2d_28">
    <path clip-path="url(#p046f46d39f)" d="M 309.275676 276.804324 
" style="fill:none;stroke:#8c564b;stroke-linecap:square;stroke-width:1.5;"/>
    <defs>
     <path d="M 0 -5 
L -4.755283 -1.545085 
L -2.938926 4.045085 
L 2.938926 4.045085 
L 4.755283 -1.545085 
z
" id="mccabeb27e6" style="stroke:#ffa457;stroke-linejoin:miter;"/>
    </defs>
    <g clip-path="url(#p046f46d39f)">
     <use style="fill:#ffa457;stroke:#ffa457;stroke-linejoin:miter;" x="309.275676" xlink:href="#mccabeb27e6" y="276.804324"/>
    </g>
   </g>
   <g id="line2d_29">
    <path clip-path="url(#p046f46d39f)" d="M 393.72973 220.501622 
" style="fill:none;stroke:#e377c2;stroke-linecap:square;stroke-width:1.5;"/>
    <defs>
     <path d="M -5 5 
L 5 5 
L 5 -5 
L -5 -5 
z
" id="m1762c2f594" style="stroke:#ff572c;stroke-linejoin:miter;"/>
    </defs>
    <g clip-path="url(#p046f46d39f)">
     <use style="fill:#ff572c;stroke:#ff572c;stroke-linejoin:miter;" x="393.72973" xlink:href="#m1762c2f594" y="220.501622"/>
    </g>
   </g>
   <g id="line2d_30">
    <path clip-path="url(#p046f46d39f)" d="M 140.367568 276.804324 
" style="fill:none;stroke:#7f7f7f;stroke-linecap:square;stroke-width:1.5;"/>
    <defs>
     <path d="M 0 -5 
L -4.755283 -1.545085 
L -2.938926 4.045085 
L 2.938926 4.045085 
L 4.755283 -1.545085 
z
" id="mb1396a88e4" style="stroke:#ff572c;stroke-linejoin:miter;"/>
    </defs>
    <g clip-path="url(#p046f46d39f)">
     <use style="fill:#ff572c;stroke:#ff572c;stroke-linejoin:miter;" x="140.367568" xlink:href="#mb1396a88e4" y="276.804324"/>
    </g>
   </g>
   <g id="line2d_31">
    <path clip-path="url(#p046f46d39f)" d="M 140.367568 136.047568 
" style="fill:none;stroke:#bcbd22;stroke-linecap:square;stroke-width:1.5;"/>
    <defs>
     <path d="M -5 5 
L 5 5 
L 5 -5 
L -5 -5 
z
" id="mc33a135b02" style="stroke:#ff0000;stroke-linejoin:miter;"/>
    </defs>
    <g clip-path="url(#p046f46d39f)">
     <use style="fill:#ff0000;stroke:#ff0000;stroke-linejoin:miter;" x="140.367568" xlink:href="#mc33a135b02" y="136.047568"/>
    </g>
   </g>
   <g id="line2d_32">
    <path clip-path="url(#p046f46d39f)" d="M 252.972973 248.652973 
" style="fill:none;stroke:#17becf;stroke-linecap:square;stroke-width:1.5;"/>
    <defs>
     <path d="M 0 -5 
L -4.755283 -1.545085 
L -2.938926 4.045085 
L 2.938926 4.045085 
L 4.755283 -1.545085 
z
" id="mf748620e99" style="stroke:#ff0000;stroke-linejoin:miter;"/>
    </defs>
    <g clip-path="url(#p046f46d39f)">
     <use style="fill:#ff0000;stroke:#ff0000;stroke-linejoin:miter;" x="252.972973" xlink:href="#mf748620e99" y="248.652973"/>
    </g>
   </g>
   <g id="line2d_33"/>
   <g id="line2d_34">
    <path clip-path="url(#p046f46d39f)" d="M 92.108108 493.971892 
L 92.108108 87.788108 
" style="fill:none;stroke:#000000;stroke-linecap:square;stroke-width:4;"/>
   </g>
   <g id="line2d_35">
    <path clip-path="url(#p046f46d39f)" d="M 92.108108 87.788108 
L 498.291892 87.788108 
" style="fill:none;stroke:#000000;stroke-linecap:square;stroke-width:4;"/>
   </g>
   <g id="line2d_36">
    <path clip-path="url(#p046f46d39f)" d="M 498.291892 87.788108 
L 498.291892 493.971892 
" style="fill:none;stroke:#000000;stroke-linecap:square;stroke-width:4;"/>
   </g>
   <g id="line2d_37">
    <path clip-path="url(#p046f46d39f)" d="M 498.291892 493.971892 
L 92.108108 493.971892 
" style="fill:none;stroke:#000000;stroke-linecap:square;stroke-width:4;"/>
   </g>
   <g id="line2d_38">
    <path clip-path="url(#p046f46d39f)" d="M 140.367568 389.40973 
L 140.930595 389.40973 
L 142.056649 389.289081 
L 143.544649 388.927135 
L 145.354378 387.961946 
L 146.681514 386.755459 
L 149.05427 383.337081 
L 150.662919 381.808865 
L 152.392216 380.883892 
L 154.483459 380.240432 
L 156.172541 379.83827 
L 157.98227 378.913297 
L 159.309405 377.747027 
L 160.395243 376.259027 
L 161.400649 374.690595 
L 162.727784 373.242811 
L 164.336432 372.156973 
L 166.226595 371.352649 
L 168.156973 370.709189 
L 169.604757 370.025514 
L 171.012324 368.899459 
L 172.299243 367.290811 
L 173.264432 365.802811 
L 174.269838 364.515892 
L 175.757838 363.269189 
L 177.205622 362.464865 
L 178.81427 361.861622 
L 180.422919 361.13773 
L 181.870703 360.051892 
L 183.036973 358.724757 
L 184.042378 357.116108 
L 185.490162 355.266162 
L 187.219459 353.858595 
L 188.948757 353.014054 
L 190.517189 352.491243 
L 192.326919 351.646703 
L 193.734486 350.560865 
L 195.061622 348.912 
L 196.026811 347.424 
L 197.31373 345.936 
L 198.882162 344.809946 
L 200.772324 343.925189 
L 202.742919 343.28173 
L 204.472216 342.477405 
L 205.879784 341.391568 
L 207.08627 340.024216 
L 208.131892 338.496 
L 209.378595 337.048216 
L 210.987243 335.881946 
L 212.998054 334.956973 
L 214.687135 334.313514 
L 216.255568 333.428757 
L 217.783784 332.061405 
L 219.63373 329.206054 
L 221.161946 327.396324 
L 222.489081 326.390919 
L 226.229189 324.621405 
L 227.958486 323.535568 
L 229.245405 322.248649 
L 231.296432 319.433514 
L 232.704 318.106378 
L 234.634378 316.980324 
L 238.776649 315.572757 
L 240.747243 314.36627 
L 242.034162 313.079351 
L 243.401514 311.39027 
L 244.567784 310.143568 
L 246.176432 309.017514 
L 247.704649 308.374054 
L 249.594811 308.012108 
L 253.334919 307.971892 
L 255.104432 307.690378 
L 256.552216 307.127351 
L 258.040216 306.121946 
L 260.935784 303.829622 
L 262.825946 302.743784 
L 264.555243 302.301405 
L 266.083459 302.261189 
L 267.732324 302.542703 
L 269.58227 303.145946 
L 270.064865 303.145946 
L 270.748541 302.985081 
L 271.512649 302.623135 
L 272.196324 302.019892 
L 272.719135 301.296 
L 273.040865 300.531892 
L 273.20173 299.446054 
L 273.121297 298.360216 
L 272.678919 296.389622 
L 272.638703 295.705946 
L 272.719135 295.02227 
L 273.322378 293.735351 
L 273.684324 292.247351 
L 273.724541 290.638703 
L 273.241946 287.340973 
L 273.282162 286.898595 
L 273.443027 286.496432 
L 274.04627 285.692108 
L 275.011459 284.928 
L 276.780973 284.324757 
L 281.084108 284.083459 
L 282.773189 283.641081 
L 283.979676 282.997622 
L 285.10573 281.952 
L 286.151351 280.423784 
L 286.272 280.061838 
L 286.151351 279.539027 
L 285.829622 278.976 
L 285.266595 278.332541 
L 283.577514 277.286919 
L 282.97427 276.844541 
L 282.934054 276.603243 
L 283.014486 276.32173 
L 283.376432 275.718486 
L 283.939459 275.115243 
L 285.588324 273.747892 
L 285.910054 272.903351 
L 285.910054 272.259892 
L 285.708973 271.455568 
L 284.301405 268.157838 
L 284.46227 267.836108 
L 285.065514 267.232865 
L 285.869838 266.710054 
L 286.633946 266.508973 
L 287.719784 267.313297 
L 288.403459 267.594811 
L 289.811027 267.675243 
L 291.701189 267.232865 
L 293.510919 266.75027 
L 294.275027 266.75027 
L 295.2 266.951351 
L 296.527135 267.635027 
L 298.980324 269.484973 
L 300.227027 270.249081 
L 301.111784 270.651243 
L 301.916108 270.771892 
L 302.881297 270.691459 
L 303.967135 270.329514 
L 305.29427 269.444757 
L 307.345297 267.313297 
L 308.712649 265.865514 
L 310.160432 264.618811 
L 311.769081 263.532973 
L 316.152649 260.959135 
L 317.721081 259.792865 
L 321.461189 256.495135 
L 328.860973 249.939892 
L 340.483459 239.644541 
L 342.936649 237.472865 
L 366.583784 216.439784 
L 369.318486 214.067027 
L 381.82573 202.927135 
L 383.957189 201.077189 
L 386.651676 198.664216 
L 392.442811 193.516541 
L 392.442811 193.516541 
" style="fill:none;stroke:#8000ff;stroke-linecap:square;stroke-width:1.5;"/>
   </g>
   <g id="line2d_39">
    <path clip-path="url(#p046f46d39f)" d="M 450.032432 192.35027 
L 450.233514 192.430703 
L 450.354162 192.551351 
L 450.394378 192.672 
L 450.354162 193.476324 
L 449.992216 195.004541 
L 449.107459 196.733838 
L 447.659676 198.422919 
L 445.80973 199.709838 
L 443.798919 200.473946 
L 441.989189 200.996757 
L 440.380541 201.720649 
L 438.972973 202.806486 
L 437.766486 204.214054 
L 436.56 205.983568 
L 435.232865 207.431351 
L 433.664432 208.557405 
L 431.894919 209.36173 
L 429.763459 210.045405 
L 428.074378 210.769297 
L 426.626595 211.855135 
L 425.379892 213.222486 
L 423.369081 215.836541 
L 421.840865 217.123459 
L 419.87027 218.128865 
L 416.009514 219.415784 
L 414.360649 220.340757 
L 412.872649 221.748324 
L 410.419459 225.367784 
L 408.810811 227.016649 
L 407.161946 228.022054 
L 402.215351 229.952432 
L 400.727351 230.998054 
L 399.480649 232.325189 
L 398.354595 233.813189 
L 396.826378 235.381622 
L 395.459027 236.306595 
L 392.000432 237.714162 
L 390.432 238.558703 
L 389.104865 239.765189 
L 387.053838 242.258595 
L 385.404973 243.827027 
L 383.715892 244.792216 
L 380.056216 246.24 
L 378.487784 247.245405 
L 377.200865 248.451892 
L 375.994378 249.939892 
L 374.546595 251.508324 
L 372.978162 252.674595 
L 368.112 254.966919 
L 366.624 255.972324 
L 365.055568 257.460324 
L 363.607784 258.988541 
L 362.200216 260.275459 
L 360.832865 261.200432 
L 358.86227 262.205838 
L 353.593946 264.337297 
L 350.859243 265.865514 
L 348.647351 267.433946 
L 345.389838 270.088216 
L 343.258378 272.018595 
L 340.885622 274.431568 
L 337.386811 278.332541 
L 333.56627 283.11827 
L 331.153297 286.013838 
L 328.941405 288.386595 
L 326.327351 290.920216 
L 323.230703 293.654919 
L 323.029622 293.614703 
L 322.748108 293.453838 
L 322.225297 292.971243 
L 321.622054 292.04627 
L 320.978595 290.397405 
L 321.139459 290.518054 
L 321.219892 290.55827 
L 320.898162 290.518054 
L 320.335135 290.55827 
L 319.088432 291.161514 
L 316.635243 293.494054 
L 315.629838 293.494054 
L 315.107027 293.654919 
L 314.544 293.976649 
L 313.940757 294.539676 
L 313.498378 295.223351 
L 313.257081 295.826595 
L 313.136432 296.630919 
L 313.257081 297.435243 
L 313.619027 298.440649 
L 314.584216 300.12973 
L 314.785297 300.853622 
L 314.825514 301.657946 
L 314.584216 302.582919 
L 314.101622 303.467676 
L 313.297297 304.392649 
L 312.010378 305.317622 
L 309.114811 306.725189 
L 307.787676 307.368649 
L 305.052973 309.138162 
L 298.940108 313.481514 
L 294.838054 316.055351 
L 290.695784 318.749838 
L 288.92627 319.755243 
L 287.357838 320.398703 
L 285.467676 320.841081 
L 280.159135 321.645405 
L 278.188541 322.128 
L 264.716108 325.42573 
L 260.573838 327.114811 
L 257.316324 328.844108 
L 253.777297 331.136432 
L 252.048 332.423351 
L 248.267676 335.52 
L 244.085189 339.501405 
L 240.707027 342.96 
L 238.33427 345.533838 
L 225.706378 359.891027 
L 225.706378 359.891027 
" style="fill:none;stroke:#4757fb;stroke-linecap:square;stroke-width:1.5;"/>
   </g>
   <g id="line2d_40">
    <path clip-path="url(#p046f46d39f)" d="M 402.175135 440.082162 
L 401.974054 440.162595 
L 401.853405 440.283243 
L 401.974054 439.881081 
L 402.054486 437.990919 
L 401.652324 436.020324 
L 400.968649 434.612757 
L 399.882811 433.205189 
L 398.233946 431.837838 
L 396.464432 430.631351 
L 394.775351 429.022703 
L 393.568865 427.132541 
L 391.638486 422.185946 
L 390.351568 420.617514 
L 387.053838 418.325189 
L 385.485405 416.756757 
L 384.600649 415.349189 
L 383.997405 413.861189 
L 383.31373 411.850378 
L 382.268108 410.121081 
L 380.780108 408.713514 
L 377.603027 406.823351 
L 376.155243 405.496216 
L 375.190054 404.128865 
L 374.466162 402.640865 
L 373.74227 400.589838 
L 372.978162 398.981189 
L 371.892324 397.533405 
L 370.524973 396.326919 
L 368.916324 395.120432 
L 367.468541 393.712865 
L 366.382703 392.064 
L 365.055568 388.524973 
L 363.96973 386.675027 
L 362.521946 385.227243 
L 359.425297 383.055568 
L 357.977514 381.366486 
L 357.012324 379.355676 
L 356.248216 376.178595 
L 355.524324 374.52973 
L 354.277622 372.921081 
L 350.215784 369.542919 
L 349.08973 367.894054 
L 348.365838 366.124541 
L 347.762595 364.355027 
L 346.95827 362.746378 
L 345.872432 361.338811 
L 342.775784 358.885622 
L 341.247568 357.236757 
L 340.322595 355.507459 
L 339.035676 351.928216 
L 338.271568 350.440216 
L 337.18573 349.032649 
L 334.169514 346.378378 
L 332.882595 344.930595 
L 331.997838 343.523027 
L 330.348973 339.903568 
L 329.222919 338.17427 
L 327.976216 336.766703 
L 325.482811 334.273297 
L 324.437189 332.986378 
L 322.265514 329.24627 
L 321.380757 327.637622 
L 320.17427 325.868108 
L 316.715676 321.766054 
L 314.584216 318.629189 
L 312.452757 315.251027 
L 309.718054 311.189189 
L 309.516973 310.54573 
L 309.999568 309.701189 
L 310.40173 309.299027 
L 311.045189 309.05773 
L 311.206054 309.178378 
L 311.447351 309.500108 
L 311.688649 310.183784 
L 311.809297 311.108757 
L 311.608216 312.355459 
L 311.608216 312.355459 
L 311.366919 312.636973 
L 310.281081 312.797838 
L 309.557189 312.677189 
L 308.592 312.315243 
L 306.339892 311.229405 
L 305.133405 310.867459 
L 303.564973 310.706595 
L 299.865081 310.787027 
L 297.85427 310.505514 
L 297.210811 310.183784 
L 296.446703 309.620757 
L 295.52173 308.494703 
L 294.636973 306.684973 
L 293.350054 303.266595 
L 292.384865 301.818811 
L 291.05773 300.612324 
L 289.489297 299.727568 
L 284.46227 297.917838 
L 283.698162 297.395027 
L 281.968865 295.826595 
L 281.084108 295.02227 
L 280.038486 294.258162 
L 277.866811 293.212541 
L 276.499459 292.609297 
L 275.252757 291.845189 
L 273.362595 290.196324 
L 271.512649 288.426811 
L 269.461622 286.858378 
L 267.088865 284.968216 
L 266.003027 283.801946 
L 263.429189 280.383568 
L 258.522811 273.788108 
L 256.713081 270.409946 
L 255.667459 268.157838 
L 252.932757 261.843892 
L 252.048 258.626595 
L 251.605622 257.661405 
L 251.002378 256.615784 
L 248.710054 253.519135 
L 248.227459 252.553946 
L 247.624216 250.784432 
L 247.382919 248.572541 
L 246.940541 242.94227 
L 246.498162 242.09773 
L 246.096 241.695568 
L 245.573189 241.333622 
L 244.125405 240.810811 
L 242.436324 240.649946 
L 241.068973 240.60973 
L 232.422486 241.052108 
L 228.56173 240.770595 
L 226.631351 240.408649 
L 225.384649 240.086919 
L 224.017297 239.604324 
L 222.730378 239.001081 
L 221.443459 238.277189 
L 219.030486 236.507676 
L 216.858811 234.336 
L 215.933838 233.16973 
L 215.089297 231.923027 
L 214.083892 229.872 
L 213.601297 228.504649 
L 213.118703 226.735135 
L 212.837189 224.643892 
L 212.716541 223.356973 
L 212.796973 220.099459 
L 213.158919 217.445189 
L 213.882811 214.388757 
L 214.606703 212.056216 
L 216.778378 206.908541 
L 218.306595 203.610811 
L 220.47827 199.307676 
L 223.695568 193.114378 
L 223.695568 193.114378 
" style="fill:none;stroke:#0ea4f0;stroke-linecap:square;stroke-width:1.5;"/>
   </g>
   <g id="line2d_41">
    <path clip-path="url(#p046f46d39f)" d="M 224.821622 136.047568 
L 225.58573 136.047568 
L 226.591135 136.168216 
L 228.481297 136.691027 
L 230.210595 137.616 
L 231.819243 139.104 
L 233.02573 141.034378 
L 234.393081 145.257081 
L 235.318054 146.785297 
L 236.765838 148.273297 
L 239.460324 149.962378 
L 240.867892 151.168865 
L 242.034162 152.737297 
L 242.717838 154.185081 
L 243.522162 156.356757 
L 244.366703 158.12627 
L 245.532973 159.493622 
L 248.790486 161.946811 
L 250.157838 163.314162 
L 251.283892 165.244541 
L 252.570811 169.225946 
L 253.576216 171.236757 
L 254.943568 172.764973 
L 257.67827 174.735568 
L 259.206486 176.223568 
L 260.372757 178.153946 
L 261.498811 181.692973 
L 262.303135 183.261405 
L 263.63027 184.829838 
L 266.968216 187.162378 
L 268.657297 188.690595 
L 269.702919 190.379676 
L 271.07027 194.16 
L 271.955027 195.728432 
L 273.161514 197.095784 
L 274.287568 198.020757 
L 276.016865 199.267459 
L 277.142919 200.473946 
L 278.188541 202.122811 
L 279.636324 205.661838 
L 280.64173 207.431351 
L 282.009081 208.959568 
L 284.944865 211.251892 
L 286.392649 212.940973 
L 287.277405 214.67027 
L 288.604541 218.088649 
L 289.931676 220.019027 
L 291.419676 221.426595 
L 293.872865 223.075459 
L 295.923892 224.24173 
L 299.865081 225.890595 
L 301.513946 226.815568 
L 303.001946 228.022054 
L 304.168216 229.268757 
L 307.465946 233.451243 
L 310.803892 237.312 
L 313.257081 240.489081 
L 323.069838 254.484324 
L 325.241514 256.857081 
L 328.539243 259.833081 
L 330.871784 261.964541 
L 332.963027 264.055784 
L 336.059676 267.635027 
L 340.322595 272.662054 
L 347.60173 279.860757 
L 349.773405 282.635676 
L 351.502703 285.048649 
L 354.277622 289.271351 
L 356.248216 292.729946 
L 361.958919 303.145946 
L 393.046054 359.971459 
L 393.046054 359.971459 
" style="fill:none;stroke:#2adddd;stroke-linecap:square;stroke-width:1.5;"/>
   </g>
   <g id="line2d_42">
    <path clip-path="url(#p046f46d39f)" d="M 450.032432 304.955676 
L 449.831351 305.036108 
L 449.670486 305.317622 
L 449.670486 305.398054 
L 449.590054 305.196973 
L 448.825946 304.111135 
L 447.337946 302.864432 
L 445.970595 302.180757 
L 444.241297 301.738378 
L 442.150054 301.698162 
L 440.340324 301.899243 
L 438.128432 301.979676 
L 435.916541 301.497081 
L 434.187243 300.692757 
L 432.337297 299.606919 
L 430.688432 298.883027 
L 428.717838 298.561297 
L 427.189622 298.601514 
L 425.339676 298.802595 
L 423.409297 298.681946 
L 421.277838 298.038486 
L 418.020324 296.148324 
L 416.331243 295.545081 
L 414.320432 295.303784 
L 412.470486 295.464649 
L 410.540108 295.746162 
L 408.569514 295.705946 
L 406.920649 295.344 
L 405.110919 294.579892 
L 403.462054 293.735351 
L 401.451243 293.011459 
L 399.158919 292.770162 
L 396.022054 293.091892 
L 394.694919 293.051676 
L 392.764541 292.649514 
L 391.316757 292.006054 
L 389.507027 291.000649 
L 387.576649 290.276757 
L 385.565838 290.035459 
L 381.705081 290.357189 
L 379.493189 290.115892 
L 377.643243 289.472432 
L 374.546595 287.783351 
L 373.098811 287.260541 
L 371.047784 286.979027 
L 367.307676 287.059459 
L 365.337081 286.858378 
L 363.245838 286.255135 
L 359.827459 284.726919 
L 357.816649 284.123676 
L 356.248216 283.922595 
L 352.548324 283.681297 
L 350.899459 283.44 
L 343.017081 281.831351 
L 339.598703 281.831351 
L 335.577081 281.952 
L 329.383784 281.63027 
L 320.013405 280.946595 
L 315.991784 280.383568 
L 312.291892 279.780324 
L 308.592 279.257514 
L 304.771459 278.412973 
L 303.122595 277.689081 
L 302.036757 276.884757 
L 301.152 275.798919 
L 301.152 275.597838 
L 301.353081 275.115243 
L 302.036757 274.270703 
L 303.042162 273.506595 
L 304.248649 272.903351 
L 306.661622 272.340324 
L 307.586595 272.139243 
L 307.385514 272.300108 
L 307.345297 272.460973 
L 307.345297 272.300108 
L 306.943135 271.455568 
L 306.299676 270.651243 
L 305.133405 269.927351 
L 305.374703 269.927351 
L 304.771459 270.409946 
L 304.409514 270.932757 
L 304.087784 271.85773 
L 304.047568 271.656649 
L 303.926919 271.536 
L 304.731243 271.737081 
L 304.892108 271.737081 
L 304.731243 271.817514 
L 304.691027 271.85773 
L 304.811676 271.616432 
L 305.012757 270.771892 
L 304.851892 269.887135 
L 304.168216 267.996973 
L 304.168216 267.072 
L 304.489946 265.664432 
L 305.696432 263.130811 
L 306.098595 262.246054 
L 306.098595 262.366703 
L 305.897514 262.085189 
L 305.173622 261.481946 
L 304.731243 261.039568 
L 304.409514 260.556973 
L 304.168216 259.712432 
L 304.128 258.626595 
L 304.610595 256.897297 
L 306.380108 253.800649 
L 307.224649 251.709405 
L 307.184432 251.387676 
L 306.983351 250.905081 
L 306.621405 250.422486 
L 305.495351 249.577946 
L 304.087784 248.492108 
L 303.323676 247.446486 
L 302.559568 245.676973 
L 302.278054 244.108541 
L 301.875892 240.086919 
L 301.152 237.63373 
L 300.83027 236.99027 
L 300.307459 236.226162 
L 299.784649 235.743568 
L 298.457514 235.180541 
L 293.350054 234.295784 
L 292.022919 233.853405 
L 288.323027 232.204541 
L 287.237189 231.842595 
L 286.151351 231.641514 
L 283.577514 231.520865 
L 279.99827 231.762162 
L 276.217946 232.083892 
L 269.019243 232.968649 
L 267.24973 232.928432 
L 265.279135 232.486054 
L 262.986811 231.762162 
L 261.418378 231.440432 
L 259.005405 231.319784 
L 255.667459 231.601297 
L 253.334919 232.003459 
L 249.675243 233.089297 
L 248.75027 233.491459 
L 247.382919 234.295784 
L 246.216649 235.341405 
L 245.010162 236.829405 
L 243.803676 238.759784 
L 242.597189 240.690162 
L 241.189622 242.459676 
L 239.741838 243.867243 
L 237.328865 245.556324 
L 235.197405 246.682378 
L 232.543135 247.768216 
L 228.481297 248.934486 
L 225.907459 249.376865 
L 224.660757 249.53773 
L 222.127135 249.779027 
L 217.542486 249.939892 
L 211.791568 249.859459 
L 201.858162 249.417081 
L 197.836541 249.175784 
L 197.836541 249.175784 
" style="fill:none;stroke:#63fbc3;stroke-linecap:square;stroke-width:1.5;"/>
   </g>
   <g id="line2d_43">
    <path clip-path="url(#p046f46d39f)" d="M 140.367568 248.652973 
L 142.820757 248.733405 
L 144.429405 248.974703 
L 147.888 249.738811 
L 149.69773 249.939892 
L 155.00627 249.939892 
L 156.896432 250.261622 
L 160.274595 251.307243 
L 162.325622 251.588757 
L 163.894054 251.468108 
L 165.945081 251.146378 
L 168.036324 251.02573 
L 169.966703 251.307243 
L 171.776432 251.950703 
L 173.666595 252.755027 
L 175.757838 253.35827 
L 177.808865 253.398486 
L 181.187027 252.634378 
L 183.117405 252.473514 
L 185.047784 252.755027 
L 187.058595 253.519135 
L 188.948757 254.444108 
L 190.71827 255.007135 
L 192.20627 255.127784 
L 194.257297 254.966919 
L 196.147459 254.645189 
L 198.319135 254.604973 
L 200.249514 254.966919 
L 203.989622 256.374486 
L 206.000432 256.736432 
L 207.568865 256.696216 
L 209.539459 256.414703 
L 211.469838 256.253838 
L 213.400216 256.374486 
L 215.531676 256.897297 
L 217.341405 257.500541 
L 219.352216 258.023351 
L 221.161946 258.224432 
L 227.07373 257.942919 
L 229.245405 258.184216 
L 234.996324 259.350486 
L 236.564757 259.471135 
L 241.672216 259.551568 
L 251.806703 260.677622 
L 264.515027 261.200432 
L 268.979027 260.999351 
L 269.139892 261.240649 
L 269.702919 262.366703 
L 270.064865 264.216649 
L 270.064865 266.147027 
L 269.944216 268.318703 
L 269.904 268.278486 
L 270.105081 268.479568 
L 270.989838 269.163243 
L 272.316973 269.72627 
L 274.086486 270.088216 
L 276.097297 270.007784 
L 277.826595 269.525189 
L 280.038486 268.680649 
L 281.727568 268.198054 
L 284.944865 267.675243 
L 284.904649 267.675243 
L 284.784 267.795892 
L 284.985081 267.39373 
L 285.186162 266.428541 
L 285.226378 264.819892 
L 284.904649 263.050378 
L 284.100324 260.154811 
L 283.939459 258.586378 
L 284.060108 258.385297 
L 284.703568 257.82227 
L 285.708973 257.299459 
L 287.237189 256.97773 
L 288.564324 256.937514 
L 290.534919 257.017946 
L 291.05773 256.816865 
L 291.580541 256.374486 
L 292.224 255.449514 
L 292.827243 253.921297 
L 293.189189 251.910486 
L 293.309838 250.060541 
L 293.510919 248.934486 
L 293.792432 248.170378 
L 294.275027 247.526919 
L 294.757622 247.124757 
L 295.602162 246.682378 
L 296.607568 246.441081 
L 297.612973 246.360649 
L 301.715027 246.682378 
L 303.203027 246.642162 
L 310.240865 245.636757 
L 314.423351 245.596541 
L 320.093838 245.636757 
L 330.188108 246.481297 
L 332.279351 246.923676 
L 334.611892 247.647568 
L 339.075892 249.577946 
L 347.963676 253.921297 
L 392.804757 276.361946 
L 392.804757 276.361946 
" style="fill:none;stroke:#9cfba4;stroke-linecap:square;stroke-width:1.5;"/>
   </g>
   <g id="line2d_44">
    <path clip-path="url(#p046f46d39f)" d="M 281.124324 192.35027 
L 281.767784 192.470919 
L 282.371027 192.792649 
L 283.014486 193.315459 
L 283.61773 194.16 
L 284.180757 195.567568 
L 284.502486 197.578378 
L 284.381838 199.508757 
L 283.054703 205.460757 
L 282.934054 207.552 
L 283.376432 215.595243 
L 283.215568 219.013622 
L 283.054703 222.552649 
L 282.652541 246.320432 
L 282.572108 251.548541 
L 282.451459 257.580973 
L 282.371027 263.211243 
L 282.290595 266.991568 
L 282.371027 277.085838 
L 282.612324 278.935784 
L 283.416649 282.836757 
L 284.060108 286.174703 
L 284.502486 289.71373 
L 284.824216 292.488649 
L 285.427459 294.861405 
L 285.789405 295.625514 
L 286.432865 296.389622 
L 287.558919 297.193946 
L 288.886054 297.797189 
L 293.108757 299.003676 
L 293.712 299.446054 
L 293.631568 299.808 
L 293.269622 300.169946 
L 292.54573 300.572108 
L 291.459892 300.893838 
L 291.580541 300.773189 
L 291.339243 301.738378 
L 291.178378 305.317622 
L 290.977297 305.961081 
L 290.374054 307.006703 
L 289.650162 307.730595 
L 288.684973 308.374054 
L 284.623135 310.666378 
L 283.416649 311.752216 
L 282.491676 312.677189 
L 280.400432 314.406486 
L 278.268973 315.733622 
L 275.735351 317.020541 
L 272.759351 318.508541 
L 270.869189 319.916108 
L 270.105081 320.720432 
L 269.542054 321.484541 
L 269.019243 322.409514 
L 268.617081 323.455135 
L 268.255135 325.305081 
L 268.255135 326.27027 
L 268.335568 327.356108 
L 268.777946 329.085405 
L 269.340973 330.412541 
L 270.507243 332.745081 
L 270.949622 333.71027 
L 271.311568 334.956973 
L 271.311568 336.485189 
L 270.909405 337.973189 
L 270.105081 339.863351 
L 269.139892 341.753514 
L 267.651892 344.689297 
L 266.726919 347.062054 
L 266.204108 349.475027 
L 266.083459 350.440216 
L 266.163892 352.410811 
L 266.405189 353.577081 
L 266.726919 354.341189 
L 267.24973 355.145514 
L 268.295351 356.271568 
L 269.461622 356.955243 
L 270.426811 357.276973 
L 271.955027 357.357405 
L 273.362595 357.035676 
L 274.729946 356.392216 
L 275.896216 355.547676 
L 277.02227 354.421622 
L 278.108108 353.014054 
L 279.033081 351.405405 
L 280.078703 349.072865 
L 280.762378 346.941405 
L 281.48627 343.844757 
L 282.169946 339.219892 
L 282.491676 335.318919 
L 282.572108 334.635243 
L 282.572108 334.635243 
" style="fill:none;stroke:#d4dd80;stroke-linecap:square;stroke-width:1.5;"/>
   </g>
   <g id="line2d_45">
    <path clip-path="url(#p046f46d39f)" d="M 140.367568 304.955676 
L 142.780541 304.875243 
L 144.59027 304.553514 
L 150.823784 302.944865 
L 154.523676 302.582919 
L 158.223568 302.220973 
L 163.974486 301.014486 
L 165.542919 300.692757 
L 179.015351 298.561297 
L 188.546595 296.992865 
L 194.096432 296.067892 
L 202.823351 294.620108 
L 216.738162 292.327784 
L 231.256216 290.357189 
L 241.229838 289.07027 
L 244.246054 288.426811 
L 247.543784 287.300757 
L 249.715459 286.214919 
L 250.600216 285.651892 
L 251.806703 284.686703 
L 253.978378 282.394378 
L 255.225081 281.187892 
L 256.069622 281.268324 
L 256.632649 281.348757 
L 257.597838 281.228108 
L 258.643459 280.745514 
L 259.689081 279.900973 
L 260.332541 279.056432 
L 260.614054 278.533622 
L 260.855351 277.528216 
L 260.895568 276.563027 
L 260.453189 271.536 
L 261.016216 265.503568 
L 261.29773 264.377514 
L 261.820541 263.331892 
L 262.584649 262.527568 
L 263.549838 262.004757 
L 264.233514 261.763459 
L 266.083459 261.481946 
L 267.410595 261.361297 
L 267.611676 261.240649 
L 267.933405 260.878703 
L 268.174703 260.436324 
L 268.416 259.672216 
L 268.496432 257.862486 
L 268.536649 255.731027 
L 268.73773 254.84627 
L 269.099676 254.162595 
L 269.904 253.318054 
L 271.030054 252.393081 
L 271.351784 251.87027 
L 271.593081 251.146378 
L 271.71373 249.497514 
L 271.673514 247.848649 
L 271.914811 246.682378 
L 272.477838 245.717189 
L 272.960432 245.234595 
L 274.126703 244.510703 
L 275.695135 243.786811 
L 276.861405 243.465081 
L 278.51027 243.223784 
L 279.676541 243.304216 
L 279.877622 243.505297 
L 279.99827 244.671568 
L 279.756973 245.757405 
L 279.354811 246.642162 
L 278.268973 248.371459 
L 277.746162 249.497514 
L 277.585297 250.543135 
L 277.625514 251.146378 
L 278.027676 252.634378 
L 279.716757 257.138595 
L 280.360216 258.787459 
L 281.446054 260.758054 
L 282.169946 261.803676 
L 283.537297 263.452541 
L 285.990486 265.584 
L 289.167568 267.675243 
L 292.384865 269.444757 
L 301.152 273.707676 
L 306.621405 276.201081 
L 307.506162 276.603243 
L 307.506162 276.603243 
" style="fill:none;stroke:#ffa457;stroke-linecap:square;stroke-width:1.5;"/>
   </g>
   <g id="line2d_46">
    <path clip-path="url(#p046f46d39f)" d="M 393.72973 220.501622 
L 393.930811 220.582054 
L 394.091676 220.783135 
L 394.091676 220.944 
L 393.448216 222.070054 
L 392.161297 223.397189 
L 390.793946 224.322162 
L 388.984216 225.046054 
L 386.772324 225.327568 
L 380.900757 224.764541 
L 379.091027 225.005838 
L 377.442162 225.649297 
L 374.104216 227.459027 
L 371.972757 228.102486 
L 370.002162 228.182919 
L 367.870703 227.901405 
L 366.101189 227.780757 
L 364.291459 228.022054 
L 362.642595 228.625297 
L 359.586162 230.274162 
L 357.414486 230.837189 
L 355.524324 230.877405 
L 351.663568 230.475243 
L 349.894054 230.756757 
L 348.204973 231.400216 
L 344.907243 233.16973 
L 343.057297 233.692541 
L 340.805189 233.813189 
L 337.024865 233.571892 
L 334.973838 233.853405 
L 333.043459 234.697946 
L 329.946811 236.467459 
L 327.815351 237.070703 
L 325.603459 237.191351 
L 322.185081 236.909838 
L 320.656865 237.110919 
L 319.008 237.673946 
L 315.388541 239.363027 
L 313.216865 239.926054 
L 311.326703 240.086919 
L 309.315892 240.046703 
L 307.546378 240.127135 
L 305.776865 240.489081 
L 303.846486 241.333622 
L 302.31827 242.298811 
L 300.870486 243.424865 
L 299.503135 244.711784 
L 296.567351 247.808432 
L 294.838054 249.135568 
L 293.108757 249.980108 
L 291.258811 250.502919 
L 286.272 251.307243 
L 284.703568 251.387676 
L 284.341622 251.106162 
L 283.778595 250.301838 
L 283.336216 249.336649 
L 281.928649 243.746595 
L 281.48627 242.540108 
L 281.124324 241.896649 
L 280.118919 241.132541 
L 279.073297 240.730378 
L 277.625514 240.569514 
L 275.896216 240.730378 
L 274.086486 241.293405 
L 270.748541 242.660757 
L 269.139892 243.062919 
L 267.209514 243.304216 
L 263.509622 243.505297 
L 261.659676 243.746595 
L 258.080432 244.752 
L 250.278486 247.285622 
L 248.75027 248.04973 
L 247.463351 248.934486 
L 246.176432 250.38227 
L 244.366703 253.760432 
L 243.361297 255.047351 
L 242.034162 256.052757 
L 239.862486 256.857081 
L 237.610378 257.098378 
L 235.599568 257.058162 
L 233.749622 257.138595 
L 232.301838 257.460324 
L 230.652973 258.144 
L 227.636757 259.672216 
L 226.108541 260.275459 
L 223.45427 260.999351 
L 184.002162 268.479568 
L 180.342486 269.203459 
L 174.792649 270.249081 
L 170.208 271.133838 
L 164.658162 272.179459 
L 160.95827 272.903351 
L 155.328 273.989189 
L 142.016432 276.522811 
L 142.016432 276.522811 
" style="fill:none;stroke:#ff572c;stroke-linecap:square;stroke-width:1.5;"/>
   </g>
   <g id="line2d_47">
    <path clip-path="url(#p046f46d39f)" d="M 140.367568 136.047568 
L 140.890378 136.047568 
L 142.217514 136.208432 
L 143.74573 136.650811 
L 145.434811 137.616 
L 147.043459 139.144216 
L 148.249946 140.953946 
L 149.094486 142.602811 
L 150.099892 144.211459 
L 151.427027 145.820108 
L 153.035676 147.147243 
L 156.373622 149.479784 
L 157.781189 150.806919 
L 160.355027 153.903568 
L 161.320216 155.15027 
L 163.894054 157.844757 
L 168.156973 161.906595 
L 182.956541 177.108324 
L 189.23027 183.502703 
L 200.732108 195.286054 
L 207.046054 201.720649 
L 210.987243 205.74227 
L 215.772973 210.648649 
L 220.639135 215.635459 
L 227.958486 223.075459 
L 232.905081 228.182919 
L 235.116973 230.515459 
L 235.559351 231.03827 
L 235.478919 230.998054 
L 236.685405 231.400216 
L 237.690811 231.480649 
L 241.390703 231.319784 
L 242.315676 231.480649 
L 243.44173 231.802378 
L 244.92973 232.486054 
L 246.256865 233.330595 
L 248.348108 235.180541 
L 249.232865 236.306595 
L 249.152432 236.708757 
L 248.790486 237.593514 
L 248.106811 238.47827 
L 247.061189 239.282595 
L 242.918919 241.574919 
L 242.436324 241.977081 
L 241.913514 242.057514 
L 241.270054 242.017297 
L 240.546162 241.816216 
L 239.178811 240.971676 
L 237.731027 239.483676 
L 236.283243 237.472865 
L 234.996324 235.301189 
L 233.427892 232.284973 
L 232.462703 230.073081 
L 231.53773 228.022054 
L 229.325838 222.954811 
L 228.642162 221.949405 
L 226.43027 218.128865 
L 225.947676 216.399568 
L 225.947676 215.474595 
L 226.108541 214.549622 
L 226.390054 213.986595 
L 226.993297 213.061622 
L 227.717189 212.33773 
L 228.601946 211.69427 
L 229.567135 211.251892 
L 231.216 210.889946 
L 232.301838 210.84973 
L 234.272432 211.050811 
L 236.122378 211.493189 
L 237.369081 211.935568 
L 239.178811 212.780108 
L 241.229838 214.107243 
L 243.039568 215.675676 
L 244.28627 216.922378 
L 245.814486 218.732108 
L 246.940541 220.300541 
L 248.589405 223.155892 
L 249.755676 225.810162 
L 250.88173 229.148108 
L 251.645838 232.284973 
L 253.133838 242.540108 
L 253.696865 247.607351 
L 253.696865 247.607351 
" style="fill:none;stroke:#ff0000;stroke-linecap:square;stroke-width:1.5;"/>
   </g>
   <g id="patch_3">
    <path d="M 72 512.64 
L 72 69.12 
" style="fill:none;stroke:#000000;stroke-linecap:square;stroke-linejoin:miter;stroke-width:0.8;"/>
   </g>
   <g id="patch_4">
    <path d="M 518.4 512.64 
L 518.4 69.12 
" style="fill:none;stroke:#000000;stroke-linecap:square;stroke-linejoin:miter;stroke-width:0.8;"/>
   </g>
   <g id="patch_5">
    <path d="M 72 512.64 
L 518.4 512.64 
" style="fill:none;stroke:#000000;stroke-linecap:square;stroke-linejoin:miter;stroke-width:0.8;"/>
   </g>
   <g id="patch_6">
    <path d="M 72 69.12 
L 518.4 69.12 
" style="fill:none;stroke:#000000;stroke-linecap:square;stroke-linejoin:miter;stroke-width:0.8;"/>
   </g>
   <g id="text_13">
    <!-- 1 -->
    <defs>
     <path d="M 14.203125 0 
L 14.203125 5.171875 
L 26.90625 5.171875 
L 26.90625 65.828125 
L 12.203125 56.296875 
L 12.203125 62.703125 
L 29.984375 74.21875 
L 36.71875 74.21875 
L 36.71875 5.171875 
L 49.421875 5.171875 
L 49.421875 0 
z
" id="DejaVuSerif-31"/>
    </defs>
    <g transform="translate(137.186318 389.40973)scale(0.1 -0.1)">
     <use xlink:href="#DejaVuSerif-31"/>
    </g>
   </g>
   <g id="text_14">
    <!-- 1 -->
    <g transform="translate(390.54848 192.35027)scale(0.1 -0.1)">
     <use xlink:href="#DejaVuSerif-31"/>
    </g>
   </g>
   <g id="text_15">
    <!-- 2 -->
    <defs>
     <path d="M 12.796875 55.515625 
L 7.328125 55.515625 
L 7.328125 68.5 
Q 12.546875 71.296875 17.84375 72.75 
Q 23.140625 74.21875 28.21875 74.21875 
Q 39.59375 74.21875 46.1875 68.703125 
Q 52.78125 63.1875 52.78125 53.71875 
Q 52.78125 43.015625 37.84375 28.125 
Q 36.671875 27 36.078125 26.421875 
L 17.671875 8.015625 
L 48.09375 8.015625 
L 48.09375 17 
L 53.8125 17 
L 53.8125 0 
L 6.78125 0 
L 6.78125 5.328125 
L 28.90625 27.390625 
Q 36.234375 34.71875 39.359375 40.84375 
Q 42.484375 46.96875 42.484375 53.71875 
Q 42.484375 61.078125 38.640625 65.234375 
Q 34.8125 69.390625 28.078125 69.390625 
Q 21.09375 69.390625 17.28125 65.921875 
Q 13.484375 62.453125 12.796875 55.515625 
z
" id="DejaVuSerif-32"/>
    </defs>
    <g transform="translate(446.851182 192.35027)scale(0.1 -0.1)">
     <use xlink:href="#DejaVuSerif-32"/>
    </g>
   </g>
   <g id="text_16">
    <!-- 2 -->
    <g transform="translate(221.640372 361.258378)scale(0.1 -0.1)">
     <use xlink:href="#DejaVuSerif-32"/>
    </g>
   </g>
   <g id="text_17">
    <!-- 3 -->
    <defs>
     <path d="M 9.71875 69.828125 
Q 15.4375 71.96875 20.671875 73.09375 
Q 25.921875 74.21875 30.515625 74.21875 
Q 41.21875 74.21875 47.21875 69.59375 
Q 53.21875 64.984375 53.21875 56.78125 
Q 53.21875 50.203125 49.0625 45.78125 
Q 44.921875 41.359375 37.3125 39.796875 
Q 46.296875 38.53125 51.25 33.28125 
Q 56.203125 28.03125 56.203125 19.671875 
Q 56.203125 9.46875 49.34375 4.015625 
Q 42.484375 -1.421875 29.59375 -1.421875 
Q 23.875 -1.421875 18.421875 -0.1875 
Q 12.984375 1.03125 7.625 3.515625 
L 7.625 17.671875 
L 13.09375 17.671875 
Q 13.578125 10.640625 17.828125 7.03125 
Q 22.078125 3.421875 29.78125 3.421875 
Q 37.25 3.421875 41.578125 7.734375 
Q 45.90625 12.0625 45.90625 19.578125 
Q 45.90625 28.171875 41.453125 32.59375 
Q 37.015625 37.015625 28.421875 37.015625 
L 23.78125 37.015625 
L 23.78125 42 
L 26.21875 42 
Q 34.765625 42 39.03125 45.53125 
Q 43.3125 49.078125 43.3125 56.203125 
Q 43.3125 62.59375 39.796875 65.984375 
Q 36.28125 69.390625 29.6875 69.390625 
Q 23.09375 69.390625 19.453125 66.265625 
Q 15.828125 63.140625 15.1875 56.984375 
L 9.71875 56.984375 
z
" id="DejaVuSerif-33"/>
    </defs>
    <g transform="translate(398.993885 440.082162)scale(0.1 -0.1)">
     <use xlink:href="#DejaVuSerif-33"/>
    </g>
   </g>
   <g id="text_18">
    <!-- 3 -->
    <g transform="translate(221.640372 192.35027)scale(0.1 -0.1)">
     <use xlink:href="#DejaVuSerif-33"/>
    </g>
   </g>
   <g id="text_19">
    <!-- 4 -->
    <defs>
     <path d="M 34.90625 24.703125 
L 34.90625 63.484375 
L 10.015625 24.703125 
z
M 56.390625 0 
L 23.1875 0 
L 23.1875 5.171875 
L 34.90625 5.171875 
L 34.90625 19.484375 
L 3.078125 19.484375 
L 3.078125 24.8125 
L 35.015625 74.21875 
L 44.671875 74.21875 
L 44.671875 24.703125 
L 58.59375 24.703125 
L 58.59375 19.484375 
L 44.671875 19.484375 
L 44.671875 5.171875 
L 56.390625 5.171875 
z
" id="DejaVuSerif-34"/>
    </defs>
    <g transform="translate(221.640372 136.047568)scale(0.1 -0.1)">
     <use xlink:href="#DejaVuSerif-34"/>
    </g>
   </g>
   <g id="text_20">
    <!-- 4 -->
    <g transform="translate(390.54848 361.258378)scale(0.1 -0.1)">
     <use xlink:href="#DejaVuSerif-34"/>
    </g>
   </g>
   <g id="text_21">
    <!-- 5 -->
    <defs>
     <path d="M 50.296875 72.90625 
L 50.296875 64.890625 
L 16.890625 64.890625 
L 16.890625 44 
Q 19.4375 45.75 22.828125 46.625 
Q 26.21875 47.515625 30.421875 47.515625 
Q 42.234375 47.515625 49.0625 40.96875 
Q 55.90625 34.421875 55.90625 23.09375 
Q 55.90625 11.53125 49 5.046875 
Q 42.09375 -1.421875 29.59375 -1.421875 
Q 24.5625 -1.421875 19.28125 -0.1875 
Q 14.015625 1.03125 8.5 3.515625 
L 8.5 17.671875 
L 14.015625 17.671875 
Q 14.453125 10.75 18.421875 7.078125 
Q 22.40625 3.421875 29.59375 3.421875 
Q 37.3125 3.421875 41.453125 8.5 
Q 45.609375 13.578125 45.609375 23.09375 
Q 45.609375 32.5625 41.484375 37.609375 
Q 37.359375 42.671875 29.59375 42.671875 
Q 25.203125 42.671875 21.84375 41.109375 
Q 18.5 39.546875 15.921875 36.28125 
L 11.71875 36.28125 
L 11.71875 72.90625 
z
" id="DejaVuSerif-35"/>
    </defs>
    <g transform="translate(446.851182 304.955676)scale(0.1 -0.1)">
     <use xlink:href="#DejaVuSerif-35"/>
    </g>
   </g>
   <g id="text_22">
    <!-- 5 -->
    <g transform="translate(193.48902 248.652973)scale(0.1 -0.1)">
     <use xlink:href="#DejaVuSerif-35"/>
    </g>
   </g>
   <g id="text_23">
    <!-- 6 -->
    <defs>
     <path d="M 32.71875 3.421875 
Q 39.59375 3.421875 43.296875 8.46875 
Q 47.015625 13.53125 47.015625 23 
Q 47.015625 32.46875 43.296875 37.515625 
Q 39.59375 42.578125 32.71875 42.578125 
Q 25.734375 42.578125 22.0625 37.6875 
Q 18.40625 32.8125 18.40625 23.578125 
Q 18.40625 13.875 22.109375 8.640625 
Q 25.828125 3.421875 32.71875 3.421875 
z
M 16.796875 40.140625 
Q 20.125 43.796875 24.3125 45.59375 
Q 28.515625 47.40625 33.796875 47.40625 
Q 44.671875 47.40625 51 40.859375 
Q 57.328125 34.328125 57.328125 23 
Q 57.328125 11.921875 50.515625 5.25 
Q 43.703125 -1.421875 32.328125 -1.421875 
Q 19.96875 -1.421875 13.328125 7.78125 
Q 6.6875 17 6.6875 34.078125 
Q 6.6875 53.21875 14.546875 63.71875 
Q 22.40625 74.21875 36.71875 74.21875 
Q 40.578125 74.21875 44.828125 73.484375 
Q 49.078125 72.75 53.515625 71.296875 
L 53.515625 59.28125 
L 48 59.28125 
Q 47.40625 64.203125 44.234375 66.796875 
Q 41.0625 69.390625 35.6875 69.390625 
Q 26.21875 69.390625 21.578125 62.203125 
Q 16.9375 55.03125 16.796875 40.140625 
z
" id="DejaVuSerif-36"/>
    </defs>
    <g transform="translate(137.186318 248.652973)scale(0.1 -0.1)">
     <use xlink:href="#DejaVuSerif-36"/>
    </g>
   </g>
   <g id="text_24">
    <!-- 6 -->
    <g transform="translate(390.54848 276.804324)scale(0.1 -0.1)">
     <use xlink:href="#DejaVuSerif-36"/>
    </g>
   </g>
   <g id="text_25">
    <!-- 7 -->
    <defs>
     <path d="M 56.390625 67.921875 
L 27.875 0 
L 20.609375 0 
L 47.796875 64.890625 
L 14.109375 64.890625 
L 14.109375 55.90625 
L 8.40625 55.90625 
L 8.40625 72.90625 
L 56.390625 72.90625 
z
" id="DejaVuSerif-37"/>
    </defs>
    <g transform="translate(277.943074 192.35027)scale(0.1 -0.1)">
     <use xlink:href="#DejaVuSerif-37"/>
    </g>
   </g>
   <g id="text_26">
    <!-- 7 -->
    <g transform="translate(277.943074 333.107027)scale(0.1 -0.1)">
     <use xlink:href="#DejaVuSerif-37"/>
    </g>
   </g>
   <g id="text_27">
    <!-- 8 -->
    <defs>
     <path d="M 46.578125 19.921875 
Q 46.578125 27.734375 42.6875 32.046875 
Q 38.8125 36.375 31.78125 36.375 
Q 24.75 36.375 20.875 32.046875 
Q 17 27.734375 17 19.921875 
Q 17 12.0625 20.875 7.734375 
Q 24.75 3.421875 31.78125 3.421875 
Q 38.8125 3.421875 42.6875 7.734375 
Q 46.578125 12.0625 46.578125 19.921875 
z
M 44.578125 55.328125 
Q 44.578125 61.96875 41.203125 65.671875 
Q 37.84375 69.390625 31.78125 69.390625 
Q 25.78125 69.390625 22.390625 65.671875 
Q 19 61.96875 19 55.328125 
Q 19 48.640625 22.390625 44.921875 
Q 25.78125 41.21875 31.78125 41.21875 
Q 37.84375 41.21875 41.203125 44.921875 
Q 44.578125 48.640625 44.578125 55.328125 
z
M 39.3125 38.8125 
Q 47.609375 37.703125 52.25 32.6875 
Q 56.890625 27.6875 56.890625 19.921875 
Q 56.890625 9.671875 50.390625 4.125 
Q 43.890625 -1.421875 31.78125 -1.421875 
Q 19.734375 -1.421875 13.203125 4.125 
Q 6.6875 9.671875 6.6875 19.921875 
Q 6.6875 27.6875 11.328125 32.6875 
Q 15.96875 37.703125 24.3125 38.8125 
Q 16.9375 40.140625 13 44.40625 
Q 9.078125 48.6875 9.078125 55.328125 
Q 9.078125 64.109375 15.125 69.15625 
Q 21.1875 74.21875 31.78125 74.21875 
Q 42.390625 74.21875 48.4375 69.15625 
Q 54.5 64.109375 54.5 55.328125 
Q 54.5 48.6875 50.5625 44.40625 
Q 46.625 40.140625 39.3125 38.8125 
z
" id="DejaVuSerif-38"/>
    </defs>
    <g transform="translate(137.186318 304.955676)scale(0.1 -0.1)">
     <use xlink:href="#DejaVuSerif-38"/>
    </g>
   </g>
   <g id="text_28">
    <!-- 8 -->
    <g transform="translate(306.094426 276.804324)scale(0.1 -0.1)">
     <use xlink:href="#DejaVuSerif-38"/>
    </g>
   </g>
   <g id="text_29">
    <!-- 9 -->
    <defs>
     <path d="M 46.78125 32.671875 
Q 43.5 29 39.25 27.1875 
Q 35.015625 25.390625 29.6875 25.390625 
Q 18.84375 25.390625 12.5625 31.9375 
Q 6.296875 38.484375 6.296875 49.8125 
Q 6.296875 60.890625 13.109375 67.546875 
Q 19.921875 74.21875 31.296875 74.21875 
Q 43.65625 74.21875 50.265625 65.015625 
Q 56.890625 55.8125 56.890625 38.71875 
Q 56.890625 19.578125 49.015625 9.078125 
Q 41.15625 -1.421875 26.90625 -1.421875 
Q 23.046875 -1.421875 18.796875 -0.6875 
Q 14.546875 0.046875 10.109375 1.515625 
L 10.109375 13.625 
L 15.578125 13.625 
Q 16.21875 8.6875 19.390625 6.046875 
Q 22.5625 3.421875 27.875 3.421875 
Q 37.359375 3.421875 41.984375 10.5625 
Q 46.625 17.71875 46.78125 32.671875 
z
M 30.90625 69.390625 
Q 23.96875 69.390625 20.28125 64.328125 
Q 16.609375 59.28125 16.609375 49.8125 
Q 16.609375 40.328125 20.28125 35.25 
Q 23.96875 30.171875 30.90625 30.171875 
Q 37.84375 30.171875 41.53125 35.078125 
Q 45.21875 39.984375 45.21875 49.21875 
Q 45.21875 58.9375 41.5 64.15625 
Q 37.796875 69.390625 30.90625 69.390625 
z
" id="DejaVuSerif-39"/>
    </defs>
    <g transform="translate(390.54848 220.501622)scale(0.1 -0.1)">
     <use xlink:href="#DejaVuSerif-39"/>
    </g>
   </g>
   <g id="text_30">
    <!-- 9 -->
    <g transform="translate(137.186318 276.804324)scale(0.1 -0.1)">
     <use xlink:href="#DejaVuSerif-39"/>
    </g>
   </g>
   <g id="text_31">
    <!-- 10 -->
    <defs>
     <path d="M 31.78125 3.421875 
Q 39.265625 3.421875 42.96875 11.625 
Q 46.6875 19.828125 46.6875 36.375 
Q 46.6875 52.984375 42.96875 61.1875 
Q 39.265625 69.390625 31.78125 69.390625 
Q 24.3125 69.390625 20.59375 61.1875 
Q 16.890625 52.984375 16.890625 36.375 
Q 16.890625 19.828125 20.59375 11.625 
Q 24.3125 3.421875 31.78125 3.421875 
z
M 31.78125 -1.421875 
Q 19.921875 -1.421875 13.25 8.53125 
Q 6.59375 18.5 6.59375 36.375 
Q 6.59375 54.296875 13.25 64.25 
Q 19.921875 74.21875 31.78125 74.21875 
Q 43.703125 74.21875 50.34375 64.25 
Q 56.984375 54.296875 56.984375 36.375 
Q 56.984375 18.5 50.34375 8.53125 
Q 43.703125 -1.421875 31.78125 -1.421875 
z
" id="DejaVuSerif-30"/>
    </defs>
    <g transform="translate(134.005068 136.047568)scale(0.1 -0.1)">
     <use xlink:href="#DejaVuSerif-31"/>
     <use x="63.623047" xlink:href="#DejaVuSerif-30"/>
    </g>
   </g>
   <g id="text_32">
    <!-- 10 -->
    <g transform="translate(246.610473 248.652973)scale(0.1 -0.1)">
     <use xlink:href="#DejaVuSerif-31"/>
     <use x="63.623047" xlink:href="#DejaVuSerif-30"/>
    </g>
   </g>
   <g id="text_33">
    <!-- MRPP -->
    <defs>
     <path d="M 9.8125 72.90625 
L 24.515625 72.90625 
L 43.109375 23.296875 
L 61.8125 72.90625 
L 76.515625 72.90625 
L 76.515625 0 
L 66.890625 0 
L 66.890625 64.015625 
L 48.09375 14.015625 
L 38.1875 14.015625 
L 19.390625 64.015625 
L 19.390625 0 
L 9.8125 0 
z
" id="DejaVuSans-4d"/>
     <path d="M 44.390625 34.1875 
Q 47.5625 33.109375 50.5625 29.59375 
Q 53.5625 26.078125 56.59375 19.921875 
L 66.609375 0 
L 56 0 
L 46.6875 18.703125 
Q 43.0625 26.03125 39.671875 28.421875 
Q 36.28125 30.8125 30.421875 30.8125 
L 19.671875 30.8125 
L 19.671875 0 
L 9.8125 0 
L 9.8125 72.90625 
L 32.078125 72.90625 
Q 44.578125 72.90625 50.734375 67.671875 
Q 56.890625 62.453125 56.890625 51.90625 
Q 56.890625 45.015625 53.6875 40.46875 
Q 50.484375 35.9375 44.390625 34.1875 
z
M 19.671875 64.796875 
L 19.671875 38.921875 
L 32.078125 38.921875 
Q 39.203125 38.921875 42.84375 42.21875 
Q 46.484375 45.515625 46.484375 51.90625 
Q 46.484375 58.296875 42.84375 61.546875 
Q 39.203125 64.796875 32.078125 64.796875 
z
" id="DejaVuSans-52"/>
     <path d="M 19.671875 64.796875 
L 19.671875 37.40625 
L 32.078125 37.40625 
Q 38.96875 37.40625 42.71875 40.96875 
Q 46.484375 44.53125 46.484375 51.125 
Q 46.484375 57.671875 42.71875 61.234375 
Q 38.96875 64.796875 32.078125 64.796875 
z
M 9.8125 72.90625 
L 32.078125 72.90625 
Q 44.34375 72.90625 50.609375 67.359375 
Q 56.890625 61.8125 56.890625 51.125 
Q 56.890625 40.328125 50.609375 34.8125 
Q 44.34375 29.296875 32.078125 29.296875 
L 19.671875 29.296875 
L 19.671875 0 
L 9.8125 0 
z
" id="DejaVuSans-50"/>
    </defs>
    <g transform="translate(278.618437 63.12)scale(0.12 -0.12)">
     <use xlink:href="#DejaVuSans-4d"/>
     <use x="86.279297" xlink:href="#DejaVuSans-52"/>
     <use x="155.761719" xlink:href="#DejaVuSans-50"/>
     <use x="216.064453" xlink:href="#DejaVuSans-50"/>
    </g>
   </g>
  </g>
 </g>
 <defs>
  <clipPath id="p046f46d39f">
   <rect height="443.52" width="446.4" x="72" y="69.12"/>
  </clipPath>
 </defs>
</svg>
