<?xml version="1.0" encoding="utf-8" standalone="no"?>
<!DOCTYPE svg PUBLIC "-//W3C//DTD SVG 1.1//EN"
  "http://www.w3.org/Graphics/SVG/1.1/DTD/svg11.dtd">
<!-- Created with matplotlib (http://matplotlib.org/) -->
<svg height="576pt" version="1.1" viewBox="0 0 576 576" width="576pt" xmlns="http://www.w3.org/2000/svg" xmlns:xlink="http://www.w3.org/1999/xlink">
 <defs>
  <style type="text/css">
*{stroke-linecap:butt;stroke-linejoin:round;}
  </style>
 </defs>
 <g id="figure_1">
  <g id="patch_1">
   <path d="M 0 576 
L 576 576 
L 576 0 
L 0 0 
z
" style="fill:#ffffff;"/>
  </g>
  <g id="axes_1">
   <g id="patch_2">
    <path d="M 72 512.64 
L 518.4 512.64 
L 518.4 69.12 
L 72 69.12 
z
" style="fill:#ffffff;"/>
   </g>
   <g id="matplotlib.axis_1">
    <g id="xtick_1">
     <g id="line2d_1">
      <defs>
       <path d="M 0 0 
L 0 3.5 
" id="meb941bed0e" style="stroke:#000000;stroke-width:0.8;"/>
      </defs>
      <g>
       <use style="stroke:#000000;stroke-width:0.8;" x="112.216216" xlink:href="#meb941bed0e" y="512.64"/>
      </g>
     </g>
     <g id="text_1">
      <!-- 0 -->
      <defs>
       <path d="M 31.78125 66.40625 
Q 24.171875 66.40625 20.328125 58.90625 
Q 16.5 51.421875 16.5 36.375 
Q 16.5 21.390625 20.328125 13.890625 
Q 24.171875 6.390625 31.78125 6.390625 
Q 39.453125 6.390625 43.28125 13.890625 
Q 47.125 21.390625 47.125 36.375 
Q 47.125 51.421875 43.28125 58.90625 
Q 39.453125 66.40625 31.78125 66.40625 
z
M 31.78125 74.21875 
Q 44.046875 74.21875 50.515625 64.515625 
Q 56.984375 54.828125 56.984375 36.375 
Q 56.984375 17.96875 50.515625 8.265625 
Q 44.046875 -1.421875 31.78125 -1.421875 
Q 19.53125 -1.421875 13.0625 8.265625 
Q 6.59375 17.96875 6.59375 36.375 
Q 6.59375 54.828125 13.0625 64.515625 
Q 19.53125 74.21875 31.78125 74.21875 
z
" id="DejaVuSans-30"/>
      </defs>
      <g transform="translate(109.034966 527.238438)scale(0.1 -0.1)">
       <use xlink:href="#DejaVuSans-30"/>
      </g>
     </g>
    </g>
    <g id="xtick_2">
     <g id="line2d_2">
      <g>
       <use style="stroke:#000000;stroke-width:0.8;" x="192.648649" xlink:href="#meb941bed0e" y="512.64"/>
      </g>
     </g>
     <g id="text_2">
      <!-- 2 -->
      <defs>
       <path d="M 19.1875 8.296875 
L 53.609375 8.296875 
L 53.609375 0 
L 7.328125 0 
L 7.328125 8.296875 
Q 12.9375 14.109375 22.625 23.890625 
Q 32.328125 33.6875 34.8125 36.53125 
Q 39.546875 41.84375 41.421875 45.53125 
Q 43.3125 49.21875 43.3125 52.78125 
Q 43.3125 58.59375 39.234375 62.25 
Q 35.15625 65.921875 28.609375 65.921875 
Q 23.96875 65.921875 18.8125 64.3125 
Q 13.671875 62.703125 7.8125 59.421875 
L 7.8125 69.390625 
Q 13.765625 71.78125 18.9375 73 
Q 24.125 74.21875 28.421875 74.21875 
Q 39.75 74.21875 46.484375 68.546875 
Q 53.21875 62.890625 53.21875 53.421875 
Q 53.21875 48.921875 51.53125 44.890625 
Q 49.859375 40.875 45.40625 35.40625 
Q 44.1875 33.984375 37.640625 27.21875 
Q 31.109375 20.453125 19.1875 8.296875 
z
" id="DejaVuSans-32"/>
      </defs>
      <g transform="translate(189.467399 527.238438)scale(0.1 -0.1)">
       <use xlink:href="#DejaVuSans-32"/>
      </g>
     </g>
    </g>
    <g id="xtick_3">
     <g id="line2d_3">
      <g>
       <use style="stroke:#000000;stroke-width:0.8;" x="273.081081" xlink:href="#meb941bed0e" y="512.64"/>
      </g>
     </g>
     <g id="text_3">
      <!-- 4 -->
      <defs>
       <path d="M 37.796875 64.3125 
L 12.890625 25.390625 
L 37.796875 25.390625 
z
M 35.203125 72.90625 
L 47.609375 72.90625 
L 47.609375 25.390625 
L 58.015625 25.390625 
L 58.015625 17.1875 
L 47.609375 17.1875 
L 47.609375 0 
L 37.796875 0 
L 37.796875 17.1875 
L 4.890625 17.1875 
L 4.890625 26.703125 
z
" id="DejaVuSans-34"/>
      </defs>
      <g transform="translate(269.899831 527.238438)scale(0.1 -0.1)">
       <use xlink:href="#DejaVuSans-34"/>
      </g>
     </g>
    </g>
    <g id="xtick_4">
     <g id="line2d_4">
      <g>
       <use style="stroke:#000000;stroke-width:0.8;" x="353.513514" xlink:href="#meb941bed0e" y="512.64"/>
      </g>
     </g>
     <g id="text_4">
      <!-- 6 -->
      <defs>
       <path d="M 33.015625 40.375 
Q 26.375 40.375 22.484375 35.828125 
Q 18.609375 31.296875 18.609375 23.390625 
Q 18.609375 15.53125 22.484375 10.953125 
Q 26.375 6.390625 33.015625 6.390625 
Q 39.65625 6.390625 43.53125 10.953125 
Q 47.40625 15.53125 47.40625 23.390625 
Q 47.40625 31.296875 43.53125 35.828125 
Q 39.65625 40.375 33.015625 40.375 
z
M 52.59375 71.296875 
L 52.59375 62.3125 
Q 48.875 64.0625 45.09375 64.984375 
Q 41.3125 65.921875 37.59375 65.921875 
Q 27.828125 65.921875 22.671875 59.328125 
Q 17.53125 52.734375 16.796875 39.40625 
Q 19.671875 43.65625 24.015625 45.921875 
Q 28.375 48.1875 33.59375 48.1875 
Q 44.578125 48.1875 50.953125 41.515625 
Q 57.328125 34.859375 57.328125 23.390625 
Q 57.328125 12.15625 50.6875 5.359375 
Q 44.046875 -1.421875 33.015625 -1.421875 
Q 20.359375 -1.421875 13.671875 8.265625 
Q 6.984375 17.96875 6.984375 36.375 
Q 6.984375 53.65625 15.1875 63.9375 
Q 23.390625 74.21875 37.203125 74.21875 
Q 40.921875 74.21875 44.703125 73.484375 
Q 48.484375 72.75 52.59375 71.296875 
z
" id="DejaVuSans-36"/>
      </defs>
      <g transform="translate(350.332264 527.238438)scale(0.1 -0.1)">
       <use xlink:href="#DejaVuSans-36"/>
      </g>
     </g>
    </g>
    <g id="xtick_5">
     <g id="line2d_5">
      <g>
       <use style="stroke:#000000;stroke-width:0.8;" x="433.945946" xlink:href="#meb941bed0e" y="512.64"/>
      </g>
     </g>
     <g id="text_5">
      <!-- 8 -->
      <defs>
       <path d="M 31.78125 34.625 
Q 24.75 34.625 20.71875 30.859375 
Q 16.703125 27.09375 16.703125 20.515625 
Q 16.703125 13.921875 20.71875 10.15625 
Q 24.75 6.390625 31.78125 6.390625 
Q 38.8125 6.390625 42.859375 10.171875 
Q 46.921875 13.96875 46.921875 20.515625 
Q 46.921875 27.09375 42.890625 30.859375 
Q 38.875 34.625 31.78125 34.625 
z
M 21.921875 38.8125 
Q 15.578125 40.375 12.03125 44.71875 
Q 8.5 49.078125 8.5 55.328125 
Q 8.5 64.0625 14.71875 69.140625 
Q 20.953125 74.21875 31.78125 74.21875 
Q 42.671875 74.21875 48.875 69.140625 
Q 55.078125 64.0625 55.078125 55.328125 
Q 55.078125 49.078125 51.53125 44.71875 
Q 48 40.375 41.703125 38.8125 
Q 48.828125 37.15625 52.796875 32.3125 
Q 56.78125 27.484375 56.78125 20.515625 
Q 56.78125 9.90625 50.3125 4.234375 
Q 43.84375 -1.421875 31.78125 -1.421875 
Q 19.734375 -1.421875 13.25 4.234375 
Q 6.78125 9.90625 6.78125 20.515625 
Q 6.78125 27.484375 10.78125 32.3125 
Q 14.796875 37.15625 21.921875 38.8125 
z
M 18.3125 54.390625 
Q 18.3125 48.734375 21.84375 45.5625 
Q 25.390625 42.390625 31.78125 42.390625 
Q 38.140625 42.390625 41.71875 45.5625 
Q 45.3125 48.734375 45.3125 54.390625 
Q 45.3125 60.0625 41.71875 63.234375 
Q 38.140625 66.40625 31.78125 66.40625 
Q 25.390625 66.40625 21.84375 63.234375 
Q 18.3125 60.0625 18.3125 54.390625 
z
" id="DejaVuSans-38"/>
      </defs>
      <g transform="translate(430.764696 527.238438)scale(0.1 -0.1)">
       <use xlink:href="#DejaVuSans-38"/>
      </g>
     </g>
    </g>
    <g id="xtick_6">
     <g id="line2d_6">
      <g>
       <use style="stroke:#000000;stroke-width:0.8;" x="514.378378" xlink:href="#meb941bed0e" y="512.64"/>
      </g>
     </g>
     <g id="text_6">
      <!-- 10 -->
      <defs>
       <path d="M 12.40625 8.296875 
L 28.515625 8.296875 
L 28.515625 63.921875 
L 10.984375 60.40625 
L 10.984375 69.390625 
L 28.421875 72.90625 
L 38.28125 72.90625 
L 38.28125 8.296875 
L 54.390625 8.296875 
L 54.390625 0 
L 12.40625 0 
z
" id="DejaVuSans-31"/>
      </defs>
      <g transform="translate(508.015878 527.238438)scale(0.1 -0.1)">
       <use xlink:href="#DejaVuSans-31"/>
       <use x="63.623047" xlink:href="#DejaVuSans-30"/>
      </g>
     </g>
    </g>
   </g>
   <g id="matplotlib.axis_2">
    <g id="ytick_1">
     <g id="line2d_7">
      <defs>
       <path d="M 0 0 
L -3.5 0 
" id="me7c4603a75" style="stroke:#000000;stroke-width:0.8;"/>
      </defs>
      <g>
       <use style="stroke:#000000;stroke-width:0.8;" x="72" xlink:href="#me7c4603a75" y="473.863784"/>
      </g>
     </g>
     <g id="text_7">
      <!-- 0 -->
      <g transform="translate(58.6375 477.663003)scale(0.1 -0.1)">
       <use xlink:href="#DejaVuSans-30"/>
      </g>
     </g>
    </g>
    <g id="ytick_2">
     <g id="line2d_8">
      <g>
       <use style="stroke:#000000;stroke-width:0.8;" x="72" xlink:href="#me7c4603a75" y="393.431351"/>
      </g>
     </g>
     <g id="text_8">
      <!-- 2 -->
      <g transform="translate(58.6375 397.23057)scale(0.1 -0.1)">
       <use xlink:href="#DejaVuSans-32"/>
      </g>
     </g>
    </g>
    <g id="ytick_3">
     <g id="line2d_9">
      <g>
       <use style="stroke:#000000;stroke-width:0.8;" x="72" xlink:href="#me7c4603a75" y="312.998919"/>
      </g>
     </g>
     <g id="text_9">
      <!-- 4 -->
      <g transform="translate(58.6375 316.798138)scale(0.1 -0.1)">
       <use xlink:href="#DejaVuSans-34"/>
      </g>
     </g>
    </g>
    <g id="ytick_4">
     <g id="line2d_10">
      <g>
       <use style="stroke:#000000;stroke-width:0.8;" x="72" xlink:href="#me7c4603a75" y="232.566486"/>
      </g>
     </g>
     <g id="text_10">
      <!-- 6 -->
      <g transform="translate(58.6375 236.365705)scale(0.1 -0.1)">
       <use xlink:href="#DejaVuSans-36"/>
      </g>
     </g>
    </g>
    <g id="ytick_5">
     <g id="line2d_11">
      <g>
       <use style="stroke:#000000;stroke-width:0.8;" x="72" xlink:href="#me7c4603a75" y="152.134054"/>
      </g>
     </g>
     <g id="text_11">
      <!-- 8 -->
      <g transform="translate(58.6375 155.933273)scale(0.1 -0.1)">
       <use xlink:href="#DejaVuSans-38"/>
      </g>
     </g>
    </g>
    <g id="ytick_6">
     <g id="line2d_12">
      <g>
       <use style="stroke:#000000;stroke-width:0.8;" x="72" xlink:href="#me7c4603a75" y="71.701622"/>
      </g>
     </g>
     <g id="text_12">
      <!-- 10 -->
      <g transform="translate(52.275 75.50084)scale(0.1 -0.1)">
       <use xlink:href="#DejaVuSans-31"/>
       <use x="63.623047" xlink:href="#DejaVuSans-30"/>
      </g>
     </g>
    </g>
   </g>
   <g id="line2d_13">
    <path clip-path="url(#p13966dbd7d)" d="M 140.367568 389.40973 
" style="fill:none;stroke:#1f77b4;stroke-linecap:square;stroke-width:1.5;"/>
    <defs>
     <path d="M -5 5 
L 5 5 
L 5 -5 
L -5 -5 
z
" id="m894b6387f0" style="stroke:#8000ff;stroke-linejoin:miter;"/>
    </defs>
    <g clip-path="url(#p13966dbd7d)">
     <use style="fill:#8000ff;stroke:#8000ff;stroke-linejoin:miter;" x="140.367568" xlink:href="#m894b6387f0" y="389.40973"/>
    </g>
   </g>
   <g id="line2d_14">
    <path clip-path="url(#p13966dbd7d)" d="M 393.72973 192.35027 
" style="fill:none;stroke:#ff7f0e;stroke-linecap:square;stroke-width:1.5;"/>
    <defs>
     <path d="M 0 -5 
L -4.755283 -1.545085 
L -2.938926 4.045085 
L 2.938926 4.045085 
L 4.755283 -1.545085 
z
" id="m3dffee05ee" style="stroke:#8000ff;stroke-linejoin:miter;"/>
    </defs>
    <g clip-path="url(#p13966dbd7d)">
     <use style="fill:#8000ff;stroke:#8000ff;stroke-linejoin:miter;" x="393.72973" xlink:href="#m3dffee05ee" y="192.35027"/>
    </g>
   </g>
   <g id="line2d_15">
    <path clip-path="url(#p13966dbd7d)" d="M 450.032432 192.35027 
" style="fill:none;stroke:#2ca02c;stroke-linecap:square;stroke-width:1.5;"/>
    <defs>
     <path d="M -5 5 
L 5 5 
L 5 -5 
L -5 -5 
z
" id="m7348d6212a" style="stroke:#2b7ff6;stroke-linejoin:miter;"/>
    </defs>
    <g clip-path="url(#p13966dbd7d)">
     <use style="fill:#2b7ff6;stroke:#2b7ff6;stroke-linejoin:miter;" x="450.032432" xlink:href="#m7348d6212a" y="192.35027"/>
    </g>
   </g>
   <g id="line2d_16">
    <path clip-path="url(#p13966dbd7d)" d="M 224.821622 361.258378 
" style="fill:none;stroke:#d62728;stroke-linecap:square;stroke-width:1.5;"/>
    <defs>
     <path d="M 0 -5 
L -4.755283 -1.545085 
L -2.938926 4.045085 
L 2.938926 4.045085 
L 4.755283 -1.545085 
z
" id="m66fcacec3b" style="stroke:#2b7ff6;stroke-linejoin:miter;"/>
    </defs>
    <g clip-path="url(#p13966dbd7d)">
     <use style="fill:#2b7ff6;stroke:#2b7ff6;stroke-linejoin:miter;" x="224.821622" xlink:href="#m66fcacec3b" y="361.258378"/>
    </g>
   </g>
   <g id="line2d_17">
    <path clip-path="url(#p13966dbd7d)" d="M 402.175135 440.082162 
" style="fill:none;stroke:#9467bd;stroke-linecap:square;stroke-width:1.5;"/>
    <defs>
     <path d="M -5 5 
L 5 5 
L 5 -5 
L -5 -5 
z
" id="m34bb1e0334" style="stroke:#2adddd;stroke-linejoin:miter;"/>
    </defs>
    <g clip-path="url(#p13966dbd7d)">
     <use style="fill:#2adddd;stroke:#2adddd;stroke-linejoin:miter;" x="402.175135" xlink:href="#m34bb1e0334" y="440.082162"/>
    </g>
   </g>
   <g id="line2d_18">
    <path clip-path="url(#p13966dbd7d)" d="M 224.821622 192.35027 
" style="fill:none;stroke:#8c564b;stroke-linecap:square;stroke-width:1.5;"/>
    <defs>
     <path d="M 0 -5 
L -4.755283 -1.545085 
L -2.938926 4.045085 
L 2.938926 4.045085 
L 4.755283 -1.545085 
z
" id="mc3c74aacea" style="stroke:#2adddd;stroke-linejoin:miter;"/>
    </defs>
    <g clip-path="url(#p13966dbd7d)">
     <use style="fill:#2adddd;stroke:#2adddd;stroke-linejoin:miter;" x="224.821622" xlink:href="#mc3c74aacea" y="192.35027"/>
    </g>
   </g>
   <g id="line2d_19">
    <path clip-path="url(#p13966dbd7d)" d="M 224.821622 136.047568 
" style="fill:none;stroke:#e377c2;stroke-linecap:square;stroke-width:1.5;"/>
    <defs>
     <path d="M -5 5 
L 5 5 
L 5 -5 
L -5 -5 
z
" id="m0e83cf99fa" style="stroke:#80ffb4;stroke-linejoin:miter;"/>
    </defs>
    <g clip-path="url(#p13966dbd7d)">
     <use style="fill:#80ffb4;stroke:#80ffb4;stroke-linejoin:miter;" x="224.821622" xlink:href="#m0e83cf99fa" y="136.047568"/>
    </g>
   </g>
   <g id="line2d_20">
    <path clip-path="url(#p13966dbd7d)" d="M 393.72973 361.258378 
" style="fill:none;stroke:#7f7f7f;stroke-linecap:square;stroke-width:1.5;"/>
    <defs>
     <path d="M 0 -5 
L -4.755283 -1.545085 
L -2.938926 4.045085 
L 2.938926 4.045085 
L 4.755283 -1.545085 
z
" id="m271fef3939" style="stroke:#80ffb4;stroke-linejoin:miter;"/>
    </defs>
    <g clip-path="url(#p13966dbd7d)">
     <use style="fill:#80ffb4;stroke:#80ffb4;stroke-linejoin:miter;" x="393.72973" xlink:href="#m271fef3939" y="361.258378"/>
    </g>
   </g>
   <g id="line2d_21">
    <path clip-path="url(#p13966dbd7d)" d="M 450.032432 304.955676 
" style="fill:none;stroke:#bcbd22;stroke-linecap:square;stroke-width:1.5;"/>
    <defs>
     <path d="M -5 5 
L 5 5 
L 5 -5 
L -5 -5 
z
" id="mb5dca3d778" style="stroke:#d4dd80;stroke-linejoin:miter;"/>
    </defs>
    <g clip-path="url(#p13966dbd7d)">
     <use style="fill:#d4dd80;stroke:#d4dd80;stroke-linejoin:miter;" x="450.032432" xlink:href="#mb5dca3d778" y="304.955676"/>
    </g>
   </g>
   <g id="line2d_22">
    <path clip-path="url(#p13966dbd7d)" d="M 196.67027 248.652973 
" style="fill:none;stroke:#17becf;stroke-linecap:square;stroke-width:1.5;"/>
    <defs>
     <path d="M 0 -5 
L -4.755283 -1.545085 
L -2.938926 4.045085 
L 2.938926 4.045085 
L 4.755283 -1.545085 
z
" id="mce29812aaa" style="stroke:#d4dd80;stroke-linejoin:miter;"/>
    </defs>
    <g clip-path="url(#p13966dbd7d)">
     <use style="fill:#d4dd80;stroke:#d4dd80;stroke-linejoin:miter;" x="196.67027" xlink:href="#mce29812aaa" y="248.652973"/>
    </g>
   </g>
   <g id="line2d_23">
    <path clip-path="url(#p13966dbd7d)" d="M 140.367568 248.652973 
" style="fill:none;stroke:#1f77b4;stroke-linecap:square;stroke-width:1.5;"/>
    <defs>
     <path d="M -5 5 
L 5 5 
L 5 -5 
L -5 -5 
z
" id="m54130811e9" style="stroke:#ff8042;stroke-linejoin:miter;"/>
    </defs>
    <g clip-path="url(#p13966dbd7d)">
     <use style="fill:#ff8042;stroke:#ff8042;stroke-linejoin:miter;" x="140.367568" xlink:href="#m54130811e9" y="248.652973"/>
    </g>
   </g>
   <g id="line2d_24">
    <path clip-path="url(#p13966dbd7d)" d="M 393.72973 276.804324 
" style="fill:none;stroke:#ff7f0e;stroke-linecap:square;stroke-width:1.5;"/>
    <defs>
     <path d="M 0 -5 
L -4.755283 -1.545085 
L -2.938926 4.045085 
L 2.938926 4.045085 
L 4.755283 -1.545085 
z
" id="m0db744f394" style="stroke:#ff8042;stroke-linejoin:miter;"/>
    </defs>
    <g clip-path="url(#p13966dbd7d)">
     <use style="fill:#ff8042;stroke:#ff8042;stroke-linejoin:miter;" x="393.72973" xlink:href="#m0db744f394" y="276.804324"/>
    </g>
   </g>
   <g id="line2d_25">
    <path clip-path="url(#p13966dbd7d)" d="M 281.124324 192.35027 
" style="fill:none;stroke:#2ca02c;stroke-linecap:square;stroke-width:1.5;"/>
    <defs>
     <path d="M -5 5 
L 5 5 
L 5 -5 
L -5 -5 
z
" id="maed948f67c" style="stroke:#ff0000;stroke-linejoin:miter;"/>
    </defs>
    <g clip-path="url(#p13966dbd7d)">
     <use style="fill:#ff0000;stroke:#ff0000;stroke-linejoin:miter;" x="281.124324" xlink:href="#maed948f67c" y="192.35027"/>
    </g>
   </g>
   <g id="line2d_26">
    <path clip-path="url(#p13966dbd7d)" d="M 281.124324 333.107027 
" style="fill:none;stroke:#d62728;stroke-linecap:square;stroke-width:1.5;"/>
    <defs>
     <path d="M 0 -5 
L -4.755283 -1.545085 
L -2.938926 4.045085 
L 2.938926 4.045085 
L 4.755283 -1.545085 
z
" id="m72490b0e93" style="stroke:#ff0000;stroke-linejoin:miter;"/>
    </defs>
    <g clip-path="url(#p13966dbd7d)">
     <use style="fill:#ff0000;stroke:#ff0000;stroke-linejoin:miter;" x="281.124324" xlink:href="#m72490b0e93" y="333.107027"/>
    </g>
   </g>
   <g id="line2d_27">
    <defs>
     <path d="M 0 2.5 
C 0.663008 2.5 1.29895 2.236584 1.767767 1.767767 
C 2.236584 1.29895 2.5 0.663008 2.5 0 
C 2.5 -0.663008 2.236584 -1.29895 1.767767 -1.767767 
C 1.29895 -2.236584 0.663008 -2.5 0 -2.5 
C -0.663008 -2.5 -1.29895 -2.236584 -1.767767 -1.767767 
C -2.236584 -1.29895 -2.5 -0.663008 -2.5 0 
C -2.5 0.663008 -2.236584 1.29895 -1.767767 1.767767 
C -1.29895 2.236584 -0.663008 2.5 0 2.5 
z
" id="m5f840f73f5" style="stroke:#000000;"/>
    </defs>
    <g clip-path="url(#p13966dbd7d)">
     <use style="stroke:#000000;" x="196.67027" xlink:href="#m5f840f73f5" y="389.40973"/>
     <use style="stroke:#000000;" x="196.67027" xlink:href="#m5f840f73f5" y="333.107027"/>
     <use style="stroke:#000000;" x="252.972973" xlink:href="#m5f840f73f5" y="389.40973"/>
     <use style="stroke:#000000;" x="252.972973" xlink:href="#m5f840f73f5" y="333.107027"/>
     <use style="stroke:#000000;" x="309.275676" xlink:href="#m5f840f73f5" y="389.40973"/>
     <use style="stroke:#000000;" x="309.275676" xlink:href="#m5f840f73f5" y="333.107027"/>
     <use style="stroke:#000000;" x="365.578378" xlink:href="#m5f840f73f5" y="389.40973"/>
     <use style="stroke:#000000;" x="365.578378" xlink:href="#m5f840f73f5" y="333.107027"/>
     <use style="stroke:#000000;" x="421.881081" xlink:href="#m5f840f73f5" y="389.40973"/>
     <use style="stroke:#000000;" x="421.881081" xlink:href="#m5f840f73f5" y="333.107027"/>
     <use style="stroke:#000000;" x="196.67027" xlink:href="#m5f840f73f5" y="220.501622"/>
     <use style="stroke:#000000;" x="196.67027" xlink:href="#m5f840f73f5" y="164.198919"/>
     <use style="stroke:#000000;" x="252.972973" xlink:href="#m5f840f73f5" y="220.501622"/>
     <use style="stroke:#000000;" x="252.972973" xlink:href="#m5f840f73f5" y="164.198919"/>
     <use style="stroke:#000000;" x="309.275676" xlink:href="#m5f840f73f5" y="220.501622"/>
     <use style="stroke:#000000;" x="309.275676" xlink:href="#m5f840f73f5" y="164.198919"/>
     <use style="stroke:#000000;" x="365.578378" xlink:href="#m5f840f73f5" y="220.501622"/>
     <use style="stroke:#000000;" x="365.578378" xlink:href="#m5f840f73f5" y="164.198919"/>
     <use style="stroke:#000000;" x="421.881081" xlink:href="#m5f840f73f5" y="220.501622"/>
     <use style="stroke:#000000;" x="421.881081" xlink:href="#m5f840f73f5" y="164.198919"/>
    </g>
   </g>
   <g id="line2d_28">
    <path clip-path="url(#p13966dbd7d)" d="M 212.354595 389.40973 
L 211.504775 384.317038 
L 209.047406 379.776218 
L 205.248783 376.279339 
L 200.520544 374.205342 
L 195.375069 373.778975 
L 190.369949 375.046444 
L 186.047566 377.870397 
L 182.876319 381.944816 
L 181.19986 386.828175 
L 181.19986 391.991285 
L 182.876319 396.874643 
L 186.047566 400.949062 
L 190.369949 403.773016 
L 195.375069 405.040484 
L 200.520544 404.614118 
L 205.248783 402.54012 
L 209.047406 399.043241 
L 211.504775 394.502422 
L 212.354595 389.40973 
" style="fill:none;stroke:#000000;stroke-dasharray:5.55,2.4;stroke-dashoffset:0;stroke-width:1.5;"/>
   </g>
   <g id="line2d_29">
    <path clip-path="url(#p13966dbd7d)" d="M 201.094054 389.40973 
L 200.854361 387.973329 
L 200.161257 386.692585 
L 199.089851 385.706286 
L 197.756245 385.121313 
L 196.304957 385.001055 
L 194.893257 385.358547 
L 193.674123 386.155046 
L 192.779669 387.304241 
L 192.306821 388.681599 
L 192.306821 390.137861 
L 192.779669 391.515218 
L 193.674123 392.664413 
L 194.893257 393.460913 
L 196.304957 393.818404 
L 197.756245 393.698147 
L 199.089851 393.113173 
L 200.161257 392.126874 
L 200.854361 390.84613 
L 201.094054 389.40973 
" style="fill:none;stroke:#ff0000;stroke-linecap:square;stroke-width:1.5;"/>
   </g>
   <g id="line2d_30">
    <path clip-path="url(#p13966dbd7d)" d="M 212.354595 333.107027 
L 211.504775 328.014335 
L 209.047406 323.473516 
L 205.248783 319.976636 
L 200.520544 317.902639 
L 195.375069 317.476273 
L 190.369949 318.743741 
L 186.047566 321.567695 
L 182.876319 325.642114 
L 181.19986 330.525472 
L 181.19986 335.688582 
L 182.876319 340.57194 
L 186.047566 344.646359 
L 190.369949 347.470313 
L 195.375069 348.737781 
L 200.520544 348.311415 
L 205.248783 346.237418 
L 209.047406 342.740538 
L 211.504775 338.199719 
L 212.354595 333.107027 
" style="fill:none;stroke:#000000;stroke-dasharray:5.55,2.4;stroke-dashoffset:0;stroke-width:1.5;"/>
   </g>
   <g id="line2d_31">
    <path clip-path="url(#p13966dbd7d)" d="M 201.094054 333.107027 
L 200.854361 331.670627 
L 200.161257 330.389883 
L 199.089851 329.403584 
L 197.756245 328.81861 
L 196.304957 328.698353 
L 194.893257 329.055844 
L 193.674123 329.852344 
L 192.779669 331.001539 
L 192.306821 332.378896 
L 192.306821 333.835158 
L 192.779669 335.212515 
L 193.674123 336.361711 
L 194.893257 337.15821 
L 196.304957 337.515701 
L 197.756245 337.395444 
L 199.089851 336.810471 
L 200.161257 335.824171 
L 200.854361 334.543427 
L 201.094054 333.107027 
" style="fill:none;stroke:#ff0000;stroke-linecap:square;stroke-width:1.5;"/>
   </g>
   <g id="line2d_32">
    <path clip-path="url(#p13966dbd7d)" d="M 268.657297 389.40973 
L 267.807477 384.317038 
L 265.350109 379.776218 
L 261.551485 376.279339 
L 256.823247 374.205342 
L 251.677772 373.778975 
L 246.672652 375.046444 
L 242.350269 377.870397 
L 239.179021 381.944816 
L 237.502562 386.828175 
L 237.502562 391.991285 
L 239.179021 396.874643 
L 242.350269 400.949062 
L 246.672652 403.773016 
L 251.677772 405.040484 
L 256.823247 404.614118 
L 261.551485 402.54012 
L 265.350109 399.043241 
L 267.807477 394.502422 
L 268.657297 389.40973 
" style="fill:none;stroke:#000000;stroke-dasharray:5.55,2.4;stroke-dashoffset:0;stroke-width:1.5;"/>
   </g>
   <g id="line2d_33">
    <path clip-path="url(#p13966dbd7d)" d="M 257.396757 389.40973 
L 257.157064 387.973329 
L 256.46396 386.692585 
L 255.392553 385.706286 
L 254.058948 385.121313 
L 252.60766 385.001055 
L 251.195959 385.358547 
L 249.976826 386.155046 
L 249.082371 387.304241 
L 248.609524 388.681599 
L 248.609524 390.137861 
L 249.082371 391.515218 
L 249.976826 392.664413 
L 251.195959 393.460913 
L 252.60766 393.818404 
L 254.058948 393.698147 
L 255.392553 393.113173 
L 256.46396 392.126874 
L 257.157064 390.84613 
L 257.396757 389.40973 
" style="fill:none;stroke:#ff0000;stroke-linecap:square;stroke-width:1.5;"/>
   </g>
   <g id="line2d_34">
    <path clip-path="url(#p13966dbd7d)" d="M 268.657297 333.107027 
L 267.807477 328.014335 
L 265.350109 323.473516 
L 261.551485 319.976636 
L 256.823247 317.902639 
L 251.677772 317.476273 
L 246.672652 318.743741 
L 242.350269 321.567695 
L 239.179021 325.642114 
L 237.502562 330.525472 
L 237.502562 335.688582 
L 239.179021 340.57194 
L 242.350269 344.646359 
L 246.672652 347.470313 
L 251.677772 348.737781 
L 256.823247 348.311415 
L 261.551485 346.237418 
L 265.350109 342.740538 
L 267.807477 338.199719 
L 268.657297 333.107027 
" style="fill:none;stroke:#000000;stroke-dasharray:5.55,2.4;stroke-dashoffset:0;stroke-width:1.5;"/>
   </g>
   <g id="line2d_35">
    <path clip-path="url(#p13966dbd7d)" d="M 257.396757 333.107027 
L 257.157064 331.670627 
L 256.46396 330.389883 
L 255.392553 329.403584 
L 254.058948 328.81861 
L 252.60766 328.698353 
L 251.195959 329.055844 
L 249.976826 329.852344 
L 249.082371 331.001539 
L 248.609524 332.378896 
L 248.609524 333.835158 
L 249.082371 335.212515 
L 249.976826 336.361711 
L 251.195959 337.15821 
L 252.60766 337.515701 
L 254.058948 337.395444 
L 255.392553 336.810471 
L 256.46396 335.824171 
L 257.157064 334.543427 
L 257.396757 333.107027 
" style="fill:none;stroke:#ff0000;stroke-linecap:square;stroke-width:1.5;"/>
   </g>
   <g id="line2d_36">
    <path clip-path="url(#p13966dbd7d)" d="M 324.96 389.40973 
L 324.11018 384.317038 
L 321.652811 379.776218 
L 317.854188 376.279339 
L 313.12595 374.205342 
L 307.980474 373.778975 
L 302.975354 375.046444 
L 298.652972 377.870397 
L 295.481724 381.944816 
L 293.805265 386.828175 
L 293.805265 391.991285 
L 295.481724 396.874643 
L 298.652972 400.949062 
L 302.975354 403.773016 
L 307.980474 405.040484 
L 313.12595 404.614118 
L 317.854188 402.54012 
L 321.652811 399.043241 
L 324.11018 394.502422 
L 324.96 389.40973 
" style="fill:none;stroke:#000000;stroke-dasharray:5.55,2.4;stroke-dashoffset:0;stroke-width:1.5;"/>
   </g>
   <g id="line2d_37">
    <path clip-path="url(#p13966dbd7d)" d="M 313.699459 389.40973 
L 313.459767 387.973329 
L 312.766663 386.692585 
L 311.695256 385.706286 
L 310.36165 385.121313 
L 308.910363 385.001055 
L 307.498662 385.358547 
L 306.279528 386.155046 
L 305.385074 387.304241 
L 304.912227 388.681599 
L 304.912227 390.137861 
L 305.385074 391.515218 
L 306.279528 392.664413 
L 307.498662 393.460913 
L 308.910363 393.818404 
L 310.36165 393.698147 
L 311.695256 393.113173 
L 312.766663 392.126874 
L 313.459767 390.84613 
L 313.699459 389.40973 
" style="fill:none;stroke:#ff0000;stroke-linecap:square;stroke-width:1.5;"/>
   </g>
   <g id="line2d_38">
    <path clip-path="url(#p13966dbd7d)" d="M 324.96 333.107027 
L 324.11018 328.014335 
L 321.652811 323.473516 
L 317.854188 319.976636 
L 313.12595 317.902639 
L 307.980474 317.476273 
L 302.975354 318.743741 
L 298.652972 321.567695 
L 295.481724 325.642114 
L 293.805265 330.525472 
L 293.805265 335.688582 
L 295.481724 340.57194 
L 298.652972 344.646359 
L 302.975354 347.470313 
L 307.980474 348.737781 
L 313.12595 348.311415 
L 317.854188 346.237418 
L 321.652811 342.740538 
L 324.11018 338.199719 
L 324.96 333.107027 
" style="fill:none;stroke:#000000;stroke-dasharray:5.55,2.4;stroke-dashoffset:0;stroke-width:1.5;"/>
   </g>
   <g id="line2d_39">
    <path clip-path="url(#p13966dbd7d)" d="M 313.699459 333.107027 
L 313.459767 331.670627 
L 312.766663 330.389883 
L 311.695256 329.403584 
L 310.36165 328.81861 
L 308.910363 328.698353 
L 307.498662 329.055844 
L 306.279528 329.852344 
L 305.385074 331.001539 
L 304.912227 332.378896 
L 304.912227 333.835158 
L 305.385074 335.212515 
L 306.279528 336.361711 
L 307.498662 337.15821 
L 308.910363 337.515701 
L 310.36165 337.395444 
L 311.695256 336.810471 
L 312.766663 335.824171 
L 313.459767 334.543427 
L 313.699459 333.107027 
" style="fill:none;stroke:#ff0000;stroke-linecap:square;stroke-width:1.5;"/>
   </g>
   <g id="line2d_40">
    <path clip-path="url(#p13966dbd7d)" d="M 381.262703 389.40973 
L 380.412883 384.317038 
L 377.955514 379.776218 
L 374.156891 376.279339 
L 369.428652 374.205342 
L 364.283177 373.778975 
L 359.278057 375.046444 
L 354.955675 377.870397 
L 351.784427 381.944816 
L 350.107968 386.828175 
L 350.107968 391.991285 
L 351.784427 396.874643 
L 354.955675 400.949062 
L 359.278057 403.773016 
L 364.283177 405.040484 
L 369.428652 404.614118 
L 374.156891 402.54012 
L 377.955514 399.043241 
L 380.412883 394.502422 
L 381.262703 389.40973 
" style="fill:none;stroke:#000000;stroke-dasharray:5.55,2.4;stroke-dashoffset:0;stroke-width:1.5;"/>
   </g>
   <g id="line2d_41">
    <path clip-path="url(#p13966dbd7d)" d="M 370.002162 389.40973 
L 369.762469 387.973329 
L 369.069365 386.692585 
L 367.997959 385.706286 
L 366.664353 385.121313 
L 365.213065 385.001055 
L 363.801365 385.358547 
L 362.582231 386.155046 
L 361.687777 387.304241 
L 361.214929 388.681599 
L 361.214929 390.137861 
L 361.687777 391.515218 
L 362.582231 392.664413 
L 363.801365 393.460913 
L 365.213065 393.818404 
L 366.664353 393.698147 
L 367.997959 393.113173 
L 369.069365 392.126874 
L 369.762469 390.84613 
L 370.002162 389.40973 
" style="fill:none;stroke:#ff0000;stroke-linecap:square;stroke-width:1.5;"/>
   </g>
   <g id="line2d_42">
    <path clip-path="url(#p13966dbd7d)" d="M 381.262703 333.107027 
L 380.412883 328.014335 
L 377.955514 323.473516 
L 374.156891 319.976636 
L 369.428652 317.902639 
L 364.283177 317.476273 
L 359.278057 318.743741 
L 354.955675 321.567695 
L 351.784427 325.642114 
L 350.107968 330.525472 
L 350.107968 335.688582 
L 351.784427 340.57194 
L 354.955675 344.646359 
L 359.278057 347.470313 
L 364.283177 348.737781 
L 369.428652 348.311415 
L 374.156891 346.237418 
L 377.955514 342.740538 
L 380.412883 338.199719 
L 381.262703 333.107027 
" style="fill:none;stroke:#000000;stroke-dasharray:5.55,2.4;stroke-dashoffset:0;stroke-width:1.5;"/>
   </g>
   <g id="line2d_43">
    <path clip-path="url(#p13966dbd7d)" d="M 370.002162 333.107027 
L 369.762469 331.670627 
L 369.069365 330.389883 
L 367.997959 329.403584 
L 366.664353 328.81861 
L 365.213065 328.698353 
L 363.801365 329.055844 
L 362.582231 329.852344 
L 361.687777 331.001539 
L 361.214929 332.378896 
L 361.214929 333.835158 
L 361.687777 335.212515 
L 362.582231 336.361711 
L 363.801365 337.15821 
L 365.213065 337.515701 
L 366.664353 337.395444 
L 367.997959 336.810471 
L 369.069365 335.824171 
L 369.762469 334.543427 
L 370.002162 333.107027 
" style="fill:none;stroke:#ff0000;stroke-linecap:square;stroke-width:1.5;"/>
   </g>
   <g id="line2d_44">
    <path clip-path="url(#p13966dbd7d)" d="M 437.565405 389.40973 
L 436.715585 384.317038 
L 434.258217 379.776218 
L 430.459593 376.279339 
L 425.731355 374.205342 
L 420.58588 373.778975 
L 415.58076 375.046444 
L 411.258377 377.870397 
L 408.08713 381.944816 
L 406.41067 386.828175 
L 406.41067 391.991285 
L 408.08713 396.874643 
L 411.258377 400.949062 
L 415.58076 403.773016 
L 420.58588 405.040484 
L 425.731355 404.614118 
L 430.459593 402.54012 
L 434.258217 399.043241 
L 436.715585 394.502422 
L 437.565405 389.40973 
" style="fill:none;stroke:#000000;stroke-dasharray:5.55,2.4;stroke-dashoffset:0;stroke-width:1.5;"/>
   </g>
   <g id="line2d_45">
    <path clip-path="url(#p13966dbd7d)" d="M 426.304865 389.40973 
L 426.065172 387.973329 
L 425.372068 386.692585 
L 424.300661 385.706286 
L 422.967056 385.121313 
L 421.515768 385.001055 
L 420.104067 385.358547 
L 418.884934 386.155046 
L 417.990479 387.304241 
L 417.517632 388.681599 
L 417.517632 390.137861 
L 417.990479 391.515218 
L 418.884934 392.664413 
L 420.104067 393.460913 
L 421.515768 393.818404 
L 422.967056 393.698147 
L 424.300661 393.113173 
L 425.372068 392.126874 
L 426.065172 390.84613 
L 426.304865 389.40973 
" style="fill:none;stroke:#ff0000;stroke-linecap:square;stroke-width:1.5;"/>
   </g>
   <g id="line2d_46">
    <path clip-path="url(#p13966dbd7d)" d="M 437.565405 333.107027 
L 436.715585 328.014335 
L 434.258217 323.473516 
L 430.459593 319.976636 
L 425.731355 317.902639 
L 420.58588 317.476273 
L 415.58076 318.743741 
L 411.258377 321.567695 
L 408.08713 325.642114 
L 406.41067 330.525472 
L 406.41067 335.688582 
L 408.08713 340.57194 
L 411.258377 344.646359 
L 415.58076 347.470313 
L 420.58588 348.737781 
L 425.731355 348.311415 
L 430.459593 346.237418 
L 434.258217 342.740538 
L 436.715585 338.199719 
L 437.565405 333.107027 
" style="fill:none;stroke:#000000;stroke-dasharray:5.55,2.4;stroke-dashoffset:0;stroke-width:1.5;"/>
   </g>
   <g id="line2d_47">
    <path clip-path="url(#p13966dbd7d)" d="M 426.304865 333.107027 
L 426.065172 331.670627 
L 425.372068 330.389883 
L 424.300661 329.403584 
L 422.967056 328.81861 
L 421.515768 328.698353 
L 420.104067 329.055844 
L 418.884934 329.852344 
L 417.990479 331.001539 
L 417.517632 332.378896 
L 417.517632 333.835158 
L 417.990479 335.212515 
L 418.884934 336.361711 
L 420.104067 337.15821 
L 421.515768 337.515701 
L 422.967056 337.395444 
L 424.300661 336.810471 
L 425.372068 335.824171 
L 426.065172 334.543427 
L 426.304865 333.107027 
" style="fill:none;stroke:#ff0000;stroke-linecap:square;stroke-width:1.5;"/>
   </g>
   <g id="line2d_48">
    <path clip-path="url(#p13966dbd7d)" d="M 212.354595 220.501622 
L 211.504775 215.40893 
L 209.047406 210.86811 
L 205.248783 207.371231 
L 200.520544 205.297233 
L 195.375069 204.870867 
L 190.369949 206.138336 
L 186.047566 208.962289 
L 182.876319 213.036708 
L 181.19986 217.920067 
L 181.19986 223.083177 
L 182.876319 227.966535 
L 186.047566 232.040954 
L 190.369949 234.864907 
L 195.375069 236.132376 
L 200.520544 235.70601 
L 205.248783 233.632012 
L 209.047406 230.135133 
L 211.504775 225.594313 
L 212.354595 220.501622 
" style="fill:none;stroke:#000000;stroke-dasharray:5.55,2.4;stroke-dashoffset:0;stroke-width:1.5;"/>
   </g>
   <g id="line2d_49">
    <path clip-path="url(#p13966dbd7d)" d="M 201.094054 220.501622 
L 200.854361 219.065221 
L 200.161257 217.784477 
L 199.089851 216.798178 
L 197.756245 216.213204 
L 196.304957 216.092947 
L 194.893257 216.450438 
L 193.674123 217.246938 
L 192.779669 218.396133 
L 192.306821 219.773491 
L 192.306821 221.229753 
L 192.779669 222.60711 
L 193.674123 223.756305 
L 194.893257 224.552805 
L 196.304957 224.910296 
L 197.756245 224.790039 
L 199.089851 224.205065 
L 200.161257 223.218766 
L 200.854361 221.938022 
L 201.094054 220.501622 
" style="fill:none;stroke:#ff0000;stroke-linecap:square;stroke-width:1.5;"/>
   </g>
   <g id="line2d_50">
    <path clip-path="url(#p13966dbd7d)" d="M 212.354595 164.198919 
L 211.504775 159.106227 
L 209.047406 154.565408 
L 205.248783 151.068528 
L 200.520544 148.994531 
L 195.375069 148.568165 
L 190.369949 149.835633 
L 186.047566 152.659586 
L 182.876319 156.734006 
L 181.19986 161.617364 
L 181.19986 166.780474 
L 182.876319 171.663832 
L 186.047566 175.738251 
L 190.369949 178.562205 
L 195.375069 179.829673 
L 200.520544 179.403307 
L 205.248783 177.329309 
L 209.047406 173.83243 
L 211.504775 169.291611 
L 212.354595 164.198919 
" style="fill:none;stroke:#000000;stroke-dasharray:5.55,2.4;stroke-dashoffset:0;stroke-width:1.5;"/>
   </g>
   <g id="line2d_51">
    <path clip-path="url(#p13966dbd7d)" d="M 201.094054 164.198919 
L 200.854361 162.762519 
L 200.161257 161.481775 
L 199.089851 160.495475 
L 197.756245 159.910502 
L 196.304957 159.790245 
L 194.893257 160.147736 
L 193.674123 160.944235 
L 192.779669 162.093431 
L 192.306821 163.470788 
L 192.306821 164.92705 
L 192.779669 166.304407 
L 193.674123 167.453602 
L 194.893257 168.250102 
L 196.304957 168.607593 
L 197.756245 168.487336 
L 199.089851 167.902362 
L 200.161257 166.916063 
L 200.854361 165.635319 
L 201.094054 164.198919 
" style="fill:none;stroke:#ff0000;stroke-linecap:square;stroke-width:1.5;"/>
   </g>
   <g id="line2d_52">
    <path clip-path="url(#p13966dbd7d)" d="M 268.657297 220.501622 
L 267.807477 215.40893 
L 265.350109 210.86811 
L 261.551485 207.371231 
L 256.823247 205.297233 
L 251.677772 204.870867 
L 246.672652 206.138336 
L 242.350269 208.962289 
L 239.179021 213.036708 
L 237.502562 217.920067 
L 237.502562 223.083177 
L 239.179021 227.966535 
L 242.350269 232.040954 
L 246.672652 234.864907 
L 251.677772 236.132376 
L 256.823247 235.70601 
L 261.551485 233.632012 
L 265.350109 230.135133 
L 267.807477 225.594313 
L 268.657297 220.501622 
" style="fill:none;stroke:#000000;stroke-dasharray:5.55,2.4;stroke-dashoffset:0;stroke-width:1.5;"/>
   </g>
   <g id="line2d_53">
    <path clip-path="url(#p13966dbd7d)" d="M 257.396757 220.501622 
L 257.157064 219.065221 
L 256.46396 217.784477 
L 255.392553 216.798178 
L 254.058948 216.213204 
L 252.60766 216.092947 
L 251.195959 216.450438 
L 249.976826 217.246938 
L 249.082371 218.396133 
L 248.609524 219.773491 
L 248.609524 221.229753 
L 249.082371 222.60711 
L 249.976826 223.756305 
L 251.195959 224.552805 
L 252.60766 224.910296 
L 254.058948 224.790039 
L 255.392553 224.205065 
L 256.46396 223.218766 
L 257.157064 221.938022 
L 257.396757 220.501622 
" style="fill:none;stroke:#ff0000;stroke-linecap:square;stroke-width:1.5;"/>
   </g>
   <g id="line2d_54">
    <path clip-path="url(#p13966dbd7d)" d="M 268.657297 164.198919 
L 267.807477 159.106227 
L 265.350109 154.565408 
L 261.551485 151.068528 
L 256.823247 148.994531 
L 251.677772 148.568165 
L 246.672652 149.835633 
L 242.350269 152.659586 
L 239.179021 156.734006 
L 237.502562 161.617364 
L 237.502562 166.780474 
L 239.179021 171.663832 
L 242.350269 175.738251 
L 246.672652 178.562205 
L 251.677772 179.829673 
L 256.823247 179.403307 
L 261.551485 177.329309 
L 265.350109 173.83243 
L 267.807477 169.291611 
L 268.657297 164.198919 
" style="fill:none;stroke:#000000;stroke-dasharray:5.55,2.4;stroke-dashoffset:0;stroke-width:1.5;"/>
   </g>
   <g id="line2d_55">
    <path clip-path="url(#p13966dbd7d)" d="M 257.396757 164.198919 
L 257.157064 162.762519 
L 256.46396 161.481775 
L 255.392553 160.495475 
L 254.058948 159.910502 
L 252.60766 159.790245 
L 251.195959 160.147736 
L 249.976826 160.944235 
L 249.082371 162.093431 
L 248.609524 163.470788 
L 248.609524 164.92705 
L 249.082371 166.304407 
L 249.976826 167.453602 
L 251.195959 168.250102 
L 252.60766 168.607593 
L 254.058948 168.487336 
L 255.392553 167.902362 
L 256.46396 166.916063 
L 257.157064 165.635319 
L 257.396757 164.198919 
" style="fill:none;stroke:#ff0000;stroke-linecap:square;stroke-width:1.5;"/>
   </g>
   <g id="line2d_56">
    <path clip-path="url(#p13966dbd7d)" d="M 324.96 220.501622 
L 324.11018 215.40893 
L 321.652811 210.86811 
L 317.854188 207.371231 
L 313.12595 205.297233 
L 307.980474 204.870867 
L 302.975354 206.138336 
L 298.652972 208.962289 
L 295.481724 213.036708 
L 293.805265 217.920067 
L 293.805265 223.083177 
L 295.481724 227.966535 
L 298.652972 232.040954 
L 302.975354 234.864907 
L 307.980474 236.132376 
L 313.12595 235.70601 
L 317.854188 233.632012 
L 321.652811 230.135133 
L 324.11018 225.594313 
L 324.96 220.501622 
" style="fill:none;stroke:#000000;stroke-dasharray:5.55,2.4;stroke-dashoffset:0;stroke-width:1.5;"/>
   </g>
   <g id="line2d_57">
    <path clip-path="url(#p13966dbd7d)" d="M 313.699459 220.501622 
L 313.459767 219.065221 
L 312.766663 217.784477 
L 311.695256 216.798178 
L 310.36165 216.213204 
L 308.910363 216.092947 
L 307.498662 216.450438 
L 306.279528 217.246938 
L 305.385074 218.396133 
L 304.912227 219.773491 
L 304.912227 221.229753 
L 305.385074 222.60711 
L 306.279528 223.756305 
L 307.498662 224.552805 
L 308.910363 224.910296 
L 310.36165 224.790039 
L 311.695256 224.205065 
L 312.766663 223.218766 
L 313.459767 221.938022 
L 313.699459 220.501622 
" style="fill:none;stroke:#ff0000;stroke-linecap:square;stroke-width:1.5;"/>
   </g>
   <g id="line2d_58">
    <path clip-path="url(#p13966dbd7d)" d="M 324.96 164.198919 
L 324.11018 159.106227 
L 321.652811 154.565408 
L 317.854188 151.068528 
L 313.12595 148.994531 
L 307.980474 148.568165 
L 302.975354 149.835633 
L 298.652972 152.659586 
L 295.481724 156.734006 
L 293.805265 161.617364 
L 293.805265 166.780474 
L 295.481724 171.663832 
L 298.652972 175.738251 
L 302.975354 178.562205 
L 307.980474 179.829673 
L 313.12595 179.403307 
L 317.854188 177.329309 
L 321.652811 173.83243 
L 324.11018 169.291611 
L 324.96 164.198919 
" style="fill:none;stroke:#000000;stroke-dasharray:5.55,2.4;stroke-dashoffset:0;stroke-width:1.5;"/>
   </g>
   <g id="line2d_59">
    <path clip-path="url(#p13966dbd7d)" d="M 313.699459 164.198919 
L 313.459767 162.762519 
L 312.766663 161.481775 
L 311.695256 160.495475 
L 310.36165 159.910502 
L 308.910363 159.790245 
L 307.498662 160.147736 
L 306.279528 160.944235 
L 305.385074 162.093431 
L 304.912227 163.470788 
L 304.912227 164.92705 
L 305.385074 166.304407 
L 306.279528 167.453602 
L 307.498662 168.250102 
L 308.910363 168.607593 
L 310.36165 168.487336 
L 311.695256 167.902362 
L 312.766663 166.916063 
L 313.459767 165.635319 
L 313.699459 164.198919 
" style="fill:none;stroke:#ff0000;stroke-linecap:square;stroke-width:1.5;"/>
   </g>
   <g id="line2d_60">
    <path clip-path="url(#p13966dbd7d)" d="M 381.262703 220.501622 
L 380.412883 215.40893 
L 377.955514 210.86811 
L 374.156891 207.371231 
L 369.428652 205.297233 
L 364.283177 204.870867 
L 359.278057 206.138336 
L 354.955675 208.962289 
L 351.784427 213.036708 
L 350.107968 217.920067 
L 350.107968 223.083177 
L 351.784427 227.966535 
L 354.955675 232.040954 
L 359.278057 234.864907 
L 364.283177 236.132376 
L 369.428652 235.70601 
L 374.156891 233.632012 
L 377.955514 230.135133 
L 380.412883 225.594313 
L 381.262703 220.501622 
" style="fill:none;stroke:#000000;stroke-dasharray:5.55,2.4;stroke-dashoffset:0;stroke-width:1.5;"/>
   </g>
   <g id="line2d_61">
    <path clip-path="url(#p13966dbd7d)" d="M 370.002162 220.501622 
L 369.762469 219.065221 
L 369.069365 217.784477 
L 367.997959 216.798178 
L 366.664353 216.213204 
L 365.213065 216.092947 
L 363.801365 216.450438 
L 362.582231 217.246938 
L 361.687777 218.396133 
L 361.214929 219.773491 
L 361.214929 221.229753 
L 361.687777 222.60711 
L 362.582231 223.756305 
L 363.801365 224.552805 
L 365.213065 224.910296 
L 366.664353 224.790039 
L 367.997959 224.205065 
L 369.069365 223.218766 
L 369.762469 221.938022 
L 370.002162 220.501622 
" style="fill:none;stroke:#ff0000;stroke-linecap:square;stroke-width:1.5;"/>
   </g>
   <g id="line2d_62">
    <path clip-path="url(#p13966dbd7d)" d="M 381.262703 164.198919 
L 380.412883 159.106227 
L 377.955514 154.565408 
L 374.156891 151.068528 
L 369.428652 148.994531 
L 364.283177 148.568165 
L 359.278057 149.835633 
L 354.955675 152.659586 
L 351.784427 156.734006 
L 350.107968 161.617364 
L 350.107968 166.780474 
L 351.784427 171.663832 
L 354.955675 175.738251 
L 359.278057 178.562205 
L 364.283177 179.829673 
L 369.428652 179.403307 
L 374.156891 177.329309 
L 377.955514 173.83243 
L 380.412883 169.291611 
L 381.262703 164.198919 
" style="fill:none;stroke:#000000;stroke-dasharray:5.55,2.4;stroke-dashoffset:0;stroke-width:1.5;"/>
   </g>
   <g id="line2d_63">
    <path clip-path="url(#p13966dbd7d)" d="M 370.002162 164.198919 
L 369.762469 162.762519 
L 369.069365 161.481775 
L 367.997959 160.495475 
L 366.664353 159.910502 
L 365.213065 159.790245 
L 363.801365 160.147736 
L 362.582231 160.944235 
L 361.687777 162.093431 
L 361.214929 163.470788 
L 361.214929 164.92705 
L 361.687777 166.304407 
L 362.582231 167.453602 
L 363.801365 168.250102 
L 365.213065 168.607593 
L 366.664353 168.487336 
L 367.997959 167.902362 
L 369.069365 166.916063 
L 369.762469 165.635319 
L 370.002162 164.198919 
" style="fill:none;stroke:#ff0000;stroke-linecap:square;stroke-width:1.5;"/>
   </g>
   <g id="line2d_64">
    <path clip-path="url(#p13966dbd7d)" d="M 437.565405 220.501622 
L 436.715585 215.40893 
L 434.258217 210.86811 
L 430.459593 207.371231 
L 425.731355 205.297233 
L 420.58588 204.870867 
L 415.58076 206.138336 
L 411.258377 208.962289 
L 408.08713 213.036708 
L 406.41067 217.920067 
L 406.41067 223.083177 
L 408.08713 227.966535 
L 411.258377 232.040954 
L 415.58076 234.864907 
L 420.58588 236.132376 
L 425.731355 235.70601 
L 430.459593 233.632012 
L 434.258217 230.135133 
L 436.715585 225.594313 
L 437.565405 220.501622 
" style="fill:none;stroke:#000000;stroke-dasharray:5.55,2.4;stroke-dashoffset:0;stroke-width:1.5;"/>
   </g>
   <g id="line2d_65">
    <path clip-path="url(#p13966dbd7d)" d="M 426.304865 220.501622 
L 426.065172 219.065221 
L 425.372068 217.784477 
L 424.300661 216.798178 
L 422.967056 216.213204 
L 421.515768 216.092947 
L 420.104067 216.450438 
L 418.884934 217.246938 
L 417.990479 218.396133 
L 417.517632 219.773491 
L 417.517632 221.229753 
L 417.990479 222.60711 
L 418.884934 223.756305 
L 420.104067 224.552805 
L 421.515768 224.910296 
L 422.967056 224.790039 
L 424.300661 224.205065 
L 425.372068 223.218766 
L 426.065172 221.938022 
L 426.304865 220.501622 
" style="fill:none;stroke:#ff0000;stroke-linecap:square;stroke-width:1.5;"/>
   </g>
   <g id="line2d_66">
    <path clip-path="url(#p13966dbd7d)" d="M 437.565405 164.198919 
L 436.715585 159.106227 
L 434.258217 154.565408 
L 430.459593 151.068528 
L 425.731355 148.994531 
L 420.58588 148.568165 
L 415.58076 149.835633 
L 411.258377 152.659586 
L 408.08713 156.734006 
L 406.41067 161.617364 
L 406.41067 166.780474 
L 408.08713 171.663832 
L 411.258377 175.738251 
L 415.58076 178.562205 
L 420.58588 179.829673 
L 425.731355 179.403307 
L 430.459593 177.329309 
L 434.258217 173.83243 
L 436.715585 169.291611 
L 437.565405 164.198919 
" style="fill:none;stroke:#000000;stroke-dasharray:5.55,2.4;stroke-dashoffset:0;stroke-width:1.5;"/>
   </g>
   <g id="line2d_67">
    <path clip-path="url(#p13966dbd7d)" d="M 426.304865 164.198919 
L 426.065172 162.762519 
L 425.372068 161.481775 
L 424.300661 160.495475 
L 422.967056 159.910502 
L 421.515768 159.790245 
L 420.104067 160.147736 
L 418.884934 160.944235 
L 417.990479 162.093431 
L 417.517632 163.470788 
L 417.517632 164.92705 
L 417.990479 166.304407 
L 418.884934 167.453602 
L 420.104067 168.250102 
L 421.515768 168.607593 
L 422.967056 168.487336 
L 424.300661 167.902362 
L 425.372068 166.916063 
L 426.065172 165.635319 
L 426.304865 164.198919 
" style="fill:none;stroke:#ff0000;stroke-linecap:square;stroke-width:1.5;"/>
   </g>
   <g id="line2d_68">
    <path clip-path="url(#p13966dbd7d)" d="M 92.108108 493.971892 
L 92.108108 87.788108 
" style="fill:none;stroke:#000000;stroke-linecap:square;stroke-width:4;"/>
   </g>
   <g id="line2d_69">
    <path clip-path="url(#p13966dbd7d)" d="M 92.108108 87.788108 
L 498.291892 87.788108 
" style="fill:none;stroke:#000000;stroke-linecap:square;stroke-width:4;"/>
   </g>
   <g id="line2d_70">
    <path clip-path="url(#p13966dbd7d)" d="M 498.291892 87.788108 
L 498.291892 493.971892 
" style="fill:none;stroke:#000000;stroke-linecap:square;stroke-width:4;"/>
   </g>
   <g id="line2d_71">
    <path clip-path="url(#p13966dbd7d)" d="M 498.291892 493.971892 
L 92.108108 493.971892 
" style="fill:none;stroke:#000000;stroke-linecap:square;stroke-width:4;"/>
   </g>
   <g id="line2d_72">
    <path clip-path="url(#p13966dbd7d)" d="M 140.367568 389.40973 
L 141.61427 389.369514 
L 143.062054 389.088 
L 144.228324 388.605405 
L 145.314162 388.002162 
L 147.606486 386.232649 
L 157.258378 378.591568 
L 175.596973 364.153946 
L 182.594595 358.644324 
L 184.243459 357.679135 
L 185.530378 357.116108 
L 202.944 351.727135 
L 205.92 350.520649 
L 208.534054 349.273946 
L 211.268757 347.625081 
L 213.440432 346.056649 
L 215.893622 344.045838 
L 219.110919 340.828541 
L 222.046703 337.651459 
L 224.540108 335.560216 
L 225.545514 334.514595 
L 226.470486 333.227676 
L 228.119351 330.452757 
L 229.929081 327.75827 
L 233.669189 322.530162 
L 235.68 319.996541 
L 236.765838 318.749838 
L 237.851676 317.865081 
L 239.339676 317.060757 
L 240.626595 316.618378 
L 243.763459 315.974919 
L 245.211243 315.452108 
L 248.911135 313.441297 
L 250.56 312.998919 
L 253.576216 312.838054 
L 256.753297 312.677189 
L 263.992216 312.03373 
L 265.359568 312.114162 
L 268.657297 312.838054 
L 269.863784 312.918486 
L 274.006054 312.476108 
L 274.649514 312.556541 
L 274.649514 312.476108 
L 274.770162 312.797838 
L 274.770162 312.87827 
L 274.04627 314.084757 
L 274.04627 314.044541 
L 274.04627 314.205405 
L 273.965838 314.044541 
L 273.724541 313.923892 
L 273.644108 313.923892 
L 274.006054 313.843459 
L 275.172324 313.401081 
L 276.499459 312.596757 
L 277.424432 311.712 
L 278.389622 310.505514 
L 278.952649 309.379459 
L 279.395027 307.891459 
L 279.515676 306.363243 
L 279.314595 301.859027 
L 279.958054 295.424432 
L 280.279784 292.729946 
L 280.963459 288.22573 
L 281.244973 285.812757 
L 281.124324 284.686703 
L 280.681946 283.319351 
L 280.32 281.791135 
L 280.239568 280.383568 
L 280.400432 278.694486 
L 281.285189 273.385946 
L 281.848216 270.490378 
L 282.97427 266.066595 
L 283.778595 263.211243 
L 284.542703 261.683027 
L 287.036108 258.224432 
L 287.719784 256.776649 
L 288.121946 255.288649 
L 288.684973 252.352865 
L 289.248 250.784432 
L 289.811027 249.819243 
L 290.655568 248.733405 
L 291.701189 247.768216 
L 294.476108 246.079135 
L 295.883676 245.274811 
L 299.704216 243.666162 
L 301.111784 242.902054 
L 302.398703 242.339027 
L 303.967135 241.816216 
L 307.144216 241.092324 
L 314.22227 239.765189 
L 317.278703 238.880432 
L 318.565622 238.47827 
L 321.260108 237.352216 
L 324.075243 235.904432 
L 326.809946 234.255568 
L 330.429405 231.561081 
L 332.802162 229.55027 
L 335.577081 227.780757 
L 338.311784 226.131892 
L 339.478054 225.166703 
L 341.287784 222.633081 
L 342.816 220.421189 
L 346.757189 214.992 
L 350.939676 209.080216 
L 353.111351 206.627027 
L 355.323243 204.616216 
L 357.977514 202.726054 
L 360.832865 201.157622 
L 363.849081 199.910919 
L 366.704432 199.066378 
L 369.519568 198.262054 
L 373.340108 196.975135 
L 376.436757 196.130595 
L 391.92 192.752432 
L 391.92 192.752432 
" style="fill:none;stroke:#8000ff;stroke-linecap:square;stroke-width:1.5;"/>
   </g>
   <g id="line2d_73">
    <path clip-path="url(#p13966dbd7d)" d="M 450.032432 192.35027 
L 450.233514 192.430703 
L 450.354162 192.511135 
L 450.555243 193.235027 
L 450.595459 194.16 
L 450.434595 195.366486 
L 450.032432 196.572973 
L 449.268324 198.020757 
L 448.182486 199.347892 
L 445.890162 201.157622 
L 443.235892 203.007568 
L 441.989189 203.731459 
L 440.420757 204.294486 
L 438.771892 204.576 
L 433.90573 204.978162 
L 430.92973 204.89773 
L 427.95373 204.294486 
L 423.811459 203.369514 
L 421.197405 203.128216 
L 418.543135 203.208649 
L 416.974703 203.369514 
L 413.878054 204.093405 
L 411.143351 205.058595 
L 408.328216 206.506378 
L 405.875027 208.074811 
L 403.783784 209.683459 
L 401.411027 211.855135 
L 399.561081 213.745297 
L 395.257946 218.732108 
L 394.051459 219.817946 
L 393.046054 220.984216 
L 389.064649 227.056865 
L 385.485405 231.721946 
L 382.509405 235.220757 
L 379.091027 238.639135 
L 376.838919 240.60973 
L 374.305297 242.620541 
L 370.444541 245.435676 
L 361.757838 252.553946 
L 360.792649 253.720216 
L 360.149189 254.84627 
L 359.586162 256.294054 
L 358.902486 259.390703 
L 357.173189 264.819892 
L 353.714595 274.592432 
L 353.433081 276.080432 
L 353.433081 279.820541 
L 353.674378 281.952 
L 354.076541 283.279135 
L 354.679784 284.405189 
L 355.604757 285.611676 
L 356.771027 286.617081 
L 357.897081 287.260541 
L 359.103568 287.702919 
L 360.591568 287.944216 
L 363.768649 287.984432 
L 367.629405 288.587676 
L 367.951135 288.788757 
L 368.554378 289.392 
L 369.318486 290.55827 
L 369.961946 292.126703 
L 370.283676 293.775568 
L 370.283676 295.183135 
L 370.002162 296.832 
L 368.996757 299.325405 
L 365.296865 307.650162 
L 362.803459 312.636973 
L 361.757838 315.814054 
L 361.074162 317.060757 
L 359.988324 318.307459 
L 359.103568 319.071568 
L 358.01773 319.634595 
L 354.036324 320.921514 
L 352.91027 321.605189 
L 351.744 322.530162 
L 350.497297 323.334486 
L 349.250595 323.93773 
L 345.188757 325.104 
L 342.534486 326.390919 
L 336.944432 327.999568 
L 335.577081 328.683243 
L 334.531459 329.407135 
L 332.239135 331.659243 
L 328.539243 334.796108 
L 326.729514 336.68627 
L 324.879568 338.938378 
L 324.035027 340.225297 
L 323.472 341.391568 
L 322.949189 342.919784 
L 322.265514 344.367568 
L 321.300324 345.734919 
L 320.335135 346.740324 
L 316.916757 349.716324 
L 314.785297 351.485838 
L 312.010378 353.134703 
L 310.562595 353.898811 
L 307.546378 355.145514 
L 304.44973 356.110703 
L 300.066162 357.317189 
L 297.251027 358.483459 
L 296.004324 359.046486 
L 292.907676 360.011676 
L 289.770811 360.856216 
L 286.875243 361.459459 
L 283.657946 361.901838 
L 279.636324 362.183351 
L 267.129081 362.545297 
L 265.520432 362.384432 
L 262.343351 361.740973 
L 261.056432 361.660541 
L 255.184865 361.740973 
L 247.704649 361.620324 
L 241.792865 361.539892 
L 230.813838 361.338811 
L 226.510703 361.298595 
L 226.510703 361.298595 
" style="fill:none;stroke:#2b7ff6;stroke-linecap:square;stroke-width:1.5;"/>
   </g>
   <g id="line2d_74">
    <path clip-path="url(#p13966dbd7d)" d="M 402.175135 440.082162 
L 401.974054 440.162595 
L 402.094703 440.041946 
L 402.577297 439.318054 
L 402.778378 438.674595 
L 402.939243 437.588757 
L 402.858811 436.140973 
L 402.496865 434.652973 
L 401.853405 433.245405 
L 399.36 429.786811 
L 390.592865 417.923027 
L 388.059243 414.464432 
L 384.600649 409.718919 
L 383.836541 408.230919 
L 383.394162 406.903784 
L 382.871351 403.726703 
L 382.509405 400.750703 
L 382.348541 397.774703 
L 382.388757 396.166054 
L 382.790919 392.948757 
L 383.072432 390.294486 
L 383.072432 387.117405 
L 382.992 385.79027 
L 382.428973 382.693622 
L 382.026811 381.165405 
L 380.981189 378.430703 
L 379.654054 375.856865 
L 378.085622 373.403676 
L 376.275892 371.111351 
L 374.506378 369.140757 
L 372.173838 366.928865 
L 369.760865 364.837622 
L 367.629405 362.505081 
L 366.382703 361.177946 
L 365.136 360.212757 
L 358.822054 356.03027 
L 353.915676 352.290162 
L 348.325622 347.424 
L 347.038703 346.659892 
L 344.183351 345.61427 
L 341.328 344.608865 
L 338.754162 343.844757 
L 337.748757 343.362162 
L 336.381405 342.396973 
L 335.255351 341.15027 
L 334.491243 339.984 
L 333.847784 338.496 
L 333.485838 337.249297 
L 332.198919 334.635243 
L 329.946811 330.653838 
L 329.062054 329.728865 
L 327.815351 328.844108 
L 326.809946 328.321297 
L 325.764324 327.959351 
L 324.718703 327.798486 
L 323.431784 327.798486 
L 322.466595 327.999568 
L 321.340541 328.441946 
L 321.420973 328.441946 
L 321.260108 329.688649 
L 321.300324 331.216865 
L 321.541622 332.463568 
L 322.024216 333.629838 
L 322.828541 334.956973 
L 323.874162 336.083027 
L 325.120865 336.967784 
L 326.287135 337.490595 
L 327.533838 337.852541 
L 328.780541 338.013405 
L 330.308757 337.892757 
L 331.796757 337.530811 
L 333.164108 336.847135 
L 334.410811 335.881946 
L 335.416216 334.755892 
L 336.140108 333.388541 
L 336.582486 332.182054 
L 336.823784 330.653838 
L 337.024865 326.91373 
L 336.944432 325.385514 
L 336.220541 320.96173 
L 336.059676 319.312865 
L 335.416216 316.055351 
L 334.732541 311.229405 
L 333.606486 305.719784 
L 332.601081 301.014486 
L 330.751135 291.523459 
L 330.067459 288.507243 
L 329.625081 287.340973 
L 328.780541 286.013838 
L 327.936 285.048649 
L 324.598054 281.992216 
L 323.351351 280.946595 
L 318.042811 277.528216 
L 316.554811 276.884757 
L 313.498378 276 
L 307.827892 274.672865 
L 306.259459 274.029405 
L 305.254054 273.34573 
L 303.323676 271.415351 
L 302.800865 270.892541 
L 302.237838 270.490378 
L 297.492324 267.715459 
L 295.159784 267.112216 
L 291.299027 266.348108 
L 289.770811 265.704649 
L 288.323027 264.860108 
L 286.030703 262.969946 
L 282.813405 259.672216 
L 274.207135 249.779027 
L 269.139892 243.907459 
L 268.013838 242.861838 
L 266.686703 242.017297 
L 265.279135 241.373838 
L 258 238.719568 
L 256.753297 238.397838 
L 253.616432 237.915243 
L 250.921946 237.63373 
L 247.744865 236.99027 
L 244.92973 235.944649 
L 243.44173 235.260973 
L 240.707027 233.491459 
L 239.420108 232.445838 
L 237.127784 230.113297 
L 235.35827 227.700324 
L 234.634378 226.57427 
L 233.387676 224.121081 
L 232.221405 221.104865 
L 231.055135 217.083243 
L 230.130162 214.549622 
L 229.124757 211.452973 
L 227.797622 205.702054 
L 225.183568 193.918703 
L 225.183568 193.918703 
" style="fill:none;stroke:#2adddd;stroke-linecap:square;stroke-width:1.5;"/>
   </g>
   <g id="line2d_75">
    <path clip-path="url(#p13966dbd7d)" d="M 224.821622 136.047568 
L 225.947676 136.128 
L 226.993297 136.369297 
L 228.400865 136.932324 
L 229.808432 137.817081 
L 231.055135 138.983351 
L 232.060541 140.27027 
L 234.192 143.728865 
L 234.714811 145.297297 
L 235.157189 148.032 
L 235.881081 152.81773 
L 236.041946 155.79373 
L 236.041946 157.402378 
L 235.398486 165.928216 
L 235.639784 168.54227 
L 235.840865 169.869405 
L 236.202811 171.397622 
L 237.127784 174.172541 
L 238.454919 177.027892 
L 239.983135 179.521297 
L 241.873297 182.054919 
L 243.843892 184.226595 
L 246.136216 186.478703 
L 250.519784 190.379676 
L 251.444757 191.50573 
L 252.329514 192.35027 
L 253.375135 193.154595 
L 257.235892 195.607784 
L 260.935784 198.262054 
L 264.555243 201.077189 
L 266.807351 202.967351 
L 269.180108 205.179243 
L 271.794162 207.913946 
L 273.563676 209.964973 
L 276.419027 213.865946 
L 278.309189 216.48 
L 279.99827 218.531027 
L 280.842811 219.938595 
L 281.48627 221.466811 
L 281.767784 223.115676 
L 281.767784 224.764541 
L 280.883027 232.284973 
L 279.877622 234.818595 
L 279.435243 235.864216 
L 279.15373 237.271784 
L 279.15373 238.8 
L 279.475459 240.288 
L 279.99827 241.695568 
L 280.923243 243.706378 
L 281.084108 244.872649 
L 280.923243 245.676973 
L 280.722162 245.998703 
L 280.722162 245.998703 
L 280.400432 246.159568 
L 279.555892 246.320432 
L 278.470054 246.199784 
L 277.142919 245.676973 
L 275.775568 244.792216 
L 274.488649 243.786811 
L 273.563676 242.741189 
L 272.678919 241.293405 
L 272.236541 240.127135 
L 271.794162 237.271784 
L 271.914811 236.427243 
L 272.316973 235.260973 
L 273.000649 234.054486 
L 273.885405 232.968649 
L 275.132108 231.882811 
L 276.620108 231.03827 
L 278.188541 230.515459 
L 279.837405 230.314378 
L 282.934054 230.233946 
L 285.628541 230.636108 
L 287.156757 230.917622 
L 288.725189 231.520865 
L 291.540324 233.209946 
L 294.03373 234.818595 
L 296.285838 236.467459 
L 297.452108 237.030486 
L 298.658595 237.392432 
L 301.513946 237.754378 
L 303.203027 238.116324 
L 307.345297 239.724973 
L 310.200649 240.448865 
L 311.206054 240.810811 
L 312.452757 241.092324 
L 313.980973 241.253189 
L 315.468973 241.293405 
L 317.117838 241.45427 
L 320.013405 241.896649 
L 324.316541 242.258595 
L 331.434811 242.821622 
L 333.324973 242.861838 
L 334.531459 242.660757 
L 335.69773 242.620541 
L 336.662919 242.741189 
L 337.990054 243.183568 
L 339.236757 243.827027 
L 340.604108 244.832432 
L 345.269189 249.014919 
L 348.365838 252.714811 
L 350.296216 255.369081 
L 352.025514 258.063568 
L 353.996108 261.602595 
L 355.846054 265.704649 
L 356.328649 267.273081 
L 357.052541 272.058811 
L 358.822054 279.337946 
L 360.551351 284.968216 
L 362.48173 290.236541 
L 368.393514 303.990486 
L 369.197838 305.277405 
L 370.163027 306.323027 
L 372.25427 308.374054 
L 376.275892 313.119568 
L 379.895351 317.784649 
L 383.353946 322.932324 
L 385.445189 327.034378 
L 386.611459 330.050595 
L 387.496216 333.187459 
L 388.260324 336.042811 
L 389.547243 340.426378 
L 390.190703 343.040432 
L 392.563459 355.145514 
L 393.327568 359.086703 
L 393.327568 359.086703 
" style="fill:none;stroke:#80ffb4;stroke-linecap:square;stroke-width:1.5;"/>
   </g>
   <g id="line2d_76">
    <path clip-path="url(#p13966dbd7d)" d="M 450.032432 304.955676 
L 449.791135 305.036108 
L 449.670486 305.277405 
L 449.670486 305.036108 
L 449.228108 303.829622 
L 448.745514 303.145946 
L 447.740108 302.140541 
L 446.493405 301.296 
L 445.045622 300.692757 
L 442.230486 300.009081 
L 438.289297 299.204757 
L 411.264 293.574486 
L 403.100108 291.845189 
L 392.885189 289.71373 
L 371.892324 285.330162 
L 367.146811 284.324757 
L 350.778811 281.027027 
L 349.170162 281.067243 
L 347.682162 281.429189 
L 346.515892 281.952 
L 345.188757 282.796541 
L 340.362811 286.576865 
L 339.116108 287.180108 
L 337.507459 287.622486 
L 335.818378 287.743135 
L 334.20973 287.58227 
L 328.177297 286.134486 
L 322.667676 285.088865 
L 321.179676 285.048649 
L 319.651459 285.330162 
L 318.243892 285.893189 
L 316.956973 286.73773 
L 313.337514 289.834378 
L 312.050595 290.437622 
L 309.155027 291.20173 
L 304.731243 292.126703 
L 302.117189 291.885405 
L 300.749838 291.684324 
L 298.015135 291.603892 
L 293.712 291.764757 
L 292.063135 291.402811 
L 290.534919 290.759351 
L 286.674162 288.346378 
L 282.773189 285.933405 
L 278.791784 283.801946 
L 265.399784 277.648865 
L 224.137946 260.235243 
L 213.279568 255.650595 
L 206.121081 252.634378 
L 197.715892 249.095351 
L 197.715892 249.095351 
" style="fill:none;stroke:#d4dd80;stroke-linecap:square;stroke-width:1.5;"/>
   </g>
   <g id="line2d_77">
    <path clip-path="url(#p13966dbd7d)" d="M 140.367568 248.652973 
L 143.222919 248.733405 
L 146.440216 249.055135 
L 155.247568 250.020324 
L 162.969081 250.905081 
L 173.344865 252.071351 
L 184.002162 253.277838 
L 189.069405 253.840865 
L 198.640865 254.886486 
L 207.72973 255.932108 
L 211.992649 256.414703 
L 223.977081 257.741838 
L 231.939892 258.626595 
L 253.254486 261.039568 
L 259.367351 261.723243 
L 260.774919 261.964541 
L 263.63027 262.849297 
L 268.73773 265.342703 
L 270.22573 265.704649 
L 271.753946 265.744865 
L 273.040865 265.584 
L 274.609297 265.222054 
L 276.258162 264.980757 
L 277.947243 265.101405 
L 280.963459 265.825297 
L 282.531892 265.90573 
L 285.347027 265.785081 
L 286.915459 265.825297 
L 289.730595 265.584 
L 290.736 265.302486 
L 291.379459 264.980757 
L 292.183784 264.337297 
L 294.677189 261.522162 
L 295.561946 260.918919 
L 297.049946 260.195027 
L 298.417297 259.833081 
L 300.066162 259.712432 
L 301.755243 259.792865 
L 307.546378 260.597189 
L 311.809297 261.160216 
L 338.432432 266.187243 
L 346.073514 267.675243 
L 353.955892 269.163243 
L 358.460108 270.048 
L 366.342486 271.536 
L 376.879135 273.587027 
L 386.611459 275.436973 
L 392.684108 276.603243 
L 392.684108 276.603243 
" style="fill:none;stroke:#ff8042;stroke-linecap:square;stroke-width:1.5;"/>
   </g>
   <g id="line2d_78">
    <path clip-path="url(#p13966dbd7d)" d="M 281.124324 192.35027 
L 281.204757 192.35027 
L 281.647135 192.430703 
L 282.210162 192.631784 
L 282.813405 193.033946 
L 283.497081 193.637189 
L 284.019892 194.401297 
L 284.582919 195.728432 
L 284.864432 197.337081 
L 284.904649 198.985946 
L 284.864432 200.353297 
L 284.824216 201.92173 
L 284.743784 203.289081 
L 284.46227 204.937946 
L 284.060108 206.506378 
L 283.698162 208.074811 
L 283.456865 209.36173 
L 283.175351 210.970378 
L 282.97427 212.297514 
L 282.813405 213.906162 
L 282.773189 215.474595 
L 282.813405 216.841946 
L 282.773189 218.732108 
L 282.732973 220.340757 
L 282.692757 221.949405 
L 282.652541 223.558054 
L 282.652541 225.166703 
L 282.612324 226.775351 
L 282.572108 228.384 
L 282.531892 229.992649 
L 282.491676 231.03827 
L 282.451459 232.124108 
L 282.451459 233.732757 
L 282.411243 235.341405 
L 282.371027 236.950054 
L 282.371027 237.995676 
L 282.371027 239.604324 
L 282.330811 241.212973 
L 282.290595 242.821622 
L 282.290595 244.43027 
L 282.290595 245.797622 
L 282.250378 247.40627 
L 282.210162 249.014919 
L 282.210162 250.623568 
L 282.169946 252.232216 
L 282.169946 253.840865 
L 282.12973 255.449514 
L 282.12973 257.058162 
L 282.089514 258.666811 
L 282.089514 260.275459 
L 282.049297 261.884108 
L 282.049297 263.211243 
L 282.009081 264.819892 
L 282.009081 266.428541 
L 281.968865 268.037189 
L 281.968865 269.123027 
L 281.928649 270.731676 
L 281.928649 272.058811 
L 281.888432 273.385946 
L 281.888432 274.753297 
L 281.888432 276.080432 
L 281.848216 277.689081 
L 281.848216 279.29773 
L 281.808 280.906378 
L 281.808 282.233514 
L 281.767784 283.600865 
L 281.767784 285.209514 
L 281.727568 286.818162 
L 281.727568 288.426811 
L 281.687351 289.753946 
L 281.687351 291.362595 
L 281.647135 292.971243 
L 281.647135 294.579892 
L 281.606919 296.188541 
L 281.606919 297.274378 
L 281.566703 298.883027 
L 281.566703 300.210162 
L 281.526486 301.537297 
L 281.526486 303.145946 
L 281.48627 304.754595 
L 281.48627 306.121946 
L 281.446054 307.730595 
L 281.446054 309.05773 
L 281.405838 310.666378 
L 281.405838 312.275027 
L 281.365622 313.883676 
L 281.365622 315.492324 
L 281.325405 317.100973 
L 281.325405 318.709622 
L 281.325405 320.31827 
L 281.285189 321.363892 
L 281.285189 322.731243 
L 281.325405 324.339892 
L 281.325405 325.948541 
L 281.325405 327.557189 
L 281.325405 329.165838 
L 281.325405 330.492973 
L 281.285189 331.860324 
" style="fill:none;stroke:#ff0000;stroke-linecap:square;stroke-width:1.5;"/>
   </g>
   <g id="patch_3">
    <path d="M 72 512.64 
L 72 69.12 
" style="fill:none;stroke:#000000;stroke-linecap:square;stroke-linejoin:miter;stroke-width:0.8;"/>
   </g>
   <g id="patch_4">
    <path d="M 518.4 512.64 
L 518.4 69.12 
" style="fill:none;stroke:#000000;stroke-linecap:square;stroke-linejoin:miter;stroke-width:0.8;"/>
   </g>
   <g id="patch_5">
    <path d="M 72 512.64 
L 518.4 512.64 
" style="fill:none;stroke:#000000;stroke-linecap:square;stroke-linejoin:miter;stroke-width:0.8;"/>
   </g>
   <g id="patch_6">
    <path d="M 72 69.12 
L 518.4 69.12 
" style="fill:none;stroke:#000000;stroke-linecap:square;stroke-linejoin:miter;stroke-width:0.8;"/>
   </g>
   <g id="text_13">
    <!-- 1 -->
    <defs>
     <path d="M 14.203125 0 
L 14.203125 5.171875 
L 26.90625 5.171875 
L 26.90625 65.828125 
L 12.203125 56.296875 
L 12.203125 62.703125 
L 29.984375 74.21875 
L 36.71875 74.21875 
L 36.71875 5.171875 
L 49.421875 5.171875 
L 49.421875 0 
z
" id="DejaVuSerif-31"/>
    </defs>
    <g transform="translate(137.186318 389.40973)scale(0.1 -0.1)">
     <use xlink:href="#DejaVuSerif-31"/>
    </g>
   </g>
   <g id="text_14">
    <!-- 1 -->
    <g transform="translate(390.54848 192.35027)scale(0.1 -0.1)">
     <use xlink:href="#DejaVuSerif-31"/>
    </g>
   </g>
   <g id="text_15">
    <!-- 2 -->
    <defs>
     <path d="M 12.796875 55.515625 
L 7.328125 55.515625 
L 7.328125 68.5 
Q 12.546875 71.296875 17.84375 72.75 
Q 23.140625 74.21875 28.21875 74.21875 
Q 39.59375 74.21875 46.1875 68.703125 
Q 52.78125 63.1875 52.78125 53.71875 
Q 52.78125 43.015625 37.84375 28.125 
Q 36.671875 27 36.078125 26.421875 
L 17.671875 8.015625 
L 48.09375 8.015625 
L 48.09375 17 
L 53.8125 17 
L 53.8125 0 
L 6.78125 0 
L 6.78125 5.328125 
L 28.90625 27.390625 
Q 36.234375 34.71875 39.359375 40.84375 
Q 42.484375 46.96875 42.484375 53.71875 
Q 42.484375 61.078125 38.640625 65.234375 
Q 34.8125 69.390625 28.078125 69.390625 
Q 21.09375 69.390625 17.28125 65.921875 
Q 13.484375 62.453125 12.796875 55.515625 
z
" id="DejaVuSerif-32"/>
    </defs>
    <g transform="translate(446.851182 192.35027)scale(0.1 -0.1)">
     <use xlink:href="#DejaVuSerif-32"/>
    </g>
   </g>
   <g id="text_16">
    <!-- 2 -->
    <g transform="translate(221.640372 361.258378)scale(0.1 -0.1)">
     <use xlink:href="#DejaVuSerif-32"/>
    </g>
   </g>
   <g id="text_17">
    <!-- 3 -->
    <defs>
     <path d="M 9.71875 69.828125 
Q 15.4375 71.96875 20.671875 73.09375 
Q 25.921875 74.21875 30.515625 74.21875 
Q 41.21875 74.21875 47.21875 69.59375 
Q 53.21875 64.984375 53.21875 56.78125 
Q 53.21875 50.203125 49.0625 45.78125 
Q 44.921875 41.359375 37.3125 39.796875 
Q 46.296875 38.53125 51.25 33.28125 
Q 56.203125 28.03125 56.203125 19.671875 
Q 56.203125 9.46875 49.34375 4.015625 
Q 42.484375 -1.421875 29.59375 -1.421875 
Q 23.875 -1.421875 18.421875 -0.1875 
Q 12.984375 1.03125 7.625 3.515625 
L 7.625 17.671875 
L 13.09375 17.671875 
Q 13.578125 10.640625 17.828125 7.03125 
Q 22.078125 3.421875 29.78125 3.421875 
Q 37.25 3.421875 41.578125 7.734375 
Q 45.90625 12.0625 45.90625 19.578125 
Q 45.90625 28.171875 41.453125 32.59375 
Q 37.015625 37.015625 28.421875 37.015625 
L 23.78125 37.015625 
L 23.78125 42 
L 26.21875 42 
Q 34.765625 42 39.03125 45.53125 
Q 43.3125 49.078125 43.3125 56.203125 
Q 43.3125 62.59375 39.796875 65.984375 
Q 36.28125 69.390625 29.6875 69.390625 
Q 23.09375 69.390625 19.453125 66.265625 
Q 15.828125 63.140625 15.1875 56.984375 
L 9.71875 56.984375 
z
" id="DejaVuSerif-33"/>
    </defs>
    <g transform="translate(398.993885 440.082162)scale(0.1 -0.1)">
     <use xlink:href="#DejaVuSerif-33"/>
    </g>
   </g>
   <g id="text_18">
    <!-- 3 -->
    <g transform="translate(221.640372 192.35027)scale(0.1 -0.1)">
     <use xlink:href="#DejaVuSerif-33"/>
    </g>
   </g>
   <g id="text_19">
    <!-- 4 -->
    <defs>
     <path d="M 34.90625 24.703125 
L 34.90625 63.484375 
L 10.015625 24.703125 
z
M 56.390625 0 
L 23.1875 0 
L 23.1875 5.171875 
L 34.90625 5.171875 
L 34.90625 19.484375 
L 3.078125 19.484375 
L 3.078125 24.8125 
L 35.015625 74.21875 
L 44.671875 74.21875 
L 44.671875 24.703125 
L 58.59375 24.703125 
L 58.59375 19.484375 
L 44.671875 19.484375 
L 44.671875 5.171875 
L 56.390625 5.171875 
z
" id="DejaVuSerif-34"/>
    </defs>
    <g transform="translate(221.640372 136.047568)scale(0.1 -0.1)">
     <use xlink:href="#DejaVuSerif-34"/>
    </g>
   </g>
   <g id="text_20">
    <!-- 4 -->
    <g transform="translate(390.54848 361.258378)scale(0.1 -0.1)">
     <use xlink:href="#DejaVuSerif-34"/>
    </g>
   </g>
   <g id="text_21">
    <!-- 5 -->
    <defs>
     <path d="M 50.296875 72.90625 
L 50.296875 64.890625 
L 16.890625 64.890625 
L 16.890625 44 
Q 19.4375 45.75 22.828125 46.625 
Q 26.21875 47.515625 30.421875 47.515625 
Q 42.234375 47.515625 49.0625 40.96875 
Q 55.90625 34.421875 55.90625 23.09375 
Q 55.90625 11.53125 49 5.046875 
Q 42.09375 -1.421875 29.59375 -1.421875 
Q 24.5625 -1.421875 19.28125 -0.1875 
Q 14.015625 1.03125 8.5 3.515625 
L 8.5 17.671875 
L 14.015625 17.671875 
Q 14.453125 10.75 18.421875 7.078125 
Q 22.40625 3.421875 29.59375 3.421875 
Q 37.3125 3.421875 41.453125 8.5 
Q 45.609375 13.578125 45.609375 23.09375 
Q 45.609375 32.5625 41.484375 37.609375 
Q 37.359375 42.671875 29.59375 42.671875 
Q 25.203125 42.671875 21.84375 41.109375 
Q 18.5 39.546875 15.921875 36.28125 
L 11.71875 36.28125 
L 11.71875 72.90625 
z
" id="DejaVuSerif-35"/>
    </defs>
    <g transform="translate(446.851182 304.955676)scale(0.1 -0.1)">
     <use xlink:href="#DejaVuSerif-35"/>
    </g>
   </g>
   <g id="text_22">
    <!-- 5 -->
    <g transform="translate(193.48902 248.652973)scale(0.1 -0.1)">
     <use xlink:href="#DejaVuSerif-35"/>
    </g>
   </g>
   <g id="text_23">
    <!-- 6 -->
    <defs>
     <path d="M 32.71875 3.421875 
Q 39.59375 3.421875 43.296875 8.46875 
Q 47.015625 13.53125 47.015625 23 
Q 47.015625 32.46875 43.296875 37.515625 
Q 39.59375 42.578125 32.71875 42.578125 
Q 25.734375 42.578125 22.0625 37.6875 
Q 18.40625 32.8125 18.40625 23.578125 
Q 18.40625 13.875 22.109375 8.640625 
Q 25.828125 3.421875 32.71875 3.421875 
z
M 16.796875 40.140625 
Q 20.125 43.796875 24.3125 45.59375 
Q 28.515625 47.40625 33.796875 47.40625 
Q 44.671875 47.40625 51 40.859375 
Q 57.328125 34.328125 57.328125 23 
Q 57.328125 11.921875 50.515625 5.25 
Q 43.703125 -1.421875 32.328125 -1.421875 
Q 19.96875 -1.421875 13.328125 7.78125 
Q 6.6875 17 6.6875 34.078125 
Q 6.6875 53.21875 14.546875 63.71875 
Q 22.40625 74.21875 36.71875 74.21875 
Q 40.578125 74.21875 44.828125 73.484375 
Q 49.078125 72.75 53.515625 71.296875 
L 53.515625 59.28125 
L 48 59.28125 
Q 47.40625 64.203125 44.234375 66.796875 
Q 41.0625 69.390625 35.6875 69.390625 
Q 26.21875 69.390625 21.578125 62.203125 
Q 16.9375 55.03125 16.796875 40.140625 
z
" id="DejaVuSerif-36"/>
    </defs>
    <g transform="translate(137.186318 248.652973)scale(0.1 -0.1)">
     <use xlink:href="#DejaVuSerif-36"/>
    </g>
   </g>
   <g id="text_24">
    <!-- 6 -->
    <g transform="translate(390.54848 276.804324)scale(0.1 -0.1)">
     <use xlink:href="#DejaVuSerif-36"/>
    </g>
   </g>
   <g id="text_25">
    <!-- 7 -->
    <defs>
     <path d="M 56.390625 67.921875 
L 27.875 0 
L 20.609375 0 
L 47.796875 64.890625 
L 14.109375 64.890625 
L 14.109375 55.90625 
L 8.40625 55.90625 
L 8.40625 72.90625 
L 56.390625 72.90625 
z
" id="DejaVuSerif-37"/>
    </defs>
    <g transform="translate(277.943074 192.35027)scale(0.1 -0.1)">
     <use xlink:href="#DejaVuSerif-37"/>
    </g>
   </g>
   <g id="text_26">
    <!-- 7 -->
    <g transform="translate(277.943074 333.107027)scale(0.1 -0.1)">
     <use xlink:href="#DejaVuSerif-37"/>
    </g>
   </g>
   <g id="text_27">
    <!-- MRPP -->
    <defs>
     <path d="M 9.8125 72.90625 
L 24.515625 72.90625 
L 43.109375 23.296875 
L 61.8125 72.90625 
L 76.515625 72.90625 
L 76.515625 0 
L 66.890625 0 
L 66.890625 64.015625 
L 48.09375 14.015625 
L 38.1875 14.015625 
L 19.390625 64.015625 
L 19.390625 0 
L 9.8125 0 
z
" id="DejaVuSans-4d"/>
     <path d="M 44.390625 34.1875 
Q 47.5625 33.109375 50.5625 29.59375 
Q 53.5625 26.078125 56.59375 19.921875 
L 66.609375 0 
L 56 0 
L 46.6875 18.703125 
Q 43.0625 26.03125 39.671875 28.421875 
Q 36.28125 30.8125 30.421875 30.8125 
L 19.671875 30.8125 
L 19.671875 0 
L 9.8125 0 
L 9.8125 72.90625 
L 32.078125 72.90625 
Q 44.578125 72.90625 50.734375 67.671875 
Q 56.890625 62.453125 56.890625 51.90625 
Q 56.890625 45.015625 53.6875 40.46875 
Q 50.484375 35.9375 44.390625 34.1875 
z
M 19.671875 64.796875 
L 19.671875 38.921875 
L 32.078125 38.921875 
Q 39.203125 38.921875 42.84375 42.21875 
Q 46.484375 45.515625 46.484375 51.90625 
Q 46.484375 58.296875 42.84375 61.546875 
Q 39.203125 64.796875 32.078125 64.796875 
z
" id="DejaVuSans-52"/>
     <path d="M 19.671875 64.796875 
L 19.671875 37.40625 
L 32.078125 37.40625 
Q 38.96875 37.40625 42.71875 40.96875 
Q 46.484375 44.53125 46.484375 51.125 
Q 46.484375 57.671875 42.71875 61.234375 
Q 38.96875 64.796875 32.078125 64.796875 
z
M 9.8125 72.90625 
L 32.078125 72.90625 
Q 44.34375 72.90625 50.609375 67.359375 
Q 56.890625 61.8125 56.890625 51.125 
Q 56.890625 40.328125 50.609375 34.8125 
Q 44.34375 29.296875 32.078125 29.296875 
L 19.671875 29.296875 
L 19.671875 0 
L 9.8125 0 
z
" id="DejaVuSans-50"/>
    </defs>
    <g transform="translate(278.618437 63.12)scale(0.12 -0.12)">
     <use xlink:href="#DejaVuSans-4d"/>
     <use x="86.279297" xlink:href="#DejaVuSans-52"/>
     <use x="155.761719" xlink:href="#DejaVuSans-50"/>
     <use x="216.064453" xlink:href="#DejaVuSans-50"/>
    </g>
   </g>
  </g>
 </g>
 <defs>
  <clipPath id="p13966dbd7d">
   <rect height="443.52" width="446.4" x="72" y="69.12"/>
  </clipPath>
 </defs>
</svg>
