<?xml version="1.0" encoding="utf-8" standalone="no"?>
<!DOCTYPE svg PUBLIC "-//W3C//DTD SVG 1.1//EN"
  "http://www.w3.org/Graphics/SVG/1.1/DTD/svg11.dtd">
<!-- Created with matplotlib (http://matplotlib.org/) -->
<svg height="576pt" version="1.1" viewBox="0 0 576 576" width="576pt" xmlns="http://www.w3.org/2000/svg" xmlns:xlink="http://www.w3.org/1999/xlink">
 <defs>
  <style type="text/css">
*{stroke-linecap:butt;stroke-linejoin:round;}
  </style>
 </defs>
 <g id="figure_1">
  <g id="patch_1">
   <path d="M 0 576 
L 576 576 
L 576 0 
L 0 0 
z
" style="fill:#ffffff;"/>
  </g>
  <g id="axes_1">
   <g id="patch_2">
    <path d="M 72 512.64 
L 518.4 512.64 
L 518.4 69.12 
L 72 69.12 
z
" style="fill:#ffffff;"/>
   </g>
   <g id="matplotlib.axis_1">
    <g id="xtick_1">
     <g id="line2d_1">
      <defs>
       <path d="M 0 0 
L 0 3.5 
" id="mabec65b8b2" style="stroke:#000000;stroke-width:0.8;"/>
      </defs>
      <g>
       <use style="stroke:#000000;stroke-width:0.8;" x="72" xlink:href="#mabec65b8b2" y="512.64"/>
      </g>
     </g>
     <g id="text_1">
      <!-- −1 -->
      <defs>
       <path d="M 10.59375 35.5 
L 73.1875 35.5 
L 73.1875 27.203125 
L 10.59375 27.203125 
z
" id="DejaVuSans-2212"/>
       <path d="M 12.40625 8.296875 
L 28.515625 8.296875 
L 28.515625 63.921875 
L 10.984375 60.40625 
L 10.984375 69.390625 
L 28.421875 72.90625 
L 38.28125 72.90625 
L 38.28125 8.296875 
L 54.390625 8.296875 
L 54.390625 0 
L 12.40625 0 
z
" id="DejaVuSans-31"/>
      </defs>
      <g transform="translate(64.628906 527.238438)scale(0.1 -0.1)">
       <use xlink:href="#DejaVuSans-2212"/>
       <use x="83.789062" xlink:href="#DejaVuSans-31"/>
      </g>
     </g>
    </g>
    <g id="xtick_2">
     <g id="line2d_2">
      <g>
       <use style="stroke:#000000;stroke-width:0.8;" x="125.783133" xlink:href="#mabec65b8b2" y="512.64"/>
      </g>
     </g>
     <g id="text_2">
      <!-- 0 -->
      <defs>
       <path d="M 31.78125 66.40625 
Q 24.171875 66.40625 20.328125 58.90625 
Q 16.5 51.421875 16.5 36.375 
Q 16.5 21.390625 20.328125 13.890625 
Q 24.171875 6.390625 31.78125 6.390625 
Q 39.453125 6.390625 43.28125 13.890625 
Q 47.125 21.390625 47.125 36.375 
Q 47.125 51.421875 43.28125 58.90625 
Q 39.453125 66.40625 31.78125 66.40625 
z
M 31.78125 74.21875 
Q 44.046875 74.21875 50.515625 64.515625 
Q 56.984375 54.828125 56.984375 36.375 
Q 56.984375 17.96875 50.515625 8.265625 
Q 44.046875 -1.421875 31.78125 -1.421875 
Q 19.53125 -1.421875 13.0625 8.265625 
Q 6.59375 17.96875 6.59375 36.375 
Q 6.59375 54.828125 13.0625 64.515625 
Q 19.53125 74.21875 31.78125 74.21875 
z
" id="DejaVuSans-30"/>
      </defs>
      <g transform="translate(122.601883 527.238438)scale(0.1 -0.1)">
       <use xlink:href="#DejaVuSans-30"/>
      </g>
     </g>
    </g>
    <g id="xtick_3">
     <g id="line2d_3">
      <g>
       <use style="stroke:#000000;stroke-width:0.8;" x="179.566265" xlink:href="#mabec65b8b2" y="512.64"/>
      </g>
     </g>
     <g id="text_3">
      <!-- 1 -->
      <g transform="translate(176.385015 527.238438)scale(0.1 -0.1)">
       <use xlink:href="#DejaVuSans-31"/>
      </g>
     </g>
    </g>
    <g id="xtick_4">
     <g id="line2d_4">
      <g>
       <use style="stroke:#000000;stroke-width:0.8;" x="233.349398" xlink:href="#mabec65b8b2" y="512.64"/>
      </g>
     </g>
     <g id="text_4">
      <!-- 2 -->
      <defs>
       <path d="M 19.1875 8.296875 
L 53.609375 8.296875 
L 53.609375 0 
L 7.328125 0 
L 7.328125 8.296875 
Q 12.9375 14.109375 22.625 23.890625 
Q 32.328125 33.6875 34.8125 36.53125 
Q 39.546875 41.84375 41.421875 45.53125 
Q 43.3125 49.21875 43.3125 52.78125 
Q 43.3125 58.59375 39.234375 62.25 
Q 35.15625 65.921875 28.609375 65.921875 
Q 23.96875 65.921875 18.8125 64.3125 
Q 13.671875 62.703125 7.8125 59.421875 
L 7.8125 69.390625 
Q 13.765625 71.78125 18.9375 73 
Q 24.125 74.21875 28.421875 74.21875 
Q 39.75 74.21875 46.484375 68.546875 
Q 53.21875 62.890625 53.21875 53.421875 
Q 53.21875 48.921875 51.53125 44.890625 
Q 49.859375 40.875 45.40625 35.40625 
Q 44.1875 33.984375 37.640625 27.21875 
Q 31.109375 20.453125 19.1875 8.296875 
z
" id="DejaVuSans-32"/>
      </defs>
      <g transform="translate(230.168148 527.238438)scale(0.1 -0.1)">
       <use xlink:href="#DejaVuSans-32"/>
      </g>
     </g>
    </g>
    <g id="xtick_5">
     <g id="line2d_5">
      <g>
       <use style="stroke:#000000;stroke-width:0.8;" x="287.13253" xlink:href="#mabec65b8b2" y="512.64"/>
      </g>
     </g>
     <g id="text_5">
      <!-- 3 -->
      <defs>
       <path d="M 40.578125 39.3125 
Q 47.65625 37.796875 51.625 33 
Q 55.609375 28.21875 55.609375 21.1875 
Q 55.609375 10.40625 48.1875 4.484375 
Q 40.765625 -1.421875 27.09375 -1.421875 
Q 22.515625 -1.421875 17.65625 -0.515625 
Q 12.796875 0.390625 7.625 2.203125 
L 7.625 11.71875 
Q 11.71875 9.328125 16.59375 8.109375 
Q 21.484375 6.890625 26.8125 6.890625 
Q 36.078125 6.890625 40.9375 10.546875 
Q 45.796875 14.203125 45.796875 21.1875 
Q 45.796875 27.640625 41.28125 31.265625 
Q 36.765625 34.90625 28.71875 34.90625 
L 20.21875 34.90625 
L 20.21875 43.015625 
L 29.109375 43.015625 
Q 36.375 43.015625 40.234375 45.921875 
Q 44.09375 48.828125 44.09375 54.296875 
Q 44.09375 59.90625 40.109375 62.90625 
Q 36.140625 65.921875 28.71875 65.921875 
Q 24.65625 65.921875 20.015625 65.03125 
Q 15.375 64.15625 9.8125 62.3125 
L 9.8125 71.09375 
Q 15.4375 72.65625 20.34375 73.4375 
Q 25.25 74.21875 29.59375 74.21875 
Q 40.828125 74.21875 47.359375 69.109375 
Q 53.90625 64.015625 53.90625 55.328125 
Q 53.90625 49.265625 50.4375 45.09375 
Q 46.96875 40.921875 40.578125 39.3125 
z
" id="DejaVuSans-33"/>
      </defs>
      <g transform="translate(283.95128 527.238438)scale(0.1 -0.1)">
       <use xlink:href="#DejaVuSans-33"/>
      </g>
     </g>
    </g>
    <g id="xtick_6">
     <g id="line2d_6">
      <g>
       <use style="stroke:#000000;stroke-width:0.8;" x="340.915663" xlink:href="#mabec65b8b2" y="512.64"/>
      </g>
     </g>
     <g id="text_6">
      <!-- 4 -->
      <defs>
       <path d="M 37.796875 64.3125 
L 12.890625 25.390625 
L 37.796875 25.390625 
z
M 35.203125 72.90625 
L 47.609375 72.90625 
L 47.609375 25.390625 
L 58.015625 25.390625 
L 58.015625 17.1875 
L 47.609375 17.1875 
L 47.609375 0 
L 37.796875 0 
L 37.796875 17.1875 
L 4.890625 17.1875 
L 4.890625 26.703125 
z
" id="DejaVuSans-34"/>
      </defs>
      <g transform="translate(337.734413 527.238438)scale(0.1 -0.1)">
       <use xlink:href="#DejaVuSans-34"/>
      </g>
     </g>
    </g>
    <g id="xtick_7">
     <g id="line2d_7">
      <g>
       <use style="stroke:#000000;stroke-width:0.8;" x="394.698795" xlink:href="#mabec65b8b2" y="512.64"/>
      </g>
     </g>
     <g id="text_7">
      <!-- 5 -->
      <defs>
       <path d="M 10.796875 72.90625 
L 49.515625 72.90625 
L 49.515625 64.59375 
L 19.828125 64.59375 
L 19.828125 46.734375 
Q 21.96875 47.46875 24.109375 47.828125 
Q 26.265625 48.1875 28.421875 48.1875 
Q 40.625 48.1875 47.75 41.5 
Q 54.890625 34.8125 54.890625 23.390625 
Q 54.890625 11.625 47.5625 5.09375 
Q 40.234375 -1.421875 26.90625 -1.421875 
Q 22.3125 -1.421875 17.546875 -0.640625 
Q 12.796875 0.140625 7.71875 1.703125 
L 7.71875 11.625 
Q 12.109375 9.234375 16.796875 8.0625 
Q 21.484375 6.890625 26.703125 6.890625 
Q 35.15625 6.890625 40.078125 11.328125 
Q 45.015625 15.765625 45.015625 23.390625 
Q 45.015625 31 40.078125 35.4375 
Q 35.15625 39.890625 26.703125 39.890625 
Q 22.75 39.890625 18.8125 39.015625 
Q 14.890625 38.140625 10.796875 36.28125 
z
" id="DejaVuSans-35"/>
      </defs>
      <g transform="translate(391.517545 527.238438)scale(0.1 -0.1)">
       <use xlink:href="#DejaVuSans-35"/>
      </g>
     </g>
    </g>
    <g id="xtick_8">
     <g id="line2d_8">
      <g>
       <use style="stroke:#000000;stroke-width:0.8;" x="448.481928" xlink:href="#mabec65b8b2" y="512.64"/>
      </g>
     </g>
     <g id="text_8">
      <!-- 6 -->
      <defs>
       <path d="M 33.015625 40.375 
Q 26.375 40.375 22.484375 35.828125 
Q 18.609375 31.296875 18.609375 23.390625 
Q 18.609375 15.53125 22.484375 10.953125 
Q 26.375 6.390625 33.015625 6.390625 
Q 39.65625 6.390625 43.53125 10.953125 
Q 47.40625 15.53125 47.40625 23.390625 
Q 47.40625 31.296875 43.53125 35.828125 
Q 39.65625 40.375 33.015625 40.375 
z
M 52.59375 71.296875 
L 52.59375 62.3125 
Q 48.875 64.0625 45.09375 64.984375 
Q 41.3125 65.921875 37.59375 65.921875 
Q 27.828125 65.921875 22.671875 59.328125 
Q 17.53125 52.734375 16.796875 39.40625 
Q 19.671875 43.65625 24.015625 45.921875 
Q 28.375 48.1875 33.59375 48.1875 
Q 44.578125 48.1875 50.953125 41.515625 
Q 57.328125 34.859375 57.328125 23.390625 
Q 57.328125 12.15625 50.6875 5.359375 
Q 44.046875 -1.421875 33.015625 -1.421875 
Q 20.359375 -1.421875 13.671875 8.265625 
Q 6.984375 17.96875 6.984375 36.375 
Q 6.984375 53.65625 15.1875 63.9375 
Q 23.390625 74.21875 37.203125 74.21875 
Q 40.921875 74.21875 44.703125 73.484375 
Q 48.484375 72.75 52.59375 71.296875 
z
" id="DejaVuSans-36"/>
      </defs>
      <g transform="translate(445.300678 527.238438)scale(0.1 -0.1)">
       <use xlink:href="#DejaVuSans-36"/>
      </g>
     </g>
    </g>
    <g id="xtick_9">
     <g id="line2d_9">
      <g>
       <use style="stroke:#000000;stroke-width:0.8;" x="502.26506" xlink:href="#mabec65b8b2" y="512.64"/>
      </g>
     </g>
     <g id="text_9">
      <!-- 7 -->
      <defs>
       <path d="M 8.203125 72.90625 
L 55.078125 72.90625 
L 55.078125 68.703125 
L 28.609375 0 
L 18.3125 0 
L 43.21875 64.59375 
L 8.203125 64.59375 
z
" id="DejaVuSans-37"/>
      </defs>
      <g transform="translate(499.08381 527.238438)scale(0.1 -0.1)">
       <use xlink:href="#DejaVuSans-37"/>
      </g>
     </g>
    </g>
   </g>
   <g id="matplotlib.axis_2">
    <g id="ytick_1">
     <g id="line2d_10">
      <defs>
       <path d="M 0 0 
L -3.5 0 
" id="m5d87eee5a7" style="stroke:#000000;stroke-width:0.8;"/>
      </defs>
      <g>
       <use style="stroke:#000000;stroke-width:0.8;" x="72" xlink:href="#m5d87eee5a7" y="460.296867"/>
      </g>
     </g>
     <g id="text_10">
      <!-- 0 -->
      <g transform="translate(58.6375 464.096086)scale(0.1 -0.1)">
       <use xlink:href="#DejaVuSans-30"/>
      </g>
     </g>
    </g>
    <g id="ytick_2">
     <g id="line2d_11">
      <g>
       <use style="stroke:#000000;stroke-width:0.8;" x="72" xlink:href="#m5d87eee5a7" y="406.513735"/>
      </g>
     </g>
     <g id="text_11">
      <!-- 1 -->
      <g transform="translate(58.6375 410.312954)scale(0.1 -0.1)">
       <use xlink:href="#DejaVuSans-31"/>
      </g>
     </g>
    </g>
    <g id="ytick_3">
     <g id="line2d_12">
      <g>
       <use style="stroke:#000000;stroke-width:0.8;" x="72" xlink:href="#m5d87eee5a7" y="352.730602"/>
      </g>
     </g>
     <g id="text_12">
      <!-- 2 -->
      <g transform="translate(58.6375 356.529821)scale(0.1 -0.1)">
       <use xlink:href="#DejaVuSans-32"/>
      </g>
     </g>
    </g>
    <g id="ytick_4">
     <g id="line2d_13">
      <g>
       <use style="stroke:#000000;stroke-width:0.8;" x="72" xlink:href="#m5d87eee5a7" y="298.94747"/>
      </g>
     </g>
     <g id="text_13">
      <!-- 3 -->
      <g transform="translate(58.6375 302.746689)scale(0.1 -0.1)">
       <use xlink:href="#DejaVuSans-33"/>
      </g>
     </g>
    </g>
    <g id="ytick_5">
     <g id="line2d_14">
      <g>
       <use style="stroke:#000000;stroke-width:0.8;" x="72" xlink:href="#m5d87eee5a7" y="245.164337"/>
      </g>
     </g>
     <g id="text_14">
      <!-- 4 -->
      <g transform="translate(58.6375 248.963556)scale(0.1 -0.1)">
       <use xlink:href="#DejaVuSans-34"/>
      </g>
     </g>
    </g>
    <g id="ytick_6">
     <g id="line2d_15">
      <g>
       <use style="stroke:#000000;stroke-width:0.8;" x="72" xlink:href="#m5d87eee5a7" y="191.381205"/>
      </g>
     </g>
     <g id="text_15">
      <!-- 5 -->
      <g transform="translate(58.6375 195.180424)scale(0.1 -0.1)">
       <use xlink:href="#DejaVuSans-35"/>
      </g>
     </g>
    </g>
    <g id="ytick_7">
     <g id="line2d_16">
      <g>
       <use style="stroke:#000000;stroke-width:0.8;" x="72" xlink:href="#m5d87eee5a7" y="137.598072"/>
      </g>
     </g>
     <g id="text_16">
      <!-- 6 -->
      <g transform="translate(58.6375 141.397291)scale(0.1 -0.1)">
       <use xlink:href="#DejaVuSans-36"/>
      </g>
     </g>
    </g>
    <g id="ytick_8">
     <g id="line2d_17">
      <g>
       <use style="stroke:#000000;stroke-width:0.8;" x="72" xlink:href="#m5d87eee5a7" y="83.81494"/>
      </g>
     </g>
     <g id="text_17">
      <!-- 7 -->
      <g transform="translate(58.6375 87.614159)scale(0.1 -0.1)">
       <use xlink:href="#DejaVuSans-37"/>
      </g>
     </g>
    </g>
   </g>
   <g id="line2d_18">
    <path clip-path="url(#p9517f5a455)" d="M 458.926388 392.544841 
" style="fill:none;stroke:#1f77b4;stroke-linecap:square;stroke-width:1.5;"/>
    <defs>
     <path d="M -5 5 
L 5 5 
L 5 -5 
L -5 -5 
z
" id="ma305fcb2a3" style="stroke:#8000ff;stroke-linejoin:miter;"/>
    </defs>
    <g clip-path="url(#p9517f5a455)">
     <use style="fill:#8000ff;stroke:#8000ff;stroke-linejoin:miter;" x="458.926388" xlink:href="#ma305fcb2a3" y="392.544841"/>
    </g>
   </g>
   <g id="line2d_19">
    <path clip-path="url(#p9517f5a455)" d="M 248.165844 347.392909 
" style="fill:none;stroke:#ff7f0e;stroke-linecap:square;stroke-width:1.5;"/>
    <defs>
     <path d="M 0 -5 
L -4.755283 -1.545085 
L -2.938926 4.045085 
L 2.938926 4.045085 
L 4.755283 -1.545085 
z
" id="m61a6084cb5" style="stroke:#8000ff;stroke-linejoin:miter;"/>
    </defs>
    <g clip-path="url(#p9517f5a455)">
     <use style="fill:#8000ff;stroke:#8000ff;stroke-linejoin:miter;" x="248.165844" xlink:href="#m61a6084cb5" y="347.392909"/>
    </g>
   </g>
   <g id="line2d_20">
    <path clip-path="url(#p9517f5a455)" d="M 410.066745 131.079489 
" style="fill:none;stroke:#2ca02c;stroke-linecap:square;stroke-width:1.5;"/>
    <defs>
     <path d="M -5 5 
L 5 5 
L 5 -5 
L -5 -5 
z
" id="mdd6d721c15" style="stroke:#376ff9;stroke-linejoin:miter;"/>
    </defs>
    <g clip-path="url(#p9517f5a455)">
     <use style="fill:#376ff9;stroke:#376ff9;stroke-linejoin:miter;" x="410.066745" xlink:href="#mdd6d721c15" y="131.079489"/>
    </g>
   </g>
   <g id="line2d_21">
    <path clip-path="url(#p9517f5a455)" d="M 321.993076 318.397662 
" style="fill:none;stroke:#d62728;stroke-linecap:square;stroke-width:1.5;"/>
    <defs>
     <path d="M 0 -5 
L -4.755283 -1.545085 
L -2.938926 4.045085 
L 2.938926 4.045085 
L 4.755283 -1.545085 
z
" id="mb9d7598df8" style="stroke:#376ff9;stroke-linejoin:miter;"/>
    </defs>
    <g clip-path="url(#p9517f5a455)">
     <use style="fill:#376ff9;stroke:#376ff9;stroke-linejoin:miter;" x="321.993076" xlink:href="#mb9d7598df8" y="318.397662"/>
    </g>
   </g>
   <g id="line2d_22">
    <path clip-path="url(#p9517f5a455)" d="M 320.290465 203.293677 
" style="fill:none;stroke:#9467bd;stroke-linecap:square;stroke-width:1.5;"/>
    <defs>
     <path d="M -5 5 
L 5 5 
L 5 -5 
L -5 -5 
z
" id="m9e5b700b45" style="stroke:#12c7e6;stroke-linejoin:miter;"/>
    </defs>
    <g clip-path="url(#p9517f5a455)">
     <use style="fill:#12c7e6;stroke:#12c7e6;stroke-linejoin:miter;" x="320.290465" xlink:href="#m9e5b700b45" y="203.293677"/>
    </g>
   </g>
   <g id="line2d_23">
    <path clip-path="url(#p9517f5a455)" d="M 177.424347 394.220953 
" style="fill:none;stroke:#8c564b;stroke-linecap:square;stroke-width:1.5;"/>
    <defs>
     <path d="M 0 -5 
L -4.755283 -1.545085 
L -2.938926 4.045085 
L 2.938926 4.045085 
L 4.755283 -1.545085 
z
" id="m52a6fb4a81" style="stroke:#12c7e6;stroke-linejoin:miter;"/>
    </defs>
    <g clip-path="url(#p9517f5a455)">
     <use style="fill:#12c7e6;stroke:#12c7e6;stroke-linejoin:miter;" x="177.424347" xlink:href="#m52a6fb4a81" y="394.220953"/>
    </g>
   </g>
   <g id="line2d_24">
    <path clip-path="url(#p9517f5a455)" d="M 186.432129 129.104536 
" style="fill:none;stroke:#e377c2;stroke-linecap:square;stroke-width:1.5;"/>
    <defs>
     <path d="M -5 5 
L 5 5 
L 5 -5 
L -5 -5 
z
" id="m5d6702b27f" style="stroke:#5bf9c7;stroke-linejoin:miter;"/>
    </defs>
    <g clip-path="url(#p9517f5a455)">
     <use style="fill:#5bf9c7;stroke:#5bf9c7;stroke-linejoin:miter;" x="186.432129" xlink:href="#m5d6702b27f" y="129.104536"/>
    </g>
   </g>
   <g id="line2d_25">
    <path clip-path="url(#p9517f5a455)" d="M 360.694348 404.823443 
" style="fill:none;stroke:#7f7f7f;stroke-linecap:square;stroke-width:1.5;"/>
    <defs>
     <path d="M 0 -5 
L -4.755283 -1.545085 
L -2.938926 4.045085 
L 2.938926 4.045085 
L 4.755283 -1.545085 
z
" id="med9dd91576" style="stroke:#5bf9c7;stroke-linejoin:miter;"/>
    </defs>
    <g clip-path="url(#p9517f5a455)">
     <use style="fill:#5bf9c7;stroke:#5bf9c7;stroke-linejoin:miter;" x="360.694348" xlink:href="#med9dd91576" y="404.823443"/>
    </g>
   </g>
   <g id="line2d_26">
    <path clip-path="url(#p9517f5a455)" d="M 221.900291 402.123664 
" style="fill:none;stroke:#bcbd22;stroke-linecap:square;stroke-width:1.5;"/>
    <defs>
     <path d="M -5 5 
L 5 5 
L 5 -5 
L -5 -5 
z
" id="m536c992865" style="stroke:#a4f99f;stroke-linejoin:miter;"/>
    </defs>
    <g clip-path="url(#p9517f5a455)">
     <use style="fill:#a4f99f;stroke:#a4f99f;stroke-linejoin:miter;" x="221.900291" xlink:href="#m536c992865" y="402.123664"/>
    </g>
   </g>
   <g id="line2d_27">
    <path clip-path="url(#p9517f5a455)" d="M 321.023747 140.943193 
" style="fill:none;stroke:#17becf;stroke-linecap:square;stroke-width:1.5;"/>
    <defs>
     <path d="M 0 -5 
L -4.755283 -1.545085 
L -2.938926 4.045085 
L 2.938926 4.045085 
L 4.755283 -1.545085 
z
" id="m7f3545e60c" style="stroke:#a4f99f;stroke-linejoin:miter;"/>
    </defs>
    <g clip-path="url(#p9517f5a455)">
     <use style="fill:#a4f99f;stroke:#a4f99f;stroke-linejoin:miter;" x="321.023747" xlink:href="#m7f3545e60c" y="140.943193"/>
    </g>
   </g>
   <g id="line2d_28">
    <path clip-path="url(#p9517f5a455)" d="M 250.083533 305.376172 
" style="fill:none;stroke:#1f77b4;stroke-linecap:square;stroke-width:1.5;"/>
    <defs>
     <path d="M -5 5 
L 5 5 
L 5 -5 
L -5 -5 
z
" id="m70e2e3e300" style="stroke:#edc76f;stroke-linejoin:miter;"/>
    </defs>
    <g clip-path="url(#p9517f5a455)">
     <use style="fill:#edc76f;stroke:#edc76f;stroke-linejoin:miter;" x="250.083533" xlink:href="#m70e2e3e300" y="305.376172"/>
    </g>
   </g>
   <g id="line2d_29">
    <path clip-path="url(#p9517f5a455)" d="M 451.06678 272.207496 
" style="fill:none;stroke:#ff7f0e;stroke-linecap:square;stroke-width:1.5;"/>
    <defs>
     <path d="M 0 -5 
L -4.755283 -1.545085 
L -2.938926 4.045085 
L 2.938926 4.045085 
L 4.755283 -1.545085 
z
" id="m93270e1433" style="stroke:#edc76f;stroke-linejoin:miter;"/>
    </defs>
    <g clip-path="url(#p9517f5a455)">
     <use style="fill:#edc76f;stroke:#edc76f;stroke-linejoin:miter;" x="451.06678" xlink:href="#m93270e1433" y="272.207496"/>
    </g>
   </g>
   <g id="line2d_30">
    <path clip-path="url(#p9517f5a455)" d="M 138.853443 281.047006 
" style="fill:none;stroke:#2ca02c;stroke-linecap:square;stroke-width:1.5;"/>
    <defs>
     <path d="M -5 5 
L 5 5 
L 5 -5 
L -5 -5 
z
" id="mb2e9d26053" style="stroke:#ff6f39;stroke-linejoin:miter;"/>
    </defs>
    <g clip-path="url(#p9517f5a455)">
     <use style="fill:#ff6f39;stroke:#ff6f39;stroke-linejoin:miter;" x="138.853443" xlink:href="#mb2e9d26053" y="281.047006"/>
    </g>
   </g>
   <g id="line2d_31">
    <path clip-path="url(#p9517f5a455)" d="M 372.732008 198.566658 
" style="fill:none;stroke:#d62728;stroke-linecap:square;stroke-width:1.5;"/>
    <defs>
     <path d="M 0 -5 
L -4.755283 -1.545085 
L -2.938926 4.045085 
L 2.938926 4.045085 
L 4.755283 -1.545085 
z
" id="m7edc99380a" style="stroke:#ff6f39;stroke-linejoin:miter;"/>
    </defs>
    <g clip-path="url(#p9517f5a455)">
     <use style="fill:#ff6f39;stroke:#ff6f39;stroke-linejoin:miter;" x="372.732008" xlink:href="#m7edc99380a" y="198.566658"/>
    </g>
   </g>
   <g id="line2d_32">
    <path clip-path="url(#p9517f5a455)" d="M 157.521726 248.244584 
" style="fill:none;stroke:#9467bd;stroke-linecap:square;stroke-width:1.5;"/>
    <defs>
     <path d="M -5 5 
L 5 5 
L 5 -5 
L -5 -5 
z
" id="mc02dca3a84" style="stroke:#ff0000;stroke-linejoin:miter;"/>
    </defs>
    <g clip-path="url(#p9517f5a455)">
     <use style="fill:#ff0000;stroke:#ff0000;stroke-linejoin:miter;" x="157.521726" xlink:href="#mc02dca3a84" y="248.244584"/>
    </g>
   </g>
   <g id="line2d_33">
    <path clip-path="url(#p9517f5a455)" d="M 303.171374 429.368992 
" style="fill:none;stroke:#8c564b;stroke-linecap:square;stroke-width:1.5;"/>
    <defs>
     <path d="M 0 -5 
L -4.755283 -1.545085 
L -2.938926 4.045085 
L 2.938926 4.045085 
L 4.755283 -1.545085 
z
" id="m0313f9ee2a" style="stroke:#ff0000;stroke-linejoin:miter;"/>
    </defs>
    <g clip-path="url(#p9517f5a455)">
     <use style="fill:#ff0000;stroke:#ff0000;stroke-linejoin:miter;" x="303.171374" xlink:href="#m0313f9ee2a" y="429.368992"/>
    </g>
   </g>
   <g id="line2d_34">
    <defs>
     <path d="M 0 2.5 
C 0.663008 2.5 1.29895 2.236584 1.767767 1.767767 
C 2.236584 1.29895 2.5 0.663008 2.5 0 
C 2.5 -0.663008 2.236584 -1.29895 1.767767 -1.767767 
C 1.29895 -2.236584 0.663008 -2.5 0 -2.5 
C -0.663008 -2.5 -1.29895 -2.236584 -1.767767 -1.767767 
C -2.236584 -1.29895 -2.5 -0.663008 -2.5 0 
C -2.5 0.663008 -2.236584 1.29895 -1.767767 1.767767 
C -1.29895 2.236584 -0.663008 2.5 0 2.5 
z
" id="m43ec711df0" style="stroke:#000000;"/>
    </defs>
    <g clip-path="url(#p9517f5a455)">
     <use style="stroke:#000000;" x="127.041658" xlink:href="#m43ec711df0" y="380.458151"/>
     <use style="stroke:#000000;" x="442.95751" xlink:href="#m43ec711df0" y="231.323242"/>
     <use style="stroke:#000000;" x="320.887732" xlink:href="#m43ec711df0" y="366.471421"/>
     <use style="stroke:#000000;" x="259.176409" xlink:href="#m43ec711df0" y="196.236754"/>
     <use style="stroke:#000000;" x="452.833178" xlink:href="#m43ec711df0" y="445.267349"/>
     <use style="stroke:#000000;" x="425.524556" xlink:href="#m43ec711df0" y="316.043984"/>
     <use style="stroke:#000000;" x="150.022565" xlink:href="#m43ec711df0" y="198.022952"/>
     <use style="stroke:#000000;" x="384.210279" xlink:href="#m43ec711df0" y="363.877557"/>
     <use style="stroke:#000000;" x="126.164379" xlink:href="#m43ec711df0" y="153.276433"/>
     <use style="stroke:#000000;" x="361.041282" xlink:href="#m43ec711df0" y="149.616266"/>
     <use style="stroke:#000000;" x="211.493763" xlink:href="#m43ec711df0" y="200.226678"/>
     <use style="stroke:#000000;" x="439.783829" xlink:href="#m43ec711df0" y="155.221057"/>
     <use style="stroke:#000000;" x="140.689578" xlink:href="#m43ec711df0" y="449.755003"/>
     <use style="stroke:#000000;" x="360.498174" xlink:href="#m43ec711df0" y="265.232879"/>
     <use style="stroke:#000000;" x="367.799274" xlink:href="#m43ec711df0" y="323.00139"/>
     <use style="stroke:#000000;" x="378.046111" xlink:href="#m43ec711df0" y="236.224531"/>
     <use style="stroke:#000000;" x="237.179332" xlink:href="#m43ec711df0" y="246.499761"/>
     <use style="stroke:#000000;" x="413.416069" xlink:href="#m43ec711df0" y="241.031752"/>
     <use style="stroke:#000000;" x="270.387819" xlink:href="#m43ec711df0" y="134.581862"/>
     <use style="stroke:#000000;" x="196.611798" xlink:href="#m43ec711df0" y="332.310812"/>
     <use style="stroke:#000000;" x="454.906953" xlink:href="#m43ec711df0" y="310.09848"/>
     <use style="stroke:#000000;" x="243.299874" xlink:href="#m43ec711df0" y="149.174868"/>
     <use style="stroke:#000000;" x="428.18679" xlink:href="#m43ec711df0" y="236.177497"/>
     <use style="stroke:#000000;" x="440.215755" xlink:href="#m43ec711df0" y="313.071232"/>
     <use style="stroke:#000000;" x="369.272143" xlink:href="#m43ec711df0" y="250.728705"/>
     <use style="stroke:#000000;" x="256.843847" xlink:href="#m43ec711df0" y="141.878365"/>
    </g>
   </g>
   <g id="line2d_35">
    <path clip-path="url(#p9517f5a455)" d="M 148.554911 380.458151 
L 147.389264 373.472809 
L 144.018638 367.244437 
L 138.808292 362.447977 
L 132.32285 359.603198 
L 125.265108 359.018377 
L 118.399883 360.756888 
L 112.471128 364.630336 
L 108.121317 370.218974 
L 105.821818 376.917186 
L 105.821818 383.999116 
L 108.121317 390.697328 
L 112.471128 396.285966 
L 118.399883 400.159414 
L 125.265108 401.897925 
L 132.32285 401.313104 
L 138.808292 398.468325 
L 144.018638 393.671864 
L 147.389264 387.443493 
L 148.554911 380.458151 
" style="fill:none;stroke:#000000;stroke-dasharray:5.55,2.4;stroke-dashoffset:0;stroke-width:1.5;"/>
   </g>
   <g id="line2d_36">
    <path clip-path="url(#p9517f5a455)" d="M 132.957803 380.458151 
L 132.63725 378.537182 
L 131.710328 376.82438 
L 130.277483 375.505353 
L 128.493986 374.723039 
L 126.553107 374.562213 
L 124.66517 375.040304 
L 123.034762 376.105502 
L 121.838564 377.642377 
L 121.206202 379.484386 
L 121.206202 381.431916 
L 121.838564 383.273924 
L 123.034762 384.8108 
L 124.66517 385.875998 
L 126.553107 386.354089 
L 128.493986 386.193263 
L 130.277483 385.410949 
L 131.710328 384.091922 
L 132.63725 382.37912 
L 132.957803 380.458151 
" style="fill:none;stroke:#ff0000;stroke-linecap:square;stroke-width:1.5;"/>
   </g>
   <g id="line2d_37">
    <path clip-path="url(#p9517f5a455)" d="M 464.470763 231.323242 
L 463.305116 224.3379 
L 459.93449 218.109528 
L 454.724144 213.313068 
L 448.238702 210.468289 
L 441.18096 209.883468 
L 434.315735 211.621979 
L 428.38698 215.495427 
L 424.037169 221.084065 
L 421.73767 227.782277 
L 421.73767 234.864207 
L 424.037169 241.562419 
L 428.38698 247.151056 
L 434.315735 251.024505 
L 441.18096 252.763016 
L 448.238702 252.178195 
L 454.724144 249.333416 
L 459.93449 244.536955 
L 463.305116 238.308584 
L 464.470763 231.323242 
" style="fill:none;stroke:#000000;stroke-dasharray:5.55,2.4;stroke-dashoffset:0;stroke-width:1.5;"/>
   </g>
   <g id="line2d_38">
    <path clip-path="url(#p9517f5a455)" d="M 448.873655 231.323242 
L 448.553102 229.402273 
L 447.62618 227.689471 
L 446.193335 226.370444 
L 444.409838 225.58813 
L 442.468959 225.427304 
L 440.581022 225.905394 
L 438.950614 226.970593 
L 437.754416 228.507468 
L 437.122054 230.349476 
L 437.122054 232.297007 
L 437.754416 234.139015 
L 438.950614 235.675891 
L 440.581022 236.741089 
L 442.468959 237.21918 
L 444.409838 237.058354 
L 446.193335 236.27604 
L 447.62618 234.957013 
L 448.553102 233.244211 
L 448.873655 231.323242 
" style="fill:none;stroke:#ff0000;stroke-linecap:square;stroke-width:1.5;"/>
   </g>
   <g id="line2d_39">
    <path clip-path="url(#p9517f5a455)" d="M 342.400985 366.471421 
L 341.235338 359.486079 
L 337.864712 353.257707 
L 332.654367 348.461247 
L 326.168924 345.616468 
L 319.111182 345.031647 
L 312.245957 346.770158 
L 306.317203 350.643606 
L 301.967391 356.232244 
L 299.667892 362.930456 
L 299.667892 370.012386 
L 301.967391 376.710598 
L 306.317203 382.299236 
L 312.245957 386.172684 
L 319.111182 387.911195 
L 326.168924 387.326374 
L 332.654367 384.481595 
L 337.864712 379.685134 
L 341.235338 373.456763 
L 342.400985 366.471421 
" style="fill:none;stroke:#000000;stroke-dasharray:5.55,2.4;stroke-dashoffset:0;stroke-width:1.5;"/>
   </g>
   <g id="line2d_40">
    <path clip-path="url(#p9517f5a455)" d="M 326.803877 366.471421 
L 326.483324 364.550452 
L 325.556402 362.83765 
L 324.123557 361.518623 
L 322.34006 360.736309 
L 320.399181 360.575483 
L 318.511244 361.053574 
L 316.880837 362.118772 
L 315.684639 363.655647 
L 315.052276 365.497656 
L 315.052276 367.445186 
L 315.684639 369.287195 
L 316.880837 370.82407 
L 318.511244 371.889268 
L 320.399181 372.367359 
L 322.34006 372.206533 
L 324.123557 371.424219 
L 325.556402 370.105192 
L 326.483324 368.39239 
L 326.803877 366.471421 
" style="fill:none;stroke:#ff0000;stroke-linecap:square;stroke-width:1.5;"/>
   </g>
   <g id="line2d_41">
    <path clip-path="url(#p9517f5a455)" d="M 280.689662 196.236754 
L 279.524014 189.251412 
L 276.153388 183.02304 
L 270.943043 178.226579 
L 264.4576 175.3818 
L 257.399858 174.796979 
L 250.534633 176.53549 
L 244.605879 180.408939 
L 240.256067 185.997577 
L 237.956568 192.695788 
L 237.956568 199.777719 
L 240.256067 206.47593 
L 244.605879 212.064568 
L 250.534633 215.938017 
L 257.399858 217.676528 
L 264.4576 217.091707 
L 270.943043 214.246928 
L 276.153388 209.450467 
L 279.524014 203.222095 
L 280.689662 196.236754 
" style="fill:none;stroke:#000000;stroke-dasharray:5.55,2.4;stroke-dashoffset:0;stroke-width:1.5;"/>
   </g>
   <g id="line2d_42">
    <path clip-path="url(#p9517f5a455)" d="M 265.092553 196.236754 
L 264.772 194.315785 
L 263.845078 192.602982 
L 262.412233 191.283956 
L 260.628736 190.501641 
L 258.687857 190.340816 
L 256.79992 190.818906 
L 255.169513 191.884105 
L 253.973315 193.42098 
L 253.340953 195.262988 
L 253.340953 197.210519 
L 253.973315 199.052527 
L 255.169513 200.589403 
L 256.79992 201.654601 
L 258.687857 202.132691 
L 260.628736 201.971866 
L 262.412233 201.189551 
L 263.845078 199.870525 
L 264.772 198.157723 
L 265.092553 196.236754 
" style="fill:none;stroke:#ff0000;stroke-linecap:square;stroke-width:1.5;"/>
   </g>
   <g id="line2d_43">
    <path clip-path="url(#p9517f5a455)" d="M 474.346431 445.267349 
L 473.180783 438.282007 
L 469.810157 432.053635 
L 464.599812 427.257174 
L 458.114369 424.412395 
L 451.056627 423.827574 
L 444.191403 425.566085 
L 438.262648 429.439534 
L 433.912836 435.028172 
L 431.613338 441.726383 
L 431.613338 448.808314 
L 433.912836 455.506525 
L 438.262648 461.095163 
L 444.191403 464.968612 
L 451.056627 466.707123 
L 458.114369 466.122302 
L 464.599812 463.277523 
L 469.810157 458.481062 
L 473.180783 452.25269 
L 474.346431 445.267349 
" style="fill:none;stroke:#000000;stroke-dasharray:5.55,2.4;stroke-dashoffset:0;stroke-width:1.5;"/>
   </g>
   <g id="line2d_44">
    <path clip-path="url(#p9517f5a455)" d="M 458.749322 445.267349 
L 458.428769 443.34638 
L 457.501847 441.633577 
L 456.069002 440.314551 
L 454.285505 439.532236 
L 452.344626 439.371411 
L 450.45669 439.849501 
L 448.826282 440.9147 
L 447.630084 442.451575 
L 446.997722 444.293583 
L 446.997722 446.241114 
L 447.630084 448.083122 
L 448.826282 449.619998 
L 450.45669 450.685196 
L 452.344626 451.163286 
L 454.285505 451.002461 
L 456.069002 450.220146 
L 457.501847 448.90112 
L 458.428769 447.188318 
L 458.749322 445.267349 
" style="fill:none;stroke:#ff0000;stroke-linecap:square;stroke-width:1.5;"/>
   </g>
   <g id="line2d_45">
    <path clip-path="url(#p9517f5a455)" d="M 447.037809 316.043984 
L 445.872162 309.058642 
L 442.501536 302.830271 
L 437.29119 298.03381 
L 430.805748 295.189031 
L 423.748006 294.60421 
L 416.882781 296.342721 
L 410.954027 300.21617 
L 406.604215 305.804808 
L 404.304716 312.503019 
L 404.304716 319.584949 
L 406.604215 326.283161 
L 410.954027 331.871799 
L 416.882781 335.745247 
L 423.748006 337.483759 
L 430.805748 336.898937 
L 437.29119 334.054158 
L 442.501536 329.257698 
L 445.872162 323.029326 
L 447.037809 316.043984 
" style="fill:none;stroke:#000000;stroke-dasharray:5.55,2.4;stroke-dashoffset:0;stroke-width:1.5;"/>
   </g>
   <g id="line2d_46">
    <path clip-path="url(#p9517f5a455)" d="M 431.440701 316.043984 
L 431.120148 314.123015 
L 430.193226 312.410213 
L 428.760381 311.091186 
L 426.976884 310.308872 
L 425.036005 310.148046 
L 423.148068 310.626137 
L 421.517661 311.691335 
L 420.321462 313.228211 
L 419.6891 315.070219 
L 419.6891 317.01775 
L 420.321462 318.859758 
L 421.517661 320.396633 
L 423.148068 321.461832 
L 425.036005 321.939922 
L 426.976884 321.779096 
L 428.760381 320.996782 
L 430.193226 319.677755 
L 431.120148 317.964953 
L 431.440701 316.043984 
" style="fill:none;stroke:#ff0000;stroke-linecap:square;stroke-width:1.5;"/>
   </g>
   <g id="line2d_47">
    <path clip-path="url(#p9517f5a455)" d="M 171.535818 198.022952 
L 170.37017 191.03761 
L 166.999544 184.809238 
L 161.789199 180.012778 
L 155.303756 177.167999 
L 148.246014 176.583177 
L 141.380789 178.321688 
L 135.452035 182.195137 
L 131.102223 187.783775 
L 128.802724 194.481987 
L 128.802724 201.563917 
L 131.102223 208.262128 
L 135.452035 213.850766 
L 141.380789 217.724215 
L 148.246014 219.462726 
L 155.303756 218.877905 
L 161.789199 216.033126 
L 166.999544 211.236665 
L 170.37017 205.008294 
L 171.535818 198.022952 
" style="fill:none;stroke:#000000;stroke-dasharray:5.55,2.4;stroke-dashoffset:0;stroke-width:1.5;"/>
   </g>
   <g id="line2d_48">
    <path clip-path="url(#p9517f5a455)" d="M 155.938709 198.022952 
L 155.618156 196.101983 
L 154.691234 194.389181 
L 153.258389 193.070154 
L 151.474892 192.28784 
L 149.534013 192.127014 
L 147.646076 192.605104 
L 146.015669 193.670303 
L 144.819471 195.207178 
L 144.187109 197.049186 
L 144.187109 198.996717 
L 144.819471 200.838725 
L 146.015669 202.375601 
L 147.646076 203.440799 
L 149.534013 203.91889 
L 151.474892 203.758064 
L 153.258389 202.97575 
L 154.691234 201.656723 
L 155.618156 199.943921 
L 155.938709 198.022952 
" style="fill:none;stroke:#ff0000;stroke-linecap:square;stroke-width:1.5;"/>
   </g>
   <g id="line2d_49">
    <path clip-path="url(#p9517f5a455)" d="M 405.723532 363.877557 
L 404.557885 356.892215 
L 401.187258 350.663843 
L 395.976913 345.867382 
L 389.49147 343.022603 
L 382.433729 342.437782 
L 375.568504 344.176293 
L 369.639749 348.049742 
L 365.289938 353.63838 
L 362.990439 360.336592 
L 362.990439 367.418522 
L 365.289938 374.116733 
L 369.639749 379.705371 
L 375.568504 383.57882 
L 382.433729 385.317331 
L 389.49147 384.73251 
L 395.976913 381.887731 
L 401.187258 377.09127 
L 404.557885 370.862898 
L 405.723532 363.877557 
" style="fill:none;stroke:#000000;stroke-dasharray:5.55,2.4;stroke-dashoffset:0;stroke-width:1.5;"/>
   </g>
   <g id="line2d_50">
    <path clip-path="url(#p9517f5a455)" d="M 390.126423 363.877557 
L 389.80587 361.956588 
L 388.878948 360.243785 
L 387.446103 358.924759 
L 385.662607 358.142444 
L 383.721728 357.981619 
L 381.833791 358.459709 
L 380.203383 359.524908 
L 379.007185 361.061783 
L 378.374823 362.903791 
L 378.374823 364.851322 
L 379.007185 366.69333 
L 380.203383 368.230206 
L 381.833791 369.295404 
L 383.721728 369.773495 
L 385.662607 369.612669 
L 387.446103 368.830355 
L 388.878948 367.511328 
L 389.80587 365.798526 
L 390.126423 363.877557 
" style="fill:none;stroke:#ff0000;stroke-linecap:square;stroke-width:1.5;"/>
   </g>
   <g id="line2d_51">
    <path clip-path="url(#p9517f5a455)" d="M 147.677632 153.276433 
L 146.511985 146.291091 
L 143.141359 140.06272 
L 137.931014 135.266259 
L 131.445571 132.42148 
L 124.387829 131.836659 
L 117.522604 133.57517 
L 111.59385 137.448618 
L 107.244038 143.037256 
L 104.944539 149.735468 
L 104.944539 156.817398 
L 107.244038 163.51561 
L 111.59385 169.104248 
L 117.522604 172.977696 
L 124.387829 174.716207 
L 131.445571 174.131386 
L 137.931014 171.286607 
L 143.141359 166.490147 
L 146.511985 160.261775 
L 147.677632 153.276433 
" style="fill:none;stroke:#000000;stroke-dasharray:5.55,2.4;stroke-dashoffset:0;stroke-width:1.5;"/>
   </g>
   <g id="line2d_52">
    <path clip-path="url(#p9517f5a455)" d="M 132.080524 153.276433 
L 131.759971 151.355464 
L 130.833049 149.642662 
L 129.400204 148.323635 
L 127.616707 147.541321 
L 125.675828 147.380495 
L 123.787891 147.858586 
L 122.157484 148.923784 
L 120.961286 150.460659 
L 120.328923 152.302668 
L 120.328923 154.250198 
L 120.961286 156.092207 
L 122.157484 157.629082 
L 123.787891 158.69428 
L 125.675828 159.172371 
L 127.616707 159.011545 
L 129.400204 158.229231 
L 130.833049 156.910204 
L 131.759971 155.197402 
L 132.080524 153.276433 
" style="fill:none;stroke:#ff0000;stroke-linecap:square;stroke-width:1.5;"/>
   </g>
   <g id="line2d_53">
    <path clip-path="url(#p9517f5a455)" d="M 382.554535 149.616266 
L 381.388887 142.630924 
L 378.018261 136.402553 
L 372.807916 131.606092 
L 366.322473 128.761313 
L 359.264732 128.176492 
L 352.399507 129.915003 
L 346.470752 133.788452 
L 342.120941 139.37709 
L 339.821442 146.075301 
L 339.821442 153.157231 
L 342.120941 159.855443 
L 346.470752 165.444081 
L 352.399507 169.31753 
L 359.264732 171.056041 
L 366.322473 170.471219 
L 372.807916 167.626441 
L 378.018261 162.82998 
L 381.388887 156.601608 
L 382.554535 149.616266 
" style="fill:none;stroke:#000000;stroke-dasharray:5.55,2.4;stroke-dashoffset:0;stroke-width:1.5;"/>
   </g>
   <g id="line2d_54">
    <path clip-path="url(#p9517f5a455)" d="M 366.957426 149.616266 
L 366.636873 147.695297 
L 365.709951 145.982495 
L 364.277106 144.663468 
L 362.493609 143.881154 
L 360.552731 143.720328 
L 358.664794 144.198419 
L 357.034386 145.263617 
L 355.838188 146.800493 
L 355.205826 148.642501 
L 355.205826 150.590032 
L 355.838188 152.43204 
L 357.034386 153.968915 
L 358.664794 155.034114 
L 360.552731 155.512204 
L 362.493609 155.351378 
L 364.277106 154.569064 
L 365.709951 153.250037 
L 366.636873 151.537235 
L 366.957426 149.616266 
" style="fill:none;stroke:#ff0000;stroke-linecap:square;stroke-width:1.5;"/>
   </g>
   <g id="line2d_55">
    <path clip-path="url(#p9517f5a455)" d="M 233.007016 200.226678 
L 231.841368 193.241336 
L 228.470742 187.012965 
L 223.260397 182.216504 
L 216.774954 179.371725 
L 209.717212 178.786904 
L 202.851987 180.525415 
L 196.923233 184.398864 
L 192.573421 189.987502 
L 190.273922 196.685713 
L 190.273922 203.767643 
L 192.573421 210.465855 
L 196.923233 216.054493 
L 202.851987 219.927942 
L 209.717212 221.666453 
L 216.774954 221.081632 
L 223.260397 218.236853 
L 228.470742 213.440392 
L 231.841368 207.21202 
L 233.007016 200.226678 
" style="fill:none;stroke:#000000;stroke-dasharray:5.55,2.4;stroke-dashoffset:0;stroke-width:1.5;"/>
   </g>
   <g id="line2d_56">
    <path clip-path="url(#p9517f5a455)" d="M 217.409907 200.226678 
L 217.089354 198.305709 
L 216.162432 196.592907 
L 214.729587 195.27388 
L 212.94609 194.491566 
L 211.005211 194.33074 
L 209.117274 194.808831 
L 207.486867 195.874029 
L 206.290669 197.410905 
L 205.658307 199.252913 
L 205.658307 201.200444 
L 206.290669 203.042452 
L 207.486867 204.579327 
L 209.117274 205.644526 
L 211.005211 206.122616 
L 212.94609 205.96179 
L 214.729587 205.179476 
L 216.162432 203.86045 
L 217.089354 202.147647 
L 217.409907 200.226678 
" style="fill:none;stroke:#ff0000;stroke-linecap:square;stroke-width:1.5;"/>
   </g>
   <g id="line2d_57">
    <path clip-path="url(#p9517f5a455)" d="M 461.297082 155.221057 
L 460.131435 148.235715 
L 456.760808 142.007343 
L 451.550463 137.210883 
L 445.06502 134.366104 
L 438.007279 133.781282 
L 431.142054 135.519794 
L 425.213299 139.393242 
L 420.863488 144.98188 
L 418.563989 151.680092 
L 418.563989 158.762022 
L 420.863488 165.460234 
L 425.213299 171.048871 
L 431.142054 174.92232 
L 438.007279 176.660831 
L 445.06502 176.07601 
L 451.550463 173.231231 
L 456.760808 168.43477 
L 460.131435 162.206399 
L 461.297082 155.221057 
" style="fill:none;stroke:#000000;stroke-dasharray:5.55,2.4;stroke-dashoffset:0;stroke-width:1.5;"/>
   </g>
   <g id="line2d_58">
    <path clip-path="url(#p9517f5a455)" d="M 445.699973 155.221057 
L 445.37942 153.300088 
L 444.452498 151.587286 
L 443.019653 150.268259 
L 441.236157 149.485945 
L 439.295278 149.325119 
L 437.407341 149.803209 
L 435.776933 150.868408 
L 434.580735 152.405283 
L 433.948373 154.247291 
L 433.948373 156.194822 
L 434.580735 158.03683 
L 435.776933 159.573706 
L 437.407341 160.638904 
L 439.295278 161.116995 
L 441.236157 160.956169 
L 443.019653 160.173855 
L 444.452498 158.854828 
L 445.37942 157.142026 
L 445.699973 155.221057 
" style="fill:none;stroke:#ff0000;stroke-linecap:square;stroke-width:1.5;"/>
   </g>
   <g id="line2d_59">
    <path clip-path="url(#p9517f5a455)" d="M 162.202831 449.755003 
L 161.037184 442.769661 
L 157.666557 436.541289 
L 152.456212 431.744828 
L 145.970769 428.900049 
L 138.913028 428.315228 
L 132.047803 430.053739 
L 126.119048 433.927188 
L 121.769237 439.515826 
L 119.469738 446.214037 
L 119.469738 453.295968 
L 121.769237 459.994179 
L 126.119048 465.582817 
L 132.047803 469.456266 
L 138.913028 471.194777 
L 145.970769 470.609956 
L 152.456212 467.765177 
L 157.666557 462.968716 
L 161.037184 456.740344 
L 162.202831 449.755003 
" style="fill:none;stroke:#000000;stroke-dasharray:5.55,2.4;stroke-dashoffset:0;stroke-width:1.5;"/>
   </g>
   <g id="line2d_60">
    <path clip-path="url(#p9517f5a455)" d="M 146.605723 449.755003 
L 146.28517 447.834034 
L 145.358247 446.121231 
L 143.925402 444.802205 
L 142.141906 444.01989 
L 140.201027 443.859065 
L 138.31309 444.337155 
L 136.682682 445.402354 
L 135.486484 446.939229 
L 134.854122 448.781237 
L 134.854122 450.728768 
L 135.486484 452.570776 
L 136.682682 454.107652 
L 138.31309 455.17285 
L 140.201027 455.650941 
L 142.141906 455.490115 
L 143.925402 454.7078 
L 145.358247 453.388774 
L 146.28517 451.675972 
L 146.605723 449.755003 
" style="fill:none;stroke:#ff0000;stroke-linecap:square;stroke-width:1.5;"/>
   </g>
   <g id="line2d_61">
    <path clip-path="url(#p9517f5a455)" d="M 382.011427 265.232879 
L 380.84578 258.247538 
L 377.475154 252.019166 
L 372.264808 247.222705 
L 365.779366 244.377926 
L 358.721624 243.793105 
L 351.856399 245.531616 
L 345.927644 249.405065 
L 341.577833 254.993703 
L 339.278334 261.691914 
L 339.278334 268.773844 
L 341.577833 275.472056 
L 345.927644 281.060694 
L 351.856399 284.934143 
L 358.721624 286.672654 
L 365.779366 286.087833 
L 372.264808 283.243054 
L 377.475154 278.446593 
L 380.84578 272.218221 
L 382.011427 265.232879 
" style="fill:none;stroke:#000000;stroke-dasharray:5.55,2.4;stroke-dashoffset:0;stroke-width:1.5;"/>
   </g>
   <g id="line2d_62">
    <path clip-path="url(#p9517f5a455)" d="M 366.414319 265.232879 
L 366.093766 263.31191 
L 365.166844 261.599108 
L 363.733999 260.280081 
L 361.950502 259.497767 
L 360.009623 259.336941 
L 358.121686 259.815032 
L 356.491278 260.88023 
L 355.29508 262.417106 
L 354.662718 264.259114 
L 354.662718 266.206645 
L 355.29508 268.048653 
L 356.491278 269.585528 
L 358.121686 270.650727 
L 360.009623 271.128817 
L 361.950502 270.967992 
L 363.733999 270.185677 
L 365.166844 268.866651 
L 366.093766 267.153848 
L 366.414319 265.232879 
" style="fill:none;stroke:#ff0000;stroke-linecap:square;stroke-width:1.5;"/>
   </g>
   <g id="line2d_63">
    <path clip-path="url(#p9517f5a455)" d="M 389.312527 323.00139 
L 388.14688 316.016048 
L 384.776254 309.787676 
L 379.565909 304.991215 
L 373.080466 302.146437 
L 366.022724 301.561615 
L 359.157499 303.300126 
L 353.228745 307.173575 
L 348.878933 312.762213 
L 346.579434 319.460425 
L 346.579434 326.542355 
L 348.878933 333.240566 
L 353.228745 338.829204 
L 359.157499 342.702653 
L 366.022724 344.441164 
L 373.080466 343.856343 
L 379.565909 341.011564 
L 384.776254 336.215103 
L 388.14688 329.986732 
L 389.312527 323.00139 
" style="fill:none;stroke:#000000;stroke-dasharray:5.55,2.4;stroke-dashoffset:0;stroke-width:1.5;"/>
   </g>
   <g id="line2d_64">
    <path clip-path="url(#p9517f5a455)" d="M 373.715419 323.00139 
L 373.394866 321.080421 
L 372.467944 319.367619 
L 371.035099 318.048592 
L 369.251602 317.266278 
L 367.310723 317.105452 
L 365.422786 317.583542 
L 363.792379 318.648741 
L 362.596181 320.185616 
L 361.963818 322.027624 
L 361.963818 323.975155 
L 362.596181 325.817163 
L 363.792379 327.354039 
L 365.422786 328.419237 
L 367.310723 328.897328 
L 369.251602 328.736502 
L 371.035099 327.954188 
L 372.467944 326.635161 
L 373.394866 324.922359 
L 373.715419 323.00139 
" style="fill:none;stroke:#ff0000;stroke-linecap:square;stroke-width:1.5;"/>
   </g>
   <g id="line2d_65">
    <path clip-path="url(#p9517f5a455)" d="M 399.559364 236.224531 
L 398.393717 229.239189 
L 395.023091 223.010818 
L 389.812745 218.214357 
L 383.327303 215.369578 
L 376.269561 214.784757 
L 369.404336 216.523268 
L 363.475582 220.396716 
L 359.12577 225.985354 
L 356.826271 232.683566 
L 356.826271 239.765496 
L 359.12577 246.463708 
L 363.475582 252.052346 
L 369.404336 255.925794 
L 376.269561 257.664305 
L 383.327303 257.079484 
L 389.812745 254.234705 
L 395.023091 249.438245 
L 398.393717 243.209873 
L 399.559364 236.224531 
" style="fill:none;stroke:#000000;stroke-dasharray:5.55,2.4;stroke-dashoffset:0;stroke-width:1.5;"/>
   </g>
   <g id="line2d_66">
    <path clip-path="url(#p9517f5a455)" d="M 383.962256 236.224531 
L 383.641703 234.303562 
L 382.714781 232.59076 
L 381.281936 231.271733 
L 379.498439 230.489419 
L 377.55756 230.328593 
L 375.669623 230.806684 
L 374.039216 231.871882 
L 372.843017 233.408757 
L 372.210655 235.250766 
L 372.210655 237.198296 
L 372.843017 239.040305 
L 374.039216 240.57718 
L 375.669623 241.642378 
L 377.55756 242.120469 
L 379.498439 241.959643 
L 381.281936 241.177329 
L 382.714781 239.858302 
L 383.641703 238.1455 
L 383.962256 236.224531 
" style="fill:none;stroke:#ff0000;stroke-linecap:square;stroke-width:1.5;"/>
   </g>
   <g id="line2d_67">
    <path clip-path="url(#p9517f5a455)" d="M 258.692585 246.499761 
L 257.526938 239.514419 
L 254.156312 233.286047 
L 248.945966 228.489586 
L 242.460524 225.644807 
L 235.402782 225.059986 
L 228.537557 226.798497 
L 222.608802 230.671946 
L 218.258991 236.260584 
L 215.959492 242.958795 
L 215.959492 250.040726 
L 218.258991 256.738937 
L 222.608802 262.327575 
L 228.537557 266.201024 
L 235.402782 267.939535 
L 242.460524 267.354714 
L 248.945966 264.509935 
L 254.156312 259.713474 
L 257.526938 253.485102 
L 258.692585 246.499761 
" style="fill:none;stroke:#000000;stroke-dasharray:5.55,2.4;stroke-dashoffset:0;stroke-width:1.5;"/>
   </g>
   <g id="line2d_68">
    <path clip-path="url(#p9517f5a455)" d="M 243.095477 246.499761 
L 242.774924 244.578792 
L 241.848002 242.865989 
L 240.415157 241.546963 
L 238.63166 240.764648 
L 236.690781 240.603823 
L 234.802844 241.081913 
L 233.172437 242.147112 
L 231.976238 243.683987 
L 231.343876 245.525995 
L 231.343876 247.473526 
L 231.976238 249.315534 
L 233.172437 250.85241 
L 234.802844 251.917608 
L 236.690781 252.395699 
L 238.63166 252.234873 
L 240.415157 251.452558 
L 241.848002 250.133532 
L 242.774924 248.42073 
L 243.095477 246.499761 
" style="fill:none;stroke:#ff0000;stroke-linecap:square;stroke-width:1.5;"/>
   </g>
   <g id="line2d_69">
    <path clip-path="url(#p9517f5a455)" d="M 434.929322 241.031752 
L 433.763675 234.04641 
L 430.393048 227.818038 
L 425.182703 223.021577 
L 418.69726 220.176798 
L 411.639519 219.591977 
L 404.774294 221.330488 
L 398.845539 225.203937 
L 394.495728 230.792575 
L 392.196229 237.490787 
L 392.196229 244.572717 
L 394.495728 251.270928 
L 398.845539 256.859566 
L 404.774294 260.733015 
L 411.639519 262.471526 
L 418.69726 261.886705 
L 425.182703 259.041926 
L 430.393048 254.245465 
L 433.763675 248.017094 
L 434.929322 241.031752 
" style="fill:none;stroke:#000000;stroke-dasharray:5.55,2.4;stroke-dashoffset:0;stroke-width:1.5;"/>
   </g>
   <g id="line2d_70">
    <path clip-path="url(#p9517f5a455)" d="M 419.332213 241.031752 
L 419.01166 239.110783 
L 418.084738 237.39798 
L 416.651893 236.078954 
L 414.868397 235.29664 
L 412.927518 235.135814 
L 411.039581 235.613904 
L 409.409173 236.679103 
L 408.212975 238.215978 
L 407.580613 240.057986 
L 407.580613 242.005517 
L 408.212975 243.847525 
L 409.409173 245.384401 
L 411.039581 246.449599 
L 412.927518 246.92769 
L 414.868397 246.766864 
L 416.651893 245.98455 
L 418.084738 244.665523 
L 419.01166 242.952721 
L 419.332213 241.031752 
" style="fill:none;stroke:#ff0000;stroke-linecap:square;stroke-width:1.5;"/>
   </g>
   <g id="line2d_71">
    <path clip-path="url(#p9517f5a455)" d="M 291.901072 134.581862 
L 290.735424 127.59652 
L 287.364798 121.368149 
L 282.154453 116.571688 
L 275.66901 113.726909 
L 268.611268 113.142088 
L 261.746043 114.880599 
L 255.817289 118.754047 
L 251.467477 124.342685 
L 249.167978 131.040897 
L 249.167978 138.122827 
L 251.467477 144.821039 
L 255.817289 150.409677 
L 261.746043 154.283125 
L 268.611268 156.021636 
L 275.66901 155.436815 
L 282.154453 152.592036 
L 287.364798 147.795576 
L 290.735424 141.567204 
L 291.901072 134.581862 
" style="fill:none;stroke:#000000;stroke-dasharray:5.55,2.4;stroke-dashoffset:0;stroke-width:1.5;"/>
   </g>
   <g id="line2d_72">
    <path clip-path="url(#p9517f5a455)" d="M 276.303963 134.581862 
L 275.98341 132.660893 
L 275.056488 130.948091 
L 273.623643 129.629064 
L 271.840146 128.84675 
L 269.899267 128.685924 
L 268.01133 129.164015 
L 266.380923 130.229213 
L 265.184725 131.766088 
L 264.552363 133.608097 
L 264.552363 135.555627 
L 265.184725 137.397636 
L 266.380923 138.934511 
L 268.01133 139.999709 
L 269.899267 140.4778 
L 271.840146 140.316974 
L 273.623643 139.53466 
L 275.056488 138.215633 
L 275.98341 136.502831 
L 276.303963 134.581862 
" style="fill:none;stroke:#ff0000;stroke-linecap:square;stroke-width:1.5;"/>
   </g>
   <g id="line2d_73">
    <path clip-path="url(#p9517f5a455)" d="M 218.125051 332.310812 
L 216.959403 325.32547 
L 213.588777 319.097098 
L 208.378432 314.300637 
L 201.892989 311.455858 
L 194.835247 310.871037 
L 187.970022 312.609548 
L 182.041268 316.482997 
L 177.691456 322.071635 
L 175.391957 328.769847 
L 175.391957 335.851777 
L 177.691456 342.549988 
L 182.041268 348.138626 
L 187.970022 352.012075 
L 194.835247 353.750586 
L 201.892989 353.165765 
L 208.378432 350.320986 
L 213.588777 345.524525 
L 216.959403 339.296153 
L 218.125051 332.310812 
" style="fill:none;stroke:#000000;stroke-dasharray:5.55,2.4;stroke-dashoffset:0;stroke-width:1.5;"/>
   </g>
   <g id="line2d_74">
    <path clip-path="url(#p9517f5a455)" d="M 202.527942 332.310812 
L 202.207389 330.389843 
L 201.280467 328.67704 
L 199.847622 327.358014 
L 198.064125 326.575699 
L 196.123246 326.414874 
L 194.23531 326.892964 
L 192.604902 327.958163 
L 191.408704 329.495038 
L 190.776342 331.337046 
L 190.776342 333.284577 
L 191.408704 335.126585 
L 192.604902 336.663461 
L 194.23531 337.728659 
L 196.123246 338.20675 
L 198.064125 338.045924 
L 199.847622 337.26361 
L 201.280467 335.944583 
L 202.207389 334.231781 
L 202.527942 332.310812 
" style="fill:none;stroke:#ff0000;stroke-linecap:square;stroke-width:1.5;"/>
   </g>
   <g id="line2d_75">
    <path clip-path="url(#p9517f5a455)" d="M 476.420206 310.09848 
L 475.254558 303.113139 
L 471.883932 296.884767 
L 466.673587 292.088306 
L 460.188144 289.243527 
L 453.130403 288.658706 
L 446.265178 290.397217 
L 440.336423 294.270666 
L 435.986612 299.859304 
L 433.687113 306.557515 
L 433.687113 313.639446 
L 435.986612 320.337657 
L 440.336423 325.926295 
L 446.265178 329.799744 
L 453.130403 331.538255 
L 460.188144 330.953434 
L 466.673587 328.108655 
L 471.883932 323.312194 
L 475.254558 317.083822 
L 476.420206 310.09848 
" style="fill:none;stroke:#000000;stroke-dasharray:5.55,2.4;stroke-dashoffset:0;stroke-width:1.5;"/>
   </g>
   <g id="line2d_76">
    <path clip-path="url(#p9517f5a455)" d="M 460.823097 310.09848 
L 460.502544 308.177511 
L 459.575622 306.464709 
L 458.142777 305.145683 
L 456.35928 304.363368 
L 454.418402 304.202543 
L 452.530465 304.680633 
L 450.900057 305.745831 
L 449.703859 307.282707 
L 449.071497 309.124715 
L 449.071497 311.072246 
L 449.703859 312.914254 
L 450.900057 314.451129 
L 452.530465 315.516328 
L 454.418402 315.994418 
L 456.35928 315.833593 
L 458.142777 315.051278 
L 459.575622 313.732252 
L 460.502544 312.019449 
L 460.823097 310.09848 
" style="fill:none;stroke:#ff0000;stroke-linecap:square;stroke-width:1.5;"/>
   </g>
   <g id="line2d_77">
    <path clip-path="url(#p9517f5a455)" d="M 264.813128 149.174868 
L 263.64748 142.189526 
L 260.276854 135.961155 
L 255.066509 131.164694 
L 248.581066 128.319915 
L 241.523324 127.735094 
L 234.658099 129.473605 
L 228.729345 133.347054 
L 224.379533 138.935691 
L 222.080034 145.633903 
L 222.080034 152.715833 
L 224.379533 159.414045 
L 228.729345 165.002683 
L 234.658099 168.876131 
L 241.523324 170.614642 
L 248.581066 170.029821 
L 255.066509 167.185042 
L 260.276854 162.388582 
L 263.64748 156.16021 
L 264.813128 149.174868 
" style="fill:none;stroke:#000000;stroke-dasharray:5.55,2.4;stroke-dashoffset:0;stroke-width:1.5;"/>
   </g>
   <g id="line2d_78">
    <path clip-path="url(#p9517f5a455)" d="M 249.216019 149.174868 
L 248.895466 147.253899 
L 247.968544 145.541097 
L 246.535699 144.22207 
L 244.752202 143.439756 
L 242.811323 143.27893 
L 240.923386 143.757021 
L 239.292979 144.822219 
L 238.096781 146.359095 
L 237.464418 148.201103 
L 237.464418 150.148634 
L 238.096781 151.990642 
L 239.292979 153.527517 
L 240.923386 154.592716 
L 242.811323 155.070806 
L 244.752202 154.90998 
L 246.535699 154.127666 
L 247.968544 152.808639 
L 248.895466 151.095837 
L 249.216019 149.174868 
" style="fill:none;stroke:#ff0000;stroke-linecap:square;stroke-width:1.5;"/>
   </g>
   <g id="line2d_79">
    <path clip-path="url(#p9517f5a455)" d="M 449.700043 236.177497 
L 448.534395 229.192155 
L 445.163769 222.963783 
L 439.953424 218.167323 
L 433.467981 215.322544 
L 426.410239 214.737722 
L 419.545014 216.476233 
L 413.61626 220.349682 
L 409.266448 225.93832 
L 406.966949 232.636532 
L 406.966949 239.718462 
L 409.266448 246.416673 
L 413.61626 252.005311 
L 419.545014 255.87876 
L 426.410239 257.617271 
L 433.467981 257.03245 
L 439.953424 254.187671 
L 445.163769 249.39121 
L 448.534395 243.162839 
L 449.700043 236.177497 
" style="fill:none;stroke:#000000;stroke-dasharray:5.55,2.4;stroke-dashoffset:0;stroke-width:1.5;"/>
   </g>
   <g id="line2d_80">
    <path clip-path="url(#p9517f5a455)" d="M 434.102934 236.177497 
L 433.782381 234.256528 
L 432.855459 232.543726 
L 431.422614 231.224699 
L 429.639117 230.442385 
L 427.698238 230.281559 
L 425.810301 230.759649 
L 424.179894 231.824848 
L 422.983696 233.361723 
L 422.351333 235.203731 
L 422.351333 237.151262 
L 422.983696 238.99327 
L 424.179894 240.530146 
L 425.810301 241.595344 
L 427.698238 242.073435 
L 429.639117 241.912609 
L 431.422614 241.130295 
L 432.855459 239.811268 
L 433.782381 238.098466 
L 434.102934 236.177497 
" style="fill:none;stroke:#ff0000;stroke-linecap:square;stroke-width:1.5;"/>
   </g>
   <g id="line2d_81">
    <path clip-path="url(#p9517f5a455)" d="M 461.729008 313.071232 
L 460.56336 306.085891 
L 457.192734 299.857519 
L 451.982389 295.061058 
L 445.496946 292.216279 
L 438.439204 291.631458 
L 431.573979 293.369969 
L 425.645225 297.243418 
L 421.295413 302.832056 
L 418.995914 309.530267 
L 418.995914 316.612197 
L 421.295413 323.310409 
L 425.645225 328.899047 
L 431.573979 332.772496 
L 438.439204 334.511007 
L 445.496946 333.926186 
L 451.982389 331.081407 
L 457.192734 326.284946 
L 460.56336 320.056574 
L 461.729008 313.071232 
" style="fill:none;stroke:#000000;stroke-dasharray:5.55,2.4;stroke-dashoffset:0;stroke-width:1.5;"/>
   </g>
   <g id="line2d_82">
    <path clip-path="url(#p9517f5a455)" d="M 446.131899 313.071232 
L 445.811346 311.150263 
L 444.884424 309.437461 
L 443.451579 308.118434 
L 441.668082 307.33612 
L 439.727203 307.175294 
L 437.839266 307.653385 
L 436.208859 308.718583 
L 435.012661 310.255459 
L 434.380299 312.097467 
L 434.380299 314.044998 
L 435.012661 315.887006 
L 436.208859 317.423881 
L 437.839266 318.48908 
L 439.727203 318.96717 
L 441.668082 318.806344 
L 443.451579 318.02403 
L 444.884424 316.705004 
L 445.811346 314.992201 
L 446.131899 313.071232 
" style="fill:none;stroke:#ff0000;stroke-linecap:square;stroke-width:1.5;"/>
   </g>
   <g id="line2d_83">
    <path clip-path="url(#p9517f5a455)" d="M 390.785396 250.728705 
L 389.619748 243.743363 
L 386.249122 237.514992 
L 381.038777 232.718531 
L 374.553334 229.873752 
L 367.495592 229.288931 
L 360.630367 231.027442 
L 354.701613 234.900891 
L 350.351801 240.489529 
L 348.052302 247.18774 
L 348.052302 254.26967 
L 350.351801 260.967882 
L 354.701613 266.55652 
L 360.630367 270.429969 
L 367.495592 272.16848 
L 374.553334 271.583658 
L 381.038777 268.738879 
L 386.249122 263.942419 
L 389.619748 257.714047 
L 390.785396 250.728705 
" style="fill:none;stroke:#000000;stroke-dasharray:5.55,2.4;stroke-dashoffset:0;stroke-width:1.5;"/>
   </g>
   <g id="line2d_84">
    <path clip-path="url(#p9517f5a455)" d="M 375.188287 250.728705 
L 374.867734 248.807736 
L 373.940812 247.094934 
L 372.507967 245.775907 
L 370.72447 244.993593 
L 368.783591 244.832767 
L 366.895655 245.310858 
L 365.265247 246.376056 
L 364.069049 247.912932 
L 363.436687 249.75494 
L 363.436687 251.702471 
L 364.069049 253.544479 
L 365.265247 255.081354 
L 366.895655 256.146553 
L 368.783591 256.624643 
L 370.72447 256.463817 
L 372.507967 255.681503 
L 373.940812 254.362476 
L 374.867734 252.649674 
L 375.188287 250.728705 
" style="fill:none;stroke:#ff0000;stroke-linecap:square;stroke-width:1.5;"/>
   </g>
   <g id="line2d_85">
    <path clip-path="url(#p9517f5a455)" d="M 278.3571 141.878365 
L 277.191452 134.893023 
L 273.820826 128.664652 
L 268.610481 123.868191 
L 262.125038 121.023412 
L 255.067296 120.438591 
L 248.202071 122.177102 
L 242.273317 126.05055 
L 237.923505 131.639188 
L 235.624006 138.3374 
L 235.624006 145.41933 
L 237.923505 152.117542 
L 242.273317 157.70618 
L 248.202071 161.579628 
L 255.067296 163.318139 
L 262.125038 162.733318 
L 268.610481 159.888539 
L 273.820826 155.092079 
L 277.191452 148.863707 
L 278.3571 141.878365 
" style="fill:none;stroke:#000000;stroke-dasharray:5.55,2.4;stroke-dashoffset:0;stroke-width:1.5;"/>
   </g>
   <g id="line2d_86">
    <path clip-path="url(#p9517f5a455)" d="M 262.759991 141.878365 
L 262.439438 139.957396 
L 261.512516 138.244594 
L 260.079671 136.925567 
L 258.296174 136.143253 
L 256.355295 135.982427 
L 254.467358 136.460518 
L 252.836951 137.525716 
L 251.640753 139.062592 
L 251.00839 140.9046 
L 251.00839 142.85213 
L 251.640753 144.694139 
L 252.836951 146.231014 
L 254.467358 147.296212 
L 256.355295 147.774303 
L 258.296174 147.613477 
L 260.079671 146.831163 
L 261.512516 145.512136 
L 262.439438 143.799334 
L 262.759991 141.878365 
" style="fill:none;stroke:#ff0000;stroke-linecap:square;stroke-width:1.5;"/>
   </g>
   <g id="line2d_87">
    <path clip-path="url(#p9517f5a455)" d="M 98.891566 487.188434 
L 98.891566 94.571566 
" style="fill:none;stroke:#000000;stroke-linecap:square;stroke-width:4;"/>
   </g>
   <g id="line2d_88">
    <path clip-path="url(#p9517f5a455)" d="M 98.891566 94.571566 
L 491.508434 94.571566 
" style="fill:none;stroke:#000000;stroke-linecap:square;stroke-width:4;"/>
   </g>
   <g id="line2d_89">
    <path clip-path="url(#p9517f5a455)" d="M 491.508434 94.571566 
L 491.508434 487.188434 
" style="fill:none;stroke:#000000;stroke-linecap:square;stroke-width:4;"/>
   </g>
   <g id="line2d_90">
    <path clip-path="url(#p9517f5a455)" d="M 491.508434 487.188434 
L 98.891566 487.188434 
" style="fill:none;stroke:#000000;stroke-linecap:square;stroke-width:4;"/>
   </g>
   <g id="line2d_91">
    <path clip-path="url(#p9517f5a455)" d="M 458.915855 392.53012 
L 458.862072 392.53012 
L 458.754506 392.583904 
L 458.64694 392.637687 
L 458.593157 392.69147 
L 458.539373 392.745253 
L 458.48559 392.852819 
L 458.431807 392.960386 
L 458.431807 393.014169 
L 458.431807 393.067952 
L 458.378024 392.852819 
L 458.109108 392.368771 
L 457.517494 391.723373 
L 456.388048 390.862843 
L 454.613205 390.056096 
L 452.408096 389.518265 
L 450.202988 389.249349 
L 448.051663 388.926651 
L 445.631422 388.335036 
L 443.53388 387.850988 
L 441.436337 387.420723 
L 439.338795 386.990458 
L 437.241253 386.560193 
L 434.767229 386.022361 
L 432.669687 385.592096 
L 430.195663 385.108048 
L 427.775422 384.570217 
L 425.624096 384.139952 
L 423.526554 383.709687 
L 421.805494 383.333205 
L 419.654169 382.90294 
L 417.44906 382.472675 
L 415.351518 382.418892 
L 413.361542 382.74159 
L 411.048867 383.548337 
L 408.736193 384.570217 
L 406.638651 385.215614 
L 404.756241 385.592096 
L 402.551133 386.022361 
L 400.507373 386.721542 
L 398.517398 387.36694 
L 396.366072 387.850988 
L 393.892048 388.281253 
L 391.471807 388.819084 
L 388.944 389.303133 
L 386.36241 389.572048 
L 383.834602 389.625831 
L 381.683277 389.679614 
L 379.101687 389.518265 
L 377.004145 389.249349 
L 374.476337 388.819084 
L 372.378795 388.388819 
L 369.904771 387.635855 
L 367.538313 386.829108 
L 365.494554 386.022361 
L 363.558361 385.108048 
L 361.29947 383.924819 
L 359.094361 382.687807 
L 357.373301 381.719711 
L 355.706024 380.966747 
L 353.500916 380.536482 
L 351.457157 380.590265 
L 349.144482 381.18188 
L 346.88559 382.203759 
L 344.519133 383.171855 
L 342.58294 383.655904 
L 340.216482 384.247518 
L 338.172723 385.215614 
L 336.23653 386.237494 
L 333.816289 387.151807 
L 331.77253 387.582072 
L 329.083373 388.119904 
L 326.716916 389.034217 
L 324.673157 389.894747 
L 322.252916 390.593928 
L 319.617542 390.862843 
L 317.089735 390.593928 
L 314.508145 390.10988 
L 312.303036 389.787181 
L 310.205494 389.303133 
L 308.161735 388.442602 
L 305.84906 387.36694 
L 303.805301 386.560193 
L 301.600193 385.269398 
L 299.664 383.548337 
L 297.620241 381.773494 
L 295.737831 380.536482 
L 293.532723 379.245687 
L 291.704096 378.170024 
L 289.821687 377.040578 
L 287.724145 375.480867 
L 285.787952 373.97494 
L 284.066892 372.737928 
L 281.969349 371.339566 
L 280.194506 370.21012 
L 277.935614 369.080675 
L 276.48347 368.381494 
L 275.515373 367.951229 
L 275.031325 367.736096 
L 274.869976 367.62853 
L 274.76241 367.574747 
L 274.708627 367.467181 
L 274.547277 367.144482 
L 274.547277 367.144482 
L 274.493494 367.090699 
L 274.063229 366.875566 
L 272.503518 366.445301 
L 270.567325 366.283952 
L 268.846265 366.391518 
L 266.69494 366.337735 
L 264.758747 365.961253 
L 262.714988 365.100723 
L 260.563663 363.594795 
L 259.057735 362.035084 
L 257.229108 360.314024 
L 255.400482 359.184578 
L 253.571855 358.431614 
L 251.528096 357.571084 
L 249.69947 356.280289 
L 248.139759 354.666795 
L 246.95653 352.784386 
L 246.096 350.686843 
L 245.719518 348.481735 
" style="fill:none;stroke:#8000ff;stroke-linecap:square;stroke-width:1.5;"/>
   </g>
   <g id="line2d_92">
    <path clip-path="url(#p9517f5a455)" d="M 410.080771 131.090313 
L 410.134554 131.090313 
L 410.24212 131.090313 
L 410.40347 131.19788 
L 410.457253 131.251663 
L 410.672386 131.466795 
L 411.048867 132.219759 
L 411.425349 133.61812 
L 411.479133 136.038361 
L 410.995084 138.24347 
L 409.919422 140.609928 
L 408.736193 142.384771 
L 407.391614 144.42853 
L 406.369735 146.472289 
L 405.455422 148.516048 
L 404.325976 150.77494 
L 403.35788 152.657349 
L 402.336 154.593542 
L 401.421687 156.583518 
L 400.722506 158.949976 
L 400.184675 161.047518 
L 399.431711 163.198843 
L 398.087133 165.457735 
L 396.85012 167.716627 
L 396.097157 169.706602 
L 395.344193 171.696578 
L 394.160964 173.901687 
L 392.977735 176.106795 
L 392.009639 177.989205 
L 391.095325 179.925398 
L 390.127229 181.86159 
L 389.159133 183.797783 
L 388.352386 185.357494 
L 387.22294 187.616386 
L 386.093494 189.875277 
L 384.964048 192.134169 
L 383.888386 194.339277 
L 382.920289 196.27547 
L 381.844627 198.319229 
L 380.446265 200.255422 
L 378.456289 202.030265 
L 376.627663 203.159711 
L 374.53012 204.450506 
L 372.80906 205.902651 
L 371.518265 207.193446 
L 369.474506 208.753157 
L 367.699663 209.936386 
L 365.924819 211.280964 
L 363.558361 212.894458 
L 361.460819 213.916337 
L 359.040578 215.099566 
L 357.427084 216.336578 
L 355.921157 217.950072 
L 354.415229 219.778699 
L 352.640386 221.499759 
L 351.080675 223.328386 
L 350.058795 225.049446 
L 349.198265 226.878072 
L 347.90747 228.706699 
L 346.078843 230.481542 
L 344.465349 232.095036 
L 343.120771 233.86988 
L 341.829976 236.021205 
L 340.539181 237.849831 
L 339.355952 239.517108 
L 338.280289 241.668434 
L 337.634892 243.712193 
L 336.774361 246.024867 
L 335.860048 247.584578 
L 334.676819 249.251855 
L 333.708723 251.026699 
L 332.955759 253.339373 
L 332.364145 255.490699 
L 331.611181 257.91094 
L 330.696867 260.49253 
L 330.159036 262.643855 
L 330.159036 265.010313 
L 330.427952 266.731373 
L 330.965783 269.259181 
L 331.234699 271.410506 
L 331.557398 273.185349 
L 331.611181 273.400482 
L 332.041446 273.938313 
L 333.332241 275.121542 
L 334.300337 276.035855 
L 334.891952 276.896386 
L 335.214651 277.649349 
L 335.429783 278.617446 
L 335.429783 280.123373 
L 335.053301 281.898217 
L 334.246554 283.888193 
L 333.386024 285.340337 
L 332.740627 286.416 
L 332.095229 287.384096 
L 331.557398 288.244627 
L 330.320386 289.696771 
L 328.276627 291.310265 
L 326.125301 292.385928 
L 324.888289 292.76241 
L 323.382361 293.246458 
L 321.661301 294.106988 
L 320.047807 295.397783 
L 318.488096 297.22641 
L 317.412434 299.377735 
L 316.928386 301.69041 
L 316.874602 303.734169 
L 317.358651 306.100627 
L 318.326747 308.359518 
L 319.025928 310.295711 
L 319.563759 312.715952 
L 320.047807 314.759711 
L 320.854554 316.80347 
" style="fill:none;stroke:#376ff9;stroke-linecap:square;stroke-width:1.5;"/>
   </g>
   <g id="line2d_93">
    <path clip-path="url(#p9517f5a455)" d="M 320.316723 203.267277 
L 320.585639 203.428627 
L 320.693205 203.48241 
L 320.96212 204.127807 
L 321.069687 204.988337 
L 321.015904 206.117783 
L 320.585639 207.731277 
L 319.563759 209.775036 
L 318.326747 211.442313 
L 315.476241 214.723084 
L 309.667663 222.414072 
L 301.116145 233.493398 
L 281.861783 258.502554 
L 276.160771 266.085976 
L 275.354024 267.914602 
L 275.300241 267.753253 
L 275.407807 267.914602 
L 276.268337 268.882699 
L 278.20453 270.227277 
L 280.08694 271.034024 
L 283.206361 271.733205 
L 283.69041 271.948337 
L 284.712289 272.755084 
L 286.379566 274.637494 
L 287.509012 276.573687 
L 288.315759 279.047711 
L 288.530892 281.306602 
L 288.315759 283.511711 
L 287.939277 286.093301 
L 287.024964 288.567325 
L 285.841735 290.449735 
L 284.497157 291.90188 
L 282.937446 293.192675 
L 282.722313 293.246458 
L 281.754217 293.62294 
L 279.92559 294.591036 
L 278.312096 295.881831 
L 276.806169 297.710458 
L 273.686747 303.787952 
L 272.234602 305.724145 
L 270.567325 307.283855 
L 269.222747 308.789783 
L 268.200867 310.61841 
L 266.103325 316.857253 
L 265.135229 319.008578 
L 264.328482 321.213687 
L 264.005783 323.580145 
L 264.167133 326.000386 
L 265.135229 330.303036 
L 265.941976 334.713253 
L 266.69494 336.595663 
L 268.039518 338.585639 
L 269.814361 340.199133 
L 271.85812 341.489928 
L 273.955663 342.242892 
L 276.32212 342.834506 
L 278.36588 343.103422 
L 280.08694 342.995855 
L 279.979373 343.049639 
L 280.194506 342.72694 
L 280.517205 341.920193 
L 280.678554 341.113446 
L 280.624771 340.360482 
L 280.409639 339.553735 
L 279.92559 338.746988 
L 279.280193 338.10159 
L 278.527229 337.617542 
L 277.720482 337.294843 
L 276.591036 337.133494 
L 274.439711 337.294843 
L 273.686747 337.40241 
L 273.794313 337.348627 
L 273.848096 337.24106 
L 273.686747 337.456193 
L 272.826217 338.531855 
L 271.481639 339.446169 
L 271.589205 339.284819 
L 272.01947 339.822651 
L 272.288386 340.091566 
L 272.772434 340.790747 
L 273.417831 341.973976 
L 274.224578 344.232867 
L 274.547277 346.437976 
L 274.385928 349.073349 
L 273.471614 352.623036 
L 273.095133 357.678651 
L 272.664867 359.937542 
L 271.804337 362.035084 
L 270.513542 363.863711 
L 267.125205 367.467181 
L 264.543614 370.909301 
L 262.876337 372.522795 
L 255.239133 377.363277 
L 252.872675 378.331373 
L 250.775133 378.815422 
L 248.570024 379.622169 
L 246.364916 380.697831 
L 244.267373 381.934843 
L 242.223614 382.795373 
L 237.383133 384.193735 
L 231.090506 385.699663 
L 223.991133 387.044241 
L 179.351133 393.928482 
L 179.351133 393.928482 
" style="fill:none;stroke:#12c7e6;stroke-linecap:square;stroke-width:1.5;"/>
   </g>
   <g id="line2d_94">
    <path clip-path="url(#p9517f5a455)" d="M 186.450506 129.100337 
L 186.558072 129.100337 
L 187.472386 129.31547 
L 188.440482 129.745735 
L 189.569928 130.498699 
L 190.860723 131.681928 
L 192.312867 133.671904 
L 194.195277 137.490506 
L 196.13147 140.717494 
L 199.950072 146.794988 
L 203.822458 153.248964 
L 204.629205 155.292723 
L 205.220819 157.605398 
L 205.92 159.487807 
L 208.232675 163.252627 
L 209.792386 165.02747 
L 213.449639 167.985542 
L 216.945542 171.427663 
L 218.774169 172.772241 
L 220.871711 174.170602 
L 222.592771 175.568964 
L 224.152482 177.021108 
L 228.186217 180.463229 
L 229.423229 181.86159 
L 230.660241 184.174265 
L 231.305639 186.271807 
L 232.166169 188.530699 
L 234.58641 192.349301 
L 235.662072 194.877108 
L 236.683952 199.556241 
L 237.436916 201.492434 
L 238.781494 203.48241 
L 242.65388 207.408578 
L 244.267373 208.80694 
L 246.311133 210.312867 
L 247.924627 211.818795 
L 249.376771 213.916337 
L 251.259181 217.358458 
L 252.603759 218.918169 
L 254.486169 220.370313 
L 256.368578 221.230843 
L 258.412337 221.768675 
L 260.778795 221.983807 
L 262.499855 221.822458 
L 266.748723 220.639229 
L 269.330313 220.424096 
L 273.579181 220.854361 
L 275.515373 220.746795 
L 278.043181 220.47788 
L 280.302072 220.693012 
L 285.680386 221.983807 
L 290.251952 222.145157 
L 292.510843 222.03759 
L 295.146217 222.145157 
L 297.674024 222.844337 
L 301.653976 224.834313 
L 305.956627 226.178892 
L 308.269301 227.308337 
L 309.882795 228.491566 
L 311.550072 229.567229 
L 313.432482 230.320193 
L 315.476241 230.696675 
L 319.671325 230.696675 
L 321.768867 231.019373 
L 323.86641 231.503422 
L 328.868241 232.041253 
L 331.342265 232.525301 
L 335.698699 233.816096 
L 337.688675 234.784193 
L 339.463518 236.128771 
L 342.206458 239.140627 
L 342.959422 239.355759 
L 345.272096 239.624675 
L 347.638554 239.301976 
L 349.843663 238.441446 
L 351.564723 237.365783 
L 353.232 235.752289 
L 355.275759 233.600964 
L 358.71788 230.696675 
L 362.805398 227.415904 
L 362.966747 227.254554 
L 362.966747 227.254554 
L 363.074313 226.716723 
L 363.18188 225.103229 
L 362.859181 221.499759 
L 363.504578 220.693012 
L 365.010506 219.348434 
L 366.946699 218.165205 
L 370.281253 216.928193 
L 372.217446 215.85253 
L 373.185542 214.938217 
L 374.153639 214.023904 
L 375.767133 212.840675 
L 377.810892 211.872578 
L 379.962217 211.334747 
L 382.59759 211.280964 
L 385.179181 211.818795 
L 387.22294 212.786892 
L 388.997783 214.077687 
L 390.557494 215.744964 
L 391.848289 218.003855 
L 392.439904 219.778699 
L 392.816386 221.876241 
L 392.870169 224.404048 
L 392.54747 226.555373 
L 392.439904 228.814265 
L 392.816386 231.180723 
L 393.730699 233.385831 
L 395.12906 235.322024 
L 398.840096 238.495229 
L 399.915759 239.89359 
L 399.969542 240.162506 
L 399.969542 241.776 
L 399.539277 243.927325 
L 398.678747 246.024867 
L 397.441735 247.907277 
L 394.376096 251.026699 
L 393.139084 253.070458 
L 392.439904 255.006651 
L 392.170988 257.05041 
L 392.38612 259.416867 
L 393.461783 263.23547 
L 393.730699 265.81706 
L 393.408 268.452434 
L 392.762602 270.496193 
L 391.794506 272.808867 
L 390.396145 277.488 
L 389.858313 279.962024 
L 389.212916 284.587373 
L 388.298602 288.405976 
L 387.814554 290.933783 
L 387.760771 292.977542 
L 388.191036 295.344 
L 390.073446 300.130699 
L 390.449928 302.335807 
L 390.449928 304.917398 
L 389.96588 309.650313 
L 390.342361 312.016771 
L 391.902072 316.695904 
L 392.117205 318.901012 
L 391.955855 321.482602 
L 391.955855 323.418795 
L 392.762602 327.936578 
L 393.515566 330.410602 
L 394.107181 333.153542 
L 394.214747 335.735133 
L 393.999614 337.940241 
L 393.354217 340.091566 
L 392.117205 342.404241 
L 390.342361 344.340434 
L 388.890217 345.416096 
L 387.814554 346.007711 
L 387.115373 345.953928 
L 386.254843 345.685012 
L 385.232964 345.093398 
L 384.211084 344.179084 
L 383.565687 343.318554 
L 382.490024 341.167229 
L 381.790843 340.790747 
L 380.607614 340.414265 
L 379.316819 340.306699 
L 377.326843 340.629398 
L 375.444434 341.328578 
L 373.454458 342.619373 
L 372.002313 344.071518 
L 370.711518 346.115277 
L 369.20559 350.202795 
L 368.50641 351.332241 
L 367.215614 352.784386 
L 365.171855 354.23653 
L 360.600289 356.280289 
L 358.664096 357.678651 
L 357.050602 359.453494 
L 356.082506 361.228337 
L 355.437108 363.218313 
L 355.221976 365.584771 
L 355.437108 367.467181 
L 355.81359 369.779855 
L 356.082506 372.576578 
L 356.405205 379.353253 
L 358.180048 390.540145 
L 358.610313 392.69147 
L 359.739759 399.414361 
L 360.170024 401.888386 
L 360.170024 401.888386 
" style="fill:none;stroke:#5bf9c7;stroke-linecap:square;stroke-width:1.5;"/>
   </g>
   <g id="line2d_95">
    <path clip-path="url(#p9517f5a455)" d="M 221.89359 402.103518 
L 222.216289 402.049735 
L 222.646554 401.834602 
L 223.291952 401.350554 
L 224.260048 400.167325 
L 225.120578 398.338699 
L 225.927325 394.681446 
L 226.841639 392.207422 
L 227.863518 389.94853 
L 228.777831 387.635855 
L 230.445108 382.956723 
L 233.887229 373.867373 
L 238.620145 361.120771 
L 242.922795 349.718747 
L 250.183518 330.19547 
L 251.474313 325.785253 
L 252.603759 323.365012 
L 254.00212 321.590169 
L 255.292916 320.460723 
L 255.776964 320.24559 
L 256.368578 320.138024 
L 258.358554 320.299373 
L 260.187181 320.998554 
L 263.575518 323.042313 
L 265.888193 323.795277 
L 268.093301 324.064193 
L 270.083277 323.795277 
L 272.01947 323.14988 
L 276.106988 320.837205 
L 278.527229 319.869108 
L 282.722313 318.954795 
L 284.712289 318.201831 
L 286.594699 317.287518 
L 288.584675 316.588337 
L 291.166265 316.158072 
L 293.801639 316.373205 
L 295.845398 316.964819 
L 298.211855 317.502651 
L 300.578313 317.502651 
L 302.568289 317.072386 
L 304.450699 316.265639 
L 308.107952 313.952964 
L 311.657639 312.554602 
L 313.217349 311.640289 
L 315.906506 309.973012 
L 316.928386 309.488964 
L 318.272964 309.004916 
L 319.294843 308.789783 
L 320.585639 308.736 
L 323.651277 309.327614 
L 325.695036 309.811663 
L 328.061494 310.941108 
L 330.105253 312.608386 
L 334.51547 317.771566 
L 334.35412 317.664 
L 334.300337 317.664 
L 334.999518 317.556434 
L 336.720578 317.018602 
L 338.549205 316.104289 
L 340.162699 314.813494 
L 341.668627 312.931084 
L 342.58294 311.102458 
L 343.120771 309.220048 
L 343.551036 307.122506 
L 344.465349 304.648482 
L 345.971277 302.497157 
L 347.799904 300.66853 
L 349.520964 298.732337 
L 350.65041 296.903711 
L 351.403373 294.967518 
L 351.726072 292.977542 
L 351.564723 290.557301 
L 350.919325 288.29841 
L 349.736096 286.200867 
L 348.068819 284.479807 
L 346.132627 283.135229 
L 344.035084 281.898217 
L 339.624867 279.962024 
L 337.742458 278.725012 
L 336.182747 277.165301 
L 334.891952 275.282892 
L 333.870072 273.454265 
L 332.579277 271.410506 
L 331.180916 269.528096 
L 329.836337 267.484337 
L 328.975807 265.386795 
L 328.437976 262.858988 
L 327.846361 260.922795 
L 326.663133 258.825253 
L 323.973976 255.329349 
L 323.113446 253.662072 
L 321.607518 249.789687 
L 319.671325 245.487036 
L 317.143518 236.774169 
L 316.282988 232.579084 
L 315.530024 227.953735 
L 314.669494 218.380337 
L 315.63759 208.860723 
L 317.304867 187.401253 
L 317.842699 181.00106 
L 319.832675 155.615422 
L 320.800771 143.836916 
L 320.800771 143.836916 
" style="fill:none;stroke:#a4f99f;stroke-linecap:square;stroke-width:1.5;"/>
   </g>
   <g id="line2d_96">
    <path clip-path="url(#p9517f5a455)" d="M 250.075952 305.401446 
L 250.721349 305.347663 
L 252.603759 305.240096 
L 254.486169 304.917398 
L 256.583711 304.487133 
L 259.057735 304.003084 
L 261.20906 303.680386 
L 263.306602 303.357687 
L 265.404145 303.034988 
L 267.55547 302.658506 
L 269.653012 302.335807 
L 271.804337 301.959325 
L 273.90188 301.636627 
L 276.375904 301.206361 
L 278.849928 300.776096 
L 281.323952 300.399614 
L 283.797976 299.969349 
L 286.272 299.539084 
L 288.746024 299.162602 
L 290.897349 298.78612 
L 292.994892 298.463422 
L 295.146217 298.08694 
L 297.243759 297.710458 
L 299.395084 297.387759 
L 301.492627 297.011277 
L 303.643952 296.688578 
L 305.741494 296.312096 
L 308.215518 295.935614 
L 310.689542 295.505349 
L 313.163566 295.075084 
L 315.63759 294.698602 
L 317.788916 294.32212 
L 319.886458 293.999422 
L 322.360482 293.569157 
L 324.834506 293.138892 
L 326.985831 292.816193 
L 329.083373 292.439711 
L 331.557398 292.063229 
L 333.762506 291.74053 
L 336.021398 291.794313 
L 338.495422 292.385928 
L 340.808096 293.246458 
L 343.066988 293.838072 
L 345.16453 293.891855 
L 347.208289 293.569157 
L 349.467181 293.031325 
L 351.833639 292.708627 
L 354.361446 292.76241 
L 356.458988 292.708627 
L 358.341398 292.385928 
L 360.546506 291.955663 
L 362.859181 291.90188 
L 364.849157 292.009446 
L 366.892916 291.848096 
L 369.098024 291.256482 
L 371.034217 290.826217 
L 373.723373 290.664867 
L 375.713349 290.557301 
L 378.026024 289.965687 
L 380.338699 288.890024 
L 382.490024 287.868145 
L 385.017831 287.168964 
L 387.22294 287.007614 
L 389.428048 286.792482 
L 391.52559 286.362217 
L 393.623133 285.824386 
L 396.043373 285.232771 
L 398.140916 284.748723 
L 400.346024 284.157108 
L 402.228434 283.296578 
L 403.626795 282.489831 
L 405.831904 281.360386 
L 407.983229 280.768771 
L 410.672386 280.553639 
L 412.716145 280.392289 
L 415.082602 279.854458 
L 417.126361 279.155277 
L 418.793639 278.563663 
L 420.783614 277.810699 
L 422.77359 277.111518 
L 424.924916 276.681253 
L 427.076241 276.46612 
L 429.173783 276.197205 
L 431.325108 275.60559 
L 433.368867 275.067759 
L 435.896675 274.798843 
L 438.101783 274.637494 
L 440.360675 274.368578 
L 442.027952 273.830747 
L 444.501976 273.185349 
L 446.707084 273.024 
L 449.019759 272.808867 
" style="fill:none;stroke:#edc76f;stroke-linecap:square;stroke-width:1.5;"/>
   </g>
   <g id="line2d_97">
    <path clip-path="url(#p9517f5a455)" d="M 138.852434 281.037687 
L 140.358361 280.93012 
L 142.133205 280.499855 
L 143.531566 280.284723 
L 146.113157 280.23094 
L 148.318265 280.714988 
L 153.589012 282.651181 
L 155.740337 283.189012 
L 158.106795 283.189012 
L 163.538892 282.113349 
L 166.335614 281.844434 
L 168.433157 281.898217 
L 170.154217 281.736867 
L 172.09041 281.252819 
L 174.564434 280.499855 
L 177.038458 279.908241 
L 179.727614 279.639325 
L 182.147855 279.262843 
L 184.352964 278.34853 
L 186.18159 277.272867 
L 188.010217 276.412337 
L 190.215325 275.820723 
L 192.366651 275.659373 
L 196.938217 275.60559 
L 199.304675 275.067759 
L 205.113253 273.131566 
L 209.738602 271.679422 
L 211.997494 271.356723 
L 214.202602 271.518072 
L 216.407711 272.055904 
L 218.666602 272.486169 
L 220.387663 272.486169 
L 222.700337 272.109687 
L 225.066795 271.894554 
L 229.208096 272.378602 
L 231.251855 272.324819 
L 233.56453 271.733205 
L 235.124241 270.980241 
L 238.082313 268.667566 
L 240.287422 267.322988 
L 243.137928 266.301108 
L 245.611952 266.139759 
L 245.343036 266.301108 
L 245.558169 266.085976 
L 245.827084 265.924627 
L 247.010313 265.440578 
L 251.850795 264.042217 
L 254.055904 263.880867 
L 258.143422 264.203566 
L 259.810699 264.042217 
L 262.123373 263.396819 
L 264.059566 262.321157 
L 264.436048 261.890892 
L 265.565494 260.761446 
L 267.985735 259.309301 
L 269.706795 258.61012 
L 271.374072 257.373108 
L 273.848096 255.867181 
L 277.397783 254.038554 
L 281.431518 251.672096 
L 282.66853 251.026699 
L 285.895518 249.789687 
L 287.240096 248.98294 
L 290.628434 246.508916 
L 292.349494 245.164337 
L 294.231904 244.088675 
L 296.490795 243.013012 
L 300.470747 240.700337 
L 306.655807 237.096867 
L 316.551904 231.342072 
L 325.802602 225.80241 
L 336.881928 218.487904 
L 343.604819 213.539855 
L 345.16453 212.087711 
L 347.799904 209.129639 
L 349.359614 208.053976 
L 352.048771 206.978313 
L 356.781687 206.064 
L 358.55653 205.418602 
L 360.654072 204.235373 
L 362.482699 202.783229 
L 364.795373 201.223518 
L 367.269398 200.309205 
L 371.356916 199.502458 
L 371.356916 199.502458 
" style="fill:none;stroke:#ff6f39;stroke-linecap:square;stroke-width:1.5;"/>
   </g>
   <g id="line2d_98">
    <path clip-path="url(#p9517f5a455)" d="M 157.515181 248.229976 
L 158.913542 248.445108 
L 159.827855 248.929157 
L 160.365687 249.520771 
L 159.881639 249.144289 
L 159.451373 248.98294 
L 160.365687 249.466988 
L 161.333783 250.219952 
L 165.797783 254.522602 
L 166.658313 255.759614 
L 169.293687 260.116048 
L 174.134169 267.69947 
L 177.468723 272.432386 
L 181.179759 277.380434 
L 182.416771 279.477976 
L 183.223518 281.575518 
L 183.546217 283.780627 
L 183.438651 286.039518 
L 183.008386 288.083277 
L 182.73947 290.01947 
L 182.847036 292.385928 
L 183.384867 294.375904 
L 184.514313 296.473446 
L 185.805108 298.140723 
L 187.257253 299.808 
L 189.731277 303.734169 
L 191.290988 305.509012 
L 194.625542 308.036819 
L 197.906313 311.31759 
L 202.101398 314.168096 
L 204.252723 315.351325 
L 206.565398 315.996723 
L 210.384 316.373205 
L 212.535325 316.964819 
L 214.901783 318.148048 
L 216.891759 319.869108 
L 218.612819 322.289349 
L 220.33388 326.484434 
L 221.624675 328.47441 
L 225.013012 331.91653 
L 227.755952 336.004048 
L 229.369446 337.886458 
L 230.875373 339.446169 
L 232.219952 341.167229 
L 233.403181 342.942072 
L 236.199904 346.653108 
L 239.642024 350.901976 
L 245.181687 358.377831 
L 246.418699 360.152675 
L 247.386795 362.196434 
L 248.032193 364.347759 
L 248.570024 366.821783 
L 249.376771 368.704193 
L 251.850795 372.630361 
L 252.711325 374.512771 
L 253.30294 376.287614 
L 253.571855 378.170024 
L 253.356723 380.644048 
L 252.711325 382.795373 
L 251.474313 385.054265 
L 250.398651 387.36694 
L 249.753253 389.356916 
L 249.53812 390.593928 
L 249.484337 391.66959 
L 249.807036 392.906602 
L 250.56 394.520096 
L 251.743229 395.972241 
L 253.195373 397.316819 
L 254.862651 398.607614 
L 256.261012 399.844627 
L 258.035855 401.673253 
L 259.864482 403.286747 
L 263.736867 405.706988 
L 302.191807 428.779952 
L 302.191807 428.779952 
" style="fill:none;stroke:#ff0000;stroke-linecap:square;stroke-width:1.5;"/>
   </g>
   <g id="patch_3">
    <path d="M 72 512.64 
L 72 69.12 
" style="fill:none;stroke:#000000;stroke-linecap:square;stroke-linejoin:miter;stroke-width:0.8;"/>
   </g>
   <g id="patch_4">
    <path d="M 518.4 512.64 
L 518.4 69.12 
" style="fill:none;stroke:#000000;stroke-linecap:square;stroke-linejoin:miter;stroke-width:0.8;"/>
   </g>
   <g id="patch_5">
    <path d="M 72 512.64 
L 518.4 512.64 
" style="fill:none;stroke:#000000;stroke-linecap:square;stroke-linejoin:miter;stroke-width:0.8;"/>
   </g>
   <g id="patch_6">
    <path d="M 72 69.12 
L 518.4 69.12 
" style="fill:none;stroke:#000000;stroke-linecap:square;stroke-linejoin:miter;stroke-width:0.8;"/>
   </g>
   <g id="text_18">
    <!-- 1 -->
    <defs>
     <path d="M 14.203125 0 
L 14.203125 5.171875 
L 26.90625 5.171875 
L 26.90625 65.828125 
L 12.203125 56.296875 
L 12.203125 62.703125 
L 29.984375 74.21875 
L 36.71875 74.21875 
L 36.71875 5.171875 
L 49.421875 5.171875 
L 49.421875 0 
z
" id="DejaVuSerif-31"/>
    </defs>
    <g transform="translate(455.745138 392.544841)scale(0.1 -0.1)">
     <use xlink:href="#DejaVuSerif-31"/>
    </g>
   </g>
   <g id="text_19">
    <!-- 1 -->
    <g transform="translate(244.984594 347.392909)scale(0.1 -0.1)">
     <use xlink:href="#DejaVuSerif-31"/>
    </g>
   </g>
   <g id="text_20">
    <!-- 2 -->
    <defs>
     <path d="M 12.796875 55.515625 
L 7.328125 55.515625 
L 7.328125 68.5 
Q 12.546875 71.296875 17.84375 72.75 
Q 23.140625 74.21875 28.21875 74.21875 
Q 39.59375 74.21875 46.1875 68.703125 
Q 52.78125 63.1875 52.78125 53.71875 
Q 52.78125 43.015625 37.84375 28.125 
Q 36.671875 27 36.078125 26.421875 
L 17.671875 8.015625 
L 48.09375 8.015625 
L 48.09375 17 
L 53.8125 17 
L 53.8125 0 
L 6.78125 0 
L 6.78125 5.328125 
L 28.90625 27.390625 
Q 36.234375 34.71875 39.359375 40.84375 
Q 42.484375 46.96875 42.484375 53.71875 
Q 42.484375 61.078125 38.640625 65.234375 
Q 34.8125 69.390625 28.078125 69.390625 
Q 21.09375 69.390625 17.28125 65.921875 
Q 13.484375 62.453125 12.796875 55.515625 
z
" id="DejaVuSerif-32"/>
    </defs>
    <g transform="translate(406.885495 131.079489)scale(0.1 -0.1)">
     <use xlink:href="#DejaVuSerif-32"/>
    </g>
   </g>
   <g id="text_21">
    <!-- 2 -->
    <g transform="translate(318.811826 318.397662)scale(0.1 -0.1)">
     <use xlink:href="#DejaVuSerif-32"/>
    </g>
   </g>
   <g id="text_22">
    <!-- 3 -->
    <defs>
     <path d="M 9.71875 69.828125 
Q 15.4375 71.96875 20.671875 73.09375 
Q 25.921875 74.21875 30.515625 74.21875 
Q 41.21875 74.21875 47.21875 69.59375 
Q 53.21875 64.984375 53.21875 56.78125 
Q 53.21875 50.203125 49.0625 45.78125 
Q 44.921875 41.359375 37.3125 39.796875 
Q 46.296875 38.53125 51.25 33.28125 
Q 56.203125 28.03125 56.203125 19.671875 
Q 56.203125 9.46875 49.34375 4.015625 
Q 42.484375 -1.421875 29.59375 -1.421875 
Q 23.875 -1.421875 18.421875 -0.1875 
Q 12.984375 1.03125 7.625 3.515625 
L 7.625 17.671875 
L 13.09375 17.671875 
Q 13.578125 10.640625 17.828125 7.03125 
Q 22.078125 3.421875 29.78125 3.421875 
Q 37.25 3.421875 41.578125 7.734375 
Q 45.90625 12.0625 45.90625 19.578125 
Q 45.90625 28.171875 41.453125 32.59375 
Q 37.015625 37.015625 28.421875 37.015625 
L 23.78125 37.015625 
L 23.78125 42 
L 26.21875 42 
Q 34.765625 42 39.03125 45.53125 
Q 43.3125 49.078125 43.3125 56.203125 
Q 43.3125 62.59375 39.796875 65.984375 
Q 36.28125 69.390625 29.6875 69.390625 
Q 23.09375 69.390625 19.453125 66.265625 
Q 15.828125 63.140625 15.1875 56.984375 
L 9.71875 56.984375 
z
" id="DejaVuSerif-33"/>
    </defs>
    <g transform="translate(317.109215 203.293677)scale(0.1 -0.1)">
     <use xlink:href="#DejaVuSerif-33"/>
    </g>
   </g>
   <g id="text_23">
    <!-- 3 -->
    <g transform="translate(174.243097 394.220953)scale(0.1 -0.1)">
     <use xlink:href="#DejaVuSerif-33"/>
    </g>
   </g>
   <g id="text_24">
    <!-- 4 -->
    <defs>
     <path d="M 34.90625 24.703125 
L 34.90625 63.484375 
L 10.015625 24.703125 
z
M 56.390625 0 
L 23.1875 0 
L 23.1875 5.171875 
L 34.90625 5.171875 
L 34.90625 19.484375 
L 3.078125 19.484375 
L 3.078125 24.8125 
L 35.015625 74.21875 
L 44.671875 74.21875 
L 44.671875 24.703125 
L 58.59375 24.703125 
L 58.59375 19.484375 
L 44.671875 19.484375 
L 44.671875 5.171875 
L 56.390625 5.171875 
z
" id="DejaVuSerif-34"/>
    </defs>
    <g transform="translate(183.250879 129.104536)scale(0.1 -0.1)">
     <use xlink:href="#DejaVuSerif-34"/>
    </g>
   </g>
   <g id="text_25">
    <!-- 4 -->
    <g transform="translate(357.513098 404.823443)scale(0.1 -0.1)">
     <use xlink:href="#DejaVuSerif-34"/>
    </g>
   </g>
   <g id="text_26">
    <!-- 5 -->
    <defs>
     <path d="M 50.296875 72.90625 
L 50.296875 64.890625 
L 16.890625 64.890625 
L 16.890625 44 
Q 19.4375 45.75 22.828125 46.625 
Q 26.21875 47.515625 30.421875 47.515625 
Q 42.234375 47.515625 49.0625 40.96875 
Q 55.90625 34.421875 55.90625 23.09375 
Q 55.90625 11.53125 49 5.046875 
Q 42.09375 -1.421875 29.59375 -1.421875 
Q 24.5625 -1.421875 19.28125 -0.1875 
Q 14.015625 1.03125 8.5 3.515625 
L 8.5 17.671875 
L 14.015625 17.671875 
Q 14.453125 10.75 18.421875 7.078125 
Q 22.40625 3.421875 29.59375 3.421875 
Q 37.3125 3.421875 41.453125 8.5 
Q 45.609375 13.578125 45.609375 23.09375 
Q 45.609375 32.5625 41.484375 37.609375 
Q 37.359375 42.671875 29.59375 42.671875 
Q 25.203125 42.671875 21.84375 41.109375 
Q 18.5 39.546875 15.921875 36.28125 
L 11.71875 36.28125 
L 11.71875 72.90625 
z
" id="DejaVuSerif-35"/>
    </defs>
    <g transform="translate(218.719041 402.123664)scale(0.1 -0.1)">
     <use xlink:href="#DejaVuSerif-35"/>
    </g>
   </g>
   <g id="text_27">
    <!-- 5 -->
    <g transform="translate(317.842497 140.943193)scale(0.1 -0.1)">
     <use xlink:href="#DejaVuSerif-35"/>
    </g>
   </g>
   <g id="text_28">
    <!-- 6 -->
    <defs>
     <path d="M 32.71875 3.421875 
Q 39.59375 3.421875 43.296875 8.46875 
Q 47.015625 13.53125 47.015625 23 
Q 47.015625 32.46875 43.296875 37.515625 
Q 39.59375 42.578125 32.71875 42.578125 
Q 25.734375 42.578125 22.0625 37.6875 
Q 18.40625 32.8125 18.40625 23.578125 
Q 18.40625 13.875 22.109375 8.640625 
Q 25.828125 3.421875 32.71875 3.421875 
z
M 16.796875 40.140625 
Q 20.125 43.796875 24.3125 45.59375 
Q 28.515625 47.40625 33.796875 47.40625 
Q 44.671875 47.40625 51 40.859375 
Q 57.328125 34.328125 57.328125 23 
Q 57.328125 11.921875 50.515625 5.25 
Q 43.703125 -1.421875 32.328125 -1.421875 
Q 19.96875 -1.421875 13.328125 7.78125 
Q 6.6875 17 6.6875 34.078125 
Q 6.6875 53.21875 14.546875 63.71875 
Q 22.40625 74.21875 36.71875 74.21875 
Q 40.578125 74.21875 44.828125 73.484375 
Q 49.078125 72.75 53.515625 71.296875 
L 53.515625 59.28125 
L 48 59.28125 
Q 47.40625 64.203125 44.234375 66.796875 
Q 41.0625 69.390625 35.6875 69.390625 
Q 26.21875 69.390625 21.578125 62.203125 
Q 16.9375 55.03125 16.796875 40.140625 
z
" id="DejaVuSerif-36"/>
    </defs>
    <g transform="translate(246.902283 305.376172)scale(0.1 -0.1)">
     <use xlink:href="#DejaVuSerif-36"/>
    </g>
   </g>
   <g id="text_29">
    <!-- 6 -->
    <g transform="translate(447.88553 272.207496)scale(0.1 -0.1)">
     <use xlink:href="#DejaVuSerif-36"/>
    </g>
   </g>
   <g id="text_30">
    <!-- 7 -->
    <defs>
     <path d="M 56.390625 67.921875 
L 27.875 0 
L 20.609375 0 
L 47.796875 64.890625 
L 14.109375 64.890625 
L 14.109375 55.90625 
L 8.40625 55.90625 
L 8.40625 72.90625 
L 56.390625 72.90625 
z
" id="DejaVuSerif-37"/>
    </defs>
    <g transform="translate(135.672193 281.047006)scale(0.1 -0.1)">
     <use xlink:href="#DejaVuSerif-37"/>
    </g>
   </g>
   <g id="text_31">
    <!-- 7 -->
    <g transform="translate(369.550758 198.566658)scale(0.1 -0.1)">
     <use xlink:href="#DejaVuSerif-37"/>
    </g>
   </g>
   <g id="text_32">
    <!-- 8 -->
    <defs>
     <path d="M 46.578125 19.921875 
Q 46.578125 27.734375 42.6875 32.046875 
Q 38.8125 36.375 31.78125 36.375 
Q 24.75 36.375 20.875 32.046875 
Q 17 27.734375 17 19.921875 
Q 17 12.0625 20.875 7.734375 
Q 24.75 3.421875 31.78125 3.421875 
Q 38.8125 3.421875 42.6875 7.734375 
Q 46.578125 12.0625 46.578125 19.921875 
z
M 44.578125 55.328125 
Q 44.578125 61.96875 41.203125 65.671875 
Q 37.84375 69.390625 31.78125 69.390625 
Q 25.78125 69.390625 22.390625 65.671875 
Q 19 61.96875 19 55.328125 
Q 19 48.640625 22.390625 44.921875 
Q 25.78125 41.21875 31.78125 41.21875 
Q 37.84375 41.21875 41.203125 44.921875 
Q 44.578125 48.640625 44.578125 55.328125 
z
M 39.3125 38.8125 
Q 47.609375 37.703125 52.25 32.6875 
Q 56.890625 27.6875 56.890625 19.921875 
Q 56.890625 9.671875 50.390625 4.125 
Q 43.890625 -1.421875 31.78125 -1.421875 
Q 19.734375 -1.421875 13.203125 4.125 
Q 6.6875 9.671875 6.6875 19.921875 
Q 6.6875 27.6875 11.328125 32.6875 
Q 15.96875 37.703125 24.3125 38.8125 
Q 16.9375 40.140625 13 44.40625 
Q 9.078125 48.6875 9.078125 55.328125 
Q 9.078125 64.109375 15.125 69.15625 
Q 21.1875 74.21875 31.78125 74.21875 
Q 42.390625 74.21875 48.4375 69.15625 
Q 54.5 64.109375 54.5 55.328125 
Q 54.5 48.6875 50.5625 44.40625 
Q 46.625 40.140625 39.3125 38.8125 
z
" id="DejaVuSerif-38"/>
    </defs>
    <g transform="translate(154.340476 248.244584)scale(0.1 -0.1)">
     <use xlink:href="#DejaVuSerif-38"/>
    </g>
   </g>
   <g id="text_33">
    <!-- 8 -->
    <g transform="translate(299.990124 429.368992)scale(0.1 -0.1)">
     <use xlink:href="#DejaVuSerif-38"/>
    </g>
   </g>
  </g>
 </g>
 <defs>
  <clipPath id="p9517f5a455">
   <rect height="443.52" width="446.4" x="72" y="69.12"/>
  </clipPath>
 </defs>
</svg>
