<?xml version="1.0" encoding="utf-8" standalone="no"?>
<!DOCTYPE svg PUBLIC "-//W3C//DTD SVG 1.1//EN"
  "http://www.w3.org/Graphics/SVG/1.1/DTD/svg11.dtd">
<!-- Created with matplotlib (http://matplotlib.org/) -->
<svg height="576pt" version="1.1" viewBox="0 0 576 576" width="576pt" xmlns="http://www.w3.org/2000/svg" xmlns:xlink="http://www.w3.org/1999/xlink">
 <defs>
  <style type="text/css">
*{stroke-linecap:butt;stroke-linejoin:round;}
  </style>
 </defs>
 <g id="figure_1">
  <g id="patch_1">
   <path d="M 0 576 
L 576 576 
L 576 0 
L 0 0 
z
" style="fill:#ffffff;"/>
  </g>
  <g id="axes_1">
   <g id="patch_2">
    <path d="M 72 512.64 
L 518.4 512.64 
L 518.4 69.12 
L 72 69.12 
z
" style="fill:#ffffff;"/>
   </g>
   <g id="matplotlib.axis_1">
    <g id="xtick_1">
     <g id="line2d_1">
      <defs>
       <path d="M 0 0 
L 0 3.5 
" id="m019d6474ef" style="stroke:#000000;stroke-width:0.8;"/>
      </defs>
      <g>
       <use style="stroke:#000000;stroke-width:0.8;" x="72" xlink:href="#m019d6474ef" y="512.64"/>
      </g>
     </g>
     <g id="text_1">
      <!-- −1 -->
      <defs>
       <path d="M 10.59375 35.5 
L 73.1875 35.5 
L 73.1875 27.203125 
L 10.59375 27.203125 
z
" id="DejaVuSans-2212"/>
       <path d="M 12.40625 8.296875 
L 28.515625 8.296875 
L 28.515625 63.921875 
L 10.984375 60.40625 
L 10.984375 69.390625 
L 28.421875 72.90625 
L 38.28125 72.90625 
L 38.28125 8.296875 
L 54.390625 8.296875 
L 54.390625 0 
L 12.40625 0 
z
" id="DejaVuSans-31"/>
      </defs>
      <g transform="translate(64.628906 527.238438)scale(0.1 -0.1)">
       <use xlink:href="#DejaVuSans-2212"/>
       <use x="83.789062" xlink:href="#DejaVuSans-31"/>
      </g>
     </g>
    </g>
    <g id="xtick_2">
     <g id="line2d_2">
      <g>
       <use style="stroke:#000000;stroke-width:0.8;" x="125.783133" xlink:href="#m019d6474ef" y="512.64"/>
      </g>
     </g>
     <g id="text_2">
      <!-- 0 -->
      <defs>
       <path d="M 31.78125 66.40625 
Q 24.171875 66.40625 20.328125 58.90625 
Q 16.5 51.421875 16.5 36.375 
Q 16.5 21.390625 20.328125 13.890625 
Q 24.171875 6.390625 31.78125 6.390625 
Q 39.453125 6.390625 43.28125 13.890625 
Q 47.125 21.390625 47.125 36.375 
Q 47.125 51.421875 43.28125 58.90625 
Q 39.453125 66.40625 31.78125 66.40625 
z
M 31.78125 74.21875 
Q 44.046875 74.21875 50.515625 64.515625 
Q 56.984375 54.828125 56.984375 36.375 
Q 56.984375 17.96875 50.515625 8.265625 
Q 44.046875 -1.421875 31.78125 -1.421875 
Q 19.53125 -1.421875 13.0625 8.265625 
Q 6.59375 17.96875 6.59375 36.375 
Q 6.59375 54.828125 13.0625 64.515625 
Q 19.53125 74.21875 31.78125 74.21875 
z
" id="DejaVuSans-30"/>
      </defs>
      <g transform="translate(122.601883 527.238438)scale(0.1 -0.1)">
       <use xlink:href="#DejaVuSans-30"/>
      </g>
     </g>
    </g>
    <g id="xtick_3">
     <g id="line2d_3">
      <g>
       <use style="stroke:#000000;stroke-width:0.8;" x="179.566265" xlink:href="#m019d6474ef" y="512.64"/>
      </g>
     </g>
     <g id="text_3">
      <!-- 1 -->
      <g transform="translate(176.385015 527.238438)scale(0.1 -0.1)">
       <use xlink:href="#DejaVuSans-31"/>
      </g>
     </g>
    </g>
    <g id="xtick_4">
     <g id="line2d_4">
      <g>
       <use style="stroke:#000000;stroke-width:0.8;" x="233.349398" xlink:href="#m019d6474ef" y="512.64"/>
      </g>
     </g>
     <g id="text_4">
      <!-- 2 -->
      <defs>
       <path d="M 19.1875 8.296875 
L 53.609375 8.296875 
L 53.609375 0 
L 7.328125 0 
L 7.328125 8.296875 
Q 12.9375 14.109375 22.625 23.890625 
Q 32.328125 33.6875 34.8125 36.53125 
Q 39.546875 41.84375 41.421875 45.53125 
Q 43.3125 49.21875 43.3125 52.78125 
Q 43.3125 58.59375 39.234375 62.25 
Q 35.15625 65.921875 28.609375 65.921875 
Q 23.96875 65.921875 18.8125 64.3125 
Q 13.671875 62.703125 7.8125 59.421875 
L 7.8125 69.390625 
Q 13.765625 71.78125 18.9375 73 
Q 24.125 74.21875 28.421875 74.21875 
Q 39.75 74.21875 46.484375 68.546875 
Q 53.21875 62.890625 53.21875 53.421875 
Q 53.21875 48.921875 51.53125 44.890625 
Q 49.859375 40.875 45.40625 35.40625 
Q 44.1875 33.984375 37.640625 27.21875 
Q 31.109375 20.453125 19.1875 8.296875 
z
" id="DejaVuSans-32"/>
      </defs>
      <g transform="translate(230.168148 527.238438)scale(0.1 -0.1)">
       <use xlink:href="#DejaVuSans-32"/>
      </g>
     </g>
    </g>
    <g id="xtick_5">
     <g id="line2d_5">
      <g>
       <use style="stroke:#000000;stroke-width:0.8;" x="287.13253" xlink:href="#m019d6474ef" y="512.64"/>
      </g>
     </g>
     <g id="text_5">
      <!-- 3 -->
      <defs>
       <path d="M 40.578125 39.3125 
Q 47.65625 37.796875 51.625 33 
Q 55.609375 28.21875 55.609375 21.1875 
Q 55.609375 10.40625 48.1875 4.484375 
Q 40.765625 -1.421875 27.09375 -1.421875 
Q 22.515625 -1.421875 17.65625 -0.515625 
Q 12.796875 0.390625 7.625 2.203125 
L 7.625 11.71875 
Q 11.71875 9.328125 16.59375 8.109375 
Q 21.484375 6.890625 26.8125 6.890625 
Q 36.078125 6.890625 40.9375 10.546875 
Q 45.796875 14.203125 45.796875 21.1875 
Q 45.796875 27.640625 41.28125 31.265625 
Q 36.765625 34.90625 28.71875 34.90625 
L 20.21875 34.90625 
L 20.21875 43.015625 
L 29.109375 43.015625 
Q 36.375 43.015625 40.234375 45.921875 
Q 44.09375 48.828125 44.09375 54.296875 
Q 44.09375 59.90625 40.109375 62.90625 
Q 36.140625 65.921875 28.71875 65.921875 
Q 24.65625 65.921875 20.015625 65.03125 
Q 15.375 64.15625 9.8125 62.3125 
L 9.8125 71.09375 
Q 15.4375 72.65625 20.34375 73.4375 
Q 25.25 74.21875 29.59375 74.21875 
Q 40.828125 74.21875 47.359375 69.109375 
Q 53.90625 64.015625 53.90625 55.328125 
Q 53.90625 49.265625 50.4375 45.09375 
Q 46.96875 40.921875 40.578125 39.3125 
z
" id="DejaVuSans-33"/>
      </defs>
      <g transform="translate(283.95128 527.238438)scale(0.1 -0.1)">
       <use xlink:href="#DejaVuSans-33"/>
      </g>
     </g>
    </g>
    <g id="xtick_6">
     <g id="line2d_6">
      <g>
       <use style="stroke:#000000;stroke-width:0.8;" x="340.915663" xlink:href="#m019d6474ef" y="512.64"/>
      </g>
     </g>
     <g id="text_6">
      <!-- 4 -->
      <defs>
       <path d="M 37.796875 64.3125 
L 12.890625 25.390625 
L 37.796875 25.390625 
z
M 35.203125 72.90625 
L 47.609375 72.90625 
L 47.609375 25.390625 
L 58.015625 25.390625 
L 58.015625 17.1875 
L 47.609375 17.1875 
L 47.609375 0 
L 37.796875 0 
L 37.796875 17.1875 
L 4.890625 17.1875 
L 4.890625 26.703125 
z
" id="DejaVuSans-34"/>
      </defs>
      <g transform="translate(337.734413 527.238438)scale(0.1 -0.1)">
       <use xlink:href="#DejaVuSans-34"/>
      </g>
     </g>
    </g>
    <g id="xtick_7">
     <g id="line2d_7">
      <g>
       <use style="stroke:#000000;stroke-width:0.8;" x="394.698795" xlink:href="#m019d6474ef" y="512.64"/>
      </g>
     </g>
     <g id="text_7">
      <!-- 5 -->
      <defs>
       <path d="M 10.796875 72.90625 
L 49.515625 72.90625 
L 49.515625 64.59375 
L 19.828125 64.59375 
L 19.828125 46.734375 
Q 21.96875 47.46875 24.109375 47.828125 
Q 26.265625 48.1875 28.421875 48.1875 
Q 40.625 48.1875 47.75 41.5 
Q 54.890625 34.8125 54.890625 23.390625 
Q 54.890625 11.625 47.5625 5.09375 
Q 40.234375 -1.421875 26.90625 -1.421875 
Q 22.3125 -1.421875 17.546875 -0.640625 
Q 12.796875 0.140625 7.71875 1.703125 
L 7.71875 11.625 
Q 12.109375 9.234375 16.796875 8.0625 
Q 21.484375 6.890625 26.703125 6.890625 
Q 35.15625 6.890625 40.078125 11.328125 
Q 45.015625 15.765625 45.015625 23.390625 
Q 45.015625 31 40.078125 35.4375 
Q 35.15625 39.890625 26.703125 39.890625 
Q 22.75 39.890625 18.8125 39.015625 
Q 14.890625 38.140625 10.796875 36.28125 
z
" id="DejaVuSans-35"/>
      </defs>
      <g transform="translate(391.517545 527.238438)scale(0.1 -0.1)">
       <use xlink:href="#DejaVuSans-35"/>
      </g>
     </g>
    </g>
    <g id="xtick_8">
     <g id="line2d_8">
      <g>
       <use style="stroke:#000000;stroke-width:0.8;" x="448.481928" xlink:href="#m019d6474ef" y="512.64"/>
      </g>
     </g>
     <g id="text_8">
      <!-- 6 -->
      <defs>
       <path d="M 33.015625 40.375 
Q 26.375 40.375 22.484375 35.828125 
Q 18.609375 31.296875 18.609375 23.390625 
Q 18.609375 15.53125 22.484375 10.953125 
Q 26.375 6.390625 33.015625 6.390625 
Q 39.65625 6.390625 43.53125 10.953125 
Q 47.40625 15.53125 47.40625 23.390625 
Q 47.40625 31.296875 43.53125 35.828125 
Q 39.65625 40.375 33.015625 40.375 
z
M 52.59375 71.296875 
L 52.59375 62.3125 
Q 48.875 64.0625 45.09375 64.984375 
Q 41.3125 65.921875 37.59375 65.921875 
Q 27.828125 65.921875 22.671875 59.328125 
Q 17.53125 52.734375 16.796875 39.40625 
Q 19.671875 43.65625 24.015625 45.921875 
Q 28.375 48.1875 33.59375 48.1875 
Q 44.578125 48.1875 50.953125 41.515625 
Q 57.328125 34.859375 57.328125 23.390625 
Q 57.328125 12.15625 50.6875 5.359375 
Q 44.046875 -1.421875 33.015625 -1.421875 
Q 20.359375 -1.421875 13.671875 8.265625 
Q 6.984375 17.96875 6.984375 36.375 
Q 6.984375 53.65625 15.1875 63.9375 
Q 23.390625 74.21875 37.203125 74.21875 
Q 40.921875 74.21875 44.703125 73.484375 
Q 48.484375 72.75 52.59375 71.296875 
z
" id="DejaVuSans-36"/>
      </defs>
      <g transform="translate(445.300678 527.238438)scale(0.1 -0.1)">
       <use xlink:href="#DejaVuSans-36"/>
      </g>
     </g>
    </g>
    <g id="xtick_9">
     <g id="line2d_9">
      <g>
       <use style="stroke:#000000;stroke-width:0.8;" x="502.26506" xlink:href="#m019d6474ef" y="512.64"/>
      </g>
     </g>
     <g id="text_9">
      <!-- 7 -->
      <defs>
       <path d="M 8.203125 72.90625 
L 55.078125 72.90625 
L 55.078125 68.703125 
L 28.609375 0 
L 18.3125 0 
L 43.21875 64.59375 
L 8.203125 64.59375 
z
" id="DejaVuSans-37"/>
      </defs>
      <g transform="translate(499.08381 527.238438)scale(0.1 -0.1)">
       <use xlink:href="#DejaVuSans-37"/>
      </g>
     </g>
    </g>
   </g>
   <g id="matplotlib.axis_2">
    <g id="ytick_1">
     <g id="line2d_10">
      <defs>
       <path d="M 0 0 
L -3.5 0 
" id="m8984e46fa0" style="stroke:#000000;stroke-width:0.8;"/>
      </defs>
      <g>
       <use style="stroke:#000000;stroke-width:0.8;" x="72" xlink:href="#m8984e46fa0" y="460.296867"/>
      </g>
     </g>
     <g id="text_10">
      <!-- 0 -->
      <g transform="translate(58.6375 464.096086)scale(0.1 -0.1)">
       <use xlink:href="#DejaVuSans-30"/>
      </g>
     </g>
    </g>
    <g id="ytick_2">
     <g id="line2d_11">
      <g>
       <use style="stroke:#000000;stroke-width:0.8;" x="72" xlink:href="#m8984e46fa0" y="406.513735"/>
      </g>
     </g>
     <g id="text_11">
      <!-- 1 -->
      <g transform="translate(58.6375 410.312954)scale(0.1 -0.1)">
       <use xlink:href="#DejaVuSans-31"/>
      </g>
     </g>
    </g>
    <g id="ytick_3">
     <g id="line2d_12">
      <g>
       <use style="stroke:#000000;stroke-width:0.8;" x="72" xlink:href="#m8984e46fa0" y="352.730602"/>
      </g>
     </g>
     <g id="text_12">
      <!-- 2 -->
      <g transform="translate(58.6375 356.529821)scale(0.1 -0.1)">
       <use xlink:href="#DejaVuSans-32"/>
      </g>
     </g>
    </g>
    <g id="ytick_4">
     <g id="line2d_13">
      <g>
       <use style="stroke:#000000;stroke-width:0.8;" x="72" xlink:href="#m8984e46fa0" y="298.94747"/>
      </g>
     </g>
     <g id="text_13">
      <!-- 3 -->
      <g transform="translate(58.6375 302.746689)scale(0.1 -0.1)">
       <use xlink:href="#DejaVuSans-33"/>
      </g>
     </g>
    </g>
    <g id="ytick_5">
     <g id="line2d_14">
      <g>
       <use style="stroke:#000000;stroke-width:0.8;" x="72" xlink:href="#m8984e46fa0" y="245.164337"/>
      </g>
     </g>
     <g id="text_14">
      <!-- 4 -->
      <g transform="translate(58.6375 248.963556)scale(0.1 -0.1)">
       <use xlink:href="#DejaVuSans-34"/>
      </g>
     </g>
    </g>
    <g id="ytick_6">
     <g id="line2d_15">
      <g>
       <use style="stroke:#000000;stroke-width:0.8;" x="72" xlink:href="#m8984e46fa0" y="191.381205"/>
      </g>
     </g>
     <g id="text_15">
      <!-- 5 -->
      <g transform="translate(58.6375 195.180424)scale(0.1 -0.1)">
       <use xlink:href="#DejaVuSans-35"/>
      </g>
     </g>
    </g>
    <g id="ytick_7">
     <g id="line2d_16">
      <g>
       <use style="stroke:#000000;stroke-width:0.8;" x="72" xlink:href="#m8984e46fa0" y="137.598072"/>
      </g>
     </g>
     <g id="text_16">
      <!-- 6 -->
      <g transform="translate(58.6375 141.397291)scale(0.1 -0.1)">
       <use xlink:href="#DejaVuSans-36"/>
      </g>
     </g>
    </g>
    <g id="ytick_8">
     <g id="line2d_17">
      <g>
       <use style="stroke:#000000;stroke-width:0.8;" x="72" xlink:href="#m8984e46fa0" y="83.81494"/>
      </g>
     </g>
     <g id="text_17">
      <!-- 7 -->
      <g transform="translate(58.6375 87.614159)scale(0.1 -0.1)">
       <use xlink:href="#DejaVuSans-37"/>
      </g>
     </g>
    </g>
   </g>
   <g id="line2d_18">
    <path clip-path="url(#p9d18602359)" d="M 347.792998 340.239991 
" style="fill:none;stroke:#1f77b4;stroke-linecap:square;stroke-width:1.5;"/>
    <defs>
     <path d="M -5 5 
L 5 5 
L 5 -5 
L -5 -5 
z
" id="mcc0356d900" style="stroke:#8000ff;stroke-linejoin:miter;"/>
    </defs>
    <g clip-path="url(#p9d18602359)">
     <use style="fill:#8000ff;stroke:#8000ff;stroke-linejoin:miter;" x="347.792998" xlink:href="#mcc0356d900" y="340.239991"/>
    </g>
   </g>
   <g id="line2d_19">
    <path clip-path="url(#p9d18602359)" d="M 209.071735 134.308354 
" style="fill:none;stroke:#ff7f0e;stroke-linecap:square;stroke-width:1.5;"/>
    <defs>
     <path d="M 0 -5 
L -4.755283 -1.545085 
L -2.938926 4.045085 
L 2.938926 4.045085 
L 4.755283 -1.545085 
z
" id="m75993d2156" style="stroke:#8000ff;stroke-linejoin:miter;"/>
    </defs>
    <g clip-path="url(#p9d18602359)">
     <use style="fill:#8000ff;stroke:#8000ff;stroke-linejoin:miter;" x="209.071735" xlink:href="#m75993d2156" y="134.308354"/>
    </g>
   </g>
   <g id="line2d_20">
    <path clip-path="url(#p9d18602359)" d="M 396.138708 153.40885 
" style="fill:none;stroke:#2ca02c;stroke-linecap:square;stroke-width:1.5;"/>
    <defs>
     <path d="M -5 5 
L 5 5 
L 5 -5 
L -5 -5 
z
" id="m2ffb745e1c" style="stroke:#376ff9;stroke-linejoin:miter;"/>
    </defs>
    <g clip-path="url(#p9d18602359)">
     <use style="fill:#376ff9;stroke:#376ff9;stroke-linejoin:miter;" x="396.138708" xlink:href="#m2ffb745e1c" y="153.40885"/>
    </g>
   </g>
   <g id="line2d_21">
    <path clip-path="url(#p9d18602359)" d="M 182.289251 406.804536 
" style="fill:none;stroke:#d62728;stroke-linecap:square;stroke-width:1.5;"/>
    <defs>
     <path d="M 0 -5 
L -4.755283 -1.545085 
L -2.938926 4.045085 
L 2.938926 4.045085 
L 4.755283 -1.545085 
z
" id="mb5c1281401" style="stroke:#376ff9;stroke-linejoin:miter;"/>
    </defs>
    <g clip-path="url(#p9d18602359)">
     <use style="fill:#376ff9;stroke:#376ff9;stroke-linejoin:miter;" x="182.289251" xlink:href="#mb5c1281401" y="406.804536"/>
    </g>
   </g>
   <g id="line2d_22">
    <path clip-path="url(#p9d18602359)" d="M 172.831591 200.280907 
" style="fill:none;stroke:#9467bd;stroke-linecap:square;stroke-width:1.5;"/>
    <defs>
     <path d="M -5 5 
L 5 5 
L 5 -5 
L -5 -5 
z
" id="m9ee5c5bff5" style="stroke:#12c7e6;stroke-linejoin:miter;"/>
    </defs>
    <g clip-path="url(#p9d18602359)">
     <use style="fill:#12c7e6;stroke:#12c7e6;stroke-linejoin:miter;" x="172.831591" xlink:href="#m9ee5c5bff5" y="200.280907"/>
    </g>
   </g>
   <g id="line2d_23">
    <path clip-path="url(#p9d18602359)" d="M 421.554315 270.92097 
" style="fill:none;stroke:#8c564b;stroke-linecap:square;stroke-width:1.5;"/>
    <defs>
     <path d="M 0 -5 
L -4.755283 -1.545085 
L -2.938926 4.045085 
L 2.938926 4.045085 
L 4.755283 -1.545085 
z
" id="meedf1b4e74" style="stroke:#12c7e6;stroke-linejoin:miter;"/>
    </defs>
    <g clip-path="url(#p9d18602359)">
     <use style="fill:#12c7e6;stroke:#12c7e6;stroke-linejoin:miter;" x="421.554315" xlink:href="#meedf1b4e74" y="270.92097"/>
    </g>
   </g>
   <g id="line2d_24">
    <path clip-path="url(#p9d18602359)" d="M 268.526542 422.309203 
" style="fill:none;stroke:#e377c2;stroke-linecap:square;stroke-width:1.5;"/>
    <defs>
     <path d="M -5 5 
L 5 5 
L 5 -5 
L -5 -5 
z
" id="m49b4655541" style="stroke:#5bf9c7;stroke-linejoin:miter;"/>
    </defs>
    <g clip-path="url(#p9d18602359)">
     <use style="fill:#5bf9c7;stroke:#5bf9c7;stroke-linejoin:miter;" x="268.526542" xlink:href="#m49b4655541" y="422.309203"/>
    </g>
   </g>
   <g id="line2d_25">
    <path clip-path="url(#p9d18602359)" d="M 275.425659 191.231959 
" style="fill:none;stroke:#7f7f7f;stroke-linecap:square;stroke-width:1.5;"/>
    <defs>
     <path d="M 0 -5 
L -4.755283 -1.545085 
L -2.938926 4.045085 
L 2.938926 4.045085 
L 4.755283 -1.545085 
z
" id="m83aea9aeda" style="stroke:#5bf9c7;stroke-linejoin:miter;"/>
    </defs>
    <g clip-path="url(#p9d18602359)">
     <use style="fill:#5bf9c7;stroke:#5bf9c7;stroke-linejoin:miter;" x="275.425659" xlink:href="#m83aea9aeda" y="191.231959"/>
    </g>
   </g>
   <g id="line2d_26">
    <path clip-path="url(#p9d18602359)" d="M 127.008185 268.876116 
" style="fill:none;stroke:#bcbd22;stroke-linecap:square;stroke-width:1.5;"/>
    <defs>
     <path d="M -5 5 
L 5 5 
L 5 -5 
L -5 -5 
z
" id="meee951e5d0" style="stroke:#a4f99f;stroke-linejoin:miter;"/>
    </defs>
    <g clip-path="url(#p9d18602359)">
     <use style="fill:#a4f99f;stroke:#a4f99f;stroke-linejoin:miter;" x="127.008185" xlink:href="#meee951e5d0" y="268.876116"/>
    </g>
   </g>
   <g id="line2d_27">
    <path clip-path="url(#p9d18602359)" d="M 369.642418 253.728687 
" style="fill:none;stroke:#17becf;stroke-linecap:square;stroke-width:1.5;"/>
    <defs>
     <path d="M 0 -5 
L -4.755283 -1.545085 
L -2.938926 4.045085 
L 2.938926 4.045085 
L 4.755283 -1.545085 
z
" id="mc2836c97fe" style="stroke:#a4f99f;stroke-linejoin:miter;"/>
    </defs>
    <g clip-path="url(#p9d18602359)">
     <use style="fill:#a4f99f;stroke:#a4f99f;stroke-linejoin:miter;" x="369.642418" xlink:href="#mc2836c97fe" y="253.728687"/>
    </g>
   </g>
   <g id="line2d_28">
    <path clip-path="url(#p9d18602359)" d="M 389.322509 207.110615 
" style="fill:none;stroke:#1f77b4;stroke-linecap:square;stroke-width:1.5;"/>
    <defs>
     <path d="M -5 5 
L 5 5 
L 5 -5 
L -5 -5 
z
" id="m3ed4003bd9" style="stroke:#edc76f;stroke-linejoin:miter;"/>
    </defs>
    <g clip-path="url(#p9d18602359)">
     <use style="fill:#edc76f;stroke:#edc76f;stroke-linejoin:miter;" x="389.322509" xlink:href="#m3ed4003bd9" y="207.110615"/>
    </g>
   </g>
   <g id="line2d_29">
    <path clip-path="url(#p9d18602359)" d="M 181.141938 252.222761 
" style="fill:none;stroke:#ff7f0e;stroke-linecap:square;stroke-width:1.5;"/>
    <defs>
     <path d="M 0 -5 
L -4.755283 -1.545085 
L -2.938926 4.045085 
L 2.938926 4.045085 
L 4.755283 -1.545085 
z
" id="m0d43a5772c" style="stroke:#edc76f;stroke-linejoin:miter;"/>
    </defs>
    <g clip-path="url(#p9d18602359)">
     <use style="fill:#edc76f;stroke:#edc76f;stroke-linejoin:miter;" x="181.141938" xlink:href="#m0d43a5772c" y="252.222761"/>
    </g>
   </g>
   <g id="line2d_30">
    <path clip-path="url(#p9d18602359)" d="M 324.331447 283.426622 
" style="fill:none;stroke:#2ca02c;stroke-linecap:square;stroke-width:1.5;"/>
    <defs>
     <path d="M -5 5 
L 5 5 
L 5 -5 
L -5 -5 
z
" id="m5e0f602bfd" style="stroke:#ff6f39;stroke-linejoin:miter;"/>
    </defs>
    <g clip-path="url(#p9d18602359)">
     <use style="fill:#ff6f39;stroke:#ff6f39;stroke-linejoin:miter;" x="324.331447" xlink:href="#m5e0f602bfd" y="283.426622"/>
    </g>
   </g>
   <g id="line2d_31">
    <path clip-path="url(#p9d18602359)" d="M 128.057281 404.384129 
" style="fill:none;stroke:#d62728;stroke-linecap:square;stroke-width:1.5;"/>
    <defs>
     <path d="M 0 -5 
L -4.755283 -1.545085 
L -2.938926 4.045085 
L 2.938926 4.045085 
L 4.755283 -1.545085 
z
" id="ma966091b98" style="stroke:#ff6f39;stroke-linejoin:miter;"/>
    </defs>
    <g clip-path="url(#p9d18602359)">
     <use style="fill:#ff6f39;stroke:#ff6f39;stroke-linejoin:miter;" x="128.057281" xlink:href="#ma966091b98" y="404.384129"/>
    </g>
   </g>
   <g id="line2d_32">
    <path clip-path="url(#p9d18602359)" d="M 281.140978 377.92349 
" style="fill:none;stroke:#9467bd;stroke-linecap:square;stroke-width:1.5;"/>
    <defs>
     <path d="M -5 5 
L 5 5 
L 5 -5 
L -5 -5 
z
" id="m742366b6a0" style="stroke:#ff0000;stroke-linejoin:miter;"/>
    </defs>
    <g clip-path="url(#p9d18602359)">
     <use style="fill:#ff0000;stroke:#ff0000;stroke-linejoin:miter;" x="281.140978" xlink:href="#m742366b6a0" y="377.92349"/>
    </g>
   </g>
   <g id="line2d_33">
    <path clip-path="url(#p9d18602359)" d="M 168.615607 122.318282 
" style="fill:none;stroke:#8c564b;stroke-linecap:square;stroke-width:1.5;"/>
    <defs>
     <path d="M 0 -5 
L -4.755283 -1.545085 
L -2.938926 4.045085 
L 2.938926 4.045085 
L 4.755283 -1.545085 
z
" id="mef999e133d" style="stroke:#ff0000;stroke-linejoin:miter;"/>
    </defs>
    <g clip-path="url(#p9d18602359)">
     <use style="fill:#ff0000;stroke:#ff0000;stroke-linejoin:miter;" x="168.615607" xlink:href="#mef999e133d" y="122.318282"/>
    </g>
   </g>
   <g id="line2d_34">
    <defs>
     <path d="M 0 2.5 
C 0.663008 2.5 1.29895 2.236584 1.767767 1.767767 
C 2.236584 1.29895 2.5 0.663008 2.5 0 
C 2.5 -0.663008 2.236584 -1.29895 1.767767 -1.767767 
C 1.29895 -2.236584 0.663008 -2.5 0 -2.5 
C -0.663008 -2.5 -1.29895 -2.236584 -1.767767 -1.767767 
C -2.236584 -1.29895 -2.5 -0.663008 -2.5 0 
C -2.5 0.663008 -2.236584 1.29895 -1.767767 1.767767 
C -1.29895 2.236584 -0.663008 2.5 0 2.5 
z
" id="m6f70b1204c" style="stroke:#000000;"/>
    </defs>
    <g clip-path="url(#p9d18602359)">
     <use style="stroke:#000000;" x="234.253916" xlink:href="#m6f70b1204c" y="322.49632"/>
     <use style="stroke:#000000;" x="339.454729" xlink:href="#m6f70b1204c" y="441.556289"/>
     <use style="stroke:#000000;" x="409.713319" xlink:href="#m6f70b1204c" y="374.543385"/>
     <use style="stroke:#000000;" x="130.988467" xlink:href="#m6f70b1204c" y="363.262537"/>
     <use style="stroke:#000000;" x="220.921491" xlink:href="#m6f70b1204c" y="233.279783"/>
     <use style="stroke:#000000;" x="214.377984" xlink:href="#m6f70b1204c" y="434.078306"/>
     <use style="stroke:#000000;" x="136.724783" xlink:href="#m6f70b1204c" y="143.033335"/>
     <use style="stroke:#000000;" x="432.972067" xlink:href="#m6f70b1204c" y="384.066321"/>
     <use style="stroke:#000000;" x="191.930116" xlink:href="#m6f70b1204c" y="300.779596"/>
     <use style="stroke:#000000;" x="434.419701" xlink:href="#m6f70b1204c" y="220.89779"/>
     <use style="stroke:#000000;" x="445.618422" xlink:href="#m6f70b1204c" y="432.002967"/>
     <use style="stroke:#000000;" x="155.358144" xlink:href="#m6f70b1204c" y="297.237523"/>
     <use style="stroke:#000000;" x="314.363019" xlink:href="#m6f70b1204c" y="128.884326"/>
     <use style="stroke:#000000;" x="320.899841" xlink:href="#m6f70b1204c" y="146.607651"/>
     <use style="stroke:#000000;" x="457.202299" xlink:href="#m6f70b1204c" y="454.565613"/>
     <use style="stroke:#000000;" x="419.516422" xlink:href="#m6f70b1204c" y="453.829022"/>
     <use style="stroke:#000000;" x="430.413535" xlink:href="#m6f70b1204c" y="407.131052"/>
     <use style="stroke:#000000;" x="326.986636" xlink:href="#m6f70b1204c" y="191.696745"/>
     <use style="stroke:#000000;" x="265.386461" xlink:href="#m6f70b1204c" y="253.008553"/>
     <use style="stroke:#000000;" x="315.668291" xlink:href="#m6f70b1204c" y="443.422074"/>
     <use style="stroke:#000000;" x="400.287844" xlink:href="#m6f70b1204c" y="406.630312"/>
     <use style="stroke:#000000;" x="396.368874" xlink:href="#m6f70b1204c" y="311.608168"/>
     <use style="stroke:#000000;" x="327.56151" xlink:href="#m6f70b1204c" y="442.489182"/>
     <use style="stroke:#000000;" x="421.342693" xlink:href="#m6f70b1204c" y="379.304853"/>
     <use style="stroke:#000000;" x="405.000582" xlink:href="#m6f70b1204c" y="390.586848"/>
     <use style="stroke:#000000;" x="431.692801" xlink:href="#m6f70b1204c" y="395.598686"/>
     <use style="stroke:#000000;" x="451.41036" xlink:href="#m6f70b1204c" y="443.28429"/>
     <use style="stroke:#000000;" x="432.567422" xlink:href="#m6f70b1204c" y="442.915995"/>
     <use style="stroke:#000000;" x="438.015978" xlink:href="#m6f70b1204c" y="419.56701"/>
     <use style="stroke:#000000;" x="415.35069" xlink:href="#m6f70b1204c" y="406.880682"/>
    </g>
   </g>
   <g id="line2d_35">
    <path clip-path="url(#p9d18602359)" d="M 255.767169 322.49632 
L 254.601521 315.510978 
L 251.230895 309.282607 
L 246.02055 304.486146 
L 239.535107 301.641367 
L 232.477365 301.056546 
L 225.61214 302.795057 
L 219.683386 306.668506 
L 215.333574 312.257143 
L 213.034075 318.955355 
L 213.034075 326.037285 
L 215.333574 332.735497 
L 219.683386 338.324135 
L 225.61214 342.197583 
L 232.477365 343.936095 
L 239.535107 343.351273 
L 246.02055 340.506494 
L 251.230895 335.710034 
L 254.601521 329.481662 
L 255.767169 322.49632 
" style="fill:none;stroke:#000000;stroke-dasharray:5.55,2.4;stroke-dashoffset:0;stroke-width:1.5;"/>
   </g>
   <g id="line2d_36">
    <path clip-path="url(#p9d18602359)" d="M 240.17006 322.49632 
L 239.849507 320.575351 
L 238.922585 318.862549 
L 237.48974 317.543522 
L 235.706243 316.761208 
L 233.765364 316.600382 
L 231.877427 317.078473 
L 230.24702 318.143671 
L 229.050822 319.680547 
L 228.41846 321.522555 
L 228.41846 323.470086 
L 229.050822 325.312094 
L 230.24702 326.848969 
L 231.877427 327.914168 
L 233.765364 328.392258 
L 235.706243 328.231432 
L 237.48974 327.449118 
L 238.922585 326.130091 
L 239.849507 324.417289 
L 240.17006 322.49632 
" style="fill:none;stroke:#ff0000;stroke-linecap:square;stroke-width:1.5;"/>
   </g>
   <g id="line2d_37">
    <path clip-path="url(#p9d18602359)" d="M 360.967982 441.556289 
L 359.802334 434.570947 
L 356.431708 428.342576 
L 351.221363 423.546115 
L 344.73592 420.701336 
L 337.678178 420.116515 
L 330.812953 421.855026 
L 324.884199 425.728475 
L 320.534387 431.317113 
L 318.234889 438.015324 
L 318.234889 445.097254 
L 320.534387 451.795466 
L 324.884199 457.384104 
L 330.812953 461.257552 
L 337.678178 462.996064 
L 344.73592 462.411242 
L 351.221363 459.566463 
L 356.431708 454.770003 
L 359.802334 448.541631 
L 360.967982 441.556289 
" style="fill:none;stroke:#000000;stroke-dasharray:5.55,2.4;stroke-dashoffset:0;stroke-width:1.5;"/>
   </g>
   <g id="line2d_38">
    <path clip-path="url(#p9d18602359)" d="M 345.370873 441.556289 
L 345.05032 439.63532 
L 344.123398 437.922518 
L 342.690553 436.603491 
L 340.907056 435.821177 
L 338.966177 435.660351 
L 337.078241 436.138442 
L 335.447833 437.20364 
L 334.251635 438.740516 
L 333.619273 440.582524 
L 333.619273 442.530055 
L 334.251635 444.372063 
L 335.447833 445.908938 
L 337.078241 446.974137 
L 338.966177 447.452227 
L 340.907056 447.291401 
L 342.690553 446.509087 
L 344.123398 445.19006 
L 345.05032 443.477258 
L 345.370873 441.556289 
" style="fill:none;stroke:#ff0000;stroke-linecap:square;stroke-width:1.5;"/>
   </g>
   <g id="line2d_39">
    <path clip-path="url(#p9d18602359)" d="M 431.226572 374.543385 
L 430.060925 367.558043 
L 426.690299 361.329671 
L 421.479954 356.533211 
L 414.994511 353.688432 
L 407.936769 353.10361 
L 401.071544 354.842122 
L 395.14279 358.71557 
L 390.792978 364.304208 
L 388.493479 371.00242 
L 388.493479 378.08435 
L 390.792978 384.782562 
L 395.14279 390.371199 
L 401.071544 394.244648 
L 407.936769 395.983159 
L 414.994511 395.398338 
L 421.479954 392.553559 
L 426.690299 387.757098 
L 430.060925 381.528727 
L 431.226572 374.543385 
" style="fill:none;stroke:#000000;stroke-dasharray:5.55,2.4;stroke-dashoffset:0;stroke-width:1.5;"/>
   </g>
   <g id="line2d_40">
    <path clip-path="url(#p9d18602359)" d="M 415.629464 374.543385 
L 415.308911 372.622416 
L 414.381989 370.909614 
L 412.949144 369.590587 
L 411.165647 368.808273 
L 409.224768 368.647447 
L 407.336831 369.125537 
L 405.706424 370.190736 
L 404.510226 371.727611 
L 403.877863 373.569619 
L 403.877863 375.51715 
L 404.510226 377.359158 
L 405.706424 378.896034 
L 407.336831 379.961232 
L 409.224768 380.439323 
L 411.165647 380.278497 
L 412.949144 379.496183 
L 414.381989 378.177156 
L 415.308911 376.464354 
L 415.629464 374.543385 
" style="fill:none;stroke:#ff0000;stroke-linecap:square;stroke-width:1.5;"/>
   </g>
   <g id="line2d_41">
    <path clip-path="url(#p9d18602359)" d="M 152.50172 363.262537 
L 151.336073 356.277196 
L 147.965447 350.048824 
L 142.755101 345.252363 
L 136.269659 342.407584 
L 129.211917 341.822763 
L 122.346692 343.561274 
L 116.417937 347.434723 
L 112.068126 353.023361 
L 109.768627 359.721572 
L 109.768627 366.803502 
L 112.068126 373.501714 
L 116.417937 379.090352 
L 122.346692 382.963801 
L 129.211917 384.702312 
L 136.269659 384.117491 
L 142.755101 381.272712 
L 147.965447 376.476251 
L 151.336073 370.247879 
L 152.50172 363.262537 
" style="fill:none;stroke:#000000;stroke-dasharray:5.55,2.4;stroke-dashoffset:0;stroke-width:1.5;"/>
   </g>
   <g id="line2d_42">
    <path clip-path="url(#p9d18602359)" d="M 136.904612 363.262537 
L 136.584059 361.341568 
L 135.657136 359.628766 
L 134.224292 358.309739 
L 132.440795 357.527425 
L 130.499916 357.366599 
L 128.611979 357.84469 
L 126.981571 358.909888 
L 125.785373 360.446764 
L 125.153011 362.288772 
L 125.153011 364.236303 
L 125.785373 366.078311 
L 126.981571 367.615186 
L 128.611979 368.680385 
L 130.499916 369.158475 
L 132.440795 368.997649 
L 134.224292 368.215335 
L 135.657136 366.896309 
L 136.584059 365.183506 
L 136.904612 363.262537 
" style="fill:none;stroke:#ff0000;stroke-linecap:square;stroke-width:1.5;"/>
   </g>
   <g id="line2d_43">
    <path clip-path="url(#p9d18602359)" d="M 242.434744 233.279783 
L 241.269097 226.294441 
L 237.898471 220.066069 
L 232.688125 215.269609 
L 226.202683 212.42483 
L 219.144941 211.840008 
L 212.279716 213.57852 
L 206.350961 217.451968 
L 202.00115 223.040606 
L 199.701651 229.738818 
L 199.701651 236.820748 
L 202.00115 243.51896 
L 206.350961 249.107597 
L 212.279716 252.981046 
L 219.144941 254.719557 
L 226.202683 254.134736 
L 232.688125 251.289957 
L 237.898471 246.493496 
L 241.269097 240.265125 
L 242.434744 233.279783 
" style="fill:none;stroke:#000000;stroke-dasharray:5.55,2.4;stroke-dashoffset:0;stroke-width:1.5;"/>
   </g>
   <g id="line2d_44">
    <path clip-path="url(#p9d18602359)" d="M 226.837636 233.279783 
L 226.517083 231.358814 
L 225.590161 229.646012 
L 224.157316 228.326985 
L 222.373819 227.544671 
L 220.43294 227.383845 
L 218.545003 227.861935 
L 216.914596 228.927134 
L 215.718397 230.464009 
L 215.086035 232.306017 
L 215.086035 234.253548 
L 215.718397 236.095556 
L 216.914596 237.632432 
L 218.545003 238.69763 
L 220.43294 239.175721 
L 222.373819 239.014895 
L 224.157316 238.232581 
L 225.590161 236.913554 
L 226.517083 235.200752 
L 226.837636 233.279783 
" style="fill:none;stroke:#ff0000;stroke-linecap:square;stroke-width:1.5;"/>
   </g>
   <g id="line2d_45">
    <path clip-path="url(#p9d18602359)" d="M 235.891237 434.078306 
L 234.725589 427.092964 
L 231.354963 420.864593 
L 226.144618 416.068132 
L 219.659175 413.223353 
L 212.601433 412.638532 
L 205.736208 414.377043 
L 199.807454 418.250492 
L 195.457642 423.83913 
L 193.158143 430.537341 
L 193.158143 437.619271 
L 195.457642 444.317483 
L 199.807454 449.906121 
L 205.736208 453.779569 
L 212.601433 455.518081 
L 219.659175 454.933259 
L 226.144618 452.08848 
L 231.354963 447.29202 
L 234.725589 441.063648 
L 235.891237 434.078306 
" style="fill:none;stroke:#000000;stroke-dasharray:5.55,2.4;stroke-dashoffset:0;stroke-width:1.5;"/>
   </g>
   <g id="line2d_46">
    <path clip-path="url(#p9d18602359)" d="M 220.294128 434.078306 
L 219.973575 432.157337 
L 219.046653 430.444535 
L 217.613808 429.125508 
L 215.830311 428.343194 
L 213.889432 428.182368 
L 212.001495 428.660459 
L 210.371088 429.725657 
L 209.17489 431.262533 
L 208.542527 433.104541 
L 208.542527 435.052072 
L 209.17489 436.89408 
L 210.371088 438.430955 
L 212.001495 439.496154 
L 213.889432 439.974244 
L 215.830311 439.813418 
L 217.613808 439.031104 
L 219.046653 437.712077 
L 219.973575 435.999275 
L 220.294128 434.078306 
" style="fill:none;stroke:#ff0000;stroke-linecap:square;stroke-width:1.5;"/>
   </g>
   <g id="line2d_47">
    <path clip-path="url(#p9d18602359)" d="M 158.238036 143.033335 
L 157.072389 136.047993 
L 153.701762 129.819622 
L 148.491417 125.023161 
L 142.005974 122.178382 
L 134.948233 121.593561 
L 128.083008 123.332072 
L 122.154253 127.205521 
L 117.804442 132.794159 
L 115.504943 139.49237 
L 115.504943 146.5743 
L 117.804442 153.272512 
L 122.154253 158.86115 
L 128.083008 162.734598 
L 134.948233 164.47311 
L 142.005974 163.888288 
L 148.491417 161.043509 
L 153.701762 156.247049 
L 157.072389 150.018677 
L 158.238036 143.033335 
" style="fill:none;stroke:#000000;stroke-dasharray:5.55,2.4;stroke-dashoffset:0;stroke-width:1.5;"/>
   </g>
   <g id="line2d_48">
    <path clip-path="url(#p9d18602359)" d="M 142.640928 143.033335 
L 142.320374 141.112366 
L 141.393452 139.399564 
L 139.960607 138.080537 
L 138.177111 137.298223 
L 136.236232 137.137397 
L 134.348295 137.615488 
L 132.717887 138.680686 
L 131.521689 140.217562 
L 130.889327 142.05957 
L 130.889327 144.007101 
L 131.521689 145.849109 
L 132.717887 147.385984 
L 134.348295 148.451183 
L 136.236232 148.929273 
L 138.177111 148.768447 
L 139.960607 147.986133 
L 141.393452 146.667106 
L 142.320374 144.954304 
L 142.640928 143.033335 
" style="fill:none;stroke:#ff0000;stroke-linecap:square;stroke-width:1.5;"/>
   </g>
   <g id="line2d_49">
    <path clip-path="url(#p9d18602359)" d="M 454.48532 384.066321 
L 453.319672 377.080979 
L 449.949046 370.852607 
L 444.738701 366.056146 
L 438.253258 363.211368 
L 431.195516 362.626546 
L 424.330291 364.365057 
L 418.401537 368.238506 
L 414.051725 373.827144 
L 411.752226 380.525356 
L 411.752226 387.607286 
L 414.051725 394.305497 
L 418.401537 399.894135 
L 424.330291 403.767584 
L 431.195516 405.506095 
L 438.253258 404.921274 
L 444.738701 402.076495 
L 449.949046 397.280034 
L 453.319672 391.051663 
L 454.48532 384.066321 
" style="fill:none;stroke:#000000;stroke-dasharray:5.55,2.4;stroke-dashoffset:0;stroke-width:1.5;"/>
   </g>
   <g id="line2d_50">
    <path clip-path="url(#p9d18602359)" d="M 438.888211 384.066321 
L 438.567658 382.145352 
L 437.640736 380.43255 
L 436.207891 379.113523 
L 434.424394 378.331209 
L 432.483515 378.170383 
L 430.595578 378.648473 
L 428.965171 379.713672 
L 427.768973 381.250547 
L 427.136611 383.092555 
L 427.136611 385.040086 
L 427.768973 386.882094 
L 428.965171 388.41897 
L 430.595578 389.484168 
L 432.483515 389.962259 
L 434.424394 389.801433 
L 436.207891 389.019119 
L 437.640736 387.700092 
L 438.567658 385.98729 
L 438.888211 384.066321 
" style="fill:none;stroke:#ff0000;stroke-linecap:square;stroke-width:1.5;"/>
   </g>
   <g id="line2d_51">
    <path clip-path="url(#p9d18602359)" d="M 213.443369 300.779596 
L 212.277722 293.794254 
L 208.907096 287.565882 
L 203.69675 282.769421 
L 197.211307 279.924642 
L 190.153566 279.339821 
L 183.288341 281.078332 
L 177.359586 284.951781 
L 173.009775 290.540419 
L 170.710276 297.23863 
L 170.710276 304.320561 
L 173.009775 311.018772 
L 177.359586 316.60741 
L 183.288341 320.480859 
L 190.153566 322.21937 
L 197.211307 321.634549 
L 203.69675 318.78977 
L 208.907096 313.993309 
L 212.277722 307.764937 
L 213.443369 300.779596 
" style="fill:none;stroke:#000000;stroke-dasharray:5.55,2.4;stroke-dashoffset:0;stroke-width:1.5;"/>
   </g>
   <g id="line2d_52">
    <path clip-path="url(#p9d18602359)" d="M 197.846261 300.779596 
L 197.525708 298.858627 
L 196.598785 297.145824 
L 195.16594 295.826798 
L 193.382444 295.044483 
L 191.441565 294.883658 
L 189.553628 295.361748 
L 187.92322 296.426947 
L 186.727022 297.963822 
L 186.09466 299.80583 
L 186.09466 301.753361 
L 186.727022 303.595369 
L 187.92322 305.132245 
L 189.553628 306.197443 
L 191.441565 306.675533 
L 193.382444 306.514708 
L 195.16594 305.732393 
L 196.598785 304.413367 
L 197.525708 302.700565 
L 197.846261 300.779596 
" style="fill:none;stroke:#ff0000;stroke-linecap:square;stroke-width:1.5;"/>
   </g>
   <g id="line2d_53">
    <path clip-path="url(#p9d18602359)" d="M 455.932954 220.89779 
L 454.767306 213.912448 
L 451.39668 207.684077 
L 446.186335 202.887616 
L 439.700892 200.042837 
L 432.64315 199.458016 
L 425.777925 201.196527 
L 419.849171 205.069975 
L 415.499359 210.658613 
L 413.19986 217.356825 
L 413.19986 224.438755 
L 415.499359 231.136967 
L 419.849171 236.725605 
L 425.777925 240.599053 
L 432.64315 242.337564 
L 439.700892 241.752743 
L 446.186335 238.907964 
L 451.39668 234.111504 
L 454.767306 227.883132 
L 455.932954 220.89779 
" style="fill:none;stroke:#000000;stroke-dasharray:5.55,2.4;stroke-dashoffset:0;stroke-width:1.5;"/>
   </g>
   <g id="line2d_54">
    <path clip-path="url(#p9d18602359)" d="M 440.335845 220.89779 
L 440.015292 218.976821 
L 439.08837 217.264019 
L 437.655525 215.944992 
L 435.872028 215.162678 
L 433.931149 215.001852 
L 432.043212 215.479943 
L 430.412805 216.545141 
L 429.216607 218.082016 
L 428.584244 219.924025 
L 428.584244 221.871555 
L 429.216607 223.713564 
L 430.412805 225.250439 
L 432.043212 226.315637 
L 433.931149 226.793728 
L 435.872028 226.632902 
L 437.655525 225.850588 
L 439.08837 224.531561 
L 440.015292 222.818759 
L 440.335845 220.89779 
" style="fill:none;stroke:#ff0000;stroke-linecap:square;stroke-width:1.5;"/>
   </g>
   <g id="line2d_55">
    <path clip-path="url(#p9d18602359)" d="M 467.131675 432.002967 
L 465.966027 425.017625 
L 462.595401 418.789254 
L 457.385056 413.992793 
L 450.899613 411.148014 
L 443.841871 410.563193 
L 436.976646 412.301704 
L 431.047892 416.175152 
L 426.69808 421.76379 
L 424.398581 428.462002 
L 424.398581 435.543932 
L 426.69808 442.242144 
L 431.047892 447.830782 
L 436.976646 451.70423 
L 443.841871 453.442741 
L 450.899613 452.85792 
L 457.385056 450.013141 
L 462.595401 445.216681 
L 465.966027 438.988309 
L 467.131675 432.002967 
" style="fill:none;stroke:#000000;stroke-dasharray:5.55,2.4;stroke-dashoffset:0;stroke-width:1.5;"/>
   </g>
   <g id="line2d_56">
    <path clip-path="url(#p9d18602359)" d="M 451.534566 432.002967 
L 451.214013 430.081998 
L 450.287091 428.369196 
L 448.854246 427.050169 
L 447.070749 426.267855 
L 445.12987 426.107029 
L 443.241933 426.58512 
L 441.611526 427.650318 
L 440.415328 429.187194 
L 439.782966 431.029202 
L 439.782966 432.976733 
L 440.415328 434.818741 
L 441.611526 436.355616 
L 443.241933 437.420815 
L 445.12987 437.898905 
L 447.070749 437.738079 
L 448.854246 436.955765 
L 450.287091 435.636738 
L 451.214013 433.923936 
L 451.534566 432.002967 
" style="fill:none;stroke:#ff0000;stroke-linecap:square;stroke-width:1.5;"/>
   </g>
   <g id="line2d_57">
    <path clip-path="url(#p9d18602359)" d="M 176.871397 297.237523 
L 175.705749 290.252182 
L 172.335123 284.02381 
L 167.124778 279.227349 
L 160.639335 276.38257 
L 153.581593 275.797749 
L 146.716368 277.53626 
L 140.787614 281.409709 
L 136.437802 286.998347 
L 134.138303 293.696558 
L 134.138303 300.778488 
L 136.437802 307.4767 
L 140.787614 313.065338 
L 146.716368 316.938787 
L 153.581593 318.677298 
L 160.639335 318.092477 
L 167.124778 315.247698 
L 172.335123 310.451237 
L 175.705749 304.222865 
L 176.871397 297.237523 
" style="fill:none;stroke:#000000;stroke-dasharray:5.55,2.4;stroke-dashoffset:0;stroke-width:1.5;"/>
   </g>
   <g id="line2d_58">
    <path clip-path="url(#p9d18602359)" d="M 161.274288 297.237523 
L 160.953735 295.316554 
L 160.026813 293.603752 
L 158.593968 292.284725 
L 156.810471 291.502411 
L 154.869592 291.341585 
L 152.981655 291.819676 
L 151.351248 292.884874 
L 150.15505 294.42175 
L 149.522687 296.263758 
L 149.522687 298.211289 
L 150.15505 300.053297 
L 151.351248 301.590172 
L 152.981655 302.655371 
L 154.869592 303.133461 
L 156.810471 302.972635 
L 158.593968 302.190321 
L 160.026813 300.871295 
L 160.953735 299.158492 
L 161.274288 297.237523 
" style="fill:none;stroke:#ff0000;stroke-linecap:square;stroke-width:1.5;"/>
   </g>
   <g id="line2d_59">
    <path clip-path="url(#p9d18602359)" d="M 335.876272 128.884326 
L 334.710625 121.898984 
L 331.339999 115.670613 
L 326.129653 110.874152 
L 319.64421 108.029373 
L 312.586469 107.444552 
L 305.721244 109.183063 
L 299.792489 113.056511 
L 295.442678 118.645149 
L 293.143179 125.343361 
L 293.143179 132.425291 
L 295.442678 139.123503 
L 299.792489 144.712141 
L 305.721244 148.585589 
L 312.586469 150.3241 
L 319.64421 149.739279 
L 326.129653 146.8945 
L 331.339999 142.09804 
L 334.710625 135.869668 
L 335.876272 128.884326 
" style="fill:none;stroke:#000000;stroke-dasharray:5.55,2.4;stroke-dashoffset:0;stroke-width:1.5;"/>
   </g>
   <g id="line2d_60">
    <path clip-path="url(#p9d18602359)" d="M 320.279164 128.884326 
L 319.958611 126.963357 
L 319.031688 125.250555 
L 317.598843 123.931528 
L 315.815347 123.149214 
L 313.874468 122.988388 
L 311.986531 123.466479 
L 310.356123 124.531677 
L 309.159925 126.068552 
L 308.527563 127.910561 
L 308.527563 129.858091 
L 309.159925 131.7001 
L 310.356123 133.236975 
L 311.986531 134.302173 
L 313.874468 134.780264 
L 315.815347 134.619438 
L 317.598843 133.837124 
L 319.031688 132.518097 
L 319.958611 130.805295 
L 320.279164 128.884326 
" style="fill:none;stroke:#ff0000;stroke-linecap:square;stroke-width:1.5;"/>
   </g>
   <g id="line2d_61">
    <path clip-path="url(#p9d18602359)" d="M 342.413094 146.607651 
L 341.247447 139.622309 
L 337.87682 133.393937 
L 332.666475 128.597476 
L 326.181032 125.752698 
L 319.123291 125.167876 
L 312.258066 126.906387 
L 306.329311 130.779836 
L 301.9795 136.368474 
L 299.680001 143.066686 
L 299.680001 150.148616 
L 301.9795 156.846827 
L 306.329311 162.435465 
L 312.258066 166.308914 
L 319.123291 168.047425 
L 326.181032 167.462604 
L 332.666475 164.617825 
L 337.87682 159.821364 
L 341.247447 153.592993 
L 342.413094 146.607651 
" style="fill:none;stroke:#000000;stroke-dasharray:5.55,2.4;stroke-dashoffset:0;stroke-width:1.5;"/>
   </g>
   <g id="line2d_62">
    <path clip-path="url(#p9d18602359)" d="M 326.815986 146.607651 
L 326.495433 144.686682 
L 325.56851 142.97388 
L 324.135665 141.654853 
L 322.352169 140.872539 
L 320.41129 140.711713 
L 318.523353 141.189803 
L 316.892945 142.255002 
L 315.696747 143.791877 
L 315.064385 145.633885 
L 315.064385 147.581416 
L 315.696747 149.423424 
L 316.892945 150.9603 
L 318.523353 152.025498 
L 320.41129 152.503589 
L 322.352169 152.342763 
L 324.135665 151.560449 
L 325.56851 150.241422 
L 326.495433 148.52862 
L 326.815986 146.607651 
" style="fill:none;stroke:#ff0000;stroke-linecap:square;stroke-width:1.5;"/>
   </g>
   <g id="line2d_63">
    <path clip-path="url(#p9d18602359)" d="M 478.715552 454.565613 
L 477.549905 447.580271 
L 474.179279 441.351899 
L 468.968933 436.555438 
L 462.483491 433.710659 
L 455.425749 433.125838 
L 448.560524 434.864349 
L 442.631769 438.737798 
L 438.281958 444.326436 
L 435.982459 451.024648 
L 435.982459 458.106578 
L 438.281958 464.804789 
L 442.631769 470.393427 
L 448.560524 474.266876 
L 455.425749 476.005387 
L 462.483491 475.420566 
L 468.968933 472.575787 
L 474.179279 467.779326 
L 477.549905 461.550954 
L 478.715552 454.565613 
" style="fill:none;stroke:#000000;stroke-dasharray:5.55,2.4;stroke-dashoffset:0;stroke-width:1.5;"/>
   </g>
   <g id="line2d_64">
    <path clip-path="url(#p9d18602359)" d="M 463.118444 454.565613 
L 462.797891 452.644644 
L 461.870969 450.931841 
L 460.438124 449.612815 
L 458.654627 448.830501 
L 456.713748 448.669675 
L 454.825811 449.147765 
L 453.195403 450.212964 
L 451.999205 451.749839 
L 451.366843 453.591847 
L 451.366843 455.539378 
L 451.999205 457.381386 
L 453.195403 458.918262 
L 454.825811 459.98346 
L 456.713748 460.461551 
L 458.654627 460.300725 
L 460.438124 459.518411 
L 461.870969 458.199384 
L 462.797891 456.486582 
L 463.118444 454.565613 
" style="fill:none;stroke:#ff0000;stroke-linecap:square;stroke-width:1.5;"/>
   </g>
   <g id="line2d_65">
    <path clip-path="url(#p9d18602359)" d="M 441.029675 453.829022 
L 439.864027 446.84368 
L 436.493401 440.615309 
L 431.283056 435.818848 
L 424.797613 432.974069 
L 417.739871 432.389248 
L 410.874646 434.127759 
L 404.945892 438.001208 
L 400.59608 443.589846 
L 398.296581 450.288057 
L 398.296581 457.369987 
L 400.59608 464.068199 
L 404.945892 469.656837 
L 410.874646 473.530286 
L 417.739871 475.268797 
L 424.797613 474.683975 
L 431.283056 471.839197 
L 436.493401 467.042736 
L 439.864027 460.814364 
L 441.029675 453.829022 
" style="fill:none;stroke:#000000;stroke-dasharray:5.55,2.4;stroke-dashoffset:0;stroke-width:1.5;"/>
   </g>
   <g id="line2d_66">
    <path clip-path="url(#p9d18602359)" d="M 425.432566 453.829022 
L 425.112013 451.908053 
L 424.185091 450.195251 
L 422.752246 448.876224 
L 420.968749 448.09391 
L 419.02787 447.933084 
L 417.139934 448.411175 
L 415.509526 449.476373 
L 414.313328 451.013249 
L 413.680966 452.855257 
L 413.680966 454.802788 
L 414.313328 456.644796 
L 415.509526 458.181671 
L 417.139934 459.24687 
L 419.02787 459.72496 
L 420.968749 459.564134 
L 422.752246 458.78182 
L 424.185091 457.462793 
L 425.112013 455.749991 
L 425.432566 453.829022 
" style="fill:none;stroke:#ff0000;stroke-linecap:square;stroke-width:1.5;"/>
   </g>
   <g id="line2d_67">
    <path clip-path="url(#p9d18602359)" d="M 451.926788 407.131052 
L 450.761141 400.14571 
L 447.390514 393.917338 
L 442.180169 389.120878 
L 435.694726 386.276099 
L 428.636985 385.691278 
L 421.77176 387.429789 
L 415.843005 391.303237 
L 411.493194 396.891875 
L 409.193695 403.590087 
L 409.193695 410.672017 
L 411.493194 417.370229 
L 415.843005 422.958867 
L 421.77176 426.832315 
L 428.636985 428.570826 
L 435.694726 427.986005 
L 442.180169 425.141226 
L 447.390514 420.344765 
L 450.761141 414.116394 
L 451.926788 407.131052 
" style="fill:none;stroke:#000000;stroke-dasharray:5.55,2.4;stroke-dashoffset:0;stroke-width:1.5;"/>
   </g>
   <g id="line2d_68">
    <path clip-path="url(#p9d18602359)" d="M 436.329679 407.131052 
L 436.009126 405.210083 
L 435.082204 403.497281 
L 433.649359 402.178254 
L 431.865863 401.39594 
L 429.924984 401.235114 
L 428.037047 401.713205 
L 426.406639 402.778403 
L 425.210441 404.315278 
L 424.578079 406.157287 
L 424.578079 408.104817 
L 425.210441 409.946826 
L 426.406639 411.483701 
L 428.037047 412.548899 
L 429.924984 413.02699 
L 431.865863 412.866164 
L 433.649359 412.08385 
L 435.082204 410.764823 
L 436.009126 409.052021 
L 436.329679 407.131052 
" style="fill:none;stroke:#ff0000;stroke-linecap:square;stroke-width:1.5;"/>
   </g>
   <g id="line2d_69">
    <path clip-path="url(#p9d18602359)" d="M 348.499889 191.696745 
L 347.334241 184.711404 
L 343.963615 178.483032 
L 338.75327 173.686571 
L 332.267827 170.841792 
L 325.210085 170.256971 
L 318.34486 171.995482 
L 312.416106 175.868931 
L 308.066294 181.457569 
L 305.766795 188.15578 
L 305.766795 195.23771 
L 308.066294 201.935922 
L 312.416106 207.52456 
L 318.34486 211.398009 
L 325.210085 213.13652 
L 332.267827 212.551699 
L 338.75327 209.70692 
L 343.963615 204.910459 
L 347.334241 198.682087 
L 348.499889 191.696745 
" style="fill:none;stroke:#000000;stroke-dasharray:5.55,2.4;stroke-dashoffset:0;stroke-width:1.5;"/>
   </g>
   <g id="line2d_70">
    <path clip-path="url(#p9d18602359)" d="M 332.90278 191.696745 
L 332.582227 189.775776 
L 331.655305 188.062974 
L 330.22246 186.743947 
L 328.438963 185.961633 
L 326.498084 185.800807 
L 324.610147 186.278898 
L 322.97974 187.344096 
L 321.783542 188.880972 
L 321.151179 190.72298 
L 321.151179 192.670511 
L 321.783542 194.512519 
L 322.97974 196.049394 
L 324.610147 197.114593 
L 326.498084 197.592683 
L 328.438963 197.431857 
L 330.22246 196.649543 
L 331.655305 195.330517 
L 332.582227 193.617714 
L 332.90278 191.696745 
" style="fill:none;stroke:#ff0000;stroke-linecap:square;stroke-width:1.5;"/>
   </g>
   <g id="line2d_71">
    <path clip-path="url(#p9d18602359)" d="M 286.899714 253.008553 
L 285.734067 246.023211 
L 282.36344 239.794839 
L 277.153095 234.998378 
L 270.667652 232.153599 
L 263.609911 231.568778 
L 256.744686 233.307289 
L 250.815931 237.180738 
L 246.46612 242.769376 
L 244.166621 249.467587 
L 244.166621 256.549518 
L 246.46612 263.247729 
L 250.815931 268.836367 
L 256.744686 272.709816 
L 263.609911 274.448327 
L 270.667652 273.863506 
L 277.153095 271.018727 
L 282.36344 266.222266 
L 285.734067 259.993894 
L 286.899714 253.008553 
" style="fill:none;stroke:#000000;stroke-dasharray:5.55,2.4;stroke-dashoffset:0;stroke-width:1.5;"/>
   </g>
   <g id="line2d_72">
    <path clip-path="url(#p9d18602359)" d="M 271.302606 253.008553 
L 270.982053 251.087584 
L 270.05513 249.374781 
L 268.622285 248.055755 
L 266.838789 247.27344 
L 264.89791 247.112615 
L 263.009973 247.590705 
L 261.379565 248.655904 
L 260.183367 250.192779 
L 259.551005 252.034787 
L 259.551005 253.982318 
L 260.183367 255.824326 
L 261.379565 257.361202 
L 263.009973 258.4264 
L 264.89791 258.904491 
L 266.838789 258.743665 
L 268.622285 257.96135 
L 270.05513 256.642324 
L 270.982053 254.929522 
L 271.302606 253.008553 
" style="fill:none;stroke:#ff0000;stroke-linecap:square;stroke-width:1.5;"/>
   </g>
   <g id="line2d_73">
    <path clip-path="url(#p9d18602359)" d="M 337.181544 443.422074 
L 336.015896 436.436732 
L 332.64527 430.208361 
L 327.434925 425.4119 
L 320.949482 422.567121 
L 313.89174 421.9823 
L 307.026515 423.720811 
L 301.097761 427.59426 
L 296.747949 433.182898 
L 294.44845 439.881109 
L 294.44845 446.963039 
L 296.747949 453.661251 
L 301.097761 459.249889 
L 307.026515 463.123337 
L 313.89174 464.861849 
L 320.949482 464.277027 
L 327.434925 461.432248 
L 332.64527 456.635788 
L 336.015896 450.407416 
L 337.181544 443.422074 
" style="fill:none;stroke:#000000;stroke-dasharray:5.55,2.4;stroke-dashoffset:0;stroke-width:1.5;"/>
   </g>
   <g id="line2d_74">
    <path clip-path="url(#p9d18602359)" d="M 321.584435 443.422074 
L 321.263882 441.501105 
L 320.33696 439.788303 
L 318.904115 438.469276 
L 317.120618 437.686962 
L 315.179739 437.526136 
L 313.291803 438.004227 
L 311.661395 439.069425 
L 310.465197 440.606301 
L 309.832835 442.448309 
L 309.832835 444.39584 
L 310.465197 446.237848 
L 311.661395 447.774723 
L 313.291803 448.839922 
L 315.179739 449.318012 
L 317.120618 449.157186 
L 318.904115 448.374872 
L 320.33696 447.055845 
L 321.263882 445.343043 
L 321.584435 443.422074 
" style="fill:none;stroke:#ff0000;stroke-linecap:square;stroke-width:1.5;"/>
   </g>
   <g id="line2d_75">
    <path clip-path="url(#p9d18602359)" d="M 421.801097 406.630312 
L 420.63545 399.64497 
L 417.264824 393.416599 
L 412.054478 388.620138 
L 405.569036 385.775359 
L 398.511294 385.190538 
L 391.646069 386.929049 
L 385.717315 390.802497 
L 381.367503 396.391135 
L 379.068004 403.089347 
L 379.068004 410.171277 
L 381.367503 416.869489 
L 385.717315 422.458127 
L 391.646069 426.331575 
L 398.511294 428.070086 
L 405.569036 427.485265 
L 412.054478 424.640486 
L 417.264824 419.844026 
L 420.63545 413.615654 
L 421.801097 406.630312 
" style="fill:none;stroke:#000000;stroke-dasharray:5.55,2.4;stroke-dashoffset:0;stroke-width:1.5;"/>
   </g>
   <g id="line2d_76">
    <path clip-path="url(#p9d18602359)" d="M 406.203989 406.630312 
L 405.883436 404.709343 
L 404.956514 402.996541 
L 403.523669 401.677514 
L 401.740172 400.8952 
L 399.799293 400.734374 
L 397.911356 401.212465 
L 396.280949 402.277663 
L 395.08475 403.814538 
L 394.452388 405.656547 
L 394.452388 407.604077 
L 395.08475 409.446086 
L 396.280949 410.982961 
L 397.911356 412.048159 
L 399.799293 412.52625 
L 401.740172 412.365424 
L 403.523669 411.58311 
L 404.956514 410.264083 
L 405.883436 408.551281 
L 406.203989 406.630312 
" style="fill:none;stroke:#ff0000;stroke-linecap:square;stroke-width:1.5;"/>
   </g>
   <g id="line2d_77">
    <path clip-path="url(#p9d18602359)" d="M 417.882127 311.608168 
L 416.716479 304.622826 
L 413.345853 298.394454 
L 408.135508 293.597993 
L 401.650065 290.753215 
L 394.592323 290.168393 
L 387.727098 291.906904 
L 381.798344 295.780353 
L 377.448532 301.368991 
L 375.149033 308.067203 
L 375.149033 315.149133 
L 377.448532 321.847344 
L 381.798344 327.435982 
L 387.727098 331.309431 
L 394.592323 333.047942 
L 401.650065 332.463121 
L 408.135508 329.618342 
L 413.345853 324.821881 
L 416.716479 318.59351 
L 417.882127 311.608168 
" style="fill:none;stroke:#000000;stroke-dasharray:5.55,2.4;stroke-dashoffset:0;stroke-width:1.5;"/>
   </g>
   <g id="line2d_78">
    <path clip-path="url(#p9d18602359)" d="M 402.285018 311.608168 
L 401.964465 309.687199 
L 401.037543 307.974397 
L 399.604698 306.65537 
L 397.821201 305.873056 
L 395.880322 305.71223 
L 393.992385 306.19032 
L 392.361978 307.255519 
L 391.16578 308.792394 
L 390.533417 310.634402 
L 390.533417 312.581933 
L 391.16578 314.423941 
L 392.361978 315.960817 
L 393.992385 317.026015 
L 395.880322 317.504106 
L 397.821201 317.34328 
L 399.604698 316.560966 
L 401.037543 315.241939 
L 401.964465 313.529137 
L 402.285018 311.608168 
" style="fill:none;stroke:#ff0000;stroke-linecap:square;stroke-width:1.5;"/>
   </g>
   <g id="line2d_79">
    <path clip-path="url(#p9d18602359)" d="M 349.074763 442.489182 
L 347.909115 435.50384 
L 344.538489 429.275468 
L 339.328144 424.479007 
L 332.842701 421.634229 
L 325.784959 421.049407 
L 318.919734 422.787918 
L 312.99098 426.661367 
L 308.641168 432.250005 
L 306.341669 438.948217 
L 306.341669 446.030147 
L 308.641168 452.728358 
L 312.99098 458.316996 
L 318.919734 462.190445 
L 325.784959 463.928956 
L 332.842701 463.344135 
L 339.328144 460.499356 
L 344.538489 455.702895 
L 347.909115 449.474524 
L 349.074763 442.489182 
" style="fill:none;stroke:#000000;stroke-dasharray:5.55,2.4;stroke-dashoffset:0;stroke-width:1.5;"/>
   </g>
   <g id="line2d_80">
    <path clip-path="url(#p9d18602359)" d="M 333.477654 442.489182 
L 333.157101 440.568213 
L 332.230179 438.855411 
L 330.797334 437.536384 
L 329.013837 436.75407 
L 327.072958 436.593244 
L 325.185022 437.071334 
L 323.554614 438.136533 
L 322.358416 439.673408 
L 321.726054 441.515416 
L 321.726054 443.462947 
L 322.358416 445.304955 
L 323.554614 446.841831 
L 325.185022 447.907029 
L 327.072958 448.38512 
L 329.013837 448.224294 
L 330.797334 447.44198 
L 332.230179 446.122953 
L 333.157101 444.410151 
L 333.477654 442.489182 
" style="fill:none;stroke:#ff0000;stroke-linecap:square;stroke-width:1.5;"/>
   </g>
   <g id="line2d_81">
    <path clip-path="url(#p9d18602359)" d="M 442.855946 379.304853 
L 441.690299 372.319511 
L 438.319673 366.091139 
L 433.109327 361.294679 
L 426.623884 358.4499 
L 419.566143 357.865078 
L 412.700918 359.603589 
L 406.772163 363.477038 
L 402.422352 369.065676 
L 400.122853 375.763888 
L 400.122853 382.845818 
L 402.422352 389.544029 
L 406.772163 395.132667 
L 412.700918 399.006116 
L 419.566143 400.744627 
L 426.623884 400.159806 
L 433.109327 397.315027 
L 438.319673 392.518566 
L 441.690299 386.290195 
L 442.855946 379.304853 
" style="fill:none;stroke:#000000;stroke-dasharray:5.55,2.4;stroke-dashoffset:0;stroke-width:1.5;"/>
   </g>
   <g id="line2d_82">
    <path clip-path="url(#p9d18602359)" d="M 427.258838 379.304853 
L 426.938285 377.383884 
L 426.011362 375.671082 
L 424.578517 374.352055 
L 422.795021 373.569741 
L 420.854142 373.408915 
L 418.966205 373.887005 
L 417.335797 374.952204 
L 416.139599 376.489079 
L 415.507237 378.331087 
L 415.507237 380.278618 
L 416.139599 382.120626 
L 417.335797 383.657502 
L 418.966205 384.7227 
L 420.854142 385.200791 
L 422.795021 385.039965 
L 424.578517 384.257651 
L 426.011362 382.938624 
L 426.938285 381.225822 
L 427.258838 379.304853 
" style="fill:none;stroke:#ff0000;stroke-linecap:square;stroke-width:1.5;"/>
   </g>
   <g id="line2d_83">
    <path clip-path="url(#p9d18602359)" d="M 426.513835 390.586848 
L 425.348187 383.601507 
L 421.977561 377.373135 
L 416.767216 372.576674 
L 410.281773 369.731895 
L 403.224032 369.147074 
L 396.358807 370.885585 
L 390.430052 374.759034 
L 386.080241 380.347672 
L 383.780742 387.045883 
L 383.780742 394.127813 
L 386.080241 400.826025 
L 390.430052 406.414663 
L 396.358807 410.288112 
L 403.224032 412.026623 
L 410.281773 411.441802 
L 416.767216 408.597023 
L 421.977561 403.800562 
L 425.348187 397.57219 
L 426.513835 390.586848 
" style="fill:none;stroke:#000000;stroke-dasharray:5.55,2.4;stroke-dashoffset:0;stroke-width:1.5;"/>
   </g>
   <g id="line2d_84">
    <path clip-path="url(#p9d18602359)" d="M 410.916726 390.586848 
L 410.596173 388.665879 
L 409.669251 386.953077 
L 408.236406 385.634051 
L 406.452909 384.851736 
L 404.512031 384.69091 
L 402.624094 385.169001 
L 400.993686 386.234199 
L 399.797488 387.771075 
L 399.165126 389.613083 
L 399.165126 391.560614 
L 399.797488 393.402622 
L 400.993686 394.939497 
L 402.624094 396.004696 
L 404.512031 396.482786 
L 406.452909 396.321961 
L 408.236406 395.539646 
L 409.669251 394.22062 
L 410.596173 392.507817 
L 410.916726 390.586848 
" style="fill:none;stroke:#ff0000;stroke-linecap:square;stroke-width:1.5;"/>
   </g>
   <g id="line2d_85">
    <path clip-path="url(#p9d18602359)" d="M 453.206054 395.598686 
L 452.040406 388.613344 
L 448.66978 382.384973 
L 443.459435 377.588512 
L 436.973992 374.743733 
L 429.91625 374.158912 
L 423.051026 375.897423 
L 417.122271 379.770872 
L 412.772459 385.35951 
L 410.472961 392.057721 
L 410.472961 399.139651 
L 412.772459 405.837863 
L 417.122271 411.426501 
L 423.051026 415.29995 
L 429.91625 417.038461 
L 436.973992 416.45364 
L 443.459435 413.608861 
L 448.66978 408.8124 
L 452.040406 402.584028 
L 453.206054 395.598686 
" style="fill:none;stroke:#000000;stroke-dasharray:5.55,2.4;stroke-dashoffset:0;stroke-width:1.5;"/>
   </g>
   <g id="line2d_86">
    <path clip-path="url(#p9d18602359)" d="M 437.608945 395.598686 
L 437.288392 393.677717 
L 436.36147 391.964915 
L 434.928625 390.645888 
L 433.145128 389.863574 
L 431.204249 389.702748 
L 429.316313 390.180839 
L 427.685905 391.246037 
L 426.489707 392.782913 
L 425.857345 394.624921 
L 425.857345 396.572452 
L 426.489707 398.41446 
L 427.685905 399.951335 
L 429.316313 401.016534 
L 431.204249 401.494624 
L 433.145128 401.333798 
L 434.928625 400.551484 
L 436.36147 399.232458 
L 437.288392 397.519655 
L 437.608945 395.598686 
" style="fill:none;stroke:#ff0000;stroke-linecap:square;stroke-width:1.5;"/>
   </g>
   <g id="line2d_87">
    <path clip-path="url(#p9d18602359)" d="M 472.923613 443.28429 
L 471.757966 436.298948 
L 468.38734 430.070576 
L 463.176995 425.274116 
L 456.691552 422.429337 
L 449.63381 421.844516 
L 442.768585 423.583027 
L 436.839831 427.456475 
L 432.490019 433.045113 
L 430.19052 439.743325 
L 430.19052 446.825255 
L 432.490019 453.523467 
L 436.839831 459.112105 
L 442.768585 462.985553 
L 449.63381 464.724064 
L 456.691552 464.139243 
L 463.176995 461.294464 
L 468.38734 456.498003 
L 471.757966 450.269632 
L 472.923613 443.28429 
" style="fill:none;stroke:#000000;stroke-dasharray:5.55,2.4;stroke-dashoffset:0;stroke-width:1.5;"/>
   </g>
   <g id="line2d_88">
    <path clip-path="url(#p9d18602359)" d="M 457.326505 443.28429 
L 457.005952 441.363321 
L 456.07903 439.650519 
L 454.646185 438.331492 
L 452.862688 437.549178 
L 450.921809 437.388352 
L 449.033872 437.866442 
L 447.403465 438.931641 
L 446.207267 440.468516 
L 445.574904 442.310524 
L 445.574904 444.258055 
L 446.207267 446.100063 
L 447.403465 447.636939 
L 449.033872 448.702137 
L 450.921809 449.180228 
L 452.862688 449.019402 
L 454.646185 448.237088 
L 456.07903 446.918061 
L 457.005952 445.205259 
L 457.326505 443.28429 
" style="fill:none;stroke:#ff0000;stroke-linecap:square;stroke-width:1.5;"/>
   </g>
   <g id="line2d_89">
    <path clip-path="url(#p9d18602359)" d="M 454.080675 442.915995 
L 452.915027 435.930653 
L 449.544401 429.702281 
L 444.334056 424.90582 
L 437.848613 422.061042 
L 430.790871 421.47622 
L 423.925646 423.214731 
L 417.996892 427.08818 
L 413.64708 432.676818 
L 411.347581 439.37503 
L 411.347581 446.45696 
L 413.64708 453.155171 
L 417.996892 458.743809 
L 423.925646 462.617258 
L 430.790871 464.355769 
L 437.848613 463.770948 
L 444.334056 460.926169 
L 449.544401 456.129708 
L 452.915027 449.901337 
L 454.080675 442.915995 
" style="fill:none;stroke:#000000;stroke-dasharray:5.55,2.4;stroke-dashoffset:0;stroke-width:1.5;"/>
   </g>
   <g id="line2d_90">
    <path clip-path="url(#p9d18602359)" d="M 438.483566 442.915995 
L 438.163013 440.995026 
L 437.236091 439.282223 
L 435.803246 437.963197 
L 434.019749 437.180883 
L 432.07887 437.020057 
L 430.190934 437.498147 
L 428.560526 438.563346 
L 427.364328 440.100221 
L 426.731966 441.942229 
L 426.731966 443.88976 
L 427.364328 445.731768 
L 428.560526 447.268644 
L 430.190934 448.333842 
L 432.07887 448.811933 
L 434.019749 448.651107 
L 435.803246 447.868793 
L 437.236091 446.549766 
L 438.163013 444.836964 
L 438.483566 442.915995 
" style="fill:none;stroke:#ff0000;stroke-linecap:square;stroke-width:1.5;"/>
   </g>
   <g id="line2d_91">
    <path clip-path="url(#p9d18602359)" d="M 459.529231 419.56701 
L 458.363584 412.581668 
L 454.992958 406.353296 
L 449.782612 401.556835 
L 443.29717 398.712056 
L 436.239428 398.127235 
L 429.374203 399.865746 
L 423.445448 403.739195 
L 419.095637 409.327833 
L 416.796138 416.026044 
L 416.796138 423.107975 
L 419.095637 429.806186 
L 423.445448 435.394824 
L 429.374203 439.268273 
L 436.239428 441.006784 
L 443.29717 440.421963 
L 449.782612 437.577184 
L 454.992958 432.780723 
L 458.363584 426.552351 
L 459.529231 419.56701 
" style="fill:none;stroke:#000000;stroke-dasharray:5.55,2.4;stroke-dashoffset:0;stroke-width:1.5;"/>
   </g>
   <g id="line2d_92">
    <path clip-path="url(#p9d18602359)" d="M 443.932123 419.56701 
L 443.61157 417.646041 
L 442.684648 415.933238 
L 441.251803 414.614212 
L 439.468306 413.831897 
L 437.527427 413.671072 
L 435.63949 414.149162 
L 434.009083 415.21436 
L 432.812884 416.751236 
L 432.180522 418.593244 
L 432.180522 420.540775 
L 432.812884 422.382783 
L 434.009083 423.919659 
L 435.63949 424.984857 
L 437.527427 425.462947 
L 439.468306 425.302122 
L 441.251803 424.519807 
L 442.684648 423.200781 
L 443.61157 421.487979 
L 443.932123 419.56701 
" style="fill:none;stroke:#ff0000;stroke-linecap:square;stroke-width:1.5;"/>
   </g>
   <g id="line2d_93">
    <path clip-path="url(#p9d18602359)" d="M 436.863943 406.880682 
L 435.698295 399.89534 
L 432.327669 393.666968 
L 427.117324 388.870508 
L 420.631881 386.025729 
L 413.574139 385.440908 
L 406.708914 387.179419 
L 400.78016 391.052867 
L 396.430348 396.641505 
L 394.130849 403.339717 
L 394.130849 410.421647 
L 396.430348 417.119859 
L 400.78016 422.708497 
L 406.708914 426.581945 
L 413.574139 428.320456 
L 420.631881 427.735635 
L 427.117324 424.890856 
L 432.327669 420.094395 
L 435.698295 413.866024 
L 436.863943 406.880682 
" style="fill:none;stroke:#000000;stroke-dasharray:5.55,2.4;stroke-dashoffset:0;stroke-width:1.5;"/>
   </g>
   <g id="line2d_94">
    <path clip-path="url(#p9d18602359)" d="M 421.266834 406.880682 
L 420.946281 404.959713 
L 420.019359 403.246911 
L 418.586514 401.927884 
L 416.803017 401.14557 
L 414.862138 400.984744 
L 412.974201 401.462835 
L 411.343794 402.528033 
L 410.147596 404.064908 
L 409.515234 405.906917 
L 409.515234 407.854447 
L 410.147596 409.696456 
L 411.343794 411.233331 
L 412.974201 412.298529 
L 414.862138 412.77662 
L 416.803017 412.615794 
L 418.586514 411.83348 
L 420.019359 410.514453 
L 420.946281 408.801651 
L 421.266834 406.880682 
" style="fill:none;stroke:#ff0000;stroke-linecap:square;stroke-width:1.5;"/>
   </g>
   <g id="line2d_95">
    <path clip-path="url(#p9d18602359)" d="M 98.891566 487.188434 
L 98.891566 94.571566 
" style="fill:none;stroke:#000000;stroke-linecap:square;stroke-width:4;"/>
   </g>
   <g id="line2d_96">
    <path clip-path="url(#p9d18602359)" d="M 98.891566 94.571566 
L 491.508434 94.571566 
" style="fill:none;stroke:#000000;stroke-linecap:square;stroke-width:4;"/>
   </g>
   <g id="line2d_97">
    <path clip-path="url(#p9d18602359)" d="M 491.508434 94.571566 
L 491.508434 487.188434 
" style="fill:none;stroke:#000000;stroke-linecap:square;stroke-width:4;"/>
   </g>
   <g id="line2d_98">
    <path clip-path="url(#p9d18602359)" d="M 491.508434 487.188434 
L 98.891566 487.188434 
" style="fill:none;stroke:#000000;stroke-linecap:square;stroke-width:4;"/>
   </g>
   <g id="line2d_99">
    <path clip-path="url(#p9d18602359)" d="M 347.799904 340.252916 
L 347.530988 340.306699 
L 347.369639 340.468048 
L 347.369639 340.414265 
L 347.584771 339.338602 
L 347.530988 337.832675 
L 346.993157 336.057831 
L 346.078843 334.229205 
L 344.411566 332.07788 
L 340.808096 329.012241 
L 339.087036 327.076048 
L 337.796241 324.817157 
L 334.891952 318.309398 
L 333.816289 316.64212 
L 331.396048 313.307566 
L 330.320386 311.586506 
L 329.674988 309.973012 
L 328.061494 303.519036 
L 327.093398 301.260145 
L 324.72694 297.818024 
L 323.167229 295.828048 
L 321.715084 293.730506 
L 319.456193 290.073253 
L 318.219181 287.921928 
L 315.368675 283.780627 
L 304.98853 269.205398 
L 303.428819 267.322988 
L 301.761542 265.494361 
L 300.201831 264.042217 
L 298.265639 262.536289 
L 296.437012 261.568193 
L 294.769735 260.976578 
L 290.736 260.169831 
L 287.724145 259.524434 
L 286.702265 259.201735 
L 285.734169 258.502554 
L 285.734169 257.964723 
L 285.949301 257.426892 
L 286.487133 256.566361 
L 287.13253 255.813398 
L 289.01494 254.415036 
L 288.907373 254.576386 
L 288.907373 254.683952 
L 288.85359 254.415036 
L 288.746024 253.877205 
L 288.315759 253.016675 
L 287.455229 252.048578 
L 286.702265 251.456964 
L 283.045012 249.466988 
L 282.453398 248.98294 
L 282.399614 248.82159 
L 282.399614 248.229976 
L 282.560964 247.315663 
L 282.991229 245.809735 
L 284.174458 243.49706 
L 285.41147 241.937349 
L 286.863614 240.377639 
L 286.809831 240.592771 
L 286.540916 239.086843 
L 286.003084 237.957398 
L 284.712289 236.236337 
L 282.82988 234.73041 
L 280.624771 233.493398 
L 278.312096 232.471518 
L 276.32212 231.395855 
L 274.60106 229.943711 
L 273.256482 228.168867 
L 272.234602 226.178892 
L 271.589205 224.027566 
L 270.352193 219.402217 
L 269.491663 217.466024 
L 268.039518 215.529831 
L 265.941976 213.701205 
L 264.167133 212.356627 
L 262.177157 210.635566 
L 260.456096 208.591807 
L 259.219084 206.386699 
L 257.282892 202.191614 
L 256.153446 200.416771 
L 254.647518 198.480578 
L 251.58188 195.038458 
L 250.237301 193.317398 
L 248.570024 190.897157 
L 245.020337 185.088578 
L 242.49253 181.646458 
L 238.458795 176.106795 
L 232.972916 168.146892 
L 229.638361 163.467759 
L 220.17253 149.968193 
L 214.901783 142.277205 
L 209.899952 134.855133 
L 209.899952 134.855133 
" style="fill:none;stroke:#8000ff;stroke-linecap:square;stroke-width:1.5;"/>
   </g>
   <g id="line2d_100">
    <path clip-path="url(#p9d18602359)" d="M 396.15094 153.410313 
L 396.366072 153.464096 
L 396.634988 153.786795 
L 396.85012 154.647325 
L 396.85012 156.637301 
L 396.366072 159.057542 
L 395.397976 161.101301 
L 394.107181 162.929928 
L 392.762602 164.220723 
L 388.728867 167.178795 
L 386.954024 168.953639 
L 385.932145 170.405783 
L 383.565687 174.547084 
L 381.844627 176.53706 
L 379.747084 178.150554 
L 375.336867 180.570795 
L 373.723373 181.807807 
L 372.163663 183.690217 
L 371.249349 185.196145 
L 370.496386 186.702072 
L 369.20559 188.530699 
L 367.054265 190.574458 
L 365.440771 191.542554 
L 363.612145 192.349301 
L 361.568386 193.102265 
L 359.793542 194.016578 
L 358.341398 195.199807 
L 357.104386 196.598169 
L 353.124434 202.406747 
L 349.574747 206.978313 
L 348.768 208.430458 
L 348.122602 210.097735 
L 346.347759 216.497928 
L 345.487229 218.487904 
L 344.357783 220.370313 
L 341.184578 224.242699 
L 339.84 225.856193 
L 338.495422 227.899952 
L 337.365976 230.10506 
L 334.51547 236.720386 
L 332.848193 240.270072 
L 331.93388 242.582747 
L 330.912 245.971084 
L 330.374169 248.068627 
L 329.728771 250.112386 
L 328.868241 252.156145 
L 326.770699 255.974747 
L 324.56559 259.685783 
L 321.499952 265.333012 
L 316.982169 273.88453 
L 316.282988 275.175325 
L 313.755181 279.101494 
L 312.249253 281.145253 
L 310.850892 282.81253 
L 307.839036 285.931952 
L 302.998554 290.288386 
L 301.815325 291.148916 
L 300.632096 291.686747 
L 300.040482 291.525398 
L 298.426988 290.611084 
L 296.813494 289.212723 
L 295.415133 287.43788 
L 294.393253 285.663036 
L 293.694072 284.049542 
L 292.026795 280.93012 
L 292.188145 281.037687 
L 291.865446 280.93012 
L 291.112482 280.876337 
L 289.767904 281.252819 
L 287.347663 282.436048 
L 286.756048 282.543614 
L 285.841735 282.274699 
L 285.626602 282.113349 
L 284.981205 281.199036 
L 285.034988 280.822554 
L 285.088771 280.822554 
L 285.303904 280.607422 
L 285.142554 280.607422 
L 285.142554 279.962024 
L 285.25012 280.177157 
L 285.626602 280.284723 
L 285.734169 280.284723 
L 285.626602 280.338506 
L 285.142554 280.661205 
L 284.604723 281.306602 
L 284.228241 282.005783 
L 283.905542 282.97388 
L 283.636627 285.55547 
L 283.313928 288.621108 
L 281.861783 295.236434 
L 281.592867 297.387759 
L 281.108819 300.076916 
L 280.302072 302.174458 
L 279.06506 304.110651 
L 277.344 305.939277 
L 273.525398 309.273831 
L 271.85812 311.102458 
L 267.609253 316.857253 
L 266.210892 318.52453 
L 263.199036 321.590169 
L 261.746892 323.14988 
L 259.165301 326.484434 
L 258.035855 328.31306 
L 257.121542 330.087904 
L 256.422361 332.024096 
L 255.776964 334.390554 
L 255.077783 338.155373 
L 254.432386 340.683181 
L 253.625639 342.350458 
L 252.388627 344.232867 
L 250.398651 346.33041 
L 245.343036 350.901976 
L 240.986602 356.11894 
L 239.426892 357.678651 
L 237.221783 359.56106 
L 232.166169 363.487229 
L 222.216289 372.307663 
L 182.094072 406.997783 
L 182.094072 406.997783 
" style="fill:none;stroke:#376ff9;stroke-linecap:square;stroke-width:1.5;"/>
   </g>
   <g id="line2d_101">
    <path clip-path="url(#p9d18602359)" d="M 172.843373 200.255422 
L 175.209831 200.416771 
L 177.361157 200.954602 
L 179.351133 201.761349 
L 181.233542 202.729446 
L 183.546217 203.751325 
L 185.213494 204.235373 
L 189.677494 205.04212 
L 192.151518 205.472386 
L 194.302843 206.010217 
L 202.424096 208.753157 
L 206.619181 209.721253 
L 208.340241 210.097735 
L 213.288289 210.796916 
L 215.224482 210.904482 
L 216.999325 210.743133 
L 218.774169 210.259084 
L 220.817928 209.237205 
L 224.744096 206.548048 
L 226.51894 205.633735 
L 228.455133 204.988337 
L 230.552675 204.773205 
L 233.134265 205.04212 
L 235.231807 205.687518 
L 241.524434 208.376675 
L 243.890892 209.022072 
L 248.462458 209.882602 
L 250.56 210.366651 
L 254.647518 211.926361 
L 258.62747 213.593639 
L 262.983904 215.045783 
L 268.792482 216.928193 
L 281.162602 221.069494 
L 282.937446 221.499759 
L 282.722313 221.499759 
L 282.507181 221.714892 
L 282.66853 221.445976 
L 282.82988 220.746795 
L 282.937446 219.402217 
L 282.66853 217.035759 
L 282.023133 215.099566 
L 279.387759 209.936386 
L 279.495325 209.66747 
L 279.764241 209.398554 
L 280.302072 209.022072 
L 280.893687 208.753157 
L 281.915566 208.484241 
L 282.883663 208.430458 
L 285.357687 208.699373 
L 286.379566 208.484241 
L 287.13253 208.053976 
L 287.885494 207.301012 
L 289.01494 205.795084 
L 289.929253 203.697542 
L 291.811663 197.942747 
L 292.295711 196.813301 
L 292.672193 196.27547 
L 293.263807 195.630072 
L 294.016771 195.25359 
L 294.823518 195.038458 
L 295.899181 194.930892 
L 297.136193 195.092241 
L 298.426988 195.468723 
L 300.416964 196.27547 
L 302.138024 196.651952 
L 303.26747 196.490602 
L 305.14988 195.522506 
L 306.171759 194.661976 
L 306.064193 194.877108 
L 306.171759 195.146024 
L 306.386892 195.361157 
L 306.548241 195.361157 
L 306.279325 195.41494 
L 304.98853 196.006554 
L 304.020434 196.974651 
L 303.697735 197.673831 
L 303.482602 198.534361 
L 303.482602 199.287325 
L 303.751518 200.57812 
L 304.235566 201.815133 
L 305.311229 203.32106 
L 306.655807 204.665639 
L 309.506313 207.032096 
L 311.227373 208.914506 
L 312.518169 211.227181 
L 313.271133 213.27094 
L 313.808964 215.529831 
L 314.615711 218.111422 
L 315.583807 219.778699 
L 317.089735 221.445976 
L 319.025928 222.844337 
L 321.338602 223.758651 
L 327.416096 225.64106 
L 329.02959 226.447807 
L 335.053301 230.212627 
L 336.666795 231.019373 
L 341.238361 232.901783 
L 344.895614 234.461494 
L 348.768 236.343904 
L 353.232 238.602795 
L 359.41706 241.453301 
L 365.60212 244.411373 
L 382.113542 252.209928 
L 388.567518 255.329349 
L 397.334169 259.416867 
L 420.676048 270.496193 
L 420.676048 270.496193 
" style="fill:none;stroke:#12c7e6;stroke-linecap:square;stroke-width:1.5;"/>
   </g>
   <g id="line2d_102">
    <path clip-path="url(#p9d18602359)" d="M 268.523566 422.325976 
L 268.631133 422.272193 
L 269.061398 422.21841 
L 269.975711 421.680578 
L 270.621108 420.981398 
L 271.427855 419.690602 
L 271.965687 418.238458 
L 272.288386 416.302265 
L 272.180819 413.613108 
L 270.943807 407.696964 
L 270.836241 405.491855 
L 271.051373 403.286747 
L 271.642988 398.984096 
L 271.804337 397.209253 
L 271.911904 394.789012 
L 271.642988 388.335036 
L 271.696771 383.655904 
L 272.288386 372.899277 
L 272.88 361.819952 
L 274.439711 344.017735 
L 274.923759 341.059663 
L 275.192675 340.037783 
L 275.891855 338.746988 
L 276.375904 338.26294 
L 277.559133 337.563759 
L 278.473446 337.40241 
L 279.710458 337.40241 
L 280.893687 337.671325 
L 282.66853 338.26294 
L 283.959325 338.424289 
L 284.927422 338.209157 
L 285.734169 337.563759 
L 286.110651 337.025928 
L 286.540916 335.52 
L 286.648482 333.476241 
L 286.809831 332.723277 
L 287.509012 331.647614 
L 288.15441 331.109783 
L 288.907373 330.787084 
L 290.682217 330.356819 
L 291.273831 330.249253 
L 292.349494 329.657639 
L 292.833542 329.012241 
L 293.156241 328.366843 
L 293.47894 327.183614 
L 293.586506 325.354988 
L 293.47894 323.84906 
L 292.779759 320.622072 
L 292.672193 318.578313 
L 293.371373 313.415133 
L 293.371373 313.522699 
L 293.694072 313.899181 
L 293.371373 313.791614 
L 290.789783 313.737831 
L 289.983036 313.630265 
L 289.391422 313.361349 
L 288.746024 312.931084 
L 288.15441 312.33947 
L 287.724145 311.532723 
L 287.509012 310.672193 
L 287.401446 309.59653 
L 287.455229 309.004916 
L 287.885494 307.767904 
L 288.584675 307.445205 
L 289.445205 307.283855 
L 290.467084 307.337639 
L 291.811663 307.767904 
L 293.801639 308.736 
L 293.694072 308.736 
L 293.532723 308.843566 
L 293.747855 308.628434 
L 294.285687 307.821687 
L 294.715952 306.638458 
L 295.2 305.401446 
L 296.006747 304.325783 
L 296.652145 303.895518 
L 297.566458 303.465253 
L 298.749687 303.196337 
L 300.201831 303.142554 
L 304.665831 303.41147 
L 306.225542 303.142554 
L 306.655807 302.981205 
L 307.032289 302.658506 
L 307.408771 302.174458 
L 307.785253 301.421494 
L 308.054169 299.700434 
L 308.323084 296.688578 
L 308.699566 295.559133 
L 309.721446 293.730506 
L 311.012241 292.278361 
L 312.679518 290.826217 
L 314.508145 289.051373 
L 315.63759 287.599229 
L 316.336771 286.147084 
L 316.713253 284.748723 
L 316.767036 283.135229 
L 316.336771 280.876337 
L 315.745157 279.262843 
L 312.03412 272.647518 
L 311.281157 270.926458 
L 308.860916 264.580048 
L 304.343133 254.845301 
L 301.062361 246.885398 
L 299.287518 242.959229 
L 293.586506 229.782361 
L 291.811663 225.909976 
L 283.851759 209.022072 
L 275.246458 190.897157 
L 275.246458 190.897157 
" style="fill:none;stroke:#5bf9c7;stroke-linecap:square;stroke-width:1.5;"/>
   </g>
   <g id="line2d_103">
    <path clip-path="url(#p9d18602359)" d="M 127.020145 268.882699 
L 130.139566 268.828916 
L 132.237108 268.721349 
L 141.165108 267.807036 
L 148.264482 267.269205 
L 155.310072 266.247325 
L 160.25812 265.494361 
L 169.562602 264.580048 
L 178.867084 263.988434 
L 193.926361 263.127904 
L 208.985639 262.321157 
L 213.98747 262.321157 
L 220.495229 262.590072 
L 229.423229 263.181687 
L 233.672096 263.23547 
L 241.954699 263.020337 
L 245.934651 262.966554 
L 247.333012 263.07412 
L 248.623807 263.289253 
L 249.376771 263.611952 
L 249.591904 263.988434 
L 249.753253 264.902747 
L 249.753253 266.032193 
L 249.591904 267.107855 
L 249.054072 268.291084 
L 248.570024 268.775133 
L 248.301108 268.828916 
L 247.97841 268.56 
L 247.924627 268.398651 
L 247.97841 268.129735 
L 248.301108 267.645687 
L 249.430554 266.83894 
L 249.914602 266.623807 
L 250.721349 266.570024 
L 251.42053 267.161639 
L 252.065928 268.022169 
L 252.657542 269.366747 
L 253.195373 271.679422 
L 253.464289 280.661205 
L 253.410506 280.499855 
L 253.30294 280.446072 
L 254.271036 280.93012 
L 255.131566 281.145253 
L 256.368578 281.145253 
L 257.659373 280.822554 
L 258.46612 280.499855 
L 259.165301 280.015807 
L 259.703133 279.477976 
L 259.972048 279.047711 
L 260.240964 278.025831 
L 260.240964 277.219084 
L 259.972048 276.197205 
L 259.541783 275.336675 
L 258.950169 274.529928 
L 257.928289 273.723181 
L 257.982072 273.723181 
L 257.336675 273.830747 
L 256.90641 273.938313 
L 255.88453 274.74506 
L 255.830747 274.90641 
L 255.776964 275.390458 
L 255.938313 276.412337 
L 256.099663 276.950169 
L 256.852627 278.079614 
L 257.444241 278.456096 
L 257.874506 278.563663 
L 257.982072 278.563663 
L 257.659373 278.671229 
L 257.874506 278.456096 
L 258.304771 277.810699 
L 258.735036 276.735036 
L 259.541783 272.970217 
L 259.972048 271.948337 
L 260.133398 271.894554 
L 260.50988 271.894554 
L 261.424193 272.16347 
L 262.876337 272.916434 
L 264.274699 273.992096 
L 265.941976 275.982072 
L 267.017639 277.810699 
L 267.878169 279.693108 
L 268.684916 280.93012 
L 269.491663 281.736867 
L 270.459759 282.328482 
L 271.750554 282.704964 
L 273.74053 282.866313 
L 276.053205 282.597398 
L 278.043181 281.898217 
L 282.345831 279.962024 
L 284.443373 279.316627 
L 286.594699 278.886361 
L 290.897349 278.294747 
L 292.941108 277.864482 
L 294.984867 277.272867 
L 301.707759 274.74506 
L 306.548241 273.346699 
L 311.388723 272.00212 
L 324.350458 267.914602 
L 369.528289 253.769639 
L 369.528289 253.769639 
" style="fill:none;stroke:#a4f99f;stroke-linecap:square;stroke-width:1.5;"/>
   </g>
   <g id="line2d_104">
    <path clip-path="url(#p9d18602359)" d="M 389.320482 207.08588 
L 389.589398 207.193446 
L 389.750747 207.301012 
L 389.750747 207.838843 
L 389.374265 208.64559 
L 388.836434 209.344771 
L 387.438072 210.581783 
L 385.50188 211.603663 
L 382.705157 212.356627 
L 380.607614 212.41041 
L 376.251181 212.24906 
L 373.884723 212.733108 
L 371.94853 213.486072 
L 367.914795 215.798747 
L 365.548337 216.820627 
L 364.149976 217.250892 
L 361.675952 217.842506 
L 357.319518 219.240867 
L 355.383325 220.101398 
L 348.714217 223.543518 
L 344.626699 225.157012 
L 340.324048 226.878072 
L 334.838169 229.513446 
L 332.79441 230.320193 
L 328.007711 231.879904 
L 319.348627 234.300145 
L 317.197301 234.73041 
L 315.368675 234.945542 
L 312.840867 235.053108 
L 310.259277 234.891759 
L 307.73147 234.300145 
L 305.687711 233.547181 
L 303.428819 232.256386 
L 302.675855 231.503422 
L 302.783422 231.019373 
L 303.643952 230.427759 
L 303.912867 230.320193 
L 303.859084 230.320193 
L 303.052337 230.481542 
L 303.482602 229.836145 
L 303.375036 228.921831 
L 303.26747 227.953735 
L 303.482602 227.684819 
L 304.020434 227.577253 
L 304.827181 227.308337 
L 306.655807 226.340241 
L 308.860916 224.565398 
L 310.366843 223.435952 
L 310.689542 223.543518 
L 310.958458 224.135133 
L 311.119807 224.78053 
L 311.17359 225.856193 
L 310.958458 226.931855 
L 310.47441 228.115084 
L 309.45253 229.621012 
L 307.946602 231.019373 
L 306.171759 232.095036 
L 304.396916 232.740434 
L 301.922892 233.170699 
L 297.512675 233.385831 
L 295.092434 233.762313 
L 292.672193 234.353928 
L 290.682217 235.053108 
L 288.261976 235.752289 
L 286.433349 236.128771 
L 283.905542 236.45147 
L 281.861783 236.45147 
L 280.140723 236.29012 
L 278.742361 236.021205 
L 277.666699 235.644723 
L 276.429687 234.891759 
L 275.354024 233.923663 
L 274.332145 232.417735 
L 273.310265 230.373976 
L 272.234602 227.899952 
L 271.374072 226.555373 
L 270.513542 225.587277 
L 269.653012 224.834313 
L 268.792482 224.457831 
L 267.125205 223.973783 
L 265.350361 223.866217 
L 263.683084 224.081349 
L 261.477976 224.78053 
L 257.121542 226.447807 
L 254.970217 226.985639 
L 252.44241 227.308337 
L 247.81706 227.469687 
L 246.042217 227.738602 
L 243.890892 228.276434 
L 242.062265 228.921831 
L 239.74959 230.158843 
L 239.480675 230.373976 
L 239.642024 230.158843 
L 239.588241 229.889928 
L 239.695807 229.997494 
L 240.126072 230.535325 
L 240.932819 231.12694 
L 242.277398 231.772337 
L 243.406843 232.041253 
L 245.504386 232.471518 
L 245.665735 232.740434 
L 245.665735 233.116916 
L 245.450602 233.86988 
L 245.020337 234.622843 
L 244.37494 235.375807 
L 243.51441 236.074988 
L 242.277398 236.720386 
L 239.588241 237.634699 
L 239.74959 237.580916 
L 239.695807 238.280096 
L 239.857157 239.086843 
L 240.341205 240.323855 
L 241.201735 241.614651 
L 242.869012 243.712193 
L 243.245494 244.465157 
L 243.245494 244.572723 
L 243.030361 245.110554 
L 242.546313 245.971084 
L 241.578217 246.939181 
L 239.91094 248.014843 
L 237.867181 248.82159 
L 235.662072 249.305639 
L 233.618313 249.574554 
L 231.735904 249.951036 
L 230.660241 250.435084 
L 229.907277 250.972916 
L 228.831614 252.048578 
L 227.702169 253.715855 
L 226.895422 255.598265 
L 226.034892 259.578217 
L 225.443277 261.084145 
L 224.851663 261.944675 
L 224.098699 262.590072 
L 223.076819 263.181687 
L 221.409542 263.773301 
L 219.580916 263.988434 
L 217.053108 263.719518 
L 214.901783 263.020337 
L 208.931855 260.600096 
L 206.888096 260.169831 
L 200.487904 259.632 
L 198.336578 259.147952 
L 196.239036 258.394988 
L 190.484241 255.544482 
L 186.504289 254.14612 
L 180.641928 252.317494 
L 180.641928 252.317494 
" style="fill:none;stroke:#edc76f;stroke-linecap:square;stroke-width:1.5;"/>
   </g>
   <g id="line2d_105">
    <path clip-path="url(#p9d18602359)" d="M 324.350458 283.404145 
L 324.56559 283.511711 
L 324.780723 283.726843 
L 324.780723 285.071422 
L 324.458024 286.308434 
L 323.597494 287.814361 
L 322.037783 289.535422 
L 319.832675 290.987566 
L 317.412434 292.009446 
L 312.571952 293.46159 
L 310.366843 294.429687 
L 304.235566 298.194506 
L 302.191807 299.055036 
L 300.040482 299.646651 
L 298.050506 300.023133 
L 296.006747 300.560964 
L 294.070554 301.313928 
L 292.510843 302.066892 
L 286.379566 305.831711 
L 284.443373 306.85359 
L 281.485301 308.144386 
L 278.742361 308.843566 
L 277.451566 309.273831 
L 276.268337 310.080578 
L 274.654843 311.31759 
L 274.439711 311.263807 
L 274.224578 310.941108 
L 274.224578 310.725976 
L 274.332145 310.45706 
L 275.031325 309.435181 
L 276.106988 308.467084 
L 278.312096 307.606554 
L 278.473446 307.606554 
L 278.258313 307.71412 
L 278.20453 307.821687 
L 278.258313 307.606554 
L 278.312096 307.068723 
L 278.20453 306.100627 
L 277.881831 304.917398 
L 277.505349 304.272 
L 276.913735 303.572819 
L 276.214554 302.981205 
L 275.085108 302.38959 
L 273.74053 302.066892 
L 272.073253 302.066892 
L 270.29841 302.443373 
L 269.007614 302.927422 
L 267.232771 303.949301 
L 263.414169 306.530892 
L 261.20906 307.767904 
L 254.647518 310.779759 
L 253.087807 311.747855 
L 251.259181 313.2 
L 251.366747 312.931084 
L 251.312964 312.715952 
L 251.474313 312.931084 
L 252.334843 313.576482 
L 255.88453 315.08241 
L 256.207229 315.566458 
L 256.476145 316.211855 
L 256.691277 317.126169 
L 256.637494 318.470747 
L 256.261012 320.030458 
L 255.723181 321.052337 
L 254.271036 323.311229 
L 253.840771 324.494458 
L 253.840771 325.462554 
L 254.055904 326.484434 
L 254.916434 328.31306 
L 256.099663 329.980337 
L 259.003952 333.045976 
L 259.703133 334.49812 
L 259.810699 335.358651 
L 259.703133 336.38053 
L 259.272867 337.456193 
L 258.304771 339.069687 
L 256.74506 340.683181 
L 254.916434 341.86641 
L 253.034024 342.72694 
L 248.946506 344.394217 
L 247.171663 345.523663 
L 245.880867 346.653108 
L 244.321157 348.427952 
L 242.65388 350.525494 
L 241.416867 351.870072 
L 240.018506 353.160867 
L 238.082313 354.344096 
L 235.769639 355.365976 
L 231.305639 356.871904 
L 228.992964 357.893783 
L 226.787855 359.023229 
L 222.75412 361.389687 
L 219.150651 363.110747 
L 211.567229 366.283952 
L 203.445976 370.102554 
L 197.207133 372.899277 
L 161.979181 388.926651 
L 155.79412 391.777157 
L 149.60906 394.627663 
L 135.625446 401.135422 
L 128.042024 404.416193 
L 128.042024 404.416193 
" style="fill:none;stroke:#ff6f39;stroke-linecap:square;stroke-width:1.5;"/>
   </g>
   <g id="line2d_106">
    <path clip-path="url(#p9d18602359)" d="M 281.162602 377.901108 
L 280.78612 378.062458 
L 281.055036 377.739759 
L 281.377735 377.094361 
L 281.646651 376.180048 
L 281.754217 374.136289 
L 281.431518 372.146313 
L 280.517205 369.887422 
L 279.172627 367.897446 
L 277.774265 366.176386 
L 276.214554 364.078843 
L 275.138892 361.712386 
L 274.60106 359.56106 
L 274.332145 357.409735 
L 273.794313 355.09706 
L 272.772434 352.891952 
L 269.115181 347.352289 
L 268.308434 345.254747 
L 266.69494 338.639422 
L 265.67306 336.488096 
L 263.306602 332.830843 
L 259.272867 325.892819 
L 257.820723 324.386892 
L 255.88453 323.042313 
L 251.797012 321.26747 
L 249.107855 319.869108 
L 248.946506 319.54641 
L 249.000289 318.739663 
L 249.269205 317.502651 
L 250.183518 315.136193 
L 251.474313 313.307566 
L 255.669398 309.058699 
L 255.615614 309.166265 
L 255.615614 309.220048 
L 255.615614 308.682217 
L 255.400482 307.498988 
L 254.647518 305.347663 
L 253.464289 303.303904 
L 251.797012 301.582843 
L 250.398651 300.560964 
L 248.67759 299.646651 
L 246.526265 298.248289 
L 244.966554 296.634795 
L 243.890892 295.128867 
L 242.169831 291.955663 
L 241.363084 290.987566 
L 240.825253 290.664867 
L 239.588241 290.234602 
L 237.436916 290.01947 
L 235.393157 290.234602 
L 233.080482 290.933783 
L 229.154313 292.869976 
L 228.024867 293.246458 
L 227.164337 293.300241 
L 226.303807 293.192675 
L 225.228145 292.816193 
L 223.829783 291.955663 
L 222.323855 290.449735 
L 221.03306 288.405976 
L 220.226313 286.416 
L 219.580916 283.888193 
L 218.774169 281.360386 
L 218.074988 279.800675 
L 216.784193 277.649349 
L 215.493398 275.928289 
L 214.041253 273.723181 
L 213.073157 271.733205 
L 212.212627 269.312964 
L 210.491566 262.751422 
L 208.824289 258.448771 
L 206.135133 252.317494 
L 205.167036 250.650217 
L 203.930024 248.929157 
L 202.639229 247.638361 
L 200.703036 246.347566 
L 197.045783 244.465157 
L 194.948241 243.120578 
L 193.280964 241.345735 
L 191.990169 239.19441 
L 191.237205 236.720386 
L 190.699373 232.417735 
L 190.430458 230.320193 
L 189.838843 227.953735 
L 187.20347 221.392193 
L 186.611855 219.240867 
L 186.074024 214.938217 
L 185.589976 211.012048 
L 184.568096 206.171566 
L 183.761349 202.675663 
L 182.470554 195.576289 
L 181.663807 191.004723 
L 180.803277 186.809639 
L 178.759518 175.83788 
L 174.564434 154.001928 
L 169.616386 129.799518 
L 168.218024 123.076627 
L 168.218024 123.076627 
" style="fill:none;stroke:#ff0000;stroke-linecap:square;stroke-width:1.5;"/>
   </g>
   <g id="patch_3">
    <path d="M 72 512.64 
L 72 69.12 
" style="fill:none;stroke:#000000;stroke-linecap:square;stroke-linejoin:miter;stroke-width:0.8;"/>
   </g>
   <g id="patch_4">
    <path d="M 518.4 512.64 
L 518.4 69.12 
" style="fill:none;stroke:#000000;stroke-linecap:square;stroke-linejoin:miter;stroke-width:0.8;"/>
   </g>
   <g id="patch_5">
    <path d="M 72 512.64 
L 518.4 512.64 
" style="fill:none;stroke:#000000;stroke-linecap:square;stroke-linejoin:miter;stroke-width:0.8;"/>
   </g>
   <g id="patch_6">
    <path d="M 72 69.12 
L 518.4 69.12 
" style="fill:none;stroke:#000000;stroke-linecap:square;stroke-linejoin:miter;stroke-width:0.8;"/>
   </g>
   <g id="text_18">
    <!-- 1 -->
    <defs>
     <path d="M 14.203125 0 
L 14.203125 5.171875 
L 26.90625 5.171875 
L 26.90625 65.828125 
L 12.203125 56.296875 
L 12.203125 62.703125 
L 29.984375 74.21875 
L 36.71875 74.21875 
L 36.71875 5.171875 
L 49.421875 5.171875 
L 49.421875 0 
z
" id="DejaVuSerif-31"/>
    </defs>
    <g transform="translate(344.611748 340.239991)scale(0.1 -0.1)">
     <use xlink:href="#DejaVuSerif-31"/>
    </g>
   </g>
   <g id="text_19">
    <!-- 1 -->
    <g transform="translate(205.890485 134.308354)scale(0.1 -0.1)">
     <use xlink:href="#DejaVuSerif-31"/>
    </g>
   </g>
   <g id="text_20">
    <!-- 2 -->
    <defs>
     <path d="M 12.796875 55.515625 
L 7.328125 55.515625 
L 7.328125 68.5 
Q 12.546875 71.296875 17.84375 72.75 
Q 23.140625 74.21875 28.21875 74.21875 
Q 39.59375 74.21875 46.1875 68.703125 
Q 52.78125 63.1875 52.78125 53.71875 
Q 52.78125 43.015625 37.84375 28.125 
Q 36.671875 27 36.078125 26.421875 
L 17.671875 8.015625 
L 48.09375 8.015625 
L 48.09375 17 
L 53.8125 17 
L 53.8125 0 
L 6.78125 0 
L 6.78125 5.328125 
L 28.90625 27.390625 
Q 36.234375 34.71875 39.359375 40.84375 
Q 42.484375 46.96875 42.484375 53.71875 
Q 42.484375 61.078125 38.640625 65.234375 
Q 34.8125 69.390625 28.078125 69.390625 
Q 21.09375 69.390625 17.28125 65.921875 
Q 13.484375 62.453125 12.796875 55.515625 
z
" id="DejaVuSerif-32"/>
    </defs>
    <g transform="translate(392.957458 153.40885)scale(0.1 -0.1)">
     <use xlink:href="#DejaVuSerif-32"/>
    </g>
   </g>
   <g id="text_21">
    <!-- 2 -->
    <g transform="translate(179.108001 406.804536)scale(0.1 -0.1)">
     <use xlink:href="#DejaVuSerif-32"/>
    </g>
   </g>
   <g id="text_22">
    <!-- 3 -->
    <defs>
     <path d="M 9.71875 69.828125 
Q 15.4375 71.96875 20.671875 73.09375 
Q 25.921875 74.21875 30.515625 74.21875 
Q 41.21875 74.21875 47.21875 69.59375 
Q 53.21875 64.984375 53.21875 56.78125 
Q 53.21875 50.203125 49.0625 45.78125 
Q 44.921875 41.359375 37.3125 39.796875 
Q 46.296875 38.53125 51.25 33.28125 
Q 56.203125 28.03125 56.203125 19.671875 
Q 56.203125 9.46875 49.34375 4.015625 
Q 42.484375 -1.421875 29.59375 -1.421875 
Q 23.875 -1.421875 18.421875 -0.1875 
Q 12.984375 1.03125 7.625 3.515625 
L 7.625 17.671875 
L 13.09375 17.671875 
Q 13.578125 10.640625 17.828125 7.03125 
Q 22.078125 3.421875 29.78125 3.421875 
Q 37.25 3.421875 41.578125 7.734375 
Q 45.90625 12.0625 45.90625 19.578125 
Q 45.90625 28.171875 41.453125 32.59375 
Q 37.015625 37.015625 28.421875 37.015625 
L 23.78125 37.015625 
L 23.78125 42 
L 26.21875 42 
Q 34.765625 42 39.03125 45.53125 
Q 43.3125 49.078125 43.3125 56.203125 
Q 43.3125 62.59375 39.796875 65.984375 
Q 36.28125 69.390625 29.6875 69.390625 
Q 23.09375 69.390625 19.453125 66.265625 
Q 15.828125 63.140625 15.1875 56.984375 
L 9.71875 56.984375 
z
" id="DejaVuSerif-33"/>
    </defs>
    <g transform="translate(169.650341 200.280907)scale(0.1 -0.1)">
     <use xlink:href="#DejaVuSerif-33"/>
    </g>
   </g>
   <g id="text_23">
    <!-- 3 -->
    <g transform="translate(418.373065 270.92097)scale(0.1 -0.1)">
     <use xlink:href="#DejaVuSerif-33"/>
    </g>
   </g>
   <g id="text_24">
    <!-- 4 -->
    <defs>
     <path d="M 34.90625 24.703125 
L 34.90625 63.484375 
L 10.015625 24.703125 
z
M 56.390625 0 
L 23.1875 0 
L 23.1875 5.171875 
L 34.90625 5.171875 
L 34.90625 19.484375 
L 3.078125 19.484375 
L 3.078125 24.8125 
L 35.015625 74.21875 
L 44.671875 74.21875 
L 44.671875 24.703125 
L 58.59375 24.703125 
L 58.59375 19.484375 
L 44.671875 19.484375 
L 44.671875 5.171875 
L 56.390625 5.171875 
z
" id="DejaVuSerif-34"/>
    </defs>
    <g transform="translate(265.345292 422.309203)scale(0.1 -0.1)">
     <use xlink:href="#DejaVuSerif-34"/>
    </g>
   </g>
   <g id="text_25">
    <!-- 4 -->
    <g transform="translate(272.244409 191.231959)scale(0.1 -0.1)">
     <use xlink:href="#DejaVuSerif-34"/>
    </g>
   </g>
   <g id="text_26">
    <!-- 5 -->
    <defs>
     <path d="M 50.296875 72.90625 
L 50.296875 64.890625 
L 16.890625 64.890625 
L 16.890625 44 
Q 19.4375 45.75 22.828125 46.625 
Q 26.21875 47.515625 30.421875 47.515625 
Q 42.234375 47.515625 49.0625 40.96875 
Q 55.90625 34.421875 55.90625 23.09375 
Q 55.90625 11.53125 49 5.046875 
Q 42.09375 -1.421875 29.59375 -1.421875 
Q 24.5625 -1.421875 19.28125 -0.1875 
Q 14.015625 1.03125 8.5 3.515625 
L 8.5 17.671875 
L 14.015625 17.671875 
Q 14.453125 10.75 18.421875 7.078125 
Q 22.40625 3.421875 29.59375 3.421875 
Q 37.3125 3.421875 41.453125 8.5 
Q 45.609375 13.578125 45.609375 23.09375 
Q 45.609375 32.5625 41.484375 37.609375 
Q 37.359375 42.671875 29.59375 42.671875 
Q 25.203125 42.671875 21.84375 41.109375 
Q 18.5 39.546875 15.921875 36.28125 
L 11.71875 36.28125 
L 11.71875 72.90625 
z
" id="DejaVuSerif-35"/>
    </defs>
    <g transform="translate(123.826935 268.876116)scale(0.1 -0.1)">
     <use xlink:href="#DejaVuSerif-35"/>
    </g>
   </g>
   <g id="text_27">
    <!-- 5 -->
    <g transform="translate(366.461168 253.728687)scale(0.1 -0.1)">
     <use xlink:href="#DejaVuSerif-35"/>
    </g>
   </g>
   <g id="text_28">
    <!-- 6 -->
    <defs>
     <path d="M 32.71875 3.421875 
Q 39.59375 3.421875 43.296875 8.46875 
Q 47.015625 13.53125 47.015625 23 
Q 47.015625 32.46875 43.296875 37.515625 
Q 39.59375 42.578125 32.71875 42.578125 
Q 25.734375 42.578125 22.0625 37.6875 
Q 18.40625 32.8125 18.40625 23.578125 
Q 18.40625 13.875 22.109375 8.640625 
Q 25.828125 3.421875 32.71875 3.421875 
z
M 16.796875 40.140625 
Q 20.125 43.796875 24.3125 45.59375 
Q 28.515625 47.40625 33.796875 47.40625 
Q 44.671875 47.40625 51 40.859375 
Q 57.328125 34.328125 57.328125 23 
Q 57.328125 11.921875 50.515625 5.25 
Q 43.703125 -1.421875 32.328125 -1.421875 
Q 19.96875 -1.421875 13.328125 7.78125 
Q 6.6875 17 6.6875 34.078125 
Q 6.6875 53.21875 14.546875 63.71875 
Q 22.40625 74.21875 36.71875 74.21875 
Q 40.578125 74.21875 44.828125 73.484375 
Q 49.078125 72.75 53.515625 71.296875 
L 53.515625 59.28125 
L 48 59.28125 
Q 47.40625 64.203125 44.234375 66.796875 
Q 41.0625 69.390625 35.6875 69.390625 
Q 26.21875 69.390625 21.578125 62.203125 
Q 16.9375 55.03125 16.796875 40.140625 
z
" id="DejaVuSerif-36"/>
    </defs>
    <g transform="translate(386.141259 207.110615)scale(0.1 -0.1)">
     <use xlink:href="#DejaVuSerif-36"/>
    </g>
   </g>
   <g id="text_29">
    <!-- 6 -->
    <g transform="translate(177.960688 252.222761)scale(0.1 -0.1)">
     <use xlink:href="#DejaVuSerif-36"/>
    </g>
   </g>
   <g id="text_30">
    <!-- 7 -->
    <defs>
     <path d="M 56.390625 67.921875 
L 27.875 0 
L 20.609375 0 
L 47.796875 64.890625 
L 14.109375 64.890625 
L 14.109375 55.90625 
L 8.40625 55.90625 
L 8.40625 72.90625 
L 56.390625 72.90625 
z
" id="DejaVuSerif-37"/>
    </defs>
    <g transform="translate(321.150197 283.426622)scale(0.1 -0.1)">
     <use xlink:href="#DejaVuSerif-37"/>
    </g>
   </g>
   <g id="text_31">
    <!-- 7 -->
    <g transform="translate(124.876031 404.384129)scale(0.1 -0.1)">
     <use xlink:href="#DejaVuSerif-37"/>
    </g>
   </g>
   <g id="text_32">
    <!-- 8 -->
    <defs>
     <path d="M 46.578125 19.921875 
Q 46.578125 27.734375 42.6875 32.046875 
Q 38.8125 36.375 31.78125 36.375 
Q 24.75 36.375 20.875 32.046875 
Q 17 27.734375 17 19.921875 
Q 17 12.0625 20.875 7.734375 
Q 24.75 3.421875 31.78125 3.421875 
Q 38.8125 3.421875 42.6875 7.734375 
Q 46.578125 12.0625 46.578125 19.921875 
z
M 44.578125 55.328125 
Q 44.578125 61.96875 41.203125 65.671875 
Q 37.84375 69.390625 31.78125 69.390625 
Q 25.78125 69.390625 22.390625 65.671875 
Q 19 61.96875 19 55.328125 
Q 19 48.640625 22.390625 44.921875 
Q 25.78125 41.21875 31.78125 41.21875 
Q 37.84375 41.21875 41.203125 44.921875 
Q 44.578125 48.640625 44.578125 55.328125 
z
M 39.3125 38.8125 
Q 47.609375 37.703125 52.25 32.6875 
Q 56.890625 27.6875 56.890625 19.921875 
Q 56.890625 9.671875 50.390625 4.125 
Q 43.890625 -1.421875 31.78125 -1.421875 
Q 19.734375 -1.421875 13.203125 4.125 
Q 6.6875 9.671875 6.6875 19.921875 
Q 6.6875 27.6875 11.328125 32.6875 
Q 15.96875 37.703125 24.3125 38.8125 
Q 16.9375 40.140625 13 44.40625 
Q 9.078125 48.6875 9.078125 55.328125 
Q 9.078125 64.109375 15.125 69.15625 
Q 21.1875 74.21875 31.78125 74.21875 
Q 42.390625 74.21875 48.4375 69.15625 
Q 54.5 64.109375 54.5 55.328125 
Q 54.5 48.6875 50.5625 44.40625 
Q 46.625 40.140625 39.3125 38.8125 
z
" id="DejaVuSerif-38"/>
    </defs>
    <g transform="translate(277.959728 377.92349)scale(0.1 -0.1)">
     <use xlink:href="#DejaVuSerif-38"/>
    </g>
   </g>
   <g id="text_33">
    <!-- 8 -->
    <g transform="translate(165.434357 122.318282)scale(0.1 -0.1)">
     <use xlink:href="#DejaVuSerif-38"/>
    </g>
   </g>
  </g>
 </g>
 <defs>
  <clipPath id="p9d18602359">
   <rect height="443.52" width="446.4" x="72" y="69.12"/>
  </clipPath>
 </defs>
</svg>
