<?xml version="1.0" encoding="utf-8" standalone="no"?>
<!DOCTYPE svg PUBLIC "-//W3C//DTD SVG 1.1//EN"
  "http://www.w3.org/Graphics/SVG/1.1/DTD/svg11.dtd">
<!-- Created with matplotlib (http://matplotlib.org/) -->
<svg height="576pt" version="1.1" viewBox="0 0 576 576" width="576pt" xmlns="http://www.w3.org/2000/svg" xmlns:xlink="http://www.w3.org/1999/xlink">
 <defs>
  <style type="text/css">
*{stroke-linecap:butt;stroke-linejoin:round;}
  </style>
 </defs>
 <g id="figure_1">
  <g id="patch_1">
   <path d="M 0 576 
L 576 576 
L 576 0 
L 0 0 
z
" style="fill:#ffffff;"/>
  </g>
  <g id="axes_1">
   <g id="patch_2">
    <path d="M 72 512.64 
L 518.4 512.64 
L 518.4 69.12 
L 72 69.12 
z
" style="fill:#ffffff;"/>
   </g>
   <g id="matplotlib.axis_1">
    <g id="xtick_1">
     <g id="line2d_1">
      <defs>
       <path d="M 0 0 
L 0 3.5 
" id="m5be55a3389" style="stroke:#000000;stroke-width:0.8;"/>
      </defs>
      <g>
       <use style="stroke:#000000;stroke-width:0.8;" x="112.216216" xlink:href="#m5be55a3389" y="512.64"/>
      </g>
     </g>
     <g id="text_1">
      <!-- 0 -->
      <defs>
       <path d="M 31.78125 66.40625 
Q 24.171875 66.40625 20.328125 58.90625 
Q 16.5 51.421875 16.5 36.375 
Q 16.5 21.390625 20.328125 13.890625 
Q 24.171875 6.390625 31.78125 6.390625 
Q 39.453125 6.390625 43.28125 13.890625 
Q 47.125 21.390625 47.125 36.375 
Q 47.125 51.421875 43.28125 58.90625 
Q 39.453125 66.40625 31.78125 66.40625 
z
M 31.78125 74.21875 
Q 44.046875 74.21875 50.515625 64.515625 
Q 56.984375 54.828125 56.984375 36.375 
Q 56.984375 17.96875 50.515625 8.265625 
Q 44.046875 -1.421875 31.78125 -1.421875 
Q 19.53125 -1.421875 13.0625 8.265625 
Q 6.59375 17.96875 6.59375 36.375 
Q 6.59375 54.828125 13.0625 64.515625 
Q 19.53125 74.21875 31.78125 74.21875 
z
" id="DejaVuSans-30"/>
      </defs>
      <g transform="translate(109.034966 527.238438)scale(0.1 -0.1)">
       <use xlink:href="#DejaVuSans-30"/>
      </g>
     </g>
    </g>
    <g id="xtick_2">
     <g id="line2d_2">
      <g>
       <use style="stroke:#000000;stroke-width:0.8;" x="192.648649" xlink:href="#m5be55a3389" y="512.64"/>
      </g>
     </g>
     <g id="text_2">
      <!-- 2 -->
      <defs>
       <path d="M 19.1875 8.296875 
L 53.609375 8.296875 
L 53.609375 0 
L 7.328125 0 
L 7.328125 8.296875 
Q 12.9375 14.109375 22.625 23.890625 
Q 32.328125 33.6875 34.8125 36.53125 
Q 39.546875 41.84375 41.421875 45.53125 
Q 43.3125 49.21875 43.3125 52.78125 
Q 43.3125 58.59375 39.234375 62.25 
Q 35.15625 65.921875 28.609375 65.921875 
Q 23.96875 65.921875 18.8125 64.3125 
Q 13.671875 62.703125 7.8125 59.421875 
L 7.8125 69.390625 
Q 13.765625 71.78125 18.9375 73 
Q 24.125 74.21875 28.421875 74.21875 
Q 39.75 74.21875 46.484375 68.546875 
Q 53.21875 62.890625 53.21875 53.421875 
Q 53.21875 48.921875 51.53125 44.890625 
Q 49.859375 40.875 45.40625 35.40625 
Q 44.1875 33.984375 37.640625 27.21875 
Q 31.109375 20.453125 19.1875 8.296875 
z
" id="DejaVuSans-32"/>
      </defs>
      <g transform="translate(189.467399 527.238438)scale(0.1 -0.1)">
       <use xlink:href="#DejaVuSans-32"/>
      </g>
     </g>
    </g>
    <g id="xtick_3">
     <g id="line2d_3">
      <g>
       <use style="stroke:#000000;stroke-width:0.8;" x="273.081081" xlink:href="#m5be55a3389" y="512.64"/>
      </g>
     </g>
     <g id="text_3">
      <!-- 4 -->
      <defs>
       <path d="M 37.796875 64.3125 
L 12.890625 25.390625 
L 37.796875 25.390625 
z
M 35.203125 72.90625 
L 47.609375 72.90625 
L 47.609375 25.390625 
L 58.015625 25.390625 
L 58.015625 17.1875 
L 47.609375 17.1875 
L 47.609375 0 
L 37.796875 0 
L 37.796875 17.1875 
L 4.890625 17.1875 
L 4.890625 26.703125 
z
" id="DejaVuSans-34"/>
      </defs>
      <g transform="translate(269.899831 527.238438)scale(0.1 -0.1)">
       <use xlink:href="#DejaVuSans-34"/>
      </g>
     </g>
    </g>
    <g id="xtick_4">
     <g id="line2d_4">
      <g>
       <use style="stroke:#000000;stroke-width:0.8;" x="353.513514" xlink:href="#m5be55a3389" y="512.64"/>
      </g>
     </g>
     <g id="text_4">
      <!-- 6 -->
      <defs>
       <path d="M 33.015625 40.375 
Q 26.375 40.375 22.484375 35.828125 
Q 18.609375 31.296875 18.609375 23.390625 
Q 18.609375 15.53125 22.484375 10.953125 
Q 26.375 6.390625 33.015625 6.390625 
Q 39.65625 6.390625 43.53125 10.953125 
Q 47.40625 15.53125 47.40625 23.390625 
Q 47.40625 31.296875 43.53125 35.828125 
Q 39.65625 40.375 33.015625 40.375 
z
M 52.59375 71.296875 
L 52.59375 62.3125 
Q 48.875 64.0625 45.09375 64.984375 
Q 41.3125 65.921875 37.59375 65.921875 
Q 27.828125 65.921875 22.671875 59.328125 
Q 17.53125 52.734375 16.796875 39.40625 
Q 19.671875 43.65625 24.015625 45.921875 
Q 28.375 48.1875 33.59375 48.1875 
Q 44.578125 48.1875 50.953125 41.515625 
Q 57.328125 34.859375 57.328125 23.390625 
Q 57.328125 12.15625 50.6875 5.359375 
Q 44.046875 -1.421875 33.015625 -1.421875 
Q 20.359375 -1.421875 13.671875 8.265625 
Q 6.984375 17.96875 6.984375 36.375 
Q 6.984375 53.65625 15.1875 63.9375 
Q 23.390625 74.21875 37.203125 74.21875 
Q 40.921875 74.21875 44.703125 73.484375 
Q 48.484375 72.75 52.59375 71.296875 
z
" id="DejaVuSans-36"/>
      </defs>
      <g transform="translate(350.332264 527.238438)scale(0.1 -0.1)">
       <use xlink:href="#DejaVuSans-36"/>
      </g>
     </g>
    </g>
    <g id="xtick_5">
     <g id="line2d_5">
      <g>
       <use style="stroke:#000000;stroke-width:0.8;" x="433.945946" xlink:href="#m5be55a3389" y="512.64"/>
      </g>
     </g>
     <g id="text_5">
      <!-- 8 -->
      <defs>
       <path d="M 31.78125 34.625 
Q 24.75 34.625 20.71875 30.859375 
Q 16.703125 27.09375 16.703125 20.515625 
Q 16.703125 13.921875 20.71875 10.15625 
Q 24.75 6.390625 31.78125 6.390625 
Q 38.8125 6.390625 42.859375 10.171875 
Q 46.921875 13.96875 46.921875 20.515625 
Q 46.921875 27.09375 42.890625 30.859375 
Q 38.875 34.625 31.78125 34.625 
z
M 21.921875 38.8125 
Q 15.578125 40.375 12.03125 44.71875 
Q 8.5 49.078125 8.5 55.328125 
Q 8.5 64.0625 14.71875 69.140625 
Q 20.953125 74.21875 31.78125 74.21875 
Q 42.671875 74.21875 48.875 69.140625 
Q 55.078125 64.0625 55.078125 55.328125 
Q 55.078125 49.078125 51.53125 44.71875 
Q 48 40.375 41.703125 38.8125 
Q 48.828125 37.15625 52.796875 32.3125 
Q 56.78125 27.484375 56.78125 20.515625 
Q 56.78125 9.90625 50.3125 4.234375 
Q 43.84375 -1.421875 31.78125 -1.421875 
Q 19.734375 -1.421875 13.25 4.234375 
Q 6.78125 9.90625 6.78125 20.515625 
Q 6.78125 27.484375 10.78125 32.3125 
Q 14.796875 37.15625 21.921875 38.8125 
z
M 18.3125 54.390625 
Q 18.3125 48.734375 21.84375 45.5625 
Q 25.390625 42.390625 31.78125 42.390625 
Q 38.140625 42.390625 41.71875 45.5625 
Q 45.3125 48.734375 45.3125 54.390625 
Q 45.3125 60.0625 41.71875 63.234375 
Q 38.140625 66.40625 31.78125 66.40625 
Q 25.390625 66.40625 21.84375 63.234375 
Q 18.3125 60.0625 18.3125 54.390625 
z
" id="DejaVuSans-38"/>
      </defs>
      <g transform="translate(430.764696 527.238438)scale(0.1 -0.1)">
       <use xlink:href="#DejaVuSans-38"/>
      </g>
     </g>
    </g>
    <g id="xtick_6">
     <g id="line2d_6">
      <g>
       <use style="stroke:#000000;stroke-width:0.8;" x="514.378378" xlink:href="#m5be55a3389" y="512.64"/>
      </g>
     </g>
     <g id="text_6">
      <!-- 10 -->
      <defs>
       <path d="M 12.40625 8.296875 
L 28.515625 8.296875 
L 28.515625 63.921875 
L 10.984375 60.40625 
L 10.984375 69.390625 
L 28.421875 72.90625 
L 38.28125 72.90625 
L 38.28125 8.296875 
L 54.390625 8.296875 
L 54.390625 0 
L 12.40625 0 
z
" id="DejaVuSans-31"/>
      </defs>
      <g transform="translate(508.015878 527.238438)scale(0.1 -0.1)">
       <use xlink:href="#DejaVuSans-31"/>
       <use x="63.623047" xlink:href="#DejaVuSans-30"/>
      </g>
     </g>
    </g>
   </g>
   <g id="matplotlib.axis_2">
    <g id="ytick_1">
     <g id="line2d_7">
      <defs>
       <path d="M 0 0 
L -3.5 0 
" id="m5aa882e032" style="stroke:#000000;stroke-width:0.8;"/>
      </defs>
      <g>
       <use style="stroke:#000000;stroke-width:0.8;" x="72" xlink:href="#m5aa882e032" y="473.863784"/>
      </g>
     </g>
     <g id="text_7">
      <!-- 0 -->
      <g transform="translate(58.6375 477.663003)scale(0.1 -0.1)">
       <use xlink:href="#DejaVuSans-30"/>
      </g>
     </g>
    </g>
    <g id="ytick_2">
     <g id="line2d_8">
      <g>
       <use style="stroke:#000000;stroke-width:0.8;" x="72" xlink:href="#m5aa882e032" y="393.431351"/>
      </g>
     </g>
     <g id="text_8">
      <!-- 2 -->
      <g transform="translate(58.6375 397.23057)scale(0.1 -0.1)">
       <use xlink:href="#DejaVuSans-32"/>
      </g>
     </g>
    </g>
    <g id="ytick_3">
     <g id="line2d_9">
      <g>
       <use style="stroke:#000000;stroke-width:0.8;" x="72" xlink:href="#m5aa882e032" y="312.998919"/>
      </g>
     </g>
     <g id="text_9">
      <!-- 4 -->
      <g transform="translate(58.6375 316.798138)scale(0.1 -0.1)">
       <use xlink:href="#DejaVuSans-34"/>
      </g>
     </g>
    </g>
    <g id="ytick_4">
     <g id="line2d_10">
      <g>
       <use style="stroke:#000000;stroke-width:0.8;" x="72" xlink:href="#m5aa882e032" y="232.566486"/>
      </g>
     </g>
     <g id="text_10">
      <!-- 6 -->
      <g transform="translate(58.6375 236.365705)scale(0.1 -0.1)">
       <use xlink:href="#DejaVuSans-36"/>
      </g>
     </g>
    </g>
    <g id="ytick_5">
     <g id="line2d_11">
      <g>
       <use style="stroke:#000000;stroke-width:0.8;" x="72" xlink:href="#m5aa882e032" y="152.134054"/>
      </g>
     </g>
     <g id="text_11">
      <!-- 8 -->
      <g transform="translate(58.6375 155.933273)scale(0.1 -0.1)">
       <use xlink:href="#DejaVuSans-38"/>
      </g>
     </g>
    </g>
    <g id="ytick_6">
     <g id="line2d_12">
      <g>
       <use style="stroke:#000000;stroke-width:0.8;" x="72" xlink:href="#m5aa882e032" y="71.701622"/>
      </g>
     </g>
     <g id="text_12">
      <!-- 10 -->
      <g transform="translate(52.275 75.50084)scale(0.1 -0.1)">
       <use xlink:href="#DejaVuSans-31"/>
       <use x="63.623047" xlink:href="#DejaVuSans-30"/>
      </g>
     </g>
    </g>
   </g>
   <g id="line2d_13">
    <path clip-path="url(#p6c3df3a373)" d="M 140.367568 389.40973 
" style="fill:none;stroke:#1f77b4;stroke-linecap:square;stroke-width:1.5;"/>
    <defs>
     <path d="M -5 5 
L 5 5 
L 5 -5 
L -5 -5 
z
" id="m5661ecee97" style="stroke:#8000ff;stroke-linejoin:miter;"/>
    </defs>
    <g clip-path="url(#p6c3df3a373)">
     <use style="fill:#8000ff;stroke:#8000ff;stroke-linejoin:miter;" x="140.367568" xlink:href="#m5661ecee97" y="389.40973"/>
    </g>
   </g>
   <g id="line2d_14">
    <path clip-path="url(#p6c3df3a373)" d="M 393.72973 192.35027 
" style="fill:none;stroke:#ff7f0e;stroke-linecap:square;stroke-width:1.5;"/>
    <defs>
     <path d="M 0 -5 
L -4.755283 -1.545085 
L -2.938926 4.045085 
L 2.938926 4.045085 
L 4.755283 -1.545085 
z
" id="m496ab9ee76" style="stroke:#8000ff;stroke-linejoin:miter;"/>
    </defs>
    <g clip-path="url(#p6c3df3a373)">
     <use style="fill:#8000ff;stroke:#8000ff;stroke-linejoin:miter;" x="393.72973" xlink:href="#m496ab9ee76" y="192.35027"/>
    </g>
   </g>
   <g id="line2d_15">
    <path clip-path="url(#p6c3df3a373)" d="M 450.032432 192.35027 
" style="fill:none;stroke:#2ca02c;stroke-linecap:square;stroke-width:1.5;"/>
    <defs>
     <path d="M -5 5 
L 5 5 
L 5 -5 
L -5 -5 
z
" id="m752fed3ba5" style="stroke:#4757fb;stroke-linejoin:miter;"/>
    </defs>
    <g clip-path="url(#p6c3df3a373)">
     <use style="fill:#4757fb;stroke:#4757fb;stroke-linejoin:miter;" x="450.032432" xlink:href="#m752fed3ba5" y="192.35027"/>
    </g>
   </g>
   <g id="line2d_16">
    <path clip-path="url(#p6c3df3a373)" d="M 224.821622 361.258378 
" style="fill:none;stroke:#d62728;stroke-linecap:square;stroke-width:1.5;"/>
    <defs>
     <path d="M 0 -5 
L -4.755283 -1.545085 
L -2.938926 4.045085 
L 2.938926 4.045085 
L 4.755283 -1.545085 
z
" id="mafb2ba1581" style="stroke:#4757fb;stroke-linejoin:miter;"/>
    </defs>
    <g clip-path="url(#p6c3df3a373)">
     <use style="fill:#4757fb;stroke:#4757fb;stroke-linejoin:miter;" x="224.821622" xlink:href="#mafb2ba1581" y="361.258378"/>
    </g>
   </g>
   <g id="line2d_17">
    <path clip-path="url(#p6c3df3a373)" d="M 402.175135 440.082162 
" style="fill:none;stroke:#9467bd;stroke-linecap:square;stroke-width:1.5;"/>
    <defs>
     <path d="M -5 5 
L 5 5 
L 5 -5 
L -5 -5 
z
" id="m3b5973207e" style="stroke:#0ea4f0;stroke-linejoin:miter;"/>
    </defs>
    <g clip-path="url(#p6c3df3a373)">
     <use style="fill:#0ea4f0;stroke:#0ea4f0;stroke-linejoin:miter;" x="402.175135" xlink:href="#m3b5973207e" y="440.082162"/>
    </g>
   </g>
   <g id="line2d_18">
    <path clip-path="url(#p6c3df3a373)" d="M 224.821622 192.35027 
" style="fill:none;stroke:#8c564b;stroke-linecap:square;stroke-width:1.5;"/>
    <defs>
     <path d="M 0 -5 
L -4.755283 -1.545085 
L -2.938926 4.045085 
L 2.938926 4.045085 
L 4.755283 -1.545085 
z
" id="m57b22ddda6" style="stroke:#0ea4f0;stroke-linejoin:miter;"/>
    </defs>
    <g clip-path="url(#p6c3df3a373)">
     <use style="fill:#0ea4f0;stroke:#0ea4f0;stroke-linejoin:miter;" x="224.821622" xlink:href="#m57b22ddda6" y="192.35027"/>
    </g>
   </g>
   <g id="line2d_19">
    <path clip-path="url(#p6c3df3a373)" d="M 224.821622 136.047568 
" style="fill:none;stroke:#e377c2;stroke-linecap:square;stroke-width:1.5;"/>
    <defs>
     <path d="M -5 5 
L 5 5 
L 5 -5 
L -5 -5 
z
" id="mdf34867c06" style="stroke:#2adddd;stroke-linejoin:miter;"/>
    </defs>
    <g clip-path="url(#p6c3df3a373)">
     <use style="fill:#2adddd;stroke:#2adddd;stroke-linejoin:miter;" x="224.821622" xlink:href="#mdf34867c06" y="136.047568"/>
    </g>
   </g>
   <g id="line2d_20">
    <path clip-path="url(#p6c3df3a373)" d="M 393.72973 361.258378 
" style="fill:none;stroke:#7f7f7f;stroke-linecap:square;stroke-width:1.5;"/>
    <defs>
     <path d="M 0 -5 
L -4.755283 -1.545085 
L -2.938926 4.045085 
L 2.938926 4.045085 
L 4.755283 -1.545085 
z
" id="ma6235186c9" style="stroke:#2adddd;stroke-linejoin:miter;"/>
    </defs>
    <g clip-path="url(#p6c3df3a373)">
     <use style="fill:#2adddd;stroke:#2adddd;stroke-linejoin:miter;" x="393.72973" xlink:href="#ma6235186c9" y="361.258378"/>
    </g>
   </g>
   <g id="line2d_21">
    <path clip-path="url(#p6c3df3a373)" d="M 450.032432 304.955676 
" style="fill:none;stroke:#bcbd22;stroke-linecap:square;stroke-width:1.5;"/>
    <defs>
     <path d="M -5 5 
L 5 5 
L 5 -5 
L -5 -5 
z
" id="m6aef85d536" style="stroke:#63fbc3;stroke-linejoin:miter;"/>
    </defs>
    <g clip-path="url(#p6c3df3a373)">
     <use style="fill:#63fbc3;stroke:#63fbc3;stroke-linejoin:miter;" x="450.032432" xlink:href="#m6aef85d536" y="304.955676"/>
    </g>
   </g>
   <g id="line2d_22">
    <path clip-path="url(#p6c3df3a373)" d="M 196.67027 248.652973 
" style="fill:none;stroke:#17becf;stroke-linecap:square;stroke-width:1.5;"/>
    <defs>
     <path d="M 0 -5 
L -4.755283 -1.545085 
L -2.938926 4.045085 
L 2.938926 4.045085 
L 4.755283 -1.545085 
z
" id="me3279363f4" style="stroke:#63fbc3;stroke-linejoin:miter;"/>
    </defs>
    <g clip-path="url(#p6c3df3a373)">
     <use style="fill:#63fbc3;stroke:#63fbc3;stroke-linejoin:miter;" x="196.67027" xlink:href="#me3279363f4" y="248.652973"/>
    </g>
   </g>
   <g id="line2d_23">
    <path clip-path="url(#p6c3df3a373)" d="M 140.367568 248.652973 
" style="fill:none;stroke:#1f77b4;stroke-linecap:square;stroke-width:1.5;"/>
    <defs>
     <path d="M -5 5 
L 5 5 
L 5 -5 
L -5 -5 
z
" id="m6e7217f9eb" style="stroke:#9cfba4;stroke-linejoin:miter;"/>
    </defs>
    <g clip-path="url(#p6c3df3a373)">
     <use style="fill:#9cfba4;stroke:#9cfba4;stroke-linejoin:miter;" x="140.367568" xlink:href="#m6e7217f9eb" y="248.652973"/>
    </g>
   </g>
   <g id="line2d_24">
    <path clip-path="url(#p6c3df3a373)" d="M 393.72973 276.804324 
" style="fill:none;stroke:#ff7f0e;stroke-linecap:square;stroke-width:1.5;"/>
    <defs>
     <path d="M 0 -5 
L -4.755283 -1.545085 
L -2.938926 4.045085 
L 2.938926 4.045085 
L 4.755283 -1.545085 
z
" id="m2c229a502f" style="stroke:#9cfba4;stroke-linejoin:miter;"/>
    </defs>
    <g clip-path="url(#p6c3df3a373)">
     <use style="fill:#9cfba4;stroke:#9cfba4;stroke-linejoin:miter;" x="393.72973" xlink:href="#m2c229a502f" y="276.804324"/>
    </g>
   </g>
   <g id="line2d_25">
    <path clip-path="url(#p6c3df3a373)" d="M 281.124324 192.35027 
" style="fill:none;stroke:#2ca02c;stroke-linecap:square;stroke-width:1.5;"/>
    <defs>
     <path d="M -5 5 
L 5 5 
L 5 -5 
L -5 -5 
z
" id="m336bf97bc6" style="stroke:#d4dd80;stroke-linejoin:miter;"/>
    </defs>
    <g clip-path="url(#p6c3df3a373)">
     <use style="fill:#d4dd80;stroke:#d4dd80;stroke-linejoin:miter;" x="281.124324" xlink:href="#m336bf97bc6" y="192.35027"/>
    </g>
   </g>
   <g id="line2d_26">
    <path clip-path="url(#p6c3df3a373)" d="M 281.124324 333.107027 
" style="fill:none;stroke:#d62728;stroke-linecap:square;stroke-width:1.5;"/>
    <defs>
     <path d="M 0 -5 
L -4.755283 -1.545085 
L -2.938926 4.045085 
L 2.938926 4.045085 
L 4.755283 -1.545085 
z
" id="mc8ade4c49a" style="stroke:#d4dd80;stroke-linejoin:miter;"/>
    </defs>
    <g clip-path="url(#p6c3df3a373)">
     <use style="fill:#d4dd80;stroke:#d4dd80;stroke-linejoin:miter;" x="281.124324" xlink:href="#mc8ade4c49a" y="333.107027"/>
    </g>
   </g>
   <g id="line2d_27">
    <path clip-path="url(#p6c3df3a373)" d="M 140.367568 304.955676 
" style="fill:none;stroke:#9467bd;stroke-linecap:square;stroke-width:1.5;"/>
    <defs>
     <path d="M -5 5 
L 5 5 
L 5 -5 
L -5 -5 
z
" id="ma826591a3c" style="stroke:#ffa457;stroke-linejoin:miter;"/>
    </defs>
    <g clip-path="url(#p6c3df3a373)">
     <use style="fill:#ffa457;stroke:#ffa457;stroke-linejoin:miter;" x="140.367568" xlink:href="#ma826591a3c" y="304.955676"/>
    </g>
   </g>
   <g id="line2d_28">
    <path clip-path="url(#p6c3df3a373)" d="M 309.275676 276.804324 
" style="fill:none;stroke:#8c564b;stroke-linecap:square;stroke-width:1.5;"/>
    <defs>
     <path d="M 0 -5 
L -4.755283 -1.545085 
L -2.938926 4.045085 
L 2.938926 4.045085 
L 4.755283 -1.545085 
z
" id="me129ff5639" style="stroke:#ffa457;stroke-linejoin:miter;"/>
    </defs>
    <g clip-path="url(#p6c3df3a373)">
     <use style="fill:#ffa457;stroke:#ffa457;stroke-linejoin:miter;" x="309.275676" xlink:href="#me129ff5639" y="276.804324"/>
    </g>
   </g>
   <g id="line2d_29">
    <path clip-path="url(#p6c3df3a373)" d="M 393.72973 220.501622 
" style="fill:none;stroke:#e377c2;stroke-linecap:square;stroke-width:1.5;"/>
    <defs>
     <path d="M -5 5 
L 5 5 
L 5 -5 
L -5 -5 
z
" id="m1e8b281dc6" style="stroke:#ff572c;stroke-linejoin:miter;"/>
    </defs>
    <g clip-path="url(#p6c3df3a373)">
     <use style="fill:#ff572c;stroke:#ff572c;stroke-linejoin:miter;" x="393.72973" xlink:href="#m1e8b281dc6" y="220.501622"/>
    </g>
   </g>
   <g id="line2d_30">
    <path clip-path="url(#p6c3df3a373)" d="M 140.367568 276.804324 
" style="fill:none;stroke:#7f7f7f;stroke-linecap:square;stroke-width:1.5;"/>
    <defs>
     <path d="M 0 -5 
L -4.755283 -1.545085 
L -2.938926 4.045085 
L 2.938926 4.045085 
L 4.755283 -1.545085 
z
" id="m702f51c46e" style="stroke:#ff572c;stroke-linejoin:miter;"/>
    </defs>
    <g clip-path="url(#p6c3df3a373)">
     <use style="fill:#ff572c;stroke:#ff572c;stroke-linejoin:miter;" x="140.367568" xlink:href="#m702f51c46e" y="276.804324"/>
    </g>
   </g>
   <g id="line2d_31">
    <path clip-path="url(#p6c3df3a373)" d="M 140.367568 136.047568 
" style="fill:none;stroke:#bcbd22;stroke-linecap:square;stroke-width:1.5;"/>
    <defs>
     <path d="M -5 5 
L 5 5 
L 5 -5 
L -5 -5 
z
" id="m23a86912e6" style="stroke:#ff0000;stroke-linejoin:miter;"/>
    </defs>
    <g clip-path="url(#p6c3df3a373)">
     <use style="fill:#ff0000;stroke:#ff0000;stroke-linejoin:miter;" x="140.367568" xlink:href="#m23a86912e6" y="136.047568"/>
    </g>
   </g>
   <g id="line2d_32">
    <path clip-path="url(#p6c3df3a373)" d="M 252.972973 248.652973 
" style="fill:none;stroke:#17becf;stroke-linecap:square;stroke-width:1.5;"/>
    <defs>
     <path d="M 0 -5 
L -4.755283 -1.545085 
L -2.938926 4.045085 
L 2.938926 4.045085 
L 4.755283 -1.545085 
z
" id="ma5b7c0345d" style="stroke:#ff0000;stroke-linejoin:miter;"/>
    </defs>
    <g clip-path="url(#p6c3df3a373)">
     <use style="fill:#ff0000;stroke:#ff0000;stroke-linejoin:miter;" x="252.972973" xlink:href="#ma5b7c0345d" y="248.652973"/>
    </g>
   </g>
   <g id="line2d_33">
    <defs>
     <path d="M 0 2.5 
C 0.663008 2.5 1.29895 2.236584 1.767767 1.767767 
C 2.236584 1.29895 2.5 0.663008 2.5 0 
C 2.5 -0.663008 2.236584 -1.29895 1.767767 -1.767767 
C 1.29895 -2.236584 0.663008 -2.5 0 -2.5 
C -0.663008 -2.5 -1.29895 -2.236584 -1.767767 -1.767767 
C -2.236584 -1.29895 -2.5 -0.663008 -2.5 0 
C -2.5 0.663008 -2.236584 1.29895 -1.767767 1.767767 
C -1.29895 2.236584 -0.663008 2.5 0 2.5 
z
" id="m26d315c5f7" style="stroke:#000000;"/>
    </defs>
    <g clip-path="url(#p6c3df3a373)">
     <use style="stroke:#000000;" x="196.67027" xlink:href="#m26d315c5f7" y="389.40973"/>
     <use style="stroke:#000000;" x="196.67027" xlink:href="#m26d315c5f7" y="333.107027"/>
     <use style="stroke:#000000;" x="252.972973" xlink:href="#m26d315c5f7" y="389.40973"/>
     <use style="stroke:#000000;" x="252.972973" xlink:href="#m26d315c5f7" y="333.107027"/>
     <use style="stroke:#000000;" x="309.275676" xlink:href="#m26d315c5f7" y="389.40973"/>
     <use style="stroke:#000000;" x="309.275676" xlink:href="#m26d315c5f7" y="333.107027"/>
     <use style="stroke:#000000;" x="365.578378" xlink:href="#m26d315c5f7" y="389.40973"/>
     <use style="stroke:#000000;" x="365.578378" xlink:href="#m26d315c5f7" y="333.107027"/>
     <use style="stroke:#000000;" x="421.881081" xlink:href="#m26d315c5f7" y="389.40973"/>
     <use style="stroke:#000000;" x="421.881081" xlink:href="#m26d315c5f7" y="333.107027"/>
     <use style="stroke:#000000;" x="196.67027" xlink:href="#m26d315c5f7" y="220.501622"/>
     <use style="stroke:#000000;" x="196.67027" xlink:href="#m26d315c5f7" y="164.198919"/>
     <use style="stroke:#000000;" x="252.972973" xlink:href="#m26d315c5f7" y="220.501622"/>
     <use style="stroke:#000000;" x="252.972973" xlink:href="#m26d315c5f7" y="164.198919"/>
     <use style="stroke:#000000;" x="309.275676" xlink:href="#m26d315c5f7" y="220.501622"/>
     <use style="stroke:#000000;" x="309.275676" xlink:href="#m26d315c5f7" y="164.198919"/>
     <use style="stroke:#000000;" x="365.578378" xlink:href="#m26d315c5f7" y="220.501622"/>
     <use style="stroke:#000000;" x="365.578378" xlink:href="#m26d315c5f7" y="164.198919"/>
     <use style="stroke:#000000;" x="421.881081" xlink:href="#m26d315c5f7" y="220.501622"/>
     <use style="stroke:#000000;" x="421.881081" xlink:href="#m26d315c5f7" y="164.198919"/>
    </g>
   </g>
   <g id="line2d_34">
    <path clip-path="url(#p6c3df3a373)" d="M 212.354595 389.40973 
L 211.504775 384.317038 
L 209.047406 379.776218 
L 205.248783 376.279339 
L 200.520544 374.205342 
L 195.375069 373.778975 
L 190.369949 375.046444 
L 186.047566 377.870397 
L 182.876319 381.944816 
L 181.19986 386.828175 
L 181.19986 391.991285 
L 182.876319 396.874643 
L 186.047566 400.949062 
L 190.369949 403.773016 
L 195.375069 405.040484 
L 200.520544 404.614118 
L 205.248783 402.54012 
L 209.047406 399.043241 
L 211.504775 394.502422 
L 212.354595 389.40973 
" style="fill:none;stroke:#000000;stroke-dasharray:5.55,2.4;stroke-dashoffset:0;stroke-width:1.5;"/>
   </g>
   <g id="line2d_35">
    <path clip-path="url(#p6c3df3a373)" d="M 201.094054 389.40973 
L 200.854361 387.973329 
L 200.161257 386.692585 
L 199.089851 385.706286 
L 197.756245 385.121313 
L 196.304957 385.001055 
L 194.893257 385.358547 
L 193.674123 386.155046 
L 192.779669 387.304241 
L 192.306821 388.681599 
L 192.306821 390.137861 
L 192.779669 391.515218 
L 193.674123 392.664413 
L 194.893257 393.460913 
L 196.304957 393.818404 
L 197.756245 393.698147 
L 199.089851 393.113173 
L 200.161257 392.126874 
L 200.854361 390.84613 
L 201.094054 389.40973 
" style="fill:none;stroke:#ff0000;stroke-linecap:square;stroke-width:1.5;"/>
   </g>
   <g id="line2d_36">
    <path clip-path="url(#p6c3df3a373)" d="M 212.354595 333.107027 
L 211.504775 328.014335 
L 209.047406 323.473516 
L 205.248783 319.976636 
L 200.520544 317.902639 
L 195.375069 317.476273 
L 190.369949 318.743741 
L 186.047566 321.567695 
L 182.876319 325.642114 
L 181.19986 330.525472 
L 181.19986 335.688582 
L 182.876319 340.57194 
L 186.047566 344.646359 
L 190.369949 347.470313 
L 195.375069 348.737781 
L 200.520544 348.311415 
L 205.248783 346.237418 
L 209.047406 342.740538 
L 211.504775 338.199719 
L 212.354595 333.107027 
" style="fill:none;stroke:#000000;stroke-dasharray:5.55,2.4;stroke-dashoffset:0;stroke-width:1.5;"/>
   </g>
   <g id="line2d_37">
    <path clip-path="url(#p6c3df3a373)" d="M 201.094054 333.107027 
L 200.854361 331.670627 
L 200.161257 330.389883 
L 199.089851 329.403584 
L 197.756245 328.81861 
L 196.304957 328.698353 
L 194.893257 329.055844 
L 193.674123 329.852344 
L 192.779669 331.001539 
L 192.306821 332.378896 
L 192.306821 333.835158 
L 192.779669 335.212515 
L 193.674123 336.361711 
L 194.893257 337.15821 
L 196.304957 337.515701 
L 197.756245 337.395444 
L 199.089851 336.810471 
L 200.161257 335.824171 
L 200.854361 334.543427 
L 201.094054 333.107027 
" style="fill:none;stroke:#ff0000;stroke-linecap:square;stroke-width:1.5;"/>
   </g>
   <g id="line2d_38">
    <path clip-path="url(#p6c3df3a373)" d="M 268.657297 389.40973 
L 267.807477 384.317038 
L 265.350109 379.776218 
L 261.551485 376.279339 
L 256.823247 374.205342 
L 251.677772 373.778975 
L 246.672652 375.046444 
L 242.350269 377.870397 
L 239.179021 381.944816 
L 237.502562 386.828175 
L 237.502562 391.991285 
L 239.179021 396.874643 
L 242.350269 400.949062 
L 246.672652 403.773016 
L 251.677772 405.040484 
L 256.823247 404.614118 
L 261.551485 402.54012 
L 265.350109 399.043241 
L 267.807477 394.502422 
L 268.657297 389.40973 
" style="fill:none;stroke:#000000;stroke-dasharray:5.55,2.4;stroke-dashoffset:0;stroke-width:1.5;"/>
   </g>
   <g id="line2d_39">
    <path clip-path="url(#p6c3df3a373)" d="M 257.396757 389.40973 
L 257.157064 387.973329 
L 256.46396 386.692585 
L 255.392553 385.706286 
L 254.058948 385.121313 
L 252.60766 385.001055 
L 251.195959 385.358547 
L 249.976826 386.155046 
L 249.082371 387.304241 
L 248.609524 388.681599 
L 248.609524 390.137861 
L 249.082371 391.515218 
L 249.976826 392.664413 
L 251.195959 393.460913 
L 252.60766 393.818404 
L 254.058948 393.698147 
L 255.392553 393.113173 
L 256.46396 392.126874 
L 257.157064 390.84613 
L 257.396757 389.40973 
" style="fill:none;stroke:#ff0000;stroke-linecap:square;stroke-width:1.5;"/>
   </g>
   <g id="line2d_40">
    <path clip-path="url(#p6c3df3a373)" d="M 268.657297 333.107027 
L 267.807477 328.014335 
L 265.350109 323.473516 
L 261.551485 319.976636 
L 256.823247 317.902639 
L 251.677772 317.476273 
L 246.672652 318.743741 
L 242.350269 321.567695 
L 239.179021 325.642114 
L 237.502562 330.525472 
L 237.502562 335.688582 
L 239.179021 340.57194 
L 242.350269 344.646359 
L 246.672652 347.470313 
L 251.677772 348.737781 
L 256.823247 348.311415 
L 261.551485 346.237418 
L 265.350109 342.740538 
L 267.807477 338.199719 
L 268.657297 333.107027 
" style="fill:none;stroke:#000000;stroke-dasharray:5.55,2.4;stroke-dashoffset:0;stroke-width:1.5;"/>
   </g>
   <g id="line2d_41">
    <path clip-path="url(#p6c3df3a373)" d="M 257.396757 333.107027 
L 257.157064 331.670627 
L 256.46396 330.389883 
L 255.392553 329.403584 
L 254.058948 328.81861 
L 252.60766 328.698353 
L 251.195959 329.055844 
L 249.976826 329.852344 
L 249.082371 331.001539 
L 248.609524 332.378896 
L 248.609524 333.835158 
L 249.082371 335.212515 
L 249.976826 336.361711 
L 251.195959 337.15821 
L 252.60766 337.515701 
L 254.058948 337.395444 
L 255.392553 336.810471 
L 256.46396 335.824171 
L 257.157064 334.543427 
L 257.396757 333.107027 
" style="fill:none;stroke:#ff0000;stroke-linecap:square;stroke-width:1.5;"/>
   </g>
   <g id="line2d_42">
    <path clip-path="url(#p6c3df3a373)" d="M 324.96 389.40973 
L 324.11018 384.317038 
L 321.652811 379.776218 
L 317.854188 376.279339 
L 313.12595 374.205342 
L 307.980474 373.778975 
L 302.975354 375.046444 
L 298.652972 377.870397 
L 295.481724 381.944816 
L 293.805265 386.828175 
L 293.805265 391.991285 
L 295.481724 396.874643 
L 298.652972 400.949062 
L 302.975354 403.773016 
L 307.980474 405.040484 
L 313.12595 404.614118 
L 317.854188 402.54012 
L 321.652811 399.043241 
L 324.11018 394.502422 
L 324.96 389.40973 
" style="fill:none;stroke:#000000;stroke-dasharray:5.55,2.4;stroke-dashoffset:0;stroke-width:1.5;"/>
   </g>
   <g id="line2d_43">
    <path clip-path="url(#p6c3df3a373)" d="M 313.699459 389.40973 
L 313.459767 387.973329 
L 312.766663 386.692585 
L 311.695256 385.706286 
L 310.36165 385.121313 
L 308.910363 385.001055 
L 307.498662 385.358547 
L 306.279528 386.155046 
L 305.385074 387.304241 
L 304.912227 388.681599 
L 304.912227 390.137861 
L 305.385074 391.515218 
L 306.279528 392.664413 
L 307.498662 393.460913 
L 308.910363 393.818404 
L 310.36165 393.698147 
L 311.695256 393.113173 
L 312.766663 392.126874 
L 313.459767 390.84613 
L 313.699459 389.40973 
" style="fill:none;stroke:#ff0000;stroke-linecap:square;stroke-width:1.5;"/>
   </g>
   <g id="line2d_44">
    <path clip-path="url(#p6c3df3a373)" d="M 324.96 333.107027 
L 324.11018 328.014335 
L 321.652811 323.473516 
L 317.854188 319.976636 
L 313.12595 317.902639 
L 307.980474 317.476273 
L 302.975354 318.743741 
L 298.652972 321.567695 
L 295.481724 325.642114 
L 293.805265 330.525472 
L 293.805265 335.688582 
L 295.481724 340.57194 
L 298.652972 344.646359 
L 302.975354 347.470313 
L 307.980474 348.737781 
L 313.12595 348.311415 
L 317.854188 346.237418 
L 321.652811 342.740538 
L 324.11018 338.199719 
L 324.96 333.107027 
" style="fill:none;stroke:#000000;stroke-dasharray:5.55,2.4;stroke-dashoffset:0;stroke-width:1.5;"/>
   </g>
   <g id="line2d_45">
    <path clip-path="url(#p6c3df3a373)" d="M 313.699459 333.107027 
L 313.459767 331.670627 
L 312.766663 330.389883 
L 311.695256 329.403584 
L 310.36165 328.81861 
L 308.910363 328.698353 
L 307.498662 329.055844 
L 306.279528 329.852344 
L 305.385074 331.001539 
L 304.912227 332.378896 
L 304.912227 333.835158 
L 305.385074 335.212515 
L 306.279528 336.361711 
L 307.498662 337.15821 
L 308.910363 337.515701 
L 310.36165 337.395444 
L 311.695256 336.810471 
L 312.766663 335.824171 
L 313.459767 334.543427 
L 313.699459 333.107027 
" style="fill:none;stroke:#ff0000;stroke-linecap:square;stroke-width:1.5;"/>
   </g>
   <g id="line2d_46">
    <path clip-path="url(#p6c3df3a373)" d="M 381.262703 389.40973 
L 380.412883 384.317038 
L 377.955514 379.776218 
L 374.156891 376.279339 
L 369.428652 374.205342 
L 364.283177 373.778975 
L 359.278057 375.046444 
L 354.955675 377.870397 
L 351.784427 381.944816 
L 350.107968 386.828175 
L 350.107968 391.991285 
L 351.784427 396.874643 
L 354.955675 400.949062 
L 359.278057 403.773016 
L 364.283177 405.040484 
L 369.428652 404.614118 
L 374.156891 402.54012 
L 377.955514 399.043241 
L 380.412883 394.502422 
L 381.262703 389.40973 
" style="fill:none;stroke:#000000;stroke-dasharray:5.55,2.4;stroke-dashoffset:0;stroke-width:1.5;"/>
   </g>
   <g id="line2d_47">
    <path clip-path="url(#p6c3df3a373)" d="M 370.002162 389.40973 
L 369.762469 387.973329 
L 369.069365 386.692585 
L 367.997959 385.706286 
L 366.664353 385.121313 
L 365.213065 385.001055 
L 363.801365 385.358547 
L 362.582231 386.155046 
L 361.687777 387.304241 
L 361.214929 388.681599 
L 361.214929 390.137861 
L 361.687777 391.515218 
L 362.582231 392.664413 
L 363.801365 393.460913 
L 365.213065 393.818404 
L 366.664353 393.698147 
L 367.997959 393.113173 
L 369.069365 392.126874 
L 369.762469 390.84613 
L 370.002162 389.40973 
" style="fill:none;stroke:#ff0000;stroke-linecap:square;stroke-width:1.5;"/>
   </g>
   <g id="line2d_48">
    <path clip-path="url(#p6c3df3a373)" d="M 381.262703 333.107027 
L 380.412883 328.014335 
L 377.955514 323.473516 
L 374.156891 319.976636 
L 369.428652 317.902639 
L 364.283177 317.476273 
L 359.278057 318.743741 
L 354.955675 321.567695 
L 351.784427 325.642114 
L 350.107968 330.525472 
L 350.107968 335.688582 
L 351.784427 340.57194 
L 354.955675 344.646359 
L 359.278057 347.470313 
L 364.283177 348.737781 
L 369.428652 348.311415 
L 374.156891 346.237418 
L 377.955514 342.740538 
L 380.412883 338.199719 
L 381.262703 333.107027 
" style="fill:none;stroke:#000000;stroke-dasharray:5.55,2.4;stroke-dashoffset:0;stroke-width:1.5;"/>
   </g>
   <g id="line2d_49">
    <path clip-path="url(#p6c3df3a373)" d="M 370.002162 333.107027 
L 369.762469 331.670627 
L 369.069365 330.389883 
L 367.997959 329.403584 
L 366.664353 328.81861 
L 365.213065 328.698353 
L 363.801365 329.055844 
L 362.582231 329.852344 
L 361.687777 331.001539 
L 361.214929 332.378896 
L 361.214929 333.835158 
L 361.687777 335.212515 
L 362.582231 336.361711 
L 363.801365 337.15821 
L 365.213065 337.515701 
L 366.664353 337.395444 
L 367.997959 336.810471 
L 369.069365 335.824171 
L 369.762469 334.543427 
L 370.002162 333.107027 
" style="fill:none;stroke:#ff0000;stroke-linecap:square;stroke-width:1.5;"/>
   </g>
   <g id="line2d_50">
    <path clip-path="url(#p6c3df3a373)" d="M 437.565405 389.40973 
L 436.715585 384.317038 
L 434.258217 379.776218 
L 430.459593 376.279339 
L 425.731355 374.205342 
L 420.58588 373.778975 
L 415.58076 375.046444 
L 411.258377 377.870397 
L 408.08713 381.944816 
L 406.41067 386.828175 
L 406.41067 391.991285 
L 408.08713 396.874643 
L 411.258377 400.949062 
L 415.58076 403.773016 
L 420.58588 405.040484 
L 425.731355 404.614118 
L 430.459593 402.54012 
L 434.258217 399.043241 
L 436.715585 394.502422 
L 437.565405 389.40973 
" style="fill:none;stroke:#000000;stroke-dasharray:5.55,2.4;stroke-dashoffset:0;stroke-width:1.5;"/>
   </g>
   <g id="line2d_51">
    <path clip-path="url(#p6c3df3a373)" d="M 426.304865 389.40973 
L 426.065172 387.973329 
L 425.372068 386.692585 
L 424.300661 385.706286 
L 422.967056 385.121313 
L 421.515768 385.001055 
L 420.104067 385.358547 
L 418.884934 386.155046 
L 417.990479 387.304241 
L 417.517632 388.681599 
L 417.517632 390.137861 
L 417.990479 391.515218 
L 418.884934 392.664413 
L 420.104067 393.460913 
L 421.515768 393.818404 
L 422.967056 393.698147 
L 424.300661 393.113173 
L 425.372068 392.126874 
L 426.065172 390.84613 
L 426.304865 389.40973 
" style="fill:none;stroke:#ff0000;stroke-linecap:square;stroke-width:1.5;"/>
   </g>
   <g id="line2d_52">
    <path clip-path="url(#p6c3df3a373)" d="M 437.565405 333.107027 
L 436.715585 328.014335 
L 434.258217 323.473516 
L 430.459593 319.976636 
L 425.731355 317.902639 
L 420.58588 317.476273 
L 415.58076 318.743741 
L 411.258377 321.567695 
L 408.08713 325.642114 
L 406.41067 330.525472 
L 406.41067 335.688582 
L 408.08713 340.57194 
L 411.258377 344.646359 
L 415.58076 347.470313 
L 420.58588 348.737781 
L 425.731355 348.311415 
L 430.459593 346.237418 
L 434.258217 342.740538 
L 436.715585 338.199719 
L 437.565405 333.107027 
" style="fill:none;stroke:#000000;stroke-dasharray:5.55,2.4;stroke-dashoffset:0;stroke-width:1.5;"/>
   </g>
   <g id="line2d_53">
    <path clip-path="url(#p6c3df3a373)" d="M 426.304865 333.107027 
L 426.065172 331.670627 
L 425.372068 330.389883 
L 424.300661 329.403584 
L 422.967056 328.81861 
L 421.515768 328.698353 
L 420.104067 329.055844 
L 418.884934 329.852344 
L 417.990479 331.001539 
L 417.517632 332.378896 
L 417.517632 333.835158 
L 417.990479 335.212515 
L 418.884934 336.361711 
L 420.104067 337.15821 
L 421.515768 337.515701 
L 422.967056 337.395444 
L 424.300661 336.810471 
L 425.372068 335.824171 
L 426.065172 334.543427 
L 426.304865 333.107027 
" style="fill:none;stroke:#ff0000;stroke-linecap:square;stroke-width:1.5;"/>
   </g>
   <g id="line2d_54">
    <path clip-path="url(#p6c3df3a373)" d="M 212.354595 220.501622 
L 211.504775 215.40893 
L 209.047406 210.86811 
L 205.248783 207.371231 
L 200.520544 205.297233 
L 195.375069 204.870867 
L 190.369949 206.138336 
L 186.047566 208.962289 
L 182.876319 213.036708 
L 181.19986 217.920067 
L 181.19986 223.083177 
L 182.876319 227.966535 
L 186.047566 232.040954 
L 190.369949 234.864907 
L 195.375069 236.132376 
L 200.520544 235.70601 
L 205.248783 233.632012 
L 209.047406 230.135133 
L 211.504775 225.594313 
L 212.354595 220.501622 
" style="fill:none;stroke:#000000;stroke-dasharray:5.55,2.4;stroke-dashoffset:0;stroke-width:1.5;"/>
   </g>
   <g id="line2d_55">
    <path clip-path="url(#p6c3df3a373)" d="M 201.094054 220.501622 
L 200.854361 219.065221 
L 200.161257 217.784477 
L 199.089851 216.798178 
L 197.756245 216.213204 
L 196.304957 216.092947 
L 194.893257 216.450438 
L 193.674123 217.246938 
L 192.779669 218.396133 
L 192.306821 219.773491 
L 192.306821 221.229753 
L 192.779669 222.60711 
L 193.674123 223.756305 
L 194.893257 224.552805 
L 196.304957 224.910296 
L 197.756245 224.790039 
L 199.089851 224.205065 
L 200.161257 223.218766 
L 200.854361 221.938022 
L 201.094054 220.501622 
" style="fill:none;stroke:#ff0000;stroke-linecap:square;stroke-width:1.5;"/>
   </g>
   <g id="line2d_56">
    <path clip-path="url(#p6c3df3a373)" d="M 212.354595 164.198919 
L 211.504775 159.106227 
L 209.047406 154.565408 
L 205.248783 151.068528 
L 200.520544 148.994531 
L 195.375069 148.568165 
L 190.369949 149.835633 
L 186.047566 152.659586 
L 182.876319 156.734006 
L 181.19986 161.617364 
L 181.19986 166.780474 
L 182.876319 171.663832 
L 186.047566 175.738251 
L 190.369949 178.562205 
L 195.375069 179.829673 
L 200.520544 179.403307 
L 205.248783 177.329309 
L 209.047406 173.83243 
L 211.504775 169.291611 
L 212.354595 164.198919 
" style="fill:none;stroke:#000000;stroke-dasharray:5.55,2.4;stroke-dashoffset:0;stroke-width:1.5;"/>
   </g>
   <g id="line2d_57">
    <path clip-path="url(#p6c3df3a373)" d="M 201.094054 164.198919 
L 200.854361 162.762519 
L 200.161257 161.481775 
L 199.089851 160.495475 
L 197.756245 159.910502 
L 196.304957 159.790245 
L 194.893257 160.147736 
L 193.674123 160.944235 
L 192.779669 162.093431 
L 192.306821 163.470788 
L 192.306821 164.92705 
L 192.779669 166.304407 
L 193.674123 167.453602 
L 194.893257 168.250102 
L 196.304957 168.607593 
L 197.756245 168.487336 
L 199.089851 167.902362 
L 200.161257 166.916063 
L 200.854361 165.635319 
L 201.094054 164.198919 
" style="fill:none;stroke:#ff0000;stroke-linecap:square;stroke-width:1.5;"/>
   </g>
   <g id="line2d_58">
    <path clip-path="url(#p6c3df3a373)" d="M 268.657297 220.501622 
L 267.807477 215.40893 
L 265.350109 210.86811 
L 261.551485 207.371231 
L 256.823247 205.297233 
L 251.677772 204.870867 
L 246.672652 206.138336 
L 242.350269 208.962289 
L 239.179021 213.036708 
L 237.502562 217.920067 
L 237.502562 223.083177 
L 239.179021 227.966535 
L 242.350269 232.040954 
L 246.672652 234.864907 
L 251.677772 236.132376 
L 256.823247 235.70601 
L 261.551485 233.632012 
L 265.350109 230.135133 
L 267.807477 225.594313 
L 268.657297 220.501622 
" style="fill:none;stroke:#000000;stroke-dasharray:5.55,2.4;stroke-dashoffset:0;stroke-width:1.5;"/>
   </g>
   <g id="line2d_59">
    <path clip-path="url(#p6c3df3a373)" d="M 257.396757 220.501622 
L 257.157064 219.065221 
L 256.46396 217.784477 
L 255.392553 216.798178 
L 254.058948 216.213204 
L 252.60766 216.092947 
L 251.195959 216.450438 
L 249.976826 217.246938 
L 249.082371 218.396133 
L 248.609524 219.773491 
L 248.609524 221.229753 
L 249.082371 222.60711 
L 249.976826 223.756305 
L 251.195959 224.552805 
L 252.60766 224.910296 
L 254.058948 224.790039 
L 255.392553 224.205065 
L 256.46396 223.218766 
L 257.157064 221.938022 
L 257.396757 220.501622 
" style="fill:none;stroke:#ff0000;stroke-linecap:square;stroke-width:1.5;"/>
   </g>
   <g id="line2d_60">
    <path clip-path="url(#p6c3df3a373)" d="M 268.657297 164.198919 
L 267.807477 159.106227 
L 265.350109 154.565408 
L 261.551485 151.068528 
L 256.823247 148.994531 
L 251.677772 148.568165 
L 246.672652 149.835633 
L 242.350269 152.659586 
L 239.179021 156.734006 
L 237.502562 161.617364 
L 237.502562 166.780474 
L 239.179021 171.663832 
L 242.350269 175.738251 
L 246.672652 178.562205 
L 251.677772 179.829673 
L 256.823247 179.403307 
L 261.551485 177.329309 
L 265.350109 173.83243 
L 267.807477 169.291611 
L 268.657297 164.198919 
" style="fill:none;stroke:#000000;stroke-dasharray:5.55,2.4;stroke-dashoffset:0;stroke-width:1.5;"/>
   </g>
   <g id="line2d_61">
    <path clip-path="url(#p6c3df3a373)" d="M 257.396757 164.198919 
L 257.157064 162.762519 
L 256.46396 161.481775 
L 255.392553 160.495475 
L 254.058948 159.910502 
L 252.60766 159.790245 
L 251.195959 160.147736 
L 249.976826 160.944235 
L 249.082371 162.093431 
L 248.609524 163.470788 
L 248.609524 164.92705 
L 249.082371 166.304407 
L 249.976826 167.453602 
L 251.195959 168.250102 
L 252.60766 168.607593 
L 254.058948 168.487336 
L 255.392553 167.902362 
L 256.46396 166.916063 
L 257.157064 165.635319 
L 257.396757 164.198919 
" style="fill:none;stroke:#ff0000;stroke-linecap:square;stroke-width:1.5;"/>
   </g>
   <g id="line2d_62">
    <path clip-path="url(#p6c3df3a373)" d="M 324.96 220.501622 
L 324.11018 215.40893 
L 321.652811 210.86811 
L 317.854188 207.371231 
L 313.12595 205.297233 
L 307.980474 204.870867 
L 302.975354 206.138336 
L 298.652972 208.962289 
L 295.481724 213.036708 
L 293.805265 217.920067 
L 293.805265 223.083177 
L 295.481724 227.966535 
L 298.652972 232.040954 
L 302.975354 234.864907 
L 307.980474 236.132376 
L 313.12595 235.70601 
L 317.854188 233.632012 
L 321.652811 230.135133 
L 324.11018 225.594313 
L 324.96 220.501622 
" style="fill:none;stroke:#000000;stroke-dasharray:5.55,2.4;stroke-dashoffset:0;stroke-width:1.5;"/>
   </g>
   <g id="line2d_63">
    <path clip-path="url(#p6c3df3a373)" d="M 313.699459 220.501622 
L 313.459767 219.065221 
L 312.766663 217.784477 
L 311.695256 216.798178 
L 310.36165 216.213204 
L 308.910363 216.092947 
L 307.498662 216.450438 
L 306.279528 217.246938 
L 305.385074 218.396133 
L 304.912227 219.773491 
L 304.912227 221.229753 
L 305.385074 222.60711 
L 306.279528 223.756305 
L 307.498662 224.552805 
L 308.910363 224.910296 
L 310.36165 224.790039 
L 311.695256 224.205065 
L 312.766663 223.218766 
L 313.459767 221.938022 
L 313.699459 220.501622 
" style="fill:none;stroke:#ff0000;stroke-linecap:square;stroke-width:1.5;"/>
   </g>
   <g id="line2d_64">
    <path clip-path="url(#p6c3df3a373)" d="M 324.96 164.198919 
L 324.11018 159.106227 
L 321.652811 154.565408 
L 317.854188 151.068528 
L 313.12595 148.994531 
L 307.980474 148.568165 
L 302.975354 149.835633 
L 298.652972 152.659586 
L 295.481724 156.734006 
L 293.805265 161.617364 
L 293.805265 166.780474 
L 295.481724 171.663832 
L 298.652972 175.738251 
L 302.975354 178.562205 
L 307.980474 179.829673 
L 313.12595 179.403307 
L 317.854188 177.329309 
L 321.652811 173.83243 
L 324.11018 169.291611 
L 324.96 164.198919 
" style="fill:none;stroke:#000000;stroke-dasharray:5.55,2.4;stroke-dashoffset:0;stroke-width:1.5;"/>
   </g>
   <g id="line2d_65">
    <path clip-path="url(#p6c3df3a373)" d="M 313.699459 164.198919 
L 313.459767 162.762519 
L 312.766663 161.481775 
L 311.695256 160.495475 
L 310.36165 159.910502 
L 308.910363 159.790245 
L 307.498662 160.147736 
L 306.279528 160.944235 
L 305.385074 162.093431 
L 304.912227 163.470788 
L 304.912227 164.92705 
L 305.385074 166.304407 
L 306.279528 167.453602 
L 307.498662 168.250102 
L 308.910363 168.607593 
L 310.36165 168.487336 
L 311.695256 167.902362 
L 312.766663 166.916063 
L 313.459767 165.635319 
L 313.699459 164.198919 
" style="fill:none;stroke:#ff0000;stroke-linecap:square;stroke-width:1.5;"/>
   </g>
   <g id="line2d_66">
    <path clip-path="url(#p6c3df3a373)" d="M 381.262703 220.501622 
L 380.412883 215.40893 
L 377.955514 210.86811 
L 374.156891 207.371231 
L 369.428652 205.297233 
L 364.283177 204.870867 
L 359.278057 206.138336 
L 354.955675 208.962289 
L 351.784427 213.036708 
L 350.107968 217.920067 
L 350.107968 223.083177 
L 351.784427 227.966535 
L 354.955675 232.040954 
L 359.278057 234.864907 
L 364.283177 236.132376 
L 369.428652 235.70601 
L 374.156891 233.632012 
L 377.955514 230.135133 
L 380.412883 225.594313 
L 381.262703 220.501622 
" style="fill:none;stroke:#000000;stroke-dasharray:5.55,2.4;stroke-dashoffset:0;stroke-width:1.5;"/>
   </g>
   <g id="line2d_67">
    <path clip-path="url(#p6c3df3a373)" d="M 370.002162 220.501622 
L 369.762469 219.065221 
L 369.069365 217.784477 
L 367.997959 216.798178 
L 366.664353 216.213204 
L 365.213065 216.092947 
L 363.801365 216.450438 
L 362.582231 217.246938 
L 361.687777 218.396133 
L 361.214929 219.773491 
L 361.214929 221.229753 
L 361.687777 222.60711 
L 362.582231 223.756305 
L 363.801365 224.552805 
L 365.213065 224.910296 
L 366.664353 224.790039 
L 367.997959 224.205065 
L 369.069365 223.218766 
L 369.762469 221.938022 
L 370.002162 220.501622 
" style="fill:none;stroke:#ff0000;stroke-linecap:square;stroke-width:1.5;"/>
   </g>
   <g id="line2d_68">
    <path clip-path="url(#p6c3df3a373)" d="M 381.262703 164.198919 
L 380.412883 159.106227 
L 377.955514 154.565408 
L 374.156891 151.068528 
L 369.428652 148.994531 
L 364.283177 148.568165 
L 359.278057 149.835633 
L 354.955675 152.659586 
L 351.784427 156.734006 
L 350.107968 161.617364 
L 350.107968 166.780474 
L 351.784427 171.663832 
L 354.955675 175.738251 
L 359.278057 178.562205 
L 364.283177 179.829673 
L 369.428652 179.403307 
L 374.156891 177.329309 
L 377.955514 173.83243 
L 380.412883 169.291611 
L 381.262703 164.198919 
" style="fill:none;stroke:#000000;stroke-dasharray:5.55,2.4;stroke-dashoffset:0;stroke-width:1.5;"/>
   </g>
   <g id="line2d_69">
    <path clip-path="url(#p6c3df3a373)" d="M 370.002162 164.198919 
L 369.762469 162.762519 
L 369.069365 161.481775 
L 367.997959 160.495475 
L 366.664353 159.910502 
L 365.213065 159.790245 
L 363.801365 160.147736 
L 362.582231 160.944235 
L 361.687777 162.093431 
L 361.214929 163.470788 
L 361.214929 164.92705 
L 361.687777 166.304407 
L 362.582231 167.453602 
L 363.801365 168.250102 
L 365.213065 168.607593 
L 366.664353 168.487336 
L 367.997959 167.902362 
L 369.069365 166.916063 
L 369.762469 165.635319 
L 370.002162 164.198919 
" style="fill:none;stroke:#ff0000;stroke-linecap:square;stroke-width:1.5;"/>
   </g>
   <g id="line2d_70">
    <path clip-path="url(#p6c3df3a373)" d="M 437.565405 220.501622 
L 436.715585 215.40893 
L 434.258217 210.86811 
L 430.459593 207.371231 
L 425.731355 205.297233 
L 420.58588 204.870867 
L 415.58076 206.138336 
L 411.258377 208.962289 
L 408.08713 213.036708 
L 406.41067 217.920067 
L 406.41067 223.083177 
L 408.08713 227.966535 
L 411.258377 232.040954 
L 415.58076 234.864907 
L 420.58588 236.132376 
L 425.731355 235.70601 
L 430.459593 233.632012 
L 434.258217 230.135133 
L 436.715585 225.594313 
L 437.565405 220.501622 
" style="fill:none;stroke:#000000;stroke-dasharray:5.55,2.4;stroke-dashoffset:0;stroke-width:1.5;"/>
   </g>
   <g id="line2d_71">
    <path clip-path="url(#p6c3df3a373)" d="M 426.304865 220.501622 
L 426.065172 219.065221 
L 425.372068 217.784477 
L 424.300661 216.798178 
L 422.967056 216.213204 
L 421.515768 216.092947 
L 420.104067 216.450438 
L 418.884934 217.246938 
L 417.990479 218.396133 
L 417.517632 219.773491 
L 417.517632 221.229753 
L 417.990479 222.60711 
L 418.884934 223.756305 
L 420.104067 224.552805 
L 421.515768 224.910296 
L 422.967056 224.790039 
L 424.300661 224.205065 
L 425.372068 223.218766 
L 426.065172 221.938022 
L 426.304865 220.501622 
" style="fill:none;stroke:#ff0000;stroke-linecap:square;stroke-width:1.5;"/>
   </g>
   <g id="line2d_72">
    <path clip-path="url(#p6c3df3a373)" d="M 437.565405 164.198919 
L 436.715585 159.106227 
L 434.258217 154.565408 
L 430.459593 151.068528 
L 425.731355 148.994531 
L 420.58588 148.568165 
L 415.58076 149.835633 
L 411.258377 152.659586 
L 408.08713 156.734006 
L 406.41067 161.617364 
L 406.41067 166.780474 
L 408.08713 171.663832 
L 411.258377 175.738251 
L 415.58076 178.562205 
L 420.58588 179.829673 
L 425.731355 179.403307 
L 430.459593 177.329309 
L 434.258217 173.83243 
L 436.715585 169.291611 
L 437.565405 164.198919 
" style="fill:none;stroke:#000000;stroke-dasharray:5.55,2.4;stroke-dashoffset:0;stroke-width:1.5;"/>
   </g>
   <g id="line2d_73">
    <path clip-path="url(#p6c3df3a373)" d="M 426.304865 164.198919 
L 426.065172 162.762519 
L 425.372068 161.481775 
L 424.300661 160.495475 
L 422.967056 159.910502 
L 421.515768 159.790245 
L 420.104067 160.147736 
L 418.884934 160.944235 
L 417.990479 162.093431 
L 417.517632 163.470788 
L 417.517632 164.92705 
L 417.990479 166.304407 
L 418.884934 167.453602 
L 420.104067 168.250102 
L 421.515768 168.607593 
L 422.967056 168.487336 
L 424.300661 167.902362 
L 425.372068 166.916063 
L 426.065172 165.635319 
L 426.304865 164.198919 
" style="fill:none;stroke:#ff0000;stroke-linecap:square;stroke-width:1.5;"/>
   </g>
   <g id="line2d_74">
    <path clip-path="url(#p6c3df3a373)" d="M 92.108108 493.971892 
L 92.108108 87.788108 
" style="fill:none;stroke:#000000;stroke-linecap:square;stroke-width:4;"/>
   </g>
   <g id="line2d_75">
    <path clip-path="url(#p6c3df3a373)" d="M 92.108108 87.788108 
L 498.291892 87.788108 
" style="fill:none;stroke:#000000;stroke-linecap:square;stroke-width:4;"/>
   </g>
   <g id="line2d_76">
    <path clip-path="url(#p6c3df3a373)" d="M 498.291892 87.788108 
L 498.291892 493.971892 
" style="fill:none;stroke:#000000;stroke-linecap:square;stroke-width:4;"/>
   </g>
   <g id="line2d_77">
    <path clip-path="url(#p6c3df3a373)" d="M 498.291892 493.971892 
L 92.108108 493.971892 
" style="fill:none;stroke:#000000;stroke-linecap:square;stroke-width:4;"/>
   </g>
   <g id="line2d_78">
    <path clip-path="url(#p6c3df3a373)" d="M 140.367568 389.40973 
L 142.458811 389.329297 
L 144.268541 389.047784 
L 147.485838 387.961946 
L 149.416216 387.077189 
L 152.392216 385.388108 
L 155.488865 383.337081 
L 161.119135 379.235027 
L 165.583135 375.776432 
L 175.476324 367.733189 
L 179.739243 364.033297 
L 185.530378 359.247568 
L 187.380324 358.121514 
L 189.310703 357.116108 
L 192.608432 355.748757 
L 194.498595 355.266162 
L 196.388757 355.024865 
L 209.499243 354.180324 
L 217.462054 353.174919 
L 224.339027 352.048865 
L 229.647568 351.043459 
L 232.864865 350.4 
L 236.645189 349.997838 
L 240.385297 349.796757 
L 244.205838 350.118486 
L 248.428541 350.882595 
L 252.36973 351.686919 
L 256.069622 352.290162 
L 260.010811 352.652108 
L 263.469405 352.692324 
L 267.812757 352.451027 
L 270.869189 351.968432 
L 272.678919 351.56627 
L 274.368 351.365189 
L 276.016865 351.485838 
L 277.384216 351.888 
L 278.389622 352.491243 
L 281.164541 354.421622 
L 282.773189 355.346595 
L 284.422054 356.150919 
L 287.639351 357.317189 
L 289.449081 357.759568 
L 293.430486 358.403027 
L 295.2 358.885622 
L 302.800865 361.379027 
L 306.983351 362.062703 
L 308.833297 362.223568 
L 310.40173 362.183351 
L 312.492973 361.942054 
L 316.393946 361.097514 
L 322.064432 359.488865 
L 325.603459 358.443243 
L 327.533838 358.201946 
L 329.424 358.16173 
L 337.145514 358.483459 
L 339.276973 358.362811 
L 341.126919 358.121514 
L 344.424649 357.276973 
L 346.11373 356.593297 
L 349.210378 355.024865 
L 352.628757 353.456432 
L 356.891676 351.244541 
L 358.540541 350.319568 
L 360.35027 349.595676 
L 362.48173 349.113081 
L 364.371892 348.871784 
L 371.610811 348.469622 
L 373.460757 348.268541 
L 376.758486 347.584865 
L 380.860541 346.418595 
L 381.906162 345.775135 
L 382.992 344.890378 
L 384.319135 343.362162 
L 384.520216 343.000216 
L 384.882162 342.075243 
L 386.571243 336.806919 
L 387.214703 335.600432 
L 388.220108 334.434162 
L 388.300541 334.393946 
L 389.024432 334.474378 
L 390.552649 334.916757 
L 395.418811 337.008 
L 397.429622 337.611243 
L 400.124108 338.053622 
L 404.507676 338.335135 
L 405.714162 338.576432 
L 406.8 338.978595 
L 407.96627 339.863351 
L 408.086919 340.30573 
L 407.523892 341.110054 
L 406.035892 342.477405 
L 404.99027 343.161081 
L 403.944649 343.643676 
L 402.818595 344.005622 
L 401.531676 344.246919 
L 400.52627 344.327351 
L 397.027459 344.367568 
L 392.442811 344.809946 
L 390.995027 345.212108 
L 385.284324 347.303351 
L 382.992 347.785946 
L 380.538811 348.067459 
L 377.924757 348.268541 
L 373.018378 348.429405 
L 370.364108 348.469622 
L 367.388108 348.831568 
L 367.629405 348.670703 
L 367.629405 348.630486 
L 367.589189 348.831568 
L 367.508757 349.23373 
L 367.548973 349.434811 
L 367.79027 349.836973 
L 368.594595 350.440216 
L 372.817297 353.174919 
L 375.190054 354.381405 
L 376.838919 355.427027 
L 378.085622 356.271568 
L 380.659459 358.403027 
L 382.067027 359.850811 
L 382.067027 360.49427 
L 381.906162 361.379027 
L 381.544216 362.263784 
L 380.780108 363.068108 
L 380.016 363.510486 
L 378.568216 363.952865 
L 376.758486 364.11373 
L 375.109622 363.993081 
L 373.460757 363.631135 
L 371.932541 363.068108 
L 370.283676 362.223568 
L 368.675027 361.258378 
L 365.779459 359.207351 
L 362.924108 356.754162 
L 360.028541 353.898811 
L 358.942703 352.692324 
L 356.52973 349.434811 
L 353.634162 345.252324 
L 349.250595 339.420973 
L 348.245189 337.932973 
L 347.159351 336.083027 
L 346.314811 334.35373 
L 345.711568 332.825514 
L 345.108324 330.73427 
L 344.786595 329.125622 
L 344.464865 325.908324 
L 344.464865 324.259459 
L 344.585514 322.087784 
L 345.148541 318.347676 
L 346.033297 314.406486 
L 347.078919 310.787027 
L 348.365838 306.966486 
L 350.095135 302.180757 
L 355.443892 288.22573 
L 355.805838 286.416 
L 355.966703 284.364973 
L 355.846054 280.624865 
L 354.559135 265.141622 
L 354.518919 263.211243 
L 354.599351 261.562378 
L 354.840649 259.95373 
L 355.283027 258.103784 
L 356.328649 255.047351 
L 357.696 251.789838 
L 359.50573 248.170378 
L 360.430703 246.56173 
L 361.395892 245.234595 
L 362.642595 243.827027 
L 364.009946 242.499892 
L 366.744649 240.288 
L 368.272865 239.202162 
L 371.289081 237.392432 
L 377.964973 233.974054 
L 381.343135 231.842595 
L 382.790919 230.716541 
L 384.15827 229.469838 
L 386.410378 226.896 
L 388.340757 224.040649 
L 389.868973 220.944 
L 390.633081 218.973405 
L 391.196108 217.203892 
L 391.960216 213.865946 
L 392.885189 207.793297 
L 393.448216 202.203243 
L 393.769946 197.095784 
L 393.850378 195.245838 
L 393.850378 195.245838 
" style="fill:none;stroke:#8000ff;stroke-linecap:square;stroke-width:1.5;"/>
   </g>
   <g id="line2d_79">
    <path clip-path="url(#p6c3df3a373)" d="M 450.032432 192.35027 
L 450.233514 192.430703 
L 450.354162 192.551351 
L 450.555243 193.596973 
L 450.474811 194.883892 
L 450.153081 196.170811 
L 449.429189 197.940324 
L 448.343351 199.79027 
L 447.217297 201.27827 
L 442.592432 206.627027 
L 440.581622 209.723676 
L 438.932757 212.780108 
L 438.128432 214.67027 
L 437.686054 216.15827 
L 437.444757 217.887568 
L 437.404541 219.174486 
L 437.72627 221.185297 
L 438.36973 223.960216 
L 438.731676 225.408 
L 439.053405 228.06227 
L 438.972973 229.590486 
L 438.731676 231.158919 
L 438.289297 232.928432 
L 437.72627 234.456649 
L 436.157838 237.352216 
L 435.072 238.880432 
L 433.463351 240.770595 
L 432.176432 242.09773 
L 429.321081 244.631351 
L 426.345081 246.923676 
L 419.830054 251.186595 
L 411.505297 256.133189 
L 402.979459 261.039568 
L 401.411027 262.406919 
L 398.274162 265.986162 
L 397.067676 267.152432 
L 393.810162 270.932757 
L 391.196108 273.265297 
L 388.139676 275.477189 
L 383.112649 278.614054 
L 376.637838 282.27373 
L 375.190054 283.359568 
L 373.018378 285.732324 
L 370.886919 288.708324 
L 369.760865 289.914811 
L 365.980541 293.614703 
L 363.366486 296.630919 
L 360.873081 299.848216 
L 359.907892 301.416649 
L 356.409081 308.092541 
L 354.076541 311.068541 
L 351.623351 313.923892 
L 348.928865 316.940108 
L 346.797405 319.996541 
L 344.585514 323.052973 
L 343.218162 324.742054 
L 341.689946 326.390919 
L 339.960649 327.75827 
L 336.54227 329.809297 
L 329.906595 333.750486 
L 326.970811 336.123243 
L 325.563243 337.32973 
L 324.075243 338.81773 
L 322.386162 340.949189 
L 321.461189 342.517622 
L 320.134054 345.654486 
L 319.410162 347.424 
L 318.444973 349.354378 
L 317.359135 350.963027 
L 315.227676 353.376 
L 313.820108 354.662919 
L 311.045189 356.432432 
L 309.396324 357.276973 
L 305.776865 359.529081 
L 302.278054 361.580108 
L 292.304432 366.808216 
L 285.548108 370.06573 
L 281.848216 371.714595 
L 278.349405 373.081946 
L 276.378811 373.524324 
L 274.408216 373.564541 
L 272.518054 373.283027 
L 270.668108 372.800432 
L 267.129081 371.392865 
L 257.557622 367.290811 
L 254.501189 366.204973 
L 249.152432 364.596324 
L 245.251459 363.711568 
L 241.833081 363.068108 
L 234.674595 362.062703 
L 229.647568 361.499676 
L 227.757405 361.338811 
L 227.757405 361.338811 
" style="fill:none;stroke:#4757fb;stroke-linecap:square;stroke-width:1.5;"/>
   </g>
   <g id="line2d_80">
    <path clip-path="url(#p6c3df3a373)" d="M 402.175135 440.082162 
L 401.933838 440.162595 
L 402.094703 440.00173 
L 402.295784 439.599568 
L 402.577297 438.755027 
L 402.697946 437.588757 
L 402.496865 435.658378 
L 402.094703 433.929081 
L 401.491459 432.24 
L 399.882811 428.902054 
L 398.032865 425.644541 
L 394.936216 420.979459 
L 388.863568 412.453622 
L 385.927784 408.512432 
L 384.80173 406.62227 
L 383.876757 404.651676 
L 382.831135 401.595243 
L 382.348541 399.745297 
L 381.946378 397.613838 
L 381.785514 396.005189 
L 381.745297 394.074811 
L 381.906162 392.184649 
L 383.514811 382.81427 
L 383.555027 380.964324 
L 383.474595 379.395892 
L 383.233297 377.545946 
L 382.871351 376.01773 
L 381.745297 372.760216 
L 380.136649 369.42227 
L 378.367135 366.44627 
L 375.431351 362.344216 
L 372.937946 359.287784 
L 371.610811 358.041081 
L 369.961946 356.794378 
L 367.026162 354.944432 
L 365.216432 354.019459 
L 363.446919 353.416216 
L 351.542919 350.279351 
L 348.003892 349.072865 
L 344.505081 347.625081 
L 342.856216 346.860973 
L 341.448649 345.936 
L 340.041081 344.689297 
L 338.713946 343.28173 
L 337.507459 341.833946 
L 336.421622 340.30573 
L 334.531459 336.967784 
L 333.767351 335.19827 
L 332.158703 329.809297 
L 330.831568 326.310486 
L 330.107676 324.742054 
L 329.062054 323.29427 
L 327.936 322.168216 
L 326.287135 320.881297 
L 324.96 319.996541 
L 321.260108 317.945514 
L 319.32973 317.060757 
L 315.830919 315.85427 
L 313.980973 315.291243 
L 312.412541 314.567351 
L 311.165838 313.722811 
L 310.321297 312.838054 
L 310.281081 312.234811 
L 310.482162 311.068541 
L 310.844108 309.580541 
L 310.844108 309.660973 
L 310.683243 309.339243 
L 309.919135 308.333838 
L 308.632216 307.248 
L 307.465946 306.725189 
L 306.540973 306.483892 
L 305.495351 306.483892 
L 305.736649 306.323027 
L 305.776865 306.242595 
L 305.736649 306.483892 
L 305.696432 307.489297 
L 305.977946 308.856649 
L 306.540973 310.304432 
L 307.586595 311.792432 
L 308.310486 312.516324 
L 309.959351 313.642378 
L 311.648432 314.205405 
L 313.417946 314.406486 
L 315.227676 314.205405 
L 317.117838 313.441297 
L 318.324324 312.556541 
L 319.32973 311.189189 
L 319.932973 310.063135 
L 320.294919 309.097946 
L 320.536216 307.609946 
L 320.536216 306.202378 
L 320.254703 300.934054 
L 320.093838 295.344 
L 320.335135 293.172324 
L 320.81773 291.040865 
L 321.340541 289.512649 
L 322.104649 287.984432 
L 323.230703 286.456216 
L 324.477405 285.289946 
L 325.000216 285.289946 
L 326.488216 285.611676 
L 328.177297 286.09427 
L 329.062054 286.295351 
L 329.142486 286.536649 
L 328.820757 287.622486 
L 328.137081 288.668108 
L 326.930595 289.874595 
L 325.643676 290.88 
L 323.833946 292.04627 
L 320.294919 293.856 
L 317.077622 295.223351 
L 310.281081 297.877622 
L 306.420324 298.842811 
L 302.96173 299.405838 
L 300.991135 299.647135 
L 298.739027 299.647135 
L 297.130378 299.405838 
L 293.470703 298.480865 
L 283.698162 295.786378 
L 280.400432 294.579892 
L 278.872216 293.936432 
L 276.941838 292.931027 
L 275.333189 291.925622 
L 272.397405 289.552865 
L 268.536649 286.214919 
L 266.968216 285.330162 
L 260.051027 282.555243 
L 252.771892 279.820541 
L 247.664432 278.131459 
L 244.406919 276.844541 
L 240.063568 274.672865 
L 237.369081 272.943568 
L 234.352865 270.731676 
L 231.859459 268.720865 
L 230.813838 267.715459 
L 230.04973 266.75027 
L 229.325838 265.463351 
L 228.722595 264.055784 
L 228.159568 262.205838 
L 227.315027 258.264649 
L 226.872649 254.765838 
L 226.671568 251.226811 
L 226.229189 233.813189 
L 225.545514 223.356973 
L 225.545514 219.77773 
L 225.746595 212.056216 
L 225.706378 208.557405 
L 225.103135 195.165405 
L 225.103135 195.165405 
" style="fill:none;stroke:#0ea4f0;stroke-linecap:square;stroke-width:1.5;"/>
   </g>
   <g id="line2d_81">
    <path clip-path="url(#p6c3df3a373)" d="M 224.821622 136.047568 
L 225.505297 136.087784 
L 227.033514 136.329081 
L 228.481297 136.771459 
L 230.089946 137.455135 
L 231.980108 138.540973 
L 234.755027 140.712649 
L 236.283243 142.08 
L 239.500541 144.412541 
L 242.959135 146.463568 
L 244.326486 147.147243 
L 247.543784 148.35373 
L 249.313297 148.675459 
L 251.364324 148.675459 
L 253.21427 148.35373 
L 258.683676 146.986378 
L 259.890162 146.825514 
L 261.136865 146.825514 
L 262.705297 146.986378 
L 264.675892 147.428757 
L 266.204108 147.991784 
L 268.174703 148.956973 
L 269.783351 149.962378 
L 271.110486 150.927568 
L 272.55827 152.134054 
L 275.051676 154.627459 
L 277.344 157.28173 
L 279.596108 160.297946 
L 281.446054 163.314162 
L 282.97427 166.772757 
L 287.639351 177.872432 
L 291.90227 186.197189 
L 296.044541 193.717622 
L 297.170595 195.487135 
L 298.336865 196.934919 
L 299.583568 198.30227 
L 302.157405 200.554378 
L 303.444324 201.519568 
L 305.012757 202.524973 
L 306.380108 203.248865 
L 307.827892 203.771676 
L 311.004973 204.25427 
L 312.895135 204.455351 
L 315.026595 204.857514 
L 316.876541 205.380324 
L 318.646054 206.104216 
L 320.335135 207.029189 
L 321.903568 208.155243 
L 326.045838 212.016 
L 327.775135 213.101838 
L 335.05427 216.560432 
L 337.990054 218.450595 
L 339.437838 219.697297 
L 340.845405 221.386378 
L 343.98227 226.131892 
L 347.159351 231.118703 
L 348.486486 232.486054 
L 350.014703 233.451243 
L 351.945081 234.094703 
L 355.685189 234.577297 
L 357.736216 235.381622 
L 359.344865 236.507676 
L 360.511135 237.754378 
L 365.216432 243.867243 
L 367.709838 246.642162 
L 368.795676 247.728 
L 371.691243 250.261622 
L 374.345514 253.35827 
L 376.597622 256.374486 
L 378.688865 259.511351 
L 380.458378 262.567784 
L 381.383351 264.538378 
L 382.589838 268.117622 
L 383.514811 272.058811 
L 384.198486 275.758703 
L 385.043027 281.348757 
L 386.370162 292.247351 
L 388.099459 308.333838 
L 388.099459 310.022919 
L 387.858162 311.671784 
L 387.13427 314.527135 
L 386.571243 315.934703 
L 385.726703 317.503135 
L 384.560432 318.991135 
L 383.555027 319.835676 
L 382.428973 320.479135 
L 380.820324 320.800865 
L 379.493189 320.800865 
L 377.924757 320.479135 
L 376.356324 319.916108 
L 374.667243 318.910703 
L 373.380324 317.784649 
L 373.380324 317.784649 
L 373.380324 317.503135 
L 373.943351 316.940108 
L 374.948757 316.417297 
L 378.20627 315.733622 
L 379.171459 315.653189 
L 380.498595 315.733622 
L 382.268108 316.216216 
L 383.675676 316.859676 
L 384.761514 317.623784 
L 387.77773 320.358486 
L 388.823351 321.001946 
L 389.989622 321.524757 
L 391.718919 322.047568 
L 393.488432 322.329081 
L 395.298162 322.369297 
L 396.544865 322.128 
L 397.510054 321.80627 
L 403.180541 319.192216 
L 405.432649 318.588973 
L 407.604324 318.267243 
L 409.373838 318.508541 
L 412.470486 319.312865 
L 413.556324 319.272649 
L 414.682378 318.950919 
L 414.521514 319.111784 
L 414.481297 319.192216 
L 414.481297 319.071568 
L 414.119351 318.146595 
L 413.315027 317.34227 
L 412.832432 317.060757 
L 411.58573 316.779243 
L 410.700973 316.779243 
L 409.776 316.899892 
L 408.730378 317.221622 
L 407.363027 317.865081 
L 406.116324 318.629189 
L 404.909838 319.594378 
L 403.743568 320.680216 
L 402.376216 322.248649 
L 401.290378 323.736649 
L 400.325189 325.305081 
L 399.601297 326.712649 
L 396.987243 333.589622 
L 395.579676 338.415568 
L 395.056865 339.461189 
L 394.373189 340.30573 
L 393.367784 341.110054 
L 392.643892 341.673081 
L 392.643892 341.592649 
L 392.885189 342.316541 
L 393.327568 343.28173 
L 394.172108 344.850162 
L 395.177514 346.378378 
L 397.751351 349.394595 
L 399.03827 350.802162 
L 401.16973 353.536865 
L 401.933838 355.065081 
L 402.175135 355.748757 
L 402.456649 357.51827 
L 402.456649 358.362811 
L 402.336 359.64973 
L 401.692541 362.867027 
L 401.129514 363.993081 
L 400.52627 364.596324 
L 399.802378 365.038703 
L 398.877405 365.400649 
L 397.389405 365.641946 
L 395.861189 365.60173 
L 394.735135 365.320216 
L 393.769946 364.918054 
L 392.844973 364.314811 
L 392.844973 364.314811 
" style="fill:none;stroke:#2adddd;stroke-linecap:square;stroke-width:1.5;"/>
   </g>
   <g id="line2d_82">
    <path clip-path="url(#p6c3df3a373)" d="M 450.032432 304.955676 
L 449.831351 305.036108 
L 449.670486 305.196973 
L 449.670486 305.277405 
L 449.670486 305.036108 
L 449.469405 304.352432 
L 449.067243 303.628541 
L 448.222703 302.743784 
L 447.096649 301.899243 
L 445.769514 301.094919 
L 442.713081 299.687351 
L 440.943568 299.003676 
L 435.072 297.234162 
L 427.511351 295.464649 
L 416.773622 293.172324 
L 403.904432 290.55827 
L 391.558054 288.064865 
L 384.48 286.617081 
L 369.479351 283.600865 
L 362.642595 282.193297 
L 350.256 279.860757 
L 347.923459 279.498811 
L 346.314811 278.935784 
L 344.867027 278.171676 
L 343.13773 276.844541 
L 341.810595 275.477189 
L 339.196541 272.058811 
L 338.794378 271.777297 
L 338.03027 271.455568 
L 336.059676 270.852324 
L 334.089081 270.490378 
L 332.359784 270.490378 
L 330.550054 270.771892 
L 328.499027 271.375135 
L 325.120865 272.822919 
L 323.190486 273.908757 
L 321.823135 274.954378 
L 320.616649 276.32173 
L 318.444973 279.257514 
L 317.278703 280.423784 
L 312.694054 284.566054 
L 310.803892 285.732324 
L 309.356108 286.335568 
L 308.712649 286.013838 
L 307.264865 284.928 
L 306.058378 283.641081 
L 304.811676 282.555243 
L 301.071568 280.504216 
L 299.664 279.418378 
L 298.658595 278.171676 
L 298.216216 277.085838 
L 297.934703 276.160865 
L 297.210811 274.512 
L 296.446703 273.184865 
L 295.642378 271.536 
L 294.315243 267.996973 
L 293.591351 266.589405 
L 289.931676 260.315676 
L 287.880649 255.047351 
L 286.714378 252.071351 
L 285.306811 249.256216 
L 280.038486 239.403243 
L 278.188541 236.467459 
L 276.17773 233.370811 
L 274.528865 230.354595 
L 272.437622 225.890595 
L 271.110486 222.633081 
L 269.984432 219.013622 
L 269.300757 215.474595 
L 269.059459 211.69427 
L 269.099676 211.734486 
L 268.73773 211.332324 
L 267.852973 210.528 
L 262.222703 206.425946 
L 260.131459 205.139027 
L 258 204.133622 
L 255.747892 203.289081 
L 252.852324 202.484757 
L 251.444757 202.203243 
L 249.675243 202.002162 
L 248.106811 201.961946 
L 246.015568 202.042378 
L 244.447135 202.243459 
L 242.637405 202.605405 
L 241.109189 203.047784 
L 239.138595 203.771676 
L 236.283243 205.179243 
L 234.433297 206.265081 
L 231.417081 208.396541 
L 228.56173 210.809514 
L 224.781405 214.509405 
L 223.655351 215.957189 
L 222.649946 217.485405 
L 220.759784 220.984216 
L 215.612108 231.03827 
L 212.515459 235.783784 
L 210.343784 238.558703 
L 208.011243 241.172757 
L 205.718919 243.465081 
L 203.064649 245.717189 
L 200.410378 247.607351 
L 198.80173 248.572541 
L 198.80173 248.572541 
" style="fill:none;stroke:#63fbc3;stroke-linecap:square;stroke-width:1.5;"/>
   </g>
   <g id="line2d_83">
    <path clip-path="url(#p6c3df3a373)" d="M 140.367568 248.652973 
L 144.067459 248.693189 
L 147.847784 248.89427 
L 156.413838 249.658378 
L 205.316757 255.087568 
L 207.367784 254.926703 
L 210.947027 254.122378 
L 212.796973 253.639784 
L 214.646919 253.318054 
L 216.537081 253.116973 
L 220.598919 253.036541 
L 226.229189 253.35827 
L 232.38227 254.00173 
L 235.800649 254.444108 
L 236.886486 254.524541 
L 239.058162 254.323459 
L 247.704649 252.553946 
L 252.972973 251.508324 
L 257.276108 250.945297 
L 259.16627 250.784432 
L 264.474811 250.864865 
L 266.083459 251.146378 
L 275.292973 253.438703 
L 279.234162 254.162595 
L 283.376432 254.444108 
L 287.639351 255.007135 
L 289.288216 255.48973 
L 293.028324 257.379892 
L 294.797838 257.82227 
L 296.406486 257.862486 
L 298.095568 257.580973 
L 299.583568 257.098378 
L 310.602811 252.151784 
L 314.061405 250.905081 
L 317.439568 249.899676 
L 319.088432 249.53773 
L 322.828541 249.055135 
L 329.544649 248.733405 
L 337.266162 247.40627 
L 339.196541 247.446486 
L 342.092108 247.687784 
L 345.188757 247.728 
L 347.360432 248.009514 
L 350.778811 248.733405 
L 352.307027 248.934486 
L 361.878486 249.497514 
L 363.808865 249.577946 
L 365.980541 249.939892 
L 368.071784 250.623568 
L 369.801081 251.427892 
L 371.449946 252.393081 
L 374.506378 254.645189 
L 375.753081 255.650595 
L 378.326919 258.063568 
L 380.579027 260.355892 
L 384.319135 264.578595 
L 389.064649 270.409946 
L 392.161297 274.471784 
L 392.161297 274.471784 
" style="fill:none;stroke:#9cfba4;stroke-linecap:square;stroke-width:1.5;"/>
   </g>
   <g id="line2d_84">
    <path clip-path="url(#p6c3df3a373)" d="M 281.124324 192.35027 
L 281.204757 192.35027 
L 281.687351 192.470919 
L 282.371027 192.792649 
L 283.054703 193.355676 
L 283.939459 194.441514 
L 284.623135 195.96973 
L 285.145946 197.45773 
L 285.668757 199.589189 
L 285.95027 201.439135 
L 286.151351 203.610811 
L 286.070919 205.500973 
L 285.829622 207.672649 
L 285.467676 209.804108 
L 285.145946 211.654054 
L 284.864432 213.222486 
L 284.582919 214.831135 
L 284.341622 216.399568 
L 284.100324 218.249514 
L 283.939459 219.817946 
L 283.818811 221.708108 
L 283.738378 223.558054 
L 283.61773 225.448216 
L 283.537297 227.298162 
L 283.456865 228.906811 
L 283.376432 230.796973 
L 283.296 232.405622 
L 283.255784 234.01427 
L 283.175351 235.904432 
L 283.094919 238.035892 
L 283.054703 240.167351 
L 282.97427 242.057514 
L 282.934054 243.907459 
L 282.893838 246.079135 
L 282.853622 247.929081 
L 282.813405 249.819243 
L 282.773189 251.427892 
L 282.732973 253.559351 
L 282.692757 255.731027 
L 282.652541 257.580973 
L 282.572108 259.752649 
L 282.572108 261.361297 
L 282.531892 263.211243 
L 282.491676 265.101405 
L 282.451459 266.991568 
L 282.411243 268.841514 
L 282.371027 271.013189 
L 282.330811 272.863135 
L 282.290595 275.034811 
L 282.250378 276.884757 
L 282.210162 279.056432 
L 282.169946 280.906378 
L 282.12973 283.078054 
L 282.089514 284.928 
L 282.049297 286.818162 
L 282.009081 288.708324 
L 281.968865 290.839784 
L 281.928649 292.729946 
L 281.888432 294.579892 
L 281.848216 296.188541 
L 281.808 298.32 
L 281.848216 300.169946 
L 282.009081 301.738378 
L 282.290595 303.588324 
L 282.652541 305.43827 
L 282.97427 307.006703 
L 283.296 308.856649 
L 283.537297 310.465297 
L 283.778595 312.315243 
L 283.899243 314.205405 
L 283.979676 315.85427 
L 283.979676 317.98573 
L 283.899243 319.634595 
L 283.657946 321.524757 
L 283.255784 323.133405 
L 282.612324 324.902919 
L 281.888432 326.672432 
L 281.043892 328.643027 
L 280.360216 329.929946 
L 279.716757 330.854919 
" style="fill:none;stroke:#d4dd80;stroke-linecap:square;stroke-width:1.5;"/>
   </g>
   <g id="line2d_85">
    <path clip-path="url(#p6c3df3a373)" d="M 140.367568 304.955676 
L 144.308757 304.875243 
L 151.467243 304.151351 
L 164.175568 302.180757 
L 203.667892 295.344 
L 205.678703 295.344 
L 209.056865 295.866811 
L 212.394811 296.389622 
L 214.486054 296.51027 
L 217.944649 296.349405 
L 221.644541 295.947243 
L 225.625946 295.344 
L 230.813838 294.419027 
L 232.663784 294.378811 
L 234.433297 294.499459 
L 238.012541 295.142919 
L 240.063568 295.545081 
L 241.632 295.705946 
L 243.079784 295.705946 
L 244.004757 295.585297 
L 245.331892 295.183135 
L 246.699243 294.539676 
L 249.313297 292.770162 
L 252.048 290.236541 
L 254.863135 287.180108 
L 255.948973 286.054054 
L 256.753297 285.450811 
L 258.482595 284.525838 
L 262.182486 283.319351 
L 264.193297 282.876973 
L 266.807351 283.44 
L 270.346378 284.726919 
L 273.764757 286.255135 
L 275.373405 286.938811 
L 275.896216 286.979027 
L 276.700541 286.898595 
L 277.585297 286.657297 
L 280.118919 285.692108 
L 280.521081 285.692108 
L 280.762378 285.852973 
L 281.446054 286.456216 
L 282.12973 287.421405 
L 282.813405 288.708324 
L 283.255784 290.357189 
L 283.416649 292.04627 
L 283.215568 293.856 
L 282.813405 295.263568 
L 281.968865 296.912432 
L 281.48627 297.033081 
L 280.360216 296.992865 
L 280.199351 296.912432 
L 279.676541 296.188541 
L 278.952649 294.539676 
L 278.550486 292.649514 
L 278.429838 290.759351 
L 278.590703 288.828973 
L 279.274378 285.933405 
L 279.99827 284.525838 
L 282.12973 281.469405 
L 283.497081 280.182486 
L 285.467676 279.096649 
L 287.317622 278.493405 
L 290.977297 277.689081 
L 296.808649 276.844541 
L 298.819459 276.241297 
L 301.755243 274.994595 
L 307.385514 272.420757 
L 311.165838 271.013189 
L 313.096216 270.208865 
L 316.072216 268.56 
L 316.997189 267.836108 
L 318.042811 266.508973 
L 318.002595 266.589405 
L 317.922162 265.986162 
L 317.600432 265.302486 
L 316.997189 264.538378 
L 316.35373 263.935135 
L 315.308108 263.251459 
L 314.503784 262.92973 
L 313.337514 262.608 
L 312.131027 262.487351 
L 311.085405 262.527568 
L 309.919135 262.728649 
L 308.230054 263.291676 
L 307.345297 263.77427 
L 306.018162 264.659027 
L 303.484541 266.75027 
L 301.996541 268.439351 
L 301.192216 269.484973 
L 298.457514 273.546811 
L 297.251027 274.914162 
L 296.486919 275.477189 
L 295.401081 275.758703 
L 294.476108 275.718486 
L 293.752216 275.477189 
L 293.631568 275.155459 
L 293.591351 274.552216 
L 293.792432 273.184865 
L 294.315243 271.737081 
L 295.320649 270.128432 
L 296.728216 268.761081 
L 298.377081 267.755676 
L 300.468324 266.991568 
L 302.64 266.669838 
L 304.570378 266.669838 
L 306.460541 266.951351 
L 307.827892 267.353514 
L 308.712649 267.795892 
L 309.75827 268.600216 
L 310.723459 269.686054 
L 311.447351 270.852324 
L 312.090811 272.300108 
L 312.412541 273.788108 
L 312.492973 275.195676 
L 312.291892 276.603243 
L 312.291892 276.603243 
" style="fill:none;stroke:#ffa457;stroke-linecap:square;stroke-width:1.5;"/>
   </g>
   <g id="line2d_86">
    <path clip-path="url(#p6c3df3a373)" d="M 393.72973 220.501622 
L 393.930811 220.541838 
L 394.172108 221.104865 
L 394.292757 222.271135 
L 394.172108 223.035243 
L 393.72973 224.201514 
L 392.764541 225.810162 
L 391.59827 227.257946 
L 390.230919 228.585081 
L 387.576649 230.796973 
L 382.630054 234.054486 
L 377.804108 236.950054 
L 374.506378 238.8 
L 369.439135 241.253189 
L 366.181622 242.580324 
L 362.642595 243.867243 
L 359.023135 244.953081 
L 355.081946 245.91827 
L 348.526703 247.205189 
L 336.582486 249.095351 
L 321.461189 251.267027 
L 317.962378 251.628973 
L 312.372324 251.749622 
L 308.350703 251.709405 
L 304.851892 251.468108 
L 300.83027 250.905081 
L 299.221622 250.623568 
L 295.320649 249.577946 
L 293.752216 249.014919 
L 292.022919 248.04973 
L 290.534919 246.803027 
L 289.368649 245.194378 
L 288.644757 243.384649 
L 287.76 239.96627 
L 286.030703 236.668541 
L 284.301405 233.370811 
L 283.416649 232.043676 
L 281.405838 229.590486 
L 280.279784 228.384 
L 279.274378 227.056865 
L 278.268973 225.408 
L 277.263568 223.517838 
L 276.298378 221.949405 
L 274.931027 220.380973 
L 273.804973 219.375568 
L 272.316973 218.531027 
L 270.869189 217.847351 
L 268.979027 216.761514 
L 267.651892 215.756108 
L 265.198703 213.18227 
L 263.871568 211.452973 
L 262.78573 209.683459 
L 261.136865 206.425946 
L 260.091243 204.857514 
L 256.914162 201.318486 
L 255.265297 199.388108 
L 253.536 197.699027 
L 252.852324 197.176216 
L 251.766486 196.613189 
L 250.278486 196.170811 
L 248.508973 196.050162 
L 246.699243 196.331676 
L 245.171027 196.774054 
L 243.44173 197.417514 
L 236.645189 200.594595 
L 233.347459 202.283676 
L 230.371459 204.093405 
L 227.516108 206.023784 
L 224.258595 208.396541 
L 221.081514 210.889946 
L 219.593514 212.377946 
L 218.266378 214.026811 
L 216.295784 217.163676 
L 214.807784 220.260324 
L 213.641514 223.799351 
L 212.435027 228.745946 
L 211.308973 232.646919 
L 210.504649 234.65773 
L 209.700324 236.346811 
L 207.769946 239.363027 
L 205.517838 242.057514 
L 202.541838 244.792216 
L 199.525622 247.084541 
L 194.981189 249.980108 
L 189.793297 252.835459 
L 183.117405 256.294054 
L 172.741622 261.321081 
L 164.537514 265.302486 
L 142.981622 275.557622 
L 142.981622 275.557622 
" style="fill:none;stroke:#ff572c;stroke-linecap:square;stroke-width:1.5;"/>
   </g>
   <g id="line2d_87">
    <path clip-path="url(#p6c3df3a373)" d="M 140.367568 136.047568 
L 141.171892 136.047568 
L 142.740324 136.208432 
L 144.308757 136.570378 
L 145.957622 137.173622 
L 147.686919 137.93773 
L 149.536865 139.063784 
L 151.346595 140.27027 
L 152.834595 141.436541 
L 154.483459 142.844108 
L 155.891027 144.090811 
L 157.258378 145.37773 
L 158.62573 146.664649 
L 159.952865 147.991784 
L 161.440865 149.560216 
L 162.566919 150.68627 
L 163.853838 152.053622 
L 164.979892 153.219892 
L 166.266811 154.587243 
L 167.352649 155.753514 
L 168.559135 157.080649 
L 169.564541 158.367568 
L 170.730811 160.177297 
L 171.535135 161.584865 
L 172.460108 163.23373 
L 173.224216 164.641297 
L 173.948108 166.089081 
L 174.792649 167.737946 
L 175.757838 169.668324 
L 176.602378 171.357405 
L 177.366486 172.764973 
L 178.130595 174.172541 
L 179.055568 175.781189 
L 179.859892 177.148541 
L 180.865297 178.757189 
L 181.750054 180.084324 
L 182.634811 181.411459 
L 183.720649 182.939676 
L 184.846703 184.427676 
L 186.012973 185.915676 
L 187.179243 187.363459 
L 188.38573 188.771027 
L 189.672649 190.178595 
L 190.758486 191.344865 
L 192.20627 192.792649 
L 193.814919 194.119784 
L 195.343135 195.125189 
L 196.911568 196.090378 
L 198.560432 197.015351 
L 200.209297 197.900108 
L 201.858162 198.784865 
L 203.26573 199.548973 
L 204.914595 200.43373 
L 206.563459 201.358703 
L 208.172108 202.323892 
L 209.780757 203.329297 
L 211.148108 204.214054 
L 212.676324 205.299892 
L 214.405622 206.546595 
L 215.933838 207.712865 
L 217.381622 208.879135 
L 218.829405 210.085622 
L 220.438054 211.533405 
L 222.006486 212.981189 
L 223.373838 214.308324 
L 224.861838 215.836541 
L 226.148757 217.606054 
L 227.315027 219.415784 
L 228.119351 220.823351 
L 228.883459 222.271135 
L 229.768216 223.92 
L 230.652973 225.568865 
L 231.376865 226.976432 
L 232.301838 228.625297 
L 233.106162 230.032865 
L 234.071351 231.641514 
L 235.076757 233.16973 
L 235.961514 234.496865 
L 237.087568 236.025081 
L 238.253838 237.472865 
L 239.460324 238.880432 
L 240.707027 240.288 
L 241.993946 241.615135 
L 243.12 242.781405 
L 244.487351 244.510703 
L 245.412324 245.837838 
L 246.457946 247.366054 
L 247.342703 248.652973 
L 248.227459 249.980108 
L 248.790486 250.784432 
L 249.192649 251.307243 
L 249.313297 251.508324 
L 249.313297 251.468108 
L 249.313297 251.468108 
L 249.273081 251.427892 
L 249.232865 251.427892 
L 249.192649 251.387676 
L 249.594811 251.508324 
L 250.962162 251.669189 
L 252.208865 251.628973 
" style="fill:none;stroke:#ff0000;stroke-linecap:square;stroke-width:1.5;"/>
   </g>
   <g id="patch_3">
    <path d="M 72 512.64 
L 72 69.12 
" style="fill:none;stroke:#000000;stroke-linecap:square;stroke-linejoin:miter;stroke-width:0.8;"/>
   </g>
   <g id="patch_4">
    <path d="M 518.4 512.64 
L 518.4 69.12 
" style="fill:none;stroke:#000000;stroke-linecap:square;stroke-linejoin:miter;stroke-width:0.8;"/>
   </g>
   <g id="patch_5">
    <path d="M 72 512.64 
L 518.4 512.64 
" style="fill:none;stroke:#000000;stroke-linecap:square;stroke-linejoin:miter;stroke-width:0.8;"/>
   </g>
   <g id="patch_6">
    <path d="M 72 69.12 
L 518.4 69.12 
" style="fill:none;stroke:#000000;stroke-linecap:square;stroke-linejoin:miter;stroke-width:0.8;"/>
   </g>
   <g id="text_13">
    <!-- 1 -->
    <defs>
     <path d="M 14.203125 0 
L 14.203125 5.171875 
L 26.90625 5.171875 
L 26.90625 65.828125 
L 12.203125 56.296875 
L 12.203125 62.703125 
L 29.984375 74.21875 
L 36.71875 74.21875 
L 36.71875 5.171875 
L 49.421875 5.171875 
L 49.421875 0 
z
" id="DejaVuSerif-31"/>
    </defs>
    <g transform="translate(137.186318 389.40973)scale(0.1 -0.1)">
     <use xlink:href="#DejaVuSerif-31"/>
    </g>
   </g>
   <g id="text_14">
    <!-- 1 -->
    <g transform="translate(390.54848 192.35027)scale(0.1 -0.1)">
     <use xlink:href="#DejaVuSerif-31"/>
    </g>
   </g>
   <g id="text_15">
    <!-- 2 -->
    <defs>
     <path d="M 12.796875 55.515625 
L 7.328125 55.515625 
L 7.328125 68.5 
Q 12.546875 71.296875 17.84375 72.75 
Q 23.140625 74.21875 28.21875 74.21875 
Q 39.59375 74.21875 46.1875 68.703125 
Q 52.78125 63.1875 52.78125 53.71875 
Q 52.78125 43.015625 37.84375 28.125 
Q 36.671875 27 36.078125 26.421875 
L 17.671875 8.015625 
L 48.09375 8.015625 
L 48.09375 17 
L 53.8125 17 
L 53.8125 0 
L 6.78125 0 
L 6.78125 5.328125 
L 28.90625 27.390625 
Q 36.234375 34.71875 39.359375 40.84375 
Q 42.484375 46.96875 42.484375 53.71875 
Q 42.484375 61.078125 38.640625 65.234375 
Q 34.8125 69.390625 28.078125 69.390625 
Q 21.09375 69.390625 17.28125 65.921875 
Q 13.484375 62.453125 12.796875 55.515625 
z
" id="DejaVuSerif-32"/>
    </defs>
    <g transform="translate(446.851182 192.35027)scale(0.1 -0.1)">
     <use xlink:href="#DejaVuSerif-32"/>
    </g>
   </g>
   <g id="text_16">
    <!-- 2 -->
    <g transform="translate(221.640372 361.258378)scale(0.1 -0.1)">
     <use xlink:href="#DejaVuSerif-32"/>
    </g>
   </g>
   <g id="text_17">
    <!-- 3 -->
    <defs>
     <path d="M 9.71875 69.828125 
Q 15.4375 71.96875 20.671875 73.09375 
Q 25.921875 74.21875 30.515625 74.21875 
Q 41.21875 74.21875 47.21875 69.59375 
Q 53.21875 64.984375 53.21875 56.78125 
Q 53.21875 50.203125 49.0625 45.78125 
Q 44.921875 41.359375 37.3125 39.796875 
Q 46.296875 38.53125 51.25 33.28125 
Q 56.203125 28.03125 56.203125 19.671875 
Q 56.203125 9.46875 49.34375 4.015625 
Q 42.484375 -1.421875 29.59375 -1.421875 
Q 23.875 -1.421875 18.421875 -0.1875 
Q 12.984375 1.03125 7.625 3.515625 
L 7.625 17.671875 
L 13.09375 17.671875 
Q 13.578125 10.640625 17.828125 7.03125 
Q 22.078125 3.421875 29.78125 3.421875 
Q 37.25 3.421875 41.578125 7.734375 
Q 45.90625 12.0625 45.90625 19.578125 
Q 45.90625 28.171875 41.453125 32.59375 
Q 37.015625 37.015625 28.421875 37.015625 
L 23.78125 37.015625 
L 23.78125 42 
L 26.21875 42 
Q 34.765625 42 39.03125 45.53125 
Q 43.3125 49.078125 43.3125 56.203125 
Q 43.3125 62.59375 39.796875 65.984375 
Q 36.28125 69.390625 29.6875 69.390625 
Q 23.09375 69.390625 19.453125 66.265625 
Q 15.828125 63.140625 15.1875 56.984375 
L 9.71875 56.984375 
z
" id="DejaVuSerif-33"/>
    </defs>
    <g transform="translate(398.993885 440.082162)scale(0.1 -0.1)">
     <use xlink:href="#DejaVuSerif-33"/>
    </g>
   </g>
   <g id="text_18">
    <!-- 3 -->
    <g transform="translate(221.640372 192.35027)scale(0.1 -0.1)">
     <use xlink:href="#DejaVuSerif-33"/>
    </g>
   </g>
   <g id="text_19">
    <!-- 4 -->
    <defs>
     <path d="M 34.90625 24.703125 
L 34.90625 63.484375 
L 10.015625 24.703125 
z
M 56.390625 0 
L 23.1875 0 
L 23.1875 5.171875 
L 34.90625 5.171875 
L 34.90625 19.484375 
L 3.078125 19.484375 
L 3.078125 24.8125 
L 35.015625 74.21875 
L 44.671875 74.21875 
L 44.671875 24.703125 
L 58.59375 24.703125 
L 58.59375 19.484375 
L 44.671875 19.484375 
L 44.671875 5.171875 
L 56.390625 5.171875 
z
" id="DejaVuSerif-34"/>
    </defs>
    <g transform="translate(221.640372 136.047568)scale(0.1 -0.1)">
     <use xlink:href="#DejaVuSerif-34"/>
    </g>
   </g>
   <g id="text_20">
    <!-- 4 -->
    <g transform="translate(390.54848 361.258378)scale(0.1 -0.1)">
     <use xlink:href="#DejaVuSerif-34"/>
    </g>
   </g>
   <g id="text_21">
    <!-- 5 -->
    <defs>
     <path d="M 50.296875 72.90625 
L 50.296875 64.890625 
L 16.890625 64.890625 
L 16.890625 44 
Q 19.4375 45.75 22.828125 46.625 
Q 26.21875 47.515625 30.421875 47.515625 
Q 42.234375 47.515625 49.0625 40.96875 
Q 55.90625 34.421875 55.90625 23.09375 
Q 55.90625 11.53125 49 5.046875 
Q 42.09375 -1.421875 29.59375 -1.421875 
Q 24.5625 -1.421875 19.28125 -0.1875 
Q 14.015625 1.03125 8.5 3.515625 
L 8.5 17.671875 
L 14.015625 17.671875 
Q 14.453125 10.75 18.421875 7.078125 
Q 22.40625 3.421875 29.59375 3.421875 
Q 37.3125 3.421875 41.453125 8.5 
Q 45.609375 13.578125 45.609375 23.09375 
Q 45.609375 32.5625 41.484375 37.609375 
Q 37.359375 42.671875 29.59375 42.671875 
Q 25.203125 42.671875 21.84375 41.109375 
Q 18.5 39.546875 15.921875 36.28125 
L 11.71875 36.28125 
L 11.71875 72.90625 
z
" id="DejaVuSerif-35"/>
    </defs>
    <g transform="translate(446.851182 304.955676)scale(0.1 -0.1)">
     <use xlink:href="#DejaVuSerif-35"/>
    </g>
   </g>
   <g id="text_22">
    <!-- 5 -->
    <g transform="translate(193.48902 248.652973)scale(0.1 -0.1)">
     <use xlink:href="#DejaVuSerif-35"/>
    </g>
   </g>
   <g id="text_23">
    <!-- 6 -->
    <defs>
     <path d="M 32.71875 3.421875 
Q 39.59375 3.421875 43.296875 8.46875 
Q 47.015625 13.53125 47.015625 23 
Q 47.015625 32.46875 43.296875 37.515625 
Q 39.59375 42.578125 32.71875 42.578125 
Q 25.734375 42.578125 22.0625 37.6875 
Q 18.40625 32.8125 18.40625 23.578125 
Q 18.40625 13.875 22.109375 8.640625 
Q 25.828125 3.421875 32.71875 3.421875 
z
M 16.796875 40.140625 
Q 20.125 43.796875 24.3125 45.59375 
Q 28.515625 47.40625 33.796875 47.40625 
Q 44.671875 47.40625 51 40.859375 
Q 57.328125 34.328125 57.328125 23 
Q 57.328125 11.921875 50.515625 5.25 
Q 43.703125 -1.421875 32.328125 -1.421875 
Q 19.96875 -1.421875 13.328125 7.78125 
Q 6.6875 17 6.6875 34.078125 
Q 6.6875 53.21875 14.546875 63.71875 
Q 22.40625 74.21875 36.71875 74.21875 
Q 40.578125 74.21875 44.828125 73.484375 
Q 49.078125 72.75 53.515625 71.296875 
L 53.515625 59.28125 
L 48 59.28125 
Q 47.40625 64.203125 44.234375 66.796875 
Q 41.0625 69.390625 35.6875 69.390625 
Q 26.21875 69.390625 21.578125 62.203125 
Q 16.9375 55.03125 16.796875 40.140625 
z
" id="DejaVuSerif-36"/>
    </defs>
    <g transform="translate(137.186318 248.652973)scale(0.1 -0.1)">
     <use xlink:href="#DejaVuSerif-36"/>
    </g>
   </g>
   <g id="text_24">
    <!-- 6 -->
    <g transform="translate(390.54848 276.804324)scale(0.1 -0.1)">
     <use xlink:href="#DejaVuSerif-36"/>
    </g>
   </g>
   <g id="text_25">
    <!-- 7 -->
    <defs>
     <path d="M 56.390625 67.921875 
L 27.875 0 
L 20.609375 0 
L 47.796875 64.890625 
L 14.109375 64.890625 
L 14.109375 55.90625 
L 8.40625 55.90625 
L 8.40625 72.90625 
L 56.390625 72.90625 
z
" id="DejaVuSerif-37"/>
    </defs>
    <g transform="translate(277.943074 192.35027)scale(0.1 -0.1)">
     <use xlink:href="#DejaVuSerif-37"/>
    </g>
   </g>
   <g id="text_26">
    <!-- 7 -->
    <g transform="translate(277.943074 333.107027)scale(0.1 -0.1)">
     <use xlink:href="#DejaVuSerif-37"/>
    </g>
   </g>
   <g id="text_27">
    <!-- 8 -->
    <defs>
     <path d="M 46.578125 19.921875 
Q 46.578125 27.734375 42.6875 32.046875 
Q 38.8125 36.375 31.78125 36.375 
Q 24.75 36.375 20.875 32.046875 
Q 17 27.734375 17 19.921875 
Q 17 12.0625 20.875 7.734375 
Q 24.75 3.421875 31.78125 3.421875 
Q 38.8125 3.421875 42.6875 7.734375 
Q 46.578125 12.0625 46.578125 19.921875 
z
M 44.578125 55.328125 
Q 44.578125 61.96875 41.203125 65.671875 
Q 37.84375 69.390625 31.78125 69.390625 
Q 25.78125 69.390625 22.390625 65.671875 
Q 19 61.96875 19 55.328125 
Q 19 48.640625 22.390625 44.921875 
Q 25.78125 41.21875 31.78125 41.21875 
Q 37.84375 41.21875 41.203125 44.921875 
Q 44.578125 48.640625 44.578125 55.328125 
z
M 39.3125 38.8125 
Q 47.609375 37.703125 52.25 32.6875 
Q 56.890625 27.6875 56.890625 19.921875 
Q 56.890625 9.671875 50.390625 4.125 
Q 43.890625 -1.421875 31.78125 -1.421875 
Q 19.734375 -1.421875 13.203125 4.125 
Q 6.6875 9.671875 6.6875 19.921875 
Q 6.6875 27.6875 11.328125 32.6875 
Q 15.96875 37.703125 24.3125 38.8125 
Q 16.9375 40.140625 13 44.40625 
Q 9.078125 48.6875 9.078125 55.328125 
Q 9.078125 64.109375 15.125 69.15625 
Q 21.1875 74.21875 31.78125 74.21875 
Q 42.390625 74.21875 48.4375 69.15625 
Q 54.5 64.109375 54.5 55.328125 
Q 54.5 48.6875 50.5625 44.40625 
Q 46.625 40.140625 39.3125 38.8125 
z
" id="DejaVuSerif-38"/>
    </defs>
    <g transform="translate(137.186318 304.955676)scale(0.1 -0.1)">
     <use xlink:href="#DejaVuSerif-38"/>
    </g>
   </g>
   <g id="text_28">
    <!-- 8 -->
    <g transform="translate(306.094426 276.804324)scale(0.1 -0.1)">
     <use xlink:href="#DejaVuSerif-38"/>
    </g>
   </g>
   <g id="text_29">
    <!-- 9 -->
    <defs>
     <path d="M 46.78125 32.671875 
Q 43.5 29 39.25 27.1875 
Q 35.015625 25.390625 29.6875 25.390625 
Q 18.84375 25.390625 12.5625 31.9375 
Q 6.296875 38.484375 6.296875 49.8125 
Q 6.296875 60.890625 13.109375 67.546875 
Q 19.921875 74.21875 31.296875 74.21875 
Q 43.65625 74.21875 50.265625 65.015625 
Q 56.890625 55.8125 56.890625 38.71875 
Q 56.890625 19.578125 49.015625 9.078125 
Q 41.15625 -1.421875 26.90625 -1.421875 
Q 23.046875 -1.421875 18.796875 -0.6875 
Q 14.546875 0.046875 10.109375 1.515625 
L 10.109375 13.625 
L 15.578125 13.625 
Q 16.21875 8.6875 19.390625 6.046875 
Q 22.5625 3.421875 27.875 3.421875 
Q 37.359375 3.421875 41.984375 10.5625 
Q 46.625 17.71875 46.78125 32.671875 
z
M 30.90625 69.390625 
Q 23.96875 69.390625 20.28125 64.328125 
Q 16.609375 59.28125 16.609375 49.8125 
Q 16.609375 40.328125 20.28125 35.25 
Q 23.96875 30.171875 30.90625 30.171875 
Q 37.84375 30.171875 41.53125 35.078125 
Q 45.21875 39.984375 45.21875 49.21875 
Q 45.21875 58.9375 41.5 64.15625 
Q 37.796875 69.390625 30.90625 69.390625 
z
" id="DejaVuSerif-39"/>
    </defs>
    <g transform="translate(390.54848 220.501622)scale(0.1 -0.1)">
     <use xlink:href="#DejaVuSerif-39"/>
    </g>
   </g>
   <g id="text_30">
    <!-- 9 -->
    <g transform="translate(137.186318 276.804324)scale(0.1 -0.1)">
     <use xlink:href="#DejaVuSerif-39"/>
    </g>
   </g>
   <g id="text_31">
    <!-- 10 -->
    <defs>
     <path d="M 31.78125 3.421875 
Q 39.265625 3.421875 42.96875 11.625 
Q 46.6875 19.828125 46.6875 36.375 
Q 46.6875 52.984375 42.96875 61.1875 
Q 39.265625 69.390625 31.78125 69.390625 
Q 24.3125 69.390625 20.59375 61.1875 
Q 16.890625 52.984375 16.890625 36.375 
Q 16.890625 19.828125 20.59375 11.625 
Q 24.3125 3.421875 31.78125 3.421875 
z
M 31.78125 -1.421875 
Q 19.921875 -1.421875 13.25 8.53125 
Q 6.59375 18.5 6.59375 36.375 
Q 6.59375 54.296875 13.25 64.25 
Q 19.921875 74.21875 31.78125 74.21875 
Q 43.703125 74.21875 50.34375 64.25 
Q 56.984375 54.296875 56.984375 36.375 
Q 56.984375 18.5 50.34375 8.53125 
Q 43.703125 -1.421875 31.78125 -1.421875 
z
" id="DejaVuSerif-30"/>
    </defs>
    <g transform="translate(134.005068 136.047568)scale(0.1 -0.1)">
     <use xlink:href="#DejaVuSerif-31"/>
     <use x="63.623047" xlink:href="#DejaVuSerif-30"/>
    </g>
   </g>
   <g id="text_32">
    <!-- 10 -->
    <g transform="translate(246.610473 248.652973)scale(0.1 -0.1)">
     <use xlink:href="#DejaVuSerif-31"/>
     <use x="63.623047" xlink:href="#DejaVuSerif-30"/>
    </g>
   </g>
   <g id="text_33">
    <!-- MRPP -->
    <defs>
     <path d="M 9.8125 72.90625 
L 24.515625 72.90625 
L 43.109375 23.296875 
L 61.8125 72.90625 
L 76.515625 72.90625 
L 76.515625 0 
L 66.890625 0 
L 66.890625 64.015625 
L 48.09375 14.015625 
L 38.1875 14.015625 
L 19.390625 64.015625 
L 19.390625 0 
L 9.8125 0 
z
" id="DejaVuSans-4d"/>
     <path d="M 44.390625 34.1875 
Q 47.5625 33.109375 50.5625 29.59375 
Q 53.5625 26.078125 56.59375 19.921875 
L 66.609375 0 
L 56 0 
L 46.6875 18.703125 
Q 43.0625 26.03125 39.671875 28.421875 
Q 36.28125 30.8125 30.421875 30.8125 
L 19.671875 30.8125 
L 19.671875 0 
L 9.8125 0 
L 9.8125 72.90625 
L 32.078125 72.90625 
Q 44.578125 72.90625 50.734375 67.671875 
Q 56.890625 62.453125 56.890625 51.90625 
Q 56.890625 45.015625 53.6875 40.46875 
Q 50.484375 35.9375 44.390625 34.1875 
z
M 19.671875 64.796875 
L 19.671875 38.921875 
L 32.078125 38.921875 
Q 39.203125 38.921875 42.84375 42.21875 
Q 46.484375 45.515625 46.484375 51.90625 
Q 46.484375 58.296875 42.84375 61.546875 
Q 39.203125 64.796875 32.078125 64.796875 
z
" id="DejaVuSans-52"/>
     <path d="M 19.671875 64.796875 
L 19.671875 37.40625 
L 32.078125 37.40625 
Q 38.96875 37.40625 42.71875 40.96875 
Q 46.484375 44.53125 46.484375 51.125 
Q 46.484375 57.671875 42.71875 61.234375 
Q 38.96875 64.796875 32.078125 64.796875 
z
M 9.8125 72.90625 
L 32.078125 72.90625 
Q 44.34375 72.90625 50.609375 67.359375 
Q 56.890625 61.8125 56.890625 51.125 
Q 56.890625 40.328125 50.609375 34.8125 
Q 44.34375 29.296875 32.078125 29.296875 
L 19.671875 29.296875 
L 19.671875 0 
L 9.8125 0 
z
" id="DejaVuSans-50"/>
    </defs>
    <g transform="translate(278.618437 63.12)scale(0.12 -0.12)">
     <use xlink:href="#DejaVuSans-4d"/>
     <use x="86.279297" xlink:href="#DejaVuSans-52"/>
     <use x="155.761719" xlink:href="#DejaVuSans-50"/>
     <use x="216.064453" xlink:href="#DejaVuSans-50"/>
    </g>
   </g>
  </g>
 </g>
 <defs>
  <clipPath id="p6c3df3a373">
   <rect height="443.52" width="446.4" x="72" y="69.12"/>
  </clipPath>
 </defs>
</svg>
