<?xml version="1.0" encoding="utf-8" standalone="no"?>
<!DOCTYPE svg PUBLIC "-//W3C//DTD SVG 1.1//EN"
  "http://www.w3.org/Graphics/SVG/1.1/DTD/svg11.dtd">
<!-- Created with matplotlib (http://matplotlib.org/) -->
<svg height="576pt" version="1.1" viewBox="0 0 576 576" width="576pt" xmlns="http://www.w3.org/2000/svg" xmlns:xlink="http://www.w3.org/1999/xlink">
 <defs>
  <style type="text/css">
*{stroke-linecap:butt;stroke-linejoin:round;}
  </style>
 </defs>
 <g id="figure_1">
  <g id="patch_1">
   <path d="M 0 576 
L 576 576 
L 576 0 
L 0 0 
z
" style="fill:#ffffff;"/>
  </g>
  <g id="axes_1">
   <g id="patch_2">
    <path d="M 72 512.64 
L 518.4 512.64 
L 518.4 69.12 
L 72 69.12 
z
" style="fill:#ffffff;"/>
   </g>
   <g id="matplotlib.axis_1">
    <g id="xtick_1">
     <g id="line2d_1">
      <defs>
       <path d="M 0 0 
L 0 3.5 
" id="m2a0cc7eba0" style="stroke:#000000;stroke-width:0.8;"/>
      </defs>
      <g>
       <use style="stroke:#000000;stroke-width:0.8;" x="112.216216" xlink:href="#m2a0cc7eba0" y="512.64"/>
      </g>
     </g>
     <g id="text_1">
      <!-- 0 -->
      <defs>
       <path d="M 31.78125 66.40625 
Q 24.171875 66.40625 20.328125 58.90625 
Q 16.5 51.421875 16.5 36.375 
Q 16.5 21.390625 20.328125 13.890625 
Q 24.171875 6.390625 31.78125 6.390625 
Q 39.453125 6.390625 43.28125 13.890625 
Q 47.125 21.390625 47.125 36.375 
Q 47.125 51.421875 43.28125 58.90625 
Q 39.453125 66.40625 31.78125 66.40625 
z
M 31.78125 74.21875 
Q 44.046875 74.21875 50.515625 64.515625 
Q 56.984375 54.828125 56.984375 36.375 
Q 56.984375 17.96875 50.515625 8.265625 
Q 44.046875 -1.421875 31.78125 -1.421875 
Q 19.53125 -1.421875 13.0625 8.265625 
Q 6.59375 17.96875 6.59375 36.375 
Q 6.59375 54.828125 13.0625 64.515625 
Q 19.53125 74.21875 31.78125 74.21875 
z
" id="DejaVuSans-30"/>
      </defs>
      <g transform="translate(109.034966 527.238438)scale(0.1 -0.1)">
       <use xlink:href="#DejaVuSans-30"/>
      </g>
     </g>
    </g>
    <g id="xtick_2">
     <g id="line2d_2">
      <g>
       <use style="stroke:#000000;stroke-width:0.8;" x="192.648649" xlink:href="#m2a0cc7eba0" y="512.64"/>
      </g>
     </g>
     <g id="text_2">
      <!-- 2 -->
      <defs>
       <path d="M 19.1875 8.296875 
L 53.609375 8.296875 
L 53.609375 0 
L 7.328125 0 
L 7.328125 8.296875 
Q 12.9375 14.109375 22.625 23.890625 
Q 32.328125 33.6875 34.8125 36.53125 
Q 39.546875 41.84375 41.421875 45.53125 
Q 43.3125 49.21875 43.3125 52.78125 
Q 43.3125 58.59375 39.234375 62.25 
Q 35.15625 65.921875 28.609375 65.921875 
Q 23.96875 65.921875 18.8125 64.3125 
Q 13.671875 62.703125 7.8125 59.421875 
L 7.8125 69.390625 
Q 13.765625 71.78125 18.9375 73 
Q 24.125 74.21875 28.421875 74.21875 
Q 39.75 74.21875 46.484375 68.546875 
Q 53.21875 62.890625 53.21875 53.421875 
Q 53.21875 48.921875 51.53125 44.890625 
Q 49.859375 40.875 45.40625 35.40625 
Q 44.1875 33.984375 37.640625 27.21875 
Q 31.109375 20.453125 19.1875 8.296875 
z
" id="DejaVuSans-32"/>
      </defs>
      <g transform="translate(189.467399 527.238438)scale(0.1 -0.1)">
       <use xlink:href="#DejaVuSans-32"/>
      </g>
     </g>
    </g>
    <g id="xtick_3">
     <g id="line2d_3">
      <g>
       <use style="stroke:#000000;stroke-width:0.8;" x="273.081081" xlink:href="#m2a0cc7eba0" y="512.64"/>
      </g>
     </g>
     <g id="text_3">
      <!-- 4 -->
      <defs>
       <path d="M 37.796875 64.3125 
L 12.890625 25.390625 
L 37.796875 25.390625 
z
M 35.203125 72.90625 
L 47.609375 72.90625 
L 47.609375 25.390625 
L 58.015625 25.390625 
L 58.015625 17.1875 
L 47.609375 17.1875 
L 47.609375 0 
L 37.796875 0 
L 37.796875 17.1875 
L 4.890625 17.1875 
L 4.890625 26.703125 
z
" id="DejaVuSans-34"/>
      </defs>
      <g transform="translate(269.899831 527.238438)scale(0.1 -0.1)">
       <use xlink:href="#DejaVuSans-34"/>
      </g>
     </g>
    </g>
    <g id="xtick_4">
     <g id="line2d_4">
      <g>
       <use style="stroke:#000000;stroke-width:0.8;" x="353.513514" xlink:href="#m2a0cc7eba0" y="512.64"/>
      </g>
     </g>
     <g id="text_4">
      <!-- 6 -->
      <defs>
       <path d="M 33.015625 40.375 
Q 26.375 40.375 22.484375 35.828125 
Q 18.609375 31.296875 18.609375 23.390625 
Q 18.609375 15.53125 22.484375 10.953125 
Q 26.375 6.390625 33.015625 6.390625 
Q 39.65625 6.390625 43.53125 10.953125 
Q 47.40625 15.53125 47.40625 23.390625 
Q 47.40625 31.296875 43.53125 35.828125 
Q 39.65625 40.375 33.015625 40.375 
z
M 52.59375 71.296875 
L 52.59375 62.3125 
Q 48.875 64.0625 45.09375 64.984375 
Q 41.3125 65.921875 37.59375 65.921875 
Q 27.828125 65.921875 22.671875 59.328125 
Q 17.53125 52.734375 16.796875 39.40625 
Q 19.671875 43.65625 24.015625 45.921875 
Q 28.375 48.1875 33.59375 48.1875 
Q 44.578125 48.1875 50.953125 41.515625 
Q 57.328125 34.859375 57.328125 23.390625 
Q 57.328125 12.15625 50.6875 5.359375 
Q 44.046875 -1.421875 33.015625 -1.421875 
Q 20.359375 -1.421875 13.671875 8.265625 
Q 6.984375 17.96875 6.984375 36.375 
Q 6.984375 53.65625 15.1875 63.9375 
Q 23.390625 74.21875 37.203125 74.21875 
Q 40.921875 74.21875 44.703125 73.484375 
Q 48.484375 72.75 52.59375 71.296875 
z
" id="DejaVuSans-36"/>
      </defs>
      <g transform="translate(350.332264 527.238438)scale(0.1 -0.1)">
       <use xlink:href="#DejaVuSans-36"/>
      </g>
     </g>
    </g>
    <g id="xtick_5">
     <g id="line2d_5">
      <g>
       <use style="stroke:#000000;stroke-width:0.8;" x="433.945946" xlink:href="#m2a0cc7eba0" y="512.64"/>
      </g>
     </g>
     <g id="text_5">
      <!-- 8 -->
      <defs>
       <path d="M 31.78125 34.625 
Q 24.75 34.625 20.71875 30.859375 
Q 16.703125 27.09375 16.703125 20.515625 
Q 16.703125 13.921875 20.71875 10.15625 
Q 24.75 6.390625 31.78125 6.390625 
Q 38.8125 6.390625 42.859375 10.171875 
Q 46.921875 13.96875 46.921875 20.515625 
Q 46.921875 27.09375 42.890625 30.859375 
Q 38.875 34.625 31.78125 34.625 
z
M 21.921875 38.8125 
Q 15.578125 40.375 12.03125 44.71875 
Q 8.5 49.078125 8.5 55.328125 
Q 8.5 64.0625 14.71875 69.140625 
Q 20.953125 74.21875 31.78125 74.21875 
Q 42.671875 74.21875 48.875 69.140625 
Q 55.078125 64.0625 55.078125 55.328125 
Q 55.078125 49.078125 51.53125 44.71875 
Q 48 40.375 41.703125 38.8125 
Q 48.828125 37.15625 52.796875 32.3125 
Q 56.78125 27.484375 56.78125 20.515625 
Q 56.78125 9.90625 50.3125 4.234375 
Q 43.84375 -1.421875 31.78125 -1.421875 
Q 19.734375 -1.421875 13.25 4.234375 
Q 6.78125 9.90625 6.78125 20.515625 
Q 6.78125 27.484375 10.78125 32.3125 
Q 14.796875 37.15625 21.921875 38.8125 
z
M 18.3125 54.390625 
Q 18.3125 48.734375 21.84375 45.5625 
Q 25.390625 42.390625 31.78125 42.390625 
Q 38.140625 42.390625 41.71875 45.5625 
Q 45.3125 48.734375 45.3125 54.390625 
Q 45.3125 60.0625 41.71875 63.234375 
Q 38.140625 66.40625 31.78125 66.40625 
Q 25.390625 66.40625 21.84375 63.234375 
Q 18.3125 60.0625 18.3125 54.390625 
z
" id="DejaVuSans-38"/>
      </defs>
      <g transform="translate(430.764696 527.238438)scale(0.1 -0.1)">
       <use xlink:href="#DejaVuSans-38"/>
      </g>
     </g>
    </g>
    <g id="xtick_6">
     <g id="line2d_6">
      <g>
       <use style="stroke:#000000;stroke-width:0.8;" x="514.378378" xlink:href="#m2a0cc7eba0" y="512.64"/>
      </g>
     </g>
     <g id="text_6">
      <!-- 10 -->
      <defs>
       <path d="M 12.40625 8.296875 
L 28.515625 8.296875 
L 28.515625 63.921875 
L 10.984375 60.40625 
L 10.984375 69.390625 
L 28.421875 72.90625 
L 38.28125 72.90625 
L 38.28125 8.296875 
L 54.390625 8.296875 
L 54.390625 0 
L 12.40625 0 
z
" id="DejaVuSans-31"/>
      </defs>
      <g transform="translate(508.015878 527.238438)scale(0.1 -0.1)">
       <use xlink:href="#DejaVuSans-31"/>
       <use x="63.623047" xlink:href="#DejaVuSans-30"/>
      </g>
     </g>
    </g>
   </g>
   <g id="matplotlib.axis_2">
    <g id="ytick_1">
     <g id="line2d_7">
      <defs>
       <path d="M 0 0 
L -3.5 0 
" id="me079f93faa" style="stroke:#000000;stroke-width:0.8;"/>
      </defs>
      <g>
       <use style="stroke:#000000;stroke-width:0.8;" x="72" xlink:href="#me079f93faa" y="473.863784"/>
      </g>
     </g>
     <g id="text_7">
      <!-- 0 -->
      <g transform="translate(58.6375 477.663003)scale(0.1 -0.1)">
       <use xlink:href="#DejaVuSans-30"/>
      </g>
     </g>
    </g>
    <g id="ytick_2">
     <g id="line2d_8">
      <g>
       <use style="stroke:#000000;stroke-width:0.8;" x="72" xlink:href="#me079f93faa" y="393.431351"/>
      </g>
     </g>
     <g id="text_8">
      <!-- 2 -->
      <g transform="translate(58.6375 397.23057)scale(0.1 -0.1)">
       <use xlink:href="#DejaVuSans-32"/>
      </g>
     </g>
    </g>
    <g id="ytick_3">
     <g id="line2d_9">
      <g>
       <use style="stroke:#000000;stroke-width:0.8;" x="72" xlink:href="#me079f93faa" y="312.998919"/>
      </g>
     </g>
     <g id="text_9">
      <!-- 4 -->
      <g transform="translate(58.6375 316.798138)scale(0.1 -0.1)">
       <use xlink:href="#DejaVuSans-34"/>
      </g>
     </g>
    </g>
    <g id="ytick_4">
     <g id="line2d_10">
      <g>
       <use style="stroke:#000000;stroke-width:0.8;" x="72" xlink:href="#me079f93faa" y="232.566486"/>
      </g>
     </g>
     <g id="text_10">
      <!-- 6 -->
      <g transform="translate(58.6375 236.365705)scale(0.1 -0.1)">
       <use xlink:href="#DejaVuSans-36"/>
      </g>
     </g>
    </g>
    <g id="ytick_5">
     <g id="line2d_11">
      <g>
       <use style="stroke:#000000;stroke-width:0.8;" x="72" xlink:href="#me079f93faa" y="152.134054"/>
      </g>
     </g>
     <g id="text_11">
      <!-- 8 -->
      <g transform="translate(58.6375 155.933273)scale(0.1 -0.1)">
       <use xlink:href="#DejaVuSans-38"/>
      </g>
     </g>
    </g>
    <g id="ytick_6">
     <g id="line2d_12">
      <g>
       <use style="stroke:#000000;stroke-width:0.8;" x="72" xlink:href="#me079f93faa" y="71.701622"/>
      </g>
     </g>
     <g id="text_12">
      <!-- 10 -->
      <g transform="translate(52.275 75.50084)scale(0.1 -0.1)">
       <use xlink:href="#DejaVuSans-31"/>
       <use x="63.623047" xlink:href="#DejaVuSans-30"/>
      </g>
     </g>
    </g>
   </g>
   <g id="line2d_13">
    <path clip-path="url(#p92349df7c3)" d="M 140.367568 389.40973 
" style="fill:none;stroke:#1f77b4;stroke-linecap:square;stroke-width:1.5;"/>
    <defs>
     <path d="M -5 5 
L 5 5 
L 5 -5 
L -5 -5 
z
" id="mf2047d816a" style="stroke:#8000ff;stroke-linejoin:miter;"/>
    </defs>
    <g clip-path="url(#p92349df7c3)">
     <use style="fill:#8000ff;stroke:#8000ff;stroke-linejoin:miter;" x="140.367568" xlink:href="#mf2047d816a" y="389.40973"/>
    </g>
   </g>
   <g id="line2d_14">
    <path clip-path="url(#p92349df7c3)" d="M 393.72973 192.35027 
" style="fill:none;stroke:#ff7f0e;stroke-linecap:square;stroke-width:1.5;"/>
    <defs>
     <path d="M 0 -5 
L -4.755283 -1.545085 
L -2.938926 4.045085 
L 2.938926 4.045085 
L 4.755283 -1.545085 
z
" id="m7ab5d328e4" style="stroke:#8000ff;stroke-linejoin:miter;"/>
    </defs>
    <g clip-path="url(#p92349df7c3)">
     <use style="fill:#8000ff;stroke:#8000ff;stroke-linejoin:miter;" x="393.72973" xlink:href="#m7ab5d328e4" y="192.35027"/>
    </g>
   </g>
   <g id="line2d_15">
    <path clip-path="url(#p92349df7c3)" d="M 450.032432 192.35027 
" style="fill:none;stroke:#2ca02c;stroke-linecap:square;stroke-width:1.5;"/>
    <defs>
     <path d="M -5 5 
L 5 5 
L 5 -5 
L -5 -5 
z
" id="m93ce802b87" style="stroke:#583dfd;stroke-linejoin:miter;"/>
    </defs>
    <g clip-path="url(#p92349df7c3)">
     <use style="fill:#583dfd;stroke:#583dfd;stroke-linejoin:miter;" x="450.032432" xlink:href="#m93ce802b87" y="192.35027"/>
    </g>
   </g>
   <g id="line2d_16">
    <path clip-path="url(#p92349df7c3)" d="M 224.821622 361.258378 
" style="fill:none;stroke:#d62728;stroke-linecap:square;stroke-width:1.5;"/>
    <defs>
     <path d="M 0 -5 
L -4.755283 -1.545085 
L -2.938926 4.045085 
L 2.938926 4.045085 
L 4.755283 -1.545085 
z
" id="m1de59af049" style="stroke:#583dfd;stroke-linejoin:miter;"/>
    </defs>
    <g clip-path="url(#p92349df7c3)">
     <use style="fill:#583dfd;stroke:#583dfd;stroke-linejoin:miter;" x="224.821622" xlink:href="#m1de59af049" y="361.258378"/>
    </g>
   </g>
   <g id="line2d_17">
    <path clip-path="url(#p92349df7c3)" d="M 402.175135 440.082162 
" style="fill:none;stroke:#9467bd;stroke-linecap:square;stroke-width:1.5;"/>
    <defs>
     <path d="M -5 5 
L 5 5 
L 5 -5 
L -5 -5 
z
" id="m00b27e62b7" style="stroke:#3177f8;stroke-linejoin:miter;"/>
    </defs>
    <g clip-path="url(#p92349df7c3)">
     <use style="fill:#3177f8;stroke:#3177f8;stroke-linejoin:miter;" x="402.175135" xlink:href="#m00b27e62b7" y="440.082162"/>
    </g>
   </g>
   <g id="line2d_18">
    <path clip-path="url(#p92349df7c3)" d="M 224.821622 192.35027 
" style="fill:none;stroke:#8c564b;stroke-linecap:square;stroke-width:1.5;"/>
    <defs>
     <path d="M 0 -5 
L -4.755283 -1.545085 
L -2.938926 4.045085 
L 2.938926 4.045085 
L 4.755283 -1.545085 
z
" id="m9a64749f2a" style="stroke:#3177f8;stroke-linejoin:miter;"/>
    </defs>
    <g clip-path="url(#p92349df7c3)">
     <use style="fill:#3177f8;stroke:#3177f8;stroke-linejoin:miter;" x="224.821622" xlink:href="#m9a64749f2a" y="192.35027"/>
    </g>
   </g>
   <g id="line2d_19">
    <path clip-path="url(#p92349df7c3)" d="M 224.821622 136.047568 
" style="fill:none;stroke:#e377c2;stroke-linecap:square;stroke-width:1.5;"/>
    <defs>
     <path d="M -5 5 
L 5 5 
L 5 -5 
L -5 -5 
z
" id="m4819ac849c" style="stroke:#0aa9ee;stroke-linejoin:miter;"/>
    </defs>
    <g clip-path="url(#p92349df7c3)">
     <use style="fill:#0aa9ee;stroke:#0aa9ee;stroke-linejoin:miter;" x="224.821622" xlink:href="#m4819ac849c" y="136.047568"/>
    </g>
   </g>
   <g id="line2d_20">
    <path clip-path="url(#p92349df7c3)" d="M 393.72973 361.258378 
" style="fill:none;stroke:#7f7f7f;stroke-linecap:square;stroke-width:1.5;"/>
    <defs>
     <path d="M 0 -5 
L -4.755283 -1.545085 
L -2.938926 4.045085 
L 2.938926 4.045085 
L 4.755283 -1.545085 
z
" id="mc216e953e6" style="stroke:#0aa9ee;stroke-linejoin:miter;"/>
    </defs>
    <g clip-path="url(#p92349df7c3)">
     <use style="fill:#0aa9ee;stroke:#0aa9ee;stroke-linejoin:miter;" x="393.72973" xlink:href="#mc216e953e6" y="361.258378"/>
    </g>
   </g>
   <g id="line2d_21">
    <path clip-path="url(#p92349df7c3)" d="M 450.032432 304.955676 
" style="fill:none;stroke:#bcbd22;stroke-linecap:square;stroke-width:1.5;"/>
    <defs>
     <path d="M -5 5 
L 5 5 
L 5 -5 
L -5 -5 
z
" id="md567ed35a7" style="stroke:#1dd2e2;stroke-linejoin:miter;"/>
    </defs>
    <g clip-path="url(#p92349df7c3)">
     <use style="fill:#1dd2e2;stroke:#1dd2e2;stroke-linejoin:miter;" x="450.032432" xlink:href="#md567ed35a7" y="304.955676"/>
    </g>
   </g>
   <g id="line2d_22">
    <path clip-path="url(#p92349df7c3)" d="M 196.67027 248.652973 
" style="fill:none;stroke:#17becf;stroke-linecap:square;stroke-width:1.5;"/>
    <defs>
     <path d="M 0 -5 
L -4.755283 -1.545085 
L -2.938926 4.045085 
L 2.938926 4.045085 
L 4.755283 -1.545085 
z
" id="m8d1338b00b" style="stroke:#1dd2e2;stroke-linejoin:miter;"/>
    </defs>
    <g clip-path="url(#p92349df7c3)">
     <use style="fill:#1dd2e2;stroke:#1dd2e2;stroke-linejoin:miter;" x="196.67027" xlink:href="#m8d1338b00b" y="248.652973"/>
    </g>
   </g>
   <g id="line2d_23">
    <path clip-path="url(#p92349df7c3)" d="M 140.367568 248.652973 
" style="fill:none;stroke:#1f77b4;stroke-linecap:square;stroke-width:1.5;"/>
    <defs>
     <path d="M -5 5 
L 5 5 
L 5 -5 
L -5 -5 
z
" id="m3287d89564" style="stroke:#45eed2;stroke-linejoin:miter;"/>
    </defs>
    <g clip-path="url(#p92349df7c3)">
     <use style="fill:#45eed2;stroke:#45eed2;stroke-linejoin:miter;" x="140.367568" xlink:href="#m3287d89564" y="248.652973"/>
    </g>
   </g>
   <g id="line2d_24">
    <path clip-path="url(#p92349df7c3)" d="M 393.72973 276.804324 
" style="fill:none;stroke:#ff7f0e;stroke-linecap:square;stroke-width:1.5;"/>
    <defs>
     <path d="M 0 -5 
L -4.755283 -1.545085 
L -2.938926 4.045085 
L 2.938926 4.045085 
L 4.755283 -1.545085 
z
" id="m0e4fc84132" style="stroke:#45eed2;stroke-linejoin:miter;"/>
    </defs>
    <g clip-path="url(#p92349df7c3)">
     <use style="fill:#45eed2;stroke:#45eed2;stroke-linejoin:miter;" x="393.72973" xlink:href="#m0e4fc84132" y="276.804324"/>
    </g>
   </g>
   <g id="line2d_25">
    <path clip-path="url(#p92349df7c3)" d="M 281.124324 192.35027 
" style="fill:none;stroke:#2ca02c;stroke-linecap:square;stroke-width:1.5;"/>
    <defs>
     <path d="M -5 5 
L 5 5 
L 5 -5 
L -5 -5 
z
" id="m9ca2e41357" style="stroke:#6cfdbf;stroke-linejoin:miter;"/>
    </defs>
    <g clip-path="url(#p92349df7c3)">
     <use style="fill:#6cfdbf;stroke:#6cfdbf;stroke-linejoin:miter;" x="281.124324" xlink:href="#m9ca2e41357" y="192.35027"/>
    </g>
   </g>
   <g id="line2d_26">
    <path clip-path="url(#p92349df7c3)" d="M 281.124324 333.107027 
" style="fill:none;stroke:#d62728;stroke-linecap:square;stroke-width:1.5;"/>
    <defs>
     <path d="M 0 -5 
L -4.755283 -1.545085 
L -2.938926 4.045085 
L 2.938926 4.045085 
L 4.755283 -1.545085 
z
" id="m9cd82746bc" style="stroke:#6cfdbf;stroke-linejoin:miter;"/>
    </defs>
    <g clip-path="url(#p92349df7c3)">
     <use style="fill:#6cfdbf;stroke:#6cfdbf;stroke-linejoin:miter;" x="281.124324" xlink:href="#m9cd82746bc" y="333.107027"/>
    </g>
   </g>
   <g id="line2d_27">
    <path clip-path="url(#p92349df7c3)" d="M 140.367568 304.955676 
" style="fill:none;stroke:#9467bd;stroke-linecap:square;stroke-width:1.5;"/>
    <defs>
     <path d="M -5 5 
L 5 5 
L 5 -5 
L -5 -5 
z
" id="m0d4bb0839c" style="stroke:#93fda9;stroke-linejoin:miter;"/>
    </defs>
    <g clip-path="url(#p92349df7c3)">
     <use style="fill:#93fda9;stroke:#93fda9;stroke-linejoin:miter;" x="140.367568" xlink:href="#m0d4bb0839c" y="304.955676"/>
    </g>
   </g>
   <g id="line2d_28">
    <path clip-path="url(#p92349df7c3)" d="M 309.275676 276.804324 
" style="fill:none;stroke:#8c564b;stroke-linecap:square;stroke-width:1.5;"/>
    <defs>
     <path d="M 0 -5 
L -4.755283 -1.545085 
L -2.938926 4.045085 
L 2.938926 4.045085 
L 4.755283 -1.545085 
z
" id="ma5c9794611" style="stroke:#93fda9;stroke-linejoin:miter;"/>
    </defs>
    <g clip-path="url(#p92349df7c3)">
     <use style="fill:#93fda9;stroke:#93fda9;stroke-linejoin:miter;" x="309.275676" xlink:href="#ma5c9794611" y="276.804324"/>
    </g>
   </g>
   <g id="line2d_29">
    <path clip-path="url(#p92349df7c3)" d="M 393.72973 220.501622 
" style="fill:none;stroke:#e377c2;stroke-linecap:square;stroke-width:1.5;"/>
    <defs>
     <path d="M -5 5 
L 5 5 
L 5 -5 
L -5 -5 
z
" id="m5dcacae3df" style="stroke:#baee91;stroke-linejoin:miter;"/>
    </defs>
    <g clip-path="url(#p92349df7c3)">
     <use style="fill:#baee91;stroke:#baee91;stroke-linejoin:miter;" x="393.72973" xlink:href="#m5dcacae3df" y="220.501622"/>
    </g>
   </g>
   <g id="line2d_30">
    <path clip-path="url(#p92349df7c3)" d="M 140.367568 276.804324 
" style="fill:none;stroke:#7f7f7f;stroke-linecap:square;stroke-width:1.5;"/>
    <defs>
     <path d="M 0 -5 
L -4.755283 -1.545085 
L -2.938926 4.045085 
L 2.938926 4.045085 
L 4.755283 -1.545085 
z
" id="m93dbdfd554" style="stroke:#baee91;stroke-linejoin:miter;"/>
    </defs>
    <g clip-path="url(#p92349df7c3)">
     <use style="fill:#baee91;stroke:#baee91;stroke-linejoin:miter;" x="140.367568" xlink:href="#m93dbdfd554" y="276.804324"/>
    </g>
   </g>
   <g id="line2d_31">
    <path clip-path="url(#p92349df7c3)" d="M 140.367568 136.047568 
" style="fill:none;stroke:#bcbd22;stroke-linecap:square;stroke-width:1.5;"/>
    <defs>
     <path d="M -5 5 
L 5 5 
L 5 -5 
L -5 -5 
z
" id="m7fdfe4a5bd" style="stroke:#e2d277;stroke-linejoin:miter;"/>
    </defs>
    <g clip-path="url(#p92349df7c3)">
     <use style="fill:#e2d277;stroke:#e2d277;stroke-linejoin:miter;" x="140.367568" xlink:href="#m7fdfe4a5bd" y="136.047568"/>
    </g>
   </g>
   <g id="line2d_32">
    <path clip-path="url(#p92349df7c3)" d="M 252.972973 248.652973 
" style="fill:none;stroke:#17becf;stroke-linecap:square;stroke-width:1.5;"/>
    <defs>
     <path d="M 0 -5 
L -4.755283 -1.545085 
L -2.938926 4.045085 
L 2.938926 4.045085 
L 4.755283 -1.545085 
z
" id="mf4c5230ecc" style="stroke:#e2d277;stroke-linejoin:miter;"/>
    </defs>
    <g clip-path="url(#p92349df7c3)">
     <use style="fill:#e2d277;stroke:#e2d277;stroke-linejoin:miter;" x="252.972973" xlink:href="#mf4c5230ecc" y="248.652973"/>
    </g>
   </g>
   <g id="line2d_33">
    <path clip-path="url(#p92349df7c3)" d="M 337.427027 164.198919 
" style="fill:none;stroke:#1f77b4;stroke-linecap:square;stroke-width:1.5;"/>
    <defs>
     <path d="M -5 5 
L 5 5 
L 5 -5 
L -5 -5 
z
" id="m7f6082bc06" style="stroke:#ffa95a;stroke-linejoin:miter;"/>
    </defs>
    <g clip-path="url(#p92349df7c3)">
     <use style="fill:#ffa95a;stroke:#ffa95a;stroke-linejoin:miter;" x="337.427027" xlink:href="#m7f6082bc06" y="164.198919"/>
    </g>
   </g>
   <g id="line2d_34">
    <path clip-path="url(#p92349df7c3)" d="M 168.518919 389.40973 
" style="fill:none;stroke:#ff7f0e;stroke-linecap:square;stroke-width:1.5;"/>
    <defs>
     <path d="M 0 -5 
L -4.755283 -1.545085 
L -2.938926 4.045085 
L 2.938926 4.045085 
L 4.755283 -1.545085 
z
" id="m3e3f247218" style="stroke:#ffa95a;stroke-linejoin:miter;"/>
    </defs>
    <g clip-path="url(#p92349df7c3)">
     <use style="fill:#ffa95a;stroke:#ffa95a;stroke-linejoin:miter;" x="168.518919" xlink:href="#m3e3f247218" y="389.40973"/>
    </g>
   </g>
   <g id="line2d_35">
    <path clip-path="url(#p92349df7c3)" d="M 196.67027 445.712432 
" style="fill:none;stroke:#2ca02c;stroke-linecap:square;stroke-width:1.5;"/>
    <defs>
     <path d="M -5 5 
L 5 5 
L 5 -5 
L -5 -5 
z
" id="mc7a2a51013" style="stroke:#ff773d;stroke-linejoin:miter;"/>
    </defs>
    <g clip-path="url(#p92349df7c3)">
     <use style="fill:#ff773d;stroke:#ff773d;stroke-linejoin:miter;" x="196.67027" xlink:href="#mc7a2a51013" y="445.712432"/>
    </g>
   </g>
   <g id="line2d_36">
    <path clip-path="url(#p92349df7c3)" d="M 393.72973 136.047568 
" style="fill:none;stroke:#d62728;stroke-linecap:square;stroke-width:1.5;"/>
    <defs>
     <path d="M 0 -5 
L -4.755283 -1.545085 
L -2.938926 4.045085 
L 2.938926 4.045085 
L 4.755283 -1.545085 
z
" id="m643045964f" style="stroke:#ff773d;stroke-linejoin:miter;"/>
    </defs>
    <g clip-path="url(#p92349df7c3)">
     <use style="fill:#ff773d;stroke:#ff773d;stroke-linejoin:miter;" x="393.72973" xlink:href="#m643045964f" y="136.047568"/>
    </g>
   </g>
   <g id="line2d_37">
    <path clip-path="url(#p92349df7c3)" d="M 224.821622 333.107027 
" style="fill:none;stroke:#9467bd;stroke-linecap:square;stroke-width:1.5;"/>
    <defs>
     <path d="M -5 5 
L 5 5 
L 5 -5 
L -5 -5 
z
" id="m14c5b3b6c1" style="stroke:#ff3d1f;stroke-linejoin:miter;"/>
    </defs>
    <g clip-path="url(#p92349df7c3)">
     <use style="fill:#ff3d1f;stroke:#ff3d1f;stroke-linejoin:miter;" x="224.821622" xlink:href="#m14c5b3b6c1" y="333.107027"/>
    </g>
   </g>
   <g id="line2d_38">
    <path clip-path="url(#p92349df7c3)" d="M 281.124324 164.198919 
" style="fill:none;stroke:#8c564b;stroke-linecap:square;stroke-width:1.5;"/>
    <defs>
     <path d="M 0 -5 
L -4.755283 -1.545085 
L -2.938926 4.045085 
L 2.938926 4.045085 
L 4.755283 -1.545085 
z
" id="mb0cae36d1a" style="stroke:#ff3d1f;stroke-linejoin:miter;"/>
    </defs>
    <g clip-path="url(#p92349df7c3)">
     <use style="fill:#ff3d1f;stroke:#ff3d1f;stroke-linejoin:miter;" x="281.124324" xlink:href="#mb0cae36d1a" y="164.198919"/>
    </g>
   </g>
   <g id="line2d_39">
    <path clip-path="url(#p92349df7c3)" d="M 281.124324 361.258378 
" style="fill:none;stroke:#e377c2;stroke-linecap:square;stroke-width:1.5;"/>
    <defs>
     <path d="M -5 5 
L 5 5 
L 5 -5 
L -5 -5 
z
" id="m06e4faaec2" style="stroke:#ff0000;stroke-linejoin:miter;"/>
    </defs>
    <g clip-path="url(#p92349df7c3)">
     <use style="fill:#ff0000;stroke:#ff0000;stroke-linejoin:miter;" x="281.124324" xlink:href="#m06e4faaec2" y="361.258378"/>
    </g>
   </g>
   <g id="line2d_40">
    <path clip-path="url(#p92349df7c3)" d="M 337.427027 276.804324 
" style="fill:none;stroke:#7f7f7f;stroke-linecap:square;stroke-width:1.5;"/>
    <defs>
     <path d="M 0 -5 
L -4.755283 -1.545085 
L -2.938926 4.045085 
L 2.938926 4.045085 
L 4.755283 -1.545085 
z
" id="mab19eee849" style="stroke:#ff0000;stroke-linejoin:miter;"/>
    </defs>
    <g clip-path="url(#p92349df7c3)">
     <use style="fill:#ff0000;stroke:#ff0000;stroke-linejoin:miter;" x="337.427027" xlink:href="#mab19eee849" y="276.804324"/>
    </g>
   </g>
   <g id="line2d_41"/>
   <g id="line2d_42">
    <path clip-path="url(#p92349df7c3)" d="M 92.108108 493.971892 
L 92.108108 87.788108 
" style="fill:none;stroke:#000000;stroke-linecap:square;stroke-width:4;"/>
   </g>
   <g id="line2d_43">
    <path clip-path="url(#p92349df7c3)" d="M 92.108108 87.788108 
L 498.291892 87.788108 
" style="fill:none;stroke:#000000;stroke-linecap:square;stroke-width:4;"/>
   </g>
   <g id="line2d_44">
    <path clip-path="url(#p92349df7c3)" d="M 498.291892 87.788108 
L 498.291892 493.971892 
" style="fill:none;stroke:#000000;stroke-linecap:square;stroke-width:4;"/>
   </g>
   <g id="line2d_45">
    <path clip-path="url(#p92349df7c3)" d="M 498.291892 493.971892 
L 92.108108 493.971892 
" style="fill:none;stroke:#000000;stroke-linecap:square;stroke-width:4;"/>
   </g>
   <g id="line2d_46">
    <path clip-path="url(#p92349df7c3)" d="M 140.367568 389.40973 
L 141.493622 389.40973 
L 144.268541 389.047784 
L 147.003243 388.122811 
L 149.174919 387.077189 
L 153.679135 384.342486 
L 158.062703 381.245838 
L 170.931892 371.151568 
L 182.031568 362.263784 
L 190.155243 355.748757 
L 192.125838 354.341189 
L 194.619243 353.174919 
L 197.233297 352.451027 
L 202.260324 351.526054 
L 207.568865 350.72173 
L 217.381622 349.354378 
L 219.754378 348.952216 
L 224.700973 347.705514 
L 227.274811 346.941405 
L 231.939892 345.171892 
L 234.312649 344.045838 
L 238.776649 341.632865 
L 241.390703 340.788324 
L 246.699243 340.024216 
L 257.075027 338.857946 
L 259.528216 338.898162 
L 266.928 339.66227 
L 267.008432 339.742703 
L 267.772541 341.069838 
L 268.496432 343.764324 
L 268.496432 345.694703 
L 268.335568 347.062054 
L 267.410595 349.515243 
L 266.405189 351.003243 
L 265.359568 352.249946 
L 264.957405 352.853189 
L 264.716108 353.657514 
L 264.675892 354.421622 
L 264.957405 355.628108 
L 265.560649 356.995459 
L 266.405189 358.362811 
L 267.852973 360.132324 
L 269.662703 361.942054 
L 271.472432 363.510486 
L 273.563676 365.159351 
L 279.676541 369.301622 
L 281.687351 371.593946 
L 283.054703 373.926486 
L 284.381838 375.736216 
L 285.95027 377.184 
L 287.880649 378.551351 
L 289.368649 379.355676 
L 290.736 379.878486 
L 292.183784 380.280649 
L 295.642378 380.803459 
L 296.406486 380.682811 
L 297.291243 380.119784 
L 298.578162 378.511135 
L 299.543351 376.178595 
L 300.508541 371.071135 
L 301.192216 367.894054 
L 301.353081 366.727784 
L 301.353081 366.808216 
L 301.674811 367.009297 
L 301.513946 367.009297 
L 301.152 367.170162 
L 300.146595 368.054919 
L 298.899892 370.06573 
L 298.296649 371.996108 
L 298.256432 372.317838 
L 298.256432 372.237405 
L 298.49773 373.122162 
L 298.739027 373.564541 
L 299.422703 374.248216 
L 300.588973 374.851459 
L 301.47373 375.092757 
L 302.800865 374.730811 
L 304.771459 373.725405 
L 306.862703 372.156973 
L 308.390919 370.467892 
L 309.597405 368.175568 
L 310.441946 365.722378 
L 312.332108 358.443243 
L 314.262486 353.456432 
L 315.388541 351.164108 
L 316.916757 349.354378 
L 319.369946 347.584865 
L 324.276324 344.850162 
L 329.182703 342.115459 
L 331.153297 340.788324 
L 333.043459 338.978595 
L 334.853189 336.68627 
L 336.099892 334.675459 
L 337.427027 332.302703 
L 339.51827 327.999568 
L 344.545297 316.457514 
L 346.596324 314.165189 
L 349.049514 312.87827 
L 351.462486 312.275027 
L 353.593946 311.551135 
L 355.685189 310.626162 
L 358.259027 309.178378 
L 360.672 307.56973 
L 364.693622 304.473081 
L 368.112 301.899243 
L 369.519568 301.135135 
L 371.168432 300.491676 
L 374.747676 299.48627 
L 376.557405 299.003676 
L 378.809514 298.601514 
L 381.383351 298.279784 
L 384.077838 298.159135 
L 389.466811 298.360216 
L 393.649297 298.601514 
L 395.660108 298.480865 
L 399.963243 298.32 
L 401.330595 297.958054 
L 403.140324 297.193946 
L 404.467459 296.51027 
L 409.977081 293.011459 
L 412.792216 290.759351 
L 415.285622 288.306162 
L 418.462703 284.445405 
L 420.111568 282.032432 
L 421.478919 279.780324 
L 423.570162 275.477189 
L 424.535351 272.983784 
L 425.299459 270.691459 
L 425.942919 268.399135 
L 426.586378 265.543784 
L 427.471135 260.034162 
L 427.873297 254.966919 
L 427.95373 252.553946 
L 427.873297 250.181189 
L 427.511351 248.130162 
L 426.787459 245.596541 
L 425.82227 243.103135 
L 424.696216 240.690162 
L 422.00173 235.783784 
L 419.508324 231.68173 
L 415.205189 224.885189 
L 407.724973 213.463784 
L 395.579676 195.125189 
L 395.579676 195.125189 
" style="fill:none;stroke:#8000ff;stroke-linecap:square;stroke-width:1.5;"/>
   </g>
   <g id="line2d_47">
    <path clip-path="url(#p92349df7c3)" d="M 450.032432 192.35027 
L 450.27373 192.430703 
L 450.515027 192.953514 
L 450.635676 194.119784 
L 450.233514 196.009946 
L 449.429189 197.859892 
L 448.102054 199.910919 
L 446.372757 201.961946 
L 444.482595 203.852108 
L 440.822919 206.948757 
L 434.388324 211.814919 
L 425.942919 217.968 
L 393.850378 240.851027 
L 391.718919 242.540108 
L 390.070054 244.550919 
L 388.823351 246.601946 
L 387.978811 248.411676 
L 387.496216 250.221405 
L 387.174486 252.795243 
L 387.094054 255.449514 
L 386.571243 258.345081 
L 385.766919 260.637405 
L 383.957189 264.900324 
L 383.394162 266.147027 
L 382.831135 266.951351 
L 382.067027 267.755676 
L 380.860541 268.680649 
L 377.401946 270.611027 
L 375.069405 272.300108 
L 372.093405 274.873946 
L 369.519568 276.723892 
L 368.112 277.970595 
L 366.704432 280.102054 
L 366.101189 282.595459 
L 366.30227 284.887784 
L 367.307676 287.501838 
L 368.514162 289.633297 
L 369.559784 292.04627 
L 370.042378 294.499459 
L 370.726054 296.349405 
L 372.535784 299.48627 
L 372.857514 300.893838 
L 373.018378 305.840432 
L 373.098811 308.776216 
L 372.978162 313.883676 
L 372.817297 315.612973 
L 372.415135 317.181405 
L 372.133622 319.634595 
L 372.455351 322.489946 
L 373.541189 327.396324 
L 373.541189 330.412541 
L 373.179243 332.544 
L 372.576 335.19827 
L 372.053189 338.013405 
L 372.012973 340.788324 
L 372.053189 340.707892 
L 371.811892 341.311135 
L 371.369514 342.96 
L 371.40973 345.131676 
L 371.892324 346.941405 
L 372.696649 348.469622 
L 375.431351 353.174919 
L 376.195459 355.829189 
L 376.436757 358.282378 
L 376.235676 361.017081 
L 375.632432 363.671351 
L 374.627027 366.325622 
L 373.139027 368.57773 
L 371.40973 370.709189 
L 369.398919 372.840649 
L 365.578378 376.299243 
L 361.83827 379.355676 
L 357.052541 382.81427 
L 354.639568 384.503351 
L 350.095135 387.358703 
L 345.188757 390.173838 
L 340.644324 392.506378 
L 332.922811 396.005189 
L 330.952216 397.292108 
L 324.799135 402.439784 
L 322.345946 404.169081 
L 320.053622 405.576649 
L 317.680865 406.863568 
L 314.86573 407.989622 
L 312.050595 408.391784 
L 309.396324 408.190703 
L 306.983351 407.667892 
L 304.409514 406.863568 
L 299.462919 404.732108 
L 294.918486 402.399568 
L 288.121946 398.619243 
L 274.931027 390.89773 
L 247.704649 374.811243 
L 238.012541 369.060324 
L 228.56173 363.47027 
L 228.56173 363.47027 
" style="fill:none;stroke:#583dfd;stroke-linecap:square;stroke-width:1.5;"/>
   </g>
   <g id="line2d_48">
    <path clip-path="url(#p92349df7c3)" d="M 402.175135 440.082162 
L 402.01427 440.122378 
L 401.893622 440.202811 
L 402.175135 439.720216 
L 402.376216 438.714811 
L 402.054486 437.267027 
L 401.089297 435.256216 
L 398.314378 430.752 
L 393.448216 423.673946 
L 388.944 417.36 
L 381.18227 406.742919 
L 373.621622 396.326919 
L 358.942703 376.178595 
L 352.588541 367.532108 
L 338.512865 347.987027 
L 337.065081 345.413189 
L 329.826162 330.814703 
L 328.458811 328.562595 
L 325.482811 324.179027 
L 322.426378 320.358486 
L 321.823135 319.513946 
L 321.943784 318.910703 
L 322.104649 317.141189 
L 321.622054 314.607568 
L 320.17427 312.234811 
L 317.922162 310.143568 
L 318.042811 310.224 
L 317.600432 310.103351 
L 316.032 310.264216 
L 313.417946 311.189189 
L 310.924541 311.551135 
L 308.471351 311.189189 
L 306.380108 310.344649 
L 304.168216 309.097946 
L 302.278054 307.368649 
L 296.446703 302.582919 
L 293.913081 301.456865 
L 291.379459 301.255784 
L 288.886054 301.698162 
L 286.352432 301.657946 
L 284.019892 300.97427 
L 279.475459 299.003676 
L 276.700541 298.199351 
L 274.368 297.837405 
L 269.58227 297.596108 
L 266.928 297.636324 
L 261.337946 298.199351 
L 256.351135 299.043892 
L 251.404541 300.210162 
L 248.669838 301.175351 
L 234.594162 308.293622 
L 225.304216 313.079351 
L 222.046703 314.486919 
L 215.330595 316.658595 
L 213.158919 317.141189 
L 212.354595 317.141189 
L 209.700324 316.899892 
L 206.764541 316.417297 
L 203.868973 315.733622 
L 201.013622 314.808649 
L 198.520216 313.803243 
L 196.067027 312.636973 
L 193.975784 311.430486 
L 189.87373 308.575135 
L 187.219459 306.564324 
L 185.852108 305.357838 
L 184.042378 303.548108 
L 182.554378 301.698162 
L 181.187027 299.647135 
L 179.859892 296.952649 
L 179.015351 294.660324 
L 178.331676 292.04627 
L 177.929514 289.593081 
L 177.96973 286.858378 
L 178.452324 283.922595 
L 179.095784 281.549838 
L 180.784865 277.005405 
L 181.991351 274.270703 
L 182.956541 272.460973 
L 184.565189 270.490378 
L 186.616216 268.680649 
L 188.948757 267.232865 
L 196.067027 264.176432 
L 198.640865 262.809081 
L 201.13427 261.280865 
L 203.305946 259.752649 
L 205.517838 257.82227 
L 207.166703 255.771243 
L 208.534054 253.519135 
L 209.660108 251.106162 
L 210.504649 248.612757 
L 210.70573 245.998703 
L 210.504649 243.143351 
L 209.338378 235.663135 
L 209.338378 232.646919 
L 209.660108 230.233946 
L 210.182919 227.579676 
L 210.826378 225.206919 
L 212.636108 219.858162 
L 214.405622 215.353946 
L 218.467459 206.023784 
L 221.926054 198.463135 
L 222.931459 196.251243 
L 222.931459 196.251243 
" style="fill:none;stroke:#3177f8;stroke-linecap:square;stroke-width:1.5;"/>
   </g>
   <g id="line2d_49">
    <path clip-path="url(#p92349df7c3)" d="M 224.821622 136.047568 
L 225.505297 136.087784 
L 227.274811 136.369297 
L 229.486703 137.213838 
L 231.819243 138.621405 
L 233.749622 140.109405 
L 235.720216 141.959351 
L 237.369081 143.728865 
L 239.138595 145.779892 
L 240.666811 147.629838 
L 242.476541 149.962378 
L 244.085189 152.134054 
L 245.854703 154.506811 
L 247.26227 156.437189 
L 248.870919 158.608865 
L 250.439351 160.780541 
L 251.967568 162.952216 
L 253.536 165.164108 
L 254.943568 167.094486 
L 256.512 169.266162 
L 258.080432 171.478054 
L 259.648865 173.64973 
L 261.177081 175.821405 
L 262.745514 177.993081 
L 264.313946 180.204973 
L 265.721514 182.135351 
L 267.289946 184.347243 
L 268.818162 186.518919 
L 270.467027 188.489514 
L 272.477838 190.138378 
L 274.810378 191.344865 
L 277.303784 191.988324 
L 280.199351 192.430703 
L 282.934054 192.712216 
L 285.829622 193.275243 
L 288.604541 193.798054 
L 291.258811 193.878486 
L 294.194595 193.798054 
L 297.170595 193.798054 
L 299.865081 193.918703 
L 302.559568 194.16 
L 305.254054 194.602378 
L 308.069189 195.688216 
L 310.441946 196.934919 
L 312.492973 198.262054 
L 314.503784 199.629405 
L 316.916757 201.318486 
L 319.088432 202.886919 
L 321.219892 204.535784 
L 323.110054 206.104216 
L 325.080649 207.954162 
L 326.970811 209.844324 
L 328.579459 211.734486 
L 329.785946 213.865946 
L 330.912 216.319135 
L 331.716324 218.28973 
L 332.560865 220.260324 
L 333.606486 222.75373 
L 334.531459 224.965622 
L 335.617297 227.257946 
L 337.105297 229.067676 
L 339.397622 230.877405 
L 341.408432 232.204541 
L 343.419243 233.571892 
L 345.631135 235.100108 
L 347.802811 236.668541 
L 350.175568 238.47827 
L 352.06573 239.96627 
L 354.116757 241.414054 
L 356.248216 242.218378 
L 358.86227 242.620541 
L 361.436108 243.58573 
L 363.165405 244.832432 
L 365.417514 245.958486 
L 367.629405 246.400865 
L 369.801081 246.923676 
L 371.771676 248.009514 
L 373.621622 249.618162 
L 375.350919 251.226811 
L 377.401946 252.956108 
L 379.372541 254.84627 
L 381.18227 256.816865 
L 382.951784 258.867892 
L 384.841946 261.12 
L 386.611459 263.492757 
L 387.938595 266.187243 
L 388.702703 268.519784 
L 389.26573 270.892541 
L 389.748324 273.828324 
L 390.11027 276.482595 
L 390.351568 279.177081 
L 390.592865 281.871568 
L 390.75373 284.807351 
L 390.914595 287.220324 
L 391.035243 290.156108 
L 391.196108 293.091892 
L 391.276541 295.786378 
L 391.397189 298.480865 
L 391.477622 300.893838 
L 391.59827 303.548108 
L 391.678703 305.961081 
L 391.799351 308.374054 
L 391.879784 310.787027 
L 391.960216 313.481514 
L 392.080865 315.894486 
L 392.161297 318.548757 
L 392.281946 321.524757 
L 392.362378 323.93773 
L 392.442811 326.310486 
L 392.563459 329.286486 
L 392.643892 331.699459 
L 392.724324 334.112432 
L 392.844973 337.048216 
L 392.965622 339.984 
L 393.046054 342.396973 
L 393.126486 345.091459 
L 393.247135 348.027243 
L 393.367784 350.963027 
L 393.448216 353.657514 
L 393.568865 356.352 
L 393.649297 359.00627 
" style="fill:none;stroke:#0aa9ee;stroke-linecap:square;stroke-width:1.5;"/>
   </g>
   <g id="line2d_50">
    <path clip-path="url(#p92349df7c3)" d="M 450.032432 304.955676 
L 449.831351 305.036108 
L 449.670486 305.237189 
L 449.670486 304.995892 
L 449.509622 304.272 
L 449.067243 303.507892 
L 447.539027 302.140541 
L 445.80973 301.094919 
L 443.477189 299.968865 
L 440.983784 299.084108 
L 436.117622 297.676541 
L 428.315676 295.826595 
L 390.230919 287.984432 
L 387.375568 287.300757 
L 385.364757 286.375784 
L 383.112649 284.887784 
L 381.423568 283.600865 
L 380.780108 283.319351 
L 380.217081 283.319351 
L 378.648649 283.922595 
L 376.71827 285.289946 
L 375.029189 286.858378 
L 373.782486 288.708324 
L 368.232649 300.009081 
L 367.026162 302.060108 
L 365.337081 304.151351 
L 363.366486 306.001297 
L 361.275243 307.328432 
L 359.063351 308.333838 
L 356.248216 309.258811 
L 353.955892 309.862054 
L 348.406054 311.792432 
L 345.952865 312.87827 
L 342.695351 314.929297 
L 342.413838 315.130378 
L 342.49427 315.00973 
L 342.49427 314.889081 
L 342.655135 315.653189 
L 343.499676 317.744432 
L 345.269189 319.916108 
L 347.400649 321.605189 
L 347.400649 323.093189 
L 346.757189 325.747459 
L 345.550703 327.838703 
L 343.781189 329.929946 
L 342.051892 331.619027 
L 339.799784 333.549405 
L 337.628108 335.077622 
L 335.295568 335.962378 
L 332.239135 336.203676 
L 329.544649 335.84173 
L 324.557838 334.675459 
L 322.225297 334.072216 
L 319.772108 333.670054 
L 316.997189 334.112432 
L 314.101622 335.600432 
L 312.251676 337.209081 
L 310.643027 339.340541 
L 309.155027 341.552432 
L 307.546378 343.724108 
L 305.897514 345.372973 
L 304.610595 347.10227 
L 303.846486 349.23373 
L 303.766054 348.952216 
L 303.404108 348.831568 
L 303.685622 348.670703 
L 304.570378 347.866378 
L 305.616 346.056649 
L 306.179027 344.327351 
L 307.224649 339.461189 
L 308.028973 336.847135 
L 310.200649 331.940757 
L 316.112432 319.875892 
L 317.238486 317.462919 
L 318.083027 315.170595 
L 318.243892 313.561946 
L 317.801514 313.119568 
L 316.032 312.476108 
L 312.694054 312.315243 
L 309.396324 311.631568 
L 306.822486 309.982703 
L 305.213838 308.253405 
L 303.243243 306.604541 
L 300.870486 305.398054 
L 295.883676 303.306811 
L 286.272 298.561297 
L 277.263568 293.775568 
L 270.708324 290.075676 
L 268.09427 288.748541 
L 262.946595 286.416 
L 260.815135 285.330162 
L 258.643459 284.364973 
L 256.109838 283.721514 
L 253.21427 283.44 
L 239.82227 283.037838 
L 233.950703 282.474811 
L 231.819243 282.193297 
L 226.510703 281.187892 
L 223.896649 280.423784 
L 221.202162 279.056432 
L 218.789189 277.327135 
L 216.537081 275.356541 
L 212.877405 271.415351 
L 209.338378 266.991568 
L 206.322162 262.889514 
L 203.386378 258.747243 
L 198.681081 251.830054 
L 198.681081 251.830054 
" style="fill:none;stroke:#1dd2e2;stroke-linecap:square;stroke-width:1.5;"/>
   </g>
   <g id="line2d_51">
    <path clip-path="url(#p92349df7c3)" d="M 140.367568 248.652973 
L 143.826162 248.693189 
L 148.893405 249.014919 
L 154.523676 249.497514 
L 166.508108 250.784432 
L 184.364108 252.835459 
L 195.021405 254.041946 
L 204.391784 255.087568 
L 205.718919 255.127784 
L 207.609081 254.84627 
L 210.182919 253.68 
L 212.274162 252.071351 
L 214.52627 250.543135 
L 216.054486 249.939892 
L 217.341405 249.779027 
L 218.869622 249.779027 
L 221.322811 250.060541 
L 223.776 250.543135 
L 227.998703 252.071351 
L 227.878054 252.071351 
L 227.636757 252.312649 
L 227.596541 252.433297 
L 227.395459 251.789838 
L 226.390054 250.583351 
L 224.540108 249.256216 
L 222.448865 248.291027 
L 220.397838 246.963892 
L 218.467459 245.033514 
L 216.697946 243.706378 
L 214.646919 241.776 
L 213.279568 239.041297 
L 212.394811 233.893622 
L 211.630703 229.148108 
L 211.349189 226.694919 
L 211.389405 224.281946 
L 211.670919 221.305946 
L 212.032865 219.094054 
L 212.837189 216.841946 
L 214.606703 214.388757 
L 218.668541 210.688865 
L 224.821622 205.500973 
L 226.591135 204.214054 
L 228.722595 203.007568 
L 230.974703 202.002162 
L 233.065946 200.916324 
L 235.478919 199.307676 
L 237.932108 197.538162 
L 240.46573 196.009946 
L 244.688432 193.717622 
L 251.082811 189.334054 
L 255.627243 186.478703 
L 260.332541 183.864649 
L 262.745514 182.658162 
L 265.279135 181.612541 
L 275.292973 178.918054 
L 277.746162 177.349622 
L 280.038486 176.263784 
L 282.411243 175.700757 
L 285.065514 175.218162 
L 287.599135 174.574703 
L 290.092541 173.689946 
L 292.465297 172.563892 
L 294.476108 171.236757 
L 296.406486 169.748757 
L 298.658595 168.703135 
L 301.152 168.381405 
L 304.168216 168.864 
L 306.500757 169.628108 
L 310.964757 171.598703 
L 313.056 172.764973 
L 315.428757 174.655135 
L 317.278703 176.585514 
L 320.777514 180.687568 
L 326.12627 187.443892 
L 356.087351 226.976432 
L 357.535135 228.866595 
L 358.701405 230.595892 
L 359.344865 231.963243 
L 359.948108 233.612108 
L 360.430703 235.944649 
L 360.631784 238.960865 
L 359.988324 244.752 
L 359.948108 246.843243 
L 360.068757 248.813838 
L 360.672 250.663784 
L 361.958919 252.875676 
L 363.688216 254.886486 
L 365.779459 256.857081 
L 367.910919 258.505946 
L 370.444541 259.833081 
L 375.23027 261.522162 
L 377.522595 262.366703 
L 379.734486 263.452541 
L 382.268108 265.020973 
L 384.48 266.589405 
L 388.139676 269.806703 
L 389.868973 271.495784 
L 391.678703 273.466378 
L 391.678703 273.466378 
" style="fill:none;stroke:#45eed2;stroke-linecap:square;stroke-width:1.5;"/>
   </g>
   <g id="line2d_52">
    <path clip-path="url(#p92349df7c3)" d="M 281.124324 192.35027 
L 281.325405 192.390486 
L 282.089514 192.631784 
L 282.934054 193.315459 
L 284.060108 194.883892 
L 284.944865 197.015351 
L 285.668757 199.870703 
L 285.990486 202.002162 
L 286.191568 204.696649 
L 286.312216 207.672649 
L 286.352432 210.367135 
L 286.312216 213.584432 
L 286.272 215.997405 
L 286.191568 218.651676 
L 286.070919 221.868973 
L 285.990486 224.040649 
L 285.869838 226.976432 
L 285.789405 229.389405 
L 285.668757 232.083892 
L 285.588324 234.215351 
L 285.427459 237.432649 
L 285.306811 239.845622 
L 285.226378 242.258595 
L 285.065514 245.475892 
L 284.944865 247.888865 
L 284.864432 250.020324 
L 284.743784 252.433297 
L 284.623135 255.650595 
L 284.582919 257.862486 
L 284.944865 260.195027 
L 285.789405 262.92973 
L 286.754595 265.423135 
L 287.679568 267.635027 
L 288.805622 270.36973 
L 289.56973 272.420757 
L 290.132757 275.075027 
L 290.374054 277.80973 
L 290.374054 280.78573 
L 290.213189 283.721514 
L 289.891459 286.416 
L 289.529514 289.351784 
L 289.087135 292.006054 
L 288.684973 294.378811 
L 288.282811 296.751568 
L 287.961081 298.722162 
L 287.880649 300.169946 
L 288.001297 301.939459 
L 288.363243 304.553514 
L 288.845838 307.167568 
L 289.288216 309.258811 
L 289.770811 311.913081 
L 290.293622 315.090162 
L 290.534919 317.020541 
L 290.695784 318.186811 
L 290.896865 319.674811 
L 290.977297 321.001946 
L 291.017514 321.926919 
L 290.977297 322.329081 
L 290.937081 322.44973 
L 290.615351 322.731243 
L 289.529514 323.455135 
L 287.840432 324.299676 
L 285.507892 325.104 
L 282.732973 325.827892 
L 281.043892 326.471351 
L 280.521081 326.712649 
L 280.561297 326.672432 
L 280.32 327.034378 
L 280.078703 327.557189 
L 279.837405 328.321297 
L 279.756973 329.447351 
" style="fill:none;stroke:#6cfdbf;stroke-linecap:square;stroke-width:1.5;"/>
   </g>
   <g id="line2d_53">
    <path clip-path="url(#p92349df7c3)" d="M 140.367568 304.955676 
L 142.177297 304.955676 
L 144.831568 304.835027 
L 147.244541 304.633946 
L 149.898811 304.312216 
L 152.271568 303.990486 
L 155.207351 303.588324 
L 157.821405 303.145946 
L 160.757189 302.703568 
L 163.652757 302.220973 
L 166.025514 301.818811 
L 168.679784 301.336216 
L 171.334054 300.893838 
L 173.948108 300.451459 
L 176.883892 299.928649 
L 179.497946 299.48627 
L 181.870703 299.043892 
L 184.524973 298.601514 
L 187.420541 298.078703 
L 189.793297 297.676541 
L 192.20627 297.274378 
L 194.579027 296.832 
L 197.193081 296.389622 
L 199.565838 295.947243 
L 201.978811 295.545081 
L 204.150486 295.142919 
L 205.799351 294.861405 
L 208.051459 294.821189 
L 210.70573 295.585297 
L 213.078486 296.791784 
L 215.049081 297.475459 
L 217.381622 297.877622 
L 220.277189 298.038486 
L 222.649946 297.917838 
L 225.022703 297.636324 
L 227.395459 297.314595 
L 229.768216 296.872216 
L 232.663784 296.268973 
L 234.956108 295.826595 
L 237.369081 295.705946 
L 240.063568 295.907027 
L 242.959135 296.429838 
L 245.331892 296.912432 
L 247.945946 297.475459 
L 249.956757 297.877622 
L 251.283892 297.958054 
L 252.812108 297.837405 
L 254.219676 297.676541 
L 255.707676 297.555892 
L 257.436973 297.435243 
L 258.884757 297.354811 
L 260.493405 297.234162 
L 261.900973 296.832 
L 263.348757 296.228757 
L 265.44 294.982054 
L 267.531243 293.373405 
L 269.662703 291.402811 
L 271.552865 289.472432 
L 273.20173 287.702919 
L 274.850595 285.973622 
L 276.700541 284.043243 
L 278.952649 282.072649 
L 280.963459 280.906378 
L 283.336216 280.343351 
L 286.111135 280.624865 
L 288.684973 281.63027 
L 291.339243 283.11827 
L 293.510919 284.204108 
L 296.245622 285.209514 
L 298.015135 285.692108 
L 298.739027 285.772541 
L 298.899892 285.772541 
L 299.583568 285.330162 
L 301.232432 283.480216 
L 302.076973 281.590054 
L 302.599784 279.257514 
L 302.921514 276.924973 
L 303.484541 274.270703 
L 304.650811 272.058811 
L 306.058378 270.36973 
L 307.063784 269.525189 
L 308.109405 268.801297 
L 310.200649 267.474162 
L 311.970162 266.227459 
L 312.935351 265.423135 
L 313.779892 264.256865 
L 314.302703 263.171027 
L 314.383135 262.92973 
L 314.383135 263.010162 
L 314.423351 263.130811 
L 314.463568 263.211243 
L 314.101622 262.92973 
L 313.176649 262.567784 
L 311.568 262.447135 
L 309.436541 262.809081 
L 307.586595 263.532973 
L 305.897514 264.578595 
L 304.489946 265.825297 
L 303.404108 267.152432 
L 302.559568 268.519784 
L 302.036757 269.72627 
L 301.674811 270.892541 
L 301.433514 272.621838 
L 301.47373 274.873946 
L 301.755243 277.005405 
L 302.117189 278.734703 
L 302.479135 279.820541 
L 302.800865 280.544432 
L 303.162811 281.187892 
L 303.564973 281.750919 
L 303.967135 282.193297 
L 304.329081 282.515027 
L 304.691027 282.836757 
L 304.771459 282.917189 
L 304.771459 282.876973 
L 305.052973 283.037838 
L 305.133405 283.078054 
L 305.495351 283.158486 
L 305.616 283.198703 
L 305.575784 283.198703 
L 305.857297 283.198703 
L 306.179027 283.198703 
L 306.581189 282.997622 
L 307.868108 281.750919 
L 309.114811 279.539027 
" style="fill:none;stroke:#93fda9;stroke-linecap:square;stroke-width:1.5;"/>
   </g>
   <g id="line2d_54">
    <path clip-path="url(#p92349df7c3)" d="M 393.72973 220.501622 
L 393.930811 220.541838 
L 394.091676 220.783135 
L 394.091676 221.386378 
L 393.72973 222.351568 
L 392.804757 223.638486 
L 391.075459 224.965622 
L 388.501622 226.332973 
L 386.249514 227.257946 
L 383.715892 228.06227 
L 378.246486 229.469838 
L 370.122811 231.279568 
L 350.738595 235.260973 
L 348.607135 236.185946 
L 346.355027 237.63373 
L 344.022486 238.960865 
L 341.569297 240.006486 
L 336.662919 241.45427 
L 334.048865 241.896649 
L 329.584865 242.137946 
L 327.292541 242.379243 
L 324.63827 243.022703 
L 319.731892 243.746595 
L 317.479784 244.390054 
L 313.096216 246.441081 
L 310.240865 247.245405 
L 307.827892 248.04973 
L 305.616 249.256216 
L 303.564973 249.899676 
L 301.152 249.980108 
L 298.739027 249.577946 
L 296.567351 248.813838 
L 295.320649 248.009514 
L 294.194595 246.682378 
L 294.194595 246.682378 
L 294.114162 246.481297 
L 294.194595 245.395459 
L 294.194595 245.435676 
L 295.079351 244.631351 
L 297.492324 243.304216 
L 300.227027 242.781405 
L 303.203027 242.861838 
L 305.213838 242.660757 
L 307.385514 241.816216 
L 309.436541 240.368432 
L 311.24627 238.196757 
L 312.533189 235.703351 
L 312.854919 233.16973 
L 312.573405 230.957838 
L 312.131027 228.544865 
L 311.085405 225.890595 
L 309.677838 223.59827 
L 308.350703 220.944 
L 307.42573 218.370162 
L 306.701838 215.876757 
L 304.731243 210.930162 
L 303.886703 208.195459 
L 302.881297 202.927135 
L 302.157405 200.393514 
L 299.020541 193.154595 
L 299.100973 193.194811 
L 298.698811 192.99373 
L 297.411892 192.672 
L 295.883676 192.631784 
L 294.596757 193.074162 
L 292.465297 194.48173 
L 291.05773 196.291459 
L 290.092541 198.342486 
L 289.087135 200.835892 
L 287.880649 203.530378 
L 285.10573 208.476973 
L 283.497081 210.688865 
L 281.365622 212.820324 
L 279.193946 214.469189 
L 276.700541 216.077838 
L 274.528865 217.123459 
L 271.914811 217.726703 
L 269.461622 217.847351 
L 267.008432 217.686486 
L 264.313946 217.324541 
L 251.123027 214.911568 
L 245.814486 214.308324 
L 240.224432 213.946378 
L 234.594162 213.865946 
L 229.526919 214.067027 
L 223.534703 214.509405 
L 220.840216 214.428973 
L 218.226162 214.630054 
L 215.451243 215.394162 
L 213.279568 216.359351 
L 211.188324 217.485405 
L 209.137297 218.772324 
L 204.592865 222.029838 
L 198.761514 226.735135 
L 192.166054 232.244757 
L 187.903135 235.904432 
L 185.731459 237.593514 
L 183.760865 238.598919 
L 181.468541 239.403243 
L 178.81427 240.046703 
L 174.068757 240.971676 
L 169.162378 242.137946 
L 167.111351 242.741189 
L 164.859243 243.545514 
L 161.883243 244.752 
L 159.832216 245.878054 
L 157.901838 247.245405 
L 155.971459 249.055135 
L 154.242162 251.02573 
L 152.794378 252.915892 
L 150.019459 257.178811 
L 147.405405 261.843892 
L 145.072865 266.348108 
L 141.976216 272.903351 
L 141.976216 272.903351 
" style="fill:none;stroke:#baee91;stroke-linecap:square;stroke-width:1.5;"/>
   </g>
   <g id="line2d_55">
    <path clip-path="url(#p92349df7c3)" d="M 140.367568 136.047568 
L 141.775135 136.087784 
L 144.550054 136.650811 
L 147.204324 137.817081 
L 149.536865 139.224649 
L 151.909622 140.994162 
L 153.759568 142.562595 
L 155.569297 144.211459 
L 157.499676 146.061405 
L 159.590919 148.152649 
L 161.641946 150.284108 
L 163.491892 152.214486 
L 165.341838 154.144865 
L 167.352649 156.316541 
L 169.202595 158.287135 
L 170.851459 160.056649 
L 172.86227 162.188108 
L 174.873081 164.359784 
L 176.320865 165.928216 
L 178.130595 167.898811 
L 179.618595 169.467243 
L 181.589189 171.638919 
L 183.439135 173.609514 
L 185.088 175.379027 
L 187.058595 177.510486 
L 188.908541 179.481081 
L 190.71827 181.451676 
L 192.528 183.42227 
L 194.176865 185.191784 
L 195.986595 187.162378 
L 197.997405 189.334054 
L 199.64627 191.103568 
L 201.456 193.074162 
L 203.104865 194.843676 
L 204.75373 196.613189 
L 206.764541 198.784865 
L 208.775351 200.916324 
L 210.585081 202.886919 
L 212.595892 205.058595 
L 214.043676 206.627027 
L 216.054486 208.798703 
L 218.065297 210.970378 
L 219.875027 212.940973 
L 220.880432 213.986595 
L 222.127135 215.31373 
L 223.735784 216.560432 
L 226.028108 217.766919 
L 227.998703 218.531027 
L 230.532324 219.335351 
L 233.387676 220.179892 
L 235.881081 220.944 
L 238.696216 221.667892 
L 241.229838 222.230919 
L 243.843892 222.592865 
L 246.779676 222.954811 
L 249.433946 223.356973 
L 250.841514 223.59827 
L 251.72627 223.759135 
L 252.570811 223.960216 
L 253.254486 224.161297 
L 253.576216 224.24173 
L 253.576216 224.24173 
L 254.259892 224.322162 
L 255.34573 224.362378 
L 257.356541 224.322162 
L 259.930378 223.92 
L 261.941189 223.236324 
L 263.750919 222.190703 
L 265.359568 220.501622 
L 265.922595 219.496216 
L 266.043243 219.174486 
L 266.043243 219.174486 
L 266.244324 218.611459 
L 266.324757 218.490811 
L 266.324757 218.490811 
L 266.364973 218.450595 
L 266.405189 218.410378 
L 266.485622 218.370162 
L 266.928 218.249514 
L 267.772541 218.169081 
L 269.260541 218.370162 
L 270.708324 218.732108 
L 271.794162 219.496216 
L 272.960432 220.984216 
L 274.006054 223.59827 
L 274.166919 226.373189 
L 273.644108 229.067676 
L 272.719135 231.279568 
L 271.030054 233.451243 
L 268.858378 234.939243 
L 266.445405 235.904432 
L 263.831351 236.588108 
L 261.217297 237.030486 
L 258.804324 237.513081 
L 256.552216 238.558703 
L 254.541405 240.127135 
L 253.334919 241.414054 
L 252.409946 242.459676 
L 251.364324 243.706378 
L 250.519784 245.355243 
" style="fill:none;stroke:#e2d277;stroke-linecap:square;stroke-width:1.5;"/>
   </g>
   <g id="line2d_56">
    <path clip-path="url(#p92349df7c3)" d="M 337.427027 164.198919 
L 337.587892 164.239135 
L 337.708541 164.319568 
L 338.03027 164.802162 
L 338.311784 165.727135 
L 338.231351 167.014054 
L 337.467243 169.18573 
L 336.099892 171.759568 
L 333.164108 176.263784 
L 330.348973 180.164757 
L 324.035027 188.52973 
L 317.52 197.015351 
L 307.827892 209.522595 
L 306.299676 211.332324 
L 304.128 213.021405 
L 301.111784 214.589838 
L 299.784649 215.715892 
L 298.698811 217.404973 
L 298.135784 219.817946 
L 298.336865 222.673297 
L 299.462919 226.976432 
L 299.503135 229.389405 
L 298.658595 231.963243 
L 296.969514 234.175135 
L 294.677189 235.703351 
L 289.891459 237.553297 
L 280.762378 241.735784 
L 280.842811 241.615135 
L 280.802595 241.333622 
L 280.360216 240.770595 
L 280.561297 241.212973 
L 279.99827 242.419459 
L 277.545081 246.803027 
L 276.579892 249.175784 
L 275.252757 251.468108 
L 273.362595 253.559351 
L 271.874595 255.650595 
L 270.627892 258.264649 
L 269.300757 260.195027 
L 267.611676 261.763459 
L 256.391351 268.600216 
L 249.474162 272.179459 
L 247.26227 273.184865 
L 244.688432 274.069622 
L 239.741838 275.316324 
L 234.393081 277.045622 
L 232.422486 277.890162 
L 228.119351 279.981405 
L 221.363027 283.801946 
L 214.968649 287.702919 
L 214.003459 288.024649 
L 214.003459 288.024649 
L 212.756757 287.984432 
L 209.056865 288.105081 
L 207.930811 287.743135 
L 206.442811 287.58227 
L 206.603676 287.501838 
L 206.684108 287.421405 
L 206.603676 287.743135 
L 206.563459 288.989838 
L 207.206919 291.282162 
L 209.177514 294.499459 
L 211.308973 297.797189 
L 212.394811 299.687351 
L 213.68173 302.341622 
L 214.606703 304.875243 
L 215.330595 307.489297 
L 215.813189 310.143568 
L 216.094703 312.838054 
L 216.175135 315.572757 
L 215.933838 318.307459 
L 215.330595 320.680216 
L 214.566486 322.731243 
L 213.561081 324.983351 
L 212.354595 327.356108 
L 209.579676 331.980973 
L 204.914595 338.898162 
L 198.399568 348.067459 
L 170.127568 387.197838 
L 170.127568 387.197838 
" style="fill:none;stroke:#ffa95a;stroke-linecap:square;stroke-width:1.5;"/>
   </g>
   <g id="line2d_57">
    <path clip-path="url(#p92349df7c3)" d="M 196.67027 445.712432 
L 197.394162 445.672216 
L 199.284324 445.149405 
L 201.053838 444.224432 
L 203.185297 442.696216 
L 204.914595 441.087568 
L 206.684108 439.116973 
L 209.418811 435.53773 
L 213.641514 429.304216 
L 228.320432 405.616865 
L 249.031784 371.754811 
L 249.996973 370.628757 
L 251.042595 369.663568 
L 252.892541 368.336432 
L 257.477189 365.521297 
L 259.930378 364.355027 
L 262.584649 363.671351 
L 265.238919 363.309405 
L 273.282162 362.665946 
L 281.48627 361.459459 
L 286.070919 360.574703 
L 287.599135 360.293189 
L 288.08173 360.534486 
L 289.730595 362.183351 
L 291.90227 363.47027 
L 294.516324 364.153946 
L 297.130378 365.320216 
L 299.302054 366.969081 
L 301.634595 368.014703 
L 303.484541 368.376649 
L 305.575784 368.899459 
L 308.109405 369.221189 
L 310.441946 370.146162 
L 312.131027 371.312432 
L 314.342919 372.358054 
L 316.554811 372.679784 
L 318.646054 372.840649 
L 321.219892 372.72 
L 323.552432 372.237405 
L 325.804541 371.55373 
L 330.710919 369.502703 
L 332.963027 368.57773 
L 335.376 368.095135 
L 338.070486 367.894054 
L 343.177946 367.853838 
L 347.802811 367.894054 
L 349.491892 367.532108 
L 351.462486 366.647351 
L 353.55373 364.918054 
L 354.39827 363.550703 
L 354.599351 361.580108 
L 354.036324 358.845405 
L 349.813622 350.359784 
L 347.722378 345.131676 
L 347.078919 342.758919 
L 346.596324 340.386162 
L 346.234378 337.973189 
L 345.711568 332.624432 
L 345.590919 329.88973 
L 345.832216 324.219243 
L 346.234378 318.106378 
L 346.596324 315.371676 
L 347.802811 312.838054 
L 349.572324 310.746811 
L 353.232 306.886054 
L 356.328649 303.186162 
L 359.827459 298.480865 
L 363.044757 293.574486 
L 364.532757 291.20173 
L 366.583784 288.668108 
L 369.801081 285.088865 
L 372.777081 281.348757 
L 376.034595 276.764108 
L 377.643243 274.310919 
L 379.091027 271.777297 
L 379.975784 269.565405 
L 380.739892 267.031784 
L 381.383351 264.176432 
L 382.710486 256.213622 
L 383.635459 253.639784 
L 384.962595 251.267027 
L 387.858162 247.084541 
L 389.225514 244.832432 
L 391.678703 240.368432 
L 394.453622 235.180541 
L 396.585081 230.314378 
L 397.389405 228.06227 
L 398.233946 225.005838 
L 398.595892 222.914595 
L 398.837189 220.501622 
L 398.998054 217.606054 
L 398.957838 212.780108 
L 398.595892 204.495568 
L 395.901405 165.686919 
L 395.298162 157.683892 
L 393.890595 138.420324 
L 393.890595 138.420324 
" style="fill:none;stroke:#ff773d;stroke-linecap:square;stroke-width:1.5;"/>
   </g>
   <g id="line2d_58">
    <path clip-path="url(#p92349df7c3)" d="M 224.821622 333.107027 
L 225.103135 333.066811 
L 226.068324 332.785297 
L 227.475892 331.980973 
L 229.124757 330.573405 
L 230.813838 328.562595 
L 232.100757 326.551784 
L 233.186595 324.420324 
L 234.192 322.248649 
L 235.277838 319.513946 
L 236.243027 316.739027 
L 237.168 313.964108 
L 237.932108 311.671784 
L 238.696216 309.097946 
L 239.420108 306.805622 
L 240.184216 304.231784 
L 241.028757 301.416649 
L 241.712432 299.084108 
L 242.476541 296.51027 
L 243.160216 294.217946 
L 243.964541 291.644108 
L 244.889514 289.392 
L 246.096 286.697514 
L 247.181838 284.244324 
L 248.267676 281.791135 
L 249.273081 279.337946 
L 250.278486 276.844541 
L 251.243676 274.351135 
L 251.967568 271.85773 
L 252.007784 269.324108 
L 251.444757 267.031784 
L 250.680649 265.26227 
L 249.594811 263.653622 
L 248.106811 261.884108 
L 246.297081 259.95373 
L 245.130811 258.787459 
L 245.090595 258.747243 
L 245.211243 258.787459 
L 245.171027 258.787459 
L 245.171027 258.787459 
L 245.171027 258.787459 
L 245.171027 258.787459 
L 245.171027 258.787459 
L 245.171027 258.787459 
L 245.171027 258.787459 
L 245.171027 258.787459 
L 245.171027 258.787459 
L 245.130811 258.747243 
L 245.010162 258.666811 
L 244.527568 257.942919 
L 244.165622 257.138595 
L 243.964541 256.656 
L 243.884108 256.495135 
L 243.884108 256.535351 
L 243.924324 256.535351 
L 243.803676 256.33427 
L 243.481946 255.851676 
L 242.959135 255.047351 
L 242.355892 254.202811 
L 241.752649 253.35827 
L 241.109189 252.473514 
L 240.546162 251.709405 
L 240.103784 250.905081 
L 239.741838 249.980108 
L 239.460324 248.89427 
L 239.259243 247.808432 
L 239.098378 246.481297 
L 238.97773 244.953081 
L 238.937514 243.465081 
L 238.937514 241.936865 
L 238.97773 241.011892 
L 239.017946 240.328216 
L 239.098378 239.765189 
L 239.379892 238.277189 
L 239.580973 236.185946 
L 239.500541 235.260973 
L 239.259243 234.336 
L 238.615784 232.445838 
L 237.771243 230.19373 
L 237.007135 228.102486 
L 236.564757 226.413405 
L 236.162595 224.322162 
L 235.881081 221.788541 
L 235.800649 219.013622 
L 235.800649 216.359351 
L 235.961514 213.906162 
L 236.202811 211.251892 
L 236.725622 208.597622 
L 237.731027 206.023784 
L 239.058162 203.651027 
L 240.626595 201.439135 
L 242.154811 199.548973 
L 243.763459 197.739243 
L 245.814486 195.607784 
L 247.945946 193.556757 
L 250.077405 191.50573 
L 252.048 189.696 
L 253.85773 188.087351 
L 255.587027 186.358054 
L 257.115243 184.226595 
L 258.241297 182.135351 
L 259.286919 179.682162 
L 260.332541 177.228973 
L 261.579243 174.534486 
L 262.624865 172.362811 
L 263.911784 170.231351 
L 265.520432 168.381405 
L 267.651892 166.652108 
L 269.501838 165.526054 
L 271.995243 164.4 
L 274.850595 163.475027 
L 277.263568 163.032649 
" style="fill:none;stroke:#ff3d1f;stroke-linecap:square;stroke-width:1.5;"/>
   </g>
   <g id="line2d_59">
    <path clip-path="url(#p92349df7c3)" d="M 281.124324 361.258378 
L 281.888432 361.218162 
L 283.537297 360.856216 
L 285.708973 359.850811 
L 288.041514 358.16173 
L 290.092541 356.150919 
L 291.982703 353.939027 
L 293.591351 351.807568 
L 295.240216 349.394595 
L 296.567351 347.383784 
L 297.974919 345.091459 
L 299.221622 343.040432 
L 300.629189 340.748108 
L 302.117189 338.214486 
L 303.484541 335.881946 
L 304.691027 333.830919 
L 306.018162 331.498378 
L 307.345297 329.165838 
L 308.712649 326.833297 
L 309.919135 324.742054 
L 311.24627 322.44973 
L 312.573405 320.117189 
L 314.061405 317.543351 
L 315.267892 315.452108 
L 316.595027 313.159784 
L 318.042811 310.585946 
L 319.249297 308.494703 
L 320.455784 306.403459 
L 321.66227 304.312216 
L 322.868757 302.220973 
L 324.316541 299.647135 
L 325.523027 297.555892 
L 326.850162 295.223351 
L 328.338162 292.68973 
L 329.263135 291.040865 
L 330.710919 288.467027 
L 331.917405 286.375784 
L 333.244541 284.083459 
L 334.451027 281.992216 
L 335.657514 280.061838 
" style="fill:none;stroke:#ff0000;stroke-linecap:square;stroke-width:1.5;"/>
   </g>
   <g id="patch_3">
    <path d="M 72 512.64 
L 72 69.12 
" style="fill:none;stroke:#000000;stroke-linecap:square;stroke-linejoin:miter;stroke-width:0.8;"/>
   </g>
   <g id="patch_4">
    <path d="M 518.4 512.64 
L 518.4 69.12 
" style="fill:none;stroke:#000000;stroke-linecap:square;stroke-linejoin:miter;stroke-width:0.8;"/>
   </g>
   <g id="patch_5">
    <path d="M 72 512.64 
L 518.4 512.64 
" style="fill:none;stroke:#000000;stroke-linecap:square;stroke-linejoin:miter;stroke-width:0.8;"/>
   </g>
   <g id="patch_6">
    <path d="M 72 69.12 
L 518.4 69.12 
" style="fill:none;stroke:#000000;stroke-linecap:square;stroke-linejoin:miter;stroke-width:0.8;"/>
   </g>
   <g id="text_13">
    <!-- 1 -->
    <defs>
     <path d="M 14.203125 0 
L 14.203125 5.171875 
L 26.90625 5.171875 
L 26.90625 65.828125 
L 12.203125 56.296875 
L 12.203125 62.703125 
L 29.984375 74.21875 
L 36.71875 74.21875 
L 36.71875 5.171875 
L 49.421875 5.171875 
L 49.421875 0 
z
" id="DejaVuSerif-31"/>
    </defs>
    <g transform="translate(137.186318 389.40973)scale(0.1 -0.1)">
     <use xlink:href="#DejaVuSerif-31"/>
    </g>
   </g>
   <g id="text_14">
    <!-- 1 -->
    <g transform="translate(390.54848 192.35027)scale(0.1 -0.1)">
     <use xlink:href="#DejaVuSerif-31"/>
    </g>
   </g>
   <g id="text_15">
    <!-- 2 -->
    <defs>
     <path d="M 12.796875 55.515625 
L 7.328125 55.515625 
L 7.328125 68.5 
Q 12.546875 71.296875 17.84375 72.75 
Q 23.140625 74.21875 28.21875 74.21875 
Q 39.59375 74.21875 46.1875 68.703125 
Q 52.78125 63.1875 52.78125 53.71875 
Q 52.78125 43.015625 37.84375 28.125 
Q 36.671875 27 36.078125 26.421875 
L 17.671875 8.015625 
L 48.09375 8.015625 
L 48.09375 17 
L 53.8125 17 
L 53.8125 0 
L 6.78125 0 
L 6.78125 5.328125 
L 28.90625 27.390625 
Q 36.234375 34.71875 39.359375 40.84375 
Q 42.484375 46.96875 42.484375 53.71875 
Q 42.484375 61.078125 38.640625 65.234375 
Q 34.8125 69.390625 28.078125 69.390625 
Q 21.09375 69.390625 17.28125 65.921875 
Q 13.484375 62.453125 12.796875 55.515625 
z
" id="DejaVuSerif-32"/>
    </defs>
    <g transform="translate(446.851182 192.35027)scale(0.1 -0.1)">
     <use xlink:href="#DejaVuSerif-32"/>
    </g>
   </g>
   <g id="text_16">
    <!-- 2 -->
    <g transform="translate(221.640372 361.258378)scale(0.1 -0.1)">
     <use xlink:href="#DejaVuSerif-32"/>
    </g>
   </g>
   <g id="text_17">
    <!-- 3 -->
    <defs>
     <path d="M 9.71875 69.828125 
Q 15.4375 71.96875 20.671875 73.09375 
Q 25.921875 74.21875 30.515625 74.21875 
Q 41.21875 74.21875 47.21875 69.59375 
Q 53.21875 64.984375 53.21875 56.78125 
Q 53.21875 50.203125 49.0625 45.78125 
Q 44.921875 41.359375 37.3125 39.796875 
Q 46.296875 38.53125 51.25 33.28125 
Q 56.203125 28.03125 56.203125 19.671875 
Q 56.203125 9.46875 49.34375 4.015625 
Q 42.484375 -1.421875 29.59375 -1.421875 
Q 23.875 -1.421875 18.421875 -0.1875 
Q 12.984375 1.03125 7.625 3.515625 
L 7.625 17.671875 
L 13.09375 17.671875 
Q 13.578125 10.640625 17.828125 7.03125 
Q 22.078125 3.421875 29.78125 3.421875 
Q 37.25 3.421875 41.578125 7.734375 
Q 45.90625 12.0625 45.90625 19.578125 
Q 45.90625 28.171875 41.453125 32.59375 
Q 37.015625 37.015625 28.421875 37.015625 
L 23.78125 37.015625 
L 23.78125 42 
L 26.21875 42 
Q 34.765625 42 39.03125 45.53125 
Q 43.3125 49.078125 43.3125 56.203125 
Q 43.3125 62.59375 39.796875 65.984375 
Q 36.28125 69.390625 29.6875 69.390625 
Q 23.09375 69.390625 19.453125 66.265625 
Q 15.828125 63.140625 15.1875 56.984375 
L 9.71875 56.984375 
z
" id="DejaVuSerif-33"/>
    </defs>
    <g transform="translate(398.993885 440.082162)scale(0.1 -0.1)">
     <use xlink:href="#DejaVuSerif-33"/>
    </g>
   </g>
   <g id="text_18">
    <!-- 3 -->
    <g transform="translate(221.640372 192.35027)scale(0.1 -0.1)">
     <use xlink:href="#DejaVuSerif-33"/>
    </g>
   </g>
   <g id="text_19">
    <!-- 4 -->
    <defs>
     <path d="M 34.90625 24.703125 
L 34.90625 63.484375 
L 10.015625 24.703125 
z
M 56.390625 0 
L 23.1875 0 
L 23.1875 5.171875 
L 34.90625 5.171875 
L 34.90625 19.484375 
L 3.078125 19.484375 
L 3.078125 24.8125 
L 35.015625 74.21875 
L 44.671875 74.21875 
L 44.671875 24.703125 
L 58.59375 24.703125 
L 58.59375 19.484375 
L 44.671875 19.484375 
L 44.671875 5.171875 
L 56.390625 5.171875 
z
" id="DejaVuSerif-34"/>
    </defs>
    <g transform="translate(221.640372 136.047568)scale(0.1 -0.1)">
     <use xlink:href="#DejaVuSerif-34"/>
    </g>
   </g>
   <g id="text_20">
    <!-- 4 -->
    <g transform="translate(390.54848 361.258378)scale(0.1 -0.1)">
     <use xlink:href="#DejaVuSerif-34"/>
    </g>
   </g>
   <g id="text_21">
    <!-- 5 -->
    <defs>
     <path d="M 50.296875 72.90625 
L 50.296875 64.890625 
L 16.890625 64.890625 
L 16.890625 44 
Q 19.4375 45.75 22.828125 46.625 
Q 26.21875 47.515625 30.421875 47.515625 
Q 42.234375 47.515625 49.0625 40.96875 
Q 55.90625 34.421875 55.90625 23.09375 
Q 55.90625 11.53125 49 5.046875 
Q 42.09375 -1.421875 29.59375 -1.421875 
Q 24.5625 -1.421875 19.28125 -0.1875 
Q 14.015625 1.03125 8.5 3.515625 
L 8.5 17.671875 
L 14.015625 17.671875 
Q 14.453125 10.75 18.421875 7.078125 
Q 22.40625 3.421875 29.59375 3.421875 
Q 37.3125 3.421875 41.453125 8.5 
Q 45.609375 13.578125 45.609375 23.09375 
Q 45.609375 32.5625 41.484375 37.609375 
Q 37.359375 42.671875 29.59375 42.671875 
Q 25.203125 42.671875 21.84375 41.109375 
Q 18.5 39.546875 15.921875 36.28125 
L 11.71875 36.28125 
L 11.71875 72.90625 
z
" id="DejaVuSerif-35"/>
    </defs>
    <g transform="translate(446.851182 304.955676)scale(0.1 -0.1)">
     <use xlink:href="#DejaVuSerif-35"/>
    </g>
   </g>
   <g id="text_22">
    <!-- 5 -->
    <g transform="translate(193.48902 248.652973)scale(0.1 -0.1)">
     <use xlink:href="#DejaVuSerif-35"/>
    </g>
   </g>
   <g id="text_23">
    <!-- 6 -->
    <defs>
     <path d="M 32.71875 3.421875 
Q 39.59375 3.421875 43.296875 8.46875 
Q 47.015625 13.53125 47.015625 23 
Q 47.015625 32.46875 43.296875 37.515625 
Q 39.59375 42.578125 32.71875 42.578125 
Q 25.734375 42.578125 22.0625 37.6875 
Q 18.40625 32.8125 18.40625 23.578125 
Q 18.40625 13.875 22.109375 8.640625 
Q 25.828125 3.421875 32.71875 3.421875 
z
M 16.796875 40.140625 
Q 20.125 43.796875 24.3125 45.59375 
Q 28.515625 47.40625 33.796875 47.40625 
Q 44.671875 47.40625 51 40.859375 
Q 57.328125 34.328125 57.328125 23 
Q 57.328125 11.921875 50.515625 5.25 
Q 43.703125 -1.421875 32.328125 -1.421875 
Q 19.96875 -1.421875 13.328125 7.78125 
Q 6.6875 17 6.6875 34.078125 
Q 6.6875 53.21875 14.546875 63.71875 
Q 22.40625 74.21875 36.71875 74.21875 
Q 40.578125 74.21875 44.828125 73.484375 
Q 49.078125 72.75 53.515625 71.296875 
L 53.515625 59.28125 
L 48 59.28125 
Q 47.40625 64.203125 44.234375 66.796875 
Q 41.0625 69.390625 35.6875 69.390625 
Q 26.21875 69.390625 21.578125 62.203125 
Q 16.9375 55.03125 16.796875 40.140625 
z
" id="DejaVuSerif-36"/>
    </defs>
    <g transform="translate(137.186318 248.652973)scale(0.1 -0.1)">
     <use xlink:href="#DejaVuSerif-36"/>
    </g>
   </g>
   <g id="text_24">
    <!-- 6 -->
    <g transform="translate(390.54848 276.804324)scale(0.1 -0.1)">
     <use xlink:href="#DejaVuSerif-36"/>
    </g>
   </g>
   <g id="text_25">
    <!-- 7 -->
    <defs>
     <path d="M 56.390625 67.921875 
L 27.875 0 
L 20.609375 0 
L 47.796875 64.890625 
L 14.109375 64.890625 
L 14.109375 55.90625 
L 8.40625 55.90625 
L 8.40625 72.90625 
L 56.390625 72.90625 
z
" id="DejaVuSerif-37"/>
    </defs>
    <g transform="translate(277.943074 192.35027)scale(0.1 -0.1)">
     <use xlink:href="#DejaVuSerif-37"/>
    </g>
   </g>
   <g id="text_26">
    <!-- 7 -->
    <g transform="translate(277.943074 333.107027)scale(0.1 -0.1)">
     <use xlink:href="#DejaVuSerif-37"/>
    </g>
   </g>
   <g id="text_27">
    <!-- 8 -->
    <defs>
     <path d="M 46.578125 19.921875 
Q 46.578125 27.734375 42.6875 32.046875 
Q 38.8125 36.375 31.78125 36.375 
Q 24.75 36.375 20.875 32.046875 
Q 17 27.734375 17 19.921875 
Q 17 12.0625 20.875 7.734375 
Q 24.75 3.421875 31.78125 3.421875 
Q 38.8125 3.421875 42.6875 7.734375 
Q 46.578125 12.0625 46.578125 19.921875 
z
M 44.578125 55.328125 
Q 44.578125 61.96875 41.203125 65.671875 
Q 37.84375 69.390625 31.78125 69.390625 
Q 25.78125 69.390625 22.390625 65.671875 
Q 19 61.96875 19 55.328125 
Q 19 48.640625 22.390625 44.921875 
Q 25.78125 41.21875 31.78125 41.21875 
Q 37.84375 41.21875 41.203125 44.921875 
Q 44.578125 48.640625 44.578125 55.328125 
z
M 39.3125 38.8125 
Q 47.609375 37.703125 52.25 32.6875 
Q 56.890625 27.6875 56.890625 19.921875 
Q 56.890625 9.671875 50.390625 4.125 
Q 43.890625 -1.421875 31.78125 -1.421875 
Q 19.734375 -1.421875 13.203125 4.125 
Q 6.6875 9.671875 6.6875 19.921875 
Q 6.6875 27.6875 11.328125 32.6875 
Q 15.96875 37.703125 24.3125 38.8125 
Q 16.9375 40.140625 13 44.40625 
Q 9.078125 48.6875 9.078125 55.328125 
Q 9.078125 64.109375 15.125 69.15625 
Q 21.1875 74.21875 31.78125 74.21875 
Q 42.390625 74.21875 48.4375 69.15625 
Q 54.5 64.109375 54.5 55.328125 
Q 54.5 48.6875 50.5625 44.40625 
Q 46.625 40.140625 39.3125 38.8125 
z
" id="DejaVuSerif-38"/>
    </defs>
    <g transform="translate(137.186318 304.955676)scale(0.1 -0.1)">
     <use xlink:href="#DejaVuSerif-38"/>
    </g>
   </g>
   <g id="text_28">
    <!-- 8 -->
    <g transform="translate(306.094426 276.804324)scale(0.1 -0.1)">
     <use xlink:href="#DejaVuSerif-38"/>
    </g>
   </g>
   <g id="text_29">
    <!-- 9 -->
    <defs>
     <path d="M 46.78125 32.671875 
Q 43.5 29 39.25 27.1875 
Q 35.015625 25.390625 29.6875 25.390625 
Q 18.84375 25.390625 12.5625 31.9375 
Q 6.296875 38.484375 6.296875 49.8125 
Q 6.296875 60.890625 13.109375 67.546875 
Q 19.921875 74.21875 31.296875 74.21875 
Q 43.65625 74.21875 50.265625 65.015625 
Q 56.890625 55.8125 56.890625 38.71875 
Q 56.890625 19.578125 49.015625 9.078125 
Q 41.15625 -1.421875 26.90625 -1.421875 
Q 23.046875 -1.421875 18.796875 -0.6875 
Q 14.546875 0.046875 10.109375 1.515625 
L 10.109375 13.625 
L 15.578125 13.625 
Q 16.21875 8.6875 19.390625 6.046875 
Q 22.5625 3.421875 27.875 3.421875 
Q 37.359375 3.421875 41.984375 10.5625 
Q 46.625 17.71875 46.78125 32.671875 
z
M 30.90625 69.390625 
Q 23.96875 69.390625 20.28125 64.328125 
Q 16.609375 59.28125 16.609375 49.8125 
Q 16.609375 40.328125 20.28125 35.25 
Q 23.96875 30.171875 30.90625 30.171875 
Q 37.84375 30.171875 41.53125 35.078125 
Q 45.21875 39.984375 45.21875 49.21875 
Q 45.21875 58.9375 41.5 64.15625 
Q 37.796875 69.390625 30.90625 69.390625 
z
" id="DejaVuSerif-39"/>
    </defs>
    <g transform="translate(390.54848 220.501622)scale(0.1 -0.1)">
     <use xlink:href="#DejaVuSerif-39"/>
    </g>
   </g>
   <g id="text_30">
    <!-- 9 -->
    <g transform="translate(137.186318 276.804324)scale(0.1 -0.1)">
     <use xlink:href="#DejaVuSerif-39"/>
    </g>
   </g>
   <g id="text_31">
    <!-- 10 -->
    <defs>
     <path d="M 31.78125 3.421875 
Q 39.265625 3.421875 42.96875 11.625 
Q 46.6875 19.828125 46.6875 36.375 
Q 46.6875 52.984375 42.96875 61.1875 
Q 39.265625 69.390625 31.78125 69.390625 
Q 24.3125 69.390625 20.59375 61.1875 
Q 16.890625 52.984375 16.890625 36.375 
Q 16.890625 19.828125 20.59375 11.625 
Q 24.3125 3.421875 31.78125 3.421875 
z
M 31.78125 -1.421875 
Q 19.921875 -1.421875 13.25 8.53125 
Q 6.59375 18.5 6.59375 36.375 
Q 6.59375 54.296875 13.25 64.25 
Q 19.921875 74.21875 31.78125 74.21875 
Q 43.703125 74.21875 50.34375 64.25 
Q 56.984375 54.296875 56.984375 36.375 
Q 56.984375 18.5 50.34375 8.53125 
Q 43.703125 -1.421875 31.78125 -1.421875 
z
" id="DejaVuSerif-30"/>
    </defs>
    <g transform="translate(134.005068 136.047568)scale(0.1 -0.1)">
     <use xlink:href="#DejaVuSerif-31"/>
     <use x="63.623047" xlink:href="#DejaVuSerif-30"/>
    </g>
   </g>
   <g id="text_32">
    <!-- 10 -->
    <g transform="translate(246.610473 248.652973)scale(0.1 -0.1)">
     <use xlink:href="#DejaVuSerif-31"/>
     <use x="63.623047" xlink:href="#DejaVuSerif-30"/>
    </g>
   </g>
   <g id="text_33">
    <!-- 11 -->
    <g transform="translate(331.064527 164.198919)scale(0.1 -0.1)">
     <use xlink:href="#DejaVuSerif-31"/>
     <use x="63.623047" xlink:href="#DejaVuSerif-31"/>
    </g>
   </g>
   <g id="text_34">
    <!-- 11 -->
    <g transform="translate(162.156419 389.40973)scale(0.1 -0.1)">
     <use xlink:href="#DejaVuSerif-31"/>
     <use x="63.623047" xlink:href="#DejaVuSerif-31"/>
    </g>
   </g>
   <g id="text_35">
    <!-- 12 -->
    <g transform="translate(190.30777 445.712432)scale(0.1 -0.1)">
     <use xlink:href="#DejaVuSerif-31"/>
     <use x="63.623047" xlink:href="#DejaVuSerif-32"/>
    </g>
   </g>
   <g id="text_36">
    <!-- 12 -->
    <g transform="translate(387.36723 136.047568)scale(0.1 -0.1)">
     <use xlink:href="#DejaVuSerif-31"/>
     <use x="63.623047" xlink:href="#DejaVuSerif-32"/>
    </g>
   </g>
   <g id="text_37">
    <!-- 13 -->
    <g transform="translate(218.459122 333.107027)scale(0.1 -0.1)">
     <use xlink:href="#DejaVuSerif-31"/>
     <use x="63.623047" xlink:href="#DejaVuSerif-33"/>
    </g>
   </g>
   <g id="text_38">
    <!-- 13 -->
    <g transform="translate(274.761824 164.198919)scale(0.1 -0.1)">
     <use xlink:href="#DejaVuSerif-31"/>
     <use x="63.623047" xlink:href="#DejaVuSerif-33"/>
    </g>
   </g>
   <g id="text_39">
    <!-- 14 -->
    <g transform="translate(274.761824 361.258378)scale(0.1 -0.1)">
     <use xlink:href="#DejaVuSerif-31"/>
     <use x="63.623047" xlink:href="#DejaVuSerif-34"/>
    </g>
   </g>
   <g id="text_40">
    <!-- 14 -->
    <g transform="translate(331.064527 276.804324)scale(0.1 -0.1)">
     <use xlink:href="#DejaVuSerif-31"/>
     <use x="63.623047" xlink:href="#DejaVuSerif-34"/>
    </g>
   </g>
   <g id="text_41">
    <!-- MRPP -->
    <defs>
     <path d="M 9.8125 72.90625 
L 24.515625 72.90625 
L 43.109375 23.296875 
L 61.8125 72.90625 
L 76.515625 72.90625 
L 76.515625 0 
L 66.890625 0 
L 66.890625 64.015625 
L 48.09375 14.015625 
L 38.1875 14.015625 
L 19.390625 64.015625 
L 19.390625 0 
L 9.8125 0 
z
" id="DejaVuSans-4d"/>
     <path d="M 44.390625 34.1875 
Q 47.5625 33.109375 50.5625 29.59375 
Q 53.5625 26.078125 56.59375 19.921875 
L 66.609375 0 
L 56 0 
L 46.6875 18.703125 
Q 43.0625 26.03125 39.671875 28.421875 
Q 36.28125 30.8125 30.421875 30.8125 
L 19.671875 30.8125 
L 19.671875 0 
L 9.8125 0 
L 9.8125 72.90625 
L 32.078125 72.90625 
Q 44.578125 72.90625 50.734375 67.671875 
Q 56.890625 62.453125 56.890625 51.90625 
Q 56.890625 45.015625 53.6875 40.46875 
Q 50.484375 35.9375 44.390625 34.1875 
z
M 19.671875 64.796875 
L 19.671875 38.921875 
L 32.078125 38.921875 
Q 39.203125 38.921875 42.84375 42.21875 
Q 46.484375 45.515625 46.484375 51.90625 
Q 46.484375 58.296875 42.84375 61.546875 
Q 39.203125 64.796875 32.078125 64.796875 
z
" id="DejaVuSans-52"/>
     <path d="M 19.671875 64.796875 
L 19.671875 37.40625 
L 32.078125 37.40625 
Q 38.96875 37.40625 42.71875 40.96875 
Q 46.484375 44.53125 46.484375 51.125 
Q 46.484375 57.671875 42.71875 61.234375 
Q 38.96875 64.796875 32.078125 64.796875 
z
M 9.8125 72.90625 
L 32.078125 72.90625 
Q 44.34375 72.90625 50.609375 67.359375 
Q 56.890625 61.8125 56.890625 51.125 
Q 56.890625 40.328125 50.609375 34.8125 
Q 44.34375 29.296875 32.078125 29.296875 
L 19.671875 29.296875 
L 19.671875 0 
L 9.8125 0 
z
" id="DejaVuSans-50"/>
    </defs>
    <g transform="translate(278.618437 63.12)scale(0.12 -0.12)">
     <use xlink:href="#DejaVuSans-4d"/>
     <use x="86.279297" xlink:href="#DejaVuSans-52"/>
     <use x="155.761719" xlink:href="#DejaVuSans-50"/>
     <use x="216.064453" xlink:href="#DejaVuSans-50"/>
    </g>
   </g>
  </g>
 </g>
 <defs>
  <clipPath id="p92349df7c3">
   <rect height="443.52" width="446.4" x="72" y="69.12"/>
  </clipPath>
 </defs>
</svg>
