<?xml version="1.0" encoding="utf-8" standalone="no"?>
<!DOCTYPE svg PUBLIC "-//W3C//DTD SVG 1.1//EN"
  "http://www.w3.org/Graphics/SVG/1.1/DTD/svg11.dtd">
<!-- Created with matplotlib (http://matplotlib.org/) -->
<svg height="576pt" version="1.1" viewBox="0 0 576 576" width="576pt" xmlns="http://www.w3.org/2000/svg" xmlns:xlink="http://www.w3.org/1999/xlink">
 <defs>
  <style type="text/css">
*{stroke-linecap:butt;stroke-linejoin:round;}
  </style>
 </defs>
 <g id="figure_1">
  <g id="patch_1">
   <path d="M 0 576 
L 576 576 
L 576 0 
L 0 0 
z
" style="fill:#ffffff;"/>
  </g>
  <g id="axes_1">
   <g id="patch_2">
    <path d="M 72 512.64 
L 518.4 512.64 
L 518.4 69.12 
L 72 69.12 
z
" style="fill:#ffffff;"/>
   </g>
   <g id="matplotlib.axis_1">
    <g id="xtick_1">
     <g id="line2d_1">
      <defs>
       <path d="M 0 0 
L 0 3.5 
" id="m339aa6a2cd" style="stroke:#000000;stroke-width:0.8;"/>
      </defs>
      <g>
       <use style="stroke:#000000;stroke-width:0.8;" x="112.216216" xlink:href="#m339aa6a2cd" y="512.64"/>
      </g>
     </g>
     <g id="text_1">
      <!-- 0 -->
      <defs>
       <path d="M 31.78125 66.40625 
Q 24.171875 66.40625 20.328125 58.90625 
Q 16.5 51.421875 16.5 36.375 
Q 16.5 21.390625 20.328125 13.890625 
Q 24.171875 6.390625 31.78125 6.390625 
Q 39.453125 6.390625 43.28125 13.890625 
Q 47.125 21.390625 47.125 36.375 
Q 47.125 51.421875 43.28125 58.90625 
Q 39.453125 66.40625 31.78125 66.40625 
z
M 31.78125 74.21875 
Q 44.046875 74.21875 50.515625 64.515625 
Q 56.984375 54.828125 56.984375 36.375 
Q 56.984375 17.96875 50.515625 8.265625 
Q 44.046875 -1.421875 31.78125 -1.421875 
Q 19.53125 -1.421875 13.0625 8.265625 
Q 6.59375 17.96875 6.59375 36.375 
Q 6.59375 54.828125 13.0625 64.515625 
Q 19.53125 74.21875 31.78125 74.21875 
z
" id="DejaVuSans-30"/>
      </defs>
      <g transform="translate(109.034966 527.238438)scale(0.1 -0.1)">
       <use xlink:href="#DejaVuSans-30"/>
      </g>
     </g>
    </g>
    <g id="xtick_2">
     <g id="line2d_2">
      <g>
       <use style="stroke:#000000;stroke-width:0.8;" x="192.648649" xlink:href="#m339aa6a2cd" y="512.64"/>
      </g>
     </g>
     <g id="text_2">
      <!-- 2 -->
      <defs>
       <path d="M 19.1875 8.296875 
L 53.609375 8.296875 
L 53.609375 0 
L 7.328125 0 
L 7.328125 8.296875 
Q 12.9375 14.109375 22.625 23.890625 
Q 32.328125 33.6875 34.8125 36.53125 
Q 39.546875 41.84375 41.421875 45.53125 
Q 43.3125 49.21875 43.3125 52.78125 
Q 43.3125 58.59375 39.234375 62.25 
Q 35.15625 65.921875 28.609375 65.921875 
Q 23.96875 65.921875 18.8125 64.3125 
Q 13.671875 62.703125 7.8125 59.421875 
L 7.8125 69.390625 
Q 13.765625 71.78125 18.9375 73 
Q 24.125 74.21875 28.421875 74.21875 
Q 39.75 74.21875 46.484375 68.546875 
Q 53.21875 62.890625 53.21875 53.421875 
Q 53.21875 48.921875 51.53125 44.890625 
Q 49.859375 40.875 45.40625 35.40625 
Q 44.1875 33.984375 37.640625 27.21875 
Q 31.109375 20.453125 19.1875 8.296875 
z
" id="DejaVuSans-32"/>
      </defs>
      <g transform="translate(189.467399 527.238438)scale(0.1 -0.1)">
       <use xlink:href="#DejaVuSans-32"/>
      </g>
     </g>
    </g>
    <g id="xtick_3">
     <g id="line2d_3">
      <g>
       <use style="stroke:#000000;stroke-width:0.8;" x="273.081081" xlink:href="#m339aa6a2cd" y="512.64"/>
      </g>
     </g>
     <g id="text_3">
      <!-- 4 -->
      <defs>
       <path d="M 37.796875 64.3125 
L 12.890625 25.390625 
L 37.796875 25.390625 
z
M 35.203125 72.90625 
L 47.609375 72.90625 
L 47.609375 25.390625 
L 58.015625 25.390625 
L 58.015625 17.1875 
L 47.609375 17.1875 
L 47.609375 0 
L 37.796875 0 
L 37.796875 17.1875 
L 4.890625 17.1875 
L 4.890625 26.703125 
z
" id="DejaVuSans-34"/>
      </defs>
      <g transform="translate(269.899831 527.238438)scale(0.1 -0.1)">
       <use xlink:href="#DejaVuSans-34"/>
      </g>
     </g>
    </g>
    <g id="xtick_4">
     <g id="line2d_4">
      <g>
       <use style="stroke:#000000;stroke-width:0.8;" x="353.513514" xlink:href="#m339aa6a2cd" y="512.64"/>
      </g>
     </g>
     <g id="text_4">
      <!-- 6 -->
      <defs>
       <path d="M 33.015625 40.375 
Q 26.375 40.375 22.484375 35.828125 
Q 18.609375 31.296875 18.609375 23.390625 
Q 18.609375 15.53125 22.484375 10.953125 
Q 26.375 6.390625 33.015625 6.390625 
Q 39.65625 6.390625 43.53125 10.953125 
Q 47.40625 15.53125 47.40625 23.390625 
Q 47.40625 31.296875 43.53125 35.828125 
Q 39.65625 40.375 33.015625 40.375 
z
M 52.59375 71.296875 
L 52.59375 62.3125 
Q 48.875 64.0625 45.09375 64.984375 
Q 41.3125 65.921875 37.59375 65.921875 
Q 27.828125 65.921875 22.671875 59.328125 
Q 17.53125 52.734375 16.796875 39.40625 
Q 19.671875 43.65625 24.015625 45.921875 
Q 28.375 48.1875 33.59375 48.1875 
Q 44.578125 48.1875 50.953125 41.515625 
Q 57.328125 34.859375 57.328125 23.390625 
Q 57.328125 12.15625 50.6875 5.359375 
Q 44.046875 -1.421875 33.015625 -1.421875 
Q 20.359375 -1.421875 13.671875 8.265625 
Q 6.984375 17.96875 6.984375 36.375 
Q 6.984375 53.65625 15.1875 63.9375 
Q 23.390625 74.21875 37.203125 74.21875 
Q 40.921875 74.21875 44.703125 73.484375 
Q 48.484375 72.75 52.59375 71.296875 
z
" id="DejaVuSans-36"/>
      </defs>
      <g transform="translate(350.332264 527.238438)scale(0.1 -0.1)">
       <use xlink:href="#DejaVuSans-36"/>
      </g>
     </g>
    </g>
    <g id="xtick_5">
     <g id="line2d_5">
      <g>
       <use style="stroke:#000000;stroke-width:0.8;" x="433.945946" xlink:href="#m339aa6a2cd" y="512.64"/>
      </g>
     </g>
     <g id="text_5">
      <!-- 8 -->
      <defs>
       <path d="M 31.78125 34.625 
Q 24.75 34.625 20.71875 30.859375 
Q 16.703125 27.09375 16.703125 20.515625 
Q 16.703125 13.921875 20.71875 10.15625 
Q 24.75 6.390625 31.78125 6.390625 
Q 38.8125 6.390625 42.859375 10.171875 
Q 46.921875 13.96875 46.921875 20.515625 
Q 46.921875 27.09375 42.890625 30.859375 
Q 38.875 34.625 31.78125 34.625 
z
M 21.921875 38.8125 
Q 15.578125 40.375 12.03125 44.71875 
Q 8.5 49.078125 8.5 55.328125 
Q 8.5 64.0625 14.71875 69.140625 
Q 20.953125 74.21875 31.78125 74.21875 
Q 42.671875 74.21875 48.875 69.140625 
Q 55.078125 64.0625 55.078125 55.328125 
Q 55.078125 49.078125 51.53125 44.71875 
Q 48 40.375 41.703125 38.8125 
Q 48.828125 37.15625 52.796875 32.3125 
Q 56.78125 27.484375 56.78125 20.515625 
Q 56.78125 9.90625 50.3125 4.234375 
Q 43.84375 -1.421875 31.78125 -1.421875 
Q 19.734375 -1.421875 13.25 4.234375 
Q 6.78125 9.90625 6.78125 20.515625 
Q 6.78125 27.484375 10.78125 32.3125 
Q 14.796875 37.15625 21.921875 38.8125 
z
M 18.3125 54.390625 
Q 18.3125 48.734375 21.84375 45.5625 
Q 25.390625 42.390625 31.78125 42.390625 
Q 38.140625 42.390625 41.71875 45.5625 
Q 45.3125 48.734375 45.3125 54.390625 
Q 45.3125 60.0625 41.71875 63.234375 
Q 38.140625 66.40625 31.78125 66.40625 
Q 25.390625 66.40625 21.84375 63.234375 
Q 18.3125 60.0625 18.3125 54.390625 
z
" id="DejaVuSans-38"/>
      </defs>
      <g transform="translate(430.764696 527.238438)scale(0.1 -0.1)">
       <use xlink:href="#DejaVuSans-38"/>
      </g>
     </g>
    </g>
    <g id="xtick_6">
     <g id="line2d_6">
      <g>
       <use style="stroke:#000000;stroke-width:0.8;" x="514.378378" xlink:href="#m339aa6a2cd" y="512.64"/>
      </g>
     </g>
     <g id="text_6">
      <!-- 10 -->
      <defs>
       <path d="M 12.40625 8.296875 
L 28.515625 8.296875 
L 28.515625 63.921875 
L 10.984375 60.40625 
L 10.984375 69.390625 
L 28.421875 72.90625 
L 38.28125 72.90625 
L 38.28125 8.296875 
L 54.390625 8.296875 
L 54.390625 0 
L 12.40625 0 
z
" id="DejaVuSans-31"/>
      </defs>
      <g transform="translate(508.015878 527.238438)scale(0.1 -0.1)">
       <use xlink:href="#DejaVuSans-31"/>
       <use x="63.623047" xlink:href="#DejaVuSans-30"/>
      </g>
     </g>
    </g>
   </g>
   <g id="matplotlib.axis_2">
    <g id="ytick_1">
     <g id="line2d_7">
      <defs>
       <path d="M 0 0 
L -3.5 0 
" id="m965f37787f" style="stroke:#000000;stroke-width:0.8;"/>
      </defs>
      <g>
       <use style="stroke:#000000;stroke-width:0.8;" x="72" xlink:href="#m965f37787f" y="473.863784"/>
      </g>
     </g>
     <g id="text_7">
      <!-- 0 -->
      <g transform="translate(58.6375 477.663003)scale(0.1 -0.1)">
       <use xlink:href="#DejaVuSans-30"/>
      </g>
     </g>
    </g>
    <g id="ytick_2">
     <g id="line2d_8">
      <g>
       <use style="stroke:#000000;stroke-width:0.8;" x="72" xlink:href="#m965f37787f" y="393.431351"/>
      </g>
     </g>
     <g id="text_8">
      <!-- 2 -->
      <g transform="translate(58.6375 397.23057)scale(0.1 -0.1)">
       <use xlink:href="#DejaVuSans-32"/>
      </g>
     </g>
    </g>
    <g id="ytick_3">
     <g id="line2d_9">
      <g>
       <use style="stroke:#000000;stroke-width:0.8;" x="72" xlink:href="#m965f37787f" y="312.998919"/>
      </g>
     </g>
     <g id="text_9">
      <!-- 4 -->
      <g transform="translate(58.6375 316.798138)scale(0.1 -0.1)">
       <use xlink:href="#DejaVuSans-34"/>
      </g>
     </g>
    </g>
    <g id="ytick_4">
     <g id="line2d_10">
      <g>
       <use style="stroke:#000000;stroke-width:0.8;" x="72" xlink:href="#m965f37787f" y="232.566486"/>
      </g>
     </g>
     <g id="text_10">
      <!-- 6 -->
      <g transform="translate(58.6375 236.365705)scale(0.1 -0.1)">
       <use xlink:href="#DejaVuSans-36"/>
      </g>
     </g>
    </g>
    <g id="ytick_5">
     <g id="line2d_11">
      <g>
       <use style="stroke:#000000;stroke-width:0.8;" x="72" xlink:href="#m965f37787f" y="152.134054"/>
      </g>
     </g>
     <g id="text_11">
      <!-- 8 -->
      <g transform="translate(58.6375 155.933273)scale(0.1 -0.1)">
       <use xlink:href="#DejaVuSans-38"/>
      </g>
     </g>
    </g>
    <g id="ytick_6">
     <g id="line2d_12">
      <g>
       <use style="stroke:#000000;stroke-width:0.8;" x="72" xlink:href="#m965f37787f" y="71.701622"/>
      </g>
     </g>
     <g id="text_12">
      <!-- 10 -->
      <g transform="translate(52.275 75.50084)scale(0.1 -0.1)">
       <use xlink:href="#DejaVuSans-31"/>
       <use x="63.623047" xlink:href="#DejaVuSans-30"/>
      </g>
     </g>
    </g>
   </g>
   <g id="line2d_13">
    <path clip-path="url(#pd92d1f7d37)" d="M 140.367568 389.40973 
" style="fill:none;stroke:#1f77b4;stroke-linecap:square;stroke-width:1.5;"/>
    <defs>
     <path d="M -5 5 
L 5 5 
L 5 -5 
L -5 -5 
z
" id="maaf8050e23" style="stroke:#8000ff;stroke-linejoin:miter;"/>
    </defs>
    <g clip-path="url(#pd92d1f7d37)">
     <use style="fill:#8000ff;stroke:#8000ff;stroke-linejoin:miter;" x="140.367568" xlink:href="#maaf8050e23" y="389.40973"/>
    </g>
   </g>
   <g id="line2d_14">
    <path clip-path="url(#pd92d1f7d37)" d="M 393.72973 192.35027 
" style="fill:none;stroke:#ff7f0e;stroke-linecap:square;stroke-width:1.5;"/>
    <defs>
     <path d="M 0 -5 
L -4.755283 -1.545085 
L -2.938926 4.045085 
L 2.938926 4.045085 
L 4.755283 -1.545085 
z
" id="m91af7a5db0" style="stroke:#8000ff;stroke-linejoin:miter;"/>
    </defs>
    <g clip-path="url(#pd92d1f7d37)">
     <use style="fill:#8000ff;stroke:#8000ff;stroke-linejoin:miter;" x="393.72973" xlink:href="#m91af7a5db0" y="192.35027"/>
    </g>
   </g>
   <g id="line2d_15">
    <path clip-path="url(#pd92d1f7d37)" d="M 450.032432 192.35027 
" style="fill:none;stroke:#2ca02c;stroke-linecap:square;stroke-width:1.5;"/>
    <defs>
     <path d="M -5 5 
L 5 5 
L 5 -5 
L -5 -5 
z
" id="mdc8666fa4e" style="stroke:#4757fb;stroke-linejoin:miter;"/>
    </defs>
    <g clip-path="url(#pd92d1f7d37)">
     <use style="fill:#4757fb;stroke:#4757fb;stroke-linejoin:miter;" x="450.032432" xlink:href="#mdc8666fa4e" y="192.35027"/>
    </g>
   </g>
   <g id="line2d_16">
    <path clip-path="url(#pd92d1f7d37)" d="M 224.821622 361.258378 
" style="fill:none;stroke:#d62728;stroke-linecap:square;stroke-width:1.5;"/>
    <defs>
     <path d="M 0 -5 
L -4.755283 -1.545085 
L -2.938926 4.045085 
L 2.938926 4.045085 
L 4.755283 -1.545085 
z
" id="m7b290dc824" style="stroke:#4757fb;stroke-linejoin:miter;"/>
    </defs>
    <g clip-path="url(#pd92d1f7d37)">
     <use style="fill:#4757fb;stroke:#4757fb;stroke-linejoin:miter;" x="224.821622" xlink:href="#m7b290dc824" y="361.258378"/>
    </g>
   </g>
   <g id="line2d_17">
    <path clip-path="url(#pd92d1f7d37)" d="M 402.175135 440.082162 
" style="fill:none;stroke:#9467bd;stroke-linecap:square;stroke-width:1.5;"/>
    <defs>
     <path d="M -5 5 
L 5 5 
L 5 -5 
L -5 -5 
z
" id="m59d4a34aa2" style="stroke:#0ea4f0;stroke-linejoin:miter;"/>
    </defs>
    <g clip-path="url(#pd92d1f7d37)">
     <use style="fill:#0ea4f0;stroke:#0ea4f0;stroke-linejoin:miter;" x="402.175135" xlink:href="#m59d4a34aa2" y="440.082162"/>
    </g>
   </g>
   <g id="line2d_18">
    <path clip-path="url(#pd92d1f7d37)" d="M 224.821622 192.35027 
" style="fill:none;stroke:#8c564b;stroke-linecap:square;stroke-width:1.5;"/>
    <defs>
     <path d="M 0 -5 
L -4.755283 -1.545085 
L -2.938926 4.045085 
L 2.938926 4.045085 
L 4.755283 -1.545085 
z
" id="m314577beb9" style="stroke:#0ea4f0;stroke-linejoin:miter;"/>
    </defs>
    <g clip-path="url(#pd92d1f7d37)">
     <use style="fill:#0ea4f0;stroke:#0ea4f0;stroke-linejoin:miter;" x="224.821622" xlink:href="#m314577beb9" y="192.35027"/>
    </g>
   </g>
   <g id="line2d_19">
    <path clip-path="url(#pd92d1f7d37)" d="M 224.821622 136.047568 
" style="fill:none;stroke:#e377c2;stroke-linecap:square;stroke-width:1.5;"/>
    <defs>
     <path d="M -5 5 
L 5 5 
L 5 -5 
L -5 -5 
z
" id="m25d1c140e3" style="stroke:#2adddd;stroke-linejoin:miter;"/>
    </defs>
    <g clip-path="url(#pd92d1f7d37)">
     <use style="fill:#2adddd;stroke:#2adddd;stroke-linejoin:miter;" x="224.821622" xlink:href="#m25d1c140e3" y="136.047568"/>
    </g>
   </g>
   <g id="line2d_20">
    <path clip-path="url(#pd92d1f7d37)" d="M 393.72973 361.258378 
" style="fill:none;stroke:#7f7f7f;stroke-linecap:square;stroke-width:1.5;"/>
    <defs>
     <path d="M 0 -5 
L -4.755283 -1.545085 
L -2.938926 4.045085 
L 2.938926 4.045085 
L 4.755283 -1.545085 
z
" id="mf3a23ff962" style="stroke:#2adddd;stroke-linejoin:miter;"/>
    </defs>
    <g clip-path="url(#pd92d1f7d37)">
     <use style="fill:#2adddd;stroke:#2adddd;stroke-linejoin:miter;" x="393.72973" xlink:href="#mf3a23ff962" y="361.258378"/>
    </g>
   </g>
   <g id="line2d_21">
    <path clip-path="url(#pd92d1f7d37)" d="M 450.032432 304.955676 
" style="fill:none;stroke:#bcbd22;stroke-linecap:square;stroke-width:1.5;"/>
    <defs>
     <path d="M -5 5 
L 5 5 
L 5 -5 
L -5 -5 
z
" id="ma238082429" style="stroke:#63fbc3;stroke-linejoin:miter;"/>
    </defs>
    <g clip-path="url(#pd92d1f7d37)">
     <use style="fill:#63fbc3;stroke:#63fbc3;stroke-linejoin:miter;" x="450.032432" xlink:href="#ma238082429" y="304.955676"/>
    </g>
   </g>
   <g id="line2d_22">
    <path clip-path="url(#pd92d1f7d37)" d="M 196.67027 248.652973 
" style="fill:none;stroke:#17becf;stroke-linecap:square;stroke-width:1.5;"/>
    <defs>
     <path d="M 0 -5 
L -4.755283 -1.545085 
L -2.938926 4.045085 
L 2.938926 4.045085 
L 4.755283 -1.545085 
z
" id="m8af429b11f" style="stroke:#63fbc3;stroke-linejoin:miter;"/>
    </defs>
    <g clip-path="url(#pd92d1f7d37)">
     <use style="fill:#63fbc3;stroke:#63fbc3;stroke-linejoin:miter;" x="196.67027" xlink:href="#m8af429b11f" y="248.652973"/>
    </g>
   </g>
   <g id="line2d_23">
    <path clip-path="url(#pd92d1f7d37)" d="M 140.367568 248.652973 
" style="fill:none;stroke:#1f77b4;stroke-linecap:square;stroke-width:1.5;"/>
    <defs>
     <path d="M -5 5 
L 5 5 
L 5 -5 
L -5 -5 
z
" id="m410cca3db7" style="stroke:#9cfba4;stroke-linejoin:miter;"/>
    </defs>
    <g clip-path="url(#pd92d1f7d37)">
     <use style="fill:#9cfba4;stroke:#9cfba4;stroke-linejoin:miter;" x="140.367568" xlink:href="#m410cca3db7" y="248.652973"/>
    </g>
   </g>
   <g id="line2d_24">
    <path clip-path="url(#pd92d1f7d37)" d="M 393.72973 276.804324 
" style="fill:none;stroke:#ff7f0e;stroke-linecap:square;stroke-width:1.5;"/>
    <defs>
     <path d="M 0 -5 
L -4.755283 -1.545085 
L -2.938926 4.045085 
L 2.938926 4.045085 
L 4.755283 -1.545085 
z
" id="maa51b7a84c" style="stroke:#9cfba4;stroke-linejoin:miter;"/>
    </defs>
    <g clip-path="url(#pd92d1f7d37)">
     <use style="fill:#9cfba4;stroke:#9cfba4;stroke-linejoin:miter;" x="393.72973" xlink:href="#maa51b7a84c" y="276.804324"/>
    </g>
   </g>
   <g id="line2d_25">
    <path clip-path="url(#pd92d1f7d37)" d="M 281.124324 192.35027 
" style="fill:none;stroke:#2ca02c;stroke-linecap:square;stroke-width:1.5;"/>
    <defs>
     <path d="M -5 5 
L 5 5 
L 5 -5 
L -5 -5 
z
" id="m1c164aa09b" style="stroke:#d4dd80;stroke-linejoin:miter;"/>
    </defs>
    <g clip-path="url(#pd92d1f7d37)">
     <use style="fill:#d4dd80;stroke:#d4dd80;stroke-linejoin:miter;" x="281.124324" xlink:href="#m1c164aa09b" y="192.35027"/>
    </g>
   </g>
   <g id="line2d_26">
    <path clip-path="url(#pd92d1f7d37)" d="M 281.124324 333.107027 
" style="fill:none;stroke:#d62728;stroke-linecap:square;stroke-width:1.5;"/>
    <defs>
     <path d="M 0 -5 
L -4.755283 -1.545085 
L -2.938926 4.045085 
L 2.938926 4.045085 
L 4.755283 -1.545085 
z
" id="mcc7e575428" style="stroke:#d4dd80;stroke-linejoin:miter;"/>
    </defs>
    <g clip-path="url(#pd92d1f7d37)">
     <use style="fill:#d4dd80;stroke:#d4dd80;stroke-linejoin:miter;" x="281.124324" xlink:href="#mcc7e575428" y="333.107027"/>
    </g>
   </g>
   <g id="line2d_27">
    <path clip-path="url(#pd92d1f7d37)" d="M 140.367568 304.955676 
" style="fill:none;stroke:#9467bd;stroke-linecap:square;stroke-width:1.5;"/>
    <defs>
     <path d="M -5 5 
L 5 5 
L 5 -5 
L -5 -5 
z
" id="m22d108fff4" style="stroke:#ffa457;stroke-linejoin:miter;"/>
    </defs>
    <g clip-path="url(#pd92d1f7d37)">
     <use style="fill:#ffa457;stroke:#ffa457;stroke-linejoin:miter;" x="140.367568" xlink:href="#m22d108fff4" y="304.955676"/>
    </g>
   </g>
   <g id="line2d_28">
    <path clip-path="url(#pd92d1f7d37)" d="M 309.275676 276.804324 
" style="fill:none;stroke:#8c564b;stroke-linecap:square;stroke-width:1.5;"/>
    <defs>
     <path d="M 0 -5 
L -4.755283 -1.545085 
L -2.938926 4.045085 
L 2.938926 4.045085 
L 4.755283 -1.545085 
z
" id="ma2f286bd70" style="stroke:#ffa457;stroke-linejoin:miter;"/>
    </defs>
    <g clip-path="url(#pd92d1f7d37)">
     <use style="fill:#ffa457;stroke:#ffa457;stroke-linejoin:miter;" x="309.275676" xlink:href="#ma2f286bd70" y="276.804324"/>
    </g>
   </g>
   <g id="line2d_29">
    <path clip-path="url(#pd92d1f7d37)" d="M 393.72973 220.501622 
" style="fill:none;stroke:#e377c2;stroke-linecap:square;stroke-width:1.5;"/>
    <defs>
     <path d="M -5 5 
L 5 5 
L 5 -5 
L -5 -5 
z
" id="m0f3940c183" style="stroke:#ff572c;stroke-linejoin:miter;"/>
    </defs>
    <g clip-path="url(#pd92d1f7d37)">
     <use style="fill:#ff572c;stroke:#ff572c;stroke-linejoin:miter;" x="393.72973" xlink:href="#m0f3940c183" y="220.501622"/>
    </g>
   </g>
   <g id="line2d_30">
    <path clip-path="url(#pd92d1f7d37)" d="M 140.367568 276.804324 
" style="fill:none;stroke:#7f7f7f;stroke-linecap:square;stroke-width:1.5;"/>
    <defs>
     <path d="M 0 -5 
L -4.755283 -1.545085 
L -2.938926 4.045085 
L 2.938926 4.045085 
L 4.755283 -1.545085 
z
" id="m394f15f4df" style="stroke:#ff572c;stroke-linejoin:miter;"/>
    </defs>
    <g clip-path="url(#pd92d1f7d37)">
     <use style="fill:#ff572c;stroke:#ff572c;stroke-linejoin:miter;" x="140.367568" xlink:href="#m394f15f4df" y="276.804324"/>
    </g>
   </g>
   <g id="line2d_31">
    <path clip-path="url(#pd92d1f7d37)" d="M 140.367568 136.047568 
" style="fill:none;stroke:#bcbd22;stroke-linecap:square;stroke-width:1.5;"/>
    <defs>
     <path d="M -5 5 
L 5 5 
L 5 -5 
L -5 -5 
z
" id="me986b477ed" style="stroke:#ff0000;stroke-linejoin:miter;"/>
    </defs>
    <g clip-path="url(#pd92d1f7d37)">
     <use style="fill:#ff0000;stroke:#ff0000;stroke-linejoin:miter;" x="140.367568" xlink:href="#me986b477ed" y="136.047568"/>
    </g>
   </g>
   <g id="line2d_32">
    <path clip-path="url(#pd92d1f7d37)" d="M 252.972973 248.652973 
" style="fill:none;stroke:#17becf;stroke-linecap:square;stroke-width:1.5;"/>
    <defs>
     <path d="M 0 -5 
L -4.755283 -1.545085 
L -2.938926 4.045085 
L 2.938926 4.045085 
L 4.755283 -1.545085 
z
" id="m293933f89f" style="stroke:#ff0000;stroke-linejoin:miter;"/>
    </defs>
    <g clip-path="url(#pd92d1f7d37)">
     <use style="fill:#ff0000;stroke:#ff0000;stroke-linejoin:miter;" x="252.972973" xlink:href="#m293933f89f" y="248.652973"/>
    </g>
   </g>
   <g id="line2d_33"/>
   <g id="line2d_34">
    <path clip-path="url(#pd92d1f7d37)" d="M 92.108108 493.971892 
L 92.108108 87.788108 
" style="fill:none;stroke:#000000;stroke-linecap:square;stroke-width:4;"/>
   </g>
   <g id="line2d_35">
    <path clip-path="url(#pd92d1f7d37)" d="M 92.108108 87.788108 
L 498.291892 87.788108 
" style="fill:none;stroke:#000000;stroke-linecap:square;stroke-width:4;"/>
   </g>
   <g id="line2d_36">
    <path clip-path="url(#pd92d1f7d37)" d="M 498.291892 87.788108 
L 498.291892 493.971892 
" style="fill:none;stroke:#000000;stroke-linecap:square;stroke-width:4;"/>
   </g>
   <g id="line2d_37">
    <path clip-path="url(#pd92d1f7d37)" d="M 498.291892 493.971892 
L 92.108108 493.971892 
" style="fill:none;stroke:#000000;stroke-linecap:square;stroke-width:4;"/>
   </g>
   <g id="line2d_38">
    <path clip-path="url(#pd92d1f7d37)" d="M 140.367568 389.40973 
L 140.809946 389.40973 
L 142.056649 389.289081 
L 143.785946 388.806486 
L 145.555459 387.841297 
L 146.761946 386.916324 
L 149.456432 384.664216 
L 158.062703 377.867676 
L 176.401297 363.430054 
L 183.358703 357.960649 
L 187.581405 354.703135 
L 189.109622 353.979243 
L 190.71827 353.536865 
L 192.648649 353.416216 
L 196.268108 353.657514 
L 198.077838 353.496649 
L 203.346162 352.370595 
L 206.764541 351.888 
L 232.663784 347.464216 
L 234.594162 347.464216 
L 238.33427 347.987027 
L 248.468757 348.429405 
L 255.426162 348.469622 
L 260.211892 348.469622 
L 262.102054 348.710919 
L 263.911784 349.072865 
L 269.421405 349.635892 
L 273.322378 350.842378 
L 274.850595 351.003243 
L 277.303784 350.761946 
L 277.746162 351.204324 
L 278.671135 352.772757 
L 280.521081 357.276973 
L 281.647135 358.684541 
L 283.054703 359.810595 
L 284.422054 360.454054 
L 286.432865 360.896432 
L 287.880649 360.896432 
L 291.379459 360.775784 
L 293.189189 360.816 
L 296.607568 360.413838 
L 298.537946 360.49427 
L 300.428108 360.976865 
L 305.495351 363.349622 
L 308.873514 364.153946 
L 310.40173 364.194162 
L 317.037405 363.47027 
L 318.565622 363.108324 
L 326.488216 360.172541 
L 327.453405 359.609514 
L 328.659892 358.604108 
L 328.619676 358.644324 
L 328.579459 358.764973 
L 328.579459 358.724757 
L 328.539243 358.403027 
L 328.217514 356.995459 
L 327.453405 355.386811 
L 326.367568 353.939027 
L 325.000216 352.611892 
L 323.753514 351.123892 
L 322.868757 349.394595 
L 322.064432 345.976216 
L 322.064432 344.005622 
L 322.506811 342.115459 
L 323.110054 340.587243 
L 326.005622 334.554811 
L 343.097514 298.722162 
L 344.022486 297.354811 
L 345.309405 295.947243 
L 346.395243 294.499459 
L 347.722378 291.684324 
L 350.376649 285.812757 
L 354.317838 277.286919 
L 355.04173 275.597838 
L 357.334054 268.439351 
L 359.465514 263.211243 
L 361.83827 258.063568 
L 368.835892 243.58573 
L 371.088 239.041297 
L 374.345514 232.244757 
L 379.050811 222.633081 
L 386.28973 207.672649 
L 390.995027 198.020757 
L 393.448216 192.953514 
L 393.448216 192.953514 
" style="fill:none;stroke:#8000ff;stroke-linecap:square;stroke-width:1.5;"/>
   </g>
   <g id="line2d_39">
    <path clip-path="url(#pd92d1f7d37)" d="M 450.032432 192.35027 
L 450.27373 192.430703 
L 450.434595 192.712216 
L 450.595459 193.395892 
L 450.635676 194.240432 
L 450.354162 195.768649 
L 449.63027 197.45773 
L 448.665081 198.825081 
L 447.29773 200.112 
L 431.412324 211.533405 
L 388.62227 242.540108 
L 381.705081 247.567135 
L 380.257297 248.693189 
L 379.292108 249.859459 
L 378.528 251.186595 
L 376.758486 256.414703 
L 375.069405 259.752649 
L 373.500973 262.889514 
L 371.771676 265.945946 
L 369.961946 268.921946 
L 365.296865 276.120649 
L 364.412108 277.769514 
L 362.441514 280.906378 
L 361.717622 282.555243 
L 360.99373 286.054054 
L 359.988324 289.512649 
L 359.907892 291.322378 
L 360.189405 293.132108 
L 360.712216 294.982054 
L 361.114378 296.992865 
L 361.114378 298.681946 
L 360.591568 302.381838 
L 360.672 304.272 
L 360.511135 305.920865 
L 359.344865 310.947892 
L 359.425297 312.797838 
L 359.385081 315.049946 
L 359.063351 316.698811 
L 357.897081 319.996541 
L 357.655784 321.80627 
L 357.253622 323.616 
L 356.650378 325.144216 
L 355.644973 326.793081 
L 352.186378 330.573405 
L 351.100541 331.820108 
L 350.175568 333.348324 
L 348.808216 336.565622 
L 347.883243 337.852541 
L 347.038703 339.260108 
L 346.475676 340.949189 
L 346.274595 342.718703 
L 346.757189 346.096865 
L 346.757189 347.785946 
L 346.194162 351.485838 
L 345.952865 355.386811 
L 345.349622 358.201946 
L 345.430054 358.201946 
L 345.671351 358.563892 
L 346.515892 359.328 
L 348.406054 360.574703 
L 348.365838 360.816 
L 348.406054 360.735568 
L 347.481081 362.947459 
L 346.153946 364.757189 
L 344.706162 365.963676 
L 343.338811 366.848432 
L 341.64973 367.773405 
L 340.16173 368.416865 
L 338.352 369.060324 
L 336.582486 369.542919 
L 334.692324 369.824432 
L 331.193514 370.105946 
L 327.413189 370.146162 
L 322.30573 369.824432 
L 315.107027 369.180973 
L 302.358486 368.135351 
L 300.468324 368.376649 
L 298.940108 368.698378 
L 295.441297 369.060324 
L 288.443676 369.301622 
L 284.944865 369.261405 
L 278.228757 368.819027 
L 274.770162 368.416865 
L 258.804324 366.245189 
L 239.701622 363.430054 
L 232.543135 362.384432 
L 226.993297 361.580108 
L 226.993297 361.580108 
" style="fill:none;stroke:#4757fb;stroke-linecap:square;stroke-width:1.5;"/>
   </g>
   <g id="line2d_40">
    <path clip-path="url(#pd92d1f7d37)" d="M 402.175135 440.082162 
L 401.974054 440.122378 
L 401.933838 440.202811 
L 402.416432 439.277838 
L 402.65773 438.272432 
L 402.577297 436.744216 
L 402.094703 435.055135 
L 401.250162 433.446486 
L 398.032865 429.143351 
L 382.831135 408.391784 
L 379.814919 404.249514 
L 372.696649 394.517189 
L 341.810595 352.370595 
L 340.483459 351.204324 
L 338.915027 350.359784 
L 334.089081 348.710919 
L 330.952216 347.263135 
L 329.424 346.297946 
L 328.499027 345.372973 
L 327.533838 343.844757 
L 326.890378 341.713297 
L 326.809946 339.742703 
L 327.171892 337.812324 
L 328.458811 334.35373 
L 331.072865 325.747459 
L 332.118486 322.087784 
L 332.440216 320.559568 
L 332.802162 320.479135 
L 333.526054 320.680216 
L 333.606486 320.881297 
L 333.56627 321.042162 
L 333.324973 321.484541 
L 332.681514 322.208432 
L 331.23373 323.334486 
L 329.464216 324.179027 
L 327.574054 324.581189 
L 325.603459 324.540973 
L 323.713297 324.058378 
L 322.225297 323.29427 
L 320.496 321.846486 
L 319.611243 320.64 
L 319.048216 319.353081 
L 318.646054 317.744432 
L 318.525405 316.095568 
L 318.766703 312.355459 
L 318.485189 310.666378 
L 317.922162 309.218595 
L 316.876541 307.609946 
L 315.991784 305.880649 
L 315.509189 304.312216 
L 314.624432 299.647135 
L 314.101622 298.199351 
L 313.297297 296.872216 
L 312.090811 295.585297 
L 310.723459 294.740757 
L 310.884324 294.740757 
L 310.482162 294.901622 
L 308.189838 296.148324 
L 304.811676 297.515676 
L 302.881297 297.917838 
L 300.950919 297.917838 
L 299.060757 297.475459 
L 295.602162 295.786378 
L 294.194595 295.223351 
L 292.54573 294.338595 
L 291.05773 293.091892 
L 287.76 289.07027 
L 286.674162 287.904 
L 285.708973 286.576865 
L 282.531892 281.670486 
L 281.325405 280.182486 
L 279.033081 277.528216 
L 277.826595 275.67827 
L 277.263568 274.109838 
L 276.941838 272.380541 
L 276.539676 269.283892 
L 275.735351 264.337297 
L 275.735351 262.688432 
L 276.137514 259.632 
L 276.137514 254.564757 
L 276.057081 250.824649 
L 275.735351 247.366054 
L 275.051676 243.424865 
L 274.086486 240.127135 
L 272.719135 236.668541 
L 272.035459 235.260973 
L 270.265946 232.284973 
L 268.013838 229.349189 
L 266.566054 227.740541 
L 264.032432 225.287351 
L 261.498811 222.391784 
L 260.292324 220.984216 
L 257.67827 218.329946 
L 250.962162 212.619243 
L 236.564757 201.439135 
L 231.055135 197.176216 
L 225.545514 192.913297 
L 225.545514 192.913297 
" style="fill:none;stroke:#0ea4f0;stroke-linecap:square;stroke-width:1.5;"/>
   </g>
   <g id="line2d_41">
    <path clip-path="url(#pd92d1f7d37)" d="M 224.821622 136.047568 
L 225.987892 136.128 
L 227.315027 136.44973 
L 229.004108 137.254054 
L 230.572541 138.500757 
L 231.738811 139.868108 
L 233.87027 143.004973 
L 273.764757 197.497946 
L 280.038486 205.983568 
L 281.164541 207.029189 
L 285.226378 209.723676 
L 287.920865 211.895351 
L 289.328432 212.860541 
L 290.695784 213.544216 
L 292.183784 214.026811 
L 302.519351 215.916973 
L 306.138811 216.882162 
L 307.667027 217.445189 
L 309.396324 218.209297 
L 312.73427 220.059243 
L 316.635243 222.874378 
L 319.168865 224.885189 
L 320.616649 226.131892 
L 321.903568 227.579676 
L 322.748108 228.987243 
L 323.79373 230.475243 
L 325.884973 232.606703 
L 328.137081 235.984865 
L 329.424 237.231568 
L 331.193514 238.236973 
L 332.681514 238.719568 
L 336.180324 239.363027 
L 338.150919 240.046703 
L 341.529081 241.856432 
L 344.987676 243.062919 
L 351.583135 246.280216 
L 353.272216 247.205189 
L 357.776432 250.140973 
L 365.497946 256.012541 
L 370.685838 260.597189 
L 372.173838 261.723243 
L 373.581405 263.010162 
L 374.747676 264.618811 
L 375.511784 266.428541 
L 379.131243 283.962811 
L 381.463784 294.459243 
L 383.072432 302.623135 
L 387.898378 329.24627 
L 389.547243 338.214486 
L 392.121081 352.451027 
L 393.488432 359.850811 
L 393.488432 359.850811 
" style="fill:none;stroke:#2adddd;stroke-linecap:square;stroke-width:1.5;"/>
   </g>
   <g id="line2d_42">
    <path clip-path="url(#pd92d1f7d37)" d="M 450.032432 304.955676 
L 449.791135 305.036108 
L 449.670486 305.237189 
L 449.670486 305.317622 
L 449.63027 304.995892 
L 449.388973 304.272 
L 448.866162 303.387243 
L 447.820541 302.46227 
L 446.252108 301.657946 
L 444.683676 301.215568 
L 428.959135 297.958054 
L 404.829405 292.810378 
L 399.03827 291.603892 
L 386.450595 288.909405 
L 371.007568 285.651892 
L 364.452324 284.244324 
L 362.883892 283.962811 
L 361.114378 283.962811 
L 359.385081 284.364973 
L 357.977514 285.048649 
L 353.714595 287.863784 
L 348.969081 290.236541 
L 347.481081 291.282162 
L 341.971459 296.188541 
L 341.448649 296.349405 
L 340.483459 296.470054 
L 338.955243 296.309189 
L 337.225946 295.625514 
L 335.577081 294.539676 
L 333.244541 292.166919 
L 332.641297 291.764757 
L 331.394595 291.282162 
L 329.625081 291.000649 
L 327.855568 291.161514 
L 326.166486 291.684324 
L 324.879568 292.368 
L 323.914378 293.172324 
L 323.190486 294.016865 
L 322.426378 295.263568 
L 321.340541 296.711351 
L 319.892757 297.99827 
L 318.123243 298.883027 
L 316.273297 299.405838 
L 314.544 299.727568 
L 313.056 300.250378 
L 311.769081 300.853622 
L 310.120216 301.497081 
L 308.471351 301.778595 
L 306.822486 301.778595 
L 300.468324 300.732973 
L 295.561946 299.244973 
L 292.304432 297.99827 
L 288.886054 296.309189 
L 287.478486 295.545081 
L 280.802595 292.850595 
L 269.542054 287.099676 
L 266.485622 285.491027 
L 264.836757 284.686703 
L 263.308541 284.244324 
L 259.849946 283.600865 
L 254.662054 282.153081 
L 249.554595 280.464 
L 244.809081 278.614054 
L 240.144 276.522811 
L 235.599568 274.150054 
L 223.45427 266.75027 
L 216.295784 262.044973 
L 204.552649 254.041946 
L 198.359351 249.819243 
L 198.359351 249.819243 
" style="fill:none;stroke:#63fbc3;stroke-linecap:square;stroke-width:1.5;"/>
   </g>
   <g id="line2d_43">
    <path clip-path="url(#pd92d1f7d37)" d="M 140.367568 248.652973 
L 142.981622 248.733405 
L 146.440216 249.055135 
L 173.344865 252.071351 
L 183.479351 253.237622 
L 226.591135 257.82227 
L 239.500541 258.988541 
L 241.511351 259.511351 
L 243.280865 260.396108 
L 244.648216 261.481946 
L 245.894919 262.28627 
L 247.584 262.889514 
L 249.353514 263.090595 
L 251.123027 262.92973 
L 252.812108 262.326486 
L 254.099027 261.562378 
L 255.788108 260.758054 
L 257.316324 260.355892 
L 260.895568 259.792865 
L 262.705297 259.350486 
L 264.313946 259.109189 
L 266.566054 259.270054 
L 268.013838 259.511351 
L 269.501838 259.632 
L 272.598486 259.31027 
L 276.700541 259.551568 
L 278.51027 259.31027 
L 281.526486 258.264649 
L 282.893838 257.540757 
L 285.588324 255.409297 
L 287.156757 254.363676 
L 289.931676 252.755027 
L 293.108757 250.784432 
L 294.838054 249.899676 
L 296.406486 249.336649 
L 298.377081 249.135568 
L 300.307459 249.336649 
L 310.683243 252.031135 
L 317.278703 253.116973 
L 319.249297 253.398486 
L 321.099243 253.881081 
L 324.437189 255.127784 
L 333.043459 256.736432 
L 338.713946 258.385297 
L 357.092757 264.41773 
L 361.958919 265.865514 
L 371.972757 268.801297 
L 379.131243 271.294703 
L 392.925405 276.482595 
L 392.925405 276.482595 
" style="fill:none;stroke:#9cfba4;stroke-linecap:square;stroke-width:1.5;"/>
   </g>
   <g id="line2d_44">
    <path clip-path="url(#pd92d1f7d37)" d="M 281.124324 192.35027 
L 281.285189 192.35027 
L 281.888432 192.511135 
L 282.572108 192.873081 
L 283.296 193.436108 
L 284.019892 194.401297 
L 284.582919 195.929514 
L 284.784 197.859892 
L 284.784 199.468541 
L 284.703568 201.358703 
L 284.623135 203.208649 
L 284.582919 205.098811 
L 284.502486 206.988973 
L 284.46227 208.838919 
L 284.422054 210.447568 
L 284.381838 212.33773 
L 284.341622 214.227892 
L 284.261189 215.836541 
L 284.220973 217.686486 
L 284.180757 219.295135 
L 284.140541 221.185297 
L 284.060108 223.316757 
L 284.019892 225.206919 
L 283.979676 227.056865 
L 283.939459 228.947027 
L 283.899243 230.555676 
L 283.818811 232.445838 
L 283.778595 234.054486 
L 283.738378 235.904432 
L 283.698162 237.794595 
L 283.61773 239.684757 
L 283.577514 241.534703 
L 283.537297 243.424865 
L 283.497081 245.033514 
L 283.456865 246.923676 
L 283.376432 248.773622 
L 283.336216 250.663784 
L 283.296 252.553946 
L 283.255784 254.162595 
L 283.215568 255.771243 
L 283.175351 257.379892 
L 283.094919 259.229838 
L 283.054703 261.12 
L 283.014486 262.728649 
L 282.97427 264.578595 
L 282.934054 266.468757 
L 282.853622 268.077405 
L 282.813405 269.967568 
L 282.773189 271.817514 
L 282.732973 273.707676 
L 282.652541 275.597838 
L 282.612324 277.206486 
L 282.572108 279.056432 
L 282.531892 280.946595 
L 282.491676 282.836757 
L 282.451459 284.445405 
L 282.371027 286.295351 
L 282.330811 288.185514 
L 282.290595 289.794162 
L 282.250378 291.644108 
L 282.169946 293.53427 
L 282.12973 295.142919 
L 282.089514 297.033081 
L 282.049297 298.64173 
L 282.009081 300.491676 
L 281.968865 302.381838 
L 281.888432 303.990486 
L 281.848216 305.880649 
L 281.808 307.489297 
L 281.767784 309.339243 
L 281.727568 311.229405 
L 281.687351 312.838054 
L 281.606919 314.446703 
L 281.566703 316.578162 
L 281.526486 318.186811 
L 281.48627 319.795459 
L 281.446054 321.685622 
L 281.405838 323.575784 
L 281.365622 325.42573 
L 281.365622 327.034378 
L 281.365622 328.924541 
L 281.405838 330.492973 
L 281.48627 332.383135 
" style="fill:none;stroke:#d4dd80;stroke-linecap:square;stroke-width:1.5;"/>
   </g>
   <g id="line2d_45">
    <path clip-path="url(#pd92d1f7d37)" d="M 140.367568 304.955676 
L 141.091459 304.955676 
L 142.539243 304.915459 
L 144.067459 304.714378 
L 145.917405 304.432865 
L 147.767351 304.111135 
L 149.617297 303.789405 
L 151.467243 303.467676 
L 153.317189 303.145946 
L 155.167135 302.864432 
L 156.735568 302.582919 
L 158.585514 302.261189 
L 160.194162 302.019892 
L 162.044108 301.698162 
L 163.894054 301.376432 
L 165.744 301.054703 
L 167.593946 300.732973 
L 169.162378 300.491676 
L 171.012324 300.169946 
L 172.86227 299.848216 
L 174.470919 299.606919 
L 176.562162 299.244973 
L 178.170811 298.963459 
L 179.739243 298.681946 
L 181.347892 298.440649 
L 182.916324 298.159135 
L 184.524973 297.877622 
L 186.093405 297.636324 
L 187.943351 297.314595 
L 190.074811 296.952649 
L 191.643243 296.671135 
L 193.251892 296.429838 
L 194.820324 296.148324 
L 196.67027 295.826595 
L 197.957189 295.625514 
L 199.083243 295.384216 
L 200.088649 295.142919 
L 201.254919 294.780973 
L 202.380973 294.378811 
L 203.788541 293.896216 
L 205.638486 293.413622 
L 207.488432 293.091892 
L 209.056865 292.850595 
L 210.906811 292.569081 
L 212.756757 292.287568 
L 214.606703 292.006054 
L 216.496865 291.724541 
L 218.346811 291.443027 
L 220.196757 291.161514 
L 222.046703 290.88 
L 223.655351 290.638703 
L 225.505297 290.397405 
L 227.355243 290.115892 
L 228.963892 289.914811 
L 230.813838 289.673514 
L 232.663784 289.432216 
L 234.272432 289.231135 
L 235.881081 289.030054 
L 237.288649 288.828973 
L 237.409297 288.828973 
L 237.610378 288.708324 
L 237.972324 288.426811 
L 238.092973 288.22573 
L 238.454919 287.783351 
L 239.621189 286.697514 
L 241.109189 285.852973 
L 242.717838 285.330162 
L 244.648216 285.088865 
L 246.498162 285.048649 
L 248.348108 285.088865 
L 250.23827 285.048649 
L 252.088216 285.008432 
L 253.978378 284.887784 
L 256.109838 284.767135 
L 257.959784 284.686703 
L 259.568432 284.566054 
L 261.458595 284.485622 
L 263.067243 284.405189 
L 264.957405 284.324757 
L 266.566054 284.244324 
L 268.174703 284.163892 
L 270.024649 284.043243 
L 271.914811 283.882378 
L 273.483243 283.76173 
L 275.091892 283.600865 
L 276.941838 283.359568 
L 279.073297 283.078054 
L 280.64173 282.796541 
L 282.491676 282.515027 
L 284.341622 282.193297 
L 286.191568 281.831351 
L 288.041514 281.469405 
L 289.851243 281.107459 
L 291.701189 280.705297 
L 293.269622 280.383568 
L 295.079351 279.981405 
L 296.647784 279.619459 
L 298.457514 279.177081 
L 300.267243 278.65427 
L 301.795459 278.171676 
L 303.363892 277.689081 
L 305.173622 277.246703 
L 307.063784 276.884757 
" style="fill:none;stroke:#ffa457;stroke-linecap:square;stroke-width:1.5;"/>
   </g>
   <g id="line2d_46">
    <path clip-path="url(#pd92d1f7d37)" d="M 393.72973 220.501622 
L 393.971027 220.582054 
L 394.091676 220.783135 
L 394.051459 221.708108 
L 393.72973 222.592865 
L 393.206919 223.477622 
L 392.161297 224.603676 
L 390.592865 225.72973 
L 388.783135 226.493838 
L 385.324541 227.21773 
L 381.383351 227.941622 
L 372.173838 229.831784 
L 357.977514 232.687135 
L 352.467892 233.813189 
L 320.134054 240.368432 
L 318.243892 240.690162 
L 312.653838 240.730378 
L 311.045189 241.011892 
L 309.235459 241.494486 
L 306.983351 241.695568 
L 305.334486 241.45427 
L 302.076973 240.288 
L 296.969514 238.518486 
L 293.510919 237.070703 
L 288.966486 235.743568 
L 284.703568 233.330595 
L 281.043892 232.445838 
L 277.746162 231.118703 
L 275.976649 230.756757 
L 274.287568 230.274162 
L 271.110486 228.625297 
L 266.163892 226.976432 
L 264.555243 225.810162 
L 262.102054 223.236324 
L 260.573838 222.271135 
L 258.924973 221.667892 
L 257.115243 221.507027 
L 255.587027 221.667892 
L 253.897946 222.230919 
L 250.600216 223.718919 
L 248.951351 224.121081 
L 247.020973 224.201514 
L 242.999351 223.59827 
L 241.471135 223.718919 
L 236.604973 225.046054 
L 234.835459 225.568865 
L 233.02573 226.57427 
L 231.738811 227.740541 
L 230.170378 228.906811 
L 228.722595 229.670919 
L 222.408649 232.486054 
L 176.16 257.420108 
L 141.734919 276.040216 
L 141.734919 276.040216 
" style="fill:none;stroke:#ff572c;stroke-linecap:square;stroke-width:1.5;"/>
   </g>
   <g id="line2d_47">
    <path clip-path="url(#pd92d1f7d37)" d="M 140.367568 136.047568 
L 140.890378 136.047568 
L 142.016432 136.168216 
L 143.866378 136.691027 
L 145.595676 137.616 
L 146.922811 138.78227 
L 148.249946 140.149622 
L 149.335784 141.315892 
L 150.622703 142.683243 
L 151.909622 144.050595 
L 153.236757 145.37773 
L 154.322595 146.544 
L 155.64973 147.871135 
L 156.775784 149.037405 
L 158.062703 150.404757 
L 159.349622 151.731892 
L 160.676757 153.099243 
L 161.802811 154.265514 
L 163.08973 155.592649 
L 164.215784 156.758919 
L 165.502703 158.12627 
L 166.628757 159.252324 
L 167.915676 160.619676 
L 169.242811 161.987027 
L 170.52973 163.314162 
L 171.856865 164.681514 
L 172.942703 165.807568 
L 174.269838 167.174919 
L 175.556757 168.502054 
L 176.682811 169.668324 
L 178.009946 171.035676 
L 179.296865 172.362811 
L 180.422919 173.529081 
L 181.709838 174.896432 
L 182.835892 176.022486 
L 184.122811 177.389838 
L 185.248865 178.556108 
L 186.576 179.883243 
L 187.862919 181.250595 
L 188.988973 182.416865 
L 190.275892 183.744 
L 191.603027 185.111351 
L 192.729081 186.277622 
L 194.016 187.604757 
L 195.302919 188.972108 
L 196.630054 190.299243 
L 197.756108 191.465514 
L 199.043027 192.832865 
L 200.169081 193.958919 
L 201.295135 195.125189 
L 202.380973 196.291459 
L 203.507027 197.45773 
L 204.633081 198.583784 
L 205.92 199.951135 
L 207.247135 201.318486 
L 208.534054 202.645622 
L 209.660108 203.811892 
L 210.947027 205.139027 
L 212.274162 206.506378 
L 213.561081 207.87373 
L 214.888216 209.200865 
L 216.376216 210.769297 
L 217.462054 211.895351 
L 218.588108 213.061622 
L 219.915243 214.428973 
L 221.001081 215.555027 
L 222.127135 216.721297 
L 223.253189 217.887568 
L 224.379243 219.053838 
L 225.666162 220.380973 
L 226.993297 221.748324 
L 228.280216 223.075459 
L 229.768216 224.643892 
L 230.89427 225.810162 
L 232.181189 227.137297 
L 233.307243 228.303568 
L 234.634378 229.670919 
L 235.720216 230.796973 
L 237.047351 232.164324 
L 238.33427 233.491459 
L 239.460324 234.65773 
L 240.586378 235.824 
L 241.672216 236.99027 
L 242.79827 238.156541 
L 243.884108 239.363027 
L 245.090595 240.810811 
L 246.297081 242.258595 
L 247.423135 243.746595 
L 248.549189 245.154162 
L 249.836108 246.481297 
L 251.002378 247.526919 
" style="fill:none;stroke:#ff0000;stroke-linecap:square;stroke-width:1.5;"/>
   </g>
   <g id="patch_3">
    <path d="M 72 512.64 
L 72 69.12 
" style="fill:none;stroke:#000000;stroke-linecap:square;stroke-linejoin:miter;stroke-width:0.8;"/>
   </g>
   <g id="patch_4">
    <path d="M 518.4 512.64 
L 518.4 69.12 
" style="fill:none;stroke:#000000;stroke-linecap:square;stroke-linejoin:miter;stroke-width:0.8;"/>
   </g>
   <g id="patch_5">
    <path d="M 72 512.64 
L 518.4 512.64 
" style="fill:none;stroke:#000000;stroke-linecap:square;stroke-linejoin:miter;stroke-width:0.8;"/>
   </g>
   <g id="patch_6">
    <path d="M 72 69.12 
L 518.4 69.12 
" style="fill:none;stroke:#000000;stroke-linecap:square;stroke-linejoin:miter;stroke-width:0.8;"/>
   </g>
   <g id="text_13">
    <!-- 1 -->
    <defs>
     <path d="M 14.203125 0 
L 14.203125 5.171875 
L 26.90625 5.171875 
L 26.90625 65.828125 
L 12.203125 56.296875 
L 12.203125 62.703125 
L 29.984375 74.21875 
L 36.71875 74.21875 
L 36.71875 5.171875 
L 49.421875 5.171875 
L 49.421875 0 
z
" id="DejaVuSerif-31"/>
    </defs>
    <g transform="translate(137.186318 389.40973)scale(0.1 -0.1)">
     <use xlink:href="#DejaVuSerif-31"/>
    </g>
   </g>
   <g id="text_14">
    <!-- 1 -->
    <g transform="translate(390.54848 192.35027)scale(0.1 -0.1)">
     <use xlink:href="#DejaVuSerif-31"/>
    </g>
   </g>
   <g id="text_15">
    <!-- 2 -->
    <defs>
     <path d="M 12.796875 55.515625 
L 7.328125 55.515625 
L 7.328125 68.5 
Q 12.546875 71.296875 17.84375 72.75 
Q 23.140625 74.21875 28.21875 74.21875 
Q 39.59375 74.21875 46.1875 68.703125 
Q 52.78125 63.1875 52.78125 53.71875 
Q 52.78125 43.015625 37.84375 28.125 
Q 36.671875 27 36.078125 26.421875 
L 17.671875 8.015625 
L 48.09375 8.015625 
L 48.09375 17 
L 53.8125 17 
L 53.8125 0 
L 6.78125 0 
L 6.78125 5.328125 
L 28.90625 27.390625 
Q 36.234375 34.71875 39.359375 40.84375 
Q 42.484375 46.96875 42.484375 53.71875 
Q 42.484375 61.078125 38.640625 65.234375 
Q 34.8125 69.390625 28.078125 69.390625 
Q 21.09375 69.390625 17.28125 65.921875 
Q 13.484375 62.453125 12.796875 55.515625 
z
" id="DejaVuSerif-32"/>
    </defs>
    <g transform="translate(446.851182 192.35027)scale(0.1 -0.1)">
     <use xlink:href="#DejaVuSerif-32"/>
    </g>
   </g>
   <g id="text_16">
    <!-- 2 -->
    <g transform="translate(221.640372 361.258378)scale(0.1 -0.1)">
     <use xlink:href="#DejaVuSerif-32"/>
    </g>
   </g>
   <g id="text_17">
    <!-- 3 -->
    <defs>
     <path d="M 9.71875 69.828125 
Q 15.4375 71.96875 20.671875 73.09375 
Q 25.921875 74.21875 30.515625 74.21875 
Q 41.21875 74.21875 47.21875 69.59375 
Q 53.21875 64.984375 53.21875 56.78125 
Q 53.21875 50.203125 49.0625 45.78125 
Q 44.921875 41.359375 37.3125 39.796875 
Q 46.296875 38.53125 51.25 33.28125 
Q 56.203125 28.03125 56.203125 19.671875 
Q 56.203125 9.46875 49.34375 4.015625 
Q 42.484375 -1.421875 29.59375 -1.421875 
Q 23.875 -1.421875 18.421875 -0.1875 
Q 12.984375 1.03125 7.625 3.515625 
L 7.625 17.671875 
L 13.09375 17.671875 
Q 13.578125 10.640625 17.828125 7.03125 
Q 22.078125 3.421875 29.78125 3.421875 
Q 37.25 3.421875 41.578125 7.734375 
Q 45.90625 12.0625 45.90625 19.578125 
Q 45.90625 28.171875 41.453125 32.59375 
Q 37.015625 37.015625 28.421875 37.015625 
L 23.78125 37.015625 
L 23.78125 42 
L 26.21875 42 
Q 34.765625 42 39.03125 45.53125 
Q 43.3125 49.078125 43.3125 56.203125 
Q 43.3125 62.59375 39.796875 65.984375 
Q 36.28125 69.390625 29.6875 69.390625 
Q 23.09375 69.390625 19.453125 66.265625 
Q 15.828125 63.140625 15.1875 56.984375 
L 9.71875 56.984375 
z
" id="DejaVuSerif-33"/>
    </defs>
    <g transform="translate(398.993885 440.082162)scale(0.1 -0.1)">
     <use xlink:href="#DejaVuSerif-33"/>
    </g>
   </g>
   <g id="text_18">
    <!-- 3 -->
    <g transform="translate(221.640372 192.35027)scale(0.1 -0.1)">
     <use xlink:href="#DejaVuSerif-33"/>
    </g>
   </g>
   <g id="text_19">
    <!-- 4 -->
    <defs>
     <path d="M 34.90625 24.703125 
L 34.90625 63.484375 
L 10.015625 24.703125 
z
M 56.390625 0 
L 23.1875 0 
L 23.1875 5.171875 
L 34.90625 5.171875 
L 34.90625 19.484375 
L 3.078125 19.484375 
L 3.078125 24.8125 
L 35.015625 74.21875 
L 44.671875 74.21875 
L 44.671875 24.703125 
L 58.59375 24.703125 
L 58.59375 19.484375 
L 44.671875 19.484375 
L 44.671875 5.171875 
L 56.390625 5.171875 
z
" id="DejaVuSerif-34"/>
    </defs>
    <g transform="translate(221.640372 136.047568)scale(0.1 -0.1)">
     <use xlink:href="#DejaVuSerif-34"/>
    </g>
   </g>
   <g id="text_20">
    <!-- 4 -->
    <g transform="translate(390.54848 361.258378)scale(0.1 -0.1)">
     <use xlink:href="#DejaVuSerif-34"/>
    </g>
   </g>
   <g id="text_21">
    <!-- 5 -->
    <defs>
     <path d="M 50.296875 72.90625 
L 50.296875 64.890625 
L 16.890625 64.890625 
L 16.890625 44 
Q 19.4375 45.75 22.828125 46.625 
Q 26.21875 47.515625 30.421875 47.515625 
Q 42.234375 47.515625 49.0625 40.96875 
Q 55.90625 34.421875 55.90625 23.09375 
Q 55.90625 11.53125 49 5.046875 
Q 42.09375 -1.421875 29.59375 -1.421875 
Q 24.5625 -1.421875 19.28125 -0.1875 
Q 14.015625 1.03125 8.5 3.515625 
L 8.5 17.671875 
L 14.015625 17.671875 
Q 14.453125 10.75 18.421875 7.078125 
Q 22.40625 3.421875 29.59375 3.421875 
Q 37.3125 3.421875 41.453125 8.5 
Q 45.609375 13.578125 45.609375 23.09375 
Q 45.609375 32.5625 41.484375 37.609375 
Q 37.359375 42.671875 29.59375 42.671875 
Q 25.203125 42.671875 21.84375 41.109375 
Q 18.5 39.546875 15.921875 36.28125 
L 11.71875 36.28125 
L 11.71875 72.90625 
z
" id="DejaVuSerif-35"/>
    </defs>
    <g transform="translate(446.851182 304.955676)scale(0.1 -0.1)">
     <use xlink:href="#DejaVuSerif-35"/>
    </g>
   </g>
   <g id="text_22">
    <!-- 5 -->
    <g transform="translate(193.48902 248.652973)scale(0.1 -0.1)">
     <use xlink:href="#DejaVuSerif-35"/>
    </g>
   </g>
   <g id="text_23">
    <!-- 6 -->
    <defs>
     <path d="M 32.71875 3.421875 
Q 39.59375 3.421875 43.296875 8.46875 
Q 47.015625 13.53125 47.015625 23 
Q 47.015625 32.46875 43.296875 37.515625 
Q 39.59375 42.578125 32.71875 42.578125 
Q 25.734375 42.578125 22.0625 37.6875 
Q 18.40625 32.8125 18.40625 23.578125 
Q 18.40625 13.875 22.109375 8.640625 
Q 25.828125 3.421875 32.71875 3.421875 
z
M 16.796875 40.140625 
Q 20.125 43.796875 24.3125 45.59375 
Q 28.515625 47.40625 33.796875 47.40625 
Q 44.671875 47.40625 51 40.859375 
Q 57.328125 34.328125 57.328125 23 
Q 57.328125 11.921875 50.515625 5.25 
Q 43.703125 -1.421875 32.328125 -1.421875 
Q 19.96875 -1.421875 13.328125 7.78125 
Q 6.6875 17 6.6875 34.078125 
Q 6.6875 53.21875 14.546875 63.71875 
Q 22.40625 74.21875 36.71875 74.21875 
Q 40.578125 74.21875 44.828125 73.484375 
Q 49.078125 72.75 53.515625 71.296875 
L 53.515625 59.28125 
L 48 59.28125 
Q 47.40625 64.203125 44.234375 66.796875 
Q 41.0625 69.390625 35.6875 69.390625 
Q 26.21875 69.390625 21.578125 62.203125 
Q 16.9375 55.03125 16.796875 40.140625 
z
" id="DejaVuSerif-36"/>
    </defs>
    <g transform="translate(137.186318 248.652973)scale(0.1 -0.1)">
     <use xlink:href="#DejaVuSerif-36"/>
    </g>
   </g>
   <g id="text_24">
    <!-- 6 -->
    <g transform="translate(390.54848 276.804324)scale(0.1 -0.1)">
     <use xlink:href="#DejaVuSerif-36"/>
    </g>
   </g>
   <g id="text_25">
    <!-- 7 -->
    <defs>
     <path d="M 56.390625 67.921875 
L 27.875 0 
L 20.609375 0 
L 47.796875 64.890625 
L 14.109375 64.890625 
L 14.109375 55.90625 
L 8.40625 55.90625 
L 8.40625 72.90625 
L 56.390625 72.90625 
z
" id="DejaVuSerif-37"/>
    </defs>
    <g transform="translate(277.943074 192.35027)scale(0.1 -0.1)">
     <use xlink:href="#DejaVuSerif-37"/>
    </g>
   </g>
   <g id="text_26">
    <!-- 7 -->
    <g transform="translate(277.943074 333.107027)scale(0.1 -0.1)">
     <use xlink:href="#DejaVuSerif-37"/>
    </g>
   </g>
   <g id="text_27">
    <!-- 8 -->
    <defs>
     <path d="M 46.578125 19.921875 
Q 46.578125 27.734375 42.6875 32.046875 
Q 38.8125 36.375 31.78125 36.375 
Q 24.75 36.375 20.875 32.046875 
Q 17 27.734375 17 19.921875 
Q 17 12.0625 20.875 7.734375 
Q 24.75 3.421875 31.78125 3.421875 
Q 38.8125 3.421875 42.6875 7.734375 
Q 46.578125 12.0625 46.578125 19.921875 
z
M 44.578125 55.328125 
Q 44.578125 61.96875 41.203125 65.671875 
Q 37.84375 69.390625 31.78125 69.390625 
Q 25.78125 69.390625 22.390625 65.671875 
Q 19 61.96875 19 55.328125 
Q 19 48.640625 22.390625 44.921875 
Q 25.78125 41.21875 31.78125 41.21875 
Q 37.84375 41.21875 41.203125 44.921875 
Q 44.578125 48.640625 44.578125 55.328125 
z
M 39.3125 38.8125 
Q 47.609375 37.703125 52.25 32.6875 
Q 56.890625 27.6875 56.890625 19.921875 
Q 56.890625 9.671875 50.390625 4.125 
Q 43.890625 -1.421875 31.78125 -1.421875 
Q 19.734375 -1.421875 13.203125 4.125 
Q 6.6875 9.671875 6.6875 19.921875 
Q 6.6875 27.6875 11.328125 32.6875 
Q 15.96875 37.703125 24.3125 38.8125 
Q 16.9375 40.140625 13 44.40625 
Q 9.078125 48.6875 9.078125 55.328125 
Q 9.078125 64.109375 15.125 69.15625 
Q 21.1875 74.21875 31.78125 74.21875 
Q 42.390625 74.21875 48.4375 69.15625 
Q 54.5 64.109375 54.5 55.328125 
Q 54.5 48.6875 50.5625 44.40625 
Q 46.625 40.140625 39.3125 38.8125 
z
" id="DejaVuSerif-38"/>
    </defs>
    <g transform="translate(137.186318 304.955676)scale(0.1 -0.1)">
     <use xlink:href="#DejaVuSerif-38"/>
    </g>
   </g>
   <g id="text_28">
    <!-- 8 -->
    <g transform="translate(306.094426 276.804324)scale(0.1 -0.1)">
     <use xlink:href="#DejaVuSerif-38"/>
    </g>
   </g>
   <g id="text_29">
    <!-- 9 -->
    <defs>
     <path d="M 46.78125 32.671875 
Q 43.5 29 39.25 27.1875 
Q 35.015625 25.390625 29.6875 25.390625 
Q 18.84375 25.390625 12.5625 31.9375 
Q 6.296875 38.484375 6.296875 49.8125 
Q 6.296875 60.890625 13.109375 67.546875 
Q 19.921875 74.21875 31.296875 74.21875 
Q 43.65625 74.21875 50.265625 65.015625 
Q 56.890625 55.8125 56.890625 38.71875 
Q 56.890625 19.578125 49.015625 9.078125 
Q 41.15625 -1.421875 26.90625 -1.421875 
Q 23.046875 -1.421875 18.796875 -0.6875 
Q 14.546875 0.046875 10.109375 1.515625 
L 10.109375 13.625 
L 15.578125 13.625 
Q 16.21875 8.6875 19.390625 6.046875 
Q 22.5625 3.421875 27.875 3.421875 
Q 37.359375 3.421875 41.984375 10.5625 
Q 46.625 17.71875 46.78125 32.671875 
z
M 30.90625 69.390625 
Q 23.96875 69.390625 20.28125 64.328125 
Q 16.609375 59.28125 16.609375 49.8125 
Q 16.609375 40.328125 20.28125 35.25 
Q 23.96875 30.171875 30.90625 30.171875 
Q 37.84375 30.171875 41.53125 35.078125 
Q 45.21875 39.984375 45.21875 49.21875 
Q 45.21875 58.9375 41.5 64.15625 
Q 37.796875 69.390625 30.90625 69.390625 
z
" id="DejaVuSerif-39"/>
    </defs>
    <g transform="translate(390.54848 220.501622)scale(0.1 -0.1)">
     <use xlink:href="#DejaVuSerif-39"/>
    </g>
   </g>
   <g id="text_30">
    <!-- 9 -->
    <g transform="translate(137.186318 276.804324)scale(0.1 -0.1)">
     <use xlink:href="#DejaVuSerif-39"/>
    </g>
   </g>
   <g id="text_31">
    <!-- 10 -->
    <defs>
     <path d="M 31.78125 3.421875 
Q 39.265625 3.421875 42.96875 11.625 
Q 46.6875 19.828125 46.6875 36.375 
Q 46.6875 52.984375 42.96875 61.1875 
Q 39.265625 69.390625 31.78125 69.390625 
Q 24.3125 69.390625 20.59375 61.1875 
Q 16.890625 52.984375 16.890625 36.375 
Q 16.890625 19.828125 20.59375 11.625 
Q 24.3125 3.421875 31.78125 3.421875 
z
M 31.78125 -1.421875 
Q 19.921875 -1.421875 13.25 8.53125 
Q 6.59375 18.5 6.59375 36.375 
Q 6.59375 54.296875 13.25 64.25 
Q 19.921875 74.21875 31.78125 74.21875 
Q 43.703125 74.21875 50.34375 64.25 
Q 56.984375 54.296875 56.984375 36.375 
Q 56.984375 18.5 50.34375 8.53125 
Q 43.703125 -1.421875 31.78125 -1.421875 
z
" id="DejaVuSerif-30"/>
    </defs>
    <g transform="translate(134.005068 136.047568)scale(0.1 -0.1)">
     <use xlink:href="#DejaVuSerif-31"/>
     <use x="63.623047" xlink:href="#DejaVuSerif-30"/>
    </g>
   </g>
   <g id="text_32">
    <!-- 10 -->
    <g transform="translate(246.610473 248.652973)scale(0.1 -0.1)">
     <use xlink:href="#DejaVuSerif-31"/>
     <use x="63.623047" xlink:href="#DejaVuSerif-30"/>
    </g>
   </g>
   <g id="text_33">
    <!-- MRPP -->
    <defs>
     <path d="M 9.8125 72.90625 
L 24.515625 72.90625 
L 43.109375 23.296875 
L 61.8125 72.90625 
L 76.515625 72.90625 
L 76.515625 0 
L 66.890625 0 
L 66.890625 64.015625 
L 48.09375 14.015625 
L 38.1875 14.015625 
L 19.390625 64.015625 
L 19.390625 0 
L 9.8125 0 
z
" id="DejaVuSans-4d"/>
     <path d="M 44.390625 34.1875 
Q 47.5625 33.109375 50.5625 29.59375 
Q 53.5625 26.078125 56.59375 19.921875 
L 66.609375 0 
L 56 0 
L 46.6875 18.703125 
Q 43.0625 26.03125 39.671875 28.421875 
Q 36.28125 30.8125 30.421875 30.8125 
L 19.671875 30.8125 
L 19.671875 0 
L 9.8125 0 
L 9.8125 72.90625 
L 32.078125 72.90625 
Q 44.578125 72.90625 50.734375 67.671875 
Q 56.890625 62.453125 56.890625 51.90625 
Q 56.890625 45.015625 53.6875 40.46875 
Q 50.484375 35.9375 44.390625 34.1875 
z
M 19.671875 64.796875 
L 19.671875 38.921875 
L 32.078125 38.921875 
Q 39.203125 38.921875 42.84375 42.21875 
Q 46.484375 45.515625 46.484375 51.90625 
Q 46.484375 58.296875 42.84375 61.546875 
Q 39.203125 64.796875 32.078125 64.796875 
z
" id="DejaVuSans-52"/>
     <path d="M 19.671875 64.796875 
L 19.671875 37.40625 
L 32.078125 37.40625 
Q 38.96875 37.40625 42.71875 40.96875 
Q 46.484375 44.53125 46.484375 51.125 
Q 46.484375 57.671875 42.71875 61.234375 
Q 38.96875 64.796875 32.078125 64.796875 
z
M 9.8125 72.90625 
L 32.078125 72.90625 
Q 44.34375 72.90625 50.609375 67.359375 
Q 56.890625 61.8125 56.890625 51.125 
Q 56.890625 40.328125 50.609375 34.8125 
Q 44.34375 29.296875 32.078125 29.296875 
L 19.671875 29.296875 
L 19.671875 0 
L 9.8125 0 
z
" id="DejaVuSans-50"/>
    </defs>
    <g transform="translate(278.618437 63.12)scale(0.12 -0.12)">
     <use xlink:href="#DejaVuSans-4d"/>
     <use x="86.279297" xlink:href="#DejaVuSans-52"/>
     <use x="155.761719" xlink:href="#DejaVuSans-50"/>
     <use x="216.064453" xlink:href="#DejaVuSans-50"/>
    </g>
   </g>
  </g>
 </g>
 <defs>
  <clipPath id="pd92d1f7d37">
   <rect height="443.52" width="446.4" x="72" y="69.12"/>
  </clipPath>
 </defs>
</svg>
