<?xml version="1.0" encoding="utf-8" standalone="no"?>
<!DOCTYPE svg PUBLIC "-//W3C//DTD SVG 1.1//EN"
  "http://www.w3.org/Graphics/SVG/1.1/DTD/svg11.dtd">
<!-- Created with matplotlib (http://matplotlib.org/) -->
<svg height="576pt" version="1.1" viewBox="0 0 576 576" width="576pt" xmlns="http://www.w3.org/2000/svg" xmlns:xlink="http://www.w3.org/1999/xlink">
 <defs>
  <style type="text/css">
*{stroke-linecap:butt;stroke-linejoin:round;}
  </style>
 </defs>
 <g id="figure_1">
  <g id="patch_1">
   <path d="M 0 576 
L 576 576 
L 576 0 
L 0 0 
z
" style="fill:#ffffff;"/>
  </g>
  <g id="axes_1">
   <g id="patch_2">
    <path d="M 72 512.64 
L 518.4 512.64 
L 518.4 69.12 
L 72 69.12 
z
" style="fill:#ffffff;"/>
   </g>
   <g id="matplotlib.axis_1">
    <g id="xtick_1">
     <g id="line2d_1">
      <defs>
       <path d="M 0 0 
L 0 3.5 
" id="m4c4497a499" style="stroke:#000000;stroke-width:0.8;"/>
      </defs>
      <g>
       <use style="stroke:#000000;stroke-width:0.8;" x="72" xlink:href="#m4c4497a499" y="512.64"/>
      </g>
     </g>
     <g id="text_1">
      <!-- −1 -->
      <defs>
       <path d="M 10.59375 35.5 
L 73.1875 35.5 
L 73.1875 27.203125 
L 10.59375 27.203125 
z
" id="DejaVuSans-2212"/>
       <path d="M 12.40625 8.296875 
L 28.515625 8.296875 
L 28.515625 63.921875 
L 10.984375 60.40625 
L 10.984375 69.390625 
L 28.421875 72.90625 
L 38.28125 72.90625 
L 38.28125 8.296875 
L 54.390625 8.296875 
L 54.390625 0 
L 12.40625 0 
z
" id="DejaVuSans-31"/>
      </defs>
      <g transform="translate(64.628906 527.238438)scale(0.1 -0.1)">
       <use xlink:href="#DejaVuSans-2212"/>
       <use x="83.789062" xlink:href="#DejaVuSans-31"/>
      </g>
     </g>
    </g>
    <g id="xtick_2">
     <g id="line2d_2">
      <g>
       <use style="stroke:#000000;stroke-width:0.8;" x="125.783133" xlink:href="#m4c4497a499" y="512.64"/>
      </g>
     </g>
     <g id="text_2">
      <!-- 0 -->
      <defs>
       <path d="M 31.78125 66.40625 
Q 24.171875 66.40625 20.328125 58.90625 
Q 16.5 51.421875 16.5 36.375 
Q 16.5 21.390625 20.328125 13.890625 
Q 24.171875 6.390625 31.78125 6.390625 
Q 39.453125 6.390625 43.28125 13.890625 
Q 47.125 21.390625 47.125 36.375 
Q 47.125 51.421875 43.28125 58.90625 
Q 39.453125 66.40625 31.78125 66.40625 
z
M 31.78125 74.21875 
Q 44.046875 74.21875 50.515625 64.515625 
Q 56.984375 54.828125 56.984375 36.375 
Q 56.984375 17.96875 50.515625 8.265625 
Q 44.046875 -1.421875 31.78125 -1.421875 
Q 19.53125 -1.421875 13.0625 8.265625 
Q 6.59375 17.96875 6.59375 36.375 
Q 6.59375 54.828125 13.0625 64.515625 
Q 19.53125 74.21875 31.78125 74.21875 
z
" id="DejaVuSans-30"/>
      </defs>
      <g transform="translate(122.601883 527.238438)scale(0.1 -0.1)">
       <use xlink:href="#DejaVuSans-30"/>
      </g>
     </g>
    </g>
    <g id="xtick_3">
     <g id="line2d_3">
      <g>
       <use style="stroke:#000000;stroke-width:0.8;" x="179.566265" xlink:href="#m4c4497a499" y="512.64"/>
      </g>
     </g>
     <g id="text_3">
      <!-- 1 -->
      <g transform="translate(176.385015 527.238438)scale(0.1 -0.1)">
       <use xlink:href="#DejaVuSans-31"/>
      </g>
     </g>
    </g>
    <g id="xtick_4">
     <g id="line2d_4">
      <g>
       <use style="stroke:#000000;stroke-width:0.8;" x="233.349398" xlink:href="#m4c4497a499" y="512.64"/>
      </g>
     </g>
     <g id="text_4">
      <!-- 2 -->
      <defs>
       <path d="M 19.1875 8.296875 
L 53.609375 8.296875 
L 53.609375 0 
L 7.328125 0 
L 7.328125 8.296875 
Q 12.9375 14.109375 22.625 23.890625 
Q 32.328125 33.6875 34.8125 36.53125 
Q 39.546875 41.84375 41.421875 45.53125 
Q 43.3125 49.21875 43.3125 52.78125 
Q 43.3125 58.59375 39.234375 62.25 
Q 35.15625 65.921875 28.609375 65.921875 
Q 23.96875 65.921875 18.8125 64.3125 
Q 13.671875 62.703125 7.8125 59.421875 
L 7.8125 69.390625 
Q 13.765625 71.78125 18.9375 73 
Q 24.125 74.21875 28.421875 74.21875 
Q 39.75 74.21875 46.484375 68.546875 
Q 53.21875 62.890625 53.21875 53.421875 
Q 53.21875 48.921875 51.53125 44.890625 
Q 49.859375 40.875 45.40625 35.40625 
Q 44.1875 33.984375 37.640625 27.21875 
Q 31.109375 20.453125 19.1875 8.296875 
z
" id="DejaVuSans-32"/>
      </defs>
      <g transform="translate(230.168148 527.238438)scale(0.1 -0.1)">
       <use xlink:href="#DejaVuSans-32"/>
      </g>
     </g>
    </g>
    <g id="xtick_5">
     <g id="line2d_5">
      <g>
       <use style="stroke:#000000;stroke-width:0.8;" x="287.13253" xlink:href="#m4c4497a499" y="512.64"/>
      </g>
     </g>
     <g id="text_5">
      <!-- 3 -->
      <defs>
       <path d="M 40.578125 39.3125 
Q 47.65625 37.796875 51.625 33 
Q 55.609375 28.21875 55.609375 21.1875 
Q 55.609375 10.40625 48.1875 4.484375 
Q 40.765625 -1.421875 27.09375 -1.421875 
Q 22.515625 -1.421875 17.65625 -0.515625 
Q 12.796875 0.390625 7.625 2.203125 
L 7.625 11.71875 
Q 11.71875 9.328125 16.59375 8.109375 
Q 21.484375 6.890625 26.8125 6.890625 
Q 36.078125 6.890625 40.9375 10.546875 
Q 45.796875 14.203125 45.796875 21.1875 
Q 45.796875 27.640625 41.28125 31.265625 
Q 36.765625 34.90625 28.71875 34.90625 
L 20.21875 34.90625 
L 20.21875 43.015625 
L 29.109375 43.015625 
Q 36.375 43.015625 40.234375 45.921875 
Q 44.09375 48.828125 44.09375 54.296875 
Q 44.09375 59.90625 40.109375 62.90625 
Q 36.140625 65.921875 28.71875 65.921875 
Q 24.65625 65.921875 20.015625 65.03125 
Q 15.375 64.15625 9.8125 62.3125 
L 9.8125 71.09375 
Q 15.4375 72.65625 20.34375 73.4375 
Q 25.25 74.21875 29.59375 74.21875 
Q 40.828125 74.21875 47.359375 69.109375 
Q 53.90625 64.015625 53.90625 55.328125 
Q 53.90625 49.265625 50.4375 45.09375 
Q 46.96875 40.921875 40.578125 39.3125 
z
" id="DejaVuSans-33"/>
      </defs>
      <g transform="translate(283.95128 527.238438)scale(0.1 -0.1)">
       <use xlink:href="#DejaVuSans-33"/>
      </g>
     </g>
    </g>
    <g id="xtick_6">
     <g id="line2d_6">
      <g>
       <use style="stroke:#000000;stroke-width:0.8;" x="340.915663" xlink:href="#m4c4497a499" y="512.64"/>
      </g>
     </g>
     <g id="text_6">
      <!-- 4 -->
      <defs>
       <path d="M 37.796875 64.3125 
L 12.890625 25.390625 
L 37.796875 25.390625 
z
M 35.203125 72.90625 
L 47.609375 72.90625 
L 47.609375 25.390625 
L 58.015625 25.390625 
L 58.015625 17.1875 
L 47.609375 17.1875 
L 47.609375 0 
L 37.796875 0 
L 37.796875 17.1875 
L 4.890625 17.1875 
L 4.890625 26.703125 
z
" id="DejaVuSans-34"/>
      </defs>
      <g transform="translate(337.734413 527.238438)scale(0.1 -0.1)">
       <use xlink:href="#DejaVuSans-34"/>
      </g>
     </g>
    </g>
    <g id="xtick_7">
     <g id="line2d_7">
      <g>
       <use style="stroke:#000000;stroke-width:0.8;" x="394.698795" xlink:href="#m4c4497a499" y="512.64"/>
      </g>
     </g>
     <g id="text_7">
      <!-- 5 -->
      <defs>
       <path d="M 10.796875 72.90625 
L 49.515625 72.90625 
L 49.515625 64.59375 
L 19.828125 64.59375 
L 19.828125 46.734375 
Q 21.96875 47.46875 24.109375 47.828125 
Q 26.265625 48.1875 28.421875 48.1875 
Q 40.625 48.1875 47.75 41.5 
Q 54.890625 34.8125 54.890625 23.390625 
Q 54.890625 11.625 47.5625 5.09375 
Q 40.234375 -1.421875 26.90625 -1.421875 
Q 22.3125 -1.421875 17.546875 -0.640625 
Q 12.796875 0.140625 7.71875 1.703125 
L 7.71875 11.625 
Q 12.109375 9.234375 16.796875 8.0625 
Q 21.484375 6.890625 26.703125 6.890625 
Q 35.15625 6.890625 40.078125 11.328125 
Q 45.015625 15.765625 45.015625 23.390625 
Q 45.015625 31 40.078125 35.4375 
Q 35.15625 39.890625 26.703125 39.890625 
Q 22.75 39.890625 18.8125 39.015625 
Q 14.890625 38.140625 10.796875 36.28125 
z
" id="DejaVuSans-35"/>
      </defs>
      <g transform="translate(391.517545 527.238438)scale(0.1 -0.1)">
       <use xlink:href="#DejaVuSans-35"/>
      </g>
     </g>
    </g>
    <g id="xtick_8">
     <g id="line2d_8">
      <g>
       <use style="stroke:#000000;stroke-width:0.8;" x="448.481928" xlink:href="#m4c4497a499" y="512.64"/>
      </g>
     </g>
     <g id="text_8">
      <!-- 6 -->
      <defs>
       <path d="M 33.015625 40.375 
Q 26.375 40.375 22.484375 35.828125 
Q 18.609375 31.296875 18.609375 23.390625 
Q 18.609375 15.53125 22.484375 10.953125 
Q 26.375 6.390625 33.015625 6.390625 
Q 39.65625 6.390625 43.53125 10.953125 
Q 47.40625 15.53125 47.40625 23.390625 
Q 47.40625 31.296875 43.53125 35.828125 
Q 39.65625 40.375 33.015625 40.375 
z
M 52.59375 71.296875 
L 52.59375 62.3125 
Q 48.875 64.0625 45.09375 64.984375 
Q 41.3125 65.921875 37.59375 65.921875 
Q 27.828125 65.921875 22.671875 59.328125 
Q 17.53125 52.734375 16.796875 39.40625 
Q 19.671875 43.65625 24.015625 45.921875 
Q 28.375 48.1875 33.59375 48.1875 
Q 44.578125 48.1875 50.953125 41.515625 
Q 57.328125 34.859375 57.328125 23.390625 
Q 57.328125 12.15625 50.6875 5.359375 
Q 44.046875 -1.421875 33.015625 -1.421875 
Q 20.359375 -1.421875 13.671875 8.265625 
Q 6.984375 17.96875 6.984375 36.375 
Q 6.984375 53.65625 15.1875 63.9375 
Q 23.390625 74.21875 37.203125 74.21875 
Q 40.921875 74.21875 44.703125 73.484375 
Q 48.484375 72.75 52.59375 71.296875 
z
" id="DejaVuSans-36"/>
      </defs>
      <g transform="translate(445.300678 527.238438)scale(0.1 -0.1)">
       <use xlink:href="#DejaVuSans-36"/>
      </g>
     </g>
    </g>
    <g id="xtick_9">
     <g id="line2d_9">
      <g>
       <use style="stroke:#000000;stroke-width:0.8;" x="502.26506" xlink:href="#m4c4497a499" y="512.64"/>
      </g>
     </g>
     <g id="text_9">
      <!-- 7 -->
      <defs>
       <path d="M 8.203125 72.90625 
L 55.078125 72.90625 
L 55.078125 68.703125 
L 28.609375 0 
L 18.3125 0 
L 43.21875 64.59375 
L 8.203125 64.59375 
z
" id="DejaVuSans-37"/>
      </defs>
      <g transform="translate(499.08381 527.238438)scale(0.1 -0.1)">
       <use xlink:href="#DejaVuSans-37"/>
      </g>
     </g>
    </g>
   </g>
   <g id="matplotlib.axis_2">
    <g id="ytick_1">
     <g id="line2d_10">
      <defs>
       <path d="M 0 0 
L -3.5 0 
" id="m5443354898" style="stroke:#000000;stroke-width:0.8;"/>
      </defs>
      <g>
       <use style="stroke:#000000;stroke-width:0.8;" x="72" xlink:href="#m5443354898" y="460.296867"/>
      </g>
     </g>
     <g id="text_10">
      <!-- 0 -->
      <g transform="translate(58.6375 464.096086)scale(0.1 -0.1)">
       <use xlink:href="#DejaVuSans-30"/>
      </g>
     </g>
    </g>
    <g id="ytick_2">
     <g id="line2d_11">
      <g>
       <use style="stroke:#000000;stroke-width:0.8;" x="72" xlink:href="#m5443354898" y="406.513735"/>
      </g>
     </g>
     <g id="text_11">
      <!-- 1 -->
      <g transform="translate(58.6375 410.312954)scale(0.1 -0.1)">
       <use xlink:href="#DejaVuSans-31"/>
      </g>
     </g>
    </g>
    <g id="ytick_3">
     <g id="line2d_12">
      <g>
       <use style="stroke:#000000;stroke-width:0.8;" x="72" xlink:href="#m5443354898" y="352.730602"/>
      </g>
     </g>
     <g id="text_12">
      <!-- 2 -->
      <g transform="translate(58.6375 356.529821)scale(0.1 -0.1)">
       <use xlink:href="#DejaVuSans-32"/>
      </g>
     </g>
    </g>
    <g id="ytick_4">
     <g id="line2d_13">
      <g>
       <use style="stroke:#000000;stroke-width:0.8;" x="72" xlink:href="#m5443354898" y="298.94747"/>
      </g>
     </g>
     <g id="text_13">
      <!-- 3 -->
      <g transform="translate(58.6375 302.746689)scale(0.1 -0.1)">
       <use xlink:href="#DejaVuSans-33"/>
      </g>
     </g>
    </g>
    <g id="ytick_5">
     <g id="line2d_14">
      <g>
       <use style="stroke:#000000;stroke-width:0.8;" x="72" xlink:href="#m5443354898" y="245.164337"/>
      </g>
     </g>
     <g id="text_14">
      <!-- 4 -->
      <g transform="translate(58.6375 248.963556)scale(0.1 -0.1)">
       <use xlink:href="#DejaVuSans-34"/>
      </g>
     </g>
    </g>
    <g id="ytick_6">
     <g id="line2d_15">
      <g>
       <use style="stroke:#000000;stroke-width:0.8;" x="72" xlink:href="#m5443354898" y="191.381205"/>
      </g>
     </g>
     <g id="text_15">
      <!-- 5 -->
      <g transform="translate(58.6375 195.180424)scale(0.1 -0.1)">
       <use xlink:href="#DejaVuSans-35"/>
      </g>
     </g>
    </g>
    <g id="ytick_7">
     <g id="line2d_16">
      <g>
       <use style="stroke:#000000;stroke-width:0.8;" x="72" xlink:href="#m5443354898" y="137.598072"/>
      </g>
     </g>
     <g id="text_16">
      <!-- 6 -->
      <g transform="translate(58.6375 141.397291)scale(0.1 -0.1)">
       <use xlink:href="#DejaVuSans-36"/>
      </g>
     </g>
    </g>
    <g id="ytick_8">
     <g id="line2d_17">
      <g>
       <use style="stroke:#000000;stroke-width:0.8;" x="72" xlink:href="#m5443354898" y="83.81494"/>
      </g>
     </g>
     <g id="text_17">
      <!-- 7 -->
      <g transform="translate(58.6375 87.614159)scale(0.1 -0.1)">
       <use xlink:href="#DejaVuSans-37"/>
      </g>
     </g>
    </g>
   </g>
   <g id="line2d_18">
    <path clip-path="url(#p571b691c1f)" d="M 143.010227 136.862767 
" style="fill:none;stroke:#1f77b4;stroke-linecap:square;stroke-width:1.5;"/>
    <defs>
     <path d="M -5 5 
L 5 5 
L 5 -5 
L -5 -5 
z
" id="me98159a34f" style="stroke:#8000ff;stroke-linejoin:miter;"/>
    </defs>
    <g clip-path="url(#p571b691c1f)">
     <use style="fill:#8000ff;stroke:#8000ff;stroke-linejoin:miter;" x="143.010227" xlink:href="#me98159a34f" y="136.862767"/>
    </g>
   </g>
   <g id="line2d_19">
    <path clip-path="url(#p571b691c1f)" d="M 295.594013 255.626619 
" style="fill:none;stroke:#ff7f0e;stroke-linecap:square;stroke-width:1.5;"/>
    <defs>
     <path d="M 0 -5 
L -4.755283 -1.545085 
L -2.938926 4.045085 
L 2.938926 4.045085 
L 4.755283 -1.545085 
z
" id="m4e6e26265e" style="stroke:#8000ff;stroke-linejoin:miter;"/>
    </defs>
    <g clip-path="url(#p571b691c1f)">
     <use style="fill:#8000ff;stroke:#8000ff;stroke-linejoin:miter;" x="295.594013" xlink:href="#m4e6e26265e" y="255.626619"/>
    </g>
   </g>
   <g id="line2d_20">
    <path clip-path="url(#p571b691c1f)" d="M 222.577614 453.655745 
" style="fill:none;stroke:#2ca02c;stroke-linecap:square;stroke-width:1.5;"/>
    <defs>
     <path d="M -5 5 
L 5 5 
L 5 -5 
L -5 -5 
z
" id="medc5bc6596" style="stroke:#376ff9;stroke-linejoin:miter;"/>
    </defs>
    <g clip-path="url(#p571b691c1f)">
     <use style="fill:#376ff9;stroke:#376ff9;stroke-linejoin:miter;" x="222.577614" xlink:href="#medc5bc6596" y="453.655745"/>
    </g>
   </g>
   <g id="line2d_21">
    <path clip-path="url(#p571b691c1f)" d="M 248.219026 235.991038 
" style="fill:none;stroke:#d62728;stroke-linecap:square;stroke-width:1.5;"/>
    <defs>
     <path d="M 0 -5 
L -4.755283 -1.545085 
L -2.938926 4.045085 
L 2.938926 4.045085 
L 4.755283 -1.545085 
z
" id="m49175fb36e" style="stroke:#376ff9;stroke-linejoin:miter;"/>
    </defs>
    <g clip-path="url(#p571b691c1f)">
     <use style="fill:#376ff9;stroke:#376ff9;stroke-linejoin:miter;" x="248.219026" xlink:href="#m49175fb36e" y="235.991038"/>
    </g>
   </g>
   <g id="line2d_22">
    <path clip-path="url(#p571b691c1f)" d="M 192.741195 279.056246 
" style="fill:none;stroke:#9467bd;stroke-linecap:square;stroke-width:1.5;"/>
    <defs>
     <path d="M -5 5 
L 5 5 
L 5 -5 
L -5 -5 
z
" id="m38efb3efb6" style="stroke:#12c7e6;stroke-linejoin:miter;"/>
    </defs>
    <g clip-path="url(#p571b691c1f)">
     <use style="fill:#12c7e6;stroke:#12c7e6;stroke-linejoin:miter;" x="192.741195" xlink:href="#m38efb3efb6" y="279.056246"/>
    </g>
   </g>
   <g id="line2d_23">
    <path clip-path="url(#p571b691c1f)" d="M 458.81106 215.219931 
" style="fill:none;stroke:#8c564b;stroke-linecap:square;stroke-width:1.5;"/>
    <defs>
     <path d="M 0 -5 
L -4.755283 -1.545085 
L -2.938926 4.045085 
L 2.938926 4.045085 
L 4.755283 -1.545085 
z
" id="me6c5c194ea" style="stroke:#12c7e6;stroke-linejoin:miter;"/>
    </defs>
    <g clip-path="url(#p571b691c1f)">
     <use style="fill:#12c7e6;stroke:#12c7e6;stroke-linejoin:miter;" x="458.81106" xlink:href="#me6c5c194ea" y="215.219931"/>
    </g>
   </g>
   <g id="line2d_24">
    <path clip-path="url(#p571b691c1f)" d="M 154.066068 412.253691 
" style="fill:none;stroke:#e377c2;stroke-linecap:square;stroke-width:1.5;"/>
    <defs>
     <path d="M -5 5 
L 5 5 
L 5 -5 
L -5 -5 
z
" id="m7ffff39241" style="stroke:#5bf9c7;stroke-linejoin:miter;"/>
    </defs>
    <g clip-path="url(#p571b691c1f)">
     <use style="fill:#5bf9c7;stroke:#5bf9c7;stroke-linejoin:miter;" x="154.066068" xlink:href="#m7ffff39241" y="412.253691"/>
    </g>
   </g>
   <g id="line2d_25">
    <path clip-path="url(#p571b691c1f)" d="M 331.142435 338.988029 
" style="fill:none;stroke:#7f7f7f;stroke-linecap:square;stroke-width:1.5;"/>
    <defs>
     <path d="M 0 -5 
L -4.755283 -1.545085 
L -2.938926 4.045085 
L 2.938926 4.045085 
L 4.755283 -1.545085 
z
" id="mb29d29ef89" style="stroke:#5bf9c7;stroke-linejoin:miter;"/>
    </defs>
    <g clip-path="url(#p571b691c1f)">
     <use style="fill:#5bf9c7;stroke:#5bf9c7;stroke-linejoin:miter;" x="331.142435" xlink:href="#mb29d29ef89" y="338.988029"/>
    </g>
   </g>
   <g id="line2d_26">
    <path clip-path="url(#p571b691c1f)" d="M 407.641962 157.071642 
" style="fill:none;stroke:#bcbd22;stroke-linecap:square;stroke-width:1.5;"/>
    <defs>
     <path d="M -5 5 
L 5 5 
L 5 -5 
L -5 -5 
z
" id="m712b2574cc" style="stroke:#a4f99f;stroke-linejoin:miter;"/>
    </defs>
    <g clip-path="url(#p571b691c1f)">
     <use style="fill:#a4f99f;stroke:#a4f99f;stroke-linejoin:miter;" x="407.641962" xlink:href="#m712b2574cc" y="157.071642"/>
    </g>
   </g>
   <g id="line2d_27">
    <path clip-path="url(#p571b691c1f)" d="M 259.911813 274.609947 
" style="fill:none;stroke:#17becf;stroke-linecap:square;stroke-width:1.5;"/>
    <defs>
     <path d="M 0 -5 
L -4.755283 -1.545085 
L -2.938926 4.045085 
L 2.938926 4.045085 
L 4.755283 -1.545085 
z
" id="m0d42846bd1" style="stroke:#a4f99f;stroke-linejoin:miter;"/>
    </defs>
    <g clip-path="url(#p571b691c1f)">
     <use style="fill:#a4f99f;stroke:#a4f99f;stroke-linejoin:miter;" x="259.911813" xlink:href="#m0d42846bd1" y="274.609947"/>
    </g>
   </g>
   <g id="line2d_28">
    <path clip-path="url(#p571b691c1f)" d="M 188.668554 128.706322 
" style="fill:none;stroke:#1f77b4;stroke-linecap:square;stroke-width:1.5;"/>
    <defs>
     <path d="M -5 5 
L 5 5 
L 5 -5 
L -5 -5 
z
" id="m2a01f7943c" style="stroke:#edc76f;stroke-linejoin:miter;"/>
    </defs>
    <g clip-path="url(#p571b691c1f)">
     <use style="fill:#edc76f;stroke:#edc76f;stroke-linejoin:miter;" x="188.668554" xlink:href="#m2a01f7943c" y="128.706322"/>
    </g>
   </g>
   <g id="line2d_29">
    <path clip-path="url(#p571b691c1f)" d="M 415.709366 296.550869 
" style="fill:none;stroke:#ff7f0e;stroke-linecap:square;stroke-width:1.5;"/>
    <defs>
     <path d="M 0 -5 
L -4.755283 -1.545085 
L -2.938926 4.045085 
L 2.938926 4.045085 
L 4.755283 -1.545085 
z
" id="m2d319282f9" style="stroke:#edc76f;stroke-linejoin:miter;"/>
    </defs>
    <g clip-path="url(#p571b691c1f)">
     <use style="fill:#edc76f;stroke:#edc76f;stroke-linejoin:miter;" x="415.709366" xlink:href="#m2d319282f9" y="296.550869"/>
    </g>
   </g>
   <g id="line2d_30">
    <path clip-path="url(#p571b691c1f)" d="M 270.814952 426.341599 
" style="fill:none;stroke:#2ca02c;stroke-linecap:square;stroke-width:1.5;"/>
    <defs>
     <path d="M -5 5 
L 5 5 
L 5 -5 
L -5 -5 
z
" id="m48ce7e3eca" style="stroke:#ff6f39;stroke-linejoin:miter;"/>
    </defs>
    <g clip-path="url(#p571b691c1f)">
     <use style="fill:#ff6f39;stroke:#ff6f39;stroke-linejoin:miter;" x="270.814952" xlink:href="#m48ce7e3eca" y="426.341599"/>
    </g>
   </g>
   <g id="line2d_31">
    <path clip-path="url(#p571b691c1f)" d="M 354.47168 182.50644 
" style="fill:none;stroke:#d62728;stroke-linecap:square;stroke-width:1.5;"/>
    <defs>
     <path d="M 0 -5 
L -4.755283 -1.545085 
L -2.938926 4.045085 
L 2.938926 4.045085 
L 4.755283 -1.545085 
z
" id="m40d14830f2" style="stroke:#ff6f39;stroke-linejoin:miter;"/>
    </defs>
    <g clip-path="url(#p571b691c1f)">
     <use style="fill:#ff6f39;stroke:#ff6f39;stroke-linejoin:miter;" x="354.47168" xlink:href="#m40d14830f2" y="182.50644"/>
    </g>
   </g>
   <g id="line2d_32">
    <path clip-path="url(#p571b691c1f)" d="M 271.864722 315.604145 
" style="fill:none;stroke:#9467bd;stroke-linecap:square;stroke-width:1.5;"/>
    <defs>
     <path d="M -5 5 
L 5 5 
L 5 -5 
L -5 -5 
z
" id="mcaaa762371" style="stroke:#ff0000;stroke-linejoin:miter;"/>
    </defs>
    <g clip-path="url(#p571b691c1f)">
     <use style="fill:#ff0000;stroke:#ff0000;stroke-linejoin:miter;" x="271.864722" xlink:href="#mcaaa762371" y="315.604145"/>
    </g>
   </g>
   <g id="line2d_33">
    <path clip-path="url(#p571b691c1f)" d="M 460.56441 432.354658 
" style="fill:none;stroke:#8c564b;stroke-linecap:square;stroke-width:1.5;"/>
    <defs>
     <path d="M 0 -5 
L -4.755283 -1.545085 
L -2.938926 4.045085 
L 2.938926 4.045085 
L 4.755283 -1.545085 
z
" id="m9c9bdf9490" style="stroke:#ff0000;stroke-linejoin:miter;"/>
    </defs>
    <g clip-path="url(#p571b691c1f)">
     <use style="fill:#ff0000;stroke:#ff0000;stroke-linejoin:miter;" x="460.56441" xlink:href="#m9c9bdf9490" y="432.354658"/>
    </g>
   </g>
   <g id="line2d_34">
    <defs>
     <path d="M 0 2.5 
C 0.663008 2.5 1.29895 2.236584 1.767767 1.767767 
C 2.236584 1.29895 2.5 0.663008 2.5 0 
C 2.5 -0.663008 2.236584 -1.29895 1.767767 -1.767767 
C 1.29895 -2.236584 0.663008 -2.5 0 -2.5 
C -0.663008 -2.5 -1.29895 -2.236584 -1.767767 -1.767767 
C -2.236584 -1.29895 -2.5 -0.663008 -2.5 0 
C -2.5 0.663008 -2.236584 1.29895 -1.767767 1.767767 
C -1.29895 2.236584 -0.663008 2.5 0 2.5 
z
" id="m64d52f2309" style="stroke:#000000;"/>
    </defs>
    <g clip-path="url(#p571b691c1f)">
     <use style="stroke:#000000;" x="309.020428" xlink:href="#m64d52f2309" y="125.715804"/>
     <use style="stroke:#000000;" x="360.665595" xlink:href="#m64d52f2309" y="416.437844"/>
     <use style="stroke:#000000;" x="362.350626" xlink:href="#m64d52f2309" y="260.947047"/>
     <use style="stroke:#000000;" x="147.620486" xlink:href="#m64d52f2309" y="292.087556"/>
     <use style="stroke:#000000;" x="264.733314" xlink:href="#m64d52f2309" y="373.621245"/>
     <use style="stroke:#000000;" x="242.42547" xlink:href="#m64d52f2309" y="361.544698"/>
     <use style="stroke:#000000;" x="358.242771" xlink:href="#m64d52f2309" y="282.221495"/>
     <use style="stroke:#000000;" x="183.905185" xlink:href="#m64d52f2309" y="370.719845"/>
     <use style="stroke:#000000;" x="194.780508" xlink:href="#m64d52f2309" y="345.193957"/>
     <use style="stroke:#000000;" x="173.846854" xlink:href="#m64d52f2309" y="189.512062"/>
     <use style="stroke:#000000;" x="203.521066" xlink:href="#m64d52f2309" y="206.016629"/>
     <use style="stroke:#000000;" x="382.471202" xlink:href="#m64d52f2309" y="445.072177"/>
     <use style="stroke:#000000;" x="189.248448" xlink:href="#m64d52f2309" y="169.343772"/>
     <use style="stroke:#000000;" x="447.867616" xlink:href="#m64d52f2309" y="321.231679"/>
     <use style="stroke:#000000;" x="289.969966" xlink:href="#m64d52f2309" y="217.304826"/>
     <use style="stroke:#000000;" x="360.296698" xlink:href="#m64d52f2309" y="271.584271"/>
     <use style="stroke:#000000;" x="253.579392" xlink:href="#m64d52f2309" y="367.582972"/>
     <use style="stroke:#000000;" x="189.342847" xlink:href="#m64d52f2309" y="357.956901"/>
     <use style="stroke:#000000;" x="181.547651" xlink:href="#m64d52f2309" y="179.427917"/>
    </g>
   </g>
   <g id="line2d_35">
    <path clip-path="url(#p571b691c1f)" d="M 329.995849 125.715804 
L 328.859343 118.905096 
L 325.572983 112.832434 
L 320.492896 108.155884 
L 314.169589 105.382225 
L 307.288291 104.812024 
L 300.594697 106.507073 
L 294.814161 110.283685 
L 290.573095 115.732607 
L 288.331083 122.263363 
L 288.331083 129.168245 
L 290.573095 135.699002 
L 294.814161 141.147924 
L 300.594697 144.924536 
L 307.288291 146.619584 
L 314.169589 146.049384 
L 320.492896 143.275724 
L 325.572983 138.599175 
L 328.859343 132.526513 
L 329.995849 125.715804 
" style="fill:none;stroke:#000000;stroke-dasharray:5.55,2.4;stroke-dashoffset:0;stroke-width:1.5;"/>
   </g>
   <g id="line2d_36">
    <path clip-path="url(#p571b691c1f)" d="M 314.936572 125.715804 
L 314.616019 123.794835 
L 313.689097 122.082033 
L 312.256252 120.763006 
L 310.472755 119.980692 
L 308.531876 119.819866 
L 306.64394 120.297957 
L 305.013532 121.363155 
L 303.817334 122.900031 
L 303.184972 124.742039 
L 303.184972 126.68957 
L 303.817334 128.531578 
L 305.013532 130.068453 
L 306.64394 131.133652 
L 308.531876 131.611742 
L 310.472755 131.450916 
L 312.256252 130.668602 
L 313.689097 129.349576 
L 314.616019 127.636773 
L 314.936572 125.715804 
" style="fill:none;stroke:#ff0000;stroke-linecap:square;stroke-width:1.5;"/>
   </g>
   <g id="line2d_37">
    <path clip-path="url(#p571b691c1f)" d="M 381.641017 416.437844 
L 380.504511 409.627136 
L 377.21815 403.554474 
L 372.138063 398.877924 
L 365.814757 396.104265 
L 358.933459 395.534064 
L 352.239864 397.229113 
L 346.459329 401.005725 
L 342.218262 406.454647 
L 339.976251 412.985403 
L 339.976251 419.890285 
L 342.218262 426.421042 
L 346.459329 431.869964 
L 352.239864 435.646576 
L 358.933459 437.341624 
L 365.814757 436.771424 
L 372.138063 433.997764 
L 377.21815 429.321215 
L 380.504511 423.248553 
L 381.641017 416.437844 
" style="fill:none;stroke:#000000;stroke-dasharray:5.55,2.4;stroke-dashoffset:0;stroke-width:1.5;"/>
   </g>
   <g id="line2d_38">
    <path clip-path="url(#p571b691c1f)" d="M 366.58174 416.437844 
L 366.261187 414.516875 
L 365.334265 412.804073 
L 363.90142 411.485046 
L 362.117923 410.702732 
L 360.177044 410.541906 
L 358.289107 411.019997 
L 356.658699 412.085195 
L 355.462501 413.622071 
L 354.830139 415.464079 
L 354.830139 417.41161 
L 355.462501 419.253618 
L 356.658699 420.790493 
L 358.289107 421.855692 
L 360.177044 422.333782 
L 362.117923 422.172956 
L 363.90142 421.390642 
L 365.334265 420.071615 
L 366.261187 418.358813 
L 366.58174 416.437844 
" style="fill:none;stroke:#ff0000;stroke-linecap:square;stroke-width:1.5;"/>
   </g>
   <g id="line2d_39">
    <path clip-path="url(#p571b691c1f)" d="M 383.326048 260.947047 
L 382.189542 254.136339 
L 378.903181 248.063676 
L 373.823094 243.387127 
L 367.499788 240.613467 
L 360.61849 240.043267 
L 353.924895 241.738315 
L 348.14436 245.514928 
L 343.903293 250.96385 
L 341.661282 257.494606 
L 341.661282 264.399488 
L 343.903293 270.930244 
L 348.14436 276.379166 
L 353.924895 280.155779 
L 360.61849 281.850827 
L 367.499788 281.280626 
L 373.823094 278.506967 
L 378.903181 273.830417 
L 382.189542 267.757755 
L 383.326048 260.947047 
" style="fill:none;stroke:#000000;stroke-dasharray:5.55,2.4;stroke-dashoffset:0;stroke-width:1.5;"/>
   </g>
   <g id="line2d_40">
    <path clip-path="url(#p571b691c1f)" d="M 368.266771 260.947047 
L 367.946218 259.026078 
L 367.019295 257.313276 
L 365.58645 255.994249 
L 363.802954 255.211935 
L 361.862075 255.051109 
L 359.974138 255.529199 
L 358.34373 256.594398 
L 357.147532 258.131273 
L 356.51517 259.973281 
L 356.51517 261.920812 
L 357.147532 263.76282 
L 358.34373 265.299696 
L 359.974138 266.364894 
L 361.862075 266.842985 
L 363.802954 266.682159 
L 365.58645 265.899845 
L 367.019295 264.580818 
L 367.946218 262.868016 
L 368.266771 260.947047 
" style="fill:none;stroke:#ff0000;stroke-linecap:square;stroke-width:1.5;"/>
   </g>
   <g id="line2d_41">
    <path clip-path="url(#p571b691c1f)" d="M 168.595908 292.087556 
L 167.459402 285.276848 
L 164.173041 279.204186 
L 159.092955 274.527636 
L 152.769648 271.753977 
L 145.88835 271.183776 
L 139.194755 272.878825 
L 133.41422 276.655437 
L 129.173154 282.104359 
L 126.931142 288.635115 
L 126.931142 295.539997 
L 129.173154 302.070753 
L 133.41422 307.519675 
L 139.194755 311.296288 
L 145.88835 312.991336 
L 152.769648 312.421136 
L 159.092955 309.647476 
L 164.173041 304.970927 
L 167.459402 298.898264 
L 168.595908 292.087556 
" style="fill:none;stroke:#000000;stroke-dasharray:5.55,2.4;stroke-dashoffset:0;stroke-width:1.5;"/>
   </g>
   <g id="line2d_42">
    <path clip-path="url(#p571b691c1f)" d="M 153.536631 292.087556 
L 153.216078 290.166587 
L 152.289156 288.453785 
L 150.856311 287.134758 
L 149.072814 286.352444 
L 147.131935 286.191618 
L 145.243998 286.669709 
L 143.613591 287.734907 
L 142.417393 289.271783 
L 141.78503 291.113791 
L 141.78503 293.061322 
L 142.417393 294.90333 
L 143.613591 296.440205 
L 145.243998 297.505404 
L 147.131935 297.983494 
L 149.072814 297.822668 
L 150.856311 297.040354 
L 152.289156 295.721327 
L 153.216078 294.008525 
L 153.536631 292.087556 
" style="fill:none;stroke:#ff0000;stroke-linecap:square;stroke-width:1.5;"/>
   </g>
   <g id="line2d_43">
    <path clip-path="url(#p571b691c1f)" d="M 285.708736 373.621245 
L 284.57223 366.810537 
L 281.285869 360.737875 
L 276.205782 356.061325 
L 269.882476 353.287666 
L 263.001177 352.717465 
L 256.307583 354.412514 
L 250.527047 358.189126 
L 246.285981 363.638048 
L 244.04397 370.168804 
L 244.04397 377.073686 
L 246.285981 383.604443 
L 250.527047 389.053365 
L 256.307583 392.829977 
L 263.001177 394.525025 
L 269.882476 393.954825 
L 276.205782 391.181165 
L 281.285869 386.504616 
L 284.57223 380.431954 
L 285.708736 373.621245 
" style="fill:none;stroke:#000000;stroke-dasharray:5.55,2.4;stroke-dashoffset:0;stroke-width:1.5;"/>
   </g>
   <g id="line2d_44">
    <path clip-path="url(#p571b691c1f)" d="M 270.649459 373.621245 
L 270.328906 371.700276 
L 269.401983 369.987474 
L 267.969138 368.668447 
L 266.185642 367.886133 
L 264.244763 367.725307 
L 262.356826 368.203398 
L 260.726418 369.268596 
L 259.53022 370.805472 
L 258.897858 372.64748 
L 258.897858 374.595011 
L 259.53022 376.437019 
L 260.726418 377.973894 
L 262.356826 379.039093 
L 264.244763 379.517183 
L 266.185642 379.356357 
L 267.969138 378.574043 
L 269.401983 377.255016 
L 270.328906 375.542214 
L 270.649459 373.621245 
" style="fill:none;stroke:#ff0000;stroke-linecap:square;stroke-width:1.5;"/>
   </g>
   <g id="line2d_45">
    <path clip-path="url(#p571b691c1f)" d="M 263.400891 361.544698 
L 262.264385 354.73399 
L 258.978025 348.661327 
L 253.897938 343.984778 
L 247.574631 341.211119 
L 240.693333 340.640918 
L 233.999739 342.335966 
L 228.219203 346.112579 
L 223.978137 351.561501 
L 221.736125 358.092257 
L 221.736125 364.997139 
L 223.978137 371.527895 
L 228.219203 376.976817 
L 233.999739 380.75343 
L 240.693333 382.448478 
L 247.574631 381.878277 
L 253.897938 379.104618 
L 258.978025 374.428069 
L 262.264385 368.355406 
L 263.400891 361.544698 
" style="fill:none;stroke:#000000;stroke-dasharray:5.55,2.4;stroke-dashoffset:0;stroke-width:1.5;"/>
   </g>
   <g id="line2d_46">
    <path clip-path="url(#p571b691c1f)" d="M 248.341614 361.544698 
L 248.021061 359.623729 
L 247.094139 357.910927 
L 245.661294 356.5919 
L 243.877797 355.809586 
L 241.936918 355.64876 
L 240.048981 356.126851 
L 238.418574 357.192049 
L 237.222376 358.728924 
L 236.590014 360.570933 
L 236.590014 362.518463 
L 237.222376 364.360472 
L 238.418574 365.897347 
L 240.048981 366.962545 
L 241.936918 367.440636 
L 243.877797 367.27981 
L 245.661294 366.497496 
L 247.094139 365.178469 
L 248.021061 363.465667 
L 248.341614 361.544698 
" style="fill:none;stroke:#ff0000;stroke-linecap:square;stroke-width:1.5;"/>
   </g>
   <g id="line2d_47">
    <path clip-path="url(#p571b691c1f)" d="M 379.218192 282.221495 
L 378.081686 275.410786 
L 374.795326 269.338124 
L 369.715239 264.661575 
L 363.391932 261.887915 
L 356.510634 261.317715 
L 349.81704 263.012763 
L 344.036504 266.789375 
L 339.795438 272.238297 
L 337.553426 278.769054 
L 337.553426 285.673936 
L 339.795438 292.204692 
L 344.036504 297.653614 
L 349.81704 301.430226 
L 356.510634 303.125275 
L 363.391932 302.555074 
L 369.715239 299.781415 
L 374.795326 295.104865 
L 378.081686 289.032203 
L 379.218192 282.221495 
" style="fill:none;stroke:#000000;stroke-dasharray:5.55,2.4;stroke-dashoffset:0;stroke-width:1.5;"/>
   </g>
   <g id="line2d_48">
    <path clip-path="url(#p571b691c1f)" d="M 364.158915 282.221495 
L 363.838362 280.300526 
L 362.91144 278.587723 
L 361.478595 277.268697 
L 359.695098 276.486382 
L 357.754219 276.325557 
L 355.866282 276.803647 
L 354.235875 277.868846 
L 353.039677 279.405721 
L 352.407315 281.247729 
L 352.407315 283.19526 
L 353.039677 285.037268 
L 354.235875 286.574144 
L 355.866282 287.639342 
L 357.754219 288.117433 
L 359.695098 287.956607 
L 361.478595 287.174293 
L 362.91144 285.855266 
L 363.838362 284.142464 
L 364.158915 282.221495 
" style="fill:none;stroke:#ff0000;stroke-linecap:square;stroke-width:1.5;"/>
   </g>
   <g id="line2d_49">
    <path clip-path="url(#p571b691c1f)" d="M 204.880607 370.719845 
L 203.744101 363.909137 
L 200.45774 357.836475 
L 195.377654 353.159925 
L 189.054347 350.386266 
L 182.173049 349.816065 
L 175.479454 351.511114 
L 169.698919 355.287726 
L 165.457853 360.736648 
L 163.215841 367.267404 
L 163.215841 374.172286 
L 165.457853 380.703043 
L 169.698919 386.151965 
L 175.479454 389.928577 
L 182.173049 391.623625 
L 189.054347 391.053425 
L 195.377654 388.279765 
L 200.45774 383.603216 
L 203.744101 377.530554 
L 204.880607 370.719845 
" style="fill:none;stroke:#000000;stroke-dasharray:5.55,2.4;stroke-dashoffset:0;stroke-width:1.5;"/>
   </g>
   <g id="line2d_50">
    <path clip-path="url(#p571b691c1f)" d="M 189.82133 370.719845 
L 189.500777 368.798876 
L 188.573855 367.086074 
L 187.14101 365.767047 
L 185.357513 364.984733 
L 183.416634 364.823907 
L 181.528697 365.301998 
L 179.89829 366.367196 
L 178.702091 367.904072 
L 178.069729 369.74608 
L 178.069729 371.693611 
L 178.702091 373.535619 
L 179.89829 375.072494 
L 181.528697 376.137693 
L 183.416634 376.615783 
L 185.357513 376.454957 
L 187.14101 375.672643 
L 188.573855 374.353617 
L 189.500777 372.640814 
L 189.82133 370.719845 
" style="fill:none;stroke:#ff0000;stroke-linecap:square;stroke-width:1.5;"/>
   </g>
   <g id="line2d_51">
    <path clip-path="url(#p571b691c1f)" d="M 215.75593 345.193957 
L 214.619423 338.383248 
L 211.333063 332.310586 
L 206.252976 327.634037 
L 199.92967 324.860377 
L 193.048371 324.290177 
L 186.354777 325.985225 
L 180.574241 329.761837 
L 176.333175 335.210759 
L 174.091164 341.741516 
L 174.091164 348.646397 
L 176.333175 355.177154 
L 180.574241 360.626076 
L 186.354777 364.402688 
L 193.048371 366.097737 
L 199.92967 365.527536 
L 206.252976 362.753876 
L 211.333063 358.077327 
L 214.619423 352.004665 
L 215.75593 345.193957 
" style="fill:none;stroke:#000000;stroke-dasharray:5.55,2.4;stroke-dashoffset:0;stroke-width:1.5;"/>
   </g>
   <g id="line2d_52">
    <path clip-path="url(#p571b691c1f)" d="M 200.696653 345.193957 
L 200.3761 343.272988 
L 199.449177 341.560185 
L 198.016332 340.241159 
L 196.232836 339.458844 
L 194.291957 339.298019 
L 192.40402 339.776109 
L 190.773612 340.841307 
L 189.577414 342.378183 
L 188.945052 344.220191 
L 188.945052 346.167722 
L 189.577414 348.00973 
L 190.773612 349.546606 
L 192.40402 350.611804 
L 194.291957 351.089894 
L 196.232836 350.929069 
L 198.016332 350.146754 
L 199.449177 348.827728 
L 200.3761 347.114926 
L 200.696653 345.193957 
" style="fill:none;stroke:#ff0000;stroke-linecap:square;stroke-width:1.5;"/>
   </g>
   <g id="line2d_53">
    <path clip-path="url(#p571b691c1f)" d="M 194.822276 189.512062 
L 193.68577 182.701354 
L 190.399409 176.628692 
L 185.319323 171.952143 
L 178.996016 169.178483 
L 172.114718 168.608282 
L 165.421124 170.303331 
L 159.640588 174.079943 
L 155.399522 179.528865 
L 153.15751 186.059622 
L 153.15751 192.964503 
L 155.399522 199.49526 
L 159.640588 204.944182 
L 165.421124 208.720794 
L 172.114718 210.415842 
L 178.996016 209.845642 
L 185.319323 207.071982 
L 190.399409 202.395433 
L 193.68577 196.322771 
L 194.822276 189.512062 
" style="fill:none;stroke:#000000;stroke-dasharray:5.55,2.4;stroke-dashoffset:0;stroke-width:1.5;"/>
   </g>
   <g id="line2d_54">
    <path clip-path="url(#p571b691c1f)" d="M 179.762999 189.512062 
L 179.442446 187.591093 
L 178.515524 185.878291 
L 177.082679 184.559265 
L 175.299182 183.77695 
L 173.358303 183.616124 
L 171.470366 184.094215 
L 169.839959 185.159413 
L 168.643761 186.696289 
L 168.011398 188.538297 
L 168.011398 190.485828 
L 168.643761 192.327836 
L 169.839959 193.864711 
L 171.470366 194.92991 
L 173.358303 195.408 
L 175.299182 195.247175 
L 177.082679 194.46486 
L 178.515524 193.145834 
L 179.442446 191.433031 
L 179.762999 189.512062 
" style="fill:none;stroke:#ff0000;stroke-linecap:square;stroke-width:1.5;"/>
   </g>
   <g id="line2d_55">
    <path clip-path="url(#p571b691c1f)" d="M 224.496488 206.016629 
L 223.359982 199.20592 
L 220.073621 193.133258 
L 214.993535 188.456709 
L 208.670228 185.683049 
L 201.78893 185.112849 
L 195.095335 186.807897 
L 189.3148 190.584509 
L 185.073734 196.033431 
L 182.831722 202.564188 
L 182.831722 209.46907 
L 185.073734 215.999826 
L 189.3148 221.448748 
L 195.095335 225.22536 
L 201.78893 226.920409 
L 208.670228 226.350208 
L 214.993535 223.576549 
L 220.073621 218.899999 
L 223.359982 212.827337 
L 224.496488 206.016629 
" style="fill:none;stroke:#000000;stroke-dasharray:5.55,2.4;stroke-dashoffset:0;stroke-width:1.5;"/>
   </g>
   <g id="line2d_56">
    <path clip-path="url(#p571b691c1f)" d="M 209.437211 206.016629 
L 209.116658 204.09566 
L 208.189736 202.382858 
L 206.756891 201.063831 
L 204.973394 200.281517 
L 203.032515 200.120691 
L 201.144578 200.598781 
L 199.514171 201.66398 
L 198.317972 203.200855 
L 197.68561 205.042863 
L 197.68561 206.990394 
L 198.317972 208.832402 
L 199.514171 210.369278 
L 201.144578 211.434476 
L 203.032515 211.912567 
L 204.973394 211.751741 
L 206.756891 210.969427 
L 208.189736 209.6504 
L 209.116658 207.937598 
L 209.437211 206.016629 
" style="fill:none;stroke:#ff0000;stroke-linecap:square;stroke-width:1.5;"/>
   </g>
   <g id="line2d_57">
    <path clip-path="url(#p571b691c1f)" d="M 403.446624 445.072177 
L 402.310117 438.261469 
L 399.023757 432.188807 
L 393.94367 427.512257 
L 387.620363 424.738598 
L 380.739065 424.168397 
L 374.045471 425.863446 
L 368.264935 429.640058 
L 364.023869 435.08898 
L 361.781858 441.619736 
L 361.781858 448.524618 
L 364.023869 455.055374 
L 368.264935 460.504296 
L 374.045471 464.280909 
L 380.739065 465.975957 
L 387.620363 465.405757 
L 393.94367 462.632097 
L 399.023757 457.955548 
L 402.310117 451.882886 
L 403.446624 445.072177 
" style="fill:none;stroke:#000000;stroke-dasharray:5.55,2.4;stroke-dashoffset:0;stroke-width:1.5;"/>
   </g>
   <g id="line2d_58">
    <path clip-path="url(#p571b691c1f)" d="M 388.387346 445.072177 
L 388.066793 443.151208 
L 387.139871 441.438406 
L 385.707026 440.119379 
L 383.923529 439.337065 
L 381.98265 439.176239 
L 380.094714 439.65433 
L 378.464306 440.719528 
L 377.268108 442.256404 
L 376.635746 444.098412 
L 376.635746 446.045943 
L 377.268108 447.887951 
L 378.464306 449.424826 
L 380.094714 450.490025 
L 381.98265 450.968115 
L 383.923529 450.807289 
L 385.707026 450.024975 
L 387.139871 448.705948 
L 388.066793 446.993146 
L 388.387346 445.072177 
" style="fill:none;stroke:#ff0000;stroke-linecap:square;stroke-width:1.5;"/>
   </g>
   <g id="line2d_59">
    <path clip-path="url(#p571b691c1f)" d="M 210.223869 169.343772 
L 209.087363 162.533064 
L 205.801003 156.460401 
L 200.720916 151.783852 
L 194.397609 149.010193 
L 187.516311 148.439992 
L 180.822717 150.13504 
L 175.042181 153.911653 
L 170.801115 159.360575 
L 168.559103 165.891331 
L 168.559103 172.796213 
L 170.801115 179.326969 
L 175.042181 184.775891 
L 180.822717 188.552504 
L 187.516311 190.247552 
L 194.397609 189.677351 
L 200.720916 186.903692 
L 205.801003 182.227143 
L 209.087363 176.15448 
L 210.223869 169.343772 
" style="fill:none;stroke:#000000;stroke-dasharray:5.55,2.4;stroke-dashoffset:0;stroke-width:1.5;"/>
   </g>
   <g id="line2d_60">
    <path clip-path="url(#p571b691c1f)" d="M 195.164592 169.343772 
L 194.844039 167.422803 
L 193.917117 165.710001 
L 192.484272 164.390974 
L 190.700775 163.60866 
L 188.759896 163.447834 
L 186.87196 163.925925 
L 185.241552 164.991123 
L 184.045354 166.527998 
L 183.412992 168.370007 
L 183.412992 170.317537 
L 184.045354 172.159546 
L 185.241552 173.696421 
L 186.87196 174.761619 
L 188.759896 175.23971 
L 190.700775 175.078884 
L 192.484272 174.29657 
L 193.917117 172.977543 
L 194.844039 171.264741 
L 195.164592 169.343772 
" style="fill:none;stroke:#ff0000;stroke-linecap:square;stroke-width:1.5;"/>
   </g>
   <g id="line2d_61">
    <path clip-path="url(#p571b691c1f)" d="M 468.843038 321.231679 
L 467.706532 314.42097 
L 464.420171 308.348308 
L 459.340084 303.671759 
L 453.016778 300.898099 
L 446.13548 300.327899 
L 439.441885 302.022947 
L 433.66135 305.799559 
L 429.420283 311.248481 
L 427.178272 317.779238 
L 427.178272 324.68412 
L 429.420283 331.214876 
L 433.66135 336.663798 
L 439.441885 340.44041 
L 446.13548 342.135459 
L 453.016778 341.565258 
L 459.340084 338.791599 
L 464.420171 334.115049 
L 467.706532 328.042387 
L 468.843038 321.231679 
" style="fill:none;stroke:#000000;stroke-dasharray:5.55,2.4;stroke-dashoffset:0;stroke-width:1.5;"/>
   </g>
   <g id="line2d_62">
    <path clip-path="url(#p571b691c1f)" d="M 453.783761 321.231679 
L 453.463208 319.31071 
L 452.536285 317.597907 
L 451.10344 316.278881 
L 449.319944 315.496566 
L 447.379065 315.335741 
L 445.491128 315.813831 
L 443.86072 316.87903 
L 442.664522 318.415905 
L 442.03216 320.257913 
L 442.03216 322.205444 
L 442.664522 324.047452 
L 443.86072 325.584328 
L 445.491128 326.649526 
L 447.379065 327.127617 
L 449.319944 326.966791 
L 451.10344 326.184477 
L 452.536285 324.86545 
L 453.463208 323.152648 
L 453.783761 321.231679 
" style="fill:none;stroke:#ff0000;stroke-linecap:square;stroke-width:1.5;"/>
   </g>
   <g id="line2d_63">
    <path clip-path="url(#p571b691c1f)" d="M 310.945388 217.304826 
L 309.808881 210.494118 
L 306.522521 204.421456 
L 301.442434 199.744907 
L 295.119128 196.971247 
L 288.237829 196.401046 
L 281.544235 198.096095 
L 275.763699 201.872707 
L 271.522633 207.321629 
L 269.280622 213.852385 
L 269.280622 220.757267 
L 271.522633 227.288024 
L 275.763699 232.736946 
L 281.544235 236.513558 
L 288.237829 238.208606 
L 295.119128 237.638406 
L 301.442434 234.864746 
L 306.522521 230.188197 
L 309.808881 224.115535 
L 310.945388 217.304826 
" style="fill:none;stroke:#000000;stroke-dasharray:5.55,2.4;stroke-dashoffset:0;stroke-width:1.5;"/>
   </g>
   <g id="line2d_64">
    <path clip-path="url(#p571b691c1f)" d="M 295.886111 217.304826 
L 295.565558 215.383857 
L 294.638635 213.671055 
L 293.20579 212.352028 
L 291.422294 211.569714 
L 289.481415 211.408888 
L 287.593478 211.886979 
L 285.96307 212.952177 
L 284.766872 214.489053 
L 284.13451 216.331061 
L 284.13451 218.278592 
L 284.766872 220.1206 
L 285.96307 221.657475 
L 287.593478 222.722674 
L 289.481415 223.200764 
L 291.422294 223.039939 
L 293.20579 222.257624 
L 294.638635 220.938598 
L 295.565558 219.225795 
L 295.886111 217.304826 
" style="fill:none;stroke:#ff0000;stroke-linecap:square;stroke-width:1.5;"/>
   </g>
   <g id="line2d_65">
    <path clip-path="url(#p571b691c1f)" d="M 381.27212 271.584271 
L 380.135614 264.773562 
L 376.849253 258.7009 
L 371.769167 254.024351 
L 365.44586 251.250691 
L 358.564562 250.680491 
L 351.870967 252.375539 
L 346.090432 256.152151 
L 341.849366 261.601073 
L 339.607354 268.13183 
L 339.607354 275.036712 
L 341.849366 281.567468 
L 346.090432 287.01639 
L 351.870967 290.793002 
L 358.564562 292.488051 
L 365.44586 291.91785 
L 371.769167 289.144191 
L 376.849253 284.467641 
L 380.135614 278.394979 
L 381.27212 271.584271 
" style="fill:none;stroke:#000000;stroke-dasharray:5.55,2.4;stroke-dashoffset:0;stroke-width:1.5;"/>
   </g>
   <g id="line2d_66">
    <path clip-path="url(#p571b691c1f)" d="M 366.212843 271.584271 
L 365.89229 269.663302 
L 364.965368 267.9505 
L 363.532523 266.631473 
L 361.749026 265.849159 
L 359.808147 265.688333 
L 357.92021 266.166423 
L 356.289803 267.231622 
L 355.093605 268.768497 
L 354.461242 270.610505 
L 354.461242 272.558036 
L 355.093605 274.400044 
L 356.289803 275.93692 
L 357.92021 277.002118 
L 359.808147 277.480209 
L 361.749026 277.319383 
L 363.532523 276.537069 
L 364.965368 275.218042 
L 365.89229 273.50524 
L 366.212843 271.584271 
" style="fill:none;stroke:#ff0000;stroke-linecap:square;stroke-width:1.5;"/>
   </g>
   <g id="line2d_67">
    <path clip-path="url(#p571b691c1f)" d="M 274.554814 367.582972 
L 273.418307 360.772263 
L 270.131947 354.699601 
L 265.05186 350.023052 
L 258.728553 347.249392 
L 251.847255 346.679192 
L 245.153661 348.37424 
L 239.373125 352.150852 
L 235.132059 357.599774 
L 232.890048 364.130531 
L 232.890048 371.035413 
L 235.132059 377.566169 
L 239.373125 383.015091 
L 245.153661 386.791703 
L 251.847255 388.486752 
L 258.728553 387.916551 
L 265.05186 385.142892 
L 270.131947 380.466342 
L 273.418307 374.39368 
L 274.554814 367.582972 
" style="fill:none;stroke:#000000;stroke-dasharray:5.55,2.4;stroke-dashoffset:0;stroke-width:1.5;"/>
   </g>
   <g id="line2d_68">
    <path clip-path="url(#p571b691c1f)" d="M 259.495536 367.582972 
L 259.174983 365.662003 
L 258.248061 363.9492 
L 256.815216 362.630174 
L 255.031719 361.84786 
L 253.09084 361.687034 
L 251.202904 362.165124 
L 249.572496 363.230323 
L 248.376298 364.767198 
L 247.743936 366.609206 
L 247.743936 368.556737 
L 248.376298 370.398745 
L 249.572496 371.935621 
L 251.202904 373.000819 
L 253.09084 373.47891 
L 255.031719 373.318084 
L 256.815216 372.53577 
L 258.248061 371.216743 
L 259.174983 369.503941 
L 259.495536 367.582972 
" style="fill:none;stroke:#ff0000;stroke-linecap:square;stroke-width:1.5;"/>
   </g>
   <g id="line2d_69">
    <path clip-path="url(#p571b691c1f)" d="M 210.318268 357.956901 
L 209.181762 351.146193 
L 205.895402 345.07353 
L 200.815315 340.396981 
L 194.492008 337.623322 
L 187.61071 337.053121 
L 180.917116 338.748169 
L 175.13658 342.524782 
L 170.895514 347.973704 
L 168.653502 354.50446 
L 168.653502 361.409342 
L 170.895514 367.940098 
L 175.13658 373.38902 
L 180.917116 377.165633 
L 187.61071 378.860681 
L 194.492008 378.29048 
L 200.815315 375.516821 
L 205.895402 370.840272 
L 209.181762 364.767609 
L 210.318268 357.956901 
" style="fill:none;stroke:#000000;stroke-dasharray:5.55,2.4;stroke-dashoffset:0;stroke-width:1.5;"/>
   </g>
   <g id="line2d_70">
    <path clip-path="url(#p571b691c1f)" d="M 195.258991 357.956901 
L 194.938438 356.035932 
L 194.011516 354.32313 
L 192.578671 353.004103 
L 190.795174 352.221789 
L 188.854295 352.060963 
L 186.966358 352.539054 
L 185.335951 353.604252 
L 184.139753 355.141127 
L 183.507391 356.983136 
L 183.507391 358.930666 
L 184.139753 360.772675 
L 185.335951 362.30955 
L 186.966358 363.374748 
L 188.854295 363.852839 
L 190.795174 363.692013 
L 192.578671 362.909699 
L 194.011516 361.590672 
L 194.938438 359.87787 
L 195.258991 357.956901 
" style="fill:none;stroke:#ff0000;stroke-linecap:square;stroke-width:1.5;"/>
   </g>
   <g id="line2d_71">
    <path clip-path="url(#p571b691c1f)" d="M 202.523073 179.427917 
L 201.386567 172.617209 
L 198.100206 166.544547 
L 193.020119 161.867997 
L 186.696813 159.094338 
L 179.815514 158.524137 
L 173.12192 160.219185 
L 167.341385 163.995798 
L 163.100318 169.44472 
L 160.858307 175.975476 
L 160.858307 182.880358 
L 163.100318 189.411114 
L 167.341385 194.860036 
L 173.12192 198.636649 
L 179.815514 200.331697 
L 186.696813 199.761497 
L 193.020119 196.987837 
L 198.100206 192.311288 
L 201.386567 186.238625 
L 202.523073 179.427917 
" style="fill:none;stroke:#000000;stroke-dasharray:5.55,2.4;stroke-dashoffset:0;stroke-width:1.5;"/>
   </g>
   <g id="line2d_72">
    <path clip-path="url(#p571b691c1f)" d="M 187.463796 179.427917 
L 187.143243 177.506948 
L 186.21632 175.794146 
L 184.783475 174.475119 
L 182.999979 173.692805 
L 181.0591 173.531979 
L 179.171163 174.01007 
L 177.540755 175.075268 
L 176.344557 176.612144 
L 175.712195 178.454152 
L 175.712195 180.401683 
L 176.344557 182.243691 
L 177.540755 183.780566 
L 179.171163 184.845765 
L 181.0591 185.323855 
L 182.999979 185.163029 
L 184.783475 184.380715 
L 186.21632 183.061688 
L 187.143243 181.348886 
L 187.463796 179.427917 
" style="fill:none;stroke:#ff0000;stroke-linecap:square;stroke-width:1.5;"/>
   </g>
   <g id="line2d_73">
    <path clip-path="url(#p571b691c1f)" d="M 98.891566 487.188434 
L 98.891566 94.571566 
" style="fill:none;stroke:#000000;stroke-linecap:square;stroke-width:4;"/>
   </g>
   <g id="line2d_74">
    <path clip-path="url(#p571b691c1f)" d="M 98.891566 94.571566 
L 491.508434 94.571566 
" style="fill:none;stroke:#000000;stroke-linecap:square;stroke-width:4;"/>
   </g>
   <g id="line2d_75">
    <path clip-path="url(#p571b691c1f)" d="M 491.508434 94.571566 
L 491.508434 487.188434 
" style="fill:none;stroke:#000000;stroke-linecap:square;stroke-width:4;"/>
   </g>
   <g id="line2d_76">
    <path clip-path="url(#p571b691c1f)" d="M 491.508434 487.188434 
L 98.891566 487.188434 
" style="fill:none;stroke:#000000;stroke-linecap:square;stroke-width:4;"/>
   </g>
   <g id="line2d_77">
    <path clip-path="url(#p571b691c1f)" d="M 142.993735 136.845108 
L 143.639133 136.898892 
L 145.091277 137.060241 
L 147.350169 137.759422 
L 149.340145 138.888867 
L 151.061205 140.287229 
L 152.513349 141.739373 
L 154.395759 143.352867 
L 156.063036 144.697446 
L 157.999229 146.203373 
L 159.989205 147.870651 
L 161.817831 149.699277 
L 163.592675 151.47412 
L 164.937253 152.549783 
L 167.034795 153.679229 
L 169.34747 154.432193 
L 171.498795 155.023807 
L 173.65012 155.507855 
L 176.070361 155.454072 
L 177.898988 155.023807 
L 179.566265 154.055711 
L 181.125976 152.657349 
L 182.524337 150.77494 
L 183.438651 148.784964 
L 184.568096 146.31094 
L 185.805108 144.536096 
L 187.687518 142.70747 
L 189.569928 141.524241 
L 191.66747 140.771277 
L 193.54988 140.448578 
L 196.13147 140.502361 
L 198.659277 141.201542 
L 200.649253 142.223422 
L 202.370313 143.568 
L 204.145157 144.858795 
L 205.866217 145.773108 
L 207.587277 146.741205 
L 209.577253 148.462265 
L 211.190747 150.452241 
L 212.696675 152.496 
L 214.256386 154.001928 
L 216.085012 155.776771 
L 217.59094 157.874313 
L 218.827952 160.079422 
L 220.064964 162.176964 
L 221.463325 164.274506 
L 222.75412 166.372048 
L 224.260048 168.362024 
L 225.873542 170.083084 
L 227.540819 171.804145 
L 229.423229 173.471422 
L 231.251855 175.246265 
L 232.972916 177.128675 
L 234.371277 178.742169 
L 236.038554 180.678361 
L 237.598265 182.668337 
L 239.157976 184.60453 
L 240.717687 186.594506 
L 242.277398 188.530699 
L 243.837108 190.520675 
L 245.396819 192.456867 
L 246.95653 194.446843 
L 248.085976 195.845205 
L 249.161639 197.243566 
L 250.506217 198.910843 
L 251.850795 200.631904 
L 253.195373 202.299181 
L 254.701301 204.34294 
L 255.669398 206.332916 
L 256.314795 208.860723 
L 256.637494 210.904482 
L 257.121542 212.894458 
L 257.982072 214.776867 
L 259.219084 216.444145 
L 260.563663 217.950072 
L 262.177157 219.832482 
L 263.467952 222.145157 
L 264.167133 224.242699 
L 264.81253 226.609157 
L 265.888193 228.814265 
L 267.232771 230.96559 
L 268.577349 233.116916 
L 270.029494 234.999325 
L 271.85812 236.559036 
L 273.148916 237.312 
L 273.579181 237.419566 
L 274.278361 237.580916 
L 275.730506 237.796048 
L 277.935614 238.549012 
L 280.194506 239.89359 
L 282.076916 241.722217 
L 283.260145 243.389494 
L 284.604723 245.21812 
L 286.325783 246.885398 
L 288.100627 248.283759 
L 289.929253 250.112386 
L 291.381398 251.994795 
L 292.941108 253.662072 
L 294.877301 255.114217 
" style="fill:none;stroke:#8000ff;stroke-linecap:square;stroke-width:1.5;"/>
   </g>
   <g id="line2d_78">
    <path clip-path="url(#p571b691c1f)" d="M 222.592771 453.681542 
L 222.538988 453.681542 
L 222.700337 453.627759 
L 222.969253 453.46641 
L 223.722217 452.874795 
L 224.744096 451.584 
L 225.604627 449.86294 
L 226.196241 447.872964 
L 227.110554 436.255807 
L 227.971084 426.628627 
L 227.487036 424.423518 
L 226.841639 422.110843 
L 225.819759 419.260337 
L 225.174361 418.561157 
L 224.260048 418.023325 
L 222.75412 417.59306 
L 220.118747 417.270361 
L 219.580916 416.73253 
L 218.343904 414.957687 
L 216.945542 413.505542 
L 214.955566 412.160964 
L 212.911807 411.354217 
L 210.007518 410.332337 
L 208.824289 409.52559 
L 208.071325 408.503711 
L 207.425928 406.997783 
L 206.995663 405.06159 
L 206.94188 402.856482 
L 207.318361 400.651373 
L 208.340241 398.231133 
L 210.868048 394.358747 
L 212.158843 391.884723 
L 213.180723 389.303133 
L 214.363952 386.775325 
L 215.278265 384.247518 
L 215.70853 381.827277 
L 215.816096 379.729735 
L 215.762313 377.201928 
L 215.923663 374.727904 
L 216.461494 372.522795 
L 217.537157 369.941205 
L 218.128771 367.843663 
L 218.343904 365.477205 
L 218.074988 362.949398 
L 218.021205 360.42159 
L 218.559036 357.84 
L 220.764145 353.160867 
L 221.301976 351.224675 
L 221.463325 348.481735 
L 221.732241 346.545542 
L 222.592771 344.071518 
L 223.722217 341.812627 
L 224.528964 339.661301 
L 224.905446 337.294843 
L 224.475181 332.508145 
L 224.690313 329.872771 
L 225.389494 327.344964 
L 226.196241 325.086072 
L 227.433253 320.299373 
L 230.767807 306.692241 
L 231.413205 304.164434 
L 232.327518 301.52906 
L 233.349398 299.485301 
L 235.877205 295.128867 
L 236.522602 293.192675 
L 236.791518 290.772434 
L 236.468819 288.836241 
L 236.253687 288.621108 
L 235.124241 287.868145 
L 233.456964 287.491663 
L 228.670265 287.43788 
L 226.142458 286.900048 
L 223.776 285.770602 
L 221.732241 284.103325 
L 220.118747 282.059566 
L 219.043084 279.639325 
L 218.559036 277.111518 
L 218.559036 274.852627 
L 219.204434 272.324819 
L 220.280096 269.958361 
L 223.883566 263.504386 
L 227.755952 257.857157 
L 230.445108 254.038554 
L 232.058602 252.048578 
L 235.28559 248.875373 
L 238.02853 245.540819 
L 239.91094 243.765976 
L 241.685783 242.260048 
L 243.460627 240.538988 
L 244.751422 238.979277 
L 246.526265 237.204434 
L 246.526265 237.204434 
" style="fill:none;stroke:#376ff9;stroke-linecap:square;stroke-width:1.5;"/>
   </g>
   <g id="line2d_79">
    <path clip-path="url(#p571b691c1f)" d="M 192.743133 279.047711 
L 193.54988 279.047711 
L 195.27094 278.940145 
L 197.691181 278.402313 
L 200.057639 277.756916 
L 202.47788 277.111518 
L 204.89812 276.573687 
L 207.318361 275.982072 
L 209.36212 275.498024 
L 211.836145 274.90641 
L 214.256386 274.314795 
L 216.353928 273.830747 
L 218.774169 273.239133 
L 221.248193 272.647518 
L 223.668434 272.055904 
L 225.765976 271.518072 
L 228.186217 270.980241 
L 230.660241 270.388627 
L 233.080482 269.797012 
L 235.178024 269.259181 
L 237.275566 268.775133 
L 239.695807 268.183518 
L 241.793349 267.645687 
L 244.21359 267.054072 
L 246.687614 266.462458 
L 248.785157 265.97841 
L 251.205398 265.386795 
L 253.625639 264.795181 
L 256.099663 264.203566 
L 258.519904 263.611952 
L 260.940145 263.020337 
L 263.414169 262.428723 
L 265.511711 261.944675 
L 267.609253 261.460627 
L 270.029494 260.869012 
L 272.449735 260.277398 
L 274.547277 259.739566 
L 276.644819 259.255518 
L 278.419663 258.825253 
L 280.463422 258.341205 
L 282.937446 257.74959 
L 285.196337 257.265542 
L 287.401446 257.157976 
L 289.767904 257.157976 
L 292.188145 256.835277 
L 294.231904 256.351229 
L 296.705928 255.867181 
L 299.072386 255.490699 
L 301.116145 255.060434 
L 303.428819 254.522602 
L 306.171759 254.14612 
L 308.807133 254.415036 
L 311.17359 255.060434 
L 313.109783 255.436916 
L 315.476241 255.436916 
L 317.573783 255.060434 
L 319.940241 254.791518 
L 322.468048 254.952867 
L 324.995855 255.114217 
L 327.46988 254.899084 
L 329.406072 254.253687 
L 331.503614 253.070458 
L 333.224675 251.403181 
L 334.51547 249.574554 
L 336.128964 247.369446 
L 338.065157 245.594602 
L 339.947566 244.465157 
L 341.72241 243.389494 
L 343.174554 242.152482 
L 344.411566 240.91547 
L 346.509108 239.19441 
L 348.445301 238.118747 
L 350.811759 236.935518 
L 352.747952 235.913639 
L 354.684145 234.999325 
L 356.781687 234.246361 
L 358.825446 233.600964 
L 361.245687 232.955566 
L 363.719711 232.471518 
L 365.871036 232.148819 
L 368.398843 231.879904 
L 370.603952 231.772337 
L 373.131759 231.772337 
L 375.659566 231.772337 
L 378.079807 231.449639 
L 380.553831 230.858024 
L 383.081639 230.427759 
L 385.232964 230.212627 
L 387.384289 229.997494 
L 389.858313 229.728578 
L 392.009639 229.513446 
L 394.160964 229.298313 
L 396.634988 228.975614 
L 399.109012 228.599133 
L 401.206554 228.276434 
L 403.304096 227.899952 
L 405.77812 227.415904 
L 407.875663 226.985639 
L 410.349687 226.50159 
L 412.823711 225.963759 
L 415.243952 225.425928 
L 417.717976 224.888096 
L 420.138217 224.350265 
L 422.612241 223.758651 
L 424.709783 223.274602 
L 427.130024 222.682988 
L 429.550265 222.091373 
L 432.024289 221.499759 
L 434.44453 220.961928 
L 436.542072 220.47788 
L 438.316916 220.047614 
L 440.737157 219.456 
L 443.157398 218.918169 
L 445.631422 218.326554 
L 448.051663 217.73494 
L 450.525687 217.197108 
L 452.623229 216.659277 
L 455.04347 216.121446 
L 457.463711 215.529831 
" style="fill:none;stroke:#12c7e6;stroke-linecap:square;stroke-width:1.5;"/>
   </g>
   <g id="line2d_80">
    <path clip-path="url(#p571b691c1f)" d="M 154.07306 412.26853 
L 154.826024 412.26853 
L 156.654651 412.053398 
L 158.967325 411.354217 
L 160.903518 410.439904 
L 163.16241 409.310458 
L 165.475084 408.342361 
L 167.733976 407.481831 
L 169.831518 406.621301 
L 172.520675 405.868337 
L 175.048482 405.599422 
L 177.307373 405.115373 
L 179.189783 404.308627 
L 181.125976 402.856482 
L 182.524337 401.296771 
L 184.030265 399.414361 
L 186.020241 397.747084 
L 188.010217 396.671422 
L 190.538024 395.972241 
L 193.012048 395.757108 
L 194.840675 395.488193 
L 197.045783 394.627663 
L 199.089542 393.390651 
L 200.918169 392.261205 
L 203.015711 391.346892 
L 205.651084 390.163663 
L 207.64106 388.765301 
L 209.308337 386.990458 
L 211.190747 385.269398 
L 213.180723 384.193735 
L 215.278265 383.494554 
L 217.913639 383.225639 
L 220.118747 383.494554 
L 222.592771 384.355084 
L 224.79788 385.592096 
L 226.895422 386.613976 
L 229.26188 387.151807 
L 231.84347 387.850988 
L 233.994795 388.603952 
L 236.253687 389.679614 
L 238.512578 390.486361 
L 240.448771 390.862843 
L 242.49253 391.346892 
L 244.912771 392.422554 
L 246.848964 393.336867 
L 249.161639 393.982265 
L 251.205398 394.143614 
L 253.356723 394.143614 
L 255.88453 394.627663 
L 258.358554 395.541976 
L 260.940145 396.510072 
L 263.306602 396.886554 
L 265.726843 396.671422 
L 268.093301 396.026024 
L 270.567325 395.541976 
L 272.826217 395.541976 
L 275.515373 395.595759 
L 277.559133 395.326843 
L 279.495325 394.627663 
L 281.539084 393.336867 
L 283.475277 391.615807 
L 285.465253 389.94853 
L 287.670361 388.496386 
L 289.606554 387.044241 
L 291.273831 385.269398 
L 292.564627 383.171855 
L 293.747855 381.289446 
L 295.146217 379.568386 
L 297.08241 377.685976 
L 298.64212 376.341398 
L 300.363181 374.620337 
L 301.761542 373.006843 
L 303.375036 371.070651 
L 304.773398 369.457157 
L 306.440675 367.574747 
L 307.839036 365.961253 
L 309.506313 364.02506 
L 310.904675 362.411566 
L 312.303036 360.798072 
L 313.970313 358.86188 
L 315.583807 356.97947 
L 317.251084 355.09706 
L 318.864578 353.160867 
L 320.26294 351.547373 
L 321.930217 349.664964 
L 323.328578 348.05147 
L 324.942072 346.115277 
L 326.609349 344.232867 
L 328.222843 342.350458 
L 329.89012 340.468048 
" style="fill:none;stroke:#5bf9c7;stroke-linecap:square;stroke-width:1.5;"/>
   </g>
   <g id="line2d_81">
    <path clip-path="url(#p571b691c1f)" d="M 407.66053 157.067566 
L 407.714313 157.067566 
L 407.82188 157.121349 
L 407.875663 157.121349 
L 407.983229 157.228916 
L 408.037012 157.282699 
L 408.090795 157.390265 
L 408.198361 157.766747 
L 408.252145 158.573494 
L 408.144578 159.487807 
L 407.499181 161.316434 
L 406.423518 163.091277 
L 404.594892 165.02747 
L 402.551133 166.533398 
L 400.45359 167.824193 
L 398.463614 169.276337 
L 396.742554 170.620916 
L 394.752578 172.180627 
L 392.762602 173.686554 
L 390.772627 175.192482 
L 388.782651 176.69841 
L 387.06159 177.989205 
L 385.071614 179.548916 
L 383.081639 181.054843 
L 381.091663 182.560771 
L 379.047904 184.066699 
L 377.057928 185.62641 
L 375.067952 187.132337 
L 372.80906 188.853398 
L 371.088 190.144193 
L 369.098024 191.703904 
L 367.376964 192.994699 
L 365.386988 194.500627 
L 363.665928 195.791422 
L 361.944867 197.082217 
L 359.954892 198.641928 
L 357.964916 200.147855 
L 355.921157 201.653783 
L 354.25388 202.944578 
L 352.21012 204.450506 
L 350.220145 206.010217 
L 348.230169 207.516145 
L 346.509108 208.80694 
L 344.788048 210.097735 
L 342.798072 211.657446 
L 341.077012 212.948241 
L 339.409735 214.239036 
L 337.95759 215.314699 
L 336.23653 216.605494 
L 334.192771 218.111422 
L 332.202795 219.187084 
L 329.728771 219.886265 
L 327.039614 220.262747 
L 325.049639 220.693012 
L 322.84453 221.661108 
L 321.12347 222.89812 
L 319.294843 224.135133 
L 316.820819 225.372145 
L 314.400578 225.963759 
L 312.087904 226.770506 
L 310.044145 228.061301 
L 308.376867 229.782361 
L 307.139855 231.82612 
L 306.279325 234.246361 
L 305.203663 236.935518 
L 303.912867 238.817928 
L 302.084241 240.592771 
L 299.771566 242.098699 
L 298.104289 243.174361 
L 296.22188 244.734072 
L 294.393253 246.186217 
L 292.564627 247.853494 
L 290.789783 249.628337 
L 289.176289 251.080482 
L 287.186313 252.693976 
L 285.519036 253.984771 
L 283.582843 255.544482 
L 281.808 257.265542 
L 279.871807 259.363084 
L 278.36588 261.191711 
L 276.644819 263.07412 
L 275.138892 264.580048 
L 273.525398 266.462458 
L 272.180819 268.237301 
L 270.674892 269.850795 
L 268.469783 271.30294 
L 266.103325 272.324819 
L 263.736867 273.239133 
L 261.800675 274.099663 
" style="fill:none;stroke:#a4f99f;stroke-linecap:square;stroke-width:1.5;"/>
   </g>
   <g id="line2d_82">
    <path clip-path="url(#p571b691c1f)" d="M 188.655614 128.723855 
L 189.462361 128.723855 
L 191.398554 128.938988 
L 193.872578 129.691952 
L 200.541687 133.080289 
L 202.47788 133.940819 
L 204.682988 135.231614 
L 213.019373 140.82506 
L 245.827084 165.780434 
L 253.518072 171.696578 
L 262.876337 178.903518 
L 269.43788 183.959133 
L 271.427855 185.357494 
L 273.632964 186.271807 
L 275.676723 186.702072 
L 279.92559 186.970988 
L 282.238265 186.863422 
L 284.228241 186.32559 
L 289.122506 184.550747 
L 291.327614 184.228048 
L 293.694072 183.690217 
L 297.727807 182.076723 
L 300.309398 181.646458 
L 305.418795 181.86159 
L 307.839036 181.538892 
L 310.420627 181.377542 
L 315.422458 182.02294 
L 320.209157 181.86159 
L 322.468048 182.184289 
L 324.995855 183.044819 
L 336.075181 187.508819 
L 337.903807 188.423133 
L 339.248386 189.283663 
L 340.431614 190.305542 
L 341.399711 191.488771 
L 343.389687 195.199807 
L 344.734265 197.297349 
L 348.983133 203.052145 
L 350.381494 205.04212 
L 351.994988 206.92453 
L 353.339566 208.107759 
L 355.168193 209.882602 
L 356.83547 211.818795 
L 360.492723 216.659277 
L 362.697831 219.940048 
L 363.827277 221.499759 
L 365.494554 223.113253 
L 367.48453 224.404048 
L 369.689639 225.425928 
L 372.056096 226.931855 
L 373.938506 228.652916 
L 377.219277 232.041253 
L 380.500048 235.268241 
L 382.490024 236.774169 
L 384.049735 238.17253 
L 385.394313 239.786024 
L 386.846458 241.776 
L 390.019663 245.37947 
L 391.310458 247.584578 
L 392.332337 249.68212 
L 393.515566 251.833446 
L 394.860145 253.984771 
L 397.119036 258.072289 
L 403.626795 271.249157 
L 408.574843 281.629301 
L 414.598554 294.214554 
L 414.598554 294.214554 
" style="fill:none;stroke:#edc76f;stroke-linecap:square;stroke-width:1.5;"/>
   </g>
   <g id="line2d_83">
    <path clip-path="url(#p571b691c1f)" d="M 270.836241 426.359711 
L 270.890024 426.359711 
L 271.266506 426.252145 
L 271.911904 425.929446 
L 272.772434 425.391614 
L 273.74053 424.369735 
L 274.923759 422.541108 
L 275.784289 420.282217 
L 276.375904 418.184675 
L 277.075084 415.764434 
L 277.881831 413.397976 
L 278.688578 411.031518 
L 279.602892 408.557494 
L 280.893687 406.352386 
L 282.238265 404.308627 
L 283.260145 402.049735 
L 283.851759 399.790843 
L 284.766072 397.047904 
L 286.110651 394.789012 
L 287.831711 392.852819 
L 289.122506 391.239325 
L 290.144386 389.464482 
L 290.951133 387.528289 
L 291.811663 385.215614 
L 292.295711 382.795373 
L 292.403277 380.859181 
L 292.564627 378.43894 
L 293.263807 375.857349 
L 294.500819 373.437108 
L 295.630265 371.016867 
L 296.114313 368.704193 
L 296.168096 366.606651 
L 296.22188 364.509108 
L 296.598361 361.873735 
L 297.351325 359.56106 
L 298.265639 357.248386 
L 298.911036 355.204627 
L 299.502651 353.160867 
L 300.201831 350.740627 
L 300.847229 348.643084 
L 301.600193 346.276627 
L 302.353157 343.910169 
L 303.052337 341.812627 
L 303.805301 339.446169 
L 304.450699 337.40241 
L 305.257446 335.035952 
L 306.01041 332.615711 
L 306.763373 330.249253 
L 307.57012 327.829012 
L 308.215518 325.785253 
L 308.968482 323.418795 
L 309.667663 321.375036 
L 310.528193 318.632096 
L 311.17359 316.588337 
L 311.980337 314.22188 
L 312.733301 311.801639 
L 313.486265 309.435181 
L 314.293012 307.01494 
L 315.045976 304.648482 
L 315.691373 302.604723 
L 316.390554 300.560964 
L 317.143518 298.140723 
L 317.896482 295.774265 
L 318.703229 293.354024 
L 319.40241 291.041349 
L 319.832675 288.513542 
L 320.424289 285.609253 
L 321.231036 283.565494 
L 322.414265 281.037687 
L 323.113446 278.725012 
L 323.328578 276.304771 
L 323.113446 273.776964 
L 322.952096 270.872675 
L 323.167229 268.613783 
L 323.70506 266.139759 
L 323.973976 263.988434 
L 324.296675 261.890892 
L 324.780723 259.416867 
L 325.318554 257.319325 
L 325.963952 254.899084 
L 326.716916 252.156145 
L 327.362313 250.058602 
L 328.222843 247.477012 
L 328.653108 245.37947 
L 328.653108 242.959229 
L 328.276627 240.485205 
L 327.900145 237.796048 
L 327.416096 235.698506 
L 326.878265 233.278265 
L 326.824482 231.664771 
L 327.147181 229.083181 
L 328.061494 226.609157 
L 329.083373 224.726747 
L 330.266602 222.521639 
L 331.288482 220.262747 
L 332.095229 218.272771 
L 333.063325 216.336578 
L 334.246554 214.077687 
L 335.537349 211.926361 
L 336.828145 209.775036 
L 338.172723 207.623711 
L 339.302169 205.795084 
L 340.70053 203.697542 
L 342.045108 201.6 
L 343.44347 199.502458 
L 344.572916 197.673831 
L 345.756145 195.898988 
L 347.154506 193.801446 
L 348.499084 191.703904 
L 349.682313 189.875277 
L 350.865542 188.100434 
L 352.21012 185.949108 
L 353.608482 183.851566 
" style="fill:none;stroke:#ff6f39;stroke-linecap:square;stroke-width:1.5;"/>
   </g>
   <g id="line2d_84">
    <path clip-path="url(#p571b691c1f)" d="M 271.85812 315.620241 
L 272.395952 315.620241 
L 274.063229 315.727807 
L 276.214554 316.319422 
L 278.150747 317.179952 
L 280.248289 318.632096 
L 281.915566 319.922892 
L 283.959325 321.26747 
L 286.056867 322.504482 
L 288.208193 323.84906 
L 290.305735 325.139855 
L 292.134361 326.323084 
L 294.231904 327.667663 
L 296.383229 328.958458 
L 298.319422 330.141687 
L 300.578313 331.002217 
L 302.783422 331.701398 
L 305.096096 332.884627 
L 307.193639 334.336771 
L 309.183614 335.788916 
L 311.281157 337.133494 
L 313.432482 338.478072 
L 315.530024 339.768867 
L 317.788916 341.00588 
L 319.940241 342.350458 
L 322.037783 343.695036 
L 323.86641 344.824482 
L 325.695036 345.953928 
L 327.846361 347.244723 
L 329.997687 348.535518 
L 332.149012 349.77253 
L 334.031422 350.79441 
L 335.913831 351.870072 
L 338.065157 353.160867 
L 339.947566 354.290313 
L 342.098892 355.581108 
L 344.196434 356.925687 
L 346.02506 358.055133 
L 348.122602 359.399711 
L 350.273928 360.744289 
L 352.37147 362.142651 
L 354.469012 363.487229 
L 356.566554 364.88559 
L 358.395181 366.015036 
L 360.492723 367.413398 
L 362.590265 368.757976 
L 364.687807 370.156337 
L 366.785349 371.500916 
L 368.613976 372.684145 
L 370.711518 374.028723 
L 372.80906 375.427084 
L 374.906602 376.771663 
L 377.111711 378.062458 
L 379.047904 378.976771 
L 380.984096 379.998651 
L 383.135422 381.343229 
L 384.910265 382.526458 
L 387.007807 383.924819 
L 389.105349 385.269398 
L 390.880193 386.452627 
L 392.977735 387.850988 
L 394.806361 389.034217 
L 396.903904 390.432578 
L 399.001446 391.777157 
L 400.776289 392.960386 
L 402.873831 394.358747 
L 404.648675 395.541976 
L 406.477301 396.725205 
L 408.574843 398.123566 
L 410.349687 399.306795 
L 411.855614 400.274892 
L 413.953157 401.673253 
L 415.728 402.856482 
L 417.556627 404.039711 
L 419.654169 405.384289 
L 421.751711 406.782651 
L 423.849253 408.181012 
L 426.215711 409.740723 
L 428.313253 411.139084 
L 430.410795 412.483663 
L 432.239422 413.666892 
L 434.014265 414.85012 
L 436.111807 416.248482 
L 438.209349 417.646843 
L 439.984193 418.830072 
L 442.081735 420.174651 
L 444.179277 421.573012 
L 446.276819 422.971373 
L 448.105446 424.154602 
L 450.202988 425.499181 
L 452.30053 426.897542 
L 454.075373 428.080771 
L 456.172916 429.479133 
L 458.270458 430.823711 
" style="fill:none;stroke:#ff0000;stroke-linecap:square;stroke-width:1.5;"/>
   </g>
   <g id="patch_3">
    <path d="M 72 512.64 
L 72 69.12 
" style="fill:none;stroke:#000000;stroke-linecap:square;stroke-linejoin:miter;stroke-width:0.8;"/>
   </g>
   <g id="patch_4">
    <path d="M 518.4 512.64 
L 518.4 69.12 
" style="fill:none;stroke:#000000;stroke-linecap:square;stroke-linejoin:miter;stroke-width:0.8;"/>
   </g>
   <g id="patch_5">
    <path d="M 72 512.64 
L 518.4 512.64 
" style="fill:none;stroke:#000000;stroke-linecap:square;stroke-linejoin:miter;stroke-width:0.8;"/>
   </g>
   <g id="patch_6">
    <path d="M 72 69.12 
L 518.4 69.12 
" style="fill:none;stroke:#000000;stroke-linecap:square;stroke-linejoin:miter;stroke-width:0.8;"/>
   </g>
   <g id="text_18">
    <!-- 1 -->
    <defs>
     <path d="M 14.203125 0 
L 14.203125 5.171875 
L 26.90625 5.171875 
L 26.90625 65.828125 
L 12.203125 56.296875 
L 12.203125 62.703125 
L 29.984375 74.21875 
L 36.71875 74.21875 
L 36.71875 5.171875 
L 49.421875 5.171875 
L 49.421875 0 
z
" id="DejaVuSerif-31"/>
    </defs>
    <g transform="translate(139.828977 136.862767)scale(0.1 -0.1)">
     <use xlink:href="#DejaVuSerif-31"/>
    </g>
   </g>
   <g id="text_19">
    <!-- 1 -->
    <g transform="translate(292.412763 255.626619)scale(0.1 -0.1)">
     <use xlink:href="#DejaVuSerif-31"/>
    </g>
   </g>
   <g id="text_20">
    <!-- 2 -->
    <defs>
     <path d="M 12.796875 55.515625 
L 7.328125 55.515625 
L 7.328125 68.5 
Q 12.546875 71.296875 17.84375 72.75 
Q 23.140625 74.21875 28.21875 74.21875 
Q 39.59375 74.21875 46.1875 68.703125 
Q 52.78125 63.1875 52.78125 53.71875 
Q 52.78125 43.015625 37.84375 28.125 
Q 36.671875 27 36.078125 26.421875 
L 17.671875 8.015625 
L 48.09375 8.015625 
L 48.09375 17 
L 53.8125 17 
L 53.8125 0 
L 6.78125 0 
L 6.78125 5.328125 
L 28.90625 27.390625 
Q 36.234375 34.71875 39.359375 40.84375 
Q 42.484375 46.96875 42.484375 53.71875 
Q 42.484375 61.078125 38.640625 65.234375 
Q 34.8125 69.390625 28.078125 69.390625 
Q 21.09375 69.390625 17.28125 65.921875 
Q 13.484375 62.453125 12.796875 55.515625 
z
" id="DejaVuSerif-32"/>
    </defs>
    <g transform="translate(219.396364 453.655745)scale(0.1 -0.1)">
     <use xlink:href="#DejaVuSerif-32"/>
    </g>
   </g>
   <g id="text_21">
    <!-- 2 -->
    <g transform="translate(245.037776 235.991038)scale(0.1 -0.1)">
     <use xlink:href="#DejaVuSerif-32"/>
    </g>
   </g>
   <g id="text_22">
    <!-- 3 -->
    <defs>
     <path d="M 9.71875 69.828125 
Q 15.4375 71.96875 20.671875 73.09375 
Q 25.921875 74.21875 30.515625 74.21875 
Q 41.21875 74.21875 47.21875 69.59375 
Q 53.21875 64.984375 53.21875 56.78125 
Q 53.21875 50.203125 49.0625 45.78125 
Q 44.921875 41.359375 37.3125 39.796875 
Q 46.296875 38.53125 51.25 33.28125 
Q 56.203125 28.03125 56.203125 19.671875 
Q 56.203125 9.46875 49.34375 4.015625 
Q 42.484375 -1.421875 29.59375 -1.421875 
Q 23.875 -1.421875 18.421875 -0.1875 
Q 12.984375 1.03125 7.625 3.515625 
L 7.625 17.671875 
L 13.09375 17.671875 
Q 13.578125 10.640625 17.828125 7.03125 
Q 22.078125 3.421875 29.78125 3.421875 
Q 37.25 3.421875 41.578125 7.734375 
Q 45.90625 12.0625 45.90625 19.578125 
Q 45.90625 28.171875 41.453125 32.59375 
Q 37.015625 37.015625 28.421875 37.015625 
L 23.78125 37.015625 
L 23.78125 42 
L 26.21875 42 
Q 34.765625 42 39.03125 45.53125 
Q 43.3125 49.078125 43.3125 56.203125 
Q 43.3125 62.59375 39.796875 65.984375 
Q 36.28125 69.390625 29.6875 69.390625 
Q 23.09375 69.390625 19.453125 66.265625 
Q 15.828125 63.140625 15.1875 56.984375 
L 9.71875 56.984375 
z
" id="DejaVuSerif-33"/>
    </defs>
    <g transform="translate(189.559945 279.056246)scale(0.1 -0.1)">
     <use xlink:href="#DejaVuSerif-33"/>
    </g>
   </g>
   <g id="text_23">
    <!-- 3 -->
    <g transform="translate(455.62981 215.219931)scale(0.1 -0.1)">
     <use xlink:href="#DejaVuSerif-33"/>
    </g>
   </g>
   <g id="text_24">
    <!-- 4 -->
    <defs>
     <path d="M 34.90625 24.703125 
L 34.90625 63.484375 
L 10.015625 24.703125 
z
M 56.390625 0 
L 23.1875 0 
L 23.1875 5.171875 
L 34.90625 5.171875 
L 34.90625 19.484375 
L 3.078125 19.484375 
L 3.078125 24.8125 
L 35.015625 74.21875 
L 44.671875 74.21875 
L 44.671875 24.703125 
L 58.59375 24.703125 
L 58.59375 19.484375 
L 44.671875 19.484375 
L 44.671875 5.171875 
L 56.390625 5.171875 
z
" id="DejaVuSerif-34"/>
    </defs>
    <g transform="translate(150.884818 412.253691)scale(0.1 -0.1)">
     <use xlink:href="#DejaVuSerif-34"/>
    </g>
   </g>
   <g id="text_25">
    <!-- 4 -->
    <g transform="translate(327.961185 338.988029)scale(0.1 -0.1)">
     <use xlink:href="#DejaVuSerif-34"/>
    </g>
   </g>
   <g id="text_26">
    <!-- 5 -->
    <defs>
     <path d="M 50.296875 72.90625 
L 50.296875 64.890625 
L 16.890625 64.890625 
L 16.890625 44 
Q 19.4375 45.75 22.828125 46.625 
Q 26.21875 47.515625 30.421875 47.515625 
Q 42.234375 47.515625 49.0625 40.96875 
Q 55.90625 34.421875 55.90625 23.09375 
Q 55.90625 11.53125 49 5.046875 
Q 42.09375 -1.421875 29.59375 -1.421875 
Q 24.5625 -1.421875 19.28125 -0.1875 
Q 14.015625 1.03125 8.5 3.515625 
L 8.5 17.671875 
L 14.015625 17.671875 
Q 14.453125 10.75 18.421875 7.078125 
Q 22.40625 3.421875 29.59375 3.421875 
Q 37.3125 3.421875 41.453125 8.5 
Q 45.609375 13.578125 45.609375 23.09375 
Q 45.609375 32.5625 41.484375 37.609375 
Q 37.359375 42.671875 29.59375 42.671875 
Q 25.203125 42.671875 21.84375 41.109375 
Q 18.5 39.546875 15.921875 36.28125 
L 11.71875 36.28125 
L 11.71875 72.90625 
z
" id="DejaVuSerif-35"/>
    </defs>
    <g transform="translate(404.460712 157.071642)scale(0.1 -0.1)">
     <use xlink:href="#DejaVuSerif-35"/>
    </g>
   </g>
   <g id="text_27">
    <!-- 5 -->
    <g transform="translate(256.730563 274.609947)scale(0.1 -0.1)">
     <use xlink:href="#DejaVuSerif-35"/>
    </g>
   </g>
   <g id="text_28">
    <!-- 6 -->
    <defs>
     <path d="M 32.71875 3.421875 
Q 39.59375 3.421875 43.296875 8.46875 
Q 47.015625 13.53125 47.015625 23 
Q 47.015625 32.46875 43.296875 37.515625 
Q 39.59375 42.578125 32.71875 42.578125 
Q 25.734375 42.578125 22.0625 37.6875 
Q 18.40625 32.8125 18.40625 23.578125 
Q 18.40625 13.875 22.109375 8.640625 
Q 25.828125 3.421875 32.71875 3.421875 
z
M 16.796875 40.140625 
Q 20.125 43.796875 24.3125 45.59375 
Q 28.515625 47.40625 33.796875 47.40625 
Q 44.671875 47.40625 51 40.859375 
Q 57.328125 34.328125 57.328125 23 
Q 57.328125 11.921875 50.515625 5.25 
Q 43.703125 -1.421875 32.328125 -1.421875 
Q 19.96875 -1.421875 13.328125 7.78125 
Q 6.6875 17 6.6875 34.078125 
Q 6.6875 53.21875 14.546875 63.71875 
Q 22.40625 74.21875 36.71875 74.21875 
Q 40.578125 74.21875 44.828125 73.484375 
Q 49.078125 72.75 53.515625 71.296875 
L 53.515625 59.28125 
L 48 59.28125 
Q 47.40625 64.203125 44.234375 66.796875 
Q 41.0625 69.390625 35.6875 69.390625 
Q 26.21875 69.390625 21.578125 62.203125 
Q 16.9375 55.03125 16.796875 40.140625 
z
" id="DejaVuSerif-36"/>
    </defs>
    <g transform="translate(185.487304 128.706322)scale(0.1 -0.1)">
     <use xlink:href="#DejaVuSerif-36"/>
    </g>
   </g>
   <g id="text_29">
    <!-- 6 -->
    <g transform="translate(412.528116 296.550869)scale(0.1 -0.1)">
     <use xlink:href="#DejaVuSerif-36"/>
    </g>
   </g>
   <g id="text_30">
    <!-- 7 -->
    <defs>
     <path d="M 56.390625 67.921875 
L 27.875 0 
L 20.609375 0 
L 47.796875 64.890625 
L 14.109375 64.890625 
L 14.109375 55.90625 
L 8.40625 55.90625 
L 8.40625 72.90625 
L 56.390625 72.90625 
z
" id="DejaVuSerif-37"/>
    </defs>
    <g transform="translate(267.633702 426.341599)scale(0.1 -0.1)">
     <use xlink:href="#DejaVuSerif-37"/>
    </g>
   </g>
   <g id="text_31">
    <!-- 7 -->
    <g transform="translate(351.29043 182.50644)scale(0.1 -0.1)">
     <use xlink:href="#DejaVuSerif-37"/>
    </g>
   </g>
   <g id="text_32">
    <!-- 8 -->
    <defs>
     <path d="M 46.578125 19.921875 
Q 46.578125 27.734375 42.6875 32.046875 
Q 38.8125 36.375 31.78125 36.375 
Q 24.75 36.375 20.875 32.046875 
Q 17 27.734375 17 19.921875 
Q 17 12.0625 20.875 7.734375 
Q 24.75 3.421875 31.78125 3.421875 
Q 38.8125 3.421875 42.6875 7.734375 
Q 46.578125 12.0625 46.578125 19.921875 
z
M 44.578125 55.328125 
Q 44.578125 61.96875 41.203125 65.671875 
Q 37.84375 69.390625 31.78125 69.390625 
Q 25.78125 69.390625 22.390625 65.671875 
Q 19 61.96875 19 55.328125 
Q 19 48.640625 22.390625 44.921875 
Q 25.78125 41.21875 31.78125 41.21875 
Q 37.84375 41.21875 41.203125 44.921875 
Q 44.578125 48.640625 44.578125 55.328125 
z
M 39.3125 38.8125 
Q 47.609375 37.703125 52.25 32.6875 
Q 56.890625 27.6875 56.890625 19.921875 
Q 56.890625 9.671875 50.390625 4.125 
Q 43.890625 -1.421875 31.78125 -1.421875 
Q 19.734375 -1.421875 13.203125 4.125 
Q 6.6875 9.671875 6.6875 19.921875 
Q 6.6875 27.6875 11.328125 32.6875 
Q 15.96875 37.703125 24.3125 38.8125 
Q 16.9375 40.140625 13 44.40625 
Q 9.078125 48.6875 9.078125 55.328125 
Q 9.078125 64.109375 15.125 69.15625 
Q 21.1875 74.21875 31.78125 74.21875 
Q 42.390625 74.21875 48.4375 69.15625 
Q 54.5 64.109375 54.5 55.328125 
Q 54.5 48.6875 50.5625 44.40625 
Q 46.625 40.140625 39.3125 38.8125 
z
" id="DejaVuSerif-38"/>
    </defs>
    <g transform="translate(268.683472 315.604145)scale(0.1 -0.1)">
     <use xlink:href="#DejaVuSerif-38"/>
    </g>
   </g>
   <g id="text_33">
    <!-- 8 -->
    <g transform="translate(457.38316 432.354658)scale(0.1 -0.1)">
     <use xlink:href="#DejaVuSerif-38"/>
    </g>
   </g>
  </g>
 </g>
 <defs>
  <clipPath id="p571b691c1f">
   <rect height="443.52" width="446.4" x="72" y="69.12"/>
  </clipPath>
 </defs>
</svg>
