<?xml version="1.0" encoding="utf-8" standalone="no"?>
<!DOCTYPE svg PUBLIC "-//W3C//DTD SVG 1.1//EN"
  "http://www.w3.org/Graphics/SVG/1.1/DTD/svg11.dtd">
<!-- Created with matplotlib (http://matplotlib.org/) -->
<svg height="576pt" version="1.1" viewBox="0 0 576 576" width="576pt" xmlns="http://www.w3.org/2000/svg" xmlns:xlink="http://www.w3.org/1999/xlink">
 <defs>
  <style type="text/css">
*{stroke-linecap:butt;stroke-linejoin:round;}
  </style>
 </defs>
 <g id="figure_1">
  <g id="patch_1">
   <path d="M 0 576 
L 576 576 
L 576 0 
L 0 0 
z
" style="fill:#ffffff;"/>
  </g>
  <g id="axes_1">
   <g id="patch_2">
    <path d="M 72 512.64 
L 518.4 512.64 
L 518.4 69.12 
L 72 69.12 
z
" style="fill:#ffffff;"/>
   </g>
   <g id="matplotlib.axis_1">
    <g id="xtick_1">
     <g id="line2d_1">
      <defs>
       <path d="M 0 0 
L 0 3.5 
" id="m11cd7df3de" style="stroke:#000000;stroke-width:0.8;"/>
      </defs>
      <g>
       <use style="stroke:#000000;stroke-width:0.8;" x="112.216216" xlink:href="#m11cd7df3de" y="512.64"/>
      </g>
     </g>
     <g id="text_1">
      <!-- 0 -->
      <defs>
       <path d="M 31.78125 66.40625 
Q 24.171875 66.40625 20.328125 58.90625 
Q 16.5 51.421875 16.5 36.375 
Q 16.5 21.390625 20.328125 13.890625 
Q 24.171875 6.390625 31.78125 6.390625 
Q 39.453125 6.390625 43.28125 13.890625 
Q 47.125 21.390625 47.125 36.375 
Q 47.125 51.421875 43.28125 58.90625 
Q 39.453125 66.40625 31.78125 66.40625 
z
M 31.78125 74.21875 
Q 44.046875 74.21875 50.515625 64.515625 
Q 56.984375 54.828125 56.984375 36.375 
Q 56.984375 17.96875 50.515625 8.265625 
Q 44.046875 -1.421875 31.78125 -1.421875 
Q 19.53125 -1.421875 13.0625 8.265625 
Q 6.59375 17.96875 6.59375 36.375 
Q 6.59375 54.828125 13.0625 64.515625 
Q 19.53125 74.21875 31.78125 74.21875 
z
" id="DejaVuSans-30"/>
      </defs>
      <g transform="translate(109.034966 527.238438)scale(0.1 -0.1)">
       <use xlink:href="#DejaVuSans-30"/>
      </g>
     </g>
    </g>
    <g id="xtick_2">
     <g id="line2d_2">
      <g>
       <use style="stroke:#000000;stroke-width:0.8;" x="192.648649" xlink:href="#m11cd7df3de" y="512.64"/>
      </g>
     </g>
     <g id="text_2">
      <!-- 2 -->
      <defs>
       <path d="M 19.1875 8.296875 
L 53.609375 8.296875 
L 53.609375 0 
L 7.328125 0 
L 7.328125 8.296875 
Q 12.9375 14.109375 22.625 23.890625 
Q 32.328125 33.6875 34.8125 36.53125 
Q 39.546875 41.84375 41.421875 45.53125 
Q 43.3125 49.21875 43.3125 52.78125 
Q 43.3125 58.59375 39.234375 62.25 
Q 35.15625 65.921875 28.609375 65.921875 
Q 23.96875 65.921875 18.8125 64.3125 
Q 13.671875 62.703125 7.8125 59.421875 
L 7.8125 69.390625 
Q 13.765625 71.78125 18.9375 73 
Q 24.125 74.21875 28.421875 74.21875 
Q 39.75 74.21875 46.484375 68.546875 
Q 53.21875 62.890625 53.21875 53.421875 
Q 53.21875 48.921875 51.53125 44.890625 
Q 49.859375 40.875 45.40625 35.40625 
Q 44.1875 33.984375 37.640625 27.21875 
Q 31.109375 20.453125 19.1875 8.296875 
z
" id="DejaVuSans-32"/>
      </defs>
      <g transform="translate(189.467399 527.238438)scale(0.1 -0.1)">
       <use xlink:href="#DejaVuSans-32"/>
      </g>
     </g>
    </g>
    <g id="xtick_3">
     <g id="line2d_3">
      <g>
       <use style="stroke:#000000;stroke-width:0.8;" x="273.081081" xlink:href="#m11cd7df3de" y="512.64"/>
      </g>
     </g>
     <g id="text_3">
      <!-- 4 -->
      <defs>
       <path d="M 37.796875 64.3125 
L 12.890625 25.390625 
L 37.796875 25.390625 
z
M 35.203125 72.90625 
L 47.609375 72.90625 
L 47.609375 25.390625 
L 58.015625 25.390625 
L 58.015625 17.1875 
L 47.609375 17.1875 
L 47.609375 0 
L 37.796875 0 
L 37.796875 17.1875 
L 4.890625 17.1875 
L 4.890625 26.703125 
z
" id="DejaVuSans-34"/>
      </defs>
      <g transform="translate(269.899831 527.238438)scale(0.1 -0.1)">
       <use xlink:href="#DejaVuSans-34"/>
      </g>
     </g>
    </g>
    <g id="xtick_4">
     <g id="line2d_4">
      <g>
       <use style="stroke:#000000;stroke-width:0.8;" x="353.513514" xlink:href="#m11cd7df3de" y="512.64"/>
      </g>
     </g>
     <g id="text_4">
      <!-- 6 -->
      <defs>
       <path d="M 33.015625 40.375 
Q 26.375 40.375 22.484375 35.828125 
Q 18.609375 31.296875 18.609375 23.390625 
Q 18.609375 15.53125 22.484375 10.953125 
Q 26.375 6.390625 33.015625 6.390625 
Q 39.65625 6.390625 43.53125 10.953125 
Q 47.40625 15.53125 47.40625 23.390625 
Q 47.40625 31.296875 43.53125 35.828125 
Q 39.65625 40.375 33.015625 40.375 
z
M 52.59375 71.296875 
L 52.59375 62.3125 
Q 48.875 64.0625 45.09375 64.984375 
Q 41.3125 65.921875 37.59375 65.921875 
Q 27.828125 65.921875 22.671875 59.328125 
Q 17.53125 52.734375 16.796875 39.40625 
Q 19.671875 43.65625 24.015625 45.921875 
Q 28.375 48.1875 33.59375 48.1875 
Q 44.578125 48.1875 50.953125 41.515625 
Q 57.328125 34.859375 57.328125 23.390625 
Q 57.328125 12.15625 50.6875 5.359375 
Q 44.046875 -1.421875 33.015625 -1.421875 
Q 20.359375 -1.421875 13.671875 8.265625 
Q 6.984375 17.96875 6.984375 36.375 
Q 6.984375 53.65625 15.1875 63.9375 
Q 23.390625 74.21875 37.203125 74.21875 
Q 40.921875 74.21875 44.703125 73.484375 
Q 48.484375 72.75 52.59375 71.296875 
z
" id="DejaVuSans-36"/>
      </defs>
      <g transform="translate(350.332264 527.238438)scale(0.1 -0.1)">
       <use xlink:href="#DejaVuSans-36"/>
      </g>
     </g>
    </g>
    <g id="xtick_5">
     <g id="line2d_5">
      <g>
       <use style="stroke:#000000;stroke-width:0.8;" x="433.945946" xlink:href="#m11cd7df3de" y="512.64"/>
      </g>
     </g>
     <g id="text_5">
      <!-- 8 -->
      <defs>
       <path d="M 31.78125 34.625 
Q 24.75 34.625 20.71875 30.859375 
Q 16.703125 27.09375 16.703125 20.515625 
Q 16.703125 13.921875 20.71875 10.15625 
Q 24.75 6.390625 31.78125 6.390625 
Q 38.8125 6.390625 42.859375 10.171875 
Q 46.921875 13.96875 46.921875 20.515625 
Q 46.921875 27.09375 42.890625 30.859375 
Q 38.875 34.625 31.78125 34.625 
z
M 21.921875 38.8125 
Q 15.578125 40.375 12.03125 44.71875 
Q 8.5 49.078125 8.5 55.328125 
Q 8.5 64.0625 14.71875 69.140625 
Q 20.953125 74.21875 31.78125 74.21875 
Q 42.671875 74.21875 48.875 69.140625 
Q 55.078125 64.0625 55.078125 55.328125 
Q 55.078125 49.078125 51.53125 44.71875 
Q 48 40.375 41.703125 38.8125 
Q 48.828125 37.15625 52.796875 32.3125 
Q 56.78125 27.484375 56.78125 20.515625 
Q 56.78125 9.90625 50.3125 4.234375 
Q 43.84375 -1.421875 31.78125 -1.421875 
Q 19.734375 -1.421875 13.25 4.234375 
Q 6.78125 9.90625 6.78125 20.515625 
Q 6.78125 27.484375 10.78125 32.3125 
Q 14.796875 37.15625 21.921875 38.8125 
z
M 18.3125 54.390625 
Q 18.3125 48.734375 21.84375 45.5625 
Q 25.390625 42.390625 31.78125 42.390625 
Q 38.140625 42.390625 41.71875 45.5625 
Q 45.3125 48.734375 45.3125 54.390625 
Q 45.3125 60.0625 41.71875 63.234375 
Q 38.140625 66.40625 31.78125 66.40625 
Q 25.390625 66.40625 21.84375 63.234375 
Q 18.3125 60.0625 18.3125 54.390625 
z
" id="DejaVuSans-38"/>
      </defs>
      <g transform="translate(430.764696 527.238438)scale(0.1 -0.1)">
       <use xlink:href="#DejaVuSans-38"/>
      </g>
     </g>
    </g>
    <g id="xtick_6">
     <g id="line2d_6">
      <g>
       <use style="stroke:#000000;stroke-width:0.8;" x="514.378378" xlink:href="#m11cd7df3de" y="512.64"/>
      </g>
     </g>
     <g id="text_6">
      <!-- 10 -->
      <defs>
       <path d="M 12.40625 8.296875 
L 28.515625 8.296875 
L 28.515625 63.921875 
L 10.984375 60.40625 
L 10.984375 69.390625 
L 28.421875 72.90625 
L 38.28125 72.90625 
L 38.28125 8.296875 
L 54.390625 8.296875 
L 54.390625 0 
L 12.40625 0 
z
" id="DejaVuSans-31"/>
      </defs>
      <g transform="translate(508.015878 527.238438)scale(0.1 -0.1)">
       <use xlink:href="#DejaVuSans-31"/>
       <use x="63.623047" xlink:href="#DejaVuSans-30"/>
      </g>
     </g>
    </g>
   </g>
   <g id="matplotlib.axis_2">
    <g id="ytick_1">
     <g id="line2d_7">
      <defs>
       <path d="M 0 0 
L -3.5 0 
" id="m2cc8ab337c" style="stroke:#000000;stroke-width:0.8;"/>
      </defs>
      <g>
       <use style="stroke:#000000;stroke-width:0.8;" x="72" xlink:href="#m2cc8ab337c" y="473.863784"/>
      </g>
     </g>
     <g id="text_7">
      <!-- 0 -->
      <g transform="translate(58.6375 477.663003)scale(0.1 -0.1)">
       <use xlink:href="#DejaVuSans-30"/>
      </g>
     </g>
    </g>
    <g id="ytick_2">
     <g id="line2d_8">
      <g>
       <use style="stroke:#000000;stroke-width:0.8;" x="72" xlink:href="#m2cc8ab337c" y="393.431351"/>
      </g>
     </g>
     <g id="text_8">
      <!-- 2 -->
      <g transform="translate(58.6375 397.23057)scale(0.1 -0.1)">
       <use xlink:href="#DejaVuSans-32"/>
      </g>
     </g>
    </g>
    <g id="ytick_3">
     <g id="line2d_9">
      <g>
       <use style="stroke:#000000;stroke-width:0.8;" x="72" xlink:href="#m2cc8ab337c" y="312.998919"/>
      </g>
     </g>
     <g id="text_9">
      <!-- 4 -->
      <g transform="translate(58.6375 316.798138)scale(0.1 -0.1)">
       <use xlink:href="#DejaVuSans-34"/>
      </g>
     </g>
    </g>
    <g id="ytick_4">
     <g id="line2d_10">
      <g>
       <use style="stroke:#000000;stroke-width:0.8;" x="72" xlink:href="#m2cc8ab337c" y="232.566486"/>
      </g>
     </g>
     <g id="text_10">
      <!-- 6 -->
      <g transform="translate(58.6375 236.365705)scale(0.1 -0.1)">
       <use xlink:href="#DejaVuSans-36"/>
      </g>
     </g>
    </g>
    <g id="ytick_5">
     <g id="line2d_11">
      <g>
       <use style="stroke:#000000;stroke-width:0.8;" x="72" xlink:href="#m2cc8ab337c" y="152.134054"/>
      </g>
     </g>
     <g id="text_11">
      <!-- 8 -->
      <g transform="translate(58.6375 155.933273)scale(0.1 -0.1)">
       <use xlink:href="#DejaVuSans-38"/>
      </g>
     </g>
    </g>
    <g id="ytick_6">
     <g id="line2d_12">
      <g>
       <use style="stroke:#000000;stroke-width:0.8;" x="72" xlink:href="#m2cc8ab337c" y="71.701622"/>
      </g>
     </g>
     <g id="text_12">
      <!-- 10 -->
      <g transform="translate(52.275 75.50084)scale(0.1 -0.1)">
       <use xlink:href="#DejaVuSans-31"/>
       <use x="63.623047" xlink:href="#DejaVuSans-30"/>
      </g>
     </g>
    </g>
   </g>
   <g id="line2d_13">
    <path clip-path="url(#p18b816d332)" d="M 140.367568 389.40973 
" style="fill:none;stroke:#1f77b4;stroke-linecap:square;stroke-width:1.5;"/>
    <defs>
     <path d="M -5 5 
L 5 5 
L 5 -5 
L -5 -5 
z
" id="m3a605cce98" style="stroke:#8000ff;stroke-linejoin:miter;"/>
    </defs>
    <g clip-path="url(#p18b816d332)">
     <use style="fill:#8000ff;stroke:#8000ff;stroke-linejoin:miter;" x="140.367568" xlink:href="#m3a605cce98" y="389.40973"/>
    </g>
   </g>
   <g id="line2d_14">
    <path clip-path="url(#p18b816d332)" d="M 393.72973 192.35027 
" style="fill:none;stroke:#ff7f0e;stroke-linecap:square;stroke-width:1.5;"/>
    <defs>
     <path d="M 0 -5 
L -4.755283 -1.545085 
L -2.938926 4.045085 
L 2.938926 4.045085 
L 4.755283 -1.545085 
z
" id="m553896aac3" style="stroke:#8000ff;stroke-linejoin:miter;"/>
    </defs>
    <g clip-path="url(#p18b816d332)">
     <use style="fill:#8000ff;stroke:#8000ff;stroke-linejoin:miter;" x="393.72973" xlink:href="#m553896aac3" y="192.35027"/>
    </g>
   </g>
   <g id="line2d_15">
    <path clip-path="url(#p18b816d332)" d="M 450.032432 192.35027 
" style="fill:none;stroke:#2ca02c;stroke-linecap:square;stroke-width:1.5;"/>
    <defs>
     <path d="M -5 5 
L 5 5 
L 5 -5 
L -5 -5 
z
" id="mb10983f803" style="stroke:#4062fa;stroke-linejoin:miter;"/>
    </defs>
    <g clip-path="url(#p18b816d332)">
     <use style="fill:#4062fa;stroke:#4062fa;stroke-linejoin:miter;" x="450.032432" xlink:href="#mb10983f803" y="192.35027"/>
    </g>
   </g>
   <g id="line2d_16">
    <path clip-path="url(#p18b816d332)" d="M 224.821622 361.258378 
" style="fill:none;stroke:#d62728;stroke-linecap:square;stroke-width:1.5;"/>
    <defs>
     <path d="M 0 -5 
L -4.755283 -1.545085 
L -2.938926 4.045085 
L 2.938926 4.045085 
L 4.755283 -1.545085 
z
" id="md1a3febdbf" style="stroke:#4062fa;stroke-linejoin:miter;"/>
    </defs>
    <g clip-path="url(#p18b816d332)">
     <use style="fill:#4062fa;stroke:#4062fa;stroke-linejoin:miter;" x="224.821622" xlink:href="#md1a3febdbf" y="361.258378"/>
    </g>
   </g>
   <g id="line2d_17">
    <path clip-path="url(#p18b816d332)" d="M 402.175135 440.082162 
" style="fill:none;stroke:#9467bd;stroke-linecap:square;stroke-width:1.5;"/>
    <defs>
     <path d="M -5 5 
L 5 5 
L 5 -5 
L -5 -5 
z
" id="m14009ed22a" style="stroke:#00b4ec;stroke-linejoin:miter;"/>
    </defs>
    <g clip-path="url(#p18b816d332)">
     <use style="fill:#00b4ec;stroke:#00b4ec;stroke-linejoin:miter;" x="402.175135" xlink:href="#m14009ed22a" y="440.082162"/>
    </g>
   </g>
   <g id="line2d_18">
    <path clip-path="url(#p18b816d332)" d="M 224.821622 192.35027 
" style="fill:none;stroke:#8c564b;stroke-linecap:square;stroke-width:1.5;"/>
    <defs>
     <path d="M 0 -5 
L -4.755283 -1.545085 
L -2.938926 4.045085 
L 2.938926 4.045085 
L 4.755283 -1.545085 
z
" id="m52f568650d" style="stroke:#00b4ec;stroke-linejoin:miter;"/>
    </defs>
    <g clip-path="url(#p18b816d332)">
     <use style="fill:#00b4ec;stroke:#00b4ec;stroke-linejoin:miter;" x="224.821622" xlink:href="#m52f568650d" y="192.35027"/>
    </g>
   </g>
   <g id="line2d_19">
    <path clip-path="url(#p18b816d332)" d="M 224.821622 136.047568 
" style="fill:none;stroke:#e377c2;stroke-linecap:square;stroke-width:1.5;"/>
    <defs>
     <path d="M -5 5 
L 5 5 
L 5 -5 
L -5 -5 
z
" id="maa35fc8ffa" style="stroke:#40ecd4;stroke-linejoin:miter;"/>
    </defs>
    <g clip-path="url(#p18b816d332)">
     <use style="fill:#40ecd4;stroke:#40ecd4;stroke-linejoin:miter;" x="224.821622" xlink:href="#maa35fc8ffa" y="136.047568"/>
    </g>
   </g>
   <g id="line2d_20">
    <path clip-path="url(#p18b816d332)" d="M 393.72973 361.258378 
" style="fill:none;stroke:#7f7f7f;stroke-linecap:square;stroke-width:1.5;"/>
    <defs>
     <path d="M 0 -5 
L -4.755283 -1.545085 
L -2.938926 4.045085 
L 2.938926 4.045085 
L 4.755283 -1.545085 
z
" id="mb11598b2fc" style="stroke:#40ecd4;stroke-linejoin:miter;"/>
    </defs>
    <g clip-path="url(#p18b816d332)">
     <use style="fill:#40ecd4;stroke:#40ecd4;stroke-linejoin:miter;" x="393.72973" xlink:href="#mb11598b2fc" y="361.258378"/>
    </g>
   </g>
   <g id="line2d_21">
    <path clip-path="url(#p18b816d332)" d="M 450.032432 304.955676 
" style="fill:none;stroke:#bcbd22;stroke-linecap:square;stroke-width:1.5;"/>
    <defs>
     <path d="M -5 5 
L 5 5 
L 5 -5 
L -5 -5 
z
" id="ma765a733e4" style="stroke:#80ffb4;stroke-linejoin:miter;"/>
    </defs>
    <g clip-path="url(#p18b816d332)">
     <use style="fill:#80ffb4;stroke:#80ffb4;stroke-linejoin:miter;" x="450.032432" xlink:href="#ma765a733e4" y="304.955676"/>
    </g>
   </g>
   <g id="line2d_22">
    <path clip-path="url(#p18b816d332)" d="M 196.67027 248.652973 
" style="fill:none;stroke:#17becf;stroke-linecap:square;stroke-width:1.5;"/>
    <defs>
     <path d="M 0 -5 
L -4.755283 -1.545085 
L -2.938926 4.045085 
L 2.938926 4.045085 
L 4.755283 -1.545085 
z
" id="m4f7abbee6b" style="stroke:#80ffb4;stroke-linejoin:miter;"/>
    </defs>
    <g clip-path="url(#p18b816d332)">
     <use style="fill:#80ffb4;stroke:#80ffb4;stroke-linejoin:miter;" x="196.67027" xlink:href="#m4f7abbee6b" y="248.652973"/>
    </g>
   </g>
   <g id="line2d_23">
    <path clip-path="url(#p18b816d332)" d="M 140.367568 248.652973 
" style="fill:none;stroke:#1f77b4;stroke-linecap:square;stroke-width:1.5;"/>
    <defs>
     <path d="M -5 5 
L 5 5 
L 5 -5 
L -5 -5 
z
" id="maa5dd2de61" style="stroke:#bfec8e;stroke-linejoin:miter;"/>
    </defs>
    <g clip-path="url(#p18b816d332)">
     <use style="fill:#bfec8e;stroke:#bfec8e;stroke-linejoin:miter;" x="140.367568" xlink:href="#maa5dd2de61" y="248.652973"/>
    </g>
   </g>
   <g id="line2d_24">
    <path clip-path="url(#p18b816d332)" d="M 393.72973 276.804324 
" style="fill:none;stroke:#ff7f0e;stroke-linecap:square;stroke-width:1.5;"/>
    <defs>
     <path d="M 0 -5 
L -4.755283 -1.545085 
L -2.938926 4.045085 
L 2.938926 4.045085 
L 4.755283 -1.545085 
z
" id="mcee7678577" style="stroke:#bfec8e;stroke-linejoin:miter;"/>
    </defs>
    <g clip-path="url(#p18b816d332)">
     <use style="fill:#bfec8e;stroke:#bfec8e;stroke-linejoin:miter;" x="393.72973" xlink:href="#mcee7678577" y="276.804324"/>
    </g>
   </g>
   <g id="line2d_25">
    <path clip-path="url(#p18b816d332)" d="M 281.124324 192.35027 
" style="fill:none;stroke:#2ca02c;stroke-linecap:square;stroke-width:1.5;"/>
    <defs>
     <path d="M -5 5 
L 5 5 
L 5 -5 
L -5 -5 
z
" id="m86e061e05c" style="stroke:#ffb462;stroke-linejoin:miter;"/>
    </defs>
    <g clip-path="url(#p18b816d332)">
     <use style="fill:#ffb462;stroke:#ffb462;stroke-linejoin:miter;" x="281.124324" xlink:href="#m86e061e05c" y="192.35027"/>
    </g>
   </g>
   <g id="line2d_26">
    <path clip-path="url(#p18b816d332)" d="M 281.124324 333.107027 
" style="fill:none;stroke:#d62728;stroke-linecap:square;stroke-width:1.5;"/>
    <defs>
     <path d="M 0 -5 
L -4.755283 -1.545085 
L -2.938926 4.045085 
L 2.938926 4.045085 
L 4.755283 -1.545085 
z
" id="m38f85a9d05" style="stroke:#ffb462;stroke-linejoin:miter;"/>
    </defs>
    <g clip-path="url(#p18b816d332)">
     <use style="fill:#ffb462;stroke:#ffb462;stroke-linejoin:miter;" x="281.124324" xlink:href="#m38f85a9d05" y="333.107027"/>
    </g>
   </g>
   <g id="line2d_27">
    <path clip-path="url(#p18b816d332)" d="M 140.367568 304.955676 
" style="fill:none;stroke:#9467bd;stroke-linecap:square;stroke-width:1.5;"/>
    <defs>
     <path d="M -5 5 
L 5 5 
L 5 -5 
L -5 -5 
z
" id="m25285a00ea" style="stroke:#ff6232;stroke-linejoin:miter;"/>
    </defs>
    <g clip-path="url(#p18b816d332)">
     <use style="fill:#ff6232;stroke:#ff6232;stroke-linejoin:miter;" x="140.367568" xlink:href="#m25285a00ea" y="304.955676"/>
    </g>
   </g>
   <g id="line2d_28">
    <path clip-path="url(#p18b816d332)" d="M 309.275676 276.804324 
" style="fill:none;stroke:#8c564b;stroke-linecap:square;stroke-width:1.5;"/>
    <defs>
     <path d="M 0 -5 
L -4.755283 -1.545085 
L -2.938926 4.045085 
L 2.938926 4.045085 
L 4.755283 -1.545085 
z
" id="m7b3fe0b423" style="stroke:#ff6232;stroke-linejoin:miter;"/>
    </defs>
    <g clip-path="url(#p18b816d332)">
     <use style="fill:#ff6232;stroke:#ff6232;stroke-linejoin:miter;" x="309.275676" xlink:href="#m7b3fe0b423" y="276.804324"/>
    </g>
   </g>
   <g id="line2d_29">
    <path clip-path="url(#p18b816d332)" d="M 393.72973 220.501622 
" style="fill:none;stroke:#e377c2;stroke-linecap:square;stroke-width:1.5;"/>
    <defs>
     <path d="M -5 5 
L 5 5 
L 5 -5 
L -5 -5 
z
" id="m00f2b1104f" style="stroke:#ff0000;stroke-linejoin:miter;"/>
    </defs>
    <g clip-path="url(#p18b816d332)">
     <use style="fill:#ff0000;stroke:#ff0000;stroke-linejoin:miter;" x="393.72973" xlink:href="#m00f2b1104f" y="220.501622"/>
    </g>
   </g>
   <g id="line2d_30">
    <path clip-path="url(#p18b816d332)" d="M 140.367568 276.804324 
" style="fill:none;stroke:#7f7f7f;stroke-linecap:square;stroke-width:1.5;"/>
    <defs>
     <path d="M 0 -5 
L -4.755283 -1.545085 
L -2.938926 4.045085 
L 2.938926 4.045085 
L 4.755283 -1.545085 
z
" id="mec9ad12223" style="stroke:#ff0000;stroke-linejoin:miter;"/>
    </defs>
    <g clip-path="url(#p18b816d332)">
     <use style="fill:#ff0000;stroke:#ff0000;stroke-linejoin:miter;" x="140.367568" xlink:href="#mec9ad12223" y="276.804324"/>
    </g>
   </g>
   <g id="line2d_31">
    <defs>
     <path d="M 0 2.5 
C 0.663008 2.5 1.29895 2.236584 1.767767 1.767767 
C 2.236584 1.29895 2.5 0.663008 2.5 0 
C 2.5 -0.663008 2.236584 -1.29895 1.767767 -1.767767 
C 1.29895 -2.236584 0.663008 -2.5 0 -2.5 
C -0.663008 -2.5 -1.29895 -2.236584 -1.767767 -1.767767 
C -2.236584 -1.29895 -2.5 -0.663008 -2.5 0 
C -2.5 0.663008 -2.236584 1.29895 -1.767767 1.767767 
C -1.29895 2.236584 -0.663008 2.5 0 2.5 
z
" id="mb1c776b3c4" style="stroke:#000000;"/>
    </defs>
    <g clip-path="url(#p18b816d332)">
     <use style="stroke:#000000;" x="196.67027" xlink:href="#mb1c776b3c4" y="389.40973"/>
     <use style="stroke:#000000;" x="196.67027" xlink:href="#mb1c776b3c4" y="333.107027"/>
     <use style="stroke:#000000;" x="252.972973" xlink:href="#mb1c776b3c4" y="389.40973"/>
     <use style="stroke:#000000;" x="252.972973" xlink:href="#mb1c776b3c4" y="333.107027"/>
     <use style="stroke:#000000;" x="309.275676" xlink:href="#mb1c776b3c4" y="389.40973"/>
     <use style="stroke:#000000;" x="309.275676" xlink:href="#mb1c776b3c4" y="333.107027"/>
     <use style="stroke:#000000;" x="365.578378" xlink:href="#mb1c776b3c4" y="389.40973"/>
     <use style="stroke:#000000;" x="365.578378" xlink:href="#mb1c776b3c4" y="333.107027"/>
     <use style="stroke:#000000;" x="421.881081" xlink:href="#mb1c776b3c4" y="389.40973"/>
     <use style="stroke:#000000;" x="421.881081" xlink:href="#mb1c776b3c4" y="333.107027"/>
     <use style="stroke:#000000;" x="196.67027" xlink:href="#mb1c776b3c4" y="220.501622"/>
     <use style="stroke:#000000;" x="196.67027" xlink:href="#mb1c776b3c4" y="164.198919"/>
     <use style="stroke:#000000;" x="252.972973" xlink:href="#mb1c776b3c4" y="220.501622"/>
     <use style="stroke:#000000;" x="252.972973" xlink:href="#mb1c776b3c4" y="164.198919"/>
     <use style="stroke:#000000;" x="309.275676" xlink:href="#mb1c776b3c4" y="220.501622"/>
     <use style="stroke:#000000;" x="309.275676" xlink:href="#mb1c776b3c4" y="164.198919"/>
     <use style="stroke:#000000;" x="365.578378" xlink:href="#mb1c776b3c4" y="220.501622"/>
     <use style="stroke:#000000;" x="365.578378" xlink:href="#mb1c776b3c4" y="164.198919"/>
     <use style="stroke:#000000;" x="421.881081" xlink:href="#mb1c776b3c4" y="220.501622"/>
     <use style="stroke:#000000;" x="421.881081" xlink:href="#mb1c776b3c4" y="164.198919"/>
    </g>
   </g>
   <g id="line2d_32">
    <path clip-path="url(#p18b816d332)" d="M 212.354595 389.40973 
L 211.504775 384.317038 
L 209.047406 379.776218 
L 205.248783 376.279339 
L 200.520544 374.205342 
L 195.375069 373.778975 
L 190.369949 375.046444 
L 186.047566 377.870397 
L 182.876319 381.944816 
L 181.19986 386.828175 
L 181.19986 391.991285 
L 182.876319 396.874643 
L 186.047566 400.949062 
L 190.369949 403.773016 
L 195.375069 405.040484 
L 200.520544 404.614118 
L 205.248783 402.54012 
L 209.047406 399.043241 
L 211.504775 394.502422 
L 212.354595 389.40973 
" style="fill:none;stroke:#000000;stroke-dasharray:5.55,2.4;stroke-dashoffset:0;stroke-width:1.5;"/>
   </g>
   <g id="line2d_33">
    <path clip-path="url(#p18b816d332)" d="M 201.094054 389.40973 
L 200.854361 387.973329 
L 200.161257 386.692585 
L 199.089851 385.706286 
L 197.756245 385.121313 
L 196.304957 385.001055 
L 194.893257 385.358547 
L 193.674123 386.155046 
L 192.779669 387.304241 
L 192.306821 388.681599 
L 192.306821 390.137861 
L 192.779669 391.515218 
L 193.674123 392.664413 
L 194.893257 393.460913 
L 196.304957 393.818404 
L 197.756245 393.698147 
L 199.089851 393.113173 
L 200.161257 392.126874 
L 200.854361 390.84613 
L 201.094054 389.40973 
" style="fill:none;stroke:#ff0000;stroke-linecap:square;stroke-width:1.5;"/>
   </g>
   <g id="line2d_34">
    <path clip-path="url(#p18b816d332)" d="M 212.354595 333.107027 
L 211.504775 328.014335 
L 209.047406 323.473516 
L 205.248783 319.976636 
L 200.520544 317.902639 
L 195.375069 317.476273 
L 190.369949 318.743741 
L 186.047566 321.567695 
L 182.876319 325.642114 
L 181.19986 330.525472 
L 181.19986 335.688582 
L 182.876319 340.57194 
L 186.047566 344.646359 
L 190.369949 347.470313 
L 195.375069 348.737781 
L 200.520544 348.311415 
L 205.248783 346.237418 
L 209.047406 342.740538 
L 211.504775 338.199719 
L 212.354595 333.107027 
" style="fill:none;stroke:#000000;stroke-dasharray:5.55,2.4;stroke-dashoffset:0;stroke-width:1.5;"/>
   </g>
   <g id="line2d_35">
    <path clip-path="url(#p18b816d332)" d="M 201.094054 333.107027 
L 200.854361 331.670627 
L 200.161257 330.389883 
L 199.089851 329.403584 
L 197.756245 328.81861 
L 196.304957 328.698353 
L 194.893257 329.055844 
L 193.674123 329.852344 
L 192.779669 331.001539 
L 192.306821 332.378896 
L 192.306821 333.835158 
L 192.779669 335.212515 
L 193.674123 336.361711 
L 194.893257 337.15821 
L 196.304957 337.515701 
L 197.756245 337.395444 
L 199.089851 336.810471 
L 200.161257 335.824171 
L 200.854361 334.543427 
L 201.094054 333.107027 
" style="fill:none;stroke:#ff0000;stroke-linecap:square;stroke-width:1.5;"/>
   </g>
   <g id="line2d_36">
    <path clip-path="url(#p18b816d332)" d="M 268.657297 389.40973 
L 267.807477 384.317038 
L 265.350109 379.776218 
L 261.551485 376.279339 
L 256.823247 374.205342 
L 251.677772 373.778975 
L 246.672652 375.046444 
L 242.350269 377.870397 
L 239.179021 381.944816 
L 237.502562 386.828175 
L 237.502562 391.991285 
L 239.179021 396.874643 
L 242.350269 400.949062 
L 246.672652 403.773016 
L 251.677772 405.040484 
L 256.823247 404.614118 
L 261.551485 402.54012 
L 265.350109 399.043241 
L 267.807477 394.502422 
L 268.657297 389.40973 
" style="fill:none;stroke:#000000;stroke-dasharray:5.55,2.4;stroke-dashoffset:0;stroke-width:1.5;"/>
   </g>
   <g id="line2d_37">
    <path clip-path="url(#p18b816d332)" d="M 257.396757 389.40973 
L 257.157064 387.973329 
L 256.46396 386.692585 
L 255.392553 385.706286 
L 254.058948 385.121313 
L 252.60766 385.001055 
L 251.195959 385.358547 
L 249.976826 386.155046 
L 249.082371 387.304241 
L 248.609524 388.681599 
L 248.609524 390.137861 
L 249.082371 391.515218 
L 249.976826 392.664413 
L 251.195959 393.460913 
L 252.60766 393.818404 
L 254.058948 393.698147 
L 255.392553 393.113173 
L 256.46396 392.126874 
L 257.157064 390.84613 
L 257.396757 389.40973 
" style="fill:none;stroke:#ff0000;stroke-linecap:square;stroke-width:1.5;"/>
   </g>
   <g id="line2d_38">
    <path clip-path="url(#p18b816d332)" d="M 268.657297 333.107027 
L 267.807477 328.014335 
L 265.350109 323.473516 
L 261.551485 319.976636 
L 256.823247 317.902639 
L 251.677772 317.476273 
L 246.672652 318.743741 
L 242.350269 321.567695 
L 239.179021 325.642114 
L 237.502562 330.525472 
L 237.502562 335.688582 
L 239.179021 340.57194 
L 242.350269 344.646359 
L 246.672652 347.470313 
L 251.677772 348.737781 
L 256.823247 348.311415 
L 261.551485 346.237418 
L 265.350109 342.740538 
L 267.807477 338.199719 
L 268.657297 333.107027 
" style="fill:none;stroke:#000000;stroke-dasharray:5.55,2.4;stroke-dashoffset:0;stroke-width:1.5;"/>
   </g>
   <g id="line2d_39">
    <path clip-path="url(#p18b816d332)" d="M 257.396757 333.107027 
L 257.157064 331.670627 
L 256.46396 330.389883 
L 255.392553 329.403584 
L 254.058948 328.81861 
L 252.60766 328.698353 
L 251.195959 329.055844 
L 249.976826 329.852344 
L 249.082371 331.001539 
L 248.609524 332.378896 
L 248.609524 333.835158 
L 249.082371 335.212515 
L 249.976826 336.361711 
L 251.195959 337.15821 
L 252.60766 337.515701 
L 254.058948 337.395444 
L 255.392553 336.810471 
L 256.46396 335.824171 
L 257.157064 334.543427 
L 257.396757 333.107027 
" style="fill:none;stroke:#ff0000;stroke-linecap:square;stroke-width:1.5;"/>
   </g>
   <g id="line2d_40">
    <path clip-path="url(#p18b816d332)" d="M 324.96 389.40973 
L 324.11018 384.317038 
L 321.652811 379.776218 
L 317.854188 376.279339 
L 313.12595 374.205342 
L 307.980474 373.778975 
L 302.975354 375.046444 
L 298.652972 377.870397 
L 295.481724 381.944816 
L 293.805265 386.828175 
L 293.805265 391.991285 
L 295.481724 396.874643 
L 298.652972 400.949062 
L 302.975354 403.773016 
L 307.980474 405.040484 
L 313.12595 404.614118 
L 317.854188 402.54012 
L 321.652811 399.043241 
L 324.11018 394.502422 
L 324.96 389.40973 
" style="fill:none;stroke:#000000;stroke-dasharray:5.55,2.4;stroke-dashoffset:0;stroke-width:1.5;"/>
   </g>
   <g id="line2d_41">
    <path clip-path="url(#p18b816d332)" d="M 313.699459 389.40973 
L 313.459767 387.973329 
L 312.766663 386.692585 
L 311.695256 385.706286 
L 310.36165 385.121313 
L 308.910363 385.001055 
L 307.498662 385.358547 
L 306.279528 386.155046 
L 305.385074 387.304241 
L 304.912227 388.681599 
L 304.912227 390.137861 
L 305.385074 391.515218 
L 306.279528 392.664413 
L 307.498662 393.460913 
L 308.910363 393.818404 
L 310.36165 393.698147 
L 311.695256 393.113173 
L 312.766663 392.126874 
L 313.459767 390.84613 
L 313.699459 389.40973 
" style="fill:none;stroke:#ff0000;stroke-linecap:square;stroke-width:1.5;"/>
   </g>
   <g id="line2d_42">
    <path clip-path="url(#p18b816d332)" d="M 324.96 333.107027 
L 324.11018 328.014335 
L 321.652811 323.473516 
L 317.854188 319.976636 
L 313.12595 317.902639 
L 307.980474 317.476273 
L 302.975354 318.743741 
L 298.652972 321.567695 
L 295.481724 325.642114 
L 293.805265 330.525472 
L 293.805265 335.688582 
L 295.481724 340.57194 
L 298.652972 344.646359 
L 302.975354 347.470313 
L 307.980474 348.737781 
L 313.12595 348.311415 
L 317.854188 346.237418 
L 321.652811 342.740538 
L 324.11018 338.199719 
L 324.96 333.107027 
" style="fill:none;stroke:#000000;stroke-dasharray:5.55,2.4;stroke-dashoffset:0;stroke-width:1.5;"/>
   </g>
   <g id="line2d_43">
    <path clip-path="url(#p18b816d332)" d="M 313.699459 333.107027 
L 313.459767 331.670627 
L 312.766663 330.389883 
L 311.695256 329.403584 
L 310.36165 328.81861 
L 308.910363 328.698353 
L 307.498662 329.055844 
L 306.279528 329.852344 
L 305.385074 331.001539 
L 304.912227 332.378896 
L 304.912227 333.835158 
L 305.385074 335.212515 
L 306.279528 336.361711 
L 307.498662 337.15821 
L 308.910363 337.515701 
L 310.36165 337.395444 
L 311.695256 336.810471 
L 312.766663 335.824171 
L 313.459767 334.543427 
L 313.699459 333.107027 
" style="fill:none;stroke:#ff0000;stroke-linecap:square;stroke-width:1.5;"/>
   </g>
   <g id="line2d_44">
    <path clip-path="url(#p18b816d332)" d="M 381.262703 389.40973 
L 380.412883 384.317038 
L 377.955514 379.776218 
L 374.156891 376.279339 
L 369.428652 374.205342 
L 364.283177 373.778975 
L 359.278057 375.046444 
L 354.955675 377.870397 
L 351.784427 381.944816 
L 350.107968 386.828175 
L 350.107968 391.991285 
L 351.784427 396.874643 
L 354.955675 400.949062 
L 359.278057 403.773016 
L 364.283177 405.040484 
L 369.428652 404.614118 
L 374.156891 402.54012 
L 377.955514 399.043241 
L 380.412883 394.502422 
L 381.262703 389.40973 
" style="fill:none;stroke:#000000;stroke-dasharray:5.55,2.4;stroke-dashoffset:0;stroke-width:1.5;"/>
   </g>
   <g id="line2d_45">
    <path clip-path="url(#p18b816d332)" d="M 370.002162 389.40973 
L 369.762469 387.973329 
L 369.069365 386.692585 
L 367.997959 385.706286 
L 366.664353 385.121313 
L 365.213065 385.001055 
L 363.801365 385.358547 
L 362.582231 386.155046 
L 361.687777 387.304241 
L 361.214929 388.681599 
L 361.214929 390.137861 
L 361.687777 391.515218 
L 362.582231 392.664413 
L 363.801365 393.460913 
L 365.213065 393.818404 
L 366.664353 393.698147 
L 367.997959 393.113173 
L 369.069365 392.126874 
L 369.762469 390.84613 
L 370.002162 389.40973 
" style="fill:none;stroke:#ff0000;stroke-linecap:square;stroke-width:1.5;"/>
   </g>
   <g id="line2d_46">
    <path clip-path="url(#p18b816d332)" d="M 381.262703 333.107027 
L 380.412883 328.014335 
L 377.955514 323.473516 
L 374.156891 319.976636 
L 369.428652 317.902639 
L 364.283177 317.476273 
L 359.278057 318.743741 
L 354.955675 321.567695 
L 351.784427 325.642114 
L 350.107968 330.525472 
L 350.107968 335.688582 
L 351.784427 340.57194 
L 354.955675 344.646359 
L 359.278057 347.470313 
L 364.283177 348.737781 
L 369.428652 348.311415 
L 374.156891 346.237418 
L 377.955514 342.740538 
L 380.412883 338.199719 
L 381.262703 333.107027 
" style="fill:none;stroke:#000000;stroke-dasharray:5.55,2.4;stroke-dashoffset:0;stroke-width:1.5;"/>
   </g>
   <g id="line2d_47">
    <path clip-path="url(#p18b816d332)" d="M 370.002162 333.107027 
L 369.762469 331.670627 
L 369.069365 330.389883 
L 367.997959 329.403584 
L 366.664353 328.81861 
L 365.213065 328.698353 
L 363.801365 329.055844 
L 362.582231 329.852344 
L 361.687777 331.001539 
L 361.214929 332.378896 
L 361.214929 333.835158 
L 361.687777 335.212515 
L 362.582231 336.361711 
L 363.801365 337.15821 
L 365.213065 337.515701 
L 366.664353 337.395444 
L 367.997959 336.810471 
L 369.069365 335.824171 
L 369.762469 334.543427 
L 370.002162 333.107027 
" style="fill:none;stroke:#ff0000;stroke-linecap:square;stroke-width:1.5;"/>
   </g>
   <g id="line2d_48">
    <path clip-path="url(#p18b816d332)" d="M 437.565405 389.40973 
L 436.715585 384.317038 
L 434.258217 379.776218 
L 430.459593 376.279339 
L 425.731355 374.205342 
L 420.58588 373.778975 
L 415.58076 375.046444 
L 411.258377 377.870397 
L 408.08713 381.944816 
L 406.41067 386.828175 
L 406.41067 391.991285 
L 408.08713 396.874643 
L 411.258377 400.949062 
L 415.58076 403.773016 
L 420.58588 405.040484 
L 425.731355 404.614118 
L 430.459593 402.54012 
L 434.258217 399.043241 
L 436.715585 394.502422 
L 437.565405 389.40973 
" style="fill:none;stroke:#000000;stroke-dasharray:5.55,2.4;stroke-dashoffset:0;stroke-width:1.5;"/>
   </g>
   <g id="line2d_49">
    <path clip-path="url(#p18b816d332)" d="M 426.304865 389.40973 
L 426.065172 387.973329 
L 425.372068 386.692585 
L 424.300661 385.706286 
L 422.967056 385.121313 
L 421.515768 385.001055 
L 420.104067 385.358547 
L 418.884934 386.155046 
L 417.990479 387.304241 
L 417.517632 388.681599 
L 417.517632 390.137861 
L 417.990479 391.515218 
L 418.884934 392.664413 
L 420.104067 393.460913 
L 421.515768 393.818404 
L 422.967056 393.698147 
L 424.300661 393.113173 
L 425.372068 392.126874 
L 426.065172 390.84613 
L 426.304865 389.40973 
" style="fill:none;stroke:#ff0000;stroke-linecap:square;stroke-width:1.5;"/>
   </g>
   <g id="line2d_50">
    <path clip-path="url(#p18b816d332)" d="M 437.565405 333.107027 
L 436.715585 328.014335 
L 434.258217 323.473516 
L 430.459593 319.976636 
L 425.731355 317.902639 
L 420.58588 317.476273 
L 415.58076 318.743741 
L 411.258377 321.567695 
L 408.08713 325.642114 
L 406.41067 330.525472 
L 406.41067 335.688582 
L 408.08713 340.57194 
L 411.258377 344.646359 
L 415.58076 347.470313 
L 420.58588 348.737781 
L 425.731355 348.311415 
L 430.459593 346.237418 
L 434.258217 342.740538 
L 436.715585 338.199719 
L 437.565405 333.107027 
" style="fill:none;stroke:#000000;stroke-dasharray:5.55,2.4;stroke-dashoffset:0;stroke-width:1.5;"/>
   </g>
   <g id="line2d_51">
    <path clip-path="url(#p18b816d332)" d="M 426.304865 333.107027 
L 426.065172 331.670627 
L 425.372068 330.389883 
L 424.300661 329.403584 
L 422.967056 328.81861 
L 421.515768 328.698353 
L 420.104067 329.055844 
L 418.884934 329.852344 
L 417.990479 331.001539 
L 417.517632 332.378896 
L 417.517632 333.835158 
L 417.990479 335.212515 
L 418.884934 336.361711 
L 420.104067 337.15821 
L 421.515768 337.515701 
L 422.967056 337.395444 
L 424.300661 336.810471 
L 425.372068 335.824171 
L 426.065172 334.543427 
L 426.304865 333.107027 
" style="fill:none;stroke:#ff0000;stroke-linecap:square;stroke-width:1.5;"/>
   </g>
   <g id="line2d_52">
    <path clip-path="url(#p18b816d332)" d="M 212.354595 220.501622 
L 211.504775 215.40893 
L 209.047406 210.86811 
L 205.248783 207.371231 
L 200.520544 205.297233 
L 195.375069 204.870867 
L 190.369949 206.138336 
L 186.047566 208.962289 
L 182.876319 213.036708 
L 181.19986 217.920067 
L 181.19986 223.083177 
L 182.876319 227.966535 
L 186.047566 232.040954 
L 190.369949 234.864907 
L 195.375069 236.132376 
L 200.520544 235.70601 
L 205.248783 233.632012 
L 209.047406 230.135133 
L 211.504775 225.594313 
L 212.354595 220.501622 
" style="fill:none;stroke:#000000;stroke-dasharray:5.55,2.4;stroke-dashoffset:0;stroke-width:1.5;"/>
   </g>
   <g id="line2d_53">
    <path clip-path="url(#p18b816d332)" d="M 201.094054 220.501622 
L 200.854361 219.065221 
L 200.161257 217.784477 
L 199.089851 216.798178 
L 197.756245 216.213204 
L 196.304957 216.092947 
L 194.893257 216.450438 
L 193.674123 217.246938 
L 192.779669 218.396133 
L 192.306821 219.773491 
L 192.306821 221.229753 
L 192.779669 222.60711 
L 193.674123 223.756305 
L 194.893257 224.552805 
L 196.304957 224.910296 
L 197.756245 224.790039 
L 199.089851 224.205065 
L 200.161257 223.218766 
L 200.854361 221.938022 
L 201.094054 220.501622 
" style="fill:none;stroke:#ff0000;stroke-linecap:square;stroke-width:1.5;"/>
   </g>
   <g id="line2d_54">
    <path clip-path="url(#p18b816d332)" d="M 212.354595 164.198919 
L 211.504775 159.106227 
L 209.047406 154.565408 
L 205.248783 151.068528 
L 200.520544 148.994531 
L 195.375069 148.568165 
L 190.369949 149.835633 
L 186.047566 152.659586 
L 182.876319 156.734006 
L 181.19986 161.617364 
L 181.19986 166.780474 
L 182.876319 171.663832 
L 186.047566 175.738251 
L 190.369949 178.562205 
L 195.375069 179.829673 
L 200.520544 179.403307 
L 205.248783 177.329309 
L 209.047406 173.83243 
L 211.504775 169.291611 
L 212.354595 164.198919 
" style="fill:none;stroke:#000000;stroke-dasharray:5.55,2.4;stroke-dashoffset:0;stroke-width:1.5;"/>
   </g>
   <g id="line2d_55">
    <path clip-path="url(#p18b816d332)" d="M 201.094054 164.198919 
L 200.854361 162.762519 
L 200.161257 161.481775 
L 199.089851 160.495475 
L 197.756245 159.910502 
L 196.304957 159.790245 
L 194.893257 160.147736 
L 193.674123 160.944235 
L 192.779669 162.093431 
L 192.306821 163.470788 
L 192.306821 164.92705 
L 192.779669 166.304407 
L 193.674123 167.453602 
L 194.893257 168.250102 
L 196.304957 168.607593 
L 197.756245 168.487336 
L 199.089851 167.902362 
L 200.161257 166.916063 
L 200.854361 165.635319 
L 201.094054 164.198919 
" style="fill:none;stroke:#ff0000;stroke-linecap:square;stroke-width:1.5;"/>
   </g>
   <g id="line2d_56">
    <path clip-path="url(#p18b816d332)" d="M 268.657297 220.501622 
L 267.807477 215.40893 
L 265.350109 210.86811 
L 261.551485 207.371231 
L 256.823247 205.297233 
L 251.677772 204.870867 
L 246.672652 206.138336 
L 242.350269 208.962289 
L 239.179021 213.036708 
L 237.502562 217.920067 
L 237.502562 223.083177 
L 239.179021 227.966535 
L 242.350269 232.040954 
L 246.672652 234.864907 
L 251.677772 236.132376 
L 256.823247 235.70601 
L 261.551485 233.632012 
L 265.350109 230.135133 
L 267.807477 225.594313 
L 268.657297 220.501622 
" style="fill:none;stroke:#000000;stroke-dasharray:5.55,2.4;stroke-dashoffset:0;stroke-width:1.5;"/>
   </g>
   <g id="line2d_57">
    <path clip-path="url(#p18b816d332)" d="M 257.396757 220.501622 
L 257.157064 219.065221 
L 256.46396 217.784477 
L 255.392553 216.798178 
L 254.058948 216.213204 
L 252.60766 216.092947 
L 251.195959 216.450438 
L 249.976826 217.246938 
L 249.082371 218.396133 
L 248.609524 219.773491 
L 248.609524 221.229753 
L 249.082371 222.60711 
L 249.976826 223.756305 
L 251.195959 224.552805 
L 252.60766 224.910296 
L 254.058948 224.790039 
L 255.392553 224.205065 
L 256.46396 223.218766 
L 257.157064 221.938022 
L 257.396757 220.501622 
" style="fill:none;stroke:#ff0000;stroke-linecap:square;stroke-width:1.5;"/>
   </g>
   <g id="line2d_58">
    <path clip-path="url(#p18b816d332)" d="M 268.657297 164.198919 
L 267.807477 159.106227 
L 265.350109 154.565408 
L 261.551485 151.068528 
L 256.823247 148.994531 
L 251.677772 148.568165 
L 246.672652 149.835633 
L 242.350269 152.659586 
L 239.179021 156.734006 
L 237.502562 161.617364 
L 237.502562 166.780474 
L 239.179021 171.663832 
L 242.350269 175.738251 
L 246.672652 178.562205 
L 251.677772 179.829673 
L 256.823247 179.403307 
L 261.551485 177.329309 
L 265.350109 173.83243 
L 267.807477 169.291611 
L 268.657297 164.198919 
" style="fill:none;stroke:#000000;stroke-dasharray:5.55,2.4;stroke-dashoffset:0;stroke-width:1.5;"/>
   </g>
   <g id="line2d_59">
    <path clip-path="url(#p18b816d332)" d="M 257.396757 164.198919 
L 257.157064 162.762519 
L 256.46396 161.481775 
L 255.392553 160.495475 
L 254.058948 159.910502 
L 252.60766 159.790245 
L 251.195959 160.147736 
L 249.976826 160.944235 
L 249.082371 162.093431 
L 248.609524 163.470788 
L 248.609524 164.92705 
L 249.082371 166.304407 
L 249.976826 167.453602 
L 251.195959 168.250102 
L 252.60766 168.607593 
L 254.058948 168.487336 
L 255.392553 167.902362 
L 256.46396 166.916063 
L 257.157064 165.635319 
L 257.396757 164.198919 
" style="fill:none;stroke:#ff0000;stroke-linecap:square;stroke-width:1.5;"/>
   </g>
   <g id="line2d_60">
    <path clip-path="url(#p18b816d332)" d="M 324.96 220.501622 
L 324.11018 215.40893 
L 321.652811 210.86811 
L 317.854188 207.371231 
L 313.12595 205.297233 
L 307.980474 204.870867 
L 302.975354 206.138336 
L 298.652972 208.962289 
L 295.481724 213.036708 
L 293.805265 217.920067 
L 293.805265 223.083177 
L 295.481724 227.966535 
L 298.652972 232.040954 
L 302.975354 234.864907 
L 307.980474 236.132376 
L 313.12595 235.70601 
L 317.854188 233.632012 
L 321.652811 230.135133 
L 324.11018 225.594313 
L 324.96 220.501622 
" style="fill:none;stroke:#000000;stroke-dasharray:5.55,2.4;stroke-dashoffset:0;stroke-width:1.5;"/>
   </g>
   <g id="line2d_61">
    <path clip-path="url(#p18b816d332)" d="M 313.699459 220.501622 
L 313.459767 219.065221 
L 312.766663 217.784477 
L 311.695256 216.798178 
L 310.36165 216.213204 
L 308.910363 216.092947 
L 307.498662 216.450438 
L 306.279528 217.246938 
L 305.385074 218.396133 
L 304.912227 219.773491 
L 304.912227 221.229753 
L 305.385074 222.60711 
L 306.279528 223.756305 
L 307.498662 224.552805 
L 308.910363 224.910296 
L 310.36165 224.790039 
L 311.695256 224.205065 
L 312.766663 223.218766 
L 313.459767 221.938022 
L 313.699459 220.501622 
" style="fill:none;stroke:#ff0000;stroke-linecap:square;stroke-width:1.5;"/>
   </g>
   <g id="line2d_62">
    <path clip-path="url(#p18b816d332)" d="M 324.96 164.198919 
L 324.11018 159.106227 
L 321.652811 154.565408 
L 317.854188 151.068528 
L 313.12595 148.994531 
L 307.980474 148.568165 
L 302.975354 149.835633 
L 298.652972 152.659586 
L 295.481724 156.734006 
L 293.805265 161.617364 
L 293.805265 166.780474 
L 295.481724 171.663832 
L 298.652972 175.738251 
L 302.975354 178.562205 
L 307.980474 179.829673 
L 313.12595 179.403307 
L 317.854188 177.329309 
L 321.652811 173.83243 
L 324.11018 169.291611 
L 324.96 164.198919 
" style="fill:none;stroke:#000000;stroke-dasharray:5.55,2.4;stroke-dashoffset:0;stroke-width:1.5;"/>
   </g>
   <g id="line2d_63">
    <path clip-path="url(#p18b816d332)" d="M 313.699459 164.198919 
L 313.459767 162.762519 
L 312.766663 161.481775 
L 311.695256 160.495475 
L 310.36165 159.910502 
L 308.910363 159.790245 
L 307.498662 160.147736 
L 306.279528 160.944235 
L 305.385074 162.093431 
L 304.912227 163.470788 
L 304.912227 164.92705 
L 305.385074 166.304407 
L 306.279528 167.453602 
L 307.498662 168.250102 
L 308.910363 168.607593 
L 310.36165 168.487336 
L 311.695256 167.902362 
L 312.766663 166.916063 
L 313.459767 165.635319 
L 313.699459 164.198919 
" style="fill:none;stroke:#ff0000;stroke-linecap:square;stroke-width:1.5;"/>
   </g>
   <g id="line2d_64">
    <path clip-path="url(#p18b816d332)" d="M 381.262703 220.501622 
L 380.412883 215.40893 
L 377.955514 210.86811 
L 374.156891 207.371231 
L 369.428652 205.297233 
L 364.283177 204.870867 
L 359.278057 206.138336 
L 354.955675 208.962289 
L 351.784427 213.036708 
L 350.107968 217.920067 
L 350.107968 223.083177 
L 351.784427 227.966535 
L 354.955675 232.040954 
L 359.278057 234.864907 
L 364.283177 236.132376 
L 369.428652 235.70601 
L 374.156891 233.632012 
L 377.955514 230.135133 
L 380.412883 225.594313 
L 381.262703 220.501622 
" style="fill:none;stroke:#000000;stroke-dasharray:5.55,2.4;stroke-dashoffset:0;stroke-width:1.5;"/>
   </g>
   <g id="line2d_65">
    <path clip-path="url(#p18b816d332)" d="M 370.002162 220.501622 
L 369.762469 219.065221 
L 369.069365 217.784477 
L 367.997959 216.798178 
L 366.664353 216.213204 
L 365.213065 216.092947 
L 363.801365 216.450438 
L 362.582231 217.246938 
L 361.687777 218.396133 
L 361.214929 219.773491 
L 361.214929 221.229753 
L 361.687777 222.60711 
L 362.582231 223.756305 
L 363.801365 224.552805 
L 365.213065 224.910296 
L 366.664353 224.790039 
L 367.997959 224.205065 
L 369.069365 223.218766 
L 369.762469 221.938022 
L 370.002162 220.501622 
" style="fill:none;stroke:#ff0000;stroke-linecap:square;stroke-width:1.5;"/>
   </g>
   <g id="line2d_66">
    <path clip-path="url(#p18b816d332)" d="M 381.262703 164.198919 
L 380.412883 159.106227 
L 377.955514 154.565408 
L 374.156891 151.068528 
L 369.428652 148.994531 
L 364.283177 148.568165 
L 359.278057 149.835633 
L 354.955675 152.659586 
L 351.784427 156.734006 
L 350.107968 161.617364 
L 350.107968 166.780474 
L 351.784427 171.663832 
L 354.955675 175.738251 
L 359.278057 178.562205 
L 364.283177 179.829673 
L 369.428652 179.403307 
L 374.156891 177.329309 
L 377.955514 173.83243 
L 380.412883 169.291611 
L 381.262703 164.198919 
" style="fill:none;stroke:#000000;stroke-dasharray:5.55,2.4;stroke-dashoffset:0;stroke-width:1.5;"/>
   </g>
   <g id="line2d_67">
    <path clip-path="url(#p18b816d332)" d="M 370.002162 164.198919 
L 369.762469 162.762519 
L 369.069365 161.481775 
L 367.997959 160.495475 
L 366.664353 159.910502 
L 365.213065 159.790245 
L 363.801365 160.147736 
L 362.582231 160.944235 
L 361.687777 162.093431 
L 361.214929 163.470788 
L 361.214929 164.92705 
L 361.687777 166.304407 
L 362.582231 167.453602 
L 363.801365 168.250102 
L 365.213065 168.607593 
L 366.664353 168.487336 
L 367.997959 167.902362 
L 369.069365 166.916063 
L 369.762469 165.635319 
L 370.002162 164.198919 
" style="fill:none;stroke:#ff0000;stroke-linecap:square;stroke-width:1.5;"/>
   </g>
   <g id="line2d_68">
    <path clip-path="url(#p18b816d332)" d="M 437.565405 220.501622 
L 436.715585 215.40893 
L 434.258217 210.86811 
L 430.459593 207.371231 
L 425.731355 205.297233 
L 420.58588 204.870867 
L 415.58076 206.138336 
L 411.258377 208.962289 
L 408.08713 213.036708 
L 406.41067 217.920067 
L 406.41067 223.083177 
L 408.08713 227.966535 
L 411.258377 232.040954 
L 415.58076 234.864907 
L 420.58588 236.132376 
L 425.731355 235.70601 
L 430.459593 233.632012 
L 434.258217 230.135133 
L 436.715585 225.594313 
L 437.565405 220.501622 
" style="fill:none;stroke:#000000;stroke-dasharray:5.55,2.4;stroke-dashoffset:0;stroke-width:1.5;"/>
   </g>
   <g id="line2d_69">
    <path clip-path="url(#p18b816d332)" d="M 426.304865 220.501622 
L 426.065172 219.065221 
L 425.372068 217.784477 
L 424.300661 216.798178 
L 422.967056 216.213204 
L 421.515768 216.092947 
L 420.104067 216.450438 
L 418.884934 217.246938 
L 417.990479 218.396133 
L 417.517632 219.773491 
L 417.517632 221.229753 
L 417.990479 222.60711 
L 418.884934 223.756305 
L 420.104067 224.552805 
L 421.515768 224.910296 
L 422.967056 224.790039 
L 424.300661 224.205065 
L 425.372068 223.218766 
L 426.065172 221.938022 
L 426.304865 220.501622 
" style="fill:none;stroke:#ff0000;stroke-linecap:square;stroke-width:1.5;"/>
   </g>
   <g id="line2d_70">
    <path clip-path="url(#p18b816d332)" d="M 437.565405 164.198919 
L 436.715585 159.106227 
L 434.258217 154.565408 
L 430.459593 151.068528 
L 425.731355 148.994531 
L 420.58588 148.568165 
L 415.58076 149.835633 
L 411.258377 152.659586 
L 408.08713 156.734006 
L 406.41067 161.617364 
L 406.41067 166.780474 
L 408.08713 171.663832 
L 411.258377 175.738251 
L 415.58076 178.562205 
L 420.58588 179.829673 
L 425.731355 179.403307 
L 430.459593 177.329309 
L 434.258217 173.83243 
L 436.715585 169.291611 
L 437.565405 164.198919 
" style="fill:none;stroke:#000000;stroke-dasharray:5.55,2.4;stroke-dashoffset:0;stroke-width:1.5;"/>
   </g>
   <g id="line2d_71">
    <path clip-path="url(#p18b816d332)" d="M 426.304865 164.198919 
L 426.065172 162.762519 
L 425.372068 161.481775 
L 424.300661 160.495475 
L 422.967056 159.910502 
L 421.515768 159.790245 
L 420.104067 160.147736 
L 418.884934 160.944235 
L 417.990479 162.093431 
L 417.517632 163.470788 
L 417.517632 164.92705 
L 417.990479 166.304407 
L 418.884934 167.453602 
L 420.104067 168.250102 
L 421.515768 168.607593 
L 422.967056 168.487336 
L 424.300661 167.902362 
L 425.372068 166.916063 
L 426.065172 165.635319 
L 426.304865 164.198919 
" style="fill:none;stroke:#ff0000;stroke-linecap:square;stroke-width:1.5;"/>
   </g>
   <g id="line2d_72">
    <path clip-path="url(#p18b816d332)" d="M 92.108108 493.971892 
L 92.108108 87.788108 
" style="fill:none;stroke:#000000;stroke-linecap:square;stroke-width:4;"/>
   </g>
   <g id="line2d_73">
    <path clip-path="url(#p18b816d332)" d="M 92.108108 87.788108 
L 498.291892 87.788108 
" style="fill:none;stroke:#000000;stroke-linecap:square;stroke-width:4;"/>
   </g>
   <g id="line2d_74">
    <path clip-path="url(#p18b816d332)" d="M 498.291892 87.788108 
L 498.291892 493.971892 
" style="fill:none;stroke:#000000;stroke-linecap:square;stroke-width:4;"/>
   </g>
   <g id="line2d_75">
    <path clip-path="url(#p18b816d332)" d="M 498.291892 493.971892 
L 92.108108 493.971892 
" style="fill:none;stroke:#000000;stroke-linecap:square;stroke-width:4;"/>
   </g>
   <g id="line2d_76">
    <path clip-path="url(#p18b816d332)" d="M 140.367568 389.40973 
L 141.091459 389.40973 
L 142.539243 389.208649 
L 144.228324 388.605405 
L 145.957622 387.519568 
L 151.708541 382.894703 
L 177.889297 362.344216 
L 179.940324 361.459459 
L 181.870703 361.097514 
L 183.760865 361.177946 
L 185.088 361.379027 
L 186.937946 361.338811 
L 190.356324 360.936649 
L 193.895351 361.419243 
L 195.463784 361.379027 
L 202.702703 360.333405 
L 207.72973 359.368216 
L 214.807784 358.000865 
L 233.789838 354.300973 
L 235.760432 354.461838 
L 239.420108 355.507459 
L 241.471135 355.748757 
L 243.44173 355.748757 
L 246.940541 356.03027 
L 249.031784 356.191135 
L 252.128432 356.070486 
L 256.150054 356.03027 
L 260.131459 355.668324 
L 261.981405 355.427027 
L 264.836757 354.783568 
L 266.525838 354.582486 
L 271.834378 354.904216 
L 273.523459 355.18573 
L 275.453838 355.909622 
L 277.303784 357.156324 
L 278.470054 358.403027 
L 279.797189 359.64973 
L 281.084108 360.454054 
L 282.773189 361.057297 
L 284.542703 361.258378 
L 285.95027 361.13773 
L 287.76 360.856216 
L 292.063135 360.775784 
L 295.320649 359.971459 
L 297.291243 359.730162 
L 303.162811 360.172541 
L 307.144216 359.569297 
L 309.235459 359.328 
L 311.326703 358.966054 
L 313.176649 358.523676 
L 316.876541 358.000865 
L 320.697081 356.915027 
L 322.908973 356.794378 
L 325.643676 357.116108 
L 332.601081 358.16173 
L 335.174919 358.403027 
L 336.019459 358.362811 
L 336.743351 358.121514 
L 337.909622 357.478054 
L 339.156324 356.311784 
L 340.041081 355.024865 
L 340.805189 353.335784 
L 341.328 351.646703 
L 342.132324 349.877189 
L 343.258378 348.348973 
L 344.987676 346.700108 
L 345.993081 345.574054 
L 348.888649 341.069838 
L 349.733189 339.461189 
L 350.336432 337.611243 
L 350.819027 334.434162 
L 350.939676 333.107027 
L 350.899459 331.216865 
L 350.617946 329.970162 
L 349.853838 328.361514 
L 348.486486 326.431135 
L 347.440865 324.581189 
L 346.877838 322.691027 
L 346.716973 321.042162 
L 346.998486 319.111784 
L 347.682162 317.261838 
L 349.974486 312.797838 
L 352.467892 305.679568 
L 353.513514 303.990486 
L 354.800432 302.663351 
L 356.569946 301.336216 
L 358.661189 300.491676 
L 360.269838 300.12973 
L 362.521946 300.009081 
L 364.693622 300.411243 
L 366.101189 300.97427 
L 367.347892 301.899243 
L 368.43373 303.065514 
L 370.404324 305.920865 
L 371.610811 306.92627 
L 373.179243 307.730595 
L 374.908541 308.172973 
L 376.678054 308.213189 
L 381.624649 307.368649 
L 383.555027 307.650162 
L 386.812541 308.736 
L 388.340757 308.896865 
L 389.868973 308.776216 
L 391.59827 308.213189 
L 393.126486 307.328432 
L 397.228541 303.507892 
L 398.394811 302.100324 
L 400.566486 299.124324 
L 403.059892 296.590703 
L 405.593514 294.620108 
L 405.995676 294.499459 
L 407.12173 294.338595 
L 410.379243 294.539676 
L 412.108541 294.217946 
L 413.757405 293.494054 
L 415.004108 292.609297 
L 416.371459 291.081081 
L 417.175784 289.512649 
L 418.38227 286.013838 
L 419.146378 284.163892 
L 419.669189 282.434595 
L 420.312649 278.332541 
L 420.553946 276.442378 
L 420.594162 274.310919 
L 420.312649 270.611027 
L 419.990919 268.519784 
L 419.106162 264.900324 
L 418.020324 261.683027 
L 417.577946 259.873297 
L 417.055135 256.656 
L 416.089946 252.795243 
L 414.843243 248.974703 
L 414.159568 247.285622 
L 413.315027 245.958486 
L 410.137946 242.017297 
L 406.156541 235.984865 
L 404.346811 232.968649 
L 402.496865 229.349189 
L 401.129514 226.131892 
L 399.963243 222.512432 
L 399.118703 218.852757 
L 398.274162 214.871351 
L 397.188324 210.688865 
L 394.051459 194.079568 
L 394.051459 194.079568 
" style="fill:none;stroke:#8000ff;stroke-linecap:square;stroke-width:1.5;"/>
   </g>
   <g id="line2d_77">
    <path clip-path="url(#p18b816d332)" d="M 450.032432 192.35027 
L 450.233514 192.390486 
L 450.474811 192.873081 
L 450.595459 193.596973 
L 450.555243 194.803459 
L 450.072649 196.412108 
L 449.187892 198.101189 
L 447.860757 199.589189 
L 446.332541 200.715243 
L 441.506595 203.610811 
L 439.656649 204.173838 
L 436.037189 204.576 
L 432.538378 204.736865 
L 430.648216 204.656432 
L 428.758054 204.374919 
L 423.771243 203.289081 
L 420.352865 203.088 
L 418.784432 203.168432 
L 416.652973 203.40973 
L 414.843243 203.771676 
L 413.07373 204.294486 
L 409.695568 205.74227 
L 406.719568 207.471568 
L 403.944649 209.522595 
L 401.209946 212.056216 
L 398.837189 214.589838 
L 395.700324 218.169081 
L 394.453622 219.214703 
L 393.166703 220.501622 
L 392.121081 222.029838 
L 390.271135 225.08627 
L 388.380973 227.700324 
L 384.962595 232.164324 
L 382.509405 235.019676 
L 380.257297 237.392432 
L 378.729081 238.880432 
L 374.425946 242.499892 
L 373.460757 243.706378 
L 372.656432 245.315027 
L 371.892324 248.291027 
L 371.248865 250.140973 
L 369.077189 255.087568 
L 368.272865 258.988541 
L 367.347892 262.648216 
L 365.578378 269.123027 
L 363.366486 276.683676 
L 363.205622 278.453189 
L 363.567568 280.464 
L 364.130595 281.911784 
L 366.060973 285.410595 
L 366.825081 287.139892 
L 367.709838 288.627892 
L 371.731459 293.614703 
L 373.581405 296.751568 
L 375.270486 300.330811 
L 376.356324 302.904649 
L 377.683459 305.518703 
L 378.769297 306.966486 
L 381.262703 309.741405 
L 382.428973 311.309838 
L 383.273514 312.717405 
L 384.761514 315.85427 
L 385.927784 318.910703 
L 386.973405 322.530162 
L 387.697297 325.988757 
L 388.099459 329.487568 
L 388.179892 333.267892 
L 388.059243 334.916757 
L 387.737514 336.806919 
L 387.013622 338.616649 
L 385.927784 340.185081 
L 384.399568 341.874162 
L 383.152865 342.839351 
L 381.584432 343.844757 
L 380.418162 344.850162 
L 379.372541 346.297946 
L 378.688865 347.946811 
L 378.286703 350.038054 
L 377.723676 351.888 
L 376.959568 353.335784 
L 375.190054 356.271568 
L 374.023784 359.529081 
L 372.535784 362.62573 
L 371.490162 363.952865 
L 369.801081 365.400649 
L 358.218811 371.272216 
L 356.610162 371.714595 
L 355.04173 371.955892 
L 353.634162 372.317838 
L 350.095135 373.88627 
L 348.164757 374.288432 
L 346.234378 374.288432 
L 338.633514 373.162378 
L 332.761946 372.518919 
L 330.831568 371.996108 
L 327.131676 370.307027 
L 323.874162 369.221189 
L 317.439568 367.411459 
L 313.779892 366.647351 
L 310.361514 366.124541 
L 306.902919 365.762595 
L 305.052973 365.682162 
L 303.203027 365.722378 
L 297.612973 366.687568 
L 286.59373 367.290811 
L 281.204757 367.210378 
L 277.424432 366.969081 
L 271.955027 366.406054 
L 268.375784 365.28 
L 266.324757 364.676757 
L 259.286919 363.349622 
L 257.517405 363.148541 
L 253.817514 363.148541 
L 246.578595 362.585514 
L 226.752 361.379027 
L 226.752 361.379027 
" style="fill:none;stroke:#4062fa;stroke-linecap:square;stroke-width:1.5;"/>
   </g>
   <g id="line2d_78">
    <path clip-path="url(#p18b816d332)" d="M 402.175135 440.082162 
L 401.974054 440.162595 
L 401.933838 440.202811 
L 402.094703 439.921297 
L 402.416432 439.237622 
L 402.617514 438.031135 
L 402.456649 436.744216 
L 402.01427 435.256216 
L 401.129514 433.687784 
L 398.917622 430.711784 
L 396.826378 427.896649 
L 392.523243 422.065297 
L 387.335351 414.906811 
L 383.957189 410.281946 
L 383.072432 408.472216 
L 382.549622 406.582054 
L 382.067027 402.560432 
L 381.906162 400.710486 
L 381.865946 398.538811 
L 381.986595 396.608432 
L 383.072432 389.208649 
L 383.072432 387.358703 
L 382.871351 385.267459 
L 382.147459 381.648 
L 381.463784 379.637189 
L 380.016 376.500324 
L 378.045405 373.363459 
L 375.913946 370.668973 
L 373.500973 368.175568 
L 367.870703 362.907243 
L 366.905514 361.700757 
L 365.779459 360.655135 
L 364.251243 359.64973 
L 360.792649 357.598703 
L 358.098162 355.668324 
L 356.449297 354.904216 
L 354.478703 354.461838 
L 352.588541 354.180324 
L 350.698378 353.69773 
L 348.848432 353.014054 
L 347.199568 351.968432 
L 346.033297 350.761946 
L 341.730162 344.890378 
L 339.357405 341.673081 
L 338.593297 339.863351 
L 338.271568 337.651459 
L 338.432432 335.52 
L 338.874811 333.187459 
L 338.995459 330.975568 
L 338.834595 329.407135 
L 338.593297 328.160432 
L 337.949838 326.471351 
L 336.984649 325.104 
L 336.944432 325.144216 
L 335.577081 324.943135 
L 332.239135 324.943135 
L 326.086054 324.581189 
L 324.758919 324.138811 
L 322.989405 323.173622 
L 319.731892 320.921514 
L 317.881946 318.950919 
L 317.52 318.428108 
L 316.997189 316.899892 
L 316.836324 314.929297 
L 316.916757 314.768432 
L 316.675459 315.090162 
L 316.876541 314.969514 
L 316.956973 314.969514 
L 317.680865 315.090162 
L 319.369946 315.572757 
L 321.179676 316.658595 
L 322.185081 317.623784 
L 323.431784 319.554162 
L 323.79373 320.278054 
L 323.632865 320.599784 
L 323.110054 320.800865 
L 321.863351 321.042162 
L 319.892757 321.001946 
L 318.284108 320.599784 
L 316.273297 319.594378 
L 314.986378 318.508541 
L 313.820108 316.940108 
L 313.056 315.452108 
L 312.090811 313.843459 
L 310.643027 312.435892 
L 309.396324 311.631568 
L 307.667027 310.787027 
L 306.018162 309.660973 
L 303.645405 307.127351 
L 300.588973 304.633946 
L 299.100973 303.025297 
L 298.135784 301.336216 
L 296.889081 297.797189 
L 295.883676 296.309189 
L 293.309838 293.735351 
L 291.299027 290.598486 
L 290.012108 289.311568 
L 286.754595 287.059459 
L 285.427459 285.611676 
L 284.582919 284.204108 
L 282.732973 280.665081 
L 280.159135 277.608649 
L 278.148324 275.075027 
L 273.885405 268.841514 
L 260.292324 247.687784 
L 259.045622 246.400865 
L 256.150054 244.470486 
L 251.927351 241.615135 
L 247.222054 238.558703 
L 242.878703 235.864216 
L 240.103784 233.692541 
L 237.771243 231.400216 
L 236.564757 229.912216 
L 234.594162 226.976432 
L 233.830054 225.528649 
L 232.38227 222.029838 
L 230.854054 217.203892 
L 229.607351 213.664865 
L 229.044324 211.855135 
L 227.757405 206.064 
L 224.94227 192.953514 
L 224.94227 192.953514 
" style="fill:none;stroke:#00b4ec;stroke-linecap:square;stroke-width:1.5;"/>
   </g>
   <g id="line2d_79">
    <path clip-path="url(#p18b816d332)" d="M 224.821622 136.047568 
L 225.344432 136.047568 
L 226.43027 136.208432 
L 228.119351 136.811676 
L 229.325838 137.495351 
L 230.813838 138.78227 
L 231.939892 140.27027 
L 233.910486 143.366919 
L 234.795243 145.176649 
L 235.277838 147.066811 
L 236.162595 154.265514 
L 236.202811 156.155676 
L 236.122378 157.804541 
L 235.398486 163.635892 
L 235.35827 165.485838 
L 235.478919 167.335784 
L 235.720216 169.18573 
L 236.524541 172.523676 
L 237.047351 174.011676 
L 238.495135 177.108324 
L 240.345081 180.044108 
L 241.270054 181.331027 
L 244.085189 184.508108 
L 245.171027 185.513514 
L 246.41773 186.358054 
L 248.388324 187.162378 
L 251.72627 188.167784 
L 254.742486 189.37427 
L 256.672865 190.178595 
L 260.533622 191.184 
L 264.313946 192.631784 
L 269.743135 194.883892 
L 279.797189 199.347892 
L 285.145946 201.841297 
L 288.483892 203.530378 
L 290.213189 204.937946 
L 291.419676 206.506378 
L 292.304432 208.476973 
L 293.510919 211.654054 
L 294.395676 213.222486 
L 295.52173 214.911568 
L 297.572757 219.013622 
L 298.698811 220.139676 
L 300.508541 221.145081 
L 299.623784 220.380973 
L 299.221622 219.697297 
L 298.980324 219.737514 
L 298.940108 219.858162 
L 298.859676 219.817946 
L 298.578162 220.179892 
L 298.49773 220.139676 
L 296.486919 223.437405 
L 295.722811 224.442811 
L 293.510919 226.694919 
L 293.108757 227.459027 
L 292.746811 228.70573 
L 292.666378 230.394811 
L 292.907676 231.923027 
L 293.551135 233.612108 
L 294.717405 235.260973 
L 296.124973 236.427243 
L 297.452108 237.151135 
L 301.152 238.277189 
L 305.093189 239.202162 
L 306.500757 239.644541 
L 308.27027 239.926054 
L 309.798486 239.845622 
L 311.206054 239.523892 
L 313.699459 238.397838 
L 316.072216 237.070703 
L 317.077622 236.628324 
L 320.254703 235.50227 
L 321.260108 235.260973 
L 322.30573 235.220757 
L 323.713297 235.462054 
L 325.523027 236.14573 
L 329.383784 238.116324 
L 332.802162 238.920649 
L 334.652108 239.363027 
L 339.759568 241.011892 
L 345.349622 243.062919 
L 350.095135 245.636757 
L 353.272216 247.124757 
L 354.639568 248.04973 
L 355.966703 249.457297 
L 357.052541 251.387676 
L 357.655784 253.157189 
L 358.620973 256.656 
L 360.430703 262.366703 
L 360.631784 264.297081 
L 360.792649 268.318703 
L 361.476324 272.139243 
L 362.16 273.828324 
L 364.251243 277.045622 
L 365.618595 278.614054 
L 370.444541 282.796541 
L 371.248865 283.801946 
L 372.133622 285.571459 
L 373.782486 291.804973 
L 373.74227 293.091892 
L 373.058595 295.947243 
L 372.133622 299.084108 
L 371.811892 301.094919 
L 371.731459 302.904649 
L 371.852108 304.473081 
L 372.093405 305.76 
L 372.535784 307.087135 
L 373.581405 308.856649 
L 375.954162 311.430486 
L 378.20627 314.446703 
L 383.353946 322.329081 
L 384.278919 323.977946 
L 385.847351 327.396324 
L 386.531027 329.165838 
L 387.657081 333.066811 
L 388.903784 338.496 
L 390.311351 343.965405 
L 391.316757 349.23373 
L 393.287351 358.966054 
L 393.287351 358.966054 
" style="fill:none;stroke:#40ecd4;stroke-linecap:square;stroke-width:1.5;"/>
   </g>
   <g id="line2d_80">
    <path clip-path="url(#p18b816d332)" d="M 450.032432 304.955676 
L 449.831351 304.995892 
L 449.670486 305.317622 
L 449.670486 305.076324 
L 449.429189 304.392649 
L 448.946595 303.507892 
L 447.941189 302.542703 
L 446.65427 301.778595 
L 444.965189 301.135135 
L 441.546811 300.451459 
L 429.200432 297.877622 
L 362.361081 283.76173 
L 358.741622 283.681297 
L 355.283027 283.158486 
L 346.435459 281.308541 
L 344.464865 281.348757 
L 342.735568 281.791135 
L 340.925838 282.756324 
L 339.799784 283.801946 
L 337.306378 286.818162 
L 335.818378 287.863784 
L 334.008649 288.627892 
L 331.796757 288.949622 
L 329.584865 288.708324 
L 325.884973 287.381189 
L 324.115459 287.139892 
L 322.587243 287.220324 
L 321.099243 287.622486 
L 320.053622 288.145297 
L 318.806919 289.231135 
L 317.801514 290.678919 
L 317.117838 292.368 
L 316.836324 293.856 
L 316.675459 295.625514 
L 316.273297 297.877622 
L 315.589622 299.687351 
L 314.745081 300.97427 
L 313.860324 301.979676 
L 312.814703 302.864432 
L 311.286486 303.789405 
L 309.718054 304.352432 
L 307.506162 304.59373 
L 305.29427 304.231784 
L 303.484541 303.467676 
L 300.267243 301.255784 
L 298.336865 300.451459 
L 296.567351 300.049297 
L 294.797838 299.405838 
L 288.845838 295.866811 
L 280.963459 292.448432 
L 269.220324 286.496432 
L 260.895568 282.153081 
L 247.584 275.195676 
L 231.658378 266.911135 
L 221.684757 261.683027 
L 210.303568 255.731027 
L 199.404973 249.980108 
L 197.957189 249.256216 
L 197.957189 249.256216 
" style="fill:none;stroke:#80ffb4;stroke-linecap:square;stroke-width:1.5;"/>
   </g>
   <g id="line2d_81">
    <path clip-path="url(#p18b816d332)" d="M 140.367568 248.652973 
L 142.700108 248.693189 
L 146.198919 249.055135 
L 180.262054 252.875676 
L 196.549622 254.685405 
L 200.008216 255.087568 
L 206.885189 255.650595 
L 214.083892 256.454919 
L 224.982486 257.621189 
L 244.205838 259.189622 
L 245.734054 259.189622 
L 248.870919 258.827676 
L 251.082811 259.028757 
L 254.259892 259.672216 
L 255.948973 259.632 
L 258.080432 259.712432 
L 259.407568 259.993946 
L 261.337946 260.597189 
L 263.268324 261.562378 
L 265.359568 262.366703 
L 266.887784 262.567784 
L 268.657297 262.447135 
L 270.426811 261.884108 
L 272.156108 261.200432 
L 273.764757 260.758054 
L 275.976649 260.637405 
L 281.48627 261.763459 
L 284.623135 261.843892 
L 289.449081 261.683027 
L 293.148973 261.44173 
L 296.969514 260.315676 
L 298.899892 260.034162 
L 304.087784 260.396108 
L 305.93773 260.396108 
L 311.286486 260.034162 
L 314.463568 259.712432 
L 321.581838 258.546162 
L 325.28173 257.902703 
L 327.212108 257.701622 
L 329.383784 257.782054 
L 331.273946 258.023351 
L 334.973838 258.787459 
L 340.16173 260.195027 
L 347.119135 262.28627 
L 370.645622 269.605622 
L 392.925405 276.563027 
L 392.925405 276.563027 
" style="fill:none;stroke:#bfec8e;stroke-linecap:square;stroke-width:1.5;"/>
   </g>
   <g id="line2d_82">
    <path clip-path="url(#p18b816d332)" d="M 281.124324 192.35027 
L 281.204757 192.35027 
L 281.727568 192.470919 
L 282.491676 192.792649 
L 283.054703 193.235027 
L 283.738378 194.039351 
L 284.381838 195.567568 
L 284.582919 197.136 
L 284.623135 198.784865 
L 284.542703 200.916324 
L 284.46227 202.524973 
L 284.341622 204.455351 
L 283.939459 206.305297 
L 283.456865 208.155243 
L 283.094919 209.964973 
L 282.893838 211.292108 
L 282.692757 212.940973 
L 282.692757 214.831135 
L 282.732973 216.681081 
L 282.692757 218.611459 
L 282.612324 220.179892 
L 282.612324 222.070054 
L 282.572108 223.960216 
L 282.531892 226.091676 
L 282.491676 228.223135 
L 282.451459 230.113297 
L 282.411243 232.244757 
L 282.371027 234.134919 
L 282.330811 236.025081 
L 282.290595 238.156541 
L 282.290595 240.046703 
L 282.250378 242.178162 
L 282.210162 244.068324 
L 282.210162 245.91827 
L 282.169946 247.808432 
L 282.169946 249.417081 
L 282.12973 251.02573 
L 282.12973 252.634378 
L 282.089514 255.047351 
L 282.089514 256.374486 
L 282.049297 258.264649 
L 282.049297 259.873297 
L 282.009081 261.763459 
L 282.009081 263.372108 
L 281.968865 265.222054 
L 281.928649 267.112216 
L 281.928649 268.962162 
L 281.888432 271.133838 
L 281.888432 272.460973 
L 281.848216 274.592432 
L 281.808 276.482595 
L 281.808 278.372757 
L 281.767784 280.222703 
L 281.767784 282.112865 
L 281.727568 284.003027 
L 281.727568 285.852973 
L 281.687351 287.743135 
L 281.647135 289.351784 
L 281.647135 290.960432 
L 281.606919 292.850595 
L 281.606919 294.982054 
L 281.566703 296.872216 
L 281.566703 298.480865 
L 281.526486 300.089514 
L 281.526486 301.698162 
L 281.526486 303.548108 
L 281.48627 305.156757 
L 281.48627 307.328432 
L 281.48627 308.937081 
L 281.48627 310.787027 
L 281.48627 312.677189 
L 281.446054 314.285838 
L 281.446054 316.176 
L 281.405838 318.066162 
L 281.365622 319.916108 
L 281.325405 321.80627 
L 281.285189 323.656216 
L 281.244973 325.546378 
L 281.244973 327.436541 
L 281.204757 329.286486 
L 281.204757 331.458162 
" style="fill:none;stroke:#ffb462;stroke-linecap:square;stroke-width:1.5;"/>
   </g>
   <g id="line2d_83">
    <path clip-path="url(#p18b816d332)" d="M 140.367568 304.955676 
L 141.091459 304.955676 
L 142.780541 304.875243 
L 144.630486 304.633946 
L 146.480432 304.312216 
L 148.330378 303.990486 
L 150.180324 303.668757 
L 151.748757 303.387243 
L 153.357405 303.10573 
L 155.207351 302.824216 
L 157.057297 302.502486 
L 158.907243 302.180757 
L 160.475676 301.899243 
L 162.325622 301.61773 
L 164.175568 301.296 
L 165.784216 301.014486 
L 167.634162 300.692757 
L 169.484108 300.411243 
L 171.615568 300.049297 
L 173.184 299.767784 
L 175.033946 299.446054 
L 176.883892 299.164541 
L 178.452324 298.883027 
L 180.30227 298.561297 
L 182.152216 298.239568 
L 183.760865 297.99827 
L 185.610811 297.676541 
L 187.179243 297.395027 
L 189.029189 297.113514 
L 190.879135 296.791784 
L 192.487784 296.51027 
L 194.33773 296.188541 
L 196.187676 295.907027 
L 197.756108 295.625514 
L 199.324541 295.344 
L 200.490811 295.062486 
L 201.657081 294.700541 
L 202.783135 294.338595 
L 203.788541 293.976649 
L 204.954811 293.53427 
L 206.322162 293.011459 
L 208.091676 292.528865 
L 209.981838 292.207135 
L 211.55027 291.965838 
L 213.400216 291.684324 
L 215.008865 291.483243 
L 216.858811 291.20173 
L 218.708757 290.920216 
L 220.317405 290.719135 
L 221.926054 290.477838 
L 223.776 290.236541 
L 225.907459 289.955027 
L 228.038919 289.673514 
L 229.888865 289.432216 
L 232.020324 289.150703 
L 233.628973 288.989838 
L 235.478919 288.748541 
L 237.328865 288.547459 
L 238.937514 288.386595 
L 240.546162 288.22573 
L 242.154811 288.064865 
L 244.004757 287.863784 
L 245.613405 287.743135 
L 247.503568 287.542054 
L 248.710054 287.421405 
L 249.635027 287.300757 
L 251.123027 287.099676 
L 252.731676 286.938811 
L 254.340324 286.818162 
L 255.546811 286.697514 
L 256.391351 286.617081 
L 256.632649 286.576865 
L 256.753297 286.536649 
L 257.276108 286.295351 
L 258.482595 285.893189 
L 260.533622 285.531243 
L 262.182486 285.450811 
L 264.032432 285.450811 
L 265.882378 285.410595 
L 268.013838 285.289946 
L 269.863784 285.169297 
L 271.71373 285.048649 
L 273.603892 285.008432 
L 275.212541 284.968216 
L 276.539676 284.928 
L 278.429838 284.847568 
L 280.279784 284.767135 
L 282.169946 284.646486 
L 284.019892 284.525838 
L 285.869838 284.364973 
L 287.43827 284.163892 
L 289.56973 283.801946 
L 291.379459 283.44 
L 293.269622 282.957405 
L 294.757622 282.474811 
L 296.527135 281.831351 
L 298.296649 281.187892 
L 300.066162 280.584649 
L 301.795459 279.900973 
L 303.323676 279.337946 
L 305.093189 278.694486 
L 307.104 277.930378 
L 308.592 277.407568 
" style="fill:none;stroke:#ff6232;stroke-linecap:square;stroke-width:1.5;"/>
   </g>
   <g id="line2d_84">
    <path clip-path="url(#p18b816d332)" d="M 393.72973 220.501622 
L 393.971027 220.582054 
L 394.091676 220.823351 
L 394.091676 221.185297 
L 393.930811 222.150486 
L 393.247135 223.92 
L 392.161297 225.568865 
L 390.713514 226.896 
L 386.048432 229.630703 
L 382.951784 231.762162 
L 376.155243 236.547892 
L 374.546595 237.553297 
L 371.40973 239.161946 
L 367.870703 240.529297 
L 363.929514 241.574919 
L 360.470919 242.09773 
L 356.972108 242.379243 
L 353.473297 242.459676 
L 350.296216 242.94227 
L 346.596324 243.625946 
L 336.019459 245.315027 
L 331.273946 246.079135 
L 329.74573 246.280216 
L 328.378378 246.280216 
L 326.488216 245.837838 
L 324.477405 244.953081 
L 321.300324 243.304216 
L 314.825514 240.730378 
L 309.476757 239.001081 
L 307.707243 238.317405 
L 306.219243 238.035892 
L 304.248649 237.995676 
L 302.076973 237.834811 
L 297.773838 236.748973 
L 296.245622 236.668541 
L 293.148973 236.99027 
L 289.006703 236.748973 
L 287.076324 237.030486 
L 284.864432 237.151135 
L 282.934054 236.789189 
L 281.164541 235.984865 
L 279.797189 235.019676 
L 274.609297 229.55027 
L 273.121297 228.384 
L 271.914811 227.257946 
L 270.909405 225.930811 
L 269.944216 224.040649 
L 269.059459 222.592865 
L 266.525838 219.737514 
L 265.882378 218.531027 
L 265.641081 217.364757 
L 265.600865 215.715892 
L 265.922595 213.785514 
L 267.24973 210.769297 
L 267.772541 208.838919 
L 267.772541 207.029189 
L 267.491027 205.541189 
L 266.646486 203.691243 
L 265.520432 202.283676 
L 264.313946 201.318486 
L 262.705297 200.514162 
L 258.603243 199.508757 
L 254.662054 199.307676 
L 251.203459 199.307676 
L 249.072 199.428324 
L 245.130811 199.951135 
L 243.280865 200.353297 
L 240.264649 201.318486 
L 236.765838 202.605405 
L 235.076757 203.40973 
L 233.789838 204.214054 
L 227.757405 208.678054 
L 223.655351 211.855135 
L 222.288 213.343135 
L 221.322811 214.911568 
L 219.553297 218.209297 
L 215.370811 225.72973 
L 213.721946 228.786162 
L 211.912216 231.802378 
L 209.740541 234.577297 
L 208.493838 235.984865 
L 207.126486 237.312 
L 204.391784 239.523892 
L 201.657081 241.333622 
L 198.077838 243.223784 
L 196.871351 243.786811 
L 193.412757 245.194378 
L 191.804108 246.038919 
L 184.002162 250.744216 
L 171.173189 258.023351 
L 161.521297 263.814486 
L 140.729514 276.563027 
L 140.729514 276.563027 
" style="fill:none;stroke:#ff0000;stroke-linecap:square;stroke-width:1.5;"/>
   </g>
   <g id="patch_3">
    <path d="M 72 512.64 
L 72 69.12 
" style="fill:none;stroke:#000000;stroke-linecap:square;stroke-linejoin:miter;stroke-width:0.8;"/>
   </g>
   <g id="patch_4">
    <path d="M 518.4 512.64 
L 518.4 69.12 
" style="fill:none;stroke:#000000;stroke-linecap:square;stroke-linejoin:miter;stroke-width:0.8;"/>
   </g>
   <g id="patch_5">
    <path d="M 72 512.64 
L 518.4 512.64 
" style="fill:none;stroke:#000000;stroke-linecap:square;stroke-linejoin:miter;stroke-width:0.8;"/>
   </g>
   <g id="patch_6">
    <path d="M 72 69.12 
L 518.4 69.12 
" style="fill:none;stroke:#000000;stroke-linecap:square;stroke-linejoin:miter;stroke-width:0.8;"/>
   </g>
   <g id="text_13">
    <!-- 1 -->
    <defs>
     <path d="M 14.203125 0 
L 14.203125 5.171875 
L 26.90625 5.171875 
L 26.90625 65.828125 
L 12.203125 56.296875 
L 12.203125 62.703125 
L 29.984375 74.21875 
L 36.71875 74.21875 
L 36.71875 5.171875 
L 49.421875 5.171875 
L 49.421875 0 
z
" id="DejaVuSerif-31"/>
    </defs>
    <g transform="translate(137.186318 389.40973)scale(0.1 -0.1)">
     <use xlink:href="#DejaVuSerif-31"/>
    </g>
   </g>
   <g id="text_14">
    <!-- 1 -->
    <g transform="translate(390.54848 192.35027)scale(0.1 -0.1)">
     <use xlink:href="#DejaVuSerif-31"/>
    </g>
   </g>
   <g id="text_15">
    <!-- 2 -->
    <defs>
     <path d="M 12.796875 55.515625 
L 7.328125 55.515625 
L 7.328125 68.5 
Q 12.546875 71.296875 17.84375 72.75 
Q 23.140625 74.21875 28.21875 74.21875 
Q 39.59375 74.21875 46.1875 68.703125 
Q 52.78125 63.1875 52.78125 53.71875 
Q 52.78125 43.015625 37.84375 28.125 
Q 36.671875 27 36.078125 26.421875 
L 17.671875 8.015625 
L 48.09375 8.015625 
L 48.09375 17 
L 53.8125 17 
L 53.8125 0 
L 6.78125 0 
L 6.78125 5.328125 
L 28.90625 27.390625 
Q 36.234375 34.71875 39.359375 40.84375 
Q 42.484375 46.96875 42.484375 53.71875 
Q 42.484375 61.078125 38.640625 65.234375 
Q 34.8125 69.390625 28.078125 69.390625 
Q 21.09375 69.390625 17.28125 65.921875 
Q 13.484375 62.453125 12.796875 55.515625 
z
" id="DejaVuSerif-32"/>
    </defs>
    <g transform="translate(446.851182 192.35027)scale(0.1 -0.1)">
     <use xlink:href="#DejaVuSerif-32"/>
    </g>
   </g>
   <g id="text_16">
    <!-- 2 -->
    <g transform="translate(221.640372 361.258378)scale(0.1 -0.1)">
     <use xlink:href="#DejaVuSerif-32"/>
    </g>
   </g>
   <g id="text_17">
    <!-- 3 -->
    <defs>
     <path d="M 9.71875 69.828125 
Q 15.4375 71.96875 20.671875 73.09375 
Q 25.921875 74.21875 30.515625 74.21875 
Q 41.21875 74.21875 47.21875 69.59375 
Q 53.21875 64.984375 53.21875 56.78125 
Q 53.21875 50.203125 49.0625 45.78125 
Q 44.921875 41.359375 37.3125 39.796875 
Q 46.296875 38.53125 51.25 33.28125 
Q 56.203125 28.03125 56.203125 19.671875 
Q 56.203125 9.46875 49.34375 4.015625 
Q 42.484375 -1.421875 29.59375 -1.421875 
Q 23.875 -1.421875 18.421875 -0.1875 
Q 12.984375 1.03125 7.625 3.515625 
L 7.625 17.671875 
L 13.09375 17.671875 
Q 13.578125 10.640625 17.828125 7.03125 
Q 22.078125 3.421875 29.78125 3.421875 
Q 37.25 3.421875 41.578125 7.734375 
Q 45.90625 12.0625 45.90625 19.578125 
Q 45.90625 28.171875 41.453125 32.59375 
Q 37.015625 37.015625 28.421875 37.015625 
L 23.78125 37.015625 
L 23.78125 42 
L 26.21875 42 
Q 34.765625 42 39.03125 45.53125 
Q 43.3125 49.078125 43.3125 56.203125 
Q 43.3125 62.59375 39.796875 65.984375 
Q 36.28125 69.390625 29.6875 69.390625 
Q 23.09375 69.390625 19.453125 66.265625 
Q 15.828125 63.140625 15.1875 56.984375 
L 9.71875 56.984375 
z
" id="DejaVuSerif-33"/>
    </defs>
    <g transform="translate(398.993885 440.082162)scale(0.1 -0.1)">
     <use xlink:href="#DejaVuSerif-33"/>
    </g>
   </g>
   <g id="text_18">
    <!-- 3 -->
    <g transform="translate(221.640372 192.35027)scale(0.1 -0.1)">
     <use xlink:href="#DejaVuSerif-33"/>
    </g>
   </g>
   <g id="text_19">
    <!-- 4 -->
    <defs>
     <path d="M 34.90625 24.703125 
L 34.90625 63.484375 
L 10.015625 24.703125 
z
M 56.390625 0 
L 23.1875 0 
L 23.1875 5.171875 
L 34.90625 5.171875 
L 34.90625 19.484375 
L 3.078125 19.484375 
L 3.078125 24.8125 
L 35.015625 74.21875 
L 44.671875 74.21875 
L 44.671875 24.703125 
L 58.59375 24.703125 
L 58.59375 19.484375 
L 44.671875 19.484375 
L 44.671875 5.171875 
L 56.390625 5.171875 
z
" id="DejaVuSerif-34"/>
    </defs>
    <g transform="translate(221.640372 136.047568)scale(0.1 -0.1)">
     <use xlink:href="#DejaVuSerif-34"/>
    </g>
   </g>
   <g id="text_20">
    <!-- 4 -->
    <g transform="translate(390.54848 361.258378)scale(0.1 -0.1)">
     <use xlink:href="#DejaVuSerif-34"/>
    </g>
   </g>
   <g id="text_21">
    <!-- 5 -->
    <defs>
     <path d="M 50.296875 72.90625 
L 50.296875 64.890625 
L 16.890625 64.890625 
L 16.890625 44 
Q 19.4375 45.75 22.828125 46.625 
Q 26.21875 47.515625 30.421875 47.515625 
Q 42.234375 47.515625 49.0625 40.96875 
Q 55.90625 34.421875 55.90625 23.09375 
Q 55.90625 11.53125 49 5.046875 
Q 42.09375 -1.421875 29.59375 -1.421875 
Q 24.5625 -1.421875 19.28125 -0.1875 
Q 14.015625 1.03125 8.5 3.515625 
L 8.5 17.671875 
L 14.015625 17.671875 
Q 14.453125 10.75 18.421875 7.078125 
Q 22.40625 3.421875 29.59375 3.421875 
Q 37.3125 3.421875 41.453125 8.5 
Q 45.609375 13.578125 45.609375 23.09375 
Q 45.609375 32.5625 41.484375 37.609375 
Q 37.359375 42.671875 29.59375 42.671875 
Q 25.203125 42.671875 21.84375 41.109375 
Q 18.5 39.546875 15.921875 36.28125 
L 11.71875 36.28125 
L 11.71875 72.90625 
z
" id="DejaVuSerif-35"/>
    </defs>
    <g transform="translate(446.851182 304.955676)scale(0.1 -0.1)">
     <use xlink:href="#DejaVuSerif-35"/>
    </g>
   </g>
   <g id="text_22">
    <!-- 5 -->
    <g transform="translate(193.48902 248.652973)scale(0.1 -0.1)">
     <use xlink:href="#DejaVuSerif-35"/>
    </g>
   </g>
   <g id="text_23">
    <!-- 6 -->
    <defs>
     <path d="M 32.71875 3.421875 
Q 39.59375 3.421875 43.296875 8.46875 
Q 47.015625 13.53125 47.015625 23 
Q 47.015625 32.46875 43.296875 37.515625 
Q 39.59375 42.578125 32.71875 42.578125 
Q 25.734375 42.578125 22.0625 37.6875 
Q 18.40625 32.8125 18.40625 23.578125 
Q 18.40625 13.875 22.109375 8.640625 
Q 25.828125 3.421875 32.71875 3.421875 
z
M 16.796875 40.140625 
Q 20.125 43.796875 24.3125 45.59375 
Q 28.515625 47.40625 33.796875 47.40625 
Q 44.671875 47.40625 51 40.859375 
Q 57.328125 34.328125 57.328125 23 
Q 57.328125 11.921875 50.515625 5.25 
Q 43.703125 -1.421875 32.328125 -1.421875 
Q 19.96875 -1.421875 13.328125 7.78125 
Q 6.6875 17 6.6875 34.078125 
Q 6.6875 53.21875 14.546875 63.71875 
Q 22.40625 74.21875 36.71875 74.21875 
Q 40.578125 74.21875 44.828125 73.484375 
Q 49.078125 72.75 53.515625 71.296875 
L 53.515625 59.28125 
L 48 59.28125 
Q 47.40625 64.203125 44.234375 66.796875 
Q 41.0625 69.390625 35.6875 69.390625 
Q 26.21875 69.390625 21.578125 62.203125 
Q 16.9375 55.03125 16.796875 40.140625 
z
" id="DejaVuSerif-36"/>
    </defs>
    <g transform="translate(137.186318 248.652973)scale(0.1 -0.1)">
     <use xlink:href="#DejaVuSerif-36"/>
    </g>
   </g>
   <g id="text_24">
    <!-- 6 -->
    <g transform="translate(390.54848 276.804324)scale(0.1 -0.1)">
     <use xlink:href="#DejaVuSerif-36"/>
    </g>
   </g>
   <g id="text_25">
    <!-- 7 -->
    <defs>
     <path d="M 56.390625 67.921875 
L 27.875 0 
L 20.609375 0 
L 47.796875 64.890625 
L 14.109375 64.890625 
L 14.109375 55.90625 
L 8.40625 55.90625 
L 8.40625 72.90625 
L 56.390625 72.90625 
z
" id="DejaVuSerif-37"/>
    </defs>
    <g transform="translate(277.943074 192.35027)scale(0.1 -0.1)">
     <use xlink:href="#DejaVuSerif-37"/>
    </g>
   </g>
   <g id="text_26">
    <!-- 7 -->
    <g transform="translate(277.943074 333.107027)scale(0.1 -0.1)">
     <use xlink:href="#DejaVuSerif-37"/>
    </g>
   </g>
   <g id="text_27">
    <!-- 8 -->
    <defs>
     <path d="M 46.578125 19.921875 
Q 46.578125 27.734375 42.6875 32.046875 
Q 38.8125 36.375 31.78125 36.375 
Q 24.75 36.375 20.875 32.046875 
Q 17 27.734375 17 19.921875 
Q 17 12.0625 20.875 7.734375 
Q 24.75 3.421875 31.78125 3.421875 
Q 38.8125 3.421875 42.6875 7.734375 
Q 46.578125 12.0625 46.578125 19.921875 
z
M 44.578125 55.328125 
Q 44.578125 61.96875 41.203125 65.671875 
Q 37.84375 69.390625 31.78125 69.390625 
Q 25.78125 69.390625 22.390625 65.671875 
Q 19 61.96875 19 55.328125 
Q 19 48.640625 22.390625 44.921875 
Q 25.78125 41.21875 31.78125 41.21875 
Q 37.84375 41.21875 41.203125 44.921875 
Q 44.578125 48.640625 44.578125 55.328125 
z
M 39.3125 38.8125 
Q 47.609375 37.703125 52.25 32.6875 
Q 56.890625 27.6875 56.890625 19.921875 
Q 56.890625 9.671875 50.390625 4.125 
Q 43.890625 -1.421875 31.78125 -1.421875 
Q 19.734375 -1.421875 13.203125 4.125 
Q 6.6875 9.671875 6.6875 19.921875 
Q 6.6875 27.6875 11.328125 32.6875 
Q 15.96875 37.703125 24.3125 38.8125 
Q 16.9375 40.140625 13 44.40625 
Q 9.078125 48.6875 9.078125 55.328125 
Q 9.078125 64.109375 15.125 69.15625 
Q 21.1875 74.21875 31.78125 74.21875 
Q 42.390625 74.21875 48.4375 69.15625 
Q 54.5 64.109375 54.5 55.328125 
Q 54.5 48.6875 50.5625 44.40625 
Q 46.625 40.140625 39.3125 38.8125 
z
" id="DejaVuSerif-38"/>
    </defs>
    <g transform="translate(137.186318 304.955676)scale(0.1 -0.1)">
     <use xlink:href="#DejaVuSerif-38"/>
    </g>
   </g>
   <g id="text_28">
    <!-- 8 -->
    <g transform="translate(306.094426 276.804324)scale(0.1 -0.1)">
     <use xlink:href="#DejaVuSerif-38"/>
    </g>
   </g>
   <g id="text_29">
    <!-- 9 -->
    <defs>
     <path d="M 46.78125 32.671875 
Q 43.5 29 39.25 27.1875 
Q 35.015625 25.390625 29.6875 25.390625 
Q 18.84375 25.390625 12.5625 31.9375 
Q 6.296875 38.484375 6.296875 49.8125 
Q 6.296875 60.890625 13.109375 67.546875 
Q 19.921875 74.21875 31.296875 74.21875 
Q 43.65625 74.21875 50.265625 65.015625 
Q 56.890625 55.8125 56.890625 38.71875 
Q 56.890625 19.578125 49.015625 9.078125 
Q 41.15625 -1.421875 26.90625 -1.421875 
Q 23.046875 -1.421875 18.796875 -0.6875 
Q 14.546875 0.046875 10.109375 1.515625 
L 10.109375 13.625 
L 15.578125 13.625 
Q 16.21875 8.6875 19.390625 6.046875 
Q 22.5625 3.421875 27.875 3.421875 
Q 37.359375 3.421875 41.984375 10.5625 
Q 46.625 17.71875 46.78125 32.671875 
z
M 30.90625 69.390625 
Q 23.96875 69.390625 20.28125 64.328125 
Q 16.609375 59.28125 16.609375 49.8125 
Q 16.609375 40.328125 20.28125 35.25 
Q 23.96875 30.171875 30.90625 30.171875 
Q 37.84375 30.171875 41.53125 35.078125 
Q 45.21875 39.984375 45.21875 49.21875 
Q 45.21875 58.9375 41.5 64.15625 
Q 37.796875 69.390625 30.90625 69.390625 
z
" id="DejaVuSerif-39"/>
    </defs>
    <g transform="translate(390.54848 220.501622)scale(0.1 -0.1)">
     <use xlink:href="#DejaVuSerif-39"/>
    </g>
   </g>
   <g id="text_30">
    <!-- 9 -->
    <g transform="translate(137.186318 276.804324)scale(0.1 -0.1)">
     <use xlink:href="#DejaVuSerif-39"/>
    </g>
   </g>
   <g id="text_31">
    <!-- MRPP -->
    <defs>
     <path d="M 9.8125 72.90625 
L 24.515625 72.90625 
L 43.109375 23.296875 
L 61.8125 72.90625 
L 76.515625 72.90625 
L 76.515625 0 
L 66.890625 0 
L 66.890625 64.015625 
L 48.09375 14.015625 
L 38.1875 14.015625 
L 19.390625 64.015625 
L 19.390625 0 
L 9.8125 0 
z
" id="DejaVuSans-4d"/>
     <path d="M 44.390625 34.1875 
Q 47.5625 33.109375 50.5625 29.59375 
Q 53.5625 26.078125 56.59375 19.921875 
L 66.609375 0 
L 56 0 
L 46.6875 18.703125 
Q 43.0625 26.03125 39.671875 28.421875 
Q 36.28125 30.8125 30.421875 30.8125 
L 19.671875 30.8125 
L 19.671875 0 
L 9.8125 0 
L 9.8125 72.90625 
L 32.078125 72.90625 
Q 44.578125 72.90625 50.734375 67.671875 
Q 56.890625 62.453125 56.890625 51.90625 
Q 56.890625 45.015625 53.6875 40.46875 
Q 50.484375 35.9375 44.390625 34.1875 
z
M 19.671875 64.796875 
L 19.671875 38.921875 
L 32.078125 38.921875 
Q 39.203125 38.921875 42.84375 42.21875 
Q 46.484375 45.515625 46.484375 51.90625 
Q 46.484375 58.296875 42.84375 61.546875 
Q 39.203125 64.796875 32.078125 64.796875 
z
" id="DejaVuSans-52"/>
     <path d="M 19.671875 64.796875 
L 19.671875 37.40625 
L 32.078125 37.40625 
Q 38.96875 37.40625 42.71875 40.96875 
Q 46.484375 44.53125 46.484375 51.125 
Q 46.484375 57.671875 42.71875 61.234375 
Q 38.96875 64.796875 32.078125 64.796875 
z
M 9.8125 72.90625 
L 32.078125 72.90625 
Q 44.34375 72.90625 50.609375 67.359375 
Q 56.890625 61.8125 56.890625 51.125 
Q 56.890625 40.328125 50.609375 34.8125 
Q 44.34375 29.296875 32.078125 29.296875 
L 19.671875 29.296875 
L 19.671875 0 
L 9.8125 0 
z
" id="DejaVuSans-50"/>
    </defs>
    <g transform="translate(278.618437 63.12)scale(0.12 -0.12)">
     <use xlink:href="#DejaVuSans-4d"/>
     <use x="86.279297" xlink:href="#DejaVuSans-52"/>
     <use x="155.761719" xlink:href="#DejaVuSans-50"/>
     <use x="216.064453" xlink:href="#DejaVuSans-50"/>
    </g>
   </g>
  </g>
 </g>
 <defs>
  <clipPath id="p18b816d332">
   <rect height="443.52" width="446.4" x="72" y="69.12"/>
  </clipPath>
 </defs>
</svg>
