<?xml version="1.0" encoding="utf-8" standalone="no"?>
<!DOCTYPE svg PUBLIC "-//W3C//DTD SVG 1.1//EN"
  "http://www.w3.org/Graphics/SVG/1.1/DTD/svg11.dtd">
<!-- Created with matplotlib (http://matplotlib.org/) -->
<svg height="576pt" version="1.1" viewBox="0 0 576 576" width="576pt" xmlns="http://www.w3.org/2000/svg" xmlns:xlink="http://www.w3.org/1999/xlink">
 <defs>
  <style type="text/css">
*{stroke-linecap:butt;stroke-linejoin:round;}
  </style>
 </defs>
 <g id="figure_1">
  <g id="patch_1">
   <path d="M 0 576 
L 576 576 
L 576 0 
L 0 0 
z
" style="fill:#ffffff;"/>
  </g>
  <g id="axes_1">
   <g id="patch_2">
    <path d="M 72 512.64 
L 518.4 512.64 
L 518.4 69.12 
L 72 69.12 
z
" style="fill:#ffffff;"/>
   </g>
   <g id="matplotlib.axis_1">
    <g id="xtick_1">
     <g id="line2d_1">
      <defs>
       <path d="M 0 0 
L 0 3.5 
" id="m84a564965a" style="stroke:#000000;stroke-width:0.8;"/>
      </defs>
      <g>
       <use style="stroke:#000000;stroke-width:0.8;" x="112.216216" xlink:href="#m84a564965a" y="512.64"/>
      </g>
     </g>
     <g id="text_1">
      <!-- 0 -->
      <defs>
       <path d="M 31.78125 66.40625 
Q 24.171875 66.40625 20.328125 58.90625 
Q 16.5 51.421875 16.5 36.375 
Q 16.5 21.390625 20.328125 13.890625 
Q 24.171875 6.390625 31.78125 6.390625 
Q 39.453125 6.390625 43.28125 13.890625 
Q 47.125 21.390625 47.125 36.375 
Q 47.125 51.421875 43.28125 58.90625 
Q 39.453125 66.40625 31.78125 66.40625 
z
M 31.78125 74.21875 
Q 44.046875 74.21875 50.515625 64.515625 
Q 56.984375 54.828125 56.984375 36.375 
Q 56.984375 17.96875 50.515625 8.265625 
Q 44.046875 -1.421875 31.78125 -1.421875 
Q 19.53125 -1.421875 13.0625 8.265625 
Q 6.59375 17.96875 6.59375 36.375 
Q 6.59375 54.828125 13.0625 64.515625 
Q 19.53125 74.21875 31.78125 74.21875 
z
" id="DejaVuSans-30"/>
      </defs>
      <g transform="translate(109.034966 527.238438)scale(0.1 -0.1)">
       <use xlink:href="#DejaVuSans-30"/>
      </g>
     </g>
    </g>
    <g id="xtick_2">
     <g id="line2d_2">
      <g>
       <use style="stroke:#000000;stroke-width:0.8;" x="192.648649" xlink:href="#m84a564965a" y="512.64"/>
      </g>
     </g>
     <g id="text_2">
      <!-- 2 -->
      <defs>
       <path d="M 19.1875 8.296875 
L 53.609375 8.296875 
L 53.609375 0 
L 7.328125 0 
L 7.328125 8.296875 
Q 12.9375 14.109375 22.625 23.890625 
Q 32.328125 33.6875 34.8125 36.53125 
Q 39.546875 41.84375 41.421875 45.53125 
Q 43.3125 49.21875 43.3125 52.78125 
Q 43.3125 58.59375 39.234375 62.25 
Q 35.15625 65.921875 28.609375 65.921875 
Q 23.96875 65.921875 18.8125 64.3125 
Q 13.671875 62.703125 7.8125 59.421875 
L 7.8125 69.390625 
Q 13.765625 71.78125 18.9375 73 
Q 24.125 74.21875 28.421875 74.21875 
Q 39.75 74.21875 46.484375 68.546875 
Q 53.21875 62.890625 53.21875 53.421875 
Q 53.21875 48.921875 51.53125 44.890625 
Q 49.859375 40.875 45.40625 35.40625 
Q 44.1875 33.984375 37.640625 27.21875 
Q 31.109375 20.453125 19.1875 8.296875 
z
" id="DejaVuSans-32"/>
      </defs>
      <g transform="translate(189.467399 527.238438)scale(0.1 -0.1)">
       <use xlink:href="#DejaVuSans-32"/>
      </g>
     </g>
    </g>
    <g id="xtick_3">
     <g id="line2d_3">
      <g>
       <use style="stroke:#000000;stroke-width:0.8;" x="273.081081" xlink:href="#m84a564965a" y="512.64"/>
      </g>
     </g>
     <g id="text_3">
      <!-- 4 -->
      <defs>
       <path d="M 37.796875 64.3125 
L 12.890625 25.390625 
L 37.796875 25.390625 
z
M 35.203125 72.90625 
L 47.609375 72.90625 
L 47.609375 25.390625 
L 58.015625 25.390625 
L 58.015625 17.1875 
L 47.609375 17.1875 
L 47.609375 0 
L 37.796875 0 
L 37.796875 17.1875 
L 4.890625 17.1875 
L 4.890625 26.703125 
z
" id="DejaVuSans-34"/>
      </defs>
      <g transform="translate(269.899831 527.238438)scale(0.1 -0.1)">
       <use xlink:href="#DejaVuSans-34"/>
      </g>
     </g>
    </g>
    <g id="xtick_4">
     <g id="line2d_4">
      <g>
       <use style="stroke:#000000;stroke-width:0.8;" x="353.513514" xlink:href="#m84a564965a" y="512.64"/>
      </g>
     </g>
     <g id="text_4">
      <!-- 6 -->
      <defs>
       <path d="M 33.015625 40.375 
Q 26.375 40.375 22.484375 35.828125 
Q 18.609375 31.296875 18.609375 23.390625 
Q 18.609375 15.53125 22.484375 10.953125 
Q 26.375 6.390625 33.015625 6.390625 
Q 39.65625 6.390625 43.53125 10.953125 
Q 47.40625 15.53125 47.40625 23.390625 
Q 47.40625 31.296875 43.53125 35.828125 
Q 39.65625 40.375 33.015625 40.375 
z
M 52.59375 71.296875 
L 52.59375 62.3125 
Q 48.875 64.0625 45.09375 64.984375 
Q 41.3125 65.921875 37.59375 65.921875 
Q 27.828125 65.921875 22.671875 59.328125 
Q 17.53125 52.734375 16.796875 39.40625 
Q 19.671875 43.65625 24.015625 45.921875 
Q 28.375 48.1875 33.59375 48.1875 
Q 44.578125 48.1875 50.953125 41.515625 
Q 57.328125 34.859375 57.328125 23.390625 
Q 57.328125 12.15625 50.6875 5.359375 
Q 44.046875 -1.421875 33.015625 -1.421875 
Q 20.359375 -1.421875 13.671875 8.265625 
Q 6.984375 17.96875 6.984375 36.375 
Q 6.984375 53.65625 15.1875 63.9375 
Q 23.390625 74.21875 37.203125 74.21875 
Q 40.921875 74.21875 44.703125 73.484375 
Q 48.484375 72.75 52.59375 71.296875 
z
" id="DejaVuSans-36"/>
      </defs>
      <g transform="translate(350.332264 527.238438)scale(0.1 -0.1)">
       <use xlink:href="#DejaVuSans-36"/>
      </g>
     </g>
    </g>
    <g id="xtick_5">
     <g id="line2d_5">
      <g>
       <use style="stroke:#000000;stroke-width:0.8;" x="433.945946" xlink:href="#m84a564965a" y="512.64"/>
      </g>
     </g>
     <g id="text_5">
      <!-- 8 -->
      <defs>
       <path d="M 31.78125 34.625 
Q 24.75 34.625 20.71875 30.859375 
Q 16.703125 27.09375 16.703125 20.515625 
Q 16.703125 13.921875 20.71875 10.15625 
Q 24.75 6.390625 31.78125 6.390625 
Q 38.8125 6.390625 42.859375 10.171875 
Q 46.921875 13.96875 46.921875 20.515625 
Q 46.921875 27.09375 42.890625 30.859375 
Q 38.875 34.625 31.78125 34.625 
z
M 21.921875 38.8125 
Q 15.578125 40.375 12.03125 44.71875 
Q 8.5 49.078125 8.5 55.328125 
Q 8.5 64.0625 14.71875 69.140625 
Q 20.953125 74.21875 31.78125 74.21875 
Q 42.671875 74.21875 48.875 69.140625 
Q 55.078125 64.0625 55.078125 55.328125 
Q 55.078125 49.078125 51.53125 44.71875 
Q 48 40.375 41.703125 38.8125 
Q 48.828125 37.15625 52.796875 32.3125 
Q 56.78125 27.484375 56.78125 20.515625 
Q 56.78125 9.90625 50.3125 4.234375 
Q 43.84375 -1.421875 31.78125 -1.421875 
Q 19.734375 -1.421875 13.25 4.234375 
Q 6.78125 9.90625 6.78125 20.515625 
Q 6.78125 27.484375 10.78125 32.3125 
Q 14.796875 37.15625 21.921875 38.8125 
z
M 18.3125 54.390625 
Q 18.3125 48.734375 21.84375 45.5625 
Q 25.390625 42.390625 31.78125 42.390625 
Q 38.140625 42.390625 41.71875 45.5625 
Q 45.3125 48.734375 45.3125 54.390625 
Q 45.3125 60.0625 41.71875 63.234375 
Q 38.140625 66.40625 31.78125 66.40625 
Q 25.390625 66.40625 21.84375 63.234375 
Q 18.3125 60.0625 18.3125 54.390625 
z
" id="DejaVuSans-38"/>
      </defs>
      <g transform="translate(430.764696 527.238438)scale(0.1 -0.1)">
       <use xlink:href="#DejaVuSans-38"/>
      </g>
     </g>
    </g>
    <g id="xtick_6">
     <g id="line2d_6">
      <g>
       <use style="stroke:#000000;stroke-width:0.8;" x="514.378378" xlink:href="#m84a564965a" y="512.64"/>
      </g>
     </g>
     <g id="text_6">
      <!-- 10 -->
      <defs>
       <path d="M 12.40625 8.296875 
L 28.515625 8.296875 
L 28.515625 63.921875 
L 10.984375 60.40625 
L 10.984375 69.390625 
L 28.421875 72.90625 
L 38.28125 72.90625 
L 38.28125 8.296875 
L 54.390625 8.296875 
L 54.390625 0 
L 12.40625 0 
z
" id="DejaVuSans-31"/>
      </defs>
      <g transform="translate(508.015878 527.238438)scale(0.1 -0.1)">
       <use xlink:href="#DejaVuSans-31"/>
       <use x="63.623047" xlink:href="#DejaVuSans-30"/>
      </g>
     </g>
    </g>
   </g>
   <g id="matplotlib.axis_2">
    <g id="ytick_1">
     <g id="line2d_7">
      <defs>
       <path d="M 0 0 
L -3.5 0 
" id="m55d8dc8d01" style="stroke:#000000;stroke-width:0.8;"/>
      </defs>
      <g>
       <use style="stroke:#000000;stroke-width:0.8;" x="72" xlink:href="#m55d8dc8d01" y="473.863784"/>
      </g>
     </g>
     <g id="text_7">
      <!-- 0 -->
      <g transform="translate(58.6375 477.663003)scale(0.1 -0.1)">
       <use xlink:href="#DejaVuSans-30"/>
      </g>
     </g>
    </g>
    <g id="ytick_2">
     <g id="line2d_8">
      <g>
       <use style="stroke:#000000;stroke-width:0.8;" x="72" xlink:href="#m55d8dc8d01" y="393.431351"/>
      </g>
     </g>
     <g id="text_8">
      <!-- 2 -->
      <g transform="translate(58.6375 397.23057)scale(0.1 -0.1)">
       <use xlink:href="#DejaVuSans-32"/>
      </g>
     </g>
    </g>
    <g id="ytick_3">
     <g id="line2d_9">
      <g>
       <use style="stroke:#000000;stroke-width:0.8;" x="72" xlink:href="#m55d8dc8d01" y="312.998919"/>
      </g>
     </g>
     <g id="text_9">
      <!-- 4 -->
      <g transform="translate(58.6375 316.798138)scale(0.1 -0.1)">
       <use xlink:href="#DejaVuSans-34"/>
      </g>
     </g>
    </g>
    <g id="ytick_4">
     <g id="line2d_10">
      <g>
       <use style="stroke:#000000;stroke-width:0.8;" x="72" xlink:href="#m55d8dc8d01" y="232.566486"/>
      </g>
     </g>
     <g id="text_10">
      <!-- 6 -->
      <g transform="translate(58.6375 236.365705)scale(0.1 -0.1)">
       <use xlink:href="#DejaVuSans-36"/>
      </g>
     </g>
    </g>
    <g id="ytick_5">
     <g id="line2d_11">
      <g>
       <use style="stroke:#000000;stroke-width:0.8;" x="72" xlink:href="#m55d8dc8d01" y="152.134054"/>
      </g>
     </g>
     <g id="text_11">
      <!-- 8 -->
      <g transform="translate(58.6375 155.933273)scale(0.1 -0.1)">
       <use xlink:href="#DejaVuSans-38"/>
      </g>
     </g>
    </g>
    <g id="ytick_6">
     <g id="line2d_12">
      <g>
       <use style="stroke:#000000;stroke-width:0.8;" x="72" xlink:href="#m55d8dc8d01" y="71.701622"/>
      </g>
     </g>
     <g id="text_12">
      <!-- 10 -->
      <g transform="translate(52.275 75.50084)scale(0.1 -0.1)">
       <use xlink:href="#DejaVuSans-31"/>
       <use x="63.623047" xlink:href="#DejaVuSans-30"/>
      </g>
     </g>
    </g>
   </g>
   <g id="line2d_13">
    <path clip-path="url(#p6a9c5f6bac)" d="M 140.367568 389.40973 
" style="fill:none;stroke:#1f77b4;stroke-linecap:square;stroke-width:1.5;"/>
    <defs>
     <path d="M -5 5 
L 5 5 
L 5 -5 
L -5 -5 
z
" id="m44abbca849" style="stroke:#8000ff;stroke-linejoin:miter;"/>
    </defs>
    <g clip-path="url(#p6a9c5f6bac)">
     <use style="fill:#8000ff;stroke:#8000ff;stroke-linejoin:miter;" x="140.367568" xlink:href="#m44abbca849" y="389.40973"/>
    </g>
   </g>
   <g id="line2d_14">
    <path clip-path="url(#p6a9c5f6bac)" d="M 393.72973 192.35027 
" style="fill:none;stroke:#ff7f0e;stroke-linecap:square;stroke-width:1.5;"/>
    <defs>
     <path d="M 0 -5 
L -4.755283 -1.545085 
L -2.938926 4.045085 
L 2.938926 4.045085 
L 4.755283 -1.545085 
z
" id="m14ad1daa8f" style="stroke:#8000ff;stroke-linejoin:miter;"/>
    </defs>
    <g clip-path="url(#p6a9c5f6bac)">
     <use style="fill:#8000ff;stroke:#8000ff;stroke-linejoin:miter;" x="393.72973" xlink:href="#m14ad1daa8f" y="192.35027"/>
    </g>
   </g>
   <g id="line2d_15">
    <path clip-path="url(#p6a9c5f6bac)" d="M 450.032432 192.35027 
" style="fill:none;stroke:#2ca02c;stroke-linecap:square;stroke-width:1.5;"/>
    <defs>
     <path d="M -5 5 
L 5 5 
L 5 -5 
L -5 -5 
z
" id="m49ab66e7ca" style="stroke:#4757fb;stroke-linejoin:miter;"/>
    </defs>
    <g clip-path="url(#p6a9c5f6bac)">
     <use style="fill:#4757fb;stroke:#4757fb;stroke-linejoin:miter;" x="450.032432" xlink:href="#m49ab66e7ca" y="192.35027"/>
    </g>
   </g>
   <g id="line2d_16">
    <path clip-path="url(#p6a9c5f6bac)" d="M 224.821622 361.258378 
" style="fill:none;stroke:#d62728;stroke-linecap:square;stroke-width:1.5;"/>
    <defs>
     <path d="M 0 -5 
L -4.755283 -1.545085 
L -2.938926 4.045085 
L 2.938926 4.045085 
L 4.755283 -1.545085 
z
" id="m3e0c4285ff" style="stroke:#4757fb;stroke-linejoin:miter;"/>
    </defs>
    <g clip-path="url(#p6a9c5f6bac)">
     <use style="fill:#4757fb;stroke:#4757fb;stroke-linejoin:miter;" x="224.821622" xlink:href="#m3e0c4285ff" y="361.258378"/>
    </g>
   </g>
   <g id="line2d_17">
    <path clip-path="url(#p6a9c5f6bac)" d="M 402.175135 440.082162 
" style="fill:none;stroke:#9467bd;stroke-linecap:square;stroke-width:1.5;"/>
    <defs>
     <path d="M -5 5 
L 5 5 
L 5 -5 
L -5 -5 
z
" id="mfc844ecbcb" style="stroke:#0ea4f0;stroke-linejoin:miter;"/>
    </defs>
    <g clip-path="url(#p6a9c5f6bac)">
     <use style="fill:#0ea4f0;stroke:#0ea4f0;stroke-linejoin:miter;" x="402.175135" xlink:href="#mfc844ecbcb" y="440.082162"/>
    </g>
   </g>
   <g id="line2d_18">
    <path clip-path="url(#p6a9c5f6bac)" d="M 224.821622 192.35027 
" style="fill:none;stroke:#8c564b;stroke-linecap:square;stroke-width:1.5;"/>
    <defs>
     <path d="M 0 -5 
L -4.755283 -1.545085 
L -2.938926 4.045085 
L 2.938926 4.045085 
L 4.755283 -1.545085 
z
" id="m3e16590c01" style="stroke:#0ea4f0;stroke-linejoin:miter;"/>
    </defs>
    <g clip-path="url(#p6a9c5f6bac)">
     <use style="fill:#0ea4f0;stroke:#0ea4f0;stroke-linejoin:miter;" x="224.821622" xlink:href="#m3e16590c01" y="192.35027"/>
    </g>
   </g>
   <g id="line2d_19">
    <path clip-path="url(#p6a9c5f6bac)" d="M 224.821622 136.047568 
" style="fill:none;stroke:#e377c2;stroke-linecap:square;stroke-width:1.5;"/>
    <defs>
     <path d="M -5 5 
L 5 5 
L 5 -5 
L -5 -5 
z
" id="me9a9d208bd" style="stroke:#2adddd;stroke-linejoin:miter;"/>
    </defs>
    <g clip-path="url(#p6a9c5f6bac)">
     <use style="fill:#2adddd;stroke:#2adddd;stroke-linejoin:miter;" x="224.821622" xlink:href="#me9a9d208bd" y="136.047568"/>
    </g>
   </g>
   <g id="line2d_20">
    <path clip-path="url(#p6a9c5f6bac)" d="M 393.72973 361.258378 
" style="fill:none;stroke:#7f7f7f;stroke-linecap:square;stroke-width:1.5;"/>
    <defs>
     <path d="M 0 -5 
L -4.755283 -1.545085 
L -2.938926 4.045085 
L 2.938926 4.045085 
L 4.755283 -1.545085 
z
" id="m9b24e152e6" style="stroke:#2adddd;stroke-linejoin:miter;"/>
    </defs>
    <g clip-path="url(#p6a9c5f6bac)">
     <use style="fill:#2adddd;stroke:#2adddd;stroke-linejoin:miter;" x="393.72973" xlink:href="#m9b24e152e6" y="361.258378"/>
    </g>
   </g>
   <g id="line2d_21">
    <path clip-path="url(#p6a9c5f6bac)" d="M 450.032432 304.955676 
" style="fill:none;stroke:#bcbd22;stroke-linecap:square;stroke-width:1.5;"/>
    <defs>
     <path d="M -5 5 
L 5 5 
L 5 -5 
L -5 -5 
z
" id="mf6408c6a57" style="stroke:#63fbc3;stroke-linejoin:miter;"/>
    </defs>
    <g clip-path="url(#p6a9c5f6bac)">
     <use style="fill:#63fbc3;stroke:#63fbc3;stroke-linejoin:miter;" x="450.032432" xlink:href="#mf6408c6a57" y="304.955676"/>
    </g>
   </g>
   <g id="line2d_22">
    <path clip-path="url(#p6a9c5f6bac)" d="M 196.67027 248.652973 
" style="fill:none;stroke:#17becf;stroke-linecap:square;stroke-width:1.5;"/>
    <defs>
     <path d="M 0 -5 
L -4.755283 -1.545085 
L -2.938926 4.045085 
L 2.938926 4.045085 
L 4.755283 -1.545085 
z
" id="mab0aa3d961" style="stroke:#63fbc3;stroke-linejoin:miter;"/>
    </defs>
    <g clip-path="url(#p6a9c5f6bac)">
     <use style="fill:#63fbc3;stroke:#63fbc3;stroke-linejoin:miter;" x="196.67027" xlink:href="#mab0aa3d961" y="248.652973"/>
    </g>
   </g>
   <g id="line2d_23">
    <path clip-path="url(#p6a9c5f6bac)" d="M 140.367568 248.652973 
" style="fill:none;stroke:#1f77b4;stroke-linecap:square;stroke-width:1.5;"/>
    <defs>
     <path d="M -5 5 
L 5 5 
L 5 -5 
L -5 -5 
z
" id="mf083e3a713" style="stroke:#9cfba4;stroke-linejoin:miter;"/>
    </defs>
    <g clip-path="url(#p6a9c5f6bac)">
     <use style="fill:#9cfba4;stroke:#9cfba4;stroke-linejoin:miter;" x="140.367568" xlink:href="#mf083e3a713" y="248.652973"/>
    </g>
   </g>
   <g id="line2d_24">
    <path clip-path="url(#p6a9c5f6bac)" d="M 393.72973 276.804324 
" style="fill:none;stroke:#ff7f0e;stroke-linecap:square;stroke-width:1.5;"/>
    <defs>
     <path d="M 0 -5 
L -4.755283 -1.545085 
L -2.938926 4.045085 
L 2.938926 4.045085 
L 4.755283 -1.545085 
z
" id="m13789b291f" style="stroke:#9cfba4;stroke-linejoin:miter;"/>
    </defs>
    <g clip-path="url(#p6a9c5f6bac)">
     <use style="fill:#9cfba4;stroke:#9cfba4;stroke-linejoin:miter;" x="393.72973" xlink:href="#m13789b291f" y="276.804324"/>
    </g>
   </g>
   <g id="line2d_25">
    <path clip-path="url(#p6a9c5f6bac)" d="M 281.124324 192.35027 
" style="fill:none;stroke:#2ca02c;stroke-linecap:square;stroke-width:1.5;"/>
    <defs>
     <path d="M -5 5 
L 5 5 
L 5 -5 
L -5 -5 
z
" id="mf47508ac04" style="stroke:#d4dd80;stroke-linejoin:miter;"/>
    </defs>
    <g clip-path="url(#p6a9c5f6bac)">
     <use style="fill:#d4dd80;stroke:#d4dd80;stroke-linejoin:miter;" x="281.124324" xlink:href="#mf47508ac04" y="192.35027"/>
    </g>
   </g>
   <g id="line2d_26">
    <path clip-path="url(#p6a9c5f6bac)" d="M 281.124324 333.107027 
" style="fill:none;stroke:#d62728;stroke-linecap:square;stroke-width:1.5;"/>
    <defs>
     <path d="M 0 -5 
L -4.755283 -1.545085 
L -2.938926 4.045085 
L 2.938926 4.045085 
L 4.755283 -1.545085 
z
" id="m09e72b620c" style="stroke:#d4dd80;stroke-linejoin:miter;"/>
    </defs>
    <g clip-path="url(#p6a9c5f6bac)">
     <use style="fill:#d4dd80;stroke:#d4dd80;stroke-linejoin:miter;" x="281.124324" xlink:href="#m09e72b620c" y="333.107027"/>
    </g>
   </g>
   <g id="line2d_27">
    <path clip-path="url(#p6a9c5f6bac)" d="M 140.367568 304.955676 
" style="fill:none;stroke:#9467bd;stroke-linecap:square;stroke-width:1.5;"/>
    <defs>
     <path d="M -5 5 
L 5 5 
L 5 -5 
L -5 -5 
z
" id="m9c149c6cfb" style="stroke:#ffa457;stroke-linejoin:miter;"/>
    </defs>
    <g clip-path="url(#p6a9c5f6bac)">
     <use style="fill:#ffa457;stroke:#ffa457;stroke-linejoin:miter;" x="140.367568" xlink:href="#m9c149c6cfb" y="304.955676"/>
    </g>
   </g>
   <g id="line2d_28">
    <path clip-path="url(#p6a9c5f6bac)" d="M 309.275676 276.804324 
" style="fill:none;stroke:#8c564b;stroke-linecap:square;stroke-width:1.5;"/>
    <defs>
     <path d="M 0 -5 
L -4.755283 -1.545085 
L -2.938926 4.045085 
L 2.938926 4.045085 
L 4.755283 -1.545085 
z
" id="mfa1685072b" style="stroke:#ffa457;stroke-linejoin:miter;"/>
    </defs>
    <g clip-path="url(#p6a9c5f6bac)">
     <use style="fill:#ffa457;stroke:#ffa457;stroke-linejoin:miter;" x="309.275676" xlink:href="#mfa1685072b" y="276.804324"/>
    </g>
   </g>
   <g id="line2d_29">
    <path clip-path="url(#p6a9c5f6bac)" d="M 393.72973 220.501622 
" style="fill:none;stroke:#e377c2;stroke-linecap:square;stroke-width:1.5;"/>
    <defs>
     <path d="M -5 5 
L 5 5 
L 5 -5 
L -5 -5 
z
" id="m5bd77fa02b" style="stroke:#ff572c;stroke-linejoin:miter;"/>
    </defs>
    <g clip-path="url(#p6a9c5f6bac)">
     <use style="fill:#ff572c;stroke:#ff572c;stroke-linejoin:miter;" x="393.72973" xlink:href="#m5bd77fa02b" y="220.501622"/>
    </g>
   </g>
   <g id="line2d_30">
    <path clip-path="url(#p6a9c5f6bac)" d="M 140.367568 276.804324 
" style="fill:none;stroke:#7f7f7f;stroke-linecap:square;stroke-width:1.5;"/>
    <defs>
     <path d="M 0 -5 
L -4.755283 -1.545085 
L -2.938926 4.045085 
L 2.938926 4.045085 
L 4.755283 -1.545085 
z
" id="m32e66bb49b" style="stroke:#ff572c;stroke-linejoin:miter;"/>
    </defs>
    <g clip-path="url(#p6a9c5f6bac)">
     <use style="fill:#ff572c;stroke:#ff572c;stroke-linejoin:miter;" x="140.367568" xlink:href="#m32e66bb49b" y="276.804324"/>
    </g>
   </g>
   <g id="line2d_31">
    <path clip-path="url(#p6a9c5f6bac)" d="M 140.367568 136.047568 
" style="fill:none;stroke:#bcbd22;stroke-linecap:square;stroke-width:1.5;"/>
    <defs>
     <path d="M -5 5 
L 5 5 
L 5 -5 
L -5 -5 
z
" id="mb69f3212cc" style="stroke:#ff0000;stroke-linejoin:miter;"/>
    </defs>
    <g clip-path="url(#p6a9c5f6bac)">
     <use style="fill:#ff0000;stroke:#ff0000;stroke-linejoin:miter;" x="140.367568" xlink:href="#mb69f3212cc" y="136.047568"/>
    </g>
   </g>
   <g id="line2d_32">
    <path clip-path="url(#p6a9c5f6bac)" d="M 252.972973 248.652973 
" style="fill:none;stroke:#17becf;stroke-linecap:square;stroke-width:1.5;"/>
    <defs>
     <path d="M 0 -5 
L -4.755283 -1.545085 
L -2.938926 4.045085 
L 2.938926 4.045085 
L 4.755283 -1.545085 
z
" id="m1abb594750" style="stroke:#ff0000;stroke-linejoin:miter;"/>
    </defs>
    <g clip-path="url(#p6a9c5f6bac)">
     <use style="fill:#ff0000;stroke:#ff0000;stroke-linejoin:miter;" x="252.972973" xlink:href="#m1abb594750" y="248.652973"/>
    </g>
   </g>
   <g id="line2d_33">
    <defs>
     <path d="M 0 2.5 
C 0.663008 2.5 1.29895 2.236584 1.767767 1.767767 
C 2.236584 1.29895 2.5 0.663008 2.5 0 
C 2.5 -0.663008 2.236584 -1.29895 1.767767 -1.767767 
C 1.29895 -2.236584 0.663008 -2.5 0 -2.5 
C -0.663008 -2.5 -1.29895 -2.236584 -1.767767 -1.767767 
C -2.236584 -1.29895 -2.5 -0.663008 -2.5 0 
C -2.5 0.663008 -2.236584 1.29895 -1.767767 1.767767 
C -1.29895 2.236584 -0.663008 2.5 0 2.5 
z
" id="m75dc832623" style="stroke:#000000;"/>
    </defs>
    <g clip-path="url(#p6a9c5f6bac)">
     <use style="stroke:#000000;" x="196.67027" xlink:href="#m75dc832623" y="389.40973"/>
     <use style="stroke:#000000;" x="196.67027" xlink:href="#m75dc832623" y="333.107027"/>
     <use style="stroke:#000000;" x="252.972973" xlink:href="#m75dc832623" y="389.40973"/>
     <use style="stroke:#000000;" x="252.972973" xlink:href="#m75dc832623" y="333.107027"/>
     <use style="stroke:#000000;" x="309.275676" xlink:href="#m75dc832623" y="389.40973"/>
     <use style="stroke:#000000;" x="309.275676" xlink:href="#m75dc832623" y="333.107027"/>
     <use style="stroke:#000000;" x="365.578378" xlink:href="#m75dc832623" y="389.40973"/>
     <use style="stroke:#000000;" x="365.578378" xlink:href="#m75dc832623" y="333.107027"/>
     <use style="stroke:#000000;" x="421.881081" xlink:href="#m75dc832623" y="389.40973"/>
     <use style="stroke:#000000;" x="421.881081" xlink:href="#m75dc832623" y="333.107027"/>
     <use style="stroke:#000000;" x="196.67027" xlink:href="#m75dc832623" y="220.501622"/>
     <use style="stroke:#000000;" x="196.67027" xlink:href="#m75dc832623" y="164.198919"/>
     <use style="stroke:#000000;" x="252.972973" xlink:href="#m75dc832623" y="220.501622"/>
     <use style="stroke:#000000;" x="252.972973" xlink:href="#m75dc832623" y="164.198919"/>
     <use style="stroke:#000000;" x="309.275676" xlink:href="#m75dc832623" y="220.501622"/>
     <use style="stroke:#000000;" x="309.275676" xlink:href="#m75dc832623" y="164.198919"/>
     <use style="stroke:#000000;" x="365.578378" xlink:href="#m75dc832623" y="220.501622"/>
     <use style="stroke:#000000;" x="365.578378" xlink:href="#m75dc832623" y="164.198919"/>
     <use style="stroke:#000000;" x="421.881081" xlink:href="#m75dc832623" y="220.501622"/>
     <use style="stroke:#000000;" x="421.881081" xlink:href="#m75dc832623" y="164.198919"/>
    </g>
   </g>
   <g id="line2d_34">
    <path clip-path="url(#p6a9c5f6bac)" d="M 212.354595 389.40973 
L 211.504775 384.317038 
L 209.047406 379.776218 
L 205.248783 376.279339 
L 200.520544 374.205342 
L 195.375069 373.778975 
L 190.369949 375.046444 
L 186.047566 377.870397 
L 182.876319 381.944816 
L 181.19986 386.828175 
L 181.19986 391.991285 
L 182.876319 396.874643 
L 186.047566 400.949062 
L 190.369949 403.773016 
L 195.375069 405.040484 
L 200.520544 404.614118 
L 205.248783 402.54012 
L 209.047406 399.043241 
L 211.504775 394.502422 
L 212.354595 389.40973 
" style="fill:none;stroke:#000000;stroke-dasharray:5.55,2.4;stroke-dashoffset:0;stroke-width:1.5;"/>
   </g>
   <g id="line2d_35">
    <path clip-path="url(#p6a9c5f6bac)" d="M 201.094054 389.40973 
L 200.854361 387.973329 
L 200.161257 386.692585 
L 199.089851 385.706286 
L 197.756245 385.121313 
L 196.304957 385.001055 
L 194.893257 385.358547 
L 193.674123 386.155046 
L 192.779669 387.304241 
L 192.306821 388.681599 
L 192.306821 390.137861 
L 192.779669 391.515218 
L 193.674123 392.664413 
L 194.893257 393.460913 
L 196.304957 393.818404 
L 197.756245 393.698147 
L 199.089851 393.113173 
L 200.161257 392.126874 
L 200.854361 390.84613 
L 201.094054 389.40973 
" style="fill:none;stroke:#ff0000;stroke-linecap:square;stroke-width:1.5;"/>
   </g>
   <g id="line2d_36">
    <path clip-path="url(#p6a9c5f6bac)" d="M 212.354595 333.107027 
L 211.504775 328.014335 
L 209.047406 323.473516 
L 205.248783 319.976636 
L 200.520544 317.902639 
L 195.375069 317.476273 
L 190.369949 318.743741 
L 186.047566 321.567695 
L 182.876319 325.642114 
L 181.19986 330.525472 
L 181.19986 335.688582 
L 182.876319 340.57194 
L 186.047566 344.646359 
L 190.369949 347.470313 
L 195.375069 348.737781 
L 200.520544 348.311415 
L 205.248783 346.237418 
L 209.047406 342.740538 
L 211.504775 338.199719 
L 212.354595 333.107027 
" style="fill:none;stroke:#000000;stroke-dasharray:5.55,2.4;stroke-dashoffset:0;stroke-width:1.5;"/>
   </g>
   <g id="line2d_37">
    <path clip-path="url(#p6a9c5f6bac)" d="M 201.094054 333.107027 
L 200.854361 331.670627 
L 200.161257 330.389883 
L 199.089851 329.403584 
L 197.756245 328.81861 
L 196.304957 328.698353 
L 194.893257 329.055844 
L 193.674123 329.852344 
L 192.779669 331.001539 
L 192.306821 332.378896 
L 192.306821 333.835158 
L 192.779669 335.212515 
L 193.674123 336.361711 
L 194.893257 337.15821 
L 196.304957 337.515701 
L 197.756245 337.395444 
L 199.089851 336.810471 
L 200.161257 335.824171 
L 200.854361 334.543427 
L 201.094054 333.107027 
" style="fill:none;stroke:#ff0000;stroke-linecap:square;stroke-width:1.5;"/>
   </g>
   <g id="line2d_38">
    <path clip-path="url(#p6a9c5f6bac)" d="M 268.657297 389.40973 
L 267.807477 384.317038 
L 265.350109 379.776218 
L 261.551485 376.279339 
L 256.823247 374.205342 
L 251.677772 373.778975 
L 246.672652 375.046444 
L 242.350269 377.870397 
L 239.179021 381.944816 
L 237.502562 386.828175 
L 237.502562 391.991285 
L 239.179021 396.874643 
L 242.350269 400.949062 
L 246.672652 403.773016 
L 251.677772 405.040484 
L 256.823247 404.614118 
L 261.551485 402.54012 
L 265.350109 399.043241 
L 267.807477 394.502422 
L 268.657297 389.40973 
" style="fill:none;stroke:#000000;stroke-dasharray:5.55,2.4;stroke-dashoffset:0;stroke-width:1.5;"/>
   </g>
   <g id="line2d_39">
    <path clip-path="url(#p6a9c5f6bac)" d="M 257.396757 389.40973 
L 257.157064 387.973329 
L 256.46396 386.692585 
L 255.392553 385.706286 
L 254.058948 385.121313 
L 252.60766 385.001055 
L 251.195959 385.358547 
L 249.976826 386.155046 
L 249.082371 387.304241 
L 248.609524 388.681599 
L 248.609524 390.137861 
L 249.082371 391.515218 
L 249.976826 392.664413 
L 251.195959 393.460913 
L 252.60766 393.818404 
L 254.058948 393.698147 
L 255.392553 393.113173 
L 256.46396 392.126874 
L 257.157064 390.84613 
L 257.396757 389.40973 
" style="fill:none;stroke:#ff0000;stroke-linecap:square;stroke-width:1.5;"/>
   </g>
   <g id="line2d_40">
    <path clip-path="url(#p6a9c5f6bac)" d="M 268.657297 333.107027 
L 267.807477 328.014335 
L 265.350109 323.473516 
L 261.551485 319.976636 
L 256.823247 317.902639 
L 251.677772 317.476273 
L 246.672652 318.743741 
L 242.350269 321.567695 
L 239.179021 325.642114 
L 237.502562 330.525472 
L 237.502562 335.688582 
L 239.179021 340.57194 
L 242.350269 344.646359 
L 246.672652 347.470313 
L 251.677772 348.737781 
L 256.823247 348.311415 
L 261.551485 346.237418 
L 265.350109 342.740538 
L 267.807477 338.199719 
L 268.657297 333.107027 
" style="fill:none;stroke:#000000;stroke-dasharray:5.55,2.4;stroke-dashoffset:0;stroke-width:1.5;"/>
   </g>
   <g id="line2d_41">
    <path clip-path="url(#p6a9c5f6bac)" d="M 257.396757 333.107027 
L 257.157064 331.670627 
L 256.46396 330.389883 
L 255.392553 329.403584 
L 254.058948 328.81861 
L 252.60766 328.698353 
L 251.195959 329.055844 
L 249.976826 329.852344 
L 249.082371 331.001539 
L 248.609524 332.378896 
L 248.609524 333.835158 
L 249.082371 335.212515 
L 249.976826 336.361711 
L 251.195959 337.15821 
L 252.60766 337.515701 
L 254.058948 337.395444 
L 255.392553 336.810471 
L 256.46396 335.824171 
L 257.157064 334.543427 
L 257.396757 333.107027 
" style="fill:none;stroke:#ff0000;stroke-linecap:square;stroke-width:1.5;"/>
   </g>
   <g id="line2d_42">
    <path clip-path="url(#p6a9c5f6bac)" d="M 324.96 389.40973 
L 324.11018 384.317038 
L 321.652811 379.776218 
L 317.854188 376.279339 
L 313.12595 374.205342 
L 307.980474 373.778975 
L 302.975354 375.046444 
L 298.652972 377.870397 
L 295.481724 381.944816 
L 293.805265 386.828175 
L 293.805265 391.991285 
L 295.481724 396.874643 
L 298.652972 400.949062 
L 302.975354 403.773016 
L 307.980474 405.040484 
L 313.12595 404.614118 
L 317.854188 402.54012 
L 321.652811 399.043241 
L 324.11018 394.502422 
L 324.96 389.40973 
" style="fill:none;stroke:#000000;stroke-dasharray:5.55,2.4;stroke-dashoffset:0;stroke-width:1.5;"/>
   </g>
   <g id="line2d_43">
    <path clip-path="url(#p6a9c5f6bac)" d="M 313.699459 389.40973 
L 313.459767 387.973329 
L 312.766663 386.692585 
L 311.695256 385.706286 
L 310.36165 385.121313 
L 308.910363 385.001055 
L 307.498662 385.358547 
L 306.279528 386.155046 
L 305.385074 387.304241 
L 304.912227 388.681599 
L 304.912227 390.137861 
L 305.385074 391.515218 
L 306.279528 392.664413 
L 307.498662 393.460913 
L 308.910363 393.818404 
L 310.36165 393.698147 
L 311.695256 393.113173 
L 312.766663 392.126874 
L 313.459767 390.84613 
L 313.699459 389.40973 
" style="fill:none;stroke:#ff0000;stroke-linecap:square;stroke-width:1.5;"/>
   </g>
   <g id="line2d_44">
    <path clip-path="url(#p6a9c5f6bac)" d="M 324.96 333.107027 
L 324.11018 328.014335 
L 321.652811 323.473516 
L 317.854188 319.976636 
L 313.12595 317.902639 
L 307.980474 317.476273 
L 302.975354 318.743741 
L 298.652972 321.567695 
L 295.481724 325.642114 
L 293.805265 330.525472 
L 293.805265 335.688582 
L 295.481724 340.57194 
L 298.652972 344.646359 
L 302.975354 347.470313 
L 307.980474 348.737781 
L 313.12595 348.311415 
L 317.854188 346.237418 
L 321.652811 342.740538 
L 324.11018 338.199719 
L 324.96 333.107027 
" style="fill:none;stroke:#000000;stroke-dasharray:5.55,2.4;stroke-dashoffset:0;stroke-width:1.5;"/>
   </g>
   <g id="line2d_45">
    <path clip-path="url(#p6a9c5f6bac)" d="M 313.699459 333.107027 
L 313.459767 331.670627 
L 312.766663 330.389883 
L 311.695256 329.403584 
L 310.36165 328.81861 
L 308.910363 328.698353 
L 307.498662 329.055844 
L 306.279528 329.852344 
L 305.385074 331.001539 
L 304.912227 332.378896 
L 304.912227 333.835158 
L 305.385074 335.212515 
L 306.279528 336.361711 
L 307.498662 337.15821 
L 308.910363 337.515701 
L 310.36165 337.395444 
L 311.695256 336.810471 
L 312.766663 335.824171 
L 313.459767 334.543427 
L 313.699459 333.107027 
" style="fill:none;stroke:#ff0000;stroke-linecap:square;stroke-width:1.5;"/>
   </g>
   <g id="line2d_46">
    <path clip-path="url(#p6a9c5f6bac)" d="M 381.262703 389.40973 
L 380.412883 384.317038 
L 377.955514 379.776218 
L 374.156891 376.279339 
L 369.428652 374.205342 
L 364.283177 373.778975 
L 359.278057 375.046444 
L 354.955675 377.870397 
L 351.784427 381.944816 
L 350.107968 386.828175 
L 350.107968 391.991285 
L 351.784427 396.874643 
L 354.955675 400.949062 
L 359.278057 403.773016 
L 364.283177 405.040484 
L 369.428652 404.614118 
L 374.156891 402.54012 
L 377.955514 399.043241 
L 380.412883 394.502422 
L 381.262703 389.40973 
" style="fill:none;stroke:#000000;stroke-dasharray:5.55,2.4;stroke-dashoffset:0;stroke-width:1.5;"/>
   </g>
   <g id="line2d_47">
    <path clip-path="url(#p6a9c5f6bac)" d="M 370.002162 389.40973 
L 369.762469 387.973329 
L 369.069365 386.692585 
L 367.997959 385.706286 
L 366.664353 385.121313 
L 365.213065 385.001055 
L 363.801365 385.358547 
L 362.582231 386.155046 
L 361.687777 387.304241 
L 361.214929 388.681599 
L 361.214929 390.137861 
L 361.687777 391.515218 
L 362.582231 392.664413 
L 363.801365 393.460913 
L 365.213065 393.818404 
L 366.664353 393.698147 
L 367.997959 393.113173 
L 369.069365 392.126874 
L 369.762469 390.84613 
L 370.002162 389.40973 
" style="fill:none;stroke:#ff0000;stroke-linecap:square;stroke-width:1.5;"/>
   </g>
   <g id="line2d_48">
    <path clip-path="url(#p6a9c5f6bac)" d="M 381.262703 333.107027 
L 380.412883 328.014335 
L 377.955514 323.473516 
L 374.156891 319.976636 
L 369.428652 317.902639 
L 364.283177 317.476273 
L 359.278057 318.743741 
L 354.955675 321.567695 
L 351.784427 325.642114 
L 350.107968 330.525472 
L 350.107968 335.688582 
L 351.784427 340.57194 
L 354.955675 344.646359 
L 359.278057 347.470313 
L 364.283177 348.737781 
L 369.428652 348.311415 
L 374.156891 346.237418 
L 377.955514 342.740538 
L 380.412883 338.199719 
L 381.262703 333.107027 
" style="fill:none;stroke:#000000;stroke-dasharray:5.55,2.4;stroke-dashoffset:0;stroke-width:1.5;"/>
   </g>
   <g id="line2d_49">
    <path clip-path="url(#p6a9c5f6bac)" d="M 370.002162 333.107027 
L 369.762469 331.670627 
L 369.069365 330.389883 
L 367.997959 329.403584 
L 366.664353 328.81861 
L 365.213065 328.698353 
L 363.801365 329.055844 
L 362.582231 329.852344 
L 361.687777 331.001539 
L 361.214929 332.378896 
L 361.214929 333.835158 
L 361.687777 335.212515 
L 362.582231 336.361711 
L 363.801365 337.15821 
L 365.213065 337.515701 
L 366.664353 337.395444 
L 367.997959 336.810471 
L 369.069365 335.824171 
L 369.762469 334.543427 
L 370.002162 333.107027 
" style="fill:none;stroke:#ff0000;stroke-linecap:square;stroke-width:1.5;"/>
   </g>
   <g id="line2d_50">
    <path clip-path="url(#p6a9c5f6bac)" d="M 437.565405 389.40973 
L 436.715585 384.317038 
L 434.258217 379.776218 
L 430.459593 376.279339 
L 425.731355 374.205342 
L 420.58588 373.778975 
L 415.58076 375.046444 
L 411.258377 377.870397 
L 408.08713 381.944816 
L 406.41067 386.828175 
L 406.41067 391.991285 
L 408.08713 396.874643 
L 411.258377 400.949062 
L 415.58076 403.773016 
L 420.58588 405.040484 
L 425.731355 404.614118 
L 430.459593 402.54012 
L 434.258217 399.043241 
L 436.715585 394.502422 
L 437.565405 389.40973 
" style="fill:none;stroke:#000000;stroke-dasharray:5.55,2.4;stroke-dashoffset:0;stroke-width:1.5;"/>
   </g>
   <g id="line2d_51">
    <path clip-path="url(#p6a9c5f6bac)" d="M 426.304865 389.40973 
L 426.065172 387.973329 
L 425.372068 386.692585 
L 424.300661 385.706286 
L 422.967056 385.121313 
L 421.515768 385.001055 
L 420.104067 385.358547 
L 418.884934 386.155046 
L 417.990479 387.304241 
L 417.517632 388.681599 
L 417.517632 390.137861 
L 417.990479 391.515218 
L 418.884934 392.664413 
L 420.104067 393.460913 
L 421.515768 393.818404 
L 422.967056 393.698147 
L 424.300661 393.113173 
L 425.372068 392.126874 
L 426.065172 390.84613 
L 426.304865 389.40973 
" style="fill:none;stroke:#ff0000;stroke-linecap:square;stroke-width:1.5;"/>
   </g>
   <g id="line2d_52">
    <path clip-path="url(#p6a9c5f6bac)" d="M 437.565405 333.107027 
L 436.715585 328.014335 
L 434.258217 323.473516 
L 430.459593 319.976636 
L 425.731355 317.902639 
L 420.58588 317.476273 
L 415.58076 318.743741 
L 411.258377 321.567695 
L 408.08713 325.642114 
L 406.41067 330.525472 
L 406.41067 335.688582 
L 408.08713 340.57194 
L 411.258377 344.646359 
L 415.58076 347.470313 
L 420.58588 348.737781 
L 425.731355 348.311415 
L 430.459593 346.237418 
L 434.258217 342.740538 
L 436.715585 338.199719 
L 437.565405 333.107027 
" style="fill:none;stroke:#000000;stroke-dasharray:5.55,2.4;stroke-dashoffset:0;stroke-width:1.5;"/>
   </g>
   <g id="line2d_53">
    <path clip-path="url(#p6a9c5f6bac)" d="M 426.304865 333.107027 
L 426.065172 331.670627 
L 425.372068 330.389883 
L 424.300661 329.403584 
L 422.967056 328.81861 
L 421.515768 328.698353 
L 420.104067 329.055844 
L 418.884934 329.852344 
L 417.990479 331.001539 
L 417.517632 332.378896 
L 417.517632 333.835158 
L 417.990479 335.212515 
L 418.884934 336.361711 
L 420.104067 337.15821 
L 421.515768 337.515701 
L 422.967056 337.395444 
L 424.300661 336.810471 
L 425.372068 335.824171 
L 426.065172 334.543427 
L 426.304865 333.107027 
" style="fill:none;stroke:#ff0000;stroke-linecap:square;stroke-width:1.5;"/>
   </g>
   <g id="line2d_54">
    <path clip-path="url(#p6a9c5f6bac)" d="M 212.354595 220.501622 
L 211.504775 215.40893 
L 209.047406 210.86811 
L 205.248783 207.371231 
L 200.520544 205.297233 
L 195.375069 204.870867 
L 190.369949 206.138336 
L 186.047566 208.962289 
L 182.876319 213.036708 
L 181.19986 217.920067 
L 181.19986 223.083177 
L 182.876319 227.966535 
L 186.047566 232.040954 
L 190.369949 234.864907 
L 195.375069 236.132376 
L 200.520544 235.70601 
L 205.248783 233.632012 
L 209.047406 230.135133 
L 211.504775 225.594313 
L 212.354595 220.501622 
" style="fill:none;stroke:#000000;stroke-dasharray:5.55,2.4;stroke-dashoffset:0;stroke-width:1.5;"/>
   </g>
   <g id="line2d_55">
    <path clip-path="url(#p6a9c5f6bac)" d="M 201.094054 220.501622 
L 200.854361 219.065221 
L 200.161257 217.784477 
L 199.089851 216.798178 
L 197.756245 216.213204 
L 196.304957 216.092947 
L 194.893257 216.450438 
L 193.674123 217.246938 
L 192.779669 218.396133 
L 192.306821 219.773491 
L 192.306821 221.229753 
L 192.779669 222.60711 
L 193.674123 223.756305 
L 194.893257 224.552805 
L 196.304957 224.910296 
L 197.756245 224.790039 
L 199.089851 224.205065 
L 200.161257 223.218766 
L 200.854361 221.938022 
L 201.094054 220.501622 
" style="fill:none;stroke:#ff0000;stroke-linecap:square;stroke-width:1.5;"/>
   </g>
   <g id="line2d_56">
    <path clip-path="url(#p6a9c5f6bac)" d="M 212.354595 164.198919 
L 211.504775 159.106227 
L 209.047406 154.565408 
L 205.248783 151.068528 
L 200.520544 148.994531 
L 195.375069 148.568165 
L 190.369949 149.835633 
L 186.047566 152.659586 
L 182.876319 156.734006 
L 181.19986 161.617364 
L 181.19986 166.780474 
L 182.876319 171.663832 
L 186.047566 175.738251 
L 190.369949 178.562205 
L 195.375069 179.829673 
L 200.520544 179.403307 
L 205.248783 177.329309 
L 209.047406 173.83243 
L 211.504775 169.291611 
L 212.354595 164.198919 
" style="fill:none;stroke:#000000;stroke-dasharray:5.55,2.4;stroke-dashoffset:0;stroke-width:1.5;"/>
   </g>
   <g id="line2d_57">
    <path clip-path="url(#p6a9c5f6bac)" d="M 201.094054 164.198919 
L 200.854361 162.762519 
L 200.161257 161.481775 
L 199.089851 160.495475 
L 197.756245 159.910502 
L 196.304957 159.790245 
L 194.893257 160.147736 
L 193.674123 160.944235 
L 192.779669 162.093431 
L 192.306821 163.470788 
L 192.306821 164.92705 
L 192.779669 166.304407 
L 193.674123 167.453602 
L 194.893257 168.250102 
L 196.304957 168.607593 
L 197.756245 168.487336 
L 199.089851 167.902362 
L 200.161257 166.916063 
L 200.854361 165.635319 
L 201.094054 164.198919 
" style="fill:none;stroke:#ff0000;stroke-linecap:square;stroke-width:1.5;"/>
   </g>
   <g id="line2d_58">
    <path clip-path="url(#p6a9c5f6bac)" d="M 268.657297 220.501622 
L 267.807477 215.40893 
L 265.350109 210.86811 
L 261.551485 207.371231 
L 256.823247 205.297233 
L 251.677772 204.870867 
L 246.672652 206.138336 
L 242.350269 208.962289 
L 239.179021 213.036708 
L 237.502562 217.920067 
L 237.502562 223.083177 
L 239.179021 227.966535 
L 242.350269 232.040954 
L 246.672652 234.864907 
L 251.677772 236.132376 
L 256.823247 235.70601 
L 261.551485 233.632012 
L 265.350109 230.135133 
L 267.807477 225.594313 
L 268.657297 220.501622 
" style="fill:none;stroke:#000000;stroke-dasharray:5.55,2.4;stroke-dashoffset:0;stroke-width:1.5;"/>
   </g>
   <g id="line2d_59">
    <path clip-path="url(#p6a9c5f6bac)" d="M 257.396757 220.501622 
L 257.157064 219.065221 
L 256.46396 217.784477 
L 255.392553 216.798178 
L 254.058948 216.213204 
L 252.60766 216.092947 
L 251.195959 216.450438 
L 249.976826 217.246938 
L 249.082371 218.396133 
L 248.609524 219.773491 
L 248.609524 221.229753 
L 249.082371 222.60711 
L 249.976826 223.756305 
L 251.195959 224.552805 
L 252.60766 224.910296 
L 254.058948 224.790039 
L 255.392553 224.205065 
L 256.46396 223.218766 
L 257.157064 221.938022 
L 257.396757 220.501622 
" style="fill:none;stroke:#ff0000;stroke-linecap:square;stroke-width:1.5;"/>
   </g>
   <g id="line2d_60">
    <path clip-path="url(#p6a9c5f6bac)" d="M 268.657297 164.198919 
L 267.807477 159.106227 
L 265.350109 154.565408 
L 261.551485 151.068528 
L 256.823247 148.994531 
L 251.677772 148.568165 
L 246.672652 149.835633 
L 242.350269 152.659586 
L 239.179021 156.734006 
L 237.502562 161.617364 
L 237.502562 166.780474 
L 239.179021 171.663832 
L 242.350269 175.738251 
L 246.672652 178.562205 
L 251.677772 179.829673 
L 256.823247 179.403307 
L 261.551485 177.329309 
L 265.350109 173.83243 
L 267.807477 169.291611 
L 268.657297 164.198919 
" style="fill:none;stroke:#000000;stroke-dasharray:5.55,2.4;stroke-dashoffset:0;stroke-width:1.5;"/>
   </g>
   <g id="line2d_61">
    <path clip-path="url(#p6a9c5f6bac)" d="M 257.396757 164.198919 
L 257.157064 162.762519 
L 256.46396 161.481775 
L 255.392553 160.495475 
L 254.058948 159.910502 
L 252.60766 159.790245 
L 251.195959 160.147736 
L 249.976826 160.944235 
L 249.082371 162.093431 
L 248.609524 163.470788 
L 248.609524 164.92705 
L 249.082371 166.304407 
L 249.976826 167.453602 
L 251.195959 168.250102 
L 252.60766 168.607593 
L 254.058948 168.487336 
L 255.392553 167.902362 
L 256.46396 166.916063 
L 257.157064 165.635319 
L 257.396757 164.198919 
" style="fill:none;stroke:#ff0000;stroke-linecap:square;stroke-width:1.5;"/>
   </g>
   <g id="line2d_62">
    <path clip-path="url(#p6a9c5f6bac)" d="M 324.96 220.501622 
L 324.11018 215.40893 
L 321.652811 210.86811 
L 317.854188 207.371231 
L 313.12595 205.297233 
L 307.980474 204.870867 
L 302.975354 206.138336 
L 298.652972 208.962289 
L 295.481724 213.036708 
L 293.805265 217.920067 
L 293.805265 223.083177 
L 295.481724 227.966535 
L 298.652972 232.040954 
L 302.975354 234.864907 
L 307.980474 236.132376 
L 313.12595 235.70601 
L 317.854188 233.632012 
L 321.652811 230.135133 
L 324.11018 225.594313 
L 324.96 220.501622 
" style="fill:none;stroke:#000000;stroke-dasharray:5.55,2.4;stroke-dashoffset:0;stroke-width:1.5;"/>
   </g>
   <g id="line2d_63">
    <path clip-path="url(#p6a9c5f6bac)" d="M 313.699459 220.501622 
L 313.459767 219.065221 
L 312.766663 217.784477 
L 311.695256 216.798178 
L 310.36165 216.213204 
L 308.910363 216.092947 
L 307.498662 216.450438 
L 306.279528 217.246938 
L 305.385074 218.396133 
L 304.912227 219.773491 
L 304.912227 221.229753 
L 305.385074 222.60711 
L 306.279528 223.756305 
L 307.498662 224.552805 
L 308.910363 224.910296 
L 310.36165 224.790039 
L 311.695256 224.205065 
L 312.766663 223.218766 
L 313.459767 221.938022 
L 313.699459 220.501622 
" style="fill:none;stroke:#ff0000;stroke-linecap:square;stroke-width:1.5;"/>
   </g>
   <g id="line2d_64">
    <path clip-path="url(#p6a9c5f6bac)" d="M 324.96 164.198919 
L 324.11018 159.106227 
L 321.652811 154.565408 
L 317.854188 151.068528 
L 313.12595 148.994531 
L 307.980474 148.568165 
L 302.975354 149.835633 
L 298.652972 152.659586 
L 295.481724 156.734006 
L 293.805265 161.617364 
L 293.805265 166.780474 
L 295.481724 171.663832 
L 298.652972 175.738251 
L 302.975354 178.562205 
L 307.980474 179.829673 
L 313.12595 179.403307 
L 317.854188 177.329309 
L 321.652811 173.83243 
L 324.11018 169.291611 
L 324.96 164.198919 
" style="fill:none;stroke:#000000;stroke-dasharray:5.55,2.4;stroke-dashoffset:0;stroke-width:1.5;"/>
   </g>
   <g id="line2d_65">
    <path clip-path="url(#p6a9c5f6bac)" d="M 313.699459 164.198919 
L 313.459767 162.762519 
L 312.766663 161.481775 
L 311.695256 160.495475 
L 310.36165 159.910502 
L 308.910363 159.790245 
L 307.498662 160.147736 
L 306.279528 160.944235 
L 305.385074 162.093431 
L 304.912227 163.470788 
L 304.912227 164.92705 
L 305.385074 166.304407 
L 306.279528 167.453602 
L 307.498662 168.250102 
L 308.910363 168.607593 
L 310.36165 168.487336 
L 311.695256 167.902362 
L 312.766663 166.916063 
L 313.459767 165.635319 
L 313.699459 164.198919 
" style="fill:none;stroke:#ff0000;stroke-linecap:square;stroke-width:1.5;"/>
   </g>
   <g id="line2d_66">
    <path clip-path="url(#p6a9c5f6bac)" d="M 381.262703 220.501622 
L 380.412883 215.40893 
L 377.955514 210.86811 
L 374.156891 207.371231 
L 369.428652 205.297233 
L 364.283177 204.870867 
L 359.278057 206.138336 
L 354.955675 208.962289 
L 351.784427 213.036708 
L 350.107968 217.920067 
L 350.107968 223.083177 
L 351.784427 227.966535 
L 354.955675 232.040954 
L 359.278057 234.864907 
L 364.283177 236.132376 
L 369.428652 235.70601 
L 374.156891 233.632012 
L 377.955514 230.135133 
L 380.412883 225.594313 
L 381.262703 220.501622 
" style="fill:none;stroke:#000000;stroke-dasharray:5.55,2.4;stroke-dashoffset:0;stroke-width:1.5;"/>
   </g>
   <g id="line2d_67">
    <path clip-path="url(#p6a9c5f6bac)" d="M 370.002162 220.501622 
L 369.762469 219.065221 
L 369.069365 217.784477 
L 367.997959 216.798178 
L 366.664353 216.213204 
L 365.213065 216.092947 
L 363.801365 216.450438 
L 362.582231 217.246938 
L 361.687777 218.396133 
L 361.214929 219.773491 
L 361.214929 221.229753 
L 361.687777 222.60711 
L 362.582231 223.756305 
L 363.801365 224.552805 
L 365.213065 224.910296 
L 366.664353 224.790039 
L 367.997959 224.205065 
L 369.069365 223.218766 
L 369.762469 221.938022 
L 370.002162 220.501622 
" style="fill:none;stroke:#ff0000;stroke-linecap:square;stroke-width:1.5;"/>
   </g>
   <g id="line2d_68">
    <path clip-path="url(#p6a9c5f6bac)" d="M 381.262703 164.198919 
L 380.412883 159.106227 
L 377.955514 154.565408 
L 374.156891 151.068528 
L 369.428652 148.994531 
L 364.283177 148.568165 
L 359.278057 149.835633 
L 354.955675 152.659586 
L 351.784427 156.734006 
L 350.107968 161.617364 
L 350.107968 166.780474 
L 351.784427 171.663832 
L 354.955675 175.738251 
L 359.278057 178.562205 
L 364.283177 179.829673 
L 369.428652 179.403307 
L 374.156891 177.329309 
L 377.955514 173.83243 
L 380.412883 169.291611 
L 381.262703 164.198919 
" style="fill:none;stroke:#000000;stroke-dasharray:5.55,2.4;stroke-dashoffset:0;stroke-width:1.5;"/>
   </g>
   <g id="line2d_69">
    <path clip-path="url(#p6a9c5f6bac)" d="M 370.002162 164.198919 
L 369.762469 162.762519 
L 369.069365 161.481775 
L 367.997959 160.495475 
L 366.664353 159.910502 
L 365.213065 159.790245 
L 363.801365 160.147736 
L 362.582231 160.944235 
L 361.687777 162.093431 
L 361.214929 163.470788 
L 361.214929 164.92705 
L 361.687777 166.304407 
L 362.582231 167.453602 
L 363.801365 168.250102 
L 365.213065 168.607593 
L 366.664353 168.487336 
L 367.997959 167.902362 
L 369.069365 166.916063 
L 369.762469 165.635319 
L 370.002162 164.198919 
" style="fill:none;stroke:#ff0000;stroke-linecap:square;stroke-width:1.5;"/>
   </g>
   <g id="line2d_70">
    <path clip-path="url(#p6a9c5f6bac)" d="M 437.565405 220.501622 
L 436.715585 215.40893 
L 434.258217 210.86811 
L 430.459593 207.371231 
L 425.731355 205.297233 
L 420.58588 204.870867 
L 415.58076 206.138336 
L 411.258377 208.962289 
L 408.08713 213.036708 
L 406.41067 217.920067 
L 406.41067 223.083177 
L 408.08713 227.966535 
L 411.258377 232.040954 
L 415.58076 234.864907 
L 420.58588 236.132376 
L 425.731355 235.70601 
L 430.459593 233.632012 
L 434.258217 230.135133 
L 436.715585 225.594313 
L 437.565405 220.501622 
" style="fill:none;stroke:#000000;stroke-dasharray:5.55,2.4;stroke-dashoffset:0;stroke-width:1.5;"/>
   </g>
   <g id="line2d_71">
    <path clip-path="url(#p6a9c5f6bac)" d="M 426.304865 220.501622 
L 426.065172 219.065221 
L 425.372068 217.784477 
L 424.300661 216.798178 
L 422.967056 216.213204 
L 421.515768 216.092947 
L 420.104067 216.450438 
L 418.884934 217.246938 
L 417.990479 218.396133 
L 417.517632 219.773491 
L 417.517632 221.229753 
L 417.990479 222.60711 
L 418.884934 223.756305 
L 420.104067 224.552805 
L 421.515768 224.910296 
L 422.967056 224.790039 
L 424.300661 224.205065 
L 425.372068 223.218766 
L 426.065172 221.938022 
L 426.304865 220.501622 
" style="fill:none;stroke:#ff0000;stroke-linecap:square;stroke-width:1.5;"/>
   </g>
   <g id="line2d_72">
    <path clip-path="url(#p6a9c5f6bac)" d="M 437.565405 164.198919 
L 436.715585 159.106227 
L 434.258217 154.565408 
L 430.459593 151.068528 
L 425.731355 148.994531 
L 420.58588 148.568165 
L 415.58076 149.835633 
L 411.258377 152.659586 
L 408.08713 156.734006 
L 406.41067 161.617364 
L 406.41067 166.780474 
L 408.08713 171.663832 
L 411.258377 175.738251 
L 415.58076 178.562205 
L 420.58588 179.829673 
L 425.731355 179.403307 
L 430.459593 177.329309 
L 434.258217 173.83243 
L 436.715585 169.291611 
L 437.565405 164.198919 
" style="fill:none;stroke:#000000;stroke-dasharray:5.55,2.4;stroke-dashoffset:0;stroke-width:1.5;"/>
   </g>
   <g id="line2d_73">
    <path clip-path="url(#p6a9c5f6bac)" d="M 426.304865 164.198919 
L 426.065172 162.762519 
L 425.372068 161.481775 
L 424.300661 160.495475 
L 422.967056 159.910502 
L 421.515768 159.790245 
L 420.104067 160.147736 
L 418.884934 160.944235 
L 417.990479 162.093431 
L 417.517632 163.470788 
L 417.517632 164.92705 
L 417.990479 166.304407 
L 418.884934 167.453602 
L 420.104067 168.250102 
L 421.515768 168.607593 
L 422.967056 168.487336 
L 424.300661 167.902362 
L 425.372068 166.916063 
L 426.065172 165.635319 
L 426.304865 164.198919 
" style="fill:none;stroke:#ff0000;stroke-linecap:square;stroke-width:1.5;"/>
   </g>
   <g id="line2d_74">
    <path clip-path="url(#p6a9c5f6bac)" d="M 92.108108 493.971892 
L 92.108108 87.788108 
" style="fill:none;stroke:#000000;stroke-linecap:square;stroke-width:4;"/>
   </g>
   <g id="line2d_75">
    <path clip-path="url(#p6a9c5f6bac)" d="M 92.108108 87.788108 
L 498.291892 87.788108 
" style="fill:none;stroke:#000000;stroke-linecap:square;stroke-width:4;"/>
   </g>
   <g id="line2d_76">
    <path clip-path="url(#p6a9c5f6bac)" d="M 498.291892 87.788108 
L 498.291892 493.971892 
" style="fill:none;stroke:#000000;stroke-linecap:square;stroke-width:4;"/>
   </g>
   <g id="line2d_77">
    <path clip-path="url(#p6a9c5f6bac)" d="M 498.291892 493.971892 
L 92.108108 493.971892 
" style="fill:none;stroke:#000000;stroke-linecap:square;stroke-width:4;"/>
   </g>
   <g id="line2d_78">
    <path clip-path="url(#p6a9c5f6bac)" d="M 140.367568 389.40973 
L 141.292541 389.40973 
L 143.504432 389.208649 
L 145.515243 388.685838 
L 147.727135 387.841297 
L 149.858595 386.795676 
L 153.960649 384.30227 
L 160.877838 379.275243 
L 173.787243 369.060324 
L 187.219459 357.960649 
L 189.029189 356.834595 
L 190.959568 355.869405 
L 192.809514 355.105297 
L 195.222486 354.54227 
L 197.957189 354.341189 
L 204.874378 354.260757 
L 209.418811 353.979243 
L 216.054486 353.215135 
L 222.931459 352.129297 
L 232.261622 350.480432 
L 234.151784 350.359784 
L 236.323459 350.359784 
L 240.867892 350.761946 
L 247.825297 351.646703 
L 252.570811 352.290162 
L 256.83373 352.652108 
L 261.619459 352.732541 
L 265.962811 352.491243 
L 269.743135 352.169514 
L 273.724541 351.445622 
L 276.217946 351.405405 
L 278.630919 351.928216 
L 291.942486 356.110703 
L 293.953297 356.834595 
L 298.578162 358.041081 
L 300.629189 358.483459 
L 303.001946 358.764973 
L 305.374703 358.925838 
L 309.959351 358.845405 
L 314.704865 358.483459 
L 318.68627 357.638919 
L 320.857946 357.437838 
L 323.351351 357.397622 
L 325.724108 357.236757 
L 330.188108 356.512865 
L 332.520649 356.03027 
L 334.451027 355.427027 
L 338.874811 353.335784 
L 341.207351 352.531459 
L 343.298595 352.048865 
L 345.47027 351.767351 
L 357.012324 351.526054 
L 359.143784 351.324973 
L 361.235027 351.003243 
L 363.044757 350.560865 
L 365.578378 349.796757 
L 371.932541 347.464216 
L 374.345514 346.981622 
L 378.889946 346.418595 
L 381.383351 345.694703 
L 383.31373 344.850162 
L 385.123459 343.764324 
L 387.013622 342.356757 
L 390.150486 339.461189 
L 391.799351 337.731892 
L 394.654703 334.273297 
L 396.866595 330.613622 
L 403.663135 317.824865 
L 409.494486 307.56973 
L 414.079135 298.923243 
L 415.325838 297.15373 
L 417.980108 294.097297 
L 421.197405 290.55827 
L 422.444108 288.949622 
L 422.84627 288.185514 
L 425.379892 282.153081 
L 426.908108 278.131459 
L 428.355892 273.587027 
L 428.838486 271.777297 
L 429.200432 269.72627 
L 429.280865 267.39373 
L 429.039568 265.061189 
L 428.034162 260.918919 
L 426.345081 256.414703 
L 424.656 252.51373 
L 422.765838 248.652973 
L 421.398486 246.722595 
L 420.232216 245.274811 
L 415.969297 240.891243 
L 405.915243 231.641514 
L 403.059892 228.384 
L 400.405622 224.643892 
L 398.475243 221.064649 
L 397.590486 219.094054 
L 396.826378 217.043027 
L 395.700324 212.900757 
L 394.614486 206.546595 
L 393.930811 199.830486 
L 393.609081 195.286054 
L 393.609081 195.286054 
" style="fill:none;stroke:#8000ff;stroke-linecap:square;stroke-width:1.5;"/>
   </g>
   <g id="line2d_79">
    <path clip-path="url(#p6a9c5f6bac)" d="M 450.032432 192.35027 
L 450.27373 192.430703 
L 450.354162 192.511135 
L 450.474811 192.953514 
L 450.555243 194.240432 
L 450.354162 195.366486 
L 449.469405 197.538162 
L 448.383568 199.388108 
L 447.257514 200.876108 
L 445.849946 202.484757 
L 444.402162 203.811892 
L 442.592432 205.058595 
L 440.340324 206.144432 
L 438.570811 206.828108 
L 436.479568 207.391135 
L 434.870919 207.672649 
L 432.377514 207.833514 
L 429.924324 207.511784 
L 428.476541 206.948757 
L 427.672216 206.38573 
L 426.505946 205.420541 
L 423.409297 202.524973 
L 422.403892 201.841297 
L 421.076757 201.238054 
L 419.387676 200.795676 
L 417.658378 200.634811 
L 415.325838 200.715243 
L 413.234595 201.077189 
L 410.94227 201.680432 
L 409.212973 202.323892 
L 407.001081 203.289081 
L 403.260973 205.299892 
L 399.68173 207.592216 
L 394.534054 211.412757 
L 391.115676 214.348541 
L 389.547243 216.15827 
L 387.214703 219.697297 
L 385.163676 223.477622 
L 383.474595 227.097081 
L 381.302919 231.721946 
L 379.131243 235.743568 
L 376.115027 241.092324 
L 371.892324 250.905081 
L 371.248865 253.157189 
L 370.846703 255.248432 
L 370.404324 259.792865 
L 369.841297 266.991568 
L 369.519568 269.364324 
L 368.916324 271.294703 
L 367.629405 273.667459 
L 366.342486 275.396757 
L 365.377297 277.206486 
L 364.613189 279.458595 
L 363.808865 283.641081 
L 363.406703 286.013838 
L 362.843676 288.105081 
L 361.999135 290.437622 
L 361.033946 292.649514 
L 360.35027 294.660324 
L 359.184 299.043892 
L 358.460108 301.376432 
L 356.288432 307.368649 
L 355.484108 309.701189 
L 353.513514 314.124973 
L 351.382054 318.307459 
L 349.974486 320.31827 
L 348.526703 321.967135 
L 346.636541 323.173622 
L 344.585514 323.93773 
L 341.931243 324.500757 
L 337.507459 325.264865 
L 335.255351 325.948541 
L 333.324973 326.91373 
L 326.045838 331.297297 
L 324.115459 332.745081 
L 321.018811 335.84173 
L 321.059027 335.721081 
L 321.059027 335.881946 
L 321.179676 336.485189 
L 322.748108 338.81773 
L 325.603459 341.79373 
L 326.287135 342.799135 
L 327.493622 344.930595 
L 329.062054 348.429405 
L 329.383784 349.716324 
L 329.383784 350.118486 
L 329.10227 351.003243 
L 328.458811 351.888 
L 327.171892 353.05427 
L 325.362162 354.260757 
L 323.15027 355.346595 
L 319.088432 356.794378 
L 314.905946 357.84 
L 312.653838 358.362811 
L 310.683243 359.046486 
L 306.299676 361.057297 
L 284.663351 371.754811 
L 280.681946 373.403676 
L 276.097297 375.052541 
L 273.684324 375.494919 
L 271.472432 375.575351 
L 269.220324 375.414486 
L 267.088865 374.811243 
L 265.11827 373.926486 
L 261.378162 371.674378 
L 257.718486 369.382054 
L 253.294703 367.371243 
L 249.353514 365.762595 
L 245.532973 364.475676 
L 241.149405 363.309405 
L 236.444108 362.384432 
L 232.221405 361.740973 
L 228.24 361.258378 
L 225.827027 361.057297 
L 225.827027 361.057297 
" style="fill:none;stroke:#4757fb;stroke-linecap:square;stroke-width:1.5;"/>
   </g>
   <g id="line2d_80">
    <path clip-path="url(#p6a9c5f6bac)" d="M 402.175135 440.082162 
L 401.974054 440.162595 
L 402.094703 440.00173 
L 402.336 439.599568 
L 402.65773 438.594162 
L 402.738162 437.226811 
L 402.376216 434.733405 
L 401.772973 432.843243 
L 400.928432 430.953081 
L 399.963243 429.103135 
L 397.590486 425.242378 
L 395.056865 421.50227 
L 388.62227 412.57427 
L 384.882162 407.466811 
L 383.715892 405.335351 
L 382.268108 401.514811 
L 381.463784 397.573622 
L 381.343135 394.879135 
L 381.584432 392.667243 
L 382.428973 389.047784 
L 383.112649 386.473946 
L 383.595243 384.181622 
L 383.836541 382.090378 
L 383.836541 379.999135 
L 383.555027 377.626378 
L 383.112649 375.856865 
L 382.469189 373.846054 
L 381.664865 371.875459 
L 380.820324 370.226595 
L 378.326919 366.124541 
L 376.959568 364.153946 
L 374.184649 360.574703 
L 372.576 358.684541 
L 370.806486 357.156324 
L 369.318486 356.110703 
L 365.658811 353.939027 
L 361.596973 351.928216 
L 353.272216 348.268541 
L 349.250595 346.137081 
L 347.159351 344.809946 
L 343.499676 342.075243 
L 341.931243 340.627459 
L 340.403027 339.059027 
L 337.467243 335.560216 
L 336.220541 333.388541 
L 335.536865 331.337514 
L 334.048865 325.063784 
L 333.405405 322.731243 
L 332.922811 320.117189 
L 332.239135 317.98573 
L 331.153297 316.216216 
L 329.142486 313.602162 
L 327.654486 311.832649 
L 326.608865 309.862054 
L 326.086054 307.449081 
L 325.925189 304.995892 
L 325.925189 302.904649 
L 325.683892 300.531892 
L 325.321946 298.722162 
L 324.678486 296.148324 
L 324.195892 293.735351 
L 323.914378 291.603892 
L 323.592649 290.477838 
L 323.15027 289.753946 
L 322.104649 288.949622 
L 320.335135 288.306162 
L 317.962378 287.823568 
L 315.871135 286.938811 
L 314.302703 285.812757 
L 312.73427 283.882378 
L 311.728865 281.911784 
L 311.045189 279.820541 
L 308.994162 271.536 
L 308.310486 269.283892 
L 306.943135 267.152432 
L 305.173622 265.584 
L 297.653189 261.079784 
L 295.803243 260.074378 
L 293.752216 258.747243 
L 290.615351 256.33427 
L 289.207784 255.047351 
L 289.328432 254.84627 
L 290.132757 254.243027 
L 293.832649 252.151784 
L 295.159784 251.146378 
L 296.446703 249.939892 
L 297.411892 248.532324 
L 298.095568 246.722595 
L 298.296649 244.43027 
L 297.934703 242.419459 
L 297.331459 240.690162 
L 296.567351 239.001081 
L 294.516324 235.260973 
L 292.224 231.641514 
L 288.805622 226.493838 
L 285.226378 221.185297 
L 277.464649 210.246486 
L 275.815784 208.195459 
L 274.327784 206.747676 
L 272.678919 205.380324 
L 271.190919 204.294486 
L 267.330162 201.92173 
L 263.549838 199.991351 
L 261.337946 198.985946 
L 257.115243 197.417514 
L 252.490378 196.050162 
L 248.348108 195.044757 
L 244.125405 194.280649 
L 236.966919 193.275243 
L 228.722595 192.470919 
L 226.591135 192.35027 
L 226.591135 192.35027 
" style="fill:none;stroke:#0ea4f0;stroke-linecap:square;stroke-width:1.5;"/>
   </g>
   <g id="line2d_81">
    <path clip-path="url(#p6a9c5f6bac)" d="M 224.821622 136.047568 
L 225.625946 136.087784 
L 227.596541 136.44973 
L 229.728 137.374703 
L 231.819243 138.621405 
L 233.106162 139.626811 
L 234.956108 141.235459 
L 236.283243 142.643027 
L 237.409297 144.211459 
L 238.454919 146.141838 
L 239.339676 148.393946 
L 239.902703 150.485189 
L 240.264649 152.656865 
L 240.304865 154.788324 
L 239.701622 157.120865 
L 239.219027 157.965405 
L 238.253838 159.171892 
L 234.915892 162.59027 
L 234.352865 163.475027 
L 233.709405 164.761946 
L 233.307243 166.169514 
L 233.106162 167.858595 
L 233.106162 169.668324 
L 233.387676 172.000865 
L 233.950703 174.293189 
L 234.634378 176.304 
L 235.559351 178.515892 
L 237.529946 182.296216 
L 239.942919 186.116757 
L 243.763459 191.264432 
L 245.090595 192.953514 
L 246.659027 194.723027 
L 248.066595 195.929514 
L 249.755676 197.176216 
L 251.565405 198.262054 
L 253.737081 199.267459 
L 262.78573 202.565189 
L 276.861405 208.517189 
L 281.003676 210.487784 
L 283.376432 211.654054 
L 285.548108 212.538811 
L 287.679568 212.981189 
L 289.931676 212.780108 
L 291.741405 212.176865 
L 295.883676 210.326919 
L 300.428108 208.557405 
L 302.800865 207.954162 
L 305.052973 207.23027 
L 306.581189 206.305297 
L 308.149622 204.656432 
L 310.160432 200.916324 
L 311.447351 199.146811 
L 312.774486 198.020757 
L 313.659243 197.45773 
L 314.584216 197.055568 
L 316.192865 196.613189 
L 318.646054 196.572973 
L 321.059027 197.256649 
L 322.707892 198.181622 
L 324.718703 199.629405 
L 329.222919 203.490162 
L 331.032649 205.058595 
L 334.772757 207.592216 
L 340.121514 211.251892 
L 341.891027 212.940973 
L 343.499676 214.790919 
L 346.234378 218.490811 
L 347.440865 220.260324 
L 348.647351 222.391784 
L 349.612541 224.643892 
L 350.175568 226.493838 
L 350.658162 228.866595 
L 351.301622 230.595892 
L 352.387459 232.325189 
L 353.875459 233.772973 
L 355.805838 235.180541 
L 359.867676 237.875027 
L 367.146811 243.746595 
L 375.069405 250.221405 
L 376.879135 251.830054 
L 385.244108 260.154811 
L 387.335351 262.125405 
L 390.230919 264.819892 
L 393.005838 267.514378 
L 393.005838 267.474162 
L 394.051459 267.273081 
L 394.735135 266.951351 
L 395.378595 266.468757 
L 396.263351 265.503568 
L 396.464432 264.980757 
L 396.504649 264.096 
L 396.384 263.251459 
L 396.464432 263.372108 
L 396.504649 263.372108 
L 396.424216 263.331892 
L 395.378595 263.130811 
L 394.614486 263.130811 
L 393.206919 263.331892 
L 392.040649 263.734054 
L 390.592865 264.457946 
L 387.496216 266.428541 
L 385.244108 268.278486 
L 383.635459 270.088216 
L 381.584432 273.024 
L 379.372541 276.361946 
L 376.959568 280.544432 
L 375.23027 284.123676 
L 373.581405 288.064865 
L 372.053189 292.609297 
L 370.967351 296.751568 
L 370.484757 298.842811 
L 370.163027 301.416649 
L 370.163027 303.266595 
L 370.484757 305.679568 
L 371.289081 307.851243 
L 372.334703 309.701189 
L 373.500973 311.470703 
L 375.994378 314.607568 
L 383.032216 323.093189 
L 384.278919 324.822486 
L 386.732108 328.683243 
L 388.823351 332.785297 
L 389.748324 335.037405 
L 390.552649 337.32973 
L 391.839568 342.035027 
L 392.684108 346.539243 
L 393.247135 350.802162 
L 393.850378 357.478054 
L 393.930811 359.64973 
L 393.930811 359.64973 
" style="fill:none;stroke:#2adddd;stroke-linecap:square;stroke-width:1.5;"/>
   </g>
   <g id="line2d_82">
    <path clip-path="url(#p6a9c5f6bac)" d="M 450.032432 304.955676 
L 449.831351 305.036108 
L 449.710703 305.196973 
L 449.670486 305.317622 
L 449.63027 305.076324 
L 449.308541 304.392649 
L 448.544432 303.548108 
L 446.855351 302.46227 
L 443.034811 300.813405 
L 437.404541 299.124324 
L 432.980757 297.99827 
L 426.46573 296.51027 
L 412.832432 293.614703 
L 392.362378 289.351784 
L 359.545946 282.515027 
L 352.427676 281.187892 
L 347.440865 281.228108 
L 342.896432 280.825946 
L 333.888 279.619459 
L 331.23373 279.498811 
L 329.142486 279.539027 
L 327.252324 279.699892 
L 323.351351 280.383568 
L 321.018811 280.986811 
L 319.088432 281.710703 
L 315.388541 283.721514 
L 313.056 284.445405 
L 306.018162 286.054054 
L 303.766054 286.013838 
L 302.197622 285.651892 
L 299.905297 284.686703 
L 297.934703 283.198703 
L 296.486919 281.429189 
L 294.556541 278.252108 
L 294.03373 277.206486 
L 292.867459 275.557622 
L 291.500108 274.391351 
L 285.548108 270.771892 
L 283.738378 269.123027 
L 282.12973 267.192649 
L 281.124324 265.302486 
L 279.917838 263.291676 
L 278.590703 261.683027 
L 275.815784 258.666811 
L 273.282162 255.529946 
L 272.075676 253.720216 
L 271.150703 251.669189 
L 270.828973 249.899676 
L 270.869189 249.899676 
L 271.311568 248.733405 
L 272.075676 248.492108 
L 272.88 248.612757 
L 273.845189 248.934486 
L 274.770162 249.53773 
L 275.614703 250.462703 
L 276.378811 251.830054 
L 276.861405 253.599568 
L 276.861405 254.243027 
L 276.660324 255.007135 
L 275.775568 256.535351 
L 273.121297 259.833081 
L 270.22573 263.251459 
L 268.09427 266.669838 
L 266.043243 270.208865 
L 264.434595 272.420757 
L 263.469405 273.587027 
L 261.096649 275.839135 
L 259.689081 276.924973 
L 258.120649 277.970595 
L 254.662054 279.780324 
L 250.921946 281.268324 
L 249.353514 281.750919 
L 247.503568 282.193297 
L 245.130811 282.635676 
L 242.677622 282.917189 
L 238.092973 283.11827 
L 233.267027 282.836757 
L 228.441081 282.112865 
L 226.068324 281.63027 
L 223.735784 281.027027 
L 221.523892 280.303135 
L 219.553297 279.378162 
L 217.944649 278.332541 
L 216.416432 277.206486 
L 214.606703 275.557622 
L 213.118703 274.029405 
L 210.343784 270.691459 
L 207.930811 267.433946 
L 205.558054 263.894919 
L 201.978811 258.184216 
L 197.675676 250.744216 
L 197.675676 250.744216 
" style="fill:none;stroke:#63fbc3;stroke-linecap:square;stroke-width:1.5;"/>
   </g>
   <g id="line2d_83">
    <path clip-path="url(#p6a9c5f6bac)" d="M 140.367568 248.652973 
L 143.544649 248.693189 
L 148.089081 248.934486 
L 159.309405 249.980108 
L 205.59827 255.127784 
L 208.252541 254.765838 
L 209.459027 254.444108 
L 215.612108 252.312649 
L 218.025081 251.749622 
L 220.156541 251.508324 
L 222.60973 251.427892 
L 226.912865 251.588757 
L 231.457297 251.990919 
L 238.213622 252.875676 
L 239.500541 253.076757 
L 241.149405 253.197405 
L 243.200432 252.956108 
L 245.613405 251.950703 
L 249.554595 249.577946 
L 251.364324 248.934486 
L 253.616432 248.572541 
L 256.351135 248.89427 
L 258.442378 249.577946 
L 262.423784 251.307243 
L 268.134486 254.283243 
L 270.064865 255.168 
L 272.55827 256.052757 
L 274.770162 256.535351 
L 277.102703 256.495135 
L 284.100324 255.047351 
L 288.323027 254.524541 
L 291.05773 254.765838 
L 292.626162 255.208216 
L 294.636973 255.48973 
L 296.124973 255.409297 
L 298.417297 254.926703 
L 303.001946 253.478919 
L 309.396324 251.427892 
L 311.809297 250.864865 
L 314.22227 250.583351 
L 316.35373 250.462703 
L 318.525405 250.462703 
L 320.697081 250.583351 
L 325.523027 251.186595 
L 327.936 251.588757 
L 334.652108 252.031135 
L 337.909622 252.674595 
L 339.960649 253.277838 
L 343.580108 254.685405 
L 344.263784 255.007135 
L 344.987676 255.48973 
L 346.435459 256.857081 
L 347.762595 258.747243 
L 348.727784 260.717838 
L 349.210378 262.205838 
L 349.371243 263.211243 
L 349.371243 265.141622 
L 348.687568 267.876324 
L 348.687568 269.123027 
L 348.928865 270.530595 
L 349.733189 272.380541 
L 350.939676 274.029405 
L 352.508108 275.477189 
L 353.955892 276.563027 
L 356.610162 278.171676 
L 358.902486 279.016216 
L 360.229622 279.217297 
L 361.677405 279.177081 
L 362.521946 279.096649 
L 365.45773 278.453189 
L 367.589189 278.292324 
L 369.640216 278.332541 
L 371.40973 278.573838 
L 373.581405 279.217297 
L 375.190054 280.102054 
L 377.442162 281.750919 
L 378.286703 282.515027 
L 379.050811 283.76173 
L 379.654054 285.410595 
L 380.176865 287.180108 
L 380.900757 288.386595 
L 382.308324 289.914811 
L 384.037622 291.081081 
L 385.927784 291.925622 
L 387.938595 292.488649 
L 391.517838 293.212541 
L 395.941622 294.217946 
L 398.032865 294.499459 
L 400.405622 294.700541 
L 402.537081 294.700541 
L 405.472865 294.378811 
L 406.277189 294.057081 
L 407.161946 293.53427 
L 408.288 292.528865 
L 409.052108 291.523459 
L 409.45427 290.759351 
L 409.977081 288.909405 
L 410.09773 287.783351 
L 410.09773 286.375784 
L 409.695568 283.600865 
L 408.931459 281.027027 
L 408.207568 279.579243 
L 407.001081 278.131459 
L 405.673946 277.005405 
L 403.904432 275.919568 
L 401.974054 275.115243 
L 400.204541 274.592432 
L 397.872 274.310919 
L 395.499243 274.351135 
L 395.499243 274.351135 
" style="fill:none;stroke:#9cfba4;stroke-linecap:square;stroke-width:1.5;"/>
   </g>
   <g id="line2d_84">
    <path clip-path="url(#p6a9c5f6bac)" d="M 281.124324 192.35027 
L 281.325405 192.390486 
L 281.968865 192.591568 
L 282.612324 192.99373 
L 283.497081 194.039351 
L 284.180757 195.567568 
L 284.784 197.658811 
L 285.186162 200.031568 
L 285.427459 202.163027 
L 285.507892 204.616216 
L 285.306811 206.747676 
L 284.904649 209.401946 
L 284.582919 211.211676 
L 284.180757 213.584432 
L 283.859027 215.434378 
L 283.537297 218.048432 
L 283.416649 219.898378 
L 283.296 221.748324 
L 283.215568 224.161297 
L 283.135135 226.051459 
L 283.054703 228.464432 
L 282.97427 230.595892 
L 282.893838 233.008865 
L 282.813405 235.180541 
L 282.773189 237.312 
L 282.692757 239.443459 
L 282.652541 241.574919 
L 282.612324 243.746595 
L 282.572108 245.596541 
L 282.531892 248.009514 
L 282.491676 250.181189 
L 282.451459 252.031135 
L 282.411243 254.725622 
L 282.371027 257.138595 
L 282.330811 259.270054 
L 282.290595 261.683027 
L 282.250378 264.096 
L 282.210162 265.986162 
L 282.169946 268.399135 
L 282.12973 270.249081 
L 282.089514 272.943568 
L 282.049297 275.075027 
L 282.049297 277.246703 
L 282.009081 279.659676 
L 281.968865 281.791135 
L 281.928649 283.922595 
L 281.888432 286.335568 
L 281.848216 289.030054 
L 281.808 291.161514 
L 281.767784 293.051676 
L 281.727568 295.183135 
L 281.687351 297.596108 
L 281.727568 299.405838 
L 282.049297 301.376432 
L 282.531892 303.708973 
L 282.934054 305.558919 
L 283.296 307.408865 
L 283.657946 310.103351 
L 283.859027 311.993514 
L 283.939459 314.124973 
L 284.019892 316.537946 
L 284.140541 318.910703 
L 283.979676 320.720432 
L 283.376432 323.093189 
L 282.612324 325.104 
L 281.606919 326.994162 
L 280.199351 329.004973 
L 278.711351 330.613622 
L 277.786378 331.337514 
L 277.102703 331.699459 
L 277.102703 331.699459 
L 277.062486 331.699459 
L 277.02227 331.739676 
L 277.02227 331.739676 
L 277.02227 331.739676 
L 277.02227 331.699459 
L 277.062486 331.659243 
L 276.740757 332.463568 
L 276.459243 333.750486 
L 276.338595 334.675459 
L 276.338595 335.439568 
L 276.378811 335.84173 
L 276.378811 335.962378 
L 276.378811 335.922162 
L 276.338595 335.922162 
L 276.338595 335.881946 
L 276.258162 335.761297 
L 276.620108 336.002595 
L 277.66573 336.324324 
L 279.073297 336.485189 
L 279.958054 336.444973 
L 279.877622 336.444973 
L 280.038486 336.324324 
L 280.480865 335.881946 
" style="fill:none;stroke:#d4dd80;stroke-linecap:square;stroke-width:1.5;"/>
   </g>
   <g id="line2d_85">
    <path clip-path="url(#p6a9c5f6bac)" d="M 140.367568 304.955676 
L 141.372973 304.955676 
L 143.263135 304.915459 
L 145.635892 304.754595 
L 148.048865 304.553514 
L 150.421622 304.272 
L 152.794378 303.95027 
L 154.644324 303.668757 
L 156.49427 303.387243 
L 158.62573 303.065514 
L 160.998486 302.663351 
L 163.129946 302.301405 
L 164.979892 301.979676 
L 167.352649 301.577514 
L 169.725405 301.175351 
L 171.856865 300.813405 
L 173.948108 300.451459 
L 176.079568 300.089514 
L 178.170811 299.727568 
L 180.30227 299.365622 
L 182.43373 298.963459 
L 184.524973 298.601514 
L 186.89773 298.199351 
L 188.747676 297.877622 
L 190.879135 297.515676 
L 193.251892 297.073297 
L 195.343135 296.711351 
L 197.474595 296.349405 
L 199.847351 295.947243 
L 202.220108 295.504865 
L 204.070054 295.183135 
L 205.839568 294.780973 
L 207.005838 294.620108 
L 208.131892 294.579892 
L 209.861189 294.660324 
L 212.274162 294.982054 
L 214.646919 295.303784 
L 216.738162 295.424432 
L 218.869622 295.384216 
L 221.242378 295.223351 
L 223.615135 294.982054 
L 225.746595 294.660324 
L 228.119351 294.298378 
L 230.250811 293.936432 
L 232.583351 293.453838 
L 235.237622 292.931027 
L 236.765838 292.649514 
L 237.972324 292.528865 
L 239.219027 292.528865 
L 240.345081 292.609297 
L 241.873297 292.810378 
L 243.481946 293.051676 
L 244.567784 293.011459 
L 246.498162 292.408216 
L 248.428541 291.322378 
L 250.318703 289.914811 
L 251.887135 288.467027 
L 253.21427 287.180108 
L 254.259892 286.054054 
L 255.104432 285.169297 
L 255.506595 284.767135 
L 255.989189 284.364973 
L 256.431568 284.043243 
L 257.115243 283.681297 
L 257.597838 283.399784 
L 258.281514 283.078054 
L 258.924973 282.796541 
L 259.528216 282.555243 
L 260.292324 282.27373 
L 261.096649 281.952 
L 261.900973 281.670486 
L 262.383568 281.509622 
L 262.464 281.469405 
L 262.504216 281.469405 
L 263.348757 281.509622 
L 265.198703 281.750919 
L 267.531243 282.354162 
L 269.542054 283.158486 
L 270.949622 283.76173 
L 271.794162 284.123676 
L 272.477838 284.405189 
L 274.086486 285.330162 
L 275.896216 286.979027 
L 277.344 288.949622 
L 278.309189 291.241946 
L 278.630919 293.091892 
L 278.671135 294.016865 
L 278.671135 294.982054 
L 278.751568 295.705946 
L 278.832 296.108108 
L 278.791784 296.027676 
L 279.033081 296.268973 
L 279.958054 296.832 
L 282.049297 297.676541 
L 284.100324 298.32 
L 286.151351 298.842811 
L 287.961081 299.244973 
L 290.333838 299.647135 
L 291.781622 299.848216 
L 292.947892 299.767784 
L 294.717405 299.405838 
L 296.446703 298.883027 
L 298.658595 298.038486 
L 300.749838 297.033081 
L 302.479135 296.268973 
L 304.44973 295.424432 
L 306.621405 294.459243 
L 308.752865 293.373405 
L 310.803892 292.166919 
L 312.73427 290.759351 
L 314.503784 289.231135 
L 315.71027 287.904 
L 316.273297 286.858378 
L 316.675459 284.847568 
L 316.675459 282.796541 
L 316.313514 281.147676 
L 315.830919 280.222703 
L 315.348324 279.740108 
L 314.423351 279.217297 
L 312.854919 278.734703 
L 310.844108 278.533622 
" style="fill:none;stroke:#ffa457;stroke-linecap:square;stroke-width:1.5;"/>
   </g>
   <g id="line2d_86">
    <path clip-path="url(#p6a9c5f6bac)" d="M 393.72973 220.501622 
L 393.971027 220.582054 
L 394.172108 220.944 
L 394.373189 221.868973 
L 394.212324 223.477622 
L 393.528649 225.448216 
L 392.281946 227.539459 
L 390.793946 229.148108 
L 388.984216 230.756757 
L 386.812541 232.365405 
L 382.951784 234.778378 
L 379.211676 236.909838 
L 373.460757 239.845622 
L 369.760865 241.45427 
L 365.739243 242.982486 
L 361.637189 244.309622 
L 355.403676 245.91827 
L 349.049514 247.124757 
L 343.218162 248.089946 
L 325.724108 250.663784 
L 319.128649 251.508324 
L 316.675459 251.267027 
L 314.584216 250.784432 
L 307.787676 248.210595 
L 303.605189 246.360649 
L 299.744432 244.470486 
L 297.733622 243.264 
L 295.883676 241.655351 
L 294.315243 239.684757 
L 293.430486 238.116324 
L 292.063135 236.14573 
L 290.575135 234.65773 
L 289.167568 232.968649 
L 287.840432 231.03827 
L 286.070919 229.067676 
L 281.084108 224.965622 
L 279.314595 223.276541 
L 275.815784 219.616865 
L 274.528865 218.28973 
L 272.920216 216.962595 
L 269.139892 214.871351 
L 266.968216 213.18227 
L 263.871568 210.286703 
L 262.222703 208.919351 
L 258.844541 205.822703 
L 257.396757 204.616216 
L 255.868541 203.610811 
L 253.938162 202.806486 
L 251.927351 202.283676 
L 249.594811 202.122811 
L 247.222054 202.283676 
L 244.608 202.726054 
L 242.556973 203.248865 
L 240.345081 204.093405 
L 225.625946 211.131243 
L 223.574919 212.33773 
L 221.845622 213.544216 
L 220.317405 214.992 
L 218.789189 216.761514 
L 217.381622 218.732108 
L 216.295784 220.541838 
L 215.16973 222.673297 
L 213.480649 226.57427 
L 211.952432 230.595892 
L 210.06227 234.738162 
L 208.855784 236.869622 
L 207.649297 238.679351 
L 206.322162 240.408649 
L 204.874378 242.017297 
L 203.305946 243.505297 
L 201.657081 244.912865 
L 197.997405 247.647568 
L 193.855135 250.221405 
L 188.224865 253.35827 
L 174.832865 260.114595 
L 143.222919 275.436973 
L 143.222919 275.436973 
" style="fill:none;stroke:#ff572c;stroke-linecap:square;stroke-width:1.5;"/>
   </g>
   <g id="line2d_87">
    <path clip-path="url(#p6a9c5f6bac)" d="M 140.367568 136.047568 
L 141.011027 136.047568 
L 142.981622 136.248649 
L 144.751135 136.731243 
L 146.802162 137.575784 
L 148.973838 138.78227 
L 150.54227 139.827892 
L 152.271568 141.114811 
L 153.920432 142.522378 
L 155.730162 144.131027 
L 157.499676 145.779892 
L 159.188757 147.509189 
L 160.716973 149.037405 
L 162.204973 150.565622 
L 163.491892 151.932973 
L 164.979892 153.461189 
L 166.467892 155.029622 
L 167.915676 156.598054 
L 169.202595 158.005622 
L 170.650378 159.936 
L 171.655784 161.464216 
L 172.701405 163.354378 
L 173.867676 165.485838 
L 174.953514 167.657514 
L 176.039351 169.788973 
L 177.004541 171.719351 
L 177.96973 173.609514 
L 179.136 175.700757 
L 180.101189 177.309405 
L 181.347892 179.360432 
L 182.554378 181.129946 
L 183.6 182.658162 
L 185.208649 184.829838 
L 186.696649 186.72 
L 187.903135 188.127568 
L 189.310703 189.736216 
L 190.758486 191.304649 
L 191.763892 192.390486 
L 193.372541 193.757838 
L 195.343135 195.084973 
L 197.394162 196.291459 
L 199.002811 197.216432 
L 201.13427 198.342486 
L 202.783135 199.227243 
L 204.914595 200.393514 
L 206.764541 201.439135 
L 208.614486 202.565189 
L 210.665514 203.852108 
L 212.435027 205.098811 
L 214.405622 206.506378 
L 215.893622 207.672649 
L 217.582703 208.999784 
L 219.030486 210.20627 
L 220.840216 211.855135 
L 222.569514 213.504 
L 224.298811 215.193081 
L 225.58573 216.600649 
L 226.752 218.088649 
L 228.038919 220.139676 
L 229.084541 222.029838 
L 230.089946 223.92 
L 231.216 226.051459 
L 232.342054 228.182919 
L 233.226811 229.831784 
L 234.473514 231.882811 
L 235.599568 233.692541 
L 236.84627 235.462054 
L 238.294054 237.352216 
L 239.460324 238.8 
L 240.707027 240.207568 
L 242.154811 241.735784 
L 243.803676 243.505297 
L 244.92973 244.953081 
L 246.136216 246.762811 
L 247.222054 248.612757 
L 248.106811 250.140973 
L 248.549189 250.905081 
L 248.549189 250.864865 
L 248.468757 250.824649 
L 248.428541 250.784432 
L 248.388324 250.784432 
L 248.669838 250.864865 
L 249.152432 250.905081 
L 250.600216 250.744216 
" style="fill:none;stroke:#ff0000;stroke-linecap:square;stroke-width:1.5;"/>
   </g>
   <g id="patch_3">
    <path d="M 72 512.64 
L 72 69.12 
" style="fill:none;stroke:#000000;stroke-linecap:square;stroke-linejoin:miter;stroke-width:0.8;"/>
   </g>
   <g id="patch_4">
    <path d="M 518.4 512.64 
L 518.4 69.12 
" style="fill:none;stroke:#000000;stroke-linecap:square;stroke-linejoin:miter;stroke-width:0.8;"/>
   </g>
   <g id="patch_5">
    <path d="M 72 512.64 
L 518.4 512.64 
" style="fill:none;stroke:#000000;stroke-linecap:square;stroke-linejoin:miter;stroke-width:0.8;"/>
   </g>
   <g id="patch_6">
    <path d="M 72 69.12 
L 518.4 69.12 
" style="fill:none;stroke:#000000;stroke-linecap:square;stroke-linejoin:miter;stroke-width:0.8;"/>
   </g>
   <g id="text_13">
    <!-- 1 -->
    <defs>
     <path d="M 14.203125 0 
L 14.203125 5.171875 
L 26.90625 5.171875 
L 26.90625 65.828125 
L 12.203125 56.296875 
L 12.203125 62.703125 
L 29.984375 74.21875 
L 36.71875 74.21875 
L 36.71875 5.171875 
L 49.421875 5.171875 
L 49.421875 0 
z
" id="DejaVuSerif-31"/>
    </defs>
    <g transform="translate(137.186318 389.40973)scale(0.1 -0.1)">
     <use xlink:href="#DejaVuSerif-31"/>
    </g>
   </g>
   <g id="text_14">
    <!-- 1 -->
    <g transform="translate(390.54848 192.35027)scale(0.1 -0.1)">
     <use xlink:href="#DejaVuSerif-31"/>
    </g>
   </g>
   <g id="text_15">
    <!-- 2 -->
    <defs>
     <path d="M 12.796875 55.515625 
L 7.328125 55.515625 
L 7.328125 68.5 
Q 12.546875 71.296875 17.84375 72.75 
Q 23.140625 74.21875 28.21875 74.21875 
Q 39.59375 74.21875 46.1875 68.703125 
Q 52.78125 63.1875 52.78125 53.71875 
Q 52.78125 43.015625 37.84375 28.125 
Q 36.671875 27 36.078125 26.421875 
L 17.671875 8.015625 
L 48.09375 8.015625 
L 48.09375 17 
L 53.8125 17 
L 53.8125 0 
L 6.78125 0 
L 6.78125 5.328125 
L 28.90625 27.390625 
Q 36.234375 34.71875 39.359375 40.84375 
Q 42.484375 46.96875 42.484375 53.71875 
Q 42.484375 61.078125 38.640625 65.234375 
Q 34.8125 69.390625 28.078125 69.390625 
Q 21.09375 69.390625 17.28125 65.921875 
Q 13.484375 62.453125 12.796875 55.515625 
z
" id="DejaVuSerif-32"/>
    </defs>
    <g transform="translate(446.851182 192.35027)scale(0.1 -0.1)">
     <use xlink:href="#DejaVuSerif-32"/>
    </g>
   </g>
   <g id="text_16">
    <!-- 2 -->
    <g transform="translate(221.640372 361.258378)scale(0.1 -0.1)">
     <use xlink:href="#DejaVuSerif-32"/>
    </g>
   </g>
   <g id="text_17">
    <!-- 3 -->
    <defs>
     <path d="M 9.71875 69.828125 
Q 15.4375 71.96875 20.671875 73.09375 
Q 25.921875 74.21875 30.515625 74.21875 
Q 41.21875 74.21875 47.21875 69.59375 
Q 53.21875 64.984375 53.21875 56.78125 
Q 53.21875 50.203125 49.0625 45.78125 
Q 44.921875 41.359375 37.3125 39.796875 
Q 46.296875 38.53125 51.25 33.28125 
Q 56.203125 28.03125 56.203125 19.671875 
Q 56.203125 9.46875 49.34375 4.015625 
Q 42.484375 -1.421875 29.59375 -1.421875 
Q 23.875 -1.421875 18.421875 -0.1875 
Q 12.984375 1.03125 7.625 3.515625 
L 7.625 17.671875 
L 13.09375 17.671875 
Q 13.578125 10.640625 17.828125 7.03125 
Q 22.078125 3.421875 29.78125 3.421875 
Q 37.25 3.421875 41.578125 7.734375 
Q 45.90625 12.0625 45.90625 19.578125 
Q 45.90625 28.171875 41.453125 32.59375 
Q 37.015625 37.015625 28.421875 37.015625 
L 23.78125 37.015625 
L 23.78125 42 
L 26.21875 42 
Q 34.765625 42 39.03125 45.53125 
Q 43.3125 49.078125 43.3125 56.203125 
Q 43.3125 62.59375 39.796875 65.984375 
Q 36.28125 69.390625 29.6875 69.390625 
Q 23.09375 69.390625 19.453125 66.265625 
Q 15.828125 63.140625 15.1875 56.984375 
L 9.71875 56.984375 
z
" id="DejaVuSerif-33"/>
    </defs>
    <g transform="translate(398.993885 440.082162)scale(0.1 -0.1)">
     <use xlink:href="#DejaVuSerif-33"/>
    </g>
   </g>
   <g id="text_18">
    <!-- 3 -->
    <g transform="translate(221.640372 192.35027)scale(0.1 -0.1)">
     <use xlink:href="#DejaVuSerif-33"/>
    </g>
   </g>
   <g id="text_19">
    <!-- 4 -->
    <defs>
     <path d="M 34.90625 24.703125 
L 34.90625 63.484375 
L 10.015625 24.703125 
z
M 56.390625 0 
L 23.1875 0 
L 23.1875 5.171875 
L 34.90625 5.171875 
L 34.90625 19.484375 
L 3.078125 19.484375 
L 3.078125 24.8125 
L 35.015625 74.21875 
L 44.671875 74.21875 
L 44.671875 24.703125 
L 58.59375 24.703125 
L 58.59375 19.484375 
L 44.671875 19.484375 
L 44.671875 5.171875 
L 56.390625 5.171875 
z
" id="DejaVuSerif-34"/>
    </defs>
    <g transform="translate(221.640372 136.047568)scale(0.1 -0.1)">
     <use xlink:href="#DejaVuSerif-34"/>
    </g>
   </g>
   <g id="text_20">
    <!-- 4 -->
    <g transform="translate(390.54848 361.258378)scale(0.1 -0.1)">
     <use xlink:href="#DejaVuSerif-34"/>
    </g>
   </g>
   <g id="text_21">
    <!-- 5 -->
    <defs>
     <path d="M 50.296875 72.90625 
L 50.296875 64.890625 
L 16.890625 64.890625 
L 16.890625 44 
Q 19.4375 45.75 22.828125 46.625 
Q 26.21875 47.515625 30.421875 47.515625 
Q 42.234375 47.515625 49.0625 40.96875 
Q 55.90625 34.421875 55.90625 23.09375 
Q 55.90625 11.53125 49 5.046875 
Q 42.09375 -1.421875 29.59375 -1.421875 
Q 24.5625 -1.421875 19.28125 -0.1875 
Q 14.015625 1.03125 8.5 3.515625 
L 8.5 17.671875 
L 14.015625 17.671875 
Q 14.453125 10.75 18.421875 7.078125 
Q 22.40625 3.421875 29.59375 3.421875 
Q 37.3125 3.421875 41.453125 8.5 
Q 45.609375 13.578125 45.609375 23.09375 
Q 45.609375 32.5625 41.484375 37.609375 
Q 37.359375 42.671875 29.59375 42.671875 
Q 25.203125 42.671875 21.84375 41.109375 
Q 18.5 39.546875 15.921875 36.28125 
L 11.71875 36.28125 
L 11.71875 72.90625 
z
" id="DejaVuSerif-35"/>
    </defs>
    <g transform="translate(446.851182 304.955676)scale(0.1 -0.1)">
     <use xlink:href="#DejaVuSerif-35"/>
    </g>
   </g>
   <g id="text_22">
    <!-- 5 -->
    <g transform="translate(193.48902 248.652973)scale(0.1 -0.1)">
     <use xlink:href="#DejaVuSerif-35"/>
    </g>
   </g>
   <g id="text_23">
    <!-- 6 -->
    <defs>
     <path d="M 32.71875 3.421875 
Q 39.59375 3.421875 43.296875 8.46875 
Q 47.015625 13.53125 47.015625 23 
Q 47.015625 32.46875 43.296875 37.515625 
Q 39.59375 42.578125 32.71875 42.578125 
Q 25.734375 42.578125 22.0625 37.6875 
Q 18.40625 32.8125 18.40625 23.578125 
Q 18.40625 13.875 22.109375 8.640625 
Q 25.828125 3.421875 32.71875 3.421875 
z
M 16.796875 40.140625 
Q 20.125 43.796875 24.3125 45.59375 
Q 28.515625 47.40625 33.796875 47.40625 
Q 44.671875 47.40625 51 40.859375 
Q 57.328125 34.328125 57.328125 23 
Q 57.328125 11.921875 50.515625 5.25 
Q 43.703125 -1.421875 32.328125 -1.421875 
Q 19.96875 -1.421875 13.328125 7.78125 
Q 6.6875 17 6.6875 34.078125 
Q 6.6875 53.21875 14.546875 63.71875 
Q 22.40625 74.21875 36.71875 74.21875 
Q 40.578125 74.21875 44.828125 73.484375 
Q 49.078125 72.75 53.515625 71.296875 
L 53.515625 59.28125 
L 48 59.28125 
Q 47.40625 64.203125 44.234375 66.796875 
Q 41.0625 69.390625 35.6875 69.390625 
Q 26.21875 69.390625 21.578125 62.203125 
Q 16.9375 55.03125 16.796875 40.140625 
z
" id="DejaVuSerif-36"/>
    </defs>
    <g transform="translate(137.186318 248.652973)scale(0.1 -0.1)">
     <use xlink:href="#DejaVuSerif-36"/>
    </g>
   </g>
   <g id="text_24">
    <!-- 6 -->
    <g transform="translate(390.54848 276.804324)scale(0.1 -0.1)">
     <use xlink:href="#DejaVuSerif-36"/>
    </g>
   </g>
   <g id="text_25">
    <!-- 7 -->
    <defs>
     <path d="M 56.390625 67.921875 
L 27.875 0 
L 20.609375 0 
L 47.796875 64.890625 
L 14.109375 64.890625 
L 14.109375 55.90625 
L 8.40625 55.90625 
L 8.40625 72.90625 
L 56.390625 72.90625 
z
" id="DejaVuSerif-37"/>
    </defs>
    <g transform="translate(277.943074 192.35027)scale(0.1 -0.1)">
     <use xlink:href="#DejaVuSerif-37"/>
    </g>
   </g>
   <g id="text_26">
    <!-- 7 -->
    <g transform="translate(277.943074 333.107027)scale(0.1 -0.1)">
     <use xlink:href="#DejaVuSerif-37"/>
    </g>
   </g>
   <g id="text_27">
    <!-- 8 -->
    <defs>
     <path d="M 46.578125 19.921875 
Q 46.578125 27.734375 42.6875 32.046875 
Q 38.8125 36.375 31.78125 36.375 
Q 24.75 36.375 20.875 32.046875 
Q 17 27.734375 17 19.921875 
Q 17 12.0625 20.875 7.734375 
Q 24.75 3.421875 31.78125 3.421875 
Q 38.8125 3.421875 42.6875 7.734375 
Q 46.578125 12.0625 46.578125 19.921875 
z
M 44.578125 55.328125 
Q 44.578125 61.96875 41.203125 65.671875 
Q 37.84375 69.390625 31.78125 69.390625 
Q 25.78125 69.390625 22.390625 65.671875 
Q 19 61.96875 19 55.328125 
Q 19 48.640625 22.390625 44.921875 
Q 25.78125 41.21875 31.78125 41.21875 
Q 37.84375 41.21875 41.203125 44.921875 
Q 44.578125 48.640625 44.578125 55.328125 
z
M 39.3125 38.8125 
Q 47.609375 37.703125 52.25 32.6875 
Q 56.890625 27.6875 56.890625 19.921875 
Q 56.890625 9.671875 50.390625 4.125 
Q 43.890625 -1.421875 31.78125 -1.421875 
Q 19.734375 -1.421875 13.203125 4.125 
Q 6.6875 9.671875 6.6875 19.921875 
Q 6.6875 27.6875 11.328125 32.6875 
Q 15.96875 37.703125 24.3125 38.8125 
Q 16.9375 40.140625 13 44.40625 
Q 9.078125 48.6875 9.078125 55.328125 
Q 9.078125 64.109375 15.125 69.15625 
Q 21.1875 74.21875 31.78125 74.21875 
Q 42.390625 74.21875 48.4375 69.15625 
Q 54.5 64.109375 54.5 55.328125 
Q 54.5 48.6875 50.5625 44.40625 
Q 46.625 40.140625 39.3125 38.8125 
z
" id="DejaVuSerif-38"/>
    </defs>
    <g transform="translate(137.186318 304.955676)scale(0.1 -0.1)">
     <use xlink:href="#DejaVuSerif-38"/>
    </g>
   </g>
   <g id="text_28">
    <!-- 8 -->
    <g transform="translate(306.094426 276.804324)scale(0.1 -0.1)">
     <use xlink:href="#DejaVuSerif-38"/>
    </g>
   </g>
   <g id="text_29">
    <!-- 9 -->
    <defs>
     <path d="M 46.78125 32.671875 
Q 43.5 29 39.25 27.1875 
Q 35.015625 25.390625 29.6875 25.390625 
Q 18.84375 25.390625 12.5625 31.9375 
Q 6.296875 38.484375 6.296875 49.8125 
Q 6.296875 60.890625 13.109375 67.546875 
Q 19.921875 74.21875 31.296875 74.21875 
Q 43.65625 74.21875 50.265625 65.015625 
Q 56.890625 55.8125 56.890625 38.71875 
Q 56.890625 19.578125 49.015625 9.078125 
Q 41.15625 -1.421875 26.90625 -1.421875 
Q 23.046875 -1.421875 18.796875 -0.6875 
Q 14.546875 0.046875 10.109375 1.515625 
L 10.109375 13.625 
L 15.578125 13.625 
Q 16.21875 8.6875 19.390625 6.046875 
Q 22.5625 3.421875 27.875 3.421875 
Q 37.359375 3.421875 41.984375 10.5625 
Q 46.625 17.71875 46.78125 32.671875 
z
M 30.90625 69.390625 
Q 23.96875 69.390625 20.28125 64.328125 
Q 16.609375 59.28125 16.609375 49.8125 
Q 16.609375 40.328125 20.28125 35.25 
Q 23.96875 30.171875 30.90625 30.171875 
Q 37.84375 30.171875 41.53125 35.078125 
Q 45.21875 39.984375 45.21875 49.21875 
Q 45.21875 58.9375 41.5 64.15625 
Q 37.796875 69.390625 30.90625 69.390625 
z
" id="DejaVuSerif-39"/>
    </defs>
    <g transform="translate(390.54848 220.501622)scale(0.1 -0.1)">
     <use xlink:href="#DejaVuSerif-39"/>
    </g>
   </g>
   <g id="text_30">
    <!-- 9 -->
    <g transform="translate(137.186318 276.804324)scale(0.1 -0.1)">
     <use xlink:href="#DejaVuSerif-39"/>
    </g>
   </g>
   <g id="text_31">
    <!-- 10 -->
    <defs>
     <path d="M 31.78125 3.421875 
Q 39.265625 3.421875 42.96875 11.625 
Q 46.6875 19.828125 46.6875 36.375 
Q 46.6875 52.984375 42.96875 61.1875 
Q 39.265625 69.390625 31.78125 69.390625 
Q 24.3125 69.390625 20.59375 61.1875 
Q 16.890625 52.984375 16.890625 36.375 
Q 16.890625 19.828125 20.59375 11.625 
Q 24.3125 3.421875 31.78125 3.421875 
z
M 31.78125 -1.421875 
Q 19.921875 -1.421875 13.25 8.53125 
Q 6.59375 18.5 6.59375 36.375 
Q 6.59375 54.296875 13.25 64.25 
Q 19.921875 74.21875 31.78125 74.21875 
Q 43.703125 74.21875 50.34375 64.25 
Q 56.984375 54.296875 56.984375 36.375 
Q 56.984375 18.5 50.34375 8.53125 
Q 43.703125 -1.421875 31.78125 -1.421875 
z
" id="DejaVuSerif-30"/>
    </defs>
    <g transform="translate(134.005068 136.047568)scale(0.1 -0.1)">
     <use xlink:href="#DejaVuSerif-31"/>
     <use x="63.623047" xlink:href="#DejaVuSerif-30"/>
    </g>
   </g>
   <g id="text_32">
    <!-- 10 -->
    <g transform="translate(246.610473 248.652973)scale(0.1 -0.1)">
     <use xlink:href="#DejaVuSerif-31"/>
     <use x="63.623047" xlink:href="#DejaVuSerif-30"/>
    </g>
   </g>
   <g id="text_33">
    <!-- MRPP -->
    <defs>
     <path d="M 9.8125 72.90625 
L 24.515625 72.90625 
L 43.109375 23.296875 
L 61.8125 72.90625 
L 76.515625 72.90625 
L 76.515625 0 
L 66.890625 0 
L 66.890625 64.015625 
L 48.09375 14.015625 
L 38.1875 14.015625 
L 19.390625 64.015625 
L 19.390625 0 
L 9.8125 0 
z
" id="DejaVuSans-4d"/>
     <path d="M 44.390625 34.1875 
Q 47.5625 33.109375 50.5625 29.59375 
Q 53.5625 26.078125 56.59375 19.921875 
L 66.609375 0 
L 56 0 
L 46.6875 18.703125 
Q 43.0625 26.03125 39.671875 28.421875 
Q 36.28125 30.8125 30.421875 30.8125 
L 19.671875 30.8125 
L 19.671875 0 
L 9.8125 0 
L 9.8125 72.90625 
L 32.078125 72.90625 
Q 44.578125 72.90625 50.734375 67.671875 
Q 56.890625 62.453125 56.890625 51.90625 
Q 56.890625 45.015625 53.6875 40.46875 
Q 50.484375 35.9375 44.390625 34.1875 
z
M 19.671875 64.796875 
L 19.671875 38.921875 
L 32.078125 38.921875 
Q 39.203125 38.921875 42.84375 42.21875 
Q 46.484375 45.515625 46.484375 51.90625 
Q 46.484375 58.296875 42.84375 61.546875 
Q 39.203125 64.796875 32.078125 64.796875 
z
" id="DejaVuSans-52"/>
     <path d="M 19.671875 64.796875 
L 19.671875 37.40625 
L 32.078125 37.40625 
Q 38.96875 37.40625 42.71875 40.96875 
Q 46.484375 44.53125 46.484375 51.125 
Q 46.484375 57.671875 42.71875 61.234375 
Q 38.96875 64.796875 32.078125 64.796875 
z
M 9.8125 72.90625 
L 32.078125 72.90625 
Q 44.34375 72.90625 50.609375 67.359375 
Q 56.890625 61.8125 56.890625 51.125 
Q 56.890625 40.328125 50.609375 34.8125 
Q 44.34375 29.296875 32.078125 29.296875 
L 19.671875 29.296875 
L 19.671875 0 
L 9.8125 0 
z
" id="DejaVuSans-50"/>
    </defs>
    <g transform="translate(278.618437 63.12)scale(0.12 -0.12)">
     <use xlink:href="#DejaVuSans-4d"/>
     <use x="86.279297" xlink:href="#DejaVuSans-52"/>
     <use x="155.761719" xlink:href="#DejaVuSans-50"/>
     <use x="216.064453" xlink:href="#DejaVuSans-50"/>
    </g>
   </g>
  </g>
 </g>
 <defs>
  <clipPath id="p6a9c5f6bac">
   <rect height="443.52" width="446.4" x="72" y="69.12"/>
  </clipPath>
 </defs>
</svg>
