<?xml version="1.0" encoding="utf-8" standalone="no"?>
<!DOCTYPE svg PUBLIC "-//W3C//DTD SVG 1.1//EN"
  "http://www.w3.org/Graphics/SVG/1.1/DTD/svg11.dtd">
<!-- Created with matplotlib (http://matplotlib.org/) -->
<svg height="576pt" version="1.1" viewBox="0 0 576 576" width="576pt" xmlns="http://www.w3.org/2000/svg" xmlns:xlink="http://www.w3.org/1999/xlink">
 <defs>
  <style type="text/css">
*{stroke-linecap:butt;stroke-linejoin:round;}
  </style>
 </defs>
 <g id="figure_1">
  <g id="patch_1">
   <path d="M 0 576 
L 576 576 
L 576 0 
L 0 0 
z
" style="fill:#ffffff;"/>
  </g>
  <g id="axes_1">
   <g id="patch_2">
    <path d="M 72 512.64 
L 518.4 512.64 
L 518.4 69.12 
L 72 69.12 
z
" style="fill:#ffffff;"/>
   </g>
   <g id="matplotlib.axis_1">
    <g id="xtick_1">
     <g id="line2d_1">
      <defs>
       <path d="M 0 0 
L 0 3.5 
" id="m88dc20a68e" style="stroke:#000000;stroke-width:0.8;"/>
      </defs>
      <g>
       <use style="stroke:#000000;stroke-width:0.8;" x="112.581818" xlink:href="#m88dc20a68e" y="512.64"/>
      </g>
     </g>
     <g id="text_1">
      <!-- 0 -->
      <defs>
       <path d="M 31.78125 66.40625 
Q 24.171875 66.40625 20.328125 58.90625 
Q 16.5 51.421875 16.5 36.375 
Q 16.5 21.390625 20.328125 13.890625 
Q 24.171875 6.390625 31.78125 6.390625 
Q 39.453125 6.390625 43.28125 13.890625 
Q 47.125 21.390625 47.125 36.375 
Q 47.125 51.421875 43.28125 58.90625 
Q 39.453125 66.40625 31.78125 66.40625 
z
M 31.78125 74.21875 
Q 44.046875 74.21875 50.515625 64.515625 
Q 56.984375 54.828125 56.984375 36.375 
Q 56.984375 17.96875 50.515625 8.265625 
Q 44.046875 -1.421875 31.78125 -1.421875 
Q 19.53125 -1.421875 13.0625 8.265625 
Q 6.59375 17.96875 6.59375 36.375 
Q 6.59375 54.828125 13.0625 64.515625 
Q 19.53125 74.21875 31.78125 74.21875 
z
" id="DejaVuSans-30"/>
      </defs>
      <g transform="translate(109.400568 527.238438)scale(0.1 -0.1)">
       <use xlink:href="#DejaVuSans-30"/>
      </g>
     </g>
    </g>
    <g id="xtick_2">
     <g id="line2d_2">
      <g>
       <use style="stroke:#000000;stroke-width:0.8;" x="193.745455" xlink:href="#m88dc20a68e" y="512.64"/>
      </g>
     </g>
     <g id="text_2">
      <!-- 2 -->
      <defs>
       <path d="M 19.1875 8.296875 
L 53.609375 8.296875 
L 53.609375 0 
L 7.328125 0 
L 7.328125 8.296875 
Q 12.9375 14.109375 22.625 23.890625 
Q 32.328125 33.6875 34.8125 36.53125 
Q 39.546875 41.84375 41.421875 45.53125 
Q 43.3125 49.21875 43.3125 52.78125 
Q 43.3125 58.59375 39.234375 62.25 
Q 35.15625 65.921875 28.609375 65.921875 
Q 23.96875 65.921875 18.8125 64.3125 
Q 13.671875 62.703125 7.8125 59.421875 
L 7.8125 69.390625 
Q 13.765625 71.78125 18.9375 73 
Q 24.125 74.21875 28.421875 74.21875 
Q 39.75 74.21875 46.484375 68.546875 
Q 53.21875 62.890625 53.21875 53.421875 
Q 53.21875 48.921875 51.53125 44.890625 
Q 49.859375 40.875 45.40625 35.40625 
Q 44.1875 33.984375 37.640625 27.21875 
Q 31.109375 20.453125 19.1875 8.296875 
z
" id="DejaVuSans-32"/>
      </defs>
      <g transform="translate(190.564205 527.238438)scale(0.1 -0.1)">
       <use xlink:href="#DejaVuSans-32"/>
      </g>
     </g>
    </g>
    <g id="xtick_3">
     <g id="line2d_3">
      <g>
       <use style="stroke:#000000;stroke-width:0.8;" x="274.909091" xlink:href="#m88dc20a68e" y="512.64"/>
      </g>
     </g>
     <g id="text_3">
      <!-- 4 -->
      <defs>
       <path d="M 37.796875 64.3125 
L 12.890625 25.390625 
L 37.796875 25.390625 
z
M 35.203125 72.90625 
L 47.609375 72.90625 
L 47.609375 25.390625 
L 58.015625 25.390625 
L 58.015625 17.1875 
L 47.609375 17.1875 
L 47.609375 0 
L 37.796875 0 
L 37.796875 17.1875 
L 4.890625 17.1875 
L 4.890625 26.703125 
z
" id="DejaVuSans-34"/>
      </defs>
      <g transform="translate(271.727841 527.238438)scale(0.1 -0.1)">
       <use xlink:href="#DejaVuSans-34"/>
      </g>
     </g>
    </g>
    <g id="xtick_4">
     <g id="line2d_4">
      <g>
       <use style="stroke:#000000;stroke-width:0.8;" x="356.072727" xlink:href="#m88dc20a68e" y="512.64"/>
      </g>
     </g>
     <g id="text_4">
      <!-- 6 -->
      <defs>
       <path d="M 33.015625 40.375 
Q 26.375 40.375 22.484375 35.828125 
Q 18.609375 31.296875 18.609375 23.390625 
Q 18.609375 15.53125 22.484375 10.953125 
Q 26.375 6.390625 33.015625 6.390625 
Q 39.65625 6.390625 43.53125 10.953125 
Q 47.40625 15.53125 47.40625 23.390625 
Q 47.40625 31.296875 43.53125 35.828125 
Q 39.65625 40.375 33.015625 40.375 
z
M 52.59375 71.296875 
L 52.59375 62.3125 
Q 48.875 64.0625 45.09375 64.984375 
Q 41.3125 65.921875 37.59375 65.921875 
Q 27.828125 65.921875 22.671875 59.328125 
Q 17.53125 52.734375 16.796875 39.40625 
Q 19.671875 43.65625 24.015625 45.921875 
Q 28.375 48.1875 33.59375 48.1875 
Q 44.578125 48.1875 50.953125 41.515625 
Q 57.328125 34.859375 57.328125 23.390625 
Q 57.328125 12.15625 50.6875 5.359375 
Q 44.046875 -1.421875 33.015625 -1.421875 
Q 20.359375 -1.421875 13.671875 8.265625 
Q 6.984375 17.96875 6.984375 36.375 
Q 6.984375 53.65625 15.1875 63.9375 
Q 23.390625 74.21875 37.203125 74.21875 
Q 40.921875 74.21875 44.703125 73.484375 
Q 48.484375 72.75 52.59375 71.296875 
z
" id="DejaVuSans-36"/>
      </defs>
      <g transform="translate(352.891477 527.238438)scale(0.1 -0.1)">
       <use xlink:href="#DejaVuSans-36"/>
      </g>
     </g>
    </g>
    <g id="xtick_5">
     <g id="line2d_5">
      <g>
       <use style="stroke:#000000;stroke-width:0.8;" x="437.236364" xlink:href="#m88dc20a68e" y="512.64"/>
      </g>
     </g>
     <g id="text_5">
      <!-- 8 -->
      <defs>
       <path d="M 31.78125 34.625 
Q 24.75 34.625 20.71875 30.859375 
Q 16.703125 27.09375 16.703125 20.515625 
Q 16.703125 13.921875 20.71875 10.15625 
Q 24.75 6.390625 31.78125 6.390625 
Q 38.8125 6.390625 42.859375 10.171875 
Q 46.921875 13.96875 46.921875 20.515625 
Q 46.921875 27.09375 42.890625 30.859375 
Q 38.875 34.625 31.78125 34.625 
z
M 21.921875 38.8125 
Q 15.578125 40.375 12.03125 44.71875 
Q 8.5 49.078125 8.5 55.328125 
Q 8.5 64.0625 14.71875 69.140625 
Q 20.953125 74.21875 31.78125 74.21875 
Q 42.671875 74.21875 48.875 69.140625 
Q 55.078125 64.0625 55.078125 55.328125 
Q 55.078125 49.078125 51.53125 44.71875 
Q 48 40.375 41.703125 38.8125 
Q 48.828125 37.15625 52.796875 32.3125 
Q 56.78125 27.484375 56.78125 20.515625 
Q 56.78125 9.90625 50.3125 4.234375 
Q 43.84375 -1.421875 31.78125 -1.421875 
Q 19.734375 -1.421875 13.25 4.234375 
Q 6.78125 9.90625 6.78125 20.515625 
Q 6.78125 27.484375 10.78125 32.3125 
Q 14.796875 37.15625 21.921875 38.8125 
z
M 18.3125 54.390625 
Q 18.3125 48.734375 21.84375 45.5625 
Q 25.390625 42.390625 31.78125 42.390625 
Q 38.140625 42.390625 41.71875 45.5625 
Q 45.3125 48.734375 45.3125 54.390625 
Q 45.3125 60.0625 41.71875 63.234375 
Q 38.140625 66.40625 31.78125 66.40625 
Q 25.390625 66.40625 21.84375 63.234375 
Q 18.3125 60.0625 18.3125 54.390625 
z
" id="DejaVuSans-38"/>
      </defs>
      <g transform="translate(434.055114 527.238438)scale(0.1 -0.1)">
       <use xlink:href="#DejaVuSans-38"/>
      </g>
     </g>
    </g>
    <g id="xtick_6">
     <g id="line2d_6">
      <g>
       <use style="stroke:#000000;stroke-width:0.8;" x="518.4" xlink:href="#m88dc20a68e" y="512.64"/>
      </g>
     </g>
     <g id="text_6">
      <!-- 10 -->
      <defs>
       <path d="M 12.40625 8.296875 
L 28.515625 8.296875 
L 28.515625 63.921875 
L 10.984375 60.40625 
L 10.984375 69.390625 
L 28.421875 72.90625 
L 38.28125 72.90625 
L 38.28125 8.296875 
L 54.390625 8.296875 
L 54.390625 0 
L 12.40625 0 
z
" id="DejaVuSans-31"/>
      </defs>
      <g transform="translate(512.0375 527.238438)scale(0.1 -0.1)">
       <use xlink:href="#DejaVuSans-31"/>
       <use x="63.623047" xlink:href="#DejaVuSans-30"/>
      </g>
     </g>
    </g>
   </g>
   <g id="matplotlib.axis_2">
    <g id="ytick_1">
     <g id="line2d_7">
      <defs>
       <path d="M 0 0 
L -3.5 0 
" id="m305a9dbaac" style="stroke:#000000;stroke-width:0.8;"/>
      </defs>
      <g>
       <use style="stroke:#000000;stroke-width:0.8;" x="72" xlink:href="#m305a9dbaac" y="473.498182"/>
      </g>
     </g>
     <g id="text_7">
      <!-- 0 -->
      <g transform="translate(58.6375 477.297401)scale(0.1 -0.1)">
       <use xlink:href="#DejaVuSans-30"/>
      </g>
     </g>
    </g>
    <g id="ytick_2">
     <g id="line2d_8">
      <g>
       <use style="stroke:#000000;stroke-width:0.8;" x="72" xlink:href="#m305a9dbaac" y="392.334545"/>
      </g>
     </g>
     <g id="text_8">
      <!-- 2 -->
      <g transform="translate(58.6375 396.133764)scale(0.1 -0.1)">
       <use xlink:href="#DejaVuSans-32"/>
      </g>
     </g>
    </g>
    <g id="ytick_3">
     <g id="line2d_9">
      <g>
       <use style="stroke:#000000;stroke-width:0.8;" x="72" xlink:href="#m305a9dbaac" y="311.170909"/>
      </g>
     </g>
     <g id="text_9">
      <!-- 4 -->
      <g transform="translate(58.6375 314.970128)scale(0.1 -0.1)">
       <use xlink:href="#DejaVuSans-34"/>
      </g>
     </g>
    </g>
    <g id="ytick_4">
     <g id="line2d_10">
      <g>
       <use style="stroke:#000000;stroke-width:0.8;" x="72" xlink:href="#m305a9dbaac" y="230.007273"/>
      </g>
     </g>
     <g id="text_10">
      <!-- 6 -->
      <g transform="translate(58.6375 233.806491)scale(0.1 -0.1)">
       <use xlink:href="#DejaVuSans-36"/>
      </g>
     </g>
    </g>
    <g id="ytick_5">
     <g id="line2d_11">
      <g>
       <use style="stroke:#000000;stroke-width:0.8;" x="72" xlink:href="#m305a9dbaac" y="148.843636"/>
      </g>
     </g>
     <g id="text_11">
      <!-- 8 -->
      <g transform="translate(58.6375 152.642855)scale(0.1 -0.1)">
       <use xlink:href="#DejaVuSans-38"/>
      </g>
     </g>
    </g>
   </g>
   <g id="line2d_12">
    <path clip-path="url(#p0851a0ca38)" d="M 120.403503 332.333028 
" style="fill:none;stroke:#1f77b4;stroke-linecap:square;stroke-width:1.5;"/>
    <defs>
     <path d="M -5 5 
L 5 5 
L 5 -5 
L -5 -5 
z
" id="mcbcaae5694" style="stroke:#8000ff;stroke-linejoin:miter;"/>
    </defs>
    <g clip-path="url(#p0851a0ca38)">
     <use style="fill:#8000ff;stroke:#8000ff;stroke-linejoin:miter;" x="120.403503" xlink:href="#mcbcaae5694" y="332.333028"/>
    </g>
   </g>
   <g id="line2d_13">
    <path clip-path="url(#p0851a0ca38)" d="M 398.742174 158.910709 
" style="fill:none;stroke:#ff7f0e;stroke-linecap:square;stroke-width:1.5;"/>
    <defs>
     <path d="M 0 -5 
L -4.755283 -1.545085 
L -2.938926 4.045085 
L 2.938926 4.045085 
L 4.755283 -1.545085 
z
" id="m5aec39343b" style="stroke:#8000ff;stroke-linejoin:miter;"/>
    </defs>
    <g clip-path="url(#p0851a0ca38)">
     <use style="fill:#8000ff;stroke:#8000ff;stroke-linejoin:miter;" x="398.742174" xlink:href="#m5aec39343b" y="158.910709"/>
    </g>
   </g>
   <g id="line2d_14">
    <path clip-path="url(#p0851a0ca38)" d="M 355.061349 471.839639 
" style="fill:none;stroke:#2ca02c;stroke-linecap:square;stroke-width:1.5;"/>
    <defs>
     <path d="M -5 5 
L 5 5 
L 5 -5 
L -5 -5 
z
" id="m0413926ef9" style="stroke:#376ff9;stroke-linejoin:miter;"/>
    </defs>
    <g clip-path="url(#p0851a0ca38)">
     <use style="fill:#376ff9;stroke:#376ff9;stroke-linejoin:miter;" x="355.061349" xlink:href="#m0413926ef9" y="471.839639"/>
    </g>
   </g>
   <g id="line2d_15">
    <path clip-path="url(#p0851a0ca38)" d="M 318.057587 248.825822 
" style="fill:none;stroke:#d62728;stroke-linecap:square;stroke-width:1.5;"/>
    <defs>
     <path d="M 0 -5 
L -4.755283 -1.545085 
L -2.938926 4.045085 
L 2.938926 4.045085 
L 4.755283 -1.545085 
z
" id="mc83a2cf293" style="stroke:#376ff9;stroke-linejoin:miter;"/>
    </defs>
    <g clip-path="url(#p0851a0ca38)">
     <use style="fill:#376ff9;stroke:#376ff9;stroke-linejoin:miter;" x="318.057587" xlink:href="#mc83a2cf293" y="248.825822"/>
    </g>
   </g>
   <g id="line2d_16">
    <path clip-path="url(#p0851a0ca38)" d="M 201.513086 188.306939 
" style="fill:none;stroke:#9467bd;stroke-linecap:square;stroke-width:1.5;"/>
    <defs>
     <path d="M -5 5 
L 5 5 
L 5 -5 
L -5 -5 
z
" id="ma55b99470a" style="stroke:#12c7e6;stroke-linejoin:miter;"/>
    </defs>
    <g clip-path="url(#p0851a0ca38)">
     <use style="fill:#12c7e6;stroke:#12c7e6;stroke-linejoin:miter;" x="201.513086" xlink:href="#ma55b99470a" y="188.306939"/>
    </g>
   </g>
   <g id="line2d_17">
    <path clip-path="url(#p0851a0ca38)" d="M 236.682462 465.127917 
" style="fill:none;stroke:#8c564b;stroke-linecap:square;stroke-width:1.5;"/>
    <defs>
     <path d="M 0 -5 
L -4.755283 -1.545085 
L -2.938926 4.045085 
L 2.938926 4.045085 
L 4.755283 -1.545085 
z
" id="m2906ef2a6f" style="stroke:#12c7e6;stroke-linejoin:miter;"/>
    </defs>
    <g clip-path="url(#p0851a0ca38)">
     <use style="fill:#12c7e6;stroke:#12c7e6;stroke-linejoin:miter;" x="236.682462" xlink:href="#m2906ef2a6f" y="465.127917"/>
    </g>
   </g>
   <g id="line2d_18">
    <path clip-path="url(#p0851a0ca38)" d="M 470.575128 117.665211 
" style="fill:none;stroke:#e377c2;stroke-linecap:square;stroke-width:1.5;"/>
    <defs>
     <path d="M -5 5 
L 5 5 
L 5 -5 
L -5 -5 
z
" id="md27ae2a80c" style="stroke:#5bf9c7;stroke-linejoin:miter;"/>
    </defs>
    <g clip-path="url(#p0851a0ca38)">
     <use style="fill:#5bf9c7;stroke:#5bf9c7;stroke-linejoin:miter;" x="470.575128" xlink:href="#md27ae2a80c" y="117.665211"/>
    </g>
   </g>
   <g id="line2d_19">
    <path clip-path="url(#p0851a0ca38)" d="M 414.630513 463.488023 
" style="fill:none;stroke:#7f7f7f;stroke-linecap:square;stroke-width:1.5;"/>
    <defs>
     <path d="M 0 -5 
L -4.755283 -1.545085 
L -2.938926 4.045085 
L 2.938926 4.045085 
L 4.755283 -1.545085 
z
" id="ma0e48d9ba8" style="stroke:#5bf9c7;stroke-linejoin:miter;"/>
    </defs>
    <g clip-path="url(#p0851a0ca38)">
     <use style="fill:#5bf9c7;stroke:#5bf9c7;stroke-linejoin:miter;" x="414.630513" xlink:href="#ma0e48d9ba8" y="463.488023"/>
    </g>
   </g>
   <g id="line2d_20">
    <path clip-path="url(#p0851a0ca38)" d="M 327.743755 306.895663 
" style="fill:none;stroke:#bcbd22;stroke-linecap:square;stroke-width:1.5;"/>
    <defs>
     <path d="M -5 5 
L 5 5 
L 5 -5 
L -5 -5 
z
" id="me9a1364635" style="stroke:#a4f99f;stroke-linejoin:miter;"/>
    </defs>
    <g clip-path="url(#p0851a0ca38)">
     <use style="fill:#a4f99f;stroke:#a4f99f;stroke-linejoin:miter;" x="327.743755" xlink:href="#me9a1364635" y="306.895663"/>
    </g>
   </g>
   <g id="line2d_21">
    <path clip-path="url(#p0851a0ca38)" d="M 119.490311 146.09703 
" style="fill:none;stroke:#17becf;stroke-linecap:square;stroke-width:1.5;"/>
    <defs>
     <path d="M 0 -5 
L -4.755283 -1.545085 
L -2.938926 4.045085 
L 2.938926 4.045085 
L 4.755283 -1.545085 
z
" id="m02f2d6c900" style="stroke:#a4f99f;stroke-linejoin:miter;"/>
    </defs>
    <g clip-path="url(#p0851a0ca38)">
     <use style="fill:#a4f99f;stroke:#a4f99f;stroke-linejoin:miter;" x="119.490311" xlink:href="#m02f2d6c900" y="146.09703"/>
    </g>
   </g>
   <g id="line2d_22">
    <path clip-path="url(#p0851a0ca38)" d="M 197.887903 253.426844 
" style="fill:none;stroke:#1f77b4;stroke-linecap:square;stroke-width:1.5;"/>
    <defs>
     <path d="M -5 5 
L 5 5 
L 5 -5 
L -5 -5 
z
" id="m129d33035a" style="stroke:#edc76f;stroke-linejoin:miter;"/>
    </defs>
    <g clip-path="url(#p0851a0ca38)">
     <use style="fill:#edc76f;stroke:#edc76f;stroke-linejoin:miter;" x="197.887903" xlink:href="#m129d33035a" y="253.426844"/>
    </g>
   </g>
   <g id="line2d_23">
    <path clip-path="url(#p0851a0ca38)" d="M 474.813523 241.322037 
" style="fill:none;stroke:#ff7f0e;stroke-linecap:square;stroke-width:1.5;"/>
    <defs>
     <path d="M 0 -5 
L -4.755283 -1.545085 
L -2.938926 4.045085 
L 2.938926 4.045085 
L 4.755283 -1.545085 
z
" id="m7a7fc4b5a6" style="stroke:#edc76f;stroke-linejoin:miter;"/>
    </defs>
    <g clip-path="url(#p0851a0ca38)">
     <use style="fill:#edc76f;stroke:#edc76f;stroke-linejoin:miter;" x="474.813523" xlink:href="#m7a7fc4b5a6" y="241.322037"/>
    </g>
   </g>
   <g id="line2d_24">
    <path clip-path="url(#p0851a0ca38)" d="M 260.013232 128.228549 
" style="fill:none;stroke:#2ca02c;stroke-linecap:square;stroke-width:1.5;"/>
    <defs>
     <path d="M -5 5 
L 5 5 
L 5 -5 
L -5 -5 
z
" id="m17d04d3d0f" style="stroke:#ff6f39;stroke-linejoin:miter;"/>
    </defs>
    <g clip-path="url(#p0851a0ca38)">
     <use style="fill:#ff6f39;stroke:#ff6f39;stroke-linejoin:miter;" x="260.013232" xlink:href="#m17d04d3d0f" y="128.228549"/>
    </g>
   </g>
   <g id="line2d_25">
    <path clip-path="url(#p0851a0ca38)" d="M 475.640412 372.215799 
" style="fill:none;stroke:#d62728;stroke-linecap:square;stroke-width:1.5;"/>
    <defs>
     <path d="M 0 -5 
L -4.755283 -1.545085 
L -2.938926 4.045085 
L 2.938926 4.045085 
L 4.755283 -1.545085 
z
" id="m317f2a4760" style="stroke:#ff6f39;stroke-linejoin:miter;"/>
    </defs>
    <g clip-path="url(#p0851a0ca38)">
     <use style="fill:#ff6f39;stroke:#ff6f39;stroke-linejoin:miter;" x="475.640412" xlink:href="#m317f2a4760" y="372.215799"/>
    </g>
   </g>
   <g id="line2d_26">
    <path clip-path="url(#p0851a0ca38)" d="M 248.698047 254.220314 
" style="fill:none;stroke:#9467bd;stroke-linecap:square;stroke-width:1.5;"/>
    <defs>
     <path d="M -5 5 
L 5 5 
L 5 -5 
L -5 -5 
z
" id="mfe181e4835" style="stroke:#ff0000;stroke-linejoin:miter;"/>
    </defs>
    <g clip-path="url(#p0851a0ca38)">
     <use style="fill:#ff0000;stroke:#ff0000;stroke-linejoin:miter;" x="248.698047" xlink:href="#mfe181e4835" y="254.220314"/>
    </g>
   </g>
   <g id="line2d_27">
    <path clip-path="url(#p0851a0ca38)" d="M 475.622705 450.318683 
" style="fill:none;stroke:#8c564b;stroke-linecap:square;stroke-width:1.5;"/>
    <defs>
     <path d="M 0 -5 
L -4.755283 -1.545085 
L -2.938926 4.045085 
L 2.938926 4.045085 
L 4.755283 -1.545085 
z
" id="mf5cf3fbea0" style="stroke:#ff0000;stroke-linejoin:miter;"/>
    </defs>
    <g clip-path="url(#p0851a0ca38)">
     <use style="fill:#ff0000;stroke:#ff0000;stroke-linejoin:miter;" x="475.622705" xlink:href="#mf5cf3fbea0" y="450.318683"/>
    </g>
   </g>
   <g id="line2d_28">
    <defs>
     <path d="M 0 2.5 
C 0.663008 2.5 1.29895 2.236584 1.767767 1.767767 
C 2.236584 1.29895 2.5 0.663008 2.5 0 
C 2.5 -0.663008 2.236584 -1.29895 1.767767 -1.767767 
C 1.29895 -2.236584 0.663008 -2.5 0 -2.5 
C -0.663008 -2.5 -1.29895 -2.236584 -1.767767 -1.767767 
C -2.236584 -1.29895 -2.5 -0.663008 -2.5 0 
C -2.5 0.663008 -2.236584 1.29895 -1.767767 1.767767 
C -1.29895 2.236584 -0.663008 2.5 0 2.5 
z
" id="m7815a5a20e" style="stroke:#000000;"/>
    </defs>
    <g clip-path="url(#p0851a0ca38)">
     <use style="stroke:#000000;" x="181.807793" xlink:href="#m7815a5a20e" y="442.644519"/>
     <use style="stroke:#000000;" x="170.920723" xlink:href="#m7815a5a20e" y="295.158137"/>
     <use style="stroke:#000000;" x="399.851173" xlink:href="#m7815a5a20e" y="222.934642"/>
     <use style="stroke:#000000;" x="207.808846" xlink:href="#m7815a5a20e" y="386.016149"/>
     <use style="stroke:#000000;" x="389.777904" xlink:href="#m7815a5a20e" y="402.361097"/>
     <use style="stroke:#000000;" x="144.399346" xlink:href="#m7815a5a20e" y="278.336355"/>
     <use style="stroke:#000000;" x="430.454041" xlink:href="#m7815a5a20e" y="255.218221"/>
     <use style="stroke:#000000;" x="118.346944" xlink:href="#m7815a5a20e" y="442.618439"/>
     <use style="stroke:#000000;" x="431.033336" xlink:href="#m7815a5a20e" y="339.107072"/>
     <use style="stroke:#000000;" x="423.975672" xlink:href="#m7815a5a20e" y="398.267772"/>
     <use style="stroke:#000000;" x="354.842203" xlink:href="#m7815a5a20e" y="161.786771"/>
     <use style="stroke:#000000;" x="164.128319" xlink:href="#m7815a5a20e" y="109.369486"/>
     <use style="stroke:#000000;" x="169.736441" xlink:href="#m7815a5a20e" y="413.510338"/>
     <use style="stroke:#000000;" x="266.309585" xlink:href="#m7815a5a20e" y="215.255853"/>
     <use style="stroke:#000000;" x="141.116909" xlink:href="#m7815a5a20e" y="424.869489"/>
    </g>
   </g>
   <g id="line2d_29">
    <path clip-path="url(#p0851a0ca38)" d="M 198.040521 442.644519 
L 197.160987 437.373761 
L 194.617696 432.674171 
L 190.686254 429.055024 
L 185.792692 426.908509 
L 180.467305 426.467235 
L 175.287181 427.77902 
L 170.813666 430.701713 
L 167.531536 434.918595 
L 165.796459 439.9727 
L 165.796459 445.316338 
L 167.531536 450.370443 
L 170.813666 454.587325 
L 175.287181 457.510018 
L 180.467305 458.821803 
L 185.792692 458.380529 
L 190.686254 456.234014 
L 194.617696 452.614866 
L 197.160987 447.915277 
L 198.040521 442.644519 
" style="fill:none;stroke:#000000;stroke-dasharray:5.55,2.4;stroke-dashoffset:0;stroke-width:1.5;"/>
   </g>
   <g id="line2d_30">
    <path clip-path="url(#p0851a0ca38)" d="M 186.271793 442.644519 
L 186.029922 441.195061 
L 185.330517 439.902673 
L 184.24937 438.907408 
L 182.903641 438.317116 
L 181.439159 438.195766 
L 180.014625 438.556507 
L 178.784408 439.360247 
L 177.881823 440.51989 
L 177.404677 441.909769 
L 177.404677 443.379269 
L 177.881823 444.769148 
L 178.784408 445.92879 
L 180.014625 446.732531 
L 181.439159 447.093272 
L 182.903641 446.971922 
L 184.24937 446.38163 
L 185.330517 445.386365 
L 186.029922 444.093977 
L 186.271793 442.644519 
" style="fill:none;stroke:#ff0000;stroke-linecap:square;stroke-width:1.5;"/>
   </g>
   <g id="line2d_31">
    <path clip-path="url(#p0851a0ca38)" d="M 187.15345 295.158137 
L 186.273916 289.887379 
L 183.730625 285.18779 
L 179.799183 281.568642 
L 174.905621 279.422127 
L 169.580235 278.980853 
L 164.40011 280.292638 
L 159.926595 283.215331 
L 156.644465 287.432213 
L 154.909388 292.486318 
L 154.909388 297.829956 
L 156.644465 302.884061 
L 159.926595 307.100943 
L 164.40011 310.023636 
L 169.580235 311.335421 
L 174.905621 310.894147 
L 179.799183 308.747632 
L 183.730625 305.128484 
L 186.273916 300.428895 
L 187.15345 295.158137 
" style="fill:none;stroke:#000000;stroke-dasharray:5.55,2.4;stroke-dashoffset:0;stroke-width:1.5;"/>
   </g>
   <g id="line2d_32">
    <path clip-path="url(#p0851a0ca38)" d="M 175.384723 295.158137 
L 175.142851 293.708679 
L 174.443446 292.416291 
L 173.362299 291.421026 
L 172.01657 290.830734 
L 170.552088 290.709384 
L 169.127554 291.070125 
L 167.897338 291.873865 
L 166.994752 293.033508 
L 166.517606 294.423387 
L 166.517606 295.892887 
L 166.994752 297.282766 
L 167.897338 298.442409 
L 169.127554 299.246149 
L 170.552088 299.60689 
L 172.01657 299.48554 
L 173.362299 298.895248 
L 174.443446 297.899983 
L 175.142851 296.607595 
L 175.384723 295.158137 
" style="fill:none;stroke:#ff0000;stroke-linecap:square;stroke-width:1.5;"/>
   </g>
   <g id="line2d_33">
    <path clip-path="url(#p0851a0ca38)" d="M 416.0839 222.934642 
L 415.204366 217.663884 
L 412.661076 212.964294 
L 408.729633 209.345147 
L 403.836072 207.198632 
L 398.510685 206.757358 
L 393.330561 208.069143 
L 388.857046 210.991836 
L 385.574916 215.208718 
L 383.839839 220.262823 
L 383.839839 225.606461 
L 385.574916 230.660566 
L 388.857046 234.877447 
L 393.330561 237.800141 
L 398.510685 239.111926 
L 403.836072 238.670652 
L 408.729633 236.524137 
L 412.661076 232.904989 
L 415.204366 228.2054 
L 416.0839 222.934642 
" style="fill:none;stroke:#000000;stroke-dasharray:5.55,2.4;stroke-dashoffset:0;stroke-width:1.5;"/>
   </g>
   <g id="line2d_34">
    <path clip-path="url(#p0851a0ca38)" d="M 404.315173 222.934642 
L 404.073301 221.485183 
L 403.373896 220.192796 
L 402.29275 219.197531 
L 400.94702 218.607239 
L 399.482539 218.485889 
L 398.058005 218.84663 
L 396.827788 219.65037 
L 395.925202 220.810013 
L 395.448056 222.199892 
L 395.448056 223.669392 
L 395.925202 225.059271 
L 396.827788 226.218913 
L 398.058005 227.022654 
L 399.482539 227.383395 
L 400.94702 227.262045 
L 402.29275 226.671753 
L 403.373896 225.676487 
L 404.073301 224.3841 
L 404.315173 222.934642 
" style="fill:none;stroke:#ff0000;stroke-linecap:square;stroke-width:1.5;"/>
   </g>
   <g id="line2d_35">
    <path clip-path="url(#p0851a0ca38)" d="M 224.041573 386.016149 
L 223.16204 380.745391 
L 220.618749 376.045801 
L 216.687306 372.426653 
L 211.793745 370.280138 
L 206.468358 369.838864 
L 201.288234 371.15065 
L 196.814719 374.073343 
L 193.532589 378.290224 
L 191.797512 383.34433 
L 191.797512 388.687968 
L 193.532589 393.742073 
L 196.814719 397.958954 
L 201.288234 400.881647 
L 206.468358 402.193433 
L 211.793745 401.752159 
L 216.687306 399.605644 
L 220.618749 395.986496 
L 223.16204 391.286907 
L 224.041573 386.016149 
" style="fill:none;stroke:#000000;stroke-dasharray:5.55,2.4;stroke-dashoffset:0;stroke-width:1.5;"/>
   </g>
   <g id="line2d_36">
    <path clip-path="url(#p0851a0ca38)" d="M 212.272846 386.016149 
L 212.030974 384.56669 
L 211.331569 383.274303 
L 210.250423 382.279037 
L 208.904693 381.688746 
L 207.440212 381.567395 
L 206.015678 381.928136 
L 204.785461 382.731877 
L 203.882875 383.891519 
L 203.405729 385.281398 
L 203.405729 386.750899 
L 203.882875 388.140778 
L 204.785461 389.30042 
L 206.015678 390.104161 
L 207.440212 390.464902 
L 208.904693 390.343551 
L 210.250423 389.75326 
L 211.331569 388.757994 
L 212.030974 387.465607 
L 212.272846 386.016149 
" style="fill:none;stroke:#ff0000;stroke-linecap:square;stroke-width:1.5;"/>
   </g>
   <g id="line2d_37">
    <path clip-path="url(#p0851a0ca38)" d="M 406.010631 402.361097 
L 405.131097 397.090339 
L 402.587807 392.390749 
L 398.656364 388.771602 
L 393.762803 386.625087 
L 388.437416 386.183812 
L 383.257292 387.495598 
L 378.783777 390.418291 
L 375.501646 394.635172 
L 373.76657 399.689278 
L 373.76657 405.032916 
L 375.501646 410.087021 
L 378.783777 414.303902 
L 383.257292 417.226595 
L 388.437416 418.538381 
L 393.762803 418.097107 
L 398.656364 415.950592 
L 402.587807 412.331444 
L 405.131097 407.631855 
L 406.010631 402.361097 
" style="fill:none;stroke:#000000;stroke-dasharray:5.55,2.4;stroke-dashoffset:0;stroke-width:1.5;"/>
   </g>
   <g id="line2d_38">
    <path clip-path="url(#p0851a0ca38)" d="M 394.241904 402.361097 
L 394.000032 400.911638 
L 393.300627 399.619251 
L 392.21948 398.623986 
L 390.873751 398.033694 
L 389.40927 397.912344 
L 387.984735 398.273085 
L 386.754519 399.076825 
L 385.851933 400.236468 
L 385.374787 401.626346 
L 385.374787 403.095847 
L 385.851933 404.485726 
L 386.754519 405.645368 
L 387.984735 406.449109 
L 389.40927 406.80985 
L 390.873751 406.688499 
L 392.21948 406.098208 
L 393.300627 405.102942 
L 394.000032 403.810555 
L 394.241904 402.361097 
" style="fill:none;stroke:#ff0000;stroke-linecap:square;stroke-width:1.5;"/>
   </g>
   <g id="line2d_39">
    <path clip-path="url(#p0851a0ca38)" d="M 160.632073 278.336355 
L 159.752539 273.065597 
L 157.209249 268.366008 
L 153.277806 264.74686 
L 148.384245 262.600345 
L 143.058858 262.159071 
L 137.878734 263.470856 
L 133.405219 266.393549 
L 130.123088 270.610431 
L 128.388012 275.664536 
L 128.388012 281.008174 
L 130.123088 286.062279 
L 133.405219 290.279161 
L 137.878734 293.201854 
L 143.058858 294.513639 
L 148.384245 294.072365 
L 153.277806 291.92585 
L 157.209249 288.306702 
L 159.752539 283.607113 
L 160.632073 278.336355 
" style="fill:none;stroke:#000000;stroke-dasharray:5.55,2.4;stroke-dashoffset:0;stroke-width:1.5;"/>
   </g>
   <g id="line2d_40">
    <path clip-path="url(#p0851a0ca38)" d="M 148.863346 278.336355 
L 148.621474 276.886897 
L 147.922069 275.594509 
L 146.840922 274.599244 
L 145.495193 274.008952 
L 144.030712 273.887602 
L 142.606178 274.248343 
L 141.375961 275.052083 
L 140.473375 276.211726 
L 139.996229 277.601605 
L 139.996229 279.071105 
L 140.473375 280.460984 
L 141.375961 281.620627 
L 142.606178 282.424367 
L 144.030712 282.785108 
L 145.495193 282.663758 
L 146.840922 282.073466 
L 147.922069 281.078201 
L 148.621474 279.785813 
L 148.863346 278.336355 
" style="fill:none;stroke:#ff0000;stroke-linecap:square;stroke-width:1.5;"/>
   </g>
   <g id="line2d_41">
    <path clip-path="url(#p0851a0ca38)" d="M 446.686768 255.218221 
L 445.807234 249.947463 
L 443.263944 245.247873 
L 439.332501 241.628726 
L 434.43894 239.482211 
L 429.113553 239.040936 
L 423.933429 240.352722 
L 419.459914 243.275415 
L 416.177783 247.492297 
L 414.442707 252.546402 
L 414.442707 257.89004 
L 416.177783 262.944145 
L 419.459914 267.161026 
L 423.933429 270.083719 
L 429.113553 271.395505 
L 434.43894 270.954231 
L 439.332501 268.807716 
L 443.263944 265.188568 
L 445.807234 260.488979 
L 446.686768 255.218221 
" style="fill:none;stroke:#000000;stroke-dasharray:5.55,2.4;stroke-dashoffset:0;stroke-width:1.5;"/>
   </g>
   <g id="line2d_42">
    <path clip-path="url(#p0851a0ca38)" d="M 434.918041 255.218221 
L 434.676169 253.768762 
L 433.976764 252.476375 
L 432.895617 251.48111 
L 431.549888 250.890818 
L 430.085407 250.769468 
L 428.660872 251.130209 
L 427.430656 251.933949 
L 426.52807 253.093592 
L 426.050924 254.48347 
L 426.050924 255.952971 
L 426.52807 257.34285 
L 427.430656 258.502492 
L 428.660872 259.306233 
L 430.085407 259.666974 
L 431.549888 259.545624 
L 432.895617 258.955332 
L 433.976764 257.960066 
L 434.676169 256.667679 
L 434.918041 255.218221 
" style="fill:none;stroke:#ff0000;stroke-linecap:square;stroke-width:1.5;"/>
   </g>
   <g id="line2d_43">
    <path clip-path="url(#p0851a0ca38)" d="M 134.579671 442.618439 
L 133.700137 437.347681 
L 131.156847 432.648092 
L 127.225404 429.028944 
L 122.331843 426.882429 
L 117.006456 426.441155 
L 111.826332 427.752941 
L 107.352817 430.675634 
L 104.070686 434.892515 
L 102.33561 439.94662 
L 102.33561 445.290258 
L 104.070686 450.344364 
L 107.352817 454.561245 
L 111.826332 457.483938 
L 117.006456 458.795724 
L 122.331843 458.354449 
L 127.225404 456.207934 
L 131.156847 452.588787 
L 133.700137 447.889197 
L 134.579671 442.618439 
" style="fill:none;stroke:#000000;stroke-dasharray:5.55,2.4;stroke-dashoffset:0;stroke-width:1.5;"/>
   </g>
   <g id="line2d_44">
    <path clip-path="url(#p0851a0ca38)" d="M 122.810944 442.618439 
L 122.569072 441.168981 
L 121.869667 439.876594 
L 120.788521 438.881328 
L 119.442791 438.291037 
L 117.97831 438.169686 
L 116.553776 438.530427 
L 115.323559 439.334168 
L 114.420973 440.49381 
L 113.943827 441.883689 
L 113.943827 443.35319 
L 114.420973 444.743068 
L 115.323559 445.902711 
L 116.553776 446.706451 
L 117.97831 447.067192 
L 119.442791 446.945842 
L 120.788521 446.35555 
L 121.869667 445.360285 
L 122.569072 444.067898 
L 122.810944 442.618439 
" style="fill:none;stroke:#ff0000;stroke-linecap:square;stroke-width:1.5;"/>
   </g>
   <g id="line2d_45">
    <path clip-path="url(#p0851a0ca38)" d="M 447.266063 339.107072 
L 446.386529 333.836314 
L 443.843239 329.136725 
L 439.911796 325.517577 
L 435.018235 323.371062 
L 429.692848 322.929788 
L 424.512724 324.241574 
L 420.039209 327.164267 
L 416.757078 331.381148 
L 415.022002 336.435253 
L 415.022002 341.778891 
L 416.757078 346.832996 
L 420.039209 351.049878 
L 424.512724 353.972571 
L 429.692848 355.284357 
L 435.018235 354.843082 
L 439.911796 352.696567 
L 443.843239 349.07742 
L 446.386529 344.37783 
L 447.266063 339.107072 
" style="fill:none;stroke:#000000;stroke-dasharray:5.55,2.4;stroke-dashoffset:0;stroke-width:1.5;"/>
   </g>
   <g id="line2d_46">
    <path clip-path="url(#p0851a0ca38)" d="M 435.497336 339.107072 
L 435.255464 337.657614 
L 434.556059 336.365227 
L 433.474913 335.369961 
L 432.129183 334.779669 
L 430.664702 334.658319 
L 429.240168 335.01906 
L 428.009951 335.822801 
L 427.107365 336.982443 
L 426.630219 338.372322 
L 426.630219 339.841822 
L 427.107365 341.231701 
L 428.009951 342.391344 
L 429.240168 343.195084 
L 430.664702 343.555825 
L 432.129183 343.434475 
L 433.474913 342.844183 
L 434.556059 341.848918 
L 435.255464 340.556531 
L 435.497336 339.107072 
" style="fill:none;stroke:#ff0000;stroke-linecap:square;stroke-width:1.5;"/>
   </g>
   <g id="line2d_47">
    <path clip-path="url(#p0851a0ca38)" d="M 440.208399 398.267772 
L 439.328865 392.997015 
L 436.785574 388.297425 
L 432.854132 384.678277 
L 427.960571 382.531762 
L 422.635184 382.090488 
L 417.45506 383.402274 
L 412.981545 386.324967 
L 409.699414 390.541848 
L 407.964338 395.595953 
L 407.964338 400.939592 
L 409.699414 405.993697 
L 412.981545 410.210578 
L 417.45506 413.133271 
L 422.635184 414.445057 
L 427.960571 414.003783 
L 432.854132 411.857268 
L 436.785574 408.23812 
L 439.328865 403.53853 
L 440.208399 398.267772 
" style="fill:none;stroke:#000000;stroke-dasharray:5.55,2.4;stroke-dashoffset:0;stroke-width:1.5;"/>
   </g>
   <g id="line2d_48">
    <path clip-path="url(#p0851a0ca38)" d="M 428.439672 398.267772 
L 428.1978 396.818314 
L 427.498395 395.525927 
L 426.417248 394.530661 
L 425.071519 393.94037 
L 423.607038 393.819019 
L 422.182503 394.17976 
L 420.952287 394.983501 
L 420.049701 396.143143 
L 419.572555 397.533022 
L 419.572555 399.002523 
L 420.049701 400.392402 
L 420.952287 401.552044 
L 422.182503 402.355785 
L 423.607038 402.716526 
L 425.071519 402.595175 
L 426.417248 402.004884 
L 427.498395 401.009618 
L 428.1978 399.717231 
L 428.439672 398.267772 
" style="fill:none;stroke:#ff0000;stroke-linecap:square;stroke-width:1.5;"/>
   </g>
   <g id="line2d_49">
    <path clip-path="url(#p0851a0ca38)" d="M 371.07493 161.786771 
L 370.195396 156.516013 
L 367.652105 151.816424 
L 363.720663 148.197276 
L 358.827102 146.050761 
L 353.501715 145.609487 
L 348.32159 146.921272 
L 343.848076 149.843965 
L 340.565945 154.060847 
L 338.830869 159.114952 
L 338.830869 164.45859 
L 340.565945 169.512695 
L 343.848076 173.729577 
L 348.32159 176.65227 
L 353.501715 177.964055 
L 358.827102 177.522781 
L 363.720663 175.376266 
L 367.652105 171.757118 
L 370.195396 167.057529 
L 371.07493 161.786771 
" style="fill:none;stroke:#000000;stroke-dasharray:5.55,2.4;stroke-dashoffset:0;stroke-width:1.5;"/>
   </g>
   <g id="line2d_50">
    <path clip-path="url(#p0851a0ca38)" d="M 359.306203 161.786771 
L 359.064331 160.337313 
L 358.364926 159.044925 
L 357.283779 158.04966 
L 355.93805 157.459368 
L 354.473568 157.338018 
L 353.049034 157.698759 
L 351.818818 158.502499 
L 350.916232 159.662142 
L 350.439086 161.052021 
L 350.439086 162.521521 
L 350.916232 163.9114 
L 351.818818 165.071043 
L 353.049034 165.874783 
L 354.473568 166.235524 
L 355.93805 166.114174 
L 357.283779 165.523882 
L 358.364926 164.528617 
L 359.064331 163.236229 
L 359.306203 161.786771 
" style="fill:none;stroke:#ff0000;stroke-linecap:square;stroke-width:1.5;"/>
   </g>
   <g id="line2d_51">
    <path clip-path="url(#p0851a0ca38)" d="M 180.361047 109.369486 
L 179.481513 104.098728 
L 176.938222 99.399138 
L 173.00678 95.779991 
L 168.113218 93.633476 
L 162.787831 93.192201 
L 157.607707 94.503987 
L 153.134192 97.42668 
L 149.852062 101.643562 
L 148.116985 106.697667 
L 148.116985 112.041305 
L 149.852062 117.09541 
L 153.134192 121.312291 
L 157.607707 124.234984 
L 162.787831 125.54677 
L 168.113218 125.105496 
L 173.00678 122.958981 
L 176.938222 119.339833 
L 179.481513 114.640244 
L 180.361047 109.369486 
" style="fill:none;stroke:#000000;stroke-dasharray:5.55,2.4;stroke-dashoffset:0;stroke-width:1.5;"/>
   </g>
   <g id="line2d_52">
    <path clip-path="url(#p0851a0ca38)" d="M 168.592319 109.369486 
L 168.350447 107.920027 
L 167.651043 106.62764 
L 166.569896 105.632375 
L 165.224167 105.042083 
L 163.759685 104.920733 
L 162.335151 105.281474 
L 161.104934 106.085214 
L 160.202348 107.244857 
L 159.725202 108.634736 
L 159.725202 110.104236 
L 160.202348 111.494115 
L 161.104934 112.653757 
L 162.335151 113.457498 
L 163.759685 113.818239 
L 165.224167 113.696889 
L 166.569896 113.106597 
L 167.651043 112.111331 
L 168.350447 110.818944 
L 168.592319 109.369486 
" style="fill:none;stroke:#ff0000;stroke-linecap:square;stroke-width:1.5;"/>
   </g>
   <g id="line2d_53">
    <path clip-path="url(#p0851a0ca38)" d="M 185.969168 413.510338 
L 185.089634 408.23958 
L 182.546344 403.539991 
L 178.614901 399.920843 
L 173.72134 397.774328 
L 168.395953 397.333054 
L 163.215829 398.644839 
L 158.742314 401.567533 
L 155.460183 405.784414 
L 153.725107 410.838519 
L 153.725107 416.182157 
L 155.460183 421.236262 
L 158.742314 425.453144 
L 163.215829 428.375837 
L 168.395953 429.687622 
L 173.72134 429.246348 
L 178.614901 427.099833 
L 182.546344 423.480686 
L 185.089634 418.781096 
L 185.969168 413.510338 
" style="fill:none;stroke:#000000;stroke-dasharray:5.55,2.4;stroke-dashoffset:0;stroke-width:1.5;"/>
   </g>
   <g id="line2d_54">
    <path clip-path="url(#p0851a0ca38)" d="M 174.200441 413.510338 
L 173.958569 412.06088 
L 173.259164 410.768493 
L 172.178017 409.773227 
L 170.832288 409.182935 
L 169.367807 409.061585 
L 167.943273 409.422326 
L 166.713056 410.226067 
L 165.81047 411.385709 
L 165.333324 412.775588 
L 165.333324 414.245088 
L 165.81047 415.634967 
L 166.713056 416.79461 
L 167.943273 417.59835 
L 169.367807 417.959091 
L 170.832288 417.837741 
L 172.178017 417.247449 
L 173.259164 416.252184 
L 173.958569 414.959797 
L 174.200441 413.510338 
" style="fill:none;stroke:#ff0000;stroke-linecap:square;stroke-width:1.5;"/>
   </g>
   <g id="line2d_55">
    <path clip-path="url(#p0851a0ca38)" d="M 282.542312 215.255853 
L 281.662778 209.985095 
L 279.119487 205.285505 
L 275.188045 201.666358 
L 270.294484 199.519843 
L 264.969097 199.078569 
L 259.788972 200.390354 
L 255.315458 203.313047 
L 252.033327 207.529929 
L 250.298251 212.584034 
L 250.298251 217.927672 
L 252.033327 222.981777 
L 255.315458 227.198659 
L 259.788972 230.121352 
L 264.969097 231.433137 
L 270.294484 230.991863 
L 275.188045 228.845348 
L 279.119487 225.2262 
L 281.662778 220.526611 
L 282.542312 215.255853 
" style="fill:none;stroke:#000000;stroke-dasharray:5.55,2.4;stroke-dashoffset:0;stroke-width:1.5;"/>
   </g>
   <g id="line2d_56">
    <path clip-path="url(#p0851a0ca38)" d="M 270.773585 215.255853 
L 270.531713 213.806395 
L 269.832308 212.514007 
L 268.751161 211.518742 
L 267.405432 210.92845 
L 265.94095 210.8071 
L 264.516416 211.167841 
L 263.2862 211.971581 
L 262.383614 213.131224 
L 261.906468 214.521103 
L 261.906468 215.990603 
L 262.383614 217.380482 
L 263.2862 218.540124 
L 264.516416 219.343865 
L 265.94095 219.704606 
L 267.405432 219.583256 
L 268.751161 218.992964 
L 269.832308 217.997698 
L 270.531713 216.705311 
L 270.773585 215.255853 
" style="fill:none;stroke:#ff0000;stroke-linecap:square;stroke-width:1.5;"/>
   </g>
   <g id="line2d_57">
    <path clip-path="url(#p0851a0ca38)" d="M 157.349636 424.869489 
L 156.470102 419.598731 
L 153.926812 414.899142 
L 149.995369 411.279994 
L 145.101808 409.133479 
L 139.776421 408.692205 
L 134.596297 410.003991 
L 130.122782 412.926684 
L 126.840651 417.143565 
L 125.105575 422.19767 
L 125.105575 427.541308 
L 126.840651 432.595414 
L 130.122782 436.812295 
L 134.596297 439.734988 
L 139.776421 441.046774 
L 145.101808 440.605499 
L 149.995369 438.458984 
L 153.926812 434.839837 
L 156.470102 430.140247 
L 157.349636 424.869489 
" style="fill:none;stroke:#000000;stroke-dasharray:5.55,2.4;stroke-dashoffset:0;stroke-width:1.5;"/>
   </g>
   <g id="line2d_58">
    <path clip-path="url(#p0851a0ca38)" d="M 145.580909 424.869489 
L 145.339037 423.420031 
L 144.639632 422.127644 
L 143.558485 421.132378 
L 142.212756 420.542087 
L 140.748275 420.420736 
L 139.32374 420.781477 
L 138.093524 421.585218 
L 137.190938 422.74486 
L 136.713792 424.134739 
L 136.713792 425.60424 
L 137.190938 426.994118 
L 138.093524 428.153761 
L 139.32374 428.957501 
L 140.748275 429.318242 
L 142.212756 429.196892 
L 143.558485 428.6066 
L 144.639632 427.611335 
L 145.339037 426.318948 
L 145.580909 424.869489 
" style="fill:none;stroke:#ff0000;stroke-linecap:square;stroke-width:1.5;"/>
   </g>
   <g id="line2d_59">
    <path clip-path="url(#p0851a0ca38)" d="M 92.290909 493.789091 
L 92.290909 87.970909 
" style="fill:none;stroke:#000000;stroke-linecap:square;stroke-width:4;"/>
   </g>
   <g id="line2d_60">
    <path clip-path="url(#p0851a0ca38)" d="M 92.290909 87.970909 
L 498.109091 87.970909 
" style="fill:none;stroke:#000000;stroke-linecap:square;stroke-width:4;"/>
   </g>
   <g id="line2d_61">
    <path clip-path="url(#p0851a0ca38)" d="M 498.109091 87.970909 
L 498.109091 493.789091 
" style="fill:none;stroke:#000000;stroke-linecap:square;stroke-width:4;"/>
   </g>
   <g id="line2d_62">
    <path clip-path="url(#p0851a0ca38)" d="M 498.109091 493.789091 
L 92.290909 493.789091 
" style="fill:none;stroke:#000000;stroke-linecap:square;stroke-width:4;"/>
   </g>
   <g id="patch_3">
    <path d="M 72 512.64 
L 72 69.12 
" style="fill:none;stroke:#000000;stroke-linecap:square;stroke-linejoin:miter;stroke-width:0.8;"/>
   </g>
   <g id="patch_4">
    <path d="M 518.4 512.64 
L 518.4 69.12 
" style="fill:none;stroke:#000000;stroke-linecap:square;stroke-linejoin:miter;stroke-width:0.8;"/>
   </g>
   <g id="patch_5">
    <path d="M 72 512.64 
L 518.4 512.64 
" style="fill:none;stroke:#000000;stroke-linecap:square;stroke-linejoin:miter;stroke-width:0.8;"/>
   </g>
   <g id="patch_6">
    <path d="M 72 69.12 
L 518.4 69.12 
" style="fill:none;stroke:#000000;stroke-linecap:square;stroke-linejoin:miter;stroke-width:0.8;"/>
   </g>
   <g id="text_12">
    <!-- 1 -->
    <defs>
     <path d="M 14.203125 0 
L 14.203125 5.171875 
L 26.90625 5.171875 
L 26.90625 65.828125 
L 12.203125 56.296875 
L 12.203125 62.703125 
L 29.984375 74.21875 
L 36.71875 74.21875 
L 36.71875 5.171875 
L 49.421875 5.171875 
L 49.421875 0 
z
" id="DejaVuSerif-31"/>
    </defs>
    <g transform="translate(117.222253 332.333028)scale(0.1 -0.1)">
     <use xlink:href="#DejaVuSerif-31"/>
    </g>
   </g>
   <g id="text_13">
    <!-- 1 -->
    <g transform="translate(395.560924 158.910709)scale(0.1 -0.1)">
     <use xlink:href="#DejaVuSerif-31"/>
    </g>
   </g>
   <g id="text_14">
    <!-- 2 -->
    <defs>
     <path d="M 12.796875 55.515625 
L 7.328125 55.515625 
L 7.328125 68.5 
Q 12.546875 71.296875 17.84375 72.75 
Q 23.140625 74.21875 28.21875 74.21875 
Q 39.59375 74.21875 46.1875 68.703125 
Q 52.78125 63.1875 52.78125 53.71875 
Q 52.78125 43.015625 37.84375 28.125 
Q 36.671875 27 36.078125 26.421875 
L 17.671875 8.015625 
L 48.09375 8.015625 
L 48.09375 17 
L 53.8125 17 
L 53.8125 0 
L 6.78125 0 
L 6.78125 5.328125 
L 28.90625 27.390625 
Q 36.234375 34.71875 39.359375 40.84375 
Q 42.484375 46.96875 42.484375 53.71875 
Q 42.484375 61.078125 38.640625 65.234375 
Q 34.8125 69.390625 28.078125 69.390625 
Q 21.09375 69.390625 17.28125 65.921875 
Q 13.484375 62.453125 12.796875 55.515625 
z
" id="DejaVuSerif-32"/>
    </defs>
    <g transform="translate(351.880099 471.839639)scale(0.1 -0.1)">
     <use xlink:href="#DejaVuSerif-32"/>
    </g>
   </g>
   <g id="text_15">
    <!-- 2 -->
    <g transform="translate(314.876337 248.825822)scale(0.1 -0.1)">
     <use xlink:href="#DejaVuSerif-32"/>
    </g>
   </g>
   <g id="text_16">
    <!-- 3 -->
    <defs>
     <path d="M 9.71875 69.828125 
Q 15.4375 71.96875 20.671875 73.09375 
Q 25.921875 74.21875 30.515625 74.21875 
Q 41.21875 74.21875 47.21875 69.59375 
Q 53.21875 64.984375 53.21875 56.78125 
Q 53.21875 50.203125 49.0625 45.78125 
Q 44.921875 41.359375 37.3125 39.796875 
Q 46.296875 38.53125 51.25 33.28125 
Q 56.203125 28.03125 56.203125 19.671875 
Q 56.203125 9.46875 49.34375 4.015625 
Q 42.484375 -1.421875 29.59375 -1.421875 
Q 23.875 -1.421875 18.421875 -0.1875 
Q 12.984375 1.03125 7.625 3.515625 
L 7.625 17.671875 
L 13.09375 17.671875 
Q 13.578125 10.640625 17.828125 7.03125 
Q 22.078125 3.421875 29.78125 3.421875 
Q 37.25 3.421875 41.578125 7.734375 
Q 45.90625 12.0625 45.90625 19.578125 
Q 45.90625 28.171875 41.453125 32.59375 
Q 37.015625 37.015625 28.421875 37.015625 
L 23.78125 37.015625 
L 23.78125 42 
L 26.21875 42 
Q 34.765625 42 39.03125 45.53125 
Q 43.3125 49.078125 43.3125 56.203125 
Q 43.3125 62.59375 39.796875 65.984375 
Q 36.28125 69.390625 29.6875 69.390625 
Q 23.09375 69.390625 19.453125 66.265625 
Q 15.828125 63.140625 15.1875 56.984375 
L 9.71875 56.984375 
z
" id="DejaVuSerif-33"/>
    </defs>
    <g transform="translate(198.331836 188.306939)scale(0.1 -0.1)">
     <use xlink:href="#DejaVuSerif-33"/>
    </g>
   </g>
   <g id="text_17">
    <!-- 3 -->
    <g transform="translate(233.501212 465.127917)scale(0.1 -0.1)">
     <use xlink:href="#DejaVuSerif-33"/>
    </g>
   </g>
   <g id="text_18">
    <!-- 4 -->
    <defs>
     <path d="M 34.90625 24.703125 
L 34.90625 63.484375 
L 10.015625 24.703125 
z
M 56.390625 0 
L 23.1875 0 
L 23.1875 5.171875 
L 34.90625 5.171875 
L 34.90625 19.484375 
L 3.078125 19.484375 
L 3.078125 24.8125 
L 35.015625 74.21875 
L 44.671875 74.21875 
L 44.671875 24.703125 
L 58.59375 24.703125 
L 58.59375 19.484375 
L 44.671875 19.484375 
L 44.671875 5.171875 
L 56.390625 5.171875 
z
" id="DejaVuSerif-34"/>
    </defs>
    <g transform="translate(467.393878 117.665211)scale(0.1 -0.1)">
     <use xlink:href="#DejaVuSerif-34"/>
    </g>
   </g>
   <g id="text_19">
    <!-- 4 -->
    <g transform="translate(411.449263 463.488023)scale(0.1 -0.1)">
     <use xlink:href="#DejaVuSerif-34"/>
    </g>
   </g>
   <g id="text_20">
    <!-- 5 -->
    <defs>
     <path d="M 50.296875 72.90625 
L 50.296875 64.890625 
L 16.890625 64.890625 
L 16.890625 44 
Q 19.4375 45.75 22.828125 46.625 
Q 26.21875 47.515625 30.421875 47.515625 
Q 42.234375 47.515625 49.0625 40.96875 
Q 55.90625 34.421875 55.90625 23.09375 
Q 55.90625 11.53125 49 5.046875 
Q 42.09375 -1.421875 29.59375 -1.421875 
Q 24.5625 -1.421875 19.28125 -0.1875 
Q 14.015625 1.03125 8.5 3.515625 
L 8.5 17.671875 
L 14.015625 17.671875 
Q 14.453125 10.75 18.421875 7.078125 
Q 22.40625 3.421875 29.59375 3.421875 
Q 37.3125 3.421875 41.453125 8.5 
Q 45.609375 13.578125 45.609375 23.09375 
Q 45.609375 32.5625 41.484375 37.609375 
Q 37.359375 42.671875 29.59375 42.671875 
Q 25.203125 42.671875 21.84375 41.109375 
Q 18.5 39.546875 15.921875 36.28125 
L 11.71875 36.28125 
L 11.71875 72.90625 
z
" id="DejaVuSerif-35"/>
    </defs>
    <g transform="translate(324.562505 306.895663)scale(0.1 -0.1)">
     <use xlink:href="#DejaVuSerif-35"/>
    </g>
   </g>
   <g id="text_21">
    <!-- 5 -->
    <g transform="translate(116.309061 146.09703)scale(0.1 -0.1)">
     <use xlink:href="#DejaVuSerif-35"/>
    </g>
   </g>
   <g id="text_22">
    <!-- 6 -->
    <defs>
     <path d="M 32.71875 3.421875 
Q 39.59375 3.421875 43.296875 8.46875 
Q 47.015625 13.53125 47.015625 23 
Q 47.015625 32.46875 43.296875 37.515625 
Q 39.59375 42.578125 32.71875 42.578125 
Q 25.734375 42.578125 22.0625 37.6875 
Q 18.40625 32.8125 18.40625 23.578125 
Q 18.40625 13.875 22.109375 8.640625 
Q 25.828125 3.421875 32.71875 3.421875 
z
M 16.796875 40.140625 
Q 20.125 43.796875 24.3125 45.59375 
Q 28.515625 47.40625 33.796875 47.40625 
Q 44.671875 47.40625 51 40.859375 
Q 57.328125 34.328125 57.328125 23 
Q 57.328125 11.921875 50.515625 5.25 
Q 43.703125 -1.421875 32.328125 -1.421875 
Q 19.96875 -1.421875 13.328125 7.78125 
Q 6.6875 17 6.6875 34.078125 
Q 6.6875 53.21875 14.546875 63.71875 
Q 22.40625 74.21875 36.71875 74.21875 
Q 40.578125 74.21875 44.828125 73.484375 
Q 49.078125 72.75 53.515625 71.296875 
L 53.515625 59.28125 
L 48 59.28125 
Q 47.40625 64.203125 44.234375 66.796875 
Q 41.0625 69.390625 35.6875 69.390625 
Q 26.21875 69.390625 21.578125 62.203125 
Q 16.9375 55.03125 16.796875 40.140625 
z
" id="DejaVuSerif-36"/>
    </defs>
    <g transform="translate(194.706653 253.426844)scale(0.1 -0.1)">
     <use xlink:href="#DejaVuSerif-36"/>
    </g>
   </g>
   <g id="text_23">
    <!-- 6 -->
    <g transform="translate(471.632273 241.322037)scale(0.1 -0.1)">
     <use xlink:href="#DejaVuSerif-36"/>
    </g>
   </g>
   <g id="text_24">
    <!-- 7 -->
    <defs>
     <path d="M 56.390625 67.921875 
L 27.875 0 
L 20.609375 0 
L 47.796875 64.890625 
L 14.109375 64.890625 
L 14.109375 55.90625 
L 8.40625 55.90625 
L 8.40625 72.90625 
L 56.390625 72.90625 
z
" id="DejaVuSerif-37"/>
    </defs>
    <g transform="translate(256.831982 128.228549)scale(0.1 -0.1)">
     <use xlink:href="#DejaVuSerif-37"/>
    </g>
   </g>
   <g id="text_25">
    <!-- 7 -->
    <g transform="translate(472.459162 372.215799)scale(0.1 -0.1)">
     <use xlink:href="#DejaVuSerif-37"/>
    </g>
   </g>
   <g id="text_26">
    <!-- 8 -->
    <defs>
     <path d="M 46.578125 19.921875 
Q 46.578125 27.734375 42.6875 32.046875 
Q 38.8125 36.375 31.78125 36.375 
Q 24.75 36.375 20.875 32.046875 
Q 17 27.734375 17 19.921875 
Q 17 12.0625 20.875 7.734375 
Q 24.75 3.421875 31.78125 3.421875 
Q 38.8125 3.421875 42.6875 7.734375 
Q 46.578125 12.0625 46.578125 19.921875 
z
M 44.578125 55.328125 
Q 44.578125 61.96875 41.203125 65.671875 
Q 37.84375 69.390625 31.78125 69.390625 
Q 25.78125 69.390625 22.390625 65.671875 
Q 19 61.96875 19 55.328125 
Q 19 48.640625 22.390625 44.921875 
Q 25.78125 41.21875 31.78125 41.21875 
Q 37.84375 41.21875 41.203125 44.921875 
Q 44.578125 48.640625 44.578125 55.328125 
z
M 39.3125 38.8125 
Q 47.609375 37.703125 52.25 32.6875 
Q 56.890625 27.6875 56.890625 19.921875 
Q 56.890625 9.671875 50.390625 4.125 
Q 43.890625 -1.421875 31.78125 -1.421875 
Q 19.734375 -1.421875 13.203125 4.125 
Q 6.6875 9.671875 6.6875 19.921875 
Q 6.6875 27.6875 11.328125 32.6875 
Q 15.96875 37.703125 24.3125 38.8125 
Q 16.9375 40.140625 13 44.40625 
Q 9.078125 48.6875 9.078125 55.328125 
Q 9.078125 64.109375 15.125 69.15625 
Q 21.1875 74.21875 31.78125 74.21875 
Q 42.390625 74.21875 48.4375 69.15625 
Q 54.5 64.109375 54.5 55.328125 
Q 54.5 48.6875 50.5625 44.40625 
Q 46.625 40.140625 39.3125 38.8125 
z
" id="DejaVuSerif-38"/>
    </defs>
    <g transform="translate(245.516797 254.220314)scale(0.1 -0.1)">
     <use xlink:href="#DejaVuSerif-38"/>
    </g>
   </g>
   <g id="text_27">
    <!-- 8 -->
    <g transform="translate(472.441455 450.318683)scale(0.1 -0.1)">
     <use xlink:href="#DejaVuSerif-38"/>
    </g>
   </g>
  </g>
 </g>
 <defs>
  <clipPath id="p0851a0ca38">
   <rect height="443.52" width="446.4" x="72" y="69.12"/>
  </clipPath>
 </defs>
</svg>
