<?xml version="1.0" encoding="utf-8" standalone="no"?>
<!DOCTYPE svg PUBLIC "-//W3C//DTD SVG 1.1//EN"
  "http://www.w3.org/Graphics/SVG/1.1/DTD/svg11.dtd">
<!-- Created with matplotlib (http://matplotlib.org/) -->
<svg height="576pt" version="1.1" viewBox="0 0 576 576" width="576pt" xmlns="http://www.w3.org/2000/svg" xmlns:xlink="http://www.w3.org/1999/xlink">
 <defs>
  <style type="text/css">
*{stroke-linecap:butt;stroke-linejoin:round;}
  </style>
 </defs>
 <g id="figure_1">
  <g id="patch_1">
   <path d="M 0 576 
L 576 576 
L 576 0 
L 0 0 
z
" style="fill:#ffffff;"/>
  </g>
  <g id="axes_1">
   <g id="patch_2">
    <path d="M 72 512.64 
L 518.4 512.64 
L 518.4 69.12 
L 72 69.12 
z
" style="fill:#ffffff;"/>
   </g>
   <g id="matplotlib.axis_1">
    <g id="xtick_1">
     <g id="line2d_1">
      <defs>
       <path d="M 0 0 
L 0 3.5 
" id="m076bc00a30" style="stroke:#000000;stroke-width:0.8;"/>
      </defs>
      <g>
       <use style="stroke:#000000;stroke-width:0.8;" x="112.581818" xlink:href="#m076bc00a30" y="512.64"/>
      </g>
     </g>
     <g id="text_1">
      <!-- 0 -->
      <defs>
       <path d="M 31.78125 66.40625 
Q 24.171875 66.40625 20.328125 58.90625 
Q 16.5 51.421875 16.5 36.375 
Q 16.5 21.390625 20.328125 13.890625 
Q 24.171875 6.390625 31.78125 6.390625 
Q 39.453125 6.390625 43.28125 13.890625 
Q 47.125 21.390625 47.125 36.375 
Q 47.125 51.421875 43.28125 58.90625 
Q 39.453125 66.40625 31.78125 66.40625 
z
M 31.78125 74.21875 
Q 44.046875 74.21875 50.515625 64.515625 
Q 56.984375 54.828125 56.984375 36.375 
Q 56.984375 17.96875 50.515625 8.265625 
Q 44.046875 -1.421875 31.78125 -1.421875 
Q 19.53125 -1.421875 13.0625 8.265625 
Q 6.59375 17.96875 6.59375 36.375 
Q 6.59375 54.828125 13.0625 64.515625 
Q 19.53125 74.21875 31.78125 74.21875 
z
" id="DejaVuSans-30"/>
      </defs>
      <g transform="translate(109.400568 527.238438)scale(0.1 -0.1)">
       <use xlink:href="#DejaVuSans-30"/>
      </g>
     </g>
    </g>
    <g id="xtick_2">
     <g id="line2d_2">
      <g>
       <use style="stroke:#000000;stroke-width:0.8;" x="193.745455" xlink:href="#m076bc00a30" y="512.64"/>
      </g>
     </g>
     <g id="text_2">
      <!-- 2 -->
      <defs>
       <path d="M 19.1875 8.296875 
L 53.609375 8.296875 
L 53.609375 0 
L 7.328125 0 
L 7.328125 8.296875 
Q 12.9375 14.109375 22.625 23.890625 
Q 32.328125 33.6875 34.8125 36.53125 
Q 39.546875 41.84375 41.421875 45.53125 
Q 43.3125 49.21875 43.3125 52.78125 
Q 43.3125 58.59375 39.234375 62.25 
Q 35.15625 65.921875 28.609375 65.921875 
Q 23.96875 65.921875 18.8125 64.3125 
Q 13.671875 62.703125 7.8125 59.421875 
L 7.8125 69.390625 
Q 13.765625 71.78125 18.9375 73 
Q 24.125 74.21875 28.421875 74.21875 
Q 39.75 74.21875 46.484375 68.546875 
Q 53.21875 62.890625 53.21875 53.421875 
Q 53.21875 48.921875 51.53125 44.890625 
Q 49.859375 40.875 45.40625 35.40625 
Q 44.1875 33.984375 37.640625 27.21875 
Q 31.109375 20.453125 19.1875 8.296875 
z
" id="DejaVuSans-32"/>
      </defs>
      <g transform="translate(190.564205 527.238438)scale(0.1 -0.1)">
       <use xlink:href="#DejaVuSans-32"/>
      </g>
     </g>
    </g>
    <g id="xtick_3">
     <g id="line2d_3">
      <g>
       <use style="stroke:#000000;stroke-width:0.8;" x="274.909091" xlink:href="#m076bc00a30" y="512.64"/>
      </g>
     </g>
     <g id="text_3">
      <!-- 4 -->
      <defs>
       <path d="M 37.796875 64.3125 
L 12.890625 25.390625 
L 37.796875 25.390625 
z
M 35.203125 72.90625 
L 47.609375 72.90625 
L 47.609375 25.390625 
L 58.015625 25.390625 
L 58.015625 17.1875 
L 47.609375 17.1875 
L 47.609375 0 
L 37.796875 0 
L 37.796875 17.1875 
L 4.890625 17.1875 
L 4.890625 26.703125 
z
" id="DejaVuSans-34"/>
      </defs>
      <g transform="translate(271.727841 527.238438)scale(0.1 -0.1)">
       <use xlink:href="#DejaVuSans-34"/>
      </g>
     </g>
    </g>
    <g id="xtick_4">
     <g id="line2d_4">
      <g>
       <use style="stroke:#000000;stroke-width:0.8;" x="356.072727" xlink:href="#m076bc00a30" y="512.64"/>
      </g>
     </g>
     <g id="text_4">
      <!-- 6 -->
      <defs>
       <path d="M 33.015625 40.375 
Q 26.375 40.375 22.484375 35.828125 
Q 18.609375 31.296875 18.609375 23.390625 
Q 18.609375 15.53125 22.484375 10.953125 
Q 26.375 6.390625 33.015625 6.390625 
Q 39.65625 6.390625 43.53125 10.953125 
Q 47.40625 15.53125 47.40625 23.390625 
Q 47.40625 31.296875 43.53125 35.828125 
Q 39.65625 40.375 33.015625 40.375 
z
M 52.59375 71.296875 
L 52.59375 62.3125 
Q 48.875 64.0625 45.09375 64.984375 
Q 41.3125 65.921875 37.59375 65.921875 
Q 27.828125 65.921875 22.671875 59.328125 
Q 17.53125 52.734375 16.796875 39.40625 
Q 19.671875 43.65625 24.015625 45.921875 
Q 28.375 48.1875 33.59375 48.1875 
Q 44.578125 48.1875 50.953125 41.515625 
Q 57.328125 34.859375 57.328125 23.390625 
Q 57.328125 12.15625 50.6875 5.359375 
Q 44.046875 -1.421875 33.015625 -1.421875 
Q 20.359375 -1.421875 13.671875 8.265625 
Q 6.984375 17.96875 6.984375 36.375 
Q 6.984375 53.65625 15.1875 63.9375 
Q 23.390625 74.21875 37.203125 74.21875 
Q 40.921875 74.21875 44.703125 73.484375 
Q 48.484375 72.75 52.59375 71.296875 
z
" id="DejaVuSans-36"/>
      </defs>
      <g transform="translate(352.891477 527.238438)scale(0.1 -0.1)">
       <use xlink:href="#DejaVuSans-36"/>
      </g>
     </g>
    </g>
    <g id="xtick_5">
     <g id="line2d_5">
      <g>
       <use style="stroke:#000000;stroke-width:0.8;" x="437.236364" xlink:href="#m076bc00a30" y="512.64"/>
      </g>
     </g>
     <g id="text_5">
      <!-- 8 -->
      <defs>
       <path d="M 31.78125 34.625 
Q 24.75 34.625 20.71875 30.859375 
Q 16.703125 27.09375 16.703125 20.515625 
Q 16.703125 13.921875 20.71875 10.15625 
Q 24.75 6.390625 31.78125 6.390625 
Q 38.8125 6.390625 42.859375 10.171875 
Q 46.921875 13.96875 46.921875 20.515625 
Q 46.921875 27.09375 42.890625 30.859375 
Q 38.875 34.625 31.78125 34.625 
z
M 21.921875 38.8125 
Q 15.578125 40.375 12.03125 44.71875 
Q 8.5 49.078125 8.5 55.328125 
Q 8.5 64.0625 14.71875 69.140625 
Q 20.953125 74.21875 31.78125 74.21875 
Q 42.671875 74.21875 48.875 69.140625 
Q 55.078125 64.0625 55.078125 55.328125 
Q 55.078125 49.078125 51.53125 44.71875 
Q 48 40.375 41.703125 38.8125 
Q 48.828125 37.15625 52.796875 32.3125 
Q 56.78125 27.484375 56.78125 20.515625 
Q 56.78125 9.90625 50.3125 4.234375 
Q 43.84375 -1.421875 31.78125 -1.421875 
Q 19.734375 -1.421875 13.25 4.234375 
Q 6.78125 9.90625 6.78125 20.515625 
Q 6.78125 27.484375 10.78125 32.3125 
Q 14.796875 37.15625 21.921875 38.8125 
z
M 18.3125 54.390625 
Q 18.3125 48.734375 21.84375 45.5625 
Q 25.390625 42.390625 31.78125 42.390625 
Q 38.140625 42.390625 41.71875 45.5625 
Q 45.3125 48.734375 45.3125 54.390625 
Q 45.3125 60.0625 41.71875 63.234375 
Q 38.140625 66.40625 31.78125 66.40625 
Q 25.390625 66.40625 21.84375 63.234375 
Q 18.3125 60.0625 18.3125 54.390625 
z
" id="DejaVuSans-38"/>
      </defs>
      <g transform="translate(434.055114 527.238438)scale(0.1 -0.1)">
       <use xlink:href="#DejaVuSans-38"/>
      </g>
     </g>
    </g>
    <g id="xtick_6">
     <g id="line2d_6">
      <g>
       <use style="stroke:#000000;stroke-width:0.8;" x="518.4" xlink:href="#m076bc00a30" y="512.64"/>
      </g>
     </g>
     <g id="text_6">
      <!-- 10 -->
      <defs>
       <path d="M 12.40625 8.296875 
L 28.515625 8.296875 
L 28.515625 63.921875 
L 10.984375 60.40625 
L 10.984375 69.390625 
L 28.421875 72.90625 
L 38.28125 72.90625 
L 38.28125 8.296875 
L 54.390625 8.296875 
L 54.390625 0 
L 12.40625 0 
z
" id="DejaVuSans-31"/>
      </defs>
      <g transform="translate(512.0375 527.238438)scale(0.1 -0.1)">
       <use xlink:href="#DejaVuSans-31"/>
       <use x="63.623047" xlink:href="#DejaVuSans-30"/>
      </g>
     </g>
    </g>
   </g>
   <g id="matplotlib.axis_2">
    <g id="ytick_1">
     <g id="line2d_7">
      <defs>
       <path d="M 0 0 
L -3.5 0 
" id="m7644bf1512" style="stroke:#000000;stroke-width:0.8;"/>
      </defs>
      <g>
       <use style="stroke:#000000;stroke-width:0.8;" x="72" xlink:href="#m7644bf1512" y="473.498182"/>
      </g>
     </g>
     <g id="text_7">
      <!-- 0 -->
      <g transform="translate(58.6375 477.297401)scale(0.1 -0.1)">
       <use xlink:href="#DejaVuSans-30"/>
      </g>
     </g>
    </g>
    <g id="ytick_2">
     <g id="line2d_8">
      <g>
       <use style="stroke:#000000;stroke-width:0.8;" x="72" xlink:href="#m7644bf1512" y="392.334545"/>
      </g>
     </g>
     <g id="text_8">
      <!-- 2 -->
      <g transform="translate(58.6375 396.133764)scale(0.1 -0.1)">
       <use xlink:href="#DejaVuSans-32"/>
      </g>
     </g>
    </g>
    <g id="ytick_3">
     <g id="line2d_9">
      <g>
       <use style="stroke:#000000;stroke-width:0.8;" x="72" xlink:href="#m7644bf1512" y="311.170909"/>
      </g>
     </g>
     <g id="text_9">
      <!-- 4 -->
      <g transform="translate(58.6375 314.970128)scale(0.1 -0.1)">
       <use xlink:href="#DejaVuSans-34"/>
      </g>
     </g>
    </g>
    <g id="ytick_4">
     <g id="line2d_10">
      <g>
       <use style="stroke:#000000;stroke-width:0.8;" x="72" xlink:href="#m7644bf1512" y="230.007273"/>
      </g>
     </g>
     <g id="text_10">
      <!-- 6 -->
      <g transform="translate(58.6375 233.806491)scale(0.1 -0.1)">
       <use xlink:href="#DejaVuSans-36"/>
      </g>
     </g>
    </g>
    <g id="ytick_5">
     <g id="line2d_11">
      <g>
       <use style="stroke:#000000;stroke-width:0.8;" x="72" xlink:href="#m7644bf1512" y="148.843636"/>
      </g>
     </g>
     <g id="text_11">
      <!-- 8 -->
      <g transform="translate(58.6375 152.642855)scale(0.1 -0.1)">
       <use xlink:href="#DejaVuSans-38"/>
      </g>
     </g>
    </g>
   </g>
   <g id="line2d_12">
    <path clip-path="url(#pe0f5259675)" d="M 304.089919 394.409203 
" style="fill:none;stroke:#1f77b4;stroke-linecap:square;stroke-width:1.5;"/>
    <defs>
     <path d="M -5 5 
L 5 5 
L 5 -5 
L -5 -5 
z
" id="m7e6aef000f" style="stroke:#8000ff;stroke-linejoin:miter;"/>
    </defs>
    <g clip-path="url(#pe0f5259675)">
     <use style="fill:#8000ff;stroke:#8000ff;stroke-linejoin:miter;" x="304.089919" xlink:href="#m7e6aef000f" y="394.409203"/>
    </g>
   </g>
   <g id="line2d_13">
    <path clip-path="url(#pe0f5259675)" d="M 122.971369 251.946362 
" style="fill:none;stroke:#ff7f0e;stroke-linecap:square;stroke-width:1.5;"/>
    <defs>
     <path d="M 0 -5 
L -4.755283 -1.545085 
L -2.938926 4.045085 
L 2.938926 4.045085 
L 4.755283 -1.545085 
z
" id="ma0d1ad2df5" style="stroke:#8000ff;stroke-linejoin:miter;"/>
    </defs>
    <g clip-path="url(#pe0f5259675)">
     <use style="fill:#8000ff;stroke:#8000ff;stroke-linejoin:miter;" x="122.971369" xlink:href="#ma0d1ad2df5" y="251.946362"/>
    </g>
   </g>
   <g id="line2d_14">
    <path clip-path="url(#pe0f5259675)" d="M 221.899891 312.604271 
" style="fill:none;stroke:#2ca02c;stroke-linecap:square;stroke-width:1.5;"/>
    <defs>
     <path d="M -5 5 
L 5 5 
L 5 -5 
L -5 -5 
z
" id="m7c72f62b12" style="stroke:#376ff9;stroke-linejoin:miter;"/>
    </defs>
    <g clip-path="url(#pe0f5259675)">
     <use style="fill:#376ff9;stroke:#376ff9;stroke-linejoin:miter;" x="221.899891" xlink:href="#m7c72f62b12" y="312.604271"/>
    </g>
   </g>
   <g id="line2d_15">
    <path clip-path="url(#pe0f5259675)" d="M 423.866872 190.97815 
" style="fill:none;stroke:#d62728;stroke-linecap:square;stroke-width:1.5;"/>
    <defs>
     <path d="M 0 -5 
L -4.755283 -1.545085 
L -2.938926 4.045085 
L 2.938926 4.045085 
L 4.755283 -1.545085 
z
" id="m70124fd6a1" style="stroke:#376ff9;stroke-linejoin:miter;"/>
    </defs>
    <g clip-path="url(#pe0f5259675)">
     <use style="fill:#376ff9;stroke:#376ff9;stroke-linejoin:miter;" x="423.866872" xlink:href="#m70124fd6a1" y="190.97815"/>
    </g>
   </g>
   <g id="line2d_16">
    <path clip-path="url(#pe0f5259675)" d="M 158.41461 374.032765 
" style="fill:none;stroke:#9467bd;stroke-linecap:square;stroke-width:1.5;"/>
    <defs>
     <path d="M -5 5 
L 5 5 
L 5 -5 
L -5 -5 
z
" id="m6421fecf47" style="stroke:#12c7e6;stroke-linejoin:miter;"/>
    </defs>
    <g clip-path="url(#pe0f5259675)">
     <use style="fill:#12c7e6;stroke:#12c7e6;stroke-linejoin:miter;" x="158.41461" xlink:href="#m6421fecf47" y="374.032765"/>
    </g>
   </g>
   <g id="line2d_17">
    <path clip-path="url(#pe0f5259675)" d="M 459.76933 471.43621 
" style="fill:none;stroke:#8c564b;stroke-linecap:square;stroke-width:1.5;"/>
    <defs>
     <path d="M 0 -5 
L -4.755283 -1.545085 
L -2.938926 4.045085 
L 2.938926 4.045085 
L 4.755283 -1.545085 
z
" id="mf4d1dfbc60" style="stroke:#12c7e6;stroke-linejoin:miter;"/>
    </defs>
    <g clip-path="url(#pe0f5259675)">
     <use style="fill:#12c7e6;stroke:#12c7e6;stroke-linejoin:miter;" x="459.76933" xlink:href="#mf4d1dfbc60" y="471.43621"/>
    </g>
   </g>
   <g id="line2d_18">
    <path clip-path="url(#pe0f5259675)" d="M 249.463658 145.985381 
" style="fill:none;stroke:#e377c2;stroke-linecap:square;stroke-width:1.5;"/>
    <defs>
     <path d="M -5 5 
L 5 5 
L 5 -5 
L -5 -5 
z
" id="mee3e2f45ff" style="stroke:#5bf9c7;stroke-linejoin:miter;"/>
    </defs>
    <g clip-path="url(#pe0f5259675)">
     <use style="fill:#5bf9c7;stroke:#5bf9c7;stroke-linejoin:miter;" x="249.463658" xlink:href="#mee3e2f45ff" y="145.985381"/>
    </g>
   </g>
   <g id="line2d_19">
    <path clip-path="url(#pe0f5259675)" d="M 168.207248 437.150131 
" style="fill:none;stroke:#7f7f7f;stroke-linecap:square;stroke-width:1.5;"/>
    <defs>
     <path d="M 0 -5 
L -4.755283 -1.545085 
L -2.938926 4.045085 
L 2.938926 4.045085 
L 4.755283 -1.545085 
z
" id="m1badfa4547" style="stroke:#5bf9c7;stroke-linejoin:miter;"/>
    </defs>
    <g clip-path="url(#pe0f5259675)">
     <use style="fill:#5bf9c7;stroke:#5bf9c7;stroke-linejoin:miter;" x="168.207248" xlink:href="#m1badfa4547" y="437.150131"/>
    </g>
   </g>
   <g id="line2d_20">
    <path clip-path="url(#pe0f5259675)" d="M 386.413303 128.11422 
" style="fill:none;stroke:#bcbd22;stroke-linecap:square;stroke-width:1.5;"/>
    <defs>
     <path d="M -5 5 
L 5 5 
L 5 -5 
L -5 -5 
z
" id="mae6beb0c0d" style="stroke:#a4f99f;stroke-linejoin:miter;"/>
    </defs>
    <g clip-path="url(#pe0f5259675)">
     <use style="fill:#a4f99f;stroke:#a4f99f;stroke-linejoin:miter;" x="386.413303" xlink:href="#mae6beb0c0d" y="128.11422"/>
    </g>
   </g>
   <g id="line2d_21">
    <path clip-path="url(#pe0f5259675)" d="M 295.385675 451.31825 
" style="fill:none;stroke:#17becf;stroke-linecap:square;stroke-width:1.5;"/>
    <defs>
     <path d="M 0 -5 
L -4.755283 -1.545085 
L -2.938926 4.045085 
L 2.938926 4.045085 
L 4.755283 -1.545085 
z
" id="m3a2c0dcddb" style="stroke:#a4f99f;stroke-linejoin:miter;"/>
    </defs>
    <g clip-path="url(#pe0f5259675)">
     <use style="fill:#a4f99f;stroke:#a4f99f;stroke-linejoin:miter;" x="295.385675" xlink:href="#m3a2c0dcddb" y="451.31825"/>
    </g>
   </g>
   <g id="line2d_22">
    <path clip-path="url(#pe0f5259675)" d="M 210.607765 227.159165 
" style="fill:none;stroke:#1f77b4;stroke-linecap:square;stroke-width:1.5;"/>
    <defs>
     <path d="M -5 5 
L 5 5 
L 5 -5 
L -5 -5 
z
" id="m50392fd33b" style="stroke:#edc76f;stroke-linejoin:miter;"/>
    </defs>
    <g clip-path="url(#pe0f5259675)">
     <use style="fill:#edc76f;stroke:#edc76f;stroke-linejoin:miter;" x="210.607765" xlink:href="#m50392fd33b" y="227.159165"/>
    </g>
   </g>
   <g id="line2d_23">
    <path clip-path="url(#pe0f5259675)" d="M 367.325886 419.287326 
" style="fill:none;stroke:#ff7f0e;stroke-linecap:square;stroke-width:1.5;"/>
    <defs>
     <path d="M 0 -5 
L -4.755283 -1.545085 
L -2.938926 4.045085 
L 2.938926 4.045085 
L 4.755283 -1.545085 
z
" id="mb7b6a057cb" style="stroke:#edc76f;stroke-linejoin:miter;"/>
    </defs>
    <g clip-path="url(#pe0f5259675)">
     <use style="fill:#edc76f;stroke:#edc76f;stroke-linejoin:miter;" x="367.325886" xlink:href="#mb7b6a057cb" y="419.287326"/>
    </g>
   </g>
   <g id="line2d_24">
    <path clip-path="url(#pe0f5259675)" d="M 360.336584 464.392127 
" style="fill:none;stroke:#2ca02c;stroke-linecap:square;stroke-width:1.5;"/>
    <defs>
     <path d="M -5 5 
L 5 5 
L 5 -5 
L -5 -5 
z
" id="m88966ee2c7" style="stroke:#ff6f39;stroke-linejoin:miter;"/>
    </defs>
    <g clip-path="url(#pe0f5259675)">
     <use style="fill:#ff6f39;stroke:#ff6f39;stroke-linejoin:miter;" x="360.336584" xlink:href="#m88966ee2c7" y="464.392127"/>
    </g>
   </g>
   <g id="line2d_25">
    <path clip-path="url(#pe0f5259675)" d="M 162.359963 185.281194 
" style="fill:none;stroke:#d62728;stroke-linecap:square;stroke-width:1.5;"/>
    <defs>
     <path d="M 0 -5 
L -4.755283 -1.545085 
L -2.938926 4.045085 
L 2.938926 4.045085 
L 4.755283 -1.545085 
z
" id="ma1c4a56273" style="stroke:#ff6f39;stroke-linejoin:miter;"/>
    </defs>
    <g clip-path="url(#pe0f5259675)">
     <use style="fill:#ff6f39;stroke:#ff6f39;stroke-linejoin:miter;" x="162.359963" xlink:href="#ma1c4a56273" y="185.281194"/>
    </g>
   </g>
   <g id="line2d_26">
    <path clip-path="url(#pe0f5259675)" d="M 244.974479 436.584345 
" style="fill:none;stroke:#9467bd;stroke-linecap:square;stroke-width:1.5;"/>
    <defs>
     <path d="M -5 5 
L 5 5 
L 5 -5 
L -5 -5 
z
" id="m36eb049444" style="stroke:#ff0000;stroke-linejoin:miter;"/>
    </defs>
    <g clip-path="url(#pe0f5259675)">
     <use style="fill:#ff0000;stroke:#ff0000;stroke-linejoin:miter;" x="244.974479" xlink:href="#m36eb049444" y="436.584345"/>
    </g>
   </g>
   <g id="line2d_27">
    <path clip-path="url(#pe0f5259675)" d="M 291.316257 135.647302 
" style="fill:none;stroke:#8c564b;stroke-linecap:square;stroke-width:1.5;"/>
    <defs>
     <path d="M 0 -5 
L -4.755283 -1.545085 
L -2.938926 4.045085 
L 2.938926 4.045085 
L 4.755283 -1.545085 
z
" id="m267ed1447b" style="stroke:#ff0000;stroke-linejoin:miter;"/>
    </defs>
    <g clip-path="url(#pe0f5259675)">
     <use style="fill:#ff0000;stroke:#ff0000;stroke-linejoin:miter;" x="291.316257" xlink:href="#m267ed1447b" y="135.647302"/>
    </g>
   </g>
   <g id="line2d_28">
    <defs>
     <path d="M 0 2.5 
C 0.663008 2.5 1.29895 2.236584 1.767767 1.767767 
C 2.236584 1.29895 2.5 0.663008 2.5 0 
C 2.5 -0.663008 2.236584 -1.29895 1.767767 -1.767767 
C 1.29895 -2.236584 0.663008 -2.5 0 -2.5 
C -0.663008 -2.5 -1.29895 -2.236584 -1.767767 -1.767767 
C -2.236584 -1.29895 -2.5 -0.663008 -2.5 0 
C -2.5 0.663008 -2.236584 1.29895 -1.767767 1.767767 
C -1.29895 2.236584 -0.663008 2.5 0 2.5 
z
" id="me37f3eaf95" style="stroke:#000000;"/>
    </defs>
    <g clip-path="url(#pe0f5259675)">
     <use style="stroke:#000000;" x="477.589265" xlink:href="#me37f3eaf95" y="154.866791"/>
     <use style="stroke:#000000;" x="412.290107" xlink:href="#me37f3eaf95" y="446.920695"/>
     <use style="stroke:#000000;" x="453.520074" xlink:href="#me37f3eaf95" y="343.389379"/>
     <use style="stroke:#000000;" x="318.708823" xlink:href="#me37f3eaf95" y="170.939728"/>
     <use style="stroke:#000000;" x="206.128354" xlink:href="#me37f3eaf95" y="356.033944"/>
     <use style="stroke:#000000;" x="193.613052" xlink:href="#me37f3eaf95" y="137.98213"/>
     <use style="stroke:#000000;" x="465.954917" xlink:href="#me37f3eaf95" y="325.186582"/>
     <use style="stroke:#000000;" x="159.94116" xlink:href="#me37f3eaf95" y="132.545261"/>
     <use style="stroke:#000000;" x="351.497124" xlink:href="#me37f3eaf95" y="320.618871"/>
     <use style="stroke:#000000;" x="266.519704" xlink:href="#me37f3eaf95" y="205.712107"/>
     <use style="stroke:#000000;" x="336.872799" xlink:href="#me37f3eaf95" y="229.199182"/>
     <use style="stroke:#000000;" x="431.832218" xlink:href="#me37f3eaf95" y="392.182892"/>
     <use style="stroke:#000000;" x="385.076298" xlink:href="#me37f3eaf95" y="173.568503"/>
     <use style="stroke:#000000;" x="392.730195" xlink:href="#me37f3eaf95" y="317.880993"/>
     <use style="stroke:#000000;" x="434.729986" xlink:href="#me37f3eaf95" y="144.835389"/>
    </g>
   </g>
   <g id="line2d_29">
    <path clip-path="url(#pe0f5259675)" d="M 493.821992 154.866791 
L 492.942458 149.596033 
L 490.399167 144.896444 
L 486.467725 141.277296 
L 481.574164 139.130781 
L 476.248777 138.689507 
L 471.068652 140.001293 
L 466.595138 142.923986 
L 463.313007 147.140867 
L 461.577931 152.194972 
L 461.577931 157.53861 
L 463.313007 162.592715 
L 466.595138 166.809597 
L 471.068652 169.73229 
L 476.248777 171.044076 
L 481.574164 170.602801 
L 486.467725 168.456286 
L 490.399167 164.837139 
L 492.942458 160.137549 
L 493.821992 154.866791 
" style="fill:none;stroke:#000000;stroke-dasharray:5.55,2.4;stroke-dashoffset:0;stroke-width:1.5;"/>
   </g>
   <g id="line2d_30">
    <path clip-path="url(#pe0f5259675)" d="M 482.053265 154.866791 
L 481.811393 153.417333 
L 481.111988 152.124946 
L 480.030841 151.12968 
L 478.685112 150.539388 
L 477.22063 150.418038 
L 475.796096 150.778779 
L 474.56588 151.58252 
L 473.663294 152.742162 
L 473.186148 154.132041 
L 473.186148 155.601541 
L 473.663294 156.99142 
L 474.56588 158.151063 
L 475.796096 158.954803 
L 477.22063 159.315544 
L 478.685112 159.194194 
L 480.030841 158.603902 
L 481.111988 157.608637 
L 481.811393 156.31625 
L 482.053265 154.866791 
" style="fill:none;stroke:#ff0000;stroke-linecap:square;stroke-width:1.5;"/>
   </g>
   <g id="line2d_31">
    <path clip-path="url(#pe0f5259675)" d="M 428.522834 446.920695 
L 427.6433 441.649937 
L 425.10001 436.950347 
L 421.168567 433.3312 
L 416.275006 431.184685 
L 410.949619 430.74341 
L 405.769495 432.055196 
L 401.29598 434.977889 
L 398.01385 439.194771 
L 396.278773 444.248876 
L 396.278773 449.592514 
L 398.01385 454.646619 
L 401.29598 458.8635 
L 405.769495 461.786193 
L 410.949619 463.097979 
L 416.275006 462.656705 
L 421.168567 460.51019 
L 425.10001 456.891042 
L 427.6433 452.191453 
L 428.522834 446.920695 
" style="fill:none;stroke:#000000;stroke-dasharray:5.55,2.4;stroke-dashoffset:0;stroke-width:1.5;"/>
   </g>
   <g id="line2d_32">
    <path clip-path="url(#pe0f5259675)" d="M 416.754107 446.920695 
L 416.512235 445.471236 
L 415.81283 444.178849 
L 414.731684 443.183584 
L 413.385954 442.593292 
L 411.921473 442.471942 
L 410.496939 442.832683 
L 409.266722 443.636423 
L 408.364136 444.796066 
L 407.88699 446.185945 
L 407.88699 447.655445 
L 408.364136 449.045324 
L 409.266722 450.204966 
L 410.496939 451.008707 
L 411.921473 451.369448 
L 413.385954 451.248098 
L 414.731684 450.657806 
L 415.81283 449.66254 
L 416.512235 448.370153 
L 416.754107 446.920695 
" style="fill:none;stroke:#ff0000;stroke-linecap:square;stroke-width:1.5;"/>
   </g>
   <g id="line2d_33">
    <path clip-path="url(#pe0f5259675)" d="M 469.752801 343.389379 
L 468.873267 338.118621 
L 466.329976 333.419032 
L 462.398534 329.799884 
L 457.504973 327.653369 
L 452.179586 327.212095 
L 446.999461 328.523881 
L 442.525947 331.446574 
L 439.243816 335.663455 
L 437.50874 340.71756 
L 437.50874 346.061198 
L 439.243816 351.115304 
L 442.525947 355.332185 
L 446.999461 358.254878 
L 452.179586 359.566664 
L 457.504973 359.125389 
L 462.398534 356.978874 
L 466.329976 353.359727 
L 468.873267 348.660137 
L 469.752801 343.389379 
" style="fill:none;stroke:#000000;stroke-dasharray:5.55,2.4;stroke-dashoffset:0;stroke-width:1.5;"/>
   </g>
   <g id="line2d_34">
    <path clip-path="url(#pe0f5259675)" d="M 457.984074 343.389379 
L 457.742202 341.939921 
L 457.042797 340.647534 
L 455.96165 339.652268 
L 454.615921 339.061976 
L 453.151439 338.940626 
L 451.726905 339.301367 
L 450.496689 340.105108 
L 449.594103 341.26475 
L 449.116957 342.654629 
L 449.116957 344.12413 
L 449.594103 345.514008 
L 450.496689 346.673651 
L 451.726905 347.477391 
L 453.151439 347.838132 
L 454.615921 347.716782 
L 455.96165 347.12649 
L 457.042797 346.131225 
L 457.742202 344.838838 
L 457.984074 343.389379 
" style="fill:none;stroke:#ff0000;stroke-linecap:square;stroke-width:1.5;"/>
   </g>
   <g id="line2d_35">
    <path clip-path="url(#pe0f5259675)" d="M 334.941551 170.939728 
L 334.062017 165.66897 
L 331.518726 160.969381 
L 327.587284 157.350233 
L 322.693722 155.203718 
L 317.368335 154.762444 
L 312.188211 156.074229 
L 307.714696 158.996922 
L 304.432566 163.213804 
L 302.697489 168.267909 
L 302.697489 173.611547 
L 304.432566 178.665652 
L 307.714696 182.882534 
L 312.188211 185.805227 
L 317.368335 187.117012 
L 322.693722 186.675738 
L 327.587284 184.529223 
L 331.518726 180.910076 
L 334.062017 176.210486 
L 334.941551 170.939728 
" style="fill:none;stroke:#000000;stroke-dasharray:5.55,2.4;stroke-dashoffset:0;stroke-width:1.5;"/>
   </g>
   <g id="line2d_36">
    <path clip-path="url(#pe0f5259675)" d="M 323.172823 170.939728 
L 322.930951 169.49027 
L 322.231547 168.197883 
L 321.1504 167.202617 
L 319.804671 166.612325 
L 318.340189 166.490975 
L 316.915655 166.851716 
L 315.685438 167.655457 
L 314.782852 168.815099 
L 314.305706 170.204978 
L 314.305706 171.674478 
L 314.782852 173.064357 
L 315.685438 174.224 
L 316.915655 175.02774 
L 318.340189 175.388481 
L 319.804671 175.267131 
L 321.1504 174.676839 
L 322.231547 173.681574 
L 322.930951 172.389187 
L 323.172823 170.939728 
" style="fill:none;stroke:#ff0000;stroke-linecap:square;stroke-width:1.5;"/>
   </g>
   <g id="line2d_37">
    <path clip-path="url(#pe0f5259675)" d="M 222.361081 356.033944 
L 221.481548 350.763186 
L 218.938257 346.063596 
L 215.006814 342.444448 
L 210.113253 340.297933 
L 204.787866 339.856659 
L 199.607742 341.168445 
L 195.134227 344.091138 
L 191.852097 348.308019 
L 190.11702 353.362124 
L 190.11702 358.705763 
L 191.852097 363.759868 
L 195.134227 367.976749 
L 199.607742 370.899442 
L 204.787866 372.211228 
L 210.113253 371.769954 
L 215.006814 369.623439 
L 218.938257 366.004291 
L 221.481548 361.304701 
L 222.361081 356.033944 
" style="fill:none;stroke:#000000;stroke-dasharray:5.55,2.4;stroke-dashoffset:0;stroke-width:1.5;"/>
   </g>
   <g id="line2d_38">
    <path clip-path="url(#pe0f5259675)" d="M 210.592354 356.033944 
L 210.350482 354.584485 
L 209.651077 353.292098 
L 208.569931 352.296832 
L 207.224201 351.706541 
L 205.75972 351.58519 
L 204.335186 351.945931 
L 203.104969 352.749672 
L 202.202383 353.909314 
L 201.725237 355.299193 
L 201.725237 356.768694 
L 202.202383 358.158573 
L 203.104969 359.318215 
L 204.335186 360.121956 
L 205.75972 360.482697 
L 207.224201 360.361346 
L 208.569931 359.771055 
L 209.651077 358.775789 
L 210.350482 357.483402 
L 210.592354 356.033944 
" style="fill:none;stroke:#ff0000;stroke-linecap:square;stroke-width:1.5;"/>
   </g>
   <g id="line2d_39">
    <path clip-path="url(#pe0f5259675)" d="M 209.84578 137.98213 
L 208.966246 132.711372 
L 206.422955 128.011782 
L 202.491513 124.392635 
L 197.597951 122.24612 
L 192.272564 121.804845 
L 187.09244 123.116631 
L 182.618925 126.039324 
L 179.336795 130.256205 
L 177.601718 135.310311 
L 177.601718 140.653949 
L 179.336795 145.708054 
L 182.618925 149.924935 
L 187.09244 152.847628 
L 192.272564 154.159414 
L 197.597951 153.71814 
L 202.491513 151.571625 
L 206.422955 147.952477 
L 208.966246 143.252888 
L 209.84578 137.98213 
" style="fill:none;stroke:#000000;stroke-dasharray:5.55,2.4;stroke-dashoffset:0;stroke-width:1.5;"/>
   </g>
   <g id="line2d_40">
    <path clip-path="url(#pe0f5259675)" d="M 198.077052 137.98213 
L 197.835181 136.532671 
L 197.135776 135.240284 
L 196.054629 134.245018 
L 194.7089 133.654727 
L 193.244418 133.533376 
L 191.819884 133.894118 
L 190.589667 134.697858 
L 189.687082 135.8575 
L 189.209936 137.247379 
L 189.209936 138.71688 
L 189.687082 140.106759 
L 190.589667 141.266401 
L 191.819884 142.070142 
L 193.244418 142.430883 
L 194.7089 142.309532 
L 196.054629 141.719241 
L 197.135776 140.723975 
L 197.835181 139.431588 
L 198.077052 137.98213 
" style="fill:none;stroke:#ff0000;stroke-linecap:square;stroke-width:1.5;"/>
   </g>
   <g id="line2d_41">
    <path clip-path="url(#pe0f5259675)" d="M 482.187644 325.186582 
L 481.30811 319.915824 
L 478.76482 315.216235 
L 474.833377 311.597087 
L 469.939816 309.450572 
L 464.614429 309.009298 
L 459.434305 310.321083 
L 454.96079 313.243776 
L 451.67866 317.460658 
L 449.943583 322.514763 
L 449.943583 327.858401 
L 451.67866 332.912506 
L 454.96079 337.129388 
L 459.434305 340.052081 
L 464.614429 341.363866 
L 469.939816 340.922592 
L 474.833377 338.776077 
L 478.76482 335.156929 
L 481.30811 330.45734 
L 482.187644 325.186582 
" style="fill:none;stroke:#000000;stroke-dasharray:5.55,2.4;stroke-dashoffset:0;stroke-width:1.5;"/>
   </g>
   <g id="line2d_42">
    <path clip-path="url(#pe0f5259675)" d="M 470.418917 325.186582 
L 470.177045 323.737124 
L 469.47764 322.444736 
L 468.396494 321.449471 
L 467.050764 320.859179 
L 465.586283 320.737829 
L 464.161749 321.09857 
L 462.931532 321.90231 
L 462.028946 323.061953 
L 461.5518 324.451832 
L 461.5518 325.921332 
L 462.028946 327.311211 
L 462.931532 328.470854 
L 464.161749 329.274594 
L 465.586283 329.635335 
L 467.050764 329.513985 
L 468.396494 328.923693 
L 469.47764 327.928428 
L 470.177045 326.63604 
L 470.418917 325.186582 
" style="fill:none;stroke:#ff0000;stroke-linecap:square;stroke-width:1.5;"/>
   </g>
   <g id="line2d_43">
    <path clip-path="url(#pe0f5259675)" d="M 176.173888 132.545261 
L 175.294354 127.274503 
L 172.751063 122.574914 
L 168.819621 118.955766 
L 163.926059 116.809251 
L 158.600672 116.367977 
L 153.420548 117.679763 
L 148.947033 120.602456 
L 145.664903 124.819337 
L 143.929826 129.873442 
L 143.929826 135.21708 
L 145.664903 140.271186 
L 148.947033 144.488067 
L 153.420548 147.41076 
L 158.600672 148.722546 
L 163.926059 148.281272 
L 168.819621 146.134757 
L 172.751063 142.515609 
L 175.294354 137.816019 
L 176.173888 132.545261 
" style="fill:none;stroke:#000000;stroke-dasharray:5.55,2.4;stroke-dashoffset:0;stroke-width:1.5;"/>
   </g>
   <g id="line2d_44">
    <path clip-path="url(#pe0f5259675)" d="M 164.40516 132.545261 
L 164.163289 131.095803 
L 163.463884 129.803416 
L 162.382737 128.80815 
L 161.037008 128.217859 
L 159.572526 128.096508 
L 158.147992 128.457249 
L 156.917776 129.26099 
L 156.01519 130.420632 
L 155.538044 131.810511 
L 155.538044 133.280012 
L 156.01519 134.669891 
L 156.917776 135.829533 
L 158.147992 136.633274 
L 159.572526 136.994015 
L 161.037008 136.872664 
L 162.382737 136.282373 
L 163.463884 135.287107 
L 164.163289 133.99472 
L 164.40516 132.545261 
" style="fill:none;stroke:#ff0000;stroke-linecap:square;stroke-width:1.5;"/>
   </g>
   <g id="line2d_45">
    <path clip-path="url(#pe0f5259675)" d="M 367.729851 320.618871 
L 366.850317 315.348113 
L 364.307026 310.648523 
L 360.375584 307.029376 
L 355.482023 304.882861 
L 350.156636 304.441587 
L 344.976511 305.753372 
L 340.502997 308.676065 
L 337.220866 312.892947 
L 335.48579 317.947052 
L 335.48579 323.29069 
L 337.220866 328.344795 
L 340.502997 332.561676 
L 344.976511 335.484369 
L 350.156636 336.796155 
L 355.482023 336.354881 
L 360.375584 334.208366 
L 364.307026 330.589218 
L 366.850317 325.889629 
L 367.729851 320.618871 
" style="fill:none;stroke:#000000;stroke-dasharray:5.55,2.4;stroke-dashoffset:0;stroke-width:1.5;"/>
   </g>
   <g id="line2d_46">
    <path clip-path="url(#pe0f5259675)" d="M 355.961124 320.618871 
L 355.719252 319.169412 
L 355.019847 317.877025 
L 353.9387 316.88176 
L 352.592971 316.291468 
L 351.128489 316.170118 
L 349.703955 316.530859 
L 348.473739 317.334599 
L 347.571153 318.494242 
L 347.094007 319.884121 
L 347.094007 321.353621 
L 347.571153 322.7435 
L 348.473739 323.903142 
L 349.703955 324.706883 
L 351.128489 325.067624 
L 352.592971 324.946274 
L 353.9387 324.355982 
L 355.019847 323.360716 
L 355.719252 322.068329 
L 355.961124 320.618871 
" style="fill:none;stroke:#ff0000;stroke-linecap:square;stroke-width:1.5;"/>
   </g>
   <g id="line2d_47">
    <path clip-path="url(#pe0f5259675)" d="M 282.752432 205.712107 
L 281.872898 200.441349 
L 279.329607 195.74176 
L 275.398165 192.122612 
L 270.504603 189.976097 
L 265.179216 189.534823 
L 259.999092 190.846609 
L 255.525577 193.769302 
L 252.243447 197.986183 
L 250.50837 203.040288 
L 250.50837 208.383926 
L 252.243447 213.438032 
L 255.525577 217.654913 
L 259.999092 220.577606 
L 265.179216 221.889392 
L 270.504603 221.448117 
L 275.398165 219.301602 
L 279.329607 215.682455 
L 281.872898 210.982865 
L 282.752432 205.712107 
" style="fill:none;stroke:#000000;stroke-dasharray:5.55,2.4;stroke-dashoffset:0;stroke-width:1.5;"/>
   </g>
   <g id="line2d_48">
    <path clip-path="url(#pe0f5259675)" d="M 270.983704 205.712107 
L 270.741832 204.262649 
L 270.042427 202.970262 
L 268.961281 201.974996 
L 267.615551 201.384705 
L 266.15107 201.263354 
L 264.726536 201.624095 
L 263.496319 202.427836 
L 262.593733 203.587478 
L 262.116587 204.977357 
L 262.116587 206.446858 
L 262.593733 207.836737 
L 263.496319 208.996379 
L 264.726536 209.800119 
L 266.15107 210.160861 
L 267.615551 210.03951 
L 268.961281 209.449218 
L 270.042427 208.453953 
L 270.741832 207.161566 
L 270.983704 205.712107 
" style="fill:none;stroke:#ff0000;stroke-linecap:square;stroke-width:1.5;"/>
   </g>
   <g id="line2d_49">
    <path clip-path="url(#pe0f5259675)" d="M 353.105527 229.199182 
L 352.225993 223.928424 
L 349.682702 219.228835 
L 345.75126 215.609687 
L 340.857698 213.463172 
L 335.532311 213.021898 
L 330.352187 214.333684 
L 325.878672 217.256377 
L 322.596542 221.473258 
L 320.861465 226.527363 
L 320.861465 231.871002 
L 322.596542 236.925107 
L 325.878672 241.141988 
L 330.352187 244.064681 
L 335.532311 245.376467 
L 340.857698 244.935193 
L 345.75126 242.788678 
L 349.682702 239.16953 
L 352.225993 234.46994 
L 353.105527 229.199182 
" style="fill:none;stroke:#000000;stroke-dasharray:5.55,2.4;stroke-dashoffset:0;stroke-width:1.5;"/>
   </g>
   <g id="line2d_50">
    <path clip-path="url(#pe0f5259675)" d="M 341.336799 229.199182 
L 341.094928 227.749724 
L 340.395523 226.457337 
L 339.314376 225.462071 
L 337.968647 224.87178 
L 336.504165 224.750429 
L 335.079631 225.11117 
L 333.849415 225.914911 
L 332.946829 227.074553 
L 332.469683 228.464432 
L 332.469683 229.933933 
L 332.946829 231.323812 
L 333.849415 232.483454 
L 335.079631 233.287195 
L 336.504165 233.647936 
L 337.968647 233.526585 
L 339.314376 232.936294 
L 340.395523 231.941028 
L 341.094928 230.648641 
L 341.336799 229.199182 
" style="fill:none;stroke:#ff0000;stroke-linecap:square;stroke-width:1.5;"/>
   </g>
   <g id="line2d_51">
    <path clip-path="url(#pe0f5259675)" d="M 448.064945 392.182892 
L 447.185411 386.912135 
L 444.64212 382.212545 
L 440.710678 378.593397 
L 435.817117 376.446882 
L 430.49173 376.005608 
L 425.311605 377.317394 
L 420.838091 380.240087 
L 417.55596 384.456968 
L 415.820884 389.511073 
L 415.820884 394.854712 
L 417.55596 399.908817 
L 420.838091 404.125698 
L 425.311605 407.048391 
L 430.49173 408.360177 
L 435.817117 407.918903 
L 440.710678 405.772388 
L 444.64212 402.15324 
L 447.185411 397.45365 
L 448.064945 392.182892 
" style="fill:none;stroke:#000000;stroke-dasharray:5.55,2.4;stroke-dashoffset:0;stroke-width:1.5;"/>
   </g>
   <g id="line2d_52">
    <path clip-path="url(#pe0f5259675)" d="M 436.296218 392.182892 
L 436.054346 390.733434 
L 435.354941 389.441047 
L 434.273794 388.445781 
L 432.928065 387.85549 
L 431.463584 387.734139 
L 430.039049 388.09488 
L 428.808833 388.898621 
L 427.906247 390.058263 
L 427.429101 391.448142 
L 427.429101 392.917643 
L 427.906247 394.307522 
L 428.808833 395.467164 
L 430.039049 396.270905 
L 431.463584 396.631646 
L 432.928065 396.510295 
L 434.273794 395.920004 
L 435.354941 394.924738 
L 436.054346 393.632351 
L 436.296218 392.182892 
" style="fill:none;stroke:#ff0000;stroke-linecap:square;stroke-width:1.5;"/>
   </g>
   <g id="line2d_53">
    <path clip-path="url(#pe0f5259675)" d="M 401.309025 173.568503 
L 400.429491 168.297745 
L 397.8862 163.598156 
L 393.954758 159.979008 
L 389.061197 157.832493 
L 383.73581 157.391219 
L 378.555686 158.703004 
L 374.082171 161.625697 
L 370.80004 165.842579 
L 369.064964 170.896684 
L 369.064964 176.240322 
L 370.80004 181.294427 
L 374.082171 185.511309 
L 378.555686 188.434002 
L 383.73581 189.745787 
L 389.061197 189.304513 
L 393.954758 187.157998 
L 397.8862 183.538851 
L 400.429491 178.839261 
L 401.309025 173.568503 
" style="fill:none;stroke:#000000;stroke-dasharray:5.55,2.4;stroke-dashoffset:0;stroke-width:1.5;"/>
   </g>
   <g id="line2d_54">
    <path clip-path="url(#pe0f5259675)" d="M 389.540298 173.568503 
L 389.298426 172.119045 
L 388.599021 170.826658 
L 387.517874 169.831392 
L 386.172145 169.2411 
L 384.707664 169.11975 
L 383.283129 169.480491 
L 382.052913 170.284232 
L 381.150327 171.443874 
L 380.673181 172.833753 
L 380.673181 174.303253 
L 381.150327 175.693132 
L 382.052913 176.852775 
L 383.283129 177.656515 
L 384.707664 178.017256 
L 386.172145 177.895906 
L 387.517874 177.305614 
L 388.599021 176.310349 
L 389.298426 175.017962 
L 389.540298 173.568503 
" style="fill:none;stroke:#ff0000;stroke-linecap:square;stroke-width:1.5;"/>
   </g>
   <g id="line2d_55">
    <path clip-path="url(#pe0f5259675)" d="M 408.962922 317.880993 
L 408.083388 312.610235 
L 405.540097 307.910645 
L 401.608655 304.291498 
L 396.715094 302.144983 
L 391.389707 301.703708 
L 386.209582 303.015494 
L 381.736068 305.938187 
L 378.453937 310.155069 
L 376.718861 315.209174 
L 376.718861 320.552812 
L 378.453937 325.606917 
L 381.736068 329.823798 
L 386.209582 332.746491 
L 391.389707 334.058277 
L 396.715094 333.617003 
L 401.608655 331.470488 
L 405.540097 327.85134 
L 408.083388 323.151751 
L 408.962922 317.880993 
" style="fill:none;stroke:#000000;stroke-dasharray:5.55,2.4;stroke-dashoffset:0;stroke-width:1.5;"/>
   </g>
   <g id="line2d_56">
    <path clip-path="url(#pe0f5259675)" d="M 397.194195 317.880993 
L 396.952323 316.431534 
L 396.252918 315.139147 
L 395.171771 314.143882 
L 393.826042 313.55359 
L 392.36156 313.43224 
L 390.937026 313.792981 
L 389.70681 314.596721 
L 388.804224 315.756364 
L 388.327078 317.146243 
L 388.327078 318.615743 
L 388.804224 320.005622 
L 389.70681 321.165264 
L 390.937026 321.969005 
L 392.36156 322.329746 
L 393.826042 322.208396 
L 395.171771 321.618104 
L 396.252918 320.622838 
L 396.952323 319.330451 
L 397.194195 317.880993 
" style="fill:none;stroke:#ff0000;stroke-linecap:square;stroke-width:1.5;"/>
   </g>
   <g id="line2d_57">
    <path clip-path="url(#pe0f5259675)" d="M 450.962713 144.835389 
L 450.083179 139.564631 
L 447.539888 134.865041 
L 443.608446 131.245893 
L 438.714885 129.099378 
L 433.389498 128.658104 
L 428.209373 129.96989 
L 423.735859 132.892583 
L 420.453728 137.109464 
L 418.718652 142.16357 
L 418.718652 147.507208 
L 420.453728 152.561313 
L 423.735859 156.778194 
L 428.209373 159.700887 
L 433.389498 161.012673 
L 438.714885 160.571399 
L 443.608446 158.424884 
L 447.539888 154.805736 
L 450.083179 150.106147 
L 450.962713 144.835389 
" style="fill:none;stroke:#000000;stroke-dasharray:5.55,2.4;stroke-dashoffset:0;stroke-width:1.5;"/>
   </g>
   <g id="line2d_58">
    <path clip-path="url(#pe0f5259675)" d="M 439.193986 144.835389 
L 438.952114 143.38593 
L 438.252709 142.093543 
L 437.171562 141.098277 
L 435.825833 140.507986 
L 434.361352 140.386635 
L 432.936817 140.747376 
L 431.706601 141.551117 
L 430.804015 142.710759 
L 430.326869 144.100638 
L 430.326869 145.570139 
L 430.804015 146.960018 
L 431.706601 148.11966 
L 432.936817 148.923401 
L 434.361352 149.284142 
L 435.825833 149.162791 
L 437.171562 148.5725 
L 438.252709 147.577234 
L 438.952114 146.284847 
L 439.193986 144.835389 
" style="fill:none;stroke:#ff0000;stroke-linecap:square;stroke-width:1.5;"/>
   </g>
   <g id="line2d_59">
    <path clip-path="url(#pe0f5259675)" d="M 92.290909 493.789091 
L 92.290909 87.970909 
" style="fill:none;stroke:#000000;stroke-linecap:square;stroke-width:4;"/>
   </g>
   <g id="line2d_60">
    <path clip-path="url(#pe0f5259675)" d="M 92.290909 87.970909 
L 498.109091 87.970909 
" style="fill:none;stroke:#000000;stroke-linecap:square;stroke-width:4;"/>
   </g>
   <g id="line2d_61">
    <path clip-path="url(#pe0f5259675)" d="M 498.109091 87.970909 
L 498.109091 493.789091 
" style="fill:none;stroke:#000000;stroke-linecap:square;stroke-width:4;"/>
   </g>
   <g id="line2d_62">
    <path clip-path="url(#pe0f5259675)" d="M 498.109091 493.789091 
L 92.290909 493.789091 
" style="fill:none;stroke:#000000;stroke-linecap:square;stroke-width:4;"/>
   </g>
   <g id="patch_3">
    <path d="M 72 512.64 
L 72 69.12 
" style="fill:none;stroke:#000000;stroke-linecap:square;stroke-linejoin:miter;stroke-width:0.8;"/>
   </g>
   <g id="patch_4">
    <path d="M 518.4 512.64 
L 518.4 69.12 
" style="fill:none;stroke:#000000;stroke-linecap:square;stroke-linejoin:miter;stroke-width:0.8;"/>
   </g>
   <g id="patch_5">
    <path d="M 72 512.64 
L 518.4 512.64 
" style="fill:none;stroke:#000000;stroke-linecap:square;stroke-linejoin:miter;stroke-width:0.8;"/>
   </g>
   <g id="patch_6">
    <path d="M 72 69.12 
L 518.4 69.12 
" style="fill:none;stroke:#000000;stroke-linecap:square;stroke-linejoin:miter;stroke-width:0.8;"/>
   </g>
   <g id="text_12">
    <!-- 1 -->
    <defs>
     <path d="M 14.203125 0 
L 14.203125 5.171875 
L 26.90625 5.171875 
L 26.90625 65.828125 
L 12.203125 56.296875 
L 12.203125 62.703125 
L 29.984375 74.21875 
L 36.71875 74.21875 
L 36.71875 5.171875 
L 49.421875 5.171875 
L 49.421875 0 
z
" id="DejaVuSerif-31"/>
    </defs>
    <g transform="translate(300.908669 394.409203)scale(0.1 -0.1)">
     <use xlink:href="#DejaVuSerif-31"/>
    </g>
   </g>
   <g id="text_13">
    <!-- 1 -->
    <g transform="translate(119.790119 251.946362)scale(0.1 -0.1)">
     <use xlink:href="#DejaVuSerif-31"/>
    </g>
   </g>
   <g id="text_14">
    <!-- 2 -->
    <defs>
     <path d="M 12.796875 55.515625 
L 7.328125 55.515625 
L 7.328125 68.5 
Q 12.546875 71.296875 17.84375 72.75 
Q 23.140625 74.21875 28.21875 74.21875 
Q 39.59375 74.21875 46.1875 68.703125 
Q 52.78125 63.1875 52.78125 53.71875 
Q 52.78125 43.015625 37.84375 28.125 
Q 36.671875 27 36.078125 26.421875 
L 17.671875 8.015625 
L 48.09375 8.015625 
L 48.09375 17 
L 53.8125 17 
L 53.8125 0 
L 6.78125 0 
L 6.78125 5.328125 
L 28.90625 27.390625 
Q 36.234375 34.71875 39.359375 40.84375 
Q 42.484375 46.96875 42.484375 53.71875 
Q 42.484375 61.078125 38.640625 65.234375 
Q 34.8125 69.390625 28.078125 69.390625 
Q 21.09375 69.390625 17.28125 65.921875 
Q 13.484375 62.453125 12.796875 55.515625 
z
" id="DejaVuSerif-32"/>
    </defs>
    <g transform="translate(218.718641 312.604271)scale(0.1 -0.1)">
     <use xlink:href="#DejaVuSerif-32"/>
    </g>
   </g>
   <g id="text_15">
    <!-- 2 -->
    <g transform="translate(420.685622 190.97815)scale(0.1 -0.1)">
     <use xlink:href="#DejaVuSerif-32"/>
    </g>
   </g>
   <g id="text_16">
    <!-- 3 -->
    <defs>
     <path d="M 9.71875 69.828125 
Q 15.4375 71.96875 20.671875 73.09375 
Q 25.921875 74.21875 30.515625 74.21875 
Q 41.21875 74.21875 47.21875 69.59375 
Q 53.21875 64.984375 53.21875 56.78125 
Q 53.21875 50.203125 49.0625 45.78125 
Q 44.921875 41.359375 37.3125 39.796875 
Q 46.296875 38.53125 51.25 33.28125 
Q 56.203125 28.03125 56.203125 19.671875 
Q 56.203125 9.46875 49.34375 4.015625 
Q 42.484375 -1.421875 29.59375 -1.421875 
Q 23.875 -1.421875 18.421875 -0.1875 
Q 12.984375 1.03125 7.625 3.515625 
L 7.625 17.671875 
L 13.09375 17.671875 
Q 13.578125 10.640625 17.828125 7.03125 
Q 22.078125 3.421875 29.78125 3.421875 
Q 37.25 3.421875 41.578125 7.734375 
Q 45.90625 12.0625 45.90625 19.578125 
Q 45.90625 28.171875 41.453125 32.59375 
Q 37.015625 37.015625 28.421875 37.015625 
L 23.78125 37.015625 
L 23.78125 42 
L 26.21875 42 
Q 34.765625 42 39.03125 45.53125 
Q 43.3125 49.078125 43.3125 56.203125 
Q 43.3125 62.59375 39.796875 65.984375 
Q 36.28125 69.390625 29.6875 69.390625 
Q 23.09375 69.390625 19.453125 66.265625 
Q 15.828125 63.140625 15.1875 56.984375 
L 9.71875 56.984375 
z
" id="DejaVuSerif-33"/>
    </defs>
    <g transform="translate(155.23336 374.032765)scale(0.1 -0.1)">
     <use xlink:href="#DejaVuSerif-33"/>
    </g>
   </g>
   <g id="text_17">
    <!-- 3 -->
    <g transform="translate(456.58808 471.43621)scale(0.1 -0.1)">
     <use xlink:href="#DejaVuSerif-33"/>
    </g>
   </g>
   <g id="text_18">
    <!-- 4 -->
    <defs>
     <path d="M 34.90625 24.703125 
L 34.90625 63.484375 
L 10.015625 24.703125 
z
M 56.390625 0 
L 23.1875 0 
L 23.1875 5.171875 
L 34.90625 5.171875 
L 34.90625 19.484375 
L 3.078125 19.484375 
L 3.078125 24.8125 
L 35.015625 74.21875 
L 44.671875 74.21875 
L 44.671875 24.703125 
L 58.59375 24.703125 
L 58.59375 19.484375 
L 44.671875 19.484375 
L 44.671875 5.171875 
L 56.390625 5.171875 
z
" id="DejaVuSerif-34"/>
    </defs>
    <g transform="translate(246.282408 145.985381)scale(0.1 -0.1)">
     <use xlink:href="#DejaVuSerif-34"/>
    </g>
   </g>
   <g id="text_19">
    <!-- 4 -->
    <g transform="translate(165.025998 437.150131)scale(0.1 -0.1)">
     <use xlink:href="#DejaVuSerif-34"/>
    </g>
   </g>
   <g id="text_20">
    <!-- 5 -->
    <defs>
     <path d="M 50.296875 72.90625 
L 50.296875 64.890625 
L 16.890625 64.890625 
L 16.890625 44 
Q 19.4375 45.75 22.828125 46.625 
Q 26.21875 47.515625 30.421875 47.515625 
Q 42.234375 47.515625 49.0625 40.96875 
Q 55.90625 34.421875 55.90625 23.09375 
Q 55.90625 11.53125 49 5.046875 
Q 42.09375 -1.421875 29.59375 -1.421875 
Q 24.5625 -1.421875 19.28125 -0.1875 
Q 14.015625 1.03125 8.5 3.515625 
L 8.5 17.671875 
L 14.015625 17.671875 
Q 14.453125 10.75 18.421875 7.078125 
Q 22.40625 3.421875 29.59375 3.421875 
Q 37.3125 3.421875 41.453125 8.5 
Q 45.609375 13.578125 45.609375 23.09375 
Q 45.609375 32.5625 41.484375 37.609375 
Q 37.359375 42.671875 29.59375 42.671875 
Q 25.203125 42.671875 21.84375 41.109375 
Q 18.5 39.546875 15.921875 36.28125 
L 11.71875 36.28125 
L 11.71875 72.90625 
z
" id="DejaVuSerif-35"/>
    </defs>
    <g transform="translate(383.232053 128.11422)scale(0.1 -0.1)">
     <use xlink:href="#DejaVuSerif-35"/>
    </g>
   </g>
   <g id="text_21">
    <!-- 5 -->
    <g transform="translate(292.204425 451.31825)scale(0.1 -0.1)">
     <use xlink:href="#DejaVuSerif-35"/>
    </g>
   </g>
   <g id="text_22">
    <!-- 6 -->
    <defs>
     <path d="M 32.71875 3.421875 
Q 39.59375 3.421875 43.296875 8.46875 
Q 47.015625 13.53125 47.015625 23 
Q 47.015625 32.46875 43.296875 37.515625 
Q 39.59375 42.578125 32.71875 42.578125 
Q 25.734375 42.578125 22.0625 37.6875 
Q 18.40625 32.8125 18.40625 23.578125 
Q 18.40625 13.875 22.109375 8.640625 
Q 25.828125 3.421875 32.71875 3.421875 
z
M 16.796875 40.140625 
Q 20.125 43.796875 24.3125 45.59375 
Q 28.515625 47.40625 33.796875 47.40625 
Q 44.671875 47.40625 51 40.859375 
Q 57.328125 34.328125 57.328125 23 
Q 57.328125 11.921875 50.515625 5.25 
Q 43.703125 -1.421875 32.328125 -1.421875 
Q 19.96875 -1.421875 13.328125 7.78125 
Q 6.6875 17 6.6875 34.078125 
Q 6.6875 53.21875 14.546875 63.71875 
Q 22.40625 74.21875 36.71875 74.21875 
Q 40.578125 74.21875 44.828125 73.484375 
Q 49.078125 72.75 53.515625 71.296875 
L 53.515625 59.28125 
L 48 59.28125 
Q 47.40625 64.203125 44.234375 66.796875 
Q 41.0625 69.390625 35.6875 69.390625 
Q 26.21875 69.390625 21.578125 62.203125 
Q 16.9375 55.03125 16.796875 40.140625 
z
" id="DejaVuSerif-36"/>
    </defs>
    <g transform="translate(207.426515 227.159165)scale(0.1 -0.1)">
     <use xlink:href="#DejaVuSerif-36"/>
    </g>
   </g>
   <g id="text_23">
    <!-- 6 -->
    <g transform="translate(364.144636 419.287326)scale(0.1 -0.1)">
     <use xlink:href="#DejaVuSerif-36"/>
    </g>
   </g>
   <g id="text_24">
    <!-- 7 -->
    <defs>
     <path d="M 56.390625 67.921875 
L 27.875 0 
L 20.609375 0 
L 47.796875 64.890625 
L 14.109375 64.890625 
L 14.109375 55.90625 
L 8.40625 55.90625 
L 8.40625 72.90625 
L 56.390625 72.90625 
z
" id="DejaVuSerif-37"/>
    </defs>
    <g transform="translate(357.155334 464.392127)scale(0.1 -0.1)">
     <use xlink:href="#DejaVuSerif-37"/>
    </g>
   </g>
   <g id="text_25">
    <!-- 7 -->
    <g transform="translate(159.178713 185.281194)scale(0.1 -0.1)">
     <use xlink:href="#DejaVuSerif-37"/>
    </g>
   </g>
   <g id="text_26">
    <!-- 8 -->
    <defs>
     <path d="M 46.578125 19.921875 
Q 46.578125 27.734375 42.6875 32.046875 
Q 38.8125 36.375 31.78125 36.375 
Q 24.75 36.375 20.875 32.046875 
Q 17 27.734375 17 19.921875 
Q 17 12.0625 20.875 7.734375 
Q 24.75 3.421875 31.78125 3.421875 
Q 38.8125 3.421875 42.6875 7.734375 
Q 46.578125 12.0625 46.578125 19.921875 
z
M 44.578125 55.328125 
Q 44.578125 61.96875 41.203125 65.671875 
Q 37.84375 69.390625 31.78125 69.390625 
Q 25.78125 69.390625 22.390625 65.671875 
Q 19 61.96875 19 55.328125 
Q 19 48.640625 22.390625 44.921875 
Q 25.78125 41.21875 31.78125 41.21875 
Q 37.84375 41.21875 41.203125 44.921875 
Q 44.578125 48.640625 44.578125 55.328125 
z
M 39.3125 38.8125 
Q 47.609375 37.703125 52.25 32.6875 
Q 56.890625 27.6875 56.890625 19.921875 
Q 56.890625 9.671875 50.390625 4.125 
Q 43.890625 -1.421875 31.78125 -1.421875 
Q 19.734375 -1.421875 13.203125 4.125 
Q 6.6875 9.671875 6.6875 19.921875 
Q 6.6875 27.6875 11.328125 32.6875 
Q 15.96875 37.703125 24.3125 38.8125 
Q 16.9375 40.140625 13 44.40625 
Q 9.078125 48.6875 9.078125 55.328125 
Q 9.078125 64.109375 15.125 69.15625 
Q 21.1875 74.21875 31.78125 74.21875 
Q 42.390625 74.21875 48.4375 69.15625 
Q 54.5 64.109375 54.5 55.328125 
Q 54.5 48.6875 50.5625 44.40625 
Q 46.625 40.140625 39.3125 38.8125 
z
" id="DejaVuSerif-38"/>
    </defs>
    <g transform="translate(241.793229 436.584345)scale(0.1 -0.1)">
     <use xlink:href="#DejaVuSerif-38"/>
    </g>
   </g>
   <g id="text_27">
    <!-- 8 -->
    <g transform="translate(288.135007 135.647302)scale(0.1 -0.1)">
     <use xlink:href="#DejaVuSerif-38"/>
    </g>
   </g>
  </g>
 </g>
 <defs>
  <clipPath id="pe0f5259675">
   <rect height="443.52" width="446.4" x="72" y="69.12"/>
  </clipPath>
 </defs>
</svg>
