<?xml version="1.0" encoding="utf-8" standalone="no"?>
<!DOCTYPE svg PUBLIC "-//W3C//DTD SVG 1.1//EN"
  "http://www.w3.org/Graphics/SVG/1.1/DTD/svg11.dtd">
<!-- Created with matplotlib (http://matplotlib.org/) -->
<svg height="576pt" version="1.1" viewBox="0 0 576 576" width="576pt" xmlns="http://www.w3.org/2000/svg" xmlns:xlink="http://www.w3.org/1999/xlink">
 <defs>
  <style type="text/css">
*{stroke-linecap:butt;stroke-linejoin:round;}
  </style>
 </defs>
 <g id="figure_1">
  <g id="patch_1">
   <path d="M 0 576 
L 576 576 
L 576 0 
L 0 0 
z
" style="fill:#ffffff;"/>
  </g>
  <g id="axes_1">
   <g id="patch_2">
    <path d="M 72 512.64 
L 518.4 512.64 
L 518.4 69.12 
L 72 69.12 
z
" style="fill:#ffffff;"/>
   </g>
   <g id="matplotlib.axis_1">
    <g id="xtick_1">
     <g id="line2d_1">
      <defs>
       <path d="M 0 0 
L 0 3.5 
" id="mc9c93b8743" style="stroke:#000000;stroke-width:0.8;"/>
      </defs>
      <g>
       <use style="stroke:#000000;stroke-width:0.8;" x="112.581818" xlink:href="#mc9c93b8743" y="512.64"/>
      </g>
     </g>
     <g id="text_1">
      <!-- 0 -->
      <defs>
       <path d="M 31.78125 66.40625 
Q 24.171875 66.40625 20.328125 58.90625 
Q 16.5 51.421875 16.5 36.375 
Q 16.5 21.390625 20.328125 13.890625 
Q 24.171875 6.390625 31.78125 6.390625 
Q 39.453125 6.390625 43.28125 13.890625 
Q 47.125 21.390625 47.125 36.375 
Q 47.125 51.421875 43.28125 58.90625 
Q 39.453125 66.40625 31.78125 66.40625 
z
M 31.78125 74.21875 
Q 44.046875 74.21875 50.515625 64.515625 
Q 56.984375 54.828125 56.984375 36.375 
Q 56.984375 17.96875 50.515625 8.265625 
Q 44.046875 -1.421875 31.78125 -1.421875 
Q 19.53125 -1.421875 13.0625 8.265625 
Q 6.59375 17.96875 6.59375 36.375 
Q 6.59375 54.828125 13.0625 64.515625 
Q 19.53125 74.21875 31.78125 74.21875 
z
" id="DejaVuSans-30"/>
      </defs>
      <g transform="translate(109.400568 527.238438)scale(0.1 -0.1)">
       <use xlink:href="#DejaVuSans-30"/>
      </g>
     </g>
    </g>
    <g id="xtick_2">
     <g id="line2d_2">
      <g>
       <use style="stroke:#000000;stroke-width:0.8;" x="193.745455" xlink:href="#mc9c93b8743" y="512.64"/>
      </g>
     </g>
     <g id="text_2">
      <!-- 2 -->
      <defs>
       <path d="M 19.1875 8.296875 
L 53.609375 8.296875 
L 53.609375 0 
L 7.328125 0 
L 7.328125 8.296875 
Q 12.9375 14.109375 22.625 23.890625 
Q 32.328125 33.6875 34.8125 36.53125 
Q 39.546875 41.84375 41.421875 45.53125 
Q 43.3125 49.21875 43.3125 52.78125 
Q 43.3125 58.59375 39.234375 62.25 
Q 35.15625 65.921875 28.609375 65.921875 
Q 23.96875 65.921875 18.8125 64.3125 
Q 13.671875 62.703125 7.8125 59.421875 
L 7.8125 69.390625 
Q 13.765625 71.78125 18.9375 73 
Q 24.125 74.21875 28.421875 74.21875 
Q 39.75 74.21875 46.484375 68.546875 
Q 53.21875 62.890625 53.21875 53.421875 
Q 53.21875 48.921875 51.53125 44.890625 
Q 49.859375 40.875 45.40625 35.40625 
Q 44.1875 33.984375 37.640625 27.21875 
Q 31.109375 20.453125 19.1875 8.296875 
z
" id="DejaVuSans-32"/>
      </defs>
      <g transform="translate(190.564205 527.238438)scale(0.1 -0.1)">
       <use xlink:href="#DejaVuSans-32"/>
      </g>
     </g>
    </g>
    <g id="xtick_3">
     <g id="line2d_3">
      <g>
       <use style="stroke:#000000;stroke-width:0.8;" x="274.909091" xlink:href="#mc9c93b8743" y="512.64"/>
      </g>
     </g>
     <g id="text_3">
      <!-- 4 -->
      <defs>
       <path d="M 37.796875 64.3125 
L 12.890625 25.390625 
L 37.796875 25.390625 
z
M 35.203125 72.90625 
L 47.609375 72.90625 
L 47.609375 25.390625 
L 58.015625 25.390625 
L 58.015625 17.1875 
L 47.609375 17.1875 
L 47.609375 0 
L 37.796875 0 
L 37.796875 17.1875 
L 4.890625 17.1875 
L 4.890625 26.703125 
z
" id="DejaVuSans-34"/>
      </defs>
      <g transform="translate(271.727841 527.238438)scale(0.1 -0.1)">
       <use xlink:href="#DejaVuSans-34"/>
      </g>
     </g>
    </g>
    <g id="xtick_4">
     <g id="line2d_4">
      <g>
       <use style="stroke:#000000;stroke-width:0.8;" x="356.072727" xlink:href="#mc9c93b8743" y="512.64"/>
      </g>
     </g>
     <g id="text_4">
      <!-- 6 -->
      <defs>
       <path d="M 33.015625 40.375 
Q 26.375 40.375 22.484375 35.828125 
Q 18.609375 31.296875 18.609375 23.390625 
Q 18.609375 15.53125 22.484375 10.953125 
Q 26.375 6.390625 33.015625 6.390625 
Q 39.65625 6.390625 43.53125 10.953125 
Q 47.40625 15.53125 47.40625 23.390625 
Q 47.40625 31.296875 43.53125 35.828125 
Q 39.65625 40.375 33.015625 40.375 
z
M 52.59375 71.296875 
L 52.59375 62.3125 
Q 48.875 64.0625 45.09375 64.984375 
Q 41.3125 65.921875 37.59375 65.921875 
Q 27.828125 65.921875 22.671875 59.328125 
Q 17.53125 52.734375 16.796875 39.40625 
Q 19.671875 43.65625 24.015625 45.921875 
Q 28.375 48.1875 33.59375 48.1875 
Q 44.578125 48.1875 50.953125 41.515625 
Q 57.328125 34.859375 57.328125 23.390625 
Q 57.328125 12.15625 50.6875 5.359375 
Q 44.046875 -1.421875 33.015625 -1.421875 
Q 20.359375 -1.421875 13.671875 8.265625 
Q 6.984375 17.96875 6.984375 36.375 
Q 6.984375 53.65625 15.1875 63.9375 
Q 23.390625 74.21875 37.203125 74.21875 
Q 40.921875 74.21875 44.703125 73.484375 
Q 48.484375 72.75 52.59375 71.296875 
z
" id="DejaVuSans-36"/>
      </defs>
      <g transform="translate(352.891477 527.238438)scale(0.1 -0.1)">
       <use xlink:href="#DejaVuSans-36"/>
      </g>
     </g>
    </g>
    <g id="xtick_5">
     <g id="line2d_5">
      <g>
       <use style="stroke:#000000;stroke-width:0.8;" x="437.236364" xlink:href="#mc9c93b8743" y="512.64"/>
      </g>
     </g>
     <g id="text_5">
      <!-- 8 -->
      <defs>
       <path d="M 31.78125 34.625 
Q 24.75 34.625 20.71875 30.859375 
Q 16.703125 27.09375 16.703125 20.515625 
Q 16.703125 13.921875 20.71875 10.15625 
Q 24.75 6.390625 31.78125 6.390625 
Q 38.8125 6.390625 42.859375 10.171875 
Q 46.921875 13.96875 46.921875 20.515625 
Q 46.921875 27.09375 42.890625 30.859375 
Q 38.875 34.625 31.78125 34.625 
z
M 21.921875 38.8125 
Q 15.578125 40.375 12.03125 44.71875 
Q 8.5 49.078125 8.5 55.328125 
Q 8.5 64.0625 14.71875 69.140625 
Q 20.953125 74.21875 31.78125 74.21875 
Q 42.671875 74.21875 48.875 69.140625 
Q 55.078125 64.0625 55.078125 55.328125 
Q 55.078125 49.078125 51.53125 44.71875 
Q 48 40.375 41.703125 38.8125 
Q 48.828125 37.15625 52.796875 32.3125 
Q 56.78125 27.484375 56.78125 20.515625 
Q 56.78125 9.90625 50.3125 4.234375 
Q 43.84375 -1.421875 31.78125 -1.421875 
Q 19.734375 -1.421875 13.25 4.234375 
Q 6.78125 9.90625 6.78125 20.515625 
Q 6.78125 27.484375 10.78125 32.3125 
Q 14.796875 37.15625 21.921875 38.8125 
z
M 18.3125 54.390625 
Q 18.3125 48.734375 21.84375 45.5625 
Q 25.390625 42.390625 31.78125 42.390625 
Q 38.140625 42.390625 41.71875 45.5625 
Q 45.3125 48.734375 45.3125 54.390625 
Q 45.3125 60.0625 41.71875 63.234375 
Q 38.140625 66.40625 31.78125 66.40625 
Q 25.390625 66.40625 21.84375 63.234375 
Q 18.3125 60.0625 18.3125 54.390625 
z
" id="DejaVuSans-38"/>
      </defs>
      <g transform="translate(434.055114 527.238438)scale(0.1 -0.1)">
       <use xlink:href="#DejaVuSans-38"/>
      </g>
     </g>
    </g>
    <g id="xtick_6">
     <g id="line2d_6">
      <g>
       <use style="stroke:#000000;stroke-width:0.8;" x="518.4" xlink:href="#mc9c93b8743" y="512.64"/>
      </g>
     </g>
     <g id="text_6">
      <!-- 10 -->
      <defs>
       <path d="M 12.40625 8.296875 
L 28.515625 8.296875 
L 28.515625 63.921875 
L 10.984375 60.40625 
L 10.984375 69.390625 
L 28.421875 72.90625 
L 38.28125 72.90625 
L 38.28125 8.296875 
L 54.390625 8.296875 
L 54.390625 0 
L 12.40625 0 
z
" id="DejaVuSans-31"/>
      </defs>
      <g transform="translate(512.0375 527.238438)scale(0.1 -0.1)">
       <use xlink:href="#DejaVuSans-31"/>
       <use x="63.623047" xlink:href="#DejaVuSans-30"/>
      </g>
     </g>
    </g>
   </g>
   <g id="matplotlib.axis_2">
    <g id="ytick_1">
     <g id="line2d_7">
      <defs>
       <path d="M 0 0 
L -3.5 0 
" id="mf70e02b779" style="stroke:#000000;stroke-width:0.8;"/>
      </defs>
      <g>
       <use style="stroke:#000000;stroke-width:0.8;" x="72" xlink:href="#mf70e02b779" y="473.498182"/>
      </g>
     </g>
     <g id="text_7">
      <!-- 0 -->
      <g transform="translate(58.6375 477.297401)scale(0.1 -0.1)">
       <use xlink:href="#DejaVuSans-30"/>
      </g>
     </g>
    </g>
    <g id="ytick_2">
     <g id="line2d_8">
      <g>
       <use style="stroke:#000000;stroke-width:0.8;" x="72" xlink:href="#mf70e02b779" y="392.334545"/>
      </g>
     </g>
     <g id="text_8">
      <!-- 2 -->
      <g transform="translate(58.6375 396.133764)scale(0.1 -0.1)">
       <use xlink:href="#DejaVuSans-32"/>
      </g>
     </g>
    </g>
    <g id="ytick_3">
     <g id="line2d_9">
      <g>
       <use style="stroke:#000000;stroke-width:0.8;" x="72" xlink:href="#mf70e02b779" y="311.170909"/>
      </g>
     </g>
     <g id="text_9">
      <!-- 4 -->
      <g transform="translate(58.6375 314.970128)scale(0.1 -0.1)">
       <use xlink:href="#DejaVuSans-34"/>
      </g>
     </g>
    </g>
    <g id="ytick_4">
     <g id="line2d_10">
      <g>
       <use style="stroke:#000000;stroke-width:0.8;" x="72" xlink:href="#mf70e02b779" y="230.007273"/>
      </g>
     </g>
     <g id="text_10">
      <!-- 6 -->
      <g transform="translate(58.6375 233.806491)scale(0.1 -0.1)">
       <use xlink:href="#DejaVuSans-36"/>
      </g>
     </g>
    </g>
    <g id="ytick_5">
     <g id="line2d_11">
      <g>
       <use style="stroke:#000000;stroke-width:0.8;" x="72" xlink:href="#mf70e02b779" y="148.843636"/>
      </g>
     </g>
     <g id="text_11">
      <!-- 8 -->
      <g transform="translate(58.6375 152.642855)scale(0.1 -0.1)">
       <use xlink:href="#DejaVuSans-38"/>
      </g>
     </g>
    </g>
   </g>
   <g id="line2d_12">
    <path clip-path="url(#pa0b42581d0)" d="M 131.151284 124.861424 
" style="fill:none;stroke:#1f77b4;stroke-linecap:square;stroke-width:1.5;"/>
    <defs>
     <path d="M -5 5 
L 5 5 
L 5 -5 
L -5 -5 
z
" id="m4c36226296" style="stroke:#8000ff;stroke-linejoin:miter;"/>
    </defs>
    <g clip-path="url(#pa0b42581d0)">
     <use style="fill:#8000ff;stroke:#8000ff;stroke-linejoin:miter;" x="131.151284" xlink:href="#m4c36226296" y="124.861424"/>
    </g>
   </g>
   <g id="line2d_13">
    <path clip-path="url(#pa0b42581d0)" d="M 295.624716 252.879602 
" style="fill:none;stroke:#ff7f0e;stroke-linecap:square;stroke-width:1.5;"/>
    <defs>
     <path d="M 0 -5 
L -4.755283 -1.545085 
L -2.938926 4.045085 
L 2.938926 4.045085 
L 4.755283 -1.545085 
z
" id="m04ff15bffb" style="stroke:#8000ff;stroke-linejoin:miter;"/>
    </defs>
    <g clip-path="url(#pa0b42581d0)">
     <use style="fill:#8000ff;stroke:#8000ff;stroke-linejoin:miter;" x="295.624716" xlink:href="#m04ff15bffb" y="252.879602"/>
    </g>
   </g>
   <g id="line2d_14">
    <path clip-path="url(#pa0b42581d0)" d="M 216.918726 466.339569 
" style="fill:none;stroke:#2ca02c;stroke-linecap:square;stroke-width:1.5;"/>
    <defs>
     <path d="M -5 5 
L 5 5 
L 5 -5 
L -5 -5 
z
" id="m06ed2849e7" style="stroke:#376ff9;stroke-linejoin:miter;"/>
    </defs>
    <g clip-path="url(#pa0b42581d0)">
     <use style="fill:#376ff9;stroke:#376ff9;stroke-linejoin:miter;" x="216.918726" xlink:href="#m06ed2849e7" y="466.339569"/>
    </g>
   </g>
   <g id="line2d_15">
    <path clip-path="url(#pa0b42581d0)" d="M 244.55817 231.713976 
" style="fill:none;stroke:#d62728;stroke-linecap:square;stroke-width:1.5;"/>
    <defs>
     <path d="M 0 -5 
L -4.755283 -1.545085 
L -2.938926 4.045085 
L 2.938926 4.045085 
L 4.755283 -1.545085 
z
" id="mc5a8a3a351" style="stroke:#376ff9;stroke-linejoin:miter;"/>
    </defs>
    <g clip-path="url(#pa0b42581d0)">
     <use style="fill:#376ff9;stroke:#376ff9;stroke-linejoin:miter;" x="244.55817" xlink:href="#mc5a8a3a351" y="231.713976"/>
    </g>
   </g>
   <g id="line2d_16">
    <path clip-path="url(#pa0b42581d0)" d="M 184.757392 278.134915 
" style="fill:none;stroke:#9467bd;stroke-linecap:square;stroke-width:1.5;"/>
    <defs>
     <path d="M -5 5 
L 5 5 
L 5 -5 
L -5 -5 
z
" id="m16da8d733b" style="stroke:#12c7e6;stroke-linejoin:miter;"/>
    </defs>
    <g clip-path="url(#pa0b42581d0)">
     <use style="fill:#12c7e6;stroke:#12c7e6;stroke-linejoin:miter;" x="184.757392" xlink:href="#m16da8d733b" y="278.134915"/>
    </g>
   </g>
   <g id="line2d_17">
    <path clip-path="url(#pa0b42581d0)" d="M 471.559974 209.324341 
" style="fill:none;stroke:#8c564b;stroke-linecap:square;stroke-width:1.5;"/>
    <defs>
     <path d="M 0 -5 
L -4.755283 -1.545085 
L -2.938926 4.045085 
L 2.938926 4.045085 
L 4.755283 -1.545085 
z
" id="m793b83e3ac" style="stroke:#12c7e6;stroke-linejoin:miter;"/>
    </defs>
    <g clip-path="url(#pa0b42581d0)">
     <use style="fill:#12c7e6;stroke:#12c7e6;stroke-linejoin:miter;" x="471.559974" xlink:href="#m793b83e3ac" y="209.324341"/>
    </g>
   </g>
   <g id="line2d_18">
    <path clip-path="url(#pa0b42581d0)" d="M 143.068619 421.711381 
" style="fill:none;stroke:#e377c2;stroke-linecap:square;stroke-width:1.5;"/>
    <defs>
     <path d="M -5 5 
L 5 5 
L 5 -5 
L -5 -5 
z
" id="mfc9e36ec00" style="stroke:#5bf9c7;stroke-linejoin:miter;"/>
    </defs>
    <g clip-path="url(#pa0b42581d0)">
     <use style="fill:#5bf9c7;stroke:#5bf9c7;stroke-linejoin:miter;" x="143.068619" xlink:href="#mfc9e36ec00" y="421.711381"/>
    </g>
   </g>
   <g id="line2d_19">
    <path clip-path="url(#pa0b42581d0)" d="M 333.943144 342.736706 
" style="fill:none;stroke:#7f7f7f;stroke-linecap:square;stroke-width:1.5;"/>
    <defs>
     <path d="M 0 -5 
L -4.755283 -1.545085 
L -2.938926 4.045085 
L 2.938926 4.045085 
L 4.755283 -1.545085 
z
" id="m22b2fdf8be" style="stroke:#5bf9c7;stroke-linejoin:miter;"/>
    </defs>
    <g clip-path="url(#pa0b42581d0)">
     <use style="fill:#5bf9c7;stroke:#5bf9c7;stroke-linejoin:miter;" x="333.943144" xlink:href="#m22b2fdf8be" y="342.736706"/>
    </g>
   </g>
   <g id="line2d_20">
    <path clip-path="url(#pa0b42581d0)" d="M 416.403673 146.645016 
" style="fill:none;stroke:#bcbd22;stroke-linecap:square;stroke-width:1.5;"/>
    <defs>
     <path d="M -5 5 
L 5 5 
L 5 -5 
L -5 -5 
z
" id="m397ab7f47f" style="stroke:#a4f99f;stroke-linejoin:miter;"/>
    </defs>
    <g clip-path="url(#pa0b42581d0)">
     <use style="fill:#a4f99f;stroke:#a4f99f;stroke-linejoin:miter;" x="416.403673" xlink:href="#m397ab7f47f" y="146.645016"/>
    </g>
   </g>
   <g id="line2d_21">
    <path clip-path="url(#pa0b42581d0)" d="M 257.162084 273.34215 
" style="fill:none;stroke:#17becf;stroke-linecap:square;stroke-width:1.5;"/>
    <defs>
     <path d="M 0 -5 
L -4.755283 -1.545085 
L -2.938926 4.045085 
L 2.938926 4.045085 
L 4.755283 -1.545085 
z
" id="m6011646901" style="stroke:#a4f99f;stroke-linejoin:miter;"/>
    </defs>
    <g clip-path="url(#pa0b42581d0)">
     <use style="fill:#a4f99f;stroke:#a4f99f;stroke-linejoin:miter;" x="257.162084" xlink:href="#m6011646901" y="273.34215"/>
    </g>
   </g>
   <g id="line2d_22">
    <path clip-path="url(#pa0b42581d0)" d="M 180.367402 116.069411 
" style="fill:none;stroke:#1f77b4;stroke-linecap:square;stroke-width:1.5;"/>
    <defs>
     <path d="M -5 5 
L 5 5 
L 5 -5 
L -5 -5 
z
" id="mba108c56c3" style="stroke:#edc76f;stroke-linejoin:miter;"/>
    </defs>
    <g clip-path="url(#pa0b42581d0)">
     <use style="fill:#edc76f;stroke:#edc76f;stroke-linejoin:miter;" x="180.367402" xlink:href="#mba108c56c3" y="116.069411"/>
    </g>
   </g>
   <g id="line2d_23">
    <path clip-path="url(#pa0b42581d0)" d="M 425.099706 296.992755 
" style="fill:none;stroke:#ff7f0e;stroke-linecap:square;stroke-width:1.5;"/>
    <defs>
     <path d="M 0 -5 
L -4.755283 -1.545085 
L -2.938926 4.045085 
L 2.938926 4.045085 
L 4.755283 -1.545085 
z
" id="ma47d767452" style="stroke:#edc76f;stroke-linejoin:miter;"/>
    </defs>
    <g clip-path="url(#pa0b42581d0)">
     <use style="fill:#edc76f;stroke:#edc76f;stroke-linejoin:miter;" x="425.099706" xlink:href="#ma47d767452" y="296.992755"/>
    </g>
   </g>
   <g id="line2d_24">
    <path clip-path="url(#pa0b42581d0)" d="M 268.914818 436.897048 
" style="fill:none;stroke:#2ca02c;stroke-linecap:square;stroke-width:1.5;"/>
    <defs>
     <path d="M -5 5 
L 5 5 
L 5 -5 
L -5 -5 
z
" id="m828a14d588" style="stroke:#ff6f39;stroke-linejoin:miter;"/>
    </defs>
    <g clip-path="url(#pa0b42581d0)">
     <use style="fill:#ff6f39;stroke:#ff6f39;stroke-linejoin:miter;" x="268.914818" xlink:href="#m828a14d588" y="436.897048"/>
    </g>
   </g>
   <g id="line2d_25">
    <path clip-path="url(#pa0b42581d0)" d="M 359.090252 174.061747 
" style="fill:none;stroke:#d62728;stroke-linecap:square;stroke-width:1.5;"/>
    <defs>
     <path d="M 0 -5 
L -4.755283 -1.545085 
L -2.938926 4.045085 
L 2.938926 4.045085 
L 4.755283 -1.545085 
z
" id="md58d30ef1e" style="stroke:#ff6f39;stroke-linejoin:miter;"/>
    </defs>
    <g clip-path="url(#pa0b42581d0)">
     <use style="fill:#ff6f39;stroke:#ff6f39;stroke-linejoin:miter;" x="359.090252" xlink:href="#md58d30ef1e" y="174.061747"/>
    </g>
   </g>
   <g id="line2d_26">
    <path clip-path="url(#pa0b42581d0)" d="M 270.046388 317.530702 
" style="fill:none;stroke:#9467bd;stroke-linecap:square;stroke-width:1.5;"/>
    <defs>
     <path d="M -5 5 
L 5 5 
L 5 -5 
L -5 -5 
z
" id="md6d9018bda" style="stroke:#ff0000;stroke-linejoin:miter;"/>
    </defs>
    <g clip-path="url(#pa0b42581d0)">
     <use style="fill:#ff0000;stroke:#ff0000;stroke-linejoin:miter;" x="270.046388" xlink:href="#md6d9018bda" y="317.530702"/>
    </g>
   </g>
   <g id="line2d_27">
    <path clip-path="url(#pa0b42581d0)" d="M 473.449949 443.378657 
" style="fill:none;stroke:#8c564b;stroke-linecap:square;stroke-width:1.5;"/>
    <defs>
     <path d="M 0 -5 
L -4.755283 -1.545085 
L -2.938926 4.045085 
L 2.938926 4.045085 
L 4.755283 -1.545085 
z
" id="md3448aa88f" style="stroke:#ff0000;stroke-linejoin:miter;"/>
    </defs>
    <g clip-path="url(#pa0b42581d0)">
     <use style="fill:#ff0000;stroke:#ff0000;stroke-linejoin:miter;" x="473.449949" xlink:href="#md3448aa88f" y="443.378657"/>
    </g>
   </g>
   <g id="line2d_28">
    <defs>
     <path d="M 0 2.5 
C 0.663008 2.5 1.29895 2.236584 1.767767 1.767767 
C 2.236584 1.29895 2.5 0.663008 2.5 0 
C 2.5 -0.663008 2.236584 -1.29895 1.767767 -1.767767 
C 1.29895 -2.236584 0.663008 -2.5 0 -2.5 
C -0.663008 -2.5 -1.29895 -2.236584 -1.767767 -1.767767 
C -2.236584 -1.29895 -2.5 -0.663008 -2.5 0 
C -2.5 0.663008 -2.236584 1.29895 -1.767767 1.767767 
C -1.29895 2.236584 -0.663008 2.5 0 2.5 
z
" id="m96a4bb9250" style="stroke:#000000;"/>
    </defs>
    <g clip-path="url(#pa0b42581d0)">
     <use style="stroke:#000000;" x="310.097344" xlink:href="#m96a4bb9250" y="112.845867"/>
     <use style="stroke:#000000;" x="365.76681" xlink:href="#m96a4bb9250" y="426.221572"/>
     <use style="stroke:#000000;" x="367.583142" xlink:href="#m96a4bb9250" y="258.614609"/>
     <use style="stroke:#000000;" x="136.120784" xlink:href="#m96a4bb9250" y="292.181651"/>
     <use style="stroke:#000000;" x="262.359287" xlink:href="#m96a4bb9250" y="380.068615"/>
     <use style="stroke:#000000;" x="238.313169" xlink:href="#m96a4bb9250" y="367.051038"/>
     <use style="stroke:#000000;" x="363.155194" xlink:href="#m96a4bb9250" y="281.546806"/>
     <use style="stroke:#000000;" x="175.232862" xlink:href="#m96a4bb9250" y="376.941132"/>
     <use style="stroke:#000000;" x="186.955612" xlink:href="#m96a4bb9250" y="349.426213"/>
     <use style="stroke:#000000;" x="164.390765" xlink:href="#m96a4bb9250" y="181.613262"/>
     <use style="stroke:#000000;" x="196.377253" xlink:href="#m96a4bb9250" y="199.403899"/>
     <use style="stroke:#000000;" x="389.271555" xlink:href="#m96a4bb9250" y="457.087152"/>
     <use style="stroke:#000000;" x="180.992483" xlink:href="#m96a4bb9250" y="159.873416"/>
     <use style="stroke:#000000;" x="459.763794" xlink:href="#m96a4bb9250" y="323.596744"/>
     <use style="stroke:#000000;" x="289.562431" xlink:href="#m96a4bb9250" y="211.571696"/>
    </g>
   </g>
   <g id="line2d_29">
    <path clip-path="url(#pa0b42581d0)" d="M 326.330071 112.845867 
L 325.450538 107.575109 
L 322.907247 102.87552 
L 318.975804 99.256372 
L 314.082243 97.109857 
L 308.756856 96.668583 
L 303.576732 97.980368 
L 299.103217 100.903061 
L 295.821087 105.119943 
L 294.08601 110.174048 
L 294.08601 115.517686 
L 295.821087 120.571791 
L 299.103217 124.788673 
L 303.576732 127.711366 
L 308.756856 129.023151 
L 314.082243 128.581877 
L 318.975804 126.435362 
L 322.907247 122.816214 
L 325.450538 118.116625 
L 326.330071 112.845867 
" style="fill:none;stroke:#000000;stroke-dasharray:5.55,2.4;stroke-dashoffset:0;stroke-width:1.5;"/>
   </g>
   <g id="line2d_30">
    <path clip-path="url(#pa0b42581d0)" d="M 314.561344 112.845867 
L 314.319472 111.396409 
L 313.620067 110.104021 
L 312.538921 109.108756 
L 311.193191 108.518464 
L 309.72871 108.397114 
L 308.304176 108.757855 
L 307.073959 109.561595 
L 306.171373 110.721238 
L 305.694227 112.111117 
L 305.694227 113.580617 
L 306.171373 114.970496 
L 307.073959 116.130139 
L 308.304176 116.933879 
L 309.72871 117.29462 
L 311.193191 117.17327 
L 312.538921 116.582978 
L 313.620067 115.587713 
L 314.319472 114.295325 
L 314.561344 112.845867 
" style="fill:none;stroke:#ff0000;stroke-linecap:square;stroke-width:1.5;"/>
   </g>
   <g id="line2d_31">
    <path clip-path="url(#pa0b42581d0)" d="M 381.999538 426.221572 
L 381.120004 420.950814 
L 378.576713 416.251225 
L 374.645271 412.632077 
L 369.751709 410.485562 
L 364.426322 410.044288 
L 359.246198 411.356074 
L 354.772683 414.278767 
L 351.490553 418.495648 
L 349.755476 423.549753 
L 349.755476 428.893391 
L 351.490553 433.947497 
L 354.772683 438.164378 
L 359.246198 441.087071 
L 364.426322 442.398857 
L 369.751709 441.957583 
L 374.645271 439.811067 
L 378.576713 436.19192 
L 381.120004 431.49233 
L 381.999538 426.221572 
" style="fill:none;stroke:#000000;stroke-dasharray:5.55,2.4;stroke-dashoffset:0;stroke-width:1.5;"/>
   </g>
   <g id="line2d_32">
    <path clip-path="url(#pa0b42581d0)" d="M 370.23081 426.221572 
L 369.988939 424.772114 
L 369.289534 423.479727 
L 368.208387 422.484461 
L 366.862658 421.89417 
L 365.398176 421.772819 
L 363.973642 422.13356 
L 362.743425 422.937301 
L 361.84084 424.096943 
L 361.363694 425.486822 
L 361.363694 426.956323 
L 361.84084 428.346202 
L 362.743425 429.505844 
L 363.973642 430.309584 
L 365.398176 430.670326 
L 366.862658 430.548975 
L 368.208387 429.958684 
L 369.289534 428.963418 
L 369.988939 427.671031 
L 370.23081 426.221572 
" style="fill:none;stroke:#ff0000;stroke-linecap:square;stroke-width:1.5;"/>
   </g>
   <g id="line2d_33">
    <path clip-path="url(#pa0b42581d0)" d="M 383.81587 258.614609 
L 382.936336 253.343851 
L 380.393045 248.644261 
L 376.461603 245.025114 
L 371.568041 242.878599 
L 366.242654 242.437325 
L 361.06253 243.74911 
L 356.589015 246.671803 
L 353.306885 250.888685 
L 351.571808 255.94279 
L 351.571808 261.286428 
L 353.306885 266.340533 
L 356.589015 270.557414 
L 361.06253 273.480108 
L 366.242654 274.791893 
L 371.568041 274.350619 
L 376.461603 272.204104 
L 380.393045 268.584956 
L 382.936336 263.885367 
L 383.81587 258.614609 
" style="fill:none;stroke:#000000;stroke-dasharray:5.55,2.4;stroke-dashoffset:0;stroke-width:1.5;"/>
   </g>
   <g id="line2d_34">
    <path clip-path="url(#pa0b42581d0)" d="M 372.047142 258.614609 
L 371.805271 257.16515 
L 371.105866 255.872763 
L 370.024719 254.877498 
L 368.67899 254.287206 
L 367.214508 254.165856 
L 365.789974 254.526597 
L 364.559757 255.330337 
L 363.657172 256.48998 
L 363.180026 257.879859 
L 363.180026 259.349359 
L 363.657172 260.739238 
L 364.559757 261.89888 
L 365.789974 262.702621 
L 367.214508 263.063362 
L 368.67899 262.942012 
L 370.024719 262.35172 
L 371.105866 261.356454 
L 371.805271 260.064067 
L 372.047142 258.614609 
" style="fill:none;stroke:#ff0000;stroke-linecap:square;stroke-width:1.5;"/>
   </g>
   <g id="line2d_35">
    <path clip-path="url(#pa0b42581d0)" d="M 152.353511 292.181651 
L 151.473977 286.910894 
L 148.930687 282.211304 
L 144.999244 278.592156 
L 140.105683 276.445641 
L 134.780296 276.004367 
L 129.600172 277.316153 
L 125.126657 280.238846 
L 121.844527 284.455727 
L 120.10945 289.509832 
L 120.10945 294.853471 
L 121.844527 299.907576 
L 125.126657 304.124457 
L 129.600172 307.04715 
L 134.780296 308.358936 
L 140.105683 307.917662 
L 144.999244 305.771147 
L 148.930687 302.151999 
L 151.473977 297.452409 
L 152.353511 292.181651 
" style="fill:none;stroke:#000000;stroke-dasharray:5.55,2.4;stroke-dashoffset:0;stroke-width:1.5;"/>
   </g>
   <g id="line2d_36">
    <path clip-path="url(#pa0b42581d0)" d="M 140.584784 292.181651 
L 140.342912 290.732193 
L 139.643507 289.439806 
L 138.562361 288.44454 
L 137.216631 287.854249 
L 135.75215 287.732898 
L 134.327616 288.093639 
L 133.097399 288.89738 
L 132.194813 290.057022 
L 131.717667 291.446901 
L 131.717667 292.916402 
L 132.194813 294.306281 
L 133.097399 295.465923 
L 134.327616 296.269664 
L 135.75215 296.630405 
L 137.216631 296.509054 
L 138.562361 295.918763 
L 139.643507 294.923497 
L 140.342912 293.63111 
L 140.584784 292.181651 
" style="fill:none;stroke:#ff0000;stroke-linecap:square;stroke-width:1.5;"/>
   </g>
   <g id="line2d_37">
    <path clip-path="url(#pa0b42581d0)" d="M 278.592014 380.068615 
L 277.71248 374.797857 
L 275.169189 370.098268 
L 271.237747 366.47912 
L 266.344186 364.332605 
L 261.018799 363.891331 
L 255.838674 365.203116 
L 251.36516 368.125809 
L 248.083029 372.342691 
L 246.347953 377.396796 
L 246.347953 382.740434 
L 248.083029 387.794539 
L 251.36516 392.011421 
L 255.838674 394.934114 
L 261.018799 396.245899 
L 266.344186 395.804625 
L 271.237747 393.65811 
L 275.169189 390.038962 
L 277.71248 385.339373 
L 278.592014 380.068615 
" style="fill:none;stroke:#000000;stroke-dasharray:5.55,2.4;stroke-dashoffset:0;stroke-width:1.5;"/>
   </g>
   <g id="line2d_38">
    <path clip-path="url(#pa0b42581d0)" d="M 266.823287 380.068615 
L 266.581415 378.619157 
L 265.88201 377.326769 
L 264.800863 376.331504 
L 263.455134 375.741212 
L 261.990652 375.619862 
L 260.566118 375.980603 
L 259.335902 376.784343 
L 258.433316 377.943986 
L 257.95617 379.333865 
L 257.95617 380.803365 
L 258.433316 382.193244 
L 259.335902 383.352887 
L 260.566118 384.156627 
L 261.990652 384.517368 
L 263.455134 384.396018 
L 264.800863 383.805726 
L 265.88201 382.810461 
L 266.581415 381.518073 
L 266.823287 380.068615 
" style="fill:none;stroke:#ff0000;stroke-linecap:square;stroke-width:1.5;"/>
   </g>
   <g id="line2d_39">
    <path clip-path="url(#pa0b42581d0)" d="M 254.545896 367.051038 
L 253.666362 361.78028 
L 251.123071 357.080691 
L 247.191629 353.461543 
L 242.298068 351.315028 
L 236.972681 350.873754 
L 231.792556 352.18554 
L 227.319042 355.108233 
L 224.036911 359.325114 
L 222.301835 364.379219 
L 222.301835 369.722857 
L 224.036911 374.776962 
L 227.319042 378.993844 
L 231.792556 381.916537 
L 236.972681 383.228322 
L 242.298068 382.787048 
L 247.191629 380.640533 
L 251.123071 377.021386 
L 253.666362 372.321796 
L 254.545896 367.051038 
" style="fill:none;stroke:#000000;stroke-dasharray:5.55,2.4;stroke-dashoffset:0;stroke-width:1.5;"/>
   </g>
   <g id="line2d_40">
    <path clip-path="url(#pa0b42581d0)" d="M 242.777169 367.051038 
L 242.535297 365.60158 
L 241.835892 364.309193 
L 240.754745 363.313927 
L 239.409016 362.723635 
L 237.944534 362.602285 
L 236.52 362.963026 
L 235.289784 363.766767 
L 234.387198 364.926409 
L 233.910052 366.316288 
L 233.910052 367.785788 
L 234.387198 369.175667 
L 235.289784 370.33531 
L 236.52 371.13905 
L 237.944534 371.499791 
L 239.409016 371.378441 
L 240.754745 370.788149 
L 241.835892 369.792884 
L 242.535297 368.500497 
L 242.777169 367.051038 
" style="fill:none;stroke:#ff0000;stroke-linecap:square;stroke-width:1.5;"/>
   </g>
   <g id="line2d_41">
    <path clip-path="url(#pa0b42581d0)" d="M 379.387922 281.546806 
L 378.508388 276.276048 
L 375.965097 271.576458 
L 372.033655 267.957311 
L 367.140093 265.810796 
L 361.814706 265.369522 
L 356.634582 266.681307 
L 352.161067 269.604 
L 348.878937 273.820882 
L 347.14386 278.874987 
L 347.14386 284.218625 
L 348.878937 289.27273 
L 352.161067 293.489611 
L 356.634582 296.412305 
L 361.814706 297.72409 
L 367.140093 297.282816 
L 372.033655 295.136301 
L 375.965097 291.517153 
L 378.508388 286.817564 
L 379.387922 281.546806 
" style="fill:none;stroke:#000000;stroke-dasharray:5.55,2.4;stroke-dashoffset:0;stroke-width:1.5;"/>
   </g>
   <g id="line2d_42">
    <path clip-path="url(#pa0b42581d0)" d="M 367.619194 281.546806 
L 367.377323 280.097347 
L 366.677918 278.80496 
L 365.596771 277.809695 
L 364.251042 277.219403 
L 362.78656 277.098053 
L 361.362026 277.458794 
L 360.131809 278.262534 
L 359.229224 279.422177 
L 358.752078 280.812056 
L 358.752078 282.281556 
L 359.229224 283.671435 
L 360.131809 284.831077 
L 361.362026 285.634818 
L 362.78656 285.995559 
L 364.251042 285.874209 
L 365.596771 285.283917 
L 366.677918 284.288651 
L 367.377323 282.996264 
L 367.619194 281.546806 
" style="fill:none;stroke:#ff0000;stroke-linecap:square;stroke-width:1.5;"/>
   </g>
   <g id="line2d_43">
    <path clip-path="url(#pa0b42581d0)" d="M 191.465589 376.941132 
L 190.586055 371.670374 
L 188.042765 366.970785 
L 184.111322 363.351637 
L 179.217761 361.205122 
L 173.892374 360.763848 
L 168.71225 362.075633 
L 164.238735 364.998326 
L 160.956605 369.215208 
L 159.221528 374.269313 
L 159.221528 379.612951 
L 160.956605 384.667056 
L 164.238735 388.883938 
L 168.71225 391.806631 
L 173.892374 393.118416 
L 179.217761 392.677142 
L 184.111322 390.530627 
L 188.042765 386.911479 
L 190.586055 382.21189 
L 191.465589 376.941132 
" style="fill:none;stroke:#000000;stroke-dasharray:5.55,2.4;stroke-dashoffset:0;stroke-width:1.5;"/>
   </g>
   <g id="line2d_44">
    <path clip-path="url(#pa0b42581d0)" d="M 179.696862 376.941132 
L 179.45499 375.491674 
L 178.755585 374.199286 
L 177.674439 373.204021 
L 176.328709 372.613729 
L 174.864228 372.492379 
L 173.439694 372.85312 
L 172.209477 373.65686 
L 171.306891 374.816503 
L 170.829745 376.206382 
L 170.829745 377.675882 
L 171.306891 379.065761 
L 172.209477 380.225403 
L 173.439694 381.029144 
L 174.864228 381.389885 
L 176.328709 381.268535 
L 177.674439 380.678243 
L 178.755585 379.682978 
L 179.45499 378.39059 
L 179.696862 376.941132 
" style="fill:none;stroke:#ff0000;stroke-linecap:square;stroke-width:1.5;"/>
   </g>
   <g id="line2d_45">
    <path clip-path="url(#pa0b42581d0)" d="M 203.18834 349.426213 
L 202.308806 344.155455 
L 199.765515 339.455865 
L 195.834073 335.836718 
L 190.940511 333.690203 
L 185.615124 333.248929 
L 180.435 334.560714 
L 175.961485 337.483407 
L 172.679355 341.700289 
L 170.944278 346.754394 
L 170.944278 352.098032 
L 172.679355 357.152137 
L 175.961485 361.369018 
L 180.435 364.291712 
L 185.615124 365.603497 
L 190.940511 365.162223 
L 195.834073 363.015708 
L 199.765515 359.39656 
L 202.308806 354.696971 
L 203.18834 349.426213 
" style="fill:none;stroke:#000000;stroke-dasharray:5.55,2.4;stroke-dashoffset:0;stroke-width:1.5;"/>
   </g>
   <g id="line2d_46">
    <path clip-path="url(#pa0b42581d0)" d="M 191.419612 349.426213 
L 191.177741 347.976754 
L 190.478336 346.684367 
L 189.397189 345.689102 
L 188.05146 345.09881 
L 186.586978 344.97746 
L 185.162444 345.338201 
L 183.932228 346.141941 
L 183.029642 347.301584 
L 182.552496 348.691463 
L 182.552496 350.160963 
L 183.029642 351.550842 
L 183.932228 352.710484 
L 185.162444 353.514225 
L 186.586978 353.874966 
L 188.05146 353.753616 
L 189.397189 353.163324 
L 190.478336 352.168058 
L 191.177741 350.875671 
L 191.419612 349.426213 
" style="fill:none;stroke:#ff0000;stroke-linecap:square;stroke-width:1.5;"/>
   </g>
   <g id="line2d_47">
    <path clip-path="url(#pa0b42581d0)" d="M 180.623492 181.613262 
L 179.743958 176.342504 
L 177.200668 171.642915 
L 173.269225 168.023767 
L 168.375664 165.877252 
L 163.050277 165.435978 
L 157.870153 166.747763 
L 153.396638 169.670457 
L 150.114508 173.887338 
L 148.379431 178.941443 
L 148.379431 184.285081 
L 150.114508 189.339186 
L 153.396638 193.556068 
L 157.870153 196.478761 
L 163.050277 197.790546 
L 168.375664 197.349272 
L 173.269225 195.202757 
L 177.200668 191.58361 
L 179.743958 186.88402 
L 180.623492 181.613262 
" style="fill:none;stroke:#000000;stroke-dasharray:5.55,2.4;stroke-dashoffset:0;stroke-width:1.5;"/>
   </g>
   <g id="line2d_48">
    <path clip-path="url(#pa0b42581d0)" d="M 168.854765 181.613262 
L 168.612893 180.163804 
L 167.913488 178.871417 
L 166.832342 177.876151 
L 165.486612 177.285859 
L 164.022131 177.164509 
L 162.597597 177.52525 
L 161.36738 178.328991 
L 160.464794 179.488633 
L 159.987648 180.878512 
L 159.987648 182.348012 
L 160.464794 183.737891 
L 161.36738 184.897534 
L 162.597597 185.701274 
L 164.022131 186.062015 
L 165.486612 185.940665 
L 166.832342 185.350373 
L 167.913488 184.355108 
L 168.612893 183.062721 
L 168.854765 181.613262 
" style="fill:none;stroke:#ff0000;stroke-linecap:square;stroke-width:1.5;"/>
   </g>
   <g id="line2d_49">
    <path clip-path="url(#pa0b42581d0)" d="M 212.609981 199.403899 
L 211.730447 194.133141 
L 209.187156 189.433551 
L 205.255714 185.814403 
L 200.362152 183.667888 
L 195.036765 183.226614 
L 189.856641 184.5384 
L 185.383126 187.461093 
L 182.100996 191.677974 
L 180.365919 196.732079 
L 180.365919 202.075718 
L 182.100996 207.129823 
L 185.383126 211.346704 
L 189.856641 214.269397 
L 195.036765 215.581183 
L 200.362152 215.139909 
L 205.255714 212.993394 
L 209.187156 209.374246 
L 211.730447 204.674656 
L 212.609981 199.403899 
" style="fill:none;stroke:#000000;stroke-dasharray:5.55,2.4;stroke-dashoffset:0;stroke-width:1.5;"/>
   </g>
   <g id="line2d_50">
    <path clip-path="url(#pa0b42581d0)" d="M 200.841253 199.403899 
L 200.599382 197.95444 
L 199.899977 196.662053 
L 198.81883 195.666787 
L 197.473101 195.076496 
L 196.008619 194.955145 
L 194.584085 195.315886 
L 193.353868 196.119627 
L 192.451283 197.279269 
L 191.974136 198.669148 
L 191.974136 200.138649 
L 192.451283 201.528528 
L 193.353868 202.68817 
L 194.584085 203.491911 
L 196.008619 203.852652 
L 197.473101 203.731301 
L 198.81883 203.14101 
L 199.899977 202.145744 
L 200.599382 200.853357 
L 200.841253 199.403899 
" style="fill:none;stroke:#ff0000;stroke-linecap:square;stroke-width:1.5;"/>
   </g>
   <g id="line2d_51">
    <path clip-path="url(#pa0b42581d0)" d="M 405.504282 457.087152 
L 404.624749 451.816394 
L 402.081458 447.116805 
L 398.150016 443.497657 
L 393.256454 441.351142 
L 387.931067 440.909868 
L 382.750943 442.221653 
L 378.277428 445.144346 
L 374.995298 449.361228 
L 373.260221 454.415333 
L 373.260221 459.758971 
L 374.995298 464.813076 
L 378.277428 469.029958 
L 382.750943 471.952651 
L 387.931067 473.264436 
L 393.256454 472.823162 
L 398.150016 470.676647 
L 402.081458 467.0575 
L 404.624749 462.35791 
L 405.504282 457.087152 
" style="fill:none;stroke:#000000;stroke-dasharray:5.55,2.4;stroke-dashoffset:0;stroke-width:1.5;"/>
   </g>
   <g id="line2d_52">
    <path clip-path="url(#pa0b42581d0)" d="M 393.735555 457.087152 
L 393.493683 455.637694 
L 392.794278 454.345307 
L 391.713132 453.350041 
L 390.367402 452.759749 
L 388.902921 452.638399 
L 387.478387 452.99914 
L 386.24817 453.802881 
L 385.345584 454.962523 
L 384.868438 456.352402 
L 384.868438 457.821902 
L 385.345584 459.211781 
L 386.24817 460.371424 
L 387.478387 461.175164 
L 388.902921 461.535905 
L 390.367402 461.414555 
L 391.713132 460.824263 
L 392.794278 459.828998 
L 393.493683 458.536611 
L 393.735555 457.087152 
" style="fill:none;stroke:#ff0000;stroke-linecap:square;stroke-width:1.5;"/>
   </g>
   <g id="line2d_53">
    <path clip-path="url(#pa0b42581d0)" d="M 197.22521 159.873416 
L 196.345676 154.602659 
L 193.802385 149.903069 
L 189.870943 146.283921 
L 184.977382 144.137406 
L 179.651995 143.696132 
L 174.47187 145.007918 
L 169.998356 147.930611 
L 166.716225 152.147492 
L 164.981149 157.201597 
L 164.981149 162.545236 
L 166.716225 167.599341 
L 169.998356 171.816222 
L 174.47187 174.738915 
L 179.651995 176.050701 
L 184.977382 175.609427 
L 189.870943 173.462912 
L 193.802385 169.843764 
L 196.345676 165.144174 
L 197.22521 159.873416 
" style="fill:none;stroke:#000000;stroke-dasharray:5.55,2.4;stroke-dashoffset:0;stroke-width:1.5;"/>
   </g>
   <g id="line2d_54">
    <path clip-path="url(#pa0b42581d0)" d="M 185.456483 159.873416 
L 185.214611 158.423958 
L 184.515206 157.131571 
L 183.434059 156.136305 
L 182.08833 155.546014 
L 180.623848 155.424663 
L 179.199314 155.785404 
L 177.969098 156.589145 
L 177.066512 157.748787 
L 176.589366 159.138666 
L 176.589366 160.608167 
L 177.066512 161.998046 
L 177.969098 163.157688 
L 179.199314 163.961429 
L 180.623848 164.32217 
L 182.08833 164.200819 
L 183.434059 163.610528 
L 184.515206 162.615262 
L 185.214611 161.322875 
L 185.456483 159.873416 
" style="fill:none;stroke:#ff0000;stroke-linecap:square;stroke-width:1.5;"/>
   </g>
   <g id="line2d_55">
    <path clip-path="url(#pa0b42581d0)" d="M 475.996521 323.596744 
L 475.116987 318.325987 
L 472.573697 313.626397 
L 468.642254 310.007249 
L 463.748693 307.860734 
L 458.423306 307.41946 
L 453.243182 308.731246 
L 448.769667 311.653939 
L 445.487536 315.87082 
L 443.75246 320.924925 
L 443.75246 326.268564 
L 445.487536 331.322669 
L 448.769667 335.53955 
L 453.243182 338.462243 
L 458.423306 339.774029 
L 463.748693 339.332755 
L 468.642254 337.18624 
L 472.573697 333.567092 
L 475.116987 328.867502 
L 475.996521 323.596744 
" style="fill:none;stroke:#000000;stroke-dasharray:5.55,2.4;stroke-dashoffset:0;stroke-width:1.5;"/>
   </g>
   <g id="line2d_56">
    <path clip-path="url(#pa0b42581d0)" d="M 464.227794 323.596744 
L 463.985922 322.147286 
L 463.286517 320.854899 
L 462.205371 319.859633 
L 460.859641 319.269342 
L 459.39516 319.147991 
L 457.970626 319.508732 
L 456.740409 320.312473 
L 455.837823 321.472115 
L 455.360677 322.861994 
L 455.360677 324.331495 
L 455.837823 325.721374 
L 456.740409 326.881016 
L 457.970626 327.684757 
L 459.39516 328.045498 
L 460.859641 327.924147 
L 462.205371 327.333856 
L 463.286517 326.33859 
L 463.985922 325.046203 
L 464.227794 323.596744 
" style="fill:none;stroke:#ff0000;stroke-linecap:square;stroke-width:1.5;"/>
   </g>
   <g id="line2d_57">
    <path clip-path="url(#pa0b42581d0)" d="M 305.795158 211.571696 
L 304.915624 206.300938 
L 302.372334 201.601349 
L 298.440891 197.982201 
L 293.54733 195.835686 
L 288.221943 195.394412 
L 283.041819 196.706197 
L 278.568304 199.62889 
L 275.286173 203.845772 
L 273.551097 208.899877 
L 273.551097 214.243515 
L 275.286173 219.29762 
L 278.568304 223.514502 
L 283.041819 226.437195 
L 288.221943 227.74898 
L 293.54733 227.307706 
L 298.440891 225.161191 
L 302.372334 221.542043 
L 304.915624 216.842454 
L 305.795158 211.571696 
" style="fill:none;stroke:#000000;stroke-dasharray:5.55,2.4;stroke-dashoffset:0;stroke-width:1.5;"/>
   </g>
   <g id="line2d_58">
    <path clip-path="url(#pa0b42581d0)" d="M 294.026431 211.571696 
L 293.784559 210.122238 
L 293.085154 208.82985 
L 292.004007 207.834585 
L 290.658278 207.244293 
L 289.193797 207.122943 
L 287.769262 207.483684 
L 286.539046 208.287424 
L 285.63646 209.447067 
L 285.159314 210.836946 
L 285.159314 212.306446 
L 285.63646 213.696325 
L 286.539046 214.855968 
L 287.769262 215.659708 
L 289.193797 216.020449 
L 290.658278 215.899099 
L 292.004007 215.308807 
L 293.085154 214.313542 
L 293.784559 213.021154 
L 294.026431 211.571696 
" style="fill:none;stroke:#ff0000;stroke-linecap:square;stroke-width:1.5;"/>
   </g>
   <g id="line2d_59">
    <path clip-path="url(#pa0b42581d0)" d="M 92.290909 493.789091 
L 92.290909 87.970909 
" style="fill:none;stroke:#000000;stroke-linecap:square;stroke-width:4;"/>
   </g>
   <g id="line2d_60">
    <path clip-path="url(#pa0b42581d0)" d="M 92.290909 87.970909 
L 498.109091 87.970909 
" style="fill:none;stroke:#000000;stroke-linecap:square;stroke-width:4;"/>
   </g>
   <g id="line2d_61">
    <path clip-path="url(#pa0b42581d0)" d="M 498.109091 87.970909 
L 498.109091 493.789091 
" style="fill:none;stroke:#000000;stroke-linecap:square;stroke-width:4;"/>
   </g>
   <g id="line2d_62">
    <path clip-path="url(#pa0b42581d0)" d="M 498.109091 493.789091 
L 92.290909 493.789091 
" style="fill:none;stroke:#000000;stroke-linecap:square;stroke-width:4;"/>
   </g>
   <g id="patch_3">
    <path d="M 72 512.64 
L 72 69.12 
" style="fill:none;stroke:#000000;stroke-linecap:square;stroke-linejoin:miter;stroke-width:0.8;"/>
   </g>
   <g id="patch_4">
    <path d="M 518.4 512.64 
L 518.4 69.12 
" style="fill:none;stroke:#000000;stroke-linecap:square;stroke-linejoin:miter;stroke-width:0.8;"/>
   </g>
   <g id="patch_5">
    <path d="M 72 512.64 
L 518.4 512.64 
" style="fill:none;stroke:#000000;stroke-linecap:square;stroke-linejoin:miter;stroke-width:0.8;"/>
   </g>
   <g id="patch_6">
    <path d="M 72 69.12 
L 518.4 69.12 
" style="fill:none;stroke:#000000;stroke-linecap:square;stroke-linejoin:miter;stroke-width:0.8;"/>
   </g>
   <g id="text_12">
    <!-- 1 -->
    <defs>
     <path d="M 14.203125 0 
L 14.203125 5.171875 
L 26.90625 5.171875 
L 26.90625 65.828125 
L 12.203125 56.296875 
L 12.203125 62.703125 
L 29.984375 74.21875 
L 36.71875 74.21875 
L 36.71875 5.171875 
L 49.421875 5.171875 
L 49.421875 0 
z
" id="DejaVuSerif-31"/>
    </defs>
    <g transform="translate(127.970034 124.861424)scale(0.1 -0.1)">
     <use xlink:href="#DejaVuSerif-31"/>
    </g>
   </g>
   <g id="text_13">
    <!-- 1 -->
    <g transform="translate(292.443466 252.879602)scale(0.1 -0.1)">
     <use xlink:href="#DejaVuSerif-31"/>
    </g>
   </g>
   <g id="text_14">
    <!-- 2 -->
    <defs>
     <path d="M 12.796875 55.515625 
L 7.328125 55.515625 
L 7.328125 68.5 
Q 12.546875 71.296875 17.84375 72.75 
Q 23.140625 74.21875 28.21875 74.21875 
Q 39.59375 74.21875 46.1875 68.703125 
Q 52.78125 63.1875 52.78125 53.71875 
Q 52.78125 43.015625 37.84375 28.125 
Q 36.671875 27 36.078125 26.421875 
L 17.671875 8.015625 
L 48.09375 8.015625 
L 48.09375 17 
L 53.8125 17 
L 53.8125 0 
L 6.78125 0 
L 6.78125 5.328125 
L 28.90625 27.390625 
Q 36.234375 34.71875 39.359375 40.84375 
Q 42.484375 46.96875 42.484375 53.71875 
Q 42.484375 61.078125 38.640625 65.234375 
Q 34.8125 69.390625 28.078125 69.390625 
Q 21.09375 69.390625 17.28125 65.921875 
Q 13.484375 62.453125 12.796875 55.515625 
z
" id="DejaVuSerif-32"/>
    </defs>
    <g transform="translate(213.737476 466.339569)scale(0.1 -0.1)">
     <use xlink:href="#DejaVuSerif-32"/>
    </g>
   </g>
   <g id="text_15">
    <!-- 2 -->
    <g transform="translate(241.37692 231.713976)scale(0.1 -0.1)">
     <use xlink:href="#DejaVuSerif-32"/>
    </g>
   </g>
   <g id="text_16">
    <!-- 3 -->
    <defs>
     <path d="M 9.71875 69.828125 
Q 15.4375 71.96875 20.671875 73.09375 
Q 25.921875 74.21875 30.515625 74.21875 
Q 41.21875 74.21875 47.21875 69.59375 
Q 53.21875 64.984375 53.21875 56.78125 
Q 53.21875 50.203125 49.0625 45.78125 
Q 44.921875 41.359375 37.3125 39.796875 
Q 46.296875 38.53125 51.25 33.28125 
Q 56.203125 28.03125 56.203125 19.671875 
Q 56.203125 9.46875 49.34375 4.015625 
Q 42.484375 -1.421875 29.59375 -1.421875 
Q 23.875 -1.421875 18.421875 -0.1875 
Q 12.984375 1.03125 7.625 3.515625 
L 7.625 17.671875 
L 13.09375 17.671875 
Q 13.578125 10.640625 17.828125 7.03125 
Q 22.078125 3.421875 29.78125 3.421875 
Q 37.25 3.421875 41.578125 7.734375 
Q 45.90625 12.0625 45.90625 19.578125 
Q 45.90625 28.171875 41.453125 32.59375 
Q 37.015625 37.015625 28.421875 37.015625 
L 23.78125 37.015625 
L 23.78125 42 
L 26.21875 42 
Q 34.765625 42 39.03125 45.53125 
Q 43.3125 49.078125 43.3125 56.203125 
Q 43.3125 62.59375 39.796875 65.984375 
Q 36.28125 69.390625 29.6875 69.390625 
Q 23.09375 69.390625 19.453125 66.265625 
Q 15.828125 63.140625 15.1875 56.984375 
L 9.71875 56.984375 
z
" id="DejaVuSerif-33"/>
    </defs>
    <g transform="translate(181.576142 278.134915)scale(0.1 -0.1)">
     <use xlink:href="#DejaVuSerif-33"/>
    </g>
   </g>
   <g id="text_17">
    <!-- 3 -->
    <g transform="translate(468.378724 209.324341)scale(0.1 -0.1)">
     <use xlink:href="#DejaVuSerif-33"/>
    </g>
   </g>
   <g id="text_18">
    <!-- 4 -->
    <defs>
     <path d="M 34.90625 24.703125 
L 34.90625 63.484375 
L 10.015625 24.703125 
z
M 56.390625 0 
L 23.1875 0 
L 23.1875 5.171875 
L 34.90625 5.171875 
L 34.90625 19.484375 
L 3.078125 19.484375 
L 3.078125 24.8125 
L 35.015625 74.21875 
L 44.671875 74.21875 
L 44.671875 24.703125 
L 58.59375 24.703125 
L 58.59375 19.484375 
L 44.671875 19.484375 
L 44.671875 5.171875 
L 56.390625 5.171875 
z
" id="DejaVuSerif-34"/>
    </defs>
    <g transform="translate(139.887369 421.711381)scale(0.1 -0.1)">
     <use xlink:href="#DejaVuSerif-34"/>
    </g>
   </g>
   <g id="text_19">
    <!-- 4 -->
    <g transform="translate(330.761894 342.736706)scale(0.1 -0.1)">
     <use xlink:href="#DejaVuSerif-34"/>
    </g>
   </g>
   <g id="text_20">
    <!-- 5 -->
    <defs>
     <path d="M 50.296875 72.90625 
L 50.296875 64.890625 
L 16.890625 64.890625 
L 16.890625 44 
Q 19.4375 45.75 22.828125 46.625 
Q 26.21875 47.515625 30.421875 47.515625 
Q 42.234375 47.515625 49.0625 40.96875 
Q 55.90625 34.421875 55.90625 23.09375 
Q 55.90625 11.53125 49 5.046875 
Q 42.09375 -1.421875 29.59375 -1.421875 
Q 24.5625 -1.421875 19.28125 -0.1875 
Q 14.015625 1.03125 8.5 3.515625 
L 8.5 17.671875 
L 14.015625 17.671875 
Q 14.453125 10.75 18.421875 7.078125 
Q 22.40625 3.421875 29.59375 3.421875 
Q 37.3125 3.421875 41.453125 8.5 
Q 45.609375 13.578125 45.609375 23.09375 
Q 45.609375 32.5625 41.484375 37.609375 
Q 37.359375 42.671875 29.59375 42.671875 
Q 25.203125 42.671875 21.84375 41.109375 
Q 18.5 39.546875 15.921875 36.28125 
L 11.71875 36.28125 
L 11.71875 72.90625 
z
" id="DejaVuSerif-35"/>
    </defs>
    <g transform="translate(413.222423 146.645016)scale(0.1 -0.1)">
     <use xlink:href="#DejaVuSerif-35"/>
    </g>
   </g>
   <g id="text_21">
    <!-- 5 -->
    <g transform="translate(253.980834 273.34215)scale(0.1 -0.1)">
     <use xlink:href="#DejaVuSerif-35"/>
    </g>
   </g>
   <g id="text_22">
    <!-- 6 -->
    <defs>
     <path d="M 32.71875 3.421875 
Q 39.59375 3.421875 43.296875 8.46875 
Q 47.015625 13.53125 47.015625 23 
Q 47.015625 32.46875 43.296875 37.515625 
Q 39.59375 42.578125 32.71875 42.578125 
Q 25.734375 42.578125 22.0625 37.6875 
Q 18.40625 32.8125 18.40625 23.578125 
Q 18.40625 13.875 22.109375 8.640625 
Q 25.828125 3.421875 32.71875 3.421875 
z
M 16.796875 40.140625 
Q 20.125 43.796875 24.3125 45.59375 
Q 28.515625 47.40625 33.796875 47.40625 
Q 44.671875 47.40625 51 40.859375 
Q 57.328125 34.328125 57.328125 23 
Q 57.328125 11.921875 50.515625 5.25 
Q 43.703125 -1.421875 32.328125 -1.421875 
Q 19.96875 -1.421875 13.328125 7.78125 
Q 6.6875 17 6.6875 34.078125 
Q 6.6875 53.21875 14.546875 63.71875 
Q 22.40625 74.21875 36.71875 74.21875 
Q 40.578125 74.21875 44.828125 73.484375 
Q 49.078125 72.75 53.515625 71.296875 
L 53.515625 59.28125 
L 48 59.28125 
Q 47.40625 64.203125 44.234375 66.796875 
Q 41.0625 69.390625 35.6875 69.390625 
Q 26.21875 69.390625 21.578125 62.203125 
Q 16.9375 55.03125 16.796875 40.140625 
z
" id="DejaVuSerif-36"/>
    </defs>
    <g transform="translate(177.186152 116.069411)scale(0.1 -0.1)">
     <use xlink:href="#DejaVuSerif-36"/>
    </g>
   </g>
   <g id="text_23">
    <!-- 6 -->
    <g transform="translate(421.918456 296.992755)scale(0.1 -0.1)">
     <use xlink:href="#DejaVuSerif-36"/>
    </g>
   </g>
   <g id="text_24">
    <!-- 7 -->
    <defs>
     <path d="M 56.390625 67.921875 
L 27.875 0 
L 20.609375 0 
L 47.796875 64.890625 
L 14.109375 64.890625 
L 14.109375 55.90625 
L 8.40625 55.90625 
L 8.40625 72.90625 
L 56.390625 72.90625 
z
" id="DejaVuSerif-37"/>
    </defs>
    <g transform="translate(265.733568 436.897048)scale(0.1 -0.1)">
     <use xlink:href="#DejaVuSerif-37"/>
    </g>
   </g>
   <g id="text_25">
    <!-- 7 -->
    <g transform="translate(355.909002 174.061747)scale(0.1 -0.1)">
     <use xlink:href="#DejaVuSerif-37"/>
    </g>
   </g>
   <g id="text_26">
    <!-- 8 -->
    <defs>
     <path d="M 46.578125 19.921875 
Q 46.578125 27.734375 42.6875 32.046875 
Q 38.8125 36.375 31.78125 36.375 
Q 24.75 36.375 20.875 32.046875 
Q 17 27.734375 17 19.921875 
Q 17 12.0625 20.875 7.734375 
Q 24.75 3.421875 31.78125 3.421875 
Q 38.8125 3.421875 42.6875 7.734375 
Q 46.578125 12.0625 46.578125 19.921875 
z
M 44.578125 55.328125 
Q 44.578125 61.96875 41.203125 65.671875 
Q 37.84375 69.390625 31.78125 69.390625 
Q 25.78125 69.390625 22.390625 65.671875 
Q 19 61.96875 19 55.328125 
Q 19 48.640625 22.390625 44.921875 
Q 25.78125 41.21875 31.78125 41.21875 
Q 37.84375 41.21875 41.203125 44.921875 
Q 44.578125 48.640625 44.578125 55.328125 
z
M 39.3125 38.8125 
Q 47.609375 37.703125 52.25 32.6875 
Q 56.890625 27.6875 56.890625 19.921875 
Q 56.890625 9.671875 50.390625 4.125 
Q 43.890625 -1.421875 31.78125 -1.421875 
Q 19.734375 -1.421875 13.203125 4.125 
Q 6.6875 9.671875 6.6875 19.921875 
Q 6.6875 27.6875 11.328125 32.6875 
Q 15.96875 37.703125 24.3125 38.8125 
Q 16.9375 40.140625 13 44.40625 
Q 9.078125 48.6875 9.078125 55.328125 
Q 9.078125 64.109375 15.125 69.15625 
Q 21.1875 74.21875 31.78125 74.21875 
Q 42.390625 74.21875 48.4375 69.15625 
Q 54.5 64.109375 54.5 55.328125 
Q 54.5 48.6875 50.5625 44.40625 
Q 46.625 40.140625 39.3125 38.8125 
z
" id="DejaVuSerif-38"/>
    </defs>
    <g transform="translate(266.865138 317.530702)scale(0.1 -0.1)">
     <use xlink:href="#DejaVuSerif-38"/>
    </g>
   </g>
   <g id="text_27">
    <!-- 8 -->
    <g transform="translate(470.268699 443.378657)scale(0.1 -0.1)">
     <use xlink:href="#DejaVuSerif-38"/>
    </g>
   </g>
  </g>
 </g>
 <defs>
  <clipPath id="pa0b42581d0">
   <rect height="443.52" width="446.4" x="72" y="69.12"/>
  </clipPath>
 </defs>
</svg>
