<?xml version="1.0" encoding="utf-8" standalone="no"?>
<!DOCTYPE svg PUBLIC "-//W3C//DTD SVG 1.1//EN"
  "http://www.w3.org/Graphics/SVG/1.1/DTD/svg11.dtd">
<!-- Created with matplotlib (http://matplotlib.org/) -->
<svg height="576pt" version="1.1" viewBox="0 0 576 576" width="576pt" xmlns="http://www.w3.org/2000/svg" xmlns:xlink="http://www.w3.org/1999/xlink">
 <defs>
  <style type="text/css">
*{stroke-linecap:butt;stroke-linejoin:round;}
  </style>
 </defs>
 <g id="figure_1">
  <g id="patch_1">
   <path d="M 0 576 
L 576 576 
L 576 0 
L 0 0 
z
" style="fill:#ffffff;"/>
  </g>
  <g id="axes_1">
   <g id="patch_2">
    <path d="M 72 512.64 
L 518.4 512.64 
L 518.4 69.12 
L 72 69.12 
z
" style="fill:#ffffff;"/>
   </g>
   <g id="matplotlib.axis_1">
    <g id="xtick_1">
     <g id="line2d_1">
      <defs>
       <path d="M 0 0 
L 0 3.5 
" id="mcba7503b47" style="stroke:#000000;stroke-width:0.8;"/>
      </defs>
      <g>
       <use style="stroke:#000000;stroke-width:0.8;" x="112.581818" xlink:href="#mcba7503b47" y="512.64"/>
      </g>
     </g>
     <g id="text_1">
      <!-- 0 -->
      <defs>
       <path d="M 31.78125 66.40625 
Q 24.171875 66.40625 20.328125 58.90625 
Q 16.5 51.421875 16.5 36.375 
Q 16.5 21.390625 20.328125 13.890625 
Q 24.171875 6.390625 31.78125 6.390625 
Q 39.453125 6.390625 43.28125 13.890625 
Q 47.125 21.390625 47.125 36.375 
Q 47.125 51.421875 43.28125 58.90625 
Q 39.453125 66.40625 31.78125 66.40625 
z
M 31.78125 74.21875 
Q 44.046875 74.21875 50.515625 64.515625 
Q 56.984375 54.828125 56.984375 36.375 
Q 56.984375 17.96875 50.515625 8.265625 
Q 44.046875 -1.421875 31.78125 -1.421875 
Q 19.53125 -1.421875 13.0625 8.265625 
Q 6.59375 17.96875 6.59375 36.375 
Q 6.59375 54.828125 13.0625 64.515625 
Q 19.53125 74.21875 31.78125 74.21875 
z
" id="DejaVuSans-30"/>
      </defs>
      <g transform="translate(109.400568 527.238438)scale(0.1 -0.1)">
       <use xlink:href="#DejaVuSans-30"/>
      </g>
     </g>
    </g>
    <g id="xtick_2">
     <g id="line2d_2">
      <g>
       <use style="stroke:#000000;stroke-width:0.8;" x="193.745455" xlink:href="#mcba7503b47" y="512.64"/>
      </g>
     </g>
     <g id="text_2">
      <!-- 2 -->
      <defs>
       <path d="M 19.1875 8.296875 
L 53.609375 8.296875 
L 53.609375 0 
L 7.328125 0 
L 7.328125 8.296875 
Q 12.9375 14.109375 22.625 23.890625 
Q 32.328125 33.6875 34.8125 36.53125 
Q 39.546875 41.84375 41.421875 45.53125 
Q 43.3125 49.21875 43.3125 52.78125 
Q 43.3125 58.59375 39.234375 62.25 
Q 35.15625 65.921875 28.609375 65.921875 
Q 23.96875 65.921875 18.8125 64.3125 
Q 13.671875 62.703125 7.8125 59.421875 
L 7.8125 69.390625 
Q 13.765625 71.78125 18.9375 73 
Q 24.125 74.21875 28.421875 74.21875 
Q 39.75 74.21875 46.484375 68.546875 
Q 53.21875 62.890625 53.21875 53.421875 
Q 53.21875 48.921875 51.53125 44.890625 
Q 49.859375 40.875 45.40625 35.40625 
Q 44.1875 33.984375 37.640625 27.21875 
Q 31.109375 20.453125 19.1875 8.296875 
z
" id="DejaVuSans-32"/>
      </defs>
      <g transform="translate(190.564205 527.238438)scale(0.1 -0.1)">
       <use xlink:href="#DejaVuSans-32"/>
      </g>
     </g>
    </g>
    <g id="xtick_3">
     <g id="line2d_3">
      <g>
       <use style="stroke:#000000;stroke-width:0.8;" x="274.909091" xlink:href="#mcba7503b47" y="512.64"/>
      </g>
     </g>
     <g id="text_3">
      <!-- 4 -->
      <defs>
       <path d="M 37.796875 64.3125 
L 12.890625 25.390625 
L 37.796875 25.390625 
z
M 35.203125 72.90625 
L 47.609375 72.90625 
L 47.609375 25.390625 
L 58.015625 25.390625 
L 58.015625 17.1875 
L 47.609375 17.1875 
L 47.609375 0 
L 37.796875 0 
L 37.796875 17.1875 
L 4.890625 17.1875 
L 4.890625 26.703125 
z
" id="DejaVuSans-34"/>
      </defs>
      <g transform="translate(271.727841 527.238438)scale(0.1 -0.1)">
       <use xlink:href="#DejaVuSans-34"/>
      </g>
     </g>
    </g>
    <g id="xtick_4">
     <g id="line2d_4">
      <g>
       <use style="stroke:#000000;stroke-width:0.8;" x="356.072727" xlink:href="#mcba7503b47" y="512.64"/>
      </g>
     </g>
     <g id="text_4">
      <!-- 6 -->
      <defs>
       <path d="M 33.015625 40.375 
Q 26.375 40.375 22.484375 35.828125 
Q 18.609375 31.296875 18.609375 23.390625 
Q 18.609375 15.53125 22.484375 10.953125 
Q 26.375 6.390625 33.015625 6.390625 
Q 39.65625 6.390625 43.53125 10.953125 
Q 47.40625 15.53125 47.40625 23.390625 
Q 47.40625 31.296875 43.53125 35.828125 
Q 39.65625 40.375 33.015625 40.375 
z
M 52.59375 71.296875 
L 52.59375 62.3125 
Q 48.875 64.0625 45.09375 64.984375 
Q 41.3125 65.921875 37.59375 65.921875 
Q 27.828125 65.921875 22.671875 59.328125 
Q 17.53125 52.734375 16.796875 39.40625 
Q 19.671875 43.65625 24.015625 45.921875 
Q 28.375 48.1875 33.59375 48.1875 
Q 44.578125 48.1875 50.953125 41.515625 
Q 57.328125 34.859375 57.328125 23.390625 
Q 57.328125 12.15625 50.6875 5.359375 
Q 44.046875 -1.421875 33.015625 -1.421875 
Q 20.359375 -1.421875 13.671875 8.265625 
Q 6.984375 17.96875 6.984375 36.375 
Q 6.984375 53.65625 15.1875 63.9375 
Q 23.390625 74.21875 37.203125 74.21875 
Q 40.921875 74.21875 44.703125 73.484375 
Q 48.484375 72.75 52.59375 71.296875 
z
" id="DejaVuSans-36"/>
      </defs>
      <g transform="translate(352.891477 527.238438)scale(0.1 -0.1)">
       <use xlink:href="#DejaVuSans-36"/>
      </g>
     </g>
    </g>
    <g id="xtick_5">
     <g id="line2d_5">
      <g>
       <use style="stroke:#000000;stroke-width:0.8;" x="437.236364" xlink:href="#mcba7503b47" y="512.64"/>
      </g>
     </g>
     <g id="text_5">
      <!-- 8 -->
      <defs>
       <path d="M 31.78125 34.625 
Q 24.75 34.625 20.71875 30.859375 
Q 16.703125 27.09375 16.703125 20.515625 
Q 16.703125 13.921875 20.71875 10.15625 
Q 24.75 6.390625 31.78125 6.390625 
Q 38.8125 6.390625 42.859375 10.171875 
Q 46.921875 13.96875 46.921875 20.515625 
Q 46.921875 27.09375 42.890625 30.859375 
Q 38.875 34.625 31.78125 34.625 
z
M 21.921875 38.8125 
Q 15.578125 40.375 12.03125 44.71875 
Q 8.5 49.078125 8.5 55.328125 
Q 8.5 64.0625 14.71875 69.140625 
Q 20.953125 74.21875 31.78125 74.21875 
Q 42.671875 74.21875 48.875 69.140625 
Q 55.078125 64.0625 55.078125 55.328125 
Q 55.078125 49.078125 51.53125 44.71875 
Q 48 40.375 41.703125 38.8125 
Q 48.828125 37.15625 52.796875 32.3125 
Q 56.78125 27.484375 56.78125 20.515625 
Q 56.78125 9.90625 50.3125 4.234375 
Q 43.84375 -1.421875 31.78125 -1.421875 
Q 19.734375 -1.421875 13.25 4.234375 
Q 6.78125 9.90625 6.78125 20.515625 
Q 6.78125 27.484375 10.78125 32.3125 
Q 14.796875 37.15625 21.921875 38.8125 
z
M 18.3125 54.390625 
Q 18.3125 48.734375 21.84375 45.5625 
Q 25.390625 42.390625 31.78125 42.390625 
Q 38.140625 42.390625 41.71875 45.5625 
Q 45.3125 48.734375 45.3125 54.390625 
Q 45.3125 60.0625 41.71875 63.234375 
Q 38.140625 66.40625 31.78125 66.40625 
Q 25.390625 66.40625 21.84375 63.234375 
Q 18.3125 60.0625 18.3125 54.390625 
z
" id="DejaVuSans-38"/>
      </defs>
      <g transform="translate(434.055114 527.238438)scale(0.1 -0.1)">
       <use xlink:href="#DejaVuSans-38"/>
      </g>
     </g>
    </g>
    <g id="xtick_6">
     <g id="line2d_6">
      <g>
       <use style="stroke:#000000;stroke-width:0.8;" x="518.4" xlink:href="#mcba7503b47" y="512.64"/>
      </g>
     </g>
     <g id="text_6">
      <!-- 10 -->
      <defs>
       <path d="M 12.40625 8.296875 
L 28.515625 8.296875 
L 28.515625 63.921875 
L 10.984375 60.40625 
L 10.984375 69.390625 
L 28.421875 72.90625 
L 38.28125 72.90625 
L 38.28125 8.296875 
L 54.390625 8.296875 
L 54.390625 0 
L 12.40625 0 
z
" id="DejaVuSans-31"/>
      </defs>
      <g transform="translate(512.0375 527.238438)scale(0.1 -0.1)">
       <use xlink:href="#DejaVuSans-31"/>
       <use x="63.623047" xlink:href="#DejaVuSans-30"/>
      </g>
     </g>
    </g>
   </g>
   <g id="matplotlib.axis_2">
    <g id="ytick_1">
     <g id="line2d_7">
      <defs>
       <path d="M 0 0 
L -3.5 0 
" id="m87933962c2" style="stroke:#000000;stroke-width:0.8;"/>
      </defs>
      <g>
       <use style="stroke:#000000;stroke-width:0.8;" x="72" xlink:href="#m87933962c2" y="473.498182"/>
      </g>
     </g>
     <g id="text_7">
      <!-- 0 -->
      <g transform="translate(58.6375 477.297401)scale(0.1 -0.1)">
       <use xlink:href="#DejaVuSans-30"/>
      </g>
     </g>
    </g>
    <g id="ytick_2">
     <g id="line2d_8">
      <g>
       <use style="stroke:#000000;stroke-width:0.8;" x="72" xlink:href="#m87933962c2" y="392.334545"/>
      </g>
     </g>
     <g id="text_8">
      <!-- 2 -->
      <g transform="translate(58.6375 396.133764)scale(0.1 -0.1)">
       <use xlink:href="#DejaVuSans-32"/>
      </g>
     </g>
    </g>
    <g id="ytick_3">
     <g id="line2d_9">
      <g>
       <use style="stroke:#000000;stroke-width:0.8;" x="72" xlink:href="#m87933962c2" y="311.170909"/>
      </g>
     </g>
     <g id="text_9">
      <!-- 4 -->
      <g transform="translate(58.6375 314.970128)scale(0.1 -0.1)">
       <use xlink:href="#DejaVuSans-34"/>
      </g>
     </g>
    </g>
    <g id="ytick_4">
     <g id="line2d_10">
      <g>
       <use style="stroke:#000000;stroke-width:0.8;" x="72" xlink:href="#m87933962c2" y="230.007273"/>
      </g>
     </g>
     <g id="text_10">
      <!-- 6 -->
      <g transform="translate(58.6375 233.806491)scale(0.1 -0.1)">
       <use xlink:href="#DejaVuSans-36"/>
      </g>
     </g>
    </g>
    <g id="ytick_5">
     <g id="line2d_11">
      <g>
       <use style="stroke:#000000;stroke-width:0.8;" x="72" xlink:href="#m87933962c2" y="148.843636"/>
      </g>
     </g>
     <g id="text_11">
      <!-- 8 -->
      <g transform="translate(58.6375 152.642855)scale(0.1 -0.1)">
       <use xlink:href="#DejaVuSans-38"/>
      </g>
     </g>
    </g>
   </g>
   <g id="line2d_12">
    <path clip-path="url(#p2836bd7c90)" d="M 458.313133 392.194948 
" style="fill:none;stroke:#1f77b4;stroke-linecap:square;stroke-width:1.5;"/>
    <defs>
     <path d="M -5 5 
L 5 5 
L 5 -5 
L -5 -5 
z
" id="m50b9d85ea3" style="stroke:#8000ff;stroke-linejoin:miter;"/>
    </defs>
    <g clip-path="url(#p2836bd7c90)">
     <use style="fill:#8000ff;stroke:#8000ff;stroke-linejoin:miter;" x="458.313133" xlink:href="#m50b9d85ea3" y="392.194948"/>
    </g>
   </g>
   <g id="line2d_13">
    <path clip-path="url(#p2836bd7c90)" d="M 178.926705 320.942378 
" style="fill:none;stroke:#ff7f0e;stroke-linecap:square;stroke-width:1.5;"/>
    <defs>
     <path d="M 0 -5 
L -4.755283 -1.545085 
L -2.938926 4.045085 
L 2.938926 4.045085 
L 4.755283 -1.545085 
z
" id="me923b7b0c8" style="stroke:#8000ff;stroke-linejoin:miter;"/>
    </defs>
    <g clip-path="url(#p2836bd7c90)">
     <use style="fill:#8000ff;stroke:#8000ff;stroke-linejoin:miter;" x="178.926705" xlink:href="#me923b7b0c8" y="320.942378"/>
    </g>
   </g>
   <g id="line2d_14">
    <path clip-path="url(#p2836bd7c90)" d="M 233.882569 454.055916 
" style="fill:none;stroke:#2ca02c;stroke-linecap:square;stroke-width:1.5;"/>
    <defs>
     <path d="M -5 5 
L 5 5 
L 5 -5 
L -5 -5 
z
" id="m338beeb687" style="stroke:#376ff9;stroke-linejoin:miter;"/>
    </defs>
    <g clip-path="url(#p2836bd7c90)">
     <use style="fill:#376ff9;stroke:#376ff9;stroke-linejoin:miter;" x="233.882569" xlink:href="#m338beeb687" y="454.055916"/>
    </g>
   </g>
   <g id="line2d_15">
    <path clip-path="url(#p2836bd7c90)" d="M 394.653006 211.911772 
" style="fill:none;stroke:#d62728;stroke-linecap:square;stroke-width:1.5;"/>
    <defs>
     <path d="M 0 -5 
L -4.755283 -1.545085 
L -2.938926 4.045085 
L 2.938926 4.045085 
L 4.755283 -1.545085 
z
" id="m33354a8eae" style="stroke:#376ff9;stroke-linejoin:miter;"/>
    </defs>
    <g clip-path="url(#p2836bd7c90)">
     <use style="fill:#376ff9;stroke:#376ff9;stroke-linejoin:miter;" x="394.653006" xlink:href="#m33354a8eae" y="211.911772"/>
    </g>
   </g>
   <g id="line2d_16">
    <path clip-path="url(#p2836bd7c90)" d="M 335.61561 462.012733 
" style="fill:none;stroke:#9467bd;stroke-linecap:square;stroke-width:1.5;"/>
    <defs>
     <path d="M -5 5 
L 5 5 
L 5 -5 
L -5 -5 
z
" id="mf90b7089d9" style="stroke:#12c7e6;stroke-linejoin:miter;"/>
    </defs>
    <g clip-path="url(#p2836bd7c90)">
     <use style="fill:#12c7e6;stroke:#12c7e6;stroke-linejoin:miter;" x="335.61561" xlink:href="#mf90b7089d9" y="462.012733"/>
    </g>
   </g>
   <g id="line2d_17">
    <path clip-path="url(#p2836bd7c90)" d="M 136.525823 242.284722 
" style="fill:none;stroke:#8c564b;stroke-linecap:square;stroke-width:1.5;"/>
    <defs>
     <path d="M 0 -5 
L -4.755283 -1.545085 
L -2.938926 4.045085 
L 2.938926 4.045085 
L 4.755283 -1.545085 
z
" id="mc137a1ad04" style="stroke:#12c7e6;stroke-linejoin:miter;"/>
    </defs>
    <g clip-path="url(#p2836bd7c90)">
     <use style="fill:#12c7e6;stroke:#12c7e6;stroke-linejoin:miter;" x="136.525823" xlink:href="#mc137a1ad04" y="242.284722"/>
    </g>
   </g>
   <g id="line2d_18">
    <path clip-path="url(#p2836bd7c90)" d="M 462.198532 245.452375 
" style="fill:none;stroke:#e377c2;stroke-linecap:square;stroke-width:1.5;"/>
    <defs>
     <path d="M -5 5 
L 5 5 
L 5 -5 
L -5 -5 
z
" id="m128b82f3f0" style="stroke:#5bf9c7;stroke-linejoin:miter;"/>
    </defs>
    <g clip-path="url(#p2836bd7c90)">
     <use style="fill:#5bf9c7;stroke:#5bf9c7;stroke-linejoin:miter;" x="462.198532" xlink:href="#m128b82f3f0" y="245.452375"/>
    </g>
   </g>
   <g id="line2d_19">
    <path clip-path="url(#p2836bd7c90)" d="M 257.616424 111.012188 
" style="fill:none;stroke:#7f7f7f;stroke-linecap:square;stroke-width:1.5;"/>
    <defs>
     <path d="M 0 -5 
L -4.755283 -1.545085 
L -2.938926 4.045085 
L 2.938926 4.045085 
L 4.755283 -1.545085 
z
" id="mccd3920f0a" style="stroke:#5bf9c7;stroke-linejoin:miter;"/>
    </defs>
    <g clip-path="url(#p2836bd7c90)">
     <use style="fill:#5bf9c7;stroke:#5bf9c7;stroke-linejoin:miter;" x="257.616424" xlink:href="#mccd3920f0a" y="111.012188"/>
    </g>
   </g>
   <g id="line2d_20">
    <path clip-path="url(#p2836bd7c90)" d="M 201.740805 211.488804 
" style="fill:none;stroke:#bcbd22;stroke-linecap:square;stroke-width:1.5;"/>
    <defs>
     <path d="M -5 5 
L 5 5 
L 5 -5 
L -5 -5 
z
" id="m210c41598d" style="stroke:#a4f99f;stroke-linejoin:miter;"/>
    </defs>
    <g clip-path="url(#p2836bd7c90)">
     <use style="fill:#a4f99f;stroke:#a4f99f;stroke-linejoin:miter;" x="201.740805" xlink:href="#m210c41598d" y="211.488804"/>
    </g>
   </g>
   <g id="line2d_21">
    <path clip-path="url(#p2836bd7c90)" d="M 419.284205 118.550935 
" style="fill:none;stroke:#17becf;stroke-linecap:square;stroke-width:1.5;"/>
    <defs>
     <path d="M 0 -5 
L -4.755283 -1.545085 
L -2.938926 4.045085 
L 2.938926 4.045085 
L 4.755283 -1.545085 
z
" id="m62fc5ee63a" style="stroke:#a4f99f;stroke-linejoin:miter;"/>
    </defs>
    <g clip-path="url(#p2836bd7c90)">
     <use style="fill:#a4f99f;stroke:#a4f99f;stroke-linejoin:miter;" x="419.284205" xlink:href="#m62fc5ee63a" y="118.550935"/>
    </g>
   </g>
   <g id="line2d_22">
    <path clip-path="url(#p2836bd7c90)" d="M 382.071908 388.780657 
" style="fill:none;stroke:#1f77b4;stroke-linecap:square;stroke-width:1.5;"/>
    <defs>
     <path d="M -5 5 
L 5 5 
L 5 -5 
L -5 -5 
z
" id="mcde9256ab5" style="stroke:#edc76f;stroke-linejoin:miter;"/>
    </defs>
    <g clip-path="url(#p2836bd7c90)">
     <use style="fill:#edc76f;stroke:#edc76f;stroke-linejoin:miter;" x="382.071908" xlink:href="#mcde9256ab5" y="388.780657"/>
    </g>
   </g>
   <g id="line2d_23">
    <path clip-path="url(#p2836bd7c90)" d="M 466.525902 128.718085 
" style="fill:none;stroke:#ff7f0e;stroke-linecap:square;stroke-width:1.5;"/>
    <defs>
     <path d="M 0 -5 
L -4.755283 -1.545085 
L -2.938926 4.045085 
L 2.938926 4.045085 
L 4.755283 -1.545085 
z
" id="mbb1932e2a5" style="stroke:#edc76f;stroke-linejoin:miter;"/>
    </defs>
    <g clip-path="url(#p2836bd7c90)">
     <use style="fill:#edc76f;stroke:#edc76f;stroke-linejoin:miter;" x="466.525902" xlink:href="#mbb1932e2a5" y="128.718085"/>
    </g>
   </g>
   <g id="line2d_24">
    <path clip-path="url(#p2836bd7c90)" d="M 272.938093 277.247921 
" style="fill:none;stroke:#2ca02c;stroke-linecap:square;stroke-width:1.5;"/>
    <defs>
     <path d="M -5 5 
L 5 5 
L 5 -5 
L -5 -5 
z
" id="mc16281c365" style="stroke:#ff6f39;stroke-linejoin:miter;"/>
    </defs>
    <g clip-path="url(#p2836bd7c90)">
     <use style="fill:#ff6f39;stroke:#ff6f39;stroke-linejoin:miter;" x="272.938093" xlink:href="#mc16281c365" y="277.247921"/>
    </g>
   </g>
   <g id="line2d_25">
    <path clip-path="url(#p2836bd7c90)" d="M 474.452821 471.732414 
" style="fill:none;stroke:#d62728;stroke-linecap:square;stroke-width:1.5;"/>
    <defs>
     <path d="M 0 -5 
L -4.755283 -1.545085 
L -2.938926 4.045085 
L 2.938926 4.045085 
L 4.755283 -1.545085 
z
" id="m38a736cf70" style="stroke:#ff6f39;stroke-linejoin:miter;"/>
    </defs>
    <g clip-path="url(#p2836bd7c90)">
     <use style="fill:#ff6f39;stroke:#ff6f39;stroke-linejoin:miter;" x="474.452821" xlink:href="#m38a736cf70" y="471.732414"/>
    </g>
   </g>
   <g id="line2d_26">
    <path clip-path="url(#p2836bd7c90)" d="M 120.14026 409.411929 
" style="fill:none;stroke:#9467bd;stroke-linecap:square;stroke-width:1.5;"/>
    <defs>
     <path d="M -5 5 
L 5 5 
L 5 -5 
L -5 -5 
z
" id="mdecba0bf81" style="stroke:#ff0000;stroke-linejoin:miter;"/>
    </defs>
    <g clip-path="url(#p2836bd7c90)">
     <use style="fill:#ff0000;stroke:#ff0000;stroke-linejoin:miter;" x="120.14026" xlink:href="#mdecba0bf81" y="409.411929"/>
    </g>
   </g>
   <g id="line2d_27">
    <path clip-path="url(#p2836bd7c90)" d="M 317.862785 282.292655 
" style="fill:none;stroke:#8c564b;stroke-linecap:square;stroke-width:1.5;"/>
    <defs>
     <path d="M 0 -5 
L -4.755283 -1.545085 
L -2.938926 4.045085 
L 2.938926 4.045085 
L 4.755283 -1.545085 
z
" id="m23e4436633" style="stroke:#ff0000;stroke-linejoin:miter;"/>
    </defs>
    <g clip-path="url(#p2836bd7c90)">
     <use style="fill:#ff0000;stroke:#ff0000;stroke-linejoin:miter;" x="317.862785" xlink:href="#m23e4436633" y="282.292655"/>
    </g>
   </g>
   <g id="line2d_28">
    <defs>
     <path d="M 0 2.5 
C 0.663008 2.5 1.29895 2.236584 1.767767 1.767767 
C 2.236584 1.29895 2.5 0.663008 2.5 0 
C 2.5 -0.663008 2.236584 -1.29895 1.767767 -1.767767 
C 1.29895 -2.236584 0.663008 -2.5 0 -2.5 
C -0.663008 -2.5 -1.29895 -2.236584 -1.767767 -1.767767 
C -2.236584 -1.29895 -2.5 -0.663008 -2.5 0 
C -2.5 0.663008 -2.236584 1.29895 -1.767767 1.767767 
C -1.29895 2.236584 -0.663008 2.5 0 2.5 
z
" id="m8e4ae3cdc5" style="stroke:#000000;"/>
    </defs>
    <g clip-path="url(#p2836bd7c90)">
     <use style="stroke:#000000;" x="287.309226" xlink:href="#m8e4ae3cdc5" y="153.711226"/>
     <use style="stroke:#000000;" x="144.179201" xlink:href="#m8e4ae3cdc5" y="359.108922"/>
     <use style="stroke:#000000;" x="121.112961" xlink:href="#m8e4ae3cdc5" y="202.574563"/>
     <use style="stroke:#000000;" x="417.589283" xlink:href="#m8e4ae3cdc5" y="251.954578"/>
     <use style="stroke:#000000;" x="159.977541" xlink:href="#m8e4ae3cdc5" y="398.329325"/>
     <use style="stroke:#000000;" x="191.409422" xlink:href="#m8e4ae3cdc5" y="146.856377"/>
     <use style="stroke:#000000;" x="407.027068" xlink:href="#m8e4ae3cdc5" y="327.894214"/>
     <use style="stroke:#000000;" x="245.02308" xlink:href="#m8e4ae3cdc5" y="235.084196"/>
     <use style="stroke:#000000;" x="142.247688" xlink:href="#m8e4ae3cdc5" y="151.427996"/>
     <use style="stroke:#000000;" x="231.615805" xlink:href="#m8e4ae3cdc5" y="400.762127"/>
     <use style="stroke:#000000;" x="116.31961" xlink:href="#m8e4ae3cdc5" y="461.292912"/>
     <use style="stroke:#000000;" x="451.833241" xlink:href="#m8e4ae3cdc5" y="166.906659"/>
     <use style="stroke:#000000;" x="438.302599" xlink:href="#m8e4ae3cdc5" y="191.187381"/>
     <use style="stroke:#000000;" x="141.104425" xlink:href="#m8e4ae3cdc5" y="198.098118"/>
     <use style="stroke:#000000;" x="316.411655" xlink:href="#m8e4ae3cdc5" y="204.274402"/>
     <use style="stroke:#000000;" x="221.937669" xlink:href="#m8e4ae3cdc5" y="277.879089"/>
     <use style="stroke:#000000;" x="345.159869" xlink:href="#m8e4ae3cdc5" y="371.51674"/>
     <use style="stroke:#000000;" x="352.614179" xlink:href="#m8e4ae3cdc5" y="330.664004"/>
     <use style="stroke:#000000;" x="444.859592" xlink:href="#m8e4ae3cdc5" y="442.183282"/>
     <use style="stroke:#000000;" x="413.260739" xlink:href="#m8e4ae3cdc5" y="359.602884"/>
     <use style="stroke:#000000;" x="365.246868" xlink:href="#m8e4ae3cdc5" y="281.629933"/>
     <use style="stroke:#000000;" x="339.790538" xlink:href="#m8e4ae3cdc5" y="167.766449"/>
    </g>
   </g>
   <g id="line2d_29">
    <path clip-path="url(#p2836bd7c90)" d="M 303.541953 153.711226 
L 302.662419 148.440468 
L 300.119129 143.740879 
L 296.187686 140.121731 
L 291.294125 137.975216 
L 285.968738 137.533942 
L 280.788614 138.845728 
L 276.315099 141.768421 
L 273.032968 145.985302 
L 271.297892 151.039407 
L 271.297892 156.383045 
L 273.032968 161.437151 
L 276.315099 165.654032 
L 280.788614 168.576725 
L 285.968738 169.888511 
L 291.294125 169.447236 
L 296.187686 167.300721 
L 300.119129 163.681574 
L 302.662419 158.981984 
L 303.541953 153.711226 
" style="fill:none;stroke:#000000;stroke-dasharray:5.55,2.4;stroke-dashoffset:0;stroke-width:1.5;"/>
   </g>
   <g id="line2d_30">
    <path clip-path="url(#p2836bd7c90)" d="M 291.773226 153.711226 
L 291.531354 152.261768 
L 290.831949 150.969381 
L 289.750803 149.974115 
L 288.405073 149.383824 
L 286.940592 149.262473 
L 285.516058 149.623214 
L 284.285841 150.426955 
L 283.383255 151.586597 
L 282.906109 152.976476 
L 282.906109 154.445977 
L 283.383255 155.835855 
L 284.285841 156.995498 
L 285.516058 157.799238 
L 286.940592 158.15998 
L 288.405073 158.038629 
L 289.750803 157.448337 
L 290.831949 156.453072 
L 291.531354 155.160685 
L 291.773226 153.711226 
" style="fill:none;stroke:#ff0000;stroke-linecap:square;stroke-width:1.5;"/>
   </g>
   <g id="line2d_31">
    <path clip-path="url(#p2836bd7c90)" d="M 160.411929 359.108922 
L 159.532395 353.838164 
L 156.989104 349.138575 
L 153.057662 345.519427 
L 148.1641 343.372912 
L 142.838713 342.931638 
L 137.658589 344.243423 
L 133.185074 347.166116 
L 129.902944 351.382998 
L 128.167867 356.437103 
L 128.167867 361.780741 
L 129.902944 366.834846 
L 133.185074 371.051728 
L 137.658589 373.974421 
L 142.838713 375.286206 
L 148.1641 374.844932 
L 153.057662 372.698417 
L 156.989104 369.079269 
L 159.532395 364.37968 
L 160.411929 359.108922 
" style="fill:none;stroke:#000000;stroke-dasharray:5.55,2.4;stroke-dashoffset:0;stroke-width:1.5;"/>
   </g>
   <g id="line2d_32">
    <path clip-path="url(#p2836bd7c90)" d="M 148.643201 359.108922 
L 148.40133 357.659464 
L 147.701925 356.367076 
L 146.620778 355.371811 
L 145.275049 354.781519 
L 143.810567 354.660169 
L 142.386033 355.02091 
L 141.155816 355.82465 
L 140.253231 356.984293 
L 139.776085 358.374172 
L 139.776085 359.843672 
L 140.253231 361.233551 
L 141.155816 362.393193 
L 142.386033 363.196934 
L 143.810567 363.557675 
L 145.275049 363.436325 
L 146.620778 362.846033 
L 147.701925 361.850768 
L 148.40133 360.55838 
L 148.643201 359.108922 
" style="fill:none;stroke:#ff0000;stroke-linecap:square;stroke-width:1.5;"/>
   </g>
   <g id="line2d_33">
    <path clip-path="url(#p2836bd7c90)" d="M 137.345688 202.574563 
L 136.466154 197.303805 
L 133.922863 192.604215 
L 129.991421 188.985067 
L 125.09786 186.838552 
L 119.772473 186.397278 
L 114.592348 187.709064 
L 110.118834 190.631757 
L 106.836703 194.848638 
L 105.101627 199.902743 
L 105.101627 205.246382 
L 106.836703 210.300487 
L 110.118834 214.517368 
L 114.592348 217.440061 
L 119.772473 218.751847 
L 125.09786 218.310573 
L 129.991421 216.164058 
L 133.922863 212.54491 
L 136.466154 207.845321 
L 137.345688 202.574563 
" style="fill:none;stroke:#000000;stroke-dasharray:5.55,2.4;stroke-dashoffset:0;stroke-width:1.5;"/>
   </g>
   <g id="line2d_34">
    <path clip-path="url(#p2836bd7c90)" d="M 125.576961 202.574563 
L 125.335089 201.125104 
L 124.635684 199.832717 
L 123.554537 198.837451 
L 122.208808 198.24716 
L 120.744327 198.125809 
L 119.319792 198.48655 
L 118.089576 199.290291 
L 117.18699 200.449933 
L 116.709844 201.839812 
L 116.709844 203.309313 
L 117.18699 204.699192 
L 118.089576 205.858834 
L 119.319792 206.662575 
L 120.744327 207.023316 
L 122.208808 206.901965 
L 123.554537 206.311674 
L 124.635684 205.316408 
L 125.335089 204.024021 
L 125.576961 202.574563 
" style="fill:none;stroke:#ff0000;stroke-linecap:square;stroke-width:1.5;"/>
   </g>
   <g id="line2d_35">
    <path clip-path="url(#p2836bd7c90)" d="M 433.822011 251.954578 
L 432.942477 246.68382 
L 430.399186 241.98423 
L 426.467744 238.365082 
L 421.574182 236.218567 
L 416.248795 235.777293 
L 411.068671 237.089079 
L 406.595156 240.011772 
L 403.313026 244.228653 
L 401.577949 249.282758 
L 401.577949 254.626397 
L 403.313026 259.680502 
L 406.595156 263.897383 
L 411.068671 266.820076 
L 416.248795 268.131862 
L 421.574182 267.690588 
L 426.467744 265.544073 
L 430.399186 261.924925 
L 432.942477 257.225335 
L 433.822011 251.954578 
" style="fill:none;stroke:#000000;stroke-dasharray:5.55,2.4;stroke-dashoffset:0;stroke-width:1.5;"/>
   </g>
   <g id="line2d_36">
    <path clip-path="url(#p2836bd7c90)" d="M 422.053283 251.954578 
L 421.811412 250.505119 
L 421.112007 249.212732 
L 420.03086 248.217466 
L 418.685131 247.627175 
L 417.220649 247.505824 
L 415.796115 247.866565 
L 414.565898 248.670306 
L 413.663313 249.829948 
L 413.186167 251.219827 
L 413.186167 252.689328 
L 413.663313 254.079207 
L 414.565898 255.238849 
L 415.796115 256.04259 
L 417.220649 256.403331 
L 418.685131 256.28198 
L 420.03086 255.691689 
L 421.112007 254.696423 
L 421.811412 253.404036 
L 422.053283 251.954578 
" style="fill:none;stroke:#ff0000;stroke-linecap:square;stroke-width:1.5;"/>
   </g>
   <g id="line2d_37">
    <path clip-path="url(#p2836bd7c90)" d="M 176.210268 398.329325 
L 175.330734 393.058567 
L 172.787444 388.358977 
L 168.856001 384.73983 
L 163.96244 382.593315 
L 158.637053 382.15204 
L 153.456929 383.463826 
L 148.983414 386.386519 
L 145.701283 390.6034 
L 143.966207 395.657506 
L 143.966207 401.001144 
L 145.701283 406.055249 
L 148.983414 410.27213 
L 153.456929 413.194823 
L 158.637053 414.506609 
L 163.96244 414.065335 
L 168.856001 411.91882 
L 172.787444 408.299672 
L 175.330734 403.600083 
L 176.210268 398.329325 
" style="fill:none;stroke:#000000;stroke-dasharray:5.55,2.4;stroke-dashoffset:0;stroke-width:1.5;"/>
   </g>
   <g id="line2d_38">
    <path clip-path="url(#p2836bd7c90)" d="M 164.441541 398.329325 
L 164.199669 396.879866 
L 163.500264 395.587479 
L 162.419118 394.592214 
L 161.073388 394.001922 
L 159.608907 393.880571 
L 158.184373 394.241313 
L 156.954156 395.045053 
L 156.05157 396.204695 
L 155.574424 397.594574 
L 155.574424 399.064075 
L 156.05157 400.453954 
L 156.954156 401.613596 
L 158.184373 402.417337 
L 159.608907 402.778078 
L 161.073388 402.656727 
L 162.419118 402.066436 
L 163.500264 401.07117 
L 164.199669 399.778783 
L 164.441541 398.329325 
" style="fill:none;stroke:#ff0000;stroke-linecap:square;stroke-width:1.5;"/>
   </g>
   <g id="line2d_39">
    <path clip-path="url(#p2836bd7c90)" d="M 207.64215 146.856377 
L 206.762616 141.585619 
L 204.219325 136.88603 
L 200.287883 133.266882 
L 195.394321 131.120367 
L 190.068934 130.679093 
L 184.88881 131.990879 
L 180.415295 134.913572 
L 177.133165 139.130453 
L 175.398088 144.184558 
L 175.398088 149.528197 
L 177.133165 154.582302 
L 180.415295 158.799183 
L 184.88881 161.721876 
L 190.068934 163.033662 
L 195.394321 162.592388 
L 200.287883 160.445873 
L 204.219325 156.826725 
L 206.762616 152.127135 
L 207.64215 146.856377 
" style="fill:none;stroke:#000000;stroke-dasharray:5.55,2.4;stroke-dashoffset:0;stroke-width:1.5;"/>
   </g>
   <g id="line2d_40">
    <path clip-path="url(#p2836bd7c90)" d="M 195.873422 146.856377 
L 195.63155 145.406919 
L 194.932146 144.114532 
L 193.850999 143.119266 
L 192.50527 142.528975 
L 191.040788 142.407624 
L 189.616254 142.768365 
L 188.386037 143.572106 
L 187.483451 144.731748 
L 187.006305 146.121627 
L 187.006305 147.591128 
L 187.483451 148.981007 
L 188.386037 150.140649 
L 189.616254 150.94439 
L 191.040788 151.305131 
L 192.50527 151.18378 
L 193.850999 150.593489 
L 194.932146 149.598223 
L 195.63155 148.305836 
L 195.873422 146.856377 
" style="fill:none;stroke:#ff0000;stroke-linecap:square;stroke-width:1.5;"/>
   </g>
   <g id="line2d_41">
    <path clip-path="url(#p2836bd7c90)" d="M 423.259795 327.894214 
L 422.380261 322.623456 
L 419.83697 317.923866 
L 415.905528 314.304718 
L 411.011967 312.158203 
L 405.68658 311.716929 
L 400.506455 313.028715 
L 396.032941 315.951408 
L 392.75081 320.168289 
L 391.015734 325.222394 
L 391.015734 330.566033 
L 392.75081 335.620138 
L 396.032941 339.837019 
L 400.506455 342.759712 
L 405.68658 344.071498 
L 411.011967 343.630224 
L 415.905528 341.483709 
L 419.83697 337.864561 
L 422.380261 333.164971 
L 423.259795 327.894214 
" style="fill:none;stroke:#000000;stroke-dasharray:5.55,2.4;stroke-dashoffset:0;stroke-width:1.5;"/>
   </g>
   <g id="line2d_42">
    <path clip-path="url(#p2836bd7c90)" d="M 411.491068 327.894214 
L 411.249196 326.444755 
L 410.549791 325.152368 
L 409.468644 324.157102 
L 408.122915 323.566811 
L 406.658434 323.44546 
L 405.233899 323.806201 
L 404.003683 324.609942 
L 403.101097 325.769584 
L 402.623951 327.159463 
L 402.623951 328.628964 
L 403.101097 330.018843 
L 404.003683 331.178485 
L 405.233899 331.982226 
L 406.658434 332.342967 
L 408.122915 332.221616 
L 409.468644 331.631325 
L 410.549791 330.636059 
L 411.249196 329.343672 
L 411.491068 327.894214 
" style="fill:none;stroke:#ff0000;stroke-linecap:square;stroke-width:1.5;"/>
   </g>
   <g id="line2d_43">
    <path clip-path="url(#p2836bd7c90)" d="M 261.255807 235.084196 
L 260.376273 229.813438 
L 257.832983 225.113849 
L 253.90154 221.494701 
L 249.007979 219.348186 
L 243.682592 218.906912 
L 238.502468 220.218698 
L 234.028953 223.141391 
L 230.746822 227.358272 
L 229.011746 232.412377 
L 229.011746 237.756015 
L 230.746822 242.81012 
L 234.028953 247.027002 
L 238.502468 249.949695 
L 243.682592 251.261481 
L 249.007979 250.820206 
L 253.90154 248.673691 
L 257.832983 245.054544 
L 260.376273 240.354954 
L 261.255807 235.084196 
" style="fill:none;stroke:#000000;stroke-dasharray:5.55,2.4;stroke-dashoffset:0;stroke-width:1.5;"/>
   </g>
   <g id="line2d_44">
    <path clip-path="url(#p2836bd7c90)" d="M 249.48708 235.084196 
L 249.245208 233.634738 
L 248.545803 232.342351 
L 247.464656 231.347085 
L 246.118927 230.756793 
L 244.654446 230.635443 
L 243.229911 230.996184 
L 241.999695 231.799925 
L 241.097109 232.959567 
L 240.619963 234.349446 
L 240.619963 235.818946 
L 241.097109 237.208825 
L 241.999695 238.368468 
L 243.229911 239.172208 
L 244.654446 239.532949 
L 246.118927 239.411599 
L 247.464656 238.821307 
L 248.545803 237.826042 
L 249.245208 236.533655 
L 249.48708 235.084196 
" style="fill:none;stroke:#ff0000;stroke-linecap:square;stroke-width:1.5;"/>
   </g>
   <g id="line2d_45">
    <path clip-path="url(#p2836bd7c90)" d="M 158.480415 151.427996 
L 157.600881 146.157238 
L 155.057591 141.457648 
L 151.126148 137.838501 
L 146.232587 135.691986 
L 140.9072 135.250711 
L 135.727076 136.562497 
L 131.253561 139.48519 
L 127.97143 143.702072 
L 126.236354 148.756177 
L 126.236354 154.099815 
L 127.97143 159.15392 
L 131.253561 163.370801 
L 135.727076 166.293494 
L 140.9072 167.60528 
L 146.232587 167.164006 
L 151.126148 165.017491 
L 155.057591 161.398343 
L 157.600881 156.698754 
L 158.480415 151.427996 
" style="fill:none;stroke:#000000;stroke-dasharray:5.55,2.4;stroke-dashoffset:0;stroke-width:1.5;"/>
   </g>
   <g id="line2d_46">
    <path clip-path="url(#p2836bd7c90)" d="M 146.711688 151.427996 
L 146.469816 149.978537 
L 145.770411 148.68615 
L 144.689264 147.690885 
L 143.343535 147.100593 
L 141.879054 146.979243 
L 140.45452 147.339984 
L 139.224303 148.143724 
L 138.321717 149.303367 
L 137.844571 150.693245 
L 137.844571 152.162746 
L 138.321717 153.552625 
L 139.224303 154.712267 
L 140.45452 155.516008 
L 141.879054 155.876749 
L 143.343535 155.755399 
L 144.689264 155.165107 
L 145.770411 154.169841 
L 146.469816 152.877454 
L 146.711688 151.427996 
" style="fill:none;stroke:#ff0000;stroke-linecap:square;stroke-width:1.5;"/>
   </g>
   <g id="line2d_47">
    <path clip-path="url(#p2836bd7c90)" d="M 247.848533 400.762127 
L 246.968999 395.491369 
L 244.425708 390.791779 
L 240.494266 387.172632 
L 235.600704 385.026117 
L 230.275317 384.584843 
L 225.095193 385.896628 
L 220.621678 388.819321 
L 217.339548 393.036203 
L 215.604471 398.090308 
L 215.604471 403.433946 
L 217.339548 408.488051 
L 220.621678 412.704932 
L 225.095193 415.627626 
L 230.275317 416.939411 
L 235.600704 416.498137 
L 240.494266 414.351622 
L 244.425708 410.732474 
L 246.968999 406.032885 
L 247.848533 400.762127 
" style="fill:none;stroke:#000000;stroke-dasharray:5.55,2.4;stroke-dashoffset:0;stroke-width:1.5;"/>
   </g>
   <g id="line2d_48">
    <path clip-path="url(#p2836bd7c90)" d="M 236.079805 400.762127 
L 235.837934 399.312668 
L 235.138529 398.020281 
L 234.057382 397.025016 
L 232.711653 396.434724 
L 231.247171 396.313374 
L 229.822637 396.674115 
L 228.59242 397.477855 
L 227.689835 398.637498 
L 227.212689 400.027377 
L 227.212689 401.496877 
L 227.689835 402.886756 
L 228.59242 404.046398 
L 229.822637 404.850139 
L 231.247171 405.21088 
L 232.711653 405.08953 
L 234.057382 404.499238 
L 235.138529 403.503972 
L 235.837934 402.211585 
L 236.079805 400.762127 
" style="fill:none;stroke:#ff0000;stroke-linecap:square;stroke-width:1.5;"/>
   </g>
   <g id="line2d_49">
    <path clip-path="url(#p2836bd7c90)" d="M 132.552338 461.292912 
L 131.672804 456.022154 
L 129.129513 451.322564 
L 125.198071 447.703417 
L 120.304509 445.556902 
L 114.979122 445.115627 
L 109.798998 446.427413 
L 105.325483 449.350106 
L 102.043353 453.566988 
L 100.308276 458.621093 
L 100.308276 463.964731 
L 102.043353 469.018836 
L 105.325483 473.235717 
L 109.798998 476.15841 
L 114.979122 477.470196 
L 120.304509 477.028922 
L 125.198071 474.882407 
L 129.129513 471.263259 
L 131.672804 466.56367 
L 132.552338 461.292912 
" style="fill:none;stroke:#000000;stroke-dasharray:5.55,2.4;stroke-dashoffset:0;stroke-width:1.5;"/>
   </g>
   <g id="line2d_50">
    <path clip-path="url(#p2836bd7c90)" d="M 120.78361 461.292912 
L 120.541738 459.843453 
L 119.842334 458.551066 
L 118.761187 457.555801 
L 117.415457 456.965509 
L 115.950976 456.844159 
L 114.526442 457.2049 
L 113.296225 458.00864 
L 112.393639 459.168283 
L 111.916493 460.558162 
L 111.916493 462.027662 
L 112.393639 463.417541 
L 113.296225 464.577183 
L 114.526442 465.380924 
L 115.950976 465.741665 
L 117.415457 465.620315 
L 118.761187 465.030023 
L 119.842334 464.034757 
L 120.541738 462.74237 
L 120.78361 461.292912 
" style="fill:none;stroke:#ff0000;stroke-linecap:square;stroke-width:1.5;"/>
   </g>
   <g id="line2d_51">
    <path clip-path="url(#p2836bd7c90)" d="M 468.065969 166.906659 
L 467.186435 161.635901 
L 464.643144 156.936311 
L 460.711702 153.317164 
L 455.81814 151.170649 
L 450.492753 150.729375 
L 445.312629 152.04116 
L 440.839114 154.963853 
L 437.556984 159.180735 
L 435.821907 164.23484 
L 435.821907 169.578478 
L 437.556984 174.632583 
L 440.839114 178.849464 
L 445.312629 181.772157 
L 450.492753 183.083943 
L 455.81814 182.642669 
L 460.711702 180.496154 
L 464.643144 176.877006 
L 467.186435 172.177417 
L 468.065969 166.906659 
" style="fill:none;stroke:#000000;stroke-dasharray:5.55,2.4;stroke-dashoffset:0;stroke-width:1.5;"/>
   </g>
   <g id="line2d_52">
    <path clip-path="url(#p2836bd7c90)" d="M 456.297241 166.906659 
L 456.05537 165.4572 
L 455.355965 164.164813 
L 454.274818 163.169548 
L 452.929089 162.579256 
L 451.464607 162.457906 
L 450.040073 162.818647 
L 448.809856 163.622387 
L 447.907271 164.78203 
L 447.430125 166.171909 
L 447.430125 167.641409 
L 447.907271 169.031288 
L 448.809856 170.19093 
L 450.040073 170.994671 
L 451.464607 171.355412 
L 452.929089 171.234062 
L 454.274818 170.64377 
L 455.355965 169.648504 
L 456.05537 168.356117 
L 456.297241 166.906659 
" style="fill:none;stroke:#ff0000;stroke-linecap:square;stroke-width:1.5;"/>
   </g>
   <g id="line2d_53">
    <path clip-path="url(#p2836bd7c90)" d="M 454.535326 191.187381 
L 453.655792 185.916623 
L 451.112502 181.217034 
L 447.181059 177.597886 
L 442.287498 175.451371 
L 436.962111 175.010097 
L 431.781987 176.321882 
L 427.308472 179.244575 
L 424.026342 183.461457 
L 422.291265 188.515562 
L 422.291265 193.8592 
L 424.026342 198.913305 
L 427.308472 203.130187 
L 431.781987 206.05288 
L 436.962111 207.364665 
L 442.287498 206.923391 
L 447.181059 204.776876 
L 451.112502 201.157728 
L 453.655792 196.458139 
L 454.535326 191.187381 
" style="fill:none;stroke:#000000;stroke-dasharray:5.55,2.4;stroke-dashoffset:0;stroke-width:1.5;"/>
   </g>
   <g id="line2d_54">
    <path clip-path="url(#p2836bd7c90)" d="M 442.766599 191.187381 
L 442.524727 189.737923 
L 441.825322 188.445535 
L 440.744176 187.45027 
L 439.398446 186.859978 
L 437.933965 186.738628 
L 436.509431 187.099369 
L 435.279214 187.903109 
L 434.376628 189.062752 
L 433.899482 190.452631 
L 433.899482 191.922131 
L 434.376628 193.31201 
L 435.279214 194.471653 
L 436.509431 195.275393 
L 437.933965 195.636134 
L 439.398446 195.514784 
L 440.744176 194.924492 
L 441.825322 193.929227 
L 442.524727 192.636839 
L 442.766599 191.187381 
" style="fill:none;stroke:#ff0000;stroke-linecap:square;stroke-width:1.5;"/>
   </g>
   <g id="line2d_55">
    <path clip-path="url(#p2836bd7c90)" d="M 157.337152 198.098118 
L 156.457618 192.82736 
L 153.914328 188.127771 
L 149.982885 184.508623 
L 145.089324 182.362108 
L 139.763937 181.920834 
L 134.583813 183.232619 
L 130.110298 186.155313 
L 126.828167 190.372194 
L 125.093091 195.426299 
L 125.093091 200.769937 
L 126.828167 205.824042 
L 130.110298 210.040924 
L 134.583813 212.963617 
L 139.763937 214.275402 
L 145.089324 213.834128 
L 149.982885 211.687613 
L 153.914328 208.068466 
L 156.457618 203.368876 
L 157.337152 198.098118 
" style="fill:none;stroke:#000000;stroke-dasharray:5.55,2.4;stroke-dashoffset:0;stroke-width:1.5;"/>
   </g>
   <g id="line2d_56">
    <path clip-path="url(#p2836bd7c90)" d="M 145.568425 198.098118 
L 145.326553 196.64866 
L 144.627148 195.356273 
L 143.546002 194.361007 
L 142.200272 193.770715 
L 140.735791 193.649365 
L 139.311257 194.010106 
L 138.08104 194.813847 
L 137.178454 195.973489 
L 136.701308 197.363368 
L 136.701308 198.832868 
L 137.178454 200.222747 
L 138.08104 201.38239 
L 139.311257 202.18613 
L 140.735791 202.546871 
L 142.200272 202.425521 
L 143.546002 201.835229 
L 144.627148 200.839964 
L 145.326553 199.547577 
L 145.568425 198.098118 
" style="fill:none;stroke:#ff0000;stroke-linecap:square;stroke-width:1.5;"/>
   </g>
   <g id="line2d_57">
    <path clip-path="url(#p2836bd7c90)" d="M 332.644382 204.274402 
L 331.764848 199.003645 
L 329.221557 194.304055 
L 325.290115 190.684907 
L 320.396554 188.538392 
L 315.071167 188.097118 
L 309.891042 189.408904 
L 305.417528 192.331597 
L 302.135397 196.548478 
L 300.400321 201.602583 
L 300.400321 206.946222 
L 302.135397 212.000327 
L 305.417528 216.217208 
L 309.891042 219.139901 
L 315.071167 220.451687 
L 320.396554 220.010413 
L 325.290115 217.863898 
L 329.221557 214.24475 
L 331.764848 209.54516 
L 332.644382 204.274402 
" style="fill:none;stroke:#000000;stroke-dasharray:5.55,2.4;stroke-dashoffset:0;stroke-width:1.5;"/>
   </g>
   <g id="line2d_58">
    <path clip-path="url(#p2836bd7c90)" d="M 320.875655 204.274402 
L 320.633783 202.824944 
L 319.934378 201.532557 
L 318.853231 200.537291 
L 317.507502 199.947 
L 316.04302 199.825649 
L 314.618486 200.18639 
L 313.38827 200.990131 
L 312.485684 202.149773 
L 312.008538 203.539652 
L 312.008538 205.009153 
L 312.485684 206.399032 
L 313.38827 207.558674 
L 314.618486 208.362415 
L 316.04302 208.723156 
L 317.507502 208.601805 
L 318.853231 208.011514 
L 319.934378 207.016248 
L 320.633783 205.723861 
L 320.875655 204.274402 
" style="fill:none;stroke:#ff0000;stroke-linecap:square;stroke-width:1.5;"/>
   </g>
   <g id="line2d_59">
    <path clip-path="url(#p2836bd7c90)" d="M 238.170396 277.879089 
L 237.290862 272.608331 
L 234.747572 267.908741 
L 230.816129 264.289594 
L 225.922568 262.143079 
L 220.597181 261.701805 
L 215.417057 263.01359 
L 210.943542 265.936283 
L 207.661411 270.153165 
L 205.926335 275.20727 
L 205.926335 280.550908 
L 207.661411 285.605013 
L 210.943542 289.821894 
L 215.417057 292.744588 
L 220.597181 294.056373 
L 225.922568 293.615099 
L 230.816129 291.468584 
L 234.747572 287.849436 
L 237.290862 283.149847 
L 238.170396 277.879089 
" style="fill:none;stroke:#000000;stroke-dasharray:5.55,2.4;stroke-dashoffset:0;stroke-width:1.5;"/>
   </g>
   <g id="line2d_60">
    <path clip-path="url(#p2836bd7c90)" d="M 226.401669 277.879089 
L 226.159797 276.42963 
L 225.460392 275.137243 
L 224.379246 274.141978 
L 223.033516 273.551686 
L 221.569035 273.430336 
L 220.144501 273.791077 
L 218.914284 274.594817 
L 218.011698 275.75446 
L 217.534552 277.144339 
L 217.534552 278.613839 
L 218.011698 280.003718 
L 218.914284 281.16336 
L 220.144501 281.967101 
L 221.569035 282.327842 
L 223.033516 282.206492 
L 224.379246 281.6162 
L 225.460392 280.620934 
L 226.159797 279.328547 
L 226.401669 277.879089 
" style="fill:none;stroke:#ff0000;stroke-linecap:square;stroke-width:1.5;"/>
   </g>
   <g id="line2d_61">
    <path clip-path="url(#p2836bd7c90)" d="M 361.392596 371.51674 
L 360.513062 366.245982 
L 357.969771 361.546392 
L 354.038329 357.927245 
L 349.144768 355.78073 
L 343.819381 355.339456 
L 338.639257 356.651241 
L 334.165742 359.573934 
L 330.883611 363.790816 
L 329.148535 368.844921 
L 329.148535 374.188559 
L 330.883611 379.242664 
L 334.165742 383.459545 
L 338.639257 386.382239 
L 343.819381 387.694024 
L 349.144768 387.25275 
L 354.038329 385.106235 
L 357.969771 381.487087 
L 360.513062 376.787498 
L 361.392596 371.51674 
" style="fill:none;stroke:#000000;stroke-dasharray:5.55,2.4;stroke-dashoffset:0;stroke-width:1.5;"/>
   </g>
   <g id="line2d_62">
    <path clip-path="url(#p2836bd7c90)" d="M 349.623869 371.51674 
L 349.381997 370.067281 
L 348.682592 368.774894 
L 347.601445 367.779629 
L 346.255716 367.189337 
L 344.791235 367.067987 
L 343.3667 367.428728 
L 342.136484 368.232468 
L 341.233898 369.392111 
L 340.756752 370.78199 
L 340.756752 372.25149 
L 341.233898 373.641369 
L 342.136484 374.801011 
L 343.3667 375.604752 
L 344.791235 375.965493 
L 346.255716 375.844143 
L 347.601445 375.253851 
L 348.682592 374.258585 
L 349.381997 372.966198 
L 349.623869 371.51674 
" style="fill:none;stroke:#ff0000;stroke-linecap:square;stroke-width:1.5;"/>
   </g>
   <g id="line2d_63">
    <path clip-path="url(#p2836bd7c90)" d="M 368.846906 330.664004 
L 367.967372 325.393246 
L 365.424081 320.693656 
L 361.492639 317.074508 
L 356.599078 314.927993 
L 351.273691 314.486719 
L 346.093566 315.798505 
L 341.620052 318.721198 
L 338.337921 322.938079 
L 336.602845 327.992185 
L 336.602845 333.335823 
L 338.337921 338.389928 
L 341.620052 342.606809 
L 346.093566 345.529502 
L 351.273691 346.841288 
L 356.599078 346.400014 
L 361.492639 344.253499 
L 365.424081 340.634351 
L 367.967372 335.934762 
L 368.846906 330.664004 
" style="fill:none;stroke:#000000;stroke-dasharray:5.55,2.4;stroke-dashoffset:0;stroke-width:1.5;"/>
   </g>
   <g id="line2d_64">
    <path clip-path="url(#p2836bd7c90)" d="M 357.078179 330.664004 
L 356.836307 329.214545 
L 356.136902 327.922158 
L 355.055755 326.926892 
L 353.710026 326.336601 
L 352.245544 326.21525 
L 350.82101 326.575991 
L 349.590794 327.379732 
L 348.688208 328.539374 
L 348.211062 329.929253 
L 348.211062 331.398754 
L 348.688208 332.788633 
L 349.590794 333.948275 
L 350.82101 334.752016 
L 352.245544 335.112757 
L 353.710026 334.991406 
L 355.055755 334.401115 
L 356.136902 333.405849 
L 356.836307 332.113462 
L 357.078179 330.664004 
" style="fill:none;stroke:#ff0000;stroke-linecap:square;stroke-width:1.5;"/>
   </g>
   <g id="line2d_65">
    <path clip-path="url(#p2836bd7c90)" d="M 461.092319 442.183282 
L 460.212785 436.912524 
L 457.669495 432.212935 
L 453.738052 428.593787 
L 448.844491 426.447272 
L 443.519104 426.005998 
L 438.33898 427.317784 
L 433.865465 430.240477 
L 430.583334 434.457358 
L 428.848258 439.511463 
L 428.848258 444.855101 
L 430.583334 449.909206 
L 433.865465 454.126088 
L 438.33898 457.048781 
L 443.519104 458.360567 
L 448.844491 457.919292 
L 453.738052 455.772777 
L 457.669495 452.15363 
L 460.212785 447.45404 
L 461.092319 442.183282 
" style="fill:none;stroke:#000000;stroke-dasharray:5.55,2.4;stroke-dashoffset:0;stroke-width:1.5;"/>
   </g>
   <g id="line2d_66">
    <path clip-path="url(#p2836bd7c90)" d="M 449.323592 442.183282 
L 449.08172 440.733824 
L 448.382315 439.441437 
L 447.301169 438.446171 
L 445.955439 437.855879 
L 444.490958 437.734529 
L 443.066424 438.09527 
L 441.836207 438.899011 
L 440.933621 440.058653 
L 440.456475 441.448532 
L 440.456475 442.918032 
L 440.933621 444.307911 
L 441.836207 445.467554 
L 443.066424 446.271294 
L 444.490958 446.632035 
L 445.955439 446.510685 
L 447.301169 445.920393 
L 448.382315 444.925128 
L 449.08172 443.632741 
L 449.323592 442.183282 
" style="fill:none;stroke:#ff0000;stroke-linecap:square;stroke-width:1.5;"/>
   </g>
   <g id="line2d_67">
    <path clip-path="url(#p2836bd7c90)" d="M 429.493466 359.602884 
L 428.613932 354.332126 
L 426.070642 349.632537 
L 422.139199 346.013389 
L 417.245638 343.866874 
L 411.920251 343.4256 
L 406.740127 344.737386 
L 402.266612 347.660079 
L 398.984481 351.87696 
L 397.249405 356.931065 
L 397.249405 362.274703 
L 398.984481 367.328808 
L 402.266612 371.54569 
L 406.740127 374.468383 
L 411.920251 375.780168 
L 417.245638 375.338894 
L 422.139199 373.192379 
L 426.070642 369.573232 
L 428.613932 364.873642 
L 429.493466 359.602884 
" style="fill:none;stroke:#000000;stroke-dasharray:5.55,2.4;stroke-dashoffset:0;stroke-width:1.5;"/>
   </g>
   <g id="line2d_68">
    <path clip-path="url(#p2836bd7c90)" d="M 417.724739 359.602884 
L 417.482867 358.153426 
L 416.783462 356.861039 
L 415.702316 355.865773 
L 414.356586 355.275481 
L 412.892105 355.154131 
L 411.467571 355.514872 
L 410.237354 356.318613 
L 409.334768 357.478255 
L 408.857622 358.868134 
L 408.857622 360.337634 
L 409.334768 361.727513 
L 410.237354 362.887156 
L 411.467571 363.690896 
L 412.892105 364.051637 
L 414.356586 363.930287 
L 415.702316 363.339995 
L 416.783462 362.34473 
L 417.482867 361.052343 
L 417.724739 359.602884 
" style="fill:none;stroke:#ff0000;stroke-linecap:square;stroke-width:1.5;"/>
   </g>
   <g id="line2d_69">
    <path clip-path="url(#p2836bd7c90)" d="M 381.479595 281.629933 
L 380.600062 276.359175 
L 378.056771 271.659586 
L 374.125328 268.040438 
L 369.231767 265.893923 
L 363.90638 265.452649 
L 358.726256 266.764435 
L 354.252741 269.687128 
L 350.970611 273.904009 
L 349.235534 278.958114 
L 349.235534 284.301753 
L 350.970611 289.355858 
L 354.252741 293.572739 
L 358.726256 296.495432 
L 363.90638 297.807218 
L 369.231767 297.365944 
L 374.125328 295.219429 
L 378.056771 291.600281 
L 380.600062 286.900691 
L 381.479595 281.629933 
" style="fill:none;stroke:#000000;stroke-dasharray:5.55,2.4;stroke-dashoffset:0;stroke-width:1.5;"/>
   </g>
   <g id="line2d_70">
    <path clip-path="url(#p2836bd7c90)" d="M 369.710868 281.629933 
L 369.468996 280.180475 
L 368.769591 278.888088 
L 367.688445 277.892822 
L 366.342715 277.302531 
L 364.878234 277.18118 
L 363.4537 277.541921 
L 362.223483 278.345662 
L 361.320897 279.505304 
L 360.843751 280.895183 
L 360.843751 282.364684 
L 361.320897 283.754563 
L 362.223483 284.914205 
L 363.4537 285.717946 
L 364.878234 286.078687 
L 366.342715 285.957336 
L 367.688445 285.367045 
L 368.769591 284.371779 
L 369.468996 283.079392 
L 369.710868 281.629933 
" style="fill:none;stroke:#ff0000;stroke-linecap:square;stroke-width:1.5;"/>
   </g>
   <g id="line2d_71">
    <path clip-path="url(#p2836bd7c90)" d="M 356.023266 167.766449 
L 355.143732 162.495691 
L 352.600441 157.796102 
L 348.668999 154.176954 
L 343.775437 152.030439 
L 338.45005 151.589165 
L 333.269926 152.900951 
L 328.796411 155.823644 
L 325.514281 160.040525 
L 323.779204 165.09463 
L 323.779204 170.438268 
L 325.514281 175.492374 
L 328.796411 179.709255 
L 333.269926 182.631948 
L 338.45005 183.943734 
L 343.775437 183.502459 
L 348.668999 181.355944 
L 352.600441 177.736797 
L 355.143732 173.037207 
L 356.023266 167.766449 
" style="fill:none;stroke:#000000;stroke-dasharray:5.55,2.4;stroke-dashoffset:0;stroke-width:1.5;"/>
   </g>
   <g id="line2d_72">
    <path clip-path="url(#p2836bd7c90)" d="M 344.254538 167.766449 
L 344.012666 166.316991 
L 343.313262 165.024604 
L 342.232115 164.029338 
L 340.886386 163.439047 
L 339.421904 163.317696 
L 337.99737 163.678437 
L 336.767153 164.482178 
L 335.864567 165.64182 
L 335.387421 167.031699 
L 335.387421 168.5012 
L 335.864567 169.891079 
L 336.767153 171.050721 
L 337.99737 171.854461 
L 339.421904 172.215203 
L 340.886386 172.093852 
L 342.232115 171.503561 
L 343.313262 170.508295 
L 344.012666 169.215908 
L 344.254538 167.766449 
" style="fill:none;stroke:#ff0000;stroke-linecap:square;stroke-width:1.5;"/>
   </g>
   <g id="line2d_73">
    <path clip-path="url(#p2836bd7c90)" d="M 92.290909 493.789091 
L 92.290909 87.970909 
" style="fill:none;stroke:#000000;stroke-linecap:square;stroke-width:4;"/>
   </g>
   <g id="line2d_74">
    <path clip-path="url(#p2836bd7c90)" d="M 92.290909 87.970909 
L 498.109091 87.970909 
" style="fill:none;stroke:#000000;stroke-linecap:square;stroke-width:4;"/>
   </g>
   <g id="line2d_75">
    <path clip-path="url(#p2836bd7c90)" d="M 498.109091 87.970909 
L 498.109091 493.789091 
" style="fill:none;stroke:#000000;stroke-linecap:square;stroke-width:4;"/>
   </g>
   <g id="line2d_76">
    <path clip-path="url(#p2836bd7c90)" d="M 498.109091 493.789091 
L 92.290909 493.789091 
" style="fill:none;stroke:#000000;stroke-linecap:square;stroke-width:4;"/>
   </g>
   <g id="patch_3">
    <path d="M 72 512.64 
L 72 69.12 
" style="fill:none;stroke:#000000;stroke-linecap:square;stroke-linejoin:miter;stroke-width:0.8;"/>
   </g>
   <g id="patch_4">
    <path d="M 518.4 512.64 
L 518.4 69.12 
" style="fill:none;stroke:#000000;stroke-linecap:square;stroke-linejoin:miter;stroke-width:0.8;"/>
   </g>
   <g id="patch_5">
    <path d="M 72 512.64 
L 518.4 512.64 
" style="fill:none;stroke:#000000;stroke-linecap:square;stroke-linejoin:miter;stroke-width:0.8;"/>
   </g>
   <g id="patch_6">
    <path d="M 72 69.12 
L 518.4 69.12 
" style="fill:none;stroke:#000000;stroke-linecap:square;stroke-linejoin:miter;stroke-width:0.8;"/>
   </g>
   <g id="text_12">
    <!-- 1 -->
    <defs>
     <path d="M 14.203125 0 
L 14.203125 5.171875 
L 26.90625 5.171875 
L 26.90625 65.828125 
L 12.203125 56.296875 
L 12.203125 62.703125 
L 29.984375 74.21875 
L 36.71875 74.21875 
L 36.71875 5.171875 
L 49.421875 5.171875 
L 49.421875 0 
z
" id="DejaVuSerif-31"/>
    </defs>
    <g transform="translate(455.131883 392.194948)scale(0.1 -0.1)">
     <use xlink:href="#DejaVuSerif-31"/>
    </g>
   </g>
   <g id="text_13">
    <!-- 1 -->
    <g transform="translate(175.745455 320.942378)scale(0.1 -0.1)">
     <use xlink:href="#DejaVuSerif-31"/>
    </g>
   </g>
   <g id="text_14">
    <!-- 2 -->
    <defs>
     <path d="M 12.796875 55.515625 
L 7.328125 55.515625 
L 7.328125 68.5 
Q 12.546875 71.296875 17.84375 72.75 
Q 23.140625 74.21875 28.21875 74.21875 
Q 39.59375 74.21875 46.1875 68.703125 
Q 52.78125 63.1875 52.78125 53.71875 
Q 52.78125 43.015625 37.84375 28.125 
Q 36.671875 27 36.078125 26.421875 
L 17.671875 8.015625 
L 48.09375 8.015625 
L 48.09375 17 
L 53.8125 17 
L 53.8125 0 
L 6.78125 0 
L 6.78125 5.328125 
L 28.90625 27.390625 
Q 36.234375 34.71875 39.359375 40.84375 
Q 42.484375 46.96875 42.484375 53.71875 
Q 42.484375 61.078125 38.640625 65.234375 
Q 34.8125 69.390625 28.078125 69.390625 
Q 21.09375 69.390625 17.28125 65.921875 
Q 13.484375 62.453125 12.796875 55.515625 
z
" id="DejaVuSerif-32"/>
    </defs>
    <g transform="translate(230.701319 454.055916)scale(0.1 -0.1)">
     <use xlink:href="#DejaVuSerif-32"/>
    </g>
   </g>
   <g id="text_15">
    <!-- 2 -->
    <g transform="translate(391.471756 211.911772)scale(0.1 -0.1)">
     <use xlink:href="#DejaVuSerif-32"/>
    </g>
   </g>
   <g id="text_16">
    <!-- 3 -->
    <defs>
     <path d="M 9.71875 69.828125 
Q 15.4375 71.96875 20.671875 73.09375 
Q 25.921875 74.21875 30.515625 74.21875 
Q 41.21875 74.21875 47.21875 69.59375 
Q 53.21875 64.984375 53.21875 56.78125 
Q 53.21875 50.203125 49.0625 45.78125 
Q 44.921875 41.359375 37.3125 39.796875 
Q 46.296875 38.53125 51.25 33.28125 
Q 56.203125 28.03125 56.203125 19.671875 
Q 56.203125 9.46875 49.34375 4.015625 
Q 42.484375 -1.421875 29.59375 -1.421875 
Q 23.875 -1.421875 18.421875 -0.1875 
Q 12.984375 1.03125 7.625 3.515625 
L 7.625 17.671875 
L 13.09375 17.671875 
Q 13.578125 10.640625 17.828125 7.03125 
Q 22.078125 3.421875 29.78125 3.421875 
Q 37.25 3.421875 41.578125 7.734375 
Q 45.90625 12.0625 45.90625 19.578125 
Q 45.90625 28.171875 41.453125 32.59375 
Q 37.015625 37.015625 28.421875 37.015625 
L 23.78125 37.015625 
L 23.78125 42 
L 26.21875 42 
Q 34.765625 42 39.03125 45.53125 
Q 43.3125 49.078125 43.3125 56.203125 
Q 43.3125 62.59375 39.796875 65.984375 
Q 36.28125 69.390625 29.6875 69.390625 
Q 23.09375 69.390625 19.453125 66.265625 
Q 15.828125 63.140625 15.1875 56.984375 
L 9.71875 56.984375 
z
" id="DejaVuSerif-33"/>
    </defs>
    <g transform="translate(332.43436 462.012733)scale(0.1 -0.1)">
     <use xlink:href="#DejaVuSerif-33"/>
    </g>
   </g>
   <g id="text_17">
    <!-- 3 -->
    <g transform="translate(133.344573 242.284722)scale(0.1 -0.1)">
     <use xlink:href="#DejaVuSerif-33"/>
    </g>
   </g>
   <g id="text_18">
    <!-- 4 -->
    <defs>
     <path d="M 34.90625 24.703125 
L 34.90625 63.484375 
L 10.015625 24.703125 
z
M 56.390625 0 
L 23.1875 0 
L 23.1875 5.171875 
L 34.90625 5.171875 
L 34.90625 19.484375 
L 3.078125 19.484375 
L 3.078125 24.8125 
L 35.015625 74.21875 
L 44.671875 74.21875 
L 44.671875 24.703125 
L 58.59375 24.703125 
L 58.59375 19.484375 
L 44.671875 19.484375 
L 44.671875 5.171875 
L 56.390625 5.171875 
z
" id="DejaVuSerif-34"/>
    </defs>
    <g transform="translate(459.017282 245.452375)scale(0.1 -0.1)">
     <use xlink:href="#DejaVuSerif-34"/>
    </g>
   </g>
   <g id="text_19">
    <!-- 4 -->
    <g transform="translate(254.435174 111.012188)scale(0.1 -0.1)">
     <use xlink:href="#DejaVuSerif-34"/>
    </g>
   </g>
   <g id="text_20">
    <!-- 5 -->
    <defs>
     <path d="M 50.296875 72.90625 
L 50.296875 64.890625 
L 16.890625 64.890625 
L 16.890625 44 
Q 19.4375 45.75 22.828125 46.625 
Q 26.21875 47.515625 30.421875 47.515625 
Q 42.234375 47.515625 49.0625 40.96875 
Q 55.90625 34.421875 55.90625 23.09375 
Q 55.90625 11.53125 49 5.046875 
Q 42.09375 -1.421875 29.59375 -1.421875 
Q 24.5625 -1.421875 19.28125 -0.1875 
Q 14.015625 1.03125 8.5 3.515625 
L 8.5 17.671875 
L 14.015625 17.671875 
Q 14.453125 10.75 18.421875 7.078125 
Q 22.40625 3.421875 29.59375 3.421875 
Q 37.3125 3.421875 41.453125 8.5 
Q 45.609375 13.578125 45.609375 23.09375 
Q 45.609375 32.5625 41.484375 37.609375 
Q 37.359375 42.671875 29.59375 42.671875 
Q 25.203125 42.671875 21.84375 41.109375 
Q 18.5 39.546875 15.921875 36.28125 
L 11.71875 36.28125 
L 11.71875 72.90625 
z
" id="DejaVuSerif-35"/>
    </defs>
    <g transform="translate(198.559555 211.488804)scale(0.1 -0.1)">
     <use xlink:href="#DejaVuSerif-35"/>
    </g>
   </g>
   <g id="text_21">
    <!-- 5 -->
    <g transform="translate(416.102955 118.550935)scale(0.1 -0.1)">
     <use xlink:href="#DejaVuSerif-35"/>
    </g>
   </g>
   <g id="text_22">
    <!-- 6 -->
    <defs>
     <path d="M 32.71875 3.421875 
Q 39.59375 3.421875 43.296875 8.46875 
Q 47.015625 13.53125 47.015625 23 
Q 47.015625 32.46875 43.296875 37.515625 
Q 39.59375 42.578125 32.71875 42.578125 
Q 25.734375 42.578125 22.0625 37.6875 
Q 18.40625 32.8125 18.40625 23.578125 
Q 18.40625 13.875 22.109375 8.640625 
Q 25.828125 3.421875 32.71875 3.421875 
z
M 16.796875 40.140625 
Q 20.125 43.796875 24.3125 45.59375 
Q 28.515625 47.40625 33.796875 47.40625 
Q 44.671875 47.40625 51 40.859375 
Q 57.328125 34.328125 57.328125 23 
Q 57.328125 11.921875 50.515625 5.25 
Q 43.703125 -1.421875 32.328125 -1.421875 
Q 19.96875 -1.421875 13.328125 7.78125 
Q 6.6875 17 6.6875 34.078125 
Q 6.6875 53.21875 14.546875 63.71875 
Q 22.40625 74.21875 36.71875 74.21875 
Q 40.578125 74.21875 44.828125 73.484375 
Q 49.078125 72.75 53.515625 71.296875 
L 53.515625 59.28125 
L 48 59.28125 
Q 47.40625 64.203125 44.234375 66.796875 
Q 41.0625 69.390625 35.6875 69.390625 
Q 26.21875 69.390625 21.578125 62.203125 
Q 16.9375 55.03125 16.796875 40.140625 
z
" id="DejaVuSerif-36"/>
    </defs>
    <g transform="translate(378.890658 388.780657)scale(0.1 -0.1)">
     <use xlink:href="#DejaVuSerif-36"/>
    </g>
   </g>
   <g id="text_23">
    <!-- 6 -->
    <g transform="translate(463.344652 128.718085)scale(0.1 -0.1)">
     <use xlink:href="#DejaVuSerif-36"/>
    </g>
   </g>
   <g id="text_24">
    <!-- 7 -->
    <defs>
     <path d="M 56.390625 67.921875 
L 27.875 0 
L 20.609375 0 
L 47.796875 64.890625 
L 14.109375 64.890625 
L 14.109375 55.90625 
L 8.40625 55.90625 
L 8.40625 72.90625 
L 56.390625 72.90625 
z
" id="DejaVuSerif-37"/>
    </defs>
    <g transform="translate(269.756843 277.247921)scale(0.1 -0.1)">
     <use xlink:href="#DejaVuSerif-37"/>
    </g>
   </g>
   <g id="text_25">
    <!-- 7 -->
    <g transform="translate(471.271571 471.732414)scale(0.1 -0.1)">
     <use xlink:href="#DejaVuSerif-37"/>
    </g>
   </g>
   <g id="text_26">
    <!-- 8 -->
    <defs>
     <path d="M 46.578125 19.921875 
Q 46.578125 27.734375 42.6875 32.046875 
Q 38.8125 36.375 31.78125 36.375 
Q 24.75 36.375 20.875 32.046875 
Q 17 27.734375 17 19.921875 
Q 17 12.0625 20.875 7.734375 
Q 24.75 3.421875 31.78125 3.421875 
Q 38.8125 3.421875 42.6875 7.734375 
Q 46.578125 12.0625 46.578125 19.921875 
z
M 44.578125 55.328125 
Q 44.578125 61.96875 41.203125 65.671875 
Q 37.84375 69.390625 31.78125 69.390625 
Q 25.78125 69.390625 22.390625 65.671875 
Q 19 61.96875 19 55.328125 
Q 19 48.640625 22.390625 44.921875 
Q 25.78125 41.21875 31.78125 41.21875 
Q 37.84375 41.21875 41.203125 44.921875 
Q 44.578125 48.640625 44.578125 55.328125 
z
M 39.3125 38.8125 
Q 47.609375 37.703125 52.25 32.6875 
Q 56.890625 27.6875 56.890625 19.921875 
Q 56.890625 9.671875 50.390625 4.125 
Q 43.890625 -1.421875 31.78125 -1.421875 
Q 19.734375 -1.421875 13.203125 4.125 
Q 6.6875 9.671875 6.6875 19.921875 
Q 6.6875 27.6875 11.328125 32.6875 
Q 15.96875 37.703125 24.3125 38.8125 
Q 16.9375 40.140625 13 44.40625 
Q 9.078125 48.6875 9.078125 55.328125 
Q 9.078125 64.109375 15.125 69.15625 
Q 21.1875 74.21875 31.78125 74.21875 
Q 42.390625 74.21875 48.4375 69.15625 
Q 54.5 64.109375 54.5 55.328125 
Q 54.5 48.6875 50.5625 44.40625 
Q 46.625 40.140625 39.3125 38.8125 
z
" id="DejaVuSerif-38"/>
    </defs>
    <g transform="translate(116.95901 409.411929)scale(0.1 -0.1)">
     <use xlink:href="#DejaVuSerif-38"/>
    </g>
   </g>
   <g id="text_27">
    <!-- 8 -->
    <g transform="translate(314.681535 282.292655)scale(0.1 -0.1)">
     <use xlink:href="#DejaVuSerif-38"/>
    </g>
   </g>
  </g>
 </g>
 <defs>
  <clipPath id="p2836bd7c90">
   <rect height="443.52" width="446.4" x="72" y="69.12"/>
  </clipPath>
 </defs>
</svg>
