<?xml version="1.0" encoding="utf-8" standalone="no"?>
<!DOCTYPE svg PUBLIC "-//W3C//DTD SVG 1.1//EN"
  "http://www.w3.org/Graphics/SVG/1.1/DTD/svg11.dtd">
<!-- Created with matplotlib (http://matplotlib.org/) -->
<svg height="576pt" version="1.1" viewBox="0 0 576 576" width="576pt" xmlns="http://www.w3.org/2000/svg" xmlns:xlink="http://www.w3.org/1999/xlink">
 <defs>
  <style type="text/css">
*{stroke-linecap:butt;stroke-linejoin:round;}
  </style>
 </defs>
 <g id="figure_1">
  <g id="patch_1">
   <path d="M 0 576 
L 576 576 
L 576 0 
L 0 0 
z
" style="fill:#ffffff;"/>
  </g>
  <g id="axes_1">
   <g id="patch_2">
    <path d="M 72 512.64 
L 518.4 512.64 
L 518.4 69.12 
L 72 69.12 
z
" style="fill:#ffffff;"/>
   </g>
   <g id="matplotlib.axis_1">
    <g id="xtick_1">
     <g id="line2d_1">
      <defs>
       <path d="M 0 0 
L 0 3.5 
" id="mf24d66d389" style="stroke:#000000;stroke-width:0.8;"/>
      </defs>
      <g>
       <use style="stroke:#000000;stroke-width:0.8;" x="112.581818" xlink:href="#mf24d66d389" y="512.64"/>
      </g>
     </g>
     <g id="text_1">
      <!-- 0 -->
      <defs>
       <path d="M 31.78125 66.40625 
Q 24.171875 66.40625 20.328125 58.90625 
Q 16.5 51.421875 16.5 36.375 
Q 16.5 21.390625 20.328125 13.890625 
Q 24.171875 6.390625 31.78125 6.390625 
Q 39.453125 6.390625 43.28125 13.890625 
Q 47.125 21.390625 47.125 36.375 
Q 47.125 51.421875 43.28125 58.90625 
Q 39.453125 66.40625 31.78125 66.40625 
z
M 31.78125 74.21875 
Q 44.046875 74.21875 50.515625 64.515625 
Q 56.984375 54.828125 56.984375 36.375 
Q 56.984375 17.96875 50.515625 8.265625 
Q 44.046875 -1.421875 31.78125 -1.421875 
Q 19.53125 -1.421875 13.0625 8.265625 
Q 6.59375 17.96875 6.59375 36.375 
Q 6.59375 54.828125 13.0625 64.515625 
Q 19.53125 74.21875 31.78125 74.21875 
z
" id="DejaVuSans-30"/>
      </defs>
      <g transform="translate(109.400568 527.238438)scale(0.1 -0.1)">
       <use xlink:href="#DejaVuSans-30"/>
      </g>
     </g>
    </g>
    <g id="xtick_2">
     <g id="line2d_2">
      <g>
       <use style="stroke:#000000;stroke-width:0.8;" x="193.745455" xlink:href="#mf24d66d389" y="512.64"/>
      </g>
     </g>
     <g id="text_2">
      <!-- 2 -->
      <defs>
       <path d="M 19.1875 8.296875 
L 53.609375 8.296875 
L 53.609375 0 
L 7.328125 0 
L 7.328125 8.296875 
Q 12.9375 14.109375 22.625 23.890625 
Q 32.328125 33.6875 34.8125 36.53125 
Q 39.546875 41.84375 41.421875 45.53125 
Q 43.3125 49.21875 43.3125 52.78125 
Q 43.3125 58.59375 39.234375 62.25 
Q 35.15625 65.921875 28.609375 65.921875 
Q 23.96875 65.921875 18.8125 64.3125 
Q 13.671875 62.703125 7.8125 59.421875 
L 7.8125 69.390625 
Q 13.765625 71.78125 18.9375 73 
Q 24.125 74.21875 28.421875 74.21875 
Q 39.75 74.21875 46.484375 68.546875 
Q 53.21875 62.890625 53.21875 53.421875 
Q 53.21875 48.921875 51.53125 44.890625 
Q 49.859375 40.875 45.40625 35.40625 
Q 44.1875 33.984375 37.640625 27.21875 
Q 31.109375 20.453125 19.1875 8.296875 
z
" id="DejaVuSans-32"/>
      </defs>
      <g transform="translate(190.564205 527.238438)scale(0.1 -0.1)">
       <use xlink:href="#DejaVuSans-32"/>
      </g>
     </g>
    </g>
    <g id="xtick_3">
     <g id="line2d_3">
      <g>
       <use style="stroke:#000000;stroke-width:0.8;" x="274.909091" xlink:href="#mf24d66d389" y="512.64"/>
      </g>
     </g>
     <g id="text_3">
      <!-- 4 -->
      <defs>
       <path d="M 37.796875 64.3125 
L 12.890625 25.390625 
L 37.796875 25.390625 
z
M 35.203125 72.90625 
L 47.609375 72.90625 
L 47.609375 25.390625 
L 58.015625 25.390625 
L 58.015625 17.1875 
L 47.609375 17.1875 
L 47.609375 0 
L 37.796875 0 
L 37.796875 17.1875 
L 4.890625 17.1875 
L 4.890625 26.703125 
z
" id="DejaVuSans-34"/>
      </defs>
      <g transform="translate(271.727841 527.238438)scale(0.1 -0.1)">
       <use xlink:href="#DejaVuSans-34"/>
      </g>
     </g>
    </g>
    <g id="xtick_4">
     <g id="line2d_4">
      <g>
       <use style="stroke:#000000;stroke-width:0.8;" x="356.072727" xlink:href="#mf24d66d389" y="512.64"/>
      </g>
     </g>
     <g id="text_4">
      <!-- 6 -->
      <defs>
       <path d="M 33.015625 40.375 
Q 26.375 40.375 22.484375 35.828125 
Q 18.609375 31.296875 18.609375 23.390625 
Q 18.609375 15.53125 22.484375 10.953125 
Q 26.375 6.390625 33.015625 6.390625 
Q 39.65625 6.390625 43.53125 10.953125 
Q 47.40625 15.53125 47.40625 23.390625 
Q 47.40625 31.296875 43.53125 35.828125 
Q 39.65625 40.375 33.015625 40.375 
z
M 52.59375 71.296875 
L 52.59375 62.3125 
Q 48.875 64.0625 45.09375 64.984375 
Q 41.3125 65.921875 37.59375 65.921875 
Q 27.828125 65.921875 22.671875 59.328125 
Q 17.53125 52.734375 16.796875 39.40625 
Q 19.671875 43.65625 24.015625 45.921875 
Q 28.375 48.1875 33.59375 48.1875 
Q 44.578125 48.1875 50.953125 41.515625 
Q 57.328125 34.859375 57.328125 23.390625 
Q 57.328125 12.15625 50.6875 5.359375 
Q 44.046875 -1.421875 33.015625 -1.421875 
Q 20.359375 -1.421875 13.671875 8.265625 
Q 6.984375 17.96875 6.984375 36.375 
Q 6.984375 53.65625 15.1875 63.9375 
Q 23.390625 74.21875 37.203125 74.21875 
Q 40.921875 74.21875 44.703125 73.484375 
Q 48.484375 72.75 52.59375 71.296875 
z
" id="DejaVuSans-36"/>
      </defs>
      <g transform="translate(352.891477 527.238438)scale(0.1 -0.1)">
       <use xlink:href="#DejaVuSans-36"/>
      </g>
     </g>
    </g>
    <g id="xtick_5">
     <g id="line2d_5">
      <g>
       <use style="stroke:#000000;stroke-width:0.8;" x="437.236364" xlink:href="#mf24d66d389" y="512.64"/>
      </g>
     </g>
     <g id="text_5">
      <!-- 8 -->
      <defs>
       <path d="M 31.78125 34.625 
Q 24.75 34.625 20.71875 30.859375 
Q 16.703125 27.09375 16.703125 20.515625 
Q 16.703125 13.921875 20.71875 10.15625 
Q 24.75 6.390625 31.78125 6.390625 
Q 38.8125 6.390625 42.859375 10.171875 
Q 46.921875 13.96875 46.921875 20.515625 
Q 46.921875 27.09375 42.890625 30.859375 
Q 38.875 34.625 31.78125 34.625 
z
M 21.921875 38.8125 
Q 15.578125 40.375 12.03125 44.71875 
Q 8.5 49.078125 8.5 55.328125 
Q 8.5 64.0625 14.71875 69.140625 
Q 20.953125 74.21875 31.78125 74.21875 
Q 42.671875 74.21875 48.875 69.140625 
Q 55.078125 64.0625 55.078125 55.328125 
Q 55.078125 49.078125 51.53125 44.71875 
Q 48 40.375 41.703125 38.8125 
Q 48.828125 37.15625 52.796875 32.3125 
Q 56.78125 27.484375 56.78125 20.515625 
Q 56.78125 9.90625 50.3125 4.234375 
Q 43.84375 -1.421875 31.78125 -1.421875 
Q 19.734375 -1.421875 13.25 4.234375 
Q 6.78125 9.90625 6.78125 20.515625 
Q 6.78125 27.484375 10.78125 32.3125 
Q 14.796875 37.15625 21.921875 38.8125 
z
M 18.3125 54.390625 
Q 18.3125 48.734375 21.84375 45.5625 
Q 25.390625 42.390625 31.78125 42.390625 
Q 38.140625 42.390625 41.71875 45.5625 
Q 45.3125 48.734375 45.3125 54.390625 
Q 45.3125 60.0625 41.71875 63.234375 
Q 38.140625 66.40625 31.78125 66.40625 
Q 25.390625 66.40625 21.84375 63.234375 
Q 18.3125 60.0625 18.3125 54.390625 
z
" id="DejaVuSans-38"/>
      </defs>
      <g transform="translate(434.055114 527.238438)scale(0.1 -0.1)">
       <use xlink:href="#DejaVuSans-38"/>
      </g>
     </g>
    </g>
    <g id="xtick_6">
     <g id="line2d_6">
      <g>
       <use style="stroke:#000000;stroke-width:0.8;" x="518.4" xlink:href="#mf24d66d389" y="512.64"/>
      </g>
     </g>
     <g id="text_6">
      <!-- 10 -->
      <defs>
       <path d="M 12.40625 8.296875 
L 28.515625 8.296875 
L 28.515625 63.921875 
L 10.984375 60.40625 
L 10.984375 69.390625 
L 28.421875 72.90625 
L 38.28125 72.90625 
L 38.28125 8.296875 
L 54.390625 8.296875 
L 54.390625 0 
L 12.40625 0 
z
" id="DejaVuSans-31"/>
      </defs>
      <g transform="translate(512.0375 527.238438)scale(0.1 -0.1)">
       <use xlink:href="#DejaVuSans-31"/>
       <use x="63.623047" xlink:href="#DejaVuSans-30"/>
      </g>
     </g>
    </g>
   </g>
   <g id="matplotlib.axis_2">
    <g id="ytick_1">
     <g id="line2d_7">
      <defs>
       <path d="M 0 0 
L -3.5 0 
" id="m28278cdd0e" style="stroke:#000000;stroke-width:0.8;"/>
      </defs>
      <g>
       <use style="stroke:#000000;stroke-width:0.8;" x="72" xlink:href="#m28278cdd0e" y="473.498182"/>
      </g>
     </g>
     <g id="text_7">
      <!-- 0 -->
      <g transform="translate(58.6375 477.297401)scale(0.1 -0.1)">
       <use xlink:href="#DejaVuSans-30"/>
      </g>
     </g>
    </g>
    <g id="ytick_2">
     <g id="line2d_8">
      <g>
       <use style="stroke:#000000;stroke-width:0.8;" x="72" xlink:href="#m28278cdd0e" y="392.334545"/>
      </g>
     </g>
     <g id="text_8">
      <!-- 2 -->
      <g transform="translate(58.6375 396.133764)scale(0.1 -0.1)">
       <use xlink:href="#DejaVuSans-32"/>
      </g>
     </g>
    </g>
    <g id="ytick_3">
     <g id="line2d_9">
      <g>
       <use style="stroke:#000000;stroke-width:0.8;" x="72" xlink:href="#m28278cdd0e" y="311.170909"/>
      </g>
     </g>
     <g id="text_9">
      <!-- 4 -->
      <g transform="translate(58.6375 314.970128)scale(0.1 -0.1)">
       <use xlink:href="#DejaVuSans-34"/>
      </g>
     </g>
    </g>
    <g id="ytick_4">
     <g id="line2d_10">
      <g>
       <use style="stroke:#000000;stroke-width:0.8;" x="72" xlink:href="#m28278cdd0e" y="230.007273"/>
      </g>
     </g>
     <g id="text_10">
      <!-- 6 -->
      <g transform="translate(58.6375 233.806491)scale(0.1 -0.1)">
       <use xlink:href="#DejaVuSans-36"/>
      </g>
     </g>
    </g>
    <g id="ytick_5">
     <g id="line2d_11">
      <g>
       <use style="stroke:#000000;stroke-width:0.8;" x="72" xlink:href="#m28278cdd0e" y="148.843636"/>
      </g>
     </g>
     <g id="text_11">
      <!-- 8 -->
      <g transform="translate(58.6375 152.642855)scale(0.1 -0.1)">
       <use xlink:href="#DejaVuSans-38"/>
      </g>
     </g>
    </g>
   </g>
   <g id="line2d_12">
    <path clip-path="url(#pbab4b120ff)" d="M 116.114801 454.615545 
" style="fill:none;stroke:#1f77b4;stroke-linecap:square;stroke-width:1.5;"/>
    <defs>
     <path d="M -5 5 
L 5 5 
L 5 -5 
L -5 -5 
z
" id="m6d27aeef9a" style="stroke:#8000ff;stroke-linejoin:miter;"/>
    </defs>
    <g clip-path="url(#pbab4b120ff)">
     <use style="fill:#8000ff;stroke:#8000ff;stroke-linejoin:miter;" x="116.114801" xlink:href="#m6d27aeef9a" y="454.615545"/>
    </g>
   </g>
   <g id="line2d_13">
    <path clip-path="url(#pbab4b120ff)" d="M 130.988396 154.945463 
" style="fill:none;stroke:#ff7f0e;stroke-linecap:square;stroke-width:1.5;"/>
    <defs>
     <path d="M 0 -5 
L -4.755283 -1.545085 
L -2.938926 4.045085 
L 2.938926 4.045085 
L 4.755283 -1.545085 
z
" id="mf1b374f3da" style="stroke:#8000ff;stroke-linejoin:miter;"/>
    </defs>
    <g clip-path="url(#pbab4b120ff)">
     <use style="fill:#8000ff;stroke:#8000ff;stroke-linejoin:miter;" x="130.988396" xlink:href="#mf1b374f3da" y="154.945463"/>
    </g>
   </g>
   <g id="line2d_14">
    <path clip-path="url(#pbab4b120ff)" d="M 184.747585 119.67981 
" style="fill:none;stroke:#2ca02c;stroke-linecap:square;stroke-width:1.5;"/>
    <defs>
     <path d="M -5 5 
L 5 5 
L 5 -5 
L -5 -5 
z
" id="m6fa5a47d3b" style="stroke:#376ff9;stroke-linejoin:miter;"/>
    </defs>
    <g clip-path="url(#pbab4b120ff)">
     <use style="fill:#376ff9;stroke:#376ff9;stroke-linejoin:miter;" x="184.747585" xlink:href="#m6fa5a47d3b" y="119.67981"/>
    </g>
   </g>
   <g id="line2d_15">
    <path clip-path="url(#pbab4b120ff)" d="M 403.995142 204.869589 
" style="fill:none;stroke:#d62728;stroke-linecap:square;stroke-width:1.5;"/>
    <defs>
     <path d="M 0 -5 
L -4.755283 -1.545085 
L -2.938926 4.045085 
L 2.938926 4.045085 
L 4.755283 -1.545085 
z
" id="mf3f0a96498" style="stroke:#376ff9;stroke-linejoin:miter;"/>
    </defs>
    <g clip-path="url(#pbab4b120ff)">
     <use style="fill:#376ff9;stroke:#376ff9;stroke-linejoin:miter;" x="403.995142" xlink:href="#mf3f0a96498" y="204.869589"/>
    </g>
   </g>
   <g id="line2d_16">
    <path clip-path="url(#pbab4b120ff)" d="M 112.823401 268.043785 
" style="fill:none;stroke:#9467bd;stroke-linecap:square;stroke-width:1.5;"/>
    <defs>
     <path d="M -5 5 
L 5 5 
L 5 -5 
L -5 -5 
z
" id="m6ff79e5d60" style="stroke:#12c7e6;stroke-linejoin:miter;"/>
    </defs>
    <g clip-path="url(#pbab4b120ff)">
     <use style="fill:#12c7e6;stroke:#12c7e6;stroke-linejoin:miter;" x="112.823401" xlink:href="#m6ff79e5d60" y="268.043785"/>
    </g>
   </g>
   <g id="line2d_17">
    <path clip-path="url(#pbab4b120ff)" d="M 403.75845 400.323713 
" style="fill:none;stroke:#8c564b;stroke-linecap:square;stroke-width:1.5;"/>
    <defs>
     <path d="M 0 -5 
L -4.755283 -1.545085 
L -2.938926 4.045085 
L 2.938926 4.045085 
L 4.755283 -1.545085 
z
" id="m4172f010a4" style="stroke:#12c7e6;stroke-linejoin:miter;"/>
    </defs>
    <g clip-path="url(#pbab4b120ff)">
     <use style="fill:#12c7e6;stroke:#12c7e6;stroke-linejoin:miter;" x="403.75845" xlink:href="#m4172f010a4" y="400.323713"/>
    </g>
   </g>
   <g id="line2d_18">
    <path clip-path="url(#pbab4b120ff)" d="M 172.780527 338.565659 
" style="fill:none;stroke:#e377c2;stroke-linecap:square;stroke-width:1.5;"/>
    <defs>
     <path d="M -5 5 
L 5 5 
L 5 -5 
L -5 -5 
z
" id="m517054ceed" style="stroke:#5bf9c7;stroke-linejoin:miter;"/>
    </defs>
    <g clip-path="url(#pbab4b120ff)">
     <use style="fill:#5bf9c7;stroke:#5bf9c7;stroke-linejoin:miter;" x="172.780527" xlink:href="#m517054ceed" y="338.565659"/>
    </g>
   </g>
   <g id="line2d_19">
    <path clip-path="url(#pbab4b120ff)" d="M 453.899748 409.635656 
" style="fill:none;stroke:#7f7f7f;stroke-linecap:square;stroke-width:1.5;"/>
    <defs>
     <path d="M 0 -5 
L -4.755283 -1.545085 
L -2.938926 4.045085 
L 2.938926 4.045085 
L 4.755283 -1.545085 
z
" id="m44dbdf4180" style="stroke:#5bf9c7;stroke-linejoin:miter;"/>
    </defs>
    <g clip-path="url(#pbab4b120ff)">
     <use style="fill:#5bf9c7;stroke:#5bf9c7;stroke-linejoin:miter;" x="453.899748" xlink:href="#m44dbdf4180" y="409.635656"/>
    </g>
   </g>
   <g id="line2d_20">
    <path clip-path="url(#pbab4b120ff)" d="M 278.646294 443.951766 
" style="fill:none;stroke:#bcbd22;stroke-linecap:square;stroke-width:1.5;"/>
    <defs>
     <path d="M -5 5 
L 5 5 
L 5 -5 
L -5 -5 
z
" id="mce9c3df8f5" style="stroke:#a4f99f;stroke-linejoin:miter;"/>
    </defs>
    <g clip-path="url(#pbab4b120ff)">
     <use style="fill:#a4f99f;stroke:#a4f99f;stroke-linejoin:miter;" x="278.646294" xlink:href="#mce9c3df8f5" y="443.951766"/>
    </g>
   </g>
   <g id="line2d_21">
    <path clip-path="url(#pbab4b120ff)" d="M 217.4613 163.874344 
" style="fill:none;stroke:#17becf;stroke-linecap:square;stroke-width:1.5;"/>
    <defs>
     <path d="M 0 -5 
L -4.755283 -1.545085 
L -2.938926 4.045085 
L 2.938926 4.045085 
L 4.755283 -1.545085 
z
" id="m2da7022ee7" style="stroke:#a4f99f;stroke-linejoin:miter;"/>
    </defs>
    <g clip-path="url(#pbab4b120ff)">
     <use style="fill:#a4f99f;stroke:#a4f99f;stroke-linejoin:miter;" x="217.4613" xlink:href="#m2da7022ee7" y="163.874344"/>
    </g>
   </g>
   <g id="line2d_22">
    <path clip-path="url(#pbab4b120ff)" d="M 448.787559 170.08228 
" style="fill:none;stroke:#1f77b4;stroke-linecap:square;stroke-width:1.5;"/>
    <defs>
     <path d="M -5 5 
L 5 5 
L 5 -5 
L -5 -5 
z
" id="m5d3a5eb33a" style="stroke:#edc76f;stroke-linejoin:miter;"/>
    </defs>
    <g clip-path="url(#pbab4b120ff)">
     <use style="fill:#edc76f;stroke:#edc76f;stroke-linejoin:miter;" x="448.787559" xlink:href="#m5d3a5eb33a" y="170.08228"/>
    </g>
   </g>
   <g id="line2d_23">
    <path clip-path="url(#pbab4b120ff)" d="M 226.844541 456.070134 
" style="fill:none;stroke:#ff7f0e;stroke-linecap:square;stroke-width:1.5;"/>
    <defs>
     <path d="M 0 -5 
L -4.755283 -1.545085 
L -2.938926 4.045085 
L 2.938926 4.045085 
L 4.755283 -1.545085 
z
" id="m61528e625e" style="stroke:#edc76f;stroke-linejoin:miter;"/>
    </defs>
    <g clip-path="url(#pbab4b120ff)">
     <use style="fill:#edc76f;stroke:#edc76f;stroke-linejoin:miter;" x="226.844541" xlink:href="#m61528e625e" y="456.070134"/>
    </g>
   </g>
   <g id="line2d_24">
    <path clip-path="url(#pbab4b120ff)" d="M 298.946701 301.218585 
" style="fill:none;stroke:#2ca02c;stroke-linecap:square;stroke-width:1.5;"/>
    <defs>
     <path d="M -5 5 
L 5 5 
L 5 -5 
L -5 -5 
z
" id="m9e518214fb" style="stroke:#ff6f39;stroke-linejoin:miter;"/>
    </defs>
    <g clip-path="url(#pbab4b120ff)">
     <use style="fill:#ff6f39;stroke:#ff6f39;stroke-linejoin:miter;" x="298.946701" xlink:href="#m9e518214fb" y="301.218585"/>
    </g>
   </g>
   <g id="line2d_25">
    <path clip-path="url(#pbab4b120ff)" d="M 439.054848 450.412402 
" style="fill:none;stroke:#d62728;stroke-linecap:square;stroke-width:1.5;"/>
    <defs>
     <path d="M 0 -5 
L -4.755283 -1.545085 
L -2.938926 4.045085 
L 2.938926 4.045085 
L 4.755283 -1.545085 
z
" id="m003e8db942" style="stroke:#ff6f39;stroke-linejoin:miter;"/>
    </defs>
    <g clip-path="url(#pbab4b120ff)">
     <use style="fill:#ff6f39;stroke:#ff6f39;stroke-linejoin:miter;" x="439.054848" xlink:href="#m003e8db942" y="450.412402"/>
    </g>
   </g>
   <g id="line2d_26">
    <path clip-path="url(#pbab4b120ff)" d="M 151.716126 412.507783 
" style="fill:none;stroke:#9467bd;stroke-linecap:square;stroke-width:1.5;"/>
    <defs>
     <path d="M -5 5 
L 5 5 
L 5 -5 
L -5 -5 
z
" id="m700593df1f" style="stroke:#ff0000;stroke-linejoin:miter;"/>
    </defs>
    <g clip-path="url(#pbab4b120ff)">
     <use style="fill:#ff0000;stroke:#ff0000;stroke-linejoin:miter;" x="151.716126" xlink:href="#m700593df1f" y="412.507783"/>
    </g>
   </g>
   <g id="line2d_27">
    <path clip-path="url(#pbab4b120ff)" d="M 282.930102 163.737108 
" style="fill:none;stroke:#8c564b;stroke-linecap:square;stroke-width:1.5;"/>
    <defs>
     <path d="M 0 -5 
L -4.755283 -1.545085 
L -2.938926 4.045085 
L 2.938926 4.045085 
L 4.755283 -1.545085 
z
" id="me301949994" style="stroke:#ff0000;stroke-linejoin:miter;"/>
    </defs>
    <g clip-path="url(#pbab4b120ff)">
     <use style="fill:#ff0000;stroke:#ff0000;stroke-linejoin:miter;" x="282.930102" xlink:href="#me301949994" y="163.737108"/>
    </g>
   </g>
   <g id="line2d_28">
    <defs>
     <path d="M 0 2.5 
C 0.663008 2.5 1.29895 2.236584 1.767767 1.767767 
C 2.236584 1.29895 2.5 0.663008 2.5 0 
C 2.5 -0.663008 2.236584 -1.29895 1.767767 -1.767767 
C 1.29895 -2.236584 0.663008 -2.5 0 -2.5 
C -0.663008 -2.5 -1.29895 -2.236584 -1.767767 -1.767767 
C -2.236584 -1.29895 -2.5 -0.663008 -2.5 0 
C -2.5 0.663008 -2.236584 1.29895 -1.767767 1.767767 
C -1.29895 2.236584 -0.663008 2.5 0 2.5 
z
" id="md67c838cf0" style="stroke:#000000;"/>
    </defs>
    <g clip-path="url(#pbab4b120ff)">
     <use style="stroke:#000000;" x="116.272431" xlink:href="#md67c838cf0" y="327.38933"/>
     <use style="stroke:#000000;" x="446.918941" xlink:href="#md67c838cf0" y="127.550988"/>
     <use style="stroke:#000000;" x="275.214903" xlink:href="#md67c838cf0" y="116.99935"/>
     <use style="stroke:#000000;" x="473.574783" xlink:href="#md67c838cf0" y="359.557077"/>
     <use style="stroke:#000000;" x="437.460128" xlink:href="#md67c838cf0" y="311.307098"/>
     <use style="stroke:#000000;" x="397.261665" xlink:href="#md67c838cf0" y="147.298641"/>
     <use style="stroke:#000000;" x="186.983727" xlink:href="#md67c838cf0" y="241.342549"/>
     <use style="stroke:#000000;" x="417.514056" xlink:href="#md67c838cf0" y="264.566326"/>
     <use style="stroke:#000000;" x="255.327565" xlink:href="#md67c838cf0" y="202.984046"/>
     <use style="stroke:#000000;" x="365.697124" xlink:href="#md67c838cf0" y="281.917127"/>
     <use style="stroke:#000000;" x="345.107789" xlink:href="#md67c838cf0" y="255.687739"/>
     <use style="stroke:#000000;" x="240.139484" xlink:href="#md67c838cf0" y="406.798036"/>
     <use style="stroke:#000000;" x="379.178587" xlink:href="#md67c838cf0" y="163.83577"/>
     <use style="stroke:#000000;" x="330.444938" xlink:href="#md67c838cf0" y="231.573427"/>
     <use style="stroke:#000000;" x="302.453106" xlink:href="#md67c838cf0" y="216.93215"/>
     <use style="stroke:#000000;" x="354.524102" xlink:href="#md67c838cf0" y="178.454597"/>
     <use style="stroke:#000000;" x="383.783718" xlink:href="#md67c838cf0" y="306.590205"/>
     <use style="stroke:#000000;" x="354.410758" xlink:href="#md67c838cf0" y="127.504992"/>
     <use style="stroke:#000000;" x="325.645176" xlink:href="#md67c838cf0" y="443.940528"/>
     <use style="stroke:#000000;" x="244.823752" xlink:href="#md67c838cf0" y="240.454739"/>
     <use style="stroke:#000000;" x="173.810042" xlink:href="#md67c838cf0" y="172.774492"/>
     <use style="stroke:#000000;" x="274.573833" xlink:href="#md67c838cf0" y="233.981565"/>
    </g>
   </g>
   <g id="line2d_29">
    <path clip-path="url(#pbab4b120ff)" d="M 132.505158 327.38933 
L 131.625624 322.118572 
L 129.082333 317.418982 
L 125.150891 313.799835 
L 120.25733 311.65332 
L 114.931943 311.212045 
L 109.751818 312.523831 
L 105.278304 315.446524 
L 101.996173 319.663406 
L 100.261097 324.717511 
L 100.261097 330.061149 
L 101.996173 335.115254 
L 105.278304 339.332135 
L 109.751818 342.254828 
L 114.931943 343.566614 
L 120.25733 343.12534 
L 125.150891 340.978825 
L 129.082333 337.359677 
L 131.625624 332.660088 
L 132.505158 327.38933 
" style="fill:none;stroke:#000000;stroke-dasharray:5.55,2.4;stroke-dashoffset:0;stroke-width:1.5;"/>
   </g>
   <g id="line2d_30">
    <path clip-path="url(#pbab4b120ff)" d="M 120.736431 327.38933 
L 120.494559 325.939871 
L 119.795154 324.647484 
L 118.714007 323.652219 
L 117.368278 323.061927 
L 115.903796 322.940577 
L 114.479262 323.301318 
L 113.249046 324.105058 
L 112.34646 325.264701 
L 111.869314 326.654579 
L 111.869314 328.12408 
L 112.34646 329.513959 
L 113.249046 330.673601 
L 114.479262 331.477342 
L 115.903796 331.838083 
L 117.368278 331.716733 
L 118.714007 331.126441 
L 119.795154 330.131175 
L 120.494559 328.838788 
L 120.736431 327.38933 
" style="fill:none;stroke:#ff0000;stroke-linecap:square;stroke-width:1.5;"/>
   </g>
   <g id="line2d_31">
    <path clip-path="url(#pbab4b120ff)" d="M 463.151668 127.550988 
L 462.272134 122.280231 
L 459.728844 117.580641 
L 455.797401 113.961493 
L 450.90384 111.814978 
L 445.578453 111.373704 
L 440.398329 112.68549 
L 435.924814 115.608183 
L 432.642684 119.825064 
L 430.907607 124.879169 
L 430.907607 130.222808 
L 432.642684 135.276913 
L 435.924814 139.493794 
L 440.398329 142.416487 
L 445.578453 143.728273 
L 450.90384 143.286999 
L 455.797401 141.140484 
L 459.728844 137.521336 
L 462.272134 132.821746 
L 463.151668 127.550988 
" style="fill:none;stroke:#000000;stroke-dasharray:5.55,2.4;stroke-dashoffset:0;stroke-width:1.5;"/>
   </g>
   <g id="line2d_32">
    <path clip-path="url(#pbab4b120ff)" d="M 451.382941 127.550988 
L 451.141069 126.10153 
L 450.441664 124.809143 
L 449.360518 123.813877 
L 448.014788 123.223586 
L 446.550307 123.102235 
L 445.125773 123.462976 
L 443.895556 124.266717 
L 442.99297 125.426359 
L 442.515824 126.816238 
L 442.515824 128.285739 
L 442.99297 129.675618 
L 443.895556 130.83526 
L 445.125773 131.639001 
L 446.550307 131.999742 
L 448.014788 131.878391 
L 449.360518 131.2881 
L 450.441664 130.292834 
L 451.141069 129.000447 
L 451.382941 127.550988 
" style="fill:none;stroke:#ff0000;stroke-linecap:square;stroke-width:1.5;"/>
   </g>
   <g id="line2d_33">
    <path clip-path="url(#pbab4b120ff)" d="M 291.44763 116.99935 
L 290.568097 111.728592 
L 288.024806 107.029002 
L 284.093363 103.409855 
L 279.199802 101.26334 
L 273.874415 100.822066 
L 268.694291 102.133851 
L 264.220776 105.056544 
L 260.938646 109.273426 
L 259.203569 114.327531 
L 259.203569 119.671169 
L 260.938646 124.725274 
L 264.220776 128.942156 
L 268.694291 131.864849 
L 273.874415 133.176634 
L 279.199802 132.73536 
L 284.093363 130.588845 
L 288.024806 126.969697 
L 290.568097 122.270108 
L 291.44763 116.99935 
" style="fill:none;stroke:#000000;stroke-dasharray:5.55,2.4;stroke-dashoffset:0;stroke-width:1.5;"/>
   </g>
   <g id="line2d_34">
    <path clip-path="url(#pbab4b120ff)" d="M 279.678903 116.99935 
L 279.437031 115.549892 
L 278.737626 114.257504 
L 277.65648 113.262239 
L 276.31075 112.671947 
L 274.846269 112.550597 
L 273.421735 112.911338 
L 272.191518 113.715078 
L 271.288932 114.874721 
L 270.811786 116.2646 
L 270.811786 117.7341 
L 271.288932 119.123979 
L 272.191518 120.283621 
L 273.421735 121.087362 
L 274.846269 121.448103 
L 276.31075 121.326753 
L 277.65648 120.736461 
L 278.737626 119.741195 
L 279.437031 118.448808 
L 279.678903 116.99935 
" style="fill:none;stroke:#ff0000;stroke-linecap:square;stroke-width:1.5;"/>
   </g>
   <g id="line2d_35">
    <path clip-path="url(#pbab4b120ff)" d="M 489.80751 359.557077 
L 488.927976 354.286319 
L 486.384686 349.586729 
L 482.453243 345.967581 
L 477.559682 343.821066 
L 472.234295 343.379792 
L 467.054171 344.691578 
L 462.580656 347.614271 
L 459.298526 351.831152 
L 457.563449 356.885257 
L 457.563449 362.228896 
L 459.298526 367.283001 
L 462.580656 371.499882 
L 467.054171 374.422575 
L 472.234295 375.734361 
L 477.559682 375.293087 
L 482.453243 373.146572 
L 486.384686 369.527424 
L 488.927976 364.827835 
L 489.80751 359.557077 
" style="fill:none;stroke:#000000;stroke-dasharray:5.55,2.4;stroke-dashoffset:0;stroke-width:1.5;"/>
   </g>
   <g id="line2d_36">
    <path clip-path="url(#pbab4b120ff)" d="M 478.038783 359.557077 
L 477.796911 358.107618 
L 477.097506 356.815231 
L 476.01636 355.819965 
L 474.67063 355.229674 
L 473.206149 355.108323 
L 471.781615 355.469064 
L 470.551398 356.272805 
L 469.648812 357.432447 
L 469.171666 358.822326 
L 469.171666 360.291827 
L 469.648812 361.681706 
L 470.551398 362.841348 
L 471.781615 363.645089 
L 473.206149 364.00583 
L 474.67063 363.884479 
L 476.01636 363.294188 
L 477.097506 362.298922 
L 477.796911 361.006535 
L 478.038783 359.557077 
" style="fill:none;stroke:#ff0000;stroke-linecap:square;stroke-width:1.5;"/>
   </g>
   <g id="line2d_37">
    <path clip-path="url(#pbab4b120ff)" d="M 453.692856 311.307098 
L 452.813322 306.03634 
L 450.270031 301.336751 
L 446.338589 297.717603 
L 441.445027 295.571088 
L 436.11964 295.129814 
L 430.939516 296.441599 
L 426.466001 299.364292 
L 423.183871 303.581174 
L 421.448794 308.635279 
L 421.448794 313.978917 
L 423.183871 319.033022 
L 426.466001 323.249904 
L 430.939516 326.172597 
L 436.11964 327.484382 
L 441.445027 327.043108 
L 446.338589 324.896593 
L 450.270031 321.277446 
L 452.813322 316.577856 
L 453.692856 311.307098 
" style="fill:none;stroke:#000000;stroke-dasharray:5.55,2.4;stroke-dashoffset:0;stroke-width:1.5;"/>
   </g>
   <g id="line2d_38">
    <path clip-path="url(#pbab4b120ff)" d="M 441.924128 311.307098 
L 441.682256 309.85764 
L 440.982852 308.565253 
L 439.901705 307.569987 
L 438.555976 306.979695 
L 437.091494 306.858345 
L 435.66696 307.219086 
L 434.436743 308.022827 
L 433.534158 309.182469 
L 433.057011 310.572348 
L 433.057011 312.041848 
L 433.534158 313.431727 
L 434.436743 314.59137 
L 435.66696 315.39511 
L 437.091494 315.755851 
L 438.555976 315.634501 
L 439.901705 315.044209 
L 440.982852 314.048944 
L 441.682256 312.756557 
L 441.924128 311.307098 
" style="fill:none;stroke:#ff0000;stroke-linecap:square;stroke-width:1.5;"/>
   </g>
   <g id="line2d_39">
    <path clip-path="url(#pbab4b120ff)" d="M 413.494392 147.298641 
L 412.614858 142.027883 
L 410.071568 137.328294 
L 406.140125 133.709146 
L 401.246564 131.562631 
L 395.921177 131.121357 
L 390.741053 132.433142 
L 386.267538 135.355835 
L 382.985408 139.572717 
L 381.250331 144.626822 
L 381.250331 149.97046 
L 382.985408 155.024565 
L 386.267538 159.241447 
L 390.741053 162.16414 
L 395.921177 163.475925 
L 401.246564 163.034651 
L 406.140125 160.888136 
L 410.071568 157.268988 
L 412.614858 152.569399 
L 413.494392 147.298641 
" style="fill:none;stroke:#000000;stroke-dasharray:5.55,2.4;stroke-dashoffset:0;stroke-width:1.5;"/>
   </g>
   <g id="line2d_40">
    <path clip-path="url(#pbab4b120ff)" d="M 401.725665 147.298641 
L 401.483793 145.849183 
L 400.784388 144.556795 
L 399.703242 143.56153 
L 398.357512 142.971238 
L 396.893031 142.849888 
L 395.468497 143.210629 
L 394.23828 144.014369 
L 393.335694 145.174012 
L 392.858548 146.563891 
L 392.858548 148.033391 
L 393.335694 149.42327 
L 394.23828 150.582913 
L 395.468497 151.386653 
L 396.893031 151.747394 
L 398.357512 151.626044 
L 399.703242 151.035752 
L 400.784388 150.040487 
L 401.483793 148.748099 
L 401.725665 147.298641 
" style="fill:none;stroke:#ff0000;stroke-linecap:square;stroke-width:1.5;"/>
   </g>
   <g id="line2d_41">
    <path clip-path="url(#pbab4b120ff)" d="M 203.216454 241.342549 
L 202.336921 236.071791 
L 199.79363 231.372201 
L 195.862187 227.753053 
L 190.968626 225.606538 
L 185.643239 225.165264 
L 180.463115 226.47705 
L 175.9896 229.399743 
L 172.70747 233.616624 
L 170.972393 238.670729 
L 170.972393 244.014368 
L 172.70747 249.068473 
L 175.9896 253.285354 
L 180.463115 256.208047 
L 185.643239 257.519833 
L 190.968626 257.078559 
L 195.862187 254.932044 
L 199.79363 251.312896 
L 202.336921 246.613306 
L 203.216454 241.342549 
" style="fill:none;stroke:#000000;stroke-dasharray:5.55,2.4;stroke-dashoffset:0;stroke-width:1.5;"/>
   </g>
   <g id="line2d_42">
    <path clip-path="url(#pbab4b120ff)" d="M 191.447727 241.342549 
L 191.205855 239.89309 
L 190.50645 238.600703 
L 189.425304 237.605437 
L 188.079574 237.015146 
L 186.615093 236.893795 
L 185.190559 237.254536 
L 183.960342 238.058277 
L 183.057756 239.217919 
L 182.58061 240.607798 
L 182.58061 242.077299 
L 183.057756 243.467178 
L 183.960342 244.62682 
L 185.190559 245.430561 
L 186.615093 245.791302 
L 188.079574 245.669951 
L 189.425304 245.07966 
L 190.50645 244.084394 
L 191.205855 242.792007 
L 191.447727 241.342549 
" style="fill:none;stroke:#ff0000;stroke-linecap:square;stroke-width:1.5;"/>
   </g>
   <g id="line2d_43">
    <path clip-path="url(#pbab4b120ff)" d="M 433.746784 264.566326 
L 432.86725 259.295569 
L 430.323959 254.595979 
L 426.392517 250.976831 
L 421.498955 248.830316 
L 416.173568 248.389042 
L 410.993444 249.700828 
L 406.519929 252.623521 
L 403.237799 256.840402 
L 401.502722 261.894507 
L 401.502722 267.238146 
L 403.237799 272.292251 
L 406.519929 276.509132 
L 410.993444 279.431825 
L 416.173568 280.743611 
L 421.498955 280.302337 
L 426.392517 278.155822 
L 430.323959 274.536674 
L 432.86725 269.837084 
L 433.746784 264.566326 
" style="fill:none;stroke:#000000;stroke-dasharray:5.55,2.4;stroke-dashoffset:0;stroke-width:1.5;"/>
   </g>
   <g id="line2d_44">
    <path clip-path="url(#pbab4b120ff)" d="M 421.978056 264.566326 
L 421.736184 263.116868 
L 421.036779 261.824481 
L 419.955633 260.829215 
L 418.609903 260.238924 
L 417.145422 260.117573 
L 415.720888 260.478314 
L 414.490671 261.282055 
L 413.588085 262.441697 
L 413.110939 263.831576 
L 413.110939 265.301077 
L 413.588085 266.690956 
L 414.490671 267.850598 
L 415.720888 268.654339 
L 417.145422 269.01508 
L 418.609903 268.893729 
L 419.955633 268.303438 
L 421.036779 267.308172 
L 421.736184 266.015785 
L 421.978056 264.566326 
" style="fill:none;stroke:#ff0000;stroke-linecap:square;stroke-width:1.5;"/>
   </g>
   <g id="line2d_45">
    <path clip-path="url(#pbab4b120ff)" d="M 271.560292 202.984046 
L 270.680758 197.713288 
L 268.137467 193.013698 
L 264.206025 189.394551 
L 259.312464 187.248036 
L 253.987077 186.806761 
L 248.806952 188.118547 
L 244.333438 191.04124 
L 241.051307 195.258121 
L 239.316231 200.312227 
L 239.316231 205.655865 
L 241.051307 210.70997 
L 244.333438 214.926851 
L 248.806952 217.849544 
L 253.987077 219.16133 
L 259.312464 218.720056 
L 264.206025 216.573541 
L 268.137467 212.954393 
L 270.680758 208.254804 
L 271.560292 202.984046 
" style="fill:none;stroke:#000000;stroke-dasharray:5.55,2.4;stroke-dashoffset:0;stroke-width:1.5;"/>
   </g>
   <g id="line2d_46">
    <path clip-path="url(#pbab4b120ff)" d="M 259.791565 202.984046 
L 259.549693 201.534587 
L 258.850288 200.2422 
L 257.769141 199.246935 
L 256.423412 198.656643 
L 254.95893 198.535293 
L 253.534396 198.896034 
L 252.30418 199.699774 
L 251.401594 200.859417 
L 250.924448 202.249295 
L 250.924448 203.718796 
L 251.401594 205.108675 
L 252.30418 206.268317 
L 253.534396 207.072058 
L 254.95893 207.432799 
L 256.423412 207.311448 
L 257.769141 206.721157 
L 258.850288 205.725891 
L 259.549693 204.433504 
L 259.791565 202.984046 
" style="fill:none;stroke:#ff0000;stroke-linecap:square;stroke-width:1.5;"/>
   </g>
   <g id="line2d_47">
    <path clip-path="url(#pbab4b120ff)" d="M 381.929851 281.917127 
L 381.050317 276.646369 
L 378.507026 271.94678 
L 374.575584 268.327632 
L 369.682023 266.181117 
L 364.356636 265.739843 
L 359.176511 267.051629 
L 354.702997 269.974322 
L 351.420866 274.191203 
L 349.68579 279.245308 
L 349.68579 284.588946 
L 351.420866 289.643051 
L 354.702997 293.859933 
L 359.176511 296.782626 
L 364.356636 298.094411 
L 369.682023 297.653137 
L 374.575584 295.506622 
L 378.507026 291.887475 
L 381.050317 287.187885 
L 381.929851 281.917127 
" style="fill:none;stroke:#000000;stroke-dasharray:5.55,2.4;stroke-dashoffset:0;stroke-width:1.5;"/>
   </g>
   <g id="line2d_48">
    <path clip-path="url(#pbab4b120ff)" d="M 370.161124 281.917127 
L 369.919252 280.467669 
L 369.219847 279.175282 
L 368.1387 278.180016 
L 366.792971 277.589724 
L 365.32849 277.468374 
L 363.903955 277.829115 
L 362.673739 278.632856 
L 361.771153 279.792498 
L 361.294007 281.182377 
L 361.294007 282.651877 
L 361.771153 284.041756 
L 362.673739 285.201399 
L 363.903955 286.005139 
L 365.32849 286.36588 
L 366.792971 286.24453 
L 368.1387 285.654238 
L 369.219847 284.658973 
L 369.919252 283.366586 
L 370.161124 281.917127 
" style="fill:none;stroke:#ff0000;stroke-linecap:square;stroke-width:1.5;"/>
   </g>
   <g id="line2d_49">
    <path clip-path="url(#pbab4b120ff)" d="M 361.340516 255.687739 
L 360.460982 250.416981 
L 357.917691 245.717391 
L 353.986249 242.098243 
L 349.092688 239.951728 
L 343.767301 239.510454 
L 338.587177 240.82224 
L 334.113662 243.744933 
L 330.831531 247.961814 
L 329.096455 253.01592 
L 329.096455 258.359558 
L 330.831531 263.413663 
L 334.113662 267.630544 
L 338.587177 270.553237 
L 343.767301 271.865023 
L 349.092688 271.423749 
L 353.986249 269.277234 
L 357.917691 265.658086 
L 360.460982 260.958497 
L 361.340516 255.687739 
" style="fill:none;stroke:#000000;stroke-dasharray:5.55,2.4;stroke-dashoffset:0;stroke-width:1.5;"/>
   </g>
   <g id="line2d_50">
    <path clip-path="url(#pbab4b120ff)" d="M 349.571789 255.687739 
L 349.329917 254.23828 
L 348.630512 252.945893 
L 347.549365 251.950627 
L 346.203636 251.360336 
L 344.739155 251.238985 
L 343.31462 251.599726 
L 342.084404 252.403467 
L 341.181818 253.563109 
L 340.704672 254.952988 
L 340.704672 256.422489 
L 341.181818 257.812368 
L 342.084404 258.97201 
L 343.31462 259.775751 
L 344.739155 260.136492 
L 346.203636 260.015141 
L 347.549365 259.42485 
L 348.630512 258.429584 
L 349.329917 257.137197 
L 349.571789 255.687739 
" style="fill:none;stroke:#ff0000;stroke-linecap:square;stroke-width:1.5;"/>
   </g>
   <g id="line2d_51">
    <path clip-path="url(#pbab4b120ff)" d="M 256.372212 406.798036 
L 255.492678 401.527278 
L 252.949387 396.827689 
L 249.017945 393.208541 
L 244.124383 391.062026 
L 238.798996 390.620752 
L 233.618872 391.932538 
L 229.145357 394.855231 
L 225.863227 399.072112 
L 224.12815 404.126217 
L 224.12815 409.469855 
L 225.863227 414.52396 
L 229.145357 418.740842 
L 233.618872 421.663535 
L 238.798996 422.975321 
L 244.124383 422.534046 
L 249.017945 420.387531 
L 252.949387 416.768384 
L 255.492678 412.068794 
L 256.372212 406.798036 
" style="fill:none;stroke:#000000;stroke-dasharray:5.55,2.4;stroke-dashoffset:0;stroke-width:1.5;"/>
   </g>
   <g id="line2d_52">
    <path clip-path="url(#pbab4b120ff)" d="M 244.603484 406.798036 
L 244.361612 405.348578 
L 243.662208 404.056191 
L 242.581061 403.060925 
L 241.235332 402.470633 
L 239.77085 402.349283 
L 238.346316 402.710024 
L 237.116099 403.513765 
L 236.213513 404.673407 
L 235.736367 406.063286 
L 235.736367 407.532787 
L 236.213513 408.922665 
L 237.116099 410.082308 
L 238.346316 410.886048 
L 239.77085 411.246789 
L 241.235332 411.125439 
L 242.581061 410.535147 
L 243.662208 409.539882 
L 244.361612 408.247495 
L 244.603484 406.798036 
" style="fill:none;stroke:#ff0000;stroke-linecap:square;stroke-width:1.5;"/>
   </g>
   <g id="line2d_53">
    <path clip-path="url(#pbab4b120ff)" d="M 395.411315 163.83577 
L 394.531781 158.565012 
L 391.98849 153.865422 
L 388.057048 150.246275 
L 383.163486 148.09976 
L 377.838099 147.658486 
L 372.657975 148.970271 
L 368.18446 151.892964 
L 364.90233 156.109846 
L 363.167253 161.163951 
L 363.167253 166.507589 
L 364.90233 171.561694 
L 368.18446 175.778575 
L 372.657975 178.701269 
L 377.838099 180.013054 
L 383.163486 179.57178 
L 388.057048 177.425265 
L 391.98849 173.806117 
L 394.531781 169.106528 
L 395.411315 163.83577 
" style="fill:none;stroke:#000000;stroke-dasharray:5.55,2.4;stroke-dashoffset:0;stroke-width:1.5;"/>
   </g>
   <g id="line2d_54">
    <path clip-path="url(#pbab4b120ff)" d="M 383.642587 163.83577 
L 383.400716 162.386311 
L 382.701311 161.093924 
L 381.620164 160.098659 
L 380.274435 159.508367 
L 378.809953 159.387017 
L 377.385419 159.747758 
L 376.155202 160.551498 
L 375.252617 161.711141 
L 374.775471 163.10102 
L 374.775471 164.57052 
L 375.252617 165.960399 
L 376.155202 167.120041 
L 377.385419 167.923782 
L 378.809953 168.284523 
L 380.274435 168.163173 
L 381.620164 167.572881 
L 382.701311 166.577615 
L 383.400716 165.285228 
L 383.642587 163.83577 
" style="fill:none;stroke:#ff0000;stroke-linecap:square;stroke-width:1.5;"/>
   </g>
   <g id="line2d_55">
    <path clip-path="url(#pbab4b120ff)" d="M 346.677665 231.573427 
L 345.798131 226.302669 
L 343.254841 221.603079 
L 339.323398 217.983932 
L 334.429837 215.837417 
L 329.10445 215.396143 
L 323.924326 216.707928 
L 319.450811 219.630621 
L 316.168681 223.847503 
L 314.433604 228.901608 
L 314.433604 234.245246 
L 316.168681 239.299351 
L 319.450811 243.516232 
L 323.924326 246.438925 
L 329.10445 247.750711 
L 334.429837 247.309437 
L 339.323398 245.162922 
L 343.254841 241.543774 
L 345.798131 236.844185 
L 346.677665 231.573427 
" style="fill:none;stroke:#000000;stroke-dasharray:5.55,2.4;stroke-dashoffset:0;stroke-width:1.5;"/>
   </g>
   <g id="line2d_56">
    <path clip-path="url(#pbab4b120ff)" d="M 334.908938 231.573427 
L 334.667066 230.123968 
L 333.967661 228.831581 
L 332.886515 227.836316 
L 331.540785 227.246024 
L 330.076304 227.124674 
L 328.65177 227.485415 
L 327.421553 228.289155 
L 326.518967 229.448798 
L 326.041821 230.838677 
L 326.041821 232.308177 
L 326.518967 233.698056 
L 327.421553 234.857698 
L 328.65177 235.661439 
L 330.076304 236.02218 
L 331.540785 235.90083 
L 332.886515 235.310538 
L 333.967661 234.315272 
L 334.667066 233.022885 
L 334.908938 231.573427 
" style="fill:none;stroke:#ff0000;stroke-linecap:square;stroke-width:1.5;"/>
   </g>
   <g id="line2d_57">
    <path clip-path="url(#pbab4b120ff)" d="M 318.685833 216.93215 
L 317.806299 211.661392 
L 315.263009 206.961803 
L 311.331566 203.342655 
L 306.438005 201.19614 
L 301.112618 200.754866 
L 295.932494 202.066651 
L 291.458979 204.989344 
L 288.176849 209.206226 
L 286.441772 214.260331 
L 286.441772 219.603969 
L 288.176849 224.658074 
L 291.458979 228.874956 
L 295.932494 231.797649 
L 301.112618 233.109434 
L 306.438005 232.66816 
L 311.331566 230.521645 
L 315.263009 226.902498 
L 317.806299 222.202908 
L 318.685833 216.93215 
" style="fill:none;stroke:#000000;stroke-dasharray:5.55,2.4;stroke-dashoffset:0;stroke-width:1.5;"/>
   </g>
   <g id="line2d_58">
    <path clip-path="url(#pbab4b120ff)" d="M 306.917106 216.93215 
L 306.675234 215.482692 
L 305.975829 214.190305 
L 304.894683 213.195039 
L 303.548953 212.604747 
L 302.084472 212.483397 
L 300.659938 212.844138 
L 299.429721 213.647879 
L 298.527135 214.807521 
L 298.049989 216.1974 
L 298.049989 217.6669 
L 298.527135 219.056779 
L 299.429721 220.216422 
L 300.659938 221.020162 
L 302.084472 221.380903 
L 303.548953 221.259553 
L 304.894683 220.669261 
L 305.975829 219.673996 
L 306.675234 218.381608 
L 306.917106 216.93215 
" style="fill:none;stroke:#ff0000;stroke-linecap:square;stroke-width:1.5;"/>
   </g>
   <g id="line2d_59">
    <path clip-path="url(#pbab4b120ff)" d="M 370.75683 178.454597 
L 369.877296 173.183839 
L 367.334005 168.484249 
L 363.402563 164.865101 
L 358.509001 162.718586 
L 353.183614 162.277312 
L 348.00349 163.589098 
L 343.529975 166.511791 
L 340.247845 170.728672 
L 338.512768 175.782778 
L 338.512768 181.126416 
L 340.247845 186.180521 
L 343.529975 190.397402 
L 348.00349 193.320095 
L 353.183614 194.631881 
L 358.509001 194.190607 
L 363.402563 192.044092 
L 367.334005 188.424944 
L 369.877296 183.725355 
L 370.75683 178.454597 
" style="fill:none;stroke:#000000;stroke-dasharray:5.55,2.4;stroke-dashoffset:0;stroke-width:1.5;"/>
   </g>
   <g id="line2d_60">
    <path clip-path="url(#pbab4b120ff)" d="M 358.988102 178.454597 
L 358.746231 177.005138 
L 358.046826 175.712751 
L 356.965679 174.717485 
L 355.61995 174.127194 
L 354.155468 174.005843 
L 352.730934 174.366584 
L 351.500717 175.170325 
L 350.598132 176.329967 
L 350.120986 177.719846 
L 350.120986 179.189347 
L 350.598132 180.579226 
L 351.500717 181.738868 
L 352.730934 182.542609 
L 354.155468 182.90335 
L 355.61995 182.781999 
L 356.965679 182.191708 
L 358.046826 181.196442 
L 358.746231 179.904055 
L 358.988102 178.454597 
" style="fill:none;stroke:#ff0000;stroke-linecap:square;stroke-width:1.5;"/>
   </g>
   <g id="line2d_61">
    <path clip-path="url(#pbab4b120ff)" d="M 400.016445 306.590205 
L 399.136911 301.319447 
L 396.59362 296.619858 
L 392.662178 293.00071 
L 387.768617 290.854195 
L 382.44323 290.412921 
L 377.263105 291.724706 
L 372.789591 294.647399 
L 369.50746 298.864281 
L 367.772384 303.918386 
L 367.772384 309.262024 
L 369.50746 314.316129 
L 372.789591 318.533011 
L 377.263105 321.455704 
L 382.44323 322.767489 
L 387.768617 322.326215 
L 392.662178 320.1797 
L 396.59362 316.560552 
L 399.136911 311.860963 
L 400.016445 306.590205 
" style="fill:none;stroke:#000000;stroke-dasharray:5.55,2.4;stroke-dashoffset:0;stroke-width:1.5;"/>
   </g>
   <g id="line2d_62">
    <path clip-path="url(#pbab4b120ff)" d="M 388.247718 306.590205 
L 388.005846 305.140747 
L 387.306441 303.848359 
L 386.225294 302.853094 
L 384.879565 302.262802 
L 383.415083 302.141452 
L 381.990549 302.502193 
L 380.760333 303.305934 
L 379.857747 304.465576 
L 379.380601 305.855455 
L 379.380601 307.324955 
L 379.857747 308.714834 
L 380.760333 309.874477 
L 381.990549 310.678217 
L 383.415083 311.038958 
L 384.879565 310.917608 
L 386.225294 310.327316 
L 387.306441 309.332051 
L 388.005846 308.039663 
L 388.247718 306.590205 
" style="fill:none;stroke:#ff0000;stroke-linecap:square;stroke-width:1.5;"/>
   </g>
   <g id="line2d_63">
    <path clip-path="url(#pbab4b120ff)" d="M 370.643485 127.504992 
L 369.763951 122.234234 
L 367.22066 117.534645 
L 363.289218 113.915497 
L 358.395657 111.768982 
L 353.07027 111.327708 
L 347.890146 112.639494 
L 343.416631 115.562187 
L 340.1345 119.779068 
L 338.399424 124.833173 
L 338.399424 130.176811 
L 340.1345 135.230916 
L 343.416631 139.447798 
L 347.890146 142.370491 
L 353.07027 143.682276 
L 358.395657 143.241002 
L 363.289218 141.094487 
L 367.22066 137.47534 
L 369.763951 132.77575 
L 370.643485 127.504992 
" style="fill:none;stroke:#000000;stroke-dasharray:5.55,2.4;stroke-dashoffset:0;stroke-width:1.5;"/>
   </g>
   <g id="line2d_64">
    <path clip-path="url(#pbab4b120ff)" d="M 358.874758 127.504992 
L 358.632886 126.055534 
L 357.933481 124.763147 
L 356.852334 123.767881 
L 355.506605 123.177589 
L 354.042124 123.056239 
L 352.617589 123.41698 
L 351.387373 124.220721 
L 350.484787 125.380363 
L 350.007641 126.770242 
L 350.007641 128.239742 
L 350.484787 129.629621 
L 351.387373 130.789264 
L 352.617589 131.593004 
L 354.042124 131.953745 
L 355.506605 131.832395 
L 356.852334 131.242103 
L 357.933481 130.246838 
L 358.632886 128.954451 
L 358.874758 127.504992 
" style="fill:none;stroke:#ff0000;stroke-linecap:square;stroke-width:1.5;"/>
   </g>
   <g id="line2d_65">
    <path clip-path="url(#pbab4b120ff)" d="M 341.877904 443.940528 
L 340.99837 438.66977 
L 338.455079 433.97018 
L 334.523637 430.351032 
L 329.630075 428.204517 
L 324.304688 427.763243 
L 319.124564 429.075029 
L 314.651049 431.997722 
L 311.368919 436.214603 
L 309.633842 441.268709 
L 309.633842 446.612347 
L 311.368919 451.666452 
L 314.651049 455.883333 
L 319.124564 458.806026 
L 324.304688 460.117812 
L 329.630075 459.676538 
L 334.523637 457.530023 
L 338.455079 453.910875 
L 340.99837 449.211286 
L 341.877904 443.940528 
" style="fill:none;stroke:#000000;stroke-dasharray:5.55,2.4;stroke-dashoffset:0;stroke-width:1.5;"/>
   </g>
   <g id="line2d_66">
    <path clip-path="url(#pbab4b120ff)" d="M 330.109176 443.940528 
L 329.867304 442.491069 
L 329.1679 441.198682 
L 328.086753 440.203416 
L 326.741024 439.613125 
L 325.276542 439.491774 
L 323.852008 439.852515 
L 322.621791 440.656256 
L 321.719205 441.815898 
L 321.242059 443.205777 
L 321.242059 444.675278 
L 321.719205 446.065157 
L 322.621791 447.224799 
L 323.852008 448.02854 
L 325.276542 448.389281 
L 326.741024 448.26793 
L 328.086753 447.677639 
L 329.1679 446.682373 
L 329.867304 445.389986 
L 330.109176 443.940528 
" style="fill:none;stroke:#ff0000;stroke-linecap:square;stroke-width:1.5;"/>
   </g>
   <g id="line2d_67">
    <path clip-path="url(#pbab4b120ff)" d="M 261.056479 240.454739 
L 260.176945 235.183981 
L 257.633655 230.484392 
L 253.702212 226.865244 
L 248.808651 224.718729 
L 243.483264 224.277455 
L 238.30314 225.589241 
L 233.829625 228.511934 
L 230.547494 232.728815 
L 228.812418 237.78292 
L 228.812418 243.126558 
L 230.547494 248.180663 
L 233.829625 252.397545 
L 238.30314 255.320238 
L 243.483264 256.632023 
L 248.808651 256.190749 
L 253.702212 254.044234 
L 257.633655 250.425087 
L 260.176945 245.725497 
L 261.056479 240.454739 
" style="fill:none;stroke:#000000;stroke-dasharray:5.55,2.4;stroke-dashoffset:0;stroke-width:1.5;"/>
   </g>
   <g id="line2d_68">
    <path clip-path="url(#pbab4b120ff)" d="M 249.287752 240.454739 
L 249.04588 239.005281 
L 248.346475 237.712894 
L 247.265329 236.717628 
L 245.919599 236.127336 
L 244.455118 236.005986 
L 243.030584 236.366727 
L 241.800367 237.170468 
L 240.897781 238.33011 
L 240.420635 239.719989 
L 240.420635 241.189489 
L 240.897781 242.579368 
L 241.800367 243.739011 
L 243.030584 244.542751 
L 244.455118 244.903492 
L 245.919599 244.782142 
L 247.265329 244.19185 
L 248.346475 243.196585 
L 249.04588 241.904198 
L 249.287752 240.454739 
" style="fill:none;stroke:#ff0000;stroke-linecap:square;stroke-width:1.5;"/>
   </g>
   <g id="line2d_69">
    <path clip-path="url(#pbab4b120ff)" d="M 190.042769 172.774492 
L 189.163235 167.503734 
L 186.619945 162.804145 
L 182.688502 159.184997 
L 177.794941 157.038482 
L 172.469554 156.597208 
L 167.28943 157.908994 
L 162.815915 160.831687 
L 159.533784 165.048568 
L 157.798708 170.102673 
L 157.798708 175.446311 
L 159.533784 180.500417 
L 162.815915 184.717298 
L 167.28943 187.639991 
L 172.469554 188.951777 
L 177.794941 188.510503 
L 182.688502 186.363988 
L 186.619945 182.74484 
L 189.163235 178.04525 
L 190.042769 172.774492 
" style="fill:none;stroke:#000000;stroke-dasharray:5.55,2.4;stroke-dashoffset:0;stroke-width:1.5;"/>
   </g>
   <g id="line2d_70">
    <path clip-path="url(#pbab4b120ff)" d="M 178.274042 172.774492 
L 178.03217 171.325034 
L 177.332765 170.032647 
L 176.251618 169.037381 
L 174.905889 168.44709 
L 173.441408 168.325739 
L 172.016873 168.68648 
L 170.786657 169.490221 
L 169.884071 170.649863 
L 169.406925 172.039742 
L 169.406925 173.509243 
L 169.884071 174.899122 
L 170.786657 176.058764 
L 172.016873 176.862505 
L 173.441408 177.223246 
L 174.905889 177.101895 
L 176.251618 176.511604 
L 177.332765 175.516338 
L 178.03217 174.223951 
L 178.274042 172.774492 
" style="fill:none;stroke:#ff0000;stroke-linecap:square;stroke-width:1.5;"/>
   </g>
   <g id="line2d_71">
    <path clip-path="url(#pbab4b120ff)" d="M 290.806561 233.981565 
L 289.927027 228.710807 
L 287.383736 224.011218 
L 283.452294 220.39207 
L 278.558732 218.245555 
L 273.233345 217.804281 
L 268.053221 219.116066 
L 263.579706 222.038759 
L 260.297576 226.255641 
L 258.562499 231.309746 
L 258.562499 236.653384 
L 260.297576 241.707489 
L 263.579706 245.924371 
L 268.053221 248.847064 
L 273.233345 250.158849 
L 278.558732 249.717575 
L 283.452294 247.57106 
L 287.383736 243.951912 
L 289.927027 239.252323 
L 290.806561 233.981565 
" style="fill:none;stroke:#000000;stroke-dasharray:5.55,2.4;stroke-dashoffset:0;stroke-width:1.5;"/>
   </g>
   <g id="line2d_72">
    <path clip-path="url(#pbab4b120ff)" d="M 279.037833 233.981565 
L 278.795962 232.532107 
L 278.096557 231.239719 
L 277.01541 230.244454 
L 275.669681 229.654162 
L 274.205199 229.532812 
L 272.780665 229.893553 
L 271.550448 230.697293 
L 270.647863 231.856936 
L 270.170717 233.246815 
L 270.170717 234.716315 
L 270.647863 236.106194 
L 271.550448 237.265837 
L 272.780665 238.069577 
L 274.205199 238.430318 
L 275.669681 238.308968 
L 277.01541 237.718676 
L 278.096557 236.723411 
L 278.795962 235.431023 
L 279.037833 233.981565 
" style="fill:none;stroke:#ff0000;stroke-linecap:square;stroke-width:1.5;"/>
   </g>
   <g id="line2d_73">
    <path clip-path="url(#pbab4b120ff)" d="M 92.290909 493.789091 
L 92.290909 87.970909 
" style="fill:none;stroke:#000000;stroke-linecap:square;stroke-width:4;"/>
   </g>
   <g id="line2d_74">
    <path clip-path="url(#pbab4b120ff)" d="M 92.290909 87.970909 
L 498.109091 87.970909 
" style="fill:none;stroke:#000000;stroke-linecap:square;stroke-width:4;"/>
   </g>
   <g id="line2d_75">
    <path clip-path="url(#pbab4b120ff)" d="M 498.109091 87.970909 
L 498.109091 493.789091 
" style="fill:none;stroke:#000000;stroke-linecap:square;stroke-width:4;"/>
   </g>
   <g id="line2d_76">
    <path clip-path="url(#pbab4b120ff)" d="M 498.109091 493.789091 
L 92.290909 493.789091 
" style="fill:none;stroke:#000000;stroke-linecap:square;stroke-width:4;"/>
   </g>
   <g id="patch_3">
    <path d="M 72 512.64 
L 72 69.12 
" style="fill:none;stroke:#000000;stroke-linecap:square;stroke-linejoin:miter;stroke-width:0.8;"/>
   </g>
   <g id="patch_4">
    <path d="M 518.4 512.64 
L 518.4 69.12 
" style="fill:none;stroke:#000000;stroke-linecap:square;stroke-linejoin:miter;stroke-width:0.8;"/>
   </g>
   <g id="patch_5">
    <path d="M 72 512.64 
L 518.4 512.64 
" style="fill:none;stroke:#000000;stroke-linecap:square;stroke-linejoin:miter;stroke-width:0.8;"/>
   </g>
   <g id="patch_6">
    <path d="M 72 69.12 
L 518.4 69.12 
" style="fill:none;stroke:#000000;stroke-linecap:square;stroke-linejoin:miter;stroke-width:0.8;"/>
   </g>
   <g id="text_12">
    <!-- 1 -->
    <defs>
     <path d="M 14.203125 0 
L 14.203125 5.171875 
L 26.90625 5.171875 
L 26.90625 65.828125 
L 12.203125 56.296875 
L 12.203125 62.703125 
L 29.984375 74.21875 
L 36.71875 74.21875 
L 36.71875 5.171875 
L 49.421875 5.171875 
L 49.421875 0 
z
" id="DejaVuSerif-31"/>
    </defs>
    <g transform="translate(112.933551 454.615545)scale(0.1 -0.1)">
     <use xlink:href="#DejaVuSerif-31"/>
    </g>
   </g>
   <g id="text_13">
    <!-- 1 -->
    <g transform="translate(127.807146 154.945463)scale(0.1 -0.1)">
     <use xlink:href="#DejaVuSerif-31"/>
    </g>
   </g>
   <g id="text_14">
    <!-- 2 -->
    <defs>
     <path d="M 12.796875 55.515625 
L 7.328125 55.515625 
L 7.328125 68.5 
Q 12.546875 71.296875 17.84375 72.75 
Q 23.140625 74.21875 28.21875 74.21875 
Q 39.59375 74.21875 46.1875 68.703125 
Q 52.78125 63.1875 52.78125 53.71875 
Q 52.78125 43.015625 37.84375 28.125 
Q 36.671875 27 36.078125 26.421875 
L 17.671875 8.015625 
L 48.09375 8.015625 
L 48.09375 17 
L 53.8125 17 
L 53.8125 0 
L 6.78125 0 
L 6.78125 5.328125 
L 28.90625 27.390625 
Q 36.234375 34.71875 39.359375 40.84375 
Q 42.484375 46.96875 42.484375 53.71875 
Q 42.484375 61.078125 38.640625 65.234375 
Q 34.8125 69.390625 28.078125 69.390625 
Q 21.09375 69.390625 17.28125 65.921875 
Q 13.484375 62.453125 12.796875 55.515625 
z
" id="DejaVuSerif-32"/>
    </defs>
    <g transform="translate(181.566335 119.67981)scale(0.1 -0.1)">
     <use xlink:href="#DejaVuSerif-32"/>
    </g>
   </g>
   <g id="text_15">
    <!-- 2 -->
    <g transform="translate(400.813892 204.869589)scale(0.1 -0.1)">
     <use xlink:href="#DejaVuSerif-32"/>
    </g>
   </g>
   <g id="text_16">
    <!-- 3 -->
    <defs>
     <path d="M 9.71875 69.828125 
Q 15.4375 71.96875 20.671875 73.09375 
Q 25.921875 74.21875 30.515625 74.21875 
Q 41.21875 74.21875 47.21875 69.59375 
Q 53.21875 64.984375 53.21875 56.78125 
Q 53.21875 50.203125 49.0625 45.78125 
Q 44.921875 41.359375 37.3125 39.796875 
Q 46.296875 38.53125 51.25 33.28125 
Q 56.203125 28.03125 56.203125 19.671875 
Q 56.203125 9.46875 49.34375 4.015625 
Q 42.484375 -1.421875 29.59375 -1.421875 
Q 23.875 -1.421875 18.421875 -0.1875 
Q 12.984375 1.03125 7.625 3.515625 
L 7.625 17.671875 
L 13.09375 17.671875 
Q 13.578125 10.640625 17.828125 7.03125 
Q 22.078125 3.421875 29.78125 3.421875 
Q 37.25 3.421875 41.578125 7.734375 
Q 45.90625 12.0625 45.90625 19.578125 
Q 45.90625 28.171875 41.453125 32.59375 
Q 37.015625 37.015625 28.421875 37.015625 
L 23.78125 37.015625 
L 23.78125 42 
L 26.21875 42 
Q 34.765625 42 39.03125 45.53125 
Q 43.3125 49.078125 43.3125 56.203125 
Q 43.3125 62.59375 39.796875 65.984375 
Q 36.28125 69.390625 29.6875 69.390625 
Q 23.09375 69.390625 19.453125 66.265625 
Q 15.828125 63.140625 15.1875 56.984375 
L 9.71875 56.984375 
z
" id="DejaVuSerif-33"/>
    </defs>
    <g transform="translate(109.642151 268.043785)scale(0.1 -0.1)">
     <use xlink:href="#DejaVuSerif-33"/>
    </g>
   </g>
   <g id="text_17">
    <!-- 3 -->
    <g transform="translate(400.5772 400.323713)scale(0.1 -0.1)">
     <use xlink:href="#DejaVuSerif-33"/>
    </g>
   </g>
   <g id="text_18">
    <!-- 4 -->
    <defs>
     <path d="M 34.90625 24.703125 
L 34.90625 63.484375 
L 10.015625 24.703125 
z
M 56.390625 0 
L 23.1875 0 
L 23.1875 5.171875 
L 34.90625 5.171875 
L 34.90625 19.484375 
L 3.078125 19.484375 
L 3.078125 24.8125 
L 35.015625 74.21875 
L 44.671875 74.21875 
L 44.671875 24.703125 
L 58.59375 24.703125 
L 58.59375 19.484375 
L 44.671875 19.484375 
L 44.671875 5.171875 
L 56.390625 5.171875 
z
" id="DejaVuSerif-34"/>
    </defs>
    <g transform="translate(169.599277 338.565659)scale(0.1 -0.1)">
     <use xlink:href="#DejaVuSerif-34"/>
    </g>
   </g>
   <g id="text_19">
    <!-- 4 -->
    <g transform="translate(450.718498 409.635656)scale(0.1 -0.1)">
     <use xlink:href="#DejaVuSerif-34"/>
    </g>
   </g>
   <g id="text_20">
    <!-- 5 -->
    <defs>
     <path d="M 50.296875 72.90625 
L 50.296875 64.890625 
L 16.890625 64.890625 
L 16.890625 44 
Q 19.4375 45.75 22.828125 46.625 
Q 26.21875 47.515625 30.421875 47.515625 
Q 42.234375 47.515625 49.0625 40.96875 
Q 55.90625 34.421875 55.90625 23.09375 
Q 55.90625 11.53125 49 5.046875 
Q 42.09375 -1.421875 29.59375 -1.421875 
Q 24.5625 -1.421875 19.28125 -0.1875 
Q 14.015625 1.03125 8.5 3.515625 
L 8.5 17.671875 
L 14.015625 17.671875 
Q 14.453125 10.75 18.421875 7.078125 
Q 22.40625 3.421875 29.59375 3.421875 
Q 37.3125 3.421875 41.453125 8.5 
Q 45.609375 13.578125 45.609375 23.09375 
Q 45.609375 32.5625 41.484375 37.609375 
Q 37.359375 42.671875 29.59375 42.671875 
Q 25.203125 42.671875 21.84375 41.109375 
Q 18.5 39.546875 15.921875 36.28125 
L 11.71875 36.28125 
L 11.71875 72.90625 
z
" id="DejaVuSerif-35"/>
    </defs>
    <g transform="translate(275.465044 443.951766)scale(0.1 -0.1)">
     <use xlink:href="#DejaVuSerif-35"/>
    </g>
   </g>
   <g id="text_21">
    <!-- 5 -->
    <g transform="translate(214.28005 163.874344)scale(0.1 -0.1)">
     <use xlink:href="#DejaVuSerif-35"/>
    </g>
   </g>
   <g id="text_22">
    <!-- 6 -->
    <defs>
     <path d="M 32.71875 3.421875 
Q 39.59375 3.421875 43.296875 8.46875 
Q 47.015625 13.53125 47.015625 23 
Q 47.015625 32.46875 43.296875 37.515625 
Q 39.59375 42.578125 32.71875 42.578125 
Q 25.734375 42.578125 22.0625 37.6875 
Q 18.40625 32.8125 18.40625 23.578125 
Q 18.40625 13.875 22.109375 8.640625 
Q 25.828125 3.421875 32.71875 3.421875 
z
M 16.796875 40.140625 
Q 20.125 43.796875 24.3125 45.59375 
Q 28.515625 47.40625 33.796875 47.40625 
Q 44.671875 47.40625 51 40.859375 
Q 57.328125 34.328125 57.328125 23 
Q 57.328125 11.921875 50.515625 5.25 
Q 43.703125 -1.421875 32.328125 -1.421875 
Q 19.96875 -1.421875 13.328125 7.78125 
Q 6.6875 17 6.6875 34.078125 
Q 6.6875 53.21875 14.546875 63.71875 
Q 22.40625 74.21875 36.71875 74.21875 
Q 40.578125 74.21875 44.828125 73.484375 
Q 49.078125 72.75 53.515625 71.296875 
L 53.515625 59.28125 
L 48 59.28125 
Q 47.40625 64.203125 44.234375 66.796875 
Q 41.0625 69.390625 35.6875 69.390625 
Q 26.21875 69.390625 21.578125 62.203125 
Q 16.9375 55.03125 16.796875 40.140625 
z
" id="DejaVuSerif-36"/>
    </defs>
    <g transform="translate(445.606309 170.08228)scale(0.1 -0.1)">
     <use xlink:href="#DejaVuSerif-36"/>
    </g>
   </g>
   <g id="text_23">
    <!-- 6 -->
    <g transform="translate(223.663291 456.070134)scale(0.1 -0.1)">
     <use xlink:href="#DejaVuSerif-36"/>
    </g>
   </g>
   <g id="text_24">
    <!-- 7 -->
    <defs>
     <path d="M 56.390625 67.921875 
L 27.875 0 
L 20.609375 0 
L 47.796875 64.890625 
L 14.109375 64.890625 
L 14.109375 55.90625 
L 8.40625 55.90625 
L 8.40625 72.90625 
L 56.390625 72.90625 
z
" id="DejaVuSerif-37"/>
    </defs>
    <g transform="translate(295.765451 301.218585)scale(0.1 -0.1)">
     <use xlink:href="#DejaVuSerif-37"/>
    </g>
   </g>
   <g id="text_25">
    <!-- 7 -->
    <g transform="translate(435.873598 450.412402)scale(0.1 -0.1)">
     <use xlink:href="#DejaVuSerif-37"/>
    </g>
   </g>
   <g id="text_26">
    <!-- 8 -->
    <defs>
     <path d="M 46.578125 19.921875 
Q 46.578125 27.734375 42.6875 32.046875 
Q 38.8125 36.375 31.78125 36.375 
Q 24.75 36.375 20.875 32.046875 
Q 17 27.734375 17 19.921875 
Q 17 12.0625 20.875 7.734375 
Q 24.75 3.421875 31.78125 3.421875 
Q 38.8125 3.421875 42.6875 7.734375 
Q 46.578125 12.0625 46.578125 19.921875 
z
M 44.578125 55.328125 
Q 44.578125 61.96875 41.203125 65.671875 
Q 37.84375 69.390625 31.78125 69.390625 
Q 25.78125 69.390625 22.390625 65.671875 
Q 19 61.96875 19 55.328125 
Q 19 48.640625 22.390625 44.921875 
Q 25.78125 41.21875 31.78125 41.21875 
Q 37.84375 41.21875 41.203125 44.921875 
Q 44.578125 48.640625 44.578125 55.328125 
z
M 39.3125 38.8125 
Q 47.609375 37.703125 52.25 32.6875 
Q 56.890625 27.6875 56.890625 19.921875 
Q 56.890625 9.671875 50.390625 4.125 
Q 43.890625 -1.421875 31.78125 -1.421875 
Q 19.734375 -1.421875 13.203125 4.125 
Q 6.6875 9.671875 6.6875 19.921875 
Q 6.6875 27.6875 11.328125 32.6875 
Q 15.96875 37.703125 24.3125 38.8125 
Q 16.9375 40.140625 13 44.40625 
Q 9.078125 48.6875 9.078125 55.328125 
Q 9.078125 64.109375 15.125 69.15625 
Q 21.1875 74.21875 31.78125 74.21875 
Q 42.390625 74.21875 48.4375 69.15625 
Q 54.5 64.109375 54.5 55.328125 
Q 54.5 48.6875 50.5625 44.40625 
Q 46.625 40.140625 39.3125 38.8125 
z
" id="DejaVuSerif-38"/>
    </defs>
    <g transform="translate(148.534876 412.507783)scale(0.1 -0.1)">
     <use xlink:href="#DejaVuSerif-38"/>
    </g>
   </g>
   <g id="text_27">
    <!-- 8 -->
    <g transform="translate(279.748852 163.737108)scale(0.1 -0.1)">
     <use xlink:href="#DejaVuSerif-38"/>
    </g>
   </g>
  </g>
 </g>
 <defs>
  <clipPath id="pbab4b120ff">
   <rect height="443.52" width="446.4" x="72" y="69.12"/>
  </clipPath>
 </defs>
</svg>
