<?xml version="1.0" encoding="utf-8" standalone="no"?>
<!DOCTYPE svg PUBLIC "-//W3C//DTD SVG 1.1//EN"
  "http://www.w3.org/Graphics/SVG/1.1/DTD/svg11.dtd">
<!-- Created with matplotlib (http://matplotlib.org/) -->
<svg height="576pt" version="1.1" viewBox="0 0 576 576" width="576pt" xmlns="http://www.w3.org/2000/svg" xmlns:xlink="http://www.w3.org/1999/xlink">
 <defs>
  <style type="text/css">
*{stroke-linecap:butt;stroke-linejoin:round;}
  </style>
 </defs>
 <g id="figure_1">
  <g id="patch_1">
   <path d="M 0 576 
L 576 576 
L 576 0 
L 0 0 
z
" style="fill:#ffffff;"/>
  </g>
  <g id="axes_1">
   <g id="patch_2">
    <path d="M 72 512.64 
L 518.4 512.64 
L 518.4 69.12 
L 72 69.12 
z
" style="fill:#ffffff;"/>
   </g>
   <g id="matplotlib.axis_1">
    <g id="xtick_1">
     <g id="line2d_1">
      <defs>
       <path d="M 0 0 
L 0 3.5 
" id="m17b687751e" style="stroke:#000000;stroke-width:0.8;"/>
      </defs>
      <g>
       <use style="stroke:#000000;stroke-width:0.8;" x="112.581818" xlink:href="#m17b687751e" y="512.64"/>
      </g>
     </g>
     <g id="text_1">
      <!-- 0 -->
      <defs>
       <path d="M 31.78125 66.40625 
Q 24.171875 66.40625 20.328125 58.90625 
Q 16.5 51.421875 16.5 36.375 
Q 16.5 21.390625 20.328125 13.890625 
Q 24.171875 6.390625 31.78125 6.390625 
Q 39.453125 6.390625 43.28125 13.890625 
Q 47.125 21.390625 47.125 36.375 
Q 47.125 51.421875 43.28125 58.90625 
Q 39.453125 66.40625 31.78125 66.40625 
z
M 31.78125 74.21875 
Q 44.046875 74.21875 50.515625 64.515625 
Q 56.984375 54.828125 56.984375 36.375 
Q 56.984375 17.96875 50.515625 8.265625 
Q 44.046875 -1.421875 31.78125 -1.421875 
Q 19.53125 -1.421875 13.0625 8.265625 
Q 6.59375 17.96875 6.59375 36.375 
Q 6.59375 54.828125 13.0625 64.515625 
Q 19.53125 74.21875 31.78125 74.21875 
z
" id="DejaVuSans-30"/>
      </defs>
      <g transform="translate(109.400568 527.238438)scale(0.1 -0.1)">
       <use xlink:href="#DejaVuSans-30"/>
      </g>
     </g>
    </g>
    <g id="xtick_2">
     <g id="line2d_2">
      <g>
       <use style="stroke:#000000;stroke-width:0.8;" x="193.745455" xlink:href="#m17b687751e" y="512.64"/>
      </g>
     </g>
     <g id="text_2">
      <!-- 2 -->
      <defs>
       <path d="M 19.1875 8.296875 
L 53.609375 8.296875 
L 53.609375 0 
L 7.328125 0 
L 7.328125 8.296875 
Q 12.9375 14.109375 22.625 23.890625 
Q 32.328125 33.6875 34.8125 36.53125 
Q 39.546875 41.84375 41.421875 45.53125 
Q 43.3125 49.21875 43.3125 52.78125 
Q 43.3125 58.59375 39.234375 62.25 
Q 35.15625 65.921875 28.609375 65.921875 
Q 23.96875 65.921875 18.8125 64.3125 
Q 13.671875 62.703125 7.8125 59.421875 
L 7.8125 69.390625 
Q 13.765625 71.78125 18.9375 73 
Q 24.125 74.21875 28.421875 74.21875 
Q 39.75 74.21875 46.484375 68.546875 
Q 53.21875 62.890625 53.21875 53.421875 
Q 53.21875 48.921875 51.53125 44.890625 
Q 49.859375 40.875 45.40625 35.40625 
Q 44.1875 33.984375 37.640625 27.21875 
Q 31.109375 20.453125 19.1875 8.296875 
z
" id="DejaVuSans-32"/>
      </defs>
      <g transform="translate(190.564205 527.238438)scale(0.1 -0.1)">
       <use xlink:href="#DejaVuSans-32"/>
      </g>
     </g>
    </g>
    <g id="xtick_3">
     <g id="line2d_3">
      <g>
       <use style="stroke:#000000;stroke-width:0.8;" x="274.909091" xlink:href="#m17b687751e" y="512.64"/>
      </g>
     </g>
     <g id="text_3">
      <!-- 4 -->
      <defs>
       <path d="M 37.796875 64.3125 
L 12.890625 25.390625 
L 37.796875 25.390625 
z
M 35.203125 72.90625 
L 47.609375 72.90625 
L 47.609375 25.390625 
L 58.015625 25.390625 
L 58.015625 17.1875 
L 47.609375 17.1875 
L 47.609375 0 
L 37.796875 0 
L 37.796875 17.1875 
L 4.890625 17.1875 
L 4.890625 26.703125 
z
" id="DejaVuSans-34"/>
      </defs>
      <g transform="translate(271.727841 527.238438)scale(0.1 -0.1)">
       <use xlink:href="#DejaVuSans-34"/>
      </g>
     </g>
    </g>
    <g id="xtick_4">
     <g id="line2d_4">
      <g>
       <use style="stroke:#000000;stroke-width:0.8;" x="356.072727" xlink:href="#m17b687751e" y="512.64"/>
      </g>
     </g>
     <g id="text_4">
      <!-- 6 -->
      <defs>
       <path d="M 33.015625 40.375 
Q 26.375 40.375 22.484375 35.828125 
Q 18.609375 31.296875 18.609375 23.390625 
Q 18.609375 15.53125 22.484375 10.953125 
Q 26.375 6.390625 33.015625 6.390625 
Q 39.65625 6.390625 43.53125 10.953125 
Q 47.40625 15.53125 47.40625 23.390625 
Q 47.40625 31.296875 43.53125 35.828125 
Q 39.65625 40.375 33.015625 40.375 
z
M 52.59375 71.296875 
L 52.59375 62.3125 
Q 48.875 64.0625 45.09375 64.984375 
Q 41.3125 65.921875 37.59375 65.921875 
Q 27.828125 65.921875 22.671875 59.328125 
Q 17.53125 52.734375 16.796875 39.40625 
Q 19.671875 43.65625 24.015625 45.921875 
Q 28.375 48.1875 33.59375 48.1875 
Q 44.578125 48.1875 50.953125 41.515625 
Q 57.328125 34.859375 57.328125 23.390625 
Q 57.328125 12.15625 50.6875 5.359375 
Q 44.046875 -1.421875 33.015625 -1.421875 
Q 20.359375 -1.421875 13.671875 8.265625 
Q 6.984375 17.96875 6.984375 36.375 
Q 6.984375 53.65625 15.1875 63.9375 
Q 23.390625 74.21875 37.203125 74.21875 
Q 40.921875 74.21875 44.703125 73.484375 
Q 48.484375 72.75 52.59375 71.296875 
z
" id="DejaVuSans-36"/>
      </defs>
      <g transform="translate(352.891477 527.238438)scale(0.1 -0.1)">
       <use xlink:href="#DejaVuSans-36"/>
      </g>
     </g>
    </g>
    <g id="xtick_5">
     <g id="line2d_5">
      <g>
       <use style="stroke:#000000;stroke-width:0.8;" x="437.236364" xlink:href="#m17b687751e" y="512.64"/>
      </g>
     </g>
     <g id="text_5">
      <!-- 8 -->
      <defs>
       <path d="M 31.78125 34.625 
Q 24.75 34.625 20.71875 30.859375 
Q 16.703125 27.09375 16.703125 20.515625 
Q 16.703125 13.921875 20.71875 10.15625 
Q 24.75 6.390625 31.78125 6.390625 
Q 38.8125 6.390625 42.859375 10.171875 
Q 46.921875 13.96875 46.921875 20.515625 
Q 46.921875 27.09375 42.890625 30.859375 
Q 38.875 34.625 31.78125 34.625 
z
M 21.921875 38.8125 
Q 15.578125 40.375 12.03125 44.71875 
Q 8.5 49.078125 8.5 55.328125 
Q 8.5 64.0625 14.71875 69.140625 
Q 20.953125 74.21875 31.78125 74.21875 
Q 42.671875 74.21875 48.875 69.140625 
Q 55.078125 64.0625 55.078125 55.328125 
Q 55.078125 49.078125 51.53125 44.71875 
Q 48 40.375 41.703125 38.8125 
Q 48.828125 37.15625 52.796875 32.3125 
Q 56.78125 27.484375 56.78125 20.515625 
Q 56.78125 9.90625 50.3125 4.234375 
Q 43.84375 -1.421875 31.78125 -1.421875 
Q 19.734375 -1.421875 13.25 4.234375 
Q 6.78125 9.90625 6.78125 20.515625 
Q 6.78125 27.484375 10.78125 32.3125 
Q 14.796875 37.15625 21.921875 38.8125 
z
M 18.3125 54.390625 
Q 18.3125 48.734375 21.84375 45.5625 
Q 25.390625 42.390625 31.78125 42.390625 
Q 38.140625 42.390625 41.71875 45.5625 
Q 45.3125 48.734375 45.3125 54.390625 
Q 45.3125 60.0625 41.71875 63.234375 
Q 38.140625 66.40625 31.78125 66.40625 
Q 25.390625 66.40625 21.84375 63.234375 
Q 18.3125 60.0625 18.3125 54.390625 
z
" id="DejaVuSans-38"/>
      </defs>
      <g transform="translate(434.055114 527.238438)scale(0.1 -0.1)">
       <use xlink:href="#DejaVuSans-38"/>
      </g>
     </g>
    </g>
    <g id="xtick_6">
     <g id="line2d_6">
      <g>
       <use style="stroke:#000000;stroke-width:0.8;" x="518.4" xlink:href="#m17b687751e" y="512.64"/>
      </g>
     </g>
     <g id="text_6">
      <!-- 10 -->
      <defs>
       <path d="M 12.40625 8.296875 
L 28.515625 8.296875 
L 28.515625 63.921875 
L 10.984375 60.40625 
L 10.984375 69.390625 
L 28.421875 72.90625 
L 38.28125 72.90625 
L 38.28125 8.296875 
L 54.390625 8.296875 
L 54.390625 0 
L 12.40625 0 
z
" id="DejaVuSans-31"/>
      </defs>
      <g transform="translate(512.0375 527.238438)scale(0.1 -0.1)">
       <use xlink:href="#DejaVuSans-31"/>
       <use x="63.623047" xlink:href="#DejaVuSans-30"/>
      </g>
     </g>
    </g>
   </g>
   <g id="matplotlib.axis_2">
    <g id="ytick_1">
     <g id="line2d_7">
      <defs>
       <path d="M 0 0 
L -3.5 0 
" id="mf96ebb08da" style="stroke:#000000;stroke-width:0.8;"/>
      </defs>
      <g>
       <use style="stroke:#000000;stroke-width:0.8;" x="72" xlink:href="#mf96ebb08da" y="473.498182"/>
      </g>
     </g>
     <g id="text_7">
      <!-- 0 -->
      <g transform="translate(58.6375 477.297401)scale(0.1 -0.1)">
       <use xlink:href="#DejaVuSans-30"/>
      </g>
     </g>
    </g>
    <g id="ytick_2">
     <g id="line2d_8">
      <g>
       <use style="stroke:#000000;stroke-width:0.8;" x="72" xlink:href="#mf96ebb08da" y="392.334545"/>
      </g>
     </g>
     <g id="text_8">
      <!-- 2 -->
      <g transform="translate(58.6375 396.133764)scale(0.1 -0.1)">
       <use xlink:href="#DejaVuSans-32"/>
      </g>
     </g>
    </g>
    <g id="ytick_3">
     <g id="line2d_9">
      <g>
       <use style="stroke:#000000;stroke-width:0.8;" x="72" xlink:href="#mf96ebb08da" y="311.170909"/>
      </g>
     </g>
     <g id="text_9">
      <!-- 4 -->
      <g transform="translate(58.6375 314.970128)scale(0.1 -0.1)">
       <use xlink:href="#DejaVuSans-34"/>
      </g>
     </g>
    </g>
    <g id="ytick_4">
     <g id="line2d_10">
      <g>
       <use style="stroke:#000000;stroke-width:0.8;" x="72" xlink:href="#mf96ebb08da" y="230.007273"/>
      </g>
     </g>
     <g id="text_10">
      <!-- 6 -->
      <g transform="translate(58.6375 233.806491)scale(0.1 -0.1)">
       <use xlink:href="#DejaVuSans-36"/>
      </g>
     </g>
    </g>
    <g id="ytick_5">
     <g id="line2d_11">
      <g>
       <use style="stroke:#000000;stroke-width:0.8;" x="72" xlink:href="#mf96ebb08da" y="148.843636"/>
      </g>
     </g>
     <g id="text_11">
      <!-- 8 -->
      <g transform="translate(58.6375 152.642855)scale(0.1 -0.1)">
       <use xlink:href="#DejaVuSans-38"/>
      </g>
     </g>
    </g>
   </g>
   <g id="line2d_12">
    <path clip-path="url(#p97985d7404)" d="M 335.802145 303.749658 
" style="fill:none;stroke:#1f77b4;stroke-linecap:square;stroke-width:1.5;"/>
    <defs>
     <path d="M -5 5 
L 5 5 
L 5 -5 
L -5 -5 
z
" id="m5ce8c9c311" style="stroke:#8000ff;stroke-linejoin:miter;"/>
    </defs>
    <g clip-path="url(#p97985d7404)">
     <use style="fill:#8000ff;stroke:#8000ff;stroke-linejoin:miter;" x="335.802145" xlink:href="#m5ce8c9c311" y="303.749658"/>
    </g>
   </g>
   <g id="line2d_13">
    <path clip-path="url(#p97985d7404)" d="M 203.141155 145.727941 
" style="fill:none;stroke:#ff7f0e;stroke-linecap:square;stroke-width:1.5;"/>
    <defs>
     <path d="M 0 -5 
L -4.755283 -1.545085 
L -2.938926 4.045085 
L 2.938926 4.045085 
L 4.755283 -1.545085 
z
" id="mb6be1975b7" style="stroke:#8000ff;stroke-linejoin:miter;"/>
    </defs>
    <g clip-path="url(#p97985d7404)">
     <use style="fill:#8000ff;stroke:#8000ff;stroke-linejoin:miter;" x="203.141155" xlink:href="#mb6be1975b7" y="145.727941"/>
    </g>
   </g>
   <g id="line2d_14">
    <path clip-path="url(#p97985d7404)" d="M 406.271897 205.568906 
" style="fill:none;stroke:#2ca02c;stroke-linecap:square;stroke-width:1.5;"/>
    <defs>
     <path d="M -5 5 
L 5 5 
L 5 -5 
L -5 -5 
z
" id="mb40fa298a0" style="stroke:#376ff9;stroke-linejoin:miter;"/>
    </defs>
    <g clip-path="url(#p97985d7404)">
     <use style="fill:#376ff9;stroke:#376ff9;stroke-linejoin:miter;" x="406.271897" xlink:href="#mb40fa298a0" y="205.568906"/>
    </g>
   </g>
   <g id="line2d_15">
    <path clip-path="url(#p97985d7404)" d="M 342.322364 473.029723 
" style="fill:none;stroke:#d62728;stroke-linecap:square;stroke-width:1.5;"/>
    <defs>
     <path d="M 0 -5 
L -4.755283 -1.545085 
L -2.938926 4.045085 
L 2.938926 4.045085 
L 4.755283 -1.545085 
z
" id="m28658c1dc2" style="stroke:#376ff9;stroke-linejoin:miter;"/>
    </defs>
    <g clip-path="url(#p97985d7404)">
     <use style="fill:#376ff9;stroke:#376ff9;stroke-linejoin:miter;" x="342.322364" xlink:href="#m28658c1dc2" y="473.029723"/>
    </g>
   </g>
   <g id="line2d_16">
    <path clip-path="url(#p97985d7404)" d="M 120.932762 243.665933 
" style="fill:none;stroke:#9467bd;stroke-linecap:square;stroke-width:1.5;"/>
    <defs>
     <path d="M -5 5 
L 5 5 
L 5 -5 
L -5 -5 
z
" id="m6ddc5ad02f" style="stroke:#12c7e6;stroke-linejoin:miter;"/>
    </defs>
    <g clip-path="url(#p97985d7404)">
     <use style="fill:#12c7e6;stroke:#12c7e6;stroke-linejoin:miter;" x="120.932762" xlink:href="#m6ddc5ad02f" y="243.665933"/>
    </g>
   </g>
   <g id="line2d_17">
    <path clip-path="url(#p97985d7404)" d="M 442.140336 382.406037 
" style="fill:none;stroke:#8c564b;stroke-linecap:square;stroke-width:1.5;"/>
    <defs>
     <path d="M 0 -5 
L -4.755283 -1.545085 
L -2.938926 4.045085 
L 2.938926 4.045085 
L 4.755283 -1.545085 
z
" id="mecfb7b082b" style="stroke:#12c7e6;stroke-linejoin:miter;"/>
    </defs>
    <g clip-path="url(#p97985d7404)">
     <use style="fill:#12c7e6;stroke:#12c7e6;stroke-linejoin:miter;" x="442.140336" xlink:href="#mecfb7b082b" y="382.406037"/>
    </g>
   </g>
   <g id="line2d_18">
    <path clip-path="url(#p97985d7404)" d="M 220.965236 220.732003 
" style="fill:none;stroke:#e377c2;stroke-linecap:square;stroke-width:1.5;"/>
    <defs>
     <path d="M -5 5 
L 5 5 
L 5 -5 
L -5 -5 
z
" id="mac2ca5c335" style="stroke:#5bf9c7;stroke-linejoin:miter;"/>
    </defs>
    <g clip-path="url(#p97985d7404)">
     <use style="fill:#5bf9c7;stroke:#5bf9c7;stroke-linejoin:miter;" x="220.965236" xlink:href="#mac2ca5c335" y="220.732003"/>
    </g>
   </g>
   <g id="line2d_19">
    <path clip-path="url(#p97985d7404)" d="M 476.270823 412.911318 
" style="fill:none;stroke:#7f7f7f;stroke-linecap:square;stroke-width:1.5;"/>
    <defs>
     <path d="M 0 -5 
L -4.755283 -1.545085 
L -2.938926 4.045085 
L 2.938926 4.045085 
L 4.755283 -1.545085 
z
" id="ma17d1193ba" style="stroke:#5bf9c7;stroke-linejoin:miter;"/>
    </defs>
    <g clip-path="url(#p97985d7404)">
     <use style="fill:#5bf9c7;stroke:#5bf9c7;stroke-linejoin:miter;" x="476.270823" xlink:href="#ma17d1193ba" y="412.911318"/>
    </g>
   </g>
   <g id="line2d_20">
    <path clip-path="url(#p97985d7404)" d="M 408.859852 150.857605 
" style="fill:none;stroke:#bcbd22;stroke-linecap:square;stroke-width:1.5;"/>
    <defs>
     <path d="M -5 5 
L 5 5 
L 5 -5 
L -5 -5 
z
" id="m83e660d44a" style="stroke:#a4f99f;stroke-linejoin:miter;"/>
    </defs>
    <g clip-path="url(#p97985d7404)">
     <use style="fill:#a4f99f;stroke:#a4f99f;stroke-linejoin:miter;" x="408.859852" xlink:href="#m83e660d44a" y="150.857605"/>
    </g>
   </g>
   <g id="line2d_21">
    <path clip-path="url(#p97985d7404)" d="M 144.538233 205.799419 
" style="fill:none;stroke:#17becf;stroke-linecap:square;stroke-width:1.5;"/>
    <defs>
     <path d="M 0 -5 
L -4.755283 -1.545085 
L -2.938926 4.045085 
L 2.938926 4.045085 
L 4.755283 -1.545085 
z
" id="ma232c5e4b3" style="stroke:#a4f99f;stroke-linejoin:miter;"/>
    </defs>
    <g clip-path="url(#p97985d7404)">
     <use style="fill:#a4f99f;stroke:#a4f99f;stroke-linejoin:miter;" x="144.538233" xlink:href="#ma232c5e4b3" y="205.799419"/>
    </g>
   </g>
   <g id="line2d_22">
    <path clip-path="url(#p97985d7404)" d="M 405.753911 321.125276 
" style="fill:none;stroke:#1f77b4;stroke-linecap:square;stroke-width:1.5;"/>
    <defs>
     <path d="M -5 5 
L 5 5 
L 5 -5 
L -5 -5 
z
" id="m16807b6393" style="stroke:#edc76f;stroke-linejoin:miter;"/>
    </defs>
    <g clip-path="url(#p97985d7404)">
     <use style="fill:#edc76f;stroke:#edc76f;stroke-linejoin:miter;" x="405.753911" xlink:href="#m16807b6393" y="321.125276"/>
    </g>
   </g>
   <g id="line2d_23">
    <path clip-path="url(#p97985d7404)" d="M 176.722456 112.14627 
" style="fill:none;stroke:#ff7f0e;stroke-linecap:square;stroke-width:1.5;"/>
    <defs>
     <path d="M 0 -5 
L -4.755283 -1.545085 
L -2.938926 4.045085 
L 2.938926 4.045085 
L 4.755283 -1.545085 
z
" id="m7926dde872" style="stroke:#edc76f;stroke-linejoin:miter;"/>
    </defs>
    <g clip-path="url(#p97985d7404)">
     <use style="fill:#edc76f;stroke:#edc76f;stroke-linejoin:miter;" x="176.722456" xlink:href="#m7926dde872" y="112.14627"/>
    </g>
   </g>
   <g id="line2d_24">
    <path clip-path="url(#p97985d7404)" d="M 239.018921 407.543246 
" style="fill:none;stroke:#2ca02c;stroke-linecap:square;stroke-width:1.5;"/>
    <defs>
     <path d="M -5 5 
L 5 5 
L 5 -5 
L -5 -5 
z
" id="m7188276a93" style="stroke:#ff6f39;stroke-linejoin:miter;"/>
    </defs>
    <g clip-path="url(#p97985d7404)">
     <use style="fill:#ff6f39;stroke:#ff6f39;stroke-linejoin:miter;" x="239.018921" xlink:href="#m7188276a93" y="407.543246"/>
    </g>
   </g>
   <g id="line2d_25">
    <path clip-path="url(#p97985d7404)" d="M 414.824304 246.631494 
" style="fill:none;stroke:#d62728;stroke-linecap:square;stroke-width:1.5;"/>
    <defs>
     <path d="M 0 -5 
L -4.755283 -1.545085 
L -2.938926 4.045085 
L 2.938926 4.045085 
L 4.755283 -1.545085 
z
" id="m1bc982f118" style="stroke:#ff6f39;stroke-linejoin:miter;"/>
    </defs>
    <g clip-path="url(#p97985d7404)">
     <use style="fill:#ff6f39;stroke:#ff6f39;stroke-linejoin:miter;" x="414.824304" xlink:href="#m1bc982f118" y="246.631494"/>
    </g>
   </g>
   <g id="line2d_26">
    <path clip-path="url(#p97985d7404)" d="M 295.073562 108.948036 
" style="fill:none;stroke:#9467bd;stroke-linecap:square;stroke-width:1.5;"/>
    <defs>
     <path d="M -5 5 
L 5 5 
L 5 -5 
L -5 -5 
z
" id="m280524cec1" style="stroke:#ff0000;stroke-linejoin:miter;"/>
    </defs>
    <g clip-path="url(#p97985d7404)">
     <use style="fill:#ff0000;stroke:#ff0000;stroke-linejoin:miter;" x="295.073562" xlink:href="#m280524cec1" y="108.948036"/>
    </g>
   </g>
   <g id="line2d_27">
    <path clip-path="url(#p97985d7404)" d="M 346.263901 368.244428 
" style="fill:none;stroke:#8c564b;stroke-linecap:square;stroke-width:1.5;"/>
    <defs>
     <path d="M 0 -5 
L -4.755283 -1.545085 
L -2.938926 4.045085 
L 2.938926 4.045085 
L 4.755283 -1.545085 
z
" id="mb5d0d89ed2" style="stroke:#ff0000;stroke-linejoin:miter;"/>
    </defs>
    <g clip-path="url(#p97985d7404)">
     <use style="fill:#ff0000;stroke:#ff0000;stroke-linejoin:miter;" x="346.263901" xlink:href="#mb5d0d89ed2" y="368.244428"/>
    </g>
   </g>
   <g id="line2d_28">
    <defs>
     <path d="M 0 2.5 
C 0.663008 2.5 1.29895 2.236584 1.767767 1.767767 
C 2.236584 1.29895 2.5 0.663008 2.5 0 
C 2.5 -0.663008 2.236584 -1.29895 1.767767 -1.767767 
C 1.29895 -2.236584 0.663008 -2.5 0 -2.5 
C -0.663008 -2.5 -1.29895 -2.236584 -1.767767 -1.767767 
C -2.236584 -1.29895 -2.5 -0.663008 -2.5 0 
C -2.5 0.663008 -2.236584 1.29895 -1.767767 1.767767 
C -1.29895 2.236584 -0.663008 2.5 0 2.5 
z
" id="m98ea7cddc3" style="stroke:#000000;"/>
    </defs>
    <g clip-path="url(#p97985d7404)">
     <use style="stroke:#000000;" x="276.252354" xlink:href="#m98ea7cddc3" y="310.676112"/>
     <use style="stroke:#000000;" x="141.681666" xlink:href="#m98ea7cddc3" y="458.137045"/>
     <use style="stroke:#000000;" x="127.230043" xlink:href="#m98ea7cddc3" y="392.305784"/>
     <use style="stroke:#000000;" x="201.011972" xlink:href="#m98ea7cddc3" y="386.563589"/>
     <use style="stroke:#000000;" x="272.386185" xlink:href="#m98ea7cddc3" y="229.506897"/>
     <use style="stroke:#000000;" x="270.147655" xlink:href="#m98ea7cddc3" y="466.217399"/>
     <use style="stroke:#000000;" x="378.812069" xlink:href="#m98ea7cddc3" y="452.891754"/>
     <use style="stroke:#000000;" x="366.647488" xlink:href="#m98ea7cddc3" y="165.605415"/>
     <use style="stroke:#000000;" x="344.645794" xlink:href="#m98ea7cddc3" y="117.626901"/>
     <use style="stroke:#000000;" x="404.206657" xlink:href="#m98ea7cddc3" y="364.034291"/>
     <use style="stroke:#000000;" x="127.665941" xlink:href="#m98ea7cddc3" y="361.17699"/>
     <use style="stroke:#000000;" x="304.534291" xlink:href="#m98ea7cddc3" y="424.211055"/>
     <use style="stroke:#000000;" x="472.646758" xlink:href="#m98ea7cddc3" y="126.205241"/>
     <use style="stroke:#000000;" x="268.765499" xlink:href="#m98ea7cddc3" y="342.840005"/>
     <use style="stroke:#000000;" x="189.488135" xlink:href="#m98ea7cddc3" y="258.261839"/>
     <use style="stroke:#000000;" x="237.226478" xlink:href="#m98ea7cddc3" y="116.175049"/>
     <use style="stroke:#000000;" x="368.37063" xlink:href="#m98ea7cddc3" y="429.359071"/>
     <use style="stroke:#000000;" x="175.655141" xlink:href="#m98ea7cddc3" y="401.016184"/>
     <use style="stroke:#000000;" x="462.012565" xlink:href="#m98ea7cddc3" y="320.727554"/>
     <use style="stroke:#000000;" x="294.110623" xlink:href="#m98ea7cddc3" y="185.157347"/>
     <use style="stroke:#000000;" x="364.290679" xlink:href="#m98ea7cddc3" y="232.176726"/>
     <use style="stroke:#000000;" x="308.945109" xlink:href="#m98ea7cddc3" y="269.864921"/>
    </g>
   </g>
   <g id="line2d_29">
    <path clip-path="url(#p97985d7404)" d="M 292.485082 310.676112 
L 291.605548 305.405354 
L 289.062257 300.705764 
L 285.130815 297.086616 
L 280.237253 294.940101 
L 274.911866 294.498827 
L 269.731742 295.810613 
L 265.258227 298.733306 
L 261.976097 302.950187 
L 260.24102 308.004292 
L 260.24102 313.347931 
L 261.976097 318.402036 
L 265.258227 322.618917 
L 269.731742 325.54161 
L 274.911866 326.853396 
L 280.237253 326.412122 
L 285.130815 324.265607 
L 289.062257 320.646459 
L 291.605548 315.946869 
L 292.485082 310.676112 
" style="fill:none;stroke:#000000;stroke-dasharray:5.55,2.4;stroke-dashoffset:0;stroke-width:1.5;"/>
   </g>
   <g id="line2d_30">
    <path clip-path="url(#p97985d7404)" d="M 280.716354 310.676112 
L 280.474483 309.226653 
L 279.775078 307.934266 
L 278.693931 306.939 
L 277.348202 306.348709 
L 275.88372 306.227358 
L 274.459186 306.588099 
L 273.228969 307.39184 
L 272.326384 308.551482 
L 271.849238 309.941361 
L 271.849238 311.410862 
L 272.326384 312.800741 
L 273.228969 313.960383 
L 274.459186 314.764124 
L 275.88372 315.124865 
L 277.348202 315.003514 
L 278.693931 314.413223 
L 279.775078 313.417957 
L 280.474483 312.12557 
L 280.716354 310.676112 
" style="fill:none;stroke:#ff0000;stroke-linecap:square;stroke-width:1.5;"/>
   </g>
   <g id="line2d_31">
    <path clip-path="url(#p97985d7404)" d="M 157.914394 458.137045 
L 157.03486 452.866287 
L 154.491569 448.166698 
L 150.560127 444.54755 
L 145.666565 442.401035 
L 140.341178 441.959761 
L 135.161054 443.271546 
L 130.687539 446.194239 
L 127.405409 450.411121 
L 125.670332 455.465226 
L 125.670332 460.808864 
L 127.405409 465.862969 
L 130.687539 470.079851 
L 135.161054 473.002544 
L 140.341178 474.314329 
L 145.666565 473.873055 
L 150.560127 471.72654 
L 154.491569 468.107393 
L 157.03486 463.407803 
L 157.914394 458.137045 
" style="fill:none;stroke:#000000;stroke-dasharray:5.55,2.4;stroke-dashoffset:0;stroke-width:1.5;"/>
   </g>
   <g id="line2d_32">
    <path clip-path="url(#p97985d7404)" d="M 146.145666 458.137045 
L 145.903794 456.687587 
L 145.204389 455.3952 
L 144.123243 454.399934 
L 142.777513 453.809642 
L 141.313032 453.688292 
L 139.888498 454.049033 
L 138.658281 454.852774 
L 137.755695 456.012416 
L 137.278549 457.402295 
L 137.278549 458.871795 
L 137.755695 460.261674 
L 138.658281 461.421317 
L 139.888498 462.225057 
L 141.313032 462.585798 
L 142.777513 462.464448 
L 144.123243 461.874156 
L 145.204389 460.878891 
L 145.903794 459.586503 
L 146.145666 458.137045 
" style="fill:none;stroke:#ff0000;stroke-linecap:square;stroke-width:1.5;"/>
   </g>
   <g id="line2d_33">
    <path clip-path="url(#p97985d7404)" d="M 143.462771 392.305784 
L 142.583237 387.035026 
L 140.039946 382.335436 
L 136.108504 378.716289 
L 131.214942 376.569774 
L 125.889555 376.128499 
L 120.709431 377.440285 
L 116.235916 380.362978 
L 112.953786 384.57986 
L 111.218709 389.633965 
L 111.218709 394.977603 
L 112.953786 400.031708 
L 116.235916 404.248589 
L 120.709431 407.171282 
L 125.889555 408.483068 
L 131.214942 408.041794 
L 136.108504 405.895279 
L 140.039946 402.276131 
L 142.583237 397.576542 
L 143.462771 392.305784 
" style="fill:none;stroke:#000000;stroke-dasharray:5.55,2.4;stroke-dashoffset:0;stroke-width:1.5;"/>
   </g>
   <g id="line2d_34">
    <path clip-path="url(#p97985d7404)" d="M 131.694043 392.305784 
L 131.452172 390.856325 
L 130.752767 389.563938 
L 129.67162 388.568673 
L 128.325891 387.978381 
L 126.861409 387.857031 
L 125.436875 388.217772 
L 124.206658 389.021512 
L 123.304073 390.181155 
L 122.826927 391.571033 
L 122.826927 393.040534 
L 123.304073 394.430413 
L 124.206658 395.590055 
L 125.436875 396.393796 
L 126.861409 396.754537 
L 128.325891 396.633187 
L 129.67162 396.042895 
L 130.752767 395.047629 
L 131.452172 393.755242 
L 131.694043 392.305784 
" style="fill:none;stroke:#ff0000;stroke-linecap:square;stroke-width:1.5;"/>
   </g>
   <g id="line2d_35">
    <path clip-path="url(#p97985d7404)" d="M 217.244699 386.563589 
L 216.365165 381.292831 
L 213.821874 376.593241 
L 209.890432 372.974094 
L 204.996871 370.827579 
L 199.671484 370.386304 
L 194.49136 371.69809 
L 190.017845 374.620783 
L 186.735714 378.837664 
L 185.000638 383.89177 
L 185.000638 389.235408 
L 186.735714 394.289513 
L 190.017845 398.506394 
L 194.49136 401.429087 
L 199.671484 402.740873 
L 204.996871 402.299599 
L 209.890432 400.153084 
L 213.821874 396.533936 
L 216.365165 391.834347 
L 217.244699 386.563589 
" style="fill:none;stroke:#000000;stroke-dasharray:5.55,2.4;stroke-dashoffset:0;stroke-width:1.5;"/>
   </g>
   <g id="line2d_36">
    <path clip-path="url(#p97985d7404)" d="M 205.475972 386.563589 
L 205.2341 385.11413 
L 204.534695 383.821743 
L 203.453548 382.826478 
L 202.107819 382.236186 
L 200.643338 382.114836 
L 199.218803 382.475577 
L 197.988587 383.279317 
L 197.086001 384.43896 
L 196.608855 385.828838 
L 196.608855 387.298339 
L 197.086001 388.688218 
L 197.988587 389.84786 
L 199.218803 390.651601 
L 200.643338 391.012342 
L 202.107819 390.890991 
L 203.453548 390.3007 
L 204.534695 389.305434 
L 205.2341 388.013047 
L 205.475972 386.563589 
" style="fill:none;stroke:#ff0000;stroke-linecap:square;stroke-width:1.5;"/>
   </g>
   <g id="line2d_37">
    <path clip-path="url(#p97985d7404)" d="M 288.618912 229.506897 
L 287.739378 224.236139 
L 285.196088 219.536549 
L 281.264645 215.917402 
L 276.371084 213.770887 
L 271.045697 213.329612 
L 265.865573 214.641398 
L 261.392058 217.564091 
L 258.109927 221.780973 
L 256.374851 226.835078 
L 256.374851 232.178716 
L 258.109927 237.232821 
L 261.392058 241.449702 
L 265.865573 244.372395 
L 271.045697 245.684181 
L 276.371084 245.242907 
L 281.264645 243.096392 
L 285.196088 239.477244 
L 287.739378 234.777655 
L 288.618912 229.506897 
" style="fill:none;stroke:#000000;stroke-dasharray:5.55,2.4;stroke-dashoffset:0;stroke-width:1.5;"/>
   </g>
   <g id="line2d_38">
    <path clip-path="url(#p97985d7404)" d="M 276.850185 229.506897 
L 276.608313 228.057438 
L 275.908908 226.765051 
L 274.827762 225.769786 
L 273.482032 225.179494 
L 272.017551 225.058144 
L 270.593017 225.418885 
L 269.3628 226.222625 
L 268.460214 227.382268 
L 267.983068 228.772146 
L 267.983068 230.241647 
L 268.460214 231.631526 
L 269.3628 232.791168 
L 270.593017 233.594909 
L 272.017551 233.95565 
L 273.482032 233.8343 
L 274.827762 233.244008 
L 275.908908 232.248742 
L 276.608313 230.956355 
L 276.850185 229.506897 
" style="fill:none;stroke:#ff0000;stroke-linecap:square;stroke-width:1.5;"/>
   </g>
   <g id="line2d_39">
    <path clip-path="url(#p97985d7404)" d="M 286.380383 466.217399 
L 285.500849 460.946641 
L 282.957558 456.247052 
L 279.026116 452.627904 
L 274.132554 450.481389 
L 268.807167 450.040115 
L 263.627043 451.3519 
L 259.153528 454.274594 
L 255.871398 458.491475 
L 254.136321 463.54558 
L 254.136321 468.889218 
L 255.871398 473.943323 
L 259.153528 478.160205 
L 263.627043 481.082898 
L 268.807167 482.394683 
L 274.132554 481.953409 
L 279.026116 479.806894 
L 282.957558 476.187747 
L 285.500849 471.488157 
L 286.380383 466.217399 
" style="fill:none;stroke:#000000;stroke-dasharray:5.55,2.4;stroke-dashoffset:0;stroke-width:1.5;"/>
   </g>
   <g id="line2d_40">
    <path clip-path="url(#p97985d7404)" d="M 274.611655 466.217399 
L 274.369783 464.767941 
L 273.670379 463.475554 
L 272.589232 462.480288 
L 271.243502 461.889996 
L 269.779021 461.768646 
L 268.354487 462.129387 
L 267.12427 462.933128 
L 266.221684 464.09277 
L 265.744538 465.482649 
L 265.744538 466.952149 
L 266.221684 468.342028 
L 267.12427 469.501671 
L 268.354487 470.305411 
L 269.779021 470.666152 
L 271.243502 470.544802 
L 272.589232 469.95451 
L 273.670379 468.959245 
L 274.369783 467.666858 
L 274.611655 466.217399 
" style="fill:none;stroke:#ff0000;stroke-linecap:square;stroke-width:1.5;"/>
   </g>
   <g id="line2d_41">
    <path clip-path="url(#p97985d7404)" d="M 395.044796 452.891754 
L 394.165262 447.620996 
L 391.621972 442.921406 
L 387.690529 439.302258 
L 382.796968 437.155743 
L 377.471581 436.714469 
L 372.291457 438.026255 
L 367.817942 440.948948 
L 364.535811 445.165829 
L 362.800735 450.219934 
L 362.800735 455.563573 
L 364.535811 460.617678 
L 367.817942 464.834559 
L 372.291457 467.757252 
L 377.471581 469.069038 
L 382.796968 468.627764 
L 387.690529 466.481249 
L 391.621972 462.862101 
L 394.165262 458.162512 
L 395.044796 452.891754 
" style="fill:none;stroke:#000000;stroke-dasharray:5.55,2.4;stroke-dashoffset:0;stroke-width:1.5;"/>
   </g>
   <g id="line2d_42">
    <path clip-path="url(#p97985d7404)" d="M 383.276069 452.891754 
L 383.034197 451.442295 
L 382.334792 450.149908 
L 381.253645 449.154642 
L 379.907916 448.564351 
L 378.443435 448.443 
L 377.018901 448.803741 
L 375.788684 449.607482 
L 374.886098 450.767124 
L 374.408952 452.157003 
L 374.408952 453.626504 
L 374.886098 455.016383 
L 375.788684 456.176025 
L 377.018901 456.979766 
L 378.443435 457.340507 
L 379.907916 457.219156 
L 381.253645 456.628865 
L 382.334792 455.633599 
L 383.034197 454.341212 
L 383.276069 452.891754 
" style="fill:none;stroke:#ff0000;stroke-linecap:square;stroke-width:1.5;"/>
   </g>
   <g id="line2d_43">
    <path clip-path="url(#p97985d7404)" d="M 382.880215 165.605415 
L 382.000681 160.334657 
L 379.457391 155.635068 
L 375.525948 152.01592 
L 370.632387 149.869405 
L 365.307 149.428131 
L 360.126876 150.739917 
L 355.653361 153.66261 
L 352.371231 157.879491 
L 350.636154 162.933596 
L 350.636154 168.277234 
L 352.371231 173.331339 
L 355.653361 177.548221 
L 360.126876 180.470914 
L 365.307 181.782699 
L 370.632387 181.341425 
L 375.525948 179.19491 
L 379.457391 175.575763 
L 382.000681 170.876173 
L 382.880215 165.605415 
" style="fill:none;stroke:#000000;stroke-dasharray:5.55,2.4;stroke-dashoffset:0;stroke-width:1.5;"/>
   </g>
   <g id="line2d_44">
    <path clip-path="url(#p97985d7404)" d="M 371.111488 165.605415 
L 370.869616 164.155957 
L 370.170211 162.86357 
L 369.089065 161.868304 
L 367.743335 161.278012 
L 366.278854 161.156662 
L 364.85432 161.517403 
L 363.624103 162.321144 
L 362.721517 163.480786 
L 362.244371 164.870665 
L 362.244371 166.340165 
L 362.721517 167.730044 
L 363.624103 168.889687 
L 364.85432 169.693427 
L 366.278854 170.054168 
L 367.743335 169.932818 
L 369.089065 169.342526 
L 370.170211 168.347261 
L 370.869616 167.054874 
L 371.111488 165.605415 
" style="fill:none;stroke:#ff0000;stroke-linecap:square;stroke-width:1.5;"/>
   </g>
   <g id="line2d_45">
    <path clip-path="url(#p97985d7404)" d="M 360.878521 117.626901 
L 359.998988 112.356143 
L 357.455697 107.656553 
L 353.524254 104.037405 
L 348.630693 101.89089 
L 343.305306 101.449616 
L 338.125182 102.761402 
L 333.651667 105.684095 
L 330.369537 109.900976 
L 328.63446 114.955081 
L 328.63446 120.29872 
L 330.369537 125.352825 
L 333.651667 129.569706 
L 338.125182 132.492399 
L 343.305306 133.804185 
L 348.630693 133.362911 
L 353.524254 131.216396 
L 357.455697 127.597248 
L 359.998988 122.897658 
L 360.878521 117.626901 
" style="fill:none;stroke:#000000;stroke-dasharray:5.55,2.4;stroke-dashoffset:0;stroke-width:1.5;"/>
   </g>
   <g id="line2d_46">
    <path clip-path="url(#p97985d7404)" d="M 349.109794 117.626901 
L 348.867922 116.177442 
L 348.168517 114.885055 
L 347.087371 113.889789 
L 345.741641 113.299498 
L 344.27716 113.178147 
L 342.852626 113.538888 
L 341.622409 114.342629 
L 340.719823 115.502271 
L 340.242677 116.89215 
L 340.242677 118.361651 
L 340.719823 119.75153 
L 341.622409 120.911172 
L 342.852626 121.714913 
L 344.27716 122.075654 
L 345.741641 121.954303 
L 347.087371 121.364012 
L 348.168517 120.368746 
L 348.867922 119.076359 
L 349.109794 117.626901 
" style="fill:none;stroke:#ff0000;stroke-linecap:square;stroke-width:1.5;"/>
   </g>
   <g id="line2d_47">
    <path clip-path="url(#p97985d7404)" d="M 420.439384 364.034291 
L 419.55985 358.763533 
L 417.01656 354.063944 
L 413.085117 350.444796 
L 408.191556 348.298281 
L 402.866169 347.857007 
L 397.686045 349.168793 
L 393.21253 352.091486 
L 389.930399 356.308367 
L 388.195323 361.362472 
L 388.195323 366.70611 
L 389.930399 371.760216 
L 393.21253 375.977097 
L 397.686045 378.89979 
L 402.866169 380.211576 
L 408.191556 379.770301 
L 413.085117 377.623786 
L 417.01656 374.004639 
L 419.55985 369.305049 
L 420.439384 364.034291 
" style="fill:none;stroke:#000000;stroke-dasharray:5.55,2.4;stroke-dashoffset:0;stroke-width:1.5;"/>
   </g>
   <g id="line2d_48">
    <path clip-path="url(#p97985d7404)" d="M 408.670657 364.034291 
L 408.428785 362.584833 
L 407.72938 361.292446 
L 406.648234 360.29718 
L 405.302504 359.706889 
L 403.838023 359.585538 
L 402.413489 359.946279 
L 401.183272 360.75002 
L 400.280686 361.909662 
L 399.80354 363.299541 
L 399.80354 364.769042 
L 400.280686 366.15892 
L 401.183272 367.318563 
L 402.413489 368.122303 
L 403.838023 368.483044 
L 405.302504 368.361694 
L 406.648234 367.771402 
L 407.72938 366.776137 
L 408.428785 365.48375 
L 408.670657 364.034291 
" style="fill:none;stroke:#ff0000;stroke-linecap:square;stroke-width:1.5;"/>
   </g>
   <g id="line2d_49">
    <path clip-path="url(#p97985d7404)" d="M 143.898668 361.17699 
L 143.019134 355.906232 
L 140.475844 351.206642 
L 136.544401 347.587495 
L 131.65084 345.44098 
L 126.325453 344.999705 
L 121.145329 346.311491 
L 116.671814 349.234184 
L 113.389683 353.451066 
L 111.654607 358.505171 
L 111.654607 363.848809 
L 113.389683 368.902914 
L 116.671814 373.119795 
L 121.145329 376.042488 
L 126.325453 377.354274 
L 131.65084 376.913 
L 136.544401 374.766485 
L 140.475844 371.147337 
L 143.019134 366.447748 
L 143.898668 361.17699 
" style="fill:none;stroke:#000000;stroke-dasharray:5.55,2.4;stroke-dashoffset:0;stroke-width:1.5;"/>
   </g>
   <g id="line2d_50">
    <path clip-path="url(#p97985d7404)" d="M 132.129941 361.17699 
L 131.888069 359.727531 
L 131.188664 358.435144 
L 130.107517 357.439879 
L 128.761788 356.849587 
L 127.297307 356.728237 
L 125.872773 357.088978 
L 124.642556 357.892718 
L 123.73997 359.052361 
L 123.262824 360.44224 
L 123.262824 361.91174 
L 123.73997 363.301619 
L 124.642556 364.461261 
L 125.872773 365.265002 
L 127.297307 365.625743 
L 128.761788 365.504393 
L 130.107517 364.914101 
L 131.188664 363.918835 
L 131.888069 362.626448 
L 132.129941 361.17699 
" style="fill:none;stroke:#ff0000;stroke-linecap:square;stroke-width:1.5;"/>
   </g>
   <g id="line2d_51">
    <path clip-path="url(#p97985d7404)" d="M 320.767018 424.211055 
L 319.887484 418.940297 
L 317.344194 414.240707 
L 313.412751 410.62156 
L 308.51919 408.475045 
L 303.193803 408.03377 
L 298.013679 409.345556 
L 293.540164 412.268249 
L 290.258033 416.48513 
L 288.522957 421.539236 
L 288.522957 426.882874 
L 290.258033 431.936979 
L 293.540164 436.15386 
L 298.013679 439.076553 
L 303.193803 440.388339 
L 308.51919 439.947065 
L 313.412751 437.80055 
L 317.344194 434.181402 
L 319.887484 429.481813 
L 320.767018 424.211055 
" style="fill:none;stroke:#000000;stroke-dasharray:5.55,2.4;stroke-dashoffset:0;stroke-width:1.5;"/>
   </g>
   <g id="line2d_52">
    <path clip-path="url(#p97985d7404)" d="M 308.998291 424.211055 
L 308.756419 422.761596 
L 308.057014 421.469209 
L 306.975868 420.473944 
L 305.630138 419.883652 
L 304.165657 419.762302 
L 302.741123 420.123043 
L 301.510906 420.926783 
L 300.60832 422.086426 
L 300.131174 423.476304 
L 300.131174 424.945805 
L 300.60832 426.335684 
L 301.510906 427.495326 
L 302.741123 428.299067 
L 304.165657 428.659808 
L 305.630138 428.538457 
L 306.975868 427.948166 
L 308.057014 426.9529 
L 308.756419 425.660513 
L 308.998291 424.211055 
" style="fill:none;stroke:#ff0000;stroke-linecap:square;stroke-width:1.5;"/>
   </g>
   <g id="line2d_53">
    <path clip-path="url(#p97985d7404)" d="M 488.879486 126.205241 
L 487.999952 120.934483 
L 485.456661 116.234894 
L 481.525219 112.615746 
L 476.631657 110.469231 
L 471.30627 110.027957 
L 466.126146 111.339743 
L 461.652631 114.262436 
L 458.370501 118.479317 
L 456.635424 123.533422 
L 456.635424 128.87706 
L 458.370501 133.931166 
L 461.652631 138.148047 
L 466.126146 141.07074 
L 471.30627 142.382526 
L 476.631657 141.941251 
L 481.525219 139.794736 
L 485.456661 136.175589 
L 487.999952 131.475999 
L 488.879486 126.205241 
" style="fill:none;stroke:#000000;stroke-dasharray:5.55,2.4;stroke-dashoffset:0;stroke-width:1.5;"/>
   </g>
   <g id="line2d_54">
    <path clip-path="url(#p97985d7404)" d="M 477.110758 126.205241 
L 476.868886 124.755783 
L 476.169481 123.463396 
L 475.088335 122.46813 
L 473.742605 121.877839 
L 472.278124 121.756488 
L 470.85359 122.117229 
L 469.623373 122.92097 
L 468.720787 124.080612 
L 468.243641 125.470491 
L 468.243641 126.939992 
L 468.720787 128.32987 
L 469.623373 129.489513 
L 470.85359 130.293253 
L 472.278124 130.653994 
L 473.742605 130.532644 
L 475.088335 129.942352 
L 476.169481 128.947087 
L 476.868886 127.6547 
L 477.110758 126.205241 
" style="fill:none;stroke:#ff0000;stroke-linecap:square;stroke-width:1.5;"/>
   </g>
   <g id="line2d_55">
    <path clip-path="url(#p97985d7404)" d="M 284.998226 342.840005 
L 284.118692 337.569247 
L 281.575401 332.869657 
L 277.643959 329.25051 
L 272.750398 327.103995 
L 267.425011 326.66272 
L 262.244886 327.974506 
L 257.771372 330.897199 
L 254.489241 335.114081 
L 252.754165 340.168186 
L 252.754165 345.511824 
L 254.489241 350.565929 
L 257.771372 354.78281 
L 262.244886 357.705503 
L 267.425011 359.017289 
L 272.750398 358.576015 
L 277.643959 356.4295 
L 281.575401 352.810352 
L 284.118692 348.110763 
L 284.998226 342.840005 
" style="fill:none;stroke:#000000;stroke-dasharray:5.55,2.4;stroke-dashoffset:0;stroke-width:1.5;"/>
   </g>
   <g id="line2d_56">
    <path clip-path="url(#p97985d7404)" d="M 273.229499 342.840005 
L 272.987627 341.390546 
L 272.288222 340.098159 
L 271.207075 339.102894 
L 269.861346 338.512602 
L 268.396864 338.391252 
L 266.97233 338.751993 
L 265.742114 339.555733 
L 264.839528 340.715376 
L 264.362382 342.105255 
L 264.362382 343.574755 
L 264.839528 344.964634 
L 265.742114 346.124276 
L 266.97233 346.928017 
L 268.396864 347.288758 
L 269.861346 347.167408 
L 271.207075 346.577116 
L 272.288222 345.58185 
L 272.987627 344.289463 
L 273.229499 342.840005 
" style="fill:none;stroke:#ff0000;stroke-linecap:square;stroke-width:1.5;"/>
   </g>
   <g id="line2d_57">
    <path clip-path="url(#p97985d7404)" d="M 205.720862 258.261839 
L 204.841328 252.991081 
L 202.298038 248.291491 
L 198.366595 244.672343 
L 193.473034 242.525828 
L 188.147647 242.084554 
L 182.967523 243.39634 
L 178.494008 246.319033 
L 175.211877 250.535914 
L 173.476801 255.590019 
L 173.476801 260.933658 
L 175.211877 265.987763 
L 178.494008 270.204644 
L 182.967523 273.127337 
L 188.147647 274.439123 
L 193.473034 273.997849 
L 198.366595 271.851334 
L 202.298038 268.232186 
L 204.841328 263.532596 
L 205.720862 258.261839 
" style="fill:none;stroke:#000000;stroke-dasharray:5.55,2.4;stroke-dashoffset:0;stroke-width:1.5;"/>
   </g>
   <g id="line2d_58">
    <path clip-path="url(#p97985d7404)" d="M 193.952135 258.261839 
L 193.710263 256.81238 
L 193.010858 255.519993 
L 191.929711 254.524727 
L 190.583982 253.934436 
L 189.119501 253.813085 
L 187.694966 254.173826 
L 186.46475 254.977567 
L 185.562164 256.137209 
L 185.085018 257.527088 
L 185.085018 258.996589 
L 185.562164 260.386468 
L 186.46475 261.54611 
L 187.694966 262.349851 
L 189.119501 262.710592 
L 190.583982 262.589241 
L 191.929711 261.99895 
L 193.010858 261.003684 
L 193.710263 259.711297 
L 193.952135 258.261839 
" style="fill:none;stroke:#ff0000;stroke-linecap:square;stroke-width:1.5;"/>
   </g>
   <g id="line2d_59">
    <path clip-path="url(#p97985d7404)" d="M 253.459205 116.175049 
L 252.579671 110.904291 
L 250.036381 106.204702 
L 246.104938 102.585554 
L 241.211377 100.439039 
L 235.88599 99.997765 
L 230.705866 101.309551 
L 226.232351 104.232244 
L 222.95022 108.449125 
L 221.215144 113.50323 
L 221.215144 118.846869 
L 222.95022 123.900974 
L 226.232351 128.117855 
L 230.705866 131.040548 
L 235.88599 132.352334 
L 241.211377 131.91106 
L 246.104938 129.764545 
L 250.036381 126.145397 
L 252.579671 121.445807 
L 253.459205 116.175049 
" style="fill:none;stroke:#000000;stroke-dasharray:5.55,2.4;stroke-dashoffset:0;stroke-width:1.5;"/>
   </g>
   <g id="line2d_60">
    <path clip-path="url(#p97985d7404)" d="M 241.690478 116.175049 
L 241.448606 114.725591 
L 240.749201 113.433204 
L 239.668055 112.437938 
L 238.322325 111.847647 
L 236.857844 111.726296 
L 235.43331 112.087037 
L 234.203093 112.890778 
L 233.300507 114.05042 
L 232.823361 115.440299 
L 232.823361 116.9098 
L 233.300507 118.299679 
L 234.203093 119.459321 
L 235.43331 120.263062 
L 236.857844 120.623803 
L 238.322325 120.502452 
L 239.668055 119.912161 
L 240.749201 118.916895 
L 241.448606 117.624508 
L 241.690478 116.175049 
" style="fill:none;stroke:#ff0000;stroke-linecap:square;stroke-width:1.5;"/>
   </g>
   <g id="line2d_61">
    <path clip-path="url(#p97985d7404)" d="M 384.603357 429.359071 
L 383.723823 424.088313 
L 381.180533 419.388723 
L 377.24909 415.769576 
L 372.355529 413.623061 
L 367.030142 413.181787 
L 361.850018 414.493572 
L 357.376503 417.416265 
L 354.094372 421.633147 
L 352.359296 426.687252 
L 352.359296 432.03089 
L 354.094372 437.084995 
L 357.376503 441.301877 
L 361.850018 444.22457 
L 367.030142 445.536355 
L 372.355529 445.095081 
L 377.24909 442.948566 
L 381.180533 439.329418 
L 383.723823 434.629829 
L 384.603357 429.359071 
" style="fill:none;stroke:#000000;stroke-dasharray:5.55,2.4;stroke-dashoffset:0;stroke-width:1.5;"/>
   </g>
   <g id="line2d_62">
    <path clip-path="url(#p97985d7404)" d="M 372.83463 429.359071 
L 372.592758 427.909612 
L 371.893353 426.617225 
L 370.812207 425.62196 
L 369.466477 425.031668 
L 368.001996 424.910318 
L 366.577462 425.271059 
L 365.347245 426.074799 
L 364.444659 427.234442 
L 363.967513 428.624321 
L 363.967513 430.093821 
L 364.444659 431.4837 
L 365.347245 432.643342 
L 366.577462 433.447083 
L 368.001996 433.807824 
L 369.466477 433.686474 
L 370.812207 433.096182 
L 371.893353 432.100916 
L 372.592758 430.808529 
L 372.83463 429.359071 
" style="fill:none;stroke:#ff0000;stroke-linecap:square;stroke-width:1.5;"/>
   </g>
   <g id="line2d_63">
    <path clip-path="url(#p97985d7404)" d="M 191.887868 401.016184 
L 191.008334 395.745426 
L 188.465044 391.045837 
L 184.533601 387.426689 
L 179.64004 385.280174 
L 174.314653 384.8389 
L 169.134529 386.150685 
L 164.661014 389.073378 
L 161.378883 393.29026 
L 159.643807 398.344365 
L 159.643807 403.688003 
L 161.378883 408.742108 
L 164.661014 412.95899 
L 169.134529 415.881683 
L 174.314653 417.193468 
L 179.64004 416.752194 
L 184.533601 414.605679 
L 188.465044 410.986531 
L 191.008334 406.286942 
L 191.887868 401.016184 
" style="fill:none;stroke:#000000;stroke-dasharray:5.55,2.4;stroke-dashoffset:0;stroke-width:1.5;"/>
   </g>
   <g id="line2d_64">
    <path clip-path="url(#p97985d7404)" d="M 180.119141 401.016184 
L 179.877269 399.566726 
L 179.177864 398.274338 
L 178.096718 397.279073 
L 176.750988 396.688781 
L 175.286507 396.567431 
L 173.861973 396.928172 
L 172.631756 397.731912 
L 171.72917 398.891555 
L 171.252024 400.281434 
L 171.252024 401.750934 
L 171.72917 403.140813 
L 172.631756 404.300456 
L 173.861973 405.104196 
L 175.286507 405.464937 
L 176.750988 405.343587 
L 178.096718 404.753295 
L 179.177864 403.75803 
L 179.877269 402.465642 
L 180.119141 401.016184 
" style="fill:none;stroke:#ff0000;stroke-linecap:square;stroke-width:1.5;"/>
   </g>
   <g id="line2d_65">
    <path clip-path="url(#p97985d7404)" d="M 478.245292 320.727554 
L 477.365758 315.456796 
L 474.822468 310.757206 
L 470.891025 307.138059 
L 465.997464 304.991544 
L 460.672077 304.55027 
L 455.491953 305.862055 
L 451.018438 308.784748 
L 447.736307 313.00163 
L 446.001231 318.055735 
L 446.001231 323.399373 
L 447.736307 328.453478 
L 451.018438 332.670359 
L 455.491953 335.593053 
L 460.672077 336.904838 
L 465.997464 336.463564 
L 470.891025 334.317049 
L 474.822468 330.697901 
L 477.365758 325.998312 
L 478.245292 320.727554 
" style="fill:none;stroke:#000000;stroke-dasharray:5.55,2.4;stroke-dashoffset:0;stroke-width:1.5;"/>
   </g>
   <g id="line2d_66">
    <path clip-path="url(#p97985d7404)" d="M 466.476565 320.727554 
L 466.234693 319.278095 
L 465.535288 317.985708 
L 464.454142 316.990443 
L 463.108412 316.400151 
L 461.643931 316.278801 
L 460.219397 316.639542 
L 458.98918 317.443282 
L 458.086594 318.602925 
L 457.609448 319.992804 
L 457.609448 321.462304 
L 458.086594 322.852183 
L 458.98918 324.011825 
L 460.219397 324.815566 
L 461.643931 325.176307 
L 463.108412 325.054957 
L 464.454142 324.464665 
L 465.535288 323.469399 
L 466.234693 322.177012 
L 466.476565 320.727554 
" style="fill:none;stroke:#ff0000;stroke-linecap:square;stroke-width:1.5;"/>
   </g>
   <g id="line2d_67">
    <path clip-path="url(#p97985d7404)" d="M 310.343351 185.157347 
L 309.463817 179.886589 
L 306.920526 175.187 
L 302.989084 171.567852 
L 298.095522 169.421337 
L 292.770135 168.980063 
L 287.590011 170.291849 
L 283.116496 173.214542 
L 279.834366 177.431423 
L 278.099289 182.485528 
L 278.099289 187.829166 
L 279.834366 192.883271 
L 283.116496 197.100153 
L 287.590011 200.022846 
L 292.770135 201.334632 
L 298.095522 200.893357 
L 302.989084 198.746842 
L 306.920526 195.127695 
L 309.463817 190.428105 
L 310.343351 185.157347 
" style="fill:none;stroke:#000000;stroke-dasharray:5.55,2.4;stroke-dashoffset:0;stroke-width:1.5;"/>
   </g>
   <g id="line2d_68">
    <path clip-path="url(#p97985d7404)" d="M 298.574623 185.157347 
L 298.332751 183.707889 
L 297.633347 182.415502 
L 296.5522 181.420236 
L 295.206471 180.829944 
L 293.741989 180.708594 
L 292.317455 181.069335 
L 291.087238 181.873076 
L 290.184652 183.032718 
L 289.707506 184.422597 
L 289.707506 185.892097 
L 290.184652 187.281976 
L 291.087238 188.441619 
L 292.317455 189.245359 
L 293.741989 189.6061 
L 295.206471 189.48475 
L 296.5522 188.894458 
L 297.633347 187.899193 
L 298.332751 186.606806 
L 298.574623 185.157347 
" style="fill:none;stroke:#ff0000;stroke-linecap:square;stroke-width:1.5;"/>
   </g>
   <g id="line2d_69">
    <path clip-path="url(#p97985d7404)" d="M 380.523406 232.176726 
L 379.643872 226.905968 
L 377.100581 222.206378 
L 373.169139 218.587231 
L 368.275578 216.440716 
L 362.950191 215.999441 
L 357.770067 217.311227 
L 353.296552 220.23392 
L 350.014421 224.450802 
L 348.279345 229.504907 
L 348.279345 234.848545 
L 350.014421 239.90265 
L 353.296552 244.119531 
L 357.770067 247.042224 
L 362.950191 248.35401 
L 368.275578 247.912736 
L 373.169139 245.766221 
L 377.100581 242.147073 
L 379.643872 237.447484 
L 380.523406 232.176726 
" style="fill:none;stroke:#000000;stroke-dasharray:5.55,2.4;stroke-dashoffset:0;stroke-width:1.5;"/>
   </g>
   <g id="line2d_70">
    <path clip-path="url(#p97985d7404)" d="M 368.754679 232.176726 
L 368.512807 230.727267 
L 367.813402 229.43488 
L 366.732255 228.439615 
L 365.386526 227.849323 
L 363.922045 227.727973 
L 362.49751 228.088714 
L 361.267294 228.892454 
L 360.364708 230.052097 
L 359.887562 231.441975 
L 359.887562 232.911476 
L 360.364708 234.301355 
L 361.267294 235.460997 
L 362.49751 236.264738 
L 363.922045 236.625479 
L 365.386526 236.504129 
L 366.732255 235.913837 
L 367.813402 234.918571 
L 368.512807 233.626184 
L 368.754679 232.176726 
" style="fill:none;stroke:#ff0000;stroke-linecap:square;stroke-width:1.5;"/>
   </g>
   <g id="line2d_71">
    <path clip-path="url(#p97985d7404)" d="M 325.177836 269.864921 
L 324.298302 264.594163 
L 321.755011 259.894574 
L 317.823569 256.275426 
L 312.930008 254.128911 
L 307.604621 253.687637 
L 302.424496 254.999423 
L 297.950982 257.922116 
L 294.668851 262.138997 
L 292.933775 267.193102 
L 292.933775 272.53674 
L 294.668851 277.590845 
L 297.950982 281.807727 
L 302.424496 284.73042 
L 307.604621 286.042205 
L 312.930008 285.600931 
L 317.823569 283.454416 
L 321.755011 279.835269 
L 324.298302 275.135679 
L 325.177836 269.864921 
" style="fill:none;stroke:#000000;stroke-dasharray:5.55,2.4;stroke-dashoffset:0;stroke-width:1.5;"/>
   </g>
   <g id="line2d_72">
    <path clip-path="url(#p97985d7404)" d="M 313.409109 269.864921 
L 313.167237 268.415463 
L 312.467832 267.123076 
L 311.386685 266.12781 
L 310.040956 265.537518 
L 308.576474 265.416168 
L 307.15194 265.776909 
L 305.921724 266.58065 
L 305.019138 267.740292 
L 304.541992 269.130171 
L 304.541992 270.599671 
L 305.019138 271.98955 
L 305.921724 273.149193 
L 307.15194 273.952933 
L 308.576474 274.313674 
L 310.040956 274.192324 
L 311.386685 273.602032 
L 312.467832 272.606767 
L 313.167237 271.31438 
L 313.409109 269.864921 
" style="fill:none;stroke:#ff0000;stroke-linecap:square;stroke-width:1.5;"/>
   </g>
   <g id="line2d_73">
    <path clip-path="url(#p97985d7404)" d="M 92.290909 493.789091 
L 92.290909 87.970909 
" style="fill:none;stroke:#000000;stroke-linecap:square;stroke-width:4;"/>
   </g>
   <g id="line2d_74">
    <path clip-path="url(#p97985d7404)" d="M 92.290909 87.970909 
L 498.109091 87.970909 
" style="fill:none;stroke:#000000;stroke-linecap:square;stroke-width:4;"/>
   </g>
   <g id="line2d_75">
    <path clip-path="url(#p97985d7404)" d="M 498.109091 87.970909 
L 498.109091 493.789091 
" style="fill:none;stroke:#000000;stroke-linecap:square;stroke-width:4;"/>
   </g>
   <g id="line2d_76">
    <path clip-path="url(#p97985d7404)" d="M 498.109091 493.789091 
L 92.290909 493.789091 
" style="fill:none;stroke:#000000;stroke-linecap:square;stroke-width:4;"/>
   </g>
   <g id="patch_3">
    <path d="M 72 512.64 
L 72 69.12 
" style="fill:none;stroke:#000000;stroke-linecap:square;stroke-linejoin:miter;stroke-width:0.8;"/>
   </g>
   <g id="patch_4">
    <path d="M 518.4 512.64 
L 518.4 69.12 
" style="fill:none;stroke:#000000;stroke-linecap:square;stroke-linejoin:miter;stroke-width:0.8;"/>
   </g>
   <g id="patch_5">
    <path d="M 72 512.64 
L 518.4 512.64 
" style="fill:none;stroke:#000000;stroke-linecap:square;stroke-linejoin:miter;stroke-width:0.8;"/>
   </g>
   <g id="patch_6">
    <path d="M 72 69.12 
L 518.4 69.12 
" style="fill:none;stroke:#000000;stroke-linecap:square;stroke-linejoin:miter;stroke-width:0.8;"/>
   </g>
   <g id="text_12">
    <!-- 1 -->
    <defs>
     <path d="M 14.203125 0 
L 14.203125 5.171875 
L 26.90625 5.171875 
L 26.90625 65.828125 
L 12.203125 56.296875 
L 12.203125 62.703125 
L 29.984375 74.21875 
L 36.71875 74.21875 
L 36.71875 5.171875 
L 49.421875 5.171875 
L 49.421875 0 
z
" id="DejaVuSerif-31"/>
    </defs>
    <g transform="translate(332.620895 303.749658)scale(0.1 -0.1)">
     <use xlink:href="#DejaVuSerif-31"/>
    </g>
   </g>
   <g id="text_13">
    <!-- 1 -->
    <g transform="translate(199.959905 145.727941)scale(0.1 -0.1)">
     <use xlink:href="#DejaVuSerif-31"/>
    </g>
   </g>
   <g id="text_14">
    <!-- 2 -->
    <defs>
     <path d="M 12.796875 55.515625 
L 7.328125 55.515625 
L 7.328125 68.5 
Q 12.546875 71.296875 17.84375 72.75 
Q 23.140625 74.21875 28.21875 74.21875 
Q 39.59375 74.21875 46.1875 68.703125 
Q 52.78125 63.1875 52.78125 53.71875 
Q 52.78125 43.015625 37.84375 28.125 
Q 36.671875 27 36.078125 26.421875 
L 17.671875 8.015625 
L 48.09375 8.015625 
L 48.09375 17 
L 53.8125 17 
L 53.8125 0 
L 6.78125 0 
L 6.78125 5.328125 
L 28.90625 27.390625 
Q 36.234375 34.71875 39.359375 40.84375 
Q 42.484375 46.96875 42.484375 53.71875 
Q 42.484375 61.078125 38.640625 65.234375 
Q 34.8125 69.390625 28.078125 69.390625 
Q 21.09375 69.390625 17.28125 65.921875 
Q 13.484375 62.453125 12.796875 55.515625 
z
" id="DejaVuSerif-32"/>
    </defs>
    <g transform="translate(403.090647 205.568906)scale(0.1 -0.1)">
     <use xlink:href="#DejaVuSerif-32"/>
    </g>
   </g>
   <g id="text_15">
    <!-- 2 -->
    <g transform="translate(339.141114 473.029723)scale(0.1 -0.1)">
     <use xlink:href="#DejaVuSerif-32"/>
    </g>
   </g>
   <g id="text_16">
    <!-- 3 -->
    <defs>
     <path d="M 9.71875 69.828125 
Q 15.4375 71.96875 20.671875 73.09375 
Q 25.921875 74.21875 30.515625 74.21875 
Q 41.21875 74.21875 47.21875 69.59375 
Q 53.21875 64.984375 53.21875 56.78125 
Q 53.21875 50.203125 49.0625 45.78125 
Q 44.921875 41.359375 37.3125 39.796875 
Q 46.296875 38.53125 51.25 33.28125 
Q 56.203125 28.03125 56.203125 19.671875 
Q 56.203125 9.46875 49.34375 4.015625 
Q 42.484375 -1.421875 29.59375 -1.421875 
Q 23.875 -1.421875 18.421875 -0.1875 
Q 12.984375 1.03125 7.625 3.515625 
L 7.625 17.671875 
L 13.09375 17.671875 
Q 13.578125 10.640625 17.828125 7.03125 
Q 22.078125 3.421875 29.78125 3.421875 
Q 37.25 3.421875 41.578125 7.734375 
Q 45.90625 12.0625 45.90625 19.578125 
Q 45.90625 28.171875 41.453125 32.59375 
Q 37.015625 37.015625 28.421875 37.015625 
L 23.78125 37.015625 
L 23.78125 42 
L 26.21875 42 
Q 34.765625 42 39.03125 45.53125 
Q 43.3125 49.078125 43.3125 56.203125 
Q 43.3125 62.59375 39.796875 65.984375 
Q 36.28125 69.390625 29.6875 69.390625 
Q 23.09375 69.390625 19.453125 66.265625 
Q 15.828125 63.140625 15.1875 56.984375 
L 9.71875 56.984375 
z
" id="DejaVuSerif-33"/>
    </defs>
    <g transform="translate(117.751512 243.665933)scale(0.1 -0.1)">
     <use xlink:href="#DejaVuSerif-33"/>
    </g>
   </g>
   <g id="text_17">
    <!-- 3 -->
    <g transform="translate(438.959086 382.406037)scale(0.1 -0.1)">
     <use xlink:href="#DejaVuSerif-33"/>
    </g>
   </g>
   <g id="text_18">
    <!-- 4 -->
    <defs>
     <path d="M 34.90625 24.703125 
L 34.90625 63.484375 
L 10.015625 24.703125 
z
M 56.390625 0 
L 23.1875 0 
L 23.1875 5.171875 
L 34.90625 5.171875 
L 34.90625 19.484375 
L 3.078125 19.484375 
L 3.078125 24.8125 
L 35.015625 74.21875 
L 44.671875 74.21875 
L 44.671875 24.703125 
L 58.59375 24.703125 
L 58.59375 19.484375 
L 44.671875 19.484375 
L 44.671875 5.171875 
L 56.390625 5.171875 
z
" id="DejaVuSerif-34"/>
    </defs>
    <g transform="translate(217.783986 220.732003)scale(0.1 -0.1)">
     <use xlink:href="#DejaVuSerif-34"/>
    </g>
   </g>
   <g id="text_19">
    <!-- 4 -->
    <g transform="translate(473.089573 412.911318)scale(0.1 -0.1)">
     <use xlink:href="#DejaVuSerif-34"/>
    </g>
   </g>
   <g id="text_20">
    <!-- 5 -->
    <defs>
     <path d="M 50.296875 72.90625 
L 50.296875 64.890625 
L 16.890625 64.890625 
L 16.890625 44 
Q 19.4375 45.75 22.828125 46.625 
Q 26.21875 47.515625 30.421875 47.515625 
Q 42.234375 47.515625 49.0625 40.96875 
Q 55.90625 34.421875 55.90625 23.09375 
Q 55.90625 11.53125 49 5.046875 
Q 42.09375 -1.421875 29.59375 -1.421875 
Q 24.5625 -1.421875 19.28125 -0.1875 
Q 14.015625 1.03125 8.5 3.515625 
L 8.5 17.671875 
L 14.015625 17.671875 
Q 14.453125 10.75 18.421875 7.078125 
Q 22.40625 3.421875 29.59375 3.421875 
Q 37.3125 3.421875 41.453125 8.5 
Q 45.609375 13.578125 45.609375 23.09375 
Q 45.609375 32.5625 41.484375 37.609375 
Q 37.359375 42.671875 29.59375 42.671875 
Q 25.203125 42.671875 21.84375 41.109375 
Q 18.5 39.546875 15.921875 36.28125 
L 11.71875 36.28125 
L 11.71875 72.90625 
z
" id="DejaVuSerif-35"/>
    </defs>
    <g transform="translate(405.678602 150.857605)scale(0.1 -0.1)">
     <use xlink:href="#DejaVuSerif-35"/>
    </g>
   </g>
   <g id="text_21">
    <!-- 5 -->
    <g transform="translate(141.356983 205.799419)scale(0.1 -0.1)">
     <use xlink:href="#DejaVuSerif-35"/>
    </g>
   </g>
   <g id="text_22">
    <!-- 6 -->
    <defs>
     <path d="M 32.71875 3.421875 
Q 39.59375 3.421875 43.296875 8.46875 
Q 47.015625 13.53125 47.015625 23 
Q 47.015625 32.46875 43.296875 37.515625 
Q 39.59375 42.578125 32.71875 42.578125 
Q 25.734375 42.578125 22.0625 37.6875 
Q 18.40625 32.8125 18.40625 23.578125 
Q 18.40625 13.875 22.109375 8.640625 
Q 25.828125 3.421875 32.71875 3.421875 
z
M 16.796875 40.140625 
Q 20.125 43.796875 24.3125 45.59375 
Q 28.515625 47.40625 33.796875 47.40625 
Q 44.671875 47.40625 51 40.859375 
Q 57.328125 34.328125 57.328125 23 
Q 57.328125 11.921875 50.515625 5.25 
Q 43.703125 -1.421875 32.328125 -1.421875 
Q 19.96875 -1.421875 13.328125 7.78125 
Q 6.6875 17 6.6875 34.078125 
Q 6.6875 53.21875 14.546875 63.71875 
Q 22.40625 74.21875 36.71875 74.21875 
Q 40.578125 74.21875 44.828125 73.484375 
Q 49.078125 72.75 53.515625 71.296875 
L 53.515625 59.28125 
L 48 59.28125 
Q 47.40625 64.203125 44.234375 66.796875 
Q 41.0625 69.390625 35.6875 69.390625 
Q 26.21875 69.390625 21.578125 62.203125 
Q 16.9375 55.03125 16.796875 40.140625 
z
" id="DejaVuSerif-36"/>
    </defs>
    <g transform="translate(402.572661 321.125276)scale(0.1 -0.1)">
     <use xlink:href="#DejaVuSerif-36"/>
    </g>
   </g>
   <g id="text_23">
    <!-- 6 -->
    <g transform="translate(173.541206 112.14627)scale(0.1 -0.1)">
     <use xlink:href="#DejaVuSerif-36"/>
    </g>
   </g>
   <g id="text_24">
    <!-- 7 -->
    <defs>
     <path d="M 56.390625 67.921875 
L 27.875 0 
L 20.609375 0 
L 47.796875 64.890625 
L 14.109375 64.890625 
L 14.109375 55.90625 
L 8.40625 55.90625 
L 8.40625 72.90625 
L 56.390625 72.90625 
z
" id="DejaVuSerif-37"/>
    </defs>
    <g transform="translate(235.837671 407.543246)scale(0.1 -0.1)">
     <use xlink:href="#DejaVuSerif-37"/>
    </g>
   </g>
   <g id="text_25">
    <!-- 7 -->
    <g transform="translate(411.643054 246.631494)scale(0.1 -0.1)">
     <use xlink:href="#DejaVuSerif-37"/>
    </g>
   </g>
   <g id="text_26">
    <!-- 8 -->
    <defs>
     <path d="M 46.578125 19.921875 
Q 46.578125 27.734375 42.6875 32.046875 
Q 38.8125 36.375 31.78125 36.375 
Q 24.75 36.375 20.875 32.046875 
Q 17 27.734375 17 19.921875 
Q 17 12.0625 20.875 7.734375 
Q 24.75 3.421875 31.78125 3.421875 
Q 38.8125 3.421875 42.6875 7.734375 
Q 46.578125 12.0625 46.578125 19.921875 
z
M 44.578125 55.328125 
Q 44.578125 61.96875 41.203125 65.671875 
Q 37.84375 69.390625 31.78125 69.390625 
Q 25.78125 69.390625 22.390625 65.671875 
Q 19 61.96875 19 55.328125 
Q 19 48.640625 22.390625 44.921875 
Q 25.78125 41.21875 31.78125 41.21875 
Q 37.84375 41.21875 41.203125 44.921875 
Q 44.578125 48.640625 44.578125 55.328125 
z
M 39.3125 38.8125 
Q 47.609375 37.703125 52.25 32.6875 
Q 56.890625 27.6875 56.890625 19.921875 
Q 56.890625 9.671875 50.390625 4.125 
Q 43.890625 -1.421875 31.78125 -1.421875 
Q 19.734375 -1.421875 13.203125 4.125 
Q 6.6875 9.671875 6.6875 19.921875 
Q 6.6875 27.6875 11.328125 32.6875 
Q 15.96875 37.703125 24.3125 38.8125 
Q 16.9375 40.140625 13 44.40625 
Q 9.078125 48.6875 9.078125 55.328125 
Q 9.078125 64.109375 15.125 69.15625 
Q 21.1875 74.21875 31.78125 74.21875 
Q 42.390625 74.21875 48.4375 69.15625 
Q 54.5 64.109375 54.5 55.328125 
Q 54.5 48.6875 50.5625 44.40625 
Q 46.625 40.140625 39.3125 38.8125 
z
" id="DejaVuSerif-38"/>
    </defs>
    <g transform="translate(291.892312 108.948036)scale(0.1 -0.1)">
     <use xlink:href="#DejaVuSerif-38"/>
    </g>
   </g>
   <g id="text_27">
    <!-- 8 -->
    <g transform="translate(343.082651 368.244428)scale(0.1 -0.1)">
     <use xlink:href="#DejaVuSerif-38"/>
    </g>
   </g>
  </g>
 </g>
 <defs>
  <clipPath id="p97985d7404">
   <rect height="443.52" width="446.4" x="72" y="69.12"/>
  </clipPath>
 </defs>
</svg>
