<?xml version="1.0" encoding="utf-8" standalone="no"?>
<!DOCTYPE svg PUBLIC "-//W3C//DTD SVG 1.1//EN"
  "http://www.w3.org/Graphics/SVG/1.1/DTD/svg11.dtd">
<!-- Created with matplotlib (http://matplotlib.org/) -->
<svg height="576pt" version="1.1" viewBox="0 0 576 576" width="576pt" xmlns="http://www.w3.org/2000/svg" xmlns:xlink="http://www.w3.org/1999/xlink">
 <defs>
  <style type="text/css">
*{stroke-linecap:butt;stroke-linejoin:round;}
  </style>
 </defs>
 <g id="figure_1">
  <g id="patch_1">
   <path d="M 0 576 
L 576 576 
L 576 0 
L 0 0 
z
" style="fill:#ffffff;"/>
  </g>
  <g id="axes_1">
   <g id="patch_2">
    <path d="M 72 512.64 
L 518.4 512.64 
L 518.4 69.12 
L 72 69.12 
z
" style="fill:#ffffff;"/>
   </g>
   <g id="matplotlib.axis_1">
    <g id="xtick_1">
     <g id="line2d_1">
      <defs>
       <path d="M 0 0 
L 0 3.5 
" id="m1ab7427ba5" style="stroke:#000000;stroke-width:0.8;"/>
      </defs>
      <g>
       <use style="stroke:#000000;stroke-width:0.8;" x="112.581818" xlink:href="#m1ab7427ba5" y="512.64"/>
      </g>
     </g>
     <g id="text_1">
      <!-- 0 -->
      <defs>
       <path d="M 31.78125 66.40625 
Q 24.171875 66.40625 20.328125 58.90625 
Q 16.5 51.421875 16.5 36.375 
Q 16.5 21.390625 20.328125 13.890625 
Q 24.171875 6.390625 31.78125 6.390625 
Q 39.453125 6.390625 43.28125 13.890625 
Q 47.125 21.390625 47.125 36.375 
Q 47.125 51.421875 43.28125 58.90625 
Q 39.453125 66.40625 31.78125 66.40625 
z
M 31.78125 74.21875 
Q 44.046875 74.21875 50.515625 64.515625 
Q 56.984375 54.828125 56.984375 36.375 
Q 56.984375 17.96875 50.515625 8.265625 
Q 44.046875 -1.421875 31.78125 -1.421875 
Q 19.53125 -1.421875 13.0625 8.265625 
Q 6.59375 17.96875 6.59375 36.375 
Q 6.59375 54.828125 13.0625 64.515625 
Q 19.53125 74.21875 31.78125 74.21875 
z
" id="DejaVuSans-30"/>
      </defs>
      <g transform="translate(109.400568 527.238438)scale(0.1 -0.1)">
       <use xlink:href="#DejaVuSans-30"/>
      </g>
     </g>
    </g>
    <g id="xtick_2">
     <g id="line2d_2">
      <g>
       <use style="stroke:#000000;stroke-width:0.8;" x="193.745455" xlink:href="#m1ab7427ba5" y="512.64"/>
      </g>
     </g>
     <g id="text_2">
      <!-- 2 -->
      <defs>
       <path d="M 19.1875 8.296875 
L 53.609375 8.296875 
L 53.609375 0 
L 7.328125 0 
L 7.328125 8.296875 
Q 12.9375 14.109375 22.625 23.890625 
Q 32.328125 33.6875 34.8125 36.53125 
Q 39.546875 41.84375 41.421875 45.53125 
Q 43.3125 49.21875 43.3125 52.78125 
Q 43.3125 58.59375 39.234375 62.25 
Q 35.15625 65.921875 28.609375 65.921875 
Q 23.96875 65.921875 18.8125 64.3125 
Q 13.671875 62.703125 7.8125 59.421875 
L 7.8125 69.390625 
Q 13.765625 71.78125 18.9375 73 
Q 24.125 74.21875 28.421875 74.21875 
Q 39.75 74.21875 46.484375 68.546875 
Q 53.21875 62.890625 53.21875 53.421875 
Q 53.21875 48.921875 51.53125 44.890625 
Q 49.859375 40.875 45.40625 35.40625 
Q 44.1875 33.984375 37.640625 27.21875 
Q 31.109375 20.453125 19.1875 8.296875 
z
" id="DejaVuSans-32"/>
      </defs>
      <g transform="translate(190.564205 527.238438)scale(0.1 -0.1)">
       <use xlink:href="#DejaVuSans-32"/>
      </g>
     </g>
    </g>
    <g id="xtick_3">
     <g id="line2d_3">
      <g>
       <use style="stroke:#000000;stroke-width:0.8;" x="274.909091" xlink:href="#m1ab7427ba5" y="512.64"/>
      </g>
     </g>
     <g id="text_3">
      <!-- 4 -->
      <defs>
       <path d="M 37.796875 64.3125 
L 12.890625 25.390625 
L 37.796875 25.390625 
z
M 35.203125 72.90625 
L 47.609375 72.90625 
L 47.609375 25.390625 
L 58.015625 25.390625 
L 58.015625 17.1875 
L 47.609375 17.1875 
L 47.609375 0 
L 37.796875 0 
L 37.796875 17.1875 
L 4.890625 17.1875 
L 4.890625 26.703125 
z
" id="DejaVuSans-34"/>
      </defs>
      <g transform="translate(271.727841 527.238438)scale(0.1 -0.1)">
       <use xlink:href="#DejaVuSans-34"/>
      </g>
     </g>
    </g>
    <g id="xtick_4">
     <g id="line2d_4">
      <g>
       <use style="stroke:#000000;stroke-width:0.8;" x="356.072727" xlink:href="#m1ab7427ba5" y="512.64"/>
      </g>
     </g>
     <g id="text_4">
      <!-- 6 -->
      <defs>
       <path d="M 33.015625 40.375 
Q 26.375 40.375 22.484375 35.828125 
Q 18.609375 31.296875 18.609375 23.390625 
Q 18.609375 15.53125 22.484375 10.953125 
Q 26.375 6.390625 33.015625 6.390625 
Q 39.65625 6.390625 43.53125 10.953125 
Q 47.40625 15.53125 47.40625 23.390625 
Q 47.40625 31.296875 43.53125 35.828125 
Q 39.65625 40.375 33.015625 40.375 
z
M 52.59375 71.296875 
L 52.59375 62.3125 
Q 48.875 64.0625 45.09375 64.984375 
Q 41.3125 65.921875 37.59375 65.921875 
Q 27.828125 65.921875 22.671875 59.328125 
Q 17.53125 52.734375 16.796875 39.40625 
Q 19.671875 43.65625 24.015625 45.921875 
Q 28.375 48.1875 33.59375 48.1875 
Q 44.578125 48.1875 50.953125 41.515625 
Q 57.328125 34.859375 57.328125 23.390625 
Q 57.328125 12.15625 50.6875 5.359375 
Q 44.046875 -1.421875 33.015625 -1.421875 
Q 20.359375 -1.421875 13.671875 8.265625 
Q 6.984375 17.96875 6.984375 36.375 
Q 6.984375 53.65625 15.1875 63.9375 
Q 23.390625 74.21875 37.203125 74.21875 
Q 40.921875 74.21875 44.703125 73.484375 
Q 48.484375 72.75 52.59375 71.296875 
z
" id="DejaVuSans-36"/>
      </defs>
      <g transform="translate(352.891477 527.238438)scale(0.1 -0.1)">
       <use xlink:href="#DejaVuSans-36"/>
      </g>
     </g>
    </g>
    <g id="xtick_5">
     <g id="line2d_5">
      <g>
       <use style="stroke:#000000;stroke-width:0.8;" x="437.236364" xlink:href="#m1ab7427ba5" y="512.64"/>
      </g>
     </g>
     <g id="text_5">
      <!-- 8 -->
      <defs>
       <path d="M 31.78125 34.625 
Q 24.75 34.625 20.71875 30.859375 
Q 16.703125 27.09375 16.703125 20.515625 
Q 16.703125 13.921875 20.71875 10.15625 
Q 24.75 6.390625 31.78125 6.390625 
Q 38.8125 6.390625 42.859375 10.171875 
Q 46.921875 13.96875 46.921875 20.515625 
Q 46.921875 27.09375 42.890625 30.859375 
Q 38.875 34.625 31.78125 34.625 
z
M 21.921875 38.8125 
Q 15.578125 40.375 12.03125 44.71875 
Q 8.5 49.078125 8.5 55.328125 
Q 8.5 64.0625 14.71875 69.140625 
Q 20.953125 74.21875 31.78125 74.21875 
Q 42.671875 74.21875 48.875 69.140625 
Q 55.078125 64.0625 55.078125 55.328125 
Q 55.078125 49.078125 51.53125 44.71875 
Q 48 40.375 41.703125 38.8125 
Q 48.828125 37.15625 52.796875 32.3125 
Q 56.78125 27.484375 56.78125 20.515625 
Q 56.78125 9.90625 50.3125 4.234375 
Q 43.84375 -1.421875 31.78125 -1.421875 
Q 19.734375 -1.421875 13.25 4.234375 
Q 6.78125 9.90625 6.78125 20.515625 
Q 6.78125 27.484375 10.78125 32.3125 
Q 14.796875 37.15625 21.921875 38.8125 
z
M 18.3125 54.390625 
Q 18.3125 48.734375 21.84375 45.5625 
Q 25.390625 42.390625 31.78125 42.390625 
Q 38.140625 42.390625 41.71875 45.5625 
Q 45.3125 48.734375 45.3125 54.390625 
Q 45.3125 60.0625 41.71875 63.234375 
Q 38.140625 66.40625 31.78125 66.40625 
Q 25.390625 66.40625 21.84375 63.234375 
Q 18.3125 60.0625 18.3125 54.390625 
z
" id="DejaVuSans-38"/>
      </defs>
      <g transform="translate(434.055114 527.238438)scale(0.1 -0.1)">
       <use xlink:href="#DejaVuSans-38"/>
      </g>
     </g>
    </g>
    <g id="xtick_6">
     <g id="line2d_6">
      <g>
       <use style="stroke:#000000;stroke-width:0.8;" x="518.4" xlink:href="#m1ab7427ba5" y="512.64"/>
      </g>
     </g>
     <g id="text_6">
      <!-- 10 -->
      <defs>
       <path d="M 12.40625 8.296875 
L 28.515625 8.296875 
L 28.515625 63.921875 
L 10.984375 60.40625 
L 10.984375 69.390625 
L 28.421875 72.90625 
L 38.28125 72.90625 
L 38.28125 8.296875 
L 54.390625 8.296875 
L 54.390625 0 
L 12.40625 0 
z
" id="DejaVuSans-31"/>
      </defs>
      <g transform="translate(512.0375 527.238438)scale(0.1 -0.1)">
       <use xlink:href="#DejaVuSans-31"/>
       <use x="63.623047" xlink:href="#DejaVuSans-30"/>
      </g>
     </g>
    </g>
   </g>
   <g id="matplotlib.axis_2">
    <g id="ytick_1">
     <g id="line2d_7">
      <defs>
       <path d="M 0 0 
L -3.5 0 
" id="meee4246a34" style="stroke:#000000;stroke-width:0.8;"/>
      </defs>
      <g>
       <use style="stroke:#000000;stroke-width:0.8;" x="72" xlink:href="#meee4246a34" y="473.498182"/>
      </g>
     </g>
     <g id="text_7">
      <!-- 0 -->
      <g transform="translate(58.6375 477.297401)scale(0.1 -0.1)">
       <use xlink:href="#DejaVuSans-30"/>
      </g>
     </g>
    </g>
    <g id="ytick_2">
     <g id="line2d_8">
      <g>
       <use style="stroke:#000000;stroke-width:0.8;" x="72" xlink:href="#meee4246a34" y="392.334545"/>
      </g>
     </g>
     <g id="text_8">
      <!-- 2 -->
      <g transform="translate(58.6375 396.133764)scale(0.1 -0.1)">
       <use xlink:href="#DejaVuSans-32"/>
      </g>
     </g>
    </g>
    <g id="ytick_3">
     <g id="line2d_9">
      <g>
       <use style="stroke:#000000;stroke-width:0.8;" x="72" xlink:href="#meee4246a34" y="311.170909"/>
      </g>
     </g>
     <g id="text_9">
      <!-- 4 -->
      <g transform="translate(58.6375 314.970128)scale(0.1 -0.1)">
       <use xlink:href="#DejaVuSans-34"/>
      </g>
     </g>
    </g>
    <g id="ytick_4">
     <g id="line2d_10">
      <g>
       <use style="stroke:#000000;stroke-width:0.8;" x="72" xlink:href="#meee4246a34" y="230.007273"/>
      </g>
     </g>
     <g id="text_10">
      <!-- 6 -->
      <g transform="translate(58.6375 233.806491)scale(0.1 -0.1)">
       <use xlink:href="#DejaVuSans-36"/>
      </g>
     </g>
    </g>
    <g id="ytick_5">
     <g id="line2d_11">
      <g>
       <use style="stroke:#000000;stroke-width:0.8;" x="72" xlink:href="#meee4246a34" y="148.843636"/>
      </g>
     </g>
     <g id="text_11">
      <!-- 8 -->
      <g transform="translate(58.6375 152.642855)scale(0.1 -0.1)">
       <use xlink:href="#DejaVuSans-38"/>
      </g>
     </g>
    </g>
   </g>
   <g id="line2d_12">
    <path clip-path="url(#p34450fc552)" d="M 459.709242 365.62151 
" style="fill:none;stroke:#1f77b4;stroke-linecap:square;stroke-width:1.5;"/>
    <defs>
     <path d="M -5 5 
L 5 5 
L 5 -5 
L -5 -5 
z
" id="m5c10df5ed5" style="stroke:#8000ff;stroke-linejoin:miter;"/>
    </defs>
    <g clip-path="url(#p34450fc552)">
     <use style="fill:#8000ff;stroke:#8000ff;stroke-linejoin:miter;" x="459.709242" xlink:href="#m5c10df5ed5" y="365.62151"/>
    </g>
   </g>
   <g id="line2d_13">
    <path clip-path="url(#p34450fc552)" d="M 242.583835 457.146585 
" style="fill:none;stroke:#ff7f0e;stroke-linecap:square;stroke-width:1.5;"/>
    <defs>
     <path d="M 0 -5 
L -4.755283 -1.545085 
L -2.938926 4.045085 
L 2.938926 4.045085 
L 4.755283 -1.545085 
z
" id="mfeb54f61be" style="stroke:#8000ff;stroke-linejoin:miter;"/>
    </defs>
    <g clip-path="url(#p34450fc552)">
     <use style="fill:#8000ff;stroke:#8000ff;stroke-linejoin:miter;" x="242.583835" xlink:href="#mfeb54f61be" y="457.146585"/>
    </g>
   </g>
   <g id="line2d_14">
    <path clip-path="url(#p34450fc552)" d="M 393.448352 226.424047 
" style="fill:none;stroke:#2ca02c;stroke-linecap:square;stroke-width:1.5;"/>
    <defs>
     <path d="M -5 5 
L 5 5 
L 5 -5 
L -5 -5 
z
" id="m2b915f7373" style="stroke:#376ff9;stroke-linejoin:miter;"/>
    </defs>
    <g clip-path="url(#p34450fc552)">
     <use style="fill:#376ff9;stroke:#376ff9;stroke-linejoin:miter;" x="393.448352" xlink:href="#m2b915f7373" y="226.424047"/>
    </g>
   </g>
   <g id="line2d_15">
    <path clip-path="url(#p34450fc552)" d="M 149.924363 160.739173 
" style="fill:none;stroke:#d62728;stroke-linecap:square;stroke-width:1.5;"/>
    <defs>
     <path d="M 0 -5 
L -4.755283 -1.545085 
L -2.938926 4.045085 
L 2.938926 4.045085 
L 4.755283 -1.545085 
z
" id="m01a6690373" style="stroke:#376ff9;stroke-linejoin:miter;"/>
    </defs>
    <g clip-path="url(#p34450fc552)">
     <use style="fill:#376ff9;stroke:#376ff9;stroke-linejoin:miter;" x="149.924363" xlink:href="#m01a6690373" y="160.739173"/>
    </g>
   </g>
   <g id="line2d_16">
    <path clip-path="url(#p34450fc552)" d="M 113.463296 253.454716 
" style="fill:none;stroke:#9467bd;stroke-linecap:square;stroke-width:1.5;"/>
    <defs>
     <path d="M -5 5 
L 5 5 
L 5 -5 
L -5 -5 
z
" id="m02e2aceaf4" style="stroke:#12c7e6;stroke-linejoin:miter;"/>
    </defs>
    <g clip-path="url(#p34450fc552)">
     <use style="fill:#12c7e6;stroke:#12c7e6;stroke-linejoin:miter;" x="113.463296" xlink:href="#m02e2aceaf4" y="253.454716"/>
    </g>
   </g>
   <g id="line2d_17">
    <path clip-path="url(#p34450fc552)" d="M 283.897832 422.26613 
" style="fill:none;stroke:#8c564b;stroke-linecap:square;stroke-width:1.5;"/>
    <defs>
     <path d="M 0 -5 
L -4.755283 -1.545085 
L -2.938926 4.045085 
L 2.938926 4.045085 
L 4.755283 -1.545085 
z
" id="m4d95829cf2" style="stroke:#12c7e6;stroke-linejoin:miter;"/>
    </defs>
    <g clip-path="url(#p34450fc552)">
     <use style="fill:#12c7e6;stroke:#12c7e6;stroke-linejoin:miter;" x="283.897832" xlink:href="#m4d95829cf2" y="422.26613"/>
    </g>
   </g>
   <g id="line2d_18">
    <path clip-path="url(#p34450fc552)" d="M 327.438523 442.554138 
" style="fill:none;stroke:#e377c2;stroke-linecap:square;stroke-width:1.5;"/>
    <defs>
     <path d="M -5 5 
L 5 5 
L 5 -5 
L -5 -5 
z
" id="m1213e45cdd" style="stroke:#5bf9c7;stroke-linejoin:miter;"/>
    </defs>
    <g clip-path="url(#p34450fc552)">
     <use style="fill:#5bf9c7;stroke:#5bf9c7;stroke-linejoin:miter;" x="327.438523" xlink:href="#m1213e45cdd" y="442.554138"/>
    </g>
   </g>
   <g id="line2d_19">
    <path clip-path="url(#p34450fc552)" d="M 214.730319 240.048354 
" style="fill:none;stroke:#7f7f7f;stroke-linecap:square;stroke-width:1.5;"/>
    <defs>
     <path d="M 0 -5 
L -4.755283 -1.545085 
L -2.938926 4.045085 
L 2.938926 4.045085 
L 4.755283 -1.545085 
z
" id="maa47b89f7a" style="stroke:#5bf9c7;stroke-linejoin:miter;"/>
    </defs>
    <g clip-path="url(#p34450fc552)">
     <use style="fill:#5bf9c7;stroke:#5bf9c7;stroke-linejoin:miter;" x="214.730319" xlink:href="#maa47b89f7a" y="240.048354"/>
    </g>
   </g>
   <g id="line2d_20">
    <path clip-path="url(#p34450fc552)" d="M 469.73679 170.862494 
" style="fill:none;stroke:#bcbd22;stroke-linecap:square;stroke-width:1.5;"/>
    <defs>
     <path d="M -5 5 
L 5 5 
L 5 -5 
L -5 -5 
z
" id="mcaf1a04b33" style="stroke:#a4f99f;stroke-linejoin:miter;"/>
    </defs>
    <g clip-path="url(#p34450fc552)">
     <use style="fill:#a4f99f;stroke:#a4f99f;stroke-linejoin:miter;" x="469.73679" xlink:href="#mcaf1a04b33" y="170.862494"/>
    </g>
   </g>
   <g id="line2d_21">
    <path clip-path="url(#p34450fc552)" d="M 121.51822 111.904318 
" style="fill:none;stroke:#17becf;stroke-linecap:square;stroke-width:1.5;"/>
    <defs>
     <path d="M 0 -5 
L -4.755283 -1.545085 
L -2.938926 4.045085 
L 2.938926 4.045085 
L 4.755283 -1.545085 
z
" id="m69c3364cad" style="stroke:#a4f99f;stroke-linejoin:miter;"/>
    </defs>
    <g clip-path="url(#p34450fc552)">
     <use style="fill:#a4f99f;stroke:#a4f99f;stroke-linejoin:miter;" x="121.51822" xlink:href="#m69c3364cad" y="111.904318"/>
    </g>
   </g>
   <g id="line2d_22">
    <path clip-path="url(#p34450fc552)" d="M 297.989076 263.090042 
" style="fill:none;stroke:#1f77b4;stroke-linecap:square;stroke-width:1.5;"/>
    <defs>
     <path d="M -5 5 
L 5 5 
L 5 -5 
L -5 -5 
z
" id="m5859b28359" style="stroke:#edc76f;stroke-linejoin:miter;"/>
    </defs>
    <g clip-path="url(#p34450fc552)">
     <use style="fill:#edc76f;stroke:#edc76f;stroke-linejoin:miter;" x="297.989076" xlink:href="#m5859b28359" y="263.090042"/>
    </g>
   </g>
   <g id="line2d_23">
    <path clip-path="url(#p34450fc552)" d="M 130.713512 388.152005 
" style="fill:none;stroke:#ff7f0e;stroke-linecap:square;stroke-width:1.5;"/>
    <defs>
     <path d="M 0 -5 
L -4.755283 -1.545085 
L -2.938926 4.045085 
L 2.938926 4.045085 
L 4.755283 -1.545085 
z
" id="m66914df9d9" style="stroke:#edc76f;stroke-linejoin:miter;"/>
    </defs>
    <g clip-path="url(#p34450fc552)">
     <use style="fill:#edc76f;stroke:#edc76f;stroke-linejoin:miter;" x="130.713512" xlink:href="#m66914df9d9" y="388.152005"/>
    </g>
   </g>
   <g id="line2d_24">
    <path clip-path="url(#p34450fc552)" d="M 411.627401 289.779714 
" style="fill:none;stroke:#2ca02c;stroke-linecap:square;stroke-width:1.5;"/>
    <defs>
     <path d="M -5 5 
L 5 5 
L 5 -5 
L -5 -5 
z
" id="me71e0de305" style="stroke:#ff6f39;stroke-linejoin:miter;"/>
    </defs>
    <g clip-path="url(#p34450fc552)">
     <use style="fill:#ff6f39;stroke:#ff6f39;stroke-linejoin:miter;" x="411.627401" xlink:href="#me71e0de305" y="289.779714"/>
    </g>
   </g>
   <g id="line2d_25">
    <path clip-path="url(#p34450fc552)" d="M 121.711373 463.201162 
" style="fill:none;stroke:#d62728;stroke-linecap:square;stroke-width:1.5;"/>
    <defs>
     <path d="M 0 -5 
L -4.755283 -1.545085 
L -2.938926 4.045085 
L 2.938926 4.045085 
L 4.755283 -1.545085 
z
" id="m60fb1d3f5d" style="stroke:#ff6f39;stroke-linejoin:miter;"/>
    </defs>
    <g clip-path="url(#p34450fc552)">
     <use style="fill:#ff6f39;stroke:#ff6f39;stroke-linejoin:miter;" x="121.711373" xlink:href="#m60fb1d3f5d" y="463.201162"/>
    </g>
   </g>
   <g id="line2d_26">
    <path clip-path="url(#p34450fc552)" d="M 459.877967 222.818361 
" style="fill:none;stroke:#9467bd;stroke-linecap:square;stroke-width:1.5;"/>
    <defs>
     <path d="M -5 5 
L 5 5 
L 5 -5 
L -5 -5 
z
" id="m4569086fd4" style="stroke:#ff0000;stroke-linejoin:miter;"/>
    </defs>
    <g clip-path="url(#p34450fc552)">
     <use style="fill:#ff0000;stroke:#ff0000;stroke-linejoin:miter;" x="459.877967" xlink:href="#m4569086fd4" y="222.818361"/>
    </g>
   </g>
   <g id="line2d_27">
    <path clip-path="url(#p34450fc552)" d="M 186.614578 132.175397 
" style="fill:none;stroke:#8c564b;stroke-linecap:square;stroke-width:1.5;"/>
    <defs>
     <path d="M 0 -5 
L -4.755283 -1.545085 
L -2.938926 4.045085 
L 2.938926 4.045085 
L 4.755283 -1.545085 
z
" id="mc9a37ae1be" style="stroke:#ff0000;stroke-linejoin:miter;"/>
    </defs>
    <g clip-path="url(#p34450fc552)">
     <use style="fill:#ff0000;stroke:#ff0000;stroke-linejoin:miter;" x="186.614578" xlink:href="#mc9a37ae1be" y="132.175397"/>
    </g>
   </g>
   <g id="line2d_28">
    <defs>
     <path d="M 0 2.5 
C 0.663008 2.5 1.29895 2.236584 1.767767 1.767767 
C 2.236584 1.29895 2.5 0.663008 2.5 0 
C 2.5 -0.663008 2.236584 -1.29895 1.767767 -1.767767 
C 1.29895 -2.236584 0.663008 -2.5 0 -2.5 
C -0.663008 -2.5 -1.29895 -2.236584 -1.767767 -1.767767 
C -2.236584 -1.29895 -2.5 -0.663008 -2.5 0 
C -2.5 0.663008 -2.236584 1.29895 -1.767767 1.767767 
C -1.29895 2.236584 -0.663008 2.5 0 2.5 
z
" id="mac27405ef7" style="stroke:#000000;"/>
    </defs>
    <g clip-path="url(#p34450fc552)">
     <use style="stroke:#000000;" x="157.847344" xlink:href="#mac27405ef7" y="257.185655"/>
     <use style="stroke:#000000;" x="204.212917" xlink:href="#mac27405ef7" y="291.182822"/>
     <use style="stroke:#000000;" x="341.12004" xlink:href="#mac27405ef7" y="315.481099"/>
     <use style="stroke:#000000;" x="147.639908" xlink:href="#mac27405ef7" y="429.695332"/>
     <use style="stroke:#000000;" x="420.026087" xlink:href="#mac27405ef7" y="117.662516"/>
     <use style="stroke:#000000;" x="389.560796" xlink:href="#mac27405ef7" y="421.841485"/>
     <use style="stroke:#000000;" x="124.686922" xlink:href="#mac27405ef7" y="342.927548"/>
     <use style="stroke:#000000;" x="367.325465" xlink:href="#mac27405ef7" y="172.40787"/>
     <use style="stroke:#000000;" x="469.056271" xlink:href="#mac27405ef7" y="419.957714"/>
     <use style="stroke:#000000;" x="165.171483" xlink:href="#mac27405ef7" y="307.649249"/>
     <use style="stroke:#000000;" x="253.945724" xlink:href="#mac27405ef7" y="154.193928"/>
     <use style="stroke:#000000;" x="176.895542" xlink:href="#mac27405ef7" y="384.876605"/>
     <use style="stroke:#000000;" x="304.29901" xlink:href="#mac27405ef7" y="314.446361"/>
     <use style="stroke:#000000;" x="462.845339" xlink:href="#mac27405ef7" y="314.647478"/>
     <use style="stroke:#000000;" x="201.295546" xlink:href="#mac27405ef7" y="422.845521"/>
     <use style="stroke:#000000;" x="237.530398" xlink:href="#mac27405ef7" y="277.17344"/>
     <use style="stroke:#000000;" x="230.75255" xlink:href="#mac27405ef7" y="108.349864"/>
     <use style="stroke:#000000;" x="378.424099" xlink:href="#mac27405ef7" y="357.755837"/>
     <use style="stroke:#000000;" x="172.880688" xlink:href="#mac27405ef7" y="326.672351"/>
     <use style="stroke:#000000;" x="165.332124" xlink:href="#mac27405ef7" y="365.989027"/>
     <use style="stroke:#000000;" x="300.158893" xlink:href="#mac27405ef7" y="196.50418"/>
     <use style="stroke:#000000;" x="274.058483" xlink:href="#mac27405ef7" y="224.490444"/>
    </g>
   </g>
   <g id="line2d_29">
    <path clip-path="url(#p34450fc552)" d="M 174.080071 257.185655 
L 173.200537 251.914897 
L 170.657246 247.215308 
L 166.725804 243.59616 
L 161.832243 241.449645 
L 156.506856 241.008371 
L 151.326732 242.320156 
L 146.853217 245.242849 
L 143.571086 249.459731 
L 141.83601 254.513836 
L 141.83601 259.857474 
L 143.571086 264.911579 
L 146.853217 269.128461 
L 151.326732 272.051154 
L 156.506856 273.362939 
L 161.832243 272.921665 
L 166.725804 270.77515 
L 170.657246 267.156003 
L 173.200537 262.456413 
L 174.080071 257.185655 
" style="fill:none;stroke:#000000;stroke-dasharray:5.55,2.4;stroke-dashoffset:0;stroke-width:1.5;"/>
   </g>
   <g id="line2d_30">
    <path clip-path="url(#p34450fc552)" d="M 162.311344 257.185655 
L 162.069472 255.736197 
L 161.370067 254.44381 
L 160.28892 253.448544 
L 158.943191 252.858252 
L 157.47871 252.736902 
L 156.054175 253.097643 
L 154.823959 253.901384 
L 153.921373 255.061026 
L 153.444227 256.450905 
L 153.444227 257.920405 
L 153.921373 259.310284 
L 154.823959 260.469927 
L 156.054175 261.273667 
L 157.47871 261.634408 
L 158.943191 261.513058 
L 160.28892 260.922766 
L 161.370067 259.927501 
L 162.069472 258.635113 
L 162.311344 257.185655 
" style="fill:none;stroke:#ff0000;stroke-linecap:square;stroke-width:1.5;"/>
   </g>
   <g id="line2d_31">
    <path clip-path="url(#p34450fc552)" d="M 220.445644 291.182822 
L 219.56611 285.912064 
L 217.022819 281.212475 
L 213.091377 277.593327 
L 208.197816 275.446812 
L 202.872429 275.005538 
L 197.692304 276.317324 
L 193.21879 279.240017 
L 189.936659 283.456898 
L 188.201583 288.511003 
L 188.201583 293.854641 
L 189.936659 298.908746 
L 193.21879 303.125628 
L 197.692304 306.048321 
L 202.872429 307.360107 
L 208.197816 306.918832 
L 213.091377 304.772317 
L 217.022819 301.15317 
L 219.56611 296.45358 
L 220.445644 291.182822 
" style="fill:none;stroke:#000000;stroke-dasharray:5.55,2.4;stroke-dashoffset:0;stroke-width:1.5;"/>
   </g>
   <g id="line2d_32">
    <path clip-path="url(#p34450fc552)" d="M 208.676917 291.182822 
L 208.435045 289.733364 
L 207.73564 288.440977 
L 206.654493 287.445711 
L 205.308764 286.855419 
L 203.844282 286.734069 
L 202.419748 287.09481 
L 201.189532 287.898551 
L 200.286946 289.058193 
L 199.8098 290.448072 
L 199.8098 291.917572 
L 200.286946 293.307451 
L 201.189532 294.467094 
L 202.419748 295.270834 
L 203.844282 295.631575 
L 205.308764 295.510225 
L 206.654493 294.919933 
L 207.73564 293.924668 
L 208.435045 292.632281 
L 208.676917 291.182822 
" style="fill:none;stroke:#ff0000;stroke-linecap:square;stroke-width:1.5;"/>
   </g>
   <g id="line2d_33">
    <path clip-path="url(#p34450fc552)" d="M 357.352767 315.481099 
L 356.473234 310.210341 
L 353.929943 305.510751 
L 349.9985 301.891603 
L 345.104939 299.745088 
L 339.779552 299.303814 
L 334.599428 300.6156 
L 330.125913 303.538293 
L 326.843783 307.755174 
L 325.108706 312.809279 
L 325.108706 318.152918 
L 326.843783 323.207023 
L 330.125913 327.423904 
L 334.599428 330.346597 
L 339.779552 331.658383 
L 345.104939 331.217109 
L 349.9985 329.070594 
L 353.929943 325.451446 
L 356.473234 320.751856 
L 357.352767 315.481099 
" style="fill:none;stroke:#000000;stroke-dasharray:5.55,2.4;stroke-dashoffset:0;stroke-width:1.5;"/>
   </g>
   <g id="line2d_34">
    <path clip-path="url(#p34450fc552)" d="M 345.58404 315.481099 
L 345.342168 314.03164 
L 344.642763 312.739253 
L 343.561617 311.743987 
L 342.215887 311.153696 
L 340.751406 311.032345 
L 339.326872 311.393086 
L 338.096655 312.196827 
L 337.194069 313.356469 
L 336.716923 314.746348 
L 336.716923 316.215849 
L 337.194069 317.605728 
L 338.096655 318.76537 
L 339.326872 319.569111 
L 340.751406 319.929852 
L 342.215887 319.808501 
L 343.561617 319.21821 
L 344.642763 318.222944 
L 345.342168 316.930557 
L 345.58404 315.481099 
" style="fill:none;stroke:#ff0000;stroke-linecap:square;stroke-width:1.5;"/>
   </g>
   <g id="line2d_35">
    <path clip-path="url(#p34450fc552)" d="M 163.872636 429.695332 
L 162.993102 424.424574 
L 160.449811 419.724985 
L 156.518369 416.105837 
L 151.624807 413.959322 
L 146.29942 413.518048 
L 141.119296 414.829833 
L 136.645781 417.752527 
L 133.363651 421.969408 
L 131.628574 427.023513 
L 131.628574 432.367151 
L 133.363651 437.421256 
L 136.645781 441.638138 
L 141.119296 444.560831 
L 146.29942 445.872616 
L 151.624807 445.431342 
L 156.518369 443.284827 
L 160.449811 439.66568 
L 162.993102 434.96609 
L 163.872636 429.695332 
" style="fill:none;stroke:#000000;stroke-dasharray:5.55,2.4;stroke-dashoffset:0;stroke-width:1.5;"/>
   </g>
   <g id="line2d_36">
    <path clip-path="url(#p34450fc552)" d="M 152.103908 429.695332 
L 151.862037 428.245874 
L 151.162632 426.953487 
L 150.081485 425.958221 
L 148.735756 425.367929 
L 147.271274 425.246579 
L 145.84674 425.60732 
L 144.616524 426.411061 
L 143.713938 427.570703 
L 143.236792 428.960582 
L 143.236792 430.430082 
L 143.713938 431.819961 
L 144.616524 432.979604 
L 145.84674 433.783344 
L 147.271274 434.144085 
L 148.735756 434.022735 
L 150.081485 433.432443 
L 151.162632 432.437178 
L 151.862037 431.144791 
L 152.103908 429.695332 
" style="fill:none;stroke:#ff0000;stroke-linecap:square;stroke-width:1.5;"/>
   </g>
   <g id="line2d_37">
    <path clip-path="url(#p34450fc552)" d="M 436.258814 117.662516 
L 435.37928 112.391758 
L 432.83599 107.692168 
L 428.904547 104.073021 
L 424.010986 101.926506 
L 418.685599 101.485231 
L 413.505475 102.797017 
L 409.03196 105.71971 
L 405.749829 109.936591 
L 404.014753 114.990697 
L 404.014753 120.334335 
L 405.749829 125.38844 
L 409.03196 129.605321 
L 413.505475 132.528014 
L 418.685599 133.8398 
L 424.010986 133.398526 
L 428.904547 131.252011 
L 432.83599 127.632863 
L 435.37928 122.933274 
L 436.258814 117.662516 
" style="fill:none;stroke:#000000;stroke-dasharray:5.55,2.4;stroke-dashoffset:0;stroke-width:1.5;"/>
   </g>
   <g id="line2d_38">
    <path clip-path="url(#p34450fc552)" d="M 424.490087 117.662516 
L 424.248215 116.213057 
L 423.54881 114.92067 
L 422.467664 113.925405 
L 421.121934 113.335113 
L 419.657453 113.213763 
L 418.232919 113.574504 
L 417.002702 114.378244 
L 416.100116 115.537887 
L 415.62297 116.927765 
L 415.62297 118.397266 
L 416.100116 119.787145 
L 417.002702 120.946787 
L 418.232919 121.750528 
L 419.657453 122.111269 
L 421.121934 121.989918 
L 422.467664 121.399627 
L 423.54881 120.404361 
L 424.248215 119.111974 
L 424.490087 117.662516 
" style="fill:none;stroke:#ff0000;stroke-linecap:square;stroke-width:1.5;"/>
   </g>
   <g id="line2d_39">
    <path clip-path="url(#p34450fc552)" d="M 405.793523 421.841485 
L 404.913989 416.570727 
L 402.370699 411.871138 
L 398.439256 408.25199 
L 393.545695 406.105475 
L 388.220308 405.664201 
L 383.040184 406.975987 
L 378.566669 409.89868 
L 375.284538 414.115561 
L 373.549462 419.169666 
L 373.549462 424.513304 
L 375.284538 429.56741 
L 378.566669 433.784291 
L 383.040184 436.706984 
L 388.220308 438.01877 
L 393.545695 437.577495 
L 398.439256 435.43098 
L 402.370699 431.811833 
L 404.913989 427.112243 
L 405.793523 421.841485 
" style="fill:none;stroke:#000000;stroke-dasharray:5.55,2.4;stroke-dashoffset:0;stroke-width:1.5;"/>
   </g>
   <g id="line2d_40">
    <path clip-path="url(#p34450fc552)" d="M 394.024796 421.841485 
L 393.782924 420.392027 
L 393.083519 419.09964 
L 392.002372 418.104374 
L 390.656643 417.514083 
L 389.192162 417.392732 
L 387.767627 417.753473 
L 386.537411 418.557214 
L 385.634825 419.716856 
L 385.157679 421.106735 
L 385.157679 422.576236 
L 385.634825 423.966115 
L 386.537411 425.125757 
L 387.767627 425.929497 
L 389.192162 426.290239 
L 390.656643 426.168888 
L 392.002372 425.578597 
L 393.083519 424.583331 
L 393.782924 423.290944 
L 394.024796 421.841485 
" style="fill:none;stroke:#ff0000;stroke-linecap:square;stroke-width:1.5;"/>
   </g>
   <g id="line2d_41">
    <path clip-path="url(#p34450fc552)" d="M 140.919649 342.927548 
L 140.040115 337.65679 
L 137.496824 332.9572 
L 133.565382 329.338053 
L 128.67182 327.191538 
L 123.346434 326.750264 
L 118.166309 328.062049 
L 113.692794 330.984742 
L 110.410664 335.201624 
L 108.675587 340.255729 
L 108.675587 345.599367 
L 110.410664 350.653472 
L 113.692794 354.870353 
L 118.166309 357.793047 
L 123.346434 359.104832 
L 128.67182 358.663558 
L 133.565382 356.517043 
L 137.496824 352.897895 
L 140.040115 348.198306 
L 140.919649 342.927548 
" style="fill:none;stroke:#000000;stroke-dasharray:5.55,2.4;stroke-dashoffset:0;stroke-width:1.5;"/>
   </g>
   <g id="line2d_42">
    <path clip-path="url(#p34450fc552)" d="M 129.150922 342.927548 
L 128.90905 341.478089 
L 128.209645 340.185702 
L 127.128498 339.190437 
L 125.782769 338.600145 
L 124.318287 338.478795 
L 122.893753 338.839536 
L 121.663537 339.643276 
L 120.760951 340.802919 
L 120.283805 342.192798 
L 120.283805 343.662298 
L 120.760951 345.052177 
L 121.663537 346.211819 
L 122.893753 347.01556 
L 124.318287 347.376301 
L 125.782769 347.254951 
L 127.128498 346.664659 
L 128.209645 345.669393 
L 128.90905 344.377006 
L 129.150922 342.927548 
" style="fill:none;stroke:#ff0000;stroke-linecap:square;stroke-width:1.5;"/>
   </g>
   <g id="line2d_43">
    <path clip-path="url(#p34450fc552)" d="M 383.558192 172.40787 
L 382.678658 167.137112 
L 380.135368 162.437523 
L 376.203925 158.818375 
L 371.310364 156.67186 
L 365.984977 156.230586 
L 360.804853 157.542371 
L 356.331338 160.465064 
L 353.049207 164.681946 
L 351.314131 169.736051 
L 351.314131 175.079689 
L 353.049207 180.133794 
L 356.331338 184.350676 
L 360.804853 187.273369 
L 365.984977 188.585154 
L 371.310364 188.14388 
L 376.203925 185.997365 
L 380.135368 182.378217 
L 382.678658 177.678628 
L 383.558192 172.40787 
" style="fill:none;stroke:#000000;stroke-dasharray:5.55,2.4;stroke-dashoffset:0;stroke-width:1.5;"/>
   </g>
   <g id="line2d_44">
    <path clip-path="url(#p34450fc552)" d="M 371.789465 172.40787 
L 371.547593 170.958412 
L 370.848188 169.666024 
L 369.767041 168.670759 
L 368.421312 168.080467 
L 366.956831 167.959117 
L 365.532297 168.319858 
L 364.30208 169.123598 
L 363.399494 170.283241 
L 362.922348 171.67312 
L 362.922348 173.14262 
L 363.399494 174.532499 
L 364.30208 175.692142 
L 365.532297 176.495882 
L 366.956831 176.856623 
L 368.421312 176.735273 
L 369.767041 176.144981 
L 370.848188 175.149716 
L 371.547593 173.857328 
L 371.789465 172.40787 
" style="fill:none;stroke:#ff0000;stroke-linecap:square;stroke-width:1.5;"/>
   </g>
   <g id="line2d_45">
    <path clip-path="url(#p34450fc552)" d="M 485.288998 419.957714 
L 484.409464 414.686956 
L 481.866174 409.987367 
L 477.934731 406.368219 
L 473.04117 404.221704 
L 467.715783 403.78043 
L 462.535659 405.092216 
L 458.062144 408.014909 
L 454.780013 412.23179 
L 453.044937 417.285895 
L 453.044937 422.629533 
L 454.780013 427.683639 
L 458.062144 431.90052 
L 462.535659 434.823213 
L 467.715783 436.134999 
L 473.04117 435.693724 
L 477.934731 433.547209 
L 481.866174 429.928062 
L 484.409464 425.228472 
L 485.288998 419.957714 
" style="fill:none;stroke:#000000;stroke-dasharray:5.55,2.4;stroke-dashoffset:0;stroke-width:1.5;"/>
   </g>
   <g id="line2d_46">
    <path clip-path="url(#p34450fc552)" d="M 473.520271 419.957714 
L 473.278399 418.508256 
L 472.578994 417.215869 
L 471.497847 416.220603 
L 470.152118 415.630312 
L 468.687637 415.508961 
L 467.263103 415.869702 
L 466.032886 416.673443 
L 465.1303 417.833085 
L 464.653154 419.222964 
L 464.653154 420.692465 
L 465.1303 422.082343 
L 466.032886 423.241986 
L 467.263103 424.045726 
L 468.687637 424.406467 
L 470.152118 424.285117 
L 471.497847 423.694825 
L 472.578994 422.69956 
L 473.278399 421.407173 
L 473.520271 419.957714 
" style="fill:none;stroke:#ff0000;stroke-linecap:square;stroke-width:1.5;"/>
   </g>
   <g id="line2d_47">
    <path clip-path="url(#p34450fc552)" d="M 181.40421 307.649249 
L 180.524676 302.378491 
L 177.981386 297.678902 
L 174.049943 294.059754 
L 169.156382 291.913239 
L 163.830995 291.471965 
L 158.650871 292.783751 
L 154.177356 295.706444 
L 150.895225 299.923325 
L 149.160149 304.97743 
L 149.160149 310.321069 
L 150.895225 315.375174 
L 154.177356 319.592055 
L 158.650871 322.514748 
L 163.830995 323.826534 
L 169.156382 323.38526 
L 174.049943 321.238745 
L 177.981386 317.619597 
L 180.524676 312.920007 
L 181.40421 307.649249 
" style="fill:none;stroke:#000000;stroke-dasharray:5.55,2.4;stroke-dashoffset:0;stroke-width:1.5;"/>
   </g>
   <g id="line2d_48">
    <path clip-path="url(#p34450fc552)" d="M 169.635483 307.649249 
L 169.393611 306.199791 
L 168.694206 304.907404 
L 167.61306 303.912138 
L 166.26733 303.321847 
L 164.802849 303.200496 
L 163.378315 303.561237 
L 162.148098 304.364978 
L 161.245512 305.52462 
L 160.768366 306.914499 
L 160.768366 308.384 
L 161.245512 309.773879 
L 162.148098 310.933521 
L 163.378315 311.737262 
L 164.802849 312.098003 
L 166.26733 311.976652 
L 167.61306 311.386361 
L 168.694206 310.391095 
L 169.393611 309.098708 
L 169.635483 307.649249 
" style="fill:none;stroke:#ff0000;stroke-linecap:square;stroke-width:1.5;"/>
   </g>
   <g id="line2d_49">
    <path clip-path="url(#p34450fc552)" d="M 270.178451 154.193928 
L 269.298917 148.92317 
L 266.755626 144.223581 
L 262.824184 140.604433 
L 257.930623 138.457918 
L 252.605236 138.016644 
L 247.425111 139.328429 
L 242.951597 142.251122 
L 239.669466 146.468004 
L 237.93439 151.522109 
L 237.93439 156.865747 
L 239.669466 161.919852 
L 242.951597 166.136734 
L 247.425111 169.059427 
L 252.605236 170.371212 
L 257.930623 169.929938 
L 262.824184 167.783423 
L 266.755626 164.164275 
L 269.298917 159.464686 
L 270.178451 154.193928 
" style="fill:none;stroke:#000000;stroke-dasharray:5.55,2.4;stroke-dashoffset:0;stroke-width:1.5;"/>
   </g>
   <g id="line2d_50">
    <path clip-path="url(#p34450fc552)" d="M 258.409724 154.193928 
L 258.167852 152.74447 
L 257.468447 151.452082 
L 256.3873 150.456817 
L 255.041571 149.866525 
L 253.577089 149.745175 
L 252.152555 150.105916 
L 250.922339 150.909657 
L 250.019753 152.069299 
L 249.542607 153.459178 
L 249.542607 154.928678 
L 250.019753 156.318557 
L 250.922339 157.4782 
L 252.152555 158.28194 
L 253.577089 158.642681 
L 255.041571 158.521331 
L 256.3873 157.931039 
L 257.468447 156.935774 
L 258.167852 155.643386 
L 258.409724 154.193928 
" style="fill:none;stroke:#ff0000;stroke-linecap:square;stroke-width:1.5;"/>
   </g>
   <g id="line2d_51">
    <path clip-path="url(#p34450fc552)" d="M 193.128269 384.876605 
L 192.248735 379.605848 
L 189.705445 374.906258 
L 185.774002 371.28711 
L 180.880441 369.140595 
L 175.555054 368.699321 
L 170.37493 370.011107 
L 165.901415 372.9338 
L 162.619285 377.150681 
L 160.884208 382.204786 
L 160.884208 387.548425 
L 162.619285 392.60253 
L 165.901415 396.819411 
L 170.37493 399.742104 
L 175.555054 401.05389 
L 180.880441 400.612616 
L 185.774002 398.466101 
L 189.705445 394.846953 
L 192.248735 390.147363 
L 193.128269 384.876605 
" style="fill:none;stroke:#000000;stroke-dasharray:5.55,2.4;stroke-dashoffset:0;stroke-width:1.5;"/>
   </g>
   <g id="line2d_52">
    <path clip-path="url(#p34450fc552)" d="M 181.359542 384.876605 
L 181.11767 383.427147 
L 180.418265 382.13476 
L 179.337119 381.139494 
L 177.991389 380.549203 
L 176.526908 380.427852 
L 175.102374 380.788593 
L 173.872157 381.592334 
L 172.969571 382.751976 
L 172.492425 384.141855 
L 172.492425 385.611356 
L 172.969571 387.001235 
L 173.872157 388.160877 
L 175.102374 388.964618 
L 176.526908 389.325359 
L 177.991389 389.204008 
L 179.337119 388.613717 
L 180.418265 387.618451 
L 181.11767 386.326064 
L 181.359542 384.876605 
" style="fill:none;stroke:#ff0000;stroke-linecap:square;stroke-width:1.5;"/>
   </g>
   <g id="line2d_53">
    <path clip-path="url(#p34450fc552)" d="M 320.531738 314.446361 
L 319.652204 309.175603 
L 317.108913 304.476013 
L 313.177471 300.856866 
L 308.283909 298.710351 
L 302.958522 298.269077 
L 297.778398 299.580862 
L 293.304883 302.503555 
L 290.022753 306.720437 
L 288.287676 311.774542 
L 288.287676 317.11818 
L 290.022753 322.172285 
L 293.304883 326.389166 
L 297.778398 329.31186 
L 302.958522 330.623645 
L 308.283909 330.182371 
L 313.177471 328.035856 
L 317.108913 324.416708 
L 319.652204 319.717119 
L 320.531738 314.446361 
" style="fill:none;stroke:#000000;stroke-dasharray:5.55,2.4;stroke-dashoffset:0;stroke-width:1.5;"/>
   </g>
   <g id="line2d_54">
    <path clip-path="url(#p34450fc552)" d="M 308.76301 314.446361 
L 308.521138 312.996902 
L 307.821733 311.704515 
L 306.740587 310.70925 
L 305.394857 310.118958 
L 303.930376 309.997608 
L 302.505842 310.358349 
L 301.275625 311.162089 
L 300.373039 312.321732 
L 299.895893 313.711611 
L 299.895893 315.181111 
L 300.373039 316.57099 
L 301.275625 317.730632 
L 302.505842 318.534373 
L 303.930376 318.895114 
L 305.394857 318.773764 
L 306.740587 318.183472 
L 307.821733 317.188206 
L 308.521138 315.895819 
L 308.76301 314.446361 
" style="fill:none;stroke:#ff0000;stroke-linecap:square;stroke-width:1.5;"/>
   </g>
   <g id="line2d_55">
    <path clip-path="url(#p34450fc552)" d="M 479.078066 314.647478 
L 478.198532 309.37672 
L 475.655241 304.677131 
L 471.723799 301.057983 
L 466.830238 298.911468 
L 461.504851 298.470194 
L 456.324726 299.781979 
L 451.851212 302.704672 
L 448.569081 306.921554 
L 446.834005 311.975659 
L 446.834005 317.319297 
L 448.569081 322.373402 
L 451.851212 326.590284 
L 456.324726 329.512977 
L 461.504851 330.824762 
L 466.830238 330.383488 
L 471.723799 328.236973 
L 475.655241 324.617825 
L 478.198532 319.918236 
L 479.078066 314.647478 
" style="fill:none;stroke:#000000;stroke-dasharray:5.55,2.4;stroke-dashoffset:0;stroke-width:1.5;"/>
   </g>
   <g id="line2d_56">
    <path clip-path="url(#p34450fc552)" d="M 467.309339 314.647478 
L 467.067467 313.19802 
L 466.368062 311.905632 
L 465.286915 310.910367 
L 463.941186 310.320075 
L 462.476704 310.198725 
L 461.05217 310.559466 
L 459.821954 311.363206 
L 458.919368 312.522849 
L 458.442222 313.912728 
L 458.442222 315.382228 
L 458.919368 316.772107 
L 459.821954 317.93175 
L 461.05217 318.73549 
L 462.476704 319.096231 
L 463.941186 318.974881 
L 465.286915 318.384589 
L 466.368062 317.389324 
L 467.067467 316.096936 
L 467.309339 314.647478 
" style="fill:none;stroke:#ff0000;stroke-linecap:square;stroke-width:1.5;"/>
   </g>
   <g id="line2d_57">
    <path clip-path="url(#p34450fc552)" d="M 217.528273 422.845521 
L 216.648739 417.574763 
L 214.105448 412.875173 
L 210.174006 409.256026 
L 205.280445 407.109511 
L 199.955058 406.668236 
L 194.774934 407.980022 
L 190.301419 410.902715 
L 187.019288 415.119597 
L 185.284212 420.173702 
L 185.284212 425.51734 
L 187.019288 430.571445 
L 190.301419 434.788326 
L 194.774934 437.711019 
L 199.955058 439.022805 
L 205.280445 438.581531 
L 210.174006 436.435016 
L 214.105448 432.815868 
L 216.648739 428.116279 
L 217.528273 422.845521 
" style="fill:none;stroke:#000000;stroke-dasharray:5.55,2.4;stroke-dashoffset:0;stroke-width:1.5;"/>
   </g>
   <g id="line2d_58">
    <path clip-path="url(#p34450fc552)" d="M 205.759546 422.845521 
L 205.517674 421.396062 
L 204.818269 420.103675 
L 203.737122 419.10841 
L 202.391393 418.518118 
L 200.926912 418.396768 
L 199.502377 418.757509 
L 198.272161 419.561249 
L 197.369575 420.720892 
L 196.892429 422.11077 
L 196.892429 423.580271 
L 197.369575 424.97015 
L 198.272161 426.129792 
L 199.502377 426.933533 
L 200.926912 427.294274 
L 202.391393 427.172924 
L 203.737122 426.582632 
L 204.818269 425.587366 
L 205.517674 424.294979 
L 205.759546 422.845521 
" style="fill:none;stroke:#ff0000;stroke-linecap:square;stroke-width:1.5;"/>
   </g>
   <g id="line2d_59">
    <path clip-path="url(#p34450fc552)" d="M 253.763126 277.17344 
L 252.883592 271.902682 
L 250.340301 267.203092 
L 246.408859 263.583945 
L 241.515297 261.43743 
L 236.18991 260.996155 
L 231.009786 262.307941 
L 226.536271 265.230634 
L 223.254141 269.447516 
L 221.519064 274.501621 
L 221.519064 279.845259 
L 223.254141 284.899364 
L 226.536271 289.116245 
L 231.009786 292.038938 
L 236.18991 293.350724 
L 241.515297 292.90945 
L 246.408859 290.762935 
L 250.340301 287.143787 
L 252.883592 282.444198 
L 253.763126 277.17344 
" style="fill:none;stroke:#000000;stroke-dasharray:5.55,2.4;stroke-dashoffset:0;stroke-width:1.5;"/>
   </g>
   <g id="line2d_60">
    <path clip-path="url(#p34450fc552)" d="M 241.994398 277.17344 
L 241.752527 275.723981 
L 241.053122 274.431594 
L 239.971975 273.436329 
L 238.626246 272.846037 
L 237.161764 272.724687 
L 235.73723 273.085428 
L 234.507013 273.889168 
L 233.604428 275.048811 
L 233.127282 276.438689 
L 233.127282 277.90819 
L 233.604428 279.298069 
L 234.507013 280.457711 
L 235.73723 281.261452 
L 237.161764 281.622193 
L 238.626246 281.500843 
L 239.971975 280.910551 
L 241.053122 279.915285 
L 241.752527 278.622898 
L 241.994398 277.17344 
" style="fill:none;stroke:#ff0000;stroke-linecap:square;stroke-width:1.5;"/>
   </g>
   <g id="line2d_61">
    <path clip-path="url(#p34450fc552)" d="M 246.985277 108.349864 
L 246.105743 103.079106 
L 243.562453 98.379517 
L 239.63101 94.760369 
L 234.737449 92.613854 
L 229.412062 92.17258 
L 224.231938 93.484365 
L 219.758423 96.407058 
L 216.476292 100.62394 
L 214.741216 105.678045 
L 214.741216 111.021683 
L 216.476292 116.075788 
L 219.758423 120.29267 
L 224.231938 123.215363 
L 229.412062 124.527148 
L 234.737449 124.085874 
L 239.63101 121.939359 
L 243.562453 118.320211 
L 246.105743 113.620622 
L 246.985277 108.349864 
" style="fill:none;stroke:#000000;stroke-dasharray:5.55,2.4;stroke-dashoffset:0;stroke-width:1.5;"/>
   </g>
   <g id="line2d_62">
    <path clip-path="url(#p34450fc552)" d="M 235.21655 108.349864 
L 234.974678 106.900406 
L 234.275273 105.608018 
L 233.194127 104.612753 
L 231.848397 104.022461 
L 230.383916 103.901111 
L 228.959382 104.261852 
L 227.729165 105.065592 
L 226.826579 106.225235 
L 226.349433 107.615114 
L 226.349433 109.084614 
L 226.826579 110.474493 
L 227.729165 111.634136 
L 228.959382 112.437876 
L 230.383916 112.798617 
L 231.848397 112.677267 
L 233.194127 112.086975 
L 234.275273 111.09171 
L 234.974678 109.799322 
L 235.21655 108.349864 
" style="fill:none;stroke:#ff0000;stroke-linecap:square;stroke-width:1.5;"/>
   </g>
   <g id="line2d_63">
    <path clip-path="url(#p34450fc552)" d="M 394.656826 357.755837 
L 393.777292 352.485079 
L 391.234001 347.78549 
L 387.302559 344.166342 
L 382.408998 342.019827 
L 377.083611 341.578553 
L 371.903487 342.890339 
L 367.429972 345.813032 
L 364.147841 350.029913 
L 362.412765 355.084018 
L 362.412765 360.427656 
L 364.147841 365.481762 
L 367.429972 369.698643 
L 371.903487 372.621336 
L 377.083611 373.933122 
L 382.408998 373.491847 
L 387.302559 371.345332 
L 391.234001 367.726185 
L 393.777292 363.026595 
L 394.656826 357.755837 
" style="fill:none;stroke:#000000;stroke-dasharray:5.55,2.4;stroke-dashoffset:0;stroke-width:1.5;"/>
   </g>
   <g id="line2d_64">
    <path clip-path="url(#p34450fc552)" d="M 382.888099 357.755837 
L 382.646227 356.306379 
L 381.946822 355.013992 
L 380.865675 354.018726 
L 379.519946 353.428435 
L 378.055465 353.307084 
L 376.63093 353.667825 
L 375.400714 354.471566 
L 374.498128 355.631208 
L 374.020982 357.021087 
L 374.020982 358.490588 
L 374.498128 359.880467 
L 375.400714 361.040109 
L 376.63093 361.843849 
L 378.055465 362.204591 
L 379.519946 362.08324 
L 380.865675 361.492949 
L 381.946822 360.497683 
L 382.646227 359.205296 
L 382.888099 357.755837 
" style="fill:none;stroke:#ff0000;stroke-linecap:square;stroke-width:1.5;"/>
   </g>
   <g id="line2d_65">
    <path clip-path="url(#p34450fc552)" d="M 189.113415 326.672351 
L 188.233881 321.401593 
L 185.69059 316.702003 
L 181.759148 313.082855 
L 176.865587 310.93634 
L 171.5402 310.495066 
L 166.360075 311.806852 
L 161.886561 314.729545 
L 158.60443 318.946426 
L 156.869354 324.000531 
L 156.869354 329.34417 
L 158.60443 334.398275 
L 161.886561 338.615156 
L 166.360075 341.537849 
L 171.5402 342.849635 
L 176.865587 342.408361 
L 181.759148 340.261846 
L 185.69059 336.642698 
L 188.233881 331.943109 
L 189.113415 326.672351 
" style="fill:none;stroke:#000000;stroke-dasharray:5.55,2.4;stroke-dashoffset:0;stroke-width:1.5;"/>
   </g>
   <g id="line2d_66">
    <path clip-path="url(#p34450fc552)" d="M 177.344688 326.672351 
L 177.102816 325.222892 
L 176.403411 323.930505 
L 175.322264 322.935239 
L 173.976535 322.344948 
L 172.512053 322.223597 
L 171.087519 322.584338 
L 169.857303 323.388079 
L 168.954717 324.547721 
L 168.477571 325.9376 
L 168.477571 327.407101 
L 168.954717 328.79698 
L 169.857303 329.956622 
L 171.087519 330.760363 
L 172.512053 331.121104 
L 173.976535 330.999753 
L 175.322264 330.409462 
L 176.403411 329.414196 
L 177.102816 328.121809 
L 177.344688 326.672351 
" style="fill:none;stroke:#ff0000;stroke-linecap:square;stroke-width:1.5;"/>
   </g>
   <g id="line2d_67">
    <path clip-path="url(#p34450fc552)" d="M 181.564851 365.989027 
L 180.685317 360.718269 
L 178.142027 356.01868 
L 174.210584 352.399532 
L 169.317023 350.253017 
L 163.991636 349.811743 
L 158.811512 351.123529 
L 154.337997 354.046222 
L 151.055867 358.263103 
L 149.32079 363.317208 
L 149.32079 368.660846 
L 151.055867 373.714951 
L 154.337997 377.931833 
L 158.811512 380.854526 
L 163.991636 382.166311 
L 169.317023 381.725037 
L 174.210584 379.578522 
L 178.142027 375.959375 
L 180.685317 371.259785 
L 181.564851 365.989027 
" style="fill:none;stroke:#000000;stroke-dasharray:5.55,2.4;stroke-dashoffset:0;stroke-width:1.5;"/>
   </g>
   <g id="line2d_68">
    <path clip-path="url(#p34450fc552)" d="M 169.796124 365.989027 
L 169.554252 364.539569 
L 168.854847 363.247182 
L 167.773701 362.251916 
L 166.427971 361.661624 
L 164.96349 361.540274 
L 163.538956 361.901015 
L 162.308739 362.704756 
L 161.406153 363.864398 
L 160.929007 365.254277 
L 160.929007 366.723777 
L 161.406153 368.113656 
L 162.308739 369.273299 
L 163.538956 370.077039 
L 164.96349 370.43778 
L 166.427971 370.31643 
L 167.773701 369.726138 
L 168.854847 368.730873 
L 169.554252 367.438486 
L 169.796124 365.989027 
" style="fill:none;stroke:#ff0000;stroke-linecap:square;stroke-width:1.5;"/>
   </g>
   <g id="line2d_69">
    <path clip-path="url(#p34450fc552)" d="M 316.39162 196.50418 
L 315.512086 191.233422 
L 312.968795 186.533832 
L 309.037353 182.914685 
L 304.143792 180.76817 
L 298.818405 180.326895 
L 293.638281 181.638681 
L 289.164766 184.561374 
L 285.882635 188.778255 
L 284.147559 193.832361 
L 284.147559 199.175999 
L 285.882635 204.230104 
L 289.164766 208.446985 
L 293.638281 211.369678 
L 298.818405 212.681464 
L 304.143792 212.24019 
L 309.037353 210.093675 
L 312.968795 206.474527 
L 315.512086 201.774938 
L 316.39162 196.50418 
" style="fill:none;stroke:#000000;stroke-dasharray:5.55,2.4;stroke-dashoffset:0;stroke-width:1.5;"/>
   </g>
   <g id="line2d_70">
    <path clip-path="url(#p34450fc552)" d="M 304.622893 196.50418 
L 304.381021 195.054721 
L 303.681616 193.762334 
L 302.600469 192.767069 
L 301.25474 192.176777 
L 299.790259 192.055426 
L 298.365724 192.416168 
L 297.135508 193.219908 
L 296.232922 194.379551 
L 295.755776 195.769429 
L 295.755776 197.23893 
L 296.232922 198.628809 
L 297.135508 199.788451 
L 298.365724 200.592192 
L 299.790259 200.952933 
L 301.25474 200.831582 
L 302.600469 200.241291 
L 303.681616 199.246025 
L 304.381021 197.953638 
L 304.622893 196.50418 
" style="fill:none;stroke:#ff0000;stroke-linecap:square;stroke-width:1.5;"/>
   </g>
   <g id="line2d_71">
    <path clip-path="url(#p34450fc552)" d="M 290.291211 224.490444 
L 289.411677 219.219687 
L 286.868386 214.520097 
L 282.936944 210.900949 
L 278.043382 208.754434 
L 272.717995 208.31316 
L 267.537871 209.624946 
L 263.064356 212.547639 
L 259.782226 216.76452 
L 258.047149 221.818625 
L 258.047149 227.162264 
L 259.782226 232.216369 
L 263.064356 236.43325 
L 267.537871 239.355943 
L 272.717995 240.667729 
L 278.043382 240.226455 
L 282.936944 238.07994 
L 286.868386 234.460792 
L 289.411677 229.761202 
L 290.291211 224.490444 
" style="fill:none;stroke:#000000;stroke-dasharray:5.55,2.4;stroke-dashoffset:0;stroke-width:1.5;"/>
   </g>
   <g id="line2d_72">
    <path clip-path="url(#p34450fc552)" d="M 278.522483 224.490444 
L 278.280612 223.040986 
L 277.581207 221.748599 
L 276.50006 220.753333 
L 275.154331 220.163042 
L 273.689849 220.041691 
L 272.265315 220.402432 
L 271.035098 221.206173 
L 270.132513 222.365815 
L 269.655366 223.755694 
L 269.655366 225.225195 
L 270.132513 226.615074 
L 271.035098 227.774716 
L 272.265315 228.578457 
L 273.689849 228.939198 
L 275.154331 228.817847 
L 276.50006 228.227556 
L 277.581207 227.23229 
L 278.280612 225.939903 
L 278.522483 224.490444 
" style="fill:none;stroke:#ff0000;stroke-linecap:square;stroke-width:1.5;"/>
   </g>
   <g id="line2d_73">
    <path clip-path="url(#p34450fc552)" d="M 92.290909 493.789091 
L 92.290909 87.970909 
" style="fill:none;stroke:#000000;stroke-linecap:square;stroke-width:4;"/>
   </g>
   <g id="line2d_74">
    <path clip-path="url(#p34450fc552)" d="M 92.290909 87.970909 
L 498.109091 87.970909 
" style="fill:none;stroke:#000000;stroke-linecap:square;stroke-width:4;"/>
   </g>
   <g id="line2d_75">
    <path clip-path="url(#p34450fc552)" d="M 498.109091 87.970909 
L 498.109091 493.789091 
" style="fill:none;stroke:#000000;stroke-linecap:square;stroke-width:4;"/>
   </g>
   <g id="line2d_76">
    <path clip-path="url(#p34450fc552)" d="M 498.109091 493.789091 
L 92.290909 493.789091 
" style="fill:none;stroke:#000000;stroke-linecap:square;stroke-width:4;"/>
   </g>
   <g id="patch_3">
    <path d="M 72 512.64 
L 72 69.12 
" style="fill:none;stroke:#000000;stroke-linecap:square;stroke-linejoin:miter;stroke-width:0.8;"/>
   </g>
   <g id="patch_4">
    <path d="M 518.4 512.64 
L 518.4 69.12 
" style="fill:none;stroke:#000000;stroke-linecap:square;stroke-linejoin:miter;stroke-width:0.8;"/>
   </g>
   <g id="patch_5">
    <path d="M 72 512.64 
L 518.4 512.64 
" style="fill:none;stroke:#000000;stroke-linecap:square;stroke-linejoin:miter;stroke-width:0.8;"/>
   </g>
   <g id="patch_6">
    <path d="M 72 69.12 
L 518.4 69.12 
" style="fill:none;stroke:#000000;stroke-linecap:square;stroke-linejoin:miter;stroke-width:0.8;"/>
   </g>
   <g id="text_12">
    <!-- 1 -->
    <defs>
     <path d="M 14.203125 0 
L 14.203125 5.171875 
L 26.90625 5.171875 
L 26.90625 65.828125 
L 12.203125 56.296875 
L 12.203125 62.703125 
L 29.984375 74.21875 
L 36.71875 74.21875 
L 36.71875 5.171875 
L 49.421875 5.171875 
L 49.421875 0 
z
" id="DejaVuSerif-31"/>
    </defs>
    <g transform="translate(456.527992 365.62151)scale(0.1 -0.1)">
     <use xlink:href="#DejaVuSerif-31"/>
    </g>
   </g>
   <g id="text_13">
    <!-- 1 -->
    <g transform="translate(239.402585 457.146585)scale(0.1 -0.1)">
     <use xlink:href="#DejaVuSerif-31"/>
    </g>
   </g>
   <g id="text_14">
    <!-- 2 -->
    <defs>
     <path d="M 12.796875 55.515625 
L 7.328125 55.515625 
L 7.328125 68.5 
Q 12.546875 71.296875 17.84375 72.75 
Q 23.140625 74.21875 28.21875 74.21875 
Q 39.59375 74.21875 46.1875 68.703125 
Q 52.78125 63.1875 52.78125 53.71875 
Q 52.78125 43.015625 37.84375 28.125 
Q 36.671875 27 36.078125 26.421875 
L 17.671875 8.015625 
L 48.09375 8.015625 
L 48.09375 17 
L 53.8125 17 
L 53.8125 0 
L 6.78125 0 
L 6.78125 5.328125 
L 28.90625 27.390625 
Q 36.234375 34.71875 39.359375 40.84375 
Q 42.484375 46.96875 42.484375 53.71875 
Q 42.484375 61.078125 38.640625 65.234375 
Q 34.8125 69.390625 28.078125 69.390625 
Q 21.09375 69.390625 17.28125 65.921875 
Q 13.484375 62.453125 12.796875 55.515625 
z
" id="DejaVuSerif-32"/>
    </defs>
    <g transform="translate(390.267102 226.424047)scale(0.1 -0.1)">
     <use xlink:href="#DejaVuSerif-32"/>
    </g>
   </g>
   <g id="text_15">
    <!-- 2 -->
    <g transform="translate(146.743113 160.739173)scale(0.1 -0.1)">
     <use xlink:href="#DejaVuSerif-32"/>
    </g>
   </g>
   <g id="text_16">
    <!-- 3 -->
    <defs>
     <path d="M 9.71875 69.828125 
Q 15.4375 71.96875 20.671875 73.09375 
Q 25.921875 74.21875 30.515625 74.21875 
Q 41.21875 74.21875 47.21875 69.59375 
Q 53.21875 64.984375 53.21875 56.78125 
Q 53.21875 50.203125 49.0625 45.78125 
Q 44.921875 41.359375 37.3125 39.796875 
Q 46.296875 38.53125 51.25 33.28125 
Q 56.203125 28.03125 56.203125 19.671875 
Q 56.203125 9.46875 49.34375 4.015625 
Q 42.484375 -1.421875 29.59375 -1.421875 
Q 23.875 -1.421875 18.421875 -0.1875 
Q 12.984375 1.03125 7.625 3.515625 
L 7.625 17.671875 
L 13.09375 17.671875 
Q 13.578125 10.640625 17.828125 7.03125 
Q 22.078125 3.421875 29.78125 3.421875 
Q 37.25 3.421875 41.578125 7.734375 
Q 45.90625 12.0625 45.90625 19.578125 
Q 45.90625 28.171875 41.453125 32.59375 
Q 37.015625 37.015625 28.421875 37.015625 
L 23.78125 37.015625 
L 23.78125 42 
L 26.21875 42 
Q 34.765625 42 39.03125 45.53125 
Q 43.3125 49.078125 43.3125 56.203125 
Q 43.3125 62.59375 39.796875 65.984375 
Q 36.28125 69.390625 29.6875 69.390625 
Q 23.09375 69.390625 19.453125 66.265625 
Q 15.828125 63.140625 15.1875 56.984375 
L 9.71875 56.984375 
z
" id="DejaVuSerif-33"/>
    </defs>
    <g transform="translate(110.282046 253.454716)scale(0.1 -0.1)">
     <use xlink:href="#DejaVuSerif-33"/>
    </g>
   </g>
   <g id="text_17">
    <!-- 3 -->
    <g transform="translate(280.716582 422.26613)scale(0.1 -0.1)">
     <use xlink:href="#DejaVuSerif-33"/>
    </g>
   </g>
   <g id="text_18">
    <!-- 4 -->
    <defs>
     <path d="M 34.90625 24.703125 
L 34.90625 63.484375 
L 10.015625 24.703125 
z
M 56.390625 0 
L 23.1875 0 
L 23.1875 5.171875 
L 34.90625 5.171875 
L 34.90625 19.484375 
L 3.078125 19.484375 
L 3.078125 24.8125 
L 35.015625 74.21875 
L 44.671875 74.21875 
L 44.671875 24.703125 
L 58.59375 24.703125 
L 58.59375 19.484375 
L 44.671875 19.484375 
L 44.671875 5.171875 
L 56.390625 5.171875 
z
" id="DejaVuSerif-34"/>
    </defs>
    <g transform="translate(324.257273 442.554138)scale(0.1 -0.1)">
     <use xlink:href="#DejaVuSerif-34"/>
    </g>
   </g>
   <g id="text_19">
    <!-- 4 -->
    <g transform="translate(211.549069 240.048354)scale(0.1 -0.1)">
     <use xlink:href="#DejaVuSerif-34"/>
    </g>
   </g>
   <g id="text_20">
    <!-- 5 -->
    <defs>
     <path d="M 50.296875 72.90625 
L 50.296875 64.890625 
L 16.890625 64.890625 
L 16.890625 44 
Q 19.4375 45.75 22.828125 46.625 
Q 26.21875 47.515625 30.421875 47.515625 
Q 42.234375 47.515625 49.0625 40.96875 
Q 55.90625 34.421875 55.90625 23.09375 
Q 55.90625 11.53125 49 5.046875 
Q 42.09375 -1.421875 29.59375 -1.421875 
Q 24.5625 -1.421875 19.28125 -0.1875 
Q 14.015625 1.03125 8.5 3.515625 
L 8.5 17.671875 
L 14.015625 17.671875 
Q 14.453125 10.75 18.421875 7.078125 
Q 22.40625 3.421875 29.59375 3.421875 
Q 37.3125 3.421875 41.453125 8.5 
Q 45.609375 13.578125 45.609375 23.09375 
Q 45.609375 32.5625 41.484375 37.609375 
Q 37.359375 42.671875 29.59375 42.671875 
Q 25.203125 42.671875 21.84375 41.109375 
Q 18.5 39.546875 15.921875 36.28125 
L 11.71875 36.28125 
L 11.71875 72.90625 
z
" id="DejaVuSerif-35"/>
    </defs>
    <g transform="translate(466.55554 170.862494)scale(0.1 -0.1)">
     <use xlink:href="#DejaVuSerif-35"/>
    </g>
   </g>
   <g id="text_21">
    <!-- 5 -->
    <g transform="translate(118.33697 111.904318)scale(0.1 -0.1)">
     <use xlink:href="#DejaVuSerif-35"/>
    </g>
   </g>
   <g id="text_22">
    <!-- 6 -->
    <defs>
     <path d="M 32.71875 3.421875 
Q 39.59375 3.421875 43.296875 8.46875 
Q 47.015625 13.53125 47.015625 23 
Q 47.015625 32.46875 43.296875 37.515625 
Q 39.59375 42.578125 32.71875 42.578125 
Q 25.734375 42.578125 22.0625 37.6875 
Q 18.40625 32.8125 18.40625 23.578125 
Q 18.40625 13.875 22.109375 8.640625 
Q 25.828125 3.421875 32.71875 3.421875 
z
M 16.796875 40.140625 
Q 20.125 43.796875 24.3125 45.59375 
Q 28.515625 47.40625 33.796875 47.40625 
Q 44.671875 47.40625 51 40.859375 
Q 57.328125 34.328125 57.328125 23 
Q 57.328125 11.921875 50.515625 5.25 
Q 43.703125 -1.421875 32.328125 -1.421875 
Q 19.96875 -1.421875 13.328125 7.78125 
Q 6.6875 17 6.6875 34.078125 
Q 6.6875 53.21875 14.546875 63.71875 
Q 22.40625 74.21875 36.71875 74.21875 
Q 40.578125 74.21875 44.828125 73.484375 
Q 49.078125 72.75 53.515625 71.296875 
L 53.515625 59.28125 
L 48 59.28125 
Q 47.40625 64.203125 44.234375 66.796875 
Q 41.0625 69.390625 35.6875 69.390625 
Q 26.21875 69.390625 21.578125 62.203125 
Q 16.9375 55.03125 16.796875 40.140625 
z
" id="DejaVuSerif-36"/>
    </defs>
    <g transform="translate(294.807826 263.090042)scale(0.1 -0.1)">
     <use xlink:href="#DejaVuSerif-36"/>
    </g>
   </g>
   <g id="text_23">
    <!-- 6 -->
    <g transform="translate(127.532262 388.152005)scale(0.1 -0.1)">
     <use xlink:href="#DejaVuSerif-36"/>
    </g>
   </g>
   <g id="text_24">
    <!-- 7 -->
    <defs>
     <path d="M 56.390625 67.921875 
L 27.875 0 
L 20.609375 0 
L 47.796875 64.890625 
L 14.109375 64.890625 
L 14.109375 55.90625 
L 8.40625 55.90625 
L 8.40625 72.90625 
L 56.390625 72.90625 
z
" id="DejaVuSerif-37"/>
    </defs>
    <g transform="translate(408.446151 289.779714)scale(0.1 -0.1)">
     <use xlink:href="#DejaVuSerif-37"/>
    </g>
   </g>
   <g id="text_25">
    <!-- 7 -->
    <g transform="translate(118.530123 463.201162)scale(0.1 -0.1)">
     <use xlink:href="#DejaVuSerif-37"/>
    </g>
   </g>
   <g id="text_26">
    <!-- 8 -->
    <defs>
     <path d="M 46.578125 19.921875 
Q 46.578125 27.734375 42.6875 32.046875 
Q 38.8125 36.375 31.78125 36.375 
Q 24.75 36.375 20.875 32.046875 
Q 17 27.734375 17 19.921875 
Q 17 12.0625 20.875 7.734375 
Q 24.75 3.421875 31.78125 3.421875 
Q 38.8125 3.421875 42.6875 7.734375 
Q 46.578125 12.0625 46.578125 19.921875 
z
M 44.578125 55.328125 
Q 44.578125 61.96875 41.203125 65.671875 
Q 37.84375 69.390625 31.78125 69.390625 
Q 25.78125 69.390625 22.390625 65.671875 
Q 19 61.96875 19 55.328125 
Q 19 48.640625 22.390625 44.921875 
Q 25.78125 41.21875 31.78125 41.21875 
Q 37.84375 41.21875 41.203125 44.921875 
Q 44.578125 48.640625 44.578125 55.328125 
z
M 39.3125 38.8125 
Q 47.609375 37.703125 52.25 32.6875 
Q 56.890625 27.6875 56.890625 19.921875 
Q 56.890625 9.671875 50.390625 4.125 
Q 43.890625 -1.421875 31.78125 -1.421875 
Q 19.734375 -1.421875 13.203125 4.125 
Q 6.6875 9.671875 6.6875 19.921875 
Q 6.6875 27.6875 11.328125 32.6875 
Q 15.96875 37.703125 24.3125 38.8125 
Q 16.9375 40.140625 13 44.40625 
Q 9.078125 48.6875 9.078125 55.328125 
Q 9.078125 64.109375 15.125 69.15625 
Q 21.1875 74.21875 31.78125 74.21875 
Q 42.390625 74.21875 48.4375 69.15625 
Q 54.5 64.109375 54.5 55.328125 
Q 54.5 48.6875 50.5625 44.40625 
Q 46.625 40.140625 39.3125 38.8125 
z
" id="DejaVuSerif-38"/>
    </defs>
    <g transform="translate(456.696717 222.818361)scale(0.1 -0.1)">
     <use xlink:href="#DejaVuSerif-38"/>
    </g>
   </g>
   <g id="text_27">
    <!-- 8 -->
    <g transform="translate(183.433328 132.175397)scale(0.1 -0.1)">
     <use xlink:href="#DejaVuSerif-38"/>
    </g>
   </g>
  </g>
 </g>
 <defs>
  <clipPath id="p34450fc552">
   <rect height="443.52" width="446.4" x="72" y="69.12"/>
  </clipPath>
 </defs>
</svg>
