<?xml version="1.0" encoding="utf-8" standalone="no"?>
<!DOCTYPE svg PUBLIC "-//W3C//DTD SVG 1.1//EN"
  "http://www.w3.org/Graphics/SVG/1.1/DTD/svg11.dtd">
<!-- Created with matplotlib (http://matplotlib.org/) -->
<svg height="576pt" version="1.1" viewBox="0 0 576 576" width="576pt" xmlns="http://www.w3.org/2000/svg" xmlns:xlink="http://www.w3.org/1999/xlink">
 <defs>
  <style type="text/css">
*{stroke-linecap:butt;stroke-linejoin:round;}
  </style>
 </defs>
 <g id="figure_1">
  <g id="patch_1">
   <path d="M 0 576 
L 576 576 
L 576 0 
L 0 0 
z
" style="fill:#ffffff;"/>
  </g>
  <g id="axes_1">
   <g id="line2d_1">
    <path clip-path="url(#p30f36040f0)" d="M 220.181985 449.609886 
" style="fill:none;stroke:#1f77b4;stroke-linecap:square;stroke-width:1.5;"/>
    <defs>
     <path d="M -5 5 
L 5 5 
L 5 -5 
L -5 -5 
z
" id="m8a7ff37b46" style="stroke:#8000ff;stroke-linejoin:miter;"/>
    </defs>
    <g clip-path="url(#p30f36040f0)">
     <use style="fill:#8000ff;stroke:#8000ff;stroke-linejoin:miter;" x="220.181985" xlink:href="#m8a7ff37b46" y="449.609886"/>
    </g>
   </g>
   <g id="line2d_2">
    <path clip-path="url(#p30f36040f0)" d="M 174.625796 295.367929 
" style="fill:none;stroke:#ff7f0e;stroke-linecap:square;stroke-width:1.5;"/>
    <defs>
     <path d="M 0 -5 
L -4.755283 -1.545085 
L -2.938926 4.045085 
L 2.938926 4.045085 
L 4.755283 -1.545085 
z
" id="mc6c1ca3b8e" style="stroke:#8000ff;stroke-linejoin:miter;"/>
    </defs>
    <g clip-path="url(#p30f36040f0)">
     <use style="fill:#8000ff;stroke:#8000ff;stroke-linejoin:miter;" x="174.625796" xlink:href="#mc6c1ca3b8e" y="295.367929"/>
    </g>
   </g>
   <g id="line2d_3">
    <path clip-path="url(#p30f36040f0)" d="M 337.543388 249.150846 
" style="fill:none;stroke:#2ca02c;stroke-linecap:square;stroke-width:1.5;"/>
    <defs>
     <path d="M -5 5 
L 5 5 
L 5 -5 
L -5 -5 
z
" id="mb80b31c085" style="stroke:#376ff9;stroke-linejoin:miter;"/>
    </defs>
    <g clip-path="url(#p30f36040f0)">
     <use style="fill:#376ff9;stroke:#376ff9;stroke-linejoin:miter;" x="337.543388" xlink:href="#mb80b31c085" y="249.150846"/>
    </g>
   </g>
   <g id="line2d_4">
    <path clip-path="url(#p30f36040f0)" d="M 125.811031 399.073405 
" style="fill:none;stroke:#d62728;stroke-linecap:square;stroke-width:1.5;"/>
    <defs>
     <path d="M 0 -5 
L -4.755283 -1.545085 
L -2.938926 4.045085 
L 2.938926 4.045085 
L 4.755283 -1.545085 
z
" id="ma09f5bd0f5" style="stroke:#376ff9;stroke-linejoin:miter;"/>
    </defs>
    <g clip-path="url(#p30f36040f0)">
     <use style="fill:#376ff9;stroke:#376ff9;stroke-linejoin:miter;" x="125.811031" xlink:href="#ma09f5bd0f5" y="399.073405"/>
    </g>
   </g>
   <g id="line2d_5">
    <path clip-path="url(#p30f36040f0)" d="M 384.036105 395.556768 
" style="fill:none;stroke:#9467bd;stroke-linecap:square;stroke-width:1.5;"/>
    <defs>
     <path d="M -5 5 
L 5 5 
L 5 -5 
L -5 -5 
z
" id="m62a6d18b9e" style="stroke:#12c7e6;stroke-linejoin:miter;"/>
    </defs>
    <g clip-path="url(#p30f36040f0)">
     <use style="fill:#12c7e6;stroke:#12c7e6;stroke-linejoin:miter;" x="384.036105" xlink:href="#m62a6d18b9e" y="395.556768"/>
    </g>
   </g>
   <g id="line2d_6">
    <path clip-path="url(#p30f36040f0)" d="M 450.716231 445.303364 
" style="fill:none;stroke:#8c564b;stroke-linecap:square;stroke-width:1.5;"/>
    <defs>
     <path d="M 0 -5 
L -4.755283 -1.545085 
L -2.938926 4.045085 
L 2.938926 4.045085 
L 4.755283 -1.545085 
z
" id="m4958501099" style="stroke:#12c7e6;stroke-linejoin:miter;"/>
    </defs>
    <g clip-path="url(#p30f36040f0)">
     <use style="fill:#12c7e6;stroke:#12c7e6;stroke-linejoin:miter;" x="450.716231" xlink:href="#m4958501099" y="445.303364"/>
    </g>
   </g>
   <g id="line2d_7">
    <path clip-path="url(#p30f36040f0)" d="M 390.967436 312.850966 
" style="fill:none;stroke:#e377c2;stroke-linecap:square;stroke-width:1.5;"/>
    <defs>
     <path d="M -5 5 
L 5 5 
L 5 -5 
L -5 -5 
z
" id="m3019359be1" style="stroke:#5bf9c7;stroke-linejoin:miter;"/>
    </defs>
    <g clip-path="url(#p30f36040f0)">
     <use style="fill:#5bf9c7;stroke:#5bf9c7;stroke-linejoin:miter;" x="390.967436" xlink:href="#m3019359be1" y="312.850966"/>
    </g>
   </g>
   <g id="line2d_8">
    <path clip-path="url(#p30f36040f0)" d="M 314.639021 191.741223 
" style="fill:none;stroke:#7f7f7f;stroke-linecap:square;stroke-width:1.5;"/>
    <defs>
     <path d="M 0 -5 
L -4.755283 -1.545085 
L -2.938926 4.045085 
L 2.938926 4.045085 
L 4.755283 -1.545085 
z
" id="mae834d3b29" style="stroke:#5bf9c7;stroke-linejoin:miter;"/>
    </defs>
    <g clip-path="url(#p30f36040f0)">
     <use style="fill:#5bf9c7;stroke:#5bf9c7;stroke-linejoin:miter;" x="314.639021" xlink:href="#mae834d3b29" y="191.741223"/>
    </g>
   </g>
   <g id="line2d_9">
    <path clip-path="url(#p30f36040f0)" d="M 119.871389 140.735273 
" style="fill:none;stroke:#bcbd22;stroke-linecap:square;stroke-width:1.5;"/>
    <defs>
     <path d="M -5 5 
L 5 5 
L 5 -5 
L -5 -5 
z
" id="m0419d2bbaa" style="stroke:#a4f99f;stroke-linejoin:miter;"/>
    </defs>
    <g clip-path="url(#p30f36040f0)">
     <use style="fill:#a4f99f;stroke:#a4f99f;stroke-linejoin:miter;" x="119.871389" xlink:href="#m0419d2bbaa" y="140.735273"/>
    </g>
   </g>
   <g id="line2d_10">
    <path clip-path="url(#p30f36040f0)" d="M 238.895422 122.626549 
" style="fill:none;stroke:#17becf;stroke-linecap:square;stroke-width:1.5;"/>
    <defs>
     <path d="M 0 -5 
L -4.755283 -1.545085 
L -2.938926 4.045085 
L 2.938926 4.045085 
L 4.755283 -1.545085 
z
" id="m1d7ae9fc87" style="stroke:#a4f99f;stroke-linejoin:miter;"/>
    </defs>
    <g clip-path="url(#p30f36040f0)">
     <use style="fill:#a4f99f;stroke:#a4f99f;stroke-linejoin:miter;" x="238.895422" xlink:href="#m1d7ae9fc87" y="122.626549"/>
    </g>
   </g>
   <g id="line2d_11">
    <path clip-path="url(#p30f36040f0)" d="M 246.737859 271.921875 
" style="fill:none;stroke:#1f77b4;stroke-linecap:square;stroke-width:1.5;"/>
    <defs>
     <path d="M -5 5 
L 5 5 
L 5 -5 
L -5 -5 
z
" id="m47c9701fa0" style="stroke:#edc76f;stroke-linejoin:miter;"/>
    </defs>
    <g clip-path="url(#p30f36040f0)">
     <use style="fill:#edc76f;stroke:#edc76f;stroke-linejoin:miter;" x="246.737859" xlink:href="#m47c9701fa0" y="271.921875"/>
    </g>
   </g>
   <g id="line2d_12">
    <path clip-path="url(#p30f36040f0)" d="M 207.320267 180.292774 
" style="fill:none;stroke:#ff7f0e;stroke-linecap:square;stroke-width:1.5;"/>
    <defs>
     <path d="M 0 -5 
L -4.755283 -1.545085 
L -2.938926 4.045085 
L 2.938926 4.045085 
L 4.755283 -1.545085 
z
" id="mcfb69137c3" style="stroke:#edc76f;stroke-linejoin:miter;"/>
    </defs>
    <g clip-path="url(#p30f36040f0)">
     <use style="fill:#edc76f;stroke:#edc76f;stroke-linejoin:miter;" x="207.320267" xlink:href="#mcfb69137c3" y="180.292774"/>
    </g>
   </g>
   <g id="line2d_13">
    <path clip-path="url(#p30f36040f0)" d="M 268.952952 196.910064 
" style="fill:none;stroke:#2ca02c;stroke-linecap:square;stroke-width:1.5;"/>
    <defs>
     <path d="M -5 5 
L 5 5 
L 5 -5 
L -5 -5 
z
" id="m66493f258f" style="stroke:#ff6f39;stroke-linejoin:miter;"/>
    </defs>
    <g clip-path="url(#p30f36040f0)">
     <use style="fill:#ff6f39;stroke:#ff6f39;stroke-linejoin:miter;" x="268.952952" xlink:href="#m66493f258f" y="196.910064"/>
    </g>
   </g>
   <g id="line2d_14">
    <path clip-path="url(#p30f36040f0)" d="M 326.498198 352.315449 
" style="fill:none;stroke:#d62728;stroke-linecap:square;stroke-width:1.5;"/>
    <defs>
     <path d="M 0 -5 
L -4.755283 -1.545085 
L -2.938926 4.045085 
L 2.938926 4.045085 
L 4.755283 -1.545085 
z
" id="mc251aaa1cf" style="stroke:#ff6f39;stroke-linejoin:miter;"/>
    </defs>
    <g clip-path="url(#p30f36040f0)">
     <use style="fill:#ff6f39;stroke:#ff6f39;stroke-linejoin:miter;" x="326.498198" xlink:href="#mc251aaa1cf" y="352.315449"/>
    </g>
   </g>
   <g id="line2d_15">
    <path clip-path="url(#p30f36040f0)" d="M 446.603471 307.888342 
" style="fill:none;stroke:#9467bd;stroke-linecap:square;stroke-width:1.5;"/>
    <defs>
     <path d="M -5 5 
L 5 5 
L 5 -5 
L -5 -5 
z
" id="m1e7fbb1a99" style="stroke:#ff0000;stroke-linejoin:miter;"/>
    </defs>
    <g clip-path="url(#p30f36040f0)">
     <use style="fill:#ff0000;stroke:#ff0000;stroke-linejoin:miter;" x="446.603471" xlink:href="#m1e7fbb1a99" y="307.888342"/>
    </g>
   </g>
   <g id="line2d_16">
    <path clip-path="url(#p30f36040f0)" d="M 326.358272 428.07758 
" style="fill:none;stroke:#8c564b;stroke-linecap:square;stroke-width:1.5;"/>
    <defs>
     <path d="M 0 -5 
L -4.755283 -1.545085 
L -2.938926 4.045085 
L 2.938926 4.045085 
L 4.755283 -1.545085 
z
" id="mbc7f75c98f" style="stroke:#ff0000;stroke-linejoin:miter;"/>
    </defs>
    <g clip-path="url(#p30f36040f0)">
     <use style="fill:#ff0000;stroke:#ff0000;stroke-linejoin:miter;" x="326.358272" xlink:href="#mbc7f75c98f" y="428.07758"/>
    </g>
   </g>
   <g id="line2d_17">
    <defs>
     <path d="M 0 2.5 
C 0.663008 2.5 1.29895 2.236584 1.767767 1.767767 
C 2.236584 1.29895 2.5 0.663008 2.5 0 
C 2.5 -0.663008 2.236584 -1.29895 1.767767 -1.767767 
C 1.29895 -2.236584 0.663008 -2.5 0 -2.5 
C -0.663008 -2.5 -1.29895 -2.236584 -1.767767 -1.767767 
C -2.236584 -1.29895 -2.5 -0.663008 -2.5 0 
C -2.5 0.663008 -2.236584 1.29895 -1.767767 1.767767 
C -1.29895 2.236584 -0.663008 2.5 0 2.5 
z
" id="m4427db2158" style="stroke:#000000;"/>
    </defs>
    <g clip-path="url(#p30f36040f0)">
     <use style="stroke:#000000;" x="268.529715" xlink:href="#m4427db2158" y="342.651794"/>
     <use style="stroke:#000000;" x="209.053736" xlink:href="#m4427db2158" y="367.513499"/>
     <use style="stroke:#000000;" x="454.618301" xlink:href="#m4427db2158" y="222.24816"/>
     <use style="stroke:#000000;" x="289.958715" xlink:href="#m4427db2158" y="406.428324"/>
     <use style="stroke:#000000;" x="256.069949" xlink:href="#m4427db2158" y="376.865561"/>
     <use style="stroke:#000000;" x="171.657215" xlink:href="#m4427db2158" y="158.4465"/>
     <use style="stroke:#000000;" x="473.137813" xlink:href="#m4427db2158" y="355.770325"/>
     <use style="stroke:#000000;" x="303.312949" xlink:href="#m4427db2158" y="461.861521"/>
     <use style="stroke:#000000;" x="208.066908" xlink:href="#m4427db2158" y="223.476171"/>
     <use style="stroke:#000000;" x="378.788881" xlink:href="#m4427db2158" y="236.693119"/>
     <use style="stroke:#000000;" x="374.102423" xlink:href="#m4427db2158" y="464.587968"/>
     <use style="stroke:#000000;" x="397.386126" xlink:href="#m4427db2158" y="159.197778"/>
     <use style="stroke:#000000;" x="159.507796" xlink:href="#m4427db2158" y="230.299743"/>
     <use style="stroke:#000000;" x="163.13692" xlink:href="#m4427db2158" y="434.834484"/>
     <use style="stroke:#000000;" x="291.024769" xlink:href="#m4427db2158" y="154.399428"/>
     <use style="stroke:#000000;" x="126.297691" xlink:href="#m4427db2158" y="338.968364"/>
     <use style="stroke:#000000;" x="308.312764" xlink:href="#m4427db2158" y="286.960205"/>
     <use style="stroke:#000000;" x="150.295501" xlink:href="#m4427db2158" y="358.362808"/>
     <use style="stroke:#000000;" x="282.223013" xlink:href="#m4427db2158" y="125.483758"/>
     <use style="stroke:#000000;" x="143.066128" xlink:href="#m4427db2158" y="251.656522"/>
     <use style="stroke:#000000;" x="318.555761" xlink:href="#m4427db2158" y="126.463177"/>
     <use style="stroke:#000000;" x="401.183808" xlink:href="#m4427db2158" y="224.600474"/>
    </g>
   </g>
   <g id="line2d_18">
    <path clip-path="url(#p30f36040f0)" d="M 284.762442 342.651794 
L 283.882908 337.381036 
L 281.339617 332.681446 
L 277.408175 329.062299 
L 272.514614 326.915784 
L 267.189227 326.47451 
L 262.009102 327.786295 
L 257.535588 330.708988 
L 254.253457 334.92587 
L 252.518381 339.979975 
L 252.518381 345.323613 
L 254.253457 350.377718 
L 257.535588 354.594599 
L 262.009102 357.517292 
L 267.189227 358.829078 
L 272.514614 358.387804 
L 277.408175 356.241289 
L 281.339617 352.622141 
L 283.882908 347.922552 
L 284.762442 342.651794 
" style="fill:none;stroke:#000000;stroke-dasharray:5.55,2.4;stroke-dashoffset:0;stroke-width:1.5;"/>
   </g>
   <g id="line2d_19">
    <path clip-path="url(#p30f36040f0)" d="M 272.993715 342.651794 
L 272.751843 341.202335 
L 272.052438 339.909948 
L 270.971291 338.914683 
L 269.625562 338.324391 
L 268.16108 338.203041 
L 266.736546 338.563782 
L 265.50633 339.367522 
L 264.603744 340.527165 
L 264.126598 341.917044 
L 264.126598 343.386544 
L 264.603744 344.776423 
L 265.50633 345.936065 
L 266.736546 346.739806 
L 268.16108 347.100547 
L 269.625562 346.979197 
L 270.971291 346.388905 
L 272.052438 345.393639 
L 272.751843 344.101252 
L 272.993715 342.651794 
" style="fill:none;stroke:#ff0000;stroke-linecap:square;stroke-width:1.5;"/>
   </g>
   <g id="line2d_20">
    <path clip-path="url(#p30f36040f0)" d="M 225.286463 367.513499 
L 224.406929 362.242742 
L 221.863639 357.543152 
L 217.932196 353.924004 
L 213.038635 351.777489 
L 207.713248 351.336215 
L 202.533124 352.648001 
L 198.059609 355.570694 
L 194.777478 359.787575 
L 193.042402 364.84168 
L 193.042402 370.185319 
L 194.777478 375.239424 
L 198.059609 379.456305 
L 202.533124 382.378998 
L 207.713248 383.690784 
L 213.038635 383.24951 
L 217.932196 381.102995 
L 221.863639 377.483847 
L 224.406929 372.784257 
L 225.286463 367.513499 
" style="fill:none;stroke:#000000;stroke-dasharray:5.55,2.4;stroke-dashoffset:0;stroke-width:1.5;"/>
   </g>
   <g id="line2d_21">
    <path clip-path="url(#p30f36040f0)" d="M 213.517736 367.513499 
L 213.275864 366.064041 
L 212.576459 364.771654 
L 211.495313 363.776388 
L 210.149583 363.186097 
L 208.685102 363.064746 
L 207.260568 363.425487 
L 206.030351 364.229228 
L 205.127765 365.38887 
L 204.650619 366.778749 
L 204.650619 368.24825 
L 205.127765 369.638129 
L 206.030351 370.797771 
L 207.260568 371.601512 
L 208.685102 371.962253 
L 210.149583 371.840902 
L 211.495313 371.250611 
L 212.576459 370.255345 
L 213.275864 368.962958 
L 213.517736 367.513499 
" style="fill:none;stroke:#ff0000;stroke-linecap:square;stroke-width:1.5;"/>
   </g>
   <g id="line2d_22">
    <path clip-path="url(#p30f36040f0)" d="M 470.851029 222.24816 
L 469.971495 216.977402 
L 467.428204 212.277813 
L 463.496762 208.658665 
L 458.6032 206.51215 
L 453.277813 206.070876 
L 448.097689 207.382662 
L 443.624174 210.305355 
L 440.342044 214.522236 
L 438.606967 219.576341 
L 438.606967 224.919979 
L 440.342044 229.974084 
L 443.624174 234.190966 
L 448.097689 237.113659 
L 453.277813 238.425445 
L 458.6032 237.98417 
L 463.496762 235.837655 
L 467.428204 232.218508 
L 469.971495 227.518918 
L 470.851029 222.24816 
" style="fill:none;stroke:#000000;stroke-dasharray:5.55,2.4;stroke-dashoffset:0;stroke-width:1.5;"/>
   </g>
   <g id="line2d_23">
    <path clip-path="url(#p30f36040f0)" d="M 459.082301 222.24816 
L 458.840429 220.798702 
L 458.141025 219.506315 
L 457.059878 218.511049 
L 455.714149 217.920757 
L 454.249667 217.799407 
L 452.825133 218.160148 
L 451.594916 218.963889 
L 450.692331 220.123531 
L 450.215184 221.51341 
L 450.215184 222.982911 
L 450.692331 224.372789 
L 451.594916 225.532432 
L 452.825133 226.336172 
L 454.249667 226.696913 
L 455.714149 226.575563 
L 457.059878 225.985271 
L 458.141025 224.990006 
L 458.840429 223.697619 
L 459.082301 222.24816 
" style="fill:none;stroke:#ff0000;stroke-linecap:square;stroke-width:1.5;"/>
   </g>
   <g id="line2d_24">
    <path clip-path="url(#p30f36040f0)" d="M 306.191442 406.428324 
L 305.311908 401.157566 
L 302.768618 396.457977 
L 298.837175 392.838829 
L 293.943614 390.692314 
L 288.618227 390.25104 
L 283.438103 391.562826 
L 278.964588 394.485519 
L 275.682458 398.7024 
L 273.947381 403.756505 
L 273.947381 409.100144 
L 275.682458 414.154249 
L 278.964588 418.37113 
L 283.438103 421.293823 
L 288.618227 422.605609 
L 293.943614 422.164335 
L 298.837175 420.01782 
L 302.768618 416.398672 
L 305.311908 411.699082 
L 306.191442 406.428324 
" style="fill:none;stroke:#000000;stroke-dasharray:5.55,2.4;stroke-dashoffset:0;stroke-width:1.5;"/>
   </g>
   <g id="line2d_25">
    <path clip-path="url(#p30f36040f0)" d="M 294.422715 406.428324 
L 294.180843 404.978866 
L 293.481438 403.686479 
L 292.400292 402.691213 
L 291.054562 402.100922 
L 289.590081 401.979571 
L 288.165547 402.340312 
L 286.93533 403.144053 
L 286.032744 404.303695 
L 285.555598 405.693574 
L 285.555598 407.163075 
L 286.032744 408.552954 
L 286.93533 409.712596 
L 288.165547 410.516337 
L 289.590081 410.877078 
L 291.054562 410.755727 
L 292.400292 410.165436 
L 293.481438 409.17017 
L 294.180843 407.877783 
L 294.422715 406.428324 
" style="fill:none;stroke:#ff0000;stroke-linecap:square;stroke-width:1.5;"/>
   </g>
   <g id="line2d_26">
    <path clip-path="url(#p30f36040f0)" d="M 272.302677 376.865561 
L 271.423143 371.594804 
L 268.879852 366.895214 
L 264.94841 363.276066 
L 260.054848 361.129551 
L 254.729461 360.688277 
L 249.549337 362.000063 
L 245.075822 364.922756 
L 241.793692 369.139637 
L 240.058615 374.193742 
L 240.058615 379.537381 
L 241.793692 384.591486 
L 245.075822 388.808367 
L 249.549337 391.73106 
L 254.729461 393.042846 
L 260.054848 392.601572 
L 264.94841 390.455057 
L 268.879852 386.835909 
L 271.423143 382.136319 
L 272.302677 376.865561 
" style="fill:none;stroke:#000000;stroke-dasharray:5.55,2.4;stroke-dashoffset:0;stroke-width:1.5;"/>
   </g>
   <g id="line2d_27">
    <path clip-path="url(#p30f36040f0)" d="M 260.533949 376.865561 
L 260.292078 375.416103 
L 259.592673 374.123716 
L 258.511526 373.12845 
L 257.165797 372.538159 
L 255.701315 372.416808 
L 254.276781 372.777549 
L 253.046564 373.58129 
L 252.143979 374.740932 
L 251.666833 376.130811 
L 251.666833 377.600312 
L 252.143979 378.990191 
L 253.046564 380.149833 
L 254.276781 380.953574 
L 255.701315 381.314315 
L 257.165797 381.192964 
L 258.511526 380.602673 
L 259.592673 379.607407 
L 260.292078 378.31502 
L 260.533949 376.865561 
" style="fill:none;stroke:#ff0000;stroke-linecap:square;stroke-width:1.5;"/>
   </g>
   <g id="line2d_28">
    <path clip-path="url(#p30f36040f0)" d="M 187.889943 158.4465 
L 187.010409 153.175742 
L 184.467118 148.476152 
L 180.535676 144.857005 
L 175.642114 142.71049 
L 170.316727 142.269215 
L 165.136603 143.581001 
L 160.663088 146.503694 
L 157.380958 150.720575 
L 155.645881 155.774681 
L 155.645881 161.118319 
L 157.380958 166.172424 
L 160.663088 170.389305 
L 165.136603 173.311998 
L 170.316727 174.623784 
L 175.642114 174.18251 
L 180.535676 172.035995 
L 184.467118 168.416847 
L 187.010409 163.717258 
L 187.889943 158.4465 
" style="fill:none;stroke:#000000;stroke-dasharray:5.55,2.4;stroke-dashoffset:0;stroke-width:1.5;"/>
   </g>
   <g id="line2d_29">
    <path clip-path="url(#p30f36040f0)" d="M 176.121215 158.4465 
L 175.879344 156.997041 
L 175.179939 155.704654 
L 174.098792 154.709389 
L 172.753063 154.119097 
L 171.288581 153.997747 
L 169.864047 154.358488 
L 168.63383 155.162228 
L 167.731245 156.321871 
L 167.254099 157.711749 
L 167.254099 159.18125 
L 167.731245 160.571129 
L 168.63383 161.730771 
L 169.864047 162.534512 
L 171.288581 162.895253 
L 172.753063 162.773902 
L 174.098792 162.183611 
L 175.179939 161.188345 
L 175.879344 159.895958 
L 176.121215 158.4465 
" style="fill:none;stroke:#ff0000;stroke-linecap:square;stroke-width:1.5;"/>
   </g>
   <g id="line2d_30">
    <path clip-path="url(#p30f36040f0)" d="M 489.37054 355.770325 
L 488.491006 350.499567 
L 485.947716 345.799978 
L 482.016273 342.18083 
L 477.122712 340.034315 
L 471.797325 339.593041 
L 466.617201 340.904827 
L 462.143686 343.82752 
L 458.861555 348.044401 
L 457.126479 353.098506 
L 457.126479 358.442144 
L 458.861555 363.496249 
L 462.143686 367.713131 
L 466.617201 370.635824 
L 471.797325 371.94761 
L 477.122712 371.506335 
L 482.016273 369.35982 
L 485.947716 365.740673 
L 488.491006 361.041083 
L 489.37054 355.770325 
" style="fill:none;stroke:#000000;stroke-dasharray:5.55,2.4;stroke-dashoffset:0;stroke-width:1.5;"/>
   </g>
   <g id="line2d_31">
    <path clip-path="url(#p30f36040f0)" d="M 477.601813 355.770325 
L 477.359941 354.320867 
L 476.660536 353.02848 
L 475.579389 352.033214 
L 474.23366 351.442922 
L 472.769179 351.321572 
L 471.344645 351.682313 
L 470.114428 352.486054 
L 469.211842 353.645696 
L 468.734696 355.035575 
L 468.734696 356.505076 
L 469.211842 357.894954 
L 470.114428 359.054597 
L 471.344645 359.858337 
L 472.769179 360.219078 
L 474.23366 360.097728 
L 475.579389 359.507436 
L 476.660536 358.512171 
L 477.359941 357.219784 
L 477.601813 355.770325 
" style="fill:none;stroke:#ff0000;stroke-linecap:square;stroke-width:1.5;"/>
   </g>
   <g id="line2d_32">
    <path clip-path="url(#p30f36040f0)" d="M 319.545676 461.861521 
L 318.666142 456.590763 
L 316.122851 451.891174 
L 312.191409 448.272026 
L 307.297848 446.125511 
L 301.972461 445.684237 
L 296.792336 446.996023 
L 292.318822 449.918716 
L 289.036691 454.135597 
L 287.301615 459.189702 
L 287.301615 464.53334 
L 289.036691 469.587445 
L 292.318822 473.804327 
L 296.792336 476.72702 
L 301.972461 478.038805 
L 307.297848 477.597531 
L 312.191409 475.451016 
L 316.122851 471.831869 
L 318.666142 467.132279 
L 319.545676 461.861521 
" style="fill:none;stroke:#000000;stroke-dasharray:5.55,2.4;stroke-dashoffset:0;stroke-width:1.5;"/>
   </g>
   <g id="line2d_33">
    <path clip-path="url(#p30f36040f0)" d="M 307.776949 461.861521 
L 307.535077 460.412063 
L 306.835672 459.119676 
L 305.754525 458.12441 
L 304.408796 457.534118 
L 302.944314 457.412768 
L 301.51978 457.773509 
L 300.289564 458.57725 
L 299.386978 459.736892 
L 298.909832 461.126771 
L 298.909832 462.596271 
L 299.386978 463.98615 
L 300.289564 465.145793 
L 301.51978 465.949533 
L 302.944314 466.310274 
L 304.408796 466.188924 
L 305.754525 465.598632 
L 306.835672 464.603367 
L 307.535077 463.31098 
L 307.776949 461.861521 
" style="fill:none;stroke:#ff0000;stroke-linecap:square;stroke-width:1.5;"/>
   </g>
   <g id="line2d_34">
    <path clip-path="url(#p30f36040f0)" d="M 224.299635 223.476171 
L 223.420101 218.205413 
L 220.87681 213.505824 
L 216.945368 209.886676 
L 212.051807 207.740161 
L 206.72642 207.298887 
L 201.546295 208.610673 
L 197.072781 211.533366 
L 193.79065 215.750247 
L 192.055574 220.804352 
L 192.055574 226.14799 
L 193.79065 231.202096 
L 197.072781 235.418977 
L 201.546295 238.34167 
L 206.72642 239.653456 
L 212.051807 239.212181 
L 216.945368 237.065666 
L 220.87681 233.446519 
L 223.420101 228.746929 
L 224.299635 223.476171 
" style="fill:none;stroke:#000000;stroke-dasharray:5.55,2.4;stroke-dashoffset:0;stroke-width:1.5;"/>
   </g>
   <g id="line2d_35">
    <path clip-path="url(#p30f36040f0)" d="M 212.530908 223.476171 
L 212.289036 222.026713 
L 211.589631 220.734326 
L 210.508484 219.73906 
L 209.162755 219.148769 
L 207.698273 219.027418 
L 206.273739 219.388159 
L 205.043523 220.1919 
L 204.140937 221.351542 
L 203.663791 222.741421 
L 203.663791 224.210922 
L 204.140937 225.6008 
L 205.043523 226.760443 
L 206.273739 227.564183 
L 207.698273 227.924924 
L 209.162755 227.803574 
L 210.508484 227.213282 
L 211.589631 226.218017 
L 212.289036 224.92563 
L 212.530908 223.476171 
" style="fill:none;stroke:#ff0000;stroke-linecap:square;stroke-width:1.5;"/>
   </g>
   <g id="line2d_36">
    <path clip-path="url(#p30f36040f0)" d="M 395.021608 236.693119 
L 394.142074 231.422361 
L 391.598784 226.722771 
L 387.667341 223.103623 
L 382.77378 220.957108 
L 377.448393 220.515834 
L 372.268269 221.82762 
L 367.794754 224.750313 
L 364.512623 228.967194 
L 362.777547 234.021299 
L 362.777547 239.364938 
L 364.512623 244.419043 
L 367.794754 248.635924 
L 372.268269 251.558617 
L 377.448393 252.870403 
L 382.77378 252.429129 
L 387.667341 250.282614 
L 391.598784 246.663466 
L 394.142074 241.963876 
L 395.021608 236.693119 
" style="fill:none;stroke:#000000;stroke-dasharray:5.55,2.4;stroke-dashoffset:0;stroke-width:1.5;"/>
   </g>
   <g id="line2d_37">
    <path clip-path="url(#p30f36040f0)" d="M 383.252881 236.693119 
L 383.011009 235.24366 
L 382.311604 233.951273 
L 381.230458 232.956007 
L 379.884728 232.365716 
L 378.420247 232.244365 
L 376.995713 232.605106 
L 375.765496 233.408847 
L 374.86291 234.568489 
L 374.385764 235.958368 
L 374.385764 237.427869 
L 374.86291 238.817748 
L 375.765496 239.97739 
L 376.995713 240.781131 
L 378.420247 241.141872 
L 379.884728 241.020521 
L 381.230458 240.43023 
L 382.311604 239.434964 
L 383.011009 238.142577 
L 383.252881 236.693119 
" style="fill:none;stroke:#ff0000;stroke-linecap:square;stroke-width:1.5;"/>
   </g>
   <g id="line2d_38">
    <path clip-path="url(#p30f36040f0)" d="M 390.33515 464.587968 
L 389.455616 459.31721 
L 386.912325 454.61762 
L 382.980883 450.998473 
L 378.087322 448.851958 
L 372.761935 448.410684 
L 367.58181 449.722469 
L 363.108296 452.645162 
L 359.826165 456.862044 
L 358.091089 461.916149 
L 358.091089 467.259787 
L 359.826165 472.313892 
L 363.108296 476.530773 
L 367.58181 479.453466 
L 372.761935 480.765252 
L 378.087322 480.323978 
L 382.980883 478.177463 
L 386.912325 474.558315 
L 389.455616 469.858726 
L 390.33515 464.587968 
" style="fill:none;stroke:#000000;stroke-dasharray:5.55,2.4;stroke-dashoffset:0;stroke-width:1.5;"/>
   </g>
   <g id="line2d_39">
    <path clip-path="url(#p30f36040f0)" d="M 378.566423 464.587968 
L 378.324551 463.138509 
L 377.625146 461.846122 
L 376.543999 460.850857 
L 375.19827 460.260565 
L 373.733788 460.139215 
L 372.309254 460.499956 
L 371.079038 461.303696 
L 370.176452 462.463339 
L 369.699306 463.853218 
L 369.699306 465.322718 
L 370.176452 466.712597 
L 371.079038 467.872239 
L 372.309254 468.67598 
L 373.733788 469.036721 
L 375.19827 468.915371 
L 376.543999 468.325079 
L 377.625146 467.329813 
L 378.324551 466.037426 
L 378.566423 464.587968 
" style="fill:none;stroke:#ff0000;stroke-linecap:square;stroke-width:1.5;"/>
   </g>
   <g id="line2d_40">
    <path clip-path="url(#p30f36040f0)" d="M 413.618853 159.197778 
L 412.739319 153.92702 
L 410.196029 149.227431 
L 406.264586 145.608283 
L 401.371025 143.461768 
L 396.045638 143.020494 
L 390.865514 144.33228 
L 386.391999 147.254973 
L 383.109869 151.471854 
L 381.374792 156.525959 
L 381.374792 161.869597 
L 383.109869 166.923703 
L 386.391999 171.140584 
L 390.865514 174.063277 
L 396.045638 175.375063 
L 401.371025 174.933789 
L 406.264586 172.787274 
L 410.196029 169.168126 
L 412.739319 164.468536 
L 413.618853 159.197778 
" style="fill:none;stroke:#000000;stroke-dasharray:5.55,2.4;stroke-dashoffset:0;stroke-width:1.5;"/>
   </g>
   <g id="line2d_41">
    <path clip-path="url(#p30f36040f0)" d="M 401.850126 159.197778 
L 401.608254 157.74832 
L 400.908849 156.455933 
L 399.827703 155.460667 
L 398.481973 154.870376 
L 397.017492 154.749025 
L 395.592958 155.109766 
L 394.362741 155.913507 
L 393.460155 157.073149 
L 392.983009 158.463028 
L 392.983009 159.932529 
L 393.460155 161.322408 
L 394.362741 162.48205 
L 395.592958 163.285791 
L 397.017492 163.646532 
L 398.481973 163.525181 
L 399.827703 162.93489 
L 400.908849 161.939624 
L 401.608254 160.647237 
L 401.850126 159.197778 
" style="fill:none;stroke:#ff0000;stroke-linecap:square;stroke-width:1.5;"/>
   </g>
   <g id="line2d_42">
    <path clip-path="url(#p30f36040f0)" d="M 175.740523 230.299743 
L 174.860989 225.028985 
L 172.317698 220.329396 
L 168.386256 216.710248 
L 163.492695 214.563733 
L 158.167308 214.122459 
L 152.987183 215.434244 
L 148.513669 218.356937 
L 145.231538 222.573819 
L 143.496462 227.627924 
L 143.496462 232.971562 
L 145.231538 238.025667 
L 148.513669 242.242549 
L 152.987183 245.165242 
L 158.167308 246.477027 
L 163.492695 246.035753 
L 168.386256 243.889238 
L 172.317698 240.270091 
L 174.860989 235.570501 
L 175.740523 230.299743 
" style="fill:none;stroke:#000000;stroke-dasharray:5.55,2.4;stroke-dashoffset:0;stroke-width:1.5;"/>
   </g>
   <g id="line2d_43">
    <path clip-path="url(#p30f36040f0)" d="M 163.971796 230.299743 
L 163.729924 228.850285 
L 163.030519 227.557898 
L 161.949372 226.562632 
L 160.603643 225.97234 
L 159.139161 225.85099 
L 157.714627 226.211731 
L 156.484411 227.015472 
L 155.581825 228.175114 
L 155.104679 229.564993 
L 155.104679 231.034493 
L 155.581825 232.424372 
L 156.484411 233.584015 
L 157.714627 234.387755 
L 159.139161 234.748496 
L 160.603643 234.627146 
L 161.949372 234.036854 
L 163.030519 233.041589 
L 163.729924 231.749201 
L 163.971796 230.299743 
" style="fill:none;stroke:#ff0000;stroke-linecap:square;stroke-width:1.5;"/>
   </g>
   <g id="line2d_44">
    <path clip-path="url(#p30f36040f0)" d="M 179.369647 434.834484 
L 178.490113 429.563726 
L 175.946822 424.864136 
L 172.01538 421.244989 
L 167.121818 419.098474 
L 161.796432 418.6572 
L 156.616307 419.968985 
L 152.142792 422.891678 
L 148.860662 427.10856 
L 147.125585 432.162665 
L 147.125585 437.506303 
L 148.860662 442.560408 
L 152.142792 446.777289 
L 156.616307 449.699982 
L 161.796432 451.011768 
L 167.121818 450.570494 
L 172.01538 448.423979 
L 175.946822 444.804831 
L 178.490113 440.105242 
L 179.369647 434.834484 
" style="fill:none;stroke:#000000;stroke-dasharray:5.55,2.4;stroke-dashoffset:0;stroke-width:1.5;"/>
   </g>
   <g id="line2d_45">
    <path clip-path="url(#p30f36040f0)" d="M 167.60092 434.834484 
L 167.359048 433.385025 
L 166.659643 432.092638 
L 165.578496 431.097373 
L 164.232767 430.507081 
L 162.768285 430.385731 
L 161.343751 430.746472 
L 160.113535 431.550212 
L 159.210949 432.709855 
L 158.733803 434.099734 
L 158.733803 435.569234 
L 159.210949 436.959113 
L 160.113535 438.118755 
L 161.343751 438.922496 
L 162.768285 439.283237 
L 164.232767 439.161887 
L 165.578496 438.571595 
L 166.659643 437.576329 
L 167.359048 436.283942 
L 167.60092 434.834484 
" style="fill:none;stroke:#ff0000;stroke-linecap:square;stroke-width:1.5;"/>
   </g>
   <g id="line2d_46">
    <path clip-path="url(#p30f36040f0)" d="M 307.257496 154.399428 
L 306.377962 149.12867 
L 303.834672 144.429081 
L 299.903229 140.809933 
L 295.009668 138.663418 
L 289.684281 138.222144 
L 284.504157 139.53393 
L 280.030642 142.456623 
L 276.748511 146.673504 
L 275.013435 151.727609 
L 275.013435 157.071247 
L 276.748511 162.125353 
L 280.030642 166.342234 
L 284.504157 169.264927 
L 289.684281 170.576713 
L 295.009668 170.135438 
L 299.903229 167.988923 
L 303.834672 164.369776 
L 306.377962 159.670186 
L 307.257496 154.399428 
" style="fill:none;stroke:#000000;stroke-dasharray:5.55,2.4;stroke-dashoffset:0;stroke-width:1.5;"/>
   </g>
   <g id="line2d_47">
    <path clip-path="url(#p30f36040f0)" d="M 295.488769 154.399428 
L 295.246897 152.94997 
L 294.547492 151.657583 
L 293.466346 150.662317 
L 292.120616 150.072026 
L 290.656135 149.950675 
L 289.231601 150.311416 
L 288.001384 151.115157 
L 287.098798 152.274799 
L 286.621652 153.664678 
L 286.621652 155.134179 
L 287.098798 156.524057 
L 288.001384 157.6837 
L 289.231601 158.48744 
L 290.656135 158.848181 
L 292.120616 158.726831 
L 293.466346 158.136539 
L 294.547492 157.141274 
L 295.246897 155.848887 
L 295.488769 154.399428 
" style="fill:none;stroke:#ff0000;stroke-linecap:square;stroke-width:1.5;"/>
   </g>
   <g id="line2d_48">
    <path clip-path="url(#p30f36040f0)" d="M 142.530419 338.968364 
L 141.650885 333.697606 
L 139.107594 328.998017 
L 135.176152 325.378869 
L 130.28259 323.232354 
L 124.957203 322.79108 
L 119.777079 324.102865 
L 115.303564 327.025558 
L 112.021434 331.24244 
L 110.286357 336.296545 
L 110.286357 341.640183 
L 112.021434 346.694288 
L 115.303564 350.91117 
L 119.777079 353.833863 
L 124.957203 355.145648 
L 130.28259 354.704374 
L 135.176152 352.557859 
L 139.107594 348.938712 
L 141.650885 344.239122 
L 142.530419 338.968364 
" style="fill:none;stroke:#000000;stroke-dasharray:5.55,2.4;stroke-dashoffset:0;stroke-width:1.5;"/>
   </g>
   <g id="line2d_49">
    <path clip-path="url(#p30f36040f0)" d="M 130.761691 338.968364 
L 130.51982 337.518906 
L 129.820415 336.226519 
L 128.739268 335.231253 
L 127.393539 334.640961 
L 125.929057 334.519611 
L 124.504523 334.880352 
L 123.274306 335.684093 
L 122.371721 336.843735 
L 121.894574 338.233614 
L 121.894574 339.703114 
L 122.371721 341.092993 
L 123.274306 342.252636 
L 124.504523 343.056376 
L 125.929057 343.417117 
L 127.393539 343.295767 
L 128.739268 342.705475 
L 129.820415 341.71021 
L 130.51982 340.417822 
L 130.761691 338.968364 
" style="fill:none;stroke:#ff0000;stroke-linecap:square;stroke-width:1.5;"/>
   </g>
   <g id="line2d_50">
    <path clip-path="url(#p30f36040f0)" d="M 324.545492 286.960205 
L 323.665958 281.689448 
L 321.122667 276.989858 
L 317.191225 273.37071 
L 312.297663 271.224195 
L 306.972276 270.782921 
L 301.792152 272.094707 
L 297.318637 275.0174 
L 294.036507 279.234281 
L 292.30143 284.288386 
L 292.30143 289.632025 
L 294.036507 294.68613 
L 297.318637 298.903011 
L 301.792152 301.825704 
L 306.972276 303.13749 
L 312.297663 302.696216 
L 317.191225 300.549701 
L 321.122667 296.930553 
L 323.665958 292.230963 
L 324.545492 286.960205 
" style="fill:none;stroke:#000000;stroke-dasharray:5.55,2.4;stroke-dashoffset:0;stroke-width:1.5;"/>
   </g>
   <g id="line2d_51">
    <path clip-path="url(#p30f36040f0)" d="M 312.776764 286.960205 
L 312.534893 285.510747 
L 311.835488 284.21836 
L 310.754341 283.223094 
L 309.408612 282.632803 
L 307.94413 282.511452 
L 306.519596 282.872193 
L 305.289379 283.675934 
L 304.386794 284.835576 
L 303.909648 286.225455 
L 303.909648 287.694956 
L 304.386794 289.084835 
L 305.289379 290.244477 
L 306.519596 291.048218 
L 307.94413 291.408959 
L 309.408612 291.287608 
L 310.754341 290.697317 
L 311.835488 289.702051 
L 312.534893 288.409664 
L 312.776764 286.960205 
" style="fill:none;stroke:#ff0000;stroke-linecap:square;stroke-width:1.5;"/>
   </g>
   <g id="line2d_52">
    <path clip-path="url(#p30f36040f0)" d="M 166.528229 358.362808 
L 165.648695 353.09205 
L 163.105404 348.39246 
L 159.173962 344.773312 
L 154.2804 342.626797 
L 148.955013 342.185523 
L 143.774889 343.497309 
L 139.301374 346.420002 
L 136.019244 350.636883 
L 134.284167 355.690988 
L 134.284167 361.034627 
L 136.019244 366.088732 
L 139.301374 370.305613 
L 143.774889 373.228306 
L 148.955013 374.540092 
L 154.2804 374.098818 
L 159.173962 371.952303 
L 163.105404 368.333155 
L 165.648695 363.633565 
L 166.528229 358.362808 
" style="fill:none;stroke:#000000;stroke-dasharray:5.55,2.4;stroke-dashoffset:0;stroke-width:1.5;"/>
   </g>
   <g id="line2d_53">
    <path clip-path="url(#p30f36040f0)" d="M 154.759501 358.362808 
L 154.51763 356.913349 
L 153.818225 355.620962 
L 152.737078 354.625696 
L 151.391349 354.035405 
L 149.926867 353.914054 
L 148.502333 354.274795 
L 147.272116 355.078536 
L 146.369531 356.238178 
L 145.892385 357.628057 
L 145.892385 359.097558 
L 146.369531 360.487437 
L 147.272116 361.647079 
L 148.502333 362.45082 
L 149.926867 362.811561 
L 151.391349 362.69021 
L 152.737078 362.099919 
L 153.818225 361.104653 
L 154.51763 359.812266 
L 154.759501 358.362808 
" style="fill:none;stroke:#ff0000;stroke-linecap:square;stroke-width:1.5;"/>
   </g>
   <g id="line2d_54">
    <path clip-path="url(#p30f36040f0)" d="M 298.45574 125.483758 
L 297.576206 120.213 
L 295.032915 115.513411 
L 291.101473 111.894263 
L 286.207912 109.747748 
L 280.882525 109.306474 
L 275.702401 110.61826 
L 271.228886 113.540953 
L 267.946755 117.757834 
L 266.211679 122.811939 
L 266.211679 128.155577 
L 267.946755 133.209683 
L 271.228886 137.426564 
L 275.702401 140.349257 
L 280.882525 141.661043 
L 286.207912 141.219769 
L 291.101473 139.073253 
L 295.032915 135.454106 
L 297.576206 130.754516 
L 298.45574 125.483758 
" style="fill:none;stroke:#000000;stroke-dasharray:5.55,2.4;stroke-dashoffset:0;stroke-width:1.5;"/>
   </g>
   <g id="line2d_55">
    <path clip-path="url(#p30f36040f0)" d="M 286.687013 125.483758 
L 286.445141 124.0343 
L 285.745736 122.741913 
L 284.664589 121.746647 
L 283.31886 121.156356 
L 281.854379 121.035005 
L 280.429844 121.395746 
L 279.199628 122.199487 
L 278.297042 123.359129 
L 277.819896 124.749008 
L 277.819896 126.218509 
L 278.297042 127.608388 
L 279.199628 128.76803 
L 280.429844 129.571771 
L 281.854379 129.932512 
L 283.31886 129.811161 
L 284.664589 129.22087 
L 285.745736 128.225604 
L 286.445141 126.933217 
L 286.687013 125.483758 
" style="fill:none;stroke:#ff0000;stroke-linecap:square;stroke-width:1.5;"/>
   </g>
   <g id="line2d_56">
    <path clip-path="url(#p30f36040f0)" d="M 159.298855 251.656522 
L 158.419321 246.385764 
L 155.876031 241.686174 
L 151.944588 238.067027 
L 147.051027 235.920512 
L 141.72564 235.479237 
L 136.545516 236.791023 
L 132.072001 239.713716 
L 128.78987 243.930597 
L 127.054794 248.984703 
L 127.054794 254.328341 
L 128.78987 259.382446 
L 132.072001 263.599327 
L 136.545516 266.52202 
L 141.72564 267.833806 
L 147.051027 267.392532 
L 151.944588 265.246017 
L 155.876031 261.626869 
L 158.419321 256.92728 
L 159.298855 251.656522 
" style="fill:none;stroke:#000000;stroke-dasharray:5.55,2.4;stroke-dashoffset:0;stroke-width:1.5;"/>
   </g>
   <g id="line2d_57">
    <path clip-path="url(#p30f36040f0)" d="M 147.530128 251.656522 
L 147.288256 250.207063 
L 146.588851 248.914676 
L 145.507705 247.919411 
L 144.161975 247.329119 
L 142.697494 247.207768 
L 141.27296 247.56851 
L 140.042743 248.37225 
L 139.140157 249.531893 
L 138.663011 250.921771 
L 138.663011 252.391272 
L 139.140157 253.781151 
L 140.042743 254.940793 
L 141.27296 255.744534 
L 142.697494 256.105275 
L 144.161975 255.983924 
L 145.507705 255.393633 
L 146.588851 254.398367 
L 147.288256 253.10598 
L 147.530128 251.656522 
" style="fill:none;stroke:#ff0000;stroke-linecap:square;stroke-width:1.5;"/>
   </g>
   <g id="line2d_58">
    <path clip-path="url(#p30f36040f0)" d="M 334.788489 126.463177 
L 333.908955 121.192419 
L 331.365664 116.49283 
L 327.434222 112.873682 
L 322.54066 110.727167 
L 317.215273 110.285893 
L 312.035149 111.597679 
L 307.561634 114.520372 
L 304.279504 118.737253 
L 302.544427 123.791358 
L 302.544427 129.134996 
L 304.279504 134.189101 
L 307.561634 138.405983 
L 312.035149 141.328676 
L 317.215273 142.640462 
L 322.54066 142.199187 
L 327.434222 140.052672 
L 331.365664 136.433525 
L 333.908955 131.733935 
L 334.788489 126.463177 
" style="fill:none;stroke:#000000;stroke-dasharray:5.55,2.4;stroke-dashoffset:0;stroke-width:1.5;"/>
   </g>
   <g id="line2d_59">
    <path clip-path="url(#p30f36040f0)" d="M 323.019761 126.463177 
L 322.777889 125.013719 
L 322.078485 123.721332 
L 320.997338 122.726066 
L 319.651608 122.135774 
L 318.187127 122.014424 
L 316.762593 122.375165 
L 315.532376 123.178906 
L 314.62979 124.338548 
L 314.152644 125.728427 
L 314.152644 127.197927 
L 314.62979 128.587806 
L 315.532376 129.747449 
L 316.762593 130.551189 
L 318.187127 130.91193 
L 319.651608 130.79058 
L 320.997338 130.200288 
L 322.078485 129.205023 
L 322.777889 127.912636 
L 323.019761 126.463177 
" style="fill:none;stroke:#ff0000;stroke-linecap:square;stroke-width:1.5;"/>
   </g>
   <g id="line2d_60">
    <path clip-path="url(#p30f36040f0)" d="M 417.416536 224.600474 
L 416.537002 219.329716 
L 413.993711 214.630126 
L 410.062269 211.010979 
L 405.168707 208.864464 
L 399.84332 208.423189 
L 394.663196 209.734975 
L 390.189681 212.657668 
L 386.907551 216.874549 
L 385.172474 221.928655 
L 385.172474 227.272293 
L 386.907551 232.326398 
L 390.189681 236.543279 
L 394.663196 239.465972 
L 399.84332 240.777758 
L 405.168707 240.336484 
L 410.062269 238.189969 
L 413.993711 234.570821 
L 416.537002 229.871232 
L 417.416536 224.600474 
" style="fill:none;stroke:#000000;stroke-dasharray:5.55,2.4;stroke-dashoffset:0;stroke-width:1.5;"/>
   </g>
   <g id="line2d_61">
    <path clip-path="url(#p30f36040f0)" d="M 405.647808 224.600474 
L 405.405936 223.151015 
L 404.706531 221.858628 
L 403.625385 220.863363 
L 402.279655 220.273071 
L 400.815174 220.151721 
L 399.39064 220.512462 
L 398.160423 221.316202 
L 397.257837 222.475845 
L 396.780691 223.865723 
L 396.780691 225.335224 
L 397.257837 226.725103 
L 398.160423 227.884745 
L 399.39064 228.688486 
L 400.815174 229.049227 
L 402.279655 228.927876 
L 403.625385 228.337585 
L 404.706531 227.342319 
L 405.405936 226.049932 
L 405.647808 224.600474 
" style="fill:none;stroke:#ff0000;stroke-linecap:square;stroke-width:1.5;"/>
   </g>
   <g id="line2d_62">
    <path clip-path="url(#p30f36040f0)" d="M 92.290909 493.789091 
L 92.290909 87.970909 
" style="fill:none;stroke:#000000;stroke-linecap:square;stroke-width:4;"/>
   </g>
   <g id="line2d_63">
    <path clip-path="url(#p30f36040f0)" d="M 92.290909 87.970909 
L 498.109091 87.970909 
" style="fill:none;stroke:#000000;stroke-linecap:square;stroke-width:4;"/>
   </g>
   <g id="line2d_64">
    <path clip-path="url(#p30f36040f0)" d="M 498.109091 87.970909 
L 498.109091 493.789091 
" style="fill:none;stroke:#000000;stroke-linecap:square;stroke-width:4;"/>
   </g>
   <g id="line2d_65">
    <path clip-path="url(#p30f36040f0)" d="M 498.109091 493.789091 
L 92.290909 493.789091 
" style="fill:none;stroke:#000000;stroke-linecap:square;stroke-width:4;"/>
   </g>
   <g id="text_1">
    <!-- 1 -->
    <defs>
     <path d="M 14.203125 0 
L 14.203125 5.171875 
L 26.90625 5.171875 
L 26.90625 65.828125 
L 12.203125 56.296875 
L 12.203125 62.703125 
L 29.984375 74.21875 
L 36.71875 74.21875 
L 36.71875 5.171875 
L 49.421875 5.171875 
L 49.421875 0 
z
" id="DejaVuSerif-31"/>
    </defs>
    <g transform="translate(217.000735 449.609886)scale(0.1 -0.1)">
     <use xlink:href="#DejaVuSerif-31"/>
    </g>
   </g>
   <g id="text_2">
    <!-- 1 -->
    <g transform="translate(171.444546 295.367929)scale(0.1 -0.1)">
     <use xlink:href="#DejaVuSerif-31"/>
    </g>
   </g>
   <g id="text_3">
    <!-- 2 -->
    <defs>
     <path d="M 12.796875 55.515625 
L 7.328125 55.515625 
L 7.328125 68.5 
Q 12.546875 71.296875 17.84375 72.75 
Q 23.140625 74.21875 28.21875 74.21875 
Q 39.59375 74.21875 46.1875 68.703125 
Q 52.78125 63.1875 52.78125 53.71875 
Q 52.78125 43.015625 37.84375 28.125 
Q 36.671875 27 36.078125 26.421875 
L 17.671875 8.015625 
L 48.09375 8.015625 
L 48.09375 17 
L 53.8125 17 
L 53.8125 0 
L 6.78125 0 
L 6.78125 5.328125 
L 28.90625 27.390625 
Q 36.234375 34.71875 39.359375 40.84375 
Q 42.484375 46.96875 42.484375 53.71875 
Q 42.484375 61.078125 38.640625 65.234375 
Q 34.8125 69.390625 28.078125 69.390625 
Q 21.09375 69.390625 17.28125 65.921875 
Q 13.484375 62.453125 12.796875 55.515625 
z
" id="DejaVuSerif-32"/>
    </defs>
    <g transform="translate(334.362138 249.150846)scale(0.1 -0.1)">
     <use xlink:href="#DejaVuSerif-32"/>
    </g>
   </g>
   <g id="text_4">
    <!-- 2 -->
    <g transform="translate(122.629781 399.073405)scale(0.1 -0.1)">
     <use xlink:href="#DejaVuSerif-32"/>
    </g>
   </g>
   <g id="text_5">
    <!-- 3 -->
    <defs>
     <path d="M 9.71875 69.828125 
Q 15.4375 71.96875 20.671875 73.09375 
Q 25.921875 74.21875 30.515625 74.21875 
Q 41.21875 74.21875 47.21875 69.59375 
Q 53.21875 64.984375 53.21875 56.78125 
Q 53.21875 50.203125 49.0625 45.78125 
Q 44.921875 41.359375 37.3125 39.796875 
Q 46.296875 38.53125 51.25 33.28125 
Q 56.203125 28.03125 56.203125 19.671875 
Q 56.203125 9.46875 49.34375 4.015625 
Q 42.484375 -1.421875 29.59375 -1.421875 
Q 23.875 -1.421875 18.421875 -0.1875 
Q 12.984375 1.03125 7.625 3.515625 
L 7.625 17.671875 
L 13.09375 17.671875 
Q 13.578125 10.640625 17.828125 7.03125 
Q 22.078125 3.421875 29.78125 3.421875 
Q 37.25 3.421875 41.578125 7.734375 
Q 45.90625 12.0625 45.90625 19.578125 
Q 45.90625 28.171875 41.453125 32.59375 
Q 37.015625 37.015625 28.421875 37.015625 
L 23.78125 37.015625 
L 23.78125 42 
L 26.21875 42 
Q 34.765625 42 39.03125 45.53125 
Q 43.3125 49.078125 43.3125 56.203125 
Q 43.3125 62.59375 39.796875 65.984375 
Q 36.28125 69.390625 29.6875 69.390625 
Q 23.09375 69.390625 19.453125 66.265625 
Q 15.828125 63.140625 15.1875 56.984375 
L 9.71875 56.984375 
z
" id="DejaVuSerif-33"/>
    </defs>
    <g transform="translate(380.854855 395.556768)scale(0.1 -0.1)">
     <use xlink:href="#DejaVuSerif-33"/>
    </g>
   </g>
   <g id="text_6">
    <!-- 3 -->
    <g transform="translate(447.534981 445.303364)scale(0.1 -0.1)">
     <use xlink:href="#DejaVuSerif-33"/>
    </g>
   </g>
   <g id="text_7">
    <!-- 4 -->
    <defs>
     <path d="M 34.90625 24.703125 
L 34.90625 63.484375 
L 10.015625 24.703125 
z
M 56.390625 0 
L 23.1875 0 
L 23.1875 5.171875 
L 34.90625 5.171875 
L 34.90625 19.484375 
L 3.078125 19.484375 
L 3.078125 24.8125 
L 35.015625 74.21875 
L 44.671875 74.21875 
L 44.671875 24.703125 
L 58.59375 24.703125 
L 58.59375 19.484375 
L 44.671875 19.484375 
L 44.671875 5.171875 
L 56.390625 5.171875 
z
" id="DejaVuSerif-34"/>
    </defs>
    <g transform="translate(387.786186 312.850966)scale(0.1 -0.1)">
     <use xlink:href="#DejaVuSerif-34"/>
    </g>
   </g>
   <g id="text_8">
    <!-- 4 -->
    <g transform="translate(311.457771 191.741223)scale(0.1 -0.1)">
     <use xlink:href="#DejaVuSerif-34"/>
    </g>
   </g>
   <g id="text_9">
    <!-- 5 -->
    <defs>
     <path d="M 50.296875 72.90625 
L 50.296875 64.890625 
L 16.890625 64.890625 
L 16.890625 44 
Q 19.4375 45.75 22.828125 46.625 
Q 26.21875 47.515625 30.421875 47.515625 
Q 42.234375 47.515625 49.0625 40.96875 
Q 55.90625 34.421875 55.90625 23.09375 
Q 55.90625 11.53125 49 5.046875 
Q 42.09375 -1.421875 29.59375 -1.421875 
Q 24.5625 -1.421875 19.28125 -0.1875 
Q 14.015625 1.03125 8.5 3.515625 
L 8.5 17.671875 
L 14.015625 17.671875 
Q 14.453125 10.75 18.421875 7.078125 
Q 22.40625 3.421875 29.59375 3.421875 
Q 37.3125 3.421875 41.453125 8.5 
Q 45.609375 13.578125 45.609375 23.09375 
Q 45.609375 32.5625 41.484375 37.609375 
Q 37.359375 42.671875 29.59375 42.671875 
Q 25.203125 42.671875 21.84375 41.109375 
Q 18.5 39.546875 15.921875 36.28125 
L 11.71875 36.28125 
L 11.71875 72.90625 
z
" id="DejaVuSerif-35"/>
    </defs>
    <g transform="translate(116.690139 140.735273)scale(0.1 -0.1)">
     <use xlink:href="#DejaVuSerif-35"/>
    </g>
   </g>
   <g id="text_10">
    <!-- 5 -->
    <g transform="translate(235.714172 122.626549)scale(0.1 -0.1)">
     <use xlink:href="#DejaVuSerif-35"/>
    </g>
   </g>
   <g id="text_11">
    <!-- 6 -->
    <defs>
     <path d="M 32.71875 3.421875 
Q 39.59375 3.421875 43.296875 8.46875 
Q 47.015625 13.53125 47.015625 23 
Q 47.015625 32.46875 43.296875 37.515625 
Q 39.59375 42.578125 32.71875 42.578125 
Q 25.734375 42.578125 22.0625 37.6875 
Q 18.40625 32.8125 18.40625 23.578125 
Q 18.40625 13.875 22.109375 8.640625 
Q 25.828125 3.421875 32.71875 3.421875 
z
M 16.796875 40.140625 
Q 20.125 43.796875 24.3125 45.59375 
Q 28.515625 47.40625 33.796875 47.40625 
Q 44.671875 47.40625 51 40.859375 
Q 57.328125 34.328125 57.328125 23 
Q 57.328125 11.921875 50.515625 5.25 
Q 43.703125 -1.421875 32.328125 -1.421875 
Q 19.96875 -1.421875 13.328125 7.78125 
Q 6.6875 17 6.6875 34.078125 
Q 6.6875 53.21875 14.546875 63.71875 
Q 22.40625 74.21875 36.71875 74.21875 
Q 40.578125 74.21875 44.828125 73.484375 
Q 49.078125 72.75 53.515625 71.296875 
L 53.515625 59.28125 
L 48 59.28125 
Q 47.40625 64.203125 44.234375 66.796875 
Q 41.0625 69.390625 35.6875 69.390625 
Q 26.21875 69.390625 21.578125 62.203125 
Q 16.9375 55.03125 16.796875 40.140625 
z
" id="DejaVuSerif-36"/>
    </defs>
    <g transform="translate(243.556609 271.921875)scale(0.1 -0.1)">
     <use xlink:href="#DejaVuSerif-36"/>
    </g>
   </g>
   <g id="text_12">
    <!-- 6 -->
    <g transform="translate(204.139017 180.292774)scale(0.1 -0.1)">
     <use xlink:href="#DejaVuSerif-36"/>
    </g>
   </g>
   <g id="text_13">
    <!-- 7 -->
    <defs>
     <path d="M 56.390625 67.921875 
L 27.875 0 
L 20.609375 0 
L 47.796875 64.890625 
L 14.109375 64.890625 
L 14.109375 55.90625 
L 8.40625 55.90625 
L 8.40625 72.90625 
L 56.390625 72.90625 
z
" id="DejaVuSerif-37"/>
    </defs>
    <g transform="translate(265.771702 196.910064)scale(0.1 -0.1)">
     <use xlink:href="#DejaVuSerif-37"/>
    </g>
   </g>
   <g id="text_14">
    <!-- 7 -->
    <g transform="translate(323.316948 352.315449)scale(0.1 -0.1)">
     <use xlink:href="#DejaVuSerif-37"/>
    </g>
   </g>
   <g id="text_15">
    <!-- 8 -->
    <defs>
     <path d="M 46.578125 19.921875 
Q 46.578125 27.734375 42.6875 32.046875 
Q 38.8125 36.375 31.78125 36.375 
Q 24.75 36.375 20.875 32.046875 
Q 17 27.734375 17 19.921875 
Q 17 12.0625 20.875 7.734375 
Q 24.75 3.421875 31.78125 3.421875 
Q 38.8125 3.421875 42.6875 7.734375 
Q 46.578125 12.0625 46.578125 19.921875 
z
M 44.578125 55.328125 
Q 44.578125 61.96875 41.203125 65.671875 
Q 37.84375 69.390625 31.78125 69.390625 
Q 25.78125 69.390625 22.390625 65.671875 
Q 19 61.96875 19 55.328125 
Q 19 48.640625 22.390625 44.921875 
Q 25.78125 41.21875 31.78125 41.21875 
Q 37.84375 41.21875 41.203125 44.921875 
Q 44.578125 48.640625 44.578125 55.328125 
z
M 39.3125 38.8125 
Q 47.609375 37.703125 52.25 32.6875 
Q 56.890625 27.6875 56.890625 19.921875 
Q 56.890625 9.671875 50.390625 4.125 
Q 43.890625 -1.421875 31.78125 -1.421875 
Q 19.734375 -1.421875 13.203125 4.125 
Q 6.6875 9.671875 6.6875 19.921875 
Q 6.6875 27.6875 11.328125 32.6875 
Q 15.96875 37.703125 24.3125 38.8125 
Q 16.9375 40.140625 13 44.40625 
Q 9.078125 48.6875 9.078125 55.328125 
Q 9.078125 64.109375 15.125 69.15625 
Q 21.1875 74.21875 31.78125 74.21875 
Q 42.390625 74.21875 48.4375 69.15625 
Q 54.5 64.109375 54.5 55.328125 
Q 54.5 48.6875 50.5625 44.40625 
Q 46.625 40.140625 39.3125 38.8125 
z
" id="DejaVuSerif-38"/>
    </defs>
    <g transform="translate(443.422221 307.888342)scale(0.1 -0.1)">
     <use xlink:href="#DejaVuSerif-38"/>
    </g>
   </g>
   <g id="text_16">
    <!-- 8 -->
    <g transform="translate(323.177022 428.07758)scale(0.1 -0.1)">
     <use xlink:href="#DejaVuSerif-38"/>
    </g>
   </g>
  </g>
 </g>
 <defs>
  <clipPath id="p30f36040f0">
   <rect height="443.52" width="446.4" x="72" y="69.12"/>
  </clipPath>
 </defs>
</svg>
