<?xml version="1.0" encoding="utf-8" standalone="no"?>
<!DOCTYPE svg PUBLIC "-//W3C//DTD SVG 1.1//EN"
  "http://www.w3.org/Graphics/SVG/1.1/DTD/svg11.dtd">
<!-- Created with matplotlib (http://matplotlib.org/) -->
<svg height="576pt" version="1.1" viewBox="0 0 576 576" width="576pt" xmlns="http://www.w3.org/2000/svg" xmlns:xlink="http://www.w3.org/1999/xlink">
 <defs>
  <style type="text/css">
*{stroke-linecap:butt;stroke-linejoin:round;}
  </style>
 </defs>
 <g id="figure_1">
  <g id="patch_1">
   <path d="M 0 576 
L 576 576 
L 576 0 
L 0 0 
z
" style="fill:#ffffff;"/>
  </g>
  <g id="axes_1">
   <g id="patch_2">
    <path d="M 72 512.64 
L 518.4 512.64 
L 518.4 69.12 
L 72 69.12 
z
" style="fill:#ffffff;"/>
   </g>
   <g id="matplotlib.axis_1">
    <g id="xtick_1">
     <g id="line2d_1">
      <defs>
       <path d="M 0 0 
L 0 3.5 
" id="m85860ba041" style="stroke:#000000;stroke-width:0.8;"/>
      </defs>
      <g>
       <use style="stroke:#000000;stroke-width:0.8;" x="112.581818" xlink:href="#m85860ba041" y="512.64"/>
      </g>
     </g>
     <g id="text_1">
      <!-- 0 -->
      <defs>
       <path d="M 31.78125 66.40625 
Q 24.171875 66.40625 20.328125 58.90625 
Q 16.5 51.421875 16.5 36.375 
Q 16.5 21.390625 20.328125 13.890625 
Q 24.171875 6.390625 31.78125 6.390625 
Q 39.453125 6.390625 43.28125 13.890625 
Q 47.125 21.390625 47.125 36.375 
Q 47.125 51.421875 43.28125 58.90625 
Q 39.453125 66.40625 31.78125 66.40625 
z
M 31.78125 74.21875 
Q 44.046875 74.21875 50.515625 64.515625 
Q 56.984375 54.828125 56.984375 36.375 
Q 56.984375 17.96875 50.515625 8.265625 
Q 44.046875 -1.421875 31.78125 -1.421875 
Q 19.53125 -1.421875 13.0625 8.265625 
Q 6.59375 17.96875 6.59375 36.375 
Q 6.59375 54.828125 13.0625 64.515625 
Q 19.53125 74.21875 31.78125 74.21875 
z
" id="DejaVuSans-30"/>
      </defs>
      <g transform="translate(109.400568 527.238438)scale(0.1 -0.1)">
       <use xlink:href="#DejaVuSans-30"/>
      </g>
     </g>
    </g>
    <g id="xtick_2">
     <g id="line2d_2">
      <g>
       <use style="stroke:#000000;stroke-width:0.8;" x="193.745455" xlink:href="#m85860ba041" y="512.64"/>
      </g>
     </g>
     <g id="text_2">
      <!-- 2 -->
      <defs>
       <path d="M 19.1875 8.296875 
L 53.609375 8.296875 
L 53.609375 0 
L 7.328125 0 
L 7.328125 8.296875 
Q 12.9375 14.109375 22.625 23.890625 
Q 32.328125 33.6875 34.8125 36.53125 
Q 39.546875 41.84375 41.421875 45.53125 
Q 43.3125 49.21875 43.3125 52.78125 
Q 43.3125 58.59375 39.234375 62.25 
Q 35.15625 65.921875 28.609375 65.921875 
Q 23.96875 65.921875 18.8125 64.3125 
Q 13.671875 62.703125 7.8125 59.421875 
L 7.8125 69.390625 
Q 13.765625 71.78125 18.9375 73 
Q 24.125 74.21875 28.421875 74.21875 
Q 39.75 74.21875 46.484375 68.546875 
Q 53.21875 62.890625 53.21875 53.421875 
Q 53.21875 48.921875 51.53125 44.890625 
Q 49.859375 40.875 45.40625 35.40625 
Q 44.1875 33.984375 37.640625 27.21875 
Q 31.109375 20.453125 19.1875 8.296875 
z
" id="DejaVuSans-32"/>
      </defs>
      <g transform="translate(190.564205 527.238438)scale(0.1 -0.1)">
       <use xlink:href="#DejaVuSans-32"/>
      </g>
     </g>
    </g>
    <g id="xtick_3">
     <g id="line2d_3">
      <g>
       <use style="stroke:#000000;stroke-width:0.8;" x="274.909091" xlink:href="#m85860ba041" y="512.64"/>
      </g>
     </g>
     <g id="text_3">
      <!-- 4 -->
      <defs>
       <path d="M 37.796875 64.3125 
L 12.890625 25.390625 
L 37.796875 25.390625 
z
M 35.203125 72.90625 
L 47.609375 72.90625 
L 47.609375 25.390625 
L 58.015625 25.390625 
L 58.015625 17.1875 
L 47.609375 17.1875 
L 47.609375 0 
L 37.796875 0 
L 37.796875 17.1875 
L 4.890625 17.1875 
L 4.890625 26.703125 
z
" id="DejaVuSans-34"/>
      </defs>
      <g transform="translate(271.727841 527.238438)scale(0.1 -0.1)">
       <use xlink:href="#DejaVuSans-34"/>
      </g>
     </g>
    </g>
    <g id="xtick_4">
     <g id="line2d_4">
      <g>
       <use style="stroke:#000000;stroke-width:0.8;" x="356.072727" xlink:href="#m85860ba041" y="512.64"/>
      </g>
     </g>
     <g id="text_4">
      <!-- 6 -->
      <defs>
       <path d="M 33.015625 40.375 
Q 26.375 40.375 22.484375 35.828125 
Q 18.609375 31.296875 18.609375 23.390625 
Q 18.609375 15.53125 22.484375 10.953125 
Q 26.375 6.390625 33.015625 6.390625 
Q 39.65625 6.390625 43.53125 10.953125 
Q 47.40625 15.53125 47.40625 23.390625 
Q 47.40625 31.296875 43.53125 35.828125 
Q 39.65625 40.375 33.015625 40.375 
z
M 52.59375 71.296875 
L 52.59375 62.3125 
Q 48.875 64.0625 45.09375 64.984375 
Q 41.3125 65.921875 37.59375 65.921875 
Q 27.828125 65.921875 22.671875 59.328125 
Q 17.53125 52.734375 16.796875 39.40625 
Q 19.671875 43.65625 24.015625 45.921875 
Q 28.375 48.1875 33.59375 48.1875 
Q 44.578125 48.1875 50.953125 41.515625 
Q 57.328125 34.859375 57.328125 23.390625 
Q 57.328125 12.15625 50.6875 5.359375 
Q 44.046875 -1.421875 33.015625 -1.421875 
Q 20.359375 -1.421875 13.671875 8.265625 
Q 6.984375 17.96875 6.984375 36.375 
Q 6.984375 53.65625 15.1875 63.9375 
Q 23.390625 74.21875 37.203125 74.21875 
Q 40.921875 74.21875 44.703125 73.484375 
Q 48.484375 72.75 52.59375 71.296875 
z
" id="DejaVuSans-36"/>
      </defs>
      <g transform="translate(352.891477 527.238438)scale(0.1 -0.1)">
       <use xlink:href="#DejaVuSans-36"/>
      </g>
     </g>
    </g>
    <g id="xtick_5">
     <g id="line2d_5">
      <g>
       <use style="stroke:#000000;stroke-width:0.8;" x="437.236364" xlink:href="#m85860ba041" y="512.64"/>
      </g>
     </g>
     <g id="text_5">
      <!-- 8 -->
      <defs>
       <path d="M 31.78125 34.625 
Q 24.75 34.625 20.71875 30.859375 
Q 16.703125 27.09375 16.703125 20.515625 
Q 16.703125 13.921875 20.71875 10.15625 
Q 24.75 6.390625 31.78125 6.390625 
Q 38.8125 6.390625 42.859375 10.171875 
Q 46.921875 13.96875 46.921875 20.515625 
Q 46.921875 27.09375 42.890625 30.859375 
Q 38.875 34.625 31.78125 34.625 
z
M 21.921875 38.8125 
Q 15.578125 40.375 12.03125 44.71875 
Q 8.5 49.078125 8.5 55.328125 
Q 8.5 64.0625 14.71875 69.140625 
Q 20.953125 74.21875 31.78125 74.21875 
Q 42.671875 74.21875 48.875 69.140625 
Q 55.078125 64.0625 55.078125 55.328125 
Q 55.078125 49.078125 51.53125 44.71875 
Q 48 40.375 41.703125 38.8125 
Q 48.828125 37.15625 52.796875 32.3125 
Q 56.78125 27.484375 56.78125 20.515625 
Q 56.78125 9.90625 50.3125 4.234375 
Q 43.84375 -1.421875 31.78125 -1.421875 
Q 19.734375 -1.421875 13.25 4.234375 
Q 6.78125 9.90625 6.78125 20.515625 
Q 6.78125 27.484375 10.78125 32.3125 
Q 14.796875 37.15625 21.921875 38.8125 
z
M 18.3125 54.390625 
Q 18.3125 48.734375 21.84375 45.5625 
Q 25.390625 42.390625 31.78125 42.390625 
Q 38.140625 42.390625 41.71875 45.5625 
Q 45.3125 48.734375 45.3125 54.390625 
Q 45.3125 60.0625 41.71875 63.234375 
Q 38.140625 66.40625 31.78125 66.40625 
Q 25.390625 66.40625 21.84375 63.234375 
Q 18.3125 60.0625 18.3125 54.390625 
z
" id="DejaVuSans-38"/>
      </defs>
      <g transform="translate(434.055114 527.238438)scale(0.1 -0.1)">
       <use xlink:href="#DejaVuSans-38"/>
      </g>
     </g>
    </g>
    <g id="xtick_6">
     <g id="line2d_6">
      <g>
       <use style="stroke:#000000;stroke-width:0.8;" x="518.4" xlink:href="#m85860ba041" y="512.64"/>
      </g>
     </g>
     <g id="text_6">
      <!-- 10 -->
      <defs>
       <path d="M 12.40625 8.296875 
L 28.515625 8.296875 
L 28.515625 63.921875 
L 10.984375 60.40625 
L 10.984375 69.390625 
L 28.421875 72.90625 
L 38.28125 72.90625 
L 38.28125 8.296875 
L 54.390625 8.296875 
L 54.390625 0 
L 12.40625 0 
z
" id="DejaVuSans-31"/>
      </defs>
      <g transform="translate(512.0375 527.238438)scale(0.1 -0.1)">
       <use xlink:href="#DejaVuSans-31"/>
       <use x="63.623047" xlink:href="#DejaVuSans-30"/>
      </g>
     </g>
    </g>
   </g>
   <g id="matplotlib.axis_2">
    <g id="ytick_1">
     <g id="line2d_7">
      <defs>
       <path d="M 0 0 
L -3.5 0 
" id="mb688be5527" style="stroke:#000000;stroke-width:0.8;"/>
      </defs>
      <g>
       <use style="stroke:#000000;stroke-width:0.8;" x="72" xlink:href="#mb688be5527" y="473.498182"/>
      </g>
     </g>
     <g id="text_7">
      <!-- 0 -->
      <g transform="translate(58.6375 477.297401)scale(0.1 -0.1)">
       <use xlink:href="#DejaVuSans-30"/>
      </g>
     </g>
    </g>
    <g id="ytick_2">
     <g id="line2d_8">
      <g>
       <use style="stroke:#000000;stroke-width:0.8;" x="72" xlink:href="#mb688be5527" y="392.334545"/>
      </g>
     </g>
     <g id="text_8">
      <!-- 2 -->
      <g transform="translate(58.6375 396.133764)scale(0.1 -0.1)">
       <use xlink:href="#DejaVuSans-32"/>
      </g>
     </g>
    </g>
    <g id="ytick_3">
     <g id="line2d_9">
      <g>
       <use style="stroke:#000000;stroke-width:0.8;" x="72" xlink:href="#mb688be5527" y="311.170909"/>
      </g>
     </g>
     <g id="text_9">
      <!-- 4 -->
      <g transform="translate(58.6375 314.970128)scale(0.1 -0.1)">
       <use xlink:href="#DejaVuSans-34"/>
      </g>
     </g>
    </g>
    <g id="ytick_4">
     <g id="line2d_10">
      <g>
       <use style="stroke:#000000;stroke-width:0.8;" x="72" xlink:href="#mb688be5527" y="230.007273"/>
      </g>
     </g>
     <g id="text_10">
      <!-- 6 -->
      <g transform="translate(58.6375 233.806491)scale(0.1 -0.1)">
       <use xlink:href="#DejaVuSans-36"/>
      </g>
     </g>
    </g>
    <g id="ytick_5">
     <g id="line2d_11">
      <g>
       <use style="stroke:#000000;stroke-width:0.8;" x="72" xlink:href="#mb688be5527" y="148.843636"/>
      </g>
     </g>
     <g id="text_11">
      <!-- 8 -->
      <g transform="translate(58.6375 152.642855)scale(0.1 -0.1)">
       <use xlink:href="#DejaVuSans-38"/>
      </g>
     </g>
    </g>
   </g>
   <g id="line2d_12">
    <path clip-path="url(#p6bded5545c)" d="M 275.038139 262.745345 
" style="fill:none;stroke:#1f77b4;stroke-linecap:square;stroke-width:1.5;"/>
    <defs>
     <path d="M -5 5 
L 5 5 
L 5 -5 
L -5 -5 
z
" id="m2690048d74" style="stroke:#8000ff;stroke-linejoin:miter;"/>
    </defs>
    <g clip-path="url(#p6bded5545c)">
     <use style="fill:#8000ff;stroke:#8000ff;stroke-linejoin:miter;" x="275.038139" xlink:href="#m2690048d74" y="262.745345"/>
    </g>
   </g>
   <g id="line2d_13">
    <path clip-path="url(#p6bded5545c)" d="M 306.093396 469.77184 
" style="fill:none;stroke:#ff7f0e;stroke-linecap:square;stroke-width:1.5;"/>
    <defs>
     <path d="M 0 -5 
L -4.755283 -1.545085 
L -2.938926 4.045085 
L 2.938926 4.045085 
L 4.755283 -1.545085 
z
" id="m66a6be4c54" style="stroke:#8000ff;stroke-linejoin:miter;"/>
    </defs>
    <g clip-path="url(#p6bded5545c)">
     <use style="fill:#8000ff;stroke:#8000ff;stroke-linejoin:miter;" x="306.093396" xlink:href="#m66a6be4c54" y="469.77184"/>
    </g>
   </g>
   <g id="line2d_14">
    <path clip-path="url(#p6bded5545c)" d="M 250.813022 444.063194 
" style="fill:none;stroke:#2ca02c;stroke-linecap:square;stroke-width:1.5;"/>
    <defs>
     <path d="M -5 5 
L 5 5 
L 5 -5 
L -5 -5 
z
" id="mc88e928ff0" style="stroke:#376ff9;stroke-linejoin:miter;"/>
    </defs>
    <g clip-path="url(#p6bded5545c)">
     <use style="fill:#376ff9;stroke:#376ff9;stroke-linejoin:miter;" x="250.813022" xlink:href="#mc88e928ff0" y="444.063194"/>
    </g>
   </g>
   <g id="line2d_15">
    <path clip-path="url(#p6bded5545c)" d="M 439.877739 311.663712 
" style="fill:none;stroke:#d62728;stroke-linecap:square;stroke-width:1.5;"/>
    <defs>
     <path d="M 0 -5 
L -4.755283 -1.545085 
L -2.938926 4.045085 
L 2.938926 4.045085 
L 4.755283 -1.545085 
z
" id="m293661e4ad" style="stroke:#376ff9;stroke-linejoin:miter;"/>
    </defs>
    <g clip-path="url(#p6bded5545c)">
     <use style="fill:#376ff9;stroke:#376ff9;stroke-linejoin:miter;" x="439.877739" xlink:href="#m293661e4ad" y="311.663712"/>
    </g>
   </g>
   <g id="line2d_16">
    <path clip-path="url(#p6bded5545c)" d="M 157.335825 170.025349 
" style="fill:none;stroke:#9467bd;stroke-linecap:square;stroke-width:1.5;"/>
    <defs>
     <path d="M -5 5 
L 5 5 
L 5 -5 
L -5 -5 
z
" id="md59a93dfd4" style="stroke:#12c7e6;stroke-linejoin:miter;"/>
    </defs>
    <g clip-path="url(#p6bded5545c)">
     <use style="fill:#12c7e6;stroke:#12c7e6;stroke-linejoin:miter;" x="157.335825" xlink:href="#md59a93dfd4" y="170.025349"/>
    </g>
   </g>
   <g id="line2d_17">
    <path clip-path="url(#p6bded5545c)" d="M 136.077143 458.338684 
" style="fill:none;stroke:#8c564b;stroke-linecap:square;stroke-width:1.5;"/>
    <defs>
     <path d="M 0 -5 
L -4.755283 -1.545085 
L -2.938926 4.045085 
L 2.938926 4.045085 
L 4.755283 -1.545085 
z
" id="me832144fed" style="stroke:#12c7e6;stroke-linejoin:miter;"/>
    </defs>
    <g clip-path="url(#p6bded5545c)">
     <use style="fill:#12c7e6;stroke:#12c7e6;stroke-linejoin:miter;" x="136.077143" xlink:href="#me832144fed" y="458.338684"/>
    </g>
   </g>
   <g id="line2d_18">
    <path clip-path="url(#p6bded5545c)" d="M 205.4244 115.333453 
" style="fill:none;stroke:#e377c2;stroke-linecap:square;stroke-width:1.5;"/>
    <defs>
     <path d="M -5 5 
L 5 5 
L 5 -5 
L -5 -5 
z
" id="mc45605f990" style="stroke:#5bf9c7;stroke-linejoin:miter;"/>
    </defs>
    <g clip-path="url(#p6bded5545c)">
     <use style="fill:#5bf9c7;stroke:#5bf9c7;stroke-linejoin:miter;" x="205.4244" xlink:href="#mc45605f990" y="115.333453"/>
    </g>
   </g>
   <g id="line2d_19">
    <path clip-path="url(#p6bded5545c)" d="M 436.817575 398.129289 
" style="fill:none;stroke:#7f7f7f;stroke-linecap:square;stroke-width:1.5;"/>
    <defs>
     <path d="M 0 -5 
L -4.755283 -1.545085 
L -2.938926 4.045085 
L 2.938926 4.045085 
L 4.755283 -1.545085 
z
" id="m6bf6a0410f" style="stroke:#5bf9c7;stroke-linejoin:miter;"/>
    </defs>
    <g clip-path="url(#p6bded5545c)">
     <use style="fill:#5bf9c7;stroke:#5bf9c7;stroke-linejoin:miter;" x="436.817575" xlink:href="#m6bf6a0410f" y="398.129289"/>
    </g>
   </g>
   <g id="line2d_20">
    <path clip-path="url(#p6bded5545c)" d="M 172.940203 339.650559 
" style="fill:none;stroke:#bcbd22;stroke-linecap:square;stroke-width:1.5;"/>
    <defs>
     <path d="M -5 5 
L 5 5 
L 5 -5 
L -5 -5 
z
" id="mcd80b28d0c" style="stroke:#a4f99f;stroke-linejoin:miter;"/>
    </defs>
    <g clip-path="url(#p6bded5545c)">
     <use style="fill:#a4f99f;stroke:#a4f99f;stroke-linejoin:miter;" x="172.940203" xlink:href="#mcd80b28d0c" y="339.650559"/>
    </g>
   </g>
   <g id="line2d_21">
    <path clip-path="url(#p6bded5545c)" d="M 443.198941 356.168243 
" style="fill:none;stroke:#17becf;stroke-linecap:square;stroke-width:1.5;"/>
    <defs>
     <path d="M 0 -5 
L -4.755283 -1.545085 
L -2.938926 4.045085 
L 2.938926 4.045085 
L 4.755283 -1.545085 
z
" id="ma7c9f8bdb9" style="stroke:#a4f99f;stroke-linejoin:miter;"/>
    </defs>
    <g clip-path="url(#p6bded5545c)">
     <use style="fill:#a4f99f;stroke:#a4f99f;stroke-linejoin:miter;" x="443.198941" xlink:href="#ma7c9f8bdb9" y="356.168243"/>
    </g>
   </g>
   <g id="line2d_22">
    <path clip-path="url(#p6bded5545c)" d="M 333.143949 387.182245 
" style="fill:none;stroke:#1f77b4;stroke-linecap:square;stroke-width:1.5;"/>
    <defs>
     <path d="M -5 5 
L 5 5 
L 5 -5 
L -5 -5 
z
" id="m9444f9485a" style="stroke:#edc76f;stroke-linejoin:miter;"/>
    </defs>
    <g clip-path="url(#p6bded5545c)">
     <use style="fill:#edc76f;stroke:#edc76f;stroke-linejoin:miter;" x="333.143949" xlink:href="#m9444f9485a" y="387.182245"/>
    </g>
   </g>
   <g id="line2d_23">
    <path clip-path="url(#p6bded5545c)" d="M 159.082869 251.517049 
" style="fill:none;stroke:#ff7f0e;stroke-linecap:square;stroke-width:1.5;"/>
    <defs>
     <path d="M 0 -5 
L -4.755283 -1.545085 
L -2.938926 4.045085 
L 2.938926 4.045085 
L 4.755283 -1.545085 
z
" id="m6c30a6670a" style="stroke:#edc76f;stroke-linejoin:miter;"/>
    </defs>
    <g clip-path="url(#p6bded5545c)">
     <use style="fill:#edc76f;stroke:#edc76f;stroke-linejoin:miter;" x="159.082869" xlink:href="#m6c30a6670a" y="251.517049"/>
    </g>
   </g>
   <g id="line2d_24">
    <path clip-path="url(#p6bded5545c)" d="M 233.908354 361.779818 
" style="fill:none;stroke:#2ca02c;stroke-linecap:square;stroke-width:1.5;"/>
    <defs>
     <path d="M -5 5 
L 5 5 
L 5 -5 
L -5 -5 
z
" id="m495e36b3b0" style="stroke:#ff6f39;stroke-linejoin:miter;"/>
    </defs>
    <g clip-path="url(#p6bded5545c)">
     <use style="fill:#ff6f39;stroke:#ff6f39;stroke-linejoin:miter;" x="233.908354" xlink:href="#m495e36b3b0" y="361.779818"/>
    </g>
   </g>
   <g id="line2d_25">
    <path clip-path="url(#p6bded5545c)" d="M 326.930723 167.727766 
" style="fill:none;stroke:#d62728;stroke-linecap:square;stroke-width:1.5;"/>
    <defs>
     <path d="M 0 -5 
L -4.755283 -1.545085 
L -2.938926 4.045085 
L 2.938926 4.045085 
L 4.755283 -1.545085 
z
" id="me42537d304" style="stroke:#ff6f39;stroke-linejoin:miter;"/>
    </defs>
    <g clip-path="url(#p6bded5545c)">
     <use style="fill:#ff6f39;stroke:#ff6f39;stroke-linejoin:miter;" x="326.930723" xlink:href="#me42537d304" y="167.727766"/>
    </g>
   </g>
   <g id="line2d_26">
    <path clip-path="url(#p6bded5545c)" d="M 279.604044 201.285592 
" style="fill:none;stroke:#9467bd;stroke-linecap:square;stroke-width:1.5;"/>
    <defs>
     <path d="M -5 5 
L 5 5 
L 5 -5 
L -5 -5 
z
" id="mec08eeb093" style="stroke:#ff0000;stroke-linejoin:miter;"/>
    </defs>
    <g clip-path="url(#p6bded5545c)">
     <use style="fill:#ff0000;stroke:#ff0000;stroke-linejoin:miter;" x="279.604044" xlink:href="#mec08eeb093" y="201.285592"/>
    </g>
   </g>
   <g id="line2d_27">
    <path clip-path="url(#p6bded5545c)" d="M 225.572242 407.818984 
" style="fill:none;stroke:#8c564b;stroke-linecap:square;stroke-width:1.5;"/>
    <defs>
     <path d="M 0 -5 
L -4.755283 -1.545085 
L -2.938926 4.045085 
L 2.938926 4.045085 
L 4.755283 -1.545085 
z
" id="m4472e04f99" style="stroke:#ff0000;stroke-linejoin:miter;"/>
    </defs>
    <g clip-path="url(#p6bded5545c)">
     <use style="fill:#ff0000;stroke:#ff0000;stroke-linejoin:miter;" x="225.572242" xlink:href="#m4472e04f99" y="407.818984"/>
    </g>
   </g>
   <g id="line2d_28">
    <defs>
     <path d="M 0 2.5 
C 0.663008 2.5 1.29895 2.236584 1.767767 1.767767 
C 2.236584 1.29895 2.5 0.663008 2.5 0 
C 2.5 -0.663008 2.236584 -1.29895 1.767767 -1.767767 
C 1.29895 -2.236584 0.663008 -2.5 0 -2.5 
C -0.663008 -2.5 -1.29895 -2.236584 -1.767767 -1.767767 
C -2.236584 -1.29895 -2.5 -0.663008 -2.5 0 
C -2.5 0.663008 -2.236584 1.29895 -1.767767 1.767767 
C -1.29895 2.236584 -0.663008 2.5 0 2.5 
z
" id="mc5b25537c5" style="stroke:#000000;"/>
    </defs>
    <g clip-path="url(#p6bded5545c)">
     <use style="stroke:#000000;" x="378.645559" xlink:href="#mc5b25537c5" y="349.655281"/>
     <use style="stroke:#000000;" x="357.547298" xlink:href="#mc5b25537c5" y="131.922298"/>
     <use style="stroke:#000000;" x="457.053665" xlink:href="#mc5b25537c5" y="126.670774"/>
     <use style="stroke:#000000;" x="401.376531" xlink:href="#mc5b25537c5" y="117.104875"/>
     <use style="stroke:#000000;" x="445.346536" xlink:href="#mc5b25537c5" y="271.38415"/>
     <use style="stroke:#000000;" x="144.199978" xlink:href="#mc5b25537c5" y="414.818916"/>
     <use style="stroke:#000000;" x="425.34228" xlink:href="#mc5b25537c5" y="122.123471"/>
     <use style="stroke:#000000;" x="140.982737" xlink:href="#mc5b25537c5" y="291.615219"/>
     <use style="stroke:#000000;" x="174.876594" xlink:href="#mc5b25537c5" y="421.988682"/>
     <use style="stroke:#000000;" x="367.133961" xlink:href="#mc5b25537c5" y="457.758097"/>
     <use style="stroke:#000000;" x="418.256889" xlink:href="#mc5b25537c5" y="437.502383"/>
     <use style="stroke:#000000;" x="385.565669" xlink:href="#mc5b25537c5" y="266.377734"/>
     <use style="stroke:#000000;" x="466.703988" xlink:href="#mc5b25537c5" y="267.331802"/>
     <use style="stroke:#000000;" x="235.520557" xlink:href="#mc5b25537c5" y="293.490333"/>
     <use style="stroke:#000000;" x="392.280071" xlink:href="#mc5b25537c5" y="225.303331"/>
     <use style="stroke:#000000;" x="324.106642" xlink:href="#mc5b25537c5" y="346.730952"/>
     <use style="stroke:#000000;" x="263.631225" xlink:href="#mc5b25537c5" y="313.773786"/>
     <use style="stroke:#000000;" x="423.324239" xlink:href="#mc5b25537c5" y="196.875013"/>
     <use style="stroke:#000000;" x="356.907619" xlink:href="#mc5b25537c5" y="253.917898"/>
     <use style="stroke:#000000;" x="244.387194" xlink:href="#mc5b25537c5" y="322.313133"/>
     <use style="stroke:#000000;" x="270.772152" xlink:href="#mc5b25537c5" y="148.278818"/>
     <use style="stroke:#000000;" x="201.827499" xlink:href="#mc5b25537c5" y="224.235606"/>
    </g>
   </g>
   <g id="line2d_29">
    <path clip-path="url(#p6bded5545c)" d="M 394.878286 349.655281 
L 393.998752 344.384523 
L 391.455461 339.684934 
L 387.524019 336.065786 
L 382.630458 333.919271 
L 377.305071 333.477997 
L 372.124947 334.789783 
L 367.651432 337.712476 
L 364.369301 341.929357 
L 362.634225 346.983462 
L 362.634225 352.3271 
L 364.369301 357.381206 
L 367.651432 361.598087 
L 372.124947 364.52078 
L 377.305071 365.832566 
L 382.630458 365.391292 
L 387.524019 363.244777 
L 391.455461 359.625629 
L 393.998752 354.926039 
L 394.878286 349.655281 
" style="fill:none;stroke:#000000;stroke-dasharray:5.55,2.4;stroke-dashoffset:0;stroke-width:1.5;"/>
   </g>
   <g id="line2d_30">
    <path clip-path="url(#p6bded5545c)" d="M 383.109559 349.655281 
L 382.867687 348.205823 
L 382.168282 346.913436 
L 381.087135 345.91817 
L 379.741406 345.327879 
L 378.276925 345.206528 
L 376.85239 345.567269 
L 375.622174 346.37101 
L 374.719588 347.530652 
L 374.242442 348.920531 
L 374.242442 350.390032 
L 374.719588 351.779911 
L 375.622174 352.939553 
L 376.85239 353.743294 
L 378.276925 354.104035 
L 379.741406 353.982684 
L 381.087135 353.392393 
L 382.168282 352.397127 
L 382.867687 351.10474 
L 383.109559 349.655281 
" style="fill:none;stroke:#ff0000;stroke-linecap:square;stroke-width:1.5;"/>
   </g>
   <g id="line2d_31">
    <path clip-path="url(#p6bded5545c)" d="M 373.780026 131.922298 
L 372.900492 126.65154 
L 370.357201 121.95195 
L 366.425759 118.332803 
L 361.532197 116.186288 
L 356.20681 115.745013 
L 351.026686 117.056799 
L 346.553171 119.979492 
L 343.271041 124.196373 
L 341.535964 129.250479 
L 341.535964 134.594117 
L 343.271041 139.648222 
L 346.553171 143.865103 
L 351.026686 146.787796 
L 356.20681 148.099582 
L 361.532197 147.658308 
L 366.425759 145.511793 
L 370.357201 141.892645 
L 372.900492 137.193056 
L 373.780026 131.922298 
" style="fill:none;stroke:#000000;stroke-dasharray:5.55,2.4;stroke-dashoffset:0;stroke-width:1.5;"/>
   </g>
   <g id="line2d_32">
    <path clip-path="url(#p6bded5545c)" d="M 362.011298 131.922298 
L 361.769427 130.472839 
L 361.070022 129.180452 
L 359.988875 128.185187 
L 358.643146 127.594895 
L 357.178664 127.473545 
L 355.75413 127.834286 
L 354.523914 128.638026 
L 353.621328 129.797669 
L 353.144182 131.187547 
L 353.144182 132.657048 
L 353.621328 134.046927 
L 354.523914 135.206569 
L 355.75413 136.01031 
L 357.178664 136.371051 
L 358.643146 136.2497 
L 359.988875 135.659409 
L 361.070022 134.664143 
L 361.769427 133.371756 
L 362.011298 131.922298 
" style="fill:none;stroke:#ff0000;stroke-linecap:square;stroke-width:1.5;"/>
   </g>
   <g id="line2d_33">
    <path clip-path="url(#p6bded5545c)" d="M 473.286393 126.670774 
L 472.406859 121.400016 
L 469.863568 116.700427 
L 465.932126 113.081279 
L 461.038564 110.934764 
L 455.713177 110.49349 
L 450.533053 111.805275 
L 446.059538 114.727969 
L 442.777408 118.94485 
L 441.042331 123.998955 
L 441.042331 129.342593 
L 442.777408 134.396698 
L 446.059538 138.61358 
L 450.533053 141.536273 
L 455.713177 142.848058 
L 461.038564 142.406784 
L 465.932126 140.260269 
L 469.863568 136.641122 
L 472.406859 131.941532 
L 473.286393 126.670774 
" style="fill:none;stroke:#000000;stroke-dasharray:5.55,2.4;stroke-dashoffset:0;stroke-width:1.5;"/>
   </g>
   <g id="line2d_34">
    <path clip-path="url(#p6bded5545c)" d="M 461.517665 126.670774 
L 461.275794 125.221316 
L 460.576389 123.928929 
L 459.495242 122.933663 
L 458.149513 122.343371 
L 456.685031 122.222021 
L 455.260497 122.582762 
L 454.030281 123.386503 
L 453.127695 124.546145 
L 452.650549 125.936024 
L 452.650549 127.405524 
L 453.127695 128.795403 
L 454.030281 129.955046 
L 455.260497 130.758786 
L 456.685031 131.119527 
L 458.149513 130.998177 
L 459.495242 130.407885 
L 460.576389 129.41262 
L 461.275794 128.120233 
L 461.517665 126.670774 
" style="fill:none;stroke:#ff0000;stroke-linecap:square;stroke-width:1.5;"/>
   </g>
   <g id="line2d_35">
    <path clip-path="url(#p6bded5545c)" d="M 417.609258 117.104875 
L 416.729724 111.834117 
L 414.186433 107.134527 
L 410.254991 103.51538 
L 405.361429 101.368865 
L 400.036043 100.927591 
L 394.855918 102.239376 
L 390.382403 105.162069 
L 387.100273 109.378951 
L 385.365196 114.433056 
L 385.365196 119.776694 
L 387.100273 124.830799 
L 390.382403 129.04768 
L 394.855918 131.970373 
L 400.036043 133.282159 
L 405.361429 132.840885 
L 410.254991 130.69437 
L 414.186433 127.075222 
L 416.729724 122.375633 
L 417.609258 117.104875 
" style="fill:none;stroke:#000000;stroke-dasharray:5.55,2.4;stroke-dashoffset:0;stroke-width:1.5;"/>
   </g>
   <g id="line2d_36">
    <path clip-path="url(#p6bded5545c)" d="M 405.840531 117.104875 
L 405.598659 115.655416 
L 404.899254 114.363029 
L 403.818107 113.367764 
L 402.472378 112.777472 
L 401.007896 112.656122 
L 399.583362 113.016863 
L 398.353146 113.820603 
L 397.45056 114.980246 
L 396.973414 116.370125 
L 396.973414 117.839625 
L 397.45056 119.229504 
L 398.353146 120.389146 
L 399.583362 121.192887 
L 401.007896 121.553628 
L 402.472378 121.432278 
L 403.818107 120.841986 
L 404.899254 119.84672 
L 405.598659 118.554333 
L 405.840531 117.104875 
" style="fill:none;stroke:#ff0000;stroke-linecap:square;stroke-width:1.5;"/>
   </g>
   <g id="line2d_37">
    <path clip-path="url(#p6bded5545c)" d="M 461.579263 271.38415 
L 460.699729 266.113392 
L 458.156438 261.413803 
L 454.224996 257.794655 
L 449.331435 255.64814 
L 444.006048 255.206866 
L 438.825923 256.518651 
L 434.352409 259.441345 
L 431.070278 263.658226 
L 429.335202 268.712331 
L 429.335202 274.055969 
L 431.070278 279.110074 
L 434.352409 283.326956 
L 438.825923 286.249649 
L 444.006048 287.561434 
L 449.331435 287.12016 
L 454.224996 284.973645 
L 458.156438 281.354498 
L 460.699729 276.654908 
L 461.579263 271.38415 
" style="fill:none;stroke:#000000;stroke-dasharray:5.55,2.4;stroke-dashoffset:0;stroke-width:1.5;"/>
   </g>
   <g id="line2d_38">
    <path clip-path="url(#p6bded5545c)" d="M 449.810536 271.38415 
L 449.568664 269.934692 
L 448.869259 268.642305 
L 447.788112 267.647039 
L 446.442383 267.056747 
L 444.977902 266.935397 
L 443.553367 267.296138 
L 442.323151 268.099879 
L 441.420565 269.259521 
L 440.943419 270.6494 
L 440.943419 272.1189 
L 441.420565 273.508779 
L 442.323151 274.668422 
L 443.553367 275.472162 
L 444.977902 275.832903 
L 446.442383 275.711553 
L 447.788112 275.121261 
L 448.869259 274.125996 
L 449.568664 272.833609 
L 449.810536 271.38415 
" style="fill:none;stroke:#ff0000;stroke-linecap:square;stroke-width:1.5;"/>
   </g>
   <g id="line2d_39">
    <path clip-path="url(#p6bded5545c)" d="M 160.432705 414.818916 
L 159.553172 409.548158 
L 157.009881 404.848568 
L 153.078438 401.229421 
L 148.184877 399.082906 
L 142.85949 398.641632 
L 137.679366 399.953417 
L 133.205851 402.87611 
L 129.923721 407.092992 
L 128.188644 412.147097 
L 128.188644 417.490735 
L 129.923721 422.54484 
L 133.205851 426.761721 
L 137.679366 429.684415 
L 142.85949 430.9962 
L 148.184877 430.554926 
L 153.078438 428.408411 
L 157.009881 424.789263 
L 159.553172 420.089674 
L 160.432705 414.818916 
" style="fill:none;stroke:#000000;stroke-dasharray:5.55,2.4;stroke-dashoffset:0;stroke-width:1.5;"/>
   </g>
   <g id="line2d_40">
    <path clip-path="url(#p6bded5545c)" d="M 148.663978 414.818916 
L 148.422106 413.369457 
L 147.722701 412.07707 
L 146.641555 411.081805 
L 145.295825 410.491513 
L 143.831344 410.370163 
L 142.40681 410.730904 
L 141.176593 411.534644 
L 140.274007 412.694287 
L 139.796861 414.084166 
L 139.796861 415.553666 
L 140.274007 416.943545 
L 141.176593 418.103187 
L 142.40681 418.906928 
L 143.831344 419.267669 
L 145.295825 419.146319 
L 146.641555 418.556027 
L 147.722701 417.560761 
L 148.422106 416.268374 
L 148.663978 414.818916 
" style="fill:none;stroke:#ff0000;stroke-linecap:square;stroke-width:1.5;"/>
   </g>
   <g id="line2d_41">
    <path clip-path="url(#p6bded5545c)" d="M 441.575007 122.123471 
L 440.695473 116.852713 
L 438.152183 112.153124 
L 434.22074 108.533976 
L 429.327179 106.387461 
L 424.001792 105.946187 
L 418.821668 107.257972 
L 414.348153 110.180666 
L 411.066023 114.397547 
L 409.330946 119.451652 
L 409.330946 124.79529 
L 411.066023 129.849395 
L 414.348153 134.066277 
L 418.821668 136.98897 
L 424.001792 138.300755 
L 429.327179 137.859481 
L 434.22074 135.712966 
L 438.152183 132.093819 
L 440.695473 127.394229 
L 441.575007 122.123471 
" style="fill:none;stroke:#000000;stroke-dasharray:5.55,2.4;stroke-dashoffset:0;stroke-width:1.5;"/>
   </g>
   <g id="line2d_42">
    <path clip-path="url(#p6bded5545c)" d="M 429.80628 122.123471 
L 429.564408 120.674013 
L 428.865003 119.381626 
L 427.783857 118.38636 
L 426.438127 117.796068 
L 424.973646 117.674718 
L 423.549112 118.035459 
L 422.318895 118.8392 
L 421.416309 119.998842 
L 420.939163 121.388721 
L 420.939163 122.858221 
L 421.416309 124.2481 
L 422.318895 125.407743 
L 423.549112 126.211483 
L 424.973646 126.572224 
L 426.438127 126.450874 
L 427.783857 125.860582 
L 428.865003 124.865317 
L 429.564408 123.57293 
L 429.80628 122.123471 
" style="fill:none;stroke:#ff0000;stroke-linecap:square;stroke-width:1.5;"/>
   </g>
   <g id="line2d_43">
    <path clip-path="url(#p6bded5545c)" d="M 157.215464 291.615219 
L 156.33593 286.344461 
L 153.792639 281.644871 
L 149.861197 278.025724 
L 144.967636 275.879209 
L 139.642249 275.437935 
L 134.462124 276.74972 
L 129.98861 279.672413 
L 126.706479 283.889295 
L 124.971403 288.9434 
L 124.971403 294.287038 
L 126.706479 299.341143 
L 129.98861 303.558024 
L 134.462124 306.480718 
L 139.642249 307.792503 
L 144.967636 307.351229 
L 149.861197 305.204714 
L 153.792639 301.585566 
L 156.33593 296.885977 
L 157.215464 291.615219 
" style="fill:none;stroke:#000000;stroke-dasharray:5.55,2.4;stroke-dashoffset:0;stroke-width:1.5;"/>
   </g>
   <g id="line2d_44">
    <path clip-path="url(#p6bded5545c)" d="M 145.446737 291.615219 
L 145.204865 290.16576 
L 144.50546 288.873373 
L 143.424313 287.878108 
L 142.078584 287.287816 
L 140.614102 287.166466 
L 139.189568 287.527207 
L 137.959352 288.330947 
L 137.056766 289.49059 
L 136.57962 290.880469 
L 136.57962 292.349969 
L 137.056766 293.739848 
L 137.959352 294.89949 
L 139.189568 295.703231 
L 140.614102 296.063972 
L 142.078584 295.942622 
L 143.424313 295.35233 
L 144.50546 294.357064 
L 145.204865 293.064677 
L 145.446737 291.615219 
" style="fill:none;stroke:#ff0000;stroke-linecap:square;stroke-width:1.5;"/>
   </g>
   <g id="line2d_45">
    <path clip-path="url(#p6bded5545c)" d="M 191.109321 421.988682 
L 190.229787 416.717924 
L 187.686496 412.018335 
L 183.755054 408.399187 
L 178.861493 406.252672 
L 173.536106 405.811398 
L 168.355981 407.123184 
L 163.882467 410.045877 
L 160.600336 414.262758 
L 158.86526 419.316863 
L 158.86526 424.660501 
L 160.600336 429.714607 
L 163.882467 433.931488 
L 168.355981 436.854181 
L 173.536106 438.165967 
L 178.861493 437.724692 
L 183.755054 435.578177 
L 187.686496 431.95903 
L 190.229787 427.25944 
L 191.109321 421.988682 
" style="fill:none;stroke:#000000;stroke-dasharray:5.55,2.4;stroke-dashoffset:0;stroke-width:1.5;"/>
   </g>
   <g id="line2d_46">
    <path clip-path="url(#p6bded5545c)" d="M 179.340594 421.988682 
L 179.098722 420.539224 
L 178.399317 419.246837 
L 177.31817 418.251571 
L 175.972441 417.66128 
L 174.50796 417.539929 
L 173.083425 417.90067 
L 171.853209 418.704411 
L 170.950623 419.864053 
L 170.473477 421.253932 
L 170.473477 422.723433 
L 170.950623 424.113311 
L 171.853209 425.272954 
L 173.083425 426.076694 
L 174.50796 426.437435 
L 175.972441 426.316085 
L 177.31817 425.725793 
L 178.399317 424.730528 
L 179.098722 423.438141 
L 179.340594 421.988682 
" style="fill:none;stroke:#ff0000;stroke-linecap:square;stroke-width:1.5;"/>
   </g>
   <g id="line2d_47">
    <path clip-path="url(#p6bded5545c)" d="M 383.366688 457.758097 
L 382.487154 452.487339 
L 379.943863 447.787749 
L 376.012421 444.168602 
L 371.11886 442.022087 
L 365.793473 441.580812 
L 360.613348 442.892598 
L 356.139834 445.815291 
L 352.857703 450.032172 
L 351.122627 455.086278 
L 351.122627 460.429916 
L 352.857703 465.484021 
L 356.139834 469.700902 
L 360.613348 472.623595 
L 365.793473 473.935381 
L 371.11886 473.494107 
L 376.012421 471.347592 
L 379.943863 467.728444 
L 382.487154 463.028855 
L 383.366688 457.758097 
" style="fill:none;stroke:#000000;stroke-dasharray:5.55,2.4;stroke-dashoffset:0;stroke-width:1.5;"/>
   </g>
   <g id="line2d_48">
    <path clip-path="url(#p6bded5545c)" d="M 371.597961 457.758097 
L 371.356089 456.308638 
L 370.656684 455.016251 
L 369.575537 454.020986 
L 368.229808 453.430694 
L 366.765327 453.309344 
L 365.340792 453.670085 
L 364.110576 454.473825 
L 363.20799 455.633468 
L 362.730844 457.023346 
L 362.730844 458.492847 
L 363.20799 459.882726 
L 364.110576 461.042368 
L 365.340792 461.846109 
L 366.765327 462.20685 
L 368.229808 462.085499 
L 369.575537 461.495208 
L 370.656684 460.499942 
L 371.356089 459.207555 
L 371.597961 457.758097 
" style="fill:none;stroke:#ff0000;stroke-linecap:square;stroke-width:1.5;"/>
   </g>
   <g id="line2d_49">
    <path clip-path="url(#p6bded5545c)" d="M 434.489616 437.502383 
L 433.610082 432.231625 
L 431.066791 427.532036 
L 427.135349 423.912888 
L 422.241788 421.766373 
L 416.916401 421.325099 
L 411.736276 422.636885 
L 407.262762 425.559578 
L 403.980631 429.776459 
L 402.245555 434.830564 
L 402.245555 440.174202 
L 403.980631 445.228307 
L 407.262762 449.445189 
L 411.736276 452.367882 
L 416.916401 453.679667 
L 422.241788 453.238393 
L 427.135349 451.091878 
L 431.066791 447.472731 
L 433.610082 442.773141 
L 434.489616 437.502383 
" style="fill:none;stroke:#000000;stroke-dasharray:5.55,2.4;stroke-dashoffset:0;stroke-width:1.5;"/>
   </g>
   <g id="line2d_50">
    <path clip-path="url(#p6bded5545c)" d="M 422.720889 437.502383 
L 422.479017 436.052925 
L 421.779612 434.760538 
L 420.698465 433.765272 
L 419.352736 433.17498 
L 417.888254 433.05363 
L 416.46372 433.414371 
L 415.233504 434.218112 
L 414.330918 435.377754 
L 413.853772 436.767633 
L 413.853772 438.237133 
L 414.330918 439.627012 
L 415.233504 440.786655 
L 416.46372 441.590395 
L 417.888254 441.951136 
L 419.352736 441.829786 
L 420.698465 441.239494 
L 421.779612 440.244229 
L 422.479017 438.951842 
L 422.720889 437.502383 
" style="fill:none;stroke:#ff0000;stroke-linecap:square;stroke-width:1.5;"/>
   </g>
   <g id="line2d_51">
    <path clip-path="url(#p6bded5545c)" d="M 401.798396 266.377734 
L 400.918862 261.106976 
L 398.375572 256.407387 
L 394.444129 252.788239 
L 389.550568 250.641724 
L 384.225181 250.20045 
L 379.045057 251.512235 
L 374.571542 254.434928 
L 371.289411 258.65181 
L 369.554335 263.705915 
L 369.554335 269.049553 
L 371.289411 274.103658 
L 374.571542 278.32054 
L 379.045057 281.243233 
L 384.225181 282.555018 
L 389.550568 282.113744 
L 394.444129 279.967229 
L 398.375572 276.348081 
L 400.918862 271.648492 
L 401.798396 266.377734 
" style="fill:none;stroke:#000000;stroke-dasharray:5.55,2.4;stroke-dashoffset:0;stroke-width:1.5;"/>
   </g>
   <g id="line2d_52">
    <path clip-path="url(#p6bded5545c)" d="M 390.029669 266.377734 
L 389.787797 264.928276 
L 389.088392 263.635888 
L 388.007246 262.640623 
L 386.661516 262.050331 
L 385.197035 261.928981 
L 383.772501 262.289722 
L 382.542284 263.093462 
L 381.639698 264.253105 
L 381.162552 265.642984 
L 381.162552 267.112484 
L 381.639698 268.502363 
L 382.542284 269.662006 
L 383.772501 270.465746 
L 385.197035 270.826487 
L 386.661516 270.705137 
L 388.007246 270.114845 
L 389.088392 269.11958 
L 389.787797 267.827192 
L 390.029669 266.377734 
" style="fill:none;stroke:#ff0000;stroke-linecap:square;stroke-width:1.5;"/>
   </g>
   <g id="line2d_53">
    <path clip-path="url(#p6bded5545c)" d="M 482.936715 267.331802 
L 482.057181 262.061044 
L 479.513891 257.361455 
L 475.582448 253.742307 
L 470.688887 251.595792 
L 465.3635 251.154518 
L 460.183376 252.466304 
L 455.709861 255.388997 
L 452.42773 259.605878 
L 450.692654 264.659983 
L 450.692654 270.003621 
L 452.42773 275.057726 
L 455.709861 279.274608 
L 460.183376 282.197301 
L 465.3635 283.509086 
L 470.688887 283.067812 
L 475.582448 280.921297 
L 479.513891 277.30215 
L 482.057181 272.60256 
L 482.936715 267.331802 
" style="fill:none;stroke:#000000;stroke-dasharray:5.55,2.4;stroke-dashoffset:0;stroke-width:1.5;"/>
   </g>
   <g id="line2d_54">
    <path clip-path="url(#p6bded5545c)" d="M 471.167988 267.331802 
L 470.926116 265.882344 
L 470.226711 264.589957 
L 469.145565 263.594691 
L 467.799835 263.004399 
L 466.335354 262.883049 
L 464.91082 263.24379 
L 463.680603 264.047531 
L 462.778017 265.207173 
L 462.300871 266.597052 
L 462.300871 268.066552 
L 462.778017 269.456431 
L 463.680603 270.616074 
L 464.91082 271.419814 
L 466.335354 271.780555 
L 467.799835 271.659205 
L 469.145565 271.068913 
L 470.226711 270.073648 
L 470.926116 268.781261 
L 471.167988 267.331802 
" style="fill:none;stroke:#ff0000;stroke-linecap:square;stroke-width:1.5;"/>
   </g>
   <g id="line2d_55">
    <path clip-path="url(#p6bded5545c)" d="M 251.753284 293.490333 
L 250.87375 288.219575 
L 248.330459 283.519985 
L 244.399017 279.900837 
L 239.505456 277.754322 
L 234.180069 277.313048 
L 228.999944 278.624834 
L 224.52643 281.547527 
L 221.244299 285.764408 
L 219.509223 290.818514 
L 219.509223 296.162152 
L 221.244299 301.216257 
L 224.52643 305.433138 
L 228.999944 308.355831 
L 234.180069 309.667617 
L 239.505456 309.226343 
L 244.399017 307.079828 
L 248.330459 303.46068 
L 250.87375 298.761091 
L 251.753284 293.490333 
" style="fill:none;stroke:#000000;stroke-dasharray:5.55,2.4;stroke-dashoffset:0;stroke-width:1.5;"/>
   </g>
   <g id="line2d_56">
    <path clip-path="url(#p6bded5545c)" d="M 239.984557 293.490333 
L 239.742685 292.040874 
L 239.04328 290.748487 
L 237.962133 289.753221 
L 236.616404 289.16293 
L 235.151923 289.041579 
L 233.727388 289.40232 
L 232.497172 290.206061 
L 231.594586 291.365703 
L 231.11744 292.755582 
L 231.11744 294.225083 
L 231.594586 295.614962 
L 232.497172 296.774604 
L 233.727388 297.578345 
L 235.151923 297.939086 
L 236.616404 297.817735 
L 237.962133 297.227444 
L 239.04328 296.232178 
L 239.742685 294.939791 
L 239.984557 293.490333 
" style="fill:none;stroke:#ff0000;stroke-linecap:square;stroke-width:1.5;"/>
   </g>
   <g id="line2d_57">
    <path clip-path="url(#p6bded5545c)" d="M 408.512799 225.303331 
L 407.633265 220.032573 
L 405.089974 215.332984 
L 401.158532 211.713836 
L 396.26497 209.567321 
L 390.939583 209.126047 
L 385.759459 210.437833 
L 381.285944 213.360526 
L 378.003814 217.577407 
L 376.268737 222.631512 
L 376.268737 227.97515 
L 378.003814 233.029255 
L 381.285944 237.246137 
L 385.759459 240.16883 
L 390.939583 241.480616 
L 396.26497 241.039341 
L 401.158532 238.892826 
L 405.089974 235.273679 
L 407.633265 230.574089 
L 408.512799 225.303331 
" style="fill:none;stroke:#000000;stroke-dasharray:5.55,2.4;stroke-dashoffset:0;stroke-width:1.5;"/>
   </g>
   <g id="line2d_58">
    <path clip-path="url(#p6bded5545c)" d="M 396.744071 225.303331 
L 396.502199 223.853873 
L 395.802795 222.561486 
L 394.721648 221.56622 
L 393.375918 220.975928 
L 391.911437 220.854578 
L 390.486903 221.215319 
L 389.256686 222.01906 
L 388.3541 223.178702 
L 387.876954 224.568581 
L 387.876954 226.038082 
L 388.3541 227.42796 
L 389.256686 228.587603 
L 390.486903 229.391343 
L 391.911437 229.752084 
L 393.375918 229.630734 
L 394.721648 229.040442 
L 395.802795 228.045177 
L 396.502199 226.75279 
L 396.744071 225.303331 
" style="fill:none;stroke:#ff0000;stroke-linecap:square;stroke-width:1.5;"/>
   </g>
   <g id="line2d_59">
    <path clip-path="url(#p6bded5545c)" d="M 340.339369 346.730952 
L 339.459835 341.460194 
L 336.916544 336.760604 
L 332.985102 333.141457 
L 328.091541 330.994942 
L 322.766154 330.553668 
L 317.58603 331.865453 
L 313.112515 334.788146 
L 309.830384 339.005028 
L 308.095308 344.059133 
L 308.095308 349.402771 
L 309.830384 354.456876 
L 313.112515 358.673757 
L 317.58603 361.596451 
L 322.766154 362.908236 
L 328.091541 362.466962 
L 332.985102 360.320447 
L 336.916544 356.701299 
L 339.459835 352.00171 
L 340.339369 346.730952 
" style="fill:none;stroke:#000000;stroke-dasharray:5.55,2.4;stroke-dashoffset:0;stroke-width:1.5;"/>
   </g>
   <g id="line2d_60">
    <path clip-path="url(#p6bded5545c)" d="M 328.570642 346.730952 
L 328.32877 345.281493 
L 327.629365 343.989106 
L 326.548218 342.993841 
L 325.202489 342.403549 
L 323.738008 342.282199 
L 322.313473 342.64294 
L 321.083257 343.44668 
L 320.180671 344.606323 
L 319.703525 345.996202 
L 319.703525 347.465702 
L 320.180671 348.855581 
L 321.083257 350.015223 
L 322.313473 350.818964 
L 323.738008 351.179705 
L 325.202489 351.058355 
L 326.548218 350.468063 
L 327.629365 349.472797 
L 328.32877 348.18041 
L 328.570642 346.730952 
" style="fill:none;stroke:#ff0000;stroke-linecap:square;stroke-width:1.5;"/>
   </g>
   <g id="line2d_61">
    <path clip-path="url(#p6bded5545c)" d="M 279.863952 313.773786 
L 278.984418 308.503028 
L 276.441128 303.803438 
L 272.509685 300.184291 
L 267.616124 298.037776 
L 262.290737 297.596502 
L 257.110613 298.908287 
L 252.637098 301.83098 
L 249.354967 306.047862 
L 247.619891 311.101967 
L 247.619891 316.445605 
L 249.354967 321.49971 
L 252.637098 325.716592 
L 257.110613 328.639285 
L 262.290737 329.95107 
L 267.616124 329.509796 
L 272.509685 327.363281 
L 276.441128 323.744133 
L 278.984418 319.044544 
L 279.863952 313.773786 
" style="fill:none;stroke:#000000;stroke-dasharray:5.55,2.4;stroke-dashoffset:0;stroke-width:1.5;"/>
   </g>
   <g id="line2d_62">
    <path clip-path="url(#p6bded5545c)" d="M 268.095225 313.773786 
L 267.853353 312.324328 
L 267.153948 311.03194 
L 266.072801 310.036675 
L 264.727072 309.446383 
L 263.262591 309.325033 
L 261.838056 309.685774 
L 260.60784 310.489514 
L 259.705254 311.649157 
L 259.228108 313.039036 
L 259.228108 314.508536 
L 259.705254 315.898415 
L 260.60784 317.058057 
L 261.838056 317.861798 
L 263.262591 318.222539 
L 264.727072 318.101189 
L 266.072801 317.510897 
L 267.153948 316.515631 
L 267.853353 315.223244 
L 268.095225 313.773786 
" style="fill:none;stroke:#ff0000;stroke-linecap:square;stroke-width:1.5;"/>
   </g>
   <g id="line2d_63">
    <path clip-path="url(#p6bded5545c)" d="M 439.556966 196.875013 
L 438.677432 191.604256 
L 436.134142 186.904666 
L 432.202699 183.285518 
L 427.309138 181.139003 
L 421.983751 180.697729 
L 416.803627 182.009515 
L 412.330112 184.932208 
L 409.047982 189.149089 
L 407.312905 194.203194 
L 407.312905 199.546833 
L 409.047982 204.600938 
L 412.330112 208.817819 
L 416.803627 211.740512 
L 421.983751 213.052298 
L 427.309138 212.611024 
L 432.202699 210.464509 
L 436.134142 206.845361 
L 438.677432 202.145771 
L 439.556966 196.875013 
" style="fill:none;stroke:#000000;stroke-dasharray:5.55,2.4;stroke-dashoffset:0;stroke-width:1.5;"/>
   </g>
   <g id="line2d_64">
    <path clip-path="url(#p6bded5545c)" d="M 427.788239 196.875013 
L 427.546367 195.425555 
L 426.846962 194.133168 
L 425.765816 193.137902 
L 424.420086 192.547611 
L 422.955605 192.42626 
L 421.531071 192.787001 
L 420.300854 193.590742 
L 419.398268 194.750384 
L 418.921122 196.140263 
L 418.921122 197.609764 
L 419.398268 198.999643 
L 420.300854 200.159285 
L 421.531071 200.963026 
L 422.955605 201.323767 
L 424.420086 201.202416 
L 425.765816 200.612125 
L 426.846962 199.616859 
L 427.546367 198.324472 
L 427.788239 196.875013 
" style="fill:none;stroke:#ff0000;stroke-linecap:square;stroke-width:1.5;"/>
   </g>
   <g id="line2d_65">
    <path clip-path="url(#p6bded5545c)" d="M 373.140346 253.917898 
L 372.260812 248.64714 
L 369.717522 243.947551 
L 365.786079 240.328403 
L 360.892518 238.181888 
L 355.567131 237.740614 
L 350.387007 239.052399 
L 345.913492 241.975092 
L 342.631361 246.191974 
L 340.896285 251.246079 
L 340.896285 256.589717 
L 342.631361 261.643822 
L 345.913492 265.860704 
L 350.387007 268.783397 
L 355.567131 270.095182 
L 360.892518 269.653908 
L 365.786079 267.507393 
L 369.717522 263.888246 
L 372.260812 259.188656 
L 373.140346 253.917898 
" style="fill:none;stroke:#000000;stroke-dasharray:5.55,2.4;stroke-dashoffset:0;stroke-width:1.5;"/>
   </g>
   <g id="line2d_66">
    <path clip-path="url(#p6bded5545c)" d="M 361.371619 253.917898 
L 361.129747 252.46844 
L 360.430342 251.176052 
L 359.349195 250.180787 
L 358.003466 249.590495 
L 356.538985 249.469145 
L 355.11445 249.829886 
L 353.884234 250.633627 
L 352.981648 251.793269 
L 352.504502 253.183148 
L 352.504502 254.652648 
L 352.981648 256.042527 
L 353.884234 257.20217 
L 355.11445 258.00591 
L 356.538985 258.366651 
L 358.003466 258.245301 
L 359.349195 257.655009 
L 360.430342 256.659744 
L 361.129747 255.367356 
L 361.371619 253.917898 
" style="fill:none;stroke:#ff0000;stroke-linecap:square;stroke-width:1.5;"/>
   </g>
   <g id="line2d_67">
    <path clip-path="url(#p6bded5545c)" d="M 260.619921 322.313133 
L 259.740387 317.042375 
L 257.197096 312.342786 
L 253.265654 308.723638 
L 248.372093 306.577123 
L 243.046706 306.135849 
L 237.866581 307.447635 
L 233.393067 310.370328 
L 230.110936 314.587209 
L 228.37586 319.641314 
L 228.37586 324.984953 
L 230.110936 330.039058 
L 233.393067 334.255939 
L 237.866581 337.178632 
L 243.046706 338.490418 
L 248.372093 338.049144 
L 253.265654 335.902629 
L 257.197096 332.283481 
L 259.740387 327.583891 
L 260.619921 322.313133 
" style="fill:none;stroke:#000000;stroke-dasharray:5.55,2.4;stroke-dashoffset:0;stroke-width:1.5;"/>
   </g>
   <g id="line2d_68">
    <path clip-path="url(#p6bded5545c)" d="M 248.851194 322.313133 
L 248.609322 320.863675 
L 247.909917 319.571288 
L 246.82877 318.576022 
L 245.483041 317.985731 
L 244.018559 317.86438 
L 242.594025 318.225121 
L 241.363809 319.028862 
L 240.461223 320.188504 
L 239.984077 321.578383 
L 239.984077 323.047884 
L 240.461223 324.437763 
L 241.363809 325.597405 
L 242.594025 326.401146 
L 244.018559 326.761887 
L 245.483041 326.640536 
L 246.82877 326.050245 
L 247.909917 325.054979 
L 248.609322 323.762592 
L 248.851194 322.313133 
" style="fill:none;stroke:#ff0000;stroke-linecap:square;stroke-width:1.5;"/>
   </g>
   <g id="line2d_69">
    <path clip-path="url(#p6bded5545c)" d="M 287.004879 148.278818 
L 286.125345 143.00806 
L 283.582055 138.30847 
L 279.650612 134.689322 
L 274.757051 132.542807 
L 269.431664 132.101533 
L 264.25154 133.413319 
L 259.778025 136.336012 
L 256.495894 140.552893 
L 254.760818 145.606999 
L 254.760818 150.950637 
L 256.495894 156.004742 
L 259.778025 160.221623 
L 264.25154 163.144316 
L 269.431664 164.456102 
L 274.757051 164.014828 
L 279.650612 161.868313 
L 283.582055 158.249165 
L 286.125345 153.549576 
L 287.004879 148.278818 
" style="fill:none;stroke:#000000;stroke-dasharray:5.55,2.4;stroke-dashoffset:0;stroke-width:1.5;"/>
   </g>
   <g id="line2d_70">
    <path clip-path="url(#p6bded5545c)" d="M 275.236152 148.278818 
L 274.99428 146.829359 
L 274.294875 145.536972 
L 273.213729 144.541706 
L 271.867999 143.951415 
L 270.403518 143.830064 
L 268.978984 144.190805 
L 267.748767 144.994546 
L 266.846181 146.154188 
L 266.369035 147.544067 
L 266.369035 149.013568 
L 266.846181 150.403447 
L 267.748767 151.563089 
L 268.978984 152.36683 
L 270.403518 152.727571 
L 271.867999 152.60622 
L 273.213729 152.015929 
L 274.294875 151.020663 
L 274.99428 149.728276 
L 275.236152 148.278818 
" style="fill:none;stroke:#ff0000;stroke-linecap:square;stroke-width:1.5;"/>
   </g>
   <g id="line2d_71">
    <path clip-path="url(#p6bded5545c)" d="M 218.060226 224.235606 
L 217.180692 218.964849 
L 214.637402 214.265259 
L 210.705959 210.646111 
L 205.812398 208.499596 
L 200.487011 208.058322 
L 195.306887 209.370108 
L 190.833372 212.292801 
L 187.551241 216.509682 
L 185.816165 221.563787 
L 185.816165 226.907426 
L 187.551241 231.961531 
L 190.833372 236.178412 
L 195.306887 239.101105 
L 200.487011 240.412891 
L 205.812398 239.971617 
L 210.705959 237.825102 
L 214.637402 234.205954 
L 217.180692 229.506364 
L 218.060226 224.235606 
" style="fill:none;stroke:#000000;stroke-dasharray:5.55,2.4;stroke-dashoffset:0;stroke-width:1.5;"/>
   </g>
   <g id="line2d_72">
    <path clip-path="url(#p6bded5545c)" d="M 206.291499 224.235606 
L 206.049627 222.786148 
L 205.350222 221.493761 
L 204.269076 220.498495 
L 202.923346 219.908204 
L 201.458865 219.786853 
L 200.034331 220.147594 
L 198.804114 220.951335 
L 197.901528 222.110977 
L 197.424382 223.500856 
L 197.424382 224.970357 
L 197.901528 226.360236 
L 198.804114 227.519878 
L 200.034331 228.323619 
L 201.458865 228.68436 
L 202.923346 228.563009 
L 204.269076 227.972718 
L 205.350222 226.977452 
L 206.049627 225.685065 
L 206.291499 224.235606 
" style="fill:none;stroke:#ff0000;stroke-linecap:square;stroke-width:1.5;"/>
   </g>
   <g id="line2d_73">
    <path clip-path="url(#p6bded5545c)" d="M 92.290909 493.789091 
L 92.290909 87.970909 
" style="fill:none;stroke:#000000;stroke-linecap:square;stroke-width:4;"/>
   </g>
   <g id="line2d_74">
    <path clip-path="url(#p6bded5545c)" d="M 92.290909 87.970909 
L 498.109091 87.970909 
" style="fill:none;stroke:#000000;stroke-linecap:square;stroke-width:4;"/>
   </g>
   <g id="line2d_75">
    <path clip-path="url(#p6bded5545c)" d="M 498.109091 87.970909 
L 498.109091 493.789091 
" style="fill:none;stroke:#000000;stroke-linecap:square;stroke-width:4;"/>
   </g>
   <g id="line2d_76">
    <path clip-path="url(#p6bded5545c)" d="M 498.109091 493.789091 
L 92.290909 493.789091 
" style="fill:none;stroke:#000000;stroke-linecap:square;stroke-width:4;"/>
   </g>
   <g id="patch_3">
    <path d="M 72 512.64 
L 72 69.12 
" style="fill:none;stroke:#000000;stroke-linecap:square;stroke-linejoin:miter;stroke-width:0.8;"/>
   </g>
   <g id="patch_4">
    <path d="M 518.4 512.64 
L 518.4 69.12 
" style="fill:none;stroke:#000000;stroke-linecap:square;stroke-linejoin:miter;stroke-width:0.8;"/>
   </g>
   <g id="patch_5">
    <path d="M 72 512.64 
L 518.4 512.64 
" style="fill:none;stroke:#000000;stroke-linecap:square;stroke-linejoin:miter;stroke-width:0.8;"/>
   </g>
   <g id="patch_6">
    <path d="M 72 69.12 
L 518.4 69.12 
" style="fill:none;stroke:#000000;stroke-linecap:square;stroke-linejoin:miter;stroke-width:0.8;"/>
   </g>
   <g id="text_12">
    <!-- 1 -->
    <defs>
     <path d="M 14.203125 0 
L 14.203125 5.171875 
L 26.90625 5.171875 
L 26.90625 65.828125 
L 12.203125 56.296875 
L 12.203125 62.703125 
L 29.984375 74.21875 
L 36.71875 74.21875 
L 36.71875 5.171875 
L 49.421875 5.171875 
L 49.421875 0 
z
" id="DejaVuSerif-31"/>
    </defs>
    <g transform="translate(271.856889 262.745345)scale(0.1 -0.1)">
     <use xlink:href="#DejaVuSerif-31"/>
    </g>
   </g>
   <g id="text_13">
    <!-- 1 -->
    <g transform="translate(302.912146 469.77184)scale(0.1 -0.1)">
     <use xlink:href="#DejaVuSerif-31"/>
    </g>
   </g>
   <g id="text_14">
    <!-- 2 -->
    <defs>
     <path d="M 12.796875 55.515625 
L 7.328125 55.515625 
L 7.328125 68.5 
Q 12.546875 71.296875 17.84375 72.75 
Q 23.140625 74.21875 28.21875 74.21875 
Q 39.59375 74.21875 46.1875 68.703125 
Q 52.78125 63.1875 52.78125 53.71875 
Q 52.78125 43.015625 37.84375 28.125 
Q 36.671875 27 36.078125 26.421875 
L 17.671875 8.015625 
L 48.09375 8.015625 
L 48.09375 17 
L 53.8125 17 
L 53.8125 0 
L 6.78125 0 
L 6.78125 5.328125 
L 28.90625 27.390625 
Q 36.234375 34.71875 39.359375 40.84375 
Q 42.484375 46.96875 42.484375 53.71875 
Q 42.484375 61.078125 38.640625 65.234375 
Q 34.8125 69.390625 28.078125 69.390625 
Q 21.09375 69.390625 17.28125 65.921875 
Q 13.484375 62.453125 12.796875 55.515625 
z
" id="DejaVuSerif-32"/>
    </defs>
    <g transform="translate(247.631772 444.063194)scale(0.1 -0.1)">
     <use xlink:href="#DejaVuSerif-32"/>
    </g>
   </g>
   <g id="text_15">
    <!-- 2 -->
    <g transform="translate(436.696489 311.663712)scale(0.1 -0.1)">
     <use xlink:href="#DejaVuSerif-32"/>
    </g>
   </g>
   <g id="text_16">
    <!-- 3 -->
    <defs>
     <path d="M 9.71875 69.828125 
Q 15.4375 71.96875 20.671875 73.09375 
Q 25.921875 74.21875 30.515625 74.21875 
Q 41.21875 74.21875 47.21875 69.59375 
Q 53.21875 64.984375 53.21875 56.78125 
Q 53.21875 50.203125 49.0625 45.78125 
Q 44.921875 41.359375 37.3125 39.796875 
Q 46.296875 38.53125 51.25 33.28125 
Q 56.203125 28.03125 56.203125 19.671875 
Q 56.203125 9.46875 49.34375 4.015625 
Q 42.484375 -1.421875 29.59375 -1.421875 
Q 23.875 -1.421875 18.421875 -0.1875 
Q 12.984375 1.03125 7.625 3.515625 
L 7.625 17.671875 
L 13.09375 17.671875 
Q 13.578125 10.640625 17.828125 7.03125 
Q 22.078125 3.421875 29.78125 3.421875 
Q 37.25 3.421875 41.578125 7.734375 
Q 45.90625 12.0625 45.90625 19.578125 
Q 45.90625 28.171875 41.453125 32.59375 
Q 37.015625 37.015625 28.421875 37.015625 
L 23.78125 37.015625 
L 23.78125 42 
L 26.21875 42 
Q 34.765625 42 39.03125 45.53125 
Q 43.3125 49.078125 43.3125 56.203125 
Q 43.3125 62.59375 39.796875 65.984375 
Q 36.28125 69.390625 29.6875 69.390625 
Q 23.09375 69.390625 19.453125 66.265625 
Q 15.828125 63.140625 15.1875 56.984375 
L 9.71875 56.984375 
z
" id="DejaVuSerif-33"/>
    </defs>
    <g transform="translate(154.154575 170.025349)scale(0.1 -0.1)">
     <use xlink:href="#DejaVuSerif-33"/>
    </g>
   </g>
   <g id="text_17">
    <!-- 3 -->
    <g transform="translate(132.895893 458.338684)scale(0.1 -0.1)">
     <use xlink:href="#DejaVuSerif-33"/>
    </g>
   </g>
   <g id="text_18">
    <!-- 4 -->
    <defs>
     <path d="M 34.90625 24.703125 
L 34.90625 63.484375 
L 10.015625 24.703125 
z
M 56.390625 0 
L 23.1875 0 
L 23.1875 5.171875 
L 34.90625 5.171875 
L 34.90625 19.484375 
L 3.078125 19.484375 
L 3.078125 24.8125 
L 35.015625 74.21875 
L 44.671875 74.21875 
L 44.671875 24.703125 
L 58.59375 24.703125 
L 58.59375 19.484375 
L 44.671875 19.484375 
L 44.671875 5.171875 
L 56.390625 5.171875 
z
" id="DejaVuSerif-34"/>
    </defs>
    <g transform="translate(202.24315 115.333453)scale(0.1 -0.1)">
     <use xlink:href="#DejaVuSerif-34"/>
    </g>
   </g>
   <g id="text_19">
    <!-- 4 -->
    <g transform="translate(433.636325 398.129289)scale(0.1 -0.1)">
     <use xlink:href="#DejaVuSerif-34"/>
    </g>
   </g>
   <g id="text_20">
    <!-- 5 -->
    <defs>
     <path d="M 50.296875 72.90625 
L 50.296875 64.890625 
L 16.890625 64.890625 
L 16.890625 44 
Q 19.4375 45.75 22.828125 46.625 
Q 26.21875 47.515625 30.421875 47.515625 
Q 42.234375 47.515625 49.0625 40.96875 
Q 55.90625 34.421875 55.90625 23.09375 
Q 55.90625 11.53125 49 5.046875 
Q 42.09375 -1.421875 29.59375 -1.421875 
Q 24.5625 -1.421875 19.28125 -0.1875 
Q 14.015625 1.03125 8.5 3.515625 
L 8.5 17.671875 
L 14.015625 17.671875 
Q 14.453125 10.75 18.421875 7.078125 
Q 22.40625 3.421875 29.59375 3.421875 
Q 37.3125 3.421875 41.453125 8.5 
Q 45.609375 13.578125 45.609375 23.09375 
Q 45.609375 32.5625 41.484375 37.609375 
Q 37.359375 42.671875 29.59375 42.671875 
Q 25.203125 42.671875 21.84375 41.109375 
Q 18.5 39.546875 15.921875 36.28125 
L 11.71875 36.28125 
L 11.71875 72.90625 
z
" id="DejaVuSerif-35"/>
    </defs>
    <g transform="translate(169.758953 339.650559)scale(0.1 -0.1)">
     <use xlink:href="#DejaVuSerif-35"/>
    </g>
   </g>
   <g id="text_21">
    <!-- 5 -->
    <g transform="translate(440.017691 356.168243)scale(0.1 -0.1)">
     <use xlink:href="#DejaVuSerif-35"/>
    </g>
   </g>
   <g id="text_22">
    <!-- 6 -->
    <defs>
     <path d="M 32.71875 3.421875 
Q 39.59375 3.421875 43.296875 8.46875 
Q 47.015625 13.53125 47.015625 23 
Q 47.015625 32.46875 43.296875 37.515625 
Q 39.59375 42.578125 32.71875 42.578125 
Q 25.734375 42.578125 22.0625 37.6875 
Q 18.40625 32.8125 18.40625 23.578125 
Q 18.40625 13.875 22.109375 8.640625 
Q 25.828125 3.421875 32.71875 3.421875 
z
M 16.796875 40.140625 
Q 20.125 43.796875 24.3125 45.59375 
Q 28.515625 47.40625 33.796875 47.40625 
Q 44.671875 47.40625 51 40.859375 
Q 57.328125 34.328125 57.328125 23 
Q 57.328125 11.921875 50.515625 5.25 
Q 43.703125 -1.421875 32.328125 -1.421875 
Q 19.96875 -1.421875 13.328125 7.78125 
Q 6.6875 17 6.6875 34.078125 
Q 6.6875 53.21875 14.546875 63.71875 
Q 22.40625 74.21875 36.71875 74.21875 
Q 40.578125 74.21875 44.828125 73.484375 
Q 49.078125 72.75 53.515625 71.296875 
L 53.515625 59.28125 
L 48 59.28125 
Q 47.40625 64.203125 44.234375 66.796875 
Q 41.0625 69.390625 35.6875 69.390625 
Q 26.21875 69.390625 21.578125 62.203125 
Q 16.9375 55.03125 16.796875 40.140625 
z
" id="DejaVuSerif-36"/>
    </defs>
    <g transform="translate(329.962699 387.182245)scale(0.1 -0.1)">
     <use xlink:href="#DejaVuSerif-36"/>
    </g>
   </g>
   <g id="text_23">
    <!-- 6 -->
    <g transform="translate(155.901619 251.517049)scale(0.1 -0.1)">
     <use xlink:href="#DejaVuSerif-36"/>
    </g>
   </g>
   <g id="text_24">
    <!-- 7 -->
    <defs>
     <path d="M 56.390625 67.921875 
L 27.875 0 
L 20.609375 0 
L 47.796875 64.890625 
L 14.109375 64.890625 
L 14.109375 55.90625 
L 8.40625 55.90625 
L 8.40625 72.90625 
L 56.390625 72.90625 
z
" id="DejaVuSerif-37"/>
    </defs>
    <g transform="translate(230.727104 361.779818)scale(0.1 -0.1)">
     <use xlink:href="#DejaVuSerif-37"/>
    </g>
   </g>
   <g id="text_25">
    <!-- 7 -->
    <g transform="translate(323.749473 167.727766)scale(0.1 -0.1)">
     <use xlink:href="#DejaVuSerif-37"/>
    </g>
   </g>
   <g id="text_26">
    <!-- 8 -->
    <defs>
     <path d="M 46.578125 19.921875 
Q 46.578125 27.734375 42.6875 32.046875 
Q 38.8125 36.375 31.78125 36.375 
Q 24.75 36.375 20.875 32.046875 
Q 17 27.734375 17 19.921875 
Q 17 12.0625 20.875 7.734375 
Q 24.75 3.421875 31.78125 3.421875 
Q 38.8125 3.421875 42.6875 7.734375 
Q 46.578125 12.0625 46.578125 19.921875 
z
M 44.578125 55.328125 
Q 44.578125 61.96875 41.203125 65.671875 
Q 37.84375 69.390625 31.78125 69.390625 
Q 25.78125 69.390625 22.390625 65.671875 
Q 19 61.96875 19 55.328125 
Q 19 48.640625 22.390625 44.921875 
Q 25.78125 41.21875 31.78125 41.21875 
Q 37.84375 41.21875 41.203125 44.921875 
Q 44.578125 48.640625 44.578125 55.328125 
z
M 39.3125 38.8125 
Q 47.609375 37.703125 52.25 32.6875 
Q 56.890625 27.6875 56.890625 19.921875 
Q 56.890625 9.671875 50.390625 4.125 
Q 43.890625 -1.421875 31.78125 -1.421875 
Q 19.734375 -1.421875 13.203125 4.125 
Q 6.6875 9.671875 6.6875 19.921875 
Q 6.6875 27.6875 11.328125 32.6875 
Q 15.96875 37.703125 24.3125 38.8125 
Q 16.9375 40.140625 13 44.40625 
Q 9.078125 48.6875 9.078125 55.328125 
Q 9.078125 64.109375 15.125 69.15625 
Q 21.1875 74.21875 31.78125 74.21875 
Q 42.390625 74.21875 48.4375 69.15625 
Q 54.5 64.109375 54.5 55.328125 
Q 54.5 48.6875 50.5625 44.40625 
Q 46.625 40.140625 39.3125 38.8125 
z
" id="DejaVuSerif-38"/>
    </defs>
    <g transform="translate(276.422794 201.285592)scale(0.1 -0.1)">
     <use xlink:href="#DejaVuSerif-38"/>
    </g>
   </g>
   <g id="text_27">
    <!-- 8 -->
    <g transform="translate(222.390992 407.818984)scale(0.1 -0.1)">
     <use xlink:href="#DejaVuSerif-38"/>
    </g>
   </g>
  </g>
 </g>
 <defs>
  <clipPath id="p6bded5545c">
   <rect height="443.52" width="446.4" x="72" y="69.12"/>
  </clipPath>
 </defs>
</svg>
