<?xml version="1.0" encoding="utf-8" standalone="no"?>
<!DOCTYPE svg PUBLIC "-//W3C//DTD SVG 1.1//EN"
  "http://www.w3.org/Graphics/SVG/1.1/DTD/svg11.dtd">
<!-- Created with matplotlib (http://matplotlib.org/) -->
<svg height="576pt" version="1.1" viewBox="0 0 576 576" width="576pt" xmlns="http://www.w3.org/2000/svg" xmlns:xlink="http://www.w3.org/1999/xlink">
 <defs>
  <style type="text/css">
*{stroke-linecap:butt;stroke-linejoin:round;}
  </style>
 </defs>
 <g id="figure_1">
  <g id="patch_1">
   <path d="M 0 576 
L 576 576 
L 576 0 
L 0 0 
z
" style="fill:#ffffff;"/>
  </g>
  <g id="axes_1">
   <g id="patch_2">
    <path d="M 72 512.64 
L 518.4 512.64 
L 518.4 69.12 
L 72 69.12 
z
" style="fill:#ffffff;"/>
   </g>
   <g id="matplotlib.axis_1">
    <g id="xtick_1">
     <g id="line2d_1">
      <defs>
       <path d="M 0 0 
L 0 3.5 
" id="md46e6f19b8" style="stroke:#000000;stroke-width:0.8;"/>
      </defs>
      <g>
       <use style="stroke:#000000;stroke-width:0.8;" x="72" xlink:href="#md46e6f19b8" y="512.64"/>
      </g>
     </g>
     <g id="text_1">
      <!-- −1 -->
      <defs>
       <path d="M 10.59375 35.5 
L 73.1875 35.5 
L 73.1875 27.203125 
L 10.59375 27.203125 
z
" id="DejaVuSans-2212"/>
       <path d="M 12.40625 8.296875 
L 28.515625 8.296875 
L 28.515625 63.921875 
L 10.984375 60.40625 
L 10.984375 69.390625 
L 28.421875 72.90625 
L 38.28125 72.90625 
L 38.28125 8.296875 
L 54.390625 8.296875 
L 54.390625 0 
L 12.40625 0 
z
" id="DejaVuSans-31"/>
      </defs>
      <g transform="translate(64.628906 527.238438)scale(0.1 -0.1)">
       <use xlink:href="#DejaVuSans-2212"/>
       <use x="83.789062" xlink:href="#DejaVuSans-31"/>
      </g>
     </g>
    </g>
    <g id="xtick_2">
     <g id="line2d_2">
      <g>
       <use style="stroke:#000000;stroke-width:0.8;" x="125.783133" xlink:href="#md46e6f19b8" y="512.64"/>
      </g>
     </g>
     <g id="text_2">
      <!-- 0 -->
      <defs>
       <path d="M 31.78125 66.40625 
Q 24.171875 66.40625 20.328125 58.90625 
Q 16.5 51.421875 16.5 36.375 
Q 16.5 21.390625 20.328125 13.890625 
Q 24.171875 6.390625 31.78125 6.390625 
Q 39.453125 6.390625 43.28125 13.890625 
Q 47.125 21.390625 47.125 36.375 
Q 47.125 51.421875 43.28125 58.90625 
Q 39.453125 66.40625 31.78125 66.40625 
z
M 31.78125 74.21875 
Q 44.046875 74.21875 50.515625 64.515625 
Q 56.984375 54.828125 56.984375 36.375 
Q 56.984375 17.96875 50.515625 8.265625 
Q 44.046875 -1.421875 31.78125 -1.421875 
Q 19.53125 -1.421875 13.0625 8.265625 
Q 6.59375 17.96875 6.59375 36.375 
Q 6.59375 54.828125 13.0625 64.515625 
Q 19.53125 74.21875 31.78125 74.21875 
z
" id="DejaVuSans-30"/>
      </defs>
      <g transform="translate(122.601883 527.238438)scale(0.1 -0.1)">
       <use xlink:href="#DejaVuSans-30"/>
      </g>
     </g>
    </g>
    <g id="xtick_3">
     <g id="line2d_3">
      <g>
       <use style="stroke:#000000;stroke-width:0.8;" x="179.566265" xlink:href="#md46e6f19b8" y="512.64"/>
      </g>
     </g>
     <g id="text_3">
      <!-- 1 -->
      <g transform="translate(176.385015 527.238438)scale(0.1 -0.1)">
       <use xlink:href="#DejaVuSans-31"/>
      </g>
     </g>
    </g>
    <g id="xtick_4">
     <g id="line2d_4">
      <g>
       <use style="stroke:#000000;stroke-width:0.8;" x="233.349398" xlink:href="#md46e6f19b8" y="512.64"/>
      </g>
     </g>
     <g id="text_4">
      <!-- 2 -->
      <defs>
       <path d="M 19.1875 8.296875 
L 53.609375 8.296875 
L 53.609375 0 
L 7.328125 0 
L 7.328125 8.296875 
Q 12.9375 14.109375 22.625 23.890625 
Q 32.328125 33.6875 34.8125 36.53125 
Q 39.546875 41.84375 41.421875 45.53125 
Q 43.3125 49.21875 43.3125 52.78125 
Q 43.3125 58.59375 39.234375 62.25 
Q 35.15625 65.921875 28.609375 65.921875 
Q 23.96875 65.921875 18.8125 64.3125 
Q 13.671875 62.703125 7.8125 59.421875 
L 7.8125 69.390625 
Q 13.765625 71.78125 18.9375 73 
Q 24.125 74.21875 28.421875 74.21875 
Q 39.75 74.21875 46.484375 68.546875 
Q 53.21875 62.890625 53.21875 53.421875 
Q 53.21875 48.921875 51.53125 44.890625 
Q 49.859375 40.875 45.40625 35.40625 
Q 44.1875 33.984375 37.640625 27.21875 
Q 31.109375 20.453125 19.1875 8.296875 
z
" id="DejaVuSans-32"/>
      </defs>
      <g transform="translate(230.168148 527.238438)scale(0.1 -0.1)">
       <use xlink:href="#DejaVuSans-32"/>
      </g>
     </g>
    </g>
    <g id="xtick_5">
     <g id="line2d_5">
      <g>
       <use style="stroke:#000000;stroke-width:0.8;" x="287.13253" xlink:href="#md46e6f19b8" y="512.64"/>
      </g>
     </g>
     <g id="text_5">
      <!-- 3 -->
      <defs>
       <path d="M 40.578125 39.3125 
Q 47.65625 37.796875 51.625 33 
Q 55.609375 28.21875 55.609375 21.1875 
Q 55.609375 10.40625 48.1875 4.484375 
Q 40.765625 -1.421875 27.09375 -1.421875 
Q 22.515625 -1.421875 17.65625 -0.515625 
Q 12.796875 0.390625 7.625 2.203125 
L 7.625 11.71875 
Q 11.71875 9.328125 16.59375 8.109375 
Q 21.484375 6.890625 26.8125 6.890625 
Q 36.078125 6.890625 40.9375 10.546875 
Q 45.796875 14.203125 45.796875 21.1875 
Q 45.796875 27.640625 41.28125 31.265625 
Q 36.765625 34.90625 28.71875 34.90625 
L 20.21875 34.90625 
L 20.21875 43.015625 
L 29.109375 43.015625 
Q 36.375 43.015625 40.234375 45.921875 
Q 44.09375 48.828125 44.09375 54.296875 
Q 44.09375 59.90625 40.109375 62.90625 
Q 36.140625 65.921875 28.71875 65.921875 
Q 24.65625 65.921875 20.015625 65.03125 
Q 15.375 64.15625 9.8125 62.3125 
L 9.8125 71.09375 
Q 15.4375 72.65625 20.34375 73.4375 
Q 25.25 74.21875 29.59375 74.21875 
Q 40.828125 74.21875 47.359375 69.109375 
Q 53.90625 64.015625 53.90625 55.328125 
Q 53.90625 49.265625 50.4375 45.09375 
Q 46.96875 40.921875 40.578125 39.3125 
z
" id="DejaVuSans-33"/>
      </defs>
      <g transform="translate(283.95128 527.238438)scale(0.1 -0.1)">
       <use xlink:href="#DejaVuSans-33"/>
      </g>
     </g>
    </g>
    <g id="xtick_6">
     <g id="line2d_6">
      <g>
       <use style="stroke:#000000;stroke-width:0.8;" x="340.915663" xlink:href="#md46e6f19b8" y="512.64"/>
      </g>
     </g>
     <g id="text_6">
      <!-- 4 -->
      <defs>
       <path d="M 37.796875 64.3125 
L 12.890625 25.390625 
L 37.796875 25.390625 
z
M 35.203125 72.90625 
L 47.609375 72.90625 
L 47.609375 25.390625 
L 58.015625 25.390625 
L 58.015625 17.1875 
L 47.609375 17.1875 
L 47.609375 0 
L 37.796875 0 
L 37.796875 17.1875 
L 4.890625 17.1875 
L 4.890625 26.703125 
z
" id="DejaVuSans-34"/>
      </defs>
      <g transform="translate(337.734413 527.238438)scale(0.1 -0.1)">
       <use xlink:href="#DejaVuSans-34"/>
      </g>
     </g>
    </g>
    <g id="xtick_7">
     <g id="line2d_7">
      <g>
       <use style="stroke:#000000;stroke-width:0.8;" x="394.698795" xlink:href="#md46e6f19b8" y="512.64"/>
      </g>
     </g>
     <g id="text_7">
      <!-- 5 -->
      <defs>
       <path d="M 10.796875 72.90625 
L 49.515625 72.90625 
L 49.515625 64.59375 
L 19.828125 64.59375 
L 19.828125 46.734375 
Q 21.96875 47.46875 24.109375 47.828125 
Q 26.265625 48.1875 28.421875 48.1875 
Q 40.625 48.1875 47.75 41.5 
Q 54.890625 34.8125 54.890625 23.390625 
Q 54.890625 11.625 47.5625 5.09375 
Q 40.234375 -1.421875 26.90625 -1.421875 
Q 22.3125 -1.421875 17.546875 -0.640625 
Q 12.796875 0.140625 7.71875 1.703125 
L 7.71875 11.625 
Q 12.109375 9.234375 16.796875 8.0625 
Q 21.484375 6.890625 26.703125 6.890625 
Q 35.15625 6.890625 40.078125 11.328125 
Q 45.015625 15.765625 45.015625 23.390625 
Q 45.015625 31 40.078125 35.4375 
Q 35.15625 39.890625 26.703125 39.890625 
Q 22.75 39.890625 18.8125 39.015625 
Q 14.890625 38.140625 10.796875 36.28125 
z
" id="DejaVuSans-35"/>
      </defs>
      <g transform="translate(391.517545 527.238438)scale(0.1 -0.1)">
       <use xlink:href="#DejaVuSans-35"/>
      </g>
     </g>
    </g>
    <g id="xtick_8">
     <g id="line2d_8">
      <g>
       <use style="stroke:#000000;stroke-width:0.8;" x="448.481928" xlink:href="#md46e6f19b8" y="512.64"/>
      </g>
     </g>
     <g id="text_8">
      <!-- 6 -->
      <defs>
       <path d="M 33.015625 40.375 
Q 26.375 40.375 22.484375 35.828125 
Q 18.609375 31.296875 18.609375 23.390625 
Q 18.609375 15.53125 22.484375 10.953125 
Q 26.375 6.390625 33.015625 6.390625 
Q 39.65625 6.390625 43.53125 10.953125 
Q 47.40625 15.53125 47.40625 23.390625 
Q 47.40625 31.296875 43.53125 35.828125 
Q 39.65625 40.375 33.015625 40.375 
z
M 52.59375 71.296875 
L 52.59375 62.3125 
Q 48.875 64.0625 45.09375 64.984375 
Q 41.3125 65.921875 37.59375 65.921875 
Q 27.828125 65.921875 22.671875 59.328125 
Q 17.53125 52.734375 16.796875 39.40625 
Q 19.671875 43.65625 24.015625 45.921875 
Q 28.375 48.1875 33.59375 48.1875 
Q 44.578125 48.1875 50.953125 41.515625 
Q 57.328125 34.859375 57.328125 23.390625 
Q 57.328125 12.15625 50.6875 5.359375 
Q 44.046875 -1.421875 33.015625 -1.421875 
Q 20.359375 -1.421875 13.671875 8.265625 
Q 6.984375 17.96875 6.984375 36.375 
Q 6.984375 53.65625 15.1875 63.9375 
Q 23.390625 74.21875 37.203125 74.21875 
Q 40.921875 74.21875 44.703125 73.484375 
Q 48.484375 72.75 52.59375 71.296875 
z
" id="DejaVuSans-36"/>
      </defs>
      <g transform="translate(445.300678 527.238438)scale(0.1 -0.1)">
       <use xlink:href="#DejaVuSans-36"/>
      </g>
     </g>
    </g>
    <g id="xtick_9">
     <g id="line2d_9">
      <g>
       <use style="stroke:#000000;stroke-width:0.8;" x="502.26506" xlink:href="#md46e6f19b8" y="512.64"/>
      </g>
     </g>
     <g id="text_9">
      <!-- 7 -->
      <defs>
       <path d="M 8.203125 72.90625 
L 55.078125 72.90625 
L 55.078125 68.703125 
L 28.609375 0 
L 18.3125 0 
L 43.21875 64.59375 
L 8.203125 64.59375 
z
" id="DejaVuSans-37"/>
      </defs>
      <g transform="translate(499.08381 527.238438)scale(0.1 -0.1)">
       <use xlink:href="#DejaVuSans-37"/>
      </g>
     </g>
    </g>
   </g>
   <g id="matplotlib.axis_2">
    <g id="ytick_1">
     <g id="line2d_10">
      <defs>
       <path d="M 0 0 
L -3.5 0 
" id="mf7f7151614" style="stroke:#000000;stroke-width:0.8;"/>
      </defs>
      <g>
       <use style="stroke:#000000;stroke-width:0.8;" x="72" xlink:href="#mf7f7151614" y="460.296867"/>
      </g>
     </g>
     <g id="text_10">
      <!-- 0 -->
      <g transform="translate(58.6375 464.096086)scale(0.1 -0.1)">
       <use xlink:href="#DejaVuSans-30"/>
      </g>
     </g>
    </g>
    <g id="ytick_2">
     <g id="line2d_11">
      <g>
       <use style="stroke:#000000;stroke-width:0.8;" x="72" xlink:href="#mf7f7151614" y="406.513735"/>
      </g>
     </g>
     <g id="text_11">
      <!-- 1 -->
      <g transform="translate(58.6375 410.312954)scale(0.1 -0.1)">
       <use xlink:href="#DejaVuSans-31"/>
      </g>
     </g>
    </g>
    <g id="ytick_3">
     <g id="line2d_12">
      <g>
       <use style="stroke:#000000;stroke-width:0.8;" x="72" xlink:href="#mf7f7151614" y="352.730602"/>
      </g>
     </g>
     <g id="text_12">
      <!-- 2 -->
      <g transform="translate(58.6375 356.529821)scale(0.1 -0.1)">
       <use xlink:href="#DejaVuSans-32"/>
      </g>
     </g>
    </g>
    <g id="ytick_4">
     <g id="line2d_13">
      <g>
       <use style="stroke:#000000;stroke-width:0.8;" x="72" xlink:href="#mf7f7151614" y="298.94747"/>
      </g>
     </g>
     <g id="text_13">
      <!-- 3 -->
      <g transform="translate(58.6375 302.746689)scale(0.1 -0.1)">
       <use xlink:href="#DejaVuSans-33"/>
      </g>
     </g>
    </g>
    <g id="ytick_5">
     <g id="line2d_14">
      <g>
       <use style="stroke:#000000;stroke-width:0.8;" x="72" xlink:href="#mf7f7151614" y="245.164337"/>
      </g>
     </g>
     <g id="text_14">
      <!-- 4 -->
      <g transform="translate(58.6375 248.963556)scale(0.1 -0.1)">
       <use xlink:href="#DejaVuSans-34"/>
      </g>
     </g>
    </g>
    <g id="ytick_6">
     <g id="line2d_15">
      <g>
       <use style="stroke:#000000;stroke-width:0.8;" x="72" xlink:href="#mf7f7151614" y="191.381205"/>
      </g>
     </g>
     <g id="text_15">
      <!-- 5 -->
      <g transform="translate(58.6375 195.180424)scale(0.1 -0.1)">
       <use xlink:href="#DejaVuSans-35"/>
      </g>
     </g>
    </g>
    <g id="ytick_7">
     <g id="line2d_16">
      <g>
       <use style="stroke:#000000;stroke-width:0.8;" x="72" xlink:href="#mf7f7151614" y="137.598072"/>
      </g>
     </g>
     <g id="text_16">
      <!-- 6 -->
      <g transform="translate(58.6375 141.397291)scale(0.1 -0.1)">
       <use xlink:href="#DejaVuSans-36"/>
      </g>
     </g>
    </g>
    <g id="ytick_8">
     <g id="line2d_17">
      <g>
       <use style="stroke:#000000;stroke-width:0.8;" x="72" xlink:href="#mf7f7151614" y="83.81494"/>
      </g>
     </g>
     <g id="text_17">
      <!-- 7 -->
      <g transform="translate(58.6375 87.614159)scale(0.1 -0.1)">
       <use xlink:href="#DejaVuSans-37"/>
      </g>
     </g>
    </g>
   </g>
   <g id="line2d_18">
    <path clip-path="url(#p19145b9dea)" d="M 129.060719 442.779241 
" style="fill:none;stroke:#1f77b4;stroke-linecap:square;stroke-width:1.5;"/>
    <defs>
     <path d="M -5 5 
L 5 5 
L 5 -5 
L -5 -5 
z
" id="mbaf239a788" style="stroke:#8000ff;stroke-linejoin:miter;"/>
    </defs>
    <g clip-path="url(#p19145b9dea)">
     <use style="fill:#8000ff;stroke:#8000ff;stroke-linejoin:miter;" x="129.060719" xlink:href="#mbaf239a788" y="442.779241"/>
    </g>
   </g>
   <g id="line2d_19">
    <path clip-path="url(#p19145b9dea)" d="M 142.859114 164.772056 
" style="fill:none;stroke:#ff7f0e;stroke-linecap:square;stroke-width:1.5;"/>
    <defs>
     <path d="M 0 -5 
L -4.755283 -1.545085 
L -2.938926 4.045085 
L 2.938926 4.045085 
L 4.755283 -1.545085 
z
" id="mddf794fe61" style="stroke:#8000ff;stroke-linejoin:miter;"/>
    </defs>
    <g clip-path="url(#p19145b9dea)">
     <use style="fill:#8000ff;stroke:#8000ff;stroke-linejoin:miter;" x="142.859114" xlink:href="#mddf794fe61" y="164.772056"/>
    </g>
   </g>
   <g id="line2d_20">
    <path clip-path="url(#p19145b9dea)" d="M 192.732096 132.055727 
" style="fill:none;stroke:#2ca02c;stroke-linecap:square;stroke-width:1.5;"/>
    <defs>
     <path d="M -5 5 
L 5 5 
L 5 -5 
L -5 -5 
z
" id="me76651e181" style="stroke:#376ff9;stroke-linejoin:miter;"/>
    </defs>
    <g clip-path="url(#p19145b9dea)">
     <use style="fill:#376ff9;stroke:#376ff9;stroke-linejoin:miter;" x="192.732096" xlink:href="#me76651e181" y="132.055727"/>
    </g>
   </g>
   <g id="line2d_21">
    <path clip-path="url(#p19145b9dea)" d="M 396.130433 211.087209 
" style="fill:none;stroke:#d62728;stroke-linecap:square;stroke-width:1.5;"/>
    <defs>
     <path d="M 0 -5 
L -4.755283 -1.545085 
L -2.938926 4.045085 
L 2.938926 4.045085 
L 4.755283 -1.545085 
z
" id="mce93677aab" style="stroke:#376ff9;stroke-linejoin:miter;"/>
    </defs>
    <g clip-path="url(#p19145b9dea)">
     <use style="fill:#376ff9;stroke:#376ff9;stroke-linejoin:miter;" x="396.130433" xlink:href="#mce93677aab" y="211.087209"/>
    </g>
   </g>
   <g id="line2d_22">
    <path clip-path="url(#p19145b9dea)" d="M 126.007251 269.694595 
" style="fill:none;stroke:#9467bd;stroke-linecap:square;stroke-width:1.5;"/>
    <defs>
     <path d="M -5 5 
L 5 5 
L 5 -5 
L -5 -5 
z
" id="mad502dd1aa" style="stroke:#12c7e6;stroke-linejoin:miter;"/>
    </defs>
    <g clip-path="url(#p19145b9dea)">
     <use style="fill:#12c7e6;stroke:#12c7e6;stroke-linejoin:miter;" x="126.007251" xlink:href="#mad502dd1aa" y="269.694595"/>
    </g>
   </g>
   <g id="line2d_23">
    <path clip-path="url(#p19145b9dea)" d="M 395.910851 392.412119 
" style="fill:none;stroke:#8c564b;stroke-linecap:square;stroke-width:1.5;"/>
    <defs>
     <path d="M 0 -5 
L -4.755283 -1.545085 
L -2.938926 4.045085 
L 2.938926 4.045085 
L 4.755283 -1.545085 
z
" id="m357a9037b9" style="stroke:#12c7e6;stroke-linejoin:miter;"/>
    </defs>
    <g clip-path="url(#p19145b9dea)">
     <use style="fill:#12c7e6;stroke:#12c7e6;stroke-linejoin:miter;" x="395.910851" xlink:href="#m357a9037b9" y="392.412119"/>
    </g>
   </g>
   <g id="line2d_24">
    <path clip-path="url(#p19145b9dea)" d="M 181.630128 335.118503 
" style="fill:none;stroke:#e377c2;stroke-linecap:square;stroke-width:1.5;"/>
    <defs>
     <path d="M -5 5 
L 5 5 
L 5 -5 
L -5 -5 
z
" id="m37dfa3fe27" style="stroke:#5bf9c7;stroke-linejoin:miter;"/>
    </defs>
    <g clip-path="url(#p19145b9dea)">
     <use style="fill:#5bf9c7;stroke:#5bf9c7;stroke-linejoin:miter;" x="181.630128" xlink:href="#m37dfa3fe27" y="335.118503"/>
    </g>
   </g>
   <g id="line2d_25">
    <path clip-path="url(#p19145b9dea)" d="M 442.427477 401.05091 
" style="fill:none;stroke:#7f7f7f;stroke-linecap:square;stroke-width:1.5;"/>
    <defs>
     <path d="M 0 -5 
L -4.755283 -1.545085 
L -2.938926 4.045085 
L 2.938926 4.045085 
L 4.755283 -1.545085 
z
" id="m5cb701607b" style="stroke:#5bf9c7;stroke-linejoin:miter;"/>
    </defs>
    <g clip-path="url(#p19145b9dea)">
     <use style="fill:#5bf9c7;stroke:#5bf9c7;stroke-linejoin:miter;" x="442.427477" xlink:href="#m5cb701607b" y="401.05091"/>
    </g>
   </g>
   <g id="line2d_26">
    <path clip-path="url(#p19145b9dea)" d="M 279.842948 432.886338 
" style="fill:none;stroke:#bcbd22;stroke-linecap:square;stroke-width:1.5;"/>
    <defs>
     <path d="M -5 5 
L 5 5 
L 5 -5 
L -5 -5 
z
" id="m4e8f009878" style="stroke:#a4f99f;stroke-linejoin:miter;"/>
    </defs>
    <g clip-path="url(#p19145b9dea)">
     <use style="fill:#a4f99f;stroke:#a4f99f;stroke-linejoin:miter;" x="279.842948" xlink:href="#m4e8f009878" y="432.886338"/>
    </g>
   </g>
   <g id="line2d_27">
    <path clip-path="url(#p19145b9dea)" d="M 223.080965 173.055476 
" style="fill:none;stroke:#17becf;stroke-linecap:square;stroke-width:1.5;"/>
    <defs>
     <path d="M 0 -5 
L -4.755283 -1.545085 
L -2.938926 4.045085 
L 2.938926 4.045085 
L 4.755283 -1.545085 
z
" id="m52ee40eabb" style="stroke:#a4f99f;stroke-linejoin:miter;"/>
    </defs>
    <g clip-path="url(#p19145b9dea)">
     <use style="fill:#a4f99f;stroke:#a4f99f;stroke-linejoin:miter;" x="223.080965" xlink:href="#m52ee40eabb" y="173.055476"/>
    </g>
   </g>
   <g id="line2d_28">
    <path clip-path="url(#p19145b9dea)" d="M 437.684844 178.814645 
" style="fill:none;stroke:#1f77b4;stroke-linecap:square;stroke-width:1.5;"/>
    <defs>
     <path d="M -5 5 
L 5 5 
L 5 -5 
L -5 -5 
z
" id="m2494e85313" style="stroke:#edc76f;stroke-linejoin:miter;"/>
    </defs>
    <g clip-path="url(#p19145b9dea)">
     <use style="fill:#edc76f;stroke:#edc76f;stroke-linejoin:miter;" x="437.684844" xlink:href="#m2494e85313" y="178.814645"/>
    </g>
   </g>
   <g id="line2d_29">
    <path clip-path="url(#p19145b9dea)" d="M 231.785899 444.128679 
" style="fill:none;stroke:#ff7f0e;stroke-linecap:square;stroke-width:1.5;"/>
    <defs>
     <path d="M 0 -5 
L -4.755283 -1.545085 
L -2.938926 4.045085 
L 2.938926 4.045085 
L 4.755283 -1.545085 
z
" id="m401fea3791" style="stroke:#edc76f;stroke-linejoin:miter;"/>
    </defs>
    <g clip-path="url(#p19145b9dea)">
     <use style="fill:#edc76f;stroke:#edc76f;stroke-linejoin:miter;" x="231.785899" xlink:href="#m401fea3791" y="444.128679"/>
    </g>
   </g>
   <g id="line2d_30">
    <path clip-path="url(#p19145b9dea)" d="M 298.675855 300.471217 
" style="fill:none;stroke:#2ca02c;stroke-linecap:square;stroke-width:1.5;"/>
    <defs>
     <path d="M -5 5 
L 5 5 
L 5 -5 
L -5 -5 
z
" id="m394644cd76" style="stroke:#ff6f39;stroke-linejoin:miter;"/>
    </defs>
    <g clip-path="url(#p19145b9dea)">
     <use style="fill:#ff6f39;stroke:#ff6f39;stroke-linejoin:miter;" x="298.675855" xlink:href="#m394644cd76" y="300.471217"/>
    </g>
   </g>
   <g id="line2d_31">
    <path clip-path="url(#p19145b9dea)" d="M 428.655702 438.87994 
" style="fill:none;stroke:#d62728;stroke-linecap:square;stroke-width:1.5;"/>
    <defs>
     <path d="M 0 -5 
L -4.755283 -1.545085 
L -2.938926 4.045085 
L 2.938926 4.045085 
L 4.755283 -1.545085 
z
" id="me891e2cfe8" style="stroke:#ff6f39;stroke-linejoin:miter;"/>
    </defs>
    <g clip-path="url(#p19145b9dea)">
     <use style="fill:#ff6f39;stroke:#ff6f39;stroke-linejoin:miter;" x="428.655702" xlink:href="#me891e2cfe8" y="438.87994"/>
    </g>
   </g>
   <g id="line2d_32">
    <path clip-path="url(#p19145b9dea)" d="M 162.088455 403.715413 
" style="fill:none;stroke:#9467bd;stroke-linecap:square;stroke-width:1.5;"/>
    <defs>
     <path d="M -5 5 
L 5 5 
L 5 -5 
L -5 -5 
z
" id="m5cf9557b0f" style="stroke:#ff0000;stroke-linejoin:miter;"/>
    </defs>
    <g clip-path="url(#p19145b9dea)">
     <use style="fill:#ff0000;stroke:#ff0000;stroke-linejoin:miter;" x="162.088455" xlink:href="#m5cf9557b0f" y="403.715413"/>
    </g>
   </g>
   <g id="line2d_33">
    <path clip-path="url(#p19145b9dea)" d="M 283.817083 172.928161 
" style="fill:none;stroke:#8c564b;stroke-linecap:square;stroke-width:1.5;"/>
    <defs>
     <path d="M 0 -5 
L -4.755283 -1.545085 
L -2.938926 4.045085 
L 2.938926 4.045085 
L 4.755283 -1.545085 
z
" id="mfea08000d3" style="stroke:#ff0000;stroke-linejoin:miter;"/>
    </defs>
    <g clip-path="url(#p19145b9dea)">
     <use style="fill:#ff0000;stroke:#ff0000;stroke-linejoin:miter;" x="283.817083" xlink:href="#mfea08000d3" y="172.928161"/>
    </g>
   </g>
   <g id="line2d_34">
    <defs>
     <path d="M 0 2.5 
C 0.663008 2.5 1.29895 2.236584 1.767767 1.767767 
C 2.236584 1.29895 2.5 0.663008 2.5 0 
C 2.5 -0.663008 2.236584 -1.29895 1.767767 -1.767767 
C 1.29895 -2.236584 0.663008 -2.5 0 -2.5 
C -0.663008 -2.5 -1.29895 -2.236584 -1.767767 -1.767767 
C -2.236584 -1.29895 -2.5 -0.663008 -2.5 0 
C -2.5 0.663008 -2.236584 1.29895 -1.767767 1.767767 
C -1.29895 2.236584 -0.663008 2.5 0 2.5 
z
" id="mc6bcc0aa7a" style="stroke:#000000;"/>
    </defs>
    <g clip-path="url(#p19145b9dea)">
     <use style="stroke:#000000;" x="129.206954" xlink:href="#mc6bcc0aa7a" y="324.750101"/>
     <use style="stroke:#000000;" x="435.951307" xlink:href="#mc6bcc0aa7a" y="139.357905"/>
     <use style="stroke:#000000;" x="276.659609" xlink:href="#mc6bcc0aa7a" y="129.569035"/>
     <use style="stroke:#000000;" x="460.68022" xlink:href="#mc6bcc0aa7a" y="354.592469"/>
     <use style="stroke:#000000;" x="427.176264" xlink:href="#mc6bcc0aa7a" y="309.83044"/>
     <use style="stroke:#000000;" x="389.883713" xlink:href="#mc6bcc0aa7a" y="157.678016"/>
     <use style="stroke:#000000;" x="194.80659" xlink:href="#mc6bcc0aa7a" y="244.923569"/>
     <use style="stroke:#000000;" x="408.672076" xlink:href="#mc6bcc0aa7a" y="266.46852"/>
     <use style="stroke:#000000;" x="258.209909" xlink:href="#mc6bcc0aa7a" y="209.33797"/>
     <use style="stroke:#000000;" x="360.600946" xlink:href="#mc6bcc0aa7a" y="282.565046"/>
     <use style="stroke:#000000;" x="341.499997" xlink:href="#mc6bcc0aa7a" y="258.231757"/>
     <use style="stroke:#000000;" x="244.119763" xlink:href="#mc6bcc0aa7a" y="398.418419"/>
     <use style="stroke:#000000;" x="373.107846" xlink:href="#mc6bcc0aa7a" y="173.01969"/>
     <use style="stroke:#000000;" x="327.897111" xlink:href="#mc6bcc0aa7a" y="235.860649"/>
     <use style="stroke:#000000;" x="301.928785" xlink:href="#mc6bcc0aa7a" y="222.277778"/>
     <use style="stroke:#000000;" x="350.235613" xlink:href="#mc6bcc0aa7a" y="186.581734"/>
     <use style="stroke:#000000;" x="377.380075" xlink:href="#mc6bcc0aa7a" y="305.454528"/>
     <use style="stroke:#000000;" x="350.130462" xlink:href="#mc6bcc0aa7a" y="139.315234"/>
     <use style="stroke:#000000;" x="323.44432" xlink:href="#mc6bcc0aa7a" y="432.875911"/>
     <use style="stroke:#000000;" x="248.465408" xlink:href="#mc6bcc0aa7a" y="244.099939"/>
     <use style="stroke:#000000;" x="182.58522" xlink:href="#mc6bcc0aa7a" y="181.31224"/>
     <use style="stroke:#000000;" x="276.064882" xlink:href="#mc6bcc0aa7a" y="238.094705"/>
     <use style="stroke:#000000;" x="381.49578" xlink:href="#mc6bcc0aa7a" y="165.348853"/>
     <use style="stroke:#000000;" x="267.137395" xlink:href="#mc6bcc0aa7a" y="223.716338"/>
     <use style="stroke:#000000;" x="351.050471" xlink:href="#mc6bcc0aa7a" y="270.398402"/>
     <use style="stroke:#000000;" x="368.990511" xlink:href="#mc6bcc0aa7a" y="294.009787"/>
     <use style="stroke:#000000;" x="334.698554" xlink:href="#mc6bcc0aa7a" y="247.046203"/>
     <use style="stroke:#000000;" x="361.67173" xlink:href="#mc6bcc0aa7a" y="179.800712"/>
     <use style="stroke:#000000;" x="314.912948" xlink:href="#mc6bcc0aa7a" y="229.069213"/>
     <use style="stroke:#000000;" x="288.996833" xlink:href="#mc6bcc0aa7a" y="230.186241"/>
     <use style="stroke:#000000;" x="262.265145" xlink:href="#mc6bcc0aa7a" y="241.097322"/>
    </g>
   </g>
   <g id="line2d_35">
    <path clip-path="url(#p19145b9dea)" d="M 150.720207 324.750101 
L 149.554559 317.764759 
L 146.183933 311.536388 
L 140.973588 306.739927 
L 134.488145 303.895148 
L 127.430403 303.310327 
L 120.565178 305.048838 
L 114.636424 308.922286 
L 110.286612 314.510924 
L 107.987113 321.209136 
L 107.987113 328.291066 
L 110.286612 334.989278 
L 114.636424 340.577916 
L 120.565178 344.451364 
L 127.430403 346.189875 
L 134.488145 345.605054 
L 140.973588 342.760275 
L 146.183933 337.963815 
L 149.554559 331.735443 
L 150.720207 324.750101 
" style="fill:none;stroke:#000000;stroke-dasharray:5.55,2.4;stroke-dashoffset:0;stroke-width:1.5;"/>
   </g>
   <g id="line2d_36">
    <path clip-path="url(#p19145b9dea)" d="M 135.123098 324.750101 
L 134.802545 322.829132 
L 133.875623 321.11633 
L 132.442778 319.797303 
L 130.659281 319.014989 
L 128.718402 318.854163 
L 126.830466 319.332254 
L 125.200058 320.397452 
L 124.00386 321.934327 
L 123.371498 323.776336 
L 123.371498 325.723866 
L 124.00386 327.565875 
L 125.200058 329.10275 
L 126.830466 330.167948 
L 128.718402 330.646039 
L 130.659281 330.485213 
L 132.442778 329.702899 
L 133.875623 328.383872 
L 134.802545 326.67107 
L 135.123098 324.750101 
" style="fill:none;stroke:#ff0000;stroke-linecap:square;stroke-width:1.5;"/>
   </g>
   <g id="line2d_37">
    <path clip-path="url(#p19145b9dea)" d="M 457.46456 139.357905 
L 456.298912 132.372563 
L 452.928286 126.144191 
L 447.717941 121.347731 
L 441.232498 118.502952 
L 434.174756 117.918131 
L 427.309531 119.656642 
L 421.380777 123.53009 
L 417.030965 129.118728 
L 414.731466 135.81694 
L 414.731466 142.89887 
L 417.030965 149.597082 
L 421.380777 155.18572 
L 427.309531 159.059168 
L 434.174756 160.797679 
L 441.232498 160.212858 
L 447.717941 157.368079 
L 452.928286 152.571618 
L 456.298912 146.343247 
L 457.46456 139.357905 
" style="fill:none;stroke:#000000;stroke-dasharray:5.55,2.4;stroke-dashoffset:0;stroke-width:1.5;"/>
   </g>
   <g id="line2d_38">
    <path clip-path="url(#p19145b9dea)" d="M 441.867451 139.357905 
L 441.546898 137.436936 
L 440.619976 135.724134 
L 439.187131 134.405107 
L 437.403634 133.622793 
L 435.462755 133.461967 
L 433.574819 133.940058 
L 431.944411 135.005256 
L 430.748213 136.542131 
L 430.115851 138.38414 
L 430.115851 140.33167 
L 430.748213 142.173679 
L 431.944411 143.710554 
L 433.574819 144.775752 
L 435.462755 145.253843 
L 437.403634 145.093017 
L 439.187131 144.310703 
L 440.619976 142.991676 
L 441.546898 141.278874 
L 441.867451 139.357905 
" style="fill:none;stroke:#ff0000;stroke-linecap:square;stroke-width:1.5;"/>
   </g>
   <g id="line2d_39">
    <path clip-path="url(#p19145b9dea)" d="M 298.172862 129.569035 
L 297.007215 122.583694 
L 293.636588 116.355322 
L 288.426243 111.558861 
L 281.9408 108.714082 
L 274.883059 108.129261 
L 268.017834 109.867772 
L 262.089079 113.741221 
L 257.739268 119.329859 
L 255.439769 126.02807 
L 255.439769 133.110001 
L 257.739268 139.808212 
L 262.089079 145.39685 
L 268.017834 149.270299 
L 274.883059 151.00881 
L 281.9408 150.423989 
L 288.426243 147.57921 
L 293.636588 142.782749 
L 297.007215 136.554377 
L 298.172862 129.569035 
" style="fill:none;stroke:#000000;stroke-dasharray:5.55,2.4;stroke-dashoffset:0;stroke-width:1.5;"/>
   </g>
   <g id="line2d_40">
    <path clip-path="url(#p19145b9dea)" d="M 282.575754 129.569035 
L 282.255201 127.648066 
L 281.328278 125.935264 
L 279.895433 124.616238 
L 278.111937 123.833923 
L 276.171058 123.673098 
L 274.283121 124.151188 
L 272.652713 125.216386 
L 271.456515 126.753262 
L 270.824153 128.59527 
L 270.824153 130.542801 
L 271.456515 132.384809 
L 272.652713 133.921685 
L 274.283121 134.986883 
L 276.171058 135.464973 
L 278.111937 135.304148 
L 279.895433 134.521833 
L 281.328278 133.202807 
L 282.255201 131.490004 
L 282.575754 129.569035 
" style="fill:none;stroke:#ff0000;stroke-linecap:square;stroke-width:1.5;"/>
   </g>
   <g id="line2d_41">
    <path clip-path="url(#p19145b9dea)" d="M 482.193473 354.592469 
L 481.027826 347.607127 
L 477.6572 341.378755 
L 472.446855 336.582294 
L 465.961412 333.737515 
L 458.90367 333.152694 
L 452.038445 334.891205 
L 446.109691 338.764654 
L 441.759879 344.353292 
L 439.46038 351.051504 
L 439.46038 358.133434 
L 441.759879 364.831645 
L 446.109691 370.420283 
L 452.038445 374.293732 
L 458.90367 376.032243 
L 465.961412 375.447422 
L 472.446855 372.602643 
L 477.6572 367.806182 
L 481.027826 361.57781 
L 482.193473 354.592469 
" style="fill:none;stroke:#000000;stroke-dasharray:5.55,2.4;stroke-dashoffset:0;stroke-width:1.5;"/>
   </g>
   <g id="line2d_42">
    <path clip-path="url(#p19145b9dea)" d="M 466.596365 354.592469 
L 466.275812 352.6715 
L 465.34889 350.958697 
L 463.916045 349.639671 
L 462.132548 348.857357 
L 460.191669 348.696531 
L 458.303732 349.174621 
L 456.673325 350.23982 
L 455.477127 351.776695 
L 454.844764 353.618703 
L 454.844764 355.566234 
L 455.477127 357.408242 
L 456.673325 358.945118 
L 458.303732 360.010316 
L 460.191669 360.488407 
L 462.132548 360.327581 
L 463.916045 359.545267 
L 465.34889 358.22624 
L 466.275812 356.513438 
L 466.596365 354.592469 
" style="fill:none;stroke:#ff0000;stroke-linecap:square;stroke-width:1.5;"/>
   </g>
   <g id="line2d_43">
    <path clip-path="url(#p19145b9dea)" d="M 448.689517 309.83044 
L 447.523869 302.845099 
L 444.153243 296.616727 
L 438.942898 291.820266 
L 432.457455 288.975487 
L 425.399713 288.390666 
L 418.534488 290.129177 
L 412.605734 294.002626 
L 408.255922 299.591264 
L 405.956423 306.289475 
L 405.956423 313.371405 
L 408.255922 320.069617 
L 412.605734 325.658255 
L 418.534488 329.531704 
L 425.399713 331.270215 
L 432.457455 330.685394 
L 438.942898 327.840615 
L 444.153243 323.044154 
L 447.523869 316.815782 
L 448.689517 309.83044 
" style="fill:none;stroke:#000000;stroke-dasharray:5.55,2.4;stroke-dashoffset:0;stroke-width:1.5;"/>
   </g>
   <g id="line2d_44">
    <path clip-path="url(#p19145b9dea)" d="M 433.092408 309.83044 
L 432.771855 307.909471 
L 431.844933 306.196669 
L 430.412088 304.877642 
L 428.628591 304.095328 
L 426.687712 303.934502 
L 424.799775 304.412593 
L 423.169368 305.477791 
L 421.97317 307.014667 
L 421.340808 308.856675 
L 421.340808 310.804206 
L 421.97317 312.646214 
L 423.169368 314.183089 
L 424.799775 315.248288 
L 426.687712 315.726378 
L 428.628591 315.565553 
L 430.412088 314.783238 
L 431.844933 313.464212 
L 432.771855 311.751409 
L 433.092408 309.83044 
" style="fill:none;stroke:#ff0000;stroke-linecap:square;stroke-width:1.5;"/>
   </g>
   <g id="line2d_45">
    <path clip-path="url(#p19145b9dea)" d="M 411.396966 157.678016 
L 410.231319 150.692674 
L 406.860693 144.464303 
L 401.650347 139.667842 
L 395.164905 136.823063 
L 388.107163 136.238242 
L 381.241938 137.976753 
L 375.313184 141.850202 
L 370.963372 147.43884 
L 368.663873 154.137051 
L 368.663873 161.218981 
L 370.963372 167.917193 
L 375.313184 173.505831 
L 381.241938 177.37928 
L 388.107163 179.117791 
L 395.164905 178.53297 
L 401.650347 175.688191 
L 406.860693 170.89173 
L 410.231319 164.663358 
L 411.396966 157.678016 
" style="fill:none;stroke:#000000;stroke-dasharray:5.55,2.4;stroke-dashoffset:0;stroke-width:1.5;"/>
   </g>
   <g id="line2d_46">
    <path clip-path="url(#p19145b9dea)" d="M 395.799858 157.678016 
L 395.479305 155.757047 
L 394.552383 154.044245 
L 393.119538 152.725218 
L 391.336041 151.942904 
L 389.395162 151.782078 
L 387.507225 152.260169 
L 385.876818 153.325367 
L 384.680619 154.862243 
L 384.048257 156.704251 
L 384.048257 158.651782 
L 384.680619 160.49379 
L 385.876818 162.030665 
L 387.507225 163.095864 
L 389.395162 163.573954 
L 391.336041 163.413128 
L 393.119538 162.630814 
L 394.552383 161.311788 
L 395.479305 159.598985 
L 395.799858 157.678016 
" style="fill:none;stroke:#ff0000;stroke-linecap:square;stroke-width:1.5;"/>
   </g>
   <g id="line2d_47">
    <path clip-path="url(#p19145b9dea)" d="M 216.319843 244.923569 
L 215.154196 237.938227 
L 211.78357 231.709856 
L 206.573224 226.913395 
L 200.087782 224.068616 
L 193.03004 223.483795 
L 186.164815 225.222306 
L 180.23606 229.095754 
L 175.886249 234.684392 
L 173.58675 241.382604 
L 173.58675 248.464534 
L 175.886249 255.162746 
L 180.23606 260.751384 
L 186.164815 264.624832 
L 193.03004 266.363343 
L 200.087782 265.778522 
L 206.573224 262.933743 
L 211.78357 258.137283 
L 215.154196 251.908911 
L 216.319843 244.923569 
" style="fill:none;stroke:#000000;stroke-dasharray:5.55,2.4;stroke-dashoffset:0;stroke-width:1.5;"/>
   </g>
   <g id="line2d_48">
    <path clip-path="url(#p19145b9dea)" d="M 200.722735 244.923569 
L 200.402182 243.0026 
L 199.47526 241.289798 
L 198.042415 239.970771 
L 196.258918 239.188457 
L 194.318039 239.027631 
L 192.430102 239.505722 
L 190.799695 240.57092 
L 189.603496 242.107796 
L 188.971134 243.949804 
L 188.971134 245.897335 
L 189.603496 247.739343 
L 190.799695 249.276218 
L 192.430102 250.341417 
L 194.318039 250.819507 
L 196.258918 250.658681 
L 198.042415 249.876367 
L 199.47526 248.55734 
L 200.402182 246.844538 
L 200.722735 244.923569 
" style="fill:none;stroke:#ff0000;stroke-linecap:square;stroke-width:1.5;"/>
   </g>
   <g id="line2d_49">
    <path clip-path="url(#p19145b9dea)" d="M 430.185329 266.46852 
L 429.019682 259.483178 
L 425.649056 253.254806 
L 420.43871 248.458345 
L 413.953268 245.613567 
L 406.895526 245.028745 
L 400.030301 246.767256 
L 394.101546 250.640705 
L 389.751735 256.229343 
L 387.452236 262.927555 
L 387.452236 270.009485 
L 389.751735 276.707696 
L 394.101546 282.296334 
L 400.030301 286.169783 
L 406.895526 287.908294 
L 413.953268 287.323473 
L 420.43871 284.478694 
L 425.649056 279.682233 
L 429.019682 273.453862 
L 430.185329 266.46852 
" style="fill:none;stroke:#000000;stroke-dasharray:5.55,2.4;stroke-dashoffset:0;stroke-width:1.5;"/>
   </g>
   <g id="line2d_50">
    <path clip-path="url(#p19145b9dea)" d="M 414.588221 266.46852 
L 414.267668 264.547551 
L 413.340746 262.834748 
L 411.907901 261.515722 
L 410.124404 260.733408 
L 408.183525 260.572582 
L 406.295588 261.050672 
L 404.665181 262.115871 
L 403.468982 263.652746 
L 402.83662 265.494754 
L 402.83662 267.442285 
L 403.468982 269.284293 
L 404.665181 270.821169 
L 406.295588 271.886367 
L 408.183525 272.364458 
L 410.124404 272.203632 
L 411.907901 271.421318 
L 413.340746 270.102291 
L 414.267668 268.389489 
L 414.588221 266.46852 
" style="fill:none;stroke:#ff0000;stroke-linecap:square;stroke-width:1.5;"/>
   </g>
   <g id="line2d_51">
    <path clip-path="url(#p19145b9dea)" d="M 279.723162 209.33797 
L 278.557515 202.352628 
L 275.186889 196.124257 
L 269.976543 191.327796 
L 263.491101 188.483017 
L 256.433359 187.898196 
L 249.568134 189.636707 
L 243.63938 193.510155 
L 239.289568 199.098793 
L 236.990069 205.797005 
L 236.990069 212.878935 
L 239.289568 219.577147 
L 243.63938 225.165785 
L 249.568134 229.039233 
L 256.433359 230.777744 
L 263.491101 230.192923 
L 269.976543 227.348144 
L 275.186889 222.551684 
L 278.557515 216.323312 
L 279.723162 209.33797 
" style="fill:none;stroke:#000000;stroke-dasharray:5.55,2.4;stroke-dashoffset:0;stroke-width:1.5;"/>
   </g>
   <g id="line2d_52">
    <path clip-path="url(#p19145b9dea)" d="M 264.126054 209.33797 
L 263.805501 207.417001 
L 262.878579 205.704199 
L 261.445734 204.385172 
L 259.662237 203.602858 
L 257.721358 203.442032 
L 255.833421 203.920123 
L 254.203014 204.985321 
L 253.006815 206.522197 
L 252.374453 208.364205 
L 252.374453 210.311735 
L 253.006815 212.153744 
L 254.203014 213.690619 
L 255.833421 214.755818 
L 257.721358 215.233908 
L 259.662237 215.073082 
L 261.445734 214.290768 
L 262.878579 212.971741 
L 263.805501 211.258939 
L 264.126054 209.33797 
" style="fill:none;stroke:#ff0000;stroke-linecap:square;stroke-width:1.5;"/>
   </g>
   <g id="line2d_53">
    <path clip-path="url(#p19145b9dea)" d="M 382.114199 282.565046 
L 380.948552 275.579704 
L 377.577926 269.351332 
L 372.36758 264.554871 
L 365.882138 261.710092 
L 358.824396 261.125271 
L 351.959171 262.863782 
L 346.030416 266.737231 
L 341.680605 272.325869 
L 339.381106 279.024081 
L 339.381106 286.106011 
L 341.680605 292.804222 
L 346.030416 298.39286 
L 351.959171 302.266309 
L 358.824396 304.00482 
L 365.882138 303.419999 
L 372.36758 300.57522 
L 377.577926 295.778759 
L 380.948552 289.550388 
L 382.114199 282.565046 
" style="fill:none;stroke:#000000;stroke-dasharray:5.55,2.4;stroke-dashoffset:0;stroke-width:1.5;"/>
   </g>
   <g id="line2d_54">
    <path clip-path="url(#p19145b9dea)" d="M 366.517091 282.565046 
L 366.196538 280.644077 
L 365.269615 278.931274 
L 363.83677 277.612248 
L 362.053274 276.829934 
L 360.112395 276.669108 
L 358.224458 277.147198 
L 356.59405 278.212397 
L 355.397852 279.749272 
L 354.76549 281.59128 
L 354.76549 283.538811 
L 355.397852 285.380819 
L 356.59405 286.917695 
L 358.224458 287.982893 
L 360.112395 288.460984 
L 362.053274 288.300158 
L 363.83677 287.517844 
L 365.269615 286.198817 
L 366.196538 284.486015 
L 366.517091 282.565046 
" style="fill:none;stroke:#ff0000;stroke-linecap:square;stroke-width:1.5;"/>
   </g>
   <g id="line2d_55">
    <path clip-path="url(#p19145b9dea)" d="M 363.01325 258.231757 
L 361.847602 251.246416 
L 358.476976 245.018044 
L 353.266631 240.221583 
L 346.781188 237.376804 
L 339.723446 236.791983 
L 332.858222 238.530494 
L 326.929467 242.403943 
L 322.579656 247.992581 
L 320.280157 254.690792 
L 320.280157 261.772723 
L 322.579656 268.470934 
L 326.929467 274.059572 
L 332.858222 277.933021 
L 339.723446 279.671532 
L 346.781188 279.086711 
L 353.266631 276.241932 
L 358.476976 271.445471 
L 361.847602 265.217099 
L 363.01325 258.231757 
" style="fill:none;stroke:#000000;stroke-dasharray:5.55,2.4;stroke-dashoffset:0;stroke-width:1.5;"/>
   </g>
   <g id="line2d_56">
    <path clip-path="url(#p19145b9dea)" d="M 347.416141 258.231757 
L 347.095588 256.310788 
L 346.168666 254.597986 
L 344.735821 253.27896 
L 342.952324 252.496645 
L 341.011446 252.33582 
L 339.123509 252.81391 
L 337.493101 253.879108 
L 336.296903 255.415984 
L 335.664541 257.257992 
L 335.664541 259.205523 
L 336.296903 261.047531 
L 337.493101 262.584407 
L 339.123509 263.649605 
L 341.011446 264.127695 
L 342.952324 263.96687 
L 344.735821 263.184555 
L 346.168666 261.865529 
L 347.095588 260.152726 
L 347.416141 258.231757 
" style="fill:none;stroke:#ff0000;stroke-linecap:square;stroke-width:1.5;"/>
   </g>
   <g id="line2d_57">
    <path clip-path="url(#p19145b9dea)" d="M 265.633016 398.418419 
L 264.467368 391.433077 
L 261.096742 385.204706 
L 255.886397 380.408245 
L 249.400954 377.563466 
L 242.343212 376.978645 
L 235.477987 378.717156 
L 229.549233 382.590605 
L 225.199421 388.179243 
L 222.899922 394.877454 
L 222.899922 401.959384 
L 225.199421 408.657596 
L 229.549233 414.246234 
L 235.477987 418.119682 
L 242.343212 419.858194 
L 249.400954 419.273372 
L 255.886397 416.428593 
L 261.096742 411.632133 
L 264.467368 405.403761 
L 265.633016 398.418419 
" style="fill:none;stroke:#000000;stroke-dasharray:5.55,2.4;stroke-dashoffset:0;stroke-width:1.5;"/>
   </g>
   <g id="line2d_58">
    <path clip-path="url(#p19145b9dea)" d="M 250.035907 398.418419 
L 249.715354 396.49745 
L 248.788432 394.784648 
L 247.355587 393.465621 
L 245.57209 392.683307 
L 243.631211 392.522481 
L 241.743274 393.000572 
L 240.112867 394.06577 
L 238.916669 395.602646 
L 238.284306 397.444654 
L 238.284306 399.392185 
L 238.916669 401.234193 
L 240.112867 402.771068 
L 241.743274 403.836267 
L 243.631211 404.314357 
L 245.57209 404.153531 
L 247.355587 403.371217 
L 248.788432 402.05219 
L 249.715354 400.339388 
L 250.035907 398.418419 
" style="fill:none;stroke:#ff0000;stroke-linecap:square;stroke-width:1.5;"/>
   </g>
   <g id="line2d_59">
    <path clip-path="url(#p19145b9dea)" d="M 394.621099 173.01969 
L 393.455452 166.034348 
L 390.084826 159.805977 
L 384.87448 155.009516 
L 378.389038 152.164737 
L 371.331296 151.579916 
L 364.466071 153.318427 
L 358.537316 157.191876 
L 354.187505 162.780513 
L 351.888006 169.478725 
L 351.888006 176.560655 
L 354.187505 183.258867 
L 358.537316 188.847505 
L 364.466071 192.720953 
L 371.331296 194.459464 
L 378.389038 193.874643 
L 384.87448 191.029864 
L 390.084826 186.233404 
L 393.455452 180.005032 
L 394.621099 173.01969 
" style="fill:none;stroke:#000000;stroke-dasharray:5.55,2.4;stroke-dashoffset:0;stroke-width:1.5;"/>
   </g>
   <g id="line2d_60">
    <path clip-path="url(#p19145b9dea)" d="M 379.023991 173.01969 
L 378.703438 171.098721 
L 377.776515 169.385919 
L 376.343671 168.066892 
L 374.560174 167.284578 
L 372.619295 167.123752 
L 370.731358 167.601843 
L 369.10095 168.667041 
L 367.904752 170.203917 
L 367.27239 172.045925 
L 367.27239 173.993456 
L 367.904752 175.835464 
L 369.10095 177.372339 
L 370.731358 178.437538 
L 372.619295 178.915628 
L 374.560174 178.754802 
L 376.343671 177.972488 
L 377.776515 176.653461 
L 378.703438 174.940659 
L 379.023991 173.01969 
" style="fill:none;stroke:#ff0000;stroke-linecap:square;stroke-width:1.5;"/>
   </g>
   <g id="line2d_61">
    <path clip-path="url(#p19145b9dea)" d="M 349.410364 235.860649 
L 348.244717 228.875307 
L 344.874091 222.646935 
L 339.663745 217.850475 
L 333.178303 215.005696 
L 326.120561 214.420875 
L 319.255336 216.159386 
L 313.326581 220.032834 
L 308.97677 225.621472 
L 306.677271 232.319684 
L 306.677271 239.401614 
L 308.97677 246.099826 
L 313.326581 251.688464 
L 319.255336 255.561912 
L 326.120561 257.300423 
L 333.178303 256.715602 
L 339.663745 253.870823 
L 344.874091 249.074362 
L 348.244717 242.845991 
L 349.410364 235.860649 
" style="fill:none;stroke:#000000;stroke-dasharray:5.55,2.4;stroke-dashoffset:0;stroke-width:1.5;"/>
   </g>
   <g id="line2d_62">
    <path clip-path="url(#p19145b9dea)" d="M 333.813256 235.860649 
L 333.492703 233.93968 
L 332.565781 232.226878 
L 331.132936 230.907851 
L 329.349439 230.125537 
L 327.40856 229.964711 
L 325.520623 230.442802 
L 323.890216 231.508 
L 322.694017 233.044875 
L 322.061655 234.886884 
L 322.061655 236.834414 
L 322.694017 238.676423 
L 323.890216 240.213298 
L 325.520623 241.278496 
L 327.40856 241.756587 
L 329.349439 241.595761 
L 331.132936 240.813447 
L 332.565781 239.49442 
L 333.492703 237.781618 
L 333.813256 235.860649 
" style="fill:none;stroke:#ff0000;stroke-linecap:square;stroke-width:1.5;"/>
   </g>
   <g id="line2d_63">
    <path clip-path="url(#p19145b9dea)" d="M 323.442038 222.277778 
L 322.276391 215.292436 
L 318.905765 209.064064 
L 313.695419 204.267604 
L 307.209977 201.422825 
L 300.152235 200.838003 
L 293.28701 202.576514 
L 287.358255 206.449963 
L 283.008444 212.038601 
L 280.708945 218.736813 
L 280.708945 225.818743 
L 283.008444 232.516954 
L 287.358255 238.105592 
L 293.28701 241.979041 
L 300.152235 243.717552 
L 307.209977 243.132731 
L 313.695419 240.287952 
L 318.905765 235.491491 
L 322.276391 229.26312 
L 323.442038 222.277778 
" style="fill:none;stroke:#000000;stroke-dasharray:5.55,2.4;stroke-dashoffset:0;stroke-width:1.5;"/>
   </g>
   <g id="line2d_64">
    <path clip-path="url(#p19145b9dea)" d="M 307.84493 222.277778 
L 307.524377 220.356809 
L 306.597455 218.644007 
L 305.16461 217.32498 
L 303.381113 216.542666 
L 301.440234 216.38184 
L 299.552297 216.85993 
L 297.921889 217.925129 
L 296.725691 219.462004 
L 296.093329 221.304012 
L 296.093329 223.251543 
L 296.725691 225.093551 
L 297.921889 226.630427 
L 299.552297 227.695625 
L 301.440234 228.173716 
L 303.381113 228.01289 
L 305.16461 227.230576 
L 306.597455 225.911549 
L 307.524377 224.198747 
L 307.84493 222.277778 
" style="fill:none;stroke:#ff0000;stroke-linecap:square;stroke-width:1.5;"/>
   </g>
   <g id="line2d_65">
    <path clip-path="url(#p19145b9dea)" d="M 371.748866 186.581734 
L 370.583219 179.596392 
L 367.212593 173.368021 
L 362.002247 168.57156 
L 355.516804 165.726781 
L 348.459063 165.14196 
L 341.593838 166.880471 
L 335.665083 170.75392 
L 331.315272 176.342558 
L 329.015773 183.040769 
L 329.015773 190.122699 
L 331.315272 196.820911 
L 335.665083 202.409549 
L 341.593838 206.282997 
L 348.459063 208.021509 
L 355.516804 207.436687 
L 362.002247 204.591908 
L 367.212593 199.795448 
L 370.583219 193.567076 
L 371.748866 186.581734 
" style="fill:none;stroke:#000000;stroke-dasharray:5.55,2.4;stroke-dashoffset:0;stroke-width:1.5;"/>
   </g>
   <g id="line2d_66">
    <path clip-path="url(#p19145b9dea)" d="M 356.151758 186.581734 
L 355.831205 184.660765 
L 354.904282 182.947963 
L 353.471437 181.628936 
L 351.687941 180.846622 
L 349.747062 180.685796 
L 347.859125 181.163887 
L 346.228717 182.229085 
L 345.032519 183.765961 
L 344.400157 185.607969 
L 344.400157 187.5555 
L 345.032519 189.397508 
L 346.228717 190.934383 
L 347.859125 191.999582 
L 349.747062 192.477672 
L 351.687941 192.316846 
L 353.471437 191.534532 
L 354.904282 190.215505 
L 355.831205 188.502703 
L 356.151758 186.581734 
" style="fill:none;stroke:#ff0000;stroke-linecap:square;stroke-width:1.5;"/>
   </g>
   <g id="line2d_67">
    <path clip-path="url(#p19145b9dea)" d="M 398.893328 305.454528 
L 397.727681 298.469186 
L 394.357055 292.240814 
L 389.14671 287.444353 
L 382.661267 284.599574 
L 375.603525 284.014753 
L 368.7383 285.753264 
L 362.809546 289.626713 
L 358.459734 295.215351 
L 356.160235 301.913563 
L 356.160235 308.995493 
L 358.459734 315.693704 
L 362.809546 321.282342 
L 368.7383 325.155791 
L 375.603525 326.894302 
L 382.661267 326.309481 
L 389.14671 323.464702 
L 394.357055 318.668241 
L 397.727681 312.439869 
L 398.893328 305.454528 
" style="fill:none;stroke:#000000;stroke-dasharray:5.55,2.4;stroke-dashoffset:0;stroke-width:1.5;"/>
   </g>
   <g id="line2d_68">
    <path clip-path="url(#p19145b9dea)" d="M 383.29622 305.454528 
L 382.975667 303.533559 
L 382.048745 301.820756 
L 380.6159 300.50173 
L 378.832403 299.719415 
L 376.891524 299.55859 
L 375.003587 300.03668 
L 373.37318 301.101879 
L 372.176982 302.638754 
L 371.544619 304.480762 
L 371.544619 306.428293 
L 372.176982 308.270301 
L 373.37318 309.807177 
L 375.003587 310.872375 
L 376.891524 311.350466 
L 378.832403 311.18964 
L 380.6159 310.407325 
L 382.048745 309.088299 
L 382.975667 307.375497 
L 383.29622 305.454528 
" style="fill:none;stroke:#ff0000;stroke-linecap:square;stroke-width:1.5;"/>
   </g>
   <g id="line2d_69">
    <path clip-path="url(#p19145b9dea)" d="M 371.643715 139.315234 
L 370.478068 132.329892 
L 367.107441 126.10152 
L 361.897096 121.305059 
L 355.411653 118.460281 
L 348.353912 117.875459 
L 341.488687 119.61397 
L 335.559932 123.487419 
L 331.210121 129.076057 
L 328.910622 135.774269 
L 328.910622 142.856199 
L 331.210121 149.55441 
L 335.559932 155.143048 
L 341.488687 159.016497 
L 348.353912 160.755008 
L 355.411653 160.170187 
L 361.897096 157.325408 
L 367.107441 152.528947 
L 370.478068 146.300576 
L 371.643715 139.315234 
" style="fill:none;stroke:#000000;stroke-dasharray:5.55,2.4;stroke-dashoffset:0;stroke-width:1.5;"/>
   </g>
   <g id="line2d_70">
    <path clip-path="url(#p19145b9dea)" d="M 356.046607 139.315234 
L 355.726054 137.394265 
L 354.799131 135.681463 
L 353.366286 134.362436 
L 351.58279 133.580122 
L 349.641911 133.419296 
L 347.753974 133.897386 
L 346.123566 134.962585 
L 344.927368 136.49946 
L 344.295006 138.341468 
L 344.295006 140.288999 
L 344.927368 142.131007 
L 346.123566 143.667883 
L 347.753974 144.733081 
L 349.641911 145.211172 
L 351.58279 145.050346 
L 353.366286 144.268032 
L 354.799131 142.949005 
L 355.726054 141.236203 
L 356.046607 139.315234 
" style="fill:none;stroke:#ff0000;stroke-linecap:square;stroke-width:1.5;"/>
   </g>
   <g id="line2d_71">
    <path clip-path="url(#p19145b9dea)" d="M 344.957573 432.875911 
L 343.791926 425.890569 
L 340.4213 419.662198 
L 335.210954 414.865737 
L 328.725512 412.020958 
L 321.66777 411.436137 
L 314.802545 413.174648 
L 308.87379 417.048097 
L 304.523979 422.636734 
L 302.22448 429.334946 
L 302.22448 436.416876 
L 304.523979 443.115088 
L 308.87379 448.703726 
L 314.802545 452.577174 
L 321.66777 454.315685 
L 328.725512 453.730864 
L 335.210954 450.886085 
L 340.4213 446.089625 
L 343.791926 439.861253 
L 344.957573 432.875911 
" style="fill:none;stroke:#000000;stroke-dasharray:5.55,2.4;stroke-dashoffset:0;stroke-width:1.5;"/>
   </g>
   <g id="line2d_72">
    <path clip-path="url(#p19145b9dea)" d="M 329.360465 432.875911 
L 329.039912 430.954942 
L 328.11299 429.24214 
L 326.680145 427.923113 
L 324.896648 427.140799 
L 322.955769 426.979973 
L 321.067832 427.458064 
L 319.437424 428.523262 
L 318.241226 430.060138 
L 317.608864 431.902146 
L 317.608864 433.849677 
L 318.241226 435.691685 
L 319.437424 437.22856 
L 321.067832 438.293759 
L 322.955769 438.771849 
L 324.896648 438.611023 
L 326.680145 437.828709 
L 328.11299 436.509682 
L 329.039912 434.79688 
L 329.360465 432.875911 
" style="fill:none;stroke:#ff0000;stroke-linecap:square;stroke-width:1.5;"/>
   </g>
   <g id="line2d_73">
    <path clip-path="url(#p19145b9dea)" d="M 269.978661 244.099939 
L 268.813014 237.114597 
L 265.442388 230.886225 
L 260.232043 226.089765 
L 253.7466 223.244986 
L 246.688858 222.660164 
L 239.823633 224.398676 
L 233.894879 228.272124 
L 229.545067 233.860762 
L 227.245568 240.558974 
L 227.245568 247.640904 
L 229.545067 254.339115 
L 233.894879 259.927753 
L 239.823633 263.801202 
L 246.688858 265.539713 
L 253.7466 264.954892 
L 260.232043 262.110113 
L 265.442388 257.313652 
L 268.813014 251.085281 
L 269.978661 244.099939 
" style="fill:none;stroke:#000000;stroke-dasharray:5.55,2.4;stroke-dashoffset:0;stroke-width:1.5;"/>
   </g>
   <g id="line2d_74">
    <path clip-path="url(#p19145b9dea)" d="M 254.381553 244.099939 
L 254.061 242.17897 
L 253.134078 240.466168 
L 251.701233 239.147141 
L 249.917736 238.364827 
L 247.976857 238.204001 
L 246.08892 238.682091 
L 244.458513 239.74729 
L 243.262315 241.284165 
L 242.629952 243.126173 
L 242.629952 245.073704 
L 243.262315 246.915712 
L 244.458513 248.452588 
L 246.08892 249.517786 
L 247.976857 249.995877 
L 249.917736 249.835051 
L 251.701233 249.052737 
L 253.134078 247.73371 
L 254.061 246.020908 
L 254.381553 244.099939 
" style="fill:none;stroke:#ff0000;stroke-linecap:square;stroke-width:1.5;"/>
   </g>
   <g id="line2d_75">
    <path clip-path="url(#p19145b9dea)" d="M 204.098473 181.31224 
L 202.932825 174.326898 
L 199.562199 168.098526 
L 194.351854 163.302066 
L 187.866411 160.457287 
L 180.808669 159.872466 
L 173.943444 161.610977 
L 168.01469 165.484425 
L 163.664878 171.073063 
L 161.365379 177.771275 
L 161.365379 184.853205 
L 163.664878 191.551417 
L 168.01469 197.140055 
L 173.943444 201.013503 
L 180.808669 202.752014 
L 187.866411 202.167193 
L 194.351854 199.322414 
L 199.562199 194.525953 
L 202.932825 188.297582 
L 204.098473 181.31224 
" style="fill:none;stroke:#000000;stroke-dasharray:5.55,2.4;stroke-dashoffset:0;stroke-width:1.5;"/>
   </g>
   <g id="line2d_76">
    <path clip-path="url(#p19145b9dea)" d="M 188.501364 181.31224 
L 188.180811 179.391271 
L 187.253889 177.678469 
L 185.821044 176.359442 
L 184.037547 175.577128 
L 182.096668 175.416302 
L 180.208731 175.894393 
L 178.578324 176.959591 
L 177.382126 178.496466 
L 176.749763 180.338475 
L 176.749763 182.286005 
L 177.382126 184.128014 
L 178.578324 185.664889 
L 180.208731 186.730087 
L 182.096668 187.208178 
L 184.037547 187.047352 
L 185.821044 186.265038 
L 187.253889 184.946011 
L 188.180811 183.233209 
L 188.501364 181.31224 
" style="fill:none;stroke:#ff0000;stroke-linecap:square;stroke-width:1.5;"/>
   </g>
   <g id="line2d_77">
    <path clip-path="url(#p19145b9dea)" d="M 297.578135 238.094705 
L 296.412487 231.109363 
L 293.041861 224.880991 
L 287.831516 220.084531 
L 281.346073 217.239752 
L 274.288331 216.654931 
L 267.423106 218.393442 
L 261.494352 222.26689 
L 257.14454 227.855528 
L 254.845041 234.55374 
L 254.845041 241.63567 
L 257.14454 248.333882 
L 261.494352 253.92252 
L 267.423106 257.795968 
L 274.288331 259.534479 
L 281.346073 258.949658 
L 287.831516 256.104879 
L 293.041861 251.308418 
L 296.412487 245.080047 
L 297.578135 238.094705 
" style="fill:none;stroke:#000000;stroke-dasharray:5.55,2.4;stroke-dashoffset:0;stroke-width:1.5;"/>
   </g>
   <g id="line2d_78">
    <path clip-path="url(#p19145b9dea)" d="M 281.981026 238.094705 
L 281.660473 236.173736 
L 280.733551 234.460934 
L 279.300706 233.141907 
L 277.517209 232.359593 
L 275.57633 232.198767 
L 273.688393 232.676857 
L 272.057986 233.742056 
L 270.861788 235.278931 
L 270.229425 237.12094 
L 270.229425 239.06847 
L 270.861788 240.910478 
L 272.057986 242.447354 
L 273.688393 243.512552 
L 275.57633 243.990643 
L 277.517209 243.829817 
L 279.300706 243.047503 
L 280.733551 241.728476 
L 281.660473 240.015674 
L 281.981026 238.094705 
" style="fill:none;stroke:#ff0000;stroke-linecap:square;stroke-width:1.5;"/>
   </g>
   <g id="line2d_79">
    <path clip-path="url(#p19145b9dea)" d="M 403.009033 165.348853 
L 401.843385 158.363511 
L 398.472759 152.13514 
L 393.262414 147.338679 
L 386.776971 144.4939 
L 379.719229 143.909079 
L 372.854004 145.64759 
L 366.92525 149.521039 
L 362.575438 155.109677 
L 360.275939 161.807888 
L 360.275939 168.889818 
L 362.575438 175.58803 
L 366.92525 181.176668 
L 372.854004 185.050117 
L 379.719229 186.788628 
L 386.776971 186.203806 
L 393.262414 183.359027 
L 398.472759 178.562567 
L 401.843385 172.334195 
L 403.009033 165.348853 
" style="fill:none;stroke:#000000;stroke-dasharray:5.55,2.4;stroke-dashoffset:0;stroke-width:1.5;"/>
   </g>
   <g id="line2d_80">
    <path clip-path="url(#p19145b9dea)" d="M 387.411924 165.348853 
L 387.091371 163.427884 
L 386.164449 161.715082 
L 384.731604 160.396055 
L 382.948107 159.613741 
L 381.007228 159.452915 
L 379.119292 159.931006 
L 377.488884 160.996204 
L 376.292686 162.53308 
L 375.660324 164.375088 
L 375.660324 166.322619 
L 376.292686 168.164627 
L 377.488884 169.701502 
L 379.119292 170.766701 
L 381.007228 171.244791 
L 382.948107 171.083965 
L 384.731604 170.301651 
L 386.164449 168.982624 
L 387.091371 167.269822 
L 387.411924 165.348853 
" style="fill:none;stroke:#ff0000;stroke-linecap:square;stroke-width:1.5;"/>
   </g>
   <g id="line2d_81">
    <path clip-path="url(#p19145b9dea)" d="M 288.650648 223.716338 
L 287.485001 216.730996 
L 284.114375 210.502624 
L 278.90403 205.706163 
L 272.418587 202.861384 
L 265.360845 202.276563 
L 258.49562 204.015074 
L 252.566866 207.888523 
L 248.217054 213.477161 
L 245.917555 220.175372 
L 245.917555 227.257303 
L 248.217054 233.955514 
L 252.566866 239.544152 
L 258.49562 243.417601 
L 265.360845 245.156112 
L 272.418587 244.571291 
L 278.90403 241.726512 
L 284.114375 236.930051 
L 287.485001 230.701679 
L 288.650648 223.716338 
" style="fill:none;stroke:#000000;stroke-dasharray:5.55,2.4;stroke-dashoffset:0;stroke-width:1.5;"/>
   </g>
   <g id="line2d_82">
    <path clip-path="url(#p19145b9dea)" d="M 273.05354 223.716338 
L 272.732987 221.795368 
L 271.806065 220.082566 
L 270.37322 218.76354 
L 268.589723 217.981225 
L 266.648844 217.8204 
L 264.760907 218.29849 
L 263.1305 219.363688 
L 261.934302 220.900564 
L 261.301939 222.742572 
L 261.301939 224.690103 
L 261.934302 226.532111 
L 263.1305 228.068987 
L 264.760907 229.134185 
L 266.648844 229.612275 
L 268.589723 229.45145 
L 270.37322 228.669135 
L 271.806065 227.350109 
L 272.732987 225.637307 
L 273.05354 223.716338 
" style="fill:none;stroke:#ff0000;stroke-linecap:square;stroke-width:1.5;"/>
   </g>
   <g id="line2d_83">
    <path clip-path="url(#p19145b9dea)" d="M 372.563724 270.398402 
L 371.398077 263.41306 
L 368.027451 257.184688 
L 362.817106 252.388227 
L 356.331663 249.543448 
L 349.273921 248.958627 
L 342.408696 250.697138 
L 336.479942 254.570587 
L 332.13013 260.159225 
L 329.830631 266.857437 
L 329.830631 273.939367 
L 332.13013 280.637578 
L 336.479942 286.226216 
L 342.408696 290.099665 
L 349.273921 291.838176 
L 356.331663 291.253355 
L 362.817106 288.408576 
L 368.027451 283.612115 
L 371.398077 277.383743 
L 372.563724 270.398402 
" style="fill:none;stroke:#000000;stroke-dasharray:5.55,2.4;stroke-dashoffset:0;stroke-width:1.5;"/>
   </g>
   <g id="line2d_84">
    <path clip-path="url(#p19145b9dea)" d="M 356.966616 270.398402 
L 356.646063 268.477433 
L 355.719141 266.76463 
L 354.286296 265.445604 
L 352.502799 264.663289 
L 350.56192 264.502464 
L 348.673983 264.980554 
L 347.043576 266.045753 
L 345.847378 267.582628 
L 345.215015 269.424636 
L 345.215015 271.372167 
L 345.847378 273.214175 
L 347.043576 274.751051 
L 348.673983 275.816249 
L 350.56192 276.29434 
L 352.502799 276.133514 
L 354.286296 275.3512 
L 355.719141 274.032173 
L 356.646063 272.319371 
L 356.966616 270.398402 
" style="fill:none;stroke:#ff0000;stroke-linecap:square;stroke-width:1.5;"/>
   </g>
   <g id="line2d_85">
    <path clip-path="url(#p19145b9dea)" d="M 390.503764 294.009787 
L 389.338116 287.024445 
L 385.96749 280.796073 
L 380.757145 275.999612 
L 374.271702 273.154833 
L 367.21396 272.570012 
L 360.348735 274.308523 
L 354.419981 278.181972 
L 350.070169 283.77061 
L 347.77067 290.468822 
L 347.77067 297.550752 
L 350.070169 304.248963 
L 354.419981 309.837601 
L 360.348735 313.71105 
L 367.21396 315.449561 
L 374.271702 314.86474 
L 380.757145 312.019961 
L 385.96749 307.2235 
L 389.338116 300.995128 
L 390.503764 294.009787 
" style="fill:none;stroke:#000000;stroke-dasharray:5.55,2.4;stroke-dashoffset:0;stroke-width:1.5;"/>
   </g>
   <g id="line2d_86">
    <path clip-path="url(#p19145b9dea)" d="M 374.906655 294.009787 
L 374.586102 292.088818 
L 373.65918 290.376015 
L 372.226335 289.056989 
L 370.442838 288.274674 
L 368.501959 288.113849 
L 366.614023 288.591939 
L 364.983615 289.657138 
L 363.787417 291.194013 
L 363.155055 293.036021 
L 363.155055 294.983552 
L 363.787417 296.82556 
L 364.983615 298.362436 
L 366.614023 299.427634 
L 368.501959 299.905725 
L 370.442838 299.744899 
L 372.226335 298.962585 
L 373.65918 297.643558 
L 374.586102 295.930756 
L 374.906655 294.009787 
" style="fill:none;stroke:#ff0000;stroke-linecap:square;stroke-width:1.5;"/>
   </g>
   <g id="line2d_87">
    <path clip-path="url(#p19145b9dea)" d="M 356.211807 247.046203 
L 355.04616 240.060861 
L 351.675533 233.83249 
L 346.465188 229.036029 
L 339.979745 226.19125 
L 332.922004 225.606429 
L 326.056779 227.34494 
L 320.128024 231.218389 
L 315.778213 236.807027 
L 313.478714 243.505238 
L 313.478714 250.587168 
L 315.778213 257.28538 
L 320.128024 262.874018 
L 326.056779 266.747467 
L 332.922004 268.485978 
L 339.979745 267.901156 
L 346.465188 265.056377 
L 351.675533 260.259917 
L 355.04616 254.031545 
L 356.211807 247.046203 
" style="fill:none;stroke:#000000;stroke-dasharray:5.55,2.4;stroke-dashoffset:0;stroke-width:1.5;"/>
   </g>
   <g id="line2d_88">
    <path clip-path="url(#p19145b9dea)" d="M 340.614699 247.046203 
L 340.294146 245.125234 
L 339.367223 243.412432 
L 337.934378 242.093405 
L 336.150882 241.311091 
L 334.210003 241.150265 
L 332.322066 241.628356 
L 330.691658 242.693554 
L 329.49546 244.23043 
L 328.863098 246.072438 
L 328.863098 248.019969 
L 329.49546 249.861977 
L 330.691658 251.398852 
L 332.322066 252.464051 
L 334.210003 252.942141 
L 336.150882 252.781315 
L 337.934378 251.999001 
L 339.367223 250.679974 
L 340.294146 248.967172 
L 340.614699 247.046203 
" style="fill:none;stroke:#ff0000;stroke-linecap:square;stroke-width:1.5;"/>
   </g>
   <g id="line2d_89">
    <path clip-path="url(#p19145b9dea)" d="M 383.184983 179.800712 
L 382.019335 172.81537 
L 378.648709 166.586999 
L 373.438364 161.790538 
L 366.952921 158.945759 
L 359.895179 158.360938 
L 353.029954 160.099449 
L 347.1012 163.972898 
L 342.751388 169.561535 
L 340.451889 176.259747 
L 340.451889 183.341677 
L 342.751388 190.039889 
L 347.1012 195.628527 
L 353.029954 199.501975 
L 359.895179 201.240487 
L 366.952921 200.655665 
L 373.438364 197.810886 
L 378.648709 193.014426 
L 382.019335 186.786054 
L 383.184983 179.800712 
" style="fill:none;stroke:#000000;stroke-dasharray:5.55,2.4;stroke-dashoffset:0;stroke-width:1.5;"/>
   </g>
   <g id="line2d_90">
    <path clip-path="url(#p19145b9dea)" d="M 367.587874 179.800712 
L 367.267321 177.879743 
L 366.340399 176.166941 
L 364.907554 174.847914 
L 363.124057 174.0656 
L 361.183178 173.904774 
L 359.295241 174.382865 
L 357.664834 175.448063 
L 356.468636 176.984939 
L 355.836274 178.826947 
L 355.836274 180.774478 
L 356.468636 182.616486 
L 357.664834 184.153361 
L 359.295241 185.21856 
L 361.183178 185.69665 
L 363.124057 185.535824 
L 364.907554 184.75351 
L 366.340399 183.434483 
L 367.267321 181.721681 
L 367.587874 179.800712 
" style="fill:none;stroke:#ff0000;stroke-linecap:square;stroke-width:1.5;"/>
   </g>
   <g id="line2d_91">
    <path clip-path="url(#p19145b9dea)" d="M 336.426201 229.069213 
L 335.260554 222.083872 
L 331.889928 215.8555 
L 326.679582 211.059039 
L 320.19414 208.21426 
L 313.136398 207.629439 
L 306.271173 209.36795 
L 300.342418 213.241399 
L 295.992607 218.830037 
L 293.693108 225.528248 
L 293.693108 232.610178 
L 295.992607 239.30839 
L 300.342418 244.897028 
L 306.271173 248.770477 
L 313.136398 250.508988 
L 320.19414 249.924167 
L 326.679582 247.079388 
L 331.889928 242.282927 
L 335.260554 236.054555 
L 336.426201 229.069213 
" style="fill:none;stroke:#000000;stroke-dasharray:5.55,2.4;stroke-dashoffset:0;stroke-width:1.5;"/>
   </g>
   <g id="line2d_92">
    <path clip-path="url(#p19145b9dea)" d="M 320.829093 229.069213 
L 320.50854 227.148244 
L 319.581618 225.435442 
L 318.148773 224.116415 
L 316.365276 223.334101 
L 314.424397 223.173275 
L 312.53646 223.651366 
L 310.906053 224.716564 
L 309.709854 226.25344 
L 309.077492 228.095448 
L 309.077492 230.042979 
L 309.709854 231.884987 
L 310.906053 233.421862 
L 312.53646 234.487061 
L 314.424397 234.965151 
L 316.365276 234.804325 
L 318.148773 234.022011 
L 319.581618 232.702985 
L 320.50854 230.990182 
L 320.829093 229.069213 
" style="fill:none;stroke:#ff0000;stroke-linecap:square;stroke-width:1.5;"/>
   </g>
   <g id="line2d_93">
    <path clip-path="url(#p19145b9dea)" d="M 310.510086 230.186241 
L 309.344439 223.2009 
L 305.973813 216.972528 
L 300.763467 212.176067 
L 294.278025 209.331288 
L 287.220283 208.746467 
L 280.355058 210.484978 
L 274.426304 214.358427 
L 270.076492 219.947065 
L 267.776993 226.645276 
L 267.776993 233.727206 
L 270.076492 240.425418 
L 274.426304 246.014056 
L 280.355058 249.887505 
L 287.220283 251.626016 
L 294.278025 251.041195 
L 300.763467 248.196416 
L 305.973813 243.399955 
L 309.344439 237.171583 
L 310.510086 230.186241 
" style="fill:none;stroke:#000000;stroke-dasharray:5.55,2.4;stroke-dashoffset:0;stroke-width:1.5;"/>
   </g>
   <g id="line2d_94">
    <path clip-path="url(#p19145b9dea)" d="M 294.912978 230.186241 
L 294.592425 228.265272 
L 293.665503 226.55247 
L 292.232658 225.233443 
L 290.449161 224.451129 
L 288.508282 224.290303 
L 286.620345 224.768394 
L 284.989938 225.833592 
L 283.79374 227.370468 
L 283.161377 229.212476 
L 283.161377 231.160007 
L 283.79374 233.002015 
L 284.989938 234.53889 
L 286.620345 235.604089 
L 288.508282 236.082179 
L 290.449161 235.921353 
L 292.232658 235.139039 
L 293.665503 233.820013 
L 294.592425 232.10721 
L 294.912978 230.186241 
" style="fill:none;stroke:#ff0000;stroke-linecap:square;stroke-width:1.5;"/>
   </g>
   <g id="line2d_95">
    <path clip-path="url(#p19145b9dea)" d="M 283.778398 241.097322 
L 282.612751 234.11198 
L 279.242124 227.883608 
L 274.031779 223.087148 
L 267.546336 220.242369 
L 260.488595 219.657547 
L 253.62337 221.396059 
L 247.694615 225.269507 
L 243.344804 230.858145 
L 241.045305 237.556357 
L 241.045305 244.638287 
L 243.344804 251.336499 
L 247.694615 256.925136 
L 253.62337 260.798585 
L 260.488595 262.537096 
L 267.546336 261.952275 
L 274.031779 259.107496 
L 279.242124 254.311035 
L 282.612751 248.082664 
L 283.778398 241.097322 
" style="fill:none;stroke:#000000;stroke-dasharray:5.55,2.4;stroke-dashoffset:0;stroke-width:1.5;"/>
   </g>
   <g id="line2d_96">
    <path clip-path="url(#p19145b9dea)" d="M 268.18129 241.097322 
L 267.860737 239.176353 
L 266.933814 237.463551 
L 265.500969 236.144524 
L 263.717473 235.36221 
L 261.776594 235.201384 
L 259.888657 235.679474 
L 258.258249 236.744673 
L 257.062051 238.281548 
L 256.429689 240.123556 
L 256.429689 242.071087 
L 257.062051 243.913095 
L 258.258249 245.449971 
L 259.888657 246.515169 
L 261.776594 246.99326 
L 263.717473 246.832434 
L 265.500969 246.05012 
L 266.933814 244.731093 
L 267.860737 243.018291 
L 268.18129 241.097322 
" style="fill:none;stroke:#ff0000;stroke-linecap:square;stroke-width:1.5;"/>
   </g>
   <g id="line2d_97">
    <path clip-path="url(#p19145b9dea)" d="M 98.891566 487.188434 
L 98.891566 94.571566 
" style="fill:none;stroke:#000000;stroke-linecap:square;stroke-width:4;"/>
   </g>
   <g id="line2d_98">
    <path clip-path="url(#p19145b9dea)" d="M 98.891566 94.571566 
L 491.508434 94.571566 
" style="fill:none;stroke:#000000;stroke-linecap:square;stroke-width:4;"/>
   </g>
   <g id="line2d_99">
    <path clip-path="url(#p19145b9dea)" d="M 491.508434 94.571566 
L 491.508434 487.188434 
" style="fill:none;stroke:#000000;stroke-linecap:square;stroke-width:4;"/>
   </g>
   <g id="line2d_100">
    <path clip-path="url(#p19145b9dea)" d="M 491.508434 487.188434 
L 98.891566 487.188434 
" style="fill:none;stroke:#000000;stroke-linecap:square;stroke-width:4;"/>
   </g>
   <g id="line2d_101">
    <path clip-path="url(#p19145b9dea)" d="M 129.063904 442.763566 
L 129.709301 442.656 
L 130.677398 442.010602 
L 131.591711 440.988723 
L 132.61359 439.21388 
L 133.258988 437.277687 
L 133.47412 435.61041 
L 133.420337 433.243952 
L 132.559807 428.40347 
L 132.398458 425.768096 
L 132.721157 423.240289 
L 133.796819 418.668723 
L 134.119518 416.302265 
L 134.065735 414.204723 
L 133.47412 410.063422 
L 133.420337 407.481831 
L 133.63547 405.330506 
L 134.496 400.382458 
L 134.711133 397.908434 
L 134.388434 392.960386 
L 134.280867 388.603952 
L 134.711133 383.978602 
L 134.926265 381.827277 
L 135.087614 376.825446 
L 135.087614 372.522795 
L 135.248964 367.843663 
L 135.51788 363.594795 
L 135.894361 352.085205 
L 136.37841 345.738795 
L 136.808675 343.264771 
L 137.185157 342.619373 
L 137.615422 342.404241 
L 138.368386 342.189108 
L 139.175133 342.081542 
L 141.003759 342.242892 
L 142.778602 342.780723 
L 148.372048 345.685012 
L 149.286361 346.16906 
L 149.125012 346.115277 
L 149.017446 346.16906 
L 149.77041 345.738795 
L 150.308241 345.200964 
L 150.846072 344.501783 
L 151.545253 342.942072 
L 151.921735 341.221012 
L 152.029301 338.908337 
L 151.437687 333.960289 
L 151.49147 331.540048 
L 151.975518 329.603855 
L 152.889831 327.667663 
L 154.23441 325.785253 
L 157.031133 322.612048 
L 158.106795 320.890988 
L 158.859759 318.632096 
L 159.074892 316.588337 
L 158.913542 314.490795 
L 157.67653 307.767904 
L 157.515181 305.616578 
L 157.515181 299.162602 
L 157.300048 296.688578 
L 155.95547 287.43788 
L 153.104964 259.954699 
L 142.939952 165.511518 
L 142.939952 165.511518 
" style="fill:none;stroke:#8000ff;stroke-linecap:square;stroke-width:1.5;"/>
   </g>
   <g id="line2d_102">
    <path clip-path="url(#p19145b9dea)" d="M 192.743133 132.05841 
L 193.334747 132.05841 
L 195.10959 132.219759 
L 197.583614 132.865157 
L 199.842506 134.048386 
L 203.768675 136.737542 
L 205.866217 137.866988 
L 208.178892 138.619952 
L 213.019373 139.588048 
L 215.493398 140.341012 
L 217.806072 141.309108 
L 223.883566 144.267181 
L 226.196241 145.181494 
L 230.606458 146.633639 
L 234.693976 148.139566 
L 241.578217 151.043855 
L 250.291084 154.324627 
L 256.960193 157.013783 
L 277.720482 165.888 
L 284.066892 168.362024 
L 314.561928 179.979181 
L 318.595663 181.538892 
L 325.264771 184.120482 
L 329.244723 185.841542 
L 330.965783 186.809639 
L 331.342265 187.293687 
L 331.396048 187.401253 
L 331.342265 187.885301 
L 331.127133 188.692048 
L 330.427952 189.982843 
L 329.244723 191.488771 
L 327.738795 192.940916 
L 324.834506 195.25359 
L 324.888289 194.984675 
L 324.888289 194.877108 
L 324.942072 195.038458 
L 325.210988 195.683855 
L 325.748819 196.383036 
L 326.555566 197.189783 
L 327.738795 197.942747 
L 329.19094 198.534361 
L 333.870072 199.771373 
L 334.945735 200.362988 
L 335.698699 201.008386 
L 336.451663 201.976482 
L 337.09706 203.213494 
L 337.796241 205.687518 
L 338.334072 212.517976 
L 338.656771 213.163373 
L 339.140819 213.486072 
L 340.431614 213.97012 
L 341.829976 214.185253 
L 344.088867 214.077687 
L 346.078843 213.539855 
L 350.435277 211.496096 
L 352.156337 211.065831 
L 354.684145 211.012048 
L 356.83547 211.38853 
L 358.933012 212.195277 
L 361.084337 213.539855 
L 362.644048 214.776867 
L 364.418892 215.744964 
L 366.247518 216.390361 
L 368.237494 216.605494 
L 370.603952 216.390361 
L 372.593928 215.798747 
L 376.950361 214.13147 
L 379.101687 213.593639 
L 381.306795 213.324723 
L 386.36241 213.217157 
L 388.836434 213.002024 
L 391.256675 212.464193 
L 393.246651 211.872578 
L 395.236627 211.119614 
L 395.236627 211.119614 
" style="fill:none;stroke:#376ff9;stroke-linecap:square;stroke-width:1.5;"/>
   </g>
   <g id="line2d_103">
    <path clip-path="url(#p19145b9dea)" d="M 125.998265 269.689446 
L 127.020145 269.689446 
L 129.117687 269.958361 
L 131.591711 270.818892 
L 133.47412 271.948337 
L 136.701108 274.583711 
L 138.744867 275.713157 
L 140.68106 276.304771 
L 144.28453 277.003952 
L 146.704771 277.918265 
L 148.533398 279.047711 
L 150.46959 280.607422 
L 152.190651 281.844434 
L 153.965494 282.81253 
L 155.901687 283.457928 
L 159.720289 284.372241 
L 161.817831 285.178988 
L 163.646458 286.254651 
L 167.841542 288.943807 
L 170.100434 289.965687 
L 174.510651 291.364048 
L 176.930892 292.170795 
L 178.544386 292.923759 
L 184.890795 296.36588 
L 189.139663 298.194506 
L 193.818795 300.076916 
L 198.336578 302.174458 
L 200.326554 303.034988 
L 202.31653 303.734169 
L 204.306506 304.218217 
L 206.672964 304.379566 
L 209.039422 304.003084 
L 211.24453 303.196337 
L 213.234506 302.282024 
L 215.332048 301.582843 
L 217.913639 301.313928 
L 220.549012 301.582843 
L 225.066795 302.712289 
L 227.110554 303.034988 
L 229.584578 302.981205 
L 231.68212 302.766072 
L 233.887229 302.658506 
L 236.092337 302.873639 
L 238.243663 303.519036 
L 240.233639 304.379566 
L 242.438747 305.455229 
L 244.751422 306.423325 
L 246.741398 307.068723 
L 251.259181 308.090602 
L 253.571855 308.520867 
L 257.659373 308.897349 
L 259.918265 308.628434 
L 263.952 307.552771 
L 266.372241 306.907373 
L 268.362217 306.584675 
L 270.244627 306.530892 
L 271.965687 306.746024 
L 276.429687 307.71412 
L 277.505349 307.71412 
L 278.312096 307.445205 
L 279.441542 307.01494 
L 279.818024 307.068723 
L 280.624771 307.767904 
L 281.055036 308.413301 
L 281.431518 309.327614 
L 281.646651 310.510843 
L 281.754217 312.231904 
L 281.700434 313.845398 
L 281.808 315.566458 
L 282.184482 316.857253 
L 282.883663 318.201831 
L 284.174458 319.869108 
L 285.626602 321.052337 
L 289.767904 323.633928 
L 293.47894 326.538217 
L 295.415133 328.151711 
L 297.405108 329.657639 
L 299.502651 330.948434 
L 307.032289 335.143518 
L 315.099759 340.521831 
L 323.059663 345.30853 
L 334.838169 352.838169 
L 340.646747 356.495422 
L 346.347759 360.206458 
L 359.57841 368.811759 
L 389.428048 388.603952 
L 395.505542 392.422554 
L 395.505542 392.422554 
" style="fill:none;stroke:#12c7e6;stroke-linecap:square;stroke-width:1.5;"/>
   </g>
   <g id="line2d_104">
    <path clip-path="url(#p19145b9dea)" d="M 181.610024 335.143518 
L 184.084048 335.251084 
L 186.611855 335.842699 
L 188.816964 336.810795 
L 193.119614 339.015904 
L 195.10959 339.607518 
L 197.583614 339.930217 
L 202.639229 340.252916 
L 204.790554 340.736964 
L 207.210795 341.597494 
L 211.513446 343.372337 
L 213.557205 343.910169 
L 215.923663 344.394217 
L 219.903614 344.932048 
L 223.776 345.846361 
L 227.863518 347.137157 
L 232.381301 348.266602 
L 241.470651 350.417928 
L 247.709494 351.977639 
L 250.291084 352.407904 
L 252.173494 352.569253 
L 253.195373 352.407904 
L 253.786988 352.192771 
L 254.271036 351.870072 
L 254.755084 351.386024 
L 255.400482 350.310361 
L 255.992096 348.481735 
L 256.207229 347.137157 
L 256.261012 344.770699 
L 255.88453 338.26294 
L 255.992096 338.047807 
L 256.314795 337.778892 
L 257.067759 337.348627 
L 258.143422 336.972145 
L 259.272867 336.810795 
L 260.886361 336.918361 
L 263.199036 337.509976 
L 262.983904 337.563759 
L 262.768771 337.671325 
L 262.714988 337.725108 
L 262.93012 337.617542 
L 263.306602 337.456193 
L 264.167133 337.40241 
L 265.081446 337.509976 
L 266.157108 337.940241 
L 267.609253 338.800771 
L 268.792482 340.037783 
L 269.760578 341.489928 
L 270.459759 343.157205 
L 271.374072 347.459855 
L 272.073253 349.127133 
L 272.772434 350.149012 
L 273.90188 351.170892 
L 275.515373 352.138988 
L 277.774265 352.945735 
L 279.710458 353.268434 
L 282.184482 353.429783 
L 284.766072 353.806265 
L 287.240096 354.559229 
L 289.606554 355.581108 
L 293.747855 357.624867 
L 296.437012 358.485398 
L 300.901012 359.292145 
L 302.675855 359.614843 
L 305.14988 360.260241 
L 307.57012 361.066988 
L 313.593831 363.32588 
L 318.057831 364.509108 
L 322.629398 365.74612 
L 335.268434 369.672289 
L 342.152675 371.716048 
L 353.124434 375.104386 
L 366.839133 379.245687 
L 375.390651 381.88106 
L 382.274892 383.924819 
L 391.202892 386.613976 
L 419.116337 394.57388 
L 428.474602 396.99412 
L 441.006072 400.167325 
L 443.103614 400.812723 
L 443.103614 400.812723 
" style="fill:none;stroke:#5bf9c7;stroke-linecap:square;stroke-width:1.5;"/>
   </g>
   <g id="line2d_105">
    <path clip-path="url(#p19145b9dea)" d="M 279.818024 432.86747 
L 279.549108 432.975036 
L 279.871807 432.70612 
L 280.302072 432.114506 
L 280.893687 430.931277 
L 281.323952 429.156434 
L 281.377735 426.413494 
L 280.893687 424.100819 
L 280.033157 422.164627 
L 278.957494 420.120867 
L 277.881831 417.700627 
L 277.344 415.549301 
L 277.182651 413.236627 
L 277.182651 410.708819 
L 276.967518 408.288578 
L 276.48347 406.244819 
L 274.332145 399.360578 
L 274.009446 397.209253 
L 273.632964 389.679614 
L 273.310265 387.259373 
L 271.266506 377.040578 
L 270.890024 372.684145 
L 270.99759 370.963084 
L 271.481639 368.273928 
L 271.750554 367.574747 
L 272.288386 366.875566 
L 273.310265 365.90747 
L 274.439711 365.100723 
L 276.859952 364.078843 
L 281.700434 363.056964 
L 284.38959 362.088867 
L 285.196337 361.389687 
L 285.572819 360.744289 
L 285.949301 359.829976 
L 286.164434 358.377831 
L 286.056867 357.087036 
L 285.626602 355.09706 
L 284.335807 351.708723 
L 284.120675 350.63306 
L 284.120675 349.987663 
L 284.282024 349.180916 
L 284.712289 348.320386 
L 286.325783 346.276627 
L 288.369542 344.663133 
L 290.251952 343.695036 
L 292.510843 342.72694 
L 294.016771 341.758843 
L 294.500819 341.274795 
L 295.038651 340.521831 
L 295.468916 339.499952 
L 295.845398 337.671325 
L 295.791614 336.057831 
L 295.307566 332.508145 
L 295.468916 329.926554 
L 296.114313 327.775229 
L 297.566458 325.139855 
L 299.072386 323.526361 
L 300.954795 322.020434 
L 304.074217 319.922892 
L 305.042313 319.008578 
L 305.526361 318.309398 
L 308.430651 311.156241 
L 310.420627 307.122506 
L 311.119807 305.240096 
L 311.496289 303.034988 
L 311.496289 301.206361 
L 310.850892 298.570988 
L 309.936578 296.796145 
L 306.279325 290.664867 
L 303.697735 285.178988 
L 302.191807 282.81253 
L 300.901012 281.09147 
L 297.889157 277.541783 
L 294.931084 273.454265 
L 292.188145 269.259181 
L 289.445205 265.494361 
L 282.82988 257.104193 
L 282.560964 256.835277 
L 282.722313 256.88906 
L 282.937446 256.88906 
L 283.045012 256.835277 
L 282.345831 257.534458 
L 281.808 258.61012 
L 281.592867 259.685783 
L 281.323952 263.827084 
L 281.270169 263.880867 
L 280.140723 264.042217 
L 279.06506 263.934651 
L 278.473446 263.719518 
L 277.182651 262.966554 
L 276.429687 262.37494 
L 273.74053 259.847133 
L 273.848096 259.847133 
L 274.063229 259.847133 
L 273.955663 259.954699 
L 273.364048 260.277398 
L 272.826217 260.815229 
L 272.180819 261.783325 
L 271.750554 262.751422 
L 271.105157 265.171663 
L 270.621108 265.386795 
L 269.760578 265.494361 
L 269.115181 265.386795 
L 268.200867 265.11788 
L 266.641157 264.096 
L 265.242795 263.07412 
L 264.920096 262.966554 
L 263.898217 263.289253 
L 263.414169 263.611952 
L 262.553639 264.741398 
L 261.424193 266.516241 
L 261.101494 266.785157 
L 259.918265 267.054072 
L 258.62747 266.83894 
L 257.121542 266.032193 
L 255.669398 264.795181 
L 255.024 264.472482 
L 255.131566 264.472482 
L 254.486169 264.687614 
L 254.055904 264.902747 
L 253.356723 265.548145 
L 252.549976 266.785157 
L 251.797012 267.860819 
L 251.42053 268.183518 
L 250.990265 268.291084 
L 249.591904 268.183518 
L 248.83894 267.860819 
L 247.440578 266.83894 
L 245.719518 264.95653 
L 245.23547 264.580048 
L 244.751422 264.364916 
L 244.106024 264.203566 
L 243.568193 264.203566 
L 242.438747 264.418699 
L 240.556337 265.333012 
L 239.265542 266.085976 
L 238.351229 266.354892 
L 237.436916 266.408675 
L 236.683952 266.301108 
L 235.715855 265.924627 
L 234.693976 265.171663 
L 233.672096 263.988434 
L 233.026699 262.858988 
L 232.327518 261.191711 
L 231.198072 257.964723 
L 230.12241 256.243663 
L 228.992964 255.168 
L 227.110554 253.984771 
L 222.270072 251.941012 
L 221.03306 251.188048 
L 219.849831 250.112386 
L 219.365783 249.359422 
L 218.774169 248.014843 
L 218.559036 246.831614 
L 218.559036 244.51894 
L 219.096867 242.421398 
L 220.226313 240.05494 
L 223.076819 236.45147 
L 224.313831 234.407711 
L 225.013012 231.98747 
L 225.120578 229.997494 
L 224.690313 227.631036 
L 223.937349 225.587277 
L 222.91547 223.274602 
L 222.216289 221.17706 
L 222.001157 218.165205 
L 222.270072 216.067663 
L 222.861687 213.97012 
L 223.345735 211.603663 
L 223.507084 209.129639 
L 223.345735 207.032096 
L 222.323855 201.707566 
L 222.108723 199.556241 
L 222.108723 197.673831 
L 222.592771 192.618217 
L 222.91547 189.821494 
L 222.969253 185.895325 
L 222.807904 178.742169 
L 222.861687 176.214361 
L 223.076819 173.310072 
L 223.076819 173.310072 
" style="fill:none;stroke:#a4f99f;stroke-linecap:square;stroke-width:1.5;"/>
   </g>
   <g id="line2d_106">
    <path clip-path="url(#p19145b9dea)" d="M 437.671518 178.795952 
L 437.940434 178.903518 
L 438.101783 179.064867 
L 438.263133 179.495133 
L 438.478265 180.947277 
L 438.370699 182.775904 
L 437.886651 184.60453 
L 436.810988 186.970988 
L 435.197494 189.06853 
L 433.153735 190.735807 
L 431.109976 192.134169 
L 429.281349 193.69388 
L 427.775422 195.576289 
L 426.753542 197.727614 
L 426.000578 199.771373 
L 424.817349 201.976482 
L 423.096289 203.966458 
L 419.600386 206.601831 
L 417.664193 208.053976 
L 416.373398 209.66747 
L 415.136386 211.818795 
L 414.168289 214.023904 
L 413.092627 216.121446 
L 411.479133 218.272771 
L 409.54294 219.940048 
L 407.82188 221.230843 
L 406.047036 222.790554 
L 404.648675 224.726747 
L 403.680578 226.770506 
L 402.766265 229.24453 
L 401.744386 231.234506 
L 400.130892 233.278265 
L 398.409831 234.676627 
L 394.913928 237.312 
L 393.461783 238.817928 
L 392.117205 240.861687 
L 389.750747 244.949205 
L 388.352386 246.670265 
L 386.631325 248.12241 
L 382.490024 250.919133 
L 380.87653 252.209928 
L 379.531952 253.769639 
L 374.476337 261.137928 
L 371.356916 265.010313 
L 370.281253 266.570024 
L 370.335036 266.247325 
L 370.173687 265.97841 
L 370.281253 266.032193 
L 371.410699 266.570024 
L 372.97041 266.946506 
L 375.014169 267.054072 
L 377.057928 266.731373 
L 379.047904 265.97841 
L 381.03788 265.010313 
L 381.360578 265.064096 
L 381.683277 265.655711 
L 381.844627 266.462458 
L 381.844627 267.430554 
L 381.575711 268.506217 
L 380.984096 269.797012 
L 380.016 271.14159 
L 378.026024 273.077783 
L 378.079807 272.970217 
L 377.972241 272.593735 
L 378.13359 272.701301 
L 378.725205 273.024 
L 379.693301 273.292916 
L 380.984096 273.346699 
L 382.382458 273.131566 
L 384.426217 272.539952 
L 384.748916 272.808867 
L 384.802699 272.916434 
L 384.856482 273.346699 
L 384.802699 274.368578 
L 384.533783 275.444241 
L 383.995952 276.519904 
L 383.242988 277.595566 
L 381.844627 279.262843 
L 381.89841 278.993928 
L 381.844627 278.778795 
L 381.73706 278.671229 
L 381.89841 278.778795 
L 382.59759 279.101494 
L 383.727036 279.37041 
L 385.448096 279.477976 
L 386.954024 279.262843 
L 390.557494 278.133398 
L 390.82641 278.294747 
L 390.82641 278.402313 
L 390.987759 278.940145 
L 390.987759 280.338506 
L 390.557494 282.597398 
L 389.535614 285.017639 
L 388.137253 286.953831 
L 385.878361 289.266506 
L 385.932145 289.15894 
L 385.824578 288.674892 
L 385.770795 288.621108 
L 386.147277 288.836241 
L 387.760771 289.481639 
L 390.127229 289.911904 
L 392.493687 289.804337 
L 394.806361 289.105157 
L 397.603084 287.760578 
L 397.818217 287.921928 
L 398.140916 288.459759 
L 398.463614 289.320289 
L 398.571181 290.503518 
L 398.409831 292.385928 
L 397.872 294.160771 
L 396.85012 295.935614 
L 393.784482 299.969349 
L 393.784482 299.754217 
L 393.730699 299.592867 
L 393.838265 299.700434 
L 394.806361 300.614747 
L 396.85012 301.69041 
L 399.162795 302.335807 
L 406.369735 302.981205 
L 406.584867 303.303904 
L 406.477301 303.787952 
L 406.047036 304.917398 
L 404.971373 306.423325 
L 403.411663 307.983036 
L 401.529253 309.166265 
L 399.377928 310.026795 
L 397.226602 310.725976 
L 395.505542 311.586506 
L 395.613108 311.47894 
L 395.505542 311.801639 
L 395.344193 312.662169 
L 395.344193 314.598361 
L 395.935807 316.911036 
L 396.796337 318.793446 
L 400.292241 323.418795 
L 400.507373 324.01041 
L 400.722506 324.978506 
L 400.668723 325.892819 
L 400.399807 326.968482 
L 399.539277 328.850892 
L 398.248482 330.518169 
L 396.258506 332.239229 
L 394.053398 333.476241 
L 389.96588 335.251084 
L 387.868337 336.54188 
L 385.985928 338.10159 
L 381.091663 342.888289 
L 379.209253 344.125301 
L 377.326843 345.147181 
L 375.067952 346.222843 
L 372.916627 347.459855 
L 369.474506 349.93388 
L 365.440771 352.945735 
L 355.81359 359.238361 
L 350.273928 363.16453 
L 342.851855 368.220145 
L 336.935711 372.25388 
L 327.738795 378.546506 
L 322.145349 382.365108 
L 312.679518 388.872867 
L 304.98853 394.089831 
L 295.468916 400.59759 
L 270.405976 417.861976 
L 266.910072 420.389783 
L 252.012145 431.630458 
L 247.81706 434.373398 
L 238.02853 440.397108 
L 232.166169 443.893012 
L 232.166169 443.893012 
" style="fill:none;stroke:#edc76f;stroke-linecap:square;stroke-width:1.5;"/>
   </g>
   <g id="line2d_107">
    <path clip-path="url(#p19145b9dea)" d="M 298.695904 300.453398 
L 299.072386 300.507181 
L 300.363181 300.66853 
L 302.568289 301.421494 
L 304.396916 302.658506 
L 305.902843 304.164434 
L 307.139855 305.939277 
L 308.269301 307.821687 
L 309.560096 309.973012 
L 310.850892 311.586506 
L 312.303036 313.038651 
L 313.91653 314.383229 
L 315.79894 316.050506 
L 317.627566 317.825349 
L 319.079711 319.438843 
L 320.424289 321.159904 
L 321.984 323.096096 
L 323.382361 324.70959 
L 325.103422 326.484434 
L 326.609349 328.044145 
L 328.384193 329.818988 
L 329.836337 331.378699 
L 331.557398 333.261108 
L 332.955759 334.874602 
L 334.623036 336.757012 
L 335.860048 338.047807 
L 337.312193 339.661301 
L 339.033253 341.489928 
L 340.754313 343.318554 
L 342.206458 344.878265 
L 343.873735 346.760675 
L 345.594795 348.589301 
L 347.262072 350.471711 
L 348.983133 352.300337 
L 350.65041 354.128964 
L 352.156337 355.742458 
L 353.608482 357.302169 
L 355.060627 358.86188 
L 356.727904 360.744289 
L 358.448964 362.572916 
L 360.170024 364.455325 
L 361.837301 366.283952 
L 363.289446 367.843663 
L 365.010506 369.726072 
L 366.462651 371.285783 
L 367.699663 372.630361 
L 369.151807 374.190072 
L 370.603952 375.749783 
L 372.271229 377.632193 
L 373.992289 379.460819 
L 375.659566 381.289446 
L 377.165494 382.90294 
L 378.617639 384.462651 
L 380.284916 386.34506 
L 381.73706 387.904771 
L 383.45812 389.733398 
L 384.910265 391.346892 
L 386.36241 392.906602 
L 388.08347 394.789012 
L 389.535614 396.348723 
L 391.202892 398.177349 
L 392.655036 399.790843 
L 394.376096 401.61947 
L 395.828241 403.232964 
L 397.280386 404.792675 
L 398.73253 406.406169 
L 400.184675 407.96588 
L 401.690602 409.52559 
L 403.142747 411.139084 
L 404.594892 412.698795 
L 406.047036 414.312289 
L 407.714313 416.140916 
L 409.435373 417.969542 
L 410.887518 419.583036 
L 412.339663 421.142747 
L 413.791807 422.756241 
L 415.243952 424.315952 
L 416.480964 425.66053 
L 418.148241 427.489157 
L 419.869301 429.317783 
L 421.590361 431.200193 
L 423.257639 433.028819 
L 424.709783 434.58853 
L 426.161928 436.202024 
L 427.882988 438.030651 
" style="fill:none;stroke:#ff6f39;stroke-linecap:square;stroke-width:1.5;"/>
   </g>
   <g id="line2d_108">
    <path clip-path="url(#p19145b9dea)" d="M 162.086747 403.717012 
L 162.463229 403.717012 
L 163.538892 403.50188 
L 164.88347 402.910265 
L 166.120482 402.049735 
L 167.572627 400.59759 
L 168.917205 398.607614 
L 169.670169 396.671422 
L 170.638265 392.69147 
L 171.552578 390.217446 
L 172.628241 388.335036 
L 175.69388 384.355084 
L 176.823325 382.580241 
L 177.737639 380.697831 
L 179.512482 375.964916 
L 180.373012 373.97494 
L 182.631904 369.887422 
L 184.837012 366.176386 
L 186.719422 362.357783 
L 188.870747 357.786217 
L 197.798747 340.629398 
L 199.73494 337.133494 
L 200.918169 335.197301 
L 202.854361 332.723277 
L 204.575422 331.540048 
L 206.296482 330.625735 
L 206.888096 330.19547 
L 207.587277 329.496289 
L 208.071325 328.743325 
L 208.447807 327.775229 
L 208.716723 326.753349 
L 208.985639 324.171759 
L 209.200771 321.321253 
L 209.52347 319.653976 
L 210.115084 317.610217 
L 212.427759 311.102458 
L 213.664771 306.961157 
L 214.525301 304.594699 
L 216.407711 300.66853 
L 220.764145 292.493494 
L 222.807904 288.29841 
L 227.056771 280.392289 
L 232.542651 269.958361 
L 237.329349 260.600096 
L 237.436916 260.331181 
L 237.436916 260.49253 
L 237.705831 260.815229 
L 237.490699 260.761446 
L 236.30747 260.761446 
L 235.500723 260.976578 
L 234.048578 261.837108 
L 233.241831 262.267373 
L 232.811566 262.21359 
L 232.542651 261.998458 
L 232.004819 261.406843 
L 231.466988 259.847133 
L 231.413205 259.040386 
L 231.735904 255.652048 
L 231.251855 254.683952 
L 230.714024 254.199904 
L 229.638361 253.554506 
L 228.293783 253.178024 
L 223.453301 252.532627 
L 222.377639 252.102361 
L 222.001157 250.919133 
L 221.947373 249.735904 
L 222.216289 248.283759 
L 222.861687 246.777831 
L 223.991133 245.110554 
L 225.49706 243.550843 
L 227.002988 242.152482 
L 227.917301 241.023036 
L 228.455133 240.05494 
L 228.724048 239.19441 
L 228.777831 237.634699 
L 228.401349 235.483373 
L 227.487036 233.278265 
L 224.744096 229.136964 
L 224.044916 227.577253 
L 223.829783 226.394024 
L 223.883566 225.103229 
L 224.260048 223.812434 
L 225.228145 222.252723 
L 227.002988 220.639229 
L 229.208096 219.348434 
L 231.68212 218.057639 
L 233.510747 216.928193 
L 234.855325 215.744964 
L 235.984771 214.239036 
L 236.576386 213.002024 
L 236.899084 212.033928 
L 237.060434 210.958265 
L 236.952867 210.043952 
L 236.630169 208.968289 
L 235.877205 207.623711 
L 233.941012 204.719422 
L 233.56453 203.805108 
L 233.349398 202.944578 
L 233.295614 202.030265 
L 233.510747 200.685687 
L 234.048578 199.448675 
L 235.124241 197.835181 
L 236.791518 196.27547 
L 240.663904 193.909012 
L 242.384964 192.618217 
L 243.837108 190.95094 
L 244.751422 189.176096 
L 245.450602 186.917205 
L 245.934651 184.873446 
L 246.633831 183.044819 
L 247.81706 181.323759 
L 249.107855 180.086747 
L 251.259181 178.795952 
L 253.733205 177.989205 
L 256.207229 177.720289 
L 261.316627 177.720289 
L 263.683084 177.290024 
L 265.67306 176.590843 
L 270.190843 174.600867 
L 272.664867 173.901687 
L 274.869976 173.578988 
L 283.367711 173.578988 
L 283.367711 173.578988 
" style="fill:none;stroke:#ff0000;stroke-linecap:square;stroke-width:1.5;"/>
   </g>
   <g id="patch_3">
    <path d="M 72 512.64 
L 72 69.12 
" style="fill:none;stroke:#000000;stroke-linecap:square;stroke-linejoin:miter;stroke-width:0.8;"/>
   </g>
   <g id="patch_4">
    <path d="M 518.4 512.64 
L 518.4 69.12 
" style="fill:none;stroke:#000000;stroke-linecap:square;stroke-linejoin:miter;stroke-width:0.8;"/>
   </g>
   <g id="patch_5">
    <path d="M 72 512.64 
L 518.4 512.64 
" style="fill:none;stroke:#000000;stroke-linecap:square;stroke-linejoin:miter;stroke-width:0.8;"/>
   </g>
   <g id="patch_6">
    <path d="M 72 69.12 
L 518.4 69.12 
" style="fill:none;stroke:#000000;stroke-linecap:square;stroke-linejoin:miter;stroke-width:0.8;"/>
   </g>
   <g id="text_18">
    <!-- 1 -->
    <defs>
     <path d="M 14.203125 0 
L 14.203125 5.171875 
L 26.90625 5.171875 
L 26.90625 65.828125 
L 12.203125 56.296875 
L 12.203125 62.703125 
L 29.984375 74.21875 
L 36.71875 74.21875 
L 36.71875 5.171875 
L 49.421875 5.171875 
L 49.421875 0 
z
" id="DejaVuSerif-31"/>
    </defs>
    <g transform="translate(125.879469 442.779241)scale(0.1 -0.1)">
     <use xlink:href="#DejaVuSerif-31"/>
    </g>
   </g>
   <g id="text_19">
    <!-- 1 -->
    <g transform="translate(139.677864 164.772056)scale(0.1 -0.1)">
     <use xlink:href="#DejaVuSerif-31"/>
    </g>
   </g>
   <g id="text_20">
    <!-- 2 -->
    <defs>
     <path d="M 12.796875 55.515625 
L 7.328125 55.515625 
L 7.328125 68.5 
Q 12.546875 71.296875 17.84375 72.75 
Q 23.140625 74.21875 28.21875 74.21875 
Q 39.59375 74.21875 46.1875 68.703125 
Q 52.78125 63.1875 52.78125 53.71875 
Q 52.78125 43.015625 37.84375 28.125 
Q 36.671875 27 36.078125 26.421875 
L 17.671875 8.015625 
L 48.09375 8.015625 
L 48.09375 17 
L 53.8125 17 
L 53.8125 0 
L 6.78125 0 
L 6.78125 5.328125 
L 28.90625 27.390625 
Q 36.234375 34.71875 39.359375 40.84375 
Q 42.484375 46.96875 42.484375 53.71875 
Q 42.484375 61.078125 38.640625 65.234375 
Q 34.8125 69.390625 28.078125 69.390625 
Q 21.09375 69.390625 17.28125 65.921875 
Q 13.484375 62.453125 12.796875 55.515625 
z
" id="DejaVuSerif-32"/>
    </defs>
    <g transform="translate(189.550846 132.055727)scale(0.1 -0.1)">
     <use xlink:href="#DejaVuSerif-32"/>
    </g>
   </g>
   <g id="text_21">
    <!-- 2 -->
    <g transform="translate(392.949183 211.087209)scale(0.1 -0.1)">
     <use xlink:href="#DejaVuSerif-32"/>
    </g>
   </g>
   <g id="text_22">
    <!-- 3 -->
    <defs>
     <path d="M 9.71875 69.828125 
Q 15.4375 71.96875 20.671875 73.09375 
Q 25.921875 74.21875 30.515625 74.21875 
Q 41.21875 74.21875 47.21875 69.59375 
Q 53.21875 64.984375 53.21875 56.78125 
Q 53.21875 50.203125 49.0625 45.78125 
Q 44.921875 41.359375 37.3125 39.796875 
Q 46.296875 38.53125 51.25 33.28125 
Q 56.203125 28.03125 56.203125 19.671875 
Q 56.203125 9.46875 49.34375 4.015625 
Q 42.484375 -1.421875 29.59375 -1.421875 
Q 23.875 -1.421875 18.421875 -0.1875 
Q 12.984375 1.03125 7.625 3.515625 
L 7.625 17.671875 
L 13.09375 17.671875 
Q 13.578125 10.640625 17.828125 7.03125 
Q 22.078125 3.421875 29.78125 3.421875 
Q 37.25 3.421875 41.578125 7.734375 
Q 45.90625 12.0625 45.90625 19.578125 
Q 45.90625 28.171875 41.453125 32.59375 
Q 37.015625 37.015625 28.421875 37.015625 
L 23.78125 37.015625 
L 23.78125 42 
L 26.21875 42 
Q 34.765625 42 39.03125 45.53125 
Q 43.3125 49.078125 43.3125 56.203125 
Q 43.3125 62.59375 39.796875 65.984375 
Q 36.28125 69.390625 29.6875 69.390625 
Q 23.09375 69.390625 19.453125 66.265625 
Q 15.828125 63.140625 15.1875 56.984375 
L 9.71875 56.984375 
z
" id="DejaVuSerif-33"/>
    </defs>
    <g transform="translate(122.826001 269.694595)scale(0.1 -0.1)">
     <use xlink:href="#DejaVuSerif-33"/>
    </g>
   </g>
   <g id="text_23">
    <!-- 3 -->
    <g transform="translate(392.729601 392.412119)scale(0.1 -0.1)">
     <use xlink:href="#DejaVuSerif-33"/>
    </g>
   </g>
   <g id="text_24">
    <!-- 4 -->
    <defs>
     <path d="M 34.90625 24.703125 
L 34.90625 63.484375 
L 10.015625 24.703125 
z
M 56.390625 0 
L 23.1875 0 
L 23.1875 5.171875 
L 34.90625 5.171875 
L 34.90625 19.484375 
L 3.078125 19.484375 
L 3.078125 24.8125 
L 35.015625 74.21875 
L 44.671875 74.21875 
L 44.671875 24.703125 
L 58.59375 24.703125 
L 58.59375 19.484375 
L 44.671875 19.484375 
L 44.671875 5.171875 
L 56.390625 5.171875 
z
" id="DejaVuSerif-34"/>
    </defs>
    <g transform="translate(178.448878 335.118503)scale(0.1 -0.1)">
     <use xlink:href="#DejaVuSerif-34"/>
    </g>
   </g>
   <g id="text_25">
    <!-- 4 -->
    <g transform="translate(439.246227 401.05091)scale(0.1 -0.1)">
     <use xlink:href="#DejaVuSerif-34"/>
    </g>
   </g>
   <g id="text_26">
    <!-- 5 -->
    <defs>
     <path d="M 50.296875 72.90625 
L 50.296875 64.890625 
L 16.890625 64.890625 
L 16.890625 44 
Q 19.4375 45.75 22.828125 46.625 
Q 26.21875 47.515625 30.421875 47.515625 
Q 42.234375 47.515625 49.0625 40.96875 
Q 55.90625 34.421875 55.90625 23.09375 
Q 55.90625 11.53125 49 5.046875 
Q 42.09375 -1.421875 29.59375 -1.421875 
Q 24.5625 -1.421875 19.28125 -0.1875 
Q 14.015625 1.03125 8.5 3.515625 
L 8.5 17.671875 
L 14.015625 17.671875 
Q 14.453125 10.75 18.421875 7.078125 
Q 22.40625 3.421875 29.59375 3.421875 
Q 37.3125 3.421875 41.453125 8.5 
Q 45.609375 13.578125 45.609375 23.09375 
Q 45.609375 32.5625 41.484375 37.609375 
Q 37.359375 42.671875 29.59375 42.671875 
Q 25.203125 42.671875 21.84375 41.109375 
Q 18.5 39.546875 15.921875 36.28125 
L 11.71875 36.28125 
L 11.71875 72.90625 
z
" id="DejaVuSerif-35"/>
    </defs>
    <g transform="translate(276.661698 432.886338)scale(0.1 -0.1)">
     <use xlink:href="#DejaVuSerif-35"/>
    </g>
   </g>
   <g id="text_27">
    <!-- 5 -->
    <g transform="translate(219.899715 173.055476)scale(0.1 -0.1)">
     <use xlink:href="#DejaVuSerif-35"/>
    </g>
   </g>
   <g id="text_28">
    <!-- 6 -->
    <defs>
     <path d="M 32.71875 3.421875 
Q 39.59375 3.421875 43.296875 8.46875 
Q 47.015625 13.53125 47.015625 23 
Q 47.015625 32.46875 43.296875 37.515625 
Q 39.59375 42.578125 32.71875 42.578125 
Q 25.734375 42.578125 22.0625 37.6875 
Q 18.40625 32.8125 18.40625 23.578125 
Q 18.40625 13.875 22.109375 8.640625 
Q 25.828125 3.421875 32.71875 3.421875 
z
M 16.796875 40.140625 
Q 20.125 43.796875 24.3125 45.59375 
Q 28.515625 47.40625 33.796875 47.40625 
Q 44.671875 47.40625 51 40.859375 
Q 57.328125 34.328125 57.328125 23 
Q 57.328125 11.921875 50.515625 5.25 
Q 43.703125 -1.421875 32.328125 -1.421875 
Q 19.96875 -1.421875 13.328125 7.78125 
Q 6.6875 17 6.6875 34.078125 
Q 6.6875 53.21875 14.546875 63.71875 
Q 22.40625 74.21875 36.71875 74.21875 
Q 40.578125 74.21875 44.828125 73.484375 
Q 49.078125 72.75 53.515625 71.296875 
L 53.515625 59.28125 
L 48 59.28125 
Q 47.40625 64.203125 44.234375 66.796875 
Q 41.0625 69.390625 35.6875 69.390625 
Q 26.21875 69.390625 21.578125 62.203125 
Q 16.9375 55.03125 16.796875 40.140625 
z
" id="DejaVuSerif-36"/>
    </defs>
    <g transform="translate(434.503594 178.814645)scale(0.1 -0.1)">
     <use xlink:href="#DejaVuSerif-36"/>
    </g>
   </g>
   <g id="text_29">
    <!-- 6 -->
    <g transform="translate(228.604649 444.128679)scale(0.1 -0.1)">
     <use xlink:href="#DejaVuSerif-36"/>
    </g>
   </g>
   <g id="text_30">
    <!-- 7 -->
    <defs>
     <path d="M 56.390625 67.921875 
L 27.875 0 
L 20.609375 0 
L 47.796875 64.890625 
L 14.109375 64.890625 
L 14.109375 55.90625 
L 8.40625 55.90625 
L 8.40625 72.90625 
L 56.390625 72.90625 
z
" id="DejaVuSerif-37"/>
    </defs>
    <g transform="translate(295.494605 300.471217)scale(0.1 -0.1)">
     <use xlink:href="#DejaVuSerif-37"/>
    </g>
   </g>
   <g id="text_31">
    <!-- 7 -->
    <g transform="translate(425.474452 438.87994)scale(0.1 -0.1)">
     <use xlink:href="#DejaVuSerif-37"/>
    </g>
   </g>
   <g id="text_32">
    <!-- 8 -->
    <defs>
     <path d="M 46.578125 19.921875 
Q 46.578125 27.734375 42.6875 32.046875 
Q 38.8125 36.375 31.78125 36.375 
Q 24.75 36.375 20.875 32.046875 
Q 17 27.734375 17 19.921875 
Q 17 12.0625 20.875 7.734375 
Q 24.75 3.421875 31.78125 3.421875 
Q 38.8125 3.421875 42.6875 7.734375 
Q 46.578125 12.0625 46.578125 19.921875 
z
M 44.578125 55.328125 
Q 44.578125 61.96875 41.203125 65.671875 
Q 37.84375 69.390625 31.78125 69.390625 
Q 25.78125 69.390625 22.390625 65.671875 
Q 19 61.96875 19 55.328125 
Q 19 48.640625 22.390625 44.921875 
Q 25.78125 41.21875 31.78125 41.21875 
Q 37.84375 41.21875 41.203125 44.921875 
Q 44.578125 48.640625 44.578125 55.328125 
z
M 39.3125 38.8125 
Q 47.609375 37.703125 52.25 32.6875 
Q 56.890625 27.6875 56.890625 19.921875 
Q 56.890625 9.671875 50.390625 4.125 
Q 43.890625 -1.421875 31.78125 -1.421875 
Q 19.734375 -1.421875 13.203125 4.125 
Q 6.6875 9.671875 6.6875 19.921875 
Q 6.6875 27.6875 11.328125 32.6875 
Q 15.96875 37.703125 24.3125 38.8125 
Q 16.9375 40.140625 13 44.40625 
Q 9.078125 48.6875 9.078125 55.328125 
Q 9.078125 64.109375 15.125 69.15625 
Q 21.1875 74.21875 31.78125 74.21875 
Q 42.390625 74.21875 48.4375 69.15625 
Q 54.5 64.109375 54.5 55.328125 
Q 54.5 48.6875 50.5625 44.40625 
Q 46.625 40.140625 39.3125 38.8125 
z
" id="DejaVuSerif-38"/>
    </defs>
    <g transform="translate(158.907205 403.715413)scale(0.1 -0.1)">
     <use xlink:href="#DejaVuSerif-38"/>
    </g>
   </g>
   <g id="text_33">
    <!-- 8 -->
    <g transform="translate(280.635833 172.928161)scale(0.1 -0.1)">
     <use xlink:href="#DejaVuSerif-38"/>
    </g>
   </g>
  </g>
 </g>
 <defs>
  <clipPath id="p19145b9dea">
   <rect height="443.52" width="446.4" x="72" y="69.12"/>
  </clipPath>
 </defs>
</svg>
