<?xml version="1.0" encoding="utf-8" standalone="no"?>
<!DOCTYPE svg PUBLIC "-//W3C//DTD SVG 1.1//EN"
  "http://www.w3.org/Graphics/SVG/1.1/DTD/svg11.dtd">
<!-- Created with matplotlib (http://matplotlib.org/) -->
<svg height="576pt" version="1.1" viewBox="0 0 576 576" width="576pt" xmlns="http://www.w3.org/2000/svg" xmlns:xlink="http://www.w3.org/1999/xlink">
 <defs>
  <style type="text/css">
*{stroke-linecap:butt;stroke-linejoin:round;}
  </style>
 </defs>
 <g id="figure_1">
  <g id="patch_1">
   <path d="M 0 576 
L 576 576 
L 576 0 
L 0 0 
z
" style="fill:#ffffff;"/>
  </g>
  <g id="axes_1">
   <g id="patch_2">
    <path d="M 72 512.64 
L 518.4 512.64 
L 518.4 69.12 
L 72 69.12 
z
" style="fill:#ffffff;"/>
   </g>
   <g id="matplotlib.axis_1">
    <g id="xtick_1">
     <g id="line2d_1">
      <defs>
       <path d="M 0 0 
L 0 3.5 
" id="m96a7771efb" style="stroke:#000000;stroke-width:0.8;"/>
      </defs>
      <g>
       <use style="stroke:#000000;stroke-width:0.8;" x="72" xlink:href="#m96a7771efb" y="512.64"/>
      </g>
     </g>
     <g id="text_1">
      <!-- −1 -->
      <defs>
       <path d="M 10.59375 35.5 
L 73.1875 35.5 
L 73.1875 27.203125 
L 10.59375 27.203125 
z
" id="DejaVuSans-2212"/>
       <path d="M 12.40625 8.296875 
L 28.515625 8.296875 
L 28.515625 63.921875 
L 10.984375 60.40625 
L 10.984375 69.390625 
L 28.421875 72.90625 
L 38.28125 72.90625 
L 38.28125 8.296875 
L 54.390625 8.296875 
L 54.390625 0 
L 12.40625 0 
z
" id="DejaVuSans-31"/>
      </defs>
      <g transform="translate(64.628906 527.238438)scale(0.1 -0.1)">
       <use xlink:href="#DejaVuSans-2212"/>
       <use x="83.789062" xlink:href="#DejaVuSans-31"/>
      </g>
     </g>
    </g>
    <g id="xtick_2">
     <g id="line2d_2">
      <g>
       <use style="stroke:#000000;stroke-width:0.8;" x="125.783133" xlink:href="#m96a7771efb" y="512.64"/>
      </g>
     </g>
     <g id="text_2">
      <!-- 0 -->
      <defs>
       <path d="M 31.78125 66.40625 
Q 24.171875 66.40625 20.328125 58.90625 
Q 16.5 51.421875 16.5 36.375 
Q 16.5 21.390625 20.328125 13.890625 
Q 24.171875 6.390625 31.78125 6.390625 
Q 39.453125 6.390625 43.28125 13.890625 
Q 47.125 21.390625 47.125 36.375 
Q 47.125 51.421875 43.28125 58.90625 
Q 39.453125 66.40625 31.78125 66.40625 
z
M 31.78125 74.21875 
Q 44.046875 74.21875 50.515625 64.515625 
Q 56.984375 54.828125 56.984375 36.375 
Q 56.984375 17.96875 50.515625 8.265625 
Q 44.046875 -1.421875 31.78125 -1.421875 
Q 19.53125 -1.421875 13.0625 8.265625 
Q 6.59375 17.96875 6.59375 36.375 
Q 6.59375 54.828125 13.0625 64.515625 
Q 19.53125 74.21875 31.78125 74.21875 
z
" id="DejaVuSans-30"/>
      </defs>
      <g transform="translate(122.601883 527.238438)scale(0.1 -0.1)">
       <use xlink:href="#DejaVuSans-30"/>
      </g>
     </g>
    </g>
    <g id="xtick_3">
     <g id="line2d_3">
      <g>
       <use style="stroke:#000000;stroke-width:0.8;" x="179.566265" xlink:href="#m96a7771efb" y="512.64"/>
      </g>
     </g>
     <g id="text_3">
      <!-- 1 -->
      <g transform="translate(176.385015 527.238438)scale(0.1 -0.1)">
       <use xlink:href="#DejaVuSans-31"/>
      </g>
     </g>
    </g>
    <g id="xtick_4">
     <g id="line2d_4">
      <g>
       <use style="stroke:#000000;stroke-width:0.8;" x="233.349398" xlink:href="#m96a7771efb" y="512.64"/>
      </g>
     </g>
     <g id="text_4">
      <!-- 2 -->
      <defs>
       <path d="M 19.1875 8.296875 
L 53.609375 8.296875 
L 53.609375 0 
L 7.328125 0 
L 7.328125 8.296875 
Q 12.9375 14.109375 22.625 23.890625 
Q 32.328125 33.6875 34.8125 36.53125 
Q 39.546875 41.84375 41.421875 45.53125 
Q 43.3125 49.21875 43.3125 52.78125 
Q 43.3125 58.59375 39.234375 62.25 
Q 35.15625 65.921875 28.609375 65.921875 
Q 23.96875 65.921875 18.8125 64.3125 
Q 13.671875 62.703125 7.8125 59.421875 
L 7.8125 69.390625 
Q 13.765625 71.78125 18.9375 73 
Q 24.125 74.21875 28.421875 74.21875 
Q 39.75 74.21875 46.484375 68.546875 
Q 53.21875 62.890625 53.21875 53.421875 
Q 53.21875 48.921875 51.53125 44.890625 
Q 49.859375 40.875 45.40625 35.40625 
Q 44.1875 33.984375 37.640625 27.21875 
Q 31.109375 20.453125 19.1875 8.296875 
z
" id="DejaVuSans-32"/>
      </defs>
      <g transform="translate(230.168148 527.238438)scale(0.1 -0.1)">
       <use xlink:href="#DejaVuSans-32"/>
      </g>
     </g>
    </g>
    <g id="xtick_5">
     <g id="line2d_5">
      <g>
       <use style="stroke:#000000;stroke-width:0.8;" x="287.13253" xlink:href="#m96a7771efb" y="512.64"/>
      </g>
     </g>
     <g id="text_5">
      <!-- 3 -->
      <defs>
       <path d="M 40.578125 39.3125 
Q 47.65625 37.796875 51.625 33 
Q 55.609375 28.21875 55.609375 21.1875 
Q 55.609375 10.40625 48.1875 4.484375 
Q 40.765625 -1.421875 27.09375 -1.421875 
Q 22.515625 -1.421875 17.65625 -0.515625 
Q 12.796875 0.390625 7.625 2.203125 
L 7.625 11.71875 
Q 11.71875 9.328125 16.59375 8.109375 
Q 21.484375 6.890625 26.8125 6.890625 
Q 36.078125 6.890625 40.9375 10.546875 
Q 45.796875 14.203125 45.796875 21.1875 
Q 45.796875 27.640625 41.28125 31.265625 
Q 36.765625 34.90625 28.71875 34.90625 
L 20.21875 34.90625 
L 20.21875 43.015625 
L 29.109375 43.015625 
Q 36.375 43.015625 40.234375 45.921875 
Q 44.09375 48.828125 44.09375 54.296875 
Q 44.09375 59.90625 40.109375 62.90625 
Q 36.140625 65.921875 28.71875 65.921875 
Q 24.65625 65.921875 20.015625 65.03125 
Q 15.375 64.15625 9.8125 62.3125 
L 9.8125 71.09375 
Q 15.4375 72.65625 20.34375 73.4375 
Q 25.25 74.21875 29.59375 74.21875 
Q 40.828125 74.21875 47.359375 69.109375 
Q 53.90625 64.015625 53.90625 55.328125 
Q 53.90625 49.265625 50.4375 45.09375 
Q 46.96875 40.921875 40.578125 39.3125 
z
" id="DejaVuSans-33"/>
      </defs>
      <g transform="translate(283.95128 527.238438)scale(0.1 -0.1)">
       <use xlink:href="#DejaVuSans-33"/>
      </g>
     </g>
    </g>
    <g id="xtick_6">
     <g id="line2d_6">
      <g>
       <use style="stroke:#000000;stroke-width:0.8;" x="340.915663" xlink:href="#m96a7771efb" y="512.64"/>
      </g>
     </g>
     <g id="text_6">
      <!-- 4 -->
      <defs>
       <path d="M 37.796875 64.3125 
L 12.890625 25.390625 
L 37.796875 25.390625 
z
M 35.203125 72.90625 
L 47.609375 72.90625 
L 47.609375 25.390625 
L 58.015625 25.390625 
L 58.015625 17.1875 
L 47.609375 17.1875 
L 47.609375 0 
L 37.796875 0 
L 37.796875 17.1875 
L 4.890625 17.1875 
L 4.890625 26.703125 
z
" id="DejaVuSans-34"/>
      </defs>
      <g transform="translate(337.734413 527.238438)scale(0.1 -0.1)">
       <use xlink:href="#DejaVuSans-34"/>
      </g>
     </g>
    </g>
    <g id="xtick_7">
     <g id="line2d_7">
      <g>
       <use style="stroke:#000000;stroke-width:0.8;" x="394.698795" xlink:href="#m96a7771efb" y="512.64"/>
      </g>
     </g>
     <g id="text_7">
      <!-- 5 -->
      <defs>
       <path d="M 10.796875 72.90625 
L 49.515625 72.90625 
L 49.515625 64.59375 
L 19.828125 64.59375 
L 19.828125 46.734375 
Q 21.96875 47.46875 24.109375 47.828125 
Q 26.265625 48.1875 28.421875 48.1875 
Q 40.625 48.1875 47.75 41.5 
Q 54.890625 34.8125 54.890625 23.390625 
Q 54.890625 11.625 47.5625 5.09375 
Q 40.234375 -1.421875 26.90625 -1.421875 
Q 22.3125 -1.421875 17.546875 -0.640625 
Q 12.796875 0.140625 7.71875 1.703125 
L 7.71875 11.625 
Q 12.109375 9.234375 16.796875 8.0625 
Q 21.484375 6.890625 26.703125 6.890625 
Q 35.15625 6.890625 40.078125 11.328125 
Q 45.015625 15.765625 45.015625 23.390625 
Q 45.015625 31 40.078125 35.4375 
Q 35.15625 39.890625 26.703125 39.890625 
Q 22.75 39.890625 18.8125 39.015625 
Q 14.890625 38.140625 10.796875 36.28125 
z
" id="DejaVuSans-35"/>
      </defs>
      <g transform="translate(391.517545 527.238438)scale(0.1 -0.1)">
       <use xlink:href="#DejaVuSans-35"/>
      </g>
     </g>
    </g>
    <g id="xtick_8">
     <g id="line2d_8">
      <g>
       <use style="stroke:#000000;stroke-width:0.8;" x="448.481928" xlink:href="#m96a7771efb" y="512.64"/>
      </g>
     </g>
     <g id="text_8">
      <!-- 6 -->
      <defs>
       <path d="M 33.015625 40.375 
Q 26.375 40.375 22.484375 35.828125 
Q 18.609375 31.296875 18.609375 23.390625 
Q 18.609375 15.53125 22.484375 10.953125 
Q 26.375 6.390625 33.015625 6.390625 
Q 39.65625 6.390625 43.53125 10.953125 
Q 47.40625 15.53125 47.40625 23.390625 
Q 47.40625 31.296875 43.53125 35.828125 
Q 39.65625 40.375 33.015625 40.375 
z
M 52.59375 71.296875 
L 52.59375 62.3125 
Q 48.875 64.0625 45.09375 64.984375 
Q 41.3125 65.921875 37.59375 65.921875 
Q 27.828125 65.921875 22.671875 59.328125 
Q 17.53125 52.734375 16.796875 39.40625 
Q 19.671875 43.65625 24.015625 45.921875 
Q 28.375 48.1875 33.59375 48.1875 
Q 44.578125 48.1875 50.953125 41.515625 
Q 57.328125 34.859375 57.328125 23.390625 
Q 57.328125 12.15625 50.6875 5.359375 
Q 44.046875 -1.421875 33.015625 -1.421875 
Q 20.359375 -1.421875 13.671875 8.265625 
Q 6.984375 17.96875 6.984375 36.375 
Q 6.984375 53.65625 15.1875 63.9375 
Q 23.390625 74.21875 37.203125 74.21875 
Q 40.921875 74.21875 44.703125 73.484375 
Q 48.484375 72.75 52.59375 71.296875 
z
" id="DejaVuSans-36"/>
      </defs>
      <g transform="translate(445.300678 527.238438)scale(0.1 -0.1)">
       <use xlink:href="#DejaVuSans-36"/>
      </g>
     </g>
    </g>
    <g id="xtick_9">
     <g id="line2d_9">
      <g>
       <use style="stroke:#000000;stroke-width:0.8;" x="502.26506" xlink:href="#m96a7771efb" y="512.64"/>
      </g>
     </g>
     <g id="text_9">
      <!-- 7 -->
      <defs>
       <path d="M 8.203125 72.90625 
L 55.078125 72.90625 
L 55.078125 68.703125 
L 28.609375 0 
L 18.3125 0 
L 43.21875 64.59375 
L 8.203125 64.59375 
z
" id="DejaVuSans-37"/>
      </defs>
      <g transform="translate(499.08381 527.238438)scale(0.1 -0.1)">
       <use xlink:href="#DejaVuSans-37"/>
      </g>
     </g>
    </g>
   </g>
   <g id="matplotlib.axis_2">
    <g id="ytick_1">
     <g id="line2d_10">
      <defs>
       <path d="M 0 0 
L -3.5 0 
" id="m69f7c2981c" style="stroke:#000000;stroke-width:0.8;"/>
      </defs>
      <g>
       <use style="stroke:#000000;stroke-width:0.8;" x="72" xlink:href="#m69f7c2981c" y="460.296867"/>
      </g>
     </g>
     <g id="text_10">
      <!-- 0 -->
      <g transform="translate(58.6375 464.096086)scale(0.1 -0.1)">
       <use xlink:href="#DejaVuSans-30"/>
      </g>
     </g>
    </g>
    <g id="ytick_2">
     <g id="line2d_11">
      <g>
       <use style="stroke:#000000;stroke-width:0.8;" x="72" xlink:href="#m69f7c2981c" y="406.513735"/>
      </g>
     </g>
     <g id="text_11">
      <!-- 1 -->
      <g transform="translate(58.6375 410.312954)scale(0.1 -0.1)">
       <use xlink:href="#DejaVuSans-31"/>
      </g>
     </g>
    </g>
    <g id="ytick_3">
     <g id="line2d_12">
      <g>
       <use style="stroke:#000000;stroke-width:0.8;" x="72" xlink:href="#m69f7c2981c" y="352.730602"/>
      </g>
     </g>
     <g id="text_12">
      <!-- 2 -->
      <g transform="translate(58.6375 356.529821)scale(0.1 -0.1)">
       <use xlink:href="#DejaVuSans-32"/>
      </g>
     </g>
    </g>
    <g id="ytick_4">
     <g id="line2d_13">
      <g>
       <use style="stroke:#000000;stroke-width:0.8;" x="72" xlink:href="#m69f7c2981c" y="298.94747"/>
      </g>
     </g>
     <g id="text_13">
      <!-- 3 -->
      <g transform="translate(58.6375 302.746689)scale(0.1 -0.1)">
       <use xlink:href="#DejaVuSans-33"/>
      </g>
     </g>
    </g>
    <g id="ytick_5">
     <g id="line2d_14">
      <g>
       <use style="stroke:#000000;stroke-width:0.8;" x="72" xlink:href="#m69f7c2981c" y="245.164337"/>
      </g>
     </g>
     <g id="text_14">
      <!-- 4 -->
      <g transform="translate(58.6375 248.963556)scale(0.1 -0.1)">
       <use xlink:href="#DejaVuSans-34"/>
      </g>
     </g>
    </g>
    <g id="ytick_6">
     <g id="line2d_15">
      <g>
       <use style="stroke:#000000;stroke-width:0.8;" x="72" xlink:href="#m69f7c2981c" y="191.381205"/>
      </g>
     </g>
     <g id="text_15">
      <!-- 5 -->
      <g transform="translate(58.6375 195.180424)scale(0.1 -0.1)">
       <use xlink:href="#DejaVuSans-35"/>
      </g>
     </g>
    </g>
    <g id="ytick_7">
     <g id="line2d_16">
      <g>
       <use style="stroke:#000000;stroke-width:0.8;" x="72" xlink:href="#m69f7c2981c" y="137.598072"/>
      </g>
     </g>
     <g id="text_16">
      <!-- 6 -->
      <g transform="translate(58.6375 141.397291)scale(0.1 -0.1)">
       <use xlink:href="#DejaVuSans-36"/>
      </g>
     </g>
    </g>
    <g id="ytick_8">
     <g id="line2d_17">
      <g>
       <use style="stroke:#000000;stroke-width:0.8;" x="72" xlink:href="#m69f7c2981c" y="83.81494"/>
      </g>
     </g>
     <g id="text_17">
      <!-- 7 -->
      <g transform="translate(58.6375 87.614159)scale(0.1 -0.1)">
       <use xlink:href="#DejaVuSans-37"/>
      </g>
     </g>
    </g>
   </g>
   <g id="line2d_18">
    <path clip-path="url(#p861d65b5d8)" d="M 254.363642 383.638588 
" style="fill:none;stroke:#1f77b4;stroke-linecap:square;stroke-width:1.5;"/>
    <defs>
     <path d="M -5 5 
L 5 5 
L 5 -5 
L -5 -5 
z
" id="m38838702cf" style="stroke:#8000ff;stroke-linejoin:miter;"/>
    </defs>
    <g clip-path="url(#p861d65b5d8)">
     <use style="fill:#8000ff;stroke:#8000ff;stroke-linejoin:miter;" x="254.363642" xlink:href="#m38838702cf" y="383.638588"/>
    </g>
   </g>
   <g id="line2d_19">
    <path clip-path="url(#p861d65b5d8)" d="M 447.063614 172.366625 
" style="fill:none;stroke:#ff7f0e;stroke-linecap:square;stroke-width:1.5;"/>
    <defs>
     <path d="M 0 -5 
L -4.755283 -1.545085 
L -2.938926 4.045085 
L 2.938926 4.045085 
L 4.755283 -1.545085 
z
" id="mcd432bce3f" style="stroke:#8000ff;stroke-linejoin:miter;"/>
    </defs>
    <g clip-path="url(#p861d65b5d8)">
     <use style="fill:#8000ff;stroke:#8000ff;stroke-linejoin:miter;" x="447.063614" xlink:href="#mcd432bce3f" y="172.366625"/>
    </g>
   </g>
   <g id="line2d_20">
    <path clip-path="url(#p861d65b5d8)" d="M 303.107959 280.40216 
" style="fill:none;stroke:#2ca02c;stroke-linecap:square;stroke-width:1.5;"/>
    <defs>
     <path d="M -5 5 
L 5 5 
L 5 -5 
L -5 -5 
z
" id="m9438170a1f" style="stroke:#376ff9;stroke-linejoin:miter;"/>
    </defs>
    <g clip-path="url(#p861d65b5d8)">
     <use style="fill:#376ff9;stroke:#376ff9;stroke-linejoin:miter;" x="303.107959" xlink:href="#m9438170a1f" y="280.40216"/>
    </g>
   </g>
   <g id="line2d_21">
    <path clip-path="url(#p861d65b5d8)" d="M 410.40921 450.664609 
" style="fill:none;stroke:#d62728;stroke-linecap:square;stroke-width:1.5;"/>
    <defs>
     <path d="M 0 -5 
L -4.755283 -1.545085 
L -2.938926 4.045085 
L 2.938926 4.045085 
L 4.755283 -1.545085 
z
" id="ma529bf8469" style="stroke:#376ff9;stroke-linejoin:miter;"/>
    </defs>
    <g clip-path="url(#p861d65b5d8)">
     <use style="fill:#376ff9;stroke:#376ff9;stroke-linejoin:miter;" x="410.40921" xlink:href="#ma529bf8469" y="450.664609"/>
    </g>
   </g>
   <g id="line2d_22">
    <path clip-path="url(#p861d65b5d8)" d="M 396.797507 346.73242 
" style="fill:none;stroke:#9467bd;stroke-linecap:square;stroke-width:1.5;"/>
    <defs>
     <path d="M -5 5 
L 5 5 
L 5 -5 
L -5 -5 
z
" id="m41b030edc4" style="stroke:#12c7e6;stroke-linejoin:miter;"/>
    </defs>
    <g clip-path="url(#p861d65b5d8)">
     <use style="fill:#12c7e6;stroke:#12c7e6;stroke-linejoin:miter;" x="396.797507" xlink:href="#m41b030edc4" y="346.73242"/>
    </g>
   </g>
   <g id="line2d_23">
    <path clip-path="url(#p861d65b5d8)" d="M 375.401336 159.024462 
" style="fill:none;stroke:#8c564b;stroke-linecap:square;stroke-width:1.5;"/>
    <defs>
     <path d="M 0 -5 
L -4.755283 -1.545085 
L -2.938926 4.045085 
L 2.938926 4.045085 
L 4.755283 -1.545085 
z
" id="m419f7f2612" style="stroke:#12c7e6;stroke-linejoin:miter;"/>
    </defs>
    <g clip-path="url(#p861d65b5d8)">
     <use style="fill:#12c7e6;stroke:#12c7e6;stroke-linejoin:miter;" x="375.401336" xlink:href="#m419f7f2612" y="159.024462"/>
    </g>
   </g>
   <g id="line2d_24">
    <path clip-path="url(#p861d65b5d8)" d="M 126.652752 336.512981 
" style="fill:none;stroke:#e377c2;stroke-linecap:square;stroke-width:1.5;"/>
    <defs>
     <path d="M -5 5 
L 5 5 
L 5 -5 
L -5 -5 
z
" id="m379f777174" style="stroke:#5bf9c7;stroke-linejoin:miter;"/>
    </defs>
    <g clip-path="url(#p861d65b5d8)">
     <use style="fill:#5bf9c7;stroke:#5bf9c7;stroke-linejoin:miter;" x="126.652752" xlink:href="#m379f777174" y="336.512981"/>
    </g>
   </g>
   <g id="line2d_25">
    <path clip-path="url(#p861d65b5d8)" d="M 366.872523 280.103665 
" style="fill:none;stroke:#7f7f7f;stroke-linecap:square;stroke-width:1.5;"/>
    <defs>
     <path d="M 0 -5 
L -4.755283 -1.545085 
L -2.938926 4.045085 
L 2.938926 4.045085 
L 4.755283 -1.545085 
z
" id="m1c82376904" style="stroke:#5bf9c7;stroke-linejoin:miter;"/>
    </defs>
    <g clip-path="url(#p861d65b5d8)">
     <use style="fill:#5bf9c7;stroke:#5bf9c7;stroke-linejoin:miter;" x="366.872523" xlink:href="#m1c82376904" y="280.103665"/>
    </g>
   </g>
   <g id="line2d_26">
    <path clip-path="url(#p861d65b5d8)" d="M 156.160627 139.7289 
" style="fill:none;stroke:#bcbd22;stroke-linecap:square;stroke-width:1.5;"/>
    <defs>
     <path d="M -5 5 
L 5 5 
L 5 -5 
L -5 -5 
z
" id="mb932756fc7" style="stroke:#a4f99f;stroke-linejoin:miter;"/>
    </defs>
    <g clip-path="url(#p861d65b5d8)">
     <use style="fill:#a4f99f;stroke:#a4f99f;stroke-linejoin:miter;" x="156.160627" xlink:href="#mb932756fc7" y="139.7289"/>
    </g>
   </g>
   <g id="line2d_27">
    <path clip-path="url(#p861d65b5d8)" d="M 406.709286 262.98313 
" style="fill:none;stroke:#17becf;stroke-linecap:square;stroke-width:1.5;"/>
    <defs>
     <path d="M 0 -5 
L -4.755283 -1.545085 
L -2.938926 4.045085 
L 2.938926 4.045085 
L 4.755283 -1.545085 
z
" id="m5fb383cbfb" style="stroke:#a4f99f;stroke-linejoin:miter;"/>
    </defs>
    <g clip-path="url(#p861d65b5d8)">
     <use style="fill:#a4f99f;stroke:#a4f99f;stroke-linejoin:miter;" x="406.709286" xlink:href="#m5fb383cbfb" y="262.98313"/>
    </g>
   </g>
   <g id="line2d_28">
    <path clip-path="url(#p861d65b5d8)" d="M 185.371964 398.167296 
" style="fill:none;stroke:#1f77b4;stroke-linecap:square;stroke-width:1.5;"/>
    <defs>
     <path d="M -5 5 
L 5 5 
L 5 -5 
L -5 -5 
z
" id="mecd0bc3c90" style="stroke:#edc76f;stroke-linejoin:miter;"/>
    </defs>
    <g clip-path="url(#p861d65b5d8)">
     <use style="fill:#edc76f;stroke:#edc76f;stroke-linejoin:miter;" x="185.371964" xlink:href="#mecd0bc3c90" y="398.167296"/>
    </g>
   </g>
   <g id="line2d_29">
    <path clip-path="url(#p861d65b5d8)" d="M 392.281735 204.37397 
" style="fill:none;stroke:#ff7f0e;stroke-linecap:square;stroke-width:1.5;"/>
    <defs>
     <path d="M 0 -5 
L -4.755283 -1.545085 
L -2.938926 4.045085 
L 2.938926 4.045085 
L 4.755283 -1.545085 
z
" id="mbcd8a534b9" style="stroke:#edc76f;stroke-linejoin:miter;"/>
    </defs>
    <g clip-path="url(#p861d65b5d8)">
     <use style="fill:#edc76f;stroke:#edc76f;stroke-linejoin:miter;" x="392.281735" xlink:href="#mbcd8a534b9" y="204.37397"/>
    </g>
   </g>
   <g id="line2d_30">
    <path clip-path="url(#p861d65b5d8)" d="M 254.113223 148.788648 
" style="fill:none;stroke:#2ca02c;stroke-linecap:square;stroke-width:1.5;"/>
    <defs>
     <path d="M -5 5 
L 5 5 
L 5 -5 
L -5 -5 
z
" id="m904f959978" style="stroke:#ff6f39;stroke-linejoin:miter;"/>
    </defs>
    <g clip-path="url(#p861d65b5d8)">
     <use style="fill:#ff6f39;stroke:#ff6f39;stroke-linejoin:miter;" x="254.113223" xlink:href="#m904f959978" y="148.788648"/>
    </g>
   </g>
   <g id="line2d_31">
    <path clip-path="url(#p861d65b5d8)" d="M 296.510251 342.240791 
" style="fill:none;stroke:#d62728;stroke-linecap:square;stroke-width:1.5;"/>
    <defs>
     <path d="M 0 -5 
L -4.755283 -1.545085 
L -2.938926 4.045085 
L 2.938926 4.045085 
L 4.755283 -1.545085 
z
" id="mde3387a7ae" style="stroke:#ff6f39;stroke-linejoin:miter;"/>
    </defs>
    <g clip-path="url(#p861d65b5d8)">
     <use style="fill:#ff6f39;stroke:#ff6f39;stroke-linejoin:miter;" x="296.510251" xlink:href="#mde3387a7ae" y="342.240791"/>
    </g>
   </g>
   <g id="line2d_32">
    <path clip-path="url(#p861d65b5d8)" d="M 332.052964 179.120594 
" style="fill:none;stroke:#9467bd;stroke-linecap:square;stroke-width:1.5;"/>
    <defs>
     <path d="M -5 5 
L 5 5 
L 5 -5 
L -5 -5 
z
" id="m445f27139c" style="stroke:#ff0000;stroke-linejoin:miter;"/>
    </defs>
    <g clip-path="url(#p861d65b5d8)">
     <use style="fill:#ff0000;stroke:#ff0000;stroke-linejoin:miter;" x="332.052964" xlink:href="#m445f27139c" y="179.120594"/>
    </g>
   </g>
   <g id="line2d_33">
    <path clip-path="url(#p861d65b5d8)" d="M 298.810804 450.339353 
" style="fill:none;stroke:#8c564b;stroke-linecap:square;stroke-width:1.5;"/>
    <defs>
     <path d="M 0 -5 
L -4.755283 -1.545085 
L -2.938926 4.045085 
L 2.938926 4.045085 
L 4.755283 -1.545085 
z
" id="m19226bb1f7" style="stroke:#ff0000;stroke-linejoin:miter;"/>
    </defs>
    <g clip-path="url(#p861d65b5d8)">
     <use style="fill:#ff0000;stroke:#ff0000;stroke-linejoin:miter;" x="298.810804" xlink:href="#m19226bb1f7" y="450.339353"/>
    </g>
   </g>
   <g id="line2d_34">
    <defs>
     <path d="M 0 2.5 
C 0.663008 2.5 1.29895 2.236584 1.767767 1.767767 
C 2.236584 1.29895 2.5 0.663008 2.5 0 
C 2.5 -0.663008 2.236584 -1.29895 1.767767 -1.767767 
C 1.29895 -2.236584 0.663008 -2.5 0 -2.5 
C -0.663008 -2.5 -1.29895 -2.236584 -1.767767 -1.767767 
C -2.236584 -1.29895 -2.5 -0.663008 -2.5 0 
C -2.5 0.663008 -2.236584 1.29895 -1.767767 1.767767 
C -1.29895 2.236584 -0.663008 2.5 0 2.5 
z
" id="ma3920d18a8" style="stroke:#000000;"/>
    </defs>
    <g clip-path="url(#p861d65b5d8)">
     <use style="stroke:#000000;" x="456.926159" xlink:href="#ma3920d18a8" y="263.642908"/>
     <use style="stroke:#000000;" x="263.338874" xlink:href="#ma3920d18a8" y="235.748143"/>
     <use style="stroke:#000000;" x="346.820926" xlink:href="#ma3920d18a8" y="314.156634"/>
     <use style="stroke:#000000;" x="374.960029" xlink:href="#ma3920d18a8" y="423.585603"/>
     <use style="stroke:#000000;" x="202.04163" xlink:href="#ma3920d18a8" y="457.948566"/>
     <use style="stroke:#000000;" x="464.453818" xlink:href="#ma3920d18a8" y="318.654737"/>
     <use style="stroke:#000000;" x="249.625785" xlink:href="#ma3920d18a8" y="443.735523"/>
     <use style="stroke:#000000;" x="345.24457" xlink:href="#ma3920d18a8" y="458.112558"/>
     <use style="stroke:#000000;" x="149.579805" xlink:href="#ma3920d18a8" y="284.063675"/>
     <use style="stroke:#000000;" x="223.540835" xlink:href="#ma3920d18a8" y="428.167582"/>
     <use style="stroke:#000000;" x="255.67508" xlink:href="#ma3920d18a8" y="341.210089"/>
     <use style="stroke:#000000;" x="240.505822" xlink:href="#ma3920d18a8" y="239.128922"/>
     <use style="stroke:#000000;" x="146.907227" xlink:href="#ma3920d18a8" y="459.359465"/>
     <use style="stroke:#000000;" x="454.536756" xlink:href="#ma3920d18a8" y="372.510702"/>
     <use style="stroke:#000000;" x="196.129691" xlink:href="#ma3920d18a8" y="145.416307"/>
     <use style="stroke:#000000;" x="357.990605" xlink:href="#ma3920d18a8" y="377.712008"/>
     <use style="stroke:#000000;" x="173.378279" xlink:href="#ma3920d18a8" y="450.356964"/>
     <use style="stroke:#000000;" x="202.812061" xlink:href="#ma3920d18a8" y="334.093759"/>
     <use style="stroke:#000000;" x="461.268825" xlink:href="#ma3920d18a8" y="128.895756"/>
     <use style="stroke:#000000;" x="340.93544" xlink:href="#ma3920d18a8" y="225.64243"/>
     <use style="stroke:#000000;" x="344.81717" xlink:href="#ma3920d18a8" y="409.603841"/>
     <use style="stroke:#000000;" x="218.431681" xlink:href="#ma3920d18a8" y="161.629061"/>
     <use style="stroke:#000000;" x="251.922348" xlink:href="#ma3920d18a8" y="237.438533"/>
     <use style="stroke:#000000;" x="359.8886" xlink:href="#ma3920d18a8" y="416.594722"/>
     <use style="stroke:#000000;" x="212.791233" xlink:href="#ma3920d18a8" y="443.058074"/>
     <use style="stroke:#000000;" x="187.709954" xlink:href="#ma3920d18a8" y="454.152765"/>
     <use style="stroke:#000000;" x="236.58331" xlink:href="#ma3920d18a8" y="435.951552"/>
     <use style="stroke:#000000;" x="160.142753" xlink:href="#ma3920d18a8" y="454.858215"/>
     <use style="stroke:#000000;" x="207.280686" xlink:href="#ma3920d18a8" y="153.522684"/>
     <use style="stroke:#000000;" x="351.403888" xlink:href="#ma3920d18a8" y="393.657925"/>
    </g>
   </g>
   <g id="line2d_35">
    <path clip-path="url(#p861d65b5d8)" d="M 478.439412 263.642908 
L 477.273764 256.657566 
L 473.903138 250.429194 
L 468.692793 245.632733 
L 462.20735 242.787954 
L 455.149608 242.203133 
L 448.284383 243.941644 
L 442.355629 247.815093 
L 438.005817 253.403731 
L 435.706318 260.101942 
L 435.706318 267.183873 
L 438.005817 273.882084 
L 442.355629 279.470722 
L 448.284383 283.344171 
L 455.149608 285.082682 
L 462.20735 284.497861 
L 468.692793 281.653082 
L 473.903138 276.856621 
L 477.273764 270.628249 
L 478.439412 263.642908 
" style="fill:none;stroke:#000000;stroke-dasharray:5.55,2.4;stroke-dashoffset:0;stroke-width:1.5;"/>
   </g>
   <g id="line2d_36">
    <path clip-path="url(#p861d65b5d8)" d="M 462.842303 263.642908 
L 462.52175 261.721939 
L 461.594828 260.009136 
L 460.161983 258.69011 
L 458.378486 257.907795 
L 456.437607 257.74697 
L 454.54967 258.22506 
L 452.919263 259.290259 
L 451.723065 260.827134 
L 451.090703 262.669142 
L 451.090703 264.616673 
L 451.723065 266.458681 
L 452.919263 267.995557 
L 454.54967 269.060755 
L 456.437607 269.538845 
L 458.378486 269.37802 
L 460.161983 268.595705 
L 461.594828 267.276679 
L 462.52175 265.563877 
L 462.842303 263.642908 
" style="fill:none;stroke:#ff0000;stroke-linecap:square;stroke-width:1.5;"/>
   </g>
   <g id="line2d_37">
    <path clip-path="url(#p861d65b5d8)" d="M 284.852127 235.748143 
L 283.686479 228.762801 
L 280.315853 222.53443 
L 275.105508 217.737969 
L 268.620065 214.89319 
L 261.562323 214.308369 
L 254.697098 216.04688 
L 248.768344 219.920329 
L 244.418532 225.508967 
L 242.119033 232.207178 
L 242.119033 239.289108 
L 244.418532 245.98732 
L 248.768344 251.575958 
L 254.697098 255.449407 
L 261.562323 257.187918 
L 268.620065 256.603096 
L 275.105508 253.758318 
L 280.315853 248.961857 
L 283.686479 242.733485 
L 284.852127 235.748143 
" style="fill:none;stroke:#000000;stroke-dasharray:5.55,2.4;stroke-dashoffset:0;stroke-width:1.5;"/>
   </g>
   <g id="line2d_38">
    <path clip-path="url(#p861d65b5d8)" d="M 269.255018 235.748143 
L 268.934465 233.827174 
L 268.007543 232.114372 
L 266.574698 230.795345 
L 264.791201 230.013031 
L 262.850322 229.852205 
L 260.962385 230.330296 
L 259.331978 231.395494 
L 258.13578 232.93237 
L 257.503418 234.774378 
L 257.503418 236.721909 
L 258.13578 238.563917 
L 259.331978 240.100792 
L 260.962385 241.165991 
L 262.850322 241.644081 
L 264.791201 241.483255 
L 266.574698 240.700941 
L 268.007543 239.381914 
L 268.934465 237.669112 
L 269.255018 235.748143 
" style="fill:none;stroke:#ff0000;stroke-linecap:square;stroke-width:1.5;"/>
   </g>
   <g id="line2d_39">
    <path clip-path="url(#p861d65b5d8)" d="M 368.334179 314.156634 
L 367.168532 307.171292 
L 363.797905 300.94292 
L 358.58756 296.146459 
L 352.102117 293.30168 
L 345.044376 292.716859 
L 338.179151 294.45537 
L 332.250396 298.328819 
L 327.900585 303.917457 
L 325.601086 310.615669 
L 325.601086 317.697599 
L 327.900585 324.39581 
L 332.250396 329.984448 
L 338.179151 333.857897 
L 345.044376 335.596408 
L 352.102117 335.011587 
L 358.58756 332.166808 
L 363.797905 327.370347 
L 367.168532 321.141976 
L 368.334179 314.156634 
" style="fill:none;stroke:#000000;stroke-dasharray:5.55,2.4;stroke-dashoffset:0;stroke-width:1.5;"/>
   </g>
   <g id="line2d_40">
    <path clip-path="url(#p861d65b5d8)" d="M 352.737071 314.156634 
L 352.416518 312.235665 
L 351.489595 310.522862 
L 350.05675 309.203836 
L 348.273254 308.421522 
L 346.332375 308.260696 
L 344.444438 308.738786 
L 342.81403 309.803985 
L 341.617832 311.34086 
L 340.98547 313.182868 
L 340.98547 315.130399 
L 341.617832 316.972407 
L 342.81403 318.509283 
L 344.444438 319.574481 
L 346.332375 320.052572 
L 348.273254 319.891746 
L 350.05675 319.109432 
L 351.489595 317.790405 
L 352.416518 316.077603 
L 352.737071 314.156634 
" style="fill:none;stroke:#ff0000;stroke-linecap:square;stroke-width:1.5;"/>
   </g>
   <g id="line2d_41">
    <path clip-path="url(#p861d65b5d8)" d="M 396.473282 423.585603 
L 395.307635 416.600261 
L 391.937009 410.37189 
L 386.726663 405.575429 
L 380.241221 402.73065 
L 373.183479 402.145829 
L 366.318254 403.88434 
L 360.389499 407.757789 
L 356.039688 413.346427 
L 353.740189 420.044638 
L 353.740189 427.126568 
L 356.039688 433.82478 
L 360.389499 439.413418 
L 366.318254 443.286867 
L 373.183479 445.025378 
L 380.241221 444.440556 
L 386.726663 441.595778 
L 391.937009 436.799317 
L 395.307635 430.570945 
L 396.473282 423.585603 
" style="fill:none;stroke:#000000;stroke-dasharray:5.55,2.4;stroke-dashoffset:0;stroke-width:1.5;"/>
   </g>
   <g id="line2d_42">
    <path clip-path="url(#p861d65b5d8)" d="M 380.876174 423.585603 
L 380.555621 421.664634 
L 379.628699 419.951832 
L 378.195854 418.632805 
L 376.412357 417.850491 
L 374.471478 417.689665 
L 372.583541 418.167756 
L 370.953134 419.232954 
L 369.756935 420.76983 
L 369.124573 422.611838 
L 369.124573 424.559369 
L 369.756935 426.401377 
L 370.953134 427.938252 
L 372.583541 429.003451 
L 374.471478 429.481541 
L 376.412357 429.320715 
L 378.195854 428.538401 
L 379.628699 427.219374 
L 380.555621 425.506572 
L 380.876174 423.585603 
" style="fill:none;stroke:#ff0000;stroke-linecap:square;stroke-width:1.5;"/>
   </g>
   <g id="line2d_43">
    <path clip-path="url(#p861d65b5d8)" d="M 223.554883 457.948566 
L 222.389236 450.963224 
L 219.01861 444.734853 
L 213.808265 439.938392 
L 207.322822 437.093613 
L 200.26508 436.508792 
L 193.399855 438.247303 
L 187.471101 442.120751 
L 183.121289 447.709389 
L 180.82179 454.407601 
L 180.82179 461.489531 
L 183.121289 468.187743 
L 187.471101 473.776381 
L 193.399855 477.649829 
L 200.26508 479.38834 
L 207.322822 478.803519 
L 213.808265 475.95874 
L 219.01861 471.162279 
L 222.389236 464.933908 
L 223.554883 457.948566 
" style="fill:none;stroke:#000000;stroke-dasharray:5.55,2.4;stroke-dashoffset:0;stroke-width:1.5;"/>
   </g>
   <g id="line2d_44">
    <path clip-path="url(#p861d65b5d8)" d="M 207.957775 457.948566 
L 207.637222 456.027597 
L 206.7103 454.314795 
L 205.277455 452.995768 
L 203.493958 452.213454 
L 201.553079 452.052628 
L 199.665142 452.530719 
L 198.034735 453.595917 
L 196.838537 455.132792 
L 196.206174 456.974801 
L 196.206174 458.922331 
L 196.838537 460.76434 
L 198.034735 462.301215 
L 199.665142 463.366413 
L 201.553079 463.844504 
L 203.493958 463.683678 
L 205.277455 462.901364 
L 206.7103 461.582337 
L 207.637222 459.869535 
L 207.957775 457.948566 
" style="fill:none;stroke:#ff0000;stroke-linecap:square;stroke-width:1.5;"/>
   </g>
   <g id="line2d_45">
    <path clip-path="url(#p861d65b5d8)" d="M 485.967071 318.654737 
L 484.801424 311.669395 
L 481.430797 305.441023 
L 476.220452 300.644563 
L 469.735009 297.799784 
L 462.677268 297.214963 
L 455.812043 298.953474 
L 449.883288 302.826922 
L 445.533477 308.41556 
L 443.233978 315.113772 
L 443.233978 322.195702 
L 445.533477 328.893914 
L 449.883288 334.482552 
L 455.812043 338.356 
L 462.677268 340.094511 
L 469.735009 339.50969 
L 476.220452 336.664911 
L 481.430797 331.86845 
L 484.801424 325.640079 
L 485.967071 318.654737 
" style="fill:none;stroke:#000000;stroke-dasharray:5.55,2.4;stroke-dashoffset:0;stroke-width:1.5;"/>
   </g>
   <g id="line2d_46">
    <path clip-path="url(#p861d65b5d8)" d="M 470.369962 318.654737 
L 470.049409 316.733768 
L 469.122487 315.020966 
L 467.689642 313.701939 
L 465.906146 312.919625 
L 463.965267 312.758799 
L 462.07733 313.23689 
L 460.446922 314.302088 
L 459.250724 315.838963 
L 458.618362 317.680972 
L 458.618362 319.628502 
L 459.250724 321.470511 
L 460.446922 323.007386 
L 462.07733 324.072584 
L 463.965267 324.550675 
L 465.906146 324.389849 
L 467.689642 323.607535 
L 469.122487 322.288508 
L 470.049409 320.575706 
L 470.369962 318.654737 
" style="fill:none;stroke:#ff0000;stroke-linecap:square;stroke-width:1.5;"/>
   </g>
   <g id="line2d_47">
    <path clip-path="url(#p861d65b5d8)" d="M 271.139038 443.735523 
L 269.97339 436.750181 
L 266.602764 430.521809 
L 261.392419 425.725348 
L 254.906976 422.880569 
L 247.849234 422.295748 
L 240.984009 424.034259 
L 235.055255 427.907708 
L 230.705443 433.496346 
L 228.405944 440.194558 
L 228.405944 447.276488 
L 230.705443 453.974699 
L 235.055255 459.563337 
L 240.984009 463.436786 
L 247.849234 465.175297 
L 254.906976 464.590476 
L 261.392419 461.745697 
L 266.602764 456.949236 
L 269.97339 450.720865 
L 271.139038 443.735523 
" style="fill:none;stroke:#000000;stroke-dasharray:5.55,2.4;stroke-dashoffset:0;stroke-width:1.5;"/>
   </g>
   <g id="line2d_48">
    <path clip-path="url(#p861d65b5d8)" d="M 255.541929 443.735523 
L 255.221376 441.814554 
L 254.294454 440.101751 
L 252.861609 438.782725 
L 251.078112 438.000411 
L 249.137233 437.839585 
L 247.249296 438.317675 
L 245.618889 439.382874 
L 244.422691 440.919749 
L 243.790328 442.761757 
L 243.790328 444.709288 
L 244.422691 446.551296 
L 245.618889 448.088172 
L 247.249296 449.15337 
L 249.137233 449.631461 
L 251.078112 449.470635 
L 252.861609 448.688321 
L 254.294454 447.369294 
L 255.221376 445.656492 
L 255.541929 443.735523 
" style="fill:none;stroke:#ff0000;stroke-linecap:square;stroke-width:1.5;"/>
   </g>
   <g id="line2d_49">
    <path clip-path="url(#p861d65b5d8)" d="M 366.757823 458.112558 
L 365.592175 451.127216 
L 362.221549 444.898845 
L 357.011204 440.102384 
L 350.525761 437.257605 
L 343.468019 436.672784 
L 336.602794 438.411295 
L 330.67404 442.284743 
L 326.324228 447.873381 
L 324.024729 454.571593 
L 324.024729 461.653523 
L 326.324228 468.351735 
L 330.67404 473.940373 
L 336.602794 477.813821 
L 343.468019 479.552332 
L 350.525761 478.967511 
L 357.011204 476.122732 
L 362.221549 471.326272 
L 365.592175 465.0979 
L 366.757823 458.112558 
" style="fill:none;stroke:#000000;stroke-dasharray:5.55,2.4;stroke-dashoffset:0;stroke-width:1.5;"/>
   </g>
   <g id="line2d_50">
    <path clip-path="url(#p861d65b5d8)" d="M 351.160714 458.112558 
L 350.840161 456.191589 
L 349.913239 454.478787 
L 348.480394 453.15976 
L 346.696897 452.377446 
L 344.756018 452.21662 
L 342.868082 452.694711 
L 341.237674 453.759909 
L 340.041476 455.296784 
L 339.409114 457.138793 
L 339.409114 459.086323 
L 340.041476 460.928332 
L 341.237674 462.465207 
L 342.868082 463.530405 
L 344.756018 464.008496 
L 346.696897 463.84767 
L 348.480394 463.065356 
L 349.913239 461.746329 
L 350.840161 460.033527 
L 351.160714 458.112558 
" style="fill:none;stroke:#ff0000;stroke-linecap:square;stroke-width:1.5;"/>
   </g>
   <g id="line2d_51">
    <path clip-path="url(#p861d65b5d8)" d="M 171.093058 284.063675 
L 169.927411 277.078333 
L 166.556785 270.849961 
L 161.346439 266.0535 
L 154.860997 263.208721 
L 147.803255 262.6239 
L 140.93803 264.362411 
L 135.009275 268.23586 
L 130.659464 273.824498 
L 128.359965 280.52271 
L 128.359965 287.60464 
L 130.659464 294.302851 
L 135.009275 299.891489 
L 140.93803 303.764938 
L 147.803255 305.503449 
L 154.860997 304.918628 
L 161.346439 302.073849 
L 166.556785 297.277388 
L 169.927411 291.049017 
L 171.093058 284.063675 
" style="fill:none;stroke:#000000;stroke-dasharray:5.55,2.4;stroke-dashoffset:0;stroke-width:1.5;"/>
   </g>
   <g id="line2d_52">
    <path clip-path="url(#p861d65b5d8)" d="M 155.49595 284.063675 
L 155.175397 282.142706 
L 154.248475 280.429903 
L 152.81563 279.110877 
L 151.032133 278.328563 
L 149.091254 278.167737 
L 147.203317 278.645827 
L 145.57291 279.711026 
L 144.376711 281.247901 
L 143.744349 283.089909 
L 143.744349 285.03744 
L 144.376711 286.879448 
L 145.57291 288.416324 
L 147.203317 289.481522 
L 149.091254 289.959613 
L 151.032133 289.798787 
L 152.81563 289.016473 
L 154.248475 287.697446 
L 155.175397 285.984644 
L 155.49595 284.063675 
" style="fill:none;stroke:#ff0000;stroke-linecap:square;stroke-width:1.5;"/>
   </g>
   <g id="line2d_53">
    <path clip-path="url(#p861d65b5d8)" d="M 245.054088 428.167582 
L 243.888441 421.18224 
L 240.517814 414.953868 
L 235.307469 410.157408 
L 228.822026 407.312629 
L 221.764285 406.727807 
L 214.89906 408.466319 
L 208.970305 412.339767 
L 204.620494 417.928405 
L 202.320995 424.626617 
L 202.320995 431.708547 
L 204.620494 438.406758 
L 208.970305 443.995396 
L 214.89906 447.868845 
L 221.764285 449.607356 
L 228.822026 449.022535 
L 235.307469 446.177756 
L 240.517814 441.381295 
L 243.888441 435.152924 
L 245.054088 428.167582 
" style="fill:none;stroke:#000000;stroke-dasharray:5.55,2.4;stroke-dashoffset:0;stroke-width:1.5;"/>
   </g>
   <g id="line2d_54">
    <path clip-path="url(#p861d65b5d8)" d="M 229.456979 428.167582 
L 229.136426 426.246613 
L 228.209504 424.533811 
L 226.776659 423.214784 
L 224.993163 422.43247 
L 223.052284 422.271644 
L 221.164347 422.749734 
L 219.533939 423.814933 
L 218.337741 425.351808 
L 217.705379 427.193816 
L 217.705379 429.141347 
L 218.337741 430.983355 
L 219.533939 432.520231 
L 221.164347 433.585429 
L 223.052284 434.06352 
L 224.993163 433.902694 
L 226.776659 433.12038 
L 228.209504 431.801353 
L 229.136426 430.088551 
L 229.456979 428.167582 
" style="fill:none;stroke:#ff0000;stroke-linecap:square;stroke-width:1.5;"/>
   </g>
   <g id="line2d_55">
    <path clip-path="url(#p861d65b5d8)" d="M 277.188333 341.210089 
L 276.022686 334.224747 
L 272.652059 327.996375 
L 267.441714 323.199914 
L 260.956271 320.355135 
L 253.89853 319.770314 
L 247.033305 321.508825 
L 241.10455 325.382274 
L 236.754739 330.970912 
L 234.45524 337.669124 
L 234.45524 344.751054 
L 236.754739 351.449265 
L 241.10455 357.037903 
L 247.033305 360.911352 
L 253.89853 362.649863 
L 260.956271 362.065042 
L 267.441714 359.220263 
L 272.652059 354.423802 
L 276.022686 348.19543 
L 277.188333 341.210089 
" style="fill:none;stroke:#000000;stroke-dasharray:5.55,2.4;stroke-dashoffset:0;stroke-width:1.5;"/>
   </g>
   <g id="line2d_56">
    <path clip-path="url(#p861d65b5d8)" d="M 261.591225 341.210089 
L 261.270672 339.28912 
L 260.343749 337.576317 
L 258.910904 336.257291 
L 257.127408 335.474976 
L 255.186529 335.314151 
L 253.298592 335.792241 
L 251.668184 336.85744 
L 250.471986 338.394315 
L 249.839624 340.236323 
L 249.839624 342.183854 
L 250.471986 344.025862 
L 251.668184 345.562738 
L 253.298592 346.627936 
L 255.186529 347.106027 
L 257.127408 346.945201 
L 258.910904 346.162886 
L 260.343749 344.84386 
L 261.270672 343.131058 
L 261.591225 341.210089 
" style="fill:none;stroke:#ff0000;stroke-linecap:square;stroke-width:1.5;"/>
   </g>
   <g id="line2d_57">
    <path clip-path="url(#p861d65b5d8)" d="M 262.019075 239.128922 
L 260.853427 232.143581 
L 257.482801 225.915209 
L 252.272456 221.118748 
L 245.787013 218.273969 
L 238.729271 217.689148 
L 231.864046 219.427659 
L 225.935292 223.301108 
L 221.58548 228.889746 
L 219.285981 235.587957 
L 219.285981 242.669887 
L 221.58548 249.368099 
L 225.935292 254.956737 
L 231.864046 258.830186 
L 238.729271 260.568697 
L 245.787013 259.983876 
L 252.272456 257.139097 
L 257.482801 252.342636 
L 260.853427 246.114264 
L 262.019075 239.128922 
" style="fill:none;stroke:#000000;stroke-dasharray:5.55,2.4;stroke-dashoffset:0;stroke-width:1.5;"/>
   </g>
   <g id="line2d_58">
    <path clip-path="url(#p861d65b5d8)" d="M 246.421966 239.128922 
L 246.101413 237.207953 
L 245.174491 235.495151 
L 243.741646 234.176124 
L 241.958149 233.39381 
L 240.01727 233.232984 
L 238.129333 233.711075 
L 236.498926 234.776273 
L 235.302728 236.313149 
L 234.670366 238.155157 
L 234.670366 240.102688 
L 235.302728 241.944696 
L 236.498926 243.481571 
L 238.129333 244.54677 
L 240.01727 245.02486 
L 241.958149 244.864034 
L 243.741646 244.08172 
L 245.174491 242.762694 
L 246.101413 241.049891 
L 246.421966 239.128922 
" style="fill:none;stroke:#ff0000;stroke-linecap:square;stroke-width:1.5;"/>
   </g>
   <g id="line2d_59">
    <path clip-path="url(#p861d65b5d8)" d="M 168.42048 459.359465 
L 167.254832 452.374123 
L 163.884206 446.145752 
L 158.673861 441.349291 
L 152.188418 438.504512 
L 145.130676 437.919691 
L 138.265451 439.658202 
L 132.336697 443.531651 
L 127.986885 449.120289 
L 125.687386 455.8185 
L 125.687386 462.90043 
L 127.986885 469.598642 
L 132.336697 475.18728 
L 138.265451 479.060729 
L 145.130676 480.79924 
L 152.188418 480.214418 
L 158.673861 477.36964 
L 163.884206 472.573179 
L 167.254832 466.344807 
L 168.42048 459.359465 
" style="fill:none;stroke:#000000;stroke-dasharray:5.55,2.4;stroke-dashoffset:0;stroke-width:1.5;"/>
   </g>
   <g id="line2d_60">
    <path clip-path="url(#p861d65b5d8)" d="M 152.823371 459.359465 
L 152.502818 457.438496 
L 151.575896 455.725694 
L 150.143051 454.406667 
L 148.359554 453.624353 
L 146.418675 453.463527 
L 144.530739 453.941618 
L 142.900331 455.006816 
L 141.704133 456.543692 
L 141.071771 458.3857 
L 141.071771 460.333231 
L 141.704133 462.175239 
L 142.900331 463.712114 
L 144.530739 464.777313 
L 146.418675 465.255403 
L 148.359554 465.094577 
L 150.143051 464.312263 
L 151.575896 462.993236 
L 152.502818 461.280434 
L 152.823371 459.359465 
" style="fill:none;stroke:#ff0000;stroke-linecap:square;stroke-width:1.5;"/>
   </g>
   <g id="line2d_61">
    <path clip-path="url(#p861d65b5d8)" d="M 476.050009 372.510702 
L 474.884362 365.52536 
L 471.513735 359.296988 
L 466.30339 354.500528 
L 459.817947 351.655749 
L 452.760206 351.070928 
L 445.894981 352.809439 
L 439.966226 356.682887 
L 435.616415 362.271525 
L 433.316916 368.969737 
L 433.316916 376.051667 
L 435.616415 382.749879 
L 439.966226 388.338517 
L 445.894981 392.211965 
L 452.760206 393.950476 
L 459.817947 393.365655 
L 466.30339 390.520876 
L 471.513735 385.724415 
L 474.884362 379.496044 
L 476.050009 372.510702 
" style="fill:none;stroke:#000000;stroke-dasharray:5.55,2.4;stroke-dashoffset:0;stroke-width:1.5;"/>
   </g>
   <g id="line2d_62">
    <path clip-path="url(#p861d65b5d8)" d="M 460.4529 372.510702 
L 460.132347 370.589733 
L 459.205425 368.876931 
L 457.77258 367.557904 
L 455.989084 366.77559 
L 454.048205 366.614764 
L 452.160268 367.092855 
L 450.52986 368.158053 
L 449.333662 369.694928 
L 448.7013 371.536937 
L 448.7013 373.484467 
L 449.333662 375.326476 
L 450.52986 376.863351 
L 452.160268 377.928549 
L 454.048205 378.40664 
L 455.989084 378.245814 
L 457.77258 377.4635 
L 459.205425 376.144473 
L 460.132347 374.431671 
L 460.4529 372.510702 
" style="fill:none;stroke:#ff0000;stroke-linecap:square;stroke-width:1.5;"/>
   </g>
   <g id="line2d_63">
    <path clip-path="url(#p861d65b5d8)" d="M 217.642944 145.416307 
L 216.477297 138.430965 
L 213.106671 132.202593 
L 207.896325 127.406133 
L 201.410883 124.561354 
L 194.353141 123.976532 
L 187.487916 125.715044 
L 181.559162 129.588492 
L 177.20935 135.17713 
L 174.909851 141.875342 
L 174.909851 148.957272 
L 177.20935 155.655484 
L 181.559162 161.244121 
L 187.487916 165.11757 
L 194.353141 166.856081 
L 201.410883 166.27126 
L 207.896325 163.426481 
L 213.106671 158.63002 
L 216.477297 152.401649 
L 217.642944 145.416307 
" style="fill:none;stroke:#000000;stroke-dasharray:5.55,2.4;stroke-dashoffset:0;stroke-width:1.5;"/>
   </g>
   <g id="line2d_64">
    <path clip-path="url(#p861d65b5d8)" d="M 202.045836 145.416307 
L 201.725283 143.495338 
L 200.798361 141.782536 
L 199.365516 140.463509 
L 197.582019 139.681195 
L 195.64114 139.520369 
L 193.753203 139.998459 
L 192.122796 141.063658 
L 190.926597 142.600533 
L 190.294235 144.442541 
L 190.294235 146.390072 
L 190.926597 148.23208 
L 192.122796 149.768956 
L 193.753203 150.834154 
L 195.64114 151.312245 
L 197.582019 151.151419 
L 199.365516 150.369105 
L 200.798361 149.050078 
L 201.725283 147.337276 
L 202.045836 145.416307 
" style="fill:none;stroke:#ff0000;stroke-linecap:square;stroke-width:1.5;"/>
   </g>
   <g id="line2d_65">
    <path clip-path="url(#p861d65b5d8)" d="M 379.503858 377.712008 
L 378.33821 370.726666 
L 374.967584 364.498295 
L 369.757239 359.701834 
L 363.271796 356.857055 
L 356.214054 356.272234 
L 349.348829 358.010745 
L 343.420075 361.884193 
L 339.070263 367.472831 
L 336.770764 374.171043 
L 336.770764 381.252973 
L 339.070263 387.951185 
L 343.420075 393.539823 
L 349.348829 397.413271 
L 356.214054 399.151782 
L 363.271796 398.566961 
L 369.757239 395.722182 
L 374.967584 390.925722 
L 378.33821 384.69735 
L 379.503858 377.712008 
" style="fill:none;stroke:#000000;stroke-dasharray:5.55,2.4;stroke-dashoffset:0;stroke-width:1.5;"/>
   </g>
   <g id="line2d_66">
    <path clip-path="url(#p861d65b5d8)" d="M 363.906749 377.712008 
L 363.586196 375.791039 
L 362.659274 374.078237 
L 361.226429 372.75921 
L 359.442932 371.976896 
L 357.502053 371.81607 
L 355.614116 372.294161 
L 353.983709 373.359359 
L 352.787511 374.896234 
L 352.155149 376.738243 
L 352.155149 378.685773 
L 352.787511 380.527782 
L 353.983709 382.064657 
L 355.614116 383.129855 
L 357.502053 383.607946 
L 359.442932 383.44712 
L 361.226429 382.664806 
L 362.659274 381.345779 
L 363.586196 379.632977 
L 363.906749 377.712008 
" style="fill:none;stroke:#ff0000;stroke-linecap:square;stroke-width:1.5;"/>
   </g>
   <g id="line2d_67">
    <path clip-path="url(#p861d65b5d8)" d="M 194.891532 450.356964 
L 193.725884 443.371622 
L 190.355258 437.143251 
L 185.144913 432.34679 
L 178.65947 429.502011 
L 171.601728 428.91719 
L 164.736503 430.655701 
L 158.807749 434.529149 
L 154.457937 440.117787 
L 152.158438 446.815999 
L 152.158438 453.897929 
L 154.457937 460.596141 
L 158.807749 466.184779 
L 164.736503 470.058227 
L 171.601728 471.796738 
L 178.65947 471.211917 
L 185.144913 468.367138 
L 190.355258 463.570678 
L 193.725884 457.342306 
L 194.891532 450.356964 
" style="fill:none;stroke:#000000;stroke-dasharray:5.55,2.4;stroke-dashoffset:0;stroke-width:1.5;"/>
   </g>
   <g id="line2d_68">
    <path clip-path="url(#p861d65b5d8)" d="M 179.294423 450.356964 
L 178.97387 448.435995 
L 178.046948 446.723193 
L 176.614103 445.404166 
L 174.830606 444.621852 
L 172.889727 444.461026 
L 171.00179 444.939117 
L 169.371383 446.004315 
L 168.175185 447.54119 
L 167.542822 449.383199 
L 167.542822 451.330729 
L 168.175185 453.172738 
L 169.371383 454.709613 
L 171.00179 455.774811 
L 172.889727 456.252902 
L 174.830606 456.092076 
L 176.614103 455.309762 
L 178.046948 453.990735 
L 178.97387 452.277933 
L 179.294423 450.356964 
" style="fill:none;stroke:#ff0000;stroke-linecap:square;stroke-width:1.5;"/>
   </g>
   <g id="line2d_69">
    <path clip-path="url(#p861d65b5d8)" d="M 224.325314 334.093759 
L 223.159666 327.108417 
L 219.78904 320.880045 
L 214.578695 316.083584 
L 208.093252 313.238805 
L 201.03551 312.653984 
L 194.170286 314.392495 
L 188.241531 318.265944 
L 183.891719 323.854582 
L 181.592221 330.552794 
L 181.592221 337.634724 
L 183.891719 344.332935 
L 188.241531 349.921573 
L 194.170286 353.795022 
L 201.03551 355.533533 
L 208.093252 354.948712 
L 214.578695 352.103933 
L 219.78904 347.307472 
L 223.159666 341.0791 
L 224.325314 334.093759 
" style="fill:none;stroke:#000000;stroke-dasharray:5.55,2.4;stroke-dashoffset:0;stroke-width:1.5;"/>
   </g>
   <g id="line2d_70">
    <path clip-path="url(#p861d65b5d8)" d="M 208.728205 334.093759 
L 208.407652 332.17279 
L 207.48073 330.459987 
L 206.047885 329.140961 
L 204.264388 328.358646 
L 202.323509 328.197821 
L 200.435573 328.675911 
L 198.805165 329.74111 
L 197.608967 331.277985 
L 196.976605 333.119993 
L 196.976605 335.067524 
L 197.608967 336.909532 
L 198.805165 338.446408 
L 200.435573 339.511606 
L 202.323509 339.989697 
L 204.264388 339.828871 
L 206.047885 339.046557 
L 207.48073 337.72753 
L 208.407652 336.014728 
L 208.728205 334.093759 
" style="fill:none;stroke:#ff0000;stroke-linecap:square;stroke-width:1.5;"/>
   </g>
   <g id="line2d_71">
    <path clip-path="url(#p861d65b5d8)" d="M 482.782078 128.895756 
L 481.61643 121.910415 
L 478.245804 115.682043 
L 473.035459 110.885582 
L 466.550016 108.040803 
L 459.492274 107.455982 
L 452.627049 109.194493 
L 446.698295 113.067942 
L 442.348483 118.65658 
L 440.048984 125.354791 
L 440.048984 132.436721 
L 442.348483 139.134933 
L 446.698295 144.723571 
L 452.627049 148.59702 
L 459.492274 150.335531 
L 466.550016 149.75071 
L 473.035459 146.905931 
L 478.245804 142.10947 
L 481.61643 135.881098 
L 482.782078 128.895756 
" style="fill:none;stroke:#000000;stroke-dasharray:5.55,2.4;stroke-dashoffset:0;stroke-width:1.5;"/>
   </g>
   <g id="line2d_72">
    <path clip-path="url(#p861d65b5d8)" d="M 467.184969 128.895756 
L 466.864416 126.974787 
L 465.937494 125.261985 
L 464.504649 123.942959 
L 462.721152 123.160644 
L 460.780273 122.999818 
L 458.892336 123.477909 
L 457.261929 124.543107 
L 456.065731 126.079983 
L 455.433369 127.921991 
L 455.433369 129.869522 
L 456.065731 131.71153 
L 457.261929 133.248405 
L 458.892336 134.313604 
L 460.780273 134.791694 
L 462.721152 134.630869 
L 464.504649 133.848554 
L 465.937494 132.529528 
L 466.864416 130.816725 
L 467.184969 128.895756 
" style="fill:none;stroke:#ff0000;stroke-linecap:square;stroke-width:1.5;"/>
   </g>
   <g id="line2d_73">
    <path clip-path="url(#p861d65b5d8)" d="M 362.448693 225.64243 
L 361.283045 218.657088 
L 357.912419 212.428716 
L 352.702074 207.632256 
L 346.216631 204.787477 
L 339.158889 204.202655 
L 332.293664 205.941167 
L 326.36491 209.814615 
L 322.015098 215.403253 
L 319.715599 222.101465 
L 319.715599 229.183395 
L 322.015098 235.881607 
L 326.36491 241.470244 
L 332.293664 245.343693 
L 339.158889 247.082204 
L 346.216631 246.497383 
L 352.702074 243.652604 
L 357.912419 238.856143 
L 361.283045 232.627772 
L 362.448693 225.64243 
" style="fill:none;stroke:#000000;stroke-dasharray:5.55,2.4;stroke-dashoffset:0;stroke-width:1.5;"/>
   </g>
   <g id="line2d_74">
    <path clip-path="url(#p861d65b5d8)" d="M 346.851584 225.64243 
L 346.531031 223.721461 
L 345.604109 222.008659 
L 344.171264 220.689632 
L 342.387767 219.907318 
L 340.446888 219.746492 
L 338.558951 220.224582 
L 336.928544 221.289781 
L 335.732346 222.826656 
L 335.099983 224.668664 
L 335.099983 226.616195 
L 335.732346 228.458203 
L 336.928544 229.995079 
L 338.558951 231.060277 
L 340.446888 231.538368 
L 342.387767 231.377542 
L 344.171264 230.595228 
L 345.604109 229.276201 
L 346.531031 227.563399 
L 346.851584 225.64243 
" style="fill:none;stroke:#ff0000;stroke-linecap:square;stroke-width:1.5;"/>
   </g>
   <g id="line2d_75">
    <path clip-path="url(#p861d65b5d8)" d="M 366.330423 409.603841 
L 365.164776 402.6185 
L 361.79415 396.390128 
L 356.583805 391.593667 
L 350.098362 388.748888 
L 343.04062 388.164067 
L 336.175395 389.902578 
L 330.246641 393.776027 
L 325.896829 399.364665 
L 323.59733 406.062876 
L 323.59733 413.144806 
L 325.896829 419.843018 
L 330.246641 425.431656 
L 336.175395 429.305105 
L 343.04062 431.043616 
L 350.098362 430.458795 
L 356.583805 427.614016 
L 361.79415 422.817555 
L 365.164776 416.589183 
L 366.330423 409.603841 
" style="fill:none;stroke:#000000;stroke-dasharray:5.55,2.4;stroke-dashoffset:0;stroke-width:1.5;"/>
   </g>
   <g id="line2d_76">
    <path clip-path="url(#p861d65b5d8)" d="M 350.733315 409.603841 
L 350.412762 407.682872 
L 349.48584 405.97007 
L 348.052995 404.651043 
L 346.269498 403.868729 
L 344.328619 403.707903 
L 342.440682 404.185994 
L 340.810275 405.251192 
L 339.614077 406.788068 
L 338.981714 408.630076 
L 338.981714 410.577607 
L 339.614077 412.419615 
L 340.810275 413.95649 
L 342.440682 415.021689 
L 344.328619 415.499779 
L 346.269498 415.338953 
L 348.052995 414.556639 
L 349.48584 413.237613 
L 350.412762 411.52481 
L 350.733315 409.603841 
" style="fill:none;stroke:#ff0000;stroke-linecap:square;stroke-width:1.5;"/>
   </g>
   <g id="line2d_77">
    <path clip-path="url(#p861d65b5d8)" d="M 239.944934 161.629061 
L 238.779286 154.64372 
L 235.40866 148.415348 
L 230.198315 143.618887 
L 223.712872 140.774108 
L 216.65513 140.189287 
L 209.789905 141.927798 
L 203.861151 145.801247 
L 199.511339 151.389885 
L 197.21184 158.088096 
L 197.21184 165.170026 
L 199.511339 171.868238 
L 203.861151 177.456876 
L 209.789905 181.330325 
L 216.65513 183.068836 
L 223.712872 182.484015 
L 230.198315 179.639236 
L 235.40866 174.842775 
L 238.779286 168.614403 
L 239.944934 161.629061 
" style="fill:none;stroke:#000000;stroke-dasharray:5.55,2.4;stroke-dashoffset:0;stroke-width:1.5;"/>
   </g>
   <g id="line2d_78">
    <path clip-path="url(#p861d65b5d8)" d="M 224.347825 161.629061 
L 224.027272 159.708092 
L 223.10035 157.99529 
L 221.667505 156.676263 
L 219.884008 155.893949 
L 217.943129 155.733123 
L 216.055192 156.211214 
L 214.424785 157.276412 
L 213.228587 158.813288 
L 212.596224 160.655296 
L 212.596224 162.602827 
L 213.228587 164.444835 
L 214.424785 165.98171 
L 216.055192 167.046909 
L 217.943129 167.524999 
L 219.884008 167.364174 
L 221.667505 166.581859 
L 223.10035 165.262833 
L 224.027272 163.55003 
L 224.347825 161.629061 
" style="fill:none;stroke:#ff0000;stroke-linecap:square;stroke-width:1.5;"/>
   </g>
   <g id="line2d_79">
    <path clip-path="url(#p861d65b5d8)" d="M 273.435601 237.438533 
L 272.269953 230.453191 
L 268.899327 224.224819 
L 263.688982 219.428359 
L 257.203539 216.58358 
L 250.145797 215.998758 
L 243.280572 217.73727 
L 237.351818 221.610718 
L 233.002006 227.199356 
L 230.702507 233.897568 
L 230.702507 240.979498 
L 233.002006 247.67771 
L 237.351818 253.266347 
L 243.280572 257.139796 
L 250.145797 258.878307 
L 257.203539 258.293486 
L 263.688982 255.448707 
L 268.899327 250.652246 
L 272.269953 244.423875 
L 273.435601 237.438533 
" style="fill:none;stroke:#000000;stroke-dasharray:5.55,2.4;stroke-dashoffset:0;stroke-width:1.5;"/>
   </g>
   <g id="line2d_80">
    <path clip-path="url(#p861d65b5d8)" d="M 257.838492 237.438533 
L 257.517939 235.517564 
L 256.591017 233.804762 
L 255.158172 232.485735 
L 253.374675 231.703421 
L 251.433796 231.542595 
L 249.545859 232.020685 
L 247.915452 233.085884 
L 246.719254 234.622759 
L 246.086892 236.464767 
L 246.086892 238.412298 
L 246.719254 240.254306 
L 247.915452 241.791182 
L 249.545859 242.85638 
L 251.433796 243.334471 
L 253.374675 243.173645 
L 255.158172 242.391331 
L 256.591017 241.072304 
L 257.517939 239.359502 
L 257.838492 237.438533 
" style="fill:none;stroke:#ff0000;stroke-linecap:square;stroke-width:1.5;"/>
   </g>
   <g id="line2d_81">
    <path clip-path="url(#p861d65b5d8)" d="M 381.401853 416.594722 
L 380.236205 409.60938 
L 376.865579 403.381009 
L 371.655234 398.584548 
L 365.169791 395.739769 
L 358.112049 395.154948 
L 351.246825 396.893459 
L 345.31807 400.766908 
L 340.968259 406.355546 
L 338.66876 413.053757 
L 338.66876 420.135687 
L 340.968259 426.833899 
L 345.31807 432.422537 
L 351.246825 436.295986 
L 358.112049 438.034497 
L 365.169791 437.449675 
L 371.655234 434.604897 
L 376.865579 429.808436 
L 380.236205 423.580064 
L 381.401853 416.594722 
" style="fill:none;stroke:#000000;stroke-dasharray:5.55,2.4;stroke-dashoffset:0;stroke-width:1.5;"/>
   </g>
   <g id="line2d_82">
    <path clip-path="url(#p861d65b5d8)" d="M 365.804744 416.594722 
L 365.484191 414.673753 
L 364.557269 412.960951 
L 363.124424 411.641924 
L 361.340927 410.85961 
L 359.400048 410.698784 
L 357.512112 411.176875 
L 355.881704 412.242073 
L 354.685506 413.778949 
L 354.053144 415.620957 
L 354.053144 417.568488 
L 354.685506 419.410496 
L 355.881704 420.947371 
L 357.512112 422.01257 
L 359.400048 422.49066 
L 361.340927 422.329834 
L 363.124424 421.54752 
L 364.557269 420.228494 
L 365.484191 418.515691 
L 365.804744 416.594722 
" style="fill:none;stroke:#ff0000;stroke-linecap:square;stroke-width:1.5;"/>
   </g>
   <g id="line2d_83">
    <path clip-path="url(#p861d65b5d8)" d="M 234.304486 443.058074 
L 233.138838 436.072732 
L 229.768212 429.84436 
L 224.557867 425.0479 
L 218.072424 422.203121 
L 211.014682 421.6183 
L 204.149457 423.356811 
L 198.220703 427.230259 
L 193.870891 432.818897 
L 191.571392 439.517109 
L 191.571392 446.599039 
L 193.870891 453.297251 
L 198.220703 458.885889 
L 204.149457 462.759337 
L 211.014682 464.497848 
L 218.072424 463.913027 
L 224.557867 461.068248 
L 229.768212 456.271787 
L 233.138838 450.043416 
L 234.304486 443.058074 
" style="fill:none;stroke:#000000;stroke-dasharray:5.55,2.4;stroke-dashoffset:0;stroke-width:1.5;"/>
   </g>
   <g id="line2d_84">
    <path clip-path="url(#p861d65b5d8)" d="M 218.707377 443.058074 
L 218.386824 441.137105 
L 217.459902 439.424303 
L 216.027057 438.105276 
L 214.24356 437.322962 
L 212.302681 437.162136 
L 210.414744 437.640226 
L 208.784337 438.705425 
L 207.588139 440.2423 
L 206.955777 442.084309 
L 206.955777 444.031839 
L 207.588139 445.873847 
L 208.784337 447.410723 
L 210.414744 448.475921 
L 212.302681 448.954012 
L 214.24356 448.793186 
L 216.027057 448.010872 
L 217.459902 446.691845 
L 218.386824 444.979043 
L 218.707377 443.058074 
" style="fill:none;stroke:#ff0000;stroke-linecap:square;stroke-width:1.5;"/>
   </g>
   <g id="line2d_85">
    <path clip-path="url(#p861d65b5d8)" d="M 209.223208 454.152765 
L 208.05756 447.167423 
L 204.686934 440.939052 
L 199.476589 436.142591 
L 192.991146 433.297812 
L 185.933404 432.712991 
L 179.068179 434.451502 
L 173.139425 438.32495 
L 168.789613 443.913588 
L 166.490114 450.6118 
L 166.490114 457.69373 
L 168.789613 464.391942 
L 173.139425 469.98058 
L 179.068179 473.854028 
L 185.933404 475.592539 
L 192.991146 475.007718 
L 199.476589 472.162939 
L 204.686934 467.366479 
L 208.05756 461.138107 
L 209.223208 454.152765 
" style="fill:none;stroke:#000000;stroke-dasharray:5.55,2.4;stroke-dashoffset:0;stroke-width:1.5;"/>
   </g>
   <g id="line2d_86">
    <path clip-path="url(#p861d65b5d8)" d="M 193.626099 454.152765 
L 193.305546 452.231796 
L 192.378624 450.518994 
L 190.945779 449.199967 
L 189.162282 448.417653 
L 187.221403 448.256827 
L 185.333466 448.734918 
L 183.703059 449.800116 
L 182.506861 451.336991 
L 181.874498 453.179 
L 181.874498 455.12653 
L 182.506861 456.968539 
L 183.703059 458.505414 
L 185.333466 459.570612 
L 187.221403 460.048703 
L 189.162282 459.887877 
L 190.945779 459.105563 
L 192.378624 457.786536 
L 193.305546 456.073734 
L 193.626099 454.152765 
" style="fill:none;stroke:#ff0000;stroke-linecap:square;stroke-width:1.5;"/>
   </g>
   <g id="line2d_87">
    <path clip-path="url(#p861d65b5d8)" d="M 258.096563 435.951552 
L 256.930915 428.96621 
L 253.560289 422.737839 
L 248.349944 417.941378 
L 241.864501 415.096599 
L 234.806759 414.511778 
L 227.941534 416.250289 
L 222.01278 420.123738 
L 217.662968 425.712376 
L 215.363469 432.410587 
L 215.363469 439.492517 
L 217.662968 446.190729 
L 222.01278 451.779367 
L 227.941534 455.652816 
L 234.806759 457.391327 
L 241.864501 456.806505 
L 248.349944 453.961726 
L 253.560289 449.165266 
L 256.930915 442.936894 
L 258.096563 435.951552 
" style="fill:none;stroke:#000000;stroke-dasharray:5.55,2.4;stroke-dashoffset:0;stroke-width:1.5;"/>
   </g>
   <g id="line2d_88">
    <path clip-path="url(#p861d65b5d8)" d="M 242.499454 435.951552 
L 242.178901 434.030583 
L 241.251979 432.317781 
L 239.819134 430.998754 
L 238.035637 430.21644 
L 236.094758 430.055614 
L 234.206822 430.533705 
L 232.576414 431.598903 
L 231.380216 433.135779 
L 230.747854 434.977787 
L 230.747854 436.925318 
L 231.380216 438.767326 
L 232.576414 440.304201 
L 234.206822 441.3694 
L 236.094758 441.84749 
L 238.035637 441.686664 
L 239.819134 440.90435 
L 241.251979 439.585323 
L 242.178901 437.872521 
L 242.499454 435.951552 
" style="fill:none;stroke:#ff0000;stroke-linecap:square;stroke-width:1.5;"/>
   </g>
   <g id="line2d_89">
    <path clip-path="url(#p861d65b5d8)" d="M 181.656006 454.858215 
L 180.490358 447.872873 
L 177.119732 441.644501 
L 171.909387 436.84804 
L 165.423944 434.003261 
L 158.366202 433.41844 
L 151.500977 435.156951 
L 145.572223 439.0304 
L 141.222411 444.619038 
L 138.922912 451.31725 
L 138.922912 458.39918 
L 141.222411 465.097391 
L 145.572223 470.686029 
L 151.500977 474.559478 
L 158.366202 476.297989 
L 165.423944 475.713168 
L 171.909387 472.868389 
L 177.119732 468.071928 
L 180.490358 461.843556 
L 181.656006 454.858215 
" style="fill:none;stroke:#000000;stroke-dasharray:5.55,2.4;stroke-dashoffset:0;stroke-width:1.5;"/>
   </g>
   <g id="line2d_90">
    <path clip-path="url(#p861d65b5d8)" d="M 166.058897 454.858215 
L 165.738344 452.937246 
L 164.811422 451.224443 
L 163.378577 449.905417 
L 161.59508 449.123103 
L 159.654201 448.962277 
L 157.766264 449.440367 
L 156.135857 450.505566 
L 154.939659 452.042441 
L 154.307297 453.884449 
L 154.307297 455.83198 
L 154.939659 457.673988 
L 156.135857 459.210864 
L 157.766264 460.276062 
L 159.654201 460.754153 
L 161.59508 460.593327 
L 163.378577 459.811013 
L 164.811422 458.491986 
L 165.738344 456.779184 
L 166.058897 454.858215 
" style="fill:none;stroke:#ff0000;stroke-linecap:square;stroke-width:1.5;"/>
   </g>
   <g id="line2d_91">
    <path clip-path="url(#p861d65b5d8)" d="M 228.793939 153.522684 
L 227.628292 146.537342 
L 224.257665 140.308971 
L 219.04732 135.51251 
L 212.561877 132.667731 
L 205.504136 132.08291 
L 198.638911 133.821421 
L 192.710156 137.694869 
L 188.360345 143.283507 
L 186.060846 149.981719 
L 186.060846 157.063649 
L 188.360345 163.761861 
L 192.710156 169.350499 
L 198.638911 173.223947 
L 205.504136 174.962458 
L 212.561877 174.377637 
L 219.04732 171.532858 
L 224.257665 166.736398 
L 227.628292 160.508026 
L 228.793939 153.522684 
" style="fill:none;stroke:#000000;stroke-dasharray:5.55,2.4;stroke-dashoffset:0;stroke-width:1.5;"/>
   </g>
   <g id="line2d_92">
    <path clip-path="url(#p861d65b5d8)" d="M 213.196831 153.522684 
L 212.876278 151.601715 
L 211.949355 149.888913 
L 210.51651 148.569886 
L 208.733014 147.787572 
L 206.792135 147.626746 
L 204.904198 148.104837 
L 203.27379 149.170035 
L 202.077592 150.706911 
L 201.44523 152.548919 
L 201.44523 154.49645 
L 202.077592 156.338458 
L 203.27379 157.875333 
L 204.904198 158.940532 
L 206.792135 159.418622 
L 208.733014 159.257796 
L 210.51651 158.475482 
L 211.949355 157.156455 
L 212.876278 155.443653 
L 213.196831 153.522684 
" style="fill:none;stroke:#ff0000;stroke-linecap:square;stroke-width:1.5;"/>
   </g>
   <g id="line2d_93">
    <path clip-path="url(#p861d65b5d8)" d="M 372.917141 393.657925 
L 371.751493 386.672583 
L 368.380867 380.444211 
L 363.170522 375.64775 
L 356.685079 372.802972 
L 349.627337 372.21815 
L 342.762112 373.956661 
L 336.833358 377.83011 
L 332.483546 383.418748 
L 330.184047 390.11696 
L 330.184047 397.19889 
L 332.483546 403.897101 
L 336.833358 409.485739 
L 342.762112 413.359188 
L 349.627337 415.097699 
L 356.685079 414.512878 
L 363.170522 411.668099 
L 368.380867 406.871638 
L 371.751493 400.643267 
L 372.917141 393.657925 
" style="fill:none;stroke:#000000;stroke-dasharray:5.55,2.4;stroke-dashoffset:0;stroke-width:1.5;"/>
   </g>
   <g id="line2d_94">
    <path clip-path="url(#p861d65b5d8)" d="M 357.320032 393.657925 
L 356.999479 391.736956 
L 356.072557 390.024153 
L 354.639712 388.705127 
L 352.856215 387.922813 
L 350.915336 387.761987 
L 349.027399 388.240077 
L 347.396992 389.305276 
L 346.200794 390.842151 
L 345.568431 392.684159 
L 345.568431 394.63169 
L 346.200794 396.473698 
L 347.396992 398.010574 
L 349.027399 399.075772 
L 350.915336 399.553863 
L 352.856215 399.393037 
L 354.639712 398.610723 
L 356.072557 397.291696 
L 356.999479 395.578894 
L 357.320032 393.657925 
" style="fill:none;stroke:#ff0000;stroke-linecap:square;stroke-width:1.5;"/>
   </g>
   <g id="line2d_95">
    <path clip-path="url(#p861d65b5d8)" d="M 98.891566 487.188434 
L 98.891566 94.571566 
" style="fill:none;stroke:#000000;stroke-linecap:square;stroke-width:4;"/>
   </g>
   <g id="line2d_96">
    <path clip-path="url(#p861d65b5d8)" d="M 98.891566 94.571566 
L 491.508434 94.571566 
" style="fill:none;stroke:#000000;stroke-linecap:square;stroke-width:4;"/>
   </g>
   <g id="line2d_97">
    <path clip-path="url(#p861d65b5d8)" d="M 491.508434 94.571566 
L 491.508434 487.188434 
" style="fill:none;stroke:#000000;stroke-linecap:square;stroke-width:4;"/>
   </g>
   <g id="line2d_98">
    <path clip-path="url(#p861d65b5d8)" d="M 491.508434 487.188434 
L 98.891566 487.188434 
" style="fill:none;stroke:#000000;stroke-linecap:square;stroke-width:4;"/>
   </g>
   <g id="line2d_99">
    <path clip-path="url(#p861d65b5d8)" d="M 254.378602 383.655904 
L 255.131566 383.60212 
L 256.637494 383.494554 
L 258.573687 382.956723 
L 260.456096 382.096193 
L 262.015807 380.912964 
L 263.844434 379.460819 
L 265.83441 378.331373 
L 267.878169 377.201928 
L 269.545446 375.964916 
L 271.105157 374.566554 
L 273.041349 372.95306 
L 275.246458 371.608482 
L 276.967518 370.263904 
L 278.581012 368.435277 
L 280.302072 366.606651 
L 282.345831 364.88559 
L 284.228241 363.110747 
L 285.841735 361.228337 
L 287.186313 359.56106 
L 288.584675 357.893783 
L 290.090602 356.172723 
L 291.058699 354.451663 
L 291.75788 352.192771 
L 291.973012 350.149012 
L 292.080578 347.674988 
L 292.134361 345.147181 
L 292.188145 342.619373 
L 292.241928 340.360482 
L 292.510843 338.854554 
L 293.048675 337.563759 
L 293.909205 336.165398 
L 295.146217 334.65947 
L 296.329446 333.314892 
L 297.996723 331.862747 
L 299.986699 330.679518 
L 301.492627 329.496289 
L 302.890988 327.775229 
L 304.020434 326.107952 
L 305.418795 324.225542 
L 307.139855 322.450699 
L 308.645783 321.052337 
L 310.044145 319.116145 
L 311.066024 316.911036 
L 312.19547 314.490795 
L 313.701398 312.393253 
L 315.368675 310.887325 
L 317.681349 309.59653 
L 320.047807 308.789783 
L 322.145349 307.87547 
L 323.812627 306.692241 
L 325.210988 305.240096 
L 326.394217 303.41147 
L 327.846361 301.52906 
L 329.782554 299.808 
L 332.202795 298.194506 
L 333.870072 297.011277 
L 335.429783 295.236434 
L 336.613012 293.300241 
L 337.95759 291.148916 
L 339.786217 289.320289 
L 342.045108 287.921928 
L 344.357783 287.007614 
L 346.401542 286.093301 
L 348.068819 284.910072 
L 349.62853 283.242795 
L 351.618506 281.037687 
L 353.769831 279.477976 
L 356.243855 278.402313 
L 358.341398 277.219084 
L 360.27759 275.659373 
L 362.321349 273.938313 
L 363.719711 272.378602 
L 365.225639 270.44241 
L 366.785349 268.452434 
L 368.398843 266.516241 
L 370.06612 264.633831 
L 371.894747 262.428723 
L 373.508241 260.49253 
L 374.852819 258.825253 
L 376.466313 256.88906 
L 378.079807 255.006651 
L 379.693301 253.070458 
L 381.306795 251.134265 
L 382.651373 249.466988 
L 384.264867 247.530795 
L 385.663229 245.917301 
L 387.06159 244.250024 
L 388.675084 242.313831 
L 390.234795 240.377639 
L 391.848289 238.495229 
L 393.246651 236.827952 
L 394.860145 234.891759 
L 396.258506 233.224482 
L 397.603084 231.610988 
L 398.73253 230.212627 
L 400.346024 228.276434 
L 401.959518 226.340241 
L 403.35788 224.726747 
L 404.756241 223.05947 
L 406.315952 221.123277 
L 407.929446 219.187084 
L 409.54294 217.304675 
L 410.941301 215.637398 
L 412.339663 213.97012 
L 413.899373 212.033928 
L 415.297735 210.420434 
L 416.911229 208.484241 
L 418.524723 206.548048 
L 420.138217 204.611855 
L 421.751711 202.675663 
L 423.096289 201.062169 
L 424.494651 199.394892 
L 426.108145 197.458699 
L 427.721639 195.522506 
L 429.335133 193.586313 
L 430.948627 191.703904 
L 432.56212 189.767711 
L 434.175614 187.831518 
L 435.735325 185.895325 
L 437.348819 183.959133 
L 438.962313 182.02294 
L 440.575807 180.14053 
L 442.189301 178.204337 
L 443.802795 176.268145 
L 445.416289 174.331952 
" style="fill:none;stroke:#8000ff;stroke-linecap:square;stroke-width:1.5;"/>
   </g>
   <g id="line2d_100">
    <path clip-path="url(#p861d65b5d8)" d="M 303.10612 280.392289 
L 303.375036 280.446072 
L 304.235566 280.661205 
L 305.472578 281.252819 
L 306.87094 282.328482 
L 308.323084 284.049542 
L 309.398747 285.878169 
L 310.31306 287.653012 
L 311.33494 289.481639 
L 312.679518 291.579181 
L 314.024096 293.730506 
L 315.099759 295.612916 
L 315.852723 297.764241 
L 316.229205 300.345831 
L 316.067855 302.819855 
L 316.121639 305.078747 
L 316.605687 307.552771 
L 317.197301 309.542747 
L 317.627566 311.694072 
L 317.896482 313.791614 
L 318.38053 316.104289 
L 319.24106 317.986699 
L 320.693205 320.138024 
L 321.768867 321.966651 
L 322.736964 324.494458 
L 323.436145 326.807133 
L 324.296675 328.581976 
L 325.695036 330.464386 
L 327.200964 332.454361 
L 328.491759 334.820819 
L 329.459855 336.54188 
L 331.019566 338.370506 
L 333.009542 339.930217 
L 335.160867 341.651277 
L 336.989494 343.748819 
L 338.656771 345.577446 
L 340.592964 346.922024 
L 342.798072 347.836337 
L 344.895614 348.320386 
L 347.369639 348.912 
L 349.843663 349.93388 
L 352.048771 351.063325 
L 354.25388 351.923855 
L 356.67412 352.246554 
L 359.201928 352.51547 
L 361.729735 353.214651 
L 363.665928 354.182747 
L 365.76347 355.473542 
L 367.968578 356.280289 
L 370.603952 356.710554 
L 373.239325 357.248386 
L 375.283084 358.108916 
L 377.43441 359.614843 
L 379.15547 361.604819 
L 380.500048 363.971277 
L 381.683277 365.961253 
L 383.45812 367.897446 
L 385.017831 369.887422 
L 386.147277 372.25388 
L 386.738892 374.727904 
L 387.384289 376.879229 
L 388.459952 379.407036 
L 389.481831 381.988627 
L 389.96588 384.570217 
L 389.858313 387.20559 
L 389.96588 389.518265 
L 390.611277 391.83094 
L 391.794506 393.928482 
L 393.031518 395.43441 
L 394.752578 397.263036 
L 396.473639 399.575711 
L 397.549301 401.834602 
L 398.571181 403.878361 
L 399.700627 405.653205 
L 400.830072 407.535614 
L 401.798169 409.902072 
L 402.551133 412.322313 
L 403.465446 414.688771 
L 404.325976 417.162795 
L 404.91759 419.636819 
L 405.294072 421.788145 
L 405.885687 424.262169 
L 406.584867 426.736193 
L 407.015133 429.264 
L 407.230265 431.415325 
L 407.66053 433.781783 
L 408.359711 436.148241 
L 408.736193 438.353349 
L 408.68241 440.397108 
L 408.68241 442.171952 
L 409.005108 444.215711 
L 409.596723 445.990554 
L 410.457253 448.464578 
" style="fill:none;stroke:#376ff9;stroke-linecap:square;stroke-width:1.5;"/>
   </g>
   <g id="line2d_101">
    <path clip-path="url(#p861d65b5d8)" d="M 396.796337 346.706892 
L 396.742554 346.760675 
L 396.634988 346.760675 
L 396.634988 346.760675 
L 396.796337 346.599325 
L 397.226602 346.115277 
L 397.764434 345.039614 
L 398.140916 343.372337 
L 398.140916 341.167229 
L 397.710651 338.908337 
L 397.226602 336.488096 
L 396.903904 334.014072 
L 396.688771 331.486265 
L 396.366072 329.012241 
L 396.097157 326.914699 
L 395.828241 324.763373 
L 395.559325 322.289349 
L 395.29041 320.138024 
L 395.021494 317.986699 
L 394.698795 315.512675 
L 394.376096 313.038651 
L 394.107181 310.887325 
L 393.838265 308.413301 
L 393.569349 306.261976 
L 393.300434 304.110651 
L 392.977735 301.636627 
L 392.708819 299.108819 
L 392.439904 297.011277 
L 392.117205 294.537253 
L 391.794506 292.009446 
L 391.471807 289.535422 
L 391.256675 287.384096 
L 390.933976 284.910072 
L 390.611277 282.382265 
L 390.288578 279.908241 
L 390.019663 277.434217 
L 389.750747 275.282892 
L 389.428048 272.808867 
L 389.105349 270.334843 
L 388.836434 267.807036 
L 388.513735 265.333012 
L 388.191036 262.858988 
L 387.92212 260.331181 
L 387.599422 257.857157 
L 387.276723 255.383133 
L 387.007807 253.231807 
L 386.738892 251.080482 
L 386.469976 248.606458 
L 386.20106 246.455133 
L 385.878361 243.981108 
L 385.555663 241.507084 
L 385.286747 239.355759 
L 385.017831 236.881735 
L 384.695133 234.353928 
L 384.372434 231.879904 
L 384.103518 229.40588 
L 383.834602 227.254554 
L 383.511904 224.78053 
L 383.242988 222.19894 
L 383.135422 219.671133 
L 382.866506 217.197108 
L 382.490024 214.723084 
L 382.167325 212.24906 
L 381.844627 209.775036 
L 381.575711 207.247229 
L 381.253012 204.773205 
L 380.930313 202.299181 
L 380.607614 199.771373 
L 380.392482 197.99653 
L 380.069783 195.522506 
L 379.747084 193.048482 
L 379.424386 190.520675 
L 379.15547 188.423133 
L 378.832771 185.949108 
L 378.563855 183.797783 
L 378.241157 181.323759 
L 377.918458 178.795952 
L 377.595759 176.321928 
L 377.27306 173.847904 
L 377.004145 171.696578 
L 376.735229 169.545253 
L 376.41253 167.071229 
L 376.143614 164.919904 
L 375.874699 162.822361 
L 375.552 160.294554 
" style="fill:none;stroke:#12c7e6;stroke-linecap:square;stroke-width:1.5;"/>
   </g>
   <g id="line2d_102">
    <path clip-path="url(#p861d65b5d8)" d="M 126.643663 336.488096 
L 127.396627 336.488096 
L 129.17147 336.272964 
L 131.806843 335.573783 
L 134.173301 334.820819 
L 155.417639 329.818988 
L 162.409446 328.205494 
L 164.614554 327.667663 
L 166.819663 326.860916 
L 168.863422 325.623904 
L 170.692048 323.956627 
L 172.359325 322.235566 
L 174.026602 320.890988 
L 177.952771 318.255614 
L 181.932723 315.028627 
L 186.396723 312.608386 
L 188.117783 311.371373 
L 190.484241 309.973012 
L 192.904482 308.951133 
L 202.155181 305.670361 
L 204.467855 304.756048 
L 205.973783 304.487133 
L 207.963759 304.702265 
L 208.071325 304.702265 
L 208.931855 305.240096 
L 210.491566 306.638458 
L 211.836145 308.413301 
L 213.879904 312.231904 
L 215.116916 313.737831 
L 216.837976 315.458892 
L 222.270072 319.38506 
L 224.152482 320.191807 
L 226.196241 320.622072 
L 228.670265 320.568289 
L 230.552675 320.030458 
L 231.036723 320.138024 
L 232.542651 321.10612 
L 235.877205 324.602024 
L 237.759614 326.107952 
L 239.157976 326.807133 
L 240.233639 327.022265 
L 240.233639 327.022265 
L 241.040386 326.430651 
L 241.900916 325.354988 
L 242.707663 323.687711 
L 243.35306 321.213687 
L 244.267373 318.363181 
L 245.504386 316.104289 
L 247.010313 314.383229 
L 249.107855 312.877301 
L 253.948337 310.564627 
L 258.250988 307.498988 
L 260.456096 306.261976 
L 262.284723 304.756048 
L 265.296578 301.152578 
L 266.963855 299.700434 
L 269.330313 298.463422 
L 277.881831 295.774265 
L 289.87547 293.300241 
L 294.500819 292.547277 
L 306.494458 290.503518 
L 309.129831 290.503518 
L 311.657639 290.826217 
L 314.07788 290.88 
L 316.444337 290.449735 
L 320.424289 288.782458 
L 322.952096 288.083277 
L 325.479904 288.029494 
L 327.631229 288.190843 
L 330.05147 288.029494 
L 332.364145 287.384096 
L 335.644916 285.663036 
L 338.172723 284.910072 
L 340.216482 284.69494 
L 344.357783 284.53359 
L 348.283952 283.619277 
L 350.865542 283.242795 
L 353.393349 283.242795 
L 355.81359 282.97388 
L 360.331373 281.736867 
L 362.912964 281.467952 
L 365.440771 281.467952 
L 365.440771 281.467952 
" style="fill:none;stroke:#5bf9c7;stroke-linecap:square;stroke-width:1.5;"/>
   </g>
   <g id="line2d_103">
    <path clip-path="url(#p861d65b5d8)" d="M 156.170602 139.749398 
L 156.654651 139.749398 
L 158.053012 139.96453 
L 159.827855 140.609928 
L 161.764048 141.739373 
L 163.485108 143.191518 
L 165.044819 145.28906 
L 166.60453 148.516048 
L 169.885301 153.195181 
L 170.853398 155.23894 
L 171.552578 157.605398 
L 172.305542 159.595373 
L 173.596337 161.585349 
L 176.39306 164.758554 
L 177.630072 166.856096 
L 178.974651 168.577157 
L 182.793253 172.07306 
L 187.20347 177.128675 
L 191.559904 180.086747 
L 193.334747 181.754024 
L 194.840675 182.991036 
L 196.884434 184.174265 
L 199.304675 185.142361 
L 201.617349 186.32559 
L 205.489735 189.122313 
L 209.846169 191.058506 
L 211.997494 192.564434 
L 213.718554 194.55441 
L 214.848 196.490602 
L 215.654747 198.964627 
L 216.676627 203.105928 
L 219.419566 210.097735 
L 220.656578 212.141494 
L 222.162506 213.701205 
L 223.399518 214.561735 
L 224.851663 215.153349 
L 227.110554 215.583614 
L 229.530795 215.476048 
L 231.84347 214.776867 
L 233.887229 213.593639 
L 235.608289 211.926361 
L 237.275566 209.50612 
L 239.157976 206.978313 
L 241.147952 205.311036 
L 247.440578 201.868916 
L 249.430554 200.900819 
L 251.58188 200.255422 
L 255.776964 199.71759 
L 257.713157 199.01841 
L 259.810699 197.835181 
L 261.908241 196.490602 
L 264.005783 195.683855 
L 266.53359 195.25359 
L 269.222747 195.038458 
L 275.891855 195.845205 
L 278.043181 195.630072 
L 280.517205 195.522506 
L 285.142554 196.27547 
L 287.401446 196.920867 
L 289.498988 198.050313 
L 291.166265 199.233542 
L 293.263807 200.524337 
L 297.351325 202.62188 
L 308.000386 208.484241 
L 310.31306 210.097735 
L 312.087904 212.033928 
L 313.432482 214.292819 
L 314.561928 216.551711 
L 315.63759 218.272771 
L 319.133494 221.822458 
L 320.585639 223.973783 
L 321.231036 226.017542 
L 321.12347 226.394024 
L 321.069687 226.66294 
L 321.231036 227.469687 
L 321.661301 228.975614 
L 321.715084 230.26641 
L 321.284819 233.170699 
L 321.231036 234.837976 
L 321.499952 236.720386 
L 322.306699 238.925494 
L 323.597494 240.91547 
L 328.545542 246.024867 
L 330.481735 247.477012 
L 334.623036 249.574554 
L 336.935711 251.134265 
L 339.409735 252.532627 
L 341.399711 253.124241 
L 343.766169 253.393157 
L 349.198265 253.28559 
L 351.403373 253.715855 
L 353.447133 254.253687 
L 355.867373 254.630169 
L 357.964916 254.737735 
L 362.966747 254.845301 
L 383.834602 255.759614 
L 388.244819 256.835277 
L 393.192867 257.157976 
L 395.720675 257.857157 
L 397.764434 258.77147 
L 400.346024 259.793349 
L 404.971373 260.922795 
L 404.971373 260.922795 
" style="fill:none;stroke:#a4f99f;stroke-linecap:square;stroke-width:1.5;"/>
   </g>
   <g id="line2d_104">
    <path clip-path="url(#p861d65b5d8)" d="M 185.374843 398.177349 
L 186.611855 397.962217 
L 188.171566 397.370602 
L 189.623711 396.456289 
L 191.237205 394.950361 
L 194.733108 391.400675 
L 215.170699 372.25388 
L 217.42959 370.909301 
L 219.580916 369.887422 
L 221.463325 368.757976 
L 227.164337 363.917494 
L 228.831614 362.519133 
L 230.176193 360.636723 
L 231.090506 358.431614 
L 232.058602 353.429783 
L 232.972916 350.901976 
L 233.618313 348.643084 
L 233.72588 346.222843 
L 233.349398 343.856386 
L 231.84347 340.091566 
L 231.466988 337.886458 
L 231.520771 335.251084 
L 232.219952 332.723277 
L 233.241831 330.733301 
L 234.855325 328.635759 
L 236.576386 326.807133 
L 237.705831 325.139855 
L 238.512578 323.203663 
L 238.88906 321.213687 
L 238.996627 316.695904 
L 239.695807 314.168096 
L 241.739566 309.704096 
L 242.223614 307.337639 
L 242.116048 304.971181 
L 241.470651 302.658506 
L 239.695807 299.001253 
L 239.05041 296.473446 
L 238.942843 293.838072 
L 239.74959 288.890024 
L 239.74959 286.362217 
L 239.373108 283.619277 
L 239.319325 280.93012 
L 239.695807 278.671229 
L 240.448771 276.197205 
L 241.739566 273.938313 
L 243.51441 272.00212 
L 245.450602 270.603759 
L 247.171663 269.528096 
L 249.484337 268.452434 
L 251.366747 267.69947 
L 253.356723 266.516241 
L 255.239133 264.902747 
L 257.175325 263.396819 
L 259.057735 262.321157 
L 260.993928 261.51441 
L 262.822554 260.546313 
L 264.758747 259.040386 
L 266.426024 257.91094 
L 268.792482 256.835277 
L 270.99759 256.405012 
L 275.354024 256.297446 
L 277.344 255.759614 
L 279.495325 254.737735 
L 282.991229 251.941012 
L 285.196337 250.704 
L 290.198169 248.98294 
L 291.435181 248.283759 
L 292.188145 247.584578 
L 292.887325 246.670265 
L 293.47894 245.37947 
L 293.694072 244.034892 
L 293.855422 242.313831 
L 293.855422 239.89359 
L 293.31759 235.053108 
L 293.156241 229.997494 
L 292.887325 227.684819 
L 292.833542 224.619181 
L 293.102458 223.758651 
L 293.694072 222.951904 
L 296.437012 219.832482 
L 297.78159 218.971952 
L 299.448867 218.272771 
L 303.428819 217.304675 
L 305.580145 216.336578 
L 307.516337 214.884434 
L 310.47441 211.711229 
L 312.679518 210.312867 
L 314.669494 209.452337 
L 316.874602 208.64559 
L 318.918361 207.408578 
L 320.908337 205.795084 
L 322.84453 204.396723 
L 324.834506 203.374843 
L 327.254747 202.62188 
L 329.674988 201.707566 
L 331.880096 200.631904 
L 334.35412 199.825157 
L 339.194602 199.233542 
L 341.776193 198.588145 
L 344.357783 198.211663 
L 346.939373 198.373012 
L 351.779855 199.072193 
L 354.25388 199.233542 
L 356.83547 199.610024 
L 359.309494 199.825157 
L 361.837301 199.932723 
L 366.839133 200.524337 
L 390.611277 204.127807 
L 390.611277 204.127807 
" style="fill:none;stroke:#edc76f;stroke-linecap:square;stroke-width:1.5;"/>
   </g>
   <g id="line2d_105">
    <path clip-path="url(#p861d65b5d8)" d="M 254.109687 148.784964 
L 254.217253 148.784964 
L 254.486169 148.89253 
L 255.024 149.161446 
L 256.099663 150.075759 
L 256.960193 151.312771 
L 257.982072 153.625446 
L 258.412337 155.93812 
L 258.62747 157.928096 
L 259.003952 160.348337 
L 259.649349 162.768578 
L 260.187181 165.188819 
L 260.671229 167.662843 
L 261.155277 170.083084 
L 261.585542 172.180627 
L 262.123373 174.654651 
L 262.553639 176.752193 
L 262.876337 178.527036 
L 263.414169 181.00106 
L 263.952 183.797783 
L 264.489831 186.271807 
L 264.920096 188.369349 
L 265.350361 190.466892 
L 265.941976 193.263614 
L 266.426024 195.737639 
L 266.748723 197.297349 
L 266.910072 197.99653 
L 267.017639 198.265446 
L 266.963855 198.15788 
L 266.910072 198.104096 
L 267.178988 198.211663 
L 268.039518 198.641928 
L 269.868145 199.610024 
L 271.85812 201.331084 
L 273.148916 202.944578 
L 273.90188 203.912675 
L 275.354024 205.472386 
L 276.859952 206.601831 
L 278.581012 207.94641 
L 279.710458 209.344771 
L 280.033157 209.936386 
L 280.624771 210.850699 
L 282.184482 212.786892 
L 283.582843 214.507952 
L 284.712289 216.336578 
L 285.519036 218.272771 
L 286.003084 220.262747 
L 286.325783 221.661108 
L 286.433349 222.145157 
L 286.433349 222.145157 
L 286.756048 222.682988 
L 287.29388 223.543518 
L 288.261976 225.748627 
L 288.799807 228.115084 
L 289.230072 229.621012 
L 290.090602 231.718554 
L 290.843566 233.600964 
L 291.327614 236.128771 
L 291.273831 239.248193 
L 291.273831 241.453301 
L 291.435181 243.120578 
L 291.542747 245.648386 
L 291.273831 247.799711 
L 290.951133 249.897253 
L 290.628434 252.747759 
L 290.413301 255.114217 
L 290.736 257.480675 
L 291.327614 259.255518 
L 291.919229 260.815229 
L 292.61841 263.450602 
L 292.779759 266.301108 
L 292.725976 268.452434 
L 292.941108 271.195373 
L 293.263807 273.239133 
L 293.640289 275.76694 
L 294.016771 278.617446 
L 294.231904 280.392289 
L 294.554602 283.242795 
L 294.823518 285.39412 
L 295.038651 287.868145 
L 295.146217 290.073253 
L 295.307566 292.923759 
L 295.415133 295.075084 
L 295.468916 296.849928 
L 295.522699 299.001253 
L 295.630265 301.52906 
L 295.684048 303.680386 
L 295.684048 305.831711 
L 295.737831 308.359518 
L 295.845398 310.833542 
L 295.899181 313.361349 
L 296.006747 315.512675 
L 296.06053 317.986699 
L 296.168096 319.761542 
L 296.275663 322.612048 
L 296.383229 325.139855 
L 296.490795 327.291181 
L 296.544578 329.442506 
L 296.544578 331.647614 
L 296.544578 333.79894 
L 296.544578 336.649446 
L 296.544578 338.424289 
L 296.544578 341.328578 
" style="fill:none;stroke:#ff6f39;stroke-linecap:square;stroke-width:1.5;"/>
   </g>
   <g id="line2d_106">
    <path clip-path="url(#p861d65b5d8)" d="M 332.041446 179.118651 
L 332.095229 179.118651 
L 332.202795 179.172434 
L 332.417928 179.28 
L 332.79441 179.548916 
L 333.332241 180.30188 
L 333.977639 181.700241 
L 334.35412 183.582651 
L 334.300337 185.680193 
L 333.708723 188.208 
L 332.579277 190.520675 
L 330.965783 192.564434 
L 329.406072 194.231711 
L 328.16906 195.791422 
L 327.093398 197.835181 
L 325.963952 199.932723 
L 324.511807 201.707566 
L 323.221012 203.213494 
L 321.984 205.311036 
L 321.015904 207.354795 
L 319.994024 209.237205 
L 318.488096 211.227181 
L 317.143518 213.055807 
L 316.229205 215.260916 
L 315.79894 217.466024 
L 315.261108 219.940048 
L 314.185446 222.467855 
L 313.271133 224.78053 
L 312.894651 227.146988 
L 312.948434 229.621012 
L 312.894651 232.202602 
L 312.410602 234.622843 
L 311.980337 237.043084 
L 312.03412 239.463325 
L 312.571952 241.991133 
L 313.109783 244.35759 
L 313.217349 246.562699 
L 312.894651 248.714024 
L 312.518169 250.704 
L 312.249253 252.801542 
L 312.19547 255.275566 
L 312.03412 257.803373 
L 311.872771 260.008482 
L 311.388723 262.321157 
L 310.420627 264.526265 
L 308.807133 266.83894 
L 307.354988 268.936482 
L 306.333108 270.765108 
L 305.526361 272.755084 
L 304.98853 274.852627 
L 304.343133 277.326651 
L 303.428819 279.424193 
L 302.084241 281.414169 
L 300.847229 283.296578 
L 300.148048 284.910072 
L 299.717783 286.900048 
L 299.664 289.320289 
L 299.771566 291.632964 
L 299.717783 294.160771 
L 299.448867 296.581012 
L 299.395084 299.001253 
L 299.717783 301.421494 
L 299.932916 303.949301 
L 299.717783 306.530892 
L 299.502651 308.628434 
L 299.717783 311.048675 
L 300.309398 313.092434 
L 300.901012 315.351325 
L 301.223711 318.094265 
L 301.062361 320.514506 
L 300.793446 323.14988 
L 300.739663 325.623904 
L 300.739663 328.151711 
L 300.739663 330.303036 
L 300.68588 332.77706 
L 300.632096 335.304867 
L 300.632096 337.832675 
L 300.578313 340.306699 
L 300.52453 342.834506 
L 300.470747 345.362313 
L 300.470747 347.836337 
L 300.416964 350.364145 
L 300.363181 352.891952 
L 300.309398 355.043277 
L 300.309398 357.194602 
L 300.255614 359.668627 
L 300.201831 362.196434 
L 300.201831 364.724241 
L 300.148048 367.198265 
L 300.094265 369.726072 
L 300.040482 372.25388 
L 300.040482 374.405205 
L 299.986699 376.879229 
L 299.932916 379.030554 
L 299.932916 381.558361 
L 299.879133 383.709687 
L 299.825349 385.861012 
L 299.825349 388.388819 
L 299.771566 390.862843 
L 299.717783 393.390651 
L 299.664 395.918458 
L 299.664 398.392482 
L 299.610217 400.543807 
L 299.556434 403.071614 
L 299.502651 405.545639 
L 299.502651 407.696964 
L 299.448867 410.224771 
L 299.395084 412.376096 
L 299.395084 414.527422 
L 299.341301 417.055229 
L 299.287518 419.206554 
L 299.287518 421.680578 
L 299.233735 424.208386 
L 299.179952 426.736193 
L 299.126169 428.887518 
L 299.126169 431.361542 
L 299.072386 433.889349 
L 299.018602 436.417157 
L 298.964819 439.267663 
L 298.964819 441.418988 
L 298.911036 443.570313 
L 298.857253 445.721639 
L 298.857253 448.249446 
" style="fill:none;stroke:#ff0000;stroke-linecap:square;stroke-width:1.5;"/>
   </g>
   <g id="patch_3">
    <path d="M 72 512.64 
L 72 69.12 
" style="fill:none;stroke:#000000;stroke-linecap:square;stroke-linejoin:miter;stroke-width:0.8;"/>
   </g>
   <g id="patch_4">
    <path d="M 518.4 512.64 
L 518.4 69.12 
" style="fill:none;stroke:#000000;stroke-linecap:square;stroke-linejoin:miter;stroke-width:0.8;"/>
   </g>
   <g id="patch_5">
    <path d="M 72 512.64 
L 518.4 512.64 
" style="fill:none;stroke:#000000;stroke-linecap:square;stroke-linejoin:miter;stroke-width:0.8;"/>
   </g>
   <g id="patch_6">
    <path d="M 72 69.12 
L 518.4 69.12 
" style="fill:none;stroke:#000000;stroke-linecap:square;stroke-linejoin:miter;stroke-width:0.8;"/>
   </g>
   <g id="text_18">
    <!-- 1 -->
    <defs>
     <path d="M 14.203125 0 
L 14.203125 5.171875 
L 26.90625 5.171875 
L 26.90625 65.828125 
L 12.203125 56.296875 
L 12.203125 62.703125 
L 29.984375 74.21875 
L 36.71875 74.21875 
L 36.71875 5.171875 
L 49.421875 5.171875 
L 49.421875 0 
z
" id="DejaVuSerif-31"/>
    </defs>
    <g transform="translate(251.182392 383.638588)scale(0.1 -0.1)">
     <use xlink:href="#DejaVuSerif-31"/>
    </g>
   </g>
   <g id="text_19">
    <!-- 1 -->
    <g transform="translate(443.882364 172.366625)scale(0.1 -0.1)">
     <use xlink:href="#DejaVuSerif-31"/>
    </g>
   </g>
   <g id="text_20">
    <!-- 2 -->
    <defs>
     <path d="M 12.796875 55.515625 
L 7.328125 55.515625 
L 7.328125 68.5 
Q 12.546875 71.296875 17.84375 72.75 
Q 23.140625 74.21875 28.21875 74.21875 
Q 39.59375 74.21875 46.1875 68.703125 
Q 52.78125 63.1875 52.78125 53.71875 
Q 52.78125 43.015625 37.84375 28.125 
Q 36.671875 27 36.078125 26.421875 
L 17.671875 8.015625 
L 48.09375 8.015625 
L 48.09375 17 
L 53.8125 17 
L 53.8125 0 
L 6.78125 0 
L 6.78125 5.328125 
L 28.90625 27.390625 
Q 36.234375 34.71875 39.359375 40.84375 
Q 42.484375 46.96875 42.484375 53.71875 
Q 42.484375 61.078125 38.640625 65.234375 
Q 34.8125 69.390625 28.078125 69.390625 
Q 21.09375 69.390625 17.28125 65.921875 
Q 13.484375 62.453125 12.796875 55.515625 
z
" id="DejaVuSerif-32"/>
    </defs>
    <g transform="translate(299.926709 280.40216)scale(0.1 -0.1)">
     <use xlink:href="#DejaVuSerif-32"/>
    </g>
   </g>
   <g id="text_21">
    <!-- 2 -->
    <g transform="translate(407.22796 450.664609)scale(0.1 -0.1)">
     <use xlink:href="#DejaVuSerif-32"/>
    </g>
   </g>
   <g id="text_22">
    <!-- 3 -->
    <defs>
     <path d="M 9.71875 69.828125 
Q 15.4375 71.96875 20.671875 73.09375 
Q 25.921875 74.21875 30.515625 74.21875 
Q 41.21875 74.21875 47.21875 69.59375 
Q 53.21875 64.984375 53.21875 56.78125 
Q 53.21875 50.203125 49.0625 45.78125 
Q 44.921875 41.359375 37.3125 39.796875 
Q 46.296875 38.53125 51.25 33.28125 
Q 56.203125 28.03125 56.203125 19.671875 
Q 56.203125 9.46875 49.34375 4.015625 
Q 42.484375 -1.421875 29.59375 -1.421875 
Q 23.875 -1.421875 18.421875 -0.1875 
Q 12.984375 1.03125 7.625 3.515625 
L 7.625 17.671875 
L 13.09375 17.671875 
Q 13.578125 10.640625 17.828125 7.03125 
Q 22.078125 3.421875 29.78125 3.421875 
Q 37.25 3.421875 41.578125 7.734375 
Q 45.90625 12.0625 45.90625 19.578125 
Q 45.90625 28.171875 41.453125 32.59375 
Q 37.015625 37.015625 28.421875 37.015625 
L 23.78125 37.015625 
L 23.78125 42 
L 26.21875 42 
Q 34.765625 42 39.03125 45.53125 
Q 43.3125 49.078125 43.3125 56.203125 
Q 43.3125 62.59375 39.796875 65.984375 
Q 36.28125 69.390625 29.6875 69.390625 
Q 23.09375 69.390625 19.453125 66.265625 
Q 15.828125 63.140625 15.1875 56.984375 
L 9.71875 56.984375 
z
" id="DejaVuSerif-33"/>
    </defs>
    <g transform="translate(393.616257 346.73242)scale(0.1 -0.1)">
     <use xlink:href="#DejaVuSerif-33"/>
    </g>
   </g>
   <g id="text_23">
    <!-- 3 -->
    <g transform="translate(372.220086 159.024462)scale(0.1 -0.1)">
     <use xlink:href="#DejaVuSerif-33"/>
    </g>
   </g>
   <g id="text_24">
    <!-- 4 -->
    <defs>
     <path d="M 34.90625 24.703125 
L 34.90625 63.484375 
L 10.015625 24.703125 
z
M 56.390625 0 
L 23.1875 0 
L 23.1875 5.171875 
L 34.90625 5.171875 
L 34.90625 19.484375 
L 3.078125 19.484375 
L 3.078125 24.8125 
L 35.015625 74.21875 
L 44.671875 74.21875 
L 44.671875 24.703125 
L 58.59375 24.703125 
L 58.59375 19.484375 
L 44.671875 19.484375 
L 44.671875 5.171875 
L 56.390625 5.171875 
z
" id="DejaVuSerif-34"/>
    </defs>
    <g transform="translate(123.471502 336.512981)scale(0.1 -0.1)">
     <use xlink:href="#DejaVuSerif-34"/>
    </g>
   </g>
   <g id="text_25">
    <!-- 4 -->
    <g transform="translate(363.691273 280.103665)scale(0.1 -0.1)">
     <use xlink:href="#DejaVuSerif-34"/>
    </g>
   </g>
   <g id="text_26">
    <!-- 5 -->
    <defs>
     <path d="M 50.296875 72.90625 
L 50.296875 64.890625 
L 16.890625 64.890625 
L 16.890625 44 
Q 19.4375 45.75 22.828125 46.625 
Q 26.21875 47.515625 30.421875 47.515625 
Q 42.234375 47.515625 49.0625 40.96875 
Q 55.90625 34.421875 55.90625 23.09375 
Q 55.90625 11.53125 49 5.046875 
Q 42.09375 -1.421875 29.59375 -1.421875 
Q 24.5625 -1.421875 19.28125 -0.1875 
Q 14.015625 1.03125 8.5 3.515625 
L 8.5 17.671875 
L 14.015625 17.671875 
Q 14.453125 10.75 18.421875 7.078125 
Q 22.40625 3.421875 29.59375 3.421875 
Q 37.3125 3.421875 41.453125 8.5 
Q 45.609375 13.578125 45.609375 23.09375 
Q 45.609375 32.5625 41.484375 37.609375 
Q 37.359375 42.671875 29.59375 42.671875 
Q 25.203125 42.671875 21.84375 41.109375 
Q 18.5 39.546875 15.921875 36.28125 
L 11.71875 36.28125 
L 11.71875 72.90625 
z
" id="DejaVuSerif-35"/>
    </defs>
    <g transform="translate(152.979377 139.7289)scale(0.1 -0.1)">
     <use xlink:href="#DejaVuSerif-35"/>
    </g>
   </g>
   <g id="text_27">
    <!-- 5 -->
    <g transform="translate(403.528036 262.98313)scale(0.1 -0.1)">
     <use xlink:href="#DejaVuSerif-35"/>
    </g>
   </g>
   <g id="text_28">
    <!-- 6 -->
    <defs>
     <path d="M 32.71875 3.421875 
Q 39.59375 3.421875 43.296875 8.46875 
Q 47.015625 13.53125 47.015625 23 
Q 47.015625 32.46875 43.296875 37.515625 
Q 39.59375 42.578125 32.71875 42.578125 
Q 25.734375 42.578125 22.0625 37.6875 
Q 18.40625 32.8125 18.40625 23.578125 
Q 18.40625 13.875 22.109375 8.640625 
Q 25.828125 3.421875 32.71875 3.421875 
z
M 16.796875 40.140625 
Q 20.125 43.796875 24.3125 45.59375 
Q 28.515625 47.40625 33.796875 47.40625 
Q 44.671875 47.40625 51 40.859375 
Q 57.328125 34.328125 57.328125 23 
Q 57.328125 11.921875 50.515625 5.25 
Q 43.703125 -1.421875 32.328125 -1.421875 
Q 19.96875 -1.421875 13.328125 7.78125 
Q 6.6875 17 6.6875 34.078125 
Q 6.6875 53.21875 14.546875 63.71875 
Q 22.40625 74.21875 36.71875 74.21875 
Q 40.578125 74.21875 44.828125 73.484375 
Q 49.078125 72.75 53.515625 71.296875 
L 53.515625 59.28125 
L 48 59.28125 
Q 47.40625 64.203125 44.234375 66.796875 
Q 41.0625 69.390625 35.6875 69.390625 
Q 26.21875 69.390625 21.578125 62.203125 
Q 16.9375 55.03125 16.796875 40.140625 
z
" id="DejaVuSerif-36"/>
    </defs>
    <g transform="translate(182.190714 398.167296)scale(0.1 -0.1)">
     <use xlink:href="#DejaVuSerif-36"/>
    </g>
   </g>
   <g id="text_29">
    <!-- 6 -->
    <g transform="translate(389.100485 204.37397)scale(0.1 -0.1)">
     <use xlink:href="#DejaVuSerif-36"/>
    </g>
   </g>
   <g id="text_30">
    <!-- 7 -->
    <defs>
     <path d="M 56.390625 67.921875 
L 27.875 0 
L 20.609375 0 
L 47.796875 64.890625 
L 14.109375 64.890625 
L 14.109375 55.90625 
L 8.40625 55.90625 
L 8.40625 72.90625 
L 56.390625 72.90625 
z
" id="DejaVuSerif-37"/>
    </defs>
    <g transform="translate(250.931973 148.788648)scale(0.1 -0.1)">
     <use xlink:href="#DejaVuSerif-37"/>
    </g>
   </g>
   <g id="text_31">
    <!-- 7 -->
    <g transform="translate(293.329001 342.240791)scale(0.1 -0.1)">
     <use xlink:href="#DejaVuSerif-37"/>
    </g>
   </g>
   <g id="text_32">
    <!-- 8 -->
    <defs>
     <path d="M 46.578125 19.921875 
Q 46.578125 27.734375 42.6875 32.046875 
Q 38.8125 36.375 31.78125 36.375 
Q 24.75 36.375 20.875 32.046875 
Q 17 27.734375 17 19.921875 
Q 17 12.0625 20.875 7.734375 
Q 24.75 3.421875 31.78125 3.421875 
Q 38.8125 3.421875 42.6875 7.734375 
Q 46.578125 12.0625 46.578125 19.921875 
z
M 44.578125 55.328125 
Q 44.578125 61.96875 41.203125 65.671875 
Q 37.84375 69.390625 31.78125 69.390625 
Q 25.78125 69.390625 22.390625 65.671875 
Q 19 61.96875 19 55.328125 
Q 19 48.640625 22.390625 44.921875 
Q 25.78125 41.21875 31.78125 41.21875 
Q 37.84375 41.21875 41.203125 44.921875 
Q 44.578125 48.640625 44.578125 55.328125 
z
M 39.3125 38.8125 
Q 47.609375 37.703125 52.25 32.6875 
Q 56.890625 27.6875 56.890625 19.921875 
Q 56.890625 9.671875 50.390625 4.125 
Q 43.890625 -1.421875 31.78125 -1.421875 
Q 19.734375 -1.421875 13.203125 4.125 
Q 6.6875 9.671875 6.6875 19.921875 
Q 6.6875 27.6875 11.328125 32.6875 
Q 15.96875 37.703125 24.3125 38.8125 
Q 16.9375 40.140625 13 44.40625 
Q 9.078125 48.6875 9.078125 55.328125 
Q 9.078125 64.109375 15.125 69.15625 
Q 21.1875 74.21875 31.78125 74.21875 
Q 42.390625 74.21875 48.4375 69.15625 
Q 54.5 64.109375 54.5 55.328125 
Q 54.5 48.6875 50.5625 44.40625 
Q 46.625 40.140625 39.3125 38.8125 
z
" id="DejaVuSerif-38"/>
    </defs>
    <g transform="translate(328.871714 179.120594)scale(0.1 -0.1)">
     <use xlink:href="#DejaVuSerif-38"/>
    </g>
   </g>
   <g id="text_33">
    <!-- 8 -->
    <g transform="translate(295.629554 450.339353)scale(0.1 -0.1)">
     <use xlink:href="#DejaVuSerif-38"/>
    </g>
   </g>
  </g>
 </g>
 <defs>
  <clipPath id="p861d65b5d8">
   <rect height="443.52" width="446.4" x="72" y="69.12"/>
  </clipPath>
 </defs>
</svg>
