<?xml version="1.0" encoding="utf-8" standalone="no"?>
<!DOCTYPE svg PUBLIC "-//W3C//DTD SVG 1.1//EN"
  "http://www.w3.org/Graphics/SVG/1.1/DTD/svg11.dtd">
<!-- Created with matplotlib (http://matplotlib.org/) -->
<svg height="576pt" version="1.1" viewBox="0 0 576 576" width="576pt" xmlns="http://www.w3.org/2000/svg" xmlns:xlink="http://www.w3.org/1999/xlink">
 <defs>
  <style type="text/css">
*{stroke-linecap:butt;stroke-linejoin:round;}
  </style>
 </defs>
 <g id="figure_1">
  <g id="patch_1">
   <path d="M 0 576 
L 576 576 
L 576 0 
L 0 0 
z
" style="fill:#ffffff;"/>
  </g>
  <g id="axes_1">
   <g id="patch_2">
    <path d="M 72 512.64 
L 518.4 512.64 
L 518.4 69.12 
L 72 69.12 
z
" style="fill:#ffffff;"/>
   </g>
   <g id="matplotlib.axis_1">
    <g id="xtick_1">
     <g id="line2d_1">
      <defs>
       <path d="M 0 0 
L 0 3.5 
" id="m6b414072fa" style="stroke:#000000;stroke-width:0.8;"/>
      </defs>
      <g>
       <use style="stroke:#000000;stroke-width:0.8;" x="72" xlink:href="#m6b414072fa" y="512.64"/>
      </g>
     </g>
     <g id="text_1">
      <!-- −1 -->
      <defs>
       <path d="M 10.59375 35.5 
L 73.1875 35.5 
L 73.1875 27.203125 
L 10.59375 27.203125 
z
" id="DejaVuSans-2212"/>
       <path d="M 12.40625 8.296875 
L 28.515625 8.296875 
L 28.515625 63.921875 
L 10.984375 60.40625 
L 10.984375 69.390625 
L 28.421875 72.90625 
L 38.28125 72.90625 
L 38.28125 8.296875 
L 54.390625 8.296875 
L 54.390625 0 
L 12.40625 0 
z
" id="DejaVuSans-31"/>
      </defs>
      <g transform="translate(64.628906 527.238438)scale(0.1 -0.1)">
       <use xlink:href="#DejaVuSans-2212"/>
       <use x="83.789062" xlink:href="#DejaVuSans-31"/>
      </g>
     </g>
    </g>
    <g id="xtick_2">
     <g id="line2d_2">
      <g>
       <use style="stroke:#000000;stroke-width:0.8;" x="125.783133" xlink:href="#m6b414072fa" y="512.64"/>
      </g>
     </g>
     <g id="text_2">
      <!-- 0 -->
      <defs>
       <path d="M 31.78125 66.40625 
Q 24.171875 66.40625 20.328125 58.90625 
Q 16.5 51.421875 16.5 36.375 
Q 16.5 21.390625 20.328125 13.890625 
Q 24.171875 6.390625 31.78125 6.390625 
Q 39.453125 6.390625 43.28125 13.890625 
Q 47.125 21.390625 47.125 36.375 
Q 47.125 51.421875 43.28125 58.90625 
Q 39.453125 66.40625 31.78125 66.40625 
z
M 31.78125 74.21875 
Q 44.046875 74.21875 50.515625 64.515625 
Q 56.984375 54.828125 56.984375 36.375 
Q 56.984375 17.96875 50.515625 8.265625 
Q 44.046875 -1.421875 31.78125 -1.421875 
Q 19.53125 -1.421875 13.0625 8.265625 
Q 6.59375 17.96875 6.59375 36.375 
Q 6.59375 54.828125 13.0625 64.515625 
Q 19.53125 74.21875 31.78125 74.21875 
z
" id="DejaVuSans-30"/>
      </defs>
      <g transform="translate(122.601883 527.238438)scale(0.1 -0.1)">
       <use xlink:href="#DejaVuSans-30"/>
      </g>
     </g>
    </g>
    <g id="xtick_3">
     <g id="line2d_3">
      <g>
       <use style="stroke:#000000;stroke-width:0.8;" x="179.566265" xlink:href="#m6b414072fa" y="512.64"/>
      </g>
     </g>
     <g id="text_3">
      <!-- 1 -->
      <g transform="translate(176.385015 527.238438)scale(0.1 -0.1)">
       <use xlink:href="#DejaVuSans-31"/>
      </g>
     </g>
    </g>
    <g id="xtick_4">
     <g id="line2d_4">
      <g>
       <use style="stroke:#000000;stroke-width:0.8;" x="233.349398" xlink:href="#m6b414072fa" y="512.64"/>
      </g>
     </g>
     <g id="text_4">
      <!-- 2 -->
      <defs>
       <path d="M 19.1875 8.296875 
L 53.609375 8.296875 
L 53.609375 0 
L 7.328125 0 
L 7.328125 8.296875 
Q 12.9375 14.109375 22.625 23.890625 
Q 32.328125 33.6875 34.8125 36.53125 
Q 39.546875 41.84375 41.421875 45.53125 
Q 43.3125 49.21875 43.3125 52.78125 
Q 43.3125 58.59375 39.234375 62.25 
Q 35.15625 65.921875 28.609375 65.921875 
Q 23.96875 65.921875 18.8125 64.3125 
Q 13.671875 62.703125 7.8125 59.421875 
L 7.8125 69.390625 
Q 13.765625 71.78125 18.9375 73 
Q 24.125 74.21875 28.421875 74.21875 
Q 39.75 74.21875 46.484375 68.546875 
Q 53.21875 62.890625 53.21875 53.421875 
Q 53.21875 48.921875 51.53125 44.890625 
Q 49.859375 40.875 45.40625 35.40625 
Q 44.1875 33.984375 37.640625 27.21875 
Q 31.109375 20.453125 19.1875 8.296875 
z
" id="DejaVuSans-32"/>
      </defs>
      <g transform="translate(230.168148 527.238438)scale(0.1 -0.1)">
       <use xlink:href="#DejaVuSans-32"/>
      </g>
     </g>
    </g>
    <g id="xtick_5">
     <g id="line2d_5">
      <g>
       <use style="stroke:#000000;stroke-width:0.8;" x="287.13253" xlink:href="#m6b414072fa" y="512.64"/>
      </g>
     </g>
     <g id="text_5">
      <!-- 3 -->
      <defs>
       <path d="M 40.578125 39.3125 
Q 47.65625 37.796875 51.625 33 
Q 55.609375 28.21875 55.609375 21.1875 
Q 55.609375 10.40625 48.1875 4.484375 
Q 40.765625 -1.421875 27.09375 -1.421875 
Q 22.515625 -1.421875 17.65625 -0.515625 
Q 12.796875 0.390625 7.625 2.203125 
L 7.625 11.71875 
Q 11.71875 9.328125 16.59375 8.109375 
Q 21.484375 6.890625 26.8125 6.890625 
Q 36.078125 6.890625 40.9375 10.546875 
Q 45.796875 14.203125 45.796875 21.1875 
Q 45.796875 27.640625 41.28125 31.265625 
Q 36.765625 34.90625 28.71875 34.90625 
L 20.21875 34.90625 
L 20.21875 43.015625 
L 29.109375 43.015625 
Q 36.375 43.015625 40.234375 45.921875 
Q 44.09375 48.828125 44.09375 54.296875 
Q 44.09375 59.90625 40.109375 62.90625 
Q 36.140625 65.921875 28.71875 65.921875 
Q 24.65625 65.921875 20.015625 65.03125 
Q 15.375 64.15625 9.8125 62.3125 
L 9.8125 71.09375 
Q 15.4375 72.65625 20.34375 73.4375 
Q 25.25 74.21875 29.59375 74.21875 
Q 40.828125 74.21875 47.359375 69.109375 
Q 53.90625 64.015625 53.90625 55.328125 
Q 53.90625 49.265625 50.4375 45.09375 
Q 46.96875 40.921875 40.578125 39.3125 
z
" id="DejaVuSans-33"/>
      </defs>
      <g transform="translate(283.95128 527.238438)scale(0.1 -0.1)">
       <use xlink:href="#DejaVuSans-33"/>
      </g>
     </g>
    </g>
    <g id="xtick_6">
     <g id="line2d_6">
      <g>
       <use style="stroke:#000000;stroke-width:0.8;" x="340.915663" xlink:href="#m6b414072fa" y="512.64"/>
      </g>
     </g>
     <g id="text_6">
      <!-- 4 -->
      <defs>
       <path d="M 37.796875 64.3125 
L 12.890625 25.390625 
L 37.796875 25.390625 
z
M 35.203125 72.90625 
L 47.609375 72.90625 
L 47.609375 25.390625 
L 58.015625 25.390625 
L 58.015625 17.1875 
L 47.609375 17.1875 
L 47.609375 0 
L 37.796875 0 
L 37.796875 17.1875 
L 4.890625 17.1875 
L 4.890625 26.703125 
z
" id="DejaVuSans-34"/>
      </defs>
      <g transform="translate(337.734413 527.238438)scale(0.1 -0.1)">
       <use xlink:href="#DejaVuSans-34"/>
      </g>
     </g>
    </g>
    <g id="xtick_7">
     <g id="line2d_7">
      <g>
       <use style="stroke:#000000;stroke-width:0.8;" x="394.698795" xlink:href="#m6b414072fa" y="512.64"/>
      </g>
     </g>
     <g id="text_7">
      <!-- 5 -->
      <defs>
       <path d="M 10.796875 72.90625 
L 49.515625 72.90625 
L 49.515625 64.59375 
L 19.828125 64.59375 
L 19.828125 46.734375 
Q 21.96875 47.46875 24.109375 47.828125 
Q 26.265625 48.1875 28.421875 48.1875 
Q 40.625 48.1875 47.75 41.5 
Q 54.890625 34.8125 54.890625 23.390625 
Q 54.890625 11.625 47.5625 5.09375 
Q 40.234375 -1.421875 26.90625 -1.421875 
Q 22.3125 -1.421875 17.546875 -0.640625 
Q 12.796875 0.140625 7.71875 1.703125 
L 7.71875 11.625 
Q 12.109375 9.234375 16.796875 8.0625 
Q 21.484375 6.890625 26.703125 6.890625 
Q 35.15625 6.890625 40.078125 11.328125 
Q 45.015625 15.765625 45.015625 23.390625 
Q 45.015625 31 40.078125 35.4375 
Q 35.15625 39.890625 26.703125 39.890625 
Q 22.75 39.890625 18.8125 39.015625 
Q 14.890625 38.140625 10.796875 36.28125 
z
" id="DejaVuSans-35"/>
      </defs>
      <g transform="translate(391.517545 527.238438)scale(0.1 -0.1)">
       <use xlink:href="#DejaVuSans-35"/>
      </g>
     </g>
    </g>
    <g id="xtick_8">
     <g id="line2d_8">
      <g>
       <use style="stroke:#000000;stroke-width:0.8;" x="448.481928" xlink:href="#m6b414072fa" y="512.64"/>
      </g>
     </g>
     <g id="text_8">
      <!-- 6 -->
      <defs>
       <path d="M 33.015625 40.375 
Q 26.375 40.375 22.484375 35.828125 
Q 18.609375 31.296875 18.609375 23.390625 
Q 18.609375 15.53125 22.484375 10.953125 
Q 26.375 6.390625 33.015625 6.390625 
Q 39.65625 6.390625 43.53125 10.953125 
Q 47.40625 15.53125 47.40625 23.390625 
Q 47.40625 31.296875 43.53125 35.828125 
Q 39.65625 40.375 33.015625 40.375 
z
M 52.59375 71.296875 
L 52.59375 62.3125 
Q 48.875 64.0625 45.09375 64.984375 
Q 41.3125 65.921875 37.59375 65.921875 
Q 27.828125 65.921875 22.671875 59.328125 
Q 17.53125 52.734375 16.796875 39.40625 
Q 19.671875 43.65625 24.015625 45.921875 
Q 28.375 48.1875 33.59375 48.1875 
Q 44.578125 48.1875 50.953125 41.515625 
Q 57.328125 34.859375 57.328125 23.390625 
Q 57.328125 12.15625 50.6875 5.359375 
Q 44.046875 -1.421875 33.015625 -1.421875 
Q 20.359375 -1.421875 13.671875 8.265625 
Q 6.984375 17.96875 6.984375 36.375 
Q 6.984375 53.65625 15.1875 63.9375 
Q 23.390625 74.21875 37.203125 74.21875 
Q 40.921875 74.21875 44.703125 73.484375 
Q 48.484375 72.75 52.59375 71.296875 
z
" id="DejaVuSans-36"/>
      </defs>
      <g transform="translate(445.300678 527.238438)scale(0.1 -0.1)">
       <use xlink:href="#DejaVuSans-36"/>
      </g>
     </g>
    </g>
    <g id="xtick_9">
     <g id="line2d_9">
      <g>
       <use style="stroke:#000000;stroke-width:0.8;" x="502.26506" xlink:href="#m6b414072fa" y="512.64"/>
      </g>
     </g>
     <g id="text_9">
      <!-- 7 -->
      <defs>
       <path d="M 8.203125 72.90625 
L 55.078125 72.90625 
L 55.078125 68.703125 
L 28.609375 0 
L 18.3125 0 
L 43.21875 64.59375 
L 8.203125 64.59375 
z
" id="DejaVuSans-37"/>
      </defs>
      <g transform="translate(499.08381 527.238438)scale(0.1 -0.1)">
       <use xlink:href="#DejaVuSans-37"/>
      </g>
     </g>
    </g>
   </g>
   <g id="matplotlib.axis_2">
    <g id="ytick_1">
     <g id="line2d_10">
      <defs>
       <path d="M 0 0 
L -3.5 0 
" id="m83280c3083" style="stroke:#000000;stroke-width:0.8;"/>
      </defs>
      <g>
       <use style="stroke:#000000;stroke-width:0.8;" x="72" xlink:href="#m83280c3083" y="460.296867"/>
      </g>
     </g>
     <g id="text_10">
      <!-- 0 -->
      <g transform="translate(58.6375 464.096086)scale(0.1 -0.1)">
       <use xlink:href="#DejaVuSans-30"/>
      </g>
     </g>
    </g>
    <g id="ytick_2">
     <g id="line2d_11">
      <g>
       <use style="stroke:#000000;stroke-width:0.8;" x="72" xlink:href="#m83280c3083" y="406.513735"/>
      </g>
     </g>
     <g id="text_11">
      <!-- 1 -->
      <g transform="translate(58.6375 410.312954)scale(0.1 -0.1)">
       <use xlink:href="#DejaVuSans-31"/>
      </g>
     </g>
    </g>
    <g id="ytick_3">
     <g id="line2d_12">
      <g>
       <use style="stroke:#000000;stroke-width:0.8;" x="72" xlink:href="#m83280c3083" y="352.730602"/>
      </g>
     </g>
     <g id="text_12">
      <!-- 2 -->
      <g transform="translate(58.6375 356.529821)scale(0.1 -0.1)">
       <use xlink:href="#DejaVuSans-32"/>
      </g>
     </g>
    </g>
    <g id="ytick_4">
     <g id="line2d_13">
      <g>
       <use style="stroke:#000000;stroke-width:0.8;" x="72" xlink:href="#m83280c3083" y="298.94747"/>
      </g>
     </g>
     <g id="text_13">
      <!-- 3 -->
      <g transform="translate(58.6375 302.746689)scale(0.1 -0.1)">
       <use xlink:href="#DejaVuSans-33"/>
      </g>
     </g>
    </g>
    <g id="ytick_5">
     <g id="line2d_14">
      <g>
       <use style="stroke:#000000;stroke-width:0.8;" x="72" xlink:href="#m83280c3083" y="245.164337"/>
      </g>
     </g>
     <g id="text_14">
      <!-- 4 -->
      <g transform="translate(58.6375 248.963556)scale(0.1 -0.1)">
       <use xlink:href="#DejaVuSans-34"/>
      </g>
     </g>
    </g>
    <g id="ytick_6">
     <g id="line2d_15">
      <g>
       <use style="stroke:#000000;stroke-width:0.8;" x="72" xlink:href="#m83280c3083" y="191.381205"/>
      </g>
     </g>
     <g id="text_15">
      <!-- 5 -->
      <g transform="translate(58.6375 195.180424)scale(0.1 -0.1)">
       <use xlink:href="#DejaVuSans-35"/>
      </g>
     </g>
    </g>
    <g id="ytick_7">
     <g id="line2d_16">
      <g>
       <use style="stroke:#000000;stroke-width:0.8;" x="72" xlink:href="#m83280c3083" y="137.598072"/>
      </g>
     </g>
     <g id="text_16">
      <!-- 6 -->
      <g transform="translate(58.6375 141.397291)scale(0.1 -0.1)">
       <use xlink:href="#DejaVuSans-36"/>
      </g>
     </g>
    </g>
    <g id="ytick_8">
     <g id="line2d_17">
      <g>
       <use style="stroke:#000000;stroke-width:0.8;" x="72" xlink:href="#m83280c3083" y="83.81494"/>
      </g>
     </g>
     <g id="text_17">
      <!-- 7 -->
      <g transform="translate(58.6375 87.614159)scale(0.1 -0.1)">
       <use xlink:href="#DejaVuSans-37"/>
      </g>
     </g>
    </g>
   </g>
   <g id="line2d_18">
    <path clip-path="url(#p2ee206b8b1)" d="M 129.060719 442.779241 
" style="fill:none;stroke:#1f77b4;stroke-linecap:square;stroke-width:1.5;"/>
    <defs>
     <path d="M -5 5 
L 5 5 
L 5 -5 
L -5 -5 
z
" id="ma5c1ab1426" style="stroke:#8000ff;stroke-linejoin:miter;"/>
    </defs>
    <g clip-path="url(#p2ee206b8b1)">
     <use style="fill:#8000ff;stroke:#8000ff;stroke-linejoin:miter;" x="129.060719" xlink:href="#ma5c1ab1426" y="442.779241"/>
    </g>
   </g>
   <g id="line2d_19">
    <path clip-path="url(#p2ee206b8b1)" d="M 142.859114 164.772056 
" style="fill:none;stroke:#ff7f0e;stroke-linecap:square;stroke-width:1.5;"/>
    <defs>
     <path d="M 0 -5 
L -4.755283 -1.545085 
L -2.938926 4.045085 
L 2.938926 4.045085 
L 4.755283 -1.545085 
z
" id="m597ab99403" style="stroke:#8000ff;stroke-linejoin:miter;"/>
    </defs>
    <g clip-path="url(#p2ee206b8b1)">
     <use style="fill:#8000ff;stroke:#8000ff;stroke-linejoin:miter;" x="142.859114" xlink:href="#m597ab99403" y="164.772056"/>
    </g>
   </g>
   <g id="line2d_20">
    <path clip-path="url(#p2ee206b8b1)" d="M 192.732096 132.055727 
" style="fill:none;stroke:#2ca02c;stroke-linecap:square;stroke-width:1.5;"/>
    <defs>
     <path d="M -5 5 
L 5 5 
L 5 -5 
L -5 -5 
z
" id="m19b016b638" style="stroke:#376ff9;stroke-linejoin:miter;"/>
    </defs>
    <g clip-path="url(#p2ee206b8b1)">
     <use style="fill:#376ff9;stroke:#376ff9;stroke-linejoin:miter;" x="192.732096" xlink:href="#m19b016b638" y="132.055727"/>
    </g>
   </g>
   <g id="line2d_21">
    <path clip-path="url(#p2ee206b8b1)" d="M 396.130433 211.087209 
" style="fill:none;stroke:#d62728;stroke-linecap:square;stroke-width:1.5;"/>
    <defs>
     <path d="M 0 -5 
L -4.755283 -1.545085 
L -2.938926 4.045085 
L 2.938926 4.045085 
L 4.755283 -1.545085 
z
" id="m649f9a9b67" style="stroke:#376ff9;stroke-linejoin:miter;"/>
    </defs>
    <g clip-path="url(#p2ee206b8b1)">
     <use style="fill:#376ff9;stroke:#376ff9;stroke-linejoin:miter;" x="396.130433" xlink:href="#m649f9a9b67" y="211.087209"/>
    </g>
   </g>
   <g id="line2d_22">
    <path clip-path="url(#p2ee206b8b1)" d="M 126.007251 269.694595 
" style="fill:none;stroke:#9467bd;stroke-linecap:square;stroke-width:1.5;"/>
    <defs>
     <path d="M -5 5 
L 5 5 
L 5 -5 
L -5 -5 
z
" id="m647075e060" style="stroke:#12c7e6;stroke-linejoin:miter;"/>
    </defs>
    <g clip-path="url(#p2ee206b8b1)">
     <use style="fill:#12c7e6;stroke:#12c7e6;stroke-linejoin:miter;" x="126.007251" xlink:href="#m647075e060" y="269.694595"/>
    </g>
   </g>
   <g id="line2d_23">
    <path clip-path="url(#p2ee206b8b1)" d="M 395.910851 392.412119 
" style="fill:none;stroke:#8c564b;stroke-linecap:square;stroke-width:1.5;"/>
    <defs>
     <path d="M 0 -5 
L -4.755283 -1.545085 
L -2.938926 4.045085 
L 2.938926 4.045085 
L 4.755283 -1.545085 
z
" id="mb351210d99" style="stroke:#12c7e6;stroke-linejoin:miter;"/>
    </defs>
    <g clip-path="url(#p2ee206b8b1)">
     <use style="fill:#12c7e6;stroke:#12c7e6;stroke-linejoin:miter;" x="395.910851" xlink:href="#mb351210d99" y="392.412119"/>
    </g>
   </g>
   <g id="line2d_24">
    <path clip-path="url(#p2ee206b8b1)" d="M 181.630128 335.118503 
" style="fill:none;stroke:#e377c2;stroke-linecap:square;stroke-width:1.5;"/>
    <defs>
     <path d="M -5 5 
L 5 5 
L 5 -5 
L -5 -5 
z
" id="mc3fc2860a4" style="stroke:#5bf9c7;stroke-linejoin:miter;"/>
    </defs>
    <g clip-path="url(#p2ee206b8b1)">
     <use style="fill:#5bf9c7;stroke:#5bf9c7;stroke-linejoin:miter;" x="181.630128" xlink:href="#mc3fc2860a4" y="335.118503"/>
    </g>
   </g>
   <g id="line2d_25">
    <path clip-path="url(#p2ee206b8b1)" d="M 442.427477 401.05091 
" style="fill:none;stroke:#7f7f7f;stroke-linecap:square;stroke-width:1.5;"/>
    <defs>
     <path d="M 0 -5 
L -4.755283 -1.545085 
L -2.938926 4.045085 
L 2.938926 4.045085 
L 4.755283 -1.545085 
z
" id="m7c1db12119" style="stroke:#5bf9c7;stroke-linejoin:miter;"/>
    </defs>
    <g clip-path="url(#p2ee206b8b1)">
     <use style="fill:#5bf9c7;stroke:#5bf9c7;stroke-linejoin:miter;" x="442.427477" xlink:href="#m7c1db12119" y="401.05091"/>
    </g>
   </g>
   <g id="line2d_26">
    <path clip-path="url(#p2ee206b8b1)" d="M 279.842948 432.886338 
" style="fill:none;stroke:#bcbd22;stroke-linecap:square;stroke-width:1.5;"/>
    <defs>
     <path d="M -5 5 
L 5 5 
L 5 -5 
L -5 -5 
z
" id="m921a0a095d" style="stroke:#a4f99f;stroke-linejoin:miter;"/>
    </defs>
    <g clip-path="url(#p2ee206b8b1)">
     <use style="fill:#a4f99f;stroke:#a4f99f;stroke-linejoin:miter;" x="279.842948" xlink:href="#m921a0a095d" y="432.886338"/>
    </g>
   </g>
   <g id="line2d_27">
    <path clip-path="url(#p2ee206b8b1)" d="M 223.080965 173.055476 
" style="fill:none;stroke:#17becf;stroke-linecap:square;stroke-width:1.5;"/>
    <defs>
     <path d="M 0 -5 
L -4.755283 -1.545085 
L -2.938926 4.045085 
L 2.938926 4.045085 
L 4.755283 -1.545085 
z
" id="m6f08101f92" style="stroke:#a4f99f;stroke-linejoin:miter;"/>
    </defs>
    <g clip-path="url(#p2ee206b8b1)">
     <use style="fill:#a4f99f;stroke:#a4f99f;stroke-linejoin:miter;" x="223.080965" xlink:href="#m6f08101f92" y="173.055476"/>
    </g>
   </g>
   <g id="line2d_28">
    <path clip-path="url(#p2ee206b8b1)" d="M 437.684844 178.814645 
" style="fill:none;stroke:#1f77b4;stroke-linecap:square;stroke-width:1.5;"/>
    <defs>
     <path d="M -5 5 
L 5 5 
L 5 -5 
L -5 -5 
z
" id="m4bfac0fb80" style="stroke:#edc76f;stroke-linejoin:miter;"/>
    </defs>
    <g clip-path="url(#p2ee206b8b1)">
     <use style="fill:#edc76f;stroke:#edc76f;stroke-linejoin:miter;" x="437.684844" xlink:href="#m4bfac0fb80" y="178.814645"/>
    </g>
   </g>
   <g id="line2d_29">
    <path clip-path="url(#p2ee206b8b1)" d="M 231.785899 444.128679 
" style="fill:none;stroke:#ff7f0e;stroke-linecap:square;stroke-width:1.5;"/>
    <defs>
     <path d="M 0 -5 
L -4.755283 -1.545085 
L -2.938926 4.045085 
L 2.938926 4.045085 
L 4.755283 -1.545085 
z
" id="mca93c9bf0a" style="stroke:#edc76f;stroke-linejoin:miter;"/>
    </defs>
    <g clip-path="url(#p2ee206b8b1)">
     <use style="fill:#edc76f;stroke:#edc76f;stroke-linejoin:miter;" x="231.785899" xlink:href="#mca93c9bf0a" y="444.128679"/>
    </g>
   </g>
   <g id="line2d_30">
    <path clip-path="url(#p2ee206b8b1)" d="M 298.675855 300.471217 
" style="fill:none;stroke:#2ca02c;stroke-linecap:square;stroke-width:1.5;"/>
    <defs>
     <path d="M -5 5 
L 5 5 
L 5 -5 
L -5 -5 
z
" id="mebcf5b3add" style="stroke:#ff6f39;stroke-linejoin:miter;"/>
    </defs>
    <g clip-path="url(#p2ee206b8b1)">
     <use style="fill:#ff6f39;stroke:#ff6f39;stroke-linejoin:miter;" x="298.675855" xlink:href="#mebcf5b3add" y="300.471217"/>
    </g>
   </g>
   <g id="line2d_31">
    <path clip-path="url(#p2ee206b8b1)" d="M 428.655702 438.87994 
" style="fill:none;stroke:#d62728;stroke-linecap:square;stroke-width:1.5;"/>
    <defs>
     <path d="M 0 -5 
L -4.755283 -1.545085 
L -2.938926 4.045085 
L 2.938926 4.045085 
L 4.755283 -1.545085 
z
" id="m342b66e18f" style="stroke:#ff6f39;stroke-linejoin:miter;"/>
    </defs>
    <g clip-path="url(#p2ee206b8b1)">
     <use style="fill:#ff6f39;stroke:#ff6f39;stroke-linejoin:miter;" x="428.655702" xlink:href="#m342b66e18f" y="438.87994"/>
    </g>
   </g>
   <g id="line2d_32">
    <path clip-path="url(#p2ee206b8b1)" d="M 162.088455 403.715413 
" style="fill:none;stroke:#9467bd;stroke-linecap:square;stroke-width:1.5;"/>
    <defs>
     <path d="M -5 5 
L 5 5 
L 5 -5 
L -5 -5 
z
" id="m4df3b0fac7" style="stroke:#ff0000;stroke-linejoin:miter;"/>
    </defs>
    <g clip-path="url(#p2ee206b8b1)">
     <use style="fill:#ff0000;stroke:#ff0000;stroke-linejoin:miter;" x="162.088455" xlink:href="#m4df3b0fac7" y="403.715413"/>
    </g>
   </g>
   <g id="line2d_33">
    <path clip-path="url(#p2ee206b8b1)" d="M 283.817083 172.928161 
" style="fill:none;stroke:#8c564b;stroke-linecap:square;stroke-width:1.5;"/>
    <defs>
     <path d="M 0 -5 
L -4.755283 -1.545085 
L -2.938926 4.045085 
L 2.938926 4.045085 
L 4.755283 -1.545085 
z
" id="ma233ac0763" style="stroke:#ff0000;stroke-linejoin:miter;"/>
    </defs>
    <g clip-path="url(#p2ee206b8b1)">
     <use style="fill:#ff0000;stroke:#ff0000;stroke-linejoin:miter;" x="283.817083" xlink:href="#ma233ac0763" y="172.928161"/>
    </g>
   </g>
   <g id="line2d_34">
    <defs>
     <path d="M 0 2.5 
C 0.663008 2.5 1.29895 2.236584 1.767767 1.767767 
C 2.236584 1.29895 2.5 0.663008 2.5 0 
C 2.5 -0.663008 2.236584 -1.29895 1.767767 -1.767767 
C 1.29895 -2.236584 0.663008 -2.5 0 -2.5 
C -0.663008 -2.5 -1.29895 -2.236584 -1.767767 -1.767767 
C -2.236584 -1.29895 -2.5 -0.663008 -2.5 0 
C -2.5 0.663008 -2.236584 1.29895 -1.767767 1.767767 
C -1.29895 2.236584 -0.663008 2.5 0 2.5 
z
" id="ma8671f58fd" style="stroke:#000000;"/>
    </defs>
    <g clip-path="url(#p2ee206b8b1)">
     <use style="stroke:#000000;" x="129.206954" xlink:href="#ma8671f58fd" y="324.750101"/>
     <use style="stroke:#000000;" x="435.951307" xlink:href="#ma8671f58fd" y="139.357905"/>
     <use style="stroke:#000000;" x="276.659609" xlink:href="#ma8671f58fd" y="129.569035"/>
     <use style="stroke:#000000;" x="460.68022" xlink:href="#ma8671f58fd" y="354.592469"/>
     <use style="stroke:#000000;" x="427.176264" xlink:href="#ma8671f58fd" y="309.83044"/>
     <use style="stroke:#000000;" x="389.883713" xlink:href="#ma8671f58fd" y="157.678016"/>
     <use style="stroke:#000000;" x="194.80659" xlink:href="#ma8671f58fd" y="244.923569"/>
     <use style="stroke:#000000;" x="408.672076" xlink:href="#ma8671f58fd" y="266.46852"/>
     <use style="stroke:#000000;" x="258.209909" xlink:href="#ma8671f58fd" y="209.33797"/>
     <use style="stroke:#000000;" x="360.600946" xlink:href="#ma8671f58fd" y="282.565046"/>
     <use style="stroke:#000000;" x="341.499997" xlink:href="#ma8671f58fd" y="258.231757"/>
     <use style="stroke:#000000;" x="244.119763" xlink:href="#ma8671f58fd" y="398.418419"/>
     <use style="stroke:#000000;" x="373.107846" xlink:href="#ma8671f58fd" y="173.01969"/>
     <use style="stroke:#000000;" x="327.897111" xlink:href="#ma8671f58fd" y="235.860649"/>
     <use style="stroke:#000000;" x="301.928785" xlink:href="#ma8671f58fd" y="222.277778"/>
     <use style="stroke:#000000;" x="350.235613" xlink:href="#ma8671f58fd" y="186.581734"/>
     <use style="stroke:#000000;" x="377.380075" xlink:href="#ma8671f58fd" y="305.454528"/>
     <use style="stroke:#000000;" x="350.130462" xlink:href="#ma8671f58fd" y="139.315234"/>
     <use style="stroke:#000000;" x="323.44432" xlink:href="#ma8671f58fd" y="432.875911"/>
     <use style="stroke:#000000;" x="248.465408" xlink:href="#ma8671f58fd" y="244.099939"/>
     <use style="stroke:#000000;" x="182.58522" xlink:href="#ma8671f58fd" y="181.31224"/>
     <use style="stroke:#000000;" x="276.064882" xlink:href="#ma8671f58fd" y="238.094705"/>
     <use style="stroke:#000000;" x="381.49578" xlink:href="#ma8671f58fd" y="165.348853"/>
     <use style="stroke:#000000;" x="253.337659" xlink:href="#ma8671f58fd" y="226.718954"/>
     <use style="stroke:#000000;" x="267.137395" xlink:href="#ma8671f58fd" y="223.716338"/>
     <use style="stroke:#000000;" x="351.050471" xlink:href="#ma8671f58fd" y="270.398402"/>
     <use style="stroke:#000000;" x="368.990511" xlink:href="#ma8671f58fd" y="294.009787"/>
     <use style="stroke:#000000;" x="334.698554" xlink:href="#ma8671f58fd" y="247.046203"/>
     <use style="stroke:#000000;" x="361.67173" xlink:href="#ma8671f58fd" y="179.800712"/>
     <use style="stroke:#000000;" x="314.912948" xlink:href="#ma8671f58fd" y="229.069213"/>
     <use style="stroke:#000000;" x="288.996833" xlink:href="#ma8671f58fd" y="230.186241"/>
     <use style="stroke:#000000;" x="262.265145" xlink:href="#ma8671f58fd" y="241.097322"/>
    </g>
   </g>
   <g id="line2d_35">
    <path clip-path="url(#p2ee206b8b1)" d="M 150.720207 324.750101 
L 149.554559 317.764759 
L 146.183933 311.536388 
L 140.973588 306.739927 
L 134.488145 303.895148 
L 127.430403 303.310327 
L 120.565178 305.048838 
L 114.636424 308.922286 
L 110.286612 314.510924 
L 107.987113 321.209136 
L 107.987113 328.291066 
L 110.286612 334.989278 
L 114.636424 340.577916 
L 120.565178 344.451364 
L 127.430403 346.189875 
L 134.488145 345.605054 
L 140.973588 342.760275 
L 146.183933 337.963815 
L 149.554559 331.735443 
L 150.720207 324.750101 
" style="fill:none;stroke:#000000;stroke-dasharray:5.55,2.4;stroke-dashoffset:0;stroke-width:1.5;"/>
   </g>
   <g id="line2d_36">
    <path clip-path="url(#p2ee206b8b1)" d="M 135.123098 324.750101 
L 134.802545 322.829132 
L 133.875623 321.11633 
L 132.442778 319.797303 
L 130.659281 319.014989 
L 128.718402 318.854163 
L 126.830466 319.332254 
L 125.200058 320.397452 
L 124.00386 321.934327 
L 123.371498 323.776336 
L 123.371498 325.723866 
L 124.00386 327.565875 
L 125.200058 329.10275 
L 126.830466 330.167948 
L 128.718402 330.646039 
L 130.659281 330.485213 
L 132.442778 329.702899 
L 133.875623 328.383872 
L 134.802545 326.67107 
L 135.123098 324.750101 
" style="fill:none;stroke:#ff0000;stroke-linecap:square;stroke-width:1.5;"/>
   </g>
   <g id="line2d_37">
    <path clip-path="url(#p2ee206b8b1)" d="M 457.46456 139.357905 
L 456.298912 132.372563 
L 452.928286 126.144191 
L 447.717941 121.347731 
L 441.232498 118.502952 
L 434.174756 117.918131 
L 427.309531 119.656642 
L 421.380777 123.53009 
L 417.030965 129.118728 
L 414.731466 135.81694 
L 414.731466 142.89887 
L 417.030965 149.597082 
L 421.380777 155.18572 
L 427.309531 159.059168 
L 434.174756 160.797679 
L 441.232498 160.212858 
L 447.717941 157.368079 
L 452.928286 152.571618 
L 456.298912 146.343247 
L 457.46456 139.357905 
" style="fill:none;stroke:#000000;stroke-dasharray:5.55,2.4;stroke-dashoffset:0;stroke-width:1.5;"/>
   </g>
   <g id="line2d_38">
    <path clip-path="url(#p2ee206b8b1)" d="M 441.867451 139.357905 
L 441.546898 137.436936 
L 440.619976 135.724134 
L 439.187131 134.405107 
L 437.403634 133.622793 
L 435.462755 133.461967 
L 433.574819 133.940058 
L 431.944411 135.005256 
L 430.748213 136.542131 
L 430.115851 138.38414 
L 430.115851 140.33167 
L 430.748213 142.173679 
L 431.944411 143.710554 
L 433.574819 144.775752 
L 435.462755 145.253843 
L 437.403634 145.093017 
L 439.187131 144.310703 
L 440.619976 142.991676 
L 441.546898 141.278874 
L 441.867451 139.357905 
" style="fill:none;stroke:#ff0000;stroke-linecap:square;stroke-width:1.5;"/>
   </g>
   <g id="line2d_39">
    <path clip-path="url(#p2ee206b8b1)" d="M 298.172862 129.569035 
L 297.007215 122.583694 
L 293.636588 116.355322 
L 288.426243 111.558861 
L 281.9408 108.714082 
L 274.883059 108.129261 
L 268.017834 109.867772 
L 262.089079 113.741221 
L 257.739268 119.329859 
L 255.439769 126.02807 
L 255.439769 133.110001 
L 257.739268 139.808212 
L 262.089079 145.39685 
L 268.017834 149.270299 
L 274.883059 151.00881 
L 281.9408 150.423989 
L 288.426243 147.57921 
L 293.636588 142.782749 
L 297.007215 136.554377 
L 298.172862 129.569035 
" style="fill:none;stroke:#000000;stroke-dasharray:5.55,2.4;stroke-dashoffset:0;stroke-width:1.5;"/>
   </g>
   <g id="line2d_40">
    <path clip-path="url(#p2ee206b8b1)" d="M 282.575754 129.569035 
L 282.255201 127.648066 
L 281.328278 125.935264 
L 279.895433 124.616238 
L 278.111937 123.833923 
L 276.171058 123.673098 
L 274.283121 124.151188 
L 272.652713 125.216386 
L 271.456515 126.753262 
L 270.824153 128.59527 
L 270.824153 130.542801 
L 271.456515 132.384809 
L 272.652713 133.921685 
L 274.283121 134.986883 
L 276.171058 135.464973 
L 278.111937 135.304148 
L 279.895433 134.521833 
L 281.328278 133.202807 
L 282.255201 131.490004 
L 282.575754 129.569035 
" style="fill:none;stroke:#ff0000;stroke-linecap:square;stroke-width:1.5;"/>
   </g>
   <g id="line2d_41">
    <path clip-path="url(#p2ee206b8b1)" d="M 482.193473 354.592469 
L 481.027826 347.607127 
L 477.6572 341.378755 
L 472.446855 336.582294 
L 465.961412 333.737515 
L 458.90367 333.152694 
L 452.038445 334.891205 
L 446.109691 338.764654 
L 441.759879 344.353292 
L 439.46038 351.051504 
L 439.46038 358.133434 
L 441.759879 364.831645 
L 446.109691 370.420283 
L 452.038445 374.293732 
L 458.90367 376.032243 
L 465.961412 375.447422 
L 472.446855 372.602643 
L 477.6572 367.806182 
L 481.027826 361.57781 
L 482.193473 354.592469 
" style="fill:none;stroke:#000000;stroke-dasharray:5.55,2.4;stroke-dashoffset:0;stroke-width:1.5;"/>
   </g>
   <g id="line2d_42">
    <path clip-path="url(#p2ee206b8b1)" d="M 466.596365 354.592469 
L 466.275812 352.6715 
L 465.34889 350.958697 
L 463.916045 349.639671 
L 462.132548 348.857357 
L 460.191669 348.696531 
L 458.303732 349.174621 
L 456.673325 350.23982 
L 455.477127 351.776695 
L 454.844764 353.618703 
L 454.844764 355.566234 
L 455.477127 357.408242 
L 456.673325 358.945118 
L 458.303732 360.010316 
L 460.191669 360.488407 
L 462.132548 360.327581 
L 463.916045 359.545267 
L 465.34889 358.22624 
L 466.275812 356.513438 
L 466.596365 354.592469 
" style="fill:none;stroke:#ff0000;stroke-linecap:square;stroke-width:1.5;"/>
   </g>
   <g id="line2d_43">
    <path clip-path="url(#p2ee206b8b1)" d="M 448.689517 309.83044 
L 447.523869 302.845099 
L 444.153243 296.616727 
L 438.942898 291.820266 
L 432.457455 288.975487 
L 425.399713 288.390666 
L 418.534488 290.129177 
L 412.605734 294.002626 
L 408.255922 299.591264 
L 405.956423 306.289475 
L 405.956423 313.371405 
L 408.255922 320.069617 
L 412.605734 325.658255 
L 418.534488 329.531704 
L 425.399713 331.270215 
L 432.457455 330.685394 
L 438.942898 327.840615 
L 444.153243 323.044154 
L 447.523869 316.815782 
L 448.689517 309.83044 
" style="fill:none;stroke:#000000;stroke-dasharray:5.55,2.4;stroke-dashoffset:0;stroke-width:1.5;"/>
   </g>
   <g id="line2d_44">
    <path clip-path="url(#p2ee206b8b1)" d="M 433.092408 309.83044 
L 432.771855 307.909471 
L 431.844933 306.196669 
L 430.412088 304.877642 
L 428.628591 304.095328 
L 426.687712 303.934502 
L 424.799775 304.412593 
L 423.169368 305.477791 
L 421.97317 307.014667 
L 421.340808 308.856675 
L 421.340808 310.804206 
L 421.97317 312.646214 
L 423.169368 314.183089 
L 424.799775 315.248288 
L 426.687712 315.726378 
L 428.628591 315.565553 
L 430.412088 314.783238 
L 431.844933 313.464212 
L 432.771855 311.751409 
L 433.092408 309.83044 
" style="fill:none;stroke:#ff0000;stroke-linecap:square;stroke-width:1.5;"/>
   </g>
   <g id="line2d_45">
    <path clip-path="url(#p2ee206b8b1)" d="M 411.396966 157.678016 
L 410.231319 150.692674 
L 406.860693 144.464303 
L 401.650347 139.667842 
L 395.164905 136.823063 
L 388.107163 136.238242 
L 381.241938 137.976753 
L 375.313184 141.850202 
L 370.963372 147.43884 
L 368.663873 154.137051 
L 368.663873 161.218981 
L 370.963372 167.917193 
L 375.313184 173.505831 
L 381.241938 177.37928 
L 388.107163 179.117791 
L 395.164905 178.53297 
L 401.650347 175.688191 
L 406.860693 170.89173 
L 410.231319 164.663358 
L 411.396966 157.678016 
" style="fill:none;stroke:#000000;stroke-dasharray:5.55,2.4;stroke-dashoffset:0;stroke-width:1.5;"/>
   </g>
   <g id="line2d_46">
    <path clip-path="url(#p2ee206b8b1)" d="M 395.799858 157.678016 
L 395.479305 155.757047 
L 394.552383 154.044245 
L 393.119538 152.725218 
L 391.336041 151.942904 
L 389.395162 151.782078 
L 387.507225 152.260169 
L 385.876818 153.325367 
L 384.680619 154.862243 
L 384.048257 156.704251 
L 384.048257 158.651782 
L 384.680619 160.49379 
L 385.876818 162.030665 
L 387.507225 163.095864 
L 389.395162 163.573954 
L 391.336041 163.413128 
L 393.119538 162.630814 
L 394.552383 161.311788 
L 395.479305 159.598985 
L 395.799858 157.678016 
" style="fill:none;stroke:#ff0000;stroke-linecap:square;stroke-width:1.5;"/>
   </g>
   <g id="line2d_47">
    <path clip-path="url(#p2ee206b8b1)" d="M 216.319843 244.923569 
L 215.154196 237.938227 
L 211.78357 231.709856 
L 206.573224 226.913395 
L 200.087782 224.068616 
L 193.03004 223.483795 
L 186.164815 225.222306 
L 180.23606 229.095754 
L 175.886249 234.684392 
L 173.58675 241.382604 
L 173.58675 248.464534 
L 175.886249 255.162746 
L 180.23606 260.751384 
L 186.164815 264.624832 
L 193.03004 266.363343 
L 200.087782 265.778522 
L 206.573224 262.933743 
L 211.78357 258.137283 
L 215.154196 251.908911 
L 216.319843 244.923569 
" style="fill:none;stroke:#000000;stroke-dasharray:5.55,2.4;stroke-dashoffset:0;stroke-width:1.5;"/>
   </g>
   <g id="line2d_48">
    <path clip-path="url(#p2ee206b8b1)" d="M 200.722735 244.923569 
L 200.402182 243.0026 
L 199.47526 241.289798 
L 198.042415 239.970771 
L 196.258918 239.188457 
L 194.318039 239.027631 
L 192.430102 239.505722 
L 190.799695 240.57092 
L 189.603496 242.107796 
L 188.971134 243.949804 
L 188.971134 245.897335 
L 189.603496 247.739343 
L 190.799695 249.276218 
L 192.430102 250.341417 
L 194.318039 250.819507 
L 196.258918 250.658681 
L 198.042415 249.876367 
L 199.47526 248.55734 
L 200.402182 246.844538 
L 200.722735 244.923569 
" style="fill:none;stroke:#ff0000;stroke-linecap:square;stroke-width:1.5;"/>
   </g>
   <g id="line2d_49">
    <path clip-path="url(#p2ee206b8b1)" d="M 430.185329 266.46852 
L 429.019682 259.483178 
L 425.649056 253.254806 
L 420.43871 248.458345 
L 413.953268 245.613567 
L 406.895526 245.028745 
L 400.030301 246.767256 
L 394.101546 250.640705 
L 389.751735 256.229343 
L 387.452236 262.927555 
L 387.452236 270.009485 
L 389.751735 276.707696 
L 394.101546 282.296334 
L 400.030301 286.169783 
L 406.895526 287.908294 
L 413.953268 287.323473 
L 420.43871 284.478694 
L 425.649056 279.682233 
L 429.019682 273.453862 
L 430.185329 266.46852 
" style="fill:none;stroke:#000000;stroke-dasharray:5.55,2.4;stroke-dashoffset:0;stroke-width:1.5;"/>
   </g>
   <g id="line2d_50">
    <path clip-path="url(#p2ee206b8b1)" d="M 414.588221 266.46852 
L 414.267668 264.547551 
L 413.340746 262.834748 
L 411.907901 261.515722 
L 410.124404 260.733408 
L 408.183525 260.572582 
L 406.295588 261.050672 
L 404.665181 262.115871 
L 403.468982 263.652746 
L 402.83662 265.494754 
L 402.83662 267.442285 
L 403.468982 269.284293 
L 404.665181 270.821169 
L 406.295588 271.886367 
L 408.183525 272.364458 
L 410.124404 272.203632 
L 411.907901 271.421318 
L 413.340746 270.102291 
L 414.267668 268.389489 
L 414.588221 266.46852 
" style="fill:none;stroke:#ff0000;stroke-linecap:square;stroke-width:1.5;"/>
   </g>
   <g id="line2d_51">
    <path clip-path="url(#p2ee206b8b1)" d="M 279.723162 209.33797 
L 278.557515 202.352628 
L 275.186889 196.124257 
L 269.976543 191.327796 
L 263.491101 188.483017 
L 256.433359 187.898196 
L 249.568134 189.636707 
L 243.63938 193.510155 
L 239.289568 199.098793 
L 236.990069 205.797005 
L 236.990069 212.878935 
L 239.289568 219.577147 
L 243.63938 225.165785 
L 249.568134 229.039233 
L 256.433359 230.777744 
L 263.491101 230.192923 
L 269.976543 227.348144 
L 275.186889 222.551684 
L 278.557515 216.323312 
L 279.723162 209.33797 
" style="fill:none;stroke:#000000;stroke-dasharray:5.55,2.4;stroke-dashoffset:0;stroke-width:1.5;"/>
   </g>
   <g id="line2d_52">
    <path clip-path="url(#p2ee206b8b1)" d="M 264.126054 209.33797 
L 263.805501 207.417001 
L 262.878579 205.704199 
L 261.445734 204.385172 
L 259.662237 203.602858 
L 257.721358 203.442032 
L 255.833421 203.920123 
L 254.203014 204.985321 
L 253.006815 206.522197 
L 252.374453 208.364205 
L 252.374453 210.311735 
L 253.006815 212.153744 
L 254.203014 213.690619 
L 255.833421 214.755818 
L 257.721358 215.233908 
L 259.662237 215.073082 
L 261.445734 214.290768 
L 262.878579 212.971741 
L 263.805501 211.258939 
L 264.126054 209.33797 
" style="fill:none;stroke:#ff0000;stroke-linecap:square;stroke-width:1.5;"/>
   </g>
   <g id="line2d_53">
    <path clip-path="url(#p2ee206b8b1)" d="M 382.114199 282.565046 
L 380.948552 275.579704 
L 377.577926 269.351332 
L 372.36758 264.554871 
L 365.882138 261.710092 
L 358.824396 261.125271 
L 351.959171 262.863782 
L 346.030416 266.737231 
L 341.680605 272.325869 
L 339.381106 279.024081 
L 339.381106 286.106011 
L 341.680605 292.804222 
L 346.030416 298.39286 
L 351.959171 302.266309 
L 358.824396 304.00482 
L 365.882138 303.419999 
L 372.36758 300.57522 
L 377.577926 295.778759 
L 380.948552 289.550388 
L 382.114199 282.565046 
" style="fill:none;stroke:#000000;stroke-dasharray:5.55,2.4;stroke-dashoffset:0;stroke-width:1.5;"/>
   </g>
   <g id="line2d_54">
    <path clip-path="url(#p2ee206b8b1)" d="M 366.517091 282.565046 
L 366.196538 280.644077 
L 365.269615 278.931274 
L 363.83677 277.612248 
L 362.053274 276.829934 
L 360.112395 276.669108 
L 358.224458 277.147198 
L 356.59405 278.212397 
L 355.397852 279.749272 
L 354.76549 281.59128 
L 354.76549 283.538811 
L 355.397852 285.380819 
L 356.59405 286.917695 
L 358.224458 287.982893 
L 360.112395 288.460984 
L 362.053274 288.300158 
L 363.83677 287.517844 
L 365.269615 286.198817 
L 366.196538 284.486015 
L 366.517091 282.565046 
" style="fill:none;stroke:#ff0000;stroke-linecap:square;stroke-width:1.5;"/>
   </g>
   <g id="line2d_55">
    <path clip-path="url(#p2ee206b8b1)" d="M 363.01325 258.231757 
L 361.847602 251.246416 
L 358.476976 245.018044 
L 353.266631 240.221583 
L 346.781188 237.376804 
L 339.723446 236.791983 
L 332.858222 238.530494 
L 326.929467 242.403943 
L 322.579656 247.992581 
L 320.280157 254.690792 
L 320.280157 261.772723 
L 322.579656 268.470934 
L 326.929467 274.059572 
L 332.858222 277.933021 
L 339.723446 279.671532 
L 346.781188 279.086711 
L 353.266631 276.241932 
L 358.476976 271.445471 
L 361.847602 265.217099 
L 363.01325 258.231757 
" style="fill:none;stroke:#000000;stroke-dasharray:5.55,2.4;stroke-dashoffset:0;stroke-width:1.5;"/>
   </g>
   <g id="line2d_56">
    <path clip-path="url(#p2ee206b8b1)" d="M 347.416141 258.231757 
L 347.095588 256.310788 
L 346.168666 254.597986 
L 344.735821 253.27896 
L 342.952324 252.496645 
L 341.011446 252.33582 
L 339.123509 252.81391 
L 337.493101 253.879108 
L 336.296903 255.415984 
L 335.664541 257.257992 
L 335.664541 259.205523 
L 336.296903 261.047531 
L 337.493101 262.584407 
L 339.123509 263.649605 
L 341.011446 264.127695 
L 342.952324 263.96687 
L 344.735821 263.184555 
L 346.168666 261.865529 
L 347.095588 260.152726 
L 347.416141 258.231757 
" style="fill:none;stroke:#ff0000;stroke-linecap:square;stroke-width:1.5;"/>
   </g>
   <g id="line2d_57">
    <path clip-path="url(#p2ee206b8b1)" d="M 265.633016 398.418419 
L 264.467368 391.433077 
L 261.096742 385.204706 
L 255.886397 380.408245 
L 249.400954 377.563466 
L 242.343212 376.978645 
L 235.477987 378.717156 
L 229.549233 382.590605 
L 225.199421 388.179243 
L 222.899922 394.877454 
L 222.899922 401.959384 
L 225.199421 408.657596 
L 229.549233 414.246234 
L 235.477987 418.119682 
L 242.343212 419.858194 
L 249.400954 419.273372 
L 255.886397 416.428593 
L 261.096742 411.632133 
L 264.467368 405.403761 
L 265.633016 398.418419 
" style="fill:none;stroke:#000000;stroke-dasharray:5.55,2.4;stroke-dashoffset:0;stroke-width:1.5;"/>
   </g>
   <g id="line2d_58">
    <path clip-path="url(#p2ee206b8b1)" d="M 250.035907 398.418419 
L 249.715354 396.49745 
L 248.788432 394.784648 
L 247.355587 393.465621 
L 245.57209 392.683307 
L 243.631211 392.522481 
L 241.743274 393.000572 
L 240.112867 394.06577 
L 238.916669 395.602646 
L 238.284306 397.444654 
L 238.284306 399.392185 
L 238.916669 401.234193 
L 240.112867 402.771068 
L 241.743274 403.836267 
L 243.631211 404.314357 
L 245.57209 404.153531 
L 247.355587 403.371217 
L 248.788432 402.05219 
L 249.715354 400.339388 
L 250.035907 398.418419 
" style="fill:none;stroke:#ff0000;stroke-linecap:square;stroke-width:1.5;"/>
   </g>
   <g id="line2d_59">
    <path clip-path="url(#p2ee206b8b1)" d="M 394.621099 173.01969 
L 393.455452 166.034348 
L 390.084826 159.805977 
L 384.87448 155.009516 
L 378.389038 152.164737 
L 371.331296 151.579916 
L 364.466071 153.318427 
L 358.537316 157.191876 
L 354.187505 162.780513 
L 351.888006 169.478725 
L 351.888006 176.560655 
L 354.187505 183.258867 
L 358.537316 188.847505 
L 364.466071 192.720953 
L 371.331296 194.459464 
L 378.389038 193.874643 
L 384.87448 191.029864 
L 390.084826 186.233404 
L 393.455452 180.005032 
L 394.621099 173.01969 
" style="fill:none;stroke:#000000;stroke-dasharray:5.55,2.4;stroke-dashoffset:0;stroke-width:1.5;"/>
   </g>
   <g id="line2d_60">
    <path clip-path="url(#p2ee206b8b1)" d="M 379.023991 173.01969 
L 378.703438 171.098721 
L 377.776515 169.385919 
L 376.343671 168.066892 
L 374.560174 167.284578 
L 372.619295 167.123752 
L 370.731358 167.601843 
L 369.10095 168.667041 
L 367.904752 170.203917 
L 367.27239 172.045925 
L 367.27239 173.993456 
L 367.904752 175.835464 
L 369.10095 177.372339 
L 370.731358 178.437538 
L 372.619295 178.915628 
L 374.560174 178.754802 
L 376.343671 177.972488 
L 377.776515 176.653461 
L 378.703438 174.940659 
L 379.023991 173.01969 
" style="fill:none;stroke:#ff0000;stroke-linecap:square;stroke-width:1.5;"/>
   </g>
   <g id="line2d_61">
    <path clip-path="url(#p2ee206b8b1)" d="M 349.410364 235.860649 
L 348.244717 228.875307 
L 344.874091 222.646935 
L 339.663745 217.850475 
L 333.178303 215.005696 
L 326.120561 214.420875 
L 319.255336 216.159386 
L 313.326581 220.032834 
L 308.97677 225.621472 
L 306.677271 232.319684 
L 306.677271 239.401614 
L 308.97677 246.099826 
L 313.326581 251.688464 
L 319.255336 255.561912 
L 326.120561 257.300423 
L 333.178303 256.715602 
L 339.663745 253.870823 
L 344.874091 249.074362 
L 348.244717 242.845991 
L 349.410364 235.860649 
" style="fill:none;stroke:#000000;stroke-dasharray:5.55,2.4;stroke-dashoffset:0;stroke-width:1.5;"/>
   </g>
   <g id="line2d_62">
    <path clip-path="url(#p2ee206b8b1)" d="M 333.813256 235.860649 
L 333.492703 233.93968 
L 332.565781 232.226878 
L 331.132936 230.907851 
L 329.349439 230.125537 
L 327.40856 229.964711 
L 325.520623 230.442802 
L 323.890216 231.508 
L 322.694017 233.044875 
L 322.061655 234.886884 
L 322.061655 236.834414 
L 322.694017 238.676423 
L 323.890216 240.213298 
L 325.520623 241.278496 
L 327.40856 241.756587 
L 329.349439 241.595761 
L 331.132936 240.813447 
L 332.565781 239.49442 
L 333.492703 237.781618 
L 333.813256 235.860649 
" style="fill:none;stroke:#ff0000;stroke-linecap:square;stroke-width:1.5;"/>
   </g>
   <g id="line2d_63">
    <path clip-path="url(#p2ee206b8b1)" d="M 323.442038 222.277778 
L 322.276391 215.292436 
L 318.905765 209.064064 
L 313.695419 204.267604 
L 307.209977 201.422825 
L 300.152235 200.838003 
L 293.28701 202.576514 
L 287.358255 206.449963 
L 283.008444 212.038601 
L 280.708945 218.736813 
L 280.708945 225.818743 
L 283.008444 232.516954 
L 287.358255 238.105592 
L 293.28701 241.979041 
L 300.152235 243.717552 
L 307.209977 243.132731 
L 313.695419 240.287952 
L 318.905765 235.491491 
L 322.276391 229.26312 
L 323.442038 222.277778 
" style="fill:none;stroke:#000000;stroke-dasharray:5.55,2.4;stroke-dashoffset:0;stroke-width:1.5;"/>
   </g>
   <g id="line2d_64">
    <path clip-path="url(#p2ee206b8b1)" d="M 307.84493 222.277778 
L 307.524377 220.356809 
L 306.597455 218.644007 
L 305.16461 217.32498 
L 303.381113 216.542666 
L 301.440234 216.38184 
L 299.552297 216.85993 
L 297.921889 217.925129 
L 296.725691 219.462004 
L 296.093329 221.304012 
L 296.093329 223.251543 
L 296.725691 225.093551 
L 297.921889 226.630427 
L 299.552297 227.695625 
L 301.440234 228.173716 
L 303.381113 228.01289 
L 305.16461 227.230576 
L 306.597455 225.911549 
L 307.524377 224.198747 
L 307.84493 222.277778 
" style="fill:none;stroke:#ff0000;stroke-linecap:square;stroke-width:1.5;"/>
   </g>
   <g id="line2d_65">
    <path clip-path="url(#p2ee206b8b1)" d="M 371.748866 186.581734 
L 370.583219 179.596392 
L 367.212593 173.368021 
L 362.002247 168.57156 
L 355.516804 165.726781 
L 348.459063 165.14196 
L 341.593838 166.880471 
L 335.665083 170.75392 
L 331.315272 176.342558 
L 329.015773 183.040769 
L 329.015773 190.122699 
L 331.315272 196.820911 
L 335.665083 202.409549 
L 341.593838 206.282997 
L 348.459063 208.021509 
L 355.516804 207.436687 
L 362.002247 204.591908 
L 367.212593 199.795448 
L 370.583219 193.567076 
L 371.748866 186.581734 
" style="fill:none;stroke:#000000;stroke-dasharray:5.55,2.4;stroke-dashoffset:0;stroke-width:1.5;"/>
   </g>
   <g id="line2d_66">
    <path clip-path="url(#p2ee206b8b1)" d="M 356.151758 186.581734 
L 355.831205 184.660765 
L 354.904282 182.947963 
L 353.471437 181.628936 
L 351.687941 180.846622 
L 349.747062 180.685796 
L 347.859125 181.163887 
L 346.228717 182.229085 
L 345.032519 183.765961 
L 344.400157 185.607969 
L 344.400157 187.5555 
L 345.032519 189.397508 
L 346.228717 190.934383 
L 347.859125 191.999582 
L 349.747062 192.477672 
L 351.687941 192.316846 
L 353.471437 191.534532 
L 354.904282 190.215505 
L 355.831205 188.502703 
L 356.151758 186.581734 
" style="fill:none;stroke:#ff0000;stroke-linecap:square;stroke-width:1.5;"/>
   </g>
   <g id="line2d_67">
    <path clip-path="url(#p2ee206b8b1)" d="M 398.893328 305.454528 
L 397.727681 298.469186 
L 394.357055 292.240814 
L 389.14671 287.444353 
L 382.661267 284.599574 
L 375.603525 284.014753 
L 368.7383 285.753264 
L 362.809546 289.626713 
L 358.459734 295.215351 
L 356.160235 301.913563 
L 356.160235 308.995493 
L 358.459734 315.693704 
L 362.809546 321.282342 
L 368.7383 325.155791 
L 375.603525 326.894302 
L 382.661267 326.309481 
L 389.14671 323.464702 
L 394.357055 318.668241 
L 397.727681 312.439869 
L 398.893328 305.454528 
" style="fill:none;stroke:#000000;stroke-dasharray:5.55,2.4;stroke-dashoffset:0;stroke-width:1.5;"/>
   </g>
   <g id="line2d_68">
    <path clip-path="url(#p2ee206b8b1)" d="M 383.29622 305.454528 
L 382.975667 303.533559 
L 382.048745 301.820756 
L 380.6159 300.50173 
L 378.832403 299.719415 
L 376.891524 299.55859 
L 375.003587 300.03668 
L 373.37318 301.101879 
L 372.176982 302.638754 
L 371.544619 304.480762 
L 371.544619 306.428293 
L 372.176982 308.270301 
L 373.37318 309.807177 
L 375.003587 310.872375 
L 376.891524 311.350466 
L 378.832403 311.18964 
L 380.6159 310.407325 
L 382.048745 309.088299 
L 382.975667 307.375497 
L 383.29622 305.454528 
" style="fill:none;stroke:#ff0000;stroke-linecap:square;stroke-width:1.5;"/>
   </g>
   <g id="line2d_69">
    <path clip-path="url(#p2ee206b8b1)" d="M 371.643715 139.315234 
L 370.478068 132.329892 
L 367.107441 126.10152 
L 361.897096 121.305059 
L 355.411653 118.460281 
L 348.353912 117.875459 
L 341.488687 119.61397 
L 335.559932 123.487419 
L 331.210121 129.076057 
L 328.910622 135.774269 
L 328.910622 142.856199 
L 331.210121 149.55441 
L 335.559932 155.143048 
L 341.488687 159.016497 
L 348.353912 160.755008 
L 355.411653 160.170187 
L 361.897096 157.325408 
L 367.107441 152.528947 
L 370.478068 146.300576 
L 371.643715 139.315234 
" style="fill:none;stroke:#000000;stroke-dasharray:5.55,2.4;stroke-dashoffset:0;stroke-width:1.5;"/>
   </g>
   <g id="line2d_70">
    <path clip-path="url(#p2ee206b8b1)" d="M 356.046607 139.315234 
L 355.726054 137.394265 
L 354.799131 135.681463 
L 353.366286 134.362436 
L 351.58279 133.580122 
L 349.641911 133.419296 
L 347.753974 133.897386 
L 346.123566 134.962585 
L 344.927368 136.49946 
L 344.295006 138.341468 
L 344.295006 140.288999 
L 344.927368 142.131007 
L 346.123566 143.667883 
L 347.753974 144.733081 
L 349.641911 145.211172 
L 351.58279 145.050346 
L 353.366286 144.268032 
L 354.799131 142.949005 
L 355.726054 141.236203 
L 356.046607 139.315234 
" style="fill:none;stroke:#ff0000;stroke-linecap:square;stroke-width:1.5;"/>
   </g>
   <g id="line2d_71">
    <path clip-path="url(#p2ee206b8b1)" d="M 344.957573 432.875911 
L 343.791926 425.890569 
L 340.4213 419.662198 
L 335.210954 414.865737 
L 328.725512 412.020958 
L 321.66777 411.436137 
L 314.802545 413.174648 
L 308.87379 417.048097 
L 304.523979 422.636734 
L 302.22448 429.334946 
L 302.22448 436.416876 
L 304.523979 443.115088 
L 308.87379 448.703726 
L 314.802545 452.577174 
L 321.66777 454.315685 
L 328.725512 453.730864 
L 335.210954 450.886085 
L 340.4213 446.089625 
L 343.791926 439.861253 
L 344.957573 432.875911 
" style="fill:none;stroke:#000000;stroke-dasharray:5.55,2.4;stroke-dashoffset:0;stroke-width:1.5;"/>
   </g>
   <g id="line2d_72">
    <path clip-path="url(#p2ee206b8b1)" d="M 329.360465 432.875911 
L 329.039912 430.954942 
L 328.11299 429.24214 
L 326.680145 427.923113 
L 324.896648 427.140799 
L 322.955769 426.979973 
L 321.067832 427.458064 
L 319.437424 428.523262 
L 318.241226 430.060138 
L 317.608864 431.902146 
L 317.608864 433.849677 
L 318.241226 435.691685 
L 319.437424 437.22856 
L 321.067832 438.293759 
L 322.955769 438.771849 
L 324.896648 438.611023 
L 326.680145 437.828709 
L 328.11299 436.509682 
L 329.039912 434.79688 
L 329.360465 432.875911 
" style="fill:none;stroke:#ff0000;stroke-linecap:square;stroke-width:1.5;"/>
   </g>
   <g id="line2d_73">
    <path clip-path="url(#p2ee206b8b1)" d="M 269.978661 244.099939 
L 268.813014 237.114597 
L 265.442388 230.886225 
L 260.232043 226.089765 
L 253.7466 223.244986 
L 246.688858 222.660164 
L 239.823633 224.398676 
L 233.894879 228.272124 
L 229.545067 233.860762 
L 227.245568 240.558974 
L 227.245568 247.640904 
L 229.545067 254.339115 
L 233.894879 259.927753 
L 239.823633 263.801202 
L 246.688858 265.539713 
L 253.7466 264.954892 
L 260.232043 262.110113 
L 265.442388 257.313652 
L 268.813014 251.085281 
L 269.978661 244.099939 
" style="fill:none;stroke:#000000;stroke-dasharray:5.55,2.4;stroke-dashoffset:0;stroke-width:1.5;"/>
   </g>
   <g id="line2d_74">
    <path clip-path="url(#p2ee206b8b1)" d="M 254.381553 244.099939 
L 254.061 242.17897 
L 253.134078 240.466168 
L 251.701233 239.147141 
L 249.917736 238.364827 
L 247.976857 238.204001 
L 246.08892 238.682091 
L 244.458513 239.74729 
L 243.262315 241.284165 
L 242.629952 243.126173 
L 242.629952 245.073704 
L 243.262315 246.915712 
L 244.458513 248.452588 
L 246.08892 249.517786 
L 247.976857 249.995877 
L 249.917736 249.835051 
L 251.701233 249.052737 
L 253.134078 247.73371 
L 254.061 246.020908 
L 254.381553 244.099939 
" style="fill:none;stroke:#ff0000;stroke-linecap:square;stroke-width:1.5;"/>
   </g>
   <g id="line2d_75">
    <path clip-path="url(#p2ee206b8b1)" d="M 204.098473 181.31224 
L 202.932825 174.326898 
L 199.562199 168.098526 
L 194.351854 163.302066 
L 187.866411 160.457287 
L 180.808669 159.872466 
L 173.943444 161.610977 
L 168.01469 165.484425 
L 163.664878 171.073063 
L 161.365379 177.771275 
L 161.365379 184.853205 
L 163.664878 191.551417 
L 168.01469 197.140055 
L 173.943444 201.013503 
L 180.808669 202.752014 
L 187.866411 202.167193 
L 194.351854 199.322414 
L 199.562199 194.525953 
L 202.932825 188.297582 
L 204.098473 181.31224 
" style="fill:none;stroke:#000000;stroke-dasharray:5.55,2.4;stroke-dashoffset:0;stroke-width:1.5;"/>
   </g>
   <g id="line2d_76">
    <path clip-path="url(#p2ee206b8b1)" d="M 188.501364 181.31224 
L 188.180811 179.391271 
L 187.253889 177.678469 
L 185.821044 176.359442 
L 184.037547 175.577128 
L 182.096668 175.416302 
L 180.208731 175.894393 
L 178.578324 176.959591 
L 177.382126 178.496466 
L 176.749763 180.338475 
L 176.749763 182.286005 
L 177.382126 184.128014 
L 178.578324 185.664889 
L 180.208731 186.730087 
L 182.096668 187.208178 
L 184.037547 187.047352 
L 185.821044 186.265038 
L 187.253889 184.946011 
L 188.180811 183.233209 
L 188.501364 181.31224 
" style="fill:none;stroke:#ff0000;stroke-linecap:square;stroke-width:1.5;"/>
   </g>
   <g id="line2d_77">
    <path clip-path="url(#p2ee206b8b1)" d="M 297.578135 238.094705 
L 296.412487 231.109363 
L 293.041861 224.880991 
L 287.831516 220.084531 
L 281.346073 217.239752 
L 274.288331 216.654931 
L 267.423106 218.393442 
L 261.494352 222.26689 
L 257.14454 227.855528 
L 254.845041 234.55374 
L 254.845041 241.63567 
L 257.14454 248.333882 
L 261.494352 253.92252 
L 267.423106 257.795968 
L 274.288331 259.534479 
L 281.346073 258.949658 
L 287.831516 256.104879 
L 293.041861 251.308418 
L 296.412487 245.080047 
L 297.578135 238.094705 
" style="fill:none;stroke:#000000;stroke-dasharray:5.55,2.4;stroke-dashoffset:0;stroke-width:1.5;"/>
   </g>
   <g id="line2d_78">
    <path clip-path="url(#p2ee206b8b1)" d="M 281.981026 238.094705 
L 281.660473 236.173736 
L 280.733551 234.460934 
L 279.300706 233.141907 
L 277.517209 232.359593 
L 275.57633 232.198767 
L 273.688393 232.676857 
L 272.057986 233.742056 
L 270.861788 235.278931 
L 270.229425 237.12094 
L 270.229425 239.06847 
L 270.861788 240.910478 
L 272.057986 242.447354 
L 273.688393 243.512552 
L 275.57633 243.990643 
L 277.517209 243.829817 
L 279.300706 243.047503 
L 280.733551 241.728476 
L 281.660473 240.015674 
L 281.981026 238.094705 
" style="fill:none;stroke:#ff0000;stroke-linecap:square;stroke-width:1.5;"/>
   </g>
   <g id="line2d_79">
    <path clip-path="url(#p2ee206b8b1)" d="M 403.009033 165.348853 
L 401.843385 158.363511 
L 398.472759 152.13514 
L 393.262414 147.338679 
L 386.776971 144.4939 
L 379.719229 143.909079 
L 372.854004 145.64759 
L 366.92525 149.521039 
L 362.575438 155.109677 
L 360.275939 161.807888 
L 360.275939 168.889818 
L 362.575438 175.58803 
L 366.92525 181.176668 
L 372.854004 185.050117 
L 379.719229 186.788628 
L 386.776971 186.203806 
L 393.262414 183.359027 
L 398.472759 178.562567 
L 401.843385 172.334195 
L 403.009033 165.348853 
" style="fill:none;stroke:#000000;stroke-dasharray:5.55,2.4;stroke-dashoffset:0;stroke-width:1.5;"/>
   </g>
   <g id="line2d_80">
    <path clip-path="url(#p2ee206b8b1)" d="M 387.411924 165.348853 
L 387.091371 163.427884 
L 386.164449 161.715082 
L 384.731604 160.396055 
L 382.948107 159.613741 
L 381.007228 159.452915 
L 379.119292 159.931006 
L 377.488884 160.996204 
L 376.292686 162.53308 
L 375.660324 164.375088 
L 375.660324 166.322619 
L 376.292686 168.164627 
L 377.488884 169.701502 
L 379.119292 170.766701 
L 381.007228 171.244791 
L 382.948107 171.083965 
L 384.731604 170.301651 
L 386.164449 168.982624 
L 387.091371 167.269822 
L 387.411924 165.348853 
" style="fill:none;stroke:#ff0000;stroke-linecap:square;stroke-width:1.5;"/>
   </g>
   <g id="line2d_81">
    <path clip-path="url(#p2ee206b8b1)" d="M 274.850912 226.718954 
L 273.685265 219.733613 
L 270.314638 213.505241 
L 265.104293 208.70878 
L 258.61885 205.864001 
L 251.561109 205.27918 
L 244.695884 207.017691 
L 238.767129 210.89114 
L 234.417318 216.479778 
L 232.117819 223.177989 
L 232.117819 230.25992 
L 234.417318 236.958131 
L 238.767129 242.546769 
L 244.695884 246.420218 
L 251.561109 248.158729 
L 258.61885 247.573908 
L 265.104293 244.729129 
L 270.314638 239.932668 
L 273.685265 233.704296 
L 274.850912 226.718954 
" style="fill:none;stroke:#000000;stroke-dasharray:5.55,2.4;stroke-dashoffset:0;stroke-width:1.5;"/>
   </g>
   <g id="line2d_82">
    <path clip-path="url(#p2ee206b8b1)" d="M 259.253803 226.718954 
L 258.93325 224.797985 
L 258.006328 223.085183 
L 256.573483 221.766157 
L 254.789987 220.983842 
L 252.849108 220.823016 
L 250.961171 221.301107 
L 249.330763 222.366305 
L 248.134565 223.903181 
L 247.502203 225.745189 
L 247.502203 227.69272 
L 248.134565 229.534728 
L 249.330763 231.071603 
L 250.961171 232.136802 
L 252.849108 232.614892 
L 254.789987 232.454067 
L 256.573483 231.671752 
L 258.006328 230.352726 
L 258.93325 228.639923 
L 259.253803 226.718954 
" style="fill:none;stroke:#ff0000;stroke-linecap:square;stroke-width:1.5;"/>
   </g>
   <g id="line2d_83">
    <path clip-path="url(#p2ee206b8b1)" d="M 288.650648 223.716338 
L 287.485001 216.730996 
L 284.114375 210.502624 
L 278.90403 205.706163 
L 272.418587 202.861384 
L 265.360845 202.276563 
L 258.49562 204.015074 
L 252.566866 207.888523 
L 248.217054 213.477161 
L 245.917555 220.175372 
L 245.917555 227.257303 
L 248.217054 233.955514 
L 252.566866 239.544152 
L 258.49562 243.417601 
L 265.360845 245.156112 
L 272.418587 244.571291 
L 278.90403 241.726512 
L 284.114375 236.930051 
L 287.485001 230.701679 
L 288.650648 223.716338 
" style="fill:none;stroke:#000000;stroke-dasharray:5.55,2.4;stroke-dashoffset:0;stroke-width:1.5;"/>
   </g>
   <g id="line2d_84">
    <path clip-path="url(#p2ee206b8b1)" d="M 273.05354 223.716338 
L 272.732987 221.795368 
L 271.806065 220.082566 
L 270.37322 218.76354 
L 268.589723 217.981225 
L 266.648844 217.8204 
L 264.760907 218.29849 
L 263.1305 219.363688 
L 261.934302 220.900564 
L 261.301939 222.742572 
L 261.301939 224.690103 
L 261.934302 226.532111 
L 263.1305 228.068987 
L 264.760907 229.134185 
L 266.648844 229.612275 
L 268.589723 229.45145 
L 270.37322 228.669135 
L 271.806065 227.350109 
L 272.732987 225.637307 
L 273.05354 223.716338 
" style="fill:none;stroke:#ff0000;stroke-linecap:square;stroke-width:1.5;"/>
   </g>
   <g id="line2d_85">
    <path clip-path="url(#p2ee206b8b1)" d="M 372.563724 270.398402 
L 371.398077 263.41306 
L 368.027451 257.184688 
L 362.817106 252.388227 
L 356.331663 249.543448 
L 349.273921 248.958627 
L 342.408696 250.697138 
L 336.479942 254.570587 
L 332.13013 260.159225 
L 329.830631 266.857437 
L 329.830631 273.939367 
L 332.13013 280.637578 
L 336.479942 286.226216 
L 342.408696 290.099665 
L 349.273921 291.838176 
L 356.331663 291.253355 
L 362.817106 288.408576 
L 368.027451 283.612115 
L 371.398077 277.383743 
L 372.563724 270.398402 
" style="fill:none;stroke:#000000;stroke-dasharray:5.55,2.4;stroke-dashoffset:0;stroke-width:1.5;"/>
   </g>
   <g id="line2d_86">
    <path clip-path="url(#p2ee206b8b1)" d="M 356.966616 270.398402 
L 356.646063 268.477433 
L 355.719141 266.76463 
L 354.286296 265.445604 
L 352.502799 264.663289 
L 350.56192 264.502464 
L 348.673983 264.980554 
L 347.043576 266.045753 
L 345.847378 267.582628 
L 345.215015 269.424636 
L 345.215015 271.372167 
L 345.847378 273.214175 
L 347.043576 274.751051 
L 348.673983 275.816249 
L 350.56192 276.29434 
L 352.502799 276.133514 
L 354.286296 275.3512 
L 355.719141 274.032173 
L 356.646063 272.319371 
L 356.966616 270.398402 
" style="fill:none;stroke:#ff0000;stroke-linecap:square;stroke-width:1.5;"/>
   </g>
   <g id="line2d_87">
    <path clip-path="url(#p2ee206b8b1)" d="M 390.503764 294.009787 
L 389.338116 287.024445 
L 385.96749 280.796073 
L 380.757145 275.999612 
L 374.271702 273.154833 
L 367.21396 272.570012 
L 360.348735 274.308523 
L 354.419981 278.181972 
L 350.070169 283.77061 
L 347.77067 290.468822 
L 347.77067 297.550752 
L 350.070169 304.248963 
L 354.419981 309.837601 
L 360.348735 313.71105 
L 367.21396 315.449561 
L 374.271702 314.86474 
L 380.757145 312.019961 
L 385.96749 307.2235 
L 389.338116 300.995128 
L 390.503764 294.009787 
" style="fill:none;stroke:#000000;stroke-dasharray:5.55,2.4;stroke-dashoffset:0;stroke-width:1.5;"/>
   </g>
   <g id="line2d_88">
    <path clip-path="url(#p2ee206b8b1)" d="M 374.906655 294.009787 
L 374.586102 292.088818 
L 373.65918 290.376015 
L 372.226335 289.056989 
L 370.442838 288.274674 
L 368.501959 288.113849 
L 366.614023 288.591939 
L 364.983615 289.657138 
L 363.787417 291.194013 
L 363.155055 293.036021 
L 363.155055 294.983552 
L 363.787417 296.82556 
L 364.983615 298.362436 
L 366.614023 299.427634 
L 368.501959 299.905725 
L 370.442838 299.744899 
L 372.226335 298.962585 
L 373.65918 297.643558 
L 374.586102 295.930756 
L 374.906655 294.009787 
" style="fill:none;stroke:#ff0000;stroke-linecap:square;stroke-width:1.5;"/>
   </g>
   <g id="line2d_89">
    <path clip-path="url(#p2ee206b8b1)" d="M 356.211807 247.046203 
L 355.04616 240.060861 
L 351.675533 233.83249 
L 346.465188 229.036029 
L 339.979745 226.19125 
L 332.922004 225.606429 
L 326.056779 227.34494 
L 320.128024 231.218389 
L 315.778213 236.807027 
L 313.478714 243.505238 
L 313.478714 250.587168 
L 315.778213 257.28538 
L 320.128024 262.874018 
L 326.056779 266.747467 
L 332.922004 268.485978 
L 339.979745 267.901156 
L 346.465188 265.056377 
L 351.675533 260.259917 
L 355.04616 254.031545 
L 356.211807 247.046203 
" style="fill:none;stroke:#000000;stroke-dasharray:5.55,2.4;stroke-dashoffset:0;stroke-width:1.5;"/>
   </g>
   <g id="line2d_90">
    <path clip-path="url(#p2ee206b8b1)" d="M 340.614699 247.046203 
L 340.294146 245.125234 
L 339.367223 243.412432 
L 337.934378 242.093405 
L 336.150882 241.311091 
L 334.210003 241.150265 
L 332.322066 241.628356 
L 330.691658 242.693554 
L 329.49546 244.23043 
L 328.863098 246.072438 
L 328.863098 248.019969 
L 329.49546 249.861977 
L 330.691658 251.398852 
L 332.322066 252.464051 
L 334.210003 252.942141 
L 336.150882 252.781315 
L 337.934378 251.999001 
L 339.367223 250.679974 
L 340.294146 248.967172 
L 340.614699 247.046203 
" style="fill:none;stroke:#ff0000;stroke-linecap:square;stroke-width:1.5;"/>
   </g>
   <g id="line2d_91">
    <path clip-path="url(#p2ee206b8b1)" d="M 383.184983 179.800712 
L 382.019335 172.81537 
L 378.648709 166.586999 
L 373.438364 161.790538 
L 366.952921 158.945759 
L 359.895179 158.360938 
L 353.029954 160.099449 
L 347.1012 163.972898 
L 342.751388 169.561535 
L 340.451889 176.259747 
L 340.451889 183.341677 
L 342.751388 190.039889 
L 347.1012 195.628527 
L 353.029954 199.501975 
L 359.895179 201.240487 
L 366.952921 200.655665 
L 373.438364 197.810886 
L 378.648709 193.014426 
L 382.019335 186.786054 
L 383.184983 179.800712 
" style="fill:none;stroke:#000000;stroke-dasharray:5.55,2.4;stroke-dashoffset:0;stroke-width:1.5;"/>
   </g>
   <g id="line2d_92">
    <path clip-path="url(#p2ee206b8b1)" d="M 367.587874 179.800712 
L 367.267321 177.879743 
L 366.340399 176.166941 
L 364.907554 174.847914 
L 363.124057 174.0656 
L 361.183178 173.904774 
L 359.295241 174.382865 
L 357.664834 175.448063 
L 356.468636 176.984939 
L 355.836274 178.826947 
L 355.836274 180.774478 
L 356.468636 182.616486 
L 357.664834 184.153361 
L 359.295241 185.21856 
L 361.183178 185.69665 
L 363.124057 185.535824 
L 364.907554 184.75351 
L 366.340399 183.434483 
L 367.267321 181.721681 
L 367.587874 179.800712 
" style="fill:none;stroke:#ff0000;stroke-linecap:square;stroke-width:1.5;"/>
   </g>
   <g id="line2d_93">
    <path clip-path="url(#p2ee206b8b1)" d="M 336.426201 229.069213 
L 335.260554 222.083872 
L 331.889928 215.8555 
L 326.679582 211.059039 
L 320.19414 208.21426 
L 313.136398 207.629439 
L 306.271173 209.36795 
L 300.342418 213.241399 
L 295.992607 218.830037 
L 293.693108 225.528248 
L 293.693108 232.610178 
L 295.992607 239.30839 
L 300.342418 244.897028 
L 306.271173 248.770477 
L 313.136398 250.508988 
L 320.19414 249.924167 
L 326.679582 247.079388 
L 331.889928 242.282927 
L 335.260554 236.054555 
L 336.426201 229.069213 
" style="fill:none;stroke:#000000;stroke-dasharray:5.55,2.4;stroke-dashoffset:0;stroke-width:1.5;"/>
   </g>
   <g id="line2d_94">
    <path clip-path="url(#p2ee206b8b1)" d="M 320.829093 229.069213 
L 320.50854 227.148244 
L 319.581618 225.435442 
L 318.148773 224.116415 
L 316.365276 223.334101 
L 314.424397 223.173275 
L 312.53646 223.651366 
L 310.906053 224.716564 
L 309.709854 226.25344 
L 309.077492 228.095448 
L 309.077492 230.042979 
L 309.709854 231.884987 
L 310.906053 233.421862 
L 312.53646 234.487061 
L 314.424397 234.965151 
L 316.365276 234.804325 
L 318.148773 234.022011 
L 319.581618 232.702985 
L 320.50854 230.990182 
L 320.829093 229.069213 
" style="fill:none;stroke:#ff0000;stroke-linecap:square;stroke-width:1.5;"/>
   </g>
   <g id="line2d_95">
    <path clip-path="url(#p2ee206b8b1)" d="M 310.510086 230.186241 
L 309.344439 223.2009 
L 305.973813 216.972528 
L 300.763467 212.176067 
L 294.278025 209.331288 
L 287.220283 208.746467 
L 280.355058 210.484978 
L 274.426304 214.358427 
L 270.076492 219.947065 
L 267.776993 226.645276 
L 267.776993 233.727206 
L 270.076492 240.425418 
L 274.426304 246.014056 
L 280.355058 249.887505 
L 287.220283 251.626016 
L 294.278025 251.041195 
L 300.763467 248.196416 
L 305.973813 243.399955 
L 309.344439 237.171583 
L 310.510086 230.186241 
" style="fill:none;stroke:#000000;stroke-dasharray:5.55,2.4;stroke-dashoffset:0;stroke-width:1.5;"/>
   </g>
   <g id="line2d_96">
    <path clip-path="url(#p2ee206b8b1)" d="M 294.912978 230.186241 
L 294.592425 228.265272 
L 293.665503 226.55247 
L 292.232658 225.233443 
L 290.449161 224.451129 
L 288.508282 224.290303 
L 286.620345 224.768394 
L 284.989938 225.833592 
L 283.79374 227.370468 
L 283.161377 229.212476 
L 283.161377 231.160007 
L 283.79374 233.002015 
L 284.989938 234.53889 
L 286.620345 235.604089 
L 288.508282 236.082179 
L 290.449161 235.921353 
L 292.232658 235.139039 
L 293.665503 233.820013 
L 294.592425 232.10721 
L 294.912978 230.186241 
" style="fill:none;stroke:#ff0000;stroke-linecap:square;stroke-width:1.5;"/>
   </g>
   <g id="line2d_97">
    <path clip-path="url(#p2ee206b8b1)" d="M 283.778398 241.097322 
L 282.612751 234.11198 
L 279.242124 227.883608 
L 274.031779 223.087148 
L 267.546336 220.242369 
L 260.488595 219.657547 
L 253.62337 221.396059 
L 247.694615 225.269507 
L 243.344804 230.858145 
L 241.045305 237.556357 
L 241.045305 244.638287 
L 243.344804 251.336499 
L 247.694615 256.925136 
L 253.62337 260.798585 
L 260.488595 262.537096 
L 267.546336 261.952275 
L 274.031779 259.107496 
L 279.242124 254.311035 
L 282.612751 248.082664 
L 283.778398 241.097322 
" style="fill:none;stroke:#000000;stroke-dasharray:5.55,2.4;stroke-dashoffset:0;stroke-width:1.5;"/>
   </g>
   <g id="line2d_98">
    <path clip-path="url(#p2ee206b8b1)" d="M 268.18129 241.097322 
L 267.860737 239.176353 
L 266.933814 237.463551 
L 265.500969 236.144524 
L 263.717473 235.36221 
L 261.776594 235.201384 
L 259.888657 235.679474 
L 258.258249 236.744673 
L 257.062051 238.281548 
L 256.429689 240.123556 
L 256.429689 242.071087 
L 257.062051 243.913095 
L 258.258249 245.449971 
L 259.888657 246.515169 
L 261.776594 246.99326 
L 263.717473 246.832434 
L 265.500969 246.05012 
L 266.933814 244.731093 
L 267.860737 243.018291 
L 268.18129 241.097322 
" style="fill:none;stroke:#ff0000;stroke-linecap:square;stroke-width:1.5;"/>
   </g>
   <g id="line2d_99">
    <path clip-path="url(#p2ee206b8b1)" d="M 98.891566 487.188434 
L 98.891566 94.571566 
" style="fill:none;stroke:#000000;stroke-linecap:square;stroke-width:4;"/>
   </g>
   <g id="line2d_100">
    <path clip-path="url(#p2ee206b8b1)" d="M 98.891566 94.571566 
L 491.508434 94.571566 
" style="fill:none;stroke:#000000;stroke-linecap:square;stroke-width:4;"/>
   </g>
   <g id="line2d_101">
    <path clip-path="url(#p2ee206b8b1)" d="M 491.508434 94.571566 
L 491.508434 487.188434 
" style="fill:none;stroke:#000000;stroke-linecap:square;stroke-width:4;"/>
   </g>
   <g id="line2d_102">
    <path clip-path="url(#p2ee206b8b1)" d="M 491.508434 487.188434 
L 98.891566 487.188434 
" style="fill:none;stroke:#000000;stroke-linecap:square;stroke-width:4;"/>
   </g>
   <g id="line2d_103">
    <path clip-path="url(#p2ee206b8b1)" d="M 129.063904 442.763566 
L 128.956337 442.817349 
L 129.063904 442.763566 
L 129.332819 442.548434 
L 129.978217 441.849253 
L 130.731181 440.558458 
L 131.215229 439.05253 
L 131.430361 437.116337 
L 131.269012 432.813687 
L 131.537928 427.811855 
L 131.269012 425.445398 
L 130.408482 423.186506 
L 127.826892 418.883855 
L 126.858795 416.840096 
L 125.191518 412.537446 
L 124.115855 410.493687 
L 123.201542 408.127229 
L 122.717494 405.760771 
L 122.12588 403.448096 
L 121.910747 401.404337 
L 122.12588 398.930313 
L 122.771277 394.520096 
L 123.040193 389.518265 
L 124.062072 378.062458 
L 124.438554 373.490892 
L 124.062072 371.070651 
L 123.201542 368.865542 
L 120.028337 363.541012 
L 119.114024 361.497253 
L 115.887036 355.204627 
L 114.112193 351.278458 
L 108.518747 339.284819 
L 106.528771 334.605687 
L 105.722024 332.185446 
L 105.076627 329.765205 
L 104.538795 327.291181 
L 104.10853 322.934747 
L 104.10853 318.578313 
L 104.377446 316.050506 
L 105.291759 311.425157 
L 105.883373 309.327614 
L 106.69012 306.907373 
L 107.604434 304.594699 
L 109.809542 300.023133 
L 110.938988 297.818024 
L 111.584386 295.774265 
L 111.907084 293.891855 
L 112.229783 291.256482 
L 112.606265 289.374072 
L 114.434892 282.113349 
L 121.211566 254.199904 
L 131.161446 213.10959 
L 133.366554 204.020241 
L 141.70294 169.545253 
L 142.186988 167.447711 
L 142.186988 167.447711 
" style="fill:none;stroke:#8000ff;stroke-linecap:square;stroke-width:1.5;"/>
   </g>
   <g id="line2d_104">
    <path clip-path="url(#p2ee206b8b1)" d="M 192.743133 132.05841 
L 193.442313 132.05841 
L 195.163373 132.273542 
L 197.529831 133.026506 
L 199.143325 133.887036 
L 200.703036 134.693783 
L 202.908145 135.554313 
L 204.951904 136.253494 
L 206.94188 137.006458 
L 209.308337 137.920771 
L 211.621012 138.888867 
L 213.933687 139.749398 
L 215.977446 140.556145 
L 218.29012 141.470458 
L 220.656578 142.384771 
L 222.969253 143.299084 
L 225.335711 144.213398 
L 227.325687 145.020145 
L 229.315663 145.773108 
L 231.628337 146.687422 
L 233.672096 147.494169 
L 235.984771 148.408482 
L 238.351229 149.322795 
L 240.341205 150.075759 
L 242.331181 150.882506 
L 244.267373 151.689253 
L 246.472482 152.980048 
L 248.247325 154.593542 
L 250.129735 156.153253 
L 252.065928 157.175133 
L 254.486169 158.304578 
L 256.90641 159.70294 
L 258.681253 160.832386 
L 260.617446 161.692916 
L 262.876337 162.44588 
L 264.920096 163.198843 
L 267.340337 164.382072 
L 269.599229 165.403952 
L 271.589205 166.103133 
L 273.955663 166.90988 
L 276.268337 167.77041 
L 278.312096 168.523373 
L 280.678554 169.383904 
L 283.045012 170.244434 
L 285.357687 171.104964 
L 287.401446 171.857928 
L 289.445205 172.557108 
L 291.435181 173.310072 
L 293.801639 174.170602 
L 296.168096 175.031133 
L 298.211855 175.730313 
L 300.578313 176.590843 
L 302.944771 177.451373 
L 304.934747 178.150554 
L 307.301205 179.011084 
L 309.667663 179.871614 
L 312.03412 180.732145 
L 314.293012 181.646458 
L 316.49812 183.098602 
L 318.111614 184.60453 
L 319.671325 186.32559 
L 321.446169 187.885301 
L 323.113446 189.22988 
L 324.619373 190.897157 
L 325.802602 192.779566 
L 327.362313 195.092241 
L 329.083373 196.974651 
L 330.858217 198.534361 
L 332.79441 199.71759 
L 334.999518 201.062169 
L 336.881928 202.890795 
L 338.172723 204.719422 
L 339.624867 206.709398 
L 341.184578 208.269108 
L 343.228337 209.50612 
L 345.487229 210.312867 
L 347.74612 210.581783 
L 350.381494 211.012048 
L 352.479036 211.711229 
L 355.060627 212.571759 
L 357.265735 212.894458 
L 359.685976 212.786892 
L 362.375133 212.41041 
L 365.171855 212.302843 
L 367.48453 212.625542 
L 369.958554 213.055807 
L 372.325012 213.002024 
L 374.799036 212.517976 
L 377.219277 212.141494 
L 380.016 212.302843 
L 382.328675 212.41041 
L 384.748916 212.087711 
L 386.738892 211.657446 
L 388.782651 211.38853 
L 391.52559 211.496096 
L 393.892048 211.603663 
" style="fill:none;stroke:#376ff9;stroke-linecap:square;stroke-width:1.5;"/>
   </g>
   <g id="line2d_105">
    <path clip-path="url(#p2ee206b8b1)" d="M 125.998265 269.689446 
L 126.643663 269.689446 
L 128.364723 269.958361 
L 130.247133 270.549976 
L 136.324627 273.615614 
L 140.627277 275.444241 
L 147.457735 278.617446 
L 166.012916 287.115181 
L 172.574458 290.073253 
L 174.510651 290.557301 
L 176.55441 290.718651 
L 178.27547 290.503518 
L 182.900819 289.212723 
L 187.579952 288.782458 
L 190.053976 288.13706 
L 192.312867 287.061398 
L 194.517976 285.878169 
L 196.615518 285.178988 
L 201.187084 284.53359 
L 203.499759 283.780627 
L 205.274602 282.81253 
L 207.587277 281.683084 
L 209.792386 281.037687 
L 211.567229 280.822554 
L 213.342072 280.983904 
L 215.170699 281.575518 
L 216.945542 282.597398 
L 218.774169 283.941976 
L 220.871711 285.340337 
L 227.325687 289.105157 
L 237.114217 295.021301 
L 239.104193 296.150747 
L 240.556337 296.581012 
L 242.546313 296.796145 
L 244.106024 296.688578 
L 246.096 296.419663 
L 249.69947 296.527229 
L 252.765108 297.011277 
L 254.647518 297.172627 
L 256.422361 297.06506 
L 258.143422 296.527229 
L 259.972048 295.451566 
L 261.693108 293.838072 
L 262.876337 292.170795 
L 264.005783 289.320289 
L 264.113349 288.513542 
L 264.382265 286.093301 
L 264.920096 284.264675 
L 266.049542 282.274699 
L 268.523566 279.316627 
L 269.706795 277.434217 
L 270.99759 274.207229 
L 271.212723 274.153446 
L 271.15894 274.153446 
L 271.804337 274.099663 
L 272.987566 274.207229 
L 273.90188 274.74506 
L 275.031325 275.76694 
L 276.214554 277.219084 
L 276.644819 278.294747 
L 276.859952 279.585542 
L 276.752386 281.09147 
L 276.752386 283.242795 
L 277.128867 285.232771 
L 278.043181 287.43788 
L 279.22641 289.15894 
L 281.001253 290.772434 
L 284.766072 293.192675 
L 289.71412 298.194506 
L 296.759711 304.379566 
L 317.950265 323.096096 
L 321.607518 325.086072 
L 323.274795 326.376867 
L 326.501783 329.603855 
L 335.053301 336.972145 
L 339.571084 340.84453 
L 350.973108 351.170892 
L 357.803566 357.463518 
L 364.956723 364.02506 
L 394.26853 390.916627 
L 394.26853 390.916627 
" style="fill:none;stroke:#12c7e6;stroke-linecap:square;stroke-width:1.5;"/>
   </g>
   <g id="line2d_106">
    <path clip-path="url(#p2ee206b8b1)" d="M 181.610024 335.143518 
L 182.201639 335.143518 
L 183.922699 335.304867 
L 186.289157 335.896482 
L 188.601831 336.649446 
L 190.968289 337.348627 
L 193.012048 337.778892 
L 195.432289 338.370506 
L 197.529831 338.908337 
L 199.950072 339.499952 
L 202.208964 339.984 
L 204.252723 340.091566 
L 206.672964 340.306699 
L 209.039422 340.952096 
L 211.40588 341.70506 
L 213.879904 342.027759 
L 215.977446 342.296675 
L 218.45147 342.888289 
L 220.871711 343.641253 
L 223.238169 344.340434 
L 225.712193 344.932048 
L 228.132434 345.577446 
L 230.229976 346.115277 
L 232.650217 346.706892 
L 235.070458 347.352289 
L 237.168 347.89012 
L 239.588241 348.535518 
L 241.416867 349.019566 
L 241.739566 349.073349 
L 241.632 349.073349 
L 241.632 349.073349 
L 242.008482 348.912 
L 242.438747 348.804434 
L 242.600096 348.804434 
L 242.546313 348.804434 
L 242.707663 348.858217 
L 244.37494 349.449831 
L 246.257349 350.686843 
L 247.924627 352.246554 
L 249.484337 353.644916 
L 251.58188 354.828145 
L 253.518072 355.473542 
L 255.830747 356.280289 
L 258.143422 357.571084 
L 260.025831 359.345928 
L 261.477976 361.335904 
L 262.822554 363.056964 
L 264.597398 364.616675 
L 266.69494 365.799904 
L 268.631133 366.391518 
L 271.105157 367.036916 
L 273.417831 367.78988 
L 275.62294 368.596627 
L 277.989398 369.242024 
L 280.194506 369.726072 
L 282.82988 370.586602 
L 284.766072 371.716048 
L 286.218217 372.95306 
L 288.15441 374.458988 
L 290.036819 375.427084 
L 292.349494 376.55653 
L 294.231904 377.632193 
L 296.490795 378.922988 
L 298.695904 379.998651 
L 301.008578 381.02053 
L 303.26747 382.096193 
L 305.203663 383.010506 
L 307.193639 383.871036 
L 309.398747 384.731566 
L 311.657639 385.161831 
L 313.755181 385.215614 
L 315.906506 385.269398 
L 318.434313 385.592096 
L 320.908337 385.968578 
L 323.382361 386.291277 
L 325.479904 386.560193 
L 328.007711 386.829108 
L 330.159036 387.098024 
L 332.63306 387.420723 
L 335.107084 387.743422 
L 337.25841 388.012337 
L 339.409735 388.281253 
L 341.883759 388.550169 
L 344.357783 388.872867 
L 346.509108 389.141783 
L 348.983133 389.464482 
L 351.51094 389.787181 
L 353.984964 390.056096 
L 356.458988 390.378795 
L 358.610313 390.647711 
L 361.084337 390.97041 
L 363.235663 391.239325 
L 365.386988 391.508241 
L 367.48453 391.777157 
L 370.012337 392.046072 
L 372.10988 392.314988 
L 374.637687 392.637687 
L 376.735229 392.906602 
L 378.886554 393.175518 
L 381.03788 393.444434 
L 383.511904 393.713349 
L 385.663229 393.982265 
L 388.137253 394.304964 
L 390.611277 394.627663 
L 392.762602 394.896578 
L 395.236627 395.219277 
L 397.764434 395.488193 
L 400.238458 395.810892 
L 402.712482 396.13359 
L 404.863807 396.402506 
L 407.337831 396.671422 
L 409.811855 396.99412 
L 412.339663 397.316819 
L 414.437205 397.585735 
L 416.534747 397.800867 
L 418.686072 398.069783 
L 421.160096 398.338699 
L 423.63412 398.607614 
L 425.785446 398.87653 
L 427.936771 399.091663 
L 430.410795 399.360578 
L 432.56212 399.629494 
L 434.713446 399.844627 
L 437.18747 400.167325 
L 439.715277 400.490024 
" style="fill:none;stroke:#5bf9c7;stroke-linecap:square;stroke-width:1.5;"/>
   </g>
   <g id="line2d_107">
    <path clip-path="url(#p2ee206b8b1)" d="M 279.818024 432.86747 
L 279.602892 432.975036 
L 279.656675 432.921253 
L 279.92559 432.652337 
L 280.248289 432.060723 
L 280.678554 430.877494 
L 280.839904 429.425349 
L 280.624771 427.274024 
L 278.688578 420.551133 
L 278.36588 418.61494 
L 278.36588 416.033349 
L 279.333976 411.461783 
L 279.387759 409.418024 
L 279.172627 407.374265 
L 279.118843 404.900241 
L 279.333976 402.426217 
L 279.387759 399.629494 
L 279.011277 397.263036 
L 278.419663 394.57388 
L 278.096964 392.368771 
L 277.881831 389.787181 
L 278.258313 387.20559 
L 279.172627 384.785349 
L 281.754217 380.590265 
L 282.66853 378.331373 
L 283.421494 375.749783 
L 284.38959 373.168193 
L 285.841735 370.801735 
L 287.024964 368.542843 
L 287.724145 366.230169 
L 288.208193 363.863711 
L 289.01494 361.497253 
L 291.112482 357.678651 
L 291.435181 356.549205 
L 291.542747 354.935711 
L 291.166265 352.569253 
L 289.606554 348.05147 
L 289.122506 345.30853 
L 289.068723 342.511807 
L 288.85359 339.661301 
L 288.261976 337.24106 
L 287.509012 334.820819 
L 286.272 330.303036 
L 284.658506 325.73147 
L 284.228241 323.472578 
L 284.228241 320.837205 
L 284.712289 318.632096 
L 286.433349 314.598361 
L 286.863614 312.608386 
L 287.240096 306.315759 
L 287.777928 304.433349 
L 288.746024 302.066892 
L 289.230072 300.023133 
L 290.036819 295.828048 
L 290.843566 293.999422 
L 292.349494 291.848096 
L 296.06053 288.405976 
L 296.329446 287.868145 
L 296.598361 286.846265 
L 296.598361 285.501687 
L 296.329446 283.83441 
L 295.845398 281.521735 
L 295.899181 281.360386 
L 296.437012 280.284723 
L 297.512675 279.047711 
L 300.094265 276.788819 
L 300.739663 275.982072 
L 301.169928 275.175325 
L 301.438843 273.992096 
L 301.761542 268.936482 
L 301.869108 266.516241 
L 302.138024 264.042217 
L 302.138024 261.675759 
L 301.653976 259.363084 
L 300.578313 257.211759 
L 299.072386 255.329349 
L 295.522699 252.640193 
L 293.694072 250.757783 
L 292.510843 248.875373 
L 291.865446 247.10053 
L 291.919229 246.939181 
L 292.080578 246.777831 
L 292.564627 246.562699 
L 294.769735 246.078651 
L 297.405108 246.024867 
L 299.610217 246.455133 
L 301.976675 247.530795 
L 304.074217 249.090506 
L 305.472578 250.650217 
L 307.193639 252.317494 
L 309.237398 253.554506 
L 311.119807 254.199904 
L 313.432482 255.168 
L 315.530024 256.673928 
L 316.820819 258.072289 
L 317.143518 258.663904 
L 317.412434 259.524434 
L 317.466217 260.384964 
L 317.197301 261.890892 
L 315.852723 265.870843 
L 315.583807 267.807036 
L 315.691373 272.055904 
L 315.852723 273.131566 
L 316.551904 275.713157 
L 316.282988 276.788819 
L 315.852723 277.380434 
L 315.63759 277.488 
L 314.615711 277.649349 
L 313.540048 277.649349 
L 312.141687 277.326651 
L 310.47441 276.519904 
L 308.699566 275.121542 
L 304.181783 269.635663 
L 299.126169 265.440578 
L 293.694072 260.331181 
L 291.704096 259.094169 
L 289.391422 258.287422 
L 287.024964 258.072289 
L 284.981205 258.341205 
L 283.045012 258.986602 
L 281.270169 260.008482 
L 279.387759 261.621976 
L 277.666699 262.858988 
L 275.300241 263.988434 
L 273.148916 264.472482 
L 270.943807 264.848964 
L 268.469783 265.386795 
L 266.210892 266.354892 
L 263.736867 267.161639 
L 261.531759 267.376771 
L 257.713157 267.107855 
L 255.561831 267.269205 
L 253.571855 267.53812 
L 250.990265 267.53812 
L 248.462458 267.000289 
L 246.472482 266.247325 
L 244.267373 265.548145 
L 239.74959 264.795181 
L 237.652048 263.934651 
L 232.004819 260.546313 
L 229.530795 259.309301 
L 227.809735 257.857157 
L 226.35759 256.136096 
L 225.174361 253.823422 
L 224.475181 251.349398 
L 224.260048 248.875373 
L 223.937349 246.616482 
L 223.184386 244.303807 
L 222.538988 241.883566 
L 222.377639 239.624675 
L 222.377639 237.634699 
L 222.05494 235.322024 
L 220.817928 231.019373 
L 220.710361 228.437783 
L 221.517108 223.489735 
L 221.570892 221.392193 
L 220.710361 216.121446 
L 220.817928 213.539855 
L 220.764145 211.065831 
L 220.602795 209.022072 
L 220.549012 206.816964 
L 221.140627 200.147855 
L 221.463325 195.146024 
L 221.839807 190.144193 
L 222.807904 176.590843 
L 223.023036 174.063036 
L 223.023036 174.063036 
" style="fill:none;stroke:#a4f99f;stroke-linecap:square;stroke-width:1.5;"/>
   </g>
   <g id="line2d_108">
    <path clip-path="url(#p2ee206b8b1)" d="M 437.671518 178.795952 
L 437.940434 178.903518 
L 438.155566 179.064867 
L 438.370699 180.032964 
L 438.370699 181.269976 
L 437.940434 183.044819 
L 437.133687 184.712096 
L 435.681542 186.702072 
L 432.777253 189.821494 
L 426.968675 197.404916 
L 418.040675 208.64559 
L 404.702458 225.533494 
L 402.927614 227.631036 
L 400.883855 229.459663 
L 396.688771 231.879904 
L 394.806361 233.439614 
L 392.870169 235.322024 
L 391.202892 236.774169 
L 389.481831 238.064964 
L 387.975904 239.517108 
L 384.910265 242.905446 
L 383.296771 244.465157 
L 381.683277 246.347566 
L 380.392482 248.337542 
L 379.478169 250.596434 
L 378.510072 255.436916 
L 378.187373 257.964723 
L 378.241157 260.331181 
L 378.13359 262.21359 
L 377.326843 266.085976 
L 377.165494 270.818892 
L 376.842795 272.539952 
L 375.982265 274.529928 
L 375.982265 274.314795 
L 375.928482 274.207229 
L 376.089831 274.422361 
L 377.43441 275.874506 
L 379.316819 277.326651 
L 381.521928 278.240964 
L 383.888386 278.617446 
L 388.029687 278.671229 
L 390.611277 279.316627 
L 392.923952 280.499855 
L 394.913928 282.220916 
L 396.258506 283.995759 
L 397.334169 286.362217 
L 397.872 288.943807 
L 397.818217 291.202699 
L 397.119036 295.290217 
L 397.226602 297.333976 
L 398.140916 301.636627 
L 398.194699 304.325783 
L 397.226602 309.220048 
L 397.280386 311.640289 
L 397.872 314.006747 
L 398.840096 316.265639 
L 399.700627 318.578313 
L 400.238458 320.890988 
L 400.292241 323.14988 
L 399.75441 325.73147 
L 398.678747 328.097928 
L 397.065253 330.141687 
L 395.021494 331.808964 
L 391.149108 334.014072 
L 387.599422 337.24106 
L 383.727036 339.876434 
L 381.73706 341.167229 
L 379.478169 342.242892 
L 377.757108 342.834506 
L 375.498217 343.748819 
L 373.723373 344.878265 
L 370.335036 347.513639 
L 335.698699 371.769831 
L 327.900145 377.41706 
L 319.994024 383.118072 
L 306.171759 392.69147 
L 300.255614 396.778988 
L 282.883663 408.772627 
L 280.94747 410.224771 
L 279.387759 412.053398 
L 277.344 415.925783 
L 275.676723 417.969542 
L 270.13706 422.487325 
L 268.577349 423.93947 
L 266.479807 425.499181 
L 264.489831 426.467277 
L 262.714988 427.489157 
L 259.219084 430.232096 
L 257.336675 431.200193 
L 255.454265 432.00694 
L 253.30294 433.082602 
L 251.42053 434.373398 
L 249.269205 435.556627 
L 245.289253 436.954988 
L 243.460627 437.976867 
L 241.900916 439.106313 
L 239.803373 440.343325 
L 235.393157 441.956819 
L 233.349398 443.193831 
L 233.349398 443.193831 
" style="fill:none;stroke:#edc76f;stroke-linecap:square;stroke-width:1.5;"/>
   </g>
   <g id="line2d_109">
    <path clip-path="url(#p2ee206b8b1)" d="M 298.695904 300.453398 
L 298.911036 300.507181 
L 300.363181 300.776096 
L 301.492627 301.313928 
L 303.482602 302.604723 
L 305.14988 304.325783 
L 306.440675 305.99306 
L 308.323084 308.090602 
L 309.775229 309.59653 
L 310.743325 310.672193 
L 312.19547 312.231904 
L 313.91653 314.114313 
L 315.852723 316.211855 
L 317.304867 317.771566 
L 318.757012 319.38506 
L 320.478072 321.213687 
L 322.145349 323.042313 
L 323.86641 324.924723 
L 325.318554 326.484434 
L 327.254747 328.581976 
L 328.706892 330.19547 
L 330.643084 332.293012 
L 332.095229 333.906506 
L 333.816289 335.735133 
L 334.999518 337.025928 
L 336.720578 338.908337 
L 338.441639 340.736964 
L 340.108916 342.619373 
L 341.829976 344.448 
L 343.497253 346.276627 
L 345.433446 348.374169 
L 346.670458 349.718747 
L 348.391518 351.547373 
L 350.058795 353.429783 
L 351.295807 354.720578 
L 352.963084 356.602988 
L 354.415229 358.162699 
L 356.136289 359.991325 
L 357.857349 361.873735 
L 359.309494 363.433446 
L 360.761639 365.04694 
L 362.428916 366.875566 
L 363.665928 368.166361 
L 365.386988 370.048771 
L 367.054265 371.877398 
L 368.775325 373.759807 
L 370.22747 375.319518 
L 371.679614 376.879229 
L 373.346892 378.761639 
L 375.283084 380.859181 
L 376.789012 382.418892 
L 378.456289 384.301301 
L 379.908434 385.861012 
L 381.844627 387.958554 
L 383.296771 389.572048 
L 385.232964 391.66959 
L 386.738892 393.283084 
L 388.675084 395.380627 
L 389.858313 396.671422 
L 391.310458 398.284916 
L 393.031518 400.113542 
L 394.483663 401.727036 
L 395.666892 403.017831 
L 397.172819 404.631325 
L 398.840096 406.459952 
L 400.776289 408.557494 
L 402.228434 410.170988 
L 403.680578 411.730699 
L 405.670554 413.828241 
L 407.337831 415.710651 
L 408.789976 417.270361 
L 410.24212 418.883855 
L 411.963181 420.712482 
L 413.899373 422.810024 
L 415.351518 424.423518 
L 416.803663 425.983229 
L 418.255807 427.596723 
L 419.976867 429.425349 
L 421.644145 431.253976 
L 423.365205 433.136386 
L 424.817349 434.696096 
L 426.53841 436.578506 
" style="fill:none;stroke:#ff6f39;stroke-linecap:square;stroke-width:1.5;"/>
   </g>
   <g id="line2d_110">
    <path clip-path="url(#p2ee206b8b1)" d="M 162.086747 403.717012 
L 162.194313 403.717012 
L 162.678361 403.555663 
L 163.592675 403.125398 
L 164.614554 402.318651 
L 165.797783 400.866506 
L 166.712096 399.145446 
L 168.594506 395.004145 
L 173.058506 386.452627 
L 176.661976 379.407036 
L 177.737639 376.986795 
L 180.85706 371.716048 
L 184.998361 363.379663 
L 185.536193 361.066988 
L 185.536193 358.70053 
L 184.62188 353.429783 
L 184.783229 350.848193 
L 185.213494 348.696867 
L 185.48241 346.384193 
L 185.213494 341.113446 
L 186.127807 334.65947 
L 186.558072 332.400578 
L 187.526169 330.19547 
L 188.440482 328.850892 
L 189.462361 327.721446 
L 189.462361 327.721446 
L 191.344771 323.203663 
L 192.689349 321.052337 
L 193.926361 319.38506 
L 193.926361 319.38506 
L 195.324723 316.480771 
L 196.992 313.576482 
L 196.992 313.845398 
L 197.260916 311.962988 
L 197.906313 310.026795 
L 199.089542 307.929253 
L 201.993831 303.841735 
L 212.750458 286.523566 
L 218.397687 277.918265 
L 218.612819 277.649349 
L 218.612819 277.649349 
L 219.796048 276.143422 
L 222.700337 272.808867 
L 224.206265 270.818892 
L 225.281928 268.613783 
L 225.819759 266.623807 
L 226.303807 261.944675 
L 226.787855 259.793349 
L 227.002988 257.480675 
L 226.680289 255.436916 
L 226.088675 253.500723 
L 225.335711 251.672096 
L 224.690313 249.144289 
L 224.528964 247.10053 
L 224.475181 244.572723 
L 223.668434 239.678458 
L 223.722217 237.473349 
L 224.206265 234.945542 
L 224.744096 233.063133 
L 225.174361 231.12694 
L 225.443277 224.834313 
L 226.734072 220.585446 
L 227.433253 215.906313 
L 228.293783 213.432289 
L 230.498892 209.398554 
L 232.166169 204.665639 
L 233.456964 202.406747 
L 236.199904 199.233542 
L 237.275566 197.082217 
L 238.673928 192.779566 
L 239.803373 190.843373 
L 241.255518 189.176096 
L 243.35306 187.616386 
L 245.558169 186.379373 
L 247.655711 185.034795 
L 249.484337 183.690217 
L 251.42053 182.614554 
L 253.840771 181.807807 
L 256.314795 181.16241 
L 258.250988 180.355663 
L 260.402313 179.172434 
L 262.499855 178.365687 
L 266.641157 177.55894 
L 273.148916 175.353831 
L 278.258313 174.816 
L 280.355855 174.170602 
L 282.507181 173.09494 
L 282.507181 173.09494 
" style="fill:none;stroke:#ff0000;stroke-linecap:square;stroke-width:1.5;"/>
   </g>
   <g id="patch_3">
    <path d="M 72 512.64 
L 72 69.12 
" style="fill:none;stroke:#000000;stroke-linecap:square;stroke-linejoin:miter;stroke-width:0.8;"/>
   </g>
   <g id="patch_4">
    <path d="M 518.4 512.64 
L 518.4 69.12 
" style="fill:none;stroke:#000000;stroke-linecap:square;stroke-linejoin:miter;stroke-width:0.8;"/>
   </g>
   <g id="patch_5">
    <path d="M 72 512.64 
L 518.4 512.64 
" style="fill:none;stroke:#000000;stroke-linecap:square;stroke-linejoin:miter;stroke-width:0.8;"/>
   </g>
   <g id="patch_6">
    <path d="M 72 69.12 
L 518.4 69.12 
" style="fill:none;stroke:#000000;stroke-linecap:square;stroke-linejoin:miter;stroke-width:0.8;"/>
   </g>
   <g id="text_18">
    <!-- 1 -->
    <defs>
     <path d="M 14.203125 0 
L 14.203125 5.171875 
L 26.90625 5.171875 
L 26.90625 65.828125 
L 12.203125 56.296875 
L 12.203125 62.703125 
L 29.984375 74.21875 
L 36.71875 74.21875 
L 36.71875 5.171875 
L 49.421875 5.171875 
L 49.421875 0 
z
" id="DejaVuSerif-31"/>
    </defs>
    <g transform="translate(125.879469 442.779241)scale(0.1 -0.1)">
     <use xlink:href="#DejaVuSerif-31"/>
    </g>
   </g>
   <g id="text_19">
    <!-- 1 -->
    <g transform="translate(139.677864 164.772056)scale(0.1 -0.1)">
     <use xlink:href="#DejaVuSerif-31"/>
    </g>
   </g>
   <g id="text_20">
    <!-- 2 -->
    <defs>
     <path d="M 12.796875 55.515625 
L 7.328125 55.515625 
L 7.328125 68.5 
Q 12.546875 71.296875 17.84375 72.75 
Q 23.140625 74.21875 28.21875 74.21875 
Q 39.59375 74.21875 46.1875 68.703125 
Q 52.78125 63.1875 52.78125 53.71875 
Q 52.78125 43.015625 37.84375 28.125 
Q 36.671875 27 36.078125 26.421875 
L 17.671875 8.015625 
L 48.09375 8.015625 
L 48.09375 17 
L 53.8125 17 
L 53.8125 0 
L 6.78125 0 
L 6.78125 5.328125 
L 28.90625 27.390625 
Q 36.234375 34.71875 39.359375 40.84375 
Q 42.484375 46.96875 42.484375 53.71875 
Q 42.484375 61.078125 38.640625 65.234375 
Q 34.8125 69.390625 28.078125 69.390625 
Q 21.09375 69.390625 17.28125 65.921875 
Q 13.484375 62.453125 12.796875 55.515625 
z
" id="DejaVuSerif-32"/>
    </defs>
    <g transform="translate(189.550846 132.055727)scale(0.1 -0.1)">
     <use xlink:href="#DejaVuSerif-32"/>
    </g>
   </g>
   <g id="text_21">
    <!-- 2 -->
    <g transform="translate(392.949183 211.087209)scale(0.1 -0.1)">
     <use xlink:href="#DejaVuSerif-32"/>
    </g>
   </g>
   <g id="text_22">
    <!-- 3 -->
    <defs>
     <path d="M 9.71875 69.828125 
Q 15.4375 71.96875 20.671875 73.09375 
Q 25.921875 74.21875 30.515625 74.21875 
Q 41.21875 74.21875 47.21875 69.59375 
Q 53.21875 64.984375 53.21875 56.78125 
Q 53.21875 50.203125 49.0625 45.78125 
Q 44.921875 41.359375 37.3125 39.796875 
Q 46.296875 38.53125 51.25 33.28125 
Q 56.203125 28.03125 56.203125 19.671875 
Q 56.203125 9.46875 49.34375 4.015625 
Q 42.484375 -1.421875 29.59375 -1.421875 
Q 23.875 -1.421875 18.421875 -0.1875 
Q 12.984375 1.03125 7.625 3.515625 
L 7.625 17.671875 
L 13.09375 17.671875 
Q 13.578125 10.640625 17.828125 7.03125 
Q 22.078125 3.421875 29.78125 3.421875 
Q 37.25 3.421875 41.578125 7.734375 
Q 45.90625 12.0625 45.90625 19.578125 
Q 45.90625 28.171875 41.453125 32.59375 
Q 37.015625 37.015625 28.421875 37.015625 
L 23.78125 37.015625 
L 23.78125 42 
L 26.21875 42 
Q 34.765625 42 39.03125 45.53125 
Q 43.3125 49.078125 43.3125 56.203125 
Q 43.3125 62.59375 39.796875 65.984375 
Q 36.28125 69.390625 29.6875 69.390625 
Q 23.09375 69.390625 19.453125 66.265625 
Q 15.828125 63.140625 15.1875 56.984375 
L 9.71875 56.984375 
z
" id="DejaVuSerif-33"/>
    </defs>
    <g transform="translate(122.826001 269.694595)scale(0.1 -0.1)">
     <use xlink:href="#DejaVuSerif-33"/>
    </g>
   </g>
   <g id="text_23">
    <!-- 3 -->
    <g transform="translate(392.729601 392.412119)scale(0.1 -0.1)">
     <use xlink:href="#DejaVuSerif-33"/>
    </g>
   </g>
   <g id="text_24">
    <!-- 4 -->
    <defs>
     <path d="M 34.90625 24.703125 
L 34.90625 63.484375 
L 10.015625 24.703125 
z
M 56.390625 0 
L 23.1875 0 
L 23.1875 5.171875 
L 34.90625 5.171875 
L 34.90625 19.484375 
L 3.078125 19.484375 
L 3.078125 24.8125 
L 35.015625 74.21875 
L 44.671875 74.21875 
L 44.671875 24.703125 
L 58.59375 24.703125 
L 58.59375 19.484375 
L 44.671875 19.484375 
L 44.671875 5.171875 
L 56.390625 5.171875 
z
" id="DejaVuSerif-34"/>
    </defs>
    <g transform="translate(178.448878 335.118503)scale(0.1 -0.1)">
     <use xlink:href="#DejaVuSerif-34"/>
    </g>
   </g>
   <g id="text_25">
    <!-- 4 -->
    <g transform="translate(439.246227 401.05091)scale(0.1 -0.1)">
     <use xlink:href="#DejaVuSerif-34"/>
    </g>
   </g>
   <g id="text_26">
    <!-- 5 -->
    <defs>
     <path d="M 50.296875 72.90625 
L 50.296875 64.890625 
L 16.890625 64.890625 
L 16.890625 44 
Q 19.4375 45.75 22.828125 46.625 
Q 26.21875 47.515625 30.421875 47.515625 
Q 42.234375 47.515625 49.0625 40.96875 
Q 55.90625 34.421875 55.90625 23.09375 
Q 55.90625 11.53125 49 5.046875 
Q 42.09375 -1.421875 29.59375 -1.421875 
Q 24.5625 -1.421875 19.28125 -0.1875 
Q 14.015625 1.03125 8.5 3.515625 
L 8.5 17.671875 
L 14.015625 17.671875 
Q 14.453125 10.75 18.421875 7.078125 
Q 22.40625 3.421875 29.59375 3.421875 
Q 37.3125 3.421875 41.453125 8.5 
Q 45.609375 13.578125 45.609375 23.09375 
Q 45.609375 32.5625 41.484375 37.609375 
Q 37.359375 42.671875 29.59375 42.671875 
Q 25.203125 42.671875 21.84375 41.109375 
Q 18.5 39.546875 15.921875 36.28125 
L 11.71875 36.28125 
L 11.71875 72.90625 
z
" id="DejaVuSerif-35"/>
    </defs>
    <g transform="translate(276.661698 432.886338)scale(0.1 -0.1)">
     <use xlink:href="#DejaVuSerif-35"/>
    </g>
   </g>
   <g id="text_27">
    <!-- 5 -->
    <g transform="translate(219.899715 173.055476)scale(0.1 -0.1)">
     <use xlink:href="#DejaVuSerif-35"/>
    </g>
   </g>
   <g id="text_28">
    <!-- 6 -->
    <defs>
     <path d="M 32.71875 3.421875 
Q 39.59375 3.421875 43.296875 8.46875 
Q 47.015625 13.53125 47.015625 23 
Q 47.015625 32.46875 43.296875 37.515625 
Q 39.59375 42.578125 32.71875 42.578125 
Q 25.734375 42.578125 22.0625 37.6875 
Q 18.40625 32.8125 18.40625 23.578125 
Q 18.40625 13.875 22.109375 8.640625 
Q 25.828125 3.421875 32.71875 3.421875 
z
M 16.796875 40.140625 
Q 20.125 43.796875 24.3125 45.59375 
Q 28.515625 47.40625 33.796875 47.40625 
Q 44.671875 47.40625 51 40.859375 
Q 57.328125 34.328125 57.328125 23 
Q 57.328125 11.921875 50.515625 5.25 
Q 43.703125 -1.421875 32.328125 -1.421875 
Q 19.96875 -1.421875 13.328125 7.78125 
Q 6.6875 17 6.6875 34.078125 
Q 6.6875 53.21875 14.546875 63.71875 
Q 22.40625 74.21875 36.71875 74.21875 
Q 40.578125 74.21875 44.828125 73.484375 
Q 49.078125 72.75 53.515625 71.296875 
L 53.515625 59.28125 
L 48 59.28125 
Q 47.40625 64.203125 44.234375 66.796875 
Q 41.0625 69.390625 35.6875 69.390625 
Q 26.21875 69.390625 21.578125 62.203125 
Q 16.9375 55.03125 16.796875 40.140625 
z
" id="DejaVuSerif-36"/>
    </defs>
    <g transform="translate(434.503594 178.814645)scale(0.1 -0.1)">
     <use xlink:href="#DejaVuSerif-36"/>
    </g>
   </g>
   <g id="text_29">
    <!-- 6 -->
    <g transform="translate(228.604649 444.128679)scale(0.1 -0.1)">
     <use xlink:href="#DejaVuSerif-36"/>
    </g>
   </g>
   <g id="text_30">
    <!-- 7 -->
    <defs>
     <path d="M 56.390625 67.921875 
L 27.875 0 
L 20.609375 0 
L 47.796875 64.890625 
L 14.109375 64.890625 
L 14.109375 55.90625 
L 8.40625 55.90625 
L 8.40625 72.90625 
L 56.390625 72.90625 
z
" id="DejaVuSerif-37"/>
    </defs>
    <g transform="translate(295.494605 300.471217)scale(0.1 -0.1)">
     <use xlink:href="#DejaVuSerif-37"/>
    </g>
   </g>
   <g id="text_31">
    <!-- 7 -->
    <g transform="translate(425.474452 438.87994)scale(0.1 -0.1)">
     <use xlink:href="#DejaVuSerif-37"/>
    </g>
   </g>
   <g id="text_32">
    <!-- 8 -->
    <defs>
     <path d="M 46.578125 19.921875 
Q 46.578125 27.734375 42.6875 32.046875 
Q 38.8125 36.375 31.78125 36.375 
Q 24.75 36.375 20.875 32.046875 
Q 17 27.734375 17 19.921875 
Q 17 12.0625 20.875 7.734375 
Q 24.75 3.421875 31.78125 3.421875 
Q 38.8125 3.421875 42.6875 7.734375 
Q 46.578125 12.0625 46.578125 19.921875 
z
M 44.578125 55.328125 
Q 44.578125 61.96875 41.203125 65.671875 
Q 37.84375 69.390625 31.78125 69.390625 
Q 25.78125 69.390625 22.390625 65.671875 
Q 19 61.96875 19 55.328125 
Q 19 48.640625 22.390625 44.921875 
Q 25.78125 41.21875 31.78125 41.21875 
Q 37.84375 41.21875 41.203125 44.921875 
Q 44.578125 48.640625 44.578125 55.328125 
z
M 39.3125 38.8125 
Q 47.609375 37.703125 52.25 32.6875 
Q 56.890625 27.6875 56.890625 19.921875 
Q 56.890625 9.671875 50.390625 4.125 
Q 43.890625 -1.421875 31.78125 -1.421875 
Q 19.734375 -1.421875 13.203125 4.125 
Q 6.6875 9.671875 6.6875 19.921875 
Q 6.6875 27.6875 11.328125 32.6875 
Q 15.96875 37.703125 24.3125 38.8125 
Q 16.9375 40.140625 13 44.40625 
Q 9.078125 48.6875 9.078125 55.328125 
Q 9.078125 64.109375 15.125 69.15625 
Q 21.1875 74.21875 31.78125 74.21875 
Q 42.390625 74.21875 48.4375 69.15625 
Q 54.5 64.109375 54.5 55.328125 
Q 54.5 48.6875 50.5625 44.40625 
Q 46.625 40.140625 39.3125 38.8125 
z
" id="DejaVuSerif-38"/>
    </defs>
    <g transform="translate(158.907205 403.715413)scale(0.1 -0.1)">
     <use xlink:href="#DejaVuSerif-38"/>
    </g>
   </g>
   <g id="text_33">
    <!-- 8 -->
    <g transform="translate(280.635833 172.928161)scale(0.1 -0.1)">
     <use xlink:href="#DejaVuSerif-38"/>
    </g>
   </g>
  </g>
 </g>
 <defs>
  <clipPath id="p2ee206b8b1">
   <rect height="443.52" width="446.4" x="72" y="69.12"/>
  </clipPath>
 </defs>
</svg>
