<?xml version="1.0" encoding="utf-8" standalone="no"?>
<!DOCTYPE svg PUBLIC "-//W3C//DTD SVG 1.1//EN"
  "http://www.w3.org/Graphics/SVG/1.1/DTD/svg11.dtd">
<!-- Created with matplotlib (http://matplotlib.org/) -->
<svg height="576pt" version="1.1" viewBox="0 0 576 576" width="576pt" xmlns="http://www.w3.org/2000/svg" xmlns:xlink="http://www.w3.org/1999/xlink">
 <defs>
  <style type="text/css">
*{stroke-linecap:butt;stroke-linejoin:round;}
  </style>
 </defs>
 <g id="figure_1">
  <g id="patch_1">
   <path d="M 0 576 
L 576 576 
L 576 0 
L 0 0 
z
" style="fill:#ffffff;"/>
  </g>
  <g id="axes_1">
   <g id="patch_2">
    <path d="M 72 512.64 
L 518.4 512.64 
L 518.4 69.12 
L 72 69.12 
z
" style="fill:#ffffff;"/>
   </g>
   <g id="matplotlib.axis_1">
    <g id="xtick_1">
     <g id="line2d_1">
      <defs>
       <path d="M 0 0 
L 0 3.5 
" id="m8888b631fd" style="stroke:#000000;stroke-width:0.8;"/>
      </defs>
      <g>
       <use style="stroke:#000000;stroke-width:0.8;" x="72" xlink:href="#m8888b631fd" y="512.64"/>
      </g>
     </g>
     <g id="text_1">
      <!-- −1 -->
      <defs>
       <path d="M 10.59375 35.5 
L 73.1875 35.5 
L 73.1875 27.203125 
L 10.59375 27.203125 
z
" id="DejaVuSans-2212"/>
       <path d="M 12.40625 8.296875 
L 28.515625 8.296875 
L 28.515625 63.921875 
L 10.984375 60.40625 
L 10.984375 69.390625 
L 28.421875 72.90625 
L 38.28125 72.90625 
L 38.28125 8.296875 
L 54.390625 8.296875 
L 54.390625 0 
L 12.40625 0 
z
" id="DejaVuSans-31"/>
      </defs>
      <g transform="translate(64.628906 527.238438)scale(0.1 -0.1)">
       <use xlink:href="#DejaVuSans-2212"/>
       <use x="83.789062" xlink:href="#DejaVuSans-31"/>
      </g>
     </g>
    </g>
    <g id="xtick_2">
     <g id="line2d_2">
      <g>
       <use style="stroke:#000000;stroke-width:0.8;" x="124.517647" xlink:href="#m8888b631fd" y="512.64"/>
      </g>
     </g>
     <g id="text_2">
      <!-- 0 -->
      <defs>
       <path d="M 31.78125 66.40625 
Q 24.171875 66.40625 20.328125 58.90625 
Q 16.5 51.421875 16.5 36.375 
Q 16.5 21.390625 20.328125 13.890625 
Q 24.171875 6.390625 31.78125 6.390625 
Q 39.453125 6.390625 43.28125 13.890625 
Q 47.125 21.390625 47.125 36.375 
Q 47.125 51.421875 43.28125 58.90625 
Q 39.453125 66.40625 31.78125 66.40625 
z
M 31.78125 74.21875 
Q 44.046875 74.21875 50.515625 64.515625 
Q 56.984375 54.828125 56.984375 36.375 
Q 56.984375 17.96875 50.515625 8.265625 
Q 44.046875 -1.421875 31.78125 -1.421875 
Q 19.53125 -1.421875 13.0625 8.265625 
Q 6.59375 17.96875 6.59375 36.375 
Q 6.59375 54.828125 13.0625 64.515625 
Q 19.53125 74.21875 31.78125 74.21875 
z
" id="DejaVuSans-30"/>
      </defs>
      <g transform="translate(121.336397 527.238438)scale(0.1 -0.1)">
       <use xlink:href="#DejaVuSans-30"/>
      </g>
     </g>
    </g>
    <g id="xtick_3">
     <g id="line2d_3">
      <g>
       <use style="stroke:#000000;stroke-width:0.8;" x="177.035294" xlink:href="#m8888b631fd" y="512.64"/>
      </g>
     </g>
     <g id="text_3">
      <!-- 1 -->
      <g transform="translate(173.854044 527.238438)scale(0.1 -0.1)">
       <use xlink:href="#DejaVuSans-31"/>
      </g>
     </g>
    </g>
    <g id="xtick_4">
     <g id="line2d_4">
      <g>
       <use style="stroke:#000000;stroke-width:0.8;" x="229.552941" xlink:href="#m8888b631fd" y="512.64"/>
      </g>
     </g>
     <g id="text_4">
      <!-- 2 -->
      <defs>
       <path d="M 19.1875 8.296875 
L 53.609375 8.296875 
L 53.609375 0 
L 7.328125 0 
L 7.328125 8.296875 
Q 12.9375 14.109375 22.625 23.890625 
Q 32.328125 33.6875 34.8125 36.53125 
Q 39.546875 41.84375 41.421875 45.53125 
Q 43.3125 49.21875 43.3125 52.78125 
Q 43.3125 58.59375 39.234375 62.25 
Q 35.15625 65.921875 28.609375 65.921875 
Q 23.96875 65.921875 18.8125 64.3125 
Q 13.671875 62.703125 7.8125 59.421875 
L 7.8125 69.390625 
Q 13.765625 71.78125 18.9375 73 
Q 24.125 74.21875 28.421875 74.21875 
Q 39.75 74.21875 46.484375 68.546875 
Q 53.21875 62.890625 53.21875 53.421875 
Q 53.21875 48.921875 51.53125 44.890625 
Q 49.859375 40.875 45.40625 35.40625 
Q 44.1875 33.984375 37.640625 27.21875 
Q 31.109375 20.453125 19.1875 8.296875 
z
" id="DejaVuSans-32"/>
      </defs>
      <g transform="translate(226.371691 527.238438)scale(0.1 -0.1)">
       <use xlink:href="#DejaVuSans-32"/>
      </g>
     </g>
    </g>
    <g id="xtick_5">
     <g id="line2d_5">
      <g>
       <use style="stroke:#000000;stroke-width:0.8;" x="282.070588" xlink:href="#m8888b631fd" y="512.64"/>
      </g>
     </g>
     <g id="text_5">
      <!-- 3 -->
      <defs>
       <path d="M 40.578125 39.3125 
Q 47.65625 37.796875 51.625 33 
Q 55.609375 28.21875 55.609375 21.1875 
Q 55.609375 10.40625 48.1875 4.484375 
Q 40.765625 -1.421875 27.09375 -1.421875 
Q 22.515625 -1.421875 17.65625 -0.515625 
Q 12.796875 0.390625 7.625 2.203125 
L 7.625 11.71875 
Q 11.71875 9.328125 16.59375 8.109375 
Q 21.484375 6.890625 26.8125 6.890625 
Q 36.078125 6.890625 40.9375 10.546875 
Q 45.796875 14.203125 45.796875 21.1875 
Q 45.796875 27.640625 41.28125 31.265625 
Q 36.765625 34.90625 28.71875 34.90625 
L 20.21875 34.90625 
L 20.21875 43.015625 
L 29.109375 43.015625 
Q 36.375 43.015625 40.234375 45.921875 
Q 44.09375 48.828125 44.09375 54.296875 
Q 44.09375 59.90625 40.109375 62.90625 
Q 36.140625 65.921875 28.71875 65.921875 
Q 24.65625 65.921875 20.015625 65.03125 
Q 15.375 64.15625 9.8125 62.3125 
L 9.8125 71.09375 
Q 15.4375 72.65625 20.34375 73.4375 
Q 25.25 74.21875 29.59375 74.21875 
Q 40.828125 74.21875 47.359375 69.109375 
Q 53.90625 64.015625 53.90625 55.328125 
Q 53.90625 49.265625 50.4375 45.09375 
Q 46.96875 40.921875 40.578125 39.3125 
z
" id="DejaVuSans-33"/>
      </defs>
      <g transform="translate(278.889338 527.238438)scale(0.1 -0.1)">
       <use xlink:href="#DejaVuSans-33"/>
      </g>
     </g>
    </g>
    <g id="xtick_6">
     <g id="line2d_6">
      <g>
       <use style="stroke:#000000;stroke-width:0.8;" x="334.588235" xlink:href="#m8888b631fd" y="512.64"/>
      </g>
     </g>
     <g id="text_6">
      <!-- 4 -->
      <defs>
       <path d="M 37.796875 64.3125 
L 12.890625 25.390625 
L 37.796875 25.390625 
z
M 35.203125 72.90625 
L 47.609375 72.90625 
L 47.609375 25.390625 
L 58.015625 25.390625 
L 58.015625 17.1875 
L 47.609375 17.1875 
L 47.609375 0 
L 37.796875 0 
L 37.796875 17.1875 
L 4.890625 17.1875 
L 4.890625 26.703125 
z
" id="DejaVuSans-34"/>
      </defs>
      <g transform="translate(331.406985 527.238438)scale(0.1 -0.1)">
       <use xlink:href="#DejaVuSans-34"/>
      </g>
     </g>
    </g>
    <g id="xtick_7">
     <g id="line2d_7">
      <g>
       <use style="stroke:#000000;stroke-width:0.8;" x="387.105882" xlink:href="#m8888b631fd" y="512.64"/>
      </g>
     </g>
     <g id="text_7">
      <!-- 5 -->
      <defs>
       <path d="M 10.796875 72.90625 
L 49.515625 72.90625 
L 49.515625 64.59375 
L 19.828125 64.59375 
L 19.828125 46.734375 
Q 21.96875 47.46875 24.109375 47.828125 
Q 26.265625 48.1875 28.421875 48.1875 
Q 40.625 48.1875 47.75 41.5 
Q 54.890625 34.8125 54.890625 23.390625 
Q 54.890625 11.625 47.5625 5.09375 
Q 40.234375 -1.421875 26.90625 -1.421875 
Q 22.3125 -1.421875 17.546875 -0.640625 
Q 12.796875 0.140625 7.71875 1.703125 
L 7.71875 11.625 
Q 12.109375 9.234375 16.796875 8.0625 
Q 21.484375 6.890625 26.703125 6.890625 
Q 35.15625 6.890625 40.078125 11.328125 
Q 45.015625 15.765625 45.015625 23.390625 
Q 45.015625 31 40.078125 35.4375 
Q 35.15625 39.890625 26.703125 39.890625 
Q 22.75 39.890625 18.8125 39.015625 
Q 14.890625 38.140625 10.796875 36.28125 
z
" id="DejaVuSans-35"/>
      </defs>
      <g transform="translate(383.924632 527.238438)scale(0.1 -0.1)">
       <use xlink:href="#DejaVuSans-35"/>
      </g>
     </g>
    </g>
    <g id="xtick_8">
     <g id="line2d_8">
      <g>
       <use style="stroke:#000000;stroke-width:0.8;" x="439.623529" xlink:href="#m8888b631fd" y="512.64"/>
      </g>
     </g>
     <g id="text_8">
      <!-- 6 -->
      <defs>
       <path d="M 33.015625 40.375 
Q 26.375 40.375 22.484375 35.828125 
Q 18.609375 31.296875 18.609375 23.390625 
Q 18.609375 15.53125 22.484375 10.953125 
Q 26.375 6.390625 33.015625 6.390625 
Q 39.65625 6.390625 43.53125 10.953125 
Q 47.40625 15.53125 47.40625 23.390625 
Q 47.40625 31.296875 43.53125 35.828125 
Q 39.65625 40.375 33.015625 40.375 
z
M 52.59375 71.296875 
L 52.59375 62.3125 
Q 48.875 64.0625 45.09375 64.984375 
Q 41.3125 65.921875 37.59375 65.921875 
Q 27.828125 65.921875 22.671875 59.328125 
Q 17.53125 52.734375 16.796875 39.40625 
Q 19.671875 43.65625 24.015625 45.921875 
Q 28.375 48.1875 33.59375 48.1875 
Q 44.578125 48.1875 50.953125 41.515625 
Q 57.328125 34.859375 57.328125 23.390625 
Q 57.328125 12.15625 50.6875 5.359375 
Q 44.046875 -1.421875 33.015625 -1.421875 
Q 20.359375 -1.421875 13.671875 8.265625 
Q 6.984375 17.96875 6.984375 36.375 
Q 6.984375 53.65625 15.1875 63.9375 
Q 23.390625 74.21875 37.203125 74.21875 
Q 40.921875 74.21875 44.703125 73.484375 
Q 48.484375 72.75 52.59375 71.296875 
z
" id="DejaVuSans-36"/>
      </defs>
      <g transform="translate(436.442279 527.238438)scale(0.1 -0.1)">
       <use xlink:href="#DejaVuSans-36"/>
      </g>
     </g>
    </g>
    <g id="xtick_9">
     <g id="line2d_9">
      <g>
       <use style="stroke:#000000;stroke-width:0.8;" x="492.141176" xlink:href="#m8888b631fd" y="512.64"/>
      </g>
     </g>
     <g id="text_9">
      <!-- 7 -->
      <defs>
       <path d="M 8.203125 72.90625 
L 55.078125 72.90625 
L 55.078125 68.703125 
L 28.609375 0 
L 18.3125 0 
L 43.21875 64.59375 
L 8.203125 64.59375 
z
" id="DejaVuSans-37"/>
      </defs>
      <g transform="translate(488.959926 527.238438)scale(0.1 -0.1)">
       <use xlink:href="#DejaVuSans-37"/>
      </g>
     </g>
    </g>
   </g>
   <g id="matplotlib.axis_2">
    <g id="ytick_1">
     <g id="line2d_10">
      <defs>
       <path d="M 0 0 
L -3.5 0 
" id="m1da5545bb9" style="stroke:#000000;stroke-width:0.8;"/>
      </defs>
      <g>
       <use style="stroke:#000000;stroke-width:0.8;" x="72" xlink:href="#m1da5545bb9" y="461.562353"/>
      </g>
     </g>
     <g id="text_10">
      <!-- 0 -->
      <g transform="translate(58.6375 465.361572)scale(0.1 -0.1)">
       <use xlink:href="#DejaVuSans-30"/>
      </g>
     </g>
    </g>
    <g id="ytick_2">
     <g id="line2d_11">
      <g>
       <use style="stroke:#000000;stroke-width:0.8;" x="72" xlink:href="#m1da5545bb9" y="409.044706"/>
      </g>
     </g>
     <g id="text_11">
      <!-- 1 -->
      <g transform="translate(58.6375 412.843925)scale(0.1 -0.1)">
       <use xlink:href="#DejaVuSans-31"/>
      </g>
     </g>
    </g>
    <g id="ytick_3">
     <g id="line2d_12">
      <g>
       <use style="stroke:#000000;stroke-width:0.8;" x="72" xlink:href="#m1da5545bb9" y="356.527059"/>
      </g>
     </g>
     <g id="text_12">
      <!-- 2 -->
      <g transform="translate(58.6375 360.326278)scale(0.1 -0.1)">
       <use xlink:href="#DejaVuSans-32"/>
      </g>
     </g>
    </g>
    <g id="ytick_4">
     <g id="line2d_13">
      <g>
       <use style="stroke:#000000;stroke-width:0.8;" x="72" xlink:href="#m1da5545bb9" y="304.009412"/>
      </g>
     </g>
     <g id="text_13">
      <!-- 3 -->
      <g transform="translate(58.6375 307.808631)scale(0.1 -0.1)">
       <use xlink:href="#DejaVuSans-33"/>
      </g>
     </g>
    </g>
    <g id="ytick_5">
     <g id="line2d_14">
      <g>
       <use style="stroke:#000000;stroke-width:0.8;" x="72" xlink:href="#m1da5545bb9" y="251.491765"/>
      </g>
     </g>
     <g id="text_14">
      <!-- 4 -->
      <g transform="translate(58.6375 255.290983)scale(0.1 -0.1)">
       <use xlink:href="#DejaVuSans-34"/>
      </g>
     </g>
    </g>
    <g id="ytick_6">
     <g id="line2d_15">
      <g>
       <use style="stroke:#000000;stroke-width:0.8;" x="72" xlink:href="#m1da5545bb9" y="198.974118"/>
      </g>
     </g>
     <g id="text_15">
      <!-- 5 -->
      <g transform="translate(58.6375 202.773336)scale(0.1 -0.1)">
       <use xlink:href="#DejaVuSans-35"/>
      </g>
     </g>
    </g>
    <g id="ytick_7">
     <g id="line2d_16">
      <g>
       <use style="stroke:#000000;stroke-width:0.8;" x="72" xlink:href="#m1da5545bb9" y="146.456471"/>
      </g>
     </g>
     <g id="text_16">
      <!-- 6 -->
      <g transform="translate(58.6375 150.255689)scale(0.1 -0.1)">
       <use xlink:href="#DejaVuSans-36"/>
      </g>
     </g>
    </g>
    <g id="ytick_8">
     <g id="line2d_17">
      <g>
       <use style="stroke:#000000;stroke-width:0.8;" x="72" xlink:href="#m1da5545bb9" y="93.938824"/>
      </g>
     </g>
     <g id="text_17">
      <!-- 7 -->
      <g transform="translate(58.6375 97.738042)scale(0.1 -0.1)">
       <use xlink:href="#DejaVuSans-37"/>
      </g>
     </g>
    </g>
   </g>
   <g id="line2d_18">
    <path clip-path="url(#pf2b713757f)" d="M 150.776471 382.785882 
" style="fill:none;stroke:#1f77b4;stroke-linecap:square;stroke-width:1.5;"/>
    <defs>
     <path d="M -5 5 
L 5 5 
L 5 -5 
L -5 -5 
z
" id="m52ede328f5" style="stroke:#8000ff;stroke-linejoin:miter;"/>
    </defs>
    <g clip-path="url(#pf2b713757f)">
     <use style="fill:#8000ff;stroke:#8000ff;stroke-linejoin:miter;" x="150.776471" xlink:href="#m52ede328f5" y="382.785882"/>
    </g>
   </g>
   <g id="line2d_19">
    <path clip-path="url(#pf2b713757f)" d="M 387.105882 198.974118 
" style="fill:none;stroke:#ff7f0e;stroke-linecap:square;stroke-width:1.5;"/>
    <defs>
     <path d="M 0 -5 
L -4.755283 -1.545085 
L -2.938926 4.045085 
L 2.938926 4.045085 
L 4.755283 -1.545085 
z
" id="m2123530d9b" style="stroke:#8000ff;stroke-linejoin:miter;"/>
    </defs>
    <g clip-path="url(#pf2b713757f)">
     <use style="fill:#8000ff;stroke:#8000ff;stroke-linejoin:miter;" x="387.105882" xlink:href="#m2123530d9b" y="198.974118"/>
    </g>
   </g>
   <g id="line2d_20">
    <path clip-path="url(#pf2b713757f)" d="M 439.623529 198.974118 
" style="fill:none;stroke:#2ca02c;stroke-linecap:square;stroke-width:1.5;"/>
    <defs>
     <path d="M -5 5 
L 5 5 
L 5 -5 
L -5 -5 
z
" id="mf35c077212" style="stroke:#2adddd;stroke-linejoin:miter;"/>
    </defs>
    <g clip-path="url(#pf2b713757f)">
     <use style="fill:#2adddd;stroke:#2adddd;stroke-linejoin:miter;" x="439.623529" xlink:href="#mf35c077212" y="198.974118"/>
    </g>
   </g>
   <g id="line2d_21">
    <path clip-path="url(#pf2b713757f)" d="M 229.552941 356.527059 
" style="fill:none;stroke:#d62728;stroke-linecap:square;stroke-width:1.5;"/>
    <defs>
     <path d="M 0 -5 
L -4.755283 -1.545085 
L -2.938926 4.045085 
L 2.938926 4.045085 
L 4.755283 -1.545085 
z
" id="m361ae02f8b" style="stroke:#2adddd;stroke-linejoin:miter;"/>
    </defs>
    <g clip-path="url(#pf2b713757f)">
     <use style="fill:#2adddd;stroke:#2adddd;stroke-linejoin:miter;" x="229.552941" xlink:href="#m361ae02f8b" y="356.527059"/>
    </g>
   </g>
   <g id="line2d_22">
    <path clip-path="url(#pf2b713757f)" d="M 387.105882 435.303529 
" style="fill:none;stroke:#9467bd;stroke-linecap:square;stroke-width:1.5;"/>
    <defs>
     <path d="M -5 5 
L 5 5 
L 5 -5 
L -5 -5 
z
" id="m3d5d3032eb" style="stroke:#d4dd80;stroke-linejoin:miter;"/>
    </defs>
    <g clip-path="url(#pf2b713757f)">
     <use style="fill:#d4dd80;stroke:#d4dd80;stroke-linejoin:miter;" x="387.105882" xlink:href="#m3d5d3032eb" y="435.303529"/>
    </g>
   </g>
   <g id="line2d_23">
    <path clip-path="url(#pf2b713757f)" d="M 229.552941 198.974118 
" style="fill:none;stroke:#8c564b;stroke-linecap:square;stroke-width:1.5;"/>
    <defs>
     <path d="M 0 -5 
L -4.755283 -1.545085 
L -2.938926 4.045085 
L 2.938926 4.045085 
L 4.755283 -1.545085 
z
" id="mdbba023fd3" style="stroke:#d4dd80;stroke-linejoin:miter;"/>
    </defs>
    <g clip-path="url(#pf2b713757f)">
     <use style="fill:#d4dd80;stroke:#d4dd80;stroke-linejoin:miter;" x="229.552941" xlink:href="#mdbba023fd3" y="198.974118"/>
    </g>
   </g>
   <g id="line2d_24">
    <path clip-path="url(#pf2b713757f)" d="M 229.552941 146.456471 
" style="fill:none;stroke:#e377c2;stroke-linecap:square;stroke-width:1.5;"/>
    <defs>
     <path d="M -5 5 
L 5 5 
L 5 -5 
L -5 -5 
z
" id="m5f18dc28d2" style="stroke:#ff0000;stroke-linejoin:miter;"/>
    </defs>
    <g clip-path="url(#pf2b713757f)">
     <use style="fill:#ff0000;stroke:#ff0000;stroke-linejoin:miter;" x="229.552941" xlink:href="#m5f18dc28d2" y="146.456471"/>
    </g>
   </g>
   <g id="line2d_25">
    <path clip-path="url(#pf2b713757f)" d="M 387.105882 356.527059 
" style="fill:none;stroke:#7f7f7f;stroke-linecap:square;stroke-width:1.5;"/>
    <defs>
     <path d="M 0 -5 
L -4.755283 -1.545085 
L -2.938926 4.045085 
L 2.938926 4.045085 
L 4.755283 -1.545085 
z
" id="mdb312e19a3" style="stroke:#ff0000;stroke-linejoin:miter;"/>
    </defs>
    <g clip-path="url(#pf2b713757f)">
     <use style="fill:#ff0000;stroke:#ff0000;stroke-linejoin:miter;" x="387.105882" xlink:href="#mdb312e19a3" y="356.527059"/>
    </g>
   </g>
   <g id="line2d_26">
    <defs>
     <path d="M 0 2.5 
C 0.663008 2.5 1.29895 2.236584 1.767767 1.767767 
C 2.236584 1.29895 2.5 0.663008 2.5 0 
C 2.5 -0.663008 2.236584 -1.29895 1.767767 -1.767767 
C 1.29895 -2.236584 0.663008 -2.5 0 -2.5 
C -0.663008 -2.5 -1.29895 -2.236584 -1.767767 -1.767767 
C -2.236584 -1.29895 -2.5 -0.663008 -2.5 0 
C -2.5 0.663008 -2.236584 1.29895 -1.767767 1.767767 
C -1.29895 2.236584 -0.663008 2.5 0 2.5 
z
" id="mba9c81ae58" style="stroke:#000000;"/>
    </defs>
    <g clip-path="url(#pf2b713757f)">
     <use style="stroke:#000000;" x="203.294118" xlink:href="#mba9c81ae58" y="382.785882"/>
     <use style="stroke:#000000;" x="203.294118" xlink:href="#mba9c81ae58" y="330.268235"/>
     <use style="stroke:#000000;" x="255.811765" xlink:href="#mba9c81ae58" y="382.785882"/>
     <use style="stroke:#000000;" x="255.811765" xlink:href="#mba9c81ae58" y="330.268235"/>
     <use style="stroke:#000000;" x="308.329412" xlink:href="#mba9c81ae58" y="382.785882"/>
     <use style="stroke:#000000;" x="308.329412" xlink:href="#mba9c81ae58" y="330.268235"/>
     <use style="stroke:#000000;" x="360.847059" xlink:href="#mba9c81ae58" y="382.785882"/>
     <use style="stroke:#000000;" x="360.847059" xlink:href="#mba9c81ae58" y="330.268235"/>
     <use style="stroke:#000000;" x="413.364706" xlink:href="#mba9c81ae58" y="382.785882"/>
     <use style="stroke:#000000;" x="413.364706" xlink:href="#mba9c81ae58" y="330.268235"/>
     <use style="stroke:#000000;" x="203.294118" xlink:href="#mba9c81ae58" y="225.232941"/>
     <use style="stroke:#000000;" x="203.294118" xlink:href="#mba9c81ae58" y="172.715294"/>
     <use style="stroke:#000000;" x="255.811765" xlink:href="#mba9c81ae58" y="225.232941"/>
     <use style="stroke:#000000;" x="255.811765" xlink:href="#mba9c81ae58" y="172.715294"/>
     <use style="stroke:#000000;" x="308.329412" xlink:href="#mba9c81ae58" y="225.232941"/>
     <use style="stroke:#000000;" x="308.329412" xlink:href="#mba9c81ae58" y="172.715294"/>
     <use style="stroke:#000000;" x="360.847059" xlink:href="#mba9c81ae58" y="225.232941"/>
     <use style="stroke:#000000;" x="360.847059" xlink:href="#mba9c81ae58" y="172.715294"/>
     <use style="stroke:#000000;" x="413.364706" xlink:href="#mba9c81ae58" y="225.232941"/>
     <use style="stroke:#000000;" x="413.364706" xlink:href="#mba9c81ae58" y="172.715294"/>
    </g>
   </g>
   <g id="line2d_27">
    <path clip-path="url(#pf2b713757f)" d="M 223.776 382.785882 
L 222.666235 376.135426 
L 219.457201 370.20565 
L 214.496645 365.639137 
L 208.322123 362.93074 
L 201.602737 362.373956 
L 195.066639 364.029121 
L 189.422116 367.716872 
L 185.28084 373.037584 
L 183.091581 379.414675 
L 183.091581 386.157089 
L 185.28084 392.534181 
L 189.422116 397.854893 
L 195.066639 401.542644 
L 201.602737 403.197809 
L 208.322123 402.641025 
L 214.496645 399.932628 
L 219.457201 395.366115 
L 222.666235 389.436339 
L 223.776 382.785882 
" style="fill:none;stroke:#000000;stroke-dasharray:5.55,2.4;stroke-dashoffset:0;stroke-width:1.5;"/>
   </g>
   <g id="line2d_28">
    <path clip-path="url(#pf2b713757f)" d="M 209.071059 382.785882 
L 208.758048 380.910113 
L 207.852936 379.237612 
L 206.453805 377.949621 
L 204.712273 377.185714 
L 202.817062 377.028672 
L 200.973547 377.495514 
L 199.381502 378.535649 
L 198.21345 380.036362 
L 197.595966 381.835029 
L 197.595966 383.736736 
L 198.21345 385.535402 
L 199.381502 387.036116 
L 200.973547 388.076251 
L 202.817062 388.543092 
L 204.712273 388.386051 
L 206.453805 387.622144 
L 207.852936 386.334153 
L 208.758048 384.661652 
L 209.071059 382.785882 
" style="fill:none;stroke:#ff0000;stroke-linecap:square;stroke-width:1.5;"/>
   </g>
   <g id="line2d_29">
    <path clip-path="url(#pf2b713757f)" d="M 223.776 330.268235 
L 222.666235 323.617779 
L 219.457201 317.688003 
L 214.496645 313.12149 
L 208.322123 310.413093 
L 201.602737 309.856309 
L 195.066639 311.511474 
L 189.422116 315.199225 
L 185.28084 320.519937 
L 183.091581 326.897028 
L 183.091581 333.639442 
L 185.28084 340.016534 
L 189.422116 345.337246 
L 195.066639 349.024997 
L 201.602737 350.680162 
L 208.322123 350.123377 
L 214.496645 347.414981 
L 219.457201 342.848468 
L 222.666235 336.918692 
L 223.776 330.268235 
" style="fill:none;stroke:#000000;stroke-dasharray:5.55,2.4;stroke-dashoffset:0;stroke-width:1.5;"/>
   </g>
   <g id="line2d_30">
    <path clip-path="url(#pf2b713757f)" d="M 209.071059 330.268235 
L 208.758048 328.392466 
L 207.852936 326.719965 
L 206.453805 325.431974 
L 204.712273 324.668067 
L 202.817062 324.511025 
L 200.973547 324.977867 
L 199.381502 326.018002 
L 198.21345 327.518715 
L 197.595966 329.317382 
L 197.595966 331.219089 
L 198.21345 333.017755 
L 199.381502 334.518469 
L 200.973547 335.558604 
L 202.817062 336.025445 
L 204.712273 335.868404 
L 206.453805 335.104497 
L 207.852936 333.816506 
L 208.758048 332.144005 
L 209.071059 330.268235 
" style="fill:none;stroke:#ff0000;stroke-linecap:square;stroke-width:1.5;"/>
   </g>
   <g id="line2d_31">
    <path clip-path="url(#pf2b713757f)" d="M 276.293647 382.785882 
L 275.183882 376.135426 
L 271.974848 370.20565 
L 267.014293 365.639137 
L 260.83977 362.93074 
L 254.120384 362.373956 
L 247.584286 364.029121 
L 241.939763 367.716872 
L 237.798487 373.037584 
L 235.609229 379.414675 
L 235.609229 386.157089 
L 237.798487 392.534181 
L 241.939763 397.854893 
L 247.584286 401.542644 
L 254.120384 403.197809 
L 260.83977 402.641025 
L 267.014293 399.932628 
L 271.974848 395.366115 
L 275.183882 389.436339 
L 276.293647 382.785882 
" style="fill:none;stroke:#000000;stroke-dasharray:5.55,2.4;stroke-dashoffset:0;stroke-width:1.5;"/>
   </g>
   <g id="line2d_32">
    <path clip-path="url(#pf2b713757f)" d="M 261.588706 382.785882 
L 261.275695 380.910113 
L 260.370583 379.237612 
L 258.971452 377.949621 
L 257.22992 377.185714 
L 255.334709 377.028672 
L 253.491194 377.495514 
L 251.899149 378.535649 
L 250.731097 380.036362 
L 250.113613 381.835029 
L 250.113613 383.736736 
L 250.731097 385.535402 
L 251.899149 387.036116 
L 253.491194 388.076251 
L 255.334709 388.543092 
L 257.22992 388.386051 
L 258.971452 387.622144 
L 260.370583 386.334153 
L 261.275695 384.661652 
L 261.588706 382.785882 
" style="fill:none;stroke:#ff0000;stroke-linecap:square;stroke-width:1.5;"/>
   </g>
   <g id="line2d_33">
    <path clip-path="url(#pf2b713757f)" d="M 276.293647 330.268235 
L 275.183882 323.617779 
L 271.974848 317.688003 
L 267.014293 313.12149 
L 260.83977 310.413093 
L 254.120384 309.856309 
L 247.584286 311.511474 
L 241.939763 315.199225 
L 237.798487 320.519937 
L 235.609229 326.897028 
L 235.609229 333.639442 
L 237.798487 340.016534 
L 241.939763 345.337246 
L 247.584286 349.024997 
L 254.120384 350.680162 
L 260.83977 350.123377 
L 267.014293 347.414981 
L 271.974848 342.848468 
L 275.183882 336.918692 
L 276.293647 330.268235 
" style="fill:none;stroke:#000000;stroke-dasharray:5.55,2.4;stroke-dashoffset:0;stroke-width:1.5;"/>
   </g>
   <g id="line2d_34">
    <path clip-path="url(#pf2b713757f)" d="M 261.588706 330.268235 
L 261.275695 328.392466 
L 260.370583 326.719965 
L 258.971452 325.431974 
L 257.22992 324.668067 
L 255.334709 324.511025 
L 253.491194 324.977867 
L 251.899149 326.018002 
L 250.731097 327.518715 
L 250.113613 329.317382 
L 250.113613 331.219089 
L 250.731097 333.017755 
L 251.899149 334.518469 
L 253.491194 335.558604 
L 255.334709 336.025445 
L 257.22992 335.868404 
L 258.971452 335.104497 
L 260.370583 333.816506 
L 261.275695 332.144005 
L 261.588706 330.268235 
" style="fill:none;stroke:#ff0000;stroke-linecap:square;stroke-width:1.5;"/>
   </g>
   <g id="line2d_35">
    <path clip-path="url(#pf2b713757f)" d="M 328.811294 382.785882 
L 327.701529 376.135426 
L 324.492495 370.20565 
L 319.53194 365.639137 
L 313.357417 362.93074 
L 306.638031 362.373956 
L 300.101933 364.029121 
L 294.45741 367.716872 
L 290.316134 373.037584 
L 288.126876 379.414675 
L 288.126876 386.157089 
L 290.316134 392.534181 
L 294.45741 397.854893 
L 300.101933 401.542644 
L 306.638031 403.197809 
L 313.357417 402.641025 
L 319.53194 399.932628 
L 324.492495 395.366115 
L 327.701529 389.436339 
L 328.811294 382.785882 
" style="fill:none;stroke:#000000;stroke-dasharray:5.55,2.4;stroke-dashoffset:0;stroke-width:1.5;"/>
   </g>
   <g id="line2d_36">
    <path clip-path="url(#pf2b713757f)" d="M 314.106353 382.785882 
L 313.793342 380.910113 
L 312.88823 379.237612 
L 311.489099 377.949621 
L 309.747567 377.185714 
L 307.852356 377.028672 
L 306.008841 377.495514 
L 304.416796 378.535649 
L 303.248744 380.036362 
L 302.631261 381.835029 
L 302.631261 383.736736 
L 303.248744 385.535402 
L 304.416796 387.036116 
L 306.008841 388.076251 
L 307.852356 388.543092 
L 309.747567 388.386051 
L 311.489099 387.622144 
L 312.88823 386.334153 
L 313.793342 384.661652 
L 314.106353 382.785882 
" style="fill:none;stroke:#ff0000;stroke-linecap:square;stroke-width:1.5;"/>
   </g>
   <g id="line2d_37">
    <path clip-path="url(#pf2b713757f)" d="M 328.811294 330.268235 
L 327.701529 323.617779 
L 324.492495 317.688003 
L 319.53194 313.12149 
L 313.357417 310.413093 
L 306.638031 309.856309 
L 300.101933 311.511474 
L 294.45741 315.199225 
L 290.316134 320.519937 
L 288.126876 326.897028 
L 288.126876 333.639442 
L 290.316134 340.016534 
L 294.45741 345.337246 
L 300.101933 349.024997 
L 306.638031 350.680162 
L 313.357417 350.123377 
L 319.53194 347.414981 
L 324.492495 342.848468 
L 327.701529 336.918692 
L 328.811294 330.268235 
" style="fill:none;stroke:#000000;stroke-dasharray:5.55,2.4;stroke-dashoffset:0;stroke-width:1.5;"/>
   </g>
   <g id="line2d_38">
    <path clip-path="url(#pf2b713757f)" d="M 314.106353 330.268235 
L 313.793342 328.392466 
L 312.88823 326.719965 
L 311.489099 325.431974 
L 309.747567 324.668067 
L 307.852356 324.511025 
L 306.008841 324.977867 
L 304.416796 326.018002 
L 303.248744 327.518715 
L 302.631261 329.317382 
L 302.631261 331.219089 
L 303.248744 333.017755 
L 304.416796 334.518469 
L 306.008841 335.558604 
L 307.852356 336.025445 
L 309.747567 335.868404 
L 311.489099 335.104497 
L 312.88823 333.816506 
L 313.793342 332.144005 
L 314.106353 330.268235 
" style="fill:none;stroke:#ff0000;stroke-linecap:square;stroke-width:1.5;"/>
   </g>
   <g id="line2d_39">
    <path clip-path="url(#pf2b713757f)" d="M 381.328941 382.785882 
L 380.219176 376.135426 
L 377.010142 370.20565 
L 372.049587 365.639137 
L 365.875064 362.93074 
L 359.155678 362.373956 
L 352.61958 364.029121 
L 346.975057 367.716872 
L 342.833781 373.037584 
L 340.644523 379.414675 
L 340.644523 386.157089 
L 342.833781 392.534181 
L 346.975057 397.854893 
L 352.61958 401.542644 
L 359.155678 403.197809 
L 365.875064 402.641025 
L 372.049587 399.932628 
L 377.010142 395.366115 
L 380.219176 389.436339 
L 381.328941 382.785882 
" style="fill:none;stroke:#000000;stroke-dasharray:5.55,2.4;stroke-dashoffset:0;stroke-width:1.5;"/>
   </g>
   <g id="line2d_40">
    <path clip-path="url(#pf2b713757f)" d="M 366.624 382.785882 
L 366.310989 380.910113 
L 365.405877 379.237612 
L 364.006746 377.949621 
L 362.265214 377.185714 
L 360.370003 377.028672 
L 358.526488 377.495514 
L 356.934443 378.535649 
L 355.766391 380.036362 
L 355.148908 381.835029 
L 355.148908 383.736736 
L 355.766391 385.535402 
L 356.934443 387.036116 
L 358.526488 388.076251 
L 360.370003 388.543092 
L 362.265214 388.386051 
L 364.006746 387.622144 
L 365.405877 386.334153 
L 366.310989 384.661652 
L 366.624 382.785882 
" style="fill:none;stroke:#ff0000;stroke-linecap:square;stroke-width:1.5;"/>
   </g>
   <g id="line2d_41">
    <path clip-path="url(#pf2b713757f)" d="M 381.328941 330.268235 
L 380.219176 323.617779 
L 377.010142 317.688003 
L 372.049587 313.12149 
L 365.875064 310.413093 
L 359.155678 309.856309 
L 352.61958 311.511474 
L 346.975057 315.199225 
L 342.833781 320.519937 
L 340.644523 326.897028 
L 340.644523 333.639442 
L 342.833781 340.016534 
L 346.975057 345.337246 
L 352.61958 349.024997 
L 359.155678 350.680162 
L 365.875064 350.123377 
L 372.049587 347.414981 
L 377.010142 342.848468 
L 380.219176 336.918692 
L 381.328941 330.268235 
" style="fill:none;stroke:#000000;stroke-dasharray:5.55,2.4;stroke-dashoffset:0;stroke-width:1.5;"/>
   </g>
   <g id="line2d_42">
    <path clip-path="url(#pf2b713757f)" d="M 366.624 330.268235 
L 366.310989 328.392466 
L 365.405877 326.719965 
L 364.006746 325.431974 
L 362.265214 324.668067 
L 360.370003 324.511025 
L 358.526488 324.977867 
L 356.934443 326.018002 
L 355.766391 327.518715 
L 355.148908 329.317382 
L 355.148908 331.219089 
L 355.766391 333.017755 
L 356.934443 334.518469 
L 358.526488 335.558604 
L 360.370003 336.025445 
L 362.265214 335.868404 
L 364.006746 335.104497 
L 365.405877 333.816506 
L 366.310989 332.144005 
L 366.624 330.268235 
" style="fill:none;stroke:#ff0000;stroke-linecap:square;stroke-width:1.5;"/>
   </g>
   <g id="line2d_43">
    <path clip-path="url(#pf2b713757f)" d="M 433.846588 382.785882 
L 432.736823 376.135426 
L 429.527789 370.20565 
L 424.567234 365.639137 
L 418.392711 362.93074 
L 411.673325 362.373956 
L 405.137227 364.029121 
L 399.492704 367.716872 
L 395.351428 373.037584 
L 393.16217 379.414675 
L 393.16217 386.157089 
L 395.351428 392.534181 
L 399.492704 397.854893 
L 405.137227 401.542644 
L 411.673325 403.197809 
L 418.392711 402.641025 
L 424.567234 399.932628 
L 429.527789 395.366115 
L 432.736823 389.436339 
L 433.846588 382.785882 
" style="fill:none;stroke:#000000;stroke-dasharray:5.55,2.4;stroke-dashoffset:0;stroke-width:1.5;"/>
   </g>
   <g id="line2d_44">
    <path clip-path="url(#pf2b713757f)" d="M 419.141647 382.785882 
L 418.828636 380.910113 
L 417.923524 379.237612 
L 416.524393 377.949621 
L 414.782861 377.185714 
L 412.88765 377.028672 
L 411.044135 377.495514 
L 409.45209 378.535649 
L 408.284038 380.036362 
L 407.666555 381.835029 
L 407.666555 383.736736 
L 408.284038 385.535402 
L 409.45209 387.036116 
L 411.044135 388.076251 
L 412.88765 388.543092 
L 414.782861 388.386051 
L 416.524393 387.622144 
L 417.923524 386.334153 
L 418.828636 384.661652 
L 419.141647 382.785882 
" style="fill:none;stroke:#ff0000;stroke-linecap:square;stroke-width:1.5;"/>
   </g>
   <g id="line2d_45">
    <path clip-path="url(#pf2b713757f)" d="M 433.846588 330.268235 
L 432.736823 323.617779 
L 429.527789 317.688003 
L 424.567234 313.12149 
L 418.392711 310.413093 
L 411.673325 309.856309 
L 405.137227 311.511474 
L 399.492704 315.199225 
L 395.351428 320.519937 
L 393.16217 326.897028 
L 393.16217 333.639442 
L 395.351428 340.016534 
L 399.492704 345.337246 
L 405.137227 349.024997 
L 411.673325 350.680162 
L 418.392711 350.123377 
L 424.567234 347.414981 
L 429.527789 342.848468 
L 432.736823 336.918692 
L 433.846588 330.268235 
" style="fill:none;stroke:#000000;stroke-dasharray:5.55,2.4;stroke-dashoffset:0;stroke-width:1.5;"/>
   </g>
   <g id="line2d_46">
    <path clip-path="url(#pf2b713757f)" d="M 419.141647 330.268235 
L 418.828636 328.392466 
L 417.923524 326.719965 
L 416.524393 325.431974 
L 414.782861 324.668067 
L 412.88765 324.511025 
L 411.044135 324.977867 
L 409.45209 326.018002 
L 408.284038 327.518715 
L 407.666555 329.317382 
L 407.666555 331.219089 
L 408.284038 333.017755 
L 409.45209 334.518469 
L 411.044135 335.558604 
L 412.88765 336.025445 
L 414.782861 335.868404 
L 416.524393 335.104497 
L 417.923524 333.816506 
L 418.828636 332.144005 
L 419.141647 330.268235 
" style="fill:none;stroke:#ff0000;stroke-linecap:square;stroke-width:1.5;"/>
   </g>
   <g id="line2d_47">
    <path clip-path="url(#pf2b713757f)" d="M 223.776 225.232941 
L 222.666235 218.582485 
L 219.457201 212.652709 
L 214.496645 208.086196 
L 208.322123 205.377799 
L 201.602737 204.821015 
L 195.066639 206.47618 
L 189.422116 210.163931 
L 185.28084 215.484643 
L 183.091581 221.861734 
L 183.091581 228.604148 
L 185.28084 234.98124 
L 189.422116 240.301952 
L 195.066639 243.989703 
L 201.602737 245.644868 
L 208.322123 245.088083 
L 214.496645 242.379686 
L 219.457201 237.813174 
L 222.666235 231.883398 
L 223.776 225.232941 
" style="fill:none;stroke:#000000;stroke-dasharray:5.55,2.4;stroke-dashoffset:0;stroke-width:1.5;"/>
   </g>
   <g id="line2d_48">
    <path clip-path="url(#pf2b713757f)" d="M 209.071059 225.232941 
L 208.758048 223.357171 
L 207.852936 221.68467 
L 206.453805 220.39668 
L 204.712273 219.632773 
L 202.817062 219.475731 
L 200.973547 219.942573 
L 199.381502 220.982707 
L 198.21345 222.483421 
L 197.595966 224.282088 
L 197.595966 226.183794 
L 198.21345 227.982461 
L 199.381502 229.483175 
L 200.973547 230.52331 
L 202.817062 230.990151 
L 204.712273 230.833109 
L 206.453805 230.069203 
L 207.852936 228.781212 
L 208.758048 227.108711 
L 209.071059 225.232941 
" style="fill:none;stroke:#ff0000;stroke-linecap:square;stroke-width:1.5;"/>
   </g>
   <g id="line2d_49">
    <path clip-path="url(#pf2b713757f)" d="M 223.776 172.715294 
L 222.666235 166.064838 
L 219.457201 160.135062 
L 214.496645 155.568549 
L 208.322123 152.860152 
L 201.602737 152.303368 
L 195.066639 153.958533 
L 189.422116 157.646284 
L 185.28084 162.966996 
L 183.091581 169.344087 
L 183.091581 176.086501 
L 185.28084 182.463593 
L 189.422116 187.784305 
L 195.066639 191.472056 
L 201.602737 193.12722 
L 208.322123 192.570436 
L 214.496645 189.862039 
L 219.457201 185.295527 
L 222.666235 179.36575 
L 223.776 172.715294 
" style="fill:none;stroke:#000000;stroke-dasharray:5.55,2.4;stroke-dashoffset:0;stroke-width:1.5;"/>
   </g>
   <g id="line2d_50">
    <path clip-path="url(#pf2b713757f)" d="M 209.071059 172.715294 
L 208.758048 170.839524 
L 207.852936 169.167023 
L 206.453805 167.879033 
L 204.712273 167.115126 
L 202.817062 166.958084 
L 200.973547 167.424925 
L 199.381502 168.46506 
L 198.21345 169.965774 
L 197.595966 171.764441 
L 197.595966 173.666147 
L 198.21345 175.464814 
L 199.381502 176.965528 
L 200.973547 178.005663 
L 202.817062 178.472504 
L 204.712273 178.315462 
L 206.453805 177.551556 
L 207.852936 176.263565 
L 208.758048 174.591064 
L 209.071059 172.715294 
" style="fill:none;stroke:#ff0000;stroke-linecap:square;stroke-width:1.5;"/>
   </g>
   <g id="line2d_51">
    <path clip-path="url(#pf2b713757f)" d="M 276.293647 225.232941 
L 275.183882 218.582485 
L 271.974848 212.652709 
L 267.014293 208.086196 
L 260.83977 205.377799 
L 254.120384 204.821015 
L 247.584286 206.47618 
L 241.939763 210.163931 
L 237.798487 215.484643 
L 235.609229 221.861734 
L 235.609229 228.604148 
L 237.798487 234.98124 
L 241.939763 240.301952 
L 247.584286 243.989703 
L 254.120384 245.644868 
L 260.83977 245.088083 
L 267.014293 242.379686 
L 271.974848 237.813174 
L 275.183882 231.883398 
L 276.293647 225.232941 
" style="fill:none;stroke:#000000;stroke-dasharray:5.55,2.4;stroke-dashoffset:0;stroke-width:1.5;"/>
   </g>
   <g id="line2d_52">
    <path clip-path="url(#pf2b713757f)" d="M 261.588706 225.232941 
L 261.275695 223.357171 
L 260.370583 221.68467 
L 258.971452 220.39668 
L 257.22992 219.632773 
L 255.334709 219.475731 
L 253.491194 219.942573 
L 251.899149 220.982707 
L 250.731097 222.483421 
L 250.113613 224.282088 
L 250.113613 226.183794 
L 250.731097 227.982461 
L 251.899149 229.483175 
L 253.491194 230.52331 
L 255.334709 230.990151 
L 257.22992 230.833109 
L 258.971452 230.069203 
L 260.370583 228.781212 
L 261.275695 227.108711 
L 261.588706 225.232941 
" style="fill:none;stroke:#ff0000;stroke-linecap:square;stroke-width:1.5;"/>
   </g>
   <g id="line2d_53">
    <path clip-path="url(#pf2b713757f)" d="M 276.293647 172.715294 
L 275.183882 166.064838 
L 271.974848 160.135062 
L 267.014293 155.568549 
L 260.83977 152.860152 
L 254.120384 152.303368 
L 247.584286 153.958533 
L 241.939763 157.646284 
L 237.798487 162.966996 
L 235.609229 169.344087 
L 235.609229 176.086501 
L 237.798487 182.463593 
L 241.939763 187.784305 
L 247.584286 191.472056 
L 254.120384 193.12722 
L 260.83977 192.570436 
L 267.014293 189.862039 
L 271.974848 185.295527 
L 275.183882 179.36575 
L 276.293647 172.715294 
" style="fill:none;stroke:#000000;stroke-dasharray:5.55,2.4;stroke-dashoffset:0;stroke-width:1.5;"/>
   </g>
   <g id="line2d_54">
    <path clip-path="url(#pf2b713757f)" d="M 261.588706 172.715294 
L 261.275695 170.839524 
L 260.370583 169.167023 
L 258.971452 167.879033 
L 257.22992 167.115126 
L 255.334709 166.958084 
L 253.491194 167.424925 
L 251.899149 168.46506 
L 250.731097 169.965774 
L 250.113613 171.764441 
L 250.113613 173.666147 
L 250.731097 175.464814 
L 251.899149 176.965528 
L 253.491194 178.005663 
L 255.334709 178.472504 
L 257.22992 178.315462 
L 258.971452 177.551556 
L 260.370583 176.263565 
L 261.275695 174.591064 
L 261.588706 172.715294 
" style="fill:none;stroke:#ff0000;stroke-linecap:square;stroke-width:1.5;"/>
   </g>
   <g id="line2d_55">
    <path clip-path="url(#pf2b713757f)" d="M 328.811294 225.232941 
L 327.701529 218.582485 
L 324.492495 212.652709 
L 319.53194 208.086196 
L 313.357417 205.377799 
L 306.638031 204.821015 
L 300.101933 206.47618 
L 294.45741 210.163931 
L 290.316134 215.484643 
L 288.126876 221.861734 
L 288.126876 228.604148 
L 290.316134 234.98124 
L 294.45741 240.301952 
L 300.101933 243.989703 
L 306.638031 245.644868 
L 313.357417 245.088083 
L 319.53194 242.379686 
L 324.492495 237.813174 
L 327.701529 231.883398 
L 328.811294 225.232941 
" style="fill:none;stroke:#000000;stroke-dasharray:5.55,2.4;stroke-dashoffset:0;stroke-width:1.5;"/>
   </g>
   <g id="line2d_56">
    <path clip-path="url(#pf2b713757f)" d="M 314.106353 225.232941 
L 313.793342 223.357171 
L 312.88823 221.68467 
L 311.489099 220.39668 
L 309.747567 219.632773 
L 307.852356 219.475731 
L 306.008841 219.942573 
L 304.416796 220.982707 
L 303.248744 222.483421 
L 302.631261 224.282088 
L 302.631261 226.183794 
L 303.248744 227.982461 
L 304.416796 229.483175 
L 306.008841 230.52331 
L 307.852356 230.990151 
L 309.747567 230.833109 
L 311.489099 230.069203 
L 312.88823 228.781212 
L 313.793342 227.108711 
L 314.106353 225.232941 
" style="fill:none;stroke:#ff0000;stroke-linecap:square;stroke-width:1.5;"/>
   </g>
   <g id="line2d_57">
    <path clip-path="url(#pf2b713757f)" d="M 328.811294 172.715294 
L 327.701529 166.064838 
L 324.492495 160.135062 
L 319.53194 155.568549 
L 313.357417 152.860152 
L 306.638031 152.303368 
L 300.101933 153.958533 
L 294.45741 157.646284 
L 290.316134 162.966996 
L 288.126876 169.344087 
L 288.126876 176.086501 
L 290.316134 182.463593 
L 294.45741 187.784305 
L 300.101933 191.472056 
L 306.638031 193.12722 
L 313.357417 192.570436 
L 319.53194 189.862039 
L 324.492495 185.295527 
L 327.701529 179.36575 
L 328.811294 172.715294 
" style="fill:none;stroke:#000000;stroke-dasharray:5.55,2.4;stroke-dashoffset:0;stroke-width:1.5;"/>
   </g>
   <g id="line2d_58">
    <path clip-path="url(#pf2b713757f)" d="M 314.106353 172.715294 
L 313.793342 170.839524 
L 312.88823 169.167023 
L 311.489099 167.879033 
L 309.747567 167.115126 
L 307.852356 166.958084 
L 306.008841 167.424925 
L 304.416796 168.46506 
L 303.248744 169.965774 
L 302.631261 171.764441 
L 302.631261 173.666147 
L 303.248744 175.464814 
L 304.416796 176.965528 
L 306.008841 178.005663 
L 307.852356 178.472504 
L 309.747567 178.315462 
L 311.489099 177.551556 
L 312.88823 176.263565 
L 313.793342 174.591064 
L 314.106353 172.715294 
" style="fill:none;stroke:#ff0000;stroke-linecap:square;stroke-width:1.5;"/>
   </g>
   <g id="line2d_59">
    <path clip-path="url(#pf2b713757f)" d="M 381.328941 225.232941 
L 380.219176 218.582485 
L 377.010142 212.652709 
L 372.049587 208.086196 
L 365.875064 205.377799 
L 359.155678 204.821015 
L 352.61958 206.47618 
L 346.975057 210.163931 
L 342.833781 215.484643 
L 340.644523 221.861734 
L 340.644523 228.604148 
L 342.833781 234.98124 
L 346.975057 240.301952 
L 352.61958 243.989703 
L 359.155678 245.644868 
L 365.875064 245.088083 
L 372.049587 242.379686 
L 377.010142 237.813174 
L 380.219176 231.883398 
L 381.328941 225.232941 
" style="fill:none;stroke:#000000;stroke-dasharray:5.55,2.4;stroke-dashoffset:0;stroke-width:1.5;"/>
   </g>
   <g id="line2d_60">
    <path clip-path="url(#pf2b713757f)" d="M 366.624 225.232941 
L 366.310989 223.357171 
L 365.405877 221.68467 
L 364.006746 220.39668 
L 362.265214 219.632773 
L 360.370003 219.475731 
L 358.526488 219.942573 
L 356.934443 220.982707 
L 355.766391 222.483421 
L 355.148908 224.282088 
L 355.148908 226.183794 
L 355.766391 227.982461 
L 356.934443 229.483175 
L 358.526488 230.52331 
L 360.370003 230.990151 
L 362.265214 230.833109 
L 364.006746 230.069203 
L 365.405877 228.781212 
L 366.310989 227.108711 
L 366.624 225.232941 
" style="fill:none;stroke:#ff0000;stroke-linecap:square;stroke-width:1.5;"/>
   </g>
   <g id="line2d_61">
    <path clip-path="url(#pf2b713757f)" d="M 381.328941 172.715294 
L 380.219176 166.064838 
L 377.010142 160.135062 
L 372.049587 155.568549 
L 365.875064 152.860152 
L 359.155678 152.303368 
L 352.61958 153.958533 
L 346.975057 157.646284 
L 342.833781 162.966996 
L 340.644523 169.344087 
L 340.644523 176.086501 
L 342.833781 182.463593 
L 346.975057 187.784305 
L 352.61958 191.472056 
L 359.155678 193.12722 
L 365.875064 192.570436 
L 372.049587 189.862039 
L 377.010142 185.295527 
L 380.219176 179.36575 
L 381.328941 172.715294 
" style="fill:none;stroke:#000000;stroke-dasharray:5.55,2.4;stroke-dashoffset:0;stroke-width:1.5;"/>
   </g>
   <g id="line2d_62">
    <path clip-path="url(#pf2b713757f)" d="M 366.624 172.715294 
L 366.310989 170.839524 
L 365.405877 169.167023 
L 364.006746 167.879033 
L 362.265214 167.115126 
L 360.370003 166.958084 
L 358.526488 167.424925 
L 356.934443 168.46506 
L 355.766391 169.965774 
L 355.148908 171.764441 
L 355.148908 173.666147 
L 355.766391 175.464814 
L 356.934443 176.965528 
L 358.526488 178.005663 
L 360.370003 178.472504 
L 362.265214 178.315462 
L 364.006746 177.551556 
L 365.405877 176.263565 
L 366.310989 174.591064 
L 366.624 172.715294 
" style="fill:none;stroke:#ff0000;stroke-linecap:square;stroke-width:1.5;"/>
   </g>
   <g id="line2d_63">
    <path clip-path="url(#pf2b713757f)" d="M 433.846588 225.232941 
L 432.736823 218.582485 
L 429.527789 212.652709 
L 424.567234 208.086196 
L 418.392711 205.377799 
L 411.673325 204.821015 
L 405.137227 206.47618 
L 399.492704 210.163931 
L 395.351428 215.484643 
L 393.16217 221.861734 
L 393.16217 228.604148 
L 395.351428 234.98124 
L 399.492704 240.301952 
L 405.137227 243.989703 
L 411.673325 245.644868 
L 418.392711 245.088083 
L 424.567234 242.379686 
L 429.527789 237.813174 
L 432.736823 231.883398 
L 433.846588 225.232941 
" style="fill:none;stroke:#000000;stroke-dasharray:5.55,2.4;stroke-dashoffset:0;stroke-width:1.5;"/>
   </g>
   <g id="line2d_64">
    <path clip-path="url(#pf2b713757f)" d="M 419.141647 225.232941 
L 418.828636 223.357171 
L 417.923524 221.68467 
L 416.524393 220.39668 
L 414.782861 219.632773 
L 412.88765 219.475731 
L 411.044135 219.942573 
L 409.45209 220.982707 
L 408.284038 222.483421 
L 407.666555 224.282088 
L 407.666555 226.183794 
L 408.284038 227.982461 
L 409.45209 229.483175 
L 411.044135 230.52331 
L 412.88765 230.990151 
L 414.782861 230.833109 
L 416.524393 230.069203 
L 417.923524 228.781212 
L 418.828636 227.108711 
L 419.141647 225.232941 
" style="fill:none;stroke:#ff0000;stroke-linecap:square;stroke-width:1.5;"/>
   </g>
   <g id="line2d_65">
    <path clip-path="url(#pf2b713757f)" d="M 433.846588 172.715294 
L 432.736823 166.064838 
L 429.527789 160.135062 
L 424.567234 155.568549 
L 418.392711 152.860152 
L 411.673325 152.303368 
L 405.137227 153.958533 
L 399.492704 157.646284 
L 395.351428 162.966996 
L 393.16217 169.344087 
L 393.16217 176.086501 
L 395.351428 182.463593 
L 399.492704 187.784305 
L 405.137227 191.472056 
L 411.673325 193.12722 
L 418.392711 192.570436 
L 424.567234 189.862039 
L 429.527789 185.295527 
L 432.736823 179.36575 
L 433.846588 172.715294 
" style="fill:none;stroke:#000000;stroke-dasharray:5.55,2.4;stroke-dashoffset:0;stroke-width:1.5;"/>
   </g>
   <g id="line2d_66">
    <path clip-path="url(#pf2b713757f)" d="M 419.141647 172.715294 
L 418.828636 170.839524 
L 417.923524 169.167023 
L 416.524393 167.879033 
L 414.782861 167.115126 
L 412.88765 166.958084 
L 411.044135 167.424925 
L 409.45209 168.46506 
L 408.284038 169.965774 
L 407.666555 171.764441 
L 407.666555 173.666147 
L 408.284038 175.464814 
L 409.45209 176.965528 
L 411.044135 178.005663 
L 412.88765 178.472504 
L 414.782861 178.315462 
L 416.524393 177.551556 
L 417.923524 176.263565 
L 418.828636 174.591064 
L 419.141647 172.715294 
" style="fill:none;stroke:#ff0000;stroke-linecap:square;stroke-width:1.5;"/>
   </g>
   <g id="line2d_67">
    <path clip-path="url(#pf2b713757f)" d="M 98.258824 487.821176 
L 98.258824 93.938824 
" style="fill:none;stroke:#000000;stroke-linecap:square;stroke-width:4;"/>
   </g>
   <g id="line2d_68">
    <path clip-path="url(#pf2b713757f)" d="M 98.258824 93.938824 
L 492.141176 93.938824 
" style="fill:none;stroke:#000000;stroke-linecap:square;stroke-width:4;"/>
   </g>
   <g id="line2d_69">
    <path clip-path="url(#pf2b713757f)" d="M 492.141176 93.938824 
L 492.141176 487.821176 
" style="fill:none;stroke:#000000;stroke-linecap:square;stroke-width:4;"/>
   </g>
   <g id="line2d_70">
    <path clip-path="url(#pf2b713757f)" d="M 492.141176 487.821176 
L 98.258824 487.821176 
" style="fill:none;stroke:#000000;stroke-linecap:square;stroke-width:4;"/>
   </g>
   <g id="line2d_71">
    <path clip-path="url(#pf2b713757f)" d="M 150.776471 382.785882 
L 153.139765 382.733365 
L 154.1376 382.628329 
L 156.395859 382.103153 
L 159.336847 381.0528 
L 160.282165 380.685176 
L 163.9584 378.742024 
L 169.735341 374.908235 
L 176.982776 369.393882 
L 181.289224 365.822682 
L 185.910776 361.621271 
L 195.626541 352.010541 
L 198.042353 349.962353 
L 198.987671 349.384659 
L 199.775435 349.174588 
L 200.143059 349.122071 
L 201.561035 349.279624 
L 203.451671 349.909835 
L 205.709929 351.065224 
L 208.073224 352.535718 
L 210.909176 353.901176 
L 212.117082 354.2688 
L 212.799812 354.426353 
L 214.690447 354.531388 
L 215.898353 354.478871 
L 218.891859 353.953694 
L 222.147953 352.798306 
L 224.931388 351.432847 
L 227.924894 349.699765 
L 234.909741 344.553035 
L 237.693176 342.189741 
L 238.901082 340.981835 
L 239.006118 340.561694 
L 238.901082 339.773929 
L 238.638494 339.143718 
L 237.955765 338.093365 
L 236.905412 337.043012 
L 236.012612 336.255247 
L 235.172329 335.52 
L 234.332047 334.574682 
L 233.544282 333.419294 
L 233.019106 332.106353 
L 232.598965 330.373271 
L 232.546447 328.587671 
L 232.598965 327.117176 
L 232.861553 325.121506 
L 233.334212 323.0208 
L 234.909741 318.346729 
L 235.3824 317.033788 
L 236.695341 314.145318 
L 238.638494 310.364047 
L 240.896753 306.792847 
L 242.577318 304.482071 
L 246.778729 299.755482 
L 249.562165 297.077082 
L 251.925459 294.976376 
L 256.547012 291.195106 
L 258.805271 289.462024 
L 265.842635 284.262776 
L 269.518871 281.636894 
L 309.642353 253.434918 
L 315.786918 249.338541 
L 320.355953 246.712659 
L 324.819953 244.559435 
L 331.227106 241.776 
L 338.0544 238.257318 
L 340.680282 236.681788 
L 342.833506 235.211294 
L 343.358682 234.6336 
L 343.253647 233.425694 
L 343.096094 233.005553 
L 342.623435 232.217788 
L 341.520565 230.852329 
L 340.102588 229.381835 
L 338.842165 227.438682 
L 338.369506 225.548047 
L 338.264471 224.550212 
L 338.316988 223.342306 
L 338.579576 221.766776 
L 339.262306 219.350965 
L 340.575247 216.252424 
L 342.150776 213.101365 
L 343.936376 209.845271 
L 345.932047 206.746729 
L 347.350024 204.803576 
L 348.715482 203.228047 
L 350.711153 201.284894 
L 352.916894 199.604329 
L 355.490259 198.081318 
L 357.906071 197.030965 
L 360.164329 196.400753 
L 362.632659 196.085647 
L 363.683012 196.033129 
L 366.203859 196.138165 
L 368.882259 196.610824 
L 373.293741 197.713694 
L 377.3376 198.659012 
L 381.118871 199.341741 
L 384.217412 199.656847 
L 387.263435 199.8144 
L 387.263435 199.8144 
" style="fill:none;stroke:#8000ff;stroke-linecap:square;stroke-width:1.5;"/>
   </g>
   <g id="line2d_72">
    <path clip-path="url(#pf2b713757f)" d="M 439.623529 198.974118 
L 440.148706 199.079153 
L 440.253741 199.236706 
L 440.253741 199.236706 
L 440.411294 199.8144 
L 440.306259 201.284894 
L 439.991153 202.4928 
L 439.571012 203.648188 
L 438.363106 206.011482 
L 436.682541 208.322259 
L 435.107012 210.212894 
L 432.218541 213.048847 
L 430.275388 214.781929 
L 430.432941 214.466824 
L 430.432941 214.414306 
L 430.537976 215.202071 
L 431.168188 216.7776 
L 431.483294 217.197741 
L 433.163859 219.140894 
L 433.846588 219.928659 
L 434.791906 221.294118 
L 435.632188 223.447341 
L 435.789741 224.077553 
L 435.947294 225.863153 
L 435.842259 228.541553 
L 435.3696 231.324988 
L 434.844424 233.373176 
L 434.161694 235.683953 
L 432.428612 240.095435 
L 430.485459 243.876706 
L 428.384753 247.185318 
L 425.968941 250.231341 
L 424.288376 252.016941 
L 422.502776 253.750024 
L 419.561788 256.270871 
L 415.885553 259.001788 
L 409.058259 263.308235 
L 396.454024 270.240565 
L 392.725271 272.183718 
L 386.843294 275.282259 
L 379.333271 279.116047 
L 375.604518 281.0592 
L 365.993788 286.048376 
L 359.166494 289.567059 
L 341.363012 299.335341 
L 331.332141 305.112282 
L 325.187576 308.473412 
L 318.4128 311.782024 
L 316.469647 312.359718 
L 315.471812 312.3072 
L 314.421459 312.044612 
L 312.898447 311.309365 
L 311.2704 310.101459 
L 306.963953 306.0576 
L 305.493459 305.217318 
L 303.445271 304.534588 
L 301.659671 304.272 
L 299.611482 304.272 
L 297.563294 304.482071 
L 294.517271 305.112282 
L 291.576282 306.0576 
L 288.425224 307.475576 
L 285.641788 308.893553 
L 280.652612 312.044612 
L 277.764141 314.040282 
L 273.142588 317.611482 
L 271.041882 319.344565 
L 271.199435 319.029459 
L 271.146918 318.714353 
L 271.251953 318.871906 
L 272.039718 319.554635 
L 275.610918 321.392753 
L 276.503718 322.390588 
L 276.818824 322.968282 
L 277.291482 324.648847 
L 277.396518 326.802071 
L 276.976376 330.005647 
L 276.608753 331.738729 
L 274.613082 344.290447 
L 273.877835 346.443671 
L 272.459859 349.069553 
L 271.251953 350.6976 
L 269.728941 352.325647 
L 267.680753 354.111247 
L 264.792282 356.001882 
L 262.901647 356.999718 
L 260.643388 357.892518 
L 259.330447 358.312659 
L 256.231906 358.995388 
L 253.763576 359.152941 
L 250.875106 359.047906 
L 247.408941 358.417694 
L 243.680188 357.524894 
L 239.268706 356.527059 
L 233.754353 355.791812 
L 230.288188 355.634259 
L 230.288188 355.634259 
" style="fill:none;stroke:#2adddd;stroke-linecap:square;stroke-width:1.5;"/>
   </g>
   <g id="line2d_73">
    <path clip-path="url(#pf2b713757f)" d="M 387.105882 435.303529 
L 386.843294 435.408565 
L 386.948329 435.251012 
L 387.1584 434.883388 
L 387.315953 434.043106 
L 387.210918 432.992753 
L 387.053365 432.415059 
L 385.897976 429.999247 
L 382.904471 424.905035 
L 381.066353 421.964047 
L 376.077176 414.348988 
L 374.711718 412.3008 
L 367.201694 401.482165 
L 367.201694 401.534682 
L 366.729035 401.377129 
L 365.363576 401.482165 
L 364.680847 401.744753 
L 363.683012 402.269929 
L 359.113976 405.315953 
L 358.273694 405.631059 
L 356.855718 405.946165 
L 355.0176 406.0512 
L 353.494588 405.893647 
L 350.448565 405.1584 
L 348.032753 404.160565 
L 345.616941 402.900141 
L 343.148612 401.429647 
L 341.152941 400.011671 
L 338.9472 398.226071 
L 336.058729 395.600188 
L 334.378165 393.867106 
L 331.8048 390.8736 
L 330.386824 388.982965 
L 329.073882 387.092329 
L 328.128565 385.149176 
L 327.918494 383.993788 
L 327.865976 382.470776 
L 328.181082 380.527624 
L 329.1264 377.796706 
L 330.859482 373.280188 
L 331.542212 370.286682 
L 331.752282 367.555765 
L 331.647247 365.507576 
L 331.489694 364.142118 
L 330.964518 361.4112 
L 329.178918 356.159435 
L 327.655906 352.693271 
L 324.504847 346.496188 
L 323.086871 343.922824 
L 322.929318 343.345129 
L 323.401976 342.084706 
L 324.452329 340.8768 
L 326.237929 339.616376 
L 329.388988 337.515671 
L 330.229271 336.570353 
L 330.859482 335.677553 
L 331.8048 333.314259 
L 332.119906 331.371106 
L 332.224941 330.373271 
L 332.224941 328.115012 
L 331.909835 325.226541 
L 330.964518 320.815059 
L 330.281788 318.451765 
L 328.601224 313.515106 
L 327.288282 310.311529 
L 326.237929 308.105788 
L 324.242259 304.429553 
L 322.036518 300.910871 
L 318.517835 296.184282 
L 316.994824 294.293647 
L 310.009976 286.941176 
L 299.453929 276.700235 
L 296.775529 273.9168 
L 288.897882 265.461459 
L 286.114447 262.3104 
L 285.3792 261.575153 
L 282.333176 258.161506 
L 267.260612 241.355859 
L 267.418165 241.460894 
L 267.5232 241.513412 
L 266.210259 241.565929 
L 265.002353 242.248659 
L 263.952 243.193976 
L 261.693741 246.029929 
L 260.800941 246.817694 
L 259.435482 247.605459 
L 258.700235 247.868047 
L 256.652047 248.288188 
L 253.290918 248.183153 
L 251.137694 247.763012 
L 248.616847 246.975247 
L 245.990965 245.924894 
L 243.312565 244.506918 
L 240.529129 242.826353 
L 236.590306 239.832847 
L 233.491765 236.891859 
L 231.653647 234.738635 
L 230.603294 233.268141 
L 228.975247 230.537224 
L 227.924894 228.068894 
L 227.399718 226.440847 
L 226.927059 224.077553 
L 226.716988 221.924329 
L 226.927059 218.353129 
L 227.557271 215.307106 
L 229.447906 207.481976 
L 230.183153 203.070494 
L 230.393224 200.654682 
L 230.445741 199.236706 
L 230.445741 199.236706 
" style="fill:none;stroke:#d4dd80;stroke-linecap:square;stroke-width:1.5;"/>
   </g>
   <g id="line2d_74">
    <path clip-path="url(#pf2b713757f)" d="M 229.552941 146.456471 
L 231.075953 146.561506 
L 232.914071 147.034165 
L 234.857224 147.926965 
L 236.957929 149.187388 
L 239.268706 150.867953 
L 243.260047 154.596706 
L 244.625506 156.014682 
L 244.467953 155.909647 
L 244.362918 155.909647 
L 244.940612 155.804612 
L 245.570824 155.594541 
L 245.938447 155.489506 
L 248.564329 153.651388 
L 249.562165 152.758588 
L 251.557835 151.393129 
L 252.503153 150.972988 
L 255.286588 150.342776 
L 258.647718 150.395294 
L 260.853459 150.657882 
L 265.527529 151.865788 
L 268.993694 153.073694 
L 273.195106 154.964329 
L 276.608753 156.907482 
L 279.759812 159.165741 
L 283.173459 162.264282 
L 285.746824 165.152753 
L 287.479906 167.516047 
L 288.162635 168.776471 
L 288.635294 170.194447 
L 288.792847 171.822494 
L 288.740329 172.715294 
L 288.320188 174.921035 
L 287.322353 177.599435 
L 285.746824 181.800847 
L 285.3792 183.113788 
L 284.959059 185.477082 
L 284.801506 187.840376 
L 284.854024 189.258353 
L 285.221647 191.936753 
L 285.746824 194.300047 
L 287.059765 198.238871 
L 288.897882 202.387765 
L 289.475576 203.648188 
L 294.097129 211.840941 
L 294.937412 213.258918 
L 294.727341 213.784094 
L 293.992094 214.256753 
L 293.204329 214.519341 
L 290.946071 214.939482 
L 288.477741 214.992 
L 287.427388 214.939482 
L 287.584941 214.939482 
L 287.112282 215.517176 
L 286.534588 216.672565 
L 286.114447 218.143059 
L 285.904376 220.138729 
L 286.009412 223.342306 
L 286.272 225.915671 
L 288.320188 239.570259 
L 288.845365 241.933553 
L 290.158306 245.924894 
L 291.471247 249.075953 
L 293.256847 252.4896 
L 296.460424 257.426259 
L 301.344565 263.780894 
L 313.423624 277.382965 
L 318.675388 283.002353 
L 331.8048 297.1296 
L 337.266635 303.011576 
L 341.783153 307.895718 
L 343.726306 309.943906 
L 348.662965 315.248188 
L 348.452894 315.143153 
L 348.137788 315.195671 
L 348.400376 315.038118 
L 348.610447 314.828047 
L 349.555765 313.777694 
L 351.498918 311.046776 
L 352.444235 310.153976 
L 353.547106 309.576282 
L 355.0176 309.103624 
L 358.326212 308.841035 
L 360.111812 308.946071 
L 365.311059 309.471247 
L 368.882259 309.943906 
L 372.190871 310.574118 
L 374.6592 311.361882 
L 375.394447 311.624471 
L 378.335435 313.094965 
L 380.068518 314.302871 
L 381.328941 315.300706 
L 382.274259 316.193506 
L 384.48 318.714353 
L 385.530353 320.132329 
L 387.1584 322.863247 
L 388.418824 325.751718 
L 389.364141 329.112847 
L 389.679247 331.581176 
L 389.784282 332.999153 
L 389.626729 335.887624 
L 389.101553 338.881129 
L 388.156235 343.082541 
L 387.473506 346.181082 
L 386.790776 350.277459 
L 386.370635 354.793976 
L 386.318118 356.159435 
L 386.318118 356.159435 
" style="fill:none;stroke:#ff0000;stroke-linecap:square;stroke-width:1.5;"/>
   </g>
   <g id="patch_3">
    <path d="M 72 512.64 
L 72 69.12 
" style="fill:none;stroke:#000000;stroke-linecap:square;stroke-linejoin:miter;stroke-width:0.8;"/>
   </g>
   <g id="patch_4">
    <path d="M 518.4 512.64 
L 518.4 69.12 
" style="fill:none;stroke:#000000;stroke-linecap:square;stroke-linejoin:miter;stroke-width:0.8;"/>
   </g>
   <g id="patch_5">
    <path d="M 72 512.64 
L 518.4 512.64 
" style="fill:none;stroke:#000000;stroke-linecap:square;stroke-linejoin:miter;stroke-width:0.8;"/>
   </g>
   <g id="patch_6">
    <path d="M 72 69.12 
L 518.4 69.12 
" style="fill:none;stroke:#000000;stroke-linecap:square;stroke-linejoin:miter;stroke-width:0.8;"/>
   </g>
   <g id="text_18">
    <!-- 1 -->
    <defs>
     <path d="M 14.203125 0 
L 14.203125 5.171875 
L 26.90625 5.171875 
L 26.90625 65.828125 
L 12.203125 56.296875 
L 12.203125 62.703125 
L 29.984375 74.21875 
L 36.71875 74.21875 
L 36.71875 5.171875 
L 49.421875 5.171875 
L 49.421875 0 
z
" id="DejaVuSerif-31"/>
    </defs>
    <g transform="translate(147.595221 382.785882)scale(0.1 -0.1)">
     <use xlink:href="#DejaVuSerif-31"/>
    </g>
   </g>
   <g id="text_19">
    <!-- 1 -->
    <g transform="translate(383.924632 198.974118)scale(0.1 -0.1)">
     <use xlink:href="#DejaVuSerif-31"/>
    </g>
   </g>
   <g id="text_20">
    <!-- 2 -->
    <defs>
     <path d="M 12.796875 55.515625 
L 7.328125 55.515625 
L 7.328125 68.5 
Q 12.546875 71.296875 17.84375 72.75 
Q 23.140625 74.21875 28.21875 74.21875 
Q 39.59375 74.21875 46.1875 68.703125 
Q 52.78125 63.1875 52.78125 53.71875 
Q 52.78125 43.015625 37.84375 28.125 
Q 36.671875 27 36.078125 26.421875 
L 17.671875 8.015625 
L 48.09375 8.015625 
L 48.09375 17 
L 53.8125 17 
L 53.8125 0 
L 6.78125 0 
L 6.78125 5.328125 
L 28.90625 27.390625 
Q 36.234375 34.71875 39.359375 40.84375 
Q 42.484375 46.96875 42.484375 53.71875 
Q 42.484375 61.078125 38.640625 65.234375 
Q 34.8125 69.390625 28.078125 69.390625 
Q 21.09375 69.390625 17.28125 65.921875 
Q 13.484375 62.453125 12.796875 55.515625 
z
" id="DejaVuSerif-32"/>
    </defs>
    <g transform="translate(436.442279 198.974118)scale(0.1 -0.1)">
     <use xlink:href="#DejaVuSerif-32"/>
    </g>
   </g>
   <g id="text_21">
    <!-- 2 -->
    <g transform="translate(226.371691 356.527059)scale(0.1 -0.1)">
     <use xlink:href="#DejaVuSerif-32"/>
    </g>
   </g>
   <g id="text_22">
    <!-- 3 -->
    <defs>
     <path d="M 9.71875 69.828125 
Q 15.4375 71.96875 20.671875 73.09375 
Q 25.921875 74.21875 30.515625 74.21875 
Q 41.21875 74.21875 47.21875 69.59375 
Q 53.21875 64.984375 53.21875 56.78125 
Q 53.21875 50.203125 49.0625 45.78125 
Q 44.921875 41.359375 37.3125 39.796875 
Q 46.296875 38.53125 51.25 33.28125 
Q 56.203125 28.03125 56.203125 19.671875 
Q 56.203125 9.46875 49.34375 4.015625 
Q 42.484375 -1.421875 29.59375 -1.421875 
Q 23.875 -1.421875 18.421875 -0.1875 
Q 12.984375 1.03125 7.625 3.515625 
L 7.625 17.671875 
L 13.09375 17.671875 
Q 13.578125 10.640625 17.828125 7.03125 
Q 22.078125 3.421875 29.78125 3.421875 
Q 37.25 3.421875 41.578125 7.734375 
Q 45.90625 12.0625 45.90625 19.578125 
Q 45.90625 28.171875 41.453125 32.59375 
Q 37.015625 37.015625 28.421875 37.015625 
L 23.78125 37.015625 
L 23.78125 42 
L 26.21875 42 
Q 34.765625 42 39.03125 45.53125 
Q 43.3125 49.078125 43.3125 56.203125 
Q 43.3125 62.59375 39.796875 65.984375 
Q 36.28125 69.390625 29.6875 69.390625 
Q 23.09375 69.390625 19.453125 66.265625 
Q 15.828125 63.140625 15.1875 56.984375 
L 9.71875 56.984375 
z
" id="DejaVuSerif-33"/>
    </defs>
    <g transform="translate(383.924632 435.303529)scale(0.1 -0.1)">
     <use xlink:href="#DejaVuSerif-33"/>
    </g>
   </g>
   <g id="text_23">
    <!-- 3 -->
    <g transform="translate(226.371691 198.974118)scale(0.1 -0.1)">
     <use xlink:href="#DejaVuSerif-33"/>
    </g>
   </g>
   <g id="text_24">
    <!-- 4 -->
    <defs>
     <path d="M 34.90625 24.703125 
L 34.90625 63.484375 
L 10.015625 24.703125 
z
M 56.390625 0 
L 23.1875 0 
L 23.1875 5.171875 
L 34.90625 5.171875 
L 34.90625 19.484375 
L 3.078125 19.484375 
L 3.078125 24.8125 
L 35.015625 74.21875 
L 44.671875 74.21875 
L 44.671875 24.703125 
L 58.59375 24.703125 
L 58.59375 19.484375 
L 44.671875 19.484375 
L 44.671875 5.171875 
L 56.390625 5.171875 
z
" id="DejaVuSerif-34"/>
    </defs>
    <g transform="translate(226.371691 146.456471)scale(0.1 -0.1)">
     <use xlink:href="#DejaVuSerif-34"/>
    </g>
   </g>
   <g id="text_25">
    <!-- 4 -->
    <g transform="translate(383.924632 356.527059)scale(0.1 -0.1)">
     <use xlink:href="#DejaVuSerif-34"/>
    </g>
   </g>
   <g id="text_26">
    <!-- MRPP -->
    <defs>
     <path d="M 9.8125 72.90625 
L 24.515625 72.90625 
L 43.109375 23.296875 
L 61.8125 72.90625 
L 76.515625 72.90625 
L 76.515625 0 
L 66.890625 0 
L 66.890625 64.015625 
L 48.09375 14.015625 
L 38.1875 14.015625 
L 19.390625 64.015625 
L 19.390625 0 
L 9.8125 0 
z
" id="DejaVuSans-4d"/>
     <path d="M 44.390625 34.1875 
Q 47.5625 33.109375 50.5625 29.59375 
Q 53.5625 26.078125 56.59375 19.921875 
L 66.609375 0 
L 56 0 
L 46.6875 18.703125 
Q 43.0625 26.03125 39.671875 28.421875 
Q 36.28125 30.8125 30.421875 30.8125 
L 19.671875 30.8125 
L 19.671875 0 
L 9.8125 0 
L 9.8125 72.90625 
L 32.078125 72.90625 
Q 44.578125 72.90625 50.734375 67.671875 
Q 56.890625 62.453125 56.890625 51.90625 
Q 56.890625 45.015625 53.6875 40.46875 
Q 50.484375 35.9375 44.390625 34.1875 
z
M 19.671875 64.796875 
L 19.671875 38.921875 
L 32.078125 38.921875 
Q 39.203125 38.921875 42.84375 42.21875 
Q 46.484375 45.515625 46.484375 51.90625 
Q 46.484375 58.296875 42.84375 61.546875 
Q 39.203125 64.796875 32.078125 64.796875 
z
" id="DejaVuSans-52"/>
     <path d="M 19.671875 64.796875 
L 19.671875 37.40625 
L 32.078125 37.40625 
Q 38.96875 37.40625 42.71875 40.96875 
Q 46.484375 44.53125 46.484375 51.125 
Q 46.484375 57.671875 42.71875 61.234375 
Q 38.96875 64.796875 32.078125 64.796875 
z
M 9.8125 72.90625 
L 32.078125 72.90625 
Q 44.34375 72.90625 50.609375 67.359375 
Q 56.890625 61.8125 56.890625 51.125 
Q 56.890625 40.328125 50.609375 34.8125 
Q 44.34375 29.296875 32.078125 29.296875 
L 19.671875 29.296875 
L 19.671875 0 
L 9.8125 0 
z
" id="DejaVuSans-50"/>
    </defs>
    <g transform="translate(278.618437 63.12)scale(0.12 -0.12)">
     <use xlink:href="#DejaVuSans-4d"/>
     <use x="86.279297" xlink:href="#DejaVuSans-52"/>
     <use x="155.761719" xlink:href="#DejaVuSans-50"/>
     <use x="216.064453" xlink:href="#DejaVuSans-50"/>
    </g>
   </g>
  </g>
 </g>
 <defs>
  <clipPath id="pf2b713757f">
   <rect height="443.52" width="446.4" x="72" y="69.12"/>
  </clipPath>
 </defs>
</svg>
