<?xml version="1.0" encoding="utf-8" standalone="no"?>
<!DOCTYPE svg PUBLIC "-//W3C//DTD SVG 1.1//EN"
  "http://www.w3.org/Graphics/SVG/1.1/DTD/svg11.dtd">
<!-- Created with matplotlib (http://matplotlib.org/) -->
<svg height="576pt" version="1.1" viewBox="0 0 576 576" width="576pt" xmlns="http://www.w3.org/2000/svg" xmlns:xlink="http://www.w3.org/1999/xlink">
 <defs>
  <style type="text/css">
*{stroke-linecap:butt;stroke-linejoin:round;}
  </style>
 </defs>
 <g id="figure_1">
  <g id="patch_1">
   <path d="M 0 576 
L 576 576 
L 576 0 
L 0 0 
z
" style="fill:#ffffff;"/>
  </g>
  <g id="axes_1">
   <g id="patch_2">
    <path d="M 72 512.64 
L 518.4 512.64 
L 518.4 69.12 
L 72 69.12 
z
" style="fill:#ffffff;"/>
   </g>
   <g id="matplotlib.axis_1">
    <g id="xtick_1">
     <g id="line2d_1">
      <defs>
       <path d="M 0 0 
L 0 3.5 
" id="mcf8b762743" style="stroke:#000000;stroke-width:0.8;"/>
      </defs>
      <g>
       <use style="stroke:#000000;stroke-width:0.8;" x="112.216216" xlink:href="#mcf8b762743" y="512.64"/>
      </g>
     </g>
     <g id="text_1">
      <!-- 0 -->
      <defs>
       <path d="M 31.78125 66.40625 
Q 24.171875 66.40625 20.328125 58.90625 
Q 16.5 51.421875 16.5 36.375 
Q 16.5 21.390625 20.328125 13.890625 
Q 24.171875 6.390625 31.78125 6.390625 
Q 39.453125 6.390625 43.28125 13.890625 
Q 47.125 21.390625 47.125 36.375 
Q 47.125 51.421875 43.28125 58.90625 
Q 39.453125 66.40625 31.78125 66.40625 
z
M 31.78125 74.21875 
Q 44.046875 74.21875 50.515625 64.515625 
Q 56.984375 54.828125 56.984375 36.375 
Q 56.984375 17.96875 50.515625 8.265625 
Q 44.046875 -1.421875 31.78125 -1.421875 
Q 19.53125 -1.421875 13.0625 8.265625 
Q 6.59375 17.96875 6.59375 36.375 
Q 6.59375 54.828125 13.0625 64.515625 
Q 19.53125 74.21875 31.78125 74.21875 
z
" id="DejaVuSans-30"/>
      </defs>
      <g transform="translate(109.034966 527.238438)scale(0.1 -0.1)">
       <use xlink:href="#DejaVuSans-30"/>
      </g>
     </g>
    </g>
    <g id="xtick_2">
     <g id="line2d_2">
      <g>
       <use style="stroke:#000000;stroke-width:0.8;" x="192.648649" xlink:href="#mcf8b762743" y="512.64"/>
      </g>
     </g>
     <g id="text_2">
      <!-- 2 -->
      <defs>
       <path d="M 19.1875 8.296875 
L 53.609375 8.296875 
L 53.609375 0 
L 7.328125 0 
L 7.328125 8.296875 
Q 12.9375 14.109375 22.625 23.890625 
Q 32.328125 33.6875 34.8125 36.53125 
Q 39.546875 41.84375 41.421875 45.53125 
Q 43.3125 49.21875 43.3125 52.78125 
Q 43.3125 58.59375 39.234375 62.25 
Q 35.15625 65.921875 28.609375 65.921875 
Q 23.96875 65.921875 18.8125 64.3125 
Q 13.671875 62.703125 7.8125 59.421875 
L 7.8125 69.390625 
Q 13.765625 71.78125 18.9375 73 
Q 24.125 74.21875 28.421875 74.21875 
Q 39.75 74.21875 46.484375 68.546875 
Q 53.21875 62.890625 53.21875 53.421875 
Q 53.21875 48.921875 51.53125 44.890625 
Q 49.859375 40.875 45.40625 35.40625 
Q 44.1875 33.984375 37.640625 27.21875 
Q 31.109375 20.453125 19.1875 8.296875 
z
" id="DejaVuSans-32"/>
      </defs>
      <g transform="translate(189.467399 527.238438)scale(0.1 -0.1)">
       <use xlink:href="#DejaVuSans-32"/>
      </g>
     </g>
    </g>
    <g id="xtick_3">
     <g id="line2d_3">
      <g>
       <use style="stroke:#000000;stroke-width:0.8;" x="273.081081" xlink:href="#mcf8b762743" y="512.64"/>
      </g>
     </g>
     <g id="text_3">
      <!-- 4 -->
      <defs>
       <path d="M 37.796875 64.3125 
L 12.890625 25.390625 
L 37.796875 25.390625 
z
M 35.203125 72.90625 
L 47.609375 72.90625 
L 47.609375 25.390625 
L 58.015625 25.390625 
L 58.015625 17.1875 
L 47.609375 17.1875 
L 47.609375 0 
L 37.796875 0 
L 37.796875 17.1875 
L 4.890625 17.1875 
L 4.890625 26.703125 
z
" id="DejaVuSans-34"/>
      </defs>
      <g transform="translate(269.899831 527.238438)scale(0.1 -0.1)">
       <use xlink:href="#DejaVuSans-34"/>
      </g>
     </g>
    </g>
    <g id="xtick_4">
     <g id="line2d_4">
      <g>
       <use style="stroke:#000000;stroke-width:0.8;" x="353.513514" xlink:href="#mcf8b762743" y="512.64"/>
      </g>
     </g>
     <g id="text_4">
      <!-- 6 -->
      <defs>
       <path d="M 33.015625 40.375 
Q 26.375 40.375 22.484375 35.828125 
Q 18.609375 31.296875 18.609375 23.390625 
Q 18.609375 15.53125 22.484375 10.953125 
Q 26.375 6.390625 33.015625 6.390625 
Q 39.65625 6.390625 43.53125 10.953125 
Q 47.40625 15.53125 47.40625 23.390625 
Q 47.40625 31.296875 43.53125 35.828125 
Q 39.65625 40.375 33.015625 40.375 
z
M 52.59375 71.296875 
L 52.59375 62.3125 
Q 48.875 64.0625 45.09375 64.984375 
Q 41.3125 65.921875 37.59375 65.921875 
Q 27.828125 65.921875 22.671875 59.328125 
Q 17.53125 52.734375 16.796875 39.40625 
Q 19.671875 43.65625 24.015625 45.921875 
Q 28.375 48.1875 33.59375 48.1875 
Q 44.578125 48.1875 50.953125 41.515625 
Q 57.328125 34.859375 57.328125 23.390625 
Q 57.328125 12.15625 50.6875 5.359375 
Q 44.046875 -1.421875 33.015625 -1.421875 
Q 20.359375 -1.421875 13.671875 8.265625 
Q 6.984375 17.96875 6.984375 36.375 
Q 6.984375 53.65625 15.1875 63.9375 
Q 23.390625 74.21875 37.203125 74.21875 
Q 40.921875 74.21875 44.703125 73.484375 
Q 48.484375 72.75 52.59375 71.296875 
z
" id="DejaVuSans-36"/>
      </defs>
      <g transform="translate(350.332264 527.238438)scale(0.1 -0.1)">
       <use xlink:href="#DejaVuSans-36"/>
      </g>
     </g>
    </g>
    <g id="xtick_5">
     <g id="line2d_5">
      <g>
       <use style="stroke:#000000;stroke-width:0.8;" x="433.945946" xlink:href="#mcf8b762743" y="512.64"/>
      </g>
     </g>
     <g id="text_5">
      <!-- 8 -->
      <defs>
       <path d="M 31.78125 34.625 
Q 24.75 34.625 20.71875 30.859375 
Q 16.703125 27.09375 16.703125 20.515625 
Q 16.703125 13.921875 20.71875 10.15625 
Q 24.75 6.390625 31.78125 6.390625 
Q 38.8125 6.390625 42.859375 10.171875 
Q 46.921875 13.96875 46.921875 20.515625 
Q 46.921875 27.09375 42.890625 30.859375 
Q 38.875 34.625 31.78125 34.625 
z
M 21.921875 38.8125 
Q 15.578125 40.375 12.03125 44.71875 
Q 8.5 49.078125 8.5 55.328125 
Q 8.5 64.0625 14.71875 69.140625 
Q 20.953125 74.21875 31.78125 74.21875 
Q 42.671875 74.21875 48.875 69.140625 
Q 55.078125 64.0625 55.078125 55.328125 
Q 55.078125 49.078125 51.53125 44.71875 
Q 48 40.375 41.703125 38.8125 
Q 48.828125 37.15625 52.796875 32.3125 
Q 56.78125 27.484375 56.78125 20.515625 
Q 56.78125 9.90625 50.3125 4.234375 
Q 43.84375 -1.421875 31.78125 -1.421875 
Q 19.734375 -1.421875 13.25 4.234375 
Q 6.78125 9.90625 6.78125 20.515625 
Q 6.78125 27.484375 10.78125 32.3125 
Q 14.796875 37.15625 21.921875 38.8125 
z
M 18.3125 54.390625 
Q 18.3125 48.734375 21.84375 45.5625 
Q 25.390625 42.390625 31.78125 42.390625 
Q 38.140625 42.390625 41.71875 45.5625 
Q 45.3125 48.734375 45.3125 54.390625 
Q 45.3125 60.0625 41.71875 63.234375 
Q 38.140625 66.40625 31.78125 66.40625 
Q 25.390625 66.40625 21.84375 63.234375 
Q 18.3125 60.0625 18.3125 54.390625 
z
" id="DejaVuSans-38"/>
      </defs>
      <g transform="translate(430.764696 527.238438)scale(0.1 -0.1)">
       <use xlink:href="#DejaVuSans-38"/>
      </g>
     </g>
    </g>
    <g id="xtick_6">
     <g id="line2d_6">
      <g>
       <use style="stroke:#000000;stroke-width:0.8;" x="514.378378" xlink:href="#mcf8b762743" y="512.64"/>
      </g>
     </g>
     <g id="text_6">
      <!-- 10 -->
      <defs>
       <path d="M 12.40625 8.296875 
L 28.515625 8.296875 
L 28.515625 63.921875 
L 10.984375 60.40625 
L 10.984375 69.390625 
L 28.421875 72.90625 
L 38.28125 72.90625 
L 38.28125 8.296875 
L 54.390625 8.296875 
L 54.390625 0 
L 12.40625 0 
z
" id="DejaVuSans-31"/>
      </defs>
      <g transform="translate(508.015878 527.238438)scale(0.1 -0.1)">
       <use xlink:href="#DejaVuSans-31"/>
       <use x="63.623047" xlink:href="#DejaVuSans-30"/>
      </g>
     </g>
    </g>
   </g>
   <g id="matplotlib.axis_2">
    <g id="ytick_1">
     <g id="line2d_7">
      <defs>
       <path d="M 0 0 
L -3.5 0 
" id="m5fa3ea773b" style="stroke:#000000;stroke-width:0.8;"/>
      </defs>
      <g>
       <use style="stroke:#000000;stroke-width:0.8;" x="72" xlink:href="#m5fa3ea773b" y="473.863784"/>
      </g>
     </g>
     <g id="text_7">
      <!-- 0 -->
      <g transform="translate(58.6375 477.663003)scale(0.1 -0.1)">
       <use xlink:href="#DejaVuSans-30"/>
      </g>
     </g>
    </g>
    <g id="ytick_2">
     <g id="line2d_8">
      <g>
       <use style="stroke:#000000;stroke-width:0.8;" x="72" xlink:href="#m5fa3ea773b" y="393.431351"/>
      </g>
     </g>
     <g id="text_8">
      <!-- 2 -->
      <g transform="translate(58.6375 397.23057)scale(0.1 -0.1)">
       <use xlink:href="#DejaVuSans-32"/>
      </g>
     </g>
    </g>
    <g id="ytick_3">
     <g id="line2d_9">
      <g>
       <use style="stroke:#000000;stroke-width:0.8;" x="72" xlink:href="#m5fa3ea773b" y="312.998919"/>
      </g>
     </g>
     <g id="text_9">
      <!-- 4 -->
      <g transform="translate(58.6375 316.798138)scale(0.1 -0.1)">
       <use xlink:href="#DejaVuSans-34"/>
      </g>
     </g>
    </g>
    <g id="ytick_4">
     <g id="line2d_10">
      <g>
       <use style="stroke:#000000;stroke-width:0.8;" x="72" xlink:href="#m5fa3ea773b" y="232.566486"/>
      </g>
     </g>
     <g id="text_10">
      <!-- 6 -->
      <g transform="translate(58.6375 236.365705)scale(0.1 -0.1)">
       <use xlink:href="#DejaVuSans-36"/>
      </g>
     </g>
    </g>
    <g id="ytick_5">
     <g id="line2d_11">
      <g>
       <use style="stroke:#000000;stroke-width:0.8;" x="72" xlink:href="#m5fa3ea773b" y="152.134054"/>
      </g>
     </g>
     <g id="text_11">
      <!-- 8 -->
      <g transform="translate(58.6375 155.933273)scale(0.1 -0.1)">
       <use xlink:href="#DejaVuSans-38"/>
      </g>
     </g>
    </g>
    <g id="ytick_6">
     <g id="line2d_12">
      <g>
       <use style="stroke:#000000;stroke-width:0.8;" x="72" xlink:href="#m5fa3ea773b" y="71.701622"/>
      </g>
     </g>
     <g id="text_12">
      <!-- 10 -->
      <g transform="translate(52.275 75.50084)scale(0.1 -0.1)">
       <use xlink:href="#DejaVuSans-31"/>
       <use x="63.623047" xlink:href="#DejaVuSans-30"/>
      </g>
     </g>
    </g>
   </g>
   <g id="line2d_13">
    <path clip-path="url(#p8cf5bece6e)" d="M 140.367568 389.40973 
" style="fill:none;stroke:#1f77b4;stroke-linecap:square;stroke-width:1.5;"/>
    <defs>
     <path d="M -5 5 
L 5 5 
L 5 -5 
L -5 -5 
z
" id="m1e23afce38" style="stroke:#8000ff;stroke-linejoin:miter;"/>
    </defs>
    <g clip-path="url(#p8cf5bece6e)">
     <use style="fill:#8000ff;stroke:#8000ff;stroke-linejoin:miter;" x="140.367568" xlink:href="#m1e23afce38" y="389.40973"/>
    </g>
   </g>
   <g id="line2d_14">
    <path clip-path="url(#p8cf5bece6e)" d="M 393.72973 192.35027 
" style="fill:none;stroke:#ff7f0e;stroke-linecap:square;stroke-width:1.5;"/>
    <defs>
     <path d="M 0 -5 
L -4.755283 -1.545085 
L -2.938926 4.045085 
L 2.938926 4.045085 
L 4.755283 -1.545085 
z
" id="macd64cffd6" style="stroke:#8000ff;stroke-linejoin:miter;"/>
    </defs>
    <g clip-path="url(#p8cf5bece6e)">
     <use style="fill:#8000ff;stroke:#8000ff;stroke-linejoin:miter;" x="393.72973" xlink:href="#macd64cffd6" y="192.35027"/>
    </g>
   </g>
   <g id="line2d_15">
    <path clip-path="url(#p8cf5bece6e)" d="M 450.032432 192.35027 
" style="fill:none;stroke:#2ca02c;stroke-linecap:square;stroke-width:1.5;"/>
    <defs>
     <path d="M -5 5 
L 5 5 
L 5 -5 
L -5 -5 
z
" id="m1edaffe031" style="stroke:#5b39fd;stroke-linejoin:miter;"/>
    </defs>
    <g clip-path="url(#p8cf5bece6e)">
     <use style="fill:#5b39fd;stroke:#5b39fd;stroke-linejoin:miter;" x="450.032432" xlink:href="#m1edaffe031" y="192.35027"/>
    </g>
   </g>
   <g id="line2d_16">
    <path clip-path="url(#p8cf5bece6e)" d="M 224.821622 361.258378 
" style="fill:none;stroke:#d62728;stroke-linecap:square;stroke-width:1.5;"/>
    <defs>
     <path d="M 0 -5 
L -4.755283 -1.545085 
L -2.938926 4.045085 
L 2.938926 4.045085 
L 4.755283 -1.545085 
z
" id="m637783c49d" style="stroke:#5b39fd;stroke-linejoin:miter;"/>
    </defs>
    <g clip-path="url(#p8cf5bece6e)">
     <use style="fill:#5b39fd;stroke:#5b39fd;stroke-linejoin:miter;" x="224.821622" xlink:href="#m637783c49d" y="361.258378"/>
    </g>
   </g>
   <g id="line2d_17">
    <path clip-path="url(#p8cf5bece6e)" d="M 402.175135 440.082162 
" style="fill:none;stroke:#9467bd;stroke-linecap:square;stroke-width:1.5;"/>
    <defs>
     <path d="M -5 5 
L 5 5 
L 5 -5 
L -5 -5 
z
" id="m1a36c8f0d4" style="stroke:#376ff9;stroke-linejoin:miter;"/>
    </defs>
    <g clip-path="url(#p8cf5bece6e)">
     <use style="fill:#376ff9;stroke:#376ff9;stroke-linejoin:miter;" x="402.175135" xlink:href="#m1a36c8f0d4" y="440.082162"/>
    </g>
   </g>
   <g id="line2d_18">
    <path clip-path="url(#p8cf5bece6e)" d="M 224.821622 192.35027 
" style="fill:none;stroke:#8c564b;stroke-linecap:square;stroke-width:1.5;"/>
    <defs>
     <path d="M 0 -5 
L -4.755283 -1.545085 
L -2.938926 4.045085 
L 2.938926 4.045085 
L 4.755283 -1.545085 
z
" id="mb9253fee22" style="stroke:#376ff9;stroke-linejoin:miter;"/>
    </defs>
    <g clip-path="url(#p8cf5bece6e)">
     <use style="fill:#376ff9;stroke:#376ff9;stroke-linejoin:miter;" x="224.821622" xlink:href="#mb9253fee22" y="192.35027"/>
    </g>
   </g>
   <g id="line2d_19">
    <path clip-path="url(#p8cf5bece6e)" d="M 224.821622 136.047568 
" style="fill:none;stroke:#e377c2;stroke-linecap:square;stroke-width:1.5;"/>
    <defs>
     <path d="M -5 5 
L 5 5 
L 5 -5 
L -5 -5 
z
" id="mfd2ea7bd7f" style="stroke:#129ff1;stroke-linejoin:miter;"/>
    </defs>
    <g clip-path="url(#p8cf5bece6e)">
     <use style="fill:#129ff1;stroke:#129ff1;stroke-linejoin:miter;" x="224.821622" xlink:href="#mfd2ea7bd7f" y="136.047568"/>
    </g>
   </g>
   <g id="line2d_20">
    <path clip-path="url(#p8cf5bece6e)" d="M 393.72973 361.258378 
" style="fill:none;stroke:#7f7f7f;stroke-linecap:square;stroke-width:1.5;"/>
    <defs>
     <path d="M 0 -5 
L -4.755283 -1.545085 
L -2.938926 4.045085 
L 2.938926 4.045085 
L 4.755283 -1.545085 
z
" id="mc341394714" style="stroke:#129ff1;stroke-linejoin:miter;"/>
    </defs>
    <g clip-path="url(#p8cf5bece6e)">
     <use style="fill:#129ff1;stroke:#129ff1;stroke-linejoin:miter;" x="393.72973" xlink:href="#mc341394714" y="361.258378"/>
    </g>
   </g>
   <g id="line2d_21">
    <path clip-path="url(#p8cf5bece6e)" d="M 450.032432 304.955676 
" style="fill:none;stroke:#bcbd22;stroke-linecap:square;stroke-width:1.5;"/>
    <defs>
     <path d="M -5 5 
L 5 5 
L 5 -5 
L -5 -5 
z
" id="m28991bc4c7" style="stroke:#12c7e6;stroke-linejoin:miter;"/>
    </defs>
    <g clip-path="url(#p8cf5bece6e)">
     <use style="fill:#12c7e6;stroke:#12c7e6;stroke-linejoin:miter;" x="450.032432" xlink:href="#m28991bc4c7" y="304.955676"/>
    </g>
   </g>
   <g id="line2d_22">
    <path clip-path="url(#p8cf5bece6e)" d="M 196.67027 248.652973 
" style="fill:none;stroke:#17becf;stroke-linecap:square;stroke-width:1.5;"/>
    <defs>
     <path d="M 0 -5 
L -4.755283 -1.545085 
L -2.938926 4.045085 
L 2.938926 4.045085 
L 4.755283 -1.545085 
z
" id="mf8ffab5099" style="stroke:#12c7e6;stroke-linejoin:miter;"/>
    </defs>
    <g clip-path="url(#p8cf5bece6e)">
     <use style="fill:#12c7e6;stroke:#12c7e6;stroke-linejoin:miter;" x="196.67027" xlink:href="#mf8ffab5099" y="248.652973"/>
    </g>
   </g>
   <g id="line2d_23">
    <path clip-path="url(#p8cf5bece6e)" d="M 140.367568 248.652973 
" style="fill:none;stroke:#1f77b4;stroke-linecap:square;stroke-width:1.5;"/>
    <defs>
     <path d="M -5 5 
L 5 5 
L 5 -5 
L -5 -5 
z
" id="m18adcddc13" style="stroke:#37e6d8;stroke-linejoin:miter;"/>
    </defs>
    <g clip-path="url(#p8cf5bece6e)">
     <use style="fill:#37e6d8;stroke:#37e6d8;stroke-linejoin:miter;" x="140.367568" xlink:href="#m18adcddc13" y="248.652973"/>
    </g>
   </g>
   <g id="line2d_24">
    <path clip-path="url(#p8cf5bece6e)" d="M 393.72973 276.804324 
" style="fill:none;stroke:#ff7f0e;stroke-linecap:square;stroke-width:1.5;"/>
    <defs>
     <path d="M 0 -5 
L -4.755283 -1.545085 
L -2.938926 4.045085 
L 2.938926 4.045085 
L 4.755283 -1.545085 
z
" id="m2a39965ee5" style="stroke:#37e6d8;stroke-linejoin:miter;"/>
    </defs>
    <g clip-path="url(#p8cf5bece6e)">
     <use style="fill:#37e6d8;stroke:#37e6d8;stroke-linejoin:miter;" x="393.72973" xlink:href="#m2a39965ee5" y="276.804324"/>
    </g>
   </g>
   <g id="line2d_25">
    <path clip-path="url(#p8cf5bece6e)" d="M 281.124324 192.35027 
" style="fill:none;stroke:#2ca02c;stroke-linecap:square;stroke-width:1.5;"/>
    <defs>
     <path d="M -5 5 
L 5 5 
L 5 -5 
L -5 -5 
z
" id="m25cfbec48b" style="stroke:#5bf9c7;stroke-linejoin:miter;"/>
    </defs>
    <g clip-path="url(#p8cf5bece6e)">
     <use style="fill:#5bf9c7;stroke:#5bf9c7;stroke-linejoin:miter;" x="281.124324" xlink:href="#m25cfbec48b" y="192.35027"/>
    </g>
   </g>
   <g id="line2d_26">
    <path clip-path="url(#p8cf5bece6e)" d="M 281.124324 333.107027 
" style="fill:none;stroke:#d62728;stroke-linecap:square;stroke-width:1.5;"/>
    <defs>
     <path d="M 0 -5 
L -4.755283 -1.545085 
L -2.938926 4.045085 
L 2.938926 4.045085 
L 4.755283 -1.545085 
z
" id="m1546134037" style="stroke:#5bf9c7;stroke-linejoin:miter;"/>
    </defs>
    <g clip-path="url(#p8cf5bece6e)">
     <use style="fill:#5bf9c7;stroke:#5bf9c7;stroke-linejoin:miter;" x="281.124324" xlink:href="#m1546134037" y="333.107027"/>
    </g>
   </g>
   <g id="line2d_27">
    <path clip-path="url(#p8cf5bece6e)" d="M 140.367568 304.955676 
" style="fill:none;stroke:#9467bd;stroke-linecap:square;stroke-width:1.5;"/>
    <defs>
     <path d="M -5 5 
L 5 5 
L 5 -5 
L -5 -5 
z
" id="m5ad3990c97" style="stroke:#80ffb4;stroke-linejoin:miter;"/>
    </defs>
    <g clip-path="url(#p8cf5bece6e)">
     <use style="fill:#80ffb4;stroke:#80ffb4;stroke-linejoin:miter;" x="140.367568" xlink:href="#m5ad3990c97" y="304.955676"/>
    </g>
   </g>
   <g id="line2d_28">
    <path clip-path="url(#p8cf5bece6e)" d="M 309.275676 276.804324 
" style="fill:none;stroke:#8c564b;stroke-linecap:square;stroke-width:1.5;"/>
    <defs>
     <path d="M 0 -5 
L -4.755283 -1.545085 
L -2.938926 4.045085 
L 2.938926 4.045085 
L 4.755283 -1.545085 
z
" id="m36f7c7d514" style="stroke:#80ffb4;stroke-linejoin:miter;"/>
    </defs>
    <g clip-path="url(#p8cf5bece6e)">
     <use style="fill:#80ffb4;stroke:#80ffb4;stroke-linejoin:miter;" x="309.275676" xlink:href="#m36f7c7d514" y="276.804324"/>
    </g>
   </g>
   <g id="line2d_29">
    <path clip-path="url(#p8cf5bece6e)" d="M 393.72973 220.501622 
" style="fill:none;stroke:#e377c2;stroke-linecap:square;stroke-width:1.5;"/>
    <defs>
     <path d="M -5 5 
L 5 5 
L 5 -5 
L -5 -5 
z
" id="m0c4162bad8" style="stroke:#a4f99f;stroke-linejoin:miter;"/>
    </defs>
    <g clip-path="url(#p8cf5bece6e)">
     <use style="fill:#a4f99f;stroke:#a4f99f;stroke-linejoin:miter;" x="393.72973" xlink:href="#m0c4162bad8" y="220.501622"/>
    </g>
   </g>
   <g id="line2d_30">
    <path clip-path="url(#p8cf5bece6e)" d="M 140.367568 276.804324 
" style="fill:none;stroke:#7f7f7f;stroke-linecap:square;stroke-width:1.5;"/>
    <defs>
     <path d="M 0 -5 
L -4.755283 -1.545085 
L -2.938926 4.045085 
L 2.938926 4.045085 
L 4.755283 -1.545085 
z
" id="m5007926f5e" style="stroke:#a4f99f;stroke-linejoin:miter;"/>
    </defs>
    <g clip-path="url(#p8cf5bece6e)">
     <use style="fill:#a4f99f;stroke:#a4f99f;stroke-linejoin:miter;" x="140.367568" xlink:href="#m5007926f5e" y="276.804324"/>
    </g>
   </g>
   <g id="line2d_31">
    <path clip-path="url(#p8cf5bece6e)" d="M 140.367568 136.047568 
" style="fill:none;stroke:#bcbd22;stroke-linecap:square;stroke-width:1.5;"/>
    <defs>
     <path d="M -5 5 
L 5 5 
L 5 -5 
L -5 -5 
z
" id="mcedccca46a" style="stroke:#c8e688;stroke-linejoin:miter;"/>
    </defs>
    <g clip-path="url(#p8cf5bece6e)">
     <use style="fill:#c8e688;stroke:#c8e688;stroke-linejoin:miter;" x="140.367568" xlink:href="#mcedccca46a" y="136.047568"/>
    </g>
   </g>
   <g id="line2d_32">
    <path clip-path="url(#p8cf5bece6e)" d="M 252.972973 248.652973 
" style="fill:none;stroke:#17becf;stroke-linecap:square;stroke-width:1.5;"/>
    <defs>
     <path d="M 0 -5 
L -4.755283 -1.545085 
L -2.938926 4.045085 
L 2.938926 4.045085 
L 4.755283 -1.545085 
z
" id="m8e652b8f4d" style="stroke:#c8e688;stroke-linejoin:miter;"/>
    </defs>
    <g clip-path="url(#p8cf5bece6e)">
     <use style="fill:#c8e688;stroke:#c8e688;stroke-linejoin:miter;" x="252.972973" xlink:href="#m8e652b8f4d" y="248.652973"/>
    </g>
   </g>
   <g id="line2d_33">
    <path clip-path="url(#p8cf5bece6e)" d="M 337.427027 164.198919 
" style="fill:none;stroke:#1f77b4;stroke-linecap:square;stroke-width:1.5;"/>
    <defs>
     <path d="M -5 5 
L 5 5 
L 5 -5 
L -5 -5 
z
" id="m9c7ebd8271" style="stroke:#edc76f;stroke-linejoin:miter;"/>
    </defs>
    <g clip-path="url(#p8cf5bece6e)">
     <use style="fill:#edc76f;stroke:#edc76f;stroke-linejoin:miter;" x="337.427027" xlink:href="#m9c7ebd8271" y="164.198919"/>
    </g>
   </g>
   <g id="line2d_34">
    <path clip-path="url(#p8cf5bece6e)" d="M 168.518919 389.40973 
" style="fill:none;stroke:#ff7f0e;stroke-linecap:square;stroke-width:1.5;"/>
    <defs>
     <path d="M 0 -5 
L -4.755283 -1.545085 
L -2.938926 4.045085 
L 2.938926 4.045085 
L 4.755283 -1.545085 
z
" id="me88098646f" style="stroke:#edc76f;stroke-linejoin:miter;"/>
    </defs>
    <g clip-path="url(#p8cf5bece6e)">
     <use style="fill:#edc76f;stroke:#edc76f;stroke-linejoin:miter;" x="168.518919" xlink:href="#me88098646f" y="389.40973"/>
    </g>
   </g>
   <g id="line2d_35">
    <path clip-path="url(#p8cf5bece6e)" d="M 196.67027 445.712432 
" style="fill:none;stroke:#2ca02c;stroke-linecap:square;stroke-width:1.5;"/>
    <defs>
     <path d="M -5 5 
L 5 5 
L 5 -5 
L -5 -5 
z
" id="m15965e013c" style="stroke:#ff9f54;stroke-linejoin:miter;"/>
    </defs>
    <g clip-path="url(#p8cf5bece6e)">
     <use style="fill:#ff9f54;stroke:#ff9f54;stroke-linejoin:miter;" x="196.67027" xlink:href="#m15965e013c" y="445.712432"/>
    </g>
   </g>
   <g id="line2d_36">
    <path clip-path="url(#p8cf5bece6e)" d="M 393.72973 136.047568 
" style="fill:none;stroke:#d62728;stroke-linecap:square;stroke-width:1.5;"/>
    <defs>
     <path d="M 0 -5 
L -4.755283 -1.545085 
L -2.938926 4.045085 
L 2.938926 4.045085 
L 4.755283 -1.545085 
z
" id="m624409086a" style="stroke:#ff9f54;stroke-linejoin:miter;"/>
    </defs>
    <g clip-path="url(#p8cf5bece6e)">
     <use style="fill:#ff9f54;stroke:#ff9f54;stroke-linejoin:miter;" x="393.72973" xlink:href="#m624409086a" y="136.047568"/>
    </g>
   </g>
   <g id="line2d_37">
    <path clip-path="url(#p8cf5bece6e)" d="M 224.821622 333.107027 
" style="fill:none;stroke:#9467bd;stroke-linecap:square;stroke-width:1.5;"/>
    <defs>
     <path d="M -5 5 
L 5 5 
L 5 -5 
L -5 -5 
z
" id="mbe890ba5ad" style="stroke:#ff6f39;stroke-linejoin:miter;"/>
    </defs>
    <g clip-path="url(#p8cf5bece6e)">
     <use style="fill:#ff6f39;stroke:#ff6f39;stroke-linejoin:miter;" x="224.821622" xlink:href="#mbe890ba5ad" y="333.107027"/>
    </g>
   </g>
   <g id="line2d_38">
    <path clip-path="url(#p8cf5bece6e)" d="M 281.124324 164.198919 
" style="fill:none;stroke:#8c564b;stroke-linecap:square;stroke-width:1.5;"/>
    <defs>
     <path d="M 0 -5 
L -4.755283 -1.545085 
L -2.938926 4.045085 
L 2.938926 4.045085 
L 4.755283 -1.545085 
z
" id="m78135aedc7" style="stroke:#ff6f39;stroke-linejoin:miter;"/>
    </defs>
    <g clip-path="url(#p8cf5bece6e)">
     <use style="fill:#ff6f39;stroke:#ff6f39;stroke-linejoin:miter;" x="281.124324" xlink:href="#m78135aedc7" y="164.198919"/>
    </g>
   </g>
   <g id="line2d_39">
    <path clip-path="url(#p8cf5bece6e)" d="M 281.124324 361.258378 
" style="fill:none;stroke:#e377c2;stroke-linecap:square;stroke-width:1.5;"/>
    <defs>
     <path d="M -5 5 
L 5 5 
L 5 -5 
L -5 -5 
z
" id="mf9c1b80858" style="stroke:#ff391d;stroke-linejoin:miter;"/>
    </defs>
    <g clip-path="url(#p8cf5bece6e)">
     <use style="fill:#ff391d;stroke:#ff391d;stroke-linejoin:miter;" x="281.124324" xlink:href="#mf9c1b80858" y="361.258378"/>
    </g>
   </g>
   <g id="line2d_40">
    <path clip-path="url(#p8cf5bece6e)" d="M 337.427027 276.804324 
" style="fill:none;stroke:#7f7f7f;stroke-linecap:square;stroke-width:1.5;"/>
    <defs>
     <path d="M 0 -5 
L -4.755283 -1.545085 
L -2.938926 4.045085 
L 2.938926 4.045085 
L 4.755283 -1.545085 
z
" id="m0016baa613" style="stroke:#ff391d;stroke-linejoin:miter;"/>
    </defs>
    <g clip-path="url(#p8cf5bece6e)">
     <use style="fill:#ff391d;stroke:#ff391d;stroke-linejoin:miter;" x="337.427027" xlink:href="#m0016baa613" y="276.804324"/>
    </g>
   </g>
   <g id="line2d_41">
    <path clip-path="url(#p8cf5bece6e)" d="M 421.881081 361.258378 
" style="fill:none;stroke:#bcbd22;stroke-linecap:square;stroke-width:1.5;"/>
    <defs>
     <path d="M -5 5 
L 5 5 
L 5 -5 
L -5 -5 
z
" id="mf6e1ffa990" style="stroke:#ff0000;stroke-linejoin:miter;"/>
    </defs>
    <g clip-path="url(#p8cf5bece6e)">
     <use style="fill:#ff0000;stroke:#ff0000;stroke-linejoin:miter;" x="421.881081" xlink:href="#mf6e1ffa990" y="361.258378"/>
    </g>
   </g>
   <g id="line2d_42">
    <path clip-path="url(#p8cf5bece6e)" d="M 224.821622 164.198919 
" style="fill:none;stroke:#17becf;stroke-linecap:square;stroke-width:1.5;"/>
    <defs>
     <path d="M 0 -5 
L -4.755283 -1.545085 
L -2.938926 4.045085 
L 2.938926 4.045085 
L 4.755283 -1.545085 
z
" id="m3d5b5411bb" style="stroke:#ff0000;stroke-linejoin:miter;"/>
    </defs>
    <g clip-path="url(#p8cf5bece6e)">
     <use style="fill:#ff0000;stroke:#ff0000;stroke-linejoin:miter;" x="224.821622" xlink:href="#m3d5b5411bb" y="164.198919"/>
    </g>
   </g>
   <g id="line2d_43"/>
   <g id="line2d_44">
    <path clip-path="url(#p8cf5bece6e)" d="M 92.108108 493.971892 
L 92.108108 87.788108 
" style="fill:none;stroke:#000000;stroke-linecap:square;stroke-width:4;"/>
   </g>
   <g id="line2d_45">
    <path clip-path="url(#p8cf5bece6e)" d="M 92.108108 87.788108 
L 498.291892 87.788108 
" style="fill:none;stroke:#000000;stroke-linecap:square;stroke-width:4;"/>
   </g>
   <g id="line2d_46">
    <path clip-path="url(#p8cf5bece6e)" d="M 498.291892 87.788108 
L 498.291892 493.971892 
" style="fill:none;stroke:#000000;stroke-linecap:square;stroke-width:4;"/>
   </g>
   <g id="line2d_47">
    <path clip-path="url(#p8cf5bece6e)" d="M 498.291892 493.971892 
L 92.108108 493.971892 
" style="fill:none;stroke:#000000;stroke-linecap:square;stroke-width:4;"/>
   </g>
   <g id="line2d_48">
    <path clip-path="url(#p8cf5bece6e)" d="M 140.367568 389.40973 
L 141.292541 389.40973 
L 143.504432 389.208649 
L 145.756541 388.605405 
L 147.968432 387.720649 
L 151.708541 385.709838 
L 155.488865 383.216432 
L 159.590919 380.240432 
L 171.173189 371.151568 
L 178.291459 365.440865 
L 191.241081 355.024865 
L 193.412757 353.536865 
L 195.142054 352.692324 
L 197.193081 352.008649 
L 201.938595 350.963027 
L 207.247135 350.158703 
L 216.778378 348.831568 
L 221.805405 347.987027 
L 223.735784 347.544649 
L 227.837838 346.297946 
L 229.768216 345.533838 
L 233.106162 343.925189 
L 239.902703 339.984 
L 242.516757 339.139459 
L 244.728649 338.898162 
L 247.423135 339.099243 
L 256.672865 340.828541 
L 258.804324 341.069838 
L 261.458595 341.512216 
L 263.710703 342.598054 
L 264.796541 343.523027 
L 265.078054 343.925189 
L 265.198703 344.76973 
L 264.756324 346.820757 
L 263.590054 348.992432 
L 263.509622 349.113081 
L 263.187892 350.198919 
L 262.262919 352.692324 
L 260.453189 356.392216 
L 259.769514 358.684541 
L 259.126054 360.252973 
L 258.201081 362.022486 
L 257.195676 364.837622 
L 257.115243 365.60173 
L 257.276108 366.727784 
L 257.638054 367.853838 
L 258.040216 368.457081 
L 259.045622 369.221189 
L 260.976 370.105946 
L 263.268324 370.709189 
L 265.359568 370.91027 
L 267.24973 370.870054 
L 268.657297 370.588541 
L 269.863784 370.06573 
L 271.110486 368.859243 
L 272.115892 367.129946 
L 273.563676 365.119135 
L 275.292973 363.430054 
L 277.303784 362.062703 
L 279.234162 361.017081 
L 281.48627 360.051892 
L 283.818811 359.247568 
L 288.001297 358.282378 
L 292.706595 357.317189 
L 297.291243 356.110703 
L 299.422703 355.869405 
L 301.875892 356.070486 
L 304.570378 356.432432 
L 314.101622 356.271568 
L 316.192865 355.990054 
L 318.284108 355.467243 
L 320.375351 354.54227 
L 322.547027 353.094486 
L 324.356757 351.56627 
L 325.925189 350.038054 
L 327.453405 347.906595 
L 328.499027 346.056649 
L 330.308757 341.914378 
L 331.193514 339.66227 
L 331.917405 337.450378 
L 332.198919 335.158054 
L 332.279351 327.878919 
L 332.882595 325.224649 
L 333.888 322.972541 
L 336.341189 318.629189 
L 337.990054 316.377081 
L 339.880216 314.848865 
L 342.212757 313.401081 
L 343.942054 312.194595 
L 345.309405 310.988108 
L 348.245189 307.931676 
L 354.237405 301.014486 
L 357.334054 297.676541 
L 359.224216 295.705946 
L 361.114378 294.137514 
L 363.125189 292.68973 
L 364.733838 291.282162 
L 368.112 287.823568 
L 373.058595 282.595459 
L 376.195459 278.935784 
L 377.522595 277.246703 
L 378.889946 275.316324 
L 380.016 273.265297 
L 380.860541 271.294703 
L 381.383351 269.645838 
L 381.705081 267.554595 
L 382.348541 265.222054 
L 383.112649 263.573189 
L 384.640865 261.602595 
L 386.329946 260.074378 
L 392.844973 254.765838 
L 394.57427 253.116973 
L 396.343784 251.146378 
L 397.630703 249.417081 
L 398.796973 247.647568 
L 399.963243 245.596541 
L 401.008865 243.465081 
L 401.933838 241.253189 
L 402.738162 239.001081 
L 403.864216 234.899027 
L 404.266378 232.486054 
L 404.387027 230.435027 
L 404.306595 228.343784 
L 404.025081 225.971027 
L 403.260973 221.788541 
L 402.054486 217.123459 
L 400.727351 212.498595 
L 398.475243 205.621622 
L 396.223135 199.026162 
L 394.493838 194.240432 
L 394.493838 194.240432 
" style="fill:none;stroke:#8000ff;stroke-linecap:square;stroke-width:1.5;"/>
   </g>
   <g id="line2d_49">
    <path clip-path="url(#p8cf5bece6e)" d="M 450.032432 192.35027 
L 450.233514 192.430703 
L 450.354162 192.551351 
L 450.474811 193.033946 
L 450.515027 194.320865 
L 450.112865 195.96973 
L 449.147676 198.020757 
L 447.619459 200.272865 
L 446.051027 202.082595 
L 443.115243 204.817297 
L 439.133838 208.074811 
L 431.412324 213.865946 
L 413.757405 226.534054 
L 411.666162 227.820973 
L 409.695568 228.665514 
L 405.834811 229.751351 
L 400.284973 230.957838 
L 391.115676 232.888216 
L 388.662486 233.571892 
L 387.013622 234.376216 
L 383.112649 236.789189 
L 381.383351 238.035892 
L 380.619243 238.880432 
L 380.016 240.247784 
L 379.654054 241.936865 
L 378.970378 243.786811 
L 377.522595 245.91827 
L 376.275892 247.004108 
L 374.104216 248.210595 
L 369.519568 249.779027 
L 367.428324 250.864865 
L 362.562162 253.760432 
L 360.470919 254.444108 
L 358.259027 254.564757 
L 355.403676 254.082162 
L 348.406054 252.51373 
L 345.792 252.111568 
L 342.976865 252.111568 
L 340.764973 252.795243 
L 339.035676 253.921297 
L 335.778162 256.33427 
L 334.732541 256.97773 
L 333.606486 257.460324 
L 333.204324 257.299459 
L 332.4 256.897297 
L 330.59027 256.33427 
L 328.056649 256.33427 
L 325.643676 256.97773 
L 323.190486 257.420108 
L 320.857946 257.299459 
L 318.324324 257.621189 
L 316.112432 258.505946 
L 313.940757 258.988541 
L 313.980973 258.948324 
L 314.061405 258.867892 
L 313.860324 259.229838 
L 313.498378 260.114595 
L 313.37773 261.44173 
L 313.619027 266.106811 
L 313.337514 268.318703 
L 312.533189 271.696865 
L 312.492973 271.576216 
L 312.452757 271.415351 
L 313.216865 272.219676 
L 314.302703 273.707676 
L 315.267892 276.603243 
L 315.468973 278.815135 
L 316.032 280.986811 
L 317.318919 283.600865 
L 317.439568 284.847568 
L 317.600432 285.531243 
L 317.761297 286.013838 
L 317.680865 286.295351 
L 317.479784 287.662703 
L 317.560216 289.71373 
L 318.163459 292.207135 
L 318.163459 295.02227 
L 317.680865 297.033081 
L 317.399351 299.446054 
L 317.278703 301.577514 
L 316.675459 303.749189 
L 315.348324 305.880649 
L 312.090811 308.856649 
L 309.275676 311.430486 
L 307.667027 312.757622 
L 305.977946 313.843459 
L 304.087784 314.567351 
L 302.237838 314.688 
L 300.428108 314.245622 
L 298.537946 313.320649 
L 296.688 312.114162 
L 295.039135 310.666378 
L 292.063135 307.288216 
L 290.41427 305.840432 
L 289.449081 305.156757 
L 287.800216 304.231784 
L 285.829622 303.708973 
L 282.732973 303.588324 
L 280.64173 303.789405 
L 271.432216 305.518703 
L 264.354162 306.845838 
L 260.010811 308.052324 
L 255.506595 309.741405 
L 251.444757 311.712 
L 247.744865 313.843459 
L 244.406919 316.055351 
L 242.436324 317.583568 
L 240.948324 319.071568 
L 239.661405 320.720432 
L 238.495135 322.489946 
L 237.288649 324.540973 
L 235.237622 328.884324 
L 233.468108 333.348324 
L 229.848649 344.287135 
L 227.113946 353.255351 
L 225.666162 358.121514 
L 225.666162 358.121514 
" style="fill:none;stroke:#5b39fd;stroke-linecap:square;stroke-width:1.5;"/>
   </g>
   <g id="line2d_50">
    <path clip-path="url(#p8cf5bece6e)" d="M 402.175135 440.082162 
L 401.974054 440.162595 
L 402.175135 439.921297 
L 402.456649 439.35827 
L 402.697946 438.272432 
L 402.577297 436.342054 
L 401.933838 433.848649 
L 401.049081 431.676973 
L 399.199135 428.218378 
L 396.786162 424.357622 
L 392.523243 418.204541 
L 386.008216 409.316757 
L 380.780108 402.198486 
L 376.758486 396.84973 
L 372.616216 391.219459 
L 366.784865 383.578378 
L 365.256649 382.211027 
L 363.286054 380.883892 
L 359.103568 378.511135 
L 350.457081 374.208 
L 342.454054 370.467892 
L 340.322595 369.341838 
L 338.311784 367.853838 
L 336.502054 366.204973 
L 334.933622 364.314811 
L 334.008649 362.384432 
L 333.324973 360.293189 
L 332.882595 358.121514 
L 332.681514 355.990054 
L 332.601081 350.882595 
L 332.560865 346.860973 
L 332.158703 344.005622 
L 332.882595 343.442595 
L 335.014054 342.236108 
L 337.306378 341.673081 
L 339.51827 341.512216 
L 340.322595 341.512216 
L 340.684541 341.391568 
L 344.304 339.823135 
L 346.234378 338.777514 
L 347.802811 337.490595 
L 349.491892 335.479784 
L 350.658162 333.71027 
L 352.91027 329.487568 
L 354.358054 326.310486 
L 354.317838 326.390919 
L 354.277622 326.189838 
L 353.714595 325.023568 
L 352.105946 323.334486 
L 350.095135 322.248649 
L 347.561514 321.766054 
L 344.746378 321.926919 
L 342.011676 321.685622 
L 339.920432 320.881297 
L 337.748757 319.433514 
L 335.577081 317.543351 
L 334.008649 315.532541 
L 331.635892 313.159784 
L 331.836973 313.240216 
L 331.354378 313.320649 
L 329.946811 314.044541 
L 328.056649 315.452108 
L 325.884973 316.578162 
L 323.79373 317.100973 
L 321.622054 317.865081 
L 320.415568 318.588973 
L 319.168865 319.956324 
L 318.042811 320.96173 
L 316.474378 321.725838 
L 314.141838 322.208432 
L 311.648432 322.007351 
L 309.074595 320.921514 
L 307.184432 319.272649 
L 305.897514 317.382486 
L 304.087784 315.049946 
L 300.428108 311.712 
L 298.980324 309.701189 
L 297.049946 306.08173 
L 294.395676 301.818811 
L 292.787027 300.089514 
L 291.90227 299.48627 
L 292.063135 299.526486 
L 291.258811 299.808 
L 289.368649 300.773189 
L 287.076324 301.698162 
L 284.864432 302.060108 
L 282.371027 301.698162 
L 277.826595 299.888432 
L 273.161514 298.64173 
L 270.949622 297.555892 
L 267.048649 295.183135 
L 263.388973 292.408216 
L 261.699892 290.960432 
L 260.091243 289.150703 
L 257.67827 285.611676 
L 255.989189 283.600865 
L 254.460973 282.153081 
L 250.88173 279.337946 
L 245.090595 275.517405 
L 237.610378 270.812108 
L 234.272432 268.23827 
L 230.854054 265.222054 
L 227.274811 261.562378 
L 224.499892 258.264649 
L 218.829405 250.704 
L 218.628324 250.301838 
L 218.628324 249.618162 
L 218.748973 247.969297 
L 219.070703 246.441081 
L 219.513081 245.194378 
L 219.955459 244.309622 
L 220.558703 243.424865 
L 221.282595 242.660757 
L 222.207568 242.09773 
L 222.408649 242.178162 
L 222.971676 242.861838 
L 223.977081 245.194378 
L 224.258595 247.969297 
L 223.896649 249.658378 
L 223.534703 250.38227 
L 223.052108 250.985514 
L 221.96627 251.830054 
L 221.363027 252.151784 
L 219.915243 252.594162 
L 218.387027 252.714811 
L 213.319784 252.634378 
L 211.429622 252.51373 
L 208.735135 252.151784 
L 206.362378 251.628973 
L 204.029838 250.945297 
L 201.737514 250.060541 
L 199.525622 249.014919 
L 197.394162 247.848649 
L 195.383351 246.481297 
L 193.654054 245.154162 
L 192.045405 243.706378 
L 190.557405 242.137946 
L 189.149838 240.489081 
L 188.023784 238.960865 
L 186.576 236.668541 
L 184.524973 232.646919 
L 183.801081 230.314378 
L 183.197838 226.735135 
L 182.996757 223.316757 
L 183.077189 221.346162 
L 183.318486 219.415784 
L 183.720649 217.324541 
L 184.283676 215.072432 
L 184.846703 213.302919 
L 186.576 209.04 
L 187.621622 207.109622 
L 188.908541 205.340108 
L 190.235676 203.972757 
L 192.166054 202.484757 
L 194.217081 201.197838 
L 196.147459 200.192432 
L 198.600649 199.106595 
L 201.13427 198.141405 
L 203.26573 197.538162 
L 205.437405 197.377297 
L 207.649297 197.538162 
L 209.780757 197.859892 
L 216.295784 199.267459 
L 218.668541 199.629405 
L 220.518486 199.750054 
L 222.891243 199.709838 
L 224.982486 199.468541 
L 226.631351 199.106595 
L 227.837838 198.664216 
L 229.325838 197.819676 
L 230.371459 196.934919 
L 231.296432 195.648 
L 231.256216 195.688216 
L 231.376865 194.924108 
L 231.376865 194.924108 
L 231.296432 194.401297 
L 231.014919 193.999135 
L 229.526919 192.832865 
L 227.676973 192.028541 
L 227.676973 192.028541 
" style="fill:none;stroke:#376ff9;stroke-linecap:square;stroke-width:1.5;"/>
   </g>
   <g id="line2d_51">
    <path clip-path="url(#p8cf5bece6e)" d="M 224.821622 136.047568 
L 225.505297 136.087784 
L 227.033514 136.329081 
L 228.682378 136.851892 
L 230.813838 137.857297 
L 232.864865 139.224649 
L 234.755027 140.793081 
L 236.484324 142.482162 
L 239.862486 146.342919 
L 243.843892 151.410162 
L 250.037189 159.855568 
L 262.986811 177.952865 
L 269.059459 186.438486 
L 270.265946 188.006919 
L 272.236541 189.736216 
L 274.488649 191.023135 
L 276.740757 191.666595 
L 279.113514 192.108973 
L 283.376432 192.551351 
L 288.001297 193.395892 
L 290.172973 193.516541 
L 294.958703 193.436108 
L 297.693405 193.235027 
L 299.865081 193.235027 
L 302.278054 193.476324 
L 304.369297 194.039351 
L 306.420324 194.843676 
L 308.592 195.929514 
L 310.683243 197.216432 
L 312.452757 198.503351 
L 313.779892 199.870703 
L 314.986378 201.318486 
L 317.479784 204.857514 
L 318.68627 206.667243 
L 319.892757 208.71827 
L 324.155676 217.123459 
L 326.12627 221.868973 
L 326.850162 223.960216 
L 328.217514 226.131892 
L 329.946811 227.660108 
L 331.796757 228.544865 
L 335.939027 229.469838 
L 338.271568 230.314378 
L 340.443243 231.36 
L 346.435459 234.939243 
L 352.226595 238.880432 
L 356.006919 241.896649 
L 360.591568 246.038919 
L 362.079568 247.607351 
L 363.527351 249.577946 
L 364.934919 251.950703 
L 365.819676 253.840865 
L 366.985946 255.570162 
L 371.570595 260.717838 
L 373.018378 262.648216 
L 374.38573 264.699243 
L 375.431351 266.589405 
L 376.476973 268.801297 
L 378.125838 273.104432 
L 379.332324 277.528216 
L 380.860541 284.60627 
L 382.026811 290.920216 
L 382.348541 293.453838 
L 382.308324 294.982054 
L 382.187676 296.389622 
L 382.67027 297.797189 
L 383.595243 299.084108 
L 385.244108 300.491676 
L 390.995027 304.674162 
L 393.046054 306.443676 
L 396.142703 309.821838 
L 398.877405 313.52173 
L 401.209946 317.503135 
L 402.295784 319.674811 
L 404.306595 324.380108 
L 405.794595 328.723459 
L 406.277189 330.492973 
L 406.558703 332.946162 
L 406.438054 335.680865 
L 406.156541 337.530811 
L 405.714162 339.380757 
L 404.99027 341.713297 
L 404.025081 344.246919 
L 402.054486 348.389189 
L 401.008865 350.480432 
L 400.52627 351.727135 
L 399.520865 355.708541 
L 398.274162 360.655135 
L 397.630703 362.344216 
L 397.630703 362.344216 
" style="fill:none;stroke:#129ff1;stroke-linecap:square;stroke-width:1.5;"/>
   </g>
   <g id="line2d_52">
    <path clip-path="url(#p8cf5bece6e)" d="M 450.032432 304.955676 
L 449.831351 305.036108 
L 449.710703 305.156757 
L 449.670486 305.277405 
L 449.670486 304.915459 
L 449.469405 304.272 
L 448.825946 303.306811 
L 447.579243 302.220973 
L 445.80973 301.135135 
L 443.718486 300.089514 
L 439.737081 298.681946 
L 433.825297 297.033081 
L 426.787459 295.424432 
L 417.618162 293.494054 
L 410.178162 291.885405 
L 408.247784 291.241946 
L 405.995676 290.236541 
L 404.14573 289.231135 
L 401.853405 287.823568 
L 397.670919 284.847568 
L 392.804757 281.107459 
L 390.75373 279.941189 
L 388.783135 279.056432 
L 386.611459 277.689081 
L 384.922378 275.839135 
L 383.957189 273.828324 
L 383.394162 271.133838 
L 383.233297 268.841514 
L 383.555027 267.675243 
L 384.077838 267.192649 
L 384.600649 267.192649 
L 392.523243 267.755676 
L 394.735135 267.39373 
L 396.665514 266.710054 
L 398.153514 265.865514 
L 398.394811 265.463351 
L 398.676324 264.297081 
L 398.716541 262.246054 
L 398.113297 259.591784 
L 396.947027 256.97773 
L 394.694919 252.996324 
L 393.850378 250.985514 
L 393.327568 248.854054 
L 392.885189 246.481297 
L 392.281946 241.977081 
L 391.759135 239.885838 
L 390.834162 237.673946 
L 388.582054 233.451243 
L 386.329946 229.510054 
L 383.635459 225.568865 
L 382.107243 223.718919 
L 380.377946 222.11027 
L 378.688865 220.783135 
L 374.908541 218.329946 
L 370.927135 216.118054 
L 367.106595 214.227892 
L 361.476324 211.774703 
L 359.224216 211.050811 
L 356.891676 210.769297 
L 354.518919 210.809514 
L 352.146162 211.091027 
L 347.963676 211.895351 
L 342.976865 212.981189 
L 341.046486 213.061622 
L 338.593297 212.860541 
L 333.646703 212.096432 
L 331.314162 212.176865 
L 329.222919 212.498595 
L 324.839351 213.624649 
L 322.908973 214.509405 
L 318.525405 217.043027 
L 316.35373 218.128865 
L 313.900541 218.973405 
L 311.165838 219.174486 
L 306.701838 218.732108 
L 304.329081 218.812541 
L 293.712 220.340757 
L 291.097946 220.541838 
L 286.915459 221.185297 
L 284.46227 221.627676 
L 282.290595 221.788541 
L 279.837405 221.587459 
L 277.424432 221.145081 
L 275.333189 220.62227 
L 262.262919 216.560432 
L 257.879351 215.555027 
L 254.018595 214.951784 
L 253.254486 214.911568 
L 252.289297 215.032216 
L 244.889514 216.681081 
L 241.270054 217.766919 
L 239.138595 218.611459 
L 235.318054 220.421189 
L 233.468108 221.466811 
L 231.738811 222.190703 
L 228.199784 223.196108 
L 228.24 223.155892 
L 226.953081 224.362378 
L 225.947676 224.965622 
L 224.781405 225.448216 
L 222.529297 225.689514 
L 220.397838 225.568865 
L 214.204541 224.684108 
L 210.544865 224.563459 
L 210.544865 224.563459 
L 209.901405 224.121081 
L 209.780757 223.879784 
L 209.861189 223.59827 
L 210.102486 223.517838 
L 210.786162 223.558054 
L 211.912216 223.92 
L 213.158919 224.603676 
L 213.963243 225.287351 
L 214.968649 226.534054 
L 215.772973 227.981838 
L 216.496865 229.952432 
L 216.899027 231.68173 
L 217.140324 234.094703 
L 217.019676 236.266378 
L 216.215351 238.639135 
L 215.049081 240.529297 
L 213.199135 242.218378 
L 209.660108 244.188973 
L 205.477622 246.079135 
L 202.984216 247.084541 
L 200.410378 247.969297 
L 200.410378 247.969297 
" style="fill:none;stroke:#12c7e6;stroke-linecap:square;stroke-width:1.5;"/>
   </g>
   <g id="line2d_53">
    <path clip-path="url(#p8cf5bece6e)" d="M 140.367568 248.652973 
L 143.263135 248.693189 
L 145.957622 248.773622 
L 153.196541 249.376865 
L 167.312432 250.864865 
L 206.764541 255.409297 
L 208.212324 255.409297 
L 209.579676 254.966919 
L 211.670919 253.519135 
L 213.440432 251.910486 
L 215.772973 250.502919 
L 217.220757 249.980108 
L 218.14573 249.859459 
L 219.673946 249.779027 
L 221.443459 249.980108 
L 225.987892 251.146378 
L 228.159568 251.87027 
L 228.079135 251.87027 
L 227.837838 252.031135 
L 227.797622 252.232216 
L 227.556324 251.508324 
L 226.269405 249.738811 
L 224.902054 248.612757 
L 223.132541 247.647568 
L 221.282595 246.24 
L 218.909838 243.706378 
L 217.743568 242.741189 
L 216.175135 240.971676 
L 214.727351 237.955459 
L 211.630703 229.067676 
L 211.027459 226.694919 
L 210.263351 221.909189 
L 210.102486 219.77773 
L 210.263351 217.565838 
L 210.786162 215.152865 
L 211.429622 213.101838 
L 213.078486 209.36173 
L 214.124108 207.471568 
L 215.290378 205.661838 
L 216.979459 203.248865 
L 220.076108 199.468541 
L 223.212973 196.170811 
L 226.671568 192.792649 
L 231.939892 188.208 
L 235.599568 185.392865 
L 239.621189 182.738595 
L 250.318703 174.695351 
L 254.139243 172.16173 
L 256.069622 171.075892 
L 258.32173 170.150919 
L 260.412973 169.547676 
L 262.825946 169.105297 
L 265.238919 168.783568 
L 268.174703 168.582486 
L 273.040865 168.622703 
L 275.453838 168.783568 
L 280.561297 169.427027 
L 284.784 170.271568 
L 287.116541 170.955243 
L 288.845838 171.759568 
L 291.419676 173.328 
L 293.148973 174.574703 
L 296.688 177.510486 
L 300.066162 180.607135 
L 304.731243 185.191784 
L 306.259459 186.358054 
L 308.91373 187.363459 
L 315.509189 187.88627 
L 319.490595 188.610162 
L 324.195892 189.696 
L 328.338162 190.942703 
L 330.107676 191.545946 
L 332.842378 192.792649 
L 334.893405 194.16 
L 336.582486 195.567568 
L 338.311784 197.296865 
L 341.167135 200.514162 
L 344.62573 205.018378 
L 348.526703 210.447568 
L 364.613189 233.893622 
L 366.905514 237.392432 
L 367.750054 239.403243 
L 368.152216 240.931459 
L 368.353297 242.620541 
L 368.152216 244.912865 
L 367.508757 247.044324 
L 366.624 248.652973 
L 364.975135 250.985514 
L 364.934919 251.789838 
L 365.256649 253.197405 
L 366.060973 255.087568 
L 367.026162 256.656 
L 368.675027 258.666811 
L 370.323892 260.396108 
L 374.104216 263.77427 
L 377.442162 266.549189 
L 380.940973 269.72627 
L 382.67027 270.972973 
L 383.715892 271.415351 
L 385.324541 271.85773 
L 389.507027 272.581622 
L 391.115676 272.822919 
L 393.72973 273.385946 
L 393.72973 273.385946 
" style="fill:none;stroke:#37e6d8;stroke-linecap:square;stroke-width:1.5;"/>
   </g>
   <g id="line2d_54">
    <path clip-path="url(#p8cf5bece6e)" d="M 281.124324 192.35027 
L 281.405838 192.390486 
L 281.968865 192.591568 
L 282.732973 193.114378 
L 283.61773 194.240432 
L 284.46227 196.130595 
L 284.985081 198.181622 
L 285.347027 200.554378 
L 285.588324 202.967351 
L 285.708973 205.380324 
L 285.789405 207.270486 
L 285.789405 209.964973 
L 285.789405 212.377946 
L 285.749189 214.790919 
L 285.668757 217.203892 
L 285.628541 219.616865 
L 285.548108 222.029838 
L 285.467676 224.442811 
L 285.387243 226.855784 
L 285.306811 228.987243 
L 285.186162 231.68173 
L 285.10573 233.531676 
L 285.025297 235.421838 
L 284.944865 237.553297 
L 284.904649 239.443459 
L 284.784 241.856432 
L 284.703568 244.269405 
L 284.582919 246.682378 
L 284.502486 249.336649 
L 284.422054 251.226811 
L 284.301405 253.639784 
L 284.220973 255.771243 
L 284.220973 257.983135 
L 284.582919 260.315676 
L 285.306811 262.567784 
L 286.030703 264.538378 
L 286.955676 266.75027 
L 288.001297 269.243676 
L 288.886054 271.495784 
L 289.690378 273.707676 
L 290.213189 276.120649 
L 290.454486 278.252108 
L 290.534919 280.14227 
L 290.494703 282.595459 
L 290.333838 285.008432 
L 290.132757 287.139892 
L 289.851243 289.271351 
L 289.529514 291.402811 
L 289.167568 293.775568 
L 288.684973 296.429838 
L 288.202378 299.084108 
L 287.920865 300.773189 
L 287.840432 301.818811 
L 287.880649 303.869838 
L 288.162162 306.242595 
L 288.564324 308.615351 
L 288.845838 310.183784 
L 289.248 312.556541 
L 289.609946 314.688 
L 289.891459 317.060757 
L 290.052324 319.071568 
L 290.052324 320.800865 
L 289.811027 322.489946 
L 289.328432 324.219243 
L 288.805622 325.586595 
L 288.08173 326.953946 
L 287.719784 327.436541 
L 287.237189 327.919135 
L 286.754595 328.321297 
L 285.95027 328.803892 
L 284.944865 329.286486 
L 283.939459 329.849514 
" style="fill:none;stroke:#5bf9c7;stroke-linecap:square;stroke-width:1.5;"/>
   </g>
   <g id="line2d_55">
    <path clip-path="url(#p8cf5bece6e)" d="M 140.367568 304.955676 
L 143.504432 304.915459 
L 148.008649 304.553514 
L 153.317189 303.829622 
L 164.698378 302.019892 
L 177.406703 299.848216 
L 186.89773 298.159135 
L 206.483027 294.901622 
L 207.689514 295.02227 
L 209.418811 295.625514 
L 211.590486 296.872216 
L 213.561081 297.837405 
L 215.531676 298.440649 
L 217.582703 298.762378 
L 219.955459 298.842811 
L 222.046703 298.762378 
L 227.033514 298.118919 
L 233.709405 296.832 
L 236.162595 296.671135 
L 238.575568 296.872216 
L 244.92973 298.038486 
L 251.002378 299.204757 
L 253.174054 299.164541 
L 255.024 298.762378 
L 258.563027 297.797189 
L 260.051027 297.435243 
L 261.177081 297.033081 
L 262.866162 296.228757 
L 264.716108 294.982054 
L 266.566054 293.53427 
L 270.185514 289.995243 
L 274.729946 285.289946 
L 276.419027 284.244324 
L 279.354811 283.399784 
L 280.963459 283.319351 
L 283.416649 283.399784 
L 289.489297 284.163892 
L 293.269622 285.008432 
L 294.958703 285.491027 
L 294.797838 285.491027 
L 295.119568 285.370378 
L 296.004324 284.646486 
L 296.929297 282.716108 
L 297.251027 280.665081 
L 297.170595 278.332541 
L 296.889081 275.959784 
L 296.406486 273.948973 
L 295.803243 272.300108 
L 293.229405 266.508973 
L 292.505514 265.342703 
L 292.666378 265.423135 
L 292.103351 265.463351 
L 292.183784 265.382919 
L 292.304432 265.222054 
L 292.264216 265.865514 
L 292.585946 267.635027 
L 294.234811 271.576216 
L 294.275027 272.099027 
L 293.510919 273.104432 
L 291.540324 274.793514 
L 291.620757 274.672865 
L 291.459892 275.356541 
L 291.339243 277.206486 
L 291.660973 278.694486 
L 292.103351 279.418378 
L 293.108757 280.423784 
L 295.240216 281.469405 
L 297.00973 281.750919 
L 297.934703 281.670486 
L 298.980324 281.429189 
L 300.83027 280.584649 
L 302.398703 279.257514 
L 303.685622 277.367351 
L 304.489946 275.235892 
L 305.173622 272.903351 
L 306.018162 270.611027 
L 308.109405 265.986162 
L 308.189838 266.227459 
L 308.27027 266.267676 
L 307.868108 266.147027 
L 306.460541 266.307892 
L 305.414919 266.75027 
L 304.409514 267.474162 
L 301.795459 269.806703 
L 301.312865 270.329514 
L 300.669405 271.576216 
L 300.468324 272.300108 
L 300.387892 273.908757 
L 300.629189 276 
L 301.071568 277.930378 
L 301.956324 280.303135 
L 302.800865 281.63027 
L 303.926919 282.796541 
L 305.254054 283.600865 
L 305.213838 283.600865 
L 305.776865 283.681297 
L 306.138811 283.520432 
L 306.983351 282.876973 
L 308.27027 281.147676 
L 309.155027 278.734703 
L 309.155027 278.734703 
" style="fill:none;stroke:#80ffb4;stroke-linecap:square;stroke-width:1.5;"/>
   </g>
   <g id="line2d_56">
    <path clip-path="url(#p8cf5bece6e)" d="M 393.72973 220.501622 
L 393.971027 220.582054 
L 394.091676 220.783135 
L 394.091676 221.26573 
L 393.930811 222.029838 
L 393.287351 223.155892 
L 392.080865 224.402595 
L 390.11027 225.769946 
L 387.978811 226.855784 
L 385.726703 227.780757 
L 381.101838 229.228541 
L 376.436757 230.435027 
L 360.672 233.692541 
L 349.129946 235.944649 
L 346.95827 236.789189 
L 344.826811 237.875027 
L 342.534486 238.719568 
L 340.201946 239.403243 
L 330.268541 241.615135 
L 326.086054 242.379243 
L 323.512216 243.103135 
L 317.077622 245.636757 
L 314.986378 246.762811 
L 312.452757 247.929081 
L 310.120216 248.411676 
L 307.667027 249.216 
L 305.254054 250.422486 
L 303.524757 250.864865 
L 300.950919 250.985514 
L 298.899892 250.704 
L 297.170595 250.060541 
L 296.165189 249.296432 
L 294.918486 247.808432 
L 293.872865 245.797622 
L 293.229405 243.424865 
L 292.384865 241.293405 
L 290.213189 237.513081 
L 288.403459 233.250162 
L 288.403459 233.250162 
L 288.282811 233.008865 
L 287.840432 232.52627 
L 286.473081 230.595892 
L 285.025297 227.097081 
L 285.145946 227.21773 
L 285.266595 227.257946 
L 284.542703 227.257946 
L 282.451459 227.901405 
L 280.561297 229.188324 
L 278.952649 231.199135 
L 276.901622 235.663135 
L 275.856 237.271784 
L 274.247351 239.161946 
L 272.276757 241.011892 
L 268.858378 243.666162 
L 264.917189 246.400865 
L 262.986811 247.526919 
L 260.65427 248.291027 
L 253.938162 249.939892 
L 247.664432 251.990919 
L 243.401514 252.634378 
L 238.857081 253.197405 
L 236.444108 253.35827 
L 234.272432 253.35827 
L 228.079135 252.795243 
L 219.593514 251.789838 
L 212.113297 250.985514 
L 207.850378 250.623568 
L 203.587459 250.422486 
L 199.043027 250.422486 
L 193.975784 250.744216 
L 188.988973 251.508324 
L 186.696649 252.151784 
L 182.232649 253.840865 
L 178.090378 255.731027 
L 172.379676 258.666811 
L 160.435459 265.302486 
L 143.665297 274.873946 
L 143.665297 274.873946 
" style="fill:none;stroke:#a4f99f;stroke-linecap:square;stroke-width:1.5;"/>
   </g>
   <g id="line2d_57">
    <path clip-path="url(#p8cf5bece6e)" d="M 140.367568 136.047568 
L 141.574054 136.087784 
L 144.027243 136.489946 
L 146.520649 137.455135 
L 148.410811 138.500757 
L 150.220541 139.667027 
L 151.748757 140.793081 
L 155.408432 143.970162 
L 159.108324 147.509189 
L 166.548324 155.270919 
L 196.992 188.087351 
L 205.517838 197.337081 
L 222.529297 215.715892 
L 224.137946 217.002811 
L 225.746595 217.927784 
L 227.676973 218.732108 
L 234.151784 220.421189 
L 238.857081 221.346162 
L 241.229838 221.989622 
L 244.447135 223.236324 
L 246.41773 223.718919 
L 249.313297 223.678703 
L 253.576216 222.995027 
L 254.822919 222.713514 
L 256.954378 221.949405 
L 258.643459 220.823351 
L 260.171676 219.375568 
L 262.222703 216.640865 
L 263.107459 215.233297 
L 268.416 210.970378 
L 269.501838 209.804108 
L 270.426811 208.476973 
L 270.386595 208.597622 
L 270.306162 207.23027 
L 270.306162 207.270486 
L 269.904 205.903135 
L 269.783351 204.817297 
L 270.064865 204.616216 
L 270.145297 204.616216 
L 270.547459 204.736865 
L 271.753946 205.460757 
L 273.20173 206.988973 
L 274.368 209.200865 
L 274.931027 211.654054 
L 275.011459 214.147459 
L 274.649514 216.560432 
L 274.04627 218.651676 
L 273.402811 220.421189 
L 272.518054 222.432 
L 271.392 224.563459 
L 269.139892 228.263351 
L 266.364973 232.244757 
L 262.14227 237.794595 
L 256.713081 244.470486 
L 255.868541 245.837838 
L 255.868541 245.837838 
" style="fill:none;stroke:#c8e688;stroke-linecap:square;stroke-width:1.5;"/>
   </g>
   <g id="line2d_58">
    <path clip-path="url(#p8cf5bece6e)" d="M 337.427027 164.198919 
L 337.668324 164.279351 
L 338.03027 164.72173 
L 338.311784 165.405405 
L 338.472649 166.571676 
L 338.231351 168.502054 
L 337.427027 170.754162 
L 336.502054 172.724757 
L 335.335784 174.816 
L 332.842378 178.676757 
L 328.619676 184.548324 
L 322.064432 193.074162 
L 314.503784 202.806486 
L 307.586595 211.452973 
L 305.656216 212.981189 
L 304.007351 213.946378 
L 301.152 215.152865 
L 300.146595 215.796324 
L 299.020541 217.123459 
L 298.095568 218.973405 
L 297.733622 220.984216 
L 297.85427 222.995027 
L 298.377081 225.810162 
L 298.417297 228.303568 
L 297.894486 230.394811 
L 296.326054 233.049081 
L 294.677189 234.496865 
L 292.425081 235.582703 
L 287.76 236.507676 
L 285.789405 237.271784 
L 284.060108 238.317405 
L 282.813405 239.242378 
L 280.561297 241.293405 
L 279.877622 242.057514 
L 279.596108 242.580324 
L 279.274378 242.861838 
L 277.062486 243.625946 
L 275.373405 244.550919 
L 273.885405 245.958486 
L 272.55827 248.130162 
L 271.512649 250.864865 
L 270.105081 253.237622 
L 268.456216 254.765838 
L 265.962811 255.972324 
L 263.871568 256.414703 
L 261.981405 257.098378 
L 259.970595 258.666811 
L 257.316324 262.044973 
L 253.737081 265.664432 
L 250.399135 269.123027 
L 248.669838 270.490378 
L 243.240649 274.351135 
L 239.862486 277.327135 
L 232.905081 283.962811 
L 230.089946 287.501838 
L 228.119351 289.311568 
L 226.832432 290.960432 
L 225.947676 292.770162 
L 225.143351 295.102703 
L 223.896649 297.274378 
L 222.408649 299.043892 
L 220.880432 301.456865 
L 219.271784 305.840432 
L 217.059892 310.465297 
L 214.606703 314.969514 
L 210.102486 322.570378 
L 201.375568 336.726486 
L 170.730811 385.870703 
L 170.730811 385.870703 
" style="fill:none;stroke:#edc76f;stroke-linecap:square;stroke-width:1.5;"/>
   </g>
   <g id="line2d_59">
    <path clip-path="url(#p8cf5bece6e)" d="M 196.67027 445.712432 
L 197.394162 445.672216 
L 199.123459 445.229838 
L 200.490811 444.586378 
L 202.260324 443.500541 
L 203.909189 442.173405 
L 205.437405 440.725622 
L 208.534054 437.106162 
L 211.349189 433.205189 
L 216.295784 425.564108 
L 227.435676 407.547243 
L 246.940541 375.776432 
L 248.388324 374.087351 
L 250.761081 372.156973 
L 256.19027 368.658162 
L 260.332541 366.204973 
L 262.705297 365.038703 
L 264.917189 364.596324 
L 274.770162 363.389838 
L 279.475459 362.545297 
L 281.446054 362.102919 
L 283.818811 361.379027 
L 286.59373 361.177946 
L 289.288216 361.580108 
L 291.942486 362.102919 
L 296.044541 363.389838 
L 298.336865 364.073514 
L 302.519351 364.837622 
L 307.023568 365.320216 
L 311.286486 365.400649 
L 313.980973 365.199568 
L 316.434162 364.596324 
L 318.565622 363.832216 
L 320.978595 362.826811 
L 325.523027 360.614919 
L 329.303351 358.563892 
L 339.156324 352.652108 
L 343.499676 349.957622 
L 347.843027 347.584865 
L 354.518919 344.809946 
L 356.449297 343.884973 
L 360.35027 341.592649 
L 364.090378 339.018811 
L 365.699027 337.731892 
L 366.825081 336.646054 
L 368.514162 334.635243 
L 371.088 330.854919 
L 373.380324 327.235459 
L 374.345514 325.345297 
L 375.029189 323.656216 
L 375.672649 321.645405 
L 376.115027 319.353081 
L 376.074811 317.020541 
L 375.632432 314.969514 
L 374.868324 313.280432 
L 375.029189 313.401081 
L 375.109622 313.401081 
L 374.184649 313.602162 
L 371.892324 314.527135 
L 365.819676 317.744432 
L 363.607784 319.272649 
L 363.446919 320.076973 
L 363.527351 321.404108 
L 363.808865 322.932324 
L 364.894703 327.235459 
L 365.216432 329.286486 
L 365.216432 331.779892 
L 364.894703 333.951568 
L 364.211027 336.002595 
L 362.361081 339.66227 
L 362.119784 340.30573 
L 361.154595 340.788324 
L 360.792649 340.868757 
L 360.35027 340.466595 
L 359.827459 339.541622 
L 359.425297 337.490595 
L 359.586162 335.278703 
L 360.068757 333.227676 
L 360.310054 330.774486 
L 360.068757 328.723459 
L 359.465514 326.471351 
L 358.620973 324.219243 
L 356.771027 320.398703 
L 352.990703 313.602162 
L 351.542919 310.907676 
L 351.542919 310.827243 
L 351.945081 309.942486 
L 353.191784 308.172973 
L 355.162378 306.604541 
L 357.213405 305.800216 
L 359.425297 305.518703 
L 362.039351 305.76 
L 364.371892 305.840432 
L 367.026162 305.558919 
L 368.554378 305.237189 
L 368.473946 305.277405 
L 368.675027 305.076324 
L 369.036973 304.513297 
L 369.720649 302.060108 
L 370.042378 300.330811 
L 370.806486 297.716757 
L 372.576 293.333189 
L 373.139027 291.081081 
L 373.179243 289.030054 
L 372.374919 284.083459 
L 371.490162 279.900973 
L 370.886919 275.638054 
L 370.444541 271.375135 
L 370.082595 266.549189 
L 370.002162 261.964541 
L 370.122811 257.379892 
L 370.605405 250.422486 
L 370.565189 248.04973 
L 369.841297 238.679351 
L 369.881514 236.789189 
L 370.323892 232.204541 
L 371.047784 227.941622 
L 371.892324 223.397189 
L 371.932541 221.627676 
L 371.731459 219.817946 
L 371.329297 217.726703 
L 370.76627 215.715892 
L 369.318486 211.69427 
L 365.256649 202.002162 
L 363.808865 197.538162 
L 362.682811 192.792649 
L 361.958919 188.851459 
L 361.476324 184.548324 
L 361.275243 179.963676 
L 361.395892 175.942054 
L 361.798054 171.357405 
L 362.602378 166.571676 
L 363.125189 164.480432 
L 364.090378 162.228324 
L 365.45773 159.895784 
L 366.704432 158.12627 
L 368.473946 156.075243 
L 372.093405 152.455784 
L 375.753081 149.318919 
L 381.061622 145.136432 
L 386.651676 140.994162 
L 390.150486 138.460541 
L 390.150486 138.460541 
" style="fill:none;stroke:#ff9f54;stroke-linecap:square;stroke-width:1.5;"/>
   </g>
   <g id="line2d_60">
    <path clip-path="url(#p8cf5bece6e)" d="M 224.821622 333.107027 
L 225.183568 333.066811 
L 226.349838 332.664649 
L 227.395459 332.021189 
L 229.084541 330.653838 
L 230.492108 329.085405 
L 231.819243 327.155027 
L 232.985514 325.104 
L 234.111568 322.691027 
L 235.961514 317.98573 
L 237.570162 313.159784 
L 240.867892 302.381838 
L 243.642811 293.132108 
L 245.653622 288.426811 
L 249.313297 280.102054 
L 251.444757 274.512 
L 251.846919 272.219676 
L 251.72627 269.525189 
L 251.243676 267.836108 
L 250.439351 265.90573 
L 249.232865 263.975351 
L 247.785081 262.246054 
L 244.406919 258.46573 
L 243.924324 256.857081 
L 243.602595 255.087568 
L 243.321081 251.749622 
L 242.838486 249.497514 
L 242.556973 248.934486 
L 241.873297 248.089946 
L 240.747243 246.24 
L 240.103784 244.591135 
L 239.580973 242.218378 
L 239.420108 239.765189 
L 239.500541 237.593514 
L 240.103784 232.52627 
L 240.184216 226.453622 
L 240.345081 223.879784 
L 240.626595 222.552649 
L 241.109189 221.305946 
L 242.154811 219.335351 
L 242.516757 218.812541 
L 243.12 217.606054 
L 243.44173 216.319135 
L 243.522162 215.635459 
L 243.321081 213.705081 
L 243.240649 213.262703 
L 243.240649 213.302919 
L 242.235243 210.809514 
L 241.189622 208.597622 
L 240.224432 205.460757 
L 239.782054 202.203243 
L 239.701622 198.583784 
L 239.862486 196.291459 
L 240.184216 193.878486 
L 241.229838 189.132973 
L 241.993946 186.800432 
L 242.838486 184.709189 
L 244.125405 182.658162 
L 245.693838 180.848432 
L 247.302486 179.400649 
L 249.232865 177.912649 
L 251.484973 176.424649 
L 255.747892 174.132324 
L 259.648865 172.282378 
L 265.600865 169.788973 
L 277.947243 165.204324 
L 277.947243 165.204324 
" style="fill:none;stroke:#ff6f39;stroke-linecap:square;stroke-width:1.5;"/>
   </g>
   <g id="line2d_61">
    <path clip-path="url(#p8cf5bece6e)" d="M 281.124324 361.258378 
L 281.647135 361.258378 
L 283.215568 360.936649 
L 284.985081 360.212757 
L 286.955676 359.046486 
L 288.403459 357.880216 
L 290.132757 356.271568 
L 291.701189 354.502054 
L 293.350054 352.370595 
L 294.717405 350.440216 
L 296.084757 348.429405 
L 297.371676 346.418595 
L 298.49773 344.608865 
L 299.623784 342.758919 
L 300.991135 340.466595 
L 301.795459 339.099243 
L 303.162811 336.766703 
L 304.248649 334.916757 
L 305.575784 332.584216 
L 306.78227 330.492973 
L 307.988757 328.40173 
L 309.034378 326.551784 
L 310.40173 324.219243 
L 311.447351 322.369297 
L 312.492973 320.519351 
L 313.699459 318.387892 
L 314.785297 316.537946 
L 315.951568 314.446703 
L 317.037405 312.596757 
L 318.364541 310.264216 
L 319.410162 308.374054 
L 320.616649 306.282811 
L 321.823135 304.191568 
L 322.587243 302.824216 
L 323.673081 300.934054 
L 325.000216 298.601514 
L 326.206703 296.51027 
L 327.372973 294.419027 
L 328.579459 292.327784 
L 329.504432 290.678919 
L 330.831568 288.346378 
L 332.038054 286.255135 
L 333.365189 283.922595 
L 334.491243 281.871568 
L 335.536865 279.659676 
" style="fill:none;stroke:#ff391d;stroke-linecap:square;stroke-width:1.5;"/>
   </g>
   <g id="line2d_62">
    <path clip-path="url(#p8cf5bece6e)" d="M 421.881081 361.258378 
L 421.68 361.338811 
L 421.599568 361.419243 
L 421.639784 361.298595 
L 421.840865 360.655135 
L 421.840865 359.328 
L 421.438703 357.51827 
L 420.634378 355.748757 
L 419.106162 353.335784 
L 416.451892 350.038054 
L 413.234595 346.458811 
L 399.923027 333.267892 
L 390.592865 324.219243 
L 389.748324 323.575784 
L 388.019027 322.489946 
L 385.927784 321.444324 
L 383.514811 320.398703 
L 376.678054 318.025946 
L 368.152216 315.210811 
L 366.784865 314.607568 
L 365.176216 313.52173 
L 363.96973 312.315243 
L 360.913297 308.333838 
L 359.626378 306.886054 
L 358.339459 305.76 
L 356.087351 304.59373 
L 354.036324 304.272 
L 352.467892 304.352432 
L 350.175568 304.835027 
L 348.164757 305.398054 
L 345.47027 305.880649 
L 340.925838 306.202378 
L 335.818378 306.403459 
L 333.365189 306.162162 
L 331.394595 305.76 
L 326.488216 303.708973 
L 324.557838 302.904649 
L 323.190486 301.979676 
L 323.110054 301.577514 
L 323.190486 301.175351 
L 323.351351 299.606919 
L 322.989405 297.314595 
L 322.144865 295.464649 
L 320.455784 293.574486 
L 318.927568 292.68973 
L 318.364541 292.528865 
L 318.444973 292.528865 
L 318.203676 292.649514 
L 316.35373 294.258162 
L 315.066811 296.188541 
L 314.22227 298.038486 
L 312.895135 300.330811 
L 311.568 302.019892 
L 309.356108 303.749189 
L 307.023568 304.915459 
L 304.570378 305.357838 
L 302.076973 305.036108 
L 299.704216 304.111135 
L 297.894486 303.065514 
L 296.326054 301.979676 
L 294.516324 300.210162 
L 291.701189 296.711351 
L 290.172973 295.303784 
L 288.363243 293.936432 
L 282.330811 289.030054 
L 280.360216 287.863784 
L 278.389622 287.300757 
L 276.057081 287.220324 
L 274.166919 287.501838 
L 271.593081 287.662703 
L 269.180108 287.059459 
L 266.887784 285.933405 
L 264.313946 284.968216 
L 262.262919 284.686703 
L 253.133838 284.767135 
L 251.082811 285.008432 
L 248.629622 284.928 
L 246.498162 284.405189 
L 244.406919 284.083459 
L 241.712432 284.043243 
L 239.942919 284.163892 
L 238.133189 283.922595 
L 236.685405 283.399784 
L 234.674595 282.112865 
L 232.945297 280.383568 
L 231.497514 278.332541 
L 230.813838 276.201081 
L 230.652973 273.707676 
L 231.095351 271.21427 
L 231.53773 269.404541 
L 231.899676 267.031784 
L 231.939892 264.659027 
L 231.698595 262.326486 
L 231.256216 260.235243 
L 230.612757 258.264649 
L 229.687784 256.454919 
L 227.355243 252.875676 
L 223.414054 247.124757 
L 220.759784 242.741189 
L 218.668541 238.639135 
L 216.65773 233.933838 
L 215.813189 231.68173 
L 215.089297 229.349189 
L 214.606703 226.654703 
L 214.445838 223.92 
L 214.486054 221.507027 
L 214.807784 217.485405 
L 215.692541 211.091027 
L 216.01427 209.200865 
L 216.094703 207.471568 
L 216.054486 205.340108 
L 215.370811 200.313081 
L 214.566486 195.567568 
L 214.003459 191.304649 
L 213.802378 188.851459 
L 213.802378 184.025514 
L 214.083892 181.290811 
L 214.687135 178.918054 
L 215.411027 176.867027 
L 216.255568 174.896432 
L 217.542486 172.483459 
L 218.950054 170.191135 
L 221.724973 166.491243 
L 221.724973 166.491243 
" style="fill:none;stroke:#ff0000;stroke-linecap:square;stroke-width:1.5;"/>
   </g>
   <g id="patch_3">
    <path d="M 72 512.64 
L 72 69.12 
" style="fill:none;stroke:#000000;stroke-linecap:square;stroke-linejoin:miter;stroke-width:0.8;"/>
   </g>
   <g id="patch_4">
    <path d="M 518.4 512.64 
L 518.4 69.12 
" style="fill:none;stroke:#000000;stroke-linecap:square;stroke-linejoin:miter;stroke-width:0.8;"/>
   </g>
   <g id="patch_5">
    <path d="M 72 512.64 
L 518.4 512.64 
" style="fill:none;stroke:#000000;stroke-linecap:square;stroke-linejoin:miter;stroke-width:0.8;"/>
   </g>
   <g id="patch_6">
    <path d="M 72 69.12 
L 518.4 69.12 
" style="fill:none;stroke:#000000;stroke-linecap:square;stroke-linejoin:miter;stroke-width:0.8;"/>
   </g>
   <g id="text_13">
    <!-- 1 -->
    <defs>
     <path d="M 14.203125 0 
L 14.203125 5.171875 
L 26.90625 5.171875 
L 26.90625 65.828125 
L 12.203125 56.296875 
L 12.203125 62.703125 
L 29.984375 74.21875 
L 36.71875 74.21875 
L 36.71875 5.171875 
L 49.421875 5.171875 
L 49.421875 0 
z
" id="DejaVuSerif-31"/>
    </defs>
    <g transform="translate(137.186318 389.40973)scale(0.1 -0.1)">
     <use xlink:href="#DejaVuSerif-31"/>
    </g>
   </g>
   <g id="text_14">
    <!-- 1 -->
    <g transform="translate(390.54848 192.35027)scale(0.1 -0.1)">
     <use xlink:href="#DejaVuSerif-31"/>
    </g>
   </g>
   <g id="text_15">
    <!-- 2 -->
    <defs>
     <path d="M 12.796875 55.515625 
L 7.328125 55.515625 
L 7.328125 68.5 
Q 12.546875 71.296875 17.84375 72.75 
Q 23.140625 74.21875 28.21875 74.21875 
Q 39.59375 74.21875 46.1875 68.703125 
Q 52.78125 63.1875 52.78125 53.71875 
Q 52.78125 43.015625 37.84375 28.125 
Q 36.671875 27 36.078125 26.421875 
L 17.671875 8.015625 
L 48.09375 8.015625 
L 48.09375 17 
L 53.8125 17 
L 53.8125 0 
L 6.78125 0 
L 6.78125 5.328125 
L 28.90625 27.390625 
Q 36.234375 34.71875 39.359375 40.84375 
Q 42.484375 46.96875 42.484375 53.71875 
Q 42.484375 61.078125 38.640625 65.234375 
Q 34.8125 69.390625 28.078125 69.390625 
Q 21.09375 69.390625 17.28125 65.921875 
Q 13.484375 62.453125 12.796875 55.515625 
z
" id="DejaVuSerif-32"/>
    </defs>
    <g transform="translate(446.851182 192.35027)scale(0.1 -0.1)">
     <use xlink:href="#DejaVuSerif-32"/>
    </g>
   </g>
   <g id="text_16">
    <!-- 2 -->
    <g transform="translate(221.640372 361.258378)scale(0.1 -0.1)">
     <use xlink:href="#DejaVuSerif-32"/>
    </g>
   </g>
   <g id="text_17">
    <!-- 3 -->
    <defs>
     <path d="M 9.71875 69.828125 
Q 15.4375 71.96875 20.671875 73.09375 
Q 25.921875 74.21875 30.515625 74.21875 
Q 41.21875 74.21875 47.21875 69.59375 
Q 53.21875 64.984375 53.21875 56.78125 
Q 53.21875 50.203125 49.0625 45.78125 
Q 44.921875 41.359375 37.3125 39.796875 
Q 46.296875 38.53125 51.25 33.28125 
Q 56.203125 28.03125 56.203125 19.671875 
Q 56.203125 9.46875 49.34375 4.015625 
Q 42.484375 -1.421875 29.59375 -1.421875 
Q 23.875 -1.421875 18.421875 -0.1875 
Q 12.984375 1.03125 7.625 3.515625 
L 7.625 17.671875 
L 13.09375 17.671875 
Q 13.578125 10.640625 17.828125 7.03125 
Q 22.078125 3.421875 29.78125 3.421875 
Q 37.25 3.421875 41.578125 7.734375 
Q 45.90625 12.0625 45.90625 19.578125 
Q 45.90625 28.171875 41.453125 32.59375 
Q 37.015625 37.015625 28.421875 37.015625 
L 23.78125 37.015625 
L 23.78125 42 
L 26.21875 42 
Q 34.765625 42 39.03125 45.53125 
Q 43.3125 49.078125 43.3125 56.203125 
Q 43.3125 62.59375 39.796875 65.984375 
Q 36.28125 69.390625 29.6875 69.390625 
Q 23.09375 69.390625 19.453125 66.265625 
Q 15.828125 63.140625 15.1875 56.984375 
L 9.71875 56.984375 
z
" id="DejaVuSerif-33"/>
    </defs>
    <g transform="translate(398.993885 440.082162)scale(0.1 -0.1)">
     <use xlink:href="#DejaVuSerif-33"/>
    </g>
   </g>
   <g id="text_18">
    <!-- 3 -->
    <g transform="translate(221.640372 192.35027)scale(0.1 -0.1)">
     <use xlink:href="#DejaVuSerif-33"/>
    </g>
   </g>
   <g id="text_19">
    <!-- 4 -->
    <defs>
     <path d="M 34.90625 24.703125 
L 34.90625 63.484375 
L 10.015625 24.703125 
z
M 56.390625 0 
L 23.1875 0 
L 23.1875 5.171875 
L 34.90625 5.171875 
L 34.90625 19.484375 
L 3.078125 19.484375 
L 3.078125 24.8125 
L 35.015625 74.21875 
L 44.671875 74.21875 
L 44.671875 24.703125 
L 58.59375 24.703125 
L 58.59375 19.484375 
L 44.671875 19.484375 
L 44.671875 5.171875 
L 56.390625 5.171875 
z
" id="DejaVuSerif-34"/>
    </defs>
    <g transform="translate(221.640372 136.047568)scale(0.1 -0.1)">
     <use xlink:href="#DejaVuSerif-34"/>
    </g>
   </g>
   <g id="text_20">
    <!-- 4 -->
    <g transform="translate(390.54848 361.258378)scale(0.1 -0.1)">
     <use xlink:href="#DejaVuSerif-34"/>
    </g>
   </g>
   <g id="text_21">
    <!-- 5 -->
    <defs>
     <path d="M 50.296875 72.90625 
L 50.296875 64.890625 
L 16.890625 64.890625 
L 16.890625 44 
Q 19.4375 45.75 22.828125 46.625 
Q 26.21875 47.515625 30.421875 47.515625 
Q 42.234375 47.515625 49.0625 40.96875 
Q 55.90625 34.421875 55.90625 23.09375 
Q 55.90625 11.53125 49 5.046875 
Q 42.09375 -1.421875 29.59375 -1.421875 
Q 24.5625 -1.421875 19.28125 -0.1875 
Q 14.015625 1.03125 8.5 3.515625 
L 8.5 17.671875 
L 14.015625 17.671875 
Q 14.453125 10.75 18.421875 7.078125 
Q 22.40625 3.421875 29.59375 3.421875 
Q 37.3125 3.421875 41.453125 8.5 
Q 45.609375 13.578125 45.609375 23.09375 
Q 45.609375 32.5625 41.484375 37.609375 
Q 37.359375 42.671875 29.59375 42.671875 
Q 25.203125 42.671875 21.84375 41.109375 
Q 18.5 39.546875 15.921875 36.28125 
L 11.71875 36.28125 
L 11.71875 72.90625 
z
" id="DejaVuSerif-35"/>
    </defs>
    <g transform="translate(446.851182 304.955676)scale(0.1 -0.1)">
     <use xlink:href="#DejaVuSerif-35"/>
    </g>
   </g>
   <g id="text_22">
    <!-- 5 -->
    <g transform="translate(193.48902 248.652973)scale(0.1 -0.1)">
     <use xlink:href="#DejaVuSerif-35"/>
    </g>
   </g>
   <g id="text_23">
    <!-- 6 -->
    <defs>
     <path d="M 32.71875 3.421875 
Q 39.59375 3.421875 43.296875 8.46875 
Q 47.015625 13.53125 47.015625 23 
Q 47.015625 32.46875 43.296875 37.515625 
Q 39.59375 42.578125 32.71875 42.578125 
Q 25.734375 42.578125 22.0625 37.6875 
Q 18.40625 32.8125 18.40625 23.578125 
Q 18.40625 13.875 22.109375 8.640625 
Q 25.828125 3.421875 32.71875 3.421875 
z
M 16.796875 40.140625 
Q 20.125 43.796875 24.3125 45.59375 
Q 28.515625 47.40625 33.796875 47.40625 
Q 44.671875 47.40625 51 40.859375 
Q 57.328125 34.328125 57.328125 23 
Q 57.328125 11.921875 50.515625 5.25 
Q 43.703125 -1.421875 32.328125 -1.421875 
Q 19.96875 -1.421875 13.328125 7.78125 
Q 6.6875 17 6.6875 34.078125 
Q 6.6875 53.21875 14.546875 63.71875 
Q 22.40625 74.21875 36.71875 74.21875 
Q 40.578125 74.21875 44.828125 73.484375 
Q 49.078125 72.75 53.515625 71.296875 
L 53.515625 59.28125 
L 48 59.28125 
Q 47.40625 64.203125 44.234375 66.796875 
Q 41.0625 69.390625 35.6875 69.390625 
Q 26.21875 69.390625 21.578125 62.203125 
Q 16.9375 55.03125 16.796875 40.140625 
z
" id="DejaVuSerif-36"/>
    </defs>
    <g transform="translate(137.186318 248.652973)scale(0.1 -0.1)">
     <use xlink:href="#DejaVuSerif-36"/>
    </g>
   </g>
   <g id="text_24">
    <!-- 6 -->
    <g transform="translate(390.54848 276.804324)scale(0.1 -0.1)">
     <use xlink:href="#DejaVuSerif-36"/>
    </g>
   </g>
   <g id="text_25">
    <!-- 7 -->
    <defs>
     <path d="M 56.390625 67.921875 
L 27.875 0 
L 20.609375 0 
L 47.796875 64.890625 
L 14.109375 64.890625 
L 14.109375 55.90625 
L 8.40625 55.90625 
L 8.40625 72.90625 
L 56.390625 72.90625 
z
" id="DejaVuSerif-37"/>
    </defs>
    <g transform="translate(277.943074 192.35027)scale(0.1 -0.1)">
     <use xlink:href="#DejaVuSerif-37"/>
    </g>
   </g>
   <g id="text_26">
    <!-- 7 -->
    <g transform="translate(277.943074 333.107027)scale(0.1 -0.1)">
     <use xlink:href="#DejaVuSerif-37"/>
    </g>
   </g>
   <g id="text_27">
    <!-- 8 -->
    <defs>
     <path d="M 46.578125 19.921875 
Q 46.578125 27.734375 42.6875 32.046875 
Q 38.8125 36.375 31.78125 36.375 
Q 24.75 36.375 20.875 32.046875 
Q 17 27.734375 17 19.921875 
Q 17 12.0625 20.875 7.734375 
Q 24.75 3.421875 31.78125 3.421875 
Q 38.8125 3.421875 42.6875 7.734375 
Q 46.578125 12.0625 46.578125 19.921875 
z
M 44.578125 55.328125 
Q 44.578125 61.96875 41.203125 65.671875 
Q 37.84375 69.390625 31.78125 69.390625 
Q 25.78125 69.390625 22.390625 65.671875 
Q 19 61.96875 19 55.328125 
Q 19 48.640625 22.390625 44.921875 
Q 25.78125 41.21875 31.78125 41.21875 
Q 37.84375 41.21875 41.203125 44.921875 
Q 44.578125 48.640625 44.578125 55.328125 
z
M 39.3125 38.8125 
Q 47.609375 37.703125 52.25 32.6875 
Q 56.890625 27.6875 56.890625 19.921875 
Q 56.890625 9.671875 50.390625 4.125 
Q 43.890625 -1.421875 31.78125 -1.421875 
Q 19.734375 -1.421875 13.203125 4.125 
Q 6.6875 9.671875 6.6875 19.921875 
Q 6.6875 27.6875 11.328125 32.6875 
Q 15.96875 37.703125 24.3125 38.8125 
Q 16.9375 40.140625 13 44.40625 
Q 9.078125 48.6875 9.078125 55.328125 
Q 9.078125 64.109375 15.125 69.15625 
Q 21.1875 74.21875 31.78125 74.21875 
Q 42.390625 74.21875 48.4375 69.15625 
Q 54.5 64.109375 54.5 55.328125 
Q 54.5 48.6875 50.5625 44.40625 
Q 46.625 40.140625 39.3125 38.8125 
z
" id="DejaVuSerif-38"/>
    </defs>
    <g transform="translate(137.186318 304.955676)scale(0.1 -0.1)">
     <use xlink:href="#DejaVuSerif-38"/>
    </g>
   </g>
   <g id="text_28">
    <!-- 8 -->
    <g transform="translate(306.094426 276.804324)scale(0.1 -0.1)">
     <use xlink:href="#DejaVuSerif-38"/>
    </g>
   </g>
   <g id="text_29">
    <!-- 9 -->
    <defs>
     <path d="M 46.78125 32.671875 
Q 43.5 29 39.25 27.1875 
Q 35.015625 25.390625 29.6875 25.390625 
Q 18.84375 25.390625 12.5625 31.9375 
Q 6.296875 38.484375 6.296875 49.8125 
Q 6.296875 60.890625 13.109375 67.546875 
Q 19.921875 74.21875 31.296875 74.21875 
Q 43.65625 74.21875 50.265625 65.015625 
Q 56.890625 55.8125 56.890625 38.71875 
Q 56.890625 19.578125 49.015625 9.078125 
Q 41.15625 -1.421875 26.90625 -1.421875 
Q 23.046875 -1.421875 18.796875 -0.6875 
Q 14.546875 0.046875 10.109375 1.515625 
L 10.109375 13.625 
L 15.578125 13.625 
Q 16.21875 8.6875 19.390625 6.046875 
Q 22.5625 3.421875 27.875 3.421875 
Q 37.359375 3.421875 41.984375 10.5625 
Q 46.625 17.71875 46.78125 32.671875 
z
M 30.90625 69.390625 
Q 23.96875 69.390625 20.28125 64.328125 
Q 16.609375 59.28125 16.609375 49.8125 
Q 16.609375 40.328125 20.28125 35.25 
Q 23.96875 30.171875 30.90625 30.171875 
Q 37.84375 30.171875 41.53125 35.078125 
Q 45.21875 39.984375 45.21875 49.21875 
Q 45.21875 58.9375 41.5 64.15625 
Q 37.796875 69.390625 30.90625 69.390625 
z
" id="DejaVuSerif-39"/>
    </defs>
    <g transform="translate(390.54848 220.501622)scale(0.1 -0.1)">
     <use xlink:href="#DejaVuSerif-39"/>
    </g>
   </g>
   <g id="text_30">
    <!-- 9 -->
    <g transform="translate(137.186318 276.804324)scale(0.1 -0.1)">
     <use xlink:href="#DejaVuSerif-39"/>
    </g>
   </g>
   <g id="text_31">
    <!-- 10 -->
    <defs>
     <path d="M 31.78125 3.421875 
Q 39.265625 3.421875 42.96875 11.625 
Q 46.6875 19.828125 46.6875 36.375 
Q 46.6875 52.984375 42.96875 61.1875 
Q 39.265625 69.390625 31.78125 69.390625 
Q 24.3125 69.390625 20.59375 61.1875 
Q 16.890625 52.984375 16.890625 36.375 
Q 16.890625 19.828125 20.59375 11.625 
Q 24.3125 3.421875 31.78125 3.421875 
z
M 31.78125 -1.421875 
Q 19.921875 -1.421875 13.25 8.53125 
Q 6.59375 18.5 6.59375 36.375 
Q 6.59375 54.296875 13.25 64.25 
Q 19.921875 74.21875 31.78125 74.21875 
Q 43.703125 74.21875 50.34375 64.25 
Q 56.984375 54.296875 56.984375 36.375 
Q 56.984375 18.5 50.34375 8.53125 
Q 43.703125 -1.421875 31.78125 -1.421875 
z
" id="DejaVuSerif-30"/>
    </defs>
    <g transform="translate(134.005068 136.047568)scale(0.1 -0.1)">
     <use xlink:href="#DejaVuSerif-31"/>
     <use x="63.623047" xlink:href="#DejaVuSerif-30"/>
    </g>
   </g>
   <g id="text_32">
    <!-- 10 -->
    <g transform="translate(246.610473 248.652973)scale(0.1 -0.1)">
     <use xlink:href="#DejaVuSerif-31"/>
     <use x="63.623047" xlink:href="#DejaVuSerif-30"/>
    </g>
   </g>
   <g id="text_33">
    <!-- 11 -->
    <g transform="translate(331.064527 164.198919)scale(0.1 -0.1)">
     <use xlink:href="#DejaVuSerif-31"/>
     <use x="63.623047" xlink:href="#DejaVuSerif-31"/>
    </g>
   </g>
   <g id="text_34">
    <!-- 11 -->
    <g transform="translate(162.156419 389.40973)scale(0.1 -0.1)">
     <use xlink:href="#DejaVuSerif-31"/>
     <use x="63.623047" xlink:href="#DejaVuSerif-31"/>
    </g>
   </g>
   <g id="text_35">
    <!-- 12 -->
    <g transform="translate(190.30777 445.712432)scale(0.1 -0.1)">
     <use xlink:href="#DejaVuSerif-31"/>
     <use x="63.623047" xlink:href="#DejaVuSerif-32"/>
    </g>
   </g>
   <g id="text_36">
    <!-- 12 -->
    <g transform="translate(387.36723 136.047568)scale(0.1 -0.1)">
     <use xlink:href="#DejaVuSerif-31"/>
     <use x="63.623047" xlink:href="#DejaVuSerif-32"/>
    </g>
   </g>
   <g id="text_37">
    <!-- 13 -->
    <g transform="translate(218.459122 333.107027)scale(0.1 -0.1)">
     <use xlink:href="#DejaVuSerif-31"/>
     <use x="63.623047" xlink:href="#DejaVuSerif-33"/>
    </g>
   </g>
   <g id="text_38">
    <!-- 13 -->
    <g transform="translate(274.761824 164.198919)scale(0.1 -0.1)">
     <use xlink:href="#DejaVuSerif-31"/>
     <use x="63.623047" xlink:href="#DejaVuSerif-33"/>
    </g>
   </g>
   <g id="text_39">
    <!-- 14 -->
    <g transform="translate(274.761824 361.258378)scale(0.1 -0.1)">
     <use xlink:href="#DejaVuSerif-31"/>
     <use x="63.623047" xlink:href="#DejaVuSerif-34"/>
    </g>
   </g>
   <g id="text_40">
    <!-- 14 -->
    <g transform="translate(331.064527 276.804324)scale(0.1 -0.1)">
     <use xlink:href="#DejaVuSerif-31"/>
     <use x="63.623047" xlink:href="#DejaVuSerif-34"/>
    </g>
   </g>
   <g id="text_41">
    <!-- 15 -->
    <g transform="translate(415.518581 361.258378)scale(0.1 -0.1)">
     <use xlink:href="#DejaVuSerif-31"/>
     <use x="63.623047" xlink:href="#DejaVuSerif-35"/>
    </g>
   </g>
   <g id="text_42">
    <!-- 15 -->
    <g transform="translate(218.459122 164.198919)scale(0.1 -0.1)">
     <use xlink:href="#DejaVuSerif-31"/>
     <use x="63.623047" xlink:href="#DejaVuSerif-35"/>
    </g>
   </g>
   <g id="text_43">
    <!-- MRPP -->
    <defs>
     <path d="M 9.8125 72.90625 
L 24.515625 72.90625 
L 43.109375 23.296875 
L 61.8125 72.90625 
L 76.515625 72.90625 
L 76.515625 0 
L 66.890625 0 
L 66.890625 64.015625 
L 48.09375 14.015625 
L 38.1875 14.015625 
L 19.390625 64.015625 
L 19.390625 0 
L 9.8125 0 
z
" id="DejaVuSans-4d"/>
     <path d="M 44.390625 34.1875 
Q 47.5625 33.109375 50.5625 29.59375 
Q 53.5625 26.078125 56.59375 19.921875 
L 66.609375 0 
L 56 0 
L 46.6875 18.703125 
Q 43.0625 26.03125 39.671875 28.421875 
Q 36.28125 30.8125 30.421875 30.8125 
L 19.671875 30.8125 
L 19.671875 0 
L 9.8125 0 
L 9.8125 72.90625 
L 32.078125 72.90625 
Q 44.578125 72.90625 50.734375 67.671875 
Q 56.890625 62.453125 56.890625 51.90625 
Q 56.890625 45.015625 53.6875 40.46875 
Q 50.484375 35.9375 44.390625 34.1875 
z
M 19.671875 64.796875 
L 19.671875 38.921875 
L 32.078125 38.921875 
Q 39.203125 38.921875 42.84375 42.21875 
Q 46.484375 45.515625 46.484375 51.90625 
Q 46.484375 58.296875 42.84375 61.546875 
Q 39.203125 64.796875 32.078125 64.796875 
z
" id="DejaVuSans-52"/>
     <path d="M 19.671875 64.796875 
L 19.671875 37.40625 
L 32.078125 37.40625 
Q 38.96875 37.40625 42.71875 40.96875 
Q 46.484375 44.53125 46.484375 51.125 
Q 46.484375 57.671875 42.71875 61.234375 
Q 38.96875 64.796875 32.078125 64.796875 
z
M 9.8125 72.90625 
L 32.078125 72.90625 
Q 44.34375 72.90625 50.609375 67.359375 
Q 56.890625 61.8125 56.890625 51.125 
Q 56.890625 40.328125 50.609375 34.8125 
Q 44.34375 29.296875 32.078125 29.296875 
L 19.671875 29.296875 
L 19.671875 0 
L 9.8125 0 
z
" id="DejaVuSans-50"/>
    </defs>
    <g transform="translate(278.618437 63.12)scale(0.12 -0.12)">
     <use xlink:href="#DejaVuSans-4d"/>
     <use x="86.279297" xlink:href="#DejaVuSans-52"/>
     <use x="155.761719" xlink:href="#DejaVuSans-50"/>
     <use x="216.064453" xlink:href="#DejaVuSans-50"/>
    </g>
   </g>
  </g>
 </g>
 <defs>
  <clipPath id="p8cf5bece6e">
   <rect height="443.52" width="446.4" x="72" y="69.12"/>
  </clipPath>
 </defs>
</svg>
