<?xml version="1.0" encoding="utf-8" standalone="no"?>
<!DOCTYPE svg PUBLIC "-//W3C//DTD SVG 1.1//EN"
  "http://www.w3.org/Graphics/SVG/1.1/DTD/svg11.dtd">
<!-- Created with matplotlib (http://matplotlib.org/) -->
<svg height="576pt" version="1.1" viewBox="0 0 576 576" width="576pt" xmlns="http://www.w3.org/2000/svg" xmlns:xlink="http://www.w3.org/1999/xlink">
 <defs>
  <style type="text/css">
*{stroke-linecap:butt;stroke-linejoin:round;}
  </style>
 </defs>
 <g id="figure_1">
  <g id="patch_1">
   <path d="M 0 576 
L 576 576 
L 576 0 
L 0 0 
z
" style="fill:#ffffff;"/>
  </g>
  <g id="axes_1">
   <g id="patch_2">
    <path d="M 72 512.64 
L 518.4 512.64 
L 518.4 69.12 
L 72 69.12 
z
" style="fill:#ffffff;"/>
   </g>
   <g id="matplotlib.axis_1">
    <g id="xtick_1">
     <g id="line2d_1">
      <defs>
       <path d="M 0 0 
L 0 3.5 
" id="m493bcfe9a1" style="stroke:#000000;stroke-width:0.8;"/>
      </defs>
      <g>
       <use style="stroke:#000000;stroke-width:0.8;" x="72" xlink:href="#m493bcfe9a1" y="512.64"/>
      </g>
     </g>
     <g id="text_1">
      <!-- −1 -->
      <defs>
       <path d="M 10.59375 35.5 
L 73.1875 35.5 
L 73.1875 27.203125 
L 10.59375 27.203125 
z
" id="DejaVuSans-2212"/>
       <path d="M 12.40625 8.296875 
L 28.515625 8.296875 
L 28.515625 63.921875 
L 10.984375 60.40625 
L 10.984375 69.390625 
L 28.421875 72.90625 
L 38.28125 72.90625 
L 38.28125 8.296875 
L 54.390625 8.296875 
L 54.390625 0 
L 12.40625 0 
z
" id="DejaVuSans-31"/>
      </defs>
      <g transform="translate(64.628906 527.238438)scale(0.1 -0.1)">
       <use xlink:href="#DejaVuSans-2212"/>
       <use x="83.789062" xlink:href="#DejaVuSans-31"/>
      </g>
     </g>
    </g>
    <g id="xtick_2">
     <g id="line2d_2">
      <g>
       <use style="stroke:#000000;stroke-width:0.8;" x="125.783133" xlink:href="#m493bcfe9a1" y="512.64"/>
      </g>
     </g>
     <g id="text_2">
      <!-- 0 -->
      <defs>
       <path d="M 31.78125 66.40625 
Q 24.171875 66.40625 20.328125 58.90625 
Q 16.5 51.421875 16.5 36.375 
Q 16.5 21.390625 20.328125 13.890625 
Q 24.171875 6.390625 31.78125 6.390625 
Q 39.453125 6.390625 43.28125 13.890625 
Q 47.125 21.390625 47.125 36.375 
Q 47.125 51.421875 43.28125 58.90625 
Q 39.453125 66.40625 31.78125 66.40625 
z
M 31.78125 74.21875 
Q 44.046875 74.21875 50.515625 64.515625 
Q 56.984375 54.828125 56.984375 36.375 
Q 56.984375 17.96875 50.515625 8.265625 
Q 44.046875 -1.421875 31.78125 -1.421875 
Q 19.53125 -1.421875 13.0625 8.265625 
Q 6.59375 17.96875 6.59375 36.375 
Q 6.59375 54.828125 13.0625 64.515625 
Q 19.53125 74.21875 31.78125 74.21875 
z
" id="DejaVuSans-30"/>
      </defs>
      <g transform="translate(122.601883 527.238438)scale(0.1 -0.1)">
       <use xlink:href="#DejaVuSans-30"/>
      </g>
     </g>
    </g>
    <g id="xtick_3">
     <g id="line2d_3">
      <g>
       <use style="stroke:#000000;stroke-width:0.8;" x="179.566265" xlink:href="#m493bcfe9a1" y="512.64"/>
      </g>
     </g>
     <g id="text_3">
      <!-- 1 -->
      <g transform="translate(176.385015 527.238438)scale(0.1 -0.1)">
       <use xlink:href="#DejaVuSans-31"/>
      </g>
     </g>
    </g>
    <g id="xtick_4">
     <g id="line2d_4">
      <g>
       <use style="stroke:#000000;stroke-width:0.8;" x="233.349398" xlink:href="#m493bcfe9a1" y="512.64"/>
      </g>
     </g>
     <g id="text_4">
      <!-- 2 -->
      <defs>
       <path d="M 19.1875 8.296875 
L 53.609375 8.296875 
L 53.609375 0 
L 7.328125 0 
L 7.328125 8.296875 
Q 12.9375 14.109375 22.625 23.890625 
Q 32.328125 33.6875 34.8125 36.53125 
Q 39.546875 41.84375 41.421875 45.53125 
Q 43.3125 49.21875 43.3125 52.78125 
Q 43.3125 58.59375 39.234375 62.25 
Q 35.15625 65.921875 28.609375 65.921875 
Q 23.96875 65.921875 18.8125 64.3125 
Q 13.671875 62.703125 7.8125 59.421875 
L 7.8125 69.390625 
Q 13.765625 71.78125 18.9375 73 
Q 24.125 74.21875 28.421875 74.21875 
Q 39.75 74.21875 46.484375 68.546875 
Q 53.21875 62.890625 53.21875 53.421875 
Q 53.21875 48.921875 51.53125 44.890625 
Q 49.859375 40.875 45.40625 35.40625 
Q 44.1875 33.984375 37.640625 27.21875 
Q 31.109375 20.453125 19.1875 8.296875 
z
" id="DejaVuSans-32"/>
      </defs>
      <g transform="translate(230.168148 527.238438)scale(0.1 -0.1)">
       <use xlink:href="#DejaVuSans-32"/>
      </g>
     </g>
    </g>
    <g id="xtick_5">
     <g id="line2d_5">
      <g>
       <use style="stroke:#000000;stroke-width:0.8;" x="287.13253" xlink:href="#m493bcfe9a1" y="512.64"/>
      </g>
     </g>
     <g id="text_5">
      <!-- 3 -->
      <defs>
       <path d="M 40.578125 39.3125 
Q 47.65625 37.796875 51.625 33 
Q 55.609375 28.21875 55.609375 21.1875 
Q 55.609375 10.40625 48.1875 4.484375 
Q 40.765625 -1.421875 27.09375 -1.421875 
Q 22.515625 -1.421875 17.65625 -0.515625 
Q 12.796875 0.390625 7.625 2.203125 
L 7.625 11.71875 
Q 11.71875 9.328125 16.59375 8.109375 
Q 21.484375 6.890625 26.8125 6.890625 
Q 36.078125 6.890625 40.9375 10.546875 
Q 45.796875 14.203125 45.796875 21.1875 
Q 45.796875 27.640625 41.28125 31.265625 
Q 36.765625 34.90625 28.71875 34.90625 
L 20.21875 34.90625 
L 20.21875 43.015625 
L 29.109375 43.015625 
Q 36.375 43.015625 40.234375 45.921875 
Q 44.09375 48.828125 44.09375 54.296875 
Q 44.09375 59.90625 40.109375 62.90625 
Q 36.140625 65.921875 28.71875 65.921875 
Q 24.65625 65.921875 20.015625 65.03125 
Q 15.375 64.15625 9.8125 62.3125 
L 9.8125 71.09375 
Q 15.4375 72.65625 20.34375 73.4375 
Q 25.25 74.21875 29.59375 74.21875 
Q 40.828125 74.21875 47.359375 69.109375 
Q 53.90625 64.015625 53.90625 55.328125 
Q 53.90625 49.265625 50.4375 45.09375 
Q 46.96875 40.921875 40.578125 39.3125 
z
" id="DejaVuSans-33"/>
      </defs>
      <g transform="translate(283.95128 527.238438)scale(0.1 -0.1)">
       <use xlink:href="#DejaVuSans-33"/>
      </g>
     </g>
    </g>
    <g id="xtick_6">
     <g id="line2d_6">
      <g>
       <use style="stroke:#000000;stroke-width:0.8;" x="340.915663" xlink:href="#m493bcfe9a1" y="512.64"/>
      </g>
     </g>
     <g id="text_6">
      <!-- 4 -->
      <defs>
       <path d="M 37.796875 64.3125 
L 12.890625 25.390625 
L 37.796875 25.390625 
z
M 35.203125 72.90625 
L 47.609375 72.90625 
L 47.609375 25.390625 
L 58.015625 25.390625 
L 58.015625 17.1875 
L 47.609375 17.1875 
L 47.609375 0 
L 37.796875 0 
L 37.796875 17.1875 
L 4.890625 17.1875 
L 4.890625 26.703125 
z
" id="DejaVuSans-34"/>
      </defs>
      <g transform="translate(337.734413 527.238438)scale(0.1 -0.1)">
       <use xlink:href="#DejaVuSans-34"/>
      </g>
     </g>
    </g>
    <g id="xtick_7">
     <g id="line2d_7">
      <g>
       <use style="stroke:#000000;stroke-width:0.8;" x="394.698795" xlink:href="#m493bcfe9a1" y="512.64"/>
      </g>
     </g>
     <g id="text_7">
      <!-- 5 -->
      <defs>
       <path d="M 10.796875 72.90625 
L 49.515625 72.90625 
L 49.515625 64.59375 
L 19.828125 64.59375 
L 19.828125 46.734375 
Q 21.96875 47.46875 24.109375 47.828125 
Q 26.265625 48.1875 28.421875 48.1875 
Q 40.625 48.1875 47.75 41.5 
Q 54.890625 34.8125 54.890625 23.390625 
Q 54.890625 11.625 47.5625 5.09375 
Q 40.234375 -1.421875 26.90625 -1.421875 
Q 22.3125 -1.421875 17.546875 -0.640625 
Q 12.796875 0.140625 7.71875 1.703125 
L 7.71875 11.625 
Q 12.109375 9.234375 16.796875 8.0625 
Q 21.484375 6.890625 26.703125 6.890625 
Q 35.15625 6.890625 40.078125 11.328125 
Q 45.015625 15.765625 45.015625 23.390625 
Q 45.015625 31 40.078125 35.4375 
Q 35.15625 39.890625 26.703125 39.890625 
Q 22.75 39.890625 18.8125 39.015625 
Q 14.890625 38.140625 10.796875 36.28125 
z
" id="DejaVuSans-35"/>
      </defs>
      <g transform="translate(391.517545 527.238438)scale(0.1 -0.1)">
       <use xlink:href="#DejaVuSans-35"/>
      </g>
     </g>
    </g>
    <g id="xtick_8">
     <g id="line2d_8">
      <g>
       <use style="stroke:#000000;stroke-width:0.8;" x="448.481928" xlink:href="#m493bcfe9a1" y="512.64"/>
      </g>
     </g>
     <g id="text_8">
      <!-- 6 -->
      <defs>
       <path d="M 33.015625 40.375 
Q 26.375 40.375 22.484375 35.828125 
Q 18.609375 31.296875 18.609375 23.390625 
Q 18.609375 15.53125 22.484375 10.953125 
Q 26.375 6.390625 33.015625 6.390625 
Q 39.65625 6.390625 43.53125 10.953125 
Q 47.40625 15.53125 47.40625 23.390625 
Q 47.40625 31.296875 43.53125 35.828125 
Q 39.65625 40.375 33.015625 40.375 
z
M 52.59375 71.296875 
L 52.59375 62.3125 
Q 48.875 64.0625 45.09375 64.984375 
Q 41.3125 65.921875 37.59375 65.921875 
Q 27.828125 65.921875 22.671875 59.328125 
Q 17.53125 52.734375 16.796875 39.40625 
Q 19.671875 43.65625 24.015625 45.921875 
Q 28.375 48.1875 33.59375 48.1875 
Q 44.578125 48.1875 50.953125 41.515625 
Q 57.328125 34.859375 57.328125 23.390625 
Q 57.328125 12.15625 50.6875 5.359375 
Q 44.046875 -1.421875 33.015625 -1.421875 
Q 20.359375 -1.421875 13.671875 8.265625 
Q 6.984375 17.96875 6.984375 36.375 
Q 6.984375 53.65625 15.1875 63.9375 
Q 23.390625 74.21875 37.203125 74.21875 
Q 40.921875 74.21875 44.703125 73.484375 
Q 48.484375 72.75 52.59375 71.296875 
z
" id="DejaVuSans-36"/>
      </defs>
      <g transform="translate(445.300678 527.238438)scale(0.1 -0.1)">
       <use xlink:href="#DejaVuSans-36"/>
      </g>
     </g>
    </g>
    <g id="xtick_9">
     <g id="line2d_9">
      <g>
       <use style="stroke:#000000;stroke-width:0.8;" x="502.26506" xlink:href="#m493bcfe9a1" y="512.64"/>
      </g>
     </g>
     <g id="text_9">
      <!-- 7 -->
      <defs>
       <path d="M 8.203125 72.90625 
L 55.078125 72.90625 
L 55.078125 68.703125 
L 28.609375 0 
L 18.3125 0 
L 43.21875 64.59375 
L 8.203125 64.59375 
z
" id="DejaVuSans-37"/>
      </defs>
      <g transform="translate(499.08381 527.238438)scale(0.1 -0.1)">
       <use xlink:href="#DejaVuSans-37"/>
      </g>
     </g>
    </g>
   </g>
   <g id="matplotlib.axis_2">
    <g id="ytick_1">
     <g id="line2d_10">
      <defs>
       <path d="M 0 0 
L -3.5 0 
" id="m16880ca974" style="stroke:#000000;stroke-width:0.8;"/>
      </defs>
      <g>
       <use style="stroke:#000000;stroke-width:0.8;" x="72" xlink:href="#m16880ca974" y="460.296867"/>
      </g>
     </g>
     <g id="text_10">
      <!-- 0 -->
      <g transform="translate(58.6375 464.096086)scale(0.1 -0.1)">
       <use xlink:href="#DejaVuSans-30"/>
      </g>
     </g>
    </g>
    <g id="ytick_2">
     <g id="line2d_11">
      <g>
       <use style="stroke:#000000;stroke-width:0.8;" x="72" xlink:href="#m16880ca974" y="406.513735"/>
      </g>
     </g>
     <g id="text_11">
      <!-- 1 -->
      <g transform="translate(58.6375 410.312954)scale(0.1 -0.1)">
       <use xlink:href="#DejaVuSans-31"/>
      </g>
     </g>
    </g>
    <g id="ytick_3">
     <g id="line2d_12">
      <g>
       <use style="stroke:#000000;stroke-width:0.8;" x="72" xlink:href="#m16880ca974" y="352.730602"/>
      </g>
     </g>
     <g id="text_12">
      <!-- 2 -->
      <g transform="translate(58.6375 356.529821)scale(0.1 -0.1)">
       <use xlink:href="#DejaVuSans-32"/>
      </g>
     </g>
    </g>
    <g id="ytick_4">
     <g id="line2d_13">
      <g>
       <use style="stroke:#000000;stroke-width:0.8;" x="72" xlink:href="#m16880ca974" y="298.94747"/>
      </g>
     </g>
     <g id="text_13">
      <!-- 3 -->
      <g transform="translate(58.6375 302.746689)scale(0.1 -0.1)">
       <use xlink:href="#DejaVuSans-33"/>
      </g>
     </g>
    </g>
    <g id="ytick_5">
     <g id="line2d_14">
      <g>
       <use style="stroke:#000000;stroke-width:0.8;" x="72" xlink:href="#m16880ca974" y="245.164337"/>
      </g>
     </g>
     <g id="text_14">
      <!-- 4 -->
      <g transform="translate(58.6375 248.963556)scale(0.1 -0.1)">
       <use xlink:href="#DejaVuSans-34"/>
      </g>
     </g>
    </g>
    <g id="ytick_6">
     <g id="line2d_15">
      <g>
       <use style="stroke:#000000;stroke-width:0.8;" x="72" xlink:href="#m16880ca974" y="191.381205"/>
      </g>
     </g>
     <g id="text_15">
      <!-- 5 -->
      <g transform="translate(58.6375 195.180424)scale(0.1 -0.1)">
       <use xlink:href="#DejaVuSans-35"/>
      </g>
     </g>
    </g>
    <g id="ytick_7">
     <g id="line2d_16">
      <g>
       <use style="stroke:#000000;stroke-width:0.8;" x="72" xlink:href="#m16880ca974" y="137.598072"/>
      </g>
     </g>
     <g id="text_16">
      <!-- 6 -->
      <g transform="translate(58.6375 141.397291)scale(0.1 -0.1)">
       <use xlink:href="#DejaVuSans-36"/>
      </g>
     </g>
    </g>
    <g id="ytick_8">
     <g id="line2d_17">
      <g>
       <use style="stroke:#000000;stroke-width:0.8;" x="72" xlink:href="#m16880ca974" y="83.81494"/>
      </g>
     </g>
     <g id="text_17">
      <!-- 7 -->
      <g transform="translate(58.6375 87.614159)scale(0.1 -0.1)">
       <use xlink:href="#DejaVuSans-37"/>
      </g>
     </g>
    </g>
   </g>
   <g id="line2d_18">
    <path clip-path="url(#p22e2e98e38)" d="M 332.86705 302.819321 
" style="fill:none;stroke:#1f77b4;stroke-linecap:square;stroke-width:1.5;"/>
    <defs>
     <path d="M -5 5 
L 5 5 
L 5 -5 
L -5 -5 
z
" id="mb565465ec3" style="stroke:#8000ff;stroke-linejoin:miter;"/>
    </defs>
    <g clip-path="url(#p22e2e98e38)">
     <use style="fill:#8000ff;stroke:#8000ff;stroke-linejoin:miter;" x="332.86705" xlink:href="#mb565465ec3" y="302.819321"/>
    </g>
   </g>
   <g id="line2d_19">
    <path clip-path="url(#p22e2e98e38)" d="M 209.796011 156.220861 
" style="fill:none;stroke:#ff7f0e;stroke-linecap:square;stroke-width:1.5;"/>
    <defs>
     <path d="M 0 -5 
L -4.755283 -1.545085 
L -2.938926 4.045085 
L 2.938926 4.045085 
L 4.755283 -1.545085 
z
" id="m8574c7d5ac" style="stroke:#8000ff;stroke-linejoin:miter;"/>
    </defs>
    <g clip-path="url(#p22e2e98e38)">
     <use style="fill:#8000ff;stroke:#8000ff;stroke-linejoin:miter;" x="209.796011" xlink:href="#m8574c7d5ac" y="156.220861"/>
    </g>
   </g>
   <g id="line2d_20">
    <path clip-path="url(#p22e2e98e38)" d="M 398.242603 211.735973 
" style="fill:none;stroke:#2ca02c;stroke-linecap:square;stroke-width:1.5;"/>
    <defs>
     <path d="M -5 5 
L 5 5 
L 5 -5 
L -5 -5 
z
" id="m132d78eae8" style="stroke:#376ff9;stroke-linejoin:miter;"/>
    </defs>
    <g clip-path="url(#p22e2e98e38)">
     <use style="fill:#376ff9;stroke:#376ff9;stroke-linejoin:miter;" x="398.242603" xlink:href="#m132d78eae8" y="211.735973"/>
    </g>
   </g>
   <g id="line2d_21">
    <path clip-path="url(#p22e2e98e38)" d="M 338.915928 459.862273 
" style="fill:none;stroke:#d62728;stroke-linecap:square;stroke-width:1.5;"/>
    <defs>
     <path d="M 0 -5 
L -4.755283 -1.545085 
L -2.938926 4.045085 
L 2.938926 4.045085 
L 4.755283 -1.545085 
z
" id="m026b1ec3c7" style="stroke:#376ff9;stroke-linejoin:miter;"/>
    </defs>
    <g clip-path="url(#p22e2e98e38)">
     <use style="fill:#376ff9;stroke:#376ff9;stroke-linejoin:miter;" x="338.915928" xlink:href="#m026b1ec3c7" y="459.862273"/>
    </g>
   </g>
   <g id="line2d_22">
    <path clip-path="url(#p22e2e98e38)" d="M 133.530394 247.078998 
" style="fill:none;stroke:#9467bd;stroke-linecap:square;stroke-width:1.5;"/>
    <defs>
     <path d="M -5 5 
L 5 5 
L 5 -5 
L -5 -5 
z
" id="mf4175f776f" style="stroke:#12c7e6;stroke-linejoin:miter;"/>
    </defs>
    <g clip-path="url(#p22e2e98e38)">
     <use style="fill:#12c7e6;stroke:#12c7e6;stroke-linejoin:miter;" x="133.530394" xlink:href="#mf4175f776f" y="247.078998"/>
    </g>
   </g>
   <g id="line2d_23">
    <path clip-path="url(#p22e2e98e38)" d="M 431.518143 375.789697 
" style="fill:none;stroke:#8c564b;stroke-linecap:square;stroke-width:1.5;"/>
    <defs>
     <path d="M 0 -5 
L -4.755283 -1.545085 
L -2.938926 4.045085 
L 2.938926 4.045085 
L 4.755283 -1.545085 
z
" id="m203d3bef46" style="stroke:#12c7e6;stroke-linejoin:miter;"/>
    </defs>
    <g clip-path="url(#p22e2e98e38)">
     <use style="fill:#12c7e6;stroke:#12c7e6;stroke-linejoin:miter;" x="431.518143" xlink:href="#m203d3bef46" y="375.789697"/>
    </g>
   </g>
   <g id="line2d_24">
    <path clip-path="url(#p22e2e98e38)" d="M 226.331604 225.802943 
" style="fill:none;stroke:#e377c2;stroke-linecap:square;stroke-width:1.5;"/>
    <defs>
     <path d="M -5 5 
L 5 5 
L 5 -5 
L -5 -5 
z
" id="m6dd7177bcc" style="stroke:#5bf9c7;stroke-linejoin:miter;"/>
    </defs>
    <g clip-path="url(#p22e2e98e38)">
     <use style="fill:#5bf9c7;stroke:#5bf9c7;stroke-linejoin:miter;" x="226.331604" xlink:href="#m6dd7177bcc" y="225.802943"/>
    </g>
   </g>
   <g id="line2d_25">
    <path clip-path="url(#p22e2e98e38)" d="M 463.181366 404.089777 
" style="fill:none;stroke:#7f7f7f;stroke-linecap:square;stroke-width:1.5;"/>
    <defs>
     <path d="M 0 -5 
L -4.755283 -1.545085 
L -2.938926 4.045085 
L 2.938926 4.045085 
L 4.755283 -1.545085 
z
" id="md171bfd87e" style="stroke:#5bf9c7;stroke-linejoin:miter;"/>
    </defs>
    <g clip-path="url(#p22e2e98e38)">
     <use style="fill:#5bf9c7;stroke:#5bf9c7;stroke-linejoin:miter;" x="463.181366" xlink:href="#md171bfd87e" y="404.089777"/>
    </g>
   </g>
   <g id="line2d_26">
    <path clip-path="url(#p22e2e98e38)" d="M 400.643477 160.979706 
" style="fill:none;stroke:#bcbd22;stroke-linecap:square;stroke-width:1.5;"/>
    <defs>
     <path d="M -5 5 
L 5 5 
L 5 -5 
L -5 -5 
z
" id="m62712dc419" style="stroke:#a4f99f;stroke-linejoin:miter;"/>
    </defs>
    <g clip-path="url(#p22e2e98e38)">
     <use style="fill:#a4f99f;stroke:#a4f99f;stroke-linejoin:miter;" x="400.643477" xlink:href="#m62712dc419" y="160.979706"/>
    </g>
   </g>
   <g id="line2d_27">
    <path clip-path="url(#p22e2e98e38)" d="M 155.429445 211.949822 
" style="fill:none;stroke:#17becf;stroke-linecap:square;stroke-width:1.5;"/>
    <defs>
     <path d="M 0 -5 
L -4.755283 -1.545085 
L -2.938926 4.045085 
L 2.938926 4.045085 
L 4.755283 -1.545085 
z
" id="m891de013cd" style="stroke:#a4f99f;stroke-linejoin:miter;"/>
    </defs>
    <g clip-path="url(#p22e2e98e38)">
     <use style="fill:#a4f99f;stroke:#a4f99f;stroke-linejoin:miter;" x="155.429445" xlink:href="#m891de013cd" y="211.949822"/>
    </g>
   </g>
   <g id="line2d_28">
    <path clip-path="url(#p22e2e98e38)" d="M 397.762062 318.938871 
" style="fill:none;stroke:#1f77b4;stroke-linecap:square;stroke-width:1.5;"/>
    <defs>
     <path d="M -5 5 
L 5 5 
L 5 -5 
L -5 -5 
z
" id="m774d2d1beb" style="stroke:#edc76f;stroke-linejoin:miter;"/>
    </defs>
    <g clip-path="url(#p22e2e98e38)">
     <use style="fill:#edc76f;stroke:#edc76f;stroke-linejoin:miter;" x="397.762062" xlink:href="#m774d2d1beb" y="318.938871"/>
    </g>
   </g>
   <g id="line2d_29">
    <path clip-path="url(#p22e2e98e38)" d="M 185.287098 125.066781 
" style="fill:none;stroke:#ff7f0e;stroke-linecap:square;stroke-width:1.5;"/>
    <defs>
     <path d="M 0 -5 
L -4.755283 -1.545085 
L -2.938926 4.045085 
L 2.938926 4.045085 
L 4.755283 -1.545085 
z
" id="m4f6e5ba908" style="stroke:#edc76f;stroke-linejoin:miter;"/>
    </defs>
    <g clip-path="url(#p22e2e98e38)">
     <use style="fill:#edc76f;stroke:#edc76f;stroke-linejoin:miter;" x="185.287098" xlink:href="#m4f6e5ba908" y="125.066781"/>
    </g>
   </g>
   <g id="line2d_30">
    <path clip-path="url(#p22e2e98e38)" d="M 243.080204 399.109759 
" style="fill:none;stroke:#2ca02c;stroke-linecap:square;stroke-width:1.5;"/>
    <defs>
     <path d="M -5 5 
L 5 5 
L 5 -5 
L -5 -5 
z
" id="m558f36a76a" style="stroke:#ff6f39;stroke-linejoin:miter;"/>
    </defs>
    <g clip-path="url(#p22e2e98e38)">
     <use style="fill:#ff6f39;stroke:#ff6f39;stroke-linejoin:miter;" x="243.080204" xlink:href="#m558f36a76a" y="399.109759"/>
    </g>
   </g>
   <g id="line2d_31">
    <path clip-path="url(#p22e2e98e38)" d="M 406.176764 249.830181 
" style="fill:none;stroke:#d62728;stroke-linecap:square;stroke-width:1.5;"/>
    <defs>
     <path d="M 0 -5 
L -4.755283 -1.545085 
L -2.938926 4.045085 
L 2.938926 4.045085 
L 4.755283 -1.545085 
z
" id="mfe5dca3b06" style="stroke:#ff6f39;stroke-linejoin:miter;"/>
    </defs>
    <g clip-path="url(#p22e2e98e38)">
     <use style="fill:#ff6f39;stroke:#ff6f39;stroke-linejoin:miter;" x="406.176764" xlink:href="#mfe5dca3b06" y="249.830181"/>
    </g>
   </g>
   <g id="line2d_32">
    <path clip-path="url(#p22e2e98e38)" d="M 295.082702 122.099744 
" style="fill:none;stroke:#9467bd;stroke-linecap:square;stroke-width:1.5;"/>
    <defs>
     <path d="M -5 5 
L 5 5 
L 5 -5 
L -5 -5 
z
" id="mc159eab231" style="stroke:#ff0000;stroke-linejoin:miter;"/>
    </defs>
    <g clip-path="url(#p22e2e98e38)">
     <use style="fill:#ff0000;stroke:#ff0000;stroke-linejoin:miter;" x="295.082702" xlink:href="#mc159eab231" y="122.099744"/>
    </g>
   </g>
   <g id="line2d_33">
    <path clip-path="url(#p22e2e98e38)" d="M 342.572534 362.651819 
" style="fill:none;stroke:#8c564b;stroke-linecap:square;stroke-width:1.5;"/>
    <defs>
     <path d="M 0 -5 
L -4.755283 -1.545085 
L -2.938926 4.045085 
L 2.938926 4.045085 
L 4.755283 -1.545085 
z
" id="m6255ccc26c" style="stroke:#ff0000;stroke-linejoin:miter;"/>
    </defs>
    <g clip-path="url(#p22e2e98e38)">
     <use style="fill:#ff0000;stroke:#ff0000;stroke-linejoin:miter;" x="342.572534" xlink:href="#m6255ccc26c" y="362.651819"/>
    </g>
   </g>
   <g id="line2d_34">
    <defs>
     <path d="M 0 2.5 
C 0.663008 2.5 1.29895 2.236584 1.767767 1.767767 
C 2.236584 1.29895 2.5 0.663008 2.5 0 
C 2.5 -0.663008 2.236584 -1.29895 1.767767 -1.767767 
C 1.29895 -2.236584 0.663008 -2.5 0 -2.5 
C -0.663008 -2.5 -1.29895 -2.236584 -1.767767 -1.767767 
C -2.236584 -1.29895 -2.5 -0.663008 -2.5 0 
C -2.5 0.663008 -2.236584 1.29895 -1.767767 1.767767 
C -1.29895 2.236584 -0.663008 2.5 0 2.5 
z
" id="m7fdc43732e" style="stroke:#000000;"/>
    </defs>
    <g clip-path="url(#p22e2e98e38)">
     <use style="stroke:#000000;" x="277.622064" xlink:href="#m7fdc43732e" y="309.245067"/>
     <use style="stroke:#000000;" x="152.779377" xlink:href="#m7fdc43732e" y="446.046174"/>
     <use style="stroke:#000000;" x="139.37245" xlink:href="#m7fdc43732e" y="384.973799"/>
     <use style="stroke:#000000;" x="207.820745" xlink:href="#m7fdc43732e" y="379.646703"/>
     <use style="stroke:#000000;" x="274.035376" xlink:href="#m7fdc43732e" y="233.943507"/>
     <use style="stroke:#000000;" x="271.958668" xlink:href="#m7fdc43732e" y="453.542406"/>
     <use style="stroke:#000000;" x="372.767823" xlink:href="#m7fdc43732e" y="441.180061"/>
     <use style="stroke:#000000;" x="361.482609" xlink:href="#m7fdc43732e" y="174.661409"/>
     <use style="stroke:#000000;" x="341.071399" xlink:href="#m7fdc43732e" y="130.151221"/>
     <use style="stroke:#000000;" x="396.326658" xlink:href="#m7fdc43732e" y="358.746029"/>
     <use style="stroke:#000000;" x="139.776837" xlink:href="#m7fdc43732e" y="356.09528"/>
     <use style="stroke:#000000;" x="303.859523" xlink:href="#m7fdc43732e" y="414.572665"/>
     <use style="stroke:#000000;" x="459.819282" xlink:href="#m7fdc43732e" y="138.109441"/>
     <use style="stroke:#000000;" x="270.676426" xlink:href="#m7fdc43732e" y="339.08386"/>
     <use style="stroke:#000000;" x="197.129956" xlink:href="#m7fdc43732e" y="260.619778"/>
     <use style="stroke:#000000;" x="241.417335" xlink:href="#m7fdc43732e" y="128.804323"/>
     <use style="stroke:#000000;" x="363.081187" xlink:href="#m7fdc43732e" y="419.348536"/>
     <use style="stroke:#000000;" x="184.296938" xlink:href="#m7fdc43732e" y="393.054532"/>
     <use style="stroke:#000000;" x="449.953825" xlink:href="#m7fdc43732e" y="318.569899"/>
     <use style="stroke:#000000;" x="294.189373" xlink:href="#m7fdc43732e" y="192.799949"/>
     <use style="stroke:#000000;" x="359.296172" xlink:href="#m7fdc43732e" y="236.420336"/>
     <use style="stroke:#000000;" x="307.951486" xlink:href="#m7fdc43732e" y="271.384084"/>
     <use style="stroke:#000000;" x="274.149245" xlink:href="#m7fdc43732e" y="324.164464"/>
     <use style="stroke:#000000;" x="139.574643" xlink:href="#m7fdc43732e" y="370.53454"/>
     <use style="stroke:#000000;" x="196.058841" xlink:href="#m7fdc43732e" y="386.350617"/>
     <use style="stroke:#000000;" x="367.924505" xlink:href="#m7fdc43732e" y="430.264298"/>
    </g>
   </g>
   <g id="line2d_35">
    <path clip-path="url(#p22e2e98e38)" d="M 299.135317 309.245067 
L 297.969669 302.259725 
L 294.599043 296.031354 
L 289.388698 291.234893 
L 282.903255 288.390114 
L 275.845513 287.805293 
L 268.980288 289.543804 
L 263.051534 293.417253 
L 258.701722 299.005891 
L 256.402223 305.704102 
L 256.402223 312.786032 
L 258.701722 319.484244 
L 263.051534 325.072882 
L 268.980288 328.946331 
L 275.845513 330.684842 
L 282.903255 330.100021 
L 289.388698 327.255242 
L 294.599043 322.458781 
L 297.969669 316.230409 
L 299.135317 309.245067 
" style="fill:none;stroke:#000000;stroke-dasharray:5.55,2.4;stroke-dashoffset:0;stroke-width:1.5;"/>
   </g>
   <g id="line2d_36">
    <path clip-path="url(#p22e2e98e38)" d="M 283.538208 309.245067 
L 283.217655 307.324098 
L 282.290733 305.611296 
L 280.857888 304.292269 
L 279.074391 303.509955 
L 277.133512 303.349129 
L 275.245576 303.82722 
L 273.615168 304.892418 
L 272.41897 306.429294 
L 271.786608 308.271302 
L 271.786608 310.218833 
L 272.41897 312.060841 
L 273.615168 313.597716 
L 275.245576 314.662915 
L 277.133512 315.141005 
L 279.074391 314.980179 
L 280.857888 314.197865 
L 282.290733 312.878839 
L 283.217655 311.166036 
L 283.538208 309.245067 
" style="fill:none;stroke:#ff0000;stroke-linecap:square;stroke-width:1.5;"/>
   </g>
   <g id="line2d_37">
    <path clip-path="url(#p22e2e98e38)" d="M 174.29263 446.046174 
L 173.126983 439.060832 
L 169.756357 432.832461 
L 164.546011 428.036 
L 158.060569 425.191221 
L 151.002827 424.6064 
L 144.137602 426.344911 
L 138.208847 430.21836 
L 133.859036 435.806998 
L 131.559537 442.505209 
L 131.559537 449.587139 
L 133.859036 456.285351 
L 138.208847 461.873989 
L 144.137602 465.747438 
L 151.002827 467.485949 
L 158.060569 466.901128 
L 164.546011 464.056349 
L 169.756357 459.259888 
L 173.126983 453.031516 
L 174.29263 446.046174 
" style="fill:none;stroke:#000000;stroke-dasharray:5.55,2.4;stroke-dashoffset:0;stroke-width:1.5;"/>
   </g>
   <g id="line2d_38">
    <path clip-path="url(#p22e2e98e38)" d="M 158.695522 446.046174 
L 158.374969 444.125205 
L 157.448046 442.412403 
L 156.015202 441.093376 
L 154.231705 440.311062 
L 152.290826 440.150236 
L 150.402889 440.628327 
L 148.772481 441.693525 
L 147.576283 443.230401 
L 146.943921 445.072409 
L 146.943921 447.01994 
L 147.576283 448.861948 
L 148.772481 450.398823 
L 150.402889 451.464022 
L 152.290826 451.942112 
L 154.231705 451.781286 
L 156.015202 450.998972 
L 157.448046 449.679946 
L 158.374969 447.967143 
L 158.695522 446.046174 
" style="fill:none;stroke:#ff0000;stroke-linecap:square;stroke-width:1.5;"/>
   </g>
   <g id="line2d_39">
    <path clip-path="url(#p22e2e98e38)" d="M 160.885703 384.973799 
L 159.720056 377.988458 
L 156.349429 371.760086 
L 151.139084 366.963625 
L 144.653641 364.118846 
L 137.5959 363.534025 
L 130.730675 365.272536 
L 124.80192 369.145985 
L 120.452109 374.734623 
L 118.15261 381.432834 
L 118.15261 388.514764 
L 120.452109 395.212976 
L 124.80192 400.801614 
L 130.730675 404.675063 
L 137.5959 406.413574 
L 144.653641 405.828753 
L 151.139084 402.983974 
L 156.349429 398.187513 
L 159.720056 391.959141 
L 160.885703 384.973799 
" style="fill:none;stroke:#000000;stroke-dasharray:5.55,2.4;stroke-dashoffset:0;stroke-width:1.5;"/>
   </g>
   <g id="line2d_40">
    <path clip-path="url(#p22e2e98e38)" d="M 145.288594 384.973799 
L 144.968041 383.05283 
L 144.041119 381.340028 
L 142.608274 380.021001 
L 140.824778 379.238687 
L 138.883899 379.077861 
L 136.995962 379.555952 
L 135.365554 380.62115 
L 134.169356 382.158026 
L 133.536994 384.000034 
L 133.536994 385.947565 
L 134.169356 387.789573 
L 135.365554 389.326448 
L 136.995962 390.391647 
L 138.883899 390.869737 
L 140.824778 390.708911 
L 142.608274 389.926597 
L 144.041119 388.607571 
L 144.968041 386.894768 
L 145.288594 384.973799 
" style="fill:none;stroke:#ff0000;stroke-linecap:square;stroke-width:1.5;"/>
   </g>
   <g id="line2d_41">
    <path clip-path="url(#p22e2e98e38)" d="M 229.333998 379.646703 
L 228.168351 372.661361 
L 224.797724 366.432989 
L 219.587379 361.636529 
L 213.101936 358.79175 
L 206.044195 358.206928 
L 199.17897 359.945439 
L 193.250215 363.818888 
L 188.900404 369.407526 
L 186.600905 376.105738 
L 186.600905 383.187668 
L 188.900404 389.885879 
L 193.250215 395.474517 
L 199.17897 399.347966 
L 206.044195 401.086477 
L 213.101936 400.501656 
L 219.587379 397.656877 
L 224.797724 392.860416 
L 228.168351 386.632045 
L 229.333998 379.646703 
" style="fill:none;stroke:#000000;stroke-dasharray:5.55,2.4;stroke-dashoffset:0;stroke-width:1.5;"/>
   </g>
   <g id="line2d_42">
    <path clip-path="url(#p22e2e98e38)" d="M 213.736889 379.646703 
L 213.416336 377.725734 
L 212.489414 376.012932 
L 211.056569 374.693905 
L 209.273073 373.911591 
L 207.332194 373.750765 
L 205.444257 374.228855 
L 203.813849 375.294054 
L 202.617651 376.830929 
L 201.985289 378.672937 
L 201.985289 380.620468 
L 202.617651 382.462476 
L 203.813849 383.999352 
L 205.444257 385.06455 
L 207.332194 385.542641 
L 209.273073 385.381815 
L 211.056569 384.599501 
L 212.489414 383.280474 
L 213.416336 381.567672 
L 213.736889 379.646703 
" style="fill:none;stroke:#ff0000;stroke-linecap:square;stroke-width:1.5;"/>
   </g>
   <g id="line2d_43">
    <path clip-path="url(#p22e2e98e38)" d="M 295.548629 233.943507 
L 294.382982 226.958165 
L 291.012356 220.729793 
L 285.802011 215.933332 
L 279.316568 213.088553 
L 272.258826 212.503732 
L 265.393601 214.242243 
L 259.464847 218.115692 
L 255.115035 223.70433 
L 252.815536 230.402542 
L 252.815536 237.484472 
L 255.115035 244.182683 
L 259.464847 249.771321 
L 265.393601 253.64477 
L 272.258826 255.383281 
L 279.316568 254.79846 
L 285.802011 251.953681 
L 291.012356 247.15722 
L 294.382982 240.928848 
L 295.548629 233.943507 
" style="fill:none;stroke:#000000;stroke-dasharray:5.55,2.4;stroke-dashoffset:0;stroke-width:1.5;"/>
   </g>
   <g id="line2d_44">
    <path clip-path="url(#p22e2e98e38)" d="M 279.951521 233.943507 
L 279.630968 232.022538 
L 278.704046 230.309735 
L 277.271201 228.990709 
L 275.487704 228.208394 
L 273.546825 228.047569 
L 271.658888 228.525659 
L 270.028481 229.590858 
L 268.832283 231.127733 
L 268.19992 232.969741 
L 268.19992 234.917272 
L 268.832283 236.75928 
L 270.028481 238.296156 
L 271.658888 239.361354 
L 273.546825 239.839445 
L 275.487704 239.678619 
L 277.271201 238.896305 
L 278.704046 237.577278 
L 279.630968 235.864476 
L 279.951521 233.943507 
" style="fill:none;stroke:#ff0000;stroke-linecap:square;stroke-width:1.5;"/>
   </g>
   <g id="line2d_45">
    <path clip-path="url(#p22e2e98e38)" d="M 293.471921 453.542406 
L 292.306274 446.557065 
L 288.935648 440.328693 
L 283.725302 435.532232 
L 277.23986 432.687453 
L 270.182118 432.102632 
L 263.316893 433.841143 
L 257.388138 437.714592 
L 253.038327 443.30323 
L 250.738828 450.001441 
L 250.738828 457.083371 
L 253.038327 463.781583 
L 257.388138 469.370221 
L 263.316893 473.24367 
L 270.182118 474.982181 
L 277.23986 474.39736 
L 283.725302 471.552581 
L 288.935648 466.75612 
L 292.306274 460.527748 
L 293.471921 453.542406 
" style="fill:none;stroke:#000000;stroke-dasharray:5.55,2.4;stroke-dashoffset:0;stroke-width:1.5;"/>
   </g>
   <g id="line2d_46">
    <path clip-path="url(#p22e2e98e38)" d="M 277.874813 453.542406 
L 277.55426 451.621437 
L 276.627337 449.908635 
L 275.194493 448.589608 
L 273.410996 447.807294 
L 271.470117 447.646468 
L 269.58218 448.124559 
L 267.951772 449.189757 
L 266.755574 450.726633 
L 266.123212 452.568641 
L 266.123212 454.516172 
L 266.755574 456.35818 
L 267.951772 457.895055 
L 269.58218 458.960254 
L 271.470117 459.438344 
L 273.410996 459.277519 
L 275.194493 458.495204 
L 276.627337 457.176178 
L 277.55426 455.463375 
L 277.874813 453.542406 
" style="fill:none;stroke:#ff0000;stroke-linecap:square;stroke-width:1.5;"/>
   </g>
   <g id="line2d_47">
    <path clip-path="url(#p22e2e98e38)" d="M 394.281076 441.180061 
L 393.115429 434.194719 
L 389.744802 427.966347 
L 384.534457 423.169886 
L 378.049014 420.325107 
L 370.991273 419.740286 
L 364.126048 421.478797 
L 358.197293 425.352246 
L 353.847482 430.940884 
L 351.547983 437.639095 
L 351.547983 444.721026 
L 353.847482 451.419237 
L 358.197293 457.007875 
L 364.126048 460.881324 
L 370.991273 462.619835 
L 378.049014 462.035014 
L 384.534457 459.190235 
L 389.744802 454.393774 
L 393.115429 448.165402 
L 394.281076 441.180061 
" style="fill:none;stroke:#000000;stroke-dasharray:5.55,2.4;stroke-dashoffset:0;stroke-width:1.5;"/>
   </g>
   <g id="line2d_48">
    <path clip-path="url(#p22e2e98e38)" d="M 378.683968 441.180061 
L 378.363414 439.259092 
L 377.436492 437.546289 
L 376.003647 436.227263 
L 374.220151 435.444948 
L 372.279272 435.284123 
L 370.391335 435.762213 
L 368.760927 436.827412 
L 367.564729 438.364287 
L 366.932367 440.206295 
L 366.932367 442.153826 
L 367.564729 443.995834 
L 368.760927 445.53271 
L 370.391335 446.597908 
L 372.279272 447.075998 
L 374.220151 446.915173 
L 376.003647 446.132858 
L 377.436492 444.813832 
L 378.363414 443.10103 
L 378.683968 441.180061 
" style="fill:none;stroke:#ff0000;stroke-linecap:square;stroke-width:1.5;"/>
   </g>
   <g id="line2d_49">
    <path clip-path="url(#p22e2e98e38)" d="M 382.995862 174.661409 
L 381.830215 167.676067 
L 378.459589 161.447696 
L 373.249244 156.651235 
L 366.763801 153.806456 
L 359.706059 153.221635 
L 352.840834 154.960146 
L 346.91208 158.833595 
L 342.562268 164.422233 
L 340.262769 171.120444 
L 340.262769 178.202374 
L 342.562268 184.900586 
L 346.91208 190.489224 
L 352.840834 194.362673 
L 359.706059 196.101184 
L 366.763801 195.516362 
L 373.249244 192.671584 
L 378.459589 187.875123 
L 381.830215 181.646751 
L 382.995862 174.661409 
" style="fill:none;stroke:#000000;stroke-dasharray:5.55,2.4;stroke-dashoffset:0;stroke-width:1.5;"/>
   </g>
   <g id="line2d_50">
    <path clip-path="url(#p22e2e98e38)" d="M 367.398754 174.661409 
L 367.078201 172.74044 
L 366.151279 171.027638 
L 364.718434 169.708611 
L 362.934937 168.926297 
L 360.994058 168.765471 
L 359.106121 169.243562 
L 357.475714 170.30876 
L 356.279516 171.845636 
L 355.647153 173.687644 
L 355.647153 175.635175 
L 356.279516 177.477183 
L 357.475714 179.014058 
L 359.106121 180.079257 
L 360.994058 180.557347 
L 362.934937 180.396521 
L 364.718434 179.614207 
L 366.151279 178.29518 
L 367.078201 176.582378 
L 367.398754 174.661409 
" style="fill:none;stroke:#ff0000;stroke-linecap:square;stroke-width:1.5;"/>
   </g>
   <g id="line2d_51">
    <path clip-path="url(#p22e2e98e38)" d="M 362.584652 130.151221 
L 361.419005 123.165879 
L 358.048379 116.937508 
L 352.838034 112.141047 
L 346.352591 109.296268 
L 339.294849 108.711447 
L 332.429624 110.449958 
L 326.50087 114.323406 
L 322.151058 119.912044 
L 319.851559 126.610256 
L 319.851559 133.692186 
L 322.151058 140.390398 
L 326.50087 145.979036 
L 332.429624 149.852484 
L 339.294849 151.590995 
L 346.352591 151.006174 
L 352.838034 148.161395 
L 358.048379 143.364934 
L 361.419005 137.136563 
L 362.584652 130.151221 
" style="fill:none;stroke:#000000;stroke-dasharray:5.55,2.4;stroke-dashoffset:0;stroke-width:1.5;"/>
   </g>
   <g id="line2d_52">
    <path clip-path="url(#p22e2e98e38)" d="M 346.987544 130.151221 
L 346.666991 128.230252 
L 345.740069 126.51745 
L 344.307224 125.198423 
L 342.523727 124.416109 
L 340.582848 124.255283 
L 338.694911 124.733374 
L 337.064504 125.798572 
L 335.868306 127.335447 
L 335.235943 129.177456 
L 335.235943 131.124986 
L 335.868306 132.966995 
L 337.064504 134.50387 
L 338.694911 135.569068 
L 340.582848 136.047159 
L 342.523727 135.886333 
L 344.307224 135.104019 
L 345.740069 133.784992 
L 346.666991 132.07219 
L 346.987544 130.151221 
" style="fill:none;stroke:#ff0000;stroke-linecap:square;stroke-width:1.5;"/>
   </g>
   <g id="line2d_53">
    <path clip-path="url(#p22e2e98e38)" d="M 417.839911 358.746029 
L 416.674263 351.760687 
L 413.303637 345.532316 
L 408.093292 340.735855 
L 401.607849 337.891076 
L 394.550107 337.306255 
L 387.684882 339.044766 
L 381.756128 342.918215 
L 377.406316 348.506853 
L 375.106817 355.205064 
L 375.106817 362.286994 
L 377.406316 368.985206 
L 381.756128 374.573844 
L 387.684882 378.447293 
L 394.550107 380.185804 
L 401.607849 379.600982 
L 408.093292 376.756204 
L 413.303637 371.959743 
L 416.674263 365.731371 
L 417.839911 358.746029 
" style="fill:none;stroke:#000000;stroke-dasharray:5.55,2.4;stroke-dashoffset:0;stroke-width:1.5;"/>
   </g>
   <g id="line2d_54">
    <path clip-path="url(#p22e2e98e38)" d="M 402.242802 358.746029 
L 401.922249 356.82506 
L 400.995327 355.112258 
L 399.562482 353.793231 
L 397.778985 353.010917 
L 395.838106 352.850091 
L 393.950169 353.328182 
L 392.319762 354.39338 
L 391.123564 355.930256 
L 390.491202 357.772264 
L 390.491202 359.719795 
L 391.123564 361.561803 
L 392.319762 363.098678 
L 393.950169 364.163877 
L 395.838106 364.641967 
L 397.778985 364.481141 
L 399.562482 363.698827 
L 400.995327 362.379801 
L 401.922249 360.666998 
L 402.242802 358.746029 
" style="fill:none;stroke:#ff0000;stroke-linecap:square;stroke-width:1.5;"/>
   </g>
   <g id="line2d_55">
    <path clip-path="url(#p22e2e98e38)" d="M 161.29009 356.09528 
L 160.124442 349.109938 
L 156.753816 342.881566 
L 151.543471 338.085105 
L 145.058028 335.240326 
L 138.000286 334.655505 
L 131.135061 336.394016 
L 125.206307 340.267465 
L 120.856495 345.856103 
L 118.556996 352.554315 
L 118.556996 359.636245 
L 120.856495 366.334456 
L 125.206307 371.923094 
L 131.135061 375.796543 
L 138.000286 377.535054 
L 145.058028 376.950233 
L 151.543471 374.105454 
L 156.753816 369.308993 
L 160.124442 363.080621 
L 161.29009 356.09528 
" style="fill:none;stroke:#000000;stroke-dasharray:5.55,2.4;stroke-dashoffset:0;stroke-width:1.5;"/>
   </g>
   <g id="line2d_56">
    <path clip-path="url(#p22e2e98e38)" d="M 145.692981 356.09528 
L 145.372428 354.174311 
L 144.445506 352.461508 
L 143.012661 351.142482 
L 141.229164 350.360168 
L 139.288285 350.199342 
L 137.400349 350.677432 
L 135.769941 351.742631 
L 134.573743 353.279506 
L 133.941381 355.121514 
L 133.941381 357.069045 
L 134.573743 358.911053 
L 135.769941 360.447929 
L 137.400349 361.513127 
L 139.288285 361.991218 
L 141.229164 361.830392 
L 143.012661 361.048078 
L 144.445506 359.729051 
L 145.372428 358.016249 
L 145.692981 356.09528 
" style="fill:none;stroke:#ff0000;stroke-linecap:square;stroke-width:1.5;"/>
   </g>
   <g id="line2d_57">
    <path clip-path="url(#p22e2e98e38)" d="M 325.372776 414.572665 
L 324.207129 407.587323 
L 320.836502 401.358952 
L 315.626157 396.562491 
L 309.140714 393.717712 
L 302.082973 393.132891 
L 295.217748 394.871402 
L 289.288993 398.744851 
L 284.939182 404.333489 
L 282.639683 411.0317 
L 282.639683 418.11363 
L 284.939182 424.811842 
L 289.288993 430.40048 
L 295.217748 434.273928 
L 302.082973 436.01244 
L 309.140714 435.427618 
L 315.626157 432.582839 
L 320.836502 427.786379 
L 324.207129 421.558007 
L 325.372776 414.572665 
" style="fill:none;stroke:#000000;stroke-dasharray:5.55,2.4;stroke-dashoffset:0;stroke-width:1.5;"/>
   </g>
   <g id="line2d_58">
    <path clip-path="url(#p22e2e98e38)" d="M 309.775668 414.572665 
L 309.455115 412.651696 
L 308.528192 410.938894 
L 307.095347 409.619867 
L 305.311851 408.837553 
L 303.370972 408.676727 
L 301.483035 409.154818 
L 299.852627 410.220016 
L 298.656429 411.756892 
L 298.024067 413.5989 
L 298.024067 415.546431 
L 298.656429 417.388439 
L 299.852627 418.925314 
L 301.483035 419.990513 
L 303.370972 420.468603 
L 305.311851 420.307777 
L 307.095347 419.525463 
L 308.528192 418.206436 
L 309.455115 416.493634 
L 309.775668 414.572665 
" style="fill:none;stroke:#ff0000;stroke-linecap:square;stroke-width:1.5;"/>
   </g>
   <g id="line2d_59">
    <path clip-path="url(#p22e2e98e38)" d="M 481.332535 138.109441 
L 480.166887 131.124099 
L 476.796261 124.895727 
L 471.585916 120.099266 
L 465.100473 117.254488 
L 458.042731 116.669666 
L 451.177506 118.408177 
L 445.248752 122.281626 
L 440.89894 127.870264 
L 438.599441 134.568476 
L 438.599441 141.650406 
L 440.89894 148.348617 
L 445.248752 153.937255 
L 451.177506 157.810704 
L 458.042731 159.549215 
L 465.100473 158.964394 
L 471.585916 156.119615 
L 476.796261 151.323154 
L 480.166887 145.094783 
L 481.332535 138.109441 
" style="fill:none;stroke:#000000;stroke-dasharray:5.55,2.4;stroke-dashoffset:0;stroke-width:1.5;"/>
   </g>
   <g id="line2d_60">
    <path clip-path="url(#p22e2e98e38)" d="M 465.735426 138.109441 
L 465.414873 136.188472 
L 464.487951 134.47567 
L 463.055106 133.156643 
L 461.271609 132.374329 
L 459.33073 132.213503 
L 457.442794 132.691593 
L 455.812386 133.756792 
L 454.616188 135.293667 
L 453.983826 137.135675 
L 453.983826 139.083206 
L 454.616188 140.925214 
L 455.812386 142.46209 
L 457.442794 143.527288 
L 459.33073 144.005379 
L 461.271609 143.844553 
L 463.055106 143.062239 
L 464.487951 141.743212 
L 465.414873 140.03041 
L 465.735426 138.109441 
" style="fill:none;stroke:#ff0000;stroke-linecap:square;stroke-width:1.5;"/>
   </g>
   <g id="line2d_61">
    <path clip-path="url(#p22e2e98e38)" d="M 292.189679 339.08386 
L 291.024032 332.098518 
L 287.653406 325.870146 
L 282.44306 321.073686 
L 275.957618 318.228907 
L 268.899876 317.644085 
L 262.034651 319.382597 
L 256.105897 323.256045 
L 251.756085 328.844683 
L 249.456586 335.542895 
L 249.456586 342.624825 
L 251.756085 349.323037 
L 256.105897 354.911674 
L 262.034651 358.785123 
L 268.899876 360.523634 
L 275.957618 359.938813 
L 282.44306 357.094034 
L 287.653406 352.297573 
L 291.024032 346.069202 
L 292.189679 339.08386 
" style="fill:none;stroke:#000000;stroke-dasharray:5.55,2.4;stroke-dashoffset:0;stroke-width:1.5;"/>
   </g>
   <g id="line2d_62">
    <path clip-path="url(#p22e2e98e38)" d="M 276.592571 339.08386 
L 276.272018 337.162891 
L 275.345096 335.450089 
L 273.912251 334.131062 
L 272.128754 333.348748 
L 270.187875 333.187922 
L 268.299938 333.666012 
L 266.669531 334.731211 
L 265.473333 336.268086 
L 264.84097 338.110094 
L 264.84097 340.057625 
L 265.473333 341.899633 
L 266.669531 343.436509 
L 268.299938 344.501707 
L 270.187875 344.979798 
L 272.128754 344.818972 
L 273.912251 344.036658 
L 275.345096 342.717631 
L 276.272018 341.004829 
L 276.592571 339.08386 
" style="fill:none;stroke:#ff0000;stroke-linecap:square;stroke-width:1.5;"/>
   </g>
   <g id="line2d_63">
    <path clip-path="url(#p22e2e98e38)" d="M 218.643209 260.619778 
L 217.477562 253.634436 
L 214.106936 247.406064 
L 208.896591 242.609604 
L 202.411148 239.764825 
L 195.353406 239.180004 
L 188.488181 240.918515 
L 182.559427 244.791963 
L 178.209615 250.380601 
L 175.910116 257.078813 
L 175.910116 264.160743 
L 178.209615 270.858955 
L 182.559427 276.447593 
L 188.488181 280.321041 
L 195.353406 282.059552 
L 202.411148 281.474731 
L 208.896591 278.629952 
L 214.106936 273.833491 
L 217.477562 267.60512 
L 218.643209 260.619778 
" style="fill:none;stroke:#000000;stroke-dasharray:5.55,2.4;stroke-dashoffset:0;stroke-width:1.5;"/>
   </g>
   <g id="line2d_64">
    <path clip-path="url(#p22e2e98e38)" d="M 203.046101 260.619778 
L 202.725548 258.698809 
L 201.798626 256.986007 
L 200.365781 255.66698 
L 198.582284 254.884666 
L 196.641405 254.72384 
L 194.753468 255.20193 
L 193.123061 256.267129 
L 191.926863 257.804004 
L 191.2945 259.646013 
L 191.2945 261.593543 
L 191.926863 263.435551 
L 193.123061 264.972427 
L 194.753468 266.037625 
L 196.641405 266.515716 
L 198.582284 266.35489 
L 200.365781 265.572576 
L 201.798626 264.253549 
L 202.725548 262.540747 
L 203.046101 260.619778 
" style="fill:none;stroke:#ff0000;stroke-linecap:square;stroke-width:1.5;"/>
   </g>
   <g id="line2d_65">
    <path clip-path="url(#p22e2e98e38)" d="M 262.930588 128.804323 
L 261.764941 121.818981 
L 258.394314 115.590609 
L 253.183969 110.794149 
L 246.698526 107.94937 
L 239.640785 107.364549 
L 232.77556 109.10306 
L 226.846805 112.976508 
L 222.496994 118.565146 
L 220.197495 125.263358 
L 220.197495 132.345288 
L 222.496994 139.0435 
L 226.846805 144.632138 
L 232.77556 148.505586 
L 239.640785 150.244097 
L 246.698526 149.659276 
L 253.183969 146.814497 
L 258.394314 142.018036 
L 261.764941 135.789665 
L 262.930588 128.804323 
" style="fill:none;stroke:#000000;stroke-dasharray:5.55,2.4;stroke-dashoffset:0;stroke-width:1.5;"/>
   </g>
   <g id="line2d_66">
    <path clip-path="url(#p22e2e98e38)" d="M 247.33348 128.804323 
L 247.012927 126.883354 
L 246.086004 125.170552 
L 244.653159 123.851525 
L 242.869663 123.069211 
L 240.928784 122.908385 
L 239.040847 123.386476 
L 237.410439 124.451674 
L 236.214241 125.988549 
L 235.581879 127.830558 
L 235.581879 129.778088 
L 236.214241 131.620097 
L 237.410439 133.156972 
L 239.040847 134.22217 
L 240.928784 134.700261 
L 242.869663 134.539435 
L 244.653159 133.757121 
L 246.086004 132.438094 
L 247.012927 130.725292 
L 247.33348 128.804323 
" style="fill:none;stroke:#ff0000;stroke-linecap:square;stroke-width:1.5;"/>
   </g>
   <g id="line2d_67">
    <path clip-path="url(#p22e2e98e38)" d="M 384.59444 419.348536 
L 383.428792 412.363194 
L 380.058166 406.134822 
L 374.847821 401.338361 
L 368.362378 398.493582 
L 361.304637 397.908761 
L 354.439412 399.647272 
L 348.510657 403.520721 
L 344.160846 409.109359 
L 341.861347 415.807571 
L 341.861347 422.889501 
L 344.160846 429.587712 
L 348.510657 435.17635 
L 354.439412 439.049799 
L 361.304637 440.78831 
L 368.362378 440.203489 
L 374.847821 437.35871 
L 380.058166 432.562249 
L 383.428792 426.333878 
L 384.59444 419.348536 
" style="fill:none;stroke:#000000;stroke-dasharray:5.55,2.4;stroke-dashoffset:0;stroke-width:1.5;"/>
   </g>
   <g id="line2d_68">
    <path clip-path="url(#p22e2e98e38)" d="M 368.997331 419.348536 
L 368.676778 417.427567 
L 367.749856 415.714764 
L 366.317011 414.395738 
L 364.533514 413.613424 
L 362.592636 413.452598 
L 360.704699 413.930688 
L 359.074291 414.995887 
L 357.878093 416.532762 
L 357.245731 418.37477 
L 357.245731 420.322301 
L 357.878093 422.164309 
L 359.074291 423.701185 
L 360.704699 424.766383 
L 362.592636 425.244474 
L 364.533514 425.083648 
L 366.317011 424.301334 
L 367.749856 422.982307 
L 368.676778 421.269505 
L 368.997331 419.348536 
" style="fill:none;stroke:#ff0000;stroke-linecap:square;stroke-width:1.5;"/>
   </g>
   <g id="line2d_69">
    <path clip-path="url(#p22e2e98e38)" d="M 205.810191 393.054532 
L 204.644544 386.06919 
L 201.273918 379.840819 
L 196.063572 375.044358 
L 189.578129 372.199579 
L 182.520388 371.614758 
L 175.655163 373.353269 
L 169.726408 377.226718 
L 165.376597 382.815355 
L 163.077098 389.513567 
L 163.077098 396.595497 
L 165.376597 403.293709 
L 169.726408 408.882347 
L 175.655163 412.755795 
L 182.520388 414.494307 
L 189.578129 413.909485 
L 196.063572 411.064706 
L 201.273918 406.268246 
L 204.644544 400.039874 
L 205.810191 393.054532 
" style="fill:none;stroke:#000000;stroke-dasharray:5.55,2.4;stroke-dashoffset:0;stroke-width:1.5;"/>
   </g>
   <g id="line2d_70">
    <path clip-path="url(#p22e2e98e38)" d="M 190.213083 393.054532 
L 189.89253 391.133563 
L 188.965607 389.420761 
L 187.532762 388.101734 
L 185.749266 387.31942 
L 183.808387 387.158594 
L 181.92045 387.636685 
L 180.290042 388.701883 
L 179.093844 390.238759 
L 178.461482 392.080767 
L 178.461482 394.028298 
L 179.093844 395.870306 
L 180.290042 397.407181 
L 181.92045 398.47238 
L 183.808387 398.95047 
L 185.749266 398.789644 
L 187.532762 398.00733 
L 188.965607 396.688303 
L 189.89253 394.975501 
L 190.213083 393.054532 
" style="fill:none;stroke:#ff0000;stroke-linecap:square;stroke-width:1.5;"/>
   </g>
   <g id="line2d_71">
    <path clip-path="url(#p22e2e98e38)" d="M 471.467078 318.569899 
L 470.301431 311.584558 
L 466.930805 305.356186 
L 461.720459 300.559725 
L 455.235017 297.714946 
L 448.177275 297.130125 
L 441.31205 298.868636 
L 435.383296 302.742085 
L 431.033484 308.330723 
L 428.733985 315.028934 
L 428.733985 322.110864 
L 431.033484 328.809076 
L 435.383296 334.397714 
L 441.31205 338.271163 
L 448.177275 340.009674 
L 455.235017 339.424853 
L 461.720459 336.580074 
L 466.930805 331.783613 
L 470.301431 325.555241 
L 471.467078 318.569899 
" style="fill:none;stroke:#000000;stroke-dasharray:5.55,2.4;stroke-dashoffset:0;stroke-width:1.5;"/>
   </g>
   <g id="line2d_72">
    <path clip-path="url(#p22e2e98e38)" d="M 455.86997 318.569899 
L 455.549417 316.64893 
L 454.622495 314.936128 
L 453.18965 313.617101 
L 451.406153 312.834787 
L 449.465274 312.673961 
L 447.577337 313.152052 
L 445.94693 314.21725 
L 444.750731 315.754126 
L 444.118369 317.596134 
L 444.118369 319.543665 
L 444.750731 321.385673 
L 445.94693 322.922548 
L 447.577337 323.987747 
L 449.465274 324.465837 
L 451.406153 324.305012 
L 453.18965 323.522697 
L 454.622495 322.203671 
L 455.549417 320.490868 
L 455.86997 318.569899 
" style="fill:none;stroke:#ff0000;stroke-linecap:square;stroke-width:1.5;"/>
   </g>
   <g id="line2d_73">
    <path clip-path="url(#p22e2e98e38)" d="M 315.702626 192.799949 
L 314.536979 185.814607 
L 311.166353 179.586235 
L 305.956008 174.789774 
L 299.470565 171.944995 
L 292.412823 171.360174 
L 285.547598 173.098685 
L 279.618844 176.972134 
L 275.269032 182.560772 
L 272.969533 189.258984 
L 272.969533 196.340914 
L 275.269032 203.039125 
L 279.618844 208.627763 
L 285.547598 212.501212 
L 292.412823 214.239723 
L 299.470565 213.654902 
L 305.956008 210.810123 
L 311.166353 206.013662 
L 314.536979 199.78529 
L 315.702626 192.799949 
" style="fill:none;stroke:#000000;stroke-dasharray:5.55,2.4;stroke-dashoffset:0;stroke-width:1.5;"/>
   </g>
   <g id="line2d_74">
    <path clip-path="url(#p22e2e98e38)" d="M 300.105518 192.799949 
L 299.784965 190.87898 
L 298.858043 189.166177 
L 297.425198 187.847151 
L 295.641701 187.064837 
L 293.700822 186.904011 
L 291.812885 187.382101 
L 290.182478 188.4473 
L 288.98628 189.984175 
L 288.353917 191.826183 
L 288.353917 193.773714 
L 288.98628 195.615722 
L 290.182478 197.152598 
L 291.812885 198.217796 
L 293.700822 198.695887 
L 295.641701 198.535061 
L 297.425198 197.752747 
L 298.858043 196.43372 
L 299.784965 194.720918 
L 300.105518 192.799949 
" style="fill:none;stroke:#ff0000;stroke-linecap:square;stroke-width:1.5;"/>
   </g>
   <g id="line2d_75">
    <path clip-path="url(#p22e2e98e38)" d="M 380.809425 236.420336 
L 379.643778 229.434994 
L 376.273151 223.206622 
L 371.062806 218.410162 
L 364.577363 215.565383 
L 357.519622 214.980562 
L 350.654397 216.719073 
L 344.725642 220.592521 
L 340.375831 226.181159 
L 338.076332 232.879371 
L 338.076332 239.961301 
L 340.375831 246.659513 
L 344.725642 252.248151 
L 350.654397 256.121599 
L 357.519622 257.86011 
L 364.577363 257.275289 
L 371.062806 254.43051 
L 376.273151 249.634049 
L 379.643778 243.405678 
L 380.809425 236.420336 
" style="fill:none;stroke:#000000;stroke-dasharray:5.55,2.4;stroke-dashoffset:0;stroke-width:1.5;"/>
   </g>
   <g id="line2d_76">
    <path clip-path="url(#p22e2e98e38)" d="M 365.212316 236.420336 
L 364.891763 234.499367 
L 363.964841 232.786565 
L 362.531996 231.467538 
L 360.7485 230.685224 
L 358.807621 230.524398 
L 356.919684 231.002489 
L 355.289276 232.067687 
L 354.093078 233.604562 
L 353.460716 235.446571 
L 353.460716 237.394101 
L 354.093078 239.23611 
L 355.289276 240.772985 
L 356.919684 241.838183 
L 358.807621 242.316274 
L 360.7485 242.155448 
L 362.531996 241.373134 
L 363.964841 240.054107 
L 364.891763 238.341305 
L 365.212316 236.420336 
" style="fill:none;stroke:#ff0000;stroke-linecap:square;stroke-width:1.5;"/>
   </g>
   <g id="line2d_77">
    <path clip-path="url(#p22e2e98e38)" d="M 329.464739 271.384084 
L 328.299092 264.398742 
L 324.928466 258.17037 
L 319.71812 253.373909 
L 313.232678 250.52913 
L 306.174936 249.944309 
L 299.309711 251.68282 
L 293.380956 255.556269 
L 289.031145 261.144907 
L 286.731646 267.843118 
L 286.731646 274.925049 
L 289.031145 281.62326 
L 293.380956 287.211898 
L 299.309711 291.085347 
L 306.174936 292.823858 
L 313.232678 292.239037 
L 319.71812 289.394258 
L 324.928466 284.597797 
L 328.299092 278.369425 
L 329.464739 271.384084 
" style="fill:none;stroke:#000000;stroke-dasharray:5.55,2.4;stroke-dashoffset:0;stroke-width:1.5;"/>
   </g>
   <g id="line2d_78">
    <path clip-path="url(#p22e2e98e38)" d="M 313.867631 271.384084 
L 313.547078 269.463115 
L 312.620156 267.750312 
L 311.187311 266.431286 
L 309.403814 265.648971 
L 307.462935 265.488146 
L 305.574998 265.966236 
L 303.944591 267.031434 
L 302.748392 268.56831 
L 302.11603 270.410318 
L 302.11603 272.357849 
L 302.748392 274.199857 
L 303.944591 275.736733 
L 305.574998 276.801931 
L 307.462935 277.280021 
L 309.403814 277.119196 
L 311.187311 276.336881 
L 312.620156 275.017855 
L 313.547078 273.305053 
L 313.867631 271.384084 
" style="fill:none;stroke:#ff0000;stroke-linecap:square;stroke-width:1.5;"/>
   </g>
   <g id="line2d_79">
    <path clip-path="url(#p22e2e98e38)" d="M 295.662498 324.164464 
L 294.496851 317.179122 
L 291.126224 310.95075 
L 285.915879 306.154289 
L 279.430436 303.30951 
L 272.372695 302.724689 
L 265.50747 304.4632 
L 259.578715 308.336649 
L 255.228904 313.925287 
L 252.929405 320.623499 
L 252.929405 327.705429 
L 255.228904 334.40364 
L 259.578715 339.992278 
L 265.50747 343.865727 
L 272.372695 345.604238 
L 279.430436 345.019417 
L 285.915879 342.174638 
L 291.126224 337.378177 
L 294.496851 331.149805 
L 295.662498 324.164464 
" style="fill:none;stroke:#000000;stroke-dasharray:5.55,2.4;stroke-dashoffset:0;stroke-width:1.5;"/>
   </g>
   <g id="line2d_80">
    <path clip-path="url(#p22e2e98e38)" d="M 280.06539 324.164464 
L 279.744837 322.243495 
L 278.817914 320.530692 
L 277.385069 319.211666 
L 275.601573 318.429351 
L 273.660694 318.268526 
L 271.772757 318.746616 
L 270.142349 319.811815 
L 268.946151 321.34869 
L 268.313789 323.190698 
L 268.313789 325.138229 
L 268.946151 326.980237 
L 270.142349 328.517113 
L 271.772757 329.582311 
L 273.660694 330.060402 
L 275.601573 329.899576 
L 277.385069 329.117261 
L 278.817914 327.798235 
L 279.744837 326.085433 
L 280.06539 324.164464 
" style="fill:none;stroke:#ff0000;stroke-linecap:square;stroke-width:1.5;"/>
   </g>
   <g id="line2d_81">
    <path clip-path="url(#p22e2e98e38)" d="M 161.087896 370.53454 
L 159.922249 363.549198 
L 156.551623 357.320826 
L 151.341277 352.524365 
L 144.855835 349.679586 
L 137.798093 349.094765 
L 130.932868 350.833276 
L 125.004114 354.706725 
L 120.654302 360.295363 
L 118.354803 366.993574 
L 118.354803 374.075505 
L 120.654302 380.773716 
L 125.004114 386.362354 
L 130.932868 390.235803 
L 137.798093 391.974314 
L 144.855835 391.389493 
L 151.341277 388.544714 
L 156.551623 383.748253 
L 159.922249 377.519881 
L 161.087896 370.53454 
" style="fill:none;stroke:#000000;stroke-dasharray:5.55,2.4;stroke-dashoffset:0;stroke-width:1.5;"/>
   </g>
   <g id="line2d_82">
    <path clip-path="url(#p22e2e98e38)" d="M 145.490788 370.53454 
L 145.170235 368.613571 
L 144.243313 366.900768 
L 142.810468 365.581742 
L 141.026971 364.799427 
L 139.086092 364.638602 
L 137.198155 365.116692 
L 135.567748 366.18189 
L 134.371549 367.718766 
L 133.739187 369.560774 
L 133.739187 371.508305 
L 134.371549 373.350313 
L 135.567748 374.887189 
L 137.198155 375.952387 
L 139.086092 376.430477 
L 141.026971 376.269652 
L 142.810468 375.487337 
L 144.243313 374.168311 
L 145.170235 372.455509 
L 145.490788 370.53454 
" style="fill:none;stroke:#ff0000;stroke-linecap:square;stroke-width:1.5;"/>
   </g>
   <g id="line2d_83">
    <path clip-path="url(#p22e2e98e38)" d="M 217.572095 386.350617 
L 216.406447 379.365276 
L 213.035821 373.136904 
L 207.825476 368.340443 
L 201.340033 365.495664 
L 194.282291 364.910843 
L 187.417066 366.649354 
L 181.488312 370.522803 
L 177.1385 376.111441 
L 174.839001 382.809652 
L 174.839001 389.891583 
L 177.1385 396.589794 
L 181.488312 402.178432 
L 187.417066 406.051881 
L 194.282291 407.790392 
L 201.340033 407.205571 
L 207.825476 404.360792 
L 213.035821 399.564331 
L 216.406447 393.335959 
L 217.572095 386.350617 
" style="fill:none;stroke:#000000;stroke-dasharray:5.55,2.4;stroke-dashoffset:0;stroke-width:1.5;"/>
   </g>
   <g id="line2d_84">
    <path clip-path="url(#p22e2e98e38)" d="M 201.974986 386.350617 
L 201.654433 384.429648 
L 200.727511 382.716846 
L 199.294666 381.39782 
L 197.511169 380.615505 
L 195.57029 380.45468 
L 193.682353 380.93277 
L 192.051946 381.997968 
L 190.855748 383.534844 
L 190.223385 385.376852 
L 190.223385 387.324383 
L 190.855748 389.166391 
L 192.051946 390.703266 
L 193.682353 391.768465 
L 195.57029 392.246555 
L 197.511169 392.08573 
L 199.294666 391.303415 
L 200.727511 389.984389 
L 201.654433 388.271586 
L 201.974986 386.350617 
" style="fill:none;stroke:#ff0000;stroke-linecap:square;stroke-width:1.5;"/>
   </g>
   <g id="line2d_85">
    <path clip-path="url(#p22e2e98e38)" d="M 389.437758 430.264298 
L 388.272111 423.278956 
L 384.901484 417.050585 
L 379.691139 412.254124 
L 373.205696 409.409345 
L 366.147955 408.824524 
L 359.28273 410.563035 
L 353.353975 414.436483 
L 349.004164 420.025121 
L 346.704665 426.723333 
L 346.704665 433.805263 
L 349.004164 440.503475 
L 353.353975 446.092113 
L 359.28273 449.965561 
L 366.147955 451.704072 
L 373.205696 451.119251 
L 379.691139 448.274472 
L 384.901484 443.478012 
L 388.272111 437.24964 
L 389.437758 430.264298 
" style="fill:none;stroke:#000000;stroke-dasharray:5.55,2.4;stroke-dashoffset:0;stroke-width:1.5;"/>
   </g>
   <g id="line2d_86">
    <path clip-path="url(#p22e2e98e38)" d="M 373.840649 430.264298 
L 373.520096 428.343329 
L 372.593174 426.630527 
L 371.160329 425.3115 
L 369.376833 424.529186 
L 367.435954 424.36836 
L 365.548017 424.846451 
L 363.917609 425.911649 
L 362.721411 427.448525 
L 362.089049 429.290533 
L 362.089049 431.238064 
L 362.721411 433.080072 
L 363.917609 434.616947 
L 365.548017 435.682146 
L 367.435954 436.160236 
L 369.376833 435.99941 
L 371.160329 435.217096 
L 372.593174 433.898069 
L 373.520096 432.185267 
L 373.840649 430.264298 
" style="fill:none;stroke:#ff0000;stroke-linecap:square;stroke-width:1.5;"/>
   </g>
   <g id="line2d_87">
    <path clip-path="url(#p22e2e98e38)" d="M 98.891566 487.188434 
L 98.891566 94.571566 
" style="fill:none;stroke:#000000;stroke-linecap:square;stroke-width:4;"/>
   </g>
   <g id="line2d_88">
    <path clip-path="url(#p22e2e98e38)" d="M 98.891566 94.571566 
L 491.508434 94.571566 
" style="fill:none;stroke:#000000;stroke-linecap:square;stroke-width:4;"/>
   </g>
   <g id="line2d_89">
    <path clip-path="url(#p22e2e98e38)" d="M 491.508434 94.571566 
L 491.508434 487.188434 
" style="fill:none;stroke:#000000;stroke-linecap:square;stroke-width:4;"/>
   </g>
   <g id="line2d_90">
    <path clip-path="url(#p22e2e98e38)" d="M 491.508434 487.188434 
L 98.891566 487.188434 
" style="fill:none;stroke:#000000;stroke-linecap:square;stroke-width:4;"/>
   </g>
   <g id="line2d_91">
    <path clip-path="url(#p22e2e98e38)" d="M 332.848193 302.819855 
L 332.63306 302.873639 
L 332.471711 303.034988 
L 332.471711 303.034988 
L 332.63306 302.443373 
L 332.63306 301.582843 
L 332.417928 300.399614 
L 331.826313 298.78612 
L 330.804434 297.118843 
L 329.406072 295.559133 
L 324.296675 291.310265 
L 322.683181 289.535422 
L 321.553735 288.029494 
L 320.155373 285.770602 
L 320.26294 285.340337 
L 320.478072 285.178988 
L 320.746988 285.125205 
L 321.715084 285.071422 
L 323.113446 285.340337 
L 324.673157 285.931952 
L 326.071518 286.953831 
L 326.071518 287.222747 
L 325.910169 287.545446 
L 325.210988 288.405976 
L 324.350458 288.513542 
L 323.543711 288.405976 
L 322.84453 288.13706 
L 322.199133 287.760578 
L 321.768867 287.27653 
L 321.822651 286.577349 
L 322.306699 285.071422 
L 323.597494 283.027663 
L 325.157205 281.467952 
L 326.878265 280.392289 
L 329.083373 279.693108 
L 331.234699 279.477976 
L 333.762506 279.639325 
L 333.65494 279.639325 
L 333.439807 279.854458 
L 333.49359 279.639325 
L 333.708723 279.101494 
L 333.762506 278.34853 
L 333.65494 277.380434 
L 333.224675 276.304771 
L 332.149012 274.74506 
L 328.706892 271.249157 
L 328.222843 270.549976 
L 327.953928 269.850795 
L 327.846361 269.205398 
L 328.061494 267.860819 
L 328.437976 267.591904 
L 329.02959 267.69947 
L 330.212819 268.237301 
L 331.93388 269.474313 
L 333.439807 271.034024 
L 334.461687 272.486169 
L 335.107084 273.615614 
L 335.483566 274.960193 
L 335.214651 275.336675 
L 334.891952 275.444241 
L 334.300337 275.498024 
L 333.439807 275.444241 
L 332.471711 275.229108 
L 331.503614 274.74506 
L 330.696867 274.099663 
L 329.674988 272.755084 
L 329.406072 271.840771 
L 329.89012 271.410506 
L 330.696867 271.195373 
L 331.826313 271.195373 
L 332.901976 271.410506 
L 333.762506 271.786988 
L 334.569253 272.324819 
L 335.591133 273.561831 
L 335.483566 273.938313 
L 335.160867 274.207229 
L 334.569253 274.422361 
L 332.79441 274.691277 
L 330.481735 274.852627 
L 329.244723 275.175325 
L 328.437976 275.551807 
L 327.577446 276.412337 
L 327.30853 277.326651 
L 327.30853 277.810699 
L 327.46988 278.50988 
L 327.792578 279.316627 
L 329.674988 281.898217 
L 329.997687 282.704964 
L 329.943904 283.888193 
L 329.621205 284.641157 
L 329.244723 285.232771 
L 328.653108 285.824386 
L 327.792578 286.362217 
L 326.770699 286.792482 
L 324.458024 287.330313 
L 322.360482 287.653012 
L 320.531855 288.083277 
L 319.187277 288.782458 
L 318.54188 289.427855 
L 317.304867 291.095133 
L 316.014072 292.76241 
L 315.207325 293.354024 
L 314.293012 293.784289 
L 313.163566 293.999422 
L 312.087904 293.999422 
L 310.797108 293.730506 
L 307.623904 292.547277 
L 306.548241 292.385928 
L 305.365012 292.493494 
L 304.343133 292.816193 
L 303.375036 293.354024 
L 302.353157 294.106988 
L 301.116145 294.806169 
L 300.201831 295.128867 
L 299.448867 295.236434 
L 298.480771 295.128867 
L 297.566458 294.859952 
L 296.598361 294.375904 
L 295.415133 293.354024 
L 294.33947 291.794313 
L 293.371373 289.535422 
L 292.45706 284.856289 
L 291.919229 282.920096 
L 291.220048 281.09147 
L 290.574651 280.015807 
L 289.606554 278.940145 
L 287.724145 277.488 
L 285.895518 276.573687 
L 283.52906 276.035855 
L 281.162602 275.982072 
L 278.796145 275.76694 
L 276.644819 275.282892 
L 274.923759 274.583711 
L 273.364048 273.508048 
L 271.85812 272.00212 
L 270.405976 269.797012 
L 269.599229 267.753253 
L 268.200867 263.289253 
L 267.286554 261.406843 
L 265.941976 259.416867 
L 264.382265 257.480675 
L 261.316627 254.30747 
L 259.864482 252.962892 
L 258.250988 251.779663 
L 256.422361 250.704 
L 252.334843 248.660241 
L 250.506217 247.530795 
L 248.83894 246.078651 
L 247.279229 243.981108 
L 246.311133 242.044916 
L 244.643855 237.688482 
L 243.51441 235.537157 
L 239.480675 229.567229 
L 238.351229 227.254554 
L 236.899084 222.736771 
L 236.14612 220.370313 
L 234.58641 216.444145 
L 233.618313 214.507952 
L 231.574554 209.882602 
L 229.10053 203.159711 
L 220.871711 183.259952 
L 218.29012 176.967325 
L 216.085012 171.696578 
L 213.288289 164.704771 
L 211.621012 160.724819 
L 209.738602 156.09947 
L 209.738602 156.09947 
" style="fill:none;stroke:#8000ff;stroke-linecap:square;stroke-width:1.5;"/>
   </g>
   <g id="line2d_92">
    <path clip-path="url(#p22e2e98e38)" d="M 398.248482 211.711229 
L 398.463614 211.818795 
L 398.840096 212.087711 
L 399.485494 212.786892 
L 400.130892 214.023904 
L 400.668723 215.960096 
L 400.722506 218.487904 
L 400.346024 220.693012 
L 399.539277 222.844337 
L 397.549301 226.985639 
L 396.903904 228.975614 
L 396.527422 231.395855 
L 396.043373 236.074988 
L 395.559325 238.549012 
L 394.806361 240.969253 
L 393.246651 245.37947 
L 392.601253 247.745928 
L 390.933976 256.942843 
L 389.266699 263.127904 
L 388.836434 265.225446 
L 388.675084 267.000289 
L 388.728867 268.882699 
L 388.997783 270.549976 
L 390.181012 274.798843 
L 390.557494 277.326651 
L 390.449928 279.531759 
L 389.80453 282.059566 
L 388.08347 286.631133 
L 387.491855 288.99759 
L 387.115373 291.471614 
L 386.900241 293.945639 
L 386.577542 296.096964 
L 386.093494 298.248289 
L 385.34053 300.66853 
L 383.780819 304.702265 
L 382.974072 307.068723 
L 381.844627 311.532723 
L 380.607614 316.426988 
L 377.757108 325.677687 
L 376.842795 329.818988 
L 375.498217 337.24106 
L 374.906602 339.715084 
L 374.099855 342.135325 
L 373.293108 344.179084 
L 371.141783 348.374169 
L 369.151807 351.762506 
L 367.161831 355.527325 
L 365.333205 360.152675 
L 363.773494 364.939373 
L 361.729735 371.769831 
L 360.492723 376.287614 
L 357.857349 386.667759 
L 356.028723 393.283084 
L 354.791711 397.263036 
L 354.038747 399.091663 
L 353.232 400.543807 
L 352.37147 401.727036 
L 351.51094 402.426217 
L 350.273928 403.071614 
L 348.714217 403.448096 
L 346.724241 403.555663 
L 340.377831 402.964048 
L 338.011373 403.232964 
L 336.774361 403.770795 
L 336.128964 404.36241 
L 335.429783 405.384289 
L 334.838169 406.944 
L 334.569253 408.718843 
L 334.676819 411.085301 
L 335.214651 413.397976 
L 335.860048 415.441735 
L 336.505446 418.077108 
L 336.613012 420.336 
L 336.290313 422.541108 
L 335.644916 424.692434 
L 334.085205 428.672386 
L 333.708723 431.038843 
L 333.762506 433.136386 
L 334.246554 435.072578 
L 335.053301 437.439036 
L 335.752482 439.91306 
L 336.182747 442.064386 
L 336.290313 444.323277 
L 336.23653 449.056193 
L 336.344096 451.153735 
L 336.720578 453.197494 
L 338.11894 457.177446 
L 339.087036 459.436337 
L 339.087036 459.436337 
" style="fill:none;stroke:#376ff9;stroke-linecap:square;stroke-width:1.5;"/>
   </g>
   <g id="line2d_93">
    <path clip-path="url(#p22e2e98e38)" d="M 133.527904 247.10053 
L 135.894361 247.208096 
L 138.422169 247.907277 
L 140.089446 248.767807 
L 142.079422 250.219952 
L 143.908048 251.779663 
L 145.629108 252.855325 
L 147.834217 253.662072 
L 150.039325 254.038554 
L 152.244434 254.199904 
L 154.610892 254.576386 
L 156.708434 255.383133 
L 158.644627 256.566361 
L 162.409446 259.309301 
L 164.238072 260.277398 
L 166.228048 260.869012 
L 170.530699 261.837108 
L 172.574458 262.643855 
L 174.779566 263.988434 
L 176.769542 265.709494 
L 178.167904 267.215422 
L 179.243566 268.721349 
L 179.781398 270.012145 
L 180.104096 271.679422 
L 180.104096 273.938313 
L 179.620048 276.46612 
L 178.974651 279.047711 
L 178.705735 280.714988 
L 178.759518 281.898217 
L 179.082217 283.027663 
L 179.727614 284.049542 
L 181.179759 285.609253 
L 182.900819 286.738699 
L 185.105928 287.599229 
L 189.892627 288.513542 
L 192.366651 289.266506 
L 194.625542 290.611084 
L 196.346602 292.063229 
L 197.798747 293.46159 
L 199.788723 294.806169 
L 202.047614 295.666699 
L 204.306506 296.043181 
L 208.824289 296.473446 
L 210.975614 297.06506 
L 213.342072 298.248289 
L 217.42959 300.66853 
L 219.688482 301.636627 
L 223.829783 302.658506 
L 226.303807 303.196337 
L 228.724048 303.949301 
L 233.349398 305.939277 
L 235.339373 306.799807 
L 239.319325 308.251952 
L 243.783325 309.59653 
L 248.193542 311.156241 
L 254.916434 313.845398 
L 255.561831 314.168096 
L 255.669398 314.759711 
L 255.185349 315.297542 
L 254.378602 315.889157 
L 253.356723 316.319422 
L 252.119711 316.588337 
L 250.344867 316.534554 
L 250.452434 316.480771 
L 250.56 316.319422 
L 250.56 316.211855 
L 250.667566 316.749687 
L 250.936482 317.287518 
L 251.904578 318.363181 
L 253.356723 319.653976 
L 253.410506 319.869108 
L 253.356723 320.138024 
L 253.195373 320.40694 
L 252.711325 320.944771 
L 251.958361 321.482602 
L 251.259181 321.805301 
L 249.807036 322.128 
L 249.914602 322.074217 
L 250.022169 321.805301 
L 250.022169 321.912867 
L 250.183518 322.827181 
L 250.936482 324.333108 
L 251.743229 325.839036 
L 251.689446 326.054169 
L 251.528096 326.430651 
L 251.097831 326.968482 
L 249.914602 327.829012 
L 247.870843 328.797108 
L 247.97841 328.635759 
L 247.97841 328.528193 
L 248.032193 328.797108 
L 248.462458 329.818988 
L 249.376771 330.733301 
L 250.828916 331.970313 
L 250.882699 332.454361 
L 250.291084 333.261108 
L 249.53812 333.852723 
L 247.924627 334.551904 
L 247.225446 334.820819 
L 247.333012 334.713253 
L 247.386795 334.49812 
L 247.386795 334.713253 
L 247.763277 335.627566 
L 248.83894 337.025928 
L 249.807036 338.155373 
L 250.398651 339.177253 
L 250.452434 340.414265 
L 250.183518 341.274795 
L 249.753253 342.027759 
L 249.161639 342.834506 
L 247.279229 344.609349 
L 247.333012 344.501783 
L 247.279229 345.362313 
L 247.386795 345.792578 
L 247.709494 346.545542 
L 248.193542 347.19094 
L 249.054072 347.997687 
L 251.205398 349.288482 
L 252.173494 349.826313 
L 253.14159 350.63306 
L 253.894554 351.65494 
L 254.486169 353.053301 
L 254.755084 354.666795 
L 254.701301 359.023229 
L 254.916434 360.367807 
L 255.239133 361.120771 
L 255.723181 361.873735 
L 256.637494 362.734265 
L 257.820723 363.433446 
L 259.380434 363.917494 
L 261.20906 364.02506 
L 265.941976 364.132627 
L 267.824386 364.509108 
L 270.190843 365.477205 
L 272.449735 366.875566 
L 274.385928 368.273928 
L 276.214554 369.242024 
L 278.20453 369.887422 
L 280.570988 370.102554 
L 282.614747 369.994988 
L 284.38959 369.726072 
L 286.971181 369.564723 
L 289.498988 369.726072 
L 296.544578 371.070651 
L 298.64212 371.232 
L 303.643952 371.016867 
L 305.472578 370.963084 
L 308.000386 371.016867 
L 309.990361 371.178217 
L 314.508145 371.984964 
L 316.390554 372.791711 
L 316.982169 373.275759 
L 317.573783 374.082506 
L 318.111614 375.265735 
L 318.434313 376.610313 
L 318.434313 380.052434 
L 318.326747 382.203759 
L 318.38053 383.978602 
L 318.54188 384.892916 
L 319.079711 385.807229 
L 319.617542 386.34506 
L 320.370506 386.829108 
L 321.553735 387.313157 
L 325.802602 387.850988 
L 327.30853 388.388819 
L 328.760675 389.249349 
L 330.696867 390.916627 
L 333.332241 394.41253 
L 334.461687 395.595759 
L 335.591133 396.348723 
L 336.989494 396.886554 
L 338.97947 397.263036 
L 340.969446 397.209253 
L 345.809928 396.725205 
L 348.015036 396.671422 
L 352.317687 397.047904 
L 354.845494 397.101687 
L 356.67412 396.778988 
L 358.771663 395.864675 
L 360.43894 394.627663 
L 363.558361 391.454458 
L 365.60212 389.894747 
L 367.64588 388.980434 
L 369.850988 388.442602 
L 372.002313 388.335036 
L 376.251181 388.388819 
L 378.348723 388.06612 
L 380.661398 387.36694 
L 385.125398 385.699663 
L 387.599422 385.054265 
L 389.428048 384.839133 
L 392.009639 384.785349 
L 396.688771 385.108048 
L 399.162795 385.376964 
L 403.411663 385.48453 
L 405.509205 385.323181 
L 407.929446 384.946699 
L 410.349687 384.408867 
L 416.534747 382.634024 
L 420.944964 381.128096 
L 424.494651 379.568386 
L 428.313253 377.632193 
L 430.518361 376.395181 
L 430.518361 376.395181 
" style="fill:none;stroke:#12c7e6;stroke-linecap:square;stroke-width:1.5;"/>
   </g>
   <g id="line2d_94">
    <path clip-path="url(#p22e2e98e38)" d="M 226.35759 225.80241 
L 227.110554 225.80241 
L 229.046747 226.017542 
L 231.574554 226.770506 
L 233.833446 228.115084 
L 235.715855 229.889928 
L 238.620145 233.923663 
L 240.072289 235.268241 
L 241.793349 236.45147 
L 245.396819 238.118747 
L 247.601928 239.355759 
L 249.53812 241.130602 
L 250.667566 242.582747 
L 252.926458 246.293783 
L 255.346699 250.273735 
L 259.326651 256.18988 
L 261.101494 258.394988 
L 262.822554 260.169831 
L 266.264675 263.23547 
L 269.868145 266.139759 
L 276.591036 271.464289 
L 282.130699 275.498024 
L 283.797976 276.896386 
L 285.465253 278.50988 
L 286.809831 280.123373 
L 287.885494 281.898217 
L 288.530892 283.565494 
L 288.85359 285.609253 
L 288.907373 290.127036 
L 289.122506 291.310265 
L 289.552771 292.224578 
L 290.467084 293.031325 
L 291.488964 293.407807 
L 293.102458 293.676723 
L 294.769735 293.46159 
L 298.265639 292.493494 
L 298.534554 292.708627 
L 299.126169 293.730506 
L 299.717783 295.720482 
L 300.68588 302.55094 
L 301.169928 303.734169 
L 302.138024 305.13253 
L 303.643952 306.530892 
L 305.042313 307.445205 
L 306.924723 308.305735 
L 311.066024 309.435181 
L 313.109783 310.349494 
L 315.207325 311.909205 
L 316.605687 313.415133 
L 319.348627 316.749687 
L 321.231036 318.255614 
L 323.436145 319.331277 
L 327.846361 320.890988 
L 330.159036 322.074217 
L 332.256578 323.526361 
L 335.752482 326.538217 
L 337.473542 327.775229 
L 339.624867 329.012241 
L 343.819952 331.056 
L 346.02506 332.239229 
L 349.951229 334.820819 
L 353.823614 337.40241 
L 367.914795 345.953928 
L 377.703325 352.138988 
L 378.29494 352.784386 
L 378.241157 353.107084 
L 377.972241 353.537349 
L 377.165494 354.290313 
L 375.713349 355.09706 
L 374.207422 355.634892 
L 370.980434 356.11894 
L 371.141783 355.95759 
L 371.249349 355.796241 
L 371.303133 356.656771 
L 371.518265 357.463518 
L 371.94853 358.216482 
L 372.647711 358.969446 
L 373.723373 359.883759 
L 375.874699 361.551036 
L 376.466313 362.250217 
L 376.789012 362.895614 
L 376.950361 363.648578 
L 377.004145 364.88559 
L 376.735229 366.337735 
L 375.767133 368.542843 
L 372.432578 373.598458 
L 372.002313 374.67412 
L 372.056096 375.211952 
L 372.271229 375.857349 
L 372.80906 376.771663 
L 373.615807 377.524627 
L 374.799036 378.27759 
L 376.896578 379.030554 
L 381.521928 379.783518 
L 384.049735 380.482699 
L 386.36241 381.719711 
L 388.352386 383.494554 
L 391.256675 387.151807 
L 392.708819 388.603952 
L 394.752578 389.894747 
L 397.01147 390.647711 
L 399.485494 390.916627 
L 403.788145 391.077976 
L 405.993253 391.400675 
L 408.090795 391.992289 
L 412.12453 393.552 
L 414.490988 394.251181 
L 416.534747 394.681446 
L 424.010602 395.649542 
L 428.635952 396.725205 
L 432.777253 397.854651 
L 439.76906 399.145446 
L 446.814651 400.59759 
L 453.107277 402.049735 
L 459.776386 403.34053 
L 462.25041 403.824578 
L 462.25041 403.824578 
" style="fill:none;stroke:#5bf9c7;stroke-linecap:square;stroke-width:1.5;"/>
   </g>
   <g id="line2d_95">
    <path clip-path="url(#p22e2e98e38)" d="M 400.668723 160.993735 
L 400.937639 161.101301 
L 401.045205 161.262651 
L 401.098988 161.531566 
L 400.937639 162.015614 
L 400.292241 163.037494 
L 399.324145 164.00559 
L 397.603084 165.188819 
L 395.182843 166.210699 
L 392.977735 166.587181 
L 390.503711 166.533398 
L 388.029687 166.318265 
L 385.663229 166.372048 
L 383.61947 166.694747 
L 378.241157 168.200675 
L 377.864675 167.931759 
L 377.810892 167.178795 
L 378.079807 165.726651 
L 379.047904 163.467759 
L 380.284916 161.585349 
L 382.221108 159.70294 
L 385.179181 157.121349 
L 385.071614 157.390265 
L 385.125398 157.659181 
L 384.964048 157.444048 
L 384.533783 157.013783 
L 383.780819 156.529735 
L 382.436241 156.045687 
L 380.822747 155.830554 
L 378.563855 155.991904 
L 376.57388 156.529735 
L 374.314988 157.336482 
L 372.593928 157.766747 
L 371.195566 157.928096 
L 370.335036 157.82053 
L 369.743422 157.605398 
L 368.882892 157.067566 
L 367.699663 155.884337 
L 366.516434 153.786795 
L 365.817253 151.63547 
L 365.386988 149.000096 
L 364.90294 146.794988 
L 364.526458 145.719325 
L 363.934843 145.020145 
L 363.558361 144.751229 
L 362.805398 144.374747 
L 361.944867 144.213398 
L 360.761639 144.213398 
L 359.41706 144.58988 
L 358.233831 145.181494 
L 356.996819 146.14959 
L 355.921157 147.547952 
L 355.11441 149.269012 
L 354.630361 150.828723 
L 353.931181 152.657349 
L 353.178217 154.001928 
L 352.532819 154.754892 
L 351.618506 155.507855 
L 350.112578 156.153253 
L 348.283952 156.529735 
L 345.648578 156.583518 
L 343.44347 156.09947 
L 339.517301 154.593542 
L 337.473542 154.21706 
L 335.214651 154.432193 
L 333.278458 155.023807 
L 331.77253 155.830554 
L 330.212819 157.013783 
L 328.276627 158.627277 
L 326.501783 159.810506 
L 324.458024 160.724819 
L 322.306699 161.262651 
L 317.735133 161.854265 
L 315.368675 162.392096 
L 313.378699 163.091277 
L 309.45253 164.812337 
L 307.086072 165.672867 
L 304.612048 166.264482 
L 299.932916 167.017446 
L 294.877301 167.447711 
L 292.349494 167.447711 
L 290.198169 167.232578 
L 283.045012 165.941783 
L 280.624771 165.834217 
L 278.20453 166.103133 
L 274.224578 167.232578 
L 271.750554 167.985542 
L 269.706795 168.415807 
L 267.824386 168.523373 
L 265.888193 168.254458 
L 263.952 167.501494 
L 262.123373 166.318265 
L 258.842602 163.252627 
L 258.143422 162.876145 
L 257.229108 162.661012 
L 255.992096 162.607229 
L 254.486169 162.822361 
L 253.249157 163.30641 
L 249.484337 165.135036 
L 248.731373 165.403952 
L 247.870843 165.565301 
L 245.07412 165.672867 
L 244.052241 165.941783 
L 243.084145 166.372048 
L 242.116048 167.017446 
L 241.040386 167.931759 
L 239.104193 170.136867 
L 238.136096 171.320096 
L 237.006651 172.449542 
L 235.608289 173.686554 
L 232.166169 175.999229 
L 228.186217 178.365687 
L 220.495229 183.044819 
L 216.192578 184.927229 
L 211.567229 186.809639 
L 207.049446 188.907181 
L 205.113253 189.875277 
L 155.95547 211.711229 
L 155.95547 211.711229 
" style="fill:none;stroke:#a4f99f;stroke-linecap:square;stroke-width:1.5;"/>
   </g>
   <g id="line2d_96">
    <path clip-path="url(#p22e2e98e38)" d="M 397.764434 318.954795 
L 397.441735 319.062361 
L 397.334169 319.223711 
L 397.387952 319.008578 
L 397.495518 318.363181 
L 397.441735 317.179952 
L 397.065253 315.566458 
L 395.98959 313.468916 
L 394.483663 311.640289 
L 392.601253 310.134361 
L 388.406169 308.251952 
L 386.20106 306.961157 
L 384.318651 305.13253 
L 382.866506 303.034988 
L 381.73706 301.152578 
L 380.500048 299.539084 
L 378.725205 297.92559 
L 376.896578 296.849928 
L 375.067952 295.935614 
L 373.239325 294.859952 
L 371.249349 293.138892 
L 369.689639 291.202699 
L 368.237494 289.212723 
L 366.570217 287.491663 
L 364.849157 286.362217 
L 362.912964 285.609253 
L 360.922988 285.125205 
L 358.55653 284.69494 
L 356.136289 283.83441 
L 354.361446 282.704964 
L 353.178217 281.521735 
L 352.317687 280.123373 
L 351.564723 278.187181 
L 351.242024 275.551807 
L 351.403373 272.970217 
L 351.833639 270.926458 
L 352.102554 268.775133 
L 351.994988 266.570024 
L 351.403373 264.526265 
L 350.65041 262.966554 
L 349.252048 261.245494 
L 347.423422 259.847133 
L 345.272096 258.717687 
L 341.023229 256.942843 
L 338.710554 255.705831 
L 337.204627 254.576386 
L 332.417928 249.951036 
L 331.127133 249.036723 
L 330.159036 248.606458 
L 329.352289 248.391325 
L 327.846361 248.445108 
L 326.125301 248.82159 
L 323.920193 249.735904 
L 320.26294 251.672096 
L 319.133494 251.994795 
L 317.950265 251.994795 
L 316.820819 251.72588 
L 314.93841 250.865349 
L 313.163566 249.574554 
L 311.442506 247.584578 
L 310.205494 245.37947 
L 309.344964 243.443277 
L 308.430651 241.776 
L 307.139855 240.162506 
L 305.526361 238.871711 
L 303.805301 237.957398 
L 301.761542 237.150651 
L 299.233735 235.967422 
L 297.189976 234.461494 
L 295.845398 232.848 
L 295.253783 231.772337 
L 294.877301 230.535325 
L 294.769735 228.921831 
L 294.984867 227.093205 
L 295.522699 225.479711 
L 296.329446 223.651084 
L 297.08241 221.661108 
L 297.297542 220.155181 
L 297.189976 218.918169 
L 296.867277 217.842506 
L 296.114313 216.605494 
L 295.307566 215.691181 
L 294.17812 214.938217 
L 293.210024 214.507952 
L 291.919229 214.239036 
L 290.682217 214.292819 
L 289.01494 214.669301 
L 286.003084 215.691181 
L 284.819855 215.85253 
L 284.013108 215.798747 
L 283.152578 215.583614 
L 282.023133 214.938217 
L 280.78612 213.808771 
L 279.387759 212.033928 
L 278.258313 209.721253 
L 277.290217 205.956434 
L 276.537253 204.235373 
L 275.730506 203.213494 
L 274.439711 202.137831 
L 272.342169 201.008386 
L 270.029494 200.362988 
L 267.770602 200.201639 
L 265.027663 200.362988 
L 262.284723 200.147855 
L 260.187181 199.556241 
L 257.928289 198.265446 
L 255.938313 196.598169 
L 254.486169 195.038458 
L 252.549976 193.371181 
L 250.452434 192.134169 
L 248.516241 191.488771 
L 246.149783 191.219855 
L 241.632 191.596337 
L 239.373108 191.381205 
L 237.705831 190.843373 
L 235.715855 189.660145 
L 233.941012 187.992867 
L 232.650217 186.32559 
L 231.036723 184.550747 
L 229.369446 183.367518 
L 227.540819 182.453205 
L 225.550843 181.969157 
L 221.03306 181.538892 
L 218.505253 180.785928 
L 216.56906 179.710265 
L 214.848 178.25812 
L 213.12694 176.375711 
L 211.567229 174.385735 
L 209.899952 172.557108 
L 208.340241 171.158747 
L 206.672964 169.814169 
L 205.05947 168.362024 
L 203.33841 166.425831 
L 202.155181 164.543422 
L 198.229012 156.475952 
L 196.13147 152.603566 
L 195.217157 150.667373 
L 193.442313 145.934458 
L 192.043952 141.84694 
L 189.462361 135.608096 
L 186.773205 128.938988 
L 185.159711 124.528771 
L 185.159711 124.528771 
" style="fill:none;stroke:#edc76f;stroke-linecap:square;stroke-width:1.5;"/>
   </g>
   <g id="line2d_97">
    <path clip-path="url(#p22e2e98e38)" d="M 243.084145 399.091663 
L 243.675759 399.091663 
L 245.181687 398.87653 
L 246.848964 398.338699 
L 248.785157 397.209253 
L 250.291084 395.810892 
L 251.474313 394.304964 
L 252.818892 392.207422 
L 254.109687 390.432578 
L 255.88453 388.550169 
L 257.928289 386.990458 
L 260.025831 385.64588 
L 262.123373 384.193735 
L 264.005783 382.580241 
L 265.457928 381.074313 
L 266.856289 379.514602 
L 268.308434 377.901108 
L 269.599229 376.610313 
L 271.212723 375.158169 
L 272.826217 373.706024 
L 274.76241 372.09253 
L 276.644819 370.425253 
L 278.258313 369.026892 
L 280.08694 367.305831 
L 281.754217 365.90747 
L 283.421494 364.562892 
L 285.196337 363.272096 
L 286.971181 362.035084 
L 289.068723 360.690506 
L 291.220048 359.345928 
L 292.994892 358.162699 
L 294.500819 357.194602 
L 296.22188 355.903807 
L 298.158072 354.39788 
L 299.502651 353.214651 
L 301.116145 351.816289 
L 302.998554 350.149012 
L 304.880964 348.481735 
L 306.70959 346.814458 
L 308.323084 345.30853 
L 309.829012 343.856386 
L 311.657639 342.081542 
L 313.432482 340.306699 
L 314.992193 338.800771 
L 316.49812 337.294843 
L 318.057831 335.788916 
L 319.617542 334.336771 
L 321.177253 332.830843 
L 322.952096 331.109783 
L 324.56559 329.603855 
L 326.394217 327.936578 
L 328.007711 326.484434 
L 329.943904 324.87094 
L 331.880096 323.257446 
L 333.870072 321.697735 
L 335.591133 320.460723 
L 337.365976 319.169928 
L 339.302169 317.610217 
L 341.184578 315.996723 
L 342.690506 314.490795 
L 344.357783 312.662169 
L 345.809928 310.994892 
L 347.584771 309.220048 
L 349.62853 307.660337 
L 351.941205 306.477108 
L 353.984964 305.777928 
L 356.351422 305.078747 
L 358.233831 304.272 
L 359.954892 303.142554 
L 361.729735 301.52906 
L 363.397012 299.646651 
L 364.849157 298.033157 
L 366.355084 296.473446 
L 367.968578 295.021301 
L 369.850988 293.354024 
L 371.572048 291.632964 
L 372.97041 290.01947 
L 374.476337 288.029494 
L 375.982265 286.039518 
L 377.27306 284.318458 
L 378.886554 282.328482 
L 380.553831 280.446072 
L 382.005976 278.832578 
L 383.673253 276.950169 
L 384.802699 275.60559 
L 386.36241 273.669398 
L 387.92212 271.733205 
L 389.266699 270.012145 
L 390.880193 268.075952 
L 392.278554 266.462458 
L 393.676916 264.795181 
L 395.29041 262.912771 
L 396.903904 260.976578 
L 398.302265 259.309301 
L 399.861976 257.373108 
L 401.47547 255.436916 
L 402.873831 253.769639 
L 404.21841 252.156145 
L 405.616771 250.488867 
" style="fill:none;stroke:#ff6f39;stroke-linecap:square;stroke-width:1.5;"/>
   </g>
   <g id="line2d_98">
    <path clip-path="url(#p22e2e98e38)" d="M 295.092434 122.10853 
L 295.361349 122.10853 
L 296.759711 122.592578 
L 297.620241 123.237976 
L 298.588337 124.313639 
L 299.233735 125.873349 
L 299.556434 127.863325 
L 299.341301 134.855133 
L 299.771566 137.275373 
L 300.416964 139.211566 
L 301.38506 141.578024 
L 302.191807 143.998265 
L 302.675855 146.526072 
L 302.890988 149.05388 
L 303.159904 153.733012 
L 303.536386 156.153253 
L 304.128 158.519711 
L 305.311229 162.714795 
L 306.225542 167.286361 
L 306.548241 169.437687 
L 307.086072 171.857928 
L 307.785253 174.009253 
L 308.484434 175.622747 
L 309.291181 176.967325 
L 310.151711 177.989205 
L 311.388723 178.903518 
L 313.109783 179.710265 
L 317.735133 180.947277 
L 319.778892 181.86159 
L 321.069687 182.72212 
L 322.199133 183.959133 
L 323.328578 185.949108 
L 324.027759 187.992867 
L 324.296675 190.144193 
L 324.404241 195.25359 
L 324.619373 197.404916 
L 325.157205 199.825157 
L 326.878265 206.010217 
L 327.254747 208.538024 
L 327.362313 213.27094 
L 327.577446 217.896289 
L 328.061494 221.607325 
L 328.491759 223.543518 
L 328.33041 223.382169 
L 328.706892 223.597301 
L 331.503614 224.565398 
L 332.364145 225.049446 
L 333.117108 225.694843 
L 333.708723 226.50159 
L 334.192771 227.469687 
L 335.483566 231.234506 
L 336.182747 232.686651 
L 338.334072 236.343904 
L 338.710554 237.688482 
L 338.764337 238.549012 
L 338.602988 239.624675 
L 337.850024 241.560867 
L 336.559229 243.49706 
L 335.268434 244.734072 
L 333.977639 245.540819 
L 333.816289 245.540819 
L 333.278458 245.325687 
L 332.310361 244.680289 
L 331.019566 243.443277 
L 329.728771 241.560867 
L 327.685012 236.29012 
L 327.738795 236.343904 
L 328.061494 236.397687 
L 328.16906 236.397687 
L 327.900145 236.505253 
L 327.416096 236.881735 
L 326.824482 237.527133 
L 326.286651 238.602795 
L 325.910169 239.89359 
L 325.856386 241.614651 
L 326.017735 243.120578 
L 326.770699 245.594602 
L 326.770699 245.594602 
L 326.824482 245.648386 
L 326.555566 245.487036 
L 326.878265 245.540819 
L 327.362313 245.487036 
L 328.437976 244.949205 
L 330.912 243.281928 
L 331.342265 243.604627 
L 331.77253 244.142458 
L 332.041446 244.787855 
L 332.256578 245.648386 
L 332.149012 247.046747 
L 331.718747 248.176193 
L 331.664964 248.176193 
L 331.664964 248.176193 
L 331.557398 249.198072 
L 331.718747 249.84347 
L 332.364145 251.026699 
L 335.752482 254.845301 
L 336.559229 256.351229 
L 338.441639 259.524434 
L 342.690506 265.064096 
L 343.658602 266.731373 
L 344.411566 268.291084 
L 345.863711 272.055904 
L 348.015036 278.778795 
L 349.144482 283.350361 
L 349.467181 285.878169 
L 349.682313 290.933783 
L 349.62853 298.08694 
L 349.359614 303.142554 
L 348.337735 312.447036 
L 347.853687 317.072386 
L 346.455325 328.797108 
L 345.756145 335.251084 
L 344.734265 343.802602 
L 343.497253 354.828145 
L 342.636723 361.927518 
L 342.636723 361.927518 
" style="fill:none;stroke:#ff0000;stroke-linecap:square;stroke-width:1.5;"/>
   </g>
   <g id="patch_3">
    <path d="M 72 512.64 
L 72 69.12 
" style="fill:none;stroke:#000000;stroke-linecap:square;stroke-linejoin:miter;stroke-width:0.8;"/>
   </g>
   <g id="patch_4">
    <path d="M 518.4 512.64 
L 518.4 69.12 
" style="fill:none;stroke:#000000;stroke-linecap:square;stroke-linejoin:miter;stroke-width:0.8;"/>
   </g>
   <g id="patch_5">
    <path d="M 72 512.64 
L 518.4 512.64 
" style="fill:none;stroke:#000000;stroke-linecap:square;stroke-linejoin:miter;stroke-width:0.8;"/>
   </g>
   <g id="patch_6">
    <path d="M 72 69.12 
L 518.4 69.12 
" style="fill:none;stroke:#000000;stroke-linecap:square;stroke-linejoin:miter;stroke-width:0.8;"/>
   </g>
   <g id="text_18">
    <!-- 1 -->
    <defs>
     <path d="M 14.203125 0 
L 14.203125 5.171875 
L 26.90625 5.171875 
L 26.90625 65.828125 
L 12.203125 56.296875 
L 12.203125 62.703125 
L 29.984375 74.21875 
L 36.71875 74.21875 
L 36.71875 5.171875 
L 49.421875 5.171875 
L 49.421875 0 
z
" id="DejaVuSerif-31"/>
    </defs>
    <g transform="translate(329.6858 302.819321)scale(0.1 -0.1)">
     <use xlink:href="#DejaVuSerif-31"/>
    </g>
   </g>
   <g id="text_19">
    <!-- 1 -->
    <g transform="translate(206.614761 156.220861)scale(0.1 -0.1)">
     <use xlink:href="#DejaVuSerif-31"/>
    </g>
   </g>
   <g id="text_20">
    <!-- 2 -->
    <defs>
     <path d="M 12.796875 55.515625 
L 7.328125 55.515625 
L 7.328125 68.5 
Q 12.546875 71.296875 17.84375 72.75 
Q 23.140625 74.21875 28.21875 74.21875 
Q 39.59375 74.21875 46.1875 68.703125 
Q 52.78125 63.1875 52.78125 53.71875 
Q 52.78125 43.015625 37.84375 28.125 
Q 36.671875 27 36.078125 26.421875 
L 17.671875 8.015625 
L 48.09375 8.015625 
L 48.09375 17 
L 53.8125 17 
L 53.8125 0 
L 6.78125 0 
L 6.78125 5.328125 
L 28.90625 27.390625 
Q 36.234375 34.71875 39.359375 40.84375 
Q 42.484375 46.96875 42.484375 53.71875 
Q 42.484375 61.078125 38.640625 65.234375 
Q 34.8125 69.390625 28.078125 69.390625 
Q 21.09375 69.390625 17.28125 65.921875 
Q 13.484375 62.453125 12.796875 55.515625 
z
" id="DejaVuSerif-32"/>
    </defs>
    <g transform="translate(395.061353 211.735973)scale(0.1 -0.1)">
     <use xlink:href="#DejaVuSerif-32"/>
    </g>
   </g>
   <g id="text_21">
    <!-- 2 -->
    <g transform="translate(335.734678 459.862273)scale(0.1 -0.1)">
     <use xlink:href="#DejaVuSerif-32"/>
    </g>
   </g>
   <g id="text_22">
    <!-- 3 -->
    <defs>
     <path d="M 9.71875 69.828125 
Q 15.4375 71.96875 20.671875 73.09375 
Q 25.921875 74.21875 30.515625 74.21875 
Q 41.21875 74.21875 47.21875 69.59375 
Q 53.21875 64.984375 53.21875 56.78125 
Q 53.21875 50.203125 49.0625 45.78125 
Q 44.921875 41.359375 37.3125 39.796875 
Q 46.296875 38.53125 51.25 33.28125 
Q 56.203125 28.03125 56.203125 19.671875 
Q 56.203125 9.46875 49.34375 4.015625 
Q 42.484375 -1.421875 29.59375 -1.421875 
Q 23.875 -1.421875 18.421875 -0.1875 
Q 12.984375 1.03125 7.625 3.515625 
L 7.625 17.671875 
L 13.09375 17.671875 
Q 13.578125 10.640625 17.828125 7.03125 
Q 22.078125 3.421875 29.78125 3.421875 
Q 37.25 3.421875 41.578125 7.734375 
Q 45.90625 12.0625 45.90625 19.578125 
Q 45.90625 28.171875 41.453125 32.59375 
Q 37.015625 37.015625 28.421875 37.015625 
L 23.78125 37.015625 
L 23.78125 42 
L 26.21875 42 
Q 34.765625 42 39.03125 45.53125 
Q 43.3125 49.078125 43.3125 56.203125 
Q 43.3125 62.59375 39.796875 65.984375 
Q 36.28125 69.390625 29.6875 69.390625 
Q 23.09375 69.390625 19.453125 66.265625 
Q 15.828125 63.140625 15.1875 56.984375 
L 9.71875 56.984375 
z
" id="DejaVuSerif-33"/>
    </defs>
    <g transform="translate(130.349144 247.078998)scale(0.1 -0.1)">
     <use xlink:href="#DejaVuSerif-33"/>
    </g>
   </g>
   <g id="text_23">
    <!-- 3 -->
    <g transform="translate(428.336893 375.789697)scale(0.1 -0.1)">
     <use xlink:href="#DejaVuSerif-33"/>
    </g>
   </g>
   <g id="text_24">
    <!-- 4 -->
    <defs>
     <path d="M 34.90625 24.703125 
L 34.90625 63.484375 
L 10.015625 24.703125 
z
M 56.390625 0 
L 23.1875 0 
L 23.1875 5.171875 
L 34.90625 5.171875 
L 34.90625 19.484375 
L 3.078125 19.484375 
L 3.078125 24.8125 
L 35.015625 74.21875 
L 44.671875 74.21875 
L 44.671875 24.703125 
L 58.59375 24.703125 
L 58.59375 19.484375 
L 44.671875 19.484375 
L 44.671875 5.171875 
L 56.390625 5.171875 
z
" id="DejaVuSerif-34"/>
    </defs>
    <g transform="translate(223.150354 225.802943)scale(0.1 -0.1)">
     <use xlink:href="#DejaVuSerif-34"/>
    </g>
   </g>
   <g id="text_25">
    <!-- 4 -->
    <g transform="translate(460.000116 404.089777)scale(0.1 -0.1)">
     <use xlink:href="#DejaVuSerif-34"/>
    </g>
   </g>
   <g id="text_26">
    <!-- 5 -->
    <defs>
     <path d="M 50.296875 72.90625 
L 50.296875 64.890625 
L 16.890625 64.890625 
L 16.890625 44 
Q 19.4375 45.75 22.828125 46.625 
Q 26.21875 47.515625 30.421875 47.515625 
Q 42.234375 47.515625 49.0625 40.96875 
Q 55.90625 34.421875 55.90625 23.09375 
Q 55.90625 11.53125 49 5.046875 
Q 42.09375 -1.421875 29.59375 -1.421875 
Q 24.5625 -1.421875 19.28125 -0.1875 
Q 14.015625 1.03125 8.5 3.515625 
L 8.5 17.671875 
L 14.015625 17.671875 
Q 14.453125 10.75 18.421875 7.078125 
Q 22.40625 3.421875 29.59375 3.421875 
Q 37.3125 3.421875 41.453125 8.5 
Q 45.609375 13.578125 45.609375 23.09375 
Q 45.609375 32.5625 41.484375 37.609375 
Q 37.359375 42.671875 29.59375 42.671875 
Q 25.203125 42.671875 21.84375 41.109375 
Q 18.5 39.546875 15.921875 36.28125 
L 11.71875 36.28125 
L 11.71875 72.90625 
z
" id="DejaVuSerif-35"/>
    </defs>
    <g transform="translate(397.462227 160.979706)scale(0.1 -0.1)">
     <use xlink:href="#DejaVuSerif-35"/>
    </g>
   </g>
   <g id="text_27">
    <!-- 5 -->
    <g transform="translate(152.248195 211.949822)scale(0.1 -0.1)">
     <use xlink:href="#DejaVuSerif-35"/>
    </g>
   </g>
   <g id="text_28">
    <!-- 6 -->
    <defs>
     <path d="M 32.71875 3.421875 
Q 39.59375 3.421875 43.296875 8.46875 
Q 47.015625 13.53125 47.015625 23 
Q 47.015625 32.46875 43.296875 37.515625 
Q 39.59375 42.578125 32.71875 42.578125 
Q 25.734375 42.578125 22.0625 37.6875 
Q 18.40625 32.8125 18.40625 23.578125 
Q 18.40625 13.875 22.109375 8.640625 
Q 25.828125 3.421875 32.71875 3.421875 
z
M 16.796875 40.140625 
Q 20.125 43.796875 24.3125 45.59375 
Q 28.515625 47.40625 33.796875 47.40625 
Q 44.671875 47.40625 51 40.859375 
Q 57.328125 34.328125 57.328125 23 
Q 57.328125 11.921875 50.515625 5.25 
Q 43.703125 -1.421875 32.328125 -1.421875 
Q 19.96875 -1.421875 13.328125 7.78125 
Q 6.6875 17 6.6875 34.078125 
Q 6.6875 53.21875 14.546875 63.71875 
Q 22.40625 74.21875 36.71875 74.21875 
Q 40.578125 74.21875 44.828125 73.484375 
Q 49.078125 72.75 53.515625 71.296875 
L 53.515625 59.28125 
L 48 59.28125 
Q 47.40625 64.203125 44.234375 66.796875 
Q 41.0625 69.390625 35.6875 69.390625 
Q 26.21875 69.390625 21.578125 62.203125 
Q 16.9375 55.03125 16.796875 40.140625 
z
" id="DejaVuSerif-36"/>
    </defs>
    <g transform="translate(394.580812 318.938871)scale(0.1 -0.1)">
     <use xlink:href="#DejaVuSerif-36"/>
    </g>
   </g>
   <g id="text_29">
    <!-- 6 -->
    <g transform="translate(182.105848 125.066781)scale(0.1 -0.1)">
     <use xlink:href="#DejaVuSerif-36"/>
    </g>
   </g>
   <g id="text_30">
    <!-- 7 -->
    <defs>
     <path d="M 56.390625 67.921875 
L 27.875 0 
L 20.609375 0 
L 47.796875 64.890625 
L 14.109375 64.890625 
L 14.109375 55.90625 
L 8.40625 55.90625 
L 8.40625 72.90625 
L 56.390625 72.90625 
z
" id="DejaVuSerif-37"/>
    </defs>
    <g transform="translate(239.898954 399.109759)scale(0.1 -0.1)">
     <use xlink:href="#DejaVuSerif-37"/>
    </g>
   </g>
   <g id="text_31">
    <!-- 7 -->
    <g transform="translate(402.995514 249.830181)scale(0.1 -0.1)">
     <use xlink:href="#DejaVuSerif-37"/>
    </g>
   </g>
   <g id="text_32">
    <!-- 8 -->
    <defs>
     <path d="M 46.578125 19.921875 
Q 46.578125 27.734375 42.6875 32.046875 
Q 38.8125 36.375 31.78125 36.375 
Q 24.75 36.375 20.875 32.046875 
Q 17 27.734375 17 19.921875 
Q 17 12.0625 20.875 7.734375 
Q 24.75 3.421875 31.78125 3.421875 
Q 38.8125 3.421875 42.6875 7.734375 
Q 46.578125 12.0625 46.578125 19.921875 
z
M 44.578125 55.328125 
Q 44.578125 61.96875 41.203125 65.671875 
Q 37.84375 69.390625 31.78125 69.390625 
Q 25.78125 69.390625 22.390625 65.671875 
Q 19 61.96875 19 55.328125 
Q 19 48.640625 22.390625 44.921875 
Q 25.78125 41.21875 31.78125 41.21875 
Q 37.84375 41.21875 41.203125 44.921875 
Q 44.578125 48.640625 44.578125 55.328125 
z
M 39.3125 38.8125 
Q 47.609375 37.703125 52.25 32.6875 
Q 56.890625 27.6875 56.890625 19.921875 
Q 56.890625 9.671875 50.390625 4.125 
Q 43.890625 -1.421875 31.78125 -1.421875 
Q 19.734375 -1.421875 13.203125 4.125 
Q 6.6875 9.671875 6.6875 19.921875 
Q 6.6875 27.6875 11.328125 32.6875 
Q 15.96875 37.703125 24.3125 38.8125 
Q 16.9375 40.140625 13 44.40625 
Q 9.078125 48.6875 9.078125 55.328125 
Q 9.078125 64.109375 15.125 69.15625 
Q 21.1875 74.21875 31.78125 74.21875 
Q 42.390625 74.21875 48.4375 69.15625 
Q 54.5 64.109375 54.5 55.328125 
Q 54.5 48.6875 50.5625 44.40625 
Q 46.625 40.140625 39.3125 38.8125 
z
" id="DejaVuSerif-38"/>
    </defs>
    <g transform="translate(291.901452 122.099744)scale(0.1 -0.1)">
     <use xlink:href="#DejaVuSerif-38"/>
    </g>
   </g>
   <g id="text_33">
    <!-- 8 -->
    <g transform="translate(339.391284 362.651819)scale(0.1 -0.1)">
     <use xlink:href="#DejaVuSerif-38"/>
    </g>
   </g>
  </g>
 </g>
 <defs>
  <clipPath id="p22e2e98e38">
   <rect height="443.52" width="446.4" x="72" y="69.12"/>
  </clipPath>
 </defs>
</svg>
