<?xml version="1.0" encoding="utf-8" standalone="no"?>
<!DOCTYPE svg PUBLIC "-//W3C//DTD SVG 1.1//EN"
  "http://www.w3.org/Graphics/SVG/1.1/DTD/svg11.dtd">
<!-- Created with matplotlib (http://matplotlib.org/) -->
<svg height="576pt" version="1.1" viewBox="0 0 576 576" width="576pt" xmlns="http://www.w3.org/2000/svg" xmlns:xlink="http://www.w3.org/1999/xlink">
 <defs>
  <style type="text/css">
*{stroke-linecap:butt;stroke-linejoin:round;}
  </style>
 </defs>
 <g id="figure_1">
  <g id="patch_1">
   <path d="M 0 576 
L 576 576 
L 576 0 
L 0 0 
z
" style="fill:#ffffff;"/>
  </g>
  <g id="axes_1">
   <g id="patch_2">
    <path d="M 72 512.64 
L 518.4 512.64 
L 518.4 69.12 
L 72 69.12 
z
" style="fill:#ffffff;"/>
   </g>
   <g id="matplotlib.axis_1">
    <g id="xtick_1">
     <g id="line2d_1">
      <defs>
       <path d="M 0 0 
L 0 3.5 
" id="m26b67495ca" style="stroke:#000000;stroke-width:0.8;"/>
      </defs>
      <g>
       <use style="stroke:#000000;stroke-width:0.8;" x="112.216216" xlink:href="#m26b67495ca" y="512.64"/>
      </g>
     </g>
     <g id="text_1">
      <!-- 0 -->
      <defs>
       <path d="M 31.78125 66.40625 
Q 24.171875 66.40625 20.328125 58.90625 
Q 16.5 51.421875 16.5 36.375 
Q 16.5 21.390625 20.328125 13.890625 
Q 24.171875 6.390625 31.78125 6.390625 
Q 39.453125 6.390625 43.28125 13.890625 
Q 47.125 21.390625 47.125 36.375 
Q 47.125 51.421875 43.28125 58.90625 
Q 39.453125 66.40625 31.78125 66.40625 
z
M 31.78125 74.21875 
Q 44.046875 74.21875 50.515625 64.515625 
Q 56.984375 54.828125 56.984375 36.375 
Q 56.984375 17.96875 50.515625 8.265625 
Q 44.046875 -1.421875 31.78125 -1.421875 
Q 19.53125 -1.421875 13.0625 8.265625 
Q 6.59375 17.96875 6.59375 36.375 
Q 6.59375 54.828125 13.0625 64.515625 
Q 19.53125 74.21875 31.78125 74.21875 
z
" id="DejaVuSans-30"/>
      </defs>
      <g transform="translate(109.034966 527.238438)scale(0.1 -0.1)">
       <use xlink:href="#DejaVuSans-30"/>
      </g>
     </g>
    </g>
    <g id="xtick_2">
     <g id="line2d_2">
      <g>
       <use style="stroke:#000000;stroke-width:0.8;" x="192.648649" xlink:href="#m26b67495ca" y="512.64"/>
      </g>
     </g>
     <g id="text_2">
      <!-- 2 -->
      <defs>
       <path d="M 19.1875 8.296875 
L 53.609375 8.296875 
L 53.609375 0 
L 7.328125 0 
L 7.328125 8.296875 
Q 12.9375 14.109375 22.625 23.890625 
Q 32.328125 33.6875 34.8125 36.53125 
Q 39.546875 41.84375 41.421875 45.53125 
Q 43.3125 49.21875 43.3125 52.78125 
Q 43.3125 58.59375 39.234375 62.25 
Q 35.15625 65.921875 28.609375 65.921875 
Q 23.96875 65.921875 18.8125 64.3125 
Q 13.671875 62.703125 7.8125 59.421875 
L 7.8125 69.390625 
Q 13.765625 71.78125 18.9375 73 
Q 24.125 74.21875 28.421875 74.21875 
Q 39.75 74.21875 46.484375 68.546875 
Q 53.21875 62.890625 53.21875 53.421875 
Q 53.21875 48.921875 51.53125 44.890625 
Q 49.859375 40.875 45.40625 35.40625 
Q 44.1875 33.984375 37.640625 27.21875 
Q 31.109375 20.453125 19.1875 8.296875 
z
" id="DejaVuSans-32"/>
      </defs>
      <g transform="translate(189.467399 527.238438)scale(0.1 -0.1)">
       <use xlink:href="#DejaVuSans-32"/>
      </g>
     </g>
    </g>
    <g id="xtick_3">
     <g id="line2d_3">
      <g>
       <use style="stroke:#000000;stroke-width:0.8;" x="273.081081" xlink:href="#m26b67495ca" y="512.64"/>
      </g>
     </g>
     <g id="text_3">
      <!-- 4 -->
      <defs>
       <path d="M 37.796875 64.3125 
L 12.890625 25.390625 
L 37.796875 25.390625 
z
M 35.203125 72.90625 
L 47.609375 72.90625 
L 47.609375 25.390625 
L 58.015625 25.390625 
L 58.015625 17.1875 
L 47.609375 17.1875 
L 47.609375 0 
L 37.796875 0 
L 37.796875 17.1875 
L 4.890625 17.1875 
L 4.890625 26.703125 
z
" id="DejaVuSans-34"/>
      </defs>
      <g transform="translate(269.899831 527.238438)scale(0.1 -0.1)">
       <use xlink:href="#DejaVuSans-34"/>
      </g>
     </g>
    </g>
    <g id="xtick_4">
     <g id="line2d_4">
      <g>
       <use style="stroke:#000000;stroke-width:0.8;" x="353.513514" xlink:href="#m26b67495ca" y="512.64"/>
      </g>
     </g>
     <g id="text_4">
      <!-- 6 -->
      <defs>
       <path d="M 33.015625 40.375 
Q 26.375 40.375 22.484375 35.828125 
Q 18.609375 31.296875 18.609375 23.390625 
Q 18.609375 15.53125 22.484375 10.953125 
Q 26.375 6.390625 33.015625 6.390625 
Q 39.65625 6.390625 43.53125 10.953125 
Q 47.40625 15.53125 47.40625 23.390625 
Q 47.40625 31.296875 43.53125 35.828125 
Q 39.65625 40.375 33.015625 40.375 
z
M 52.59375 71.296875 
L 52.59375 62.3125 
Q 48.875 64.0625 45.09375 64.984375 
Q 41.3125 65.921875 37.59375 65.921875 
Q 27.828125 65.921875 22.671875 59.328125 
Q 17.53125 52.734375 16.796875 39.40625 
Q 19.671875 43.65625 24.015625 45.921875 
Q 28.375 48.1875 33.59375 48.1875 
Q 44.578125 48.1875 50.953125 41.515625 
Q 57.328125 34.859375 57.328125 23.390625 
Q 57.328125 12.15625 50.6875 5.359375 
Q 44.046875 -1.421875 33.015625 -1.421875 
Q 20.359375 -1.421875 13.671875 8.265625 
Q 6.984375 17.96875 6.984375 36.375 
Q 6.984375 53.65625 15.1875 63.9375 
Q 23.390625 74.21875 37.203125 74.21875 
Q 40.921875 74.21875 44.703125 73.484375 
Q 48.484375 72.75 52.59375 71.296875 
z
" id="DejaVuSans-36"/>
      </defs>
      <g transform="translate(350.332264 527.238438)scale(0.1 -0.1)">
       <use xlink:href="#DejaVuSans-36"/>
      </g>
     </g>
    </g>
    <g id="xtick_5">
     <g id="line2d_5">
      <g>
       <use style="stroke:#000000;stroke-width:0.8;" x="433.945946" xlink:href="#m26b67495ca" y="512.64"/>
      </g>
     </g>
     <g id="text_5">
      <!-- 8 -->
      <defs>
       <path d="M 31.78125 34.625 
Q 24.75 34.625 20.71875 30.859375 
Q 16.703125 27.09375 16.703125 20.515625 
Q 16.703125 13.921875 20.71875 10.15625 
Q 24.75 6.390625 31.78125 6.390625 
Q 38.8125 6.390625 42.859375 10.171875 
Q 46.921875 13.96875 46.921875 20.515625 
Q 46.921875 27.09375 42.890625 30.859375 
Q 38.875 34.625 31.78125 34.625 
z
M 21.921875 38.8125 
Q 15.578125 40.375 12.03125 44.71875 
Q 8.5 49.078125 8.5 55.328125 
Q 8.5 64.0625 14.71875 69.140625 
Q 20.953125 74.21875 31.78125 74.21875 
Q 42.671875 74.21875 48.875 69.140625 
Q 55.078125 64.0625 55.078125 55.328125 
Q 55.078125 49.078125 51.53125 44.71875 
Q 48 40.375 41.703125 38.8125 
Q 48.828125 37.15625 52.796875 32.3125 
Q 56.78125 27.484375 56.78125 20.515625 
Q 56.78125 9.90625 50.3125 4.234375 
Q 43.84375 -1.421875 31.78125 -1.421875 
Q 19.734375 -1.421875 13.25 4.234375 
Q 6.78125 9.90625 6.78125 20.515625 
Q 6.78125 27.484375 10.78125 32.3125 
Q 14.796875 37.15625 21.921875 38.8125 
z
M 18.3125 54.390625 
Q 18.3125 48.734375 21.84375 45.5625 
Q 25.390625 42.390625 31.78125 42.390625 
Q 38.140625 42.390625 41.71875 45.5625 
Q 45.3125 48.734375 45.3125 54.390625 
Q 45.3125 60.0625 41.71875 63.234375 
Q 38.140625 66.40625 31.78125 66.40625 
Q 25.390625 66.40625 21.84375 63.234375 
Q 18.3125 60.0625 18.3125 54.390625 
z
" id="DejaVuSans-38"/>
      </defs>
      <g transform="translate(430.764696 527.238438)scale(0.1 -0.1)">
       <use xlink:href="#DejaVuSans-38"/>
      </g>
     </g>
    </g>
    <g id="xtick_6">
     <g id="line2d_6">
      <g>
       <use style="stroke:#000000;stroke-width:0.8;" x="514.378378" xlink:href="#m26b67495ca" y="512.64"/>
      </g>
     </g>
     <g id="text_6">
      <!-- 10 -->
      <defs>
       <path d="M 12.40625 8.296875 
L 28.515625 8.296875 
L 28.515625 63.921875 
L 10.984375 60.40625 
L 10.984375 69.390625 
L 28.421875 72.90625 
L 38.28125 72.90625 
L 38.28125 8.296875 
L 54.390625 8.296875 
L 54.390625 0 
L 12.40625 0 
z
" id="DejaVuSans-31"/>
      </defs>
      <g transform="translate(508.015878 527.238438)scale(0.1 -0.1)">
       <use xlink:href="#DejaVuSans-31"/>
       <use x="63.623047" xlink:href="#DejaVuSans-30"/>
      </g>
     </g>
    </g>
   </g>
   <g id="matplotlib.axis_2">
    <g id="ytick_1">
     <g id="line2d_7">
      <defs>
       <path d="M 0 0 
L -3.5 0 
" id="m4b4d1e5e15" style="stroke:#000000;stroke-width:0.8;"/>
      </defs>
      <g>
       <use style="stroke:#000000;stroke-width:0.8;" x="72" xlink:href="#m4b4d1e5e15" y="473.863784"/>
      </g>
     </g>
     <g id="text_7">
      <!-- 0 -->
      <g transform="translate(58.6375 477.663003)scale(0.1 -0.1)">
       <use xlink:href="#DejaVuSans-30"/>
      </g>
     </g>
    </g>
    <g id="ytick_2">
     <g id="line2d_8">
      <g>
       <use style="stroke:#000000;stroke-width:0.8;" x="72" xlink:href="#m4b4d1e5e15" y="393.431351"/>
      </g>
     </g>
     <g id="text_8">
      <!-- 2 -->
      <g transform="translate(58.6375 397.23057)scale(0.1 -0.1)">
       <use xlink:href="#DejaVuSans-32"/>
      </g>
     </g>
    </g>
    <g id="ytick_3">
     <g id="line2d_9">
      <g>
       <use style="stroke:#000000;stroke-width:0.8;" x="72" xlink:href="#m4b4d1e5e15" y="312.998919"/>
      </g>
     </g>
     <g id="text_9">
      <!-- 4 -->
      <g transform="translate(58.6375 316.798138)scale(0.1 -0.1)">
       <use xlink:href="#DejaVuSans-34"/>
      </g>
     </g>
    </g>
    <g id="ytick_4">
     <g id="line2d_10">
      <g>
       <use style="stroke:#000000;stroke-width:0.8;" x="72" xlink:href="#m4b4d1e5e15" y="232.566486"/>
      </g>
     </g>
     <g id="text_10">
      <!-- 6 -->
      <g transform="translate(58.6375 236.365705)scale(0.1 -0.1)">
       <use xlink:href="#DejaVuSans-36"/>
      </g>
     </g>
    </g>
    <g id="ytick_5">
     <g id="line2d_11">
      <g>
       <use style="stroke:#000000;stroke-width:0.8;" x="72" xlink:href="#m4b4d1e5e15" y="152.134054"/>
      </g>
     </g>
     <g id="text_11">
      <!-- 8 -->
      <g transform="translate(58.6375 155.933273)scale(0.1 -0.1)">
       <use xlink:href="#DejaVuSans-38"/>
      </g>
     </g>
    </g>
    <g id="ytick_6">
     <g id="line2d_12">
      <g>
       <use style="stroke:#000000;stroke-width:0.8;" x="72" xlink:href="#m4b4d1e5e15" y="71.701622"/>
      </g>
     </g>
     <g id="text_12">
      <!-- 10 -->
      <g transform="translate(52.275 75.50084)scale(0.1 -0.1)">
       <use xlink:href="#DejaVuSans-31"/>
       <use x="63.623047" xlink:href="#DejaVuSans-30"/>
      </g>
     </g>
    </g>
   </g>
   <g id="line2d_13">
    <path clip-path="url(#pcc020c30b9)" d="M 140.367568 389.40973 
" style="fill:none;stroke:#1f77b4;stroke-linecap:square;stroke-width:1.5;"/>
    <defs>
     <path d="M -5 5 
L 5 5 
L 5 -5 
L -5 -5 
z
" id="m5137265c16" style="stroke:#8000ff;stroke-linejoin:miter;"/>
    </defs>
    <g clip-path="url(#pcc020c30b9)">
     <use style="fill:#8000ff;stroke:#8000ff;stroke-linejoin:miter;" x="140.367568" xlink:href="#m5137265c16" y="389.40973"/>
    </g>
   </g>
   <g id="line2d_14">
    <path clip-path="url(#pcc020c30b9)" d="M 393.72973 192.35027 
" style="fill:none;stroke:#ff7f0e;stroke-linecap:square;stroke-width:1.5;"/>
    <defs>
     <path d="M 0 -5 
L -4.755283 -1.545085 
L -2.938926 4.045085 
L 2.938926 4.045085 
L 4.755283 -1.545085 
z
" id="m0fea53b6b0" style="stroke:#8000ff;stroke-linejoin:miter;"/>
    </defs>
    <g clip-path="url(#pcc020c30b9)">
     <use style="fill:#8000ff;stroke:#8000ff;stroke-linejoin:miter;" x="393.72973" xlink:href="#m0fea53b6b0" y="192.35027"/>
    </g>
   </g>
   <g id="line2d_15">
    <path clip-path="url(#pcc020c30b9)" d="M 450.032432 192.35027 
" style="fill:none;stroke:#2ca02c;stroke-linecap:square;stroke-width:1.5;"/>
    <defs>
     <path d="M -5 5 
L 5 5 
L 5 -5 
L -5 -5 
z
" id="m93020b2fb0" style="stroke:#4757fb;stroke-linejoin:miter;"/>
    </defs>
    <g clip-path="url(#pcc020c30b9)">
     <use style="fill:#4757fb;stroke:#4757fb;stroke-linejoin:miter;" x="450.032432" xlink:href="#m93020b2fb0" y="192.35027"/>
    </g>
   </g>
   <g id="line2d_16">
    <path clip-path="url(#pcc020c30b9)" d="M 224.821622 361.258378 
" style="fill:none;stroke:#d62728;stroke-linecap:square;stroke-width:1.5;"/>
    <defs>
     <path d="M 0 -5 
L -4.755283 -1.545085 
L -2.938926 4.045085 
L 2.938926 4.045085 
L 4.755283 -1.545085 
z
" id="mf8e5d33cb5" style="stroke:#4757fb;stroke-linejoin:miter;"/>
    </defs>
    <g clip-path="url(#pcc020c30b9)">
     <use style="fill:#4757fb;stroke:#4757fb;stroke-linejoin:miter;" x="224.821622" xlink:href="#mf8e5d33cb5" y="361.258378"/>
    </g>
   </g>
   <g id="line2d_17">
    <path clip-path="url(#pcc020c30b9)" d="M 402.175135 440.082162 
" style="fill:none;stroke:#9467bd;stroke-linecap:square;stroke-width:1.5;"/>
    <defs>
     <path d="M -5 5 
L 5 5 
L 5 -5 
L -5 -5 
z
" id="m2801235a4f" style="stroke:#0ea4f0;stroke-linejoin:miter;"/>
    </defs>
    <g clip-path="url(#pcc020c30b9)">
     <use style="fill:#0ea4f0;stroke:#0ea4f0;stroke-linejoin:miter;" x="402.175135" xlink:href="#m2801235a4f" y="440.082162"/>
    </g>
   </g>
   <g id="line2d_18">
    <path clip-path="url(#pcc020c30b9)" d="M 224.821622 192.35027 
" style="fill:none;stroke:#8c564b;stroke-linecap:square;stroke-width:1.5;"/>
    <defs>
     <path d="M 0 -5 
L -4.755283 -1.545085 
L -2.938926 4.045085 
L 2.938926 4.045085 
L 4.755283 -1.545085 
z
" id="mbab1a1f014" style="stroke:#0ea4f0;stroke-linejoin:miter;"/>
    </defs>
    <g clip-path="url(#pcc020c30b9)">
     <use style="fill:#0ea4f0;stroke:#0ea4f0;stroke-linejoin:miter;" x="224.821622" xlink:href="#mbab1a1f014" y="192.35027"/>
    </g>
   </g>
   <g id="line2d_19">
    <path clip-path="url(#pcc020c30b9)" d="M 224.821622 136.047568 
" style="fill:none;stroke:#e377c2;stroke-linecap:square;stroke-width:1.5;"/>
    <defs>
     <path d="M -5 5 
L 5 5 
L 5 -5 
L -5 -5 
z
" id="me5db756cdd" style="stroke:#2adddd;stroke-linejoin:miter;"/>
    </defs>
    <g clip-path="url(#pcc020c30b9)">
     <use style="fill:#2adddd;stroke:#2adddd;stroke-linejoin:miter;" x="224.821622" xlink:href="#me5db756cdd" y="136.047568"/>
    </g>
   </g>
   <g id="line2d_20">
    <path clip-path="url(#pcc020c30b9)" d="M 393.72973 361.258378 
" style="fill:none;stroke:#7f7f7f;stroke-linecap:square;stroke-width:1.5;"/>
    <defs>
     <path d="M 0 -5 
L -4.755283 -1.545085 
L -2.938926 4.045085 
L 2.938926 4.045085 
L 4.755283 -1.545085 
z
" id="mb2982e9df5" style="stroke:#2adddd;stroke-linejoin:miter;"/>
    </defs>
    <g clip-path="url(#pcc020c30b9)">
     <use style="fill:#2adddd;stroke:#2adddd;stroke-linejoin:miter;" x="393.72973" xlink:href="#mb2982e9df5" y="361.258378"/>
    </g>
   </g>
   <g id="line2d_21">
    <path clip-path="url(#pcc020c30b9)" d="M 450.032432 304.955676 
" style="fill:none;stroke:#bcbd22;stroke-linecap:square;stroke-width:1.5;"/>
    <defs>
     <path d="M -5 5 
L 5 5 
L 5 -5 
L -5 -5 
z
" id="mdcaa7b960e" style="stroke:#63fbc3;stroke-linejoin:miter;"/>
    </defs>
    <g clip-path="url(#pcc020c30b9)">
     <use style="fill:#63fbc3;stroke:#63fbc3;stroke-linejoin:miter;" x="450.032432" xlink:href="#mdcaa7b960e" y="304.955676"/>
    </g>
   </g>
   <g id="line2d_22">
    <path clip-path="url(#pcc020c30b9)" d="M 196.67027 248.652973 
" style="fill:none;stroke:#17becf;stroke-linecap:square;stroke-width:1.5;"/>
    <defs>
     <path d="M 0 -5 
L -4.755283 -1.545085 
L -2.938926 4.045085 
L 2.938926 4.045085 
L 4.755283 -1.545085 
z
" id="md17f2dbcc5" style="stroke:#63fbc3;stroke-linejoin:miter;"/>
    </defs>
    <g clip-path="url(#pcc020c30b9)">
     <use style="fill:#63fbc3;stroke:#63fbc3;stroke-linejoin:miter;" x="196.67027" xlink:href="#md17f2dbcc5" y="248.652973"/>
    </g>
   </g>
   <g id="line2d_23">
    <path clip-path="url(#pcc020c30b9)" d="M 140.367568 248.652973 
" style="fill:none;stroke:#1f77b4;stroke-linecap:square;stroke-width:1.5;"/>
    <defs>
     <path d="M -5 5 
L 5 5 
L 5 -5 
L -5 -5 
z
" id="ma45644a064" style="stroke:#9cfba4;stroke-linejoin:miter;"/>
    </defs>
    <g clip-path="url(#pcc020c30b9)">
     <use style="fill:#9cfba4;stroke:#9cfba4;stroke-linejoin:miter;" x="140.367568" xlink:href="#ma45644a064" y="248.652973"/>
    </g>
   </g>
   <g id="line2d_24">
    <path clip-path="url(#pcc020c30b9)" d="M 393.72973 276.804324 
" style="fill:none;stroke:#ff7f0e;stroke-linecap:square;stroke-width:1.5;"/>
    <defs>
     <path d="M 0 -5 
L -4.755283 -1.545085 
L -2.938926 4.045085 
L 2.938926 4.045085 
L 4.755283 -1.545085 
z
" id="m3618f982db" style="stroke:#9cfba4;stroke-linejoin:miter;"/>
    </defs>
    <g clip-path="url(#pcc020c30b9)">
     <use style="fill:#9cfba4;stroke:#9cfba4;stroke-linejoin:miter;" x="393.72973" xlink:href="#m3618f982db" y="276.804324"/>
    </g>
   </g>
   <g id="line2d_25">
    <path clip-path="url(#pcc020c30b9)" d="M 281.124324 192.35027 
" style="fill:none;stroke:#2ca02c;stroke-linecap:square;stroke-width:1.5;"/>
    <defs>
     <path d="M -5 5 
L 5 5 
L 5 -5 
L -5 -5 
z
" id="mee10d13e73" style="stroke:#d4dd80;stroke-linejoin:miter;"/>
    </defs>
    <g clip-path="url(#pcc020c30b9)">
     <use style="fill:#d4dd80;stroke:#d4dd80;stroke-linejoin:miter;" x="281.124324" xlink:href="#mee10d13e73" y="192.35027"/>
    </g>
   </g>
   <g id="line2d_26">
    <path clip-path="url(#pcc020c30b9)" d="M 281.124324 333.107027 
" style="fill:none;stroke:#d62728;stroke-linecap:square;stroke-width:1.5;"/>
    <defs>
     <path d="M 0 -5 
L -4.755283 -1.545085 
L -2.938926 4.045085 
L 2.938926 4.045085 
L 4.755283 -1.545085 
z
" id="md93d3dc5e1" style="stroke:#d4dd80;stroke-linejoin:miter;"/>
    </defs>
    <g clip-path="url(#pcc020c30b9)">
     <use style="fill:#d4dd80;stroke:#d4dd80;stroke-linejoin:miter;" x="281.124324" xlink:href="#md93d3dc5e1" y="333.107027"/>
    </g>
   </g>
   <g id="line2d_27">
    <path clip-path="url(#pcc020c30b9)" d="M 140.367568 304.955676 
" style="fill:none;stroke:#9467bd;stroke-linecap:square;stroke-width:1.5;"/>
    <defs>
     <path d="M -5 5 
L 5 5 
L 5 -5 
L -5 -5 
z
" id="mb373749f0a" style="stroke:#ffa457;stroke-linejoin:miter;"/>
    </defs>
    <g clip-path="url(#pcc020c30b9)">
     <use style="fill:#ffa457;stroke:#ffa457;stroke-linejoin:miter;" x="140.367568" xlink:href="#mb373749f0a" y="304.955676"/>
    </g>
   </g>
   <g id="line2d_28">
    <path clip-path="url(#pcc020c30b9)" d="M 309.275676 276.804324 
" style="fill:none;stroke:#8c564b;stroke-linecap:square;stroke-width:1.5;"/>
    <defs>
     <path d="M 0 -5 
L -4.755283 -1.545085 
L -2.938926 4.045085 
L 2.938926 4.045085 
L 4.755283 -1.545085 
z
" id="m51bc0a5044" style="stroke:#ffa457;stroke-linejoin:miter;"/>
    </defs>
    <g clip-path="url(#pcc020c30b9)">
     <use style="fill:#ffa457;stroke:#ffa457;stroke-linejoin:miter;" x="309.275676" xlink:href="#m51bc0a5044" y="276.804324"/>
    </g>
   </g>
   <g id="line2d_29">
    <path clip-path="url(#pcc020c30b9)" d="M 393.72973 220.501622 
" style="fill:none;stroke:#e377c2;stroke-linecap:square;stroke-width:1.5;"/>
    <defs>
     <path d="M -5 5 
L 5 5 
L 5 -5 
L -5 -5 
z
" id="m1fb3942bf6" style="stroke:#ff572c;stroke-linejoin:miter;"/>
    </defs>
    <g clip-path="url(#pcc020c30b9)">
     <use style="fill:#ff572c;stroke:#ff572c;stroke-linejoin:miter;" x="393.72973" xlink:href="#m1fb3942bf6" y="220.501622"/>
    </g>
   </g>
   <g id="line2d_30">
    <path clip-path="url(#pcc020c30b9)" d="M 140.367568 276.804324 
" style="fill:none;stroke:#7f7f7f;stroke-linecap:square;stroke-width:1.5;"/>
    <defs>
     <path d="M 0 -5 
L -4.755283 -1.545085 
L -2.938926 4.045085 
L 2.938926 4.045085 
L 4.755283 -1.545085 
z
" id="m7d99e3de92" style="stroke:#ff572c;stroke-linejoin:miter;"/>
    </defs>
    <g clip-path="url(#pcc020c30b9)">
     <use style="fill:#ff572c;stroke:#ff572c;stroke-linejoin:miter;" x="140.367568" xlink:href="#m7d99e3de92" y="276.804324"/>
    </g>
   </g>
   <g id="line2d_31">
    <path clip-path="url(#pcc020c30b9)" d="M 140.367568 136.047568 
" style="fill:none;stroke:#bcbd22;stroke-linecap:square;stroke-width:1.5;"/>
    <defs>
     <path d="M -5 5 
L 5 5 
L 5 -5 
L -5 -5 
z
" id="m9974715623" style="stroke:#ff0000;stroke-linejoin:miter;"/>
    </defs>
    <g clip-path="url(#pcc020c30b9)">
     <use style="fill:#ff0000;stroke:#ff0000;stroke-linejoin:miter;" x="140.367568" xlink:href="#m9974715623" y="136.047568"/>
    </g>
   </g>
   <g id="line2d_32">
    <path clip-path="url(#pcc020c30b9)" d="M 252.972973 248.652973 
" style="fill:none;stroke:#17becf;stroke-linecap:square;stroke-width:1.5;"/>
    <defs>
     <path d="M 0 -5 
L -4.755283 -1.545085 
L -2.938926 4.045085 
L 2.938926 4.045085 
L 4.755283 -1.545085 
z
" id="m1eeda850dd" style="stroke:#ff0000;stroke-linejoin:miter;"/>
    </defs>
    <g clip-path="url(#pcc020c30b9)">
     <use style="fill:#ff0000;stroke:#ff0000;stroke-linejoin:miter;" x="252.972973" xlink:href="#m1eeda850dd" y="248.652973"/>
    </g>
   </g>
   <g id="line2d_33"/>
   <g id="line2d_34">
    <path clip-path="url(#pcc020c30b9)" d="M 92.108108 493.971892 
L 92.108108 87.788108 
" style="fill:none;stroke:#000000;stroke-linecap:square;stroke-width:4;"/>
   </g>
   <g id="line2d_35">
    <path clip-path="url(#pcc020c30b9)" d="M 92.108108 87.788108 
L 498.291892 87.788108 
" style="fill:none;stroke:#000000;stroke-linecap:square;stroke-width:4;"/>
   </g>
   <g id="line2d_36">
    <path clip-path="url(#pcc020c30b9)" d="M 498.291892 87.788108 
L 498.291892 493.971892 
" style="fill:none;stroke:#000000;stroke-linecap:square;stroke-width:4;"/>
   </g>
   <g id="line2d_37">
    <path clip-path="url(#pcc020c30b9)" d="M 498.291892 493.971892 
L 92.108108 493.971892 
" style="fill:none;stroke:#000000;stroke-linecap:square;stroke-width:4;"/>
   </g>
   <g id="line2d_38">
    <path clip-path="url(#pcc020c30b9)" d="M 140.367568 389.40973 
L 142.458811 389.329297 
L 144.509838 388.967351 
L 146.239135 388.444541 
L 147.968432 387.760865 
L 149.858595 386.835892 
L 153.075892 384.94573 
L 157.901838 381.607784 
L 165.784216 375.575351 
L 176.240432 367.250595 
L 191.924757 354.703135 
L 193.654054 353.778162 
L 195.664865 352.973838 
L 199.324541 352.048865 
L 205.115676 351.003243 
L 231.095351 347.062054 
L 237.168 345.976216 
L 254.662054 343.362162 
L 269.58227 341.391568 
L 271.794162 341.79373 
L 273.563676 342.63827 
L 275.53427 344.166486 
L 276.941838 345.533838 
L 278.590703 346.780541 
L 280.360216 347.625081 
L 284.140541 349.072865 
L 286.151351 349.716324 
L 290.575135 350.520649 
L 296.969514 351.324973 
L 304.771459 353.496649 
L 310.522378 354.783568 
L 314.342919 355.990054 
L 316.434162 356.512865 
L 320.616649 357.196541 
L 325.161081 357.679135 
L 327.051243 357.759568 
L 329.10227 357.558486 
L 330.871784 357.075892 
L 332.520649 356.311784 
L 334.330378 355.225946 
L 339.317189 351.526054 
L 341.086703 350.158703 
L 342.212757 349.072865 
L 343.459459 347.424 
L 344.223568 345.815351 
L 344.464865 344.76973 
L 344.505081 344.970811 
L 344.585514 345.051243 
L 344.143135 344.809946 
L 342.49427 344.206703 
L 338.593297 343.523027 
L 336.823784 343.080649 
L 335.014054 342.396973 
L 333.324973 341.632865 
L 331.475027 340.547027 
L 329.826162 339.219892 
L 328.499027 337.450378 
L 327.734919 335.721081 
L 327.051243 333.629838 
L 326.649081 331.779892 
L 326.166486 328.039784 
L 326.005622 324.259459 
L 326.12627 320.237838 
L 326.367568 318.588973 
L 326.76973 316.739027 
L 328.137081 312.636973 
L 329.826162 308.655568 
L 330.710919 306.966486 
L 332.07827 305.156757 
L 333.847784 303.789405 
L 335.617297 302.985081 
L 341.408432 301.054703 
L 343.097514 300.12973 
L 344.545297 299.003676 
L 345.872432 297.756973 
L 347.440865 295.947243 
L 348.526703 294.459243 
L 350.658162 291.040865 
L 353.593946 285.370378 
L 356.087351 280.021622 
L 356.851459 278.211892 
L 357.37427 276.201081 
L 357.696 272.742486 
L 357.696 266.629622 
L 357.575351 262.567784 
L 357.696 260.637405 
L 358.057946 258.46573 
L 358.540541 256.615784 
L 359.867676 252.795243 
L 362.441514 247.164973 
L 366.342486 239.805405 
L 385.043027 207.270486 
L 390.190703 198.463135 
L 392.080865 195.205622 
L 392.080865 195.205622 
" style="fill:none;stroke:#8000ff;stroke-linecap:square;stroke-width:1.5;"/>
   </g>
   <g id="line2d_39">
    <path clip-path="url(#pcc020c30b9)" d="M 450.032432 192.35027 
L 450.233514 192.430703 
L 450.354162 192.551351 
L 450.474811 192.99373 
L 450.555243 194.16 
L 450.313946 195.446919 
L 449.469405 197.578378 
L 448.825946 198.744649 
L 447.780324 200.272865 
L 446.734703 201.519568 
L 445.085838 203.289081 
L 442.512 205.621622 
L 438.972973 208.517189 
L 435.554595 211.131243 
L 424.052757 219.496216 
L 382.67027 249.014919 
L 381.101838 250.422486 
L 378.447568 253.35827 
L 375.672649 256.97773 
L 364.572973 273.064216 
L 363.446919 274.512 
L 362.200216 275.638054 
L 360.390486 276.884757 
L 358.460108 277.890162 
L 353.513514 279.941189 
L 351.945081 280.464 
L 351.985297 280.423784 
L 351.502703 280.946595 
L 351.020108 281.871568 
L 350.537514 283.842162 
L 350.537514 285.370378 
L 350.899459 287.099676 
L 351.542919 288.507243 
L 354.72 292.850595 
L 355.765622 294.780973 
L 356.52973 296.51027 
L 357.132973 298.64173 
L 357.293838 300.531892 
L 356.891676 306.483892 
L 356.771027 310.54573 
L 356.409081 314.205405 
L 356.610162 316.256432 
L 358.540541 321.766054 
L 359.103568 323.575784 
L 361.033946 331.417946 
L 361.275243 333.348324 
L 361.235027 334.675459 
L 361.033946 335.318919 
L 359.827459 338.616649 
L 359.586162 340.426378 
L 359.224216 344.166486 
L 358.902486 345.61427 
L 358.259027 347.142486 
L 357.173189 348.952216 
L 355.162378 351.365189 
L 353.996108 352.571676 
L 349.572324 356.352 
L 348.003892 357.437838 
L 345.550703 358.684541 
L 341.971459 359.770378 
L 340.081297 360.172541 
L 335.818378 360.735568 
L 329.625081 361.13773 
L 314.061405 361.379027 
L 301.875892 361.459459 
L 299.824865 361.861622 
L 297.572757 362.62573 
L 292.022919 365.239784 
L 283.336216 369.462486 
L 279.274378 371.191784 
L 277.142919 371.714595 
L 275.53427 371.955892 
L 273.081081 372.116757 
L 271.190919 372.076541 
L 266.646486 371.634162 
L 262.906378 370.990703 
L 257.155459 369.784216 
L 251.123027 368.336432 
L 245.412324 366.888649 
L 241.551568 365.843027 
L 234.272432 363.872432 
L 228.320432 362.263784 
L 228.320432 362.263784 
" style="fill:none;stroke:#4757fb;stroke-linecap:square;stroke-width:1.5;"/>
   </g>
   <g id="line2d_40">
    <path clip-path="url(#pcc020c30b9)" d="M 402.175135 440.082162 
L 401.974054 440.122378 
L 401.933838 440.202811 
L 402.416432 439.076757 
L 402.537081 438.473514 
L 402.416432 437.106162 
L 401.853405 435.135568 
L 400.968649 432.963892 
L 399.36 429.907459 
L 397.429622 426.730378 
L 395.378595 423.593514 
L 384.600649 408.592865 
L 341.488865 350.480432 
L 339.920432 349.153297 
L 338.392216 348.107676 
L 334.893405 346.016432 
L 333.405405 344.809946 
L 331.877189 343.241514 
L 330.027243 340.908973 
L 328.780541 339.139459 
L 327.775135 337.490595 
L 327.011027 335.680865 
L 326.407784 333.589622 
L 325.965405 331.498378 
L 325.724108 329.366919 
L 325.764324 327.476757 
L 326.407784 324.380108 
L 326.448 322.047568 
L 326.005622 319.715027 
L 325.402378 317.664 
L 324.075243 314.084757 
L 323.753514 313.52173 
L 323.914378 313.602162 
L 324.115459 313.642378 
L 323.753514 313.763027 
L 322.989405 314.36627 
L 321.340541 316.658595 
L 319.892757 317.945514 
L 318.163459 318.910703 
L 316.595027 319.353081 
L 314.946162 319.393297 
L 314.86573 319.353081 
L 313.699459 318.387892 
L 311.447351 316.779243 
L 311.366919 316.49773 
L 311.125622 314.889081 
L 311.326703 312.677189 
L 311.88973 311.068541 
L 312.975568 309.178378 
L 315.388541 305.599135 
L 316.715676 304.231784 
L 317.801514 302.824216 
L 323.230703 292.126703 
L 324.799135 288.587676 
L 325.241514 286.617081 
L 325.28173 283.078054 
L 325.523027 281.469405 
L 325.804541 280.866162 
L 327.372973 279.780324 
L 330.550054 277.890162 
L 331.997838 276.764108 
L 333.485838 275.276108 
L 335.818378 272.099027 
L 338.915027 267.072 
L 341.368216 262.527568 
L 341.891027 260.79827 
L 341.971459 258.747243 
L 341.64973 256.97773 
L 340.925838 255.007135 
L 339.920432 252.875676 
L 338.03027 249.658378 
L 335.778162 246.360649 
L 333.284757 243.223784 
L 331.917405 241.615135 
L 330.59027 240.247784 
L 329.222919 239.001081 
L 327.775135 237.875027 
L 324.437189 235.743568 
L 319.490595 233.089297 
L 310.723459 229.027459 
L 297.934703 223.477622 
L 281.405838 216.439784 
L 276.016865 214.147459 
L 259.206486 206.988973 
L 242.918919 200.071784 
L 237.529946 197.739243 
L 232.342054 195.527351 
L 228.642162 193.958919 
L 228.642162 193.958919 
" style="fill:none;stroke:#0ea4f0;stroke-linecap:square;stroke-width:1.5;"/>
   </g>
   <g id="line2d_41">
    <path clip-path="url(#pcc020c30b9)" d="M 224.821622 136.047568 
L 226.832432 136.248649 
L 228.521514 136.811676 
L 230.693189 137.857297 
L 232.704 139.264865 
L 233.950703 140.310486 
L 235.720216 141.959351 
L 237.208216 143.527784 
L 241.31027 148.514595 
L 244.889514 153.219892 
L 248.227459 157.764324 
L 270.748541 189.132973 
L 275.252757 195.446919 
L 284.140541 207.87373 
L 286.352432 210.648649 
L 287.840432 212.136649 
L 292.626162 216.319135 
L 294.395676 217.404973 
L 296.406486 218.329946 
L 302.117189 221.386378 
L 305.414919 223.759135 
L 312.251676 229.308973 
L 317.318919 233.290378 
L 321.782919 237.110919 
L 323.592649 238.076108 
L 325.362162 238.558703 
L 327.574054 238.840216 
L 329.987027 239.483676 
L 333.445622 240.971676 
L 337.306378 242.902054 
L 339.196541 243.827027 
L 341.448649 244.671568 
L 345.47027 245.274811 
L 347.60173 245.878054 
L 349.331027 246.682378 
L 352.588541 248.612757 
L 357.293838 251.709405 
L 362.079568 255.168 
L 365.015351 257.540757 
L 369.238054 261.321081 
L 370.565189 262.648216 
L 371.852108 264.096 
L 373.139027 265.865514 
L 374.104216 267.514378 
L 375.632432 270.972973 
L 376.919351 274.83373 
L 377.844324 278.211892 
L 379.091027 283.681297 
L 379.975784 287.904 
L 381.101838 293.413622 
L 382.147459 298.963459 
L 384.037622 308.655568 
L 384.922378 310.827243 
L 385.807135 312.395676 
L 388.220108 315.773838 
L 389.426595 317.945514 
L 390.633081 320.96173 
L 391.558054 324.339892 
L 392.000432 326.471351 
L 392.603676 331.015784 
L 392.965622 334.755892 
L 393.448216 343.884973 
L 393.689514 351.646703 
L 393.769946 357.558486 
L 393.769946 357.558486 
" style="fill:none;stroke:#2adddd;stroke-linecap:square;stroke-width:1.5;"/>
   </g>
   <g id="line2d_42">
    <path clip-path="url(#pcc020c30b9)" d="M 450.032432 304.955676 
L 449.831351 304.995892 
L 449.670486 305.277405 
L 449.670486 304.995892 
L 449.509622 304.432865 
L 449.107459 303.668757 
L 448.14227 302.582919 
L 446.734703 301.497081 
L 444.522811 300.169946 
L 441.627243 298.923243 
L 437.846919 297.716757 
L 433.704649 296.590703 
L 423.529946 294.298378 
L 413.797622 292.287568 
L 384.118054 286.295351 
L 378.367135 285.209514 
L 376.637838 285.088865 
L 374.828108 285.129081 
L 371.208649 285.611676 
L 367.388108 286.375784 
L 365.940324 286.938811 
L 363.205622 288.467027 
L 360.068757 290.518054 
L 355.162378 293.775568 
L 352.266811 295.66573 
L 349.290811 298.32 
L 347.843027 299.647135 
L 346.234378 300.692757 
L 344.263784 301.657946 
L 342.252973 302.301405 
L 341.00627 302.542703 
L 338.231351 302.341622 
L 336.662919 301.818811 
L 334.491243 300.531892 
L 333.244541 299.446054 
L 331.957622 297.877622 
L 331.153297 296.188541 
L 329.584865 290.357189 
L 328.619676 288.869189 
L 327.533838 287.783351 
L 324.356757 285.772541 
L 322.707892 284.364973 
L 321.018811 283.238919 
L 319.088432 282.595459 
L 317.318919 282.434595 
L 315.107027 282.675892 
L 314.423351 283.037838 
L 312.694054 284.445405 
L 308.994162 289.110486 
L 307.626811 290.115892 
L 302.036757 293.132108 
L 299.945514 293.453838 
L 298.296649 293.373405 
L 294.114162 293.011459 
L 290.615351 292.931027 
L 286.674162 292.649514 
L 284.261189 292.166919 
L 280.440649 290.799568 
L 276.740757 289.271351 
L 273.282162 287.743135 
L 271.351784 287.180108 
L 269.783351 287.059459 
L 266.083459 287.139892 
L 260.493405 287.702919 
L 254.340324 288.306162 
L 250.037189 288.507243 
L 245.452541 288.467027 
L 240.908108 288.185514 
L 235.036541 287.421405 
L 231.055135 286.657297 
L 227.154162 285.692108 
L 223.293405 284.525838 
L 221.443459 283.842162 
L 219.995676 283.11827 
L 218.14573 281.952 
L 216.456649 280.584649 
L 215.049081 279.257514 
L 212.555676 276.402162 
L 210.182919 273.144649 
L 208.131892 269.967568 
L 205.92 266.307892 
L 201.616865 258.546162 
L 198.15827 251.87027 
L 198.15827 251.87027 
" style="fill:none;stroke:#63fbc3;stroke-linecap:square;stroke-width:1.5;"/>
   </g>
   <g id="line2d_43">
    <path clip-path="url(#pcc020c30b9)" d="M 140.367568 248.652973 
L 144.871784 248.733405 
L 149.456432 249.014919 
L 159.872432 250.020324 
L 165.462486 250.663784 
L 171.856865 251.347459 
L 180.905514 252.393081 
L 192.085622 253.68 
L 199.565838 254.524541 
L 206.281946 255.288649 
L 208.292757 255.168 
L 211.429622 254.645189 
L 217.180541 253.438703 
L 221.202162 253.197405 
L 224.982486 253.318054 
L 231.939892 253.921297 
L 234.674595 254.162595 
L 236.323459 254.00173 
L 238.656 253.559351 
L 242.556973 252.594162 
L 245.291676 252.473514 
L 246.940541 252.594162 
L 250.921946 253.318054 
L 255.385946 254.323459 
L 257.235892 254.564757 
L 262.866162 254.886486 
L 264.474811 255.208216 
L 266.566054 255.851676 
L 268.576865 256.776649 
L 271.190919 258.586378 
L 272.960432 259.792865 
L 276.620108 261.522162 
L 278.791784 262.165622 
L 280.601514 262.326486 
L 283.094919 262.809081 
L 284.824216 263.693838 
L 287.880649 265.865514 
L 289.56973 266.468757 
L 291.339243 266.710054 
L 293.108757 266.508973 
L 299.100973 264.699243 
L 302.559568 263.894919 
L 304.288865 263.291676 
L 307.264865 261.642811 
L 312.613622 258.063568 
L 318.243892 254.886486 
L 319.691676 254.162595 
L 321.702486 253.35827 
L 324.035027 252.553946 
L 325.844757 252.071351 
L 328.25773 251.628973 
L 330.147892 251.548541 
L 332.07827 251.628973 
L 336.099892 252.312649 
L 342.735568 254.162595 
L 354.116757 258.103784 
L 360.068757 260.637405 
L 371.490162 265.945946 
L 385.485405 272.742486 
L 390.793946 275.356541 
L 390.793946 275.356541 
" style="fill:none;stroke:#9cfba4;stroke-linecap:square;stroke-width:1.5;"/>
   </g>
   <g id="line2d_44">
    <path clip-path="url(#pcc020c30b9)" d="M 281.124324 192.35027 
L 281.285189 192.35027 
L 281.767784 192.511135 
L 282.451459 192.832865 
L 283.215568 193.556757 
L 284.060108 194.803459 
L 284.784 196.733838 
L 285.387243 199.106595 
L 285.708973 200.956541 
L 285.95027 203.128216 
L 286.111135 204.978162 
L 286.191568 207.149838 
L 286.231784 208.758486 
L 286.272 210.648649 
L 286.231784 212.780108 
L 286.231784 214.911568 
L 286.191568 216.80173 
L 286.111135 218.691892 
L 286.070919 220.823351 
L 285.990486 222.995027 
L 285.910054 224.603676 
L 285.869838 226.172108 
L 285.789405 228.06227 
L 285.708973 229.952432 
L 285.628541 231.561081 
L 285.588324 233.411027 
L 285.467676 235.582703 
L 285.387243 237.432649 
L 285.306811 239.322811 
L 285.226378 241.45427 
L 285.10573 243.625946 
L 285.025297 245.475892 
L 284.944865 247.366054 
L 284.864432 249.497514 
L 284.784 251.387676 
L 284.703568 252.996324 
L 284.623135 255.127784 
L 284.542703 256.736432 
L 284.46227 258.867892 
L 284.341622 261.039568 
L 284.261189 263.412324 
L 284.140541 265.584 
L 284.060108 267.433946 
L 283.979676 269.605622 
L 283.859027 271.737081 
L 283.778595 273.868541 
L 283.698162 275.758703 
L 283.61773 277.367351 
L 283.537297 279.498811 
L 283.456865 281.107459 
L 283.376432 282.997622 
L 283.296 284.847568 
L 283.175351 286.979027 
L 283.094919 289.150703 
L 282.97427 291.563676 
L 282.893838 293.695135 
L 282.813405 295.02227 
L 282.893838 296.711351 
L 283.094919 298.239568 
L 283.376432 299.808 
L 283.778595 301.336216 
L 284.261189 303.145946 
L 284.824216 304.915459 
L 285.387243 306.725189 
L 285.990486 308.776216 
L 286.473081 310.304432 
L 286.955676 312.154378 
L 287.43827 314.245622 
L 287.840432 316.095568 
L 288.08173 317.623784 
L 288.08173 318.347676 
L 288.041514 318.83027 
L 287.961081 319.433514 
L 287.76 320.076973 
L 287.478486 320.841081 
L 286.915459 321.605189 
L 285.628541 322.570378 
L 284.663351 323.012757 
L 283.657946 323.455135 
L 283.014486 323.857297 
L 282.531892 324.219243 
L 282.210162 324.540973 
L 281.888432 324.983351 
L 281.405838 325.626811 
L 280.923243 326.511568 
L 280.32 327.75827 
L 279.99827 328.602811 
L 279.756973 329.206054 
" style="fill:none;stroke:#d4dd80;stroke-linecap:square;stroke-width:1.5;"/>
   </g>
   <g id="line2d_45">
    <path clip-path="url(#pcc020c30b9)" d="M 140.367568 304.955676 
L 142.981622 304.915459 
L 146.963027 304.633946 
L 150.703135 304.231784 
L 158.62573 303.065514 
L 165.784216 301.899243 
L 205.477622 294.982054 
L 207.810162 294.982054 
L 209.981838 295.183135 
L 213.400216 295.746162 
L 215.250162 295.947243 
L 217.341405 296.027676 
L 221.081514 295.826595 
L 227.154162 295.02227 
L 231.819243 294.298378 
L 235.197405 294.419027 
L 239.460324 294.941838 
L 241.551568 295.02227 
L 244.608 294.780973 
L 247.141622 294.137514 
L 249.474162 293.494054 
L 252.088216 293.091892 
L 254.018595 292.810378 
L 257.396757 292.247351 
L 262.383568 291.885405 
L 264.153081 291.563676 
L 266.405189 290.839784 
L 268.054054 290.075676 
L 271.593081 287.823568 
L 274.649514 285.692108 
L 275.976649 285.209514 
L 277.223351 285.008432 
L 280.521081 285.24973 
L 281.888432 285.812757 
L 282.531892 286.134486 
L 282.934054 286.134486 
L 283.698162 285.933405 
L 284.703568 285.24973 
L 285.588324 284.324757 
L 286.432865 282.796541 
L 286.915459 281.308541 
L 287.156757 280.061838 
L 287.398054 275.075027 
L 288.121946 272.943568 
L 288.966486 271.536 
L 290.494703 269.927351 
L 291.821838 268.921946 
L 293.792432 267.916541 
L 295.602162 267.232865 
L 297.411892 266.669838 
L 299.503135 266.147027 
L 301.393297 265.825297 
L 303.846486 265.664432 
L 305.776865 265.785081 
L 307.264865 266.106811 
L 308.310486 266.589405 
L 308.793081 267.031784 
L 308.994162 267.353514 
L 309.275676 268.479568 
L 309.275676 270.611027 
L 308.793081 272.501189 
L 308.793081 272.501189 
" style="fill:none;stroke:#ffa457;stroke-linecap:square;stroke-width:1.5;"/>
   </g>
   <g id="line2d_46">
    <path clip-path="url(#pcc020c30b9)" d="M 393.72973 220.501622 
L 393.971027 220.582054 
L 394.091676 220.783135 
L 394.091676 221.26573 
L 393.971027 221.868973 
L 393.568865 222.75373 
L 392.925405 223.678703 
L 391.477622 225.046054 
L 389.708108 226.252541 
L 387.817946 227.257946 
L 384.077838 228.70573 
L 380.458378 229.831784 
L 374.707459 231.239351 
L 361.315459 234.01427 
L 342.896432 237.593514 
L 327.775135 240.529297 
L 325.482811 241.212973 
L 319.490595 243.827027 
L 317.359135 244.43027 
L 315.066811 244.872649 
L 311.24627 245.958486 
L 305.133405 247.969297 
L 302.760649 248.532324 
L 300.629189 248.854054 
L 298.698811 248.974703 
L 296.808649 248.854054 
L 294.918486 248.331243 
L 292.947892 247.325838 
L 291.218595 245.91827 
L 289.931676 244.108541 
L 289.046919 242.419459 
L 288.001297 240.690162 
L 286.432865 238.920649 
L 283.135135 236.467459 
L 281.405838 235.783784 
L 279.234162 235.140324 
L 274.207135 233.250162 
L 272.236541 232.284973 
L 270.386595 231.078486 
L 269.019243 230.032865 
L 267.450811 229.188324 
L 265.681297 228.544865 
L 263.992216 227.700324 
L 262.464 226.614486 
L 260.976 225.769946 
L 259.488 225.287351 
L 256.150054 224.724324 
L 252.168649 224.362378 
L 247.945946 224.322162 
L 242.878703 224.684108 
L 239.178811 225.126486 
L 230.130162 226.614486 
L 218.950054 227.740541 
L 217.140324 228.022054 
L 215.370811 228.464432 
L 213.601297 229.027459 
L 210.182919 230.515459 
L 206.885189 232.244757 
L 200.249514 236.266378 
L 173.103568 254.484324 
L 162.044108 262.044973 
L 153.598703 267.795892 
L 142.981622 275.034811 
L 142.981622 275.034811 
" style="fill:none;stroke:#ff572c;stroke-linecap:square;stroke-width:1.5;"/>
   </g>
   <g id="line2d_47">
    <path clip-path="url(#pcc020c30b9)" d="M 140.367568 136.047568 
L 141.171892 136.047568 
L 142.981622 136.248649 
L 145.314162 136.932324 
L 147.083676 137.736649 
L 149.215135 138.943135 
L 150.783568 139.988757 
L 152.271568 141.155027 
L 153.960649 142.522378 
L 155.368216 143.769081 
L 156.936649 145.257081 
L 158.263784 146.544 
L 159.792 148.072216 
L 160.918054 149.19827 
L 162.44627 150.766703 
L 163.532108 151.892757 
L 165.020108 153.461189 
L 166.146162 154.627459 
L 167.593946 156.195892 
L 169.242811 157.965405 
L 170.328649 159.131676 
L 171.454703 160.338162 
L 172.701405 161.705514 
L 173.988324 163.072865 
L 175.436108 164.641297 
L 177.084973 166.410811 
L 178.371892 167.778162 
L 179.980541 169.547676 
L 181.267459 170.955243 
L 182.554378 172.322595 
L 183.801081 173.689946 
L 185.088 175.097514 
L 186.374919 176.464865 
L 187.621622 177.832216 
L 188.908541 179.239784 
L 190.356324 180.808216 
L 192.005189 182.57773 
L 193.091027 183.744 
L 194.176865 184.950486 
L 195.463784 186.317838 
L 196.710486 187.685189 
L 197.997405 189.052541 
L 199.083243 190.259027 
L 200.169081 191.425297 
L 201.456 192.832865 
L 202.903784 194.401297 
L 204.351568 195.96973 
L 205.638486 197.337081 
L 206.925405 198.744649 
L 208.534054 200.514162 
L 209.820973 201.881514 
L 211.469838 203.651027 
L 212.917622 205.219459 
L 214.365405 206.787892 
L 215.451243 207.994378 
L 216.537081 209.160649 
L 217.984865 210.729081 
L 219.271784 212.136649 
L 220.357622 213.302919 
L 221.443459 214.469189 
L 222.891243 216.077838 
L 224.379243 217.64627 
L 225.827027 219.214703 
L 227.274811 220.783135 
L 228.722595 222.391784 
L 230.009514 223.759135 
L 231.618162 225.528649 
L 232.905081 226.896 
L 233.990919 228.102486 
L 235.438703 229.670919 
L 236.725622 231.03827 
L 238.012541 232.405622 
L 239.621189 234.175135 
L 240.908108 235.582703 
L 242.195027 236.950054 
L 243.642811 238.518486 
L 244.768865 239.845622 
L 246.096 241.896649 
L 246.900324 243.625946 
L 247.584 245.395459 
L 248.307892 247.40627 
L 249.152432 249.296432 
" style="fill:none;stroke:#ff0000;stroke-linecap:square;stroke-width:1.5;"/>
   </g>
   <g id="patch_3">
    <path d="M 72 512.64 
L 72 69.12 
" style="fill:none;stroke:#000000;stroke-linecap:square;stroke-linejoin:miter;stroke-width:0.8;"/>
   </g>
   <g id="patch_4">
    <path d="M 518.4 512.64 
L 518.4 69.12 
" style="fill:none;stroke:#000000;stroke-linecap:square;stroke-linejoin:miter;stroke-width:0.8;"/>
   </g>
   <g id="patch_5">
    <path d="M 72 512.64 
L 518.4 512.64 
" style="fill:none;stroke:#000000;stroke-linecap:square;stroke-linejoin:miter;stroke-width:0.8;"/>
   </g>
   <g id="patch_6">
    <path d="M 72 69.12 
L 518.4 69.12 
" style="fill:none;stroke:#000000;stroke-linecap:square;stroke-linejoin:miter;stroke-width:0.8;"/>
   </g>
   <g id="text_13">
    <!-- 1 -->
    <defs>
     <path d="M 14.203125 0 
L 14.203125 5.171875 
L 26.90625 5.171875 
L 26.90625 65.828125 
L 12.203125 56.296875 
L 12.203125 62.703125 
L 29.984375 74.21875 
L 36.71875 74.21875 
L 36.71875 5.171875 
L 49.421875 5.171875 
L 49.421875 0 
z
" id="DejaVuSerif-31"/>
    </defs>
    <g transform="translate(137.186318 389.40973)scale(0.1 -0.1)">
     <use xlink:href="#DejaVuSerif-31"/>
    </g>
   </g>
   <g id="text_14">
    <!-- 1 -->
    <g transform="translate(390.54848 192.35027)scale(0.1 -0.1)">
     <use xlink:href="#DejaVuSerif-31"/>
    </g>
   </g>
   <g id="text_15">
    <!-- 2 -->
    <defs>
     <path d="M 12.796875 55.515625 
L 7.328125 55.515625 
L 7.328125 68.5 
Q 12.546875 71.296875 17.84375 72.75 
Q 23.140625 74.21875 28.21875 74.21875 
Q 39.59375 74.21875 46.1875 68.703125 
Q 52.78125 63.1875 52.78125 53.71875 
Q 52.78125 43.015625 37.84375 28.125 
Q 36.671875 27 36.078125 26.421875 
L 17.671875 8.015625 
L 48.09375 8.015625 
L 48.09375 17 
L 53.8125 17 
L 53.8125 0 
L 6.78125 0 
L 6.78125 5.328125 
L 28.90625 27.390625 
Q 36.234375 34.71875 39.359375 40.84375 
Q 42.484375 46.96875 42.484375 53.71875 
Q 42.484375 61.078125 38.640625 65.234375 
Q 34.8125 69.390625 28.078125 69.390625 
Q 21.09375 69.390625 17.28125 65.921875 
Q 13.484375 62.453125 12.796875 55.515625 
z
" id="DejaVuSerif-32"/>
    </defs>
    <g transform="translate(446.851182 192.35027)scale(0.1 -0.1)">
     <use xlink:href="#DejaVuSerif-32"/>
    </g>
   </g>
   <g id="text_16">
    <!-- 2 -->
    <g transform="translate(221.640372 361.258378)scale(0.1 -0.1)">
     <use xlink:href="#DejaVuSerif-32"/>
    </g>
   </g>
   <g id="text_17">
    <!-- 3 -->
    <defs>
     <path d="M 9.71875 69.828125 
Q 15.4375 71.96875 20.671875 73.09375 
Q 25.921875 74.21875 30.515625 74.21875 
Q 41.21875 74.21875 47.21875 69.59375 
Q 53.21875 64.984375 53.21875 56.78125 
Q 53.21875 50.203125 49.0625 45.78125 
Q 44.921875 41.359375 37.3125 39.796875 
Q 46.296875 38.53125 51.25 33.28125 
Q 56.203125 28.03125 56.203125 19.671875 
Q 56.203125 9.46875 49.34375 4.015625 
Q 42.484375 -1.421875 29.59375 -1.421875 
Q 23.875 -1.421875 18.421875 -0.1875 
Q 12.984375 1.03125 7.625 3.515625 
L 7.625 17.671875 
L 13.09375 17.671875 
Q 13.578125 10.640625 17.828125 7.03125 
Q 22.078125 3.421875 29.78125 3.421875 
Q 37.25 3.421875 41.578125 7.734375 
Q 45.90625 12.0625 45.90625 19.578125 
Q 45.90625 28.171875 41.453125 32.59375 
Q 37.015625 37.015625 28.421875 37.015625 
L 23.78125 37.015625 
L 23.78125 42 
L 26.21875 42 
Q 34.765625 42 39.03125 45.53125 
Q 43.3125 49.078125 43.3125 56.203125 
Q 43.3125 62.59375 39.796875 65.984375 
Q 36.28125 69.390625 29.6875 69.390625 
Q 23.09375 69.390625 19.453125 66.265625 
Q 15.828125 63.140625 15.1875 56.984375 
L 9.71875 56.984375 
z
" id="DejaVuSerif-33"/>
    </defs>
    <g transform="translate(398.993885 440.082162)scale(0.1 -0.1)">
     <use xlink:href="#DejaVuSerif-33"/>
    </g>
   </g>
   <g id="text_18">
    <!-- 3 -->
    <g transform="translate(221.640372 192.35027)scale(0.1 -0.1)">
     <use xlink:href="#DejaVuSerif-33"/>
    </g>
   </g>
   <g id="text_19">
    <!-- 4 -->
    <defs>
     <path d="M 34.90625 24.703125 
L 34.90625 63.484375 
L 10.015625 24.703125 
z
M 56.390625 0 
L 23.1875 0 
L 23.1875 5.171875 
L 34.90625 5.171875 
L 34.90625 19.484375 
L 3.078125 19.484375 
L 3.078125 24.8125 
L 35.015625 74.21875 
L 44.671875 74.21875 
L 44.671875 24.703125 
L 58.59375 24.703125 
L 58.59375 19.484375 
L 44.671875 19.484375 
L 44.671875 5.171875 
L 56.390625 5.171875 
z
" id="DejaVuSerif-34"/>
    </defs>
    <g transform="translate(221.640372 136.047568)scale(0.1 -0.1)">
     <use xlink:href="#DejaVuSerif-34"/>
    </g>
   </g>
   <g id="text_20">
    <!-- 4 -->
    <g transform="translate(390.54848 361.258378)scale(0.1 -0.1)">
     <use xlink:href="#DejaVuSerif-34"/>
    </g>
   </g>
   <g id="text_21">
    <!-- 5 -->
    <defs>
     <path d="M 50.296875 72.90625 
L 50.296875 64.890625 
L 16.890625 64.890625 
L 16.890625 44 
Q 19.4375 45.75 22.828125 46.625 
Q 26.21875 47.515625 30.421875 47.515625 
Q 42.234375 47.515625 49.0625 40.96875 
Q 55.90625 34.421875 55.90625 23.09375 
Q 55.90625 11.53125 49 5.046875 
Q 42.09375 -1.421875 29.59375 -1.421875 
Q 24.5625 -1.421875 19.28125 -0.1875 
Q 14.015625 1.03125 8.5 3.515625 
L 8.5 17.671875 
L 14.015625 17.671875 
Q 14.453125 10.75 18.421875 7.078125 
Q 22.40625 3.421875 29.59375 3.421875 
Q 37.3125 3.421875 41.453125 8.5 
Q 45.609375 13.578125 45.609375 23.09375 
Q 45.609375 32.5625 41.484375 37.609375 
Q 37.359375 42.671875 29.59375 42.671875 
Q 25.203125 42.671875 21.84375 41.109375 
Q 18.5 39.546875 15.921875 36.28125 
L 11.71875 36.28125 
L 11.71875 72.90625 
z
" id="DejaVuSerif-35"/>
    </defs>
    <g transform="translate(446.851182 304.955676)scale(0.1 -0.1)">
     <use xlink:href="#DejaVuSerif-35"/>
    </g>
   </g>
   <g id="text_22">
    <!-- 5 -->
    <g transform="translate(193.48902 248.652973)scale(0.1 -0.1)">
     <use xlink:href="#DejaVuSerif-35"/>
    </g>
   </g>
   <g id="text_23">
    <!-- 6 -->
    <defs>
     <path d="M 32.71875 3.421875 
Q 39.59375 3.421875 43.296875 8.46875 
Q 47.015625 13.53125 47.015625 23 
Q 47.015625 32.46875 43.296875 37.515625 
Q 39.59375 42.578125 32.71875 42.578125 
Q 25.734375 42.578125 22.0625 37.6875 
Q 18.40625 32.8125 18.40625 23.578125 
Q 18.40625 13.875 22.109375 8.640625 
Q 25.828125 3.421875 32.71875 3.421875 
z
M 16.796875 40.140625 
Q 20.125 43.796875 24.3125 45.59375 
Q 28.515625 47.40625 33.796875 47.40625 
Q 44.671875 47.40625 51 40.859375 
Q 57.328125 34.328125 57.328125 23 
Q 57.328125 11.921875 50.515625 5.25 
Q 43.703125 -1.421875 32.328125 -1.421875 
Q 19.96875 -1.421875 13.328125 7.78125 
Q 6.6875 17 6.6875 34.078125 
Q 6.6875 53.21875 14.546875 63.71875 
Q 22.40625 74.21875 36.71875 74.21875 
Q 40.578125 74.21875 44.828125 73.484375 
Q 49.078125 72.75 53.515625 71.296875 
L 53.515625 59.28125 
L 48 59.28125 
Q 47.40625 64.203125 44.234375 66.796875 
Q 41.0625 69.390625 35.6875 69.390625 
Q 26.21875 69.390625 21.578125 62.203125 
Q 16.9375 55.03125 16.796875 40.140625 
z
" id="DejaVuSerif-36"/>
    </defs>
    <g transform="translate(137.186318 248.652973)scale(0.1 -0.1)">
     <use xlink:href="#DejaVuSerif-36"/>
    </g>
   </g>
   <g id="text_24">
    <!-- 6 -->
    <g transform="translate(390.54848 276.804324)scale(0.1 -0.1)">
     <use xlink:href="#DejaVuSerif-36"/>
    </g>
   </g>
   <g id="text_25">
    <!-- 7 -->
    <defs>
     <path d="M 56.390625 67.921875 
L 27.875 0 
L 20.609375 0 
L 47.796875 64.890625 
L 14.109375 64.890625 
L 14.109375 55.90625 
L 8.40625 55.90625 
L 8.40625 72.90625 
L 56.390625 72.90625 
z
" id="DejaVuSerif-37"/>
    </defs>
    <g transform="translate(277.943074 192.35027)scale(0.1 -0.1)">
     <use xlink:href="#DejaVuSerif-37"/>
    </g>
   </g>
   <g id="text_26">
    <!-- 7 -->
    <g transform="translate(277.943074 333.107027)scale(0.1 -0.1)">
     <use xlink:href="#DejaVuSerif-37"/>
    </g>
   </g>
   <g id="text_27">
    <!-- 8 -->
    <defs>
     <path d="M 46.578125 19.921875 
Q 46.578125 27.734375 42.6875 32.046875 
Q 38.8125 36.375 31.78125 36.375 
Q 24.75 36.375 20.875 32.046875 
Q 17 27.734375 17 19.921875 
Q 17 12.0625 20.875 7.734375 
Q 24.75 3.421875 31.78125 3.421875 
Q 38.8125 3.421875 42.6875 7.734375 
Q 46.578125 12.0625 46.578125 19.921875 
z
M 44.578125 55.328125 
Q 44.578125 61.96875 41.203125 65.671875 
Q 37.84375 69.390625 31.78125 69.390625 
Q 25.78125 69.390625 22.390625 65.671875 
Q 19 61.96875 19 55.328125 
Q 19 48.640625 22.390625 44.921875 
Q 25.78125 41.21875 31.78125 41.21875 
Q 37.84375 41.21875 41.203125 44.921875 
Q 44.578125 48.640625 44.578125 55.328125 
z
M 39.3125 38.8125 
Q 47.609375 37.703125 52.25 32.6875 
Q 56.890625 27.6875 56.890625 19.921875 
Q 56.890625 9.671875 50.390625 4.125 
Q 43.890625 -1.421875 31.78125 -1.421875 
Q 19.734375 -1.421875 13.203125 4.125 
Q 6.6875 9.671875 6.6875 19.921875 
Q 6.6875 27.6875 11.328125 32.6875 
Q 15.96875 37.703125 24.3125 38.8125 
Q 16.9375 40.140625 13 44.40625 
Q 9.078125 48.6875 9.078125 55.328125 
Q 9.078125 64.109375 15.125 69.15625 
Q 21.1875 74.21875 31.78125 74.21875 
Q 42.390625 74.21875 48.4375 69.15625 
Q 54.5 64.109375 54.5 55.328125 
Q 54.5 48.6875 50.5625 44.40625 
Q 46.625 40.140625 39.3125 38.8125 
z
" id="DejaVuSerif-38"/>
    </defs>
    <g transform="translate(137.186318 304.955676)scale(0.1 -0.1)">
     <use xlink:href="#DejaVuSerif-38"/>
    </g>
   </g>
   <g id="text_28">
    <!-- 8 -->
    <g transform="translate(306.094426 276.804324)scale(0.1 -0.1)">
     <use xlink:href="#DejaVuSerif-38"/>
    </g>
   </g>
   <g id="text_29">
    <!-- 9 -->
    <defs>
     <path d="M 46.78125 32.671875 
Q 43.5 29 39.25 27.1875 
Q 35.015625 25.390625 29.6875 25.390625 
Q 18.84375 25.390625 12.5625 31.9375 
Q 6.296875 38.484375 6.296875 49.8125 
Q 6.296875 60.890625 13.109375 67.546875 
Q 19.921875 74.21875 31.296875 74.21875 
Q 43.65625 74.21875 50.265625 65.015625 
Q 56.890625 55.8125 56.890625 38.71875 
Q 56.890625 19.578125 49.015625 9.078125 
Q 41.15625 -1.421875 26.90625 -1.421875 
Q 23.046875 -1.421875 18.796875 -0.6875 
Q 14.546875 0.046875 10.109375 1.515625 
L 10.109375 13.625 
L 15.578125 13.625 
Q 16.21875 8.6875 19.390625 6.046875 
Q 22.5625 3.421875 27.875 3.421875 
Q 37.359375 3.421875 41.984375 10.5625 
Q 46.625 17.71875 46.78125 32.671875 
z
M 30.90625 69.390625 
Q 23.96875 69.390625 20.28125 64.328125 
Q 16.609375 59.28125 16.609375 49.8125 
Q 16.609375 40.328125 20.28125 35.25 
Q 23.96875 30.171875 30.90625 30.171875 
Q 37.84375 30.171875 41.53125 35.078125 
Q 45.21875 39.984375 45.21875 49.21875 
Q 45.21875 58.9375 41.5 64.15625 
Q 37.796875 69.390625 30.90625 69.390625 
z
" id="DejaVuSerif-39"/>
    </defs>
    <g transform="translate(390.54848 220.501622)scale(0.1 -0.1)">
     <use xlink:href="#DejaVuSerif-39"/>
    </g>
   </g>
   <g id="text_30">
    <!-- 9 -->
    <g transform="translate(137.186318 276.804324)scale(0.1 -0.1)">
     <use xlink:href="#DejaVuSerif-39"/>
    </g>
   </g>
   <g id="text_31">
    <!-- 10 -->
    <defs>
     <path d="M 31.78125 3.421875 
Q 39.265625 3.421875 42.96875 11.625 
Q 46.6875 19.828125 46.6875 36.375 
Q 46.6875 52.984375 42.96875 61.1875 
Q 39.265625 69.390625 31.78125 69.390625 
Q 24.3125 69.390625 20.59375 61.1875 
Q 16.890625 52.984375 16.890625 36.375 
Q 16.890625 19.828125 20.59375 11.625 
Q 24.3125 3.421875 31.78125 3.421875 
z
M 31.78125 -1.421875 
Q 19.921875 -1.421875 13.25 8.53125 
Q 6.59375 18.5 6.59375 36.375 
Q 6.59375 54.296875 13.25 64.25 
Q 19.921875 74.21875 31.78125 74.21875 
Q 43.703125 74.21875 50.34375 64.25 
Q 56.984375 54.296875 56.984375 36.375 
Q 56.984375 18.5 50.34375 8.53125 
Q 43.703125 -1.421875 31.78125 -1.421875 
z
" id="DejaVuSerif-30"/>
    </defs>
    <g transform="translate(134.005068 136.047568)scale(0.1 -0.1)">
     <use xlink:href="#DejaVuSerif-31"/>
     <use x="63.623047" xlink:href="#DejaVuSerif-30"/>
    </g>
   </g>
   <g id="text_32">
    <!-- 10 -->
    <g transform="translate(246.610473 248.652973)scale(0.1 -0.1)">
     <use xlink:href="#DejaVuSerif-31"/>
     <use x="63.623047" xlink:href="#DejaVuSerif-30"/>
    </g>
   </g>
   <g id="text_33">
    <!-- MRPP -->
    <defs>
     <path d="M 9.8125 72.90625 
L 24.515625 72.90625 
L 43.109375 23.296875 
L 61.8125 72.90625 
L 76.515625 72.90625 
L 76.515625 0 
L 66.890625 0 
L 66.890625 64.015625 
L 48.09375 14.015625 
L 38.1875 14.015625 
L 19.390625 64.015625 
L 19.390625 0 
L 9.8125 0 
z
" id="DejaVuSans-4d"/>
     <path d="M 44.390625 34.1875 
Q 47.5625 33.109375 50.5625 29.59375 
Q 53.5625 26.078125 56.59375 19.921875 
L 66.609375 0 
L 56 0 
L 46.6875 18.703125 
Q 43.0625 26.03125 39.671875 28.421875 
Q 36.28125 30.8125 30.421875 30.8125 
L 19.671875 30.8125 
L 19.671875 0 
L 9.8125 0 
L 9.8125 72.90625 
L 32.078125 72.90625 
Q 44.578125 72.90625 50.734375 67.671875 
Q 56.890625 62.453125 56.890625 51.90625 
Q 56.890625 45.015625 53.6875 40.46875 
Q 50.484375 35.9375 44.390625 34.1875 
z
M 19.671875 64.796875 
L 19.671875 38.921875 
L 32.078125 38.921875 
Q 39.203125 38.921875 42.84375 42.21875 
Q 46.484375 45.515625 46.484375 51.90625 
Q 46.484375 58.296875 42.84375 61.546875 
Q 39.203125 64.796875 32.078125 64.796875 
z
" id="DejaVuSans-52"/>
     <path d="M 19.671875 64.796875 
L 19.671875 37.40625 
L 32.078125 37.40625 
Q 38.96875 37.40625 42.71875 40.96875 
Q 46.484375 44.53125 46.484375 51.125 
Q 46.484375 57.671875 42.71875 61.234375 
Q 38.96875 64.796875 32.078125 64.796875 
z
M 9.8125 72.90625 
L 32.078125 72.90625 
Q 44.34375 72.90625 50.609375 67.359375 
Q 56.890625 61.8125 56.890625 51.125 
Q 56.890625 40.328125 50.609375 34.8125 
Q 44.34375 29.296875 32.078125 29.296875 
L 19.671875 29.296875 
L 19.671875 0 
L 9.8125 0 
z
" id="DejaVuSans-50"/>
    </defs>
    <g transform="translate(278.618437 63.12)scale(0.12 -0.12)">
     <use xlink:href="#DejaVuSans-4d"/>
     <use x="86.279297" xlink:href="#DejaVuSans-52"/>
     <use x="155.761719" xlink:href="#DejaVuSans-50"/>
     <use x="216.064453" xlink:href="#DejaVuSans-50"/>
    </g>
   </g>
  </g>
 </g>
 <defs>
  <clipPath id="pcc020c30b9">
   <rect height="443.52" width="446.4" x="72" y="69.12"/>
  </clipPath>
 </defs>
</svg>
