<?xml version="1.0" encoding="utf-8" standalone="no"?>
<!DOCTYPE svg PUBLIC "-//W3C//DTD SVG 1.1//EN"
  "http://www.w3.org/Graphics/SVG/1.1/DTD/svg11.dtd">
<!-- Created with matplotlib (http://matplotlib.org/) -->
<svg height="576pt" version="1.1" viewBox="0 0 576 576" width="576pt" xmlns="http://www.w3.org/2000/svg" xmlns:xlink="http://www.w3.org/1999/xlink">
 <defs>
  <style type="text/css">
*{stroke-linecap:butt;stroke-linejoin:round;}
  </style>
 </defs>
 <g id="figure_1">
  <g id="patch_1">
   <path d="M 0 576 
L 576 576 
L 576 0 
L 0 0 
z
" style="fill:#ffffff;"/>
  </g>
  <g id="axes_1">
   <g id="patch_2">
    <path d="M 72 512.64 
L 518.4 512.64 
L 518.4 69.12 
L 72 69.12 
z
" style="fill:#ffffff;"/>
   </g>
   <g id="matplotlib.axis_1">
    <g id="xtick_1">
     <g id="line2d_1">
      <defs>
       <path d="M 0 0 
L 0 3.5 
" id="m23625e249e" style="stroke:#000000;stroke-width:0.8;"/>
      </defs>
      <g>
       <use style="stroke:#000000;stroke-width:0.8;" x="112.216216" xlink:href="#m23625e249e" y="512.64"/>
      </g>
     </g>
     <g id="text_1">
      <!-- 0 -->
      <defs>
       <path d="M 31.78125 66.40625 
Q 24.171875 66.40625 20.328125 58.90625 
Q 16.5 51.421875 16.5 36.375 
Q 16.5 21.390625 20.328125 13.890625 
Q 24.171875 6.390625 31.78125 6.390625 
Q 39.453125 6.390625 43.28125 13.890625 
Q 47.125 21.390625 47.125 36.375 
Q 47.125 51.421875 43.28125 58.90625 
Q 39.453125 66.40625 31.78125 66.40625 
z
M 31.78125 74.21875 
Q 44.046875 74.21875 50.515625 64.515625 
Q 56.984375 54.828125 56.984375 36.375 
Q 56.984375 17.96875 50.515625 8.265625 
Q 44.046875 -1.421875 31.78125 -1.421875 
Q 19.53125 -1.421875 13.0625 8.265625 
Q 6.59375 17.96875 6.59375 36.375 
Q 6.59375 54.828125 13.0625 64.515625 
Q 19.53125 74.21875 31.78125 74.21875 
z
" id="DejaVuSans-30"/>
      </defs>
      <g transform="translate(109.034966 527.238438)scale(0.1 -0.1)">
       <use xlink:href="#DejaVuSans-30"/>
      </g>
     </g>
    </g>
    <g id="xtick_2">
     <g id="line2d_2">
      <g>
       <use style="stroke:#000000;stroke-width:0.8;" x="192.648649" xlink:href="#m23625e249e" y="512.64"/>
      </g>
     </g>
     <g id="text_2">
      <!-- 2 -->
      <defs>
       <path d="M 19.1875 8.296875 
L 53.609375 8.296875 
L 53.609375 0 
L 7.328125 0 
L 7.328125 8.296875 
Q 12.9375 14.109375 22.625 23.890625 
Q 32.328125 33.6875 34.8125 36.53125 
Q 39.546875 41.84375 41.421875 45.53125 
Q 43.3125 49.21875 43.3125 52.78125 
Q 43.3125 58.59375 39.234375 62.25 
Q 35.15625 65.921875 28.609375 65.921875 
Q 23.96875 65.921875 18.8125 64.3125 
Q 13.671875 62.703125 7.8125 59.421875 
L 7.8125 69.390625 
Q 13.765625 71.78125 18.9375 73 
Q 24.125 74.21875 28.421875 74.21875 
Q 39.75 74.21875 46.484375 68.546875 
Q 53.21875 62.890625 53.21875 53.421875 
Q 53.21875 48.921875 51.53125 44.890625 
Q 49.859375 40.875 45.40625 35.40625 
Q 44.1875 33.984375 37.640625 27.21875 
Q 31.109375 20.453125 19.1875 8.296875 
z
" id="DejaVuSans-32"/>
      </defs>
      <g transform="translate(189.467399 527.238438)scale(0.1 -0.1)">
       <use xlink:href="#DejaVuSans-32"/>
      </g>
     </g>
    </g>
    <g id="xtick_3">
     <g id="line2d_3">
      <g>
       <use style="stroke:#000000;stroke-width:0.8;" x="273.081081" xlink:href="#m23625e249e" y="512.64"/>
      </g>
     </g>
     <g id="text_3">
      <!-- 4 -->
      <defs>
       <path d="M 37.796875 64.3125 
L 12.890625 25.390625 
L 37.796875 25.390625 
z
M 35.203125 72.90625 
L 47.609375 72.90625 
L 47.609375 25.390625 
L 58.015625 25.390625 
L 58.015625 17.1875 
L 47.609375 17.1875 
L 47.609375 0 
L 37.796875 0 
L 37.796875 17.1875 
L 4.890625 17.1875 
L 4.890625 26.703125 
z
" id="DejaVuSans-34"/>
      </defs>
      <g transform="translate(269.899831 527.238438)scale(0.1 -0.1)">
       <use xlink:href="#DejaVuSans-34"/>
      </g>
     </g>
    </g>
    <g id="xtick_4">
     <g id="line2d_4">
      <g>
       <use style="stroke:#000000;stroke-width:0.8;" x="353.513514" xlink:href="#m23625e249e" y="512.64"/>
      </g>
     </g>
     <g id="text_4">
      <!-- 6 -->
      <defs>
       <path d="M 33.015625 40.375 
Q 26.375 40.375 22.484375 35.828125 
Q 18.609375 31.296875 18.609375 23.390625 
Q 18.609375 15.53125 22.484375 10.953125 
Q 26.375 6.390625 33.015625 6.390625 
Q 39.65625 6.390625 43.53125 10.953125 
Q 47.40625 15.53125 47.40625 23.390625 
Q 47.40625 31.296875 43.53125 35.828125 
Q 39.65625 40.375 33.015625 40.375 
z
M 52.59375 71.296875 
L 52.59375 62.3125 
Q 48.875 64.0625 45.09375 64.984375 
Q 41.3125 65.921875 37.59375 65.921875 
Q 27.828125 65.921875 22.671875 59.328125 
Q 17.53125 52.734375 16.796875 39.40625 
Q 19.671875 43.65625 24.015625 45.921875 
Q 28.375 48.1875 33.59375 48.1875 
Q 44.578125 48.1875 50.953125 41.515625 
Q 57.328125 34.859375 57.328125 23.390625 
Q 57.328125 12.15625 50.6875 5.359375 
Q 44.046875 -1.421875 33.015625 -1.421875 
Q 20.359375 -1.421875 13.671875 8.265625 
Q 6.984375 17.96875 6.984375 36.375 
Q 6.984375 53.65625 15.1875 63.9375 
Q 23.390625 74.21875 37.203125 74.21875 
Q 40.921875 74.21875 44.703125 73.484375 
Q 48.484375 72.75 52.59375 71.296875 
z
" id="DejaVuSans-36"/>
      </defs>
      <g transform="translate(350.332264 527.238438)scale(0.1 -0.1)">
       <use xlink:href="#DejaVuSans-36"/>
      </g>
     </g>
    </g>
    <g id="xtick_5">
     <g id="line2d_5">
      <g>
       <use style="stroke:#000000;stroke-width:0.8;" x="433.945946" xlink:href="#m23625e249e" y="512.64"/>
      </g>
     </g>
     <g id="text_5">
      <!-- 8 -->
      <defs>
       <path d="M 31.78125 34.625 
Q 24.75 34.625 20.71875 30.859375 
Q 16.703125 27.09375 16.703125 20.515625 
Q 16.703125 13.921875 20.71875 10.15625 
Q 24.75 6.390625 31.78125 6.390625 
Q 38.8125 6.390625 42.859375 10.171875 
Q 46.921875 13.96875 46.921875 20.515625 
Q 46.921875 27.09375 42.890625 30.859375 
Q 38.875 34.625 31.78125 34.625 
z
M 21.921875 38.8125 
Q 15.578125 40.375 12.03125 44.71875 
Q 8.5 49.078125 8.5 55.328125 
Q 8.5 64.0625 14.71875 69.140625 
Q 20.953125 74.21875 31.78125 74.21875 
Q 42.671875 74.21875 48.875 69.140625 
Q 55.078125 64.0625 55.078125 55.328125 
Q 55.078125 49.078125 51.53125 44.71875 
Q 48 40.375 41.703125 38.8125 
Q 48.828125 37.15625 52.796875 32.3125 
Q 56.78125 27.484375 56.78125 20.515625 
Q 56.78125 9.90625 50.3125 4.234375 
Q 43.84375 -1.421875 31.78125 -1.421875 
Q 19.734375 -1.421875 13.25 4.234375 
Q 6.78125 9.90625 6.78125 20.515625 
Q 6.78125 27.484375 10.78125 32.3125 
Q 14.796875 37.15625 21.921875 38.8125 
z
M 18.3125 54.390625 
Q 18.3125 48.734375 21.84375 45.5625 
Q 25.390625 42.390625 31.78125 42.390625 
Q 38.140625 42.390625 41.71875 45.5625 
Q 45.3125 48.734375 45.3125 54.390625 
Q 45.3125 60.0625 41.71875 63.234375 
Q 38.140625 66.40625 31.78125 66.40625 
Q 25.390625 66.40625 21.84375 63.234375 
Q 18.3125 60.0625 18.3125 54.390625 
z
" id="DejaVuSans-38"/>
      </defs>
      <g transform="translate(430.764696 527.238438)scale(0.1 -0.1)">
       <use xlink:href="#DejaVuSans-38"/>
      </g>
     </g>
    </g>
    <g id="xtick_6">
     <g id="line2d_6">
      <g>
       <use style="stroke:#000000;stroke-width:0.8;" x="514.378378" xlink:href="#m23625e249e" y="512.64"/>
      </g>
     </g>
     <g id="text_6">
      <!-- 10 -->
      <defs>
       <path d="M 12.40625 8.296875 
L 28.515625 8.296875 
L 28.515625 63.921875 
L 10.984375 60.40625 
L 10.984375 69.390625 
L 28.421875 72.90625 
L 38.28125 72.90625 
L 38.28125 8.296875 
L 54.390625 8.296875 
L 54.390625 0 
L 12.40625 0 
z
" id="DejaVuSans-31"/>
      </defs>
      <g transform="translate(508.015878 527.238438)scale(0.1 -0.1)">
       <use xlink:href="#DejaVuSans-31"/>
       <use x="63.623047" xlink:href="#DejaVuSans-30"/>
      </g>
     </g>
    </g>
   </g>
   <g id="matplotlib.axis_2">
    <g id="ytick_1">
     <g id="line2d_7">
      <defs>
       <path d="M 0 0 
L -3.5 0 
" id="m7e12a3fe70" style="stroke:#000000;stroke-width:0.8;"/>
      </defs>
      <g>
       <use style="stroke:#000000;stroke-width:0.8;" x="72" xlink:href="#m7e12a3fe70" y="473.863784"/>
      </g>
     </g>
     <g id="text_7">
      <!-- 0 -->
      <g transform="translate(58.6375 477.663003)scale(0.1 -0.1)">
       <use xlink:href="#DejaVuSans-30"/>
      </g>
     </g>
    </g>
    <g id="ytick_2">
     <g id="line2d_8">
      <g>
       <use style="stroke:#000000;stroke-width:0.8;" x="72" xlink:href="#m7e12a3fe70" y="393.431351"/>
      </g>
     </g>
     <g id="text_8">
      <!-- 2 -->
      <g transform="translate(58.6375 397.23057)scale(0.1 -0.1)">
       <use xlink:href="#DejaVuSans-32"/>
      </g>
     </g>
    </g>
    <g id="ytick_3">
     <g id="line2d_9">
      <g>
       <use style="stroke:#000000;stroke-width:0.8;" x="72" xlink:href="#m7e12a3fe70" y="312.998919"/>
      </g>
     </g>
     <g id="text_9">
      <!-- 4 -->
      <g transform="translate(58.6375 316.798138)scale(0.1 -0.1)">
       <use xlink:href="#DejaVuSans-34"/>
      </g>
     </g>
    </g>
    <g id="ytick_4">
     <g id="line2d_10">
      <g>
       <use style="stroke:#000000;stroke-width:0.8;" x="72" xlink:href="#m7e12a3fe70" y="232.566486"/>
      </g>
     </g>
     <g id="text_10">
      <!-- 6 -->
      <g transform="translate(58.6375 236.365705)scale(0.1 -0.1)">
       <use xlink:href="#DejaVuSans-36"/>
      </g>
     </g>
    </g>
    <g id="ytick_5">
     <g id="line2d_11">
      <g>
       <use style="stroke:#000000;stroke-width:0.8;" x="72" xlink:href="#m7e12a3fe70" y="152.134054"/>
      </g>
     </g>
     <g id="text_11">
      <!-- 8 -->
      <g transform="translate(58.6375 155.933273)scale(0.1 -0.1)">
       <use xlink:href="#DejaVuSans-38"/>
      </g>
     </g>
    </g>
    <g id="ytick_6">
     <g id="line2d_12">
      <g>
       <use style="stroke:#000000;stroke-width:0.8;" x="72" xlink:href="#m7e12a3fe70" y="71.701622"/>
      </g>
     </g>
     <g id="text_12">
      <!-- 10 -->
      <g transform="translate(52.275 75.50084)scale(0.1 -0.1)">
       <use xlink:href="#DejaVuSans-31"/>
       <use x="63.623047" xlink:href="#DejaVuSans-30"/>
      </g>
     </g>
    </g>
   </g>
   <g id="line2d_13">
    <path clip-path="url(#pbf43f2e427)" d="M 140.367568 389.40973 
" style="fill:none;stroke:#1f77b4;stroke-linecap:square;stroke-width:1.5;"/>
    <defs>
     <path d="M -5 5 
L 5 5 
L 5 -5 
L -5 -5 
z
" id="m4802151963" style="stroke:#8000ff;stroke-linejoin:miter;"/>
    </defs>
    <g clip-path="url(#pbf43f2e427)">
     <use style="fill:#8000ff;stroke:#8000ff;stroke-linejoin:miter;" x="140.367568" xlink:href="#m4802151963" y="389.40973"/>
    </g>
   </g>
   <g id="line2d_14">
    <path clip-path="url(#pbf43f2e427)" d="M 393.72973 192.35027 
" style="fill:none;stroke:#ff7f0e;stroke-linecap:square;stroke-width:1.5;"/>
    <defs>
     <path d="M 0 -5 
L -4.755283 -1.545085 
L -2.938926 4.045085 
L 2.938926 4.045085 
L 4.755283 -1.545085 
z
" id="ma59844b019" style="stroke:#8000ff;stroke-linejoin:miter;"/>
    </defs>
    <g clip-path="url(#pbf43f2e427)">
     <use style="fill:#8000ff;stroke:#8000ff;stroke-linejoin:miter;" x="393.72973" xlink:href="#ma59844b019" y="192.35027"/>
    </g>
   </g>
   <g id="line2d_15">
    <path clip-path="url(#pbf43f2e427)" d="M 450.032432 192.35027 
" style="fill:none;stroke:#2ca02c;stroke-linecap:square;stroke-width:1.5;"/>
    <defs>
     <path d="M -5 5 
L 5 5 
L 5 -5 
L -5 -5 
z
" id="m47ce5e102d" style="stroke:#4c4ffc;stroke-linejoin:miter;"/>
    </defs>
    <g clip-path="url(#pbf43f2e427)">
     <use style="fill:#4c4ffc;stroke:#4c4ffc;stroke-linejoin:miter;" x="450.032432" xlink:href="#m47ce5e102d" y="192.35027"/>
    </g>
   </g>
   <g id="line2d_16">
    <path clip-path="url(#pbf43f2e427)" d="M 224.821622 361.258378 
" style="fill:none;stroke:#d62728;stroke-linecap:square;stroke-width:1.5;"/>
    <defs>
     <path d="M 0 -5 
L -4.755283 -1.545085 
L -2.938926 4.045085 
L 2.938926 4.045085 
L 4.755283 -1.545085 
z
" id="me1d52304a3" style="stroke:#4c4ffc;stroke-linejoin:miter;"/>
    </defs>
    <g clip-path="url(#pbf43f2e427)">
     <use style="fill:#4c4ffc;stroke:#4c4ffc;stroke-linejoin:miter;" x="224.821622" xlink:href="#me1d52304a3" y="361.258378"/>
    </g>
   </g>
   <g id="line2d_17">
    <path clip-path="url(#pbf43f2e427)" d="M 402.175135 440.082162 
" style="fill:none;stroke:#9467bd;stroke-linecap:square;stroke-width:1.5;"/>
    <defs>
     <path d="M -5 5 
L 5 5 
L 5 -5 
L -5 -5 
z
" id="m9b7ef4d908" style="stroke:#1996f3;stroke-linejoin:miter;"/>
    </defs>
    <g clip-path="url(#pbf43f2e427)">
     <use style="fill:#1996f3;stroke:#1996f3;stroke-linejoin:miter;" x="402.175135" xlink:href="#m9b7ef4d908" y="440.082162"/>
    </g>
   </g>
   <g id="line2d_18">
    <path clip-path="url(#pbf43f2e427)" d="M 224.821622 192.35027 
" style="fill:none;stroke:#8c564b;stroke-linecap:square;stroke-width:1.5;"/>
    <defs>
     <path d="M 0 -5 
L -4.755283 -1.545085 
L -2.938926 4.045085 
L 2.938926 4.045085 
L 4.755283 -1.545085 
z
" id="m0a42f90862" style="stroke:#1996f3;stroke-linejoin:miter;"/>
    </defs>
    <g clip-path="url(#pbf43f2e427)">
     <use style="fill:#1996f3;stroke:#1996f3;stroke-linejoin:miter;" x="224.821622" xlink:href="#m0a42f90862" y="192.35027"/>
    </g>
   </g>
   <g id="line2d_19">
    <path clip-path="url(#pbf43f2e427)" d="M 224.821622 136.047568 
" style="fill:none;stroke:#e377c2;stroke-linecap:square;stroke-width:1.5;"/>
    <defs>
     <path d="M -5 5 
L 5 5 
L 5 -5 
L -5 -5 
z
" id="mf2f65e9aa6" style="stroke:#1acee3;stroke-linejoin:miter;"/>
    </defs>
    <g clip-path="url(#pbf43f2e427)">
     <use style="fill:#1acee3;stroke:#1acee3;stroke-linejoin:miter;" x="224.821622" xlink:href="#mf2f65e9aa6" y="136.047568"/>
    </g>
   </g>
   <g id="line2d_20">
    <path clip-path="url(#pbf43f2e427)" d="M 393.72973 361.258378 
" style="fill:none;stroke:#7f7f7f;stroke-linecap:square;stroke-width:1.5;"/>
    <defs>
     <path d="M 0 -5 
L -4.755283 -1.545085 
L -2.938926 4.045085 
L 2.938926 4.045085 
L 4.755283 -1.545085 
z
" id="mbca3492ded" style="stroke:#1acee3;stroke-linejoin:miter;"/>
    </defs>
    <g clip-path="url(#pbf43f2e427)">
     <use style="fill:#1acee3;stroke:#1acee3;stroke-linejoin:miter;" x="393.72973" xlink:href="#mbca3492ded" y="361.258378"/>
    </g>
   </g>
   <g id="line2d_21">
    <path clip-path="url(#pbf43f2e427)" d="M 450.032432 304.955676 
" style="fill:none;stroke:#bcbd22;stroke-linecap:square;stroke-width:1.5;"/>
    <defs>
     <path d="M -5 5 
L 5 5 
L 5 -5 
L -5 -5 
z
" id="m81aab59417" style="stroke:#4df3ce;stroke-linejoin:miter;"/>
    </defs>
    <g clip-path="url(#pbf43f2e427)">
     <use style="fill:#4df3ce;stroke:#4df3ce;stroke-linejoin:miter;" x="450.032432" xlink:href="#m81aab59417" y="304.955676"/>
    </g>
   </g>
   <g id="line2d_22">
    <path clip-path="url(#pbf43f2e427)" d="M 196.67027 248.652973 
" style="fill:none;stroke:#17becf;stroke-linecap:square;stroke-width:1.5;"/>
    <defs>
     <path d="M 0 -5 
L -4.755283 -1.545085 
L -2.938926 4.045085 
L 2.938926 4.045085 
L 4.755283 -1.545085 
z
" id="m499651a297" style="stroke:#4df3ce;stroke-linejoin:miter;"/>
    </defs>
    <g clip-path="url(#pbf43f2e427)">
     <use style="fill:#4df3ce;stroke:#4df3ce;stroke-linejoin:miter;" x="196.67027" xlink:href="#m499651a297" y="248.652973"/>
    </g>
   </g>
   <g id="line2d_23">
    <path clip-path="url(#pbf43f2e427)" d="M 140.367568 248.652973 
" style="fill:none;stroke:#1f77b4;stroke-linecap:square;stroke-width:1.5;"/>
    <defs>
     <path d="M -5 5 
L 5 5 
L 5 -5 
L -5 -5 
z
" id="me0f1caea30" style="stroke:#80ffb4;stroke-linejoin:miter;"/>
    </defs>
    <g clip-path="url(#pbf43f2e427)">
     <use style="fill:#80ffb4;stroke:#80ffb4;stroke-linejoin:miter;" x="140.367568" xlink:href="#me0f1caea30" y="248.652973"/>
    </g>
   </g>
   <g id="line2d_24">
    <path clip-path="url(#pbf43f2e427)" d="M 393.72973 276.804324 
" style="fill:none;stroke:#ff7f0e;stroke-linecap:square;stroke-width:1.5;"/>
    <defs>
     <path d="M 0 -5 
L -4.755283 -1.545085 
L -2.938926 4.045085 
L 2.938926 4.045085 
L 4.755283 -1.545085 
z
" id="m0fee8e0f42" style="stroke:#80ffb4;stroke-linejoin:miter;"/>
    </defs>
    <g clip-path="url(#pbf43f2e427)">
     <use style="fill:#80ffb4;stroke:#80ffb4;stroke-linejoin:miter;" x="393.72973" xlink:href="#m0fee8e0f42" y="276.804324"/>
    </g>
   </g>
   <g id="line2d_25">
    <path clip-path="url(#pbf43f2e427)" d="M 281.124324 192.35027 
" style="fill:none;stroke:#2ca02c;stroke-linecap:square;stroke-width:1.5;"/>
    <defs>
     <path d="M -5 5 
L 5 5 
L 5 -5 
L -5 -5 
z
" id="mbaab2602d8" style="stroke:#b3f396;stroke-linejoin:miter;"/>
    </defs>
    <g clip-path="url(#pbf43f2e427)">
     <use style="fill:#b3f396;stroke:#b3f396;stroke-linejoin:miter;" x="281.124324" xlink:href="#mbaab2602d8" y="192.35027"/>
    </g>
   </g>
   <g id="line2d_26">
    <path clip-path="url(#pbf43f2e427)" d="M 281.124324 333.107027 
" style="fill:none;stroke:#d62728;stroke-linecap:square;stroke-width:1.5;"/>
    <defs>
     <path d="M 0 -5 
L -4.755283 -1.545085 
L -2.938926 4.045085 
L 2.938926 4.045085 
L 4.755283 -1.545085 
z
" id="ma186fa3c64" style="stroke:#b3f396;stroke-linejoin:miter;"/>
    </defs>
    <g clip-path="url(#pbf43f2e427)">
     <use style="fill:#b3f396;stroke:#b3f396;stroke-linejoin:miter;" x="281.124324" xlink:href="#ma186fa3c64" y="333.107027"/>
    </g>
   </g>
   <g id="line2d_27">
    <path clip-path="url(#pbf43f2e427)" d="M 140.367568 304.955676 
" style="fill:none;stroke:#9467bd;stroke-linecap:square;stroke-width:1.5;"/>
    <defs>
     <path d="M -5 5 
L 5 5 
L 5 -5 
L -5 -5 
z
" id="m45dc17bbc3" style="stroke:#e6ce74;stroke-linejoin:miter;"/>
    </defs>
    <g clip-path="url(#pbf43f2e427)">
     <use style="fill:#e6ce74;stroke:#e6ce74;stroke-linejoin:miter;" x="140.367568" xlink:href="#m45dc17bbc3" y="304.955676"/>
    </g>
   </g>
   <g id="line2d_28">
    <path clip-path="url(#pbf43f2e427)" d="M 309.275676 276.804324 
" style="fill:none;stroke:#8c564b;stroke-linecap:square;stroke-width:1.5;"/>
    <defs>
     <path d="M 0 -5 
L -4.755283 -1.545085 
L -2.938926 4.045085 
L 2.938926 4.045085 
L 4.755283 -1.545085 
z
" id="m1cf2b40b85" style="stroke:#e6ce74;stroke-linejoin:miter;"/>
    </defs>
    <g clip-path="url(#pbf43f2e427)">
     <use style="fill:#e6ce74;stroke:#e6ce74;stroke-linejoin:miter;" x="309.275676" xlink:href="#m1cf2b40b85" y="276.804324"/>
    </g>
   </g>
   <g id="line2d_29">
    <path clip-path="url(#pbf43f2e427)" d="M 393.72973 220.501622 
" style="fill:none;stroke:#e377c2;stroke-linecap:square;stroke-width:1.5;"/>
    <defs>
     <path d="M -5 5 
L 5 5 
L 5 -5 
L -5 -5 
z
" id="m44bc672f28" style="stroke:#ff964f;stroke-linejoin:miter;"/>
    </defs>
    <g clip-path="url(#pbf43f2e427)">
     <use style="fill:#ff964f;stroke:#ff964f;stroke-linejoin:miter;" x="393.72973" xlink:href="#m44bc672f28" y="220.501622"/>
    </g>
   </g>
   <g id="line2d_30">
    <path clip-path="url(#pbf43f2e427)" d="M 140.367568 276.804324 
" style="fill:none;stroke:#7f7f7f;stroke-linecap:square;stroke-width:1.5;"/>
    <defs>
     <path d="M 0 -5 
L -4.755283 -1.545085 
L -2.938926 4.045085 
L 2.938926 4.045085 
L 4.755283 -1.545085 
z
" id="m10553f780e" style="stroke:#ff964f;stroke-linejoin:miter;"/>
    </defs>
    <g clip-path="url(#pbf43f2e427)">
     <use style="fill:#ff964f;stroke:#ff964f;stroke-linejoin:miter;" x="140.367568" xlink:href="#m10553f780e" y="276.804324"/>
    </g>
   </g>
   <g id="line2d_31">
    <path clip-path="url(#pbf43f2e427)" d="M 140.367568 136.047568 
" style="fill:none;stroke:#bcbd22;stroke-linecap:square;stroke-width:1.5;"/>
    <defs>
     <path d="M -5 5 
L 5 5 
L 5 -5 
L -5 -5 
z
" id="m4ddd3b0036" style="stroke:#ff4f28;stroke-linejoin:miter;"/>
    </defs>
    <g clip-path="url(#pbf43f2e427)">
     <use style="fill:#ff4f28;stroke:#ff4f28;stroke-linejoin:miter;" x="140.367568" xlink:href="#m4ddd3b0036" y="136.047568"/>
    </g>
   </g>
   <g id="line2d_32">
    <path clip-path="url(#pbf43f2e427)" d="M 252.972973 248.652973 
" style="fill:none;stroke:#17becf;stroke-linecap:square;stroke-width:1.5;"/>
    <defs>
     <path d="M 0 -5 
L -4.755283 -1.545085 
L -2.938926 4.045085 
L 2.938926 4.045085 
L 4.755283 -1.545085 
z
" id="m006565560f" style="stroke:#ff4f28;stroke-linejoin:miter;"/>
    </defs>
    <g clip-path="url(#pbf43f2e427)">
     <use style="fill:#ff4f28;stroke:#ff4f28;stroke-linejoin:miter;" x="252.972973" xlink:href="#m006565560f" y="248.652973"/>
    </g>
   </g>
   <g id="line2d_33">
    <path clip-path="url(#pbf43f2e427)" d="M 337.427027 164.198919 
" style="fill:none;stroke:#1f77b4;stroke-linecap:square;stroke-width:1.5;"/>
    <defs>
     <path d="M -5 5 
L 5 5 
L 5 -5 
L -5 -5 
z
" id="m5ea0984411" style="stroke:#ff0000;stroke-linejoin:miter;"/>
    </defs>
    <g clip-path="url(#pbf43f2e427)">
     <use style="fill:#ff0000;stroke:#ff0000;stroke-linejoin:miter;" x="337.427027" xlink:href="#m5ea0984411" y="164.198919"/>
    </g>
   </g>
   <g id="line2d_34">
    <path clip-path="url(#pbf43f2e427)" d="M 168.518919 389.40973 
" style="fill:none;stroke:#ff7f0e;stroke-linecap:square;stroke-width:1.5;"/>
    <defs>
     <path d="M 0 -5 
L -4.755283 -1.545085 
L -2.938926 4.045085 
L 2.938926 4.045085 
L 4.755283 -1.545085 
z
" id="m6a5a4dee5c" style="stroke:#ff0000;stroke-linejoin:miter;"/>
    </defs>
    <g clip-path="url(#pbf43f2e427)">
     <use style="fill:#ff0000;stroke:#ff0000;stroke-linejoin:miter;" x="168.518919" xlink:href="#m6a5a4dee5c" y="389.40973"/>
    </g>
   </g>
   <g id="line2d_35">
    <defs>
     <path d="M 0 2.5 
C 0.663008 2.5 1.29895 2.236584 1.767767 1.767767 
C 2.236584 1.29895 2.5 0.663008 2.5 0 
C 2.5 -0.663008 2.236584 -1.29895 1.767767 -1.767767 
C 1.29895 -2.236584 0.663008 -2.5 0 -2.5 
C -0.663008 -2.5 -1.29895 -2.236584 -1.767767 -1.767767 
C -2.236584 -1.29895 -2.5 -0.663008 -2.5 0 
C -2.5 0.663008 -2.236584 1.29895 -1.767767 1.767767 
C -1.29895 2.236584 -0.663008 2.5 0 2.5 
z
" id="m95856891a3" style="stroke:#000000;"/>
    </defs>
    <g clip-path="url(#pbf43f2e427)">
     <use style="stroke:#000000;" x="196.67027" xlink:href="#m95856891a3" y="389.40973"/>
     <use style="stroke:#000000;" x="196.67027" xlink:href="#m95856891a3" y="333.107027"/>
     <use style="stroke:#000000;" x="252.972973" xlink:href="#m95856891a3" y="389.40973"/>
     <use style="stroke:#000000;" x="252.972973" xlink:href="#m95856891a3" y="333.107027"/>
     <use style="stroke:#000000;" x="309.275676" xlink:href="#m95856891a3" y="389.40973"/>
     <use style="stroke:#000000;" x="309.275676" xlink:href="#m95856891a3" y="333.107027"/>
     <use style="stroke:#000000;" x="365.578378" xlink:href="#m95856891a3" y="389.40973"/>
     <use style="stroke:#000000;" x="365.578378" xlink:href="#m95856891a3" y="333.107027"/>
     <use style="stroke:#000000;" x="421.881081" xlink:href="#m95856891a3" y="389.40973"/>
     <use style="stroke:#000000;" x="421.881081" xlink:href="#m95856891a3" y="333.107027"/>
     <use style="stroke:#000000;" x="196.67027" xlink:href="#m95856891a3" y="220.501622"/>
     <use style="stroke:#000000;" x="196.67027" xlink:href="#m95856891a3" y="164.198919"/>
     <use style="stroke:#000000;" x="252.972973" xlink:href="#m95856891a3" y="220.501622"/>
     <use style="stroke:#000000;" x="252.972973" xlink:href="#m95856891a3" y="164.198919"/>
     <use style="stroke:#000000;" x="309.275676" xlink:href="#m95856891a3" y="220.501622"/>
     <use style="stroke:#000000;" x="309.275676" xlink:href="#m95856891a3" y="164.198919"/>
     <use style="stroke:#000000;" x="365.578378" xlink:href="#m95856891a3" y="220.501622"/>
     <use style="stroke:#000000;" x="365.578378" xlink:href="#m95856891a3" y="164.198919"/>
     <use style="stroke:#000000;" x="421.881081" xlink:href="#m95856891a3" y="220.501622"/>
     <use style="stroke:#000000;" x="421.881081" xlink:href="#m95856891a3" y="164.198919"/>
    </g>
   </g>
   <g id="line2d_36">
    <path clip-path="url(#pbf43f2e427)" d="M 212.354595 389.40973 
L 211.504775 384.317038 
L 209.047406 379.776218 
L 205.248783 376.279339 
L 200.520544 374.205342 
L 195.375069 373.778975 
L 190.369949 375.046444 
L 186.047566 377.870397 
L 182.876319 381.944816 
L 181.19986 386.828175 
L 181.19986 391.991285 
L 182.876319 396.874643 
L 186.047566 400.949062 
L 190.369949 403.773016 
L 195.375069 405.040484 
L 200.520544 404.614118 
L 205.248783 402.54012 
L 209.047406 399.043241 
L 211.504775 394.502422 
L 212.354595 389.40973 
" style="fill:none;stroke:#000000;stroke-dasharray:5.55,2.4;stroke-dashoffset:0;stroke-width:1.5;"/>
   </g>
   <g id="line2d_37">
    <path clip-path="url(#pbf43f2e427)" d="M 201.094054 389.40973 
L 200.854361 387.973329 
L 200.161257 386.692585 
L 199.089851 385.706286 
L 197.756245 385.121313 
L 196.304957 385.001055 
L 194.893257 385.358547 
L 193.674123 386.155046 
L 192.779669 387.304241 
L 192.306821 388.681599 
L 192.306821 390.137861 
L 192.779669 391.515218 
L 193.674123 392.664413 
L 194.893257 393.460913 
L 196.304957 393.818404 
L 197.756245 393.698147 
L 199.089851 393.113173 
L 200.161257 392.126874 
L 200.854361 390.84613 
L 201.094054 389.40973 
" style="fill:none;stroke:#ff0000;stroke-linecap:square;stroke-width:1.5;"/>
   </g>
   <g id="line2d_38">
    <path clip-path="url(#pbf43f2e427)" d="M 212.354595 333.107027 
L 211.504775 328.014335 
L 209.047406 323.473516 
L 205.248783 319.976636 
L 200.520544 317.902639 
L 195.375069 317.476273 
L 190.369949 318.743741 
L 186.047566 321.567695 
L 182.876319 325.642114 
L 181.19986 330.525472 
L 181.19986 335.688582 
L 182.876319 340.57194 
L 186.047566 344.646359 
L 190.369949 347.470313 
L 195.375069 348.737781 
L 200.520544 348.311415 
L 205.248783 346.237418 
L 209.047406 342.740538 
L 211.504775 338.199719 
L 212.354595 333.107027 
" style="fill:none;stroke:#000000;stroke-dasharray:5.55,2.4;stroke-dashoffset:0;stroke-width:1.5;"/>
   </g>
   <g id="line2d_39">
    <path clip-path="url(#pbf43f2e427)" d="M 201.094054 333.107027 
L 200.854361 331.670627 
L 200.161257 330.389883 
L 199.089851 329.403584 
L 197.756245 328.81861 
L 196.304957 328.698353 
L 194.893257 329.055844 
L 193.674123 329.852344 
L 192.779669 331.001539 
L 192.306821 332.378896 
L 192.306821 333.835158 
L 192.779669 335.212515 
L 193.674123 336.361711 
L 194.893257 337.15821 
L 196.304957 337.515701 
L 197.756245 337.395444 
L 199.089851 336.810471 
L 200.161257 335.824171 
L 200.854361 334.543427 
L 201.094054 333.107027 
" style="fill:none;stroke:#ff0000;stroke-linecap:square;stroke-width:1.5;"/>
   </g>
   <g id="line2d_40">
    <path clip-path="url(#pbf43f2e427)" d="M 268.657297 389.40973 
L 267.807477 384.317038 
L 265.350109 379.776218 
L 261.551485 376.279339 
L 256.823247 374.205342 
L 251.677772 373.778975 
L 246.672652 375.046444 
L 242.350269 377.870397 
L 239.179021 381.944816 
L 237.502562 386.828175 
L 237.502562 391.991285 
L 239.179021 396.874643 
L 242.350269 400.949062 
L 246.672652 403.773016 
L 251.677772 405.040484 
L 256.823247 404.614118 
L 261.551485 402.54012 
L 265.350109 399.043241 
L 267.807477 394.502422 
L 268.657297 389.40973 
" style="fill:none;stroke:#000000;stroke-dasharray:5.55,2.4;stroke-dashoffset:0;stroke-width:1.5;"/>
   </g>
   <g id="line2d_41">
    <path clip-path="url(#pbf43f2e427)" d="M 257.396757 389.40973 
L 257.157064 387.973329 
L 256.46396 386.692585 
L 255.392553 385.706286 
L 254.058948 385.121313 
L 252.60766 385.001055 
L 251.195959 385.358547 
L 249.976826 386.155046 
L 249.082371 387.304241 
L 248.609524 388.681599 
L 248.609524 390.137861 
L 249.082371 391.515218 
L 249.976826 392.664413 
L 251.195959 393.460913 
L 252.60766 393.818404 
L 254.058948 393.698147 
L 255.392553 393.113173 
L 256.46396 392.126874 
L 257.157064 390.84613 
L 257.396757 389.40973 
" style="fill:none;stroke:#ff0000;stroke-linecap:square;stroke-width:1.5;"/>
   </g>
   <g id="line2d_42">
    <path clip-path="url(#pbf43f2e427)" d="M 268.657297 333.107027 
L 267.807477 328.014335 
L 265.350109 323.473516 
L 261.551485 319.976636 
L 256.823247 317.902639 
L 251.677772 317.476273 
L 246.672652 318.743741 
L 242.350269 321.567695 
L 239.179021 325.642114 
L 237.502562 330.525472 
L 237.502562 335.688582 
L 239.179021 340.57194 
L 242.350269 344.646359 
L 246.672652 347.470313 
L 251.677772 348.737781 
L 256.823247 348.311415 
L 261.551485 346.237418 
L 265.350109 342.740538 
L 267.807477 338.199719 
L 268.657297 333.107027 
" style="fill:none;stroke:#000000;stroke-dasharray:5.55,2.4;stroke-dashoffset:0;stroke-width:1.5;"/>
   </g>
   <g id="line2d_43">
    <path clip-path="url(#pbf43f2e427)" d="M 257.396757 333.107027 
L 257.157064 331.670627 
L 256.46396 330.389883 
L 255.392553 329.403584 
L 254.058948 328.81861 
L 252.60766 328.698353 
L 251.195959 329.055844 
L 249.976826 329.852344 
L 249.082371 331.001539 
L 248.609524 332.378896 
L 248.609524 333.835158 
L 249.082371 335.212515 
L 249.976826 336.361711 
L 251.195959 337.15821 
L 252.60766 337.515701 
L 254.058948 337.395444 
L 255.392553 336.810471 
L 256.46396 335.824171 
L 257.157064 334.543427 
L 257.396757 333.107027 
" style="fill:none;stroke:#ff0000;stroke-linecap:square;stroke-width:1.5;"/>
   </g>
   <g id="line2d_44">
    <path clip-path="url(#pbf43f2e427)" d="M 324.96 389.40973 
L 324.11018 384.317038 
L 321.652811 379.776218 
L 317.854188 376.279339 
L 313.12595 374.205342 
L 307.980474 373.778975 
L 302.975354 375.046444 
L 298.652972 377.870397 
L 295.481724 381.944816 
L 293.805265 386.828175 
L 293.805265 391.991285 
L 295.481724 396.874643 
L 298.652972 400.949062 
L 302.975354 403.773016 
L 307.980474 405.040484 
L 313.12595 404.614118 
L 317.854188 402.54012 
L 321.652811 399.043241 
L 324.11018 394.502422 
L 324.96 389.40973 
" style="fill:none;stroke:#000000;stroke-dasharray:5.55,2.4;stroke-dashoffset:0;stroke-width:1.5;"/>
   </g>
   <g id="line2d_45">
    <path clip-path="url(#pbf43f2e427)" d="M 313.699459 389.40973 
L 313.459767 387.973329 
L 312.766663 386.692585 
L 311.695256 385.706286 
L 310.36165 385.121313 
L 308.910363 385.001055 
L 307.498662 385.358547 
L 306.279528 386.155046 
L 305.385074 387.304241 
L 304.912227 388.681599 
L 304.912227 390.137861 
L 305.385074 391.515218 
L 306.279528 392.664413 
L 307.498662 393.460913 
L 308.910363 393.818404 
L 310.36165 393.698147 
L 311.695256 393.113173 
L 312.766663 392.126874 
L 313.459767 390.84613 
L 313.699459 389.40973 
" style="fill:none;stroke:#ff0000;stroke-linecap:square;stroke-width:1.5;"/>
   </g>
   <g id="line2d_46">
    <path clip-path="url(#pbf43f2e427)" d="M 324.96 333.107027 
L 324.11018 328.014335 
L 321.652811 323.473516 
L 317.854188 319.976636 
L 313.12595 317.902639 
L 307.980474 317.476273 
L 302.975354 318.743741 
L 298.652972 321.567695 
L 295.481724 325.642114 
L 293.805265 330.525472 
L 293.805265 335.688582 
L 295.481724 340.57194 
L 298.652972 344.646359 
L 302.975354 347.470313 
L 307.980474 348.737781 
L 313.12595 348.311415 
L 317.854188 346.237418 
L 321.652811 342.740538 
L 324.11018 338.199719 
L 324.96 333.107027 
" style="fill:none;stroke:#000000;stroke-dasharray:5.55,2.4;stroke-dashoffset:0;stroke-width:1.5;"/>
   </g>
   <g id="line2d_47">
    <path clip-path="url(#pbf43f2e427)" d="M 313.699459 333.107027 
L 313.459767 331.670627 
L 312.766663 330.389883 
L 311.695256 329.403584 
L 310.36165 328.81861 
L 308.910363 328.698353 
L 307.498662 329.055844 
L 306.279528 329.852344 
L 305.385074 331.001539 
L 304.912227 332.378896 
L 304.912227 333.835158 
L 305.385074 335.212515 
L 306.279528 336.361711 
L 307.498662 337.15821 
L 308.910363 337.515701 
L 310.36165 337.395444 
L 311.695256 336.810471 
L 312.766663 335.824171 
L 313.459767 334.543427 
L 313.699459 333.107027 
" style="fill:none;stroke:#ff0000;stroke-linecap:square;stroke-width:1.5;"/>
   </g>
   <g id="line2d_48">
    <path clip-path="url(#pbf43f2e427)" d="M 381.262703 389.40973 
L 380.412883 384.317038 
L 377.955514 379.776218 
L 374.156891 376.279339 
L 369.428652 374.205342 
L 364.283177 373.778975 
L 359.278057 375.046444 
L 354.955675 377.870397 
L 351.784427 381.944816 
L 350.107968 386.828175 
L 350.107968 391.991285 
L 351.784427 396.874643 
L 354.955675 400.949062 
L 359.278057 403.773016 
L 364.283177 405.040484 
L 369.428652 404.614118 
L 374.156891 402.54012 
L 377.955514 399.043241 
L 380.412883 394.502422 
L 381.262703 389.40973 
" style="fill:none;stroke:#000000;stroke-dasharray:5.55,2.4;stroke-dashoffset:0;stroke-width:1.5;"/>
   </g>
   <g id="line2d_49">
    <path clip-path="url(#pbf43f2e427)" d="M 370.002162 389.40973 
L 369.762469 387.973329 
L 369.069365 386.692585 
L 367.997959 385.706286 
L 366.664353 385.121313 
L 365.213065 385.001055 
L 363.801365 385.358547 
L 362.582231 386.155046 
L 361.687777 387.304241 
L 361.214929 388.681599 
L 361.214929 390.137861 
L 361.687777 391.515218 
L 362.582231 392.664413 
L 363.801365 393.460913 
L 365.213065 393.818404 
L 366.664353 393.698147 
L 367.997959 393.113173 
L 369.069365 392.126874 
L 369.762469 390.84613 
L 370.002162 389.40973 
" style="fill:none;stroke:#ff0000;stroke-linecap:square;stroke-width:1.5;"/>
   </g>
   <g id="line2d_50">
    <path clip-path="url(#pbf43f2e427)" d="M 381.262703 333.107027 
L 380.412883 328.014335 
L 377.955514 323.473516 
L 374.156891 319.976636 
L 369.428652 317.902639 
L 364.283177 317.476273 
L 359.278057 318.743741 
L 354.955675 321.567695 
L 351.784427 325.642114 
L 350.107968 330.525472 
L 350.107968 335.688582 
L 351.784427 340.57194 
L 354.955675 344.646359 
L 359.278057 347.470313 
L 364.283177 348.737781 
L 369.428652 348.311415 
L 374.156891 346.237418 
L 377.955514 342.740538 
L 380.412883 338.199719 
L 381.262703 333.107027 
" style="fill:none;stroke:#000000;stroke-dasharray:5.55,2.4;stroke-dashoffset:0;stroke-width:1.5;"/>
   </g>
   <g id="line2d_51">
    <path clip-path="url(#pbf43f2e427)" d="M 370.002162 333.107027 
L 369.762469 331.670627 
L 369.069365 330.389883 
L 367.997959 329.403584 
L 366.664353 328.81861 
L 365.213065 328.698353 
L 363.801365 329.055844 
L 362.582231 329.852344 
L 361.687777 331.001539 
L 361.214929 332.378896 
L 361.214929 333.835158 
L 361.687777 335.212515 
L 362.582231 336.361711 
L 363.801365 337.15821 
L 365.213065 337.515701 
L 366.664353 337.395444 
L 367.997959 336.810471 
L 369.069365 335.824171 
L 369.762469 334.543427 
L 370.002162 333.107027 
" style="fill:none;stroke:#ff0000;stroke-linecap:square;stroke-width:1.5;"/>
   </g>
   <g id="line2d_52">
    <path clip-path="url(#pbf43f2e427)" d="M 437.565405 389.40973 
L 436.715585 384.317038 
L 434.258217 379.776218 
L 430.459593 376.279339 
L 425.731355 374.205342 
L 420.58588 373.778975 
L 415.58076 375.046444 
L 411.258377 377.870397 
L 408.08713 381.944816 
L 406.41067 386.828175 
L 406.41067 391.991285 
L 408.08713 396.874643 
L 411.258377 400.949062 
L 415.58076 403.773016 
L 420.58588 405.040484 
L 425.731355 404.614118 
L 430.459593 402.54012 
L 434.258217 399.043241 
L 436.715585 394.502422 
L 437.565405 389.40973 
" style="fill:none;stroke:#000000;stroke-dasharray:5.55,2.4;stroke-dashoffset:0;stroke-width:1.5;"/>
   </g>
   <g id="line2d_53">
    <path clip-path="url(#pbf43f2e427)" d="M 426.304865 389.40973 
L 426.065172 387.973329 
L 425.372068 386.692585 
L 424.300661 385.706286 
L 422.967056 385.121313 
L 421.515768 385.001055 
L 420.104067 385.358547 
L 418.884934 386.155046 
L 417.990479 387.304241 
L 417.517632 388.681599 
L 417.517632 390.137861 
L 417.990479 391.515218 
L 418.884934 392.664413 
L 420.104067 393.460913 
L 421.515768 393.818404 
L 422.967056 393.698147 
L 424.300661 393.113173 
L 425.372068 392.126874 
L 426.065172 390.84613 
L 426.304865 389.40973 
" style="fill:none;stroke:#ff0000;stroke-linecap:square;stroke-width:1.5;"/>
   </g>
   <g id="line2d_54">
    <path clip-path="url(#pbf43f2e427)" d="M 437.565405 333.107027 
L 436.715585 328.014335 
L 434.258217 323.473516 
L 430.459593 319.976636 
L 425.731355 317.902639 
L 420.58588 317.476273 
L 415.58076 318.743741 
L 411.258377 321.567695 
L 408.08713 325.642114 
L 406.41067 330.525472 
L 406.41067 335.688582 
L 408.08713 340.57194 
L 411.258377 344.646359 
L 415.58076 347.470313 
L 420.58588 348.737781 
L 425.731355 348.311415 
L 430.459593 346.237418 
L 434.258217 342.740538 
L 436.715585 338.199719 
L 437.565405 333.107027 
" style="fill:none;stroke:#000000;stroke-dasharray:5.55,2.4;stroke-dashoffset:0;stroke-width:1.5;"/>
   </g>
   <g id="line2d_55">
    <path clip-path="url(#pbf43f2e427)" d="M 426.304865 333.107027 
L 426.065172 331.670627 
L 425.372068 330.389883 
L 424.300661 329.403584 
L 422.967056 328.81861 
L 421.515768 328.698353 
L 420.104067 329.055844 
L 418.884934 329.852344 
L 417.990479 331.001539 
L 417.517632 332.378896 
L 417.517632 333.835158 
L 417.990479 335.212515 
L 418.884934 336.361711 
L 420.104067 337.15821 
L 421.515768 337.515701 
L 422.967056 337.395444 
L 424.300661 336.810471 
L 425.372068 335.824171 
L 426.065172 334.543427 
L 426.304865 333.107027 
" style="fill:none;stroke:#ff0000;stroke-linecap:square;stroke-width:1.5;"/>
   </g>
   <g id="line2d_56">
    <path clip-path="url(#pbf43f2e427)" d="M 212.354595 220.501622 
L 211.504775 215.40893 
L 209.047406 210.86811 
L 205.248783 207.371231 
L 200.520544 205.297233 
L 195.375069 204.870867 
L 190.369949 206.138336 
L 186.047566 208.962289 
L 182.876319 213.036708 
L 181.19986 217.920067 
L 181.19986 223.083177 
L 182.876319 227.966535 
L 186.047566 232.040954 
L 190.369949 234.864907 
L 195.375069 236.132376 
L 200.520544 235.70601 
L 205.248783 233.632012 
L 209.047406 230.135133 
L 211.504775 225.594313 
L 212.354595 220.501622 
" style="fill:none;stroke:#000000;stroke-dasharray:5.55,2.4;stroke-dashoffset:0;stroke-width:1.5;"/>
   </g>
   <g id="line2d_57">
    <path clip-path="url(#pbf43f2e427)" d="M 201.094054 220.501622 
L 200.854361 219.065221 
L 200.161257 217.784477 
L 199.089851 216.798178 
L 197.756245 216.213204 
L 196.304957 216.092947 
L 194.893257 216.450438 
L 193.674123 217.246938 
L 192.779669 218.396133 
L 192.306821 219.773491 
L 192.306821 221.229753 
L 192.779669 222.60711 
L 193.674123 223.756305 
L 194.893257 224.552805 
L 196.304957 224.910296 
L 197.756245 224.790039 
L 199.089851 224.205065 
L 200.161257 223.218766 
L 200.854361 221.938022 
L 201.094054 220.501622 
" style="fill:none;stroke:#ff0000;stroke-linecap:square;stroke-width:1.5;"/>
   </g>
   <g id="line2d_58">
    <path clip-path="url(#pbf43f2e427)" d="M 212.354595 164.198919 
L 211.504775 159.106227 
L 209.047406 154.565408 
L 205.248783 151.068528 
L 200.520544 148.994531 
L 195.375069 148.568165 
L 190.369949 149.835633 
L 186.047566 152.659586 
L 182.876319 156.734006 
L 181.19986 161.617364 
L 181.19986 166.780474 
L 182.876319 171.663832 
L 186.047566 175.738251 
L 190.369949 178.562205 
L 195.375069 179.829673 
L 200.520544 179.403307 
L 205.248783 177.329309 
L 209.047406 173.83243 
L 211.504775 169.291611 
L 212.354595 164.198919 
" style="fill:none;stroke:#000000;stroke-dasharray:5.55,2.4;stroke-dashoffset:0;stroke-width:1.5;"/>
   </g>
   <g id="line2d_59">
    <path clip-path="url(#pbf43f2e427)" d="M 201.094054 164.198919 
L 200.854361 162.762519 
L 200.161257 161.481775 
L 199.089851 160.495475 
L 197.756245 159.910502 
L 196.304957 159.790245 
L 194.893257 160.147736 
L 193.674123 160.944235 
L 192.779669 162.093431 
L 192.306821 163.470788 
L 192.306821 164.92705 
L 192.779669 166.304407 
L 193.674123 167.453602 
L 194.893257 168.250102 
L 196.304957 168.607593 
L 197.756245 168.487336 
L 199.089851 167.902362 
L 200.161257 166.916063 
L 200.854361 165.635319 
L 201.094054 164.198919 
" style="fill:none;stroke:#ff0000;stroke-linecap:square;stroke-width:1.5;"/>
   </g>
   <g id="line2d_60">
    <path clip-path="url(#pbf43f2e427)" d="M 268.657297 220.501622 
L 267.807477 215.40893 
L 265.350109 210.86811 
L 261.551485 207.371231 
L 256.823247 205.297233 
L 251.677772 204.870867 
L 246.672652 206.138336 
L 242.350269 208.962289 
L 239.179021 213.036708 
L 237.502562 217.920067 
L 237.502562 223.083177 
L 239.179021 227.966535 
L 242.350269 232.040954 
L 246.672652 234.864907 
L 251.677772 236.132376 
L 256.823247 235.70601 
L 261.551485 233.632012 
L 265.350109 230.135133 
L 267.807477 225.594313 
L 268.657297 220.501622 
" style="fill:none;stroke:#000000;stroke-dasharray:5.55,2.4;stroke-dashoffset:0;stroke-width:1.5;"/>
   </g>
   <g id="line2d_61">
    <path clip-path="url(#pbf43f2e427)" d="M 257.396757 220.501622 
L 257.157064 219.065221 
L 256.46396 217.784477 
L 255.392553 216.798178 
L 254.058948 216.213204 
L 252.60766 216.092947 
L 251.195959 216.450438 
L 249.976826 217.246938 
L 249.082371 218.396133 
L 248.609524 219.773491 
L 248.609524 221.229753 
L 249.082371 222.60711 
L 249.976826 223.756305 
L 251.195959 224.552805 
L 252.60766 224.910296 
L 254.058948 224.790039 
L 255.392553 224.205065 
L 256.46396 223.218766 
L 257.157064 221.938022 
L 257.396757 220.501622 
" style="fill:none;stroke:#ff0000;stroke-linecap:square;stroke-width:1.5;"/>
   </g>
   <g id="line2d_62">
    <path clip-path="url(#pbf43f2e427)" d="M 268.657297 164.198919 
L 267.807477 159.106227 
L 265.350109 154.565408 
L 261.551485 151.068528 
L 256.823247 148.994531 
L 251.677772 148.568165 
L 246.672652 149.835633 
L 242.350269 152.659586 
L 239.179021 156.734006 
L 237.502562 161.617364 
L 237.502562 166.780474 
L 239.179021 171.663832 
L 242.350269 175.738251 
L 246.672652 178.562205 
L 251.677772 179.829673 
L 256.823247 179.403307 
L 261.551485 177.329309 
L 265.350109 173.83243 
L 267.807477 169.291611 
L 268.657297 164.198919 
" style="fill:none;stroke:#000000;stroke-dasharray:5.55,2.4;stroke-dashoffset:0;stroke-width:1.5;"/>
   </g>
   <g id="line2d_63">
    <path clip-path="url(#pbf43f2e427)" d="M 257.396757 164.198919 
L 257.157064 162.762519 
L 256.46396 161.481775 
L 255.392553 160.495475 
L 254.058948 159.910502 
L 252.60766 159.790245 
L 251.195959 160.147736 
L 249.976826 160.944235 
L 249.082371 162.093431 
L 248.609524 163.470788 
L 248.609524 164.92705 
L 249.082371 166.304407 
L 249.976826 167.453602 
L 251.195959 168.250102 
L 252.60766 168.607593 
L 254.058948 168.487336 
L 255.392553 167.902362 
L 256.46396 166.916063 
L 257.157064 165.635319 
L 257.396757 164.198919 
" style="fill:none;stroke:#ff0000;stroke-linecap:square;stroke-width:1.5;"/>
   </g>
   <g id="line2d_64">
    <path clip-path="url(#pbf43f2e427)" d="M 324.96 220.501622 
L 324.11018 215.40893 
L 321.652811 210.86811 
L 317.854188 207.371231 
L 313.12595 205.297233 
L 307.980474 204.870867 
L 302.975354 206.138336 
L 298.652972 208.962289 
L 295.481724 213.036708 
L 293.805265 217.920067 
L 293.805265 223.083177 
L 295.481724 227.966535 
L 298.652972 232.040954 
L 302.975354 234.864907 
L 307.980474 236.132376 
L 313.12595 235.70601 
L 317.854188 233.632012 
L 321.652811 230.135133 
L 324.11018 225.594313 
L 324.96 220.501622 
" style="fill:none;stroke:#000000;stroke-dasharray:5.55,2.4;stroke-dashoffset:0;stroke-width:1.5;"/>
   </g>
   <g id="line2d_65">
    <path clip-path="url(#pbf43f2e427)" d="M 313.699459 220.501622 
L 313.459767 219.065221 
L 312.766663 217.784477 
L 311.695256 216.798178 
L 310.36165 216.213204 
L 308.910363 216.092947 
L 307.498662 216.450438 
L 306.279528 217.246938 
L 305.385074 218.396133 
L 304.912227 219.773491 
L 304.912227 221.229753 
L 305.385074 222.60711 
L 306.279528 223.756305 
L 307.498662 224.552805 
L 308.910363 224.910296 
L 310.36165 224.790039 
L 311.695256 224.205065 
L 312.766663 223.218766 
L 313.459767 221.938022 
L 313.699459 220.501622 
" style="fill:none;stroke:#ff0000;stroke-linecap:square;stroke-width:1.5;"/>
   </g>
   <g id="line2d_66">
    <path clip-path="url(#pbf43f2e427)" d="M 324.96 164.198919 
L 324.11018 159.106227 
L 321.652811 154.565408 
L 317.854188 151.068528 
L 313.12595 148.994531 
L 307.980474 148.568165 
L 302.975354 149.835633 
L 298.652972 152.659586 
L 295.481724 156.734006 
L 293.805265 161.617364 
L 293.805265 166.780474 
L 295.481724 171.663832 
L 298.652972 175.738251 
L 302.975354 178.562205 
L 307.980474 179.829673 
L 313.12595 179.403307 
L 317.854188 177.329309 
L 321.652811 173.83243 
L 324.11018 169.291611 
L 324.96 164.198919 
" style="fill:none;stroke:#000000;stroke-dasharray:5.55,2.4;stroke-dashoffset:0;stroke-width:1.5;"/>
   </g>
   <g id="line2d_67">
    <path clip-path="url(#pbf43f2e427)" d="M 313.699459 164.198919 
L 313.459767 162.762519 
L 312.766663 161.481775 
L 311.695256 160.495475 
L 310.36165 159.910502 
L 308.910363 159.790245 
L 307.498662 160.147736 
L 306.279528 160.944235 
L 305.385074 162.093431 
L 304.912227 163.470788 
L 304.912227 164.92705 
L 305.385074 166.304407 
L 306.279528 167.453602 
L 307.498662 168.250102 
L 308.910363 168.607593 
L 310.36165 168.487336 
L 311.695256 167.902362 
L 312.766663 166.916063 
L 313.459767 165.635319 
L 313.699459 164.198919 
" style="fill:none;stroke:#ff0000;stroke-linecap:square;stroke-width:1.5;"/>
   </g>
   <g id="line2d_68">
    <path clip-path="url(#pbf43f2e427)" d="M 381.262703 220.501622 
L 380.412883 215.40893 
L 377.955514 210.86811 
L 374.156891 207.371231 
L 369.428652 205.297233 
L 364.283177 204.870867 
L 359.278057 206.138336 
L 354.955675 208.962289 
L 351.784427 213.036708 
L 350.107968 217.920067 
L 350.107968 223.083177 
L 351.784427 227.966535 
L 354.955675 232.040954 
L 359.278057 234.864907 
L 364.283177 236.132376 
L 369.428652 235.70601 
L 374.156891 233.632012 
L 377.955514 230.135133 
L 380.412883 225.594313 
L 381.262703 220.501622 
" style="fill:none;stroke:#000000;stroke-dasharray:5.55,2.4;stroke-dashoffset:0;stroke-width:1.5;"/>
   </g>
   <g id="line2d_69">
    <path clip-path="url(#pbf43f2e427)" d="M 370.002162 220.501622 
L 369.762469 219.065221 
L 369.069365 217.784477 
L 367.997959 216.798178 
L 366.664353 216.213204 
L 365.213065 216.092947 
L 363.801365 216.450438 
L 362.582231 217.246938 
L 361.687777 218.396133 
L 361.214929 219.773491 
L 361.214929 221.229753 
L 361.687777 222.60711 
L 362.582231 223.756305 
L 363.801365 224.552805 
L 365.213065 224.910296 
L 366.664353 224.790039 
L 367.997959 224.205065 
L 369.069365 223.218766 
L 369.762469 221.938022 
L 370.002162 220.501622 
" style="fill:none;stroke:#ff0000;stroke-linecap:square;stroke-width:1.5;"/>
   </g>
   <g id="line2d_70">
    <path clip-path="url(#pbf43f2e427)" d="M 381.262703 164.198919 
L 380.412883 159.106227 
L 377.955514 154.565408 
L 374.156891 151.068528 
L 369.428652 148.994531 
L 364.283177 148.568165 
L 359.278057 149.835633 
L 354.955675 152.659586 
L 351.784427 156.734006 
L 350.107968 161.617364 
L 350.107968 166.780474 
L 351.784427 171.663832 
L 354.955675 175.738251 
L 359.278057 178.562205 
L 364.283177 179.829673 
L 369.428652 179.403307 
L 374.156891 177.329309 
L 377.955514 173.83243 
L 380.412883 169.291611 
L 381.262703 164.198919 
" style="fill:none;stroke:#000000;stroke-dasharray:5.55,2.4;stroke-dashoffset:0;stroke-width:1.5;"/>
   </g>
   <g id="line2d_71">
    <path clip-path="url(#pbf43f2e427)" d="M 370.002162 164.198919 
L 369.762469 162.762519 
L 369.069365 161.481775 
L 367.997959 160.495475 
L 366.664353 159.910502 
L 365.213065 159.790245 
L 363.801365 160.147736 
L 362.582231 160.944235 
L 361.687777 162.093431 
L 361.214929 163.470788 
L 361.214929 164.92705 
L 361.687777 166.304407 
L 362.582231 167.453602 
L 363.801365 168.250102 
L 365.213065 168.607593 
L 366.664353 168.487336 
L 367.997959 167.902362 
L 369.069365 166.916063 
L 369.762469 165.635319 
L 370.002162 164.198919 
" style="fill:none;stroke:#ff0000;stroke-linecap:square;stroke-width:1.5;"/>
   </g>
   <g id="line2d_72">
    <path clip-path="url(#pbf43f2e427)" d="M 437.565405 220.501622 
L 436.715585 215.40893 
L 434.258217 210.86811 
L 430.459593 207.371231 
L 425.731355 205.297233 
L 420.58588 204.870867 
L 415.58076 206.138336 
L 411.258377 208.962289 
L 408.08713 213.036708 
L 406.41067 217.920067 
L 406.41067 223.083177 
L 408.08713 227.966535 
L 411.258377 232.040954 
L 415.58076 234.864907 
L 420.58588 236.132376 
L 425.731355 235.70601 
L 430.459593 233.632012 
L 434.258217 230.135133 
L 436.715585 225.594313 
L 437.565405 220.501622 
" style="fill:none;stroke:#000000;stroke-dasharray:5.55,2.4;stroke-dashoffset:0;stroke-width:1.5;"/>
   </g>
   <g id="line2d_73">
    <path clip-path="url(#pbf43f2e427)" d="M 426.304865 220.501622 
L 426.065172 219.065221 
L 425.372068 217.784477 
L 424.300661 216.798178 
L 422.967056 216.213204 
L 421.515768 216.092947 
L 420.104067 216.450438 
L 418.884934 217.246938 
L 417.990479 218.396133 
L 417.517632 219.773491 
L 417.517632 221.229753 
L 417.990479 222.60711 
L 418.884934 223.756305 
L 420.104067 224.552805 
L 421.515768 224.910296 
L 422.967056 224.790039 
L 424.300661 224.205065 
L 425.372068 223.218766 
L 426.065172 221.938022 
L 426.304865 220.501622 
" style="fill:none;stroke:#ff0000;stroke-linecap:square;stroke-width:1.5;"/>
   </g>
   <g id="line2d_74">
    <path clip-path="url(#pbf43f2e427)" d="M 437.565405 164.198919 
L 436.715585 159.106227 
L 434.258217 154.565408 
L 430.459593 151.068528 
L 425.731355 148.994531 
L 420.58588 148.568165 
L 415.58076 149.835633 
L 411.258377 152.659586 
L 408.08713 156.734006 
L 406.41067 161.617364 
L 406.41067 166.780474 
L 408.08713 171.663832 
L 411.258377 175.738251 
L 415.58076 178.562205 
L 420.58588 179.829673 
L 425.731355 179.403307 
L 430.459593 177.329309 
L 434.258217 173.83243 
L 436.715585 169.291611 
L 437.565405 164.198919 
" style="fill:none;stroke:#000000;stroke-dasharray:5.55,2.4;stroke-dashoffset:0;stroke-width:1.5;"/>
   </g>
   <g id="line2d_75">
    <path clip-path="url(#pbf43f2e427)" d="M 426.304865 164.198919 
L 426.065172 162.762519 
L 425.372068 161.481775 
L 424.300661 160.495475 
L 422.967056 159.910502 
L 421.515768 159.790245 
L 420.104067 160.147736 
L 418.884934 160.944235 
L 417.990479 162.093431 
L 417.517632 163.470788 
L 417.517632 164.92705 
L 417.990479 166.304407 
L 418.884934 167.453602 
L 420.104067 168.250102 
L 421.515768 168.607593 
L 422.967056 168.487336 
L 424.300661 167.902362 
L 425.372068 166.916063 
L 426.065172 165.635319 
L 426.304865 164.198919 
" style="fill:none;stroke:#ff0000;stroke-linecap:square;stroke-width:1.5;"/>
   </g>
   <g id="line2d_76">
    <path clip-path="url(#pbf43f2e427)" d="M 92.108108 493.971892 
L 92.108108 87.788108 
" style="fill:none;stroke:#000000;stroke-linecap:square;stroke-width:4;"/>
   </g>
   <g id="line2d_77">
    <path clip-path="url(#pbf43f2e427)" d="M 92.108108 87.788108 
L 498.291892 87.788108 
" style="fill:none;stroke:#000000;stroke-linecap:square;stroke-width:4;"/>
   </g>
   <g id="line2d_78">
    <path clip-path="url(#pbf43f2e427)" d="M 498.291892 87.788108 
L 498.291892 493.971892 
" style="fill:none;stroke:#000000;stroke-linecap:square;stroke-width:4;"/>
   </g>
   <g id="line2d_79">
    <path clip-path="url(#pbf43f2e427)" d="M 498.291892 493.971892 
L 92.108108 493.971892 
" style="fill:none;stroke:#000000;stroke-linecap:square;stroke-width:4;"/>
   </g>
   <g id="line2d_80">
    <path clip-path="url(#pbf43f2e427)" d="M 140.367568 389.40973 
L 140.930595 389.40973 
L 142.297946 389.248865 
L 144.469622 388.484757 
L 146.319568 387.197838 
L 149.737946 384.262054 
L 157.740973 378.028541 
L 177.245838 362.826811 
L 179.055568 362.102919 
L 181.267459 361.821405 
L 185.329297 362.183351 
L 190.396541 361.781189 
L 194.659459 361.861622 
L 201.013622 361.097514 
L 203.346162 360.534486 
L 219.915243 357.357405 
L 223.936865 356.593297 
L 230.572541 355.829189 
L 234.51373 355.346595 
L 236.966919 355.547676 
L 245.693838 356.794378 
L 249.433946 358.282378 
L 251.444757 358.805189 
L 253.133838 359.086703 
L 255.466378 359.810595 
L 257.557622 360.816 
L 259.286919 361.338811 
L 263.067243 361.660541 
L 266.928 362.545297 
L 268.818162 362.706162 
L 271.472432 363.068108 
L 273.241946 363.671351 
L 275.413622 364.234378 
L 277.424432 364.355027 
L 280.239568 364.676757 
L 282.692757 365.521297 
L 284.743784 366.003892 
L 286.794811 366.044108 
L 289.288216 365.561514 
L 292.022919 365.360432 
L 293.752216 365.60173 
L 296.084757 365.762595 
L 298.095568 365.400649 
L 299.945514 364.757189 
L 302.076973 364.234378 
L 304.047568 364.153946 
L 308.310486 364.877838 
L 310.361514 364.797405 
L 312.533189 364.355027 
L 314.785297 364.355027 
L 316.956973 364.918054 
L 318.887351 366.003892 
L 320.455784 367.612541 
L 321.742703 369.703784 
L 322.547027 371.392865 
L 323.190486 372.39827 
L 324.236108 373.283027 
L 326.568649 374.328649 
L 328.338162 374.569946 
L 330.389189 374.368865 
L 332.279351 373.604757 
L 335.416216 371.593946 
L 337.829189 370.749405 
L 339.920432 370.467892 
L 341.64973 370.06573 
L 343.942054 368.859243 
L 345.228973 367.894054 
L 347.038703 366.768 
L 352.387459 364.797405 
L 354.116757 364.033297 
L 355.604757 363.027892 
L 358.500324 360.252973 
L 360.149189 359.207351 
L 362.200216 358.362811 
L 364.090378 357.920432 
L 366.704432 356.995459 
L 370.967351 354.220541 
L 374.265081 352.772757 
L 377.36173 350.72173 
L 380.900757 348.308757 
L 383.957189 345.734919 
L 386.812541 342.96 
L 392.684108 336.404757 
L 393.971027 334.956973 
L 395.177514 332.946162 
L 395.861189 330.73427 
L 396.665514 328.844108 
L 398.394811 326.672432 
L 401.491459 324.058378 
L 402.778378 322.168216 
L 403.703351 319.715027 
L 404.909838 317.543351 
L 406.357622 315.894486 
L 407.443459 314.486919 
L 408.247784 312.596757 
L 408.569514 311.068541 
L 408.529297 309.097946 
L 407.684757 300.531892 
L 406.035892 287.783351 
L 405.875027 285.852973 
L 405.915243 283.922595 
L 406.156541 279.941189 
L 406.196757 277.729297 
L 407.081514 267.594811 
L 407.161946 265.26227 
L 407.564108 263.130811 
L 408.368432 261.079784 
L 408.971676 259.109189 
L 409.092324 257.339676 
L 408.971676 255.570162 
L 408.448865 252.151784 
L 407.644541 247.929081 
L 406.719568 244.349838 
L 405.754378 242.499892 
L 404.507676 240.569514 
L 403.462054 238.639135 
L 401.893622 234.939243 
L 400.365405 230.917622 
L 399.239351 227.298162 
L 398.233946 223.115676 
L 397.831784 220.984216 
L 396.665514 213.021405 
L 395.981838 208.798703 
L 394.614486 198.94573 
L 394.051459 194.682811 
L 394.051459 194.682811 
" style="fill:none;stroke:#8000ff;stroke-linecap:square;stroke-width:1.5;"/>
   </g>
   <g id="line2d_81">
    <path clip-path="url(#pbf43f2e427)" d="M 450.032432 192.35027 
L 450.27373 192.430703 
L 450.474811 192.832865 
L 450.635676 193.798054 
L 450.515027 195.004541 
L 449.750919 197.176216 
L 448.464 198.985946 
L 447.096649 200.192432 
L 441.747892 203.852108 
L 439.897946 204.576 
L 437.967568 204.89773 
L 436.117622 205.058595 
L 432.055784 205.139027 
L 429.602595 204.817297 
L 424.213622 203.369514 
L 420.51373 203.128216 
L 418.422486 203.208649 
L 416.572541 203.449946 
L 414.803027 203.811892 
L 412.752 204.415135 
L 411.022703 205.098811 
L 409.132541 206.023784 
L 407.523892 206.948757 
L 405.754378 208.115027 
L 404.306595 209.241081 
L 401.129514 212.096432 
L 398.796973 214.67027 
L 396.06227 217.968 
L 394.373189 219.657081 
L 393.166703 221.104865 
L 390.914595 224.724324 
L 386.933189 230.354595 
L 386.249514 232.244757 
L 386.048432 233.933838 
L 385.565838 236.588108 
L 383.836541 240.810811 
L 382.549622 245.113946 
L 382.428973 246.923676 
L 382.831135 248.89427 
L 383.635459 250.864865 
L 384.359351 253.519135 
L 384.399568 255.811459 
L 384.560432 257.661405 
L 384.922378 259.229838 
L 385.244108 261.964541 
L 384.882162 264.216649 
L 384.640865 266.428541 
L 384.841946 268.23827 
L 384.962595 270.892541 
L 384.681081 273.385946 
L 384.80173 275.919568 
L 385.364757 277.769514 
L 385.807135 279.981405 
L 385.766919 282.474811 
L 385.284324 286.214919 
L 384.439784 290.236541 
L 383.796324 294.057081 
L 382.308324 300.049297 
L 381.021405 304.473081 
L 379.452973 308.776216 
L 378.648649 310.54573 
L 377.321514 312.315243 
L 374.144432 315.090162 
L 372.576 316.819459 
L 371.570595 316.739027 
L 370.726054 316.457514 
L 369.358703 316.135784 
L 367.830486 316.055351 
L 365.819676 316.417297 
L 364.211027 317.181405 
L 362.562162 318.428108 
L 360.953514 320.278054 
L 359.747027 321.363892 
L 357.494919 322.570378 
L 355.04173 323.012757 
L 351.301622 323.012757 
L 349.08973 323.656216 
L 347.60173 324.621405 
L 346.153946 326.069189 
L 344.907243 328.240865 
L 343.781189 329.809297 
L 342.092108 331.257081 
L 340.322595 332.141838 
L 338.754162 332.584216 
L 336.743351 333.026595 
L 334.933622 333.71027 
L 333.646703 334.514595 
L 329.182703 338.335135 
L 326.12627 341.270919 
L 322.024216 345.855568 
L 320.616649 347.182703 
L 318.927568 348.509838 
L 316.916757 349.917405 
L 314.825514 351.164108 
L 311.929946 353.577081 
L 309.959351 354.622703 
L 305.776865 355.990054 
L 304.248649 356.713946 
L 300.347676 358.403027 
L 298.457514 359.609514 
L 296.165189 360.896432 
L 290.293622 363.068108 
L 288.483892 363.711568 
L 283.979676 364.716973 
L 282.12973 365.078919 
L 277.826595 365.481081 
L 275.654919 365.561514 
L 268.576865 365.320216 
L 263.027027 364.11373 
L 256.391351 363.309405 
L 252.691459 363.349622 
L 248.066595 362.907243 
L 243.803676 362.545297 
L 228.038919 361.459459 
L 225.625946 361.298595 
L 225.625946 361.298595 
" style="fill:none;stroke:#4c4ffc;stroke-linecap:square;stroke-width:1.5;"/>
   </g>
   <g id="line2d_82">
    <path clip-path="url(#pbf43f2e427)" d="M 402.175135 440.082162 
L 401.974054 440.162595 
L 402.255568 439.800649 
L 402.577297 439.116973 
L 402.778378 437.669189 
L 402.537081 436.100757 
L 401.933838 434.411676 
L 400.928432 432.883459 
L 391.678703 420.376216 
L 387.415784 414.544865 
L 385.043027 411.287351 
L 383.836541 409.477622 
L 383.032216 407.104865 
L 382.227892 397.332324 
L 382.428973 395.160649 
L 382.992 391.500973 
L 383.152865 389.40973 
L 383.112649 387.27827 
L 382.951784 385.428324 
L 382.589838 383.337081 
L 382.147459 381.567568 
L 381.544216 379.798054 
L 380.739892 377.867676 
L 379.734486 375.977514 
L 377.723676 372.880865 
L 375.350919 370.025514 
L 372.696649 367.411459 
L 369.881514 364.95827 
L 368.353297 363.711568 
L 366.905514 362.344216 
L 365.377297 361.057297 
L 360.672 358.000865 
L 359.143784 356.915027 
L 357.213405 356.070486 
L 355.484108 355.708541 
L 351.100541 355.225946 
L 348.969081 354.622703 
L 347.481081 353.737946 
L 346.194162 352.571676 
L 342.212757 347.625081 
L 339.196541 343.884973 
L 336.662919 340.949189 
L 335.577081 338.697081 
L 335.215135 336.766703 
L 335.295568 334.554811 
L 335.778162 332.503784 
L 336.461838 326.994162 
L 336.984649 326.91373 
L 338.713946 327.315892 
L 340.563892 328.683243 
L 341.931243 330.452757 
L 342.454054 331.860324 
L 342.413838 332.704865 
L 342.092108 333.629838 
L 341.247568 334.876541 
L 340.282378 335.721081 
L 339.598703 336.123243 
L 337.507459 336.525405 
L 335.014054 336.324324 
L 332.440216 335.19827 
L 331.314162 334.273297 
L 330.188108 332.704865 
L 329.303351 330.372324 
L 329.142486 327.878919 
L 329.705514 325.42573 
L 330.630486 323.656216 
L 331.475027 321.524757 
L 331.796757 319.353081 
L 332.359784 316.859676 
L 334.048865 312.315243 
L 334.772757 307.609946 
L 336.019459 303.829622 
L 336.180324 301.577514 
L 335.778162 299.204757 
L 335.69773 296.992865 
L 336.140108 295.062486 
L 337.668324 291.282162 
L 338.070486 289.432216 
L 338.271568 287.542054 
L 339.276973 283.641081 
L 339.437838 281.590054 
L 338.874811 277.689081 
L 338.995459 276.040216 
L 339.598703 273.828324 
L 339.960649 272.058811 
L 340.121514 270.168649 
L 340.483459 267.594811 
L 341.126919 266.066595 
L 342.011676 264.779676 
L 342.614919 264.337297 
L 343.700757 263.693838 
L 344.867027 262.809081 
L 346.194162 261.280865 
L 347.119135 259.471135 
L 347.481081 257.701622 
L 347.320216 255.409297 
L 346.918054 254.00173 
L 346.556108 252.151784 
L 346.596324 247.808432 
L 346.11373 245.837838 
L 345.148541 244.028108 
L 343.98227 242.741189 
L 340.885622 239.926054 
L 339.357405 238.8 
L 337.507459 237.915243 
L 335.939027 237.352216 
L 332.07827 235.622919 
L 330.107676 235.140324 
L 328.338162 235.140324 
L 320.375351 236.065297 
L 316.233081 237.070703 
L 312.050595 238.116324 
L 309.919135 238.397838 
L 308.028973 238.518486 
L 305.817081 238.438054 
L 303.685622 238.236973 
L 301.554162 237.794595 
L 299.704216 237.271784 
L 297.653189 236.547892 
L 295.923892 235.783784 
L 294.234811 234.899027 
L 290.816432 232.727351 
L 289.127351 231.319784 
L 286.352432 228.06227 
L 284.864432 226.896 
L 281.566703 224.563459 
L 279.917838 223.115676 
L 273.885405 215.555027 
L 271.271351 212.498595 
L 267.410595 208.034595 
L 265.922595 206.546595 
L 262.866162 203.972757 
L 261.337946 202.927135 
L 257.638054 200.916324 
L 254.420757 199.669622 
L 248.508973 197.819676 
L 244.487351 196.532757 
L 242.677622 196.090378 
L 238.696216 195.32627 
L 232.140973 193.878486 
L 226.349838 192.672 
L 226.349838 192.672 
" style="fill:none;stroke:#1996f3;stroke-linecap:square;stroke-width:1.5;"/>
   </g>
   <g id="line2d_83">
    <path clip-path="url(#pbf43f2e427)" d="M 224.821622 136.047568 
L 225.223784 136.047568 
L 226.43027 136.208432 
L 228.360649 136.892108 
L 230.210595 138.179027 
L 231.296432 139.345297 
L 233.830054 142.884324 
L 234.835459 144.291892 
L 235.68 145.779892 
L 236.363676 148.192865 
L 236.604973 152.616649 
L 236.685405 154.466595 
L 236.645189 156.678486 
L 236.323459 158.850162 
L 235.961514 160.458811 
L 235.559351 162.791351 
L 235.478919 164.4 
L 235.519135 166.772757 
L 235.68 168.341189 
L 236.041946 170.432432 
L 236.484324 172.201946 
L 237.087568 173.971459 
L 237.932108 175.901838 
L 239.058162 177.993081 
L 240.063568 179.561514 
L 241.31027 181.290811 
L 242.637405 182.939676 
L 244.004757 184.266811 
L 245.734054 185.352649 
L 249.232865 186.679784 
L 250.841514 187.765622 
L 252.570811 189.132973 
L 254.058811 190.138378 
L 255.707676 190.982919 
L 257.436973 191.626378 
L 259.488 192.511135 
L 261.056432 193.637189 
L 262.825946 194.602378 
L 266.928 195.849081 
L 268.858378 196.975135 
L 270.547459 198.382703 
L 272.276757 199.548973 
L 274.207135 200.473946 
L 276.338595 201.640216 
L 279.676541 203.892324 
L 283.336216 206.023784 
L 284.944865 207.109622 
L 286.432865 208.758486 
L 287.639351 210.889946 
L 288.966486 212.900757 
L 290.736 214.388757 
L 292.384865 215.112649 
L 295.803243 215.916973 
L 297.974919 216.037622 
L 297.814054 216.118054 
L 298.296649 215.31373 
L 298.819459 213.262703 
L 298.859676 211.734486 
L 298.49773 209.804108 
L 298.296649 207.592216 
L 298.49773 205.943351 
L 299.382486 203.570595 
L 300.950919 201.6 
L 303.001946 200.192432 
L 304.851892 199.548973 
L 307.104 199.347892 
L 309.516973 199.709838 
L 311.929946 200.313081 
L 316.072216 200.795676 
L 317.922162 201.398919 
L 320.294919 202.645622 
L 321.742703 203.168432 
L 323.914378 203.691243 
L 326.045838 204.535784 
L 329.665297 206.908541 
L 331.515243 207.954162 
L 333.646703 208.879135 
L 335.335784 209.804108 
L 337.18573 211.452973 
L 338.553081 213.262703 
L 339.478054 215.233297 
L 340.362811 216.80173 
L 341.971459 218.410378 
L 345.027892 220.421189 
L 346.475676 222.070054 
L 347.440865 223.718919 
L 348.406054 225.609081 
L 350.778811 229.831784 
L 351.623351 231.440432 
L 353.835243 234.336 
L 355.283027 236.025081 
L 356.771027 237.191351 
L 359.023135 239.12173 
L 360.35027 240.810811 
L 361.637189 242.017297 
L 363.286054 243.022703 
L 364.975135 244.229189 
L 366.422919 245.91827 
L 367.267459 247.687784 
L 367.750054 249.53773 
L 369.036973 255.570162 
L 370.444541 261.240649 
L 372.455351 266.428541 
L 373.541189 270.570811 
L 375.954162 281.027027 
L 377.603027 288.346378 
L 379.734486 298.038486 
L 380.096432 300.210162 
L 379.975784 302.180757 
L 379.412757 304.432865 
L 378.769297 306.363243 
L 377.844324 308.575135 
L 377.442162 310.585946 
L 377.522595 312.355459 
L 378.246486 314.527135 
L 381.302919 319.715027 
L 381.906162 321.484541 
L 382.710486 323.414919 
L 384.520216 326.752865 
L 386.008216 330.573405 
L 387.295135 334.956973 
L 387.657081 336.565622 
L 388.260324 338.576432 
L 389.587459 342.678486 
L 390.190703 345.051243 
L 391.035243 349.193514 
L 393.448216 359.931243 
L 393.448216 359.931243 
" style="fill:none;stroke:#1acee3;stroke-linecap:square;stroke-width:1.5;"/>
   </g>
   <g id="line2d_84">
    <path clip-path="url(#pbf43f2e427)" d="M 450.032432 304.955676 
L 449.831351 305.036108 
L 449.670486 305.237189 
L 449.710703 304.915459 
L 449.549838 304.312216 
L 449.107459 303.347027 
L 448.182486 302.301405 
L 446.734703 301.255784 
L 444.844541 300.491676 
L 423.369081 296.108108 
L 412.068324 293.735351 
L 403.944649 292.04627 
L 388.461405 288.788757 
L 370.605405 285.048649 
L 368.353297 284.726919 
L 366.583784 284.887784 
L 364.854486 285.450811 
L 363.125189 286.536649 
L 360.149189 288.788757 
L 357.856865 289.673514 
L 355.081946 289.874595 
L 348.768 288.668108 
L 346.556108 288.467027 
L 346.757189 288.386595 
L 346.877838 288.22573 
L 346.837622 288.426811 
L 346.877838 288.426811 
L 346.757189 288.547459 
L 344.585514 291.483243 
L 343.499676 293.051676 
L 341.850811 294.579892 
L 338.352 296.51027 
L 333.405405 300.210162 
L 330.147892 301.738378 
L 327.051243 303.708973 
L 324.839351 304.674162 
L 322.627459 305.156757 
L 318.324324 305.398054 
L 316.755892 305.317622 
L 314.86573 304.875243 
L 311.568 303.387243 
L 309.315892 303.025297 
L 304.851892 303.427459 
L 302.64 303.10573 
L 300.910703 302.46227 
L 299.261838 302.060108 
L 291.90227 301.497081 
L 290.132757 301.296 
L 288.08173 301.456865 
L 286.070919 302.140541 
L 284.019892 302.703568 
L 281.526486 302.703568 
L 279.113514 301.939459 
L 268.335568 295.464649 
L 258.924973 289.311568 
L 257.034811 288.185514 
L 254.822919 287.381189 
L 251.364324 286.295351 
L 245.77427 283.681297 
L 241.712432 281.549838 
L 240.063568 280.624865 
L 238.133189 279.337946 
L 236.604973 277.689081 
L 233.709405 272.822919 
L 232.301838 271.375135 
L 230.89427 270.450162 
L 227.395459 268.399135 
L 225.424865 266.991568 
L 220.397838 262.92973 
L 216.697946 260.315676 
L 211.912216 257.379892 
L 203.788541 252.714811 
L 198.439784 249.658378 
L 198.439784 249.658378 
" style="fill:none;stroke:#4df3ce;stroke-linecap:square;stroke-width:1.5;"/>
   </g>
   <g id="line2d_85">
    <path clip-path="url(#pbf43f2e427)" d="M 140.367568 248.652973 
L 141.61427 248.652973 
L 145.917405 249.014919 
L 152.03027 249.738811 
L 172.540541 252.031135 
L 202.903784 255.369081 
L 214.325189 256.575568 
L 215.974054 256.776649 
L 218.547892 257.741838 
L 220.116324 258.908108 
L 224.218378 263.734054 
L 225.223784 265.101405 
L 226.188973 266.911135 
L 227.878054 271.21427 
L 229.124757 272.822919 
L 230.693189 273.948973 
L 231.738811 274.351135 
L 232.945297 274.552216 
L 234.232216 274.552216 
L 234.996324 274.230486 
L 237.529946 272.340324 
L 239.379892 271.334919 
L 240.546162 270.530595 
L 243.522162 267.956757 
L 246.015568 266.75027 
L 247.302486 266.549189 
L 247.744865 266.710054 
L 248.388324 267.232865 
L 248.508973 267.514378 
L 248.589405 268.23827 
L 248.388324 269.123027 
L 248.187243 269.565405 
L 247.061189 271.174054 
L 245.211243 272.903351 
L 243.924324 274.391351 
L 243.481946 275.075027 
L 243.522162 274.873946 
L 243.723243 275.477189 
L 244.205838 276.241297 
L 245.010162 277.085838 
L 246.457946 278.091243 
L 247.865514 278.694486 
L 250.399135 279.016216 
L 252.168649 278.734703 
L 253.536 278.252108 
L 255.546811 277.407568 
L 260.292324 276.241297 
L 264.153081 274.552216 
L 265.44 274.270703 
L 266.968216 274.431568 
L 268.979027 275.235892 
L 270.346378 276.201081 
L 272.799568 278.65427 
L 274.368 279.820541 
L 276.016865 280.544432 
L 277.786378 280.906378 
L 280.078703 280.78573 
L 281.606919 280.383568 
L 284.220973 279.539027 
L 286.070919 278.573838 
L 287.398054 277.367351 
L 288.725189 275.155459 
L 289.328432 272.903351 
L 289.489297 271.053405 
L 289.971892 268.88173 
L 291.178378 266.710054 
L 295.441297 262.125405 
L 296.969514 260.677622 
L 300.548757 258.304865 
L 302.438919 257.178811 
L 304.731243 256.253838 
L 311.045189 254.725622 
L 313.096216 254.604973 
L 314.905946 254.363676 
L 317.117838 253.921297 
L 319.32973 253.760432 
L 321.541622 254.202811 
L 323.753514 255.409297 
L 324.799135 256.33427 
L 325.523027 257.379892 
L 326.005622 257.741838 
L 328.700108 259.028757 
L 329.424 259.712432 
L 331.193514 262.125405 
L 332.72173 263.492757 
L 334.571676 264.538378 
L 336.220541 265.26227 
L 339.478054 266.428541 
L 343.338811 267.474162 
L 351.462486 269.082811 
L 386.048432 275.477189 
L 387.858162 276.040216 
L 391.92 277.729297 
L 391.92 277.729297 
" style="fill:none;stroke:#80ffb4;stroke-linecap:square;stroke-width:1.5;"/>
   </g>
   <g id="line2d_86">
    <path clip-path="url(#pbf43f2e427)" d="M 281.124324 192.35027 
L 281.204757 192.35027 
L 281.808 192.470919 
L 282.572108 192.873081 
L 283.255784 193.395892 
L 284.220973 194.803459 
L 284.743784 196.894703 
L 284.784 198.825081 
L 284.703568 200.675027 
L 284.542703 203.047784 
L 284.381838 205.098811 
L 283.939459 207.190054 
L 283.416649 209.281297 
L 283.135135 210.84973 
L 282.813405 212.940973 
L 282.652541 215.233297 
L 282.692757 217.083243 
L 282.732973 218.691892 
L 282.652541 220.863568 
L 282.572108 223.276541 
L 282.531892 224.885189 
L 282.491676 227.016649 
L 282.451459 228.625297 
L 282.411243 230.233946 
L 282.371027 232.646919 
L 282.330811 234.537081 
L 282.290595 236.950054 
L 282.290595 239.081514 
L 282.250378 241.212973 
L 282.210162 243.384649 
L 282.210162 245.797622 
L 282.169946 247.929081 
L 282.12973 250.060541 
L 282.12973 251.669189 
L 282.089514 253.840865 
L 282.089514 255.972324 
L 282.049297 258.103784 
L 282.009081 260.516757 
L 282.009081 262.406919 
L 281.968865 264.538378 
L 281.928649 266.428541 
L 281.928649 268.841514 
L 281.888432 270.731676 
L 281.848216 272.581622 
L 281.848216 274.471784 
L 281.808 276.603243 
L 281.808 278.211892 
L 281.767784 280.102054 
L 281.727568 282.515027 
L 281.727568 284.646486 
L 281.687351 286.536649 
L 281.687351 288.426811 
L 281.647135 290.839784 
L 281.606919 293.252757 
L 281.606919 295.384216 
L 281.566703 297.515676 
L 281.526486 299.405838 
L 281.526486 301.296 
L 281.526486 303.708973 
L 281.526486 306.121946 
L 281.526486 308.253405 
L 281.566703 309.862054 
L 281.606919 311.189189 
L 281.647135 313.320649 
L 281.687351 315.210811 
L 281.606919 317.623784 
L 281.566703 319.513946 
L 281.526486 321.645405 
L 281.446054 323.817081 
L 281.365622 326.230054 
L 281.285189 328.08 
L 281.204757 330.251676 
L 281.164541 332.101622 
" style="fill:none;stroke:#b3f396;stroke-linecap:square;stroke-width:1.5;"/>
   </g>
   <g id="line2d_87">
    <path clip-path="url(#pbf43f2e427)" d="M 140.367568 304.955676 
L 141.091459 304.955676 
L 143.062054 304.835027 
L 145.113081 304.553514 
L 146.963027 304.231784 
L 149.094486 303.869838 
L 151.18573 303.507892 
L 153.317189 303.145946 
L 155.167135 302.824216 
L 157.258378 302.46227 
L 159.631135 302.060108 
L 161.521297 301.738378 
L 163.08973 301.497081 
L 164.939676 301.175351 
L 166.789622 300.853622 
L 168.639568 300.531892 
L 170.771027 300.210162 
L 173.143784 299.808 
L 174.712216 299.526486 
L 176.843676 299.164541 
L 178.934919 298.802595 
L 180.784865 298.480865 
L 182.393514 298.239568 
L 184.243459 297.917838 
L 186.334703 297.555892 
L 188.184649 297.234162 
L 190.316108 296.872216 
L 192.166054 296.590703 
L 194.297514 296.228757 
L 196.147459 295.907027 
L 198.238703 295.545081 
L 199.565838 295.303784 
L 200.732108 295.02227 
L 202.059243 294.620108 
L 203.185297 294.217946 
L 204.512432 293.735351 
L 205.558054 293.333189 
L 207.206919 292.810378 
L 209.861189 292.327784 
L 211.952432 292.086486 
L 213.923027 291.804973 
L 215.732757 291.523459 
L 217.622919 291.402811 
L 219.271784 291.443027 
L 221.403243 291.523459 
L 223.253189 291.523459 
L 225.062919 291.603892 
L 227.516108 291.804973 
L 230.089946 292.287568 
L 232.181189 292.971243 
L 234.594162 294.217946 
L 236.444108 295.384216 
L 238.092973 296.067892 
L 239.862486 296.309189 
L 241.913514 296.108108 
L 243.642811 295.66573 
L 245.693838 294.700541 
L 247.624216 293.896216 
L 249.232865 293.53427 
L 251.243676 293.373405 
L 253.696865 292.971243 
L 256.391351 292.609297 
L 258.201081 292.327784 
L 260.010811 291.965838 
L 262.061838 291.443027 
L 264.112865 290.88 
L 265.922595 290.397405 
L 268.013838 289.874595 
L 270.105081 289.311568 
L 272.156108 288.748541 
L 274.207135 288.185514 
L 276.539676 287.501838 
L 278.349405 286.979027 
L 279.877622 286.496432 
L 281.647135 285.933405 
L 283.698162 285.289946 
L 285.749189 284.60627 
L 287.800216 283.962811 
L 289.609946 283.44 
L 291.419676 282.917189 
L 293.189189 282.474811 
L 295.52173 281.911784 
L 297.411892 281.590054 
L 299.34227 281.469405 
L 301.47373 281.590054 
L 303.645405 281.710703 
L 305.897514 281.308541 
L 307.747459 280.383568 
L 309.275676 279.056432 
" style="fill:none;stroke:#e6ce74;stroke-linecap:square;stroke-width:1.5;"/>
   </g>
   <g id="line2d_88">
    <path clip-path="url(#pbf43f2e427)" d="M 393.72973 220.501622 
L 393.930811 220.582054 
L 394.091676 220.783135 
L 394.091676 221.346162 
L 393.930811 222.070054 
L 393.247135 223.799351 
L 391.92 225.609081 
L 390.432 226.855784 
L 385.123459 230.113297 
L 375.712865 236.789189 
L 372.173838 238.759784 
L 368.916324 240.167351 
L 364.774054 241.373838 
L 361.315459 241.977081 
L 357.253622 242.339027 
L 352.467892 242.459676 
L 348.003892 243.304216 
L 344.022486 244.028108 
L 340.362811 244.671568 
L 338.512865 245.435676 
L 336.823784 246.682378 
L 334.370595 249.095351 
L 331.153297 251.468108 
L 329.826162 252.996324 
L 328.981622 254.886486 
L 328.539243 256.937514 
L 327.895784 259.350486 
L 326.287135 262.969946 
L 325.040432 266.669838 
L 324.316541 268.117622 
L 323.512216 269.002378 
L 321.501405 270.409946 
L 319.651459 271.053405 
L 317.680865 271.294703 
L 315.468973 270.972973 
L 309.356108 268.680649 
L 307.264865 267.956757 
L 307.224649 267.675243 
L 307.305081 267.514378 
L 307.988757 267.031784 
L 309.315892 266.508973 
L 309.235459 266.589405 
L 309.195243 266.790486 
L 309.155027 266.508973 
L 308.511568 264.860108 
L 307.747459 263.693838 
L 306.380108 262.406919 
L 305.093189 260.597189 
L 303.645405 257.580973 
L 302.680216 256.374486 
L 301.071568 255.087568 
L 298.980324 254.243027 
L 296.688 254.041946 
L 294.435892 254.564757 
L 292.585946 255.409297 
L 290.856649 256.012541 
L 288.604541 256.213622 
L 286.674162 255.932108 
L 284.381838 254.886486 
L 282.853622 253.68 
L 281.526486 251.87027 
L 280.722162 250.060541 
L 279.555892 248.371459 
L 278.429838 247.366054 
L 276.901622 246.400865 
L 276.539676 245.475892 
L 276.097297 243.344432 
L 276.258162 241.092324 
L 276.941838 239.001081 
L 278.389622 236.950054 
L 281.204757 234.255568 
L 282.250378 232.968649 
L 282.97427 231.762162 
L 282.97427 231.802378 
L 282.451459 230.796973 
L 280.802595 229.389405 
L 278.952649 228.544865 
L 277.263568 228.142703 
L 275.53427 227.579676 
L 273.684324 226.453622 
L 271.914811 224.724324 
L 270.708324 222.834162 
L 269.381189 221.024432 
L 268.375784 219.375568 
L 266.968216 215.957189 
L 265.842162 214.187676 
L 264.193297 212.538811 
L 262.464 210.648649 
L 261.29773 208.436757 
L 260.694486 206.224865 
L 260.010811 204.214054 
L 258.804324 202.203243 
L 257.517405 200.996757 
L 255.747892 199.991351 
L 253.737081 199.468541 
L 251.967568 199.508757 
L 248.267676 200.192432 
L 246.337297 200.071784 
L 242.396108 199.106595 
L 240.586378 199.066378 
L 238.776649 199.187027 
L 236.323459 199.106595 
L 232.140973 198.020757 
L 230.492108 197.859892 
L 228.803027 198.060973 
L 227.154162 198.704432 
L 225.827027 199.548973 
L 222.649946 202.364108 
L 219.794595 205.098811 
L 218.829405 206.586811 
L 218.025081 208.597622 
L 216.617514 212.619243 
L 215.209946 216.238703 
L 214.204541 218.048432 
L 213.480649 219.657081 
L 213.118703 221.386378 
L 213.279568 223.678703 
L 213.963243 225.609081 
L 214.968649 227.21773 
L 216.054486 229.188324 
L 216.496865 231.078486 
L 216.577297 233.531676 
L 216.376216 235.059892 
L 216.295784 236.829405 
L 216.65773 238.840216 
L 217.783784 242.339027 
L 218.427243 246.119351 
L 218.547892 248.009514 
L 218.547892 249.899676 
L 218.387027 251.789838 
L 218.025081 253.961514 
L 217.542486 255.811459 
L 216.818595 257.862486 
L 215.933838 259.833081 
L 214.848 261.723243 
L 213.923027 263.090595 
L 212.595892 264.779676 
L 211.268757 266.147027 
L 209.861189 267.433946 
L 208.172108 268.801297 
L 206.322162 269.967568 
L 204.190703 271.133838 
L 200.651676 272.541405 
L 199.083243 272.983784 
L 196.951784 273.466378 
L 192.769297 274.069622 
L 184.967351 275.879351 
L 179.055568 276.361946 
L 172.86227 276.522811 
L 162.124541 276.643459 
L 150.341189 276.723892 
L 142.579459 276.804324 
L 142.579459 276.804324 
" style="fill:none;stroke:#ff964f;stroke-linecap:square;stroke-width:1.5;"/>
   </g>
   <g id="line2d_89">
    <path clip-path="url(#pbf43f2e427)" d="M 140.367568 136.047568 
L 140.890378 136.047568 
L 142.539243 136.248649 
L 144.630486 137.012757 
L 146.641297 138.500757 
L 147.888 139.948541 
L 149.094486 141.436541 
L 150.502054 143.045189 
L 151.788973 144.332108 
L 153.317189 145.860324 
L 154.604108 147.227676 
L 156.293189 148.956973 
L 157.781189 150.485189 
L 159.108324 151.852541 
L 160.757189 153.581838 
L 162.084324 154.908973 
L 163.572324 156.477405 
L 164.899459 157.804541 
L 166.186378 159.171892 
L 167.473297 160.499027 
L 168.679784 161.826162 
L 169.846054 163.676108 
L 170.569946 165.324973 
L 171.454703 167.215135 
L 172.741622 169.18573 
L 173.948108 170.995459 
L 174.953514 172.563892 
L 176.119784 174.373622 
L 177.366486 176.102919 
L 178.452324 177.590919 
L 179.819676 179.239784 
L 181.187027 180.848432 
L 182.634811 182.416865 
L 183.801081 183.542919 
L 185.128216 184.829838 
L 186.535784 186.076541 
L 187.983568 187.242811 
L 189.672649 188.610162 
L 191.04 189.897081 
L 192.568216 191.425297 
L 194.056216 192.792649 
L 195.906162 193.878486 
L 197.715892 194.602378 
L 199.726703 195.527351 
L 202.019027 196.975135 
L 203.587459 198.020757 
L 205.155892 199.026162 
L 206.965622 200.232649 
L 208.735135 201.479351 
L 210.223135 202.605405 
L 211.670919 203.811892 
L 213.319784 205.219459 
L 214.284973 206.144432 
L 215.813189 207.672649 
L 217.100108 209.080216 
L 218.346811 210.487784 
L 219.513081 211.975784 
L 221.041297 213.906162 
L 222.288 215.273514 
L 223.615135 216.600649 
L 224.902054 218.088649 
L 225.907459 219.697297 
L 226.631351 221.426595 
L 227.435676 223.155892 
L 228.360649 224.764541 
L 229.486703 226.57427 
L 230.813838 228.585081 
L 232.060541 230.314378 
L 233.146378 231.802378 
L 234.151784 233.089297 
L 235.720216 234.899027 
L 236.806054 236.065297 
L 238.495135 237.754378 
L 240.264649 239.322811 
L 242.034162 240.60973 
L 243.763459 241.936865 
L 245.452541 243.304216 
L 247.342703 244.711784 
L 248.669838 245.636757 
L 250.23827 246.682378 
L 252.007784 247.888865 
" style="fill:none;stroke:#ff4f28;stroke-linecap:square;stroke-width:1.5;"/>
   </g>
   <g id="line2d_90">
    <path clip-path="url(#pbf43f2e427)" d="M 337.427027 164.198919 
L 337.628108 164.279351 
L 338.03027 164.641297 
L 338.754162 165.686919 
L 339.51827 167.617297 
L 339.719351 169.467243 
L 339.437838 171.317189 
L 338.713946 173.126919 
L 337.668324 174.735568 
L 335.376 177.993081 
L 333.284757 181.129946 
L 330.831568 184.347243 
L 325.201297 191.50573 
L 322.707892 194.642595 
L 321.420973 196.130595 
L 319.369946 197.538162 
L 314.86573 199.347892 
L 310.924541 201.157622 
L 307.345297 202.283676 
L 303.243243 203.490162 
L 301.272649 204.25427 
L 297.773838 206.064 
L 296.205405 207.069405 
L 294.797838 208.195459 
L 293.792432 209.36173 
L 292.867459 211.171459 
L 292.425081 212.940973 
L 292.183784 214.911568 
L 291.741405 217.324541 
L 290.937081 219.576649 
L 290.454486 221.466811 
L 290.454486 223.517838 
L 290.977297 226.051459 
L 291.218595 227.941622 
L 291.05773 232.566486 
L 291.299027 234.416432 
L 291.741405 236.748973 
L 292.063135 239.12173 
L 291.942486 241.092324 
L 291.339243 243.465081 
L 290.41427 245.676973 
L 289.248 247.285622 
L 287.518703 248.693189 
L 285.507892 249.53773 
L 284.060108 249.779027 
L 282.411243 249.577946 
L 280.32 248.693189 
L 278.349405 247.124757 
L 277.02227 245.315027 
L 276.137514 243.264 
L 275.815784 241.052108 
L 276.17773 238.598919 
L 277.02227 236.306595 
L 277.464649 234.01427 
L 277.223351 231.721946 
L 276.298378 229.630703 
L 274.931027 227.820973 
L 273.925622 226.172108 
L 273.20173 224.040649 
L 272.920216 221.949405 
L 272.357189 219.898378 
L 271.552865 218.28973 
L 270.185514 216.761514 
L 268.456216 215.635459 
L 264.474811 214.026811 
L 263.187892 212.981189 
L 262.383568 211.69427 
L 261.740108 209.241081 
L 261.619459 206.828108 
L 261.177081 204.857514 
L 260.614054 203.731459 
L 259.407568 202.444541 
L 257.718486 201.318486 
L 256.270703 200.795676 
L 254.501189 200.594595 
L 252.731676 200.795676 
L 250.962162 201.318486 
L 249.273081 202.042378 
L 244.246054 203.771676 
L 240.46573 205.782486 
L 238.656 206.828108 
L 235.318054 209.442162 
L 233.548541 211.050811 
L 231.859459 212.739892 
L 228.722595 216.359351 
L 227.355243 218.008216 
L 224.017297 220.823351 
L 222.730378 222.432 
L 221.644541 224.643892 
L 220.518486 226.493838 
L 217.743568 229.630703 
L 216.818595 231.440432 
L 216.295784 233.330595 
L 215.571892 235.341405 
L 214.204541 237.432649 
L 212.957838 238.960865 
L 211.831784 240.971676 
L 211.268757 242.902054 
L 210.987243 244.752 
L 209.901405 248.693189 
L 206.804757 258.988541 
L 204.391784 264.900324 
L 202.380973 271.013189 
L 200.008216 277.005405 
L 198.520216 280.745514 
L 197.072432 285.048649 
L 195.946378 288.869189 
L 193.292108 298.440649 
L 191.401946 305.43827 
L 190.597622 307.931676 
L 189.069405 310.264216 
L 186.294486 313.481514 
L 183.036973 318.347676 
L 180.784865 321.645405 
L 179.658811 323.455135 
L 177.849081 326.994162 
L 176.48173 330.73427 
L 175.596973 334.35373 
L 175.235027 336.444973 
L 174.35027 344.970811 
L 173.626378 349.193514 
L 173.023135 353.456432 
L 171.575351 365.159351 
L 168.961297 385.629405 
L 168.72 387.760865 
L 168.72 387.760865 
" style="fill:none;stroke:#ff0000;stroke-linecap:square;stroke-width:1.5;"/>
   </g>
   <g id="patch_3">
    <path d="M 72 512.64 
L 72 69.12 
" style="fill:none;stroke:#000000;stroke-linecap:square;stroke-linejoin:miter;stroke-width:0.8;"/>
   </g>
   <g id="patch_4">
    <path d="M 518.4 512.64 
L 518.4 69.12 
" style="fill:none;stroke:#000000;stroke-linecap:square;stroke-linejoin:miter;stroke-width:0.8;"/>
   </g>
   <g id="patch_5">
    <path d="M 72 512.64 
L 518.4 512.64 
" style="fill:none;stroke:#000000;stroke-linecap:square;stroke-linejoin:miter;stroke-width:0.8;"/>
   </g>
   <g id="patch_6">
    <path d="M 72 69.12 
L 518.4 69.12 
" style="fill:none;stroke:#000000;stroke-linecap:square;stroke-linejoin:miter;stroke-width:0.8;"/>
   </g>
   <g id="text_13">
    <!-- 1 -->
    <defs>
     <path d="M 14.203125 0 
L 14.203125 5.171875 
L 26.90625 5.171875 
L 26.90625 65.828125 
L 12.203125 56.296875 
L 12.203125 62.703125 
L 29.984375 74.21875 
L 36.71875 74.21875 
L 36.71875 5.171875 
L 49.421875 5.171875 
L 49.421875 0 
z
" id="DejaVuSerif-31"/>
    </defs>
    <g transform="translate(137.186318 389.40973)scale(0.1 -0.1)">
     <use xlink:href="#DejaVuSerif-31"/>
    </g>
   </g>
   <g id="text_14">
    <!-- 1 -->
    <g transform="translate(390.54848 192.35027)scale(0.1 -0.1)">
     <use xlink:href="#DejaVuSerif-31"/>
    </g>
   </g>
   <g id="text_15">
    <!-- 2 -->
    <defs>
     <path d="M 12.796875 55.515625 
L 7.328125 55.515625 
L 7.328125 68.5 
Q 12.546875 71.296875 17.84375 72.75 
Q 23.140625 74.21875 28.21875 74.21875 
Q 39.59375 74.21875 46.1875 68.703125 
Q 52.78125 63.1875 52.78125 53.71875 
Q 52.78125 43.015625 37.84375 28.125 
Q 36.671875 27 36.078125 26.421875 
L 17.671875 8.015625 
L 48.09375 8.015625 
L 48.09375 17 
L 53.8125 17 
L 53.8125 0 
L 6.78125 0 
L 6.78125 5.328125 
L 28.90625 27.390625 
Q 36.234375 34.71875 39.359375 40.84375 
Q 42.484375 46.96875 42.484375 53.71875 
Q 42.484375 61.078125 38.640625 65.234375 
Q 34.8125 69.390625 28.078125 69.390625 
Q 21.09375 69.390625 17.28125 65.921875 
Q 13.484375 62.453125 12.796875 55.515625 
z
" id="DejaVuSerif-32"/>
    </defs>
    <g transform="translate(446.851182 192.35027)scale(0.1 -0.1)">
     <use xlink:href="#DejaVuSerif-32"/>
    </g>
   </g>
   <g id="text_16">
    <!-- 2 -->
    <g transform="translate(221.640372 361.258378)scale(0.1 -0.1)">
     <use xlink:href="#DejaVuSerif-32"/>
    </g>
   </g>
   <g id="text_17">
    <!-- 3 -->
    <defs>
     <path d="M 9.71875 69.828125 
Q 15.4375 71.96875 20.671875 73.09375 
Q 25.921875 74.21875 30.515625 74.21875 
Q 41.21875 74.21875 47.21875 69.59375 
Q 53.21875 64.984375 53.21875 56.78125 
Q 53.21875 50.203125 49.0625 45.78125 
Q 44.921875 41.359375 37.3125 39.796875 
Q 46.296875 38.53125 51.25 33.28125 
Q 56.203125 28.03125 56.203125 19.671875 
Q 56.203125 9.46875 49.34375 4.015625 
Q 42.484375 -1.421875 29.59375 -1.421875 
Q 23.875 -1.421875 18.421875 -0.1875 
Q 12.984375 1.03125 7.625 3.515625 
L 7.625 17.671875 
L 13.09375 17.671875 
Q 13.578125 10.640625 17.828125 7.03125 
Q 22.078125 3.421875 29.78125 3.421875 
Q 37.25 3.421875 41.578125 7.734375 
Q 45.90625 12.0625 45.90625 19.578125 
Q 45.90625 28.171875 41.453125 32.59375 
Q 37.015625 37.015625 28.421875 37.015625 
L 23.78125 37.015625 
L 23.78125 42 
L 26.21875 42 
Q 34.765625 42 39.03125 45.53125 
Q 43.3125 49.078125 43.3125 56.203125 
Q 43.3125 62.59375 39.796875 65.984375 
Q 36.28125 69.390625 29.6875 69.390625 
Q 23.09375 69.390625 19.453125 66.265625 
Q 15.828125 63.140625 15.1875 56.984375 
L 9.71875 56.984375 
z
" id="DejaVuSerif-33"/>
    </defs>
    <g transform="translate(398.993885 440.082162)scale(0.1 -0.1)">
     <use xlink:href="#DejaVuSerif-33"/>
    </g>
   </g>
   <g id="text_18">
    <!-- 3 -->
    <g transform="translate(221.640372 192.35027)scale(0.1 -0.1)">
     <use xlink:href="#DejaVuSerif-33"/>
    </g>
   </g>
   <g id="text_19">
    <!-- 4 -->
    <defs>
     <path d="M 34.90625 24.703125 
L 34.90625 63.484375 
L 10.015625 24.703125 
z
M 56.390625 0 
L 23.1875 0 
L 23.1875 5.171875 
L 34.90625 5.171875 
L 34.90625 19.484375 
L 3.078125 19.484375 
L 3.078125 24.8125 
L 35.015625 74.21875 
L 44.671875 74.21875 
L 44.671875 24.703125 
L 58.59375 24.703125 
L 58.59375 19.484375 
L 44.671875 19.484375 
L 44.671875 5.171875 
L 56.390625 5.171875 
z
" id="DejaVuSerif-34"/>
    </defs>
    <g transform="translate(221.640372 136.047568)scale(0.1 -0.1)">
     <use xlink:href="#DejaVuSerif-34"/>
    </g>
   </g>
   <g id="text_20">
    <!-- 4 -->
    <g transform="translate(390.54848 361.258378)scale(0.1 -0.1)">
     <use xlink:href="#DejaVuSerif-34"/>
    </g>
   </g>
   <g id="text_21">
    <!-- 5 -->
    <defs>
     <path d="M 50.296875 72.90625 
L 50.296875 64.890625 
L 16.890625 64.890625 
L 16.890625 44 
Q 19.4375 45.75 22.828125 46.625 
Q 26.21875 47.515625 30.421875 47.515625 
Q 42.234375 47.515625 49.0625 40.96875 
Q 55.90625 34.421875 55.90625 23.09375 
Q 55.90625 11.53125 49 5.046875 
Q 42.09375 -1.421875 29.59375 -1.421875 
Q 24.5625 -1.421875 19.28125 -0.1875 
Q 14.015625 1.03125 8.5 3.515625 
L 8.5 17.671875 
L 14.015625 17.671875 
Q 14.453125 10.75 18.421875 7.078125 
Q 22.40625 3.421875 29.59375 3.421875 
Q 37.3125 3.421875 41.453125 8.5 
Q 45.609375 13.578125 45.609375 23.09375 
Q 45.609375 32.5625 41.484375 37.609375 
Q 37.359375 42.671875 29.59375 42.671875 
Q 25.203125 42.671875 21.84375 41.109375 
Q 18.5 39.546875 15.921875 36.28125 
L 11.71875 36.28125 
L 11.71875 72.90625 
z
" id="DejaVuSerif-35"/>
    </defs>
    <g transform="translate(446.851182 304.955676)scale(0.1 -0.1)">
     <use xlink:href="#DejaVuSerif-35"/>
    </g>
   </g>
   <g id="text_22">
    <!-- 5 -->
    <g transform="translate(193.48902 248.652973)scale(0.1 -0.1)">
     <use xlink:href="#DejaVuSerif-35"/>
    </g>
   </g>
   <g id="text_23">
    <!-- 6 -->
    <defs>
     <path d="M 32.71875 3.421875 
Q 39.59375 3.421875 43.296875 8.46875 
Q 47.015625 13.53125 47.015625 23 
Q 47.015625 32.46875 43.296875 37.515625 
Q 39.59375 42.578125 32.71875 42.578125 
Q 25.734375 42.578125 22.0625 37.6875 
Q 18.40625 32.8125 18.40625 23.578125 
Q 18.40625 13.875 22.109375 8.640625 
Q 25.828125 3.421875 32.71875 3.421875 
z
M 16.796875 40.140625 
Q 20.125 43.796875 24.3125 45.59375 
Q 28.515625 47.40625 33.796875 47.40625 
Q 44.671875 47.40625 51 40.859375 
Q 57.328125 34.328125 57.328125 23 
Q 57.328125 11.921875 50.515625 5.25 
Q 43.703125 -1.421875 32.328125 -1.421875 
Q 19.96875 -1.421875 13.328125 7.78125 
Q 6.6875 17 6.6875 34.078125 
Q 6.6875 53.21875 14.546875 63.71875 
Q 22.40625 74.21875 36.71875 74.21875 
Q 40.578125 74.21875 44.828125 73.484375 
Q 49.078125 72.75 53.515625 71.296875 
L 53.515625 59.28125 
L 48 59.28125 
Q 47.40625 64.203125 44.234375 66.796875 
Q 41.0625 69.390625 35.6875 69.390625 
Q 26.21875 69.390625 21.578125 62.203125 
Q 16.9375 55.03125 16.796875 40.140625 
z
" id="DejaVuSerif-36"/>
    </defs>
    <g transform="translate(137.186318 248.652973)scale(0.1 -0.1)">
     <use xlink:href="#DejaVuSerif-36"/>
    </g>
   </g>
   <g id="text_24">
    <!-- 6 -->
    <g transform="translate(390.54848 276.804324)scale(0.1 -0.1)">
     <use xlink:href="#DejaVuSerif-36"/>
    </g>
   </g>
   <g id="text_25">
    <!-- 7 -->
    <defs>
     <path d="M 56.390625 67.921875 
L 27.875 0 
L 20.609375 0 
L 47.796875 64.890625 
L 14.109375 64.890625 
L 14.109375 55.90625 
L 8.40625 55.90625 
L 8.40625 72.90625 
L 56.390625 72.90625 
z
" id="DejaVuSerif-37"/>
    </defs>
    <g transform="translate(277.943074 192.35027)scale(0.1 -0.1)">
     <use xlink:href="#DejaVuSerif-37"/>
    </g>
   </g>
   <g id="text_26">
    <!-- 7 -->
    <g transform="translate(277.943074 333.107027)scale(0.1 -0.1)">
     <use xlink:href="#DejaVuSerif-37"/>
    </g>
   </g>
   <g id="text_27">
    <!-- 8 -->
    <defs>
     <path d="M 46.578125 19.921875 
Q 46.578125 27.734375 42.6875 32.046875 
Q 38.8125 36.375 31.78125 36.375 
Q 24.75 36.375 20.875 32.046875 
Q 17 27.734375 17 19.921875 
Q 17 12.0625 20.875 7.734375 
Q 24.75 3.421875 31.78125 3.421875 
Q 38.8125 3.421875 42.6875 7.734375 
Q 46.578125 12.0625 46.578125 19.921875 
z
M 44.578125 55.328125 
Q 44.578125 61.96875 41.203125 65.671875 
Q 37.84375 69.390625 31.78125 69.390625 
Q 25.78125 69.390625 22.390625 65.671875 
Q 19 61.96875 19 55.328125 
Q 19 48.640625 22.390625 44.921875 
Q 25.78125 41.21875 31.78125 41.21875 
Q 37.84375 41.21875 41.203125 44.921875 
Q 44.578125 48.640625 44.578125 55.328125 
z
M 39.3125 38.8125 
Q 47.609375 37.703125 52.25 32.6875 
Q 56.890625 27.6875 56.890625 19.921875 
Q 56.890625 9.671875 50.390625 4.125 
Q 43.890625 -1.421875 31.78125 -1.421875 
Q 19.734375 -1.421875 13.203125 4.125 
Q 6.6875 9.671875 6.6875 19.921875 
Q 6.6875 27.6875 11.328125 32.6875 
Q 15.96875 37.703125 24.3125 38.8125 
Q 16.9375 40.140625 13 44.40625 
Q 9.078125 48.6875 9.078125 55.328125 
Q 9.078125 64.109375 15.125 69.15625 
Q 21.1875 74.21875 31.78125 74.21875 
Q 42.390625 74.21875 48.4375 69.15625 
Q 54.5 64.109375 54.5 55.328125 
Q 54.5 48.6875 50.5625 44.40625 
Q 46.625 40.140625 39.3125 38.8125 
z
" id="DejaVuSerif-38"/>
    </defs>
    <g transform="translate(137.186318 304.955676)scale(0.1 -0.1)">
     <use xlink:href="#DejaVuSerif-38"/>
    </g>
   </g>
   <g id="text_28">
    <!-- 8 -->
    <g transform="translate(306.094426 276.804324)scale(0.1 -0.1)">
     <use xlink:href="#DejaVuSerif-38"/>
    </g>
   </g>
   <g id="text_29">
    <!-- 9 -->
    <defs>
     <path d="M 46.78125 32.671875 
Q 43.5 29 39.25 27.1875 
Q 35.015625 25.390625 29.6875 25.390625 
Q 18.84375 25.390625 12.5625 31.9375 
Q 6.296875 38.484375 6.296875 49.8125 
Q 6.296875 60.890625 13.109375 67.546875 
Q 19.921875 74.21875 31.296875 74.21875 
Q 43.65625 74.21875 50.265625 65.015625 
Q 56.890625 55.8125 56.890625 38.71875 
Q 56.890625 19.578125 49.015625 9.078125 
Q 41.15625 -1.421875 26.90625 -1.421875 
Q 23.046875 -1.421875 18.796875 -0.6875 
Q 14.546875 0.046875 10.109375 1.515625 
L 10.109375 13.625 
L 15.578125 13.625 
Q 16.21875 8.6875 19.390625 6.046875 
Q 22.5625 3.421875 27.875 3.421875 
Q 37.359375 3.421875 41.984375 10.5625 
Q 46.625 17.71875 46.78125 32.671875 
z
M 30.90625 69.390625 
Q 23.96875 69.390625 20.28125 64.328125 
Q 16.609375 59.28125 16.609375 49.8125 
Q 16.609375 40.328125 20.28125 35.25 
Q 23.96875 30.171875 30.90625 30.171875 
Q 37.84375 30.171875 41.53125 35.078125 
Q 45.21875 39.984375 45.21875 49.21875 
Q 45.21875 58.9375 41.5 64.15625 
Q 37.796875 69.390625 30.90625 69.390625 
z
" id="DejaVuSerif-39"/>
    </defs>
    <g transform="translate(390.54848 220.501622)scale(0.1 -0.1)">
     <use xlink:href="#DejaVuSerif-39"/>
    </g>
   </g>
   <g id="text_30">
    <!-- 9 -->
    <g transform="translate(137.186318 276.804324)scale(0.1 -0.1)">
     <use xlink:href="#DejaVuSerif-39"/>
    </g>
   </g>
   <g id="text_31">
    <!-- 10 -->
    <defs>
     <path d="M 31.78125 3.421875 
Q 39.265625 3.421875 42.96875 11.625 
Q 46.6875 19.828125 46.6875 36.375 
Q 46.6875 52.984375 42.96875 61.1875 
Q 39.265625 69.390625 31.78125 69.390625 
Q 24.3125 69.390625 20.59375 61.1875 
Q 16.890625 52.984375 16.890625 36.375 
Q 16.890625 19.828125 20.59375 11.625 
Q 24.3125 3.421875 31.78125 3.421875 
z
M 31.78125 -1.421875 
Q 19.921875 -1.421875 13.25 8.53125 
Q 6.59375 18.5 6.59375 36.375 
Q 6.59375 54.296875 13.25 64.25 
Q 19.921875 74.21875 31.78125 74.21875 
Q 43.703125 74.21875 50.34375 64.25 
Q 56.984375 54.296875 56.984375 36.375 
Q 56.984375 18.5 50.34375 8.53125 
Q 43.703125 -1.421875 31.78125 -1.421875 
z
" id="DejaVuSerif-30"/>
    </defs>
    <g transform="translate(134.005068 136.047568)scale(0.1 -0.1)">
     <use xlink:href="#DejaVuSerif-31"/>
     <use x="63.623047" xlink:href="#DejaVuSerif-30"/>
    </g>
   </g>
   <g id="text_32">
    <!-- 10 -->
    <g transform="translate(246.610473 248.652973)scale(0.1 -0.1)">
     <use xlink:href="#DejaVuSerif-31"/>
     <use x="63.623047" xlink:href="#DejaVuSerif-30"/>
    </g>
   </g>
   <g id="text_33">
    <!-- 11 -->
    <g transform="translate(331.064527 164.198919)scale(0.1 -0.1)">
     <use xlink:href="#DejaVuSerif-31"/>
     <use x="63.623047" xlink:href="#DejaVuSerif-31"/>
    </g>
   </g>
   <g id="text_34">
    <!-- 11 -->
    <g transform="translate(162.156419 389.40973)scale(0.1 -0.1)">
     <use xlink:href="#DejaVuSerif-31"/>
     <use x="63.623047" xlink:href="#DejaVuSerif-31"/>
    </g>
   </g>
   <g id="text_35">
    <!-- MRPP -->
    <defs>
     <path d="M 9.8125 72.90625 
L 24.515625 72.90625 
L 43.109375 23.296875 
L 61.8125 72.90625 
L 76.515625 72.90625 
L 76.515625 0 
L 66.890625 0 
L 66.890625 64.015625 
L 48.09375 14.015625 
L 38.1875 14.015625 
L 19.390625 64.015625 
L 19.390625 0 
L 9.8125 0 
z
" id="DejaVuSans-4d"/>
     <path d="M 44.390625 34.1875 
Q 47.5625 33.109375 50.5625 29.59375 
Q 53.5625 26.078125 56.59375 19.921875 
L 66.609375 0 
L 56 0 
L 46.6875 18.703125 
Q 43.0625 26.03125 39.671875 28.421875 
Q 36.28125 30.8125 30.421875 30.8125 
L 19.671875 30.8125 
L 19.671875 0 
L 9.8125 0 
L 9.8125 72.90625 
L 32.078125 72.90625 
Q 44.578125 72.90625 50.734375 67.671875 
Q 56.890625 62.453125 56.890625 51.90625 
Q 56.890625 45.015625 53.6875 40.46875 
Q 50.484375 35.9375 44.390625 34.1875 
z
M 19.671875 64.796875 
L 19.671875 38.921875 
L 32.078125 38.921875 
Q 39.203125 38.921875 42.84375 42.21875 
Q 46.484375 45.515625 46.484375 51.90625 
Q 46.484375 58.296875 42.84375 61.546875 
Q 39.203125 64.796875 32.078125 64.796875 
z
" id="DejaVuSans-52"/>
     <path d="M 19.671875 64.796875 
L 19.671875 37.40625 
L 32.078125 37.40625 
Q 38.96875 37.40625 42.71875 40.96875 
Q 46.484375 44.53125 46.484375 51.125 
Q 46.484375 57.671875 42.71875 61.234375 
Q 38.96875 64.796875 32.078125 64.796875 
z
M 9.8125 72.90625 
L 32.078125 72.90625 
Q 44.34375 72.90625 50.609375 67.359375 
Q 56.890625 61.8125 56.890625 51.125 
Q 56.890625 40.328125 50.609375 34.8125 
Q 44.34375 29.296875 32.078125 29.296875 
L 19.671875 29.296875 
L 19.671875 0 
L 9.8125 0 
z
" id="DejaVuSans-50"/>
    </defs>
    <g transform="translate(278.618437 63.12)scale(0.12 -0.12)">
     <use xlink:href="#DejaVuSans-4d"/>
     <use x="86.279297" xlink:href="#DejaVuSans-52"/>
     <use x="155.761719" xlink:href="#DejaVuSans-50"/>
     <use x="216.064453" xlink:href="#DejaVuSans-50"/>
    </g>
   </g>
  </g>
 </g>
 <defs>
  <clipPath id="pbf43f2e427">
   <rect height="443.52" width="446.4" x="72" y="69.12"/>
  </clipPath>
 </defs>
</svg>
