<?xml version="1.0" encoding="utf-8" standalone="no"?>
<!DOCTYPE svg PUBLIC "-//W3C//DTD SVG 1.1//EN"
  "http://www.w3.org/Graphics/SVG/1.1/DTD/svg11.dtd">
<!-- Created with matplotlib (http://matplotlib.org/) -->
<svg height="576pt" version="1.1" viewBox="0 0 576 576" width="576pt" xmlns="http://www.w3.org/2000/svg" xmlns:xlink="http://www.w3.org/1999/xlink">
 <defs>
  <style type="text/css">
*{stroke-linecap:butt;stroke-linejoin:round;}
  </style>
 </defs>
 <g id="figure_1">
  <g id="patch_1">
   <path d="M 0 576 
L 576 576 
L 576 0 
L 0 0 
z
" style="fill:#ffffff;"/>
  </g>
  <g id="axes_1">
   <g id="patch_2">
    <path d="M 72 512.64 
L 518.4 512.64 
L 518.4 69.12 
L 72 69.12 
z
" style="fill:#ffffff;"/>
   </g>
   <g id="matplotlib.axis_1">
    <g id="xtick_1">
     <g id="line2d_1">
      <defs>
       <path d="M 0 0 
L 0 3.5 
" id="m60b8e175be" style="stroke:#000000;stroke-width:0.8;"/>
      </defs>
      <g>
       <use style="stroke:#000000;stroke-width:0.8;" x="112.216216" xlink:href="#m60b8e175be" y="512.64"/>
      </g>
     </g>
     <g id="text_1">
      <!-- 0 -->
      <defs>
       <path d="M 31.78125 66.40625 
Q 24.171875 66.40625 20.328125 58.90625 
Q 16.5 51.421875 16.5 36.375 
Q 16.5 21.390625 20.328125 13.890625 
Q 24.171875 6.390625 31.78125 6.390625 
Q 39.453125 6.390625 43.28125 13.890625 
Q 47.125 21.390625 47.125 36.375 
Q 47.125 51.421875 43.28125 58.90625 
Q 39.453125 66.40625 31.78125 66.40625 
z
M 31.78125 74.21875 
Q 44.046875 74.21875 50.515625 64.515625 
Q 56.984375 54.828125 56.984375 36.375 
Q 56.984375 17.96875 50.515625 8.265625 
Q 44.046875 -1.421875 31.78125 -1.421875 
Q 19.53125 -1.421875 13.0625 8.265625 
Q 6.59375 17.96875 6.59375 36.375 
Q 6.59375 54.828125 13.0625 64.515625 
Q 19.53125 74.21875 31.78125 74.21875 
z
" id="DejaVuSans-30"/>
      </defs>
      <g transform="translate(109.034966 527.238438)scale(0.1 -0.1)">
       <use xlink:href="#DejaVuSans-30"/>
      </g>
     </g>
    </g>
    <g id="xtick_2">
     <g id="line2d_2">
      <g>
       <use style="stroke:#000000;stroke-width:0.8;" x="192.648649" xlink:href="#m60b8e175be" y="512.64"/>
      </g>
     </g>
     <g id="text_2">
      <!-- 2 -->
      <defs>
       <path d="M 19.1875 8.296875 
L 53.609375 8.296875 
L 53.609375 0 
L 7.328125 0 
L 7.328125 8.296875 
Q 12.9375 14.109375 22.625 23.890625 
Q 32.328125 33.6875 34.8125 36.53125 
Q 39.546875 41.84375 41.421875 45.53125 
Q 43.3125 49.21875 43.3125 52.78125 
Q 43.3125 58.59375 39.234375 62.25 
Q 35.15625 65.921875 28.609375 65.921875 
Q 23.96875 65.921875 18.8125 64.3125 
Q 13.671875 62.703125 7.8125 59.421875 
L 7.8125 69.390625 
Q 13.765625 71.78125 18.9375 73 
Q 24.125 74.21875 28.421875 74.21875 
Q 39.75 74.21875 46.484375 68.546875 
Q 53.21875 62.890625 53.21875 53.421875 
Q 53.21875 48.921875 51.53125 44.890625 
Q 49.859375 40.875 45.40625 35.40625 
Q 44.1875 33.984375 37.640625 27.21875 
Q 31.109375 20.453125 19.1875 8.296875 
z
" id="DejaVuSans-32"/>
      </defs>
      <g transform="translate(189.467399 527.238438)scale(0.1 -0.1)">
       <use xlink:href="#DejaVuSans-32"/>
      </g>
     </g>
    </g>
    <g id="xtick_3">
     <g id="line2d_3">
      <g>
       <use style="stroke:#000000;stroke-width:0.8;" x="273.081081" xlink:href="#m60b8e175be" y="512.64"/>
      </g>
     </g>
     <g id="text_3">
      <!-- 4 -->
      <defs>
       <path d="M 37.796875 64.3125 
L 12.890625 25.390625 
L 37.796875 25.390625 
z
M 35.203125 72.90625 
L 47.609375 72.90625 
L 47.609375 25.390625 
L 58.015625 25.390625 
L 58.015625 17.1875 
L 47.609375 17.1875 
L 47.609375 0 
L 37.796875 0 
L 37.796875 17.1875 
L 4.890625 17.1875 
L 4.890625 26.703125 
z
" id="DejaVuSans-34"/>
      </defs>
      <g transform="translate(269.899831 527.238438)scale(0.1 -0.1)">
       <use xlink:href="#DejaVuSans-34"/>
      </g>
     </g>
    </g>
    <g id="xtick_4">
     <g id="line2d_4">
      <g>
       <use style="stroke:#000000;stroke-width:0.8;" x="353.513514" xlink:href="#m60b8e175be" y="512.64"/>
      </g>
     </g>
     <g id="text_4">
      <!-- 6 -->
      <defs>
       <path d="M 33.015625 40.375 
Q 26.375 40.375 22.484375 35.828125 
Q 18.609375 31.296875 18.609375 23.390625 
Q 18.609375 15.53125 22.484375 10.953125 
Q 26.375 6.390625 33.015625 6.390625 
Q 39.65625 6.390625 43.53125 10.953125 
Q 47.40625 15.53125 47.40625 23.390625 
Q 47.40625 31.296875 43.53125 35.828125 
Q 39.65625 40.375 33.015625 40.375 
z
M 52.59375 71.296875 
L 52.59375 62.3125 
Q 48.875 64.0625 45.09375 64.984375 
Q 41.3125 65.921875 37.59375 65.921875 
Q 27.828125 65.921875 22.671875 59.328125 
Q 17.53125 52.734375 16.796875 39.40625 
Q 19.671875 43.65625 24.015625 45.921875 
Q 28.375 48.1875 33.59375 48.1875 
Q 44.578125 48.1875 50.953125 41.515625 
Q 57.328125 34.859375 57.328125 23.390625 
Q 57.328125 12.15625 50.6875 5.359375 
Q 44.046875 -1.421875 33.015625 -1.421875 
Q 20.359375 -1.421875 13.671875 8.265625 
Q 6.984375 17.96875 6.984375 36.375 
Q 6.984375 53.65625 15.1875 63.9375 
Q 23.390625 74.21875 37.203125 74.21875 
Q 40.921875 74.21875 44.703125 73.484375 
Q 48.484375 72.75 52.59375 71.296875 
z
" id="DejaVuSans-36"/>
      </defs>
      <g transform="translate(350.332264 527.238438)scale(0.1 -0.1)">
       <use xlink:href="#DejaVuSans-36"/>
      </g>
     </g>
    </g>
    <g id="xtick_5">
     <g id="line2d_5">
      <g>
       <use style="stroke:#000000;stroke-width:0.8;" x="433.945946" xlink:href="#m60b8e175be" y="512.64"/>
      </g>
     </g>
     <g id="text_5">
      <!-- 8 -->
      <defs>
       <path d="M 31.78125 34.625 
Q 24.75 34.625 20.71875 30.859375 
Q 16.703125 27.09375 16.703125 20.515625 
Q 16.703125 13.921875 20.71875 10.15625 
Q 24.75 6.390625 31.78125 6.390625 
Q 38.8125 6.390625 42.859375 10.171875 
Q 46.921875 13.96875 46.921875 20.515625 
Q 46.921875 27.09375 42.890625 30.859375 
Q 38.875 34.625 31.78125 34.625 
z
M 21.921875 38.8125 
Q 15.578125 40.375 12.03125 44.71875 
Q 8.5 49.078125 8.5 55.328125 
Q 8.5 64.0625 14.71875 69.140625 
Q 20.953125 74.21875 31.78125 74.21875 
Q 42.671875 74.21875 48.875 69.140625 
Q 55.078125 64.0625 55.078125 55.328125 
Q 55.078125 49.078125 51.53125 44.71875 
Q 48 40.375 41.703125 38.8125 
Q 48.828125 37.15625 52.796875 32.3125 
Q 56.78125 27.484375 56.78125 20.515625 
Q 56.78125 9.90625 50.3125 4.234375 
Q 43.84375 -1.421875 31.78125 -1.421875 
Q 19.734375 -1.421875 13.25 4.234375 
Q 6.78125 9.90625 6.78125 20.515625 
Q 6.78125 27.484375 10.78125 32.3125 
Q 14.796875 37.15625 21.921875 38.8125 
z
M 18.3125 54.390625 
Q 18.3125 48.734375 21.84375 45.5625 
Q 25.390625 42.390625 31.78125 42.390625 
Q 38.140625 42.390625 41.71875 45.5625 
Q 45.3125 48.734375 45.3125 54.390625 
Q 45.3125 60.0625 41.71875 63.234375 
Q 38.140625 66.40625 31.78125 66.40625 
Q 25.390625 66.40625 21.84375 63.234375 
Q 18.3125 60.0625 18.3125 54.390625 
z
" id="DejaVuSans-38"/>
      </defs>
      <g transform="translate(430.764696 527.238438)scale(0.1 -0.1)">
       <use xlink:href="#DejaVuSans-38"/>
      </g>
     </g>
    </g>
    <g id="xtick_6">
     <g id="line2d_6">
      <g>
       <use style="stroke:#000000;stroke-width:0.8;" x="514.378378" xlink:href="#m60b8e175be" y="512.64"/>
      </g>
     </g>
     <g id="text_6">
      <!-- 10 -->
      <defs>
       <path d="M 12.40625 8.296875 
L 28.515625 8.296875 
L 28.515625 63.921875 
L 10.984375 60.40625 
L 10.984375 69.390625 
L 28.421875 72.90625 
L 38.28125 72.90625 
L 38.28125 8.296875 
L 54.390625 8.296875 
L 54.390625 0 
L 12.40625 0 
z
" id="DejaVuSans-31"/>
      </defs>
      <g transform="translate(508.015878 527.238438)scale(0.1 -0.1)">
       <use xlink:href="#DejaVuSans-31"/>
       <use x="63.623047" xlink:href="#DejaVuSans-30"/>
      </g>
     </g>
    </g>
   </g>
   <g id="matplotlib.axis_2">
    <g id="ytick_1">
     <g id="line2d_7">
      <defs>
       <path d="M 0 0 
L -3.5 0 
" id="md35f864a5b" style="stroke:#000000;stroke-width:0.8;"/>
      </defs>
      <g>
       <use style="stroke:#000000;stroke-width:0.8;" x="72" xlink:href="#md35f864a5b" y="473.863784"/>
      </g>
     </g>
     <g id="text_7">
      <!-- 0 -->
      <g transform="translate(58.6375 477.663003)scale(0.1 -0.1)">
       <use xlink:href="#DejaVuSans-30"/>
      </g>
     </g>
    </g>
    <g id="ytick_2">
     <g id="line2d_8">
      <g>
       <use style="stroke:#000000;stroke-width:0.8;" x="72" xlink:href="#md35f864a5b" y="393.431351"/>
      </g>
     </g>
     <g id="text_8">
      <!-- 2 -->
      <g transform="translate(58.6375 397.23057)scale(0.1 -0.1)">
       <use xlink:href="#DejaVuSans-32"/>
      </g>
     </g>
    </g>
    <g id="ytick_3">
     <g id="line2d_9">
      <g>
       <use style="stroke:#000000;stroke-width:0.8;" x="72" xlink:href="#md35f864a5b" y="312.998919"/>
      </g>
     </g>
     <g id="text_9">
      <!-- 4 -->
      <g transform="translate(58.6375 316.798138)scale(0.1 -0.1)">
       <use xlink:href="#DejaVuSans-34"/>
      </g>
     </g>
    </g>
    <g id="ytick_4">
     <g id="line2d_10">
      <g>
       <use style="stroke:#000000;stroke-width:0.8;" x="72" xlink:href="#md35f864a5b" y="232.566486"/>
      </g>
     </g>
     <g id="text_10">
      <!-- 6 -->
      <g transform="translate(58.6375 236.365705)scale(0.1 -0.1)">
       <use xlink:href="#DejaVuSans-36"/>
      </g>
     </g>
    </g>
    <g id="ytick_5">
     <g id="line2d_11">
      <g>
       <use style="stroke:#000000;stroke-width:0.8;" x="72" xlink:href="#md35f864a5b" y="152.134054"/>
      </g>
     </g>
     <g id="text_11">
      <!-- 8 -->
      <g transform="translate(58.6375 155.933273)scale(0.1 -0.1)">
       <use xlink:href="#DejaVuSans-38"/>
      </g>
     </g>
    </g>
    <g id="ytick_6">
     <g id="line2d_12">
      <g>
       <use style="stroke:#000000;stroke-width:0.8;" x="72" xlink:href="#md35f864a5b" y="71.701622"/>
      </g>
     </g>
     <g id="text_12">
      <!-- 10 -->
      <g transform="translate(52.275 75.50084)scale(0.1 -0.1)">
       <use xlink:href="#DejaVuSans-31"/>
       <use x="63.623047" xlink:href="#DejaVuSans-30"/>
      </g>
     </g>
    </g>
   </g>
   <g id="line2d_13">
    <path clip-path="url(#pcc1ccc49dd)" d="M 140.367568 389.40973 
" style="fill:none;stroke:#1f77b4;stroke-linecap:square;stroke-width:1.5;"/>
    <defs>
     <path d="M -5 5 
L 5 5 
L 5 -5 
L -5 -5 
z
" id="mdaec690b83" style="stroke:#8000ff;stroke-linejoin:miter;"/>
    </defs>
    <g clip-path="url(#pcc1ccc49dd)">
     <use style="fill:#8000ff;stroke:#8000ff;stroke-linejoin:miter;" x="140.367568" xlink:href="#mdaec690b83" y="389.40973"/>
    </g>
   </g>
   <g id="line2d_14">
    <path clip-path="url(#pcc1ccc49dd)" d="M 393.72973 192.35027 
" style="fill:none;stroke:#ff7f0e;stroke-linecap:square;stroke-width:1.5;"/>
    <defs>
     <path d="M 0 -5 
L -4.755283 -1.545085 
L -2.938926 4.045085 
L 2.938926 4.045085 
L 4.755283 -1.545085 
z
" id="m346e4bd2de" style="stroke:#8000ff;stroke-linejoin:miter;"/>
    </defs>
    <g clip-path="url(#pcc1ccc49dd)">
     <use style="fill:#8000ff;stroke:#8000ff;stroke-linejoin:miter;" x="393.72973" xlink:href="#m346e4bd2de" y="192.35027"/>
    </g>
   </g>
   <g id="line2d_15">
    <path clip-path="url(#pcc1ccc49dd)" d="M 450.032432 192.35027 
" style="fill:none;stroke:#2ca02c;stroke-linecap:square;stroke-width:1.5;"/>
    <defs>
     <path d="M -5 5 
L 5 5 
L 5 -5 
L -5 -5 
z
" id="m7176d8dac1" style="stroke:#5542fd;stroke-linejoin:miter;"/>
    </defs>
    <g clip-path="url(#pcc1ccc49dd)">
     <use style="fill:#5542fd;stroke:#5542fd;stroke-linejoin:miter;" x="450.032432" xlink:href="#m7176d8dac1" y="192.35027"/>
    </g>
   </g>
   <g id="line2d_16">
    <path clip-path="url(#pcc1ccc49dd)" d="M 224.821622 361.258378 
" style="fill:none;stroke:#d62728;stroke-linecap:square;stroke-width:1.5;"/>
    <defs>
     <path d="M 0 -5 
L -4.755283 -1.545085 
L -2.938926 4.045085 
L 2.938926 4.045085 
L 4.755283 -1.545085 
z
" id="mda1a995043" style="stroke:#5542fd;stroke-linejoin:miter;"/>
    </defs>
    <g clip-path="url(#pcc1ccc49dd)">
     <use style="fill:#5542fd;stroke:#5542fd;stroke-linejoin:miter;" x="224.821622" xlink:href="#mda1a995043" y="361.258378"/>
    </g>
   </g>
   <g id="line2d_17">
    <path clip-path="url(#pcc1ccc49dd)" d="M 402.175135 440.082162 
" style="fill:none;stroke:#9467bd;stroke-linecap:square;stroke-width:1.5;"/>
    <defs>
     <path d="M -5 5 
L 5 5 
L 5 -5 
L -5 -5 
z
" id="m8eb5531047" style="stroke:#2b7ff6;stroke-linejoin:miter;"/>
    </defs>
    <g clip-path="url(#pcc1ccc49dd)">
     <use style="fill:#2b7ff6;stroke:#2b7ff6;stroke-linejoin:miter;" x="402.175135" xlink:href="#m8eb5531047" y="440.082162"/>
    </g>
   </g>
   <g id="line2d_18">
    <path clip-path="url(#pcc1ccc49dd)" d="M 224.821622 192.35027 
" style="fill:none;stroke:#8c564b;stroke-linecap:square;stroke-width:1.5;"/>
    <defs>
     <path d="M 0 -5 
L -4.755283 -1.545085 
L -2.938926 4.045085 
L 2.938926 4.045085 
L 4.755283 -1.545085 
z
" id="m71f3a584d7" style="stroke:#2b7ff6;stroke-linejoin:miter;"/>
    </defs>
    <g clip-path="url(#pcc1ccc49dd)">
     <use style="fill:#2b7ff6;stroke:#2b7ff6;stroke-linejoin:miter;" x="224.821622" xlink:href="#m71f3a584d7" y="192.35027"/>
    </g>
   </g>
   <g id="line2d_19">
    <path clip-path="url(#pcc1ccc49dd)" d="M 224.821622 136.047568 
" style="fill:none;stroke:#e377c2;stroke-linecap:square;stroke-width:1.5;"/>
    <defs>
     <path d="M -5 5 
L 5 5 
L 5 -5 
L -5 -5 
z
" id="mc5df33455b" style="stroke:#00b4ec;stroke-linejoin:miter;"/>
    </defs>
    <g clip-path="url(#pcc1ccc49dd)">
     <use style="fill:#00b4ec;stroke:#00b4ec;stroke-linejoin:miter;" x="224.821622" xlink:href="#mc5df33455b" y="136.047568"/>
    </g>
   </g>
   <g id="line2d_20">
    <path clip-path="url(#pcc1ccc49dd)" d="M 393.72973 361.258378 
" style="fill:none;stroke:#7f7f7f;stroke-linecap:square;stroke-width:1.5;"/>
    <defs>
     <path d="M 0 -5 
L -4.755283 -1.545085 
L -2.938926 4.045085 
L 2.938926 4.045085 
L 4.755283 -1.545085 
z
" id="m3e65b77666" style="stroke:#00b4ec;stroke-linejoin:miter;"/>
    </defs>
    <g clip-path="url(#pcc1ccc49dd)">
     <use style="fill:#00b4ec;stroke:#00b4ec;stroke-linejoin:miter;" x="393.72973" xlink:href="#m3e65b77666" y="361.258378"/>
    </g>
   </g>
   <g id="line2d_21">
    <path clip-path="url(#pcc1ccc49dd)" d="M 450.032432 304.955676 
" style="fill:none;stroke:#bcbd22;stroke-linecap:square;stroke-width:1.5;"/>
    <defs>
     <path d="M -5 5 
L 5 5 
L 5 -5 
L -5 -5 
z
" id="mf0ff7c110d" style="stroke:#2adddd;stroke-linejoin:miter;"/>
    </defs>
    <g clip-path="url(#pcc1ccc49dd)">
     <use style="fill:#2adddd;stroke:#2adddd;stroke-linejoin:miter;" x="450.032432" xlink:href="#mf0ff7c110d" y="304.955676"/>
    </g>
   </g>
   <g id="line2d_22">
    <path clip-path="url(#pcc1ccc49dd)" d="M 196.67027 248.652973 
" style="fill:none;stroke:#17becf;stroke-linecap:square;stroke-width:1.5;"/>
    <defs>
     <path d="M 0 -5 
L -4.755283 -1.545085 
L -2.938926 4.045085 
L 2.938926 4.045085 
L 4.755283 -1.545085 
z
" id="mf5cda3862d" style="stroke:#2adddd;stroke-linejoin:miter;"/>
    </defs>
    <g clip-path="url(#pcc1ccc49dd)">
     <use style="fill:#2adddd;stroke:#2adddd;stroke-linejoin:miter;" x="196.67027" xlink:href="#mf5cda3862d" y="248.652973"/>
    </g>
   </g>
   <g id="line2d_23">
    <path clip-path="url(#pcc1ccc49dd)" d="M 140.367568 248.652973 
" style="fill:none;stroke:#1f77b4;stroke-linecap:square;stroke-width:1.5;"/>
    <defs>
     <path d="M -5 5 
L 5 5 
L 5 -5 
L -5 -5 
z
" id="m9340ab0f96" style="stroke:#55f6ca;stroke-linejoin:miter;"/>
    </defs>
    <g clip-path="url(#pcc1ccc49dd)">
     <use style="fill:#55f6ca;stroke:#55f6ca;stroke-linejoin:miter;" x="140.367568" xlink:href="#m9340ab0f96" y="248.652973"/>
    </g>
   </g>
   <g id="line2d_24">
    <path clip-path="url(#pcc1ccc49dd)" d="M 393.72973 276.804324 
" style="fill:none;stroke:#ff7f0e;stroke-linecap:square;stroke-width:1.5;"/>
    <defs>
     <path d="M 0 -5 
L -4.755283 -1.545085 
L -2.938926 4.045085 
L 2.938926 4.045085 
L 4.755283 -1.545085 
z
" id="me9a9e02151" style="stroke:#55f6ca;stroke-linejoin:miter;"/>
    </defs>
    <g clip-path="url(#pcc1ccc49dd)">
     <use style="fill:#55f6ca;stroke:#55f6ca;stroke-linejoin:miter;" x="393.72973" xlink:href="#me9a9e02151" y="276.804324"/>
    </g>
   </g>
   <g id="line2d_25">
    <path clip-path="url(#pcc1ccc49dd)" d="M 281.124324 192.35027 
" style="fill:none;stroke:#2ca02c;stroke-linecap:square;stroke-width:1.5;"/>
    <defs>
     <path d="M -5 5 
L 5 5 
L 5 -5 
L -5 -5 
z
" id="m80675fd3b3" style="stroke:#80ffb4;stroke-linejoin:miter;"/>
    </defs>
    <g clip-path="url(#pcc1ccc49dd)">
     <use style="fill:#80ffb4;stroke:#80ffb4;stroke-linejoin:miter;" x="281.124324" xlink:href="#m80675fd3b3" y="192.35027"/>
    </g>
   </g>
   <g id="line2d_26">
    <path clip-path="url(#pcc1ccc49dd)" d="M 281.124324 333.107027 
" style="fill:none;stroke:#d62728;stroke-linecap:square;stroke-width:1.5;"/>
    <defs>
     <path d="M 0 -5 
L -4.755283 -1.545085 
L -2.938926 4.045085 
L 2.938926 4.045085 
L 4.755283 -1.545085 
z
" id="m3a1b22d2bf" style="stroke:#80ffb4;stroke-linejoin:miter;"/>
    </defs>
    <g clip-path="url(#pcc1ccc49dd)">
     <use style="fill:#80ffb4;stroke:#80ffb4;stroke-linejoin:miter;" x="281.124324" xlink:href="#m3a1b22d2bf" y="333.107027"/>
    </g>
   </g>
   <g id="line2d_27">
    <path clip-path="url(#pcc1ccc49dd)" d="M 140.367568 304.955676 
" style="fill:none;stroke:#9467bd;stroke-linecap:square;stroke-width:1.5;"/>
    <defs>
     <path d="M -5 5 
L 5 5 
L 5 -5 
L -5 -5 
z
" id="m26c227161d" style="stroke:#aaf69b;stroke-linejoin:miter;"/>
    </defs>
    <g clip-path="url(#pcc1ccc49dd)">
     <use style="fill:#aaf69b;stroke:#aaf69b;stroke-linejoin:miter;" x="140.367568" xlink:href="#m26c227161d" y="304.955676"/>
    </g>
   </g>
   <g id="line2d_28">
    <path clip-path="url(#pcc1ccc49dd)" d="M 309.275676 276.804324 
" style="fill:none;stroke:#8c564b;stroke-linecap:square;stroke-width:1.5;"/>
    <defs>
     <path d="M 0 -5 
L -4.755283 -1.545085 
L -2.938926 4.045085 
L 2.938926 4.045085 
L 4.755283 -1.545085 
z
" id="m0bb5845e69" style="stroke:#aaf69b;stroke-linejoin:miter;"/>
    </defs>
    <g clip-path="url(#pcc1ccc49dd)">
     <use style="fill:#aaf69b;stroke:#aaf69b;stroke-linejoin:miter;" x="309.275676" xlink:href="#m0bb5845e69" y="276.804324"/>
    </g>
   </g>
   <g id="line2d_29">
    <path clip-path="url(#pcc1ccc49dd)" d="M 393.72973 220.501622 
" style="fill:none;stroke:#e377c2;stroke-linecap:square;stroke-width:1.5;"/>
    <defs>
     <path d="M -5 5 
L 5 5 
L 5 -5 
L -5 -5 
z
" id="mdaa64f8c57" style="stroke:#d4dd80;stroke-linejoin:miter;"/>
    </defs>
    <g clip-path="url(#pcc1ccc49dd)">
     <use style="fill:#d4dd80;stroke:#d4dd80;stroke-linejoin:miter;" x="393.72973" xlink:href="#mdaa64f8c57" y="220.501622"/>
    </g>
   </g>
   <g id="line2d_30">
    <path clip-path="url(#pcc1ccc49dd)" d="M 140.367568 276.804324 
" style="fill:none;stroke:#7f7f7f;stroke-linecap:square;stroke-width:1.5;"/>
    <defs>
     <path d="M 0 -5 
L -4.755283 -1.545085 
L -2.938926 4.045085 
L 2.938926 4.045085 
L 4.755283 -1.545085 
z
" id="ma512604636" style="stroke:#d4dd80;stroke-linejoin:miter;"/>
    </defs>
    <g clip-path="url(#pcc1ccc49dd)">
     <use style="fill:#d4dd80;stroke:#d4dd80;stroke-linejoin:miter;" x="140.367568" xlink:href="#ma512604636" y="276.804324"/>
    </g>
   </g>
   <g id="line2d_31">
    <path clip-path="url(#pcc1ccc49dd)" d="M 140.367568 136.047568 
" style="fill:none;stroke:#bcbd22;stroke-linecap:square;stroke-width:1.5;"/>
    <defs>
     <path d="M -5 5 
L 5 5 
L 5 -5 
L -5 -5 
z
" id="ma618591f6e" style="stroke:#ffb462;stroke-linejoin:miter;"/>
    </defs>
    <g clip-path="url(#pcc1ccc49dd)">
     <use style="fill:#ffb462;stroke:#ffb462;stroke-linejoin:miter;" x="140.367568" xlink:href="#ma618591f6e" y="136.047568"/>
    </g>
   </g>
   <g id="line2d_32">
    <path clip-path="url(#pcc1ccc49dd)" d="M 252.972973 248.652973 
" style="fill:none;stroke:#17becf;stroke-linecap:square;stroke-width:1.5;"/>
    <defs>
     <path d="M 0 -5 
L -4.755283 -1.545085 
L -2.938926 4.045085 
L 2.938926 4.045085 
L 4.755283 -1.545085 
z
" id="m1429963665" style="stroke:#ffb462;stroke-linejoin:miter;"/>
    </defs>
    <g clip-path="url(#pcc1ccc49dd)">
     <use style="fill:#ffb462;stroke:#ffb462;stroke-linejoin:miter;" x="252.972973" xlink:href="#m1429963665" y="248.652973"/>
    </g>
   </g>
   <g id="line2d_33">
    <path clip-path="url(#pcc1ccc49dd)" d="M 337.427027 164.198919 
" style="fill:none;stroke:#1f77b4;stroke-linecap:square;stroke-width:1.5;"/>
    <defs>
     <path d="M -5 5 
L 5 5 
L 5 -5 
L -5 -5 
z
" id="m358d5de6fd" style="stroke:#ff8042;stroke-linejoin:miter;"/>
    </defs>
    <g clip-path="url(#pcc1ccc49dd)">
     <use style="fill:#ff8042;stroke:#ff8042;stroke-linejoin:miter;" x="337.427027" xlink:href="#m358d5de6fd" y="164.198919"/>
    </g>
   </g>
   <g id="line2d_34">
    <path clip-path="url(#pcc1ccc49dd)" d="M 168.518919 389.40973 
" style="fill:none;stroke:#ff7f0e;stroke-linecap:square;stroke-width:1.5;"/>
    <defs>
     <path d="M 0 -5 
L -4.755283 -1.545085 
L -2.938926 4.045085 
L 2.938926 4.045085 
L 4.755283 -1.545085 
z
" id="meb221176c1" style="stroke:#ff8042;stroke-linejoin:miter;"/>
    </defs>
    <g clip-path="url(#pcc1ccc49dd)">
     <use style="fill:#ff8042;stroke:#ff8042;stroke-linejoin:miter;" x="168.518919" xlink:href="#meb221176c1" y="389.40973"/>
    </g>
   </g>
   <g id="line2d_35">
    <path clip-path="url(#pcc1ccc49dd)" d="M 196.67027 445.712432 
" style="fill:none;stroke:#2ca02c;stroke-linecap:square;stroke-width:1.5;"/>
    <defs>
     <path d="M -5 5 
L 5 5 
L 5 -5 
L -5 -5 
z
" id="m071d2e7b91" style="stroke:#ff4221;stroke-linejoin:miter;"/>
    </defs>
    <g clip-path="url(#pcc1ccc49dd)">
     <use style="fill:#ff4221;stroke:#ff4221;stroke-linejoin:miter;" x="196.67027" xlink:href="#m071d2e7b91" y="445.712432"/>
    </g>
   </g>
   <g id="line2d_36">
    <path clip-path="url(#pcc1ccc49dd)" d="M 393.72973 136.047568 
" style="fill:none;stroke:#d62728;stroke-linecap:square;stroke-width:1.5;"/>
    <defs>
     <path d="M 0 -5 
L -4.755283 -1.545085 
L -2.938926 4.045085 
L 2.938926 4.045085 
L 4.755283 -1.545085 
z
" id="ma1360165c8" style="stroke:#ff4221;stroke-linejoin:miter;"/>
    </defs>
    <g clip-path="url(#pcc1ccc49dd)">
     <use style="fill:#ff4221;stroke:#ff4221;stroke-linejoin:miter;" x="393.72973" xlink:href="#ma1360165c8" y="136.047568"/>
    </g>
   </g>
   <g id="line2d_37">
    <path clip-path="url(#pcc1ccc49dd)" d="M 224.821622 333.107027 
" style="fill:none;stroke:#9467bd;stroke-linecap:square;stroke-width:1.5;"/>
    <defs>
     <path d="M -5 5 
L 5 5 
L 5 -5 
L -5 -5 
z
" id="m7a8412b33b" style="stroke:#ff0000;stroke-linejoin:miter;"/>
    </defs>
    <g clip-path="url(#pcc1ccc49dd)">
     <use style="fill:#ff0000;stroke:#ff0000;stroke-linejoin:miter;" x="224.821622" xlink:href="#m7a8412b33b" y="333.107027"/>
    </g>
   </g>
   <g id="line2d_38">
    <path clip-path="url(#pcc1ccc49dd)" d="M 281.124324 164.198919 
" style="fill:none;stroke:#8c564b;stroke-linecap:square;stroke-width:1.5;"/>
    <defs>
     <path d="M 0 -5 
L -4.755283 -1.545085 
L -2.938926 4.045085 
L 2.938926 4.045085 
L 4.755283 -1.545085 
z
" id="mdb5f01057e" style="stroke:#ff0000;stroke-linejoin:miter;"/>
    </defs>
    <g clip-path="url(#pcc1ccc49dd)">
     <use style="fill:#ff0000;stroke:#ff0000;stroke-linejoin:miter;" x="281.124324" xlink:href="#mdb5f01057e" y="164.198919"/>
    </g>
   </g>
   <g id="line2d_39"/>
   <g id="line2d_40">
    <path clip-path="url(#pcc1ccc49dd)" d="M 92.108108 493.971892 
L 92.108108 87.788108 
" style="fill:none;stroke:#000000;stroke-linecap:square;stroke-width:4;"/>
   </g>
   <g id="line2d_41">
    <path clip-path="url(#pcc1ccc49dd)" d="M 92.108108 87.788108 
L 498.291892 87.788108 
" style="fill:none;stroke:#000000;stroke-linecap:square;stroke-width:4;"/>
   </g>
   <g id="line2d_42">
    <path clip-path="url(#pcc1ccc49dd)" d="M 498.291892 87.788108 
L 498.291892 493.971892 
" style="fill:none;stroke:#000000;stroke-linecap:square;stroke-width:4;"/>
   </g>
   <g id="line2d_43">
    <path clip-path="url(#pcc1ccc49dd)" d="M 498.291892 493.971892 
L 92.108108 493.971892 
" style="fill:none;stroke:#000000;stroke-linecap:square;stroke-width:4;"/>
   </g>
   <g id="line2d_44">
    <path clip-path="url(#pcc1ccc49dd)" d="M 140.367568 389.40973 
L 140.930595 389.40973 
L 142.297946 389.248865 
L 144.228324 388.605405 
L 145.957622 387.519568 
L 154.242162 380.883892 
L 178.371892 362.062703 
L 180.181622 361.338811 
L 182.393514 361.097514 
L 186.214054 361.499676 
L 188.546595 361.419243 
L 190.758486 361.177946 
L 200.611459 360.775784 
L 208.091676 360.976865 
L 219.070703 360.896432 
L 232.181189 360.735568 
L 233.990919 360.413838 
L 236.082162 359.891027 
L 238.213622 359.488865 
L 240.425514 359.328 
L 244.487351 359.850811 
L 246.578595 359.64973 
L 251.082811 358.845405 
L 258 357.960649 
L 260.372757 357.598703 
L 262.825946 357.357405 
L 265.037838 357.679135 
L 266.244324 358.16173 
L 265.962811 358.121514 
L 266.445405 358.041081 
L 268.013838 357.920432 
L 270.22573 358.242162 
L 272.035459 358.925838 
L 273.804973 359.931243 
L 275.856 360.856216 
L 278.148324 361.459459 
L 280.159135 361.821405 
L 282.210162 361.781189 
L 284.623135 361.901838 
L 286.432865 362.384432 
L 288.725189 362.746378 
L 290.736 362.545297 
L 292.304432 362.183351 
L 292.304432 362.183351 
L 293.068541 361.942054 
L 295.039135 361.580108 
L 297.532541 361.700757 
L 299.382486 362.102919 
L 300.709622 362.223568 
L 302.800865 361.861622 
L 306.540973 360.092108 
L 308.712649 359.448649 
L 310.321297 359.328 
L 311.125622 359.529081 
L 312.73427 360.534486 
L 314.021189 361.98227 
L 315.026595 363.872432 
L 316.313514 365.682162 
L 317.479784 366.687568 
L 319.168865 367.451676 
L 320.938378 367.813622 
L 322.707892 367.733189 
L 324.919784 367.049514 
L 326.488216 366.003892 
L 326.890378 365.561514 
L 327.292541 364.797405 
L 327.694703 362.947459 
L 327.574054 360.655135 
L 326.76973 358.483459 
L 325.321946 356.67373 
L 321.823135 353.737946 
L 319.128649 350.440216 
L 317.801514 349.273946 
L 315.911351 348.107676 
L 313.980973 346.579459 
L 312.694054 344.76973 
L 311.88973 342.63827 
L 311.608216 340.30573 
L 311.125622 338.335135 
L 310.160432 336.525405 
L 308.551784 334.916757 
L 307.224649 334.112432 
L 307.506162 334.152649 
L 307.747459 334.072216 
L 307.42573 334.554811 
L 307.42573 334.393946 
L 307.385514 334.313514 
L 307.626811 334.514595 
L 308.551784 334.956973 
L 310.562595 335.037405 
L 312.291892 334.675459 
L 313.578811 334.032 
L 314.383135 333.187459 
L 315.348324 331.659243 
L 317.359135 328.200649 
L 318.525405 326.390919 
L 321.340541 320.64 
L 323.029622 316.940108 
L 326.246919 311.591351 
L 330.59027 306.162162 
L 332.641297 302.784 
L 334.812973 298.802595 
L 336.502054 294.901622 
L 337.949838 290.598486 
L 339.116108 286.214919 
L 340.121514 281.791135 
L 342.172541 272.058811 
L 344.344216 261.321081 
L 348.486486 241.132541 
L 349.491892 236.869622 
L 350.095135 234.818595 
L 350.859243 232.807784 
L 352.990703 228.70573 
L 353.754811 227.21773 
L 354.39827 225.689514 
L 355.323243 222.472216 
L 355.926486 220.944 
L 356.851459 219.214703 
L 358.138378 217.364757 
L 364.452324 209.723676 
L 366.583784 207.592216 
L 368.916324 205.74227 
L 370.163027 204.857514 
L 372.857514 203.369514 
L 375.913946 202.002162 
L 379.211676 200.795676 
L 386.611459 197.095784 
L 390.311351 194.964324 
L 392.281946 193.637189 
L 392.281946 193.637189 
" style="fill:none;stroke:#8000ff;stroke-linecap:square;stroke-width:1.5;"/>
   </g>
   <g id="line2d_45">
    <path clip-path="url(#pcc1ccc49dd)" d="M 450.032432 192.35027 
L 450.27373 192.430703 
L 450.474811 192.792649 
L 450.675892 193.637189 
L 450.635676 194.843676 
L 450.233514 196.412108 
L 449.308541 198.141405 
L 447.820541 199.79027 
L 444.442378 202.002162 
L 442.873946 203.007568 
L 434.227459 209.321514 
L 407.724973 228.544865 
L 406.035892 229.831784 
L 404.588108 231.480649 
L 403.703351 233.290378 
L 403.220757 235.059892 
L 402.778378 237.191351 
L 401.652324 240.810811 
L 400.968649 242.580324 
L 396.142703 252.51373 
L 395.619892 254.323459 
L 394.694919 256.696216 
L 392.24173 260.154811 
L 389.788541 264.297081 
L 388.461405 266.066595 
L 385.847351 269.082811 
L 384.560432 271.013189 
L 383.796324 273.225081 
L 383.434378 275.115243 
L 382.630054 277.447784 
L 380.418162 281.027027 
L 379.050811 282.716108 
L 376.316108 285.651892 
L 374.948757 287.542054 
L 374.265081 289.190919 
L 373.822703 291.563676 
L 373.581405 293.735351 
L 372.978162 296.108108 
L 372.093405 297.797189 
L 370.967351 299.606919 
L 370.203243 301.497081 
L 369.881514 303.467676 
L 369.439135 305.357838 
L 368.715243 306.604541 
L 368.473946 306.644757 
L 368.473946 306.644757 
L 367.669622 306.845838 
L 367.870703 306.644757 
L 367.548973 307.609946 
L 366.744649 308.655568 
L 365.940324 309.419676 
L 364.733838 310.947892 
L 362.964324 314.165189 
L 361.235027 315.974919 
L 359.063351 317.181405 
L 356.891676 317.704216 
L 348.365838 317.865081 
L 343.861622 318.307459 
L 339.558486 318.950919 
L 337.346595 319.071568 
L 333.365189 318.950919 
L 328.860973 319.232432 
L 326.649081 319.192216 
L 324.316541 318.629189 
L 321.984 317.945514 
L 319.973189 317.503135 
L 317.922162 316.698811 
L 316.112432 315.371676 
L 314.745081 313.803243 
L 313.176649 312.194595 
L 311.447351 311.108757 
L 309.476757 310.465297 
L 303.203027 309.982703 
L 301.111784 310.063135 
L 299.34227 310.344649 
L 296.808649 310.264216 
L 292.706595 309.138162 
L 290.41427 309.138162 
L 288.323027 309.580541 
L 285.869838 309.781622 
L 281.767784 309.138162 
L 279.475459 309.379459 
L 277.705946 309.942486 
L 275.815784 310.384865 
L 273.925622 310.54573 
L 271.71373 311.028324 
L 269.863784 311.872865 
L 264.354162 315.090162 
L 262.665081 316.457514 
L 259.568432 319.353081 
L 258.201081 320.841081 
L 251.806703 326.511568 
L 248.991568 329.728865 
L 244.969946 334.715676 
L 241.068973 339.823135 
L 234.111568 349.032649 
L 230.04973 354.341189 
L 226.148757 359.488865 
L 226.148757 359.488865 
" style="fill:none;stroke:#5542fd;stroke-linecap:square;stroke-width:1.5;"/>
   </g>
   <g id="line2d_46">
    <path clip-path="url(#pcc1ccc49dd)" d="M 402.175135 440.082162 
L 401.933838 440.162595 
L 402.215351 439.840865 
L 402.577297 438.915892 
L 402.65773 437.910486 
L 402.376216 436.100757 
L 401.370811 434.009514 
L 395.981838 427.092324 
L 389.507027 418.204541 
L 378.286703 402.841946 
L 374.506378 397.613838 
L 367.548973 388.082595 
L 356.771027 373.242811 
L 355.88627 371.191784 
L 355.484108 368.979892 
L 355.323243 366.607135 
L 354.961297 364.515892 
L 353.915676 360.011676 
L 352.990703 355.346595 
L 353.030919 353.376 
L 354.116757 349.072865 
L 354.840649 342.718703 
L 355.323243 337.128649 
L 355.604757 332.584216 
L 355.564541 330.492973 
L 355.202595 328.281081 
L 355.202595 326.91373 
L 356.047135 326.069189 
L 357.494919 324.983351 
L 359.586162 324.098595 
L 361.556757 323.696432 
L 365.256649 322.610595 
L 365.980541 322.610595 
L 366.664216 322.972541 
L 371.449946 326.793081 
L 371.329297 326.752865 
L 371.811892 326.712649 
L 373.139027 326.27027 
L 376.436757 326.511568 
L 378.20627 326.109405 
L 380.016 325.184432 
L 381.544216 323.817081 
L 384.278919 320.036757 
L 385.887568 318.227027 
L 387.77773 317.020541 
L 389.547243 316.336865 
L 391.276541 315.492324 
L 392.442811 314.607568 
L 394.332973 313.401081 
L 396.424216 312.677189 
L 398.233946 311.872865 
L 399.641514 310.787027 
L 401.008865 308.977297 
L 401.772973 307.046919 
L 401.974054 305.277405 
L 401.692541 302.985081 
L 400.968649 300.773189 
L 400.606703 298.923243 
L 400.043676 296.872216 
L 399.03827 295.102703 
L 397.670919 293.574486 
L 396.182919 291.644108 
L 395.257946 289.432216 
L 393.930811 285.129081 
L 393.367784 282.836757 
L 393.287351 280.624865 
L 393.609081 276.160865 
L 394.051459 274.873946 
L 395.257946 272.983784 
L 396.906811 271.495784 
L 401.008865 269.243676 
L 402.456649 267.795892 
L 403.50227 266.026378 
L 404.025081 263.814486 
L 403.984865 261.763459 
L 403.341405 259.833081 
L 402.255568 258.103784 
L 400.727351 256.575568 
L 399.319784 255.328865 
L 398.153514 254.041946 
L 396.625297 252.755027 
L 393.367784 250.985514 
L 391.799351 249.819243 
L 390.311351 248.250811 
L 388.501622 246.56173 
L 384.439784 243.907459 
L 382.549622 242.419459 
L 378.970378 240.046703 
L 371.40973 235.462054 
L 365.980541 232.566486 
L 362.642595 230.917622 
L 360.470919 229.992649 
L 354.518919 228.384 
L 342.092108 224.925405 
L 306.983351 215.193081 
L 298.176 212.739892 
L 249.353514 199.187027 
L 243.683027 197.578378 
L 240.063568 196.572973 
L 225.062919 192.430703 
L 225.062919 192.430703 
" style="fill:none;stroke:#2b7ff6;stroke-linecap:square;stroke-width:1.5;"/>
   </g>
   <g id="line2d_47">
    <path clip-path="url(#pcc1ccc49dd)" d="M 224.821622 136.047568 
L 225.465081 136.087784 
L 227.395459 136.489946 
L 229.004108 137.334486 
L 230.733405 138.78227 
L 231.980108 140.511568 
L 233.065946 142.281081 
L 235.559351 145.699459 
L 255.064216 172.282378 
L 255.948973 173.408432 
L 257.67827 174.896432 
L 259.367351 175.781189 
L 261.498811 177.027892 
L 263.147676 178.395243 
L 265.078054 179.802811 
L 268.617081 182.095135 
L 270.105081 183.180973 
L 271.995243 184.06573 
L 273.845189 184.548324 
L 276.258162 185.352649 
L 281.606919 188.52973 
L 283.61773 189.494919 
L 287.317622 191.666595 
L 296.36627 196.934919 
L 297.894486 198.262054 
L 299.503135 199.991351 
L 300.548757 201.961946 
L 301.111784 203.811892 
L 301.674811 207.350919 
L 302.076973 208.557405 
L 303.122595 210.286703 
L 304.530162 211.69427 
L 306.058378 212.739892 
L 306.058378 212.739892 
L 307.667027 213.504 
L 311.608216 215.756108 
L 313.538595 216.439784 
L 315.428757 217.485405 
L 317.278703 219.13427 
L 318.726486 220.823351 
L 320.093838 222.029838 
L 321.863351 222.995027 
L 323.592649 223.437405 
L 325.402378 223.437405 
L 327.61427 223.035243 
L 329.785946 222.75373 
L 331.716324 222.954811 
L 333.807568 223.759135 
L 339.196541 227.298162 
L 341.046486 228.06227 
L 342.856216 229.228541 
L 344.505081 231.078486 
L 345.389838 232.767568 
L 358.299243 267.192649 
L 359.023135 268.921946 
L 360.189405 270.611027 
L 364.934919 274.994595 
L 369.197838 279.498811 
L 370.967351 280.745514 
L 372.777081 281.871568 
L 374.506378 283.399784 
L 375.712865 285.24973 
L 376.436757 287.381189 
L 376.758486 291.402811 
L 377.241081 293.373405 
L 378.045405 294.982054 
L 378.84973 296.952649 
L 379.493189 299.325405 
L 379.734486 301.497081 
L 379.573622 303.95027 
L 378.729081 308.172973 
L 378.166054 310.224 
L 377.844324 312.03373 
L 377.844324 314.124973 
L 378.166054 316.457514 
L 378.688865 318.790054 
L 379.975784 322.851892 
L 382.107243 328.924541 
L 388.541838 346.860973 
L 393.609081 360.976865 
L 393.609081 360.976865 
" style="fill:none;stroke:#00b4ec;stroke-linecap:square;stroke-width:1.5;"/>
   </g>
   <g id="line2d_48">
    <path clip-path="url(#pcc1ccc49dd)" d="M 450.032432 304.955676 
L 449.831351 305.036108 
L 449.710703 305.196973 
L 449.670486 305.277405 
L 449.670486 304.915459 
L 449.549838 304.392649 
L 449.027027 303.347027 
L 447.900973 302.140541 
L 445.930378 300.97427 
L 444.201081 300.451459 
L 436.318703 298.923243 
L 423.449514 296.188541 
L 417.417081 294.941838 
L 406.639135 292.68973 
L 398.595892 291.081081 
L 396.544865 291.282162 
L 394.855784 291.845189 
L 392.201514 293.53427 
L 390.472216 294.419027 
L 386.651676 296.188541 
L 385.083243 297.435243 
L 381.946378 300.853622 
L 378.769297 303.749189 
L 376.919351 305.277405 
L 374.868324 306.363243 
L 370.484757 307.609946 
L 365.900108 309.138162 
L 363.889297 309.580541 
L 361.677405 309.500108 
L 359.827459 308.977297 
L 357.414486 307.529514 
L 355.805838 306.323027 
L 354.39827 304.754595 
L 352.950486 303.628541 
L 351.140757 302.824216 
L 349.129946 302.542703 
L 347.078919 302.743784 
L 344.665946 303.708973 
L 342.896432 304.794811 
L 341.569297 305.920865 
L 340.000865 306.966486 
L 337.668324 307.891459 
L 332.802162 308.494703 
L 330.791351 309.218595 
L 328.820757 310.425081 
L 327.011027 311.712 
L 323.472 313.722811 
L 321.501405 314.688 
L 319.571027 315.090162 
L 317.359135 315.049946 
L 314.704865 314.124973 
L 311.447351 311.913081 
L 309.798486 311.229405 
L 305.535568 310.384865 
L 301.272649 308.615351 
L 299.462919 308.333838 
L 297.371676 308.172973 
L 294.87827 307.690378 
L 293.068541 307.046919 
L 290.937081 306.564324 
L 288.483892 306.604541 
L 286.272 306.403459 
L 278.027676 304.070919 
L 275.976649 303.186162 
L 272.196324 301.215568 
L 268.617081 298.842811 
L 252.932757 288.064865 
L 251.404541 287.421405 
L 249.273081 286.697514 
L 247.020973 285.692108 
L 241.149405 282.474811 
L 237.650595 280.423784 
L 234.071351 278.051027 
L 230.612757 275.477189 
L 221.926054 268.720865 
L 202.823351 253.559351 
L 198.077838 249.618162 
L 198.077838 249.618162 
" style="fill:none;stroke:#2adddd;stroke-linecap:square;stroke-width:1.5;"/>
   </g>
   <g id="line2d_49">
    <path clip-path="url(#pcc1ccc49dd)" d="M 140.367568 248.652973 
L 141.372973 248.652973 
L 145.917405 249.014919 
L 154.16173 249.980108 
L 190.155243 254.00173 
L 201.053838 255.208216 
L 207.448216 255.731027 
L 209.740541 255.932108 
L 211.872 255.851676 
L 213.400216 255.972324 
L 215.974054 256.857081 
L 217.542486 257.862486 
L 218.909838 258.546162 
L 220.8 258.988541 
L 222.60973 258.988541 
L 224.580324 258.505946 
L 226.390054 257.902703 
L 228.843243 257.500541 
L 233.669189 257.017946 
L 235.478919 256.816865 
L 237.369081 257.098378 
L 239.138595 257.862486 
L 241.149405 259.390703 
L 242.315676 260.999351 
L 243.039568 262.92973 
L 243.321081 265.101405 
L 243.361297 266.348108 
L 243.321081 266.267676 
L 243.763459 266.669838 
L 244.567784 267.152432 
L 245.130811 267.353514 
L 246.377514 267.39373 
L 247.945946 267.112216 
L 250.479568 265.825297 
L 251.565405 264.779676 
L 254.380541 261.240649 
L 255.627243 260.195027 
L 257.798919 259.189622 
L 259.729297 258.867892 
L 261.699892 258.948324 
L 268.09427 259.873297 
L 274.207135 260.476541 
L 277.062486 260.677622 
L 277.504865 260.918919 
L 278.349405 261.843892 
L 278.832 262.487351 
L 279.756973 263.251459 
L 280.722162 263.734054 
L 280.561297 263.77427 
L 281.446054 263.291676 
L 283.014486 261.964541 
L 284.060108 260.516757 
L 285.910054 256.414703 
L 287.116541 254.886486 
L 288.644757 253.68 
L 290.695784 252.755027 
L 292.907676 252.433297 
L 295.119568 252.674595 
L 299.503135 254.283243 
L 301.554162 254.765838 
L 313.216865 256.133189 
L 319.088432 256.776649 
L 328.901189 258.063568 
L 333.164108 258.827676 
L 337.587892 259.95373 
L 343.781189 261.723243 
L 356.368865 265.543784 
L 364.572973 267.996973 
L 370.484757 269.766486 
L 374.586811 270.972973 
L 376.557405 272.018595 
L 378.528 273.868541 
L 378.809514 274.310919 
L 380.016 275.67827 
L 382.187676 277.045622 
L 383.876757 277.568432 
L 385.686486 277.689081 
L 387.978811 277.528216 
L 390.432 277.528216 
L 392.643892 277.769514 
L 392.643892 277.769514 
" style="fill:none;stroke:#55f6ca;stroke-linecap:square;stroke-width:1.5;"/>
   </g>
   <g id="line2d_50">
    <path clip-path="url(#pcc1ccc49dd)" d="M 281.124324 192.35027 
L 281.365622 192.390486 
L 282.12973 192.591568 
L 282.934054 193.194811 
L 283.698162 194.079568 
L 284.381838 195.889297 
L 284.542703 198.060973 
L 284.422054 200.473946 
L 284.301405 202.605405 
L 284.220973 204.736865 
L 284.180757 206.627027 
L 284.140541 208.758486 
L 284.060108 210.889946 
L 284.019892 212.780108 
L 283.979676 214.911568 
L 283.939459 217.083243 
L 283.859027 219.214703 
L 283.818811 221.346162 
L 283.778595 223.517838 
L 283.698162 225.649297 
L 283.657946 227.780757 
L 283.61773 229.952432 
L 283.577514 232.083892 
L 283.497081 234.496865 
L 283.456865 236.387027 
L 283.416649 238.518486 
L 283.336216 240.649946 
L 283.296 242.821622 
L 283.255784 244.953081 
L 283.175351 247.366054 
L 283.135135 249.256216 
L 283.094919 250.864865 
L 283.054703 252.714811 
L 283.014486 254.604973 
L 282.97427 256.495135 
L 283.014486 258.304865 
L 283.215568 260.154811 
L 283.456865 261.723243 
L 283.577514 264.176432 
L 283.577514 266.348108 
L 283.497081 268.479568 
L 283.456865 270.611027 
L 283.376432 272.782703 
L 283.336216 274.632649 
L 283.296 276.522811 
L 283.215568 278.131459 
L 283.135135 280.544432 
L 283.054703 282.957405 
L 282.97427 285.088865 
L 282.893838 286.979027 
L 282.813405 289.110486 
L 282.732973 291.241946 
L 282.652541 293.413622 
L 282.572108 295.545081 
L 282.491676 297.676541 
L 282.411243 299.848216 
L 282.330811 301.979676 
L 282.250378 304.111135 
L 282.169946 306.242595 
L 282.12973 307.851243 
L 282.049297 310.022919 
L 282.009081 312.435892 
L 281.968865 314.285838 
L 281.888432 316.457514 
L 281.767784 318.870486 
L 281.687351 320.720432 
L 281.606919 322.892108 
L 281.48627 325.305081 
L 281.405838 327.155027 
L 281.325405 329.326703 
L 281.204757 331.458162 
" style="fill:none;stroke:#80ffb4;stroke-linecap:square;stroke-width:1.5;"/>
   </g>
   <g id="line2d_51">
    <path clip-path="url(#pcc1ccc49dd)" d="M 140.367568 304.955676 
L 141.332757 304.955676 
L 143.584865 304.794811 
L 145.917405 304.392649 
L 148.290162 303.95027 
L 150.421622 303.588324 
L 152.512865 303.226378 
L 154.403027 302.944865 
L 156.775784 302.542703 
L 158.867027 302.180757 
L 161.239784 301.778595 
L 162.848432 301.497081 
L 164.698378 301.175351 
L 166.789622 300.813405 
L 168.921081 300.491676 
L 171.052541 300.12973 
L 173.425297 299.727568 
L 175.516541 299.365622 
L 177.406703 299.043892 
L 179.497946 298.681946 
L 181.629405 298.32 
L 184.002162 297.917838 
L 186.093405 297.555892 
L 188.224865 297.234162 
L 190.356324 296.872216 
L 192.970378 296.429838 
L 194.820324 296.108108 
L 196.951784 295.746162 
L 198.560432 295.464649 
L 200.008216 295.142919 
L 201.335351 294.740757 
L 202.300541 294.419027 
L 203.627676 293.976649 
L 204.793946 293.53427 
L 206.201514 293.011459 
L 208.212324 292.488649 
L 210.182919 292.126703 
L 210.987243 291.965838 
L 212.073081 291.724541 
L 213.842595 291.483243 
L 215.692541 291.443027 
L 217.703351 291.241946 
L 219.553297 290.920216 
L 221.644541 290.598486 
L 223.776 290.316973 
L 226.188973 289.995243 
L 228.038919 289.71373 
L 230.411676 289.392 
L 232.824649 289.07027 
L 234.272432 288.869189 
L 236.403892 288.627892 
L 238.897297 288.708324 
L 240.747243 288.909405 
L 242.878703 289.07027 
L 245.010162 289.150703 
L 246.900324 289.432216 
L 248.991568 289.995243 
L 251.283892 290.518054 
L 253.375135 290.719135 
L 255.466378 290.678919 
L 257.879351 290.598486 
L 259.769514 290.477838 
L 262.14227 290.276757 
L 264.27373 289.995243 
L 266.60627 289.593081 
L 268.938811 289.07027 
L 270.788757 288.627892 
L 273.081081 287.984432 
L 275.172324 287.421405 
L 277.223351 286.818162 
L 279.555892 286.174703 
L 281.365622 285.692108 
L 283.456865 285.169297 
L 285.869838 284.525838 
L 287.719784 283.600865 
L 288.725189 282.675892 
L 288.92627 282.394378 
L 288.886054 282.515027 
L 288.886054 282.595459 
L 288.725189 282.27373 
L 288.202378 281.992216 
L 287.76 281.911784 
L 287.357838 281.63027 
L 286.875243 281.308541 
L 286.432865 281.308541 
L 286.231784 281.147676 
L 286.111135 281.107459 
L 286.191568 281.147676 
L 286.473081 281.308541 
L 286.714378 281.429189 
L 286.875243 281.590054 
L 286.473081 281.268324 
L 285.266595 280.343351 
L 284.864432 280.021622 
L 284.824216 279.900973 
L 284.784 279.820541 
L 284.824216 279.337946 
L 285.145946 278.252108 
L 285.869838 277.085838 
L 287.237189 275.839135 
L 289.006703 274.954378 
L 291.178378 274.552216 
L 293.148973 274.632649 
L 294.998919 275.115243 
L 297.090162 275.798919 
L 298.859676 276.201081 
L 300.991135 276.361946 
L 302.841081 276.482595 
L 304.731243 276.603243 
L 306.902919 276.764108 
" style="fill:none;stroke:#aaf69b;stroke-linecap:square;stroke-width:1.5;"/>
   </g>
   <g id="line2d_52">
    <path clip-path="url(#pcc1ccc49dd)" d="M 393.72973 220.501622 
L 393.971027 220.582054 
L 394.091676 220.823351 
L 394.051459 221.426595 
L 393.609081 222.552649 
L 392.764541 223.638486 
L 391.155892 224.684108 
L 389.104865 225.448216 
L 374.868324 228.223135 
L 352.829838 232.807784 
L 345.430054 234.255568 
L 343.539892 234.255568 
L 341.64973 233.772973 
L 339.679135 232.727351 
L 338.070486 231.199135 
L 336.984649 229.55027 
L 336.341189 227.981838 
L 335.416216 223.678703 
L 334.652108 222.029838 
L 333.526054 220.62227 
L 328.780541 216.399568 
L 325.603459 213.463784 
L 324.477405 211.895351 
L 323.552432 209.884541 
L 322.989405 207.471568 
L 322.265514 203.128216 
L 321.380757 200.876108 
L 318.726486 196.81427 
L 318.083027 195.32627 
L 317.52 193.114378 
L 316.635243 191.304649 
L 315.308108 189.736216 
L 313.659243 188.449297 
L 311.688649 187.162378 
L 309.919135 185.714595 
L 307.988757 184.387459 
L 306.299676 183.744 
L 301.795459 182.899459 
L 299.905297 182.416865 
L 295.602162 180.888649 
L 293.551135 180.607135 
L 290.937081 180.084324 
L 288.644757 179.038703 
L 287.558919 178.153946 
L 286.995892 177.269189 
L 286.432865 176.022486 
L 285.548108 174.574703 
L 284.301405 173.287784 
L 282.572108 172.201946 
L 280.601514 171.638919 
L 278.832 171.558486 
L 277.062486 171.84 
L 274.770162 171.880216 
L 272.437622 171.437838 
L 270.346378 171.196541 
L 268.335568 171.478054 
L 266.646486 172.16173 
L 264.917189 173.167135 
L 262.986811 174.092108 
L 261.136865 174.775784 
L 256.83373 175.539892 
L 251.404541 177.550703 
L 249.313297 178.153946 
L 247.463351 178.918054 
L 244.125405 180.969081 
L 242.275459 182.457081 
L 233.106162 191.023135 
L 228.159568 195.567568 
L 220.116324 203.047784 
L 207.689514 214.509405 
L 184.002162 236.226162 
L 179.497946 240.086919 
L 175.83827 242.861838 
L 168.317838 247.929081 
L 166.668973 249.296432 
L 161.722378 254.162595 
L 141.131676 276 
L 141.131676 276 
" style="fill:none;stroke:#d4dd80;stroke-linecap:square;stroke-width:1.5;"/>
   </g>
   <g id="line2d_53">
    <path clip-path="url(#pcc1ccc49dd)" d="M 140.367568 136.047568 
L 141.171892 136.087784 
L 142.820757 136.329081 
L 145.153297 137.254054 
L 147.083676 138.822486 
L 148.611892 140.592 
L 149.939027 142.200649 
L 151.225946 143.527784 
L 152.713946 145.056 
L 154.201946 146.584216 
L 155.891027 148.313514 
L 157.379027 149.84173 
L 158.867027 151.410162 
L 160.194162 152.737297 
L 161.682162 154.265514 
L 162.969081 155.632865 
L 164.457081 157.161081 
L 165.945081 158.729514 
L 167.272216 160.056649 
L 168.760216 161.584865 
L 170.409081 163.354378 
L 171.937297 164.882595 
L 173.425297 166.410811 
L 174.712216 167.778162 
L 176.200216 169.306378 
L 177.889297 171.035676 
L 179.578378 172.764973 
L 181.066378 174.333405 
L 182.554378 175.861622 
L 183.841297 177.228973 
L 185.530378 178.95827 
L 186.817297 180.285405 
L 188.144432 181.652757 
L 189.270486 182.819027 
L 190.758486 184.347243 
L 192.045405 185.674378 
L 193.734486 187.443892 
L 195.222486 188.972108 
L 196.710486 190.500324 
L 198.399568 192.229622 
L 199.887568 193.798054 
L 201.174486 195.125189 
L 202.863568 196.854486 
L 204.150486 198.221838 
L 205.839568 199.951135 
L 207.166703 201.27827 
L 208.292757 202.444541 
L 209.780757 203.972757 
L 211.067676 205.340108 
L 212.555676 206.868324 
L 214.244757 208.597622 
L 215.933838 210.367135 
L 217.019676 211.493189 
L 218.507676 213.061622 
L 220.035892 214.589838 
L 221.523892 216.118054 
L 222.810811 217.485405 
L 224.298811 219.013622 
L 225.987892 220.742919 
L 227.274811 222.11027 
L 228.762811 223.638486 
L 230.250811 225.206919 
L 231.577946 226.534054 
L 233.226811 228.263351 
L 234.352865 229.429622 
L 235.840865 230.998054 
L 237.328865 232.52627 
L 238.816865 234.054486 
L 240.144 235.421838 
L 241.632 236.950054 
L 242.758054 238.076108 
L 244.246054 239.644541 
L 245.734054 241.172757 
L 247.222054 242.741189 
L 248.710054 244.269405 
L 250.198054 245.837838 
L 251.686054 247.366054 
" style="fill:none;stroke:#ffb462;stroke-linecap:square;stroke-width:1.5;"/>
   </g>
   <g id="line2d_54">
    <path clip-path="url(#pcc1ccc49dd)" d="M 337.427027 164.198919 
L 337.668324 164.279351 
L 338.070486 164.761946 
L 338.512865 165.727135 
L 338.67373 167.05427 
L 338.311784 168.944432 
L 337.346595 170.955243 
L 336.180324 172.483459 
L 333.445622 175.781189 
L 311.809297 203.811892 
L 310.482162 205.500973 
L 309.074595 207.511784 
L 308.189838 209.723676 
L 307.626811 213.785514 
L 307.747459 215.595243 
L 308.390919 217.64627 
L 308.752865 219.375568 
L 308.833297 221.547243 
L 308.793081 224.000432 
L 308.873514 226.051459 
L 309.798486 230.314378 
L 310.039784 232.486054 
L 310.441946 234.818595 
L 311.125622 237.110919 
L 311.970162 239.242378 
L 313.056 241.052108 
L 314.182054 242.620541 
L 315.147243 244.671568 
L 315.509189 246.843243 
L 315.388541 248.934486 
L 314.584216 252.795243 
L 314.383135 254.886486 
L 314.704865 256.937514 
L 315.388541 258.546162 
L 316.474378 259.993946 
L 318.042811 261.280865 
L 320.134054 262.447135 
L 320.294919 263.211243 
L 320.214486 264.699243 
L 319.168865 269.525189 
L 318.806919 271.656649 
L 318.123243 273.506595 
L 316.836324 275.316324 
L 314.86573 276.884757 
L 308.873514 279.780324 
L 307.345297 280.78573 
L 305.977946 282.27373 
L 305.213838 283.520432 
L 305.213838 283.44 
L 305.334486 283.76173 
L 303.323676 280.866162 
L 303.766054 281.388973 
L 304.972541 282.716108 
L 305.656216 283.359568 
L 306.862703 284.284541 
L 308.471351 285.048649 
L 310.200649 285.410595 
L 314.383135 285.531243 
L 315.991784 285.973622 
L 318.002595 286.898595 
L 321.742703 288.265946 
L 322.024216 288.748541 
L 322.426378 290.115892 
L 322.466595 292.368 
L 322.104649 294.097297 
L 321.219892 295.746162 
L 319.932973 297.234162 
L 318.364541 298.400432 
L 316.554811 299.164541 
L 314.704865 299.526486 
L 312.573405 300.250378 
L 310.683243 301.577514 
L 309.114811 303.145946 
L 307.144216 304.794811 
L 303.404108 306.805622 
L 301.795459 308.213189 
L 300.146595 309.379459 
L 298.055351 310.224 
L 295.843459 310.505514 
L 293.631568 310.224 
L 291.620757 309.500108 
L 289.650162 309.05773 
L 285.226378 309.05773 
L 281.727568 308.454486 
L 279.435243 308.655568 
L 277.424432 309.339243 
L 274.971243 309.90227 
L 272.397405 309.90227 
L 269.863784 310.143568 
L 267.772541 311.028324 
L 264.434595 313.240216 
L 262.624865 314.245622 
L 260.895568 315.452108 
L 257.798919 318.347676 
L 256.351135 319.594378 
L 249.635027 324.058378 
L 243.280865 329.004973 
L 236.604973 334.393946 
L 192.20627 370.266811 
L 170.288432 387.961946 
L 170.288432 387.961946 
" style="fill:none;stroke:#ff8042;stroke-linecap:square;stroke-width:1.5;"/>
   </g>
   <g id="line2d_55">
    <path clip-path="url(#pcc1ccc49dd)" d="M 196.67027 445.712432 
L 196.992 445.712432 
L 198.037622 445.511351 
L 199.887568 444.747243 
L 201.496216 443.500541 
L 202.903784 441.731027 
L 207.166703 434.693189 
L 211.55027 427.615135 
L 214.968649 422.185946 
L 220.357622 413.539459 
L 232.543135 394.074811 
L 233.709405 392.787892 
L 235.519135 391.500973 
L 237.288649 390.777081 
L 241.229838 389.771676 
L 245.251459 388.404324 
L 257.638054 383.980541 
L 265.078054 381.125189 
L 271.110486 378.149189 
L 273.362595 377.184 
L 275.53427 376.580757 
L 277.464649 375.816649 
L 280.802595 373.805838 
L 283.899243 372.277622 
L 284.542703 371.714595 
L 285.427459 370.347243 
L 286.151351 368.175568 
L 286.151351 365.883243 
L 285.145946 361.580108 
L 284.985081 359.569297 
L 285.226378 358.925838 
L 286.633946 357.116108 
L 288.564324 355.547676 
L 289.811027 354.381405 
L 292.103351 351.365189 
L 293.792432 349.917405 
L 295.52173 349.032649 
L 297.411892 348.550054 
L 299.945514 348.630486 
L 302.076973 349.314162 
L 303.926919 350.520649 
L 305.414919 352.169514 
L 306.420324 354.180324 
L 307.264865 357.035676 
L 307.747459 357.598703 
L 309.235459 358.845405 
L 311.326703 359.810595 
L 313.37773 360.092108 
L 317.19827 359.810595 
L 319.128649 359.488865 
L 321.541622 359.207351 
L 323.270919 358.684541 
L 325.321946 357.478054 
L 326.930595 356.311784 
L 329.021838 355.065081 
L 331.153297 354.582486 
L 334.249946 355.668324 
L 336.260757 355.909622 
L 340.523676 355.467243 
L 342.49427 354.904216 
L 344.223568 353.818378 
L 346.676757 351.526054 
L 346.918054 351.204324 
L 347.320216 350.319568 
L 347.682162 348.992432 
L 347.722378 347.10227 
L 347.360432 345.815351 
L 346.234378 345.453405 
L 344.505081 345.61427 
L 342.816 346.177297 
L 341.126919 347.303351 
L 339.759568 348.871784 
L 339.116108 350.198919 
L 338.713946 351.606486 
L 337.386811 354.341189 
L 336.904216 355.065081 
L 336.421622 355.628108 
L 336.421622 355.427027 
L 336.260757 355.18573 
L 336.381405 355.266162 
L 337.708541 355.427027 
L 339.437838 355.225946 
L 340.885622 354.743351 
L 342.413838 353.818378 
L 344.022486 352.169514 
L 345.068108 350.4 
L 349.93427 340.627459 
L 351.542919 336.68627 
L 352.950486 332.905946 
L 353.996108 329.085405 
L 356.489514 317.824865 
L 357.897081 311.832649 
L 358.982919 306.041514 
L 361.355676 295.545081 
L 363.406703 287.180108 
L 363.808865 283.158486 
L 364.934919 278.332541 
L 365.176216 276.241297 
L 365.136 274.069622 
L 365.538162 271.495784 
L 366.221838 269.766486 
L 366.784865 267.795892 
L 367.146811 263.251459 
L 368.071784 258.988541 
L 368.594595 254.806054 
L 369.077189 252.634378 
L 371.369514 239.805405 
L 372.012973 237.432649 
L 373.219459 235.260973 
L 374.265081 233.732757 
L 375.23027 231.882811 
L 375.712865 229.912216 
L 375.712865 227.861189 
L 375.833514 225.890595 
L 376.557405 223.517838 
L 377.723676 221.627676 
L 379.010595 219.858162 
L 380.096432 218.088649 
L 381.785514 214.147459 
L 385.002811 206.506378 
L 386.571243 202.806486 
L 389.426595 195.004541 
L 390.673297 190.942703 
L 391.759135 186.800432 
L 392.643892 182.336432 
L 393.488432 176.263784 
L 393.810162 171.719351 
L 393.971027 167.737946 
L 394.011243 161.021838 
L 393.930811 152.978595 
L 393.769946 138.259459 
L 393.769946 138.259459 
" style="fill:none;stroke:#ff4221;stroke-linecap:square;stroke-width:1.5;"/>
   </g>
   <g id="line2d_56">
    <path clip-path="url(#pcc1ccc49dd)" d="M 224.821622 333.107027 
L 225.103135 333.066811 
L 226.068324 332.825514 
L 227.113946 332.262486 
L 228.481297 331.096216 
L 229.526919 329.648432 
L 230.371459 327.718054 
L 230.854054 326.028973 
L 231.376865 323.93773 
L 232.100757 321.605189 
L 232.663784 319.835676 
L 233.307243 317.784649 
L 233.950703 315.733622 
L 234.553946 313.682595 
L 235.277838 311.39027 
L 236.00173 309.097946 
L 236.645189 307.046919 
L 237.288649 304.995892 
L 237.932108 302.944865 
L 238.656 300.652541 
L 239.339676 298.32 
L 239.983135 296.268973 
L 240.626595 294.217946 
L 241.270054 292.166919 
L 241.993946 289.874595 
L 242.637405 287.823568 
L 243.240649 285.772541 
L 243.884108 283.721514 
L 244.527568 281.670486 
L 245.171027 279.659676 
L 245.653622 278.091243 
L 246.216649 276.32173 
L 246.779676 274.512 
L 247.423135 272.460973 
L 247.865514 270.852324 
L 248.187243 268.962162 
L 248.348108 267.072 
L 248.75027 264.940541 
L 249.152432 263.372108 
L 249.594811 261.602595 
L 250.23827 259.511351 
L 250.921946 257.741838 
L 251.887135 255.529946 
L 252.812108 253.559351 
L 253.656649 251.87027 
L 254.822919 249.738811 
L 255.908757 247.888865 
L 257.155459 245.797622 
L 258.32173 243.706378 
L 259.407568 241.574919 
L 260.171676 239.885838 
L 260.935784 237.915243 
L 261.498811 236.14573 
L 262.021622 234.336 
L 262.544432 232.52627 
L 263.027027 230.716541 
L 263.670486 228.384 
L 264.233514 226.332973 
L 264.716108 224.523243 
L 265.279135 222.432 
L 265.922595 220.099459 
L 266.405189 218.28973 
L 266.968216 216.238703 
L 267.531243 214.147459 
L 268.174703 211.814919 
L 268.818162 209.522595 
L 269.461622 207.190054 
L 269.944216 205.380324 
L 270.507243 203.289081 
L 271.271351 200.956541 
L 272.397405 199.026162 
L 273.764757 197.538162 
L 275.172324 196.291459 
L 276.660324 195.527351 
L 278.470054 195.245838 
L 279.797189 195.32627 
L 280.038486 195.406703 
L 280.038486 195.406703 
L 280.038486 195.406703 
L 280.038486 195.406703 
L 279.958054 195.406703 
L 279.837405 195.406703 
L 280.159135 195.286054 
L 280.722162 194.924108 
L 281.848216 194.119784 
L 283.054703 193.275243 
L 283.899243 192.35027 
L 284.422054 191.344865 
L 284.864432 189.776432 
L 285.065514 187.283027 
L 285.10573 185.232 
L 285.186162 182.859243 
L 285.427459 180.647351 
L 285.306811 178.274595 
L 284.703568 176.263784 
L 284.100324 174.413838 
L 283.537297 172.282378 
L 283.014486 170.191135 
L 282.491676 168.381405 
L 281.808 166.370595 
" style="fill:none;stroke:#ff0000;stroke-linecap:square;stroke-width:1.5;"/>
   </g>
   <g id="patch_3">
    <path d="M 72 512.64 
L 72 69.12 
" style="fill:none;stroke:#000000;stroke-linecap:square;stroke-linejoin:miter;stroke-width:0.8;"/>
   </g>
   <g id="patch_4">
    <path d="M 518.4 512.64 
L 518.4 69.12 
" style="fill:none;stroke:#000000;stroke-linecap:square;stroke-linejoin:miter;stroke-width:0.8;"/>
   </g>
   <g id="patch_5">
    <path d="M 72 512.64 
L 518.4 512.64 
" style="fill:none;stroke:#000000;stroke-linecap:square;stroke-linejoin:miter;stroke-width:0.8;"/>
   </g>
   <g id="patch_6">
    <path d="M 72 69.12 
L 518.4 69.12 
" style="fill:none;stroke:#000000;stroke-linecap:square;stroke-linejoin:miter;stroke-width:0.8;"/>
   </g>
   <g id="text_13">
    <!-- 1 -->
    <defs>
     <path d="M 14.203125 0 
L 14.203125 5.171875 
L 26.90625 5.171875 
L 26.90625 65.828125 
L 12.203125 56.296875 
L 12.203125 62.703125 
L 29.984375 74.21875 
L 36.71875 74.21875 
L 36.71875 5.171875 
L 49.421875 5.171875 
L 49.421875 0 
z
" id="DejaVuSerif-31"/>
    </defs>
    <g transform="translate(137.186318 389.40973)scale(0.1 -0.1)">
     <use xlink:href="#DejaVuSerif-31"/>
    </g>
   </g>
   <g id="text_14">
    <!-- 1 -->
    <g transform="translate(390.54848 192.35027)scale(0.1 -0.1)">
     <use xlink:href="#DejaVuSerif-31"/>
    </g>
   </g>
   <g id="text_15">
    <!-- 2 -->
    <defs>
     <path d="M 12.796875 55.515625 
L 7.328125 55.515625 
L 7.328125 68.5 
Q 12.546875 71.296875 17.84375 72.75 
Q 23.140625 74.21875 28.21875 74.21875 
Q 39.59375 74.21875 46.1875 68.703125 
Q 52.78125 63.1875 52.78125 53.71875 
Q 52.78125 43.015625 37.84375 28.125 
Q 36.671875 27 36.078125 26.421875 
L 17.671875 8.015625 
L 48.09375 8.015625 
L 48.09375 17 
L 53.8125 17 
L 53.8125 0 
L 6.78125 0 
L 6.78125 5.328125 
L 28.90625 27.390625 
Q 36.234375 34.71875 39.359375 40.84375 
Q 42.484375 46.96875 42.484375 53.71875 
Q 42.484375 61.078125 38.640625 65.234375 
Q 34.8125 69.390625 28.078125 69.390625 
Q 21.09375 69.390625 17.28125 65.921875 
Q 13.484375 62.453125 12.796875 55.515625 
z
" id="DejaVuSerif-32"/>
    </defs>
    <g transform="translate(446.851182 192.35027)scale(0.1 -0.1)">
     <use xlink:href="#DejaVuSerif-32"/>
    </g>
   </g>
   <g id="text_16">
    <!-- 2 -->
    <g transform="translate(221.640372 361.258378)scale(0.1 -0.1)">
     <use xlink:href="#DejaVuSerif-32"/>
    </g>
   </g>
   <g id="text_17">
    <!-- 3 -->
    <defs>
     <path d="M 9.71875 69.828125 
Q 15.4375 71.96875 20.671875 73.09375 
Q 25.921875 74.21875 30.515625 74.21875 
Q 41.21875 74.21875 47.21875 69.59375 
Q 53.21875 64.984375 53.21875 56.78125 
Q 53.21875 50.203125 49.0625 45.78125 
Q 44.921875 41.359375 37.3125 39.796875 
Q 46.296875 38.53125 51.25 33.28125 
Q 56.203125 28.03125 56.203125 19.671875 
Q 56.203125 9.46875 49.34375 4.015625 
Q 42.484375 -1.421875 29.59375 -1.421875 
Q 23.875 -1.421875 18.421875 -0.1875 
Q 12.984375 1.03125 7.625 3.515625 
L 7.625 17.671875 
L 13.09375 17.671875 
Q 13.578125 10.640625 17.828125 7.03125 
Q 22.078125 3.421875 29.78125 3.421875 
Q 37.25 3.421875 41.578125 7.734375 
Q 45.90625 12.0625 45.90625 19.578125 
Q 45.90625 28.171875 41.453125 32.59375 
Q 37.015625 37.015625 28.421875 37.015625 
L 23.78125 37.015625 
L 23.78125 42 
L 26.21875 42 
Q 34.765625 42 39.03125 45.53125 
Q 43.3125 49.078125 43.3125 56.203125 
Q 43.3125 62.59375 39.796875 65.984375 
Q 36.28125 69.390625 29.6875 69.390625 
Q 23.09375 69.390625 19.453125 66.265625 
Q 15.828125 63.140625 15.1875 56.984375 
L 9.71875 56.984375 
z
" id="DejaVuSerif-33"/>
    </defs>
    <g transform="translate(398.993885 440.082162)scale(0.1 -0.1)">
     <use xlink:href="#DejaVuSerif-33"/>
    </g>
   </g>
   <g id="text_18">
    <!-- 3 -->
    <g transform="translate(221.640372 192.35027)scale(0.1 -0.1)">
     <use xlink:href="#DejaVuSerif-33"/>
    </g>
   </g>
   <g id="text_19">
    <!-- 4 -->
    <defs>
     <path d="M 34.90625 24.703125 
L 34.90625 63.484375 
L 10.015625 24.703125 
z
M 56.390625 0 
L 23.1875 0 
L 23.1875 5.171875 
L 34.90625 5.171875 
L 34.90625 19.484375 
L 3.078125 19.484375 
L 3.078125 24.8125 
L 35.015625 74.21875 
L 44.671875 74.21875 
L 44.671875 24.703125 
L 58.59375 24.703125 
L 58.59375 19.484375 
L 44.671875 19.484375 
L 44.671875 5.171875 
L 56.390625 5.171875 
z
" id="DejaVuSerif-34"/>
    </defs>
    <g transform="translate(221.640372 136.047568)scale(0.1 -0.1)">
     <use xlink:href="#DejaVuSerif-34"/>
    </g>
   </g>
   <g id="text_20">
    <!-- 4 -->
    <g transform="translate(390.54848 361.258378)scale(0.1 -0.1)">
     <use xlink:href="#DejaVuSerif-34"/>
    </g>
   </g>
   <g id="text_21">
    <!-- 5 -->
    <defs>
     <path d="M 50.296875 72.90625 
L 50.296875 64.890625 
L 16.890625 64.890625 
L 16.890625 44 
Q 19.4375 45.75 22.828125 46.625 
Q 26.21875 47.515625 30.421875 47.515625 
Q 42.234375 47.515625 49.0625 40.96875 
Q 55.90625 34.421875 55.90625 23.09375 
Q 55.90625 11.53125 49 5.046875 
Q 42.09375 -1.421875 29.59375 -1.421875 
Q 24.5625 -1.421875 19.28125 -0.1875 
Q 14.015625 1.03125 8.5 3.515625 
L 8.5 17.671875 
L 14.015625 17.671875 
Q 14.453125 10.75 18.421875 7.078125 
Q 22.40625 3.421875 29.59375 3.421875 
Q 37.3125 3.421875 41.453125 8.5 
Q 45.609375 13.578125 45.609375 23.09375 
Q 45.609375 32.5625 41.484375 37.609375 
Q 37.359375 42.671875 29.59375 42.671875 
Q 25.203125 42.671875 21.84375 41.109375 
Q 18.5 39.546875 15.921875 36.28125 
L 11.71875 36.28125 
L 11.71875 72.90625 
z
" id="DejaVuSerif-35"/>
    </defs>
    <g transform="translate(446.851182 304.955676)scale(0.1 -0.1)">
     <use xlink:href="#DejaVuSerif-35"/>
    </g>
   </g>
   <g id="text_22">
    <!-- 5 -->
    <g transform="translate(193.48902 248.652973)scale(0.1 -0.1)">
     <use xlink:href="#DejaVuSerif-35"/>
    </g>
   </g>
   <g id="text_23">
    <!-- 6 -->
    <defs>
     <path d="M 32.71875 3.421875 
Q 39.59375 3.421875 43.296875 8.46875 
Q 47.015625 13.53125 47.015625 23 
Q 47.015625 32.46875 43.296875 37.515625 
Q 39.59375 42.578125 32.71875 42.578125 
Q 25.734375 42.578125 22.0625 37.6875 
Q 18.40625 32.8125 18.40625 23.578125 
Q 18.40625 13.875 22.109375 8.640625 
Q 25.828125 3.421875 32.71875 3.421875 
z
M 16.796875 40.140625 
Q 20.125 43.796875 24.3125 45.59375 
Q 28.515625 47.40625 33.796875 47.40625 
Q 44.671875 47.40625 51 40.859375 
Q 57.328125 34.328125 57.328125 23 
Q 57.328125 11.921875 50.515625 5.25 
Q 43.703125 -1.421875 32.328125 -1.421875 
Q 19.96875 -1.421875 13.328125 7.78125 
Q 6.6875 17 6.6875 34.078125 
Q 6.6875 53.21875 14.546875 63.71875 
Q 22.40625 74.21875 36.71875 74.21875 
Q 40.578125 74.21875 44.828125 73.484375 
Q 49.078125 72.75 53.515625 71.296875 
L 53.515625 59.28125 
L 48 59.28125 
Q 47.40625 64.203125 44.234375 66.796875 
Q 41.0625 69.390625 35.6875 69.390625 
Q 26.21875 69.390625 21.578125 62.203125 
Q 16.9375 55.03125 16.796875 40.140625 
z
" id="DejaVuSerif-36"/>
    </defs>
    <g transform="translate(137.186318 248.652973)scale(0.1 -0.1)">
     <use xlink:href="#DejaVuSerif-36"/>
    </g>
   </g>
   <g id="text_24">
    <!-- 6 -->
    <g transform="translate(390.54848 276.804324)scale(0.1 -0.1)">
     <use xlink:href="#DejaVuSerif-36"/>
    </g>
   </g>
   <g id="text_25">
    <!-- 7 -->
    <defs>
     <path d="M 56.390625 67.921875 
L 27.875 0 
L 20.609375 0 
L 47.796875 64.890625 
L 14.109375 64.890625 
L 14.109375 55.90625 
L 8.40625 55.90625 
L 8.40625 72.90625 
L 56.390625 72.90625 
z
" id="DejaVuSerif-37"/>
    </defs>
    <g transform="translate(277.943074 192.35027)scale(0.1 -0.1)">
     <use xlink:href="#DejaVuSerif-37"/>
    </g>
   </g>
   <g id="text_26">
    <!-- 7 -->
    <g transform="translate(277.943074 333.107027)scale(0.1 -0.1)">
     <use xlink:href="#DejaVuSerif-37"/>
    </g>
   </g>
   <g id="text_27">
    <!-- 8 -->
    <defs>
     <path d="M 46.578125 19.921875 
Q 46.578125 27.734375 42.6875 32.046875 
Q 38.8125 36.375 31.78125 36.375 
Q 24.75 36.375 20.875 32.046875 
Q 17 27.734375 17 19.921875 
Q 17 12.0625 20.875 7.734375 
Q 24.75 3.421875 31.78125 3.421875 
Q 38.8125 3.421875 42.6875 7.734375 
Q 46.578125 12.0625 46.578125 19.921875 
z
M 44.578125 55.328125 
Q 44.578125 61.96875 41.203125 65.671875 
Q 37.84375 69.390625 31.78125 69.390625 
Q 25.78125 69.390625 22.390625 65.671875 
Q 19 61.96875 19 55.328125 
Q 19 48.640625 22.390625 44.921875 
Q 25.78125 41.21875 31.78125 41.21875 
Q 37.84375 41.21875 41.203125 44.921875 
Q 44.578125 48.640625 44.578125 55.328125 
z
M 39.3125 38.8125 
Q 47.609375 37.703125 52.25 32.6875 
Q 56.890625 27.6875 56.890625 19.921875 
Q 56.890625 9.671875 50.390625 4.125 
Q 43.890625 -1.421875 31.78125 -1.421875 
Q 19.734375 -1.421875 13.203125 4.125 
Q 6.6875 9.671875 6.6875 19.921875 
Q 6.6875 27.6875 11.328125 32.6875 
Q 15.96875 37.703125 24.3125 38.8125 
Q 16.9375 40.140625 13 44.40625 
Q 9.078125 48.6875 9.078125 55.328125 
Q 9.078125 64.109375 15.125 69.15625 
Q 21.1875 74.21875 31.78125 74.21875 
Q 42.390625 74.21875 48.4375 69.15625 
Q 54.5 64.109375 54.5 55.328125 
Q 54.5 48.6875 50.5625 44.40625 
Q 46.625 40.140625 39.3125 38.8125 
z
" id="DejaVuSerif-38"/>
    </defs>
    <g transform="translate(137.186318 304.955676)scale(0.1 -0.1)">
     <use xlink:href="#DejaVuSerif-38"/>
    </g>
   </g>
   <g id="text_28">
    <!-- 8 -->
    <g transform="translate(306.094426 276.804324)scale(0.1 -0.1)">
     <use xlink:href="#DejaVuSerif-38"/>
    </g>
   </g>
   <g id="text_29">
    <!-- 9 -->
    <defs>
     <path d="M 46.78125 32.671875 
Q 43.5 29 39.25 27.1875 
Q 35.015625 25.390625 29.6875 25.390625 
Q 18.84375 25.390625 12.5625 31.9375 
Q 6.296875 38.484375 6.296875 49.8125 
Q 6.296875 60.890625 13.109375 67.546875 
Q 19.921875 74.21875 31.296875 74.21875 
Q 43.65625 74.21875 50.265625 65.015625 
Q 56.890625 55.8125 56.890625 38.71875 
Q 56.890625 19.578125 49.015625 9.078125 
Q 41.15625 -1.421875 26.90625 -1.421875 
Q 23.046875 -1.421875 18.796875 -0.6875 
Q 14.546875 0.046875 10.109375 1.515625 
L 10.109375 13.625 
L 15.578125 13.625 
Q 16.21875 8.6875 19.390625 6.046875 
Q 22.5625 3.421875 27.875 3.421875 
Q 37.359375 3.421875 41.984375 10.5625 
Q 46.625 17.71875 46.78125 32.671875 
z
M 30.90625 69.390625 
Q 23.96875 69.390625 20.28125 64.328125 
Q 16.609375 59.28125 16.609375 49.8125 
Q 16.609375 40.328125 20.28125 35.25 
Q 23.96875 30.171875 30.90625 30.171875 
Q 37.84375 30.171875 41.53125 35.078125 
Q 45.21875 39.984375 45.21875 49.21875 
Q 45.21875 58.9375 41.5 64.15625 
Q 37.796875 69.390625 30.90625 69.390625 
z
" id="DejaVuSerif-39"/>
    </defs>
    <g transform="translate(390.54848 220.501622)scale(0.1 -0.1)">
     <use xlink:href="#DejaVuSerif-39"/>
    </g>
   </g>
   <g id="text_30">
    <!-- 9 -->
    <g transform="translate(137.186318 276.804324)scale(0.1 -0.1)">
     <use xlink:href="#DejaVuSerif-39"/>
    </g>
   </g>
   <g id="text_31">
    <!-- 10 -->
    <defs>
     <path d="M 31.78125 3.421875 
Q 39.265625 3.421875 42.96875 11.625 
Q 46.6875 19.828125 46.6875 36.375 
Q 46.6875 52.984375 42.96875 61.1875 
Q 39.265625 69.390625 31.78125 69.390625 
Q 24.3125 69.390625 20.59375 61.1875 
Q 16.890625 52.984375 16.890625 36.375 
Q 16.890625 19.828125 20.59375 11.625 
Q 24.3125 3.421875 31.78125 3.421875 
z
M 31.78125 -1.421875 
Q 19.921875 -1.421875 13.25 8.53125 
Q 6.59375 18.5 6.59375 36.375 
Q 6.59375 54.296875 13.25 64.25 
Q 19.921875 74.21875 31.78125 74.21875 
Q 43.703125 74.21875 50.34375 64.25 
Q 56.984375 54.296875 56.984375 36.375 
Q 56.984375 18.5 50.34375 8.53125 
Q 43.703125 -1.421875 31.78125 -1.421875 
z
" id="DejaVuSerif-30"/>
    </defs>
    <g transform="translate(134.005068 136.047568)scale(0.1 -0.1)">
     <use xlink:href="#DejaVuSerif-31"/>
     <use x="63.623047" xlink:href="#DejaVuSerif-30"/>
    </g>
   </g>
   <g id="text_32">
    <!-- 10 -->
    <g transform="translate(246.610473 248.652973)scale(0.1 -0.1)">
     <use xlink:href="#DejaVuSerif-31"/>
     <use x="63.623047" xlink:href="#DejaVuSerif-30"/>
    </g>
   </g>
   <g id="text_33">
    <!-- 11 -->
    <g transform="translate(331.064527 164.198919)scale(0.1 -0.1)">
     <use xlink:href="#DejaVuSerif-31"/>
     <use x="63.623047" xlink:href="#DejaVuSerif-31"/>
    </g>
   </g>
   <g id="text_34">
    <!-- 11 -->
    <g transform="translate(162.156419 389.40973)scale(0.1 -0.1)">
     <use xlink:href="#DejaVuSerif-31"/>
     <use x="63.623047" xlink:href="#DejaVuSerif-31"/>
    </g>
   </g>
   <g id="text_35">
    <!-- 12 -->
    <g transform="translate(190.30777 445.712432)scale(0.1 -0.1)">
     <use xlink:href="#DejaVuSerif-31"/>
     <use x="63.623047" xlink:href="#DejaVuSerif-32"/>
    </g>
   </g>
   <g id="text_36">
    <!-- 12 -->
    <g transform="translate(387.36723 136.047568)scale(0.1 -0.1)">
     <use xlink:href="#DejaVuSerif-31"/>
     <use x="63.623047" xlink:href="#DejaVuSerif-32"/>
    </g>
   </g>
   <g id="text_37">
    <!-- 13 -->
    <g transform="translate(218.459122 333.107027)scale(0.1 -0.1)">
     <use xlink:href="#DejaVuSerif-31"/>
     <use x="63.623047" xlink:href="#DejaVuSerif-33"/>
    </g>
   </g>
   <g id="text_38">
    <!-- 13 -->
    <g transform="translate(274.761824 164.198919)scale(0.1 -0.1)">
     <use xlink:href="#DejaVuSerif-31"/>
     <use x="63.623047" xlink:href="#DejaVuSerif-33"/>
    </g>
   </g>
   <g id="text_39">
    <!-- MRPP -->
    <defs>
     <path d="M 9.8125 72.90625 
L 24.515625 72.90625 
L 43.109375 23.296875 
L 61.8125 72.90625 
L 76.515625 72.90625 
L 76.515625 0 
L 66.890625 0 
L 66.890625 64.015625 
L 48.09375 14.015625 
L 38.1875 14.015625 
L 19.390625 64.015625 
L 19.390625 0 
L 9.8125 0 
z
" id="DejaVuSans-4d"/>
     <path d="M 44.390625 34.1875 
Q 47.5625 33.109375 50.5625 29.59375 
Q 53.5625 26.078125 56.59375 19.921875 
L 66.609375 0 
L 56 0 
L 46.6875 18.703125 
Q 43.0625 26.03125 39.671875 28.421875 
Q 36.28125 30.8125 30.421875 30.8125 
L 19.671875 30.8125 
L 19.671875 0 
L 9.8125 0 
L 9.8125 72.90625 
L 32.078125 72.90625 
Q 44.578125 72.90625 50.734375 67.671875 
Q 56.890625 62.453125 56.890625 51.90625 
Q 56.890625 45.015625 53.6875 40.46875 
Q 50.484375 35.9375 44.390625 34.1875 
z
M 19.671875 64.796875 
L 19.671875 38.921875 
L 32.078125 38.921875 
Q 39.203125 38.921875 42.84375 42.21875 
Q 46.484375 45.515625 46.484375 51.90625 
Q 46.484375 58.296875 42.84375 61.546875 
Q 39.203125 64.796875 32.078125 64.796875 
z
" id="DejaVuSans-52"/>
     <path d="M 19.671875 64.796875 
L 19.671875 37.40625 
L 32.078125 37.40625 
Q 38.96875 37.40625 42.71875 40.96875 
Q 46.484375 44.53125 46.484375 51.125 
Q 46.484375 57.671875 42.71875 61.234375 
Q 38.96875 64.796875 32.078125 64.796875 
z
M 9.8125 72.90625 
L 32.078125 72.90625 
Q 44.34375 72.90625 50.609375 67.359375 
Q 56.890625 61.8125 56.890625 51.125 
Q 56.890625 40.328125 50.609375 34.8125 
Q 44.34375 29.296875 32.078125 29.296875 
L 19.671875 29.296875 
L 19.671875 0 
L 9.8125 0 
z
" id="DejaVuSans-50"/>
    </defs>
    <g transform="translate(278.618437 63.12)scale(0.12 -0.12)">
     <use xlink:href="#DejaVuSans-4d"/>
     <use x="86.279297" xlink:href="#DejaVuSans-52"/>
     <use x="155.761719" xlink:href="#DejaVuSans-50"/>
     <use x="216.064453" xlink:href="#DejaVuSans-50"/>
    </g>
   </g>
  </g>
 </g>
 <defs>
  <clipPath id="pcc1ccc49dd">
   <rect height="443.52" width="446.4" x="72" y="69.12"/>
  </clipPath>
 </defs>
</svg>
