<?xml version="1.0" encoding="utf-8" standalone="no"?>
<!DOCTYPE svg PUBLIC "-//W3C//DTD SVG 1.1//EN"
  "http://www.w3.org/Graphics/SVG/1.1/DTD/svg11.dtd">
<!-- Created with matplotlib (http://matplotlib.org/) -->
<svg height="576pt" version="1.1" viewBox="0 0 576 576" width="576pt" xmlns="http://www.w3.org/2000/svg" xmlns:xlink="http://www.w3.org/1999/xlink">
 <defs>
  <style type="text/css">
*{stroke-linecap:butt;stroke-linejoin:round;}
  </style>
 </defs>
 <g id="figure_1">
  <g id="patch_1">
   <path d="M 0 576 
L 576 576 
L 576 0 
L 0 0 
z
" style="fill:#ffffff;"/>
  </g>
  <g id="axes_1">
   <g id="patch_2">
    <path d="M 72 512.64 
L 518.4 512.64 
L 518.4 69.12 
L 72 69.12 
z
" style="fill:#ffffff;"/>
   </g>
   <g id="matplotlib.axis_1">
    <g id="xtick_1">
     <g id="line2d_1">
      <defs>
       <path d="M 0 0 
L 0 3.5 
" id="m998ce57f4f" style="stroke:#000000;stroke-width:0.8;"/>
      </defs>
      <g>
       <use style="stroke:#000000;stroke-width:0.8;" x="112.216216" xlink:href="#m998ce57f4f" y="512.64"/>
      </g>
     </g>
     <g id="text_1">
      <!-- 0 -->
      <defs>
       <path d="M 31.78125 66.40625 
Q 24.171875 66.40625 20.328125 58.90625 
Q 16.5 51.421875 16.5 36.375 
Q 16.5 21.390625 20.328125 13.890625 
Q 24.171875 6.390625 31.78125 6.390625 
Q 39.453125 6.390625 43.28125 13.890625 
Q 47.125 21.390625 47.125 36.375 
Q 47.125 51.421875 43.28125 58.90625 
Q 39.453125 66.40625 31.78125 66.40625 
z
M 31.78125 74.21875 
Q 44.046875 74.21875 50.515625 64.515625 
Q 56.984375 54.828125 56.984375 36.375 
Q 56.984375 17.96875 50.515625 8.265625 
Q 44.046875 -1.421875 31.78125 -1.421875 
Q 19.53125 -1.421875 13.0625 8.265625 
Q 6.59375 17.96875 6.59375 36.375 
Q 6.59375 54.828125 13.0625 64.515625 
Q 19.53125 74.21875 31.78125 74.21875 
z
" id="DejaVuSans-30"/>
      </defs>
      <g transform="translate(109.034966 527.238438)scale(0.1 -0.1)">
       <use xlink:href="#DejaVuSans-30"/>
      </g>
     </g>
    </g>
    <g id="xtick_2">
     <g id="line2d_2">
      <g>
       <use style="stroke:#000000;stroke-width:0.8;" x="192.648649" xlink:href="#m998ce57f4f" y="512.64"/>
      </g>
     </g>
     <g id="text_2">
      <!-- 2 -->
      <defs>
       <path d="M 19.1875 8.296875 
L 53.609375 8.296875 
L 53.609375 0 
L 7.328125 0 
L 7.328125 8.296875 
Q 12.9375 14.109375 22.625 23.890625 
Q 32.328125 33.6875 34.8125 36.53125 
Q 39.546875 41.84375 41.421875 45.53125 
Q 43.3125 49.21875 43.3125 52.78125 
Q 43.3125 58.59375 39.234375 62.25 
Q 35.15625 65.921875 28.609375 65.921875 
Q 23.96875 65.921875 18.8125 64.3125 
Q 13.671875 62.703125 7.8125 59.421875 
L 7.8125 69.390625 
Q 13.765625 71.78125 18.9375 73 
Q 24.125 74.21875 28.421875 74.21875 
Q 39.75 74.21875 46.484375 68.546875 
Q 53.21875 62.890625 53.21875 53.421875 
Q 53.21875 48.921875 51.53125 44.890625 
Q 49.859375 40.875 45.40625 35.40625 
Q 44.1875 33.984375 37.640625 27.21875 
Q 31.109375 20.453125 19.1875 8.296875 
z
" id="DejaVuSans-32"/>
      </defs>
      <g transform="translate(189.467399 527.238438)scale(0.1 -0.1)">
       <use xlink:href="#DejaVuSans-32"/>
      </g>
     </g>
    </g>
    <g id="xtick_3">
     <g id="line2d_3">
      <g>
       <use style="stroke:#000000;stroke-width:0.8;" x="273.081081" xlink:href="#m998ce57f4f" y="512.64"/>
      </g>
     </g>
     <g id="text_3">
      <!-- 4 -->
      <defs>
       <path d="M 37.796875 64.3125 
L 12.890625 25.390625 
L 37.796875 25.390625 
z
M 35.203125 72.90625 
L 47.609375 72.90625 
L 47.609375 25.390625 
L 58.015625 25.390625 
L 58.015625 17.1875 
L 47.609375 17.1875 
L 47.609375 0 
L 37.796875 0 
L 37.796875 17.1875 
L 4.890625 17.1875 
L 4.890625 26.703125 
z
" id="DejaVuSans-34"/>
      </defs>
      <g transform="translate(269.899831 527.238438)scale(0.1 -0.1)">
       <use xlink:href="#DejaVuSans-34"/>
      </g>
     </g>
    </g>
    <g id="xtick_4">
     <g id="line2d_4">
      <g>
       <use style="stroke:#000000;stroke-width:0.8;" x="353.513514" xlink:href="#m998ce57f4f" y="512.64"/>
      </g>
     </g>
     <g id="text_4">
      <!-- 6 -->
      <defs>
       <path d="M 33.015625 40.375 
Q 26.375 40.375 22.484375 35.828125 
Q 18.609375 31.296875 18.609375 23.390625 
Q 18.609375 15.53125 22.484375 10.953125 
Q 26.375 6.390625 33.015625 6.390625 
Q 39.65625 6.390625 43.53125 10.953125 
Q 47.40625 15.53125 47.40625 23.390625 
Q 47.40625 31.296875 43.53125 35.828125 
Q 39.65625 40.375 33.015625 40.375 
z
M 52.59375 71.296875 
L 52.59375 62.3125 
Q 48.875 64.0625 45.09375 64.984375 
Q 41.3125 65.921875 37.59375 65.921875 
Q 27.828125 65.921875 22.671875 59.328125 
Q 17.53125 52.734375 16.796875 39.40625 
Q 19.671875 43.65625 24.015625 45.921875 
Q 28.375 48.1875 33.59375 48.1875 
Q 44.578125 48.1875 50.953125 41.515625 
Q 57.328125 34.859375 57.328125 23.390625 
Q 57.328125 12.15625 50.6875 5.359375 
Q 44.046875 -1.421875 33.015625 -1.421875 
Q 20.359375 -1.421875 13.671875 8.265625 
Q 6.984375 17.96875 6.984375 36.375 
Q 6.984375 53.65625 15.1875 63.9375 
Q 23.390625 74.21875 37.203125 74.21875 
Q 40.921875 74.21875 44.703125 73.484375 
Q 48.484375 72.75 52.59375 71.296875 
z
" id="DejaVuSans-36"/>
      </defs>
      <g transform="translate(350.332264 527.238438)scale(0.1 -0.1)">
       <use xlink:href="#DejaVuSans-36"/>
      </g>
     </g>
    </g>
    <g id="xtick_5">
     <g id="line2d_5">
      <g>
       <use style="stroke:#000000;stroke-width:0.8;" x="433.945946" xlink:href="#m998ce57f4f" y="512.64"/>
      </g>
     </g>
     <g id="text_5">
      <!-- 8 -->
      <defs>
       <path d="M 31.78125 34.625 
Q 24.75 34.625 20.71875 30.859375 
Q 16.703125 27.09375 16.703125 20.515625 
Q 16.703125 13.921875 20.71875 10.15625 
Q 24.75 6.390625 31.78125 6.390625 
Q 38.8125 6.390625 42.859375 10.171875 
Q 46.921875 13.96875 46.921875 20.515625 
Q 46.921875 27.09375 42.890625 30.859375 
Q 38.875 34.625 31.78125 34.625 
z
M 21.921875 38.8125 
Q 15.578125 40.375 12.03125 44.71875 
Q 8.5 49.078125 8.5 55.328125 
Q 8.5 64.0625 14.71875 69.140625 
Q 20.953125 74.21875 31.78125 74.21875 
Q 42.671875 74.21875 48.875 69.140625 
Q 55.078125 64.0625 55.078125 55.328125 
Q 55.078125 49.078125 51.53125 44.71875 
Q 48 40.375 41.703125 38.8125 
Q 48.828125 37.15625 52.796875 32.3125 
Q 56.78125 27.484375 56.78125 20.515625 
Q 56.78125 9.90625 50.3125 4.234375 
Q 43.84375 -1.421875 31.78125 -1.421875 
Q 19.734375 -1.421875 13.25 4.234375 
Q 6.78125 9.90625 6.78125 20.515625 
Q 6.78125 27.484375 10.78125 32.3125 
Q 14.796875 37.15625 21.921875 38.8125 
z
M 18.3125 54.390625 
Q 18.3125 48.734375 21.84375 45.5625 
Q 25.390625 42.390625 31.78125 42.390625 
Q 38.140625 42.390625 41.71875 45.5625 
Q 45.3125 48.734375 45.3125 54.390625 
Q 45.3125 60.0625 41.71875 63.234375 
Q 38.140625 66.40625 31.78125 66.40625 
Q 25.390625 66.40625 21.84375 63.234375 
Q 18.3125 60.0625 18.3125 54.390625 
z
" id="DejaVuSans-38"/>
      </defs>
      <g transform="translate(430.764696 527.238438)scale(0.1 -0.1)">
       <use xlink:href="#DejaVuSans-38"/>
      </g>
     </g>
    </g>
    <g id="xtick_6">
     <g id="line2d_6">
      <g>
       <use style="stroke:#000000;stroke-width:0.8;" x="514.378378" xlink:href="#m998ce57f4f" y="512.64"/>
      </g>
     </g>
     <g id="text_6">
      <!-- 10 -->
      <defs>
       <path d="M 12.40625 8.296875 
L 28.515625 8.296875 
L 28.515625 63.921875 
L 10.984375 60.40625 
L 10.984375 69.390625 
L 28.421875 72.90625 
L 38.28125 72.90625 
L 38.28125 8.296875 
L 54.390625 8.296875 
L 54.390625 0 
L 12.40625 0 
z
" id="DejaVuSans-31"/>
      </defs>
      <g transform="translate(508.015878 527.238438)scale(0.1 -0.1)">
       <use xlink:href="#DejaVuSans-31"/>
       <use x="63.623047" xlink:href="#DejaVuSans-30"/>
      </g>
     </g>
    </g>
   </g>
   <g id="matplotlib.axis_2">
    <g id="ytick_1">
     <g id="line2d_7">
      <defs>
       <path d="M 0 0 
L -3.5 0 
" id="m4dd1a0dd3e" style="stroke:#000000;stroke-width:0.8;"/>
      </defs>
      <g>
       <use style="stroke:#000000;stroke-width:0.8;" x="72" xlink:href="#m4dd1a0dd3e" y="473.863784"/>
      </g>
     </g>
     <g id="text_7">
      <!-- 0 -->
      <g transform="translate(58.6375 477.663003)scale(0.1 -0.1)">
       <use xlink:href="#DejaVuSans-30"/>
      </g>
     </g>
    </g>
    <g id="ytick_2">
     <g id="line2d_8">
      <g>
       <use style="stroke:#000000;stroke-width:0.8;" x="72" xlink:href="#m4dd1a0dd3e" y="393.431351"/>
      </g>
     </g>
     <g id="text_8">
      <!-- 2 -->
      <g transform="translate(58.6375 397.23057)scale(0.1 -0.1)">
       <use xlink:href="#DejaVuSans-32"/>
      </g>
     </g>
    </g>
    <g id="ytick_3">
     <g id="line2d_9">
      <g>
       <use style="stroke:#000000;stroke-width:0.8;" x="72" xlink:href="#m4dd1a0dd3e" y="312.998919"/>
      </g>
     </g>
     <g id="text_9">
      <!-- 4 -->
      <g transform="translate(58.6375 316.798138)scale(0.1 -0.1)">
       <use xlink:href="#DejaVuSans-34"/>
      </g>
     </g>
    </g>
    <g id="ytick_4">
     <g id="line2d_10">
      <g>
       <use style="stroke:#000000;stroke-width:0.8;" x="72" xlink:href="#m4dd1a0dd3e" y="232.566486"/>
      </g>
     </g>
     <g id="text_10">
      <!-- 6 -->
      <g transform="translate(58.6375 236.365705)scale(0.1 -0.1)">
       <use xlink:href="#DejaVuSans-36"/>
      </g>
     </g>
    </g>
    <g id="ytick_5">
     <g id="line2d_11">
      <g>
       <use style="stroke:#000000;stroke-width:0.8;" x="72" xlink:href="#m4dd1a0dd3e" y="152.134054"/>
      </g>
     </g>
     <g id="text_11">
      <!-- 8 -->
      <g transform="translate(58.6375 155.933273)scale(0.1 -0.1)">
       <use xlink:href="#DejaVuSans-38"/>
      </g>
     </g>
    </g>
    <g id="ytick_6">
     <g id="line2d_12">
      <g>
       <use style="stroke:#000000;stroke-width:0.8;" x="72" xlink:href="#m4dd1a0dd3e" y="71.701622"/>
      </g>
     </g>
     <g id="text_12">
      <!-- 10 -->
      <g transform="translate(52.275 75.50084)scale(0.1 -0.1)">
       <use xlink:href="#DejaVuSans-31"/>
       <use x="63.623047" xlink:href="#DejaVuSans-30"/>
      </g>
     </g>
    </g>
   </g>
   <g id="line2d_13">
    <path clip-path="url(#p56f637b123)" d="M 140.367568 389.40973 
" style="fill:none;stroke:#1f77b4;stroke-linecap:square;stroke-width:1.5;"/>
    <defs>
     <path d="M -5 5 
L 5 5 
L 5 -5 
L -5 -5 
z
" id="m2330241489" style="stroke:#8000ff;stroke-linejoin:miter;"/>
    </defs>
    <g clip-path="url(#p56f637b123)">
     <use style="fill:#8000ff;stroke:#8000ff;stroke-linejoin:miter;" x="140.367568" xlink:href="#m2330241489" y="389.40973"/>
    </g>
   </g>
   <g id="line2d_14">
    <path clip-path="url(#p56f637b123)" d="M 393.72973 192.35027 
" style="fill:none;stroke:#ff7f0e;stroke-linecap:square;stroke-width:1.5;"/>
    <defs>
     <path d="M 0 -5 
L -4.755283 -1.545085 
L -2.938926 4.045085 
L 2.938926 4.045085 
L 4.755283 -1.545085 
z
" id="m9cc7a0f61d" style="stroke:#8000ff;stroke-linejoin:miter;"/>
    </defs>
    <g clip-path="url(#p56f637b123)">
     <use style="fill:#8000ff;stroke:#8000ff;stroke-linejoin:miter;" x="393.72973" xlink:href="#m9cc7a0f61d" y="192.35027"/>
    </g>
   </g>
   <g id="line2d_15">
    <path clip-path="url(#p56f637b123)" d="M 450.032432 192.35027 
" style="fill:none;stroke:#2ca02c;stroke-linecap:square;stroke-width:1.5;"/>
    <defs>
     <path d="M -5 5 
L 5 5 
L 5 -5 
L -5 -5 
z
" id="mba23afebf0" style="stroke:#4c4ffc;stroke-linejoin:miter;"/>
    </defs>
    <g clip-path="url(#p56f637b123)">
     <use style="fill:#4c4ffc;stroke:#4c4ffc;stroke-linejoin:miter;" x="450.032432" xlink:href="#mba23afebf0" y="192.35027"/>
    </g>
   </g>
   <g id="line2d_16">
    <path clip-path="url(#p56f637b123)" d="M 224.821622 361.258378 
" style="fill:none;stroke:#d62728;stroke-linecap:square;stroke-width:1.5;"/>
    <defs>
     <path d="M 0 -5 
L -4.755283 -1.545085 
L -2.938926 4.045085 
L 2.938926 4.045085 
L 4.755283 -1.545085 
z
" id="mde1d097da1" style="stroke:#4c4ffc;stroke-linejoin:miter;"/>
    </defs>
    <g clip-path="url(#p56f637b123)">
     <use style="fill:#4c4ffc;stroke:#4c4ffc;stroke-linejoin:miter;" x="224.821622" xlink:href="#mde1d097da1" y="361.258378"/>
    </g>
   </g>
   <g id="line2d_17">
    <path clip-path="url(#p56f637b123)" d="M 402.175135 440.082162 
" style="fill:none;stroke:#9467bd;stroke-linecap:square;stroke-width:1.5;"/>
    <defs>
     <path d="M -5 5 
L 5 5 
L 5 -5 
L -5 -5 
z
" id="m3fdeb2465a" style="stroke:#1996f3;stroke-linejoin:miter;"/>
    </defs>
    <g clip-path="url(#p56f637b123)">
     <use style="fill:#1996f3;stroke:#1996f3;stroke-linejoin:miter;" x="402.175135" xlink:href="#m3fdeb2465a" y="440.082162"/>
    </g>
   </g>
   <g id="line2d_18">
    <path clip-path="url(#p56f637b123)" d="M 224.821622 192.35027 
" style="fill:none;stroke:#8c564b;stroke-linecap:square;stroke-width:1.5;"/>
    <defs>
     <path d="M 0 -5 
L -4.755283 -1.545085 
L -2.938926 4.045085 
L 2.938926 4.045085 
L 4.755283 -1.545085 
z
" id="mfbb5175682" style="stroke:#1996f3;stroke-linejoin:miter;"/>
    </defs>
    <g clip-path="url(#p56f637b123)">
     <use style="fill:#1996f3;stroke:#1996f3;stroke-linejoin:miter;" x="224.821622" xlink:href="#mfbb5175682" y="192.35027"/>
    </g>
   </g>
   <g id="line2d_19">
    <path clip-path="url(#p56f637b123)" d="M 224.821622 136.047568 
" style="fill:none;stroke:#e377c2;stroke-linecap:square;stroke-width:1.5;"/>
    <defs>
     <path d="M -5 5 
L 5 5 
L 5 -5 
L -5 -5 
z
" id="m8239260588" style="stroke:#1acee3;stroke-linejoin:miter;"/>
    </defs>
    <g clip-path="url(#p56f637b123)">
     <use style="fill:#1acee3;stroke:#1acee3;stroke-linejoin:miter;" x="224.821622" xlink:href="#m8239260588" y="136.047568"/>
    </g>
   </g>
   <g id="line2d_20">
    <path clip-path="url(#p56f637b123)" d="M 393.72973 361.258378 
" style="fill:none;stroke:#7f7f7f;stroke-linecap:square;stroke-width:1.5;"/>
    <defs>
     <path d="M 0 -5 
L -4.755283 -1.545085 
L -2.938926 4.045085 
L 2.938926 4.045085 
L 4.755283 -1.545085 
z
" id="m850b6d6d28" style="stroke:#1acee3;stroke-linejoin:miter;"/>
    </defs>
    <g clip-path="url(#p56f637b123)">
     <use style="fill:#1acee3;stroke:#1acee3;stroke-linejoin:miter;" x="393.72973" xlink:href="#m850b6d6d28" y="361.258378"/>
    </g>
   </g>
   <g id="line2d_21">
    <path clip-path="url(#p56f637b123)" d="M 450.032432 304.955676 
" style="fill:none;stroke:#bcbd22;stroke-linecap:square;stroke-width:1.5;"/>
    <defs>
     <path d="M -5 5 
L 5 5 
L 5 -5 
L -5 -5 
z
" id="m8d6df1d88c" style="stroke:#4df3ce;stroke-linejoin:miter;"/>
    </defs>
    <g clip-path="url(#p56f637b123)">
     <use style="fill:#4df3ce;stroke:#4df3ce;stroke-linejoin:miter;" x="450.032432" xlink:href="#m8d6df1d88c" y="304.955676"/>
    </g>
   </g>
   <g id="line2d_22">
    <path clip-path="url(#p56f637b123)" d="M 196.67027 248.652973 
" style="fill:none;stroke:#17becf;stroke-linecap:square;stroke-width:1.5;"/>
    <defs>
     <path d="M 0 -5 
L -4.755283 -1.545085 
L -2.938926 4.045085 
L 2.938926 4.045085 
L 4.755283 -1.545085 
z
" id="ma4326aa9da" style="stroke:#4df3ce;stroke-linejoin:miter;"/>
    </defs>
    <g clip-path="url(#p56f637b123)">
     <use style="fill:#4df3ce;stroke:#4df3ce;stroke-linejoin:miter;" x="196.67027" xlink:href="#ma4326aa9da" y="248.652973"/>
    </g>
   </g>
   <g id="line2d_23">
    <path clip-path="url(#p56f637b123)" d="M 140.367568 248.652973 
" style="fill:none;stroke:#1f77b4;stroke-linecap:square;stroke-width:1.5;"/>
    <defs>
     <path d="M -5 5 
L 5 5 
L 5 -5 
L -5 -5 
z
" id="m7728a793fd" style="stroke:#80ffb4;stroke-linejoin:miter;"/>
    </defs>
    <g clip-path="url(#p56f637b123)">
     <use style="fill:#80ffb4;stroke:#80ffb4;stroke-linejoin:miter;" x="140.367568" xlink:href="#m7728a793fd" y="248.652973"/>
    </g>
   </g>
   <g id="line2d_24">
    <path clip-path="url(#p56f637b123)" d="M 393.72973 276.804324 
" style="fill:none;stroke:#ff7f0e;stroke-linecap:square;stroke-width:1.5;"/>
    <defs>
     <path d="M 0 -5 
L -4.755283 -1.545085 
L -2.938926 4.045085 
L 2.938926 4.045085 
L 4.755283 -1.545085 
z
" id="m042076b6d6" style="stroke:#80ffb4;stroke-linejoin:miter;"/>
    </defs>
    <g clip-path="url(#p56f637b123)">
     <use style="fill:#80ffb4;stroke:#80ffb4;stroke-linejoin:miter;" x="393.72973" xlink:href="#m042076b6d6" y="276.804324"/>
    </g>
   </g>
   <g id="line2d_25">
    <path clip-path="url(#p56f637b123)" d="M 281.124324 192.35027 
" style="fill:none;stroke:#2ca02c;stroke-linecap:square;stroke-width:1.5;"/>
    <defs>
     <path d="M -5 5 
L 5 5 
L 5 -5 
L -5 -5 
z
" id="m6073331a51" style="stroke:#b3f396;stroke-linejoin:miter;"/>
    </defs>
    <g clip-path="url(#p56f637b123)">
     <use style="fill:#b3f396;stroke:#b3f396;stroke-linejoin:miter;" x="281.124324" xlink:href="#m6073331a51" y="192.35027"/>
    </g>
   </g>
   <g id="line2d_26">
    <path clip-path="url(#p56f637b123)" d="M 281.124324 333.107027 
" style="fill:none;stroke:#d62728;stroke-linecap:square;stroke-width:1.5;"/>
    <defs>
     <path d="M 0 -5 
L -4.755283 -1.545085 
L -2.938926 4.045085 
L 2.938926 4.045085 
L 4.755283 -1.545085 
z
" id="m6dc9a2a124" style="stroke:#b3f396;stroke-linejoin:miter;"/>
    </defs>
    <g clip-path="url(#p56f637b123)">
     <use style="fill:#b3f396;stroke:#b3f396;stroke-linejoin:miter;" x="281.124324" xlink:href="#m6dc9a2a124" y="333.107027"/>
    </g>
   </g>
   <g id="line2d_27">
    <path clip-path="url(#p56f637b123)" d="M 140.367568 304.955676 
" style="fill:none;stroke:#9467bd;stroke-linecap:square;stroke-width:1.5;"/>
    <defs>
     <path d="M -5 5 
L 5 5 
L 5 -5 
L -5 -5 
z
" id="m8409cd6581" style="stroke:#e6ce74;stroke-linejoin:miter;"/>
    </defs>
    <g clip-path="url(#p56f637b123)">
     <use style="fill:#e6ce74;stroke:#e6ce74;stroke-linejoin:miter;" x="140.367568" xlink:href="#m8409cd6581" y="304.955676"/>
    </g>
   </g>
   <g id="line2d_28">
    <path clip-path="url(#p56f637b123)" d="M 309.275676 276.804324 
" style="fill:none;stroke:#8c564b;stroke-linecap:square;stroke-width:1.5;"/>
    <defs>
     <path d="M 0 -5 
L -4.755283 -1.545085 
L -2.938926 4.045085 
L 2.938926 4.045085 
L 4.755283 -1.545085 
z
" id="m4598622045" style="stroke:#e6ce74;stroke-linejoin:miter;"/>
    </defs>
    <g clip-path="url(#p56f637b123)">
     <use style="fill:#e6ce74;stroke:#e6ce74;stroke-linejoin:miter;" x="309.275676" xlink:href="#m4598622045" y="276.804324"/>
    </g>
   </g>
   <g id="line2d_29">
    <path clip-path="url(#p56f637b123)" d="M 393.72973 220.501622 
" style="fill:none;stroke:#e377c2;stroke-linecap:square;stroke-width:1.5;"/>
    <defs>
     <path d="M -5 5 
L 5 5 
L 5 -5 
L -5 -5 
z
" id="ma0caf1b15a" style="stroke:#ff964f;stroke-linejoin:miter;"/>
    </defs>
    <g clip-path="url(#p56f637b123)">
     <use style="fill:#ff964f;stroke:#ff964f;stroke-linejoin:miter;" x="393.72973" xlink:href="#ma0caf1b15a" y="220.501622"/>
    </g>
   </g>
   <g id="line2d_30">
    <path clip-path="url(#p56f637b123)" d="M 140.367568 276.804324 
" style="fill:none;stroke:#7f7f7f;stroke-linecap:square;stroke-width:1.5;"/>
    <defs>
     <path d="M 0 -5 
L -4.755283 -1.545085 
L -2.938926 4.045085 
L 2.938926 4.045085 
L 4.755283 -1.545085 
z
" id="mdf2fc147dc" style="stroke:#ff964f;stroke-linejoin:miter;"/>
    </defs>
    <g clip-path="url(#p56f637b123)">
     <use style="fill:#ff964f;stroke:#ff964f;stroke-linejoin:miter;" x="140.367568" xlink:href="#mdf2fc147dc" y="276.804324"/>
    </g>
   </g>
   <g id="line2d_31">
    <path clip-path="url(#p56f637b123)" d="M 140.367568 136.047568 
" style="fill:none;stroke:#bcbd22;stroke-linecap:square;stroke-width:1.5;"/>
    <defs>
     <path d="M -5 5 
L 5 5 
L 5 -5 
L -5 -5 
z
" id="m50f474ad45" style="stroke:#ff4f28;stroke-linejoin:miter;"/>
    </defs>
    <g clip-path="url(#p56f637b123)">
     <use style="fill:#ff4f28;stroke:#ff4f28;stroke-linejoin:miter;" x="140.367568" xlink:href="#m50f474ad45" y="136.047568"/>
    </g>
   </g>
   <g id="line2d_32">
    <path clip-path="url(#p56f637b123)" d="M 252.972973 248.652973 
" style="fill:none;stroke:#17becf;stroke-linecap:square;stroke-width:1.5;"/>
    <defs>
     <path d="M 0 -5 
L -4.755283 -1.545085 
L -2.938926 4.045085 
L 2.938926 4.045085 
L 4.755283 -1.545085 
z
" id="m0b19b56282" style="stroke:#ff4f28;stroke-linejoin:miter;"/>
    </defs>
    <g clip-path="url(#p56f637b123)">
     <use style="fill:#ff4f28;stroke:#ff4f28;stroke-linejoin:miter;" x="252.972973" xlink:href="#m0b19b56282" y="248.652973"/>
    </g>
   </g>
   <g id="line2d_33">
    <path clip-path="url(#p56f637b123)" d="M 337.427027 164.198919 
" style="fill:none;stroke:#1f77b4;stroke-linecap:square;stroke-width:1.5;"/>
    <defs>
     <path d="M -5 5 
L 5 5 
L 5 -5 
L -5 -5 
z
" id="m913f646af4" style="stroke:#ff0000;stroke-linejoin:miter;"/>
    </defs>
    <g clip-path="url(#p56f637b123)">
     <use style="fill:#ff0000;stroke:#ff0000;stroke-linejoin:miter;" x="337.427027" xlink:href="#m913f646af4" y="164.198919"/>
    </g>
   </g>
   <g id="line2d_34">
    <path clip-path="url(#p56f637b123)" d="M 168.518919 389.40973 
" style="fill:none;stroke:#ff7f0e;stroke-linecap:square;stroke-width:1.5;"/>
    <defs>
     <path d="M 0 -5 
L -4.755283 -1.545085 
L -2.938926 4.045085 
L 2.938926 4.045085 
L 4.755283 -1.545085 
z
" id="m58bfc2d92a" style="stroke:#ff0000;stroke-linejoin:miter;"/>
    </defs>
    <g clip-path="url(#p56f637b123)">
     <use style="fill:#ff0000;stroke:#ff0000;stroke-linejoin:miter;" x="168.518919" xlink:href="#m58bfc2d92a" y="389.40973"/>
    </g>
   </g>
   <g id="line2d_35">
    <defs>
     <path d="M 0 2.5 
C 0.663008 2.5 1.29895 2.236584 1.767767 1.767767 
C 2.236584 1.29895 2.5 0.663008 2.5 0 
C 2.5 -0.663008 2.236584 -1.29895 1.767767 -1.767767 
C 1.29895 -2.236584 0.663008 -2.5 0 -2.5 
C -0.663008 -2.5 -1.29895 -2.236584 -1.767767 -1.767767 
C -2.236584 -1.29895 -2.5 -0.663008 -2.5 0 
C -2.5 0.663008 -2.236584 1.29895 -1.767767 1.767767 
C -1.29895 2.236584 -0.663008 2.5 0 2.5 
z
" id="ma51247219c" style="stroke:#000000;"/>
    </defs>
    <g clip-path="url(#p56f637b123)">
     <use style="stroke:#000000;" x="196.67027" xlink:href="#ma51247219c" y="389.40973"/>
     <use style="stroke:#000000;" x="196.67027" xlink:href="#ma51247219c" y="333.107027"/>
     <use style="stroke:#000000;" x="252.972973" xlink:href="#ma51247219c" y="389.40973"/>
     <use style="stroke:#000000;" x="252.972973" xlink:href="#ma51247219c" y="333.107027"/>
     <use style="stroke:#000000;" x="309.275676" xlink:href="#ma51247219c" y="389.40973"/>
     <use style="stroke:#000000;" x="309.275676" xlink:href="#ma51247219c" y="333.107027"/>
     <use style="stroke:#000000;" x="365.578378" xlink:href="#ma51247219c" y="389.40973"/>
     <use style="stroke:#000000;" x="365.578378" xlink:href="#ma51247219c" y="333.107027"/>
     <use style="stroke:#000000;" x="421.881081" xlink:href="#ma51247219c" y="389.40973"/>
     <use style="stroke:#000000;" x="421.881081" xlink:href="#ma51247219c" y="333.107027"/>
     <use style="stroke:#000000;" x="196.67027" xlink:href="#ma51247219c" y="220.501622"/>
     <use style="stroke:#000000;" x="196.67027" xlink:href="#ma51247219c" y="164.198919"/>
     <use style="stroke:#000000;" x="252.972973" xlink:href="#ma51247219c" y="220.501622"/>
     <use style="stroke:#000000;" x="252.972973" xlink:href="#ma51247219c" y="164.198919"/>
     <use style="stroke:#000000;" x="309.275676" xlink:href="#ma51247219c" y="220.501622"/>
     <use style="stroke:#000000;" x="309.275676" xlink:href="#ma51247219c" y="164.198919"/>
     <use style="stroke:#000000;" x="365.578378" xlink:href="#ma51247219c" y="220.501622"/>
     <use style="stroke:#000000;" x="365.578378" xlink:href="#ma51247219c" y="164.198919"/>
     <use style="stroke:#000000;" x="421.881081" xlink:href="#ma51247219c" y="220.501622"/>
     <use style="stroke:#000000;" x="421.881081" xlink:href="#ma51247219c" y="164.198919"/>
    </g>
   </g>
   <g id="line2d_36">
    <path clip-path="url(#p56f637b123)" d="M 212.354595 389.40973 
L 211.504775 384.317038 
L 209.047406 379.776218 
L 205.248783 376.279339 
L 200.520544 374.205342 
L 195.375069 373.778975 
L 190.369949 375.046444 
L 186.047566 377.870397 
L 182.876319 381.944816 
L 181.19986 386.828175 
L 181.19986 391.991285 
L 182.876319 396.874643 
L 186.047566 400.949062 
L 190.369949 403.773016 
L 195.375069 405.040484 
L 200.520544 404.614118 
L 205.248783 402.54012 
L 209.047406 399.043241 
L 211.504775 394.502422 
L 212.354595 389.40973 
" style="fill:none;stroke:#000000;stroke-dasharray:5.55,2.4;stroke-dashoffset:0;stroke-width:1.5;"/>
   </g>
   <g id="line2d_37">
    <path clip-path="url(#p56f637b123)" d="M 201.094054 389.40973 
L 200.854361 387.973329 
L 200.161257 386.692585 
L 199.089851 385.706286 
L 197.756245 385.121313 
L 196.304957 385.001055 
L 194.893257 385.358547 
L 193.674123 386.155046 
L 192.779669 387.304241 
L 192.306821 388.681599 
L 192.306821 390.137861 
L 192.779669 391.515218 
L 193.674123 392.664413 
L 194.893257 393.460913 
L 196.304957 393.818404 
L 197.756245 393.698147 
L 199.089851 393.113173 
L 200.161257 392.126874 
L 200.854361 390.84613 
L 201.094054 389.40973 
" style="fill:none;stroke:#ff0000;stroke-linecap:square;stroke-width:1.5;"/>
   </g>
   <g id="line2d_38">
    <path clip-path="url(#p56f637b123)" d="M 212.354595 333.107027 
L 211.504775 328.014335 
L 209.047406 323.473516 
L 205.248783 319.976636 
L 200.520544 317.902639 
L 195.375069 317.476273 
L 190.369949 318.743741 
L 186.047566 321.567695 
L 182.876319 325.642114 
L 181.19986 330.525472 
L 181.19986 335.688582 
L 182.876319 340.57194 
L 186.047566 344.646359 
L 190.369949 347.470313 
L 195.375069 348.737781 
L 200.520544 348.311415 
L 205.248783 346.237418 
L 209.047406 342.740538 
L 211.504775 338.199719 
L 212.354595 333.107027 
" style="fill:none;stroke:#000000;stroke-dasharray:5.55,2.4;stroke-dashoffset:0;stroke-width:1.5;"/>
   </g>
   <g id="line2d_39">
    <path clip-path="url(#p56f637b123)" d="M 201.094054 333.107027 
L 200.854361 331.670627 
L 200.161257 330.389883 
L 199.089851 329.403584 
L 197.756245 328.81861 
L 196.304957 328.698353 
L 194.893257 329.055844 
L 193.674123 329.852344 
L 192.779669 331.001539 
L 192.306821 332.378896 
L 192.306821 333.835158 
L 192.779669 335.212515 
L 193.674123 336.361711 
L 194.893257 337.15821 
L 196.304957 337.515701 
L 197.756245 337.395444 
L 199.089851 336.810471 
L 200.161257 335.824171 
L 200.854361 334.543427 
L 201.094054 333.107027 
" style="fill:none;stroke:#ff0000;stroke-linecap:square;stroke-width:1.5;"/>
   </g>
   <g id="line2d_40">
    <path clip-path="url(#p56f637b123)" d="M 268.657297 389.40973 
L 267.807477 384.317038 
L 265.350109 379.776218 
L 261.551485 376.279339 
L 256.823247 374.205342 
L 251.677772 373.778975 
L 246.672652 375.046444 
L 242.350269 377.870397 
L 239.179021 381.944816 
L 237.502562 386.828175 
L 237.502562 391.991285 
L 239.179021 396.874643 
L 242.350269 400.949062 
L 246.672652 403.773016 
L 251.677772 405.040484 
L 256.823247 404.614118 
L 261.551485 402.54012 
L 265.350109 399.043241 
L 267.807477 394.502422 
L 268.657297 389.40973 
" style="fill:none;stroke:#000000;stroke-dasharray:5.55,2.4;stroke-dashoffset:0;stroke-width:1.5;"/>
   </g>
   <g id="line2d_41">
    <path clip-path="url(#p56f637b123)" d="M 257.396757 389.40973 
L 257.157064 387.973329 
L 256.46396 386.692585 
L 255.392553 385.706286 
L 254.058948 385.121313 
L 252.60766 385.001055 
L 251.195959 385.358547 
L 249.976826 386.155046 
L 249.082371 387.304241 
L 248.609524 388.681599 
L 248.609524 390.137861 
L 249.082371 391.515218 
L 249.976826 392.664413 
L 251.195959 393.460913 
L 252.60766 393.818404 
L 254.058948 393.698147 
L 255.392553 393.113173 
L 256.46396 392.126874 
L 257.157064 390.84613 
L 257.396757 389.40973 
" style="fill:none;stroke:#ff0000;stroke-linecap:square;stroke-width:1.5;"/>
   </g>
   <g id="line2d_42">
    <path clip-path="url(#p56f637b123)" d="M 268.657297 333.107027 
L 267.807477 328.014335 
L 265.350109 323.473516 
L 261.551485 319.976636 
L 256.823247 317.902639 
L 251.677772 317.476273 
L 246.672652 318.743741 
L 242.350269 321.567695 
L 239.179021 325.642114 
L 237.502562 330.525472 
L 237.502562 335.688582 
L 239.179021 340.57194 
L 242.350269 344.646359 
L 246.672652 347.470313 
L 251.677772 348.737781 
L 256.823247 348.311415 
L 261.551485 346.237418 
L 265.350109 342.740538 
L 267.807477 338.199719 
L 268.657297 333.107027 
" style="fill:none;stroke:#000000;stroke-dasharray:5.55,2.4;stroke-dashoffset:0;stroke-width:1.5;"/>
   </g>
   <g id="line2d_43">
    <path clip-path="url(#p56f637b123)" d="M 257.396757 333.107027 
L 257.157064 331.670627 
L 256.46396 330.389883 
L 255.392553 329.403584 
L 254.058948 328.81861 
L 252.60766 328.698353 
L 251.195959 329.055844 
L 249.976826 329.852344 
L 249.082371 331.001539 
L 248.609524 332.378896 
L 248.609524 333.835158 
L 249.082371 335.212515 
L 249.976826 336.361711 
L 251.195959 337.15821 
L 252.60766 337.515701 
L 254.058948 337.395444 
L 255.392553 336.810471 
L 256.46396 335.824171 
L 257.157064 334.543427 
L 257.396757 333.107027 
" style="fill:none;stroke:#ff0000;stroke-linecap:square;stroke-width:1.5;"/>
   </g>
   <g id="line2d_44">
    <path clip-path="url(#p56f637b123)" d="M 324.96 389.40973 
L 324.11018 384.317038 
L 321.652811 379.776218 
L 317.854188 376.279339 
L 313.12595 374.205342 
L 307.980474 373.778975 
L 302.975354 375.046444 
L 298.652972 377.870397 
L 295.481724 381.944816 
L 293.805265 386.828175 
L 293.805265 391.991285 
L 295.481724 396.874643 
L 298.652972 400.949062 
L 302.975354 403.773016 
L 307.980474 405.040484 
L 313.12595 404.614118 
L 317.854188 402.54012 
L 321.652811 399.043241 
L 324.11018 394.502422 
L 324.96 389.40973 
" style="fill:none;stroke:#000000;stroke-dasharray:5.55,2.4;stroke-dashoffset:0;stroke-width:1.5;"/>
   </g>
   <g id="line2d_45">
    <path clip-path="url(#p56f637b123)" d="M 313.699459 389.40973 
L 313.459767 387.973329 
L 312.766663 386.692585 
L 311.695256 385.706286 
L 310.36165 385.121313 
L 308.910363 385.001055 
L 307.498662 385.358547 
L 306.279528 386.155046 
L 305.385074 387.304241 
L 304.912227 388.681599 
L 304.912227 390.137861 
L 305.385074 391.515218 
L 306.279528 392.664413 
L 307.498662 393.460913 
L 308.910363 393.818404 
L 310.36165 393.698147 
L 311.695256 393.113173 
L 312.766663 392.126874 
L 313.459767 390.84613 
L 313.699459 389.40973 
" style="fill:none;stroke:#ff0000;stroke-linecap:square;stroke-width:1.5;"/>
   </g>
   <g id="line2d_46">
    <path clip-path="url(#p56f637b123)" d="M 324.96 333.107027 
L 324.11018 328.014335 
L 321.652811 323.473516 
L 317.854188 319.976636 
L 313.12595 317.902639 
L 307.980474 317.476273 
L 302.975354 318.743741 
L 298.652972 321.567695 
L 295.481724 325.642114 
L 293.805265 330.525472 
L 293.805265 335.688582 
L 295.481724 340.57194 
L 298.652972 344.646359 
L 302.975354 347.470313 
L 307.980474 348.737781 
L 313.12595 348.311415 
L 317.854188 346.237418 
L 321.652811 342.740538 
L 324.11018 338.199719 
L 324.96 333.107027 
" style="fill:none;stroke:#000000;stroke-dasharray:5.55,2.4;stroke-dashoffset:0;stroke-width:1.5;"/>
   </g>
   <g id="line2d_47">
    <path clip-path="url(#p56f637b123)" d="M 313.699459 333.107027 
L 313.459767 331.670627 
L 312.766663 330.389883 
L 311.695256 329.403584 
L 310.36165 328.81861 
L 308.910363 328.698353 
L 307.498662 329.055844 
L 306.279528 329.852344 
L 305.385074 331.001539 
L 304.912227 332.378896 
L 304.912227 333.835158 
L 305.385074 335.212515 
L 306.279528 336.361711 
L 307.498662 337.15821 
L 308.910363 337.515701 
L 310.36165 337.395444 
L 311.695256 336.810471 
L 312.766663 335.824171 
L 313.459767 334.543427 
L 313.699459 333.107027 
" style="fill:none;stroke:#ff0000;stroke-linecap:square;stroke-width:1.5;"/>
   </g>
   <g id="line2d_48">
    <path clip-path="url(#p56f637b123)" d="M 381.262703 389.40973 
L 380.412883 384.317038 
L 377.955514 379.776218 
L 374.156891 376.279339 
L 369.428652 374.205342 
L 364.283177 373.778975 
L 359.278057 375.046444 
L 354.955675 377.870397 
L 351.784427 381.944816 
L 350.107968 386.828175 
L 350.107968 391.991285 
L 351.784427 396.874643 
L 354.955675 400.949062 
L 359.278057 403.773016 
L 364.283177 405.040484 
L 369.428652 404.614118 
L 374.156891 402.54012 
L 377.955514 399.043241 
L 380.412883 394.502422 
L 381.262703 389.40973 
" style="fill:none;stroke:#000000;stroke-dasharray:5.55,2.4;stroke-dashoffset:0;stroke-width:1.5;"/>
   </g>
   <g id="line2d_49">
    <path clip-path="url(#p56f637b123)" d="M 370.002162 389.40973 
L 369.762469 387.973329 
L 369.069365 386.692585 
L 367.997959 385.706286 
L 366.664353 385.121313 
L 365.213065 385.001055 
L 363.801365 385.358547 
L 362.582231 386.155046 
L 361.687777 387.304241 
L 361.214929 388.681599 
L 361.214929 390.137861 
L 361.687777 391.515218 
L 362.582231 392.664413 
L 363.801365 393.460913 
L 365.213065 393.818404 
L 366.664353 393.698147 
L 367.997959 393.113173 
L 369.069365 392.126874 
L 369.762469 390.84613 
L 370.002162 389.40973 
" style="fill:none;stroke:#ff0000;stroke-linecap:square;stroke-width:1.5;"/>
   </g>
   <g id="line2d_50">
    <path clip-path="url(#p56f637b123)" d="M 381.262703 333.107027 
L 380.412883 328.014335 
L 377.955514 323.473516 
L 374.156891 319.976636 
L 369.428652 317.902639 
L 364.283177 317.476273 
L 359.278057 318.743741 
L 354.955675 321.567695 
L 351.784427 325.642114 
L 350.107968 330.525472 
L 350.107968 335.688582 
L 351.784427 340.57194 
L 354.955675 344.646359 
L 359.278057 347.470313 
L 364.283177 348.737781 
L 369.428652 348.311415 
L 374.156891 346.237418 
L 377.955514 342.740538 
L 380.412883 338.199719 
L 381.262703 333.107027 
" style="fill:none;stroke:#000000;stroke-dasharray:5.55,2.4;stroke-dashoffset:0;stroke-width:1.5;"/>
   </g>
   <g id="line2d_51">
    <path clip-path="url(#p56f637b123)" d="M 370.002162 333.107027 
L 369.762469 331.670627 
L 369.069365 330.389883 
L 367.997959 329.403584 
L 366.664353 328.81861 
L 365.213065 328.698353 
L 363.801365 329.055844 
L 362.582231 329.852344 
L 361.687777 331.001539 
L 361.214929 332.378896 
L 361.214929 333.835158 
L 361.687777 335.212515 
L 362.582231 336.361711 
L 363.801365 337.15821 
L 365.213065 337.515701 
L 366.664353 337.395444 
L 367.997959 336.810471 
L 369.069365 335.824171 
L 369.762469 334.543427 
L 370.002162 333.107027 
" style="fill:none;stroke:#ff0000;stroke-linecap:square;stroke-width:1.5;"/>
   </g>
   <g id="line2d_52">
    <path clip-path="url(#p56f637b123)" d="M 437.565405 389.40973 
L 436.715585 384.317038 
L 434.258217 379.776218 
L 430.459593 376.279339 
L 425.731355 374.205342 
L 420.58588 373.778975 
L 415.58076 375.046444 
L 411.258377 377.870397 
L 408.08713 381.944816 
L 406.41067 386.828175 
L 406.41067 391.991285 
L 408.08713 396.874643 
L 411.258377 400.949062 
L 415.58076 403.773016 
L 420.58588 405.040484 
L 425.731355 404.614118 
L 430.459593 402.54012 
L 434.258217 399.043241 
L 436.715585 394.502422 
L 437.565405 389.40973 
" style="fill:none;stroke:#000000;stroke-dasharray:5.55,2.4;stroke-dashoffset:0;stroke-width:1.5;"/>
   </g>
   <g id="line2d_53">
    <path clip-path="url(#p56f637b123)" d="M 426.304865 389.40973 
L 426.065172 387.973329 
L 425.372068 386.692585 
L 424.300661 385.706286 
L 422.967056 385.121313 
L 421.515768 385.001055 
L 420.104067 385.358547 
L 418.884934 386.155046 
L 417.990479 387.304241 
L 417.517632 388.681599 
L 417.517632 390.137861 
L 417.990479 391.515218 
L 418.884934 392.664413 
L 420.104067 393.460913 
L 421.515768 393.818404 
L 422.967056 393.698147 
L 424.300661 393.113173 
L 425.372068 392.126874 
L 426.065172 390.84613 
L 426.304865 389.40973 
" style="fill:none;stroke:#ff0000;stroke-linecap:square;stroke-width:1.5;"/>
   </g>
   <g id="line2d_54">
    <path clip-path="url(#p56f637b123)" d="M 437.565405 333.107027 
L 436.715585 328.014335 
L 434.258217 323.473516 
L 430.459593 319.976636 
L 425.731355 317.902639 
L 420.58588 317.476273 
L 415.58076 318.743741 
L 411.258377 321.567695 
L 408.08713 325.642114 
L 406.41067 330.525472 
L 406.41067 335.688582 
L 408.08713 340.57194 
L 411.258377 344.646359 
L 415.58076 347.470313 
L 420.58588 348.737781 
L 425.731355 348.311415 
L 430.459593 346.237418 
L 434.258217 342.740538 
L 436.715585 338.199719 
L 437.565405 333.107027 
" style="fill:none;stroke:#000000;stroke-dasharray:5.55,2.4;stroke-dashoffset:0;stroke-width:1.5;"/>
   </g>
   <g id="line2d_55">
    <path clip-path="url(#p56f637b123)" d="M 426.304865 333.107027 
L 426.065172 331.670627 
L 425.372068 330.389883 
L 424.300661 329.403584 
L 422.967056 328.81861 
L 421.515768 328.698353 
L 420.104067 329.055844 
L 418.884934 329.852344 
L 417.990479 331.001539 
L 417.517632 332.378896 
L 417.517632 333.835158 
L 417.990479 335.212515 
L 418.884934 336.361711 
L 420.104067 337.15821 
L 421.515768 337.515701 
L 422.967056 337.395444 
L 424.300661 336.810471 
L 425.372068 335.824171 
L 426.065172 334.543427 
L 426.304865 333.107027 
" style="fill:none;stroke:#ff0000;stroke-linecap:square;stroke-width:1.5;"/>
   </g>
   <g id="line2d_56">
    <path clip-path="url(#p56f637b123)" d="M 212.354595 220.501622 
L 211.504775 215.40893 
L 209.047406 210.86811 
L 205.248783 207.371231 
L 200.520544 205.297233 
L 195.375069 204.870867 
L 190.369949 206.138336 
L 186.047566 208.962289 
L 182.876319 213.036708 
L 181.19986 217.920067 
L 181.19986 223.083177 
L 182.876319 227.966535 
L 186.047566 232.040954 
L 190.369949 234.864907 
L 195.375069 236.132376 
L 200.520544 235.70601 
L 205.248783 233.632012 
L 209.047406 230.135133 
L 211.504775 225.594313 
L 212.354595 220.501622 
" style="fill:none;stroke:#000000;stroke-dasharray:5.55,2.4;stroke-dashoffset:0;stroke-width:1.5;"/>
   </g>
   <g id="line2d_57">
    <path clip-path="url(#p56f637b123)" d="M 201.094054 220.501622 
L 200.854361 219.065221 
L 200.161257 217.784477 
L 199.089851 216.798178 
L 197.756245 216.213204 
L 196.304957 216.092947 
L 194.893257 216.450438 
L 193.674123 217.246938 
L 192.779669 218.396133 
L 192.306821 219.773491 
L 192.306821 221.229753 
L 192.779669 222.60711 
L 193.674123 223.756305 
L 194.893257 224.552805 
L 196.304957 224.910296 
L 197.756245 224.790039 
L 199.089851 224.205065 
L 200.161257 223.218766 
L 200.854361 221.938022 
L 201.094054 220.501622 
" style="fill:none;stroke:#ff0000;stroke-linecap:square;stroke-width:1.5;"/>
   </g>
   <g id="line2d_58">
    <path clip-path="url(#p56f637b123)" d="M 212.354595 164.198919 
L 211.504775 159.106227 
L 209.047406 154.565408 
L 205.248783 151.068528 
L 200.520544 148.994531 
L 195.375069 148.568165 
L 190.369949 149.835633 
L 186.047566 152.659586 
L 182.876319 156.734006 
L 181.19986 161.617364 
L 181.19986 166.780474 
L 182.876319 171.663832 
L 186.047566 175.738251 
L 190.369949 178.562205 
L 195.375069 179.829673 
L 200.520544 179.403307 
L 205.248783 177.329309 
L 209.047406 173.83243 
L 211.504775 169.291611 
L 212.354595 164.198919 
" style="fill:none;stroke:#000000;stroke-dasharray:5.55,2.4;stroke-dashoffset:0;stroke-width:1.5;"/>
   </g>
   <g id="line2d_59">
    <path clip-path="url(#p56f637b123)" d="M 201.094054 164.198919 
L 200.854361 162.762519 
L 200.161257 161.481775 
L 199.089851 160.495475 
L 197.756245 159.910502 
L 196.304957 159.790245 
L 194.893257 160.147736 
L 193.674123 160.944235 
L 192.779669 162.093431 
L 192.306821 163.470788 
L 192.306821 164.92705 
L 192.779669 166.304407 
L 193.674123 167.453602 
L 194.893257 168.250102 
L 196.304957 168.607593 
L 197.756245 168.487336 
L 199.089851 167.902362 
L 200.161257 166.916063 
L 200.854361 165.635319 
L 201.094054 164.198919 
" style="fill:none;stroke:#ff0000;stroke-linecap:square;stroke-width:1.5;"/>
   </g>
   <g id="line2d_60">
    <path clip-path="url(#p56f637b123)" d="M 268.657297 220.501622 
L 267.807477 215.40893 
L 265.350109 210.86811 
L 261.551485 207.371231 
L 256.823247 205.297233 
L 251.677772 204.870867 
L 246.672652 206.138336 
L 242.350269 208.962289 
L 239.179021 213.036708 
L 237.502562 217.920067 
L 237.502562 223.083177 
L 239.179021 227.966535 
L 242.350269 232.040954 
L 246.672652 234.864907 
L 251.677772 236.132376 
L 256.823247 235.70601 
L 261.551485 233.632012 
L 265.350109 230.135133 
L 267.807477 225.594313 
L 268.657297 220.501622 
" style="fill:none;stroke:#000000;stroke-dasharray:5.55,2.4;stroke-dashoffset:0;stroke-width:1.5;"/>
   </g>
   <g id="line2d_61">
    <path clip-path="url(#p56f637b123)" d="M 257.396757 220.501622 
L 257.157064 219.065221 
L 256.46396 217.784477 
L 255.392553 216.798178 
L 254.058948 216.213204 
L 252.60766 216.092947 
L 251.195959 216.450438 
L 249.976826 217.246938 
L 249.082371 218.396133 
L 248.609524 219.773491 
L 248.609524 221.229753 
L 249.082371 222.60711 
L 249.976826 223.756305 
L 251.195959 224.552805 
L 252.60766 224.910296 
L 254.058948 224.790039 
L 255.392553 224.205065 
L 256.46396 223.218766 
L 257.157064 221.938022 
L 257.396757 220.501622 
" style="fill:none;stroke:#ff0000;stroke-linecap:square;stroke-width:1.5;"/>
   </g>
   <g id="line2d_62">
    <path clip-path="url(#p56f637b123)" d="M 268.657297 164.198919 
L 267.807477 159.106227 
L 265.350109 154.565408 
L 261.551485 151.068528 
L 256.823247 148.994531 
L 251.677772 148.568165 
L 246.672652 149.835633 
L 242.350269 152.659586 
L 239.179021 156.734006 
L 237.502562 161.617364 
L 237.502562 166.780474 
L 239.179021 171.663832 
L 242.350269 175.738251 
L 246.672652 178.562205 
L 251.677772 179.829673 
L 256.823247 179.403307 
L 261.551485 177.329309 
L 265.350109 173.83243 
L 267.807477 169.291611 
L 268.657297 164.198919 
" style="fill:none;stroke:#000000;stroke-dasharray:5.55,2.4;stroke-dashoffset:0;stroke-width:1.5;"/>
   </g>
   <g id="line2d_63">
    <path clip-path="url(#p56f637b123)" d="M 257.396757 164.198919 
L 257.157064 162.762519 
L 256.46396 161.481775 
L 255.392553 160.495475 
L 254.058948 159.910502 
L 252.60766 159.790245 
L 251.195959 160.147736 
L 249.976826 160.944235 
L 249.082371 162.093431 
L 248.609524 163.470788 
L 248.609524 164.92705 
L 249.082371 166.304407 
L 249.976826 167.453602 
L 251.195959 168.250102 
L 252.60766 168.607593 
L 254.058948 168.487336 
L 255.392553 167.902362 
L 256.46396 166.916063 
L 257.157064 165.635319 
L 257.396757 164.198919 
" style="fill:none;stroke:#ff0000;stroke-linecap:square;stroke-width:1.5;"/>
   </g>
   <g id="line2d_64">
    <path clip-path="url(#p56f637b123)" d="M 324.96 220.501622 
L 324.11018 215.40893 
L 321.652811 210.86811 
L 317.854188 207.371231 
L 313.12595 205.297233 
L 307.980474 204.870867 
L 302.975354 206.138336 
L 298.652972 208.962289 
L 295.481724 213.036708 
L 293.805265 217.920067 
L 293.805265 223.083177 
L 295.481724 227.966535 
L 298.652972 232.040954 
L 302.975354 234.864907 
L 307.980474 236.132376 
L 313.12595 235.70601 
L 317.854188 233.632012 
L 321.652811 230.135133 
L 324.11018 225.594313 
L 324.96 220.501622 
" style="fill:none;stroke:#000000;stroke-dasharray:5.55,2.4;stroke-dashoffset:0;stroke-width:1.5;"/>
   </g>
   <g id="line2d_65">
    <path clip-path="url(#p56f637b123)" d="M 313.699459 220.501622 
L 313.459767 219.065221 
L 312.766663 217.784477 
L 311.695256 216.798178 
L 310.36165 216.213204 
L 308.910363 216.092947 
L 307.498662 216.450438 
L 306.279528 217.246938 
L 305.385074 218.396133 
L 304.912227 219.773491 
L 304.912227 221.229753 
L 305.385074 222.60711 
L 306.279528 223.756305 
L 307.498662 224.552805 
L 308.910363 224.910296 
L 310.36165 224.790039 
L 311.695256 224.205065 
L 312.766663 223.218766 
L 313.459767 221.938022 
L 313.699459 220.501622 
" style="fill:none;stroke:#ff0000;stroke-linecap:square;stroke-width:1.5;"/>
   </g>
   <g id="line2d_66">
    <path clip-path="url(#p56f637b123)" d="M 324.96 164.198919 
L 324.11018 159.106227 
L 321.652811 154.565408 
L 317.854188 151.068528 
L 313.12595 148.994531 
L 307.980474 148.568165 
L 302.975354 149.835633 
L 298.652972 152.659586 
L 295.481724 156.734006 
L 293.805265 161.617364 
L 293.805265 166.780474 
L 295.481724 171.663832 
L 298.652972 175.738251 
L 302.975354 178.562205 
L 307.980474 179.829673 
L 313.12595 179.403307 
L 317.854188 177.329309 
L 321.652811 173.83243 
L 324.11018 169.291611 
L 324.96 164.198919 
" style="fill:none;stroke:#000000;stroke-dasharray:5.55,2.4;stroke-dashoffset:0;stroke-width:1.5;"/>
   </g>
   <g id="line2d_67">
    <path clip-path="url(#p56f637b123)" d="M 313.699459 164.198919 
L 313.459767 162.762519 
L 312.766663 161.481775 
L 311.695256 160.495475 
L 310.36165 159.910502 
L 308.910363 159.790245 
L 307.498662 160.147736 
L 306.279528 160.944235 
L 305.385074 162.093431 
L 304.912227 163.470788 
L 304.912227 164.92705 
L 305.385074 166.304407 
L 306.279528 167.453602 
L 307.498662 168.250102 
L 308.910363 168.607593 
L 310.36165 168.487336 
L 311.695256 167.902362 
L 312.766663 166.916063 
L 313.459767 165.635319 
L 313.699459 164.198919 
" style="fill:none;stroke:#ff0000;stroke-linecap:square;stroke-width:1.5;"/>
   </g>
   <g id="line2d_68">
    <path clip-path="url(#p56f637b123)" d="M 381.262703 220.501622 
L 380.412883 215.40893 
L 377.955514 210.86811 
L 374.156891 207.371231 
L 369.428652 205.297233 
L 364.283177 204.870867 
L 359.278057 206.138336 
L 354.955675 208.962289 
L 351.784427 213.036708 
L 350.107968 217.920067 
L 350.107968 223.083177 
L 351.784427 227.966535 
L 354.955675 232.040954 
L 359.278057 234.864907 
L 364.283177 236.132376 
L 369.428652 235.70601 
L 374.156891 233.632012 
L 377.955514 230.135133 
L 380.412883 225.594313 
L 381.262703 220.501622 
" style="fill:none;stroke:#000000;stroke-dasharray:5.55,2.4;stroke-dashoffset:0;stroke-width:1.5;"/>
   </g>
   <g id="line2d_69">
    <path clip-path="url(#p56f637b123)" d="M 370.002162 220.501622 
L 369.762469 219.065221 
L 369.069365 217.784477 
L 367.997959 216.798178 
L 366.664353 216.213204 
L 365.213065 216.092947 
L 363.801365 216.450438 
L 362.582231 217.246938 
L 361.687777 218.396133 
L 361.214929 219.773491 
L 361.214929 221.229753 
L 361.687777 222.60711 
L 362.582231 223.756305 
L 363.801365 224.552805 
L 365.213065 224.910296 
L 366.664353 224.790039 
L 367.997959 224.205065 
L 369.069365 223.218766 
L 369.762469 221.938022 
L 370.002162 220.501622 
" style="fill:none;stroke:#ff0000;stroke-linecap:square;stroke-width:1.5;"/>
   </g>
   <g id="line2d_70">
    <path clip-path="url(#p56f637b123)" d="M 381.262703 164.198919 
L 380.412883 159.106227 
L 377.955514 154.565408 
L 374.156891 151.068528 
L 369.428652 148.994531 
L 364.283177 148.568165 
L 359.278057 149.835633 
L 354.955675 152.659586 
L 351.784427 156.734006 
L 350.107968 161.617364 
L 350.107968 166.780474 
L 351.784427 171.663832 
L 354.955675 175.738251 
L 359.278057 178.562205 
L 364.283177 179.829673 
L 369.428652 179.403307 
L 374.156891 177.329309 
L 377.955514 173.83243 
L 380.412883 169.291611 
L 381.262703 164.198919 
" style="fill:none;stroke:#000000;stroke-dasharray:5.55,2.4;stroke-dashoffset:0;stroke-width:1.5;"/>
   </g>
   <g id="line2d_71">
    <path clip-path="url(#p56f637b123)" d="M 370.002162 164.198919 
L 369.762469 162.762519 
L 369.069365 161.481775 
L 367.997959 160.495475 
L 366.664353 159.910502 
L 365.213065 159.790245 
L 363.801365 160.147736 
L 362.582231 160.944235 
L 361.687777 162.093431 
L 361.214929 163.470788 
L 361.214929 164.92705 
L 361.687777 166.304407 
L 362.582231 167.453602 
L 363.801365 168.250102 
L 365.213065 168.607593 
L 366.664353 168.487336 
L 367.997959 167.902362 
L 369.069365 166.916063 
L 369.762469 165.635319 
L 370.002162 164.198919 
" style="fill:none;stroke:#ff0000;stroke-linecap:square;stroke-width:1.5;"/>
   </g>
   <g id="line2d_72">
    <path clip-path="url(#p56f637b123)" d="M 437.565405 220.501622 
L 436.715585 215.40893 
L 434.258217 210.86811 
L 430.459593 207.371231 
L 425.731355 205.297233 
L 420.58588 204.870867 
L 415.58076 206.138336 
L 411.258377 208.962289 
L 408.08713 213.036708 
L 406.41067 217.920067 
L 406.41067 223.083177 
L 408.08713 227.966535 
L 411.258377 232.040954 
L 415.58076 234.864907 
L 420.58588 236.132376 
L 425.731355 235.70601 
L 430.459593 233.632012 
L 434.258217 230.135133 
L 436.715585 225.594313 
L 437.565405 220.501622 
" style="fill:none;stroke:#000000;stroke-dasharray:5.55,2.4;stroke-dashoffset:0;stroke-width:1.5;"/>
   </g>
   <g id="line2d_73">
    <path clip-path="url(#p56f637b123)" d="M 426.304865 220.501622 
L 426.065172 219.065221 
L 425.372068 217.784477 
L 424.300661 216.798178 
L 422.967056 216.213204 
L 421.515768 216.092947 
L 420.104067 216.450438 
L 418.884934 217.246938 
L 417.990479 218.396133 
L 417.517632 219.773491 
L 417.517632 221.229753 
L 417.990479 222.60711 
L 418.884934 223.756305 
L 420.104067 224.552805 
L 421.515768 224.910296 
L 422.967056 224.790039 
L 424.300661 224.205065 
L 425.372068 223.218766 
L 426.065172 221.938022 
L 426.304865 220.501622 
" style="fill:none;stroke:#ff0000;stroke-linecap:square;stroke-width:1.5;"/>
   </g>
   <g id="line2d_74">
    <path clip-path="url(#p56f637b123)" d="M 437.565405 164.198919 
L 436.715585 159.106227 
L 434.258217 154.565408 
L 430.459593 151.068528 
L 425.731355 148.994531 
L 420.58588 148.568165 
L 415.58076 149.835633 
L 411.258377 152.659586 
L 408.08713 156.734006 
L 406.41067 161.617364 
L 406.41067 166.780474 
L 408.08713 171.663832 
L 411.258377 175.738251 
L 415.58076 178.562205 
L 420.58588 179.829673 
L 425.731355 179.403307 
L 430.459593 177.329309 
L 434.258217 173.83243 
L 436.715585 169.291611 
L 437.565405 164.198919 
" style="fill:none;stroke:#000000;stroke-dasharray:5.55,2.4;stroke-dashoffset:0;stroke-width:1.5;"/>
   </g>
   <g id="line2d_75">
    <path clip-path="url(#p56f637b123)" d="M 426.304865 164.198919 
L 426.065172 162.762519 
L 425.372068 161.481775 
L 424.300661 160.495475 
L 422.967056 159.910502 
L 421.515768 159.790245 
L 420.104067 160.147736 
L 418.884934 160.944235 
L 417.990479 162.093431 
L 417.517632 163.470788 
L 417.517632 164.92705 
L 417.990479 166.304407 
L 418.884934 167.453602 
L 420.104067 168.250102 
L 421.515768 168.607593 
L 422.967056 168.487336 
L 424.300661 167.902362 
L 425.372068 166.916063 
L 426.065172 165.635319 
L 426.304865 164.198919 
" style="fill:none;stroke:#ff0000;stroke-linecap:square;stroke-width:1.5;"/>
   </g>
   <g id="line2d_76">
    <path clip-path="url(#p56f637b123)" d="M 92.108108 493.971892 
L 92.108108 87.788108 
" style="fill:none;stroke:#000000;stroke-linecap:square;stroke-width:4;"/>
   </g>
   <g id="line2d_77">
    <path clip-path="url(#p56f637b123)" d="M 92.108108 87.788108 
L 498.291892 87.788108 
" style="fill:none;stroke:#000000;stroke-linecap:square;stroke-width:4;"/>
   </g>
   <g id="line2d_78">
    <path clip-path="url(#p56f637b123)" d="M 498.291892 87.788108 
L 498.291892 493.971892 
" style="fill:none;stroke:#000000;stroke-linecap:square;stroke-width:4;"/>
   </g>
   <g id="line2d_79">
    <path clip-path="url(#p56f637b123)" d="M 498.291892 493.971892 
L 92.108108 493.971892 
" style="fill:none;stroke:#000000;stroke-linecap:square;stroke-width:4;"/>
   </g>
   <g id="line2d_80">
    <path clip-path="url(#p56f637b123)" d="M 140.367568 389.40973 
L 141.493622 389.40973 
L 143.464216 389.168432 
L 145.515243 388.645622 
L 147.646703 387.720649 
L 149.456432 386.634811 
L 151.427027 385.307676 
L 155.00627 382.492541 
L 178.452324 363.751784 
L 195.504 350.319568 
L 197.474595 348.952216 
L 199.203892 347.987027 
L 200.531027 347.504432 
L 202.059243 347.303351 
L 203.949405 347.544649 
L 206.281946 348.389189 
L 209.981838 350.4 
L 211.349189 350.842378 
L 212.877405 351.003243 
L 214.727351 350.761946 
L 216.617514 350.07827 
L 218.467459 349.072865 
L 222.127135 346.418595 
L 226.953081 342.195892 
L 235.277838 334.635243 
L 238.173405 331.699459 
L 239.138595 330.573405 
L 239.540757 329.929946 
L 239.701622 329.366919 
L 239.661405 328.361514 
L 239.219027 326.793081 
L 238.213622 325.023568 
L 235.35827 321.926919 
L 234.594162 320.760649 
L 234.312649 319.875892 
L 234.272432 318.749838 
L 234.634378 317.462919 
L 235.68 315.612973 
L 237.248432 313.763027 
L 240.707027 310.666378 
L 253.495784 300.491676 
L 261.136865 294.579892 
L 263.107459 293.172324 
L 264.957405 292.006054 
L 266.928 291.000649 
L 269.019243 290.397405 
L 271.512649 290.276757 
L 276.016865 290.477838 
L 278.349405 290.196324 
L 280.440649 289.512649 
L 282.169946 288.668108 
L 283.738378 287.662703 
L 285.266595 286.536649 
L 288.242595 283.681297 
L 290.615351 281.187892 
L 292.867459 278.694486 
L 294.838054 276.241297 
L 295.722811 274.914162 
L 296.406486 273.667459 
L 297.291243 271.737081 
L 298.618378 267.755676 
L 299.784649 264.015568 
L 300.267243 263.010162 
L 300.790054 262.447135 
L 301.916108 261.803676 
L 303.645405 261.361297 
L 306.179027 261.361297 
L 311.085405 262.527568 
L 312.73427 262.567784 
L 314.021189 262.246054 
L 315.911351 261.200432 
L 317.359135 259.752649 
L 318.565622 257.82227 
L 320.81773 253.68 
L 322.064432 251.87027 
L 323.632865 249.980108 
L 326.930595 246.762811 
L 335.979243 239.161946 
L 343.057297 233.451243 
L 351.824432 226.252541 
L 353.151568 225.08627 
L 353.111351 225.206919 
L 353.191784 225.448216 
L 352.990703 225.287351 
L 352.508108 225.126486 
L 351.221189 225.166703 
L 349.049514 225.810162 
L 346.11373 226.936216 
L 345.912649 226.855784 
L 345.711568 226.694919 
L 345.590919 226.172108 
L 345.510486 225.247135 
L 345.671351 224.080865 
L 346.234378 222.592865 
L 347.239784 220.863568 
L 348.526703 219.13427 
L 351.824432 215.273514 
L 352.307027 214.308324 
L 352.628757 213.142054 
L 352.548324 211.171459 
L 352.025514 209.241081 
L 351.180973 207.270486 
L 350.497297 205.380324 
L 350.215784 204.053189 
L 350.135351 203.088 
L 350.336432 202.203243 
L 350.859243 201.197838 
L 351.824432 200.112 
L 353.634162 198.784865 
L 355.564541 197.819676 
L 357.655784 197.055568 
L 359.988324 196.412108 
L 366.342486 195.205622 
L 375.632432 193.83827 
L 382.589838 193.114378 
L 389.26573 192.551351 
L 393.810162 192.269838 
L 393.810162 192.269838 
" style="fill:none;stroke:#8000ff;stroke-linecap:square;stroke-width:1.5;"/>
   </g>
   <g id="line2d_81">
    <path clip-path="url(#p56f637b123)" d="M 450.032432 192.35027 
L 450.27373 192.430703 
L 450.394378 192.591568 
L 450.474811 193.114378 
L 450.354162 194.119784 
L 449.750919 195.648 
L 448.624865 197.296865 
L 446.935784 199.026162 
L 445.045622 200.554378 
L 439.576216 204.294486 
L 435.795892 206.868324 
L 430.567784 210.528 
L 430.28627 210.528 
L 430.125405 210.447568 
L 429.843892 209.924757 
L 429.642811 208.678054 
L 429.964541 206.667243 
L 431.090595 204.535784 
L 432.176432 202.846703 
L 433.624216 201.077189 
L 433.865514 200.835892 
L 433.785081 201.036973 
L 433.865514 201.157622 
L 433.90573 201.238054 
L 433.584 201.077189 
L 432.819892 200.876108 
L 431.452541 200.876108 
L 429.562378 201.318486 
L 427.511351 202.163027 
L 425.420108 203.289081 
L 421.961514 205.340108 
L 420.634378 205.943351 
L 419.226811 206.265081 
L 417.859459 206.184649 
L 416.009514 205.621622 
L 413.837838 204.334703 
L 410.700973 201.881514 
L 409.253189 201.036973 
L 408.288 200.795676 
L 406.920649 200.755459 
L 405.070703 201.197838 
L 403.220757 202.042378 
L 401.209946 203.248865 
L 397.630703 206.064 
L 389.225514 213.544216 
L 381.302919 220.944 
L 380.056216 222.311351 
L 379.452973 223.155892 
L 379.211676 223.759135 
L 379.131243 224.483027 
L 379.412757 226.011243 
L 380.257297 227.901405 
L 381.504 229.510054 
L 383.31373 231.520865 
L 384.520216 233.16973 
L 384.922378 234.01427 
L 385.043027 234.818595 
L 384.922378 236.065297 
L 384.319135 237.63373 
L 383.032216 239.403243 
L 381.262703 241.132541 
L 379.613838 242.540108 
L 348.848432 266.348108 
L 347.119135 267.956757 
L 345.550703 269.927351 
L 344.706162 271.777297 
L 344.384432 273.788108 
L 344.424649 280.464 
L 343.98227 282.555243 
L 343.338811 284.284541 
L 342.454054 285.973622 
L 340.242162 289.271351 
L 338.110703 292.488649 
L 337.266162 294.217946 
L 336.582486 295.987459 
L 335.939027 298.239568 
L 334.772757 302.944865 
L 334.008649 304.955676 
L 332.963027 306.886054 
L 331.515243 308.856649 
L 329.987027 310.425081 
L 326.76973 312.918486 
L 322.547027 315.331459 
L 318.68627 317.221622 
L 314.946162 318.790054 
L 313.417946 319.272649 
L 312.332108 319.47373 
L 311.568 319.353081 
L 310.562595 318.910703 
L 309.235459 317.744432 
L 307.988757 315.894486 
L 306.380108 311.953297 
L 305.776865 310.907676 
L 305.374703 310.54573 
L 304.851892 310.264216 
L 303.886703 309.982703 
L 302.278054 310.022919 
L 300.387892 310.425081 
L 298.135784 311.229405 
L 295.763027 312.395676 
L 289.770811 315.693405 
L 287.156757 316.698811 
L 285.829622 317.020541 
L 284.743784 317.060757 
L 283.135135 316.618378 
L 281.003676 315.331459 
L 279.515676 313.923892 
L 278.148324 312.435892 
L 276.740757 311.229405 
L 275.936432 310.746811 
L 274.931027 310.425081 
L 273.684324 310.304432 
L 271.995243 310.505514 
L 269.944216 311.108757 
L 268.054054 311.993514 
L 265.962811 313.159784 
L 263.952 314.486919 
L 260.332541 317.181405 
L 257.276108 319.554162 
L 255.908757 320.398703 
L 255.707676 320.358486 
L 255.265297 319.996541 
L 254.018595 318.588973 
L 253.053405 316.578162 
L 252.128432 312.516324 
L 251.846919 310.143568 
L 251.887135 310.264216 
L 252.128432 310.344649 
L 251.686054 310.384865 
L 250.761081 310.706595 
L 249.514378 311.430486 
L 248.066595 312.636973 
L 246.659027 314.205405 
L 245.211243 316.095568 
L 242.637405 319.835676 
L 241.31027 321.564973 
L 239.782054 323.133405 
L 238.092973 324.460541 
L 235.961514 325.707243 
L 231.859459 327.677838 
L 230.089946 328.844108 
L 228.601946 330.291892 
L 227.355243 331.940757 
L 226.390054 333.790703 
L 225.58573 336.002595 
L 225.103135 338.053622 
L 224.781405 340.144865 
L 224.459676 344.407784 
L 224.419459 351.365189 
L 224.821622 362.344216 
L 224.821622 362.344216 
" style="fill:none;stroke:#4c4ffc;stroke-linecap:square;stroke-width:1.5;"/>
   </g>
   <g id="line2d_82">
    <path clip-path="url(#p56f637b123)" d="M 402.175135 440.082162 
L 401.933838 440.162595 
L 401.893622 440.243027 
L 401.933838 440.082162 
L 402.054486 439.197405 
L 401.853405 437.669189 
L 401.129514 435.819243 
L 400.083892 434.089946 
L 398.877405 432.400865 
L 393.08627 425.081514 
L 387.657081 417.721946 
L 374.506378 399.343135 
L 374.586811 398.981189 
L 374.747676 398.860541 
L 375.350919 398.780108 
L 376.999784 399.021405 
L 379.010595 399.82573 
L 381.705081 401.836541 
L 381.82573 401.957189 
L 381.624649 401.876757 
L 381.463784 401.957189 
L 381.383351 402.037622 
L 381.785514 401.032216 
L 381.906162 400.026811 
L 381.865946 398.458378 
L 381.584432 396.970378 
L 380.136649 391.862919 
L 380.096432 390.736865 
L 380.297514 389.691243 
L 380.940973 388.323892 
L 382.268108 386.594595 
L 386.410378 382.492541 
L 386.772324 381.688216 
L 386.933189 380.763243 
L 386.852757 379.436108 
L 386.28973 377.304649 
L 385.445189 375.414486 
L 384.359351 373.604757 
L 382.992 371.634162 
L 378.809514 366.406054 
L 368.675027 354.622703 
L 364.331676 349.917405 
L 362.924108 348.59027 
L 361.556757 347.464216 
L 360.470919 346.740324 
L 359.385081 346.338162 
L 357.937297 346.25773 
L 355.966703 346.659892 
L 350.014703 349.273946 
L 348.566919 349.475027 
L 346.95827 349.273946 
L 345.068108 348.550054 
L 343.379027 347.464216 
L 341.730162 346.016432 
L 340.041081 344.246919 
L 337.145514 340.707892 
L 327.936 328.160432 
L 326.76973 326.350703 
L 325.724108 324.460541 
L 324.63827 322.248649 
L 323.029622 317.664 
L 321.702486 313.602162 
L 320.898162 311.631568 
L 319.973189 309.741405 
L 318.887351 307.931676 
L 317.479784 306.001297 
L 316.112432 304.473081 
L 314.423351 303.025297 
L 312.412541 301.899243 
L 310.441946 301.336216 
L 308.069189 301.054703 
L 305.656216 301.054703 
L 303.243243 300.934054 
L 300.790054 300.531892 
L 298.457514 299.767784 
L 296.486919 298.762378 
L 294.476108 297.395027 
L 292.626162 295.746162 
L 291.178378 294.17773 
L 289.609946 292.287568 
L 282.813405 283.319351 
L 280.561297 280.705297 
L 279.917838 280.14227 
L 280.038486 280.182486 
L 279.596108 279.981405 
L 278.309189 279.257514 
L 276.901622 278.252108 
L 275.494054 276.884757 
L 274.287568 275.436973 
L 273.20173 273.747892 
L 272.276757 271.978378 
L 271.432216 270.007784 
L 270.145297 265.986162 
L 268.617081 260.436324 
L 268.73773 259.993946 
L 269.059459 259.270054 
L 269.743135 258.425514 
L 270.869189 257.500541 
L 276.097297 254.966919 
L 276.539676 254.524541 
L 277.263568 253.35827 
L 277.585297 252.51373 
L 277.826595 251.427892 
L 277.947243 250.100757 
L 277.907027 248.411676 
L 277.705946 246.722595 
L 276.821189 242.499892 
L 274.770162 233.974054 
L 274.126703 231.963243 
L 273.362595 229.992649 
L 272.357189 227.820973 
L 271.351784 225.971027 
L 268.898595 222.230919 
L 267.330162 219.858162 
L 266.887784 218.933189 
L 266.767135 218.209297 
L 266.928 217.002811 
L 267.571459 215.434378 
L 268.818162 213.584432 
L 271.955027 210.045405 
L 272.035459 209.844324 
L 272.035459 209.964973 
L 271.794162 208.879135 
L 271.190919 207.712865 
L 269.944216 206.265081 
L 268.375784 204.978162 
L 266.60627 203.852108 
L 264.474811 202.726054 
L 258.361946 200.031568 
L 250.198054 196.653405 
L 245.653622 195.125189 
L 240.988541 193.999135 
L 236.243027 193.235027 
L 231.738811 192.712216 
L 224.499892 192.149189 
L 224.499892 192.149189 
" style="fill:none;stroke:#1996f3;stroke-linecap:square;stroke-width:1.5;"/>
   </g>
   <g id="line2d_83">
    <path clip-path="url(#p56f637b123)" d="M 224.821622 136.047568 
L 225.666162 136.087784 
L 227.435676 136.409514 
L 229.325838 137.213838 
L 231.216 138.581189 
L 232.623568 139.988757 
L 234.192 141.838703 
L 236.926703 145.498378 
L 243.843892 155.391568 
L 243.843892 155.79373 
L 243.723243 155.954595 
L 243.200432 156.155676 
L 241.672216 156.396973 
L 239.138595 156.195892 
L 236.806054 155.270919 
L 234.915892 154.144865 
L 233.628973 153.179676 
L 232.060541 151.530811 
L 232.181189 151.611243 
L 232.38227 151.571027 
L 232.462703 151.490595 
L 232.301838 151.852541 
L 232.181189 152.697081 
L 232.342054 154.30573 
L 232.905081 156.155676 
L 233.789838 158.045838 
L 236.082162 161.946811 
L 237.328865 163.957622 
L 238.092973 165.445622 
L 238.575568 166.772757 
L 238.656 168.019459 
L 238.33427 169.788973 
L 237.449514 171.799784 
L 234.956108 175.499676 
L 234.232216 177.148541 
L 234.031135 178.355027 
L 234.111568 180.044108 
L 234.755027 182.175568 
L 235.68 184.025514 
L 236.966919 185.996108 
L 239.661405 189.293838 
L 247.141622 197.699027 
L 251.686054 202.645622 
L 254.782703 205.661838 
L 255.828324 206.466162 
L 256.552216 206.828108 
L 257.276108 206.948757 
L 258.683676 206.868324 
L 260.614054 206.265081 
L 262.423784 205.219459 
L 264.112865 203.972757 
L 265.801946 203.007568 
L 267.048649 202.605405 
L 268.174703 202.524973 
L 269.58227 202.76627 
L 271.552865 203.570595 
L 273.523459 204.857514 
L 275.373405 206.506378 
L 276.861405 208.115027 
L 281.084108 213.343135 
L 286.955676 220.62227 
L 289.006703 222.914595 
L 288.845838 222.874378 
L 288.725189 222.874378 
L 289.087135 222.673297 
L 290.172973 221.386378 
L 290.856649 220.662486 
L 291.419676 220.742919 
L 292.183784 221.024432 
L 292.907676 221.466811 
L 293.953297 222.512432 
L 294.275027 223.155892 
L 294.476108 224.000432 
L 294.395676 225.327568 
L 293.631568 227.338378 
L 292.304432 229.469838 
L 289.449081 233.491459 
L 289.167568 233.974054 
L 289.167568 233.933838 
L 289.167568 234.255568 
L 289.368649 235.421838 
L 290.253405 237.151135 
L 291.500108 238.8 
L 294.717405 241.977081 
L 298.055351 245.07373 
L 301.353081 248.612757 
L 305.535568 253.116973 
L 306.621405 254.122378 
L 307.908324 255.047351 
L 309.114811 255.771243 
L 310.562595 256.294054 
L 312.251676 256.575568 
L 314.302703 256.575568 
L 321.099243 255.48973 
L 323.069838 255.48973 
L 324.879568 255.771243 
L 327.011027 256.535351 
L 328.901189 257.540757 
L 330.871784 258.988541 
L 332.440216 260.476541 
L 334.089081 262.28627 
L 337.024865 266.106811 
L 340.805189 271.656649 
L 344.585514 277.528216 
L 350.617946 287.662703 
L 358.620973 301.296 
L 365.538162 313.079351 
L 367.79027 316.739027 
L 369.760865 319.433514 
L 370.323892 319.956324 
L 370.806486 320.197622 
L 371.530378 320.31827 
L 373.139027 320.036757 
L 375.23027 319.071568 
L 378.568216 316.49773 
L 379.855135 315.773838 
L 380.297514 315.85427 
L 381.18227 316.336865 
L 382.469189 317.462919 
L 383.635459 319.031351 
L 384.80173 321.203027 
L 386.410378 325.506162 
L 388.421189 331.940757 
L 389.667892 336.042811 
L 391.316757 342.276324 
L 392.24173 347.021838 
L 392.925405 351.56627 
L 393.689514 358.483459 
L 393.850378 360.896432 
L 393.850378 360.896432 
" style="fill:none;stroke:#1acee3;stroke-linecap:square;stroke-width:1.5;"/>
   </g>
   <g id="line2d_84">
    <path clip-path="url(#p56f637b123)" d="M 450.032432 304.955676 
L 449.791135 305.036108 
L 449.670486 305.237189 
L 449.670486 305.357838 
L 449.63027 305.116541 
L 449.228108 304.432865 
L 448.262919 303.467676 
L 446.774919 302.542703 
L 444.603243 301.698162 
L 442.632649 301.175351 
L 438.249081 300.330811 
L 431.613405 299.124324 
L 415.607351 295.705946 
L 384.439784 289.030054 
L 377.884541 287.58227 
L 368.956541 285.692108 
L 357.977514 283.319351 
L 344.344216 280.383568 
L 318.485189 274.83373 
L 318.404757 274.753297 
L 318.002595 273.667459 
L 317.680865 271.536 
L 318.002595 269.042595 
L 319.369946 264.980757 
L 319.369946 265.061189 
L 319.32973 264.739459 
L 319.048216 264.055784 
L 318.565622 263.251459 
L 317.158054 261.642811 
L 316.514595 260.959135 
L 315.951568 260.154811 
L 315.348324 258.948324 
L 314.86573 257.219027 
L 314.704865 255.127784 
L 314.664649 252.875676 
L 314.503784 251.106162 
L 314.262486 249.779027 
L 313.860324 248.733405 
L 313.096216 247.446486 
L 312.010378 246.119351 
L 310.441946 244.711784 
L 308.712649 243.545514 
L 306.902919 242.459676 
L 300.910703 239.523892 
L 298.658595 238.719568 
L 296.768432 238.438054 
L 296.728216 238.438054 
L 296.084757 238.8 
L 294.556541 240.247784 
L 293.510919 242.017297 
L 292.867459 244.229189 
L 292.706595 246.320432 
L 292.626162 246.159568 
L 293.792432 247.285622 
L 293.792432 247.526919 
L 293.470703 248.089946 
L 292.425081 249.216 
L 290.736 250.301838 
L 288.443676 251.226811 
L 286.352432 251.789838 
L 277.183135 253.398486 
L 274.890811 254.082162 
L 273.161514 254.725622 
L 272.236541 255.208216 
L 271.512649 255.731027 
L 270.869189 256.454919 
L 270.185514 257.701622 
L 269.58227 259.591784 
L 268.295351 266.267676 
L 268.09427 266.710054 
L 267.651892 266.991568 
L 266.244324 267.313297 
L 264.153081 267.112216 
L 258.080432 265.141622 
L 256.109838 264.900324 
L 253.897946 265.141622 
L 252.007784 265.865514 
L 250.278486 267.031784 
L 248.870919 268.23827 
L 247.061189 269.525189 
L 245.050378 270.450162 
L 242.918919 270.972973 
L 240.747243 271.133838 
L 238.294054 270.972973 
L 235.881081 270.490378 
L 233.548541 269.766486 
L 231.256216 268.88173 
L 226.912865 266.75027 
L 223.132541 264.699243 
L 217.341405 261.280865 
L 195.624649 248.009514 
L 195.624649 248.009514 
" style="fill:none;stroke:#4df3ce;stroke-linecap:square;stroke-width:1.5;"/>
   </g>
   <g id="line2d_85">
    <path clip-path="url(#p56f637b123)" d="M 140.367568 248.652973 
L 143.263135 248.693189 
L 145.676108 248.773622 
L 151.065081 249.256216 
L 232.301838 258.345081 
L 240.867892 259.109189 
L 247.26227 259.511351 
L 253.978378 259.792865 
L 262.544432 259.873297 
L 269.501838 259.792865 
L 282.612324 259.390703 
L 287.196973 259.430919 
L 291.218595 259.752649 
L 291.379459 259.913514 
L 291.500108 260.436324 
L 291.459892 261.884108 
L 290.655568 263.894919 
L 288.041514 267.715459 
L 288.041514 267.594811 
L 288.001297 267.514378 
L 288.121946 267.635027 
L 288.684973 267.996973 
L 289.650162 268.157838 
L 291.459892 268.037189 
L 295.320649 267.433946 
L 297.934703 266.951351 
L 301.715027 268.117622 
L 302.800865 268.117622 
L 304.489946 267.594811 
L 306.018162 266.589405 
L 307.42573 265.020973 
L 309.516973 261.843892 
L 310.361514 260.878703 
L 311.688649 260.074378 
L 313.900541 259.430919 
L 320.616649 258.666811 
L 329.625081 257.219027 
L 332.842378 256.937514 
L 333.324973 256.736432 
L 334.611892 255.771243 
L 337.949838 252.795243 
L 339.558486 251.950703 
L 341.207351 251.508324 
L 343.298595 251.387676 
L 345.711568 251.709405 
L 348.084324 252.393081 
L 350.135351 253.157189 
L 354.277622 255.127784 
L 360.430703 258.385297 
L 368.192432 262.648216 
L 393.287351 276.563027 
L 393.287351 276.563027 
" style="fill:none;stroke:#80ffb4;stroke-linecap:square;stroke-width:1.5;"/>
   </g>
   <g id="line2d_86">
    <path clip-path="url(#p56f637b123)" d="M 281.124324 192.35027 
L 281.446054 192.390486 
L 282.12973 192.631784 
L 282.773189 193.114378 
L 283.456865 193.958919 
L 284.301405 195.728432 
L 284.864432 197.739243 
L 285.10573 199.589189 
L 285.186162 201.720649 
L 285.186162 204.133622 
L 285.10573 206.305297 
L 284.985081 208.71827 
L 284.904649 211.131243 
L 284.784 213.544216 
L 284.703568 215.675676 
L 284.582919 218.088649 
L 284.46227 220.501622 
L 284.301405 222.914595 
L 284.180757 225.046054 
L 284.060108 227.177514 
L 283.899243 229.590486 
L 283.738378 232.003459 
L 283.61773 234.416432 
L 283.497081 236.829405 
L 283.416649 239.242378 
L 283.336216 241.615135 
L 283.255784 244.028108 
L 283.215568 246.441081 
L 283.135135 248.612757 
L 283.094919 251.02573 
L 283.014486 253.438703 
L 282.97427 255.851676 
L 282.934054 258.264649 
L 282.853622 260.396108 
L 282.813405 262.527568 
L 282.773189 264.699243 
L 282.692757 266.830703 
L 282.652541 269.243676 
L 282.612324 271.133838 
L 282.572108 273.265297 
L 282.491676 275.396757 
L 282.451459 277.568432 
L 282.411243 279.981405 
L 282.330811 282.112865 
L 282.290595 284.244324 
L 282.250378 286.375784 
L 282.210162 288.547459 
L 282.12973 290.678919 
L 282.089514 292.810378 
L 282.049297 295.223351 
L 281.968865 297.395027 
L 281.968865 299.526486 
L 281.928649 301.657946 
L 281.928649 304.070919 
L 281.928649 306.483892 
L 281.968865 308.615351 
L 282.049297 311.028324 
L 282.089514 313.2 
L 282.089514 315.331459 
L 282.089514 317.744432 
L 282.049297 320.157405 
L 281.968865 322.570378 
L 281.888432 324.742054 
L 281.727568 327.155027 
L 281.566703 329.286486 
L 281.365622 331.699459 
L 281.164541 333.830919 
" style="fill:none;stroke:#b3f396;stroke-linecap:square;stroke-width:1.5;"/>
   </g>
   <g id="line2d_87">
    <path clip-path="url(#p56f637b123)" d="M 140.367568 304.955676 
L 143.785946 304.875243 
L 146.158703 304.714378 
L 150.662919 304.111135 
L 189.753081 297.395027 
L 196.911568 296.148324 
L 234.714811 289.834378 
L 247.744865 288.185514 
L 275.775568 285.491027 
L 296.124973 284.284541 
L 300.910703 283.76173 
L 304.208432 283.238919 
L 304.691027 283.76173 
L 305.575784 285.330162 
L 306.661622 287.622486 
L 306.540973 287.501838 
L 306.742054 287.622486 
L 307.908324 287.944216 
L 308.511568 287.984432 
L 310.039784 287.743135 
L 310.924541 287.340973 
L 311.849514 286.777946 
L 312.774486 285.973622 
L 314.22227 284.244324 
L 315.348324 282.876973 
L 315.911351 282.434595 
L 316.635243 282.072649 
L 317.640649 281.871568 
L 317.640649 281.871568 
L 318.766703 282.032432 
L 318.565622 282.072649 
L 318.404757 282.193297 
L 318.525405 281.911784 
L 318.646054 281.147676 
L 318.525405 280.182486 
L 318.123243 279.177081 
L 317.278703 277.970595 
L 316.072216 276.764108 
L 314.22227 275.517405 
L 312.332108 274.672865 
L 310.361514 274.150054 
L 308.833297 274.029405 
L 307.868108 274.19027 
L 307.948541 274.109838 
L 307.988757 274.029405 
L 307.948541 274.351135 
L 308.109405 275.235892 
L 308.109405 275.235892 
" style="fill:none;stroke:#e6ce74;stroke-linecap:square;stroke-width:1.5;"/>
   </g>
   <g id="line2d_88">
    <path clip-path="url(#p56f637b123)" d="M 393.72973 220.501622 
L 393.971027 220.582054 
L 394.091676 220.783135 
L 394.091676 220.944 
L 393.850378 221.466811 
L 393.046054 222.432 
L 391.638486 223.558054 
L 389.466811 224.643892 
L 387.456 225.367784 
L 383.032216 226.373189 
L 378.930162 227.298162 
L 377.522595 227.740541 
L 377.603027 227.700324 
L 377.442162 227.941622 
L 377.200865 228.947027 
L 377.241081 230.837189 
L 377.763892 232.848 
L 379.292108 236.467459 
L 379.493189 237.352216 
L 379.452973 238.076108 
L 379.171459 238.920649 
L 378.487784 239.926054 
L 377.321514 241.011892 
L 375.672649 242.017297 
L 373.420541 242.94227 
L 371.047784 243.625946 
L 362.361081 245.395459 
L 353.634162 247.004108 
L 333.445622 249.939892 
L 306.742054 253.639784 
L 306.460541 253.639784 
L 306.219243 253.438703 
L 305.93773 252.51373 
L 305.656216 250.060541 
L 306.179027 244.671568 
L 306.219243 244.752 
L 306.018162 244.470486 
L 305.133405 243.786811 
L 303.363892 242.94227 
L 301.47373 242.419459 
L 299.422703 242.218378 
L 297.331459 242.218378 
L 290.736 242.540108 
L 281.647135 242.620541 
L 277.384216 242.94227 
L 272.035459 243.746595 
L 272.236541 243.625946 
L 272.276757 243.505297 
L 272.276757 243.746595 
L 272.357189 244.470486 
L 272.960432 245.837838 
L 275.172324 249.256216 
L 275.091892 249.980108 
L 274.528865 251.387676 
L 273.040865 253.398486 
L 269.743135 256.012541 
L 268.938811 257.098378 
L 268.255135 258.747243 
L 268.013838 261.039568 
L 268.657297 265.543784 
L 268.617081 267.112216 
L 268.416 268.037189 
L 267.893189 269.123027 
L 266.887784 270.329514 
L 265.480216 271.495784 
L 263.710703 272.501189 
L 261.458595 273.426162 
L 259.407568 273.989189 
L 254.662054 274.954378 
L 250.157838 275.67827 
L 242.959135 276.563027 
L 238.374486 276.884757 
L 233.830054 277.085838 
L 227.113946 277.126054 
L 197.353946 277.045622 
L 190.919351 277.005405 
L 167.312432 276.924973 
L 156.333405 276.844541 
L 139.965405 276.804324 
L 139.965405 276.804324 
" style="fill:none;stroke:#ff964f;stroke-linecap:square;stroke-width:1.5;"/>
   </g>
   <g id="line2d_89">
    <path clip-path="url(#p56f637b123)" d="M 140.367568 136.047568 
L 141.212108 136.047568 
L 143.343568 136.329081 
L 145.595676 137.052973 
L 147.686919 138.219243 
L 149.416216 139.506162 
L 151.225946 141.114811 
L 152.754162 142.643027 
L 154.403027 144.372324 
L 155.891027 145.980973 
L 157.539892 147.750486 
L 158.987676 149.318919 
L 160.435459 150.847135 
L 162.084324 152.616649 
L 163.733189 154.386162 
L 165.42227 156.115459 
L 167.071135 157.884973 
L 168.559135 159.453405 
L 170.006919 161.021838 
L 171.494919 162.550054 
L 173.143784 164.319568 
L 174.792649 166.089081 
L 176.441514 167.858595 
L 178.050162 169.668324 
L 179.578378 171.51827 
L 180.825081 173.126919 
L 182.192432 175.13773 
L 183.27827 177.027892 
L 184.283676 179.239784 
L 185.088 181.210378 
L 185.811892 183.221189 
L 186.777081 185.433081 
L 187.782486 187.283027 
L 189.069405 189.293838 
L 190.356324 190.942703 
L 191.924757 192.752432 
L 193.412757 194.280649 
L 194.940973 195.808865 
L 196.509405 197.256649 
L 198.077838 198.704432 
L 199.686486 200.112 
L 201.295135 201.519568 
L 203.185297 203.007568 
L 204.874378 204.25427 
L 206.684108 205.380324 
L 208.775351 206.466162 
L 210.987243 207.391135 
L 212.716541 207.994378 
L 214.928432 208.71827 
L 216.939243 209.482378 
L 218.869622 210.407351 
L 220.960865 211.69427 
L 222.931459 213.142054 
L 224.580324 214.589838 
L 226.028108 216.037622 
L 227.717189 217.807135 
L 229.325838 219.616865 
L 230.89427 221.426595 
L 232.221405 223.115676 
L 233.709405 225.046054 
L 234.996324 226.775351 
L 236.323459 228.826378 
L 237.409297 230.716541 
L 238.454919 232.888216 
L 239.379892 235.140324 
L 240.184216 237.432649 
L 240.908108 239.443459 
L 241.712432 241.373838 
L 242.717838 243.545514 
L 243.723243 245.315027 
L 244.28627 246.400865 
L 244.648216 247.164973 
L 244.809081 247.808432 
L 244.849297 248.492108 
L 244.849297 249.135568 
L 244.849297 249.738811 
L 244.849297 249.819243 
L 244.809081 249.738811 
L 244.768865 249.658378 
L 244.728649 249.577946 
L 245.010162 249.779027 
L 245.854703 250.181189 
L 246.900324 250.38227 
L 248.348108 250.38227 
L 250.037189 249.899676 
L 252.128432 248.854054 
L 253.777297 247.607351 
" style="fill:none;stroke:#ff4f28;stroke-linecap:square;stroke-width:1.5;"/>
   </g>
   <g id="line2d_90">
    <path clip-path="url(#p56f637b123)" d="M 337.427027 164.198919 
L 337.628108 164.279351 
L 337.748757 164.4 
L 337.909622 165.003243 
L 337.909622 166.451027 
L 337.467243 168.260757 
L 336.622703 170.150919 
L 335.496649 172.000865 
L 332.802162 175.580108 
L 328.458811 181.049514 
L 323.351351 187.926486 
L 318.083027 195.044757 
L 312.372324 202.484757 
L 309.677838 205.702054 
L 308.350703 206.908541 
L 308.27027 206.908541 
L 307.465946 206.667243 
L 305.817081 205.702054 
L 304.087784 203.892324 
L 302.117189 200.554378 
L 301.755243 200.112 
L 301.916108 200.232649 
L 301.47373 200.152216 
L 300.468324 200.232649 
L 299.141189 200.675027 
L 297.452108 201.6 
L 295.964108 202.685838 
L 294.395676 204.053189 
L 291.258811 207.350919 
L 285.226378 214.549622 
L 281.124324 219.817946 
L 277.142919 225.528649 
L 274.649514 229.308973 
L 266.003027 242.620541 
L 264.836757 244.752 
L 264.072649 246.521514 
L 263.63027 248.291027 
L 263.670486 250.543135 
L 264.394378 252.714811 
L 266.726919 256.857081 
L 267.450811 258.626595 
L 267.692108 259.833081 
L 267.531243 261.240649 
L 266.646486 263.251459 
L 265.078054 265.181838 
L 259.930378 269.525189 
L 258.563027 271.133838 
L 256.150054 274.632649 
L 254.501189 276.402162 
L 252.570811 277.528216 
L 247.986162 279.056432 
L 245.894919 280.061838 
L 244.165622 281.268324 
L 242.597189 282.675892 
L 241.189622 284.244324 
L 238.454919 287.863784 
L 222.086919 311.712 
L 216.899027 319.232432 
L 211.791568 326.793081 
L 210.182919 329.487568 
L 210.102486 330.050595 
L 210.866595 330.774486 
L 212.837189 331.619027 
L 218.14573 332.624432 
L 218.387027 333.267892 
L 218.547892 334.434162 
L 218.427243 335.881946 
L 217.864216 337.852541 
L 217.019676 339.863351 
L 215.974054 341.79373 
L 214.646919 343.844757 
L 208.976432 351.646703 
L 204.673297 357.156324 
L 201.415784 360.735568 
L 198.319135 363.751784 
L 194.940973 366.808216 
L 191.643243 369.583135 
L 188.184649 372.197189 
L 186.415135 373.363459 
L 182.152216 375.736216 
L 178.251243 377.545946 
L 176.320865 378.511135 
L 174.310054 379.757838 
L 172.419892 381.205622 
L 170.891676 382.653405 
L 169.363459 384.463135 
L 168.036324 386.43373 
L 166.990703 388.524973 
L 166.307027 390.535784 
L 166.307027 390.535784 
" style="fill:none;stroke:#ff0000;stroke-linecap:square;stroke-width:1.5;"/>
   </g>
   <g id="patch_3">
    <path d="M 72 512.64 
L 72 69.12 
" style="fill:none;stroke:#000000;stroke-linecap:square;stroke-linejoin:miter;stroke-width:0.8;"/>
   </g>
   <g id="patch_4">
    <path d="M 518.4 512.64 
L 518.4 69.12 
" style="fill:none;stroke:#000000;stroke-linecap:square;stroke-linejoin:miter;stroke-width:0.8;"/>
   </g>
   <g id="patch_5">
    <path d="M 72 512.64 
L 518.4 512.64 
" style="fill:none;stroke:#000000;stroke-linecap:square;stroke-linejoin:miter;stroke-width:0.8;"/>
   </g>
   <g id="patch_6">
    <path d="M 72 69.12 
L 518.4 69.12 
" style="fill:none;stroke:#000000;stroke-linecap:square;stroke-linejoin:miter;stroke-width:0.8;"/>
   </g>
   <g id="text_13">
    <!-- 1 -->
    <defs>
     <path d="M 14.203125 0 
L 14.203125 5.171875 
L 26.90625 5.171875 
L 26.90625 65.828125 
L 12.203125 56.296875 
L 12.203125 62.703125 
L 29.984375 74.21875 
L 36.71875 74.21875 
L 36.71875 5.171875 
L 49.421875 5.171875 
L 49.421875 0 
z
" id="DejaVuSerif-31"/>
    </defs>
    <g transform="translate(137.186318 389.40973)scale(0.1 -0.1)">
     <use xlink:href="#DejaVuSerif-31"/>
    </g>
   </g>
   <g id="text_14">
    <!-- 1 -->
    <g transform="translate(390.54848 192.35027)scale(0.1 -0.1)">
     <use xlink:href="#DejaVuSerif-31"/>
    </g>
   </g>
   <g id="text_15">
    <!-- 2 -->
    <defs>
     <path d="M 12.796875 55.515625 
L 7.328125 55.515625 
L 7.328125 68.5 
Q 12.546875 71.296875 17.84375 72.75 
Q 23.140625 74.21875 28.21875 74.21875 
Q 39.59375 74.21875 46.1875 68.703125 
Q 52.78125 63.1875 52.78125 53.71875 
Q 52.78125 43.015625 37.84375 28.125 
Q 36.671875 27 36.078125 26.421875 
L 17.671875 8.015625 
L 48.09375 8.015625 
L 48.09375 17 
L 53.8125 17 
L 53.8125 0 
L 6.78125 0 
L 6.78125 5.328125 
L 28.90625 27.390625 
Q 36.234375 34.71875 39.359375 40.84375 
Q 42.484375 46.96875 42.484375 53.71875 
Q 42.484375 61.078125 38.640625 65.234375 
Q 34.8125 69.390625 28.078125 69.390625 
Q 21.09375 69.390625 17.28125 65.921875 
Q 13.484375 62.453125 12.796875 55.515625 
z
" id="DejaVuSerif-32"/>
    </defs>
    <g transform="translate(446.851182 192.35027)scale(0.1 -0.1)">
     <use xlink:href="#DejaVuSerif-32"/>
    </g>
   </g>
   <g id="text_16">
    <!-- 2 -->
    <g transform="translate(221.640372 361.258378)scale(0.1 -0.1)">
     <use xlink:href="#DejaVuSerif-32"/>
    </g>
   </g>
   <g id="text_17">
    <!-- 3 -->
    <defs>
     <path d="M 9.71875 69.828125 
Q 15.4375 71.96875 20.671875 73.09375 
Q 25.921875 74.21875 30.515625 74.21875 
Q 41.21875 74.21875 47.21875 69.59375 
Q 53.21875 64.984375 53.21875 56.78125 
Q 53.21875 50.203125 49.0625 45.78125 
Q 44.921875 41.359375 37.3125 39.796875 
Q 46.296875 38.53125 51.25 33.28125 
Q 56.203125 28.03125 56.203125 19.671875 
Q 56.203125 9.46875 49.34375 4.015625 
Q 42.484375 -1.421875 29.59375 -1.421875 
Q 23.875 -1.421875 18.421875 -0.1875 
Q 12.984375 1.03125 7.625 3.515625 
L 7.625 17.671875 
L 13.09375 17.671875 
Q 13.578125 10.640625 17.828125 7.03125 
Q 22.078125 3.421875 29.78125 3.421875 
Q 37.25 3.421875 41.578125 7.734375 
Q 45.90625 12.0625 45.90625 19.578125 
Q 45.90625 28.171875 41.453125 32.59375 
Q 37.015625 37.015625 28.421875 37.015625 
L 23.78125 37.015625 
L 23.78125 42 
L 26.21875 42 
Q 34.765625 42 39.03125 45.53125 
Q 43.3125 49.078125 43.3125 56.203125 
Q 43.3125 62.59375 39.796875 65.984375 
Q 36.28125 69.390625 29.6875 69.390625 
Q 23.09375 69.390625 19.453125 66.265625 
Q 15.828125 63.140625 15.1875 56.984375 
L 9.71875 56.984375 
z
" id="DejaVuSerif-33"/>
    </defs>
    <g transform="translate(398.993885 440.082162)scale(0.1 -0.1)">
     <use xlink:href="#DejaVuSerif-33"/>
    </g>
   </g>
   <g id="text_18">
    <!-- 3 -->
    <g transform="translate(221.640372 192.35027)scale(0.1 -0.1)">
     <use xlink:href="#DejaVuSerif-33"/>
    </g>
   </g>
   <g id="text_19">
    <!-- 4 -->
    <defs>
     <path d="M 34.90625 24.703125 
L 34.90625 63.484375 
L 10.015625 24.703125 
z
M 56.390625 0 
L 23.1875 0 
L 23.1875 5.171875 
L 34.90625 5.171875 
L 34.90625 19.484375 
L 3.078125 19.484375 
L 3.078125 24.8125 
L 35.015625 74.21875 
L 44.671875 74.21875 
L 44.671875 24.703125 
L 58.59375 24.703125 
L 58.59375 19.484375 
L 44.671875 19.484375 
L 44.671875 5.171875 
L 56.390625 5.171875 
z
" id="DejaVuSerif-34"/>
    </defs>
    <g transform="translate(221.640372 136.047568)scale(0.1 -0.1)">
     <use xlink:href="#DejaVuSerif-34"/>
    </g>
   </g>
   <g id="text_20">
    <!-- 4 -->
    <g transform="translate(390.54848 361.258378)scale(0.1 -0.1)">
     <use xlink:href="#DejaVuSerif-34"/>
    </g>
   </g>
   <g id="text_21">
    <!-- 5 -->
    <defs>
     <path d="M 50.296875 72.90625 
L 50.296875 64.890625 
L 16.890625 64.890625 
L 16.890625 44 
Q 19.4375 45.75 22.828125 46.625 
Q 26.21875 47.515625 30.421875 47.515625 
Q 42.234375 47.515625 49.0625 40.96875 
Q 55.90625 34.421875 55.90625 23.09375 
Q 55.90625 11.53125 49 5.046875 
Q 42.09375 -1.421875 29.59375 -1.421875 
Q 24.5625 -1.421875 19.28125 -0.1875 
Q 14.015625 1.03125 8.5 3.515625 
L 8.5 17.671875 
L 14.015625 17.671875 
Q 14.453125 10.75 18.421875 7.078125 
Q 22.40625 3.421875 29.59375 3.421875 
Q 37.3125 3.421875 41.453125 8.5 
Q 45.609375 13.578125 45.609375 23.09375 
Q 45.609375 32.5625 41.484375 37.609375 
Q 37.359375 42.671875 29.59375 42.671875 
Q 25.203125 42.671875 21.84375 41.109375 
Q 18.5 39.546875 15.921875 36.28125 
L 11.71875 36.28125 
L 11.71875 72.90625 
z
" id="DejaVuSerif-35"/>
    </defs>
    <g transform="translate(446.851182 304.955676)scale(0.1 -0.1)">
     <use xlink:href="#DejaVuSerif-35"/>
    </g>
   </g>
   <g id="text_22">
    <!-- 5 -->
    <g transform="translate(193.48902 248.652973)scale(0.1 -0.1)">
     <use xlink:href="#DejaVuSerif-35"/>
    </g>
   </g>
   <g id="text_23">
    <!-- 6 -->
    <defs>
     <path d="M 32.71875 3.421875 
Q 39.59375 3.421875 43.296875 8.46875 
Q 47.015625 13.53125 47.015625 23 
Q 47.015625 32.46875 43.296875 37.515625 
Q 39.59375 42.578125 32.71875 42.578125 
Q 25.734375 42.578125 22.0625 37.6875 
Q 18.40625 32.8125 18.40625 23.578125 
Q 18.40625 13.875 22.109375 8.640625 
Q 25.828125 3.421875 32.71875 3.421875 
z
M 16.796875 40.140625 
Q 20.125 43.796875 24.3125 45.59375 
Q 28.515625 47.40625 33.796875 47.40625 
Q 44.671875 47.40625 51 40.859375 
Q 57.328125 34.328125 57.328125 23 
Q 57.328125 11.921875 50.515625 5.25 
Q 43.703125 -1.421875 32.328125 -1.421875 
Q 19.96875 -1.421875 13.328125 7.78125 
Q 6.6875 17 6.6875 34.078125 
Q 6.6875 53.21875 14.546875 63.71875 
Q 22.40625 74.21875 36.71875 74.21875 
Q 40.578125 74.21875 44.828125 73.484375 
Q 49.078125 72.75 53.515625 71.296875 
L 53.515625 59.28125 
L 48 59.28125 
Q 47.40625 64.203125 44.234375 66.796875 
Q 41.0625 69.390625 35.6875 69.390625 
Q 26.21875 69.390625 21.578125 62.203125 
Q 16.9375 55.03125 16.796875 40.140625 
z
" id="DejaVuSerif-36"/>
    </defs>
    <g transform="translate(137.186318 248.652973)scale(0.1 -0.1)">
     <use xlink:href="#DejaVuSerif-36"/>
    </g>
   </g>
   <g id="text_24">
    <!-- 6 -->
    <g transform="translate(390.54848 276.804324)scale(0.1 -0.1)">
     <use xlink:href="#DejaVuSerif-36"/>
    </g>
   </g>
   <g id="text_25">
    <!-- 7 -->
    <defs>
     <path d="M 56.390625 67.921875 
L 27.875 0 
L 20.609375 0 
L 47.796875 64.890625 
L 14.109375 64.890625 
L 14.109375 55.90625 
L 8.40625 55.90625 
L 8.40625 72.90625 
L 56.390625 72.90625 
z
" id="DejaVuSerif-37"/>
    </defs>
    <g transform="translate(277.943074 192.35027)scale(0.1 -0.1)">
     <use xlink:href="#DejaVuSerif-37"/>
    </g>
   </g>
   <g id="text_26">
    <!-- 7 -->
    <g transform="translate(277.943074 333.107027)scale(0.1 -0.1)">
     <use xlink:href="#DejaVuSerif-37"/>
    </g>
   </g>
   <g id="text_27">
    <!-- 8 -->
    <defs>
     <path d="M 46.578125 19.921875 
Q 46.578125 27.734375 42.6875 32.046875 
Q 38.8125 36.375 31.78125 36.375 
Q 24.75 36.375 20.875 32.046875 
Q 17 27.734375 17 19.921875 
Q 17 12.0625 20.875 7.734375 
Q 24.75 3.421875 31.78125 3.421875 
Q 38.8125 3.421875 42.6875 7.734375 
Q 46.578125 12.0625 46.578125 19.921875 
z
M 44.578125 55.328125 
Q 44.578125 61.96875 41.203125 65.671875 
Q 37.84375 69.390625 31.78125 69.390625 
Q 25.78125 69.390625 22.390625 65.671875 
Q 19 61.96875 19 55.328125 
Q 19 48.640625 22.390625 44.921875 
Q 25.78125 41.21875 31.78125 41.21875 
Q 37.84375 41.21875 41.203125 44.921875 
Q 44.578125 48.640625 44.578125 55.328125 
z
M 39.3125 38.8125 
Q 47.609375 37.703125 52.25 32.6875 
Q 56.890625 27.6875 56.890625 19.921875 
Q 56.890625 9.671875 50.390625 4.125 
Q 43.890625 -1.421875 31.78125 -1.421875 
Q 19.734375 -1.421875 13.203125 4.125 
Q 6.6875 9.671875 6.6875 19.921875 
Q 6.6875 27.6875 11.328125 32.6875 
Q 15.96875 37.703125 24.3125 38.8125 
Q 16.9375 40.140625 13 44.40625 
Q 9.078125 48.6875 9.078125 55.328125 
Q 9.078125 64.109375 15.125 69.15625 
Q 21.1875 74.21875 31.78125 74.21875 
Q 42.390625 74.21875 48.4375 69.15625 
Q 54.5 64.109375 54.5 55.328125 
Q 54.5 48.6875 50.5625 44.40625 
Q 46.625 40.140625 39.3125 38.8125 
z
" id="DejaVuSerif-38"/>
    </defs>
    <g transform="translate(137.186318 304.955676)scale(0.1 -0.1)">
     <use xlink:href="#DejaVuSerif-38"/>
    </g>
   </g>
   <g id="text_28">
    <!-- 8 -->
    <g transform="translate(306.094426 276.804324)scale(0.1 -0.1)">
     <use xlink:href="#DejaVuSerif-38"/>
    </g>
   </g>
   <g id="text_29">
    <!-- 9 -->
    <defs>
     <path d="M 46.78125 32.671875 
Q 43.5 29 39.25 27.1875 
Q 35.015625 25.390625 29.6875 25.390625 
Q 18.84375 25.390625 12.5625 31.9375 
Q 6.296875 38.484375 6.296875 49.8125 
Q 6.296875 60.890625 13.109375 67.546875 
Q 19.921875 74.21875 31.296875 74.21875 
Q 43.65625 74.21875 50.265625 65.015625 
Q 56.890625 55.8125 56.890625 38.71875 
Q 56.890625 19.578125 49.015625 9.078125 
Q 41.15625 -1.421875 26.90625 -1.421875 
Q 23.046875 -1.421875 18.796875 -0.6875 
Q 14.546875 0.046875 10.109375 1.515625 
L 10.109375 13.625 
L 15.578125 13.625 
Q 16.21875 8.6875 19.390625 6.046875 
Q 22.5625 3.421875 27.875 3.421875 
Q 37.359375 3.421875 41.984375 10.5625 
Q 46.625 17.71875 46.78125 32.671875 
z
M 30.90625 69.390625 
Q 23.96875 69.390625 20.28125 64.328125 
Q 16.609375 59.28125 16.609375 49.8125 
Q 16.609375 40.328125 20.28125 35.25 
Q 23.96875 30.171875 30.90625 30.171875 
Q 37.84375 30.171875 41.53125 35.078125 
Q 45.21875 39.984375 45.21875 49.21875 
Q 45.21875 58.9375 41.5 64.15625 
Q 37.796875 69.390625 30.90625 69.390625 
z
" id="DejaVuSerif-39"/>
    </defs>
    <g transform="translate(390.54848 220.501622)scale(0.1 -0.1)">
     <use xlink:href="#DejaVuSerif-39"/>
    </g>
   </g>
   <g id="text_30">
    <!-- 9 -->
    <g transform="translate(137.186318 276.804324)scale(0.1 -0.1)">
     <use xlink:href="#DejaVuSerif-39"/>
    </g>
   </g>
   <g id="text_31">
    <!-- 10 -->
    <defs>
     <path d="M 31.78125 3.421875 
Q 39.265625 3.421875 42.96875 11.625 
Q 46.6875 19.828125 46.6875 36.375 
Q 46.6875 52.984375 42.96875 61.1875 
Q 39.265625 69.390625 31.78125 69.390625 
Q 24.3125 69.390625 20.59375 61.1875 
Q 16.890625 52.984375 16.890625 36.375 
Q 16.890625 19.828125 20.59375 11.625 
Q 24.3125 3.421875 31.78125 3.421875 
z
M 31.78125 -1.421875 
Q 19.921875 -1.421875 13.25 8.53125 
Q 6.59375 18.5 6.59375 36.375 
Q 6.59375 54.296875 13.25 64.25 
Q 19.921875 74.21875 31.78125 74.21875 
Q 43.703125 74.21875 50.34375 64.25 
Q 56.984375 54.296875 56.984375 36.375 
Q 56.984375 18.5 50.34375 8.53125 
Q 43.703125 -1.421875 31.78125 -1.421875 
z
" id="DejaVuSerif-30"/>
    </defs>
    <g transform="translate(134.005068 136.047568)scale(0.1 -0.1)">
     <use xlink:href="#DejaVuSerif-31"/>
     <use x="63.623047" xlink:href="#DejaVuSerif-30"/>
    </g>
   </g>
   <g id="text_32">
    <!-- 10 -->
    <g transform="translate(246.610473 248.652973)scale(0.1 -0.1)">
     <use xlink:href="#DejaVuSerif-31"/>
     <use x="63.623047" xlink:href="#DejaVuSerif-30"/>
    </g>
   </g>
   <g id="text_33">
    <!-- 11 -->
    <g transform="translate(331.064527 164.198919)scale(0.1 -0.1)">
     <use xlink:href="#DejaVuSerif-31"/>
     <use x="63.623047" xlink:href="#DejaVuSerif-31"/>
    </g>
   </g>
   <g id="text_34">
    <!-- 11 -->
    <g transform="translate(162.156419 389.40973)scale(0.1 -0.1)">
     <use xlink:href="#DejaVuSerif-31"/>
     <use x="63.623047" xlink:href="#DejaVuSerif-31"/>
    </g>
   </g>
   <g id="text_35">
    <!-- MRPP -->
    <defs>
     <path d="M 9.8125 72.90625 
L 24.515625 72.90625 
L 43.109375 23.296875 
L 61.8125 72.90625 
L 76.515625 72.90625 
L 76.515625 0 
L 66.890625 0 
L 66.890625 64.015625 
L 48.09375 14.015625 
L 38.1875 14.015625 
L 19.390625 64.015625 
L 19.390625 0 
L 9.8125 0 
z
" id="DejaVuSans-4d"/>
     <path d="M 44.390625 34.1875 
Q 47.5625 33.109375 50.5625 29.59375 
Q 53.5625 26.078125 56.59375 19.921875 
L 66.609375 0 
L 56 0 
L 46.6875 18.703125 
Q 43.0625 26.03125 39.671875 28.421875 
Q 36.28125 30.8125 30.421875 30.8125 
L 19.671875 30.8125 
L 19.671875 0 
L 9.8125 0 
L 9.8125 72.90625 
L 32.078125 72.90625 
Q 44.578125 72.90625 50.734375 67.671875 
Q 56.890625 62.453125 56.890625 51.90625 
Q 56.890625 45.015625 53.6875 40.46875 
Q 50.484375 35.9375 44.390625 34.1875 
z
M 19.671875 64.796875 
L 19.671875 38.921875 
L 32.078125 38.921875 
Q 39.203125 38.921875 42.84375 42.21875 
Q 46.484375 45.515625 46.484375 51.90625 
Q 46.484375 58.296875 42.84375 61.546875 
Q 39.203125 64.796875 32.078125 64.796875 
z
" id="DejaVuSans-52"/>
     <path d="M 19.671875 64.796875 
L 19.671875 37.40625 
L 32.078125 37.40625 
Q 38.96875 37.40625 42.71875 40.96875 
Q 46.484375 44.53125 46.484375 51.125 
Q 46.484375 57.671875 42.71875 61.234375 
Q 38.96875 64.796875 32.078125 64.796875 
z
M 9.8125 72.90625 
L 32.078125 72.90625 
Q 44.34375 72.90625 50.609375 67.359375 
Q 56.890625 61.8125 56.890625 51.125 
Q 56.890625 40.328125 50.609375 34.8125 
Q 44.34375 29.296875 32.078125 29.296875 
L 19.671875 29.296875 
L 19.671875 0 
L 9.8125 0 
z
" id="DejaVuSans-50"/>
    </defs>
    <g transform="translate(278.618437 63.12)scale(0.12 -0.12)">
     <use xlink:href="#DejaVuSans-4d"/>
     <use x="86.279297" xlink:href="#DejaVuSans-52"/>
     <use x="155.761719" xlink:href="#DejaVuSans-50"/>
     <use x="216.064453" xlink:href="#DejaVuSans-50"/>
    </g>
   </g>
  </g>
 </g>
 <defs>
  <clipPath id="p56f637b123">
   <rect height="443.52" width="446.4" x="72" y="69.12"/>
  </clipPath>
 </defs>
</svg>
