<?xml version="1.0" encoding="utf-8" standalone="no"?>
<!DOCTYPE svg PUBLIC "-//W3C//DTD SVG 1.1//EN"
  "http://www.w3.org/Graphics/SVG/1.1/DTD/svg11.dtd">
<!-- Created with matplotlib (http://matplotlib.org/) -->
<svg height="576pt" version="1.1" viewBox="0 0 576 576" width="576pt" xmlns="http://www.w3.org/2000/svg" xmlns:xlink="http://www.w3.org/1999/xlink">
 <defs>
  <style type="text/css">
*{stroke-linecap:butt;stroke-linejoin:round;}
  </style>
 </defs>
 <g id="figure_1">
  <g id="patch_1">
   <path d="M 0 576 
L 576 576 
L 576 0 
L 0 0 
z
" style="fill:#ffffff;"/>
  </g>
  <g id="axes_1">
   <g id="patch_2">
    <path d="M 72 512.64 
L 518.4 512.64 
L 518.4 69.12 
L 72 69.12 
z
" style="fill:#ffffff;"/>
   </g>
   <g id="matplotlib.axis_1">
    <g id="xtick_1">
     <g id="line2d_1">
      <defs>
       <path d="M 0 0 
L 0 3.5 
" id="me932db0024" style="stroke:#000000;stroke-width:0.8;"/>
      </defs>
      <g>
       <use style="stroke:#000000;stroke-width:0.8;" x="112.216216" xlink:href="#me932db0024" y="512.64"/>
      </g>
     </g>
     <g id="text_1">
      <!-- 0 -->
      <defs>
       <path d="M 31.78125 66.40625 
Q 24.171875 66.40625 20.328125 58.90625 
Q 16.5 51.421875 16.5 36.375 
Q 16.5 21.390625 20.328125 13.890625 
Q 24.171875 6.390625 31.78125 6.390625 
Q 39.453125 6.390625 43.28125 13.890625 
Q 47.125 21.390625 47.125 36.375 
Q 47.125 51.421875 43.28125 58.90625 
Q 39.453125 66.40625 31.78125 66.40625 
z
M 31.78125 74.21875 
Q 44.046875 74.21875 50.515625 64.515625 
Q 56.984375 54.828125 56.984375 36.375 
Q 56.984375 17.96875 50.515625 8.265625 
Q 44.046875 -1.421875 31.78125 -1.421875 
Q 19.53125 -1.421875 13.0625 8.265625 
Q 6.59375 17.96875 6.59375 36.375 
Q 6.59375 54.828125 13.0625 64.515625 
Q 19.53125 74.21875 31.78125 74.21875 
z
" id="DejaVuSans-30"/>
      </defs>
      <g transform="translate(109.034966 527.238438)scale(0.1 -0.1)">
       <use xlink:href="#DejaVuSans-30"/>
      </g>
     </g>
    </g>
    <g id="xtick_2">
     <g id="line2d_2">
      <g>
       <use style="stroke:#000000;stroke-width:0.8;" x="192.648649" xlink:href="#me932db0024" y="512.64"/>
      </g>
     </g>
     <g id="text_2">
      <!-- 2 -->
      <defs>
       <path d="M 19.1875 8.296875 
L 53.609375 8.296875 
L 53.609375 0 
L 7.328125 0 
L 7.328125 8.296875 
Q 12.9375 14.109375 22.625 23.890625 
Q 32.328125 33.6875 34.8125 36.53125 
Q 39.546875 41.84375 41.421875 45.53125 
Q 43.3125 49.21875 43.3125 52.78125 
Q 43.3125 58.59375 39.234375 62.25 
Q 35.15625 65.921875 28.609375 65.921875 
Q 23.96875 65.921875 18.8125 64.3125 
Q 13.671875 62.703125 7.8125 59.421875 
L 7.8125 69.390625 
Q 13.765625 71.78125 18.9375 73 
Q 24.125 74.21875 28.421875 74.21875 
Q 39.75 74.21875 46.484375 68.546875 
Q 53.21875 62.890625 53.21875 53.421875 
Q 53.21875 48.921875 51.53125 44.890625 
Q 49.859375 40.875 45.40625 35.40625 
Q 44.1875 33.984375 37.640625 27.21875 
Q 31.109375 20.453125 19.1875 8.296875 
z
" id="DejaVuSans-32"/>
      </defs>
      <g transform="translate(189.467399 527.238438)scale(0.1 -0.1)">
       <use xlink:href="#DejaVuSans-32"/>
      </g>
     </g>
    </g>
    <g id="xtick_3">
     <g id="line2d_3">
      <g>
       <use style="stroke:#000000;stroke-width:0.8;" x="273.081081" xlink:href="#me932db0024" y="512.64"/>
      </g>
     </g>
     <g id="text_3">
      <!-- 4 -->
      <defs>
       <path d="M 37.796875 64.3125 
L 12.890625 25.390625 
L 37.796875 25.390625 
z
M 35.203125 72.90625 
L 47.609375 72.90625 
L 47.609375 25.390625 
L 58.015625 25.390625 
L 58.015625 17.1875 
L 47.609375 17.1875 
L 47.609375 0 
L 37.796875 0 
L 37.796875 17.1875 
L 4.890625 17.1875 
L 4.890625 26.703125 
z
" id="DejaVuSans-34"/>
      </defs>
      <g transform="translate(269.899831 527.238438)scale(0.1 -0.1)">
       <use xlink:href="#DejaVuSans-34"/>
      </g>
     </g>
    </g>
    <g id="xtick_4">
     <g id="line2d_4">
      <g>
       <use style="stroke:#000000;stroke-width:0.8;" x="353.513514" xlink:href="#me932db0024" y="512.64"/>
      </g>
     </g>
     <g id="text_4">
      <!-- 6 -->
      <defs>
       <path d="M 33.015625 40.375 
Q 26.375 40.375 22.484375 35.828125 
Q 18.609375 31.296875 18.609375 23.390625 
Q 18.609375 15.53125 22.484375 10.953125 
Q 26.375 6.390625 33.015625 6.390625 
Q 39.65625 6.390625 43.53125 10.953125 
Q 47.40625 15.53125 47.40625 23.390625 
Q 47.40625 31.296875 43.53125 35.828125 
Q 39.65625 40.375 33.015625 40.375 
z
M 52.59375 71.296875 
L 52.59375 62.3125 
Q 48.875 64.0625 45.09375 64.984375 
Q 41.3125 65.921875 37.59375 65.921875 
Q 27.828125 65.921875 22.671875 59.328125 
Q 17.53125 52.734375 16.796875 39.40625 
Q 19.671875 43.65625 24.015625 45.921875 
Q 28.375 48.1875 33.59375 48.1875 
Q 44.578125 48.1875 50.953125 41.515625 
Q 57.328125 34.859375 57.328125 23.390625 
Q 57.328125 12.15625 50.6875 5.359375 
Q 44.046875 -1.421875 33.015625 -1.421875 
Q 20.359375 -1.421875 13.671875 8.265625 
Q 6.984375 17.96875 6.984375 36.375 
Q 6.984375 53.65625 15.1875 63.9375 
Q 23.390625 74.21875 37.203125 74.21875 
Q 40.921875 74.21875 44.703125 73.484375 
Q 48.484375 72.75 52.59375 71.296875 
z
" id="DejaVuSans-36"/>
      </defs>
      <g transform="translate(350.332264 527.238438)scale(0.1 -0.1)">
       <use xlink:href="#DejaVuSans-36"/>
      </g>
     </g>
    </g>
    <g id="xtick_5">
     <g id="line2d_5">
      <g>
       <use style="stroke:#000000;stroke-width:0.8;" x="433.945946" xlink:href="#me932db0024" y="512.64"/>
      </g>
     </g>
     <g id="text_5">
      <!-- 8 -->
      <defs>
       <path d="M 31.78125 34.625 
Q 24.75 34.625 20.71875 30.859375 
Q 16.703125 27.09375 16.703125 20.515625 
Q 16.703125 13.921875 20.71875 10.15625 
Q 24.75 6.390625 31.78125 6.390625 
Q 38.8125 6.390625 42.859375 10.171875 
Q 46.921875 13.96875 46.921875 20.515625 
Q 46.921875 27.09375 42.890625 30.859375 
Q 38.875 34.625 31.78125 34.625 
z
M 21.921875 38.8125 
Q 15.578125 40.375 12.03125 44.71875 
Q 8.5 49.078125 8.5 55.328125 
Q 8.5 64.0625 14.71875 69.140625 
Q 20.953125 74.21875 31.78125 74.21875 
Q 42.671875 74.21875 48.875 69.140625 
Q 55.078125 64.0625 55.078125 55.328125 
Q 55.078125 49.078125 51.53125 44.71875 
Q 48 40.375 41.703125 38.8125 
Q 48.828125 37.15625 52.796875 32.3125 
Q 56.78125 27.484375 56.78125 20.515625 
Q 56.78125 9.90625 50.3125 4.234375 
Q 43.84375 -1.421875 31.78125 -1.421875 
Q 19.734375 -1.421875 13.25 4.234375 
Q 6.78125 9.90625 6.78125 20.515625 
Q 6.78125 27.484375 10.78125 32.3125 
Q 14.796875 37.15625 21.921875 38.8125 
z
M 18.3125 54.390625 
Q 18.3125 48.734375 21.84375 45.5625 
Q 25.390625 42.390625 31.78125 42.390625 
Q 38.140625 42.390625 41.71875 45.5625 
Q 45.3125 48.734375 45.3125 54.390625 
Q 45.3125 60.0625 41.71875 63.234375 
Q 38.140625 66.40625 31.78125 66.40625 
Q 25.390625 66.40625 21.84375 63.234375 
Q 18.3125 60.0625 18.3125 54.390625 
z
" id="DejaVuSans-38"/>
      </defs>
      <g transform="translate(430.764696 527.238438)scale(0.1 -0.1)">
       <use xlink:href="#DejaVuSans-38"/>
      </g>
     </g>
    </g>
    <g id="xtick_6">
     <g id="line2d_6">
      <g>
       <use style="stroke:#000000;stroke-width:0.8;" x="514.378378" xlink:href="#me932db0024" y="512.64"/>
      </g>
     </g>
     <g id="text_6">
      <!-- 10 -->
      <defs>
       <path d="M 12.40625 8.296875 
L 28.515625 8.296875 
L 28.515625 63.921875 
L 10.984375 60.40625 
L 10.984375 69.390625 
L 28.421875 72.90625 
L 38.28125 72.90625 
L 38.28125 8.296875 
L 54.390625 8.296875 
L 54.390625 0 
L 12.40625 0 
z
" id="DejaVuSans-31"/>
      </defs>
      <g transform="translate(508.015878 527.238438)scale(0.1 -0.1)">
       <use xlink:href="#DejaVuSans-31"/>
       <use x="63.623047" xlink:href="#DejaVuSans-30"/>
      </g>
     </g>
    </g>
   </g>
   <g id="matplotlib.axis_2">
    <g id="ytick_1">
     <g id="line2d_7">
      <defs>
       <path d="M 0 0 
L -3.5 0 
" id="mac36efa934" style="stroke:#000000;stroke-width:0.8;"/>
      </defs>
      <g>
       <use style="stroke:#000000;stroke-width:0.8;" x="72" xlink:href="#mac36efa934" y="473.863784"/>
      </g>
     </g>
     <g id="text_7">
      <!-- 0 -->
      <g transform="translate(58.6375 477.663003)scale(0.1 -0.1)">
       <use xlink:href="#DejaVuSans-30"/>
      </g>
     </g>
    </g>
    <g id="ytick_2">
     <g id="line2d_8">
      <g>
       <use style="stroke:#000000;stroke-width:0.8;" x="72" xlink:href="#mac36efa934" y="393.431351"/>
      </g>
     </g>
     <g id="text_8">
      <!-- 2 -->
      <g transform="translate(58.6375 397.23057)scale(0.1 -0.1)">
       <use xlink:href="#DejaVuSans-32"/>
      </g>
     </g>
    </g>
    <g id="ytick_3">
     <g id="line2d_9">
      <g>
       <use style="stroke:#000000;stroke-width:0.8;" x="72" xlink:href="#mac36efa934" y="312.998919"/>
      </g>
     </g>
     <g id="text_9">
      <!-- 4 -->
      <g transform="translate(58.6375 316.798138)scale(0.1 -0.1)">
       <use xlink:href="#DejaVuSans-34"/>
      </g>
     </g>
    </g>
    <g id="ytick_4">
     <g id="line2d_10">
      <g>
       <use style="stroke:#000000;stroke-width:0.8;" x="72" xlink:href="#mac36efa934" y="232.566486"/>
      </g>
     </g>
     <g id="text_10">
      <!-- 6 -->
      <g transform="translate(58.6375 236.365705)scale(0.1 -0.1)">
       <use xlink:href="#DejaVuSans-36"/>
      </g>
     </g>
    </g>
    <g id="ytick_5">
     <g id="line2d_11">
      <g>
       <use style="stroke:#000000;stroke-width:0.8;" x="72" xlink:href="#mac36efa934" y="152.134054"/>
      </g>
     </g>
     <g id="text_11">
      <!-- 8 -->
      <g transform="translate(58.6375 155.933273)scale(0.1 -0.1)">
       <use xlink:href="#DejaVuSans-38"/>
      </g>
     </g>
    </g>
    <g id="ytick_6">
     <g id="line2d_12">
      <g>
       <use style="stroke:#000000;stroke-width:0.8;" x="72" xlink:href="#mac36efa934" y="71.701622"/>
      </g>
     </g>
     <g id="text_12">
      <!-- 10 -->
      <g transform="translate(52.275 75.50084)scale(0.1 -0.1)">
       <use xlink:href="#DejaVuSans-31"/>
       <use x="63.623047" xlink:href="#DejaVuSans-30"/>
      </g>
     </g>
    </g>
   </g>
   <g id="line2d_13">
    <path clip-path="url(#p28a8b1daab)" d="M 140.367568 389.40973 
" style="fill:none;stroke:#1f77b4;stroke-linecap:square;stroke-width:1.5;"/>
    <defs>
     <path d="M -5 5 
L 5 5 
L 5 -5 
L -5 -5 
z
" id="mfcc2ae8f2b" style="stroke:#8000ff;stroke-linejoin:miter;"/>
    </defs>
    <g clip-path="url(#p28a8b1daab)">
     <use style="fill:#8000ff;stroke:#8000ff;stroke-linejoin:miter;" x="140.367568" xlink:href="#mfcc2ae8f2b" y="389.40973"/>
    </g>
   </g>
   <g id="line2d_14">
    <path clip-path="url(#p28a8b1daab)" d="M 393.72973 192.35027 
" style="fill:none;stroke:#ff7f0e;stroke-linecap:square;stroke-width:1.5;"/>
    <defs>
     <path d="M 0 -5 
L -4.755283 -1.545085 
L -2.938926 4.045085 
L 2.938926 4.045085 
L 4.755283 -1.545085 
z
" id="mcd064bdb59" style="stroke:#8000ff;stroke-linejoin:miter;"/>
    </defs>
    <g clip-path="url(#p28a8b1daab)">
     <use style="fill:#8000ff;stroke:#8000ff;stroke-linejoin:miter;" x="393.72973" xlink:href="#mcd064bdb59" y="192.35027"/>
    </g>
   </g>
   <g id="line2d_15">
    <path clip-path="url(#p28a8b1daab)" d="M 450.032432 192.35027 
" style="fill:none;stroke:#2ca02c;stroke-linecap:square;stroke-width:1.5;"/>
    <defs>
     <path d="M -5 5 
L 5 5 
L 5 -5 
L -5 -5 
z
" id="m20632514ea" style="stroke:#5148fc;stroke-linejoin:miter;"/>
    </defs>
    <g clip-path="url(#p28a8b1daab)">
     <use style="fill:#5148fc;stroke:#5148fc;stroke-linejoin:miter;" x="450.032432" xlink:href="#m20632514ea" y="192.35027"/>
    </g>
   </g>
   <g id="line2d_16">
    <path clip-path="url(#p28a8b1daab)" d="M 224.821622 361.258378 
" style="fill:none;stroke:#d62728;stroke-linecap:square;stroke-width:1.5;"/>
    <defs>
     <path d="M 0 -5 
L -4.755283 -1.545085 
L -2.938926 4.045085 
L 2.938926 4.045085 
L 4.755283 -1.545085 
z
" id="mf034b6d445" style="stroke:#5148fc;stroke-linejoin:miter;"/>
    </defs>
    <g clip-path="url(#p28a8b1daab)">
     <use style="fill:#5148fc;stroke:#5148fc;stroke-linejoin:miter;" x="224.821622" xlink:href="#mf034b6d445" y="361.258378"/>
    </g>
   </g>
   <g id="line2d_17">
    <path clip-path="url(#p28a8b1daab)" d="M 402.175135 440.082162 
" style="fill:none;stroke:#9467bd;stroke-linecap:square;stroke-width:1.5;"/>
    <defs>
     <path d="M -5 5 
L 5 5 
L 5 -5 
L -5 -5 
z
" id="m2b2d4cef90" style="stroke:#238af5;stroke-linejoin:miter;"/>
    </defs>
    <g clip-path="url(#p28a8b1daab)">
     <use style="fill:#238af5;stroke:#238af5;stroke-linejoin:miter;" x="402.175135" xlink:href="#m2b2d4cef90" y="440.082162"/>
    </g>
   </g>
   <g id="line2d_18">
    <path clip-path="url(#p28a8b1daab)" d="M 224.821622 192.35027 
" style="fill:none;stroke:#8c564b;stroke-linecap:square;stroke-width:1.5;"/>
    <defs>
     <path d="M 0 -5 
L -4.755283 -1.545085 
L -2.938926 4.045085 
L 2.938926 4.045085 
L 4.755283 -1.545085 
z
" id="m683dc8f2ff" style="stroke:#238af5;stroke-linejoin:miter;"/>
    </defs>
    <g clip-path="url(#p28a8b1daab)">
     <use style="fill:#238af5;stroke:#238af5;stroke-linejoin:miter;" x="224.821622" xlink:href="#m683dc8f2ff" y="192.35027"/>
    </g>
   </g>
   <g id="line2d_19">
    <path clip-path="url(#p28a8b1daab)" d="M 224.821622 136.047568 
" style="fill:none;stroke:#e377c2;stroke-linecap:square;stroke-width:1.5;"/>
    <defs>
     <path d="M -5 5 
L 5 5 
L 5 -5 
L -5 -5 
z
" id="m58cce80cca" style="stroke:#0cc1e8;stroke-linejoin:miter;"/>
    </defs>
    <g clip-path="url(#p28a8b1daab)">
     <use style="fill:#0cc1e8;stroke:#0cc1e8;stroke-linejoin:miter;" x="224.821622" xlink:href="#m58cce80cca" y="136.047568"/>
    </g>
   </g>
   <g id="line2d_20">
    <path clip-path="url(#p28a8b1daab)" d="M 393.72973 361.258378 
" style="fill:none;stroke:#7f7f7f;stroke-linecap:square;stroke-width:1.5;"/>
    <defs>
     <path d="M 0 -5 
L -4.755283 -1.545085 
L -2.938926 4.045085 
L 2.938926 4.045085 
L 4.755283 -1.545085 
z
" id="mdbb1e6ba3b" style="stroke:#0cc1e8;stroke-linejoin:miter;"/>
    </defs>
    <g clip-path="url(#p28a8b1daab)">
     <use style="fill:#0cc1e8;stroke:#0cc1e8;stroke-linejoin:miter;" x="393.72973" xlink:href="#mdbb1e6ba3b" y="361.258378"/>
    </g>
   </g>
   <g id="line2d_21">
    <path clip-path="url(#p28a8b1daab)" d="M 450.032432 304.955676 
" style="fill:none;stroke:#bcbd22;stroke-linecap:square;stroke-width:1.5;"/>
    <defs>
     <path d="M -5 5 
L 5 5 
L 5 -5 
L -5 -5 
z
" id="m1a9dc4570a" style="stroke:#3ae8d7;stroke-linejoin:miter;"/>
    </defs>
    <g clip-path="url(#p28a8b1daab)">
     <use style="fill:#3ae8d7;stroke:#3ae8d7;stroke-linejoin:miter;" x="450.032432" xlink:href="#m1a9dc4570a" y="304.955676"/>
    </g>
   </g>
   <g id="line2d_22">
    <path clip-path="url(#p28a8b1daab)" d="M 196.67027 248.652973 
" style="fill:none;stroke:#17becf;stroke-linecap:square;stroke-width:1.5;"/>
    <defs>
     <path d="M 0 -5 
L -4.755283 -1.545085 
L -2.938926 4.045085 
L 2.938926 4.045085 
L 4.755283 -1.545085 
z
" id="m4093f04017" style="stroke:#3ae8d7;stroke-linejoin:miter;"/>
    </defs>
    <g clip-path="url(#p28a8b1daab)">
     <use style="fill:#3ae8d7;stroke:#3ae8d7;stroke-linejoin:miter;" x="196.67027" xlink:href="#m4093f04017" y="248.652973"/>
    </g>
   </g>
   <g id="line2d_23">
    <path clip-path="url(#p28a8b1daab)" d="M 140.367568 248.652973 
" style="fill:none;stroke:#1f77b4;stroke-linecap:square;stroke-width:1.5;"/>
    <defs>
     <path d="M -5 5 
L 5 5 
L 5 -5 
L -5 -5 
z
" id="me28c3308a4" style="stroke:#68fcc1;stroke-linejoin:miter;"/>
    </defs>
    <g clip-path="url(#p28a8b1daab)">
     <use style="fill:#68fcc1;stroke:#68fcc1;stroke-linejoin:miter;" x="140.367568" xlink:href="#me28c3308a4" y="248.652973"/>
    </g>
   </g>
   <g id="line2d_24">
    <path clip-path="url(#p28a8b1daab)" d="M 393.72973 276.804324 
" style="fill:none;stroke:#ff7f0e;stroke-linecap:square;stroke-width:1.5;"/>
    <defs>
     <path d="M 0 -5 
L -4.755283 -1.545085 
L -2.938926 4.045085 
L 2.938926 4.045085 
L 4.755283 -1.545085 
z
" id="m382eef4fb5" style="stroke:#68fcc1;stroke-linejoin:miter;"/>
    </defs>
    <g clip-path="url(#p28a8b1daab)">
     <use style="fill:#68fcc1;stroke:#68fcc1;stroke-linejoin:miter;" x="393.72973" xlink:href="#m382eef4fb5" y="276.804324"/>
    </g>
   </g>
   <g id="line2d_25">
    <path clip-path="url(#p28a8b1daab)" d="M 281.124324 192.35027 
" style="fill:none;stroke:#2ca02c;stroke-linecap:square;stroke-width:1.5;"/>
    <defs>
     <path d="M -5 5 
L 5 5 
L 5 -5 
L -5 -5 
z
" id="m6f61c28e9c" style="stroke:#97fca7;stroke-linejoin:miter;"/>
    </defs>
    <g clip-path="url(#p28a8b1daab)">
     <use style="fill:#97fca7;stroke:#97fca7;stroke-linejoin:miter;" x="281.124324" xlink:href="#m6f61c28e9c" y="192.35027"/>
    </g>
   </g>
   <g id="line2d_26">
    <path clip-path="url(#p28a8b1daab)" d="M 281.124324 333.107027 
" style="fill:none;stroke:#d62728;stroke-linecap:square;stroke-width:1.5;"/>
    <defs>
     <path d="M 0 -5 
L -4.755283 -1.545085 
L -2.938926 4.045085 
L 2.938926 4.045085 
L 4.755283 -1.545085 
z
" id="m3e458cb6e0" style="stroke:#97fca7;stroke-linejoin:miter;"/>
    </defs>
    <g clip-path="url(#p28a8b1daab)">
     <use style="fill:#97fca7;stroke:#97fca7;stroke-linejoin:miter;" x="281.124324" xlink:href="#m3e458cb6e0" y="333.107027"/>
    </g>
   </g>
   <g id="line2d_27">
    <path clip-path="url(#p28a8b1daab)" d="M 140.367568 304.955676 
" style="fill:none;stroke:#9467bd;stroke-linecap:square;stroke-width:1.5;"/>
    <defs>
     <path d="M -5 5 
L 5 5 
L 5 -5 
L -5 -5 
z
" id="m66ebb636fc" style="stroke:#c5e88a;stroke-linejoin:miter;"/>
    </defs>
    <g clip-path="url(#p28a8b1daab)">
     <use style="fill:#c5e88a;stroke:#c5e88a;stroke-linejoin:miter;" x="140.367568" xlink:href="#m66ebb636fc" y="304.955676"/>
    </g>
   </g>
   <g id="line2d_28">
    <path clip-path="url(#p28a8b1daab)" d="M 309.275676 276.804324 
" style="fill:none;stroke:#8c564b;stroke-linecap:square;stroke-width:1.5;"/>
    <defs>
     <path d="M 0 -5 
L -4.755283 -1.545085 
L -2.938926 4.045085 
L 2.938926 4.045085 
L 4.755283 -1.545085 
z
" id="ma4a063bea0" style="stroke:#c5e88a;stroke-linejoin:miter;"/>
    </defs>
    <g clip-path="url(#p28a8b1daab)">
     <use style="fill:#c5e88a;stroke:#c5e88a;stroke-linejoin:miter;" x="309.275676" xlink:href="#ma4a063bea0" y="276.804324"/>
    </g>
   </g>
   <g id="line2d_29">
    <path clip-path="url(#p28a8b1daab)" d="M 393.72973 220.501622 
" style="fill:none;stroke:#e377c2;stroke-linecap:square;stroke-width:1.5;"/>
    <defs>
     <path d="M -5 5 
L 5 5 
L 5 -5 
L -5 -5 
z
" id="m8e1ed05bd3" style="stroke:#f3c16a;stroke-linejoin:miter;"/>
    </defs>
    <g clip-path="url(#p28a8b1daab)">
     <use style="fill:#f3c16a;stroke:#f3c16a;stroke-linejoin:miter;" x="393.72973" xlink:href="#m8e1ed05bd3" y="220.501622"/>
    </g>
   </g>
   <g id="line2d_30">
    <path clip-path="url(#p28a8b1daab)" d="M 140.367568 276.804324 
" style="fill:none;stroke:#7f7f7f;stroke-linecap:square;stroke-width:1.5;"/>
    <defs>
     <path d="M 0 -5 
L -4.755283 -1.545085 
L -2.938926 4.045085 
L 2.938926 4.045085 
L 4.755283 -1.545085 
z
" id="ma382f27c1a" style="stroke:#f3c16a;stroke-linejoin:miter;"/>
    </defs>
    <g clip-path="url(#p28a8b1daab)">
     <use style="fill:#f3c16a;stroke:#f3c16a;stroke-linejoin:miter;" x="140.367568" xlink:href="#ma382f27c1a" y="276.804324"/>
    </g>
   </g>
   <g id="line2d_31">
    <path clip-path="url(#p28a8b1daab)" d="M 140.367568 136.047568 
" style="fill:none;stroke:#bcbd22;stroke-linecap:square;stroke-width:1.5;"/>
    <defs>
     <path d="M -5 5 
L 5 5 
L 5 -5 
L -5 -5 
z
" id="m86407d5ca4" style="stroke:#ff8a48;stroke-linejoin:miter;"/>
    </defs>
    <g clip-path="url(#p28a8b1daab)">
     <use style="fill:#ff8a48;stroke:#ff8a48;stroke-linejoin:miter;" x="140.367568" xlink:href="#m86407d5ca4" y="136.047568"/>
    </g>
   </g>
   <g id="line2d_32">
    <path clip-path="url(#p28a8b1daab)" d="M 252.972973 248.652973 
" style="fill:none;stroke:#17becf;stroke-linecap:square;stroke-width:1.5;"/>
    <defs>
     <path d="M 0 -5 
L -4.755283 -1.545085 
L -2.938926 4.045085 
L 2.938926 4.045085 
L 4.755283 -1.545085 
z
" id="mf8f1923a2c" style="stroke:#ff8a48;stroke-linejoin:miter;"/>
    </defs>
    <g clip-path="url(#p28a8b1daab)">
     <use style="fill:#ff8a48;stroke:#ff8a48;stroke-linejoin:miter;" x="252.972973" xlink:href="#mf8f1923a2c" y="248.652973"/>
    </g>
   </g>
   <g id="line2d_33">
    <path clip-path="url(#p28a8b1daab)" d="M 337.427027 164.198919 
" style="fill:none;stroke:#1f77b4;stroke-linecap:square;stroke-width:1.5;"/>
    <defs>
     <path d="M -5 5 
L 5 5 
L 5 -5 
L -5 -5 
z
" id="m3327f8fa75" style="stroke:#ff4824;stroke-linejoin:miter;"/>
    </defs>
    <g clip-path="url(#p28a8b1daab)">
     <use style="fill:#ff4824;stroke:#ff4824;stroke-linejoin:miter;" x="337.427027" xlink:href="#m3327f8fa75" y="164.198919"/>
    </g>
   </g>
   <g id="line2d_34">
    <path clip-path="url(#p28a8b1daab)" d="M 168.518919 389.40973 
" style="fill:none;stroke:#ff7f0e;stroke-linecap:square;stroke-width:1.5;"/>
    <defs>
     <path d="M 0 -5 
L -4.755283 -1.545085 
L -2.938926 4.045085 
L 2.938926 4.045085 
L 4.755283 -1.545085 
z
" id="m6e0ef07b62" style="stroke:#ff4824;stroke-linejoin:miter;"/>
    </defs>
    <g clip-path="url(#p28a8b1daab)">
     <use style="fill:#ff4824;stroke:#ff4824;stroke-linejoin:miter;" x="168.518919" xlink:href="#m6e0ef07b62" y="389.40973"/>
    </g>
   </g>
   <g id="line2d_35">
    <path clip-path="url(#p28a8b1daab)" d="M 196.67027 445.712432 
" style="fill:none;stroke:#2ca02c;stroke-linecap:square;stroke-width:1.5;"/>
    <defs>
     <path d="M -5 5 
L 5 5 
L 5 -5 
L -5 -5 
z
" id="mc8f4fa9a85" style="stroke:#ff0000;stroke-linejoin:miter;"/>
    </defs>
    <g clip-path="url(#p28a8b1daab)">
     <use style="fill:#ff0000;stroke:#ff0000;stroke-linejoin:miter;" x="196.67027" xlink:href="#mc8f4fa9a85" y="445.712432"/>
    </g>
   </g>
   <g id="line2d_36">
    <path clip-path="url(#p28a8b1daab)" d="M 393.72973 136.047568 
" style="fill:none;stroke:#d62728;stroke-linecap:square;stroke-width:1.5;"/>
    <defs>
     <path d="M 0 -5 
L -4.755283 -1.545085 
L -2.938926 4.045085 
L 2.938926 4.045085 
L 4.755283 -1.545085 
z
" id="mb54127256d" style="stroke:#ff0000;stroke-linejoin:miter;"/>
    </defs>
    <g clip-path="url(#p28a8b1daab)">
     <use style="fill:#ff0000;stroke:#ff0000;stroke-linejoin:miter;" x="393.72973" xlink:href="#mb54127256d" y="136.047568"/>
    </g>
   </g>
   <g id="line2d_37"/>
   <g id="line2d_38">
    <path clip-path="url(#p28a8b1daab)" d="M 92.108108 493.971892 
L 92.108108 87.788108 
" style="fill:none;stroke:#000000;stroke-linecap:square;stroke-width:4;"/>
   </g>
   <g id="line2d_39">
    <path clip-path="url(#p28a8b1daab)" d="M 92.108108 87.788108 
L 498.291892 87.788108 
" style="fill:none;stroke:#000000;stroke-linecap:square;stroke-width:4;"/>
   </g>
   <g id="line2d_40">
    <path clip-path="url(#p28a8b1daab)" d="M 498.291892 87.788108 
L 498.291892 493.971892 
" style="fill:none;stroke:#000000;stroke-linecap:square;stroke-width:4;"/>
   </g>
   <g id="line2d_41">
    <path clip-path="url(#p28a8b1daab)" d="M 498.291892 493.971892 
L 92.108108 493.971892 
" style="fill:none;stroke:#000000;stroke-linecap:square;stroke-width:4;"/>
   </g>
   <g id="line2d_42">
    <path clip-path="url(#p28a8b1daab)" d="M 140.367568 389.40973 
L 140.930595 389.40973 
L 142.539243 389.208649 
L 144.710919 388.364108 
L 146.359784 387.157622 
L 149.577081 384.382703 
L 156.534486 378.913297 
L 185.811892 355.909622 
L 187.862919 354.54227 
L 190.235676 353.778162 
L 192.20627 353.657514 
L 194.217081 353.858595 
L 196.308324 353.939027 
L 198.118054 353.778162 
L 202.863568 352.692324 
L 207.046054 352.129297 
L 213.68173 350.963027 
L 216.01427 350.681514 
L 223.293405 351.123892 
L 225.465081 351.164108 
L 227.757405 351.365189 
L 230.009514 351.928216 
L 232.060541 352.249946 
L 234.071351 352.008649 
L 238.213622 350.681514 
L 251.444757 349.153297 
L 253.656649 349.314162 
L 256.069622 349.676108 
L 258.603243 350.198919 
L 260.372757 351.043459 
L 261.458595 352.169514 
L 262.665081 354.341189 
L 263.187892 356.512865 
L 263.228108 359.810595 
L 263.429189 360.614919 
L 263.388973 360.695351 
L 263.429189 360.49427 
L 263.469405 360.655135 
L 263.871568 362.022486 
L 263.992216 364.194162 
L 263.469405 366.647351 
L 262.423784 368.738595 
L 261.418378 370.266811 
L 260.493405 371.151568 
L 259.488 371.151568 
L 257.155459 370.628757 
L 254.943568 369.42227 
L 253.294703 367.813622 
L 253.013189 367.08973 
L 252.812108 365.963676 
L 252.932757 363.510486 
L 253.656649 361.379027 
L 255.385946 358.322595 
L 255.385946 358.362811 
L 255.385946 357.84 
L 254.943568 355.909622 
L 253.415351 352.330378 
L 253.013189 350.158703 
L 253.133838 347.705514 
L 253.536 345.61427 
L 253.495784 343.563243 
L 252.731676 339.622054 
L 252.852324 339.742703 
L 252.208865 339.501405 
L 250.23827 339.139459 
L 247.945946 339.340541 
L 245.814486 340.225297 
L 244.28627 341.431784 
L 242.235243 342.799135 
L 238.133189 344.166486 
L 237.007135 344.448 
L 236.082162 343.925189 
L 234.634378 342.63827 
L 233.267027 340.506811 
L 232.583351 338.536216 
L 232.020324 336.324324 
L 230.411676 332.986378 
L 230.652973 333.147243 
L 228.843243 333.670054 
L 228.119351 333.830919 
L 227.355243 334.233081 
L 226.510703 334.514595 
L 225.58573 334.595027 
L 224.379243 334.313514 
L 222.770595 333.468973 
L 220.960865 331.779892 
L 219.794595 329.88973 
L 219.030486 327.516973 
L 218.628324 325.506162 
L 217.824 323.616 
L 216.939243 322.489946 
L 213.641514 319.956324 
L 212.394811 318.106378 
L 211.670919 315.974919 
L 211.510054 313.763027 
L 211.992649 311.269622 
L 212.716541 309.218595 
L 213.721946 307.087135 
L 215.008865 305.317622 
L 216.939243 303.628541 
L 218.869622 302.140541 
L 220.719568 301.014486 
L 226.792216 297.917838 
L 228.521514 296.671135 
L 236.243027 291.764757 
L 243.602595 287.300757 
L 249.996973 285.571459 
L 258.442378 282.27373 
L 262.584649 280.423784 
L 266.887784 278.252108 
L 268.979027 277.085838 
L 270.909405 275.839135 
L 272.276757 274.391351 
L 273.644108 272.70227 
L 275.292973 271.174054 
L 276.740757 270.007784 
L 278.148324 268.439351 
L 279.435243 266.428541 
L 281.084108 264.457946 
L 282.893838 262.92973 
L 284.422054 261.401514 
L 285.749189 259.471135 
L 287.156757 257.741838 
L 294.154378 252.192 
L 299.462919 248.974703 
L 303.524757 246.963892 
L 313.176649 240.649946 
L 349.290811 219.013622 
L 364.452324 209.884541 
L 376.637838 202.605405 
L 392.040649 193.355676 
L 392.040649 193.355676 
" style="fill:none;stroke:#8000ff;stroke-linecap:square;stroke-width:1.5;"/>
   </g>
   <g id="line2d_43">
    <path clip-path="url(#p28a8b1daab)" d="M 450.032432 192.35027 
L 450.27373 192.430703 
L 450.434595 192.752432 
L 450.635676 193.637189 
L 450.515027 195.165405 
L 449.831351 197.015351 
L 448.383568 199.066378 
L 446.533622 200.594595 
L 442.753297 203.088 
L 418.020324 221.024432 
L 410.861838 226.252541 
L 405.191351 230.354595 
L 403.622919 231.641514 
L 402.376216 233.250162 
L 401.612108 235.140324 
L 400.888216 238.960865 
L 399.963243 240.971676 
L 398.515459 242.660757 
L 396.504649 244.148757 
L 393.005838 246.280216 
L 391.276541 247.567135 
L 389.989622 249.135568 
L 389.145081 250.985514 
L 388.179892 255.529946 
L 386.933189 259.390703 
L 384.80173 265.463351 
L 383.836541 267.675243 
L 376.879135 280.665081 
L 373.380324 286.416 
L 369.801081 291.724541 
L 367.991351 296.027676 
L 366.704432 300.049297 
L 365.980541 302.261189 
L 365.819676 304.553514 
L 366.262054 306.966486 
L 366.262054 309.459892 
L 365.819676 311.39027 
L 365.095784 313.320649 
L 364.532757 315.452108 
L 364.251243 317.583568 
L 363.527351 319.996541 
L 362.240432 322.047568 
L 360.99373 323.776865 
L 360.068757 325.42573 
L 356.409081 330.975568 
L 354.961297 332.624432 
L 353.312432 334.152649 
L 351.784216 335.761297 
L 348.808216 338.496 
L 345.148541 341.270919 
L 341.328 343.804541 
L 337.668324 346.016432 
L 335.898811 347.303351 
L 334.089081 348.469622 
L 331.997838 349.676108 
L 329.665297 350.601081 
L 327.654486 350.842378 
L 325.804541 350.520649 
L 323.874162 349.676108 
L 321.742703 348.871784 
L 319.450378 348.710919 
L 314.825514 349.394595 
L 312.935351 349.394595 
L 310.763676 348.831568 
L 306.460541 346.619676 
L 304.489946 346.137081 
L 302.157405 346.25773 
L 300.025946 346.981622 
L 297.693405 348.107676 
L 293.551135 349.836973 
L 291.90227 350.922811 
L 289.730595 352.129297 
L 287.880649 352.732541 
L 285.990486 353.536865 
L 282.612324 356.03027 
L 280.521081 356.874811 
L 278.349405 357.196541 
L 276.057081 357.156324 
L 273.804973 357.478054 
L 269.823568 358.966054 
L 267.410595 359.448649 
L 263.388973 359.810595 
L 258.844541 360.132324 
L 233.106162 361.177946 
L 226.390054 361.258378 
L 226.390054 361.258378 
" style="fill:none;stroke:#5148fc;stroke-linecap:square;stroke-width:1.5;"/>
   </g>
   <g id="line2d_44">
    <path clip-path="url(#p28a8b1daab)" d="M 402.175135 440.082162 
L 401.933838 440.162595 
L 402.215351 439.840865 
L 402.537081 439.116973 
L 402.738162 437.709405 
L 402.456649 435.859459 
L 401.491459 433.808432 
L 397.670919 428.982486 
L 391.035243 419.893622 
L 368.715243 389.369514 
L 360.832865 378.511135 
L 352.749405 367.491892 
L 348.969081 362.304 
L 342.212757 353.215135 
L 340.362811 351.686919 
L 338.472649 350.802162 
L 336.180324 350.07827 
L 334.169514 349.23373 
L 330.630486 347.464216 
L 325.321946 346.25773 
L 324.96 345.936 
L 324.517622 345.011027 
L 324.356757 343.442595 
L 324.678486 341.230703 
L 325.925189 337.731892 
L 326.528432 335.680865 
L 329.263135 327.557189 
L 329.987027 325.224649 
L 330.429405 323.213838 
L 330.550054 320.800865 
L 330.992432 318.387892 
L 331.836973 316.336865 
L 332.4 314.607568 
L 333.727135 308.012108 
L 334.370595 305.679568 
L 335.416216 303.628541 
L 336.904216 301.939459 
L 338.874811 300.572108 
L 340.604108 299.003676 
L 341.689946 297.274378 
L 342.293189 295.303784 
L 342.413838 293.252757 
L 342.333405 291.161514 
L 342.454054 289.392 
L 342.655135 288.467027 
L 343.539892 286.938811 
L 344.746378 285.129081 
L 345.510486 282.957405 
L 345.631135 280.665081 
L 345.269189 278.694486 
L 344.867027 275.879351 
L 344.987676 273.265297 
L 344.62573 272.501189 
L 344.062703 270.892541 
L 343.821405 268.921946 
L 344.143135 264.618811 
L 343.740973 262.366703 
L 343.218162 261.240649 
L 342.454054 260.476541 
L 340.885622 259.511351 
L 338.713946 258.867892 
L 336.421622 258.867892 
L 330.751135 260.154811 
L 329.263135 259.993946 
L 327.212108 259.229838 
L 325.120865 257.862486 
L 321.380757 254.966919 
L 318.364541 252.192 
L 315.227676 249.738811 
L 311.970162 247.486703 
L 310.120216 246.481297 
L 308.27027 245.636757 
L 306.581189 244.671568 
L 298.578162 239.322811 
L 290.41427 234.134919 
L 288.684973 232.928432 
L 284.060108 228.504649 
L 278.590703 224.24173 
L 275.091892 221.788541 
L 269.180108 218.088649 
L 243.683027 203.248865 
L 232.784432 196.975135 
L 224.902054 192.390486 
L 224.902054 192.390486 
" style="fill:none;stroke:#238af5;stroke-linecap:square;stroke-width:1.5;"/>
   </g>
   <g id="line2d_45">
    <path clip-path="url(#p28a8b1daab)" d="M 224.821622 136.047568 
L 225.223784 136.047568 
L 226.671568 136.288865 
L 228.601946 137.052973 
L 230.371459 138.380108 
L 231.899676 140.189838 
L 234.473514 143.970162 
L 259.367351 177.872432 
L 269.461622 191.787243 
L 270.426811 194.079568 
L 270.708324 196.572973 
L 270.346378 200.634811 
L 269.904 203.047784 
L 265.198703 215.796324 
L 264.032432 219.898378 
L 263.469405 222.230919 
L 263.067243 224.483027 
L 263.067243 225.850378 
L 263.308541 226.413405 
L 263.952 227.298162 
L 265.76173 228.70573 
L 267.651892 229.510054 
L 269.702919 229.831784 
L 271.271351 229.912216 
L 272.357189 229.751351 
L 274.488649 229.027459 
L 276.338595 227.700324 
L 277.625514 226.091676 
L 278.470054 224.000432 
L 278.671135 221.949405 
L 278.349405 219.938595 
L 277.585297 218.048432 
L 276.660324 216.15827 
L 276.660324 215.555027 
L 276.861405 213.343135 
L 276.780973 209.442162 
L 277.102703 209.04 
L 278.590703 207.994378 
L 280.64173 207.190054 
L 284.582919 206.466162 
L 284.864432 206.345514 
L 284.703568 206.506378 
L 285.025297 205.581405 
L 285.306811 203.329297 
L 284.944865 199.548973 
L 284.985081 198.543568 
L 285.347027 198.101189 
L 286.312216 197.497946 
L 287.880649 197.256649 
L 290.052324 197.578378 
L 293.832649 199.066378 
L 298.216216 199.709838 
L 300.347676 200.071784 
L 306.380108 201.439135 
L 308.712649 201.881514 
L 312.573405 202.082595 
L 314.664649 201.961946 
L 316.956973 201.961946 
L 319.168865 202.484757 
L 321.340541 203.691243 
L 322.989405 205.259676 
L 328.016432 210.487784 
L 329.142486 211.975784 
L 330.550054 213.463784 
L 332.319568 214.509405 
L 338.713946 216.640865 
L 348.526703 221.507027 
L 350.376649 223.196108 
L 351.703784 224.724324 
L 354.599351 227.499243 
L 356.167784 229.389405 
L 358.299243 233.491459 
L 360.712216 237.030486 
L 362.562162 240.931459 
L 363.205622 242.982486 
L 365.176216 251.307243 
L 365.136 253.800649 
L 364.774054 256.092973 
L 364.572973 258.46573 
L 364.733838 269.72627 
L 364.532757 272.099027 
L 364.492541 274.19027 
L 365.578378 282.675892 
L 366.784865 287.300757 
L 367.548973 289.512649 
L 368.554378 291.402811 
L 369.398919 293.413622 
L 371.248865 299.888432 
L 376.919351 315.492324 
L 379.975784 323.817081 
L 391.155892 354.260757 
L 393.568865 360.816 
L 393.568865 360.816 
" style="fill:none;stroke:#0cc1e8;stroke-linecap:square;stroke-width:1.5;"/>
   </g>
   <g id="line2d_46">
    <path clip-path="url(#p28a8b1daab)" d="M 450.032432 304.955676 
L 449.831351 305.036108 
L 449.710703 305.196973 
L 449.670486 305.277405 
L 449.670486 304.915459 
L 449.429189 304.070919 
L 448.78573 303.10573 
L 447.418378 301.979676 
L 445.568432 301.135135 
L 443.276108 300.652541 
L 438.450162 299.848216 
L 427.189622 297.435243 
L 413.797622 294.579892 
L 405.432649 292.810378 
L 375.270486 286.496432 
L 372.978162 286.657297 
L 371.047784 287.340973 
L 365.377297 290.920216 
L 349.371243 299.405838 
L 348.003892 300.612324 
L 344.826811 304.674162 
L 344.424649 304.875243 
L 343.861622 304.835027 
L 343.218162 304.473081 
L 341.730162 303.025297 
L 340.282378 300.773189 
L 339.075892 298.681946 
L 338.231351 296.550486 
L 336.904216 290.115892 
L 335.778162 285.651892 
L 335.456432 283.681297 
L 334.933622 281.308541 
L 334.370595 279.29773 
L 333.485838 277.085838 
L 332.882595 274.672865 
L 332.319568 270.168649 
L 332.520649 267.635027 
L 333.284757 265.543784 
L 335.657514 261.803676 
L 336.180324 259.792865 
L 336.140108 257.741838 
L 335.69773 256.052757 
L 334.692324 254.243027 
L 333.083676 252.634378 
L 331.113081 251.427892 
L 329.263135 250.060541 
L 327.895784 248.291027 
L 326.76973 245.998703 
L 325.442595 243.827027 
L 323.753514 242.258595 
L 319.731892 239.885838 
L 317.600432 239.001081 
L 315.348324 238.598919 
L 312.653838 237.754378 
L 310.723459 236.588108 
L 309.396324 235.180541 
L 308.230054 233.250162 
L 307.184432 231.239351 
L 305.736649 229.429622 
L 302.237838 226.815568 
L 300.146595 225.810162 
L 297.85427 225.448216 
L 293.068541 225.649297 
L 290.736 226.051459 
L 284.422054 227.539459 
L 281.928649 227.459027 
L 279.837405 226.936216 
L 277.705946 226.534054 
L 269.099676 225.850378 
L 264.716108 224.804757 
L 262.343351 224.523243 
L 255.426162 224.24173 
L 253.294703 224.322162 
L 249.072 224.804757 
L 244.648216 225.810162 
L 242.637405 226.413405 
L 236.604973 228.625297 
L 232.301838 230.032865 
L 230.572541 230.716541 
L 224.781405 233.451243 
L 219.070703 236.427243 
L 211.067676 240.770595 
L 196.710486 248.612757 
L 196.710486 248.612757 
" style="fill:none;stroke:#3ae8d7;stroke-linecap:square;stroke-width:1.5;"/>
   </g>
   <g id="line2d_47">
    <path clip-path="url(#p28a8b1daab)" d="M 140.367568 248.652973 
L 141.372973 248.652973 
L 145.635892 248.974703 
L 151.507459 249.658378 
L 177.084973 252.553946 
L 186.133622 253.559351 
L 203.426595 255.409297 
L 212.233946 256.374486 
L 214.727351 256.776649 
L 217.059892 257.741838 
L 220.317405 260.235243 
L 232.221405 267.031784 
L 235.760432 269.967568 
L 239.580973 272.380541 
L 241.270054 273.788108 
L 244.326486 276.643459 
L 246.176432 278.010811 
L 249.635027 280.986811 
L 251.324108 282.072649 
L 253.576216 282.957405 
L 255.587027 283.922595 
L 258.884757 286.335568 
L 260.895568 287.300757 
L 263.147676 287.743135 
L 265.44 287.461622 
L 267.531243 286.536649 
L 268.979027 285.410595 
L 270.627892 283.842162 
L 272.518054 282.635676 
L 273.804973 282.153081 
L 274.488649 282.193297 
L 275.091892 282.997622 
L 275.936432 285.24973 
L 276.258162 287.461622 
L 276.660324 289.150703 
L 277.66573 290.960432 
L 279.274378 292.609297 
L 280.802595 293.494054 
L 282.773189 294.057081 
L 285.10573 294.17773 
L 287.277405 294.057081 
L 289.408865 294.097297 
L 291.620757 293.614703 
L 293.631568 292.488649 
L 295.843459 290.518054 
L 296.567351 290.236541 
L 298.980324 289.834378 
L 301.47373 290.075676 
L 303.766054 290.759351 
L 305.93773 291.161514 
L 308.028973 291.121297 
L 310.120216 290.839784 
L 312.332108 291.000649 
L 314.664649 291.603892 
L 316.635243 291.845189 
L 318.967784 291.603892 
L 323.270919 290.598486 
L 327.011027 290.035459 
L 328.137081 290.035459 
L 329.625081 290.236541 
L 331.273946 290.638703 
L 333.204324 291.241946 
L 335.134703 292.126703 
L 337.024865 293.252757 
L 339.075892 294.258162 
L 341.328 294.660324 
L 343.338811 294.459243 
L 345.349622 293.896216 
L 358.540541 289.392 
L 392.121081 277.367351 
L 392.121081 277.367351 
" style="fill:none;stroke:#68fcc1;stroke-linecap:square;stroke-width:1.5;"/>
   </g>
   <g id="line2d_48">
    <path clip-path="url(#p28a8b1daab)" d="M 281.124324 192.35027 
L 281.365622 192.390486 
L 282.12973 192.631784 
L 282.934054 193.194811 
L 283.859027 194.441514 
L 284.381838 196.130595 
L 284.46227 198.342486 
L 284.301405 200.755459 
L 284.180757 202.886919 
L 284.140541 205.018378 
L 284.060108 207.431351 
L 284.019892 209.603027 
L 283.979676 211.734486 
L 283.939459 213.865946 
L 283.859027 216.278919 
L 283.818811 218.450595 
L 283.778595 220.582054 
L 283.698162 222.995027 
L 283.657946 225.408 
L 283.61773 227.539459 
L 283.537297 229.952432 
L 283.497081 232.124108 
L 283.456865 234.537081 
L 283.376432 236.668541 
L 283.336216 239.081514 
L 283.296 241.494486 
L 283.215568 243.384649 
L 283.175351 245.516108 
L 283.135135 247.929081 
L 283.094919 250.060541 
L 283.014486 252.473514 
L 282.97427 254.886486 
L 282.893838 257.017946 
L 282.853622 259.189622 
L 282.813405 261.321081 
L 282.773189 263.734054 
L 282.692757 265.865514 
L 282.652541 268.278486 
L 282.612324 270.450162 
L 282.572108 272.300108 
L 282.491676 274.471784 
L 282.451459 276.603243 
L 282.411243 278.734703 
L 282.371027 280.624865 
L 282.290595 282.756324 
L 282.250378 285.169297 
L 282.210162 287.58227 
L 282.169946 289.472432 
L 282.089514 291.603892 
L 282.049297 294.016865 
L 282.009081 296.188541 
L 281.928649 298.32 
L 281.888432 300.732973 
L 281.848216 302.864432 
L 281.767784 305.036108 
L 281.727568 307.167568 
L 281.687351 309.299027 
L 281.647135 311.430486 
L 281.606919 313.602162 
L 281.566703 315.733622 
L 281.526486 317.623784 
L 281.446054 320.036757 
L 281.405838 322.168216 
L 281.365622 324.581189 
L 281.285189 326.994162 
L 281.244973 329.125622 
L 281.164541 331.538595 
" style="fill:none;stroke:#97fca7;stroke-linecap:square;stroke-width:1.5;"/>
   </g>
   <g id="line2d_49">
    <path clip-path="url(#p28a8b1daab)" d="M 140.367568 304.955676 
L 141.332757 304.955676 
L 143.062054 304.835027 
L 147.244541 304.191568 
L 199.203892 295.384216 
L 201.817946 294.620108 
L 204.633081 293.574486 
L 206.040649 293.011459 
L 208.051459 292.488649 
L 211.711135 291.764757 
L 213.199135 291.241946 
L 215.652324 290.075676 
L 216.456649 289.512649 
L 216.899027 289.030054 
L 217.220757 288.346378 
L 217.421838 287.340973 
L 217.462054 284.887784 
L 217.743568 284.485622 
L 218.547892 283.801946 
L 220.076108 283.078054 
L 221.684757 282.796541 
L 223.253189 282.756324 
L 227.717189 282.997622 
L 231.014919 282.836757 
L 234.915892 282.354162 
L 239.098378 281.670486 
L 247.342703 280.14227 
L 251.203459 279.337946 
L 253.21427 279.096649 
L 255.184865 279.177081 
L 257.919568 279.699892 
L 259.80973 280.061838 
L 261.136865 279.981405 
L 262.624865 279.539027 
L 262.343351 279.780324 
L 262.061838 280.061838 
L 262.021622 280.222703 
L 262.102054 280.423784 
L 261.458595 279.981405 
L 260.453189 279.820541 
L 259.849946 279.820541 
L 259.005405 279.659676 
L 258.080432 279.096649 
L 257.115243 277.970595 
L 256.230486 275.718486 
L 256.069622 273.747892 
L 256.391351 271.536 
L 257.276108 269.525189 
L 258.361946 268.23827 
L 259.206486 268.198054 
L 261.257514 268.479568 
L 263.549838 269.484973 
L 265.520432 270.771892 
L 267.611676 271.696865 
L 269.340973 271.978378 
L 271.472432 272.139243 
L 276.016865 272.822919 
L 282.612324 273.747892 
L 302.31827 276.120649 
L 307.385514 276.723892 
L 307.385514 276.723892 
" style="fill:none;stroke:#c5e88a;stroke-linecap:square;stroke-width:1.5;"/>
   </g>
   <g id="line2d_50">
    <path clip-path="url(#p28a8b1daab)" d="M 393.72973 220.501622 
L 393.930811 220.582054 
L 394.051459 220.702703 
L 394.091676 220.823351 
L 394.091676 221.26573 
L 393.850378 222.271135 
L 393.166703 223.356973 
L 391.718919 224.643892 
L 389.748324 225.649297 
L 385.445189 226.493838 
L 376.758486 228.223135 
L 359.184 231.842595 
L 348.406054 234.054486 
L 339.236757 236.025081 
L 337.427027 236.99027 
L 335.939027 238.357622 
L 333.365189 242.137946 
L 325.965405 250.784432 
L 324.155676 252.232216 
L 322.345946 252.996324 
L 319.852541 253.35827 
L 317.640649 253.076757 
L 315.670054 252.352865 
L 313.820108 251.830054 
L 311.648432 250.905081 
L 309.718054 249.296432 
L 306.380108 244.550919 
L 305.052973 243.264 
L 304.851892 242.700973 
L 304.691027 241.092324 
L 304.932324 238.880432 
L 305.736649 236.789189 
L 307.264865 234.818595 
L 309.034378 233.451243 
L 310.522378 232.124108 
L 311.125622 231.279568 
L 311.24627 230.877405 
L 311.206054 229.711135 
L 310.482162 227.780757 
L 309.356108 225.769946 
L 308.511568 223.718919 
L 307.988757 221.426595 
L 307.104 219.254919 
L 306.018162 217.807135 
L 304.208432 216.399568 
L 302.31827 215.635459 
L 300.025946 215.434378 
L 298.015135 215.796324 
L 296.929297 216.198486 
L 297.049946 216.077838 
L 296.688 217.203892 
L 296.567351 219.496216 
L 297.492324 224.161297 
L 297.291243 224.603676 
L 296.527135 225.568865 
L 294.556541 227.097081 
L 292.505514 227.901405 
L 290.253405 228.142703 
L 286.151351 227.539459 
L 284.100324 227.459027 
L 281.888432 227.579676 
L 279.636324 227.378595 
L 277.746162 227.097081 
L 275.695135 227.21773 
L 273.644108 227.780757 
L 271.07027 228.343784 
L 268.576865 228.142703 
L 266.485622 227.338378 
L 264.675892 226.172108 
L 262.825946 225.287351 
L 258.643459 224.442811 
L 256.512 223.638486 
L 254.259892 223.075459 
L 251.967568 223.155892 
L 250.037189 223.718919 
L 247.825297 224.121081 
L 245.854703 224.040649 
L 243.522162 224.080865 
L 241.31027 224.724324 
L 239.178811 225.850378 
L 236.806054 226.735135 
L 234.192 227.137297 
L 232.181189 227.740541 
L 227.07373 230.716541 
L 217.260973 235.743568 
L 153.880216 269.565405 
L 143.74573 274.994595 
L 142.056649 275.879351 
L 142.056649 275.879351 
" style="fill:none;stroke:#f3c16a;stroke-linecap:square;stroke-width:1.5;"/>
   </g>
   <g id="line2d_51">
    <path clip-path="url(#p28a8b1daab)" d="M 140.367568 136.047568 
L 141.051243 136.047568 
L 142.539243 136.248649 
L 144.630486 137.012757 
L 146.681514 138.460541 
L 148.169514 140.189838 
L 149.657514 142.039784 
L 151.266162 143.769081 
L 152.955243 145.458162 
L 154.684541 147.187459 
L 156.333405 148.916757 
L 157.821405 150.444973 
L 159.349622 152.013405 
L 160.998486 153.742703 
L 162.486486 155.270919 
L 163.813622 156.63827 
L 165.502703 158.367568 
L 167.151568 160.096865 
L 168.639568 161.625081 
L 169.966703 162.992432 
L 171.454703 164.520649 
L 173.143784 166.249946 
L 174.832865 167.979243 
L 176.48173 169.708541 
L 178.170811 171.437838 
L 179.497946 172.805189 
L 181.146811 174.534486 
L 182.835892 176.263784 
L 184.323892 177.792 
L 186.012973 179.521297 
L 187.299892 180.888649 
L 188.988973 182.617946 
L 190.476973 184.146162 
L 192.166054 185.875459 
L 193.654054 187.443892 
L 195.343135 189.173189 
L 197.032216 190.902486 
L 198.520216 192.430703 
L 200.008216 193.958919 
L 201.496216 195.527351 
L 202.984216 197.055568 
L 204.673297 198.784865 
L 206.362378 200.514162 
L 208.011243 202.243459 
L 209.338378 203.610811 
L 210.987243 205.340108 
L 212.515459 206.868324 
L 214.003459 208.396541 
L 215.652324 210.166054 
L 217.341405 211.895351 
L 218.829405 213.423568 
L 220.518486 215.152865 
L 222.006486 216.681081 
L 223.695568 218.450595 
L 225.183568 219.978811 
L 226.671568 221.507027 
L 227.998703 222.874378 
L 229.486703 224.402595 
L 230.974703 225.930811 
L 232.663784 227.660108 
L 234.312649 229.389405 
L 235.800649 230.957838 
L 237.48973 232.687135 
L 239.178811 234.416432 
L 240.867892 236.14573 
L 242.355892 237.673946 
L 243.843892 239.242378 
L 245.532973 240.971676 
L 247.020973 242.499892 
L 248.669838 244.229189 
L 250.358919 245.958486 
L 251.846919 247.486703 
" style="fill:none;stroke:#ff8a48;stroke-linecap:square;stroke-width:1.5;"/>
   </g>
   <g id="line2d_52">
    <path clip-path="url(#p28a8b1daab)" d="M 337.427027 164.198919 
L 337.668324 164.279351 
L 337.949838 164.641297 
L 338.311784 165.324973 
L 338.633514 166.772757 
L 338.472649 168.622703 
L 337.668324 170.713946 
L 336.582486 172.322595 
L 331.072865 179.239784 
L 321.581838 191.545946 
L 312.211459 203.651027 
L 302.559568 216.15827 
L 296.808649 223.558054 
L 293.108757 228.70573 
L 292.425081 230.636108 
L 292.264216 232.687135 
L 292.585946 234.858811 
L 292.787027 237.271784 
L 292.384865 239.483676 
L 291.379459 241.494486 
L 289.931676 243.143351 
L 287.196973 245.07373 
L 286.231784 246.360649 
L 285.588324 247.848649 
L 285.347027 249.738811 
L 285.588324 251.789838 
L 286.513297 253.881081 
L 287.800216 255.48973 
L 289.408865 256.776649 
L 291.097946 258.626595 
L 291.942486 260.275459 
L 292.063135 260.758054 
L 291.90227 261.562378 
L 291.540324 262.406919 
L 290.776216 263.251459 
L 289.087135 264.41773 
L 286.714378 265.222054 
L 284.341622 265.463351 
L 284.502486 265.382919 
L 283.859027 266.106811 
L 282.813405 267.836108 
L 282.169946 269.766486 
L 281.043892 273.948973 
L 281.003676 275.67827 
L 281.003676 275.67827 
L 281.084108 276.643459 
L 281.043892 276.643459 
L 280.842811 276.764108 
L 280.883027 276.723892 
L 280.601514 276.924973 
L 279.917838 278.010811 
L 279.354811 279.659676 
L 279.073297 282.27373 
L 278.550486 284.405189 
L 277.263568 286.576865 
L 275.453838 288.467027 
L 274.327784 289.874595 
L 273.161514 292.006054 
L 271.834378 293.775568 
L 270.306162 294.982054 
L 268.295351 295.907027 
L 266.123676 296.309189 
L 264.313946 296.51027 
L 262.343351 297.073297 
L 258.603243 299.084108 
L 256.713081 299.606919 
L 254.340324 299.928649 
L 252.409946 300.572108 
L 250.640432 301.698162 
L 249.031784 303.025297 
L 247.26227 304.312216 
L 245.130811 305.478486 
L 243.602595 306.483892 
L 242.034162 307.851243 
L 240.666811 309.500108 
L 237.328865 312.998919 
L 236.041946 314.889081 
L 235.398486 316.296649 
L 235.277838 317.382486 
L 235.398486 318.307459 
L 236.122378 319.755243 
L 235.961514 319.674811 
L 236.283243 319.674811 
L 237.690811 318.991135 
L 239.178811 318.025946 
L 240.345081 317.100973 
L 241.511351 315.492324 
L 241.511351 315.130378 
L 241.31027 314.285838 
L 240.385297 312.958703 
L 238.736432 311.872865 
L 236.564757 311.148973 
L 235.076757 311.068541 
L 233.749622 311.510919 
L 233.87027 311.350054 
L 233.87027 311.309838 
L 233.789838 311.712 
L 233.789838 313.240216 
L 233.990919 316.537946 
L 233.87027 318.669405 
L 233.548541 320.800865 
L 232.985514 322.932324 
L 231.980108 325.144216 
L 230.532324 326.833297 
L 228.762811 328.160432 
L 225.264 330.090811 
L 223.45427 331.297297 
L 221.845622 332.22227 
L 217.220757 333.951568 
L 215.209946 335.158054 
L 213.440432 336.364541 
L 209.981838 338.496 
L 206.483027 341.391568 
L 204.914595 342.799135 
L 203.426595 344.327351 
L 198.80173 349.515243 
L 196.067027 352.451027 
L 192.005189 357.397622 
L 189.391135 360.816 
L 181.468541 371.634162 
L 169.644973 387.881514 
L 169.644973 387.881514 
" style="fill:none;stroke:#ff4824;stroke-linecap:square;stroke-width:1.5;"/>
   </g>
   <g id="line2d_53">
    <path clip-path="url(#p28a8b1daab)" d="M 196.67027 445.712432 
L 196.992 445.712432 
L 198.238703 445.471135 
L 199.887568 444.747243 
L 201.657081 443.299459 
L 203.024432 441.449514 
L 206.281946 436.020324 
L 210.866595 428.741189 
L 220.920649 412.614486 
L 243.884108 376.01773 
L 247.865514 370.387459 
L 249.072 368.617946 
L 250.519784 366.808216 
L 252.329514 365.481081 
L 254.340324 364.596324 
L 256.351135 364.033297 
L 258.281514 363.349622 
L 271.190919 359.810595 
L 277.786378 357.920432 
L 279.314595 357.880216 
L 280.561297 358.322595 
L 282.451459 359.529081 
L 283.939459 361.177946 
L 285.025297 363.47027 
L 286.030703 368.658162 
L 286.473081 369.784216 
L 286.915459 372.197189 
L 286.714378 374.127568 
L 286.272 374.489514 
L 284.944865 375.052541 
L 282.732973 375.253622 
L 280.521081 374.690595 
L 279.636324 373.805838 
L 279.234162 373.242811 
L 279.354811 373.443892 
L 279.033081 372.39827 
L 278.027676 370.467892 
L 276.740757 368.939676 
L 273.684324 365.682162 
L 272.598486 364.194162 
L 272.638703 363.430054 
L 272.960432 361.700757 
L 273.845189 359.689946 
L 275.252757 357.920432 
L 277.303784 356.512865 
L 279.716757 355.748757 
L 282.210162 355.748757 
L 284.381838 356.352 
L 286.312216 357.478054 
L 287.840432 359.086703 
L 288.92627 361.057297 
L 290.41427 366.164757 
L 290.776216 368.899459 
L 291.299027 371.030919 
L 292.143568 372.599351 
L 293.148973 373.725405 
L 294.275027 374.248216 
L 296.165189 374.650378 
L 298.457514 374.52973 
L 300.146595 373.926486 
L 302.036757 372.639568 
L 304.570378 369.703784 
L 308.028973 366.727784 
L 309.235459 365.078919 
L 310.441946 362.987676 
L 312.854919 359.408432 
L 314.021189 357.357405 
L 314.825514 355.587892 
L 317.680865 350.158703 
L 323.110054 336.68627 
L 327.493622 324.299676 
L 331.113081 313.923892 
L 333.485838 307.609946 
L 334.571676 305.76 
L 336.461838 301.698162 
L 338.553081 297.636324 
L 341.207351 291.20173 
L 344.062703 283.158486 
L 347.561514 272.983784 
L 359.023135 238.960865 
L 369.720649 207.190054 
L 372.736865 198.30227 
L 382.67027 168.823784 
L 393.206919 137.575784 
L 393.206919 137.575784 
" style="fill:none;stroke:#ff0000;stroke-linecap:square;stroke-width:1.5;"/>
   </g>
   <g id="patch_3">
    <path d="M 72 512.64 
L 72 69.12 
" style="fill:none;stroke:#000000;stroke-linecap:square;stroke-linejoin:miter;stroke-width:0.8;"/>
   </g>
   <g id="patch_4">
    <path d="M 518.4 512.64 
L 518.4 69.12 
" style="fill:none;stroke:#000000;stroke-linecap:square;stroke-linejoin:miter;stroke-width:0.8;"/>
   </g>
   <g id="patch_5">
    <path d="M 72 512.64 
L 518.4 512.64 
" style="fill:none;stroke:#000000;stroke-linecap:square;stroke-linejoin:miter;stroke-width:0.8;"/>
   </g>
   <g id="patch_6">
    <path d="M 72 69.12 
L 518.4 69.12 
" style="fill:none;stroke:#000000;stroke-linecap:square;stroke-linejoin:miter;stroke-width:0.8;"/>
   </g>
   <g id="text_13">
    <!-- 1 -->
    <defs>
     <path d="M 14.203125 0 
L 14.203125 5.171875 
L 26.90625 5.171875 
L 26.90625 65.828125 
L 12.203125 56.296875 
L 12.203125 62.703125 
L 29.984375 74.21875 
L 36.71875 74.21875 
L 36.71875 5.171875 
L 49.421875 5.171875 
L 49.421875 0 
z
" id="DejaVuSerif-31"/>
    </defs>
    <g transform="translate(137.186318 389.40973)scale(0.1 -0.1)">
     <use xlink:href="#DejaVuSerif-31"/>
    </g>
   </g>
   <g id="text_14">
    <!-- 1 -->
    <g transform="translate(390.54848 192.35027)scale(0.1 -0.1)">
     <use xlink:href="#DejaVuSerif-31"/>
    </g>
   </g>
   <g id="text_15">
    <!-- 2 -->
    <defs>
     <path d="M 12.796875 55.515625 
L 7.328125 55.515625 
L 7.328125 68.5 
Q 12.546875 71.296875 17.84375 72.75 
Q 23.140625 74.21875 28.21875 74.21875 
Q 39.59375 74.21875 46.1875 68.703125 
Q 52.78125 63.1875 52.78125 53.71875 
Q 52.78125 43.015625 37.84375 28.125 
Q 36.671875 27 36.078125 26.421875 
L 17.671875 8.015625 
L 48.09375 8.015625 
L 48.09375 17 
L 53.8125 17 
L 53.8125 0 
L 6.78125 0 
L 6.78125 5.328125 
L 28.90625 27.390625 
Q 36.234375 34.71875 39.359375 40.84375 
Q 42.484375 46.96875 42.484375 53.71875 
Q 42.484375 61.078125 38.640625 65.234375 
Q 34.8125 69.390625 28.078125 69.390625 
Q 21.09375 69.390625 17.28125 65.921875 
Q 13.484375 62.453125 12.796875 55.515625 
z
" id="DejaVuSerif-32"/>
    </defs>
    <g transform="translate(446.851182 192.35027)scale(0.1 -0.1)">
     <use xlink:href="#DejaVuSerif-32"/>
    </g>
   </g>
   <g id="text_16">
    <!-- 2 -->
    <g transform="translate(221.640372 361.258378)scale(0.1 -0.1)">
     <use xlink:href="#DejaVuSerif-32"/>
    </g>
   </g>
   <g id="text_17">
    <!-- 3 -->
    <defs>
     <path d="M 9.71875 69.828125 
Q 15.4375 71.96875 20.671875 73.09375 
Q 25.921875 74.21875 30.515625 74.21875 
Q 41.21875 74.21875 47.21875 69.59375 
Q 53.21875 64.984375 53.21875 56.78125 
Q 53.21875 50.203125 49.0625 45.78125 
Q 44.921875 41.359375 37.3125 39.796875 
Q 46.296875 38.53125 51.25 33.28125 
Q 56.203125 28.03125 56.203125 19.671875 
Q 56.203125 9.46875 49.34375 4.015625 
Q 42.484375 -1.421875 29.59375 -1.421875 
Q 23.875 -1.421875 18.421875 -0.1875 
Q 12.984375 1.03125 7.625 3.515625 
L 7.625 17.671875 
L 13.09375 17.671875 
Q 13.578125 10.640625 17.828125 7.03125 
Q 22.078125 3.421875 29.78125 3.421875 
Q 37.25 3.421875 41.578125 7.734375 
Q 45.90625 12.0625 45.90625 19.578125 
Q 45.90625 28.171875 41.453125 32.59375 
Q 37.015625 37.015625 28.421875 37.015625 
L 23.78125 37.015625 
L 23.78125 42 
L 26.21875 42 
Q 34.765625 42 39.03125 45.53125 
Q 43.3125 49.078125 43.3125 56.203125 
Q 43.3125 62.59375 39.796875 65.984375 
Q 36.28125 69.390625 29.6875 69.390625 
Q 23.09375 69.390625 19.453125 66.265625 
Q 15.828125 63.140625 15.1875 56.984375 
L 9.71875 56.984375 
z
" id="DejaVuSerif-33"/>
    </defs>
    <g transform="translate(398.993885 440.082162)scale(0.1 -0.1)">
     <use xlink:href="#DejaVuSerif-33"/>
    </g>
   </g>
   <g id="text_18">
    <!-- 3 -->
    <g transform="translate(221.640372 192.35027)scale(0.1 -0.1)">
     <use xlink:href="#DejaVuSerif-33"/>
    </g>
   </g>
   <g id="text_19">
    <!-- 4 -->
    <defs>
     <path d="M 34.90625 24.703125 
L 34.90625 63.484375 
L 10.015625 24.703125 
z
M 56.390625 0 
L 23.1875 0 
L 23.1875 5.171875 
L 34.90625 5.171875 
L 34.90625 19.484375 
L 3.078125 19.484375 
L 3.078125 24.8125 
L 35.015625 74.21875 
L 44.671875 74.21875 
L 44.671875 24.703125 
L 58.59375 24.703125 
L 58.59375 19.484375 
L 44.671875 19.484375 
L 44.671875 5.171875 
L 56.390625 5.171875 
z
" id="DejaVuSerif-34"/>
    </defs>
    <g transform="translate(221.640372 136.047568)scale(0.1 -0.1)">
     <use xlink:href="#DejaVuSerif-34"/>
    </g>
   </g>
   <g id="text_20">
    <!-- 4 -->
    <g transform="translate(390.54848 361.258378)scale(0.1 -0.1)">
     <use xlink:href="#DejaVuSerif-34"/>
    </g>
   </g>
   <g id="text_21">
    <!-- 5 -->
    <defs>
     <path d="M 50.296875 72.90625 
L 50.296875 64.890625 
L 16.890625 64.890625 
L 16.890625 44 
Q 19.4375 45.75 22.828125 46.625 
Q 26.21875 47.515625 30.421875 47.515625 
Q 42.234375 47.515625 49.0625 40.96875 
Q 55.90625 34.421875 55.90625 23.09375 
Q 55.90625 11.53125 49 5.046875 
Q 42.09375 -1.421875 29.59375 -1.421875 
Q 24.5625 -1.421875 19.28125 -0.1875 
Q 14.015625 1.03125 8.5 3.515625 
L 8.5 17.671875 
L 14.015625 17.671875 
Q 14.453125 10.75 18.421875 7.078125 
Q 22.40625 3.421875 29.59375 3.421875 
Q 37.3125 3.421875 41.453125 8.5 
Q 45.609375 13.578125 45.609375 23.09375 
Q 45.609375 32.5625 41.484375 37.609375 
Q 37.359375 42.671875 29.59375 42.671875 
Q 25.203125 42.671875 21.84375 41.109375 
Q 18.5 39.546875 15.921875 36.28125 
L 11.71875 36.28125 
L 11.71875 72.90625 
z
" id="DejaVuSerif-35"/>
    </defs>
    <g transform="translate(446.851182 304.955676)scale(0.1 -0.1)">
     <use xlink:href="#DejaVuSerif-35"/>
    </g>
   </g>
   <g id="text_22">
    <!-- 5 -->
    <g transform="translate(193.48902 248.652973)scale(0.1 -0.1)">
     <use xlink:href="#DejaVuSerif-35"/>
    </g>
   </g>
   <g id="text_23">
    <!-- 6 -->
    <defs>
     <path d="M 32.71875 3.421875 
Q 39.59375 3.421875 43.296875 8.46875 
Q 47.015625 13.53125 47.015625 23 
Q 47.015625 32.46875 43.296875 37.515625 
Q 39.59375 42.578125 32.71875 42.578125 
Q 25.734375 42.578125 22.0625 37.6875 
Q 18.40625 32.8125 18.40625 23.578125 
Q 18.40625 13.875 22.109375 8.640625 
Q 25.828125 3.421875 32.71875 3.421875 
z
M 16.796875 40.140625 
Q 20.125 43.796875 24.3125 45.59375 
Q 28.515625 47.40625 33.796875 47.40625 
Q 44.671875 47.40625 51 40.859375 
Q 57.328125 34.328125 57.328125 23 
Q 57.328125 11.921875 50.515625 5.25 
Q 43.703125 -1.421875 32.328125 -1.421875 
Q 19.96875 -1.421875 13.328125 7.78125 
Q 6.6875 17 6.6875 34.078125 
Q 6.6875 53.21875 14.546875 63.71875 
Q 22.40625 74.21875 36.71875 74.21875 
Q 40.578125 74.21875 44.828125 73.484375 
Q 49.078125 72.75 53.515625 71.296875 
L 53.515625 59.28125 
L 48 59.28125 
Q 47.40625 64.203125 44.234375 66.796875 
Q 41.0625 69.390625 35.6875 69.390625 
Q 26.21875 69.390625 21.578125 62.203125 
Q 16.9375 55.03125 16.796875 40.140625 
z
" id="DejaVuSerif-36"/>
    </defs>
    <g transform="translate(137.186318 248.652973)scale(0.1 -0.1)">
     <use xlink:href="#DejaVuSerif-36"/>
    </g>
   </g>
   <g id="text_24">
    <!-- 6 -->
    <g transform="translate(390.54848 276.804324)scale(0.1 -0.1)">
     <use xlink:href="#DejaVuSerif-36"/>
    </g>
   </g>
   <g id="text_25">
    <!-- 7 -->
    <defs>
     <path d="M 56.390625 67.921875 
L 27.875 0 
L 20.609375 0 
L 47.796875 64.890625 
L 14.109375 64.890625 
L 14.109375 55.90625 
L 8.40625 55.90625 
L 8.40625 72.90625 
L 56.390625 72.90625 
z
" id="DejaVuSerif-37"/>
    </defs>
    <g transform="translate(277.943074 192.35027)scale(0.1 -0.1)">
     <use xlink:href="#DejaVuSerif-37"/>
    </g>
   </g>
   <g id="text_26">
    <!-- 7 -->
    <g transform="translate(277.943074 333.107027)scale(0.1 -0.1)">
     <use xlink:href="#DejaVuSerif-37"/>
    </g>
   </g>
   <g id="text_27">
    <!-- 8 -->
    <defs>
     <path d="M 46.578125 19.921875 
Q 46.578125 27.734375 42.6875 32.046875 
Q 38.8125 36.375 31.78125 36.375 
Q 24.75 36.375 20.875 32.046875 
Q 17 27.734375 17 19.921875 
Q 17 12.0625 20.875 7.734375 
Q 24.75 3.421875 31.78125 3.421875 
Q 38.8125 3.421875 42.6875 7.734375 
Q 46.578125 12.0625 46.578125 19.921875 
z
M 44.578125 55.328125 
Q 44.578125 61.96875 41.203125 65.671875 
Q 37.84375 69.390625 31.78125 69.390625 
Q 25.78125 69.390625 22.390625 65.671875 
Q 19 61.96875 19 55.328125 
Q 19 48.640625 22.390625 44.921875 
Q 25.78125 41.21875 31.78125 41.21875 
Q 37.84375 41.21875 41.203125 44.921875 
Q 44.578125 48.640625 44.578125 55.328125 
z
M 39.3125 38.8125 
Q 47.609375 37.703125 52.25 32.6875 
Q 56.890625 27.6875 56.890625 19.921875 
Q 56.890625 9.671875 50.390625 4.125 
Q 43.890625 -1.421875 31.78125 -1.421875 
Q 19.734375 -1.421875 13.203125 4.125 
Q 6.6875 9.671875 6.6875 19.921875 
Q 6.6875 27.6875 11.328125 32.6875 
Q 15.96875 37.703125 24.3125 38.8125 
Q 16.9375 40.140625 13 44.40625 
Q 9.078125 48.6875 9.078125 55.328125 
Q 9.078125 64.109375 15.125 69.15625 
Q 21.1875 74.21875 31.78125 74.21875 
Q 42.390625 74.21875 48.4375 69.15625 
Q 54.5 64.109375 54.5 55.328125 
Q 54.5 48.6875 50.5625 44.40625 
Q 46.625 40.140625 39.3125 38.8125 
z
" id="DejaVuSerif-38"/>
    </defs>
    <g transform="translate(137.186318 304.955676)scale(0.1 -0.1)">
     <use xlink:href="#DejaVuSerif-38"/>
    </g>
   </g>
   <g id="text_28">
    <!-- 8 -->
    <g transform="translate(306.094426 276.804324)scale(0.1 -0.1)">
     <use xlink:href="#DejaVuSerif-38"/>
    </g>
   </g>
   <g id="text_29">
    <!-- 9 -->
    <defs>
     <path d="M 46.78125 32.671875 
Q 43.5 29 39.25 27.1875 
Q 35.015625 25.390625 29.6875 25.390625 
Q 18.84375 25.390625 12.5625 31.9375 
Q 6.296875 38.484375 6.296875 49.8125 
Q 6.296875 60.890625 13.109375 67.546875 
Q 19.921875 74.21875 31.296875 74.21875 
Q 43.65625 74.21875 50.265625 65.015625 
Q 56.890625 55.8125 56.890625 38.71875 
Q 56.890625 19.578125 49.015625 9.078125 
Q 41.15625 -1.421875 26.90625 -1.421875 
Q 23.046875 -1.421875 18.796875 -0.6875 
Q 14.546875 0.046875 10.109375 1.515625 
L 10.109375 13.625 
L 15.578125 13.625 
Q 16.21875 8.6875 19.390625 6.046875 
Q 22.5625 3.421875 27.875 3.421875 
Q 37.359375 3.421875 41.984375 10.5625 
Q 46.625 17.71875 46.78125 32.671875 
z
M 30.90625 69.390625 
Q 23.96875 69.390625 20.28125 64.328125 
Q 16.609375 59.28125 16.609375 49.8125 
Q 16.609375 40.328125 20.28125 35.25 
Q 23.96875 30.171875 30.90625 30.171875 
Q 37.84375 30.171875 41.53125 35.078125 
Q 45.21875 39.984375 45.21875 49.21875 
Q 45.21875 58.9375 41.5 64.15625 
Q 37.796875 69.390625 30.90625 69.390625 
z
" id="DejaVuSerif-39"/>
    </defs>
    <g transform="translate(390.54848 220.501622)scale(0.1 -0.1)">
     <use xlink:href="#DejaVuSerif-39"/>
    </g>
   </g>
   <g id="text_30">
    <!-- 9 -->
    <g transform="translate(137.186318 276.804324)scale(0.1 -0.1)">
     <use xlink:href="#DejaVuSerif-39"/>
    </g>
   </g>
   <g id="text_31">
    <!-- 10 -->
    <defs>
     <path d="M 31.78125 3.421875 
Q 39.265625 3.421875 42.96875 11.625 
Q 46.6875 19.828125 46.6875 36.375 
Q 46.6875 52.984375 42.96875 61.1875 
Q 39.265625 69.390625 31.78125 69.390625 
Q 24.3125 69.390625 20.59375 61.1875 
Q 16.890625 52.984375 16.890625 36.375 
Q 16.890625 19.828125 20.59375 11.625 
Q 24.3125 3.421875 31.78125 3.421875 
z
M 31.78125 -1.421875 
Q 19.921875 -1.421875 13.25 8.53125 
Q 6.59375 18.5 6.59375 36.375 
Q 6.59375 54.296875 13.25 64.25 
Q 19.921875 74.21875 31.78125 74.21875 
Q 43.703125 74.21875 50.34375 64.25 
Q 56.984375 54.296875 56.984375 36.375 
Q 56.984375 18.5 50.34375 8.53125 
Q 43.703125 -1.421875 31.78125 -1.421875 
z
" id="DejaVuSerif-30"/>
    </defs>
    <g transform="translate(134.005068 136.047568)scale(0.1 -0.1)">
     <use xlink:href="#DejaVuSerif-31"/>
     <use x="63.623047" xlink:href="#DejaVuSerif-30"/>
    </g>
   </g>
   <g id="text_32">
    <!-- 10 -->
    <g transform="translate(246.610473 248.652973)scale(0.1 -0.1)">
     <use xlink:href="#DejaVuSerif-31"/>
     <use x="63.623047" xlink:href="#DejaVuSerif-30"/>
    </g>
   </g>
   <g id="text_33">
    <!-- 11 -->
    <g transform="translate(331.064527 164.198919)scale(0.1 -0.1)">
     <use xlink:href="#DejaVuSerif-31"/>
     <use x="63.623047" xlink:href="#DejaVuSerif-31"/>
    </g>
   </g>
   <g id="text_34">
    <!-- 11 -->
    <g transform="translate(162.156419 389.40973)scale(0.1 -0.1)">
     <use xlink:href="#DejaVuSerif-31"/>
     <use x="63.623047" xlink:href="#DejaVuSerif-31"/>
    </g>
   </g>
   <g id="text_35">
    <!-- 12 -->
    <g transform="translate(190.30777 445.712432)scale(0.1 -0.1)">
     <use xlink:href="#DejaVuSerif-31"/>
     <use x="63.623047" xlink:href="#DejaVuSerif-32"/>
    </g>
   </g>
   <g id="text_36">
    <!-- 12 -->
    <g transform="translate(387.36723 136.047568)scale(0.1 -0.1)">
     <use xlink:href="#DejaVuSerif-31"/>
     <use x="63.623047" xlink:href="#DejaVuSerif-32"/>
    </g>
   </g>
   <g id="text_37">
    <!-- MRPP -->
    <defs>
     <path d="M 9.8125 72.90625 
L 24.515625 72.90625 
L 43.109375 23.296875 
L 61.8125 72.90625 
L 76.515625 72.90625 
L 76.515625 0 
L 66.890625 0 
L 66.890625 64.015625 
L 48.09375 14.015625 
L 38.1875 14.015625 
L 19.390625 64.015625 
L 19.390625 0 
L 9.8125 0 
z
" id="DejaVuSans-4d"/>
     <path d="M 44.390625 34.1875 
Q 47.5625 33.109375 50.5625 29.59375 
Q 53.5625 26.078125 56.59375 19.921875 
L 66.609375 0 
L 56 0 
L 46.6875 18.703125 
Q 43.0625 26.03125 39.671875 28.421875 
Q 36.28125 30.8125 30.421875 30.8125 
L 19.671875 30.8125 
L 19.671875 0 
L 9.8125 0 
L 9.8125 72.90625 
L 32.078125 72.90625 
Q 44.578125 72.90625 50.734375 67.671875 
Q 56.890625 62.453125 56.890625 51.90625 
Q 56.890625 45.015625 53.6875 40.46875 
Q 50.484375 35.9375 44.390625 34.1875 
z
M 19.671875 64.796875 
L 19.671875 38.921875 
L 32.078125 38.921875 
Q 39.203125 38.921875 42.84375 42.21875 
Q 46.484375 45.515625 46.484375 51.90625 
Q 46.484375 58.296875 42.84375 61.546875 
Q 39.203125 64.796875 32.078125 64.796875 
z
" id="DejaVuSans-52"/>
     <path d="M 19.671875 64.796875 
L 19.671875 37.40625 
L 32.078125 37.40625 
Q 38.96875 37.40625 42.71875 40.96875 
Q 46.484375 44.53125 46.484375 51.125 
Q 46.484375 57.671875 42.71875 61.234375 
Q 38.96875 64.796875 32.078125 64.796875 
z
M 9.8125 72.90625 
L 32.078125 72.90625 
Q 44.34375 72.90625 50.609375 67.359375 
Q 56.890625 61.8125 56.890625 51.125 
Q 56.890625 40.328125 50.609375 34.8125 
Q 44.34375 29.296875 32.078125 29.296875 
L 19.671875 29.296875 
L 19.671875 0 
L 9.8125 0 
z
" id="DejaVuSans-50"/>
    </defs>
    <g transform="translate(278.618437 63.12)scale(0.12 -0.12)">
     <use xlink:href="#DejaVuSans-4d"/>
     <use x="86.279297" xlink:href="#DejaVuSans-52"/>
     <use x="155.761719" xlink:href="#DejaVuSans-50"/>
     <use x="216.064453" xlink:href="#DejaVuSans-50"/>
    </g>
   </g>
  </g>
 </g>
 <defs>
  <clipPath id="p28a8b1daab">
   <rect height="443.52" width="446.4" x="72" y="69.12"/>
  </clipPath>
 </defs>
</svg>
