<?xml version="1.0" encoding="utf-8" standalone="no"?>
<!DOCTYPE svg PUBLIC "-//W3C//DTD SVG 1.1//EN"
  "http://www.w3.org/Graphics/SVG/1.1/DTD/svg11.dtd">
<!-- Created with matplotlib (http://matplotlib.org/) -->
<svg height="576pt" version="1.1" viewBox="0 0 576 576" width="576pt" xmlns="http://www.w3.org/2000/svg" xmlns:xlink="http://www.w3.org/1999/xlink">
 <defs>
  <style type="text/css">
*{stroke-linecap:butt;stroke-linejoin:round;}
  </style>
 </defs>
 <g id="figure_1">
  <g id="patch_1">
   <path d="M 0 576 
L 576 576 
L 576 0 
L 0 0 
z
" style="fill:#ffffff;"/>
  </g>
  <g id="axes_1">
   <g id="patch_2">
    <path d="M 72 512.64 
L 518.4 512.64 
L 518.4 69.12 
L 72 69.12 
z
" style="fill:#ffffff;"/>
   </g>
   <g id="matplotlib.axis_1">
    <g id="xtick_1">
     <g id="line2d_1">
      <defs>
       <path d="M 0 0 
L 0 3.5 
" id="mee9b0d2a5e" style="stroke:#000000;stroke-width:0.8;"/>
      </defs>
      <g>
       <use style="stroke:#000000;stroke-width:0.8;" x="72" xlink:href="#mee9b0d2a5e" y="512.64"/>
      </g>
     </g>
     <g id="text_1">
      <!-- −1 -->
      <defs>
       <path d="M 10.59375 35.5 
L 73.1875 35.5 
L 73.1875 27.203125 
L 10.59375 27.203125 
z
" id="DejaVuSans-2212"/>
       <path d="M 12.40625 8.296875 
L 28.515625 8.296875 
L 28.515625 63.921875 
L 10.984375 60.40625 
L 10.984375 69.390625 
L 28.421875 72.90625 
L 38.28125 72.90625 
L 38.28125 8.296875 
L 54.390625 8.296875 
L 54.390625 0 
L 12.40625 0 
z
" id="DejaVuSans-31"/>
      </defs>
      <g transform="translate(64.628906 527.238438)scale(0.1 -0.1)">
       <use xlink:href="#DejaVuSans-2212"/>
       <use x="83.789062" xlink:href="#DejaVuSans-31"/>
      </g>
     </g>
    </g>
    <g id="xtick_2">
     <g id="line2d_2">
      <g>
       <use style="stroke:#000000;stroke-width:0.8;" x="124.517647" xlink:href="#mee9b0d2a5e" y="512.64"/>
      </g>
     </g>
     <g id="text_2">
      <!-- 0 -->
      <defs>
       <path d="M 31.78125 66.40625 
Q 24.171875 66.40625 20.328125 58.90625 
Q 16.5 51.421875 16.5 36.375 
Q 16.5 21.390625 20.328125 13.890625 
Q 24.171875 6.390625 31.78125 6.390625 
Q 39.453125 6.390625 43.28125 13.890625 
Q 47.125 21.390625 47.125 36.375 
Q 47.125 51.421875 43.28125 58.90625 
Q 39.453125 66.40625 31.78125 66.40625 
z
M 31.78125 74.21875 
Q 44.046875 74.21875 50.515625 64.515625 
Q 56.984375 54.828125 56.984375 36.375 
Q 56.984375 17.96875 50.515625 8.265625 
Q 44.046875 -1.421875 31.78125 -1.421875 
Q 19.53125 -1.421875 13.0625 8.265625 
Q 6.59375 17.96875 6.59375 36.375 
Q 6.59375 54.828125 13.0625 64.515625 
Q 19.53125 74.21875 31.78125 74.21875 
z
" id="DejaVuSans-30"/>
      </defs>
      <g transform="translate(121.336397 527.238438)scale(0.1 -0.1)">
       <use xlink:href="#DejaVuSans-30"/>
      </g>
     </g>
    </g>
    <g id="xtick_3">
     <g id="line2d_3">
      <g>
       <use style="stroke:#000000;stroke-width:0.8;" x="177.035294" xlink:href="#mee9b0d2a5e" y="512.64"/>
      </g>
     </g>
     <g id="text_3">
      <!-- 1 -->
      <g transform="translate(173.854044 527.238438)scale(0.1 -0.1)">
       <use xlink:href="#DejaVuSans-31"/>
      </g>
     </g>
    </g>
    <g id="xtick_4">
     <g id="line2d_4">
      <g>
       <use style="stroke:#000000;stroke-width:0.8;" x="229.552941" xlink:href="#mee9b0d2a5e" y="512.64"/>
      </g>
     </g>
     <g id="text_4">
      <!-- 2 -->
      <defs>
       <path d="M 19.1875 8.296875 
L 53.609375 8.296875 
L 53.609375 0 
L 7.328125 0 
L 7.328125 8.296875 
Q 12.9375 14.109375 22.625 23.890625 
Q 32.328125 33.6875 34.8125 36.53125 
Q 39.546875 41.84375 41.421875 45.53125 
Q 43.3125 49.21875 43.3125 52.78125 
Q 43.3125 58.59375 39.234375 62.25 
Q 35.15625 65.921875 28.609375 65.921875 
Q 23.96875 65.921875 18.8125 64.3125 
Q 13.671875 62.703125 7.8125 59.421875 
L 7.8125 69.390625 
Q 13.765625 71.78125 18.9375 73 
Q 24.125 74.21875 28.421875 74.21875 
Q 39.75 74.21875 46.484375 68.546875 
Q 53.21875 62.890625 53.21875 53.421875 
Q 53.21875 48.921875 51.53125 44.890625 
Q 49.859375 40.875 45.40625 35.40625 
Q 44.1875 33.984375 37.640625 27.21875 
Q 31.109375 20.453125 19.1875 8.296875 
z
" id="DejaVuSans-32"/>
      </defs>
      <g transform="translate(226.371691 527.238438)scale(0.1 -0.1)">
       <use xlink:href="#DejaVuSans-32"/>
      </g>
     </g>
    </g>
    <g id="xtick_5">
     <g id="line2d_5">
      <g>
       <use style="stroke:#000000;stroke-width:0.8;" x="282.070588" xlink:href="#mee9b0d2a5e" y="512.64"/>
      </g>
     </g>
     <g id="text_5">
      <!-- 3 -->
      <defs>
       <path d="M 40.578125 39.3125 
Q 47.65625 37.796875 51.625 33 
Q 55.609375 28.21875 55.609375 21.1875 
Q 55.609375 10.40625 48.1875 4.484375 
Q 40.765625 -1.421875 27.09375 -1.421875 
Q 22.515625 -1.421875 17.65625 -0.515625 
Q 12.796875 0.390625 7.625 2.203125 
L 7.625 11.71875 
Q 11.71875 9.328125 16.59375 8.109375 
Q 21.484375 6.890625 26.8125 6.890625 
Q 36.078125 6.890625 40.9375 10.546875 
Q 45.796875 14.203125 45.796875 21.1875 
Q 45.796875 27.640625 41.28125 31.265625 
Q 36.765625 34.90625 28.71875 34.90625 
L 20.21875 34.90625 
L 20.21875 43.015625 
L 29.109375 43.015625 
Q 36.375 43.015625 40.234375 45.921875 
Q 44.09375 48.828125 44.09375 54.296875 
Q 44.09375 59.90625 40.109375 62.90625 
Q 36.140625 65.921875 28.71875 65.921875 
Q 24.65625 65.921875 20.015625 65.03125 
Q 15.375 64.15625 9.8125 62.3125 
L 9.8125 71.09375 
Q 15.4375 72.65625 20.34375 73.4375 
Q 25.25 74.21875 29.59375 74.21875 
Q 40.828125 74.21875 47.359375 69.109375 
Q 53.90625 64.015625 53.90625 55.328125 
Q 53.90625 49.265625 50.4375 45.09375 
Q 46.96875 40.921875 40.578125 39.3125 
z
" id="DejaVuSans-33"/>
      </defs>
      <g transform="translate(278.889338 527.238438)scale(0.1 -0.1)">
       <use xlink:href="#DejaVuSans-33"/>
      </g>
     </g>
    </g>
    <g id="xtick_6">
     <g id="line2d_6">
      <g>
       <use style="stroke:#000000;stroke-width:0.8;" x="334.588235" xlink:href="#mee9b0d2a5e" y="512.64"/>
      </g>
     </g>
     <g id="text_6">
      <!-- 4 -->
      <defs>
       <path d="M 37.796875 64.3125 
L 12.890625 25.390625 
L 37.796875 25.390625 
z
M 35.203125 72.90625 
L 47.609375 72.90625 
L 47.609375 25.390625 
L 58.015625 25.390625 
L 58.015625 17.1875 
L 47.609375 17.1875 
L 47.609375 0 
L 37.796875 0 
L 37.796875 17.1875 
L 4.890625 17.1875 
L 4.890625 26.703125 
z
" id="DejaVuSans-34"/>
      </defs>
      <g transform="translate(331.406985 527.238438)scale(0.1 -0.1)">
       <use xlink:href="#DejaVuSans-34"/>
      </g>
     </g>
    </g>
    <g id="xtick_7">
     <g id="line2d_7">
      <g>
       <use style="stroke:#000000;stroke-width:0.8;" x="387.105882" xlink:href="#mee9b0d2a5e" y="512.64"/>
      </g>
     </g>
     <g id="text_7">
      <!-- 5 -->
      <defs>
       <path d="M 10.796875 72.90625 
L 49.515625 72.90625 
L 49.515625 64.59375 
L 19.828125 64.59375 
L 19.828125 46.734375 
Q 21.96875 47.46875 24.109375 47.828125 
Q 26.265625 48.1875 28.421875 48.1875 
Q 40.625 48.1875 47.75 41.5 
Q 54.890625 34.8125 54.890625 23.390625 
Q 54.890625 11.625 47.5625 5.09375 
Q 40.234375 -1.421875 26.90625 -1.421875 
Q 22.3125 -1.421875 17.546875 -0.640625 
Q 12.796875 0.140625 7.71875 1.703125 
L 7.71875 11.625 
Q 12.109375 9.234375 16.796875 8.0625 
Q 21.484375 6.890625 26.703125 6.890625 
Q 35.15625 6.890625 40.078125 11.328125 
Q 45.015625 15.765625 45.015625 23.390625 
Q 45.015625 31 40.078125 35.4375 
Q 35.15625 39.890625 26.703125 39.890625 
Q 22.75 39.890625 18.8125 39.015625 
Q 14.890625 38.140625 10.796875 36.28125 
z
" id="DejaVuSans-35"/>
      </defs>
      <g transform="translate(383.924632 527.238438)scale(0.1 -0.1)">
       <use xlink:href="#DejaVuSans-35"/>
      </g>
     </g>
    </g>
    <g id="xtick_8">
     <g id="line2d_8">
      <g>
       <use style="stroke:#000000;stroke-width:0.8;" x="439.623529" xlink:href="#mee9b0d2a5e" y="512.64"/>
      </g>
     </g>
     <g id="text_8">
      <!-- 6 -->
      <defs>
       <path d="M 33.015625 40.375 
Q 26.375 40.375 22.484375 35.828125 
Q 18.609375 31.296875 18.609375 23.390625 
Q 18.609375 15.53125 22.484375 10.953125 
Q 26.375 6.390625 33.015625 6.390625 
Q 39.65625 6.390625 43.53125 10.953125 
Q 47.40625 15.53125 47.40625 23.390625 
Q 47.40625 31.296875 43.53125 35.828125 
Q 39.65625 40.375 33.015625 40.375 
z
M 52.59375 71.296875 
L 52.59375 62.3125 
Q 48.875 64.0625 45.09375 64.984375 
Q 41.3125 65.921875 37.59375 65.921875 
Q 27.828125 65.921875 22.671875 59.328125 
Q 17.53125 52.734375 16.796875 39.40625 
Q 19.671875 43.65625 24.015625 45.921875 
Q 28.375 48.1875 33.59375 48.1875 
Q 44.578125 48.1875 50.953125 41.515625 
Q 57.328125 34.859375 57.328125 23.390625 
Q 57.328125 12.15625 50.6875 5.359375 
Q 44.046875 -1.421875 33.015625 -1.421875 
Q 20.359375 -1.421875 13.671875 8.265625 
Q 6.984375 17.96875 6.984375 36.375 
Q 6.984375 53.65625 15.1875 63.9375 
Q 23.390625 74.21875 37.203125 74.21875 
Q 40.921875 74.21875 44.703125 73.484375 
Q 48.484375 72.75 52.59375 71.296875 
z
" id="DejaVuSans-36"/>
      </defs>
      <g transform="translate(436.442279 527.238438)scale(0.1 -0.1)">
       <use xlink:href="#DejaVuSans-36"/>
      </g>
     </g>
    </g>
    <g id="xtick_9">
     <g id="line2d_9">
      <g>
       <use style="stroke:#000000;stroke-width:0.8;" x="492.141176" xlink:href="#mee9b0d2a5e" y="512.64"/>
      </g>
     </g>
     <g id="text_9">
      <!-- 7 -->
      <defs>
       <path d="M 8.203125 72.90625 
L 55.078125 72.90625 
L 55.078125 68.703125 
L 28.609375 0 
L 18.3125 0 
L 43.21875 64.59375 
L 8.203125 64.59375 
z
" id="DejaVuSans-37"/>
      </defs>
      <g transform="translate(488.959926 527.238438)scale(0.1 -0.1)">
       <use xlink:href="#DejaVuSans-37"/>
      </g>
     </g>
    </g>
   </g>
   <g id="matplotlib.axis_2">
    <g id="ytick_1">
     <g id="line2d_10">
      <defs>
       <path d="M 0 0 
L -3.5 0 
" id="m4deeb2b975" style="stroke:#000000;stroke-width:0.8;"/>
      </defs>
      <g>
       <use style="stroke:#000000;stroke-width:0.8;" x="72" xlink:href="#m4deeb2b975" y="461.562353"/>
      </g>
     </g>
     <g id="text_10">
      <!-- 0 -->
      <g transform="translate(58.6375 465.361572)scale(0.1 -0.1)">
       <use xlink:href="#DejaVuSans-30"/>
      </g>
     </g>
    </g>
    <g id="ytick_2">
     <g id="line2d_11">
      <g>
       <use style="stroke:#000000;stroke-width:0.8;" x="72" xlink:href="#m4deeb2b975" y="409.044706"/>
      </g>
     </g>
     <g id="text_11">
      <!-- 1 -->
      <g transform="translate(58.6375 412.843925)scale(0.1 -0.1)">
       <use xlink:href="#DejaVuSans-31"/>
      </g>
     </g>
    </g>
    <g id="ytick_3">
     <g id="line2d_12">
      <g>
       <use style="stroke:#000000;stroke-width:0.8;" x="72" xlink:href="#m4deeb2b975" y="356.527059"/>
      </g>
     </g>
     <g id="text_12">
      <!-- 2 -->
      <g transform="translate(58.6375 360.326278)scale(0.1 -0.1)">
       <use xlink:href="#DejaVuSans-32"/>
      </g>
     </g>
    </g>
    <g id="ytick_4">
     <g id="line2d_13">
      <g>
       <use style="stroke:#000000;stroke-width:0.8;" x="72" xlink:href="#m4deeb2b975" y="304.009412"/>
      </g>
     </g>
     <g id="text_13">
      <!-- 3 -->
      <g transform="translate(58.6375 307.808631)scale(0.1 -0.1)">
       <use xlink:href="#DejaVuSans-33"/>
      </g>
     </g>
    </g>
    <g id="ytick_5">
     <g id="line2d_14">
      <g>
       <use style="stroke:#000000;stroke-width:0.8;" x="72" xlink:href="#m4deeb2b975" y="251.491765"/>
      </g>
     </g>
     <g id="text_14">
      <!-- 4 -->
      <g transform="translate(58.6375 255.290983)scale(0.1 -0.1)">
       <use xlink:href="#DejaVuSans-34"/>
      </g>
     </g>
    </g>
    <g id="ytick_6">
     <g id="line2d_15">
      <g>
       <use style="stroke:#000000;stroke-width:0.8;" x="72" xlink:href="#m4deeb2b975" y="198.974118"/>
      </g>
     </g>
     <g id="text_15">
      <!-- 5 -->
      <g transform="translate(58.6375 202.773336)scale(0.1 -0.1)">
       <use xlink:href="#DejaVuSans-35"/>
      </g>
     </g>
    </g>
    <g id="ytick_7">
     <g id="line2d_16">
      <g>
       <use style="stroke:#000000;stroke-width:0.8;" x="72" xlink:href="#m4deeb2b975" y="146.456471"/>
      </g>
     </g>
     <g id="text_16">
      <!-- 6 -->
      <g transform="translate(58.6375 150.255689)scale(0.1 -0.1)">
       <use xlink:href="#DejaVuSans-36"/>
      </g>
     </g>
    </g>
    <g id="ytick_8">
     <g id="line2d_17">
      <g>
       <use style="stroke:#000000;stroke-width:0.8;" x="72" xlink:href="#m4deeb2b975" y="93.938824"/>
      </g>
     </g>
     <g id="text_17">
      <!-- 7 -->
      <g transform="translate(58.6375 97.738042)scale(0.1 -0.1)">
       <use xlink:href="#DejaVuSans-37"/>
      </g>
     </g>
    </g>
   </g>
   <g id="line2d_18">
    <path clip-path="url(#p71261c3c02)" d="M 150.776471 382.785882 
" style="fill:none;stroke:#1f77b4;stroke-linecap:square;stroke-width:1.5;"/>
    <defs>
     <path d="M -5 5 
L 5 5 
L 5 -5 
L -5 -5 
z
" id="m6e097c75d2" style="stroke:#8000ff;stroke-linejoin:miter;"/>
    </defs>
    <g clip-path="url(#p71261c3c02)">
     <use style="fill:#8000ff;stroke:#8000ff;stroke-linejoin:miter;" x="150.776471" xlink:href="#m6e097c75d2" y="382.785882"/>
    </g>
   </g>
   <g id="line2d_19">
    <path clip-path="url(#p71261c3c02)" d="M 387.105882 198.974118 
" style="fill:none;stroke:#ff7f0e;stroke-linecap:square;stroke-width:1.5;"/>
    <defs>
     <path d="M 0 -5 
L -4.755283 -1.545085 
L -2.938926 4.045085 
L 2.938926 4.045085 
L 4.755283 -1.545085 
z
" id="mc90bfcad40" style="stroke:#8000ff;stroke-linejoin:miter;"/>
    </defs>
    <g clip-path="url(#p71261c3c02)">
     <use style="fill:#8000ff;stroke:#8000ff;stroke-linejoin:miter;" x="387.105882" xlink:href="#mc90bfcad40" y="198.974118"/>
    </g>
   </g>
   <g id="line2d_20">
    <path clip-path="url(#p71261c3c02)" d="M 439.623529 198.974118 
" style="fill:none;stroke:#2ca02c;stroke-linecap:square;stroke-width:1.5;"/>
    <defs>
     <path d="M -5 5 
L 5 5 
L 5 -5 
L -5 -5 
z
" id="meab1c09249" style="stroke:#2b7ff6;stroke-linejoin:miter;"/>
    </defs>
    <g clip-path="url(#p71261c3c02)">
     <use style="fill:#2b7ff6;stroke:#2b7ff6;stroke-linejoin:miter;" x="439.623529" xlink:href="#meab1c09249" y="198.974118"/>
    </g>
   </g>
   <g id="line2d_21">
    <path clip-path="url(#p71261c3c02)" d="M 229.552941 356.527059 
" style="fill:none;stroke:#d62728;stroke-linecap:square;stroke-width:1.5;"/>
    <defs>
     <path d="M 0 -5 
L -4.755283 -1.545085 
L -2.938926 4.045085 
L 2.938926 4.045085 
L 4.755283 -1.545085 
z
" id="m64a549be69" style="stroke:#2b7ff6;stroke-linejoin:miter;"/>
    </defs>
    <g clip-path="url(#p71261c3c02)">
     <use style="fill:#2b7ff6;stroke:#2b7ff6;stroke-linejoin:miter;" x="229.552941" xlink:href="#m64a549be69" y="356.527059"/>
    </g>
   </g>
   <g id="line2d_22">
    <path clip-path="url(#p71261c3c02)" d="M 387.105882 435.303529 
" style="fill:none;stroke:#9467bd;stroke-linecap:square;stroke-width:1.5;"/>
    <defs>
     <path d="M -5 5 
L 5 5 
L 5 -5 
L -5 -5 
z
" id="m6ac0a5e277" style="stroke:#2adddd;stroke-linejoin:miter;"/>
    </defs>
    <g clip-path="url(#p71261c3c02)">
     <use style="fill:#2adddd;stroke:#2adddd;stroke-linejoin:miter;" x="387.105882" xlink:href="#m6ac0a5e277" y="435.303529"/>
    </g>
   </g>
   <g id="line2d_23">
    <path clip-path="url(#p71261c3c02)" d="M 229.552941 198.974118 
" style="fill:none;stroke:#8c564b;stroke-linecap:square;stroke-width:1.5;"/>
    <defs>
     <path d="M 0 -5 
L -4.755283 -1.545085 
L -2.938926 4.045085 
L 2.938926 4.045085 
L 4.755283 -1.545085 
z
" id="m2705acdce6" style="stroke:#2adddd;stroke-linejoin:miter;"/>
    </defs>
    <g clip-path="url(#p71261c3c02)">
     <use style="fill:#2adddd;stroke:#2adddd;stroke-linejoin:miter;" x="229.552941" xlink:href="#m2705acdce6" y="198.974118"/>
    </g>
   </g>
   <g id="line2d_24">
    <path clip-path="url(#p71261c3c02)" d="M 229.552941 146.456471 
" style="fill:none;stroke:#e377c2;stroke-linecap:square;stroke-width:1.5;"/>
    <defs>
     <path d="M -5 5 
L 5 5 
L 5 -5 
L -5 -5 
z
" id="m41f2268039" style="stroke:#80ffb4;stroke-linejoin:miter;"/>
    </defs>
    <g clip-path="url(#p71261c3c02)">
     <use style="fill:#80ffb4;stroke:#80ffb4;stroke-linejoin:miter;" x="229.552941" xlink:href="#m41f2268039" y="146.456471"/>
    </g>
   </g>
   <g id="line2d_25">
    <path clip-path="url(#p71261c3c02)" d="M 387.105882 356.527059 
" style="fill:none;stroke:#7f7f7f;stroke-linecap:square;stroke-width:1.5;"/>
    <defs>
     <path d="M 0 -5 
L -4.755283 -1.545085 
L -2.938926 4.045085 
L 2.938926 4.045085 
L 4.755283 -1.545085 
z
" id="mde19ecfcac" style="stroke:#80ffb4;stroke-linejoin:miter;"/>
    </defs>
    <g clip-path="url(#p71261c3c02)">
     <use style="fill:#80ffb4;stroke:#80ffb4;stroke-linejoin:miter;" x="387.105882" xlink:href="#mde19ecfcac" y="356.527059"/>
    </g>
   </g>
   <g id="line2d_26">
    <path clip-path="url(#p71261c3c02)" d="M 439.623529 304.009412 
" style="fill:none;stroke:#bcbd22;stroke-linecap:square;stroke-width:1.5;"/>
    <defs>
     <path d="M -5 5 
L 5 5 
L 5 -5 
L -5 -5 
z
" id="mcf55c772df" style="stroke:#d4dd80;stroke-linejoin:miter;"/>
    </defs>
    <g clip-path="url(#p71261c3c02)">
     <use style="fill:#d4dd80;stroke:#d4dd80;stroke-linejoin:miter;" x="439.623529" xlink:href="#mcf55c772df" y="304.009412"/>
    </g>
   </g>
   <g id="line2d_27">
    <path clip-path="url(#p71261c3c02)" d="M 203.294118 251.491765 
" style="fill:none;stroke:#17becf;stroke-linecap:square;stroke-width:1.5;"/>
    <defs>
     <path d="M 0 -5 
L -4.755283 -1.545085 
L -2.938926 4.045085 
L 2.938926 4.045085 
L 4.755283 -1.545085 
z
" id="mc687d57ed8" style="stroke:#d4dd80;stroke-linejoin:miter;"/>
    </defs>
    <g clip-path="url(#p71261c3c02)">
     <use style="fill:#d4dd80;stroke:#d4dd80;stroke-linejoin:miter;" x="203.294118" xlink:href="#mc687d57ed8" y="251.491765"/>
    </g>
   </g>
   <g id="line2d_28">
    <path clip-path="url(#p71261c3c02)" d="M 150.776471 251.491765 
" style="fill:none;stroke:#1f77b4;stroke-linecap:square;stroke-width:1.5;"/>
    <defs>
     <path d="M -5 5 
L 5 5 
L 5 -5 
L -5 -5 
z
" id="md0f6868395" style="stroke:#ff8042;stroke-linejoin:miter;"/>
    </defs>
    <g clip-path="url(#p71261c3c02)">
     <use style="fill:#ff8042;stroke:#ff8042;stroke-linejoin:miter;" x="150.776471" xlink:href="#md0f6868395" y="251.491765"/>
    </g>
   </g>
   <g id="line2d_29">
    <path clip-path="url(#p71261c3c02)" d="M 387.105882 277.750588 
" style="fill:none;stroke:#ff7f0e;stroke-linecap:square;stroke-width:1.5;"/>
    <defs>
     <path d="M 0 -5 
L -4.755283 -1.545085 
L -2.938926 4.045085 
L 2.938926 4.045085 
L 4.755283 -1.545085 
z
" id="mf3803c1337" style="stroke:#ff8042;stroke-linejoin:miter;"/>
    </defs>
    <g clip-path="url(#p71261c3c02)">
     <use style="fill:#ff8042;stroke:#ff8042;stroke-linejoin:miter;" x="387.105882" xlink:href="#mf3803c1337" y="277.750588"/>
    </g>
   </g>
   <g id="line2d_30">
    <path clip-path="url(#p71261c3c02)" d="M 282.070588 198.974118 
" style="fill:none;stroke:#2ca02c;stroke-linecap:square;stroke-width:1.5;"/>
    <defs>
     <path d="M -5 5 
L 5 5 
L 5 -5 
L -5 -5 
z
" id="m7a3c46ec79" style="stroke:#ff0000;stroke-linejoin:miter;"/>
    </defs>
    <g clip-path="url(#p71261c3c02)">
     <use style="fill:#ff0000;stroke:#ff0000;stroke-linejoin:miter;" x="282.070588" xlink:href="#m7a3c46ec79" y="198.974118"/>
    </g>
   </g>
   <g id="line2d_31">
    <path clip-path="url(#p71261c3c02)" d="M 282.070588 330.268235 
" style="fill:none;stroke:#d62728;stroke-linecap:square;stroke-width:1.5;"/>
    <defs>
     <path d="M 0 -5 
L -4.755283 -1.545085 
L -2.938926 4.045085 
L 2.938926 4.045085 
L 4.755283 -1.545085 
z
" id="m1b0795394b" style="stroke:#ff0000;stroke-linejoin:miter;"/>
    </defs>
    <g clip-path="url(#p71261c3c02)">
     <use style="fill:#ff0000;stroke:#ff0000;stroke-linejoin:miter;" x="282.070588" xlink:href="#m1b0795394b" y="330.268235"/>
    </g>
   </g>
   <g id="line2d_32">
    <defs>
     <path d="M 0 2.5 
C 0.663008 2.5 1.29895 2.236584 1.767767 1.767767 
C 2.236584 1.29895 2.5 0.663008 2.5 0 
C 2.5 -0.663008 2.236584 -1.29895 1.767767 -1.767767 
C 1.29895 -2.236584 0.663008 -2.5 0 -2.5 
C -0.663008 -2.5 -1.29895 -2.236584 -1.767767 -1.767767 
C -2.236584 -1.29895 -2.5 -0.663008 -2.5 0 
C -2.5 0.663008 -2.236584 1.29895 -1.767767 1.767767 
C -1.29895 2.236584 -0.663008 2.5 0 2.5 
z
" id="mb417c24255" style="stroke:#000000;"/>
    </defs>
    <g clip-path="url(#p71261c3c02)">
     <use style="stroke:#000000;" x="203.294118" xlink:href="#mb417c24255" y="382.785882"/>
     <use style="stroke:#000000;" x="203.294118" xlink:href="#mb417c24255" y="330.268235"/>
     <use style="stroke:#000000;" x="255.811765" xlink:href="#mb417c24255" y="382.785882"/>
     <use style="stroke:#000000;" x="255.811765" xlink:href="#mb417c24255" y="330.268235"/>
     <use style="stroke:#000000;" x="308.329412" xlink:href="#mb417c24255" y="382.785882"/>
     <use style="stroke:#000000;" x="308.329412" xlink:href="#mb417c24255" y="330.268235"/>
     <use style="stroke:#000000;" x="360.847059" xlink:href="#mb417c24255" y="382.785882"/>
     <use style="stroke:#000000;" x="360.847059" xlink:href="#mb417c24255" y="330.268235"/>
     <use style="stroke:#000000;" x="413.364706" xlink:href="#mb417c24255" y="382.785882"/>
     <use style="stroke:#000000;" x="413.364706" xlink:href="#mb417c24255" y="330.268235"/>
     <use style="stroke:#000000;" x="203.294118" xlink:href="#mb417c24255" y="225.232941"/>
     <use style="stroke:#000000;" x="203.294118" xlink:href="#mb417c24255" y="172.715294"/>
     <use style="stroke:#000000;" x="255.811765" xlink:href="#mb417c24255" y="225.232941"/>
     <use style="stroke:#000000;" x="255.811765" xlink:href="#mb417c24255" y="172.715294"/>
     <use style="stroke:#000000;" x="308.329412" xlink:href="#mb417c24255" y="225.232941"/>
     <use style="stroke:#000000;" x="308.329412" xlink:href="#mb417c24255" y="172.715294"/>
     <use style="stroke:#000000;" x="360.847059" xlink:href="#mb417c24255" y="225.232941"/>
     <use style="stroke:#000000;" x="360.847059" xlink:href="#mb417c24255" y="172.715294"/>
     <use style="stroke:#000000;" x="413.364706" xlink:href="#mb417c24255" y="225.232941"/>
     <use style="stroke:#000000;" x="413.364706" xlink:href="#mb417c24255" y="172.715294"/>
    </g>
   </g>
   <g id="line2d_33">
    <path clip-path="url(#p71261c3c02)" d="M 223.776 382.785882 
L 222.666235 376.135426 
L 219.457201 370.20565 
L 214.496645 365.639137 
L 208.322123 362.93074 
L 201.602737 362.373956 
L 195.066639 364.029121 
L 189.422116 367.716872 
L 185.28084 373.037584 
L 183.091581 379.414675 
L 183.091581 386.157089 
L 185.28084 392.534181 
L 189.422116 397.854893 
L 195.066639 401.542644 
L 201.602737 403.197809 
L 208.322123 402.641025 
L 214.496645 399.932628 
L 219.457201 395.366115 
L 222.666235 389.436339 
L 223.776 382.785882 
" style="fill:none;stroke:#000000;stroke-dasharray:5.55,2.4;stroke-dashoffset:0;stroke-width:1.5;"/>
   </g>
   <g id="line2d_34">
    <path clip-path="url(#p71261c3c02)" d="M 209.071059 382.785882 
L 208.758048 380.910113 
L 207.852936 379.237612 
L 206.453805 377.949621 
L 204.712273 377.185714 
L 202.817062 377.028672 
L 200.973547 377.495514 
L 199.381502 378.535649 
L 198.21345 380.036362 
L 197.595966 381.835029 
L 197.595966 383.736736 
L 198.21345 385.535402 
L 199.381502 387.036116 
L 200.973547 388.076251 
L 202.817062 388.543092 
L 204.712273 388.386051 
L 206.453805 387.622144 
L 207.852936 386.334153 
L 208.758048 384.661652 
L 209.071059 382.785882 
" style="fill:none;stroke:#ff0000;stroke-linecap:square;stroke-width:1.5;"/>
   </g>
   <g id="line2d_35">
    <path clip-path="url(#p71261c3c02)" d="M 223.776 330.268235 
L 222.666235 323.617779 
L 219.457201 317.688003 
L 214.496645 313.12149 
L 208.322123 310.413093 
L 201.602737 309.856309 
L 195.066639 311.511474 
L 189.422116 315.199225 
L 185.28084 320.519937 
L 183.091581 326.897028 
L 183.091581 333.639442 
L 185.28084 340.016534 
L 189.422116 345.337246 
L 195.066639 349.024997 
L 201.602737 350.680162 
L 208.322123 350.123377 
L 214.496645 347.414981 
L 219.457201 342.848468 
L 222.666235 336.918692 
L 223.776 330.268235 
" style="fill:none;stroke:#000000;stroke-dasharray:5.55,2.4;stroke-dashoffset:0;stroke-width:1.5;"/>
   </g>
   <g id="line2d_36">
    <path clip-path="url(#p71261c3c02)" d="M 209.071059 330.268235 
L 208.758048 328.392466 
L 207.852936 326.719965 
L 206.453805 325.431974 
L 204.712273 324.668067 
L 202.817062 324.511025 
L 200.973547 324.977867 
L 199.381502 326.018002 
L 198.21345 327.518715 
L 197.595966 329.317382 
L 197.595966 331.219089 
L 198.21345 333.017755 
L 199.381502 334.518469 
L 200.973547 335.558604 
L 202.817062 336.025445 
L 204.712273 335.868404 
L 206.453805 335.104497 
L 207.852936 333.816506 
L 208.758048 332.144005 
L 209.071059 330.268235 
" style="fill:none;stroke:#ff0000;stroke-linecap:square;stroke-width:1.5;"/>
   </g>
   <g id="line2d_37">
    <path clip-path="url(#p71261c3c02)" d="M 276.293647 382.785882 
L 275.183882 376.135426 
L 271.974848 370.20565 
L 267.014293 365.639137 
L 260.83977 362.93074 
L 254.120384 362.373956 
L 247.584286 364.029121 
L 241.939763 367.716872 
L 237.798487 373.037584 
L 235.609229 379.414675 
L 235.609229 386.157089 
L 237.798487 392.534181 
L 241.939763 397.854893 
L 247.584286 401.542644 
L 254.120384 403.197809 
L 260.83977 402.641025 
L 267.014293 399.932628 
L 271.974848 395.366115 
L 275.183882 389.436339 
L 276.293647 382.785882 
" style="fill:none;stroke:#000000;stroke-dasharray:5.55,2.4;stroke-dashoffset:0;stroke-width:1.5;"/>
   </g>
   <g id="line2d_38">
    <path clip-path="url(#p71261c3c02)" d="M 261.588706 382.785882 
L 261.275695 380.910113 
L 260.370583 379.237612 
L 258.971452 377.949621 
L 257.22992 377.185714 
L 255.334709 377.028672 
L 253.491194 377.495514 
L 251.899149 378.535649 
L 250.731097 380.036362 
L 250.113613 381.835029 
L 250.113613 383.736736 
L 250.731097 385.535402 
L 251.899149 387.036116 
L 253.491194 388.076251 
L 255.334709 388.543092 
L 257.22992 388.386051 
L 258.971452 387.622144 
L 260.370583 386.334153 
L 261.275695 384.661652 
L 261.588706 382.785882 
" style="fill:none;stroke:#ff0000;stroke-linecap:square;stroke-width:1.5;"/>
   </g>
   <g id="line2d_39">
    <path clip-path="url(#p71261c3c02)" d="M 276.293647 330.268235 
L 275.183882 323.617779 
L 271.974848 317.688003 
L 267.014293 313.12149 
L 260.83977 310.413093 
L 254.120384 309.856309 
L 247.584286 311.511474 
L 241.939763 315.199225 
L 237.798487 320.519937 
L 235.609229 326.897028 
L 235.609229 333.639442 
L 237.798487 340.016534 
L 241.939763 345.337246 
L 247.584286 349.024997 
L 254.120384 350.680162 
L 260.83977 350.123377 
L 267.014293 347.414981 
L 271.974848 342.848468 
L 275.183882 336.918692 
L 276.293647 330.268235 
" style="fill:none;stroke:#000000;stroke-dasharray:5.55,2.4;stroke-dashoffset:0;stroke-width:1.5;"/>
   </g>
   <g id="line2d_40">
    <path clip-path="url(#p71261c3c02)" d="M 261.588706 330.268235 
L 261.275695 328.392466 
L 260.370583 326.719965 
L 258.971452 325.431974 
L 257.22992 324.668067 
L 255.334709 324.511025 
L 253.491194 324.977867 
L 251.899149 326.018002 
L 250.731097 327.518715 
L 250.113613 329.317382 
L 250.113613 331.219089 
L 250.731097 333.017755 
L 251.899149 334.518469 
L 253.491194 335.558604 
L 255.334709 336.025445 
L 257.22992 335.868404 
L 258.971452 335.104497 
L 260.370583 333.816506 
L 261.275695 332.144005 
L 261.588706 330.268235 
" style="fill:none;stroke:#ff0000;stroke-linecap:square;stroke-width:1.5;"/>
   </g>
   <g id="line2d_41">
    <path clip-path="url(#p71261c3c02)" d="M 328.811294 382.785882 
L 327.701529 376.135426 
L 324.492495 370.20565 
L 319.53194 365.639137 
L 313.357417 362.93074 
L 306.638031 362.373956 
L 300.101933 364.029121 
L 294.45741 367.716872 
L 290.316134 373.037584 
L 288.126876 379.414675 
L 288.126876 386.157089 
L 290.316134 392.534181 
L 294.45741 397.854893 
L 300.101933 401.542644 
L 306.638031 403.197809 
L 313.357417 402.641025 
L 319.53194 399.932628 
L 324.492495 395.366115 
L 327.701529 389.436339 
L 328.811294 382.785882 
" style="fill:none;stroke:#000000;stroke-dasharray:5.55,2.4;stroke-dashoffset:0;stroke-width:1.5;"/>
   </g>
   <g id="line2d_42">
    <path clip-path="url(#p71261c3c02)" d="M 314.106353 382.785882 
L 313.793342 380.910113 
L 312.88823 379.237612 
L 311.489099 377.949621 
L 309.747567 377.185714 
L 307.852356 377.028672 
L 306.008841 377.495514 
L 304.416796 378.535649 
L 303.248744 380.036362 
L 302.631261 381.835029 
L 302.631261 383.736736 
L 303.248744 385.535402 
L 304.416796 387.036116 
L 306.008841 388.076251 
L 307.852356 388.543092 
L 309.747567 388.386051 
L 311.489099 387.622144 
L 312.88823 386.334153 
L 313.793342 384.661652 
L 314.106353 382.785882 
" style="fill:none;stroke:#ff0000;stroke-linecap:square;stroke-width:1.5;"/>
   </g>
   <g id="line2d_43">
    <path clip-path="url(#p71261c3c02)" d="M 328.811294 330.268235 
L 327.701529 323.617779 
L 324.492495 317.688003 
L 319.53194 313.12149 
L 313.357417 310.413093 
L 306.638031 309.856309 
L 300.101933 311.511474 
L 294.45741 315.199225 
L 290.316134 320.519937 
L 288.126876 326.897028 
L 288.126876 333.639442 
L 290.316134 340.016534 
L 294.45741 345.337246 
L 300.101933 349.024997 
L 306.638031 350.680162 
L 313.357417 350.123377 
L 319.53194 347.414981 
L 324.492495 342.848468 
L 327.701529 336.918692 
L 328.811294 330.268235 
" style="fill:none;stroke:#000000;stroke-dasharray:5.55,2.4;stroke-dashoffset:0;stroke-width:1.5;"/>
   </g>
   <g id="line2d_44">
    <path clip-path="url(#p71261c3c02)" d="M 314.106353 330.268235 
L 313.793342 328.392466 
L 312.88823 326.719965 
L 311.489099 325.431974 
L 309.747567 324.668067 
L 307.852356 324.511025 
L 306.008841 324.977867 
L 304.416796 326.018002 
L 303.248744 327.518715 
L 302.631261 329.317382 
L 302.631261 331.219089 
L 303.248744 333.017755 
L 304.416796 334.518469 
L 306.008841 335.558604 
L 307.852356 336.025445 
L 309.747567 335.868404 
L 311.489099 335.104497 
L 312.88823 333.816506 
L 313.793342 332.144005 
L 314.106353 330.268235 
" style="fill:none;stroke:#ff0000;stroke-linecap:square;stroke-width:1.5;"/>
   </g>
   <g id="line2d_45">
    <path clip-path="url(#p71261c3c02)" d="M 381.328941 382.785882 
L 380.219176 376.135426 
L 377.010142 370.20565 
L 372.049587 365.639137 
L 365.875064 362.93074 
L 359.155678 362.373956 
L 352.61958 364.029121 
L 346.975057 367.716872 
L 342.833781 373.037584 
L 340.644523 379.414675 
L 340.644523 386.157089 
L 342.833781 392.534181 
L 346.975057 397.854893 
L 352.61958 401.542644 
L 359.155678 403.197809 
L 365.875064 402.641025 
L 372.049587 399.932628 
L 377.010142 395.366115 
L 380.219176 389.436339 
L 381.328941 382.785882 
" style="fill:none;stroke:#000000;stroke-dasharray:5.55,2.4;stroke-dashoffset:0;stroke-width:1.5;"/>
   </g>
   <g id="line2d_46">
    <path clip-path="url(#p71261c3c02)" d="M 366.624 382.785882 
L 366.310989 380.910113 
L 365.405877 379.237612 
L 364.006746 377.949621 
L 362.265214 377.185714 
L 360.370003 377.028672 
L 358.526488 377.495514 
L 356.934443 378.535649 
L 355.766391 380.036362 
L 355.148908 381.835029 
L 355.148908 383.736736 
L 355.766391 385.535402 
L 356.934443 387.036116 
L 358.526488 388.076251 
L 360.370003 388.543092 
L 362.265214 388.386051 
L 364.006746 387.622144 
L 365.405877 386.334153 
L 366.310989 384.661652 
L 366.624 382.785882 
" style="fill:none;stroke:#ff0000;stroke-linecap:square;stroke-width:1.5;"/>
   </g>
   <g id="line2d_47">
    <path clip-path="url(#p71261c3c02)" d="M 381.328941 330.268235 
L 380.219176 323.617779 
L 377.010142 317.688003 
L 372.049587 313.12149 
L 365.875064 310.413093 
L 359.155678 309.856309 
L 352.61958 311.511474 
L 346.975057 315.199225 
L 342.833781 320.519937 
L 340.644523 326.897028 
L 340.644523 333.639442 
L 342.833781 340.016534 
L 346.975057 345.337246 
L 352.61958 349.024997 
L 359.155678 350.680162 
L 365.875064 350.123377 
L 372.049587 347.414981 
L 377.010142 342.848468 
L 380.219176 336.918692 
L 381.328941 330.268235 
" style="fill:none;stroke:#000000;stroke-dasharray:5.55,2.4;stroke-dashoffset:0;stroke-width:1.5;"/>
   </g>
   <g id="line2d_48">
    <path clip-path="url(#p71261c3c02)" d="M 366.624 330.268235 
L 366.310989 328.392466 
L 365.405877 326.719965 
L 364.006746 325.431974 
L 362.265214 324.668067 
L 360.370003 324.511025 
L 358.526488 324.977867 
L 356.934443 326.018002 
L 355.766391 327.518715 
L 355.148908 329.317382 
L 355.148908 331.219089 
L 355.766391 333.017755 
L 356.934443 334.518469 
L 358.526488 335.558604 
L 360.370003 336.025445 
L 362.265214 335.868404 
L 364.006746 335.104497 
L 365.405877 333.816506 
L 366.310989 332.144005 
L 366.624 330.268235 
" style="fill:none;stroke:#ff0000;stroke-linecap:square;stroke-width:1.5;"/>
   </g>
   <g id="line2d_49">
    <path clip-path="url(#p71261c3c02)" d="M 433.846588 382.785882 
L 432.736823 376.135426 
L 429.527789 370.20565 
L 424.567234 365.639137 
L 418.392711 362.93074 
L 411.673325 362.373956 
L 405.137227 364.029121 
L 399.492704 367.716872 
L 395.351428 373.037584 
L 393.16217 379.414675 
L 393.16217 386.157089 
L 395.351428 392.534181 
L 399.492704 397.854893 
L 405.137227 401.542644 
L 411.673325 403.197809 
L 418.392711 402.641025 
L 424.567234 399.932628 
L 429.527789 395.366115 
L 432.736823 389.436339 
L 433.846588 382.785882 
" style="fill:none;stroke:#000000;stroke-dasharray:5.55,2.4;stroke-dashoffset:0;stroke-width:1.5;"/>
   </g>
   <g id="line2d_50">
    <path clip-path="url(#p71261c3c02)" d="M 419.141647 382.785882 
L 418.828636 380.910113 
L 417.923524 379.237612 
L 416.524393 377.949621 
L 414.782861 377.185714 
L 412.88765 377.028672 
L 411.044135 377.495514 
L 409.45209 378.535649 
L 408.284038 380.036362 
L 407.666555 381.835029 
L 407.666555 383.736736 
L 408.284038 385.535402 
L 409.45209 387.036116 
L 411.044135 388.076251 
L 412.88765 388.543092 
L 414.782861 388.386051 
L 416.524393 387.622144 
L 417.923524 386.334153 
L 418.828636 384.661652 
L 419.141647 382.785882 
" style="fill:none;stroke:#ff0000;stroke-linecap:square;stroke-width:1.5;"/>
   </g>
   <g id="line2d_51">
    <path clip-path="url(#p71261c3c02)" d="M 433.846588 330.268235 
L 432.736823 323.617779 
L 429.527789 317.688003 
L 424.567234 313.12149 
L 418.392711 310.413093 
L 411.673325 309.856309 
L 405.137227 311.511474 
L 399.492704 315.199225 
L 395.351428 320.519937 
L 393.16217 326.897028 
L 393.16217 333.639442 
L 395.351428 340.016534 
L 399.492704 345.337246 
L 405.137227 349.024997 
L 411.673325 350.680162 
L 418.392711 350.123377 
L 424.567234 347.414981 
L 429.527789 342.848468 
L 432.736823 336.918692 
L 433.846588 330.268235 
" style="fill:none;stroke:#000000;stroke-dasharray:5.55,2.4;stroke-dashoffset:0;stroke-width:1.5;"/>
   </g>
   <g id="line2d_52">
    <path clip-path="url(#p71261c3c02)" d="M 419.141647 330.268235 
L 418.828636 328.392466 
L 417.923524 326.719965 
L 416.524393 325.431974 
L 414.782861 324.668067 
L 412.88765 324.511025 
L 411.044135 324.977867 
L 409.45209 326.018002 
L 408.284038 327.518715 
L 407.666555 329.317382 
L 407.666555 331.219089 
L 408.284038 333.017755 
L 409.45209 334.518469 
L 411.044135 335.558604 
L 412.88765 336.025445 
L 414.782861 335.868404 
L 416.524393 335.104497 
L 417.923524 333.816506 
L 418.828636 332.144005 
L 419.141647 330.268235 
" style="fill:none;stroke:#ff0000;stroke-linecap:square;stroke-width:1.5;"/>
   </g>
   <g id="line2d_53">
    <path clip-path="url(#p71261c3c02)" d="M 223.776 225.232941 
L 222.666235 218.582485 
L 219.457201 212.652709 
L 214.496645 208.086196 
L 208.322123 205.377799 
L 201.602737 204.821015 
L 195.066639 206.47618 
L 189.422116 210.163931 
L 185.28084 215.484643 
L 183.091581 221.861734 
L 183.091581 228.604148 
L 185.28084 234.98124 
L 189.422116 240.301952 
L 195.066639 243.989703 
L 201.602737 245.644868 
L 208.322123 245.088083 
L 214.496645 242.379686 
L 219.457201 237.813174 
L 222.666235 231.883398 
L 223.776 225.232941 
" style="fill:none;stroke:#000000;stroke-dasharray:5.55,2.4;stroke-dashoffset:0;stroke-width:1.5;"/>
   </g>
   <g id="line2d_54">
    <path clip-path="url(#p71261c3c02)" d="M 209.071059 225.232941 
L 208.758048 223.357171 
L 207.852936 221.68467 
L 206.453805 220.39668 
L 204.712273 219.632773 
L 202.817062 219.475731 
L 200.973547 219.942573 
L 199.381502 220.982707 
L 198.21345 222.483421 
L 197.595966 224.282088 
L 197.595966 226.183794 
L 198.21345 227.982461 
L 199.381502 229.483175 
L 200.973547 230.52331 
L 202.817062 230.990151 
L 204.712273 230.833109 
L 206.453805 230.069203 
L 207.852936 228.781212 
L 208.758048 227.108711 
L 209.071059 225.232941 
" style="fill:none;stroke:#ff0000;stroke-linecap:square;stroke-width:1.5;"/>
   </g>
   <g id="line2d_55">
    <path clip-path="url(#p71261c3c02)" d="M 223.776 172.715294 
L 222.666235 166.064838 
L 219.457201 160.135062 
L 214.496645 155.568549 
L 208.322123 152.860152 
L 201.602737 152.303368 
L 195.066639 153.958533 
L 189.422116 157.646284 
L 185.28084 162.966996 
L 183.091581 169.344087 
L 183.091581 176.086501 
L 185.28084 182.463593 
L 189.422116 187.784305 
L 195.066639 191.472056 
L 201.602737 193.12722 
L 208.322123 192.570436 
L 214.496645 189.862039 
L 219.457201 185.295527 
L 222.666235 179.36575 
L 223.776 172.715294 
" style="fill:none;stroke:#000000;stroke-dasharray:5.55,2.4;stroke-dashoffset:0;stroke-width:1.5;"/>
   </g>
   <g id="line2d_56">
    <path clip-path="url(#p71261c3c02)" d="M 209.071059 172.715294 
L 208.758048 170.839524 
L 207.852936 169.167023 
L 206.453805 167.879033 
L 204.712273 167.115126 
L 202.817062 166.958084 
L 200.973547 167.424925 
L 199.381502 168.46506 
L 198.21345 169.965774 
L 197.595966 171.764441 
L 197.595966 173.666147 
L 198.21345 175.464814 
L 199.381502 176.965528 
L 200.973547 178.005663 
L 202.817062 178.472504 
L 204.712273 178.315462 
L 206.453805 177.551556 
L 207.852936 176.263565 
L 208.758048 174.591064 
L 209.071059 172.715294 
" style="fill:none;stroke:#ff0000;stroke-linecap:square;stroke-width:1.5;"/>
   </g>
   <g id="line2d_57">
    <path clip-path="url(#p71261c3c02)" d="M 276.293647 225.232941 
L 275.183882 218.582485 
L 271.974848 212.652709 
L 267.014293 208.086196 
L 260.83977 205.377799 
L 254.120384 204.821015 
L 247.584286 206.47618 
L 241.939763 210.163931 
L 237.798487 215.484643 
L 235.609229 221.861734 
L 235.609229 228.604148 
L 237.798487 234.98124 
L 241.939763 240.301952 
L 247.584286 243.989703 
L 254.120384 245.644868 
L 260.83977 245.088083 
L 267.014293 242.379686 
L 271.974848 237.813174 
L 275.183882 231.883398 
L 276.293647 225.232941 
" style="fill:none;stroke:#000000;stroke-dasharray:5.55,2.4;stroke-dashoffset:0;stroke-width:1.5;"/>
   </g>
   <g id="line2d_58">
    <path clip-path="url(#p71261c3c02)" d="M 261.588706 225.232941 
L 261.275695 223.357171 
L 260.370583 221.68467 
L 258.971452 220.39668 
L 257.22992 219.632773 
L 255.334709 219.475731 
L 253.491194 219.942573 
L 251.899149 220.982707 
L 250.731097 222.483421 
L 250.113613 224.282088 
L 250.113613 226.183794 
L 250.731097 227.982461 
L 251.899149 229.483175 
L 253.491194 230.52331 
L 255.334709 230.990151 
L 257.22992 230.833109 
L 258.971452 230.069203 
L 260.370583 228.781212 
L 261.275695 227.108711 
L 261.588706 225.232941 
" style="fill:none;stroke:#ff0000;stroke-linecap:square;stroke-width:1.5;"/>
   </g>
   <g id="line2d_59">
    <path clip-path="url(#p71261c3c02)" d="M 276.293647 172.715294 
L 275.183882 166.064838 
L 271.974848 160.135062 
L 267.014293 155.568549 
L 260.83977 152.860152 
L 254.120384 152.303368 
L 247.584286 153.958533 
L 241.939763 157.646284 
L 237.798487 162.966996 
L 235.609229 169.344087 
L 235.609229 176.086501 
L 237.798487 182.463593 
L 241.939763 187.784305 
L 247.584286 191.472056 
L 254.120384 193.12722 
L 260.83977 192.570436 
L 267.014293 189.862039 
L 271.974848 185.295527 
L 275.183882 179.36575 
L 276.293647 172.715294 
" style="fill:none;stroke:#000000;stroke-dasharray:5.55,2.4;stroke-dashoffset:0;stroke-width:1.5;"/>
   </g>
   <g id="line2d_60">
    <path clip-path="url(#p71261c3c02)" d="M 261.588706 172.715294 
L 261.275695 170.839524 
L 260.370583 169.167023 
L 258.971452 167.879033 
L 257.22992 167.115126 
L 255.334709 166.958084 
L 253.491194 167.424925 
L 251.899149 168.46506 
L 250.731097 169.965774 
L 250.113613 171.764441 
L 250.113613 173.666147 
L 250.731097 175.464814 
L 251.899149 176.965528 
L 253.491194 178.005663 
L 255.334709 178.472504 
L 257.22992 178.315462 
L 258.971452 177.551556 
L 260.370583 176.263565 
L 261.275695 174.591064 
L 261.588706 172.715294 
" style="fill:none;stroke:#ff0000;stroke-linecap:square;stroke-width:1.5;"/>
   </g>
   <g id="line2d_61">
    <path clip-path="url(#p71261c3c02)" d="M 328.811294 225.232941 
L 327.701529 218.582485 
L 324.492495 212.652709 
L 319.53194 208.086196 
L 313.357417 205.377799 
L 306.638031 204.821015 
L 300.101933 206.47618 
L 294.45741 210.163931 
L 290.316134 215.484643 
L 288.126876 221.861734 
L 288.126876 228.604148 
L 290.316134 234.98124 
L 294.45741 240.301952 
L 300.101933 243.989703 
L 306.638031 245.644868 
L 313.357417 245.088083 
L 319.53194 242.379686 
L 324.492495 237.813174 
L 327.701529 231.883398 
L 328.811294 225.232941 
" style="fill:none;stroke:#000000;stroke-dasharray:5.55,2.4;stroke-dashoffset:0;stroke-width:1.5;"/>
   </g>
   <g id="line2d_62">
    <path clip-path="url(#p71261c3c02)" d="M 314.106353 225.232941 
L 313.793342 223.357171 
L 312.88823 221.68467 
L 311.489099 220.39668 
L 309.747567 219.632773 
L 307.852356 219.475731 
L 306.008841 219.942573 
L 304.416796 220.982707 
L 303.248744 222.483421 
L 302.631261 224.282088 
L 302.631261 226.183794 
L 303.248744 227.982461 
L 304.416796 229.483175 
L 306.008841 230.52331 
L 307.852356 230.990151 
L 309.747567 230.833109 
L 311.489099 230.069203 
L 312.88823 228.781212 
L 313.793342 227.108711 
L 314.106353 225.232941 
" style="fill:none;stroke:#ff0000;stroke-linecap:square;stroke-width:1.5;"/>
   </g>
   <g id="line2d_63">
    <path clip-path="url(#p71261c3c02)" d="M 328.811294 172.715294 
L 327.701529 166.064838 
L 324.492495 160.135062 
L 319.53194 155.568549 
L 313.357417 152.860152 
L 306.638031 152.303368 
L 300.101933 153.958533 
L 294.45741 157.646284 
L 290.316134 162.966996 
L 288.126876 169.344087 
L 288.126876 176.086501 
L 290.316134 182.463593 
L 294.45741 187.784305 
L 300.101933 191.472056 
L 306.638031 193.12722 
L 313.357417 192.570436 
L 319.53194 189.862039 
L 324.492495 185.295527 
L 327.701529 179.36575 
L 328.811294 172.715294 
" style="fill:none;stroke:#000000;stroke-dasharray:5.55,2.4;stroke-dashoffset:0;stroke-width:1.5;"/>
   </g>
   <g id="line2d_64">
    <path clip-path="url(#p71261c3c02)" d="M 314.106353 172.715294 
L 313.793342 170.839524 
L 312.88823 169.167023 
L 311.489099 167.879033 
L 309.747567 167.115126 
L 307.852356 166.958084 
L 306.008841 167.424925 
L 304.416796 168.46506 
L 303.248744 169.965774 
L 302.631261 171.764441 
L 302.631261 173.666147 
L 303.248744 175.464814 
L 304.416796 176.965528 
L 306.008841 178.005663 
L 307.852356 178.472504 
L 309.747567 178.315462 
L 311.489099 177.551556 
L 312.88823 176.263565 
L 313.793342 174.591064 
L 314.106353 172.715294 
" style="fill:none;stroke:#ff0000;stroke-linecap:square;stroke-width:1.5;"/>
   </g>
   <g id="line2d_65">
    <path clip-path="url(#p71261c3c02)" d="M 381.328941 225.232941 
L 380.219176 218.582485 
L 377.010142 212.652709 
L 372.049587 208.086196 
L 365.875064 205.377799 
L 359.155678 204.821015 
L 352.61958 206.47618 
L 346.975057 210.163931 
L 342.833781 215.484643 
L 340.644523 221.861734 
L 340.644523 228.604148 
L 342.833781 234.98124 
L 346.975057 240.301952 
L 352.61958 243.989703 
L 359.155678 245.644868 
L 365.875064 245.088083 
L 372.049587 242.379686 
L 377.010142 237.813174 
L 380.219176 231.883398 
L 381.328941 225.232941 
" style="fill:none;stroke:#000000;stroke-dasharray:5.55,2.4;stroke-dashoffset:0;stroke-width:1.5;"/>
   </g>
   <g id="line2d_66">
    <path clip-path="url(#p71261c3c02)" d="M 366.624 225.232941 
L 366.310989 223.357171 
L 365.405877 221.68467 
L 364.006746 220.39668 
L 362.265214 219.632773 
L 360.370003 219.475731 
L 358.526488 219.942573 
L 356.934443 220.982707 
L 355.766391 222.483421 
L 355.148908 224.282088 
L 355.148908 226.183794 
L 355.766391 227.982461 
L 356.934443 229.483175 
L 358.526488 230.52331 
L 360.370003 230.990151 
L 362.265214 230.833109 
L 364.006746 230.069203 
L 365.405877 228.781212 
L 366.310989 227.108711 
L 366.624 225.232941 
" style="fill:none;stroke:#ff0000;stroke-linecap:square;stroke-width:1.5;"/>
   </g>
   <g id="line2d_67">
    <path clip-path="url(#p71261c3c02)" d="M 381.328941 172.715294 
L 380.219176 166.064838 
L 377.010142 160.135062 
L 372.049587 155.568549 
L 365.875064 152.860152 
L 359.155678 152.303368 
L 352.61958 153.958533 
L 346.975057 157.646284 
L 342.833781 162.966996 
L 340.644523 169.344087 
L 340.644523 176.086501 
L 342.833781 182.463593 
L 346.975057 187.784305 
L 352.61958 191.472056 
L 359.155678 193.12722 
L 365.875064 192.570436 
L 372.049587 189.862039 
L 377.010142 185.295527 
L 380.219176 179.36575 
L 381.328941 172.715294 
" style="fill:none;stroke:#000000;stroke-dasharray:5.55,2.4;stroke-dashoffset:0;stroke-width:1.5;"/>
   </g>
   <g id="line2d_68">
    <path clip-path="url(#p71261c3c02)" d="M 366.624 172.715294 
L 366.310989 170.839524 
L 365.405877 169.167023 
L 364.006746 167.879033 
L 362.265214 167.115126 
L 360.370003 166.958084 
L 358.526488 167.424925 
L 356.934443 168.46506 
L 355.766391 169.965774 
L 355.148908 171.764441 
L 355.148908 173.666147 
L 355.766391 175.464814 
L 356.934443 176.965528 
L 358.526488 178.005663 
L 360.370003 178.472504 
L 362.265214 178.315462 
L 364.006746 177.551556 
L 365.405877 176.263565 
L 366.310989 174.591064 
L 366.624 172.715294 
" style="fill:none;stroke:#ff0000;stroke-linecap:square;stroke-width:1.5;"/>
   </g>
   <g id="line2d_69">
    <path clip-path="url(#p71261c3c02)" d="M 433.846588 225.232941 
L 432.736823 218.582485 
L 429.527789 212.652709 
L 424.567234 208.086196 
L 418.392711 205.377799 
L 411.673325 204.821015 
L 405.137227 206.47618 
L 399.492704 210.163931 
L 395.351428 215.484643 
L 393.16217 221.861734 
L 393.16217 228.604148 
L 395.351428 234.98124 
L 399.492704 240.301952 
L 405.137227 243.989703 
L 411.673325 245.644868 
L 418.392711 245.088083 
L 424.567234 242.379686 
L 429.527789 237.813174 
L 432.736823 231.883398 
L 433.846588 225.232941 
" style="fill:none;stroke:#000000;stroke-dasharray:5.55,2.4;stroke-dashoffset:0;stroke-width:1.5;"/>
   </g>
   <g id="line2d_70">
    <path clip-path="url(#p71261c3c02)" d="M 419.141647 225.232941 
L 418.828636 223.357171 
L 417.923524 221.68467 
L 416.524393 220.39668 
L 414.782861 219.632773 
L 412.88765 219.475731 
L 411.044135 219.942573 
L 409.45209 220.982707 
L 408.284038 222.483421 
L 407.666555 224.282088 
L 407.666555 226.183794 
L 408.284038 227.982461 
L 409.45209 229.483175 
L 411.044135 230.52331 
L 412.88765 230.990151 
L 414.782861 230.833109 
L 416.524393 230.069203 
L 417.923524 228.781212 
L 418.828636 227.108711 
L 419.141647 225.232941 
" style="fill:none;stroke:#ff0000;stroke-linecap:square;stroke-width:1.5;"/>
   </g>
   <g id="line2d_71">
    <path clip-path="url(#p71261c3c02)" d="M 433.846588 172.715294 
L 432.736823 166.064838 
L 429.527789 160.135062 
L 424.567234 155.568549 
L 418.392711 152.860152 
L 411.673325 152.303368 
L 405.137227 153.958533 
L 399.492704 157.646284 
L 395.351428 162.966996 
L 393.16217 169.344087 
L 393.16217 176.086501 
L 395.351428 182.463593 
L 399.492704 187.784305 
L 405.137227 191.472056 
L 411.673325 193.12722 
L 418.392711 192.570436 
L 424.567234 189.862039 
L 429.527789 185.295527 
L 432.736823 179.36575 
L 433.846588 172.715294 
" style="fill:none;stroke:#000000;stroke-dasharray:5.55,2.4;stroke-dashoffset:0;stroke-width:1.5;"/>
   </g>
   <g id="line2d_72">
    <path clip-path="url(#p71261c3c02)" d="M 419.141647 172.715294 
L 418.828636 170.839524 
L 417.923524 169.167023 
L 416.524393 167.879033 
L 414.782861 167.115126 
L 412.88765 166.958084 
L 411.044135 167.424925 
L 409.45209 168.46506 
L 408.284038 169.965774 
L 407.666555 171.764441 
L 407.666555 173.666147 
L 408.284038 175.464814 
L 409.45209 176.965528 
L 411.044135 178.005663 
L 412.88765 178.472504 
L 414.782861 178.315462 
L 416.524393 177.551556 
L 417.923524 176.263565 
L 418.828636 174.591064 
L 419.141647 172.715294 
" style="fill:none;stroke:#ff0000;stroke-linecap:square;stroke-width:1.5;"/>
   </g>
   <g id="line2d_73">
    <path clip-path="url(#p71261c3c02)" d="M 98.258824 487.821176 
L 98.258824 93.938824 
" style="fill:none;stroke:#000000;stroke-linecap:square;stroke-width:4;"/>
   </g>
   <g id="line2d_74">
    <path clip-path="url(#p71261c3c02)" d="M 98.258824 93.938824 
L 492.141176 93.938824 
" style="fill:none;stroke:#000000;stroke-linecap:square;stroke-width:4;"/>
   </g>
   <g id="line2d_75">
    <path clip-path="url(#p71261c3c02)" d="M 492.141176 93.938824 
L 492.141176 487.821176 
" style="fill:none;stroke:#000000;stroke-linecap:square;stroke-width:4;"/>
   </g>
   <g id="line2d_76">
    <path clip-path="url(#p71261c3c02)" d="M 492.141176 487.821176 
L 98.258824 487.821176 
" style="fill:none;stroke:#000000;stroke-linecap:square;stroke-width:4;"/>
   </g>
   <g id="line2d_77">
    <path clip-path="url(#p71261c3c02)" d="M 150.776471 382.785882 
L 153.349835 382.680847 
L 155.187953 382.365741 
L 156.763482 381.893082 
L 158.916706 381.0528 
L 160.754824 380.16 
L 163.433224 378.584471 
L 169.735341 374.172988 
L 177.192847 368.396047 
L 183.022306 363.459388 
L 187.381271 359.415529 
L 196.361788 350.855153 
L 198.7776 348.912 
L 199.565365 348.596894 
L 200.458165 348.701929 
L 201.193412 348.964518 
L 202.611388 349.699765 
L 204.186918 351.012706 
L 206.655247 353.586071 
L 208.178259 355.056565 
L 208.5984 355.319153 
L 210.121412 355.634259 
L 211.539388 355.529224 
L 213.482541 355.109082 
L 215.058071 354.531388 
L 218.471718 352.903341 
L 221.780329 350.907671 
L 227.032094 347.494024 
L 232.704 343.450165 
L 238.9536 338.303435 
L 238.9536 338.250918 
L 238.901082 338.618541 
L 238.901082 338.618541 
L 238.375906 337.830776 
L 237.850729 337.358118 
L 236.222682 336.202729 
L 233.754353 334.784753 
L 232.493929 333.891953 
L 231.968753 332.946635 
L 231.653647 331.843765 
L 231.548612 330.740894 
L 231.706165 329.217882 
L 231.968753 327.904941 
L 232.388894 326.539482 
L 234.227012 322.338071 
L 238.218353 314.565459 
L 241.159341 308.210824 
L 243.627671 303.956894 
L 246.201035 300.543247 
L 249.352094 297.182118 
L 253.028329 293.873506 
L 257.387294 290.354824 
L 263.899482 285.575718 
L 271.777129 279.851294 
L 274.613082 277.435482 
L 275.400847 276.490165 
L 276.188612 275.072188 
L 276.871341 272.866447 
L 277.081412 270.503153 
L 276.923859 266.249224 
L 277.081412 264.096 
L 277.344 262.415435 
L 277.869176 260.5248 
L 278.814494 258.266541 
L 279.864847 256.375906 
L 281.282824 254.380235 
L 282.648282 252.752188 
L 286.272 249.338541 
L 287.900047 248.0256 
L 292.311529 245.032094 
L 296.0928 242.931388 
L 298.561129 241.776 
L 299.769035 241.408376 
L 299.979106 241.408376 
L 300.819388 242.038588 
L 301.607153 242.931388 
L 302.657506 244.611953 
L 303.602824 246.817694 
L 304.968282 250.441412 
L 305.493459 250.966588 
L 306.018635 251.229176 
L 307.174024 251.5968 
L 308.329412 251.806871 
L 310.220047 251.754353 
L 312.058165 251.491765 
L 313.738729 251.124141 
L 318.727906 249.653647 
L 324.872471 247.185318 
L 332.067388 243.666635 
L 337.476706 240.463059 
L 342.833506 236.734306 
L 344.881694 235.158776 
L 344.724141 235.368847 
L 344.724141 235.736471 
L 344.619106 235.5264 
L 344.304 235.106259 
L 343.201129 234.265976 
L 340.102588 232.427859 
L 339.787482 232.007718 
L 339.367341 231.377506 
L 339.052235 230.484706 
L 338.9472 230.012047 
L 338.894682 228.384 
L 339.209788 226.440847 
L 339.734965 224.392659 
L 341.257976 218.878306 
L 341.940706 214.151718 
L 342.465882 210.948141 
L 342.833506 209.372612 
L 343.673788 207.009318 
L 344.251482 205.906447 
L 345.091765 204.593506 
L 345.984565 203.543153 
L 347.034918 202.4928 
L 348.452894 201.232376 
L 350.080941 200.076988 
L 351.551435 199.236706 
L 353.442071 198.343906 
L 355.437741 197.556141 
L 357.748518 196.925929 
L 359.849224 196.505788 
L 361.582306 196.348235 
L 364.103153 196.348235 
L 366.571482 196.663341 
L 370.615341 197.608659 
L 374.6592 198.764047 
L 377.022494 199.394259 
L 381.118871 200.024471 
L 385.582871 200.287059 
L 387.946165 200.129506 
L 387.946165 200.129506 
" style="fill:none;stroke:#8000ff;stroke-linecap:square;stroke-width:1.5;"/>
   </g>
   <g id="line2d_78">
    <path clip-path="url(#p71261c3c02)" d="M 439.623529 198.974118 
L 439.938635 199.079153 
L 440.043671 199.236706 
L 440.201224 199.866918 
L 440.201224 200.392094 
L 439.8336 202.177694 
L 439.413459 203.228047 
L 437.627859 206.431624 
L 436.577506 207.797082 
L 433.951624 210.633035 
L 428.909929 214.939482 
L 429.067482 214.834447 
L 428.962447 214.256753 
L 429.067482 214.361788 
L 430.432941 214.939482 
L 432.376094 215.412141 
L 433.321412 216.409976 
L 433.846588 217.355294 
L 434.214212 218.615718 
L 434.371765 219.613553 
L 434.424282 221.766776 
L 434.319247 224.182588 
L 434.109176 227.648753 
L 434.004141 233.530729 
L 433.846588 236.891859 
L 433.321412 240.095435 
L 432.796235 241.933553 
L 431.7984 244.349365 
L 429.855247 247.710494 
L 429.014965 248.865882 
L 427.649506 250.493929 
L 426.179012 252.016941 
L 424.603482 253.487435 
L 421.609976 255.903247 
L 418.143812 258.371576 
L 413.364706 261.365082 
L 402.966212 267.142024 
L 392.410165 272.656376 
L 384.427482 276.910306 
L 382.956988 278.013176 
L 382.379294 278.748424 
L 381.539012 280.849129 
L 381.171388 282.477176 
L 380.803765 288.779294 
L 380.541176 290.88 
L 379.963482 293.033224 
L 379.1232 295.186447 
L 378.125365 297.077082 
L 376.917459 298.862682 
L 375.604518 300.543247 
L 372.926118 303.3792 
L 371.298071 304.797176 
L 368.199529 307.107953 
L 365.153506 308.788518 
L 363.210353 309.6288 
L 361.844894 309.996424 
L 360.742024 310.153976 
L 359.113976 310.206494 
L 357.223341 309.891388 
L 354.492424 308.893553 
L 352.969412 308.053271 
L 348.820518 305.427388 
L 345.669459 303.851859 
L 343.201129 302.801506 
L 343.201129 302.801506 
L 341.888188 302.276329 
L 340.627765 301.751153 
L 340.627765 301.751153 
L 340.050071 301.646118 
L 339.209788 301.5936 
L 337.844329 301.698635 
L 336.216282 301.961224 
L 334.430682 302.433882 
L 332.540047 303.116612 
L 330.701929 303.904376 
L 326.658071 305.952565 
L 316.207059 311.887059 
L 313.581176 312.989929 
L 313.056 312.884894 
L 312.373271 312.464753 
L 311.585506 311.676988 
L 310.692706 310.469082 
L 310.115012 309.366212 
L 308.644518 305.532424 
L 307.331576 302.906541 
L 306.648847 301.908706 
L 306.386259 301.698635 
L 305.0208 301.383529 
L 304.075482 301.383529 
L 302.3424 301.541082 
L 300.5568 301.908706 
L 297.143153 303.064094 
L 287.479906 306.845365 
L 286.166965 307.107953 
L 283.015906 307.107953 
L 279.024565 306.267671 
L 272.88 304.587106 
L 270.516706 304.272 
L 267.890824 304.377035 
L 266.945506 304.534588 
L 265.107388 304.954729 
L 263.269271 305.584941 
L 261.483671 306.320188 
L 258.332612 308.000753 
L 254.446306 310.153976 
L 252.713224 310.784188 
L 250.349929 311.099294 
L 248.879435 311.204329 
L 244.993129 310.941741 
L 240.896753 310.626635 
L 239.216188 310.784188 
L 238.270871 311.099294 
L 237.693176 311.4144 
L 236.485271 312.202165 
L 235.3824 313.147482 
L 234.069459 314.617976 
L 232.756518 316.456094 
L 231.758682 318.189176 
L 230.708329 320.3424 
L 229.920565 322.285553 
L 228.712659 326.276894 
L 228.029929 330.005647 
L 227.872376 331.371106 
L 227.767341 333.419294 
L 227.819859 335.467482 
L 228.24 339.301271 
L 229.447906 346.548706 
L 230.078118 351.065224 
L 230.340706 355.319153 
L 230.340706 357.472376 
L 230.340706 357.472376 
" style="fill:none;stroke:#2b7ff6;stroke-linecap:square;stroke-width:1.5;"/>
   </g>
   <g id="line2d_79">
    <path clip-path="url(#p71261c3c02)" d="M 387.105882 435.303529 
L 386.843294 435.408565 
L 386.738259 435.5136 
L 386.790776 435.356047 
L 387.000847 434.410729 
L 387.053365 433.570447 
L 386.790776 431.102118 
L 386.475671 429.841694 
L 385.162729 426.270494 
L 383.639718 423.224471 
L 380.751247 418.392847 
L 376.549835 411.985694 
L 371.035482 403.897976 
L 367.411765 398.856282 
L 367.621835 398.961318 
L 367.831906 398.961318 
L 367.989459 398.9088 
L 367.884424 399.013835 
L 367.621835 399.381459 
L 367.149176 400.326776 
L 366.676518 402.217412 
L 366.518965 404.738259 
L 366.518965 406.838965 
L 366.361412 406.996518 
L 365.626165 407.259106 
L 364.365741 407.311624 
L 362.475106 406.944 
L 361.687341 406.733929 
L 359.324047 405.683576 
L 355.647812 403.635388 
L 353.021929 402.217412 
L 350.185976 401.009506 
L 348.557929 400.484329 
L 340.102588 398.226071 
L 338.474541 397.595859 
L 336.531388 396.650541 
L 334.378165 395.3376 
L 332.6976 394.024659 
L 331.122071 392.606682 
L 329.704094 391.136188 
L 327.550871 388.1952 
L 326.763106 386.567153 
L 326.658071 385.674353 
L 326.763106 384.991624 
L 327.130729 383.993788 
L 328.286118 382.050635 
L 329.441506 380.685176 
L 333.905506 376.326212 
L 334.798306 374.8032 
L 335.113412 373.700329 
L 335.218447 372.439906 
L 335.060894 370.654306 
L 334.640753 368.658635 
L 333.485365 365.402541 
L 330.912 360.045741 
L 328.601224 355.739294 
L 325.502682 350.277459 
L 321.196235 342.977506 
L 321.0912 342.6624 
L 321.353788 342.189741 
L 321.721412 341.979671 
L 322.771765 341.822118 
L 324.557365 341.874635 
L 326.553035 342.294776 
L 328.548706 343.030024 
L 328.286118 343.030024 
L 328.181082 343.082541 
L 328.286118 342.977506 
L 328.653741 342.557365 
L 329.178918 341.612047 
L 329.441506 340.351624 
L 329.546541 339.668894 
L 329.494024 337.095529 
L 328.968847 328.009976 
L 329.021365 324.281224 
L 328.916329 323.283388 
L 328.548706 322.600659 
L 328.023529 322.075482 
L 326.973176 321.287718 
L 325.030024 320.289882 
L 320.513506 318.5568 
L 319.568188 317.874071 
L 319.095529 317.191341 
L 318.570353 315.8784 
L 318.360282 313.725176 
L 318.675388 310.889224 
L 319.148047 308.683482 
L 319.3056 307.160471 
L 319.200565 306.530259 
L 318.727906 305.479906 
L 317.467482 304.009412 
L 315.891953 302.801506 
L 314.368941 302.013741 
L 308.644518 299.440376 
L 305.073318 297.077082 
L 301.869741 294.241129 
L 298.928753 291.195106 
L 295.935247 287.781459 
L 290.578447 281.269271 
L 285.641788 274.862118 
L 280.232471 267.982306 
L 277.449035 265.041318 
L 276.136094 263.728376 
L 274.350494 262.100329 
L 269.728941 258.319059 
L 268.153412 256.901082 
L 266.420329 255.168 
L 263.636894 251.964424 
L 259.698071 246.765176 
L 257.177224 243.456565 
L 257.282259 243.5616 
L 257.387294 243.5616 
L 256.967153 243.614118 
L 256.441976 243.824188 
L 255.496659 244.4544 
L 254.183718 245.557271 
L 251.4528 248.655812 
L 249.772235 250.493929 
L 248.564329 250.441412 
L 247.724047 250.231341 
L 246.673694 249.758682 
L 245.570824 249.023435 
L 244.205365 247.920565 
L 243.155012 246.922729 
L 240.844235 244.139294 
L 238.428424 240.830682 
L 231.758682 230.957365 
L 229.815529 227.596235 
L 228.765176 225.337976 
L 228.029929 223.342306 
L 227.504753 221.2416 
L 227.137129 218.405647 
L 227.189647 216.252424 
L 227.504753 213.363953 
L 228.292518 209.582682 
L 229.763012 203.123012 
L 230.078118 201.389929 
L 230.393224 198.974118 
L 230.393224 198.974118 
" style="fill:none;stroke:#2adddd;stroke-linecap:square;stroke-width:1.5;"/>
   </g>
   <g id="line2d_80">
    <path clip-path="url(#p71261c3c02)" d="M 229.552941 146.456471 
L 230.655812 146.508988 
L 231.968753 146.771576 
L 233.019106 147.1392 
L 234.542118 147.821929 
L 236.065129 148.714729 
L 238.585976 150.552847 
L 241.474447 153.178729 
L 243.942776 155.752094 
L 244.625506 156.539859 
L 244.415435 156.434824 
L 244.047812 156.487341 
L 244.205365 156.329788 
L 245.045647 155.384471 
L 246.621176 153.493835 
L 247.986635 152.496 
L 249.509647 151.918306 
L 250.665035 151.655718 
L 252.188047 151.498165 
L 253.973647 151.445647 
L 258.647718 151.708235 
L 266.577882 152.128376 
L 270.2016 152.811106 
L 272.407341 153.493835 
L 274.245459 154.229082 
L 276.766306 155.594541 
L 278.551906 156.749929 
L 280.232471 158.062871 
L 281.808 159.480847 
L 283.331012 161.003859 
L 284.959059 162.841976 
L 286.954729 165.467859 
L 287.847529 166.7808 
L 288.897882 168.776471 
L 289.318024 170.141929 
L 289.265506 171.2448 
L 289.055435 172.032565 
L 288.530259 173.345506 
L 287.427388 175.236141 
L 283.751153 179.857694 
L 282.490729 182.168471 
L 282.175624 184.006588 
L 282.175624 186.212329 
L 282.438212 187.945412 
L 283.541082 191.884235 
L 285.326682 195.980612 
L 287.427388 200.024471 
L 289.633129 203.963294 
L 294.517271 212.418635 
L 294.3072 212.786259 
L 293.992094 213.101365 
L 293.4144 213.468988 
L 291.733835 214.046682 
L 287.269835 215.149553 
L 286.849694 215.569694 
L 286.324518 216.567529 
L 285.851859 217.985506 
L 285.536753 220.296282 
L 285.641788 223.342306 
L 285.851859 225.495529 
L 287.112282 233.268141 
L 287.689976 237.259482 
L 288.162635 241.355859 
L 288.740329 244.139294 
L 288.897882 244.401882 
L 289.528094 244.822024 
L 290.630965 245.294682 
L 292.5216 245.819859 
L 294.464753 246.029929 
L 299.401412 245.662306 
L 301.4496 245.767341 
L 302.710024 246.029929 
L 304.233035 246.607624 
L 306.228706 247.973082 
L 307.751718 249.601129 
L 308.959624 251.386729 
L 310.850259 255.588141 
L 312.478306 259.421929 
L 314.263906 262.835576 
L 316.6272 266.669365 
L 319.253082 270.3456 
L 323.244424 275.649882 
L 325.870306 278.958494 
L 328.443671 282.267106 
L 335.376 291.037553 
L 345.774494 304.272 
L 353.232 313.567624 
L 353.074447 313.462588 
L 352.706824 313.462588 
L 352.864376 313.410071 
L 353.757176 312.517271 
L 354.229835 311.729506 
L 355.9104 308.105788 
L 356.488094 307.790682 
L 357.328376 307.528094 
L 358.5888 307.423059 
L 360.794541 307.790682 
L 362.737694 308.473412 
L 365.7312 309.838871 
L 371.245553 312.202165 
L 378.598024 314.723012 
L 380.331106 315.563294 
L 382.011671 316.508612 
L 383.272094 317.453929 
L 384.900141 318.976941 
L 386.370635 320.762541 
L 387.631059 322.758212 
L 388.628894 324.911435 
L 389.311624 326.802071 
L 389.784282 329.112847 
L 390.046871 331.161035 
L 390.046871 332.894118 
L 389.889318 334.732235 
L 389.469176 337.095529 
L 387.841129 342.504847 
L 387.000847 345.498353 
L 386.528188 347.546541 
L 386.003012 351.275294 
L 385.845459 354.741459 
L 385.897976 356.422024 
L 385.897976 356.422024 
" style="fill:none;stroke:#80ffb4;stroke-linecap:square;stroke-width:1.5;"/>
   </g>
   <g id="line2d_81">
    <path clip-path="url(#p71261c3c02)" d="M 439.623529 304.009412 
L 439.308424 304.114447 
L 439.203388 304.324518 
L 439.150871 304.429553 
L 439.150871 304.429553 
L 438.783247 303.536753 
L 437.942965 302.538918 
L 437.102682 301.803671 
L 435.947294 301.015906 
L 434.424282 300.175624 
L 430.9056 298.967718 
L 426.231529 297.812329 
L 419.089129 296.131765 
L 410.896376 294.346165 
L 392.725271 290.459859 
L 379.333271 287.728941 
L 369.775059 285.733271 
L 324.399812 276.332612 
L 324.504847 276.385129 
L 324.609882 276.332612 
L 324.872471 276.227576 
L 324.924988 276.122541 
L 324.872471 276.227576 
L 324.767435 277.015341 
L 324.872471 278.853459 
L 325.975341 283.369976 
L 325.870306 285.943341 
L 325.5552 287.466353 
L 324.977506 288.936847 
L 324.609882 289.619576 
L 323.559529 290.774965 
L 322.771765 291.457694 
L 321.668894 292.087906 
L 320.040847 292.718118 
L 318.360282 293.138259 
L 315.996988 293.453365 
L 314.211388 293.505882 
L 311.743059 293.348329 
L 309.642353 293.033224 
L 305.493459 292.087906 
L 301.817224 290.985035 
L 294.674824 288.569224 
L 290.578447 287.886494 
L 280.600094 286.310965 
L 276.136094 285.313129 
L 270.096565 283.369976 
L 265.842635 281.689412 
L 262.008847 280.008847 
L 254.341271 276.437647 
L 241.421929 270.188047 
L 231.075953 265.093835 
L 223.828518 261.575153 
L 212.852329 256.165835 
L 201.771106 250.966588 
L 201.771106 250.966588 
" style="fill:none;stroke:#d4dd80;stroke-linecap:square;stroke-width:1.5;"/>
   </g>
   <g id="line2d_82">
    <path clip-path="url(#p71261c3c02)" d="M 150.776471 251.491765 
L 155.608094 251.544282 
L 163.695812 252.121976 
L 170.313035 252.804706 
L 173.096471 253.067294 
L 183.547482 254.2752 
L 194.3136 255.535624 
L 201.613553 256.533459 
L 216.160941 258.686682 
L 234.227012 260.892424 
L 244.993129 262.100329 
L 255.076518 263.098165 
L 261.693741 263.675859 
L 272.88 264.568659 
L 287.847529 266.091671 
L 300.031624 267.509647 
L 303.707859 267.772235 
L 304.915765 267.614682 
L 306.596329 266.931953 
L 308.697035 265.566494 
L 315.524329 259.947106 
L 317.047341 259.054306 
L 318.675388 258.266541 
L 320.355953 257.636329 
L 322.246588 257.111153 
L 324.714918 256.691012 
L 326.815624 256.533459 
L 331.069553 256.743529 
L 333.537882 257.111153 
L 338.001882 258.161506 
L 343.358682 259.842071 
L 350.606118 262.572988 
L 363.000282 267.614682 
L 367.149176 268.665035 
L 373.346259 269.820424 
L 377.495153 270.555671 
L 380.9088 271.448471 
L 382.274259 271.868612 
L 383.902306 272.551341 
L 386.160565 273.706729 
L 387.946165 274.862118 
L 389.311624 275.964988 
L 390.361976 277.330447 
L 390.414494 277.488 
L 390.204424 278.065694 
L 389.469176 279.011012 
L 388.838965 279.483671 
L 388.156235 279.798776 
L 388.156235 279.798776 
" style="fill:none;stroke:#ff8042;stroke-linecap:square;stroke-width:1.5;"/>
   </g>
   <g id="line2d_83">
    <path clip-path="url(#p71261c3c02)" d="M 282.070588 198.974118 
L 282.123106 198.974118 
L 282.385694 199.026635 
L 282.648282 199.131671 
L 283.120941 199.394259 
L 283.5936 199.8144 
L 284.013741 200.339576 
L 284.591435 201.179859 
L 285.169129 202.177694 
L 285.746824 203.3856 
L 286.272 204.698541 
L 286.692141 206.064 
L 287.007247 207.481976 
L 287.374871 209.215059 
L 287.532424 210.633035 
L 287.742494 213.101365 
L 287.742494 214.466824 
L 287.689976 216.147388 
L 287.532424 217.775435 
L 287.269835 219.403482 
L 286.797176 221.136565 
L 286.377035 222.449506 
L 285.3792 224.707765 
L 284.381365 226.545882 
L 283.488565 228.016376 
L 282.648282 229.486871 
L 281.808 230.957365 
L 281.125271 232.480376 
L 280.495059 234.108424 
L 280.127435 235.368847 
L 279.759812 237.049412 
L 279.549741 238.782494 
L 279.444706 240.147953 
L 279.392188 241.460894 
L 279.339671 243.246494 
L 279.392188 244.979576 
L 279.444706 247.080282 
L 279.549741 249.496094 
L 279.654776 251.5968 
L 279.812329 254.065129 
L 279.917365 255.798212 
L 279.969882 257.898918 
L 280.074918 259.632 
L 280.127435 261.732706 
L 280.232471 263.833412 
L 280.284988 265.934118 
L 280.390024 268.034824 
L 280.442541 270.503153 
L 280.495059 272.603859 
L 280.547576 274.704565 
L 280.600094 276.437647 
L 280.705129 278.170729 
L 280.757647 280.271435 
L 280.862682 282.739765 
L 280.9152 284.472847 
L 281.020235 286.573553 
L 281.125271 288.306635 
L 281.282824 290.774965 
L 281.387859 292.875671 
L 281.545412 295.344 
L 281.650447 297.759812 
L 281.808 299.860518 
L 281.913035 302.328847 
L 282.018071 304.429553 
L 282.070588 306.530259 
L 282.123106 308.630965 
L 282.175624 310.731671 
L 282.228141 313.2 
L 282.228141 315.300706 
L 282.280659 317.401412 
L 282.280659 319.502118 
L 282.280659 321.2352 
L 282.228141 323.335906 
L 282.228141 325.068988 
L 282.175624 326.854588 
L 282.175624 328.587671 
L 282.123106 331.056 
" style="fill:none;stroke:#ff0000;stroke-linecap:square;stroke-width:1.5;"/>
   </g>
   <g id="patch_3">
    <path d="M 72 512.64 
L 72 69.12 
" style="fill:none;stroke:#000000;stroke-linecap:square;stroke-linejoin:miter;stroke-width:0.8;"/>
   </g>
   <g id="patch_4">
    <path d="M 518.4 512.64 
L 518.4 69.12 
" style="fill:none;stroke:#000000;stroke-linecap:square;stroke-linejoin:miter;stroke-width:0.8;"/>
   </g>
   <g id="patch_5">
    <path d="M 72 512.64 
L 518.4 512.64 
" style="fill:none;stroke:#000000;stroke-linecap:square;stroke-linejoin:miter;stroke-width:0.8;"/>
   </g>
   <g id="patch_6">
    <path d="M 72 69.12 
L 518.4 69.12 
" style="fill:none;stroke:#000000;stroke-linecap:square;stroke-linejoin:miter;stroke-width:0.8;"/>
   </g>
   <g id="text_18">
    <!-- 1 -->
    <defs>
     <path d="M 14.203125 0 
L 14.203125 5.171875 
L 26.90625 5.171875 
L 26.90625 65.828125 
L 12.203125 56.296875 
L 12.203125 62.703125 
L 29.984375 74.21875 
L 36.71875 74.21875 
L 36.71875 5.171875 
L 49.421875 5.171875 
L 49.421875 0 
z
" id="DejaVuSerif-31"/>
    </defs>
    <g transform="translate(147.595221 382.785882)scale(0.1 -0.1)">
     <use xlink:href="#DejaVuSerif-31"/>
    </g>
   </g>
   <g id="text_19">
    <!-- 1 -->
    <g transform="translate(383.924632 198.974118)scale(0.1 -0.1)">
     <use xlink:href="#DejaVuSerif-31"/>
    </g>
   </g>
   <g id="text_20">
    <!-- 2 -->
    <defs>
     <path d="M 12.796875 55.515625 
L 7.328125 55.515625 
L 7.328125 68.5 
Q 12.546875 71.296875 17.84375 72.75 
Q 23.140625 74.21875 28.21875 74.21875 
Q 39.59375 74.21875 46.1875 68.703125 
Q 52.78125 63.1875 52.78125 53.71875 
Q 52.78125 43.015625 37.84375 28.125 
Q 36.671875 27 36.078125 26.421875 
L 17.671875 8.015625 
L 48.09375 8.015625 
L 48.09375 17 
L 53.8125 17 
L 53.8125 0 
L 6.78125 0 
L 6.78125 5.328125 
L 28.90625 27.390625 
Q 36.234375 34.71875 39.359375 40.84375 
Q 42.484375 46.96875 42.484375 53.71875 
Q 42.484375 61.078125 38.640625 65.234375 
Q 34.8125 69.390625 28.078125 69.390625 
Q 21.09375 69.390625 17.28125 65.921875 
Q 13.484375 62.453125 12.796875 55.515625 
z
" id="DejaVuSerif-32"/>
    </defs>
    <g transform="translate(436.442279 198.974118)scale(0.1 -0.1)">
     <use xlink:href="#DejaVuSerif-32"/>
    </g>
   </g>
   <g id="text_21">
    <!-- 2 -->
    <g transform="translate(226.371691 356.527059)scale(0.1 -0.1)">
     <use xlink:href="#DejaVuSerif-32"/>
    </g>
   </g>
   <g id="text_22">
    <!-- 3 -->
    <defs>
     <path d="M 9.71875 69.828125 
Q 15.4375 71.96875 20.671875 73.09375 
Q 25.921875 74.21875 30.515625 74.21875 
Q 41.21875 74.21875 47.21875 69.59375 
Q 53.21875 64.984375 53.21875 56.78125 
Q 53.21875 50.203125 49.0625 45.78125 
Q 44.921875 41.359375 37.3125 39.796875 
Q 46.296875 38.53125 51.25 33.28125 
Q 56.203125 28.03125 56.203125 19.671875 
Q 56.203125 9.46875 49.34375 4.015625 
Q 42.484375 -1.421875 29.59375 -1.421875 
Q 23.875 -1.421875 18.421875 -0.1875 
Q 12.984375 1.03125 7.625 3.515625 
L 7.625 17.671875 
L 13.09375 17.671875 
Q 13.578125 10.640625 17.828125 7.03125 
Q 22.078125 3.421875 29.78125 3.421875 
Q 37.25 3.421875 41.578125 7.734375 
Q 45.90625 12.0625 45.90625 19.578125 
Q 45.90625 28.171875 41.453125 32.59375 
Q 37.015625 37.015625 28.421875 37.015625 
L 23.78125 37.015625 
L 23.78125 42 
L 26.21875 42 
Q 34.765625 42 39.03125 45.53125 
Q 43.3125 49.078125 43.3125 56.203125 
Q 43.3125 62.59375 39.796875 65.984375 
Q 36.28125 69.390625 29.6875 69.390625 
Q 23.09375 69.390625 19.453125 66.265625 
Q 15.828125 63.140625 15.1875 56.984375 
L 9.71875 56.984375 
z
" id="DejaVuSerif-33"/>
    </defs>
    <g transform="translate(383.924632 435.303529)scale(0.1 -0.1)">
     <use xlink:href="#DejaVuSerif-33"/>
    </g>
   </g>
   <g id="text_23">
    <!-- 3 -->
    <g transform="translate(226.371691 198.974118)scale(0.1 -0.1)">
     <use xlink:href="#DejaVuSerif-33"/>
    </g>
   </g>
   <g id="text_24">
    <!-- 4 -->
    <defs>
     <path d="M 34.90625 24.703125 
L 34.90625 63.484375 
L 10.015625 24.703125 
z
M 56.390625 0 
L 23.1875 0 
L 23.1875 5.171875 
L 34.90625 5.171875 
L 34.90625 19.484375 
L 3.078125 19.484375 
L 3.078125 24.8125 
L 35.015625 74.21875 
L 44.671875 74.21875 
L 44.671875 24.703125 
L 58.59375 24.703125 
L 58.59375 19.484375 
L 44.671875 19.484375 
L 44.671875 5.171875 
L 56.390625 5.171875 
z
" id="DejaVuSerif-34"/>
    </defs>
    <g transform="translate(226.371691 146.456471)scale(0.1 -0.1)">
     <use xlink:href="#DejaVuSerif-34"/>
    </g>
   </g>
   <g id="text_25">
    <!-- 4 -->
    <g transform="translate(383.924632 356.527059)scale(0.1 -0.1)">
     <use xlink:href="#DejaVuSerif-34"/>
    </g>
   </g>
   <g id="text_26">
    <!-- 5 -->
    <defs>
     <path d="M 50.296875 72.90625 
L 50.296875 64.890625 
L 16.890625 64.890625 
L 16.890625 44 
Q 19.4375 45.75 22.828125 46.625 
Q 26.21875 47.515625 30.421875 47.515625 
Q 42.234375 47.515625 49.0625 40.96875 
Q 55.90625 34.421875 55.90625 23.09375 
Q 55.90625 11.53125 49 5.046875 
Q 42.09375 -1.421875 29.59375 -1.421875 
Q 24.5625 -1.421875 19.28125 -0.1875 
Q 14.015625 1.03125 8.5 3.515625 
L 8.5 17.671875 
L 14.015625 17.671875 
Q 14.453125 10.75 18.421875 7.078125 
Q 22.40625 3.421875 29.59375 3.421875 
Q 37.3125 3.421875 41.453125 8.5 
Q 45.609375 13.578125 45.609375 23.09375 
Q 45.609375 32.5625 41.484375 37.609375 
Q 37.359375 42.671875 29.59375 42.671875 
Q 25.203125 42.671875 21.84375 41.109375 
Q 18.5 39.546875 15.921875 36.28125 
L 11.71875 36.28125 
L 11.71875 72.90625 
z
" id="DejaVuSerif-35"/>
    </defs>
    <g transform="translate(436.442279 304.009412)scale(0.1 -0.1)">
     <use xlink:href="#DejaVuSerif-35"/>
    </g>
   </g>
   <g id="text_27">
    <!-- 5 -->
    <g transform="translate(200.112868 251.491765)scale(0.1 -0.1)">
     <use xlink:href="#DejaVuSerif-35"/>
    </g>
   </g>
   <g id="text_28">
    <!-- 6 -->
    <defs>
     <path d="M 32.71875 3.421875 
Q 39.59375 3.421875 43.296875 8.46875 
Q 47.015625 13.53125 47.015625 23 
Q 47.015625 32.46875 43.296875 37.515625 
Q 39.59375 42.578125 32.71875 42.578125 
Q 25.734375 42.578125 22.0625 37.6875 
Q 18.40625 32.8125 18.40625 23.578125 
Q 18.40625 13.875 22.109375 8.640625 
Q 25.828125 3.421875 32.71875 3.421875 
z
M 16.796875 40.140625 
Q 20.125 43.796875 24.3125 45.59375 
Q 28.515625 47.40625 33.796875 47.40625 
Q 44.671875 47.40625 51 40.859375 
Q 57.328125 34.328125 57.328125 23 
Q 57.328125 11.921875 50.515625 5.25 
Q 43.703125 -1.421875 32.328125 -1.421875 
Q 19.96875 -1.421875 13.328125 7.78125 
Q 6.6875 17 6.6875 34.078125 
Q 6.6875 53.21875 14.546875 63.71875 
Q 22.40625 74.21875 36.71875 74.21875 
Q 40.578125 74.21875 44.828125 73.484375 
Q 49.078125 72.75 53.515625 71.296875 
L 53.515625 59.28125 
L 48 59.28125 
Q 47.40625 64.203125 44.234375 66.796875 
Q 41.0625 69.390625 35.6875 69.390625 
Q 26.21875 69.390625 21.578125 62.203125 
Q 16.9375 55.03125 16.796875 40.140625 
z
" id="DejaVuSerif-36"/>
    </defs>
    <g transform="translate(147.595221 251.491765)scale(0.1 -0.1)">
     <use xlink:href="#DejaVuSerif-36"/>
    </g>
   </g>
   <g id="text_29">
    <!-- 6 -->
    <g transform="translate(383.924632 277.750588)scale(0.1 -0.1)">
     <use xlink:href="#DejaVuSerif-36"/>
    </g>
   </g>
   <g id="text_30">
    <!-- 7 -->
    <defs>
     <path d="M 56.390625 67.921875 
L 27.875 0 
L 20.609375 0 
L 47.796875 64.890625 
L 14.109375 64.890625 
L 14.109375 55.90625 
L 8.40625 55.90625 
L 8.40625 72.90625 
L 56.390625 72.90625 
z
" id="DejaVuSerif-37"/>
    </defs>
    <g transform="translate(278.889338 198.974118)scale(0.1 -0.1)">
     <use xlink:href="#DejaVuSerif-37"/>
    </g>
   </g>
   <g id="text_31">
    <!-- 7 -->
    <g transform="translate(278.889338 330.268235)scale(0.1 -0.1)">
     <use xlink:href="#DejaVuSerif-37"/>
    </g>
   </g>
   <g id="text_32">
    <!-- MRPP -->
    <defs>
     <path d="M 9.8125 72.90625 
L 24.515625 72.90625 
L 43.109375 23.296875 
L 61.8125 72.90625 
L 76.515625 72.90625 
L 76.515625 0 
L 66.890625 0 
L 66.890625 64.015625 
L 48.09375 14.015625 
L 38.1875 14.015625 
L 19.390625 64.015625 
L 19.390625 0 
L 9.8125 0 
z
" id="DejaVuSans-4d"/>
     <path d="M 44.390625 34.1875 
Q 47.5625 33.109375 50.5625 29.59375 
Q 53.5625 26.078125 56.59375 19.921875 
L 66.609375 0 
L 56 0 
L 46.6875 18.703125 
Q 43.0625 26.03125 39.671875 28.421875 
Q 36.28125 30.8125 30.421875 30.8125 
L 19.671875 30.8125 
L 19.671875 0 
L 9.8125 0 
L 9.8125 72.90625 
L 32.078125 72.90625 
Q 44.578125 72.90625 50.734375 67.671875 
Q 56.890625 62.453125 56.890625 51.90625 
Q 56.890625 45.015625 53.6875 40.46875 
Q 50.484375 35.9375 44.390625 34.1875 
z
M 19.671875 64.796875 
L 19.671875 38.921875 
L 32.078125 38.921875 
Q 39.203125 38.921875 42.84375 42.21875 
Q 46.484375 45.515625 46.484375 51.90625 
Q 46.484375 58.296875 42.84375 61.546875 
Q 39.203125 64.796875 32.078125 64.796875 
z
" id="DejaVuSans-52"/>
     <path d="M 19.671875 64.796875 
L 19.671875 37.40625 
L 32.078125 37.40625 
Q 38.96875 37.40625 42.71875 40.96875 
Q 46.484375 44.53125 46.484375 51.125 
Q 46.484375 57.671875 42.71875 61.234375 
Q 38.96875 64.796875 32.078125 64.796875 
z
M 9.8125 72.90625 
L 32.078125 72.90625 
Q 44.34375 72.90625 50.609375 67.359375 
Q 56.890625 61.8125 56.890625 51.125 
Q 56.890625 40.328125 50.609375 34.8125 
Q 44.34375 29.296875 32.078125 29.296875 
L 19.671875 29.296875 
L 19.671875 0 
L 9.8125 0 
z
" id="DejaVuSans-50"/>
    </defs>
    <g transform="translate(278.618437 63.12)scale(0.12 -0.12)">
     <use xlink:href="#DejaVuSans-4d"/>
     <use x="86.279297" xlink:href="#DejaVuSans-52"/>
     <use x="155.761719" xlink:href="#DejaVuSans-50"/>
     <use x="216.064453" xlink:href="#DejaVuSans-50"/>
    </g>
   </g>
  </g>
 </g>
 <defs>
  <clipPath id="p71261c3c02">
   <rect height="443.52" width="446.4" x="72" y="69.12"/>
  </clipPath>
 </defs>
</svg>
