<?xml version="1.0" encoding="utf-8" standalone="no"?>
<!DOCTYPE svg PUBLIC "-//W3C//DTD SVG 1.1//EN"
  "http://www.w3.org/Graphics/SVG/1.1/DTD/svg11.dtd">
<!-- Created with matplotlib (http://matplotlib.org/) -->
<svg height="576pt" version="1.1" viewBox="0 0 576 576" width="576pt" xmlns="http://www.w3.org/2000/svg" xmlns:xlink="http://www.w3.org/1999/xlink">
 <defs>
  <style type="text/css">
*{stroke-linecap:butt;stroke-linejoin:round;}
  </style>
 </defs>
 <g id="figure_1">
  <g id="patch_1">
   <path d="M 0 576 
L 576 576 
L 576 0 
L 0 0 
z
" style="fill:#ffffff;"/>
  </g>
  <g id="axes_1">
   <g id="patch_2">
    <path d="M 72 512.64 
L 518.4 512.64 
L 518.4 69.12 
L 72 69.12 
z
" style="fill:#ffffff;"/>
   </g>
   <g id="matplotlib.axis_1">
    <g id="xtick_1">
     <g id="line2d_1">
      <defs>
       <path d="M 0 0 
L 0 3.5 
" id="m25dc8538d5" style="stroke:#000000;stroke-width:0.8;"/>
      </defs>
      <g>
       <use style="stroke:#000000;stroke-width:0.8;" x="112.216216" xlink:href="#m25dc8538d5" y="512.64"/>
      </g>
     </g>
     <g id="text_1">
      <!-- 0 -->
      <defs>
       <path d="M 31.78125 66.40625 
Q 24.171875 66.40625 20.328125 58.90625 
Q 16.5 51.421875 16.5 36.375 
Q 16.5 21.390625 20.328125 13.890625 
Q 24.171875 6.390625 31.78125 6.390625 
Q 39.453125 6.390625 43.28125 13.890625 
Q 47.125 21.390625 47.125 36.375 
Q 47.125 51.421875 43.28125 58.90625 
Q 39.453125 66.40625 31.78125 66.40625 
z
M 31.78125 74.21875 
Q 44.046875 74.21875 50.515625 64.515625 
Q 56.984375 54.828125 56.984375 36.375 
Q 56.984375 17.96875 50.515625 8.265625 
Q 44.046875 -1.421875 31.78125 -1.421875 
Q 19.53125 -1.421875 13.0625 8.265625 
Q 6.59375 17.96875 6.59375 36.375 
Q 6.59375 54.828125 13.0625 64.515625 
Q 19.53125 74.21875 31.78125 74.21875 
z
" id="DejaVuSans-30"/>
      </defs>
      <g transform="translate(109.034966 527.238438)scale(0.1 -0.1)">
       <use xlink:href="#DejaVuSans-30"/>
      </g>
     </g>
    </g>
    <g id="xtick_2">
     <g id="line2d_2">
      <g>
       <use style="stroke:#000000;stroke-width:0.8;" x="192.648649" xlink:href="#m25dc8538d5" y="512.64"/>
      </g>
     </g>
     <g id="text_2">
      <!-- 2 -->
      <defs>
       <path d="M 19.1875 8.296875 
L 53.609375 8.296875 
L 53.609375 0 
L 7.328125 0 
L 7.328125 8.296875 
Q 12.9375 14.109375 22.625 23.890625 
Q 32.328125 33.6875 34.8125 36.53125 
Q 39.546875 41.84375 41.421875 45.53125 
Q 43.3125 49.21875 43.3125 52.78125 
Q 43.3125 58.59375 39.234375 62.25 
Q 35.15625 65.921875 28.609375 65.921875 
Q 23.96875 65.921875 18.8125 64.3125 
Q 13.671875 62.703125 7.8125 59.421875 
L 7.8125 69.390625 
Q 13.765625 71.78125 18.9375 73 
Q 24.125 74.21875 28.421875 74.21875 
Q 39.75 74.21875 46.484375 68.546875 
Q 53.21875 62.890625 53.21875 53.421875 
Q 53.21875 48.921875 51.53125 44.890625 
Q 49.859375 40.875 45.40625 35.40625 
Q 44.1875 33.984375 37.640625 27.21875 
Q 31.109375 20.453125 19.1875 8.296875 
z
" id="DejaVuSans-32"/>
      </defs>
      <g transform="translate(189.467399 527.238438)scale(0.1 -0.1)">
       <use xlink:href="#DejaVuSans-32"/>
      </g>
     </g>
    </g>
    <g id="xtick_3">
     <g id="line2d_3">
      <g>
       <use style="stroke:#000000;stroke-width:0.8;" x="273.081081" xlink:href="#m25dc8538d5" y="512.64"/>
      </g>
     </g>
     <g id="text_3">
      <!-- 4 -->
      <defs>
       <path d="M 37.796875 64.3125 
L 12.890625 25.390625 
L 37.796875 25.390625 
z
M 35.203125 72.90625 
L 47.609375 72.90625 
L 47.609375 25.390625 
L 58.015625 25.390625 
L 58.015625 17.1875 
L 47.609375 17.1875 
L 47.609375 0 
L 37.796875 0 
L 37.796875 17.1875 
L 4.890625 17.1875 
L 4.890625 26.703125 
z
" id="DejaVuSans-34"/>
      </defs>
      <g transform="translate(269.899831 527.238438)scale(0.1 -0.1)">
       <use xlink:href="#DejaVuSans-34"/>
      </g>
     </g>
    </g>
    <g id="xtick_4">
     <g id="line2d_4">
      <g>
       <use style="stroke:#000000;stroke-width:0.8;" x="353.513514" xlink:href="#m25dc8538d5" y="512.64"/>
      </g>
     </g>
     <g id="text_4">
      <!-- 6 -->
      <defs>
       <path d="M 33.015625 40.375 
Q 26.375 40.375 22.484375 35.828125 
Q 18.609375 31.296875 18.609375 23.390625 
Q 18.609375 15.53125 22.484375 10.953125 
Q 26.375 6.390625 33.015625 6.390625 
Q 39.65625 6.390625 43.53125 10.953125 
Q 47.40625 15.53125 47.40625 23.390625 
Q 47.40625 31.296875 43.53125 35.828125 
Q 39.65625 40.375 33.015625 40.375 
z
M 52.59375 71.296875 
L 52.59375 62.3125 
Q 48.875 64.0625 45.09375 64.984375 
Q 41.3125 65.921875 37.59375 65.921875 
Q 27.828125 65.921875 22.671875 59.328125 
Q 17.53125 52.734375 16.796875 39.40625 
Q 19.671875 43.65625 24.015625 45.921875 
Q 28.375 48.1875 33.59375 48.1875 
Q 44.578125 48.1875 50.953125 41.515625 
Q 57.328125 34.859375 57.328125 23.390625 
Q 57.328125 12.15625 50.6875 5.359375 
Q 44.046875 -1.421875 33.015625 -1.421875 
Q 20.359375 -1.421875 13.671875 8.265625 
Q 6.984375 17.96875 6.984375 36.375 
Q 6.984375 53.65625 15.1875 63.9375 
Q 23.390625 74.21875 37.203125 74.21875 
Q 40.921875 74.21875 44.703125 73.484375 
Q 48.484375 72.75 52.59375 71.296875 
z
" id="DejaVuSans-36"/>
      </defs>
      <g transform="translate(350.332264 527.238438)scale(0.1 -0.1)">
       <use xlink:href="#DejaVuSans-36"/>
      </g>
     </g>
    </g>
    <g id="xtick_5">
     <g id="line2d_5">
      <g>
       <use style="stroke:#000000;stroke-width:0.8;" x="433.945946" xlink:href="#m25dc8538d5" y="512.64"/>
      </g>
     </g>
     <g id="text_5">
      <!-- 8 -->
      <defs>
       <path d="M 31.78125 34.625 
Q 24.75 34.625 20.71875 30.859375 
Q 16.703125 27.09375 16.703125 20.515625 
Q 16.703125 13.921875 20.71875 10.15625 
Q 24.75 6.390625 31.78125 6.390625 
Q 38.8125 6.390625 42.859375 10.171875 
Q 46.921875 13.96875 46.921875 20.515625 
Q 46.921875 27.09375 42.890625 30.859375 
Q 38.875 34.625 31.78125 34.625 
z
M 21.921875 38.8125 
Q 15.578125 40.375 12.03125 44.71875 
Q 8.5 49.078125 8.5 55.328125 
Q 8.5 64.0625 14.71875 69.140625 
Q 20.953125 74.21875 31.78125 74.21875 
Q 42.671875 74.21875 48.875 69.140625 
Q 55.078125 64.0625 55.078125 55.328125 
Q 55.078125 49.078125 51.53125 44.71875 
Q 48 40.375 41.703125 38.8125 
Q 48.828125 37.15625 52.796875 32.3125 
Q 56.78125 27.484375 56.78125 20.515625 
Q 56.78125 9.90625 50.3125 4.234375 
Q 43.84375 -1.421875 31.78125 -1.421875 
Q 19.734375 -1.421875 13.25 4.234375 
Q 6.78125 9.90625 6.78125 20.515625 
Q 6.78125 27.484375 10.78125 32.3125 
Q 14.796875 37.15625 21.921875 38.8125 
z
M 18.3125 54.390625 
Q 18.3125 48.734375 21.84375 45.5625 
Q 25.390625 42.390625 31.78125 42.390625 
Q 38.140625 42.390625 41.71875 45.5625 
Q 45.3125 48.734375 45.3125 54.390625 
Q 45.3125 60.0625 41.71875 63.234375 
Q 38.140625 66.40625 31.78125 66.40625 
Q 25.390625 66.40625 21.84375 63.234375 
Q 18.3125 60.0625 18.3125 54.390625 
z
" id="DejaVuSans-38"/>
      </defs>
      <g transform="translate(430.764696 527.238438)scale(0.1 -0.1)">
       <use xlink:href="#DejaVuSans-38"/>
      </g>
     </g>
    </g>
    <g id="xtick_6">
     <g id="line2d_6">
      <g>
       <use style="stroke:#000000;stroke-width:0.8;" x="514.378378" xlink:href="#m25dc8538d5" y="512.64"/>
      </g>
     </g>
     <g id="text_6">
      <!-- 10 -->
      <defs>
       <path d="M 12.40625 8.296875 
L 28.515625 8.296875 
L 28.515625 63.921875 
L 10.984375 60.40625 
L 10.984375 69.390625 
L 28.421875 72.90625 
L 38.28125 72.90625 
L 38.28125 8.296875 
L 54.390625 8.296875 
L 54.390625 0 
L 12.40625 0 
z
" id="DejaVuSans-31"/>
      </defs>
      <g transform="translate(508.015878 527.238438)scale(0.1 -0.1)">
       <use xlink:href="#DejaVuSans-31"/>
       <use x="63.623047" xlink:href="#DejaVuSans-30"/>
      </g>
     </g>
    </g>
   </g>
   <g id="matplotlib.axis_2">
    <g id="ytick_1">
     <g id="line2d_7">
      <defs>
       <path d="M 0 0 
L -3.5 0 
" id="m3811d0ec9d" style="stroke:#000000;stroke-width:0.8;"/>
      </defs>
      <g>
       <use style="stroke:#000000;stroke-width:0.8;" x="72" xlink:href="#m3811d0ec9d" y="473.863784"/>
      </g>
     </g>
     <g id="text_7">
      <!-- 0 -->
      <g transform="translate(58.6375 477.663003)scale(0.1 -0.1)">
       <use xlink:href="#DejaVuSans-30"/>
      </g>
     </g>
    </g>
    <g id="ytick_2">
     <g id="line2d_8">
      <g>
       <use style="stroke:#000000;stroke-width:0.8;" x="72" xlink:href="#m3811d0ec9d" y="393.431351"/>
      </g>
     </g>
     <g id="text_8">
      <!-- 2 -->
      <g transform="translate(58.6375 397.23057)scale(0.1 -0.1)">
       <use xlink:href="#DejaVuSans-32"/>
      </g>
     </g>
    </g>
    <g id="ytick_3">
     <g id="line2d_9">
      <g>
       <use style="stroke:#000000;stroke-width:0.8;" x="72" xlink:href="#m3811d0ec9d" y="312.998919"/>
      </g>
     </g>
     <g id="text_9">
      <!-- 4 -->
      <g transform="translate(58.6375 316.798138)scale(0.1 -0.1)">
       <use xlink:href="#DejaVuSans-34"/>
      </g>
     </g>
    </g>
    <g id="ytick_4">
     <g id="line2d_10">
      <g>
       <use style="stroke:#000000;stroke-width:0.8;" x="72" xlink:href="#m3811d0ec9d" y="232.566486"/>
      </g>
     </g>
     <g id="text_10">
      <!-- 6 -->
      <g transform="translate(58.6375 236.365705)scale(0.1 -0.1)">
       <use xlink:href="#DejaVuSans-36"/>
      </g>
     </g>
    </g>
    <g id="ytick_5">
     <g id="line2d_11">
      <g>
       <use style="stroke:#000000;stroke-width:0.8;" x="72" xlink:href="#m3811d0ec9d" y="152.134054"/>
      </g>
     </g>
     <g id="text_11">
      <!-- 8 -->
      <g transform="translate(58.6375 155.933273)scale(0.1 -0.1)">
       <use xlink:href="#DejaVuSans-38"/>
      </g>
     </g>
    </g>
    <g id="ytick_6">
     <g id="line2d_12">
      <g>
       <use style="stroke:#000000;stroke-width:0.8;" x="72" xlink:href="#m3811d0ec9d" y="71.701622"/>
      </g>
     </g>
     <g id="text_12">
      <!-- 10 -->
      <g transform="translate(52.275 75.50084)scale(0.1 -0.1)">
       <use xlink:href="#DejaVuSans-31"/>
       <use x="63.623047" xlink:href="#DejaVuSans-30"/>
      </g>
     </g>
    </g>
   </g>
   <g id="line2d_13">
    <path clip-path="url(#pf8d82136b2)" d="M 140.367568 389.40973 
" style="fill:none;stroke:#1f77b4;stroke-linecap:square;stroke-width:1.5;"/>
    <defs>
     <path d="M -5 5 
L 5 5 
L 5 -5 
L -5 -5 
z
" id="mf1614c6491" style="stroke:#8000ff;stroke-linejoin:miter;"/>
    </defs>
    <g clip-path="url(#pf8d82136b2)">
     <use style="fill:#8000ff;stroke:#8000ff;stroke-linejoin:miter;" x="140.367568" xlink:href="#mf1614c6491" y="389.40973"/>
    </g>
   </g>
   <g id="line2d_14">
    <path clip-path="url(#pf8d82136b2)" d="M 393.72973 192.35027 
" style="fill:none;stroke:#ff7f0e;stroke-linecap:square;stroke-width:1.5;"/>
    <defs>
     <path d="M 0 -5 
L -4.755283 -1.545085 
L -2.938926 4.045085 
L 2.938926 4.045085 
L 4.755283 -1.545085 
z
" id="m1bc1753f63" style="stroke:#8000ff;stroke-linejoin:miter;"/>
    </defs>
    <g clip-path="url(#pf8d82136b2)">
     <use style="fill:#8000ff;stroke:#8000ff;stroke-linejoin:miter;" x="393.72973" xlink:href="#m1bc1753f63" y="192.35027"/>
    </g>
   </g>
   <g id="line2d_15">
    <path clip-path="url(#pf8d82136b2)" d="M 450.032432 192.35027 
" style="fill:none;stroke:#2ca02c;stroke-linecap:square;stroke-width:1.5;"/>
    <defs>
     <path d="M -5 5 
L 5 5 
L 5 -5 
L -5 -5 
z
" id="m79e53ad090" style="stroke:#4757fb;stroke-linejoin:miter;"/>
    </defs>
    <g clip-path="url(#pf8d82136b2)">
     <use style="fill:#4757fb;stroke:#4757fb;stroke-linejoin:miter;" x="450.032432" xlink:href="#m79e53ad090" y="192.35027"/>
    </g>
   </g>
   <g id="line2d_16">
    <path clip-path="url(#pf8d82136b2)" d="M 224.821622 361.258378 
" style="fill:none;stroke:#d62728;stroke-linecap:square;stroke-width:1.5;"/>
    <defs>
     <path d="M 0 -5 
L -4.755283 -1.545085 
L -2.938926 4.045085 
L 2.938926 4.045085 
L 4.755283 -1.545085 
z
" id="m54f53dce0f" style="stroke:#4757fb;stroke-linejoin:miter;"/>
    </defs>
    <g clip-path="url(#pf8d82136b2)">
     <use style="fill:#4757fb;stroke:#4757fb;stroke-linejoin:miter;" x="224.821622" xlink:href="#m54f53dce0f" y="361.258378"/>
    </g>
   </g>
   <g id="line2d_17">
    <path clip-path="url(#pf8d82136b2)" d="M 399.36 440.082162 
" style="fill:none;stroke:#9467bd;stroke-linecap:square;stroke-width:1.5;"/>
    <defs>
     <path d="M -5 5 
L 5 5 
L 5 -5 
L -5 -5 
z
" id="m4402826c33" style="stroke:#0ea4f0;stroke-linejoin:miter;"/>
    </defs>
    <g clip-path="url(#pf8d82136b2)">
     <use style="fill:#0ea4f0;stroke:#0ea4f0;stroke-linejoin:miter;" x="399.36" xlink:href="#m4402826c33" y="440.082162"/>
    </g>
   </g>
   <g id="line2d_18">
    <path clip-path="url(#pf8d82136b2)" d="M 224.821622 192.35027 
" style="fill:none;stroke:#8c564b;stroke-linecap:square;stroke-width:1.5;"/>
    <defs>
     <path d="M 0 -5 
L -4.755283 -1.545085 
L -2.938926 4.045085 
L 2.938926 4.045085 
L 4.755283 -1.545085 
z
" id="m89c54dd2c6" style="stroke:#0ea4f0;stroke-linejoin:miter;"/>
    </defs>
    <g clip-path="url(#pf8d82136b2)">
     <use style="fill:#0ea4f0;stroke:#0ea4f0;stroke-linejoin:miter;" x="224.821622" xlink:href="#m89c54dd2c6" y="192.35027"/>
    </g>
   </g>
   <g id="line2d_19">
    <path clip-path="url(#pf8d82136b2)" d="M 224.821622 136.047568 
" style="fill:none;stroke:#e377c2;stroke-linecap:square;stroke-width:1.5;"/>
    <defs>
     <path d="M -5 5 
L 5 5 
L 5 -5 
L -5 -5 
z
" id="me793a112b0" style="stroke:#2adddd;stroke-linejoin:miter;"/>
    </defs>
    <g clip-path="url(#pf8d82136b2)">
     <use style="fill:#2adddd;stroke:#2adddd;stroke-linejoin:miter;" x="224.821622" xlink:href="#me793a112b0" y="136.047568"/>
    </g>
   </g>
   <g id="line2d_20">
    <path clip-path="url(#pf8d82136b2)" d="M 393.72973 361.258378 
" style="fill:none;stroke:#7f7f7f;stroke-linecap:square;stroke-width:1.5;"/>
    <defs>
     <path d="M 0 -5 
L -4.755283 -1.545085 
L -2.938926 4.045085 
L 2.938926 4.045085 
L 4.755283 -1.545085 
z
" id="m18a8dd0c34" style="stroke:#2adddd;stroke-linejoin:miter;"/>
    </defs>
    <g clip-path="url(#pf8d82136b2)">
     <use style="fill:#2adddd;stroke:#2adddd;stroke-linejoin:miter;" x="393.72973" xlink:href="#m18a8dd0c34" y="361.258378"/>
    </g>
   </g>
   <g id="line2d_21">
    <path clip-path="url(#pf8d82136b2)" d="M 450.032432 304.955676 
" style="fill:none;stroke:#bcbd22;stroke-linecap:square;stroke-width:1.5;"/>
    <defs>
     <path d="M -5 5 
L 5 5 
L 5 -5 
L -5 -5 
z
" id="ma6365ca722" style="stroke:#63fbc3;stroke-linejoin:miter;"/>
    </defs>
    <g clip-path="url(#pf8d82136b2)">
     <use style="fill:#63fbc3;stroke:#63fbc3;stroke-linejoin:miter;" x="450.032432" xlink:href="#ma6365ca722" y="304.955676"/>
    </g>
   </g>
   <g id="line2d_22">
    <path clip-path="url(#pf8d82136b2)" d="M 196.67027 248.652973 
" style="fill:none;stroke:#17becf;stroke-linecap:square;stroke-width:1.5;"/>
    <defs>
     <path d="M 0 -5 
L -4.755283 -1.545085 
L -2.938926 4.045085 
L 2.938926 4.045085 
L 4.755283 -1.545085 
z
" id="mef7879852c" style="stroke:#63fbc3;stroke-linejoin:miter;"/>
    </defs>
    <g clip-path="url(#pf8d82136b2)">
     <use style="fill:#63fbc3;stroke:#63fbc3;stroke-linejoin:miter;" x="196.67027" xlink:href="#mef7879852c" y="248.652973"/>
    </g>
   </g>
   <g id="line2d_23">
    <path clip-path="url(#pf8d82136b2)" d="M 140.367568 248.652973 
" style="fill:none;stroke:#1f77b4;stroke-linecap:square;stroke-width:1.5;"/>
    <defs>
     <path d="M -5 5 
L 5 5 
L 5 -5 
L -5 -5 
z
" id="m49376f255f" style="stroke:#9cfba4;stroke-linejoin:miter;"/>
    </defs>
    <g clip-path="url(#pf8d82136b2)">
     <use style="fill:#9cfba4;stroke:#9cfba4;stroke-linejoin:miter;" x="140.367568" xlink:href="#m49376f255f" y="248.652973"/>
    </g>
   </g>
   <g id="line2d_24">
    <path clip-path="url(#pf8d82136b2)" d="M 393.72973 276.804324 
" style="fill:none;stroke:#ff7f0e;stroke-linecap:square;stroke-width:1.5;"/>
    <defs>
     <path d="M 0 -5 
L -4.755283 -1.545085 
L -2.938926 4.045085 
L 2.938926 4.045085 
L 4.755283 -1.545085 
z
" id="m7c7cc81895" style="stroke:#9cfba4;stroke-linejoin:miter;"/>
    </defs>
    <g clip-path="url(#pf8d82136b2)">
     <use style="fill:#9cfba4;stroke:#9cfba4;stroke-linejoin:miter;" x="393.72973" xlink:href="#m7c7cc81895" y="276.804324"/>
    </g>
   </g>
   <g id="line2d_25">
    <path clip-path="url(#pf8d82136b2)" d="M 281.124324 192.35027 
" style="fill:none;stroke:#2ca02c;stroke-linecap:square;stroke-width:1.5;"/>
    <defs>
     <path d="M -5 5 
L 5 5 
L 5 -5 
L -5 -5 
z
" id="m0809feebdd" style="stroke:#d4dd80;stroke-linejoin:miter;"/>
    </defs>
    <g clip-path="url(#pf8d82136b2)">
     <use style="fill:#d4dd80;stroke:#d4dd80;stroke-linejoin:miter;" x="281.124324" xlink:href="#m0809feebdd" y="192.35027"/>
    </g>
   </g>
   <g id="line2d_26">
    <path clip-path="url(#pf8d82136b2)" d="M 281.124324 333.107027 
" style="fill:none;stroke:#d62728;stroke-linecap:square;stroke-width:1.5;"/>
    <defs>
     <path d="M 0 -5 
L -4.755283 -1.545085 
L -2.938926 4.045085 
L 2.938926 4.045085 
L 4.755283 -1.545085 
z
" id="m6c5e8adc5d" style="stroke:#d4dd80;stroke-linejoin:miter;"/>
    </defs>
    <g clip-path="url(#pf8d82136b2)">
     <use style="fill:#d4dd80;stroke:#d4dd80;stroke-linejoin:miter;" x="281.124324" xlink:href="#m6c5e8adc5d" y="333.107027"/>
    </g>
   </g>
   <g id="line2d_27">
    <path clip-path="url(#pf8d82136b2)" d="M 140.367568 304.955676 
" style="fill:none;stroke:#9467bd;stroke-linecap:square;stroke-width:1.5;"/>
    <defs>
     <path d="M -5 5 
L 5 5 
L 5 -5 
L -5 -5 
z
" id="mf7c9c66f75" style="stroke:#ffa457;stroke-linejoin:miter;"/>
    </defs>
    <g clip-path="url(#pf8d82136b2)">
     <use style="fill:#ffa457;stroke:#ffa457;stroke-linejoin:miter;" x="140.367568" xlink:href="#mf7c9c66f75" y="304.955676"/>
    </g>
   </g>
   <g id="line2d_28">
    <path clip-path="url(#pf8d82136b2)" d="M 309.275676 276.804324 
" style="fill:none;stroke:#8c564b;stroke-linecap:square;stroke-width:1.5;"/>
    <defs>
     <path d="M 0 -5 
L -4.755283 -1.545085 
L -2.938926 4.045085 
L 2.938926 4.045085 
L 4.755283 -1.545085 
z
" id="mff98138e48" style="stroke:#ffa457;stroke-linejoin:miter;"/>
    </defs>
    <g clip-path="url(#pf8d82136b2)">
     <use style="fill:#ffa457;stroke:#ffa457;stroke-linejoin:miter;" x="309.275676" xlink:href="#mff98138e48" y="276.804324"/>
    </g>
   </g>
   <g id="line2d_29">
    <path clip-path="url(#pf8d82136b2)" d="M 393.72973 220.501622 
" style="fill:none;stroke:#e377c2;stroke-linecap:square;stroke-width:1.5;"/>
    <defs>
     <path d="M -5 5 
L 5 5 
L 5 -5 
L -5 -5 
z
" id="m4321f3354b" style="stroke:#ff572c;stroke-linejoin:miter;"/>
    </defs>
    <g clip-path="url(#pf8d82136b2)">
     <use style="fill:#ff572c;stroke:#ff572c;stroke-linejoin:miter;" x="393.72973" xlink:href="#m4321f3354b" y="220.501622"/>
    </g>
   </g>
   <g id="line2d_30">
    <path clip-path="url(#pf8d82136b2)" d="M 140.367568 276.804324 
" style="fill:none;stroke:#7f7f7f;stroke-linecap:square;stroke-width:1.5;"/>
    <defs>
     <path d="M 0 -5 
L -4.755283 -1.545085 
L -2.938926 4.045085 
L 2.938926 4.045085 
L 4.755283 -1.545085 
z
" id="mcceb1a40e2" style="stroke:#ff572c;stroke-linejoin:miter;"/>
    </defs>
    <g clip-path="url(#pf8d82136b2)">
     <use style="fill:#ff572c;stroke:#ff572c;stroke-linejoin:miter;" x="140.367568" xlink:href="#mcceb1a40e2" y="276.804324"/>
    </g>
   </g>
   <g id="line2d_31">
    <path clip-path="url(#pf8d82136b2)" d="M 140.367568 136.047568 
" style="fill:none;stroke:#bcbd22;stroke-linecap:square;stroke-width:1.5;"/>
    <defs>
     <path d="M -5 5 
L 5 5 
L 5 -5 
L -5 -5 
z
" id="me3ee3b1785" style="stroke:#ff0000;stroke-linejoin:miter;"/>
    </defs>
    <g clip-path="url(#pf8d82136b2)">
     <use style="fill:#ff0000;stroke:#ff0000;stroke-linejoin:miter;" x="140.367568" xlink:href="#me3ee3b1785" y="136.047568"/>
    </g>
   </g>
   <g id="line2d_32">
    <path clip-path="url(#pf8d82136b2)" d="M 252.972973 248.652973 
" style="fill:none;stroke:#17becf;stroke-linecap:square;stroke-width:1.5;"/>
    <defs>
     <path d="M 0 -5 
L -4.755283 -1.545085 
L -2.938926 4.045085 
L 2.938926 4.045085 
L 4.755283 -1.545085 
z
" id="maf5629c26d" style="stroke:#ff0000;stroke-linejoin:miter;"/>
    </defs>
    <g clip-path="url(#pf8d82136b2)">
     <use style="fill:#ff0000;stroke:#ff0000;stroke-linejoin:miter;" x="252.972973" xlink:href="#maf5629c26d" y="248.652973"/>
    </g>
   </g>
   <g id="line2d_33">
    <defs>
     <path d="M 0 2.5 
C 0.663008 2.5 1.29895 2.236584 1.767767 1.767767 
C 2.236584 1.29895 2.5 0.663008 2.5 0 
C 2.5 -0.663008 2.236584 -1.29895 1.767767 -1.767767 
C 1.29895 -2.236584 0.663008 -2.5 0 -2.5 
C -0.663008 -2.5 -1.29895 -2.236584 -1.767767 -1.767767 
C -2.236584 -1.29895 -2.5 -0.663008 -2.5 0 
C -2.5 0.663008 -2.236584 1.29895 -1.767767 1.767767 
C -1.29895 2.236584 -0.663008 2.5 0 2.5 
z
" id="mc7ec57bc5a" style="stroke:#000000;"/>
    </defs>
    <g clip-path="url(#pf8d82136b2)">
     <use style="stroke:#000000;" x="196.67027" xlink:href="#mc7ec57bc5a" y="389.40973"/>
     <use style="stroke:#000000;" x="196.67027" xlink:href="#mc7ec57bc5a" y="333.107027"/>
     <use style="stroke:#000000;" x="252.972973" xlink:href="#mc7ec57bc5a" y="389.40973"/>
     <use style="stroke:#000000;" x="252.972973" xlink:href="#mc7ec57bc5a" y="333.107027"/>
     <use style="stroke:#000000;" x="309.275676" xlink:href="#mc7ec57bc5a" y="389.40973"/>
     <use style="stroke:#000000;" x="309.275676" xlink:href="#mc7ec57bc5a" y="333.107027"/>
     <use style="stroke:#000000;" x="365.578378" xlink:href="#mc7ec57bc5a" y="389.40973"/>
     <use style="stroke:#000000;" x="365.578378" xlink:href="#mc7ec57bc5a" y="333.107027"/>
     <use style="stroke:#000000;" x="421.881081" xlink:href="#mc7ec57bc5a" y="389.40973"/>
     <use style="stroke:#000000;" x="421.881081" xlink:href="#mc7ec57bc5a" y="333.107027"/>
     <use style="stroke:#000000;" x="196.67027" xlink:href="#mc7ec57bc5a" y="220.501622"/>
     <use style="stroke:#000000;" x="196.67027" xlink:href="#mc7ec57bc5a" y="164.198919"/>
     <use style="stroke:#000000;" x="252.972973" xlink:href="#mc7ec57bc5a" y="220.501622"/>
     <use style="stroke:#000000;" x="252.972973" xlink:href="#mc7ec57bc5a" y="164.198919"/>
     <use style="stroke:#000000;" x="309.275676" xlink:href="#mc7ec57bc5a" y="220.501622"/>
     <use style="stroke:#000000;" x="309.275676" xlink:href="#mc7ec57bc5a" y="164.198919"/>
     <use style="stroke:#000000;" x="365.578378" xlink:href="#mc7ec57bc5a" y="220.501622"/>
     <use style="stroke:#000000;" x="365.578378" xlink:href="#mc7ec57bc5a" y="164.198919"/>
     <use style="stroke:#000000;" x="421.881081" xlink:href="#mc7ec57bc5a" y="220.501622"/>
     <use style="stroke:#000000;" x="421.881081" xlink:href="#mc7ec57bc5a" y="164.198919"/>
    </g>
   </g>
   <g id="line2d_34">
    <path clip-path="url(#pf8d82136b2)" d="M 212.354595 389.40973 
L 211.504775 384.317038 
L 209.047406 379.776218 
L 205.248783 376.279339 
L 200.520544 374.205342 
L 195.375069 373.778975 
L 190.369949 375.046444 
L 186.047566 377.870397 
L 182.876319 381.944816 
L 181.19986 386.828175 
L 181.19986 391.991285 
L 182.876319 396.874643 
L 186.047566 400.949062 
L 190.369949 403.773016 
L 195.375069 405.040484 
L 200.520544 404.614118 
L 205.248783 402.54012 
L 209.047406 399.043241 
L 211.504775 394.502422 
L 212.354595 389.40973 
" style="fill:none;stroke:#000000;stroke-dasharray:5.55,2.4;stroke-dashoffset:0;stroke-width:1.5;"/>
   </g>
   <g id="line2d_35">
    <path clip-path="url(#pf8d82136b2)" d="M 201.094054 389.40973 
L 200.854361 387.973329 
L 200.161257 386.692585 
L 199.089851 385.706286 
L 197.756245 385.121313 
L 196.304957 385.001055 
L 194.893257 385.358547 
L 193.674123 386.155046 
L 192.779669 387.304241 
L 192.306821 388.681599 
L 192.306821 390.137861 
L 192.779669 391.515218 
L 193.674123 392.664413 
L 194.893257 393.460913 
L 196.304957 393.818404 
L 197.756245 393.698147 
L 199.089851 393.113173 
L 200.161257 392.126874 
L 200.854361 390.84613 
L 201.094054 389.40973 
" style="fill:none;stroke:#ff0000;stroke-linecap:square;stroke-width:1.5;"/>
   </g>
   <g id="line2d_36">
    <path clip-path="url(#pf8d82136b2)" d="M 212.354595 333.107027 
L 211.504775 328.014335 
L 209.047406 323.473516 
L 205.248783 319.976636 
L 200.520544 317.902639 
L 195.375069 317.476273 
L 190.369949 318.743741 
L 186.047566 321.567695 
L 182.876319 325.642114 
L 181.19986 330.525472 
L 181.19986 335.688582 
L 182.876319 340.57194 
L 186.047566 344.646359 
L 190.369949 347.470313 
L 195.375069 348.737781 
L 200.520544 348.311415 
L 205.248783 346.237418 
L 209.047406 342.740538 
L 211.504775 338.199719 
L 212.354595 333.107027 
" style="fill:none;stroke:#000000;stroke-dasharray:5.55,2.4;stroke-dashoffset:0;stroke-width:1.5;"/>
   </g>
   <g id="line2d_37">
    <path clip-path="url(#pf8d82136b2)" d="M 201.094054 333.107027 
L 200.854361 331.670627 
L 200.161257 330.389883 
L 199.089851 329.403584 
L 197.756245 328.81861 
L 196.304957 328.698353 
L 194.893257 329.055844 
L 193.674123 329.852344 
L 192.779669 331.001539 
L 192.306821 332.378896 
L 192.306821 333.835158 
L 192.779669 335.212515 
L 193.674123 336.361711 
L 194.893257 337.15821 
L 196.304957 337.515701 
L 197.756245 337.395444 
L 199.089851 336.810471 
L 200.161257 335.824171 
L 200.854361 334.543427 
L 201.094054 333.107027 
" style="fill:none;stroke:#ff0000;stroke-linecap:square;stroke-width:1.5;"/>
   </g>
   <g id="line2d_38">
    <path clip-path="url(#pf8d82136b2)" d="M 268.657297 389.40973 
L 267.807477 384.317038 
L 265.350109 379.776218 
L 261.551485 376.279339 
L 256.823247 374.205342 
L 251.677772 373.778975 
L 246.672652 375.046444 
L 242.350269 377.870397 
L 239.179021 381.944816 
L 237.502562 386.828175 
L 237.502562 391.991285 
L 239.179021 396.874643 
L 242.350269 400.949062 
L 246.672652 403.773016 
L 251.677772 405.040484 
L 256.823247 404.614118 
L 261.551485 402.54012 
L 265.350109 399.043241 
L 267.807477 394.502422 
L 268.657297 389.40973 
" style="fill:none;stroke:#000000;stroke-dasharray:5.55,2.4;stroke-dashoffset:0;stroke-width:1.5;"/>
   </g>
   <g id="line2d_39">
    <path clip-path="url(#pf8d82136b2)" d="M 257.396757 389.40973 
L 257.157064 387.973329 
L 256.46396 386.692585 
L 255.392553 385.706286 
L 254.058948 385.121313 
L 252.60766 385.001055 
L 251.195959 385.358547 
L 249.976826 386.155046 
L 249.082371 387.304241 
L 248.609524 388.681599 
L 248.609524 390.137861 
L 249.082371 391.515218 
L 249.976826 392.664413 
L 251.195959 393.460913 
L 252.60766 393.818404 
L 254.058948 393.698147 
L 255.392553 393.113173 
L 256.46396 392.126874 
L 257.157064 390.84613 
L 257.396757 389.40973 
" style="fill:none;stroke:#ff0000;stroke-linecap:square;stroke-width:1.5;"/>
   </g>
   <g id="line2d_40">
    <path clip-path="url(#pf8d82136b2)" d="M 268.657297 333.107027 
L 267.807477 328.014335 
L 265.350109 323.473516 
L 261.551485 319.976636 
L 256.823247 317.902639 
L 251.677772 317.476273 
L 246.672652 318.743741 
L 242.350269 321.567695 
L 239.179021 325.642114 
L 237.502562 330.525472 
L 237.502562 335.688582 
L 239.179021 340.57194 
L 242.350269 344.646359 
L 246.672652 347.470313 
L 251.677772 348.737781 
L 256.823247 348.311415 
L 261.551485 346.237418 
L 265.350109 342.740538 
L 267.807477 338.199719 
L 268.657297 333.107027 
" style="fill:none;stroke:#000000;stroke-dasharray:5.55,2.4;stroke-dashoffset:0;stroke-width:1.5;"/>
   </g>
   <g id="line2d_41">
    <path clip-path="url(#pf8d82136b2)" d="M 257.396757 333.107027 
L 257.157064 331.670627 
L 256.46396 330.389883 
L 255.392553 329.403584 
L 254.058948 328.81861 
L 252.60766 328.698353 
L 251.195959 329.055844 
L 249.976826 329.852344 
L 249.082371 331.001539 
L 248.609524 332.378896 
L 248.609524 333.835158 
L 249.082371 335.212515 
L 249.976826 336.361711 
L 251.195959 337.15821 
L 252.60766 337.515701 
L 254.058948 337.395444 
L 255.392553 336.810471 
L 256.46396 335.824171 
L 257.157064 334.543427 
L 257.396757 333.107027 
" style="fill:none;stroke:#ff0000;stroke-linecap:square;stroke-width:1.5;"/>
   </g>
   <g id="line2d_42">
    <path clip-path="url(#pf8d82136b2)" d="M 324.96 389.40973 
L 324.11018 384.317038 
L 321.652811 379.776218 
L 317.854188 376.279339 
L 313.12595 374.205342 
L 307.980474 373.778975 
L 302.975354 375.046444 
L 298.652972 377.870397 
L 295.481724 381.944816 
L 293.805265 386.828175 
L 293.805265 391.991285 
L 295.481724 396.874643 
L 298.652972 400.949062 
L 302.975354 403.773016 
L 307.980474 405.040484 
L 313.12595 404.614118 
L 317.854188 402.54012 
L 321.652811 399.043241 
L 324.11018 394.502422 
L 324.96 389.40973 
" style="fill:none;stroke:#000000;stroke-dasharray:5.55,2.4;stroke-dashoffset:0;stroke-width:1.5;"/>
   </g>
   <g id="line2d_43">
    <path clip-path="url(#pf8d82136b2)" d="M 313.699459 389.40973 
L 313.459767 387.973329 
L 312.766663 386.692585 
L 311.695256 385.706286 
L 310.36165 385.121313 
L 308.910363 385.001055 
L 307.498662 385.358547 
L 306.279528 386.155046 
L 305.385074 387.304241 
L 304.912227 388.681599 
L 304.912227 390.137861 
L 305.385074 391.515218 
L 306.279528 392.664413 
L 307.498662 393.460913 
L 308.910363 393.818404 
L 310.36165 393.698147 
L 311.695256 393.113173 
L 312.766663 392.126874 
L 313.459767 390.84613 
L 313.699459 389.40973 
" style="fill:none;stroke:#ff0000;stroke-linecap:square;stroke-width:1.5;"/>
   </g>
   <g id="line2d_44">
    <path clip-path="url(#pf8d82136b2)" d="M 324.96 333.107027 
L 324.11018 328.014335 
L 321.652811 323.473516 
L 317.854188 319.976636 
L 313.12595 317.902639 
L 307.980474 317.476273 
L 302.975354 318.743741 
L 298.652972 321.567695 
L 295.481724 325.642114 
L 293.805265 330.525472 
L 293.805265 335.688582 
L 295.481724 340.57194 
L 298.652972 344.646359 
L 302.975354 347.470313 
L 307.980474 348.737781 
L 313.12595 348.311415 
L 317.854188 346.237418 
L 321.652811 342.740538 
L 324.11018 338.199719 
L 324.96 333.107027 
" style="fill:none;stroke:#000000;stroke-dasharray:5.55,2.4;stroke-dashoffset:0;stroke-width:1.5;"/>
   </g>
   <g id="line2d_45">
    <path clip-path="url(#pf8d82136b2)" d="M 313.699459 333.107027 
L 313.459767 331.670627 
L 312.766663 330.389883 
L 311.695256 329.403584 
L 310.36165 328.81861 
L 308.910363 328.698353 
L 307.498662 329.055844 
L 306.279528 329.852344 
L 305.385074 331.001539 
L 304.912227 332.378896 
L 304.912227 333.835158 
L 305.385074 335.212515 
L 306.279528 336.361711 
L 307.498662 337.15821 
L 308.910363 337.515701 
L 310.36165 337.395444 
L 311.695256 336.810471 
L 312.766663 335.824171 
L 313.459767 334.543427 
L 313.699459 333.107027 
" style="fill:none;stroke:#ff0000;stroke-linecap:square;stroke-width:1.5;"/>
   </g>
   <g id="line2d_46">
    <path clip-path="url(#pf8d82136b2)" d="M 381.262703 389.40973 
L 380.412883 384.317038 
L 377.955514 379.776218 
L 374.156891 376.279339 
L 369.428652 374.205342 
L 364.283177 373.778975 
L 359.278057 375.046444 
L 354.955675 377.870397 
L 351.784427 381.944816 
L 350.107968 386.828175 
L 350.107968 391.991285 
L 351.784427 396.874643 
L 354.955675 400.949062 
L 359.278057 403.773016 
L 364.283177 405.040484 
L 369.428652 404.614118 
L 374.156891 402.54012 
L 377.955514 399.043241 
L 380.412883 394.502422 
L 381.262703 389.40973 
" style="fill:none;stroke:#000000;stroke-dasharray:5.55,2.4;stroke-dashoffset:0;stroke-width:1.5;"/>
   </g>
   <g id="line2d_47">
    <path clip-path="url(#pf8d82136b2)" d="M 370.002162 389.40973 
L 369.762469 387.973329 
L 369.069365 386.692585 
L 367.997959 385.706286 
L 366.664353 385.121313 
L 365.213065 385.001055 
L 363.801365 385.358547 
L 362.582231 386.155046 
L 361.687777 387.304241 
L 361.214929 388.681599 
L 361.214929 390.137861 
L 361.687777 391.515218 
L 362.582231 392.664413 
L 363.801365 393.460913 
L 365.213065 393.818404 
L 366.664353 393.698147 
L 367.997959 393.113173 
L 369.069365 392.126874 
L 369.762469 390.84613 
L 370.002162 389.40973 
" style="fill:none;stroke:#ff0000;stroke-linecap:square;stroke-width:1.5;"/>
   </g>
   <g id="line2d_48">
    <path clip-path="url(#pf8d82136b2)" d="M 381.262703 333.107027 
L 380.412883 328.014335 
L 377.955514 323.473516 
L 374.156891 319.976636 
L 369.428652 317.902639 
L 364.283177 317.476273 
L 359.278057 318.743741 
L 354.955675 321.567695 
L 351.784427 325.642114 
L 350.107968 330.525472 
L 350.107968 335.688582 
L 351.784427 340.57194 
L 354.955675 344.646359 
L 359.278057 347.470313 
L 364.283177 348.737781 
L 369.428652 348.311415 
L 374.156891 346.237418 
L 377.955514 342.740538 
L 380.412883 338.199719 
L 381.262703 333.107027 
" style="fill:none;stroke:#000000;stroke-dasharray:5.55,2.4;stroke-dashoffset:0;stroke-width:1.5;"/>
   </g>
   <g id="line2d_49">
    <path clip-path="url(#pf8d82136b2)" d="M 370.002162 333.107027 
L 369.762469 331.670627 
L 369.069365 330.389883 
L 367.997959 329.403584 
L 366.664353 328.81861 
L 365.213065 328.698353 
L 363.801365 329.055844 
L 362.582231 329.852344 
L 361.687777 331.001539 
L 361.214929 332.378896 
L 361.214929 333.835158 
L 361.687777 335.212515 
L 362.582231 336.361711 
L 363.801365 337.15821 
L 365.213065 337.515701 
L 366.664353 337.395444 
L 367.997959 336.810471 
L 369.069365 335.824171 
L 369.762469 334.543427 
L 370.002162 333.107027 
" style="fill:none;stroke:#ff0000;stroke-linecap:square;stroke-width:1.5;"/>
   </g>
   <g id="line2d_50">
    <path clip-path="url(#pf8d82136b2)" d="M 437.565405 389.40973 
L 436.715585 384.317038 
L 434.258217 379.776218 
L 430.459593 376.279339 
L 425.731355 374.205342 
L 420.58588 373.778975 
L 415.58076 375.046444 
L 411.258377 377.870397 
L 408.08713 381.944816 
L 406.41067 386.828175 
L 406.41067 391.991285 
L 408.08713 396.874643 
L 411.258377 400.949062 
L 415.58076 403.773016 
L 420.58588 405.040484 
L 425.731355 404.614118 
L 430.459593 402.54012 
L 434.258217 399.043241 
L 436.715585 394.502422 
L 437.565405 389.40973 
" style="fill:none;stroke:#000000;stroke-dasharray:5.55,2.4;stroke-dashoffset:0;stroke-width:1.5;"/>
   </g>
   <g id="line2d_51">
    <path clip-path="url(#pf8d82136b2)" d="M 426.304865 389.40973 
L 426.065172 387.973329 
L 425.372068 386.692585 
L 424.300661 385.706286 
L 422.967056 385.121313 
L 421.515768 385.001055 
L 420.104067 385.358547 
L 418.884934 386.155046 
L 417.990479 387.304241 
L 417.517632 388.681599 
L 417.517632 390.137861 
L 417.990479 391.515218 
L 418.884934 392.664413 
L 420.104067 393.460913 
L 421.515768 393.818404 
L 422.967056 393.698147 
L 424.300661 393.113173 
L 425.372068 392.126874 
L 426.065172 390.84613 
L 426.304865 389.40973 
" style="fill:none;stroke:#ff0000;stroke-linecap:square;stroke-width:1.5;"/>
   </g>
   <g id="line2d_52">
    <path clip-path="url(#pf8d82136b2)" d="M 437.565405 333.107027 
L 436.715585 328.014335 
L 434.258217 323.473516 
L 430.459593 319.976636 
L 425.731355 317.902639 
L 420.58588 317.476273 
L 415.58076 318.743741 
L 411.258377 321.567695 
L 408.08713 325.642114 
L 406.41067 330.525472 
L 406.41067 335.688582 
L 408.08713 340.57194 
L 411.258377 344.646359 
L 415.58076 347.470313 
L 420.58588 348.737781 
L 425.731355 348.311415 
L 430.459593 346.237418 
L 434.258217 342.740538 
L 436.715585 338.199719 
L 437.565405 333.107027 
" style="fill:none;stroke:#000000;stroke-dasharray:5.55,2.4;stroke-dashoffset:0;stroke-width:1.5;"/>
   </g>
   <g id="line2d_53">
    <path clip-path="url(#pf8d82136b2)" d="M 426.304865 333.107027 
L 426.065172 331.670627 
L 425.372068 330.389883 
L 424.300661 329.403584 
L 422.967056 328.81861 
L 421.515768 328.698353 
L 420.104067 329.055844 
L 418.884934 329.852344 
L 417.990479 331.001539 
L 417.517632 332.378896 
L 417.517632 333.835158 
L 417.990479 335.212515 
L 418.884934 336.361711 
L 420.104067 337.15821 
L 421.515768 337.515701 
L 422.967056 337.395444 
L 424.300661 336.810471 
L 425.372068 335.824171 
L 426.065172 334.543427 
L 426.304865 333.107027 
" style="fill:none;stroke:#ff0000;stroke-linecap:square;stroke-width:1.5;"/>
   </g>
   <g id="line2d_54">
    <path clip-path="url(#pf8d82136b2)" d="M 212.354595 220.501622 
L 211.504775 215.40893 
L 209.047406 210.86811 
L 205.248783 207.371231 
L 200.520544 205.297233 
L 195.375069 204.870867 
L 190.369949 206.138336 
L 186.047566 208.962289 
L 182.876319 213.036708 
L 181.19986 217.920067 
L 181.19986 223.083177 
L 182.876319 227.966535 
L 186.047566 232.040954 
L 190.369949 234.864907 
L 195.375069 236.132376 
L 200.520544 235.70601 
L 205.248783 233.632012 
L 209.047406 230.135133 
L 211.504775 225.594313 
L 212.354595 220.501622 
" style="fill:none;stroke:#000000;stroke-dasharray:5.55,2.4;stroke-dashoffset:0;stroke-width:1.5;"/>
   </g>
   <g id="line2d_55">
    <path clip-path="url(#pf8d82136b2)" d="M 201.094054 220.501622 
L 200.854361 219.065221 
L 200.161257 217.784477 
L 199.089851 216.798178 
L 197.756245 216.213204 
L 196.304957 216.092947 
L 194.893257 216.450438 
L 193.674123 217.246938 
L 192.779669 218.396133 
L 192.306821 219.773491 
L 192.306821 221.229753 
L 192.779669 222.60711 
L 193.674123 223.756305 
L 194.893257 224.552805 
L 196.304957 224.910296 
L 197.756245 224.790039 
L 199.089851 224.205065 
L 200.161257 223.218766 
L 200.854361 221.938022 
L 201.094054 220.501622 
" style="fill:none;stroke:#ff0000;stroke-linecap:square;stroke-width:1.5;"/>
   </g>
   <g id="line2d_56">
    <path clip-path="url(#pf8d82136b2)" d="M 212.354595 164.198919 
L 211.504775 159.106227 
L 209.047406 154.565408 
L 205.248783 151.068528 
L 200.520544 148.994531 
L 195.375069 148.568165 
L 190.369949 149.835633 
L 186.047566 152.659586 
L 182.876319 156.734006 
L 181.19986 161.617364 
L 181.19986 166.780474 
L 182.876319 171.663832 
L 186.047566 175.738251 
L 190.369949 178.562205 
L 195.375069 179.829673 
L 200.520544 179.403307 
L 205.248783 177.329309 
L 209.047406 173.83243 
L 211.504775 169.291611 
L 212.354595 164.198919 
" style="fill:none;stroke:#000000;stroke-dasharray:5.55,2.4;stroke-dashoffset:0;stroke-width:1.5;"/>
   </g>
   <g id="line2d_57">
    <path clip-path="url(#pf8d82136b2)" d="M 201.094054 164.198919 
L 200.854361 162.762519 
L 200.161257 161.481775 
L 199.089851 160.495475 
L 197.756245 159.910502 
L 196.304957 159.790245 
L 194.893257 160.147736 
L 193.674123 160.944235 
L 192.779669 162.093431 
L 192.306821 163.470788 
L 192.306821 164.92705 
L 192.779669 166.304407 
L 193.674123 167.453602 
L 194.893257 168.250102 
L 196.304957 168.607593 
L 197.756245 168.487336 
L 199.089851 167.902362 
L 200.161257 166.916063 
L 200.854361 165.635319 
L 201.094054 164.198919 
" style="fill:none;stroke:#ff0000;stroke-linecap:square;stroke-width:1.5;"/>
   </g>
   <g id="line2d_58">
    <path clip-path="url(#pf8d82136b2)" d="M 268.657297 220.501622 
L 267.807477 215.40893 
L 265.350109 210.86811 
L 261.551485 207.371231 
L 256.823247 205.297233 
L 251.677772 204.870867 
L 246.672652 206.138336 
L 242.350269 208.962289 
L 239.179021 213.036708 
L 237.502562 217.920067 
L 237.502562 223.083177 
L 239.179021 227.966535 
L 242.350269 232.040954 
L 246.672652 234.864907 
L 251.677772 236.132376 
L 256.823247 235.70601 
L 261.551485 233.632012 
L 265.350109 230.135133 
L 267.807477 225.594313 
L 268.657297 220.501622 
" style="fill:none;stroke:#000000;stroke-dasharray:5.55,2.4;stroke-dashoffset:0;stroke-width:1.5;"/>
   </g>
   <g id="line2d_59">
    <path clip-path="url(#pf8d82136b2)" d="M 257.396757 220.501622 
L 257.157064 219.065221 
L 256.46396 217.784477 
L 255.392553 216.798178 
L 254.058948 216.213204 
L 252.60766 216.092947 
L 251.195959 216.450438 
L 249.976826 217.246938 
L 249.082371 218.396133 
L 248.609524 219.773491 
L 248.609524 221.229753 
L 249.082371 222.60711 
L 249.976826 223.756305 
L 251.195959 224.552805 
L 252.60766 224.910296 
L 254.058948 224.790039 
L 255.392553 224.205065 
L 256.46396 223.218766 
L 257.157064 221.938022 
L 257.396757 220.501622 
" style="fill:none;stroke:#ff0000;stroke-linecap:square;stroke-width:1.5;"/>
   </g>
   <g id="line2d_60">
    <path clip-path="url(#pf8d82136b2)" d="M 268.657297 164.198919 
L 267.807477 159.106227 
L 265.350109 154.565408 
L 261.551485 151.068528 
L 256.823247 148.994531 
L 251.677772 148.568165 
L 246.672652 149.835633 
L 242.350269 152.659586 
L 239.179021 156.734006 
L 237.502562 161.617364 
L 237.502562 166.780474 
L 239.179021 171.663832 
L 242.350269 175.738251 
L 246.672652 178.562205 
L 251.677772 179.829673 
L 256.823247 179.403307 
L 261.551485 177.329309 
L 265.350109 173.83243 
L 267.807477 169.291611 
L 268.657297 164.198919 
" style="fill:none;stroke:#000000;stroke-dasharray:5.55,2.4;stroke-dashoffset:0;stroke-width:1.5;"/>
   </g>
   <g id="line2d_61">
    <path clip-path="url(#pf8d82136b2)" d="M 257.396757 164.198919 
L 257.157064 162.762519 
L 256.46396 161.481775 
L 255.392553 160.495475 
L 254.058948 159.910502 
L 252.60766 159.790245 
L 251.195959 160.147736 
L 249.976826 160.944235 
L 249.082371 162.093431 
L 248.609524 163.470788 
L 248.609524 164.92705 
L 249.082371 166.304407 
L 249.976826 167.453602 
L 251.195959 168.250102 
L 252.60766 168.607593 
L 254.058948 168.487336 
L 255.392553 167.902362 
L 256.46396 166.916063 
L 257.157064 165.635319 
L 257.396757 164.198919 
" style="fill:none;stroke:#ff0000;stroke-linecap:square;stroke-width:1.5;"/>
   </g>
   <g id="line2d_62">
    <path clip-path="url(#pf8d82136b2)" d="M 324.96 220.501622 
L 324.11018 215.40893 
L 321.652811 210.86811 
L 317.854188 207.371231 
L 313.12595 205.297233 
L 307.980474 204.870867 
L 302.975354 206.138336 
L 298.652972 208.962289 
L 295.481724 213.036708 
L 293.805265 217.920067 
L 293.805265 223.083177 
L 295.481724 227.966535 
L 298.652972 232.040954 
L 302.975354 234.864907 
L 307.980474 236.132376 
L 313.12595 235.70601 
L 317.854188 233.632012 
L 321.652811 230.135133 
L 324.11018 225.594313 
L 324.96 220.501622 
" style="fill:none;stroke:#000000;stroke-dasharray:5.55,2.4;stroke-dashoffset:0;stroke-width:1.5;"/>
   </g>
   <g id="line2d_63">
    <path clip-path="url(#pf8d82136b2)" d="M 313.699459 220.501622 
L 313.459767 219.065221 
L 312.766663 217.784477 
L 311.695256 216.798178 
L 310.36165 216.213204 
L 308.910363 216.092947 
L 307.498662 216.450438 
L 306.279528 217.246938 
L 305.385074 218.396133 
L 304.912227 219.773491 
L 304.912227 221.229753 
L 305.385074 222.60711 
L 306.279528 223.756305 
L 307.498662 224.552805 
L 308.910363 224.910296 
L 310.36165 224.790039 
L 311.695256 224.205065 
L 312.766663 223.218766 
L 313.459767 221.938022 
L 313.699459 220.501622 
" style="fill:none;stroke:#ff0000;stroke-linecap:square;stroke-width:1.5;"/>
   </g>
   <g id="line2d_64">
    <path clip-path="url(#pf8d82136b2)" d="M 324.96 164.198919 
L 324.11018 159.106227 
L 321.652811 154.565408 
L 317.854188 151.068528 
L 313.12595 148.994531 
L 307.980474 148.568165 
L 302.975354 149.835633 
L 298.652972 152.659586 
L 295.481724 156.734006 
L 293.805265 161.617364 
L 293.805265 166.780474 
L 295.481724 171.663832 
L 298.652972 175.738251 
L 302.975354 178.562205 
L 307.980474 179.829673 
L 313.12595 179.403307 
L 317.854188 177.329309 
L 321.652811 173.83243 
L 324.11018 169.291611 
L 324.96 164.198919 
" style="fill:none;stroke:#000000;stroke-dasharray:5.55,2.4;stroke-dashoffset:0;stroke-width:1.5;"/>
   </g>
   <g id="line2d_65">
    <path clip-path="url(#pf8d82136b2)" d="M 313.699459 164.198919 
L 313.459767 162.762519 
L 312.766663 161.481775 
L 311.695256 160.495475 
L 310.36165 159.910502 
L 308.910363 159.790245 
L 307.498662 160.147736 
L 306.279528 160.944235 
L 305.385074 162.093431 
L 304.912227 163.470788 
L 304.912227 164.92705 
L 305.385074 166.304407 
L 306.279528 167.453602 
L 307.498662 168.250102 
L 308.910363 168.607593 
L 310.36165 168.487336 
L 311.695256 167.902362 
L 312.766663 166.916063 
L 313.459767 165.635319 
L 313.699459 164.198919 
" style="fill:none;stroke:#ff0000;stroke-linecap:square;stroke-width:1.5;"/>
   </g>
   <g id="line2d_66">
    <path clip-path="url(#pf8d82136b2)" d="M 381.262703 220.501622 
L 380.412883 215.40893 
L 377.955514 210.86811 
L 374.156891 207.371231 
L 369.428652 205.297233 
L 364.283177 204.870867 
L 359.278057 206.138336 
L 354.955675 208.962289 
L 351.784427 213.036708 
L 350.107968 217.920067 
L 350.107968 223.083177 
L 351.784427 227.966535 
L 354.955675 232.040954 
L 359.278057 234.864907 
L 364.283177 236.132376 
L 369.428652 235.70601 
L 374.156891 233.632012 
L 377.955514 230.135133 
L 380.412883 225.594313 
L 381.262703 220.501622 
" style="fill:none;stroke:#000000;stroke-dasharray:5.55,2.4;stroke-dashoffset:0;stroke-width:1.5;"/>
   </g>
   <g id="line2d_67">
    <path clip-path="url(#pf8d82136b2)" d="M 370.002162 220.501622 
L 369.762469 219.065221 
L 369.069365 217.784477 
L 367.997959 216.798178 
L 366.664353 216.213204 
L 365.213065 216.092947 
L 363.801365 216.450438 
L 362.582231 217.246938 
L 361.687777 218.396133 
L 361.214929 219.773491 
L 361.214929 221.229753 
L 361.687777 222.60711 
L 362.582231 223.756305 
L 363.801365 224.552805 
L 365.213065 224.910296 
L 366.664353 224.790039 
L 367.997959 224.205065 
L 369.069365 223.218766 
L 369.762469 221.938022 
L 370.002162 220.501622 
" style="fill:none;stroke:#ff0000;stroke-linecap:square;stroke-width:1.5;"/>
   </g>
   <g id="line2d_68">
    <path clip-path="url(#pf8d82136b2)" d="M 381.262703 164.198919 
L 380.412883 159.106227 
L 377.955514 154.565408 
L 374.156891 151.068528 
L 369.428652 148.994531 
L 364.283177 148.568165 
L 359.278057 149.835633 
L 354.955675 152.659586 
L 351.784427 156.734006 
L 350.107968 161.617364 
L 350.107968 166.780474 
L 351.784427 171.663832 
L 354.955675 175.738251 
L 359.278057 178.562205 
L 364.283177 179.829673 
L 369.428652 179.403307 
L 374.156891 177.329309 
L 377.955514 173.83243 
L 380.412883 169.291611 
L 381.262703 164.198919 
" style="fill:none;stroke:#000000;stroke-dasharray:5.55,2.4;stroke-dashoffset:0;stroke-width:1.5;"/>
   </g>
   <g id="line2d_69">
    <path clip-path="url(#pf8d82136b2)" d="M 370.002162 164.198919 
L 369.762469 162.762519 
L 369.069365 161.481775 
L 367.997959 160.495475 
L 366.664353 159.910502 
L 365.213065 159.790245 
L 363.801365 160.147736 
L 362.582231 160.944235 
L 361.687777 162.093431 
L 361.214929 163.470788 
L 361.214929 164.92705 
L 361.687777 166.304407 
L 362.582231 167.453602 
L 363.801365 168.250102 
L 365.213065 168.607593 
L 366.664353 168.487336 
L 367.997959 167.902362 
L 369.069365 166.916063 
L 369.762469 165.635319 
L 370.002162 164.198919 
" style="fill:none;stroke:#ff0000;stroke-linecap:square;stroke-width:1.5;"/>
   </g>
   <g id="line2d_70">
    <path clip-path="url(#pf8d82136b2)" d="M 437.565405 220.501622 
L 436.715585 215.40893 
L 434.258217 210.86811 
L 430.459593 207.371231 
L 425.731355 205.297233 
L 420.58588 204.870867 
L 415.58076 206.138336 
L 411.258377 208.962289 
L 408.08713 213.036708 
L 406.41067 217.920067 
L 406.41067 223.083177 
L 408.08713 227.966535 
L 411.258377 232.040954 
L 415.58076 234.864907 
L 420.58588 236.132376 
L 425.731355 235.70601 
L 430.459593 233.632012 
L 434.258217 230.135133 
L 436.715585 225.594313 
L 437.565405 220.501622 
" style="fill:none;stroke:#000000;stroke-dasharray:5.55,2.4;stroke-dashoffset:0;stroke-width:1.5;"/>
   </g>
   <g id="line2d_71">
    <path clip-path="url(#pf8d82136b2)" d="M 426.304865 220.501622 
L 426.065172 219.065221 
L 425.372068 217.784477 
L 424.300661 216.798178 
L 422.967056 216.213204 
L 421.515768 216.092947 
L 420.104067 216.450438 
L 418.884934 217.246938 
L 417.990479 218.396133 
L 417.517632 219.773491 
L 417.517632 221.229753 
L 417.990479 222.60711 
L 418.884934 223.756305 
L 420.104067 224.552805 
L 421.515768 224.910296 
L 422.967056 224.790039 
L 424.300661 224.205065 
L 425.372068 223.218766 
L 426.065172 221.938022 
L 426.304865 220.501622 
" style="fill:none;stroke:#ff0000;stroke-linecap:square;stroke-width:1.5;"/>
   </g>
   <g id="line2d_72">
    <path clip-path="url(#pf8d82136b2)" d="M 437.565405 164.198919 
L 436.715585 159.106227 
L 434.258217 154.565408 
L 430.459593 151.068528 
L 425.731355 148.994531 
L 420.58588 148.568165 
L 415.58076 149.835633 
L 411.258377 152.659586 
L 408.08713 156.734006 
L 406.41067 161.617364 
L 406.41067 166.780474 
L 408.08713 171.663832 
L 411.258377 175.738251 
L 415.58076 178.562205 
L 420.58588 179.829673 
L 425.731355 179.403307 
L 430.459593 177.329309 
L 434.258217 173.83243 
L 436.715585 169.291611 
L 437.565405 164.198919 
" style="fill:none;stroke:#000000;stroke-dasharray:5.55,2.4;stroke-dashoffset:0;stroke-width:1.5;"/>
   </g>
   <g id="line2d_73">
    <path clip-path="url(#pf8d82136b2)" d="M 426.304865 164.198919 
L 426.065172 162.762519 
L 425.372068 161.481775 
L 424.300661 160.495475 
L 422.967056 159.910502 
L 421.515768 159.790245 
L 420.104067 160.147736 
L 418.884934 160.944235 
L 417.990479 162.093431 
L 417.517632 163.470788 
L 417.517632 164.92705 
L 417.990479 166.304407 
L 418.884934 167.453602 
L 420.104067 168.250102 
L 421.515768 168.607593 
L 422.967056 168.487336 
L 424.300661 167.902362 
L 425.372068 166.916063 
L 426.065172 165.635319 
L 426.304865 164.198919 
" style="fill:none;stroke:#ff0000;stroke-linecap:square;stroke-width:1.5;"/>
   </g>
   <g id="line2d_74">
    <path clip-path="url(#pf8d82136b2)" d="M 92.108108 493.971892 
L 92.108108 87.788108 
" style="fill:none;stroke:#000000;stroke-linecap:square;stroke-width:4;"/>
   </g>
   <g id="line2d_75">
    <path clip-path="url(#pf8d82136b2)" d="M 92.108108 87.788108 
L 498.291892 87.788108 
" style="fill:none;stroke:#000000;stroke-linecap:square;stroke-width:4;"/>
   </g>
   <g id="line2d_76">
    <path clip-path="url(#pf8d82136b2)" d="M 498.291892 87.788108 
L 498.291892 493.971892 
" style="fill:none;stroke:#000000;stroke-linecap:square;stroke-width:4;"/>
   </g>
   <g id="line2d_77">
    <path clip-path="url(#pf8d82136b2)" d="M 498.291892 493.971892 
L 92.108108 493.971892 
" style="fill:none;stroke:#000000;stroke-linecap:square;stroke-width:4;"/>
   </g>
   <g id="line2d_78">
    <path clip-path="url(#pf8d82136b2)" d="M 140.367568 389.40973 
L 140.890378 389.40973 
L 142.981622 389.289081 
L 144.751135 388.886919 
L 146.72173 388.163027 
L 149.69773 386.514162 
L 152.794378 384.422919 
L 157.258378 381.004541 
L 171.293838 369.824432 
L 181.991351 361.298595 
L 192.085622 353.295568 
L 195.302919 350.842378 
L 196.790919 349.796757 
L 199.565838 348.228324 
L 200.892973 347.785946 
L 202.501622 347.625081 
L 203.547243 347.665297 
L 205.155892 347.987027 
L 208.212324 348.871784 
L 210.022054 349.273946 
L 211.55027 349.394595 
L 213.400216 349.314162 
L 215.411027 348.871784 
L 217.140324 348.268541 
L 218.588108 347.584865 
L 220.156541 346.659892 
L 223.212973 344.488216 
L 226.309622 341.954595 
L 233.146378 335.962378 
L 236.886486 332.342919 
L 237.851676 331.257081 
L 238.816865 329.688649 
L 238.97773 328.763676 
L 238.857081 327.195243 
L 238.374486 325.506162 
L 235.840865 320.720432 
L 235.478919 319.47373 
L 235.398486 318.186811 
L 235.599568 316.899892 
L 236.00173 315.572757 
L 236.564757 314.36627 
L 237.529946 312.717405 
L 239.540757 310.103351 
L 241.833081 307.811027 
L 242.999351 306.684973 
L 248.187243 302.381838 
L 269.783351 286.054054 
L 273.161514 283.76173 
L 274.810378 282.796541 
L 279.033081 279.941189 
L 281.405838 278.051027 
L 281.928649 277.327135 
L 282.411243 275.959784 
L 283.094919 274.230486 
L 283.939459 272.70227 
L 285.10573 271.455568 
L 285.668757 271.013189 
L 287.076324 270.289297 
L 288.564324 269.887135 
L 288.886054 269.846919 
L 291.781622 269.927351 
L 295.763027 270.409946 
L 297.653189 270.450162 
L 299.141189 270.168649 
L 299.98573 269.846919 
L 302.921514 268.037189 
L 303.846486 267.755676 
L 305.052973 267.635027 
L 310.441946 267.876324 
L 311.728865 267.635027 
L 313.136432 267.031784 
L 314.463568 266.227459 
L 315.871135 265.181838 
L 317.52 264.136216 
L 319.530811 263.291676 
L 322.667676 262.487351 
L 324.718703 261.964541 
L 327.976216 260.79827 
L 329.665297 259.993946 
L 333.123892 258.023351 
L 335.939027 256.052757 
L 339.116108 253.599568 
L 342.936649 250.261622 
L 346.95827 246.360649 
L 350.819027 242.258595 
L 360.028541 232.164324 
L 360.229622 232.244757 
L 360.672 232.687135 
L 361.476324 234.054486 
L 362.16 235.904432 
L 362.401297 237.995676 
L 362.361081 240.328216 
L 362.320865 240.207568 
L 362.16 240.046703 
L 362.361081 240.127135 
L 363.32627 240.328216 
L 364.291459 240.288 
L 365.256649 240.046703 
L 366.382703 239.644541 
L 367.870703 238.880432 
L 370.565189 236.99027 
L 373.460757 234.818595 
L 374.908541 233.893622 
L 377.804108 232.486054 
L 379.412757 231.882811 
L 383.353946 230.555676 
L 385.284324 229.670919 
L 386.571243 228.866595 
L 387.737514 227.901405 
L 388.984216 226.57427 
L 389.868973 225.287351 
L 391.316757 222.472216 
L 392.322162 219.456 
L 393.126486 215.555027 
L 393.488432 212.377946 
L 393.810162 207.310703 
L 393.930811 201.720649 
L 393.850378 193.154595 
L 393.850378 193.154595 
" style="fill:none;stroke:#8000ff;stroke-linecap:square;stroke-width:1.5;"/>
   </g>
   <g id="line2d_79">
    <path clip-path="url(#pf8d82136b2)" d="M 450.032432 192.35027 
L 450.27373 192.430703 
L 450.354162 192.591568 
L 450.474811 193.114378 
L 450.434595 193.958919 
L 450.112865 195.084973 
L 449.509622 196.291459 
L 448.504216 197.859892 
L 447.29773 199.307676 
L 444.522811 201.841297 
L 439.817514 205.380324 
L 431.492757 211.332324 
L 431.010162 211.251892 
L 430.889514 211.010595 
L 430.688432 210.085622 
L 430.648216 208.436757 
L 430.889514 207.069405 
L 431.975351 204.012973 
L 431.935135 204.133622 
L 432.015568 204.334703 
L 431.814486 204.133622 
L 431.372108 203.771676 
L 430.205838 203.289081 
L 428.034162 202.967351 
L 425.178811 203.128216 
L 417.939892 204.214054 
L 416.04973 204.294486 
L 411.987892 204.133622 
L 410.137946 204.053189 
L 408.046703 204.133622 
L 406.236973 204.374919 
L 404.427243 204.857514 
L 402.697946 205.500973 
L 400.807784 206.425946 
L 399.239351 207.350919 
L 396.022054 209.643243 
L 391.075459 213.745297 
L 385.64627 218.531027 
L 381.865946 222.190703 
L 380.096432 224.281946 
L 379.69427 225.046054 
L 379.412757 225.890595 
L 379.292108 227.619892 
L 379.493189 229.148108 
L 380.016 230.716541 
L 381.302919 234.054486 
L 381.705081 235.864216 
L 381.865946 237.673946 
L 381.745297 238.679351 
L 381.463784 240.046703 
L 380.739892 241.776 
L 379.935568 243.223784 
L 378.970378 244.550919 
L 376.798703 247.004108 
L 374.466162 249.216 
L 370.927135 252.151784 
L 366.463135 255.610378 
L 360.712216 259.95373 
L 345.872432 271.013189 
L 339.035676 276.281514 
L 338.472649 276.804324 
L 338.512865 276.643459 
L 338.834595 277.608649 
L 340.201946 279.378162 
L 341.046486 280.504216 
L 341.207351 280.986811 
L 341.328 282.394378 
L 341.167135 283.238919 
L 340.805189 284.204108 
L 340.000865 285.692108 
L 333.686919 295.625514 
L 331.032649 301.376432 
L 330.147892 302.784 
L 328.981622 304.272 
L 326.407784 307.046919 
L 323.753514 309.379459 
L 321.018811 311.551135 
L 316.554811 314.607568 
L 313.056 316.618378 
L 310.321297 317.824865 
L 309.114811 318.186811 
L 308.189838 318.307459 
L 307.104 318.227027 
L 305.173622 317.543351 
L 303.967135 316.819459 
L 299.905297 313.682595 
L 298.859676 313.159784 
L 297.894486 312.838054 
L 296.607568 312.596757 
L 295.039135 312.556541 
L 293.712 312.677189 
L 291.178378 313.2 
L 287.317622 314.205405 
L 286.070919 314.446703 
L 284.623135 314.607568 
L 283.416649 314.607568 
L 281.566703 314.36627 
L 279.716757 313.883676 
L 274.166919 311.953297 
L 272.55827 311.631568 
L 270.788757 311.510919 
L 269.139892 311.631568 
L 267.410595 311.953297 
L 265.882378 312.435892 
L 264.193297 313.159784 
L 262.584649 314.004324 
L 260.774919 315.130378 
L 257.155459 317.824865 
L 254.863135 319.47373 
L 254.782703 319.47373 
L 253.817514 319.031351 
L 252.329514 317.945514 
L 251.243676 316.698811 
L 248.911135 313.079351 
L 249.031784 313.159784 
L 249.112216 313.2 
L 248.790486 313.159784 
L 248.106811 313.2 
L 247.181838 313.401081 
L 246.176432 313.803243 
L 245.130811 314.36627 
L 242.516757 316.417297 
L 240.144 318.910703 
L 237.529946 321.967135 
L 231.819243 329.366919 
L 230.009514 332.302703 
L 229.044324 334.192865 
L 228.320432 335.922162 
L 227.516108 338.134054 
L 226.510703 341.994811 
L 225.907459 345.413189 
L 225.384649 349.113081 
L 224.902054 354.703135 
L 224.660757 360.614919 
L 224.660757 360.614919 
" style="fill:none;stroke:#4757fb;stroke-linecap:square;stroke-width:1.5;"/>
   </g>
   <g id="line2d_80">
    <path clip-path="url(#pf8d82136b2)" d="M 399.36 440.082162 
L 399.118703 440.162595 
L 399.078486 440.243027 
L 399.118703 440.122378 
L 399.239351 439.519135 
L 399.239351 438.393081 
L 399.03827 437.106162 
L 398.515459 435.457297 
L 397.992649 434.250811 
L 396.464432 431.556324 
L 392.885189 426.207568 
L 374.988973 401.193081 
L 373.661838 399.222486 
L 373.903135 398.940973 
L 374.224865 398.860541 
L 375.431351 398.699676 
L 377.120432 398.780108 
L 379.010595 399.302919 
L 381.906162 400.831135 
L 383.394162 401.796324 
L 383.193081 401.756108 
L 383.032216 401.836541 
L 382.951784 401.916973 
L 383.31373 400.951784 
L 383.394162 399.906162 
L 383.31373 398.579027 
L 382.992 397.091027 
L 381.865946 393.753081 
L 380.981189 391.500973 
L 380.498595 389.449946 
L 380.498595 388.243459 
L 380.739892 386.956541 
L 381.463784 385.187027 
L 382.589838 383.337081 
L 383.715892 381.768649 
L 384.560432 380.361081 
L 385.083243 379.154595 
L 385.324541 378.028541 
L 385.364757 376.902486 
L 385.163676 375.293838 
L 384.681081 373.564541 
L 383.353946 370.709189 
L 382.268108 368.899459 
L 380.096432 365.883243 
L 377.884541 363.148541 
L 371.570595 355.869405 
L 366.704432 350.560865 
L 364.170811 348.188108 
L 363.446919 347.625081 
L 362.401297 347.182703 
L 361.355676 347.10227 
L 360.068757 347.263135 
L 358.580757 347.705514 
L 353.915676 350.158703 
L 352.588541 350.601081 
L 351.663568 350.72173 
L 350.376649 350.681514 
L 348.647351 350.279351 
L 346.716973 349.394595 
L 345.108324 348.348973 
L 343.620324 347.142486 
L 342.051892 345.654486 
L 339.317189 342.63827 
L 332.641297 334.233081 
L 329.303351 329.688649 
L 327.212108 326.551784 
L 325.241514 323.012757 
L 324.437189 321.283459 
L 320.898162 312.275027 
L 319.410162 309.580541 
L 318.163459 307.811027 
L 317.399351 307.006703 
L 316.032 306.08173 
L 314.704865 305.599135 
L 312.975568 305.398054 
L 311.206054 305.518703 
L 309.436541 305.880649 
L 302.64 307.690378 
L 301.47373 307.811027 
L 300.025946 307.770811 
L 298.377081 307.489297 
L 296.889081 307.087135 
L 295.401081 306.483892 
L 293.953297 305.719784 
L 292.103351 304.553514 
L 290.615351 303.387243 
L 287.880649 300.773189 
L 285.387243 297.917838 
L 283.135135 294.901622 
L 281.124324 292.006054 
L 277.545081 286.335568 
L 269.340973 272.179459 
L 266.686703 267.192649 
L 266.204108 265.865514 
L 266.405189 265.704649 
L 266.646486 265.624216 
L 267.812757 265.664432 
L 269.019243 266.147027 
L 271.07027 267.554595 
L 270.828973 267.474162 
L 270.708324 267.514378 
L 270.828973 267.433946 
L 271.673514 266.870919 
L 273.241946 265.342703 
L 274.68973 263.130811 
L 275.856 260.959135 
L 278.832 255.047351 
L 280.360216 251.267027 
L 281.365622 247.205189 
L 281.687351 244.43027 
L 281.888432 240.529297 
L 281.928649 238.840216 
L 282.12973 236.789189 
L 282.97427 231.68173 
L 283.014486 230.475243 
L 282.773189 227.941622 
L 282.531892 226.815568 
L 282.12973 225.568865 
L 281.48627 223.960216 
L 280.681946 222.311351 
L 278.751568 219.13427 
L 276.700541 216.359351 
L 274.207135 213.584432 
L 271.472432 211.091027 
L 268.536649 208.798703 
L 261.29773 203.208649 
L 258.603243 200.996757 
L 255.868541 198.905514 
L 252.932757 197.136 
L 250.037189 195.768649 
L 248.790486 195.286054 
L 245.010162 194.16 
L 241.350486 193.395892 
L 237.650595 192.873081 
L 230.733405 192.310054 
L 224.821622 192.149189 
L 224.821622 192.149189 
" style="fill:none;stroke:#0ea4f0;stroke-linecap:square;stroke-width:1.5;"/>
   </g>
   <g id="line2d_81">
    <path clip-path="url(#pf8d82136b2)" d="M 224.821622 136.047568 
L 225.505297 136.047568 
L 227.033514 136.288865 
L 228.320432 136.731243 
L 229.808432 137.495351 
L 231.618162 138.701838 
L 232.824649 139.787676 
L 235.599568 142.763676 
L 239.500541 147.871135 
L 242.597189 152.17427 
L 244.044973 154.30573 
L 244.165622 154.868757 
L 244.004757 155.069838 
L 243.562378 155.230703 
L 242.436324 155.391568 
L 240.867892 155.230703 
L 239.017946 154.667676 
L 235.438703 152.857946 
L 235.478919 152.857946 
L 235.639784 152.777514 
L 235.519135 152.938378 
L 234.996324 154.104649 
L 234.835459 155.954595 
L 234.996324 157.402378 
L 235.35827 159.171892 
L 237.127784 165.043459 
L 237.409297 166.732541 
L 237.48973 168.220541 
L 237.328865 170.110703 
L 236.84627 172.242162 
L 235.921297 175.580108 
L 235.68 177.108324 
L 235.599568 178.918054 
L 235.840865 180.768 
L 236.403892 182.738595 
L 237.007135 184.186378 
L 237.891892 185.835243 
L 239.983135 188.891676 
L 242.556973 191.948108 
L 248.147027 197.739243 
L 253.093622 202.605405 
L 255.747892 204.857514 
L 256.994595 205.661838 
L 257.919568 206.104216 
L 258.924973 206.425946 
L 260.573838 206.627027 
L 262.624865 206.425946 
L 267.732324 205.098811 
L 269.743135 204.978162 
L 271.552865 205.179243 
L 273.161514 205.702054 
L 274.890811 206.546595 
L 276.861405 207.954162 
L 278.268973 209.200865 
L 280.601514 211.774703 
L 285.10573 217.485405 
L 289.730595 223.759135 
L 291.299027 225.971027 
L 294.717405 229.107892 
L 295.883676 230.475243 
L 296.808649 231.882811 
L 297.733622 233.853405 
L 298.336865 235.703351 
L 298.819459 238.196757 
L 298.698811 238.47827 
L 298.537946 238.639135 
L 297.532541 239.242378 
L 295.763027 239.805405 
L 295.964108 239.684757 
L 296.004324 239.564108 
L 296.044541 241.534703 
L 296.728216 243.022703 
L 298.135784 244.752 
L 300.83027 247.647568 
L 301.312865 248.411676 
L 301.996541 250.060541 
L 302.278054 250.824649 
L 302.157405 250.744216 
L 301.875892 250.744216 
L 302.278054 250.462703 
L 302.881297 249.859459 
L 303.042162 249.859459 
L 303.967135 250.422486 
L 304.892108 251.387676 
L 306.018162 253.237622 
L 306.581189 255.007135 
L 306.983351 257.460324 
L 307.586595 261.884108 
L 307.345297 262.085189 
L 306.983351 262.085189 
L 305.817081 261.884108 
L 303.283459 260.878703 
L 301.674811 259.792865 
L 300.347676 258.425514 
L 297.210811 254.484324 
L 297.411892 254.243027 
L 298.095568 253.961514 
L 299.503135 253.760432 
L 300.387892 253.760432 
L 302.841081 254.243027 
L 307.948541 255.972324 
L 308.672432 256.092973 
L 309.878919 256.133189 
L 311.286486 256.012541 
L 313.056 255.731027 
L 317.922162 254.524541 
L 319.369946 254.283243 
L 320.697081 254.202811 
L 322.265514 254.283243 
L 323.874162 254.604973 
L 325.402378 255.047351 
L 326.890378 255.690811 
L 328.297946 256.454919 
L 330.147892 257.661405 
L 331.434811 258.666811 
L 334.008649 261.079784 
L 336.180324 263.452541 
L 338.392216 266.187243 
L 341.730162 270.731676 
L 344.786595 275.477189 
L 348.526703 281.670486 
L 351.221189 286.335568 
L 363.286054 307.529514 
L 367.146811 314.285838 
L 368.956541 317.181405 
L 370.203243 319.031351 
L 370.967351 319.755243 
L 371.369514 319.916108 
L 372.374919 320.197622 
L 373.943351 320.237838 
L 375.954162 319.835676 
L 381.021405 318.106378 
L 381.624649 318.066162 
L 382.308324 318.186811 
L 383.072432 318.468324 
L 383.997405 318.950919 
L 385.203892 319.956324 
L 386.410378 321.323676 
L 387.496216 322.932324 
L 388.300541 324.380108 
L 389.708108 327.919135 
L 390.673297 331.578811 
L 391.437405 335.278703 
L 392.080865 339.260108 
L 392.724324 344.608865 
L 393.72973 358.764973 
L 393.810162 360.655135 
L 393.810162 360.655135 
" style="fill:none;stroke:#2adddd;stroke-linecap:square;stroke-width:1.5;"/>
   </g>
   <g id="line2d_82">
    <path clip-path="url(#pf8d82136b2)" d="M 450.032432 304.955676 
L 449.831351 305.036108 
L 449.670486 305.317622 
L 449.670486 305.237189 
L 449.469405 304.794811 
L 448.986811 304.070919 
L 448.423784 303.427459 
L 446.935784 302.341622 
L 445.568432 301.61773 
L 444.120649 301.014486 
L 440.380541 299.888432 
L 434.629622 298.601514 
L 418.623568 295.223351 
L 409.695568 293.373405 
L 393.689514 289.995243 
L 373.219459 285.692108 
L 324.396973 275.477189 
L 316.635243 273.828324 
L 316.233081 273.184865 
L 316.032 272.259892 
L 316.112432 271.013189 
L 317.600432 266.147027 
L 317.52 265.342703 
L 317.318919 264.819892 
L 316.836324 263.894919 
L 316.072216 262.969946 
L 314.22227 261.44173 
L 311.24627 259.350486 
L 310.964757 258.867892 
L 310.361514 257.219027 
L 310.08 255.570162 
L 310.160432 253.881081 
L 310.441946 252.352865 
L 311.004973 250.704 
L 311.608216 250.462703 
L 312.814703 250.342054 
L 314.302703 250.462703 
L 315.830919 250.704 
L 316.836324 250.261622 
L 317.84173 249.417081 
L 318.243892 248.934486 
L 319.249297 247.164973 
L 319.932973 245.033514 
L 320.17427 243.58573 
L 320.254703 239.96627 
L 320.134054 237.673946 
L 319.691676 236.105514 
L 319.289514 235.220757 
L 318.967784 234.818595 
L 317.560216 234.295784 
L 317.721081 234.295784 
L 317.037405 234.496865 
L 316.715676 234.617514 
L 316.715676 234.617514 
L 315.790703 235.341405 
L 314.021189 236.869622 
L 312.694054 238.035892 
L 312.090811 238.438054 
L 311.165838 238.840216 
L 309.516973 239.242378 
L 307.626811 239.483676 
L 304.128 239.523892 
L 300.347676 239.202162 
L 296.607568 238.8 
L 292.907676 238.598919 
L 288.886054 238.558703 
L 283.255784 238.598919 
L 279.756973 238.438054 
L 277.866811 238.277189 
L 274.368 237.673946 
L 273.081081 237.312 
L 272.115892 236.909838 
L 271.271351 236.427243 
L 270.145297 235.50227 
L 268.858378 233.974054 
L 265.600865 228.303568 
L 264.434595 227.016649 
L 262.906378 225.810162 
L 262.78573 225.568865 
L 262.825946 225.327568 
L 262.906378 225.247135 
L 263.107459 225.247135 
L 266.003027 223.477622 
L 267.129081 222.954811 
L 268.73773 222.512432 
L 270.306162 222.391784 
L 272.799568 222.75373 
L 272.960432 223.035243 
L 272.960432 223.879784 
L 272.719135 224.643892 
L 272.236541 225.649297 
L 271.71373 226.453622 
L 271.07027 227.21773 
L 269.300757 228.786162 
L 267.491027 229.912216 
L 266.043243 230.515459 
L 264.796541 230.877405 
L 263.067243 231.078486 
L 262.303135 231.158919 
L 260.292324 232.284973 
L 259.16627 233.370811 
L 258.361946 233.652324 
L 257.517405 233.732757 
L 256.471784 233.652324 
L 255.184865 233.370811 
L 253.334919 232.767568 
L 251.605622 232.365405 
L 250.801297 232.325189 
L 250.157838 232.445838 
L 249.031784 233.049081 
L 247.986162 233.772973 
L 246.819892 234.818595 
L 245.613405 236.14573 
L 244.125405 237.352216 
L 242.637405 238.116324 
L 241.028757 238.598919 
L 239.339676 238.719568 
L 235.519135 238.47827 
L 233.387676 238.357622 
L 231.53773 238.397838 
L 227.878054 238.8 
L 224.218378 239.564108 
L 219.312 240.891243 
L 210.906811 243.625946 
L 201.817946 246.843243 
L 197.31373 248.532324 
L 197.31373 248.532324 
" style="fill:none;stroke:#63fbc3;stroke-linecap:square;stroke-width:1.5;"/>
   </g>
   <g id="line2d_83">
    <path clip-path="url(#pf8d82136b2)" d="M 140.367568 248.652973 
L 144.912 248.733405 
L 150.502054 249.175784 
L 175.556757 251.950703 
L 183.036973 252.835459 
L 191.844324 253.800649 
L 199.284324 254.685405 
L 239.782054 258.988541 
L 247.825297 259.511351 
L 256.914162 259.873297 
L 268.979027 259.833081 
L 286.312216 259.109189 
L 286.473081 259.31027 
L 286.59373 259.833081 
L 286.633946 260.758054 
L 286.432865 262.326486 
L 285.869838 264.096 
L 284.46227 267.313297 
L 284.220973 267.715459 
L 284.220973 267.554595 
L 284.663351 268.198054 
L 285.186162 268.720865 
L 285.869838 269.163243 
L 287.599135 269.846919 
L 289.368649 270.088216 
L 291.178378 269.967568 
L 297.210811 268.358919 
L 297.773838 268.278486 
L 298.095568 268.519784 
L 299.060757 269.605622 
L 300.991135 272.340324 
L 300.910703 272.300108 
L 301.353081 272.420757 
L 302.519351 272.460973 
L 304.168216 272.340324 
L 305.736649 271.938162 
L 305.736649 271.938162 
L 306.018162 271.656649 
L 306.581189 270.852324 
L 306.983351 270.048 
L 307.707243 267.916541 
L 308.069189 267.635027 
L 309.034378 267.112216 
L 310.522378 266.669838 
L 312.492973 266.508973 
L 314.423351 266.790486 
L 316.152649 267.433946 
L 319.490595 269.002378 
L 321.059027 269.444757 
L 323.110054 269.645838 
L 324.919784 269.484973 
L 326.970811 269.002378 
L 334.451027 266.790486 
L 336.300973 266.508973 
L 338.191135 266.348108 
L 340.121514 266.307892 
L 343.338811 266.468757 
L 348.969081 267.192649 
L 356.368865 268.56 
L 394.855784 277.045622 
L 394.855784 277.045622 
" style="fill:none;stroke:#9cfba4;stroke-linecap:square;stroke-width:1.5;"/>
   </g>
   <g id="line2d_84">
    <path clip-path="url(#pf8d82136b2)" d="M 281.124324 192.35027 
L 281.204757 192.35027 
L 281.848216 192.511135 
L 282.371027 192.752432 
L 282.97427 193.315459 
L 283.577514 194.079568 
L 284.301405 195.406703 
L 284.944865 197.176216 
L 285.387243 199.307676 
L 285.548108 200.916324 
L 285.628541 202.76627 
L 285.668757 204.89773 
L 285.628541 206.546595 
L 285.588324 208.155243 
L 285.507892 209.763892 
L 285.467676 211.613838 
L 285.347027 213.785514 
L 285.306811 215.394162 
L 285.186162 217.525622 
L 285.065514 219.13427 
L 284.985081 220.742919 
L 284.824216 222.874378 
L 284.703568 224.764541 
L 284.542703 226.614486 
L 284.422054 228.504649 
L 284.301405 230.113297 
L 284.140541 232.244757 
L 284.060108 233.853405 
L 283.939459 235.462054 
L 283.859027 237.312 
L 283.738378 239.443459 
L 283.657946 241.615135 
L 283.61773 243.223784 
L 283.577514 244.550919 
L 283.497081 246.963892 
L 283.456865 248.572541 
L 283.376432 250.462703 
L 283.336216 252.071351 
L 283.296 253.921297 
L 283.255784 255.811459 
L 283.175351 257.942919 
L 283.135135 259.551568 
L 283.094919 261.683027 
L 283.014486 263.573189 
L 282.97427 264.900324 
L 282.934054 266.790486 
L 282.893838 268.680649 
L 282.853622 270.530595 
L 282.773189 272.139243 
L 282.732973 274.270703 
L 282.692757 276.160865 
L 282.652541 277.769514 
L 282.572108 279.659676 
L 282.531892 281.509622 
L 282.491676 283.399784 
L 282.451459 285.289946 
L 282.371027 286.898595 
L 282.330811 289.030054 
L 282.290595 290.920216 
L 282.250378 292.528865 
L 282.169946 294.378811 
L 282.12973 296.268973 
L 282.089514 298.159135 
L 282.049297 299.767784 
L 282.049297 301.899243 
L 282.049297 303.749189 
L 282.049297 305.920865 
L 282.049297 307.770811 
L 282.089514 309.942486 
L 282.12973 312.073946 
L 282.169946 314.205405 
L 282.169946 315.814054 
L 282.169946 317.98573 
L 282.089514 320.117189 
L 282.049297 321.725838 
L 281.968865 323.897514 
L 281.848216 326.028973 
L 281.727568 327.637622 
L 281.566703 329.527784 
L 281.405838 331.659243 
L 281.244973 333.267892 
" style="fill:none;stroke:#d4dd80;stroke-linecap:square;stroke-width:1.5;"/>
   </g>
   <g id="line2d_85">
    <path clip-path="url(#pf8d82136b2)" d="M 140.367568 304.955676 
L 144.308757 304.875243 
L 147.767351 304.553514 
L 153.075892 303.789405 
L 158.867027 302.824216 
L 222.006486 291.925622 
L 245.090595 288.507243 
L 253.897946 287.58227 
L 262.705297 286.73773 
L 273.121297 285.732324 
L 280.64173 285.24973 
L 289.730595 284.686703 
L 295.039135 284.163892 
L 302.157405 283.11827 
L 302.438919 283.44 
L 302.921514 284.204108 
L 303.524757 285.651892 
L 304.047568 287.340973 
L 304.047568 287.300757 
L 304.811676 287.58227 
L 305.817081 287.783351 
L 307.868108 287.904 
L 309.436541 287.702919 
L 310.803892 287.300757 
L 312.010378 286.697514 
L 313.257081 285.772541 
L 314.302703 284.686703 
L 315.147243 284.043243 
L 316.554811 283.359568 
L 320.294919 282.394378 
L 321.139459 282.555243 
L 321.260108 282.796541 
L 321.501405 283.560649 
L 321.581838 284.566054 
L 321.219892 286.416 
L 320.455784 288.105081 
L 319.369946 289.432216 
L 318.605838 290.035459 
L 317.721081 290.437622 
L 316.152649 290.759351 
L 314.302703 290.678919 
L 313.337514 290.477838 
L 311.286486 289.753946 
L 309.034378 288.627892 
L 307.908324 287.823568 
L 307.264865 286.979027 
L 306.540973 285.571459 
L 305.977946 283.721514 
L 305.052973 282.434595 
L 304.610595 281.549838 
L 304.329081 280.624865 
L 304.208432 279.659676 
L 304.329081 278.614054 
L 304.610595 277.648865 
L 305.213838 276.563027 
L 305.897514 275.758703 
L 306.943135 275.075027 
L 307.948541 274.672865 
L 309.074595 274.552216 
L 309.074595 274.552216 
" style="fill:none;stroke:#ffa457;stroke-linecap:square;stroke-width:1.5;"/>
   </g>
   <g id="line2d_86">
    <path clip-path="url(#pf8d82136b2)" d="M 393.72973 220.501622 
L 393.971027 220.582054 
L 394.091676 220.823351 
L 394.051459 221.064649 
L 393.689514 221.748324 
L 392.764541 222.793946 
L 391.477622 223.799351 
L 390.070054 224.523243 
L 388.099459 225.327568 
L 384.520216 226.373189 
L 379.855135 227.499243 
L 378.085622 228.142703 
L 377.401946 228.665514 
L 377.120432 229.067676 
L 376.798703 229.791568 
L 376.517189 231.279568 
L 376.597622 233.330595 
L 377.401946 238.116324 
L 377.36173 239.161946 
L 377.200865 239.96627 
L 376.919351 240.649946 
L 376.155243 241.695568 
L 375.350919 242.499892 
L 373.903135 243.465081 
L 372.415135 244.188973 
L 369.318486 245.274811 
L 365.658811 246.199784 
L 362.240432 246.883459 
L 352.186378 248.532324 
L 341.287784 250.060541 
L 303.766054 254.926703 
L 303.444324 254.725622 
L 303.283459 254.363676 
L 303.203027 253.197405 
L 303.80627 251.307243 
L 304.369297 249.216 
L 304.369297 249.256216 
L 303.685622 248.04973 
L 302.921514 247.325838 
L 301.594378 246.481297 
L 300.428108 245.91827 
L 298.417297 245.274811 
L 296.848865 244.953081 
L 295.360865 244.912865 
L 293.752216 245.154162 
L 292.344649 245.717189 
L 290.816432 246.722595 
L 288.282811 248.813838 
L 286.352432 249.980108 
L 284.502486 250.543135 
L 282.813405 250.704 
L 279.073297 250.543135 
L 276.740757 250.462703 
L 276.821189 250.462703 
L 275.856 251.468108 
L 275.896216 251.387676 
L 275.815784 251.950703 
L 275.896216 252.352865 
L 276.378811 253.318054 
L 276.459243 253.478919 
L 276.941838 255.208216 
L 277.102703 256.615784 
L 277.02227 258.425514 
L 276.499459 260.315676 
L 275.453838 262.608 
L 273.603892 265.543784 
L 270.426811 269.565405 
L 267.732324 272.259892 
L 266.284541 273.466378 
L 264.716108 274.552216 
L 263.067243 275.517405 
L 259.648865 277.126054 
L 255.747892 278.332541 
L 252.570811 279.016216 
L 248.830703 279.539027 
L 244.567784 279.900973 
L 235.68 280.061838 
L 212.354595 279.378162 
L 196.268108 278.774919 
L 184.484757 278.372757 
L 175.918703 278.051027 
L 168.438486 277.80973 
L 161.199568 277.528216 
L 150.743351 277.16627 
L 140.809946 276.804324 
L 140.809946 276.804324 
" style="fill:none;stroke:#ff572c;stroke-linecap:square;stroke-width:1.5;"/>
   </g>
   <g id="line2d_87">
    <path clip-path="url(#pf8d82136b2)" d="M 140.367568 136.047568 
L 140.850162 136.047568 
L 142.338162 136.128 
L 143.866378 136.44973 
L 145.354378 136.972541 
L 147.003243 137.776865 
L 148.853189 138.943135 
L 150.140108 139.948541 
L 151.587892 141.155027 
L 152.955243 142.441946 
L 154.523676 143.970162 
L 156.011676 145.498378 
L 157.13773 146.664649 
L 158.424649 148.032 
L 159.510486 149.19827 
L 160.797405 150.565622 
L 161.923459 151.731892 
L 163.009297 152.898162 
L 164.497297 154.466595 
L 165.945081 156.035027 
L 167.071135 157.201297 
L 168.156973 158.367568 
L 169.242811 159.533838 
L 170.368865 160.700108 
L 171.454703 161.866378 
L 172.741622 163.273946 
L 174.189405 164.842378 
L 175.275243 166.008649 
L 176.361081 167.215135 
L 177.446919 168.421622 
L 178.653405 169.869405 
L 179.980541 171.598703 
L 181.026162 173.126919 
L 182.031568 174.775784 
L 182.755459 176.223568 
L 183.519568 177.872432 
L 184.122811 179.360432 
L 184.726054 180.848432 
L 185.40973 182.57773 
L 186.214054 184.266811 
L 187.219459 186.116757 
L 188.38573 187.88627 
L 189.310703 189.173189 
L 190.476973 190.661189 
L 191.683459 192.068757 
L 192.769297 193.235027 
L 194.257297 194.763243 
L 195.584432 196.090378 
L 196.750703 197.176216 
L 198.118054 198.463135 
L 199.284324 199.548973 
L 200.691892 200.795676 
L 202.139676 202.002162 
L 203.386378 202.967351 
L 204.673297 203.932541 
L 206.000432 204.817297 
L 207.367784 205.581405 
L 208.775351 206.345514 
L 210.464432 207.069405 
L 212.153514 207.753081 
L 214.124108 208.517189 
L 215.853405 209.241081 
L 217.542486 210.005189 
L 219.191351 210.930162 
L 220.8 211.975784 
L 222.288 213.142054 
L 223.735784 214.388757 
L 224.902054 215.514811 
L 225.987892 216.681081 
L 227.07373 217.887568 
L 228.320432 219.335351 
L 229.647568 221.024432 
L 230.652973 222.271135 
L 231.779027 223.799351 
L 233.02573 225.528649 
L 233.950703 226.855784 
L 234.996324 228.424216 
L 236.162595 230.274162 
L 237.087568 231.923027 
L 237.972324 233.571892 
L 238.816865 235.260973 
L 239.500541 236.668541 
L 240.385297 238.277189 
L 241.149405 239.684757 
L 242.275459 241.45427 
L 243.401514 242.94227 
L 244.608 244.349838 
L 245.693838 245.475892 
L 246.900324 246.521514 
L 248.348108 247.687784 
L 249.876324 248.693189 
L 251.484973 249.577946 
L 253.415351 250.38227 
" style="fill:none;stroke:#ff0000;stroke-linecap:square;stroke-width:1.5;"/>
   </g>
   <g id="patch_3">
    <path d="M 72 512.64 
L 72 69.12 
" style="fill:none;stroke:#000000;stroke-linecap:square;stroke-linejoin:miter;stroke-width:0.8;"/>
   </g>
   <g id="patch_4">
    <path d="M 518.4 512.64 
L 518.4 69.12 
" style="fill:none;stroke:#000000;stroke-linecap:square;stroke-linejoin:miter;stroke-width:0.8;"/>
   </g>
   <g id="patch_5">
    <path d="M 72 512.64 
L 518.4 512.64 
" style="fill:none;stroke:#000000;stroke-linecap:square;stroke-linejoin:miter;stroke-width:0.8;"/>
   </g>
   <g id="patch_6">
    <path d="M 72 69.12 
L 518.4 69.12 
" style="fill:none;stroke:#000000;stroke-linecap:square;stroke-linejoin:miter;stroke-width:0.8;"/>
   </g>
   <g id="text_13">
    <!-- 1 -->
    <defs>
     <path d="M 14.203125 0 
L 14.203125 5.171875 
L 26.90625 5.171875 
L 26.90625 65.828125 
L 12.203125 56.296875 
L 12.203125 62.703125 
L 29.984375 74.21875 
L 36.71875 74.21875 
L 36.71875 5.171875 
L 49.421875 5.171875 
L 49.421875 0 
z
" id="DejaVuSerif-31"/>
    </defs>
    <g transform="translate(137.186318 389.40973)scale(0.1 -0.1)">
     <use xlink:href="#DejaVuSerif-31"/>
    </g>
   </g>
   <g id="text_14">
    <!-- 1 -->
    <g transform="translate(390.54848 192.35027)scale(0.1 -0.1)">
     <use xlink:href="#DejaVuSerif-31"/>
    </g>
   </g>
   <g id="text_15">
    <!-- 2 -->
    <defs>
     <path d="M 12.796875 55.515625 
L 7.328125 55.515625 
L 7.328125 68.5 
Q 12.546875 71.296875 17.84375 72.75 
Q 23.140625 74.21875 28.21875 74.21875 
Q 39.59375 74.21875 46.1875 68.703125 
Q 52.78125 63.1875 52.78125 53.71875 
Q 52.78125 43.015625 37.84375 28.125 
Q 36.671875 27 36.078125 26.421875 
L 17.671875 8.015625 
L 48.09375 8.015625 
L 48.09375 17 
L 53.8125 17 
L 53.8125 0 
L 6.78125 0 
L 6.78125 5.328125 
L 28.90625 27.390625 
Q 36.234375 34.71875 39.359375 40.84375 
Q 42.484375 46.96875 42.484375 53.71875 
Q 42.484375 61.078125 38.640625 65.234375 
Q 34.8125 69.390625 28.078125 69.390625 
Q 21.09375 69.390625 17.28125 65.921875 
Q 13.484375 62.453125 12.796875 55.515625 
z
" id="DejaVuSerif-32"/>
    </defs>
    <g transform="translate(446.851182 192.35027)scale(0.1 -0.1)">
     <use xlink:href="#DejaVuSerif-32"/>
    </g>
   </g>
   <g id="text_16">
    <!-- 2 -->
    <g transform="translate(221.640372 361.258378)scale(0.1 -0.1)">
     <use xlink:href="#DejaVuSerif-32"/>
    </g>
   </g>
   <g id="text_17">
    <!-- 3 -->
    <defs>
     <path d="M 9.71875 69.828125 
Q 15.4375 71.96875 20.671875 73.09375 
Q 25.921875 74.21875 30.515625 74.21875 
Q 41.21875 74.21875 47.21875 69.59375 
Q 53.21875 64.984375 53.21875 56.78125 
Q 53.21875 50.203125 49.0625 45.78125 
Q 44.921875 41.359375 37.3125 39.796875 
Q 46.296875 38.53125 51.25 33.28125 
Q 56.203125 28.03125 56.203125 19.671875 
Q 56.203125 9.46875 49.34375 4.015625 
Q 42.484375 -1.421875 29.59375 -1.421875 
Q 23.875 -1.421875 18.421875 -0.1875 
Q 12.984375 1.03125 7.625 3.515625 
L 7.625 17.671875 
L 13.09375 17.671875 
Q 13.578125 10.640625 17.828125 7.03125 
Q 22.078125 3.421875 29.78125 3.421875 
Q 37.25 3.421875 41.578125 7.734375 
Q 45.90625 12.0625 45.90625 19.578125 
Q 45.90625 28.171875 41.453125 32.59375 
Q 37.015625 37.015625 28.421875 37.015625 
L 23.78125 37.015625 
L 23.78125 42 
L 26.21875 42 
Q 34.765625 42 39.03125 45.53125 
Q 43.3125 49.078125 43.3125 56.203125 
Q 43.3125 62.59375 39.796875 65.984375 
Q 36.28125 69.390625 29.6875 69.390625 
Q 23.09375 69.390625 19.453125 66.265625 
Q 15.828125 63.140625 15.1875 56.984375 
L 9.71875 56.984375 
z
" id="DejaVuSerif-33"/>
    </defs>
    <g transform="translate(396.17875 440.082162)scale(0.1 -0.1)">
     <use xlink:href="#DejaVuSerif-33"/>
    </g>
   </g>
   <g id="text_18">
    <!-- 3 -->
    <g transform="translate(221.640372 192.35027)scale(0.1 -0.1)">
     <use xlink:href="#DejaVuSerif-33"/>
    </g>
   </g>
   <g id="text_19">
    <!-- 4 -->
    <defs>
     <path d="M 34.90625 24.703125 
L 34.90625 63.484375 
L 10.015625 24.703125 
z
M 56.390625 0 
L 23.1875 0 
L 23.1875 5.171875 
L 34.90625 5.171875 
L 34.90625 19.484375 
L 3.078125 19.484375 
L 3.078125 24.8125 
L 35.015625 74.21875 
L 44.671875 74.21875 
L 44.671875 24.703125 
L 58.59375 24.703125 
L 58.59375 19.484375 
L 44.671875 19.484375 
L 44.671875 5.171875 
L 56.390625 5.171875 
z
" id="DejaVuSerif-34"/>
    </defs>
    <g transform="translate(221.640372 136.047568)scale(0.1 -0.1)">
     <use xlink:href="#DejaVuSerif-34"/>
    </g>
   </g>
   <g id="text_20">
    <!-- 4 -->
    <g transform="translate(390.54848 361.258378)scale(0.1 -0.1)">
     <use xlink:href="#DejaVuSerif-34"/>
    </g>
   </g>
   <g id="text_21">
    <!-- 5 -->
    <defs>
     <path d="M 50.296875 72.90625 
L 50.296875 64.890625 
L 16.890625 64.890625 
L 16.890625 44 
Q 19.4375 45.75 22.828125 46.625 
Q 26.21875 47.515625 30.421875 47.515625 
Q 42.234375 47.515625 49.0625 40.96875 
Q 55.90625 34.421875 55.90625 23.09375 
Q 55.90625 11.53125 49 5.046875 
Q 42.09375 -1.421875 29.59375 -1.421875 
Q 24.5625 -1.421875 19.28125 -0.1875 
Q 14.015625 1.03125 8.5 3.515625 
L 8.5 17.671875 
L 14.015625 17.671875 
Q 14.453125 10.75 18.421875 7.078125 
Q 22.40625 3.421875 29.59375 3.421875 
Q 37.3125 3.421875 41.453125 8.5 
Q 45.609375 13.578125 45.609375 23.09375 
Q 45.609375 32.5625 41.484375 37.609375 
Q 37.359375 42.671875 29.59375 42.671875 
Q 25.203125 42.671875 21.84375 41.109375 
Q 18.5 39.546875 15.921875 36.28125 
L 11.71875 36.28125 
L 11.71875 72.90625 
z
" id="DejaVuSerif-35"/>
    </defs>
    <g transform="translate(446.851182 304.955676)scale(0.1 -0.1)">
     <use xlink:href="#DejaVuSerif-35"/>
    </g>
   </g>
   <g id="text_22">
    <!-- 5 -->
    <g transform="translate(193.48902 248.652973)scale(0.1 -0.1)">
     <use xlink:href="#DejaVuSerif-35"/>
    </g>
   </g>
   <g id="text_23">
    <!-- 6 -->
    <defs>
     <path d="M 32.71875 3.421875 
Q 39.59375 3.421875 43.296875 8.46875 
Q 47.015625 13.53125 47.015625 23 
Q 47.015625 32.46875 43.296875 37.515625 
Q 39.59375 42.578125 32.71875 42.578125 
Q 25.734375 42.578125 22.0625 37.6875 
Q 18.40625 32.8125 18.40625 23.578125 
Q 18.40625 13.875 22.109375 8.640625 
Q 25.828125 3.421875 32.71875 3.421875 
z
M 16.796875 40.140625 
Q 20.125 43.796875 24.3125 45.59375 
Q 28.515625 47.40625 33.796875 47.40625 
Q 44.671875 47.40625 51 40.859375 
Q 57.328125 34.328125 57.328125 23 
Q 57.328125 11.921875 50.515625 5.25 
Q 43.703125 -1.421875 32.328125 -1.421875 
Q 19.96875 -1.421875 13.328125 7.78125 
Q 6.6875 17 6.6875 34.078125 
Q 6.6875 53.21875 14.546875 63.71875 
Q 22.40625 74.21875 36.71875 74.21875 
Q 40.578125 74.21875 44.828125 73.484375 
Q 49.078125 72.75 53.515625 71.296875 
L 53.515625 59.28125 
L 48 59.28125 
Q 47.40625 64.203125 44.234375 66.796875 
Q 41.0625 69.390625 35.6875 69.390625 
Q 26.21875 69.390625 21.578125 62.203125 
Q 16.9375 55.03125 16.796875 40.140625 
z
" id="DejaVuSerif-36"/>
    </defs>
    <g transform="translate(137.186318 248.652973)scale(0.1 -0.1)">
     <use xlink:href="#DejaVuSerif-36"/>
    </g>
   </g>
   <g id="text_24">
    <!-- 6 -->
    <g transform="translate(390.54848 276.804324)scale(0.1 -0.1)">
     <use xlink:href="#DejaVuSerif-36"/>
    </g>
   </g>
   <g id="text_25">
    <!-- 7 -->
    <defs>
     <path d="M 56.390625 67.921875 
L 27.875 0 
L 20.609375 0 
L 47.796875 64.890625 
L 14.109375 64.890625 
L 14.109375 55.90625 
L 8.40625 55.90625 
L 8.40625 72.90625 
L 56.390625 72.90625 
z
" id="DejaVuSerif-37"/>
    </defs>
    <g transform="translate(277.943074 192.35027)scale(0.1 -0.1)">
     <use xlink:href="#DejaVuSerif-37"/>
    </g>
   </g>
   <g id="text_26">
    <!-- 7 -->
    <g transform="translate(277.943074 333.107027)scale(0.1 -0.1)">
     <use xlink:href="#DejaVuSerif-37"/>
    </g>
   </g>
   <g id="text_27">
    <!-- 8 -->
    <defs>
     <path d="M 46.578125 19.921875 
Q 46.578125 27.734375 42.6875 32.046875 
Q 38.8125 36.375 31.78125 36.375 
Q 24.75 36.375 20.875 32.046875 
Q 17 27.734375 17 19.921875 
Q 17 12.0625 20.875 7.734375 
Q 24.75 3.421875 31.78125 3.421875 
Q 38.8125 3.421875 42.6875 7.734375 
Q 46.578125 12.0625 46.578125 19.921875 
z
M 44.578125 55.328125 
Q 44.578125 61.96875 41.203125 65.671875 
Q 37.84375 69.390625 31.78125 69.390625 
Q 25.78125 69.390625 22.390625 65.671875 
Q 19 61.96875 19 55.328125 
Q 19 48.640625 22.390625 44.921875 
Q 25.78125 41.21875 31.78125 41.21875 
Q 37.84375 41.21875 41.203125 44.921875 
Q 44.578125 48.640625 44.578125 55.328125 
z
M 39.3125 38.8125 
Q 47.609375 37.703125 52.25 32.6875 
Q 56.890625 27.6875 56.890625 19.921875 
Q 56.890625 9.671875 50.390625 4.125 
Q 43.890625 -1.421875 31.78125 -1.421875 
Q 19.734375 -1.421875 13.203125 4.125 
Q 6.6875 9.671875 6.6875 19.921875 
Q 6.6875 27.6875 11.328125 32.6875 
Q 15.96875 37.703125 24.3125 38.8125 
Q 16.9375 40.140625 13 44.40625 
Q 9.078125 48.6875 9.078125 55.328125 
Q 9.078125 64.109375 15.125 69.15625 
Q 21.1875 74.21875 31.78125 74.21875 
Q 42.390625 74.21875 48.4375 69.15625 
Q 54.5 64.109375 54.5 55.328125 
Q 54.5 48.6875 50.5625 44.40625 
Q 46.625 40.140625 39.3125 38.8125 
z
" id="DejaVuSerif-38"/>
    </defs>
    <g transform="translate(137.186318 304.955676)scale(0.1 -0.1)">
     <use xlink:href="#DejaVuSerif-38"/>
    </g>
   </g>
   <g id="text_28">
    <!-- 8 -->
    <g transform="translate(306.094426 276.804324)scale(0.1 -0.1)">
     <use xlink:href="#DejaVuSerif-38"/>
    </g>
   </g>
   <g id="text_29">
    <!-- 9 -->
    <defs>
     <path d="M 46.78125 32.671875 
Q 43.5 29 39.25 27.1875 
Q 35.015625 25.390625 29.6875 25.390625 
Q 18.84375 25.390625 12.5625 31.9375 
Q 6.296875 38.484375 6.296875 49.8125 
Q 6.296875 60.890625 13.109375 67.546875 
Q 19.921875 74.21875 31.296875 74.21875 
Q 43.65625 74.21875 50.265625 65.015625 
Q 56.890625 55.8125 56.890625 38.71875 
Q 56.890625 19.578125 49.015625 9.078125 
Q 41.15625 -1.421875 26.90625 -1.421875 
Q 23.046875 -1.421875 18.796875 -0.6875 
Q 14.546875 0.046875 10.109375 1.515625 
L 10.109375 13.625 
L 15.578125 13.625 
Q 16.21875 8.6875 19.390625 6.046875 
Q 22.5625 3.421875 27.875 3.421875 
Q 37.359375 3.421875 41.984375 10.5625 
Q 46.625 17.71875 46.78125 32.671875 
z
M 30.90625 69.390625 
Q 23.96875 69.390625 20.28125 64.328125 
Q 16.609375 59.28125 16.609375 49.8125 
Q 16.609375 40.328125 20.28125 35.25 
Q 23.96875 30.171875 30.90625 30.171875 
Q 37.84375 30.171875 41.53125 35.078125 
Q 45.21875 39.984375 45.21875 49.21875 
Q 45.21875 58.9375 41.5 64.15625 
Q 37.796875 69.390625 30.90625 69.390625 
z
" id="DejaVuSerif-39"/>
    </defs>
    <g transform="translate(390.54848 220.501622)scale(0.1 -0.1)">
     <use xlink:href="#DejaVuSerif-39"/>
    </g>
   </g>
   <g id="text_30">
    <!-- 9 -->
    <g transform="translate(137.186318 276.804324)scale(0.1 -0.1)">
     <use xlink:href="#DejaVuSerif-39"/>
    </g>
   </g>
   <g id="text_31">
    <!-- 10 -->
    <defs>
     <path d="M 31.78125 3.421875 
Q 39.265625 3.421875 42.96875 11.625 
Q 46.6875 19.828125 46.6875 36.375 
Q 46.6875 52.984375 42.96875 61.1875 
Q 39.265625 69.390625 31.78125 69.390625 
Q 24.3125 69.390625 20.59375 61.1875 
Q 16.890625 52.984375 16.890625 36.375 
Q 16.890625 19.828125 20.59375 11.625 
Q 24.3125 3.421875 31.78125 3.421875 
z
M 31.78125 -1.421875 
Q 19.921875 -1.421875 13.25 8.53125 
Q 6.59375 18.5 6.59375 36.375 
Q 6.59375 54.296875 13.25 64.25 
Q 19.921875 74.21875 31.78125 74.21875 
Q 43.703125 74.21875 50.34375 64.25 
Q 56.984375 54.296875 56.984375 36.375 
Q 56.984375 18.5 50.34375 8.53125 
Q 43.703125 -1.421875 31.78125 -1.421875 
z
" id="DejaVuSerif-30"/>
    </defs>
    <g transform="translate(134.005068 136.047568)scale(0.1 -0.1)">
     <use xlink:href="#DejaVuSerif-31"/>
     <use x="63.623047" xlink:href="#DejaVuSerif-30"/>
    </g>
   </g>
   <g id="text_32">
    <!-- 10 -->
    <g transform="translate(246.610473 248.652973)scale(0.1 -0.1)">
     <use xlink:href="#DejaVuSerif-31"/>
     <use x="63.623047" xlink:href="#DejaVuSerif-30"/>
    </g>
   </g>
   <g id="text_33">
    <!-- MRPP -->
    <defs>
     <path d="M 9.8125 72.90625 
L 24.515625 72.90625 
L 43.109375 23.296875 
L 61.8125 72.90625 
L 76.515625 72.90625 
L 76.515625 0 
L 66.890625 0 
L 66.890625 64.015625 
L 48.09375 14.015625 
L 38.1875 14.015625 
L 19.390625 64.015625 
L 19.390625 0 
L 9.8125 0 
z
" id="DejaVuSans-4d"/>
     <path d="M 44.390625 34.1875 
Q 47.5625 33.109375 50.5625 29.59375 
Q 53.5625 26.078125 56.59375 19.921875 
L 66.609375 0 
L 56 0 
L 46.6875 18.703125 
Q 43.0625 26.03125 39.671875 28.421875 
Q 36.28125 30.8125 30.421875 30.8125 
L 19.671875 30.8125 
L 19.671875 0 
L 9.8125 0 
L 9.8125 72.90625 
L 32.078125 72.90625 
Q 44.578125 72.90625 50.734375 67.671875 
Q 56.890625 62.453125 56.890625 51.90625 
Q 56.890625 45.015625 53.6875 40.46875 
Q 50.484375 35.9375 44.390625 34.1875 
z
M 19.671875 64.796875 
L 19.671875 38.921875 
L 32.078125 38.921875 
Q 39.203125 38.921875 42.84375 42.21875 
Q 46.484375 45.515625 46.484375 51.90625 
Q 46.484375 58.296875 42.84375 61.546875 
Q 39.203125 64.796875 32.078125 64.796875 
z
" id="DejaVuSans-52"/>
     <path d="M 19.671875 64.796875 
L 19.671875 37.40625 
L 32.078125 37.40625 
Q 38.96875 37.40625 42.71875 40.96875 
Q 46.484375 44.53125 46.484375 51.125 
Q 46.484375 57.671875 42.71875 61.234375 
Q 38.96875 64.796875 32.078125 64.796875 
z
M 9.8125 72.90625 
L 32.078125 72.90625 
Q 44.34375 72.90625 50.609375 67.359375 
Q 56.890625 61.8125 56.890625 51.125 
Q 56.890625 40.328125 50.609375 34.8125 
Q 44.34375 29.296875 32.078125 29.296875 
L 19.671875 29.296875 
L 19.671875 0 
L 9.8125 0 
z
" id="DejaVuSans-50"/>
    </defs>
    <g transform="translate(278.618437 63.12)scale(0.12 -0.12)">
     <use xlink:href="#DejaVuSans-4d"/>
     <use x="86.279297" xlink:href="#DejaVuSans-52"/>
     <use x="155.761719" xlink:href="#DejaVuSans-50"/>
     <use x="216.064453" xlink:href="#DejaVuSans-50"/>
    </g>
   </g>
  </g>
 </g>
 <defs>
  <clipPath id="pf8d82136b2">
   <rect height="443.52" width="446.4" x="72" y="69.12"/>
  </clipPath>
 </defs>
</svg>
