<?xml version="1.0" encoding="utf-8" standalone="no"?>
<!DOCTYPE svg PUBLIC "-//W3C//DTD SVG 1.1//EN"
  "http://www.w3.org/Graphics/SVG/1.1/DTD/svg11.dtd">
<!-- Created with matplotlib (http://matplotlib.org/) -->
<svg height="576pt" version="1.1" viewBox="0 0 576 576" width="576pt" xmlns="http://www.w3.org/2000/svg" xmlns:xlink="http://www.w3.org/1999/xlink">
 <defs>
  <style type="text/css">
*{stroke-linecap:butt;stroke-linejoin:round;}
  </style>
 </defs>
 <g id="figure_1">
  <g id="patch_1">
   <path d="M 0 576 
L 576 576 
L 576 0 
L 0 0 
z
" style="fill:#ffffff;"/>
  </g>
  <g id="axes_1">
   <g id="patch_2">
    <path d="M 72 512.64 
L 518.4 512.64 
L 518.4 69.12 
L 72 69.12 
z
" style="fill:#ffffff;"/>
   </g>
   <g id="matplotlib.axis_1">
    <g id="xtick_1">
     <g id="line2d_1">
      <defs>
       <path d="M 0 0 
L 0 3.5 
" id="m24a1c68f33" style="stroke:#000000;stroke-width:0.8;"/>
      </defs>
      <g>
       <use style="stroke:#000000;stroke-width:0.8;" x="72" xlink:href="#m24a1c68f33" y="512.64"/>
      </g>
     </g>
     <g id="text_1">
      <!-- −1 -->
      <defs>
       <path d="M 10.59375 35.5 
L 73.1875 35.5 
L 73.1875 27.203125 
L 10.59375 27.203125 
z
" id="DejaVuSans-2212"/>
       <path d="M 12.40625 8.296875 
L 28.515625 8.296875 
L 28.515625 63.921875 
L 10.984375 60.40625 
L 10.984375 69.390625 
L 28.421875 72.90625 
L 38.28125 72.90625 
L 38.28125 8.296875 
L 54.390625 8.296875 
L 54.390625 0 
L 12.40625 0 
z
" id="DejaVuSans-31"/>
      </defs>
      <g transform="translate(64.628906 527.238438)scale(0.1 -0.1)">
       <use xlink:href="#DejaVuSans-2212"/>
       <use x="83.789062" xlink:href="#DejaVuSans-31"/>
      </g>
     </g>
    </g>
    <g id="xtick_2">
     <g id="line2d_2">
      <g>
       <use style="stroke:#000000;stroke-width:0.8;" x="125.783133" xlink:href="#m24a1c68f33" y="512.64"/>
      </g>
     </g>
     <g id="text_2">
      <!-- 0 -->
      <defs>
       <path d="M 31.78125 66.40625 
Q 24.171875 66.40625 20.328125 58.90625 
Q 16.5 51.421875 16.5 36.375 
Q 16.5 21.390625 20.328125 13.890625 
Q 24.171875 6.390625 31.78125 6.390625 
Q 39.453125 6.390625 43.28125 13.890625 
Q 47.125 21.390625 47.125 36.375 
Q 47.125 51.421875 43.28125 58.90625 
Q 39.453125 66.40625 31.78125 66.40625 
z
M 31.78125 74.21875 
Q 44.046875 74.21875 50.515625 64.515625 
Q 56.984375 54.828125 56.984375 36.375 
Q 56.984375 17.96875 50.515625 8.265625 
Q 44.046875 -1.421875 31.78125 -1.421875 
Q 19.53125 -1.421875 13.0625 8.265625 
Q 6.59375 17.96875 6.59375 36.375 
Q 6.59375 54.828125 13.0625 64.515625 
Q 19.53125 74.21875 31.78125 74.21875 
z
" id="DejaVuSans-30"/>
      </defs>
      <g transform="translate(122.601883 527.238438)scale(0.1 -0.1)">
       <use xlink:href="#DejaVuSans-30"/>
      </g>
     </g>
    </g>
    <g id="xtick_3">
     <g id="line2d_3">
      <g>
       <use style="stroke:#000000;stroke-width:0.8;" x="179.566265" xlink:href="#m24a1c68f33" y="512.64"/>
      </g>
     </g>
     <g id="text_3">
      <!-- 1 -->
      <g transform="translate(176.385015 527.238438)scale(0.1 -0.1)">
       <use xlink:href="#DejaVuSans-31"/>
      </g>
     </g>
    </g>
    <g id="xtick_4">
     <g id="line2d_4">
      <g>
       <use style="stroke:#000000;stroke-width:0.8;" x="233.349398" xlink:href="#m24a1c68f33" y="512.64"/>
      </g>
     </g>
     <g id="text_4">
      <!-- 2 -->
      <defs>
       <path d="M 19.1875 8.296875 
L 53.609375 8.296875 
L 53.609375 0 
L 7.328125 0 
L 7.328125 8.296875 
Q 12.9375 14.109375 22.625 23.890625 
Q 32.328125 33.6875 34.8125 36.53125 
Q 39.546875 41.84375 41.421875 45.53125 
Q 43.3125 49.21875 43.3125 52.78125 
Q 43.3125 58.59375 39.234375 62.25 
Q 35.15625 65.921875 28.609375 65.921875 
Q 23.96875 65.921875 18.8125 64.3125 
Q 13.671875 62.703125 7.8125 59.421875 
L 7.8125 69.390625 
Q 13.765625 71.78125 18.9375 73 
Q 24.125 74.21875 28.421875 74.21875 
Q 39.75 74.21875 46.484375 68.546875 
Q 53.21875 62.890625 53.21875 53.421875 
Q 53.21875 48.921875 51.53125 44.890625 
Q 49.859375 40.875 45.40625 35.40625 
Q 44.1875 33.984375 37.640625 27.21875 
Q 31.109375 20.453125 19.1875 8.296875 
z
" id="DejaVuSans-32"/>
      </defs>
      <g transform="translate(230.168148 527.238438)scale(0.1 -0.1)">
       <use xlink:href="#DejaVuSans-32"/>
      </g>
     </g>
    </g>
    <g id="xtick_5">
     <g id="line2d_5">
      <g>
       <use style="stroke:#000000;stroke-width:0.8;" x="287.13253" xlink:href="#m24a1c68f33" y="512.64"/>
      </g>
     </g>
     <g id="text_5">
      <!-- 3 -->
      <defs>
       <path d="M 40.578125 39.3125 
Q 47.65625 37.796875 51.625 33 
Q 55.609375 28.21875 55.609375 21.1875 
Q 55.609375 10.40625 48.1875 4.484375 
Q 40.765625 -1.421875 27.09375 -1.421875 
Q 22.515625 -1.421875 17.65625 -0.515625 
Q 12.796875 0.390625 7.625 2.203125 
L 7.625 11.71875 
Q 11.71875 9.328125 16.59375 8.109375 
Q 21.484375 6.890625 26.8125 6.890625 
Q 36.078125 6.890625 40.9375 10.546875 
Q 45.796875 14.203125 45.796875 21.1875 
Q 45.796875 27.640625 41.28125 31.265625 
Q 36.765625 34.90625 28.71875 34.90625 
L 20.21875 34.90625 
L 20.21875 43.015625 
L 29.109375 43.015625 
Q 36.375 43.015625 40.234375 45.921875 
Q 44.09375 48.828125 44.09375 54.296875 
Q 44.09375 59.90625 40.109375 62.90625 
Q 36.140625 65.921875 28.71875 65.921875 
Q 24.65625 65.921875 20.015625 65.03125 
Q 15.375 64.15625 9.8125 62.3125 
L 9.8125 71.09375 
Q 15.4375 72.65625 20.34375 73.4375 
Q 25.25 74.21875 29.59375 74.21875 
Q 40.828125 74.21875 47.359375 69.109375 
Q 53.90625 64.015625 53.90625 55.328125 
Q 53.90625 49.265625 50.4375 45.09375 
Q 46.96875 40.921875 40.578125 39.3125 
z
" id="DejaVuSans-33"/>
      </defs>
      <g transform="translate(283.95128 527.238438)scale(0.1 -0.1)">
       <use xlink:href="#DejaVuSans-33"/>
      </g>
     </g>
    </g>
    <g id="xtick_6">
     <g id="line2d_6">
      <g>
       <use style="stroke:#000000;stroke-width:0.8;" x="340.915663" xlink:href="#m24a1c68f33" y="512.64"/>
      </g>
     </g>
     <g id="text_6">
      <!-- 4 -->
      <defs>
       <path d="M 37.796875 64.3125 
L 12.890625 25.390625 
L 37.796875 25.390625 
z
M 35.203125 72.90625 
L 47.609375 72.90625 
L 47.609375 25.390625 
L 58.015625 25.390625 
L 58.015625 17.1875 
L 47.609375 17.1875 
L 47.609375 0 
L 37.796875 0 
L 37.796875 17.1875 
L 4.890625 17.1875 
L 4.890625 26.703125 
z
" id="DejaVuSans-34"/>
      </defs>
      <g transform="translate(337.734413 527.238438)scale(0.1 -0.1)">
       <use xlink:href="#DejaVuSans-34"/>
      </g>
     </g>
    </g>
    <g id="xtick_7">
     <g id="line2d_7">
      <g>
       <use style="stroke:#000000;stroke-width:0.8;" x="394.698795" xlink:href="#m24a1c68f33" y="512.64"/>
      </g>
     </g>
     <g id="text_7">
      <!-- 5 -->
      <defs>
       <path d="M 10.796875 72.90625 
L 49.515625 72.90625 
L 49.515625 64.59375 
L 19.828125 64.59375 
L 19.828125 46.734375 
Q 21.96875 47.46875 24.109375 47.828125 
Q 26.265625 48.1875 28.421875 48.1875 
Q 40.625 48.1875 47.75 41.5 
Q 54.890625 34.8125 54.890625 23.390625 
Q 54.890625 11.625 47.5625 5.09375 
Q 40.234375 -1.421875 26.90625 -1.421875 
Q 22.3125 -1.421875 17.546875 -0.640625 
Q 12.796875 0.140625 7.71875 1.703125 
L 7.71875 11.625 
Q 12.109375 9.234375 16.796875 8.0625 
Q 21.484375 6.890625 26.703125 6.890625 
Q 35.15625 6.890625 40.078125 11.328125 
Q 45.015625 15.765625 45.015625 23.390625 
Q 45.015625 31 40.078125 35.4375 
Q 35.15625 39.890625 26.703125 39.890625 
Q 22.75 39.890625 18.8125 39.015625 
Q 14.890625 38.140625 10.796875 36.28125 
z
" id="DejaVuSans-35"/>
      </defs>
      <g transform="translate(391.517545 527.238438)scale(0.1 -0.1)">
       <use xlink:href="#DejaVuSans-35"/>
      </g>
     </g>
    </g>
    <g id="xtick_8">
     <g id="line2d_8">
      <g>
       <use style="stroke:#000000;stroke-width:0.8;" x="448.481928" xlink:href="#m24a1c68f33" y="512.64"/>
      </g>
     </g>
     <g id="text_8">
      <!-- 6 -->
      <defs>
       <path d="M 33.015625 40.375 
Q 26.375 40.375 22.484375 35.828125 
Q 18.609375 31.296875 18.609375 23.390625 
Q 18.609375 15.53125 22.484375 10.953125 
Q 26.375 6.390625 33.015625 6.390625 
Q 39.65625 6.390625 43.53125 10.953125 
Q 47.40625 15.53125 47.40625 23.390625 
Q 47.40625 31.296875 43.53125 35.828125 
Q 39.65625 40.375 33.015625 40.375 
z
M 52.59375 71.296875 
L 52.59375 62.3125 
Q 48.875 64.0625 45.09375 64.984375 
Q 41.3125 65.921875 37.59375 65.921875 
Q 27.828125 65.921875 22.671875 59.328125 
Q 17.53125 52.734375 16.796875 39.40625 
Q 19.671875 43.65625 24.015625 45.921875 
Q 28.375 48.1875 33.59375 48.1875 
Q 44.578125 48.1875 50.953125 41.515625 
Q 57.328125 34.859375 57.328125 23.390625 
Q 57.328125 12.15625 50.6875 5.359375 
Q 44.046875 -1.421875 33.015625 -1.421875 
Q 20.359375 -1.421875 13.671875 8.265625 
Q 6.984375 17.96875 6.984375 36.375 
Q 6.984375 53.65625 15.1875 63.9375 
Q 23.390625 74.21875 37.203125 74.21875 
Q 40.921875 74.21875 44.703125 73.484375 
Q 48.484375 72.75 52.59375 71.296875 
z
" id="DejaVuSans-36"/>
      </defs>
      <g transform="translate(445.300678 527.238438)scale(0.1 -0.1)">
       <use xlink:href="#DejaVuSans-36"/>
      </g>
     </g>
    </g>
    <g id="xtick_9">
     <g id="line2d_9">
      <g>
       <use style="stroke:#000000;stroke-width:0.8;" x="502.26506" xlink:href="#m24a1c68f33" y="512.64"/>
      </g>
     </g>
     <g id="text_9">
      <!-- 7 -->
      <defs>
       <path d="M 8.203125 72.90625 
L 55.078125 72.90625 
L 55.078125 68.703125 
L 28.609375 0 
L 18.3125 0 
L 43.21875 64.59375 
L 8.203125 64.59375 
z
" id="DejaVuSans-37"/>
      </defs>
      <g transform="translate(499.08381 527.238438)scale(0.1 -0.1)">
       <use xlink:href="#DejaVuSans-37"/>
      </g>
     </g>
    </g>
   </g>
   <g id="matplotlib.axis_2">
    <g id="ytick_1">
     <g id="line2d_10">
      <defs>
       <path d="M 0 0 
L -3.5 0 
" id="m8d8805250f" style="stroke:#000000;stroke-width:0.8;"/>
      </defs>
      <g>
       <use style="stroke:#000000;stroke-width:0.8;" x="72" xlink:href="#m8d8805250f" y="460.296867"/>
      </g>
     </g>
     <g id="text_10">
      <!-- 0 -->
      <g transform="translate(58.6375 464.096086)scale(0.1 -0.1)">
       <use xlink:href="#DejaVuSans-30"/>
      </g>
     </g>
    </g>
    <g id="ytick_2">
     <g id="line2d_11">
      <g>
       <use style="stroke:#000000;stroke-width:0.8;" x="72" xlink:href="#m8d8805250f" y="406.513735"/>
      </g>
     </g>
     <g id="text_11">
      <!-- 1 -->
      <g transform="translate(58.6375 410.312954)scale(0.1 -0.1)">
       <use xlink:href="#DejaVuSans-31"/>
      </g>
     </g>
    </g>
    <g id="ytick_3">
     <g id="line2d_12">
      <g>
       <use style="stroke:#000000;stroke-width:0.8;" x="72" xlink:href="#m8d8805250f" y="352.730602"/>
      </g>
     </g>
     <g id="text_12">
      <!-- 2 -->
      <g transform="translate(58.6375 356.529821)scale(0.1 -0.1)">
       <use xlink:href="#DejaVuSans-32"/>
      </g>
     </g>
    </g>
    <g id="ytick_4">
     <g id="line2d_13">
      <g>
       <use style="stroke:#000000;stroke-width:0.8;" x="72" xlink:href="#m8d8805250f" y="298.94747"/>
      </g>
     </g>
     <g id="text_13">
      <!-- 3 -->
      <g transform="translate(58.6375 302.746689)scale(0.1 -0.1)">
       <use xlink:href="#DejaVuSans-33"/>
      </g>
     </g>
    </g>
    <g id="ytick_5">
     <g id="line2d_14">
      <g>
       <use style="stroke:#000000;stroke-width:0.8;" x="72" xlink:href="#m8d8805250f" y="245.164337"/>
      </g>
     </g>
     <g id="text_14">
      <!-- 4 -->
      <g transform="translate(58.6375 248.963556)scale(0.1 -0.1)">
       <use xlink:href="#DejaVuSans-34"/>
      </g>
     </g>
    </g>
    <g id="ytick_6">
     <g id="line2d_15">
      <g>
       <use style="stroke:#000000;stroke-width:0.8;" x="72" xlink:href="#m8d8805250f" y="191.381205"/>
      </g>
     </g>
     <g id="text_15">
      <!-- 5 -->
      <g transform="translate(58.6375 195.180424)scale(0.1 -0.1)">
       <use xlink:href="#DejaVuSans-35"/>
      </g>
     </g>
    </g>
    <g id="ytick_7">
     <g id="line2d_16">
      <g>
       <use style="stroke:#000000;stroke-width:0.8;" x="72" xlink:href="#m8d8805250f" y="137.598072"/>
      </g>
     </g>
     <g id="text_16">
      <!-- 6 -->
      <g transform="translate(58.6375 141.397291)scale(0.1 -0.1)">
       <use xlink:href="#DejaVuSans-36"/>
      </g>
     </g>
    </g>
    <g id="ytick_8">
     <g id="line2d_17">
      <g>
       <use style="stroke:#000000;stroke-width:0.8;" x="72" xlink:href="#m8d8805250f" y="83.81494"/>
      </g>
     </g>
     <g id="text_17">
      <!-- 7 -->
      <g transform="translate(58.6375 87.614159)scale(0.1 -0.1)">
       <use xlink:href="#DejaVuSans-37"/>
      </g>
     </g>
    </g>
   </g>
   <g id="line2d_18">
    <path clip-path="url(#p521bc7028d)" d="M 211.623001 436.493389 
" style="fill:none;stroke:#1f77b4;stroke-linecap:square;stroke-width:1.5;"/>
    <defs>
     <path d="M -5 5 
L 5 5 
L 5 -5 
L -5 -5 
z
" id="ma53f6c8c55" style="stroke:#8000ff;stroke-linejoin:miter;"/>
    </defs>
    <g clip-path="url(#p521bc7028d)">
     <use style="fill:#8000ff;stroke:#8000ff;stroke-linejoin:miter;" x="211.623001" xlink:href="#ma53f6c8c55" y="436.493389"/>
    </g>
   </g>
   <g id="line2d_19">
    <path clip-path="url(#p521bc7028d)" d="M 227.286994 162.086269 
" style="fill:none;stroke:#ff7f0e;stroke-linecap:square;stroke-width:1.5;"/>
    <defs>
     <path d="M 0 -5 
L -4.755283 -1.545085 
L -2.938926 4.045085 
L 2.938926 4.045085 
L 4.755283 -1.545085 
z
" id="m9eef9dc033" style="stroke:#8000ff;stroke-linejoin:miter;"/>
    </defs>
    <g clip-path="url(#p521bc7028d)">
     <use style="fill:#8000ff;stroke:#8000ff;stroke-linejoin:miter;" x="227.286994" xlink:href="#m9eef9dc033" y="162.086269"/>
    </g>
   </g>
   <g id="line2d_20">
    <path clip-path="url(#p521bc7028d)" d="M 214.218976 216.676417 
" style="fill:none;stroke:#2ca02c;stroke-linecap:square;stroke-width:1.5;"/>
    <defs>
     <path d="M -5 5 
L 5 5 
L 5 -5 
L -5 -5 
z
" id="md4820282f3" style="stroke:#376ff9;stroke-linejoin:miter;"/>
    </defs>
    <g clip-path="url(#p521bc7028d)">
     <use style="fill:#376ff9;stroke:#376ff9;stroke-linejoin:miter;" x="214.218976" xlink:href="#md4820282f3" y="216.676417"/>
    </g>
   </g>
   <g id="line2d_21">
    <path clip-path="url(#p521bc7028d)" d="M 137.084754 398.672904 
" style="fill:none;stroke:#d62728;stroke-linecap:square;stroke-width:1.5;"/>
    <defs>
     <path d="M 0 -5 
L -4.755283 -1.545085 
L -2.938926 4.045085 
L 2.938926 4.045085 
L 4.755283 -1.545085 
z
" id="md14373add5" style="stroke:#376ff9;stroke-linejoin:miter;"/>
    </defs>
    <g clip-path="url(#p521bc7028d)">
     <use style="fill:#376ff9;stroke:#376ff9;stroke-linejoin:miter;" x="137.084754" xlink:href="#md14373add5" y="398.672904"/>
    </g>
   </g>
   <g id="line2d_22">
    <path clip-path="url(#p521bc7028d)" d="M 428.061266 147.234419 
" style="fill:none;stroke:#9467bd;stroke-linecap:square;stroke-width:1.5;"/>
    <defs>
     <path d="M -5 5 
L 5 5 
L 5 -5 
L -5 -5 
z
" id="m51d985a77c" style="stroke:#12c7e6;stroke-linejoin:miter;"/>
    </defs>
    <g clip-path="url(#p521bc7028d)">
     <use style="fill:#12c7e6;stroke:#12c7e6;stroke-linejoin:miter;" x="428.061266" xlink:href="#m51d985a77c" y="147.234419"/>
    </g>
   </g>
   <g id="line2d_23">
    <path clip-path="url(#p521bc7028d)" d="M 182.547626 248.422716 
" style="fill:none;stroke:#8c564b;stroke-linecap:square;stroke-width:1.5;"/>
    <defs>
     <path d="M 0 -5 
L -4.755283 -1.545085 
L -2.938926 4.045085 
L 2.938926 4.045085 
L 4.755283 -1.545085 
z
" id="m952895ca91" style="stroke:#12c7e6;stroke-linejoin:miter;"/>
    </defs>
    <g clip-path="url(#p521bc7028d)">
     <use style="fill:#12c7e6;stroke:#12c7e6;stroke-linejoin:miter;" x="182.547626" xlink:href="#m952895ca91" y="248.422716"/>
    </g>
   </g>
   <g id="line2d_24">
    <path clip-path="url(#p521bc7028d)" d="M 404.832416 411.955206 
" style="fill:none;stroke:#e377c2;stroke-linecap:square;stroke-width:1.5;"/>
    <defs>
     <path d="M -5 5 
L 5 5 
L 5 -5 
L -5 -5 
z
" id="mfb249c2f0b" style="stroke:#5bf9c7;stroke-linejoin:miter;"/>
    </defs>
    <g clip-path="url(#p521bc7028d)">
     <use style="fill:#5bf9c7;stroke:#5bf9c7;stroke-linejoin:miter;" x="404.832416" xlink:href="#mfb249c2f0b" y="411.955206"/>
    </g>
   </g>
   <g id="line2d_25">
    <path clip-path="url(#p521bc7028d)" d="M 177.998818 298.722424 
" style="fill:none;stroke:#7f7f7f;stroke-linecap:square;stroke-width:1.5;"/>
    <defs>
     <path d="M 0 -5 
L -4.755283 -1.545085 
L -2.938926 4.045085 
L 2.938926 4.045085 
L 4.755283 -1.545085 
z
" id="m80a2b43917" style="stroke:#5bf9c7;stroke-linejoin:miter;"/>
    </defs>
    <g clip-path="url(#p521bc7028d)">
     <use style="fill:#5bf9c7;stroke:#5bf9c7;stroke-linejoin:miter;" x="177.998818" xlink:href="#m80a2b43917" y="298.722424"/>
    </g>
   </g>
   <g id="line2d_26">
    <path clip-path="url(#p521bc7028d)" d="M 211.838329 358.190836 
" style="fill:none;stroke:#bcbd22;stroke-linecap:square;stroke-width:1.5;"/>
    <defs>
     <path d="M -5 5 
L 5 5 
L 5 -5 
L -5 -5 
z
" id="mcafbfb853a" style="stroke:#a4f99f;stroke-linejoin:miter;"/>
    </defs>
    <g clip-path="url(#p521bc7028d)">
     <use style="fill:#a4f99f;stroke:#a4f99f;stroke-linejoin:miter;" x="211.838329" xlink:href="#mcafbfb853a" y="358.190836"/>
    </g>
   </g>
   <g id="line2d_27">
    <path clip-path="url(#p521bc7028d)" d="M 400.010561 249.159478 
" style="fill:none;stroke:#17becf;stroke-linecap:square;stroke-width:1.5;"/>
    <defs>
     <path d="M 0 -5 
L -4.755283 -1.545085 
L -2.938926 4.045085 
L 2.938926 4.045085 
L 4.755283 -1.545085 
z
" id="m35eacffb71" style="stroke:#a4f99f;stroke-linejoin:miter;"/>
    </defs>
    <g clip-path="url(#p521bc7028d)">
     <use style="fill:#a4f99f;stroke:#a4f99f;stroke-linejoin:miter;" x="400.010561" xlink:href="#m35eacffb71" y="249.159478"/>
    </g>
   </g>
   <g id="line2d_28">
    <path clip-path="url(#p521bc7028d)" d="M 349.327326 409.185988 
" style="fill:none;stroke:#1f77b4;stroke-linecap:square;stroke-width:1.5;"/>
    <defs>
     <path d="M -5 5 
L 5 5 
L 5 -5 
L -5 -5 
z
" id="md6ca910535" style="stroke:#edc76f;stroke-linejoin:miter;"/>
    </defs>
    <g clip-path="url(#p521bc7028d)">
     <use style="fill:#edc76f;stroke:#edc76f;stroke-linejoin:miter;" x="349.327326" xlink:href="#md6ca910535" y="409.185988"/>
    </g>
   </g>
   <g id="line2d_29">
    <path clip-path="url(#p521bc7028d)" d="M 128.58462 221.571198 
" style="fill:none;stroke:#ff7f0e;stroke-linecap:square;stroke-width:1.5;"/>
    <defs>
     <path d="M 0 -5 
L -4.755283 -1.545085 
L -2.938926 4.045085 
L 2.938926 4.045085 
L 4.755283 -1.545085 
z
" id="m4cd058755f" style="stroke:#edc76f;stroke-linejoin:miter;"/>
    </defs>
    <g clip-path="url(#p521bc7028d)">
     <use style="fill:#edc76f;stroke:#edc76f;stroke-linejoin:miter;" x="128.58462" xlink:href="#m4cd058755f" y="221.571198"/>
    </g>
   </g>
   <g id="line2d_30">
    <path clip-path="url(#p521bc7028d)" d="M 446.596168 388.707432 
" style="fill:none;stroke:#2ca02c;stroke-linecap:square;stroke-width:1.5;"/>
    <defs>
     <path d="M -5 5 
L 5 5 
L 5 -5 
L -5 -5 
z
" id="mb2c9daf28c" style="stroke:#ff6f39;stroke-linejoin:miter;"/>
    </defs>
    <g clip-path="url(#p521bc7028d)">
     <use style="fill:#ff6f39;stroke:#ff6f39;stroke-linejoin:miter;" x="446.596168" xlink:href="#mb2c9daf28c" y="388.707432"/>
    </g>
   </g>
   <g id="line2d_31">
    <path clip-path="url(#p521bc7028d)" d="M 279.262608 281.664505 
" style="fill:none;stroke:#d62728;stroke-linecap:square;stroke-width:1.5;"/>
    <defs>
     <path d="M 0 -5 
L -4.755283 -1.545085 
L -2.938926 4.045085 
L 2.938926 4.045085 
L 4.755283 -1.545085 
z
" id="mc90b47025c" style="stroke:#ff6f39;stroke-linejoin:miter;"/>
    </defs>
    <g clip-path="url(#p521bc7028d)">
     <use style="fill:#ff6f39;stroke:#ff6f39;stroke-linejoin:miter;" x="279.262608" xlink:href="#mc90b47025c" y="281.664505"/>
    </g>
   </g>
   <g id="line2d_32">
    <path clip-path="url(#p521bc7028d)" d="M 136.09884 320.674225 
" style="fill:none;stroke:#9467bd;stroke-linecap:square;stroke-width:1.5;"/>
    <defs>
     <path d="M -5 5 
L 5 5 
L 5 -5 
L -5 -5 
z
" id="m0e2d3b56ac" style="stroke:#ff0000;stroke-linejoin:miter;"/>
    </defs>
    <g clip-path="url(#p521bc7028d)">
     <use style="fill:#ff0000;stroke:#ff0000;stroke-linejoin:miter;" x="136.09884" xlink:href="#m0e2d3b56ac" y="320.674225"/>
    </g>
   </g>
   <g id="line2d_33">
    <path clip-path="url(#p521bc7028d)" d="M 327.585767 361.07678 
" style="fill:none;stroke:#8c564b;stroke-linecap:square;stroke-width:1.5;"/>
    <defs>
     <path d="M 0 -5 
L -4.755283 -1.545085 
L -2.938926 4.045085 
L 2.938926 4.045085 
L 4.755283 -1.545085 
z
" id="m36a97b8dc7" style="stroke:#ff0000;stroke-linejoin:miter;"/>
    </defs>
    <g clip-path="url(#p521bc7028d)">
     <use style="fill:#ff0000;stroke:#ff0000;stroke-linejoin:miter;" x="327.585767" xlink:href="#m36a97b8dc7" y="361.07678"/>
    </g>
   </g>
   <g id="line2d_34">
    <defs>
     <path d="M 0 2.5 
C 0.663008 2.5 1.29895 2.236584 1.767767 1.767767 
C 2.236584 1.29895 2.5 0.663008 2.5 0 
C 2.5 -0.663008 2.236584 -1.29895 1.767767 -1.767767 
C 1.29895 -2.236584 0.663008 -2.5 0 -2.5 
C -0.663008 -2.5 -1.29895 -2.236584 -1.767767 -1.767767 
C -2.236584 -1.29895 -2.5 -0.663008 -2.5 0 
C -2.5 0.663008 -2.236584 1.29895 -1.767767 1.767767 
C -1.29895 2.236584 -0.663008 2.5 0 2.5 
z
" id="md92a6ed9a8" style="stroke:#000000;"/>
    </defs>
    <g clip-path="url(#p521bc7028d)">
     <use style="stroke:#000000;" x="311.617449" xlink:href="#md92a6ed9a8" y="155.405897"/>
     <use style="stroke:#000000;" x="201.770172" xlink:href="#md92a6ed9a8" y="126.841063"/>
     <use style="stroke:#000000;" x="379.925748" xlink:href="#md92a6ed9a8" y="157.860258"/>
     <use style="stroke:#000000;" x="169.465671" xlink:href="#md92a6ed9a8" y="201.088913"/>
     <use style="stroke:#000000;" x="444.829448" xlink:href="#md92a6ed9a8" y="245.968857"/>
     <use style="stroke:#000000;" x="424.871228" xlink:href="#md92a6ed9a8" y="352.62616"/>
     <use style="stroke:#000000;" x="238.522978" xlink:href="#md92a6ed9a8" y="404.410384"/>
     <use style="stroke:#000000;" x="362.10493" xlink:href="#md92a6ed9a8" y="213.506817"/>
     <use style="stroke:#000000;" x="327.564298" xlink:href="#md92a6ed9a8" y="277.81307"/>
     <use style="stroke:#000000;" x="176.589189" xlink:href="#md92a6ed9a8" y="456.740555"/>
     <use style="stroke:#000000;" x="130.898852" xlink:href="#md92a6ed9a8" y="165.784041"/>
     <use style="stroke:#000000;" x="394.419847" xlink:href="#md92a6ed9a8" y="202.525769"/>
     <use style="stroke:#000000;" x="306.418793" xlink:href="#md92a6ed9a8" y="312.284442"/>
     <use style="stroke:#000000;" x="266.523544" xlink:href="#md92a6ed9a8" y="339.01403"/>
     <use style="stroke:#000000;" x="372.80393" xlink:href="#md92a6ed9a8" y="134.427889"/>
     <use style="stroke:#000000;" x="376.364839" xlink:href="#md92a6ed9a8" y="146.144074"/>
     <use style="stroke:#000000;" x="378.262388" xlink:href="#md92a6ed9a8" y="208.016293"/>
    </g>
   </g>
   <g id="line2d_35">
    <path clip-path="url(#p521bc7028d)" d="M 333.130702 155.405897 
L 331.965055 148.420555 
L 328.594429 142.192183 
L 323.384083 137.395722 
L 316.898641 134.550944 
L 309.840899 133.966122 
L 302.975674 135.704633 
L 297.046919 139.578082 
L 292.697108 145.16672 
L 290.397609 151.864932 
L 290.397609 158.946862 
L 292.697108 165.645073 
L 297.046919 171.233711 
L 302.975674 175.10716 
L 309.840899 176.845671 
L 316.898641 176.26085 
L 323.384083 173.416071 
L 328.594429 168.61961 
L 331.965055 162.391239 
L 333.130702 155.405897 
" style="fill:none;stroke:#000000;stroke-dasharray:5.55,2.4;stroke-dashoffset:0;stroke-width:1.5;"/>
   </g>
   <g id="line2d_36">
    <path clip-path="url(#p521bc7028d)" d="M 317.533594 155.405897 
L 317.213041 153.484928 
L 316.286119 151.772125 
L 314.853274 150.453099 
L 313.069777 149.670785 
L 311.128898 149.509959 
L 309.240961 149.988049 
L 307.610554 151.053248 
L 306.414355 152.590123 
L 305.781993 154.432131 
L 305.781993 156.379662 
L 306.414355 158.22167 
L 307.610554 159.758546 
L 309.240961 160.823744 
L 311.128898 161.301835 
L 313.069777 161.141009 
L 314.853274 160.358695 
L 316.286119 159.039668 
L 317.213041 157.326866 
L 317.533594 155.405897 
" style="fill:none;stroke:#ff0000;stroke-linecap:square;stroke-width:1.5;"/>
   </g>
   <g id="line2d_37">
    <path clip-path="url(#p521bc7028d)" d="M 223.283425 126.841063 
L 222.117778 119.855722 
L 218.747152 113.62735 
L 213.536806 108.830889 
L 207.051364 105.98611 
L 199.993622 105.401289 
L 193.128397 107.1398 
L 187.199642 111.013249 
L 182.849831 116.601887 
L 180.550332 123.300098 
L 180.550332 130.382028 
L 182.849831 137.08024 
L 187.199642 142.668878 
L 193.128397 146.542327 
L 199.993622 148.280838 
L 207.051364 147.696017 
L 213.536806 144.851238 
L 218.747152 140.054777 
L 222.117778 133.826405 
L 223.283425 126.841063 
" style="fill:none;stroke:#000000;stroke-dasharray:5.55,2.4;stroke-dashoffset:0;stroke-width:1.5;"/>
   </g>
   <g id="line2d_38">
    <path clip-path="url(#p521bc7028d)" d="M 207.686317 126.841063 
L 207.365764 124.920094 
L 206.438842 123.207292 
L 205.005997 121.888265 
L 203.2225 121.105951 
L 201.281621 120.945125 
L 199.393684 121.423216 
L 197.763277 122.488414 
L 196.567078 124.02529 
L 195.934716 125.867298 
L 195.934716 127.814829 
L 196.567078 129.656837 
L 197.763277 131.193712 
L 199.393684 132.258911 
L 201.281621 132.737001 
L 203.2225 132.576176 
L 205.005997 131.793861 
L 206.438842 130.474835 
L 207.365764 128.762032 
L 207.686317 126.841063 
" style="fill:none;stroke:#ff0000;stroke-linecap:square;stroke-width:1.5;"/>
   </g>
   <g id="line2d_39">
    <path clip-path="url(#p521bc7028d)" d="M 401.439001 157.860258 
L 400.273354 150.874916 
L 396.902728 144.646545 
L 391.692383 139.850084 
L 385.20694 137.005305 
L 378.149198 136.420484 
L 371.283973 138.158995 
L 365.355219 142.032443 
L 361.005407 147.621081 
L 358.705908 154.319293 
L 358.705908 161.401223 
L 361.005407 168.099435 
L 365.355219 173.688073 
L 371.283973 177.561521 
L 378.149198 179.300032 
L 385.20694 178.715211 
L 391.692383 175.870432 
L 396.902728 171.073972 
L 400.273354 164.8456 
L 401.439001 157.860258 
" style="fill:none;stroke:#000000;stroke-dasharray:5.55,2.4;stroke-dashoffset:0;stroke-width:1.5;"/>
   </g>
   <g id="line2d_40">
    <path clip-path="url(#p521bc7028d)" d="M 385.841893 157.860258 
L 385.52134 155.939289 
L 384.594418 154.226487 
L 383.161573 152.90746 
L 381.378076 152.125146 
L 379.437197 151.96432 
L 377.54926 152.442411 
L 375.918853 153.507609 
L 374.722655 155.044485 
L 374.090292 156.886493 
L 374.090292 158.834023 
L 374.722655 160.676032 
L 375.918853 162.212907 
L 377.54926 163.278105 
L 379.437197 163.756196 
L 381.378076 163.59537 
L 383.161573 162.813056 
L 384.594418 161.494029 
L 385.52134 159.781227 
L 385.841893 157.860258 
" style="fill:none;stroke:#ff0000;stroke-linecap:square;stroke-width:1.5;"/>
   </g>
   <g id="line2d_41">
    <path clip-path="url(#p521bc7028d)" d="M 190.978924 201.088913 
L 189.813276 194.103571 
L 186.44265 187.875199 
L 181.232305 183.078738 
L 174.746862 180.233959 
L 167.68912 179.649138 
L 160.823895 181.387649 
L 154.895141 185.261098 
L 150.545329 190.849736 
L 148.24583 197.547948 
L 148.24583 204.629878 
L 150.545329 211.328089 
L 154.895141 216.916727 
L 160.823895 220.790176 
L 167.68912 222.528687 
L 174.746862 221.943866 
L 181.232305 219.099087 
L 186.44265 214.302626 
L 189.813276 208.074255 
L 190.978924 201.088913 
" style="fill:none;stroke:#000000;stroke-dasharray:5.55,2.4;stroke-dashoffset:0;stroke-width:1.5;"/>
   </g>
   <g id="line2d_42">
    <path clip-path="url(#p521bc7028d)" d="M 175.381815 201.088913 
L 175.061262 199.167944 
L 174.13434 197.455141 
L 172.701495 196.136115 
L 170.917998 195.353801 
L 168.977119 195.192975 
L 167.089182 195.671065 
L 165.458775 196.736264 
L 164.262577 198.273139 
L 163.630215 200.115147 
L 163.630215 202.062678 
L 164.262577 203.904686 
L 165.458775 205.441562 
L 167.089182 206.50676 
L 168.977119 206.984851 
L 170.917998 206.824025 
L 172.701495 206.041711 
L 174.13434 204.722684 
L 175.061262 203.009882 
L 175.381815 201.088913 
" style="fill:none;stroke:#ff0000;stroke-linecap:square;stroke-width:1.5;"/>
   </g>
   <g id="line2d_43">
    <path clip-path="url(#p521bc7028d)" d="M 466.342701 245.968857 
L 465.177054 238.983515 
L 461.806428 232.755143 
L 456.596082 227.958682 
L 450.11064 225.113903 
L 443.052898 224.529082 
L 436.187673 226.267593 
L 430.258919 230.141042 
L 425.909107 235.72968 
L 423.609608 242.427892 
L 423.609608 249.509822 
L 425.909107 256.208033 
L 430.258919 261.796671 
L 436.187673 265.67012 
L 443.052898 267.408631 
L 450.11064 266.82381 
L 456.596082 263.979031 
L 461.806428 259.18257 
L 465.177054 252.954199 
L 466.342701 245.968857 
" style="fill:none;stroke:#000000;stroke-dasharray:5.55,2.4;stroke-dashoffset:0;stroke-width:1.5;"/>
   </g>
   <g id="line2d_44">
    <path clip-path="url(#p521bc7028d)" d="M 450.745593 245.968857 
L 450.42504 244.047888 
L 449.498118 242.335085 
L 448.065273 241.016059 
L 446.281776 240.233745 
L 444.340897 240.072919 
L 442.45296 240.551009 
L 440.822553 241.616208 
L 439.626354 243.153083 
L 438.993992 244.995091 
L 438.993992 246.942622 
L 439.626354 248.78463 
L 440.822553 250.321506 
L 442.45296 251.386704 
L 444.340897 251.864795 
L 446.281776 251.703969 
L 448.065273 250.921655 
L 449.498118 249.602628 
L 450.42504 247.889826 
L 450.745593 245.968857 
" style="fill:none;stroke:#ff0000;stroke-linecap:square;stroke-width:1.5;"/>
   </g>
   <g id="line2d_45">
    <path clip-path="url(#p521bc7028d)" d="M 446.384481 352.62616 
L 445.218834 345.640818 
L 441.848208 339.412447 
L 436.637862 334.615986 
L 430.15242 331.771207 
L 423.094678 331.186386 
L 416.229453 332.924897 
L 410.300698 336.798345 
L 405.950887 342.386983 
L 403.651388 349.085195 
L 403.651388 356.167125 
L 405.950887 362.865337 
L 410.300698 368.453975 
L 416.229453 372.327423 
L 423.094678 374.065934 
L 430.15242 373.481113 
L 436.637862 370.636334 
L 441.848208 365.839873 
L 445.218834 359.611502 
L 446.384481 352.62616 
" style="fill:none;stroke:#000000;stroke-dasharray:5.55,2.4;stroke-dashoffset:0;stroke-width:1.5;"/>
   </g>
   <g id="line2d_46">
    <path clip-path="url(#p521bc7028d)" d="M 430.787373 352.62616 
L 430.46682 350.705191 
L 429.539897 348.992389 
L 428.107053 347.673362 
L 426.323556 346.891048 
L 424.382677 346.730222 
L 422.49474 347.208313 
L 420.864332 348.273511 
L 419.668134 349.810386 
L 419.035772 351.652395 
L 419.035772 353.599925 
L 419.668134 355.441934 
L 420.864332 356.978809 
L 422.49474 358.044007 
L 424.382677 358.522098 
L 426.323556 358.361272 
L 428.107053 357.578958 
L 429.539897 356.259931 
L 430.46682 354.547129 
L 430.787373 352.62616 
" style="fill:none;stroke:#ff0000;stroke-linecap:square;stroke-width:1.5;"/>
   </g>
   <g id="line2d_47">
    <path clip-path="url(#p521bc7028d)" d="M 260.036231 404.410384 
L 258.870584 397.425042 
L 255.499958 391.19667 
L 250.289612 386.400209 
L 243.80417 383.55543 
L 236.746428 382.970609 
L 229.881203 384.70912 
L 223.952448 388.582569 
L 219.602637 394.171207 
L 217.303138 400.869419 
L 217.303138 407.951349 
L 219.602637 414.64956 
L 223.952448 420.238198 
L 229.881203 424.111647 
L 236.746428 425.850158 
L 243.80417 425.265337 
L 250.289612 422.420558 
L 255.499958 417.624097 
L 258.870584 411.395725 
L 260.036231 404.410384 
" style="fill:none;stroke:#000000;stroke-dasharray:5.55,2.4;stroke-dashoffset:0;stroke-width:1.5;"/>
   </g>
   <g id="line2d_48">
    <path clip-path="url(#p521bc7028d)" d="M 244.439123 404.410384 
L 244.11857 402.489415 
L 243.191647 400.776612 
L 241.758802 399.457586 
L 239.975306 398.675271 
L 238.034427 398.514446 
L 236.14649 398.992536 
L 234.516082 400.057735 
L 233.319884 401.59461 
L 232.687522 403.436618 
L 232.687522 405.384149 
L 233.319884 407.226157 
L 234.516082 408.763033 
L 236.14649 409.828231 
L 238.034427 410.306322 
L 239.975306 410.145496 
L 241.758802 409.363182 
L 243.191647 408.044155 
L 244.11857 406.331353 
L 244.439123 404.410384 
" style="fill:none;stroke:#ff0000;stroke-linecap:square;stroke-width:1.5;"/>
   </g>
   <g id="line2d_49">
    <path clip-path="url(#p521bc7028d)" d="M 383.618183 213.506817 
L 382.452536 206.521475 
L 379.081909 200.293103 
L 373.871564 195.496642 
L 367.386121 192.651864 
L 360.32838 192.067042 
L 353.463155 193.805553 
L 347.5344 197.679002 
L 343.184589 203.26764 
L 340.88509 209.965852 
L 340.88509 217.047782 
L 343.184589 223.745993 
L 347.5344 229.334631 
L 353.463155 233.20808 
L 360.32838 234.946591 
L 367.386121 234.36177 
L 373.871564 231.516991 
L 379.081909 226.72053 
L 382.452536 220.492159 
L 383.618183 213.506817 
" style="fill:none;stroke:#000000;stroke-dasharray:5.55,2.4;stroke-dashoffset:0;stroke-width:1.5;"/>
   </g>
   <g id="line2d_50">
    <path clip-path="url(#p521bc7028d)" d="M 368.021074 213.506817 
L 367.700521 211.585848 
L 366.773599 209.873046 
L 365.340754 208.554019 
L 363.557258 207.771705 
L 361.616379 207.610879 
L 359.728442 208.088969 
L 358.098034 209.154168 
L 356.901836 210.691043 
L 356.269474 212.533051 
L 356.269474 214.480582 
L 356.901836 216.32259 
L 358.098034 217.859466 
L 359.728442 218.924664 
L 361.616379 219.402755 
L 363.557258 219.241929 
L 365.340754 218.459615 
L 366.773599 217.140588 
L 367.700521 215.427786 
L 368.021074 213.506817 
" style="fill:none;stroke:#ff0000;stroke-linecap:square;stroke-width:1.5;"/>
   </g>
   <g id="line2d_51">
    <path clip-path="url(#p521bc7028d)" d="M 349.077551 277.81307 
L 347.911903 270.827728 
L 344.541277 264.599357 
L 339.330932 259.802896 
L 332.845489 256.958117 
L 325.787747 256.373296 
L 318.922523 258.111807 
L 312.993768 261.985255 
L 308.643956 267.573893 
L 306.344458 274.272105 
L 306.344458 281.354035 
L 308.643956 288.052247 
L 312.993768 293.640885 
L 318.922523 297.514333 
L 325.787747 299.252844 
L 332.845489 298.668023 
L 339.330932 295.823244 
L 344.541277 291.026783 
L 347.911903 284.798412 
L 349.077551 277.81307 
" style="fill:none;stroke:#000000;stroke-dasharray:5.55,2.4;stroke-dashoffset:0;stroke-width:1.5;"/>
   </g>
   <g id="line2d_52">
    <path clip-path="url(#p521bc7028d)" d="M 333.480442 277.81307 
L 333.159889 275.892101 
L 332.232967 274.179299 
L 330.800122 272.860272 
L 329.016625 272.077958 
L 327.075746 271.917132 
L 325.18781 272.395223 
L 323.557402 273.460421 
L 322.361204 274.997296 
L 321.728842 276.839305 
L 321.728842 278.786835 
L 322.361204 280.628844 
L 323.557402 282.165719 
L 325.18781 283.230917 
L 327.075746 283.709008 
L 329.016625 283.548182 
L 330.800122 282.765868 
L 332.232967 281.446841 
L 333.159889 279.734039 
L 333.480442 277.81307 
" style="fill:none;stroke:#ff0000;stroke-linecap:square;stroke-width:1.5;"/>
   </g>
   <g id="line2d_53">
    <path clip-path="url(#p521bc7028d)" d="M 198.102442 456.740555 
L 196.936795 449.755213 
L 193.566169 443.526841 
L 188.355824 438.73038 
L 181.870381 435.885602 
L 174.812639 435.30078 
L 167.947414 437.039291 
L 162.01866 440.91274 
L 157.668848 446.501378 
L 155.369349 453.19959 
L 155.369349 460.28152 
L 157.668848 466.979731 
L 162.01866 472.568369 
L 167.947414 476.441818 
L 174.812639 478.180329 
L 181.870381 477.595508 
L 188.355824 474.750729 
L 193.566169 469.954268 
L 196.936795 463.725897 
L 198.102442 456.740555 
" style="fill:none;stroke:#000000;stroke-dasharray:5.55,2.4;stroke-dashoffset:0;stroke-width:1.5;"/>
   </g>
   <g id="line2d_54">
    <path clip-path="url(#p521bc7028d)" d="M 182.505334 456.740555 
L 182.184781 454.819586 
L 181.257859 453.106783 
L 179.825014 451.787757 
L 178.041517 451.005443 
L 176.100638 450.844617 
L 174.212701 451.322707 
L 172.582294 452.387906 
L 171.386096 453.924781 
L 170.753733 455.766789 
L 170.753733 457.71432 
L 171.386096 459.556328 
L 172.582294 461.093204 
L 174.212701 462.158402 
L 176.100638 462.636493 
L 178.041517 462.475667 
L 179.825014 461.693353 
L 181.257859 460.374326 
L 182.184781 458.661524 
L 182.505334 456.740555 
" style="fill:none;stroke:#ff0000;stroke-linecap:square;stroke-width:1.5;"/>
   </g>
   <g id="line2d_55">
    <path clip-path="url(#p521bc7028d)" d="M 152.412105 165.784041 
L 151.246458 158.7987 
L 147.875831 152.570328 
L 142.665486 147.773867 
L 136.180043 144.929088 
L 129.122302 144.344267 
L 122.257077 146.082778 
L 116.328322 149.956227 
L 111.978511 155.544865 
L 109.679012 162.243076 
L 109.679012 169.325006 
L 111.978511 176.023218 
L 116.328322 181.611856 
L 122.257077 185.485305 
L 129.122302 187.223816 
L 136.180043 186.638995 
L 142.665486 183.794216 
L 147.875831 178.997755 
L 151.246458 172.769383 
L 152.412105 165.784041 
" style="fill:none;stroke:#000000;stroke-dasharray:5.55,2.4;stroke-dashoffset:0;stroke-width:1.5;"/>
   </g>
   <g id="line2d_56">
    <path clip-path="url(#p521bc7028d)" d="M 136.814997 165.784041 
L 136.494444 163.863072 
L 135.567521 162.15027 
L 134.134676 160.831244 
L 132.35118 160.048929 
L 130.410301 159.888103 
L 128.522364 160.366194 
L 126.891956 161.431392 
L 125.695758 162.968268 
L 125.063396 164.810276 
L 125.063396 166.757807 
L 125.695758 168.599815 
L 126.891956 170.13669 
L 128.522364 171.201889 
L 130.410301 171.679979 
L 132.35118 171.519154 
L 134.134676 170.736839 
L 135.567521 169.417813 
L 136.494444 167.70501 
L 136.814997 165.784041 
" style="fill:none;stroke:#ff0000;stroke-linecap:square;stroke-width:1.5;"/>
   </g>
   <g id="line2d_57">
    <path clip-path="url(#p521bc7028d)" d="M 415.9331 202.525769 
L 414.767452 195.540427 
L 411.396826 189.312056 
L 406.186481 184.515595 
L 399.701038 181.670816 
L 392.643296 181.085995 
L 385.778071 182.824506 
L 379.849317 186.697955 
L 375.499505 192.286592 
L 373.200006 198.984804 
L 373.200006 206.066734 
L 375.499505 212.764946 
L 379.849317 218.353584 
L 385.778071 222.227032 
L 392.643296 223.965544 
L 399.701038 223.380722 
L 406.186481 220.535943 
L 411.396826 215.739483 
L 414.767452 209.511111 
L 415.9331 202.525769 
" style="fill:none;stroke:#000000;stroke-dasharray:5.55,2.4;stroke-dashoffset:0;stroke-width:1.5;"/>
   </g>
   <g id="line2d_58">
    <path clip-path="url(#p521bc7028d)" d="M 400.335991 202.525769 
L 400.015438 200.6048 
L 399.088516 198.891998 
L 397.655671 197.572971 
L 395.872174 196.790657 
L 393.931295 196.629831 
L 392.043358 197.107922 
L 390.412951 198.17312 
L 389.216753 199.709996 
L 388.584391 201.552004 
L 388.584391 203.499535 
L 389.216753 205.341543 
L 390.412951 206.878418 
L 392.043358 207.943617 
L 393.931295 208.421707 
L 395.872174 208.260881 
L 397.655671 207.478567 
L 399.088516 206.15954 
L 400.015438 204.446738 
L 400.335991 202.525769 
" style="fill:none;stroke:#ff0000;stroke-linecap:square;stroke-width:1.5;"/>
   </g>
   <g id="line2d_59">
    <path clip-path="url(#p521bc7028d)" d="M 327.932046 312.284442 
L 326.766398 305.2991 
L 323.395772 299.070728 
L 318.185427 294.274268 
L 311.699984 291.429489 
L 304.642242 290.844668 
L 297.777017 292.583179 
L 291.848263 296.456627 
L 287.498451 302.045265 
L 285.198952 308.743477 
L 285.198952 315.825407 
L 287.498451 322.523619 
L 291.848263 328.112257 
L 297.777017 331.985705 
L 304.642242 333.724216 
L 311.699984 333.139395 
L 318.185427 330.294616 
L 323.395772 325.498155 
L 326.766398 319.269784 
L 327.932046 312.284442 
" style="fill:none;stroke:#000000;stroke-dasharray:5.55,2.4;stroke-dashoffset:0;stroke-width:1.5;"/>
   </g>
   <g id="line2d_60">
    <path clip-path="url(#p521bc7028d)" d="M 312.334937 312.284442 
L 312.014384 310.363473 
L 311.087462 308.650671 
L 309.654617 307.331644 
L 307.87112 306.54933 
L 305.930241 306.388504 
L 304.042304 306.866595 
L 302.411897 307.931793 
L 301.215699 309.468668 
L 300.583337 311.310677 
L 300.583337 313.258207 
L 301.215699 315.100216 
L 302.411897 316.637091 
L 304.042304 317.702289 
L 305.930241 318.18038 
L 307.87112 318.019554 
L 309.654617 317.23724 
L 311.087462 315.918213 
L 312.014384 314.205411 
L 312.334937 312.284442 
" style="fill:none;stroke:#ff0000;stroke-linecap:square;stroke-width:1.5;"/>
   </g>
   <g id="line2d_61">
    <path clip-path="url(#p521bc7028d)" d="M 288.036797 339.01403 
L 286.87115 332.028688 
L 283.500523 325.800317 
L 278.290178 321.003856 
L 271.804735 318.159077 
L 264.746994 317.574256 
L 257.881769 319.312767 
L 251.953014 323.186215 
L 247.603203 328.774853 
L 245.303704 335.473065 
L 245.303704 342.554995 
L 247.603203 349.253207 
L 251.953014 354.841845 
L 257.881769 358.715293 
L 264.746994 360.453804 
L 271.804735 359.868983 
L 278.290178 357.024204 
L 283.500523 352.227744 
L 286.87115 345.999372 
L 288.036797 339.01403 
" style="fill:none;stroke:#000000;stroke-dasharray:5.55,2.4;stroke-dashoffset:0;stroke-width:1.5;"/>
   </g>
   <g id="line2d_62">
    <path clip-path="url(#p521bc7028d)" d="M 272.439689 339.01403 
L 272.119136 337.093061 
L 271.192213 335.380259 
L 269.759368 334.061232 
L 267.975872 333.278918 
L 266.034993 333.118092 
L 264.147056 333.596183 
L 262.516648 334.661381 
L 261.32045 336.198257 
L 260.688088 338.040265 
L 260.688088 339.987796 
L 261.32045 341.829804 
L 262.516648 343.366679 
L 264.147056 344.431878 
L 266.034993 344.909968 
L 267.975872 344.749142 
L 269.759368 343.966828 
L 271.192213 342.647801 
L 272.119136 340.934999 
L 272.439689 339.01403 
" style="fill:none;stroke:#ff0000;stroke-linecap:square;stroke-width:1.5;"/>
   </g>
   <g id="line2d_63">
    <path clip-path="url(#p521bc7028d)" d="M 394.317184 134.427889 
L 393.151536 127.442548 
L 389.78091 121.214176 
L 384.570565 116.417715 
L 378.085122 113.572936 
L 371.02738 112.988115 
L 364.162155 114.726626 
L 358.233401 118.600075 
L 353.883589 124.188713 
L 351.58409 130.886924 
L 351.58409 137.968855 
L 353.883589 144.667066 
L 358.233401 150.255704 
L 364.162155 154.129153 
L 371.02738 155.867664 
L 378.085122 155.282843 
L 384.570565 152.438064 
L 389.78091 147.641603 
L 393.151536 141.413231 
L 394.317184 134.427889 
" style="fill:none;stroke:#000000;stroke-dasharray:5.55,2.4;stroke-dashoffset:0;stroke-width:1.5;"/>
   </g>
   <g id="line2d_64">
    <path clip-path="url(#p521bc7028d)" d="M 378.720075 134.427889 
L 378.399522 132.50692 
L 377.4726 130.794118 
L 376.039755 129.475092 
L 374.256258 128.692777 
L 372.315379 128.531952 
L 370.427442 129.010042 
L 368.797035 130.07524 
L 367.600837 131.612116 
L 366.968474 133.454124 
L 366.968474 135.401655 
L 367.600837 137.243663 
L 368.797035 138.780539 
L 370.427442 139.845737 
L 372.315379 140.323827 
L 374.256258 140.163002 
L 376.039755 139.380687 
L 377.4726 138.061661 
L 378.399522 136.348858 
L 378.720075 134.427889 
" style="fill:none;stroke:#ff0000;stroke-linecap:square;stroke-width:1.5;"/>
   </g>
   <g id="line2d_65">
    <path clip-path="url(#p521bc7028d)" d="M 397.878092 146.144074 
L 396.712445 139.158732 
L 393.341819 132.93036 
L 388.131474 128.1339 
L 381.646031 125.289121 
L 374.588289 124.704299 
L 367.723064 126.442811 
L 361.79431 130.316259 
L 357.444498 135.904897 
L 355.144999 142.603109 
L 355.144999 149.685039 
L 357.444498 156.38325 
L 361.79431 161.971888 
L 367.723064 165.845337 
L 374.588289 167.583848 
L 381.646031 166.999027 
L 388.131474 164.154248 
L 393.341819 159.357787 
L 396.712445 153.129416 
L 397.878092 146.144074 
" style="fill:none;stroke:#000000;stroke-dasharray:5.55,2.4;stroke-dashoffset:0;stroke-width:1.5;"/>
   </g>
   <g id="line2d_66">
    <path clip-path="url(#p521bc7028d)" d="M 382.280984 146.144074 
L 381.960431 144.223105 
L 381.033509 142.510303 
L 379.600664 141.191276 
L 377.817167 140.408962 
L 375.876288 140.248136 
L 373.988351 140.726226 
L 372.357944 141.791425 
L 371.161746 143.3283 
L 370.529383 145.170308 
L 370.529383 147.117839 
L 371.161746 148.959847 
L 372.357944 150.496723 
L 373.988351 151.561921 
L 375.876288 152.040012 
L 377.817167 151.879186 
L 379.600664 151.096872 
L 381.033509 149.777845 
L 381.960431 148.065043 
L 382.280984 146.144074 
" style="fill:none;stroke:#ff0000;stroke-linecap:square;stroke-width:1.5;"/>
   </g>
   <g id="line2d_67">
    <path clip-path="url(#p521bc7028d)" d="M 399.775641 208.016293 
L 398.609994 201.030951 
L 395.239368 194.802579 
L 390.029022 190.006119 
L 383.54358 187.16134 
L 376.485838 186.576519 
L 369.620613 188.31503 
L 363.691858 192.188478 
L 359.342047 197.777116 
L 357.042548 204.475328 
L 357.042548 211.557258 
L 359.342047 218.25547 
L 363.691858 223.844108 
L 369.620613 227.717556 
L 376.485838 229.456067 
L 383.54358 228.871246 
L 390.029022 226.026467 
L 395.239368 221.230006 
L 398.609994 215.001635 
L 399.775641 208.016293 
" style="fill:none;stroke:#000000;stroke-dasharray:5.55,2.4;stroke-dashoffset:0;stroke-width:1.5;"/>
   </g>
   <g id="line2d_68">
    <path clip-path="url(#p521bc7028d)" d="M 384.178533 208.016293 
L 383.85798 206.095324 
L 382.931058 204.382522 
L 381.498213 203.063495 
L 379.714716 202.281181 
L 377.773837 202.120355 
L 375.8859 202.598446 
L 374.255493 203.663644 
L 373.059294 205.200519 
L 372.426932 207.042528 
L 372.426932 208.990058 
L 373.059294 210.832067 
L 374.255493 212.368942 
L 375.8859 213.43414 
L 377.773837 213.912231 
L 379.714716 213.751405 
L 381.498213 212.969091 
L 382.931058 211.650064 
L 383.85798 209.937262 
L 384.178533 208.016293 
" style="fill:none;stroke:#ff0000;stroke-linecap:square;stroke-width:1.5;"/>
   </g>
   <g id="line2d_69">
    <path clip-path="url(#p521bc7028d)" d="M 98.891566 487.188434 
L 98.891566 94.571566 
" style="fill:none;stroke:#000000;stroke-linecap:square;stroke-width:4;"/>
   </g>
   <g id="line2d_70">
    <path clip-path="url(#p521bc7028d)" d="M 98.891566 94.571566 
L 491.508434 94.571566 
" style="fill:none;stroke:#000000;stroke-linecap:square;stroke-width:4;"/>
   </g>
   <g id="line2d_71">
    <path clip-path="url(#p521bc7028d)" d="M 491.508434 94.571566 
L 491.508434 487.188434 
" style="fill:none;stroke:#000000;stroke-linecap:square;stroke-width:4;"/>
   </g>
   <g id="line2d_72">
    <path clip-path="url(#p521bc7028d)" d="M 491.508434 487.188434 
L 98.891566 487.188434 
" style="fill:none;stroke:#000000;stroke-linecap:square;stroke-width:4;"/>
   </g>
   <g id="line2d_73">
    <path clip-path="url(#p521bc7028d)" d="M 211.621012 436.47094 
L 212.10506 436.417157 
L 213.073157 435.879325 
L 213.772337 435.180145 
L 214.686651 433.889349 
L 215.385831 432.383422 
L 215.86988 430.393446 
L 215.977446 428.672386 
L 215.86988 427.274024 
L 215.332048 423.347855 
L 215.278265 421.142747 
L 215.70853 414.742554 
L 215.493398 412.698795 
L 215.009349 410.708819 
L 214.310169 409.095325 
L 212.427759 405.545639 
L 211.728578 403.878361 
L 211.24453 402.049735 
L 210.975614 400.221108 
L 210.921831 398.822747 
L 210.975614 394.520096 
L 210.706699 390.647711 
L 210.491566 386.291277 
L 210.706699 382.311325 
L 211.674795 370.156337 
L 212.26641 365.262072 
L 212.804241 362.088867 
L 212.750458 360.260241 
L 212.320193 358.001349 
L 211.621012 355.581108 
L 210.061301 351.170892 
L 209.52347 349.342265 
L 209.146988 347.137157 
L 209.039422 344.985831 
L 209.469687 339.553735 
L 209.631036 335.681349 
L 209.684819 330.733301 
L 210.007518 326.430651 
L 210.437783 320.729639 
L 211.40588 306.423325 
L 213.234506 288.943807 
L 214.417735 278.617446 
L 215.009349 272.916434 
L 216.246361 261.837108 
L 222.05494 207.677494 
L 222.216289 205.579952 
L 222.485205 193.424964 
L 223.130602 187.831518 
L 225.228145 174.708434 
L 227.164337 162.661012 
L 227.164337 162.661012 
" style="fill:none;stroke:#8000ff;stroke-linecap:square;stroke-width:1.5;"/>
   </g>
   <g id="line2d_74">
    <path clip-path="url(#p521bc7028d)" d="M 214.202602 216.659277 
L 214.256386 216.659277 
L 214.363952 216.71306 
L 214.417735 216.71306 
L 214.525301 216.766843 
L 214.794217 217.035759 
L 215.116916 217.466024 
L 215.547181 218.272771 
L 215.816096 219.187084 
L 215.977446 220.370313 
L 215.86988 222.19894 
L 215.439614 223.92 
L 214.686651 225.64106 
L 213.610988 227.577253 
L 212.427759 229.40588 
L 211.513446 230.911807 
L 210.599133 232.794217 
L 209.738602 234.784193 
L 209.146988 236.45147 
L 208.394024 238.495229 
L 207.856193 239.786024 
L 206.94188 241.776 
L 206.188916 243.443277 
L 205.435952 245.056771 
L 204.521639 246.992964 
L 203.661108 248.929157 
L 202.800578 250.919133 
L 202.101398 252.532627 
L 201.348434 254.199904 
L 200.487904 256.18988 
L 199.788723 257.803373 
L 199.035759 259.470651 
L 198.175229 261.406843 
L 197.422265 263.020337 
L 196.669301 264.687614 
L 195.97012 266.301108 
L 195.10959 268.291084 
L 194.195277 270.227277 
L 193.334747 272.217253 
L 192.743133 273.508048 
L 192.043952 275.175325 
L 191.129639 277.111518 
L 190.269108 279.101494 
L 189.408578 281.037687 
L 188.548048 283.027663 
L 187.633735 285.017639 
L 186.773205 286.953831 
L 186.074024 288.621108 
L 185.48241 289.911904 
L 184.729446 291.525398 
L 184.137831 292.869976 
L 183.277301 294.806169 
L 182.57812 296.473446 
L 181.825157 298.08694 
L 181.125976 299.754217 
L 180.211663 301.69041 
L 179.512482 303.357687 
L 178.598169 305.29388 
L 177.898988 306.961157 
L 177.038458 308.897349 
L 176.124145 310.887325 
L 175.586313 312.17812 
L 174.672 314.168096 
L 173.81147 316.104289 
L 173.058506 317.717783 
L 172.09041 319.707759 
L 171.337446 321.321253 
L 170.692048 322.612048 
L 169.885301 324.171759 
L 168.863422 326.107952 
L 168.218024 327.398747 
L 167.411277 328.958458 
L 166.658313 330.571952 
L 165.851566 332.185446 
L 164.991036 334.175422 
L 164.130506 336.111614 
L 163.269976 338.10159 
L 162.570795 339.715084 
L 161.871614 341.382361 
L 161.172434 343.049639 
L 160.311904 345.039614 
L 159.451373 346.975807 
L 158.752193 348.643084 
L 158.160578 349.93388 
L 157.461398 351.601157 
L 156.600867 353.537349 
L 156.009253 354.881928 
L 155.471422 356.172723 
L 154.772241 357.84 
L 153.911711 359.829976 
L 153.158747 361.44347 
L 152.352 363.433446 
L 151.599036 365.100723 
L 150.738506 367.036916 
L 149.931759 369.026892 
L 149.178795 370.694169 
L 148.318265 372.630361 
L 147.619084 374.297639 
L 146.758554 376.287614 
L 145.898024 378.223807 
L 145.091277 380.213783 
L 144.230747 382.203759 
L 143.370217 384.139952 
L 142.509687 386.129928 
L 141.649157 388.119904 
L 140.788627 390.10988 
L 139.928096 392.046072 
L 139.067566 394.036048 
L 138.260819 396.026024 
L 137.400289 397.962217 
" style="fill:none;stroke:#376ff9;stroke-linecap:square;stroke-width:1.5;"/>
   </g>
   <g id="line2d_75">
    <path clip-path="url(#p521bc7028d)" d="M 428.044337 147.225253 
L 428.367036 147.332819 
L 428.528386 147.547952 
L 428.474602 148.516048 
L 428.25947 149.322795 
L 427.614072 150.61359 
L 426.753542 151.850602 
L 425.140048 153.302747 
L 423.257639 154.485976 
L 421.106313 155.292723 
L 415.136386 156.314602 
L 413.200193 157.013783 
L 410.188337 158.68106 
L 408.305928 159.756723 
L 406.315952 160.724819 
L 401.152771 162.876145 
L 398.409831 164.543422 
L 397.065253 165.780434 
L 396.634988 166.856096 
L 396.366072 168.415807 
L 396.366072 170.083084 
L 396.688771 171.804145 
L 398.302265 176.483277 
L 398.302265 177.989205 
L 398.087133 178.688386 
L 397.334169 179.764048 
L 396.688771 180.30188 
L 395.882024 180.785928 
L 395.075277 181.054843 
L 393.945831 181.216193 
L 393.031518 181.216193 
L 391.633157 181.00106 
L 389.535614 180.30188 
L 388.191036 179.602699 
L 385.663229 177.989205 
L 384.211084 177.39759 
L 383.242988 177.39759 
L 382.167325 177.666506 
L 380.822747 178.365687 
L 379.478169 179.333783 
L 378.026024 180.839711 
L 374.960386 185.518843 
L 373.938506 186.594506 
L 372.97041 187.239904 
L 371.840964 187.723952 
L 370.22747 188.100434 
L 368.076145 188.100434 
L 365.871036 187.723952 
L 363.773494 186.863422 
L 362.213783 185.949108 
L 360.546506 184.712096 
L 359.094361 183.797783 
L 357.964916 183.367518 
L 356.458988 182.991036 
L 354.415229 182.88347 
L 352.747952 183.098602 
L 351.403373 183.475084 
L 349.78988 184.066699 
L 346.240193 185.680193 
L 344.519133 186.32559 
L 340.70053 187.455036 
L 336.613012 188.638265 
L 332.63306 190.197976 
L 328.975807 191.703904 
L 320.585639 194.877108 
L 312.894651 197.888964 
L 261.424193 217.896289 
L 257.498024 219.563566 
L 253.948337 221.230843 
L 247.333012 224.834313 
L 243.783325 226.555373 
L 240.126072 228.115084 
L 233.026699 230.642892 
L 225.927325 233.170699 
L 209.899952 238.549012 
L 206.081349 239.570892 
L 202.208964 240.377639 
L 200.43412 240.646554 
L 194.679325 241.130602 
L 190.753157 241.453301 
L 188.978313 241.722217 
L 186.934554 242.152482 
L 184.890795 242.744096 
L 181.502458 244.142458 
L 179.566265 245.433253 
L 179.082217 246.024867 
L 179.189783 245.755952 
L 179.136 245.594602 
L 179.243566 245.755952 
L 179.404916 246.132434 
L 179.781398 246.562699 
L 180.265446 246.939181 
L 180.265446 246.939181 
" style="fill:none;stroke:#12c7e6;stroke-linecap:square;stroke-width:1.5;"/>
   </g>
   <g id="line2d_76">
    <path clip-path="url(#p521bc7028d)" d="M 404.810024 411.945831 
L 404.379759 412.26853 
L 404.379759 412.376096 
L 404.325976 411.676916 
L 404.003277 410.708819 
L 403.519229 409.68694 
L 402.389783 408.234795 
L 400.830072 406.890217 
L 399.055229 405.868337 
L 397.065253 405.22294 
L 393.192867 404.20106 
L 391.471807 403.555663 
L 389.80453 402.695133 
L 382.705157 398.607614 
L 374.852819 395.057928 
L 362.644048 389.034217 
L 357.158169 386.398843 
L 348.445301 382.149976 
L 341.345928 378.707855 
L 330.750651 373.490892 
L 325.264771 370.855518 
L 313.378699 364.993157 
L 306.440675 361.712386 
L 306.494458 361.712386 
L 306.87094 361.604819 
L 306.817157 361.604819 
L 306.440675 362.196434 
L 306.225542 362.841831 
L 306.117976 363.756145 
L 306.225542 366.068819 
L 306.225542 368.48906 
L 305.580145 369.134458 
L 305.042313 369.457157 
L 304.289349 369.726072 
L 303.159904 369.994988 
L 301.707759 369.994988 
L 300.255614 369.726072 
L 298.64212 369.134458 
L 297.028627 368.327711 
L 294.016771 366.499084 
L 292.134361 365.638554 
L 289.821687 365.04694 
L 288.208193 364.88559 
L 283.905542 364.778024 
L 282.345831 364.562892 
L 280.78612 364.078843 
L 278.957494 363.16453 
L 277.236434 361.981301 
L 277.075084 361.658602 
L 277.290217 360.529157 
L 278.36588 357.624867 
L 278.742361 356.172723 
L 279.495325 355.204627 
L 280.78612 354.451663 
L 282.184482 354.182747 
L 283.69041 354.075181 
L 284.766072 353.913831 
L 285.895518 353.322217 
L 286.272 352.999518 
L 286.809831 352.031422 
L 287.024964 351.332241 
L 287.186313 350.417928 
L 287.13253 348.589301 
L 286.433349 344.501783 
L 286.433349 343.910169 
L 286.594699 343.210988 
L 286.917398 342.350458 
L 287.724145 341.113446 
L 289.283855 339.177253 
L 289.71412 338.26294 
L 289.767904 337.133494 
L 289.606554 336.434313 
L 288.961157 335.143518 
L 287.562795 333.691373 
L 285.895518 332.07788 
L 285.034988 331.002217 
L 284.497157 330.087904 
L 284.174458 329.119807 
L 283.959325 327.990361 
L 284.013108 326.107952 
L 284.873639 321.10612 
L 284.766072 320.622072 
L 284.120675 319.54641 
L 283.313928 318.739663 
L 281.754217 317.610217 
L 280.194506 316.857253 
L 278.20453 316.319422 
L 276.160771 316.158072 
L 272.449735 316.211855 
L 270.621108 315.94294 
L 268.792482 315.351325 
L 267.125205 314.490795 
L 265.780627 313.522699 
L 264.436048 312.33947 
L 262.822554 311.102458 
L 261.316627 310.241928 
L 259.380434 309.542747 
L 257.336675 309.220048 
L 255.239133 309.327614 
L 250.882699 309.865446 
L 249.000289 309.865446 
L 246.795181 309.542747 
L 241.255518 308.090602 
L 239.211759 307.71412 
L 229.584578 306.692241 
L 226.034892 306.100627 
L 220.011181 305.13253 
L 179.243566 298.893687 
L 179.243566 298.893687 
" style="fill:none;stroke:#5bf9c7;stroke-linecap:square;stroke-width:1.5;"/>
   </g>
   <g id="line2d_77">
    <path clip-path="url(#p521bc7028d)" d="M 211.836145 358.216482 
L 212.212627 358.162699 
L 213.503422 358.108916 
L 215.439614 357.732434 
L 217.322024 356.97947 
L 218.774169 356.065157 
L 223.130602 352.569253 
L 226.196241 350.79441 
L 230.014843 348.965783 
L 233.295614 347.137157 
L 243.137928 341.059663 
L 244.37494 340.199133 
L 245.880867 338.746988 
L 246.472482 337.725108 
L 246.633831 336.918361 
L 246.526265 336.111614 
L 246.257349 335.143518 
L 245.558169 333.79894 
L 244.643855 332.669494 
L 242.384964 330.087904 
L 242.008482 329.442506 
L 241.793349 328.797108 
L 241.685783 328.044145 
L 242.008482 326.376867 
L 242.600096 325.139855 
L 243.675759 323.84906 
L 245.020337 322.773398 
L 247.064096 321.697735 
L 250.56 320.030458 
L 252.227277 318.901012 
L 253.464289 317.717783 
L 255.508048 314.867277 
L 256.314795 313.684048 
L 257.874506 312.070554 
L 259.380434 310.941108 
L 261.37041 309.919229 
L 264.920096 308.359518 
L 268.039518 306.638458 
L 271.051373 304.756048 
L 274.60106 302.927422 
L 282.991229 298.94747 
L 286.056867 297.172627 
L 289.122506 294.859952 
L 290.628434 293.407807 
L 292.080578 291.848096 
L 294.715952 288.513542 
L 295.952964 287.115181 
L 297.351325 285.878169 
L 298.534554 285.017639 
L 302.030458 283.081446 
L 306.548241 280.876337 
L 307.946602 280.06959 
L 307.785253 280.284723 
L 307.785253 280.392289 
L 307.785253 280.23094 
L 307.623904 279.746892 
L 307.301205 279.155277 
L 306.70959 278.456096 
L 303.805301 276.304771 
L 303.428819 275.713157 
L 303.321253 274.529928 
L 303.428819 273.88453 
L 304.235566 272.271036 
L 304.98853 271.410506 
L 307.785253 269.312964 
L 308.968482 268.291084 
L 309.398747 267.645687 
L 309.829012 266.785157 
L 310.151711 265.601928 
L 310.205494 264.311133 
L 309.882795 258.287422 
L 309.990361 257.588241 
L 310.259277 256.835277 
L 310.689542 256.02853 
L 311.33494 255.168 
L 313.002217 253.769639 
L 314.508145 253.016675 
L 316.229205 252.42506 
L 318.434313 252.048578 
L 324.081542 251.456964 
L 326.448 250.811566 
L 331.127133 248.98294 
L 332.955759 248.498892 
L 335.107084 248.12241 
L 336.935711 248.014843 
L 346.993157 247.907277 
L 352.425253 247.853494 
L 356.727904 248.014843 
L 362.482699 248.337542 
L 369.635855 248.660241 
L 379.639518 248.929157 
L 387.868337 249.036723 
L 399.001446 249.144289 
L 399.001446 249.144289 
" style="fill:none;stroke:#a4f99f;stroke-linecap:square;stroke-width:1.5;"/>
   </g>
   <g id="line2d_78">
    <path clip-path="url(#p521bc7028d)" d="M 349.305831 409.202892 
L 349.036916 409.256675 
L 348.875566 409.471807 
L 348.983133 408.557494 
L 348.929349 407.643181 
L 348.606651 406.191036 
L 347.961253 404.631325 
L 346.831807 402.856482 
L 345.433446 401.404337 
L 344.035084 400.382458 
L 341.023229 398.768964 
L 339.355952 397.800867 
L 337.903807 396.563855 
L 333.708723 392.261205 
L 332.095229 390.862843 
L 326.770699 387.20559 
L 323.812627 384.570217 
L 320.693205 381.665928 
L 317.358651 378.976771 
L 312.840867 375.373301 
L 306.548241 370.048771 
L 295.522699 360.851855 
L 290.843566 356.97947 
L 282.399614 349.718747 
L 282.292048 349.288482 
L 282.399614 349.019566 
L 282.453398 348.965783 
L 282.883663 348.750651 
L 283.959325 348.481735 
L 285.357687 348.481735 
L 285.196337 348.589301 
L 285.034988 348.696867 
L 285.142554 348.535518 
L 285.357687 347.89012 
L 285.465253 346.868241 
L 285.196337 345.147181 
L 283.582843 341.059663 
L 283.69041 340.683181 
L 284.120675 339.715084 
L 284.981205 338.316723 
L 286.218217 336.918361 
L 287.939277 335.466217 
L 291.112482 333.79894 
L 292.134361 333.153542 
L 292.080578 333.153542 
L 292.188145 332.561928 
L 292.134361 331.701398 
L 291.919229 330.787084 
L 291.488964 329.872771 
L 290.789783 328.850892 
L 289.767904 327.829012 
L 288.208193 326.860916 
L 286.648482 326.215518 
L 284.766072 325.73147 
L 283.045012 325.408771 
L 280.893687 324.817157 
L 279.280193 324.117976 
L 278.20453 323.418795 
L 277.290217 322.558265 
L 276.429687 321.482602 
L 275.46159 319.869108 
L 274.708627 317.771566 
L 274.385928 315.94294 
L 274.332145 311.909205 
L 274.063229 309.973012 
L 273.579181 308.682217 
L 272.88 307.337639 
L 271.589205 305.777928 
L 270.029494 304.487133 
L 268.523566 303.626602 
L 262.876337 301.206361 
L 260.940145 300.130699 
L 255.346699 296.312096 
L 251.635663 294.214554 
L 248.139759 292.278361 
L 242.600096 288.943807 
L 239.857157 287.27653 
L 221.570892 276.681253 
L 216.192578 273.88453 
L 212.320193 272.16347 
L 208.66294 270.980241 
L 205.274602 270.227277 
L 197.85253 269.097831 
L 194.840675 268.828916 
L 192.958265 268.936482 
L 192.259084 269.097831 
L 191.398554 269.42053 
L 190.64559 269.850795 
L 189.677494 270.657542 
L 186.934554 273.830747 
L 185.751325 274.583711 
L 184.837012 274.852627 
L 183.223518 274.90641 
L 181.394892 274.637494 
L 180.319229 274.529928 
L 179.082217 274.637494 
L 177.361157 275.067759 
L 173.596337 276.62747 
L 172.251759 276.950169 
L 171.122313 277.003952 
L 169.723952 276.842602 
L 168.48694 276.46612 
L 166.873446 275.60559 
L 165.313735 274.529928 
L 162.248096 272.055904 
L 160.580819 270.926458 
L 157.83788 269.474313 
L 156.224386 268.613783 
L 154.341976 267.430554 
L 152.620916 266.032193 
L 151.114988 264.418699 
L 148.694747 261.299277 
L 146.382072 258.126072 
L 145.252627 256.727711 
L 143.208867 253.769639 
L 141.326458 250.650217 
L 137.991904 243.873542 
L 133.63547 233.977446 
L 129.063904 222.682988 
L 129.063904 222.682988 
" style="fill:none;stroke:#edc76f;stroke-linecap:square;stroke-width:1.5;"/>
   </g>
   <g id="line2d_79">
    <path clip-path="url(#p521bc7028d)" d="M 446.599518 388.711518 
L 446.330602 388.819084 
L 446.169253 388.926651 
L 446.169253 389.034217 
L 446.061687 387.20559 
L 445.738988 386.291277 
L 444.986024 385.054265 
L 443.749012 383.655904 
L 442.081735 382.472675 
L 440.199325 381.504578 
L 436.542072 380.106217 
L 434.552096 379.13812 
L 431.163759 377.094361 
L 429.388916 376.018699 
L 427.990554 375.319518 
L 426.430843 374.781687 
L 425.140048 374.566554 
L 423.956819 374.620337 
L 422.558458 374.889253 
L 420.676048 375.642217 
L 416.74988 377.632193 
L 414.86747 378.331373 
L 413.200193 378.654072 
L 411.694265 378.600289 
L 410.080771 378.27759 
L 407.983229 377.524627 
L 406.047036 376.341398 
L 401.31412 372.25388 
L 399.59306 371.016867 
L 392.977735 367.359614 
L 391.202892 366.122602 
L 387.814554 363.379663 
L 385.34053 361.389687 
L 339.463518 326.914699 
L 336.344096 324.494458 
L 331.826313 320.998554 
L 328.599325 318.363181 
L 326.609349 316.588337 
L 325.641253 315.405108 
L 325.372337 314.813494 
L 325.42612 314.490795 
L 325.748819 313.845398 
L 326.501783 312.823518 
L 327.631229 311.747855 
L 329.02959 310.779759 
L 333.65494 308.144386 
L 333.49359 308.359518 
L 333.386024 307.068723 
L 333.117108 306.423325 
L 332.63306 305.670361 
L 331.826313 304.809831 
L 330.804434 304.056867 
L 329.567422 303.465253 
L 324.72694 301.744193 
L 323.597494 300.883663 
L 323.167229 300.345831 
L 322.790747 299.592867 
L 322.360482 297.818024 
L 322.199133 296.742361 
L 322.199133 296.849928 
L 321.715084 296.634795 
L 321.069687 296.473446 
L 320.26294 296.473446 
L 319.025928 296.634795 
L 317.627566 297.06506 
L 315.368675 297.92559 
L 314.884627 297.871807 
L 314.615711 297.710458 
L 314.131663 297.280193 
L 312.787084 295.774265 
L 311.818988 294.160771 
L 311.119807 292.439711 
L 309.990361 287.061398 
L 309.291181 284.963855 
L 308.107952 282.436048 
L 307.086072 281.145253 
L 305.84906 280.06959 
L 304.128 278.993928 
L 302.191807 278.240964 
L 300.148048 277.972048 
L 298.480771 277.972048 
L 296.437012 278.402313 
L 291.650313 279.854458 
L 289.821687 280.177157 
L 285.465253 280.553639 
L 281.915566 280.822554 
L 280.194506 281.09147 
L 280.194506 281.09147 
" style="fill:none;stroke:#ff6f39;stroke-linecap:square;stroke-width:1.5;"/>
   </g>
   <g id="line2d_80">
    <path clip-path="url(#p521bc7028d)" d="M 136.109494 320.675855 
L 138.260819 320.729639 
L 140.412145 320.998554 
L 142.186988 321.375036 
L 147.672867 322.98853 
L 149.716627 323.472578 
L 154.879807 324.333108 
L 159.128675 325.193639 
L 168.917205 327.398747 
L 174.510651 328.528193 
L 185.052145 330.787084 
L 196.992 333.314892 
L 205.382169 335.143518 
L 208.824289 335.842699 
L 210.760482 336.111614 
L 211.997494 336.165398 
L 213.610988 336.057831 
L 215.600964 335.52 
L 217.483373 334.65947 
L 220.979277 332.669494 
L 223.023036 331.862747 
L 224.79788 331.540048 
L 226.949205 331.486265 
L 231.305639 332.024096 
L 235.178024 332.400578 
L 238.781494 332.508145 
L 240.61012 332.723277 
L 242.761446 333.153542 
L 246.096 334.175422 
L 247.81706 335.035952 
L 247.870843 335.52 
L 247.655711 335.896482 
L 247.11788 336.488096 
L 246.418699 337.079711 
L 245.343036 337.671325 
L 242.976578 338.424289 
L 243.030361 338.424289 
L 243.191711 338.155373 
L 243.191711 339.12347 
L 243.675759 340.252916 
L 245.343036 342.350458 
L 246.042217 343.748819 
L 246.203566 345.200964 
L 246.149783 346.007711 
L 245.665735 348.750651 
L 245.773301 350.095229 
L 246.472482 351.601157 
L 247.763277 352.838169 
L 250.183518 354.451663 
L 251.366747 355.688675 
L 251.850795 356.871904 
L 251.904578 357.517301 
L 251.850795 358.324048 
L 251.528096 359.399711 
L 250.990265 360.58294 
L 250.183518 361.712386 
L 248.354892 363.433446 
L 247.386795 364.347759 
L 247.494361 364.078843 
L 247.494361 363.863711 
L 247.494361 363.917494 
L 247.763277 364.240193 
L 248.785157 364.88559 
L 249.53812 365.154506 
L 252.227277 365.799904 
L 252.980241 366.176386 
L 253.733205 366.714217 
L 254.862651 368.058795 
L 256.099663 369.672289 
L 256.637494 370.21012 
L 258.089639 370.963084 
L 258.950169 371.178217 
L 263.790651 371.931181 
L 265.941976 372.791711 
L 270.621108 375.534651 
L 273.041349 376.180048 
L 274.385928 376.341398 
L 277.828048 376.395181 
L 284.228241 376.341398 
L 288.15441 376.233831 
L 291.220048 375.803566 
L 294.931084 374.83547 
L 304.504482 372.038747 
L 309.506313 370.156337 
L 313.378699 368.381494 
L 324.56559 362.680482 
L 326.448 361.658602 
L 326.448 361.658602 
" style="fill:none;stroke:#ff0000;stroke-linecap:square;stroke-width:1.5;"/>
   </g>
   <g id="patch_3">
    <path d="M 72 512.64 
L 72 69.12 
" style="fill:none;stroke:#000000;stroke-linecap:square;stroke-linejoin:miter;stroke-width:0.8;"/>
   </g>
   <g id="patch_4">
    <path d="M 518.4 512.64 
L 518.4 69.12 
" style="fill:none;stroke:#000000;stroke-linecap:square;stroke-linejoin:miter;stroke-width:0.8;"/>
   </g>
   <g id="patch_5">
    <path d="M 72 512.64 
L 518.4 512.64 
" style="fill:none;stroke:#000000;stroke-linecap:square;stroke-linejoin:miter;stroke-width:0.8;"/>
   </g>
   <g id="patch_6">
    <path d="M 72 69.12 
L 518.4 69.12 
" style="fill:none;stroke:#000000;stroke-linecap:square;stroke-linejoin:miter;stroke-width:0.8;"/>
   </g>
   <g id="text_18">
    <!-- 1 -->
    <defs>
     <path d="M 14.203125 0 
L 14.203125 5.171875 
L 26.90625 5.171875 
L 26.90625 65.828125 
L 12.203125 56.296875 
L 12.203125 62.703125 
L 29.984375 74.21875 
L 36.71875 74.21875 
L 36.71875 5.171875 
L 49.421875 5.171875 
L 49.421875 0 
z
" id="DejaVuSerif-31"/>
    </defs>
    <g transform="translate(208.441751 436.493389)scale(0.1 -0.1)">
     <use xlink:href="#DejaVuSerif-31"/>
    </g>
   </g>
   <g id="text_19">
    <!-- 1 -->
    <g transform="translate(224.105744 162.086269)scale(0.1 -0.1)">
     <use xlink:href="#DejaVuSerif-31"/>
    </g>
   </g>
   <g id="text_20">
    <!-- 2 -->
    <defs>
     <path d="M 12.796875 55.515625 
L 7.328125 55.515625 
L 7.328125 68.5 
Q 12.546875 71.296875 17.84375 72.75 
Q 23.140625 74.21875 28.21875 74.21875 
Q 39.59375 74.21875 46.1875 68.703125 
Q 52.78125 63.1875 52.78125 53.71875 
Q 52.78125 43.015625 37.84375 28.125 
Q 36.671875 27 36.078125 26.421875 
L 17.671875 8.015625 
L 48.09375 8.015625 
L 48.09375 17 
L 53.8125 17 
L 53.8125 0 
L 6.78125 0 
L 6.78125 5.328125 
L 28.90625 27.390625 
Q 36.234375 34.71875 39.359375 40.84375 
Q 42.484375 46.96875 42.484375 53.71875 
Q 42.484375 61.078125 38.640625 65.234375 
Q 34.8125 69.390625 28.078125 69.390625 
Q 21.09375 69.390625 17.28125 65.921875 
Q 13.484375 62.453125 12.796875 55.515625 
z
" id="DejaVuSerif-32"/>
    </defs>
    <g transform="translate(211.037726 216.676417)scale(0.1 -0.1)">
     <use xlink:href="#DejaVuSerif-32"/>
    </g>
   </g>
   <g id="text_21">
    <!-- 2 -->
    <g transform="translate(133.903504 398.672904)scale(0.1 -0.1)">
     <use xlink:href="#DejaVuSerif-32"/>
    </g>
   </g>
   <g id="text_22">
    <!-- 3 -->
    <defs>
     <path d="M 9.71875 69.828125 
Q 15.4375 71.96875 20.671875 73.09375 
Q 25.921875 74.21875 30.515625 74.21875 
Q 41.21875 74.21875 47.21875 69.59375 
Q 53.21875 64.984375 53.21875 56.78125 
Q 53.21875 50.203125 49.0625 45.78125 
Q 44.921875 41.359375 37.3125 39.796875 
Q 46.296875 38.53125 51.25 33.28125 
Q 56.203125 28.03125 56.203125 19.671875 
Q 56.203125 9.46875 49.34375 4.015625 
Q 42.484375 -1.421875 29.59375 -1.421875 
Q 23.875 -1.421875 18.421875 -0.1875 
Q 12.984375 1.03125 7.625 3.515625 
L 7.625 17.671875 
L 13.09375 17.671875 
Q 13.578125 10.640625 17.828125 7.03125 
Q 22.078125 3.421875 29.78125 3.421875 
Q 37.25 3.421875 41.578125 7.734375 
Q 45.90625 12.0625 45.90625 19.578125 
Q 45.90625 28.171875 41.453125 32.59375 
Q 37.015625 37.015625 28.421875 37.015625 
L 23.78125 37.015625 
L 23.78125 42 
L 26.21875 42 
Q 34.765625 42 39.03125 45.53125 
Q 43.3125 49.078125 43.3125 56.203125 
Q 43.3125 62.59375 39.796875 65.984375 
Q 36.28125 69.390625 29.6875 69.390625 
Q 23.09375 69.390625 19.453125 66.265625 
Q 15.828125 63.140625 15.1875 56.984375 
L 9.71875 56.984375 
z
" id="DejaVuSerif-33"/>
    </defs>
    <g transform="translate(424.880016 147.234419)scale(0.1 -0.1)">
     <use xlink:href="#DejaVuSerif-33"/>
    </g>
   </g>
   <g id="text_23">
    <!-- 3 -->
    <g transform="translate(179.366376 248.422716)scale(0.1 -0.1)">
     <use xlink:href="#DejaVuSerif-33"/>
    </g>
   </g>
   <g id="text_24">
    <!-- 4 -->
    <defs>
     <path d="M 34.90625 24.703125 
L 34.90625 63.484375 
L 10.015625 24.703125 
z
M 56.390625 0 
L 23.1875 0 
L 23.1875 5.171875 
L 34.90625 5.171875 
L 34.90625 19.484375 
L 3.078125 19.484375 
L 3.078125 24.8125 
L 35.015625 74.21875 
L 44.671875 74.21875 
L 44.671875 24.703125 
L 58.59375 24.703125 
L 58.59375 19.484375 
L 44.671875 19.484375 
L 44.671875 5.171875 
L 56.390625 5.171875 
z
" id="DejaVuSerif-34"/>
    </defs>
    <g transform="translate(401.651166 411.955206)scale(0.1 -0.1)">
     <use xlink:href="#DejaVuSerif-34"/>
    </g>
   </g>
   <g id="text_25">
    <!-- 4 -->
    <g transform="translate(174.817568 298.722424)scale(0.1 -0.1)">
     <use xlink:href="#DejaVuSerif-34"/>
    </g>
   </g>
   <g id="text_26">
    <!-- 5 -->
    <defs>
     <path d="M 50.296875 72.90625 
L 50.296875 64.890625 
L 16.890625 64.890625 
L 16.890625 44 
Q 19.4375 45.75 22.828125 46.625 
Q 26.21875 47.515625 30.421875 47.515625 
Q 42.234375 47.515625 49.0625 40.96875 
Q 55.90625 34.421875 55.90625 23.09375 
Q 55.90625 11.53125 49 5.046875 
Q 42.09375 -1.421875 29.59375 -1.421875 
Q 24.5625 -1.421875 19.28125 -0.1875 
Q 14.015625 1.03125 8.5 3.515625 
L 8.5 17.671875 
L 14.015625 17.671875 
Q 14.453125 10.75 18.421875 7.078125 
Q 22.40625 3.421875 29.59375 3.421875 
Q 37.3125 3.421875 41.453125 8.5 
Q 45.609375 13.578125 45.609375 23.09375 
Q 45.609375 32.5625 41.484375 37.609375 
Q 37.359375 42.671875 29.59375 42.671875 
Q 25.203125 42.671875 21.84375 41.109375 
Q 18.5 39.546875 15.921875 36.28125 
L 11.71875 36.28125 
L 11.71875 72.90625 
z
" id="DejaVuSerif-35"/>
    </defs>
    <g transform="translate(208.657079 358.190836)scale(0.1 -0.1)">
     <use xlink:href="#DejaVuSerif-35"/>
    </g>
   </g>
   <g id="text_27">
    <!-- 5 -->
    <g transform="translate(396.829311 249.159478)scale(0.1 -0.1)">
     <use xlink:href="#DejaVuSerif-35"/>
    </g>
   </g>
   <g id="text_28">
    <!-- 6 -->
    <defs>
     <path d="M 32.71875 3.421875 
Q 39.59375 3.421875 43.296875 8.46875 
Q 47.015625 13.53125 47.015625 23 
Q 47.015625 32.46875 43.296875 37.515625 
Q 39.59375 42.578125 32.71875 42.578125 
Q 25.734375 42.578125 22.0625 37.6875 
Q 18.40625 32.8125 18.40625 23.578125 
Q 18.40625 13.875 22.109375 8.640625 
Q 25.828125 3.421875 32.71875 3.421875 
z
M 16.796875 40.140625 
Q 20.125 43.796875 24.3125 45.59375 
Q 28.515625 47.40625 33.796875 47.40625 
Q 44.671875 47.40625 51 40.859375 
Q 57.328125 34.328125 57.328125 23 
Q 57.328125 11.921875 50.515625 5.25 
Q 43.703125 -1.421875 32.328125 -1.421875 
Q 19.96875 -1.421875 13.328125 7.78125 
Q 6.6875 17 6.6875 34.078125 
Q 6.6875 53.21875 14.546875 63.71875 
Q 22.40625 74.21875 36.71875 74.21875 
Q 40.578125 74.21875 44.828125 73.484375 
Q 49.078125 72.75 53.515625 71.296875 
L 53.515625 59.28125 
L 48 59.28125 
Q 47.40625 64.203125 44.234375 66.796875 
Q 41.0625 69.390625 35.6875 69.390625 
Q 26.21875 69.390625 21.578125 62.203125 
Q 16.9375 55.03125 16.796875 40.140625 
z
" id="DejaVuSerif-36"/>
    </defs>
    <g transform="translate(346.146076 409.185988)scale(0.1 -0.1)">
     <use xlink:href="#DejaVuSerif-36"/>
    </g>
   </g>
   <g id="text_29">
    <!-- 6 -->
    <g transform="translate(125.40337 221.571198)scale(0.1 -0.1)">
     <use xlink:href="#DejaVuSerif-36"/>
    </g>
   </g>
   <g id="text_30">
    <!-- 7 -->
    <defs>
     <path d="M 56.390625 67.921875 
L 27.875 0 
L 20.609375 0 
L 47.796875 64.890625 
L 14.109375 64.890625 
L 14.109375 55.90625 
L 8.40625 55.90625 
L 8.40625 72.90625 
L 56.390625 72.90625 
z
" id="DejaVuSerif-37"/>
    </defs>
    <g transform="translate(443.414918 388.707432)scale(0.1 -0.1)">
     <use xlink:href="#DejaVuSerif-37"/>
    </g>
   </g>
   <g id="text_31">
    <!-- 7 -->
    <g transform="translate(276.081358 281.664505)scale(0.1 -0.1)">
     <use xlink:href="#DejaVuSerif-37"/>
    </g>
   </g>
   <g id="text_32">
    <!-- 8 -->
    <defs>
     <path d="M 46.578125 19.921875 
Q 46.578125 27.734375 42.6875 32.046875 
Q 38.8125 36.375 31.78125 36.375 
Q 24.75 36.375 20.875 32.046875 
Q 17 27.734375 17 19.921875 
Q 17 12.0625 20.875 7.734375 
Q 24.75 3.421875 31.78125 3.421875 
Q 38.8125 3.421875 42.6875 7.734375 
Q 46.578125 12.0625 46.578125 19.921875 
z
M 44.578125 55.328125 
Q 44.578125 61.96875 41.203125 65.671875 
Q 37.84375 69.390625 31.78125 69.390625 
Q 25.78125 69.390625 22.390625 65.671875 
Q 19 61.96875 19 55.328125 
Q 19 48.640625 22.390625 44.921875 
Q 25.78125 41.21875 31.78125 41.21875 
Q 37.84375 41.21875 41.203125 44.921875 
Q 44.578125 48.640625 44.578125 55.328125 
z
M 39.3125 38.8125 
Q 47.609375 37.703125 52.25 32.6875 
Q 56.890625 27.6875 56.890625 19.921875 
Q 56.890625 9.671875 50.390625 4.125 
Q 43.890625 -1.421875 31.78125 -1.421875 
Q 19.734375 -1.421875 13.203125 4.125 
Q 6.6875 9.671875 6.6875 19.921875 
Q 6.6875 27.6875 11.328125 32.6875 
Q 15.96875 37.703125 24.3125 38.8125 
Q 16.9375 40.140625 13 44.40625 
Q 9.078125 48.6875 9.078125 55.328125 
Q 9.078125 64.109375 15.125 69.15625 
Q 21.1875 74.21875 31.78125 74.21875 
Q 42.390625 74.21875 48.4375 69.15625 
Q 54.5 64.109375 54.5 55.328125 
Q 54.5 48.6875 50.5625 44.40625 
Q 46.625 40.140625 39.3125 38.8125 
z
" id="DejaVuSerif-38"/>
    </defs>
    <g transform="translate(132.91759 320.674225)scale(0.1 -0.1)">
     <use xlink:href="#DejaVuSerif-38"/>
    </g>
   </g>
   <g id="text_33">
    <!-- 8 -->
    <g transform="translate(324.404517 361.07678)scale(0.1 -0.1)">
     <use xlink:href="#DejaVuSerif-38"/>
    </g>
   </g>
  </g>
 </g>
 <defs>
  <clipPath id="p521bc7028d">
   <rect height="443.52" width="446.4" x="72" y="69.12"/>
  </clipPath>
 </defs>
</svg>
