<?xml version="1.0" encoding="utf-8" standalone="no"?>
<!DOCTYPE svg PUBLIC "-//W3C//DTD SVG 1.1//EN"
  "http://www.w3.org/Graphics/SVG/1.1/DTD/svg11.dtd">
<!-- Created with matplotlib (http://matplotlib.org/) -->
<svg height="576pt" version="1.1" viewBox="0 0 576 576" width="576pt" xmlns="http://www.w3.org/2000/svg" xmlns:xlink="http://www.w3.org/1999/xlink">
 <defs>
  <style type="text/css">
*{stroke-linecap:butt;stroke-linejoin:round;}
  </style>
 </defs>
 <g id="figure_1">
  <g id="patch_1">
   <path d="M 0 576 
L 576 576 
L 576 0 
L 0 0 
z
" style="fill:#ffffff;"/>
  </g>
  <g id="axes_1">
   <g id="patch_2">
    <path d="M 72 512.64 
L 518.4 512.64 
L 518.4 69.12 
L 72 69.12 
z
" style="fill:#ffffff;"/>
   </g>
   <g id="matplotlib.axis_1">
    <g id="xtick_1">
     <g id="line2d_1">
      <defs>
       <path d="M 0 0 
L 0 3.5 
" id="me4c6531353" style="stroke:#000000;stroke-width:0.8;"/>
      </defs>
      <g>
       <use style="stroke:#000000;stroke-width:0.8;" x="112.216216" xlink:href="#me4c6531353" y="512.64"/>
      </g>
     </g>
     <g id="text_1">
      <!-- 0 -->
      <defs>
       <path d="M 31.78125 66.40625 
Q 24.171875 66.40625 20.328125 58.90625 
Q 16.5 51.421875 16.5 36.375 
Q 16.5 21.390625 20.328125 13.890625 
Q 24.171875 6.390625 31.78125 6.390625 
Q 39.453125 6.390625 43.28125 13.890625 
Q 47.125 21.390625 47.125 36.375 
Q 47.125 51.421875 43.28125 58.90625 
Q 39.453125 66.40625 31.78125 66.40625 
z
M 31.78125 74.21875 
Q 44.046875 74.21875 50.515625 64.515625 
Q 56.984375 54.828125 56.984375 36.375 
Q 56.984375 17.96875 50.515625 8.265625 
Q 44.046875 -1.421875 31.78125 -1.421875 
Q 19.53125 -1.421875 13.0625 8.265625 
Q 6.59375 17.96875 6.59375 36.375 
Q 6.59375 54.828125 13.0625 64.515625 
Q 19.53125 74.21875 31.78125 74.21875 
z
" id="DejaVuSans-30"/>
      </defs>
      <g transform="translate(109.034966 527.238438)scale(0.1 -0.1)">
       <use xlink:href="#DejaVuSans-30"/>
      </g>
     </g>
    </g>
    <g id="xtick_2">
     <g id="line2d_2">
      <g>
       <use style="stroke:#000000;stroke-width:0.8;" x="192.648649" xlink:href="#me4c6531353" y="512.64"/>
      </g>
     </g>
     <g id="text_2">
      <!-- 2 -->
      <defs>
       <path d="M 19.1875 8.296875 
L 53.609375 8.296875 
L 53.609375 0 
L 7.328125 0 
L 7.328125 8.296875 
Q 12.9375 14.109375 22.625 23.890625 
Q 32.328125 33.6875 34.8125 36.53125 
Q 39.546875 41.84375 41.421875 45.53125 
Q 43.3125 49.21875 43.3125 52.78125 
Q 43.3125 58.59375 39.234375 62.25 
Q 35.15625 65.921875 28.609375 65.921875 
Q 23.96875 65.921875 18.8125 64.3125 
Q 13.671875 62.703125 7.8125 59.421875 
L 7.8125 69.390625 
Q 13.765625 71.78125 18.9375 73 
Q 24.125 74.21875 28.421875 74.21875 
Q 39.75 74.21875 46.484375 68.546875 
Q 53.21875 62.890625 53.21875 53.421875 
Q 53.21875 48.921875 51.53125 44.890625 
Q 49.859375 40.875 45.40625 35.40625 
Q 44.1875 33.984375 37.640625 27.21875 
Q 31.109375 20.453125 19.1875 8.296875 
z
" id="DejaVuSans-32"/>
      </defs>
      <g transform="translate(189.467399 527.238438)scale(0.1 -0.1)">
       <use xlink:href="#DejaVuSans-32"/>
      </g>
     </g>
    </g>
    <g id="xtick_3">
     <g id="line2d_3">
      <g>
       <use style="stroke:#000000;stroke-width:0.8;" x="273.081081" xlink:href="#me4c6531353" y="512.64"/>
      </g>
     </g>
     <g id="text_3">
      <!-- 4 -->
      <defs>
       <path d="M 37.796875 64.3125 
L 12.890625 25.390625 
L 37.796875 25.390625 
z
M 35.203125 72.90625 
L 47.609375 72.90625 
L 47.609375 25.390625 
L 58.015625 25.390625 
L 58.015625 17.1875 
L 47.609375 17.1875 
L 47.609375 0 
L 37.796875 0 
L 37.796875 17.1875 
L 4.890625 17.1875 
L 4.890625 26.703125 
z
" id="DejaVuSans-34"/>
      </defs>
      <g transform="translate(269.899831 527.238438)scale(0.1 -0.1)">
       <use xlink:href="#DejaVuSans-34"/>
      </g>
     </g>
    </g>
    <g id="xtick_4">
     <g id="line2d_4">
      <g>
       <use style="stroke:#000000;stroke-width:0.8;" x="353.513514" xlink:href="#me4c6531353" y="512.64"/>
      </g>
     </g>
     <g id="text_4">
      <!-- 6 -->
      <defs>
       <path d="M 33.015625 40.375 
Q 26.375 40.375 22.484375 35.828125 
Q 18.609375 31.296875 18.609375 23.390625 
Q 18.609375 15.53125 22.484375 10.953125 
Q 26.375 6.390625 33.015625 6.390625 
Q 39.65625 6.390625 43.53125 10.953125 
Q 47.40625 15.53125 47.40625 23.390625 
Q 47.40625 31.296875 43.53125 35.828125 
Q 39.65625 40.375 33.015625 40.375 
z
M 52.59375 71.296875 
L 52.59375 62.3125 
Q 48.875 64.0625 45.09375 64.984375 
Q 41.3125 65.921875 37.59375 65.921875 
Q 27.828125 65.921875 22.671875 59.328125 
Q 17.53125 52.734375 16.796875 39.40625 
Q 19.671875 43.65625 24.015625 45.921875 
Q 28.375 48.1875 33.59375 48.1875 
Q 44.578125 48.1875 50.953125 41.515625 
Q 57.328125 34.859375 57.328125 23.390625 
Q 57.328125 12.15625 50.6875 5.359375 
Q 44.046875 -1.421875 33.015625 -1.421875 
Q 20.359375 -1.421875 13.671875 8.265625 
Q 6.984375 17.96875 6.984375 36.375 
Q 6.984375 53.65625 15.1875 63.9375 
Q 23.390625 74.21875 37.203125 74.21875 
Q 40.921875 74.21875 44.703125 73.484375 
Q 48.484375 72.75 52.59375 71.296875 
z
" id="DejaVuSans-36"/>
      </defs>
      <g transform="translate(350.332264 527.238438)scale(0.1 -0.1)">
       <use xlink:href="#DejaVuSans-36"/>
      </g>
     </g>
    </g>
    <g id="xtick_5">
     <g id="line2d_5">
      <g>
       <use style="stroke:#000000;stroke-width:0.8;" x="433.945946" xlink:href="#me4c6531353" y="512.64"/>
      </g>
     </g>
     <g id="text_5">
      <!-- 8 -->
      <defs>
       <path d="M 31.78125 34.625 
Q 24.75 34.625 20.71875 30.859375 
Q 16.703125 27.09375 16.703125 20.515625 
Q 16.703125 13.921875 20.71875 10.15625 
Q 24.75 6.390625 31.78125 6.390625 
Q 38.8125 6.390625 42.859375 10.171875 
Q 46.921875 13.96875 46.921875 20.515625 
Q 46.921875 27.09375 42.890625 30.859375 
Q 38.875 34.625 31.78125 34.625 
z
M 21.921875 38.8125 
Q 15.578125 40.375 12.03125 44.71875 
Q 8.5 49.078125 8.5 55.328125 
Q 8.5 64.0625 14.71875 69.140625 
Q 20.953125 74.21875 31.78125 74.21875 
Q 42.671875 74.21875 48.875 69.140625 
Q 55.078125 64.0625 55.078125 55.328125 
Q 55.078125 49.078125 51.53125 44.71875 
Q 48 40.375 41.703125 38.8125 
Q 48.828125 37.15625 52.796875 32.3125 
Q 56.78125 27.484375 56.78125 20.515625 
Q 56.78125 9.90625 50.3125 4.234375 
Q 43.84375 -1.421875 31.78125 -1.421875 
Q 19.734375 -1.421875 13.25 4.234375 
Q 6.78125 9.90625 6.78125 20.515625 
Q 6.78125 27.484375 10.78125 32.3125 
Q 14.796875 37.15625 21.921875 38.8125 
z
M 18.3125 54.390625 
Q 18.3125 48.734375 21.84375 45.5625 
Q 25.390625 42.390625 31.78125 42.390625 
Q 38.140625 42.390625 41.71875 45.5625 
Q 45.3125 48.734375 45.3125 54.390625 
Q 45.3125 60.0625 41.71875 63.234375 
Q 38.140625 66.40625 31.78125 66.40625 
Q 25.390625 66.40625 21.84375 63.234375 
Q 18.3125 60.0625 18.3125 54.390625 
z
" id="DejaVuSans-38"/>
      </defs>
      <g transform="translate(430.764696 527.238438)scale(0.1 -0.1)">
       <use xlink:href="#DejaVuSans-38"/>
      </g>
     </g>
    </g>
    <g id="xtick_6">
     <g id="line2d_6">
      <g>
       <use style="stroke:#000000;stroke-width:0.8;" x="514.378378" xlink:href="#me4c6531353" y="512.64"/>
      </g>
     </g>
     <g id="text_6">
      <!-- 10 -->
      <defs>
       <path d="M 12.40625 8.296875 
L 28.515625 8.296875 
L 28.515625 63.921875 
L 10.984375 60.40625 
L 10.984375 69.390625 
L 28.421875 72.90625 
L 38.28125 72.90625 
L 38.28125 8.296875 
L 54.390625 8.296875 
L 54.390625 0 
L 12.40625 0 
z
" id="DejaVuSans-31"/>
      </defs>
      <g transform="translate(508.015878 527.238438)scale(0.1 -0.1)">
       <use xlink:href="#DejaVuSans-31"/>
       <use x="63.623047" xlink:href="#DejaVuSans-30"/>
      </g>
     </g>
    </g>
   </g>
   <g id="matplotlib.axis_2">
    <g id="ytick_1">
     <g id="line2d_7">
      <defs>
       <path d="M 0 0 
L -3.5 0 
" id="m8e0a51def7" style="stroke:#000000;stroke-width:0.8;"/>
      </defs>
      <g>
       <use style="stroke:#000000;stroke-width:0.8;" x="72" xlink:href="#m8e0a51def7" y="473.863784"/>
      </g>
     </g>
     <g id="text_7">
      <!-- 0 -->
      <g transform="translate(58.6375 477.663003)scale(0.1 -0.1)">
       <use xlink:href="#DejaVuSans-30"/>
      </g>
     </g>
    </g>
    <g id="ytick_2">
     <g id="line2d_8">
      <g>
       <use style="stroke:#000000;stroke-width:0.8;" x="72" xlink:href="#m8e0a51def7" y="393.431351"/>
      </g>
     </g>
     <g id="text_8">
      <!-- 2 -->
      <g transform="translate(58.6375 397.23057)scale(0.1 -0.1)">
       <use xlink:href="#DejaVuSans-32"/>
      </g>
     </g>
    </g>
    <g id="ytick_3">
     <g id="line2d_9">
      <g>
       <use style="stroke:#000000;stroke-width:0.8;" x="72" xlink:href="#m8e0a51def7" y="312.998919"/>
      </g>
     </g>
     <g id="text_9">
      <!-- 4 -->
      <g transform="translate(58.6375 316.798138)scale(0.1 -0.1)">
       <use xlink:href="#DejaVuSans-34"/>
      </g>
     </g>
    </g>
    <g id="ytick_4">
     <g id="line2d_10">
      <g>
       <use style="stroke:#000000;stroke-width:0.8;" x="72" xlink:href="#m8e0a51def7" y="232.566486"/>
      </g>
     </g>
     <g id="text_10">
      <!-- 6 -->
      <g transform="translate(58.6375 236.365705)scale(0.1 -0.1)">
       <use xlink:href="#DejaVuSans-36"/>
      </g>
     </g>
    </g>
    <g id="ytick_5">
     <g id="line2d_11">
      <g>
       <use style="stroke:#000000;stroke-width:0.8;" x="72" xlink:href="#m8e0a51def7" y="152.134054"/>
      </g>
     </g>
     <g id="text_11">
      <!-- 8 -->
      <g transform="translate(58.6375 155.933273)scale(0.1 -0.1)">
       <use xlink:href="#DejaVuSans-38"/>
      </g>
     </g>
    </g>
    <g id="ytick_6">
     <g id="line2d_12">
      <g>
       <use style="stroke:#000000;stroke-width:0.8;" x="72" xlink:href="#m8e0a51def7" y="71.701622"/>
      </g>
     </g>
     <g id="text_12">
      <!-- 10 -->
      <g transform="translate(52.275 75.50084)scale(0.1 -0.1)">
       <use xlink:href="#DejaVuSans-31"/>
       <use x="63.623047" xlink:href="#DejaVuSans-30"/>
      </g>
     </g>
    </g>
   </g>
   <g id="line2d_13">
    <path clip-path="url(#pa11f557a2f)" d="M 140.367568 389.40973 
" style="fill:none;stroke:#1f77b4;stroke-linecap:square;stroke-width:1.5;"/>
    <defs>
     <path d="M -5 5 
L 5 5 
L 5 -5 
L -5 -5 
z
" id="m71e6d910d1" style="stroke:#8000ff;stroke-linejoin:miter;"/>
    </defs>
    <g clip-path="url(#pa11f557a2f)">
     <use style="fill:#8000ff;stroke:#8000ff;stroke-linejoin:miter;" x="140.367568" xlink:href="#m71e6d910d1" y="389.40973"/>
    </g>
   </g>
   <g id="line2d_14">
    <path clip-path="url(#pa11f557a2f)" d="M 393.72973 192.35027 
" style="fill:none;stroke:#ff7f0e;stroke-linecap:square;stroke-width:1.5;"/>
    <defs>
     <path d="M 0 -5 
L -4.755283 -1.545085 
L -2.938926 4.045085 
L 2.938926 4.045085 
L 4.755283 -1.545085 
z
" id="m84a6f5cf40" style="stroke:#8000ff;stroke-linejoin:miter;"/>
    </defs>
    <g clip-path="url(#pa11f557a2f)">
     <use style="fill:#8000ff;stroke:#8000ff;stroke-linejoin:miter;" x="393.72973" xlink:href="#m84a6f5cf40" y="192.35027"/>
    </g>
   </g>
   <g id="line2d_15">
    <path clip-path="url(#pa11f557a2f)" d="M 450.032432 192.35027 
" style="fill:none;stroke:#2ca02c;stroke-linecap:square;stroke-width:1.5;"/>
    <defs>
     <path d="M -5 5 
L 5 5 
L 5 -5 
L -5 -5 
z
" id="m315f5a8d49" style="stroke:#1996f3;stroke-linejoin:miter;"/>
    </defs>
    <g clip-path="url(#pa11f557a2f)">
     <use style="fill:#1996f3;stroke:#1996f3;stroke-linejoin:miter;" x="450.032432" xlink:href="#m315f5a8d49" y="192.35027"/>
    </g>
   </g>
   <g id="line2d_16">
    <path clip-path="url(#pa11f557a2f)" d="M 224.821622 361.258378 
" style="fill:none;stroke:#d62728;stroke-linecap:square;stroke-width:1.5;"/>
    <defs>
     <path d="M 0 -5 
L -4.755283 -1.545085 
L -2.938926 4.045085 
L 2.938926 4.045085 
L 4.755283 -1.545085 
z
" id="mddb391fa61" style="stroke:#1996f3;stroke-linejoin:miter;"/>
    </defs>
    <g clip-path="url(#pa11f557a2f)">
     <use style="fill:#1996f3;stroke:#1996f3;stroke-linejoin:miter;" x="224.821622" xlink:href="#mddb391fa61" y="361.258378"/>
    </g>
   </g>
   <g id="line2d_17">
    <path clip-path="url(#pa11f557a2f)" d="M 402.175135 440.082162 
" style="fill:none;stroke:#9467bd;stroke-linecap:square;stroke-width:1.5;"/>
    <defs>
     <path d="M -5 5 
L 5 5 
L 5 -5 
L -5 -5 
z
" id="m2e57441539" style="stroke:#4df3ce;stroke-linejoin:miter;"/>
    </defs>
    <g clip-path="url(#pa11f557a2f)">
     <use style="fill:#4df3ce;stroke:#4df3ce;stroke-linejoin:miter;" x="402.175135" xlink:href="#m2e57441539" y="440.082162"/>
    </g>
   </g>
   <g id="line2d_18">
    <path clip-path="url(#pa11f557a2f)" d="M 224.821622 192.35027 
" style="fill:none;stroke:#8c564b;stroke-linecap:square;stroke-width:1.5;"/>
    <defs>
     <path d="M 0 -5 
L -4.755283 -1.545085 
L -2.938926 4.045085 
L 2.938926 4.045085 
L 4.755283 -1.545085 
z
" id="m54415a8aee" style="stroke:#4df3ce;stroke-linejoin:miter;"/>
    </defs>
    <g clip-path="url(#pa11f557a2f)">
     <use style="fill:#4df3ce;stroke:#4df3ce;stroke-linejoin:miter;" x="224.821622" xlink:href="#m54415a8aee" y="192.35027"/>
    </g>
   </g>
   <g id="line2d_19">
    <path clip-path="url(#pa11f557a2f)" d="M 224.821622 136.047568 
" style="fill:none;stroke:#e377c2;stroke-linecap:square;stroke-width:1.5;"/>
    <defs>
     <path d="M -5 5 
L 5 5 
L 5 -5 
L -5 -5 
z
" id="m827b849c99" style="stroke:#b3f396;stroke-linejoin:miter;"/>
    </defs>
    <g clip-path="url(#pa11f557a2f)">
     <use style="fill:#b3f396;stroke:#b3f396;stroke-linejoin:miter;" x="224.821622" xlink:href="#m827b849c99" y="136.047568"/>
    </g>
   </g>
   <g id="line2d_20">
    <path clip-path="url(#pa11f557a2f)" d="M 393.72973 361.258378 
" style="fill:none;stroke:#7f7f7f;stroke-linecap:square;stroke-width:1.5;"/>
    <defs>
     <path d="M 0 -5 
L -4.755283 -1.545085 
L -2.938926 4.045085 
L 2.938926 4.045085 
L 4.755283 -1.545085 
z
" id="m05f106112c" style="stroke:#b3f396;stroke-linejoin:miter;"/>
    </defs>
    <g clip-path="url(#pa11f557a2f)">
     <use style="fill:#b3f396;stroke:#b3f396;stroke-linejoin:miter;" x="393.72973" xlink:href="#m05f106112c" y="361.258378"/>
    </g>
   </g>
   <g id="line2d_21">
    <path clip-path="url(#pa11f557a2f)" d="M 450.032432 304.955676 
" style="fill:none;stroke:#bcbd22;stroke-linecap:square;stroke-width:1.5;"/>
    <defs>
     <path d="M -5 5 
L 5 5 
L 5 -5 
L -5 -5 
z
" id="m97487394d7" style="stroke:#ff964f;stroke-linejoin:miter;"/>
    </defs>
    <g clip-path="url(#pa11f557a2f)">
     <use style="fill:#ff964f;stroke:#ff964f;stroke-linejoin:miter;" x="450.032432" xlink:href="#m97487394d7" y="304.955676"/>
    </g>
   </g>
   <g id="line2d_22">
    <path clip-path="url(#pa11f557a2f)" d="M 196.67027 248.652973 
" style="fill:none;stroke:#17becf;stroke-linecap:square;stroke-width:1.5;"/>
    <defs>
     <path d="M 0 -5 
L -4.755283 -1.545085 
L -2.938926 4.045085 
L 2.938926 4.045085 
L 4.755283 -1.545085 
z
" id="m8a3c2f65dd" style="stroke:#ff964f;stroke-linejoin:miter;"/>
    </defs>
    <g clip-path="url(#pa11f557a2f)">
     <use style="fill:#ff964f;stroke:#ff964f;stroke-linejoin:miter;" x="196.67027" xlink:href="#m8a3c2f65dd" y="248.652973"/>
    </g>
   </g>
   <g id="line2d_23">
    <path clip-path="url(#pa11f557a2f)" d="M 140.367568 248.652973 
" style="fill:none;stroke:#1f77b4;stroke-linecap:square;stroke-width:1.5;"/>
    <defs>
     <path d="M -5 5 
L 5 5 
L 5 -5 
L -5 -5 
z
" id="m14acbf7916" style="stroke:#ff0000;stroke-linejoin:miter;"/>
    </defs>
    <g clip-path="url(#pa11f557a2f)">
     <use style="fill:#ff0000;stroke:#ff0000;stroke-linejoin:miter;" x="140.367568" xlink:href="#m14acbf7916" y="248.652973"/>
    </g>
   </g>
   <g id="line2d_24">
    <path clip-path="url(#pa11f557a2f)" d="M 393.72973 276.804324 
" style="fill:none;stroke:#ff7f0e;stroke-linecap:square;stroke-width:1.5;"/>
    <defs>
     <path d="M 0 -5 
L -4.755283 -1.545085 
L -2.938926 4.045085 
L 2.938926 4.045085 
L 4.755283 -1.545085 
z
" id="mbb791d0047" style="stroke:#ff0000;stroke-linejoin:miter;"/>
    </defs>
    <g clip-path="url(#pa11f557a2f)">
     <use style="fill:#ff0000;stroke:#ff0000;stroke-linejoin:miter;" x="393.72973" xlink:href="#mbb791d0047" y="276.804324"/>
    </g>
   </g>
   <g id="line2d_25">
    <defs>
     <path d="M 0 2.5 
C 0.663008 2.5 1.29895 2.236584 1.767767 1.767767 
C 2.236584 1.29895 2.5 0.663008 2.5 0 
C 2.5 -0.663008 2.236584 -1.29895 1.767767 -1.767767 
C 1.29895 -2.236584 0.663008 -2.5 0 -2.5 
C -0.663008 -2.5 -1.29895 -2.236584 -1.767767 -1.767767 
C -2.236584 -1.29895 -2.5 -0.663008 -2.5 0 
C -2.5 0.663008 -2.236584 1.29895 -1.767767 1.767767 
C -1.29895 2.236584 -0.663008 2.5 0 2.5 
z
" id="m7b86ecd488" style="stroke:#000000;"/>
    </defs>
    <g clip-path="url(#pa11f557a2f)">
     <use style="stroke:#000000;" x="196.67027" xlink:href="#m7b86ecd488" y="389.40973"/>
     <use style="stroke:#000000;" x="196.67027" xlink:href="#m7b86ecd488" y="333.107027"/>
     <use style="stroke:#000000;" x="252.972973" xlink:href="#m7b86ecd488" y="389.40973"/>
     <use style="stroke:#000000;" x="252.972973" xlink:href="#m7b86ecd488" y="333.107027"/>
     <use style="stroke:#000000;" x="309.275676" xlink:href="#m7b86ecd488" y="389.40973"/>
     <use style="stroke:#000000;" x="309.275676" xlink:href="#m7b86ecd488" y="333.107027"/>
     <use style="stroke:#000000;" x="365.578378" xlink:href="#m7b86ecd488" y="389.40973"/>
     <use style="stroke:#000000;" x="365.578378" xlink:href="#m7b86ecd488" y="333.107027"/>
     <use style="stroke:#000000;" x="421.881081" xlink:href="#m7b86ecd488" y="389.40973"/>
     <use style="stroke:#000000;" x="421.881081" xlink:href="#m7b86ecd488" y="333.107027"/>
     <use style="stroke:#000000;" x="196.67027" xlink:href="#m7b86ecd488" y="220.501622"/>
     <use style="stroke:#000000;" x="196.67027" xlink:href="#m7b86ecd488" y="164.198919"/>
     <use style="stroke:#000000;" x="252.972973" xlink:href="#m7b86ecd488" y="220.501622"/>
     <use style="stroke:#000000;" x="252.972973" xlink:href="#m7b86ecd488" y="164.198919"/>
     <use style="stroke:#000000;" x="309.275676" xlink:href="#m7b86ecd488" y="220.501622"/>
     <use style="stroke:#000000;" x="309.275676" xlink:href="#m7b86ecd488" y="164.198919"/>
     <use style="stroke:#000000;" x="365.578378" xlink:href="#m7b86ecd488" y="220.501622"/>
     <use style="stroke:#000000;" x="365.578378" xlink:href="#m7b86ecd488" y="164.198919"/>
     <use style="stroke:#000000;" x="421.881081" xlink:href="#m7b86ecd488" y="220.501622"/>
     <use style="stroke:#000000;" x="421.881081" xlink:href="#m7b86ecd488" y="164.198919"/>
    </g>
   </g>
   <g id="line2d_26">
    <path clip-path="url(#pa11f557a2f)" d="M 212.354595 389.40973 
L 211.504775 384.317038 
L 209.047406 379.776218 
L 205.248783 376.279339 
L 200.520544 374.205342 
L 195.375069 373.778975 
L 190.369949 375.046444 
L 186.047566 377.870397 
L 182.876319 381.944816 
L 181.19986 386.828175 
L 181.19986 391.991285 
L 182.876319 396.874643 
L 186.047566 400.949062 
L 190.369949 403.773016 
L 195.375069 405.040484 
L 200.520544 404.614118 
L 205.248783 402.54012 
L 209.047406 399.043241 
L 211.504775 394.502422 
L 212.354595 389.40973 
" style="fill:none;stroke:#000000;stroke-dasharray:5.55,2.4;stroke-dashoffset:0;stroke-width:1.5;"/>
   </g>
   <g id="line2d_27">
    <path clip-path="url(#pa11f557a2f)" d="M 201.094054 389.40973 
L 200.854361 387.973329 
L 200.161257 386.692585 
L 199.089851 385.706286 
L 197.756245 385.121313 
L 196.304957 385.001055 
L 194.893257 385.358547 
L 193.674123 386.155046 
L 192.779669 387.304241 
L 192.306821 388.681599 
L 192.306821 390.137861 
L 192.779669 391.515218 
L 193.674123 392.664413 
L 194.893257 393.460913 
L 196.304957 393.818404 
L 197.756245 393.698147 
L 199.089851 393.113173 
L 200.161257 392.126874 
L 200.854361 390.84613 
L 201.094054 389.40973 
" style="fill:none;stroke:#ff0000;stroke-linecap:square;stroke-width:1.5;"/>
   </g>
   <g id="line2d_28">
    <path clip-path="url(#pa11f557a2f)" d="M 212.354595 333.107027 
L 211.504775 328.014335 
L 209.047406 323.473516 
L 205.248783 319.976636 
L 200.520544 317.902639 
L 195.375069 317.476273 
L 190.369949 318.743741 
L 186.047566 321.567695 
L 182.876319 325.642114 
L 181.19986 330.525472 
L 181.19986 335.688582 
L 182.876319 340.57194 
L 186.047566 344.646359 
L 190.369949 347.470313 
L 195.375069 348.737781 
L 200.520544 348.311415 
L 205.248783 346.237418 
L 209.047406 342.740538 
L 211.504775 338.199719 
L 212.354595 333.107027 
" style="fill:none;stroke:#000000;stroke-dasharray:5.55,2.4;stroke-dashoffset:0;stroke-width:1.5;"/>
   </g>
   <g id="line2d_29">
    <path clip-path="url(#pa11f557a2f)" d="M 201.094054 333.107027 
L 200.854361 331.670627 
L 200.161257 330.389883 
L 199.089851 329.403584 
L 197.756245 328.81861 
L 196.304957 328.698353 
L 194.893257 329.055844 
L 193.674123 329.852344 
L 192.779669 331.001539 
L 192.306821 332.378896 
L 192.306821 333.835158 
L 192.779669 335.212515 
L 193.674123 336.361711 
L 194.893257 337.15821 
L 196.304957 337.515701 
L 197.756245 337.395444 
L 199.089851 336.810471 
L 200.161257 335.824171 
L 200.854361 334.543427 
L 201.094054 333.107027 
" style="fill:none;stroke:#ff0000;stroke-linecap:square;stroke-width:1.5;"/>
   </g>
   <g id="line2d_30">
    <path clip-path="url(#pa11f557a2f)" d="M 268.657297 389.40973 
L 267.807477 384.317038 
L 265.350109 379.776218 
L 261.551485 376.279339 
L 256.823247 374.205342 
L 251.677772 373.778975 
L 246.672652 375.046444 
L 242.350269 377.870397 
L 239.179021 381.944816 
L 237.502562 386.828175 
L 237.502562 391.991285 
L 239.179021 396.874643 
L 242.350269 400.949062 
L 246.672652 403.773016 
L 251.677772 405.040484 
L 256.823247 404.614118 
L 261.551485 402.54012 
L 265.350109 399.043241 
L 267.807477 394.502422 
L 268.657297 389.40973 
" style="fill:none;stroke:#000000;stroke-dasharray:5.55,2.4;stroke-dashoffset:0;stroke-width:1.5;"/>
   </g>
   <g id="line2d_31">
    <path clip-path="url(#pa11f557a2f)" d="M 257.396757 389.40973 
L 257.157064 387.973329 
L 256.46396 386.692585 
L 255.392553 385.706286 
L 254.058948 385.121313 
L 252.60766 385.001055 
L 251.195959 385.358547 
L 249.976826 386.155046 
L 249.082371 387.304241 
L 248.609524 388.681599 
L 248.609524 390.137861 
L 249.082371 391.515218 
L 249.976826 392.664413 
L 251.195959 393.460913 
L 252.60766 393.818404 
L 254.058948 393.698147 
L 255.392553 393.113173 
L 256.46396 392.126874 
L 257.157064 390.84613 
L 257.396757 389.40973 
" style="fill:none;stroke:#ff0000;stroke-linecap:square;stroke-width:1.5;"/>
   </g>
   <g id="line2d_32">
    <path clip-path="url(#pa11f557a2f)" d="M 268.657297 333.107027 
L 267.807477 328.014335 
L 265.350109 323.473516 
L 261.551485 319.976636 
L 256.823247 317.902639 
L 251.677772 317.476273 
L 246.672652 318.743741 
L 242.350269 321.567695 
L 239.179021 325.642114 
L 237.502562 330.525472 
L 237.502562 335.688582 
L 239.179021 340.57194 
L 242.350269 344.646359 
L 246.672652 347.470313 
L 251.677772 348.737781 
L 256.823247 348.311415 
L 261.551485 346.237418 
L 265.350109 342.740538 
L 267.807477 338.199719 
L 268.657297 333.107027 
" style="fill:none;stroke:#000000;stroke-dasharray:5.55,2.4;stroke-dashoffset:0;stroke-width:1.5;"/>
   </g>
   <g id="line2d_33">
    <path clip-path="url(#pa11f557a2f)" d="M 257.396757 333.107027 
L 257.157064 331.670627 
L 256.46396 330.389883 
L 255.392553 329.403584 
L 254.058948 328.81861 
L 252.60766 328.698353 
L 251.195959 329.055844 
L 249.976826 329.852344 
L 249.082371 331.001539 
L 248.609524 332.378896 
L 248.609524 333.835158 
L 249.082371 335.212515 
L 249.976826 336.361711 
L 251.195959 337.15821 
L 252.60766 337.515701 
L 254.058948 337.395444 
L 255.392553 336.810471 
L 256.46396 335.824171 
L 257.157064 334.543427 
L 257.396757 333.107027 
" style="fill:none;stroke:#ff0000;stroke-linecap:square;stroke-width:1.5;"/>
   </g>
   <g id="line2d_34">
    <path clip-path="url(#pa11f557a2f)" d="M 324.96 389.40973 
L 324.11018 384.317038 
L 321.652811 379.776218 
L 317.854188 376.279339 
L 313.12595 374.205342 
L 307.980474 373.778975 
L 302.975354 375.046444 
L 298.652972 377.870397 
L 295.481724 381.944816 
L 293.805265 386.828175 
L 293.805265 391.991285 
L 295.481724 396.874643 
L 298.652972 400.949062 
L 302.975354 403.773016 
L 307.980474 405.040484 
L 313.12595 404.614118 
L 317.854188 402.54012 
L 321.652811 399.043241 
L 324.11018 394.502422 
L 324.96 389.40973 
" style="fill:none;stroke:#000000;stroke-dasharray:5.55,2.4;stroke-dashoffset:0;stroke-width:1.5;"/>
   </g>
   <g id="line2d_35">
    <path clip-path="url(#pa11f557a2f)" d="M 313.699459 389.40973 
L 313.459767 387.973329 
L 312.766663 386.692585 
L 311.695256 385.706286 
L 310.36165 385.121313 
L 308.910363 385.001055 
L 307.498662 385.358547 
L 306.279528 386.155046 
L 305.385074 387.304241 
L 304.912227 388.681599 
L 304.912227 390.137861 
L 305.385074 391.515218 
L 306.279528 392.664413 
L 307.498662 393.460913 
L 308.910363 393.818404 
L 310.36165 393.698147 
L 311.695256 393.113173 
L 312.766663 392.126874 
L 313.459767 390.84613 
L 313.699459 389.40973 
" style="fill:none;stroke:#ff0000;stroke-linecap:square;stroke-width:1.5;"/>
   </g>
   <g id="line2d_36">
    <path clip-path="url(#pa11f557a2f)" d="M 324.96 333.107027 
L 324.11018 328.014335 
L 321.652811 323.473516 
L 317.854188 319.976636 
L 313.12595 317.902639 
L 307.980474 317.476273 
L 302.975354 318.743741 
L 298.652972 321.567695 
L 295.481724 325.642114 
L 293.805265 330.525472 
L 293.805265 335.688582 
L 295.481724 340.57194 
L 298.652972 344.646359 
L 302.975354 347.470313 
L 307.980474 348.737781 
L 313.12595 348.311415 
L 317.854188 346.237418 
L 321.652811 342.740538 
L 324.11018 338.199719 
L 324.96 333.107027 
" style="fill:none;stroke:#000000;stroke-dasharray:5.55,2.4;stroke-dashoffset:0;stroke-width:1.5;"/>
   </g>
   <g id="line2d_37">
    <path clip-path="url(#pa11f557a2f)" d="M 313.699459 333.107027 
L 313.459767 331.670627 
L 312.766663 330.389883 
L 311.695256 329.403584 
L 310.36165 328.81861 
L 308.910363 328.698353 
L 307.498662 329.055844 
L 306.279528 329.852344 
L 305.385074 331.001539 
L 304.912227 332.378896 
L 304.912227 333.835158 
L 305.385074 335.212515 
L 306.279528 336.361711 
L 307.498662 337.15821 
L 308.910363 337.515701 
L 310.36165 337.395444 
L 311.695256 336.810471 
L 312.766663 335.824171 
L 313.459767 334.543427 
L 313.699459 333.107027 
" style="fill:none;stroke:#ff0000;stroke-linecap:square;stroke-width:1.5;"/>
   </g>
   <g id="line2d_38">
    <path clip-path="url(#pa11f557a2f)" d="M 381.262703 389.40973 
L 380.412883 384.317038 
L 377.955514 379.776218 
L 374.156891 376.279339 
L 369.428652 374.205342 
L 364.283177 373.778975 
L 359.278057 375.046444 
L 354.955675 377.870397 
L 351.784427 381.944816 
L 350.107968 386.828175 
L 350.107968 391.991285 
L 351.784427 396.874643 
L 354.955675 400.949062 
L 359.278057 403.773016 
L 364.283177 405.040484 
L 369.428652 404.614118 
L 374.156891 402.54012 
L 377.955514 399.043241 
L 380.412883 394.502422 
L 381.262703 389.40973 
" style="fill:none;stroke:#000000;stroke-dasharray:5.55,2.4;stroke-dashoffset:0;stroke-width:1.5;"/>
   </g>
   <g id="line2d_39">
    <path clip-path="url(#pa11f557a2f)" d="M 370.002162 389.40973 
L 369.762469 387.973329 
L 369.069365 386.692585 
L 367.997959 385.706286 
L 366.664353 385.121313 
L 365.213065 385.001055 
L 363.801365 385.358547 
L 362.582231 386.155046 
L 361.687777 387.304241 
L 361.214929 388.681599 
L 361.214929 390.137861 
L 361.687777 391.515218 
L 362.582231 392.664413 
L 363.801365 393.460913 
L 365.213065 393.818404 
L 366.664353 393.698147 
L 367.997959 393.113173 
L 369.069365 392.126874 
L 369.762469 390.84613 
L 370.002162 389.40973 
" style="fill:none;stroke:#ff0000;stroke-linecap:square;stroke-width:1.5;"/>
   </g>
   <g id="line2d_40">
    <path clip-path="url(#pa11f557a2f)" d="M 381.262703 333.107027 
L 380.412883 328.014335 
L 377.955514 323.473516 
L 374.156891 319.976636 
L 369.428652 317.902639 
L 364.283177 317.476273 
L 359.278057 318.743741 
L 354.955675 321.567695 
L 351.784427 325.642114 
L 350.107968 330.525472 
L 350.107968 335.688582 
L 351.784427 340.57194 
L 354.955675 344.646359 
L 359.278057 347.470313 
L 364.283177 348.737781 
L 369.428652 348.311415 
L 374.156891 346.237418 
L 377.955514 342.740538 
L 380.412883 338.199719 
L 381.262703 333.107027 
" style="fill:none;stroke:#000000;stroke-dasharray:5.55,2.4;stroke-dashoffset:0;stroke-width:1.5;"/>
   </g>
   <g id="line2d_41">
    <path clip-path="url(#pa11f557a2f)" d="M 370.002162 333.107027 
L 369.762469 331.670627 
L 369.069365 330.389883 
L 367.997959 329.403584 
L 366.664353 328.81861 
L 365.213065 328.698353 
L 363.801365 329.055844 
L 362.582231 329.852344 
L 361.687777 331.001539 
L 361.214929 332.378896 
L 361.214929 333.835158 
L 361.687777 335.212515 
L 362.582231 336.361711 
L 363.801365 337.15821 
L 365.213065 337.515701 
L 366.664353 337.395444 
L 367.997959 336.810471 
L 369.069365 335.824171 
L 369.762469 334.543427 
L 370.002162 333.107027 
" style="fill:none;stroke:#ff0000;stroke-linecap:square;stroke-width:1.5;"/>
   </g>
   <g id="line2d_42">
    <path clip-path="url(#pa11f557a2f)" d="M 437.565405 389.40973 
L 436.715585 384.317038 
L 434.258217 379.776218 
L 430.459593 376.279339 
L 425.731355 374.205342 
L 420.58588 373.778975 
L 415.58076 375.046444 
L 411.258377 377.870397 
L 408.08713 381.944816 
L 406.41067 386.828175 
L 406.41067 391.991285 
L 408.08713 396.874643 
L 411.258377 400.949062 
L 415.58076 403.773016 
L 420.58588 405.040484 
L 425.731355 404.614118 
L 430.459593 402.54012 
L 434.258217 399.043241 
L 436.715585 394.502422 
L 437.565405 389.40973 
" style="fill:none;stroke:#000000;stroke-dasharray:5.55,2.4;stroke-dashoffset:0;stroke-width:1.5;"/>
   </g>
   <g id="line2d_43">
    <path clip-path="url(#pa11f557a2f)" d="M 426.304865 389.40973 
L 426.065172 387.973329 
L 425.372068 386.692585 
L 424.300661 385.706286 
L 422.967056 385.121313 
L 421.515768 385.001055 
L 420.104067 385.358547 
L 418.884934 386.155046 
L 417.990479 387.304241 
L 417.517632 388.681599 
L 417.517632 390.137861 
L 417.990479 391.515218 
L 418.884934 392.664413 
L 420.104067 393.460913 
L 421.515768 393.818404 
L 422.967056 393.698147 
L 424.300661 393.113173 
L 425.372068 392.126874 
L 426.065172 390.84613 
L 426.304865 389.40973 
" style="fill:none;stroke:#ff0000;stroke-linecap:square;stroke-width:1.5;"/>
   </g>
   <g id="line2d_44">
    <path clip-path="url(#pa11f557a2f)" d="M 437.565405 333.107027 
L 436.715585 328.014335 
L 434.258217 323.473516 
L 430.459593 319.976636 
L 425.731355 317.902639 
L 420.58588 317.476273 
L 415.58076 318.743741 
L 411.258377 321.567695 
L 408.08713 325.642114 
L 406.41067 330.525472 
L 406.41067 335.688582 
L 408.08713 340.57194 
L 411.258377 344.646359 
L 415.58076 347.470313 
L 420.58588 348.737781 
L 425.731355 348.311415 
L 430.459593 346.237418 
L 434.258217 342.740538 
L 436.715585 338.199719 
L 437.565405 333.107027 
" style="fill:none;stroke:#000000;stroke-dasharray:5.55,2.4;stroke-dashoffset:0;stroke-width:1.5;"/>
   </g>
   <g id="line2d_45">
    <path clip-path="url(#pa11f557a2f)" d="M 426.304865 333.107027 
L 426.065172 331.670627 
L 425.372068 330.389883 
L 424.300661 329.403584 
L 422.967056 328.81861 
L 421.515768 328.698353 
L 420.104067 329.055844 
L 418.884934 329.852344 
L 417.990479 331.001539 
L 417.517632 332.378896 
L 417.517632 333.835158 
L 417.990479 335.212515 
L 418.884934 336.361711 
L 420.104067 337.15821 
L 421.515768 337.515701 
L 422.967056 337.395444 
L 424.300661 336.810471 
L 425.372068 335.824171 
L 426.065172 334.543427 
L 426.304865 333.107027 
" style="fill:none;stroke:#ff0000;stroke-linecap:square;stroke-width:1.5;"/>
   </g>
   <g id="line2d_46">
    <path clip-path="url(#pa11f557a2f)" d="M 212.354595 220.501622 
L 211.504775 215.40893 
L 209.047406 210.86811 
L 205.248783 207.371231 
L 200.520544 205.297233 
L 195.375069 204.870867 
L 190.369949 206.138336 
L 186.047566 208.962289 
L 182.876319 213.036708 
L 181.19986 217.920067 
L 181.19986 223.083177 
L 182.876319 227.966535 
L 186.047566 232.040954 
L 190.369949 234.864907 
L 195.375069 236.132376 
L 200.520544 235.70601 
L 205.248783 233.632012 
L 209.047406 230.135133 
L 211.504775 225.594313 
L 212.354595 220.501622 
" style="fill:none;stroke:#000000;stroke-dasharray:5.55,2.4;stroke-dashoffset:0;stroke-width:1.5;"/>
   </g>
   <g id="line2d_47">
    <path clip-path="url(#pa11f557a2f)" d="M 201.094054 220.501622 
L 200.854361 219.065221 
L 200.161257 217.784477 
L 199.089851 216.798178 
L 197.756245 216.213204 
L 196.304957 216.092947 
L 194.893257 216.450438 
L 193.674123 217.246938 
L 192.779669 218.396133 
L 192.306821 219.773491 
L 192.306821 221.229753 
L 192.779669 222.60711 
L 193.674123 223.756305 
L 194.893257 224.552805 
L 196.304957 224.910296 
L 197.756245 224.790039 
L 199.089851 224.205065 
L 200.161257 223.218766 
L 200.854361 221.938022 
L 201.094054 220.501622 
" style="fill:none;stroke:#ff0000;stroke-linecap:square;stroke-width:1.5;"/>
   </g>
   <g id="line2d_48">
    <path clip-path="url(#pa11f557a2f)" d="M 212.354595 164.198919 
L 211.504775 159.106227 
L 209.047406 154.565408 
L 205.248783 151.068528 
L 200.520544 148.994531 
L 195.375069 148.568165 
L 190.369949 149.835633 
L 186.047566 152.659586 
L 182.876319 156.734006 
L 181.19986 161.617364 
L 181.19986 166.780474 
L 182.876319 171.663832 
L 186.047566 175.738251 
L 190.369949 178.562205 
L 195.375069 179.829673 
L 200.520544 179.403307 
L 205.248783 177.329309 
L 209.047406 173.83243 
L 211.504775 169.291611 
L 212.354595 164.198919 
" style="fill:none;stroke:#000000;stroke-dasharray:5.55,2.4;stroke-dashoffset:0;stroke-width:1.5;"/>
   </g>
   <g id="line2d_49">
    <path clip-path="url(#pa11f557a2f)" d="M 201.094054 164.198919 
L 200.854361 162.762519 
L 200.161257 161.481775 
L 199.089851 160.495475 
L 197.756245 159.910502 
L 196.304957 159.790245 
L 194.893257 160.147736 
L 193.674123 160.944235 
L 192.779669 162.093431 
L 192.306821 163.470788 
L 192.306821 164.92705 
L 192.779669 166.304407 
L 193.674123 167.453602 
L 194.893257 168.250102 
L 196.304957 168.607593 
L 197.756245 168.487336 
L 199.089851 167.902362 
L 200.161257 166.916063 
L 200.854361 165.635319 
L 201.094054 164.198919 
" style="fill:none;stroke:#ff0000;stroke-linecap:square;stroke-width:1.5;"/>
   </g>
   <g id="line2d_50">
    <path clip-path="url(#pa11f557a2f)" d="M 268.657297 220.501622 
L 267.807477 215.40893 
L 265.350109 210.86811 
L 261.551485 207.371231 
L 256.823247 205.297233 
L 251.677772 204.870867 
L 246.672652 206.138336 
L 242.350269 208.962289 
L 239.179021 213.036708 
L 237.502562 217.920067 
L 237.502562 223.083177 
L 239.179021 227.966535 
L 242.350269 232.040954 
L 246.672652 234.864907 
L 251.677772 236.132376 
L 256.823247 235.70601 
L 261.551485 233.632012 
L 265.350109 230.135133 
L 267.807477 225.594313 
L 268.657297 220.501622 
" style="fill:none;stroke:#000000;stroke-dasharray:5.55,2.4;stroke-dashoffset:0;stroke-width:1.5;"/>
   </g>
   <g id="line2d_51">
    <path clip-path="url(#pa11f557a2f)" d="M 257.396757 220.501622 
L 257.157064 219.065221 
L 256.46396 217.784477 
L 255.392553 216.798178 
L 254.058948 216.213204 
L 252.60766 216.092947 
L 251.195959 216.450438 
L 249.976826 217.246938 
L 249.082371 218.396133 
L 248.609524 219.773491 
L 248.609524 221.229753 
L 249.082371 222.60711 
L 249.976826 223.756305 
L 251.195959 224.552805 
L 252.60766 224.910296 
L 254.058948 224.790039 
L 255.392553 224.205065 
L 256.46396 223.218766 
L 257.157064 221.938022 
L 257.396757 220.501622 
" style="fill:none;stroke:#ff0000;stroke-linecap:square;stroke-width:1.5;"/>
   </g>
   <g id="line2d_52">
    <path clip-path="url(#pa11f557a2f)" d="M 268.657297 164.198919 
L 267.807477 159.106227 
L 265.350109 154.565408 
L 261.551485 151.068528 
L 256.823247 148.994531 
L 251.677772 148.568165 
L 246.672652 149.835633 
L 242.350269 152.659586 
L 239.179021 156.734006 
L 237.502562 161.617364 
L 237.502562 166.780474 
L 239.179021 171.663832 
L 242.350269 175.738251 
L 246.672652 178.562205 
L 251.677772 179.829673 
L 256.823247 179.403307 
L 261.551485 177.329309 
L 265.350109 173.83243 
L 267.807477 169.291611 
L 268.657297 164.198919 
" style="fill:none;stroke:#000000;stroke-dasharray:5.55,2.4;stroke-dashoffset:0;stroke-width:1.5;"/>
   </g>
   <g id="line2d_53">
    <path clip-path="url(#pa11f557a2f)" d="M 257.396757 164.198919 
L 257.157064 162.762519 
L 256.46396 161.481775 
L 255.392553 160.495475 
L 254.058948 159.910502 
L 252.60766 159.790245 
L 251.195959 160.147736 
L 249.976826 160.944235 
L 249.082371 162.093431 
L 248.609524 163.470788 
L 248.609524 164.92705 
L 249.082371 166.304407 
L 249.976826 167.453602 
L 251.195959 168.250102 
L 252.60766 168.607593 
L 254.058948 168.487336 
L 255.392553 167.902362 
L 256.46396 166.916063 
L 257.157064 165.635319 
L 257.396757 164.198919 
" style="fill:none;stroke:#ff0000;stroke-linecap:square;stroke-width:1.5;"/>
   </g>
   <g id="line2d_54">
    <path clip-path="url(#pa11f557a2f)" d="M 324.96 220.501622 
L 324.11018 215.40893 
L 321.652811 210.86811 
L 317.854188 207.371231 
L 313.12595 205.297233 
L 307.980474 204.870867 
L 302.975354 206.138336 
L 298.652972 208.962289 
L 295.481724 213.036708 
L 293.805265 217.920067 
L 293.805265 223.083177 
L 295.481724 227.966535 
L 298.652972 232.040954 
L 302.975354 234.864907 
L 307.980474 236.132376 
L 313.12595 235.70601 
L 317.854188 233.632012 
L 321.652811 230.135133 
L 324.11018 225.594313 
L 324.96 220.501622 
" style="fill:none;stroke:#000000;stroke-dasharray:5.55,2.4;stroke-dashoffset:0;stroke-width:1.5;"/>
   </g>
   <g id="line2d_55">
    <path clip-path="url(#pa11f557a2f)" d="M 313.699459 220.501622 
L 313.459767 219.065221 
L 312.766663 217.784477 
L 311.695256 216.798178 
L 310.36165 216.213204 
L 308.910363 216.092947 
L 307.498662 216.450438 
L 306.279528 217.246938 
L 305.385074 218.396133 
L 304.912227 219.773491 
L 304.912227 221.229753 
L 305.385074 222.60711 
L 306.279528 223.756305 
L 307.498662 224.552805 
L 308.910363 224.910296 
L 310.36165 224.790039 
L 311.695256 224.205065 
L 312.766663 223.218766 
L 313.459767 221.938022 
L 313.699459 220.501622 
" style="fill:none;stroke:#ff0000;stroke-linecap:square;stroke-width:1.5;"/>
   </g>
   <g id="line2d_56">
    <path clip-path="url(#pa11f557a2f)" d="M 324.96 164.198919 
L 324.11018 159.106227 
L 321.652811 154.565408 
L 317.854188 151.068528 
L 313.12595 148.994531 
L 307.980474 148.568165 
L 302.975354 149.835633 
L 298.652972 152.659586 
L 295.481724 156.734006 
L 293.805265 161.617364 
L 293.805265 166.780474 
L 295.481724 171.663832 
L 298.652972 175.738251 
L 302.975354 178.562205 
L 307.980474 179.829673 
L 313.12595 179.403307 
L 317.854188 177.329309 
L 321.652811 173.83243 
L 324.11018 169.291611 
L 324.96 164.198919 
" style="fill:none;stroke:#000000;stroke-dasharray:5.55,2.4;stroke-dashoffset:0;stroke-width:1.5;"/>
   </g>
   <g id="line2d_57">
    <path clip-path="url(#pa11f557a2f)" d="M 313.699459 164.198919 
L 313.459767 162.762519 
L 312.766663 161.481775 
L 311.695256 160.495475 
L 310.36165 159.910502 
L 308.910363 159.790245 
L 307.498662 160.147736 
L 306.279528 160.944235 
L 305.385074 162.093431 
L 304.912227 163.470788 
L 304.912227 164.92705 
L 305.385074 166.304407 
L 306.279528 167.453602 
L 307.498662 168.250102 
L 308.910363 168.607593 
L 310.36165 168.487336 
L 311.695256 167.902362 
L 312.766663 166.916063 
L 313.459767 165.635319 
L 313.699459 164.198919 
" style="fill:none;stroke:#ff0000;stroke-linecap:square;stroke-width:1.5;"/>
   </g>
   <g id="line2d_58">
    <path clip-path="url(#pa11f557a2f)" d="M 381.262703 220.501622 
L 380.412883 215.40893 
L 377.955514 210.86811 
L 374.156891 207.371231 
L 369.428652 205.297233 
L 364.283177 204.870867 
L 359.278057 206.138336 
L 354.955675 208.962289 
L 351.784427 213.036708 
L 350.107968 217.920067 
L 350.107968 223.083177 
L 351.784427 227.966535 
L 354.955675 232.040954 
L 359.278057 234.864907 
L 364.283177 236.132376 
L 369.428652 235.70601 
L 374.156891 233.632012 
L 377.955514 230.135133 
L 380.412883 225.594313 
L 381.262703 220.501622 
" style="fill:none;stroke:#000000;stroke-dasharray:5.55,2.4;stroke-dashoffset:0;stroke-width:1.5;"/>
   </g>
   <g id="line2d_59">
    <path clip-path="url(#pa11f557a2f)" d="M 370.002162 220.501622 
L 369.762469 219.065221 
L 369.069365 217.784477 
L 367.997959 216.798178 
L 366.664353 216.213204 
L 365.213065 216.092947 
L 363.801365 216.450438 
L 362.582231 217.246938 
L 361.687777 218.396133 
L 361.214929 219.773491 
L 361.214929 221.229753 
L 361.687777 222.60711 
L 362.582231 223.756305 
L 363.801365 224.552805 
L 365.213065 224.910296 
L 366.664353 224.790039 
L 367.997959 224.205065 
L 369.069365 223.218766 
L 369.762469 221.938022 
L 370.002162 220.501622 
" style="fill:none;stroke:#ff0000;stroke-linecap:square;stroke-width:1.5;"/>
   </g>
   <g id="line2d_60">
    <path clip-path="url(#pa11f557a2f)" d="M 381.262703 164.198919 
L 380.412883 159.106227 
L 377.955514 154.565408 
L 374.156891 151.068528 
L 369.428652 148.994531 
L 364.283177 148.568165 
L 359.278057 149.835633 
L 354.955675 152.659586 
L 351.784427 156.734006 
L 350.107968 161.617364 
L 350.107968 166.780474 
L 351.784427 171.663832 
L 354.955675 175.738251 
L 359.278057 178.562205 
L 364.283177 179.829673 
L 369.428652 179.403307 
L 374.156891 177.329309 
L 377.955514 173.83243 
L 380.412883 169.291611 
L 381.262703 164.198919 
" style="fill:none;stroke:#000000;stroke-dasharray:5.55,2.4;stroke-dashoffset:0;stroke-width:1.5;"/>
   </g>
   <g id="line2d_61">
    <path clip-path="url(#pa11f557a2f)" d="M 370.002162 164.198919 
L 369.762469 162.762519 
L 369.069365 161.481775 
L 367.997959 160.495475 
L 366.664353 159.910502 
L 365.213065 159.790245 
L 363.801365 160.147736 
L 362.582231 160.944235 
L 361.687777 162.093431 
L 361.214929 163.470788 
L 361.214929 164.92705 
L 361.687777 166.304407 
L 362.582231 167.453602 
L 363.801365 168.250102 
L 365.213065 168.607593 
L 366.664353 168.487336 
L 367.997959 167.902362 
L 369.069365 166.916063 
L 369.762469 165.635319 
L 370.002162 164.198919 
" style="fill:none;stroke:#ff0000;stroke-linecap:square;stroke-width:1.5;"/>
   </g>
   <g id="line2d_62">
    <path clip-path="url(#pa11f557a2f)" d="M 437.565405 220.501622 
L 436.715585 215.40893 
L 434.258217 210.86811 
L 430.459593 207.371231 
L 425.731355 205.297233 
L 420.58588 204.870867 
L 415.58076 206.138336 
L 411.258377 208.962289 
L 408.08713 213.036708 
L 406.41067 217.920067 
L 406.41067 223.083177 
L 408.08713 227.966535 
L 411.258377 232.040954 
L 415.58076 234.864907 
L 420.58588 236.132376 
L 425.731355 235.70601 
L 430.459593 233.632012 
L 434.258217 230.135133 
L 436.715585 225.594313 
L 437.565405 220.501622 
" style="fill:none;stroke:#000000;stroke-dasharray:5.55,2.4;stroke-dashoffset:0;stroke-width:1.5;"/>
   </g>
   <g id="line2d_63">
    <path clip-path="url(#pa11f557a2f)" d="M 426.304865 220.501622 
L 426.065172 219.065221 
L 425.372068 217.784477 
L 424.300661 216.798178 
L 422.967056 216.213204 
L 421.515768 216.092947 
L 420.104067 216.450438 
L 418.884934 217.246938 
L 417.990479 218.396133 
L 417.517632 219.773491 
L 417.517632 221.229753 
L 417.990479 222.60711 
L 418.884934 223.756305 
L 420.104067 224.552805 
L 421.515768 224.910296 
L 422.967056 224.790039 
L 424.300661 224.205065 
L 425.372068 223.218766 
L 426.065172 221.938022 
L 426.304865 220.501622 
" style="fill:none;stroke:#ff0000;stroke-linecap:square;stroke-width:1.5;"/>
   </g>
   <g id="line2d_64">
    <path clip-path="url(#pa11f557a2f)" d="M 437.565405 164.198919 
L 436.715585 159.106227 
L 434.258217 154.565408 
L 430.459593 151.068528 
L 425.731355 148.994531 
L 420.58588 148.568165 
L 415.58076 149.835633 
L 411.258377 152.659586 
L 408.08713 156.734006 
L 406.41067 161.617364 
L 406.41067 166.780474 
L 408.08713 171.663832 
L 411.258377 175.738251 
L 415.58076 178.562205 
L 420.58588 179.829673 
L 425.731355 179.403307 
L 430.459593 177.329309 
L 434.258217 173.83243 
L 436.715585 169.291611 
L 437.565405 164.198919 
" style="fill:none;stroke:#000000;stroke-dasharray:5.55,2.4;stroke-dashoffset:0;stroke-width:1.5;"/>
   </g>
   <g id="line2d_65">
    <path clip-path="url(#pa11f557a2f)" d="M 426.304865 164.198919 
L 426.065172 162.762519 
L 425.372068 161.481775 
L 424.300661 160.495475 
L 422.967056 159.910502 
L 421.515768 159.790245 
L 420.104067 160.147736 
L 418.884934 160.944235 
L 417.990479 162.093431 
L 417.517632 163.470788 
L 417.517632 164.92705 
L 417.990479 166.304407 
L 418.884934 167.453602 
L 420.104067 168.250102 
L 421.515768 168.607593 
L 422.967056 168.487336 
L 424.300661 167.902362 
L 425.372068 166.916063 
L 426.065172 165.635319 
L 426.304865 164.198919 
" style="fill:none;stroke:#ff0000;stroke-linecap:square;stroke-width:1.5;"/>
   </g>
   <g id="line2d_66">
    <path clip-path="url(#pa11f557a2f)" d="M 92.108108 493.971892 
L 92.108108 87.788108 
" style="fill:none;stroke:#000000;stroke-linecap:square;stroke-width:4;"/>
   </g>
   <g id="line2d_67">
    <path clip-path="url(#pa11f557a2f)" d="M 92.108108 87.788108 
L 498.291892 87.788108 
" style="fill:none;stroke:#000000;stroke-linecap:square;stroke-width:4;"/>
   </g>
   <g id="line2d_68">
    <path clip-path="url(#pa11f557a2f)" d="M 498.291892 87.788108 
L 498.291892 493.971892 
" style="fill:none;stroke:#000000;stroke-linecap:square;stroke-width:4;"/>
   </g>
   <g id="line2d_69">
    <path clip-path="url(#pa11f557a2f)" d="M 498.291892 493.971892 
L 92.108108 493.971892 
" style="fill:none;stroke:#000000;stroke-linecap:square;stroke-width:4;"/>
   </g>
   <g id="line2d_70">
    <path clip-path="url(#pa11f557a2f)" d="M 140.367568 389.40973 
L 141.252324 389.369514 
L 142.056649 389.289081 
L 143.544649 388.927135 
L 144.670703 388.404324 
L 146.319568 387.238054 
L 156.172541 379.395892 
L 171.575351 367.290811 
L 177.446919 362.62573 
L 179.779459 360.816 
L 183.036973 358.242162 
L 184.645622 357.276973 
L 185.691243 356.834595 
L 188.144432 356.311784 
L 190.476973 355.909622 
L 199.525622 353.577081 
L 204.029838 351.928216 
L 206.483027 350.842378 
L 209.499243 349.193514 
L 211.711135 347.705514 
L 214.807784 345.212108 
L 217.421838 342.598054 
L 219.834811 339.742703 
L 222.810811 336.042811 
L 223.776 335.077622 
L 224.580324 334.072216 
L 228.079135 327.557189 
L 230.331243 324.219243 
L 232.744216 320.96173 
L 236.886486 316.377081 
L 238.857081 314.527135 
L 242.436324 311.631568 
L 247.825297 307.609946 
L 249.876324 305.880649 
L 260.372757 297.515676 
L 262.383568 295.866811 
L 263.670486 294.499459 
L 264.112865 293.815784 
L 264.555243 292.569081 
L 264.756324 291.603892 
L 264.796541 290.316973 
L 264.595459 288.989838 
L 264.354162 288.145297 
L 263.710703 286.858378 
L 262.946595 285.812757 
L 261.257514 284.123676 
L 260.412973 283.037838 
L 259.890162 281.952 
L 259.608649 280.665081 
L 259.648865 276.723892 
L 259.528216 276.120649 
L 258.764108 274.471784 
L 257.155459 271.495784 
L 256.753297 270.168649 
L 256.552216 268.761081 
L 256.592432 267.39373 
L 256.793514 266.267676 
L 257.235892 264.940541 
L 257.919568 263.734054 
L 260.211892 260.677622 
L 261.016216 258.626595 
L 261.337946 257.540757 
L 261.860757 256.294054 
L 263.549838 253.438703 
L 265.078054 250.181189 
L 266.646486 248.250811 
L 267.611676 247.325838 
L 269.501838 246.038919 
L 270.467027 245.435676 
L 271.512649 244.550919 
L 272.397405 243.58573 
L 273.764757 241.574919 
L 275.654919 239.604324 
L 277.384216 237.754378 
L 279.234162 235.783784 
L 283.094919 232.405622 
L 284.261189 231.641514 
L 285.266595 231.199135 
L 286.633946 230.796973 
L 293.028324 229.912216 
L 294.435892 229.872 
L 295.883676 230.073081 
L 297.251027 230.435027 
L 298.819459 231.279568 
L 299.261838 231.68173 
L 299.744432 232.284973 
L 300.186811 233.16973 
L 301.47373 236.668541 
L 302.197622 237.714162 
L 303.082378 238.639135 
L 303.886703 239.242378 
L 304.771459 239.765189 
L 305.977946 240.247784 
L 306.943135 240.489081 
L 307.988757 240.569514 
L 310.522378 240.328216 
L 315.71027 239.242378 
L 318.243892 238.438054 
L 320.697081 237.432649 
L 323.069838 236.266378 
L 326.206703 234.295784 
L 329.544649 231.68173 
L 332.560865 228.947027 
L 333.686919 228.142703 
L 337.990054 225.528649 
L 338.915027 224.643892 
L 339.679135 223.59827 
L 341.529081 220.300541 
L 343.580108 217.163676 
L 349.08973 209.844324 
L 351.663568 207.109622 
L 352.668973 206.144432 
L 355.644973 203.811892 
L 357.937297 202.364108 
L 360.108973 201.238054 
L 363.648 199.870703 
L 365.980541 199.227243 
L 368.313081 198.624 
L 374.707459 196.532757 
L 377.603027 195.849081 
L 392.523243 192.591568 
L 392.523243 192.591568 
" style="fill:none;stroke:#8000ff;stroke-linecap:square;stroke-width:1.5;"/>
   </g>
   <g id="line2d_71">
    <path clip-path="url(#pa11f557a2f)" d="M 450.032432 192.35027 
L 450.27373 192.430703 
L 450.434595 192.712216 
L 450.595459 193.596973 
L 450.595459 194.240432 
L 450.434595 195.286054 
L 450.153081 196.251243 
L 449.710703 197.296865 
L 449.107459 198.221838 
L 448.222703 199.307676 
L 446.332541 200.835892 
L 443.67827 202.685838 
L 442.351135 203.329297 
L 441.305514 203.651027 
L 439.897946 203.892324 
L 437.123027 203.811892 
L 430.688432 203.490162 
L 427.229838 203.128216 
L 424.857081 202.846703 
L 421.921297 202.726054 
L 419.02573 202.846703 
L 416.411676 203.248865 
L 413.837838 203.932541 
L 411.625946 204.777081 
L 409.253189 205.983568 
L 407.001081 207.350919 
L 404.105514 209.683459 
L 402.376216 211.292108 
L 400.566486 213.262703 
L 398.274162 216.198486 
L 395.861189 219.496216 
L 394.855784 220.662486 
L 393.528649 222.793946 
L 392.201514 225.166703 
L 389.346162 229.429622 
L 387.737514 231.561081 
L 385.324541 234.496865 
L 383.514811 236.467459 
L 380.981189 238.920649 
L 378.125838 241.333622 
L 375.029189 243.907459 
L 372.978162 245.636757 
L 363.728432 252.996324 
L 357.937297 257.339676 
L 347.119135 265.463351 
L 346.274595 266.428541 
L 345.631135 267.554595 
L 345.188757 268.720865 
L 344.987676 269.72627 
L 344.947459 271.133838 
L 344.947459 271.093622 
L 346.274595 272.179459 
L 347.440865 272.742486 
L 348.647351 273.144649 
L 349.652757 273.265297 
L 350.939676 273.305514 
L 352.226595 273.104432 
L 353.191784 272.782703 
L 355.403676 271.696865 
L 356.730811 271.21427 
L 359.184 270.972973 
L 360.631784 271.174054 
L 360.913297 271.254486 
L 362.039351 271.978378 
L 363.004541 273.064216 
L 363.165405 273.747892 
L 363.165405 274.471784 
L 363.004541 275.477189 
L 362.602378 276.603243 
L 362.119784 277.568432 
L 361.476324 278.493405 
L 360.712216 279.337946 
L 359.867676 280.061838 
L 357.615568 281.509622 
L 353.392865 284.244324 
L 352.668973 284.968216 
L 352.06573 285.812757 
L 351.462486 286.938811 
L 351.060324 288.145297 
L 350.778811 289.392 
L 350.215784 293.494054 
L 348.808216 298.400432 
L 347.400649 302.220973 
L 346.355027 304.674162 
L 345.309405 306.886054 
L 343.700757 309.982703 
L 341.609514 313.240216 
L 340.041081 315.371676 
L 338.67373 317.503135 
L 337.909622 318.468324 
L 336.904216 319.393297 
L 335.737946 320.197622 
L 334.491243 320.760649 
L 333.123892 321.122595 
L 329.263135 321.725838 
L 326.689297 322.530162 
L 325.321946 322.771459 
L 323.914378 322.771459 
L 322.506811 322.570378 
L 321.219892 322.128 
L 320.214486 321.605189 
L 317.158054 319.634595 
L 315.951568 318.83027 
L 314.302703 317.060757 
L 312.73427 315.572757 
L 311.849514 315.049946 
L 310.683243 314.527135 
L 309.436541 314.245622 
L 308.149622 314.165189 
L 306.862703 314.245622 
L 302.599784 315.049946 
L 300.066162 315.814054 
L 297.612973 316.779243 
L 295.722811 317.704216 
L 292.344649 319.795459 
L 289.207784 322.248649 
L 285.869838 325.063784 
L 283.818811 326.350703 
L 281.727568 327.516973 
L 280.681946 328.240865 
L 279.756973 329.125622 
L 279.033081 330.131027 
L 276.298378 334.836324 
L 273.483243 338.777514 
L 270.386595 342.799135 
L 267.852973 345.654486 
L 266.284541 347.142486 
L 264.434595 348.751135 
L 262.705297 349.997838 
L 260.614054 351.284757 
L 258.201081 352.531459 
L 255.667459 353.496649 
L 253.093622 354.300973 
L 249.514378 355.145514 
L 242.034162 357.437838 
L 229.205189 360.293189 
L 226.591135 360.856216 
L 226.591135 360.856216 
" style="fill:none;stroke:#1996f3;stroke-linecap:square;stroke-width:1.5;"/>
   </g>
   <g id="line2d_72">
    <path clip-path="url(#pa11f557a2f)" d="M 402.175135 440.082162 
L 401.933838 440.162595 
L 402.01427 440.082162 
L 402.376216 439.559351 
L 402.738162 438.553946 
L 402.818595 436.864865 
L 402.65773 435.618162 
L 402.336 434.612757 
L 401.370811 432.803027 
L 400.003459 430.832432 
L 397.148108 426.931459 
L 384.962595 410.322162 
L 384.399568 409.397189 
L 383.836541 408.11027 
L 383.514811 406.742919 
L 383.394162 404.209297 
L 383.474595 395.924757 
L 383.595243 388.163027 
L 383.273514 385.548973 
L 382.750703 382.975135 
L 381.946378 380.441514 
L 380.377946 377.063351 
L 379.010595 374.811243 
L 377.442162 372.679784 
L 374.747676 369.784216 
L 372.777081 367.974486 
L 370.042378 365.843027 
L 366.865297 363.550703 
L 366.060973 362.786595 
L 365.176216 361.781189 
L 364.412108 361.097514 
L 362.642595 360.011676 
L 359.143784 357.960649 
L 356.931892 356.432432 
L 353.674378 354.019459 
L 351.623351 352.290162 
L 349.652757 350.480432 
L 346.998486 347.74573 
L 344.585514 344.850162 
L 341.488865 340.788324 
L 338.915027 337.651459 
L 338.191135 336.646054 
L 337.547676 335.399351 
L 335.335784 329.286486 
L 333.244541 324.983351 
L 332.72173 324.138811 
L 331.917405 323.133405 
L 330.912 322.329081 
L 327.574054 320.278054 
L 324.799135 317.784649 
L 323.713297 317.020541 
L 322.788324 316.578162 
L 321.541622 316.216216 
L 320.294919 316.015135 
L 319.008 316.055351 
L 312.814703 317.382486 
L 310.803892 318.428108 
L 310.200649 318.347676 
L 309.074595 318.066162 
L 307.787676 317.543351 
L 306.621405 316.779243 
L 305.575784 315.85427 
L 304.892108 315.00973 
L 303.444324 312.797838 
L 301.916108 310.988108 
L 300.106378 308.937081 
L 299.503135 308.012108 
L 298.457514 305.961081 
L 297.693405 304.955676 
L 296.768432 304.030703 
L 295.119568 302.944865 
L 294.797838 302.944865 
L 294.154378 303.226378 
L 293.309838 303.749189 
L 292.505514 304.392649 
L 291.620757 305.317622 
L 290.534919 307.046919 
L 289.811027 308.253405 
L 288.886054 309.299027 
L 287.800216 310.183784 
L 286.59373 310.907676 
L 282.652541 312.435892 
L 280.199351 313.602162 
L 278.791784 314.044541 
L 277.424432 314.245622 
L 276.016865 314.205405 
L 274.368 313.883676 
L 273.322378 313.481514 
L 272.357189 312.918486 
L 271.231135 312.073946 
L 270.467027 311.269622 
L 269.099676 309.218595 
L 267.893189 307.046919 
L 263.871568 301.738378 
L 261.659676 298.360216 
L 259.648865 294.821189 
L 258 291.443027 
L 255.144649 284.686703 
L 254.420757 283.560649 
L 251.002378 279.699892 
L 249.554595 277.407568 
L 245.050378 269.806703 
L 240.827676 261.683027 
L 237.972324 254.685405 
L 236.806054 251.106162 
L 235.68 247.245405 
L 234.634378 243.424865 
L 234.071351 242.258595 
L 232.744216 239.926054 
L 231.618162 237.432649 
L 230.170378 233.692541 
L 228.441081 227.740541 
L 227.757405 224.000432 
L 227.676973 222.592865 
L 227.676973 219.978811 
L 227.274811 216.238703 
L 226.792216 212.538811 
L 225.183568 195.96973 
L 225.022703 194.642595 
L 225.022703 194.642595 
" style="fill:none;stroke:#4df3ce;stroke-linecap:square;stroke-width:1.5;"/>
   </g>
   <g id="line2d_73">
    <path clip-path="url(#pa11f557a2f)" d="M 224.821622 136.047568 
L 225.987892 136.128 
L 227.315027 136.44973 
L 228.24 136.771459 
L 229.245405 137.29427 
L 230.170378 137.93773 
L 231.175784 138.862703 
L 232.342054 140.350703 
L 234.553946 143.487568 
L 235.116973 144.694054 
L 235.519135 146.021189 
L 235.68 147.388541 
L 235.599568 154.386162 
L 235.076757 163.193514 
L 235.157189 166.089081 
L 235.478919 168.743351 
L 236.082162 171.276973 
L 236.84627 173.529081 
L 237.328865 174.775784 
L 238.535351 177.108324 
L 239.983135 179.360432 
L 241.632 181.451676 
L 243.401514 183.382054 
L 245.331892 185.191784 
L 247.382919 186.880865 
L 252.892541 190.902486 
L 260.855351 195.728432 
L 263.911784 197.940324 
L 267.008432 200.514162 
L 269.743135 203.128216 
L 271.593081 205.058595 
L 273.402811 207.109622 
L 280.239568 215.31373 
L 280.963459 216.48 
L 281.848216 218.772324 
L 282.451459 220.823351 
L 284.864432 226.453622 
L 286.714378 229.992649 
L 287.357838 231.118703 
L 290.293622 234.939243 
L 293.792432 238.960865 
L 296.527135 241.936865 
L 297.291243 243.103135 
L 297.85427 244.390054 
L 298.779243 247.929081 
L 299.905297 250.422486 
L 301.433514 252.553946 
L 303.605189 255.288649 
L 304.892108 257.219027 
L 305.736649 258.023351 
L 306.862703 258.264649 
L 308.109405 258.304865 
L 309.396324 258.144 
L 310.643027 257.782054 
L 312.412541 256.816865 
L 313.37773 255.972324 
L 314.745081 254.243027 
L 315.871135 252.755027 
L 317.84173 250.744216 
L 319.32973 248.572541 
L 320.214486 247.526919 
L 321.300324 246.642162 
L 322.547027 245.958486 
L 323.833946 245.475892 
L 324.919784 245.234595 
L 327.372973 245.154162 
L 331.394595 245.395459 
L 334.048865 245.717189 
L 336.743351 246.199784 
L 339.075892 246.803027 
L 341.64973 247.607351 
L 343.942054 248.451892 
L 347.60173 250.181189 
L 349.974486 251.468108 
L 353.191784 253.438703 
L 356.730811 255.932108 
L 360.873081 259.390703 
L 362.803459 261.200432 
L 363.688216 262.246054 
L 364.412108 263.452541 
L 364.934919 264.699243 
L 366.744649 270.852324 
L 368.795676 277.80973 
L 371.811892 287.823568 
L 373.702054 294.258162 
L 375.190054 299.124324 
L 376.999784 305.277405 
L 377.844324 307.56973 
L 378.367135 308.454486 
L 380.860541 311.712 
L 382.871351 314.889081 
L 385.244108 319.433514 
L 386.732108 322.932324 
L 387.616865 325.465946 
L 388.662486 329.085405 
L 389.426595 333.066811 
L 389.909189 336.847135 
L 391.59827 346.659892 
L 393.448216 359.368216 
L 393.448216 359.368216 
" style="fill:none;stroke:#b3f396;stroke-linecap:square;stroke-width:1.5;"/>
   </g>
   <g id="line2d_74">
    <path clip-path="url(#pa11f557a2f)" d="M 450.032432 304.955676 
L 449.831351 305.036108 
L 449.670486 305.237189 
L 449.670486 305.156757 
L 449.63027 304.513297 
L 449.469405 303.95027 
L 449.107459 303.266595 
L 448.464 302.422054 
L 447.177081 301.255784 
L 445.367351 300.290595 
L 443.115243 299.647135 
L 435.273081 298.038486 
L 409.011892 292.569081 
L 404.266378 291.603892 
L 396.947027 290.075676 
L 393.005838 289.271351 
L 374.627027 285.450811 
L 370.685838 284.646486 
L 351.784216 280.745514 
L 342.816 279.096649 
L 336.461838 278.211892 
L 331.394595 277.80973 
L 330.027243 277.890162 
L 328.740324 278.131459 
L 327.533838 278.614054 
L 325.28173 280.021622 
L 323.230703 281.388973 
L 318.967784 283.76173 
L 316.916757 284.928 
L 316.675459 285.129081 
L 316.715676 285.169297 
L 316.675459 285.933405 
L 316.755892 286.898595 
L 317.077622 288.386595 
L 317.721081 289.794162 
L 318.646054 291.040865 
L 319.530811 291.925622 
L 320.375351 292.488649 
L 324.115459 294.459243 
L 324.96 295.303784 
L 324.879568 295.625514 
L 324.195892 296.188541 
L 323.391568 296.630919 
L 322.104649 297.073297 
L 320.697081 297.314595 
L 319.289514 297.354811 
L 317.922162 297.113514 
L 316.595027 296.671135 
L 315.589622 296.148324 
L 314.302703 295.183135 
L 310.120216 290.920216 
L 309.114811 289.794162 
L 308.149622 288.949622 
L 307.305081 288.426811 
L 306.098595 287.944216 
L 304.851892 287.622486 
L 303.846486 287.542054 
L 302.841081 287.58227 
L 300.387892 288.145297 
L 299.141189 288.507243 
L 297.733622 288.748541 
L 296.36627 288.788757 
L 290.977297 288.547459 
L 289.650162 288.627892 
L 286.995892 289.150703 
L 285.266595 289.673514 
L 284.582919 290.196324 
L 283.497081 290.759351 
L 282.250378 290.920216 
L 281.204757 290.719135 
L 280.118919 290.236541 
L 279.475459 289.753946 
L 278.429838 288.507243 
L 277.384216 286.536649 
L 276.419027 284.60627 
L 275.53427 283.319351 
L 274.086486 281.911784 
L 272.477838 280.705297 
L 269.099676 278.573838 
L 264.675892 276.281514 
L 260.171676 274.512 
L 256.632649 273.426162 
L 251.605622 272.179459 
L 244.085189 270.249081 
L 239.460324 268.720865 
L 232.744216 265.945946 
L 220.357622 260.154811 
L 211.188324 255.690811 
L 204.432 252.433297 
L 198.399568 249.497514 
L 198.399568 249.497514 
" style="fill:none;stroke:#ff964f;stroke-linecap:square;stroke-width:1.5;"/>
   </g>
   <g id="line2d_75">
    <path clip-path="url(#pa11f557a2f)" d="M 140.367568 248.652973 
L 143.504432 248.733405 
L 150.421622 249.457297 
L 153.357405 249.819243 
L 245.010162 260.114595 
L 263.107459 262.125405 
L 264.917189 262.125405 
L 266.726919 261.843892 
L 271.71373 260.396108 
L 273.764757 259.712432 
L 274.850595 259.511351 
L 278.067892 259.189622 
L 279.193946 258.827676 
L 279.917838 259.229838 
L 280.601514 259.833081 
L 281.164541 260.597189 
L 281.687351 261.562378 
L 282.089514 262.608 
L 282.371027 263.975351 
L 282.531892 266.991568 
L 282.612324 270.007784 
L 283.175351 274.069622 
L 282.612324 274.753297 
L 281.003676 275.758703 
L 279.15373 276.32173 
L 278.952649 276.32173 
L 279.234162 276.402162 
L 279.395027 276.442378 
L 279.033081 276.241297 
L 278.992865 276.201081 
L 278.791784 275.436973 
L 278.751568 274.632649 
L 278.872216 273.587027 
L 279.15373 272.501189 
L 279.676541 271.21427 
L 280.400432 270.007784 
L 281.124324 269.163243 
L 281.968865 268.399135 
L 283.094919 267.635027 
L 284.381838 267.072 
L 285.467676 266.75027 
L 286.875243 266.468757 
L 288.121946 266.066595 
L 290.41427 264.860108 
L 292.867459 263.894919 
L 299.34227 261.843892 
L 303.001946 260.959135 
L 305.696432 260.556973 
L 308.431135 260.476541 
L 310.924541 260.79827 
L 313.056 261.44173 
L 317.761297 262.366703 
L 333.324973 265.302486 
L 384.681081 275.075027 
L 392.040649 276.482595 
L 392.040649 276.482595 
" style="fill:none;stroke:#ff0000;stroke-linecap:square;stroke-width:1.5;"/>
   </g>
   <g id="patch_3">
    <path d="M 72 512.64 
L 72 69.12 
" style="fill:none;stroke:#000000;stroke-linecap:square;stroke-linejoin:miter;stroke-width:0.8;"/>
   </g>
   <g id="patch_4">
    <path d="M 518.4 512.64 
L 518.4 69.12 
" style="fill:none;stroke:#000000;stroke-linecap:square;stroke-linejoin:miter;stroke-width:0.8;"/>
   </g>
   <g id="patch_5">
    <path d="M 72 512.64 
L 518.4 512.64 
" style="fill:none;stroke:#000000;stroke-linecap:square;stroke-linejoin:miter;stroke-width:0.8;"/>
   </g>
   <g id="patch_6">
    <path d="M 72 69.12 
L 518.4 69.12 
" style="fill:none;stroke:#000000;stroke-linecap:square;stroke-linejoin:miter;stroke-width:0.8;"/>
   </g>
   <g id="text_13">
    <!-- 1 -->
    <defs>
     <path d="M 14.203125 0 
L 14.203125 5.171875 
L 26.90625 5.171875 
L 26.90625 65.828125 
L 12.203125 56.296875 
L 12.203125 62.703125 
L 29.984375 74.21875 
L 36.71875 74.21875 
L 36.71875 5.171875 
L 49.421875 5.171875 
L 49.421875 0 
z
" id="DejaVuSerif-31"/>
    </defs>
    <g transform="translate(137.186318 389.40973)scale(0.1 -0.1)">
     <use xlink:href="#DejaVuSerif-31"/>
    </g>
   </g>
   <g id="text_14">
    <!-- 1 -->
    <g transform="translate(390.54848 192.35027)scale(0.1 -0.1)">
     <use xlink:href="#DejaVuSerif-31"/>
    </g>
   </g>
   <g id="text_15">
    <!-- 2 -->
    <defs>
     <path d="M 12.796875 55.515625 
L 7.328125 55.515625 
L 7.328125 68.5 
Q 12.546875 71.296875 17.84375 72.75 
Q 23.140625 74.21875 28.21875 74.21875 
Q 39.59375 74.21875 46.1875 68.703125 
Q 52.78125 63.1875 52.78125 53.71875 
Q 52.78125 43.015625 37.84375 28.125 
Q 36.671875 27 36.078125 26.421875 
L 17.671875 8.015625 
L 48.09375 8.015625 
L 48.09375 17 
L 53.8125 17 
L 53.8125 0 
L 6.78125 0 
L 6.78125 5.328125 
L 28.90625 27.390625 
Q 36.234375 34.71875 39.359375 40.84375 
Q 42.484375 46.96875 42.484375 53.71875 
Q 42.484375 61.078125 38.640625 65.234375 
Q 34.8125 69.390625 28.078125 69.390625 
Q 21.09375 69.390625 17.28125 65.921875 
Q 13.484375 62.453125 12.796875 55.515625 
z
" id="DejaVuSerif-32"/>
    </defs>
    <g transform="translate(446.851182 192.35027)scale(0.1 -0.1)">
     <use xlink:href="#DejaVuSerif-32"/>
    </g>
   </g>
   <g id="text_16">
    <!-- 2 -->
    <g transform="translate(221.640372 361.258378)scale(0.1 -0.1)">
     <use xlink:href="#DejaVuSerif-32"/>
    </g>
   </g>
   <g id="text_17">
    <!-- 3 -->
    <defs>
     <path d="M 9.71875 69.828125 
Q 15.4375 71.96875 20.671875 73.09375 
Q 25.921875 74.21875 30.515625 74.21875 
Q 41.21875 74.21875 47.21875 69.59375 
Q 53.21875 64.984375 53.21875 56.78125 
Q 53.21875 50.203125 49.0625 45.78125 
Q 44.921875 41.359375 37.3125 39.796875 
Q 46.296875 38.53125 51.25 33.28125 
Q 56.203125 28.03125 56.203125 19.671875 
Q 56.203125 9.46875 49.34375 4.015625 
Q 42.484375 -1.421875 29.59375 -1.421875 
Q 23.875 -1.421875 18.421875 -0.1875 
Q 12.984375 1.03125 7.625 3.515625 
L 7.625 17.671875 
L 13.09375 17.671875 
Q 13.578125 10.640625 17.828125 7.03125 
Q 22.078125 3.421875 29.78125 3.421875 
Q 37.25 3.421875 41.578125 7.734375 
Q 45.90625 12.0625 45.90625 19.578125 
Q 45.90625 28.171875 41.453125 32.59375 
Q 37.015625 37.015625 28.421875 37.015625 
L 23.78125 37.015625 
L 23.78125 42 
L 26.21875 42 
Q 34.765625 42 39.03125 45.53125 
Q 43.3125 49.078125 43.3125 56.203125 
Q 43.3125 62.59375 39.796875 65.984375 
Q 36.28125 69.390625 29.6875 69.390625 
Q 23.09375 69.390625 19.453125 66.265625 
Q 15.828125 63.140625 15.1875 56.984375 
L 9.71875 56.984375 
z
" id="DejaVuSerif-33"/>
    </defs>
    <g transform="translate(398.993885 440.082162)scale(0.1 -0.1)">
     <use xlink:href="#DejaVuSerif-33"/>
    </g>
   </g>
   <g id="text_18">
    <!-- 3 -->
    <g transform="translate(221.640372 192.35027)scale(0.1 -0.1)">
     <use xlink:href="#DejaVuSerif-33"/>
    </g>
   </g>
   <g id="text_19">
    <!-- 4 -->
    <defs>
     <path d="M 34.90625 24.703125 
L 34.90625 63.484375 
L 10.015625 24.703125 
z
M 56.390625 0 
L 23.1875 0 
L 23.1875 5.171875 
L 34.90625 5.171875 
L 34.90625 19.484375 
L 3.078125 19.484375 
L 3.078125 24.8125 
L 35.015625 74.21875 
L 44.671875 74.21875 
L 44.671875 24.703125 
L 58.59375 24.703125 
L 58.59375 19.484375 
L 44.671875 19.484375 
L 44.671875 5.171875 
L 56.390625 5.171875 
z
" id="DejaVuSerif-34"/>
    </defs>
    <g transform="translate(221.640372 136.047568)scale(0.1 -0.1)">
     <use xlink:href="#DejaVuSerif-34"/>
    </g>
   </g>
   <g id="text_20">
    <!-- 4 -->
    <g transform="translate(390.54848 361.258378)scale(0.1 -0.1)">
     <use xlink:href="#DejaVuSerif-34"/>
    </g>
   </g>
   <g id="text_21">
    <!-- 5 -->
    <defs>
     <path d="M 50.296875 72.90625 
L 50.296875 64.890625 
L 16.890625 64.890625 
L 16.890625 44 
Q 19.4375 45.75 22.828125 46.625 
Q 26.21875 47.515625 30.421875 47.515625 
Q 42.234375 47.515625 49.0625 40.96875 
Q 55.90625 34.421875 55.90625 23.09375 
Q 55.90625 11.53125 49 5.046875 
Q 42.09375 -1.421875 29.59375 -1.421875 
Q 24.5625 -1.421875 19.28125 -0.1875 
Q 14.015625 1.03125 8.5 3.515625 
L 8.5 17.671875 
L 14.015625 17.671875 
Q 14.453125 10.75 18.421875 7.078125 
Q 22.40625 3.421875 29.59375 3.421875 
Q 37.3125 3.421875 41.453125 8.5 
Q 45.609375 13.578125 45.609375 23.09375 
Q 45.609375 32.5625 41.484375 37.609375 
Q 37.359375 42.671875 29.59375 42.671875 
Q 25.203125 42.671875 21.84375 41.109375 
Q 18.5 39.546875 15.921875 36.28125 
L 11.71875 36.28125 
L 11.71875 72.90625 
z
" id="DejaVuSerif-35"/>
    </defs>
    <g transform="translate(446.851182 304.955676)scale(0.1 -0.1)">
     <use xlink:href="#DejaVuSerif-35"/>
    </g>
   </g>
   <g id="text_22">
    <!-- 5 -->
    <g transform="translate(193.48902 248.652973)scale(0.1 -0.1)">
     <use xlink:href="#DejaVuSerif-35"/>
    </g>
   </g>
   <g id="text_23">
    <!-- 6 -->
    <defs>
     <path d="M 32.71875 3.421875 
Q 39.59375 3.421875 43.296875 8.46875 
Q 47.015625 13.53125 47.015625 23 
Q 47.015625 32.46875 43.296875 37.515625 
Q 39.59375 42.578125 32.71875 42.578125 
Q 25.734375 42.578125 22.0625 37.6875 
Q 18.40625 32.8125 18.40625 23.578125 
Q 18.40625 13.875 22.109375 8.640625 
Q 25.828125 3.421875 32.71875 3.421875 
z
M 16.796875 40.140625 
Q 20.125 43.796875 24.3125 45.59375 
Q 28.515625 47.40625 33.796875 47.40625 
Q 44.671875 47.40625 51 40.859375 
Q 57.328125 34.328125 57.328125 23 
Q 57.328125 11.921875 50.515625 5.25 
Q 43.703125 -1.421875 32.328125 -1.421875 
Q 19.96875 -1.421875 13.328125 7.78125 
Q 6.6875 17 6.6875 34.078125 
Q 6.6875 53.21875 14.546875 63.71875 
Q 22.40625 74.21875 36.71875 74.21875 
Q 40.578125 74.21875 44.828125 73.484375 
Q 49.078125 72.75 53.515625 71.296875 
L 53.515625 59.28125 
L 48 59.28125 
Q 47.40625 64.203125 44.234375 66.796875 
Q 41.0625 69.390625 35.6875 69.390625 
Q 26.21875 69.390625 21.578125 62.203125 
Q 16.9375 55.03125 16.796875 40.140625 
z
" id="DejaVuSerif-36"/>
    </defs>
    <g transform="translate(137.186318 248.652973)scale(0.1 -0.1)">
     <use xlink:href="#DejaVuSerif-36"/>
    </g>
   </g>
   <g id="text_24">
    <!-- 6 -->
    <g transform="translate(390.54848 276.804324)scale(0.1 -0.1)">
     <use xlink:href="#DejaVuSerif-36"/>
    </g>
   </g>
   <g id="text_25">
    <!-- MRPP -->
    <defs>
     <path d="M 9.8125 72.90625 
L 24.515625 72.90625 
L 43.109375 23.296875 
L 61.8125 72.90625 
L 76.515625 72.90625 
L 76.515625 0 
L 66.890625 0 
L 66.890625 64.015625 
L 48.09375 14.015625 
L 38.1875 14.015625 
L 19.390625 64.015625 
L 19.390625 0 
L 9.8125 0 
z
" id="DejaVuSans-4d"/>
     <path d="M 44.390625 34.1875 
Q 47.5625 33.109375 50.5625 29.59375 
Q 53.5625 26.078125 56.59375 19.921875 
L 66.609375 0 
L 56 0 
L 46.6875 18.703125 
Q 43.0625 26.03125 39.671875 28.421875 
Q 36.28125 30.8125 30.421875 30.8125 
L 19.671875 30.8125 
L 19.671875 0 
L 9.8125 0 
L 9.8125 72.90625 
L 32.078125 72.90625 
Q 44.578125 72.90625 50.734375 67.671875 
Q 56.890625 62.453125 56.890625 51.90625 
Q 56.890625 45.015625 53.6875 40.46875 
Q 50.484375 35.9375 44.390625 34.1875 
z
M 19.671875 64.796875 
L 19.671875 38.921875 
L 32.078125 38.921875 
Q 39.203125 38.921875 42.84375 42.21875 
Q 46.484375 45.515625 46.484375 51.90625 
Q 46.484375 58.296875 42.84375 61.546875 
Q 39.203125 64.796875 32.078125 64.796875 
z
" id="DejaVuSans-52"/>
     <path d="M 19.671875 64.796875 
L 19.671875 37.40625 
L 32.078125 37.40625 
Q 38.96875 37.40625 42.71875 40.96875 
Q 46.484375 44.53125 46.484375 51.125 
Q 46.484375 57.671875 42.71875 61.234375 
Q 38.96875 64.796875 32.078125 64.796875 
z
M 9.8125 72.90625 
L 32.078125 72.90625 
Q 44.34375 72.90625 50.609375 67.359375 
Q 56.890625 61.8125 56.890625 51.125 
Q 56.890625 40.328125 50.609375 34.8125 
Q 44.34375 29.296875 32.078125 29.296875 
L 19.671875 29.296875 
L 19.671875 0 
L 9.8125 0 
z
" id="DejaVuSans-50"/>
    </defs>
    <g transform="translate(278.618437 63.12)scale(0.12 -0.12)">
     <use xlink:href="#DejaVuSans-4d"/>
     <use x="86.279297" xlink:href="#DejaVuSans-52"/>
     <use x="155.761719" xlink:href="#DejaVuSans-50"/>
     <use x="216.064453" xlink:href="#DejaVuSans-50"/>
    </g>
   </g>
  </g>
 </g>
 <defs>
  <clipPath id="pa11f557a2f">
   <rect height="443.52" width="446.4" x="72" y="69.12"/>
  </clipPath>
 </defs>
</svg>
