<?xml version="1.0" encoding="utf-8" standalone="no"?>
<!DOCTYPE svg PUBLIC "-//W3C//DTD SVG 1.1//EN"
  "http://www.w3.org/Graphics/SVG/1.1/DTD/svg11.dtd">
<!-- Created with matplotlib (http://matplotlib.org/) -->
<svg height="576pt" version="1.1" viewBox="0 0 576 576" width="576pt" xmlns="http://www.w3.org/2000/svg" xmlns:xlink="http://www.w3.org/1999/xlink">
 <defs>
  <style type="text/css">
*{stroke-linecap:butt;stroke-linejoin:round;}
  </style>
 </defs>
 <g id="figure_1">
  <g id="patch_1">
   <path d="M 0 576 
L 576 576 
L 576 0 
L 0 0 
z
" style="fill:#ffffff;"/>
  </g>
  <g id="axes_1">
   <g id="patch_2">
    <path d="M 72 512.64 
L 518.4 512.64 
L 518.4 69.12 
L 72 69.12 
z
" style="fill:#ffffff;"/>
   </g>
   <g id="matplotlib.axis_1">
    <g id="xtick_1">
     <g id="line2d_1">
      <defs>
       <path d="M 0 0 
L 0 3.5 
" id="mec03df7b5b" style="stroke:#000000;stroke-width:0.8;"/>
      </defs>
      <g>
       <use style="stroke:#000000;stroke-width:0.8;" x="112.216216" xlink:href="#mec03df7b5b" y="512.64"/>
      </g>
     </g>
     <g id="text_1">
      <!-- 0 -->
      <defs>
       <path d="M 31.78125 66.40625 
Q 24.171875 66.40625 20.328125 58.90625 
Q 16.5 51.421875 16.5 36.375 
Q 16.5 21.390625 20.328125 13.890625 
Q 24.171875 6.390625 31.78125 6.390625 
Q 39.453125 6.390625 43.28125 13.890625 
Q 47.125 21.390625 47.125 36.375 
Q 47.125 51.421875 43.28125 58.90625 
Q 39.453125 66.40625 31.78125 66.40625 
z
M 31.78125 74.21875 
Q 44.046875 74.21875 50.515625 64.515625 
Q 56.984375 54.828125 56.984375 36.375 
Q 56.984375 17.96875 50.515625 8.265625 
Q 44.046875 -1.421875 31.78125 -1.421875 
Q 19.53125 -1.421875 13.0625 8.265625 
Q 6.59375 17.96875 6.59375 36.375 
Q 6.59375 54.828125 13.0625 64.515625 
Q 19.53125 74.21875 31.78125 74.21875 
z
" id="DejaVuSans-30"/>
      </defs>
      <g transform="translate(109.034966 527.238438)scale(0.1 -0.1)">
       <use xlink:href="#DejaVuSans-30"/>
      </g>
     </g>
    </g>
    <g id="xtick_2">
     <g id="line2d_2">
      <g>
       <use style="stroke:#000000;stroke-width:0.8;" x="192.648649" xlink:href="#mec03df7b5b" y="512.64"/>
      </g>
     </g>
     <g id="text_2">
      <!-- 2 -->
      <defs>
       <path d="M 19.1875 8.296875 
L 53.609375 8.296875 
L 53.609375 0 
L 7.328125 0 
L 7.328125 8.296875 
Q 12.9375 14.109375 22.625 23.890625 
Q 32.328125 33.6875 34.8125 36.53125 
Q 39.546875 41.84375 41.421875 45.53125 
Q 43.3125 49.21875 43.3125 52.78125 
Q 43.3125 58.59375 39.234375 62.25 
Q 35.15625 65.921875 28.609375 65.921875 
Q 23.96875 65.921875 18.8125 64.3125 
Q 13.671875 62.703125 7.8125 59.421875 
L 7.8125 69.390625 
Q 13.765625 71.78125 18.9375 73 
Q 24.125 74.21875 28.421875 74.21875 
Q 39.75 74.21875 46.484375 68.546875 
Q 53.21875 62.890625 53.21875 53.421875 
Q 53.21875 48.921875 51.53125 44.890625 
Q 49.859375 40.875 45.40625 35.40625 
Q 44.1875 33.984375 37.640625 27.21875 
Q 31.109375 20.453125 19.1875 8.296875 
z
" id="DejaVuSans-32"/>
      </defs>
      <g transform="translate(189.467399 527.238438)scale(0.1 -0.1)">
       <use xlink:href="#DejaVuSans-32"/>
      </g>
     </g>
    </g>
    <g id="xtick_3">
     <g id="line2d_3">
      <g>
       <use style="stroke:#000000;stroke-width:0.8;" x="273.081081" xlink:href="#mec03df7b5b" y="512.64"/>
      </g>
     </g>
     <g id="text_3">
      <!-- 4 -->
      <defs>
       <path d="M 37.796875 64.3125 
L 12.890625 25.390625 
L 37.796875 25.390625 
z
M 35.203125 72.90625 
L 47.609375 72.90625 
L 47.609375 25.390625 
L 58.015625 25.390625 
L 58.015625 17.1875 
L 47.609375 17.1875 
L 47.609375 0 
L 37.796875 0 
L 37.796875 17.1875 
L 4.890625 17.1875 
L 4.890625 26.703125 
z
" id="DejaVuSans-34"/>
      </defs>
      <g transform="translate(269.899831 527.238438)scale(0.1 -0.1)">
       <use xlink:href="#DejaVuSans-34"/>
      </g>
     </g>
    </g>
    <g id="xtick_4">
     <g id="line2d_4">
      <g>
       <use style="stroke:#000000;stroke-width:0.8;" x="353.513514" xlink:href="#mec03df7b5b" y="512.64"/>
      </g>
     </g>
     <g id="text_4">
      <!-- 6 -->
      <defs>
       <path d="M 33.015625 40.375 
Q 26.375 40.375 22.484375 35.828125 
Q 18.609375 31.296875 18.609375 23.390625 
Q 18.609375 15.53125 22.484375 10.953125 
Q 26.375 6.390625 33.015625 6.390625 
Q 39.65625 6.390625 43.53125 10.953125 
Q 47.40625 15.53125 47.40625 23.390625 
Q 47.40625 31.296875 43.53125 35.828125 
Q 39.65625 40.375 33.015625 40.375 
z
M 52.59375 71.296875 
L 52.59375 62.3125 
Q 48.875 64.0625 45.09375 64.984375 
Q 41.3125 65.921875 37.59375 65.921875 
Q 27.828125 65.921875 22.671875 59.328125 
Q 17.53125 52.734375 16.796875 39.40625 
Q 19.671875 43.65625 24.015625 45.921875 
Q 28.375 48.1875 33.59375 48.1875 
Q 44.578125 48.1875 50.953125 41.515625 
Q 57.328125 34.859375 57.328125 23.390625 
Q 57.328125 12.15625 50.6875 5.359375 
Q 44.046875 -1.421875 33.015625 -1.421875 
Q 20.359375 -1.421875 13.671875 8.265625 
Q 6.984375 17.96875 6.984375 36.375 
Q 6.984375 53.65625 15.1875 63.9375 
Q 23.390625 74.21875 37.203125 74.21875 
Q 40.921875 74.21875 44.703125 73.484375 
Q 48.484375 72.75 52.59375 71.296875 
z
" id="DejaVuSans-36"/>
      </defs>
      <g transform="translate(350.332264 527.238438)scale(0.1 -0.1)">
       <use xlink:href="#DejaVuSans-36"/>
      </g>
     </g>
    </g>
    <g id="xtick_5">
     <g id="line2d_5">
      <g>
       <use style="stroke:#000000;stroke-width:0.8;" x="433.945946" xlink:href="#mec03df7b5b" y="512.64"/>
      </g>
     </g>
     <g id="text_5">
      <!-- 8 -->
      <defs>
       <path d="M 31.78125 34.625 
Q 24.75 34.625 20.71875 30.859375 
Q 16.703125 27.09375 16.703125 20.515625 
Q 16.703125 13.921875 20.71875 10.15625 
Q 24.75 6.390625 31.78125 6.390625 
Q 38.8125 6.390625 42.859375 10.171875 
Q 46.921875 13.96875 46.921875 20.515625 
Q 46.921875 27.09375 42.890625 30.859375 
Q 38.875 34.625 31.78125 34.625 
z
M 21.921875 38.8125 
Q 15.578125 40.375 12.03125 44.71875 
Q 8.5 49.078125 8.5 55.328125 
Q 8.5 64.0625 14.71875 69.140625 
Q 20.953125 74.21875 31.78125 74.21875 
Q 42.671875 74.21875 48.875 69.140625 
Q 55.078125 64.0625 55.078125 55.328125 
Q 55.078125 49.078125 51.53125 44.71875 
Q 48 40.375 41.703125 38.8125 
Q 48.828125 37.15625 52.796875 32.3125 
Q 56.78125 27.484375 56.78125 20.515625 
Q 56.78125 9.90625 50.3125 4.234375 
Q 43.84375 -1.421875 31.78125 -1.421875 
Q 19.734375 -1.421875 13.25 4.234375 
Q 6.78125 9.90625 6.78125 20.515625 
Q 6.78125 27.484375 10.78125 32.3125 
Q 14.796875 37.15625 21.921875 38.8125 
z
M 18.3125 54.390625 
Q 18.3125 48.734375 21.84375 45.5625 
Q 25.390625 42.390625 31.78125 42.390625 
Q 38.140625 42.390625 41.71875 45.5625 
Q 45.3125 48.734375 45.3125 54.390625 
Q 45.3125 60.0625 41.71875 63.234375 
Q 38.140625 66.40625 31.78125 66.40625 
Q 25.390625 66.40625 21.84375 63.234375 
Q 18.3125 60.0625 18.3125 54.390625 
z
" id="DejaVuSans-38"/>
      </defs>
      <g transform="translate(430.764696 527.238438)scale(0.1 -0.1)">
       <use xlink:href="#DejaVuSans-38"/>
      </g>
     </g>
    </g>
    <g id="xtick_6">
     <g id="line2d_6">
      <g>
       <use style="stroke:#000000;stroke-width:0.8;" x="514.378378" xlink:href="#mec03df7b5b" y="512.64"/>
      </g>
     </g>
     <g id="text_6">
      <!-- 10 -->
      <defs>
       <path d="M 12.40625 8.296875 
L 28.515625 8.296875 
L 28.515625 63.921875 
L 10.984375 60.40625 
L 10.984375 69.390625 
L 28.421875 72.90625 
L 38.28125 72.90625 
L 38.28125 8.296875 
L 54.390625 8.296875 
L 54.390625 0 
L 12.40625 0 
z
" id="DejaVuSans-31"/>
      </defs>
      <g transform="translate(508.015878 527.238438)scale(0.1 -0.1)">
       <use xlink:href="#DejaVuSans-31"/>
       <use x="63.623047" xlink:href="#DejaVuSans-30"/>
      </g>
     </g>
    </g>
   </g>
   <g id="matplotlib.axis_2">
    <g id="ytick_1">
     <g id="line2d_7">
      <defs>
       <path d="M 0 0 
L -3.5 0 
" id="m0b8cf4cfd7" style="stroke:#000000;stroke-width:0.8;"/>
      </defs>
      <g>
       <use style="stroke:#000000;stroke-width:0.8;" x="72" xlink:href="#m0b8cf4cfd7" y="473.863784"/>
      </g>
     </g>
     <g id="text_7">
      <!-- 0 -->
      <g transform="translate(58.6375 477.663003)scale(0.1 -0.1)">
       <use xlink:href="#DejaVuSans-30"/>
      </g>
     </g>
    </g>
    <g id="ytick_2">
     <g id="line2d_8">
      <g>
       <use style="stroke:#000000;stroke-width:0.8;" x="72" xlink:href="#m0b8cf4cfd7" y="393.431351"/>
      </g>
     </g>
     <g id="text_8">
      <!-- 2 -->
      <g transform="translate(58.6375 397.23057)scale(0.1 -0.1)">
       <use xlink:href="#DejaVuSans-32"/>
      </g>
     </g>
    </g>
    <g id="ytick_3">
     <g id="line2d_9">
      <g>
       <use style="stroke:#000000;stroke-width:0.8;" x="72" xlink:href="#m0b8cf4cfd7" y="312.998919"/>
      </g>
     </g>
     <g id="text_9">
      <!-- 4 -->
      <g transform="translate(58.6375 316.798138)scale(0.1 -0.1)">
       <use xlink:href="#DejaVuSans-34"/>
      </g>
     </g>
    </g>
    <g id="ytick_4">
     <g id="line2d_10">
      <g>
       <use style="stroke:#000000;stroke-width:0.8;" x="72" xlink:href="#m0b8cf4cfd7" y="232.566486"/>
      </g>
     </g>
     <g id="text_10">
      <!-- 6 -->
      <g transform="translate(58.6375 236.365705)scale(0.1 -0.1)">
       <use xlink:href="#DejaVuSans-36"/>
      </g>
     </g>
    </g>
    <g id="ytick_5">
     <g id="line2d_11">
      <g>
       <use style="stroke:#000000;stroke-width:0.8;" x="72" xlink:href="#m0b8cf4cfd7" y="152.134054"/>
      </g>
     </g>
     <g id="text_11">
      <!-- 8 -->
      <g transform="translate(58.6375 155.933273)scale(0.1 -0.1)">
       <use xlink:href="#DejaVuSans-38"/>
      </g>
     </g>
    </g>
    <g id="ytick_6">
     <g id="line2d_12">
      <g>
       <use style="stroke:#000000;stroke-width:0.8;" x="72" xlink:href="#m0b8cf4cfd7" y="71.701622"/>
      </g>
     </g>
     <g id="text_12">
      <!-- 10 -->
      <g transform="translate(52.275 75.50084)scale(0.1 -0.1)">
       <use xlink:href="#DejaVuSans-31"/>
       <use x="63.623047" xlink:href="#DejaVuSans-30"/>
      </g>
     </g>
    </g>
   </g>
   <g id="line2d_13">
    <path clip-path="url(#pb8bc040c9e)" d="M 140.367568 389.40973 
" style="fill:none;stroke:#1f77b4;stroke-linecap:square;stroke-width:1.5;"/>
    <defs>
     <path d="M -5 5 
L 5 5 
L 5 -5 
L -5 -5 
z
" id="mad5f32321b" style="stroke:#8000ff;stroke-linejoin:miter;"/>
    </defs>
    <g clip-path="url(#pb8bc040c9e)">
     <use style="fill:#8000ff;stroke:#8000ff;stroke-linejoin:miter;" x="140.367568" xlink:href="#mad5f32321b" y="389.40973"/>
    </g>
   </g>
   <g id="line2d_14">
    <path clip-path="url(#pb8bc040c9e)" d="M 393.72973 192.35027 
" style="fill:none;stroke:#ff7f0e;stroke-linecap:square;stroke-width:1.5;"/>
    <defs>
     <path d="M 0 -5 
L -4.755283 -1.545085 
L -2.938926 4.045085 
L 2.938926 4.045085 
L 4.755283 -1.545085 
z
" id="mc7b008a987" style="stroke:#8000ff;stroke-linejoin:miter;"/>
    </defs>
    <g clip-path="url(#pb8bc040c9e)">
     <use style="fill:#8000ff;stroke:#8000ff;stroke-linejoin:miter;" x="393.72973" xlink:href="#mc7b008a987" y="192.35027"/>
    </g>
   </g>
   <g id="line2d_15">
    <path clip-path="url(#pb8bc040c9e)" d="M 450.032432 192.35027 
" style="fill:none;stroke:#2ca02c;stroke-linecap:square;stroke-width:1.5;"/>
    <defs>
     <path d="M -5 5 
L 5 5 
L 5 -5 
L -5 -5 
z
" id="ma2914fe7fe" style="stroke:#583dfd;stroke-linejoin:miter;"/>
    </defs>
    <g clip-path="url(#pb8bc040c9e)">
     <use style="fill:#583dfd;stroke:#583dfd;stroke-linejoin:miter;" x="450.032432" xlink:href="#ma2914fe7fe" y="192.35027"/>
    </g>
   </g>
   <g id="line2d_16">
    <path clip-path="url(#pb8bc040c9e)" d="M 224.821622 361.258378 
" style="fill:none;stroke:#d62728;stroke-linecap:square;stroke-width:1.5;"/>
    <defs>
     <path d="M 0 -5 
L -4.755283 -1.545085 
L -2.938926 4.045085 
L 2.938926 4.045085 
L 4.755283 -1.545085 
z
" id="m691a649e4a" style="stroke:#583dfd;stroke-linejoin:miter;"/>
    </defs>
    <g clip-path="url(#pb8bc040c9e)">
     <use style="fill:#583dfd;stroke:#583dfd;stroke-linejoin:miter;" x="224.821622" xlink:href="#m691a649e4a" y="361.258378"/>
    </g>
   </g>
   <g id="line2d_17">
    <path clip-path="url(#pb8bc040c9e)" d="M 402.175135 440.082162 
" style="fill:none;stroke:#9467bd;stroke-linecap:square;stroke-width:1.5;"/>
    <defs>
     <path d="M -5 5 
L 5 5 
L 5 -5 
L -5 -5 
z
" id="m9897aa5fb1" style="stroke:#3177f8;stroke-linejoin:miter;"/>
    </defs>
    <g clip-path="url(#pb8bc040c9e)">
     <use style="fill:#3177f8;stroke:#3177f8;stroke-linejoin:miter;" x="402.175135" xlink:href="#m9897aa5fb1" y="440.082162"/>
    </g>
   </g>
   <g id="line2d_18">
    <path clip-path="url(#pb8bc040c9e)" d="M 224.821622 192.35027 
" style="fill:none;stroke:#8c564b;stroke-linecap:square;stroke-width:1.5;"/>
    <defs>
     <path d="M 0 -5 
L -4.755283 -1.545085 
L -2.938926 4.045085 
L 2.938926 4.045085 
L 4.755283 -1.545085 
z
" id="mcf478a74bb" style="stroke:#3177f8;stroke-linejoin:miter;"/>
    </defs>
    <g clip-path="url(#pb8bc040c9e)">
     <use style="fill:#3177f8;stroke:#3177f8;stroke-linejoin:miter;" x="224.821622" xlink:href="#mcf478a74bb" y="192.35027"/>
    </g>
   </g>
   <g id="line2d_19">
    <path clip-path="url(#pb8bc040c9e)" d="M 224.821622 136.047568 
" style="fill:none;stroke:#e377c2;stroke-linecap:square;stroke-width:1.5;"/>
    <defs>
     <path d="M -5 5 
L 5 5 
L 5 -5 
L -5 -5 
z
" id="m6e3af6a4a9" style="stroke:#0aa9ee;stroke-linejoin:miter;"/>
    </defs>
    <g clip-path="url(#pb8bc040c9e)">
     <use style="fill:#0aa9ee;stroke:#0aa9ee;stroke-linejoin:miter;" x="224.821622" xlink:href="#m6e3af6a4a9" y="136.047568"/>
    </g>
   </g>
   <g id="line2d_20">
    <path clip-path="url(#pb8bc040c9e)" d="M 393.72973 361.258378 
" style="fill:none;stroke:#7f7f7f;stroke-linecap:square;stroke-width:1.5;"/>
    <defs>
     <path d="M 0 -5 
L -4.755283 -1.545085 
L -2.938926 4.045085 
L 2.938926 4.045085 
L 4.755283 -1.545085 
z
" id="md9e572c2bc" style="stroke:#0aa9ee;stroke-linejoin:miter;"/>
    </defs>
    <g clip-path="url(#pb8bc040c9e)">
     <use style="fill:#0aa9ee;stroke:#0aa9ee;stroke-linejoin:miter;" x="393.72973" xlink:href="#md9e572c2bc" y="361.258378"/>
    </g>
   </g>
   <g id="line2d_21">
    <path clip-path="url(#pb8bc040c9e)" d="M 450.032432 304.955676 
" style="fill:none;stroke:#bcbd22;stroke-linecap:square;stroke-width:1.5;"/>
    <defs>
     <path d="M -5 5 
L 5 5 
L 5 -5 
L -5 -5 
z
" id="m4754a0d8f1" style="stroke:#1dd2e2;stroke-linejoin:miter;"/>
    </defs>
    <g clip-path="url(#pb8bc040c9e)">
     <use style="fill:#1dd2e2;stroke:#1dd2e2;stroke-linejoin:miter;" x="450.032432" xlink:href="#m4754a0d8f1" y="304.955676"/>
    </g>
   </g>
   <g id="line2d_22">
    <path clip-path="url(#pb8bc040c9e)" d="M 196.67027 248.652973 
" style="fill:none;stroke:#17becf;stroke-linecap:square;stroke-width:1.5;"/>
    <defs>
     <path d="M 0 -5 
L -4.755283 -1.545085 
L -2.938926 4.045085 
L 2.938926 4.045085 
L 4.755283 -1.545085 
z
" id="mf11c945a39" style="stroke:#1dd2e2;stroke-linejoin:miter;"/>
    </defs>
    <g clip-path="url(#pb8bc040c9e)">
     <use style="fill:#1dd2e2;stroke:#1dd2e2;stroke-linejoin:miter;" x="196.67027" xlink:href="#mf11c945a39" y="248.652973"/>
    </g>
   </g>
   <g id="line2d_23">
    <path clip-path="url(#pb8bc040c9e)" d="M 140.367568 248.652973 
" style="fill:none;stroke:#1f77b4;stroke-linecap:square;stroke-width:1.5;"/>
    <defs>
     <path d="M -5 5 
L 5 5 
L 5 -5 
L -5 -5 
z
" id="m0de2380ab6" style="stroke:#45eed2;stroke-linejoin:miter;"/>
    </defs>
    <g clip-path="url(#pb8bc040c9e)">
     <use style="fill:#45eed2;stroke:#45eed2;stroke-linejoin:miter;" x="140.367568" xlink:href="#m0de2380ab6" y="248.652973"/>
    </g>
   </g>
   <g id="line2d_24">
    <path clip-path="url(#pb8bc040c9e)" d="M 393.72973 276.804324 
" style="fill:none;stroke:#ff7f0e;stroke-linecap:square;stroke-width:1.5;"/>
    <defs>
     <path d="M 0 -5 
L -4.755283 -1.545085 
L -2.938926 4.045085 
L 2.938926 4.045085 
L 4.755283 -1.545085 
z
" id="mb4f06057f0" style="stroke:#45eed2;stroke-linejoin:miter;"/>
    </defs>
    <g clip-path="url(#pb8bc040c9e)">
     <use style="fill:#45eed2;stroke:#45eed2;stroke-linejoin:miter;" x="393.72973" xlink:href="#mb4f06057f0" y="276.804324"/>
    </g>
   </g>
   <g id="line2d_25">
    <path clip-path="url(#pb8bc040c9e)" d="M 281.124324 192.35027 
" style="fill:none;stroke:#2ca02c;stroke-linecap:square;stroke-width:1.5;"/>
    <defs>
     <path d="M -5 5 
L 5 5 
L 5 -5 
L -5 -5 
z
" id="mf21ffe6d50" style="stroke:#6cfdbf;stroke-linejoin:miter;"/>
    </defs>
    <g clip-path="url(#pb8bc040c9e)">
     <use style="fill:#6cfdbf;stroke:#6cfdbf;stroke-linejoin:miter;" x="281.124324" xlink:href="#mf21ffe6d50" y="192.35027"/>
    </g>
   </g>
   <g id="line2d_26">
    <path clip-path="url(#pb8bc040c9e)" d="M 281.124324 333.107027 
" style="fill:none;stroke:#d62728;stroke-linecap:square;stroke-width:1.5;"/>
    <defs>
     <path d="M 0 -5 
L -4.755283 -1.545085 
L -2.938926 4.045085 
L 2.938926 4.045085 
L 4.755283 -1.545085 
z
" id="m0a1f3fbd5e" style="stroke:#6cfdbf;stroke-linejoin:miter;"/>
    </defs>
    <g clip-path="url(#pb8bc040c9e)">
     <use style="fill:#6cfdbf;stroke:#6cfdbf;stroke-linejoin:miter;" x="281.124324" xlink:href="#m0a1f3fbd5e" y="333.107027"/>
    </g>
   </g>
   <g id="line2d_27">
    <path clip-path="url(#pb8bc040c9e)" d="M 140.367568 304.955676 
" style="fill:none;stroke:#9467bd;stroke-linecap:square;stroke-width:1.5;"/>
    <defs>
     <path d="M -5 5 
L 5 5 
L 5 -5 
L -5 -5 
z
" id="mae78c3fadd" style="stroke:#93fda9;stroke-linejoin:miter;"/>
    </defs>
    <g clip-path="url(#pb8bc040c9e)">
     <use style="fill:#93fda9;stroke:#93fda9;stroke-linejoin:miter;" x="140.367568" xlink:href="#mae78c3fadd" y="304.955676"/>
    </g>
   </g>
   <g id="line2d_28">
    <path clip-path="url(#pb8bc040c9e)" d="M 309.275676 276.804324 
" style="fill:none;stroke:#8c564b;stroke-linecap:square;stroke-width:1.5;"/>
    <defs>
     <path d="M 0 -5 
L -4.755283 -1.545085 
L -2.938926 4.045085 
L 2.938926 4.045085 
L 4.755283 -1.545085 
z
" id="m589a3c696b" style="stroke:#93fda9;stroke-linejoin:miter;"/>
    </defs>
    <g clip-path="url(#pb8bc040c9e)">
     <use style="fill:#93fda9;stroke:#93fda9;stroke-linejoin:miter;" x="309.275676" xlink:href="#m589a3c696b" y="276.804324"/>
    </g>
   </g>
   <g id="line2d_29">
    <path clip-path="url(#pb8bc040c9e)" d="M 393.72973 220.501622 
" style="fill:none;stroke:#e377c2;stroke-linecap:square;stroke-width:1.5;"/>
    <defs>
     <path d="M -5 5 
L 5 5 
L 5 -5 
L -5 -5 
z
" id="m3452aea3e6" style="stroke:#baee91;stroke-linejoin:miter;"/>
    </defs>
    <g clip-path="url(#pb8bc040c9e)">
     <use style="fill:#baee91;stroke:#baee91;stroke-linejoin:miter;" x="393.72973" xlink:href="#m3452aea3e6" y="220.501622"/>
    </g>
   </g>
   <g id="line2d_30">
    <path clip-path="url(#pb8bc040c9e)" d="M 140.367568 276.804324 
" style="fill:none;stroke:#7f7f7f;stroke-linecap:square;stroke-width:1.5;"/>
    <defs>
     <path d="M 0 -5 
L -4.755283 -1.545085 
L -2.938926 4.045085 
L 2.938926 4.045085 
L 4.755283 -1.545085 
z
" id="m150cd182d5" style="stroke:#baee91;stroke-linejoin:miter;"/>
    </defs>
    <g clip-path="url(#pb8bc040c9e)">
     <use style="fill:#baee91;stroke:#baee91;stroke-linejoin:miter;" x="140.367568" xlink:href="#m150cd182d5" y="276.804324"/>
    </g>
   </g>
   <g id="line2d_31">
    <path clip-path="url(#pb8bc040c9e)" d="M 140.367568 136.047568 
" style="fill:none;stroke:#bcbd22;stroke-linecap:square;stroke-width:1.5;"/>
    <defs>
     <path d="M -5 5 
L 5 5 
L 5 -5 
L -5 -5 
z
" id="m509aed5eb9" style="stroke:#e2d277;stroke-linejoin:miter;"/>
    </defs>
    <g clip-path="url(#pb8bc040c9e)">
     <use style="fill:#e2d277;stroke:#e2d277;stroke-linejoin:miter;" x="140.367568" xlink:href="#m509aed5eb9" y="136.047568"/>
    </g>
   </g>
   <g id="line2d_32">
    <path clip-path="url(#pb8bc040c9e)" d="M 252.972973 248.652973 
" style="fill:none;stroke:#17becf;stroke-linecap:square;stroke-width:1.5;"/>
    <defs>
     <path d="M 0 -5 
L -4.755283 -1.545085 
L -2.938926 4.045085 
L 2.938926 4.045085 
L 4.755283 -1.545085 
z
" id="m7153447ab6" style="stroke:#e2d277;stroke-linejoin:miter;"/>
    </defs>
    <g clip-path="url(#pb8bc040c9e)">
     <use style="fill:#e2d277;stroke:#e2d277;stroke-linejoin:miter;" x="252.972973" xlink:href="#m7153447ab6" y="248.652973"/>
    </g>
   </g>
   <g id="line2d_33">
    <path clip-path="url(#pb8bc040c9e)" d="M 337.427027 164.198919 
" style="fill:none;stroke:#1f77b4;stroke-linecap:square;stroke-width:1.5;"/>
    <defs>
     <path d="M -5 5 
L 5 5 
L 5 -5 
L -5 -5 
z
" id="m19f75ee3b2" style="stroke:#ffa95a;stroke-linejoin:miter;"/>
    </defs>
    <g clip-path="url(#pb8bc040c9e)">
     <use style="fill:#ffa95a;stroke:#ffa95a;stroke-linejoin:miter;" x="337.427027" xlink:href="#m19f75ee3b2" y="164.198919"/>
    </g>
   </g>
   <g id="line2d_34">
    <path clip-path="url(#pb8bc040c9e)" d="M 168.518919 389.40973 
" style="fill:none;stroke:#ff7f0e;stroke-linecap:square;stroke-width:1.5;"/>
    <defs>
     <path d="M 0 -5 
L -4.755283 -1.545085 
L -2.938926 4.045085 
L 2.938926 4.045085 
L 4.755283 -1.545085 
z
" id="mba78b9416d" style="stroke:#ffa95a;stroke-linejoin:miter;"/>
    </defs>
    <g clip-path="url(#pb8bc040c9e)">
     <use style="fill:#ffa95a;stroke:#ffa95a;stroke-linejoin:miter;" x="168.518919" xlink:href="#mba78b9416d" y="389.40973"/>
    </g>
   </g>
   <g id="line2d_35">
    <path clip-path="url(#pb8bc040c9e)" d="M 196.67027 445.712432 
" style="fill:none;stroke:#2ca02c;stroke-linecap:square;stroke-width:1.5;"/>
    <defs>
     <path d="M -5 5 
L 5 5 
L 5 -5 
L -5 -5 
z
" id="me8036cc4c1" style="stroke:#ff773d;stroke-linejoin:miter;"/>
    </defs>
    <g clip-path="url(#pb8bc040c9e)">
     <use style="fill:#ff773d;stroke:#ff773d;stroke-linejoin:miter;" x="196.67027" xlink:href="#me8036cc4c1" y="445.712432"/>
    </g>
   </g>
   <g id="line2d_36">
    <path clip-path="url(#pb8bc040c9e)" d="M 393.72973 136.047568 
" style="fill:none;stroke:#d62728;stroke-linecap:square;stroke-width:1.5;"/>
    <defs>
     <path d="M 0 -5 
L -4.755283 -1.545085 
L -2.938926 4.045085 
L 2.938926 4.045085 
L 4.755283 -1.545085 
z
" id="madb9fc614f" style="stroke:#ff773d;stroke-linejoin:miter;"/>
    </defs>
    <g clip-path="url(#pb8bc040c9e)">
     <use style="fill:#ff773d;stroke:#ff773d;stroke-linejoin:miter;" x="393.72973" xlink:href="#madb9fc614f" y="136.047568"/>
    </g>
   </g>
   <g id="line2d_37">
    <path clip-path="url(#pb8bc040c9e)" d="M 224.821622 333.107027 
" style="fill:none;stroke:#9467bd;stroke-linecap:square;stroke-width:1.5;"/>
    <defs>
     <path d="M -5 5 
L 5 5 
L 5 -5 
L -5 -5 
z
" id="m2112692c2c" style="stroke:#ff3d1f;stroke-linejoin:miter;"/>
    </defs>
    <g clip-path="url(#pb8bc040c9e)">
     <use style="fill:#ff3d1f;stroke:#ff3d1f;stroke-linejoin:miter;" x="224.821622" xlink:href="#m2112692c2c" y="333.107027"/>
    </g>
   </g>
   <g id="line2d_38">
    <path clip-path="url(#pb8bc040c9e)" d="M 281.124324 164.198919 
" style="fill:none;stroke:#8c564b;stroke-linecap:square;stroke-width:1.5;"/>
    <defs>
     <path d="M 0 -5 
L -4.755283 -1.545085 
L -2.938926 4.045085 
L 2.938926 4.045085 
L 4.755283 -1.545085 
z
" id="m17a8da6a71" style="stroke:#ff3d1f;stroke-linejoin:miter;"/>
    </defs>
    <g clip-path="url(#pb8bc040c9e)">
     <use style="fill:#ff3d1f;stroke:#ff3d1f;stroke-linejoin:miter;" x="281.124324" xlink:href="#m17a8da6a71" y="164.198919"/>
    </g>
   </g>
   <g id="line2d_39">
    <path clip-path="url(#pb8bc040c9e)" d="M 281.124324 361.258378 
" style="fill:none;stroke:#e377c2;stroke-linecap:square;stroke-width:1.5;"/>
    <defs>
     <path d="M -5 5 
L 5 5 
L 5 -5 
L -5 -5 
z
" id="me257287f05" style="stroke:#ff0000;stroke-linejoin:miter;"/>
    </defs>
    <g clip-path="url(#pb8bc040c9e)">
     <use style="fill:#ff0000;stroke:#ff0000;stroke-linejoin:miter;" x="281.124324" xlink:href="#me257287f05" y="361.258378"/>
    </g>
   </g>
   <g id="line2d_40">
    <path clip-path="url(#pb8bc040c9e)" d="M 337.427027 276.804324 
" style="fill:none;stroke:#7f7f7f;stroke-linecap:square;stroke-width:1.5;"/>
    <defs>
     <path d="M 0 -5 
L -4.755283 -1.545085 
L -2.938926 4.045085 
L 2.938926 4.045085 
L 4.755283 -1.545085 
z
" id="m593afb1cf5" style="stroke:#ff0000;stroke-linejoin:miter;"/>
    </defs>
    <g clip-path="url(#pb8bc040c9e)">
     <use style="fill:#ff0000;stroke:#ff0000;stroke-linejoin:miter;" x="337.427027" xlink:href="#m593afb1cf5" y="276.804324"/>
    </g>
   </g>
   <g id="line2d_41"/>
   <g id="line2d_42">
    <path clip-path="url(#pb8bc040c9e)" d="M 92.108108 493.971892 
L 92.108108 87.788108 
" style="fill:none;stroke:#000000;stroke-linecap:square;stroke-width:4;"/>
   </g>
   <g id="line2d_43">
    <path clip-path="url(#pb8bc040c9e)" d="M 92.108108 87.788108 
L 498.291892 87.788108 
" style="fill:none;stroke:#000000;stroke-linecap:square;stroke-width:4;"/>
   </g>
   <g id="line2d_44">
    <path clip-path="url(#pb8bc040c9e)" d="M 498.291892 87.788108 
L 498.291892 493.971892 
" style="fill:none;stroke:#000000;stroke-linecap:square;stroke-width:4;"/>
   </g>
   <g id="line2d_45">
    <path clip-path="url(#pb8bc040c9e)" d="M 498.291892 493.971892 
L 92.108108 493.971892 
" style="fill:none;stroke:#000000;stroke-linecap:square;stroke-width:4;"/>
   </g>
   <g id="line2d_46">
    <path clip-path="url(#pb8bc040c9e)" d="M 140.367568 389.40973 
L 141.252324 389.369514 
L 143.062054 389.088 
L 145.153297 388.082595 
L 146.440216 387.077189 
L 148.008649 385.629405 
L 154.925838 380.200216 
L 185.449946 356.150919 
L 187.219459 354.944432 
L 189.592216 354.099892 
L 192.085622 353.939027 
L 194.33773 354.300973 
L 196.589838 354.421622 
L 202.944 353.657514 
L 206.24173 354.019459 
L 208.694919 354.582486 
L 211.308973 354.703135 
L 212.676324 354.421622 
L 213.923027 353.898811 
L 221.926054 349.193514 
L 223.373838 348.067459 
L 228.521514 343.201297 
L 230.733405 342.075243 
L 232.945297 341.632865 
L 235.318054 341.753514 
L 237.690811 342.155676 
L 240.063568 342.356757 
L 242.516757 342.437189 
L 244.92973 342.678486 
L 247.664432 343.201297 
L 249.876324 344.367568 
L 251.565405 345.815351 
L 253.696865 347.383784 
L 256.230486 348.509838 
L 258.32173 349.635892 
L 260.372757 351.365189 
L 262.303135 352.611892 
L 264.27373 353.215135 
L 266.60627 353.416216 
L 268.73773 353.818378 
L 270.346378 354.54227 
L 272.357189 355.708541 
L 274.68973 356.472649 
L 277.183135 357.035676 
L 279.475459 358.041081 
L 281.446054 359.488865 
L 283.416649 360.695351 
L 285.548108 361.338811 
L 288.644757 362.062703 
L 292.746811 363.631135 
L 294.998919 364.355027 
L 298.377081 366.285405 
L 300.588973 366.969081 
L 302.881297 366.969081 
L 305.29427 366.164757 
L 306.701838 365.119135 
L 307.586595 363.631135 
L 308.149622 361.499676 
L 308.149622 359.448649 
L 307.586595 357.478054 
L 306.500757 355.547676 
L 305.616 354.300973 
L 305.696432 354.341189 
L 306.018162 354.381405 
L 306.219243 354.140108 
L 306.219243 353.898811 
L 306.179027 353.818378 
L 306.621405 354.180324 
L 308.028973 354.703135 
L 310.120216 355.145514 
L 316.715676 357.236757 
L 319.289514 357.598703 
L 321.581838 357.317189 
L 326.327351 356.432432 
L 327.936 356.150919 
L 327.855568 356.191135 
L 328.338162 355.386811 
L 328.860973 353.255351 
L 328.539243 350.198919 
L 327.533838 348.147892 
L 325.965405 346.25773 
L 324.437189 343.925189 
L 322.667676 338.898162 
L 321.742703 337.008 
L 320.777514 334.675459 
L 320.294919 332.22227 
L 319.731892 330.171243 
L 317.640649 326.109405 
L 316.916757 323.817081 
L 316.393946 321.484541 
L 315.629838 318.910703 
L 315.107027 316.49773 
L 315.026595 314.004324 
L 315.629838 311.551135 
L 316.916757 309.419676 
L 318.565622 307.891459 
L 320.576432 306.886054 
L 323.029622 306.403459 
L 325.523027 306.644757 
L 330.147892 308.374054 
L 334.491243 309.339243 
L 336.904216 309.781622 
L 339.196541 309.580541 
L 344.102919 308.213189 
L 346.918054 307.730595 
L 349.451676 307.006703 
L 358.178595 303.628541 
L 360.35027 302.623135 
L 362.401297 301.456865 
L 363.286054 300.491676 
L 363.889297 299.204757 
L 364.291459 296.912432 
L 364.130595 294.579892 
L 364.211027 291.804973 
L 365.256649 287.662703 
L 365.699027 285.289946 
L 365.980541 282.876973 
L 365.980541 280.343351 
L 366.262054 277.890162 
L 367.066378 273.385946 
L 367.468541 270.972973 
L 368.071784 268.600216 
L 369.519568 264.015568 
L 371.289081 259.511351 
L 373.943351 249.939892 
L 377.964973 237.995676 
L 381.061622 229.148108 
L 384.359351 219.496216 
L 392.161297 196.934919 
L 393.810162 192.108973 
L 393.810162 192.108973 
" style="fill:none;stroke:#8000ff;stroke-linecap:square;stroke-width:1.5;"/>
   </g>
   <g id="line2d_47">
    <path clip-path="url(#pb8bc040c9e)" d="M 450.032432 192.35027 
L 450.27373 192.430703 
L 450.354162 192.511135 
L 450.474811 192.953514 
L 450.595459 193.999135 
L 450.233514 195.808865 
L 449.147676 197.940324 
L 447.418378 199.750054 
L 441.587027 203.490162 
L 433.986162 208.999784 
L 425.983135 214.871351 
L 407.564108 228.263351 
L 402.134919 232.204541 
L 394.332973 237.875027 
L 385.123459 244.752 
L 383.595243 246.883459 
L 382.992 248.612757 
L 382.871351 250.663784 
L 383.353946 252.915892 
L 386.088649 258.586378 
L 386.249514 259.551568 
L 386.088649 261.039568 
L 385.284324 262.849297 
L 383.916973 264.618811 
L 381.986595 266.106811 
L 377.723676 268.399135 
L 373.702054 270.771892 
L 372.173838 271.21427 
L 370.444541 271.897946 
L 368.43373 273.265297 
L 367.026162 275.075027 
L 366.221838 277.206486 
L 366.060973 279.257514 
L 366.262054 280.383568 
L 366.905514 281.549838 
L 368.554378 283.158486 
L 370.605405 284.204108 
L 372.857514 284.646486 
L 377.281297 284.324757 
L 379.654054 284.646486 
L 381.745297 284.686703 
L 384.922378 284.123676 
L 385.404973 284.566054 
L 385.887568 285.289946 
L 386.169081 286.174703 
L 386.209297 287.340973 
L 385.968 288.386595 
L 385.284324 289.914811 
L 384.80173 290.759351 
L 384.118054 291.402811 
L 381.544216 292.770162 
L 379.855135 294.298378 
L 376.959568 298.118919 
L 375.391135 299.446054 
L 373.460757 300.290595 
L 370.685838 300.612324 
L 368.755459 300.290595 
L 368.594595 300.12973 
L 368.554378 300.009081 
L 368.634811 299.405838 
L 369.559784 297.837405 
L 372.012973 296.067892 
L 376.838919 294.17773 
L 377.964973 293.614703 
L 377.924757 293.654919 
L 377.482378 294.579892 
L 377.36173 295.02227 
L 377.36173 294.579892 
L 377.04 293.494054 
L 375.954162 291.603892 
L 374.265081 290.035459 
L 372.89773 289.351784 
L 372.455351 289.512649 
L 371.570595 290.397405 
L 370.76627 292.126703 
L 370.404324 294.660324 
L 370.806486 296.912432 
L 373.74227 303.789405 
L 374.425946 306.403459 
L 374.828108 308.575135 
L 374.948757 311.309838 
L 374.667243 313.803243 
L 374.305297 315.934703 
L 373.782486 318.025946 
L 372.978162 320.599784 
L 372.133622 322.892108 
L 371.047784 325.385514 
L 369.720649 327.637622 
L 367.629405 329.487568 
L 365.176216 330.694054 
L 358.500324 333.348324 
L 353.835243 334.595027 
L 349.08973 335.640649 
L 346.716973 336.042811 
L 344.304 336.565622 
L 342.092108 337.369946 
L 339.317189 337.932973 
L 336.984649 338.013405 
L 334.491243 338.335135 
L 332.319568 339.260108 
L 330.429405 340.265514 
L 328.137081 341.15027 
L 318.605838 343.040432 
L 316.514595 344.045838 
L 314.503784 345.61427 
L 312.291892 347.10227 
L 308.310486 348.992432 
L 306.219243 350.118486 
L 303.967135 351.485838 
L 302.237838 352.853189 
L 299.865081 354.260757 
L 297.733622 355.105297 
L 291.339243 358.000865 
L 286.59373 359.247568 
L 284.220973 359.770378 
L 281.808 360.132324 
L 267.370378 361.580108 
L 262.544432 361.700757 
L 251.002378 361.620324 
L 226.872649 361.298595 
L 226.872649 361.298595 
" style="fill:none;stroke:#583dfd;stroke-linecap:square;stroke-width:1.5;"/>
   </g>
   <g id="line2d_48">
    <path clip-path="url(#pb8bc040c9e)" d="M 402.175135 440.082162 
L 401.933838 440.162595 
L 402.215351 439.840865 
L 402.537081 439.036541 
L 402.697946 437.789838 
L 402.295784 435.698595 
L 401.290378 433.647568 
L 396.665514 427.816216 
L 389.868973 418.486054 
L 377.241081 401.152865 
L 369.318486 390.334703 
L 353.996108 369.341838 
L 352.347243 367.371243 
L 350.376649 366.164757 
L 348.44627 365.521297 
L 345.832216 364.95827 
L 343.620324 364.11373 
L 341.529081 362.706162 
L 339.880216 360.775784 
L 337.467243 356.794378 
L 336.099892 354.823784 
L 334.853189 352.692324 
L 334.20973 350.560865 
L 334.20973 348.027243 
L 335.134703 343.804541 
L 335.215135 341.592649 
L 335.778162 339.139459 
L 336.944432 336.927568 
L 338.392216 334.916757 
L 340.282378 332.785297 
L 341.126919 331.216865 
L 341.689946 328.723459 
L 341.609514 327.074595 
L 341.408432 326.189838 
L 340.523676 324.621405 
L 339.437838 323.495351 
L 338.352 322.771459 
L 337.467243 321.967135 
L 336.743351 320.599784 
L 336.502054 319.232432 
L 336.743351 319.031351 
L 337.587892 318.910703 
L 340.081297 318.870486 
L 342.172541 318.588973 
L 343.499676 318.025946 
L 343.459459 318.066162 
L 343.419243 318.186811 
L 343.379027 317.462919 
L 342.454054 315.452108 
L 340.925838 313.763027 
L 338.955243 312.596757 
L 336.743351 312.03373 
L 330.992432 312.03373 
L 328.579459 311.671784 
L 326.246919 311.189189 
L 324.035027 310.304432 
L 321.782919 309.741405 
L 319.490595 309.862054 
L 317.117838 310.827243 
L 315.267892 312.154378 
L 313.538595 313.039135 
L 313.216865 312.958703 
L 313.176649 312.87827 
L 312.774486 311.671784 
L 312.412541 309.500108 
L 311.688649 307.167568 
L 310.361514 305.277405 
L 308.551784 303.869838 
L 306.420324 303.025297 
L 303.605189 302.944865 
L 300.83027 303.588324 
L 298.417297 303.829622 
L 295.964108 303.387243 
L 293.671784 302.301405 
L 291.299027 300.732973 
L 289.127351 299.727568 
L 287.076324 299.164541 
L 284.864432 298.078703 
L 283.175351 296.630919 
L 280.159135 293.051676 
L 278.51027 291.443027 
L 276.660324 289.472432 
L 271.794162 283.44 
L 270.708324 281.067243 
L 270.386595 278.292324 
L 270.909405 273.868541 
L 271.633297 271.455568 
L 272.799568 268.962162 
L 273.684324 266.508973 
L 275.132108 261.803676 
L 276.016865 259.31027 
L 276.539676 257.259243 
L 277.062486 253.076757 
L 277.183135 250.704 
L 277.062486 248.04973 
L 276.780973 245.958486 
L 276.217946 243.344432 
L 275.494054 241.092324 
L 274.68973 239.12173 
L 273.644108 236.99027 
L 272.397405 234.979459 
L 270.828973 232.848 
L 269.260541 231.03827 
L 265.76173 227.539459 
L 262.464 223.196108 
L 260.815135 221.507027 
L 256.994595 218.128865 
L 253.294703 215.032216 
L 234.031135 199.669622 
L 226.671568 193.83827 
L 226.671568 193.83827 
" style="fill:none;stroke:#3177f8;stroke-linecap:square;stroke-width:1.5;"/>
   </g>
   <g id="line2d_49">
    <path clip-path="url(#pb8bc040c9e)" d="M 224.821622 136.047568 
L 225.465081 136.087784 
L 227.154162 136.409514 
L 229.044324 137.334486 
L 230.773622 138.78227 
L 232.020324 140.551784 
L 233.267027 142.522378 
L 235.921297 146.141838 
L 240.385297 152.17427 
L 244.648216 158.005622 
L 266.163892 187.202595 
L 268.013838 188.569946 
L 269.944216 189.253622 
L 274.488649 189.655784 
L 276.901622 190.178595 
L 279.395027 190.86227 
L 281.727568 191.023135 
L 284.301405 190.620973 
L 286.794811 190.620973 
L 289.489297 191.304649 
L 291.821838 192.108973 
L 296.728216 193.436108 
L 299.422703 193.717622 
L 302.076973 194.642595 
L 303.886703 195.929514 
L 305.616 198.101189 
L 306.943135 200.43373 
L 308.431135 202.323892 
L 310.039784 203.811892 
L 311.447351 205.541189 
L 313.015784 208.316108 
L 313.820108 209.321514 
L 314.544 209.603027 
L 315.951568 209.603027 
L 318.364541 208.798703 
L 320.656865 207.350919 
L 322.989405 206.425946 
L 325.482811 205.983568 
L 327.413189 205.299892 
L 331.836973 202.484757 
L 334.249946 201.760865 
L 336.461838 201.760865 
L 339.156324 202.565189 
L 341.408432 204.214054 
L 344.464865 207.87373 
L 350.054919 212.739892 
L 352.025514 213.986595 
L 353.996108 214.831135 
L 356.087351 216.198486 
L 359.50573 220.019027 
L 361.033946 221.185297 
L 362.723027 222.995027 
L 363.849081 225.247135 
L 364.613189 227.700324 
L 367.146811 234.738162 
L 368.272865 238.960865 
L 369.519568 241.212973 
L 370.524973 243.505297 
L 371.490162 248.773622 
L 372.093405 250.905081 
L 372.535784 253.318054 
L 372.978162 257.580973 
L 373.420541 259.873297 
L 374.466162 261.924324 
L 376.275892 264.015568 
L 377.924757 266.187243 
L 380.217081 270.490378 
L 381.463784 272.380541 
L 384.882162 275.517405 
L 386.370162 276.884757 
L 387.697297 277.648865 
L 389.024432 277.80973 
L 391.59827 277.568432 
L 393.769946 277.045622 
L 396.585081 277.005405 
L 398.957838 277.729297 
L 400.848 278.935784 
L 402.496865 280.825946 
L 403.582703 283.399784 
L 403.824 285.611676 
L 403.462054 290.437622 
L 403.462054 292.850595 
L 403.260973 295.545081 
L 401.692541 309.379459 
L 401.008865 316.859676 
L 400.727351 321.122595 
L 400.687135 325.667027 
L 400.284973 330.533189 
L 399.963243 333.187459 
L 399.118703 337.973189 
L 398.032865 342.96 
L 395.820973 352.330378 
L 393.72973 361.218162 
L 393.72973 361.218162 
" style="fill:none;stroke:#0aa9ee;stroke-linecap:square;stroke-width:1.5;"/>
   </g>
   <g id="line2d_50">
    <path clip-path="url(#pb8bc040c9e)" d="M 450.032432 304.955676 
L 449.791135 305.036108 
L 449.670486 305.277405 
L 449.670486 304.915459 
L 449.429189 304.151351 
L 448.78573 303.145946 
L 447.217297 301.859027 
L 445.327135 301.054703 
L 431.412324 298.32 
L 406.759784 293.132108 
L 398.113297 291.282162 
L 374.828108 286.456216 
L 372.535784 286.657297 
L 370.444541 287.542054 
L 368.835892 288.828973 
L 366.342486 292.207135 
L 364.371892 294.17773 
L 360.873081 297.234162 
L 357.615568 300.049297 
L 355.805838 301.456865 
L 353.513514 302.542703 
L 351.42227 303.306811 
L 349.371243 304.392649 
L 347.561514 305.558919 
L 345.47027 306.403459 
L 339.799784 307.650162 
L 336.984649 307.650162 
L 334.370595 306.725189 
L 332.359784 305.196973 
L 330.992432 303.548108 
L 329.424 301.899243 
L 327.734919 300.732973 
L 325.28173 300.009081 
L 322.989405 300.049297 
L 320.294919 300.934054 
L 318.002595 302.220973 
L 315.308108 303.145946 
L 313.096216 304.392649 
L 311.688649 305.880649 
L 310.522378 307.811027 
L 308.994162 310.022919 
L 308.069189 312.114162 
L 307.586595 315.090162 
L 306.943135 316.899892 
L 305.776865 318.428108 
L 304.329081 319.513946 
L 302.398703 320.076973 
L 299.34227 319.916108 
L 297.00973 318.991135 
L 294.838054 317.221622 
L 293.510919 315.291243 
L 292.264216 313.280432 
L 290.575135 311.712 
L 287.116541 309.701189 
L 284.784 308.856649 
L 282.612324 308.615351 
L 280.199351 308.213189 
L 278.188541 307.248 
L 276.057081 305.518703 
L 274.649514 303.910054 
L 272.920216 302.301405 
L 267.24973 298.239568 
L 258.040216 291.764757 
L 256.029405 290.518054 
L 251.042595 288.788757 
L 244.648216 285.370378 
L 240.707027 283.037838 
L 236.202811 280.102054 
L 234.272432 278.65427 
L 230.331243 275.316324 
L 227.154162 272.058811 
L 224.017297 268.761081 
L 222.288 267.152432 
L 218.748973 264.297081 
L 214.646919 261.321081 
L 202.783135 252.956108 
L 196.871351 248.813838 
L 196.871351 248.813838 
" style="fill:none;stroke:#1dd2e2;stroke-linecap:square;stroke-width:1.5;"/>
   </g>
   <g id="line2d_51">
    <path clip-path="url(#pb8bc040c9e)" d="M 140.367568 248.652973 
L 141.372973 248.652973 
L 145.676108 248.974703 
L 152.03027 249.738811 
L 198.922378 254.966919 
L 206.362378 255.650595 
L 208.172108 255.771243 
L 210.223135 255.449514 
L 212.274162 254.484324 
L 215.571892 251.749622 
L 216.456649 251.427892 
L 218.306595 250.985514 
L 220.236973 250.38227 
L 222.046703 249.53773 
L 223.695568 248.532324 
L 225.062919 247.526919 
L 226.390054 245.998703 
L 227.837838 243.706378 
L 228.320432 243.545514 
L 230.089946 243.424865 
L 232.502919 243.907459 
L 234.714811 245.113946 
L 236.283243 246.682378 
L 239.058162 251.02573 
L 240.626595 252.755027 
L 242.436324 254.323459 
L 244.044973 256.253838 
L 245.251459 258.184216 
L 246.216649 259.270054 
L 248.508973 260.436324 
L 250.519784 260.79827 
L 252.812108 260.556973 
L 254.70227 259.833081 
L 257.195676 258.304865 
L 258.804324 257.621189 
L 259.890162 257.379892 
L 260.694486 257.942919 
L 262.745514 260.114595 
L 264.997622 265.101405 
L 264.917189 265.061189 
L 265.279135 265.181838 
L 267.24973 265.382919 
L 269.662703 264.618811 
L 271.794162 263.653622 
L 274.126703 262.849297 
L 276.660324 261.763459 
L 278.590703 260.315676 
L 281.727568 257.138595 
L 283.416649 256.012541 
L 285.427459 255.208216 
L 287.800216 254.041946 
L 289.489297 252.755027 
L 295.240216 248.813838 
L 297.170595 247.446486 
L 298.618378 245.717189 
L 299.462919 243.827027 
L 299.784649 241.574919 
L 299.302054 239.041297 
L 298.899892 238.116324 
L 299.060757 238.236973 
L 299.181405 238.236973 
L 298.779243 238.317405 
L 297.814054 238.719568 
L 297.331459 239.081514 
L 296.728216 240.006486 
L 296.245622 241.735784 
L 296.165189 243.786811 
L 296.728216 245.998703 
L 297.934703 247.969297 
L 299.664 249.497514 
L 301.996541 250.502919 
L 304.570378 250.784432 
L 307.345297 250.744216 
L 309.516973 250.945297 
L 311.608216 250.905081 
L 313.458162 250.422486 
L 316.072216 249.980108 
L 318.284108 250.181189 
L 320.375351 250.663784 
L 322.748108 250.985514 
L 324.879568 251.146378 
L 327.252324 251.106162 
L 329.544649 250.583351 
L 331.716324 250.221405 
L 334.048865 250.422486 
L 336.421622 250.744216 
L 338.874811 250.905081 
L 341.287784 251.267027 
L 345.912649 252.553946 
L 348.245189 253.277838 
L 359.143784 257.661405 
L 363.768649 259.873297 
L 369.92173 263.130811 
L 374.425946 265.463351 
L 376.396541 266.267676 
L 378.688865 266.991568 
L 380.739892 267.514378 
L 383.474595 268.680649 
L 387.295135 271.737081 
L 389.26573 273.024 
L 391.437405 274.753297 
L 392.965622 276.241297 
L 392.965622 276.241297 
" style="fill:none;stroke:#45eed2;stroke-linecap:square;stroke-width:1.5;"/>
   </g>
   <g id="line2d_52">
    <path clip-path="url(#pb8bc040c9e)" d="M 281.124324 192.35027 
L 281.285189 192.35027 
L 281.968865 192.551351 
L 282.853622 193.074162 
L 283.61773 193.878486 
L 284.502486 195.567568 
L 284.864432 198.020757 
L 284.703568 200.393514 
L 284.502486 202.404324 
L 284.341622 205.058595 
L 284.301405 207.471568 
L 284.261189 209.321514 
L 284.220973 211.493189 
L 284.140541 214.147459 
L 284.100324 216.037622 
L 284.019892 218.450595 
L 283.979676 220.863568 
L 283.939459 222.995027 
L 283.859027 225.166703 
L 283.818811 227.579676 
L 283.738378 229.711135 
L 283.698162 232.124108 
L 283.61773 234.255568 
L 283.577514 236.427243 
L 283.537297 238.558703 
L 283.456865 241.253189 
L 283.416649 243.384649 
L 283.336216 245.797622 
L 283.255784 248.451892 
L 283.215568 250.905081 
L 283.175351 253.036541 
L 283.094919 255.449514 
L 283.135135 257.420108 
L 283.497081 259.591784 
L 283.818811 261.321081 
L 284.060108 263.77427 
L 284.060108 266.227459 
L 284.060108 268.640432 
L 284.019892 270.771892 
L 283.979676 272.662054 
L 283.939459 275.075027 
L 283.859027 277.206486 
L 283.738378 279.337946 
L 283.61773 281.750919 
L 283.537297 283.641081 
L 283.416649 286.054054 
L 283.296 288.467027 
L 283.175351 290.598486 
L 283.094919 292.729946 
L 282.97427 294.901622 
L 282.853622 297.314595 
L 282.732973 299.687351 
L 282.652541 301.859027 
L 282.531892 304.513297 
L 282.411243 306.92627 
L 282.330811 309.339243 
L 282.210162 311.752216 
L 282.12973 313.923892 
L 282.009081 316.336865 
L 281.888432 318.749838 
L 281.767784 320.881297 
L 281.647135 323.29427 
L 281.526486 325.42573 
L 281.405838 327.557189 
L 281.285189 329.447351 
L 281.204757 331.578811 
" style="fill:none;stroke:#6cfdbf;stroke-linecap:square;stroke-width:1.5;"/>
   </g>
   <g id="line2d_53">
    <path clip-path="url(#pb8bc040c9e)" d="M 140.367568 304.955676 
L 141.533838 304.955676 
L 143.826162 304.754595 
L 145.917405 304.392649 
L 148.008649 304.030703 
L 150.421622 303.628541 
L 152.512865 303.266595 
L 154.644324 302.904649 
L 157.017081 302.502486 
L 159.671351 302.060108 
L 161.762595 301.698162 
L 163.894054 301.336216 
L 165.985297 300.97427 
L 168.39827 300.612324 
L 170.489514 300.250378 
L 173.143784 299.808 
L 174.99373 299.48627 
L 177.084973 299.124324 
L 179.497946 298.722162 
L 181.870703 298.32 
L 183.720649 297.99827 
L 186.093405 297.596108 
L 188.224865 297.234162 
L 190.838919 296.791784 
L 193.251892 296.389622 
L 195.624649 295.987459 
L 197.715892 295.625514 
L 199.284324 295.344 
L 200.772324 294.982054 
L 202.260324 294.539676 
L 203.828757 294.097297 
L 205.155892 293.896216 
L 206.724324 294.097297 
L 209.016649 295.102703 
L 210.585081 296.228757 
L 212.354595 297.193946 
L 214.52627 297.636324 
L 216.577297 297.515676 
L 218.467459 297.033081 
L 220.840216 296.389622 
L 223.172757 295.826595 
L 225.264 295.384216 
L 227.636757 294.861405 
L 229.728 294.378811 
L 232.342054 293.815784 
L 234.714811 293.292973 
L 237.047351 292.770162 
L 239.420108 292.247351 
L 241.752649 291.724541 
L 244.125405 291.20173 
L 246.498162 290.678919 
L 248.830703 290.156108 
L 250.921946 289.71373 
L 253.013189 289.231135 
L 255.104432 288.748541 
L 257.718486 288.145297 
L 260.091243 287.58227 
L 262.423784 287.059459 
L 264.515027 286.617081 
L 266.887784 286.09427 
L 269.260541 285.651892 
L 271.633297 285.209514 
L 273.764757 284.847568 
L 276.137514 284.405189 
L 278.228757 284.003027 
L 280.32 283.560649 
L 282.169946 283.198703 
L 284.261189 282.716108 
L 286.59373 282.193297 
L 288.966486 281.670486 
L 291.580541 281.067243 
L 293.671784 280.544432 
L 295.722811 280.061838 
L 298.055351 279.458595 
L 300.146595 278.895568 
L 302.479135 278.211892 
L 305.093189 277.568432 
L 307.707243 277.045622 
" style="fill:none;stroke:#93fda9;stroke-linecap:square;stroke-width:1.5;"/>
   </g>
   <g id="line2d_54">
    <path clip-path="url(#pb8bc040c9e)" d="M 393.72973 220.501622 
L 393.971027 220.582054 
L 394.091676 220.863568 
L 394.011243 221.426595 
L 393.568865 222.552649 
L 392.643892 223.638486 
L 391.035243 224.684108 
L 388.702703 225.488432 
L 381.82573 226.694919 
L 372.374919 228.665514 
L 340.443243 235.381622 
L 338.392216 236.427243 
L 336.743351 238.035892 
L 334.370595 241.896649 
L 333.968432 242.178162 
L 332.882595 242.620541 
L 330.791351 242.861838 
L 328.579459 242.540108 
L 325.804541 241.494486 
L 323.592649 240.931459 
L 321.300324 241.011892 
L 319.32973 241.615135 
L 317.439568 242.902054 
L 315.871135 244.912865 
L 314.946162 247.044324 
L 313.619027 249.175784 
L 310.281081 252.433297 
L 309.074595 254.685405 
L 308.793081 256.213622 
L 309.114811 256.656 
L 311.125622 257.862486 
L 313.136432 258.304865 
L 315.428757 258.144 
L 317.318919 257.460324 
L 319.008 256.294054 
L 320.214486 254.966919 
L 322.225297 253.197405 
L 324.236108 252.232216 
L 326.448 251.87027 
L 328.25773 252.071351 
L 329.74573 252.875676 
L 331.113081 254.122378 
L 331.595676 254.685405 
L 331.555459 254.645189 
L 332.07827 254.806054 
L 333.56627 254.725622 
L 335.577081 253.800649 
L 337.467243 252.071351 
L 338.67373 249.859459 
L 339.116108 247.325838 
L 338.955243 245.797622 
L 339.035676 245.878054 
L 338.593297 245.556324 
L 337.145514 245.07373 
L 334.812973 245.234595 
L 332.681514 245.91827 
L 330.188108 246.159568 
L 327.976216 245.797622 
L 325.724108 244.671568 
L 323.914378 242.982486 
L 322.265514 240.408649 
L 320.496 238.076108 
L 319.571027 236.025081 
L 318.847135 233.008865 
L 316.997189 230.555676 
L 315.991784 229.791568 
L 313.860324 228.987243 
L 311.849514 228.786162 
L 309.677838 229.107892 
L 306.983351 229.228541 
L 304.811676 228.665514 
L 302.398703 227.459027 
L 300.347676 226.654703 
L 298.377081 226.292757 
L 294.194595 225.126486 
L 292.143568 224.201514 
L 290.333838 222.954811 
L 288.363243 221.748324 
L 279.555892 217.927784 
L 275.051676 216.15827 
L 272.55827 215.273514 
L 267.933405 214.026811 
L 265.600865 213.544216 
L 253.85773 211.975784 
L 248.911135 212.619243 
L 246.538378 212.900757 
L 243.924324 213.343135 
L 239.017946 214.589838 
L 234.473514 216.118054 
L 230.532324 217.766919 
L 228.642162 218.691892 
L 223.172757 222.150486 
L 220.759784 222.834162 
L 215.933838 223.115676 
L 211.349189 224.000432 
L 208.855784 223.92 
L 206.483027 223.558054 
L 204.391784 223.477622 
L 199.847351 223.879784 
L 197.273514 223.839568 
L 194.659459 224.161297 
L 190.275892 225.08627 
L 187.702054 225.810162 
L 183.318486 227.660108 
L 181.026162 228.947027 
L 179.055568 230.314378 
L 177.165405 231.762162 
L 175.194811 233.531676 
L 171.535135 237.432649 
L 167.835243 240.569514 
L 164.778811 243.907459 
L 160.475676 249.336649 
L 154.403027 257.540757 
L 147.485838 267.072 
L 141.61427 275.075027 
L 141.61427 275.075027 
" style="fill:none;stroke:#baee91;stroke-linecap:square;stroke-width:1.5;"/>
   </g>
   <g id="line2d_55">
    <path clip-path="url(#pb8bc040c9e)" d="M 140.367568 136.047568 
L 141.051243 136.047568 
L 142.820757 136.329081 
L 145.153297 137.29427 
L 146.882595 138.621405 
L 148.169514 140.028973 
L 149.778162 141.798486 
L 151.225946 143.326703 
L 152.915027 145.056 
L 154.604108 146.785297 
L 156.092108 148.313514 
L 157.942054 150.243892 
L 159.430054 151.812324 
L 160.918054 153.340541 
L 162.607135 155.069838 
L 164.457081 157.000216 
L 166.146162 158.729514 
L 167.634162 160.297946 
L 169.323243 162.027243 
L 170.811243 163.555459 
L 172.500324 165.284757 
L 173.988324 166.853189 
L 175.83827 168.743351 
L 177.32627 170.311784 
L 179.015351 172.041081 
L 180.865297 173.971459 
L 182.353297 175.499676 
L 183.841297 177.068108 
L 185.530378 178.797405 
L 187.179243 180.526703 
L 189.069405 182.457081 
L 190.557405 183.985297 
L 192.045405 185.55373 
L 193.533405 187.081946 
L 195.222486 188.811243 
L 196.710486 190.379676 
L 198.359351 192.108973 
L 200.048432 193.83827 
L 201.737514 195.567568 
L 203.225514 197.095784 
L 204.874378 198.865297 
L 206.362378 200.393514 
L 208.252541 202.323892 
L 209.740541 203.852108 
L 211.389405 205.581405 
L 212.877405 207.149838 
L 214.445838 208.758486 
L 215.772973 210.608432 
L 216.899027 212.136649 
L 218.266378 213.705081 
L 219.995676 215.394162 
L 221.523892 216.882162 
L 223.253189 218.571243 
L 224.741189 220.099459 
L 226.470486 221.828757 
L 228.360649 223.718919 
L 229.848649 225.247135 
L 231.577946 226.936216 
L 233.065946 228.464432 
L 234.956108 230.394811 
L 236.685405 232.083892 
L 238.575568 233.974054 
L 240.46573 235.864216 
L 241.993946 237.392432 
L 243.522162 238.880432 
L 245.010162 240.408649 
L 246.538378 241.936865 
L 247.584 243.022703 
L 247.90573 243.384649 
L 247.90573 243.384649 
L 248.267676 243.867243 
L 249.715459 245.395459 
L 251.324108 246.843243 
L 252.852324 248.331243 
" style="fill:none;stroke:#e2d277;stroke-linecap:square;stroke-width:1.5;"/>
   </g>
   <g id="line2d_56">
    <path clip-path="url(#pb8bc040c9e)" d="M 337.427027 164.198919 
L 337.668324 164.279351 
L 338.03027 164.802162 
L 338.392216 165.727135 
L 338.512865 167.335784 
L 337.990054 169.18573 
L 336.864 171.116108 
L 335.536865 172.805189 
L 333.968432 174.614919 
L 306.098595 210.487784 
L 303.967135 211.855135 
L 301.554162 212.579027 
L 296.647784 212.820324 
L 293.993514 213.142054 
L 291.419676 213.584432 
L 289.046919 214.227892 
L 286.553514 214.348541 
L 284.341622 213.946378 
L 282.330811 213.423568 
L 278.108108 212.619243 
L 274.247351 211.412757 
L 274.408216 211.372541 
L 274.166919 211.613838 
L 273.322378 213.061622 
L 272.88 214.549622 
L 272.839784 214.348541 
L 272.678919 214.187676 
L 272.598486 214.147459 
L 273.040865 214.107243 
L 274.448432 213.584432 
L 276.137514 212.136649 
L 277.464649 209.924757 
L 278.027676 207.431351 
L 277.705946 204.89773 
L 276.861405 202.806486 
L 276.338595 200.675027 
L 276.217946 198.583784 
L 275.896216 196.532757 
L 275.132108 194.642595 
L 273.885405 192.99373 
L 272.035459 191.666595 
L 269.863784 190.902486 
L 267.571459 190.822054 
L 265.037838 191.465514 
L 262.866162 192.35027 
L 258.402162 194.602378 
L 256.592432 196.412108 
L 255.385946 198.503351 
L 254.219676 200.272865 
L 253.133838 202.122811 
L 250.23827 208.396541 
L 248.187243 212.780108 
L 246.699243 214.469189 
L 244.608 215.836541 
L 242.396108 216.640865 
L 240.425514 217.766919 
L 237.007135 221.024432 
L 235.237622 222.230919 
L 233.307243 224.24173 
L 232.422486 225.890595 
L 231.095351 227.901405 
L 229.607351 229.510054 
L 228.481297 231.199135 
L 227.797622 232.968649 
L 226.591135 235.582703 
L 225.103135 237.63373 
L 223.776 239.926054 
L 223.092324 242.339027 
L 222.006486 244.591135 
L 220.47827 246.441081 
L 219.191351 248.371459 
L 218.346811 250.583351 
L 217.220757 253.076757 
L 215.612108 255.650595 
L 214.646919 257.82227 
L 213.882811 260.114595 
L 212.837189 262.246054 
L 211.228541 264.176432 
L 209.619892 265.90573 
L 208.373189 267.594811 
L 207.206919 269.565405 
L 206.442811 271.616432 
L 205.718919 274.150054 
L 204.995027 276.160865 
L 202.944 280.866162 
L 200.933189 285.24973 
L 199.244108 289.71373 
L 196.227892 299.164541 
L 190.275892 318.669405 
L 183.559784 340.426378 
L 180.020757 351.968432 
L 175.677405 366.084324 
L 169.242811 387.077189 
L 168.518919 389.40973 
L 168.518919 389.40973 
" style="fill:none;stroke:#ffa95a;stroke-linecap:square;stroke-width:1.5;"/>
   </g>
   <g id="line2d_57">
    <path clip-path="url(#pb8bc040c9e)" d="M 196.67027 445.712432 
L 197.193081 445.672216 
L 198.439784 445.390703 
L 200.128865 444.586378 
L 201.697297 443.259243 
L 202.903784 441.570162 
L 206.603676 435.457297 
L 210.182919 429.746595 
L 243.160216 377.344865 
L 245.532973 373.846054 
L 255.587027 358.322595 
L 257.557622 356.512865 
L 259.80973 355.427027 
L 266.364973 354.059676 
L 273.282162 352.008649 
L 276.016865 350.963027 
L 279.033081 350.681514 
L 281.244973 351.204324 
L 283.416649 352.410811 
L 285.186162 354.220541 
L 286.392649 356.713946 
L 286.835027 358.764973 
L 287.317622 360.132324 
L 287.237189 360.092108 
L 288.121946 360.252973 
L 290.41427 360.252973 
L 292.384865 359.730162 
L 294.596757 358.443243 
L 296.728216 356.191135 
L 299.020541 354.622703 
L 300.548757 354.180324 
L 302.278054 354.220541 
L 304.932324 355.065081 
L 307.385514 356.593297 
L 309.516973 357.51827 
L 311.769081 357.759568 
L 314.021189 357.317189 
L 315.951568 356.472649 
L 317.962378 355.788973 
L 320.214486 355.628108 
L 322.667676 356.191135 
L 324.63827 357.236757 
L 327.011027 359.328 
L 326.890378 359.287784 
L 327.212108 359.207351 
L 328.297946 358.604108 
L 329.74573 357.196541 
L 331.072865 354.944432 
L 333.847784 347.705514 
L 334.048865 345.453405 
L 333.727135 343.201297 
L 333.56627 340.707892 
L 334.008649 338.536216 
L 335.335784 336.083027 
L 337.065081 334.233081 
L 338.271568 332.302703 
L 339.719351 328.200649 
L 341.00627 326.149622 
L 341.810595 323.977946 
L 342.092108 321.846486 
L 342.49427 319.715027 
L 343.781189 317.261838 
L 345.269189 315.894486 
L 345.510486 315.894486 
L 346.153946 316.336865 
L 347.481081 317.744432 
L 348.566919 318.588973 
L 348.486486 318.588973 
L 348.245189 318.629189 
L 348.44627 318.428108 
L 348.969081 317.543351 
L 349.371243 315.934703 
L 349.290811 314.205405 
L 349.009297 313.803243 
L 348.124541 312.194595 
L 347.521297 309.741405 
L 347.641946 307.489297 
L 348.406054 305.116541 
L 349.692973 303.306811 
L 351.864649 301.577514 
L 354.237405 300.531892 
L 356.610162 299.285189 
L 358.500324 297.515676 
L 360.068757 295.303784 
L 361.637189 293.292973 
L 362.602378 291.20173 
L 362.924108 288.909405 
L 362.642595 286.898595 
L 361.596973 284.445405 
L 360.913297 283.319351 
L 358.419892 280.14227 
L 357.575351 277.769514 
L 357.454703 275.557622 
L 357.937297 273.385946 
L 359.143784 271.133838 
L 362.763243 267.273081 
L 363.929514 264.940541 
L 364.613189 263.090595 
L 365.739243 260.959135 
L 367.146811 259.109189 
L 368.313081 257.058162 
L 369.92173 252.634378 
L 370.76627 250.100757 
L 371.610811 245.958486 
L 371.892324 243.625946 
L 371.892324 239.12173 
L 372.374919 236.427243 
L 373.903135 229.952432 
L 393.528649 137.093189 
L 393.528649 137.093189 
" style="fill:none;stroke:#ff773d;stroke-linecap:square;stroke-width:1.5;"/>
   </g>
   <g id="line2d_58">
    <path clip-path="url(#pb8bc040c9e)" d="M 224.821622 333.107027 
L 225.103135 333.066811 
L 226.188973 332.745081 
L 227.355243 332.021189 
L 228.762811 330.694054 
L 229.929081 328.723459 
L 230.532324 326.752865 
L 231.135568 324.380108 
L 231.698595 322.329081 
L 232.422486 320.036757 
L 233.065946 317.98573 
L 233.789838 315.653189 
L 234.51373 313.360865 
L 235.157189 311.309838 
L 235.800649 309.258811 
L 236.524541 306.966486 
L 237.208216 304.674162 
L 237.932108 302.381838 
L 238.575568 300.330811 
L 239.299459 297.99827 
L 240.224432 295.545081 
L 241.591784 293.212541 
L 242.959135 291.161514 
L 243.964541 289.030054 
L 245.050378 286.576865 
L 246.096 284.405189 
L 247.061189 282.233514 
L 247.986162 279.981405 
L 248.830703 278.010811 
L 249.514378 276.281514 
L 250.23827 274.270703 
L 250.88173 272.259892 
L 251.042595 270.007784 
L 251.243676 267.554595 
L 251.927351 265.222054 
L 252.651243 263.050378 
L 252.892541 260.758054 
L 252.611027 258.626595 
L 252.651243 256.133189 
L 253.254486 253.961514 
L 254.139243 251.749622 
L 255.024 249.53773 
L 255.908757 247.285622 
L 256.954378 244.993297 
L 258.361946 243.264 
L 260.453189 241.574919 
L 262.343351 240.006486 
L 264.072649 238.357622 
L 265.801946 236.748973 
L 268.295351 235.462054 
L 270.748541 235.059892 
L 273.282162 235.301189 
L 274.931027 235.703351 
L 275.735351 235.824 
L 276.419027 235.824 
L 277.746162 235.301189 
L 279.636324 234.255568 
L 281.124324 233.491459 
L 281.727568 233.049081 
L 282.732973 232.284973 
L 283.416649 231.641514 
L 284.019892 230.796973 
L 284.703568 228.987243 
L 284.864432 227.257946 
L 284.784 225.206919 
L 284.703568 222.793946 
L 284.703568 220.099459 
L 284.743784 217.686486 
L 284.743784 215.514811 
L 284.784 213.383351 
L 284.864432 210.688865 
L 284.944865 208.557405 
L 285.10573 206.38573 
L 285.306811 204.535784 
L 285.588324 202.404324 
L 285.829622 199.991351 
L 285.95027 197.618595 
L 285.910054 195.245838 
L 285.749189 192.832865 
L 285.427459 190.178595 
L 285.065514 187.524324 
L 284.663351 184.91027 
L 284.140541 181.974486 
L 283.738378 179.60173 
L 283.336216 177.228973 
L 282.97427 175.097514 
L 282.572108 172.724757 
L 282.210162 170.633514 
L 281.808 168.260757 
L 281.405838 165.847784 
" style="fill:none;stroke:#ff3d1f;stroke-linecap:square;stroke-width:1.5;"/>
   </g>
   <g id="line2d_59">
    <path clip-path="url(#pb8bc040c9e)" d="M 281.124324 361.258378 
L 281.566703 361.258378 
L 282.893838 360.976865 
L 284.623135 360.172541 
L 285.990486 359.046486 
L 287.43827 357.236757 
L 288.323027 355.668324 
L 289.408865 353.818378 
L 290.816432 351.56627 
L 291.821838 349.957622 
L 293.108757 347.906595 
L 294.395676 345.855568 
L 295.52173 344.045838 
L 296.647784 342.236108 
L 297.934703 340.185081 
L 299.181405 338.134054 
L 300.347676 336.324324 
L 301.47373 334.514595 
L 302.760649 332.463568 
L 303.886703 330.613622 
L 305.173622 328.562595 
L 306.420324 326.511568 
L 307.42573 324.943135 
L 308.551784 323.133405 
L 309.959351 320.841081 
L 311.24627 318.790054 
L 312.372324 316.980324 
L 313.940757 314.486919 
L 315.066811 312.636973 
L 316.233081 310.827243 
L 317.359135 309.017514 
L 318.485189 307.207784 
L 319.892757 304.915459 
L 321.179676 302.864432 
L 322.466595 300.813405 
L 323.753514 298.762378 
L 325.161081 296.51027 
L 326.448 294.459243 
L 327.574054 292.609297 
L 328.860973 290.598486 
L 329.987027 288.748541 
L 331.394595 286.496432 
L 332.520649 284.686703 
L 333.807568 282.635676 
L 335.094486 280.584649 
L 336.220541 278.734703 
" style="fill:none;stroke:#ff0000;stroke-linecap:square;stroke-width:1.5;"/>
   </g>
   <g id="patch_3">
    <path d="M 72 512.64 
L 72 69.12 
" style="fill:none;stroke:#000000;stroke-linecap:square;stroke-linejoin:miter;stroke-width:0.8;"/>
   </g>
   <g id="patch_4">
    <path d="M 518.4 512.64 
L 518.4 69.12 
" style="fill:none;stroke:#000000;stroke-linecap:square;stroke-linejoin:miter;stroke-width:0.8;"/>
   </g>
   <g id="patch_5">
    <path d="M 72 512.64 
L 518.4 512.64 
" style="fill:none;stroke:#000000;stroke-linecap:square;stroke-linejoin:miter;stroke-width:0.8;"/>
   </g>
   <g id="patch_6">
    <path d="M 72 69.12 
L 518.4 69.12 
" style="fill:none;stroke:#000000;stroke-linecap:square;stroke-linejoin:miter;stroke-width:0.8;"/>
   </g>
   <g id="text_13">
    <!-- 1 -->
    <defs>
     <path d="M 14.203125 0 
L 14.203125 5.171875 
L 26.90625 5.171875 
L 26.90625 65.828125 
L 12.203125 56.296875 
L 12.203125 62.703125 
L 29.984375 74.21875 
L 36.71875 74.21875 
L 36.71875 5.171875 
L 49.421875 5.171875 
L 49.421875 0 
z
" id="DejaVuSerif-31"/>
    </defs>
    <g transform="translate(137.186318 389.40973)scale(0.1 -0.1)">
     <use xlink:href="#DejaVuSerif-31"/>
    </g>
   </g>
   <g id="text_14">
    <!-- 1 -->
    <g transform="translate(390.54848 192.35027)scale(0.1 -0.1)">
     <use xlink:href="#DejaVuSerif-31"/>
    </g>
   </g>
   <g id="text_15">
    <!-- 2 -->
    <defs>
     <path d="M 12.796875 55.515625 
L 7.328125 55.515625 
L 7.328125 68.5 
Q 12.546875 71.296875 17.84375 72.75 
Q 23.140625 74.21875 28.21875 74.21875 
Q 39.59375 74.21875 46.1875 68.703125 
Q 52.78125 63.1875 52.78125 53.71875 
Q 52.78125 43.015625 37.84375 28.125 
Q 36.671875 27 36.078125 26.421875 
L 17.671875 8.015625 
L 48.09375 8.015625 
L 48.09375 17 
L 53.8125 17 
L 53.8125 0 
L 6.78125 0 
L 6.78125 5.328125 
L 28.90625 27.390625 
Q 36.234375 34.71875 39.359375 40.84375 
Q 42.484375 46.96875 42.484375 53.71875 
Q 42.484375 61.078125 38.640625 65.234375 
Q 34.8125 69.390625 28.078125 69.390625 
Q 21.09375 69.390625 17.28125 65.921875 
Q 13.484375 62.453125 12.796875 55.515625 
z
" id="DejaVuSerif-32"/>
    </defs>
    <g transform="translate(446.851182 192.35027)scale(0.1 -0.1)">
     <use xlink:href="#DejaVuSerif-32"/>
    </g>
   </g>
   <g id="text_16">
    <!-- 2 -->
    <g transform="translate(221.640372 361.258378)scale(0.1 -0.1)">
     <use xlink:href="#DejaVuSerif-32"/>
    </g>
   </g>
   <g id="text_17">
    <!-- 3 -->
    <defs>
     <path d="M 9.71875 69.828125 
Q 15.4375 71.96875 20.671875 73.09375 
Q 25.921875 74.21875 30.515625 74.21875 
Q 41.21875 74.21875 47.21875 69.59375 
Q 53.21875 64.984375 53.21875 56.78125 
Q 53.21875 50.203125 49.0625 45.78125 
Q 44.921875 41.359375 37.3125 39.796875 
Q 46.296875 38.53125 51.25 33.28125 
Q 56.203125 28.03125 56.203125 19.671875 
Q 56.203125 9.46875 49.34375 4.015625 
Q 42.484375 -1.421875 29.59375 -1.421875 
Q 23.875 -1.421875 18.421875 -0.1875 
Q 12.984375 1.03125 7.625 3.515625 
L 7.625 17.671875 
L 13.09375 17.671875 
Q 13.578125 10.640625 17.828125 7.03125 
Q 22.078125 3.421875 29.78125 3.421875 
Q 37.25 3.421875 41.578125 7.734375 
Q 45.90625 12.0625 45.90625 19.578125 
Q 45.90625 28.171875 41.453125 32.59375 
Q 37.015625 37.015625 28.421875 37.015625 
L 23.78125 37.015625 
L 23.78125 42 
L 26.21875 42 
Q 34.765625 42 39.03125 45.53125 
Q 43.3125 49.078125 43.3125 56.203125 
Q 43.3125 62.59375 39.796875 65.984375 
Q 36.28125 69.390625 29.6875 69.390625 
Q 23.09375 69.390625 19.453125 66.265625 
Q 15.828125 63.140625 15.1875 56.984375 
L 9.71875 56.984375 
z
" id="DejaVuSerif-33"/>
    </defs>
    <g transform="translate(398.993885 440.082162)scale(0.1 -0.1)">
     <use xlink:href="#DejaVuSerif-33"/>
    </g>
   </g>
   <g id="text_18">
    <!-- 3 -->
    <g transform="translate(221.640372 192.35027)scale(0.1 -0.1)">
     <use xlink:href="#DejaVuSerif-33"/>
    </g>
   </g>
   <g id="text_19">
    <!-- 4 -->
    <defs>
     <path d="M 34.90625 24.703125 
L 34.90625 63.484375 
L 10.015625 24.703125 
z
M 56.390625 0 
L 23.1875 0 
L 23.1875 5.171875 
L 34.90625 5.171875 
L 34.90625 19.484375 
L 3.078125 19.484375 
L 3.078125 24.8125 
L 35.015625 74.21875 
L 44.671875 74.21875 
L 44.671875 24.703125 
L 58.59375 24.703125 
L 58.59375 19.484375 
L 44.671875 19.484375 
L 44.671875 5.171875 
L 56.390625 5.171875 
z
" id="DejaVuSerif-34"/>
    </defs>
    <g transform="translate(221.640372 136.047568)scale(0.1 -0.1)">
     <use xlink:href="#DejaVuSerif-34"/>
    </g>
   </g>
   <g id="text_20">
    <!-- 4 -->
    <g transform="translate(390.54848 361.258378)scale(0.1 -0.1)">
     <use xlink:href="#DejaVuSerif-34"/>
    </g>
   </g>
   <g id="text_21">
    <!-- 5 -->
    <defs>
     <path d="M 50.296875 72.90625 
L 50.296875 64.890625 
L 16.890625 64.890625 
L 16.890625 44 
Q 19.4375 45.75 22.828125 46.625 
Q 26.21875 47.515625 30.421875 47.515625 
Q 42.234375 47.515625 49.0625 40.96875 
Q 55.90625 34.421875 55.90625 23.09375 
Q 55.90625 11.53125 49 5.046875 
Q 42.09375 -1.421875 29.59375 -1.421875 
Q 24.5625 -1.421875 19.28125 -0.1875 
Q 14.015625 1.03125 8.5 3.515625 
L 8.5 17.671875 
L 14.015625 17.671875 
Q 14.453125 10.75 18.421875 7.078125 
Q 22.40625 3.421875 29.59375 3.421875 
Q 37.3125 3.421875 41.453125 8.5 
Q 45.609375 13.578125 45.609375 23.09375 
Q 45.609375 32.5625 41.484375 37.609375 
Q 37.359375 42.671875 29.59375 42.671875 
Q 25.203125 42.671875 21.84375 41.109375 
Q 18.5 39.546875 15.921875 36.28125 
L 11.71875 36.28125 
L 11.71875 72.90625 
z
" id="DejaVuSerif-35"/>
    </defs>
    <g transform="translate(446.851182 304.955676)scale(0.1 -0.1)">
     <use xlink:href="#DejaVuSerif-35"/>
    </g>
   </g>
   <g id="text_22">
    <!-- 5 -->
    <g transform="translate(193.48902 248.652973)scale(0.1 -0.1)">
     <use xlink:href="#DejaVuSerif-35"/>
    </g>
   </g>
   <g id="text_23">
    <!-- 6 -->
    <defs>
     <path d="M 32.71875 3.421875 
Q 39.59375 3.421875 43.296875 8.46875 
Q 47.015625 13.53125 47.015625 23 
Q 47.015625 32.46875 43.296875 37.515625 
Q 39.59375 42.578125 32.71875 42.578125 
Q 25.734375 42.578125 22.0625 37.6875 
Q 18.40625 32.8125 18.40625 23.578125 
Q 18.40625 13.875 22.109375 8.640625 
Q 25.828125 3.421875 32.71875 3.421875 
z
M 16.796875 40.140625 
Q 20.125 43.796875 24.3125 45.59375 
Q 28.515625 47.40625 33.796875 47.40625 
Q 44.671875 47.40625 51 40.859375 
Q 57.328125 34.328125 57.328125 23 
Q 57.328125 11.921875 50.515625 5.25 
Q 43.703125 -1.421875 32.328125 -1.421875 
Q 19.96875 -1.421875 13.328125 7.78125 
Q 6.6875 17 6.6875 34.078125 
Q 6.6875 53.21875 14.546875 63.71875 
Q 22.40625 74.21875 36.71875 74.21875 
Q 40.578125 74.21875 44.828125 73.484375 
Q 49.078125 72.75 53.515625 71.296875 
L 53.515625 59.28125 
L 48 59.28125 
Q 47.40625 64.203125 44.234375 66.796875 
Q 41.0625 69.390625 35.6875 69.390625 
Q 26.21875 69.390625 21.578125 62.203125 
Q 16.9375 55.03125 16.796875 40.140625 
z
" id="DejaVuSerif-36"/>
    </defs>
    <g transform="translate(137.186318 248.652973)scale(0.1 -0.1)">
     <use xlink:href="#DejaVuSerif-36"/>
    </g>
   </g>
   <g id="text_24">
    <!-- 6 -->
    <g transform="translate(390.54848 276.804324)scale(0.1 -0.1)">
     <use xlink:href="#DejaVuSerif-36"/>
    </g>
   </g>
   <g id="text_25">
    <!-- 7 -->
    <defs>
     <path d="M 56.390625 67.921875 
L 27.875 0 
L 20.609375 0 
L 47.796875 64.890625 
L 14.109375 64.890625 
L 14.109375 55.90625 
L 8.40625 55.90625 
L 8.40625 72.90625 
L 56.390625 72.90625 
z
" id="DejaVuSerif-37"/>
    </defs>
    <g transform="translate(277.943074 192.35027)scale(0.1 -0.1)">
     <use xlink:href="#DejaVuSerif-37"/>
    </g>
   </g>
   <g id="text_26">
    <!-- 7 -->
    <g transform="translate(277.943074 333.107027)scale(0.1 -0.1)">
     <use xlink:href="#DejaVuSerif-37"/>
    </g>
   </g>
   <g id="text_27">
    <!-- 8 -->
    <defs>
     <path d="M 46.578125 19.921875 
Q 46.578125 27.734375 42.6875 32.046875 
Q 38.8125 36.375 31.78125 36.375 
Q 24.75 36.375 20.875 32.046875 
Q 17 27.734375 17 19.921875 
Q 17 12.0625 20.875 7.734375 
Q 24.75 3.421875 31.78125 3.421875 
Q 38.8125 3.421875 42.6875 7.734375 
Q 46.578125 12.0625 46.578125 19.921875 
z
M 44.578125 55.328125 
Q 44.578125 61.96875 41.203125 65.671875 
Q 37.84375 69.390625 31.78125 69.390625 
Q 25.78125 69.390625 22.390625 65.671875 
Q 19 61.96875 19 55.328125 
Q 19 48.640625 22.390625 44.921875 
Q 25.78125 41.21875 31.78125 41.21875 
Q 37.84375 41.21875 41.203125 44.921875 
Q 44.578125 48.640625 44.578125 55.328125 
z
M 39.3125 38.8125 
Q 47.609375 37.703125 52.25 32.6875 
Q 56.890625 27.6875 56.890625 19.921875 
Q 56.890625 9.671875 50.390625 4.125 
Q 43.890625 -1.421875 31.78125 -1.421875 
Q 19.734375 -1.421875 13.203125 4.125 
Q 6.6875 9.671875 6.6875 19.921875 
Q 6.6875 27.6875 11.328125 32.6875 
Q 15.96875 37.703125 24.3125 38.8125 
Q 16.9375 40.140625 13 44.40625 
Q 9.078125 48.6875 9.078125 55.328125 
Q 9.078125 64.109375 15.125 69.15625 
Q 21.1875 74.21875 31.78125 74.21875 
Q 42.390625 74.21875 48.4375 69.15625 
Q 54.5 64.109375 54.5 55.328125 
Q 54.5 48.6875 50.5625 44.40625 
Q 46.625 40.140625 39.3125 38.8125 
z
" id="DejaVuSerif-38"/>
    </defs>
    <g transform="translate(137.186318 304.955676)scale(0.1 -0.1)">
     <use xlink:href="#DejaVuSerif-38"/>
    </g>
   </g>
   <g id="text_28">
    <!-- 8 -->
    <g transform="translate(306.094426 276.804324)scale(0.1 -0.1)">
     <use xlink:href="#DejaVuSerif-38"/>
    </g>
   </g>
   <g id="text_29">
    <!-- 9 -->
    <defs>
     <path d="M 46.78125 32.671875 
Q 43.5 29 39.25 27.1875 
Q 35.015625 25.390625 29.6875 25.390625 
Q 18.84375 25.390625 12.5625 31.9375 
Q 6.296875 38.484375 6.296875 49.8125 
Q 6.296875 60.890625 13.109375 67.546875 
Q 19.921875 74.21875 31.296875 74.21875 
Q 43.65625 74.21875 50.265625 65.015625 
Q 56.890625 55.8125 56.890625 38.71875 
Q 56.890625 19.578125 49.015625 9.078125 
Q 41.15625 -1.421875 26.90625 -1.421875 
Q 23.046875 -1.421875 18.796875 -0.6875 
Q 14.546875 0.046875 10.109375 1.515625 
L 10.109375 13.625 
L 15.578125 13.625 
Q 16.21875 8.6875 19.390625 6.046875 
Q 22.5625 3.421875 27.875 3.421875 
Q 37.359375 3.421875 41.984375 10.5625 
Q 46.625 17.71875 46.78125 32.671875 
z
M 30.90625 69.390625 
Q 23.96875 69.390625 20.28125 64.328125 
Q 16.609375 59.28125 16.609375 49.8125 
Q 16.609375 40.328125 20.28125 35.25 
Q 23.96875 30.171875 30.90625 30.171875 
Q 37.84375 30.171875 41.53125 35.078125 
Q 45.21875 39.984375 45.21875 49.21875 
Q 45.21875 58.9375 41.5 64.15625 
Q 37.796875 69.390625 30.90625 69.390625 
z
" id="DejaVuSerif-39"/>
    </defs>
    <g transform="translate(390.54848 220.501622)scale(0.1 -0.1)">
     <use xlink:href="#DejaVuSerif-39"/>
    </g>
   </g>
   <g id="text_30">
    <!-- 9 -->
    <g transform="translate(137.186318 276.804324)scale(0.1 -0.1)">
     <use xlink:href="#DejaVuSerif-39"/>
    </g>
   </g>
   <g id="text_31">
    <!-- 10 -->
    <defs>
     <path d="M 31.78125 3.421875 
Q 39.265625 3.421875 42.96875 11.625 
Q 46.6875 19.828125 46.6875 36.375 
Q 46.6875 52.984375 42.96875 61.1875 
Q 39.265625 69.390625 31.78125 69.390625 
Q 24.3125 69.390625 20.59375 61.1875 
Q 16.890625 52.984375 16.890625 36.375 
Q 16.890625 19.828125 20.59375 11.625 
Q 24.3125 3.421875 31.78125 3.421875 
z
M 31.78125 -1.421875 
Q 19.921875 -1.421875 13.25 8.53125 
Q 6.59375 18.5 6.59375 36.375 
Q 6.59375 54.296875 13.25 64.25 
Q 19.921875 74.21875 31.78125 74.21875 
Q 43.703125 74.21875 50.34375 64.25 
Q 56.984375 54.296875 56.984375 36.375 
Q 56.984375 18.5 50.34375 8.53125 
Q 43.703125 -1.421875 31.78125 -1.421875 
z
" id="DejaVuSerif-30"/>
    </defs>
    <g transform="translate(134.005068 136.047568)scale(0.1 -0.1)">
     <use xlink:href="#DejaVuSerif-31"/>
     <use x="63.623047" xlink:href="#DejaVuSerif-30"/>
    </g>
   </g>
   <g id="text_32">
    <!-- 10 -->
    <g transform="translate(246.610473 248.652973)scale(0.1 -0.1)">
     <use xlink:href="#DejaVuSerif-31"/>
     <use x="63.623047" xlink:href="#DejaVuSerif-30"/>
    </g>
   </g>
   <g id="text_33">
    <!-- 11 -->
    <g transform="translate(331.064527 164.198919)scale(0.1 -0.1)">
     <use xlink:href="#DejaVuSerif-31"/>
     <use x="63.623047" xlink:href="#DejaVuSerif-31"/>
    </g>
   </g>
   <g id="text_34">
    <!-- 11 -->
    <g transform="translate(162.156419 389.40973)scale(0.1 -0.1)">
     <use xlink:href="#DejaVuSerif-31"/>
     <use x="63.623047" xlink:href="#DejaVuSerif-31"/>
    </g>
   </g>
   <g id="text_35">
    <!-- 12 -->
    <g transform="translate(190.30777 445.712432)scale(0.1 -0.1)">
     <use xlink:href="#DejaVuSerif-31"/>
     <use x="63.623047" xlink:href="#DejaVuSerif-32"/>
    </g>
   </g>
   <g id="text_36">
    <!-- 12 -->
    <g transform="translate(387.36723 136.047568)scale(0.1 -0.1)">
     <use xlink:href="#DejaVuSerif-31"/>
     <use x="63.623047" xlink:href="#DejaVuSerif-32"/>
    </g>
   </g>
   <g id="text_37">
    <!-- 13 -->
    <g transform="translate(218.459122 333.107027)scale(0.1 -0.1)">
     <use xlink:href="#DejaVuSerif-31"/>
     <use x="63.623047" xlink:href="#DejaVuSerif-33"/>
    </g>
   </g>
   <g id="text_38">
    <!-- 13 -->
    <g transform="translate(274.761824 164.198919)scale(0.1 -0.1)">
     <use xlink:href="#DejaVuSerif-31"/>
     <use x="63.623047" xlink:href="#DejaVuSerif-33"/>
    </g>
   </g>
   <g id="text_39">
    <!-- 14 -->
    <g transform="translate(274.761824 361.258378)scale(0.1 -0.1)">
     <use xlink:href="#DejaVuSerif-31"/>
     <use x="63.623047" xlink:href="#DejaVuSerif-34"/>
    </g>
   </g>
   <g id="text_40">
    <!-- 14 -->
    <g transform="translate(331.064527 276.804324)scale(0.1 -0.1)">
     <use xlink:href="#DejaVuSerif-31"/>
     <use x="63.623047" xlink:href="#DejaVuSerif-34"/>
    </g>
   </g>
   <g id="text_41">
    <!-- MRPP -->
    <defs>
     <path d="M 9.8125 72.90625 
L 24.515625 72.90625 
L 43.109375 23.296875 
L 61.8125 72.90625 
L 76.515625 72.90625 
L 76.515625 0 
L 66.890625 0 
L 66.890625 64.015625 
L 48.09375 14.015625 
L 38.1875 14.015625 
L 19.390625 64.015625 
L 19.390625 0 
L 9.8125 0 
z
" id="DejaVuSans-4d"/>
     <path d="M 44.390625 34.1875 
Q 47.5625 33.109375 50.5625 29.59375 
Q 53.5625 26.078125 56.59375 19.921875 
L 66.609375 0 
L 56 0 
L 46.6875 18.703125 
Q 43.0625 26.03125 39.671875 28.421875 
Q 36.28125 30.8125 30.421875 30.8125 
L 19.671875 30.8125 
L 19.671875 0 
L 9.8125 0 
L 9.8125 72.90625 
L 32.078125 72.90625 
Q 44.578125 72.90625 50.734375 67.671875 
Q 56.890625 62.453125 56.890625 51.90625 
Q 56.890625 45.015625 53.6875 40.46875 
Q 50.484375 35.9375 44.390625 34.1875 
z
M 19.671875 64.796875 
L 19.671875 38.921875 
L 32.078125 38.921875 
Q 39.203125 38.921875 42.84375 42.21875 
Q 46.484375 45.515625 46.484375 51.90625 
Q 46.484375 58.296875 42.84375 61.546875 
Q 39.203125 64.796875 32.078125 64.796875 
z
" id="DejaVuSans-52"/>
     <path d="M 19.671875 64.796875 
L 19.671875 37.40625 
L 32.078125 37.40625 
Q 38.96875 37.40625 42.71875 40.96875 
Q 46.484375 44.53125 46.484375 51.125 
Q 46.484375 57.671875 42.71875 61.234375 
Q 38.96875 64.796875 32.078125 64.796875 
z
M 9.8125 72.90625 
L 32.078125 72.90625 
Q 44.34375 72.90625 50.609375 67.359375 
Q 56.890625 61.8125 56.890625 51.125 
Q 56.890625 40.328125 50.609375 34.8125 
Q 44.34375 29.296875 32.078125 29.296875 
L 19.671875 29.296875 
L 19.671875 0 
L 9.8125 0 
z
" id="DejaVuSans-50"/>
    </defs>
    <g transform="translate(278.618437 63.12)scale(0.12 -0.12)">
     <use xlink:href="#DejaVuSans-4d"/>
     <use x="86.279297" xlink:href="#DejaVuSans-52"/>
     <use x="155.761719" xlink:href="#DejaVuSans-50"/>
     <use x="216.064453" xlink:href="#DejaVuSans-50"/>
    </g>
   </g>
  </g>
 </g>
 <defs>
  <clipPath id="pb8bc040c9e">
   <rect height="443.52" width="446.4" x="72" y="69.12"/>
  </clipPath>
 </defs>
</svg>
