<?xml version="1.0" encoding="utf-8" standalone="no"?>
<!DOCTYPE svg PUBLIC "-//W3C//DTD SVG 1.1//EN"
  "http://www.w3.org/Graphics/SVG/1.1/DTD/svg11.dtd">
<!-- Created with matplotlib (http://matplotlib.org/) -->
<svg height="576pt" version="1.1" viewBox="0 0 576 576" width="576pt" xmlns="http://www.w3.org/2000/svg" xmlns:xlink="http://www.w3.org/1999/xlink">
 <defs>
  <style type="text/css">
*{stroke-linecap:butt;stroke-linejoin:round;}
  </style>
 </defs>
 <g id="figure_1">
  <g id="patch_1">
   <path d="M 0 576 
L 576 576 
L 576 0 
L 0 0 
z
" style="fill:#ffffff;"/>
  </g>
  <g id="axes_1">
   <g id="patch_2">
    <path d="M 72 512.64 
L 518.4 512.64 
L 518.4 69.12 
L 72 69.12 
z
" style="fill:#ffffff;"/>
   </g>
   <g id="matplotlib.axis_1">
    <g id="xtick_1">
     <g id="line2d_1">
      <defs>
       <path d="M 0 0 
L 0 3.5 
" id="m602d5280b4" style="stroke:#000000;stroke-width:0.8;"/>
      </defs>
      <g>
       <use style="stroke:#000000;stroke-width:0.8;" x="72" xlink:href="#m602d5280b4" y="512.64"/>
      </g>
     </g>
     <g id="text_1">
      <!-- −1 -->
      <defs>
       <path d="M 10.59375 35.5 
L 73.1875 35.5 
L 73.1875 27.203125 
L 10.59375 27.203125 
z
" id="DejaVuSans-2212"/>
       <path d="M 12.40625 8.296875 
L 28.515625 8.296875 
L 28.515625 63.921875 
L 10.984375 60.40625 
L 10.984375 69.390625 
L 28.421875 72.90625 
L 38.28125 72.90625 
L 38.28125 8.296875 
L 54.390625 8.296875 
L 54.390625 0 
L 12.40625 0 
z
" id="DejaVuSans-31"/>
      </defs>
      <g transform="translate(64.628906 527.238438)scale(0.1 -0.1)">
       <use xlink:href="#DejaVuSans-2212"/>
       <use x="83.789062" xlink:href="#DejaVuSans-31"/>
      </g>
     </g>
    </g>
    <g id="xtick_2">
     <g id="line2d_2">
      <g>
       <use style="stroke:#000000;stroke-width:0.8;" x="125.783133" xlink:href="#m602d5280b4" y="512.64"/>
      </g>
     </g>
     <g id="text_2">
      <!-- 0 -->
      <defs>
       <path d="M 31.78125 66.40625 
Q 24.171875 66.40625 20.328125 58.90625 
Q 16.5 51.421875 16.5 36.375 
Q 16.5 21.390625 20.328125 13.890625 
Q 24.171875 6.390625 31.78125 6.390625 
Q 39.453125 6.390625 43.28125 13.890625 
Q 47.125 21.390625 47.125 36.375 
Q 47.125 51.421875 43.28125 58.90625 
Q 39.453125 66.40625 31.78125 66.40625 
z
M 31.78125 74.21875 
Q 44.046875 74.21875 50.515625 64.515625 
Q 56.984375 54.828125 56.984375 36.375 
Q 56.984375 17.96875 50.515625 8.265625 
Q 44.046875 -1.421875 31.78125 -1.421875 
Q 19.53125 -1.421875 13.0625 8.265625 
Q 6.59375 17.96875 6.59375 36.375 
Q 6.59375 54.828125 13.0625 64.515625 
Q 19.53125 74.21875 31.78125 74.21875 
z
" id="DejaVuSans-30"/>
      </defs>
      <g transform="translate(122.601883 527.238438)scale(0.1 -0.1)">
       <use xlink:href="#DejaVuSans-30"/>
      </g>
     </g>
    </g>
    <g id="xtick_3">
     <g id="line2d_3">
      <g>
       <use style="stroke:#000000;stroke-width:0.8;" x="179.566265" xlink:href="#m602d5280b4" y="512.64"/>
      </g>
     </g>
     <g id="text_3">
      <!-- 1 -->
      <g transform="translate(176.385015 527.238438)scale(0.1 -0.1)">
       <use xlink:href="#DejaVuSans-31"/>
      </g>
     </g>
    </g>
    <g id="xtick_4">
     <g id="line2d_4">
      <g>
       <use style="stroke:#000000;stroke-width:0.8;" x="233.349398" xlink:href="#m602d5280b4" y="512.64"/>
      </g>
     </g>
     <g id="text_4">
      <!-- 2 -->
      <defs>
       <path d="M 19.1875 8.296875 
L 53.609375 8.296875 
L 53.609375 0 
L 7.328125 0 
L 7.328125 8.296875 
Q 12.9375 14.109375 22.625 23.890625 
Q 32.328125 33.6875 34.8125 36.53125 
Q 39.546875 41.84375 41.421875 45.53125 
Q 43.3125 49.21875 43.3125 52.78125 
Q 43.3125 58.59375 39.234375 62.25 
Q 35.15625 65.921875 28.609375 65.921875 
Q 23.96875 65.921875 18.8125 64.3125 
Q 13.671875 62.703125 7.8125 59.421875 
L 7.8125 69.390625 
Q 13.765625 71.78125 18.9375 73 
Q 24.125 74.21875 28.421875 74.21875 
Q 39.75 74.21875 46.484375 68.546875 
Q 53.21875 62.890625 53.21875 53.421875 
Q 53.21875 48.921875 51.53125 44.890625 
Q 49.859375 40.875 45.40625 35.40625 
Q 44.1875 33.984375 37.640625 27.21875 
Q 31.109375 20.453125 19.1875 8.296875 
z
" id="DejaVuSans-32"/>
      </defs>
      <g transform="translate(230.168148 527.238438)scale(0.1 -0.1)">
       <use xlink:href="#DejaVuSans-32"/>
      </g>
     </g>
    </g>
    <g id="xtick_5">
     <g id="line2d_5">
      <g>
       <use style="stroke:#000000;stroke-width:0.8;" x="287.13253" xlink:href="#m602d5280b4" y="512.64"/>
      </g>
     </g>
     <g id="text_5">
      <!-- 3 -->
      <defs>
       <path d="M 40.578125 39.3125 
Q 47.65625 37.796875 51.625 33 
Q 55.609375 28.21875 55.609375 21.1875 
Q 55.609375 10.40625 48.1875 4.484375 
Q 40.765625 -1.421875 27.09375 -1.421875 
Q 22.515625 -1.421875 17.65625 -0.515625 
Q 12.796875 0.390625 7.625 2.203125 
L 7.625 11.71875 
Q 11.71875 9.328125 16.59375 8.109375 
Q 21.484375 6.890625 26.8125 6.890625 
Q 36.078125 6.890625 40.9375 10.546875 
Q 45.796875 14.203125 45.796875 21.1875 
Q 45.796875 27.640625 41.28125 31.265625 
Q 36.765625 34.90625 28.71875 34.90625 
L 20.21875 34.90625 
L 20.21875 43.015625 
L 29.109375 43.015625 
Q 36.375 43.015625 40.234375 45.921875 
Q 44.09375 48.828125 44.09375 54.296875 
Q 44.09375 59.90625 40.109375 62.90625 
Q 36.140625 65.921875 28.71875 65.921875 
Q 24.65625 65.921875 20.015625 65.03125 
Q 15.375 64.15625 9.8125 62.3125 
L 9.8125 71.09375 
Q 15.4375 72.65625 20.34375 73.4375 
Q 25.25 74.21875 29.59375 74.21875 
Q 40.828125 74.21875 47.359375 69.109375 
Q 53.90625 64.015625 53.90625 55.328125 
Q 53.90625 49.265625 50.4375 45.09375 
Q 46.96875 40.921875 40.578125 39.3125 
z
" id="DejaVuSans-33"/>
      </defs>
      <g transform="translate(283.95128 527.238438)scale(0.1 -0.1)">
       <use xlink:href="#DejaVuSans-33"/>
      </g>
     </g>
    </g>
    <g id="xtick_6">
     <g id="line2d_6">
      <g>
       <use style="stroke:#000000;stroke-width:0.8;" x="340.915663" xlink:href="#m602d5280b4" y="512.64"/>
      </g>
     </g>
     <g id="text_6">
      <!-- 4 -->
      <defs>
       <path d="M 37.796875 64.3125 
L 12.890625 25.390625 
L 37.796875 25.390625 
z
M 35.203125 72.90625 
L 47.609375 72.90625 
L 47.609375 25.390625 
L 58.015625 25.390625 
L 58.015625 17.1875 
L 47.609375 17.1875 
L 47.609375 0 
L 37.796875 0 
L 37.796875 17.1875 
L 4.890625 17.1875 
L 4.890625 26.703125 
z
" id="DejaVuSans-34"/>
      </defs>
      <g transform="translate(337.734413 527.238438)scale(0.1 -0.1)">
       <use xlink:href="#DejaVuSans-34"/>
      </g>
     </g>
    </g>
    <g id="xtick_7">
     <g id="line2d_7">
      <g>
       <use style="stroke:#000000;stroke-width:0.8;" x="394.698795" xlink:href="#m602d5280b4" y="512.64"/>
      </g>
     </g>
     <g id="text_7">
      <!-- 5 -->
      <defs>
       <path d="M 10.796875 72.90625 
L 49.515625 72.90625 
L 49.515625 64.59375 
L 19.828125 64.59375 
L 19.828125 46.734375 
Q 21.96875 47.46875 24.109375 47.828125 
Q 26.265625 48.1875 28.421875 48.1875 
Q 40.625 48.1875 47.75 41.5 
Q 54.890625 34.8125 54.890625 23.390625 
Q 54.890625 11.625 47.5625 5.09375 
Q 40.234375 -1.421875 26.90625 -1.421875 
Q 22.3125 -1.421875 17.546875 -0.640625 
Q 12.796875 0.140625 7.71875 1.703125 
L 7.71875 11.625 
Q 12.109375 9.234375 16.796875 8.0625 
Q 21.484375 6.890625 26.703125 6.890625 
Q 35.15625 6.890625 40.078125 11.328125 
Q 45.015625 15.765625 45.015625 23.390625 
Q 45.015625 31 40.078125 35.4375 
Q 35.15625 39.890625 26.703125 39.890625 
Q 22.75 39.890625 18.8125 39.015625 
Q 14.890625 38.140625 10.796875 36.28125 
z
" id="DejaVuSans-35"/>
      </defs>
      <g transform="translate(391.517545 527.238438)scale(0.1 -0.1)">
       <use xlink:href="#DejaVuSans-35"/>
      </g>
     </g>
    </g>
    <g id="xtick_8">
     <g id="line2d_8">
      <g>
       <use style="stroke:#000000;stroke-width:0.8;" x="448.481928" xlink:href="#m602d5280b4" y="512.64"/>
      </g>
     </g>
     <g id="text_8">
      <!-- 6 -->
      <defs>
       <path d="M 33.015625 40.375 
Q 26.375 40.375 22.484375 35.828125 
Q 18.609375 31.296875 18.609375 23.390625 
Q 18.609375 15.53125 22.484375 10.953125 
Q 26.375 6.390625 33.015625 6.390625 
Q 39.65625 6.390625 43.53125 10.953125 
Q 47.40625 15.53125 47.40625 23.390625 
Q 47.40625 31.296875 43.53125 35.828125 
Q 39.65625 40.375 33.015625 40.375 
z
M 52.59375 71.296875 
L 52.59375 62.3125 
Q 48.875 64.0625 45.09375 64.984375 
Q 41.3125 65.921875 37.59375 65.921875 
Q 27.828125 65.921875 22.671875 59.328125 
Q 17.53125 52.734375 16.796875 39.40625 
Q 19.671875 43.65625 24.015625 45.921875 
Q 28.375 48.1875 33.59375 48.1875 
Q 44.578125 48.1875 50.953125 41.515625 
Q 57.328125 34.859375 57.328125 23.390625 
Q 57.328125 12.15625 50.6875 5.359375 
Q 44.046875 -1.421875 33.015625 -1.421875 
Q 20.359375 -1.421875 13.671875 8.265625 
Q 6.984375 17.96875 6.984375 36.375 
Q 6.984375 53.65625 15.1875 63.9375 
Q 23.390625 74.21875 37.203125 74.21875 
Q 40.921875 74.21875 44.703125 73.484375 
Q 48.484375 72.75 52.59375 71.296875 
z
" id="DejaVuSans-36"/>
      </defs>
      <g transform="translate(445.300678 527.238438)scale(0.1 -0.1)">
       <use xlink:href="#DejaVuSans-36"/>
      </g>
     </g>
    </g>
    <g id="xtick_9">
     <g id="line2d_9">
      <g>
       <use style="stroke:#000000;stroke-width:0.8;" x="502.26506" xlink:href="#m602d5280b4" y="512.64"/>
      </g>
     </g>
     <g id="text_9">
      <!-- 7 -->
      <defs>
       <path d="M 8.203125 72.90625 
L 55.078125 72.90625 
L 55.078125 68.703125 
L 28.609375 0 
L 18.3125 0 
L 43.21875 64.59375 
L 8.203125 64.59375 
z
" id="DejaVuSans-37"/>
      </defs>
      <g transform="translate(499.08381 527.238438)scale(0.1 -0.1)">
       <use xlink:href="#DejaVuSans-37"/>
      </g>
     </g>
    </g>
   </g>
   <g id="matplotlib.axis_2">
    <g id="ytick_1">
     <g id="line2d_10">
      <defs>
       <path d="M 0 0 
L -3.5 0 
" id="m46813b6ae8" style="stroke:#000000;stroke-width:0.8;"/>
      </defs>
      <g>
       <use style="stroke:#000000;stroke-width:0.8;" x="72" xlink:href="#m46813b6ae8" y="460.296867"/>
      </g>
     </g>
     <g id="text_10">
      <!-- 0 -->
      <g transform="translate(58.6375 464.096086)scale(0.1 -0.1)">
       <use xlink:href="#DejaVuSans-30"/>
      </g>
     </g>
    </g>
    <g id="ytick_2">
     <g id="line2d_11">
      <g>
       <use style="stroke:#000000;stroke-width:0.8;" x="72" xlink:href="#m46813b6ae8" y="406.513735"/>
      </g>
     </g>
     <g id="text_11">
      <!-- 1 -->
      <g transform="translate(58.6375 410.312954)scale(0.1 -0.1)">
       <use xlink:href="#DejaVuSans-31"/>
      </g>
     </g>
    </g>
    <g id="ytick_3">
     <g id="line2d_12">
      <g>
       <use style="stroke:#000000;stroke-width:0.8;" x="72" xlink:href="#m46813b6ae8" y="352.730602"/>
      </g>
     </g>
     <g id="text_12">
      <!-- 2 -->
      <g transform="translate(58.6375 356.529821)scale(0.1 -0.1)">
       <use xlink:href="#DejaVuSans-32"/>
      </g>
     </g>
    </g>
    <g id="ytick_4">
     <g id="line2d_13">
      <g>
       <use style="stroke:#000000;stroke-width:0.8;" x="72" xlink:href="#m46813b6ae8" y="298.94747"/>
      </g>
     </g>
     <g id="text_13">
      <!-- 3 -->
      <g transform="translate(58.6375 302.746689)scale(0.1 -0.1)">
       <use xlink:href="#DejaVuSans-33"/>
      </g>
     </g>
    </g>
    <g id="ytick_5">
     <g id="line2d_14">
      <g>
       <use style="stroke:#000000;stroke-width:0.8;" x="72" xlink:href="#m46813b6ae8" y="245.164337"/>
      </g>
     </g>
     <g id="text_14">
      <!-- 4 -->
      <g transform="translate(58.6375 248.963556)scale(0.1 -0.1)">
       <use xlink:href="#DejaVuSans-34"/>
      </g>
     </g>
    </g>
    <g id="ytick_6">
     <g id="line2d_15">
      <g>
       <use style="stroke:#000000;stroke-width:0.8;" x="72" xlink:href="#m46813b6ae8" y="191.381205"/>
      </g>
     </g>
     <g id="text_15">
      <!-- 5 -->
      <g transform="translate(58.6375 195.180424)scale(0.1 -0.1)">
       <use xlink:href="#DejaVuSans-35"/>
      </g>
     </g>
    </g>
    <g id="ytick_7">
     <g id="line2d_16">
      <g>
       <use style="stroke:#000000;stroke-width:0.8;" x="72" xlink:href="#m46813b6ae8" y="137.598072"/>
      </g>
     </g>
     <g id="text_16">
      <!-- 6 -->
      <g transform="translate(58.6375 141.397291)scale(0.1 -0.1)">
       <use xlink:href="#DejaVuSans-36"/>
      </g>
     </g>
    </g>
    <g id="ytick_8">
     <g id="line2d_17">
      <g>
       <use style="stroke:#000000;stroke-width:0.8;" x="72" xlink:href="#m46813b6ae8" y="83.81494"/>
      </g>
     </g>
     <g id="text_17">
      <!-- 7 -->
      <g transform="translate(58.6375 87.614159)scale(0.1 -0.1)">
       <use xlink:href="#DejaVuSans-37"/>
      </g>
     </g>
    </g>
   </g>
   <g id="line2d_18">
    <path clip-path="url(#pbbed9cd8e0)" d="M 170.594042 383.988829 
" style="fill:none;stroke:#1f77b4;stroke-linecap:square;stroke-width:1.5;"/>
    <defs>
     <path d="M -5 5 
L 5 5 
L 5 -5 
L -5 -5 
z
" id="m36f494db61" style="stroke:#8000ff;stroke-linejoin:miter;"/>
    </defs>
    <g clip-path="url(#pbbed9cd8e0)">
     <use style="fill:#8000ff;stroke:#8000ff;stroke-linejoin:miter;" x="170.594042" xlink:href="#m36f494db61" y="383.988829"/>
    </g>
   </g>
   <g id="line2d_19">
    <path clip-path="url(#pbbed9cd8e0)" d="M 141.442672 138.366723 
" style="fill:none;stroke:#ff7f0e;stroke-linecap:square;stroke-width:1.5;"/>
    <defs>
     <path d="M 0 -5 
L -4.755283 -1.545085 
L -2.938926 4.045085 
L 2.938926 4.045085 
L 4.755283 -1.545085 
z
" id="mbb72fa0365" style="stroke:#8000ff;stroke-linejoin:miter;"/>
    </defs>
    <g clip-path="url(#pbbed9cd8e0)">
     <use style="fill:#8000ff;stroke:#8000ff;stroke-linejoin:miter;" x="141.442672" xlink:href="#mbb72fa0365" y="138.366723"/>
    </g>
   </g>
   <g id="line2d_20">
    <path clip-path="url(#pbbed9cd8e0)" d="M 309.565694 156.023604 
" style="fill:none;stroke:#2ca02c;stroke-linecap:square;stroke-width:1.5;"/>
    <defs>
     <path d="M -5 5 
L 5 5 
L 5 -5 
L -5 -5 
z
" id="mf061e8c5ee" style="stroke:#376ff9;stroke-linejoin:miter;"/>
    </defs>
    <g clip-path="url(#pbbed9cd8e0)">
     <use style="fill:#376ff9;stroke:#376ff9;stroke-linejoin:miter;" x="309.565694" xlink:href="#mf061e8c5ee" y="156.023604"/>
    </g>
   </g>
   <g id="line2d_21">
    <path clip-path="url(#pbbed9cd8e0)" d="M 227.266774 407.821902 
" style="fill:none;stroke:#d62728;stroke-linecap:square;stroke-width:1.5;"/>
    <defs>
     <path d="M 0 -5 
L -4.755283 -1.545085 
L -2.938926 4.045085 
L 2.938926 4.045085 
L 4.755283 -1.545085 
z
" id="mca53b8e826" style="stroke:#376ff9;stroke-linejoin:miter;"/>
    </defs>
    <g clip-path="url(#pbbed9cd8e0)">
     <use style="fill:#376ff9;stroke:#376ff9;stroke-linejoin:miter;" x="227.266774" xlink:href="#mca53b8e826" y="407.821902"/>
    </g>
   </g>
   <g id="line2d_22">
    <path clip-path="url(#pbbed9cd8e0)" d="M 140.426916 261.233736 
" style="fill:none;stroke:#9467bd;stroke-linecap:square;stroke-width:1.5;"/>
    <defs>
     <path d="M -5 5 
L 5 5 
L 5 -5 
L -5 -5 
z
" id="m0c22855767" style="stroke:#12c7e6;stroke-linejoin:miter;"/>
    </defs>
    <g clip-path="url(#pbbed9cd8e0)">
     <use style="fill:#12c7e6;stroke:#12c7e6;stroke-linejoin:miter;" x="140.426916" xlink:href="#m0c22855767" y="261.233736"/>
    </g>
   </g>
   <g id="line2d_23">
    <path clip-path="url(#pbbed9cd8e0)" d="M 393.856228 290.562192 
" style="fill:none;stroke:#8c564b;stroke-linecap:square;stroke-width:1.5;"/>
    <defs>
     <path d="M 0 -5 
L -4.755283 -1.545085 
L -2.938926 4.045085 
L 2.938926 4.045085 
L 4.755283 -1.545085 
z
" id="ma30b6b5b8d" style="stroke:#12c7e6;stroke-linejoin:miter;"/>
    </defs>
    <g clip-path="url(#pbbed9cd8e0)">
     <use style="fill:#12c7e6;stroke:#12c7e6;stroke-linejoin:miter;" x="393.856228" xlink:href="#ma30b6b5b8d" y="290.562192"/>
    </g>
   </g>
   <g id="line2d_24">
    <path clip-path="url(#pbbed9cd8e0)" d="M 344.362781 317.894461 
" style="fill:none;stroke:#e377c2;stroke-linecap:square;stroke-width:1.5;"/>
    <defs>
     <path d="M -5 5 
L 5 5 
L 5 -5 
L -5 -5 
z
" id="maca84b0350" style="stroke:#5bf9c7;stroke-linejoin:miter;"/>
    </defs>
    <g clip-path="url(#pbbed9cd8e0)">
     <use style="fill:#5bf9c7;stroke:#5bf9c7;stroke-linejoin:miter;" x="344.362781" xlink:href="#maca84b0350" y="317.894461"/>
    </g>
   </g>
   <g id="line2d_25">
    <path clip-path="url(#pbbed9cd8e0)" d="M 378.404297 122.723631 
" style="fill:none;stroke:#7f7f7f;stroke-linecap:square;stroke-width:1.5;"/>
    <defs>
     <path d="M 0 -5 
L -4.755283 -1.545085 
L -2.938926 4.045085 
L 2.938926 4.045085 
L 4.755283 -1.545085 
z
" id="m173f7ab280" style="stroke:#5bf9c7;stroke-linejoin:miter;"/>
    </defs>
    <g clip-path="url(#pbbed9cd8e0)">
     <use style="fill:#5bf9c7;stroke:#5bf9c7;stroke-linejoin:miter;" x="378.404297" xlink:href="#m173f7ab280" y="122.723631"/>
    </g>
   </g>
   <g id="line2d_26">
    <path clip-path="url(#pbbed9cd8e0)" d="M 234.977268 454.769403 
" style="fill:none;stroke:#bcbd22;stroke-linecap:square;stroke-width:1.5;"/>
    <defs>
     <path d="M -5 5 
L 5 5 
L 5 -5 
L -5 -5 
z
" id="md7c8a97d72" style="stroke:#a4f99f;stroke-linejoin:miter;"/>
    </defs>
    <g clip-path="url(#pbbed9cd8e0)">
     <use style="fill:#a4f99f;stroke:#a4f99f;stroke-linejoin:miter;" x="234.977268" xlink:href="#md7c8a97d72" y="454.769403"/>
    </g>
   </g>
   <g id="line2d_27">
    <path clip-path="url(#pbbed9cd8e0)" d="M 169.173699 230.129692 
" style="fill:none;stroke:#17becf;stroke-linecap:square;stroke-width:1.5;"/>
    <defs>
     <path d="M 0 -5 
L -4.755283 -1.545085 
L -2.938926 4.045085 
L 2.938926 4.045085 
L 4.755283 -1.545085 
z
" id="m43aa989270" style="stroke:#a4f99f;stroke-linejoin:miter;"/>
    </defs>
    <g clip-path="url(#pbbed9cd8e0)">
     <use style="fill:#a4f99f;stroke:#a4f99f;stroke-linejoin:miter;" x="169.173699" xlink:href="#m43aa989270" y="230.129692"/>
    </g>
   </g>
   <g id="line2d_28">
    <path clip-path="url(#pbbed9cd8e0)" d="M 242.974711 285.641054 
" style="fill:none;stroke:#1f77b4;stroke-linecap:square;stroke-width:1.5;"/>
    <defs>
     <path d="M -5 5 
L 5 5 
L 5 -5 
L -5 -5 
z
" id="m14833f1175" style="stroke:#edc76f;stroke-linejoin:miter;"/>
    </defs>
    <g clip-path="url(#pbbed9cd8e0)">
     <use style="fill:#edc76f;stroke:#edc76f;stroke-linejoin:miter;" x="242.974711" xlink:href="#m14833f1175" y="285.641054"/>
    </g>
   </g>
   <g id="line2d_29">
    <path clip-path="url(#pbbed9cd8e0)" d="M 430.322654 360.003689 
" style="fill:none;stroke:#ff7f0e;stroke-linecap:square;stroke-width:1.5;"/>
    <defs>
     <path d="M 0 -5 
L -4.755283 -1.545085 
L -2.938926 4.045085 
L 2.938926 4.045085 
L 4.755283 -1.545085 
z
" id="m3232655abc" style="stroke:#edc76f;stroke-linejoin:miter;"/>
    </defs>
    <g clip-path="url(#pbbed9cd8e0)">
     <use style="fill:#edc76f;stroke:#edc76f;stroke-linejoin:miter;" x="430.322654" xlink:href="#m3232655abc" y="360.003689"/>
    </g>
   </g>
   <g id="line2d_30">
    <path clip-path="url(#pbbed9cd8e0)" d="M 323.795805 389.460377 
" style="fill:none;stroke:#2ca02c;stroke-linecap:square;stroke-width:1.5;"/>
    <defs>
     <path d="M -5 5 
L 5 5 
L 5 -5 
L -5 -5 
z
" id="mc772dca68d" style="stroke:#ff6f39;stroke-linejoin:miter;"/>
    </defs>
    <g clip-path="url(#pbbed9cd8e0)">
     <use style="fill:#ff6f39;stroke:#ff6f39;stroke-linejoin:miter;" x="323.795805" xlink:href="#mc772dca68d" y="389.460377"/>
    </g>
   </g>
   <g id="line2d_31">
    <path clip-path="url(#pbbed9cd8e0)" d="M 129.449475 361.616745 
" style="fill:none;stroke:#d62728;stroke-linecap:square;stroke-width:1.5;"/>
    <defs>
     <path d="M 0 -5 
L -4.755283 -1.545085 
L -2.938926 4.045085 
L 2.938926 4.045085 
L 4.755283 -1.545085 
z
" id="m89c1ac195b" style="stroke:#ff6f39;stroke-linejoin:miter;"/>
    </defs>
    <g clip-path="url(#pbbed9cd8e0)">
     <use style="fill:#ff6f39;stroke:#ff6f39;stroke-linejoin:miter;" x="129.449475" xlink:href="#m89c1ac195b" y="361.616745"/>
    </g>
   </g>
   <g id="line2d_32">
    <path clip-path="url(#pbbed9cd8e0)" d="M 145.167411 307.823728 
" style="fill:none;stroke:#9467bd;stroke-linecap:square;stroke-width:1.5;"/>
    <defs>
     <path d="M -5 5 
L 5 5 
L 5 -5 
L -5 -5 
z
" id="mbfa70e35da" style="stroke:#ff0000;stroke-linejoin:miter;"/>
    </defs>
    <g clip-path="url(#pbbed9cd8e0)">
     <use style="fill:#ff0000;stroke:#ff0000;stroke-linejoin:miter;" x="145.167411" xlink:href="#mbfa70e35da" y="307.823728"/>
    </g>
   </g>
   <g id="line2d_33">
    <path clip-path="url(#pbbed9cd8e0)" d="M 312.995898 205.71632 
" style="fill:none;stroke:#8c564b;stroke-linecap:square;stroke-width:1.5;"/>
    <defs>
     <path d="M 0 -5 
L -4.755283 -1.545085 
L -2.938926 4.045085 
L 2.938926 4.045085 
L 4.755283 -1.545085 
z
" id="mf1d31999a8" style="stroke:#ff0000;stroke-linejoin:miter;"/>
    </defs>
    <g clip-path="url(#pbbed9cd8e0)">
     <use style="fill:#ff0000;stroke:#ff0000;stroke-linejoin:miter;" x="312.995898" xlink:href="#mf1d31999a8" y="205.71632"/>
    </g>
   </g>
   <g id="line2d_34">
    <defs>
     <path d="M 0 2.5 
C 0.663008 2.5 1.29895 2.236584 1.767767 1.767767 
C 2.236584 1.29895 2.5 0.663008 2.5 0 
C 2.5 -0.663008 2.236584 -1.29895 1.767767 -1.767767 
C 1.29895 -2.236584 0.663008 -2.5 0 -2.5 
C -0.663008 -2.5 -1.29895 -2.236584 -1.767767 -1.767767 
C -2.236584 -1.29895 -2.5 -0.663008 -2.5 0 
C -2.5 0.663008 -2.236584 1.29895 -1.767767 1.767767 
C -1.29895 2.236584 -0.663008 2.5 0 2.5 
z
" id="m81521e1178" style="stroke:#000000;"/>
    </defs>
    <g clip-path="url(#pbbed9cd8e0)">
     <use style="stroke:#000000;" x="224.258362" xlink:href="#m81521e1178" y="233.486448"/>
     <use style="stroke:#000000;" x="213.28082" xlink:href="#m81521e1178" y="188.784666"/>
     <use style="stroke:#000000;" x="354.781039" xlink:href="#m81521e1178" y="242.572165"/>
     <use style="stroke:#000000;" x="286.83734" xlink:href="#m81521e1178" y="257.892302"/>
     <use style="stroke:#000000;" x="184.667125" xlink:href="#m81521e1178" y="423.498589"/>
     <use style="stroke:#000000;" x="238.530399" xlink:href="#m81521e1178" y="172.148633"/>
     <use style="stroke:#000000;" x="390.160381" xlink:href="#m81521e1178" y="197.27019"/>
     <use style="stroke:#000000;" x="368.996721" xlink:href="#m81521e1178" y="416.443701"/>
     <use style="stroke:#000000;" x="404.06036" xlink:href="#m81521e1178" y="222.608072"/>
     <use style="stroke:#000000;" x="411.735933" xlink:href="#m81521e1178" y="435.764265"/>
     <use style="stroke:#000000;" x="280.733575" xlink:href="#m81521e1178" y="413.764951"/>
     <use style="stroke:#000000;" x="457.910642" xlink:href="#m81521e1178" y="434.034779"/>
     <use style="stroke:#000000;" x="460.146383" xlink:href="#m81521e1178" y="335.59221"/>
     <use style="stroke:#000000;" x="192.852367" xlink:href="#m81521e1178" y="351.467401"/>
     <use style="stroke:#000000;" x="231.154961" xlink:href="#m81521e1178" y="341.647342"/>
     <use style="stroke:#000000;" x="225.90561" xlink:href="#m81521e1178" y="180.466649"/>
     <use style="stroke:#000000;" x="397.110371" xlink:href="#m81521e1178" y="209.939131"/>
    </g>
   </g>
   <g id="line2d_35">
    <path clip-path="url(#pbbed9cd8e0)" d="M 245.771616 233.486448 
L 244.605968 226.501106 
L 241.235342 220.272734 
L 236.024997 215.476274 
L 229.539554 212.631495 
L 222.481812 212.046674 
L 215.616587 213.785185 
L 209.687833 217.658633 
L 205.338021 223.247271 
L 203.038522 229.945483 
L 203.038522 237.027413 
L 205.338021 243.725625 
L 209.687833 249.314263 
L 215.616587 253.187711 
L 222.481812 254.926222 
L 229.539554 254.341401 
L 236.024997 251.496622 
L 241.235342 246.700161 
L 244.605968 240.47179 
L 245.771616 233.486448 
" style="fill:none;stroke:#000000;stroke-dasharray:5.55,2.4;stroke-dashoffset:0;stroke-width:1.5;"/>
   </g>
   <g id="line2d_36">
    <path clip-path="url(#pbbed9cd8e0)" d="M 230.174507 233.486448 
L 229.853954 231.565479 
L 228.927032 229.852677 
L 227.494187 228.53365 
L 225.71069 227.751336 
L 223.769811 227.59051 
L 221.881874 228.0686 
L 220.251467 229.133799 
L 219.055269 230.670674 
L 218.422906 232.512682 
L 218.422906 234.460213 
L 219.055269 236.302221 
L 220.251467 237.839097 
L 221.881874 238.904295 
L 223.769811 239.382386 
L 225.71069 239.22156 
L 227.494187 238.439246 
L 228.927032 237.120219 
L 229.853954 235.407417 
L 230.174507 233.486448 
" style="fill:none;stroke:#ff0000;stroke-linecap:square;stroke-width:1.5;"/>
   </g>
   <g id="line2d_37">
    <path clip-path="url(#pbbed9cd8e0)" d="M 234.794073 188.784666 
L 233.628426 181.799324 
L 230.2578 175.570952 
L 225.047455 170.774491 
L 218.562012 167.929713 
L 211.50427 167.344891 
L 204.639045 169.083402 
L 198.710291 172.956851 
L 194.360479 178.545489 
L 192.06098 185.243701 
L 192.06098 192.325631 
L 194.360479 199.023842 
L 198.710291 204.61248 
L 204.639045 208.485929 
L 211.50427 210.22444 
L 218.562012 209.639619 
L 225.047455 206.79484 
L 230.2578 201.998379 
L 233.628426 195.770008 
L 234.794073 188.784666 
" style="fill:none;stroke:#000000;stroke-dasharray:5.55,2.4;stroke-dashoffset:0;stroke-width:1.5;"/>
   </g>
   <g id="line2d_38">
    <path clip-path="url(#pbbed9cd8e0)" d="M 219.196965 188.784666 
L 218.876412 186.863697 
L 217.94949 185.150895 
L 216.516645 183.831868 
L 214.733148 183.049554 
L 212.792269 182.888728 
L 210.904332 183.366818 
L 209.273925 184.432017 
L 208.077727 185.968892 
L 207.445364 187.8109 
L 207.445364 189.758431 
L 208.077727 191.600439 
L 209.273925 193.137315 
L 210.904332 194.202513 
L 212.792269 194.680604 
L 214.733148 194.519778 
L 216.516645 193.737464 
L 217.94949 192.418437 
L 218.876412 190.705635 
L 219.196965 188.784666 
" style="fill:none;stroke:#ff0000;stroke-linecap:square;stroke-width:1.5;"/>
   </g>
   <g id="line2d_39">
    <path clip-path="url(#pbbed9cd8e0)" d="M 376.294292 242.572165 
L 375.128645 235.586823 
L 371.758019 229.358451 
L 366.547674 224.56199 
L 360.062231 221.717212 
L 353.004489 221.13239 
L 346.139264 222.870901 
L 340.21051 226.74435 
L 335.860698 232.332988 
L 333.561199 239.0312 
L 333.561199 246.11313 
L 335.860698 252.811341 
L 340.21051 258.399979 
L 346.139264 262.273428 
L 353.004489 264.011939 
L 360.062231 263.427118 
L 366.547674 260.582339 
L 371.758019 255.785878 
L 375.128645 249.557507 
L 376.294292 242.572165 
" style="fill:none;stroke:#000000;stroke-dasharray:5.55,2.4;stroke-dashoffset:0;stroke-width:1.5;"/>
   </g>
   <g id="line2d_40">
    <path clip-path="url(#pbbed9cd8e0)" d="M 360.697184 242.572165 
L 360.376631 240.651196 
L 359.449709 238.938394 
L 358.016864 237.619367 
L 356.233367 236.837053 
L 354.292488 236.676227 
L 352.404551 237.154317 
L 350.774144 238.219516 
L 349.577946 239.756391 
L 348.945583 241.598399 
L 348.945583 243.54593 
L 349.577946 245.387938 
L 350.774144 246.924814 
L 352.404551 247.990012 
L 354.292488 248.468103 
L 356.233367 248.307277 
L 358.016864 247.524963 
L 359.449709 246.205936 
L 360.376631 244.493134 
L 360.697184 242.572165 
" style="fill:none;stroke:#ff0000;stroke-linecap:square;stroke-width:1.5;"/>
   </g>
   <g id="line2d_41">
    <path clip-path="url(#pbbed9cd8e0)" d="M 308.350593 257.892302 
L 307.184945 250.90696 
L 303.814319 244.678589 
L 298.603974 239.882128 
L 292.118531 237.037349 
L 285.060789 236.452528 
L 278.195564 238.191039 
L 272.26681 242.064487 
L 267.916998 247.653125 
L 265.617499 254.351337 
L 265.617499 261.433267 
L 267.916998 268.131479 
L 272.26681 273.720117 
L 278.195564 277.593565 
L 285.060789 279.332076 
L 292.118531 278.747255 
L 298.603974 275.902476 
L 303.814319 271.106016 
L 307.184945 264.877644 
L 308.350593 257.892302 
" style="fill:none;stroke:#000000;stroke-dasharray:5.55,2.4;stroke-dashoffset:0;stroke-width:1.5;"/>
   </g>
   <g id="line2d_42">
    <path clip-path="url(#pbbed9cd8e0)" d="M 292.753484 257.892302 
L 292.432931 255.971333 
L 291.506009 254.258531 
L 290.073164 252.939504 
L 288.289667 252.15719 
L 286.348788 251.996364 
L 284.460851 252.474455 
L 282.830444 253.539653 
L 281.634246 255.076529 
L 281.001884 256.918537 
L 281.001884 258.866068 
L 281.634246 260.708076 
L 282.830444 262.244951 
L 284.460851 263.31015 
L 286.348788 263.78824 
L 288.289667 263.627414 
L 290.073164 262.8451 
L 291.506009 261.526073 
L 292.432931 259.813271 
L 292.753484 257.892302 
" style="fill:none;stroke:#ff0000;stroke-linecap:square;stroke-width:1.5;"/>
   </g>
   <g id="line2d_43">
    <path clip-path="url(#pbbed9cd8e0)" d="M 206.180378 423.498589 
L 205.01473 416.513247 
L 201.644104 410.284876 
L 196.433759 405.488415 
L 189.948316 402.643636 
L 182.890574 402.058815 
L 176.025349 403.797326 
L 170.096595 407.670775 
L 165.746783 413.259412 
L 163.447284 419.957624 
L 163.447284 427.039554 
L 165.746783 433.737766 
L 170.096595 439.326404 
L 176.025349 443.199852 
L 182.890574 444.938364 
L 189.948316 444.353542 
L 196.433759 441.508763 
L 201.644104 436.712303 
L 205.01473 430.483931 
L 206.180378 423.498589 
" style="fill:none;stroke:#000000;stroke-dasharray:5.55,2.4;stroke-dashoffset:0;stroke-width:1.5;"/>
   </g>
   <g id="line2d_44">
    <path clip-path="url(#pbbed9cd8e0)" d="M 190.583269 423.498589 
L 190.262716 421.57762 
L 189.335794 419.864818 
L 187.902949 418.545791 
L 186.119452 417.763477 
L 184.178573 417.602651 
L 182.290636 418.080742 
L 180.660229 419.14594 
L 179.464031 420.682816 
L 178.831668 422.524824 
L 178.831668 424.472355 
L 179.464031 426.314363 
L 180.660229 427.851238 
L 182.290636 428.916437 
L 184.178573 429.394527 
L 186.119452 429.233701 
L 187.902949 428.451387 
L 189.335794 427.13236 
L 190.262716 425.419558 
L 190.583269 423.498589 
" style="fill:none;stroke:#ff0000;stroke-linecap:square;stroke-width:1.5;"/>
   </g>
   <g id="line2d_45">
    <path clip-path="url(#pbbed9cd8e0)" d="M 260.043652 172.148633 
L 258.878004 165.163291 
L 255.507378 158.934919 
L 250.297033 154.138459 
L 243.81159 151.29368 
L 236.753848 150.708859 
L 229.888623 152.44737 
L 223.959869 156.320818 
L 219.610057 161.909456 
L 217.310558 168.607668 
L 217.310558 175.689598 
L 219.610057 182.38781 
L 223.959869 187.976448 
L 229.888623 191.849896 
L 236.753848 193.588407 
L 243.81159 193.003586 
L 250.297033 190.158807 
L 255.507378 185.362346 
L 258.878004 179.133975 
L 260.043652 172.148633 
" style="fill:none;stroke:#000000;stroke-dasharray:5.55,2.4;stroke-dashoffset:0;stroke-width:1.5;"/>
   </g>
   <g id="line2d_46">
    <path clip-path="url(#pbbed9cd8e0)" d="M 244.446543 172.148633 
L 244.12599 170.227664 
L 243.199068 168.514862 
L 241.766223 167.195835 
L 239.982726 166.413521 
L 238.041847 166.252695 
L 236.15391 166.730786 
L 234.523503 167.795984 
L 233.327305 169.332859 
L 232.694942 171.174868 
L 232.694942 173.122398 
L 233.327305 174.964407 
L 234.523503 176.501282 
L 236.15391 177.56648 
L 238.041847 178.044571 
L 239.982726 177.883745 
L 241.766223 177.101431 
L 243.199068 175.782404 
L 244.12599 174.069602 
L 244.446543 172.148633 
" style="fill:none;stroke:#ff0000;stroke-linecap:square;stroke-width:1.5;"/>
   </g>
   <g id="line2d_47">
    <path clip-path="url(#pbbed9cd8e0)" d="M 411.673634 197.27019 
L 410.507987 190.284849 
L 407.137361 184.056477 
L 401.927015 179.260016 
L 395.441573 176.415237 
L 388.383831 175.830416 
L 381.518606 177.568927 
L 375.589851 181.442376 
L 371.24004 187.031014 
L 368.940541 193.729225 
L 368.940541 200.811155 
L 371.24004 207.509367 
L 375.589851 213.098005 
L 381.518606 216.971454 
L 388.383831 218.709965 
L 395.441573 218.125144 
L 401.927015 215.280365 
L 407.137361 210.483904 
L 410.507987 204.255532 
L 411.673634 197.27019 
" style="fill:none;stroke:#000000;stroke-dasharray:5.55,2.4;stroke-dashoffset:0;stroke-width:1.5;"/>
   </g>
   <g id="line2d_48">
    <path clip-path="url(#pbbed9cd8e0)" d="M 396.076526 197.27019 
L 395.755973 195.349221 
L 394.829051 193.636419 
L 393.396206 192.317392 
L 391.612709 191.535078 
L 389.67183 191.374252 
L 387.783893 191.852343 
L 386.153486 192.917541 
L 384.957287 194.454417 
L 384.324925 196.296425 
L 384.324925 198.243956 
L 384.957287 200.085964 
L 386.153486 201.622839 
L 387.783893 202.688038 
L 389.67183 203.166128 
L 391.612709 203.005302 
L 393.396206 202.222988 
L 394.829051 200.903962 
L 395.755973 199.191159 
L 396.076526 197.27019 
" style="fill:none;stroke:#ff0000;stroke-linecap:square;stroke-width:1.5;"/>
   </g>
   <g id="line2d_49">
    <path clip-path="url(#pbbed9cd8e0)" d="M 390.509974 416.443701 
L 389.344326 409.458359 
L 385.9737 403.229987 
L 380.763355 398.433527 
L 374.277912 395.588748 
L 367.22017 395.003927 
L 360.354945 396.742438 
L 354.426191 400.615886 
L 350.076379 406.204524 
L 347.77688 412.902736 
L 347.77688 419.984666 
L 350.076379 426.682878 
L 354.426191 432.271515 
L 360.354945 436.144964 
L 367.22017 437.883475 
L 374.277912 437.298654 
L 380.763355 434.453875 
L 385.9737 429.657414 
L 389.344326 423.429043 
L 390.509974 416.443701 
" style="fill:none;stroke:#000000;stroke-dasharray:5.55,2.4;stroke-dashoffset:0;stroke-width:1.5;"/>
   </g>
   <g id="line2d_50">
    <path clip-path="url(#pbbed9cd8e0)" d="M 374.912865 416.443701 
L 374.592312 414.522732 
L 373.66539 412.80993 
L 372.232545 411.490903 
L 370.449048 410.708589 
L 368.508169 410.547763 
L 366.620232 411.025853 
L 364.989825 412.091052 
L 363.793627 413.627927 
L 363.161265 415.469935 
L 363.161265 417.417466 
L 363.793627 419.259474 
L 364.989825 420.79635 
L 366.620232 421.861548 
L 368.508169 422.339639 
L 370.449048 422.178813 
L 372.232545 421.396499 
L 373.66539 420.077472 
L 374.592312 418.36467 
L 374.912865 416.443701 
" style="fill:none;stroke:#ff0000;stroke-linecap:square;stroke-width:1.5;"/>
   </g>
   <g id="line2d_51">
    <path clip-path="url(#pbbed9cd8e0)" d="M 425.573613 222.608072 
L 424.407966 215.62273 
L 421.037339 209.394358 
L 415.826994 204.597897 
L 409.341551 201.753118 
L 402.28381 201.168297 
L 395.418585 202.906808 
L 389.48983 206.780257 
L 385.140019 212.368895 
L 382.84052 219.067107 
L 382.84052 226.149037 
L 385.140019 232.847248 
L 389.48983 238.435886 
L 395.418585 242.309335 
L 402.28381 244.047846 
L 409.341551 243.463025 
L 415.826994 240.618246 
L 421.037339 235.821785 
L 424.407966 229.593413 
L 425.573613 222.608072 
" style="fill:none;stroke:#000000;stroke-dasharray:5.55,2.4;stroke-dashoffset:0;stroke-width:1.5;"/>
   </g>
   <g id="line2d_52">
    <path clip-path="url(#pbbed9cd8e0)" d="M 409.976505 222.608072 
L 409.655952 220.687103 
L 408.729029 218.9743 
L 407.296184 217.655274 
L 405.512688 216.87296 
L 403.571809 216.712134 
L 401.683872 217.190224 
L 400.053464 218.255423 
L 398.857266 219.792298 
L 398.224904 221.634306 
L 398.224904 223.581837 
L 398.857266 225.423845 
L 400.053464 226.960721 
L 401.683872 228.025919 
L 403.571809 228.50401 
L 405.512688 228.343184 
L 407.296184 227.56087 
L 408.729029 226.241843 
L 409.655952 224.529041 
L 409.976505 222.608072 
" style="fill:none;stroke:#ff0000;stroke-linecap:square;stroke-width:1.5;"/>
   </g>
   <g id="line2d_53">
    <path clip-path="url(#pbbed9cd8e0)" d="M 433.249186 435.764265 
L 432.083539 428.778923 
L 428.712913 422.550552 
L 423.502567 417.754091 
L 417.017125 414.909312 
L 409.959383 414.324491 
L 403.094158 416.063002 
L 397.165403 419.93645 
L 392.815592 425.525088 
L 390.516093 432.2233 
L 390.516093 439.30523 
L 392.815592 446.003442 
L 397.165403 451.59208 
L 403.094158 455.465528 
L 409.959383 457.204039 
L 417.017125 456.619218 
L 423.502567 453.774439 
L 428.712913 448.977978 
L 432.083539 442.749607 
L 433.249186 435.764265 
" style="fill:none;stroke:#000000;stroke-dasharray:5.55,2.4;stroke-dashoffset:0;stroke-width:1.5;"/>
   </g>
   <g id="line2d_54">
    <path clip-path="url(#pbbed9cd8e0)" d="M 417.652078 435.764265 
L 417.331525 433.843296 
L 416.404603 432.130494 
L 414.971758 430.811467 
L 413.188261 430.029153 
L 411.247382 429.868327 
L 409.359445 430.346418 
L 407.729038 431.411616 
L 406.532839 432.948491 
L 405.900477 434.7905 
L 405.900477 436.73803 
L 406.532839 438.580039 
L 407.729038 440.116914 
L 409.359445 441.182112 
L 411.247382 441.660203 
L 413.188261 441.499377 
L 414.971758 440.717063 
L 416.404603 439.398036 
L 417.331525 437.685234 
L 417.652078 435.764265 
" style="fill:none;stroke:#ff0000;stroke-linecap:square;stroke-width:1.5;"/>
   </g>
   <g id="line2d_55">
    <path clip-path="url(#pbbed9cd8e0)" d="M 302.246828 413.764951 
L 301.081181 406.779609 
L 297.710555 400.551237 
L 292.500209 395.754777 
L 286.014766 392.909998 
L 278.957025 392.325177 
L 272.0918 394.063688 
L 266.163045 397.937136 
L 261.813234 403.525774 
L 259.513735 410.223986 
L 259.513735 417.305916 
L 261.813234 424.004128 
L 266.163045 429.592765 
L 272.0918 433.466214 
L 278.957025 435.204725 
L 286.014766 434.619904 
L 292.500209 431.775125 
L 297.710555 426.978664 
L 301.081181 420.750293 
L 302.246828 413.764951 
" style="fill:none;stroke:#000000;stroke-dasharray:5.55,2.4;stroke-dashoffset:0;stroke-width:1.5;"/>
   </g>
   <g id="line2d_56">
    <path clip-path="url(#pbbed9cd8e0)" d="M 286.64972 413.764951 
L 286.329167 411.843982 
L 285.402244 410.13118 
L 283.969399 408.812153 
L 282.185903 408.029839 
L 280.245024 407.869013 
L 278.357087 408.347103 
L 276.726679 409.412302 
L 275.530481 410.949177 
L 274.898119 412.791185 
L 274.898119 414.738716 
L 275.530481 416.580724 
L 276.726679 418.1176 
L 278.357087 419.182798 
L 280.245024 419.660889 
L 282.185903 419.500063 
L 283.969399 418.717749 
L 285.402244 417.398722 
L 286.329167 415.68592 
L 286.64972 413.764951 
" style="fill:none;stroke:#ff0000;stroke-linecap:square;stroke-width:1.5;"/>
   </g>
   <g id="line2d_57">
    <path clip-path="url(#pbbed9cd8e0)" d="M 479.423895 434.034779 
L 478.258248 427.049437 
L 474.887622 420.821065 
L 469.677276 416.024605 
L 463.191834 413.179826 
L 456.134092 412.595004 
L 449.268867 414.333515 
L 443.340112 418.206964 
L 438.990301 423.795602 
L 436.690802 430.493814 
L 436.690802 437.575744 
L 438.990301 444.273955 
L 443.340112 449.862593 
L 449.268867 453.736042 
L 456.134092 455.474553 
L 463.191834 454.889732 
L 469.677276 452.044953 
L 474.887622 447.248492 
L 478.258248 441.020121 
L 479.423895 434.034779 
" style="fill:none;stroke:#000000;stroke-dasharray:5.55,2.4;stroke-dashoffset:0;stroke-width:1.5;"/>
   </g>
   <g id="line2d_58">
    <path clip-path="url(#pbbed9cd8e0)" d="M 463.826787 434.034779 
L 463.506234 432.11381 
L 462.579312 430.401008 
L 461.146467 429.081981 
L 459.36297 428.299667 
L 457.422091 428.138841 
L 455.534154 428.616931 
L 453.903747 429.68213 
L 452.707548 431.219005 
L 452.075186 433.061013 
L 452.075186 435.008544 
L 452.707548 436.850552 
L 453.903747 438.387428 
L 455.534154 439.452626 
L 457.422091 439.930717 
L 459.36297 439.769891 
L 461.146467 438.987577 
L 462.579312 437.66855 
L 463.506234 435.955748 
L 463.826787 434.034779 
" style="fill:none;stroke:#ff0000;stroke-linecap:square;stroke-width:1.5;"/>
   </g>
   <g id="line2d_59">
    <path clip-path="url(#pbbed9cd8e0)" d="M 481.659636 335.59221 
L 480.493988 328.606868 
L 477.123362 322.378496 
L 471.913017 317.582035 
L 465.427574 314.737256 
L 458.369832 314.152435 
L 451.504607 315.890946 
L 445.575853 319.764395 
L 441.226041 325.353033 
L 438.926543 332.051245 
L 438.926543 339.133175 
L 441.226041 345.831386 
L 445.575853 351.420024 
L 451.504607 355.293473 
L 458.369832 357.031984 
L 465.427574 356.447163 
L 471.913017 353.602384 
L 477.123362 348.805923 
L 480.493988 342.577551 
L 481.659636 335.59221 
" style="fill:none;stroke:#000000;stroke-dasharray:5.55,2.4;stroke-dashoffset:0;stroke-width:1.5;"/>
   </g>
   <g id="line2d_60">
    <path clip-path="url(#pbbed9cd8e0)" d="M 466.062527 335.59221 
L 465.741974 333.671241 
L 464.815052 331.958438 
L 463.382207 330.639412 
L 461.59871 329.857098 
L 459.657831 329.696272 
L 457.769895 330.174362 
L 456.139487 331.239561 
L 454.943289 332.776436 
L 454.310927 334.618444 
L 454.310927 336.565975 
L 454.943289 338.407983 
L 456.139487 339.944859 
L 457.769895 341.010057 
L 459.657831 341.488148 
L 461.59871 341.327322 
L 463.382207 340.545008 
L 464.815052 339.225981 
L 465.741974 337.513179 
L 466.062527 335.59221 
" style="fill:none;stroke:#ff0000;stroke-linecap:square;stroke-width:1.5;"/>
   </g>
   <g id="line2d_61">
    <path clip-path="url(#pbbed9cd8e0)" d="M 214.36562 351.467401 
L 213.199973 344.482059 
L 209.829347 338.253688 
L 204.619002 333.457227 
L 198.133559 330.612448 
L 191.075817 330.027627 
L 184.210592 331.766138 
L 178.281838 335.639586 
L 173.932026 341.228224 
L 171.632527 347.926436 
L 171.632527 355.008366 
L 173.932026 361.706578 
L 178.281838 367.295216 
L 184.210592 371.168664 
L 191.075817 372.907175 
L 198.133559 372.322354 
L 204.619002 369.477575 
L 209.829347 364.681115 
L 213.199973 358.452743 
L 214.36562 351.467401 
" style="fill:none;stroke:#000000;stroke-dasharray:5.55,2.4;stroke-dashoffset:0;stroke-width:1.5;"/>
   </g>
   <g id="line2d_62">
    <path clip-path="url(#pbbed9cd8e0)" d="M 198.768512 351.467401 
L 198.447959 349.546432 
L 197.521037 347.83363 
L 196.088192 346.514603 
L 194.304695 345.732289 
L 192.363816 345.571463 
L 190.475879 346.049554 
L 188.845472 347.114752 
L 187.649274 348.651627 
L 187.016911 350.493636 
L 187.016911 352.441166 
L 187.649274 354.283175 
L 188.845472 355.82005 
L 190.475879 356.885248 
L 192.363816 357.363339 
L 194.304695 357.202513 
L 196.088192 356.420199 
L 197.521037 355.101172 
L 198.447959 353.38837 
L 198.768512 351.467401 
" style="fill:none;stroke:#ff0000;stroke-linecap:square;stroke-width:1.5;"/>
   </g>
   <g id="line2d_63">
    <path clip-path="url(#pbbed9cd8e0)" d="M 252.668214 341.647342 
L 251.502567 334.662 
L 248.131941 328.433628 
L 242.921595 323.637167 
L 236.436153 320.792388 
L 229.378411 320.207567 
L 222.513186 321.946078 
L 216.584432 325.819527 
L 212.23462 331.408165 
L 209.935121 338.106377 
L 209.935121 345.188307 
L 212.23462 351.886518 
L 216.584432 357.475156 
L 222.513186 361.348605 
L 229.378411 363.087116 
L 236.436153 362.502295 
L 242.921595 359.657516 
L 248.131941 354.861055 
L 251.502567 348.632683 
L 252.668214 341.647342 
" style="fill:none;stroke:#000000;stroke-dasharray:5.55,2.4;stroke-dashoffset:0;stroke-width:1.5;"/>
   </g>
   <g id="line2d_64">
    <path clip-path="url(#pbbed9cd8e0)" d="M 237.071106 341.647342 
L 236.750553 339.726373 
L 235.823631 338.01357 
L 234.390786 336.694544 
L 232.607289 335.91223 
L 230.66641 335.751404 
L 228.778473 336.229494 
L 227.148066 337.294693 
L 225.951868 338.831568 
L 225.319505 340.673576 
L 225.319505 342.621107 
L 225.951868 344.463115 
L 227.148066 345.999991 
L 228.778473 347.065189 
L 230.66641 347.54328 
L 232.607289 347.382454 
L 234.390786 346.60014 
L 235.823631 345.281113 
L 236.750553 343.568311 
L 237.071106 341.647342 
" style="fill:none;stroke:#ff0000;stroke-linecap:square;stroke-width:1.5;"/>
   </g>
   <g id="line2d_65">
    <path clip-path="url(#pbbed9cd8e0)" d="M 247.418863 180.466649 
L 246.253215 173.481307 
L 242.882589 167.252936 
L 237.672244 162.456475 
L 231.186801 159.611696 
L 224.129059 159.026875 
L 217.263834 160.765386 
L 211.33508 164.638835 
L 206.985268 170.227473 
L 204.685769 176.925684 
L 204.685769 184.007614 
L 206.985268 190.705826 
L 211.33508 196.294464 
L 217.263834 200.167913 
L 224.129059 201.906424 
L 231.186801 201.321603 
L 237.672244 198.476824 
L 242.882589 193.680363 
L 246.253215 187.451991 
L 247.418863 180.466649 
" style="fill:none;stroke:#000000;stroke-dasharray:5.55,2.4;stroke-dashoffset:0;stroke-width:1.5;"/>
   </g>
   <g id="line2d_66">
    <path clip-path="url(#pbbed9cd8e0)" d="M 231.821754 180.466649 
L 231.501201 178.54568 
L 230.574279 176.832878 
L 229.141434 175.513851 
L 227.357937 174.731537 
L 225.417058 174.570711 
L 223.529121 175.048802 
L 221.898714 176.114 
L 220.702516 177.650876 
L 220.070153 179.492884 
L 220.070153 181.440415 
L 220.702516 183.282423 
L 221.898714 184.819298 
L 223.529121 185.884497 
L 225.417058 186.362587 
L 227.357937 186.201761 
L 229.141434 185.419447 
L 230.574279 184.100421 
L 231.501201 182.387618 
L 231.821754 180.466649 
" style="fill:none;stroke:#ff0000;stroke-linecap:square;stroke-width:1.5;"/>
   </g>
   <g id="line2d_67">
    <path clip-path="url(#pbbed9cd8e0)" d="M 418.623624 209.939131 
L 417.457976 202.953789 
L 414.08735 196.725417 
L 408.877005 191.928957 
L 402.391562 189.084178 
L 395.33382 188.499357 
L 388.468595 190.237868 
L 382.539841 194.111316 
L 378.190029 199.699954 
L 375.89053 206.398166 
L 375.89053 213.480096 
L 378.190029 220.178308 
L 382.539841 225.766946 
L 388.468595 229.640394 
L 395.33382 231.378905 
L 402.391562 230.794084 
L 408.877005 227.949305 
L 414.08735 223.152844 
L 417.457976 216.924473 
L 418.623624 209.939131 
" style="fill:none;stroke:#000000;stroke-dasharray:5.55,2.4;stroke-dashoffset:0;stroke-width:1.5;"/>
   </g>
   <g id="line2d_68">
    <path clip-path="url(#pbbed9cd8e0)" d="M 403.026515 209.939131 
L 402.705962 208.018162 
L 401.77904 206.30536 
L 400.346195 204.986333 
L 398.562698 204.204019 
L 396.621819 204.043193 
L 394.733882 204.521284 
L 393.103475 205.586482 
L 391.907277 207.123357 
L 391.274915 208.965366 
L 391.274915 210.912896 
L 391.907277 212.754905 
L 393.103475 214.29178 
L 394.733882 215.356978 
L 396.621819 215.835069 
L 398.562698 215.674243 
L 400.346195 214.891929 
L 401.77904 213.572902 
L 402.705962 211.8601 
L 403.026515 209.939131 
" style="fill:none;stroke:#ff0000;stroke-linecap:square;stroke-width:1.5;"/>
   </g>
   <g id="line2d_69">
    <path clip-path="url(#pbbed9cd8e0)" d="M 98.891566 487.188434 
L 98.891566 94.571566 
" style="fill:none;stroke:#000000;stroke-linecap:square;stroke-width:4;"/>
   </g>
   <g id="line2d_70">
    <path clip-path="url(#pbbed9cd8e0)" d="M 98.891566 94.571566 
L 491.508434 94.571566 
" style="fill:none;stroke:#000000;stroke-linecap:square;stroke-width:4;"/>
   </g>
   <g id="line2d_71">
    <path clip-path="url(#pbbed9cd8e0)" d="M 491.508434 94.571566 
L 491.508434 487.188434 
" style="fill:none;stroke:#000000;stroke-linecap:square;stroke-width:4;"/>
   </g>
   <g id="line2d_72">
    <path clip-path="url(#pbbed9cd8e0)" d="M 491.508434 487.188434 
L 98.891566 487.188434 
" style="fill:none;stroke:#000000;stroke-linecap:square;stroke-width:4;"/>
   </g>
   <g id="line2d_73">
    <path clip-path="url(#pbbed9cd8e0)" d="M 170.584482 383.978602 
L 170.530699 383.978602 
L 170.423133 384.032386 
L 170.584482 383.924819 
L 171.06853 383.548337 
L 171.606361 382.849157 
L 172.359325 381.397012 
L 172.843373 379.29947 
L 172.897157 376.879229 
L 172.520675 374.889253 
L 171.713928 372.737928 
L 170.853398 370.801735 
L 169.992867 368.327711 
L 169.562602 366.176386 
L 169.239904 363.594795 
L 168.970988 361.551036 
L 168.379373 359.184578 
L 167.411277 356.925687 
L 166.496964 355.473542 
L 164.88347 353.107084 
L 163.592675 350.901976 
L 162.893494 349.180916 
L 162.355663 346.276627 
L 162.248096 343.641253 
L 162.248096 341.86641 
L 162.194313 339.446169 
L 161.817831 337.025928 
L 161.333783 334.928386 
L 160.634602 332.131663 
L 160.25812 329.603855 
L 160.042988 327.076048 
L 159.935422 324.548241 
L 159.881639 322.396916 
L 159.774072 319.922892 
L 159.451373 317.448867 
L 159.128675 315.351325 
L 158.752193 312.500819 
L 158.483277 310.349494 
L 158.268145 307.87547 
L 158.106795 305.347663 
L 157.891663 302.819855 
L 157.730313 301.045012 
L 157.461398 298.570988 
L 157.192482 296.096964 
L 156.923566 293.945639 
L 156.708434 291.417831 
L 156.439518 288.943807 
L 156.224386 286.792482 
L 156.009253 284.318458 
L 155.740337 281.790651 
L 155.525205 279.639325 
L 155.256289 277.165301 
L 155.041157 274.691277 
L 154.772241 272.16347 
L 154.557108 270.012145 
L 154.341976 267.860819 
L 154.07306 265.010313 
L 153.804145 262.536289 
L 153.589012 260.062265 
L 153.320096 257.534458 
L 153.104964 255.383133 
L 152.836048 252.909108 
L 152.620916 250.381301 
L 152.352 247.907277 
L 152.136867 245.433253 
L 151.867952 242.905446 
L 151.599036 240.431422 
L 151.383904 238.280096 
L 151.168771 235.752289 
L 150.899855 233.278265 
L 150.684723 231.12694 
L 150.46959 228.652916 
L 150.200675 226.125108 
L 149.931759 223.651084 
L 149.716627 221.17706 
L 149.501494 219.025735 
L 149.232578 216.497928 
L 148.963663 214.023904 
L 148.74853 211.496096 
L 148.533398 209.398554 
L 148.264482 206.870747 
L 148.049349 204.396723 
L 147.834217 202.568096 
L 147.619084 200.094072 
L 147.403952 197.942747 
L 147.135036 195.468723 
L 146.86612 192.940916 
L 146.650988 190.843373 
L 146.435855 188.315566 
L 146.16694 185.841542 
L 145.898024 183.313735 
L 145.682892 181.16241 
L 145.521542 179.064867 
L 145.252627 176.53706 
L 145.037494 174.385735 
L 144.768578 171.535229 
L 144.499663 169.061205 
L 144.28453 166.90988 
L 144.015614 164.435855 
L 143.800482 161.908048 
L 143.531566 159.434024 
L 143.316434 157.282699 
L 143.101301 154.808675 
L 142.778602 151.958169 
L 142.56347 149.430361 
L 142.348337 147.279036 
L 142.133205 145.181494 
L 141.918072 143.352867 
L 141.70294 140.878843 
L 141.487807 138.727518 
" style="fill:none;stroke:#8000ff;stroke-linecap:square;stroke-width:1.5;"/>
   </g>
   <g id="line2d_74">
    <path clip-path="url(#pbbed9cd8e0)" d="M 309.560096 156.045687 
L 309.829012 156.09947 
L 310.097928 156.368386 
L 310.743325 157.175133 
L 311.33494 158.465928 
L 311.657639 160.025639 
L 311.711422 162.176964 
L 311.066024 165.135036 
L 310.31306 166.856096 
L 307.462554 171.37388 
L 306.494458 173.632771 
L 306.01041 175.622747 
L 305.741494 177.827855 
L 305.257446 180.678361 
L 304.558265 183.152386 
L 303.482602 185.411277 
L 302.24559 187.670169 
L 301.169928 189.875277 
L 300.363181 192.187952 
L 298.749687 199.179759 
L 297.08241 203.589976 
L 296.06053 205.902651 
L 294.393253 210.528 
L 292.349494 217.412241 
L 288.261976 228.921831 
L 285.895518 235.483373 
L 284.981205 237.580916 
L 283.475277 240.323855 
L 283.045012 240.861687 
L 282.937446 240.91547 
L 282.614747 240.91547 
L 281.377735 240.700337 
L 279.979373 240.162506 
L 277.828048 238.817928 
L 276.214554 237.258217 
L 274.816193 235.106892 
L 273.955663 233.063133 
L 272.772434 228.760482 
L 272.987566 228.921831 
L 273.202699 228.975614 
L 272.395952 229.190747 
L 271.911904 229.513446 
L 270.836241 230.427759 
L 270.13706 231.503422 
L 269.43788 233.116916 
L 269.27653 235.160675 
L 269.384096 235.59094 
L 269.330313 235.483373 
L 269.599229 235.806072 
L 270.513542 236.505253 
L 272.073253 237.258217 
L 274.439711 237.849831 
L 277.021301 237.957398 
L 280.624771 237.849831 
L 280.409639 237.957398 
L 280.302072 238.064964 
L 280.355855 237.957398 
L 280.624771 236.559036 
L 280.678554 235.806072 
L 280.839904 235.106892 
L 281.323952 234.138795 
L 281.915566 233.439614 
L 282.507181 232.955566 
L 283.098795 232.632867 
L 283.744193 232.417735 
L 284.604723 232.363952 
L 285.949301 232.740434 
L 286.702265 233.278265 
L 287.347663 233.923663 
L 288.315759 235.59094 
L 289.391422 237.312 
L 289.929253 237.903614 
L 290.951133 238.441446 
L 292.188145 238.441446 
L 292.779759 238.226313 
L 293.47894 237.849831 
L 295.146217 236.612819 
L 295.899181 236.236337 
L 296.490795 236.074988 
L 297.243759 236.021205 
L 298.158072 236.182554 
L 298.911036 236.559036 
L 299.610217 237.150651 
L 300.255614 237.957398 
L 300.632096 238.710361 
L 300.954795 239.839807 
L 301.116145 241.507084 
L 301.116145 243.49706 
L 301.438843 244.680289 
L 302.24559 245.487036 
L 303.052337 245.917301 
L 304.289349 246.293783 
L 306.333108 246.455133 
L 312.03412 246.347566 
L 312.356819 246.670265 
L 312.894651 247.423229 
L 313.324916 248.552675 
L 313.486265 249.84347 
L 313.432482 251.56453 
L 312.840867 253.823422 
L 311.657639 256.136096 
L 310.420627 258.126072 
L 309.237398 260.438747 
L 308.538217 262.321157 
L 308.215518 264.364916 
L 308.323084 266.301108 
L 308.968482 268.613783 
L 310.958458 272.808867 
L 311.603855 275.444241 
L 311.603855 277.595566 
L 311.17359 279.531759 
L 310.259277 281.575518 
L 309.022265 283.404145 
L 307.623904 285.071422 
L 306.117976 286.631133 
L 304.827181 288.244627 
L 303.321253 290.611084 
L 300.309398 296.742361 
L 299.126169 298.570988 
L 295.038651 304.056867 
L 293.640289 306.100627 
L 290.144386 311.909205 
L 285.680386 318.470747 
L 282.883663 322.665831 
L 273.90188 336.488096 
L 271.15894 340.683181 
L 268.631133 344.609349 
L 261.101494 356.387855 
L 257.390458 362.519133 
L 250.936482 372.845494 
L 241.685783 386.560193 
L 227.002988 408.181012 
L 227.002988 408.181012 
" style="fill:none;stroke:#376ff9;stroke-linecap:square;stroke-width:1.5;"/>
   </g>
   <g id="line2d_75">
    <path clip-path="url(#pbbed9cd8e0)" d="M 140.412145 261.245494 
L 141.756723 261.245494 
L 143.854265 261.35306 
L 146.059373 261.568193 
L 148.533398 261.998458 
L 151.007422 262.428723 
L 153.104964 262.751422 
L 155.901687 262.912771 
L 158.375711 262.966554 
L 160.795952 262.912771 
L 162.947277 262.858988 
L 165.475084 262.805205 
L 167.62641 262.805205 
L 170.476916 262.697639 
L 172.574458 262.536289 
L 175.048482 262.267373 
L 177.522506 261.944675 
L 179.99653 261.51441 
L 182.470554 261.030361 
L 184.191614 260.65388 
L 186.880771 260.008482 
L 189.301012 259.470651 
L 191.775036 258.986602 
L 194.24906 258.663904 
L 196.400386 258.448771 
L 198.87441 258.126072 
L 200.971952 257.803373 
L 203.661108 257.104193 
L 206.081349 256.458795 
L 208.232675 255.920964 
L 210.760482 255.490699 
L 213.664771 255.436916 
L 215.762313 255.705831 
L 218.074988 256.243663 
L 220.495229 256.996627 
L 222.431422 257.588241 
L 224.79788 258.018506 
L 227.164337 257.91094 
L 229.369446 257.319325 
L 231.789687 256.512578 
L 233.618313 256.18988 
L 236.253687 256.243663 
L 238.781494 256.88906 
L 240.717687 257.857157 
L 242.438747 258.879036 
L 244.697639 259.685783 
L 247.440578 260.008482 
L 249.430554 259.739566 
L 251.689446 258.986602 
L 254.109687 258.179855 
L 256.207229 257.91094 
L 257.928289 258.018506 
L 259.595566 258.556337 
L 260.886361 259.309301 
L 262.284723 260.600096 
L 263.844434 262.536289 
L 265.296578 264.526265 
L 267.071422 266.193542 
L 269.115181 267.376771 
L 271.427855 268.237301 
L 273.310265 269.097831 
L 273.90188 269.528096 
L 274.224578 269.904578 
L 274.869976 270.980241 
L 275.62294 273.131566 
L 275.945639 275.713157 
L 275.676723 278.294747 
L 274.816193 280.93012 
L 274.009446 283.189012 
L 273.686747 284.53359 
L 273.632964 285.232771 
L 273.686747 285.824386 
L 273.90188 286.362217 
L 274.278361 286.953831 
L 275.246458 287.921928 
L 276.644819 288.728675 
L 278.634795 289.374072 
L 281.001253 289.535422 
L 283.421494 289.266506 
L 285.787952 288.836241 
L 287.939277 288.567325 
L 290.198169 288.621108 
L 292.295711 288.943807 
L 294.769735 289.589205 
L 297.512675 290.180819 
L 299.610217 290.395952 
L 301.707759 290.395952 
L 303.859084 290.234602 
L 306.70959 290.01947 
L 308.538217 289.911904 
L 310.689542 289.965687 
L 313.217349 290.127036 
L 315.745157 290.234602 
L 318.219181 290.342169 
L 320.746988 290.288386 
L 323.221012 290.234602 
L 325.372337 290.180819 
L 327.900145 290.180819 
L 330.427952 290.180819 
L 332.202795 290.234602 
L 335.107084 290.288386 
L 337.204627 290.342169 
L 339.355952 290.342169 
L 341.507277 290.288386 
L 344.411566 290.288386 
L 346.562892 290.288386 
L 349.413398 290.342169 
L 351.242024 290.342169 
L 353.339566 290.395952 
L 355.544675 290.395952 
L 357.642217 290.395952 
L 360.170024 290.395952 
L 361.944867 290.395952 
L 364.849157 290.395952 
L 367.000482 290.449735 
L 369.474506 290.449735 
L 371.679614 290.449735 
L 374.153639 290.449735 
L 376.304964 290.503518 
L 378.456289 290.503518 
L 381.306795 290.503518 
L 383.511904 290.503518 
L 385.609446 290.503518 
L 388.137253 290.557301 
L 389.96588 290.557301 
L 392.816386 290.557301 
L 394.967711 290.557301 
" style="fill:none;stroke:#12c7e6;stroke-linecap:square;stroke-width:1.5;"/>
   </g>
   <g id="line2d_76">
    <path clip-path="url(#pbbed9cd8e0)" d="M 344.357783 317.879133 
L 344.519133 317.879133 
L 345.594795 317.448867 
L 346.293976 316.911036 
L 347.262072 315.566458 
L 348.015036 313.845398 
L 348.499084 311.586506 
L 348.499084 309.273831 
L 348.283952 307.01494 
L 348.176386 304.110651 
L 348.391518 302.282024 
L 349.198265 299.055036 
L 350.542843 294.967518 
L 351.080675 292.170795 
L 351.295807 290.073253 
L 351.403373 287.27653 
L 351.618506 285.071422 
L 352.425253 280.446072 
L 353.447133 275.551807 
L 354.200096 270.980241 
L 354.791711 266.731373 
L 355.544675 262.966554 
L 356.082506 261.406843 
L 356.458988 261.245494 
L 356.727904 261.299277 
L 357.696 261.729542 
L 358.825446 262.536289 
L 360.27759 264.096 
L 362.912964 268.56 
L 362.644048 268.398651 
L 362.536482 268.398651 
L 362.859181 268.291084 
L 363.289446 268.129735 
L 363.988627 267.645687 
L 364.74159 266.785157 
L 365.386988 265.548145 
L 365.817253 263.880867 
L 366.032386 262.482506 
L 366.193735 260.49253 
L 366.624 258.072289 
L 367.054265 256.458795 
L 367.430747 255.652048 
L 367.968578 255.221783 
L 368.721542 254.845301 
L 370.22747 254.468819 
L 373.024193 254.576386 
L 375.229301 255.168 
L 379.370602 256.835277 
L 380.446265 257.104193 
L 380.446265 257.104193 
L 380.930313 256.781494 
L 381.575711 256.136096 
L 382.436241 254.737735 
L 382.974072 253.231807 
L 383.242988 250.972916 
L 382.974072 248.552675 
L 382.167325 244.034892 
L 382.059759 241.829783 
L 382.382458 239.248193 
L 383.404337 235.106892 
L 383.61947 233.116916 
L 383.61947 230.96559 
L 383.350554 229.190747 
L 383.081639 228.330217 
L 382.651373 227.469687 
L 381.844627 226.447807 
L 380.231133 225.157012 
L 378.402506 224.242699 
L 376.197398 223.651084 
L 373.615807 223.274602 
L 371.518265 222.682988 
L 370.388819 222.091373 
L 369.582072 221.33841 
L 368.829108 220.31653 
L 368.022361 218.541687 
L 367.538313 216.067663 
L 367.64588 213.055807 
L 369.36694 206.601831 
L 369.689639 204.074024 
L 369.689639 201.277301 
L 369.420723 199.394892 
L 368.936675 197.620048 
L 367.592096 195.25359 
L 365.978602 193.478747 
L 364.580241 192.456867 
L 362.375133 190.628241 
L 361.191904 189.176096 
L 360.331373 187.239904 
L 359.954892 185.46506 
L 359.954892 183.367518 
L 360.385157 181.16241 
L 361.407036 178.795952 
L 363.343229 175.031133 
L 364.203759 172.341976 
L 364.526458 170.298217 
L 365.064289 165.242602 
L 365.76347 162.392096 
L 367.430747 158.412145 
L 368.560193 155.776771 
L 369.259373 153.786795 
L 369.904771 151.420337 
L 370.980434 146.472289 
L 371.733398 143.675566 
L 374.637687 135.608096 
L 375.390651 133.241639 
L 377.27306 125.927133 
L 377.864675 123.883373 
L 377.864675 123.883373 
" style="fill:none;stroke:#5bf9c7;stroke-linecap:square;stroke-width:1.5;"/>
   </g>
   <g id="line2d_77">
    <path clip-path="url(#pbbed9cd8e0)" d="M 234.962892 454.757205 
L 234.747759 454.864771 
L 234.962892 454.649639 
L 235.339373 454.16559 
L 235.823422 453.089928 
L 236.14612 451.691566 
L 236.038554 449.486458 
L 235.554506 447.496482 
L 234.478843 445.23759 
L 233.403181 443.408964 
L 231.951036 440.719807 
L 231.144289 438.676048 
L 230.606458 436.148241 
L 229.96106 431.522892 
L 229.477012 429.479133 
L 228.724048 427.112675 
L 227.056771 423.132723 
L 226.250024 420.766265 
L 225.443277 417.969542 
L 224.421398 413.397976 
L 222.969253 408.66506 
L 220.710361 401.834602 
L 218.827952 394.896578 
L 215.547181 384.301301 
L 210.007518 364.993157 
L 209.469687 361.120771 
L 209.577253 358.86188 
L 209.953735 358.377831 
L 211.029398 357.463518 
L 212.750458 356.549205 
L 216.891759 355.204627 
L 217.42959 354.935711 
L 217.322024 355.043277 
L 217.268241 355.312193 
L 217.322024 355.473542 
L 217.160675 355.312193 
L 216.784193 354.828145 
L 215.816096 354.182747 
L 214.148819 353.537349 
L 212.051277 353.268434 
L 208.394024 353.376 
L 208.232675 352.838169 
L 208.716723 351.923855 
L 209.792386 350.686843 
L 211.728578 349.127133 
L 213.449639 348.320386 
L 216.461494 347.513639 
L 218.182554 346.922024 
L 218.612819 346.599325 
L 218.559036 346.760675 
L 218.505253 347.083373 
L 218.612819 347.298506 
L 218.074988 346.868241 
L 216.515277 345.953928 
L 214.256386 345.147181 
L 211.513446 344.932048 
L 209.200771 345.30853 
L 206.995663 345.846361 
L 205.05947 346.061494 
L 204.790554 345.846361 
L 204.736771 345.685012 
L 204.736771 344.985831 
L 205.113253 343.210988 
L 206.511614 340.575614 
L 207.963759 338.908337 
L 210.007518 337.24106 
L 211.40588 335.950265 
L 212.427759 334.551904 
L 212.750458 333.79894 
L 212.96559 332.400578 
L 212.911807 330.464386 
L 212.26641 328.151711 
L 211.136964 326.054169 
L 209.36212 324.01041 
L 206.188916 321.536386 
L 204.306506 319.169928 
L 203.445976 317.502651 
L 202.746795 315.08241 
L 201.886265 310.45706 
L 200.971952 307.821687 
L 200.057639 305.939277 
L 197.422265 301.260145 
L 196.561735 299.216386 
L 195.055807 294.806169 
L 193.38853 290.073253 
L 188.601831 278.886361 
L 185.858892 271.464289 
L 182.094072 262.536289 
L 169.239904 230.26641 
L 169.239904 230.26641 
" style="fill:none;stroke:#a4f99f;stroke-linecap:square;stroke-width:1.5;"/>
   </g>
   <g id="line2d_78">
    <path clip-path="url(#pbbed9cd8e0)" d="M 242.976578 285.663036 
L 243.783325 285.663036 
L 245.719518 285.824386 
L 248.193542 286.631133 
L 250.398651 287.868145 
L 252.173494 289.105157 
L 254.217253 290.449735 
L 256.099663 291.364048 
L 258.412337 292.117012 
L 260.778795 292.654843 
L 262.876337 293.192675 
L 264.97388 293.838072 
L 267.340337 294.859952 
L 269.599229 295.989398 
L 271.481639 296.903711 
L 273.794313 297.92559 
L 276.106988 298.78612 
L 278.473446 299.592867 
L 280.517205 300.292048 
L 282.883663 301.206361 
L 285.196337 302.174458 
L 287.186313 303.034988 
L 289.498988 304.003084 
L 291.811663 304.917398 
L 293.801639 305.724145 
L 295.845398 306.477108 
L 298.158072 307.391422 
L 300.201831 308.144386 
L 302.514506 309.112482 
L 304.827181 310.026795 
L 307.139855 310.994892 
L 309.506313 311.909205 
L 311.496289 312.715952 
L 313.486265 313.468916 
L 315.476241 314.275663 
L 317.842699 315.189976 
L 320.155373 316.158072 
L 322.145349 316.964819 
L 324.458024 317.879133 
L 326.824482 318.793446 
L 329.137157 319.707759 
L 331.503614 320.675855 
L 333.816289 321.590169 
L 336.128964 322.504482 
L 338.495422 323.418795 
L 340.162699 324.117976 
L 342.475373 325.032289 
L 344.788048 325.946602 
L 346.778024 326.753349 
L 349.144482 327.667663 
L 351.457157 328.635759 
L 353.769831 329.550072 
L 356.136289 330.464386 
L 358.448964 331.378699 
L 360.43894 332.185446 
L 362.805398 333.099759 
L 365.118072 334.067855 
L 367.48453 334.982169 
L 369.797205 335.896482 
L 371.787181 336.703229 
L 373.777157 337.509976 
L 376.143614 338.424289 
L 378.456289 339.338602 
L 380.446265 340.145349 
L 382.75894 341.059663 
L 384.802699 341.86641 
L 387.115373 342.780723 
L 389.105349 343.58747 
L 391.095325 344.394217 
L 393.461783 345.30853 
L 395.774458 346.276627 
L 398.087133 347.19094 
L 400.45359 348.105253 
L 402.443566 348.912 
L 404.756241 349.826313 
L 406.746217 350.63306 
L 409.112675 351.547373 
L 411.425349 352.461687 
L 413.415325 353.268434 
L 415.405301 354.075181 
L 417.771759 354.989494 
L 420.084434 355.95759 
L 422.07441 356.710554 
L 424.440867 357.678651 
L 426.430843 358.431614 
L 428.09812 359.130795 
L 430.088096 359.937542 
" style="fill:none;stroke:#edc76f;stroke-linecap:square;stroke-width:1.5;"/>
   </g>
   <g id="line2d_79">
    <path clip-path="url(#pbbed9cd8e0)" d="M 323.812627 389.464482 
L 323.758843 389.464482 
L 323.70506 389.464482 
L 323.651277 389.464482 
L 323.597494 389.518265 
L 323.489928 389.572048 
L 323.436145 389.625831 
L 323.382361 389.733398 
L 323.328578 389.787181 
L 323.328578 389.894747 
L 323.328578 390.056096 
L 323.274795 389.894747 
L 322.898313 389.249349 
L 322.199133 388.496386 
L 321.015904 387.689639 
L 319.079711 386.882892 
L 316.713253 386.50641 
L 314.346795 386.613976 
L 312.303036 386.829108 
L 310.151711 387.044241 
L 307.623904 386.829108 
L 305.14988 386.237494 
L 302.783422 385.48453 
L 300.416964 384.785349 
L 297.996723 384.355084 
L 295.522699 384.139952 
L 293.048675 383.978602 
L 290.467084 383.76347 
L 288.315759 383.440771 
L 285.841735 382.849157 
L 283.421494 382.203759 
L 281.001253 381.558361 
L 278.581012 381.02053 
L 276.160771 380.644048 
L 273.632964 380.267566 
L 271.15894 379.944867 
L 268.684916 379.622169 
L 266.53359 379.245687 
L 264.436048 378.922988 
L 262.284723 378.600289 
L 259.810699 378.27759 
L 257.336675 377.954892 
L 254.862651 377.685976 
L 252.711325 377.41706 
L 250.56 377.148145 
L 248.408675 376.879229 
L 246.311133 376.610313 
L 244.159807 376.395181 
L 242.008482 376.180048 
L 239.588241 375.964916 
L 237.275566 375.857349 
L 235.339373 375.857349 
L 233.618313 376.018699 
L 232.219952 376.341398 
L 231.144289 376.771663 
L 229.853494 377.685976 
L 228.347566 379.407036 
L 227.110554 381.504578 
L 226.250024 383.655904 
L 225.281928 385.538313 
L 224.313831 386.667759 
L 223.184386 387.474506 
L 221.624675 388.119904 
L 219.365783 388.496386 
L 217.322024 388.388819 
L 215.332048 388.012337 
L 213.288289 387.528289 
L 210.868048 387.098024 
L 208.447807 386.990458 
L 205.973783 387.098024 
L 203.445976 387.313157 
L 200.918169 387.36694 
L 198.336578 387.151807 
L 196.239036 386.775325 
L 193.765012 386.129928 
L 191.344771 385.48453 
L 188.92453 384.892916 
L 186.504289 384.408867 
L 184.406747 383.978602 
L 181.932723 383.386988 
L 179.512482 382.634024 
L 177.146024 381.719711 
L 174.833349 380.697831 
L 172.574458 379.675952 
L 169.939084 378.546506 
L 167.949108 377.793542 
L 165.582651 376.933012 
L 163.538892 376.180048 
L 161.172434 375.265735 
L 159.182458 374.405205 
L 156.923566 373.383325 
L 154.664675 372.361446 
L 152.352 371.339566 
L 150.039325 370.37147 
L 147.726651 369.403373 
L 145.413976 368.435277 
L 143.101301 367.467181 
L 140.788627 366.499084 
L 138.798651 365.638554 
L 136.485976 364.616675 
L 134.173301 363.594795 
L 132.237108 362.788048 
L 130.247133 361.927518 
" style="fill:none;stroke:#ff6f39;stroke-linecap:square;stroke-width:1.5;"/>
   </g>
   <g id="line2d_80">
    <path clip-path="url(#pbbed9cd8e0)" d="M 145.14506 307.821687 
L 145.951807 307.821687 
L 147.726651 307.606554 
L 149.985542 306.907373 
L 152.029301 305.670361 
L 153.642795 304.164434 
L 155.148723 302.604723 
L 156.816 301.098795 
L 159.021108 299.700434 
L 161.495133 298.78612 
L 166.389398 297.764241 
L 168.809639 297.118843 
L 170.745831 296.36588 
L 174.994699 294.429687 
L 176.984675 293.730506 
L 179.404916 293.138892 
L 184.084048 292.547277 
L 186.450506 292.278361 
L 188.332916 291.90188 
L 192.528 290.449735 
L 196.185253 289.15894 
L 198.390361 288.621108 
L 202.908145 287.975711 
L 204.736771 287.706795 
L 206.726747 287.27653 
L 209.953735 286.093301 
L 213.019373 284.963855 
L 214.740434 284.641157 
L 216.192578 284.641157 
L 217.698506 284.963855 
L 219.365783 285.663036 
L 220.925494 286.469783 
L 222.05494 286.846265 
L 222.91547 287.007614 
L 223.937349 286.900048 
L 225.120578 286.523566 
L 226.303807 285.824386 
L 227.37947 284.856289 
L 229.154313 282.920096 
L 232.219952 280.392289 
L 234.909108 278.34853 
L 236.845301 276.519904 
L 238.136096 274.74506 
L 238.620145 273.776964 
L 238.942843 272.486169 
L 239.373108 269.097831 
L 239.91094 267.215422 
L 240.879036 265.548145 
L 242.062265 264.257349 
L 246.526265 260.008482 
L 248.032193 258.072289 
L 251.097831 253.500723 
L 251.958361 252.263711 
L 251.904578 252.478843 
L 251.958361 252.58641 
L 251.797012 252.371277 
L 249.860819 249.574554 
L 249.914602 249.090506 
L 250.129735 248.229976 
L 250.613783 247.315663 
L 251.259181 246.508916 
L 252.065928 245.809735 
L 253.948337 244.572723 
L 255.561831 243.389494 
L 255.508048 243.443277 
L 255.615614 243.281928 
L 255.88453 241.883566 
L 256.04588 239.786024 
L 256.261012 238.817928 
L 256.637494 237.903614 
L 257.175325 237.096867 
L 257.874506 236.29012 
L 259.326651 234.999325 
L 259.972048 234.300145 
L 260.617446 233.224482 
L 261.155277 231.718554 
L 262.284723 226.125108 
L 263.09147 224.726747 
L 264.220916 223.435952 
L 265.726843 222.360289 
L 268.900048 220.639229 
L 270.29841 219.724916 
L 271.804337 218.326554 
L 272.987566 216.766843 
L 274.278361 214.615518 
L 275.676723 212.625542 
L 277.182651 211.065831 
L 279.06506 209.990169 
L 280.839904 209.344771 
L 283.152578 209.022072 
L 288.046843 208.538024 
L 290.467084 207.94641 
L 297.351325 205.687518 
L 299.879133 205.257253 
L 302.460723 205.20347 
L 309.667663 205.848867 
L 311.765205 205.795084 
L 311.765205 205.795084 
" style="fill:none;stroke:#ff0000;stroke-linecap:square;stroke-width:1.5;"/>
   </g>
   <g id="patch_3">
    <path d="M 72 512.64 
L 72 69.12 
" style="fill:none;stroke:#000000;stroke-linecap:square;stroke-linejoin:miter;stroke-width:0.8;"/>
   </g>
   <g id="patch_4">
    <path d="M 518.4 512.64 
L 518.4 69.12 
" style="fill:none;stroke:#000000;stroke-linecap:square;stroke-linejoin:miter;stroke-width:0.8;"/>
   </g>
   <g id="patch_5">
    <path d="M 72 512.64 
L 518.4 512.64 
" style="fill:none;stroke:#000000;stroke-linecap:square;stroke-linejoin:miter;stroke-width:0.8;"/>
   </g>
   <g id="patch_6">
    <path d="M 72 69.12 
L 518.4 69.12 
" style="fill:none;stroke:#000000;stroke-linecap:square;stroke-linejoin:miter;stroke-width:0.8;"/>
   </g>
   <g id="text_18">
    <!-- 1 -->
    <defs>
     <path d="M 14.203125 0 
L 14.203125 5.171875 
L 26.90625 5.171875 
L 26.90625 65.828125 
L 12.203125 56.296875 
L 12.203125 62.703125 
L 29.984375 74.21875 
L 36.71875 74.21875 
L 36.71875 5.171875 
L 49.421875 5.171875 
L 49.421875 0 
z
" id="DejaVuSerif-31"/>
    </defs>
    <g transform="translate(167.412792 383.988829)scale(0.1 -0.1)">
     <use xlink:href="#DejaVuSerif-31"/>
    </g>
   </g>
   <g id="text_19">
    <!-- 1 -->
    <g transform="translate(138.261422 138.366723)scale(0.1 -0.1)">
     <use xlink:href="#DejaVuSerif-31"/>
    </g>
   </g>
   <g id="text_20">
    <!-- 2 -->
    <defs>
     <path d="M 12.796875 55.515625 
L 7.328125 55.515625 
L 7.328125 68.5 
Q 12.546875 71.296875 17.84375 72.75 
Q 23.140625 74.21875 28.21875 74.21875 
Q 39.59375 74.21875 46.1875 68.703125 
Q 52.78125 63.1875 52.78125 53.71875 
Q 52.78125 43.015625 37.84375 28.125 
Q 36.671875 27 36.078125 26.421875 
L 17.671875 8.015625 
L 48.09375 8.015625 
L 48.09375 17 
L 53.8125 17 
L 53.8125 0 
L 6.78125 0 
L 6.78125 5.328125 
L 28.90625 27.390625 
Q 36.234375 34.71875 39.359375 40.84375 
Q 42.484375 46.96875 42.484375 53.71875 
Q 42.484375 61.078125 38.640625 65.234375 
Q 34.8125 69.390625 28.078125 69.390625 
Q 21.09375 69.390625 17.28125 65.921875 
Q 13.484375 62.453125 12.796875 55.515625 
z
" id="DejaVuSerif-32"/>
    </defs>
    <g transform="translate(306.384444 156.023604)scale(0.1 -0.1)">
     <use xlink:href="#DejaVuSerif-32"/>
    </g>
   </g>
   <g id="text_21">
    <!-- 2 -->
    <g transform="translate(224.085524 407.821902)scale(0.1 -0.1)">
     <use xlink:href="#DejaVuSerif-32"/>
    </g>
   </g>
   <g id="text_22">
    <!-- 3 -->
    <defs>
     <path d="M 9.71875 69.828125 
Q 15.4375 71.96875 20.671875 73.09375 
Q 25.921875 74.21875 30.515625 74.21875 
Q 41.21875 74.21875 47.21875 69.59375 
Q 53.21875 64.984375 53.21875 56.78125 
Q 53.21875 50.203125 49.0625 45.78125 
Q 44.921875 41.359375 37.3125 39.796875 
Q 46.296875 38.53125 51.25 33.28125 
Q 56.203125 28.03125 56.203125 19.671875 
Q 56.203125 9.46875 49.34375 4.015625 
Q 42.484375 -1.421875 29.59375 -1.421875 
Q 23.875 -1.421875 18.421875 -0.1875 
Q 12.984375 1.03125 7.625 3.515625 
L 7.625 17.671875 
L 13.09375 17.671875 
Q 13.578125 10.640625 17.828125 7.03125 
Q 22.078125 3.421875 29.78125 3.421875 
Q 37.25 3.421875 41.578125 7.734375 
Q 45.90625 12.0625 45.90625 19.578125 
Q 45.90625 28.171875 41.453125 32.59375 
Q 37.015625 37.015625 28.421875 37.015625 
L 23.78125 37.015625 
L 23.78125 42 
L 26.21875 42 
Q 34.765625 42 39.03125 45.53125 
Q 43.3125 49.078125 43.3125 56.203125 
Q 43.3125 62.59375 39.796875 65.984375 
Q 36.28125 69.390625 29.6875 69.390625 
Q 23.09375 69.390625 19.453125 66.265625 
Q 15.828125 63.140625 15.1875 56.984375 
L 9.71875 56.984375 
z
" id="DejaVuSerif-33"/>
    </defs>
    <g transform="translate(137.245666 261.233736)scale(0.1 -0.1)">
     <use xlink:href="#DejaVuSerif-33"/>
    </g>
   </g>
   <g id="text_23">
    <!-- 3 -->
    <g transform="translate(390.674978 290.562192)scale(0.1 -0.1)">
     <use xlink:href="#DejaVuSerif-33"/>
    </g>
   </g>
   <g id="text_24">
    <!-- 4 -->
    <defs>
     <path d="M 34.90625 24.703125 
L 34.90625 63.484375 
L 10.015625 24.703125 
z
M 56.390625 0 
L 23.1875 0 
L 23.1875 5.171875 
L 34.90625 5.171875 
L 34.90625 19.484375 
L 3.078125 19.484375 
L 3.078125 24.8125 
L 35.015625 74.21875 
L 44.671875 74.21875 
L 44.671875 24.703125 
L 58.59375 24.703125 
L 58.59375 19.484375 
L 44.671875 19.484375 
L 44.671875 5.171875 
L 56.390625 5.171875 
z
" id="DejaVuSerif-34"/>
    </defs>
    <g transform="translate(341.181531 317.894461)scale(0.1 -0.1)">
     <use xlink:href="#DejaVuSerif-34"/>
    </g>
   </g>
   <g id="text_25">
    <!-- 4 -->
    <g transform="translate(375.223047 122.723631)scale(0.1 -0.1)">
     <use xlink:href="#DejaVuSerif-34"/>
    </g>
   </g>
   <g id="text_26">
    <!-- 5 -->
    <defs>
     <path d="M 50.296875 72.90625 
L 50.296875 64.890625 
L 16.890625 64.890625 
L 16.890625 44 
Q 19.4375 45.75 22.828125 46.625 
Q 26.21875 47.515625 30.421875 47.515625 
Q 42.234375 47.515625 49.0625 40.96875 
Q 55.90625 34.421875 55.90625 23.09375 
Q 55.90625 11.53125 49 5.046875 
Q 42.09375 -1.421875 29.59375 -1.421875 
Q 24.5625 -1.421875 19.28125 -0.1875 
Q 14.015625 1.03125 8.5 3.515625 
L 8.5 17.671875 
L 14.015625 17.671875 
Q 14.453125 10.75 18.421875 7.078125 
Q 22.40625 3.421875 29.59375 3.421875 
Q 37.3125 3.421875 41.453125 8.5 
Q 45.609375 13.578125 45.609375 23.09375 
Q 45.609375 32.5625 41.484375 37.609375 
Q 37.359375 42.671875 29.59375 42.671875 
Q 25.203125 42.671875 21.84375 41.109375 
Q 18.5 39.546875 15.921875 36.28125 
L 11.71875 36.28125 
L 11.71875 72.90625 
z
" id="DejaVuSerif-35"/>
    </defs>
    <g transform="translate(231.796018 454.769403)scale(0.1 -0.1)">
     <use xlink:href="#DejaVuSerif-35"/>
    </g>
   </g>
   <g id="text_27">
    <!-- 5 -->
    <g transform="translate(165.992449 230.129692)scale(0.1 -0.1)">
     <use xlink:href="#DejaVuSerif-35"/>
    </g>
   </g>
   <g id="text_28">
    <!-- 6 -->
    <defs>
     <path d="M 32.71875 3.421875 
Q 39.59375 3.421875 43.296875 8.46875 
Q 47.015625 13.53125 47.015625 23 
Q 47.015625 32.46875 43.296875 37.515625 
Q 39.59375 42.578125 32.71875 42.578125 
Q 25.734375 42.578125 22.0625 37.6875 
Q 18.40625 32.8125 18.40625 23.578125 
Q 18.40625 13.875 22.109375 8.640625 
Q 25.828125 3.421875 32.71875 3.421875 
z
M 16.796875 40.140625 
Q 20.125 43.796875 24.3125 45.59375 
Q 28.515625 47.40625 33.796875 47.40625 
Q 44.671875 47.40625 51 40.859375 
Q 57.328125 34.328125 57.328125 23 
Q 57.328125 11.921875 50.515625 5.25 
Q 43.703125 -1.421875 32.328125 -1.421875 
Q 19.96875 -1.421875 13.328125 7.78125 
Q 6.6875 17 6.6875 34.078125 
Q 6.6875 53.21875 14.546875 63.71875 
Q 22.40625 74.21875 36.71875 74.21875 
Q 40.578125 74.21875 44.828125 73.484375 
Q 49.078125 72.75 53.515625 71.296875 
L 53.515625 59.28125 
L 48 59.28125 
Q 47.40625 64.203125 44.234375 66.796875 
Q 41.0625 69.390625 35.6875 69.390625 
Q 26.21875 69.390625 21.578125 62.203125 
Q 16.9375 55.03125 16.796875 40.140625 
z
" id="DejaVuSerif-36"/>
    </defs>
    <g transform="translate(239.793461 285.641054)scale(0.1 -0.1)">
     <use xlink:href="#DejaVuSerif-36"/>
    </g>
   </g>
   <g id="text_29">
    <!-- 6 -->
    <g transform="translate(427.141404 360.003689)scale(0.1 -0.1)">
     <use xlink:href="#DejaVuSerif-36"/>
    </g>
   </g>
   <g id="text_30">
    <!-- 7 -->
    <defs>
     <path d="M 56.390625 67.921875 
L 27.875 0 
L 20.609375 0 
L 47.796875 64.890625 
L 14.109375 64.890625 
L 14.109375 55.90625 
L 8.40625 55.90625 
L 8.40625 72.90625 
L 56.390625 72.90625 
z
" id="DejaVuSerif-37"/>
    </defs>
    <g transform="translate(320.614555 389.460377)scale(0.1 -0.1)">
     <use xlink:href="#DejaVuSerif-37"/>
    </g>
   </g>
   <g id="text_31">
    <!-- 7 -->
    <g transform="translate(126.268225 361.616745)scale(0.1 -0.1)">
     <use xlink:href="#DejaVuSerif-37"/>
    </g>
   </g>
   <g id="text_32">
    <!-- 8 -->
    <defs>
     <path d="M 46.578125 19.921875 
Q 46.578125 27.734375 42.6875 32.046875 
Q 38.8125 36.375 31.78125 36.375 
Q 24.75 36.375 20.875 32.046875 
Q 17 27.734375 17 19.921875 
Q 17 12.0625 20.875 7.734375 
Q 24.75 3.421875 31.78125 3.421875 
Q 38.8125 3.421875 42.6875 7.734375 
Q 46.578125 12.0625 46.578125 19.921875 
z
M 44.578125 55.328125 
Q 44.578125 61.96875 41.203125 65.671875 
Q 37.84375 69.390625 31.78125 69.390625 
Q 25.78125 69.390625 22.390625 65.671875 
Q 19 61.96875 19 55.328125 
Q 19 48.640625 22.390625 44.921875 
Q 25.78125 41.21875 31.78125 41.21875 
Q 37.84375 41.21875 41.203125 44.921875 
Q 44.578125 48.640625 44.578125 55.328125 
z
M 39.3125 38.8125 
Q 47.609375 37.703125 52.25 32.6875 
Q 56.890625 27.6875 56.890625 19.921875 
Q 56.890625 9.671875 50.390625 4.125 
Q 43.890625 -1.421875 31.78125 -1.421875 
Q 19.734375 -1.421875 13.203125 4.125 
Q 6.6875 9.671875 6.6875 19.921875 
Q 6.6875 27.6875 11.328125 32.6875 
Q 15.96875 37.703125 24.3125 38.8125 
Q 16.9375 40.140625 13 44.40625 
Q 9.078125 48.6875 9.078125 55.328125 
Q 9.078125 64.109375 15.125 69.15625 
Q 21.1875 74.21875 31.78125 74.21875 
Q 42.390625 74.21875 48.4375 69.15625 
Q 54.5 64.109375 54.5 55.328125 
Q 54.5 48.6875 50.5625 44.40625 
Q 46.625 40.140625 39.3125 38.8125 
z
" id="DejaVuSerif-38"/>
    </defs>
    <g transform="translate(141.986161 307.823728)scale(0.1 -0.1)">
     <use xlink:href="#DejaVuSerif-38"/>
    </g>
   </g>
   <g id="text_33">
    <!-- 8 -->
    <g transform="translate(309.814648 205.71632)scale(0.1 -0.1)">
     <use xlink:href="#DejaVuSerif-38"/>
    </g>
   </g>
  </g>
 </g>
 <defs>
  <clipPath id="pbbed9cd8e0">
   <rect height="443.52" width="446.4" x="72" y="69.12"/>
  </clipPath>
 </defs>
</svg>
