<?xml version="1.0" encoding="utf-8" standalone="no"?>
<!DOCTYPE svg PUBLIC "-//W3C//DTD SVG 1.1//EN"
  "http://www.w3.org/Graphics/SVG/1.1/DTD/svg11.dtd">
<!-- Created with matplotlib (http://matplotlib.org/) -->
<svg height="576pt" version="1.1" viewBox="0 0 576 576" width="576pt" xmlns="http://www.w3.org/2000/svg" xmlns:xlink="http://www.w3.org/1999/xlink">
 <defs>
  <style type="text/css">
*{stroke-linecap:butt;stroke-linejoin:round;}
  </style>
 </defs>
 <g id="figure_1">
  <g id="patch_1">
   <path d="M 0 576 
L 576 576 
L 576 0 
L 0 0 
z
" style="fill:#ffffff;"/>
  </g>
  <g id="axes_1">
   <g id="patch_2">
    <path d="M 72 512.64 
L 518.4 512.64 
L 518.4 69.12 
L 72 69.12 
z
" style="fill:#ffffff;"/>
   </g>
   <g id="matplotlib.axis_1">
    <g id="xtick_1">
     <g id="line2d_1">
      <defs>
       <path d="M 0 0 
L 0 3.5 
" id="m1a7b164f59" style="stroke:#000000;stroke-width:0.8;"/>
      </defs>
      <g>
       <use style="stroke:#000000;stroke-width:0.8;" x="72" xlink:href="#m1a7b164f59" y="512.64"/>
      </g>
     </g>
     <g id="text_1">
      <!-- −1 -->
      <defs>
       <path d="M 10.59375 35.5 
L 73.1875 35.5 
L 73.1875 27.203125 
L 10.59375 27.203125 
z
" id="DejaVuSans-2212"/>
       <path d="M 12.40625 8.296875 
L 28.515625 8.296875 
L 28.515625 63.921875 
L 10.984375 60.40625 
L 10.984375 69.390625 
L 28.421875 72.90625 
L 38.28125 72.90625 
L 38.28125 8.296875 
L 54.390625 8.296875 
L 54.390625 0 
L 12.40625 0 
z
" id="DejaVuSans-31"/>
      </defs>
      <g transform="translate(64.628906 527.238438)scale(0.1 -0.1)">
       <use xlink:href="#DejaVuSans-2212"/>
       <use x="83.789062" xlink:href="#DejaVuSans-31"/>
      </g>
     </g>
    </g>
    <g id="xtick_2">
     <g id="line2d_2">
      <g>
       <use style="stroke:#000000;stroke-width:0.8;" x="125.783133" xlink:href="#m1a7b164f59" y="512.64"/>
      </g>
     </g>
     <g id="text_2">
      <!-- 0 -->
      <defs>
       <path d="M 31.78125 66.40625 
Q 24.171875 66.40625 20.328125 58.90625 
Q 16.5 51.421875 16.5 36.375 
Q 16.5 21.390625 20.328125 13.890625 
Q 24.171875 6.390625 31.78125 6.390625 
Q 39.453125 6.390625 43.28125 13.890625 
Q 47.125 21.390625 47.125 36.375 
Q 47.125 51.421875 43.28125 58.90625 
Q 39.453125 66.40625 31.78125 66.40625 
z
M 31.78125 74.21875 
Q 44.046875 74.21875 50.515625 64.515625 
Q 56.984375 54.828125 56.984375 36.375 
Q 56.984375 17.96875 50.515625 8.265625 
Q 44.046875 -1.421875 31.78125 -1.421875 
Q 19.53125 -1.421875 13.0625 8.265625 
Q 6.59375 17.96875 6.59375 36.375 
Q 6.59375 54.828125 13.0625 64.515625 
Q 19.53125 74.21875 31.78125 74.21875 
z
" id="DejaVuSans-30"/>
      </defs>
      <g transform="translate(122.601883 527.238438)scale(0.1 -0.1)">
       <use xlink:href="#DejaVuSans-30"/>
      </g>
     </g>
    </g>
    <g id="xtick_3">
     <g id="line2d_3">
      <g>
       <use style="stroke:#000000;stroke-width:0.8;" x="179.566265" xlink:href="#m1a7b164f59" y="512.64"/>
      </g>
     </g>
     <g id="text_3">
      <!-- 1 -->
      <g transform="translate(176.385015 527.238438)scale(0.1 -0.1)">
       <use xlink:href="#DejaVuSans-31"/>
      </g>
     </g>
    </g>
    <g id="xtick_4">
     <g id="line2d_4">
      <g>
       <use style="stroke:#000000;stroke-width:0.8;" x="233.349398" xlink:href="#m1a7b164f59" y="512.64"/>
      </g>
     </g>
     <g id="text_4">
      <!-- 2 -->
      <defs>
       <path d="M 19.1875 8.296875 
L 53.609375 8.296875 
L 53.609375 0 
L 7.328125 0 
L 7.328125 8.296875 
Q 12.9375 14.109375 22.625 23.890625 
Q 32.328125 33.6875 34.8125 36.53125 
Q 39.546875 41.84375 41.421875 45.53125 
Q 43.3125 49.21875 43.3125 52.78125 
Q 43.3125 58.59375 39.234375 62.25 
Q 35.15625 65.921875 28.609375 65.921875 
Q 23.96875 65.921875 18.8125 64.3125 
Q 13.671875 62.703125 7.8125 59.421875 
L 7.8125 69.390625 
Q 13.765625 71.78125 18.9375 73 
Q 24.125 74.21875 28.421875 74.21875 
Q 39.75 74.21875 46.484375 68.546875 
Q 53.21875 62.890625 53.21875 53.421875 
Q 53.21875 48.921875 51.53125 44.890625 
Q 49.859375 40.875 45.40625 35.40625 
Q 44.1875 33.984375 37.640625 27.21875 
Q 31.109375 20.453125 19.1875 8.296875 
z
" id="DejaVuSans-32"/>
      </defs>
      <g transform="translate(230.168148 527.238438)scale(0.1 -0.1)">
       <use xlink:href="#DejaVuSans-32"/>
      </g>
     </g>
    </g>
    <g id="xtick_5">
     <g id="line2d_5">
      <g>
       <use style="stroke:#000000;stroke-width:0.8;" x="287.13253" xlink:href="#m1a7b164f59" y="512.64"/>
      </g>
     </g>
     <g id="text_5">
      <!-- 3 -->
      <defs>
       <path d="M 40.578125 39.3125 
Q 47.65625 37.796875 51.625 33 
Q 55.609375 28.21875 55.609375 21.1875 
Q 55.609375 10.40625 48.1875 4.484375 
Q 40.765625 -1.421875 27.09375 -1.421875 
Q 22.515625 -1.421875 17.65625 -0.515625 
Q 12.796875 0.390625 7.625 2.203125 
L 7.625 11.71875 
Q 11.71875 9.328125 16.59375 8.109375 
Q 21.484375 6.890625 26.8125 6.890625 
Q 36.078125 6.890625 40.9375 10.546875 
Q 45.796875 14.203125 45.796875 21.1875 
Q 45.796875 27.640625 41.28125 31.265625 
Q 36.765625 34.90625 28.71875 34.90625 
L 20.21875 34.90625 
L 20.21875 43.015625 
L 29.109375 43.015625 
Q 36.375 43.015625 40.234375 45.921875 
Q 44.09375 48.828125 44.09375 54.296875 
Q 44.09375 59.90625 40.109375 62.90625 
Q 36.140625 65.921875 28.71875 65.921875 
Q 24.65625 65.921875 20.015625 65.03125 
Q 15.375 64.15625 9.8125 62.3125 
L 9.8125 71.09375 
Q 15.4375 72.65625 20.34375 73.4375 
Q 25.25 74.21875 29.59375 74.21875 
Q 40.828125 74.21875 47.359375 69.109375 
Q 53.90625 64.015625 53.90625 55.328125 
Q 53.90625 49.265625 50.4375 45.09375 
Q 46.96875 40.921875 40.578125 39.3125 
z
" id="DejaVuSans-33"/>
      </defs>
      <g transform="translate(283.95128 527.238438)scale(0.1 -0.1)">
       <use xlink:href="#DejaVuSans-33"/>
      </g>
     </g>
    </g>
    <g id="xtick_6">
     <g id="line2d_6">
      <g>
       <use style="stroke:#000000;stroke-width:0.8;" x="340.915663" xlink:href="#m1a7b164f59" y="512.64"/>
      </g>
     </g>
     <g id="text_6">
      <!-- 4 -->
      <defs>
       <path d="M 37.796875 64.3125 
L 12.890625 25.390625 
L 37.796875 25.390625 
z
M 35.203125 72.90625 
L 47.609375 72.90625 
L 47.609375 25.390625 
L 58.015625 25.390625 
L 58.015625 17.1875 
L 47.609375 17.1875 
L 47.609375 0 
L 37.796875 0 
L 37.796875 17.1875 
L 4.890625 17.1875 
L 4.890625 26.703125 
z
" id="DejaVuSans-34"/>
      </defs>
      <g transform="translate(337.734413 527.238438)scale(0.1 -0.1)">
       <use xlink:href="#DejaVuSans-34"/>
      </g>
     </g>
    </g>
    <g id="xtick_7">
     <g id="line2d_7">
      <g>
       <use style="stroke:#000000;stroke-width:0.8;" x="394.698795" xlink:href="#m1a7b164f59" y="512.64"/>
      </g>
     </g>
     <g id="text_7">
      <!-- 5 -->
      <defs>
       <path d="M 10.796875 72.90625 
L 49.515625 72.90625 
L 49.515625 64.59375 
L 19.828125 64.59375 
L 19.828125 46.734375 
Q 21.96875 47.46875 24.109375 47.828125 
Q 26.265625 48.1875 28.421875 48.1875 
Q 40.625 48.1875 47.75 41.5 
Q 54.890625 34.8125 54.890625 23.390625 
Q 54.890625 11.625 47.5625 5.09375 
Q 40.234375 -1.421875 26.90625 -1.421875 
Q 22.3125 -1.421875 17.546875 -0.640625 
Q 12.796875 0.140625 7.71875 1.703125 
L 7.71875 11.625 
Q 12.109375 9.234375 16.796875 8.0625 
Q 21.484375 6.890625 26.703125 6.890625 
Q 35.15625 6.890625 40.078125 11.328125 
Q 45.015625 15.765625 45.015625 23.390625 
Q 45.015625 31 40.078125 35.4375 
Q 35.15625 39.890625 26.703125 39.890625 
Q 22.75 39.890625 18.8125 39.015625 
Q 14.890625 38.140625 10.796875 36.28125 
z
" id="DejaVuSans-35"/>
      </defs>
      <g transform="translate(391.517545 527.238438)scale(0.1 -0.1)">
       <use xlink:href="#DejaVuSans-35"/>
      </g>
     </g>
    </g>
    <g id="xtick_8">
     <g id="line2d_8">
      <g>
       <use style="stroke:#000000;stroke-width:0.8;" x="448.481928" xlink:href="#m1a7b164f59" y="512.64"/>
      </g>
     </g>
     <g id="text_8">
      <!-- 6 -->
      <defs>
       <path d="M 33.015625 40.375 
Q 26.375 40.375 22.484375 35.828125 
Q 18.609375 31.296875 18.609375 23.390625 
Q 18.609375 15.53125 22.484375 10.953125 
Q 26.375 6.390625 33.015625 6.390625 
Q 39.65625 6.390625 43.53125 10.953125 
Q 47.40625 15.53125 47.40625 23.390625 
Q 47.40625 31.296875 43.53125 35.828125 
Q 39.65625 40.375 33.015625 40.375 
z
M 52.59375 71.296875 
L 52.59375 62.3125 
Q 48.875 64.0625 45.09375 64.984375 
Q 41.3125 65.921875 37.59375 65.921875 
Q 27.828125 65.921875 22.671875 59.328125 
Q 17.53125 52.734375 16.796875 39.40625 
Q 19.671875 43.65625 24.015625 45.921875 
Q 28.375 48.1875 33.59375 48.1875 
Q 44.578125 48.1875 50.953125 41.515625 
Q 57.328125 34.859375 57.328125 23.390625 
Q 57.328125 12.15625 50.6875 5.359375 
Q 44.046875 -1.421875 33.015625 -1.421875 
Q 20.359375 -1.421875 13.671875 8.265625 
Q 6.984375 17.96875 6.984375 36.375 
Q 6.984375 53.65625 15.1875 63.9375 
Q 23.390625 74.21875 37.203125 74.21875 
Q 40.921875 74.21875 44.703125 73.484375 
Q 48.484375 72.75 52.59375 71.296875 
z
" id="DejaVuSans-36"/>
      </defs>
      <g transform="translate(445.300678 527.238438)scale(0.1 -0.1)">
       <use xlink:href="#DejaVuSans-36"/>
      </g>
     </g>
    </g>
    <g id="xtick_9">
     <g id="line2d_9">
      <g>
       <use style="stroke:#000000;stroke-width:0.8;" x="502.26506" xlink:href="#m1a7b164f59" y="512.64"/>
      </g>
     </g>
     <g id="text_9">
      <!-- 7 -->
      <defs>
       <path d="M 8.203125 72.90625 
L 55.078125 72.90625 
L 55.078125 68.703125 
L 28.609375 0 
L 18.3125 0 
L 43.21875 64.59375 
L 8.203125 64.59375 
z
" id="DejaVuSans-37"/>
      </defs>
      <g transform="translate(499.08381 527.238438)scale(0.1 -0.1)">
       <use xlink:href="#DejaVuSans-37"/>
      </g>
     </g>
    </g>
   </g>
   <g id="matplotlib.axis_2">
    <g id="ytick_1">
     <g id="line2d_10">
      <defs>
       <path d="M 0 0 
L -3.5 0 
" id="md0b86192e0" style="stroke:#000000;stroke-width:0.8;"/>
      </defs>
      <g>
       <use style="stroke:#000000;stroke-width:0.8;" x="72" xlink:href="#md0b86192e0" y="460.296867"/>
      </g>
     </g>
     <g id="text_10">
      <!-- 0 -->
      <g transform="translate(58.6375 464.096086)scale(0.1 -0.1)">
       <use xlink:href="#DejaVuSans-30"/>
      </g>
     </g>
    </g>
    <g id="ytick_2">
     <g id="line2d_11">
      <g>
       <use style="stroke:#000000;stroke-width:0.8;" x="72" xlink:href="#md0b86192e0" y="406.513735"/>
      </g>
     </g>
     <g id="text_11">
      <!-- 1 -->
      <g transform="translate(58.6375 410.312954)scale(0.1 -0.1)">
       <use xlink:href="#DejaVuSans-31"/>
      </g>
     </g>
    </g>
    <g id="ytick_3">
     <g id="line2d_12">
      <g>
       <use style="stroke:#000000;stroke-width:0.8;" x="72" xlink:href="#md0b86192e0" y="352.730602"/>
      </g>
     </g>
     <g id="text_12">
      <!-- 2 -->
      <g transform="translate(58.6375 356.529821)scale(0.1 -0.1)">
       <use xlink:href="#DejaVuSans-32"/>
      </g>
     </g>
    </g>
    <g id="ytick_4">
     <g id="line2d_13">
      <g>
       <use style="stroke:#000000;stroke-width:0.8;" x="72" xlink:href="#md0b86192e0" y="298.94747"/>
      </g>
     </g>
     <g id="text_13">
      <!-- 3 -->
      <g transform="translate(58.6375 302.746689)scale(0.1 -0.1)">
       <use xlink:href="#DejaVuSans-33"/>
      </g>
     </g>
    </g>
    <g id="ytick_5">
     <g id="line2d_14">
      <g>
       <use style="stroke:#000000;stroke-width:0.8;" x="72" xlink:href="#md0b86192e0" y="245.164337"/>
      </g>
     </g>
     <g id="text_14">
      <!-- 4 -->
      <g transform="translate(58.6375 248.963556)scale(0.1 -0.1)">
       <use xlink:href="#DejaVuSans-34"/>
      </g>
     </g>
    </g>
    <g id="ytick_6">
     <g id="line2d_15">
      <g>
       <use style="stroke:#000000;stroke-width:0.8;" x="72" xlink:href="#md0b86192e0" y="191.381205"/>
      </g>
     </g>
     <g id="text_15">
      <!-- 5 -->
      <g transform="translate(58.6375 195.180424)scale(0.1 -0.1)">
       <use xlink:href="#DejaVuSans-35"/>
      </g>
     </g>
    </g>
    <g id="ytick_7">
     <g id="line2d_16">
      <g>
       <use style="stroke:#000000;stroke-width:0.8;" x="72" xlink:href="#md0b86192e0" y="137.598072"/>
      </g>
     </g>
     <g id="text_16">
      <!-- 6 -->
      <g transform="translate(58.6375 141.397291)scale(0.1 -0.1)">
       <use xlink:href="#DejaVuSans-36"/>
      </g>
     </g>
    </g>
    <g id="ytick_8">
     <g id="line2d_17">
      <g>
       <use style="stroke:#000000;stroke-width:0.8;" x="72" xlink:href="#md0b86192e0" y="83.81494"/>
      </g>
     </g>
     <g id="text_17">
      <!-- 7 -->
      <g transform="translate(58.6375 87.614159)scale(0.1 -0.1)">
       <use xlink:href="#DejaVuSans-37"/>
      </g>
     </g>
    </g>
   </g>
   <g id="line2d_18">
    <path clip-path="url(#p591a82b738)" d="M 312.252788 330.41161 
" style="fill:none;stroke:#1f77b4;stroke-linecap:square;stroke-width:1.5;"/>
    <defs>
     <path d="M -5 5 
L 5 5 
L 5 -5 
L -5 -5 
z
" id="md5ec61fcb2" style="stroke:#8000ff;stroke-linejoin:miter;"/>
    </defs>
    <g clip-path="url(#p591a82b738)">
     <use style="fill:#8000ff;stroke:#8000ff;stroke-linejoin:miter;" x="312.252788" xlink:href="#md5ec61fcb2" y="330.41161"/>
    </g>
   </g>
   <g id="line2d_19">
    <path clip-path="url(#p591a82b738)" d="M 221.644997 127.211291 
" style="fill:none;stroke:#ff7f0e;stroke-linecap:square;stroke-width:1.5;"/>
    <defs>
     <path d="M 0 -5 
L -4.755283 -1.545085 
L -2.938926 4.045085 
L 2.938926 4.045085 
L 4.755283 -1.545085 
z
" id="ma3991cdca6" style="stroke:#8000ff;stroke-linejoin:miter;"/>
    </defs>
    <g clip-path="url(#p591a82b738)">
     <use style="fill:#8000ff;stroke:#8000ff;stroke-linejoin:miter;" x="221.644997" xlink:href="#ma3991cdca6" y="127.211291"/>
    </g>
   </g>
   <g id="line2d_20">
    <path clip-path="url(#p591a82b738)" d="M 251.143206 161.9897 
" style="fill:none;stroke:#2ca02c;stroke-linecap:square;stroke-width:1.5;"/>
    <defs>
     <path d="M -5 5 
L 5 5 
L 5 -5 
L -5 -5 
z
" id="md6581078bd" style="stroke:#376ff9;stroke-linejoin:miter;"/>
    </defs>
    <g clip-path="url(#p591a82b738)">
     <use style="fill:#376ff9;stroke:#376ff9;stroke-linejoin:miter;" x="251.143206" xlink:href="#md6581078bd" y="161.9897"/>
    </g>
   </g>
   <g id="line2d_21">
    <path clip-path="url(#p591a82b738)" d="M 431.158962 392.294526 
" style="fill:none;stroke:#d62728;stroke-linecap:square;stroke-width:1.5;"/>
    <defs>
     <path d="M 0 -5 
L -4.755283 -1.545085 
L -2.938926 4.045085 
L 2.938926 4.045085 
L 4.755283 -1.545085 
z
" id="m98bb6c737b" style="stroke:#376ff9;stroke-linejoin:miter;"/>
    </defs>
    <g clip-path="url(#p591a82b738)">
     <use style="fill:#376ff9;stroke:#376ff9;stroke-linejoin:miter;" x="431.158962" xlink:href="#m98bb6c737b" y="392.294526"/>
    </g>
   </g>
   <g id="line2d_22">
    <path clip-path="url(#p591a82b738)" d="M 135.535777 214.854008 
" style="fill:none;stroke:#9467bd;stroke-linecap:square;stroke-width:1.5;"/>
    <defs>
     <path d="M -5 5 
L 5 5 
L 5 -5 
L -5 -5 
z
" id="m9ffd22b5c4" style="stroke:#12c7e6;stroke-linejoin:miter;"/>
    </defs>
    <g clip-path="url(#p591a82b738)">
     <use style="fill:#12c7e6;stroke:#12c7e6;stroke-linejoin:miter;" x="135.535777" xlink:href="#m9ffd22b5c4" y="214.854008"/>
    </g>
   </g>
   <g id="line2d_23">
    <path clip-path="url(#p591a82b738)" d="M 337.702834 298.595194 
" style="fill:none;stroke:#8c564b;stroke-linecap:square;stroke-width:1.5;"/>
    <defs>
     <path d="M 0 -5 
L -4.755283 -1.545085 
L -2.938926 4.045085 
L 2.938926 4.045085 
L 4.755283 -1.545085 
z
" id="m36f0128b38" style="stroke:#12c7e6;stroke-linejoin:miter;"/>
    </defs>
    <g clip-path="url(#p591a82b738)">
     <use style="fill:#12c7e6;stroke:#12c7e6;stroke-linejoin:miter;" x="337.702834" xlink:href="#m36f0128b38" y="298.595194"/>
    </g>
   </g>
   <g id="line2d_24">
    <path clip-path="url(#p591a82b738)" d="M 172.344997 392.243788 
" style="fill:none;stroke:#e377c2;stroke-linecap:square;stroke-width:1.5;"/>
    <defs>
     <path d="M -5 5 
L 5 5 
L 5 -5 
L -5 -5 
z
" id="md72f5b4934" style="stroke:#5bf9c7;stroke-linejoin:miter;"/>
    </defs>
    <g clip-path="url(#p591a82b738)">
     <use style="fill:#5bf9c7;stroke:#5bf9c7;stroke-linejoin:miter;" x="172.344997" xlink:href="#md72f5b4934" y="392.243788"/>
    </g>
   </g>
   <g id="line2d_25">
    <path clip-path="url(#p591a82b738)" d="M 374.123864 125.35026 
" style="fill:none;stroke:#7f7f7f;stroke-linecap:square;stroke-width:1.5;"/>
    <defs>
     <path d="M 0 -5 
L -4.755283 -1.545085 
L -2.938926 4.045085 
L 2.938926 4.045085 
L 4.755283 -1.545085 
z
" id="m971269a963" style="stroke:#5bf9c7;stroke-linejoin:miter;"/>
    </defs>
    <g clip-path="url(#p591a82b738)">
     <use style="fill:#5bf9c7;stroke:#5bf9c7;stroke-linejoin:miter;" x="374.123864" xlink:href="#m971269a963" y="125.35026"/>
    </g>
   </g>
   <g id="line2d_26">
    <path clip-path="url(#p591a82b738)" d="M 144.055109 173.937855 
" style="fill:none;stroke:#bcbd22;stroke-linecap:square;stroke-width:1.5;"/>
    <defs>
     <path d="M -5 5 
L 5 5 
L 5 -5 
L -5 -5 
z
" id="m5b5162a8a6" style="stroke:#a4f99f;stroke-linejoin:miter;"/>
    </defs>
    <g clip-path="url(#p591a82b738)">
     <use style="fill:#a4f99f;stroke:#a4f99f;stroke-linejoin:miter;" x="144.055109" xlink:href="#m5b5162a8a6" y="173.937855"/>
    </g>
   </g>
   <g id="line2d_27">
    <path clip-path="url(#p591a82b738)" d="M 397.028487 196.572497 
" style="fill:none;stroke:#17becf;stroke-linecap:square;stroke-width:1.5;"/>
    <defs>
     <path d="M 0 -5 
L -4.755283 -1.545085 
L -2.938926 4.045085 
L 2.938926 4.045085 
L 4.755283 -1.545085 
z
" id="mf94ef6e763" style="stroke:#a4f99f;stroke-linejoin:miter;"/>
    </defs>
    <g clip-path="url(#p591a82b738)">
     <use style="fill:#a4f99f;stroke:#a4f99f;stroke-linejoin:miter;" x="397.028487" xlink:href="#mf94ef6e763" y="196.572497"/>
    </g>
   </g>
   <g id="line2d_28">
    <path clip-path="url(#p591a82b738)" d="M 259.689172 199.140051 
" style="fill:none;stroke:#1f77b4;stroke-linecap:square;stroke-width:1.5;"/>
    <defs>
     <path d="M -5 5 
L 5 5 
L 5 -5 
L -5 -5 
z
" id="mf401ed8c88" style="stroke:#edc76f;stroke-linejoin:miter;"/>
    </defs>
    <g clip-path="url(#p591a82b738)">
     <use style="fill:#edc76f;stroke:#edc76f;stroke-linejoin:miter;" x="259.689172" xlink:href="#mf401ed8c88" y="199.140051"/>
    </g>
   </g>
   <g id="line2d_29">
    <path clip-path="url(#p591a82b738)" d="M 408.102674 440.402039 
" style="fill:none;stroke:#ff7f0e;stroke-linecap:square;stroke-width:1.5;"/>
    <defs>
     <path d="M 0 -5 
L -4.755283 -1.545085 
L -2.938926 4.045085 
L 2.938926 4.045085 
L 4.755283 -1.545085 
z
" id="m12b861e0bf" style="stroke:#edc76f;stroke-linejoin:miter;"/>
    </defs>
    <g clip-path="url(#p591a82b738)">
     <use style="fill:#edc76f;stroke:#edc76f;stroke-linejoin:miter;" x="408.102674" xlink:href="#m12b861e0bf" y="440.402039"/>
    </g>
   </g>
   <g id="line2d_30">
    <path clip-path="url(#p591a82b738)" d="M 393.734354 292.824996 
" style="fill:none;stroke:#2ca02c;stroke-linecap:square;stroke-width:1.5;"/>
    <defs>
     <path d="M -5 5 
L 5 5 
L 5 -5 
L -5 -5 
z
" id="mfefd9ad1ec" style="stroke:#ff6f39;stroke-linejoin:miter;"/>
    </defs>
    <g clip-path="url(#p591a82b738)">
     <use style="fill:#ff6f39;stroke:#ff6f39;stroke-linejoin:miter;" x="393.734354" xlink:href="#mfefd9ad1ec" y="292.824996"/>
    </g>
   </g>
   <g id="line2d_31">
    <path clip-path="url(#p591a82b738)" d="M 129.047148 282.855902 
" style="fill:none;stroke:#d62728;stroke-linecap:square;stroke-width:1.5;"/>
    <defs>
     <path d="M 0 -5 
L -4.755283 -1.545085 
L -2.938926 4.045085 
L 2.938926 4.045085 
L 4.755283 -1.545085 
z
" id="m3ca2f14909" style="stroke:#ff6f39;stroke-linejoin:miter;"/>
    </defs>
    <g clip-path="url(#p591a82b738)">
     <use style="fill:#ff6f39;stroke:#ff6f39;stroke-linejoin:miter;" x="129.047148" xlink:href="#m3ca2f14909" y="282.855902"/>
    </g>
   </g>
   <g id="line2d_32">
    <path clip-path="url(#p591a82b738)" d="M 358.927242 164.892322 
" style="fill:none;stroke:#9467bd;stroke-linecap:square;stroke-width:1.5;"/>
    <defs>
     <path d="M -5 5 
L 5 5 
L 5 -5 
L -5 -5 
z
" id="md9dd799474" style="stroke:#ff0000;stroke-linejoin:miter;"/>
    </defs>
    <g clip-path="url(#p591a82b738)">
     <use style="fill:#ff0000;stroke:#ff0000;stroke-linejoin:miter;" x="358.927242" xlink:href="#md9dd799474" y="164.892322"/>
    </g>
   </g>
   <g id="line2d_33">
    <path clip-path="url(#p591a82b738)" d="M 340.051939 415.316566 
" style="fill:none;stroke:#8c564b;stroke-linecap:square;stroke-width:1.5;"/>
    <defs>
     <path d="M 0 -5 
L -4.755283 -1.545085 
L -2.938926 4.045085 
L 2.938926 4.045085 
L 4.755283 -1.545085 
z
" id="m703578ec42" style="stroke:#ff0000;stroke-linejoin:miter;"/>
    </defs>
    <g clip-path="url(#p591a82b738)">
     <use style="fill:#ff0000;stroke:#ff0000;stroke-linejoin:miter;" x="340.051939" xlink:href="#m703578ec42" y="415.316566"/>
    </g>
   </g>
   <g id="line2d_34">
    <defs>
     <path d="M 0 2.5 
C 0.663008 2.5 1.29895 2.236584 1.767767 1.767767 
C 2.236584 1.29895 2.5 0.663008 2.5 0 
C 2.5 -0.663008 2.236584 -1.29895 1.767767 -1.767767 
C 1.29895 -2.236584 0.663008 -2.5 0 -2.5 
C -0.663008 -2.5 -1.29895 -2.236584 -1.767767 -1.767767 
C -2.236584 -1.29895 -2.5 -0.663008 -2.5 0 
C -2.5 0.663008 -2.236584 1.29895 -1.767767 1.767767 
C -1.29895 2.236584 -0.663008 2.5 0 2.5 
z
" id="m3dc98468ef" style="stroke:#000000;"/>
    </defs>
    <g clip-path="url(#p591a82b738)">
     <use style="stroke:#000000;" x="363.657966" xlink:href="#m3dc98468ef" y="221.36619"/>
     <use style="stroke:#000000;" x="236.868269" xlink:href="#m3dc98468ef" y="323.287356"/>
     <use style="stroke:#000000;" x="328.73696" xlink:href="#m3dc98468ef" y="370.480655"/>
     <use style="stroke:#000000;" x="444.118713" xlink:href="#m3dc98468ef" y="290.48831"/>
     <use style="stroke:#000000;" x="363.743643" xlink:href="#m3dc98468ef" y="245.251055"/>
     <use style="stroke:#000000;" x="370.533806" xlink:href="#m3dc98468ef" y="450.057505"/>
     <use style="stroke:#000000;" x="215.919525" xlink:href="#m3dc98468ef" y="408.601505"/>
     <use style="stroke:#000000;" x="384.279685" xlink:href="#m3dc98468ef" y="346.361535"/>
     <use style="stroke:#000000;" x="429.523246" xlink:href="#m3dc98468ef" y="166.021597"/>
     <use style="stroke:#000000;" x="241.608573" xlink:href="#m3dc98468ef" y="445.480549"/>
     <use style="stroke:#000000;" x="393.410229" xlink:href="#m3dc98468ef" y="236.534732"/>
     <use style="stroke:#000000;" x="285.925266" xlink:href="#m3dc98468ef" y="275.908408"/>
     <use style="stroke:#000000;" x="288.967544" xlink:href="#m3dc98468ef" y="371.658574"/>
     <use style="stroke:#000000;" x="420.996957" xlink:href="#m3dc98468ef" y="322.541467"/>
     <use style="stroke:#000000;" x="441.494331" xlink:href="#m3dc98468ef" y="349.949709"/>
     <use style="stroke:#000000;" x="284.363097" xlink:href="#m3dc98468ef" y="448.920958"/>
     <use style="stroke:#000000;" x="215.178543" xlink:href="#m3dc98468ef" y="240.343288"/>
     <use style="stroke:#000000;" x="169.409295" xlink:href="#m3dc98468ef" y="261.732423"/>
     <use style="stroke:#000000;" x="381.918701" xlink:href="#m3dc98468ef" y="390.623681"/>
     <use style="stroke:#000000;" x="219.088165" xlink:href="#m3dc98468ef" y="201.995048"/>
     <use style="stroke:#000000;" x="301.522924" xlink:href="#m3dc98468ef" y="177.221021"/>
     <use style="stroke:#000000;" x="169.726264" xlink:href="#m3dc98468ef" y="443.791912"/>
     <use style="stroke:#000000;" x="363.700805" xlink:href="#m3dc98468ef" y="233.308622"/>
     <use style="stroke:#000000;" x="378.534098" xlink:href="#m3dc98468ef" y="228.950461"/>
     <use style="stroke:#000000;" x="378.576936" xlink:href="#m3dc98468ef" y="240.892894"/>
     <use style="stroke:#000000;" x="431.245644" xlink:href="#m3dc98468ef" y="336.245588"/>
    </g>
   </g>
   <g id="line2d_35">
    <path clip-path="url(#p591a82b738)" d="M 385.171219 221.36619 
L 384.005572 214.380848 
L 380.634946 208.152477 
L 375.424601 203.356016 
L 368.939158 200.511237 
L 361.881416 199.926416 
L 355.016191 201.664927 
L 349.087437 205.538375 
L 344.737625 211.127013 
L 342.438126 217.825225 
L 342.438126 224.907155 
L 344.737625 231.605367 
L 349.087437 237.194005 
L 355.016191 241.067453 
L 361.881416 242.805964 
L 368.939158 242.221143 
L 375.424601 239.376364 
L 380.634946 234.579904 
L 384.005572 228.351532 
L 385.171219 221.36619 
" style="fill:none;stroke:#000000;stroke-dasharray:5.55,2.4;stroke-dashoffset:0;stroke-width:1.5;"/>
   </g>
   <g id="line2d_36">
    <path clip-path="url(#p591a82b738)" d="M 369.574111 221.36619 
L 369.253558 219.445221 
L 368.326636 217.732419 
L 366.893791 216.413392 
L 365.110294 215.631078 
L 363.169415 215.470252 
L 361.281478 215.948343 
L 359.651071 217.013541 
L 358.454873 218.550416 
L 357.82251 220.392425 
L 357.82251 222.339955 
L 358.454873 224.181964 
L 359.651071 225.718839 
L 361.281478 226.784037 
L 363.169415 227.262128 
L 365.110294 227.101302 
L 366.893791 226.318988 
L 368.326636 224.999961 
L 369.253558 223.287159 
L 369.574111 221.36619 
" style="fill:none;stroke:#ff0000;stroke-linecap:square;stroke-width:1.5;"/>
   </g>
   <g id="line2d_37">
    <path clip-path="url(#p591a82b738)" d="M 258.381522 323.287356 
L 257.215875 316.302014 
L 253.845249 310.073642 
L 248.634903 305.277181 
L 242.149461 302.432402 
L 235.091719 301.847581 
L 228.226494 303.586092 
L 222.297739 307.459541 
L 217.947928 313.048179 
L 215.648429 319.746391 
L 215.648429 326.828321 
L 217.947928 333.526532 
L 222.297739 339.11517 
L 228.226494 342.988619 
L 235.091719 344.72713 
L 242.149461 344.142309 
L 248.634903 341.29753 
L 253.845249 336.501069 
L 257.215875 330.272697 
L 258.381522 323.287356 
" style="fill:none;stroke:#000000;stroke-dasharray:5.55,2.4;stroke-dashoffset:0;stroke-width:1.5;"/>
   </g>
   <g id="line2d_38">
    <path clip-path="url(#p591a82b738)" d="M 242.784414 323.287356 
L 242.463861 321.366387 
L 241.536938 319.653584 
L 240.104093 318.334558 
L 238.320597 317.552243 
L 236.379718 317.391418 
L 234.491781 317.869508 
L 232.861373 318.934707 
L 231.665175 320.471582 
L 231.032813 322.31359 
L 231.032813 324.261121 
L 231.665175 326.103129 
L 232.861373 327.640005 
L 234.491781 328.705203 
L 236.379718 329.183294 
L 238.320597 329.022468 
L 240.104093 328.240154 
L 241.536938 326.921127 
L 242.463861 325.208325 
L 242.784414 323.287356 
" style="fill:none;stroke:#ff0000;stroke-linecap:square;stroke-width:1.5;"/>
   </g>
   <g id="line2d_39">
    <path clip-path="url(#p591a82b738)" d="M 350.250213 370.480655 
L 349.084565 363.495313 
L 345.713939 357.266941 
L 340.503594 352.47048 
L 334.018151 349.625701 
L 326.960409 349.04088 
L 320.095184 350.779391 
L 314.16643 354.65284 
L 309.816618 360.241478 
L 307.51712 366.939689 
L 307.51712 374.02162 
L 309.816618 380.719831 
L 314.16643 386.308469 
L 320.095184 390.181918 
L 326.960409 391.920429 
L 334.018151 391.335608 
L 340.503594 388.490829 
L 345.713939 383.694368 
L 349.084565 377.465996 
L 350.250213 370.480655 
" style="fill:none;stroke:#000000;stroke-dasharray:5.55,2.4;stroke-dashoffset:0;stroke-width:1.5;"/>
   </g>
   <g id="line2d_40">
    <path clip-path="url(#p591a82b738)" d="M 334.653104 370.480655 
L 334.332551 368.559686 
L 333.405629 366.846883 
L 331.972784 365.527857 
L 330.189287 364.745542 
L 328.248408 364.584717 
L 326.360472 365.062807 
L 324.730064 366.128006 
L 323.533866 367.664881 
L 322.901504 369.506889 
L 322.901504 371.45442 
L 323.533866 373.296428 
L 324.730064 374.833304 
L 326.360472 375.898502 
L 328.248408 376.376593 
L 330.189287 376.215767 
L 331.972784 375.433452 
L 333.405629 374.114426 
L 334.332551 372.401624 
L 334.653104 370.480655 
" style="fill:none;stroke:#ff0000;stroke-linecap:square;stroke-width:1.5;"/>
   </g>
   <g id="line2d_41">
    <path clip-path="url(#p591a82b738)" d="M 465.631966 290.48831 
L 464.466319 283.502968 
L 461.095692 277.274596 
L 455.885347 272.478136 
L 449.399904 269.633357 
L 442.342163 269.048535 
L 435.476938 270.787047 
L 429.548183 274.660495 
L 425.198372 280.249133 
L 422.898873 286.947345 
L 422.898873 294.029275 
L 425.198372 300.727487 
L 429.548183 306.316124 
L 435.476938 310.189573 
L 442.342163 311.928084 
L 449.399904 311.343263 
L 455.885347 308.498484 
L 461.095692 303.702023 
L 464.466319 297.473652 
L 465.631966 290.48831 
" style="fill:none;stroke:#000000;stroke-dasharray:5.55,2.4;stroke-dashoffset:0;stroke-width:1.5;"/>
   </g>
   <g id="line2d_42">
    <path clip-path="url(#p591a82b738)" d="M 450.034857 290.48831 
L 449.714304 288.567341 
L 448.787382 286.854539 
L 447.354537 285.535512 
L 445.571041 284.753198 
L 443.630162 284.592372 
L 441.742225 285.070462 
L 440.111817 286.135661 
L 438.915619 287.672536 
L 438.283257 289.514544 
L 438.283257 291.462075 
L 438.915619 293.304083 
L 440.111817 294.840959 
L 441.742225 295.906157 
L 443.630162 296.384248 
L 445.571041 296.223422 
L 447.354537 295.441108 
L 448.787382 294.122081 
L 449.714304 292.409279 
L 450.034857 290.48831 
" style="fill:none;stroke:#ff0000;stroke-linecap:square;stroke-width:1.5;"/>
   </g>
   <g id="line2d_43">
    <path clip-path="url(#p591a82b738)" d="M 385.256896 245.251055 
L 384.091249 238.265713 
L 380.720622 232.037341 
L 375.510277 227.24088 
L 369.024834 224.396102 
L 361.967093 223.81128 
L 355.101868 225.549791 
L 349.173113 229.42324 
L 344.823302 235.011878 
L 342.523803 241.71009 
L 342.523803 248.79202 
L 344.823302 255.490231 
L 349.173113 261.078869 
L 355.101868 264.952318 
L 361.967093 266.690829 
L 369.024834 266.106008 
L 375.510277 263.261229 
L 380.720622 258.464768 
L 384.091249 252.236397 
L 385.256896 245.251055 
" style="fill:none;stroke:#000000;stroke-dasharray:5.55,2.4;stroke-dashoffset:0;stroke-width:1.5;"/>
   </g>
   <g id="line2d_44">
    <path clip-path="url(#p591a82b738)" d="M 369.659787 245.251055 
L 369.339234 243.330086 
L 368.412312 241.617284 
L 366.979467 240.298257 
L 365.195971 239.515943 
L 363.255092 239.355117 
L 361.367155 239.833207 
L 359.736747 240.898406 
L 358.540549 242.435281 
L 357.908187 244.277289 
L 357.908187 246.22482 
L 358.540549 248.066828 
L 359.736747 249.603704 
L 361.367155 250.668902 
L 363.255092 251.146993 
L 365.195971 250.986167 
L 366.979467 250.203853 
L 368.412312 248.884826 
L 369.339234 247.172024 
L 369.659787 245.251055 
" style="fill:none;stroke:#ff0000;stroke-linecap:square;stroke-width:1.5;"/>
   </g>
   <g id="line2d_45">
    <path clip-path="url(#p591a82b738)" d="M 392.047059 450.057505 
L 390.881412 443.072163 
L 387.510786 436.843792 
L 382.30044 432.047331 
L 375.814998 429.202552 
L 368.757256 428.617731 
L 361.892031 430.356242 
L 355.963276 434.229691 
L 351.613465 439.818329 
L 349.313966 446.51654 
L 349.313966 453.59847 
L 351.613465 460.296682 
L 355.963276 465.88532 
L 361.892031 469.758768 
L 368.757256 471.49728 
L 375.814998 470.912458 
L 382.30044 468.067679 
L 387.510786 463.271219 
L 390.881412 457.042847 
L 392.047059 450.057505 
" style="fill:none;stroke:#000000;stroke-dasharray:5.55,2.4;stroke-dashoffset:0;stroke-width:1.5;"/>
   </g>
   <g id="line2d_46">
    <path clip-path="url(#p591a82b738)" d="M 376.449951 450.057505 
L 376.129398 448.136536 
L 375.202476 446.423734 
L 373.769631 445.104707 
L 371.986134 444.322393 
L 370.045255 444.161567 
L 368.157318 444.639658 
L 366.52691 445.704856 
L 365.330712 447.241732 
L 364.69835 449.08374 
L 364.69835 451.031271 
L 365.330712 452.873279 
L 366.52691 454.410154 
L 368.157318 455.475353 
L 370.045255 455.953443 
L 371.986134 455.792617 
L 373.769631 455.010303 
L 375.202476 453.691276 
L 376.129398 451.978474 
L 376.449951 450.057505 
" style="fill:none;stroke:#ff0000;stroke-linecap:square;stroke-width:1.5;"/>
   </g>
   <g id="line2d_47">
    <path clip-path="url(#p591a82b738)" d="M 237.432778 408.601505 
L 236.267131 401.616163 
L 232.896505 395.387791 
L 227.686159 390.59133 
L 221.200717 387.746552 
L 214.142975 387.16173 
L 207.27775 388.900241 
L 201.348995 392.77369 
L 196.999184 398.362328 
L 194.699685 405.06054 
L 194.699685 412.14247 
L 196.999184 418.840681 
L 201.348995 424.429319 
L 207.27775 428.302768 
L 214.142975 430.041279 
L 221.200717 429.456458 
L 227.686159 426.611679 
L 232.896505 421.815218 
L 236.267131 415.586847 
L 237.432778 408.601505 
" style="fill:none;stroke:#000000;stroke-dasharray:5.55,2.4;stroke-dashoffset:0;stroke-width:1.5;"/>
   </g>
   <g id="line2d_48">
    <path clip-path="url(#p591a82b738)" d="M 221.83567 408.601505 
L 221.515117 406.680536 
L 220.588195 404.967733 
L 219.15535 403.648707 
L 217.371853 402.866393 
L 215.430974 402.705567 
L 213.543037 403.183657 
L 211.912629 404.248856 
L 210.716431 405.785731 
L 210.084069 407.627739 
L 210.084069 409.57527 
L 210.716431 411.417278 
L 211.912629 412.954154 
L 213.543037 414.019352 
L 215.430974 414.497443 
L 217.371853 414.336617 
L 219.15535 413.554303 
L 220.588195 412.235276 
L 221.515117 410.522474 
L 221.83567 408.601505 
" style="fill:none;stroke:#ff0000;stroke-linecap:square;stroke-width:1.5;"/>
   </g>
   <g id="line2d_49">
    <path clip-path="url(#p591a82b738)" d="M 405.792938 346.361535 
L 404.627291 339.376193 
L 401.256665 333.147821 
L 396.046319 328.351361 
L 389.560877 325.506582 
L 382.503135 324.921761 
L 375.63791 326.660272 
L 369.709155 330.53372 
L 365.359344 336.122358 
L 363.059845 342.82057 
L 363.059845 349.9025 
L 365.359344 356.600712 
L 369.709155 362.18935 
L 375.63791 366.062798 
L 382.503135 367.801309 
L 389.560877 367.216488 
L 396.046319 364.371709 
L 401.256665 359.575248 
L 404.627291 353.346877 
L 405.792938 346.361535 
" style="fill:none;stroke:#000000;stroke-dasharray:5.55,2.4;stroke-dashoffset:0;stroke-width:1.5;"/>
   </g>
   <g id="line2d_50">
    <path clip-path="url(#p591a82b738)" d="M 390.19583 346.361535 
L 389.875277 344.440566 
L 388.948355 342.727764 
L 387.51551 341.408737 
L 385.732013 340.626423 
L 383.791134 340.465597 
L 381.903197 340.943687 
L 380.27279 342.008886 
L 379.076591 343.545761 
L 378.444229 345.387769 
L 378.444229 347.3353 
L 379.076591 349.177308 
L 380.27279 350.714184 
L 381.903197 351.779382 
L 383.791134 352.257473 
L 385.732013 352.096647 
L 387.51551 351.314333 
L 388.948355 349.995306 
L 389.875277 348.282504 
L 390.19583 346.361535 
" style="fill:none;stroke:#ff0000;stroke-linecap:square;stroke-width:1.5;"/>
   </g>
   <g id="line2d_51">
    <path clip-path="url(#p591a82b738)" d="M 451.036499 166.021597 
L 449.870851 159.036255 
L 446.500225 152.807883 
L 441.28988 148.011423 
L 434.804437 145.166644 
L 427.746695 144.581823 
L 420.881471 146.320334 
L 414.952716 150.193782 
L 410.602905 155.78242 
L 408.303406 162.480632 
L 408.303406 169.562562 
L 410.602905 176.260774 
L 414.952716 181.849412 
L 420.881471 185.72286 
L 427.746695 187.461371 
L 434.804437 186.87655 
L 441.28988 184.031771 
L 446.500225 179.23531 
L 449.870851 173.006939 
L 451.036499 166.021597 
" style="fill:none;stroke:#000000;stroke-dasharray:5.55,2.4;stroke-dashoffset:0;stroke-width:1.5;"/>
   </g>
   <g id="line2d_52">
    <path clip-path="url(#p591a82b738)" d="M 435.43939 166.021597 
L 435.118837 164.100628 
L 434.191915 162.387826 
L 432.75907 161.068799 
L 430.975573 160.286485 
L 429.034694 160.125659 
L 427.146758 160.60375 
L 425.51635 161.668948 
L 424.320152 163.205823 
L 423.68779 165.047832 
L 423.68779 166.995362 
L 424.320152 168.837371 
L 425.51635 170.374246 
L 427.146758 171.439444 
L 429.034694 171.917535 
L 430.975573 171.756709 
L 432.75907 170.974395 
L 434.191915 169.655368 
L 435.118837 167.942566 
L 435.43939 166.021597 
" style="fill:none;stroke:#ff0000;stroke-linecap:square;stroke-width:1.5;"/>
   </g>
   <g id="line2d_53">
    <path clip-path="url(#p591a82b738)" d="M 263.121826 445.480549 
L 261.956178 438.495207 
L 258.585552 432.266835 
L 253.375207 427.470374 
L 246.889764 424.625595 
L 239.832022 424.040774 
L 232.966797 425.779285 
L 227.038043 429.652734 
L 222.688231 435.241372 
L 220.388732 441.939584 
L 220.388732 449.021514 
L 222.688231 455.719725 
L 227.038043 461.308363 
L 232.966797 465.181812 
L 239.832022 466.920323 
L 246.889764 466.335502 
L 253.375207 463.490723 
L 258.585552 458.694262 
L 261.956178 452.46589 
L 263.121826 445.480549 
" style="fill:none;stroke:#000000;stroke-dasharray:5.55,2.4;stroke-dashoffset:0;stroke-width:1.5;"/>
   </g>
   <g id="line2d_54">
    <path clip-path="url(#p591a82b738)" d="M 247.524717 445.480549 
L 247.204164 443.55958 
L 246.277242 441.846777 
L 244.844397 440.527751 
L 243.0609 439.745437 
L 241.120021 439.584611 
L 239.232085 440.062701 
L 237.601677 441.1279 
L 236.405479 442.664775 
L 235.773117 444.506783 
L 235.773117 446.454314 
L 236.405479 448.296322 
L 237.601677 449.833198 
L 239.232085 450.898396 
L 241.120021 451.376487 
L 243.0609 451.215661 
L 244.844397 450.433347 
L 246.277242 449.11432 
L 247.204164 447.401518 
L 247.524717 445.480549 
" style="fill:none;stroke:#ff0000;stroke-linecap:square;stroke-width:1.5;"/>
   </g>
   <g id="line2d_55">
    <path clip-path="url(#p591a82b738)" d="M 414.923482 236.534732 
L 413.757835 229.54939 
L 410.387209 223.321019 
L 405.176863 218.524558 
L 398.691421 215.679779 
L 391.633679 215.094958 
L 384.768454 216.833469 
L 378.8397 220.706918 
L 374.489888 226.295556 
L 372.190389 232.993767 
L 372.190389 240.075697 
L 374.489888 246.773909 
L 378.8397 252.362547 
L 384.768454 256.235996 
L 391.633679 257.974507 
L 398.691421 257.389685 
L 405.176863 254.544907 
L 410.387209 249.748446 
L 413.757835 243.520074 
L 414.923482 236.534732 
" style="fill:none;stroke:#000000;stroke-dasharray:5.55,2.4;stroke-dashoffset:0;stroke-width:1.5;"/>
   </g>
   <g id="line2d_56">
    <path clip-path="url(#p591a82b738)" d="M 399.326374 236.534732 
L 399.005821 234.613763 
L 398.078899 232.900961 
L 396.646054 231.581934 
L 394.862557 230.79962 
L 392.921678 230.638794 
L 391.033741 231.116885 
L 389.403334 232.182083 
L 388.207136 233.718959 
L 387.574773 235.560967 
L 387.574773 237.508498 
L 388.207136 239.350506 
L 389.403334 240.887381 
L 391.033741 241.95258 
L 392.921678 242.43067 
L 394.862557 242.269844 
L 396.646054 241.48753 
L 398.078899 240.168504 
L 399.005821 238.455701 
L 399.326374 236.534732 
" style="fill:none;stroke:#ff0000;stroke-linecap:square;stroke-width:1.5;"/>
   </g>
   <g id="line2d_57">
    <path clip-path="url(#p591a82b738)" d="M 307.438519 275.908408 
L 306.272871 268.923066 
L 302.902245 262.694694 
L 297.6919 257.898234 
L 291.206457 255.053455 
L 284.148715 254.468634 
L 277.28349 256.207145 
L 271.354736 260.080593 
L 267.004924 265.669231 
L 264.705425 272.367443 
L 264.705425 279.449373 
L 267.004924 286.147585 
L 271.354736 291.736223 
L 277.28349 295.609671 
L 284.148715 297.348182 
L 291.206457 296.763361 
L 297.6919 293.918582 
L 302.902245 289.122121 
L 306.272871 282.89375 
L 307.438519 275.908408 
" style="fill:none;stroke:#000000;stroke-dasharray:5.55,2.4;stroke-dashoffset:0;stroke-width:1.5;"/>
   </g>
   <g id="line2d_58">
    <path clip-path="url(#p591a82b738)" d="M 291.84141 275.908408 
L 291.520857 273.987439 
L 290.593935 272.274637 
L 289.16109 270.95561 
L 287.377593 270.173296 
L 285.436714 270.01247 
L 283.548777 270.49056 
L 281.91837 271.555759 
L 280.722172 273.092634 
L 280.08981 274.934642 
L 280.08981 276.882173 
L 280.722172 278.724181 
L 281.91837 280.261057 
L 283.548777 281.326255 
L 285.436714 281.804346 
L 287.377593 281.64352 
L 289.16109 280.861206 
L 290.593935 279.542179 
L 291.520857 277.829377 
L 291.84141 275.908408 
" style="fill:none;stroke:#ff0000;stroke-linecap:square;stroke-width:1.5;"/>
   </g>
   <g id="line2d_59">
    <path clip-path="url(#p591a82b738)" d="M 310.480797 371.658574 
L 309.31515 364.673232 
L 305.944523 358.44486 
L 300.734178 353.648399 
L 294.248735 350.803621 
L 287.190994 350.218799 
L 280.325769 351.95731 
L 274.397014 355.830759 
L 270.047203 361.419397 
L 267.747704 368.117609 
L 267.747704 375.199539 
L 270.047203 381.89775 
L 274.397014 387.486388 
L 280.325769 391.359837 
L 287.190994 393.098348 
L 294.248735 392.513527 
L 300.734178 389.668748 
L 305.944523 384.872287 
L 309.31515 378.643916 
L 310.480797 371.658574 
" style="fill:none;stroke:#000000;stroke-dasharray:5.55,2.4;stroke-dashoffset:0;stroke-width:1.5;"/>
   </g>
   <g id="line2d_60">
    <path clip-path="url(#p591a82b738)" d="M 294.883689 371.658574 
L 294.563136 369.737605 
L 293.636213 368.024803 
L 292.203368 366.705776 
L 290.419872 365.923462 
L 288.478993 365.762636 
L 286.591056 366.240726 
L 284.960648 367.305925 
L 283.76445 368.8428 
L 283.132088 370.684808 
L 283.132088 372.632339 
L 283.76445 374.474347 
L 284.960648 376.011223 
L 286.591056 377.076421 
L 288.478993 377.554512 
L 290.419872 377.393686 
L 292.203368 376.611372 
L 293.636213 375.292345 
L 294.563136 373.579543 
L 294.883689 371.658574 
" style="fill:none;stroke:#ff0000;stroke-linecap:square;stroke-width:1.5;"/>
   </g>
   <g id="line2d_61">
    <path clip-path="url(#p591a82b738)" d="M 442.51021 322.541467 
L 441.344563 315.556125 
L 437.973937 309.327754 
L 432.763591 304.531293 
L 426.278149 301.686514 
L 419.220407 301.101693 
L 412.355182 302.840204 
L 406.426427 306.713652 
L 402.076616 312.30229 
L 399.777117 319.000502 
L 399.777117 326.082432 
L 402.076616 332.780644 
L 406.426427 338.369282 
L 412.355182 342.24273 
L 419.220407 343.981241 
L 426.278149 343.39642 
L 432.763591 340.551641 
L 437.973937 335.755181 
L 441.344563 329.526809 
L 442.51021 322.541467 
" style="fill:none;stroke:#000000;stroke-dasharray:5.55,2.4;stroke-dashoffset:0;stroke-width:1.5;"/>
   </g>
   <g id="line2d_62">
    <path clip-path="url(#p591a82b738)" d="M 426.913102 322.541467 
L 426.592549 320.620498 
L 425.665626 318.907696 
L 424.232782 317.588669 
L 422.449285 316.806355 
L 420.508406 316.645529 
L 418.620469 317.12362 
L 416.990061 318.188818 
L 415.793863 319.725694 
L 415.161501 321.567702 
L 415.161501 323.515233 
L 415.793863 325.357241 
L 416.990061 326.894116 
L 418.620469 327.959315 
L 420.508406 328.437405 
L 422.449285 328.276579 
L 424.232782 327.494265 
L 425.665626 326.175238 
L 426.592549 324.462436 
L 426.913102 322.541467 
" style="fill:none;stroke:#ff0000;stroke-linecap:square;stroke-width:1.5;"/>
   </g>
   <g id="line2d_63">
    <path clip-path="url(#p591a82b738)" d="M 463.007584 349.949709 
L 461.841936 342.964367 
L 458.47131 336.735995 
L 453.260965 331.939534 
L 446.775522 329.094755 
L 439.71778 328.509934 
L 432.852555 330.248445 
L 426.923801 334.121894 
L 422.573989 339.710532 
L 420.27449 346.408744 
L 420.27449 353.490674 
L 422.573989 360.188885 
L 426.923801 365.777523 
L 432.852555 369.650972 
L 439.71778 371.389483 
L 446.775522 370.804662 
L 453.260965 367.959883 
L 458.47131 363.163422 
L 461.841936 356.93505 
L 463.007584 349.949709 
" style="fill:none;stroke:#000000;stroke-dasharray:5.55,2.4;stroke-dashoffset:0;stroke-width:1.5;"/>
   </g>
   <g id="line2d_64">
    <path clip-path="url(#p591a82b738)" d="M 447.410475 349.949709 
L 447.089922 348.02874 
L 446.163 346.315937 
L 444.730155 344.996911 
L 442.946658 344.214596 
L 441.005779 344.053771 
L 439.117842 344.531861 
L 437.487435 345.59706 
L 436.291237 347.133935 
L 435.658875 348.975943 
L 435.658875 350.923474 
L 436.291237 352.765482 
L 437.487435 354.302358 
L 439.117842 355.367556 
L 441.005779 355.845647 
L 442.946658 355.684821 
L 444.730155 354.902507 
L 446.163 353.58348 
L 447.089922 351.870678 
L 447.410475 349.949709 
" style="fill:none;stroke:#ff0000;stroke-linecap:square;stroke-width:1.5;"/>
   </g>
   <g id="line2d_65">
    <path clip-path="url(#p591a82b738)" d="M 305.87635 448.920958 
L 304.710703 441.935617 
L 301.340076 435.707245 
L 296.129731 430.910784 
L 289.644288 428.066005 
L 282.586547 427.481184 
L 275.721322 429.219695 
L 269.792567 433.093144 
L 265.442756 438.681782 
L 263.143257 445.379993 
L 263.143257 452.461923 
L 265.442756 459.160135 
L 269.792567 464.748773 
L 275.721322 468.622222 
L 282.586547 470.360733 
L 289.644288 469.775912 
L 296.129731 466.931133 
L 301.340076 462.134672 
L 304.710703 455.9063 
L 305.87635 448.920958 
" style="fill:none;stroke:#000000;stroke-dasharray:5.55,2.4;stroke-dashoffset:0;stroke-width:1.5;"/>
   </g>
   <g id="line2d_66">
    <path clip-path="url(#p591a82b738)" d="M 290.279241 448.920958 
L 289.958688 446.999989 
L 289.031766 445.287187 
L 287.598921 443.96816 
L 285.815425 443.185846 
L 283.874546 443.02502 
L 281.986609 443.503111 
L 280.356201 444.568309 
L 279.160003 446.105185 
L 278.527641 447.947193 
L 278.527641 449.894724 
L 279.160003 451.736732 
L 280.356201 453.273607 
L 281.986609 454.338806 
L 283.874546 454.816896 
L 285.815425 454.656071 
L 287.598921 453.873756 
L 289.031766 452.55473 
L 289.958688 450.841927 
L 290.279241 448.920958 
" style="fill:none;stroke:#ff0000;stroke-linecap:square;stroke-width:1.5;"/>
   </g>
   <g id="line2d_67">
    <path clip-path="url(#p591a82b738)" d="M 236.691796 240.343288 
L 235.526149 233.357946 
L 232.155523 227.129575 
L 226.945177 222.333114 
L 220.459735 219.488335 
L 213.401993 218.903514 
L 206.536768 220.642025 
L 200.608013 224.515473 
L 196.258202 230.104111 
L 193.958703 236.802323 
L 193.958703 243.884253 
L 196.258202 250.582465 
L 200.608013 256.171103 
L 206.536768 260.044551 
L 213.401993 261.783062 
L 220.459735 261.198241 
L 226.945177 258.353462 
L 232.155523 253.557002 
L 235.526149 247.32863 
L 236.691796 240.343288 
" style="fill:none;stroke:#000000;stroke-dasharray:5.55,2.4;stroke-dashoffset:0;stroke-width:1.5;"/>
   </g>
   <g id="line2d_68">
    <path clip-path="url(#p591a82b738)" d="M 221.094688 240.343288 
L 220.774135 238.422319 
L 219.847212 236.709517 
L 218.414368 235.39049 
L 216.630871 234.608176 
L 214.689992 234.44735 
L 212.802055 234.925441 
L 211.171647 235.990639 
L 209.975449 237.527515 
L 209.343087 239.369523 
L 209.343087 241.317053 
L 209.975449 243.159062 
L 211.171647 244.695937 
L 212.802055 245.761135 
L 214.689992 246.239226 
L 216.630871 246.0784 
L 218.414368 245.296086 
L 219.847212 243.977059 
L 220.774135 242.264257 
L 221.094688 240.343288 
" style="fill:none;stroke:#ff0000;stroke-linecap:square;stroke-width:1.5;"/>
   </g>
   <g id="line2d_69">
    <path clip-path="url(#p591a82b738)" d="M 190.922548 261.732423 
L 189.756901 254.747082 
L 186.386274 248.51871 
L 181.175929 243.722249 
L 174.690486 240.87747 
L 167.632745 240.292649 
L 160.76752 242.03116 
L 154.838765 245.904609 
L 150.488954 251.493247 
L 148.189455 258.191458 
L 148.189455 265.273388 
L 150.488954 271.9716 
L 154.838765 277.560238 
L 160.76752 281.433687 
L 167.632745 283.172198 
L 174.690486 282.587377 
L 181.175929 279.742598 
L 186.386274 274.946137 
L 189.756901 268.717765 
L 190.922548 261.732423 
" style="fill:none;stroke:#000000;stroke-dasharray:5.55,2.4;stroke-dashoffset:0;stroke-width:1.5;"/>
   </g>
   <g id="line2d_70">
    <path clip-path="url(#p591a82b738)" d="M 175.32544 261.732423 
L 175.004887 259.811454 
L 174.077964 258.098652 
L 172.645119 256.779625 
L 170.861623 255.997311 
L 168.920744 255.836485 
L 167.032807 256.314576 
L 165.402399 257.379774 
L 164.206201 258.91665 
L 163.573839 260.758658 
L 163.573839 262.706189 
L 164.206201 264.548197 
L 165.402399 266.085072 
L 167.032807 267.150271 
L 168.920744 267.628361 
L 170.861623 267.467536 
L 172.645119 266.685221 
L 174.077964 265.366195 
L 175.004887 263.653392 
L 175.32544 261.732423 
" style="fill:none;stroke:#ff0000;stroke-linecap:square;stroke-width:1.5;"/>
   </g>
   <g id="line2d_71">
    <path clip-path="url(#p591a82b738)" d="M 403.431954 390.623681 
L 402.266307 383.638339 
L 398.895681 377.409968 
L 393.685335 372.613507 
L 387.199893 369.768728 
L 380.142151 369.183907 
L 373.276926 370.922418 
L 367.348171 374.795867 
L 362.99836 380.384505 
L 360.698861 387.082716 
L 360.698861 394.164646 
L 362.99836 400.862858 
L 367.348171 406.451496 
L 373.276926 410.324945 
L 380.142151 412.063456 
L 387.199893 411.478634 
L 393.685335 408.633856 
L 398.895681 403.837395 
L 402.266307 397.609023 
L 403.431954 390.623681 
" style="fill:none;stroke:#000000;stroke-dasharray:5.55,2.4;stroke-dashoffset:0;stroke-width:1.5;"/>
   </g>
   <g id="line2d_72">
    <path clip-path="url(#p591a82b738)" d="M 387.834846 390.623681 
L 387.514293 388.702712 
L 386.587371 386.98991 
L 385.154526 385.670883 
L 383.371029 384.888569 
L 381.43015 384.727743 
L 379.542213 385.205834 
L 377.911806 386.271032 
L 376.715607 387.807908 
L 376.083245 389.649916 
L 376.083245 391.597447 
L 376.715607 393.439455 
L 377.911806 394.97633 
L 379.542213 396.041529 
L 381.43015 396.519619 
L 383.371029 396.358793 
L 385.154526 395.576479 
L 386.587371 394.257452 
L 387.514293 392.54465 
L 387.834846 390.623681 
" style="fill:none;stroke:#ff0000;stroke-linecap:square;stroke-width:1.5;"/>
   </g>
   <g id="line2d_73">
    <path clip-path="url(#p591a82b738)" d="M 240.601418 201.995048 
L 239.43577 195.009706 
L 236.065144 188.781335 
L 230.854799 183.984874 
L 224.369356 181.140095 
L 217.311614 180.555274 
L 210.446389 182.293785 
L 204.517635 186.167234 
L 200.167823 191.755872 
L 197.868324 198.454083 
L 197.868324 205.536013 
L 200.167823 212.234225 
L 204.517635 217.822863 
L 210.446389 221.696312 
L 217.311614 223.434823 
L 224.369356 222.850001 
L 230.854799 220.005223 
L 236.065144 215.208762 
L 239.43577 208.98039 
L 240.601418 201.995048 
" style="fill:none;stroke:#000000;stroke-dasharray:5.55,2.4;stroke-dashoffset:0;stroke-width:1.5;"/>
   </g>
   <g id="line2d_74">
    <path clip-path="url(#p591a82b738)" d="M 225.004309 201.995048 
L 224.683756 200.074079 
L 223.756834 198.361277 
L 222.323989 197.04225 
L 220.540492 196.259936 
L 218.599613 196.09911 
L 216.711676 196.577201 
L 215.081269 197.642399 
L 213.885071 199.179275 
L 213.252709 201.021283 
L 213.252709 202.968814 
L 213.885071 204.810822 
L 215.081269 206.347697 
L 216.711676 207.412896 
L 218.599613 207.890986 
L 220.540492 207.73016 
L 222.323989 206.947846 
L 223.756834 205.62882 
L 224.683756 203.916017 
L 225.004309 201.995048 
" style="fill:none;stroke:#ff0000;stroke-linecap:square;stroke-width:1.5;"/>
   </g>
   <g id="line2d_75">
    <path clip-path="url(#p591a82b738)" d="M 323.036177 177.221021 
L 321.87053 170.235679 
L 318.499904 164.007308 
L 313.289558 159.210847 
L 306.804116 156.366068 
L 299.746374 155.781247 
L 292.881149 157.519758 
L 286.952394 161.393207 
L 282.602583 166.981844 
L 280.303084 173.680056 
L 280.303084 180.761986 
L 282.602583 187.460198 
L 286.952394 193.048836 
L 292.881149 196.922284 
L 299.746374 198.660796 
L 306.804116 198.075974 
L 313.289558 195.231195 
L 318.499904 190.434735 
L 321.87053 184.206363 
L 323.036177 177.221021 
" style="fill:none;stroke:#000000;stroke-dasharray:5.55,2.4;stroke-dashoffset:0;stroke-width:1.5;"/>
   </g>
   <g id="line2d_76">
    <path clip-path="url(#p591a82b738)" d="M 307.439069 177.221021 
L 307.118516 175.300052 
L 306.191594 173.58725 
L 304.758749 172.268223 
L 302.975252 171.485909 
L 301.034373 171.325083 
L 299.146436 171.803174 
L 297.516029 172.868372 
L 296.31983 174.405248 
L 295.687468 176.247256 
L 295.687468 178.194787 
L 296.31983 180.036795 
L 297.516029 181.57367 
L 299.146436 182.638869 
L 301.034373 183.116959 
L 302.975252 182.956133 
L 304.758749 182.173819 
L 306.191594 180.854792 
L 307.118516 179.14199 
L 307.439069 177.221021 
" style="fill:none;stroke:#ff0000;stroke-linecap:square;stroke-width:1.5;"/>
   </g>
   <g id="line2d_77">
    <path clip-path="url(#p591a82b738)" d="M 191.239517 443.791912 
L 190.07387 436.80657 
L 186.703244 430.578198 
L 181.492898 425.781738 
L 175.007456 422.936959 
L 167.949714 422.352137 
L 161.084489 424.090649 
L 155.155734 427.964097 
L 150.805923 433.552735 
L 148.506424 440.250947 
L 148.506424 447.332877 
L 150.805923 454.031088 
L 155.155734 459.619726 
L 161.084489 463.493175 
L 167.949714 465.231686 
L 175.007456 464.646865 
L 181.492898 461.802086 
L 186.703244 457.005625 
L 190.07387 450.777254 
L 191.239517 443.791912 
" style="fill:none;stroke:#000000;stroke-dasharray:5.55,2.4;stroke-dashoffset:0;stroke-width:1.5;"/>
   </g>
   <g id="line2d_78">
    <path clip-path="url(#p591a82b738)" d="M 175.642409 443.791912 
L 175.321856 441.870943 
L 174.394933 440.158141 
L 172.962088 438.839114 
L 171.178592 438.0568 
L 169.237713 437.895974 
L 167.349776 438.374064 
L 165.719368 439.439263 
L 164.52317 440.976138 
L 163.890808 442.818146 
L 163.890808 444.765677 
L 164.52317 446.607685 
L 165.719368 448.144561 
L 167.349776 449.209759 
L 169.237713 449.68785 
L 171.178592 449.527024 
L 172.962088 448.74471 
L 174.394933 447.425683 
L 175.321856 445.712881 
L 175.642409 443.791912 
" style="fill:none;stroke:#ff0000;stroke-linecap:square;stroke-width:1.5;"/>
   </g>
   <g id="line2d_79">
    <path clip-path="url(#p591a82b738)" d="M 385.214058 233.308622 
L 384.04841 226.323281 
L 380.677784 220.094909 
L 375.467439 215.298448 
L 368.981996 212.453669 
L 361.924254 211.868848 
L 355.059029 213.607359 
L 349.130275 217.480808 
L 344.780463 223.069446 
L 342.480964 229.767657 
L 342.480964 236.849587 
L 344.780463 243.547799 
L 349.130275 249.136437 
L 355.059029 253.009886 
L 361.924254 254.748397 
L 368.981996 254.163576 
L 375.467439 251.318797 
L 380.677784 246.522336 
L 384.04841 240.293964 
L 385.214058 233.308622 
" style="fill:none;stroke:#000000;stroke-dasharray:5.55,2.4;stroke-dashoffset:0;stroke-width:1.5;"/>
   </g>
   <g id="line2d_80">
    <path clip-path="url(#p591a82b738)" d="M 369.616949 233.308622 
L 369.296396 231.387653 
L 368.369474 229.674851 
L 366.936629 228.355824 
L 365.153132 227.57351 
L 363.212253 227.412684 
L 361.324316 227.890775 
L 359.693909 228.955973 
L 358.497711 230.492849 
L 357.865349 232.334857 
L 357.865349 234.282388 
L 358.497711 236.124396 
L 359.693909 237.661271 
L 361.324316 238.72647 
L 363.212253 239.20456 
L 365.153132 239.043734 
L 366.936629 238.26142 
L 368.369474 236.942394 
L 369.296396 235.229591 
L 369.616949 233.308622 
" style="fill:none;stroke:#ff0000;stroke-linecap:square;stroke-width:1.5;"/>
   </g>
   <g id="line2d_81">
    <path clip-path="url(#p591a82b738)" d="M 400.047351 228.950461 
L 398.881704 221.965119 
L 395.511077 215.736748 
L 390.300732 210.940287 
L 383.815289 208.095508 
L 376.757548 207.510687 
L 369.892323 209.249198 
L 363.963568 213.122647 
L 359.613757 218.711284 
L 357.314258 225.409496 
L 357.314258 232.491426 
L 359.613757 239.189638 
L 363.963568 244.778276 
L 369.892323 248.651724 
L 376.757548 250.390236 
L 383.815289 249.805414 
L 390.300732 246.960635 
L 395.511077 242.164175 
L 398.881704 235.935803 
L 400.047351 228.950461 
" style="fill:none;stroke:#000000;stroke-dasharray:5.55,2.4;stroke-dashoffset:0;stroke-width:1.5;"/>
   </g>
   <g id="line2d_82">
    <path clip-path="url(#p591a82b738)" d="M 384.450243 228.950461 
L 384.129689 227.029492 
L 383.202767 225.31669 
L 381.769922 223.997663 
L 379.986426 223.215349 
L 378.045547 223.054523 
L 376.15761 223.532614 
L 374.527202 224.597812 
L 373.331004 226.134688 
L 372.698642 227.976696 
L 372.698642 229.924227 
L 373.331004 231.766235 
L 374.527202 233.30311 
L 376.15761 234.368309 
L 378.045547 234.846399 
L 379.986426 234.685573 
L 381.769922 233.903259 
L 383.202767 232.584232 
L 384.129689 230.87143 
L 384.450243 228.950461 
" style="fill:none;stroke:#ff0000;stroke-linecap:square;stroke-width:1.5;"/>
   </g>
   <g id="line2d_83">
    <path clip-path="url(#p591a82b738)" d="M 400.090189 240.892894 
L 398.924542 233.907552 
L 395.553916 227.67918 
L 390.34357 222.882719 
L 383.858128 220.03794 
L 376.800386 219.453119 
L 369.935161 221.19163 
L 364.006406 225.065079 
L 359.656595 230.653717 
L 357.357096 237.351928 
L 357.357096 244.433859 
L 359.656595 251.13207 
L 364.006406 256.720708 
L 369.935161 260.594157 
L 376.800386 262.332668 
L 383.858128 261.747847 
L 390.34357 258.903068 
L 395.553916 254.106607 
L 398.924542 247.878235 
L 400.090189 240.892894 
" style="fill:none;stroke:#000000;stroke-dasharray:5.55,2.4;stroke-dashoffset:0;stroke-width:1.5;"/>
   </g>
   <g id="line2d_84">
    <path clip-path="url(#p591a82b738)" d="M 384.493081 240.892894 
L 384.172528 238.971925 
L 383.245605 237.259122 
L 381.812761 235.940096 
L 380.029264 235.157781 
L 378.088385 234.996956 
L 376.200448 235.475046 
L 374.57004 236.540244 
L 373.373842 238.07712 
L 372.74148 239.919128 
L 372.74148 241.866659 
L 373.373842 243.708667 
L 374.57004 245.245543 
L 376.200448 246.310741 
L 378.088385 246.788831 
L 380.029264 246.628006 
L 381.812761 245.845691 
L 383.245605 244.526665 
L 384.172528 242.813863 
L 384.493081 240.892894 
" style="fill:none;stroke:#ff0000;stroke-linecap:square;stroke-width:1.5;"/>
   </g>
   <g id="line2d_85">
    <path clip-path="url(#p591a82b738)" d="M 452.758897 336.245588 
L 451.593249 329.260246 
L 448.222623 323.031874 
L 443.012278 318.235414 
L 436.526835 315.390635 
L 429.469094 314.805813 
L 422.603869 316.544325 
L 416.675114 320.417773 
L 412.325303 326.006411 
L 410.025804 332.704623 
L 410.025804 339.786553 
L 412.325303 346.484765 
L 416.675114 352.073402 
L 422.603869 355.946851 
L 429.469094 357.685362 
L 436.526835 357.100541 
L 443.012278 354.255762 
L 448.222623 349.459301 
L 451.593249 343.23093 
L 452.758897 336.245588 
" style="fill:none;stroke:#000000;stroke-dasharray:5.55,2.4;stroke-dashoffset:0;stroke-width:1.5;"/>
   </g>
   <g id="line2d_86">
    <path clip-path="url(#p591a82b738)" d="M 437.161788 336.245588 
L 436.841235 334.324619 
L 435.914313 332.611817 
L 434.481468 331.29279 
L 432.697972 330.510476 
L 430.757093 330.34965 
L 428.869156 330.82774 
L 427.238748 331.892939 
L 426.04255 333.429814 
L 425.410188 335.271822 
L 425.410188 337.219353 
L 426.04255 339.061361 
L 427.238748 340.598237 
L 428.869156 341.663435 
L 430.757093 342.141526 
L 432.697972 341.9807 
L 434.481468 341.198386 
L 435.914313 339.879359 
L 436.841235 338.166557 
L 437.161788 336.245588 
" style="fill:none;stroke:#ff0000;stroke-linecap:square;stroke-width:1.5;"/>
   </g>
   <g id="line2d_87">
    <path clip-path="url(#p591a82b738)" d="M 98.891566 487.188434 
L 98.891566 94.571566 
" style="fill:none;stroke:#000000;stroke-linecap:square;stroke-width:4;"/>
   </g>
   <g id="line2d_88">
    <path clip-path="url(#p591a82b738)" d="M 98.891566 94.571566 
L 491.508434 94.571566 
" style="fill:none;stroke:#000000;stroke-linecap:square;stroke-width:4;"/>
   </g>
   <g id="line2d_89">
    <path clip-path="url(#p591a82b738)" d="M 491.508434 94.571566 
L 491.508434 487.188434 
" style="fill:none;stroke:#000000;stroke-linecap:square;stroke-width:4;"/>
   </g>
   <g id="line2d_90">
    <path clip-path="url(#p591a82b738)" d="M 491.508434 487.188434 
L 98.891566 487.188434 
" style="fill:none;stroke:#000000;stroke-linecap:square;stroke-width:4;"/>
   </g>
   <g id="line2d_91">
    <path clip-path="url(#p591a82b738)" d="M 312.249253 330.410602 
L 311.980337 330.518169 
L 312.625735 329.657639 
L 312.894651 328.850892 
L 312.948434 327.721446 
L 312.733301 326.484434 
L 312.087904 325.086072 
L 310.366843 322.934747 
L 308.376867 320.837205 
L 306.602024 318.255614 
L 305.84906 316.588337 
L 304.934747 313.791614 
L 304.343133 311.371373 
L 303.590169 309.004916 
L 302.568289 306.746024 
L 298.964819 300.184482 
L 297.189976 295.935614 
L 296.168096 292.816193 
L 296.006747 291.90188 
L 296.168096 291.74053 
L 296.759711 291.525398 
L 297.620241 291.417831 
L 298.695904 291.579181 
L 300.148048 292.063229 
L 301.653976 292.869976 
L 303.805301 294.913735 
L 304.934747 296.258313 
L 304.934747 296.473446 
L 304.773398 296.903711 
L 304.235566 297.764241 
L 303.536386 298.409639 
L 302.191807 299.216386 
L 300.363181 299.808 
L 298.80347 299.915566 
L 296.867277 299.592867 
L 295.415133 298.94747 
L 294.231904 298.140723 
L 293.102458 297.011277 
L 291.220048 294.913735 
L 290.628434 294.375904 
L 290.843566 294.429687 
L 291.058699 294.429687 
L 290.628434 294.644819 
L 290.036819 295.075084 
L 289.552771 295.666699 
L 289.01494 296.688578 
L 288.261976 298.893687 
L 287.777928 299.646651 
L 287.186313 299.861783 
L 286.110651 300.023133 
L 284.658506 299.915566 
L 283.206361 299.431518 
L 281.754217 298.678554 
L 280.463422 297.602892 
L 277.182651 293.569157 
L 276.48347 293.138892 
L 275.569157 292.816193 
L 274.009446 292.60106 
L 271.427855 292.869976 
L 269.061398 293.62294 
L 266.641157 294.698602 
L 264.328482 295.290217 
L 263.575518 295.182651 
L 262.714988 294.913735 
L 261.585542 294.214554 
L 260.34853 292.923759 
L 259.165301 290.987566 
L 258.412337 288.567325 
L 258.143422 286.469783 
L 258.089639 284.963855 
L 258.304771 282.81253 
L 258.735036 280.768771 
L 259.595566 278.886361 
L 260.886361 277.003952 
L 262.661205 274.852627 
L 263.736867 273.131566 
L 264.274699 271.948337 
L 264.489831 270.765108 
L 264.382265 269.259181 
L 263.575518 266.785157 
L 262.553639 265.010313 
L 261.155277 263.396819 
L 259.434217 261.191711 
L 258.62747 259.470651 
L 257.982072 256.942843 
L 257.928289 254.038554 
L 258.089639 251.72588 
L 258.035855 248.875373 
L 257.336675 246.24 
L 256.207229 244.142458 
L 254.862651 241.991133 
L 253.679422 239.839807 
L 252.818892 237.365783 
L 252.388627 234.515277 
L 252.28106 232.579084 
L 252.012145 230.158843 
L 251.474313 227.792386 
L 250.452434 225.157012 
L 249.215422 222.575422 
L 248.247325 220.208964 
L 247.386795 217.412241 
L 244.751422 202.137831 
L 244.536289 199.233542 
L 244.697639 196.329253 
L 245.396819 191.004723 
L 245.343036 188.584482 
L 244.751422 185.895325 
L 243.783325 183.582651 
L 242.65388 181.431325 
L 241.578217 179.118651 
L 240.77147 176.644627 
L 239.104193 169.652819 
L 238.082313 167.017446 
L 237.168 165.188819 
L 235.715855 162.661012 
L 234.747759 160.724819 
L 233.887229 158.68106 
L 230.606458 149.215229 
L 228.777831 144.966361 
L 226.626506 140.018313 
L 223.507084 131.628145 
L 221.732241 127.325494 
L 221.732241 127.325494 
" style="fill:none;stroke:#8000ff;stroke-linecap:square;stroke-width:1.5;"/>
   </g>
   <g id="line2d_92">
    <path clip-path="url(#p591a82b738)" d="M 251.151614 162.015614 
L 252.012145 162.015614 
L 253.625639 162.230747 
L 255.615614 162.822361 
L 258.197205 164.274506 
L 260.294747 166.425831 
L 261.800675 168.899855 
L 263.736867 173.363855 
L 265.027663 175.353831 
L 267.071422 177.182458 
L 271.481639 179.602699 
L 273.579181 181.108627 
L 275.085108 182.829687 
L 276.32212 185.088578 
L 277.236434 187.508819 
L 278.527229 191.865253 
L 279.387759 193.801446 
L 280.463422 195.576289 
L 285.519036 202.084048 
L 287.078747 204.558072 
L 289.929253 209.50612 
L 291.650313 211.765012 
L 293.156241 213.27094 
L 296.598361 216.336578 
L 298.373205 218.218988 
L 300.148048 220.47788 
L 303.10612 224.457831 
L 304.612048 226.232675 
L 306.171759 227.631036 
L 307.73147 228.814265 
L 312.733301 231.879904 
L 314.293012 233.170699 
L 315.63759 234.676627 
L 318.757012 238.764145 
L 319.886458 239.732241 
L 321.392386 240.646554 
L 322.683181 241.184386 
L 325.641253 242.044916 
L 327.147181 242.79788 
L 328.599325 243.981108 
L 330.427952 246.347566 
L 331.503614 248.714024 
L 332.364145 251.295614 
L 333.009542 252.58641 
L 333.708723 253.500723 
L 335.160867 254.630169 
L 337.473542 255.598265 
L 341.829976 256.512578 
L 343.604819 257.319325 
L 345.110747 258.502554 
L 346.562892 260.331181 
L 347.584771 262.321157 
L 348.122602 264.149783 
L 348.391518 266.301108 
L 348.552867 268.990265 
L 349.036916 270.872675 
L 349.62853 272.00212 
L 350.757976 273.292916 
L 352.263904 274.476145 
L 356.136289 276.573687 
L 357.911133 277.864482 
L 359.632193 279.854458 
L 361.030554 282.436048 
L 363.074313 287.007614 
L 364.203759 288.728675 
L 366.139952 290.772434 
L 368.291277 292.708627 
L 370.388819 294.752386 
L 372.163663 297.06506 
L 373.562024 299.646651 
L 374.745253 302.335807 
L 375.820916 304.487133 
L 377.165494 306.584675 
L 382.113542 312.662169 
L 383.511904 314.813494 
L 387.438072 321.643952 
L 388.782651 323.472578 
L 390.127229 324.87094 
L 391.364241 325.892819 
L 392.655036 326.538217 
L 393.945831 326.807133 
L 395.344193 326.860916 
L 399.162795 326.323084 
L 400.346024 326.323084 
L 401.421687 326.699566 
L 401.47547 326.753349 
L 401.636819 327.237398 
L 401.798169 328.528193 
L 401.636819 330.303036 
L 400.883855 332.508145 
L 399.59306 334.767036 
L 397.925783 337.294843 
L 397.925783 337.079711 
L 397.818217 336.864578 
L 399.162795 337.832675 
L 401.260337 338.746988 
L 403.626795 339.177253 
L 406.047036 339.069687 
L 412.12453 337.563759 
L 412.769928 337.509976 
L 413.038843 337.778892 
L 413.200193 338.26294 
L 413.200193 339.768867 
L 412.447229 341.70506 
L 410.995084 343.856386 
L 409.005108 345.631229 
L 404.272193 348.374169 
L 402.282217 349.880096 
L 402.443566 349.611181 
L 402.443566 350.095229 
L 402.712482 351.386024 
L 403.304096 352.891952 
L 404.541108 354.935711 
L 406.531084 356.81812 
L 408.305928 357.893783 
L 410.40347 358.754313 
L 412.98506 360.045108 
L 415.190169 361.981301 
L 416.480964 363.809928 
L 417.556627 366.606651 
L 417.986892 369.51094 
L 417.933108 372.09253 
L 418.148241 374.943036 
L 418.847422 377.201928 
L 420.245783 379.568386 
L 421.644145 381.074313 
L 426.914892 385.48453 
L 428.474602 387.528289 
L 429.657831 389.840964 
L 430.679711 392.53012 
L 430.679711 392.53012 
" style="fill:none;stroke:#376ff9;stroke-linecap:square;stroke-width:1.5;"/>
   </g>
   <g id="line2d_93">
    <path clip-path="url(#p591a82b738)" d="M 135.51788 214.830651 
L 137.884337 214.992 
L 140.412145 215.691181 
L 142.40212 216.71306 
L 146.382072 219.724916 
L 148.372048 220.961928 
L 150.308241 221.714892 
L 152.943614 222.467855 
L 155.740337 223.113253 
L 158.483277 223.973783 
L 161.172434 225.157012 
L 167.680193 228.706699 
L 169.670169 229.513446 
L 174.080386 230.858024 
L 176.177928 231.449639 
L 190.376675 236.397687 
L 192.958265 237.312 
L 196.185253 238.710361 
L 196.669301 239.19441 
L 196.615518 239.409542 
L 196.400386 239.89359 
L 195.539855 241.184386 
L 193.818795 242.690313 
L 191.398554 244.088675 
L 187.418602 245.271904 
L 186.880771 245.433253 
L 187.04212 245.325687 
L 187.149687 244.895422 
L 187.20347 245.110554 
L 187.579952 245.702169 
L 188.171566 246.347566 
L 189.516145 247.26188 
L 191.613687 248.068627 
L 193.603663 248.445108 
L 198.282795 248.337542 
L 202.101398 248.714024 
L 202.262747 249.036723 
L 202.31653 249.789687 
L 201.832482 251.349398 
L 200.43412 253.339373 
L 198.121446 255.221783 
L 194.894458 257.211759 
L 195.002024 256.996627 
L 195.002024 256.88906 
L 195.10959 257.265542 
L 195.539855 258.179855 
L 196.400386 259.147952 
L 197.798747 260.062265 
L 200.218988 260.707663 
L 204.89812 260.922795 
L 206.672964 261.35306 
L 208.232675 262.159807 
L 209.684819 263.504386 
L 211.136964 265.548145 
L 212.158843 268.022169 
L 212.911807 270.173494 
L 213.718554 271.840771 
L 214.579084 272.970217 
L 215.654747 273.776964 
L 217.42959 274.691277 
L 218.935518 275.121542 
L 225.604627 275.820723 
L 229.208096 276.735036 
L 232.327518 277.918265 
L 233.188048 278.563663 
L 234.209928 279.477976 
L 240.233639 284.049542 
L 241.900916 285.878169 
L 245.020337 289.911904 
L 246.418699 291.041349 
L 247.81706 291.74053 
L 249.591904 292.170795 
L 251.797012 292.117012 
L 254.055904 291.579181 
L 256.04588 290.664867 
L 258.089639 289.589205 
L 260.187181 288.782458 
L 262.93012 288.352193 
L 264.97388 288.513542 
L 267.286554 288.99759 
L 268.953831 289.535422 
L 270.405976 290.127036 
L 271.481639 290.718651 
L 272.395952 291.525398 
L 273.310265 292.923759 
L 274.063229 295.128867 
L 274.439711 298.302072 
L 274.708627 299.055036 
L 275.031325 299.592867 
L 275.730506 300.292048 
L 277.559133 301.367711 
L 280.140723 302.066892 
L 282.560964 302.120675 
L 285.034988 301.69041 
L 287.401446 301.098795 
L 290.036819 300.82988 
L 292.994892 301.206361 
L 295.737831 302.282024 
L 298.319422 303.734169 
L 300.201831 304.540916 
L 302.191807 304.971181 
L 304.934747 304.971181 
L 307.247422 304.379566 
L 311.818988 302.282024 
L 313.91653 301.582843 
L 316.121639 301.206361 
L 318.649446 301.152578 
L 323.00588 301.367711 
L 325.103422 301.152578 
L 327.46988 300.66853 
L 329.782554 299.969349 
L 332.579277 299.001253 
L 334.999518 298.355855 
L 337.527325 297.979373 
L 337.527325 297.979373 
" style="fill:none;stroke:#12c7e6;stroke-linecap:square;stroke-width:1.5;"/>
   </g>
   <g id="line2d_94">
    <path clip-path="url(#p591a82b738)" d="M 172.359325 392.261205 
L 175.263614 391.992289 
L 177.522506 391.185542 
L 179.512482 389.894747 
L 181.394892 387.904771 
L 182.57812 385.807229 
L 184.030265 381.504578 
L 185.374843 379.29947 
L 187.526169 377.201928 
L 191.66747 374.566554 
L 193.442313 372.899277 
L 194.733108 370.909301 
L 195.486072 369.134458 
L 196.239036 366.768 
L 197.368482 364.455325 
L 198.766843 362.734265 
L 200.703036 361.013205 
L 202.693012 359.453494 
L 204.306506 357.947566 
L 205.651084 356.011373 
L 206.672964 353.698699 
L 207.533494 351.332241 
L 208.716723 349.019566 
L 210.599133 346.706892 
L 215.116916 343.58747 
L 217.106892 341.651277 
L 218.182554 339.930217 
L 218.935518 338.10159 
L 219.688482 335.735133 
L 221.301976 331.324916 
L 221.355759 331.540048 
L 221.409542 331.647614 
L 221.086843 331.324916 
L 219.688482 330.464386 
L 217.214458 329.603855 
L 214.794217 329.388723 
L 212.858024 329.603855 
L 208.447807 330.303036 
L 208.286458 330.141687 
L 208.125108 329.872771 
L 207.963759 329.066024 
L 207.963759 327.775229 
L 208.555373 325.354988 
L 209.469687 323.311229 
L 211.029398 321.26747 
L 214.525301 317.825349 
L 215.86988 315.889157 
L 216.676627 314.006747 
L 217.053108 312.33947 
L 216.999325 309.59653 
L 215.923663 304.863614 
L 215.70853 301.905542 
L 216.085012 299.485301 
L 217.106892 297.172627 
L 218.881735 294.806169 
L 221.19441 292.923759 
L 223.291952 291.632964 
L 225.389494 290.180819 
L 227.37947 288.244627 
L 228.562699 286.523566 
L 229.853494 284.372241 
L 231.466988 282.005783 
L 233.241831 280.123373 
L 234.962892 278.778795 
L 239.104193 275.820723 
L 240.717687 274.476145 
L 242.49253 272.701301 
L 244.159807 270.872675 
L 248.892723 265.064096 
L 254.055904 257.74959 
L 258.681253 252.209928 
L 261.800675 248.337542 
L 265.081446 244.034892 
L 268.254651 240.162506 
L 274.708627 232.471518 
L 286.487133 217.896289 
L 290.951133 211.711229 
L 294.124337 207.78506 
L 297.727807 203.751325 
L 301.008578 200.524337 
L 302.40694 199.341108 
L 304.343133 198.104096 
L 305.633928 197.512482 
L 306.978506 197.189783 
L 308.484434 197.136 
L 310.31306 197.512482 
L 312.679518 198.480578 
L 316.067855 200.309205 
L 317.197301 200.631904 
L 318.165398 200.631904 
L 319.40241 200.416771 
L 320.908337 199.71759 
L 322.84453 198.15788 
L 324.296675 196.27547 
L 327.900145 189.767711 
L 329.674988 187.831518 
L 331.987663 185.949108 
L 333.65494 184.76588 
L 335.483566 183.152386 
L 336.989494 181.216193 
L 338.280289 178.742169 
L 339.194602 176.429494 
L 340.108916 174.439518 
L 341.399711 172.23441 
L 343.228337 169.921735 
L 346.401542 166.479614 
L 348.122602 164.220723 
L 349.252048 162.44588 
L 351.618506 158.035663 
L 354.469012 153.840578 
L 357.588434 149.860627 
L 358.610313 148.462265 
L 365.494554 137.974554 
L 371.034217 130.014651 
L 373.938506 125.496867 
L 373.938506 125.496867 
" style="fill:none;stroke:#5bf9c7;stroke-linecap:square;stroke-width:1.5;"/>
   </g>
   <g id="line2d_95">
    <path clip-path="url(#p591a82b738)" d="M 144.069398 173.95547 
L 147.565301 174.009253 
L 152.997398 174.439518 
L 157.945446 174.923566 
L 169.670169 175.784096 
L 182.524337 176.967325 
L 203.607325 178.742169 
L 205.758651 178.795952 
L 208.555373 178.742169 
L 211.352096 178.473253 
L 213.718554 177.989205 
L 215.762313 177.39759 
L 223.614651 174.009253 
L 226.142458 173.525205 
L 228.401349 173.578988 
L 231.305639 174.009253 
L 233.72588 174.547084 
L 236.522602 174.977349 
L 240.77147 175.084916 
L 243.675759 175.084916 
L 246.203566 175.300048 
L 250.882699 176.160578 
L 255.400482 177.021108 
L 265.027663 178.096771 
L 277.397783 180.086747 
L 280.893687 180.678361 
L 284.228241 181.538892 
L 284.38959 181.807807 
L 284.335807 182.453205 
L 283.851759 183.690217 
L 282.345831 185.572627 
L 280.570988 186.863422 
L 275.246458 189.498795 
L 275.300241 189.445012 
L 275.407807 189.014747 
L 275.46159 189.122313 
L 275.891855 189.713928 
L 276.644819 190.359325 
L 278.258313 191.219855 
L 280.409639 191.65012 
L 282.345831 191.65012 
L 284.927422 191.381205 
L 287.347663 191.488771 
L 289.176289 191.81147 
L 290.520867 192.187952 
L 291.166265 192.564434 
L 292.026795 193.371181 
L 292.887325 194.661976 
L 293.962988 197.458699 
L 294.231904 200.416771 
L 293.909205 203.105928 
L 293.532723 205.149687 
L 293.47894 206.332916 
L 293.962988 207.193446 
L 294.715952 207.892627 
L 295.952964 208.484241 
L 297.566458 208.753157 
L 299.771566 208.591807 
L 302.084241 207.892627 
L 304.450699 206.92453 
L 307.139855 205.956434 
L 309.721446 205.579952 
L 311.980337 205.687518 
L 314.454361 206.010217 
L 317.251084 206.225349 
L 319.994024 205.902651 
L 322.306699 205.257253 
L 324.673157 204.450506 
L 327.147181 203.858892 
L 329.352289 203.643759 
L 336.505446 203.536193 
L 338.925687 203.213494 
L 343.819952 202.191614 
L 351.080675 200.416771 
L 353.016867 199.663807 
L 354.845494 198.695711 
L 357.104386 197.082217 
L 360.654072 194.070361 
L 363.02053 192.564434 
L 365.440771 191.703904 
L 368.076145 191.381205 
L 369.904771 191.542554 
L 376.896578 193.102265 
L 379.639518 193.371181 
L 387.599422 193.424964 
L 390.127229 193.962795 
L 392.870169 194.984675 
L 396.957687 197.189783 
L 396.957687 197.189783 
" style="fill:none;stroke:#a4f99f;stroke-linecap:square;stroke-width:1.5;"/>
   </g>
   <g id="line2d_96">
    <path clip-path="url(#p591a82b738)" d="M 259.703133 199.125976 
L 260.133398 199.125976 
L 261.477976 199.287325 
L 263.790651 200.094072 
L 266.103325 201.6 
L 267.931952 203.536193 
L 269.222747 205.795084 
L 269.975711 208.161542 
L 270.513542 210.581783 
L 271.266506 212.840675 
L 272.772434 215.153349 
L 276.806169 219.187084 
L 278.258313 221.33841 
L 279.280193 223.704867 
L 280.463422 227.792386 
L 281.485301 229.997494 
L 282.66853 231.664771 
L 284.658506 233.977446 
L 286.164434 235.913639 
L 287.616578 238.495229 
L 288.638458 241.130602 
L 289.552771 244.034892 
L 290.467084 246.24 
L 291.919229 248.552675 
L 293.747855 250.704 
L 297.566458 254.522602 
L 299.502651 256.351229 
L 301.331277 257.642024 
L 303.751518 258.663904 
L 306.171759 259.094169 
L 308.269301 259.201735 
L 311.496289 259.632 
L 313.324916 260.223614 
L 315.045976 261.299277 
L 316.982169 263.020337 
L 318.219181 264.848964 
L 318.972145 266.67759 
L 319.24106 267.69947 
L 319.563759 269.58188 
L 319.832675 270.711325 
L 320.26294 272.647518 
L 320.854554 274.476145 
L 321.446169 275.928289 
L 322.091566 276.950169 
L 324.72694 279.639325 
L 325.856386 281.414169 
L 326.663133 283.350361 
L 327.200964 285.286554 
L 327.953928 287.491663 
L 328.599325 288.836241 
L 329.728771 290.449735 
L 331.503614 291.848096 
L 335.376 293.569157 
L 337.473542 294.913735 
L 338.97947 296.473446 
L 340.377831 298.678554 
L 341.130795 300.776096 
L 341.507277 303.034988 
L 341.668627 305.509012 
L 341.991325 307.929253 
L 342.798072 310.188145 
L 343.712386 312.070554 
L 344.895614 313.952964 
L 346.347759 316.480771 
L 347.262072 318.470747 
L 349.62853 325.193639 
L 350.596627 327.506313 
L 354.576578 335.143518 
L 356.566554 339.768867 
L 358.287614 344.501783 
L 358.986795 346.599325 
L 359.524627 348.696867 
L 359.954892 351.601157 
L 360.062458 354.505446 
L 360.008675 359.614843 
L 360.223807 361.712386 
L 361.030554 363.971277 
L 362.267566 366.068819 
L 365.333205 370.048771 
L 366.731566 372.200096 
L 367.64588 374.297639 
L 368.398843 376.986795 
L 368.291277 377.739759 
L 367.914795 378.008675 
L 367.000482 378.385157 
L 365.924819 378.654072 
L 364.257542 378.600289 
L 362.16 378.223807 
L 360.062458 377.57841 
L 360.331373 377.524627 
L 360.492723 377.363277 
L 360.27759 377.739759 
L 360.116241 378.492723 
L 360.062458 379.622169 
L 360.385157 381.02053 
L 361.191904 382.849157 
L 362.859181 385.538313 
L 363.235663 386.452627 
L 363.343229 387.151807 
L 363.18188 387.743422 
L 362.428916 388.926651 
L 360.976771 390.540145 
L 358.825446 392.046072 
L 355.598458 393.498217 
L 355.275759 393.767133 
L 355.329542 393.713349 
L 355.168193 394.036048 
L 355.060627 394.735229 
L 355.060627 396.13359 
L 355.383325 397.639518 
L 356.351422 399.683277 
L 358.072482 401.834602 
L 359.524627 403.071614 
L 361.783518 404.738892 
L 363.612145 406.513735 
L 365.225639 409.041542 
L 365.924819 411.139084 
L 366.408867 413.344193 
L 367.054265 415.549301 
L 368.183711 417.59306 
L 369.797205 419.367904 
L 371.464482 420.551133 
L 373.938506 421.626795 
L 378.778988 422.91759 
L 381.199229 423.724337 
L 383.511904 424.853783 
L 389.374265 428.295904 
L 391.310458 429.156434 
L 396.366072 431.14641 
L 398.678747 432.275855 
L 401.045205 433.996916 
L 403.19653 435.986892 
L 406.531084 439.805494 
L 408.037012 441.257639 
L 408.037012 441.257639 
" style="fill:none;stroke:#edc76f;stroke-linecap:square;stroke-width:1.5;"/>
   </g>
   <g id="line2d_97">
    <path clip-path="url(#p591a82b738)" d="M 393.730699 292.816193 
L 393.515566 292.869976 
L 393.246651 293.246458 
L 393.300434 293.515373 
L 393.085301 293.138892 
L 392.38612 292.385928 
L 390.880193 291.417831 
L 388.406169 290.557301 
L 385.985928 290.288386 
L 383.242988 290.664867 
L 381.03788 291.256482 
L 378.348723 291.848096 
L 375.659566 292.009446 
L 373.400675 291.686747 
L 369.20559 290.557301 
L 366.408867 290.234602 
L 363.934843 290.395952 
L 358.55653 291.256482 
L 355.598458 291.256482 
L 353.070651 290.88 
L 348.176386 289.911904 
L 344.680482 289.804337 
L 336.666795 290.01947 
L 331.880096 290.127036 
L 331.503614 290.288386 
L 331.073349 290.772434 
L 330.696867 291.632964 
L 330.320386 293.730506 
L 330.696867 296.473446 
L 332.095229 300.722313 
L 332.256578 301.69041 
L 332.202795 302.497157 
L 331.880096 303.680386 
L 331.180916 305.024964 
L 330.159036 306.261976 
L 328.16906 307.929253 
L 326.125301 309.166265 
L 323.86641 310.403277 
L 321.876434 311.747855 
L 320.047807 313.415133 
L 318.54188 315.136193 
L 316.390554 317.179952 
L 313.755181 318.632096 
L 311.281157 319.331277 
L 308.807133 319.600193 
L 306.70959 319.707759 
L 304.827181 320.030458 
L 303.751518 320.460723 
L 302.460723 321.375036 
L 300.954795 322.98853 
L 299.717783 325.086072 
L 298.050506 328.743325 
L 297.136193 329.980337 
L 296.437012 330.625735 
L 295.2 331.271133 
L 293.909205 331.647614 
L 291.865446 331.755181 
L 289.391422 331.324916 
L 286.648482 330.19547 
L 284.174458 328.904675 
L 281.808 327.829012 
L 279.710458 327.129831 
L 276.967518 326.860916 
L 274.170795 327.022265 
L 268.846265 327.936578 
L 265.995759 328.097928 
L 263.898217 328.044145 
L 259.864482 327.560096 
L 256.153446 326.807133 
L 256.04588 326.645783 
L 256.099663 326.269301 
L 256.314795 325.892819 
L 257.121542 325.247422 
L 258.519904 324.494458 
L 262.607422 323.526361 
L 262.392289 323.687711 
L 262.392289 324.064193 
L 261.746892 323.14988 
L 261.101494 322.612048 
L 260.133398 322.128 
L 258.896386 321.805301 
L 256.368578 321.590169 
L 255.669398 321.482602 
L 255.400482 321.26747 
L 255.454265 320.460723 
L 256.04588 319.331277 
L 257.229108 317.932916 
L 259.165301 316.373205 
L 261.693108 314.759711 
L 261.585542 314.92106 
L 261.585542 315.028627 
L 261.585542 314.759711 
L 261.37041 314.06053 
L 260.993928 313.307566 
L 260.34853 312.500819 
L 259.219084 311.747855 
L 257.874506 311.263807 
L 256.099663 310.941108 
L 253.679422 310.349494 
L 252.549976 309.865446 
L 251.474313 309.166265 
L 250.613783 308.198169 
L 249.69947 306.638458 
L 248.892723 303.895518 
L 248.731373 301.313928 
L 248.892723 298.624771 
L 248.83894 296.796145 
L 248.623807 295.935614 
L 248.247325 295.236434 
L 247.386795 294.32212 
L 245.827084 293.354024 
L 243.406843 292.60106 
L 240.77147 292.493494 
L 235.877205 293.085108 
L 233.994795 293.085108 
L 232.166169 292.816193 
L 223.238169 290.395952 
L 220.441446 290.234602 
L 213.288289 290.288386 
L 210.760482 290.01947 
L 206.511614 289.374072 
L 203.661108 289.051373 
L 198.659277 288.782458 
L 194.356627 288.567325 
L 181.87894 287.545446 
L 176.930892 287.653012 
L 174.456867 287.814361 
L 169.508819 288.513542 
L 164.560771 289.427855 
L 162.032964 289.642988 
L 159.451373 289.642988 
L 156.923566 289.427855 
L 140.358361 286.147084 
L 133.47412 284.049542 
L 129.01012 282.758747 
L 129.01012 282.758747 
" style="fill:none;stroke:#ff6f39;stroke-linecap:square;stroke-width:1.5;"/>
   </g>
   <g id="line2d_98">
    <path clip-path="url(#p591a82b738)" d="M 358.933012 164.86612 
L 359.094361 164.919904 
L 359.470843 165.135036 
L 360.331373 165.888 
L 361.084337 167.071229 
L 361.837301 169.061205 
L 362.213783 172.019277 
L 361.998651 174.224386 
L 360.492723 178.742169 
L 359.847325 181.431325 
L 359.739759 183.475084 
L 360.223807 188.100434 
L 360.27759 190.305542 
L 359.954892 192.833349 
L 357.964916 202.46053 
L 357.588434 203.428627 
L 357.427084 203.536193 
L 356.727904 203.643759 
L 355.437108 203.536193 
L 353.769831 202.944578 
L 351.564723 201.546217 
L 348.283952 198.641928 
L 348.552867 198.695711 
L 348.122602 198.803277 
L 347.638554 199.072193 
L 346.88559 199.663807 
L 346.078843 200.847036 
L 345.379663 202.62188 
L 345.110747 204.611855 
L 345.16453 209.075855 
L 344.788048 210.796916 
L 344.196434 211.980145 
L 343.228337 213.163373 
L 341.668627 214.400386 
L 339.893783 215.207133 
L 337.95759 215.744964 
L 334.51547 216.444145 
L 334.031422 216.71306 
L 333.49359 217.250892 
L 332.901976 218.218988 
L 332.525494 219.348434 
L 332.364145 221.392193 
L 332.525494 223.167036 
L 332.901976 225.157012 
L 333.117108 226.985639 
L 333.117108 228.384 
L 332.63306 230.26641 
L 331.503614 232.202602 
L 328.599325 235.913639 
L 327.846361 237.634699 
L 327.46988 239.624675 
L 327.577446 241.937349 
L 328.545542 246.347566 
L 328.868241 248.875373 
L 328.760675 251.887229 
L 328.276627 254.30747 
L 327.577446 257.05041 
L 327.200964 259.094169 
L 327.200964 261.51441 
L 327.577446 263.934651 
L 328.706892 269.259181 
L 328.975807 271.464289 
L 329.083373 281.467952 
L 329.674988 286.416 
L 330.159036 291.417831 
L 330.804434 301.475277 
L 333.117108 329.33494 
L 334.945735 350.256578 
L 335.160867 351.332241 
L 334.999518 351.170892 
L 334.891952 351.117108 
L 335.053301 351.170892 
L 336.39788 351.063325 
L 337.25841 350.79441 
L 340.754313 348.804434 
L 341.399711 348.643084 
L 341.937542 348.750651 
L 342.798072 349.127133 
L 343.551036 349.718747 
L 344.304 350.686843 
L 345.003181 352.085205 
L 345.379663 353.806265 
L 345.702361 357.087036 
L 346.02506 358.539181 
L 346.293976 359.184578 
L 346.88559 359.991325 
L 347.90747 360.851855 
L 349.359614 361.658602 
L 355.11441 363.648578 
L 356.243855 364.347759 
L 356.889253 365.04694 
L 357.427084 366.015036 
L 357.857349 367.252048 
L 358.018699 369.51094 
L 357.534651 372.146313 
L 356.297639 374.83547 
L 353.070651 379.622169 
L 351.941205 382.096193 
L 351.51094 384.462651 
L 351.618506 387.259373 
L 351.941205 389.625831 
L 351.994988 392.207422 
L 351.564723 394.41253 
L 350.757976 396.510072 
L 349.305831 398.661398 
L 345.32588 402.964048 
L 343.927518 404.954024 
L 343.066988 406.836434 
L 342.475373 408.880193 
L 342.152675 410.870169 
L 341.614843 413.397976 
L 340.70053 416.248482 
L 340.70053 416.248482 
" style="fill:none;stroke:#ff0000;stroke-linecap:square;stroke-width:1.5;"/>
   </g>
   <g id="patch_3">
    <path d="M 72 512.64 
L 72 69.12 
" style="fill:none;stroke:#000000;stroke-linecap:square;stroke-linejoin:miter;stroke-width:0.8;"/>
   </g>
   <g id="patch_4">
    <path d="M 518.4 512.64 
L 518.4 69.12 
" style="fill:none;stroke:#000000;stroke-linecap:square;stroke-linejoin:miter;stroke-width:0.8;"/>
   </g>
   <g id="patch_5">
    <path d="M 72 512.64 
L 518.4 512.64 
" style="fill:none;stroke:#000000;stroke-linecap:square;stroke-linejoin:miter;stroke-width:0.8;"/>
   </g>
   <g id="patch_6">
    <path d="M 72 69.12 
L 518.4 69.12 
" style="fill:none;stroke:#000000;stroke-linecap:square;stroke-linejoin:miter;stroke-width:0.8;"/>
   </g>
   <g id="text_18">
    <!-- 1 -->
    <defs>
     <path d="M 14.203125 0 
L 14.203125 5.171875 
L 26.90625 5.171875 
L 26.90625 65.828125 
L 12.203125 56.296875 
L 12.203125 62.703125 
L 29.984375 74.21875 
L 36.71875 74.21875 
L 36.71875 5.171875 
L 49.421875 5.171875 
L 49.421875 0 
z
" id="DejaVuSerif-31"/>
    </defs>
    <g transform="translate(309.071538 330.41161)scale(0.1 -0.1)">
     <use xlink:href="#DejaVuSerif-31"/>
    </g>
   </g>
   <g id="text_19">
    <!-- 1 -->
    <g transform="translate(218.463747 127.211291)scale(0.1 -0.1)">
     <use xlink:href="#DejaVuSerif-31"/>
    </g>
   </g>
   <g id="text_20">
    <!-- 2 -->
    <defs>
     <path d="M 12.796875 55.515625 
L 7.328125 55.515625 
L 7.328125 68.5 
Q 12.546875 71.296875 17.84375 72.75 
Q 23.140625 74.21875 28.21875 74.21875 
Q 39.59375 74.21875 46.1875 68.703125 
Q 52.78125 63.1875 52.78125 53.71875 
Q 52.78125 43.015625 37.84375 28.125 
Q 36.671875 27 36.078125 26.421875 
L 17.671875 8.015625 
L 48.09375 8.015625 
L 48.09375 17 
L 53.8125 17 
L 53.8125 0 
L 6.78125 0 
L 6.78125 5.328125 
L 28.90625 27.390625 
Q 36.234375 34.71875 39.359375 40.84375 
Q 42.484375 46.96875 42.484375 53.71875 
Q 42.484375 61.078125 38.640625 65.234375 
Q 34.8125 69.390625 28.078125 69.390625 
Q 21.09375 69.390625 17.28125 65.921875 
Q 13.484375 62.453125 12.796875 55.515625 
z
" id="DejaVuSerif-32"/>
    </defs>
    <g transform="translate(247.961956 161.9897)scale(0.1 -0.1)">
     <use xlink:href="#DejaVuSerif-32"/>
    </g>
   </g>
   <g id="text_21">
    <!-- 2 -->
    <g transform="translate(427.977712 392.294526)scale(0.1 -0.1)">
     <use xlink:href="#DejaVuSerif-32"/>
    </g>
   </g>
   <g id="text_22">
    <!-- 3 -->
    <defs>
     <path d="M 9.71875 69.828125 
Q 15.4375 71.96875 20.671875 73.09375 
Q 25.921875 74.21875 30.515625 74.21875 
Q 41.21875 74.21875 47.21875 69.59375 
Q 53.21875 64.984375 53.21875 56.78125 
Q 53.21875 50.203125 49.0625 45.78125 
Q 44.921875 41.359375 37.3125 39.796875 
Q 46.296875 38.53125 51.25 33.28125 
Q 56.203125 28.03125 56.203125 19.671875 
Q 56.203125 9.46875 49.34375 4.015625 
Q 42.484375 -1.421875 29.59375 -1.421875 
Q 23.875 -1.421875 18.421875 -0.1875 
Q 12.984375 1.03125 7.625 3.515625 
L 7.625 17.671875 
L 13.09375 17.671875 
Q 13.578125 10.640625 17.828125 7.03125 
Q 22.078125 3.421875 29.78125 3.421875 
Q 37.25 3.421875 41.578125 7.734375 
Q 45.90625 12.0625 45.90625 19.578125 
Q 45.90625 28.171875 41.453125 32.59375 
Q 37.015625 37.015625 28.421875 37.015625 
L 23.78125 37.015625 
L 23.78125 42 
L 26.21875 42 
Q 34.765625 42 39.03125 45.53125 
Q 43.3125 49.078125 43.3125 56.203125 
Q 43.3125 62.59375 39.796875 65.984375 
Q 36.28125 69.390625 29.6875 69.390625 
Q 23.09375 69.390625 19.453125 66.265625 
Q 15.828125 63.140625 15.1875 56.984375 
L 9.71875 56.984375 
z
" id="DejaVuSerif-33"/>
    </defs>
    <g transform="translate(132.354527 214.854008)scale(0.1 -0.1)">
     <use xlink:href="#DejaVuSerif-33"/>
    </g>
   </g>
   <g id="text_23">
    <!-- 3 -->
    <g transform="translate(334.521584 298.595194)scale(0.1 -0.1)">
     <use xlink:href="#DejaVuSerif-33"/>
    </g>
   </g>
   <g id="text_24">
    <!-- 4 -->
    <defs>
     <path d="M 34.90625 24.703125 
L 34.90625 63.484375 
L 10.015625 24.703125 
z
M 56.390625 0 
L 23.1875 0 
L 23.1875 5.171875 
L 34.90625 5.171875 
L 34.90625 19.484375 
L 3.078125 19.484375 
L 3.078125 24.8125 
L 35.015625 74.21875 
L 44.671875 74.21875 
L 44.671875 24.703125 
L 58.59375 24.703125 
L 58.59375 19.484375 
L 44.671875 19.484375 
L 44.671875 5.171875 
L 56.390625 5.171875 
z
" id="DejaVuSerif-34"/>
    </defs>
    <g transform="translate(169.163747 392.243788)scale(0.1 -0.1)">
     <use xlink:href="#DejaVuSerif-34"/>
    </g>
   </g>
   <g id="text_25">
    <!-- 4 -->
    <g transform="translate(370.942614 125.35026)scale(0.1 -0.1)">
     <use xlink:href="#DejaVuSerif-34"/>
    </g>
   </g>
   <g id="text_26">
    <!-- 5 -->
    <defs>
     <path d="M 50.296875 72.90625 
L 50.296875 64.890625 
L 16.890625 64.890625 
L 16.890625 44 
Q 19.4375 45.75 22.828125 46.625 
Q 26.21875 47.515625 30.421875 47.515625 
Q 42.234375 47.515625 49.0625 40.96875 
Q 55.90625 34.421875 55.90625 23.09375 
Q 55.90625 11.53125 49 5.046875 
Q 42.09375 -1.421875 29.59375 -1.421875 
Q 24.5625 -1.421875 19.28125 -0.1875 
Q 14.015625 1.03125 8.5 3.515625 
L 8.5 17.671875 
L 14.015625 17.671875 
Q 14.453125 10.75 18.421875 7.078125 
Q 22.40625 3.421875 29.59375 3.421875 
Q 37.3125 3.421875 41.453125 8.5 
Q 45.609375 13.578125 45.609375 23.09375 
Q 45.609375 32.5625 41.484375 37.609375 
Q 37.359375 42.671875 29.59375 42.671875 
Q 25.203125 42.671875 21.84375 41.109375 
Q 18.5 39.546875 15.921875 36.28125 
L 11.71875 36.28125 
L 11.71875 72.90625 
z
" id="DejaVuSerif-35"/>
    </defs>
    <g transform="translate(140.873859 173.937855)scale(0.1 -0.1)">
     <use xlink:href="#DejaVuSerif-35"/>
    </g>
   </g>
   <g id="text_27">
    <!-- 5 -->
    <g transform="translate(393.847237 196.572497)scale(0.1 -0.1)">
     <use xlink:href="#DejaVuSerif-35"/>
    </g>
   </g>
   <g id="text_28">
    <!-- 6 -->
    <defs>
     <path d="M 32.71875 3.421875 
Q 39.59375 3.421875 43.296875 8.46875 
Q 47.015625 13.53125 47.015625 23 
Q 47.015625 32.46875 43.296875 37.515625 
Q 39.59375 42.578125 32.71875 42.578125 
Q 25.734375 42.578125 22.0625 37.6875 
Q 18.40625 32.8125 18.40625 23.578125 
Q 18.40625 13.875 22.109375 8.640625 
Q 25.828125 3.421875 32.71875 3.421875 
z
M 16.796875 40.140625 
Q 20.125 43.796875 24.3125 45.59375 
Q 28.515625 47.40625 33.796875 47.40625 
Q 44.671875 47.40625 51 40.859375 
Q 57.328125 34.328125 57.328125 23 
Q 57.328125 11.921875 50.515625 5.25 
Q 43.703125 -1.421875 32.328125 -1.421875 
Q 19.96875 -1.421875 13.328125 7.78125 
Q 6.6875 17 6.6875 34.078125 
Q 6.6875 53.21875 14.546875 63.71875 
Q 22.40625 74.21875 36.71875 74.21875 
Q 40.578125 74.21875 44.828125 73.484375 
Q 49.078125 72.75 53.515625 71.296875 
L 53.515625 59.28125 
L 48 59.28125 
Q 47.40625 64.203125 44.234375 66.796875 
Q 41.0625 69.390625 35.6875 69.390625 
Q 26.21875 69.390625 21.578125 62.203125 
Q 16.9375 55.03125 16.796875 40.140625 
z
" id="DejaVuSerif-36"/>
    </defs>
    <g transform="translate(256.507922 199.140051)scale(0.1 -0.1)">
     <use xlink:href="#DejaVuSerif-36"/>
    </g>
   </g>
   <g id="text_29">
    <!-- 6 -->
    <g transform="translate(404.921424 440.402039)scale(0.1 -0.1)">
     <use xlink:href="#DejaVuSerif-36"/>
    </g>
   </g>
   <g id="text_30">
    <!-- 7 -->
    <defs>
     <path d="M 56.390625 67.921875 
L 27.875 0 
L 20.609375 0 
L 47.796875 64.890625 
L 14.109375 64.890625 
L 14.109375 55.90625 
L 8.40625 55.90625 
L 8.40625 72.90625 
L 56.390625 72.90625 
z
" id="DejaVuSerif-37"/>
    </defs>
    <g transform="translate(390.553104 292.824996)scale(0.1 -0.1)">
     <use xlink:href="#DejaVuSerif-37"/>
    </g>
   </g>
   <g id="text_31">
    <!-- 7 -->
    <g transform="translate(125.865898 282.855902)scale(0.1 -0.1)">
     <use xlink:href="#DejaVuSerif-37"/>
    </g>
   </g>
   <g id="text_32">
    <!-- 8 -->
    <defs>
     <path d="M 46.578125 19.921875 
Q 46.578125 27.734375 42.6875 32.046875 
Q 38.8125 36.375 31.78125 36.375 
Q 24.75 36.375 20.875 32.046875 
Q 17 27.734375 17 19.921875 
Q 17 12.0625 20.875 7.734375 
Q 24.75 3.421875 31.78125 3.421875 
Q 38.8125 3.421875 42.6875 7.734375 
Q 46.578125 12.0625 46.578125 19.921875 
z
M 44.578125 55.328125 
Q 44.578125 61.96875 41.203125 65.671875 
Q 37.84375 69.390625 31.78125 69.390625 
Q 25.78125 69.390625 22.390625 65.671875 
Q 19 61.96875 19 55.328125 
Q 19 48.640625 22.390625 44.921875 
Q 25.78125 41.21875 31.78125 41.21875 
Q 37.84375 41.21875 41.203125 44.921875 
Q 44.578125 48.640625 44.578125 55.328125 
z
M 39.3125 38.8125 
Q 47.609375 37.703125 52.25 32.6875 
Q 56.890625 27.6875 56.890625 19.921875 
Q 56.890625 9.671875 50.390625 4.125 
Q 43.890625 -1.421875 31.78125 -1.421875 
Q 19.734375 -1.421875 13.203125 4.125 
Q 6.6875 9.671875 6.6875 19.921875 
Q 6.6875 27.6875 11.328125 32.6875 
Q 15.96875 37.703125 24.3125 38.8125 
Q 16.9375 40.140625 13 44.40625 
Q 9.078125 48.6875 9.078125 55.328125 
Q 9.078125 64.109375 15.125 69.15625 
Q 21.1875 74.21875 31.78125 74.21875 
Q 42.390625 74.21875 48.4375 69.15625 
Q 54.5 64.109375 54.5 55.328125 
Q 54.5 48.6875 50.5625 44.40625 
Q 46.625 40.140625 39.3125 38.8125 
z
" id="DejaVuSerif-38"/>
    </defs>
    <g transform="translate(355.745992 164.892322)scale(0.1 -0.1)">
     <use xlink:href="#DejaVuSerif-38"/>
    </g>
   </g>
   <g id="text_33">
    <!-- 8 -->
    <g transform="translate(336.870689 415.316566)scale(0.1 -0.1)">
     <use xlink:href="#DejaVuSerif-38"/>
    </g>
   </g>
  </g>
 </g>
 <defs>
  <clipPath id="p591a82b738">
   <rect height="443.52" width="446.4" x="72" y="69.12"/>
  </clipPath>
 </defs>
</svg>
