<?xml version="1.0" encoding="utf-8" standalone="no"?>
<!DOCTYPE svg PUBLIC "-//W3C//DTD SVG 1.1//EN"
  "http://www.w3.org/Graphics/SVG/1.1/DTD/svg11.dtd">
<!-- Created with matplotlib (http://matplotlib.org/) -->
<svg height="576pt" version="1.1" viewBox="0 0 576 576" width="576pt" xmlns="http://www.w3.org/2000/svg" xmlns:xlink="http://www.w3.org/1999/xlink">
 <defs>
  <style type="text/css">
*{stroke-linecap:butt;stroke-linejoin:round;}
  </style>
 </defs>
 <g id="figure_1">
  <g id="patch_1">
   <path d="M 0 576 
L 576 576 
L 576 0 
L 0 0 
z
" style="fill:#ffffff;"/>
  </g>
  <g id="axes_1">
   <g id="patch_2">
    <path d="M 72 512.64 
L 518.4 512.64 
L 518.4 69.12 
L 72 69.12 
z
" style="fill:#ffffff;"/>
   </g>
   <g id="matplotlib.axis_1">
    <g id="xtick_1">
     <g id="line2d_1">
      <defs>
       <path d="M 0 0 
L 0 3.5 
" id="mc3b4d4232b" style="stroke:#000000;stroke-width:0.8;"/>
      </defs>
      <g>
       <use style="stroke:#000000;stroke-width:0.8;" x="112.216216" xlink:href="#mc3b4d4232b" y="512.64"/>
      </g>
     </g>
     <g id="text_1">
      <!-- 0 -->
      <defs>
       <path d="M 31.78125 66.40625 
Q 24.171875 66.40625 20.328125 58.90625 
Q 16.5 51.421875 16.5 36.375 
Q 16.5 21.390625 20.328125 13.890625 
Q 24.171875 6.390625 31.78125 6.390625 
Q 39.453125 6.390625 43.28125 13.890625 
Q 47.125 21.390625 47.125 36.375 
Q 47.125 51.421875 43.28125 58.90625 
Q 39.453125 66.40625 31.78125 66.40625 
z
M 31.78125 74.21875 
Q 44.046875 74.21875 50.515625 64.515625 
Q 56.984375 54.828125 56.984375 36.375 
Q 56.984375 17.96875 50.515625 8.265625 
Q 44.046875 -1.421875 31.78125 -1.421875 
Q 19.53125 -1.421875 13.0625 8.265625 
Q 6.59375 17.96875 6.59375 36.375 
Q 6.59375 54.828125 13.0625 64.515625 
Q 19.53125 74.21875 31.78125 74.21875 
z
" id="DejaVuSans-30"/>
      </defs>
      <g transform="translate(109.034966 527.238438)scale(0.1 -0.1)">
       <use xlink:href="#DejaVuSans-30"/>
      </g>
     </g>
    </g>
    <g id="xtick_2">
     <g id="line2d_2">
      <g>
       <use style="stroke:#000000;stroke-width:0.8;" x="192.648649" xlink:href="#mc3b4d4232b" y="512.64"/>
      </g>
     </g>
     <g id="text_2">
      <!-- 2 -->
      <defs>
       <path d="M 19.1875 8.296875 
L 53.609375 8.296875 
L 53.609375 0 
L 7.328125 0 
L 7.328125 8.296875 
Q 12.9375 14.109375 22.625 23.890625 
Q 32.328125 33.6875 34.8125 36.53125 
Q 39.546875 41.84375 41.421875 45.53125 
Q 43.3125 49.21875 43.3125 52.78125 
Q 43.3125 58.59375 39.234375 62.25 
Q 35.15625 65.921875 28.609375 65.921875 
Q 23.96875 65.921875 18.8125 64.3125 
Q 13.671875 62.703125 7.8125 59.421875 
L 7.8125 69.390625 
Q 13.765625 71.78125 18.9375 73 
Q 24.125 74.21875 28.421875 74.21875 
Q 39.75 74.21875 46.484375 68.546875 
Q 53.21875 62.890625 53.21875 53.421875 
Q 53.21875 48.921875 51.53125 44.890625 
Q 49.859375 40.875 45.40625 35.40625 
Q 44.1875 33.984375 37.640625 27.21875 
Q 31.109375 20.453125 19.1875 8.296875 
z
" id="DejaVuSans-32"/>
      </defs>
      <g transform="translate(189.467399 527.238438)scale(0.1 -0.1)">
       <use xlink:href="#DejaVuSans-32"/>
      </g>
     </g>
    </g>
    <g id="xtick_3">
     <g id="line2d_3">
      <g>
       <use style="stroke:#000000;stroke-width:0.8;" x="273.081081" xlink:href="#mc3b4d4232b" y="512.64"/>
      </g>
     </g>
     <g id="text_3">
      <!-- 4 -->
      <defs>
       <path d="M 37.796875 64.3125 
L 12.890625 25.390625 
L 37.796875 25.390625 
z
M 35.203125 72.90625 
L 47.609375 72.90625 
L 47.609375 25.390625 
L 58.015625 25.390625 
L 58.015625 17.1875 
L 47.609375 17.1875 
L 47.609375 0 
L 37.796875 0 
L 37.796875 17.1875 
L 4.890625 17.1875 
L 4.890625 26.703125 
z
" id="DejaVuSans-34"/>
      </defs>
      <g transform="translate(269.899831 527.238438)scale(0.1 -0.1)">
       <use xlink:href="#DejaVuSans-34"/>
      </g>
     </g>
    </g>
    <g id="xtick_4">
     <g id="line2d_4">
      <g>
       <use style="stroke:#000000;stroke-width:0.8;" x="353.513514" xlink:href="#mc3b4d4232b" y="512.64"/>
      </g>
     </g>
     <g id="text_4">
      <!-- 6 -->
      <defs>
       <path d="M 33.015625 40.375 
Q 26.375 40.375 22.484375 35.828125 
Q 18.609375 31.296875 18.609375 23.390625 
Q 18.609375 15.53125 22.484375 10.953125 
Q 26.375 6.390625 33.015625 6.390625 
Q 39.65625 6.390625 43.53125 10.953125 
Q 47.40625 15.53125 47.40625 23.390625 
Q 47.40625 31.296875 43.53125 35.828125 
Q 39.65625 40.375 33.015625 40.375 
z
M 52.59375 71.296875 
L 52.59375 62.3125 
Q 48.875 64.0625 45.09375 64.984375 
Q 41.3125 65.921875 37.59375 65.921875 
Q 27.828125 65.921875 22.671875 59.328125 
Q 17.53125 52.734375 16.796875 39.40625 
Q 19.671875 43.65625 24.015625 45.921875 
Q 28.375 48.1875 33.59375 48.1875 
Q 44.578125 48.1875 50.953125 41.515625 
Q 57.328125 34.859375 57.328125 23.390625 
Q 57.328125 12.15625 50.6875 5.359375 
Q 44.046875 -1.421875 33.015625 -1.421875 
Q 20.359375 -1.421875 13.671875 8.265625 
Q 6.984375 17.96875 6.984375 36.375 
Q 6.984375 53.65625 15.1875 63.9375 
Q 23.390625 74.21875 37.203125 74.21875 
Q 40.921875 74.21875 44.703125 73.484375 
Q 48.484375 72.75 52.59375 71.296875 
z
" id="DejaVuSans-36"/>
      </defs>
      <g transform="translate(350.332264 527.238438)scale(0.1 -0.1)">
       <use xlink:href="#DejaVuSans-36"/>
      </g>
     </g>
    </g>
    <g id="xtick_5">
     <g id="line2d_5">
      <g>
       <use style="stroke:#000000;stroke-width:0.8;" x="433.945946" xlink:href="#mc3b4d4232b" y="512.64"/>
      </g>
     </g>
     <g id="text_5">
      <!-- 8 -->
      <defs>
       <path d="M 31.78125 34.625 
Q 24.75 34.625 20.71875 30.859375 
Q 16.703125 27.09375 16.703125 20.515625 
Q 16.703125 13.921875 20.71875 10.15625 
Q 24.75 6.390625 31.78125 6.390625 
Q 38.8125 6.390625 42.859375 10.171875 
Q 46.921875 13.96875 46.921875 20.515625 
Q 46.921875 27.09375 42.890625 30.859375 
Q 38.875 34.625 31.78125 34.625 
z
M 21.921875 38.8125 
Q 15.578125 40.375 12.03125 44.71875 
Q 8.5 49.078125 8.5 55.328125 
Q 8.5 64.0625 14.71875 69.140625 
Q 20.953125 74.21875 31.78125 74.21875 
Q 42.671875 74.21875 48.875 69.140625 
Q 55.078125 64.0625 55.078125 55.328125 
Q 55.078125 49.078125 51.53125 44.71875 
Q 48 40.375 41.703125 38.8125 
Q 48.828125 37.15625 52.796875 32.3125 
Q 56.78125 27.484375 56.78125 20.515625 
Q 56.78125 9.90625 50.3125 4.234375 
Q 43.84375 -1.421875 31.78125 -1.421875 
Q 19.734375 -1.421875 13.25 4.234375 
Q 6.78125 9.90625 6.78125 20.515625 
Q 6.78125 27.484375 10.78125 32.3125 
Q 14.796875 37.15625 21.921875 38.8125 
z
M 18.3125 54.390625 
Q 18.3125 48.734375 21.84375 45.5625 
Q 25.390625 42.390625 31.78125 42.390625 
Q 38.140625 42.390625 41.71875 45.5625 
Q 45.3125 48.734375 45.3125 54.390625 
Q 45.3125 60.0625 41.71875 63.234375 
Q 38.140625 66.40625 31.78125 66.40625 
Q 25.390625 66.40625 21.84375 63.234375 
Q 18.3125 60.0625 18.3125 54.390625 
z
" id="DejaVuSans-38"/>
      </defs>
      <g transform="translate(430.764696 527.238438)scale(0.1 -0.1)">
       <use xlink:href="#DejaVuSans-38"/>
      </g>
     </g>
    </g>
    <g id="xtick_6">
     <g id="line2d_6">
      <g>
       <use style="stroke:#000000;stroke-width:0.8;" x="514.378378" xlink:href="#mc3b4d4232b" y="512.64"/>
      </g>
     </g>
     <g id="text_6">
      <!-- 10 -->
      <defs>
       <path d="M 12.40625 8.296875 
L 28.515625 8.296875 
L 28.515625 63.921875 
L 10.984375 60.40625 
L 10.984375 69.390625 
L 28.421875 72.90625 
L 38.28125 72.90625 
L 38.28125 8.296875 
L 54.390625 8.296875 
L 54.390625 0 
L 12.40625 0 
z
" id="DejaVuSans-31"/>
      </defs>
      <g transform="translate(508.015878 527.238438)scale(0.1 -0.1)">
       <use xlink:href="#DejaVuSans-31"/>
       <use x="63.623047" xlink:href="#DejaVuSans-30"/>
      </g>
     </g>
    </g>
   </g>
   <g id="matplotlib.axis_2">
    <g id="ytick_1">
     <g id="line2d_7">
      <defs>
       <path d="M 0 0 
L -3.5 0 
" id="mc0d7ec5b71" style="stroke:#000000;stroke-width:0.8;"/>
      </defs>
      <g>
       <use style="stroke:#000000;stroke-width:0.8;" x="72" xlink:href="#mc0d7ec5b71" y="473.863784"/>
      </g>
     </g>
     <g id="text_7">
      <!-- 0 -->
      <g transform="translate(58.6375 477.663003)scale(0.1 -0.1)">
       <use xlink:href="#DejaVuSans-30"/>
      </g>
     </g>
    </g>
    <g id="ytick_2">
     <g id="line2d_8">
      <g>
       <use style="stroke:#000000;stroke-width:0.8;" x="72" xlink:href="#mc0d7ec5b71" y="393.431351"/>
      </g>
     </g>
     <g id="text_8">
      <!-- 2 -->
      <g transform="translate(58.6375 397.23057)scale(0.1 -0.1)">
       <use xlink:href="#DejaVuSans-32"/>
      </g>
     </g>
    </g>
    <g id="ytick_3">
     <g id="line2d_9">
      <g>
       <use style="stroke:#000000;stroke-width:0.8;" x="72" xlink:href="#mc0d7ec5b71" y="312.998919"/>
      </g>
     </g>
     <g id="text_9">
      <!-- 4 -->
      <g transform="translate(58.6375 316.798138)scale(0.1 -0.1)">
       <use xlink:href="#DejaVuSans-34"/>
      </g>
     </g>
    </g>
    <g id="ytick_4">
     <g id="line2d_10">
      <g>
       <use style="stroke:#000000;stroke-width:0.8;" x="72" xlink:href="#mc0d7ec5b71" y="232.566486"/>
      </g>
     </g>
     <g id="text_10">
      <!-- 6 -->
      <g transform="translate(58.6375 236.365705)scale(0.1 -0.1)">
       <use xlink:href="#DejaVuSans-36"/>
      </g>
     </g>
    </g>
    <g id="ytick_5">
     <g id="line2d_11">
      <g>
       <use style="stroke:#000000;stroke-width:0.8;" x="72" xlink:href="#mc0d7ec5b71" y="152.134054"/>
      </g>
     </g>
     <g id="text_11">
      <!-- 8 -->
      <g transform="translate(58.6375 155.933273)scale(0.1 -0.1)">
       <use xlink:href="#DejaVuSans-38"/>
      </g>
     </g>
    </g>
    <g id="ytick_6">
     <g id="line2d_12">
      <g>
       <use style="stroke:#000000;stroke-width:0.8;" x="72" xlink:href="#mc0d7ec5b71" y="71.701622"/>
      </g>
     </g>
     <g id="text_12">
      <!-- 10 -->
      <g transform="translate(52.275 75.50084)scale(0.1 -0.1)">
       <use xlink:href="#DejaVuSans-31"/>
       <use x="63.623047" xlink:href="#DejaVuSans-30"/>
      </g>
     </g>
    </g>
   </g>
   <g id="line2d_13">
    <path clip-path="url(#p657de47ffc)" d="M 140.367568 389.40973 
" style="fill:none;stroke:#1f77b4;stroke-linecap:square;stroke-width:1.5;"/>
    <defs>
     <path d="M -5 5 
L 5 5 
L 5 -5 
L -5 -5 
z
" id="m05dcf5d067" style="stroke:#8000ff;stroke-linejoin:miter;"/>
    </defs>
    <g clip-path="url(#p657de47ffc)">
     <use style="fill:#8000ff;stroke:#8000ff;stroke-linejoin:miter;" x="140.367568" xlink:href="#m05dcf5d067" y="389.40973"/>
    </g>
   </g>
   <g id="line2d_14">
    <path clip-path="url(#p657de47ffc)" d="M 393.72973 192.35027 
" style="fill:none;stroke:#ff7f0e;stroke-linecap:square;stroke-width:1.5;"/>
    <defs>
     <path d="M 0 -5 
L -4.755283 -1.545085 
L -2.938926 4.045085 
L 2.938926 4.045085 
L 4.755283 -1.545085 
z
" id="mebddbdf589" style="stroke:#8000ff;stroke-linejoin:miter;"/>
    </defs>
    <g clip-path="url(#p657de47ffc)">
     <use style="fill:#8000ff;stroke:#8000ff;stroke-linejoin:miter;" x="393.72973" xlink:href="#mebddbdf589" y="192.35027"/>
    </g>
   </g>
   <g id="line2d_15">
    <path clip-path="url(#p657de47ffc)" d="M 450.032432 192.35027 
" style="fill:none;stroke:#2ca02c;stroke-linecap:square;stroke-width:1.5;"/>
    <defs>
     <path d="M -5 5 
L 5 5 
L 5 -5 
L -5 -5 
z
" id="m4ae853c423" style="stroke:#583dfd;stroke-linejoin:miter;"/>
    </defs>
    <g clip-path="url(#p657de47ffc)">
     <use style="fill:#583dfd;stroke:#583dfd;stroke-linejoin:miter;" x="450.032432" xlink:href="#m4ae853c423" y="192.35027"/>
    </g>
   </g>
   <g id="line2d_16">
    <path clip-path="url(#p657de47ffc)" d="M 224.821622 361.258378 
" style="fill:none;stroke:#d62728;stroke-linecap:square;stroke-width:1.5;"/>
    <defs>
     <path d="M 0 -5 
L -4.755283 -1.545085 
L -2.938926 4.045085 
L 2.938926 4.045085 
L 4.755283 -1.545085 
z
" id="m63ae8c6d74" style="stroke:#583dfd;stroke-linejoin:miter;"/>
    </defs>
    <g clip-path="url(#p657de47ffc)">
     <use style="fill:#583dfd;stroke:#583dfd;stroke-linejoin:miter;" x="224.821622" xlink:href="#m63ae8c6d74" y="361.258378"/>
    </g>
   </g>
   <g id="line2d_17">
    <path clip-path="url(#p657de47ffc)" d="M 402.175135 440.082162 
" style="fill:none;stroke:#9467bd;stroke-linecap:square;stroke-width:1.5;"/>
    <defs>
     <path d="M -5 5 
L 5 5 
L 5 -5 
L -5 -5 
z
" id="m2905eeaf21" style="stroke:#3177f8;stroke-linejoin:miter;"/>
    </defs>
    <g clip-path="url(#p657de47ffc)">
     <use style="fill:#3177f8;stroke:#3177f8;stroke-linejoin:miter;" x="402.175135" xlink:href="#m2905eeaf21" y="440.082162"/>
    </g>
   </g>
   <g id="line2d_18">
    <path clip-path="url(#p657de47ffc)" d="M 224.821622 192.35027 
" style="fill:none;stroke:#8c564b;stroke-linecap:square;stroke-width:1.5;"/>
    <defs>
     <path d="M 0 -5 
L -4.755283 -1.545085 
L -2.938926 4.045085 
L 2.938926 4.045085 
L 4.755283 -1.545085 
z
" id="m193d23ef8e" style="stroke:#3177f8;stroke-linejoin:miter;"/>
    </defs>
    <g clip-path="url(#p657de47ffc)">
     <use style="fill:#3177f8;stroke:#3177f8;stroke-linejoin:miter;" x="224.821622" xlink:href="#m193d23ef8e" y="192.35027"/>
    </g>
   </g>
   <g id="line2d_19">
    <path clip-path="url(#p657de47ffc)" d="M 224.821622 136.047568 
" style="fill:none;stroke:#e377c2;stroke-linecap:square;stroke-width:1.5;"/>
    <defs>
     <path d="M -5 5 
L 5 5 
L 5 -5 
L -5 -5 
z
" id="me8e7118dc4" style="stroke:#0aa9ee;stroke-linejoin:miter;"/>
    </defs>
    <g clip-path="url(#p657de47ffc)">
     <use style="fill:#0aa9ee;stroke:#0aa9ee;stroke-linejoin:miter;" x="224.821622" xlink:href="#me8e7118dc4" y="136.047568"/>
    </g>
   </g>
   <g id="line2d_20">
    <path clip-path="url(#p657de47ffc)" d="M 393.72973 361.258378 
" style="fill:none;stroke:#7f7f7f;stroke-linecap:square;stroke-width:1.5;"/>
    <defs>
     <path d="M 0 -5 
L -4.755283 -1.545085 
L -2.938926 4.045085 
L 2.938926 4.045085 
L 4.755283 -1.545085 
z
" id="m0d1f1e7f8b" style="stroke:#0aa9ee;stroke-linejoin:miter;"/>
    </defs>
    <g clip-path="url(#p657de47ffc)">
     <use style="fill:#0aa9ee;stroke:#0aa9ee;stroke-linejoin:miter;" x="393.72973" xlink:href="#m0d1f1e7f8b" y="361.258378"/>
    </g>
   </g>
   <g id="line2d_21">
    <path clip-path="url(#p657de47ffc)" d="M 450.032432 304.955676 
" style="fill:none;stroke:#bcbd22;stroke-linecap:square;stroke-width:1.5;"/>
    <defs>
     <path d="M -5 5 
L 5 5 
L 5 -5 
L -5 -5 
z
" id="me2d1a58f71" style="stroke:#1dd2e2;stroke-linejoin:miter;"/>
    </defs>
    <g clip-path="url(#p657de47ffc)">
     <use style="fill:#1dd2e2;stroke:#1dd2e2;stroke-linejoin:miter;" x="450.032432" xlink:href="#me2d1a58f71" y="304.955676"/>
    </g>
   </g>
   <g id="line2d_22">
    <path clip-path="url(#p657de47ffc)" d="M 196.67027 248.652973 
" style="fill:none;stroke:#17becf;stroke-linecap:square;stroke-width:1.5;"/>
    <defs>
     <path d="M 0 -5 
L -4.755283 -1.545085 
L -2.938926 4.045085 
L 2.938926 4.045085 
L 4.755283 -1.545085 
z
" id="m3ed4be68d7" style="stroke:#1dd2e2;stroke-linejoin:miter;"/>
    </defs>
    <g clip-path="url(#p657de47ffc)">
     <use style="fill:#1dd2e2;stroke:#1dd2e2;stroke-linejoin:miter;" x="196.67027" xlink:href="#m3ed4be68d7" y="248.652973"/>
    </g>
   </g>
   <g id="line2d_23">
    <path clip-path="url(#p657de47ffc)" d="M 140.367568 248.652973 
" style="fill:none;stroke:#1f77b4;stroke-linecap:square;stroke-width:1.5;"/>
    <defs>
     <path d="M -5 5 
L 5 5 
L 5 -5 
L -5 -5 
z
" id="m281661e7cc" style="stroke:#45eed2;stroke-linejoin:miter;"/>
    </defs>
    <g clip-path="url(#p657de47ffc)">
     <use style="fill:#45eed2;stroke:#45eed2;stroke-linejoin:miter;" x="140.367568" xlink:href="#m281661e7cc" y="248.652973"/>
    </g>
   </g>
   <g id="line2d_24">
    <path clip-path="url(#p657de47ffc)" d="M 393.72973 276.804324 
" style="fill:none;stroke:#ff7f0e;stroke-linecap:square;stroke-width:1.5;"/>
    <defs>
     <path d="M 0 -5 
L -4.755283 -1.545085 
L -2.938926 4.045085 
L 2.938926 4.045085 
L 4.755283 -1.545085 
z
" id="m09c4bcb170" style="stroke:#45eed2;stroke-linejoin:miter;"/>
    </defs>
    <g clip-path="url(#p657de47ffc)">
     <use style="fill:#45eed2;stroke:#45eed2;stroke-linejoin:miter;" x="393.72973" xlink:href="#m09c4bcb170" y="276.804324"/>
    </g>
   </g>
   <g id="line2d_25">
    <path clip-path="url(#p657de47ffc)" d="M 281.124324 192.35027 
" style="fill:none;stroke:#2ca02c;stroke-linecap:square;stroke-width:1.5;"/>
    <defs>
     <path d="M -5 5 
L 5 5 
L 5 -5 
L -5 -5 
z
" id="m923808f56d" style="stroke:#6cfdbf;stroke-linejoin:miter;"/>
    </defs>
    <g clip-path="url(#p657de47ffc)">
     <use style="fill:#6cfdbf;stroke:#6cfdbf;stroke-linejoin:miter;" x="281.124324" xlink:href="#m923808f56d" y="192.35027"/>
    </g>
   </g>
   <g id="line2d_26">
    <path clip-path="url(#p657de47ffc)" d="M 281.124324 333.107027 
" style="fill:none;stroke:#d62728;stroke-linecap:square;stroke-width:1.5;"/>
    <defs>
     <path d="M 0 -5 
L -4.755283 -1.545085 
L -2.938926 4.045085 
L 2.938926 4.045085 
L 4.755283 -1.545085 
z
" id="m76248b79c5" style="stroke:#6cfdbf;stroke-linejoin:miter;"/>
    </defs>
    <g clip-path="url(#p657de47ffc)">
     <use style="fill:#6cfdbf;stroke:#6cfdbf;stroke-linejoin:miter;" x="281.124324" xlink:href="#m76248b79c5" y="333.107027"/>
    </g>
   </g>
   <g id="line2d_27">
    <path clip-path="url(#p657de47ffc)" d="M 140.367568 304.955676 
" style="fill:none;stroke:#9467bd;stroke-linecap:square;stroke-width:1.5;"/>
    <defs>
     <path d="M -5 5 
L 5 5 
L 5 -5 
L -5 -5 
z
" id="md0498d7b94" style="stroke:#93fda9;stroke-linejoin:miter;"/>
    </defs>
    <g clip-path="url(#p657de47ffc)">
     <use style="fill:#93fda9;stroke:#93fda9;stroke-linejoin:miter;" x="140.367568" xlink:href="#md0498d7b94" y="304.955676"/>
    </g>
   </g>
   <g id="line2d_28">
    <path clip-path="url(#p657de47ffc)" d="M 309.275676 276.804324 
" style="fill:none;stroke:#8c564b;stroke-linecap:square;stroke-width:1.5;"/>
    <defs>
     <path d="M 0 -5 
L -4.755283 -1.545085 
L -2.938926 4.045085 
L 2.938926 4.045085 
L 4.755283 -1.545085 
z
" id="m5a7a08fba3" style="stroke:#93fda9;stroke-linejoin:miter;"/>
    </defs>
    <g clip-path="url(#p657de47ffc)">
     <use style="fill:#93fda9;stroke:#93fda9;stroke-linejoin:miter;" x="309.275676" xlink:href="#m5a7a08fba3" y="276.804324"/>
    </g>
   </g>
   <g id="line2d_29">
    <path clip-path="url(#p657de47ffc)" d="M 393.72973 220.501622 
" style="fill:none;stroke:#e377c2;stroke-linecap:square;stroke-width:1.5;"/>
    <defs>
     <path d="M -5 5 
L 5 5 
L 5 -5 
L -5 -5 
z
" id="m64197f19f1" style="stroke:#baee91;stroke-linejoin:miter;"/>
    </defs>
    <g clip-path="url(#p657de47ffc)">
     <use style="fill:#baee91;stroke:#baee91;stroke-linejoin:miter;" x="393.72973" xlink:href="#m64197f19f1" y="220.501622"/>
    </g>
   </g>
   <g id="line2d_30">
    <path clip-path="url(#p657de47ffc)" d="M 140.367568 276.804324 
" style="fill:none;stroke:#7f7f7f;stroke-linecap:square;stroke-width:1.5;"/>
    <defs>
     <path d="M 0 -5 
L -4.755283 -1.545085 
L -2.938926 4.045085 
L 2.938926 4.045085 
L 4.755283 -1.545085 
z
" id="m8a91553e42" style="stroke:#baee91;stroke-linejoin:miter;"/>
    </defs>
    <g clip-path="url(#p657de47ffc)">
     <use style="fill:#baee91;stroke:#baee91;stroke-linejoin:miter;" x="140.367568" xlink:href="#m8a91553e42" y="276.804324"/>
    </g>
   </g>
   <g id="line2d_31">
    <path clip-path="url(#p657de47ffc)" d="M 140.367568 136.047568 
" style="fill:none;stroke:#bcbd22;stroke-linecap:square;stroke-width:1.5;"/>
    <defs>
     <path d="M -5 5 
L 5 5 
L 5 -5 
L -5 -5 
z
" id="maadaa9cef2" style="stroke:#e2d277;stroke-linejoin:miter;"/>
    </defs>
    <g clip-path="url(#p657de47ffc)">
     <use style="fill:#e2d277;stroke:#e2d277;stroke-linejoin:miter;" x="140.367568" xlink:href="#maadaa9cef2" y="136.047568"/>
    </g>
   </g>
   <g id="line2d_32">
    <path clip-path="url(#p657de47ffc)" d="M 252.972973 248.652973 
" style="fill:none;stroke:#17becf;stroke-linecap:square;stroke-width:1.5;"/>
    <defs>
     <path d="M 0 -5 
L -4.755283 -1.545085 
L -2.938926 4.045085 
L 2.938926 4.045085 
L 4.755283 -1.545085 
z
" id="m32a7548d89" style="stroke:#e2d277;stroke-linejoin:miter;"/>
    </defs>
    <g clip-path="url(#p657de47ffc)">
     <use style="fill:#e2d277;stroke:#e2d277;stroke-linejoin:miter;" x="252.972973" xlink:href="#m32a7548d89" y="248.652973"/>
    </g>
   </g>
   <g id="line2d_33">
    <path clip-path="url(#p657de47ffc)" d="M 337.427027 164.198919 
" style="fill:none;stroke:#1f77b4;stroke-linecap:square;stroke-width:1.5;"/>
    <defs>
     <path d="M -5 5 
L 5 5 
L 5 -5 
L -5 -5 
z
" id="mdd5df0c302" style="stroke:#ffa95a;stroke-linejoin:miter;"/>
    </defs>
    <g clip-path="url(#p657de47ffc)">
     <use style="fill:#ffa95a;stroke:#ffa95a;stroke-linejoin:miter;" x="337.427027" xlink:href="#mdd5df0c302" y="164.198919"/>
    </g>
   </g>
   <g id="line2d_34">
    <path clip-path="url(#p657de47ffc)" d="M 168.518919 389.40973 
" style="fill:none;stroke:#ff7f0e;stroke-linecap:square;stroke-width:1.5;"/>
    <defs>
     <path d="M 0 -5 
L -4.755283 -1.545085 
L -2.938926 4.045085 
L 2.938926 4.045085 
L 4.755283 -1.545085 
z
" id="m488b58d871" style="stroke:#ffa95a;stroke-linejoin:miter;"/>
    </defs>
    <g clip-path="url(#p657de47ffc)">
     <use style="fill:#ffa95a;stroke:#ffa95a;stroke-linejoin:miter;" x="168.518919" xlink:href="#m488b58d871" y="389.40973"/>
    </g>
   </g>
   <g id="line2d_35">
    <path clip-path="url(#p657de47ffc)" d="M 196.67027 445.712432 
" style="fill:none;stroke:#2ca02c;stroke-linecap:square;stroke-width:1.5;"/>
    <defs>
     <path d="M -5 5 
L 5 5 
L 5 -5 
L -5 -5 
z
" id="m9fc9f82e03" style="stroke:#ff773d;stroke-linejoin:miter;"/>
    </defs>
    <g clip-path="url(#p657de47ffc)">
     <use style="fill:#ff773d;stroke:#ff773d;stroke-linejoin:miter;" x="196.67027" xlink:href="#m9fc9f82e03" y="445.712432"/>
    </g>
   </g>
   <g id="line2d_36">
    <path clip-path="url(#p657de47ffc)" d="M 393.72973 136.047568 
" style="fill:none;stroke:#d62728;stroke-linecap:square;stroke-width:1.5;"/>
    <defs>
     <path d="M 0 -5 
L -4.755283 -1.545085 
L -2.938926 4.045085 
L 2.938926 4.045085 
L 4.755283 -1.545085 
z
" id="m4d65e4c254" style="stroke:#ff773d;stroke-linejoin:miter;"/>
    </defs>
    <g clip-path="url(#p657de47ffc)">
     <use style="fill:#ff773d;stroke:#ff773d;stroke-linejoin:miter;" x="393.72973" xlink:href="#m4d65e4c254" y="136.047568"/>
    </g>
   </g>
   <g id="line2d_37">
    <path clip-path="url(#p657de47ffc)" d="M 224.821622 333.107027 
" style="fill:none;stroke:#9467bd;stroke-linecap:square;stroke-width:1.5;"/>
    <defs>
     <path d="M -5 5 
L 5 5 
L 5 -5 
L -5 -5 
z
" id="m602c9958af" style="stroke:#ff3d1f;stroke-linejoin:miter;"/>
    </defs>
    <g clip-path="url(#p657de47ffc)">
     <use style="fill:#ff3d1f;stroke:#ff3d1f;stroke-linejoin:miter;" x="224.821622" xlink:href="#m602c9958af" y="333.107027"/>
    </g>
   </g>
   <g id="line2d_38">
    <path clip-path="url(#p657de47ffc)" d="M 281.124324 164.198919 
" style="fill:none;stroke:#8c564b;stroke-linecap:square;stroke-width:1.5;"/>
    <defs>
     <path d="M 0 -5 
L -4.755283 -1.545085 
L -2.938926 4.045085 
L 2.938926 4.045085 
L 4.755283 -1.545085 
z
" id="m0e2249dbcc" style="stroke:#ff3d1f;stroke-linejoin:miter;"/>
    </defs>
    <g clip-path="url(#p657de47ffc)">
     <use style="fill:#ff3d1f;stroke:#ff3d1f;stroke-linejoin:miter;" x="281.124324" xlink:href="#m0e2249dbcc" y="164.198919"/>
    </g>
   </g>
   <g id="line2d_39">
    <path clip-path="url(#p657de47ffc)" d="M 281.124324 361.258378 
" style="fill:none;stroke:#e377c2;stroke-linecap:square;stroke-width:1.5;"/>
    <defs>
     <path d="M -5 5 
L 5 5 
L 5 -5 
L -5 -5 
z
" id="me5fbce2504" style="stroke:#ff0000;stroke-linejoin:miter;"/>
    </defs>
    <g clip-path="url(#p657de47ffc)">
     <use style="fill:#ff0000;stroke:#ff0000;stroke-linejoin:miter;" x="281.124324" xlink:href="#me5fbce2504" y="361.258378"/>
    </g>
   </g>
   <g id="line2d_40">
    <path clip-path="url(#p657de47ffc)" d="M 337.427027 276.804324 
" style="fill:none;stroke:#7f7f7f;stroke-linecap:square;stroke-width:1.5;"/>
    <defs>
     <path d="M 0 -5 
L -4.755283 -1.545085 
L -2.938926 4.045085 
L 2.938926 4.045085 
L 4.755283 -1.545085 
z
" id="mf17e5dff21" style="stroke:#ff0000;stroke-linejoin:miter;"/>
    </defs>
    <g clip-path="url(#p657de47ffc)">
     <use style="fill:#ff0000;stroke:#ff0000;stroke-linejoin:miter;" x="337.427027" xlink:href="#mf17e5dff21" y="276.804324"/>
    </g>
   </g>
   <g id="line2d_41"/>
   <g id="line2d_42">
    <path clip-path="url(#p657de47ffc)" d="M 92.108108 493.971892 
L 92.108108 87.788108 
" style="fill:none;stroke:#000000;stroke-linecap:square;stroke-width:4;"/>
   </g>
   <g id="line2d_43">
    <path clip-path="url(#p657de47ffc)" d="M 92.108108 87.788108 
L 498.291892 87.788108 
" style="fill:none;stroke:#000000;stroke-linecap:square;stroke-width:4;"/>
   </g>
   <g id="line2d_44">
    <path clip-path="url(#p657de47ffc)" d="M 498.291892 87.788108 
L 498.291892 493.971892 
" style="fill:none;stroke:#000000;stroke-linecap:square;stroke-width:4;"/>
   </g>
   <g id="line2d_45">
    <path clip-path="url(#p657de47ffc)" d="M 498.291892 493.971892 
L 92.108108 493.971892 
" style="fill:none;stroke:#000000;stroke-linecap:square;stroke-width:4;"/>
   </g>
   <g id="line2d_46">
    <path clip-path="url(#p657de47ffc)" d="M 140.367568 389.40973 
L 141.493622 389.40973 
L 144.027243 389.088 
L 146.279351 388.404324 
L 148.451027 387.479351 
L 150.783568 386.232649 
L 152.834595 384.985946 
L 156.775784 382.251243 
L 164.256 376.580757 
L 202.541838 345.895784 
L 211.510054 338.697081 
L 214.767568 336.123243 
L 216.295784 335.117838 
L 217.944649 334.192865 
L 219.673946 333.388541 
L 223.735784 331.860324 
L 227.676973 330.694054 
L 233.267027 329.326703 
L 238.092973 328.240865 
L 238.736432 328.160432 
L 239.983135 328.321297 
L 240.264649 328.482162 
L 240.707027 329.608216 
L 241.109189 331.779892 
L 241.028757 334.152649 
L 241.109189 334.554811 
L 240.867892 334.796108 
L 239.942919 335.077622 
L 239.138595 335.158054 
L 237.851676 334.916757 
L 237.48973 334.675459 
L 236.886486 334.112432 
L 236.484324 333.468973 
L 236.283243 332.624432 
L 236.283243 331.779892 
L 236.403892 330.975568 
L 236.765838 330.090811 
L 237.529946 328.763676 
L 239.500541 327.114811 
L 239.460324 327.155027 
L 239.379892 327.275676 
L 239.420108 326.431135 
L 239.219027 325.707243 
L 238.173405 323.334486 
L 238.092973 322.691027 
L 238.133189 321.80627 
L 238.294054 320.921514 
L 238.575568 320.076973 
L 239.339676 318.468324 
L 239.339676 318.468324 
L 239.701622 317.98573 
L 242.154811 315.251027 
L 242.516757 314.446703 
L 242.476541 314.124973 
L 242.154811 313.079351 
L 239.741838 308.896865 
L 238.615784 307.006703 
L 238.374486 306.282811 
L 238.213622 305.398054 
L 238.213622 303.347027 
L 238.656 301.014486 
L 239.580973 298.239568 
L 240.707027 295.66573 
L 242.959135 291.161514 
L 246.256865 285.008432 
L 246.297081 285.24973 
L 246.377514 285.330162 
L 246.096 285.169297 
L 245.050378 284.807351 
L 242.79827 284.60627 
L 241.068973 284.847568 
L 237.891892 285.491027 
L 236.363676 285.410595 
L 236.162595 285.209514 
L 236.00173 284.726919 
L 236.00173 283.721514 
L 236.403892 282.434595 
L 237.007135 281.388973 
L 237.932108 280.866162 
L 238.495135 280.665081 
L 239.299459 280.504216 
L 240.224432 280.464 
L 241.672216 280.584649 
L 241.672216 280.584649 
L 242.637405 280.986811 
L 243.683027 282.032432 
L 245.171027 285.209514 
L 244.92973 286.134486 
L 244.849297 286.777946 
L 244.768865 286.536649 
L 244.567784 286.416 
L 244.92973 286.496432 
L 246.096 286.416 
L 246.860108 286.416 
L 248.026378 286.657297 
L 249.514378 287.421405 
L 250.600216 288.22573 
L 250.519784 288.185514 
L 251.324108 288.265946 
L 252.409946 288.064865 
L 253.656649 287.501838 
L 254.018595 287.260541 
L 254.179459 287.260541 
L 254.621838 287.421405 
L 255.466378 288.064865 
L 255.466378 288.185514 
L 255.385946 287.984432 
L 255.144649 287.904 
L 255.546811 287.904 
L 256.552216 287.743135 
L 257.67827 287.340973 
L 258.040216 287.220324 
L 258.884757 287.260541 
L 260.171676 287.542054 
L 260.292324 287.542054 
L 260.131459 287.622486 
L 260.051027 287.702919 
L 260.332541 287.220324 
L 261.016216 285.410595 
L 261.056432 285.289946 
L 261.096649 285.410595 
L 261.257514 285.531243 
L 260.493405 285.370378 
L 258.241297 285.209514 
L 256.029405 285.732324 
L 254.139243 286.73773 
L 250.921946 288.949622 
L 250.439351 289.030054 
L 249.514378 289.07027 
L 248.428541 288.869189 
L 247.382919 288.467027 
L 246.41773 287.823568 
L 245.532973 286.979027 
L 244.849297 285.893189 
L 244.447135 284.847568 
L 244.246054 283.641081 
L 244.326486 283.359568 
L 244.92973 282.233514 
L 245.372108 281.63027 
L 246.538378 280.504216 
L 248.147027 279.337946 
L 248.830703 278.976 
L 249.876324 278.65427 
L 251.042595 278.533622 
L 253.053405 278.694486 
L 255.385946 279.257514 
L 257.718486 280.061838 
L 262.102054 282.112865 
L 268.898595 285.289946 
L 270.909405 286.054054 
L 272.88 286.456216 
L 273.644108 286.456216 
L 274.488649 286.335568 
L 275.292973 286.09427 
L 277.102703 285.24973 
L 279.193946 283.801946 
L 281.244973 281.791135 
L 282.12973 280.825946 
L 283.818811 278.372757 
L 285.186162 275.718486 
L 285.789405 274.109838 
L 287.156757 269.082811 
L 287.880649 267.112216 
L 288.845838 264.940541 
L 290.937081 261.160216 
L 292.264216 259.109189 
L 297.532541 252.071351 
L 302.599784 243.786811 
L 303.564973 241.896649 
L 304.409514 239.926054 
L 307.506162 231.480649 
L 308.350703 229.670919 
L 310.602811 225.528649 
L 312.935351 221.909189 
L 314.423351 219.978811 
L 316.192865 218.28973 
L 318.203676 216.882162 
L 320.053622 215.756108 
L 324.195892 213.785514 
L 329.222919 211.814919 
L 338.915027 208.637838 
L 389.547243 193.596973 
L 389.547243 193.596973 
" style="fill:none;stroke:#8000ff;stroke-linecap:square;stroke-width:1.5;"/>
   </g>
   <g id="line2d_47">
    <path clip-path="url(#p657de47ffc)" d="M 450.032432 192.35027 
L 450.233514 192.390486 
L 450.354162 192.551351 
L 450.515027 193.033946 
L 450.555243 194.240432 
L 450.153081 196.050162 
L 449.147676 198.101189 
L 447.780324 200.112 
L 446.010811 202.082595 
L 444.482595 203.570595 
L 440.782703 206.707459 
L 436.962162 209.683459 
L 427.028757 217.002811 
L 413.475892 226.654703 
L 402.818595 234.295784 
L 383.193081 248.250811 
L 381.544216 249.135568 
L 377.482378 250.261622 
L 374.586811 251.02573 
L 372.334703 251.950703 
L 370.163027 253.076757 
L 369.6 253.398486 
L 369.801081 253.157189 
L 369.760865 252.956108 
L 370.002162 253.197405 
L 370.726054 253.639784 
L 373.179243 254.00173 
L 374.064 254.403892 
L 374.828108 255.047351 
L 375.592216 255.932108 
L 376.356324 257.058162 
L 377.120432 258.626595 
L 377.723676 260.315676 
L 377.884541 261.763459 
L 377.643243 263.291676 
L 377.200865 264.41773 
L 376.557405 265.302486 
L 375.672649 265.986162 
L 375.471568 265.945946 
L 375.029189 265.543784 
L 374.144432 264.176432 
L 373.380324 262.125405 
L 373.179243 259.95373 
L 373.098811 255.650595 
L 373.219459 255.851676 
L 373.018378 255.690811 
L 371.972757 255.248432 
L 370.404324 254.966919 
L 369.92173 254.484324 
L 369.358703 253.599568 
L 369.157622 252.996324 
L 369.117405 252.312649 
L 369.318486 250.422486 
L 369.358703 250.543135 
L 368.876108 249.135568 
L 368.353297 248.04973 
L 367.388108 247.205189 
L 366.94573 246.923676 
L 365.618595 246.481297 
L 364.934919 246.320432 
L 364.050162 246.24 
L 362.320865 246.199784 
L 361.83827 245.717189 
L 360.99373 244.188973 
L 360.068757 240.891243 
L 360.068757 240.891243 
L 360.068757 240.770595 
L 360.108973 240.931459 
L 359.988324 240.770595 
L 359.184 240.167351 
L 357.977514 239.724973 
L 356.127568 239.282595 
L 352.266811 238.719568 
L 352.347243 238.719568 
L 349.974486 239.161946 
L 349.170162 238.47827 
L 347.28 236.507676 
L 346.395243 235.582703 
L 346.515892 235.019676 
L 347.078919 234.094703 
L 348.285405 232.848 
L 351.382054 230.998054 
L 352.025514 230.716541 
L 351.985297 230.716541 
L 352.266811 230.435027 
L 352.950486 229.349189 
L 353.392865 227.901405 
L 353.433081 227.056865 
L 353.312432 226.493838 
L 353.030919 225.810162 
L 352.387459 224.965622 
L 351.462486 224.322162 
L 349.612541 223.759135 
L 347.682162 223.59827 
L 344.947459 223.718919 
L 344.102919 223.879784 
L 342.49427 224.603676 
L 340.845405 225.930811 
L 338.633514 227.740541 
L 334.611892 230.636108 
L 334.491243 230.676324 
L 331.475027 230.877405 
L 329.222919 231.118703 
L 328.137081 231.561081 
L 327.372973 232.124108 
L 326.448 233.049081 
L 325.724108 234.054486 
L 324.839351 235.703351 
L 323.713297 238.920649 
L 323.311135 240.891243 
L 323.029622 240.931459 
L 322.265514 240.569514 
L 320.576432 239.363027 
L 317.560216 237.553297 
L 316.876541 237.231568 
L 317.077622 237.231568 
L 317.117838 237.191351 
L 316.192865 238.156541 
L 315.549405 239.202162 
L 314.021189 241.011892 
L 312.814703 242.178162 
L 311.487568 243.264 
L 309.315892 244.671568 
L 301.071568 249.336649 
L 295.079351 252.151784 
L 293.430486 252.875676 
L 293.551135 252.714811 
L 293.551135 252.634378 
L 293.671784 253.438703 
L 294.556541 255.731027 
L 295.923892 257.82227 
L 295.763027 258.304865 
L 295.119568 259.350486 
L 293.269622 261.039568 
L 291.339243 262.044973 
L 288.604541 263.010162 
L 288.08173 263.77427 
L 287.679568 264.699243 
L 287.398054 265.865514 
L 287.317622 267.554595 
L 287.558919 272.018595 
L 287.317622 272.903351 
L 286.231784 274.753297 
L 284.381838 276.442378 
L 282.491676 277.488 
L 278.630919 279.217297 
L 278.671135 279.217297 
L 277.746162 280.102054 
L 276.660324 281.791135 
L 275.856 283.962811 
L 274.68973 286.456216 
L 271.392 291.443027 
L 270.949622 292.488649 
L 270.708324 293.574486 
L 270.788757 294.901622 
L 271.753946 300.652541 
L 271.794162 301.939459 
L 271.472432 304.835027 
L 271.150703 306.121946 
L 270.668108 307.529514 
L 269.984432 308.896865 
L 269.019243 310.384865 
L 267.772541 311.752216 
L 266.244324 312.998919 
L 263.911784 314.406486 
L 257.597838 317.302054 
L 255.546811 318.508541 
L 253.817514 319.715027 
L 247.986162 324.420324 
L 242.114595 328.643027 
L 238.615784 331.498378 
L 236.886486 333.147243 
L 235.318054 334.956973 
L 234.111568 336.68627 
L 233.02573 338.496 
L 231.779027 340.828541 
L 229.929081 344.970811 
L 228.119351 349.716324 
L 225.907459 356.593297 
L 225.304216 358.644324 
L 225.304216 358.644324 
" style="fill:none;stroke:#583dfd;stroke-linecap:square;stroke-width:1.5;"/>
   </g>
   <g id="line2d_48">
    <path clip-path="url(#p657de47ffc)" d="M 402.175135 440.082162 
L 402.01427 440.122378 
L 401.933838 440.202811 
L 402.134919 439.921297 
L 402.456649 439.036541 
L 402.537081 437.87027 
L 402.134919 435.939892 
L 401.209946 433.526919 
L 400.164324 431.435676 
L 398.998054 429.384649 
L 395.177514 423.593514 
L 391.155892 417.882811 
L 382.951784 406.662486 
L 367.669622 385.951135 
L 351.703784 364.355027 
L 348.768 361.459459 
L 347.038703 359.730162 
L 344.022486 356.271568 
L 341.328 352.933622 
L 337.105297 347.383784 
L 334.249946 343.442595 
L 333.365189 342.035027 
L 332.560865 340.426378 
L 331.756541 338.335135 
L 330.670703 334.313514 
L 330.509838 332.383135 
L 330.630486 330.251676 
L 331.153297 327.959351 
L 332.681514 323.696432 
L 332.601081 322.771459 
L 332.118486 321.243243 
L 331.072865 319.554162 
L 329.504432 318.025946 
L 327.895784 316.980324 
L 325.683892 316.377081 
L 323.391568 316.457514 
L 321.461189 317.141189 
L 319.168865 318.548757 
L 317.962378 318.588973 
L 317.761297 318.468324 
L 317.479784 317.744432 
L 317.238486 316.658595 
L 317.19827 313.441297 
L 317.399351 312.958703 
L 317.922162 312.717405 
L 318.967784 312.596757 
L 320.214486 312.838054 
L 320.335135 312.998919 
L 320.375351 313.682595 
L 320.053622 315.653189 
L 319.450378 316.980324 
L 318.364541 318.347676 
L 317.158054 319.272649 
L 316.554811 319.312865 
L 315.549405 319.111784 
L 312.452757 317.422703 
L 312.492973 317.422703 
L 312.774486 317.261838 
L 312.854919 317.181405 
L 312.774486 317.784649 
L 313.015784 320.278054 
L 313.699459 321.80627 
L 313.538595 321.685622 
L 313.297297 321.645405 
L 313.176649 321.685622 
L 313.458162 321.524757 
L 314.624432 320.921514 
L 315.830919 320.519351 
L 318.646054 319.795459 
L 318.967784 318.991135 
L 319.008 319.071568 
L 318.646054 318.307459 
L 317.318919 316.457514 
L 317.560216 316.578162 
L 317.84173 316.457514 
L 317.922162 316.336865 
L 317.801514 316.940108 
L 318.083027 319.111784 
L 318.646054 320.438919 
L 319.209081 321.404108 
L 319.852541 322.208432 
L 319.731892 322.168216 
L 319.651459 322.168216 
L 319.973189 322.087784 
L 319.812324 322.208432 
L 320.294919 321.80627 
L 320.214486 321.967135 
L 320.214486 322.047568 
L 320.134054 321.685622 
L 319.812324 321.001946 
L 319.008 320.076973 
L 317.801514 319.111784 
L 316.715676 317.583568 
L 316.675459 317.261838 
L 317.077622 316.899892 
L 318.324324 316.417297 
L 319.731892 316.336865 
L 320.254703 316.457514 
L 320.737297 316.698811 
L 321.380757 317.382486 
L 321.823135 318.227027 
L 321.782919 318.428108 
L 319.892757 319.272649 
L 318.646054 319.393297 
L 317.479784 319.272649 
L 317.117838 318.790054 
L 316.554811 317.34227 
L 316.554811 316.618378 
L 317.439568 315.85427 
L 319.289514 314.929297 
L 320.656865 314.647784 
L 321.219892 314.969514 
L 322.225297 315.974919 
L 323.431784 318.066162 
L 323.874162 318.790054 
L 323.592649 318.669405 
L 323.431784 318.709622 
L 323.592649 318.588973 
L 324.115459 318.106378 
L 324.035027 318.307459 
L 324.075243 318.387892 
L 324.035027 318.227027 
L 323.713297 317.382486 
L 323.713297 317.382486 
L 323.190486 316.618378 
L 322.587243 315.411892 
L 322.506811 314.969514 
L 322.828541 314.768432 
L 323.431784 314.848865 
L 324.758919 315.452108 
L 326.729514 317.020541 
L 328.016432 318.709622 
L 329.142486 320.800865 
L 329.263135 321.605189 
L 329.263135 321.605189 
L 329.182703 321.685622 
L 329.182703 321.685622 
L 328.941405 321.80627 
L 328.700108 321.725838 
L 328.539243 321.524757 
L 328.619676 321.203027 
L 329.584865 320.358486 
L 331.515243 319.272649 
L 333.807568 318.468324 
L 336.904216 317.865081 
L 338.915027 317.824865 
L 341.328 318.428108 
L 343.499676 319.715027 
L 345.188757 321.524757 
L 346.515892 323.977946 
L 346.395243 323.817081 
L 346.314811 323.776865 
L 347.038703 323.93773 
L 348.084324 323.977946 
L 349.170162 323.696432 
L 350.376649 322.972541 
L 351.020108 322.369297 
L 352.146162 320.841081 
L 353.191784 318.709622 
L 354.036324 316.015135 
L 355.122162 311.631568 
L 355.765622 311.148973 
L 357.454703 310.666378 
L 359.988324 310.666378 
L 366.94573 312.154378 
L 366.825081 312.154378 
L 366.985946 312.073946 
L 367.347892 311.752216 
L 367.830486 311.148973 
L 368.43373 310.063135 
L 368.876108 308.615351 
L 369.197838 306.684973 
L 369.358703 302.663351 
L 370.484757 301.657946 
L 372.937946 300.371027 
L 376.396541 299.526486 
L 376.838919 298.722162 
L 377.241081 297.435243 
L 377.401946 295.384216 
L 377.200865 293.011459 
L 376.798703 290.960432 
L 376.074811 288.064865 
L 376.115027 287.944216 
L 376.838919 287.099676 
L 378.447568 285.732324 
L 381.664865 283.44 
L 381.664865 283.480216 
L 381.906162 283.11827 
L 382.227892 281.992216 
L 382.308324 281.228108 
L 382.107243 279.418378 
L 381.423568 277.367351 
L 380.699676 276.080432 
L 379.935568 275.115243 
L 379.050811 274.431568 
L 378.930162 274.391351 
L 379.091027 274.391351 
L 378.930162 274.431568 
L 377.964973 274.552216 
L 376.678054 274.431568 
L 374.868324 274.069622 
L 372.656432 273.426162 
L 370.364108 272.621838 
L 360.913297 268.761081 
L 358.580757 267.594811 
L 357.535135 266.911135 
L 356.328649 265.90573 
L 355.323243 264.819892 
L 354.116757 263.130811 
L 351.864649 258.827676 
L 350.899459 256.937514 
L 349.652757 254.926703 
L 348.204973 253.036541 
L 346.596324 251.307243 
L 340.925838 245.958486 
L 334.290162 238.960865 
L 330.791351 235.622919 
L 329.10227 234.336 
L 325.241514 232.003459 
L 321.219892 229.992649 
L 316.554811 227.941622 
L 309.597405 225.08627 
L 286.352432 216.037622 
L 279.636324 213.463784 
L 275.212541 211.69427 
L 273.081081 210.487784 
L 268.979027 207.431351 
L 266.968216 206.144432 
L 264.394378 204.777081 
L 259.970595 202.886919 
L 255.426162 201.238054 
L 246.256865 198.342486 
L 232.864865 194.521946 
L 227.91827 193.154595 
L 227.91827 193.154595 
" style="fill:none;stroke:#3177f8;stroke-linecap:square;stroke-width:1.5;"/>
   </g>
   <g id="line2d_49">
    <path clip-path="url(#p657de47ffc)" d="M 224.821622 136.047568 
L 225.625946 136.087784 
L 227.395459 136.409514 
L 229.728 137.334486 
L 231.819243 138.581189 
L 233.749622 140.069189 
L 235.760432 141.919135 
L 239.178811 145.739676 
L 243.481946 151.209081 
L 247.785081 157.040432 
L 272.437622 191.425297 
L 273.925622 193.033946 
L 273.764757 192.953514 
L 275.333189 192.873081 
L 276.901622 192.310054 
L 279.193946 191.224216 
L 282.210162 189.575351 
L 284.784 188.006919 
L 286.030703 187.081946 
L 287.840432 185.593946 
L 291.620757 183.020108 
L 293.712 181.773405 
L 297.814054 179.762595 
L 302.31827 177.912649 
L 306.661622 176.505081 
L 308.471351 175.98227 
L 310.482162 175.620324 
L 312.492973 175.379027 
L 313.860324 175.338811 
L 314.905946 175.419243 
L 316.313514 175.700757 
L 317.52 176.062703 
L 318.887351 176.62573 
L 321.66227 178.073514 
L 324.437189 179.963676 
L 328.659892 183.341838 
L 331.354378 185.674378 
L 335.335784 189.132973 
L 338.915027 191.747027 
L 340.604108 193.154595 
L 342.212757 194.964324 
L 343.459459 196.733838 
L 344.585514 198.624 
L 346.596324 203.047784 
L 348.325622 207.552 
L 351.904865 218.812541 
L 352.548324 221.426595 
L 353.272216 225.448216 
L 353.232 226.57427 
L 352.749405 228.263351 
L 352.06573 229.510054 
L 350.979892 230.917622 
L 349.451676 232.244757 
L 347.60173 233.491459 
L 344.022486 235.341405 
L 337.507459 238.277189 
L 336.944432 238.236973 
L 335.818378 237.794595 
L 334.812973 237.151135 
L 334.129297 236.950054 
L 331.314162 235.824 
L 329.625081 235.301189 
L 328.418595 235.059892 
L 326.407784 235.100108 
L 325.884973 235.260973 
L 324.96 235.703351 
L 323.472 236.226162 
L 320.254703 236.628324 
L 319.892757 236.668541 
L 319.490595 236.829405 
L 319.008 237.151135 
L 318.565622 237.63373 
L 318.083027 238.840216 
L 317.962378 239.684757 
L 317.881946 239.564108 
L 317.801514 239.483676 
L 318.163459 239.644541 
L 319.128649 239.644541 
L 319.571027 239.523892 
L 319.530811 239.523892 
L 322.104649 237.834811 
L 323.431784 236.588108 
L 323.914378 236.105514 
L 324.517622 236.185946 
L 324.758919 236.547892 
L 325.040432 237.110919 
L 325.241514 237.995676 
L 325.201297 239.161946 
L 324.678486 240.649946 
L 324.155676 241.534703 
L 323.79373 241.896649 
L 322.104649 242.781405 
L 320.496 243.183568 
L 314.262486 242.982486 
L 313.980973 242.620541 
L 313.659243 241.735784 
L 313.578811 240.328216 
L 313.940757 238.317405 
L 314.905946 235.824 
L 315.227676 235.743568 
L 315.468973 235.904432 
L 315.71027 236.467459 
L 315.911351 237.714162 
L 315.871135 238.317405 
L 315.589622 238.880432 
L 314.423351 240.207568 
L 312.895135 241.253189 
L 311.769081 241.735784 
L 310.763676 241.936865 
L 309.476757 241.977081 
L 307.988757 241.776 
L 306.299676 241.293405 
L 304.409514 240.448865 
L 302.358486 239.202162 
L 300.387892 237.754378 
L 298.377081 236.065297 
L 297.612973 235.904432 
L 296.326054 235.783784 
L 291.982703 235.984865 
L 291.701189 235.542486 
L 291.419676 234.65773 
L 291.459892 232.848 
L 292.264216 229.872 
L 292.585946 228.464432 
L 292.54573 227.740541 
L 292.344649 226.896 
L 291.942486 225.810162 
L 290.655568 223.799351 
L 289.087135 221.909189 
L 288.041514 220.903784 
L 287.076324 220.380973 
L 285.749189 219.938595 
L 285.186162 219.737514 
L 284.904649 219.375568 
L 284.542703 218.571243 
L 283.939459 216.600649 
L 283.215568 215.112649 
L 282.451459 213.664865 
L 282.371027 212.820324 
L 282.612324 212.257297 
L 283.215568 210.326919 
L 283.818811 207.391135 
L 284.220973 206.104216 
L 284.542703 204.696649 
L 284.784 203.248865 
L 284.864432 203.208649 
L 285.145946 203.208649 
L 286.191568 203.369514 
L 288.644757 204.415135 
L 291.138162 205.500973 
L 292.746811 206.104216 
L 294.154378 206.466162 
L 295.923892 206.627027 
L 300.025946 206.466162 
L 302.64 206.667243 
L 305.052973 207.029189 
L 307.42573 207.592216 
L 309.999568 208.436757 
L 312.492973 209.442162 
L 316.876541 211.613838 
L 320.536216 213.865946 
L 322.386162 215.514811 
L 324.195892 217.565838 
L 325.764324 219.737514 
L 328.177297 223.638486 
L 331.475027 229.791568 
L 335.014054 236.789189 
L 336.582486 239.202162 
L 337.547676 240.086919 
L 338.874811 240.891243 
L 340.403027 241.534703 
L 342.051892 241.977081 
L 344.102919 242.258595 
L 346.556108 242.339027 
L 350.778811 241.977081 
L 358.781838 241.052108 
L 360.712216 241.534703 
L 361.717622 241.977081 
L 363.607784 243.183568 
L 365.417514 244.752 
L 367.307676 246.883459 
L 369.358703 249.738811 
L 370.927135 251.830054 
L 373.903135 255.208216 
L 373.661838 255.087568 
L 373.460757 255.127784 
L 373.702054 254.966919 
L 374.064 254.484324 
L 374.747676 252.915892 
L 375.069405 250.864865 
L 375.029189 247.888865 
L 374.948757 244.953081 
L 375.069405 243.545514 
L 375.350919 241.977081 
L 376.115027 239.926054 
L 377.160649 238.035892 
L 377.482378 237.875027 
L 378.286703 237.63373 
L 379.533405 237.63373 
L 381.222486 237.955459 
L 383.152865 238.759784 
L 386.008216 240.448865 
L 388.019027 241.856432 
L 389.225514 243.223784 
L 389.788541 244.108541 
L 390.633081 246.038919 
L 391.276541 248.250811 
L 391.59827 250.422486 
L 391.718919 252.835459 
L 391.638486 254.041946 
L 391.477622 255.007135 
L 391.477622 255.007135 
L 390.914595 255.690811 
L 390.592865 256.052757 
L 389.547243 256.736432 
L 388.059243 257.219027 
L 386.691892 257.379892 
L 381.142054 257.379892 
L 379.975784 257.540757 
L 378.809514 257.82227 
L 376.356324 258.827676 
L 374.908541 259.672216 
L 373.621622 260.838486 
L 373.219459 261.321081 
L 372.455351 262.688432 
L 372.093405 263.653622 
L 371.530378 265.986162 
L 371.248865 268.600216 
L 371.208649 271.938162 
L 371.892324 288.627892 
L 372.455351 293.654919 
L 373.259676 298.400432 
L 374.144432 303.10573 
L 374.586811 308.172973 
L 374.787892 312.717405 
L 374.948757 314.889081 
L 375.310703 317.221622 
L 375.913946 319.795459 
L 377.281297 324.138811 
L 378.84973 328.40173 
L 382.509405 337.008 
L 392.603676 358.925838 
L 392.603676 358.925838 
" style="fill:none;stroke:#0aa9ee;stroke-linecap:square;stroke-width:1.5;"/>
   </g>
   <g id="line2d_50">
    <path clip-path="url(#p657de47ffc)" d="M 450.032432 304.955676 
L 449.831351 304.995892 
L 449.670486 305.317622 
L 449.590054 304.955676 
L 449.228108 304.191568 
L 448.504216 303.467676 
L 447.056432 302.663351 
L 445.16627 301.818811 
L 440.621838 300.330811 
L 435.474162 298.963459 
L 426.304865 296.872216 
L 376.115027 286.335568 
L 375.753081 286.335568 
L 375.23027 286.496432 
L 374.586811 286.818162 
L 373.74227 287.461622 
L 373.098811 288.145297 
L 372.294486 289.351784 
L 370.484757 292.488649 
L 369.841297 294.660324 
L 368.795676 304.915459 
L 367.951135 308.494703 
L 367.79027 308.977297 
L 367.347892 309.540324 
L 367.106595 309.701189 
L 366.503351 309.862054 
L 366.060973 309.781622 
L 365.45773 309.500108 
L 364.251243 308.494703 
L 364.090378 308.172973 
L 364.130595 307.971892 
L 364.653405 307.127351 
L 366.382703 305.478486 
L 368.272865 304.432865 
L 369.559784 303.869838 
L 370.323892 303.226378 
L 371.248865 302.180757 
L 372.89773 300.773189 
L 374.627027 299.888432 
L 376.517189 299.325405 
L 376.396541 299.446054 
L 376.356324 299.526486 
L 376.597622 298.239568 
L 376.758486 297.033081 
L 376.758486 294.620108 
L 376.637838 294.057081 
L 376.074811 292.488649 
L 376.235676 291.885405 
L 376.758486 290.759351 
L 377.482378 289.834378 
L 378.447568 289.110486 
L 380.136649 288.547459 
L 381.142054 288.185514 
L 382.026811 287.501838 
L 382.630054 286.657297 
L 383.555027 284.807351 
L 384.399568 282.635676 
L 384.80173 280.986811 
L 384.962595 279.337946 
L 384.841946 278.010811 
L 384.359351 276.482595 
L 383.555027 274.873946 
L 382.790919 273.747892 
L 382.790919 273.788108 
L 381.584432 272.581622 
L 381.101838 272.219676 
L 379.774703 271.576216 
L 378.608432 271.254486 
L 378.045405 271.013189 
L 377.964973 270.892541 
L 377.844324 270.007784 
L 377.884541 269.927351 
L 378.20627 269.605622 
L 379.010595 269.123027 
L 378.84973 269.283892 
L 378.84973 268.198054 
L 378.608432 267.273081 
L 378.166054 266.267676 
L 377.36173 265.020973 
L 375.270486 262.406919 
L 375.632432 261.481946 
L 376.879135 259.792865 
L 378.20627 258.707027 
L 379.895351 257.621189 
L 379.855135 257.741838 
L 379.774703 256.776649 
L 379.533405 256.294054 
L 379.211676 255.891892 
L 378.648649 255.409297 
L 377.281297 254.604973 
L 375.954162 254.00173 
L 374.868324 253.639784 
L 373.460757 253.35827 
L 372.012973 253.237622 
L 368.675027 253.197405 
L 368.473946 253.036541 
L 368.353297 252.674595 
L 368.313081 251.990919 
L 368.876108 249.336649 
L 369.036973 248.733405 
L 369.036973 248.934486 
L 368.634811 248.291027 
L 368.232649 247.888865 
L 366.865297 247.004108 
L 364.81427 246.24 
L 362.803459 245.757405 
L 362.521946 245.315027 
L 362.119784 244.349838 
L 361.918703 243.143351 
L 361.999135 240.971676 
L 362.079568 239.001081 
L 362.119784 239.041297 
L 361.476324 237.794595 
L 361.033946 237.231568 
L 359.666595 236.105514 
L 358.701405 235.542486 
L 356.489514 234.617514 
L 349.974486 232.767568 
L 346.11373 232.083892 
L 340.483459 231.762162 
L 337.909622 231.721946 
L 333.284757 231.963243 
L 329.062054 232.365405 
L 327.051243 232.606703 
L 325.362162 232.727351 
L 323.632865 232.727351 
L 319.932973 232.325189 
L 316.675459 231.721946 
L 315.509189 231.118703 
L 313.458162 229.872 
L 312.050595 229.228541 
L 310.321297 228.625297 
L 308.511568 228.182919 
L 306.339892 227.901405 
L 303.082378 227.861189 
L 300.508541 228.102486 
L 297.733622 228.585081 
L 295.923892 229.067676 
L 294.03373 229.711135 
L 291.701189 230.636108 
L 289.489297 231.923027 
L 287.116541 233.451243 
L 285.910054 233.933838 
L 284.542703 234.175135 
L 283.61773 234.175135 
L 282.773189 234.054486 
L 281.606919 233.732757 
L 279.99827 232.848 
L 278.108108 231.601297 
L 276.057081 230.435027 
L 269.984432 227.418811 
L 267.450811 225.971027 
L 258.32173 220.139676 
L 255.948973 218.892973 
L 254.018595 218.008216 
L 252.048 217.244108 
L 249.795892 216.520216 
L 247.463351 215.957189 
L 245.372108 215.595243 
L 242.717838 215.273514 
L 240.586378 215.152865 
L 235.800649 215.233297 
L 233.427892 215.434378 
L 230.773622 215.796324 
L 225.827027 216.80173 
L 223.574919 217.445189 
L 221.202162 218.571243 
L 219.191351 219.858162 
L 217.542486 221.145081 
L 215.772973 222.75373 
L 212.877405 225.850378 
L 210.142703 229.148108 
L 207.247135 232.968649 
L 204.271135 237.110919 
L 198.882162 245.113946 
L 198.882162 245.113946 
" style="fill:none;stroke:#1dd2e2;stroke-linecap:square;stroke-width:1.5;"/>
   </g>
   <g id="line2d_51">
    <path clip-path="url(#p657de47ffc)" d="M 140.367568 248.652973 
L 144.348973 248.733405 
L 149.174919 249.014919 
L 158.545297 249.899676 
L 203.024432 254.926703 
L 205.718919 255.127784 
L 207.367784 255.047351 
L 209.056865 254.645189 
L 210.544865 254.122378 
L 213.199135 253.036541 
L 215.732757 252.232216 
L 218.266378 251.588757 
L 221.202162 250.985514 
L 223.253189 250.864865 
L 224.379243 251.02573 
L 225.183568 251.267027 
L 226.068324 251.910486 
L 227.194378 253.478919 
L 228.038919 255.48973 
L 228.56173 257.942919 
L 228.803027 259.873297 
L 228.803027 262.326486 
L 228.280216 265.986162 
L 228.159568 270.611027 
L 228.56173 272.822919 
L 229.728 275.798919 
L 230.170378 276.522811 
L 232.543135 279.378162 
L 236.041946 282.716108 
L 237.087568 284.405189 
L 238.133189 286.335568 
L 238.656 287.019243 
L 240.184216 288.467027 
L 241.430919 289.351784 
L 243.401514 290.397405 
L 245.613405 291.20173 
L 247.90573 291.764757 
L 250.519784 292.086486 
L 254.662054 292.408216 
L 256.592432 292.729946 
L 260.976 293.815784 
L 262.464 294.298378 
L 262.343351 294.298378 
L 262.986811 293.936432 
L 264.313946 292.68973 
L 265.600865 290.518054 
L 266.083459 288.306162 
L 266.083459 288.185514 
L 266.284541 287.863784 
L 267.008432 287.099676 
L 267.852973 286.536649 
L 268.73773 286.174703 
L 270.989838 285.812757 
L 271.633297 285.812757 
L 271.794162 286.054054 
L 271.794162 286.858378 
L 271.271351 288.828973 
L 269.904 291.603892 
L 269.904 291.483243 
L 269.743135 291.322378 
L 270.306162 291.483243 
L 271.753946 291.523459 
L 273.764757 291.040865 
L 275.413622 290.357189 
L 275.292973 290.518054 
L 275.292973 290.719135 
L 275.212541 290.518054 
L 274.890811 289.633297 
L 274.729946 288.145297 
L 275.051676 286.295351 
L 275.292973 286.09427 
L 275.856 286.174703 
L 276.941838 286.73773 
L 278.550486 288.22573 
L 279.917838 290.196324 
L 280.802595 292.408216 
L 280.722162 293.856 
L 280.400432 295.826595 
L 279.676541 297.716757 
L 279.676541 297.596108 
L 279.676541 298.118919 
L 279.555892 299.727568 
L 279.033081 301.859027 
L 279.515676 303.869838 
L 279.555892 305.196973 
L 279.193946 307.046919 
L 278.711351 308.172973 
L 278.51027 308.213189 
L 278.067892 308.092541 
L 276.700541 307.368649 
L 275.091892 305.920865 
L 273.804973 303.749189 
L 273.20173 301.336216 
L 273.282162 298.842811 
L 273.925622 296.429838 
L 275.132108 293.373405 
L 274.649514 292.126703 
L 274.448432 290.316973 
L 274.569081 288.788757 
L 274.931027 287.823568 
L 275.614703 286.898595 
L 276.700541 286.013838 
L 277.504865 285.692108 
L 277.504865 285.732324 
L 277.545081 285.732324 
L 278.389622 286.174703 
L 279.314595 287.019243 
L 279.797189 287.662703 
L 280.440649 288.828973 
L 281.647135 290.236541 
L 283.014486 291.241946 
L 284.582919 291.845189 
L 286.875243 292.287568 
L 289.529514 292.408216 
L 291.379459 292.408216 
L 291.500108 292.609297 
L 292.022919 293.494054 
L 292.384865 293.856 
L 293.712 294.579892 
L 294.757622 294.941838 
L 297.612973 295.504865 
L 299.261838 295.786378 
L 300.790054 296.309189 
L 301.835676 296.952649 
L 303.444324 298.199351 
L 304.972541 300.049297 
L 306.661622 302.381838 
L 307.787676 303.588324 
L 309.114811 304.835027 
L 309.155027 305.237189 
L 308.873514 306.403459 
L 307.747459 308.132757 
L 306.179027 309.500108 
L 306.299676 309.258811 
L 306.380108 310.264216 
L 306.540973 310.746811 
L 306.943135 311.470703 
L 307.988757 312.636973 
L 309.315892 313.602162 
L 310.723459 314.205405 
L 310.723459 314.205405 
L 315.629838 316.256432 
L 318.847135 317.865081 
L 319.892757 318.387892 
L 321.018811 318.307459 
L 321.702486 318.106378 
L 322.587243 317.704216 
L 323.431784 317.060757 
L 324.356757 316.135784 
L 324.879568 315.452108 
L 324.879568 315.452108 
L 325.683892 314.929297 
L 326.76973 314.446703 
L 327.936 314.165189 
L 329.263135 314.084757 
L 331.193514 314.285838 
L 333.003243 314.567351 
L 335.979243 315.210811 
L 345.912649 316.779243 
L 349.612541 317.784649 
L 350.899459 317.905297 
L 351.703784 317.824865 
L 353.513514 317.34227 
L 355.725405 316.417297 
L 358.942703 314.567351 
L 365.095784 310.54573 
L 370.967351 306.282811 
L 375.793297 302.944865 
L 379.251892 300.893838 
L 381.785514 299.647135 
L 386.088649 297.837405 
L 392.442811 295.504865 
L 393.890595 294.780973 
L 395.418811 293.856 
L 396.665514 292.890811 
L 397.912216 291.724541 
L 399.118703 290.236541 
L 399.882811 289.030054 
L 400.365405 287.180108 
L 400.486054 285.048649 
L 400.204541 283.037838 
L 399.601297 281.027027 
L 398.716541 279.136865 
L 397.389405 277.206486 
L 397.389405 277.206486 
" style="fill:none;stroke:#45eed2;stroke-linecap:square;stroke-width:1.5;"/>
   </g>
   <g id="line2d_52">
    <path clip-path="url(#p657de47ffc)" d="M 281.124324 192.35027 
L 281.446054 192.390486 
L 282.250378 192.712216 
L 283.215568 193.556757 
L 284.100324 194.843676 
L 284.944865 196.975135 
L 285.548108 199.347892 
L 285.95027 201.760865 
L 286.191568 204.173838 
L 286.312216 206.586811 
L 286.392649 209.04 
L 286.392649 211.452973 
L 286.392649 213.584432 
L 286.352432 215.715892 
L 286.272 218.169081 
L 286.191568 220.582054 
L 286.111135 222.713514 
L 286.030703 225.126486 
L 285.910054 227.780757 
L 285.829622 229.952432 
L 285.708973 232.365405 
L 285.628541 234.496865 
L 285.507892 236.909838 
L 285.427459 239.041297 
L 285.306811 241.45427 
L 285.226378 243.867243 
L 285.10573 246.280216 
L 284.985081 248.693189 
L 284.864432 251.106162 
L 284.784 253.519135 
L 284.663351 255.811459 
L 284.784 258.103784 
L 285.145946 260.355892 
L 285.668757 262.406919 
L 286.432865 264.699243 
L 287.478486 267.112216 
L 288.524108 269.324108 
L 289.56973 271.455568 
L 290.655568 273.667459 
L 291.620757 275.879351 
L 292.465297 278.211892 
L 292.947892 280.624865 
L 292.947892 283.11827 
L 292.425081 285.692108 
L 291.942486 287.743135 
L 291.299027 290.357189 
L 290.736 292.729946 
L 290.172973 295.062486 
L 289.690378 297.15373 
L 289.046919 299.767784 
L 288.483892 302.100324 
L 288.001297 304.191568 
L 287.478486 306.282811 
L 286.995892 308.374054 
L 286.513297 310.425081 
L 285.95027 312.797838 
L 285.306811 315.411892 
L 284.904649 317.261838 
L 284.582919 318.709622 
L 284.261189 319.956324 
L 283.818811 321.363892 
L 283.296 322.811676 
L 282.652541 324.339892 
L 281.928649 325.908324 
L 281.124324 327.516973 
L 280.32 329.004973 
" style="fill:none;stroke:#6cfdbf;stroke-linecap:square;stroke-width:1.5;"/>
   </g>
   <g id="line2d_53">
    <path clip-path="url(#p657de47ffc)" d="M 140.367568 304.955676 
L 141.654486 304.955676 
L 144.59027 304.835027 
L 146.440216 304.714378 
L 148.812973 304.432865 
L 151.225946 304.151351 
L 153.880216 303.789405 
L 156.252973 303.427459 
L 158.907243 302.985081 
L 161.28 302.623135 
L 163.652757 302.220973 
L 165.784216 301.859027 
L 167.875459 301.497081 
L 170.006919 301.135135 
L 172.098162 300.773189 
L 174.229622 300.371027 
L 176.320865 300.009081 
L 178.693622 299.606919 
L 181.106595 299.204757 
L 183.720649 298.722162 
L 185.852108 298.360216 
L 187.943351 297.99827 
L 190.356324 297.596108 
L 192.729081 297.15373 
L 195.343135 296.711351 
L 197.193081 296.389622 
L 199.847351 295.907027 
L 201.978811 295.545081 
L 204.11027 295.223351 
L 206.603676 295.183135 
L 209.016649 295.384216 
L 210.947027 295.66573 
L 212.274162 295.987459 
L 213.601297 296.309189 
L 215.089297 296.590703 
L 217.019676 296.952649 
L 218.789189 297.274378 
L 220.357622 297.555892 
L 221.885838 297.797189 
L 223.373838 298.038486 
L 224.741189 298.601514 
L 225.625946 299.124324 
L 226.792216 299.848216 
L 227.797622 300.491676 
L 229.325838 300.97427 
L 231.457297 301.014486 
L 233.749622 300.491676 
L 235.921297 299.526486 
L 237.771243 298.521081 
L 239.580973 297.395027 
L 241.591784 296.067892 
L 243.562378 294.700541 
L 245.573189 293.373405 
L 247.342703 292.166919 
L 249.353514 290.799568 
L 251.364324 289.472432 
L 253.375135 288.145297 
L 255.466378 286.938811 
L 258 285.893189 
L 260.453189 285.491027 
L 263.147676 285.370378 
L 265.399784 285.330162 
L 267.933405 284.847568 
L 269.944216 284.123676 
L 272.276757 283.399784 
L 274.850595 282.675892 
L 277.223351 282.112865 
L 279.596108 281.63027 
L 281.968865 281.147676 
L 284.060108 280.745514 
L 286.392649 280.383568 
L 289.046919 280.343351 
L 291.258811 280.584649 
L 293.913081 281.027027 
L 296.285838 281.63027 
L 298.336865 282.233514 
L 300.186811 282.756324 
L 301.715027 283.279135 
L 302.559568 283.520432 
L 303.243243 283.681297 
L 303.766054 283.681297 
L 304.409514 283.600865 
L 305.254054 283.359568 
L 306.339892 282.756324 
L 307.586595 281.670486 
L 308.833297 280.061838 
" style="fill:none;stroke:#93fda9;stroke-linecap:square;stroke-width:1.5;"/>
   </g>
   <g id="line2d_54">
    <path clip-path="url(#p657de47ffc)" d="M 393.72973 220.501622 
L 393.971027 220.582054 
L 394.091676 220.823351 
L 394.051459 221.386378 
L 393.769946 222.230919 
L 393.287351 222.995027 
L 392.080865 224.201514 
L 390.070054 225.528649 
L 387.938595 226.57427 
L 385.927784 227.378595 
L 381.544216 228.745946 
L 375.029189 230.354595 
L 365.055568 232.486054 
L 346.395243 236.185946 
L 342.092108 237.070703 
L 340.523676 237.513081 
L 337.708541 238.598919 
L 336.381405 238.357622 
L 333.847784 237.392432 
L 331.877189 236.467459 
L 327.533838 234.054486 
L 325.884973 233.612108 
L 322.024216 232.767568 
L 320.737297 232.767568 
L 319.932973 232.52627 
L 318.967784 232.083892 
L 318.042811 231.480649 
L 317.117838 230.354595 
L 316.192865 228.786162 
L 314.342919 225.287351 
L 312.372324 222.070054 
L 311.487568 221.185297 
L 310.240865 220.461405 
L 308.109405 219.77773 
L 301.634595 218.892973 
L 299.261838 218.892973 
L 296.929297 219.174486 
L 289.56973 220.461405 
L 287.156757 220.62227 
L 282.934054 220.501622 
L 282.089514 220.380973 
L 281.043892 220.099459 
L 279.837405 219.616865 
L 277.464649 218.28973 
L 276.217946 217.404973 
L 273.563676 215.072432 
L 269.260541 210.769297 
L 266.003027 207.552 
L 264.233514 205.903135 
L 262.544432 204.495568 
L 260.895568 203.530378 
L 258.723892 202.645622 
L 256.672865 202.163027 
L 254.863135 202.122811 
L 252.812108 202.404324 
L 250.519784 203.007568 
L 248.307892 203.811892 
L 246.216649 204.696649 
L 243.924324 205.500973 
L 239.701622 206.466162 
L 232.864865 207.712865 
L 230.854054 208.316108 
L 228.642162 209.200865 
L 226.510703 210.286703 
L 222.408649 212.780108 
L 216.738162 216.80173 
L 207.166703 224.121081 
L 142.740324 274.914162 
L 142.740324 274.914162 
" style="fill:none;stroke:#baee91;stroke-linecap:square;stroke-width:1.5;"/>
   </g>
   <g id="line2d_55">
    <path clip-path="url(#p657de47ffc)" d="M 140.367568 136.047568 
L 141.171892 136.047568 
L 143.222919 136.288865 
L 145.515243 137.012757 
L 147.324973 137.897514 
L 149.174919 138.983351 
L 151.18573 140.350703 
L 153.075892 141.878919 
L 155.086703 143.648432 
L 156.856216 145.297297 
L 158.585514 146.986378 
L 160.274595 148.715676 
L 161.802811 150.243892 
L 163.451676 151.973189 
L 165.140757 153.742703 
L 166.950486 155.713297 
L 168.800432 157.643676 
L 170.248216 159.212108 
L 172.259027 161.383784 
L 173.907892 163.153297 
L 175.556757 164.922811 
L 177.366486 166.893405 
L 179.015351 168.662919 
L 180.624 170.432432 
L 182.112 172.000865 
L 183.559784 173.569297 
L 185.369514 175.539892 
L 187.018378 177.309405 
L 188.667243 179.078919 
L 190.275892 180.848432 
L 191.924757 182.617946 
L 193.573622 184.387459 
L 195.222486 186.156973 
L 196.67027 187.765622 
L 198.681081 189.897081 
L 200.28973 191.666595 
L 201.938595 193.476324 
L 203.587459 195.245838 
L 205.397189 197.176216 
L 207.046054 198.985946 
L 208.493838 200.554378 
L 210.303568 202.524973 
L 211.952432 204.294486 
L 213.762162 206.265081 
L 215.209946 207.833514 
L 217.059892 209.804108 
L 218.869622 211.774703 
L 220.196757 213.142054 
L 221.684757 214.428973 
L 223.414054 215.675676 
L 224.94227 216.640865 
L 226.752 217.64627 
L 227.958486 218.28973 
L 228.682378 218.651676 
L 229.245405 218.933189 
L 229.929081 219.335351 
L 230.572541 219.657081 
L 231.135568 220.019027 
L 232.181189 220.742919 
L 233.267027 221.788541 
L 234.433297 223.397189 
L 235.599568 225.810162 
L 236.363676 227.941622 
L 236.84627 229.429622 
L 237.48973 231.199135 
L 238.092973 232.727351 
L 238.857081 234.01427 
L 240.063568 235.421838 
L 241.511351 236.708757 
L 243.44173 238.035892 
L 245.492757 239.282595 
L 247.624216 240.368432 
L 249.795892 241.534703 
L 251.766486 243.022703 
L 253.455568 244.832432 
" style="fill:none;stroke:#e2d277;stroke-linecap:square;stroke-width:1.5;"/>
   </g>
   <g id="line2d_56">
    <path clip-path="url(#p657de47ffc)" d="M 337.427027 164.198919 
L 337.587892 164.239135 
L 338.03027 164.802162 
L 338.311784 165.686919 
L 338.352 166.853189 
L 337.949838 168.421622 
L 337.024865 170.633514 
L 334.732541 174.614919 
L 330.952216 180.164757 
L 322.707892 191.103568 
L 311.366919 205.702054 
L 302.157405 217.686486 
L 301.433514 219.13427 
L 300.790054 220.823351 
L 299.744432 224.201514 
L 299.462919 224.483027 
L 298.256432 225.206919 
L 295.602162 226.172108 
L 294.958703 226.57427 
L 294.355459 227.177514 
L 293.712 228.142703 
L 293.028324 229.711135 
L 292.384865 232.486054 
L 292.183784 234.858811 
L 292.103351 234.65773 
L 294.275027 236.14573 
L 295.159784 237.312 
L 296.527135 238.679351 
L 298.658595 240.127135 
L 298.940108 240.569514 
L 299.382486 242.017297 
L 299.302054 244.792216 
L 298.698811 246.762811 
L 297.733622 248.854054 
L 296.688 250.784432 
L 294.476108 254.122378 
L 292.425081 256.615784 
L 291.339243 257.379892 
L 289.368649 258.304865 
L 284.502486 260.074378 
L 282.330811 260.79827 
L 281.928649 260.959135 
L 280.722162 261.602595 
L 278.872216 262.406919 
L 275.252757 263.613405 
L 273.563676 263.975351 
L 272.839784 264.297081 
L 271.351784 265.624216 
L 269.904 267.39373 
L 268.938811 268.962162 
L 268.295351 270.812108 
L 268.013838 272.380541 
L 267.933405 272.139243 
L 267.732324 272.018595 
L 267.651892 272.018595 
L 268.657297 271.737081 
L 270.869189 270.611027 
L 272.839784 269.404541 
L 275.051676 268.399135 
L 279.15373 267.474162 
L 283.456865 266.066595 
L 289.127351 263.653622 
L 289.690378 263.291676 
L 290.293622 262.648216 
L 290.575135 261.683027 
L 290.776216 259.672216 
L 290.374054 257.420108 
L 289.408865 255.409297 
L 288.282811 253.599568 
L 286.915459 251.628973 
L 283.778595 247.687784 
L 282.411243 246.079135 
L 281.566703 244.510703 
L 281.767784 244.752 
L 280.963459 244.470486 
L 280.400432 244.349838 
L 279.033081 244.390054 
L 277.866811 244.711784 
L 276.780973 245.234595 
L 276.217946 245.676973 
L 276.338595 245.475892 
L 276.298378 245.274811 
L 276.217946 245.194378 
L 276.378811 245.315027 
L 277.303784 245.596541 
L 279.515676 245.837838 
L 281.767784 245.516108 
L 283.577514 245.797622 
L 285.829622 245.556324 
L 287.317622 244.953081 
L 287.277405 245.07373 
L 287.43827 244.108541 
L 287.196973 242.09773 
L 287.357838 242.218378 
L 287.156757 242.178162 
L 286.151351 242.178162 
L 285.266595 241.776 
L 283.818811 240.489081 
L 282.572108 238.598919 
L 282.049297 237.030486 
L 281.928649 235.663135 
L 281.968865 232.043676 
L 281.566703 225.850378 
L 281.204757 223.59827 
L 280.521081 221.145081 
L 279.716757 218.973405 
L 278.550486 216.962595 
L 277.464649 215.474595 
L 275.292973 213.18227 
L 273.684324 211.734486 
L 271.190919 209.683459 
L 265.882378 205.943351 
L 264.716108 205.500973 
L 262.705297 205.460757 
L 260.694486 205.822703 
L 258.402162 206.546595 
L 256.069622 207.149838 
L 253.938162 207.350919 
L 251.484973 207.350919 
L 242.034162 206.425946 
L 240.908108 206.546595 
L 239.661405 206.988973 
L 237.972324 208.115027 
L 236.283243 209.723676 
L 234.795243 211.573622 
L 232.221405 215.31373 
L 230.934486 216.681081 
L 229.366054 217.968 
L 226.993297 219.295135 
L 224.741189 220.220108 
L 220.076108 221.667892 
L 217.50227 222.472216 
L 215.451243 223.397189 
L 213.802378 224.483027 
L 212.032865 226.292757 
L 210.745946 228.223135 
L 209.619892 230.314378 
L 208.735135 232.244757 
L 207.126486 236.748973 
L 205.196108 243.183568 
L 202.903784 251.709405 
L 169.443892 385.669622 
L 169.443892 385.669622 
" style="fill:none;stroke:#ffa95a;stroke-linecap:square;stroke-width:1.5;"/>
   </g>
   <g id="line2d_57">
    <path clip-path="url(#p657de47ffc)" d="M 196.67027 445.712432 
L 197.273514 445.672216 
L 198.520216 445.430919 
L 200.531027 444.666811 
L 202.260324 443.621189 
L 203.868973 442.294054 
L 205.59827 440.645189 
L 208.534054 437.226811 
L 211.188324 433.526919 
L 214.727351 428.178162 
L 227.435676 407.667892 
L 242.396108 383.216432 
L 246.136216 377.304649 
L 247.90573 375.293838 
L 249.675243 373.685189 
L 251.806703 372.036324 
L 256.512 368.899459 
L 262.262919 365.400649 
L 274.207135 358.322595 
L 275.896216 357.598703 
L 279.797189 356.352 
L 284.542703 355.346595 
L 286.955676 354.984649 
L 290.253405 354.984649 
L 294.435892 355.587892 
L 299.060757 356.352 
L 303.203027 357.437838 
L 307.546378 358.724757 
L 311.286486 359.64973 
L 311.809297 359.569297 
L 313.096216 359.046486 
L 313.860324 358.644324 
L 315.830919 357.276973 
L 317.721081 356.311784 
L 319.932973 355.668324 
L 322.627459 355.105297 
L 323.833946 354.662919 
L 326.327351 353.335784 
L 329.303351 351.284757 
L 332.480432 348.630486 
L 336.944432 344.448 
L 345.027892 336.444973 
L 347.762595 333.830919 
L 353.795027 328.40173 
L 354.760216 326.592 
L 354.760216 326.632216 
L 354.800432 325.345297 
L 354.639568 324.299676 
L 353.513514 320.479135 
L 353.593946 319.071568 
L 353.593946 319.071568 
L 354.156973 317.905297 
L 357.334054 314.567351 
L 357.856865 314.124973 
L 358.982919 314.004324 
L 360.913297 314.165189 
L 361.516541 314.004324 
L 362.521946 313.401081 
L 363.96973 311.913081 
L 364.733838 310.746811 
L 365.296865 309.017514 
L 365.45773 308.534919 
L 365.618595 308.41427 
L 366.784865 308.333838 
L 367.428324 308.41427 
L 368.715243 308.856649 
L 370.565189 309.90227 
L 373.058595 311.591351 
L 373.500973 311.591351 
L 374.787892 311.269622 
L 376.275892 310.505514 
L 377.844324 309.178378 
L 379.211676 307.529514 
L 380.579027 305.277405 
L 382.871351 300.732973 
L 383.997405 299.566703 
L 386.048432 298.32 
L 388.783135 297.193946 
L 391.759135 296.309189 
L 393.247135 295.947243 
L 393.890595 295.66573 
L 394.855784 294.861405 
L 395.941622 293.373405 
L 397.349189 290.357189 
L 398.475243 287.662703 
L 403.100108 278.453189 
L 407.041297 270.570811 
L 410.09773 264.337297 
L 412.148757 259.95373 
L 414.079135 255.328865 
L 414.601946 253.036541 
L 414.843243 250.663784 
L 414.923676 248.291027 
L 414.803027 245.636757 
L 414.280216 240.851027 
L 413.154162 233.974054 
L 411.907459 227.137297 
L 402.577297 180.325622 
L 394.292757 138.78227 
L 394.292757 138.78227 
" style="fill:none;stroke:#ff773d;stroke-linecap:square;stroke-width:1.5;"/>
   </g>
   <g id="line2d_58">
    <path clip-path="url(#p657de47ffc)" d="M 224.821622 333.107027 
L 225.183568 333.066811 
L 226.229189 332.745081 
L 227.435676 332.021189 
L 229.124757 330.613622 
L 230.532324 329.045189 
L 231.980108 326.873514 
L 233.146378 324.78227 
L 234.031135 322.851892 
L 234.956108 320.64 
L 235.800649 318.387892 
L 236.604973 316.095568 
L 237.369081 313.843459 
L 238.012541 311.792432 
L 238.736432 309.500108 
L 239.540757 306.92627 
L 240.304865 304.352432 
L 240.908108 302.301405 
L 241.511351 300.250378 
L 242.195027 297.917838 
L 242.878703 295.625514 
L 243.562378 293.292973 
L 244.28627 291.121297 
L 245.211243 289.150703 
L 246.297081 287.300757 
L 247.704649 285.289946 
L 249.353514 283.198703 
L 250.921946 281.348757 
L 252.289297 279.699892 
L 253.696865 278.051027 
L 255.184865 276.32173 
L 256.471784 274.672865 
L 258.040216 272.541405 
L 258.804324 271.334919 
L 259.246703 270.530595 
L 259.689081 269.72627 
L 260.211892 268.479568 
L 260.774919 266.669838 
L 260.976 264.498162 
L 260.493405 262.205838 
L 259.528216 260.074378 
L 258.442378 257.862486 
L 257.557622 255.288649 
L 257.195676 253.116973 
L 257.115243 250.663784 
L 257.436973 248.492108 
L 258.32173 246.159568 
L 259.769514 244.108541 
L 261.016216 242.379243 
L 262.464 240.127135 
L 263.187892 238.719568 
L 263.750919 236.869622 
L 264.032432 234.778378 
L 264.032432 232.687135 
L 263.871568 230.354595 
L 263.791135 228.182919 
L 263.871568 225.488432 
L 264.032432 223.356973 
L 264.313946 220.944 
L 264.796541 218.28973 
L 265.279135 215.916973 
L 265.922595 213.302919 
L 266.566054 210.930162 
L 267.169297 208.637838 
L 267.973622 206.023784 
L 268.858378 204.012973 
L 269.743135 202.042378 
L 270.668108 199.830486 
L 271.512649 197.578378 
L 272.316973 195.32627 
L 273.040865 193.033946 
L 273.764757 190.741622 
L 274.488649 188.409081 
L 275.091892 186.358054 
L 275.695135 184.307027 
L 276.258162 182.256 
L 276.901622 179.923459 
L 277.545081 177.590919 
L 278.268973 175.017081 
L 278.952649 172.443243 
L 279.596108 170.110703 
L 280.279784 167.496649 
" style="fill:none;stroke:#ff3d1f;stroke-linecap:square;stroke-width:1.5;"/>
   </g>
   <g id="line2d_59">
    <path clip-path="url(#p657de47ffc)" d="M 281.124324 361.258378 
L 281.767784 361.218162 
L 283.054703 360.976865 
L 285.025297 360.212757 
L 286.995892 359.00627 
L 288.564324 357.759568 
L 290.052324 356.271568 
L 291.660973 354.502054 
L 293.108757 352.611892 
L 294.395676 350.882595 
L 295.561946 349.153297 
L 296.889081 347.10227 
L 297.894486 345.533838 
L 299.302054 343.241514 
L 300.387892 341.431784 
L 301.755243 339.099243 
L 302.841081 337.249297 
L 303.926919 335.399351 
L 305.29427 333.107027 
L 306.500757 331.015784 
L 307.667027 328.924541 
L 308.752865 327.034378 
L 309.959351 324.943135 
L 311.286486 322.610595 
L 312.492973 320.519351 
L 313.538595 318.669405 
L 314.624432 316.819459 
L 315.790703 314.728216 
L 317.117838 312.395676 
L 318.324324 310.304432 
L 319.651459 307.971892 
L 320.737297 306.08173 
L 321.903568 303.990486 
L 323.110054 301.899243 
L 324.155676 300.049297 
L 325.362162 297.958054 
L 326.689297 295.625514 
L 327.895784 293.53427 
L 329.10227 291.443027 
L 330.268541 289.351784 
L 331.475027 287.220324 
L 332.761946 285.169297 
L 334.290162 283.279135 
L 335.939027 281.429189 
L 337.547676 279.378162 
" style="fill:none;stroke:#ff0000;stroke-linecap:square;stroke-width:1.5;"/>
   </g>
   <g id="patch_3">
    <path d="M 72 512.64 
L 72 69.12 
" style="fill:none;stroke:#000000;stroke-linecap:square;stroke-linejoin:miter;stroke-width:0.8;"/>
   </g>
   <g id="patch_4">
    <path d="M 518.4 512.64 
L 518.4 69.12 
" style="fill:none;stroke:#000000;stroke-linecap:square;stroke-linejoin:miter;stroke-width:0.8;"/>
   </g>
   <g id="patch_5">
    <path d="M 72 512.64 
L 518.4 512.64 
" style="fill:none;stroke:#000000;stroke-linecap:square;stroke-linejoin:miter;stroke-width:0.8;"/>
   </g>
   <g id="patch_6">
    <path d="M 72 69.12 
L 518.4 69.12 
" style="fill:none;stroke:#000000;stroke-linecap:square;stroke-linejoin:miter;stroke-width:0.8;"/>
   </g>
   <g id="text_13">
    <!-- 1 -->
    <defs>
     <path d="M 14.203125 0 
L 14.203125 5.171875 
L 26.90625 5.171875 
L 26.90625 65.828125 
L 12.203125 56.296875 
L 12.203125 62.703125 
L 29.984375 74.21875 
L 36.71875 74.21875 
L 36.71875 5.171875 
L 49.421875 5.171875 
L 49.421875 0 
z
" id="DejaVuSerif-31"/>
    </defs>
    <g transform="translate(137.186318 389.40973)scale(0.1 -0.1)">
     <use xlink:href="#DejaVuSerif-31"/>
    </g>
   </g>
   <g id="text_14">
    <!-- 1 -->
    <g transform="translate(390.54848 192.35027)scale(0.1 -0.1)">
     <use xlink:href="#DejaVuSerif-31"/>
    </g>
   </g>
   <g id="text_15">
    <!-- 2 -->
    <defs>
     <path d="M 12.796875 55.515625 
L 7.328125 55.515625 
L 7.328125 68.5 
Q 12.546875 71.296875 17.84375 72.75 
Q 23.140625 74.21875 28.21875 74.21875 
Q 39.59375 74.21875 46.1875 68.703125 
Q 52.78125 63.1875 52.78125 53.71875 
Q 52.78125 43.015625 37.84375 28.125 
Q 36.671875 27 36.078125 26.421875 
L 17.671875 8.015625 
L 48.09375 8.015625 
L 48.09375 17 
L 53.8125 17 
L 53.8125 0 
L 6.78125 0 
L 6.78125 5.328125 
L 28.90625 27.390625 
Q 36.234375 34.71875 39.359375 40.84375 
Q 42.484375 46.96875 42.484375 53.71875 
Q 42.484375 61.078125 38.640625 65.234375 
Q 34.8125 69.390625 28.078125 69.390625 
Q 21.09375 69.390625 17.28125 65.921875 
Q 13.484375 62.453125 12.796875 55.515625 
z
" id="DejaVuSerif-32"/>
    </defs>
    <g transform="translate(446.851182 192.35027)scale(0.1 -0.1)">
     <use xlink:href="#DejaVuSerif-32"/>
    </g>
   </g>
   <g id="text_16">
    <!-- 2 -->
    <g transform="translate(221.640372 361.258378)scale(0.1 -0.1)">
     <use xlink:href="#DejaVuSerif-32"/>
    </g>
   </g>
   <g id="text_17">
    <!-- 3 -->
    <defs>
     <path d="M 9.71875 69.828125 
Q 15.4375 71.96875 20.671875 73.09375 
Q 25.921875 74.21875 30.515625 74.21875 
Q 41.21875 74.21875 47.21875 69.59375 
Q 53.21875 64.984375 53.21875 56.78125 
Q 53.21875 50.203125 49.0625 45.78125 
Q 44.921875 41.359375 37.3125 39.796875 
Q 46.296875 38.53125 51.25 33.28125 
Q 56.203125 28.03125 56.203125 19.671875 
Q 56.203125 9.46875 49.34375 4.015625 
Q 42.484375 -1.421875 29.59375 -1.421875 
Q 23.875 -1.421875 18.421875 -0.1875 
Q 12.984375 1.03125 7.625 3.515625 
L 7.625 17.671875 
L 13.09375 17.671875 
Q 13.578125 10.640625 17.828125 7.03125 
Q 22.078125 3.421875 29.78125 3.421875 
Q 37.25 3.421875 41.578125 7.734375 
Q 45.90625 12.0625 45.90625 19.578125 
Q 45.90625 28.171875 41.453125 32.59375 
Q 37.015625 37.015625 28.421875 37.015625 
L 23.78125 37.015625 
L 23.78125 42 
L 26.21875 42 
Q 34.765625 42 39.03125 45.53125 
Q 43.3125 49.078125 43.3125 56.203125 
Q 43.3125 62.59375 39.796875 65.984375 
Q 36.28125 69.390625 29.6875 69.390625 
Q 23.09375 69.390625 19.453125 66.265625 
Q 15.828125 63.140625 15.1875 56.984375 
L 9.71875 56.984375 
z
" id="DejaVuSerif-33"/>
    </defs>
    <g transform="translate(398.993885 440.082162)scale(0.1 -0.1)">
     <use xlink:href="#DejaVuSerif-33"/>
    </g>
   </g>
   <g id="text_18">
    <!-- 3 -->
    <g transform="translate(221.640372 192.35027)scale(0.1 -0.1)">
     <use xlink:href="#DejaVuSerif-33"/>
    </g>
   </g>
   <g id="text_19">
    <!-- 4 -->
    <defs>
     <path d="M 34.90625 24.703125 
L 34.90625 63.484375 
L 10.015625 24.703125 
z
M 56.390625 0 
L 23.1875 0 
L 23.1875 5.171875 
L 34.90625 5.171875 
L 34.90625 19.484375 
L 3.078125 19.484375 
L 3.078125 24.8125 
L 35.015625 74.21875 
L 44.671875 74.21875 
L 44.671875 24.703125 
L 58.59375 24.703125 
L 58.59375 19.484375 
L 44.671875 19.484375 
L 44.671875 5.171875 
L 56.390625 5.171875 
z
" id="DejaVuSerif-34"/>
    </defs>
    <g transform="translate(221.640372 136.047568)scale(0.1 -0.1)">
     <use xlink:href="#DejaVuSerif-34"/>
    </g>
   </g>
   <g id="text_20">
    <!-- 4 -->
    <g transform="translate(390.54848 361.258378)scale(0.1 -0.1)">
     <use xlink:href="#DejaVuSerif-34"/>
    </g>
   </g>
   <g id="text_21">
    <!-- 5 -->
    <defs>
     <path d="M 50.296875 72.90625 
L 50.296875 64.890625 
L 16.890625 64.890625 
L 16.890625 44 
Q 19.4375 45.75 22.828125 46.625 
Q 26.21875 47.515625 30.421875 47.515625 
Q 42.234375 47.515625 49.0625 40.96875 
Q 55.90625 34.421875 55.90625 23.09375 
Q 55.90625 11.53125 49 5.046875 
Q 42.09375 -1.421875 29.59375 -1.421875 
Q 24.5625 -1.421875 19.28125 -0.1875 
Q 14.015625 1.03125 8.5 3.515625 
L 8.5 17.671875 
L 14.015625 17.671875 
Q 14.453125 10.75 18.421875 7.078125 
Q 22.40625 3.421875 29.59375 3.421875 
Q 37.3125 3.421875 41.453125 8.5 
Q 45.609375 13.578125 45.609375 23.09375 
Q 45.609375 32.5625 41.484375 37.609375 
Q 37.359375 42.671875 29.59375 42.671875 
Q 25.203125 42.671875 21.84375 41.109375 
Q 18.5 39.546875 15.921875 36.28125 
L 11.71875 36.28125 
L 11.71875 72.90625 
z
" id="DejaVuSerif-35"/>
    </defs>
    <g transform="translate(446.851182 304.955676)scale(0.1 -0.1)">
     <use xlink:href="#DejaVuSerif-35"/>
    </g>
   </g>
   <g id="text_22">
    <!-- 5 -->
    <g transform="translate(193.48902 248.652973)scale(0.1 -0.1)">
     <use xlink:href="#DejaVuSerif-35"/>
    </g>
   </g>
   <g id="text_23">
    <!-- 6 -->
    <defs>
     <path d="M 32.71875 3.421875 
Q 39.59375 3.421875 43.296875 8.46875 
Q 47.015625 13.53125 47.015625 23 
Q 47.015625 32.46875 43.296875 37.515625 
Q 39.59375 42.578125 32.71875 42.578125 
Q 25.734375 42.578125 22.0625 37.6875 
Q 18.40625 32.8125 18.40625 23.578125 
Q 18.40625 13.875 22.109375 8.640625 
Q 25.828125 3.421875 32.71875 3.421875 
z
M 16.796875 40.140625 
Q 20.125 43.796875 24.3125 45.59375 
Q 28.515625 47.40625 33.796875 47.40625 
Q 44.671875 47.40625 51 40.859375 
Q 57.328125 34.328125 57.328125 23 
Q 57.328125 11.921875 50.515625 5.25 
Q 43.703125 -1.421875 32.328125 -1.421875 
Q 19.96875 -1.421875 13.328125 7.78125 
Q 6.6875 17 6.6875 34.078125 
Q 6.6875 53.21875 14.546875 63.71875 
Q 22.40625 74.21875 36.71875 74.21875 
Q 40.578125 74.21875 44.828125 73.484375 
Q 49.078125 72.75 53.515625 71.296875 
L 53.515625 59.28125 
L 48 59.28125 
Q 47.40625 64.203125 44.234375 66.796875 
Q 41.0625 69.390625 35.6875 69.390625 
Q 26.21875 69.390625 21.578125 62.203125 
Q 16.9375 55.03125 16.796875 40.140625 
z
" id="DejaVuSerif-36"/>
    </defs>
    <g transform="translate(137.186318 248.652973)scale(0.1 -0.1)">
     <use xlink:href="#DejaVuSerif-36"/>
    </g>
   </g>
   <g id="text_24">
    <!-- 6 -->
    <g transform="translate(390.54848 276.804324)scale(0.1 -0.1)">
     <use xlink:href="#DejaVuSerif-36"/>
    </g>
   </g>
   <g id="text_25">
    <!-- 7 -->
    <defs>
     <path d="M 56.390625 67.921875 
L 27.875 0 
L 20.609375 0 
L 47.796875 64.890625 
L 14.109375 64.890625 
L 14.109375 55.90625 
L 8.40625 55.90625 
L 8.40625 72.90625 
L 56.390625 72.90625 
z
" id="DejaVuSerif-37"/>
    </defs>
    <g transform="translate(277.943074 192.35027)scale(0.1 -0.1)">
     <use xlink:href="#DejaVuSerif-37"/>
    </g>
   </g>
   <g id="text_26">
    <!-- 7 -->
    <g transform="translate(277.943074 333.107027)scale(0.1 -0.1)">
     <use xlink:href="#DejaVuSerif-37"/>
    </g>
   </g>
   <g id="text_27">
    <!-- 8 -->
    <defs>
     <path d="M 46.578125 19.921875 
Q 46.578125 27.734375 42.6875 32.046875 
Q 38.8125 36.375 31.78125 36.375 
Q 24.75 36.375 20.875 32.046875 
Q 17 27.734375 17 19.921875 
Q 17 12.0625 20.875 7.734375 
Q 24.75 3.421875 31.78125 3.421875 
Q 38.8125 3.421875 42.6875 7.734375 
Q 46.578125 12.0625 46.578125 19.921875 
z
M 44.578125 55.328125 
Q 44.578125 61.96875 41.203125 65.671875 
Q 37.84375 69.390625 31.78125 69.390625 
Q 25.78125 69.390625 22.390625 65.671875 
Q 19 61.96875 19 55.328125 
Q 19 48.640625 22.390625 44.921875 
Q 25.78125 41.21875 31.78125 41.21875 
Q 37.84375 41.21875 41.203125 44.921875 
Q 44.578125 48.640625 44.578125 55.328125 
z
M 39.3125 38.8125 
Q 47.609375 37.703125 52.25 32.6875 
Q 56.890625 27.6875 56.890625 19.921875 
Q 56.890625 9.671875 50.390625 4.125 
Q 43.890625 -1.421875 31.78125 -1.421875 
Q 19.734375 -1.421875 13.203125 4.125 
Q 6.6875 9.671875 6.6875 19.921875 
Q 6.6875 27.6875 11.328125 32.6875 
Q 15.96875 37.703125 24.3125 38.8125 
Q 16.9375 40.140625 13 44.40625 
Q 9.078125 48.6875 9.078125 55.328125 
Q 9.078125 64.109375 15.125 69.15625 
Q 21.1875 74.21875 31.78125 74.21875 
Q 42.390625 74.21875 48.4375 69.15625 
Q 54.5 64.109375 54.5 55.328125 
Q 54.5 48.6875 50.5625 44.40625 
Q 46.625 40.140625 39.3125 38.8125 
z
" id="DejaVuSerif-38"/>
    </defs>
    <g transform="translate(137.186318 304.955676)scale(0.1 -0.1)">
     <use xlink:href="#DejaVuSerif-38"/>
    </g>
   </g>
   <g id="text_28">
    <!-- 8 -->
    <g transform="translate(306.094426 276.804324)scale(0.1 -0.1)">
     <use xlink:href="#DejaVuSerif-38"/>
    </g>
   </g>
   <g id="text_29">
    <!-- 9 -->
    <defs>
     <path d="M 46.78125 32.671875 
Q 43.5 29 39.25 27.1875 
Q 35.015625 25.390625 29.6875 25.390625 
Q 18.84375 25.390625 12.5625 31.9375 
Q 6.296875 38.484375 6.296875 49.8125 
Q 6.296875 60.890625 13.109375 67.546875 
Q 19.921875 74.21875 31.296875 74.21875 
Q 43.65625 74.21875 50.265625 65.015625 
Q 56.890625 55.8125 56.890625 38.71875 
Q 56.890625 19.578125 49.015625 9.078125 
Q 41.15625 -1.421875 26.90625 -1.421875 
Q 23.046875 -1.421875 18.796875 -0.6875 
Q 14.546875 0.046875 10.109375 1.515625 
L 10.109375 13.625 
L 15.578125 13.625 
Q 16.21875 8.6875 19.390625 6.046875 
Q 22.5625 3.421875 27.875 3.421875 
Q 37.359375 3.421875 41.984375 10.5625 
Q 46.625 17.71875 46.78125 32.671875 
z
M 30.90625 69.390625 
Q 23.96875 69.390625 20.28125 64.328125 
Q 16.609375 59.28125 16.609375 49.8125 
Q 16.609375 40.328125 20.28125 35.25 
Q 23.96875 30.171875 30.90625 30.171875 
Q 37.84375 30.171875 41.53125 35.078125 
Q 45.21875 39.984375 45.21875 49.21875 
Q 45.21875 58.9375 41.5 64.15625 
Q 37.796875 69.390625 30.90625 69.390625 
z
" id="DejaVuSerif-39"/>
    </defs>
    <g transform="translate(390.54848 220.501622)scale(0.1 -0.1)">
     <use xlink:href="#DejaVuSerif-39"/>
    </g>
   </g>
   <g id="text_30">
    <!-- 9 -->
    <g transform="translate(137.186318 276.804324)scale(0.1 -0.1)">
     <use xlink:href="#DejaVuSerif-39"/>
    </g>
   </g>
   <g id="text_31">
    <!-- 10 -->
    <defs>
     <path d="M 31.78125 3.421875 
Q 39.265625 3.421875 42.96875 11.625 
Q 46.6875 19.828125 46.6875 36.375 
Q 46.6875 52.984375 42.96875 61.1875 
Q 39.265625 69.390625 31.78125 69.390625 
Q 24.3125 69.390625 20.59375 61.1875 
Q 16.890625 52.984375 16.890625 36.375 
Q 16.890625 19.828125 20.59375 11.625 
Q 24.3125 3.421875 31.78125 3.421875 
z
M 31.78125 -1.421875 
Q 19.921875 -1.421875 13.25 8.53125 
Q 6.59375 18.5 6.59375 36.375 
Q 6.59375 54.296875 13.25 64.25 
Q 19.921875 74.21875 31.78125 74.21875 
Q 43.703125 74.21875 50.34375 64.25 
Q 56.984375 54.296875 56.984375 36.375 
Q 56.984375 18.5 50.34375 8.53125 
Q 43.703125 -1.421875 31.78125 -1.421875 
z
" id="DejaVuSerif-30"/>
    </defs>
    <g transform="translate(134.005068 136.047568)scale(0.1 -0.1)">
     <use xlink:href="#DejaVuSerif-31"/>
     <use x="63.623047" xlink:href="#DejaVuSerif-30"/>
    </g>
   </g>
   <g id="text_32">
    <!-- 10 -->
    <g transform="translate(246.610473 248.652973)scale(0.1 -0.1)">
     <use xlink:href="#DejaVuSerif-31"/>
     <use x="63.623047" xlink:href="#DejaVuSerif-30"/>
    </g>
   </g>
   <g id="text_33">
    <!-- 11 -->
    <g transform="translate(331.064527 164.198919)scale(0.1 -0.1)">
     <use xlink:href="#DejaVuSerif-31"/>
     <use x="63.623047" xlink:href="#DejaVuSerif-31"/>
    </g>
   </g>
   <g id="text_34">
    <!-- 11 -->
    <g transform="translate(162.156419 389.40973)scale(0.1 -0.1)">
     <use xlink:href="#DejaVuSerif-31"/>
     <use x="63.623047" xlink:href="#DejaVuSerif-31"/>
    </g>
   </g>
   <g id="text_35">
    <!-- 12 -->
    <g transform="translate(190.30777 445.712432)scale(0.1 -0.1)">
     <use xlink:href="#DejaVuSerif-31"/>
     <use x="63.623047" xlink:href="#DejaVuSerif-32"/>
    </g>
   </g>
   <g id="text_36">
    <!-- 12 -->
    <g transform="translate(387.36723 136.047568)scale(0.1 -0.1)">
     <use xlink:href="#DejaVuSerif-31"/>
     <use x="63.623047" xlink:href="#DejaVuSerif-32"/>
    </g>
   </g>
   <g id="text_37">
    <!-- 13 -->
    <g transform="translate(218.459122 333.107027)scale(0.1 -0.1)">
     <use xlink:href="#DejaVuSerif-31"/>
     <use x="63.623047" xlink:href="#DejaVuSerif-33"/>
    </g>
   </g>
   <g id="text_38">
    <!-- 13 -->
    <g transform="translate(274.761824 164.198919)scale(0.1 -0.1)">
     <use xlink:href="#DejaVuSerif-31"/>
     <use x="63.623047" xlink:href="#DejaVuSerif-33"/>
    </g>
   </g>
   <g id="text_39">
    <!-- 14 -->
    <g transform="translate(274.761824 361.258378)scale(0.1 -0.1)">
     <use xlink:href="#DejaVuSerif-31"/>
     <use x="63.623047" xlink:href="#DejaVuSerif-34"/>
    </g>
   </g>
   <g id="text_40">
    <!-- 14 -->
    <g transform="translate(331.064527 276.804324)scale(0.1 -0.1)">
     <use xlink:href="#DejaVuSerif-31"/>
     <use x="63.623047" xlink:href="#DejaVuSerif-34"/>
    </g>
   </g>
   <g id="text_41">
    <!-- MRPP -->
    <defs>
     <path d="M 9.8125 72.90625 
L 24.515625 72.90625 
L 43.109375 23.296875 
L 61.8125 72.90625 
L 76.515625 72.90625 
L 76.515625 0 
L 66.890625 0 
L 66.890625 64.015625 
L 48.09375 14.015625 
L 38.1875 14.015625 
L 19.390625 64.015625 
L 19.390625 0 
L 9.8125 0 
z
" id="DejaVuSans-4d"/>
     <path d="M 44.390625 34.1875 
Q 47.5625 33.109375 50.5625 29.59375 
Q 53.5625 26.078125 56.59375 19.921875 
L 66.609375 0 
L 56 0 
L 46.6875 18.703125 
Q 43.0625 26.03125 39.671875 28.421875 
Q 36.28125 30.8125 30.421875 30.8125 
L 19.671875 30.8125 
L 19.671875 0 
L 9.8125 0 
L 9.8125 72.90625 
L 32.078125 72.90625 
Q 44.578125 72.90625 50.734375 67.671875 
Q 56.890625 62.453125 56.890625 51.90625 
Q 56.890625 45.015625 53.6875 40.46875 
Q 50.484375 35.9375 44.390625 34.1875 
z
M 19.671875 64.796875 
L 19.671875 38.921875 
L 32.078125 38.921875 
Q 39.203125 38.921875 42.84375 42.21875 
Q 46.484375 45.515625 46.484375 51.90625 
Q 46.484375 58.296875 42.84375 61.546875 
Q 39.203125 64.796875 32.078125 64.796875 
z
" id="DejaVuSans-52"/>
     <path d="M 19.671875 64.796875 
L 19.671875 37.40625 
L 32.078125 37.40625 
Q 38.96875 37.40625 42.71875 40.96875 
Q 46.484375 44.53125 46.484375 51.125 
Q 46.484375 57.671875 42.71875 61.234375 
Q 38.96875 64.796875 32.078125 64.796875 
z
M 9.8125 72.90625 
L 32.078125 72.90625 
Q 44.34375 72.90625 50.609375 67.359375 
Q 56.890625 61.8125 56.890625 51.125 
Q 56.890625 40.328125 50.609375 34.8125 
Q 44.34375 29.296875 32.078125 29.296875 
L 19.671875 29.296875 
L 19.671875 0 
L 9.8125 0 
z
" id="DejaVuSans-50"/>
    </defs>
    <g transform="translate(278.618437 63.12)scale(0.12 -0.12)">
     <use xlink:href="#DejaVuSans-4d"/>
     <use x="86.279297" xlink:href="#DejaVuSans-52"/>
     <use x="155.761719" xlink:href="#DejaVuSans-50"/>
     <use x="216.064453" xlink:href="#DejaVuSans-50"/>
    </g>
   </g>
  </g>
 </g>
 <defs>
  <clipPath id="p657de47ffc">
   <rect height="443.52" width="446.4" x="72" y="69.12"/>
  </clipPath>
 </defs>
</svg>
