<?xml version="1.0" encoding="utf-8" standalone="no"?>
<!DOCTYPE svg PUBLIC "-//W3C//DTD SVG 1.1//EN"
  "http://www.w3.org/Graphics/SVG/1.1/DTD/svg11.dtd">
<!-- Created with matplotlib (http://matplotlib.org/) -->
<svg height="345pt" version="1.1" viewBox="0 0 460 345" width="460pt" xmlns="http://www.w3.org/2000/svg" xmlns:xlink="http://www.w3.org/1999/xlink">
 <defs>
  <style type="text/css">
*{stroke-linecap:butt;stroke-linejoin:round;}
  </style>
 </defs>
 <g id="figure_1">
  <g id="patch_1">
   <path d="M 0 345.6 
L 460.8 345.6 
L 460.8 0 
L 0 0 
z
" style="fill:#ffffff;"/>
  </g>
  <g id="axes_1">
   <g id="patch_2">
    <path d="M 57.6 162.432 
L 414.72 162.432 
L 414.72 41.472 
L 57.6 41.472 
z
" style="fill:#ffffff;"/>
   </g>
   <g id="matplotlib.axis_1">
    <g id="xtick_1">
     <g id="line2d_1">
      <defs>
       <path d="M 0 0 
L 0 3.5 
" id="m1b21a796cd" style="stroke:#000000;stroke-width:0.8;"/>
      </defs>
      <g>
       <use style="stroke:#000000;stroke-width:0.8;" x="73.832727" xlink:href="#m1b21a796cd" y="162.432"/>
      </g>
     </g>
     <g id="text_1">
      <!-- 0 -->
      <defs>
       <path d="M 31.78125 66.40625 
Q 24.171875 66.40625 20.328125 58.90625 
Q 16.5 51.421875 16.5 36.375 
Q 16.5 21.390625 20.328125 13.890625 
Q 24.171875 6.390625 31.78125 6.390625 
Q 39.453125 6.390625 43.28125 13.890625 
Q 47.125 21.390625 47.125 36.375 
Q 47.125 51.421875 43.28125 58.90625 
Q 39.453125 66.40625 31.78125 66.40625 
z
M 31.78125 74.21875 
Q 44.046875 74.21875 50.515625 64.515625 
Q 56.984375 54.828125 56.984375 36.375 
Q 56.984375 17.96875 50.515625 8.265625 
Q 44.046875 -1.421875 31.78125 -1.421875 
Q 19.53125 -1.421875 13.0625 8.265625 
Q 6.59375 17.96875 6.59375 36.375 
Q 6.59375 54.828125 13.0625 64.515625 
Q 19.53125 74.21875 31.78125 74.21875 
z
" id="DejaVuSans-30"/>
      </defs>
      <g transform="translate(70.651477 177.030437)scale(0.1 -0.1)">
       <use xlink:href="#DejaVuSans-30"/>
      </g>
     </g>
    </g>
    <g id="xtick_2">
     <g id="line2d_2">
      <g>
       <use style="stroke:#000000;stroke-width:0.8;" x="121.858548" xlink:href="#m1b21a796cd" y="162.432"/>
      </g>
     </g>
     <g id="text_2">
      <!-- 50 -->
      <defs>
       <path d="M 10.796875 72.90625 
L 49.515625 72.90625 
L 49.515625 64.59375 
L 19.828125 64.59375 
L 19.828125 46.734375 
Q 21.96875 47.46875 24.109375 47.828125 
Q 26.265625 48.1875 28.421875 48.1875 
Q 40.625 48.1875 47.75 41.5 
Q 54.890625 34.8125 54.890625 23.390625 
Q 54.890625 11.625 47.5625 5.09375 
Q 40.234375 -1.421875 26.90625 -1.421875 
Q 22.3125 -1.421875 17.546875 -0.640625 
Q 12.796875 0.140625 7.71875 1.703125 
L 7.71875 11.625 
Q 12.109375 9.234375 16.796875 8.0625 
Q 21.484375 6.890625 26.703125 6.890625 
Q 35.15625 6.890625 40.078125 11.328125 
Q 45.015625 15.765625 45.015625 23.390625 
Q 45.015625 31 40.078125 35.4375 
Q 35.15625 39.890625 26.703125 39.890625 
Q 22.75 39.890625 18.8125 39.015625 
Q 14.890625 38.140625 10.796875 36.28125 
z
" id="DejaVuSans-35"/>
      </defs>
      <g transform="translate(115.496048 177.030437)scale(0.1 -0.1)">
       <use xlink:href="#DejaVuSans-35"/>
       <use x="63.623047" xlink:href="#DejaVuSans-30"/>
      </g>
     </g>
    </g>
    <g id="xtick_3">
     <g id="line2d_3">
      <g>
       <use style="stroke:#000000;stroke-width:0.8;" x="169.884368" xlink:href="#m1b21a796cd" y="162.432"/>
      </g>
     </g>
     <g id="text_3">
      <!-- 100 -->
      <defs>
       <path d="M 12.40625 8.296875 
L 28.515625 8.296875 
L 28.515625 63.921875 
L 10.984375 60.40625 
L 10.984375 69.390625 
L 28.421875 72.90625 
L 38.28125 72.90625 
L 38.28125 8.296875 
L 54.390625 8.296875 
L 54.390625 0 
L 12.40625 0 
z
" id="DejaVuSans-31"/>
      </defs>
      <g transform="translate(160.340618 177.030437)scale(0.1 -0.1)">
       <use xlink:href="#DejaVuSans-31"/>
       <use x="63.623047" xlink:href="#DejaVuSans-30"/>
       <use x="127.246094" xlink:href="#DejaVuSans-30"/>
      </g>
     </g>
    </g>
    <g id="xtick_4">
     <g id="line2d_4">
      <g>
       <use style="stroke:#000000;stroke-width:0.8;" x="217.910188" xlink:href="#m1b21a796cd" y="162.432"/>
      </g>
     </g>
     <g id="text_4">
      <!-- 150 -->
      <g transform="translate(208.366438 177.030437)scale(0.1 -0.1)">
       <use xlink:href="#DejaVuSans-31"/>
       <use x="63.623047" xlink:href="#DejaVuSans-35"/>
       <use x="127.246094" xlink:href="#DejaVuSans-30"/>
      </g>
     </g>
    </g>
    <g id="xtick_5">
     <g id="line2d_5">
      <g>
       <use style="stroke:#000000;stroke-width:0.8;" x="265.936009" xlink:href="#m1b21a796cd" y="162.432"/>
      </g>
     </g>
     <g id="text_5">
      <!-- 200 -->
      <defs>
       <path d="M 19.1875 8.296875 
L 53.609375 8.296875 
L 53.609375 0 
L 7.328125 0 
L 7.328125 8.296875 
Q 12.9375 14.109375 22.625 23.890625 
Q 32.328125 33.6875 34.8125 36.53125 
Q 39.546875 41.84375 41.421875 45.53125 
Q 43.3125 49.21875 43.3125 52.78125 
Q 43.3125 58.59375 39.234375 62.25 
Q 35.15625 65.921875 28.609375 65.921875 
Q 23.96875 65.921875 18.8125 64.3125 
Q 13.671875 62.703125 7.8125 59.421875 
L 7.8125 69.390625 
Q 13.765625 71.78125 18.9375 73 
Q 24.125 74.21875 28.421875 74.21875 
Q 39.75 74.21875 46.484375 68.546875 
Q 53.21875 62.890625 53.21875 53.421875 
Q 53.21875 48.921875 51.53125 44.890625 
Q 49.859375 40.875 45.40625 35.40625 
Q 44.1875 33.984375 37.640625 27.21875 
Q 31.109375 20.453125 19.1875 8.296875 
z
" id="DejaVuSans-32"/>
      </defs>
      <g transform="translate(256.392259 177.030437)scale(0.1 -0.1)">
       <use xlink:href="#DejaVuSans-32"/>
       <use x="63.623047" xlink:href="#DejaVuSans-30"/>
       <use x="127.246094" xlink:href="#DejaVuSans-30"/>
      </g>
     </g>
    </g>
    <g id="xtick_6">
     <g id="line2d_6">
      <g>
       <use style="stroke:#000000;stroke-width:0.8;" x="313.961829" xlink:href="#m1b21a796cd" y="162.432"/>
      </g>
     </g>
     <g id="text_6">
      <!-- 250 -->
      <g transform="translate(304.418079 177.030437)scale(0.1 -0.1)">
       <use xlink:href="#DejaVuSans-32"/>
       <use x="63.623047" xlink:href="#DejaVuSans-35"/>
       <use x="127.246094" xlink:href="#DejaVuSans-30"/>
      </g>
     </g>
    </g>
    <g id="xtick_7">
     <g id="line2d_7">
      <g>
       <use style="stroke:#000000;stroke-width:0.8;" x="361.987649" xlink:href="#m1b21a796cd" y="162.432"/>
      </g>
     </g>
     <g id="text_7">
      <!-- 300 -->
      <defs>
       <path d="M 40.578125 39.3125 
Q 47.65625 37.796875 51.625 33 
Q 55.609375 28.21875 55.609375 21.1875 
Q 55.609375 10.40625 48.1875 4.484375 
Q 40.765625 -1.421875 27.09375 -1.421875 
Q 22.515625 -1.421875 17.65625 -0.515625 
Q 12.796875 0.390625 7.625 2.203125 
L 7.625 11.71875 
Q 11.71875 9.328125 16.59375 8.109375 
Q 21.484375 6.890625 26.8125 6.890625 
Q 36.078125 6.890625 40.9375 10.546875 
Q 45.796875 14.203125 45.796875 21.1875 
Q 45.796875 27.640625 41.28125 31.265625 
Q 36.765625 34.90625 28.71875 34.90625 
L 20.21875 34.90625 
L 20.21875 43.015625 
L 29.109375 43.015625 
Q 36.375 43.015625 40.234375 45.921875 
Q 44.09375 48.828125 44.09375 54.296875 
Q 44.09375 59.90625 40.109375 62.90625 
Q 36.140625 65.921875 28.71875 65.921875 
Q 24.65625 65.921875 20.015625 65.03125 
Q 15.375 64.15625 9.8125 62.3125 
L 9.8125 71.09375 
Q 15.4375 72.65625 20.34375 73.4375 
Q 25.25 74.21875 29.59375 74.21875 
Q 40.828125 74.21875 47.359375 69.109375 
Q 53.90625 64.015625 53.90625 55.328125 
Q 53.90625 49.265625 50.4375 45.09375 
Q 46.96875 40.921875 40.578125 39.3125 
z
" id="DejaVuSans-33"/>
      </defs>
      <g transform="translate(352.443899 177.030437)scale(0.1 -0.1)">
       <use xlink:href="#DejaVuSans-33"/>
       <use x="63.623047" xlink:href="#DejaVuSans-30"/>
       <use x="127.246094" xlink:href="#DejaVuSans-30"/>
      </g>
     </g>
    </g>
    <g id="xtick_8">
     <g id="line2d_8">
      <g>
       <use style="stroke:#000000;stroke-width:0.8;" x="410.01347" xlink:href="#m1b21a796cd" y="162.432"/>
      </g>
     </g>
     <g id="text_8">
      <!-- 350 -->
      <g transform="translate(400.46972 177.030437)scale(0.1 -0.1)">
       <use xlink:href="#DejaVuSans-33"/>
       <use x="63.623047" xlink:href="#DejaVuSans-35"/>
       <use x="127.246094" xlink:href="#DejaVuSans-30"/>
      </g>
     </g>
    </g>
   </g>
   <g id="matplotlib.axis_2">
    <g id="ytick_1">
     <g id="line2d_9">
      <defs>
       <path d="M 0 0 
L -3.5 0 
" id="m29bcb356c2" style="stroke:#000000;stroke-width:0.8;"/>
      </defs>
      <g>
       <use style="stroke:#000000;stroke-width:0.8;" x="57.6" xlink:href="#m29bcb356c2" y="138.53677"/>
      </g>
     </g>
     <g id="text_9">
      <!-- −5 -->
      <defs>
       <path d="M 10.59375 35.5 
L 73.1875 35.5 
L 73.1875 27.203125 
L 10.59375 27.203125 
z
" id="DejaVuSans-2212"/>
      </defs>
      <g transform="translate(35.857813 142.335989)scale(0.1 -0.1)">
       <use xlink:href="#DejaVuSans-2212"/>
       <use x="83.789062" xlink:href="#DejaVuSans-35"/>
      </g>
     </g>
    </g>
    <g id="ytick_2">
     <g id="line2d_10">
      <g>
       <use style="stroke:#000000;stroke-width:0.8;" x="57.6" xlink:href="#m29bcb356c2" y="99.041175"/>
      </g>
     </g>
     <g id="text_10">
      <!-- 0 -->
      <g transform="translate(44.2375 102.840393)scale(0.1 -0.1)">
       <use xlink:href="#DejaVuSans-30"/>
      </g>
     </g>
    </g>
    <g id="ytick_3">
     <g id="line2d_11">
      <g>
       <use style="stroke:#000000;stroke-width:0.8;" x="57.6" xlink:href="#m29bcb356c2" y="59.545579"/>
      </g>
     </g>
     <g id="text_11">
      <!-- 5 -->
      <g transform="translate(44.2375 63.344798)scale(0.1 -0.1)">
       <use xlink:href="#DejaVuSans-35"/>
      </g>
     </g>
    </g>
   </g>
   <g id="line2d_12">
    <path clip-path="url(#pfcd79bf8b5)" d="M 73.832727 74.103656 
L 75.75376 74.072059 
L 76.714276 73.313744 
L 77.674793 72.18417 
L 78.635309 70.707035 
L 81.516859 68.558474 
L 84.398408 67.776461 
L 86.319441 67.594782 
L 91.122023 67.468396 
L 98.806154 67.452598 
L 110.332351 67.539488 
L 115.134933 67.492093 
L 116.095449 67.689571 
L 118.016482 68.637465 
L 118.976998 69.909224 
L 119.937515 72.176271 
L 120.898031 73.629709 
L 123.77958 81.639415 
L 124.740097 85.494185 
L 125.700613 88.219382 
L 126.66113 90.265253 
L 127.621646 91.244744 
L 128.582162 90.841889 
L 129.542679 89.862398 
L 130.503195 87.042413 
L 133.384744 76.670869 
L 134.345261 74.222143 
L 135.305777 72.468538 
L 137.22681 70.47796 
L 138.187327 69.348386 
L 139.147843 68.890237 
L 141.068876 68.353097 
L 142.989909 67.950242 
L 148.753007 67.563185 
L 155.476622 67.444698 
L 157.397655 67.531589 
L 158.358171 67.650076 
L 159.318687 67.887049 
L 160.279204 68.005536 
L 162.200237 68.661163 
L 163.160753 69.095614 
L 165.081786 70.509557 
L 167.002819 71.955095 
L 167.963335 73.44013 
L 168.923852 74.119454 
L 169.884368 75.335918 
L 171.805401 77.38179 
L 172.765917 78.756237 
L 173.726434 79.62514 
L 175.647466 82.271345 
L 177.568499 86.521071 
L 178.529016 87.808627 
L 179.489532 90.533823 
L 180.450048 92.871963 
L 181.410565 94.278006 
L 184.292114 100.881669 
L 186.213147 103.077624 
L 187.173663 103.440984 
L 188.13418 103.172414 
L 190.055212 101.158139 
L 191.015729 99.910078 
L 193.897278 93.930445 
L 194.857795 92.508603 
L 195.818311 89.57803 
L 198.69986 82.58731 
L 199.660377 80.509841 
L 200.620893 79.317074 
L 202.541926 75.85726 
L 204.462959 74.301134 
L 205.423475 73.313744 
L 206.383991 72.515933 
L 207.344508 71.986692 
L 209.265541 71.252074 
L 210.226057 71.022999 
L 212.14709 70.39107 
L 213.107606 70.043509 
L 214.068123 69.814434 
L 215.989155 69.158807 
L 222.71277 67.815957 
L 226.554836 67.571084 
L 231.357418 67.468396 
L 238.081033 67.492093 
L 243.844131 67.689571 
L 249.60723 67.531589 
L 261.133427 67.444698 
L 279.383238 67.52369 
L 288.027886 67.96604 
L 291.869952 67.800159 
L 294.751501 67.602681 
L 301.475116 67.452598 
L 303.396148 67.642176 
L 305.317181 68.274106 
L 306.277698 68.755952 
L 307.238214 69.387882 
L 308.198731 70.201491 
L 309.159247 71.481148 
L 310.119763 73.068871 
L 312.040796 76.797255 
L 314.922345 84.751668 
L 315.882862 88.748622 
L 316.843378 92.232134 
L 317.803895 94.696659 
L 318.764411 98.322355 
L 322.606477 110.155235 
L 324.527509 114.32597 
L 325.488026 115.242268 
L 326.448542 115.487141 
L 327.409059 115.13168 
L 328.369575 114.381264 
L 329.330091 113.954711 
L 330.290608 112.580265 
L 331.251124 111.663967 
L 332.211641 110.344814 
L 333.172157 109.270534 
L 336.053706 104.902321 
L 337.014223 103.583168 
L 337.974739 101.308222 
L 339.895772 97.540342 
L 340.856288 95.146909 
L 341.816805 93.693471 
L 342.777321 91.28424 
L 345.65887 85.438892 
L 346.619387 83.47991 
L 347.579903 82.374033 
L 348.54042 80.549337 
L 349.500936 79.522451 
L 351.421969 77.879435 
L 353.343002 77.129018 
L 354.303518 76.963137 
L 355.264034 76.986834 
L 356.224551 77.215909 
L 358.145584 78.124307 
L 360.066616 79.26968 
L 361.987649 81.14967 
L 362.948166 81.884288 
L 363.908682 82.381933 
L 364.869198 82.626805 
L 366.790231 83.377222 
L 367.750748 83.171844 
L 368.711264 82.342437 
L 369.671781 81.291854 
L 370.632297 79.89371 
L 371.592813 79.016908 
L 372.55333 77.587167 
L 376.395395 73.203156 
L 377.355912 72.63442 
L 378.316428 71.781315 
L 380.237461 70.730732 
L 381.197977 69.901324 
L 382.158494 69.506368 
L 383.11901 68.755952 
L 385.040043 67.776461 
L 386.000559 67.476295 
L 386.961076 67.484194 
L 389.842625 68.226711 
L 394.645207 68.495281 
L 396.56624 69.174605 
L 397.526756 71.007201 
L 398.487273 77.666158 
L 398.487273 77.666158 
" style="fill:none;stroke:#0000ff;stroke-linecap:square;stroke-width:1.5;"/>
   </g>
   <g id="line2d_13">
    <path clip-path="url(#pfcd79bf8b5)" d="M 73.832727 79.640938 
L 75.75376 79.672535 
L 76.714276 80.69942 
L 77.674793 82.397731 
L 78.635309 85.059734 
L 79.595826 86.623759 
L 81.516859 90.739201 
L 82.477375 91.781884 
L 84.398408 94.459686 
L 85.358924 95.447075 
L 86.319441 95.928922 
L 87.279957 96.537154 
L 89.20099 97.311268 
L 90.161506 97.682526 
L 93.043055 98.346052 
L 94.964088 98.772605 
L 97.845637 99.554617 
L 100.727187 100.613099 
L 101.687703 100.857972 
L 104.569252 101.95595 
L 106.490285 102.295612 
L 107.450802 102.327208 
L 109.371834 102.019143 
L 110.332351 101.5057 
L 111.292867 101.268726 
L 112.253384 100.684191 
L 113.2139 99.949573 
L 115.134933 97.366561 
L 116.095449 95.131111 
L 117.055966 92.548099 
L 118.016482 90.431135 
L 118.976998 86.805439 
L 119.937515 82.40563 
L 120.898031 80.264969 
L 121.858548 77.184312 
L 123.77958 72.666016 
L 124.740097 70.493758 
L 125.700613 69.356285 
L 126.66113 68.68486 
L 127.621646 68.424189 
L 128.582162 68.526878 
L 129.542679 68.803347 
L 130.503195 69.814434 
L 131.463712 71.473249 
L 132.424228 73.653406 
L 134.345261 79.490855 
L 135.305777 81.947481 
L 136.266294 83.47991 
L 137.22681 85.533681 
L 138.187327 88.23518 
L 139.147843 89.601727 
L 140.108359 90.29685 
L 141.068876 91.513314 
L 142.989909 93.393305 
L 143.950425 93.867252 
L 144.910941 94.538677 
L 146.831974 95.360185 
L 149.713523 96.671439 
L 150.67404 96.853119 
L 153.555589 98.756806 
L 154.516105 99.104368 
L 155.476622 99.254451 
L 156.437138 100.186547 
L 158.358171 102.651072 
L 159.318687 104.28619 
L 160.279204 104.965514 
L 163.160753 109.12835 
L 165.081786 112.611861 
L 167.002819 115.31336 
L 167.963335 117.55671 
L 168.923852 118.465108 
L 169.884368 119.926445 
L 172.765917 123.267773 
L 173.726434 123.962895 
L 175.647466 125.819188 
L 176.607983 127.098846 
L 177.568499 128.054639 
L 178.529016 128.575981 
L 179.489532 129.468581 
L 180.450048 130.029419 
L 182.371081 130.542861 
L 183.331598 130.637651 
L 188.13418 130.369081 
L 191.015729 130.621853 
L 191.976245 130.621853 
L 193.897278 130.218998 
L 194.857795 129.958327 
L 196.778827 128.323209 
L 197.739344 127.264727 
L 199.660377 124.63432 
L 200.620893 123.725922 
L 201.581409 122.319878 
L 202.541926 120.51098 
L 203.502442 119.713169 
L 204.462959 118.694183 
L 206.383991 116.213859 
L 207.344508 115.360755 
L 209.265541 114.073198 
L 210.226057 113.646646 
L 211.186573 112.912028 
L 212.14709 112.359089 
L 213.107606 111.584976 
L 214.068123 111.055735 
L 215.028639 110.099941 
L 215.989155 109.30213 
L 216.949672 108.693898 
L 218.870705 107.082478 
L 220.791737 105.170891 
L 221.752254 104.657448 
L 222.71277 103.867536 
L 224.633803 102.753761 
L 227.515352 101.363516 
L 228.475869 101.015954 
L 233.278451 99.917977 
L 237.120516 98.148574 
L 239.041549 96.616145 
L 240.002066 96.323878 
L 240.962582 95.715646 
L 241.923098 95.344387 
L 242.883615 95.13901 
L 244.804648 95.202203 
L 251.528263 97.232276 
L 252.488779 97.374461 
L 253.449295 97.682526 
L 260.17291 98.709412 
L 268.817558 98.954284 
L 272.659623 98.804201 
L 274.580656 98.590925 
L 276.501689 98.085381 
L 279.383238 96.774127 
L 283.225304 94.388594 
L 284.18582 93.88305 
L 286.106853 93.314313 
L 288.027886 93.306414 
L 288.988402 93.409103 
L 289.948919 93.661875 
L 290.909435 94.056831 
L 291.869952 94.325401 
L 292.830468 94.973128 
L 294.751501 95.921023 
L 295.712017 96.252786 
L 296.672534 96.710935 
L 298.593566 98.053785 
L 299.554083 97.832609 
L 300.514599 98.180171 
L 301.475116 99.538819 
L 302.435632 101.497801 
L 303.396148 102.556283 
L 304.356665 104.523163 
L 306.277698 108.038271 
L 308.198731 111.948335 
L 311.08028 119.555187 
L 312.040796 121.474673 
L 313.001313 123.757518 
L 315.882862 128.915643 
L 316.843378 129.895134 
L 317.803895 130.337484 
L 318.764411 130.629752 
L 319.724927 130.566559 
L 320.685444 130.242695 
L 321.64596 129.539673 
L 324.527509 126.69599 
L 325.488026 126.166749 
L 326.448542 126.016666 
L 327.409059 126.229942 
L 328.369575 126.664394 
L 329.330091 126.893468 
L 330.290608 127.588591 
L 333.172157 128.931441 
L 335.09319 129.824042 
L 337.974739 130.55866 
L 338.935256 130.637651 
L 339.895772 130.598155 
L 341.816805 130.179502 
L 343.737838 129.128919 
L 344.698354 128.481191 
L 346.619387 126.538008 
L 347.579903 125.882381 
L 348.54042 124.665917 
L 350.461452 123.212479 
L 351.421969 122.501558 
L 353.343002 121.806436 
L 354.303518 121.640554 
L 355.264034 121.664252 
L 356.224551 121.885427 
L 358.145584 122.722734 
L 361.027133 124.413145 
L 361.987649 125.08457 
L 362.948166 125.574316 
L 363.908682 125.89028 
L 365.829715 126.269438 
L 366.790231 126.482714 
L 367.750748 126.364227 
L 368.711264 125.866583 
L 369.671781 125.17936 
L 370.632297 124.176171 
L 371.592813 123.488948 
L 373.513846 121.158708 
L 374.474363 120.052831 
L 376.395395 117.224947 
L 377.355912 116.38764 
L 378.316428 115.021092 
L 379.276945 114.199584 
L 380.237461 113.077909 
L 381.197977 111.261112 
L 382.158494 110.273722 
L 385.040043 103.606865 
L 386.961076 97.390259 
L 387.921592 94.791449 
L 388.882109 93.124734 
L 389.842625 92.050454 
L 391.763658 91.481718 
L 392.724174 91.45802 
L 393.684691 91.307937 
L 394.645207 90.960376 
L 395.605724 89.93349 
L 396.56624 88.732824 
L 397.526756 84.4673 
L 398.487273 75.77037 
L 398.487273 75.77037 
" style="fill:none;stroke:#008000;stroke-linecap:square;stroke-width:1.5;"/>
   </g>
   <g id="line2d_14">
    <path clip-path="url(#pfcd79bf8b5)" d="M 73.832727 99.041175 
L 87.279957 99.120166 
L 91.122023 99.420332 
L 94.964088 99.815288 
L 96.885121 99.910078 
L 98.806154 99.783692 
L 101.687703 99.270249 
L 103.608736 98.954284 
L 104.569252 99.033276 
L 105.529769 99.286047 
L 106.490285 100.115455 
L 107.450802 101.68738 
L 108.411318 103.820142 
L 109.371834 105.581645 
L 111.292867 113.717738 
L 112.253384 118.670485 
L 114.174416 125.424232 
L 115.134933 126.585403 
L 116.095449 126.601201 
L 117.055966 125.432131 
L 118.016482 123.868106 
L 118.976998 120.171318 
L 119.937515 113.78883 
L 120.898031 109.807674 
L 122.819064 95.873628 
L 124.740097 82.429327 
L 125.700613 80.904797 
L 126.66113 82.358235 
L 127.621646 86.189308 
L 128.582162 89.412149 
L 129.542679 91.797682 
L 130.503195 93.590782 
L 131.463712 94.665063 
L 133.384744 96.047409 
L 135.305777 96.84522 
L 136.266294 97.090092 
L 139.147843 98.140675 
L 141.068876 98.488236 
L 142.989909 99.017477 
L 143.950425 99.286047 
L 145.871458 100.502512 
L 146.831974 101.529397 
L 147.792491 103.03023 
L 148.753007 105.850215 
L 150.67404 112.943624 
L 151.634556 121.032322 
L 152.595073 127.572793 
L 153.555589 132.651926 
L 154.516105 138.513073 
L 155.476622 139.903317 
L 156.437138 140.637936 
L 158.358171 139.25559 
L 159.318687 138.212906 
L 160.279204 137.754757 
L 162.200237 135.700986 
L 163.160753 134.555614 
L 167.002819 128.48909 
L 167.963335 125.827087 
L 168.923852 124.665917 
L 169.884368 122.683238 
L 172.765917 117.769986 
L 173.726434 116.561421 
L 175.647466 112.588164 
L 177.568499 105.708031 
L 178.529016 103.56737 
L 179.489532 98.946385 
L 180.450048 94.996826 
L 181.410565 92.650787 
L 183.331598 85.462589 
L 184.292114 83.535204 
L 185.25263 82.903274 
L 186.213147 82.642603 
L 187.173663 83.432515 
L 188.13418 84.585787 
L 189.094696 86.489474 
L 191.015729 89.04089 
L 192.936762 92.08995 
L 193.897278 93.172129 
L 194.857795 93.938344 
L 195.818311 95.336488 
L 196.778827 96.308079 
L 197.739344 97.097991 
L 198.69986 97.706224 
L 199.660377 98.132776 
L 202.541926 98.36185 
L 203.502442 98.322355 
L 205.423475 97.840509 
L 208.305024 96.93211 
L 209.265541 96.679338 
L 210.226057 96.592448 
L 212.14709 96.726733 
L 220.791737 98.409245 
L 228.475869 98.99378 
L 238.081033 99.041175 
L 266.896525 99.151762 
L 270.738591 99.44403 
L 276.501689 100.439319 
L 277.462205 100.447218 
L 279.383238 100.06806 
L 282.264788 98.717311 
L 283.225304 98.251263 
L 284.18582 97.911601 
L 285.146337 97.761517 
L 286.106853 97.73782 
L 288.027886 98.195969 
L 288.988402 98.488236 
L 289.948919 99.033276 
L 290.909435 99.98117 
L 291.869952 100.763183 
L 292.830468 103.575269 
L 293.790984 106.940294 
L 294.751501 112.319594 
L 295.712017 119.649976 
L 299.554083 153.552995 
L 300.514599 156.933818 
L 301.475116 156.38088 
L 302.435632 155.085424 
L 303.396148 154.295512 
L 306.277698 149.319067 
L 307.238214 147.225801 
L 308.198731 144.81657 
L 309.159247 141.388352 
L 312.040796 129.452783 
L 313.001313 124.373649 
L 313.961829 120.076529 
L 314.922345 114.444457 
L 315.882862 107.516929 
L 316.843378 101.67948 
L 317.803895 97.564039 
L 318.764411 91.315836 
L 320.685444 82.113362 
L 321.64596 77.768847 
L 322.606477 75.249028 
L 323.566993 74.056261 
L 324.527509 74.925164 
L 325.488026 76.734062 
L 326.448542 79.048504 
L 328.369575 82.421428 
L 329.330091 83.02966 
L 330.290608 84.538392 
L 331.251124 85.430992 
L 332.211641 86.600062 
L 333.172157 87.484763 
L 335.09319 89.783407 
L 337.014223 91.481718 
L 337.974739 92.871963 
L 339.895772 94.973128 
L 340.856288 96.21329 
L 341.816805 96.924211 
L 342.777321 98.061684 
L 346.619387 101.403011 
L 347.579903 101.869059 
L 348.54042 102.627375 
L 350.461452 103.433085 
L 351.421969 103.780646 
L 353.343002 103.954427 
L 354.303518 103.74115 
L 355.264034 103.330396 
L 356.224551 102.500989 
L 358.145584 100.036464 
L 359.1061 98.590925 
L 360.066616 97.398158 
L 361.027133 95.431277 
L 361.987649 93.780361 
L 362.948166 92.792971 
L 363.908682 92.311125 
L 364.869198 92.287428 
L 366.790231 92.650787 
L 367.750748 93.116835 
L 370.632297 95.652453 
L 371.592813 96.1264 
L 372.55333 96.868917 
L 374.474363 97.958995 
L 376.395395 99.428231 
L 377.355912 99.925876 
L 378.316428 100.810577 
L 380.237461 102.027042 
L 381.197977 102.698467 
L 382.158494 102.76166 
L 383.11901 102.098134 
L 384.079527 100.668393 
L 385.040043 98.662017 
L 386.000559 96.363373 
L 386.961076 95.060019 
L 387.921592 94.973128 
L 388.882109 95.454975 
L 389.842625 96.205391 
L 392.724174 97.492947 
L 393.684691 97.872105 
L 398.487273 98.89899 
L 398.487273 98.89899 
" style="fill:none;stroke:#ff0000;stroke-linecap:square;stroke-width:1.5;"/>
   </g>
   <g id="line2d_15">
    <path clip-path="url(#pfcd79bf8b5)" d="M 73.832727 99.041175 
L 87.279957 98.962183 
L 89.20099 98.8121 
L 93.043055 98.101179 
L 94.003572 97.729921 
L 94.964088 97.485048 
L 96.885121 96.726733 
L 98.806154 95.770939 
L 100.727187 95.178505 
L 102.648219 95.099514 
L 103.608736 95.304891 
L 105.529769 96.157996 
L 106.490285 97.050597 
L 107.450802 98.243364 
L 108.411318 99.633609 
L 109.371834 100.755283 
L 111.292867 106.237272 
L 114.174416 118.196538 
L 115.134933 121.387782 
L 117.055966 129.539673 
L 118.016482 132.628229 
L 119.937515 142.952377 
L 121.858548 147.360086 
L 122.819064 147.352187 
L 123.77958 144.777074 
L 127.621646 111.845647 
L 128.582162 107.659114 
L 129.542679 104.926018 
L 130.503195 103.456782 
L 131.463712 102.816954 
L 132.424228 102.382502 
L 133.384744 102.074436 
L 135.305777 101.932252 
L 137.22681 101.900656 
L 140.108359 101.387213 
L 142.989909 100.478814 
L 145.871458 99.862683 
L 147.792491 99.309745 
L 149.713523 98.195969 
L 150.67404 97.55614 
L 153.555589 92.113647 
L 154.516105 90.162565 
L 155.476622 89.57803 
L 158.358171 85.00444 
L 159.318687 83.045459 
L 160.279204 82.255547 
L 163.160753 77.555571 
L 165.081786 73.88248 
L 167.002819 71.212578 
L 167.963335 69.119312 
L 168.923852 68.282005 
L 169.884368 66.98655 
L 170.844884 66.038655 
L 171.805401 64.91698 
L 172.765917 62.85531 
L 173.726434 61.670442 
L 176.607983 56.867778 
L 177.568499 55.738204 
L 179.489532 54.845604 
L 180.450048 55.240559 
L 181.410565 55.888287 
L 182.371081 57.712984 
L 187.173663 74.482813 
L 188.13418 76.655071 
L 189.094696 79.135395 
L 190.055212 80.359758 
L 191.976245 82.295042 
L 192.936762 83.116551 
L 193.897278 83.716884 
L 194.857795 84.175033 
L 195.818311 85.067633 
L 197.739344 86.378887 
L 198.69986 86.923926 
L 199.660377 87.33468 
L 201.581409 87.666443 
L 203.502442 87.397873 
L 205.423475 86.852834 
L 206.383991 86.868632 
L 207.344508 87.200395 
L 208.305024 87.856022 
L 209.265541 89.001394 
L 210.226057 89.917692 
L 211.186573 91.363231 
L 212.14709 92.326923 
L 213.107606 93.456497 
L 214.068123 94.080528 
L 215.028639 95.012624 
L 215.989155 95.660352 
L 218.870705 97.042698 
L 220.791737 97.887903 
L 225.59432 98.764705 
L 229.436385 99.001679 
L 235.199484 99.041175 
L 266.896525 99.143863 
L 270.738591 99.515122 
L 273.62014 100.391924 
L 274.580656 100.802678 
L 276.501689 102.279813 
L 277.462205 103.219809 
L 278.422722 103.986023 
L 280.343755 105.00501 
L 281.304271 105.210387 
L 282.264788 105.162992 
L 283.225304 104.831229 
L 285.146337 103.709554 
L 287.06737 102.240318 
L 288.027886 101.711077 
L 289.948919 100.921165 
L 290.909435 100.463016 
L 291.869952 100.226042 
L 294.751501 98.606723 
L 295.712017 97.73782 
L 296.672534 96.418667 
L 297.63305 94.60187 
L 298.593566 92.184739 
L 299.554083 91.134156 
L 300.514599 89.886096 
L 301.475116 87.42157 
L 302.435632 84.040748 
L 303.396148 82.247648 
L 304.356665 79.00111 
L 307.238214 70.556951 
L 308.198731 67.618479 
L 310.119763 60.675153 
L 311.08028 57.436515 
L 313.001313 52.475868 
L 314.922345 48.929163 
L 315.882862 47.538918 
L 316.843378 47.001778 
L 317.803895 46.970182 
L 318.764411 47.807488 
L 319.724927 49.418909 
L 320.685444 51.954526 
L 321.64596 56.536015 
L 322.606477 62.199683 
L 323.566993 66.512602 
L 324.527509 72.737108 
L 325.488026 76.726163 
L 326.448542 79.71203 
L 327.409059 81.102275 
L 328.369575 81.876389 
L 330.290608 82.121262 
L 337.974739 82.350336 
L 340.856288 82.784788 
L 345.65887 83.472011 
L 347.579903 83.250836 
L 349.500936 82.113362 
L 350.461452 81.347148 
L 351.421969 80.170179 
L 352.382485 79.35657 
L 356.224551 73.471726 
L 357.185067 72.278959 
L 358.145584 71.607534 
L 359.1061 71.331065 
L 360.066616 71.449552 
L 361.027133 72.342152 
L 362.948166 75.999444 
L 364.869198 80.549337 
L 365.829715 83.163945 
L 366.790231 84.988642 
L 367.750748 86.276198 
L 368.711264 87.800728 
L 370.632297 90.265253 
L 371.592813 90.912981 
L 372.55333 91.868775 
L 375.434879 94.080528 
L 376.395395 95.020523 
L 377.355912 95.691948 
L 378.316428 97.050597 
L 379.276945 98.053785 
L 380.237461 99.61781 
L 381.197977 102.437796 
L 382.158494 103.978124 
L 383.11901 107.003487 
L 384.079527 108.891376 
L 385.040043 109.610196 
L 386.000559 108.559613 
L 387.921592 103.243506 
L 388.882109 101.316121 
L 389.842625 99.767894 
L 390.803141 99.135964 
L 391.763658 98.669916 
L 392.724174 98.496135 
L 394.645207 98.590925 
L 397.526756 98.859495 
L 398.487273 98.89899 
L 398.487273 98.89899 
" style="fill:none;stroke:#000000;stroke-linecap:square;stroke-width:1.5;"/>
   </g>
   <g id="patch_3">
    <path d="M 57.6 162.432 
L 57.6 41.472 
" style="fill:none;stroke:#000000;stroke-linecap:square;stroke-linejoin:miter;stroke-width:0.8;"/>
   </g>
   <g id="patch_4">
    <path d="M 414.72 162.432 
L 414.72 41.472 
" style="fill:none;stroke:#000000;stroke-linecap:square;stroke-linejoin:miter;stroke-width:0.8;"/>
   </g>
   <g id="patch_5">
    <path d="M 57.6 162.432 
L 414.72 162.432 
" style="fill:none;stroke:#000000;stroke-linecap:square;stroke-linejoin:miter;stroke-width:0.8;"/>
   </g>
   <g id="patch_6">
    <path d="M 57.6 41.472 
L 414.72 41.472 
" style="fill:none;stroke:#000000;stroke-linecap:square;stroke-linejoin:miter;stroke-width:0.8;"/>
   </g>
   <g id="legend_1">
    <g id="patch_7">
     <path d="M 337.61375 157.432 
L 407.72 157.432 
Q 409.72 157.432 409.72 155.432 
L 409.72 97.7195 
Q 409.72 95.7195 407.72 95.7195 
L 337.61375 95.7195 
Q 335.61375 95.7195 335.61375 97.7195 
L 335.61375 155.432 
Q 335.61375 157.432 337.61375 157.432 
z
" style="fill:#ffffff;opacity:0.8;stroke:#cccccc;stroke-linejoin:miter;"/>
    </g>
    <g id="line2d_16">
     <path d="M 339.61375 103.817937 
L 359.61375 103.817937 
" style="fill:none;stroke:#0000ff;stroke-linecap:square;stroke-width:1.5;"/>
    </g>
    <g id="line2d_17"/>
    <g id="text_12">
     <!-- target r -->
     <defs>
      <path d="M 18.3125 70.21875 
L 18.3125 54.6875 
L 36.8125 54.6875 
L 36.8125 47.703125 
L 18.3125 47.703125 
L 18.3125 18.015625 
Q 18.3125 11.328125 20.140625 9.421875 
Q 21.96875 7.515625 27.59375 7.515625 
L 36.8125 7.515625 
L 36.8125 0 
L 27.59375 0 
Q 17.1875 0 13.234375 3.875 
Q 9.28125 7.765625 9.28125 18.015625 
L 9.28125 47.703125 
L 2.6875 47.703125 
L 2.6875 54.6875 
L 9.28125 54.6875 
L 9.28125 70.21875 
z
" id="DejaVuSans-74"/>
      <path d="M 34.28125 27.484375 
Q 23.390625 27.484375 19.1875 25 
Q 14.984375 22.515625 14.984375 16.5 
Q 14.984375 11.71875 18.140625 8.90625 
Q 21.296875 6.109375 26.703125 6.109375 
Q 34.1875 6.109375 38.703125 11.40625 
Q 43.21875 16.703125 43.21875 25.484375 
L 43.21875 27.484375 
z
M 52.203125 31.203125 
L 52.203125 0 
L 43.21875 0 
L 43.21875 8.296875 
Q 40.140625 3.328125 35.546875 0.953125 
Q 30.953125 -1.421875 24.3125 -1.421875 
Q 15.921875 -1.421875 10.953125 3.296875 
Q 6 8.015625 6 15.921875 
Q 6 25.140625 12.171875 29.828125 
Q 18.359375 34.515625 30.609375 34.515625 
L 43.21875 34.515625 
L 43.21875 35.40625 
Q 43.21875 41.609375 39.140625 45 
Q 35.0625 48.390625 27.6875 48.390625 
Q 23 48.390625 18.546875 47.265625 
Q 14.109375 46.140625 10.015625 43.890625 
L 10.015625 52.203125 
Q 14.9375 54.109375 19.578125 55.046875 
Q 24.21875 56 28.609375 56 
Q 40.484375 56 46.34375 49.84375 
Q 52.203125 43.703125 52.203125 31.203125 
z
" id="DejaVuSans-61"/>
      <path d="M 41.109375 46.296875 
Q 39.59375 47.171875 37.8125 47.578125 
Q 36.03125 48 33.890625 48 
Q 26.265625 48 22.1875 43.046875 
Q 18.109375 38.09375 18.109375 28.8125 
L 18.109375 0 
L 9.078125 0 
L 9.078125 54.6875 
L 18.109375 54.6875 
L 18.109375 46.1875 
Q 20.953125 51.171875 25.484375 53.578125 
Q 30.03125 56 36.53125 56 
Q 37.453125 56 38.578125 55.875 
Q 39.703125 55.765625 41.0625 55.515625 
z
" id="DejaVuSans-72"/>
      <path d="M 45.40625 27.984375 
Q 45.40625 37.75 41.375 43.109375 
Q 37.359375 48.484375 30.078125 48.484375 
Q 22.859375 48.484375 18.828125 43.109375 
Q 14.796875 37.75 14.796875 27.984375 
Q 14.796875 18.265625 18.828125 12.890625 
Q 22.859375 7.515625 30.078125 7.515625 
Q 37.359375 7.515625 41.375 12.890625 
Q 45.40625 18.265625 45.40625 27.984375 
z
M 54.390625 6.78125 
Q 54.390625 -7.171875 48.1875 -13.984375 
Q 42 -20.796875 29.203125 -20.796875 
Q 24.46875 -20.796875 20.265625 -20.09375 
Q 16.0625 -19.390625 12.109375 -17.921875 
L 12.109375 -9.1875 
Q 16.0625 -11.328125 19.921875 -12.34375 
Q 23.78125 -13.375 27.78125 -13.375 
Q 36.625 -13.375 41.015625 -8.765625 
Q 45.40625 -4.15625 45.40625 5.171875 
L 45.40625 9.625 
Q 42.625 4.78125 38.28125 2.390625 
Q 33.9375 0 27.875 0 
Q 17.828125 0 11.671875 7.65625 
Q 5.515625 15.328125 5.515625 27.984375 
Q 5.515625 40.671875 11.671875 48.328125 
Q 17.828125 56 27.875 56 
Q 33.9375 56 38.28125 53.609375 
Q 42.625 51.21875 45.40625 46.390625 
L 45.40625 54.6875 
L 54.390625 54.6875 
z
" id="DejaVuSans-67"/>
      <path d="M 56.203125 29.59375 
L 56.203125 25.203125 
L 14.890625 25.203125 
Q 15.484375 15.921875 20.484375 11.0625 
Q 25.484375 6.203125 34.421875 6.203125 
Q 39.59375 6.203125 44.453125 7.46875 
Q 49.3125 8.734375 54.109375 11.28125 
L 54.109375 2.78125 
Q 49.265625 0.734375 44.1875 -0.34375 
Q 39.109375 -1.421875 33.890625 -1.421875 
Q 20.796875 -1.421875 13.15625 6.1875 
Q 5.515625 13.8125 5.515625 26.8125 
Q 5.515625 40.234375 12.765625 48.109375 
Q 20.015625 56 32.328125 56 
Q 43.359375 56 49.78125 48.890625 
Q 56.203125 41.796875 56.203125 29.59375 
z
M 47.21875 32.234375 
Q 47.125 39.59375 43.09375 43.984375 
Q 39.0625 48.390625 32.421875 48.390625 
Q 24.90625 48.390625 20.390625 44.140625 
Q 15.875 39.890625 15.1875 32.171875 
z
" id="DejaVuSans-65"/>
      <path id="DejaVuSans-20"/>
     </defs>
     <g transform="translate(367.61375 107.317937)scale(0.1 -0.1)">
      <use xlink:href="#DejaVuSans-74"/>
      <use x="39.208984" xlink:href="#DejaVuSans-61"/>
      <use x="100.488281" xlink:href="#DejaVuSans-72"/>
      <use x="141.585938" xlink:href="#DejaVuSans-67"/>
      <use x="205.0625" xlink:href="#DejaVuSans-65"/>
      <use x="266.585938" xlink:href="#DejaVuSans-74"/>
      <use x="305.794922" xlink:href="#DejaVuSans-20"/>
      <use x="337.582031" xlink:href="#DejaVuSans-72"/>
     </g>
    </g>
    <g id="line2d_18">
     <path d="M 339.61375 118.496062 
L 359.61375 118.496062 
" style="fill:none;stroke:#008000;stroke-linecap:square;stroke-width:1.5;"/>
    </g>
    <g id="line2d_19"/>
    <g id="text_13">
     <!-- target t -->
     <g transform="translate(367.61375 121.996062)scale(0.1 -0.1)">
      <use xlink:href="#DejaVuSans-74"/>
      <use x="39.208984" xlink:href="#DejaVuSans-61"/>
      <use x="100.488281" xlink:href="#DejaVuSans-72"/>
      <use x="141.585938" xlink:href="#DejaVuSans-67"/>
      <use x="205.0625" xlink:href="#DejaVuSans-65"/>
      <use x="266.585938" xlink:href="#DejaVuSans-74"/>
      <use x="305.794922" xlink:href="#DejaVuSans-20"/>
      <use x="337.582031" xlink:href="#DejaVuSans-74"/>
     </g>
    </g>
    <g id="line2d_20">
     <path d="M 339.61375 133.174187 
L 359.61375 133.174187 
" style="fill:none;stroke:#ff0000;stroke-linecap:square;stroke-width:1.5;"/>
    </g>
    <g id="line2d_21"/>
    <g id="text_14">
     <!-- object r -->
     <defs>
      <path d="M 30.609375 48.390625 
Q 23.390625 48.390625 19.1875 42.75 
Q 14.984375 37.109375 14.984375 27.296875 
Q 14.984375 17.484375 19.15625 11.84375 
Q 23.34375 6.203125 30.609375 6.203125 
Q 37.796875 6.203125 41.984375 11.859375 
Q 46.1875 17.53125 46.1875 27.296875 
Q 46.1875 37.015625 41.984375 42.703125 
Q 37.796875 48.390625 30.609375 48.390625 
z
M 30.609375 56 
Q 42.328125 56 49.015625 48.375 
Q 55.71875 40.765625 55.71875 27.296875 
Q 55.71875 13.875 49.015625 6.21875 
Q 42.328125 -1.421875 30.609375 -1.421875 
Q 18.84375 -1.421875 12.171875 6.21875 
Q 5.515625 13.875 5.515625 27.296875 
Q 5.515625 40.765625 12.171875 48.375 
Q 18.84375 56 30.609375 56 
z
" id="DejaVuSans-6f"/>
      <path d="M 48.6875 27.296875 
Q 48.6875 37.203125 44.609375 42.84375 
Q 40.53125 48.484375 33.40625 48.484375 
Q 26.265625 48.484375 22.1875 42.84375 
Q 18.109375 37.203125 18.109375 27.296875 
Q 18.109375 17.390625 22.1875 11.75 
Q 26.265625 6.109375 33.40625 6.109375 
Q 40.53125 6.109375 44.609375 11.75 
Q 48.6875 17.390625 48.6875 27.296875 
z
M 18.109375 46.390625 
Q 20.953125 51.265625 25.265625 53.625 
Q 29.59375 56 35.59375 56 
Q 45.5625 56 51.78125 48.09375 
Q 58.015625 40.1875 58.015625 27.296875 
Q 58.015625 14.40625 51.78125 6.484375 
Q 45.5625 -1.421875 35.59375 -1.421875 
Q 29.59375 -1.421875 25.265625 0.953125 
Q 20.953125 3.328125 18.109375 8.203125 
L 18.109375 0 
L 9.078125 0 
L 9.078125 75.984375 
L 18.109375 75.984375 
z
" id="DejaVuSans-62"/>
      <path d="M 9.421875 54.6875 
L 18.40625 54.6875 
L 18.40625 -0.984375 
Q 18.40625 -11.421875 14.421875 -16.109375 
Q 10.453125 -20.796875 1.609375 -20.796875 
L -1.8125 -20.796875 
L -1.8125 -13.1875 
L 0.59375 -13.1875 
Q 5.71875 -13.1875 7.5625 -10.8125 
Q 9.421875 -8.453125 9.421875 -0.984375 
z
M 9.421875 75.984375 
L 18.40625 75.984375 
L 18.40625 64.59375 
L 9.421875 64.59375 
z
" id="DejaVuSans-6a"/>
      <path d="M 48.78125 52.59375 
L 48.78125 44.1875 
Q 44.96875 46.296875 41.140625 47.34375 
Q 37.3125 48.390625 33.40625 48.390625 
Q 24.65625 48.390625 19.8125 42.84375 
Q 14.984375 37.3125 14.984375 27.296875 
Q 14.984375 17.28125 19.8125 11.734375 
Q 24.65625 6.203125 33.40625 6.203125 
Q 37.3125 6.203125 41.140625 7.25 
Q 44.96875 8.296875 48.78125 10.40625 
L 48.78125 2.09375 
Q 45.015625 0.34375 40.984375 -0.53125 
Q 36.96875 -1.421875 32.421875 -1.421875 
Q 20.0625 -1.421875 12.78125 6.34375 
Q 5.515625 14.109375 5.515625 27.296875 
Q 5.515625 40.671875 12.859375 48.328125 
Q 20.21875 56 33.015625 56 
Q 37.15625 56 41.109375 55.140625 
Q 45.0625 54.296875 48.78125 52.59375 
z
" id="DejaVuSans-63"/>
     </defs>
     <g transform="translate(367.61375 136.674187)scale(0.1 -0.1)">
      <use xlink:href="#DejaVuSans-6f"/>
      <use x="61.181641" xlink:href="#DejaVuSans-62"/>
      <use x="124.658203" xlink:href="#DejaVuSans-6a"/>
      <use x="152.441406" xlink:href="#DejaVuSans-65"/>
      <use x="213.964844" xlink:href="#DejaVuSans-63"/>
      <use x="268.945312" xlink:href="#DejaVuSans-74"/>
      <use x="308.154297" xlink:href="#DejaVuSans-20"/>
      <use x="339.941406" xlink:href="#DejaVuSans-72"/>
     </g>
    </g>
    <g id="line2d_22">
     <path d="M 339.61375 147.852312 
L 359.61375 147.852312 
" style="fill:none;stroke:#000000;stroke-linecap:square;stroke-width:1.5;"/>
    </g>
    <g id="line2d_23"/>
    <g id="text_15">
     <!-- object t -->
     <g transform="translate(367.61375 151.352312)scale(0.1 -0.1)">
      <use xlink:href="#DejaVuSans-6f"/>
      <use x="61.181641" xlink:href="#DejaVuSans-62"/>
      <use x="124.658203" xlink:href="#DejaVuSans-6a"/>
      <use x="152.441406" xlink:href="#DejaVuSans-65"/>
      <use x="213.964844" xlink:href="#DejaVuSans-63"/>
      <use x="268.945312" xlink:href="#DejaVuSans-74"/>
      <use x="308.154297" xlink:href="#DejaVuSans-20"/>
      <use x="339.941406" xlink:href="#DejaVuSans-74"/>
     </g>
    </g>
   </g>
  </g>
  <g id="axes_2">
   <g id="patch_8">
    <path d="M 57.6 307.584 
L 414.72 307.584 
L 414.72 186.624 
L 57.6 186.624 
z
" style="fill:#ffffff;"/>
   </g>
   <g id="matplotlib.axis_3">
    <g id="xtick_9">
     <g id="line2d_24">
      <g>
       <use style="stroke:#000000;stroke-width:0.8;" x="73.832727" xlink:href="#m1b21a796cd" y="307.584"/>
      </g>
     </g>
     <g id="text_16">
      <!-- 0 -->
      <g transform="translate(70.651477 322.182437)scale(0.1 -0.1)">
       <use xlink:href="#DejaVuSans-30"/>
      </g>
     </g>
    </g>
    <g id="xtick_10">
     <g id="line2d_25">
      <g>
       <use style="stroke:#000000;stroke-width:0.8;" x="121.858548" xlink:href="#m1b21a796cd" y="307.584"/>
      </g>
     </g>
     <g id="text_17">
      <!-- 50 -->
      <g transform="translate(115.496048 322.182437)scale(0.1 -0.1)">
       <use xlink:href="#DejaVuSans-35"/>
       <use x="63.623047" xlink:href="#DejaVuSans-30"/>
      </g>
     </g>
    </g>
    <g id="xtick_11">
     <g id="line2d_26">
      <g>
       <use style="stroke:#000000;stroke-width:0.8;" x="169.884368" xlink:href="#m1b21a796cd" y="307.584"/>
      </g>
     </g>
     <g id="text_18">
      <!-- 100 -->
      <g transform="translate(160.340618 322.182437)scale(0.1 -0.1)">
       <use xlink:href="#DejaVuSans-31"/>
       <use x="63.623047" xlink:href="#DejaVuSans-30"/>
       <use x="127.246094" xlink:href="#DejaVuSans-30"/>
      </g>
     </g>
    </g>
    <g id="xtick_12">
     <g id="line2d_27">
      <g>
       <use style="stroke:#000000;stroke-width:0.8;" x="217.910188" xlink:href="#m1b21a796cd" y="307.584"/>
      </g>
     </g>
     <g id="text_19">
      <!-- 150 -->
      <g transform="translate(208.366438 322.182437)scale(0.1 -0.1)">
       <use xlink:href="#DejaVuSans-31"/>
       <use x="63.623047" xlink:href="#DejaVuSans-35"/>
       <use x="127.246094" xlink:href="#DejaVuSans-30"/>
      </g>
     </g>
    </g>
    <g id="xtick_13">
     <g id="line2d_28">
      <g>
       <use style="stroke:#000000;stroke-width:0.8;" x="265.936009" xlink:href="#m1b21a796cd" y="307.584"/>
      </g>
     </g>
     <g id="text_20">
      <!-- 200 -->
      <g transform="translate(256.392259 322.182437)scale(0.1 -0.1)">
       <use xlink:href="#DejaVuSans-32"/>
       <use x="63.623047" xlink:href="#DejaVuSans-30"/>
       <use x="127.246094" xlink:href="#DejaVuSans-30"/>
      </g>
     </g>
    </g>
    <g id="xtick_14">
     <g id="line2d_29">
      <g>
       <use style="stroke:#000000;stroke-width:0.8;" x="313.961829" xlink:href="#m1b21a796cd" y="307.584"/>
      </g>
     </g>
     <g id="text_21">
      <!-- 250 -->
      <g transform="translate(304.418079 322.182437)scale(0.1 -0.1)">
       <use xlink:href="#DejaVuSans-32"/>
       <use x="63.623047" xlink:href="#DejaVuSans-35"/>
       <use x="127.246094" xlink:href="#DejaVuSans-30"/>
      </g>
     </g>
    </g>
    <g id="xtick_15">
     <g id="line2d_30">
      <g>
       <use style="stroke:#000000;stroke-width:0.8;" x="361.987649" xlink:href="#m1b21a796cd" y="307.584"/>
      </g>
     </g>
     <g id="text_22">
      <!-- 300 -->
      <g transform="translate(352.443899 322.182437)scale(0.1 -0.1)">
       <use xlink:href="#DejaVuSans-33"/>
       <use x="63.623047" xlink:href="#DejaVuSans-30"/>
       <use x="127.246094" xlink:href="#DejaVuSans-30"/>
      </g>
     </g>
    </g>
    <g id="xtick_16">
     <g id="line2d_31">
      <g>
       <use style="stroke:#000000;stroke-width:0.8;" x="410.01347" xlink:href="#m1b21a796cd" y="307.584"/>
      </g>
     </g>
     <g id="text_23">
      <!-- 350 -->
      <g transform="translate(400.46972 322.182437)scale(0.1 -0.1)">
       <use xlink:href="#DejaVuSans-33"/>
       <use x="63.623047" xlink:href="#DejaVuSans-35"/>
       <use x="127.246094" xlink:href="#DejaVuSans-30"/>
      </g>
     </g>
    </g>
   </g>
   <g id="matplotlib.axis_4">
    <g id="ytick_4">
     <g id="line2d_32">
      <g>
       <use style="stroke:#000000;stroke-width:0.8;" x="57.6" xlink:href="#m29bcb356c2" y="288.920724"/>
      </g>
     </g>
     <g id="text_24">
      <!-- −1 -->
      <g transform="translate(35.857813 292.719943)scale(0.1 -0.1)">
       <use xlink:href="#DejaVuSans-2212"/>
       <use x="83.789062" xlink:href="#DejaVuSans-31"/>
      </g>
     </g>
    </g>
    <g id="ytick_5">
     <g id="line2d_33">
      <g>
       <use style="stroke:#000000;stroke-width:0.8;" x="57.6" xlink:href="#m29bcb356c2" y="263.297732"/>
      </g>
     </g>
     <g id="text_25">
      <!-- 0 -->
      <g transform="translate(44.2375 267.09695)scale(0.1 -0.1)">
       <use xlink:href="#DejaVuSans-30"/>
      </g>
     </g>
    </g>
    <g id="ytick_6">
     <g id="line2d_34">
      <g>
       <use style="stroke:#000000;stroke-width:0.8;" x="57.6" xlink:href="#m29bcb356c2" y="237.674739"/>
      </g>
     </g>
     <g id="text_26">
      <!-- 1 -->
      <g transform="translate(44.2375 241.473957)scale(0.1 -0.1)">
       <use xlink:href="#DejaVuSans-31"/>
      </g>
     </g>
    </g>
    <g id="ytick_7">
     <g id="line2d_35">
      <g>
       <use style="stroke:#000000;stroke-width:0.8;" x="57.6" xlink:href="#m29bcb356c2" y="212.051746"/>
      </g>
     </g>
     <g id="text_27">
      <!-- 2 -->
      <g transform="translate(44.2375 215.850964)scale(0.1 -0.1)">
       <use xlink:href="#DejaVuSans-32"/>
      </g>
     </g>
    </g>
    <g id="ytick_8">
     <g id="line2d_36">
      <g>
       <use style="stroke:#000000;stroke-width:0.8;" x="57.6" xlink:href="#m29bcb356c2" y="186.428753"/>
      </g>
     </g>
     <g id="text_28">
      <!-- 3 -->
      <g transform="translate(44.2375 190.227972)scale(0.1 -0.1)">
       <use xlink:href="#DejaVuSans-33"/>
      </g>
     </g>
    </g>
   </g>
   <g id="line2d_37">
    <path clip-path="url(#p518478797a)" d="M 73.832727 246.355809 
L 75.75376 246.394243 
L 76.714276 247.429412 
L 77.674793 249.082095 
L 78.635309 251.552152 
L 79.595826 252.948605 
L 81.516859 256.484578 
L 82.477375 257.358322 
L 84.398408 259.569586 
L 85.358924 260.361337 
L 88.240473 261.488748 
L 90.161506 261.867969 
L 93.043055 261.9474 
L 99.76667 261.3017 
L 101.687703 261.555368 
L 102.648219 261.898716 
L 103.608736 262.367617 
L 105.529769 263.471968 
L 106.490285 264.363648 
L 107.450802 265.508996 
L 108.411318 266.887513 
L 109.371834 268.068733 
L 110.332351 271.417658 
L 111.292867 276.370582 
L 112.253384 284.329084 
L 113.2139 290.950065 
L 114.174416 296.612747 
L 115.134933 298.642088 
L 116.095449 299.272414 
L 117.055966 298.762516 
L 118.016482 297.916957 
L 118.976998 295.982421 
L 119.937515 292.833355 
L 120.898031 290.919318 
L 122.819064 283.762816 
L 123.77958 279.066121 
L 127.621646 245.059285 
L 128.582162 240.559888 
L 129.542679 238.251256 
L 130.503195 238.753467 
L 131.463712 240.839178 
L 132.424228 243.391228 
L 133.384744 246.642786 
L 134.345261 249.315264 
L 135.305777 251.547027 
L 136.266294 252.892234 
L 137.22681 254.596163 
L 138.187327 256.704935 
L 139.147843 257.711919 
L 140.108359 258.103951 
L 142.029392 259.39535 
L 142.989909 259.851439 
L 145.871458 260.468953 
L 147.792491 260.520199 
L 148.753007 260.202474 
L 149.713523 259.449158 
L 150.67404 258.029644 
L 151.634556 251.393289 
L 152.595073 235.089379 
L 153.555589 216.069431 
L 154.516105 204.36741 
L 155.476622 202.904337 
L 156.437138 202.681417 
L 158.358171 205.054106 
L 159.318687 206.62992 
L 160.279204 207.283307 
L 163.160753 211.403484 
L 165.081786 214.962518 
L 167.002819 217.883539 
L 167.963335 220.397154 
L 168.923852 221.463071 
L 169.884368 223.195185 
L 170.844884 224.555766 
L 171.805401 225.570437 
L 172.765917 226.36475 
L 173.726434 226.920768 
L 175.647466 229.019292 
L 177.568499 233.011354 
L 178.529016 234.325813 
L 180.450048 240.293408 
L 181.410565 242.32275 
L 182.371081 246.255879 
L 185.25263 263.802504 
L 187.173663 277.152084 
L 189.094696 286.012515 
L 190.055212 287.688258 
L 191.015729 288.636309 
L 191.976245 288.910475 
L 192.936762 288.587626 
L 194.857795 287.475588 
L 196.778827 284.585314 
L 198.69986 281.128772 
L 199.660377 279.191674 
L 200.620893 277.923336 
L 201.581409 275.952928 
L 202.541926 273.43675 
L 203.502442 272.306776 
L 204.462959 270.800144 
L 205.423475 269.047531 
L 206.383991 267.817627 
L 207.344508 267.243672 
L 208.305024 267.17449 
L 210.226057 267.858624 
L 211.186573 268.381333 
L 213.107606 268.93479 
L 215.028639 268.955288 
L 216.949672 268.673435 
L 218.870705 268.145602 
L 220.791737 267.297481 
L 221.752254 267.038688 
L 223.673287 266.285372 
L 227.515352 265.191271 
L 228.475869 265.024721 
L 231.357418 265.081092 
L 232.317934 265.083654 
L 233.278451 265.596114 
L 234.238967 265.90359 
L 235.199484 265.995833 
L 236.16 266.749149 
L 237.120516 267.056625 
L 238.081033 266.641532 
L 240.002066 265.137462 
L 240.962582 263.866562 
L 242.883615 262.057579 
L 243.844131 261.342697 
L 244.804648 261.027534 
L 245.765164 260.88917 
L 248.646713 261.253017 
L 256.330845 262.611035 
L 260.17291 263.02869 
L 266.896525 263.336166 
L 270.738591 263.687201 
L 273.62014 264.3329 
L 274.580656 264.617316 
L 277.462205 265.95996 
L 278.422722 266.218753 
L 279.383238 266.275123 
L 280.343755 266.129072 
L 282.264788 265.193833 
L 287.06737 261.283764 
L 288.027886 260.871234 
L 289.948919 260.430519 
L 292.830468 260.046174 
L 293.790984 259.625957 
L 294.751501 258.344807 
L 295.712017 254.065767 
L 296.672534 234.351436 
L 297.63305 202.553302 
L 298.593566 195.122634 
L 299.554083 192.493715 
L 300.514599 192.122182 
L 301.475116 193.247031 
L 302.435632 194.907401 
L 303.396148 195.814455 
L 304.356665 197.500448 
L 306.277698 200.552146 
L 308.198731 204.065059 
L 310.119763 208.95905 
L 311.08028 211.595656 
L 312.040796 213.753112 
L 313.001313 216.566517 
L 313.961829 218.849526 
L 314.922345 221.750049 
L 315.882862 225.196341 
L 316.843378 228.030244 
L 317.803895 230.049336 
L 318.764411 233.452069 
L 320.685444 239.583652 
L 321.64596 244.208602 
L 323.566993 255.203428 
L 326.448542 292.52588 
L 327.409059 297.981015 
L 328.369575 300.755985 
L 330.290608 301.973077 
L 331.251124 302.085818 
L 332.211641 301.937205 
L 333.172157 301.624604 
L 334.132673 301.045525 
L 337.014223 298.923941 
L 338.935256 296.438511 
L 339.895772 295.188108 
L 340.856288 293.596921 
L 341.816805 292.49257 
L 343.737838 288.841293 
L 344.698354 287.019498 
L 346.619387 282.304868 
L 347.579903 280.716242 
L 348.54042 277.659419 
L 350.461452 273.218954 
L 351.421969 270.323556 
L 352.382485 268.537634 
L 354.303518 262.982569 
L 356.224551 259.523465 
L 357.185067 258.624098 
L 358.145584 258.52673 
L 359.1061 259.008443 
L 360.066616 259.795068 
L 361.027133 261.783413 
L 365.829715 275.209861 
L 366.790231 277.277636 
L 367.750748 278.387112 
L 368.711264 279.212172 
L 369.671781 279.473527 
L 370.632297 279.386409 
L 371.592813 279.14299 
L 376.395395 276.309087 
L 377.355912 276.150225 
L 378.316428 276.157912 
L 379.276945 276.332148 
L 380.237461 276.708806 
L 381.197977 277.385253 
L 382.158494 277.636358 
L 383.11901 277.58255 
L 384.079527 276.649873 
L 385.040043 274.728149 
L 386.000559 271.269045 
L 387.921592 263.264422 
L 388.882109 260.612442 
L 389.842625 258.583101 
L 391.763658 257.184085 
L 394.645207 256.52045 
L 395.605724 255.713326 
L 396.56624 254.721716 
L 397.526756 251.00382 
L 398.487273 242.092143 
L 398.487273 242.092143 
" style="fill:none;stroke:#1f77b4;stroke-dasharray:5.55,2.4;stroke-dashoffset:0;stroke-width:1.5;"/>
   </g>
   <g id="patch_9">
    <path d="M 57.6 307.584 
L 57.6 186.624 
" style="fill:none;stroke:#000000;stroke-linecap:square;stroke-linejoin:miter;stroke-width:0.8;"/>
   </g>
   <g id="patch_10">
    <path d="M 414.72 307.584 
L 414.72 186.624 
" style="fill:none;stroke:#000000;stroke-linecap:square;stroke-linejoin:miter;stroke-width:0.8;"/>
   </g>
   <g id="patch_11">
    <path d="M 57.6 307.584 
L 414.72 307.584 
" style="fill:none;stroke:#000000;stroke-linecap:square;stroke-linejoin:miter;stroke-width:0.8;"/>
   </g>
   <g id="patch_12">
    <path d="M 57.6 186.624 
L 414.72 186.624 
" style="fill:none;stroke:#000000;stroke-linecap:square;stroke-linejoin:miter;stroke-width:0.8;"/>
   </g>
   <g id="legend_2">
    <g id="patch_13">
     <path d="M 360.255938 209.302125 
L 407.72 209.302125 
Q 409.72 209.302125 409.72 207.302125 
L 409.72 193.624 
Q 409.72 191.624 407.72 191.624 
L 360.255938 191.624 
Q 358.255938 191.624 358.255938 193.624 
L 358.255938 207.302125 
Q 358.255938 209.302125 360.255938 209.302125 
z
" style="fill:#ffffff;opacity:0.8;stroke:#cccccc;stroke-linejoin:miter;"/>
    </g>
    <g id="line2d_38">
     <path d="M 362.255938 199.722437 
L 382.255938 199.722437 
" style="fill:none;stroke:#1f77b4;stroke-dasharray:5.55,2.4;stroke-dashoffset:0;stroke-width:1.5;"/>
    </g>
    <g id="line2d_39"/>
    <g id="text_29">
     <!-- phi -->
     <defs>
      <path d="M 18.109375 8.203125 
L 18.109375 -20.796875 
L 9.078125 -20.796875 
L 9.078125 54.6875 
L 18.109375 54.6875 
L 18.109375 46.390625 
Q 20.953125 51.265625 25.265625 53.625 
Q 29.59375 56 35.59375 56 
Q 45.5625 56 51.78125 48.09375 
Q 58.015625 40.1875 58.015625 27.296875 
Q 58.015625 14.40625 51.78125 6.484375 
Q 45.5625 -1.421875 35.59375 -1.421875 
Q 29.59375 -1.421875 25.265625 0.953125 
Q 20.953125 3.328125 18.109375 8.203125 
z
M 48.6875 27.296875 
Q 48.6875 37.203125 44.609375 42.84375 
Q 40.53125 48.484375 33.40625 48.484375 
Q 26.265625 48.484375 22.1875 42.84375 
Q 18.109375 37.203125 18.109375 27.296875 
Q 18.109375 17.390625 22.1875 11.75 
Q 26.265625 6.109375 33.40625 6.109375 
Q 40.53125 6.109375 44.609375 11.75 
Q 48.6875 17.390625 48.6875 27.296875 
z
" id="DejaVuSans-70"/>
      <path d="M 54.890625 33.015625 
L 54.890625 0 
L 45.90625 0 
L 45.90625 32.71875 
Q 45.90625 40.484375 42.875 44.328125 
Q 39.84375 48.1875 33.796875 48.1875 
Q 26.515625 48.1875 22.3125 43.546875 
Q 18.109375 38.921875 18.109375 30.90625 
L 18.109375 0 
L 9.078125 0 
L 9.078125 75.984375 
L 18.109375 75.984375 
L 18.109375 46.1875 
Q 21.34375 51.125 25.703125 53.5625 
Q 30.078125 56 35.796875 56 
Q 45.21875 56 50.046875 50.171875 
Q 54.890625 44.34375 54.890625 33.015625 
z
" id="DejaVuSans-68"/>
      <path d="M 9.421875 54.6875 
L 18.40625 54.6875 
L 18.40625 0 
L 9.421875 0 
z
M 9.421875 75.984375 
L 18.40625 75.984375 
L 18.40625 64.59375 
L 9.421875 64.59375 
z
" id="DejaVuSans-69"/>
     </defs>
     <g transform="translate(390.255938 203.222437)scale(0.1 -0.1)">
      <use xlink:href="#DejaVuSans-70"/>
      <use x="63.476562" xlink:href="#DejaVuSans-68"/>
      <use x="126.855469" xlink:href="#DejaVuSans-69"/>
     </g>
    </g>
   </g>
  </g>
 </g>
 <defs>
  <clipPath id="pfcd79bf8b5">
   <rect height="120.96" width="357.12" x="57.6" y="41.472"/>
  </clipPath>
  <clipPath id="p518478797a">
   <rect height="120.96" width="357.12" x="57.6" y="186.624"/>
  </clipPath>
 </defs>
</svg>
