<?xml version="1.0" encoding="utf-8" standalone="no"?>
<!DOCTYPE svg PUBLIC "-//W3C//DTD SVG 1.1//EN"
  "http://www.w3.org/Graphics/SVG/1.1/DTD/svg11.dtd">
<!-- Created with matplotlib (http://matplotlib.org/) -->
<svg height="576pt" version="1.1" viewBox="0 0 576 576" width="576pt" xmlns="http://www.w3.org/2000/svg" xmlns:xlink="http://www.w3.org/1999/xlink">
 <defs>
  <style type="text/css">
*{stroke-linecap:butt;stroke-linejoin:round;}
  </style>
 </defs>
 <g id="figure_1">
  <g id="patch_1">
   <path d="M 0 576 
L 576 576 
L 576 0 
L 0 0 
z
" style="fill:#ffffff;"/>
  </g>
  <g id="axes_1">
   <g id="patch_2">
    <path d="M 72 512.64 
L 518.4 512.64 
L 518.4 69.12 
L 72 69.12 
z
" style="fill:#ffffff;"/>
   </g>
   <g id="matplotlib.axis_1">
    <g id="xtick_1">
     <g id="line2d_1">
      <defs>
       <path d="M 0 0 
L 0 3.5 
" id="mdcb2b6df68" style="stroke:#000000;stroke-width:0.8;"/>
      </defs>
      <g>
       <use style="stroke:#000000;stroke-width:0.8;" x="112.216216" xlink:href="#mdcb2b6df68" y="512.64"/>
      </g>
     </g>
     <g id="text_1">
      <!-- 0 -->
      <defs>
       <path d="M 31.78125 66.40625 
Q 24.171875 66.40625 20.328125 58.90625 
Q 16.5 51.421875 16.5 36.375 
Q 16.5 21.390625 20.328125 13.890625 
Q 24.171875 6.390625 31.78125 6.390625 
Q 39.453125 6.390625 43.28125 13.890625 
Q 47.125 21.390625 47.125 36.375 
Q 47.125 51.421875 43.28125 58.90625 
Q 39.453125 66.40625 31.78125 66.40625 
z
M 31.78125 74.21875 
Q 44.046875 74.21875 50.515625 64.515625 
Q 56.984375 54.828125 56.984375 36.375 
Q 56.984375 17.96875 50.515625 8.265625 
Q 44.046875 -1.421875 31.78125 -1.421875 
Q 19.53125 -1.421875 13.0625 8.265625 
Q 6.59375 17.96875 6.59375 36.375 
Q 6.59375 54.828125 13.0625 64.515625 
Q 19.53125 74.21875 31.78125 74.21875 
z
" id="DejaVuSans-30"/>
      </defs>
      <g transform="translate(109.034966 527.238438)scale(0.1 -0.1)">
       <use xlink:href="#DejaVuSans-30"/>
      </g>
     </g>
    </g>
    <g id="xtick_2">
     <g id="line2d_2">
      <g>
       <use style="stroke:#000000;stroke-width:0.8;" x="192.648649" xlink:href="#mdcb2b6df68" y="512.64"/>
      </g>
     </g>
     <g id="text_2">
      <!-- 2 -->
      <defs>
       <path d="M 19.1875 8.296875 
L 53.609375 8.296875 
L 53.609375 0 
L 7.328125 0 
L 7.328125 8.296875 
Q 12.9375 14.109375 22.625 23.890625 
Q 32.328125 33.6875 34.8125 36.53125 
Q 39.546875 41.84375 41.421875 45.53125 
Q 43.3125 49.21875 43.3125 52.78125 
Q 43.3125 58.59375 39.234375 62.25 
Q 35.15625 65.921875 28.609375 65.921875 
Q 23.96875 65.921875 18.8125 64.3125 
Q 13.671875 62.703125 7.8125 59.421875 
L 7.8125 69.390625 
Q 13.765625 71.78125 18.9375 73 
Q 24.125 74.21875 28.421875 74.21875 
Q 39.75 74.21875 46.484375 68.546875 
Q 53.21875 62.890625 53.21875 53.421875 
Q 53.21875 48.921875 51.53125 44.890625 
Q 49.859375 40.875 45.40625 35.40625 
Q 44.1875 33.984375 37.640625 27.21875 
Q 31.109375 20.453125 19.1875 8.296875 
z
" id="DejaVuSans-32"/>
      </defs>
      <g transform="translate(189.467399 527.238438)scale(0.1 -0.1)">
       <use xlink:href="#DejaVuSans-32"/>
      </g>
     </g>
    </g>
    <g id="xtick_3">
     <g id="line2d_3">
      <g>
       <use style="stroke:#000000;stroke-width:0.8;" x="273.081081" xlink:href="#mdcb2b6df68" y="512.64"/>
      </g>
     </g>
     <g id="text_3">
      <!-- 4 -->
      <defs>
       <path d="M 37.796875 64.3125 
L 12.890625 25.390625 
L 37.796875 25.390625 
z
M 35.203125 72.90625 
L 47.609375 72.90625 
L 47.609375 25.390625 
L 58.015625 25.390625 
L 58.015625 17.1875 
L 47.609375 17.1875 
L 47.609375 0 
L 37.796875 0 
L 37.796875 17.1875 
L 4.890625 17.1875 
L 4.890625 26.703125 
z
" id="DejaVuSans-34"/>
      </defs>
      <g transform="translate(269.899831 527.238438)scale(0.1 -0.1)">
       <use xlink:href="#DejaVuSans-34"/>
      </g>
     </g>
    </g>
    <g id="xtick_4">
     <g id="line2d_4">
      <g>
       <use style="stroke:#000000;stroke-width:0.8;" x="353.513514" xlink:href="#mdcb2b6df68" y="512.64"/>
      </g>
     </g>
     <g id="text_4">
      <!-- 6 -->
      <defs>
       <path d="M 33.015625 40.375 
Q 26.375 40.375 22.484375 35.828125 
Q 18.609375 31.296875 18.609375 23.390625 
Q 18.609375 15.53125 22.484375 10.953125 
Q 26.375 6.390625 33.015625 6.390625 
Q 39.65625 6.390625 43.53125 10.953125 
Q 47.40625 15.53125 47.40625 23.390625 
Q 47.40625 31.296875 43.53125 35.828125 
Q 39.65625 40.375 33.015625 40.375 
z
M 52.59375 71.296875 
L 52.59375 62.3125 
Q 48.875 64.0625 45.09375 64.984375 
Q 41.3125 65.921875 37.59375 65.921875 
Q 27.828125 65.921875 22.671875 59.328125 
Q 17.53125 52.734375 16.796875 39.40625 
Q 19.671875 43.65625 24.015625 45.921875 
Q 28.375 48.1875 33.59375 48.1875 
Q 44.578125 48.1875 50.953125 41.515625 
Q 57.328125 34.859375 57.328125 23.390625 
Q 57.328125 12.15625 50.6875 5.359375 
Q 44.046875 -1.421875 33.015625 -1.421875 
Q 20.359375 -1.421875 13.671875 8.265625 
Q 6.984375 17.96875 6.984375 36.375 
Q 6.984375 53.65625 15.1875 63.9375 
Q 23.390625 74.21875 37.203125 74.21875 
Q 40.921875 74.21875 44.703125 73.484375 
Q 48.484375 72.75 52.59375 71.296875 
z
" id="DejaVuSans-36"/>
      </defs>
      <g transform="translate(350.332264 527.238438)scale(0.1 -0.1)">
       <use xlink:href="#DejaVuSans-36"/>
      </g>
     </g>
    </g>
    <g id="xtick_5">
     <g id="line2d_5">
      <g>
       <use style="stroke:#000000;stroke-width:0.8;" x="433.945946" xlink:href="#mdcb2b6df68" y="512.64"/>
      </g>
     </g>
     <g id="text_5">
      <!-- 8 -->
      <defs>
       <path d="M 31.78125 34.625 
Q 24.75 34.625 20.71875 30.859375 
Q 16.703125 27.09375 16.703125 20.515625 
Q 16.703125 13.921875 20.71875 10.15625 
Q 24.75 6.390625 31.78125 6.390625 
Q 38.8125 6.390625 42.859375 10.171875 
Q 46.921875 13.96875 46.921875 20.515625 
Q 46.921875 27.09375 42.890625 30.859375 
Q 38.875 34.625 31.78125 34.625 
z
M 21.921875 38.8125 
Q 15.578125 40.375 12.03125 44.71875 
Q 8.5 49.078125 8.5 55.328125 
Q 8.5 64.0625 14.71875 69.140625 
Q 20.953125 74.21875 31.78125 74.21875 
Q 42.671875 74.21875 48.875 69.140625 
Q 55.078125 64.0625 55.078125 55.328125 
Q 55.078125 49.078125 51.53125 44.71875 
Q 48 40.375 41.703125 38.8125 
Q 48.828125 37.15625 52.796875 32.3125 
Q 56.78125 27.484375 56.78125 20.515625 
Q 56.78125 9.90625 50.3125 4.234375 
Q 43.84375 -1.421875 31.78125 -1.421875 
Q 19.734375 -1.421875 13.25 4.234375 
Q 6.78125 9.90625 6.78125 20.515625 
Q 6.78125 27.484375 10.78125 32.3125 
Q 14.796875 37.15625 21.921875 38.8125 
z
M 18.3125 54.390625 
Q 18.3125 48.734375 21.84375 45.5625 
Q 25.390625 42.390625 31.78125 42.390625 
Q 38.140625 42.390625 41.71875 45.5625 
Q 45.3125 48.734375 45.3125 54.390625 
Q 45.3125 60.0625 41.71875 63.234375 
Q 38.140625 66.40625 31.78125 66.40625 
Q 25.390625 66.40625 21.84375 63.234375 
Q 18.3125 60.0625 18.3125 54.390625 
z
" id="DejaVuSans-38"/>
      </defs>
      <g transform="translate(430.764696 527.238438)scale(0.1 -0.1)">
       <use xlink:href="#DejaVuSans-38"/>
      </g>
     </g>
    </g>
    <g id="xtick_6">
     <g id="line2d_6">
      <g>
       <use style="stroke:#000000;stroke-width:0.8;" x="514.378378" xlink:href="#mdcb2b6df68" y="512.64"/>
      </g>
     </g>
     <g id="text_6">
      <!-- 10 -->
      <defs>
       <path d="M 12.40625 8.296875 
L 28.515625 8.296875 
L 28.515625 63.921875 
L 10.984375 60.40625 
L 10.984375 69.390625 
L 28.421875 72.90625 
L 38.28125 72.90625 
L 38.28125 8.296875 
L 54.390625 8.296875 
L 54.390625 0 
L 12.40625 0 
z
" id="DejaVuSans-31"/>
      </defs>
      <g transform="translate(508.015878 527.238438)scale(0.1 -0.1)">
       <use xlink:href="#DejaVuSans-31"/>
       <use x="63.623047" xlink:href="#DejaVuSans-30"/>
      </g>
     </g>
    </g>
   </g>
   <g id="matplotlib.axis_2">
    <g id="ytick_1">
     <g id="line2d_7">
      <defs>
       <path d="M 0 0 
L -3.5 0 
" id="m124007613a" style="stroke:#000000;stroke-width:0.8;"/>
      </defs>
      <g>
       <use style="stroke:#000000;stroke-width:0.8;" x="72" xlink:href="#m124007613a" y="473.863784"/>
      </g>
     </g>
     <g id="text_7">
      <!-- 0 -->
      <g transform="translate(58.6375 477.663003)scale(0.1 -0.1)">
       <use xlink:href="#DejaVuSans-30"/>
      </g>
     </g>
    </g>
    <g id="ytick_2">
     <g id="line2d_8">
      <g>
       <use style="stroke:#000000;stroke-width:0.8;" x="72" xlink:href="#m124007613a" y="393.431351"/>
      </g>
     </g>
     <g id="text_8">
      <!-- 2 -->
      <g transform="translate(58.6375 397.23057)scale(0.1 -0.1)">
       <use xlink:href="#DejaVuSans-32"/>
      </g>
     </g>
    </g>
    <g id="ytick_3">
     <g id="line2d_9">
      <g>
       <use style="stroke:#000000;stroke-width:0.8;" x="72" xlink:href="#m124007613a" y="312.998919"/>
      </g>
     </g>
     <g id="text_9">
      <!-- 4 -->
      <g transform="translate(58.6375 316.798138)scale(0.1 -0.1)">
       <use xlink:href="#DejaVuSans-34"/>
      </g>
     </g>
    </g>
    <g id="ytick_4">
     <g id="line2d_10">
      <g>
       <use style="stroke:#000000;stroke-width:0.8;" x="72" xlink:href="#m124007613a" y="232.566486"/>
      </g>
     </g>
     <g id="text_10">
      <!-- 6 -->
      <g transform="translate(58.6375 236.365705)scale(0.1 -0.1)">
       <use xlink:href="#DejaVuSans-36"/>
      </g>
     </g>
    </g>
    <g id="ytick_5">
     <g id="line2d_11">
      <g>
       <use style="stroke:#000000;stroke-width:0.8;" x="72" xlink:href="#m124007613a" y="152.134054"/>
      </g>
     </g>
     <g id="text_11">
      <!-- 8 -->
      <g transform="translate(58.6375 155.933273)scale(0.1 -0.1)">
       <use xlink:href="#DejaVuSans-38"/>
      </g>
     </g>
    </g>
    <g id="ytick_6">
     <g id="line2d_12">
      <g>
       <use style="stroke:#000000;stroke-width:0.8;" x="72" xlink:href="#m124007613a" y="71.701622"/>
      </g>
     </g>
     <g id="text_12">
      <!-- 10 -->
      <g transform="translate(52.275 75.50084)scale(0.1 -0.1)">
       <use xlink:href="#DejaVuSans-31"/>
       <use x="63.623047" xlink:href="#DejaVuSans-30"/>
      </g>
     </g>
    </g>
   </g>
   <g id="line2d_13">
    <path clip-path="url(#p204a8165b8)" d="M 140.367568 389.40973 
" style="fill:none;stroke:#1f77b4;stroke-linecap:square;stroke-width:1.5;"/>
    <defs>
     <path d="M -5 5 
L 5 5 
L 5 -5 
L -5 -5 
z
" id="m5194ce9ce1" style="stroke:#8000ff;stroke-linejoin:miter;"/>
    </defs>
    <g clip-path="url(#p204a8165b8)">
     <use style="fill:#8000ff;stroke:#8000ff;stroke-linejoin:miter;" x="140.367568" xlink:href="#m5194ce9ce1" y="389.40973"/>
    </g>
   </g>
   <g id="line2d_14">
    <path clip-path="url(#p204a8165b8)" d="M 393.72973 192.35027 
" style="fill:none;stroke:#ff7f0e;stroke-linecap:square;stroke-width:1.5;"/>
    <defs>
     <path d="M 0 -5 
L -4.755283 -1.545085 
L -2.938926 4.045085 
L 2.938926 4.045085 
L 4.755283 -1.545085 
z
" id="m2af9e8a326" style="stroke:#8000ff;stroke-linejoin:miter;"/>
    </defs>
    <g clip-path="url(#p204a8165b8)">
     <use style="fill:#8000ff;stroke:#8000ff;stroke-linejoin:miter;" x="393.72973" xlink:href="#m2af9e8a326" y="192.35027"/>
    </g>
   </g>
   <g id="line2d_15">
    <path clip-path="url(#p204a8165b8)" d="M 450.032432 192.35027 
" style="fill:none;stroke:#2ca02c;stroke-linecap:square;stroke-width:1.5;"/>
    <defs>
     <path d="M -5 5 
L 5 5 
L 5 -5 
L -5 -5 
z
" id="m2aab0e63cd" style="stroke:#4062fa;stroke-linejoin:miter;"/>
    </defs>
    <g clip-path="url(#p204a8165b8)">
     <use style="fill:#4062fa;stroke:#4062fa;stroke-linejoin:miter;" x="450.032432" xlink:href="#m2aab0e63cd" y="192.35027"/>
    </g>
   </g>
   <g id="line2d_16">
    <path clip-path="url(#p204a8165b8)" d="M 224.821622 361.258378 
" style="fill:none;stroke:#d62728;stroke-linecap:square;stroke-width:1.5;"/>
    <defs>
     <path d="M 0 -5 
L -4.755283 -1.545085 
L -2.938926 4.045085 
L 2.938926 4.045085 
L 4.755283 -1.545085 
z
" id="m0aa95929ae" style="stroke:#4062fa;stroke-linejoin:miter;"/>
    </defs>
    <g clip-path="url(#p204a8165b8)">
     <use style="fill:#4062fa;stroke:#4062fa;stroke-linejoin:miter;" x="224.821622" xlink:href="#m0aa95929ae" y="361.258378"/>
    </g>
   </g>
   <g id="line2d_17">
    <path clip-path="url(#p204a8165b8)" d="M 402.175135 440.082162 
" style="fill:none;stroke:#9467bd;stroke-linecap:square;stroke-width:1.5;"/>
    <defs>
     <path d="M -5 5 
L 5 5 
L 5 -5 
L -5 -5 
z
" id="m6c89bc7ca1" style="stroke:#00b4ec;stroke-linejoin:miter;"/>
    </defs>
    <g clip-path="url(#p204a8165b8)">
     <use style="fill:#00b4ec;stroke:#00b4ec;stroke-linejoin:miter;" x="402.175135" xlink:href="#m6c89bc7ca1" y="440.082162"/>
    </g>
   </g>
   <g id="line2d_18">
    <path clip-path="url(#p204a8165b8)" d="M 224.821622 192.35027 
" style="fill:none;stroke:#8c564b;stroke-linecap:square;stroke-width:1.5;"/>
    <defs>
     <path d="M 0 -5 
L -4.755283 -1.545085 
L -2.938926 4.045085 
L 2.938926 4.045085 
L 4.755283 -1.545085 
z
" id="m86a512f951" style="stroke:#00b4ec;stroke-linejoin:miter;"/>
    </defs>
    <g clip-path="url(#p204a8165b8)">
     <use style="fill:#00b4ec;stroke:#00b4ec;stroke-linejoin:miter;" x="224.821622" xlink:href="#m86a512f951" y="192.35027"/>
    </g>
   </g>
   <g id="line2d_19">
    <path clip-path="url(#p204a8165b8)" d="M 224.821622 136.047568 
" style="fill:none;stroke:#e377c2;stroke-linecap:square;stroke-width:1.5;"/>
    <defs>
     <path d="M -5 5 
L 5 5 
L 5 -5 
L -5 -5 
z
" id="ma573d3b467" style="stroke:#40ecd4;stroke-linejoin:miter;"/>
    </defs>
    <g clip-path="url(#p204a8165b8)">
     <use style="fill:#40ecd4;stroke:#40ecd4;stroke-linejoin:miter;" x="224.821622" xlink:href="#ma573d3b467" y="136.047568"/>
    </g>
   </g>
   <g id="line2d_20">
    <path clip-path="url(#p204a8165b8)" d="M 393.72973 361.258378 
" style="fill:none;stroke:#7f7f7f;stroke-linecap:square;stroke-width:1.5;"/>
    <defs>
     <path d="M 0 -5 
L -4.755283 -1.545085 
L -2.938926 4.045085 
L 2.938926 4.045085 
L 4.755283 -1.545085 
z
" id="ma0e434fd4f" style="stroke:#40ecd4;stroke-linejoin:miter;"/>
    </defs>
    <g clip-path="url(#p204a8165b8)">
     <use style="fill:#40ecd4;stroke:#40ecd4;stroke-linejoin:miter;" x="393.72973" xlink:href="#ma0e434fd4f" y="361.258378"/>
    </g>
   </g>
   <g id="line2d_21">
    <path clip-path="url(#p204a8165b8)" d="M 450.032432 304.955676 
" style="fill:none;stroke:#bcbd22;stroke-linecap:square;stroke-width:1.5;"/>
    <defs>
     <path d="M -5 5 
L 5 5 
L 5 -5 
L -5 -5 
z
" id="mc0cab994d8" style="stroke:#80ffb4;stroke-linejoin:miter;"/>
    </defs>
    <g clip-path="url(#p204a8165b8)">
     <use style="fill:#80ffb4;stroke:#80ffb4;stroke-linejoin:miter;" x="450.032432" xlink:href="#mc0cab994d8" y="304.955676"/>
    </g>
   </g>
   <g id="line2d_22">
    <path clip-path="url(#p204a8165b8)" d="M 196.67027 248.652973 
" style="fill:none;stroke:#17becf;stroke-linecap:square;stroke-width:1.5;"/>
    <defs>
     <path d="M 0 -5 
L -4.755283 -1.545085 
L -2.938926 4.045085 
L 2.938926 4.045085 
L 4.755283 -1.545085 
z
" id="m339f2ab1b8" style="stroke:#80ffb4;stroke-linejoin:miter;"/>
    </defs>
    <g clip-path="url(#p204a8165b8)">
     <use style="fill:#80ffb4;stroke:#80ffb4;stroke-linejoin:miter;" x="196.67027" xlink:href="#m339f2ab1b8" y="248.652973"/>
    </g>
   </g>
   <g id="line2d_23">
    <path clip-path="url(#p204a8165b8)" d="M 140.367568 248.652973 
" style="fill:none;stroke:#1f77b4;stroke-linecap:square;stroke-width:1.5;"/>
    <defs>
     <path d="M -5 5 
L 5 5 
L 5 -5 
L -5 -5 
z
" id="m74d32b9de6" style="stroke:#bfec8e;stroke-linejoin:miter;"/>
    </defs>
    <g clip-path="url(#p204a8165b8)">
     <use style="fill:#bfec8e;stroke:#bfec8e;stroke-linejoin:miter;" x="140.367568" xlink:href="#m74d32b9de6" y="248.652973"/>
    </g>
   </g>
   <g id="line2d_24">
    <path clip-path="url(#p204a8165b8)" d="M 393.72973 276.804324 
" style="fill:none;stroke:#ff7f0e;stroke-linecap:square;stroke-width:1.5;"/>
    <defs>
     <path d="M 0 -5 
L -4.755283 -1.545085 
L -2.938926 4.045085 
L 2.938926 4.045085 
L 4.755283 -1.545085 
z
" id="m975c540689" style="stroke:#bfec8e;stroke-linejoin:miter;"/>
    </defs>
    <g clip-path="url(#p204a8165b8)">
     <use style="fill:#bfec8e;stroke:#bfec8e;stroke-linejoin:miter;" x="393.72973" xlink:href="#m975c540689" y="276.804324"/>
    </g>
   </g>
   <g id="line2d_25">
    <path clip-path="url(#p204a8165b8)" d="M 281.124324 192.35027 
" style="fill:none;stroke:#2ca02c;stroke-linecap:square;stroke-width:1.5;"/>
    <defs>
     <path d="M -5 5 
L 5 5 
L 5 -5 
L -5 -5 
z
" id="md580521f0c" style="stroke:#ffb462;stroke-linejoin:miter;"/>
    </defs>
    <g clip-path="url(#p204a8165b8)">
     <use style="fill:#ffb462;stroke:#ffb462;stroke-linejoin:miter;" x="281.124324" xlink:href="#md580521f0c" y="192.35027"/>
    </g>
   </g>
   <g id="line2d_26">
    <path clip-path="url(#p204a8165b8)" d="M 281.124324 333.107027 
" style="fill:none;stroke:#d62728;stroke-linecap:square;stroke-width:1.5;"/>
    <defs>
     <path d="M 0 -5 
L -4.755283 -1.545085 
L -2.938926 4.045085 
L 2.938926 4.045085 
L 4.755283 -1.545085 
z
" id="ma329e9dd79" style="stroke:#ffb462;stroke-linejoin:miter;"/>
    </defs>
    <g clip-path="url(#p204a8165b8)">
     <use style="fill:#ffb462;stroke:#ffb462;stroke-linejoin:miter;" x="281.124324" xlink:href="#ma329e9dd79" y="333.107027"/>
    </g>
   </g>
   <g id="line2d_27">
    <path clip-path="url(#p204a8165b8)" d="M 140.367568 304.955676 
" style="fill:none;stroke:#9467bd;stroke-linecap:square;stroke-width:1.5;"/>
    <defs>
     <path d="M -5 5 
L 5 5 
L 5 -5 
L -5 -5 
z
" id="m844c660aac" style="stroke:#ff6232;stroke-linejoin:miter;"/>
    </defs>
    <g clip-path="url(#p204a8165b8)">
     <use style="fill:#ff6232;stroke:#ff6232;stroke-linejoin:miter;" x="140.367568" xlink:href="#m844c660aac" y="304.955676"/>
    </g>
   </g>
   <g id="line2d_28">
    <path clip-path="url(#p204a8165b8)" d="M 309.275676 276.804324 
" style="fill:none;stroke:#8c564b;stroke-linecap:square;stroke-width:1.5;"/>
    <defs>
     <path d="M 0 -5 
L -4.755283 -1.545085 
L -2.938926 4.045085 
L 2.938926 4.045085 
L 4.755283 -1.545085 
z
" id="mfff4897ef5" style="stroke:#ff6232;stroke-linejoin:miter;"/>
    </defs>
    <g clip-path="url(#p204a8165b8)">
     <use style="fill:#ff6232;stroke:#ff6232;stroke-linejoin:miter;" x="309.275676" xlink:href="#mfff4897ef5" y="276.804324"/>
    </g>
   </g>
   <g id="line2d_29">
    <path clip-path="url(#p204a8165b8)" d="M 393.72973 220.501622 
" style="fill:none;stroke:#e377c2;stroke-linecap:square;stroke-width:1.5;"/>
    <defs>
     <path d="M -5 5 
L 5 5 
L 5 -5 
L -5 -5 
z
" id="md2a72ff052" style="stroke:#ff0000;stroke-linejoin:miter;"/>
    </defs>
    <g clip-path="url(#p204a8165b8)">
     <use style="fill:#ff0000;stroke:#ff0000;stroke-linejoin:miter;" x="393.72973" xlink:href="#md2a72ff052" y="220.501622"/>
    </g>
   </g>
   <g id="line2d_30">
    <path clip-path="url(#p204a8165b8)" d="M 140.367568 276.804324 
" style="fill:none;stroke:#7f7f7f;stroke-linecap:square;stroke-width:1.5;"/>
    <defs>
     <path d="M 0 -5 
L -4.755283 -1.545085 
L -2.938926 4.045085 
L 2.938926 4.045085 
L 4.755283 -1.545085 
z
" id="mb67899d3f5" style="stroke:#ff0000;stroke-linejoin:miter;"/>
    </defs>
    <g clip-path="url(#p204a8165b8)">
     <use style="fill:#ff0000;stroke:#ff0000;stroke-linejoin:miter;" x="140.367568" xlink:href="#mb67899d3f5" y="276.804324"/>
    </g>
   </g>
   <g id="line2d_31">
    <defs>
     <path d="M 0 2.5 
C 0.663008 2.5 1.29895 2.236584 1.767767 1.767767 
C 2.236584 1.29895 2.5 0.663008 2.5 0 
C 2.5 -0.663008 2.236584 -1.29895 1.767767 -1.767767 
C 1.29895 -2.236584 0.663008 -2.5 0 -2.5 
C -0.663008 -2.5 -1.29895 -2.236584 -1.767767 -1.767767 
C -2.236584 -1.29895 -2.5 -0.663008 -2.5 0 
C -2.5 0.663008 -2.236584 1.29895 -1.767767 1.767767 
C -1.29895 2.236584 -0.663008 2.5 0 2.5 
z
" id="mf40a97bb80" style="stroke:#000000;"/>
    </defs>
    <g clip-path="url(#p204a8165b8)">
     <use style="stroke:#000000;" x="196.67027" xlink:href="#mf40a97bb80" y="389.40973"/>
     <use style="stroke:#000000;" x="196.67027" xlink:href="#mf40a97bb80" y="333.107027"/>
     <use style="stroke:#000000;" x="252.972973" xlink:href="#mf40a97bb80" y="389.40973"/>
     <use style="stroke:#000000;" x="252.972973" xlink:href="#mf40a97bb80" y="333.107027"/>
     <use style="stroke:#000000;" x="309.275676" xlink:href="#mf40a97bb80" y="389.40973"/>
     <use style="stroke:#000000;" x="309.275676" xlink:href="#mf40a97bb80" y="333.107027"/>
     <use style="stroke:#000000;" x="365.578378" xlink:href="#mf40a97bb80" y="389.40973"/>
     <use style="stroke:#000000;" x="365.578378" xlink:href="#mf40a97bb80" y="333.107027"/>
     <use style="stroke:#000000;" x="421.881081" xlink:href="#mf40a97bb80" y="389.40973"/>
     <use style="stroke:#000000;" x="421.881081" xlink:href="#mf40a97bb80" y="333.107027"/>
     <use style="stroke:#000000;" x="196.67027" xlink:href="#mf40a97bb80" y="220.501622"/>
     <use style="stroke:#000000;" x="196.67027" xlink:href="#mf40a97bb80" y="164.198919"/>
     <use style="stroke:#000000;" x="252.972973" xlink:href="#mf40a97bb80" y="220.501622"/>
     <use style="stroke:#000000;" x="252.972973" xlink:href="#mf40a97bb80" y="164.198919"/>
     <use style="stroke:#000000;" x="309.275676" xlink:href="#mf40a97bb80" y="220.501622"/>
     <use style="stroke:#000000;" x="309.275676" xlink:href="#mf40a97bb80" y="164.198919"/>
     <use style="stroke:#000000;" x="365.578378" xlink:href="#mf40a97bb80" y="220.501622"/>
     <use style="stroke:#000000;" x="365.578378" xlink:href="#mf40a97bb80" y="164.198919"/>
     <use style="stroke:#000000;" x="421.881081" xlink:href="#mf40a97bb80" y="220.501622"/>
     <use style="stroke:#000000;" x="421.881081" xlink:href="#mf40a97bb80" y="164.198919"/>
    </g>
   </g>
   <g id="line2d_32">
    <path clip-path="url(#p204a8165b8)" d="M 212.354595 389.40973 
L 211.504775 384.317038 
L 209.047406 379.776218 
L 205.248783 376.279339 
L 200.520544 374.205342 
L 195.375069 373.778975 
L 190.369949 375.046444 
L 186.047566 377.870397 
L 182.876319 381.944816 
L 181.19986 386.828175 
L 181.19986 391.991285 
L 182.876319 396.874643 
L 186.047566 400.949062 
L 190.369949 403.773016 
L 195.375069 405.040484 
L 200.520544 404.614118 
L 205.248783 402.54012 
L 209.047406 399.043241 
L 211.504775 394.502422 
L 212.354595 389.40973 
" style="fill:none;stroke:#000000;stroke-dasharray:5.55,2.4;stroke-dashoffset:0;stroke-width:1.5;"/>
   </g>
   <g id="line2d_33">
    <path clip-path="url(#p204a8165b8)" d="M 201.094054 389.40973 
L 200.854361 387.973329 
L 200.161257 386.692585 
L 199.089851 385.706286 
L 197.756245 385.121313 
L 196.304957 385.001055 
L 194.893257 385.358547 
L 193.674123 386.155046 
L 192.779669 387.304241 
L 192.306821 388.681599 
L 192.306821 390.137861 
L 192.779669 391.515218 
L 193.674123 392.664413 
L 194.893257 393.460913 
L 196.304957 393.818404 
L 197.756245 393.698147 
L 199.089851 393.113173 
L 200.161257 392.126874 
L 200.854361 390.84613 
L 201.094054 389.40973 
" style="fill:none;stroke:#ff0000;stroke-linecap:square;stroke-width:1.5;"/>
   </g>
   <g id="line2d_34">
    <path clip-path="url(#p204a8165b8)" d="M 212.354595 333.107027 
L 211.504775 328.014335 
L 209.047406 323.473516 
L 205.248783 319.976636 
L 200.520544 317.902639 
L 195.375069 317.476273 
L 190.369949 318.743741 
L 186.047566 321.567695 
L 182.876319 325.642114 
L 181.19986 330.525472 
L 181.19986 335.688582 
L 182.876319 340.57194 
L 186.047566 344.646359 
L 190.369949 347.470313 
L 195.375069 348.737781 
L 200.520544 348.311415 
L 205.248783 346.237418 
L 209.047406 342.740538 
L 211.504775 338.199719 
L 212.354595 333.107027 
" style="fill:none;stroke:#000000;stroke-dasharray:5.55,2.4;stroke-dashoffset:0;stroke-width:1.5;"/>
   </g>
   <g id="line2d_35">
    <path clip-path="url(#p204a8165b8)" d="M 201.094054 333.107027 
L 200.854361 331.670627 
L 200.161257 330.389883 
L 199.089851 329.403584 
L 197.756245 328.81861 
L 196.304957 328.698353 
L 194.893257 329.055844 
L 193.674123 329.852344 
L 192.779669 331.001539 
L 192.306821 332.378896 
L 192.306821 333.835158 
L 192.779669 335.212515 
L 193.674123 336.361711 
L 194.893257 337.15821 
L 196.304957 337.515701 
L 197.756245 337.395444 
L 199.089851 336.810471 
L 200.161257 335.824171 
L 200.854361 334.543427 
L 201.094054 333.107027 
" style="fill:none;stroke:#ff0000;stroke-linecap:square;stroke-width:1.5;"/>
   </g>
   <g id="line2d_36">
    <path clip-path="url(#p204a8165b8)" d="M 268.657297 389.40973 
L 267.807477 384.317038 
L 265.350109 379.776218 
L 261.551485 376.279339 
L 256.823247 374.205342 
L 251.677772 373.778975 
L 246.672652 375.046444 
L 242.350269 377.870397 
L 239.179021 381.944816 
L 237.502562 386.828175 
L 237.502562 391.991285 
L 239.179021 396.874643 
L 242.350269 400.949062 
L 246.672652 403.773016 
L 251.677772 405.040484 
L 256.823247 404.614118 
L 261.551485 402.54012 
L 265.350109 399.043241 
L 267.807477 394.502422 
L 268.657297 389.40973 
" style="fill:none;stroke:#000000;stroke-dasharray:5.55,2.4;stroke-dashoffset:0;stroke-width:1.5;"/>
   </g>
   <g id="line2d_37">
    <path clip-path="url(#p204a8165b8)" d="M 257.396757 389.40973 
L 257.157064 387.973329 
L 256.46396 386.692585 
L 255.392553 385.706286 
L 254.058948 385.121313 
L 252.60766 385.001055 
L 251.195959 385.358547 
L 249.976826 386.155046 
L 249.082371 387.304241 
L 248.609524 388.681599 
L 248.609524 390.137861 
L 249.082371 391.515218 
L 249.976826 392.664413 
L 251.195959 393.460913 
L 252.60766 393.818404 
L 254.058948 393.698147 
L 255.392553 393.113173 
L 256.46396 392.126874 
L 257.157064 390.84613 
L 257.396757 389.40973 
" style="fill:none;stroke:#ff0000;stroke-linecap:square;stroke-width:1.5;"/>
   </g>
   <g id="line2d_38">
    <path clip-path="url(#p204a8165b8)" d="M 268.657297 333.107027 
L 267.807477 328.014335 
L 265.350109 323.473516 
L 261.551485 319.976636 
L 256.823247 317.902639 
L 251.677772 317.476273 
L 246.672652 318.743741 
L 242.350269 321.567695 
L 239.179021 325.642114 
L 237.502562 330.525472 
L 237.502562 335.688582 
L 239.179021 340.57194 
L 242.350269 344.646359 
L 246.672652 347.470313 
L 251.677772 348.737781 
L 256.823247 348.311415 
L 261.551485 346.237418 
L 265.350109 342.740538 
L 267.807477 338.199719 
L 268.657297 333.107027 
" style="fill:none;stroke:#000000;stroke-dasharray:5.55,2.4;stroke-dashoffset:0;stroke-width:1.5;"/>
   </g>
   <g id="line2d_39">
    <path clip-path="url(#p204a8165b8)" d="M 257.396757 333.107027 
L 257.157064 331.670627 
L 256.46396 330.389883 
L 255.392553 329.403584 
L 254.058948 328.81861 
L 252.60766 328.698353 
L 251.195959 329.055844 
L 249.976826 329.852344 
L 249.082371 331.001539 
L 248.609524 332.378896 
L 248.609524 333.835158 
L 249.082371 335.212515 
L 249.976826 336.361711 
L 251.195959 337.15821 
L 252.60766 337.515701 
L 254.058948 337.395444 
L 255.392553 336.810471 
L 256.46396 335.824171 
L 257.157064 334.543427 
L 257.396757 333.107027 
" style="fill:none;stroke:#ff0000;stroke-linecap:square;stroke-width:1.5;"/>
   </g>
   <g id="line2d_40">
    <path clip-path="url(#p204a8165b8)" d="M 324.96 389.40973 
L 324.11018 384.317038 
L 321.652811 379.776218 
L 317.854188 376.279339 
L 313.12595 374.205342 
L 307.980474 373.778975 
L 302.975354 375.046444 
L 298.652972 377.870397 
L 295.481724 381.944816 
L 293.805265 386.828175 
L 293.805265 391.991285 
L 295.481724 396.874643 
L 298.652972 400.949062 
L 302.975354 403.773016 
L 307.980474 405.040484 
L 313.12595 404.614118 
L 317.854188 402.54012 
L 321.652811 399.043241 
L 324.11018 394.502422 
L 324.96 389.40973 
" style="fill:none;stroke:#000000;stroke-dasharray:5.55,2.4;stroke-dashoffset:0;stroke-width:1.5;"/>
   </g>
   <g id="line2d_41">
    <path clip-path="url(#p204a8165b8)" d="M 313.699459 389.40973 
L 313.459767 387.973329 
L 312.766663 386.692585 
L 311.695256 385.706286 
L 310.36165 385.121313 
L 308.910363 385.001055 
L 307.498662 385.358547 
L 306.279528 386.155046 
L 305.385074 387.304241 
L 304.912227 388.681599 
L 304.912227 390.137861 
L 305.385074 391.515218 
L 306.279528 392.664413 
L 307.498662 393.460913 
L 308.910363 393.818404 
L 310.36165 393.698147 
L 311.695256 393.113173 
L 312.766663 392.126874 
L 313.459767 390.84613 
L 313.699459 389.40973 
" style="fill:none;stroke:#ff0000;stroke-linecap:square;stroke-width:1.5;"/>
   </g>
   <g id="line2d_42">
    <path clip-path="url(#p204a8165b8)" d="M 324.96 333.107027 
L 324.11018 328.014335 
L 321.652811 323.473516 
L 317.854188 319.976636 
L 313.12595 317.902639 
L 307.980474 317.476273 
L 302.975354 318.743741 
L 298.652972 321.567695 
L 295.481724 325.642114 
L 293.805265 330.525472 
L 293.805265 335.688582 
L 295.481724 340.57194 
L 298.652972 344.646359 
L 302.975354 347.470313 
L 307.980474 348.737781 
L 313.12595 348.311415 
L 317.854188 346.237418 
L 321.652811 342.740538 
L 324.11018 338.199719 
L 324.96 333.107027 
" style="fill:none;stroke:#000000;stroke-dasharray:5.55,2.4;stroke-dashoffset:0;stroke-width:1.5;"/>
   </g>
   <g id="line2d_43">
    <path clip-path="url(#p204a8165b8)" d="M 313.699459 333.107027 
L 313.459767 331.670627 
L 312.766663 330.389883 
L 311.695256 329.403584 
L 310.36165 328.81861 
L 308.910363 328.698353 
L 307.498662 329.055844 
L 306.279528 329.852344 
L 305.385074 331.001539 
L 304.912227 332.378896 
L 304.912227 333.835158 
L 305.385074 335.212515 
L 306.279528 336.361711 
L 307.498662 337.15821 
L 308.910363 337.515701 
L 310.36165 337.395444 
L 311.695256 336.810471 
L 312.766663 335.824171 
L 313.459767 334.543427 
L 313.699459 333.107027 
" style="fill:none;stroke:#ff0000;stroke-linecap:square;stroke-width:1.5;"/>
   </g>
   <g id="line2d_44">
    <path clip-path="url(#p204a8165b8)" d="M 381.262703 389.40973 
L 380.412883 384.317038 
L 377.955514 379.776218 
L 374.156891 376.279339 
L 369.428652 374.205342 
L 364.283177 373.778975 
L 359.278057 375.046444 
L 354.955675 377.870397 
L 351.784427 381.944816 
L 350.107968 386.828175 
L 350.107968 391.991285 
L 351.784427 396.874643 
L 354.955675 400.949062 
L 359.278057 403.773016 
L 364.283177 405.040484 
L 369.428652 404.614118 
L 374.156891 402.54012 
L 377.955514 399.043241 
L 380.412883 394.502422 
L 381.262703 389.40973 
" style="fill:none;stroke:#000000;stroke-dasharray:5.55,2.4;stroke-dashoffset:0;stroke-width:1.5;"/>
   </g>
   <g id="line2d_45">
    <path clip-path="url(#p204a8165b8)" d="M 370.002162 389.40973 
L 369.762469 387.973329 
L 369.069365 386.692585 
L 367.997959 385.706286 
L 366.664353 385.121313 
L 365.213065 385.001055 
L 363.801365 385.358547 
L 362.582231 386.155046 
L 361.687777 387.304241 
L 361.214929 388.681599 
L 361.214929 390.137861 
L 361.687777 391.515218 
L 362.582231 392.664413 
L 363.801365 393.460913 
L 365.213065 393.818404 
L 366.664353 393.698147 
L 367.997959 393.113173 
L 369.069365 392.126874 
L 369.762469 390.84613 
L 370.002162 389.40973 
" style="fill:none;stroke:#ff0000;stroke-linecap:square;stroke-width:1.5;"/>
   </g>
   <g id="line2d_46">
    <path clip-path="url(#p204a8165b8)" d="M 381.262703 333.107027 
L 380.412883 328.014335 
L 377.955514 323.473516 
L 374.156891 319.976636 
L 369.428652 317.902639 
L 364.283177 317.476273 
L 359.278057 318.743741 
L 354.955675 321.567695 
L 351.784427 325.642114 
L 350.107968 330.525472 
L 350.107968 335.688582 
L 351.784427 340.57194 
L 354.955675 344.646359 
L 359.278057 347.470313 
L 364.283177 348.737781 
L 369.428652 348.311415 
L 374.156891 346.237418 
L 377.955514 342.740538 
L 380.412883 338.199719 
L 381.262703 333.107027 
" style="fill:none;stroke:#000000;stroke-dasharray:5.55,2.4;stroke-dashoffset:0;stroke-width:1.5;"/>
   </g>
   <g id="line2d_47">
    <path clip-path="url(#p204a8165b8)" d="M 370.002162 333.107027 
L 369.762469 331.670627 
L 369.069365 330.389883 
L 367.997959 329.403584 
L 366.664353 328.81861 
L 365.213065 328.698353 
L 363.801365 329.055844 
L 362.582231 329.852344 
L 361.687777 331.001539 
L 361.214929 332.378896 
L 361.214929 333.835158 
L 361.687777 335.212515 
L 362.582231 336.361711 
L 363.801365 337.15821 
L 365.213065 337.515701 
L 366.664353 337.395444 
L 367.997959 336.810471 
L 369.069365 335.824171 
L 369.762469 334.543427 
L 370.002162 333.107027 
" style="fill:none;stroke:#ff0000;stroke-linecap:square;stroke-width:1.5;"/>
   </g>
   <g id="line2d_48">
    <path clip-path="url(#p204a8165b8)" d="M 437.565405 389.40973 
L 436.715585 384.317038 
L 434.258217 379.776218 
L 430.459593 376.279339 
L 425.731355 374.205342 
L 420.58588 373.778975 
L 415.58076 375.046444 
L 411.258377 377.870397 
L 408.08713 381.944816 
L 406.41067 386.828175 
L 406.41067 391.991285 
L 408.08713 396.874643 
L 411.258377 400.949062 
L 415.58076 403.773016 
L 420.58588 405.040484 
L 425.731355 404.614118 
L 430.459593 402.54012 
L 434.258217 399.043241 
L 436.715585 394.502422 
L 437.565405 389.40973 
" style="fill:none;stroke:#000000;stroke-dasharray:5.55,2.4;stroke-dashoffset:0;stroke-width:1.5;"/>
   </g>
   <g id="line2d_49">
    <path clip-path="url(#p204a8165b8)" d="M 426.304865 389.40973 
L 426.065172 387.973329 
L 425.372068 386.692585 
L 424.300661 385.706286 
L 422.967056 385.121313 
L 421.515768 385.001055 
L 420.104067 385.358547 
L 418.884934 386.155046 
L 417.990479 387.304241 
L 417.517632 388.681599 
L 417.517632 390.137861 
L 417.990479 391.515218 
L 418.884934 392.664413 
L 420.104067 393.460913 
L 421.515768 393.818404 
L 422.967056 393.698147 
L 424.300661 393.113173 
L 425.372068 392.126874 
L 426.065172 390.84613 
L 426.304865 389.40973 
" style="fill:none;stroke:#ff0000;stroke-linecap:square;stroke-width:1.5;"/>
   </g>
   <g id="line2d_50">
    <path clip-path="url(#p204a8165b8)" d="M 437.565405 333.107027 
L 436.715585 328.014335 
L 434.258217 323.473516 
L 430.459593 319.976636 
L 425.731355 317.902639 
L 420.58588 317.476273 
L 415.58076 318.743741 
L 411.258377 321.567695 
L 408.08713 325.642114 
L 406.41067 330.525472 
L 406.41067 335.688582 
L 408.08713 340.57194 
L 411.258377 344.646359 
L 415.58076 347.470313 
L 420.58588 348.737781 
L 425.731355 348.311415 
L 430.459593 346.237418 
L 434.258217 342.740538 
L 436.715585 338.199719 
L 437.565405 333.107027 
" style="fill:none;stroke:#000000;stroke-dasharray:5.55,2.4;stroke-dashoffset:0;stroke-width:1.5;"/>
   </g>
   <g id="line2d_51">
    <path clip-path="url(#p204a8165b8)" d="M 426.304865 333.107027 
L 426.065172 331.670627 
L 425.372068 330.389883 
L 424.300661 329.403584 
L 422.967056 328.81861 
L 421.515768 328.698353 
L 420.104067 329.055844 
L 418.884934 329.852344 
L 417.990479 331.001539 
L 417.517632 332.378896 
L 417.517632 333.835158 
L 417.990479 335.212515 
L 418.884934 336.361711 
L 420.104067 337.15821 
L 421.515768 337.515701 
L 422.967056 337.395444 
L 424.300661 336.810471 
L 425.372068 335.824171 
L 426.065172 334.543427 
L 426.304865 333.107027 
" style="fill:none;stroke:#ff0000;stroke-linecap:square;stroke-width:1.5;"/>
   </g>
   <g id="line2d_52">
    <path clip-path="url(#p204a8165b8)" d="M 212.354595 220.501622 
L 211.504775 215.40893 
L 209.047406 210.86811 
L 205.248783 207.371231 
L 200.520544 205.297233 
L 195.375069 204.870867 
L 190.369949 206.138336 
L 186.047566 208.962289 
L 182.876319 213.036708 
L 181.19986 217.920067 
L 181.19986 223.083177 
L 182.876319 227.966535 
L 186.047566 232.040954 
L 190.369949 234.864907 
L 195.375069 236.132376 
L 200.520544 235.70601 
L 205.248783 233.632012 
L 209.047406 230.135133 
L 211.504775 225.594313 
L 212.354595 220.501622 
" style="fill:none;stroke:#000000;stroke-dasharray:5.55,2.4;stroke-dashoffset:0;stroke-width:1.5;"/>
   </g>
   <g id="line2d_53">
    <path clip-path="url(#p204a8165b8)" d="M 201.094054 220.501622 
L 200.854361 219.065221 
L 200.161257 217.784477 
L 199.089851 216.798178 
L 197.756245 216.213204 
L 196.304957 216.092947 
L 194.893257 216.450438 
L 193.674123 217.246938 
L 192.779669 218.396133 
L 192.306821 219.773491 
L 192.306821 221.229753 
L 192.779669 222.60711 
L 193.674123 223.756305 
L 194.893257 224.552805 
L 196.304957 224.910296 
L 197.756245 224.790039 
L 199.089851 224.205065 
L 200.161257 223.218766 
L 200.854361 221.938022 
L 201.094054 220.501622 
" style="fill:none;stroke:#ff0000;stroke-linecap:square;stroke-width:1.5;"/>
   </g>
   <g id="line2d_54">
    <path clip-path="url(#p204a8165b8)" d="M 212.354595 164.198919 
L 211.504775 159.106227 
L 209.047406 154.565408 
L 205.248783 151.068528 
L 200.520544 148.994531 
L 195.375069 148.568165 
L 190.369949 149.835633 
L 186.047566 152.659586 
L 182.876319 156.734006 
L 181.19986 161.617364 
L 181.19986 166.780474 
L 182.876319 171.663832 
L 186.047566 175.738251 
L 190.369949 178.562205 
L 195.375069 179.829673 
L 200.520544 179.403307 
L 205.248783 177.329309 
L 209.047406 173.83243 
L 211.504775 169.291611 
L 212.354595 164.198919 
" style="fill:none;stroke:#000000;stroke-dasharray:5.55,2.4;stroke-dashoffset:0;stroke-width:1.5;"/>
   </g>
   <g id="line2d_55">
    <path clip-path="url(#p204a8165b8)" d="M 201.094054 164.198919 
L 200.854361 162.762519 
L 200.161257 161.481775 
L 199.089851 160.495475 
L 197.756245 159.910502 
L 196.304957 159.790245 
L 194.893257 160.147736 
L 193.674123 160.944235 
L 192.779669 162.093431 
L 192.306821 163.470788 
L 192.306821 164.92705 
L 192.779669 166.304407 
L 193.674123 167.453602 
L 194.893257 168.250102 
L 196.304957 168.607593 
L 197.756245 168.487336 
L 199.089851 167.902362 
L 200.161257 166.916063 
L 200.854361 165.635319 
L 201.094054 164.198919 
" style="fill:none;stroke:#ff0000;stroke-linecap:square;stroke-width:1.5;"/>
   </g>
   <g id="line2d_56">
    <path clip-path="url(#p204a8165b8)" d="M 268.657297 220.501622 
L 267.807477 215.40893 
L 265.350109 210.86811 
L 261.551485 207.371231 
L 256.823247 205.297233 
L 251.677772 204.870867 
L 246.672652 206.138336 
L 242.350269 208.962289 
L 239.179021 213.036708 
L 237.502562 217.920067 
L 237.502562 223.083177 
L 239.179021 227.966535 
L 242.350269 232.040954 
L 246.672652 234.864907 
L 251.677772 236.132376 
L 256.823247 235.70601 
L 261.551485 233.632012 
L 265.350109 230.135133 
L 267.807477 225.594313 
L 268.657297 220.501622 
" style="fill:none;stroke:#000000;stroke-dasharray:5.55,2.4;stroke-dashoffset:0;stroke-width:1.5;"/>
   </g>
   <g id="line2d_57">
    <path clip-path="url(#p204a8165b8)" d="M 257.396757 220.501622 
L 257.157064 219.065221 
L 256.46396 217.784477 
L 255.392553 216.798178 
L 254.058948 216.213204 
L 252.60766 216.092947 
L 251.195959 216.450438 
L 249.976826 217.246938 
L 249.082371 218.396133 
L 248.609524 219.773491 
L 248.609524 221.229753 
L 249.082371 222.60711 
L 249.976826 223.756305 
L 251.195959 224.552805 
L 252.60766 224.910296 
L 254.058948 224.790039 
L 255.392553 224.205065 
L 256.46396 223.218766 
L 257.157064 221.938022 
L 257.396757 220.501622 
" style="fill:none;stroke:#ff0000;stroke-linecap:square;stroke-width:1.5;"/>
   </g>
   <g id="line2d_58">
    <path clip-path="url(#p204a8165b8)" d="M 268.657297 164.198919 
L 267.807477 159.106227 
L 265.350109 154.565408 
L 261.551485 151.068528 
L 256.823247 148.994531 
L 251.677772 148.568165 
L 246.672652 149.835633 
L 242.350269 152.659586 
L 239.179021 156.734006 
L 237.502562 161.617364 
L 237.502562 166.780474 
L 239.179021 171.663832 
L 242.350269 175.738251 
L 246.672652 178.562205 
L 251.677772 179.829673 
L 256.823247 179.403307 
L 261.551485 177.329309 
L 265.350109 173.83243 
L 267.807477 169.291611 
L 268.657297 164.198919 
" style="fill:none;stroke:#000000;stroke-dasharray:5.55,2.4;stroke-dashoffset:0;stroke-width:1.5;"/>
   </g>
   <g id="line2d_59">
    <path clip-path="url(#p204a8165b8)" d="M 257.396757 164.198919 
L 257.157064 162.762519 
L 256.46396 161.481775 
L 255.392553 160.495475 
L 254.058948 159.910502 
L 252.60766 159.790245 
L 251.195959 160.147736 
L 249.976826 160.944235 
L 249.082371 162.093431 
L 248.609524 163.470788 
L 248.609524 164.92705 
L 249.082371 166.304407 
L 249.976826 167.453602 
L 251.195959 168.250102 
L 252.60766 168.607593 
L 254.058948 168.487336 
L 255.392553 167.902362 
L 256.46396 166.916063 
L 257.157064 165.635319 
L 257.396757 164.198919 
" style="fill:none;stroke:#ff0000;stroke-linecap:square;stroke-width:1.5;"/>
   </g>
   <g id="line2d_60">
    <path clip-path="url(#p204a8165b8)" d="M 324.96 220.501622 
L 324.11018 215.40893 
L 321.652811 210.86811 
L 317.854188 207.371231 
L 313.12595 205.297233 
L 307.980474 204.870867 
L 302.975354 206.138336 
L 298.652972 208.962289 
L 295.481724 213.036708 
L 293.805265 217.920067 
L 293.805265 223.083177 
L 295.481724 227.966535 
L 298.652972 232.040954 
L 302.975354 234.864907 
L 307.980474 236.132376 
L 313.12595 235.70601 
L 317.854188 233.632012 
L 321.652811 230.135133 
L 324.11018 225.594313 
L 324.96 220.501622 
" style="fill:none;stroke:#000000;stroke-dasharray:5.55,2.4;stroke-dashoffset:0;stroke-width:1.5;"/>
   </g>
   <g id="line2d_61">
    <path clip-path="url(#p204a8165b8)" d="M 313.699459 220.501622 
L 313.459767 219.065221 
L 312.766663 217.784477 
L 311.695256 216.798178 
L 310.36165 216.213204 
L 308.910363 216.092947 
L 307.498662 216.450438 
L 306.279528 217.246938 
L 305.385074 218.396133 
L 304.912227 219.773491 
L 304.912227 221.229753 
L 305.385074 222.60711 
L 306.279528 223.756305 
L 307.498662 224.552805 
L 308.910363 224.910296 
L 310.36165 224.790039 
L 311.695256 224.205065 
L 312.766663 223.218766 
L 313.459767 221.938022 
L 313.699459 220.501622 
" style="fill:none;stroke:#ff0000;stroke-linecap:square;stroke-width:1.5;"/>
   </g>
   <g id="line2d_62">
    <path clip-path="url(#p204a8165b8)" d="M 324.96 164.198919 
L 324.11018 159.106227 
L 321.652811 154.565408 
L 317.854188 151.068528 
L 313.12595 148.994531 
L 307.980474 148.568165 
L 302.975354 149.835633 
L 298.652972 152.659586 
L 295.481724 156.734006 
L 293.805265 161.617364 
L 293.805265 166.780474 
L 295.481724 171.663832 
L 298.652972 175.738251 
L 302.975354 178.562205 
L 307.980474 179.829673 
L 313.12595 179.403307 
L 317.854188 177.329309 
L 321.652811 173.83243 
L 324.11018 169.291611 
L 324.96 164.198919 
" style="fill:none;stroke:#000000;stroke-dasharray:5.55,2.4;stroke-dashoffset:0;stroke-width:1.5;"/>
   </g>
   <g id="line2d_63">
    <path clip-path="url(#p204a8165b8)" d="M 313.699459 164.198919 
L 313.459767 162.762519 
L 312.766663 161.481775 
L 311.695256 160.495475 
L 310.36165 159.910502 
L 308.910363 159.790245 
L 307.498662 160.147736 
L 306.279528 160.944235 
L 305.385074 162.093431 
L 304.912227 163.470788 
L 304.912227 164.92705 
L 305.385074 166.304407 
L 306.279528 167.453602 
L 307.498662 168.250102 
L 308.910363 168.607593 
L 310.36165 168.487336 
L 311.695256 167.902362 
L 312.766663 166.916063 
L 313.459767 165.635319 
L 313.699459 164.198919 
" style="fill:none;stroke:#ff0000;stroke-linecap:square;stroke-width:1.5;"/>
   </g>
   <g id="line2d_64">
    <path clip-path="url(#p204a8165b8)" d="M 381.262703 220.501622 
L 380.412883 215.40893 
L 377.955514 210.86811 
L 374.156891 207.371231 
L 369.428652 205.297233 
L 364.283177 204.870867 
L 359.278057 206.138336 
L 354.955675 208.962289 
L 351.784427 213.036708 
L 350.107968 217.920067 
L 350.107968 223.083177 
L 351.784427 227.966535 
L 354.955675 232.040954 
L 359.278057 234.864907 
L 364.283177 236.132376 
L 369.428652 235.70601 
L 374.156891 233.632012 
L 377.955514 230.135133 
L 380.412883 225.594313 
L 381.262703 220.501622 
" style="fill:none;stroke:#000000;stroke-dasharray:5.55,2.4;stroke-dashoffset:0;stroke-width:1.5;"/>
   </g>
   <g id="line2d_65">
    <path clip-path="url(#p204a8165b8)" d="M 370.002162 220.501622 
L 369.762469 219.065221 
L 369.069365 217.784477 
L 367.997959 216.798178 
L 366.664353 216.213204 
L 365.213065 216.092947 
L 363.801365 216.450438 
L 362.582231 217.246938 
L 361.687777 218.396133 
L 361.214929 219.773491 
L 361.214929 221.229753 
L 361.687777 222.60711 
L 362.582231 223.756305 
L 363.801365 224.552805 
L 365.213065 224.910296 
L 366.664353 224.790039 
L 367.997959 224.205065 
L 369.069365 223.218766 
L 369.762469 221.938022 
L 370.002162 220.501622 
" style="fill:none;stroke:#ff0000;stroke-linecap:square;stroke-width:1.5;"/>
   </g>
   <g id="line2d_66">
    <path clip-path="url(#p204a8165b8)" d="M 381.262703 164.198919 
L 380.412883 159.106227 
L 377.955514 154.565408 
L 374.156891 151.068528 
L 369.428652 148.994531 
L 364.283177 148.568165 
L 359.278057 149.835633 
L 354.955675 152.659586 
L 351.784427 156.734006 
L 350.107968 161.617364 
L 350.107968 166.780474 
L 351.784427 171.663832 
L 354.955675 175.738251 
L 359.278057 178.562205 
L 364.283177 179.829673 
L 369.428652 179.403307 
L 374.156891 177.329309 
L 377.955514 173.83243 
L 380.412883 169.291611 
L 381.262703 164.198919 
" style="fill:none;stroke:#000000;stroke-dasharray:5.55,2.4;stroke-dashoffset:0;stroke-width:1.5;"/>
   </g>
   <g id="line2d_67">
    <path clip-path="url(#p204a8165b8)" d="M 370.002162 164.198919 
L 369.762469 162.762519 
L 369.069365 161.481775 
L 367.997959 160.495475 
L 366.664353 159.910502 
L 365.213065 159.790245 
L 363.801365 160.147736 
L 362.582231 160.944235 
L 361.687777 162.093431 
L 361.214929 163.470788 
L 361.214929 164.92705 
L 361.687777 166.304407 
L 362.582231 167.453602 
L 363.801365 168.250102 
L 365.213065 168.607593 
L 366.664353 168.487336 
L 367.997959 167.902362 
L 369.069365 166.916063 
L 369.762469 165.635319 
L 370.002162 164.198919 
" style="fill:none;stroke:#ff0000;stroke-linecap:square;stroke-width:1.5;"/>
   </g>
   <g id="line2d_68">
    <path clip-path="url(#p204a8165b8)" d="M 437.565405 220.501622 
L 436.715585 215.40893 
L 434.258217 210.86811 
L 430.459593 207.371231 
L 425.731355 205.297233 
L 420.58588 204.870867 
L 415.58076 206.138336 
L 411.258377 208.962289 
L 408.08713 213.036708 
L 406.41067 217.920067 
L 406.41067 223.083177 
L 408.08713 227.966535 
L 411.258377 232.040954 
L 415.58076 234.864907 
L 420.58588 236.132376 
L 425.731355 235.70601 
L 430.459593 233.632012 
L 434.258217 230.135133 
L 436.715585 225.594313 
L 437.565405 220.501622 
" style="fill:none;stroke:#000000;stroke-dasharray:5.55,2.4;stroke-dashoffset:0;stroke-width:1.5;"/>
   </g>
   <g id="line2d_69">
    <path clip-path="url(#p204a8165b8)" d="M 426.304865 220.501622 
L 426.065172 219.065221 
L 425.372068 217.784477 
L 424.300661 216.798178 
L 422.967056 216.213204 
L 421.515768 216.092947 
L 420.104067 216.450438 
L 418.884934 217.246938 
L 417.990479 218.396133 
L 417.517632 219.773491 
L 417.517632 221.229753 
L 417.990479 222.60711 
L 418.884934 223.756305 
L 420.104067 224.552805 
L 421.515768 224.910296 
L 422.967056 224.790039 
L 424.300661 224.205065 
L 425.372068 223.218766 
L 426.065172 221.938022 
L 426.304865 220.501622 
" style="fill:none;stroke:#ff0000;stroke-linecap:square;stroke-width:1.5;"/>
   </g>
   <g id="line2d_70">
    <path clip-path="url(#p204a8165b8)" d="M 437.565405 164.198919 
L 436.715585 159.106227 
L 434.258217 154.565408 
L 430.459593 151.068528 
L 425.731355 148.994531 
L 420.58588 148.568165 
L 415.58076 149.835633 
L 411.258377 152.659586 
L 408.08713 156.734006 
L 406.41067 161.617364 
L 406.41067 166.780474 
L 408.08713 171.663832 
L 411.258377 175.738251 
L 415.58076 178.562205 
L 420.58588 179.829673 
L 425.731355 179.403307 
L 430.459593 177.329309 
L 434.258217 173.83243 
L 436.715585 169.291611 
L 437.565405 164.198919 
" style="fill:none;stroke:#000000;stroke-dasharray:5.55,2.4;stroke-dashoffset:0;stroke-width:1.5;"/>
   </g>
   <g id="line2d_71">
    <path clip-path="url(#p204a8165b8)" d="M 426.304865 164.198919 
L 426.065172 162.762519 
L 425.372068 161.481775 
L 424.300661 160.495475 
L 422.967056 159.910502 
L 421.515768 159.790245 
L 420.104067 160.147736 
L 418.884934 160.944235 
L 417.990479 162.093431 
L 417.517632 163.470788 
L 417.517632 164.92705 
L 417.990479 166.304407 
L 418.884934 167.453602 
L 420.104067 168.250102 
L 421.515768 168.607593 
L 422.967056 168.487336 
L 424.300661 167.902362 
L 425.372068 166.916063 
L 426.065172 165.635319 
L 426.304865 164.198919 
" style="fill:none;stroke:#ff0000;stroke-linecap:square;stroke-width:1.5;"/>
   </g>
   <g id="line2d_72">
    <path clip-path="url(#p204a8165b8)" d="M 92.108108 493.971892 
L 92.108108 87.788108 
" style="fill:none;stroke:#000000;stroke-linecap:square;stroke-width:4;"/>
   </g>
   <g id="line2d_73">
    <path clip-path="url(#p204a8165b8)" d="M 92.108108 87.788108 
L 498.291892 87.788108 
" style="fill:none;stroke:#000000;stroke-linecap:square;stroke-width:4;"/>
   </g>
   <g id="line2d_74">
    <path clip-path="url(#p204a8165b8)" d="M 498.291892 87.788108 
L 498.291892 493.971892 
" style="fill:none;stroke:#000000;stroke-linecap:square;stroke-width:4;"/>
   </g>
   <g id="line2d_75">
    <path clip-path="url(#p204a8165b8)" d="M 498.291892 493.971892 
L 92.108108 493.971892 
" style="fill:none;stroke:#000000;stroke-linecap:square;stroke-width:4;"/>
   </g>
   <g id="line2d_76">
    <path clip-path="url(#p204a8165b8)" d="M 140.367568 389.40973 
L 140.930595 389.40973 
L 142.297946 389.248865 
L 144.027243 388.726054 
L 145.555459 387.801081 
L 146.842378 386.554378 
L 149.174919 383.377297 
L 150.140108 382.412108 
L 151.748757 381.32627 
L 156.252973 378.953514 
L 157.419243 377.948108 
L 159.912649 375.253622 
L 161.400649 373.926486 
L 162.969081 372.840649 
L 166.186378 370.990703 
L 167.634162 369.904865 
L 171.535135 366.204973 
L 173.063351 365.038703 
L 177.688216 361.901838 
L 180.30227 359.64973 
L 183.197838 357.196541 
L 187.782486 353.939027 
L 191.964973 350.601081 
L 193.533405 349.515243 
L 195.18227 348.59027 
L 196.992 347.866378 
L 198.922378 347.504432 
L 200.571243 347.584865 
L 202.461405 348.107676 
L 204.230919 348.952216 
L 205.638486 349.836973 
L 207.247135 350.560865 
L 208.735135 350.882595 
L 210.544865 350.882595 
L 212.032865 350.560865 
L 213.641514 349.796757 
L 215.049081 348.710919 
L 218.588108 344.327351 
L 220.076108 343.080649 
L 221.926054 341.914378 
L 223.615135 340.989405 
L 225.344432 339.823135 
L 226.349838 338.978595 
L 231.658378 333.670054 
L 235.438703 330.332108 
L 236.645189 328.964757 
L 237.650595 327.476757 
L 238.33427 326.069189 
L 238.736432 324.299676 
L 238.816865 322.731243 
L 238.696216 320.760649 
L 238.696216 318.790054 
L 239.017946 317.141189 
L 239.82227 315.371676 
L 240.988541 313.803243 
L 242.476541 312.556541 
L 244.085189 311.551135 
L 253.696865 306.725189 
L 255.506595 306.08173 
L 257.316324 305.558919 
L 262.464 304.432865 
L 265.681297 303.347027 
L 267.651892 302.341622 
L 270.265946 300.692757 
L 272.196324 299.124324 
L 274.247351 296.791784 
L 276.137514 294.137514 
L 277.183135 292.810378 
L 278.108108 291.885405 
L 278.912432 291.241946 
L 279.797189 290.719135 
L 280.722162 290.397405 
L 281.727568 290.357189 
L 282.813405 290.518054 
L 283.939459 291.000649 
L 286.272 292.408216 
L 287.679568 292.850595 
L 289.046919 293.132108 
L 291.379459 293.333189 
L 292.465297 293.132108 
L 293.591351 292.68973 
L 295.561946 291.523459 
L 297.170595 290.357189 
L 297.130378 290.437622 
L 297.251027 289.914811 
L 297.210811 288.869189 
L 296.768432 287.180108 
L 296.165189 285.933405 
L 295.52173 285.169297 
L 294.516324 284.485622 
L 293.591351 284.043243 
L 292.827243 283.198703 
L 292.585946 282.515027 
L 292.54573 281.911784 
L 292.706595 280.986811 
L 293.108757 279.941189 
L 294.154378 278.533622 
L 296.446703 275.959784 
L 296.929297 275.557622 
L 297.492324 275.235892 
L 298.296649 275.034811 
L 299.302054 274.954378 
L 301.111784 275.235892 
L 302.680216 275.758703 
L 304.329081 276.442378 
L 306.058378 277.005405 
L 307.506162 277.286919 
L 308.793081 277.327135 
L 310.039784 277.085838 
L 311.125622 276.603243 
L 312.492973 275.638054 
L 313.739676 274.310919 
L 314.664649 272.943568 
L 315.589622 271.375135 
L 316.635243 269.846919 
L 317.680865 268.56 
L 318.525405 267.755676 
L 319.450378 267.112216 
L 320.857946 266.589405 
L 322.426378 266.388324 
L 324.276324 266.508973 
L 328.820757 267.273081 
L 329.785946 267.313297 
L 330.59027 267.192649 
L 332.440216 266.549189 
L 334.491243 265.382919 
L 338.512865 262.92973 
L 340.322595 262.125405 
L 342.816 261.321081 
L 349.652757 259.752649 
L 352.588541 258.586378 
L 355.966703 256.857081 
L 360.99373 254.041946 
L 367.830486 249.980108 
L 373.018378 246.320432 
L 376.275892 243.58573 
L 379.372541 240.408649 
L 381.423568 237.955459 
L 383.675676 234.858811 
L 386.571243 230.354595 
L 389.708108 224.844973 
L 391.276541 221.064649 
L 391.92 219.094054 
L 392.563459 216.560432 
L 393.046054 214.026811 
L 393.448216 211.251892 
L 393.930811 201.27827 
L 393.971027 198.463135 
L 393.930811 194.079568 
L 393.930811 194.079568 
" style="fill:none;stroke:#8000ff;stroke-linecap:square;stroke-width:1.5;"/>
   </g>
   <g id="line2d_77">
    <path clip-path="url(#p204a8165b8)" d="M 450.032432 192.35027 
L 450.27373 192.430703 
L 450.354162 192.591568 
L 450.474811 193.033946 
L 450.434595 194.079568 
L 449.952 196.050162 
L 449.187892 197.538162 
L 447.941189 199.066378 
L 446.614054 200.112 
L 445.246703 200.795676 
L 442.029405 202.203243 
L 440.541405 203.208649 
L 439.174054 204.455351 
L 436.801297 206.988973 
L 435.313297 208.195459 
L 433.664432 209.241081 
L 428.878703 211.573622 
L 428.637405 211.493189 
L 428.355892 211.131243 
L 427.993946 210.20627 
L 427.189622 207.149838 
L 427.109189 205.219459 
L 427.792865 200.071784 
L 427.792865 199.629405 
L 427.833081 199.79027 
L 427.95373 199.910919 
L 427.833081 199.870703 
L 427.350486 199.750054 
L 426.505946 199.79027 
L 425.259243 200.192432 
L 423.650595 201.318486 
L 422.403892 202.685838 
L 421.157189 204.25427 
L 419.709405 205.621622 
L 418.060541 206.627027 
L 416.170378 207.23027 
L 414.24 207.350919 
L 412.591135 207.149838 
L 409.333622 205.903135 
L 407.564108 205.541189 
L 405.794595 205.541189 
L 404.065297 205.983568 
L 402.697946 206.667243 
L 401.290378 207.793297 
L 398.837189 210.648649 
L 397.751351 211.895351 
L 396.504649 212.981189 
L 390.914595 217.043027 
L 388.179892 219.616865 
L 385.485405 222.230919 
L 382.992 224.643892 
L 381.785514 226.011243 
L 380.739892 227.499243 
L 380.056216 228.906811 
L 379.533405 230.636108 
L 378.84973 236.105514 
L 378.286703 237.754378 
L 377.281297 239.443459 
L 375.753081 241.052108 
L 374.144432 242.178162 
L 371.208649 243.987892 
L 370.163027 244.752 
L 367.629405 247.084541 
L 364.854486 249.618162 
L 360.390486 253.116973 
L 356.167784 256.414703 
L 329.946811 277.608649 
L 327.694703 279.860757 
L 326.930595 280.866162 
L 326.206703 282.072649 
L 325.724108 283.198703 
L 325.442595 284.60627 
L 325.442595 286.295351 
L 325.804541 291.443027 
L 325.643676 292.609297 
L 325.120865 294.057081 
L 324.437189 295.263568 
L 323.512216 296.389622 
L 322.466595 297.314595 
L 321.420973 298.038486 
L 320.254703 298.561297 
L 319.088432 298.883027 
L 317.761297 298.883027 
L 316.273297 298.561297 
L 314.182054 297.716757 
L 312.694054 297.475459 
L 309.195243 296.832 
L 307.747459 296.671135 
L 305.817081 296.429838 
L 305.012757 296.470054 
L 304.087784 296.671135 
L 301.513946 297.636324 
L 296.486919 300.12973 
L 294.677189 300.732973 
L 291.258811 301.537297 
L 289.770811 302.019892 
L 288.162162 302.663351 
L 285.869838 303.95027 
L 281.285189 306.92627 
L 279.073297 307.971892 
L 277.223351 308.41427 
L 275.373405 308.615351 
L 268.214919 309.017514 
L 266.405189 309.379459 
L 263.63027 310.304432 
L 261.337946 311.309838 
L 254.822919 314.527135 
L 253.656649 314.848865 
L 252.490378 314.969514 
L 251.203459 314.848865 
L 248.790486 314.165189 
L 247.061189 313.602162 
L 244.889514 313.320649 
L 243.160216 313.52173 
L 241.993946 313.883676 
L 240.908108 314.36627 
L 239.782054 315.049946 
L 237.731027 316.698811 
L 236.323459 318.066162 
L 232.38227 322.851892 
L 230.451892 325.667027 
L 228.843243 328.522378 
L 227.435676 331.779892 
L 226.550919 334.313514 
L 225.505297 339.059027 
L 224.982486 343.241514 
L 224.781405 345.855568 
L 224.700973 348.268541 
L 224.580324 353.456432 
L 224.620541 359.609514 
L 224.620541 359.609514 
" style="fill:none;stroke:#4062fa;stroke-linecap:square;stroke-width:1.5;"/>
   </g>
   <g id="line2d_78">
    <path clip-path="url(#p204a8165b8)" d="M 402.175135 440.082162 
L 401.974054 440.122378 
L 401.853405 440.243027 
L 401.893622 440.162595 
L 402.01427 439.157189 
L 401.813189 437.749622 
L 401.089297 436.221405 
L 400.204541 434.974703 
L 398.877405 433.728 
L 397.590486 432.682378 
L 396.424216 431.516108 
L 395.298162 429.947676 
L 394.453622 428.218378 
L 393.890595 426.730378 
L 393.08627 425.12173 
L 392.000432 423.673946 
L 388.340757 420.175135 
L 387.214703 418.606703 
L 384.882162 413.820973 
L 383.796324 412.373189 
L 379.975784 408.190703 
L 379.050811 406.863568 
L 376.275892 402.319135 
L 372.576 397.452973 
L 371.811892 396.447568 
L 371.490162 397.69427 
L 371.248865 398.016 
L 371.369514 397.975784 
L 376.838919 397.372541 
L 378.648649 397.533405 
L 382.67027 398.739892 
L 382.549622 398.780108 
L 382.428973 398.820324 
L 382.388757 398.900757 
L 382.67027 398.136649 
L 382.871351 397.010595 
L 382.710486 395.482378 
L 382.107243 393.793297 
L 381.18227 392.224865 
L 379.975784 390.616216 
L 378.889946 388.927135 
L 378.326919 387.439135 
L 378.246486 386.594595 
L 378.447568 385.347892 
L 379.131243 383.538162 
L 380.056216 382.130595 
L 382.187676 379.717622 
L 382.911568 378.229622 
L 383.31373 376.661189 
L 383.353946 374.931892 
L 383.032216 373.403676 
L 382.469189 371.996108 
L 381.423568 370.548324 
L 380.257297 369.42227 
L 377.36173 367.129946 
L 375.994378 365.802811 
L 374.265081 363.349622 
L 373.380324 362.022486 
L 372.25427 360.574703 
L 369.881514 358.081297 
L 366.181622 354.140108 
L 363.688216 351.365189 
L 362.361081 350.07827 
L 360.672 348.751135 
L 359.103568 347.866378 
L 357.655784 347.343568 
L 355.88627 347.10227 
L 354.076541 347.182703 
L 352.226595 347.383784 
L 350.57773 347.343568 
L 348.647351 346.860973 
L 347.159351 346.137081 
L 345.832216 345.091459 
L 344.746378 343.884973 
L 343.620324 342.316541 
L 341.730162 339.420973 
L 339.51827 336.766703 
L 335.898811 332.785297 
L 333.445622 329.568 
L 329.987027 324.822486 
L 325.241514 318.106378 
L 324.477405 317.422703 
L 323.311135 317.503135 
L 320.938378 317.664 
L 319.892757 317.583568 
L 318.364541 317.302054 
L 316.836324 316.739027 
L 315.951568 316.176 
L 315.187459 315.371676 
L 314.182054 313.964108 
L 313.820108 313.159784 
L 313.699459 312.596757 
L 313.699459 311.953297 
L 313.900541 311.068541 
L 314.383135 310.063135 
L 315.750486 307.730595 
L 316.152649 306.725189 
L 316.273297 305.961081 
L 316.192865 305.036108 
L 315.830919 303.708973 
L 315.147243 302.422054 
L 314.22227 301.255784 
L 312.251676 299.48627 
L 311.206054 298.762378 
L 308.953946 297.555892 
L 307.465946 296.791784 
L 306.219243 295.987459 
L 304.771459 294.821189 
L 303.444324 293.494054 
L 301.393297 291.000649 
L 299.382486 288.306162 
L 297.049946 284.887784 
L 296.36627 283.319351 
L 296.285838 282.193297 
L 296.527135 281.268324 
L 297.170595 280.021622 
L 298.296649 278.614054 
L 301.554162 275.597838 
L 301.875892 275.075027 
L 302.036757 274.592432 
L 302.117189 273.828324 
L 302.036757 272.943568 
L 301.755243 271.897946 
L 300.83027 269.887135 
L 297.894486 264.618811 
L 295.039135 259.792865 
L 293.470703 257.621189 
L 291.701189 255.409297 
L 289.891459 253.35827 
L 282.089514 245.676973 
L 271.231135 235.542486 
L 268.295351 232.767568 
L 266.60627 231.03827 
L 266.686703 230.796973 
L 267.330162 230.274162 
L 268.214919 229.872 
L 269.461622 229.55027 
L 271.311568 229.107892 
L 272.196324 228.142703 
L 272.88 226.855784 
L 273.121297 225.890595 
L 273.241946 224.885189 
L 273.161514 223.356973 
L 272.839784 221.708108 
L 271.633297 216.399568 
L 271.150703 209.763892 
L 270.668108 207.913946 
L 269.904 206.224865 
L 268.858378 204.535784 
L 267.571459 203.007568 
L 265.520432 201.077189 
L 263.067243 199.187027 
L 260.131459 197.417514 
L 258.482595 196.572973 
L 256.793514 195.768649 
L 252.651243 194.320865 
L 249.675243 193.556757 
L 247.825297 193.194811 
L 244.447135 192.712216 
L 241.632 192.470919 
L 237.007135 192.229622 
L 233.267027 192.149189 
L 226.711784 192.149189 
L 226.711784 192.149189 
" style="fill:none;stroke:#00b4ec;stroke-linecap:square;stroke-width:1.5;"/>
   </g>
   <g id="line2d_79">
    <path clip-path="url(#p204a8165b8)" d="M 224.821622 136.047568 
L 225.424865 136.047568 
L 226.872649 136.208432 
L 228.722595 136.771459 
L 230.411676 137.776865 
L 231.457297 138.701838 
L 232.623568 140.27027 
L 233.347459 141.75827 
L 234.071351 143.568 
L 234.875676 145.136432 
L 235.961514 146.624432 
L 239.82227 150.404757 
L 240.988541 151.973189 
L 242.758054 155.351351 
L 243.602595 157.482811 
L 243.481946 157.683892 
L 243.280865 157.804541 
L 242.074378 158.045838 
L 240.505946 158.528432 
L 238.937514 158.76973 
L 234.272432 158.689297 
L 234.473514 158.568649 
L 234.352865 158.76973 
L 234.031135 159.533838 
L 233.830054 160.820757 
L 233.910486 162.308757 
L 234.352865 164.038054 
L 235.076757 165.405405 
L 238.495135 169.909622 
L 239.058162 171.478054 
L 239.339676 173.448649 
L 239.178811 175.379027 
L 238.133189 178.998486 
L 237.972324 180.526703 
L 238.173405 182.054919 
L 238.736432 183.744 
L 239.661405 185.272216 
L 240.908108 186.599351 
L 243.884108 188.811243 
L 245.251459 190.138378 
L 246.297081 191.425297 
L 248.187243 194.320865 
L 249.112216 195.567568 
L 251.444757 198.101189 
L 257.959784 204.415135 
L 259.286919 205.340108 
L 260.895568 206.144432 
L 262.665081 206.546595 
L 264.796541 206.586811 
L 266.566054 206.466162 
L 268.657297 206.546595 
L 270.346378 206.868324 
L 271.874595 207.552 
L 273.644108 208.879135 
L 274.890811 210.407351 
L 277.504865 214.790919 
L 278.630919 216.278919 
L 284.703568 223.075459 
L 287.920865 227.338378 
L 290.333838 230.19373 
L 290.172973 230.113297 
L 290.092541 230.113297 
L 291.459892 229.55027 
L 292.827243 228.504649 
L 295.2 225.890595 
L 295.803243 225.488432 
L 296.044541 225.488432 
L 296.205405 225.649297 
L 296.326054 225.971027 
L 296.446703 227.056865 
L 296.165189 228.70573 
L 295.561946 230.274162 
L 293.872865 233.16973 
L 292.988108 235.50227 
L 292.947892 236.387027 
L 293.148973 237.593514 
L 293.832649 239.202162 
L 294.838054 240.690162 
L 296.124973 241.896649 
L 298.940108 243.867243 
L 302.157405 245.717189 
L 305.575784 247.164973 
L 309.114811 248.451892 
L 324.236108 254.00173 
L 327.131676 255.48973 
L 328.941405 256.656 
L 331.676108 258.908108 
L 334.249946 261.683027 
L 335.416216 263.171027 
L 338.271568 267.474162 
L 345.027892 278.65427 
L 353.835243 293.614703 
L 362.039351 307.489297 
L 363.527351 309.982703 
L 365.45773 312.998919 
L 366.865297 314.647784 
L 367.709838 315.251027 
L 368.795676 315.814054 
L 369.881514 316.055351 
L 371.128216 315.894486 
L 372.576 315.371676 
L 375.190054 314.285838 
L 376.396541 314.084757 
L 377.603027 314.044541 
L 378.729081 314.245622 
L 380.377946 314.929297 
L 381.383351 315.572757 
L 382.388757 316.377081 
L 383.394162 317.382486 
L 384.600649 318.870486 
L 386.691892 322.168216 
L 388.863568 326.431135 
L 390.029838 329.085405 
L 391.397189 332.905946 
L 392.322162 336.324324 
L 392.844973 339.018811 
L 393.367784 342.517622 
L 393.971027 353.134703 
L 393.971027 359.207351 
L 393.971027 359.207351 
" style="fill:none;stroke:#40ecd4;stroke-linecap:square;stroke-width:1.5;"/>
   </g>
   <g id="line2d_80">
    <path clip-path="url(#p204a8165b8)" d="M 450.032432 304.955676 
L 449.791135 305.036108 
L 449.670486 305.237189 
L 449.670486 305.398054 
L 449.590054 305.196973 
L 449.107459 304.392649 
L 448.102054 303.306811 
L 446.65427 302.261189 
L 445.005405 301.577514 
L 443.235892 301.296 
L 439.254486 301.456865 
L 437.243676 301.296 
L 435.39373 300.853622 
L 430.406919 298.963459 
L 426.747243 298.400432 
L 424.816865 298.239568 
L 422.966919 297.958054 
L 421.35827 297.596108 
L 416.451892 296.228757 
L 413.07373 295.545081 
L 405.714162 294.016865 
L 400.486054 292.810378 
L 393.166703 291.241946 
L 314.584216 274.270703 
L 303.685622 272.380541 
L 300.870486 272.139243 
L 299.824865 272.139243 
L 299.98573 271.978378 
L 300.025946 271.897946 
L 300.025946 272.058811 
L 300.025946 272.822919 
L 300.267243 273.948973 
L 300.991135 275.597838 
L 302.117189 277.045622 
L 303.766054 278.292324 
L 304.329081 278.614054 
L 304.208432 278.614054 
L 304.851892 278.412973 
L 305.374703 277.80973 
L 305.616 276.804324 
L 305.656216 273.989189 
L 305.897514 272.983784 
L 306.540973 271.21427 
L 306.581189 270.771892 
L 306.339892 269.72627 
L 305.857297 268.801297 
L 304.570378 267.273081 
L 304.248649 266.710054 
L 304.087784 266.147027 
L 304.047568 265.543784 
L 304.248649 264.297081 
L 304.530162 263.251459 
L 304.489946 262.044973 
L 302.841081 257.942919 
L 302.117189 256.294054 
L 300.749838 254.484324 
L 300.025946 254.00173 
L 298.819459 253.559351 
L 297.85427 253.438703 
L 296.044541 253.478919 
L 294.315243 253.961514 
L 290.172973 256.052757 
L 289.006703 256.374486 
L 288.242595 256.454919 
L 287.43827 256.33427 
L 286.633946 256.052757 
L 285.829622 255.529946 
L 284.784 254.564757 
L 283.778595 253.036541 
L 281.928649 248.612757 
L 280.923243 247.366054 
L 280.159135 246.722595 
L 279.234162 246.199784 
L 277.424432 245.596541 
L 275.373405 245.194378 
L 273.081081 244.912865 
L 269.743135 244.752 
L 264.756324 244.671568 
L 258.241297 245.033514 
L 245.854703 246.642162 
L 233.02573 247.687784 
L 218.789189 248.170378 
L 211.55027 248.371459 
L 206.724324 248.451892 
L 202.300541 248.572541 
L 198.560432 248.652973 
L 198.560432 248.652973 
" style="fill:none;stroke:#80ffb4;stroke-linecap:square;stroke-width:1.5;"/>
   </g>
   <g id="line2d_81">
    <path clip-path="url(#p204a8165b8)" d="M 140.367568 248.652973 
L 142.981622 248.733405 
L 144.871784 248.934486 
L 150.421622 249.899676 
L 153.799784 250.181189 
L 159.108324 250.583351 
L 167.835243 251.669189 
L 173.184 252.232216 
L 206.764541 255.972324 
L 213.68173 256.736432 
L 232.060541 258.626595 
L 260.372757 261.079784 
L 263.791135 261.160216 
L 266.928 260.959135 
L 270.145297 260.556973 
L 274.488649 259.95373 
L 276.539676 259.873297 
L 276.982054 260.114595 
L 277.142919 260.637405 
L 277.263568 261.723243 
L 277.102703 263.532973 
L 276.137514 266.790486 
L 275.695135 268.117622 
L 275.695135 267.956757 
L 275.654919 267.916541 
L 275.775568 268.077405 
L 276.539676 268.600216 
L 277.866811 269.203459 
L 279.555892 269.565405 
L 281.767784 269.484973 
L 282.169946 269.404541 
L 282.330811 269.444757 
L 282.451459 269.605622 
L 282.411243 269.444757 
L 282.169946 268.88173 
L 282.330811 268.962162 
L 282.732973 269.123027 
L 283.296 269.203459 
L 283.979676 269.123027 
L 284.623135 268.88173 
L 285.387243 268.399135 
L 286.030703 267.795892 
L 286.633946 266.951351 
L 287.43827 265.181838 
L 287.920865 263.452541 
L 287.961081 262.487351 
L 287.599135 260.999351 
L 287.196973 259.792865 
L 286.955676 258.505946 
L 287.036108 257.339676 
L 287.43827 256.33427 
L 288.363243 255.087568 
L 290.454486 252.795243 
L 290.937081 251.950703 
L 291.500108 250.301838 
L 291.741405 248.572541 
L 291.982703 245.556324 
L 292.344649 244.028108 
L 292.907676 242.94227 
L 293.913081 241.655351 
L 295.2 240.569514 
L 296.647784 239.604324 
L 299.503135 237.794595 
L 303.685622 234.577297 
L 303.846486 234.577297 
L 305.29427 234.899027 
L 306.339892 235.462054 
L 307.626811 236.588108 
L 308.672432 237.915243 
L 309.476757 239.644541 
L 310.120216 241.414054 
L 310.844108 243.062919 
L 311.568 244.148757 
L 312.211459 244.752 
L 312.895135 245.194378 
L 314.463568 245.676973 
L 315.348324 245.636757 
L 316.152649 245.435676 
L 317.077622 245.033514 
L 318.042811 244.349838 
L 320.616649 242.258595 
L 321.179676 241.936865 
L 322.748108 241.45427 
L 323.512216 241.333622 
L 326.005622 241.373838 
L 327.61427 241.494486 
L 329.142486 241.45427 
L 330.389189 241.253189 
L 332.279351 240.649946 
L 334.571676 239.885838 
L 336.220541 239.564108 
L 338.553081 239.363027 
L 340.805189 239.443459 
L 342.333405 239.644541 
L 344.344216 240.167351 
L 345.792 240.810811 
L 346.797405 241.414054 
L 348.124541 242.540108 
L 349.733189 244.43027 
L 351.060324 246.280216 
L 352.91027 248.974703 
L 355.484108 252.111568 
L 358.01773 254.564757 
L 364.130595 259.068973 
L 367.267459 261.12 
L 391.075459 275.316324 
L 392.724324 276.241297 
L 392.724324 276.241297 
" style="fill:none;stroke:#bfec8e;stroke-linecap:square;stroke-width:1.5;"/>
   </g>
   <g id="line2d_82">
    <path clip-path="url(#p204a8165b8)" d="M 281.124324 192.35027 
L 281.888432 192.511135 
L 282.411243 192.792649 
L 282.97427 193.315459 
L 283.497081 194.039351 
L 284.100324 195.286054 
L 284.502486 196.934919 
L 284.582919 198.784865 
L 284.46227 200.675027 
L 283.859027 205.983568 
L 283.698162 209.442162 
L 283.255784 223.517838 
L 282.652541 238.357622 
L 282.531892 245.033514 
L 282.451459 251.02573 
L 282.290595 259.189622 
L 282.210162 266.428541 
L 282.12973 270.490378 
L 282.169946 275.356541 
L 282.451459 278.171676 
L 282.934054 280.504216 
L 284.341622 286.777946 
L 284.703568 289.392 
L 285.548108 296.228757 
L 285.910054 297.716757 
L 286.513297 299.084108 
L 287.196973 299.888432 
L 288.162162 300.652541 
L 289.288216 301.255784 
L 292.304432 302.542703 
L 293.913081 303.427459 
L 295.481514 304.553514 
L 296.889081 305.719784 
L 298.176 307.167568 
L 299.060757 308.454486 
L 299.744432 309.862054 
L 300.227027 311.872865 
L 300.307459 313.320649 
L 300.227027 315.331459 
L 299.784649 317.020541 
L 299.302054 317.98573 
L 298.49773 318.910703 
L 297.934703 319.272649 
L 296.486919 319.755243 
L 294.556541 319.996541 
L 291.862054 320.278054 
L 290.293622 320.680216 
L 288.765405 321.323676 
L 287.558919 321.967135 
L 285.749189 323.254054 
L 284.703568 324.179027 
L 283.818811 325.063784 
L 283.054703 325.948541 
L 281.325405 328.602811 
L 280.601514 330.332108 
L 280.199351 331.538595 
L 280.199351 331.538595 
" style="fill:none;stroke:#ffb462;stroke-linecap:square;stroke-width:1.5;"/>
   </g>
   <g id="line2d_83">
    <path clip-path="url(#p204a8165b8)" d="M 140.367568 304.955676 
L 142.378378 304.915459 
L 144.228324 304.754595 
L 147.888 304.070919 
L 151.306378 303.347027 
L 158.424649 302.180757 
L 172.178595 299.848216 
L 179.055568 298.722162 
L 201.898378 294.861405 
L 217.743568 292.247351 
L 235.68 289.71373 
L 242.556973 288.828973 
L 250.077405 287.542054 
L 253.053405 286.576865 
L 254.903351 285.651892 
L 256.994595 284.123676 
L 258.603243 282.555243 
L 260.332541 280.464 
L 260.332541 280.705297 
L 260.211892 280.504216 
L 259.769514 280.021622 
L 259.206486 279.619459 
L 255.587027 277.689081 
L 255.265297 277.327135 
L 255.265297 277.327135 
L 255.265297 277.126054 
L 255.667459 276.361946 
L 256.351135 275.557622 
L 257.276108 274.914162 
L 258.442378 274.552216 
L 259.648865 274.431568 
L 261.056432 274.592432 
L 263.791135 275.115243 
L 267.651892 276.160865 
L 269.662703 276.723892 
L 271.432216 277.126054 
L 271.231135 277.16627 
L 271.07027 277.327135 
L 271.07027 277.327135 
L 271.995243 274.230486 
L 272.518054 273.225081 
L 273.161514 272.420757 
L 273.523459 272.340324 
L 273.845189 272.501189 
L 274.368 272.943568 
L 277.384216 276.603243 
L 277.263568 277.005405 
L 275.856 279.498811 
L 275.494054 281.228108 
L 275.574486 282.474811 
L 275.815784 283.319351 
L 276.217946 284.163892 
L 277.102703 285.169297 
L 278.349405 285.973622 
L 279.354811 286.375784 
L 281.727568 286.73773 
L 282.853622 286.73773 
L 284.180757 286.657297 
L 286.231784 286.335568 
L 290.132757 285.24973 
L 292.465297 284.405189 
L 295.159784 283.359568 
L 302.599784 280.061838 
L 307.707243 277.648865 
L 307.707243 277.648865 
" style="fill:none;stroke:#ff6232;stroke-linecap:square;stroke-width:1.5;"/>
   </g>
   <g id="line2d_84">
    <path clip-path="url(#p204a8165b8)" d="M 393.72973 220.501622 
L 393.971027 220.582054 
L 394.091676 220.823351 
L 394.011243 221.104865 
L 393.609081 221.868973 
L 392.643892 222.954811 
L 391.075459 224.161297 
L 389.305946 224.925405 
L 387.375568 225.287351 
L 381.504 225.247135 
L 380.016 225.649297 
L 378.608432 226.292757 
L 377.522595 227.016649 
L 376.999784 227.619892 
L 376.678054 228.263351 
L 376.356324 229.389405 
L 376.316108 230.877405 
L 376.597622 232.646919 
L 377.281297 234.376216 
L 377.763892 236.025081 
L 377.884541 237.070703 
L 377.804108 237.714162 
L 377.562811 238.518486 
L 376.758486 239.885838 
L 375.431351 241.253189 
L 373.782486 242.298811 
L 371.972757 242.982486 
L 370.002162 243.223784 
L 366.865297 243.103135 
L 365.055568 243.223784 
L 363.286054 243.625946 
L 357.977514 245.435676 
L 356.328649 245.757405 
L 348.888649 246.441081 
L 339.598703 248.009514 
L 335.898811 248.451892 
L 316.514595 251.307243 
L 309.074595 252.352865 
L 298.216216 253.921297 
L 294.596757 254.283243 
L 293.953297 252.835459 
L 293.832649 251.468108 
L 294.03373 247.124757 
L 294.073946 247.285622 
L 294.355459 247.40627 
L 293.993514 247.446486 
L 293.148973 247.687784 
L 291.741405 248.331243 
L 290.534919 249.256216 
L 288.001297 251.669189 
L 287.920865 251.709405 
L 287.43827 251.709405 
L 286.392649 251.387676 
L 284.944865 250.502919 
L 283.577514 249.095351 
L 282.572108 247.526919 
L 281.48627 246.079135 
L 280.440649 245.113946 
L 279.033081 244.229189 
L 277.344 243.666162 
L 275.574486 243.505297 
L 273.804973 243.746595 
L 272.316973 244.229189 
L 270.587676 244.912865 
L 267.410595 245.797622 
L 263.952 246.320432 
L 257.075027 247.245405 
L 253.616432 247.728 
L 242.677622 248.854054 
L 239.701622 249.417081 
L 235.197405 250.543135 
L 141.332757 276.522811 
L 141.332757 276.522811 
" style="fill:none;stroke:#ff0000;stroke-linecap:square;stroke-width:1.5;"/>
   </g>
   <g id="patch_3">
    <path d="M 72 512.64 
L 72 69.12 
" style="fill:none;stroke:#000000;stroke-linecap:square;stroke-linejoin:miter;stroke-width:0.8;"/>
   </g>
   <g id="patch_4">
    <path d="M 518.4 512.64 
L 518.4 69.12 
" style="fill:none;stroke:#000000;stroke-linecap:square;stroke-linejoin:miter;stroke-width:0.8;"/>
   </g>
   <g id="patch_5">
    <path d="M 72 512.64 
L 518.4 512.64 
" style="fill:none;stroke:#000000;stroke-linecap:square;stroke-linejoin:miter;stroke-width:0.8;"/>
   </g>
   <g id="patch_6">
    <path d="M 72 69.12 
L 518.4 69.12 
" style="fill:none;stroke:#000000;stroke-linecap:square;stroke-linejoin:miter;stroke-width:0.8;"/>
   </g>
   <g id="text_13">
    <!-- 1 -->
    <defs>
     <path d="M 14.203125 0 
L 14.203125 5.171875 
L 26.90625 5.171875 
L 26.90625 65.828125 
L 12.203125 56.296875 
L 12.203125 62.703125 
L 29.984375 74.21875 
L 36.71875 74.21875 
L 36.71875 5.171875 
L 49.421875 5.171875 
L 49.421875 0 
z
" id="DejaVuSerif-31"/>
    </defs>
    <g transform="translate(137.186318 389.40973)scale(0.1 -0.1)">
     <use xlink:href="#DejaVuSerif-31"/>
    </g>
   </g>
   <g id="text_14">
    <!-- 1 -->
    <g transform="translate(390.54848 192.35027)scale(0.1 -0.1)">
     <use xlink:href="#DejaVuSerif-31"/>
    </g>
   </g>
   <g id="text_15">
    <!-- 2 -->
    <defs>
     <path d="M 12.796875 55.515625 
L 7.328125 55.515625 
L 7.328125 68.5 
Q 12.546875 71.296875 17.84375 72.75 
Q 23.140625 74.21875 28.21875 74.21875 
Q 39.59375 74.21875 46.1875 68.703125 
Q 52.78125 63.1875 52.78125 53.71875 
Q 52.78125 43.015625 37.84375 28.125 
Q 36.671875 27 36.078125 26.421875 
L 17.671875 8.015625 
L 48.09375 8.015625 
L 48.09375 17 
L 53.8125 17 
L 53.8125 0 
L 6.78125 0 
L 6.78125 5.328125 
L 28.90625 27.390625 
Q 36.234375 34.71875 39.359375 40.84375 
Q 42.484375 46.96875 42.484375 53.71875 
Q 42.484375 61.078125 38.640625 65.234375 
Q 34.8125 69.390625 28.078125 69.390625 
Q 21.09375 69.390625 17.28125 65.921875 
Q 13.484375 62.453125 12.796875 55.515625 
z
" id="DejaVuSerif-32"/>
    </defs>
    <g transform="translate(446.851182 192.35027)scale(0.1 -0.1)">
     <use xlink:href="#DejaVuSerif-32"/>
    </g>
   </g>
   <g id="text_16">
    <!-- 2 -->
    <g transform="translate(221.640372 361.258378)scale(0.1 -0.1)">
     <use xlink:href="#DejaVuSerif-32"/>
    </g>
   </g>
   <g id="text_17">
    <!-- 3 -->
    <defs>
     <path d="M 9.71875 69.828125 
Q 15.4375 71.96875 20.671875 73.09375 
Q 25.921875 74.21875 30.515625 74.21875 
Q 41.21875 74.21875 47.21875 69.59375 
Q 53.21875 64.984375 53.21875 56.78125 
Q 53.21875 50.203125 49.0625 45.78125 
Q 44.921875 41.359375 37.3125 39.796875 
Q 46.296875 38.53125 51.25 33.28125 
Q 56.203125 28.03125 56.203125 19.671875 
Q 56.203125 9.46875 49.34375 4.015625 
Q 42.484375 -1.421875 29.59375 -1.421875 
Q 23.875 -1.421875 18.421875 -0.1875 
Q 12.984375 1.03125 7.625 3.515625 
L 7.625 17.671875 
L 13.09375 17.671875 
Q 13.578125 10.640625 17.828125 7.03125 
Q 22.078125 3.421875 29.78125 3.421875 
Q 37.25 3.421875 41.578125 7.734375 
Q 45.90625 12.0625 45.90625 19.578125 
Q 45.90625 28.171875 41.453125 32.59375 
Q 37.015625 37.015625 28.421875 37.015625 
L 23.78125 37.015625 
L 23.78125 42 
L 26.21875 42 
Q 34.765625 42 39.03125 45.53125 
Q 43.3125 49.078125 43.3125 56.203125 
Q 43.3125 62.59375 39.796875 65.984375 
Q 36.28125 69.390625 29.6875 69.390625 
Q 23.09375 69.390625 19.453125 66.265625 
Q 15.828125 63.140625 15.1875 56.984375 
L 9.71875 56.984375 
z
" id="DejaVuSerif-33"/>
    </defs>
    <g transform="translate(398.993885 440.082162)scale(0.1 -0.1)">
     <use xlink:href="#DejaVuSerif-33"/>
    </g>
   </g>
   <g id="text_18">
    <!-- 3 -->
    <g transform="translate(221.640372 192.35027)scale(0.1 -0.1)">
     <use xlink:href="#DejaVuSerif-33"/>
    </g>
   </g>
   <g id="text_19">
    <!-- 4 -->
    <defs>
     <path d="M 34.90625 24.703125 
L 34.90625 63.484375 
L 10.015625 24.703125 
z
M 56.390625 0 
L 23.1875 0 
L 23.1875 5.171875 
L 34.90625 5.171875 
L 34.90625 19.484375 
L 3.078125 19.484375 
L 3.078125 24.8125 
L 35.015625 74.21875 
L 44.671875 74.21875 
L 44.671875 24.703125 
L 58.59375 24.703125 
L 58.59375 19.484375 
L 44.671875 19.484375 
L 44.671875 5.171875 
L 56.390625 5.171875 
z
" id="DejaVuSerif-34"/>
    </defs>
    <g transform="translate(221.640372 136.047568)scale(0.1 -0.1)">
     <use xlink:href="#DejaVuSerif-34"/>
    </g>
   </g>
   <g id="text_20">
    <!-- 4 -->
    <g transform="translate(390.54848 361.258378)scale(0.1 -0.1)">
     <use xlink:href="#DejaVuSerif-34"/>
    </g>
   </g>
   <g id="text_21">
    <!-- 5 -->
    <defs>
     <path d="M 50.296875 72.90625 
L 50.296875 64.890625 
L 16.890625 64.890625 
L 16.890625 44 
Q 19.4375 45.75 22.828125 46.625 
Q 26.21875 47.515625 30.421875 47.515625 
Q 42.234375 47.515625 49.0625 40.96875 
Q 55.90625 34.421875 55.90625 23.09375 
Q 55.90625 11.53125 49 5.046875 
Q 42.09375 -1.421875 29.59375 -1.421875 
Q 24.5625 -1.421875 19.28125 -0.1875 
Q 14.015625 1.03125 8.5 3.515625 
L 8.5 17.671875 
L 14.015625 17.671875 
Q 14.453125 10.75 18.421875 7.078125 
Q 22.40625 3.421875 29.59375 3.421875 
Q 37.3125 3.421875 41.453125 8.5 
Q 45.609375 13.578125 45.609375 23.09375 
Q 45.609375 32.5625 41.484375 37.609375 
Q 37.359375 42.671875 29.59375 42.671875 
Q 25.203125 42.671875 21.84375 41.109375 
Q 18.5 39.546875 15.921875 36.28125 
L 11.71875 36.28125 
L 11.71875 72.90625 
z
" id="DejaVuSerif-35"/>
    </defs>
    <g transform="translate(446.851182 304.955676)scale(0.1 -0.1)">
     <use xlink:href="#DejaVuSerif-35"/>
    </g>
   </g>
   <g id="text_22">
    <!-- 5 -->
    <g transform="translate(193.48902 248.652973)scale(0.1 -0.1)">
     <use xlink:href="#DejaVuSerif-35"/>
    </g>
   </g>
   <g id="text_23">
    <!-- 6 -->
    <defs>
     <path d="M 32.71875 3.421875 
Q 39.59375 3.421875 43.296875 8.46875 
Q 47.015625 13.53125 47.015625 23 
Q 47.015625 32.46875 43.296875 37.515625 
Q 39.59375 42.578125 32.71875 42.578125 
Q 25.734375 42.578125 22.0625 37.6875 
Q 18.40625 32.8125 18.40625 23.578125 
Q 18.40625 13.875 22.109375 8.640625 
Q 25.828125 3.421875 32.71875 3.421875 
z
M 16.796875 40.140625 
Q 20.125 43.796875 24.3125 45.59375 
Q 28.515625 47.40625 33.796875 47.40625 
Q 44.671875 47.40625 51 40.859375 
Q 57.328125 34.328125 57.328125 23 
Q 57.328125 11.921875 50.515625 5.25 
Q 43.703125 -1.421875 32.328125 -1.421875 
Q 19.96875 -1.421875 13.328125 7.78125 
Q 6.6875 17 6.6875 34.078125 
Q 6.6875 53.21875 14.546875 63.71875 
Q 22.40625 74.21875 36.71875 74.21875 
Q 40.578125 74.21875 44.828125 73.484375 
Q 49.078125 72.75 53.515625 71.296875 
L 53.515625 59.28125 
L 48 59.28125 
Q 47.40625 64.203125 44.234375 66.796875 
Q 41.0625 69.390625 35.6875 69.390625 
Q 26.21875 69.390625 21.578125 62.203125 
Q 16.9375 55.03125 16.796875 40.140625 
z
" id="DejaVuSerif-36"/>
    </defs>
    <g transform="translate(137.186318 248.652973)scale(0.1 -0.1)">
     <use xlink:href="#DejaVuSerif-36"/>
    </g>
   </g>
   <g id="text_24">
    <!-- 6 -->
    <g transform="translate(390.54848 276.804324)scale(0.1 -0.1)">
     <use xlink:href="#DejaVuSerif-36"/>
    </g>
   </g>
   <g id="text_25">
    <!-- 7 -->
    <defs>
     <path d="M 56.390625 67.921875 
L 27.875 0 
L 20.609375 0 
L 47.796875 64.890625 
L 14.109375 64.890625 
L 14.109375 55.90625 
L 8.40625 55.90625 
L 8.40625 72.90625 
L 56.390625 72.90625 
z
" id="DejaVuSerif-37"/>
    </defs>
    <g transform="translate(277.943074 192.35027)scale(0.1 -0.1)">
     <use xlink:href="#DejaVuSerif-37"/>
    </g>
   </g>
   <g id="text_26">
    <!-- 7 -->
    <g transform="translate(277.943074 333.107027)scale(0.1 -0.1)">
     <use xlink:href="#DejaVuSerif-37"/>
    </g>
   </g>
   <g id="text_27">
    <!-- 8 -->
    <defs>
     <path d="M 46.578125 19.921875 
Q 46.578125 27.734375 42.6875 32.046875 
Q 38.8125 36.375 31.78125 36.375 
Q 24.75 36.375 20.875 32.046875 
Q 17 27.734375 17 19.921875 
Q 17 12.0625 20.875 7.734375 
Q 24.75 3.421875 31.78125 3.421875 
Q 38.8125 3.421875 42.6875 7.734375 
Q 46.578125 12.0625 46.578125 19.921875 
z
M 44.578125 55.328125 
Q 44.578125 61.96875 41.203125 65.671875 
Q 37.84375 69.390625 31.78125 69.390625 
Q 25.78125 69.390625 22.390625 65.671875 
Q 19 61.96875 19 55.328125 
Q 19 48.640625 22.390625 44.921875 
Q 25.78125 41.21875 31.78125 41.21875 
Q 37.84375 41.21875 41.203125 44.921875 
Q 44.578125 48.640625 44.578125 55.328125 
z
M 39.3125 38.8125 
Q 47.609375 37.703125 52.25 32.6875 
Q 56.890625 27.6875 56.890625 19.921875 
Q 56.890625 9.671875 50.390625 4.125 
Q 43.890625 -1.421875 31.78125 -1.421875 
Q 19.734375 -1.421875 13.203125 4.125 
Q 6.6875 9.671875 6.6875 19.921875 
Q 6.6875 27.6875 11.328125 32.6875 
Q 15.96875 37.703125 24.3125 38.8125 
Q 16.9375 40.140625 13 44.40625 
Q 9.078125 48.6875 9.078125 55.328125 
Q 9.078125 64.109375 15.125 69.15625 
Q 21.1875 74.21875 31.78125 74.21875 
Q 42.390625 74.21875 48.4375 69.15625 
Q 54.5 64.109375 54.5 55.328125 
Q 54.5 48.6875 50.5625 44.40625 
Q 46.625 40.140625 39.3125 38.8125 
z
" id="DejaVuSerif-38"/>
    </defs>
    <g transform="translate(137.186318 304.955676)scale(0.1 -0.1)">
     <use xlink:href="#DejaVuSerif-38"/>
    </g>
   </g>
   <g id="text_28">
    <!-- 8 -->
    <g transform="translate(306.094426 276.804324)scale(0.1 -0.1)">
     <use xlink:href="#DejaVuSerif-38"/>
    </g>
   </g>
   <g id="text_29">
    <!-- 9 -->
    <defs>
     <path d="M 46.78125 32.671875 
Q 43.5 29 39.25 27.1875 
Q 35.015625 25.390625 29.6875 25.390625 
Q 18.84375 25.390625 12.5625 31.9375 
Q 6.296875 38.484375 6.296875 49.8125 
Q 6.296875 60.890625 13.109375 67.546875 
Q 19.921875 74.21875 31.296875 74.21875 
Q 43.65625 74.21875 50.265625 65.015625 
Q 56.890625 55.8125 56.890625 38.71875 
Q 56.890625 19.578125 49.015625 9.078125 
Q 41.15625 -1.421875 26.90625 -1.421875 
Q 23.046875 -1.421875 18.796875 -0.6875 
Q 14.546875 0.046875 10.109375 1.515625 
L 10.109375 13.625 
L 15.578125 13.625 
Q 16.21875 8.6875 19.390625 6.046875 
Q 22.5625 3.421875 27.875 3.421875 
Q 37.359375 3.421875 41.984375 10.5625 
Q 46.625 17.71875 46.78125 32.671875 
z
M 30.90625 69.390625 
Q 23.96875 69.390625 20.28125 64.328125 
Q 16.609375 59.28125 16.609375 49.8125 
Q 16.609375 40.328125 20.28125 35.25 
Q 23.96875 30.171875 30.90625 30.171875 
Q 37.84375 30.171875 41.53125 35.078125 
Q 45.21875 39.984375 45.21875 49.21875 
Q 45.21875 58.9375 41.5 64.15625 
Q 37.796875 69.390625 30.90625 69.390625 
z
" id="DejaVuSerif-39"/>
    </defs>
    <g transform="translate(390.54848 220.501622)scale(0.1 -0.1)">
     <use xlink:href="#DejaVuSerif-39"/>
    </g>
   </g>
   <g id="text_30">
    <!-- 9 -->
    <g transform="translate(137.186318 276.804324)scale(0.1 -0.1)">
     <use xlink:href="#DejaVuSerif-39"/>
    </g>
   </g>
   <g id="text_31">
    <!-- MRPP -->
    <defs>
     <path d="M 9.8125 72.90625 
L 24.515625 72.90625 
L 43.109375 23.296875 
L 61.8125 72.90625 
L 76.515625 72.90625 
L 76.515625 0 
L 66.890625 0 
L 66.890625 64.015625 
L 48.09375 14.015625 
L 38.1875 14.015625 
L 19.390625 64.015625 
L 19.390625 0 
L 9.8125 0 
z
" id="DejaVuSans-4d"/>
     <path d="M 44.390625 34.1875 
Q 47.5625 33.109375 50.5625 29.59375 
Q 53.5625 26.078125 56.59375 19.921875 
L 66.609375 0 
L 56 0 
L 46.6875 18.703125 
Q 43.0625 26.03125 39.671875 28.421875 
Q 36.28125 30.8125 30.421875 30.8125 
L 19.671875 30.8125 
L 19.671875 0 
L 9.8125 0 
L 9.8125 72.90625 
L 32.078125 72.90625 
Q 44.578125 72.90625 50.734375 67.671875 
Q 56.890625 62.453125 56.890625 51.90625 
Q 56.890625 45.015625 53.6875 40.46875 
Q 50.484375 35.9375 44.390625 34.1875 
z
M 19.671875 64.796875 
L 19.671875 38.921875 
L 32.078125 38.921875 
Q 39.203125 38.921875 42.84375 42.21875 
Q 46.484375 45.515625 46.484375 51.90625 
Q 46.484375 58.296875 42.84375 61.546875 
Q 39.203125 64.796875 32.078125 64.796875 
z
" id="DejaVuSans-52"/>
     <path d="M 19.671875 64.796875 
L 19.671875 37.40625 
L 32.078125 37.40625 
Q 38.96875 37.40625 42.71875 40.96875 
Q 46.484375 44.53125 46.484375 51.125 
Q 46.484375 57.671875 42.71875 61.234375 
Q 38.96875 64.796875 32.078125 64.796875 
z
M 9.8125 72.90625 
L 32.078125 72.90625 
Q 44.34375 72.90625 50.609375 67.359375 
Q 56.890625 61.8125 56.890625 51.125 
Q 56.890625 40.328125 50.609375 34.8125 
Q 44.34375 29.296875 32.078125 29.296875 
L 19.671875 29.296875 
L 19.671875 0 
L 9.8125 0 
z
" id="DejaVuSans-50"/>
    </defs>
    <g transform="translate(278.618437 63.12)scale(0.12 -0.12)">
     <use xlink:href="#DejaVuSans-4d"/>
     <use x="86.279297" xlink:href="#DejaVuSans-52"/>
     <use x="155.761719" xlink:href="#DejaVuSans-50"/>
     <use x="216.064453" xlink:href="#DejaVuSans-50"/>
    </g>
   </g>
  </g>
 </g>
 <defs>
  <clipPath id="p204a8165b8">
   <rect height="443.52" width="446.4" x="72" y="69.12"/>
  </clipPath>
 </defs>
</svg>
