<?xml version="1.0" encoding="utf-8" standalone="no"?>
<!DOCTYPE svg PUBLIC "-//W3C//DTD SVG 1.1//EN"
  "http://www.w3.org/Graphics/SVG/1.1/DTD/svg11.dtd">
<!-- Created with matplotlib (http://matplotlib.org/) -->
<svg height="576pt" version="1.1" viewBox="0 0 576 576" width="576pt" xmlns="http://www.w3.org/2000/svg" xmlns:xlink="http://www.w3.org/1999/xlink">
 <defs>
  <style type="text/css">
*{stroke-linecap:butt;stroke-linejoin:round;}
  </style>
 </defs>
 <g id="figure_1">
  <g id="patch_1">
   <path d="M 0 576 
L 576 576 
L 576 0 
L 0 0 
z
" style="fill:#ffffff;"/>
  </g>
  <g id="axes_1">
   <g id="patch_2">
    <path d="M 72 512.64 
L 518.4 512.64 
L 518.4 69.12 
L 72 69.12 
z
" style="fill:#ffffff;"/>
   </g>
   <g id="matplotlib.axis_1">
    <g id="xtick_1">
     <g id="line2d_1">
      <defs>
       <path d="M 0 0 
L 0 3.5 
" id="m4d512f69b1" style="stroke:#000000;stroke-width:0.8;"/>
      </defs>
      <g>
       <use style="stroke:#000000;stroke-width:0.8;" x="112.216216" xlink:href="#m4d512f69b1" y="512.64"/>
      </g>
     </g>
     <g id="text_1">
      <!-- 0 -->
      <defs>
       <path d="M 31.78125 66.40625 
Q 24.171875 66.40625 20.328125 58.90625 
Q 16.5 51.421875 16.5 36.375 
Q 16.5 21.390625 20.328125 13.890625 
Q 24.171875 6.390625 31.78125 6.390625 
Q 39.453125 6.390625 43.28125 13.890625 
Q 47.125 21.390625 47.125 36.375 
Q 47.125 51.421875 43.28125 58.90625 
Q 39.453125 66.40625 31.78125 66.40625 
z
M 31.78125 74.21875 
Q 44.046875 74.21875 50.515625 64.515625 
Q 56.984375 54.828125 56.984375 36.375 
Q 56.984375 17.96875 50.515625 8.265625 
Q 44.046875 -1.421875 31.78125 -1.421875 
Q 19.53125 -1.421875 13.0625 8.265625 
Q 6.59375 17.96875 6.59375 36.375 
Q 6.59375 54.828125 13.0625 64.515625 
Q 19.53125 74.21875 31.78125 74.21875 
z
" id="DejaVuSans-30"/>
      </defs>
      <g transform="translate(109.034966 527.238438)scale(0.1 -0.1)">
       <use xlink:href="#DejaVuSans-30"/>
      </g>
     </g>
    </g>
    <g id="xtick_2">
     <g id="line2d_2">
      <g>
       <use style="stroke:#000000;stroke-width:0.8;" x="192.648649" xlink:href="#m4d512f69b1" y="512.64"/>
      </g>
     </g>
     <g id="text_2">
      <!-- 2 -->
      <defs>
       <path d="M 19.1875 8.296875 
L 53.609375 8.296875 
L 53.609375 0 
L 7.328125 0 
L 7.328125 8.296875 
Q 12.9375 14.109375 22.625 23.890625 
Q 32.328125 33.6875 34.8125 36.53125 
Q 39.546875 41.84375 41.421875 45.53125 
Q 43.3125 49.21875 43.3125 52.78125 
Q 43.3125 58.59375 39.234375 62.25 
Q 35.15625 65.921875 28.609375 65.921875 
Q 23.96875 65.921875 18.8125 64.3125 
Q 13.671875 62.703125 7.8125 59.421875 
L 7.8125 69.390625 
Q 13.765625 71.78125 18.9375 73 
Q 24.125 74.21875 28.421875 74.21875 
Q 39.75 74.21875 46.484375 68.546875 
Q 53.21875 62.890625 53.21875 53.421875 
Q 53.21875 48.921875 51.53125 44.890625 
Q 49.859375 40.875 45.40625 35.40625 
Q 44.1875 33.984375 37.640625 27.21875 
Q 31.109375 20.453125 19.1875 8.296875 
z
" id="DejaVuSans-32"/>
      </defs>
      <g transform="translate(189.467399 527.238438)scale(0.1 -0.1)">
       <use xlink:href="#DejaVuSans-32"/>
      </g>
     </g>
    </g>
    <g id="xtick_3">
     <g id="line2d_3">
      <g>
       <use style="stroke:#000000;stroke-width:0.8;" x="273.081081" xlink:href="#m4d512f69b1" y="512.64"/>
      </g>
     </g>
     <g id="text_3">
      <!-- 4 -->
      <defs>
       <path d="M 37.796875 64.3125 
L 12.890625 25.390625 
L 37.796875 25.390625 
z
M 35.203125 72.90625 
L 47.609375 72.90625 
L 47.609375 25.390625 
L 58.015625 25.390625 
L 58.015625 17.1875 
L 47.609375 17.1875 
L 47.609375 0 
L 37.796875 0 
L 37.796875 17.1875 
L 4.890625 17.1875 
L 4.890625 26.703125 
z
" id="DejaVuSans-34"/>
      </defs>
      <g transform="translate(269.899831 527.238438)scale(0.1 -0.1)">
       <use xlink:href="#DejaVuSans-34"/>
      </g>
     </g>
    </g>
    <g id="xtick_4">
     <g id="line2d_4">
      <g>
       <use style="stroke:#000000;stroke-width:0.8;" x="353.513514" xlink:href="#m4d512f69b1" y="512.64"/>
      </g>
     </g>
     <g id="text_4">
      <!-- 6 -->
      <defs>
       <path d="M 33.015625 40.375 
Q 26.375 40.375 22.484375 35.828125 
Q 18.609375 31.296875 18.609375 23.390625 
Q 18.609375 15.53125 22.484375 10.953125 
Q 26.375 6.390625 33.015625 6.390625 
Q 39.65625 6.390625 43.53125 10.953125 
Q 47.40625 15.53125 47.40625 23.390625 
Q 47.40625 31.296875 43.53125 35.828125 
Q 39.65625 40.375 33.015625 40.375 
z
M 52.59375 71.296875 
L 52.59375 62.3125 
Q 48.875 64.0625 45.09375 64.984375 
Q 41.3125 65.921875 37.59375 65.921875 
Q 27.828125 65.921875 22.671875 59.328125 
Q 17.53125 52.734375 16.796875 39.40625 
Q 19.671875 43.65625 24.015625 45.921875 
Q 28.375 48.1875 33.59375 48.1875 
Q 44.578125 48.1875 50.953125 41.515625 
Q 57.328125 34.859375 57.328125 23.390625 
Q 57.328125 12.15625 50.6875 5.359375 
Q 44.046875 -1.421875 33.015625 -1.421875 
Q 20.359375 -1.421875 13.671875 8.265625 
Q 6.984375 17.96875 6.984375 36.375 
Q 6.984375 53.65625 15.1875 63.9375 
Q 23.390625 74.21875 37.203125 74.21875 
Q 40.921875 74.21875 44.703125 73.484375 
Q 48.484375 72.75 52.59375 71.296875 
z
" id="DejaVuSans-36"/>
      </defs>
      <g transform="translate(350.332264 527.238438)scale(0.1 -0.1)">
       <use xlink:href="#DejaVuSans-36"/>
      </g>
     </g>
    </g>
    <g id="xtick_5">
     <g id="line2d_5">
      <g>
       <use style="stroke:#000000;stroke-width:0.8;" x="433.945946" xlink:href="#m4d512f69b1" y="512.64"/>
      </g>
     </g>
     <g id="text_5">
      <!-- 8 -->
      <defs>
       <path d="M 31.78125 34.625 
Q 24.75 34.625 20.71875 30.859375 
Q 16.703125 27.09375 16.703125 20.515625 
Q 16.703125 13.921875 20.71875 10.15625 
Q 24.75 6.390625 31.78125 6.390625 
Q 38.8125 6.390625 42.859375 10.171875 
Q 46.921875 13.96875 46.921875 20.515625 
Q 46.921875 27.09375 42.890625 30.859375 
Q 38.875 34.625 31.78125 34.625 
z
M 21.921875 38.8125 
Q 15.578125 40.375 12.03125 44.71875 
Q 8.5 49.078125 8.5 55.328125 
Q 8.5 64.0625 14.71875 69.140625 
Q 20.953125 74.21875 31.78125 74.21875 
Q 42.671875 74.21875 48.875 69.140625 
Q 55.078125 64.0625 55.078125 55.328125 
Q 55.078125 49.078125 51.53125 44.71875 
Q 48 40.375 41.703125 38.8125 
Q 48.828125 37.15625 52.796875 32.3125 
Q 56.78125 27.484375 56.78125 20.515625 
Q 56.78125 9.90625 50.3125 4.234375 
Q 43.84375 -1.421875 31.78125 -1.421875 
Q 19.734375 -1.421875 13.25 4.234375 
Q 6.78125 9.90625 6.78125 20.515625 
Q 6.78125 27.484375 10.78125 32.3125 
Q 14.796875 37.15625 21.921875 38.8125 
z
M 18.3125 54.390625 
Q 18.3125 48.734375 21.84375 45.5625 
Q 25.390625 42.390625 31.78125 42.390625 
Q 38.140625 42.390625 41.71875 45.5625 
Q 45.3125 48.734375 45.3125 54.390625 
Q 45.3125 60.0625 41.71875 63.234375 
Q 38.140625 66.40625 31.78125 66.40625 
Q 25.390625 66.40625 21.84375 63.234375 
Q 18.3125 60.0625 18.3125 54.390625 
z
" id="DejaVuSans-38"/>
      </defs>
      <g transform="translate(430.764696 527.238438)scale(0.1 -0.1)">
       <use xlink:href="#DejaVuSans-38"/>
      </g>
     </g>
    </g>
    <g id="xtick_6">
     <g id="line2d_6">
      <g>
       <use style="stroke:#000000;stroke-width:0.8;" x="514.378378" xlink:href="#m4d512f69b1" y="512.64"/>
      </g>
     </g>
     <g id="text_6">
      <!-- 10 -->
      <defs>
       <path d="M 12.40625 8.296875 
L 28.515625 8.296875 
L 28.515625 63.921875 
L 10.984375 60.40625 
L 10.984375 69.390625 
L 28.421875 72.90625 
L 38.28125 72.90625 
L 38.28125 8.296875 
L 54.390625 8.296875 
L 54.390625 0 
L 12.40625 0 
z
" id="DejaVuSans-31"/>
      </defs>
      <g transform="translate(508.015878 527.238438)scale(0.1 -0.1)">
       <use xlink:href="#DejaVuSans-31"/>
       <use x="63.623047" xlink:href="#DejaVuSans-30"/>
      </g>
     </g>
    </g>
   </g>
   <g id="matplotlib.axis_2">
    <g id="ytick_1">
     <g id="line2d_7">
      <defs>
       <path d="M 0 0 
L -3.5 0 
" id="mc61f0dca74" style="stroke:#000000;stroke-width:0.8;"/>
      </defs>
      <g>
       <use style="stroke:#000000;stroke-width:0.8;" x="72" xlink:href="#mc61f0dca74" y="473.863784"/>
      </g>
     </g>
     <g id="text_7">
      <!-- 0 -->
      <g transform="translate(58.6375 477.663003)scale(0.1 -0.1)">
       <use xlink:href="#DejaVuSans-30"/>
      </g>
     </g>
    </g>
    <g id="ytick_2">
     <g id="line2d_8">
      <g>
       <use style="stroke:#000000;stroke-width:0.8;" x="72" xlink:href="#mc61f0dca74" y="393.431351"/>
      </g>
     </g>
     <g id="text_8">
      <!-- 2 -->
      <g transform="translate(58.6375 397.23057)scale(0.1 -0.1)">
       <use xlink:href="#DejaVuSans-32"/>
      </g>
     </g>
    </g>
    <g id="ytick_3">
     <g id="line2d_9">
      <g>
       <use style="stroke:#000000;stroke-width:0.8;" x="72" xlink:href="#mc61f0dca74" y="312.998919"/>
      </g>
     </g>
     <g id="text_9">
      <!-- 4 -->
      <g transform="translate(58.6375 316.798138)scale(0.1 -0.1)">
       <use xlink:href="#DejaVuSans-34"/>
      </g>
     </g>
    </g>
    <g id="ytick_4">
     <g id="line2d_10">
      <g>
       <use style="stroke:#000000;stroke-width:0.8;" x="72" xlink:href="#mc61f0dca74" y="232.566486"/>
      </g>
     </g>
     <g id="text_10">
      <!-- 6 -->
      <g transform="translate(58.6375 236.365705)scale(0.1 -0.1)">
       <use xlink:href="#DejaVuSans-36"/>
      </g>
     </g>
    </g>
    <g id="ytick_5">
     <g id="line2d_11">
      <g>
       <use style="stroke:#000000;stroke-width:0.8;" x="72" xlink:href="#mc61f0dca74" y="152.134054"/>
      </g>
     </g>
     <g id="text_11">
      <!-- 8 -->
      <g transform="translate(58.6375 155.933273)scale(0.1 -0.1)">
       <use xlink:href="#DejaVuSans-38"/>
      </g>
     </g>
    </g>
    <g id="ytick_6">
     <g id="line2d_12">
      <g>
       <use style="stroke:#000000;stroke-width:0.8;" x="72" xlink:href="#mc61f0dca74" y="71.701622"/>
      </g>
     </g>
     <g id="text_12">
      <!-- 10 -->
      <g transform="translate(52.275 75.50084)scale(0.1 -0.1)">
       <use xlink:href="#DejaVuSans-31"/>
       <use x="63.623047" xlink:href="#DejaVuSans-30"/>
      </g>
     </g>
    </g>
   </g>
   <g id="line2d_13">
    <path clip-path="url(#p97ee9b438a)" d="M 140.367568 389.40973 
" style="fill:none;stroke:#1f77b4;stroke-linecap:square;stroke-width:1.5;"/>
    <defs>
     <path d="M -5 5 
L 5 5 
L 5 -5 
L -5 -5 
z
" id="mdc52cf471b" style="stroke:#8000ff;stroke-linejoin:miter;"/>
    </defs>
    <g clip-path="url(#p97ee9b438a)">
     <use style="fill:#8000ff;stroke:#8000ff;stroke-linejoin:miter;" x="140.367568" xlink:href="#mdc52cf471b" y="389.40973"/>
    </g>
   </g>
   <g id="line2d_14">
    <path clip-path="url(#p97ee9b438a)" d="M 393.72973 192.35027 
" style="fill:none;stroke:#ff7f0e;stroke-linecap:square;stroke-width:1.5;"/>
    <defs>
     <path d="M 0 -5 
L -4.755283 -1.545085 
L -2.938926 4.045085 
L 2.938926 4.045085 
L 4.755283 -1.545085 
z
" id="medec850958" style="stroke:#8000ff;stroke-linejoin:miter;"/>
    </defs>
    <g clip-path="url(#p97ee9b438a)">
     <use style="fill:#8000ff;stroke:#8000ff;stroke-linejoin:miter;" x="393.72973" xlink:href="#medec850958" y="192.35027"/>
    </g>
   </g>
   <g id="line2d_15">
    <path clip-path="url(#p97ee9b438a)" d="M 450.032432 192.35027 
" style="fill:none;stroke:#2ca02c;stroke-linecap:square;stroke-width:1.5;"/>
    <defs>
     <path d="M -5 5 
L 5 5 
L 5 -5 
L -5 -5 
z
" id="m7403c32f05" style="stroke:#5148fc;stroke-linejoin:miter;"/>
    </defs>
    <g clip-path="url(#p97ee9b438a)">
     <use style="fill:#5148fc;stroke:#5148fc;stroke-linejoin:miter;" x="450.032432" xlink:href="#m7403c32f05" y="192.35027"/>
    </g>
   </g>
   <g id="line2d_16">
    <path clip-path="url(#p97ee9b438a)" d="M 224.821622 361.258378 
" style="fill:none;stroke:#d62728;stroke-linecap:square;stroke-width:1.5;"/>
    <defs>
     <path d="M 0 -5 
L -4.755283 -1.545085 
L -2.938926 4.045085 
L 2.938926 4.045085 
L 4.755283 -1.545085 
z
" id="m2f4d6dacb0" style="stroke:#5148fc;stroke-linejoin:miter;"/>
    </defs>
    <g clip-path="url(#p97ee9b438a)">
     <use style="fill:#5148fc;stroke:#5148fc;stroke-linejoin:miter;" x="224.821622" xlink:href="#m2f4d6dacb0" y="361.258378"/>
    </g>
   </g>
   <g id="line2d_17">
    <path clip-path="url(#p97ee9b438a)" d="M 402.175135 440.082162 
" style="fill:none;stroke:#9467bd;stroke-linecap:square;stroke-width:1.5;"/>
    <defs>
     <path d="M -5 5 
L 5 5 
L 5 -5 
L -5 -5 
z
" id="md1883d4473" style="stroke:#238af5;stroke-linejoin:miter;"/>
    </defs>
    <g clip-path="url(#p97ee9b438a)">
     <use style="fill:#238af5;stroke:#238af5;stroke-linejoin:miter;" x="402.175135" xlink:href="#md1883d4473" y="440.082162"/>
    </g>
   </g>
   <g id="line2d_18">
    <path clip-path="url(#p97ee9b438a)" d="M 224.821622 192.35027 
" style="fill:none;stroke:#8c564b;stroke-linecap:square;stroke-width:1.5;"/>
    <defs>
     <path d="M 0 -5 
L -4.755283 -1.545085 
L -2.938926 4.045085 
L 2.938926 4.045085 
L 4.755283 -1.545085 
z
" id="m21ebc52417" style="stroke:#238af5;stroke-linejoin:miter;"/>
    </defs>
    <g clip-path="url(#p97ee9b438a)">
     <use style="fill:#238af5;stroke:#238af5;stroke-linejoin:miter;" x="224.821622" xlink:href="#m21ebc52417" y="192.35027"/>
    </g>
   </g>
   <g id="line2d_19">
    <path clip-path="url(#p97ee9b438a)" d="M 224.821622 136.047568 
" style="fill:none;stroke:#e377c2;stroke-linecap:square;stroke-width:1.5;"/>
    <defs>
     <path d="M -5 5 
L 5 5 
L 5 -5 
L -5 -5 
z
" id="maadb4631a2" style="stroke:#0cc1e8;stroke-linejoin:miter;"/>
    </defs>
    <g clip-path="url(#p97ee9b438a)">
     <use style="fill:#0cc1e8;stroke:#0cc1e8;stroke-linejoin:miter;" x="224.821622" xlink:href="#maadb4631a2" y="136.047568"/>
    </g>
   </g>
   <g id="line2d_20">
    <path clip-path="url(#p97ee9b438a)" d="M 393.72973 361.258378 
" style="fill:none;stroke:#7f7f7f;stroke-linecap:square;stroke-width:1.5;"/>
    <defs>
     <path d="M 0 -5 
L -4.755283 -1.545085 
L -2.938926 4.045085 
L 2.938926 4.045085 
L 4.755283 -1.545085 
z
" id="m250f80bc35" style="stroke:#0cc1e8;stroke-linejoin:miter;"/>
    </defs>
    <g clip-path="url(#p97ee9b438a)">
     <use style="fill:#0cc1e8;stroke:#0cc1e8;stroke-linejoin:miter;" x="393.72973" xlink:href="#m250f80bc35" y="361.258378"/>
    </g>
   </g>
   <g id="line2d_21">
    <path clip-path="url(#p97ee9b438a)" d="M 450.032432 304.955676 
" style="fill:none;stroke:#bcbd22;stroke-linecap:square;stroke-width:1.5;"/>
    <defs>
     <path d="M -5 5 
L 5 5 
L 5 -5 
L -5 -5 
z
" id="m5d70541030" style="stroke:#3ae8d7;stroke-linejoin:miter;"/>
    </defs>
    <g clip-path="url(#p97ee9b438a)">
     <use style="fill:#3ae8d7;stroke:#3ae8d7;stroke-linejoin:miter;" x="450.032432" xlink:href="#m5d70541030" y="304.955676"/>
    </g>
   </g>
   <g id="line2d_22">
    <path clip-path="url(#p97ee9b438a)" d="M 196.67027 248.652973 
" style="fill:none;stroke:#17becf;stroke-linecap:square;stroke-width:1.5;"/>
    <defs>
     <path d="M 0 -5 
L -4.755283 -1.545085 
L -2.938926 4.045085 
L 2.938926 4.045085 
L 4.755283 -1.545085 
z
" id="me76841fddc" style="stroke:#3ae8d7;stroke-linejoin:miter;"/>
    </defs>
    <g clip-path="url(#p97ee9b438a)">
     <use style="fill:#3ae8d7;stroke:#3ae8d7;stroke-linejoin:miter;" x="196.67027" xlink:href="#me76841fddc" y="248.652973"/>
    </g>
   </g>
   <g id="line2d_23">
    <path clip-path="url(#p97ee9b438a)" d="M 140.367568 248.652973 
" style="fill:none;stroke:#1f77b4;stroke-linecap:square;stroke-width:1.5;"/>
    <defs>
     <path d="M -5 5 
L 5 5 
L 5 -5 
L -5 -5 
z
" id="m06af555df0" style="stroke:#68fcc1;stroke-linejoin:miter;"/>
    </defs>
    <g clip-path="url(#p97ee9b438a)">
     <use style="fill:#68fcc1;stroke:#68fcc1;stroke-linejoin:miter;" x="140.367568" xlink:href="#m06af555df0" y="248.652973"/>
    </g>
   </g>
   <g id="line2d_24">
    <path clip-path="url(#p97ee9b438a)" d="M 393.72973 276.804324 
" style="fill:none;stroke:#ff7f0e;stroke-linecap:square;stroke-width:1.5;"/>
    <defs>
     <path d="M 0 -5 
L -4.755283 -1.545085 
L -2.938926 4.045085 
L 2.938926 4.045085 
L 4.755283 -1.545085 
z
" id="m1e40c75a48" style="stroke:#68fcc1;stroke-linejoin:miter;"/>
    </defs>
    <g clip-path="url(#p97ee9b438a)">
     <use style="fill:#68fcc1;stroke:#68fcc1;stroke-linejoin:miter;" x="393.72973" xlink:href="#m1e40c75a48" y="276.804324"/>
    </g>
   </g>
   <g id="line2d_25">
    <path clip-path="url(#p97ee9b438a)" d="M 281.124324 192.35027 
" style="fill:none;stroke:#2ca02c;stroke-linecap:square;stroke-width:1.5;"/>
    <defs>
     <path d="M -5 5 
L 5 5 
L 5 -5 
L -5 -5 
z
" id="m5d0e1ff7af" style="stroke:#97fca7;stroke-linejoin:miter;"/>
    </defs>
    <g clip-path="url(#p97ee9b438a)">
     <use style="fill:#97fca7;stroke:#97fca7;stroke-linejoin:miter;" x="281.124324" xlink:href="#m5d0e1ff7af" y="192.35027"/>
    </g>
   </g>
   <g id="line2d_26">
    <path clip-path="url(#p97ee9b438a)" d="M 281.124324 333.107027 
" style="fill:none;stroke:#d62728;stroke-linecap:square;stroke-width:1.5;"/>
    <defs>
     <path d="M 0 -5 
L -4.755283 -1.545085 
L -2.938926 4.045085 
L 2.938926 4.045085 
L 4.755283 -1.545085 
z
" id="m08313e06e5" style="stroke:#97fca7;stroke-linejoin:miter;"/>
    </defs>
    <g clip-path="url(#p97ee9b438a)">
     <use style="fill:#97fca7;stroke:#97fca7;stroke-linejoin:miter;" x="281.124324" xlink:href="#m08313e06e5" y="333.107027"/>
    </g>
   </g>
   <g id="line2d_27">
    <path clip-path="url(#p97ee9b438a)" d="M 140.367568 304.955676 
" style="fill:none;stroke:#9467bd;stroke-linecap:square;stroke-width:1.5;"/>
    <defs>
     <path d="M -5 5 
L 5 5 
L 5 -5 
L -5 -5 
z
" id="mebad0af59a" style="stroke:#c5e88a;stroke-linejoin:miter;"/>
    </defs>
    <g clip-path="url(#p97ee9b438a)">
     <use style="fill:#c5e88a;stroke:#c5e88a;stroke-linejoin:miter;" x="140.367568" xlink:href="#mebad0af59a" y="304.955676"/>
    </g>
   </g>
   <g id="line2d_28">
    <path clip-path="url(#p97ee9b438a)" d="M 309.275676 276.804324 
" style="fill:none;stroke:#8c564b;stroke-linecap:square;stroke-width:1.5;"/>
    <defs>
     <path d="M 0 -5 
L -4.755283 -1.545085 
L -2.938926 4.045085 
L 2.938926 4.045085 
L 4.755283 -1.545085 
z
" id="m6f347cb9ce" style="stroke:#c5e88a;stroke-linejoin:miter;"/>
    </defs>
    <g clip-path="url(#p97ee9b438a)">
     <use style="fill:#c5e88a;stroke:#c5e88a;stroke-linejoin:miter;" x="309.275676" xlink:href="#m6f347cb9ce" y="276.804324"/>
    </g>
   </g>
   <g id="line2d_29">
    <path clip-path="url(#p97ee9b438a)" d="M 393.72973 220.501622 
" style="fill:none;stroke:#e377c2;stroke-linecap:square;stroke-width:1.5;"/>
    <defs>
     <path d="M -5 5 
L 5 5 
L 5 -5 
L -5 -5 
z
" id="m13dab6063d" style="stroke:#f3c16a;stroke-linejoin:miter;"/>
    </defs>
    <g clip-path="url(#p97ee9b438a)">
     <use style="fill:#f3c16a;stroke:#f3c16a;stroke-linejoin:miter;" x="393.72973" xlink:href="#m13dab6063d" y="220.501622"/>
    </g>
   </g>
   <g id="line2d_30">
    <path clip-path="url(#p97ee9b438a)" d="M 140.367568 276.804324 
" style="fill:none;stroke:#7f7f7f;stroke-linecap:square;stroke-width:1.5;"/>
    <defs>
     <path d="M 0 -5 
L -4.755283 -1.545085 
L -2.938926 4.045085 
L 2.938926 4.045085 
L 4.755283 -1.545085 
z
" id="m5b269e47d1" style="stroke:#f3c16a;stroke-linejoin:miter;"/>
    </defs>
    <g clip-path="url(#p97ee9b438a)">
     <use style="fill:#f3c16a;stroke:#f3c16a;stroke-linejoin:miter;" x="140.367568" xlink:href="#m5b269e47d1" y="276.804324"/>
    </g>
   </g>
   <g id="line2d_31">
    <path clip-path="url(#p97ee9b438a)" d="M 140.367568 136.047568 
" style="fill:none;stroke:#bcbd22;stroke-linecap:square;stroke-width:1.5;"/>
    <defs>
     <path d="M -5 5 
L 5 5 
L 5 -5 
L -5 -5 
z
" id="mbc67062601" style="stroke:#ff8a48;stroke-linejoin:miter;"/>
    </defs>
    <g clip-path="url(#p97ee9b438a)">
     <use style="fill:#ff8a48;stroke:#ff8a48;stroke-linejoin:miter;" x="140.367568" xlink:href="#mbc67062601" y="136.047568"/>
    </g>
   </g>
   <g id="line2d_32">
    <path clip-path="url(#p97ee9b438a)" d="M 252.972973 248.652973 
" style="fill:none;stroke:#17becf;stroke-linecap:square;stroke-width:1.5;"/>
    <defs>
     <path d="M 0 -5 
L -4.755283 -1.545085 
L -2.938926 4.045085 
L 2.938926 4.045085 
L 4.755283 -1.545085 
z
" id="maf65d34807" style="stroke:#ff8a48;stroke-linejoin:miter;"/>
    </defs>
    <g clip-path="url(#p97ee9b438a)">
     <use style="fill:#ff8a48;stroke:#ff8a48;stroke-linejoin:miter;" x="252.972973" xlink:href="#maf65d34807" y="248.652973"/>
    </g>
   </g>
   <g id="line2d_33">
    <path clip-path="url(#p97ee9b438a)" d="M 337.427027 164.198919 
" style="fill:none;stroke:#1f77b4;stroke-linecap:square;stroke-width:1.5;"/>
    <defs>
     <path d="M -5 5 
L 5 5 
L 5 -5 
L -5 -5 
z
" id="m8596107e47" style="stroke:#ff4824;stroke-linejoin:miter;"/>
    </defs>
    <g clip-path="url(#p97ee9b438a)">
     <use style="fill:#ff4824;stroke:#ff4824;stroke-linejoin:miter;" x="337.427027" xlink:href="#m8596107e47" y="164.198919"/>
    </g>
   </g>
   <g id="line2d_34">
    <path clip-path="url(#p97ee9b438a)" d="M 168.518919 389.40973 
" style="fill:none;stroke:#ff7f0e;stroke-linecap:square;stroke-width:1.5;"/>
    <defs>
     <path d="M 0 -5 
L -4.755283 -1.545085 
L -2.938926 4.045085 
L 2.938926 4.045085 
L 4.755283 -1.545085 
z
" id="mc390ced585" style="stroke:#ff4824;stroke-linejoin:miter;"/>
    </defs>
    <g clip-path="url(#p97ee9b438a)">
     <use style="fill:#ff4824;stroke:#ff4824;stroke-linejoin:miter;" x="168.518919" xlink:href="#mc390ced585" y="389.40973"/>
    </g>
   </g>
   <g id="line2d_35">
    <path clip-path="url(#p97ee9b438a)" d="M 196.67027 445.712432 
" style="fill:none;stroke:#2ca02c;stroke-linecap:square;stroke-width:1.5;"/>
    <defs>
     <path d="M -5 5 
L 5 5 
L 5 -5 
L -5 -5 
z
" id="mdd62c58c4b" style="stroke:#ff0000;stroke-linejoin:miter;"/>
    </defs>
    <g clip-path="url(#p97ee9b438a)">
     <use style="fill:#ff0000;stroke:#ff0000;stroke-linejoin:miter;" x="196.67027" xlink:href="#mdd62c58c4b" y="445.712432"/>
    </g>
   </g>
   <g id="line2d_36">
    <path clip-path="url(#p97ee9b438a)" d="M 393.72973 136.047568 
" style="fill:none;stroke:#d62728;stroke-linecap:square;stroke-width:1.5;"/>
    <defs>
     <path d="M 0 -5 
L -4.755283 -1.545085 
L -2.938926 4.045085 
L 2.938926 4.045085 
L 4.755283 -1.545085 
z
" id="m1219ee2761" style="stroke:#ff0000;stroke-linejoin:miter;"/>
    </defs>
    <g clip-path="url(#p97ee9b438a)">
     <use style="fill:#ff0000;stroke:#ff0000;stroke-linejoin:miter;" x="393.72973" xlink:href="#m1219ee2761" y="136.047568"/>
    </g>
   </g>
   <g id="line2d_37"/>
   <g id="line2d_38">
    <path clip-path="url(#p97ee9b438a)" d="M 92.108108 493.971892 
L 92.108108 87.788108 
" style="fill:none;stroke:#000000;stroke-linecap:square;stroke-width:4;"/>
   </g>
   <g id="line2d_39">
    <path clip-path="url(#p97ee9b438a)" d="M 92.108108 87.788108 
L 498.291892 87.788108 
" style="fill:none;stroke:#000000;stroke-linecap:square;stroke-width:4;"/>
   </g>
   <g id="line2d_40">
    <path clip-path="url(#p97ee9b438a)" d="M 498.291892 87.788108 
L 498.291892 493.971892 
" style="fill:none;stroke:#000000;stroke-linecap:square;stroke-width:4;"/>
   </g>
   <g id="line2d_41">
    <path clip-path="url(#p97ee9b438a)" d="M 498.291892 493.971892 
L 92.108108 493.971892 
" style="fill:none;stroke:#000000;stroke-linecap:square;stroke-width:4;"/>
   </g>
   <g id="line2d_42">
    <path clip-path="url(#p97ee9b438a)" d="M 140.367568 389.40973 
L 140.930595 389.40973 
L 142.297946 389.248865 
L 144.228324 388.605405 
L 145.756541 387.680432 
L 164.819027 372.559135 
L 177.527351 362.665946 
L 179.578378 361.821405 
L 181.548973 361.539892 
L 185.610811 361.821405 
L 199.726703 361.097514 
L 201.978811 360.896432 
L 228.159568 355.105297 
L 238.575568 352.451027 
L 248.830703 351.928216 
L 259.246703 351.244541 
L 263.469405 350.963027 
L 264.756324 351.123892 
L 265.480216 351.405405 
L 267.289946 352.571676 
L 268.617081 353.979243 
L 269.58227 355.708541 
L 270.185514 357.84 
L 270.22573 361.379027 
L 270.265946 362.665946 
L 270.426811 363.430054 
L 270.748541 364.153946 
L 271.834378 365.440865 
L 273.483243 366.647351 
L 274.770162 367.170162 
L 276.17773 367.451676 
L 279.555892 367.733189 
L 281.446054 367.974486 
L 283.255784 368.014703 
L 285.507892 367.451676 
L 287.719784 366.647351 
L 294.275027 364.877838 
L 296.647784 364.596324 
L 298.859676 364.918054 
L 300.83027 365.682162 
L 302.881297 366.325622 
L 304.932324 366.406054 
L 310.643027 365.481081 
L 312.573405 365.682162 
L 314.785297 366.325622 
L 316.836324 366.647351 
L 318.847135 366.365838 
L 324.678486 364.355027 
L 332.279351 362.987676 
L 338.512865 361.499676 
L 346.515892 359.247568 
L 350.336432 358.041081 
L 356.248216 355.869405 
L 358.178595 355.547676 
L 362.200216 355.467243 
L 364.050162 355.225946 
L 369.760865 353.979243 
L 377.04 351.968432 
L 381.343135 351.646703 
L 385.404973 351.646703 
L 390.75373 351.847784 
L 397.148108 351.727135 
L 399.239351 351.485838 
L 401.129514 350.802162 
L 402.818595 349.635892 
L 405.995676 347.10227 
L 407.684757 345.855568 
L 409.172757 344.568649 
L 410.540108 342.879568 
L 411.344432 340.989405 
L 411.666162 339.501405 
L 411.625946 338.053622 
L 411.223784 336.444973 
L 410.218378 334.635243 
L 407.805405 331.860324 
L 406.8 329.849514 
L 406.317405 327.677838 
L 405.673946 317.744432 
L 406.116324 315.532541 
L 407.604324 311.832649 
L 408.730378 308.253405 
L 409.776 306.363243 
L 411.103135 304.392649 
L 412.068324 302.542703 
L 413.234595 298.923243 
L 414.038919 296.952649 
L 414.722595 294.941838 
L 415.728 290.799568 
L 416.04973 288.949622 
L 416.291027 286.858378 
L 416.492108 282.595459 
L 416.170378 278.372757 
L 415.526919 274.713081 
L 415.084541 272.903351 
L 413.91827 269.042595 
L 412.591135 261.12 
L 410.620541 253.318054 
L 407.001081 240.127135 
L 404.748973 232.124108 
L 394.172108 193.878486 
L 394.172108 193.878486 
" style="fill:none;stroke:#8000ff;stroke-linecap:square;stroke-width:1.5;"/>
   </g>
   <g id="line2d_43">
    <path clip-path="url(#p97ee9b438a)" d="M 450.032432 192.35027 
L 450.27373 192.430703 
L 450.474811 192.792649 
L 450.675892 193.637189 
L 450.635676 194.843676 
L 450.233514 196.412108 
L 449.308541 198.141405 
L 448.021622 199.589189 
L 446.493405 200.755459 
L 443.155459 202.927135 
L 433.584 209.844324 
L 423.168 217.404973 
L 415.124757 223.236324 
L 405.030486 230.716541 
L 403.783784 232.325189 
L 403.059892 233.974054 
L 402.175135 238.438054 
L 401.612108 240.006486 
L 393.649297 256.97773 
L 391.879784 260.597189 
L 383.273514 276.402162 
L 380.860541 280.303135 
L 375.994378 287.139892 
L 374.586811 288.788757 
L 373.058595 290.115892 
L 371.128216 291.161514 
L 368.956541 291.684324 
L 366.181622 291.523459 
L 364.050162 290.759351 
L 361.395892 289.271351 
L 360.873081 289.110486 
L 360.35027 289.110486 
L 359.143784 289.392 
L 357.052541 290.276757 
L 356.409081 290.920216 
L 355.202595 292.810378 
L 354.599351 294.539676 
L 353.795027 296.349405 
L 352.588541 297.917838 
L 351.100541 299.204757 
L 349.331027 300.049297 
L 347.722378 300.491676 
L 343.620324 300.97427 
L 341.770378 301.698162 
L 340.242162 302.703568 
L 337.105297 305.116541 
L 333.526054 307.046919 
L 328.137081 309.982703 
L 322.748108 312.958703 
L 315.187459 316.618378 
L 312.895135 317.34227 
L 311.004973 317.462919 
L 303.243243 317.221622 
L 300.870486 316.698811 
L 297.130378 315.049946 
L 287.639351 312.355459 
L 285.548108 311.993514 
L 283.456865 311.752216 
L 281.325405 311.631568 
L 279.475459 311.671784 
L 277.625514 311.832649 
L 275.292973 312.194595 
L 273.20173 312.677189 
L 271.190919 313.320649 
L 269.461622 314.004324 
L 267.571459 314.929297 
L 265.721514 315.974919 
L 262.303135 318.468324 
L 259.407568 321.203027 
L 257.879351 322.811676 
L 256.19027 324.259459 
L 254.70227 325.385514 
L 251.927351 327.878919 
L 249.232865 330.814703 
L 246.618811 333.830919 
L 236.403892 346.619676 
L 225.424865 360.49427 
L 225.424865 360.49427 
" style="fill:none;stroke:#5148fc;stroke-linecap:square;stroke-width:1.5;"/>
   </g>
   <g id="line2d_44">
    <path clip-path="url(#p97ee9b438a)" d="M 402.175135 440.082162 
L 401.933838 440.162595 
L 402.134919 439.961514 
L 402.456649 439.318054 
L 402.697946 438.393081 
L 402.697946 436.704 
L 402.134919 434.733405 
L 401.089297 432.923676 
L 396.585081 427.011892 
L 375.994378 398.900757 
L 357.977514 374.167784 
L 357.253622 372.358054 
L 356.931892 370.508108 
L 356.851459 368.175568 
L 356.569946 365.843027 
L 356.006919 363.751784 
L 354.116757 353.617297 
L 354.237405 351.405405 
L 356.610162 342.96 
L 356.328649 342.316541 
L 354.518919 339.782919 
L 353.754811 337.691676 
L 353.795027 337.530811 
L 354.116757 337.088432 
L 357.293838 334.514595 
L 358.419892 333.107027 
L 358.942703 331.980973 
L 358.86227 328.884324 
L 359.224216 326.953946 
L 360.028541 325.144216 
L 362.119784 322.047568 
L 363.889297 318.066162 
L 364.934919 316.417297 
L 366.262054 315.049946 
L 367.669622 313.803243 
L 369.077189 312.275027 
L 370.042378 310.706595 
L 370.685838 309.299027 
L 372.093405 305.156757 
L 372.616216 303.145946 
L 372.777081 301.376432 
L 372.495568 297.354811 
L 372.736865 295.786378 
L 373.098811 295.424432 
L 374.345514 294.579892 
L 376.034595 294.057081 
L 378.20627 293.856 
L 380.619243 293.856 
L 382.710486 293.574486 
L 384.600649 292.770162 
L 385.64627 291.965838 
L 385.887568 291.483243 
L 386.410378 289.794162 
L 386.531027 288.024649 
L 386.209297 286.255135 
L 384.922378 282.716108 
L 384.319135 281.067243 
L 382.710486 277.930378 
L 381.82573 276.080432 
L 380.780108 274.592432 
L 379.211676 273.265297 
L 377.603027 272.501189 
L 375.471568 271.978378 
L 370.645622 271.133838 
L 368.996757 270.409946 
L 367.347892 269.927351 
L 365.377297 269.72627 
L 363.446919 269.686054 
L 361.516541 269.283892 
L 359.747027 268.479568 
L 358.218811 267.313297 
L 356.730811 265.825297 
L 355.363459 264.618811 
L 348.526703 259.95373 
L 343.298595 257.138595 
L 341.609514 255.731027 
L 340.201946 254.403892 
L 338.553081 253.036541 
L 332.118486 248.652973 
L 326.608865 245.355243 
L 323.069838 243.424865 
L 314.061405 238.719568 
L 306.943135 234.979459 
L 299.302054 231.03827 
L 285.749189 224.000432 
L 282.371027 222.150486 
L 278.992865 219.898378 
L 275.292973 217.766919 
L 271.995243 215.997405 
L 225.746595 192.792649 
L 225.746595 192.792649 
" style="fill:none;stroke:#238af5;stroke-linecap:square;stroke-width:1.5;"/>
   </g>
   <g id="line2d_45">
    <path clip-path="url(#p97ee9b438a)" d="M 224.821622 136.047568 
L 225.344432 136.047568 
L 226.229189 136.168216 
L 228.119351 136.771459 
L 230.009514 137.977946 
L 231.336649 139.305081 
L 234.473514 143.728865 
L 240.46573 151.973189 
L 243.964541 156.718703 
L 252.651243 168.622703 
L 256.150054 173.247568 
L 257.758703 174.49427 
L 260.935784 176.223568 
L 263.952 178.716973 
L 267.289946 180.888649 
L 273.282162 185.352649 
L 274.086486 186.277622 
L 274.971243 188.006919 
L 276.097297 191.666595 
L 277.062486 193.194811 
L 278.108108 194.280649 
L 279.596108 195.366486 
L 281.204757 196.371892 
L 282.732973 197.497946 
L 286.070919 200.192432 
L 289.248 202.685838 
L 291.097946 204.214054 
L 297.331459 208.678054 
L 299.181405 209.522595 
L 301.312865 209.964973 
L 303.484541 210.688865 
L 305.173622 211.69427 
L 307.104 213.463784 
L 308.672432 214.710486 
L 310.522378 215.635459 
L 312.251676 216.118054 
L 314.182054 216.922378 
L 317.560216 219.174486 
L 321.300324 220.582054 
L 323.110054 221.547243 
L 325.000216 222.391784 
L 326.76973 222.673297 
L 328.820757 222.512432 
L 330.509838 221.949405 
L 333.686919 220.019027 
L 336.099892 219.295135 
L 338.311784 219.254919 
L 340.201946 219.737514 
L 342.172541 220.783135 
L 343.821405 222.311351 
L 345.751784 225.08627 
L 347.119135 226.252541 
L 348.727784 227.780757 
L 349.93427 229.670919 
L 350.698378 231.802378 
L 352.508108 237.714162 
L 356.851459 250.704 
L 358.138378 254.524541 
L 360.470919 259.712432 
L 361.275243 263.613405 
L 362.079568 265.503568 
L 364.492541 269.404541 
L 365.658811 271.21427 
L 366.744649 273.144649 
L 367.267459 275.034811 
L 367.388108 277.246703 
L 366.94573 279.177081 
L 366.141405 280.946595 
L 364.894703 282.716108 
L 363.648 284.284541 
L 362.602378 285.893189 
L 361.958919 287.823568 
L 361.83827 289.874595 
L 362.280649 291.885405 
L 363.205622 293.775568 
L 364.090378 295.263568 
L 364.975135 297.274378 
L 365.980541 301.135135 
L 366.583784 302.904649 
L 369.077189 308.534919 
L 371.651027 314.124973 
L 372.415135 316.176 
L 372.696649 317.824865 
L 372.616216 319.996541 
L 372.133622 323.817081 
L 372.294486 325.626811 
L 372.978162 327.557189 
L 375.109622 330.895135 
L 377.884541 335.359135 
L 379.131243 338.013405 
L 380.377946 341.351351 
L 380.860541 342.919784 
L 381.785514 346.659892 
L 382.348541 348.389189 
L 383.353946 350.158703 
L 388.421189 355.949838 
L 389.627676 357.317189 
L 392.523243 360.172541 
L 392.523243 360.172541 
" style="fill:none;stroke:#0cc1e8;stroke-linecap:square;stroke-width:1.5;"/>
   </g>
   <g id="line2d_46">
    <path clip-path="url(#p97ee9b438a)" d="M 450.032432 304.955676 
L 449.831351 305.036108 
L 449.670486 305.237189 
L 449.710703 304.955676 
L 449.590054 304.352432 
L 449.147676 303.427459 
L 448.303135 302.381838 
L 446.65427 301.215568 
L 445.005405 300.531892 
L 441.104432 299.727568 
L 437.686054 299.043892 
L 396.464432 290.477838 
L 394.493838 290.477838 
L 392.724324 290.839784 
L 390.834162 291.684324 
L 387.295135 293.735351 
L 381.705081 296.309189 
L 367.388108 303.10573 
L 357.736216 307.127351 
L 348.164757 310.706595 
L 342.695351 312.275027 
L 341.569297 312.516324 
L 338.633514 312.516324 
L 334.732541 313.2 
L 332.842378 313.401081 
L 330.710919 313.401081 
L 328.659892 312.958703 
L 326.608865 312.717405 
L 324.598054 312.998919 
L 322.587243 313.642378 
L 320.294919 314.205405 
L 318.364541 314.285838 
L 316.152649 313.803243 
L 310.482162 311.309838 
L 306.420324 309.982703 
L 302.680216 309.379459 
L 298.618378 308.092541 
L 290.856649 306.403459 
L 286.995892 304.392649 
L 279.636324 300.491676 
L 277.826595 299.244973 
L 276.338595 297.555892 
L 274.488649 294.217946 
L 273.282162 292.528865 
L 269.300757 287.863784 
L 267.933405 286.496432 
L 266.405189 285.450811 
L 262.705297 283.962811 
L 257.477189 281.348757 
L 255.546811 280.624865 
L 253.415351 280.182486 
L 251.283892 279.539027 
L 249.353514 278.493405 
L 247.744865 277.849946 
L 243.843892 277.16627 
L 241.792865 276.281514 
L 240.063568 275.115243 
L 238.253838 274.069622 
L 232.100757 271.254486 
L 226.953081 268.318703 
L 218.105514 262.728649 
L 199.766919 250.623568 
L 197.957189 249.457297 
L 197.957189 249.457297 
" style="fill:none;stroke:#3ae8d7;stroke-linecap:square;stroke-width:1.5;"/>
   </g>
   <g id="line2d_47">
    <path clip-path="url(#p97ee9b438a)" d="M 140.367568 248.652973 
L 143.263135 248.733405 
L 173.907892 252.151784 
L 177.889297 252.634378 
L 183.760865 253.277838 
L 201.858162 255.288649 
L 205.799351 255.610378 
L 211.268757 256.253838 
L 213.118703 256.816865 
L 214.566486 257.661405 
L 216.01427 258.908108 
L 217.341405 260.235243 
L 218.708757 261.401514 
L 220.518486 262.447135 
L 222.207568 263.211243 
L 224.258595 264.297081 
L 225.505297 265.382919 
L 226.953081 266.468757 
L 230.813838 268.399135 
L 234.352865 270.812108 
L 248.227459 279.498811 
L 249.996973 280.78573 
L 251.846919 282.313946 
L 253.536 283.560649 
L 255.385946 284.364973 
L 256.914162 284.646486 
L 258.884757 284.60627 
L 261.016216 284.324757 
L 265.279135 284.043243 
L 269.622486 283.922595 
L 273.644108 283.882378 
L 291.580541 283.078054 
L 293.591351 282.917189 
L 299.34227 281.549838 
L 308.149622 280.303135 
L 314.262486 279.659676 
L 316.032 279.096649 
L 317.560216 278.493405 
L 319.369946 277.930378 
L 321.260108 277.568432 
L 327.694703 277.286919 
L 329.424 276.764108 
L 336.502054 272.983784 
L 337.829189 271.817514 
L 340.322595 268.680649 
L 341.207351 267.956757 
L 342.293189 267.474162 
L 343.499676 267.313297 
L 346.797405 267.635027 
L 351.301622 268.037189 
L 352.789622 267.675243 
L 354.559135 266.75027 
L 359.143784 263.090595 
L 360.953514 261.803676 
L 362.401297 260.355892 
L 363.125189 259.189622 
L 363.406703 257.862486 
L 363.406703 256.052757 
L 362.521946 252.192 
L 361.958919 248.974703 
L 362.079568 248.250811 
L 362.562162 247.044324 
L 363.768649 245.395459 
L 365.296865 244.148757 
L 367.307676 243.183568 
L 369.479351 242.781405 
L 371.449946 242.902054 
L 373.058595 243.344432 
L 374.787892 244.309622 
L 376.235676 245.596541 
L 377.401946 247.124757 
L 381.262703 253.277838 
L 384.077838 258.425514 
L 393.327568 276 
L 393.327568 276 
" style="fill:none;stroke:#68fcc1;stroke-linecap:square;stroke-width:1.5;"/>
   </g>
   <g id="line2d_48">
    <path clip-path="url(#p97ee9b438a)" d="M 281.124324 192.35027 
L 281.365622 192.390486 
L 282.12973 192.591568 
L 282.732973 193.033946 
L 283.456865 193.798054 
L 284.140541 195.165405 
L 284.381838 197.216432 
L 284.261189 199.388108 
L 284.140541 201.157622 
L 284.019892 203.047784 
L 283.979676 204.89773 
L 283.939459 206.787892 
L 283.859027 208.919351 
L 283.818811 210.809514 
L 283.778595 212.940973 
L 283.738378 214.831135 
L 283.698162 216.962595 
L 283.657946 219.13427 
L 283.61773 221.26573 
L 283.577514 223.155892 
L 283.497081 225.287351 
L 283.456865 227.177514 
L 283.416649 229.308973 
L 283.376432 231.158919 
L 283.336216 233.330595 
L 283.296 235.180541 
L 283.255784 237.352216 
L 283.215568 239.202162 
L 283.175351 241.373838 
L 283.094919 243.223784 
L 283.054703 245.636757 
L 283.014486 247.245405 
L 282.97427 249.417081 
L 282.934054 251.267027 
L 282.893838 253.157189 
L 282.853622 255.288649 
L 282.813405 257.460324 
L 282.732973 259.591784 
L 282.692757 261.481946 
L 282.652541 263.613405 
L 282.612324 265.744865 
L 282.572108 267.635027 
L 282.531892 269.766486 
L 282.491676 271.897946 
L 282.451459 273.788108 
L 282.411243 275.67827 
L 282.330811 277.80973 
L 282.290595 279.699892 
L 282.250378 281.549838 
L 282.210162 283.44 
L 282.169946 285.571459 
L 282.12973 287.461622 
L 282.089514 289.351784 
L 282.049297 291.483243 
L 282.009081 293.614703 
L 281.968865 295.504865 
L 281.928649 297.636324 
L 281.848216 299.808 
L 281.808 301.939459 
L 281.767784 304.070919 
L 281.727568 306.242595 
L 281.687351 308.092541 
L 281.647135 310.264216 
L 281.606919 312.395676 
L 281.566703 314.285838 
L 281.526486 316.135784 
L 281.446054 318.307459 
L 281.405838 320.438919 
L 281.365622 322.329081 
L 281.325405 324.460541 
L 281.325405 326.350703 
L 281.285189 328.200649 
L 281.244973 330.372324 
L 281.204757 332.22227 
" style="fill:none;stroke:#97fca7;stroke-linecap:square;stroke-width:1.5;"/>
   </g>
   <g id="line2d_49">
    <path clip-path="url(#p97ee9b438a)" d="M 140.367568 304.955676 
L 141.332757 304.955676 
L 143.343568 304.835027 
L 145.394595 304.513297 
L 147.244541 304.191568 
L 149.376 303.789405 
L 151.467243 303.427459 
L 153.317189 303.145946 
L 155.167135 302.824216 
L 157.017081 302.502486 
L 159.148541 302.140541 
L 161.28 301.778595 
L 163.371243 301.456865 
L 165.221189 301.135135 
L 167.352649 300.773189 
L 169.202595 300.451459 
L 171.052541 300.12973 
L 172.902486 299.848216 
L 174.752432 299.526486 
L 176.843676 299.164541 
L 178.975135 298.802595 
L 180.825081 298.480865 
L 182.916324 298.118919 
L 185.047784 297.797189 
L 186.89773 297.475459 
L 188.747676 297.15373 
L 190.879135 296.791784 
L 192.729081 296.470054 
L 194.820324 296.108108 
L 196.67027 295.826595 
L 198.520216 295.504865 
L 200.008216 295.223351 
L 201.295135 294.901622 
L 202.62227 294.499459 
L 203.949405 294.057081 
L 205.276541 293.574486 
L 206.563459 293.051676 
L 207.72973 292.569081 
L 208.896 292.086486 
L 210.182919 291.523459 
L 211.308973 291.000649 
L 212.515459 290.437622 
L 213.319784 290.075676 
L 213.721946 289.753946 
L 214.083892 289.231135 
L 214.325189 288.587676 
L 214.445838 287.743135 
L 214.445838 287.059459 
L 214.445838 286.73773 
L 214.52627 286.456216 
L 214.888216 285.893189 
L 215.612108 285.209514 
L 216.697946 284.60627 
L 218.226162 284.204108 
L 219.834811 284.163892 
L 221.443459 284.324757 
L 222.931459 284.485622 
L 224.339027 284.726919 
L 225.625946 284.847568 
L 226.872649 284.968216 
L 228.360649 285.048649 
L 229.446486 285.088865 
L 231.135568 285.048649 
L 232.502919 284.928 
L 233.950703 284.767135 
L 235.478919 284.525838 
L 237.087568 284.284541 
L 239.017946 284.003027 
L 241.028757 283.681297 
L 242.838486 283.44 
L 244.366703 283.198703 
L 246.498162 282.917189 
L 248.348108 282.635676 
L 250.761081 282.27373 
L 252.972973 282.27373 
L 255.144649 282.555243 
L 257.075027 282.716108 
L 258.924973 282.836757 
L 261.337946 282.876973 
L 263.509622 282.876973 
L 265.359568 282.796541 
L 267.491027 282.756324 
L 269.421405 282.756324 
L 271.552865 282.716108 
L 273.362595 282.595459 
L 275.453838 282.434595 
L 277.303784 282.233514 
L 279.15373 281.992216 
L 281.285189 281.710703 
L 283.376432 281.388973 
L 285.387243 280.986811 
L 287.398054 280.464 
L 288.886054 280.021622 
L 290.896865 279.29773 
L 292.867459 278.614054 
L 294.717405 278.252108 
L 297.090162 277.890162 
L 299.221622 277.528216 
L 301.111784 277.286919 
L 302.96173 277.126054 
L 305.133405 276.965189 
L 307.264865 276.884757 
" style="fill:none;stroke:#c5e88a;stroke-linecap:square;stroke-width:1.5;"/>
   </g>
   <g id="line2d_50">
    <path clip-path="url(#p97ee9b438a)" d="M 393.72973 220.501622 
L 393.930811 220.582054 
L 394.091676 220.783135 
L 394.091676 221.305946 
L 393.971027 222.11027 
L 393.408 223.236324 
L 391.960216 224.724324 
L 390.351568 225.769946 
L 388.501622 226.413405 
L 382.951784 227.459027 
L 367.187027 230.636108 
L 357.454703 232.646919 
L 340.362811 236.065297 
L 338.271568 236.226162 
L 336.421622 236.025081 
L 333.928216 235.220757 
L 333.164108 235.220757 
L 332.4 235.421838 
L 331.555459 235.904432 
L 330.027243 237.231568 
L 328.700108 238.598919 
L 327.654486 240.207568 
L 327.011027 242.137946 
L 326.568649 245.837838 
L 326.005622 247.647568 
L 324.115459 251.146378 
L 323.79373 251.347459 
L 322.828541 251.669189 
L 321.461189 251.548541 
L 319.651459 250.744216 
L 317.922162 249.457297 
L 316.393946 248.532324 
L 312.694054 247.285622 
L 308.712649 245.717189 
L 306.742054 244.631351 
L 305.133405 243.062919 
L 302.599784 239.363027 
L 301.071568 237.995676 
L 299.462919 237.191351 
L 297.492324 236.748973 
L 295.964108 236.748973 
L 293.953297 237.231568 
L 292.465297 237.875027 
L 290.454486 238.598919 
L 286.432865 239.081514 
L 284.220973 238.8 
L 281.888432 237.834811 
L 278.470054 235.341405 
L 277.102703 233.974054 
L 274.810378 230.716541 
L 273.20173 229.469838 
L 271.311568 228.625297 
L 267.450811 227.21773 
L 265.76173 226.453622 
L 264.032432 225.810162 
L 261.941189 225.327568 
L 260.091243 225.046054 
L 258.281514 224.885189 
L 256.150054 224.844973 
L 252.168649 225.206919 
L 250.358919 225.488432 
L 246.457946 226.413405 
L 244.447135 227.016649 
L 242.436324 227.740541 
L 238.776649 229.349189 
L 235.277838 231.279568 
L 233.628973 232.244757 
L 230.170378 233.652324 
L 226.671568 235.059892 
L 219.392432 238.438054 
L 201.094054 247.325838 
L 192.407351 251.548541 
L 180.30227 257.339676 
L 159.309405 267.514378 
L 147.284757 273.426162 
L 141.976216 276 
L 141.976216 276 
" style="fill:none;stroke:#f3c16a;stroke-linecap:square;stroke-width:1.5;"/>
   </g>
   <g id="line2d_51">
    <path clip-path="url(#p97ee9b438a)" d="M 140.367568 136.047568 
L 140.890378 136.047568 
L 142.25773 136.208432 
L 144.630486 137.012757 
L 146.239135 138.098595 
L 147.646703 139.546378 
L 149.094486 141.195243 
L 150.54227 142.763676 
L 152.03027 144.251676 
L 153.51827 145.820108 
L 154.845405 147.147243 
L 156.333405 148.675459 
L 157.821405 150.243892 
L 159.309405 151.772108 
L 160.596324 153.139459 
L 162.084324 154.667676 
L 163.411459 156.035027 
L 164.698378 157.362162 
L 166.025514 158.729514 
L 167.674378 160.458811 
L 169.001514 161.785946 
L 170.288432 163.153297 
L 171.776432 164.681514 
L 173.264432 166.249946 
L 174.752432 167.778162 
L 176.240432 169.306378 
L 177.567568 170.67373 
L 178.854486 172.000865 
L 180.181622 173.368216 
L 181.468541 174.695351 
L 182.795676 176.062703 
L 184.283676 177.590919 
L 185.570595 178.95827 
L 187.058595 180.486486 
L 188.38573 181.853838 
L 189.87373 183.382054 
L 191.160649 184.749405 
L 192.648649 186.277622 
L 193.975784 187.644973 
L 195.262703 188.972108 
L 196.589838 190.339459 
L 198.077838 191.867676 
L 199.565838 193.395892 
L 201.053838 194.964324 
L 202.340757 196.291459 
L 203.667892 197.658811 
L 204.954811 198.985946 
L 206.281946 200.353297 
L 207.568865 201.680432 
L 208.896 203.047784 
L 210.182919 204.374919 
L 211.670919 205.943351 
L 212.957838 207.270486 
L 214.284973 208.637838 
L 215.772973 210.166054 
L 217.260973 211.734486 
L 218.547892 213.061622 
L 220.076108 214.630054 
L 221.564108 216.15827 
L 222.851027 217.485405 
L 224.339027 219.053838 
L 225.827027 220.582054 
L 227.154162 221.949405 
L 228.642162 223.477622 
L 229.728 224.643892 
L 231.256216 226.172108 
L 232.543135 227.539459 
L 234.232216 229.268757 
L 235.519135 230.595892 
L 237.007135 232.164324 
L 238.495135 233.692541 
L 239.983135 235.260973 
L 241.471135 236.829405 
L 242.918919 238.397838 
L 244.004757 239.604324 
L 245.372108 241.253189 
L 246.377514 242.540108 
L 246.739459 243.103135 
L 247.020973 243.625946 
L 247.101405 243.827027 
L 247.181838 244.068324 
L 247.222054 244.148757 
L 247.222054 244.229189 
L 247.222054 244.309622 
L 247.222054 244.390054 
L 247.181838 244.470486 
L 247.101405 244.510703 
L 246.980757 244.631351 
L 246.900324 244.711784 
L 246.940541 244.631351 
L 246.980757 244.550919 
L 246.980757 244.912865 
L 247.222054 245.91827 
L 248.066595 247.647568 
L 249.39373 249.216 
L 251.082811 250.342054 
L 252.852324 250.985514 
" style="fill:none;stroke:#ff8a48;stroke-linecap:square;stroke-width:1.5;"/>
   </g>
   <g id="line2d_52">
    <path clip-path="url(#p97ee9b438a)" d="M 337.427027 164.198919 
L 337.628108 164.279351 
L 337.708541 164.319568 
L 337.909622 164.681514 
L 338.231351 165.526054 
L 338.352 166.652108 
L 337.990054 168.260757 
L 337.225946 169.668324 
L 310.321297 204.535784 
L 309.235459 206.144432 
L 308.471351 208.074811 
L 308.27027 210.085622 
L 308.511568 212.056216 
L 308.91373 213.906162 
L 309.114811 216.037622 
L 308.91373 218.249514 
L 308.592 220.300541 
L 308.27027 224.322162 
L 307.264865 228.464432 
L 307.023568 230.555676 
L 306.983351 232.687135 
L 306.701838 234.577297 
L 306.179027 236.668541 
L 304.288865 242.298811 
L 303.404108 244.269405 
L 302.31827 245.837838 
L 300.588973 247.285622 
L 298.578162 248.210595 
L 296.527135 248.693189 
L 294.114162 248.974703 
L 292.103351 248.813838 
L 289.730595 247.969297 
L 285.065514 244.993297 
L 277.344 242.700973 
L 275.292973 242.660757 
L 273.241946 243.062919 
L 271.512649 243.58573 
L 268.214919 245.355243 
L 266.726919 246.722595 
L 264.394378 250.020324 
L 261.579243 252.875676 
L 260.694486 254.122378 
L 260.412973 254.725622 
L 259.970595 256.454919 
L 259.608649 257.902703 
L 258.603243 259.913514 
L 257.115243 261.562378 
L 253.696865 264.176432 
L 252.329514 265.785081 
L 251.525189 267.39373 
L 250.88173 269.364324 
L 249.916541 271.375135 
L 247.463351 274.552216 
L 245.814486 278.211892 
L 244.728649 280.102054 
L 240.184216 286.73773 
L 215.089297 322.530162 
L 209.418811 330.653838 
L 185.691243 364.757189 
L 172.942703 383.015351 
L 169.443892 388.082595 
L 169.443892 388.082595 
" style="fill:none;stroke:#ff4824;stroke-linecap:square;stroke-width:1.5;"/>
   </g>
   <g id="line2d_53">
    <path clip-path="url(#p97ee9b438a)" d="M 196.67027 445.712432 
L 198.238703 445.471135 
L 199.887568 444.747243 
L 201.335351 443.661405 
L 202.501622 442.294054 
L 215.974054 420.537081 
L 221.523892 411.689514 
L 231.457297 395.763892 
L 232.824649 393.793297 
L 234.51373 392.144432 
L 236.444108 391.018378 
L 240.385297 389.691243 
L 242.235243 388.726054 
L 245.492757 386.876108 
L 249.072 385.066378 
L 257.798919 380.361081 
L 268.576865 374.288432 
L 272.196324 373.122162 
L 277.263568 370.427676 
L 280.842811 368.617946 
L 288.242595 364.716973 
L 290.695784 364.194162 
L 293.189189 364.395243 
L 295.280432 365.159351 
L 297.210811 366.406054 
L 298.819459 367.210378 
L 300.790054 367.652757 
L 302.237838 367.652757 
L 303.042162 367.451676 
L 304.489946 366.727784 
L 306.259459 365.481081 
L 308.189838 364.395243 
L 310.200649 363.590919 
L 312.251676 362.464865 
L 313.900541 361.338811 
L 315.428757 360.574703 
L 317.640649 359.931243 
L 320.053622 359.00627 
L 321.782919 357.799784 
L 323.190486 356.553081 
L 326.528432 354.180324 
L 328.25773 352.933622 
L 329.906595 351.56627 
L 331.635892 350.279351 
L 333.164108 349.635892 
L 334.571676 349.555459 
L 336.783568 350.038054 
L 338.754162 350.922811 
L 340.201946 351.405405 
L 342.212757 351.606486 
L 346.797405 351.003243 
L 348.647351 351.083676 
L 350.457081 351.526054 
L 352.226595 351.727135 
L 354.237405 351.485838 
L 356.127568 350.72173 
L 361.154595 347.182703 
L 366.704432 344.970811 
L 380.940973 338.134054 
L 384.48 336.203676 
L 386.249514 335.077622 
L 389.547243 332.745081 
L 393.327568 330.814703 
L 398.19373 327.516973 
L 401.290378 325.224649 
L 403.059892 324.380108 
L 404.950054 323.93773 
L 408.207568 323.736649 
L 409.132541 323.414919 
L 410.580324 322.369297 
L 411.907459 320.841081 
L 413.636757 317.704216 
L 414.722595 316.135784 
L 415.728 314.889081 
L 417.899676 311.551135 
L 422.202811 304.473081 
L 424.052757 300.97427 
L 424.696216 298.923243 
L 424.816865 297.073297 
L 424.736432 293.574486 
L 424.776649 289.190919 
L 425.339676 283.359568 
L 425.339676 279.378162 
L 424.897297 275.436973 
L 424.253838 271.455568 
L 422.323459 262.044973 
L 393.971027 137.052973 
L 393.971027 137.052973 
" style="fill:none;stroke:#ff0000;stroke-linecap:square;stroke-width:1.5;"/>
   </g>
   <g id="patch_3">
    <path d="M 72 512.64 
L 72 69.12 
" style="fill:none;stroke:#000000;stroke-linecap:square;stroke-linejoin:miter;stroke-width:0.8;"/>
   </g>
   <g id="patch_4">
    <path d="M 518.4 512.64 
L 518.4 69.12 
" style="fill:none;stroke:#000000;stroke-linecap:square;stroke-linejoin:miter;stroke-width:0.8;"/>
   </g>
   <g id="patch_5">
    <path d="M 72 512.64 
L 518.4 512.64 
" style="fill:none;stroke:#000000;stroke-linecap:square;stroke-linejoin:miter;stroke-width:0.8;"/>
   </g>
   <g id="patch_6">
    <path d="M 72 69.12 
L 518.4 69.12 
" style="fill:none;stroke:#000000;stroke-linecap:square;stroke-linejoin:miter;stroke-width:0.8;"/>
   </g>
   <g id="text_13">
    <!-- 1 -->
    <defs>
     <path d="M 14.203125 0 
L 14.203125 5.171875 
L 26.90625 5.171875 
L 26.90625 65.828125 
L 12.203125 56.296875 
L 12.203125 62.703125 
L 29.984375 74.21875 
L 36.71875 74.21875 
L 36.71875 5.171875 
L 49.421875 5.171875 
L 49.421875 0 
z
" id="DejaVuSerif-31"/>
    </defs>
    <g transform="translate(137.186318 389.40973)scale(0.1 -0.1)">
     <use xlink:href="#DejaVuSerif-31"/>
    </g>
   </g>
   <g id="text_14">
    <!-- 1 -->
    <g transform="translate(390.54848 192.35027)scale(0.1 -0.1)">
     <use xlink:href="#DejaVuSerif-31"/>
    </g>
   </g>
   <g id="text_15">
    <!-- 2 -->
    <defs>
     <path d="M 12.796875 55.515625 
L 7.328125 55.515625 
L 7.328125 68.5 
Q 12.546875 71.296875 17.84375 72.75 
Q 23.140625 74.21875 28.21875 74.21875 
Q 39.59375 74.21875 46.1875 68.703125 
Q 52.78125 63.1875 52.78125 53.71875 
Q 52.78125 43.015625 37.84375 28.125 
Q 36.671875 27 36.078125 26.421875 
L 17.671875 8.015625 
L 48.09375 8.015625 
L 48.09375 17 
L 53.8125 17 
L 53.8125 0 
L 6.78125 0 
L 6.78125 5.328125 
L 28.90625 27.390625 
Q 36.234375 34.71875 39.359375 40.84375 
Q 42.484375 46.96875 42.484375 53.71875 
Q 42.484375 61.078125 38.640625 65.234375 
Q 34.8125 69.390625 28.078125 69.390625 
Q 21.09375 69.390625 17.28125 65.921875 
Q 13.484375 62.453125 12.796875 55.515625 
z
" id="DejaVuSerif-32"/>
    </defs>
    <g transform="translate(446.851182 192.35027)scale(0.1 -0.1)">
     <use xlink:href="#DejaVuSerif-32"/>
    </g>
   </g>
   <g id="text_16">
    <!-- 2 -->
    <g transform="translate(221.640372 361.258378)scale(0.1 -0.1)">
     <use xlink:href="#DejaVuSerif-32"/>
    </g>
   </g>
   <g id="text_17">
    <!-- 3 -->
    <defs>
     <path d="M 9.71875 69.828125 
Q 15.4375 71.96875 20.671875 73.09375 
Q 25.921875 74.21875 30.515625 74.21875 
Q 41.21875 74.21875 47.21875 69.59375 
Q 53.21875 64.984375 53.21875 56.78125 
Q 53.21875 50.203125 49.0625 45.78125 
Q 44.921875 41.359375 37.3125 39.796875 
Q 46.296875 38.53125 51.25 33.28125 
Q 56.203125 28.03125 56.203125 19.671875 
Q 56.203125 9.46875 49.34375 4.015625 
Q 42.484375 -1.421875 29.59375 -1.421875 
Q 23.875 -1.421875 18.421875 -0.1875 
Q 12.984375 1.03125 7.625 3.515625 
L 7.625 17.671875 
L 13.09375 17.671875 
Q 13.578125 10.640625 17.828125 7.03125 
Q 22.078125 3.421875 29.78125 3.421875 
Q 37.25 3.421875 41.578125 7.734375 
Q 45.90625 12.0625 45.90625 19.578125 
Q 45.90625 28.171875 41.453125 32.59375 
Q 37.015625 37.015625 28.421875 37.015625 
L 23.78125 37.015625 
L 23.78125 42 
L 26.21875 42 
Q 34.765625 42 39.03125 45.53125 
Q 43.3125 49.078125 43.3125 56.203125 
Q 43.3125 62.59375 39.796875 65.984375 
Q 36.28125 69.390625 29.6875 69.390625 
Q 23.09375 69.390625 19.453125 66.265625 
Q 15.828125 63.140625 15.1875 56.984375 
L 9.71875 56.984375 
z
" id="DejaVuSerif-33"/>
    </defs>
    <g transform="translate(398.993885 440.082162)scale(0.1 -0.1)">
     <use xlink:href="#DejaVuSerif-33"/>
    </g>
   </g>
   <g id="text_18">
    <!-- 3 -->
    <g transform="translate(221.640372 192.35027)scale(0.1 -0.1)">
     <use xlink:href="#DejaVuSerif-33"/>
    </g>
   </g>
   <g id="text_19">
    <!-- 4 -->
    <defs>
     <path d="M 34.90625 24.703125 
L 34.90625 63.484375 
L 10.015625 24.703125 
z
M 56.390625 0 
L 23.1875 0 
L 23.1875 5.171875 
L 34.90625 5.171875 
L 34.90625 19.484375 
L 3.078125 19.484375 
L 3.078125 24.8125 
L 35.015625 74.21875 
L 44.671875 74.21875 
L 44.671875 24.703125 
L 58.59375 24.703125 
L 58.59375 19.484375 
L 44.671875 19.484375 
L 44.671875 5.171875 
L 56.390625 5.171875 
z
" id="DejaVuSerif-34"/>
    </defs>
    <g transform="translate(221.640372 136.047568)scale(0.1 -0.1)">
     <use xlink:href="#DejaVuSerif-34"/>
    </g>
   </g>
   <g id="text_20">
    <!-- 4 -->
    <g transform="translate(390.54848 361.258378)scale(0.1 -0.1)">
     <use xlink:href="#DejaVuSerif-34"/>
    </g>
   </g>
   <g id="text_21">
    <!-- 5 -->
    <defs>
     <path d="M 50.296875 72.90625 
L 50.296875 64.890625 
L 16.890625 64.890625 
L 16.890625 44 
Q 19.4375 45.75 22.828125 46.625 
Q 26.21875 47.515625 30.421875 47.515625 
Q 42.234375 47.515625 49.0625 40.96875 
Q 55.90625 34.421875 55.90625 23.09375 
Q 55.90625 11.53125 49 5.046875 
Q 42.09375 -1.421875 29.59375 -1.421875 
Q 24.5625 -1.421875 19.28125 -0.1875 
Q 14.015625 1.03125 8.5 3.515625 
L 8.5 17.671875 
L 14.015625 17.671875 
Q 14.453125 10.75 18.421875 7.078125 
Q 22.40625 3.421875 29.59375 3.421875 
Q 37.3125 3.421875 41.453125 8.5 
Q 45.609375 13.578125 45.609375 23.09375 
Q 45.609375 32.5625 41.484375 37.609375 
Q 37.359375 42.671875 29.59375 42.671875 
Q 25.203125 42.671875 21.84375 41.109375 
Q 18.5 39.546875 15.921875 36.28125 
L 11.71875 36.28125 
L 11.71875 72.90625 
z
" id="DejaVuSerif-35"/>
    </defs>
    <g transform="translate(446.851182 304.955676)scale(0.1 -0.1)">
     <use xlink:href="#DejaVuSerif-35"/>
    </g>
   </g>
   <g id="text_22">
    <!-- 5 -->
    <g transform="translate(193.48902 248.652973)scale(0.1 -0.1)">
     <use xlink:href="#DejaVuSerif-35"/>
    </g>
   </g>
   <g id="text_23">
    <!-- 6 -->
    <defs>
     <path d="M 32.71875 3.421875 
Q 39.59375 3.421875 43.296875 8.46875 
Q 47.015625 13.53125 47.015625 23 
Q 47.015625 32.46875 43.296875 37.515625 
Q 39.59375 42.578125 32.71875 42.578125 
Q 25.734375 42.578125 22.0625 37.6875 
Q 18.40625 32.8125 18.40625 23.578125 
Q 18.40625 13.875 22.109375 8.640625 
Q 25.828125 3.421875 32.71875 3.421875 
z
M 16.796875 40.140625 
Q 20.125 43.796875 24.3125 45.59375 
Q 28.515625 47.40625 33.796875 47.40625 
Q 44.671875 47.40625 51 40.859375 
Q 57.328125 34.328125 57.328125 23 
Q 57.328125 11.921875 50.515625 5.25 
Q 43.703125 -1.421875 32.328125 -1.421875 
Q 19.96875 -1.421875 13.328125 7.78125 
Q 6.6875 17 6.6875 34.078125 
Q 6.6875 53.21875 14.546875 63.71875 
Q 22.40625 74.21875 36.71875 74.21875 
Q 40.578125 74.21875 44.828125 73.484375 
Q 49.078125 72.75 53.515625 71.296875 
L 53.515625 59.28125 
L 48 59.28125 
Q 47.40625 64.203125 44.234375 66.796875 
Q 41.0625 69.390625 35.6875 69.390625 
Q 26.21875 69.390625 21.578125 62.203125 
Q 16.9375 55.03125 16.796875 40.140625 
z
" id="DejaVuSerif-36"/>
    </defs>
    <g transform="translate(137.186318 248.652973)scale(0.1 -0.1)">
     <use xlink:href="#DejaVuSerif-36"/>
    </g>
   </g>
   <g id="text_24">
    <!-- 6 -->
    <g transform="translate(390.54848 276.804324)scale(0.1 -0.1)">
     <use xlink:href="#DejaVuSerif-36"/>
    </g>
   </g>
   <g id="text_25">
    <!-- 7 -->
    <defs>
     <path d="M 56.390625 67.921875 
L 27.875 0 
L 20.609375 0 
L 47.796875 64.890625 
L 14.109375 64.890625 
L 14.109375 55.90625 
L 8.40625 55.90625 
L 8.40625 72.90625 
L 56.390625 72.90625 
z
" id="DejaVuSerif-37"/>
    </defs>
    <g transform="translate(277.943074 192.35027)scale(0.1 -0.1)">
     <use xlink:href="#DejaVuSerif-37"/>
    </g>
   </g>
   <g id="text_26">
    <!-- 7 -->
    <g transform="translate(277.943074 333.107027)scale(0.1 -0.1)">
     <use xlink:href="#DejaVuSerif-37"/>
    </g>
   </g>
   <g id="text_27">
    <!-- 8 -->
    <defs>
     <path d="M 46.578125 19.921875 
Q 46.578125 27.734375 42.6875 32.046875 
Q 38.8125 36.375 31.78125 36.375 
Q 24.75 36.375 20.875 32.046875 
Q 17 27.734375 17 19.921875 
Q 17 12.0625 20.875 7.734375 
Q 24.75 3.421875 31.78125 3.421875 
Q 38.8125 3.421875 42.6875 7.734375 
Q 46.578125 12.0625 46.578125 19.921875 
z
M 44.578125 55.328125 
Q 44.578125 61.96875 41.203125 65.671875 
Q 37.84375 69.390625 31.78125 69.390625 
Q 25.78125 69.390625 22.390625 65.671875 
Q 19 61.96875 19 55.328125 
Q 19 48.640625 22.390625 44.921875 
Q 25.78125 41.21875 31.78125 41.21875 
Q 37.84375 41.21875 41.203125 44.921875 
Q 44.578125 48.640625 44.578125 55.328125 
z
M 39.3125 38.8125 
Q 47.609375 37.703125 52.25 32.6875 
Q 56.890625 27.6875 56.890625 19.921875 
Q 56.890625 9.671875 50.390625 4.125 
Q 43.890625 -1.421875 31.78125 -1.421875 
Q 19.734375 -1.421875 13.203125 4.125 
Q 6.6875 9.671875 6.6875 19.921875 
Q 6.6875 27.6875 11.328125 32.6875 
Q 15.96875 37.703125 24.3125 38.8125 
Q 16.9375 40.140625 13 44.40625 
Q 9.078125 48.6875 9.078125 55.328125 
Q 9.078125 64.109375 15.125 69.15625 
Q 21.1875 74.21875 31.78125 74.21875 
Q 42.390625 74.21875 48.4375 69.15625 
Q 54.5 64.109375 54.5 55.328125 
Q 54.5 48.6875 50.5625 44.40625 
Q 46.625 40.140625 39.3125 38.8125 
z
" id="DejaVuSerif-38"/>
    </defs>
    <g transform="translate(137.186318 304.955676)scale(0.1 -0.1)">
     <use xlink:href="#DejaVuSerif-38"/>
    </g>
   </g>
   <g id="text_28">
    <!-- 8 -->
    <g transform="translate(306.094426 276.804324)scale(0.1 -0.1)">
     <use xlink:href="#DejaVuSerif-38"/>
    </g>
   </g>
   <g id="text_29">
    <!-- 9 -->
    <defs>
     <path d="M 46.78125 32.671875 
Q 43.5 29 39.25 27.1875 
Q 35.015625 25.390625 29.6875 25.390625 
Q 18.84375 25.390625 12.5625 31.9375 
Q 6.296875 38.484375 6.296875 49.8125 
Q 6.296875 60.890625 13.109375 67.546875 
Q 19.921875 74.21875 31.296875 74.21875 
Q 43.65625 74.21875 50.265625 65.015625 
Q 56.890625 55.8125 56.890625 38.71875 
Q 56.890625 19.578125 49.015625 9.078125 
Q 41.15625 -1.421875 26.90625 -1.421875 
Q 23.046875 -1.421875 18.796875 -0.6875 
Q 14.546875 0.046875 10.109375 1.515625 
L 10.109375 13.625 
L 15.578125 13.625 
Q 16.21875 8.6875 19.390625 6.046875 
Q 22.5625 3.421875 27.875 3.421875 
Q 37.359375 3.421875 41.984375 10.5625 
Q 46.625 17.71875 46.78125 32.671875 
z
M 30.90625 69.390625 
Q 23.96875 69.390625 20.28125 64.328125 
Q 16.609375 59.28125 16.609375 49.8125 
Q 16.609375 40.328125 20.28125 35.25 
Q 23.96875 30.171875 30.90625 30.171875 
Q 37.84375 30.171875 41.53125 35.078125 
Q 45.21875 39.984375 45.21875 49.21875 
Q 45.21875 58.9375 41.5 64.15625 
Q 37.796875 69.390625 30.90625 69.390625 
z
" id="DejaVuSerif-39"/>
    </defs>
    <g transform="translate(390.54848 220.501622)scale(0.1 -0.1)">
     <use xlink:href="#DejaVuSerif-39"/>
    </g>
   </g>
   <g id="text_30">
    <!-- 9 -->
    <g transform="translate(137.186318 276.804324)scale(0.1 -0.1)">
     <use xlink:href="#DejaVuSerif-39"/>
    </g>
   </g>
   <g id="text_31">
    <!-- 10 -->
    <defs>
     <path d="M 31.78125 3.421875 
Q 39.265625 3.421875 42.96875 11.625 
Q 46.6875 19.828125 46.6875 36.375 
Q 46.6875 52.984375 42.96875 61.1875 
Q 39.265625 69.390625 31.78125 69.390625 
Q 24.3125 69.390625 20.59375 61.1875 
Q 16.890625 52.984375 16.890625 36.375 
Q 16.890625 19.828125 20.59375 11.625 
Q 24.3125 3.421875 31.78125 3.421875 
z
M 31.78125 -1.421875 
Q 19.921875 -1.421875 13.25 8.53125 
Q 6.59375 18.5 6.59375 36.375 
Q 6.59375 54.296875 13.25 64.25 
Q 19.921875 74.21875 31.78125 74.21875 
Q 43.703125 74.21875 50.34375 64.25 
Q 56.984375 54.296875 56.984375 36.375 
Q 56.984375 18.5 50.34375 8.53125 
Q 43.703125 -1.421875 31.78125 -1.421875 
z
" id="DejaVuSerif-30"/>
    </defs>
    <g transform="translate(134.005068 136.047568)scale(0.1 -0.1)">
     <use xlink:href="#DejaVuSerif-31"/>
     <use x="63.623047" xlink:href="#DejaVuSerif-30"/>
    </g>
   </g>
   <g id="text_32">
    <!-- 10 -->
    <g transform="translate(246.610473 248.652973)scale(0.1 -0.1)">
     <use xlink:href="#DejaVuSerif-31"/>
     <use x="63.623047" xlink:href="#DejaVuSerif-30"/>
    </g>
   </g>
   <g id="text_33">
    <!-- 11 -->
    <g transform="translate(331.064527 164.198919)scale(0.1 -0.1)">
     <use xlink:href="#DejaVuSerif-31"/>
     <use x="63.623047" xlink:href="#DejaVuSerif-31"/>
    </g>
   </g>
   <g id="text_34">
    <!-- 11 -->
    <g transform="translate(162.156419 389.40973)scale(0.1 -0.1)">
     <use xlink:href="#DejaVuSerif-31"/>
     <use x="63.623047" xlink:href="#DejaVuSerif-31"/>
    </g>
   </g>
   <g id="text_35">
    <!-- 12 -->
    <g transform="translate(190.30777 445.712432)scale(0.1 -0.1)">
     <use xlink:href="#DejaVuSerif-31"/>
     <use x="63.623047" xlink:href="#DejaVuSerif-32"/>
    </g>
   </g>
   <g id="text_36">
    <!-- 12 -->
    <g transform="translate(387.36723 136.047568)scale(0.1 -0.1)">
     <use xlink:href="#DejaVuSerif-31"/>
     <use x="63.623047" xlink:href="#DejaVuSerif-32"/>
    </g>
   </g>
   <g id="text_37">
    <!-- MRPP -->
    <defs>
     <path d="M 9.8125 72.90625 
L 24.515625 72.90625 
L 43.109375 23.296875 
L 61.8125 72.90625 
L 76.515625 72.90625 
L 76.515625 0 
L 66.890625 0 
L 66.890625 64.015625 
L 48.09375 14.015625 
L 38.1875 14.015625 
L 19.390625 64.015625 
L 19.390625 0 
L 9.8125 0 
z
" id="DejaVuSans-4d"/>
     <path d="M 44.390625 34.1875 
Q 47.5625 33.109375 50.5625 29.59375 
Q 53.5625 26.078125 56.59375 19.921875 
L 66.609375 0 
L 56 0 
L 46.6875 18.703125 
Q 43.0625 26.03125 39.671875 28.421875 
Q 36.28125 30.8125 30.421875 30.8125 
L 19.671875 30.8125 
L 19.671875 0 
L 9.8125 0 
L 9.8125 72.90625 
L 32.078125 72.90625 
Q 44.578125 72.90625 50.734375 67.671875 
Q 56.890625 62.453125 56.890625 51.90625 
Q 56.890625 45.015625 53.6875 40.46875 
Q 50.484375 35.9375 44.390625 34.1875 
z
M 19.671875 64.796875 
L 19.671875 38.921875 
L 32.078125 38.921875 
Q 39.203125 38.921875 42.84375 42.21875 
Q 46.484375 45.515625 46.484375 51.90625 
Q 46.484375 58.296875 42.84375 61.546875 
Q 39.203125 64.796875 32.078125 64.796875 
z
" id="DejaVuSans-52"/>
     <path d="M 19.671875 64.796875 
L 19.671875 37.40625 
L 32.078125 37.40625 
Q 38.96875 37.40625 42.71875 40.96875 
Q 46.484375 44.53125 46.484375 51.125 
Q 46.484375 57.671875 42.71875 61.234375 
Q 38.96875 64.796875 32.078125 64.796875 
z
M 9.8125 72.90625 
L 32.078125 72.90625 
Q 44.34375 72.90625 50.609375 67.359375 
Q 56.890625 61.8125 56.890625 51.125 
Q 56.890625 40.328125 50.609375 34.8125 
Q 44.34375 29.296875 32.078125 29.296875 
L 19.671875 29.296875 
L 19.671875 0 
L 9.8125 0 
z
" id="DejaVuSans-50"/>
    </defs>
    <g transform="translate(278.618437 63.12)scale(0.12 -0.12)">
     <use xlink:href="#DejaVuSans-4d"/>
     <use x="86.279297" xlink:href="#DejaVuSans-52"/>
     <use x="155.761719" xlink:href="#DejaVuSans-50"/>
     <use x="216.064453" xlink:href="#DejaVuSans-50"/>
    </g>
   </g>
  </g>
 </g>
 <defs>
  <clipPath id="p97ee9b438a">
   <rect height="443.52" width="446.4" x="72" y="69.12"/>
  </clipPath>
 </defs>
</svg>
